<svg xmlns="http://www.w3.org/2000/svg" version="1.1" style="font-family:Lato, &#x27;Helvetica Neue&#x27;, Helvetica, Arial, &#x27;Liberation Sans&#x27;, sans-serif;font-size:18px;background-color:white;text-rendering:geometricPrecision;-webkit-font-smoothing:antialiased" width="850" height="600" viewBox="0 0 850 600"><defs><pattern id="noDataPattern" patternUnits="userSpaceOnUse" width="4" height="4" patternTransform="rotate(-45 2 2)"><path d="M -1,2 l 6,0" stroke="#ccc" stroke-width="0.7"></path></pattern></defs><rect class="background-fill" fill="white" width="850" height="600"></rect><g class="HeaderView"><g transform="translate(774, 15) scale(0.29)"><svg className="owidLog" width="210" height="120" viewBox="0 0 210 120" fill="none" xmlns="http://www.w3.org/2000/svg">
<g clip-path="url(#clip0)">
  <path d="M0 0h210v107.89H0V0z" fill="#002147" />
  <path
    d="M40.98 32.25c0 2.36-.38 4.53-1.12 6.51a14.26 14.26 0 0 1-8.1 8.4c-1.9.78-4.02 1.17-6.34 1.17-2.31 0-4.42-.39-6.33-1.17a14.31 14.31 0 0 1-8.08-8.4 18.29 18.29 0 0 1-1.12-6.51c0-2.36.38-4.53 1.12-6.5.75-1.97 1.8-3.67 3.17-5.1a14.32 14.32 0 0 1 4.9-3.34c1.92-.8 4.03-1.19 6.34-1.19 2.32 0 4.43.4 6.34 1.19 1.92.8 3.56 1.9 4.93 3.34a14.87 14.87 0 0 1 3.17 5.1 18.1 18.1 0 0 1 1.12 6.5zm-4.38 0c0-1.94-.26-3.68-.8-5.22a10.91 10.91 0 0 0-2.24-3.89 9.68 9.68 0 0 0-3.52-2.46 11.95 11.95 0 0 0-4.62-.86c-1.68 0-3.21.28-4.6.86a9.88 9.88 0 0 0-3.54 2.46 10.91 10.91 0 0 0-2.24 3.9c-.53 1.53-.8 3.27-.8 5.2 0 1.94.27 3.68.8 5.22a11.17 11.17 0 0 0 2.24 3.9 10.01 10.01 0 0 0 3.55 2.44c1.38.56 2.9.83 4.6.83s3.24-.27 4.61-.83a9.8 9.8 0 0 0 3.52-2.44 11.17 11.17 0 0 0 2.25-3.9c.53-1.54.8-3.28.8-5.21zm26.22-6.54V48H60.5c-.56 0-.9-.27-1.05-.81l-.31-2.4a12.45 12.45 0 0 1-3.26 2.6c-1.2.64-2.58.96-4.13.96-1.22 0-2.3-.2-3.24-.6a6.52 6.52 0 0 1-2.33-1.7 7.37 7.37 0 0 1-1.43-2.67c-.3-1.04-.46-2.2-.46-3.45V25.7h3.91v14.22c0 1.68.38 2.99 1.15 3.91.77.93 1.96 1.39 3.54 1.39 1.16 0 2.24-.27 3.23-.82a10.42 10.42 0 0 0 2.8-2.28V25.7h3.91zm8.61 4.47a9.94 9.94 0 0 1 2.6-3.56 5.64 5.64 0 0 1 3.76-1.3c.47 0 .92.05 1.34.15.44.1.83.27 1.17.49l-.3 2.92c-.09.37-.3.55-.66.55-.2 0-.5-.04-.9-.13a6.21 6.21 0 0 0-3.24.18 4.23 4.23 0 0 0-1.47.92c-.42.4-.81.9-1.17 1.5-.33.58-.64 1.26-.92 2.02V48H67.7V25.71h2.25c.42 0 .72.08.88.25.16.16.27.44.33.83l.26 3.39zm61.16-13.7L122.75 48h-3.82l-7.99-24.05a21.95 21.95 0 0 1-.42-1.58 38.36 38.36 0 0 1-.44 1.58L102.05 48h-3.83L88.4 16.47h3.54c.38 0 .7.1.95.29.26.2.43.43.5.73l6.52 21.9.28 1.28.29 1.46.3-1.46.38-1.27 7.41-21.91c.1-.25.26-.48.51-.69.27-.22.58-.33.95-.33h1.23c.38 0 .69.1.92.29a1.77 1.77 0 0 1 .53.73l7.4 21.9a28.4 28.4 0 0 1 .68 2.62 29.52 29.52 0 0 1 .52-2.61l6.54-21.91a1.31 1.31 0 0 1 .48-.7c.27-.21.58-.32.95-.32h3.32zm9.35 8.88c1.63 0 3.1.27 4.4.82a9.43 9.43 0 0 1 5.46 5.94c.5 1.4.74 2.98.74 4.73 0 1.76-.25 3.34-.74 4.75a9.43 9.43 0 0 1-5.46 5.92c-1.3.52-2.77.79-4.4.79-1.64 0-3.12-.27-4.44-.8a9.42 9.42 0 0 1-3.35-2.3c-.92-1-1.63-2.2-2.13-3.61-.49-1.41-.73-3-.73-4.75s.24-3.33.73-4.73c.5-1.43 1.2-2.64 2.13-3.63.93-1 2.04-1.77 3.35-2.31 1.32-.55 2.8-.82 4.44-.82zm0 19.89c2.2 0 3.84-.73 4.93-2.2 1.08-1.48 1.63-3.54 1.63-6.18 0-2.66-.55-4.72-1.63-6.2-1.09-1.49-2.73-2.23-4.93-2.23-1.12 0-2.09.2-2.93.57a5.71 5.71 0 0 0-2.06 1.65c-.55.72-.96 1.61-1.24 2.67-.26 1.04-.4 2.22-.4 3.54 0 2.64.55 4.7 1.64 6.18 1.1 1.47 2.76 2.2 4.99 2.2zm17.97-15.07a9.94 9.94 0 0 1 2.6-3.56 5.64 5.64 0 0 1 3.76-1.3c.47 0 .91.05 1.34.15.44.1.83.27 1.16.49l-.28 2.92c-.09.37-.31.55-.66.55-.2 0-.5-.04-.9-.13a6.2 6.2 0 0 0-3.24.18 4.23 4.23 0 0 0-1.47.92c-.43.4-.82.9-1.17 1.5a13.1 13.1 0 0 0-.92 2.02V48h-3.94V25.71h2.24c.43 0 .72.08.88.25.17.16.28.44.33.83l.27 3.39zm15.04-14.59V48h-3.92V15.6h3.92zm19.55 15.43a6.22 6.22 0 0 0-2.38-2.05 6.7 6.7 0 0 0-2.86-.6c-2.07 0-3.66.75-4.77 2.23-1.12 1.48-1.68 3.6-1.68 6.33 0 1.46.13 2.7.38 3.74a7.29 7.29 0 0 0 1.1 2.56 4.35 4.35 0 0 0 1.78 1.45c.7.3 1.5.46 2.4.46 1.29 0 2.41-.3 3.36-.88a9.6 9.6 0 0 0 2.67-2.49V31.02zm3.91-15.43V48h-2.33c-.56 0-.9-.27-1.06-.81l-.35-2.71a12.13 12.13 0 0 1-3.25 2.77 8.28 8.28 0 0 1-4.23 1.06 7.31 7.31 0 0 1-6.14-2.9c-.73-.96-1.3-2.15-1.69-3.57a18.35 18.35 0 0 1 .07-9.48 11.29 11.29 0 0 1 1.89-3.7 8.7 8.7 0 0 1 7.06-3.34 7.96 7.96 0 0 1 6.12 2.62V15.59h3.91zM46.61 70.71V93H42.7V70.71h3.91zm.84-7c0 .39-.08.75-.24 1.09-.15.32-.35.61-.62.88-.25.25-.55.44-.9.59a2.67 2.67 0 0 1-2.16 0 2.9 2.9 0 0 1-1.45-1.47 2.67 2.67 0 0 1 0-2.16c.15-.35.35-.65.6-.9.25-.27.53-.47.85-.62a2.67 2.67 0 0 1 2.16 0c.35.15.65.35.9.62.27.25.47.55.62.9.16.34.24.7.24 1.08zm7.97 10.24c.49-.54 1-1.04 1.54-1.48a9.85 9.85 0 0 1 3.66-1.84 8.96 8.96 0 0 1 5.43.35c.94.4 1.72.97 2.33 1.71.63.74 1.11 1.62 1.43 2.67.32 1.04.49 2.19.49 3.45V93h-3.94V78.81c0-1.69-.4-3-1.17-3.92-.76-.93-1.93-1.4-3.5-1.4-1.15 0-2.24.27-3.25.83-1 .56-1.92 1.31-2.77 2.27V93h-3.94V70.71h2.35c.56 0 .9.28 1.04.82l.3 2.42zm57.7 3.3c0 2.36-.37 4.5-1.11 6.44a14.3 14.3 0 0 1-3.17 4.98c-1.37 1.37-3 2.45-4.93 3.2-1.9.76-4.02 1.13-6.33 1.13H85.8V61.47h11.77c2.31 0 4.42.39 6.33 1.15a13.8 13.8 0 0 1 8.1 8.18 17.75 17.75 0 0 1 1.12 6.45zm-4.37 0c0-1.94-.26-3.67-.8-5.2a10.94 10.94 0 0 0-2.23-3.87 9.57 9.57 0 0 0-3.53-2.42 12.23 12.23 0 0 0-4.61-.83h-7.5v24.62h7.5c1.7 0 3.24-.28 4.61-.84a9.7 9.7 0 0 0 3.53-2.4 10.94 10.94 0 0 0 2.24-3.87c.53-1.53.8-3.26.8-5.2zm19.8 5.72c-1.8.06-3.34.2-4.62.44-1.26.22-2.3.51-3.1.88-.8.36-1.37.8-1.74 1.3-.35.5-.53 1.05-.53 1.67 0 .58.1 1.1.3 1.52a3 3 0 0 0 .76 1.05c.34.27.73.46 1.17.6a6.13 6.13 0 0 0 1.45.17 7.28 7.28 0 0 0 3.5-.81 11.95 11.95 0 0 0 2.82-2.2v-4.62zm-12.65-9.11a12.73 12.73 0 0 1 3.98-2.66c1.43-.59 3-.88 4.73-.88 1.25 0 2.36.2 3.33.61a6.81 6.81 0 0 1 3.94 4.38c.33 1.04.5 2.19.5 3.43V93h-1.74a1.8 1.8 0 0 1-.88-.18c-.2-.13-.36-.38-.48-.74l-.44-2.12-1.72 1.46a9.48 9.48 0 0 1-3.74 1.7c-.69.15-1.46.23-2.3.23-.87 0-1.69-.12-2.45-.35a5.34 5.34 0 0 1-3.34-2.93 6.64 6.64 0 0 1-.49-2.64c0-.88.25-1.72.73-2.53a6.33 6.33 0 0 1 2.35-2.17c1.09-.63 2.5-1.15 4.25-1.54 1.75-.41 3.89-.65 6.42-.7v-1.75c0-1.73-.37-3.03-1.12-3.91-.75-.9-1.84-1.34-3.28-1.34-.97 0-1.78.12-2.44.37-.64.23-1.2.5-1.7.81l-1.23.82c-.33.23-.67.35-1 .35-.27 0-.5-.07-.69-.2a2.1 2.1 0 0 1-.48-.53l-.7-1.25zm27.67 19.5c-1.76 0-3.12-.5-4.07-1.48-.94-.98-1.41-2.4-1.41-4.25V74h-2.68a.9.9 0 0 1-.6-.2c-.16-.14-.24-.36-.24-.66v-1.56l3.65-.46.9-6.89c.05-.22.14-.4.29-.52a.88.88 0 0 1 .62-.22H142v7.67h6.44V74H142v13.38c0 .94.22 1.63.68 2.09.45.45 1.04.68 1.76.68a3.21 3.21 0 0 0 1.85-.53l.55-.35c.16-.12.3-.18.41-.18.2 0 .4.13.55.38l1.15 1.87a7.45 7.45 0 0 1-2.44 1.5 8.53 8.53 0 0 1-2.95.52zm19.68-10.4c-1.8.07-3.34.21-4.62.45-1.26.22-2.3.51-3.1.88-.8.36-1.37.8-1.74 1.3-.35.5-.53 1.05-.53 1.67 0 .58.1 1.1.3 1.52a2.9 2.9 0 0 0 .76 1.05c.34.27.73.46 1.17.6a6.13 6.13 0 0 0 1.45.17 7.3 7.3 0 0 0 3.5-.81 12.04 12.04 0 0 0 2.82-2.2v-4.62zm-12.65-9.1a12.72 12.72 0 0 1 3.99-2.66c1.42-.59 3-.88 4.72-.88 1.25 0 2.36.2 3.33.61a6.81 6.81 0 0 1 3.94 4.38c.33 1.04.5 2.19.5 3.43V93h-1.74a1.8 1.8 0 0 1-.88-.18c-.2-.13-.36-.38-.48-.74l-.44-2.12-1.72 1.46a9.48 9.48 0 0 1-3.74 1.7c-.69.15-1.46.23-2.3.23-.87 0-1.69-.12-2.45-.35a5.33 5.33 0 0 1-3.34-2.93 6.62 6.62 0 0 1-.49-2.64c0-.88.25-1.72.73-2.53a6.33 6.33 0 0 1 2.35-2.17c1.09-.63 2.5-1.15 4.25-1.54 1.74-.41 3.89-.65 6.42-.7v-1.75c0-1.73-.37-3.03-1.12-3.91-.75-.9-1.84-1.34-3.28-1.34-.97 0-1.78.12-2.44.37-.64.23-1.2.5-1.7.81l-1.22.82c-.34.23-.68.35-1.02.35-.26 0-.49-.07-.68-.2a1.88 1.88 0 0 1-.48-.53l-.7-1.25zM40.98 32.25c0 2.36-.38 4.53-1.12 6.51a14.26 14.26 0 0 1-8.1 8.4c-1.9.78-4.02 1.17-6.34 1.17-2.31 0-4.42-.39-6.33-1.17a14.31 14.31 0 0 1-8.08-8.4 18.29 18.29 0 0 1-1.12-6.51c0-2.36.38-4.53 1.12-6.5.75-1.97 1.8-3.67 3.17-5.1a14.32 14.32 0 0 1 4.9-3.34c1.92-.8 4.03-1.19 6.34-1.19 2.32 0 4.43.4 6.34 1.19 1.92.8 3.56 1.9 4.93 3.34a14.87 14.87 0 0 1 3.17 5.1 18.1 18.1 0 0 1 1.12 6.5zm-4.38 0c0-1.94-.26-3.68-.8-5.22a10.91 10.91 0 0 0-2.24-3.89 9.68 9.68 0 0 0-3.52-2.46 11.95 11.95 0 0 0-4.62-.86c-1.68 0-3.21.28-4.6.86a9.88 9.88 0 0 0-3.54 2.46 10.91 10.91 0 0 0-2.24 3.9c-.53 1.53-.8 3.27-.8 5.2 0 1.94.27 3.68.8 5.22a11.17 11.17 0 0 0 2.24 3.9 10.01 10.01 0 0 0 3.55 2.44c1.38.56 2.9.83 4.6.83s3.24-.27 4.61-.83a9.8 9.8 0 0 0 3.52-2.44 11.17 11.17 0 0 0 2.25-3.9c.53-1.54.8-3.28.8-5.21zm26.22-6.54V48H60.5c-.56 0-.9-.27-1.05-.81l-.31-2.4a12.45 12.45 0 0 1-3.26 2.6c-1.2.64-2.58.96-4.13.96-1.22 0-2.3-.2-3.24-.6a6.52 6.52 0 0 1-2.33-1.7 7.37 7.37 0 0 1-1.43-2.67c-.3-1.04-.46-2.2-.46-3.45V25.7h3.91v14.22c0 1.68.38 2.99 1.15 3.91.77.93 1.96 1.39 3.54 1.39 1.16 0 2.24-.27 3.23-.82a10.42 10.42 0 0 0 2.8-2.28V25.7h3.91zm8.61 4.47a9.94 9.94 0 0 1 2.6-3.56 5.64 5.64 0 0 1 3.76-1.3c.47 0 .92.05 1.34.15.44.1.83.27 1.17.49l-.3 2.92c-.09.37-.3.55-.66.55-.2 0-.5-.04-.9-.13a6.21 6.21 0 0 0-3.24.18 4.23 4.23 0 0 0-1.47.92c-.42.4-.81.9-1.17 1.5-.33.58-.64 1.26-.92 2.02V48H67.7V25.71h2.25c.42 0 .72.08.88.25.16.16.27.44.33.83l.26 3.39zm61.16-13.7L122.75 48h-3.82l-7.99-24.05a21.95 21.95 0 0 1-.42-1.58 38.36 38.36 0 0 1-.44 1.58L102.05 48h-3.83L88.4 16.47h3.54c.38 0 .7.1.95.29.26.2.43.43.5.73l6.52 21.9.28 1.28.29 1.46.3-1.46.38-1.27 7.41-21.91c.1-.25.26-.48.51-.69.27-.22.58-.33.95-.33h1.23c.38 0 .69.1.92.29a1.77 1.77 0 0 1 .53.73l7.4 21.9a28.4 28.4 0 0 1 .68 2.62 29.52 29.52 0 0 1 .52-2.61l6.54-21.91a1.31 1.31 0 0 1 .48-.7c.27-.21.58-.32.95-.32h3.32zm9.35 8.88c1.63 0 3.1.27 4.4.82a9.43 9.43 0 0 1 5.46 5.94c.5 1.4.74 2.98.74 4.73 0 1.76-.25 3.34-.74 4.75a9.43 9.43 0 0 1-5.46 5.92c-1.3.52-2.77.79-4.4.79-1.64 0-3.12-.27-4.44-.8a9.42 9.42 0 0 1-3.35-2.3c-.92-1-1.63-2.2-2.13-3.61-.49-1.41-.73-3-.73-4.75s.24-3.33.73-4.73c.5-1.43 1.2-2.64 2.13-3.63.93-1 2.04-1.77 3.35-2.31 1.32-.55 2.8-.82 4.44-.82zm0 19.89c2.2 0 3.84-.73 4.93-2.2 1.08-1.48 1.63-3.54 1.63-6.18 0-2.66-.55-4.72-1.63-6.2-1.09-1.49-2.73-2.23-4.93-2.23-1.12 0-2.09.2-2.93.57a5.71 5.71 0 0 0-2.06 1.65c-.55.72-.96 1.61-1.24 2.67-.26 1.04-.4 2.22-.4 3.54 0 2.64.55 4.7 1.64 6.18 1.1 1.47 2.76 2.2 4.99 2.2zm17.97-15.07a9.94 9.94 0 0 1 2.6-3.56 5.64 5.64 0 0 1 3.76-1.3c.47 0 .91.05 1.34.15.44.1.83.27 1.16.49l-.28 2.92c-.09.37-.31.55-.66.55-.2 0-.5-.04-.9-.13a6.2 6.2 0 0 0-3.24.18 4.23 4.23 0 0 0-1.47.92c-.43.4-.82.9-1.17 1.5a13.1 13.1 0 0 0-.92 2.02V48h-3.94V25.71h2.24c.43 0 .72.08.88.25.17.16.28.44.33.83l.27 3.39zm15.04-14.59V48h-3.92V15.6h3.92zm19.55 15.43a6.22 6.22 0 0 0-2.38-2.05 6.7 6.7 0 0 0-2.86-.6c-2.07 0-3.66.75-4.77 2.23-1.12 1.48-1.68 3.6-1.68 6.33 0 1.46.13 2.7.38 3.74a7.29 7.29 0 0 0 1.1 2.56 4.35 4.35 0 0 0 1.78 1.45c.7.3 1.5.46 2.4.46 1.29 0 2.41-.3 3.36-.88a9.6 9.6 0 0 0 2.67-2.49V31.02zm3.91-15.43V48h-2.33c-.56 0-.9-.27-1.06-.81l-.35-2.71a12.13 12.13 0 0 1-3.25 2.77 8.28 8.28 0 0 1-4.23 1.06 7.31 7.31 0 0 1-6.14-2.9c-.73-.96-1.3-2.15-1.69-3.57a18.35 18.35 0 0 1 .07-9.48 11.29 11.29 0 0 1 1.89-3.7 8.7 8.7 0 0 1 7.06-3.34 7.96 7.96 0 0 1 6.12 2.62V15.59h3.91zM46.61 70.71V93H42.7V70.71h3.91zm.84-7c0 .39-.08.75-.24 1.09-.15.32-.35.61-.62.88-.25.25-.55.44-.9.59a2.67 2.67 0 0 1-2.16 0 2.9 2.9 0 0 1-1.45-1.47 2.67 2.67 0 0 1 0-2.16c.15-.35.35-.65.6-.9.25-.27.53-.47.85-.62a2.67 2.67 0 0 1 2.16 0c.35.15.65.35.9.62.27.25.47.55.62.9.16.34.24.7.24 1.08zm7.97 10.24c.49-.54 1-1.04 1.54-1.48a9.85 9.85 0 0 1 3.66-1.84 8.96 8.96 0 0 1 5.43.35c.94.4 1.72.97 2.33 1.71.63.74 1.11 1.62 1.43 2.67.32 1.04.49 2.19.49 3.45V93h-3.94V78.81c0-1.69-.4-3-1.17-3.92-.76-.93-1.93-1.4-3.5-1.4-1.15 0-2.24.27-3.25.83-1 .56-1.92 1.31-2.77 2.27V93h-3.94V70.71h2.35c.56 0 .9.28 1.04.82l.3 2.42zm57.7 3.3c0 2.36-.37 4.5-1.11 6.44a14.3 14.3 0 0 1-3.17 4.98c-1.37 1.37-3 2.45-4.93 3.2-1.9.76-4.02 1.13-6.33 1.13H85.8V61.47h11.77c2.31 0 4.42.39 6.33 1.15a13.8 13.8 0 0 1 8.1 8.18 17.75 17.75 0 0 1 1.12 6.45zm-4.37 0c0-1.94-.26-3.67-.8-5.2a10.94 10.94 0 0 0-2.23-3.87 9.57 9.57 0 0 0-3.53-2.42 12.23 12.23 0 0 0-4.61-.83h-7.5v24.62h7.5c1.7 0 3.24-.28 4.61-.84a9.7 9.7 0 0 0 3.53-2.4 10.94 10.94 0 0 0 2.24-3.87c.53-1.53.8-3.26.8-5.2zm19.8 5.72c-1.8.06-3.34.2-4.62.44-1.26.22-2.3.51-3.1.88-.8.36-1.37.8-1.74 1.3-.35.5-.53 1.05-.53 1.67 0 .58.1 1.1.3 1.52a3 3 0 0 0 .76 1.05c.34.27.73.46 1.17.6a6.13 6.13 0 0 0 1.45.17 7.28 7.28 0 0 0 3.5-.81 11.95 11.95 0 0 0 2.82-2.2v-4.62zm-12.65-9.11a12.73 12.73 0 0 1 3.98-2.66c1.43-.59 3-.88 4.73-.88 1.25 0 2.36.2 3.33.61a6.81 6.81 0 0 1 3.94 4.38c.33 1.04.5 2.19.5 3.43V93h-1.74a1.8 1.8 0 0 1-.88-.18c-.2-.13-.36-.38-.48-.74l-.44-2.12-1.72 1.46a9.48 9.48 0 0 1-3.74 1.7c-.69.15-1.46.23-2.3.23-.87 0-1.69-.12-2.45-.35a5.34 5.34 0 0 1-3.34-2.93 6.64 6.64 0 0 1-.49-2.64c0-.88.25-1.72.73-2.53a6.33 6.33 0 0 1 2.35-2.17c1.09-.63 2.5-1.15 4.25-1.54 1.75-.41 3.89-.65 6.42-.7v-1.75c0-1.73-.37-3.03-1.12-3.91-.75-.9-1.84-1.34-3.28-1.34-.97 0-1.78.12-2.44.37-.64.23-1.2.5-1.7.81l-1.23.82c-.33.23-.67.35-1 .35-.27 0-.5-.07-.69-.2a2.1 2.1 0 0 1-.48-.53l-.7-1.25zm27.67 19.5c-1.76 0-3.12-.5-4.07-1.48-.94-.98-1.41-2.4-1.41-4.25V74h-2.68a.9.9 0 0 1-.6-.2c-.16-.14-.24-.36-.24-.66v-1.56l3.65-.46.9-6.89c.05-.22.14-.4.29-.52a.88.88 0 0 1 .62-.22H142v7.67h6.44V74H142v13.38c0 .94.22 1.63.68 2.09.45.45 1.04.68 1.76.68a3.21 3.21 0 0 0 1.85-.53l.55-.35c.16-.12.3-.18.41-.18.2 0 .4.13.55.38l1.15 1.87a7.45 7.45 0 0 1-2.44 1.5 8.53 8.53 0 0 1-2.95.52zm19.68-10.4c-1.8.07-3.34.21-4.62.45-1.26.22-2.3.51-3.1.88-.8.36-1.37.8-1.74 1.3-.35.5-.53 1.05-.53 1.67 0 .58.1 1.1.3 1.52a2.9 2.9 0 0 0 .76 1.05c.34.27.73.46 1.17.6a6.13 6.13 0 0 0 1.45.17 7.3 7.3 0 0 0 3.5-.81 12.04 12.04 0 0 0 2.82-2.2v-4.62zm-12.65-9.1a12.72 12.72 0 0 1 3.99-2.66c1.42-.59 3-.88 4.72-.88 1.25 0 2.36.2 3.33.61a6.81 6.81 0 0 1 3.94 4.38c.33 1.04.5 2.19.5 3.43V93h-1.74a1.8 1.8 0 0 1-.88-.18c-.2-.13-.36-.38-.48-.74l-.44-2.12-1.72 1.46a9.48 9.48 0 0 1-3.74 1.7c-.69.15-1.46.23-2.3.23-.87 0-1.69-.12-2.45-.35a5.33 5.33 0 0 1-3.34-2.93 6.62 6.62 0 0 1-.49-2.64c0-.88.25-1.72.73-2.53a6.33 6.33 0 0 1 2.35-2.17c1.09-.63 2.5-1.15 4.25-1.54 1.74-.41 3.89-.65 6.42-.7v-1.75c0-1.73-.37-3.03-1.12-3.91-.75-.9-1.84-1.34-3.28-1.34-.97 0-1.78.12-2.44.37-.64.23-1.2.5-1.7.81l-1.22.82c-.34.23-.68.35-1.02.35-.26 0-.49-.07-.68-.2a1.88 1.88 0 0 1-.48-.53l-.7-1.25zM40.98 32.25c0 2.36-.38 4.53-1.12 6.51a14.26 14.26 0 0 1-8.1 8.4c-1.9.78-4.02 1.17-6.34 1.17-2.31 0-4.42-.39-6.33-1.17a14.31 14.31 0 0 1-8.08-8.4 18.29 18.29 0 0 1-1.12-6.51c0-2.36.38-4.53 1.12-6.5.75-1.97 1.8-3.67 3.17-5.1a14.32 14.32 0 0 1 4.9-3.34c1.92-.8 4.03-1.19 6.34-1.19 2.32 0 4.43.4 6.34 1.19 1.92.8 3.56 1.9 4.93 3.34a14.87 14.87 0 0 1 3.17 5.1 18.1 18.1 0 0 1 1.12 6.5zm-4.38 0c0-1.94-.26-3.68-.8-5.22a10.91 10.91 0 0 0-2.24-3.89 9.68 9.68 0 0 0-3.52-2.46 11.95 11.95 0 0 0-4.62-.86c-1.68 0-3.21.28-4.6.86a9.88 9.88 0 0 0-3.54 2.46 10.91 10.91 0 0 0-2.24 3.9c-.53 1.53-.8 3.27-.8 5.2 0 1.94.27 3.68.8 5.22a11.17 11.17 0 0 0 2.24 3.9 10.01 10.01 0 0 0 3.55 2.44c1.38.56 2.9.83 4.6.83s3.24-.27 4.61-.83a9.8 9.8 0 0 0 3.52-2.44 11.17 11.17 0 0 0 2.25-3.9c.53-1.54.8-3.28.8-5.21zm26.22-6.54V48H60.5c-.56 0-.9-.27-1.05-.81l-.31-2.4a12.45 12.45 0 0 1-3.26 2.6c-1.2.64-2.58.96-4.13.96-1.22 0-2.3-.2-3.24-.6a6.52 6.52 0 0 1-2.33-1.7 7.37 7.37 0 0 1-1.43-2.67c-.3-1.04-.46-2.2-.46-3.45V25.7h3.91v14.22c0 1.68.38 2.99 1.15 3.91.77.93 1.96 1.39 3.54 1.39 1.16 0 2.24-.27 3.23-.82a10.42 10.42 0 0 0 2.8-2.28V25.7h3.91zm8.61 4.47a9.94 9.94 0 0 1 2.6-3.56 5.64 5.64 0 0 1 3.76-1.3c.47 0 .92.05 1.34.15.44.1.83.27 1.17.49l-.3 2.92c-.09.37-.3.55-.66.55-.2 0-.5-.04-.9-.13a6.21 6.21 0 0 0-3.24.18 4.23 4.23 0 0 0-1.47.92c-.42.4-.81.9-1.17 1.5-.33.58-.64 1.26-.92 2.02V48H67.7V25.71h2.25c.42 0 .72.08.88.25.16.16.27.44.33.83l.26 3.39zm61.16-13.7L122.75 48h-3.82l-7.99-24.05a21.95 21.95 0 0 1-.42-1.58 38.36 38.36 0 0 1-.44 1.58L102.05 48h-3.83L88.4 16.47h3.54c.38 0 .7.1.95.29.26.2.43.43.5.73l6.52 21.9.28 1.28.29 1.46.3-1.46.38-1.27 7.41-21.91c.1-.25.26-.48.51-.69.27-.22.58-.33.95-.33h1.23c.38 0 .69.1.92.29a1.77 1.77 0 0 1 .53.73l7.4 21.9a28.4 28.4 0 0 1 .68 2.62 29.52 29.52 0 0 1 .52-2.61l6.54-21.91a1.31 1.31 0 0 1 .48-.7c.27-.21.58-.32.95-.32h3.32zm9.35 8.88c1.63 0 3.1.27 4.4.82a9.43 9.43 0 0 1 5.46 5.94c.5 1.4.74 2.98.74 4.73 0 1.76-.25 3.34-.74 4.75a9.43 9.43 0 0 1-5.46 5.92c-1.3.52-2.77.79-4.4.79-1.64 0-3.12-.27-4.44-.8a9.42 9.42 0 0 1-3.35-2.3c-.92-1-1.63-2.2-2.13-3.61-.49-1.41-.73-3-.73-4.75s.24-3.33.73-4.73c.5-1.43 1.2-2.64 2.13-3.63.93-1 2.04-1.77 3.35-2.31 1.32-.55 2.8-.82 4.44-.82zm0 19.89c2.2 0 3.84-.73 4.93-2.2 1.08-1.48 1.63-3.54 1.63-6.18 0-2.66-.55-4.72-1.63-6.2-1.09-1.49-2.73-2.23-4.93-2.23-1.12 0-2.09.2-2.93.57a5.71 5.71 0 0 0-2.06 1.65c-.55.72-.96 1.61-1.24 2.67-.26 1.04-.4 2.22-.4 3.54 0 2.64.55 4.7 1.64 6.18 1.1 1.47 2.76 2.2 4.99 2.2zm17.97-15.07a9.94 9.94 0 0 1 2.6-3.56 5.64 5.64 0 0 1 3.76-1.3c.47 0 .91.05 1.34.15.44.1.83.27 1.16.49l-.28 2.92c-.09.37-.31.55-.66.55-.2 0-.5-.04-.9-.13a6.2 6.2 0 0 0-3.24.18 4.23 4.23 0 0 0-1.47.92c-.43.4-.82.9-1.17 1.5a13.1 13.1 0 0 0-.92 2.02V48h-3.94V25.71h2.24c.43 0 .72.08.88.25.17.16.28.44.33.83l.27 3.39zm15.04-14.59V48h-3.92V15.6h3.92zm19.55 15.43a6.22 6.22 0 0 0-2.38-2.05 6.7 6.7 0 0 0-2.86-.6c-2.07 0-3.66.75-4.77 2.23-1.12 1.48-1.68 3.6-1.68 6.33 0 1.46.13 2.7.38 3.74a7.29 7.29 0 0 0 1.1 2.56 4.35 4.35 0 0 0 1.78 1.45c.7.3 1.5.46 2.4.46 1.29 0 2.41-.3 3.36-.88a9.6 9.6 0 0 0 2.67-2.49V31.02zm3.91-15.43V48h-2.33c-.56 0-.9-.27-1.06-.81l-.35-2.71a12.13 12.13 0 0 1-3.25 2.77 8.28 8.28 0 0 1-4.23 1.06 7.31 7.31 0 0 1-6.14-2.9c-.73-.96-1.3-2.15-1.69-3.57a18.35 18.35 0 0 1 .07-9.48 11.29 11.29 0 0 1 1.89-3.7 8.7 8.7 0 0 1 7.06-3.34 7.96 7.96 0 0 1 6.12 2.62V15.59h3.91zM46.61 70.71V93H42.7V70.71h3.91zm.84-7c0 .39-.08.75-.24 1.09-.15.32-.35.61-.62.88-.25.25-.55.44-.9.59a2.67 2.67 0 0 1-2.16 0 2.9 2.9 0 0 1-1.45-1.47 2.67 2.67 0 0 1 0-2.16c.15-.35.35-.65.6-.9.25-.27.53-.47.85-.62a2.67 2.67 0 0 1 2.16 0c.35.15.65.35.9.62.27.25.47.55.62.9.16.34.24.7.24 1.08zm7.97 10.24c.49-.54 1-1.04 1.54-1.48a9.85 9.85 0 0 1 3.66-1.84 8.96 8.96 0 0 1 5.43.35c.94.4 1.72.97 2.33 1.71.63.74 1.11 1.62 1.43 2.67.32 1.04.49 2.19.49 3.45V93h-3.94V78.81c0-1.69-.4-3-1.17-3.92-.76-.93-1.93-1.4-3.5-1.4-1.15 0-2.24.27-3.25.83-1 .56-1.92 1.31-2.77 2.27V93h-3.94V70.71h2.35c.56 0 .9.28 1.04.82l.3 2.42zm57.7 3.3c0 2.36-.37 4.5-1.11 6.44a14.3 14.3 0 0 1-3.17 4.98c-1.37 1.37-3 2.45-4.93 3.2-1.9.76-4.02 1.13-6.33 1.13H85.8V61.47h11.77c2.31 0 4.42.39 6.33 1.15a13.8 13.8 0 0 1 8.1 8.18 17.75 17.75 0 0 1 1.12 6.45zm-4.37 0c0-1.94-.26-3.67-.8-5.2a10.94 10.94 0 0 0-2.23-3.87 9.57 9.57 0 0 0-3.53-2.42 12.23 12.23 0 0 0-4.61-.83h-7.5v24.62h7.5c1.7 0 3.24-.28 4.61-.84a9.7 9.7 0 0 0 3.53-2.4 10.94 10.94 0 0 0 2.24-3.87c.53-1.53.8-3.26.8-5.2zm19.8 5.72c-1.8.06-3.34.2-4.62.44-1.26.22-2.3.51-3.1.88-.8.36-1.37.8-1.74 1.3-.35.5-.53 1.05-.53 1.67 0 .58.1 1.1.3 1.52a3 3 0 0 0 .76 1.05c.34.27.73.46 1.17.6a6.13 6.13 0 0 0 1.45.17 7.28 7.28 0 0 0 3.5-.81 11.95 11.95 0 0 0 2.82-2.2v-4.62zm-12.65-9.11a12.73 12.73 0 0 1 3.98-2.66c1.43-.59 3-.88 4.73-.88 1.25 0 2.36.2 3.33.61a6.81 6.81 0 0 1 3.94 4.38c.33 1.04.5 2.19.5 3.43V93h-1.74a1.8 1.8 0 0 1-.88-.18c-.2-.13-.36-.38-.48-.74l-.44-2.12-1.72 1.46a9.48 9.48 0 0 1-3.74 1.7c-.69.15-1.46.23-2.3.23-.87 0-1.69-.12-2.45-.35a5.34 5.34 0 0 1-3.34-2.93 6.64 6.64 0 0 1-.49-2.64c0-.88.25-1.72.73-2.53a6.33 6.33 0 0 1 2.35-2.17c1.09-.63 2.5-1.15 4.25-1.54 1.75-.41 3.89-.65 6.42-.7v-1.75c0-1.73-.37-3.03-1.12-3.91-.75-.9-1.84-1.34-3.28-1.34-.97 0-1.78.12-2.44.37-.64.23-1.2.5-1.7.81l-1.23.82c-.33.23-.67.35-1 .35-.27 0-.5-.07-.69-.2a2.1 2.1 0 0 1-.48-.53l-.7-1.25zm27.67 19.5c-1.76 0-3.12-.5-4.07-1.48-.94-.98-1.41-2.4-1.41-4.25V74h-2.68a.9.9 0 0 1-.6-.2c-.16-.14-.24-.36-.24-.66v-1.56l3.65-.46.9-6.89c.05-.22.14-.4.29-.52a.88.88 0 0 1 .62-.22H142v7.67h6.44V74H142v13.38c0 .94.22 1.63.68 2.09.45.45 1.04.68 1.76.68a3.21 3.21 0 0 0 1.85-.53l.55-.35c.16-.12.3-.18.41-.18.2 0 .4.13.55.38l1.15 1.87a7.45 7.45 0 0 1-2.44 1.5 8.53 8.53 0 0 1-2.95.52zm19.68-10.4c-1.8.07-3.34.21-4.62.45-1.26.22-2.3.51-3.1.88-.8.36-1.37.8-1.74 1.3-.35.5-.53 1.05-.53 1.67 0 .58.1 1.1.3 1.52a2.9 2.9 0 0 0 .76 1.05c.34.27.73.46 1.17.6a6.13 6.13 0 0 0 1.45.17 7.3 7.3 0 0 0 3.5-.81 12.04 12.04 0 0 0 2.82-2.2v-4.62zm-12.65-9.1a12.72 12.72 0 0 1 3.99-2.66c1.42-.59 3-.88 4.72-.88 1.25 0 2.36.2 3.33.61a6.81 6.81 0 0 1 3.94 4.38c.33 1.04.5 2.19.5 3.43V93h-1.74a1.8 1.8 0 0 1-.88-.18c-.2-.13-.36-.38-.48-.74l-.44-2.12-1.72 1.46a9.48 9.48 0 0 1-3.74 1.7c-.69.15-1.46.23-2.3.23-.87 0-1.69-.12-2.45-.35a5.33 5.33 0 0 1-3.34-2.93 6.62 6.62 0 0 1-.49-2.64c0-.88.25-1.72.73-2.53a6.33 6.33 0 0 1 2.35-2.17c1.09-.63 2.5-1.15 4.25-1.54 1.74-.41 3.89-.65 6.42-.7v-1.75c0-1.73-.37-3.03-1.12-3.91-.75-.9-1.84-1.34-3.28-1.34-.97 0-1.78.12-2.44.37-.64.23-1.2.5-1.7.81l-1.22.82c-.34.23-.68.35-1.02.35-.26 0-.49-.07-.68-.2a1.88 1.88 0 0 1-.48-.53l-.7-1.25z"
    fill="#fff"
  />
  <path fill="#D42B21" d="M0 106.79h210V120H0z" />
</g>
<defs>
  <clipPath id="clip0"><path fill="#fff" d="M0 0h210v120H0z" /></clipPath>
</defs>
</svg></g><a href="http://localhost:3030/grapher/annual-co2-emissions-per-country" style="font-family:&#x27;Playfair Display&#x27;, Georgia, &#x27;Times New Roman&#x27;, &#x27;Liberation Serif&#x27;, serif" target="_blank" rel="noopener"><text font-size="25.20" x="15.0" y="36.9" fill="#555"><tspan x="15" y="36.924">Annual CO₂ emissions</tspan></text></a><text x="15.0" y="58.2" style="font-size:14.4px;line-height:1.2" fill="#666"><tspan x="15" y="58.2">Carbon dioxide (CO₂) emissions from <tspan>fossil fuels and industry</tspan>. Land use change is not included.</tspan></text></g><g class="LineChart"><defs><clipPath id="boundsClip-1"><rect x="83.224" y="67.48" width="840" height="472.79999999999995"></rect></clipPath></defs><rect x="15" y="77.48" width="820" height="452.79999999999995" fill="transparent"></rect><g class="DualAxisView"><g class="HorizontalAxis"><line x1="93.2" y1="509.08" x2="93.2" y2="514.0799999999999" stroke="#999"></line><line x1="703.6" y1="509.08" x2="703.6" y2="514.0799999999999" stroke="#999"></line><line x1="205.8" y1="509.08" x2="205.8" y2="514.0799999999999" stroke="#999"></line><line x1="318.5" y1="509.08" x2="318.5" y2="514.0799999999999" stroke="#999"></line><line x1="431.1" y1="509.08" x2="431.1" y2="514.0799999999999" stroke="#999"></line><line x1="543.7" y1="509.08" x2="543.7" y2="514.0799999999999" stroke="#999"></line><text x="93.224" y="530.28" fill="#666" text-anchor="start" font-size="16.2">1750</text><text x="703.61" y="530.28" fill="#666" text-anchor="end" font-size="16.2">2021</text><text x="205.8" y="530.28" fill="#666" text-anchor="middle" font-size="16.2">1800</text><text x="318.5" y="530.28" fill="#666" text-anchor="middle" font-size="16.2">1850</text><text x="431.1" y="530.28" fill="#666" text-anchor="middle" font-size="16.2">1900</text><text x="543.7" y="530.28" fill="#666" text-anchor="middle" font-size="16.2">1950</text></g><g class="VerticalAxis"><text x="88.22" y="509.1" dy=".32em" text-anchor="end" fill="#666" font-size="16.2">0 t</text><text x="88.22" y="433.8" dy=".32em" text-anchor="end" fill="#666" font-size="16.2">2 billion t</text><text x="88.22" y="358.6" dy=".32em" text-anchor="end" fill="#666" font-size="16.2">4 billion t</text><text x="88.22" y="283.4" dy=".32em" text-anchor="end" fill="#666" font-size="16.2">6 billion t</text><text x="88.22" y="208.1" dy=".32em" text-anchor="end" fill="#666" font-size="16.2">8 billion t</text><text x="88.22" y="132.9" dy=".32em" text-anchor="end" fill="#666" font-size="16.2">10 billion t</text></g><g class="AxisGridLines horizontalLines"><line x1="93.22" y1="509.1" x2="703.61" y2="509.1" stroke="#999"></line><line x1="93.22" y1="433.8" x2="703.61" y2="433.8" stroke="#ddd" stroke-dasharray="3,2"></line><line x1="93.22" y1="358.6" x2="703.61" y2="358.6" stroke="#ddd" stroke-dasharray="3,2"></line><line x1="93.22" y1="283.4" x2="703.61" y2="283.4" stroke="#ddd" stroke-dasharray="3,2"></line><line x1="93.22" y1="208.1" x2="703.61" y2="208.1" stroke="#ddd" stroke-dasharray="3,2"></line><line x1="93.22" y1="132.9" x2="703.61" y2="132.9" stroke="#ddd" stroke-dasharray="3,2"></line></g></g><g clip-path="url(#boundsClip-1)"><g class="LineLabels" style="cursor:default"><g class="legendMark"><g class="indicator"><path d="M707.61,77.5 H721.11 V84.23 H734.61" stroke="#999" stroke-width="0.5" fill="none"></path></g><rect x="703.61" y="77.48" width="70.37" height="13.5" fill="#fff" opacity="0"></rect><text font-size="13.50" font-weight="400" x="738.6" y="89.2" fill="#18470f"><tspan x="738.61" y="89.22500000000001">China</tspan></text></g><g class="legendMark"><g class="indicator"><path d="M707.61,320.7 H721.11 V320.7 H734.61" stroke="#999" stroke-width="0.5" fill="none"></path></g><rect x="703.61" y="313.95" width="116.405" height="13.5" fill="#fff" opacity="0"></rect><text font-size="13.50" font-weight="400" x="738.6" y="325.7" fill="#be5915"><tspan x="738.61" y="325.695">United States</tspan></text></g><g class="legendMark"><g class="indicator"><path d="M707.61,407.1 H721.11 V407.1 H734.61" stroke="#999" stroke-width="0.5" fill="none"></path></g><rect x="703.61" y="400.35" width="64.43" height="13.5" fill="#fff" opacity="0"></rect><text font-size="13.50" font-weight="400" x="738.6" y="412.1" fill="#cf0a66"><tspan x="738.61" y="412.095">India</tspan></text></g><g class="legendMark"><g class="indicator"><path d="M707.61,483.7 H714.36 V455.8299999999999 H734.61" stroke="#999" stroke-width="0.5" fill="none"></path></g><rect x="703.61" y="449.0799999999999" width="90.62" height="13.5" fill="#fff" opacity="0"></rect><text font-size="13.50" font-weight="400" x="738.6" y="460.8" fill="#2c8465"><tspan x="738.61" y="460.82499999999993">Germany</tspan></text></g><g class="legendMark"><g class="indicator"><path d="M707.61,490.7 H721.11 V471.3299999999999 H734.61" stroke="#999" stroke-width="0.5" fill="none"></path></g><rect x="703.61" y="464.5799999999999" width="68.75" height="13.5" fill="#fff" opacity="0"></rect><text font-size="13.50" font-weight="400" x="738.6" y="476.3" fill="#286bbb"><tspan x="738.61" y="476.32499999999993">Brazil</tspan></text></g><g class="legendMark"><g class="indicator"><path d="M707.61,496 H727.86 V486.8299999999999 H734.61" stroke="#999" stroke-width="0.5" fill="none"></path></g><rect x="703.61" y="480.0799999999999" width="131.39" height="13.5" fill="#fff" opacity="0"></rect><text font-size="13.50" font-weight="400" x="738.6" y="491.8" fill="#c15065"><tspan x="738.61" y="491.82499999999993">United Kingdom</tspan></text></g><g class="legendMark"><g class="indicator"><path d="M707.61,497.6 H727.86 V502.3299999999999 H734.61" stroke="#999" stroke-width="0.5" fill="none"></path></g><rect x="703.61" y="495.5799999999999" width="77.12" height="13.5" fill="#fff" opacity="0"></rect><text font-size="13.50" font-weight="400" x="738.6" y="507.3" fill="#6d3e91"><tspan x="738.61" y="507.32499999999993">France</tspan></text></g></g><g class="Lines"><rect x="93" y="77" width="610" height="432" fill="rgba(255,255,255,0)" opacity="0"></rect><g><path stroke-linecap="round" stroke-linejoin="round" stroke="#ddd" d="M433.3 509L435.6 509L437.8 509L440.1 509L442.3 509L444.6 509L446.8 509L449.1 508.9L451.3 508.9L453.6 508.9L455.9 508.9L458.1 508.9L460.4 508.9L462.6 508.9L464.9 509L467.1 509L469.4 509L471.6 509L473.9 509L476.1 508.9L478.4 509L480.6 508.9L482.9 508.9L485.1 508.9L487.4 508.9L489.6 508.9L491.9 508.9L494.1 508.9L496.4 508.8L498.6 508.9L500.9 508.9L503.2 508.9L505.4 508.9L507.7 508.9L509.9 508.9L512.2 508.9L514.4 508.9L516.7 508.9L518.9 508.9L521.2 508.8L523.4 508.8L525.7 508.9L527.9 508.8L530.2 508.9L532.4 508.8L534.7 508.8L536.9 508.7L539.2 508.8L541.4 508.8L543.7 508.3L545.9 508.3L548.2 508.1L550.5 508.1L552.7 508L555 507.8L557.2 507.7L559.5 507.7L561.7 507.6L564 507.6L566.2 507.3L568.5 507.2L570.7 507.1L573 507L575.2 507L577.5 507L579.7 506.7L582 506.6L584.2 506.2L586.5 505.9L588.7 505.6L591 505.2L593.2 504.8L595.5 504.1L597.7 503.7L600 503.4L602.3 503.3L604.5 503L606.8 502.4L609 502L611.3 502.1L613.5 502.7L615.8 502.7L618 502.9L620.3 502.8L622.5 502.3L624.8 501.7L627 501.4L629.3 501.3L631.5 501.1L633.8 500.9L636 500.5L638.3 500.3L640.5 499.9L642.8 499.5L645 499L647.3 498.2L649.6 497.5L651.8 497.1L654.1 496.8L656.3 496.3L658.6 496.1L660.8 496L663.1 496.1L665.3 495.5L667.6 495.4L669.8 495.2L672.1 494.4L674.3 493.6L676.6 494.4L678.8 492.5L681.1 491.7L683.3 490.3L685.6 489L687.8 488.1L690.1 489.2L692.3 490.5L694.6 490.4L696.9 491.1L699.1 491.2L701.4 492.4L703.6 490.7" fill="none" stroke-width="1"></path></g><g><path stroke-linecap="round" stroke-linejoin="round" stroke="#ddd" d="M428.8 509.1L435.6 509.1L437.8 509.1L440.1 509.1L442.3 509.1L444.6 509.1L446.8 508.3L449.1 508.2L451.3 508.2L453.6 508.1L455.9 508.2L458.1 508.4L460.4 508.2L462.6 508.1L464.9 508.1L467.1 507.9L469.4 507.9L471.6 507.8L473.9 507.7L476.1 507.6L478.4 507.6L480.6 507.6L482.9 507.3L485.1 507.2L487.4 507.4L489.6 507.4L491.9 507.4L494.1 507.3L496.4 507.3L498.6 507.2L500.9 507.1L503.2 507.2L505.4 507L507.7 506.7L509.9 506.3L512.2 506.2L514.4 506.4L516.7 506.8L518.9 506.3L521.2 505.7L523.4 504.8L525.7 504.3L527.9 505L530.2 505.2L532.4 507L534.7 507.7L536.9 507.5L539.2 507.6L541.4 506.7L543.7 506.1L545.9 505.2L548.2 504.3L550.5 504L552.7 503L555 501.9L557.2 501L559.5 499.5L561.7 489.3L564 482L566.2 479L568.5 487.6L570.7 491.8L573 491.9L575.2 491.8L577.5 490.3L579.7 488.4L582 491.8L584.2 490.4L586.5 486.2L588.7 478.7L591 474.9L593.2 472.6L595.5 471.1L597.7 470.4L600 464.6L602.3 462.9L604.5 458.6L606.8 452.9L609 451.7L611.3 452.9L613.5 453.5L615.8 448.6L618 445.3L620.3 439.7L622.5 433.9L624.8 429.9L627 424.1L629.3 417.8L631.5 416.4L633.8 415.6L636 411L638.3 406.3L640.5 399.2L642.8 392.5L645 382.8L647.3 377.3L649.6 377L651.8 382.7L654.1 375.4L656.3 372L658.6 369L660.8 354.4L663.1 327.5L665.3 312.6L667.6 288L669.8 265L672.1 246.5L674.3 227L676.6 212.4L678.8 184.9L681.1 150.6L683.3 141.2L685.6 134.5L687.8 132.9L690.1 137.9L692.3 141.7L694.6 132.5L696.9 119.6L699.1 105L701.4 96.9L703.6 77.5" fill="none" stroke-width="1"></path></g><g><path stroke-linecap="round" stroke-linejoin="round" stroke="#ddd" d="M336.5 509.1L338.7 509.1L341 509.1L343.2 509.1L345.5 509.1L347.7 509.1L350 509.1L352.2 509.1L354.5 509.1L381.5 509L383.8 509L386 509L388.3 509L390.5 509L392.8 509L395 509L397.3 509L399.5 509L401.8 509L404 509L406.3 508.9L408.6 508.9L410.8 508.9L413.1 508.9L415.3 508.9L417.6 508.9L419.8 508.8L422.1 508.8L424.3 508.8L426.6 508.7L428.8 508.7L431.1 508.6L433.3 508.6L435.6 508.5L437.8 508.5L440.1 508.5L442.3 508.4L444.6 508.3L446.8 508.3L449.1 508.1L451.3 508.2L453.6 508.2L455.9 508.1L458.1 508L460.4 507.9L462.6 507.9L464.9 507.8L467.1 507.8L469.4 507.8L471.6 507.6L473.9 507.5L476.1 507.8L478.4 507.7L480.6 507.7L482.9 507.7L485.1 507.6L487.4 507.6L489.6 507.6L491.9 507.5L494.1 507.6L496.4 507.5L498.6 507.5L500.9 507.6L503.2 507.7L505.4 507.7L507.7 507.6L509.9 507.5L512.2 507.5L514.4 507.4L516.7 507.2L518.9 507.2L521.2 507.1L523.4 507.1L525.7 507.1L527.9 507.3L530.2 507.3L532.4 507.1L534.7 507.1L536.9 507.1L539.2 507.1L541.4 507L543.7 506.8L545.9 506.7L548.2 506.5L550.5 506.5L552.7 506.4L555 506.1L557.2 506L559.5 505.6L561.7 505.5L564 505.3L566.2 504.9L568.5 504.6L570.7 504.1L573 503.7L575.2 503.8L577.5 503.3L579.7 503.1L582 503.1L584.2 502.5L586.5 502.4L588.7 502.2L591 501.9L593.2 501.4L595.5 501.2L597.7 501L600 500.3L602.3 499.9L604.5 499.3L606.8 499.2L609 498.7L611.3 498.1L613.5 497.2L615.8 496.8L618 495.8L620.3 495.5L622.5 494.1L624.8 493L627 491.9L629.3 490.6L631.5 488.7L633.8 487.3L636 485.9L638.3 484.4L640.5 483.6L642.8 482.1L645 480.4L647.3 478L649.6 476.8L651.8 476.1L654.1 473.3L656.3 472.3L658.6 471.8L660.8 470.6L663.1 469.2L665.3 466.8L667.6 464.5L669.8 461.7L672.1 458L674.3 454.1L676.6 448.5L678.8 446L681.1 442.2L683.3 435.2L685.6 432.4L687.8 426.8L690.1 423.7L692.3 419.4L694.6 417.5L696.9 411.2L699.1 410.3L701.4 417.1L703.6 407.1" fill="none" stroke-width="1"></path></g><g><path stroke-linecap="round" stroke-linejoin="round" stroke="#ddd" d="M210.3 509L214.9 509L228.4 509L230.6 509L232.9 509L235.1 509L237.4 509L239.6 509L241.9 509L244.1 509L246.4 509L248.6 509L250.9 509L253.1 509L255.4 509L257.6 509L259.9 508.9L262.2 508.9L264.4 508.9L266.7 508.9L268.9 508.8L271.2 508.9L273.4 508.8L275.7 508.9L277.9 508.8L280.2 508.8L282.4 508.7L284.7 508.7L286.9 508.7L289.2 508.7L291.4 508.6L293.7 508.6L295.9 508.6L298.2 508.6L300.4 508.5L302.7 508.5L304.9 508.5L307.2 508.4L309.4 508.4L311.7 508.3L314 508.5L316.2 508.4L318.5 508.3L320.7 508.3L323 508.3L325.2 508.1L327.5 508L329.7 507.8L332 507.8L334.2 507.8L336.5 507.8L338.7 507.8L341 507.6L343.2 507.5L345.5 507.4L347.7 507.4L350 507.3L352.2 507.2L354.5 507.1L356.7 507L359 507L361.3 506.9L363.5 507.2L365.8 507.2L368 506.8L370.3 506.6L372.5 506.7L374.8 506.6L377 506.6L379.3 506.7L381.5 506.6L383.8 506.5L386 506.2L388.3 506.1L390.5 506L392.8 505.8L395 506L397.3 506.1L399.5 506.1L401.8 505.9L404 505.8L406.3 505.7L408.6 505.4L410.8 505.4L413.1 505.4L415.3 505.5L417.6 505.2L419.8 505.2L422.1 505.1L424.3 504.9L426.6 504.8L428.8 504.6L431.1 504.2L433.3 504.4L435.6 504.7L437.8 504.2L440.1 504.3L442.3 504.3L444.6 503.9L446.8 503.6L449.1 503.6L451.3 503.4L453.6 503.4L455.9 503.2L458.1 503.1L460.4 502.6L462.6 504.6L464.9 505.2L467.1 505L469.4 504.5L471.6 505L473.9 504.7L476.1 503.4L478.4 503.9L480.6 502.9L482.9 502.2L485.1 501.3L487.4 501L489.6 501L491.9 501.1L494.1 501.1L496.4 500.3L498.6 500.1L500.9 500.9L503.2 501.9L505.4 501.6L507.7 501.5L509.9 501.7L512.2 501.6L514.4 500.9L516.7 501.5L518.9 501.8L521.2 503.9L523.4 504.6L525.7 504.5L527.9 504.4L530.2 506.1L532.4 505L534.7 502.9L536.9 502.2L539.2 501.7L541.4 500.5L543.7 501.5L545.9 500.5L548.2 500.5L550.5 501L552.7 500.6L555 500.1L557.2 499L559.5 498.6L561.7 499.1L564 499.2L566.2 497.9L568.5 497.2L570.7 496.6L573 496.4L575.2 495.2L577.5 495.4L579.7 494.8L582 493.9L584.2 493.3L586.5 492.4L588.7 491.8L591 490.5L593.2 489.7L595.5 488.8L597.7 489.5L600 490.9L602.3 489.4L604.5 490L606.8 489.2L609 489.1L611.3 489.9L613.5 491.8L615.8 492.5L618 493.2L620.3 493.6L622.5 493.8L624.8 494.4L627 494.5L629.3 494.6L631.5 494L633.8 494.3L636 493.3L638.3 493.8L640.5 494.5L642.8 494.7L645 494.5L647.3 494L649.6 494.3L651.8 493.5L654.1 493.6L656.3 493.8L658.6 493.6L660.8 493.7L663.1 493.6L665.3 493.5L667.6 493.4L669.8 493.8L672.1 494.2L674.3 494.4L676.6 495.1L678.8 494.9L681.1 495.7L683.3 495.7L685.6 495.6L687.8 496.8L690.1 496.6L692.3 496.5L694.6 496.4L696.9 496.9L699.1 497.2L701.4 498.5L703.6 497.6" fill="none" stroke-width="1"></path></g><g><path stroke-linecap="round" stroke-linejoin="round" stroke="#ddd" d="M205.8 509.1L208.1 509.1L210.3 509.1L212.6 509.1L214.9 509.1L217.1 509.1L219.4 509.1L221.6 509.1L223.9 509.1L226.1 509.1L228.4 509.1L230.6 509.1L232.9 509.1L235.1 509.1L237.4 509.1L239.6 509.1L241.9 509.1L244.1 509.1L246.4 509.1L248.6 509.1L250.9 509.1L253.1 509L255.4 509L257.6 509L259.9 509L262.2 509L264.4 509L266.7 509L268.9 509L271.2 509L273.4 509L275.7 509L277.9 509L280.2 508.9L282.4 509L284.7 508.9L286.9 508.9L289.2 508.9L291.4 508.9L293.7 508.9L295.9 508.9L298.2 508.8L300.4 508.8L302.7 508.8L304.9 508.7L307.2 508.7L309.4 508.6L311.7 508.5L314 508.4L316.2 508.4L318.5 508.3L320.7 508.2L323 508.1L325.2 507.9L327.5 507.8L329.7 507.6L332 507.6L334.2 507.5L336.5 507.5L338.7 507.4L341 507.3L343.2 507.4L345.5 507.3L347.7 507L350 506.9L352.2 506.9L354.5 506.9L356.7 506.3L359 506L361.3 505.6L363.5 505.4L365.8 505.2L368 504.3L370.3 503.8L372.5 504L374.8 504L377 504.1L379.3 503.5L381.5 503.7L383.8 502.5L386 501.6L388.3 501.2L390.5 500.2L392.8 499.5L395 499L397.3 498.8L399.5 498.3L401.8 497.5L404 495L406.3 496.5L408.6 494L410.8 493L413.1 492.1L415.3 492L417.6 493.1L419.8 491L422.1 491L424.3 490.3L426.6 488.6L428.8 485.5L431.1 484.1L433.3 481.9L435.6 480.3L437.8 475.4L440.1 475.9L442.3 472L444.6 470.1L446.8 463.8L449.1 469.5L451.3 465.2L453.6 461.2L455.9 461.7L458.1 458.5L460.4 454.8L462.6 459.5L464.9 457.6L467.1 451.9L469.4 446.2L471.6 443.3L473.9 453.4L476.1 443.7L478.4 455.5L480.6 455.1L482.9 437.7L485.1 445.2L487.4 442.9L489.6 437.4L491.9 439L494.1 440.2L496.4 435.2L498.6 443.4L500.9 453.2L503.2 461.8L505.4 458.3L507.7 455L509.9 452.9L512.2 444.6L514.4 441.6L516.7 452.1L518.9 446.2L521.2 438.5L523.4 432.2L525.7 426.4L527.9 423.6L530.2 417.1L532.4 420.3L534.7 424.2L536.9 415.6L539.2 411.9L541.4 427.6L543.7 413.5L545.9 410.6L548.2 413.1L550.5 410.8L552.7 415.4L555 406.4L557.2 401.5L559.5 402.4L561.7 405.7L564 402.5L566.2 400.1L568.5 400.5L570.7 396.4L573 391.5L575.2 386.3L577.5 381.2L579.7 374.7L582 369.7L584.2 364.6L586.5 357.3L588.7 345.8L591 344.8L593.2 337L595.5 329.1L597.7 335.2L600 340.6L602.3 330.5L604.5 325.1L606.8 323.2L609 320.7L611.3 328.2L613.5 332.8L615.8 341.8L618 342.4L620.3 333.7L622.5 334L624.8 333.6L627 327.5L629.3 319.1L631.5 316L633.8 316.4L636 318.5L638.3 314.4L640.5 310.7L642.8 307.2L645 304.9L647.3 297.8L649.6 294.9L651.8 293.2L654.1 290.5L656.3 282.7L658.6 286.7L660.8 285.1L663.1 282.8L665.3 278.9L667.6 278.2L669.8 281.2L672.1 278.3L674.3 286.4L676.6 302.8L678.8 295.3L681.1 300.4L683.3 308L685.6 302.9L687.8 301.1L690.1 306.8L692.3 311.5L694.6 313L696.9 306.8L699.1 311.2L701.4 331.7L703.6 320.7" fill="none" stroke-width="1"></path></g><g><path stroke-linecap="round" stroke-linejoin="round" stroke="#ddd" d="M187.8 509.1L190.1 509.1L192.3 509.1L194.6 509.1L196.8 509.1L199.1 509.1L201.3 509.1L203.6 509.1L205.8 509.1L208.1 509.1L210.3 509.1L212.6 509.1L214.9 509L217.1 509L219.4 509L221.6 509L223.9 509L226.1 509L228.4 509L230.6 509L232.9 509L235.1 509L237.4 509L239.6 509L241.9 509L244.1 509L246.4 508.9L248.6 509L250.9 509L253.1 508.9L255.4 508.9L257.6 508.9L259.9 509L262.2 508.9L264.4 508.9L266.7 508.9L268.9 508.9L271.2 508.9L273.4 508.9L275.7 508.9L277.9 509L280.2 508.9L282.4 508.9L284.7 508.9L286.9 508.9L289.2 508.9L291.4 508.8L293.7 508.8L295.9 508.7L298.2 508.7L300.4 508.7L302.7 508.7L304.9 508.7L307.2 508.6L309.4 508.6L311.7 508.6L314 508.6L316.2 508.6L318.5 508.5L320.7 508.4L323 508.4L325.2 508.3L327.5 508.2L329.7 508L332 507.9L334.2 507.8L336.5 507.7L338.7 507.8L341 507.7L343.2 507.5L345.5 507.4L347.7 507.2L350 506.9L352.2 506.7L354.5 506.7L356.7 506.5L359 506.3L361.3 506.2L363.5 506.2L365.8 505.9L368 505.6L370.3 505.4L372.5 506.4L374.8 505.3L377 505.2L379.3 505.3L381.5 505.1L383.8 504.9L386 504.4L388.3 504L390.5 503.7L392.8 503.3L395 503.2L397.3 503L399.5 502.9L401.8 502.7L404 502.1L406.3 501.6L408.6 501.2L410.8 500.8L413.1 501L415.3 500.8L417.6 500.4L419.8 500.1L422.1 499.4L424.3 498.8L426.6 498.3L428.8 497.7L431.1 496.8L433.3 496.8L435.6 497.1L437.8 496.2L440.1 495.7L442.3 494.7L444.6 495.5L446.8 492.4L449.1 492.3L451.3 492.3L453.6 492.3L455.9 491.8L458.1 490.3L460.4 488.9L462.6 490.3L464.9 491.7L467.1 490.2L469.4 489.3L471.6 490.1L473.9 494.5L476.1 492.9L478.4 491.3L480.6 491.9L482.9 496.6L485.1 492.1L487.4 491.8L489.6 493.5L491.9 491L494.1 490.1L496.4 488.8L498.6 491.7L500.9 494.6L503.2 496L505.4 495.3L507.7 493.7L509.9 492.1L512.2 490.3L514.4 487.9L516.7 486.5L518.9 484.7L521.2 484.5L523.4 484.2L525.7 484L527.9 483.5L530.2 486.5L532.4 504.7L534.7 498.9L536.9 497.1L539.2 494.9L541.4 492.8L543.7 489.9L545.9 487.4L548.2 486.1L550.5 485.6L552.7 484.3L555 481.9L557.2 480.3L559.5 479.8L561.7 480.6L564 480.6L566.2 478.5L568.5 477.7L570.7 475.9L573 473.5L575.2 472.6L577.5 473L579.7 473.3L582 473.9L584.2 472L586.5 469.5L588.7 470.5L591 470.1L593.2 469.9L595.5 468.2L597.7 469.1L600 471.4L602.3 468L604.5 469.5L606.8 468.5L609 467L611.3 467.7L613.5 469.6L615.8 470.9L618 471L620.3 470.2L622.5 469.8L624.8 469.7L627 470.2L629.3 470.4L631.5 471.1L633.8 469.5L636 470.9L638.3 472.8L640.5 473.1L642.8 473.7L645 473.8L647.3 473L649.6 474.1L651.8 474.4L654.1 475.4L656.3 475.2L658.6 474.6L660.8 475.2L663.1 475.2L665.3 475.7L667.6 476.5L669.8 476.1L672.1 477.1L674.3 476.9L676.6 479.4L678.8 477.8L681.1 478.6L683.3 478.5L685.6 477.8L687.8 479.3L690.1 479.2L692.3 479L694.6 479.5L696.9 480.7L699.1 482.5L701.4 485L703.6 483.7" fill="none" stroke-width="1"></path></g><g><path stroke-linecap="round" stroke-linejoin="round" stroke="#ddd" d="M93.2 508.7L95.5 508.7L97.7 508.7L100 508.7L102.2 508.7L104.5 508.7L106.7 508.7L109 508.7L111.2 508.7L113.5 508.7L115.7 508.7L118 508.7L120.3 508.7L122.5 508.7L124.8 508.7L127 508.7L129.3 508.6L131.5 508.6L133.8 508.6L136 508.6L138.3 508.6L140.5 508.6L142.8 508.6L145 508.6L147.3 508.6L149.5 508.6L151.8 508.5L154 508.5L156.3 508.5L158.5 508.5L160.8 508.5L163 508.4L165.3 508.4L167.6 508.4L169.8 508.4L172.1 508.4L174.3 508.4L176.6 508.4L178.8 508.4L181.1 508.4L183.3 508.4L185.6 508.3L187.8 508.3L190.1 508.3L192.3 508.3L194.6 508.3L196.8 508.2L199.1 508.2L201.3 508.2L203.6 508.1L205.8 508.1L208.1 508.1L210.3 508.1L212.6 507.9L214.9 507.9L217.1 507.9L219.4 507.8L221.6 507.8L223.9 507.8L226.1 507.8L228.4 507.8L230.6 507.7L232.9 507.7L235.1 507.7L237.4 507.6L239.6 507.6L241.9 507.5L244.1 507.5L246.4 507.5L248.6 507.5L250.9 507.5L253.1 507.5L255.4 507.4L257.6 507.3L259.9 507.2L262.2 507.2L264.4 507.2L266.7 507.1L268.9 507.1L271.2 507.1L273.4 506.5L275.7 506.6L277.9 506.6L280.2 506.6L282.4 506.6L284.7 506.6L286.9 506.2L289.2 506.3L291.4 506.2L293.7 506.2L295.9 506L298.2 506L300.4 505.9L302.7 505.7L304.9 505.6L307.2 505.3L309.4 505.5L311.7 505.2L314 505L316.2 504.7L318.5 504.5L320.7 504.7L323 504.7L325.2 504.7L327.5 503.8L329.7 504.2L332 503.8L334.2 503.9L336.5 504L338.7 503.4L341 502.8L343.2 502.5L345.5 502.7L347.7 502.3L350 501.8L352.2 501.3L354.5 501.1L356.7 500.9L359 501.1L361.3 500.7L363.5 500.5L365.8 500L368 499.5L370.3 499.1L372.5 499.4L374.8 498.9L377 498.9L379.3 498.7L381.5 498.9L383.8 498.8L386 497.9L388.3 497.3L390.5 497.2L392.8 496.8L395 497.1L397.3 497.2L399.5 497.3L401.8 497L404 496.5L406.3 496.1L408.6 495.8L410.8 495.5L413.1 495.8L415.3 497.2L417.6 495.5L419.8 495.3L422.1 494.9L424.3 494.6L426.6 494.5L428.8 493.5L431.1 493.3L433.3 493.6L435.6 493L437.8 492.9L440.1 492.8L442.3 492.6L444.6 492L446.8 491.3L449.1 491.7L451.3 491.5L453.6 491.4L455.9 491L458.1 491.9L460.4 490.3L462.6 490.9L464.9 490.7L467.1 490L469.4 490.2L471.6 491.5L473.9 491.9L476.1 491.4L478.4 497L480.6 493L482.9 492L485.1 491.2L487.4 492.2L489.6 499.8L491.9 491.5L494.1 492.6L496.4 491.7L498.6 492.5L500.9 493.6L503.2 494.2L505.4 494.3L507.7 493.2L509.9 492.9L512.2 492L514.4 491.5L516.7 492.2L518.9 492.1L521.2 491.2L523.4 491.4L525.7 491.4L527.9 492L530.2 492.5L532.4 493.4L534.7 492.7L536.9 491.7L539.2 491.2L541.4 490.8L543.7 490.2L545.9 488.6L548.2 489.2L550.5 488.8L552.7 488.3L555 487.4L557.2 487.5L559.5 487.6L561.7 488.2L564 488.5L566.2 487.1L568.5 486.9L570.7 486.8L573 486.4L575.2 486.2L577.5 485.7L579.7 485.8L582 486.8L584.2 486.3L586.5 485.4L588.7 484.5L591 484.2L593.2 484.7L595.5 484.3L597.7 485.9L600 486.4L602.3 486.6L604.5 486.3L606.8 486.3L609 484.8L611.3 487.3L613.5 488L615.8 488.5L618 488.6L620.3 489.2L622.5 488L624.8 487.7L627 487.6L629.3 487.6L631.5 487.2L633.8 486.4L636 486.2L638.3 486.7L640.5 487.3L642.8 487.5L645 487.8L647.3 487L649.6 487.9L651.8 487.7L654.1 488L656.3 487.7L658.6 487.3L660.8 488L663.1 487.6L665.3 487.5L667.6 487.6L669.8 487.7L672.1 488L674.3 488.6L676.6 490.5L678.8 489.8L681.1 491.4L683.3 490.7L685.6 491.1L687.8 492.6L690.1 493.2L692.3 494.1L694.6 494.5L696.9 494.8L699.1 495.4L701.4 496.8L703.6 496" fill="none" stroke-width="1"></path></g><g><path fill="none" stroke-linecap="butt" stroke-linejoin="round" stroke="#fff" stroke-width="2.5" d="M433.3 509L435.6 509L437.8 509L440.1 509L442.3 509L444.6 509L446.8 509L449.1 508.9L451.3 508.9L453.6 508.9L455.9 508.9L458.1 508.9L460.4 508.9L462.6 508.9L464.9 509L467.1 509L469.4 509L471.6 509L473.9 509L476.1 508.9L478.4 509L480.6 508.9L482.9 508.9L485.1 508.9L487.4 508.9L489.6 508.9L491.9 508.9L494.1 508.9L496.4 508.8L498.6 508.9L500.9 508.9L503.2 508.9L505.4 508.9L507.7 508.9L509.9 508.9L512.2 508.9L514.4 508.9L516.7 508.9L518.9 508.9L521.2 508.8L523.4 508.8L525.7 508.9L527.9 508.8L530.2 508.9L532.4 508.8L534.7 508.8L536.9 508.7L539.2 508.8L541.4 508.8L543.7 508.3L545.9 508.3L548.2 508.1L550.5 508.1L552.7 508L555 507.8L557.2 507.7L559.5 507.7L561.7 507.6L564 507.6L566.2 507.3L568.5 507.2L570.7 507.1L573 507L575.2 507L577.5 507L579.7 506.7L582 506.6L584.2 506.2L586.5 505.9L588.7 505.6L591 505.2L593.2 504.8L595.5 504.1L597.7 503.7L600 503.4L602.3 503.3L604.5 503L606.8 502.4L609 502L611.3 502.1L613.5 502.7L615.8 502.7L618 502.9L620.3 502.8L622.5 502.3L624.8 501.7L627 501.4L629.3 501.3L631.5 501.1L633.8 500.9L636 500.5L638.3 500.3L640.5 499.9L642.8 499.5L645 499L647.3 498.2L649.6 497.5L651.8 497.1L654.1 496.8L656.3 496.3L658.6 496.1L660.8 496L663.1 496.1L665.3 495.5L667.6 495.4L669.8 495.2L672.1 494.4L674.3 493.6L676.6 494.4L678.8 492.5L681.1 491.7L683.3 490.3L685.6 489L687.8 488.1L690.1 489.2L692.3 490.5L694.6 490.4L696.9 491.1L699.1 491.2L701.4 492.4L703.6 490.7"></path><polyline points="433.30,509.00 435.60,509.00 437.80,509.00 440.10,509.00 442.30,509.00 444.60,509.00 446.80,509.00 449.10,508.90 451.30,508.90 453.60,508.90 455.90,508.90 458.10,508.90 460.40,508.90 462.60,508.90 464.90,509.00 467.10,509.00 469.40,509.00 471.60,509.00 473.90,509.00 476.10,508.90 478.40,509.00 480.60,508.90 482.90,508.90 485.10,508.90 487.40,508.90 489.60,508.90 491.90,508.90 494.10,508.90 496.40,508.80 498.60,508.90 500.90,508.90 503.20,508.90 505.40,508.90 507.70,508.90 509.90,508.90 512.20,508.90 514.40,508.90 516.70,508.90 518.90,508.90 521.20,508.80 523.40,508.80 525.70,508.90 527.90,508.80 530.20,508.90 532.40,508.80 534.70,508.80 536.90,508.70 539.20,508.80 541.40,508.80 543.70,508.30 545.90,508.30 548.20,508.10 550.50,508.10 552.70,508.00 555.00,507.80 557.20,507.70 559.50,507.70 561.70,507.60 564.00,507.60 566.20,507.30 568.50,507.20 570.70,507.10 573.00,507.00 575.20,507.00 577.50,507.00 579.70,506.70 582.00,506.60 584.20,506.20 586.50,505.90 588.70,505.60 591.00,505.20 593.20,504.80 595.50,504.10 597.70,503.70 600.00,503.40 602.30,503.30 604.50,503.00 606.80,502.40 609.00,502.00 611.30,502.10 613.50,502.70 615.80,502.70 618.00,502.90 620.30,502.80 622.50,502.30 624.80,501.70 627.00,501.40 629.30,501.30 631.50,501.10 633.80,500.90 636.00,500.50 638.30,500.30 640.50,499.90 642.80,499.50 645.00,499.00 647.30,498.20 649.60,497.50 651.80,497.10 654.10,496.80 656.30,496.30 658.60,496.10 660.80,496.00 663.10,496.10 665.30,495.50 667.60,495.40 669.80,495.20 672.10,494.40 674.30,493.60 676.60,494.40 678.80,492.50 681.10,491.70 683.30,490.30 685.60,489.00 687.80,488.10 690.10,489.20 692.30,490.50 694.60,490.40 696.90,491.10 699.10,491.20 701.40,492.40 703.60,490.70" stroke-linejoin="round" stroke-width="1.5" stroke="#286BBB" fill="none" stroke-linecap="butt"></polyline></g><g><path fill="none" stroke-linecap="butt" stroke-linejoin="round" stroke="#fff" stroke-width="2.5" d="M428.8 509.1L435.6 509.1L437.8 509.1L440.1 509.1L442.3 509.1L444.6 509.1L446.8 508.3L449.1 508.2L451.3 508.2L453.6 508.1L455.9 508.2L458.1 508.4L460.4 508.2L462.6 508.1L464.9 508.1L467.1 507.9L469.4 507.9L471.6 507.8L473.9 507.7L476.1 507.6L478.4 507.6L480.6 507.6L482.9 507.3L485.1 507.2L487.4 507.4L489.6 507.4L491.9 507.4L494.1 507.3L496.4 507.3L498.6 507.2L500.9 507.1L503.2 507.2L505.4 507L507.7 506.7L509.9 506.3L512.2 506.2L514.4 506.4L516.7 506.8L518.9 506.3L521.2 505.7L523.4 504.8L525.7 504.3L527.9 505L530.2 505.2L532.4 507L534.7 507.7L536.9 507.5L539.2 507.6L541.4 506.7L543.7 506.1L545.9 505.2L548.2 504.3L550.5 504L552.7 503L555 501.9L557.2 501L559.5 499.5L561.7 489.3L564 482L566.2 479L568.5 487.6L570.7 491.8L573 491.9L575.2 491.8L577.5 490.3L579.7 488.4L582 491.8L584.2 490.4L586.5 486.2L588.7 478.7L591 474.9L593.2 472.6L595.5 471.1L597.7 470.4L600 464.6L602.3 462.9L604.5 458.6L606.8 452.9L609 451.7L611.3 452.9L613.5 453.5L615.8 448.6L618 445.3L620.3 439.7L622.5 433.9L624.8 429.9L627 424.1L629.3 417.8L631.5 416.4L633.8 415.6L636 411L638.3 406.3L640.5 399.2L642.8 392.5L645 382.8L647.3 377.3L649.6 377L651.8 382.7L654.1 375.4L656.3 372L658.6 369L660.8 354.4L663.1 327.5L665.3 312.6L667.6 288L669.8 265L672.1 246.5L674.3 227L676.6 212.4L678.8 184.9L681.1 150.6L683.3 141.2L685.6 134.5L687.8 132.9L690.1 137.9L692.3 141.7L694.6 132.5L696.9 119.6L699.1 105L701.4 96.9L703.6 77.5"></path><polyline points="428.80,509.10 435.60,509.10 437.80,509.10 440.10,509.10 442.30,509.10 444.60,509.10 446.80,508.30 449.10,508.20 451.30,508.20 453.60,508.10 455.90,508.20 458.10,508.40 460.40,508.20 462.60,508.10 464.90,508.10 467.10,507.90 469.40,507.90 471.60,507.80 473.90,507.70 476.10,507.60 478.40,507.60 480.60,507.60 482.90,507.30 485.10,507.20 487.40,507.40 489.60,507.40 491.90,507.40 494.10,507.30 496.40,507.30 498.60,507.20 500.90,507.10 503.20,507.20 505.40,507.00 507.70,506.70 509.90,506.30 512.20,506.20 514.40,506.40 516.70,506.80 518.90,506.30 521.20,505.70 523.40,504.80 525.70,504.30 527.90,505.00 530.20,505.20 532.40,507.00 534.70,507.70 536.90,507.50 539.20,507.60 541.40,506.70 543.70,506.10 545.90,505.20 548.20,504.30 550.50,504.00 552.70,503.00 555.00,501.90 557.20,501.00 559.50,499.50 561.70,489.30 564.00,482.00 566.20,479.00 568.50,487.60 570.70,491.80 573.00,491.90 575.20,491.80 577.50,490.30 579.70,488.40 582.00,491.80 584.20,490.40 586.50,486.20 588.70,478.70 591.00,474.90 593.20,472.60 595.50,471.10 597.70,470.40 600.00,464.60 602.30,462.90 604.50,458.60 606.80,452.90 609.00,451.70 611.30,452.90 613.50,453.50 615.80,448.60 618.00,445.30 620.30,439.70 622.50,433.90 624.80,429.90 627.00,424.10 629.30,417.80 631.50,416.40 633.80,415.60 636.00,411.00 638.30,406.30 640.50,399.20 642.80,392.50 645.00,382.80 647.30,377.30 649.60,377.00 651.80,382.70 654.10,375.40 656.30,372.00 658.60,369.00 660.80,354.40 663.10,327.50 665.30,312.60 667.60,288.00 669.80,265.00 672.10,246.50 674.30,227.00 676.60,212.40 678.80,184.90 681.10,150.60 683.30,141.20 685.60,134.50 687.80,132.90 690.10,137.90 692.30,141.70 694.60,132.50 696.90,119.60 699.10,105.00 701.40,96.90 703.60,77.50" stroke-linejoin="round" stroke-width="1.5" stroke="#18470F" fill="none" stroke-linecap="butt"></polyline></g><g><path fill="none" stroke-linecap="butt" stroke-linejoin="round" stroke="#fff" stroke-width="2.5" d="M336.5 509.1L338.7 509.1L341 509.1L343.2 509.1L345.5 509.1L347.7 509.1L350 509.1L352.2 509.1L354.5 509.1L381.5 509L383.8 509L386 509L388.3 509L390.5 509L392.8 509L395 509L397.3 509L399.5 509L401.8 509L404 509L406.3 508.9L408.6 508.9L410.8 508.9L413.1 508.9L415.3 508.9L417.6 508.9L419.8 508.8L422.1 508.8L424.3 508.8L426.6 508.7L428.8 508.7L431.1 508.6L433.3 508.6L435.6 508.5L437.8 508.5L440.1 508.5L442.3 508.4L444.6 508.3L446.8 508.3L449.1 508.1L451.3 508.2L453.6 508.2L455.9 508.1L458.1 508L460.4 507.9L462.6 507.9L464.9 507.8L467.1 507.8L469.4 507.8L471.6 507.6L473.9 507.5L476.1 507.8L478.4 507.7L480.6 507.7L482.9 507.7L485.1 507.6L487.4 507.6L489.6 507.6L491.9 507.5L494.1 507.6L496.4 507.5L498.6 507.5L500.9 507.6L503.2 507.7L505.4 507.7L507.7 507.6L509.9 507.5L512.2 507.5L514.4 507.4L516.7 507.2L518.9 507.2L521.2 507.1L523.4 507.1L525.7 507.1L527.9 507.3L530.2 507.3L532.4 507.1L534.7 507.1L536.9 507.1L539.2 507.1L541.4 507L543.7 506.8L545.9 506.7L548.2 506.5L550.5 506.5L552.7 506.4L555 506.1L557.2 506L559.5 505.6L561.7 505.5L564 505.3L566.2 504.9L568.5 504.6L570.7 504.1L573 503.7L575.2 503.8L577.5 503.3L579.7 503.1L582 503.1L584.2 502.5L586.5 502.4L588.7 502.2L591 501.9L593.2 501.4L595.5 501.2L597.7 501L600 500.3L602.3 499.9L604.5 499.3L606.8 499.2L609 498.7L611.3 498.1L613.5 497.2L615.8 496.8L618 495.8L620.3 495.5L622.5 494.1L624.8 493L627 491.9L629.3 490.6L631.5 488.7L633.8 487.3L636 485.9L638.3 484.4L640.5 483.6L642.8 482.1L645 480.4L647.3 478L649.6 476.8L651.8 476.1L654.1 473.3L656.3 472.3L658.6 471.8L660.8 470.6L663.1 469.2L665.3 466.8L667.6 464.5L669.8 461.7L672.1 458L674.3 454.1L676.6 448.5L678.8 446L681.1 442.2L683.3 435.2L685.6 432.4L687.8 426.8L690.1 423.7L692.3 419.4L694.6 417.5L696.9 411.2L699.1 410.3L701.4 417.1L703.6 407.1"></path><polyline points="336.50,509.10 338.70,509.10 341.00,509.10 343.20,509.10 345.50,509.10 347.70,509.10 350.00,509.10 352.20,509.10 354.50,509.10 381.50,509.00 383.80,509.00 386.00,509.00 388.30,509.00 390.50,509.00 392.80,509.00 395.00,509.00 397.30,509.00 399.50,509.00 401.80,509.00 404.00,509.00 406.30,508.90 408.60,508.90 410.80,508.90 413.10,508.90 415.30,508.90 417.60,508.90 419.80,508.80 422.10,508.80 424.30,508.80 426.60,508.70 428.80,508.70 431.10,508.60 433.30,508.60 435.60,508.50 437.80,508.50 440.10,508.50 442.30,508.40 444.60,508.30 446.80,508.30 449.10,508.10 451.30,508.20 453.60,508.20 455.90,508.10 458.10,508.00 460.40,507.90 462.60,507.90 464.90,507.80 467.10,507.80 469.40,507.80 471.60,507.60 473.90,507.50 476.10,507.80 478.40,507.70 480.60,507.70 482.90,507.70 485.10,507.60 487.40,507.60 489.60,507.60 491.90,507.50 494.10,507.60 496.40,507.50 498.60,507.50 500.90,507.60 503.20,507.70 505.40,507.70 507.70,507.60 509.90,507.50 512.20,507.50 514.40,507.40 516.70,507.20 518.90,507.20 521.20,507.10 523.40,507.10 525.70,507.10 527.90,507.30 530.20,507.30 532.40,507.10 534.70,507.10 536.90,507.10 539.20,507.10 541.40,507.00 543.70,506.80 545.90,506.70 548.20,506.50 550.50,506.50 552.70,506.40 555.00,506.10 557.20,506.00 559.50,505.60 561.70,505.50 564.00,505.30 566.20,504.90 568.50,504.60 570.70,504.10 573.00,503.70 575.20,503.80 577.50,503.30 579.70,503.10 582.00,503.10 584.20,502.50 586.50,502.40 588.70,502.20 591.00,501.90 593.20,501.40 595.50,501.20 597.70,501.00 600.00,500.30 602.30,499.90 604.50,499.30 606.80,499.20 609.00,498.70 611.30,498.10 613.50,497.20 615.80,496.80 618.00,495.80 620.30,495.50 622.50,494.10 624.80,493.00 627.00,491.90 629.30,490.60 631.50,488.70 633.80,487.30 636.00,485.90 638.30,484.40 640.50,483.60 642.80,482.10 645.00,480.40 647.30,478.00 649.60,476.80 651.80,476.10 654.10,473.30 656.30,472.30 658.60,471.80 660.80,470.60 663.10,469.20 665.30,466.80 667.60,464.50 669.80,461.70 672.10,458.00 674.30,454.10 676.60,448.50 678.80,446.00 681.10,442.20 683.30,435.20 685.60,432.40 687.80,426.80 690.10,423.70 692.30,419.40 694.60,417.50 696.90,411.20 699.10,410.30 701.40,417.10 703.60,407.10" stroke-linejoin="round" stroke-width="1.5" stroke="#CF0A66" fill="none" stroke-linecap="butt"></polyline></g><g><path fill="none" stroke-linecap="butt" stroke-linejoin="round" stroke="#fff" stroke-width="2.5" d="M210.3 509L214.9 509L228.4 509L230.6 509L232.9 509L235.1 509L237.4 509L239.6 509L241.9 509L244.1 509L246.4 509L248.6 509L250.9 509L253.1 509L255.4 509L257.6 509L259.9 508.9L262.2 508.9L264.4 508.9L266.7 508.9L268.9 508.8L271.2 508.9L273.4 508.8L275.7 508.9L277.9 508.8L280.2 508.8L282.4 508.7L284.7 508.7L286.9 508.7L289.2 508.7L291.4 508.6L293.7 508.6L295.9 508.6L298.2 508.6L300.4 508.5L302.7 508.5L304.9 508.5L307.2 508.4L309.4 508.4L311.7 508.3L314 508.5L316.2 508.4L318.5 508.3L320.7 508.3L323 508.3L325.2 508.1L327.5 508L329.7 507.8L332 507.8L334.2 507.8L336.5 507.8L338.7 507.8L341 507.6L343.2 507.5L345.5 507.4L347.7 507.4L350 507.3L352.2 507.2L354.5 507.1L356.7 507L359 507L361.3 506.9L363.5 507.2L365.8 507.2L368 506.8L370.3 506.6L372.5 506.7L374.8 506.6L377 506.6L379.3 506.7L381.5 506.6L383.8 506.5L386 506.2L388.3 506.1L390.5 506L392.8 505.8L395 506L397.3 506.1L399.5 506.1L401.8 505.9L404 505.8L406.3 505.7L408.6 505.4L410.8 505.4L413.1 505.4L415.3 505.5L417.6 505.2L419.8 505.2L422.1 505.1L424.3 504.9L426.6 504.8L428.8 504.6L431.1 504.2L433.3 504.4L435.6 504.7L437.8 504.2L440.1 504.3L442.3 504.3L444.6 503.9L446.8 503.6L449.1 503.6L451.3 503.4L453.6 503.4L455.9 503.2L458.1 503.1L460.4 502.6L462.6 504.6L464.9 505.2L467.1 505L469.4 504.5L471.6 505L473.9 504.7L476.1 503.4L478.4 503.9L480.6 502.9L482.9 502.2L485.1 501.3L487.4 501L489.6 501L491.9 501.1L494.1 501.1L496.4 500.3L498.6 500.1L500.9 500.9L503.2 501.9L505.4 501.6L507.7 501.5L509.9 501.7L512.2 501.6L514.4 500.9L516.7 501.5L518.9 501.8L521.2 503.9L523.4 504.6L525.7 504.5L527.9 504.4L530.2 506.1L532.4 505L534.7 502.9L536.9 502.2L539.2 501.7L541.4 500.5L543.7 501.5L545.9 500.5L548.2 500.5L550.5 501L552.7 500.6L555 500.1L557.2 499L559.5 498.6L561.7 499.1L564 499.2L566.2 497.9L568.5 497.2L570.7 496.6L573 496.4L575.2 495.2L577.5 495.4L579.7 494.8L582 493.9L584.2 493.3L586.5 492.4L588.7 491.8L591 490.5L593.2 489.7L595.5 488.8L597.7 489.5L600 490.9L602.3 489.4L604.5 490L606.8 489.2L609 489.1L611.3 489.9L613.5 491.8L615.8 492.5L618 493.2L620.3 493.6L622.5 493.8L624.8 494.4L627 494.5L629.3 494.6L631.5 494L633.8 494.3L636 493.3L638.3 493.8L640.5 494.5L642.8 494.7L645 494.5L647.3 494L649.6 494.3L651.8 493.5L654.1 493.6L656.3 493.8L658.6 493.6L660.8 493.7L663.1 493.6L665.3 493.5L667.6 493.4L669.8 493.8L672.1 494.2L674.3 494.4L676.6 495.1L678.8 494.9L681.1 495.7L683.3 495.7L685.6 495.6L687.8 496.8L690.1 496.6L692.3 496.5L694.6 496.4L696.9 496.9L699.1 497.2L701.4 498.5L703.6 497.6"></path><polyline points="210.30,509.00 214.90,509.00 228.40,509.00 230.60,509.00 232.90,509.00 235.10,509.00 237.40,509.00 239.60,509.00 241.90,509.00 244.10,509.00 246.40,509.00 248.60,509.00 250.90,509.00 253.10,509.00 255.40,509.00 257.60,509.00 259.90,508.90 262.20,508.90 264.40,508.90 266.70,508.90 268.90,508.80 271.20,508.90 273.40,508.80 275.70,508.90 277.90,508.80 280.20,508.80 282.40,508.70 284.70,508.70 286.90,508.70 289.20,508.70 291.40,508.60 293.70,508.60 295.90,508.60 298.20,508.60 300.40,508.50 302.70,508.50 304.90,508.50 307.20,508.40 309.40,508.40 311.70,508.30 314.00,508.50 316.20,508.40 318.50,508.30 320.70,508.30 323.00,508.30 325.20,508.10 327.50,508.00 329.70,507.80 332.00,507.80 334.20,507.80 336.50,507.80 338.70,507.80 341.00,507.60 343.20,507.50 345.50,507.40 347.70,507.40 350.00,507.30 352.20,507.20 354.50,507.10 356.70,507.00 359.00,507.00 361.30,506.90 363.50,507.20 365.80,507.20 368.00,506.80 370.30,506.60 372.50,506.70 374.80,506.60 377.00,506.60 379.30,506.70 381.50,506.60 383.80,506.50 386.00,506.20 388.30,506.10 390.50,506.00 392.80,505.80 395.00,506.00 397.30,506.10 399.50,506.10 401.80,505.90 404.00,505.80 406.30,505.70 408.60,505.40 410.80,505.40 413.10,505.40 415.30,505.50 417.60,505.20 419.80,505.20 422.10,505.10 424.30,504.90 426.60,504.80 428.80,504.60 431.10,504.20 433.30,504.40 435.60,504.70 437.80,504.20 440.10,504.30 442.30,504.30 444.60,503.90 446.80,503.60 449.10,503.60 451.30,503.40 453.60,503.40 455.90,503.20 458.10,503.10 460.40,502.60 462.60,504.60 464.90,505.20 467.10,505.00 469.40,504.50 471.60,505.00 473.90,504.70 476.10,503.40 478.40,503.90 480.60,502.90 482.90,502.20 485.10,501.30 487.40,501.00 489.60,501.00 491.90,501.10 494.10,501.10 496.40,500.30 498.60,500.10 500.90,500.90 503.20,501.90 505.40,501.60 507.70,501.50 509.90,501.70 512.20,501.60 514.40,500.90 516.70,501.50 518.90,501.80 521.20,503.90 523.40,504.60 525.70,504.50 527.90,504.40 530.20,506.10 532.40,505.00 534.70,502.90 536.90,502.20 539.20,501.70 541.40,500.50 543.70,501.50 545.90,500.50 548.20,500.50 550.50,501.00 552.70,500.60 555.00,500.10 557.20,499.00 559.50,498.60 561.70,499.10 564.00,499.20 566.20,497.90 568.50,497.20 570.70,496.60 573.00,496.40 575.20,495.20 577.50,495.40 579.70,494.80 582.00,493.90 584.20,493.30 586.50,492.40 588.70,491.80 591.00,490.50 593.20,489.70 595.50,488.80 597.70,489.50 600.00,490.90 602.30,489.40 604.50,490.00 606.80,489.20 609.00,489.10 611.30,489.90 613.50,491.80 615.80,492.50 618.00,493.20 620.30,493.60 622.50,493.80 624.80,494.40 627.00,494.50 629.30,494.60 631.50,494.00 633.80,494.30 636.00,493.30 638.30,493.80 640.50,494.50 642.80,494.70 645.00,494.50 647.30,494.00 649.60,494.30 651.80,493.50 654.10,493.60 656.30,493.80 658.60,493.60 660.80,493.70 663.10,493.60 665.30,493.50 667.60,493.40 669.80,493.80 672.10,494.20 674.30,494.40 676.60,495.10 678.80,494.90 681.10,495.70 683.30,495.70 685.60,495.60 687.80,496.80 690.10,496.60 692.30,496.50 694.60,496.40 696.90,496.90 699.10,497.20 701.40,498.50 703.60,497.60" stroke-linejoin="round" stroke-width="1.5" stroke="#6D3E91" fill="none" stroke-linecap="butt"></polyline></g><g><path fill="none" stroke-linecap="butt" stroke-linejoin="round" stroke="#fff" stroke-width="2.5" d="M205.8 509.1L208.1 509.1L210.3 509.1L212.6 509.1L214.9 509.1L217.1 509.1L219.4 509.1L221.6 509.1L223.9 509.1L226.1 509.1L228.4 509.1L230.6 509.1L232.9 509.1L235.1 509.1L237.4 509.1L239.6 509.1L241.9 509.1L244.1 509.1L246.4 509.1L248.6 509.1L250.9 509.1L253.1 509L255.4 509L257.6 509L259.9 509L262.2 509L264.4 509L266.7 509L268.9 509L271.2 509L273.4 509L275.7 509L277.9 509L280.2 508.9L282.4 509L284.7 508.9L286.9 508.9L289.2 508.9L291.4 508.9L293.7 508.9L295.9 508.9L298.2 508.8L300.4 508.8L302.7 508.8L304.9 508.7L307.2 508.7L309.4 508.6L311.7 508.5L314 508.4L316.2 508.4L318.5 508.3L320.7 508.2L323 508.1L325.2 507.9L327.5 507.8L329.7 507.6L332 507.6L334.2 507.5L336.5 507.5L338.7 507.4L341 507.3L343.2 507.4L345.5 507.3L347.7 507L350 506.9L352.2 506.9L354.5 506.9L356.7 506.3L359 506L361.3 505.6L363.5 505.4L365.8 505.2L368 504.3L370.3 503.8L372.5 504L374.8 504L377 504.1L379.3 503.5L381.5 503.7L383.8 502.5L386 501.6L388.3 501.2L390.5 500.2L392.8 499.5L395 499L397.3 498.8L399.5 498.3L401.8 497.5L404 495L406.3 496.5L408.6 494L410.8 493L413.1 492.1L415.3 492L417.6 493.1L419.8 491L422.1 491L424.3 490.3L426.6 488.6L428.8 485.5L431.1 484.1L433.3 481.9L435.6 480.3L437.8 475.4L440.1 475.9L442.3 472L444.6 470.1L446.8 463.8L449.1 469.5L451.3 465.2L453.6 461.2L455.9 461.7L458.1 458.5L460.4 454.8L462.6 459.5L464.9 457.6L467.1 451.9L469.4 446.2L471.6 443.3L473.9 453.4L476.1 443.7L478.4 455.5L480.6 455.1L482.9 437.7L485.1 445.2L487.4 442.9L489.6 437.4L491.9 439L494.1 440.2L496.4 435.2L498.6 443.4L500.9 453.2L503.2 461.8L505.4 458.3L507.7 455L509.9 452.9L512.2 444.6L514.4 441.6L516.7 452.1L518.9 446.2L521.2 438.5L523.4 432.2L525.7 426.4L527.9 423.6L530.2 417.1L532.4 420.3L534.7 424.2L536.9 415.6L539.2 411.9L541.4 427.6L543.7 413.5L545.9 410.6L548.2 413.1L550.5 410.8L552.7 415.4L555 406.4L557.2 401.5L559.5 402.4L561.7 405.7L564 402.5L566.2 400.1L568.5 400.5L570.7 396.4L573 391.5L575.2 386.3L577.5 381.2L579.7 374.7L582 369.7L584.2 364.6L586.5 357.3L588.7 345.8L591 344.8L593.2 337L595.5 329.1L597.7 335.2L600 340.6L602.3 330.5L604.5 325.1L606.8 323.2L609 320.7L611.3 328.2L613.5 332.8L615.8 341.8L618 342.4L620.3 333.7L622.5 334L624.8 333.6L627 327.5L629.3 319.1L631.5 316L633.8 316.4L636 318.5L638.3 314.4L640.5 310.7L642.8 307.2L645 304.9L647.3 297.8L649.6 294.9L651.8 293.2L654.1 290.5L656.3 282.7L658.6 286.7L660.8 285.1L663.1 282.8L665.3 278.9L667.6 278.2L669.8 281.2L672.1 278.3L674.3 286.4L676.6 302.8L678.8 295.3L681.1 300.4L683.3 308L685.6 302.9L687.8 301.1L690.1 306.8L692.3 311.5L694.6 313L696.9 306.8L699.1 311.2L701.4 331.7L703.6 320.7"></path><polyline points="205.80,509.10 208.10,509.10 210.30,509.10 212.60,509.10 214.90,509.10 217.10,509.10 219.40,509.10 221.60,509.10 223.90,509.10 226.10,509.10 228.40,509.10 230.60,509.10 232.90,509.10 235.10,509.10 237.40,509.10 239.60,509.10 241.90,509.10 244.10,509.10 246.40,509.10 248.60,509.10 250.90,509.10 253.10,509.00 255.40,509.00 257.60,509.00 259.90,509.00 262.20,509.00 264.40,509.00 266.70,509.00 268.90,509.00 271.20,509.00 273.40,509.00 275.70,509.00 277.90,509.00 280.20,508.90 282.40,509.00 284.70,508.90 286.90,508.90 289.20,508.90 291.40,508.90 293.70,508.90 295.90,508.90 298.20,508.80 300.40,508.80 302.70,508.80 304.90,508.70 307.20,508.70 309.40,508.60 311.70,508.50 314.00,508.40 316.20,508.40 318.50,508.30 320.70,508.20 323.00,508.10 325.20,507.90 327.50,507.80 329.70,507.60 332.00,507.60 334.20,507.50 336.50,507.50 338.70,507.40 341.00,507.30 343.20,507.40 345.50,507.30 347.70,507.00 350.00,506.90 352.20,506.90 354.50,506.90 356.70,506.30 359.00,506.00 361.30,505.60 363.50,505.40 365.80,505.20 368.00,504.30 370.30,503.80 372.50,504.00 374.80,504.00 377.00,504.10 379.30,503.50 381.50,503.70 383.80,502.50 386.00,501.60 388.30,501.20 390.50,500.20 392.80,499.50 395.00,499.00 397.30,498.80 399.50,498.30 401.80,497.50 404.00,495.00 406.30,496.50 408.60,494.00 410.80,493.00 413.10,492.10 415.30,492.00 417.60,493.10 419.80,491.00 422.10,491.00 424.30,490.30 426.60,488.60 428.80,485.50 431.10,484.10 433.30,481.90 435.60,480.30 437.80,475.40 440.10,475.90 442.30,472.00 444.60,470.10 446.80,463.80 449.10,469.50 451.30,465.20 453.60,461.20 455.90,461.70 458.10,458.50 460.40,454.80 462.60,459.50 464.90,457.60 467.10,451.90 469.40,446.20 471.60,443.30 473.90,453.40 476.10,443.70 478.40,455.50 480.60,455.10 482.90,437.70 485.10,445.20 487.40,442.90 489.60,437.40 491.90,439.00 494.10,440.20 496.40,435.20 498.60,443.40 500.90,453.20 503.20,461.80 505.40,458.30 507.70,455.00 509.90,452.90 512.20,444.60 514.40,441.60 516.70,452.10 518.90,446.20 521.20,438.50 523.40,432.20 525.70,426.40 527.90,423.60 530.20,417.10 532.40,420.30 534.70,424.20 536.90,415.60 539.20,411.90 541.40,427.60 543.70,413.50 545.90,410.60 548.20,413.10 550.50,410.80 552.70,415.40 555.00,406.40 557.20,401.50 559.50,402.40 561.70,405.70 564.00,402.50 566.20,400.10 568.50,400.50 570.70,396.40 573.00,391.50 575.20,386.30 577.50,381.20 579.70,374.70 582.00,369.70 584.20,364.60 586.50,357.30 588.70,345.80 591.00,344.80 593.20,337.00 595.50,329.10 597.70,335.20 600.00,340.60 602.30,330.50 604.50,325.10 606.80,323.20 609.00,320.70 611.30,328.20 613.50,332.80 615.80,341.80 618.00,342.40 620.30,333.70 622.50,334.00 624.80,333.60 627.00,327.50 629.30,319.10 631.50,316.00 633.80,316.40 636.00,318.50 638.30,314.40 640.50,310.70 642.80,307.20 645.00,304.90 647.30,297.80 649.60,294.90 651.80,293.20 654.10,290.50 656.30,282.70 658.60,286.70 660.80,285.10 663.10,282.80 665.30,278.90 667.60,278.20 669.80,281.20 672.10,278.30 674.30,286.40 676.60,302.80 678.80,295.30 681.10,300.40 683.30,308.00 685.60,302.90 687.80,301.10 690.10,306.80 692.30,311.50 694.60,313.00 696.90,306.80 699.10,311.20 701.40,331.70 703.60,320.70" stroke-linejoin="round" stroke-width="1.5" stroke="#BE5915" fill="none" stroke-linecap="butt"></polyline></g><g><path fill="none" stroke-linecap="butt" stroke-linejoin="round" stroke="#fff" stroke-width="2.5" d="M187.8 509.1L190.1 509.1L192.3 509.1L194.6 509.1L196.8 509.1L199.1 509.1L201.3 509.1L203.6 509.1L205.8 509.1L208.1 509.1L210.3 509.1L212.6 509.1L214.9 509L217.1 509L219.4 509L221.6 509L223.9 509L226.1 509L228.4 509L230.6 509L232.9 509L235.1 509L237.4 509L239.6 509L241.9 509L244.1 509L246.4 508.9L248.6 509L250.9 509L253.1 508.9L255.4 508.9L257.6 508.9L259.9 509L262.2 508.9L264.4 508.9L266.7 508.9L268.9 508.9L271.2 508.9L273.4 508.9L275.7 508.9L277.9 509L280.2 508.9L282.4 508.9L284.7 508.9L286.9 508.9L289.2 508.9L291.4 508.8L293.7 508.8L295.9 508.7L298.2 508.7L300.4 508.7L302.7 508.7L304.9 508.7L307.2 508.6L309.4 508.6L311.7 508.6L314 508.6L316.2 508.6L318.5 508.5L320.7 508.4L323 508.4L325.2 508.3L327.5 508.2L329.7 508L332 507.9L334.2 507.8L336.5 507.7L338.7 507.8L341 507.7L343.2 507.5L345.5 507.4L347.7 507.2L350 506.9L352.2 506.7L354.5 506.7L356.7 506.5L359 506.3L361.3 506.2L363.5 506.2L365.8 505.9L368 505.6L370.3 505.4L372.5 506.4L374.8 505.3L377 505.2L379.3 505.3L381.5 505.1L383.8 504.9L386 504.4L388.3 504L390.5 503.7L392.8 503.3L395 503.2L397.3 503L399.5 502.9L401.8 502.7L404 502.1L406.3 501.6L408.6 501.2L410.8 500.8L413.1 501L415.3 500.8L417.6 500.4L419.8 500.1L422.1 499.4L424.3 498.8L426.6 498.3L428.8 497.7L431.1 496.8L433.3 496.8L435.6 497.1L437.8 496.2L440.1 495.7L442.3 494.7L444.6 495.5L446.8 492.4L449.1 492.3L451.3 492.3L453.6 492.3L455.9 491.8L458.1 490.3L460.4 488.9L462.6 490.3L464.9 491.7L467.1 490.2L469.4 489.3L471.6 490.1L473.9 494.5L476.1 492.9L478.4 491.3L480.6 491.9L482.9 496.6L485.1 492.1L487.4 491.8L489.6 493.5L491.9 491L494.1 490.1L496.4 488.8L498.6 491.7L500.9 494.6L503.2 496L505.4 495.3L507.7 493.7L509.9 492.1L512.2 490.3L514.4 487.9L516.7 486.5L518.9 484.7L521.2 484.5L523.4 484.2L525.7 484L527.9 483.5L530.2 486.5L532.4 504.7L534.7 498.9L536.9 497.1L539.2 494.9L541.4 492.8L543.7 489.9L545.9 487.4L548.2 486.1L550.5 485.6L552.7 484.3L555 481.9L557.2 480.3L559.5 479.8L561.7 480.6L564 480.6L566.2 478.5L568.5 477.7L570.7 475.9L573 473.5L575.2 472.6L577.5 473L579.7 473.3L582 473.9L584.2 472L586.5 469.5L588.7 470.5L591 470.1L593.2 469.9L595.5 468.2L597.7 469.1L600 471.4L602.3 468L604.5 469.5L606.8 468.5L609 467L611.3 467.7L613.5 469.6L615.8 470.9L618 471L620.3 470.2L622.5 469.8L624.8 469.7L627 470.2L629.3 470.4L631.5 471.1L633.8 469.5L636 470.9L638.3 472.8L640.5 473.1L642.8 473.7L645 473.8L647.3 473L649.6 474.1L651.8 474.4L654.1 475.4L656.3 475.2L658.6 474.6L660.8 475.2L663.1 475.2L665.3 475.7L667.6 476.5L669.8 476.1L672.1 477.1L674.3 476.9L676.6 479.4L678.8 477.8L681.1 478.6L683.3 478.5L685.6 477.8L687.8 479.3L690.1 479.2L692.3 479L694.6 479.5L696.9 480.7L699.1 482.5L701.4 485L703.6 483.7"></path><polyline points="187.80,509.10 190.10,509.10 192.30,509.10 194.60,509.10 196.80,509.10 199.10,509.10 201.30,509.10 203.60,509.10 205.80,509.10 208.10,509.10 210.30,509.10 212.60,509.10 214.90,509.00 217.10,509.00 219.40,509.00 221.60,509.00 223.90,509.00 226.10,509.00 228.40,509.00 230.60,509.00 232.90,509.00 235.10,509.00 237.40,509.00 239.60,509.00 241.90,509.00 244.10,509.00 246.40,508.90 248.60,509.00 250.90,509.00 253.10,508.90 255.40,508.90 257.60,508.90 259.90,509.00 262.20,508.90 264.40,508.90 266.70,508.90 268.90,508.90 271.20,508.90 273.40,508.90 275.70,508.90 277.90,509.00 280.20,508.90 282.40,508.90 284.70,508.90 286.90,508.90 289.20,508.90 291.40,508.80 293.70,508.80 295.90,508.70 298.20,508.70 300.40,508.70 302.70,508.70 304.90,508.70 307.20,508.60 309.40,508.60 311.70,508.60 314.00,508.60 316.20,508.60 318.50,508.50 320.70,508.40 323.00,508.40 325.20,508.30 327.50,508.20 329.70,508.00 332.00,507.90 334.20,507.80 336.50,507.70 338.70,507.80 341.00,507.70 343.20,507.50 345.50,507.40 347.70,507.20 350.00,506.90 352.20,506.70 354.50,506.70 356.70,506.50 359.00,506.30 361.30,506.20 363.50,506.20 365.80,505.90 368.00,505.60 370.30,505.40 372.50,506.40 374.80,505.30 377.00,505.20 379.30,505.30 381.50,505.10 383.80,504.90 386.00,504.40 388.30,504.00 390.50,503.70 392.80,503.30 395.00,503.20 397.30,503.00 399.50,502.90 401.80,502.70 404.00,502.10 406.30,501.60 408.60,501.20 410.80,500.80 413.10,501.00 415.30,500.80 417.60,500.40 419.80,500.10 422.10,499.40 424.30,498.80 426.60,498.30 428.80,497.70 431.10,496.80 433.30,496.80 435.60,497.10 437.80,496.20 440.10,495.70 442.30,494.70 444.60,495.50 446.80,492.40 449.10,492.30 451.30,492.30 453.60,492.30 455.90,491.80 458.10,490.30 460.40,488.90 462.60,490.30 464.90,491.70 467.10,490.20 469.40,489.30 471.60,490.10 473.90,494.50 476.10,492.90 478.40,491.30 480.60,491.90 482.90,496.60 485.10,492.10 487.40,491.80 489.60,493.50 491.90,491.00 494.10,490.10 496.40,488.80 498.60,491.70 500.90,494.60 503.20,496.00 505.40,495.30 507.70,493.70 509.90,492.10 512.20,490.30 514.40,487.90 516.70,486.50 518.90,484.70 521.20,484.50 523.40,484.20 525.70,484.00 527.90,483.50 530.20,486.50 532.40,504.70 534.70,498.90 536.90,497.10 539.20,494.90 541.40,492.80 543.70,489.90 545.90,487.40 548.20,486.10 550.50,485.60 552.70,484.30 555.00,481.90 557.20,480.30 559.50,479.80 561.70,480.60 564.00,480.60 566.20,478.50 568.50,477.70 570.70,475.90 573.00,473.50 575.20,472.60 577.50,473.00 579.70,473.30 582.00,473.90 584.20,472.00 586.50,469.50 588.70,470.50 591.00,470.10 593.20,469.90 595.50,468.20 597.70,469.10 600.00,471.40 602.30,468.00 604.50,469.50 606.80,468.50 609.00,467.00 611.30,467.70 613.50,469.60 615.80,470.90 618.00,471.00 620.30,470.20 622.50,469.80 624.80,469.70 627.00,470.20 629.30,470.40 631.50,471.10 633.80,469.50 636.00,470.90 638.30,472.80 640.50,473.10 642.80,473.70 645.00,473.80 647.30,473.00 649.60,474.10 651.80,474.40 654.10,475.40 656.30,475.20 658.60,474.60 660.80,475.20 663.10,475.20 665.30,475.70 667.60,476.50 669.80,476.10 672.10,477.10 674.30,476.90 676.60,479.40 678.80,477.80 681.10,478.60 683.30,478.50 685.60,477.80 687.80,479.30 690.10,479.20 692.30,479.00 694.60,479.50 696.90,480.70 699.10,482.50 701.40,485.00 703.60,483.70" stroke-linejoin="round" stroke-width="1.5" stroke="#2C8465" fill="none" stroke-linecap="butt"></polyline></g><g><path fill="none" stroke-linecap="butt" stroke-linejoin="round" stroke="#fff" stroke-width="2.5" d="M93.2 508.7L95.5 508.7L97.7 508.7L100 508.7L102.2 508.7L104.5 508.7L106.7 508.7L109 508.7L111.2 508.7L113.5 508.7L115.7 508.7L118 508.7L120.3 508.7L122.5 508.7L124.8 508.7L127 508.7L129.3 508.6L131.5 508.6L133.8 508.6L136 508.6L138.3 508.6L140.5 508.6L142.8 508.6L145 508.6L147.3 508.6L149.5 508.6L151.8 508.5L154 508.5L156.3 508.5L158.5 508.5L160.8 508.5L163 508.4L165.3 508.4L167.6 508.4L169.8 508.4L172.1 508.4L174.3 508.4L176.6 508.4L178.8 508.4L181.1 508.4L183.3 508.4L185.6 508.3L187.8 508.3L190.1 508.3L192.3 508.3L194.6 508.3L196.8 508.2L199.1 508.2L201.3 508.2L203.6 508.1L205.8 508.1L208.1 508.1L210.3 508.1L212.6 507.9L214.9 507.9L217.1 507.9L219.4 507.8L221.6 507.8L223.9 507.8L226.1 507.8L228.4 507.8L230.6 507.7L232.9 507.7L235.1 507.7L237.4 507.6L239.6 507.6L241.9 507.5L244.1 507.5L246.4 507.5L248.6 507.5L250.9 507.5L253.1 507.5L255.4 507.4L257.6 507.3L259.9 507.2L262.2 507.2L264.4 507.2L266.7 507.1L268.9 507.1L271.2 507.1L273.4 506.5L275.7 506.6L277.9 506.6L280.2 506.6L282.4 506.6L284.7 506.6L286.9 506.2L289.2 506.3L291.4 506.2L293.7 506.2L295.9 506L298.2 506L300.4 505.9L302.7 505.7L304.9 505.6L307.2 505.3L309.4 505.5L311.7 505.2L314 505L316.2 504.7L318.5 504.5L320.7 504.7L323 504.7L325.2 504.7L327.5 503.8L329.7 504.2L332 503.8L334.2 503.9L336.5 504L338.7 503.4L341 502.8L343.2 502.5L345.5 502.7L347.7 502.3L350 501.8L352.2 501.3L354.5 501.1L356.7 500.9L359 501.1L361.3 500.7L363.5 500.5L365.8 500L368 499.5L370.3 499.1L372.5 499.4L374.8 498.9L377 498.9L379.3 498.7L381.5 498.9L383.8 498.8L386 497.9L388.3 497.3L390.5 497.2L392.8 496.8L395 497.1L397.3 497.2L399.5 497.3L401.8 497L404 496.5L406.3 496.1L408.6 495.8L410.8 495.5L413.1 495.8L415.3 497.2L417.6 495.5L419.8 495.3L422.1 494.9L424.3 494.6L426.6 494.5L428.8 493.5L431.1 493.3L433.3 493.6L435.6 493L437.8 492.9L440.1 492.8L442.3 492.6L444.6 492L446.8 491.3L449.1 491.7L451.3 491.5L453.6 491.4L455.9 491L458.1 491.9L460.4 490.3L462.6 490.9L464.9 490.7L467.1 490L469.4 490.2L471.6 491.5L473.9 491.9L476.1 491.4L478.4 497L480.6 493L482.9 492L485.1 491.2L487.4 492.2L489.6 499.8L491.9 491.5L494.1 492.6L496.4 491.7L498.6 492.5L500.9 493.6L503.2 494.2L505.4 494.3L507.7 493.2L509.9 492.9L512.2 492L514.4 491.5L516.7 492.2L518.9 492.1L521.2 491.2L523.4 491.4L525.7 491.4L527.9 492L530.2 492.5L532.4 493.4L534.7 492.7L536.9 491.7L539.2 491.2L541.4 490.8L543.7 490.2L545.9 488.6L548.2 489.2L550.5 488.8L552.7 488.3L555 487.4L557.2 487.5L559.5 487.6L561.7 488.2L564 488.5L566.2 487.1L568.5 486.9L570.7 486.8L573 486.4L575.2 486.2L577.5 485.7L579.7 485.8L582 486.8L584.2 486.3L586.5 485.4L588.7 484.5L591 484.2L593.2 484.7L595.5 484.3L597.7 485.9L600 486.4L602.3 486.6L604.5 486.3L606.8 486.3L609 484.8L611.3 487.3L613.5 488L615.8 488.5L618 488.6L620.3 489.2L622.5 488L624.8 487.7L627 487.6L629.3 487.6L631.5 487.2L633.8 486.4L636 486.2L638.3 486.7L640.5 487.3L642.8 487.5L645 487.8L647.3 487L649.6 487.9L651.8 487.7L654.1 488L656.3 487.7L658.6 487.3L660.8 488L663.1 487.6L665.3 487.5L667.6 487.6L669.8 487.7L672.1 488L674.3 488.6L676.6 490.5L678.8 489.8L681.1 491.4L683.3 490.7L685.6 491.1L687.8 492.6L690.1 493.2L692.3 494.1L694.6 494.5L696.9 494.8L699.1 495.4L701.4 496.8L703.6 496"></path><polyline points="93.20,508.70 95.50,508.70 97.70,508.70 100.00,508.70 102.20,508.70 104.50,508.70 106.70,508.70 109.00,508.70 111.20,508.70 113.50,508.70 115.70,508.70 118.00,508.70 120.30,508.70 122.50,508.70 124.80,508.70 127.00,508.70 129.30,508.60 131.50,508.60 133.80,508.60 136.00,508.60 138.30,508.60 140.50,508.60 142.80,508.60 145.00,508.60 147.30,508.60 149.50,508.60 151.80,508.50 154.00,508.50 156.30,508.50 158.50,508.50 160.80,508.50 163.00,508.40 165.30,508.40 167.60,508.40 169.80,508.40 172.10,508.40 174.30,508.40 176.60,508.40 178.80,508.40 181.10,508.40 183.30,508.40 185.60,508.30 187.80,508.30 190.10,508.30 192.30,508.30 194.60,508.30 196.80,508.20 199.10,508.20 201.30,508.20 203.60,508.10 205.80,508.10 208.10,508.10 210.30,508.10 212.60,507.90 214.90,507.90 217.10,507.90 219.40,507.80 221.60,507.80 223.90,507.80 226.10,507.80 228.40,507.80 230.60,507.70 232.90,507.70 235.10,507.70 237.40,507.60 239.60,507.60 241.90,507.50 244.10,507.50 246.40,507.50 248.60,507.50 250.90,507.50 253.10,507.50 255.40,507.40 257.60,507.30 259.90,507.20 262.20,507.20 264.40,507.20 266.70,507.10 268.90,507.10 271.20,507.10 273.40,506.50 275.70,506.60 277.90,506.60 280.20,506.60 282.40,506.60 284.70,506.60 286.90,506.20 289.20,506.30 291.40,506.20 293.70,506.20 295.90,506.00 298.20,506.00 300.40,505.90 302.70,505.70 304.90,505.60 307.20,505.30 309.40,505.50 311.70,505.20 314.00,505.00 316.20,504.70 318.50,504.50 320.70,504.70 323.00,504.70 325.20,504.70 327.50,503.80 329.70,504.20 332.00,503.80 334.20,503.90 336.50,504.00 338.70,503.40 341.00,502.80 343.20,502.50 345.50,502.70 347.70,502.30 350.00,501.80 352.20,501.30 354.50,501.10 356.70,500.90 359.00,501.10 361.30,500.70 363.50,500.50 365.80,500.00 368.00,499.50 370.30,499.10 372.50,499.40 374.80,498.90 377.00,498.90 379.30,498.70 381.50,498.90 383.80,498.80 386.00,497.90 388.30,497.30 390.50,497.20 392.80,496.80 395.00,497.10 397.30,497.20 399.50,497.30 401.80,497.00 404.00,496.50 406.30,496.10 408.60,495.80 410.80,495.50 413.10,495.80 415.30,497.20 417.60,495.50 419.80,495.30 422.10,494.90 424.30,494.60 426.60,494.50 428.80,493.50 431.10,493.30 433.30,493.60 435.60,493.00 437.80,492.90 440.10,492.80 442.30,492.60 444.60,492.00 446.80,491.30 449.10,491.70 451.30,491.50 453.60,491.40 455.90,491.00 458.10,491.90 460.40,490.30 462.60,490.90 464.90,490.70 467.10,490.00 469.40,490.20 471.60,491.50 473.90,491.90 476.10,491.40 478.40,497.00 480.60,493.00 482.90,492.00 485.10,491.20 487.40,492.20 489.60,499.80 491.90,491.50 494.10,492.60 496.40,491.70 498.60,492.50 500.90,493.60 503.20,494.20 505.40,494.30 507.70,493.20 509.90,492.90 512.20,492.00 514.40,491.50 516.70,492.20 518.90,492.10 521.20,491.20 523.40,491.40 525.70,491.40 527.90,492.00 530.20,492.50 532.40,493.40 534.70,492.70 536.90,491.70 539.20,491.20 541.40,490.80 543.70,490.20 545.90,488.60 548.20,489.20 550.50,488.80 552.70,488.30 555.00,487.40 557.20,487.50 559.50,487.60 561.70,488.20 564.00,488.50 566.20,487.10 568.50,486.90 570.70,486.80 573.00,486.40 575.20,486.20 577.50,485.70 579.70,485.80 582.00,486.80 584.20,486.30 586.50,485.40 588.70,484.50 591.00,484.20 593.20,484.70 595.50,484.30 597.70,485.90 600.00,486.40 602.30,486.60 604.50,486.30 606.80,486.30 609.00,484.80 611.30,487.30 613.50,488.00 615.80,488.50 618.00,488.60 620.30,489.20 622.50,488.00 624.80,487.70 627.00,487.60 629.30,487.60 631.50,487.20 633.80,486.40 636.00,486.20 638.30,486.70 640.50,487.30 642.80,487.50 645.00,487.80 647.30,487.00 649.60,487.90 651.80,487.70 654.10,488.00 656.30,487.70 658.60,487.30 660.80,488.00 663.10,487.60 665.30,487.50 667.60,487.60 669.80,487.70 672.10,488.00 674.30,488.60 676.60,490.50 678.80,489.80 681.10,491.40 683.30,490.70 685.60,491.10 687.80,492.60 690.10,493.20 692.30,494.10 694.60,494.50 696.90,494.80 699.10,495.40 701.40,496.80 703.60,496.00" stroke-linejoin="round" stroke-width="1.5" stroke="#C15065" fill="none" stroke-linecap="butt"></polyline></g></g></g></g><g class="SourcesFooter" style="fill:#777"><g style="fill:#777"><text x="15.0" y="566.9" style="font-size:12.6px;line-height:1.1"><tspan x="15" y="566.9">Source: Our World in Data based on the Global Carbon Project (2022)</tspan></text></g><text font-size="12.60" x="15.0" y="582.7"><tspan x="15" y="582.732"><a target='_blank' style='fill: #777;' href='https://ourworldindata.org/co2-and-greenhouse-gas-emissions'>OurWorldInData.org/co2-and-greenhouse-gas-emissions</a> • <a style="fill: #777;" class="cclogo" href="http://creativecommons.org/licenses/by/4.0/deed.en_US" target="_blank">CC BY</a></tspan></text></g></svg>