<svg xmlns="http://www.w3.org/2000/svg" version="1.1" style="font-family:Lato, &#x27;Helvetica Neue&#x27;, Helvetica, Arial, &#x27;Liberation Sans&#x27;, sans-serif;font-size:18px;background-color:#ffffff;text-rendering:geometricPrecision;-webkit-font-smoothing:antialiased" width="850" height="600" viewBox="0 0 850 600"><defs><style>@import url(https://ourworldindata.org/fonts.css)</style></defs><defs><pattern id="noDataPattern" patternUnits="userSpaceOnUse" width="4" height="4" patternTransform="rotate(-45 2 2)"><path d="M -1,2 l 6,0" stroke="#ccc" stroke-width="0.7"></path></pattern></defs><rect class="background-fill" fill="#ffffff" width="850" height="600"></rect><g id="header" class="HeaderView"><g id="logo" transform="translate(769, 16) scale(1)"><svg className="owidLogo" xmlns="http://www.w3.org/2000/svg" width="65" height="36" viewBox="0 0 65 36"  fill="none"><path fill="#002147" d="M0 0h64.8v36H0z"/><path fill="#CE261E" d="M0 33.3h64.8V36H0z"/><path fill="#fff" d="M13.796 10.575c0 .636-.106 1.226-.318 1.77a4.193 4.193 0 0 1-.894 1.404 4.084 4.084 0 0 1-1.386.93c-.54.22-1.138.33-1.794.33-.656 0-1.256-.11-1.8-.33a4.149 4.149 0 0 1-1.392-.93 4.193 4.193 0 0 1-.894-1.404A4.833 4.833 0 0 1 5 10.575c0-.636.106-1.224.318-1.764a4.18 4.18 0 0 1 .894-1.41 4.076 4.076 0 0 1 1.392-.924 4.684 4.684 0 0 1 1.8-.336c.656 0 1.254.112 1.794.336.54.224 1.002.534 1.386.93.384.392.682.86.894 1.404.212.54.318 1.128.318 1.764Zm-1.656 0c0-.476-.064-.902-.192-1.278a2.671 2.671 0 0 0-.54-.966 2.332 2.332 0 0 0-.864-.606 2.94 2.94 0 0 0-1.14-.21c-.424 0-.806.07-1.146.21-.34.14-.63.342-.87.606a2.742 2.742 0 0 0-.546.966 3.955 3.955 0 0 0-.192 1.278c0 .476.064.904.192 1.284.128.376.31.696.546.96.24.26.53.46.87.6.34.14.722.21 1.146.21.424 0 .804-.07 1.14-.21.34-.14.628-.34.864-.6.236-.264.416-.584.54-.96a4.01 4.01 0 0 0 .192-1.284ZM16.104 8.757v3.912c0 .376.086.668.258.876.176.204.438.306.786.306.256 0 .496-.056.72-.168a2.58 2.58 0 0 0 .636-.474V8.757h1.482v6.156h-.906c-.192 0-.318-.09-.378-.27l-.102-.492a4.65 4.65 0 0 1-.396.354 2.577 2.577 0 0 1-.438.27 2.35 2.35 0 0 1-.498.168 2.345 2.345 0 0 1-.57.066c-.336 0-.634-.056-.894-.168a1.821 1.821 0 0 1-.648-.486 2.157 2.157 0 0 1-.402-.738 3.233 3.233 0 0 1-.132-.948V8.757h1.482ZM21.328 14.913V8.757h.87c.152 0 .258.028.318.084.06.056.1.152.12.288l.09.744c.22-.38.478-.68.774-.9.296-.22.628-.33.996-.33.304 0 .556.07.756.21l-.192 1.11c-.012.072-.038.124-.078.156a.278.278 0 0 1-.162.042 1.01 1.01 0 0 1-.246-.042 1.646 1.646 0 0 0-.414-.042c-.308 0-.572.086-.792.258-.22.168-.406.416-.558.744v3.834h-1.482ZM27.347 6.237h1.356a.57.57 0 0 1 .348.102c.096.064.16.152.192.264l1.476 5.19c.036.128.068.268.096.42.032.148.062.306.09.474a5.968 5.968 0 0 1 .228-.894l1.704-5.19a.575.575 0 0 1 .186-.252.543.543 0 0 1 .348-.114h.474a.57.57 0 0 1 .348.102.497.497 0 0 1 .192.264l1.692 5.19c.088.256.164.54.228.852.028-.156.056-.306.084-.45.032-.144.064-.278.096-.402l1.476-5.19c.028-.1.09-.186.186-.258a.563.563 0 0 1 .348-.108h1.266l-2.694 8.676h-1.458l-1.896-5.928-.078-.246a9.504 9.504 0 0 1-.072-.282c-.024.1-.05.194-.078.282-.024.088-.048.17-.072.246l-1.914 5.928H30.04l-2.694-8.676ZM42.771 8.661c.46 0 .876.074 1.248.222.376.148.696.358.96.63s.468.604.612.996c.144.392.216.83.216 1.314 0 .488-.072.928-.216 1.32a2.85 2.85 0 0 1-.612 1.002 2.653 2.653 0 0 1-.96.636 3.35 3.35 0 0 1-1.248.222c-.46 0-.878-.074-1.254-.222a2.712 2.712 0 0 1-.966-.636 2.922 2.922 0 0 1-.618-1.002 3.807 3.807 0 0 1-.216-1.32c0-.484.072-.922.216-1.314.148-.392.354-.724.618-.996.268-.272.59-.482.966-.63a3.397 3.397 0 0 1 1.254-.222Zm0 5.202c.512 0 .89-.172 1.134-.516.248-.344.372-.848.372-1.512s-.124-1.17-.372-1.518c-.244-.348-.622-.522-1.134-.522-.52 0-.904.176-1.152.528-.248.348-.372.852-.372 1.512s.124 1.164.372 1.512c.248.344.632.516 1.152.516ZM46.723 14.913V8.757h.87c.152 0 .258.028.318.084.06.056.1.152.12.288l.09.744c.22-.38.478-.68.774-.9.296-.22.628-.33.996-.33.304 0 .556.07.756.21l-.192 1.11c-.012.072-.038.124-.078.156a.278.278 0 0 1-.162.042 1.01 1.01 0 0 1-.246-.042 1.646 1.646 0 0 0-.414-.042c-.308 0-.572.086-.792.258-.22.168-.406.416-.558.744v3.834h-1.482ZM52.96 5.997v8.916h-1.482V5.997h1.482ZM58.732 14.913c-.192 0-.318-.09-.378-.27l-.12-.594a3.68 3.68 0 0 1-.402.39c-.14.116-.292.216-.456.3-.16.084-.334.148-.522.192a2.372 2.372 0 0 1-.6.072c-.336 0-.644-.07-.924-.21a2.098 2.098 0 0 1-.726-.606 3.033 3.033 0 0 1-.468-.99 5.072 5.072 0 0 1-.162-1.344c0-.456.062-.88.186-1.272s.302-.732.534-1.02c.232-.288.51-.512.834-.672a2.384 2.384 0 0 1 1.092-.246 2.103 2.103 0 0 1 1.536.606V5.997h1.482v8.916h-.906Zm-1.974-1.086c.308 0 .57-.064.786-.192.216-.128.42-.31.612-.546v-2.76a1.452 1.452 0 0 0-.552-.432 1.597 1.597 0 0 0-.636-.126c-.224 0-.428.042-.612.126a1.21 1.21 0 0 0-.462.384c-.124.168-.22.384-.288.648-.068.26-.102.568-.102.924 0 .36.028.666.084.918.06.248.144.452.252.612.108.156.24.27.396.342.156.068.33.102.522.102ZM16.331 20.757v6.156H14.85v-6.156h1.481Zm.223-1.794a.844.844 0 0 1-.078.36.963.963 0 0 1-.21.294.995.995 0 0 1-.3.204.963.963 0 0 1-.372.072.948.948 0 0 1-.367-.072 1.018 1.018 0 0 1-.498-.498.963.963 0 0 1 0-.732.995.995 0 0 1 .205-.3.929.929 0 0 1 .293-.198.899.899 0 0 1 .738 0 .912.912 0 0 1 .3.198.943.943 0 0 1 .288.672ZM17.771 26.913v-6.156h.906c.192 0 .318.09.378.27l.102.486a2.934 2.934 0 0 1 .828-.618c.156-.076.322-.134.498-.174.176-.04.368-.06.576-.06.336 0 .634.058.894.174.26.112.476.272.648.48.176.204.308.45.396.738.092.284.138.598.138.942v3.918h-1.482v-3.918c0-.376-.088-.666-.264-.87-.172-.208-.432-.312-.78-.312-.256 0-.496.058-.72.174a2.58 2.58 0 0 0-.636.474v4.452h-1.482ZM34.22 22.575c0 .636-.106 1.22-.318 1.752-.212.532-.51.99-.894 1.374a4 4 0 0 1-1.386.894 4.87 4.87 0 0 1-1.794.318h-3.312v-8.676h3.312a4.79 4.79 0 0 1 1.794.324 4 4 0 0 1 1.386.894c.384.38.682.836.894 1.368.212.532.318 1.116.318 1.752Zm-1.65 0c0-.476-.064-.902-.192-1.278a2.68 2.68 0 0 0-.546-.96 2.332 2.332 0 0 0-.864-.606 2.94 2.94 0 0 0-1.14-.21h-1.686v6.108h1.686c.424 0 .804-.07 1.14-.21.34-.14.628-.34.864-.6a2.75 2.75 0 0 0 .546-.96 4.01 4.01 0 0 0 .192-1.284ZM39.98 26.913h-.665c-.14 0-.25-.02-.33-.06-.08-.044-.14-.13-.18-.258l-.132-.438c-.156.14-.31.264-.462.372a2.804 2.804 0 0 1-.462.264c-.16.072-.33.126-.51.162-.18.036-.38.054-.6.054-.26 0-.5-.034-.72-.102a1.618 1.618 0 0 1-.57-.318 1.448 1.448 0 0 1-.366-.522 1.852 1.852 0 0 1-.132-.726c0-.232.06-.46.18-.684.124-.228.328-.432.612-.612.284-.184.662-.336 1.134-.456.472-.12 1.058-.188 1.758-.204v-.36c0-.412-.088-.716-.264-.912-.172-.2-.424-.3-.756-.3a1.837 1.837 0 0 0-1.02.276c-.116.068-.224.13-.324.186a.664.664 0 0 1-.33.084.429.429 0 0 1-.258-.078.614.614 0 0 1-.174-.192l-.27-.474c.708-.648 1.562-.972 2.562-.972.36 0 .68.06.96.18.284.116.524.28.72.492.196.208.344.458.444.75.104.292.156.612.156.96v3.888Zm-2.88-.924c.153 0 .293-.014.42-.042.129-.028.249-.07.36-.126.117-.056.227-.124.33-.204.109-.084.217-.182.325-.294v-1.038c-.432.02-.794.058-1.086.114-.288.052-.52.12-.696.204a.923.923 0 0 0-.378.294.664.664 0 0 0-.108.366c0 .26.076.446.228.558.156.112.358.168.606.168ZM43.22 27.01c-.532 0-.942-.15-1.23-.45-.288-.305-.432-.723-.432-1.255v-3.438h-.624a.31.31 0 0 1-.21-.078c-.056-.052-.084-.13-.084-.234v-.588l.99-.162.312-1.68a.302.302 0 0 1 .108-.186.365.365 0 0 1 .222-.066h.768v1.938h1.62v1.056h-1.62v3.336c0 .192.048.342.144.45a.488.488 0 0 0 .384.162c.092 0 .168-.01.228-.03.064-.024.118-.048.162-.072.048-.024.09-.046.126-.066a.194.194 0 0 1 .108-.036.16.16 0 0 1 .108.036c.028.02.058.052.09.096l.444.72c-.216.18-.464.316-.744.408a2.77 2.77 0 0 1-.87.138ZM50.423 26.913h-.666c-.14 0-.25-.02-.33-.06-.08-.044-.14-.13-.18-.258l-.132-.438c-.156.14-.31.264-.462.372a2.804 2.804 0 0 1-.462.264c-.16.072-.33.126-.51.162-.18.036-.38.054-.6.054-.26 0-.5-.034-.72-.102a1.618 1.618 0 0 1-.57-.318 1.448 1.448 0 0 1-.366-.522 1.852 1.852 0 0 1-.132-.726c0-.232.06-.46.18-.684.124-.228.328-.432.612-.612.284-.184.662-.336 1.134-.456.472-.12 1.058-.188 1.758-.204v-.36c0-.412-.088-.716-.264-.912-.172-.2-.424-.3-.756-.3a1.837 1.837 0 0 0-1.02.276c-.116.068-.224.13-.324.186a.664.664 0 0 1-.33.084.429.429 0 0 1-.258-.078.614.614 0 0 1-.174-.192l-.27-.474c.708-.648 1.562-.972 2.562-.972.36 0 .68.06.96.18.284.116.524.28.72.492.196.208.344.458.444.75.104.292.156.612.156.96v3.888Zm-2.88-.924c.152 0 .292-.014.42-.042.128-.028.248-.07.36-.126.116-.056.226-.124.33-.204.108-.084.216-.182.324-.294v-1.038c-.432.02-.794.058-1.086.114-.288.052-.52.12-.696.204a.923.923 0 0 0-.378.294.664.664 0 0 0-.108.366c0 .26.076.446.228.558.156.112.358.168.606.168Z"/></svg></g><a id="title" href="https://ourworldindata.org/grapher/cancer-death-rates-by-type" style="font-family:&#x27;Playfair Display&#x27;, Georgia, &#x27;Times New Roman&#x27;, &#x27;Liberation Serif&#x27;, serif" target="_blank" rel="noopener"><text font-size="24.75" font-weight="600" x="16.0" y="40.0" fill="#5b5b5b"><tspan x="16" y="40.0075">Cancer death rate by type, World</tspan></text></a><g id="subtitle" class="markdown-text-wrap"><text x="16.0" y="63.9" style="font-size:14.625px;line-height:1.2" fill="#5b5b5b"><tspan x="16" y="63.9">Estimated number of deaths from different types of <tspan class="dod-span" data-id="cancer">cancer</tspan> per 100,000 people.</tspan></text></g></g><g id="chart-area" style="pointer-events:none"><g id="horizontal-axis" class="HorizontalAxis"><g id="tick-marks"><line id="1980" x1="36.1" y1="512.6" x2="36.1" y2="518.1" stroke="#999" stroke-width="1"></line><line id="2021" x1="622" y1="512.6" x2="622" y2="518.1" stroke="#999" stroke-width="1"></line><line id="1985" x1="107.6" y1="512.6" x2="107.6" y2="518.1" stroke="#999" stroke-width="1"></line><line id="1990" x1="179" y1="512.6" x2="179" y2="518.1" stroke="#999" stroke-width="1"></line><line id="1995" x1="250.5" y1="512.6" x2="250.5" y2="518.1" stroke="#999" stroke-width="1"></line><line id="2000" x1="321.9" y1="512.6" x2="321.9" y2="518.1" stroke="#999" stroke-width="1"></line><line id="2005" x1="393.4" y1="512.6" x2="393.4" y2="518.1" stroke="#999" stroke-width="1"></line><line id="2010" x1="464.8" y1="512.6" x2="464.8" y2="518.1" stroke="#999" stroke-width="1"></line><line id="2015" x1="536.2" y1="512.6" x2="536.2" y2="518.1" stroke="#999" stroke-width="1"></line></g><g id="tick-labels"><text x="36.120000000000005" y="531.6" fill="#5b5b5b" text-anchor="start" font-size="13.5">1980</text><text x="621.98" y="531.6" fill="#5b5b5b" text-anchor="end" font-size="13.5">2021</text><text x="107.6" y="531.6" fill="#5b5b5b" text-anchor="middle" font-size="13.5">1985</text><text x="179" y="531.6" fill="#5b5b5b" text-anchor="middle" font-size="13.5">1990</text><text x="250.5" y="531.6" fill="#5b5b5b" text-anchor="middle" font-size="13.5">1995</text><text x="321.9" y="531.6" fill="#5b5b5b" text-anchor="middle" font-size="13.5">2000</text><text x="393.4" y="531.6" fill="#5b5b5b" text-anchor="middle" font-size="13.5">2005</text><text x="464.8" y="531.6" fill="#5b5b5b" text-anchor="middle" font-size="13.5">2010</text><text x="536.2" y="531.6" fill="#5b5b5b" text-anchor="middle" font-size="13.5">2015</text></g></g><g id="vertical-axis" class="VerticalAxis"><g id="tick-labels"><text x="31.12" y="513.1" dy=".32em" text-anchor="end" fill="#5b5b5b" font-size="13.5">0</text><text x="31.12" y="436.4" dy=".32em" text-anchor="end" fill="#5b5b5b" font-size="13.5">5</text><text x="31.12" y="359.7" dy=".32em" text-anchor="end" fill="#5b5b5b" font-size="13.5">10</text><text x="31.12" y="282.9" dy=".32em" text-anchor="end" fill="#5b5b5b" font-size="13.5">15</text><text x="31.12" y="206.2" dy=".32em" text-anchor="end" fill="#5b5b5b" font-size="13.5">20</text><text x="31.12" y="129.5" dy=".32em" text-anchor="end" fill="#5b5b5b" font-size="13.5">25</text></g></g><g id="horizontal-grid-lines" class="AxisGridLines horizontalLines"><line id="0" x1="36.12" y1="513.1" x2="621.98" y2="513.1" stroke="#999" stroke-width="1"></line><line id="5" x1="36.12" y1="436.4" x2="621.98" y2="436.4" stroke="#ddd" stroke-width="1" stroke-dasharray="3,2"></line><line id="10" x1="36.12" y1="359.7" x2="621.98" y2="359.7" stroke="#ddd" stroke-width="1" stroke-dasharray="3,2"></line><line id="15" x1="36.12" y1="282.9" x2="621.98" y2="282.9" stroke="#ddd" stroke-width="1" stroke-dasharray="3,2"></line><line id="20" x1="36.12" y1="206.2" x2="621.98" y2="206.2" stroke="#ddd" stroke-width="1" stroke-dasharray="3,2"></line><line id="25" x1="36.12" y1="129.5" x2="621.98" y2="129.5" stroke="#ddd" stroke-width="1" stroke-dasharray="3,2"></line></g><g id="line-labels" class="LineLabels"><g id="connectors"></g><g id="text-annotations"></g><g id="text-values"></g><g id="text-labels"></g><g id="connectors"><path id="Lung,-trachea-and-bronchus" d="M625.98,152.5 H639.48 V152.5 H652.98" stroke="#999" stroke-width="0.5" fill="none"></path><path id="Colon-and-rectum" d="M625.98,322.9 H639.48 V322.9 H652.98" stroke="#999" stroke-width="0.5" fill="none"></path><path id="Stomach" d="M625.98,341.3 H639.48 V341.3 H652.98" stroke="#999" stroke-width="0.5" fill="none"></path><path id="Breast" d="M625.98,391.9 H636.78 V382.5571428571429 H652.98" stroke="#999" stroke-width="0.5" fill="none"></path><path id="Esophagus" d="M625.98,417.1 H642.18 V398.0571428571429 H652.98" stroke="#999" stroke-width="0.5" fill="none"></path><path id="Pancreas" d="M625.98,421.8 H647.58 V413.5571428571429 H652.98" stroke="#999" stroke-width="0.5" fill="none"></path><path id="Liver" d="M625.98,426.5 H647.58 V429.0571428571429 H652.98" stroke="#999" stroke-width="0.5" fill="none"></path><path id="Prostate" d="M625.98,432.4 H642.18 V444.5571428571429 H652.98" stroke="#999" stroke-width="0.5" fill="none"></path><path id="Leukemia" d="M625.98,453.4 H636.78 V460.0571428571429 H652.98" stroke="#999" stroke-width="0.5" fill="none"></path><path id="Cervix" d="M625.98,460.3 H631.38 V475.5571428571429 H652.98" stroke="#999" stroke-width="0.5" fill="none"></path></g><g id="text-annotations"></g><g id="text-values"></g><g id="text-labels"><text font-size="13.50" font-weight="400" x="657.0" y="157.5" fill="#00295b" opacity="1" text-anchor="start"><tspan x="656.98" y="157.495">Lung, trachea and bronchus</tspan></text><text font-size="13.50" font-weight="400" x="657.0" y="327.9" fill="#a2559c" opacity="1" text-anchor="start"><tspan x="656.98" y="327.895">Colon and rectum</tspan></text><text font-size="13.50" font-weight="400" x="657.0" y="346.3" fill="#2c8465" opacity="1" text-anchor="start"><tspan x="656.98" y="346.295">Stomach</tspan></text><text font-size="13.50" font-weight="400" x="657.0" y="387.6" fill="#b13507" opacity="1" text-anchor="start"><tspan x="656.98" y="387.5521428571429">Breast</tspan></text><text font-size="13.50" font-weight="400" x="657.0" y="403.1" fill="#6d3e91" opacity="1" text-anchor="start"><tspan x="656.98" y="403.0521428571429">Esophagus</tspan></text><text font-size="13.50" font-weight="400" x="657.0" y="418.6" fill="#883039" opacity="1" text-anchor="start"><tspan x="656.98" y="418.5521428571429">Pancreas</tspan></text><text font-size="13.50" font-weight="400" x="657.0" y="434.1" fill="#9a5129" opacity="1" text-anchor="start"><tspan x="656.98" y="434.0521428571429">Liver</tspan></text><text font-size="13.50" font-weight="400" x="657.0" y="449.6" fill="#4c6a9c" opacity="1" text-anchor="start"><tspan x="656.98" y="449.5521428571429">Prostate</tspan></text><text font-size="13.50" font-weight="400" x="657.0" y="465.1" fill="#008291" opacity="1" text-anchor="start"><tspan x="656.98" y="465.0521428571429">Leukemia</tspan></text><text font-size="13.50" font-weight="400" x="657.0" y="480.6" fill="#996d39" opacity="1" text-anchor="start"><tspan x="656.98" y="480.5521428571429">Cervix</tspan></text></g></g><g id="lines"><path fill="none" stroke-linecap="butt" stroke-linejoin="round" stroke="#ffffff" stroke-width="2.5" id="outline__Leukemia" d="M36.1 421.8L50.4 422.8L64.7 423.8L79 424.3L93.3 424.5L107.6 424.8L121.9 425.8L136.1 426.2L150.4 426.6L164.7 426.8L179 427.7L193.3 428.2L207.6 428.8L221.9 429.4L236.2 430L250.5 430.7L264.7 431.7L279 432.8L293.3 433.4L307.6 433.8L321.9 434.3L336.2 435.1L350.5 436.1L364.8 437L379.1 438.2L393.4 439.2L407.6 440.8L421.9 441.9L436.2 442.6L450.5 443.3L464.8 444.2L479.1 445L493.4 446L507.7 446.8L522 447.7L536.2 448.3L550.5 448.9L564.8 449.6L579.1 450.3L593.4 451.1L607.7 452.5L622 453.4"></path><path fill="none" stroke-linecap="butt" stroke-linejoin="round" stroke="#008291" stroke-width="1.5" id="line__Leukemia" d="M36.1 421.8L50.4 422.8L64.7 423.8L79 424.3L93.3 424.5L107.6 424.8L121.9 425.8L136.1 426.2L150.4 426.6L164.7 426.8L179 427.7L193.3 428.2L207.6 428.8L221.9 429.4L236.2 430L250.5 430.7L264.7 431.7L279 432.8L293.3 433.4L307.6 433.8L321.9 434.3L336.2 435.1L350.5 436.1L364.8 437L379.1 438.2L393.4 439.2L407.6 440.8L421.9 441.9L436.2 442.6L450.5 443.3L464.8 444.2L479.1 445L493.4 446L507.7 446.8L522 447.7L536.2 448.3L550.5 448.9L564.8 449.6L579.1 450.3L593.4 451.1L607.7 452.5L622 453.4"></path><path fill="none" stroke-linecap="butt" stroke-linejoin="round" stroke="#ffffff" stroke-width="2.5" id="outline__Liver" d="M36.1 418.4L50.4 419.6L64.7 420.6L79 421.5L93.3 422.8L107.6 423.5L121.9 424.7L136.1 424.1L150.4 423.9L164.7 423.1L179 423.1L193.3 422.8L207.6 422.3L221.9 421.6L236.2 420.3L250.5 417.8L264.7 416.7L279 416.8L293.3 415.7L307.6 414.5L321.9 413.7L336.2 414.2L350.5 415.4L364.8 417.5L379.1 419.6L393.4 420.6L407.6 421.7L421.9 421.8L436.2 420.7L450.5 420.7L464.8 420.7L479.1 421.7L493.4 422.4L507.7 421.9L522 420.9L536.2 421.1L550.5 422.1L564.8 423.2L579.1 423.9L593.4 425.3L607.7 426.1L622 426.5"></path><path fill="none" stroke-linecap="butt" stroke-linejoin="round" stroke="#9A5129" stroke-width="1.5" id="line__Liver" d="M36.1 418.4L50.4 419.6L64.7 420.6L79 421.5L93.3 422.8L107.6 423.5L121.9 424.7L136.1 424.1L150.4 423.9L164.7 423.1L179 423.1L193.3 422.8L207.6 422.3L221.9 421.6L236.2 420.3L250.5 417.8L264.7 416.7L279 416.8L293.3 415.7L307.6 414.5L321.9 413.7L336.2 414.2L350.5 415.4L364.8 417.5L379.1 419.6L393.4 420.6L407.6 421.7L421.9 421.8L436.2 420.7L450.5 420.7L464.8 420.7L479.1 421.7L493.4 422.4L507.7 421.9L522 420.9L536.2 421.1L550.5 422.1L564.8 423.2L579.1 423.9L593.4 425.3L607.7 426.1L622 426.5"></path><path fill="none" stroke-linecap="butt" stroke-linejoin="round" stroke="#ffffff" stroke-width="2.5" id="outline__Colon-and-rectum" d="M36.1 267.2L50.4 268.9L64.7 271.2L79 271.2L93.3 270.1L107.6 269.9L121.9 272.6L136.1 272.1L150.4 272.6L164.7 272.6L179 274.3L193.3 275.5L207.6 275.8L221.9 275.7L236.2 276.9L250.5 278.5L264.7 281.1L279 283.7L293.3 285.2L307.6 286L321.9 287.3L336.2 289L350.5 290.7L364.8 291.7L379.1 294.2L393.4 296.5L407.6 301.3L421.9 303.8L436.2 304.4L450.5 306.9L464.8 307.9L479.1 309.4L493.4 311.5L507.7 313.8L522 315.8L536.2 316.1L550.5 316.4L564.8 318.1L579.1 318.8L593.4 319.6L607.7 322L622 322.9"></path><path fill="none" stroke-linecap="butt" stroke-linejoin="round" stroke="#A2559C" stroke-width="1.5" id="line__Colon-and-rectum" d="M36.1 267.2L50.4 268.9L64.7 271.2L79 271.2L93.3 270.1L107.6 269.9L121.9 272.6L136.1 272.1L150.4 272.6L164.7 272.6L179 274.3L193.3 275.5L207.6 275.8L221.9 275.7L236.2 276.9L250.5 278.5L264.7 281.1L279 283.7L293.3 285.2L307.6 286L321.9 287.3L336.2 289L350.5 290.7L364.8 291.7L379.1 294.2L393.4 296.5L407.6 301.3L421.9 303.8L436.2 304.4L450.5 306.9L464.8 307.9L479.1 309.4L493.4 311.5L507.7 313.8L522 315.8L536.2 316.1L550.5 316.4L564.8 318.1L579.1 318.8L593.4 319.6L607.7 322L622 322.9"></path><path fill="none" stroke-linecap="butt" stroke-linejoin="round" stroke="#ffffff" stroke-width="2.5" id="outline__Lung,-trachea-and-bronchus" d="M36.1 108.7L50.4 108.8L64.7 108.9L79 106.3L93.3 103.3L107.6 97.9L121.9 102.3L136.1 97.3L150.4 94.7L164.7 92.2L179 90L193.3 91.2L207.6 91.1L221.9 89.3L236.2 90.7L250.5 89.3L264.7 93.8L279 97.5L293.3 98.5L307.6 98.4L321.9 95.6L336.2 97.1L350.5 98.3L364.8 98.3L379.1 98.2L393.4 100.9L407.6 109.2L421.9 112.6L436.2 112.8L450.5 113.3L464.8 116.1L479.1 118.1L493.4 121.7L507.7 126.6L522 131L536.2 135.5L550.5 137L564.8 142.6L579.1 146.3L593.4 149L607.7 151.9L622 152.5"></path><path fill="none" stroke-linecap="butt" stroke-linejoin="round" stroke="#00295B" stroke-width="1.5" id="line__Lung,-trachea-and-bronchus" d="M36.1 108.7L50.4 108.8L64.7 108.9L79 106.3L93.3 103.3L107.6 97.9L121.9 102.3L136.1 97.3L150.4 94.7L164.7 92.2L179 90L193.3 91.2L207.6 91.1L221.9 89.3L236.2 90.7L250.5 89.3L264.7 93.8L279 97.5L293.3 98.5L307.6 98.4L321.9 95.6L336.2 97.1L350.5 98.3L364.8 98.3L379.1 98.2L393.4 100.9L407.6 109.2L421.9 112.6L436.2 112.8L450.5 113.3L464.8 116.1L479.1 118.1L493.4 121.7L507.7 126.6L522 131L536.2 135.5L550.5 137L564.8 142.6L579.1 146.3L593.4 149L607.7 151.9L622 152.5"></path><path fill="none" stroke-linecap="butt" stroke-linejoin="round" stroke="#ffffff" stroke-width="2.5" id="outline__Pancreas" d="M36.1 428.6L50.4 428.8L64.7 429.2L79 428.8L93.3 428L107.6 427.3L121.9 427.6L136.1 426.8L150.4 426.5L164.7 426.2L179 426.3L193.3 426.2L207.6 425.9L221.9 425.3L236.2 425.1L250.5 425.4L264.7 425.7L279 426L293.3 426L307.6 425.9L321.9 425.3L336.2 425.4L350.5 425.4L364.8 425.1L379.1 424.7L393.4 424.1L407.6 424.3L421.9 423.9L436.2 423.3L450.5 423.1L464.8 422.5L479.1 422.3L493.4 422.2L507.7 422.5L522 422.5L536.2 422.2L550.5 421.4L564.8 421.2L579.1 420.8L593.4 420.6L607.7 421.6L622 421.8"></path><path fill="none" stroke-linecap="butt" stroke-linejoin="round" stroke="#883039" stroke-width="1.5" id="line__Pancreas" d="M36.1 428.6L50.4 428.8L64.7 429.2L79 428.8L93.3 428L107.6 427.3L121.9 427.6L136.1 426.8L150.4 426.5L164.7 426.2L179 426.3L193.3 426.2L207.6 425.9L221.9 425.3L236.2 425.1L250.5 425.4L264.7 425.7L279 426L293.3 426L307.6 425.9L321.9 425.3L336.2 425.4L350.5 425.4L364.8 425.1L379.1 424.7L393.4 424.1L407.6 424.3L421.9 423.9L436.2 423.3L450.5 423.1L464.8 422.5L479.1 422.3L493.4 422.2L507.7 422.5L522 422.5L536.2 422.2L550.5 421.4L564.8 421.2L579.1 420.8L593.4 420.6L607.7 421.6L622 421.8"></path><path fill="none" stroke-linecap="butt" stroke-linejoin="round" stroke="#ffffff" stroke-width="2.5" id="outline__Esophagus" d="M36.1 367.4L50.4 368.5L64.7 370.1L79 371.1L93.3 372.2L107.6 373.6L121.9 375.7L136.1 374.6L150.4 374.3L164.7 373.3L179 374.7L193.3 375.6L207.6 376.4L221.9 377L236.2 377.9L250.5 378.6L264.7 380.4L279 382L293.3 382.6L307.6 382.9L321.9 381.9L336.2 382L350.5 383L364.8 382.7L379.1 383L393.4 386L407.6 392.3L421.9 396.2L436.2 398.8L450.5 401L464.8 403L479.1 405.7L493.4 408.6L507.7 411.3L522 413.8L536.2 414.9L550.5 415.5L564.8 416.7L579.1 416.9L593.4 416.8L607.7 417.1L622 417.1"></path><path fill="none" stroke-linecap="butt" stroke-linejoin="round" stroke="#6D3E91" stroke-width="1.5" id="line__Esophagus" d="M36.1 367.4L50.4 368.5L64.7 370.1L79 371.1L93.3 372.2L107.6 373.6L121.9 375.7L136.1 374.6L150.4 374.3L164.7 373.3L179 374.7L193.3 375.6L207.6 376.4L221.9 377L236.2 377.9L250.5 378.6L264.7 380.4L279 382L293.3 382.6L307.6 382.9L321.9 381.9L336.2 382L350.5 383L364.8 382.7L379.1 383L393.4 386L407.6 392.3L421.9 396.2L436.2 398.8L450.5 401L464.8 403L479.1 405.7L493.4 408.6L507.7 411.3L522 413.8L536.2 414.9L550.5 415.5L564.8 416.7L579.1 416.9L593.4 416.8L607.7 417.1L622 417.1"></path><path fill="none" stroke-linecap="butt" stroke-linejoin="round" stroke="#ffffff" stroke-width="2.5" id="outline__Stomach" d="M36.1 102.5L50.4 110.3L64.7 119.7L79 125.3L93.3 132.1L107.6 143.1L121.9 155.6L136.1 158.5L150.4 163.5L164.7 166.6L179 175.4L193.3 182.6L207.6 188.7L221.9 194.5L236.2 200.9L250.5 207.6L264.7 215.6L279 223.1L293.3 228.1L307.6 232.1L321.9 234.8L336.2 238.9L350.5 242.5L364.8 244.7L379.1 248L393.4 256.4L407.6 270.2L421.9 278.6L436.2 283.9L450.5 288.8L464.8 293.7L479.1 300.5L493.4 306.7L507.7 312.4L522 318.5L536.2 322.7L550.5 325.7L564.8 330.3L579.1 333.4L593.4 336.3L607.7 339.2L622 341.3"></path><path fill="none" stroke-linecap="butt" stroke-linejoin="round" stroke="#2C8465" stroke-width="1.5" id="line__Stomach" d="M36.1 102.5L50.4 110.3L64.7 119.7L79 125.3L93.3 132.1L107.6 143.1L121.9 155.6L136.1 158.5L150.4 163.5L164.7 166.6L179 175.4L193.3 182.6L207.6 188.7L221.9 194.5L236.2 200.9L250.5 207.6L264.7 215.6L279 223.1L293.3 228.1L307.6 232.1L321.9 234.8L336.2 238.9L350.5 242.5L364.8 244.7L379.1 248L393.4 256.4L407.6 270.2L421.9 278.6L436.2 283.9L450.5 288.8L464.8 293.7L479.1 300.5L493.4 306.7L507.7 312.4L522 318.5L536.2 322.7L550.5 325.7L564.8 330.3L579.1 333.4L593.4 336.3L607.7 339.2L622 341.3"></path><path fill="none" stroke-linecap="butt" stroke-linejoin="round" stroke="#ffffff" stroke-width="2.5" id="outline__Cervix" d="M36.1 421.6L50.4 423L64.7 425.1L79 426.2L93.3 427.4L107.6 428.6L121.9 430.6L136.1 431.6L150.4 432.7L164.7 433.7L179 435.3L193.3 436.7L207.6 437.5L221.9 438.6L236.2 439.6L250.5 440.8L264.7 442L279 443.1L293.3 444.3L307.6 445.3L321.9 446.6L336.2 447.9L350.5 448.6L364.8 449.1L379.1 450.2L393.4 451.4L407.6 452.7L421.9 453.9L436.2 454.8L450.5 455.7L464.8 456.4L479.1 456.9L493.4 457.4L507.7 457.8L522 457.9L536.2 457.9L550.5 457.8L564.8 458.1L579.1 458.5L593.4 459.2L607.7 459.9L622 460.3"></path><path fill="none" stroke-linecap="butt" stroke-linejoin="round" stroke="#996D39" stroke-width="1.5" id="line__Cervix" d="M36.1 421.6L50.4 423L64.7 425.1L79 426.2L93.3 427.4L107.6 428.6L121.9 430.6L136.1 431.6L150.4 432.7L164.7 433.7L179 435.3L193.3 436.7L207.6 437.5L221.9 438.6L236.2 439.6L250.5 440.8L264.7 442L279 443.1L293.3 444.3L307.6 445.3L321.9 446.6L336.2 447.9L350.5 448.6L364.8 449.1L379.1 450.2L393.4 451.4L407.6 452.7L421.9 453.9L436.2 454.8L450.5 455.7L464.8 456.4L479.1 456.9L493.4 457.4L507.7 457.8L522 457.9L536.2 457.9L550.5 457.8L564.8 458.1L579.1 458.5L593.4 459.2L607.7 459.9L622 460.3"></path><path fill="none" stroke-linecap="butt" stroke-linejoin="round" stroke="#ffffff" stroke-width="2.5" id="outline__Breast" d="M36.1 373.7L50.4 373.8L64.7 374.6L79 374.3L93.3 372.9L107.6 371.8L121.9 372.4L136.1 371.8L150.4 371.7L164.7 371.7L179 372.6L193.3 372.7L207.6 372.5L221.9 371.6L236.2 371.6L250.5 372.1L264.7 373.4L279 375.1L293.3 376.2L307.6 376.4L321.9 377.3L336.2 378.3L350.5 379.3L364.8 380.2L379.1 382.1L393.4 383.3L407.6 385L421.9 386.2L436.2 386.7L450.5 387.7L464.8 388.3L479.1 389.2L493.4 390L507.7 390.7L522 391.2L536.2 390.8L550.5 390.3L564.8 390.5L579.1 390.3L593.4 390.6L607.7 391.8L622 391.9"></path><path fill="none" stroke-linecap="butt" stroke-linejoin="round" stroke="#B13507" stroke-width="1.5" id="line__Breast" d="M36.1 373.7L50.4 373.8L64.7 374.6L79 374.3L93.3 372.9L107.6 371.8L121.9 372.4L136.1 371.8L150.4 371.7L164.7 371.7L179 372.6L193.3 372.7L207.6 372.5L221.9 371.6L236.2 371.6L250.5 372.1L264.7 373.4L279 375.1L293.3 376.2L307.6 376.4L321.9 377.3L336.2 378.3L350.5 379.3L364.8 380.2L379.1 382.1L393.4 383.3L407.6 385L421.9 386.2L436.2 386.7L450.5 387.7L464.8 388.3L479.1 389.2L493.4 390L507.7 390.7L522 391.2L536.2 390.8L550.5 390.3L564.8 390.5L579.1 390.3L593.4 390.6L607.7 391.8L622 391.9"></path><path fill="none" stroke-linecap="butt" stroke-linejoin="round" stroke="#ffffff" stroke-width="2.5" id="outline__Prostate" d="M36.1 423.4L50.4 423.3L64.7 423L79 422.3L93.3 421.4L107.6 420.2L121.9 419.3L136.1 418.4L150.4 417.5L164.7 416.8L179 416L193.3 415.1L207.6 413.9L221.9 413L236.2 412.2L250.5 412.3L264.7 412.4L279 413.3L293.3 413.7L307.6 414.5L321.9 415L336.2 415.5L350.5 416.1L364.8 416.9L379.1 418.2L393.4 419.7L407.6 421L421.9 422.1L436.2 423L450.5 424.2L464.8 425.3L479.1 426.3L493.4 427.8L507.7 429.3L522 429.5L536.2 429.5L550.5 429.2L564.8 430L579.1 430.2L593.4 430.4L607.7 431.2L622 432.4"></path><path fill="none" stroke-linecap="butt" stroke-linejoin="round" stroke="#4C6A9C" stroke-width="1.5" id="line__Prostate" d="M36.1 423.4L50.4 423.3L64.7 423L79 422.3L93.3 421.4L107.6 420.2L121.9 419.3L136.1 418.4L150.4 417.5L164.7 416.8L179 416L193.3 415.1L207.6 413.9L221.9 413L236.2 412.2L250.5 412.3L264.7 412.4L279 413.3L293.3 413.7L307.6 414.5L321.9 415L336.2 415.5L350.5 416.1L364.8 416.9L379.1 418.2L393.4 419.7L407.6 421L421.9 422.1L436.2 423L450.5 424.2L464.8 425.3L479.1 426.3L493.4 427.8L507.7 429.3L522 429.5L536.2 429.5L550.5 429.2L564.8 430L579.1 430.2L593.4 430.4L607.7 431.2L622 432.4"></path></g><g id="markers"><g id="markers__Leukemia"><circle id="1980" cx="36.1" cy="421.8" r="1.8" fill="#008291"></circle><circle id="1981" cx="50.4" cy="422.8" r="1.8" fill="#008291"></circle><circle id="1982" cx="64.7" cy="423.8" r="1.8" fill="#008291"></circle><circle id="1983" cx="79" cy="424.3" r="1.8" fill="#008291"></circle><circle id="1984" cx="93.3" cy="424.5" r="1.8" fill="#008291"></circle><circle id="1985" cx="107.6" cy="424.8" r="1.8" fill="#008291"></circle><circle id="1986" cx="121.9" cy="425.8" r="1.8" fill="#008291"></circle><circle id="1987" cx="136.1" cy="426.2" r="1.8" fill="#008291"></circle><circle id="1988" cx="150.4" cy="426.6" r="1.8" fill="#008291"></circle><circle id="1989" cx="164.7" cy="426.8" r="1.8" fill="#008291"></circle><circle id="1990" cx="179" cy="427.7" r="1.8" fill="#008291"></circle><circle id="1991" cx="193.3" cy="428.2" r="1.8" fill="#008291"></circle><circle id="1992" cx="207.6" cy="428.8" r="1.8" fill="#008291"></circle><circle id="1993" cx="221.9" cy="429.4" r="1.8" fill="#008291"></circle><circle id="1994" cx="236.2" cy="430" r="1.8" fill="#008291"></circle><circle id="1995" cx="250.5" cy="430.7" r="1.8" fill="#008291"></circle><circle id="1996" cx="264.7" cy="431.7" r="1.8" fill="#008291"></circle><circle id="1997" cx="279" cy="432.8" r="1.8" fill="#008291"></circle><circle id="1998" cx="293.3" cy="433.4" r="1.8" fill="#008291"></circle><circle id="1999" cx="307.6" cy="433.8" r="1.8" fill="#008291"></circle><circle id="2000" cx="321.9" cy="434.3" r="1.8" fill="#008291"></circle><circle id="2001" cx="336.2" cy="435.1" r="1.8" fill="#008291"></circle><circle id="2002" cx="350.5" cy="436.1" r="1.8" fill="#008291"></circle><circle id="2003" cx="364.8" cy="437" r="1.8" fill="#008291"></circle><circle id="2004" cx="379.1" cy="438.2" r="1.8" fill="#008291"></circle><circle id="2005" cx="393.4" cy="439.2" r="1.8" fill="#008291"></circle><circle id="2006" cx="407.6" cy="440.8" r="1.8" fill="#008291"></circle><circle id="2007" cx="421.9" cy="441.9" r="1.8" fill="#008291"></circle><circle id="2008" cx="436.2" cy="442.6" r="1.8" fill="#008291"></circle><circle id="2009" cx="450.5" cy="443.3" r="1.8" fill="#008291"></circle><circle id="2010" cx="464.8" cy="444.2" r="1.8" fill="#008291"></circle><circle id="2011" cx="479.1" cy="445" r="1.8" fill="#008291"></circle><circle id="2012" cx="493.4" cy="446" r="1.8" fill="#008291"></circle><circle id="2013" cx="507.7" cy="446.8" r="1.8" fill="#008291"></circle><circle id="2014" cx="522" cy="447.7" r="1.8" fill="#008291"></circle><circle id="2015" cx="536.2" cy="448.3" r="1.8" fill="#008291"></circle><circle id="2016" cx="550.5" cy="448.9" r="1.8" fill="#008291"></circle><circle id="2017" cx="564.8" cy="449.6" r="1.8" fill="#008291"></circle><circle id="2018" cx="579.1" cy="450.3" r="1.8" fill="#008291"></circle><circle id="2019" cx="593.4" cy="451.1" r="1.8" fill="#008291"></circle><circle id="2020" cx="607.7" cy="452.5" r="1.8" fill="#008291"></circle><circle id="2021" cx="622" cy="453.4" r="1.8" fill="#008291"></circle></g><g id="markers__Liver"><circle id="1980" cx="36.1" cy="418.4" r="1.8" fill="#9A5129"></circle><circle id="1981" cx="50.4" cy="419.6" r="1.8" fill="#9A5129"></circle><circle id="1982" cx="64.7" cy="420.6" r="1.8" fill="#9A5129"></circle><circle id="1983" cx="79" cy="421.5" r="1.8" fill="#9A5129"></circle><circle id="1984" cx="93.3" cy="422.8" r="1.8" fill="#9A5129"></circle><circle id="1985" cx="107.6" cy="423.5" r="1.8" fill="#9A5129"></circle><circle id="1986" cx="121.9" cy="424.7" r="1.8" fill="#9A5129"></circle><circle id="1987" cx="136.1" cy="424.1" r="1.8" fill="#9A5129"></circle><circle id="1988" cx="150.4" cy="423.9" r="1.8" fill="#9A5129"></circle><circle id="1989" cx="164.7" cy="423.1" r="1.8" fill="#9A5129"></circle><circle id="1990" cx="179" cy="423.1" r="1.8" fill="#9A5129"></circle><circle id="1991" cx="193.3" cy="422.8" r="1.8" fill="#9A5129"></circle><circle id="1992" cx="207.6" cy="422.3" r="1.8" fill="#9A5129"></circle><circle id="1993" cx="221.9" cy="421.6" r="1.8" fill="#9A5129"></circle><circle id="1994" cx="236.2" cy="420.3" r="1.8" fill="#9A5129"></circle><circle id="1995" cx="250.5" cy="417.8" r="1.8" fill="#9A5129"></circle><circle id="1996" cx="264.7" cy="416.7" r="1.8" fill="#9A5129"></circle><circle id="1997" cx="279" cy="416.8" r="1.8" fill="#9A5129"></circle><circle id="1998" cx="293.3" cy="415.7" r="1.8" fill="#9A5129"></circle><circle id="1999" cx="307.6" cy="414.5" r="1.8" fill="#9A5129"></circle><circle id="2000" cx="321.9" cy="413.7" r="1.8" fill="#9A5129"></circle><circle id="2001" cx="336.2" cy="414.2" r="1.8" fill="#9A5129"></circle><circle id="2002" cx="350.5" cy="415.4" r="1.8" fill="#9A5129"></circle><circle id="2003" cx="364.8" cy="417.5" r="1.8" fill="#9A5129"></circle><circle id="2004" cx="379.1" cy="419.6" r="1.8" fill="#9A5129"></circle><circle id="2005" cx="393.4" cy="420.6" r="1.8" fill="#9A5129"></circle><circle id="2006" cx="407.6" cy="421.7" r="1.8" fill="#9A5129"></circle><circle id="2007" cx="421.9" cy="421.8" r="1.8" fill="#9A5129"></circle><circle id="2008" cx="436.2" cy="420.7" r="1.8" fill="#9A5129"></circle><circle id="2009" cx="450.5" cy="420.7" r="1.8" fill="#9A5129"></circle><circle id="2010" cx="464.8" cy="420.7" r="1.8" fill="#9A5129"></circle><circle id="2011" cx="479.1" cy="421.7" r="1.8" fill="#9A5129"></circle><circle id="2012" cx="493.4" cy="422.4" r="1.8" fill="#9A5129"></circle><circle id="2013" cx="507.7" cy="421.9" r="1.8" fill="#9A5129"></circle><circle id="2014" cx="522" cy="420.9" r="1.8" fill="#9A5129"></circle><circle id="2015" cx="536.2" cy="421.1" r="1.8" fill="#9A5129"></circle><circle id="2016" cx="550.5" cy="422.1" r="1.8" fill="#9A5129"></circle><circle id="2017" cx="564.8" cy="423.2" r="1.8" fill="#9A5129"></circle><circle id="2018" cx="579.1" cy="423.9" r="1.8" fill="#9A5129"></circle><circle id="2019" cx="593.4" cy="425.3" r="1.8" fill="#9A5129"></circle><circle id="2020" cx="607.7" cy="426.1" r="1.8" fill="#9A5129"></circle><circle id="2021" cx="622" cy="426.5" r="1.8" fill="#9A5129"></circle></g><g id="markers__Colon-and-rectum"><circle id="1980" cx="36.1" cy="267.2" r="1.8" fill="#A2559C"></circle><circle id="1981" cx="50.4" cy="268.9" r="1.8" fill="#A2559C"></circle><circle id="1982" cx="64.7" cy="271.2" r="1.8" fill="#A2559C"></circle><circle id="1983" cx="79" cy="271.2" r="1.8" fill="#A2559C"></circle><circle id="1984" cx="93.3" cy="270.1" r="1.8" fill="#A2559C"></circle><circle id="1985" cx="107.6" cy="269.9" r="1.8" fill="#A2559C"></circle><circle id="1986" cx="121.9" cy="272.6" r="1.8" fill="#A2559C"></circle><circle id="1987" cx="136.1" cy="272.1" r="1.8" fill="#A2559C"></circle><circle id="1988" cx="150.4" cy="272.6" r="1.8" fill="#A2559C"></circle><circle id="1989" cx="164.7" cy="272.6" r="1.8" fill="#A2559C"></circle><circle id="1990" cx="179" cy="274.3" r="1.8" fill="#A2559C"></circle><circle id="1991" cx="193.3" cy="275.5" r="1.8" fill="#A2559C"></circle><circle id="1992" cx="207.6" cy="275.8" r="1.8" fill="#A2559C"></circle><circle id="1993" cx="221.9" cy="275.7" r="1.8" fill="#A2559C"></circle><circle id="1994" cx="236.2" cy="276.9" r="1.8" fill="#A2559C"></circle><circle id="1995" cx="250.5" cy="278.5" r="1.8" fill="#A2559C"></circle><circle id="1996" cx="264.7" cy="281.1" r="1.8" fill="#A2559C"></circle><circle id="1997" cx="279" cy="283.7" r="1.8" fill="#A2559C"></circle><circle id="1998" cx="293.3" cy="285.2" r="1.8" fill="#A2559C"></circle><circle id="1999" cx="307.6" cy="286" r="1.8" fill="#A2559C"></circle><circle id="2000" cx="321.9" cy="287.3" r="1.8" fill="#A2559C"></circle><circle id="2001" cx="336.2" cy="289" r="1.8" fill="#A2559C"></circle><circle id="2002" cx="350.5" cy="290.7" r="1.8" fill="#A2559C"></circle><circle id="2003" cx="364.8" cy="291.7" r="1.8" fill="#A2559C"></circle><circle id="2004" cx="379.1" cy="294.2" r="1.8" fill="#A2559C"></circle><circle id="2005" cx="393.4" cy="296.5" r="1.8" fill="#A2559C"></circle><circle id="2006" cx="407.6" cy="301.3" r="1.8" fill="#A2559C"></circle><circle id="2007" cx="421.9" cy="303.8" r="1.8" fill="#A2559C"></circle><circle id="2008" cx="436.2" cy="304.4" r="1.8" fill="#A2559C"></circle><circle id="2009" cx="450.5" cy="306.9" r="1.8" fill="#A2559C"></circle><circle id="2010" cx="464.8" cy="307.9" r="1.8" fill="#A2559C"></circle><circle id="2011" cx="479.1" cy="309.4" r="1.8" fill="#A2559C"></circle><circle id="2012" cx="493.4" cy="311.5" r="1.8" fill="#A2559C"></circle><circle id="2013" cx="507.7" cy="313.8" r="1.8" fill="#A2559C"></circle><circle id="2014" cx="522" cy="315.8" r="1.8" fill="#A2559C"></circle><circle id="2015" cx="536.2" cy="316.1" r="1.8" fill="#A2559C"></circle><circle id="2016" cx="550.5" cy="316.4" r="1.8" fill="#A2559C"></circle><circle id="2017" cx="564.8" cy="318.1" r="1.8" fill="#A2559C"></circle><circle id="2018" cx="579.1" cy="318.8" r="1.8" fill="#A2559C"></circle><circle id="2019" cx="593.4" cy="319.6" r="1.8" fill="#A2559C"></circle><circle id="2020" cx="607.7" cy="322" r="1.8" fill="#A2559C"></circle><circle id="2021" cx="622" cy="322.9" r="1.8" fill="#A2559C"></circle></g><g id="markers__Lung,-trachea-and-bronchus"><circle id="1980" cx="36.1" cy="108.7" r="1.8" fill="#00295B"></circle><circle id="1981" cx="50.4" cy="108.8" r="1.8" fill="#00295B"></circle><circle id="1982" cx="64.7" cy="108.9" r="1.8" fill="#00295B"></circle><circle id="1983" cx="79" cy="106.3" r="1.8" fill="#00295B"></circle><circle id="1984" cx="93.3" cy="103.3" r="1.8" fill="#00295B"></circle><circle id="1985" cx="107.6" cy="97.9" r="1.8" fill="#00295B"></circle><circle id="1986" cx="121.9" cy="102.3" r="1.8" fill="#00295B"></circle><circle id="1987" cx="136.1" cy="97.3" r="1.8" fill="#00295B"></circle><circle id="1988" cx="150.4" cy="94.7" r="1.8" fill="#00295B"></circle><circle id="1989" cx="164.7" cy="92.2" r="1.8" fill="#00295B"></circle><circle id="1990" cx="179" cy="90" r="1.8" fill="#00295B"></circle><circle id="1991" cx="193.3" cy="91.2" r="1.8" fill="#00295B"></circle><circle id="1992" cx="207.6" cy="91.1" r="1.8" fill="#00295B"></circle><circle id="1993" cx="221.9" cy="89.3" r="1.8" fill="#00295B"></circle><circle id="1994" cx="236.2" cy="90.7" r="1.8" fill="#00295B"></circle><circle id="1995" cx="250.5" cy="89.3" r="1.8" fill="#00295B"></circle><circle id="1996" cx="264.7" cy="93.8" r="1.8" fill="#00295B"></circle><circle id="1997" cx="279" cy="97.5" r="1.8" fill="#00295B"></circle><circle id="1998" cx="293.3" cy="98.5" r="1.8" fill="#00295B"></circle><circle id="1999" cx="307.6" cy="98.4" r="1.8" fill="#00295B"></circle><circle id="2000" cx="321.9" cy="95.6" r="1.8" fill="#00295B"></circle><circle id="2001" cx="336.2" cy="97.1" r="1.8" fill="#00295B"></circle><circle id="2002" cx="350.5" cy="98.3" r="1.8" fill="#00295B"></circle><circle id="2003" cx="364.8" cy="98.3" r="1.8" fill="#00295B"></circle><circle id="2004" cx="379.1" cy="98.2" r="1.8" fill="#00295B"></circle><circle id="2005" cx="393.4" cy="100.9" r="1.8" fill="#00295B"></circle><circle id="2006" cx="407.6" cy="109.2" r="1.8" fill="#00295B"></circle><circle id="2007" cx="421.9" cy="112.6" r="1.8" fill="#00295B"></circle><circle id="2008" cx="436.2" cy="112.8" r="1.8" fill="#00295B"></circle><circle id="2009" cx="450.5" cy="113.3" r="1.8" fill="#00295B"></circle><circle id="2010" cx="464.8" cy="116.1" r="1.8" fill="#00295B"></circle><circle id="2011" cx="479.1" cy="118.1" r="1.8" fill="#00295B"></circle><circle id="2012" cx="493.4" cy="121.7" r="1.8" fill="#00295B"></circle><circle id="2013" cx="507.7" cy="126.6" r="1.8" fill="#00295B"></circle><circle id="2014" cx="522" cy="131" r="1.8" fill="#00295B"></circle><circle id="2015" cx="536.2" cy="135.5" r="1.8" fill="#00295B"></circle><circle id="2016" cx="550.5" cy="137" r="1.8" fill="#00295B"></circle><circle id="2017" cx="564.8" cy="142.6" r="1.8" fill="#00295B"></circle><circle id="2018" cx="579.1" cy="146.3" r="1.8" fill="#00295B"></circle><circle id="2019" cx="593.4" cy="149" r="1.8" fill="#00295B"></circle><circle id="2020" cx="607.7" cy="151.9" r="1.8" fill="#00295B"></circle><circle id="2021" cx="622" cy="152.5" r="1.8" fill="#00295B"></circle></g><g id="markers__Pancreas"><circle id="1980" cx="36.1" cy="428.6" r="1.8" fill="#883039"></circle><circle id="1981" cx="50.4" cy="428.8" r="1.8" fill="#883039"></circle><circle id="1982" cx="64.7" cy="429.2" r="1.8" fill="#883039"></circle><circle id="1983" cx="79" cy="428.8" r="1.8" fill="#883039"></circle><circle id="1984" cx="93.3" cy="428" r="1.8" fill="#883039"></circle><circle id="1985" cx="107.6" cy="427.3" r="1.8" fill="#883039"></circle><circle id="1986" cx="121.9" cy="427.6" r="1.8" fill="#883039"></circle><circle id="1987" cx="136.1" cy="426.8" r="1.8" fill="#883039"></circle><circle id="1988" cx="150.4" cy="426.5" r="1.8" fill="#883039"></circle><circle id="1989" cx="164.7" cy="426.2" r="1.8" fill="#883039"></circle><circle id="1990" cx="179" cy="426.3" r="1.8" fill="#883039"></circle><circle id="1991" cx="193.3" cy="426.2" r="1.8" fill="#883039"></circle><circle id="1992" cx="207.6" cy="425.9" r="1.8" fill="#883039"></circle><circle id="1993" cx="221.9" cy="425.3" r="1.8" fill="#883039"></circle><circle id="1994" cx="236.2" cy="425.1" r="1.8" fill="#883039"></circle><circle id="1995" cx="250.5" cy="425.4" r="1.8" fill="#883039"></circle><circle id="1996" cx="264.7" cy="425.7" r="1.8" fill="#883039"></circle><circle id="1997" cx="279" cy="426" r="1.8" fill="#883039"></circle><circle id="1998" cx="293.3" cy="426" r="1.8" fill="#883039"></circle><circle id="1999" cx="307.6" cy="425.9" r="1.8" fill="#883039"></circle><circle id="2000" cx="321.9" cy="425.3" r="1.8" fill="#883039"></circle><circle id="2001" cx="336.2" cy="425.4" r="1.8" fill="#883039"></circle><circle id="2002" cx="350.5" cy="425.4" r="1.8" fill="#883039"></circle><circle id="2003" cx="364.8" cy="425.1" r="1.8" fill="#883039"></circle><circle id="2004" cx="379.1" cy="424.7" r="1.8" fill="#883039"></circle><circle id="2005" cx="393.4" cy="424.1" r="1.8" fill="#883039"></circle><circle id="2006" cx="407.6" cy="424.3" r="1.8" fill="#883039"></circle><circle id="2007" cx="421.9" cy="423.9" r="1.8" fill="#883039"></circle><circle id="2008" cx="436.2" cy="423.3" r="1.8" fill="#883039"></circle><circle id="2009" cx="450.5" cy="423.1" r="1.8" fill="#883039"></circle><circle id="2010" cx="464.8" cy="422.5" r="1.8" fill="#883039"></circle><circle id="2011" cx="479.1" cy="422.3" r="1.8" fill="#883039"></circle><circle id="2012" cx="493.4" cy="422.2" r="1.8" fill="#883039"></circle><circle id="2013" cx="507.7" cy="422.5" r="1.8" fill="#883039"></circle><circle id="2014" cx="522" cy="422.5" r="1.8" fill="#883039"></circle><circle id="2015" cx="536.2" cy="422.2" r="1.8" fill="#883039"></circle><circle id="2016" cx="550.5" cy="421.4" r="1.8" fill="#883039"></circle><circle id="2017" cx="564.8" cy="421.2" r="1.8" fill="#883039"></circle><circle id="2018" cx="579.1" cy="420.8" r="1.8" fill="#883039"></circle><circle id="2019" cx="593.4" cy="420.6" r="1.8" fill="#883039"></circle><circle id="2020" cx="607.7" cy="421.6" r="1.8" fill="#883039"></circle><circle id="2021" cx="622" cy="421.8" r="1.8" fill="#883039"></circle></g><g id="markers__Esophagus"><circle id="1980" cx="36.1" cy="367.4" r="1.8" fill="#6D3E91"></circle><circle id="1981" cx="50.4" cy="368.5" r="1.8" fill="#6D3E91"></circle><circle id="1982" cx="64.7" cy="370.1" r="1.8" fill="#6D3E91"></circle><circle id="1983" cx="79" cy="371.1" r="1.8" fill="#6D3E91"></circle><circle id="1984" cx="93.3" cy="372.2" r="1.8" fill="#6D3E91"></circle><circle id="1985" cx="107.6" cy="373.6" r="1.8" fill="#6D3E91"></circle><circle id="1986" cx="121.9" cy="375.7" r="1.8" fill="#6D3E91"></circle><circle id="1987" cx="136.1" cy="374.6" r="1.8" fill="#6D3E91"></circle><circle id="1988" cx="150.4" cy="374.3" r="1.8" fill="#6D3E91"></circle><circle id="1989" cx="164.7" cy="373.3" r="1.8" fill="#6D3E91"></circle><circle id="1990" cx="179" cy="374.7" r="1.8" fill="#6D3E91"></circle><circle id="1991" cx="193.3" cy="375.6" r="1.8" fill="#6D3E91"></circle><circle id="1992" cx="207.6" cy="376.4" r="1.8" fill="#6D3E91"></circle><circle id="1993" cx="221.9" cy="377" r="1.8" fill="#6D3E91"></circle><circle id="1994" cx="236.2" cy="377.9" r="1.8" fill="#6D3E91"></circle><circle id="1995" cx="250.5" cy="378.6" r="1.8" fill="#6D3E91"></circle><circle id="1996" cx="264.7" cy="380.4" r="1.8" fill="#6D3E91"></circle><circle id="1997" cx="279" cy="382" r="1.8" fill="#6D3E91"></circle><circle id="1998" cx="293.3" cy="382.6" r="1.8" fill="#6D3E91"></circle><circle id="1999" cx="307.6" cy="382.9" r="1.8" fill="#6D3E91"></circle><circle id="2000" cx="321.9" cy="381.9" r="1.8" fill="#6D3E91"></circle><circle id="2001" cx="336.2" cy="382" r="1.8" fill="#6D3E91"></circle><circle id="2002" cx="350.5" cy="383" r="1.8" fill="#6D3E91"></circle><circle id="2003" cx="364.8" cy="382.7" r="1.8" fill="#6D3E91"></circle><circle id="2004" cx="379.1" cy="383" r="1.8" fill="#6D3E91"></circle><circle id="2005" cx="393.4" cy="386" r="1.8" fill="#6D3E91"></circle><circle id="2006" cx="407.6" cy="392.3" r="1.8" fill="#6D3E91"></circle><circle id="2007" cx="421.9" cy="396.2" r="1.8" fill="#6D3E91"></circle><circle id="2008" cx="436.2" cy="398.8" r="1.8" fill="#6D3E91"></circle><circle id="2009" cx="450.5" cy="401" r="1.8" fill="#6D3E91"></circle><circle id="2010" cx="464.8" cy="403" r="1.8" fill="#6D3E91"></circle><circle id="2011" cx="479.1" cy="405.7" r="1.8" fill="#6D3E91"></circle><circle id="2012" cx="493.4" cy="408.6" r="1.8" fill="#6D3E91"></circle><circle id="2013" cx="507.7" cy="411.3" r="1.8" fill="#6D3E91"></circle><circle id="2014" cx="522" cy="413.8" r="1.8" fill="#6D3E91"></circle><circle id="2015" cx="536.2" cy="414.9" r="1.8" fill="#6D3E91"></circle><circle id="2016" cx="550.5" cy="415.5" r="1.8" fill="#6D3E91"></circle><circle id="2017" cx="564.8" cy="416.7" r="1.8" fill="#6D3E91"></circle><circle id="2018" cx="579.1" cy="416.9" r="1.8" fill="#6D3E91"></circle><circle id="2019" cx="593.4" cy="416.8" r="1.8" fill="#6D3E91"></circle><circle id="2020" cx="607.7" cy="417.1" r="1.8" fill="#6D3E91"></circle><circle id="2021" cx="622" cy="417.1" r="1.8" fill="#6D3E91"></circle></g><g id="markers__Stomach"><circle id="1980" cx="36.1" cy="102.5" r="1.8" fill="#2C8465"></circle><circle id="1981" cx="50.4" cy="110.3" r="1.8" fill="#2C8465"></circle><circle id="1982" cx="64.7" cy="119.7" r="1.8" fill="#2C8465"></circle><circle id="1983" cx="79" cy="125.3" r="1.8" fill="#2C8465"></circle><circle id="1984" cx="93.3" cy="132.1" r="1.8" fill="#2C8465"></circle><circle id="1985" cx="107.6" cy="143.1" r="1.8" fill="#2C8465"></circle><circle id="1986" cx="121.9" cy="155.6" r="1.8" fill="#2C8465"></circle><circle id="1987" cx="136.1" cy="158.5" r="1.8" fill="#2C8465"></circle><circle id="1988" cx="150.4" cy="163.5" r="1.8" fill="#2C8465"></circle><circle id="1989" cx="164.7" cy="166.6" r="1.8" fill="#2C8465"></circle><circle id="1990" cx="179" cy="175.4" r="1.8" fill="#2C8465"></circle><circle id="1991" cx="193.3" cy="182.6" r="1.8" fill="#2C8465"></circle><circle id="1992" cx="207.6" cy="188.7" r="1.8" fill="#2C8465"></circle><circle id="1993" cx="221.9" cy="194.5" r="1.8" fill="#2C8465"></circle><circle id="1994" cx="236.2" cy="200.9" r="1.8" fill="#2C8465"></circle><circle id="1995" cx="250.5" cy="207.6" r="1.8" fill="#2C8465"></circle><circle id="1996" cx="264.7" cy="215.6" r="1.8" fill="#2C8465"></circle><circle id="1997" cx="279" cy="223.1" r="1.8" fill="#2C8465"></circle><circle id="1998" cx="293.3" cy="228.1" r="1.8" fill="#2C8465"></circle><circle id="1999" cx="307.6" cy="232.1" r="1.8" fill="#2C8465"></circle><circle id="2000" cx="321.9" cy="234.8" r="1.8" fill="#2C8465"></circle><circle id="2001" cx="336.2" cy="238.9" r="1.8" fill="#2C8465"></circle><circle id="2002" cx="350.5" cy="242.5" r="1.8" fill="#2C8465"></circle><circle id="2003" cx="364.8" cy="244.7" r="1.8" fill="#2C8465"></circle><circle id="2004" cx="379.1" cy="248" r="1.8" fill="#2C8465"></circle><circle id="2005" cx="393.4" cy="256.4" r="1.8" fill="#2C8465"></circle><circle id="2006" cx="407.6" cy="270.2" r="1.8" fill="#2C8465"></circle><circle id="2007" cx="421.9" cy="278.6" r="1.8" fill="#2C8465"></circle><circle id="2008" cx="436.2" cy="283.9" r="1.8" fill="#2C8465"></circle><circle id="2009" cx="450.5" cy="288.8" r="1.8" fill="#2C8465"></circle><circle id="2010" cx="464.8" cy="293.7" r="1.8" fill="#2C8465"></circle><circle id="2011" cx="479.1" cy="300.5" r="1.8" fill="#2C8465"></circle><circle id="2012" cx="493.4" cy="306.7" r="1.8" fill="#2C8465"></circle><circle id="2013" cx="507.7" cy="312.4" r="1.8" fill="#2C8465"></circle><circle id="2014" cx="522" cy="318.5" r="1.8" fill="#2C8465"></circle><circle id="2015" cx="536.2" cy="322.7" r="1.8" fill="#2C8465"></circle><circle id="2016" cx="550.5" cy="325.7" r="1.8" fill="#2C8465"></circle><circle id="2017" cx="564.8" cy="330.3" r="1.8" fill="#2C8465"></circle><circle id="2018" cx="579.1" cy="333.4" r="1.8" fill="#2C8465"></circle><circle id="2019" cx="593.4" cy="336.3" r="1.8" fill="#2C8465"></circle><circle id="2020" cx="607.7" cy="339.2" r="1.8" fill="#2C8465"></circle><circle id="2021" cx="622" cy="341.3" r="1.8" fill="#2C8465"></circle></g><g id="markers__Cervix"><circle id="1980" cx="36.1" cy="421.6" r="1.8" fill="#996D39"></circle><circle id="1981" cx="50.4" cy="423" r="1.8" fill="#996D39"></circle><circle id="1982" cx="64.7" cy="425.1" r="1.8" fill="#996D39"></circle><circle id="1983" cx="79" cy="426.2" r="1.8" fill="#996D39"></circle><circle id="1984" cx="93.3" cy="427.4" r="1.8" fill="#996D39"></circle><circle id="1985" cx="107.6" cy="428.6" r="1.8" fill="#996D39"></circle><circle id="1986" cx="121.9" cy="430.6" r="1.8" fill="#996D39"></circle><circle id="1987" cx="136.1" cy="431.6" r="1.8" fill="#996D39"></circle><circle id="1988" cx="150.4" cy="432.7" r="1.8" fill="#996D39"></circle><circle id="1989" cx="164.7" cy="433.7" r="1.8" fill="#996D39"></circle><circle id="1990" cx="179" cy="435.3" r="1.8" fill="#996D39"></circle><circle id="1991" cx="193.3" cy="436.7" r="1.8" fill="#996D39"></circle><circle id="1992" cx="207.6" cy="437.5" r="1.8" fill="#996D39"></circle><circle id="1993" cx="221.9" cy="438.6" r="1.8" fill="#996D39"></circle><circle id="1994" cx="236.2" cy="439.6" r="1.8" fill="#996D39"></circle><circle id="1995" cx="250.5" cy="440.8" r="1.8" fill="#996D39"></circle><circle id="1996" cx="264.7" cy="442" r="1.8" fill="#996D39"></circle><circle id="1997" cx="279" cy="443.1" r="1.8" fill="#996D39"></circle><circle id="1998" cx="293.3" cy="444.3" r="1.8" fill="#996D39"></circle><circle id="1999" cx="307.6" cy="445.3" r="1.8" fill="#996D39"></circle><circle id="2000" cx="321.9" cy="446.6" r="1.8" fill="#996D39"></circle><circle id="2001" cx="336.2" cy="447.9" r="1.8" fill="#996D39"></circle><circle id="2002" cx="350.5" cy="448.6" r="1.8" fill="#996D39"></circle><circle id="2003" cx="364.8" cy="449.1" r="1.8" fill="#996D39"></circle><circle id="2004" cx="379.1" cy="450.2" r="1.8" fill="#996D39"></circle><circle id="2005" cx="393.4" cy="451.4" r="1.8" fill="#996D39"></circle><circle id="2006" cx="407.6" cy="452.7" r="1.8" fill="#996D39"></circle><circle id="2007" cx="421.9" cy="453.9" r="1.8" fill="#996D39"></circle><circle id="2008" cx="436.2" cy="454.8" r="1.8" fill="#996D39"></circle><circle id="2009" cx="450.5" cy="455.7" r="1.8" fill="#996D39"></circle><circle id="2010" cx="464.8" cy="456.4" r="1.8" fill="#996D39"></circle><circle id="2011" cx="479.1" cy="456.9" r="1.8" fill="#996D39"></circle><circle id="2012" cx="493.4" cy="457.4" r="1.8" fill="#996D39"></circle><circle id="2013" cx="507.7" cy="457.8" r="1.8" fill="#996D39"></circle><circle id="2014" cx="522" cy="457.9" r="1.8" fill="#996D39"></circle><circle id="2015" cx="536.2" cy="457.9" r="1.8" fill="#996D39"></circle><circle id="2016" cx="550.5" cy="457.8" r="1.8" fill="#996D39"></circle><circle id="2017" cx="564.8" cy="458.1" r="1.8" fill="#996D39"></circle><circle id="2018" cx="579.1" cy="458.5" r="1.8" fill="#996D39"></circle><circle id="2019" cx="593.4" cy="459.2" r="1.8" fill="#996D39"></circle><circle id="2020" cx="607.7" cy="459.9" r="1.8" fill="#996D39"></circle><circle id="2021" cx="622" cy="460.3" r="1.8" fill="#996D39"></circle></g><g id="markers__Breast"><circle id="1980" cx="36.1" cy="373.7" r="1.8" fill="#B13507"></circle><circle id="1981" cx="50.4" cy="373.8" r="1.8" fill="#B13507"></circle><circle id="1982" cx="64.7" cy="374.6" r="1.8" fill="#B13507"></circle><circle id="1983" cx="79" cy="374.3" r="1.8" fill="#B13507"></circle><circle id="1984" cx="93.3" cy="372.9" r="1.8" fill="#B13507"></circle><circle id="1985" cx="107.6" cy="371.8" r="1.8" fill="#B13507"></circle><circle id="1986" cx="121.9" cy="372.4" r="1.8" fill="#B13507"></circle><circle id="1987" cx="136.1" cy="371.8" r="1.8" fill="#B13507"></circle><circle id="1988" cx="150.4" cy="371.7" r="1.8" fill="#B13507"></circle><circle id="1989" cx="164.7" cy="371.7" r="1.8" fill="#B13507"></circle><circle id="1990" cx="179" cy="372.6" r="1.8" fill="#B13507"></circle><circle id="1991" cx="193.3" cy="372.7" r="1.8" fill="#B13507"></circle><circle id="1992" cx="207.6" cy="372.5" r="1.8" fill="#B13507"></circle><circle id="1993" cx="221.9" cy="371.6" r="1.8" fill="#B13507"></circle><circle id="1994" cx="236.2" cy="371.6" r="1.8" fill="#B13507"></circle><circle id="1995" cx="250.5" cy="372.1" r="1.8" fill="#B13507"></circle><circle id="1996" cx="264.7" cy="373.4" r="1.8" fill="#B13507"></circle><circle id="1997" cx="279" cy="375.1" r="1.8" fill="#B13507"></circle><circle id="1998" cx="293.3" cy="376.2" r="1.8" fill="#B13507"></circle><circle id="1999" cx="307.6" cy="376.4" r="1.8" fill="#B13507"></circle><circle id="2000" cx="321.9" cy="377.3" r="1.8" fill="#B13507"></circle><circle id="2001" cx="336.2" cy="378.3" r="1.8" fill="#B13507"></circle><circle id="2002" cx="350.5" cy="379.3" r="1.8" fill="#B13507"></circle><circle id="2003" cx="364.8" cy="380.2" r="1.8" fill="#B13507"></circle><circle id="2004" cx="379.1" cy="382.1" r="1.8" fill="#B13507"></circle><circle id="2005" cx="393.4" cy="383.3" r="1.8" fill="#B13507"></circle><circle id="2006" cx="407.6" cy="385" r="1.8" fill="#B13507"></circle><circle id="2007" cx="421.9" cy="386.2" r="1.8" fill="#B13507"></circle><circle id="2008" cx="436.2" cy="386.7" r="1.8" fill="#B13507"></circle><circle id="2009" cx="450.5" cy="387.7" r="1.8" fill="#B13507"></circle><circle id="2010" cx="464.8" cy="388.3" r="1.8" fill="#B13507"></circle><circle id="2011" cx="479.1" cy="389.2" r="1.8" fill="#B13507"></circle><circle id="2012" cx="493.4" cy="390" r="1.8" fill="#B13507"></circle><circle id="2013" cx="507.7" cy="390.7" r="1.8" fill="#B13507"></circle><circle id="2014" cx="522" cy="391.2" r="1.8" fill="#B13507"></circle><circle id="2015" cx="536.2" cy="390.8" r="1.8" fill="#B13507"></circle><circle id="2016" cx="550.5" cy="390.3" r="1.8" fill="#B13507"></circle><circle id="2017" cx="564.8" cy="390.5" r="1.8" fill="#B13507"></circle><circle id="2018" cx="579.1" cy="390.3" r="1.8" fill="#B13507"></circle><circle id="2019" cx="593.4" cy="390.6" r="1.8" fill="#B13507"></circle><circle id="2020" cx="607.7" cy="391.8" r="1.8" fill="#B13507"></circle><circle id="2021" cx="622" cy="391.9" r="1.8" fill="#B13507"></circle></g><g id="markers__Prostate"><circle id="1980" cx="36.1" cy="423.4" r="1.8" fill="#4C6A9C"></circle><circle id="1981" cx="50.4" cy="423.3" r="1.8" fill="#4C6A9C"></circle><circle id="1982" cx="64.7" cy="423" r="1.8" fill="#4C6A9C"></circle><circle id="1983" cx="79" cy="422.3" r="1.8" fill="#4C6A9C"></circle><circle id="1984" cx="93.3" cy="421.4" r="1.8" fill="#4C6A9C"></circle><circle id="1985" cx="107.6" cy="420.2" r="1.8" fill="#4C6A9C"></circle><circle id="1986" cx="121.9" cy="419.3" r="1.8" fill="#4C6A9C"></circle><circle id="1987" cx="136.1" cy="418.4" r="1.8" fill="#4C6A9C"></circle><circle id="1988" cx="150.4" cy="417.5" r="1.8" fill="#4C6A9C"></circle><circle id="1989" cx="164.7" cy="416.8" r="1.8" fill="#4C6A9C"></circle><circle id="1990" cx="179" cy="416" r="1.8" fill="#4C6A9C"></circle><circle id="1991" cx="193.3" cy="415.1" r="1.8" fill="#4C6A9C"></circle><circle id="1992" cx="207.6" cy="413.9" r="1.8" fill="#4C6A9C"></circle><circle id="1993" cx="221.9" cy="413" r="1.8" fill="#4C6A9C"></circle><circle id="1994" cx="236.2" cy="412.2" r="1.8" fill="#4C6A9C"></circle><circle id="1995" cx="250.5" cy="412.3" r="1.8" fill="#4C6A9C"></circle><circle id="1996" cx="264.7" cy="412.4" r="1.8" fill="#4C6A9C"></circle><circle id="1997" cx="279" cy="413.3" r="1.8" fill="#4C6A9C"></circle><circle id="1998" cx="293.3" cy="413.7" r="1.8" fill="#4C6A9C"></circle><circle id="1999" cx="307.6" cy="414.5" r="1.8" fill="#4C6A9C"></circle><circle id="2000" cx="321.9" cy="415" r="1.8" fill="#4C6A9C"></circle><circle id="2001" cx="336.2" cy="415.5" r="1.8" fill="#4C6A9C"></circle><circle id="2002" cx="350.5" cy="416.1" r="1.8" fill="#4C6A9C"></circle><circle id="2003" cx="364.8" cy="416.9" r="1.8" fill="#4C6A9C"></circle><circle id="2004" cx="379.1" cy="418.2" r="1.8" fill="#4C6A9C"></circle><circle id="2005" cx="393.4" cy="419.7" r="1.8" fill="#4C6A9C"></circle><circle id="2006" cx="407.6" cy="421" r="1.8" fill="#4C6A9C"></circle><circle id="2007" cx="421.9" cy="422.1" r="1.8" fill="#4C6A9C"></circle><circle id="2008" cx="436.2" cy="423" r="1.8" fill="#4C6A9C"></circle><circle id="2009" cx="450.5" cy="424.2" r="1.8" fill="#4C6A9C"></circle><circle id="2010" cx="464.8" cy="425.3" r="1.8" fill="#4C6A9C"></circle><circle id="2011" cx="479.1" cy="426.3" r="1.8" fill="#4C6A9C"></circle><circle id="2012" cx="493.4" cy="427.8" r="1.8" fill="#4C6A9C"></circle><circle id="2013" cx="507.7" cy="429.3" r="1.8" fill="#4C6A9C"></circle><circle id="2014" cx="522" cy="429.5" r="1.8" fill="#4C6A9C"></circle><circle id="2015" cx="536.2" cy="429.5" r="1.8" fill="#4C6A9C"></circle><circle id="2016" cx="550.5" cy="429.2" r="1.8" fill="#4C6A9C"></circle><circle id="2017" cx="564.8" cy="430" r="1.8" fill="#4C6A9C"></circle><circle id="2018" cx="579.1" cy="430.2" r="1.8" fill="#4C6A9C"></circle><circle id="2019" cx="593.4" cy="430.4" r="1.8" fill="#4C6A9C"></circle><circle id="2020" cx="607.7" cy="431.2" r="1.8" fill="#4C6A9C"></circle><circle id="2021" cx="622" cy="432.4" r="1.8" fill="#4C6A9C"></circle></g></g></g><g id="footer" class="SourcesFooter" style="fill:#5b5b5b"><g id="sources" class="markdown-text-wrap"><text x="16.0" y="562.7" style="font-size:13.5px;line-height:1.2"><tspan x="16" y="562.7"><tspan style="font-weight:700">Data source:</tspan> IHME, Global Burden of Disease (2024)</tspan></text></g><g id="note" class="markdown-text-wrap"><text x="16.0" y="580.9" style="font-size:13.5px;line-height:1.2"><tspan x="16" y="580.9"><tspan style="font-weight:700">Note:</tspan> To allow for comparisons between countries and over time, this metric is <tspan class="dod-span" data-id="age_standardized">age-standardized</tspan>.</tspan></text></g><text id="origin-url" font-size="13.50" x="616.9" y="562.7"><tspan x="616.92" y="562.695"><a target="_blank" style="fill: #5b5b5b;" href="https://ourworldindata.org/cancer">OurWorldinData.org/cancer</a> | <a target="_blank" style="fill: #5b5b5b;" href="https://creativecommons.org/licenses/by/4.0/">CC BY</a></tspan></text></g></svg>