<svg xmlns="http://www.w3.org/2000/svg" version="1.1" style="font-family:Lato, &#x27;Helvetica Neue&#x27;, Helvetica, Arial, &#x27;Liberation Sans&#x27;, sans-serif;font-size:18px;background-color:#ffffff;text-rendering:geometricPrecision;-webkit-font-smoothing:antialiased" width="850" height="600" viewBox="0 0 850 600"><defs><style>@import url(https://ourworldindata.org/fonts.css)</style></defs><defs><pattern id="noDataPattern" patternUnits="userSpaceOnUse" width="4" height="4" patternTransform="rotate(-45 2 2)"><path d="M -1,2 l 6,0" stroke="#ccc" stroke-width="0.7"></path></pattern></defs><rect class="background-fill" fill="#ffffff" width="850" height="600"></rect><g id="header" class="HeaderView"><g id="logo" transform="translate(769, 16) scale(1)"><svg className="owidLogo" xmlns="http://www.w3.org/2000/svg" width="65" height="36" viewBox="0 0 65 36"  fill="none"><path fill="#002147" d="M0 0h64.8v36H0z"/><path fill="#CE261E" d="M0 33.3h64.8V36H0z"/><path fill="#fff" d="M13.796 10.575c0 .636-.106 1.226-.318 1.77a4.193 4.193 0 0 1-.894 1.404 4.084 4.084 0 0 1-1.386.93c-.54.22-1.138.33-1.794.33-.656 0-1.256-.11-1.8-.33a4.149 4.149 0 0 1-1.392-.93 4.193 4.193 0 0 1-.894-1.404A4.833 4.833 0 0 1 5 10.575c0-.636.106-1.224.318-1.764a4.18 4.18 0 0 1 .894-1.41 4.076 4.076 0 0 1 1.392-.924 4.684 4.684 0 0 1 1.8-.336c.656 0 1.254.112 1.794.336.54.224 1.002.534 1.386.93.384.392.682.86.894 1.404.212.54.318 1.128.318 1.764Zm-1.656 0c0-.476-.064-.902-.192-1.278a2.671 2.671 0 0 0-.54-.966 2.332 2.332 0 0 0-.864-.606 2.94 2.94 0 0 0-1.14-.21c-.424 0-.806.07-1.146.21-.34.14-.63.342-.87.606a2.742 2.742 0 0 0-.546.966 3.955 3.955 0 0 0-.192 1.278c0 .476.064.904.192 1.284.128.376.31.696.546.96.24.26.53.46.87.6.34.14.722.21 1.146.21.424 0 .804-.07 1.14-.21.34-.14.628-.34.864-.6.236-.264.416-.584.54-.96a4.01 4.01 0 0 0 .192-1.284ZM16.104 8.757v3.912c0 .376.086.668.258.876.176.204.438.306.786.306.256 0 .496-.056.72-.168a2.58 2.58 0 0 0 .636-.474V8.757h1.482v6.156h-.906c-.192 0-.318-.09-.378-.27l-.102-.492a4.65 4.65 0 0 1-.396.354 2.577 2.577 0 0 1-.438.27 2.35 2.35 0 0 1-.498.168 2.345 2.345 0 0 1-.57.066c-.336 0-.634-.056-.894-.168a1.821 1.821 0 0 1-.648-.486 2.157 2.157 0 0 1-.402-.738 3.233 3.233 0 0 1-.132-.948V8.757h1.482ZM21.328 14.913V8.757h.87c.152 0 .258.028.318.084.06.056.1.152.12.288l.09.744c.22-.38.478-.68.774-.9.296-.22.628-.33.996-.33.304 0 .556.07.756.21l-.192 1.11c-.012.072-.038.124-.078.156a.278.278 0 0 1-.162.042 1.01 1.01 0 0 1-.246-.042 1.646 1.646 0 0 0-.414-.042c-.308 0-.572.086-.792.258-.22.168-.406.416-.558.744v3.834h-1.482ZM27.347 6.237h1.356a.57.57 0 0 1 .348.102c.096.064.16.152.192.264l1.476 5.19c.036.128.068.268.096.42.032.148.062.306.09.474a5.968 5.968 0 0 1 .228-.894l1.704-5.19a.575.575 0 0 1 .186-.252.543.543 0 0 1 .348-.114h.474a.57.57 0 0 1 .348.102.497.497 0 0 1 .192.264l1.692 5.19c.088.256.164.54.228.852.028-.156.056-.306.084-.45.032-.144.064-.278.096-.402l1.476-5.19c.028-.1.09-.186.186-.258a.563.563 0 0 1 .348-.108h1.266l-2.694 8.676h-1.458l-1.896-5.928-.078-.246a9.504 9.504 0 0 1-.072-.282c-.024.1-.05.194-.078.282-.024.088-.048.17-.072.246l-1.914 5.928H30.04l-2.694-8.676ZM42.771 8.661c.46 0 .876.074 1.248.222.376.148.696.358.96.63s.468.604.612.996c.144.392.216.83.216 1.314 0 .488-.072.928-.216 1.32a2.85 2.85 0 0 1-.612 1.002 2.653 2.653 0 0 1-.96.636 3.35 3.35 0 0 1-1.248.222c-.46 0-.878-.074-1.254-.222a2.712 2.712 0 0 1-.966-.636 2.922 2.922 0 0 1-.618-1.002 3.807 3.807 0 0 1-.216-1.32c0-.484.072-.922.216-1.314.148-.392.354-.724.618-.996.268-.272.59-.482.966-.63a3.397 3.397 0 0 1 1.254-.222Zm0 5.202c.512 0 .89-.172 1.134-.516.248-.344.372-.848.372-1.512s-.124-1.17-.372-1.518c-.244-.348-.622-.522-1.134-.522-.52 0-.904.176-1.152.528-.248.348-.372.852-.372 1.512s.124 1.164.372 1.512c.248.344.632.516 1.152.516ZM46.723 14.913V8.757h.87c.152 0 .258.028.318.084.06.056.1.152.12.288l.09.744c.22-.38.478-.68.774-.9.296-.22.628-.33.996-.33.304 0 .556.07.756.21l-.192 1.11c-.012.072-.038.124-.078.156a.278.278 0 0 1-.162.042 1.01 1.01 0 0 1-.246-.042 1.646 1.646 0 0 0-.414-.042c-.308 0-.572.086-.792.258-.22.168-.406.416-.558.744v3.834h-1.482ZM52.96 5.997v8.916h-1.482V5.997h1.482ZM58.732 14.913c-.192 0-.318-.09-.378-.27l-.12-.594a3.68 3.68 0 0 1-.402.39c-.14.116-.292.216-.456.3-.16.084-.334.148-.522.192a2.372 2.372 0 0 1-.6.072c-.336 0-.644-.07-.924-.21a2.098 2.098 0 0 1-.726-.606 3.033 3.033 0 0 1-.468-.99 5.072 5.072 0 0 1-.162-1.344c0-.456.062-.88.186-1.272s.302-.732.534-1.02c.232-.288.51-.512.834-.672a2.384 2.384 0 0 1 1.092-.246 2.103 2.103 0 0 1 1.536.606V5.997h1.482v8.916h-.906Zm-1.974-1.086c.308 0 .57-.064.786-.192.216-.128.42-.31.612-.546v-2.76a1.452 1.452 0 0 0-.552-.432 1.597 1.597 0 0 0-.636-.126c-.224 0-.428.042-.612.126a1.21 1.21 0 0 0-.462.384c-.124.168-.22.384-.288.648-.068.26-.102.568-.102.924 0 .36.028.666.084.918.06.248.144.452.252.612.108.156.24.27.396.342.156.068.33.102.522.102ZM16.331 20.757v6.156H14.85v-6.156h1.481Zm.223-1.794a.844.844 0 0 1-.078.36.963.963 0 0 1-.21.294.995.995 0 0 1-.3.204.963.963 0 0 1-.372.072.948.948 0 0 1-.367-.072 1.018 1.018 0 0 1-.498-.498.963.963 0 0 1 0-.732.995.995 0 0 1 .205-.3.929.929 0 0 1 .293-.198.899.899 0 0 1 .738 0 .912.912 0 0 1 .3.198.943.943 0 0 1 .288.672ZM17.771 26.913v-6.156h.906c.192 0 .318.09.378.27l.102.486a2.934 2.934 0 0 1 .828-.618c.156-.076.322-.134.498-.174.176-.04.368-.06.576-.06.336 0 .634.058.894.174.26.112.476.272.648.48.176.204.308.45.396.738.092.284.138.598.138.942v3.918h-1.482v-3.918c0-.376-.088-.666-.264-.87-.172-.208-.432-.312-.78-.312-.256 0-.496.058-.72.174a2.58 2.58 0 0 0-.636.474v4.452h-1.482ZM34.22 22.575c0 .636-.106 1.22-.318 1.752-.212.532-.51.99-.894 1.374a4 4 0 0 1-1.386.894 4.87 4.87 0 0 1-1.794.318h-3.312v-8.676h3.312a4.79 4.79 0 0 1 1.794.324 4 4 0 0 1 1.386.894c.384.38.682.836.894 1.368.212.532.318 1.116.318 1.752Zm-1.65 0c0-.476-.064-.902-.192-1.278a2.68 2.68 0 0 0-.546-.96 2.332 2.332 0 0 0-.864-.606 2.94 2.94 0 0 0-1.14-.21h-1.686v6.108h1.686c.424 0 .804-.07 1.14-.21.34-.14.628-.34.864-.6a2.75 2.75 0 0 0 .546-.96 4.01 4.01 0 0 0 .192-1.284ZM39.98 26.913h-.665c-.14 0-.25-.02-.33-.06-.08-.044-.14-.13-.18-.258l-.132-.438c-.156.14-.31.264-.462.372a2.804 2.804 0 0 1-.462.264c-.16.072-.33.126-.51.162-.18.036-.38.054-.6.054-.26 0-.5-.034-.72-.102a1.618 1.618 0 0 1-.57-.318 1.448 1.448 0 0 1-.366-.522 1.852 1.852 0 0 1-.132-.726c0-.232.06-.46.18-.684.124-.228.328-.432.612-.612.284-.184.662-.336 1.134-.456.472-.12 1.058-.188 1.758-.204v-.36c0-.412-.088-.716-.264-.912-.172-.2-.424-.3-.756-.3a1.837 1.837 0 0 0-1.02.276c-.116.068-.224.13-.324.186a.664.664 0 0 1-.33.084.429.429 0 0 1-.258-.078.614.614 0 0 1-.174-.192l-.27-.474c.708-.648 1.562-.972 2.562-.972.36 0 .68.06.96.18.284.116.524.28.72.492.196.208.344.458.444.75.104.292.156.612.156.96v3.888Zm-2.88-.924c.153 0 .293-.014.42-.042.129-.028.249-.07.36-.126.117-.056.227-.124.33-.204.109-.084.217-.182.325-.294v-1.038c-.432.02-.794.058-1.086.114-.288.052-.52.12-.696.204a.923.923 0 0 0-.378.294.664.664 0 0 0-.108.366c0 .26.076.446.228.558.156.112.358.168.606.168ZM43.22 27.01c-.532 0-.942-.15-1.23-.45-.288-.305-.432-.723-.432-1.255v-3.438h-.624a.31.31 0 0 1-.21-.078c-.056-.052-.084-.13-.084-.234v-.588l.99-.162.312-1.68a.302.302 0 0 1 .108-.186.365.365 0 0 1 .222-.066h.768v1.938h1.62v1.056h-1.62v3.336c0 .192.048.342.144.45a.488.488 0 0 0 .384.162c.092 0 .168-.01.228-.03.064-.024.118-.048.162-.072.048-.024.09-.046.126-.066a.194.194 0 0 1 .108-.036.16.16 0 0 1 .108.036c.028.02.058.052.09.096l.444.72c-.216.18-.464.316-.744.408a2.77 2.77 0 0 1-.87.138ZM50.423 26.913h-.666c-.14 0-.25-.02-.33-.06-.08-.044-.14-.13-.18-.258l-.132-.438c-.156.14-.31.264-.462.372a2.804 2.804 0 0 1-.462.264c-.16.072-.33.126-.51.162-.18.036-.38.054-.6.054-.26 0-.5-.034-.72-.102a1.618 1.618 0 0 1-.57-.318 1.448 1.448 0 0 1-.366-.522 1.852 1.852 0 0 1-.132-.726c0-.232.06-.46.18-.684.124-.228.328-.432.612-.612.284-.184.662-.336 1.134-.456.472-.12 1.058-.188 1.758-.204v-.36c0-.412-.088-.716-.264-.912-.172-.2-.424-.3-.756-.3a1.837 1.837 0 0 0-1.02.276c-.116.068-.224.13-.324.186a.664.664 0 0 1-.33.084.429.429 0 0 1-.258-.078.614.614 0 0 1-.174-.192l-.27-.474c.708-.648 1.562-.972 2.562-.972.36 0 .68.06.96.18.284.116.524.28.72.492.196.208.344.458.444.75.104.292.156.612.156.96v3.888Zm-2.88-.924c.152 0 .292-.014.42-.042.128-.028.248-.07.36-.126.116-.056.226-.124.33-.204.108-.084.216-.182.324-.294v-1.038c-.432.02-.794.058-1.086.114-.288.052-.52.12-.696.204a.923.923 0 0 0-.378.294.664.664 0 0 0-.108.366c0 .26.076.446.228.558.156.112.358.168.606.168Z"/></svg></g><a id="title" href="https://ourworldindata.org/grapher/cancer-death-rate-in-children-under-5-years-old-by-type" style="font-family:&#x27;Playfair Display&#x27;, Georgia, &#x27;Times New Roman&#x27;, &#x27;Liberation Serif&#x27;, serif" target="_blank" rel="noopener"><text font-size="24.25" font-weight="600" x="16.0" y="39.5" fill="#5b5b5b"><tspan x="16" y="39.5225">Cancer death rate in children under 5 years old by type, World</tspan></text></a><g id="subtitle" class="markdown-text-wrap"><text x="16.0" y="63.3" style="font-size:14.625px;line-height:1.2" fill="#5b5b5b"><tspan x="16" y="63.3">Estimated number of cancer-related deaths among children under 5 years old, categorized by <tspan class="dod-span" data-id="cancer">cancer</tspan> type, per</tspan><tspan x="16" y="80.8">100,000 population.</tspan></text></g></g><g id="chart-area" style="pointer-events:none"><g id="horizontal-axis" class="HorizontalAxis"><g id="tick-marks"><line id="1980" x1="28.6" y1="512.6" x2="28.6" y2="518.1" stroke="#999" stroke-width="1"></line><line id="2021" x1="648.4" y1="512.6" x2="648.4" y2="518.1" stroke="#999" stroke-width="1"></line><line id="1985" x1="104.2" y1="512.6" x2="104.2" y2="518.1" stroke="#999" stroke-width="1"></line><line id="1990" x1="179.7" y1="512.6" x2="179.7" y2="518.1" stroke="#999" stroke-width="1"></line><line id="1995" x1="255.3" y1="512.6" x2="255.3" y2="518.1" stroke="#999" stroke-width="1"></line><line id="2000" x1="330.9" y1="512.6" x2="330.9" y2="518.1" stroke="#999" stroke-width="1"></line><line id="2005" x1="406.5" y1="512.6" x2="406.5" y2="518.1" stroke="#999" stroke-width="1"></line><line id="2010" x1="482.1" y1="512.6" x2="482.1" y2="518.1" stroke="#999" stroke-width="1"></line><line id="2015" x1="557.7" y1="512.6" x2="557.7" y2="518.1" stroke="#999" stroke-width="1"></line></g><g id="tick-labels"><text x="28.560000000000002" y="531.6" fill="#5b5b5b" text-anchor="start" font-size="13.5">1980</text><text x="648.4000000000001" y="531.6" fill="#5b5b5b" text-anchor="end" font-size="13.5">2021</text><text x="104.2" y="531.6" fill="#5b5b5b" text-anchor="middle" font-size="13.5">1985</text><text x="179.7" y="531.6" fill="#5b5b5b" text-anchor="middle" font-size="13.5">1990</text><text x="255.3" y="531.6" fill="#5b5b5b" text-anchor="middle" font-size="13.5">1995</text><text x="330.9" y="531.6" fill="#5b5b5b" text-anchor="middle" font-size="13.5">2000</text><text x="406.5" y="531.6" fill="#5b5b5b" text-anchor="middle" font-size="13.5">2005</text><text x="482.1" y="531.6" fill="#5b5b5b" text-anchor="middle" font-size="13.5">2010</text><text x="557.7" y="531.6" fill="#5b5b5b" text-anchor="middle" font-size="13.5">2015</text></g></g><g id="vertical-axis" class="VerticalAxis"><g id="tick-labels"><text x="23.56" y="513.1" dy=".32em" text-anchor="end" fill="#5b5b5b" font-size="13.5">0</text><text x="23.56" y="437.6" dy=".32em" text-anchor="end" fill="#5b5b5b" font-size="13.5">1</text><text x="23.56" y="362" dy=".32em" text-anchor="end" fill="#5b5b5b" font-size="13.5">2</text><text x="23.56" y="286.5" dy=".32em" text-anchor="end" fill="#5b5b5b" font-size="13.5">3</text><text x="23.56" y="210.9" dy=".32em" text-anchor="end" fill="#5b5b5b" font-size="13.5">4</text><text x="23.56" y="135.4" dy=".32em" text-anchor="end" fill="#5b5b5b" font-size="13.5">5</text></g></g><g id="horizontal-grid-lines" class="AxisGridLines horizontalLines"><line id="0" x1="28.56" y1="513.1" x2="648.40" y2="513.1" stroke="#999" stroke-width="1"></line><line id="1" x1="28.56" y1="437.6" x2="648.40" y2="437.6" stroke="#ddd" stroke-width="1" stroke-dasharray="3,2"></line><line id="2" x1="28.56" y1="362" x2="648.40" y2="362" stroke="#ddd" stroke-width="1" stroke-dasharray="3,2"></line><line id="3" x1="28.56" y1="286.5" x2="648.40" y2="286.5" stroke="#ddd" stroke-width="1" stroke-dasharray="3,2"></line><line id="4" x1="28.56" y1="210.9" x2="648.40" y2="210.9" stroke="#ddd" stroke-width="1" stroke-dasharray="3,2"></line><line id="5" x1="28.56" y1="135.4" x2="648.40" y2="135.4" stroke="#ddd" stroke-width="1" stroke-dasharray="3,2"></line></g><g id="line-labels" class="LineLabels"><g id="connectors"><path id="Leukemia" d="M652.4,396.3 H660.9 V396.3 H669.4" stroke="#999" stroke-width="0.5" fill="none"></path><path id="Brain-and-nervous-system" d="M652.4,448.1 H656.65 V439.52 H669.4" stroke="#999" stroke-width="0.5" fill="none"></path><path id="Non-Hodgkin-lymphoma" d="M652.4,475.3 H660.9 V458.37 H669.4" stroke="#999" stroke-width="0.5" fill="none"></path><path id="Eye" d="M652.4,485.1 H665.15 V477.22 H669.4" stroke="#999" stroke-width="0.5" fill="none"></path><path id="Kidney" d="M652.4,487.5 H665.15 V496.07000000000005 H669.4" stroke="#999" stroke-width="0.5" fill="none"></path><path id="Liver" d="M652.4,490.1 H660.9 V514.9200000000001 H669.4" stroke="#999" stroke-width="0.5" fill="none"></path></g><g id="text-annotations"></g><g id="text-labels"><text x="673.4" y="401.295" font-size="13.50" fill="#6d3e91" opacity="1" text-anchor="start"><tspan font-weight="400">Leukemia</tspan></text><text x="673.4" y="444.515" font-size="13.50" fill="#2c8465" opacity="1" text-anchor="start"><tspan font-weight="400">Brain and nervous system</tspan></text><text x="673.4" y="463.365" font-size="13.50" fill="#883039" opacity="1" text-anchor="start"><tspan font-weight="400">Non-Hodgkin lymphoma</tspan></text><text x="673.4" y="482.21500000000003" font-size="13.50" fill="#b13507" opacity="1" text-anchor="start"><tspan font-weight="400">Eye</tspan></text><text x="673.4" y="501.06500000000005" font-size="13.50" fill="#996d39" opacity="1" text-anchor="start"><tspan font-weight="400">Kidney</tspan></text><text x="673.4" y="519.9150000000001" font-size="13.50" fill="#4c6a9c" opacity="1" text-anchor="start"><tspan font-weight="400">Liver</tspan></text></g></g><g id="lines"><path fill="none" stroke-linecap="butt" stroke-linejoin="round" stroke="#ffffff" id="outline__Non-Hodgkin-lymphoma" stroke-width="2.5" d="M28.6 423.1L43.7 424.7L58.8 426.7L73.9 428.9L89 430.7L104.2 432.3L119.3 433.4L134.4 434.3L149.5 435.4L164.6 436.5L179.7 437.4L194.9 437.6L210 438.2L225.1 439.1L240.2 440.3L255.3 441.5L270.4 443.3L285.6 444.9L300.7 447.4L315.8 449.4L330.9 451.1L346 453.6L361.2 455.5L376.3 457.4L391.4 459L406.5 460.4L421.6 461.3L436.7 462.6L451.9 463.3L467 464L482.1 464.9L497.2 465.1L512.3 465.4L527.5 465.3L542.6 465.5L557.7 466L572.8 466.8L587.9 468.6L603 470.3L618.2 471.8L633.3 473.4L648.4 475.3"></path><path fill="none" stroke-linecap="butt" stroke-linejoin="round" stroke="#883039" id="line__Non-Hodgkin-lymphoma" stroke-width="1.5" stroke-opacity="1" d="M28.6 423.1L43.7 424.7L58.8 426.7L73.9 428.9L89 430.7L104.2 432.3L119.3 433.4L134.4 434.3L149.5 435.4L164.6 436.5L179.7 437.4L194.9 437.6L210 438.2L225.1 439.1L240.2 440.3L255.3 441.5L270.4 443.3L285.6 444.9L300.7 447.4L315.8 449.4L330.9 451.1L346 453.6L361.2 455.5L376.3 457.4L391.4 459L406.5 460.4L421.6 461.3L436.7 462.6L451.9 463.3L467 464L482.1 464.9L497.2 465.1L512.3 465.4L527.5 465.3L542.6 465.5L557.7 466L572.8 466.8L587.9 468.6L603 470.3L618.2 471.8L633.3 473.4L648.4 475.3"></path><g id="markers__Non-Hodgkin-lymphoma"><circle id="1980" cx="28.6" cy="423.1" r="1.8" fill="#883039" opacity="1"></circle><circle id="1981" cx="43.7" cy="424.7" r="1.8" fill="#883039" opacity="1"></circle><circle id="1982" cx="58.8" cy="426.7" r="1.8" fill="#883039" opacity="1"></circle><circle id="1983" cx="73.9" cy="428.9" r="1.8" fill="#883039" opacity="1"></circle><circle id="1984" cx="89" cy="430.7" r="1.8" fill="#883039" opacity="1"></circle><circle id="1985" cx="104.2" cy="432.3" r="1.8" fill="#883039" opacity="1"></circle><circle id="1986" cx="119.3" cy="433.4" r="1.8" fill="#883039" opacity="1"></circle><circle id="1987" cx="134.4" cy="434.3" r="1.8" fill="#883039" opacity="1"></circle><circle id="1988" cx="149.5" cy="435.4" r="1.8" fill="#883039" opacity="1"></circle><circle id="1989" cx="164.6" cy="436.5" r="1.8" fill="#883039" opacity="1"></circle><circle id="1990" cx="179.7" cy="437.4" r="1.8" fill="#883039" opacity="1"></circle><circle id="1991" cx="194.9" cy="437.6" r="1.8" fill="#883039" opacity="1"></circle><circle id="1992" cx="210" cy="438.2" r="1.8" fill="#883039" opacity="1"></circle><circle id="1993" cx="225.1" cy="439.1" r="1.8" fill="#883039" opacity="1"></circle><circle id="1994" cx="240.2" cy="440.3" r="1.8" fill="#883039" opacity="1"></circle><circle id="1995" cx="255.3" cy="441.5" r="1.8" fill="#883039" opacity="1"></circle><circle id="1996" cx="270.4" cy="443.3" r="1.8" fill="#883039" opacity="1"></circle><circle id="1997" cx="285.6" cy="444.9" r="1.8" fill="#883039" opacity="1"></circle><circle id="1998" cx="300.7" cy="447.4" r="1.8" fill="#883039" opacity="1"></circle><circle id="1999" cx="315.8" cy="449.4" r="1.8" fill="#883039" opacity="1"></circle><circle id="2000" cx="330.9" cy="451.1" r="1.8" fill="#883039" opacity="1"></circle><circle id="2001" cx="346" cy="453.6" r="1.8" fill="#883039" opacity="1"></circle><circle id="2002" cx="361.2" cy="455.5" r="1.8" fill="#883039" opacity="1"></circle><circle id="2003" cx="376.3" cy="457.4" r="1.8" fill="#883039" opacity="1"></circle><circle id="2004" cx="391.4" cy="459" r="1.8" fill="#883039" opacity="1"></circle><circle id="2005" cx="406.5" cy="460.4" r="1.8" fill="#883039" opacity="1"></circle><circle id="2006" cx="421.6" cy="461.3" r="1.8" fill="#883039" opacity="1"></circle><circle id="2007" cx="436.7" cy="462.6" r="1.8" fill="#883039" opacity="1"></circle><circle id="2008" cx="451.9" cy="463.3" r="1.8" fill="#883039" opacity="1"></circle><circle id="2009" cx="467" cy="464" r="1.8" fill="#883039" opacity="1"></circle><circle id="2010" cx="482.1" cy="464.9" r="1.8" fill="#883039" opacity="1"></circle><circle id="2011" cx="497.2" cy="465.1" r="1.8" fill="#883039" opacity="1"></circle><circle id="2012" cx="512.3" cy="465.4" r="1.8" fill="#883039" opacity="1"></circle><circle id="2013" cx="527.5" cy="465.3" r="1.8" fill="#883039" opacity="1"></circle><circle id="2014" cx="542.6" cy="465.5" r="1.8" fill="#883039" opacity="1"></circle><circle id="2015" cx="557.7" cy="466" r="1.8" fill="#883039" opacity="1"></circle><circle id="2016" cx="572.8" cy="466.8" r="1.8" fill="#883039" opacity="1"></circle><circle id="2017" cx="587.9" cy="468.6" r="1.8" fill="#883039" opacity="1"></circle><circle id="2018" cx="603" cy="470.3" r="1.8" fill="#883039" opacity="1"></circle><circle id="2019" cx="618.2" cy="471.8" r="1.8" fill="#883039" opacity="1"></circle><circle id="2020" cx="633.3" cy="473.4" r="1.8" fill="#883039" opacity="1"></circle><circle id="2021" cx="648.4" cy="475.3" r="1.8" fill="#883039" opacity="1"></circle></g><path fill="none" stroke-linecap="butt" stroke-linejoin="round" stroke="#ffffff" id="outline__Leukemia" stroke-width="2.5" d="M28.6 106.2L43.7 114.9L58.8 124.8L73.9 132.9L89 137.9L104.2 141.2L119.3 144.3L134.4 147.4L149.5 151.1L164.6 154.6L179.7 158.2L194.9 160.9L210 167.8L225.1 178.2L240.2 189L255.3 200.2L270.4 211.6L285.6 222.6L300.7 235.7L315.8 247.4L330.9 257.7L346 269.9L361.2 281.5L376.3 292L391.4 301.8L406.5 309.7L421.6 317.6L436.7 325L451.9 329.8L467 335.7L482.1 342.4L497.2 347.5L512.3 351.6L527.5 354.7L542.6 357.1L557.7 359.9L572.8 363.8L587.9 367.3L603 371.5L618.2 375.4L633.3 389.9L648.4 396.3"></path><path fill="none" stroke-linecap="butt" stroke-linejoin="round" stroke="#6D3E91" id="line__Leukemia" stroke-width="1.5" stroke-opacity="1" d="M28.6 106.2L43.7 114.9L58.8 124.8L73.9 132.9L89 137.9L104.2 141.2L119.3 144.3L134.4 147.4L149.5 151.1L164.6 154.6L179.7 158.2L194.9 160.9L210 167.8L225.1 178.2L240.2 189L255.3 200.2L270.4 211.6L285.6 222.6L300.7 235.7L315.8 247.4L330.9 257.7L346 269.9L361.2 281.5L376.3 292L391.4 301.8L406.5 309.7L421.6 317.6L436.7 325L451.9 329.8L467 335.7L482.1 342.4L497.2 347.5L512.3 351.6L527.5 354.7L542.6 357.1L557.7 359.9L572.8 363.8L587.9 367.3L603 371.5L618.2 375.4L633.3 389.9L648.4 396.3"></path><g id="markers__Leukemia"><circle id="1980" cx="28.6" cy="106.2" r="1.8" fill="#6D3E91" opacity="1"></circle><circle id="1981" cx="43.7" cy="114.9" r="1.8" fill="#6D3E91" opacity="1"></circle><circle id="1982" cx="58.8" cy="124.8" r="1.8" fill="#6D3E91" opacity="1"></circle><circle id="1983" cx="73.9" cy="132.9" r="1.8" fill="#6D3E91" opacity="1"></circle><circle id="1984" cx="89" cy="137.9" r="1.8" fill="#6D3E91" opacity="1"></circle><circle id="1985" cx="104.2" cy="141.2" r="1.8" fill="#6D3E91" opacity="1"></circle><circle id="1986" cx="119.3" cy="144.3" r="1.8" fill="#6D3E91" opacity="1"></circle><circle id="1987" cx="134.4" cy="147.4" r="1.8" fill="#6D3E91" opacity="1"></circle><circle id="1988" cx="149.5" cy="151.1" r="1.8" fill="#6D3E91" opacity="1"></circle><circle id="1989" cx="164.6" cy="154.6" r="1.8" fill="#6D3E91" opacity="1"></circle><circle id="1990" cx="179.7" cy="158.2" r="1.8" fill="#6D3E91" opacity="1"></circle><circle id="1991" cx="194.9" cy="160.9" r="1.8" fill="#6D3E91" opacity="1"></circle><circle id="1992" cx="210" cy="167.8" r="1.8" fill="#6D3E91" opacity="1"></circle><circle id="1993" cx="225.1" cy="178.2" r="1.8" fill="#6D3E91" opacity="1"></circle><circle id="1994" cx="240.2" cy="189" r="1.8" fill="#6D3E91" opacity="1"></circle><circle id="1995" cx="255.3" cy="200.2" r="1.8" fill="#6D3E91" opacity="1"></circle><circle id="1996" cx="270.4" cy="211.6" r="1.8" fill="#6D3E91" opacity="1"></circle><circle id="1997" cx="285.6" cy="222.6" r="1.8" fill="#6D3E91" opacity="1"></circle><circle id="1998" cx="300.7" cy="235.7" r="1.8" fill="#6D3E91" opacity="1"></circle><circle id="1999" cx="315.8" cy="247.4" r="1.8" fill="#6D3E91" opacity="1"></circle><circle id="2000" cx="330.9" cy="257.7" r="1.8" fill="#6D3E91" opacity="1"></circle><circle id="2001" cx="346" cy="269.9" r="1.8" fill="#6D3E91" opacity="1"></circle><circle id="2002" cx="361.2" cy="281.5" r="1.8" fill="#6D3E91" opacity="1"></circle><circle id="2003" cx="376.3" cy="292" r="1.8" fill="#6D3E91" opacity="1"></circle><circle id="2004" cx="391.4" cy="301.8" r="1.8" fill="#6D3E91" opacity="1"></circle><circle id="2005" cx="406.5" cy="309.7" r="1.8" fill="#6D3E91" opacity="1"></circle><circle id="2006" cx="421.6" cy="317.6" r="1.8" fill="#6D3E91" opacity="1"></circle><circle id="2007" cx="436.7" cy="325" r="1.8" fill="#6D3E91" opacity="1"></circle><circle id="2008" cx="451.9" cy="329.8" r="1.8" fill="#6D3E91" opacity="1"></circle><circle id="2009" cx="467" cy="335.7" r="1.8" fill="#6D3E91" opacity="1"></circle><circle id="2010" cx="482.1" cy="342.4" r="1.8" fill="#6D3E91" opacity="1"></circle><circle id="2011" cx="497.2" cy="347.5" r="1.8" fill="#6D3E91" opacity="1"></circle><circle id="2012" cx="512.3" cy="351.6" r="1.8" fill="#6D3E91" opacity="1"></circle><circle id="2013" cx="527.5" cy="354.7" r="1.8" fill="#6D3E91" opacity="1"></circle><circle id="2014" cx="542.6" cy="357.1" r="1.8" fill="#6D3E91" opacity="1"></circle><circle id="2015" cx="557.7" cy="359.9" r="1.8" fill="#6D3E91" opacity="1"></circle><circle id="2016" cx="572.8" cy="363.8" r="1.8" fill="#6D3E91" opacity="1"></circle><circle id="2017" cx="587.9" cy="367.3" r="1.8" fill="#6D3E91" opacity="1"></circle><circle id="2018" cx="603" cy="371.5" r="1.8" fill="#6D3E91" opacity="1"></circle><circle id="2019" cx="618.2" cy="375.4" r="1.8" fill="#6D3E91" opacity="1"></circle><circle id="2020" cx="633.3" cy="389.9" r="1.8" fill="#6D3E91" opacity="1"></circle><circle id="2021" cx="648.4" cy="396.3" r="1.8" fill="#6D3E91" opacity="1"></circle></g><path fill="none" stroke-linecap="butt" stroke-linejoin="round" stroke="#ffffff" id="outline__Brain-and-nervous-system" stroke-width="2.5" d="M28.6 394.7L43.7 395.9L58.8 397.1L73.9 398.1L89 397.6L104.2 396.9L119.3 396L134.4 394.4L149.5 393L164.6 391.8L179.7 390.8L194.9 390L210 390.9L225.1 392.8L240.2 395.1L255.3 397.4L270.4 399.7L285.6 402.2L300.7 405.8L315.8 409.2L330.9 412L346 415.5L361.2 419.1L376.3 422.7L391.4 425.3L406.5 427.6L421.6 429.5L436.7 431.2L451.9 432.1L467 433.5L482.1 434.8L497.2 435.6L512.3 436.3L527.5 436.4L542.6 436.5L557.7 436.6L572.8 437L587.9 437.3L603 438.3L618.2 438.9L633.3 445.9L648.4 448.1"></path><path fill="none" stroke-linecap="butt" stroke-linejoin="round" stroke="#2C8465" id="line__Brain-and-nervous-system" stroke-width="1.5" stroke-opacity="1" d="M28.6 394.7L43.7 395.9L58.8 397.1L73.9 398.1L89 397.6L104.2 396.9L119.3 396L134.4 394.4L149.5 393L164.6 391.8L179.7 390.8L194.9 390L210 390.9L225.1 392.8L240.2 395.1L255.3 397.4L270.4 399.7L285.6 402.2L300.7 405.8L315.8 409.2L330.9 412L346 415.5L361.2 419.1L376.3 422.7L391.4 425.3L406.5 427.6L421.6 429.5L436.7 431.2L451.9 432.1L467 433.5L482.1 434.8L497.2 435.6L512.3 436.3L527.5 436.4L542.6 436.5L557.7 436.6L572.8 437L587.9 437.3L603 438.3L618.2 438.9L633.3 445.9L648.4 448.1"></path><g id="markers__Brain-and-nervous-system"><circle id="1980" cx="28.6" cy="394.7" r="1.8" fill="#2C8465" opacity="1"></circle><circle id="1981" cx="43.7" cy="395.9" r="1.8" fill="#2C8465" opacity="1"></circle><circle id="1982" cx="58.8" cy="397.1" r="1.8" fill="#2C8465" opacity="1"></circle><circle id="1983" cx="73.9" cy="398.1" r="1.8" fill="#2C8465" opacity="1"></circle><circle id="1984" cx="89" cy="397.6" r="1.8" fill="#2C8465" opacity="1"></circle><circle id="1985" cx="104.2" cy="396.9" r="1.8" fill="#2C8465" opacity="1"></circle><circle id="1986" cx="119.3" cy="396" r="1.8" fill="#2C8465" opacity="1"></circle><circle id="1987" cx="134.4" cy="394.4" r="1.8" fill="#2C8465" opacity="1"></circle><circle id="1988" cx="149.5" cy="393" r="1.8" fill="#2C8465" opacity="1"></circle><circle id="1989" cx="164.6" cy="391.8" r="1.8" fill="#2C8465" opacity="1"></circle><circle id="1990" cx="179.7" cy="390.8" r="1.8" fill="#2C8465" opacity="1"></circle><circle id="1991" cx="194.9" cy="390" r="1.8" fill="#2C8465" opacity="1"></circle><circle id="1992" cx="210" cy="390.9" r="1.8" fill="#2C8465" opacity="1"></circle><circle id="1993" cx="225.1" cy="392.8" r="1.8" fill="#2C8465" opacity="1"></circle><circle id="1994" cx="240.2" cy="395.1" r="1.8" fill="#2C8465" opacity="1"></circle><circle id="1995" cx="255.3" cy="397.4" r="1.8" fill="#2C8465" opacity="1"></circle><circle id="1996" cx="270.4" cy="399.7" r="1.8" fill="#2C8465" opacity="1"></circle><circle id="1997" cx="285.6" cy="402.2" r="1.8" fill="#2C8465" opacity="1"></circle><circle id="1998" cx="300.7" cy="405.8" r="1.8" fill="#2C8465" opacity="1"></circle><circle id="1999" cx="315.8" cy="409.2" r="1.8" fill="#2C8465" opacity="1"></circle><circle id="2000" cx="330.9" cy="412" r="1.8" fill="#2C8465" opacity="1"></circle><circle id="2001" cx="346" cy="415.5" r="1.8" fill="#2C8465" opacity="1"></circle><circle id="2002" cx="361.2" cy="419.1" r="1.8" fill="#2C8465" opacity="1"></circle><circle id="2003" cx="376.3" cy="422.7" r="1.8" fill="#2C8465" opacity="1"></circle><circle id="2004" cx="391.4" cy="425.3" r="1.8" fill="#2C8465" opacity="1"></circle><circle id="2005" cx="406.5" cy="427.6" r="1.8" fill="#2C8465" opacity="1"></circle><circle id="2006" cx="421.6" cy="429.5" r="1.8" fill="#2C8465" opacity="1"></circle><circle id="2007" cx="436.7" cy="431.2" r="1.8" fill="#2C8465" opacity="1"></circle><circle id="2008" cx="451.9" cy="432.1" r="1.8" fill="#2C8465" opacity="1"></circle><circle id="2009" cx="467" cy="433.5" r="1.8" fill="#2C8465" opacity="1"></circle><circle id="2010" cx="482.1" cy="434.8" r="1.8" fill="#2C8465" opacity="1"></circle><circle id="2011" cx="497.2" cy="435.6" r="1.8" fill="#2C8465" opacity="1"></circle><circle id="2012" cx="512.3" cy="436.3" r="1.8" fill="#2C8465" opacity="1"></circle><circle id="2013" cx="527.5" cy="436.4" r="1.8" fill="#2C8465" opacity="1"></circle><circle id="2014" cx="542.6" cy="436.5" r="1.8" fill="#2C8465" opacity="1"></circle><circle id="2015" cx="557.7" cy="436.6" r="1.8" fill="#2C8465" opacity="1"></circle><circle id="2016" cx="572.8" cy="437" r="1.8" fill="#2C8465" opacity="1"></circle><circle id="2017" cx="587.9" cy="437.3" r="1.8" fill="#2C8465" opacity="1"></circle><circle id="2018" cx="603" cy="438.3" r="1.8" fill="#2C8465" opacity="1"></circle><circle id="2019" cx="618.2" cy="438.9" r="1.8" fill="#2C8465" opacity="1"></circle><circle id="2020" cx="633.3" cy="445.9" r="1.8" fill="#2C8465" opacity="1"></circle><circle id="2021" cx="648.4" cy="448.1" r="1.8" fill="#2C8465" opacity="1"></circle></g><path fill="none" stroke-linecap="butt" stroke-linejoin="round" stroke="#ffffff" id="outline__Kidney" stroke-width="2.5" d="M28.6 473.3L43.7 473.5L58.8 474L73.9 474.5L89 474.6L104.2 474.6L119.3 474.6L134.4 474.6L149.5 474.6L164.6 474.8L179.7 474.8L194.9 474.8L210 475.3L225.1 476.4L240.2 477.5L255.3 478.4L270.4 479.2L285.6 479.8L300.7 480.6L315.8 481L330.9 481.3L346 481.5L361.2 481.9L376.3 482.4L391.4 482.9L406.5 483.2L421.6 483.3L436.7 483.5L451.9 483.8L467 483.9L482.1 484.1L497.2 484.2L512.3 484.1L527.5 483.9L542.6 483.7L557.7 483.7L572.8 483.7L587.9 484.2L603 484.8L618.2 485.3L633.3 486.7L648.4 487.5"></path><path fill="none" stroke-linecap="butt" stroke-linejoin="round" stroke="#996D39" id="line__Kidney" stroke-width="1.5" stroke-opacity="1" d="M28.6 473.3L43.7 473.5L58.8 474L73.9 474.5L89 474.6L104.2 474.6L119.3 474.6L134.4 474.6L149.5 474.6L164.6 474.8L179.7 474.8L194.9 474.8L210 475.3L225.1 476.4L240.2 477.5L255.3 478.4L270.4 479.2L285.6 479.8L300.7 480.6L315.8 481L330.9 481.3L346 481.5L361.2 481.9L376.3 482.4L391.4 482.9L406.5 483.2L421.6 483.3L436.7 483.5L451.9 483.8L467 483.9L482.1 484.1L497.2 484.2L512.3 484.1L527.5 483.9L542.6 483.7L557.7 483.7L572.8 483.7L587.9 484.2L603 484.8L618.2 485.3L633.3 486.7L648.4 487.5"></path><g id="markers__Kidney"><circle id="1980" cx="28.6" cy="473.3" r="1.8" fill="#996D39" opacity="1"></circle><circle id="1981" cx="43.7" cy="473.5" r="1.8" fill="#996D39" opacity="1"></circle><circle id="1982" cx="58.8" cy="474" r="1.8" fill="#996D39" opacity="1"></circle><circle id="1983" cx="73.9" cy="474.5" r="1.8" fill="#996D39" opacity="1"></circle><circle id="1984" cx="89" cy="474.6" r="1.8" fill="#996D39" opacity="1"></circle><circle id="1985" cx="104.2" cy="474.6" r="1.8" fill="#996D39" opacity="1"></circle><circle id="1986" cx="119.3" cy="474.6" r="1.8" fill="#996D39" opacity="1"></circle><circle id="1987" cx="134.4" cy="474.6" r="1.8" fill="#996D39" opacity="1"></circle><circle id="1988" cx="149.5" cy="474.6" r="1.8" fill="#996D39" opacity="1"></circle><circle id="1989" cx="164.6" cy="474.8" r="1.8" fill="#996D39" opacity="1"></circle><circle id="1990" cx="179.7" cy="474.8" r="1.8" fill="#996D39" opacity="1"></circle><circle id="1991" cx="194.9" cy="474.8" r="1.8" fill="#996D39" opacity="1"></circle><circle id="1992" cx="210" cy="475.3" r="1.8" fill="#996D39" opacity="1"></circle><circle id="1993" cx="225.1" cy="476.4" r="1.8" fill="#996D39" opacity="1"></circle><circle id="1994" cx="240.2" cy="477.5" r="1.8" fill="#996D39" opacity="1"></circle><circle id="1995" cx="255.3" cy="478.4" r="1.8" fill="#996D39" opacity="1"></circle><circle id="1996" cx="270.4" cy="479.2" r="1.8" fill="#996D39" opacity="1"></circle><circle id="1997" cx="285.6" cy="479.8" r="1.8" fill="#996D39" opacity="1"></circle><circle id="1998" cx="300.7" cy="480.6" r="1.8" fill="#996D39" opacity="1"></circle><circle id="1999" cx="315.8" cy="481" r="1.8" fill="#996D39" opacity="1"></circle><circle id="2000" cx="330.9" cy="481.3" r="1.8" fill="#996D39" opacity="1"></circle><circle id="2001" cx="346" cy="481.5" r="1.8" fill="#996D39" opacity="1"></circle><circle id="2002" cx="361.2" cy="481.9" r="1.8" fill="#996D39" opacity="1"></circle><circle id="2003" cx="376.3" cy="482.4" r="1.8" fill="#996D39" opacity="1"></circle><circle id="2004" cx="391.4" cy="482.9" r="1.8" fill="#996D39" opacity="1"></circle><circle id="2005" cx="406.5" cy="483.2" r="1.8" fill="#996D39" opacity="1"></circle><circle id="2006" cx="421.6" cy="483.3" r="1.8" fill="#996D39" opacity="1"></circle><circle id="2007" cx="436.7" cy="483.5" r="1.8" fill="#996D39" opacity="1"></circle><circle id="2008" cx="451.9" cy="483.8" r="1.8" fill="#996D39" opacity="1"></circle><circle id="2009" cx="467" cy="483.9" r="1.8" fill="#996D39" opacity="1"></circle><circle id="2010" cx="482.1" cy="484.1" r="1.8" fill="#996D39" opacity="1"></circle><circle id="2011" cx="497.2" cy="484.2" r="1.8" fill="#996D39" opacity="1"></circle><circle id="2012" cx="512.3" cy="484.1" r="1.8" fill="#996D39" opacity="1"></circle><circle id="2013" cx="527.5" cy="483.9" r="1.8" fill="#996D39" opacity="1"></circle><circle id="2014" cx="542.6" cy="483.7" r="1.8" fill="#996D39" opacity="1"></circle><circle id="2015" cx="557.7" cy="483.7" r="1.8" fill="#996D39" opacity="1"></circle><circle id="2016" cx="572.8" cy="483.7" r="1.8" fill="#996D39" opacity="1"></circle><circle id="2017" cx="587.9" cy="484.2" r="1.8" fill="#996D39" opacity="1"></circle><circle id="2018" cx="603" cy="484.8" r="1.8" fill="#996D39" opacity="1"></circle><circle id="2019" cx="618.2" cy="485.3" r="1.8" fill="#996D39" opacity="1"></circle><circle id="2020" cx="633.3" cy="486.7" r="1.8" fill="#996D39" opacity="1"></circle><circle id="2021" cx="648.4" cy="487.5" r="1.8" fill="#996D39" opacity="1"></circle></g><path fill="none" stroke-linecap="butt" stroke-linejoin="round" stroke="#ffffff" id="outline__Eye" stroke-width="2.5" d="M28.6 478L43.7 477.9L58.8 477.7L73.9 477.9L89 478L104.2 478L119.3 478.2L134.4 478.4L149.5 478.5L164.6 478.8L179.7 478.9L194.9 479.3L210 479.3L225.1 479.5L240.2 479.6L255.3 479.6L270.4 479.8L285.6 480L300.7 480.3L315.8 480.5L330.9 480.6L346 481.2L361.2 481.4L376.3 481.3L391.4 481.3L406.5 481.2L421.6 480.9L436.7 480.8L451.9 481L467 481.1L482.1 481.3L497.2 481L512.3 480.8L527.5 480.5L542.6 480.7L557.7 481.2L572.8 481.8L587.9 482.4L603 483L618.2 483.3L633.3 484.5L648.4 485.1"></path><path fill="none" stroke-linecap="butt" stroke-linejoin="round" stroke="#B13507" id="line__Eye" stroke-width="1.5" stroke-opacity="1" d="M28.6 478L43.7 477.9L58.8 477.7L73.9 477.9L89 478L104.2 478L119.3 478.2L134.4 478.4L149.5 478.5L164.6 478.8L179.7 478.9L194.9 479.3L210 479.3L225.1 479.5L240.2 479.6L255.3 479.6L270.4 479.8L285.6 480L300.7 480.3L315.8 480.5L330.9 480.6L346 481.2L361.2 481.4L376.3 481.3L391.4 481.3L406.5 481.2L421.6 480.9L436.7 480.8L451.9 481L467 481.1L482.1 481.3L497.2 481L512.3 480.8L527.5 480.5L542.6 480.7L557.7 481.2L572.8 481.8L587.9 482.4L603 483L618.2 483.3L633.3 484.5L648.4 485.1"></path><g id="markers__Eye"><circle id="1980" cx="28.6" cy="478" r="1.8" fill="#B13507" opacity="1"></circle><circle id="1981" cx="43.7" cy="477.9" r="1.8" fill="#B13507" opacity="1"></circle><circle id="1982" cx="58.8" cy="477.7" r="1.8" fill="#B13507" opacity="1"></circle><circle id="1983" cx="73.9" cy="477.9" r="1.8" fill="#B13507" opacity="1"></circle><circle id="1984" cx="89" cy="478" r="1.8" fill="#B13507" opacity="1"></circle><circle id="1985" cx="104.2" cy="478" r="1.8" fill="#B13507" opacity="1"></circle><circle id="1986" cx="119.3" cy="478.2" r="1.8" fill="#B13507" opacity="1"></circle><circle id="1987" cx="134.4" cy="478.4" r="1.8" fill="#B13507" opacity="1"></circle><circle id="1988" cx="149.5" cy="478.5" r="1.8" fill="#B13507" opacity="1"></circle><circle id="1989" cx="164.6" cy="478.8" r="1.8" fill="#B13507" opacity="1"></circle><circle id="1990" cx="179.7" cy="478.9" r="1.8" fill="#B13507" opacity="1"></circle><circle id="1991" cx="194.9" cy="479.3" r="1.8" fill="#B13507" opacity="1"></circle><circle id="1992" cx="210" cy="479.3" r="1.8" fill="#B13507" opacity="1"></circle><circle id="1993" cx="225.1" cy="479.5" r="1.8" fill="#B13507" opacity="1"></circle><circle id="1994" cx="240.2" cy="479.6" r="1.8" fill="#B13507" opacity="1"></circle><circle id="1995" cx="255.3" cy="479.6" r="1.8" fill="#B13507" opacity="1"></circle><circle id="1996" cx="270.4" cy="479.8" r="1.8" fill="#B13507" opacity="1"></circle><circle id="1997" cx="285.6" cy="480" r="1.8" fill="#B13507" opacity="1"></circle><circle id="1998" cx="300.7" cy="480.3" r="1.8" fill="#B13507" opacity="1"></circle><circle id="1999" cx="315.8" cy="480.5" r="1.8" fill="#B13507" opacity="1"></circle><circle id="2000" cx="330.9" cy="480.6" r="1.8" fill="#B13507" opacity="1"></circle><circle id="2001" cx="346" cy="481.2" r="1.8" fill="#B13507" opacity="1"></circle><circle id="2002" cx="361.2" cy="481.4" r="1.8" fill="#B13507" opacity="1"></circle><circle id="2003" cx="376.3" cy="481.3" r="1.8" fill="#B13507" opacity="1"></circle><circle id="2004" cx="391.4" cy="481.3" r="1.8" fill="#B13507" opacity="1"></circle><circle id="2005" cx="406.5" cy="481.2" r="1.8" fill="#B13507" opacity="1"></circle><circle id="2006" cx="421.6" cy="480.9" r="1.8" fill="#B13507" opacity="1"></circle><circle id="2007" cx="436.7" cy="480.8" r="1.8" fill="#B13507" opacity="1"></circle><circle id="2008" cx="451.9" cy="481" r="1.8" fill="#B13507" opacity="1"></circle><circle id="2009" cx="467" cy="481.1" r="1.8" fill="#B13507" opacity="1"></circle><circle id="2010" cx="482.1" cy="481.3" r="1.8" fill="#B13507" opacity="1"></circle><circle id="2011" cx="497.2" cy="481" r="1.8" fill="#B13507" opacity="1"></circle><circle id="2012" cx="512.3" cy="480.8" r="1.8" fill="#B13507" opacity="1"></circle><circle id="2013" cx="527.5" cy="480.5" r="1.8" fill="#B13507" opacity="1"></circle><circle id="2014" cx="542.6" cy="480.7" r="1.8" fill="#B13507" opacity="1"></circle><circle id="2015" cx="557.7" cy="481.2" r="1.8" fill="#B13507" opacity="1"></circle><circle id="2016" cx="572.8" cy="481.8" r="1.8" fill="#B13507" opacity="1"></circle><circle id="2017" cx="587.9" cy="482.4" r="1.8" fill="#B13507" opacity="1"></circle><circle id="2018" cx="603" cy="483" r="1.8" fill="#B13507" opacity="1"></circle><circle id="2019" cx="618.2" cy="483.3" r="1.8" fill="#B13507" opacity="1"></circle><circle id="2020" cx="633.3" cy="484.5" r="1.8" fill="#B13507" opacity="1"></circle><circle id="2021" cx="648.4" cy="485.1" r="1.8" fill="#B13507" opacity="1"></circle></g><path fill="none" stroke-linecap="butt" stroke-linejoin="round" stroke="#ffffff" id="outline__Liver" stroke-width="2.5" d="M28.6 455.4L43.7 456.6L58.8 458L73.9 459.2L89 459.8L104.2 460.3L119.3 461.1L134.4 461.9L149.5 462.5L164.6 463L179.7 463.4L194.9 463.9L210 464.5L225.1 465L240.2 465.4L255.3 465.8L270.4 466.6L285.6 467.7L300.7 469.1L315.8 470.3L330.9 471.5L346 472.8L361.2 474.3L376.3 476.2L391.4 477.7L406.5 478.8L421.6 479.6L436.7 480.5L451.9 481L467 481.8L482.1 482.6L497.2 483.3L512.3 483.7L527.5 483.8L542.6 484.2L557.7 484.7L572.8 485.3L587.9 486.3L603 487.3L618.2 488.2L633.3 489.1L648.4 490.1"></path><path fill="none" stroke-linecap="butt" stroke-linejoin="round" stroke="#4C6A9C" id="line__Liver" stroke-width="1.5" stroke-opacity="1" d="M28.6 455.4L43.7 456.6L58.8 458L73.9 459.2L89 459.8L104.2 460.3L119.3 461.1L134.4 461.9L149.5 462.5L164.6 463L179.7 463.4L194.9 463.9L210 464.5L225.1 465L240.2 465.4L255.3 465.8L270.4 466.6L285.6 467.7L300.7 469.1L315.8 470.3L330.9 471.5L346 472.8L361.2 474.3L376.3 476.2L391.4 477.7L406.5 478.8L421.6 479.6L436.7 480.5L451.9 481L467 481.8L482.1 482.6L497.2 483.3L512.3 483.7L527.5 483.8L542.6 484.2L557.7 484.7L572.8 485.3L587.9 486.3L603 487.3L618.2 488.2L633.3 489.1L648.4 490.1"></path><g id="markers__Liver"><circle id="1980" cx="28.6" cy="455.4" r="1.8" fill="#4C6A9C" opacity="1"></circle><circle id="1981" cx="43.7" cy="456.6" r="1.8" fill="#4C6A9C" opacity="1"></circle><circle id="1982" cx="58.8" cy="458" r="1.8" fill="#4C6A9C" opacity="1"></circle><circle id="1983" cx="73.9" cy="459.2" r="1.8" fill="#4C6A9C" opacity="1"></circle><circle id="1984" cx="89" cy="459.8" r="1.8" fill="#4C6A9C" opacity="1"></circle><circle id="1985" cx="104.2" cy="460.3" r="1.8" fill="#4C6A9C" opacity="1"></circle><circle id="1986" cx="119.3" cy="461.1" r="1.8" fill="#4C6A9C" opacity="1"></circle><circle id="1987" cx="134.4" cy="461.9" r="1.8" fill="#4C6A9C" opacity="1"></circle><circle id="1988" cx="149.5" cy="462.5" r="1.8" fill="#4C6A9C" opacity="1"></circle><circle id="1989" cx="164.6" cy="463" r="1.8" fill="#4C6A9C" opacity="1"></circle><circle id="1990" cx="179.7" cy="463.4" r="1.8" fill="#4C6A9C" opacity="1"></circle><circle id="1991" cx="194.9" cy="463.9" r="1.8" fill="#4C6A9C" opacity="1"></circle><circle id="1992" cx="210" cy="464.5" r="1.8" fill="#4C6A9C" opacity="1"></circle><circle id="1993" cx="225.1" cy="465" r="1.8" fill="#4C6A9C" opacity="1"></circle><circle id="1994" cx="240.2" cy="465.4" r="1.8" fill="#4C6A9C" opacity="1"></circle><circle id="1995" cx="255.3" cy="465.8" r="1.8" fill="#4C6A9C" opacity="1"></circle><circle id="1996" cx="270.4" cy="466.6" r="1.8" fill="#4C6A9C" opacity="1"></circle><circle id="1997" cx="285.6" cy="467.7" r="1.8" fill="#4C6A9C" opacity="1"></circle><circle id="1998" cx="300.7" cy="469.1" r="1.8" fill="#4C6A9C" opacity="1"></circle><circle id="1999" cx="315.8" cy="470.3" r="1.8" fill="#4C6A9C" opacity="1"></circle><circle id="2000" cx="330.9" cy="471.5" r="1.8" fill="#4C6A9C" opacity="1"></circle><circle id="2001" cx="346" cy="472.8" r="1.8" fill="#4C6A9C" opacity="1"></circle><circle id="2002" cx="361.2" cy="474.3" r="1.8" fill="#4C6A9C" opacity="1"></circle><circle id="2003" cx="376.3" cy="476.2" r="1.8" fill="#4C6A9C" opacity="1"></circle><circle id="2004" cx="391.4" cy="477.7" r="1.8" fill="#4C6A9C" opacity="1"></circle><circle id="2005" cx="406.5" cy="478.8" r="1.8" fill="#4C6A9C" opacity="1"></circle><circle id="2006" cx="421.6" cy="479.6" r="1.8" fill="#4C6A9C" opacity="1"></circle><circle id="2007" cx="436.7" cy="480.5" r="1.8" fill="#4C6A9C" opacity="1"></circle><circle id="2008" cx="451.9" cy="481" r="1.8" fill="#4C6A9C" opacity="1"></circle><circle id="2009" cx="467" cy="481.8" r="1.8" fill="#4C6A9C" opacity="1"></circle><circle id="2010" cx="482.1" cy="482.6" r="1.8" fill="#4C6A9C" opacity="1"></circle><circle id="2011" cx="497.2" cy="483.3" r="1.8" fill="#4C6A9C" opacity="1"></circle><circle id="2012" cx="512.3" cy="483.7" r="1.8" fill="#4C6A9C" opacity="1"></circle><circle id="2013" cx="527.5" cy="483.8" r="1.8" fill="#4C6A9C" opacity="1"></circle><circle id="2014" cx="542.6" cy="484.2" r="1.8" fill="#4C6A9C" opacity="1"></circle><circle id="2015" cx="557.7" cy="484.7" r="1.8" fill="#4C6A9C" opacity="1"></circle><circle id="2016" cx="572.8" cy="485.3" r="1.8" fill="#4C6A9C" opacity="1"></circle><circle id="2017" cx="587.9" cy="486.3" r="1.8" fill="#4C6A9C" opacity="1"></circle><circle id="2018" cx="603" cy="487.3" r="1.8" fill="#4C6A9C" opacity="1"></circle><circle id="2019" cx="618.2" cy="488.2" r="1.8" fill="#4C6A9C" opacity="1"></circle><circle id="2020" cx="633.3" cy="489.1" r="1.8" fill="#4C6A9C" opacity="1"></circle><circle id="2021" cx="648.4" cy="490.1" r="1.8" fill="#4C6A9C" opacity="1"></circle></g></g></g><g id="footer" class="SourcesFooter" style="fill:#5b5b5b"><g id="sources" class="markdown-text-wrap"><text x="16.0" y="562.7" style="font-size:13.5px;line-height:1.2"><tspan x="16" y="562.7"><tspan style="font-weight:700">Data source:</tspan> IHME, Global Burden of Disease (2024)</tspan></text></g><g id="note" class="markdown-text-wrap"><text x="16.0" y="580.9" style="font-size:13.5px;line-height:1.2"><tspan x="16" y="580.9"><tspan style="font-weight:700">Note:</tspan> Only cancer types with a global death rate above 0.1 in the relevant age group for the latest available year are shown.</tspan></text></g><text id="origin-url" font-size="13.50" x="616.9" y="562.7"><tspan x="616.92" y="562.695"><a target="_blank" style="fill: #5b5b5b;" href="https://ourworldindata.org/cancer">OurWorldinData.org/cancer</a> | <a target="_blank" style="fill: #5b5b5b;" href="https://creativecommons.org/licenses/by/4.0/">CC BY</a></tspan></text></g></svg>