<svg xmlns="http://www.w3.org/2000/svg" version="1.1" style="font-family:Lato, &#x27;Helvetica Neue&#x27;, Helvetica, Arial, &#x27;Liberation Sans&#x27;, sans-serif;font-size:18px;background-color:white;text-rendering:geometricPrecision;-webkit-font-smoothing:antialiased;overflow:visible" width="850" height="600" viewBox="0 0 850 600"><defs><style>@import url(http://localhost:3030/fonts.css)</style></defs><defs><pattern id="noDataPattern" patternUnits="userSpaceOnUse" width="4" height="4" patternTransform="rotate(-45 2 2)"><path d="M -1,2 l 6,0" stroke="#ccc" stroke-width="0.7"></path></pattern></defs><rect class="background-fill" fill="white" width="850" height="600"></rect><g class="HeaderView"><g transform="translate(769, 16) scale(1)"><svg className="owidLogo" xmlns="http://www.w3.org/2000/svg" width="65" height="36" viewBox="0 0 65 36"  fill="none"><path fill="#002147" d="M0 0h64.8v36H0z"/><path fill="#CE261E" d="M0 33.3h64.8V36H0z"/><path fill="#fff" d="M13.796 10.575c0 .636-.106 1.226-.318 1.77a4.193 4.193 0 0 1-.894 1.404 4.084 4.084 0 0 1-1.386.93c-.54.22-1.138.33-1.794.33-.656 0-1.256-.11-1.8-.33a4.149 4.149 0 0 1-1.392-.93 4.193 4.193 0 0 1-.894-1.404A4.833 4.833 0 0 1 5 10.575c0-.636.106-1.224.318-1.764a4.18 4.18 0 0 1 .894-1.41 4.076 4.076 0 0 1 1.392-.924 4.684 4.684 0 0 1 1.8-.336c.656 0 1.254.112 1.794.336.54.224 1.002.534 1.386.93.384.392.682.86.894 1.404.212.54.318 1.128.318 1.764Zm-1.656 0c0-.476-.064-.902-.192-1.278a2.671 2.671 0 0 0-.54-.966 2.332 2.332 0 0 0-.864-.606 2.94 2.94 0 0 0-1.14-.21c-.424 0-.806.07-1.146.21-.34.14-.63.342-.87.606a2.742 2.742 0 0 0-.546.966 3.955 3.955 0 0 0-.192 1.278c0 .476.064.904.192 1.284.128.376.31.696.546.96.24.26.53.46.87.6.34.14.722.21 1.146.21.424 0 .804-.07 1.14-.21.34-.14.628-.34.864-.6.236-.264.416-.584.54-.96a4.01 4.01 0 0 0 .192-1.284ZM16.104 8.757v3.912c0 .376.086.668.258.876.176.204.438.306.786.306.256 0 .496-.056.72-.168a2.58 2.58 0 0 0 .636-.474V8.757h1.482v6.156h-.906c-.192 0-.318-.09-.378-.27l-.102-.492a4.65 4.65 0 0 1-.396.354 2.577 2.577 0 0 1-.438.27 2.35 2.35 0 0 1-.498.168 2.345 2.345 0 0 1-.57.066c-.336 0-.634-.056-.894-.168a1.821 1.821 0 0 1-.648-.486 2.157 2.157 0 0 1-.402-.738 3.233 3.233 0 0 1-.132-.948V8.757h1.482ZM21.328 14.913V8.757h.87c.152 0 .258.028.318.084.06.056.1.152.12.288l.09.744c.22-.38.478-.68.774-.9.296-.22.628-.33.996-.33.304 0 .556.07.756.21l-.192 1.11c-.012.072-.038.124-.078.156a.278.278 0 0 1-.162.042 1.01 1.01 0 0 1-.246-.042 1.646 1.646 0 0 0-.414-.042c-.308 0-.572.086-.792.258-.22.168-.406.416-.558.744v3.834h-1.482ZM27.347 6.237h1.356a.57.57 0 0 1 .348.102c.096.064.16.152.192.264l1.476 5.19c.036.128.068.268.096.42.032.148.062.306.09.474a5.968 5.968 0 0 1 .228-.894l1.704-5.19a.575.575 0 0 1 .186-.252.543.543 0 0 1 .348-.114h.474a.57.57 0 0 1 .348.102.497.497 0 0 1 .192.264l1.692 5.19c.088.256.164.54.228.852.028-.156.056-.306.084-.45.032-.144.064-.278.096-.402l1.476-5.19c.028-.1.09-.186.186-.258a.563.563 0 0 1 .348-.108h1.266l-2.694 8.676h-1.458l-1.896-5.928-.078-.246a9.504 9.504 0 0 1-.072-.282c-.024.1-.05.194-.078.282-.024.088-.048.17-.072.246l-1.914 5.928H30.04l-2.694-8.676ZM42.771 8.661c.46 0 .876.074 1.248.222.376.148.696.358.96.63s.468.604.612.996c.144.392.216.83.216 1.314 0 .488-.072.928-.216 1.32a2.85 2.85 0 0 1-.612 1.002 2.653 2.653 0 0 1-.96.636 3.35 3.35 0 0 1-1.248.222c-.46 0-.878-.074-1.254-.222a2.712 2.712 0 0 1-.966-.636 2.922 2.922 0 0 1-.618-1.002 3.807 3.807 0 0 1-.216-1.32c0-.484.072-.922.216-1.314.148-.392.354-.724.618-.996.268-.272.59-.482.966-.63a3.397 3.397 0 0 1 1.254-.222Zm0 5.202c.512 0 .89-.172 1.134-.516.248-.344.372-.848.372-1.512s-.124-1.17-.372-1.518c-.244-.348-.622-.522-1.134-.522-.52 0-.904.176-1.152.528-.248.348-.372.852-.372 1.512s.124 1.164.372 1.512c.248.344.632.516 1.152.516ZM46.723 14.913V8.757h.87c.152 0 .258.028.318.084.06.056.1.152.12.288l.09.744c.22-.38.478-.68.774-.9.296-.22.628-.33.996-.33.304 0 .556.07.756.21l-.192 1.11c-.012.072-.038.124-.078.156a.278.278 0 0 1-.162.042 1.01 1.01 0 0 1-.246-.042 1.646 1.646 0 0 0-.414-.042c-.308 0-.572.086-.792.258-.22.168-.406.416-.558.744v3.834h-1.482ZM52.96 5.997v8.916h-1.482V5.997h1.482ZM58.732 14.913c-.192 0-.318-.09-.378-.27l-.12-.594a3.68 3.68 0 0 1-.402.39c-.14.116-.292.216-.456.3-.16.084-.334.148-.522.192a2.372 2.372 0 0 1-.6.072c-.336 0-.644-.07-.924-.21a2.098 2.098 0 0 1-.726-.606 3.033 3.033 0 0 1-.468-.99 5.072 5.072 0 0 1-.162-1.344c0-.456.062-.88.186-1.272s.302-.732.534-1.02c.232-.288.51-.512.834-.672a2.384 2.384 0 0 1 1.092-.246 2.103 2.103 0 0 1 1.536.606V5.997h1.482v8.916h-.906Zm-1.974-1.086c.308 0 .57-.064.786-.192.216-.128.42-.31.612-.546v-2.76a1.452 1.452 0 0 0-.552-.432 1.597 1.597 0 0 0-.636-.126c-.224 0-.428.042-.612.126a1.21 1.21 0 0 0-.462.384c-.124.168-.22.384-.288.648-.068.26-.102.568-.102.924 0 .36.028.666.084.918.06.248.144.452.252.612.108.156.24.27.396.342.156.068.33.102.522.102ZM16.331 20.757v6.156H14.85v-6.156h1.481Zm.223-1.794a.844.844 0 0 1-.078.36.963.963 0 0 1-.21.294.995.995 0 0 1-.3.204.963.963 0 0 1-.372.072.948.948 0 0 1-.367-.072 1.018 1.018 0 0 1-.498-.498.963.963 0 0 1 0-.732.995.995 0 0 1 .205-.3.929.929 0 0 1 .293-.198.899.899 0 0 1 .738 0 .912.912 0 0 1 .3.198.943.943 0 0 1 .288.672ZM17.771 26.913v-6.156h.906c.192 0 .318.09.378.27l.102.486a2.934 2.934 0 0 1 .828-.618c.156-.076.322-.134.498-.174.176-.04.368-.06.576-.06.336 0 .634.058.894.174.26.112.476.272.648.48.176.204.308.45.396.738.092.284.138.598.138.942v3.918h-1.482v-3.918c0-.376-.088-.666-.264-.87-.172-.208-.432-.312-.78-.312-.256 0-.496.058-.72.174a2.58 2.58 0 0 0-.636.474v4.452h-1.482ZM34.22 22.575c0 .636-.106 1.22-.318 1.752-.212.532-.51.99-.894 1.374a4 4 0 0 1-1.386.894 4.87 4.87 0 0 1-1.794.318h-3.312v-8.676h3.312a4.79 4.79 0 0 1 1.794.324 4 4 0 0 1 1.386.894c.384.38.682.836.894 1.368.212.532.318 1.116.318 1.752Zm-1.65 0c0-.476-.064-.902-.192-1.278a2.68 2.68 0 0 0-.546-.96 2.332 2.332 0 0 0-.864-.606 2.94 2.94 0 0 0-1.14-.21h-1.686v6.108h1.686c.424 0 .804-.07 1.14-.21.34-.14.628-.34.864-.6a2.75 2.75 0 0 0 .546-.96 4.01 4.01 0 0 0 .192-1.284ZM39.98 26.913h-.665c-.14 0-.25-.02-.33-.06-.08-.044-.14-.13-.18-.258l-.132-.438c-.156.14-.31.264-.462.372a2.804 2.804 0 0 1-.462.264c-.16.072-.33.126-.51.162-.18.036-.38.054-.6.054-.26 0-.5-.034-.72-.102a1.618 1.618 0 0 1-.57-.318 1.448 1.448 0 0 1-.366-.522 1.852 1.852 0 0 1-.132-.726c0-.232.06-.46.18-.684.124-.228.328-.432.612-.612.284-.184.662-.336 1.134-.456.472-.12 1.058-.188 1.758-.204v-.36c0-.412-.088-.716-.264-.912-.172-.2-.424-.3-.756-.3a1.837 1.837 0 0 0-1.02.276c-.116.068-.224.13-.324.186a.664.664 0 0 1-.33.084.429.429 0 0 1-.258-.078.614.614 0 0 1-.174-.192l-.27-.474c.708-.648 1.562-.972 2.562-.972.36 0 .68.06.96.18.284.116.524.28.72.492.196.208.344.458.444.75.104.292.156.612.156.96v3.888Zm-2.88-.924c.153 0 .293-.014.42-.042.129-.028.249-.07.36-.126.117-.056.227-.124.33-.204.109-.084.217-.182.325-.294v-1.038c-.432.02-.794.058-1.086.114-.288.052-.52.12-.696.204a.923.923 0 0 0-.378.294.664.664 0 0 0-.108.366c0 .26.076.446.228.558.156.112.358.168.606.168ZM43.22 27.01c-.532 0-.942-.15-1.23-.45-.288-.305-.432-.723-.432-1.255v-3.438h-.624a.31.31 0 0 1-.21-.078c-.056-.052-.084-.13-.084-.234v-.588l.99-.162.312-1.68a.302.302 0 0 1 .108-.186.365.365 0 0 1 .222-.066h.768v1.938h1.62v1.056h-1.62v3.336c0 .192.048.342.144.45a.488.488 0 0 0 .384.162c.092 0 .168-.01.228-.03.064-.024.118-.048.162-.072.048-.024.09-.046.126-.066a.194.194 0 0 1 .108-.036.16.16 0 0 1 .108.036c.028.02.058.052.09.096l.444.72c-.216.18-.464.316-.744.408a2.77 2.77 0 0 1-.87.138ZM50.423 26.913h-.666c-.14 0-.25-.02-.33-.06-.08-.044-.14-.13-.18-.258l-.132-.438c-.156.14-.31.264-.462.372a2.804 2.804 0 0 1-.462.264c-.16.072-.33.126-.51.162-.18.036-.38.054-.6.054-.26 0-.5-.034-.72-.102a1.618 1.618 0 0 1-.57-.318 1.448 1.448 0 0 1-.366-.522 1.852 1.852 0 0 1-.132-.726c0-.232.06-.46.18-.684.124-.228.328-.432.612-.612.284-.184.662-.336 1.134-.456.472-.12 1.058-.188 1.758-.204v-.36c0-.412-.088-.716-.264-.912-.172-.2-.424-.3-.756-.3a1.837 1.837 0 0 0-1.02.276c-.116.068-.224.13-.324.186a.664.664 0 0 1-.33.084.429.429 0 0 1-.258-.078.614.614 0 0 1-.174-.192l-.27-.474c.708-.648 1.562-.972 2.562-.972.36 0 .68.06.96.18.284.116.524.28.72.492.196.208.344.458.444.75.104.292.156.612.156.96v3.888Zm-2.88-.924c.152 0 .292-.014.42-.042.128-.028.248-.07.36-.126.116-.056.226-.124.33-.204.108-.084.216-.182.324-.294v-1.038c-.432.02-.794.058-1.086.114-.288.052-.52.12-.696.204a.923.923 0 0 0-.378.294.664.664 0 0 0-.108.366c0 .26.076.446.228.558.156.112.358.168.606.168Z"/></svg></g><a href="http://localhost:3030/grapher/cardiovascular-disease-death-rates-by-age" style="font-family:&#x27;Playfair Display&#x27;, Georgia, &#x27;Times New Roman&#x27;, &#x27;Liberation Serif&#x27;, serif;font-weight:500" target="_blank" rel="noopener"><text font-size="24.00" font-weight="500" x="16.0" y="39.3" fill="#4E4E4E"><tspan x="16" y="39.28">Cardiovascular disease death rate by age, World, 1990 to 2019</tspan></text></a><text x="16.0" y="63.0" style="font-size:14px;line-height:1.28571" fill="#4E4E4E"><tspan x="16" y="63.0">Death rates from cardiovascular disease measured per 100,000 individuals across various age categories. Also shown</tspan><tspan x="16" y="81.0">is the total death rate across all ages (not age-standardized) and the age-standardized death rate. Age-standardization</tspan><tspan x="16" y="99.0">assumes a constant population age &amp; structure to allow for comparisons between countries and with time without the</tspan><tspan x="16" y="117.0">effects of a changing age distribution within a population (e.g. aging).</tspan></text></g><g class="LineChart"><defs><clipPath id="boundsClip-1"><rect x="51.824" y="126.79975999999999" width="838" height="435.60024"></rect></clipPath></defs><rect x="16" y="136.79976" width="818" height="415.60024" fill="none"></rect><g class="DualAxisView"><g class="HorizontalAxis"><line x1="61.8" y1="531.2" x2="61.8" y2="536.2" stroke="#999"></line><line x1="692.8" y1="531.2" x2="692.8" y2="536.2" stroke="#999"></line><line x1="170.6" y1="531.2" x2="170.6" y2="536.2" stroke="#999"></line><line x1="279.4" y1="531.2" x2="279.4" y2="536.2" stroke="#999"></line><line x1="388.2" y1="531.2" x2="388.2" y2="536.2" stroke="#999"></line><line x1="496.9" y1="531.2" x2="496.9" y2="536.2" stroke="#999"></line><line x1="605.7" y1="531.2" x2="605.7" y2="536.2" stroke="#999"></line><text x="61.824" y="552.4" fill="#666" text-anchor="start" font-size="16.2">1990</text><text x="692.755" y="552.4" fill="#666" text-anchor="end" font-size="16.2">2019</text><text x="170.6" y="552.4" fill="#666" text-anchor="middle" font-size="16.2">1995</text><text x="279.4" y="552.4" fill="#666" text-anchor="middle" font-size="16.2">2000</text><text x="388.2" y="552.4" fill="#666" text-anchor="middle" font-size="16.2">2005</text><text x="496.9" y="552.4" fill="#666" text-anchor="middle" font-size="16.2">2010</text><text x="605.7" y="552.4" fill="#666" text-anchor="middle" font-size="16.2">2015</text></g><g class="VerticalAxis"><text x="56.82" y="531.2" dy=".32em" text-anchor="end" fill="#666" font-size="16.2">0</text><text x="56.82" y="476.3" dy=".32em" text-anchor="end" fill="#666" font-size="16.2">500</text><text x="56.82" y="421.4" dy=".32em" text-anchor="end" fill="#666" font-size="16.2">1,000</text><text x="56.82" y="366.5" dy=".32em" text-anchor="end" fill="#666" font-size="16.2">1,500</text><text x="56.82" y="311.6" dy=".32em" text-anchor="end" fill="#666" font-size="16.2">2,000</text><text x="56.82" y="256.7" dy=".32em" text-anchor="end" fill="#666" font-size="16.2">2,500</text><text x="56.82" y="201.9" dy=".32em" text-anchor="end" fill="#666" font-size="16.2">3,000</text><text x="56.82" y="147" dy=".32em" text-anchor="end" fill="#666" font-size="16.2">3,500</text></g><g class="AxisGridLines horizontalLines"><line x1="61.82" y1="531.2" x2="692.75" y2="531.2" stroke="#999"></line><line x1="61.82" y1="476.3" x2="692.75" y2="476.3" stroke="#ddd" stroke-dasharray="3,2"></line><line x1="61.82" y1="421.4" x2="692.75" y2="421.4" stroke="#ddd" stroke-dasharray="3,2"></line><line x1="61.82" y1="366.5" x2="692.75" y2="366.5" stroke="#ddd" stroke-dasharray="3,2"></line><line x1="61.82" y1="311.6" x2="692.75" y2="311.6" stroke="#ddd" stroke-dasharray="3,2"></line><line x1="61.82" y1="256.7" x2="692.75" y2="256.7" stroke="#ddd" stroke-dasharray="3,2"></line><line x1="61.82" y1="201.9" x2="692.75" y2="201.9" stroke="#ddd" stroke-dasharray="3,2"></line><line x1="61.82" y1="147" x2="692.75" y2="147" stroke="#ddd" stroke-dasharray="3,2"></line></g></g><g clip-path="url(#boundsClip-1)"><g class="LineLabels" style="cursor:default"><g class="legendMark"><g class="indicator"><path d="M696.755,243.1 H710.255 V243.1 H723.755" stroke="#999" stroke-width="0.5" fill="none"></path></g><rect x="692.755" y="236.35" width="116.67500000000001" height="13.5" fill="#fff" opacity="0"></rect><text font-size="13.50" font-weight="400" x="727.8" y="248.1" fill="#be5915"><tspan x="727.755" y="248.095">70+ years old</tspan></text></g><g class="legendMark"><g class="indicator"><path d="M696.755,490.5 H700.6121428571429 V446.95 H723.755" stroke="#999" stroke-width="0.5" fill="none"></path></g><rect x="692.755" y="440.2" width="128.42000000000002" height="13.5" fill="#fff" opacity="0"></rect><text font-size="13.50" font-weight="400" x="727.8" y="451.9" fill="#6d3e91"><tspan x="727.755" y="451.945">50-69 years old</tspan></text></g><g class="legendMark"><g class="indicator"><path d="M696.755,504.9 H704.4692857142858 V462.45 H723.755" stroke="#999" stroke-width="0.5" fill="none"></path></g><rect x="692.755" y="455.7" width="83.195" height="13.5" fill="#fff" opacity="0"></rect><text font-size="13.50" font-weight="400" x="727.8" y="467.4" fill="#2c8465"><tspan x="727.755" y="467.445">All ages</tspan></text></g><g class="legendMark"><g class="indicator"><path d="M696.755,504.9 H708.3264285714286 V477.95 H723.755" stroke="#999" stroke-width="0.5" fill="none"></path></g><rect x="692.755" y="471.2" width="141.245" height="13.5" fill="#fff" opacity="0"></rect><text font-size="13.50" font-weight="400" x="727.8" y="482.9" fill="#cf0a66"><tspan x="727.755" y="482.945">Age-standardized</tspan></text></g><g class="legendMark"><g class="indicator"><path d="M696.755,527.7 H712.1835714285714 V493.45 H723.755" stroke="#999" stroke-width="0.5" fill="none"></path></g><rect x="692.755" y="486.7" width="128.42000000000002" height="13.5" fill="#fff" opacity="0"></rect><text font-size="13.50" font-weight="400" x="727.8" y="498.4" fill="#286bbb"><tspan x="727.755" y="498.445">15-49 years old</tspan></text></g><g class="legendMark"><g class="indicator"><path d="M696.755,530.7 H716.0407142857143 V508.95 H723.755" stroke="#999" stroke-width="0.5" fill="none"></path></g><rect x="692.755" y="502.2" width="90.62" height="13.5" fill="#fff" opacity="0"></rect><text font-size="13.50" font-weight="400" x="727.8" y="513.9" fill="#c15065"><tspan x="727.755" y="513.9449999999999">Under-5s</tspan></text></g><g class="legendMark"><g class="indicator"><path d="M696.755,531 H719.8978571428572 V524.45 H723.755" stroke="#999" stroke-width="0.5" fill="none"></path></g><rect x="692.755" y="517.7" width="120.86" height="13.5" fill="#fff" opacity="0"></rect><text font-size="13.50" font-weight="400" x="727.8" y="529.4" fill="#18470f"><tspan x="727.755" y="529.445">5-14 years old</tspan></text></g></g><g class="Lines"><rect x="62" y="143" width="631" height="388" fill="rgba(255,255,255,0)" opacity="0"></rect><g><path stroke-linecap="round" stroke-linejoin="round" stroke="#ddd" d="M61.8 527.2L83.6 527.2L105.3 527.2L127.1 527.1L148.8 527L170.6 527L192.4 527L214.1 527L235.9 527.1L257.6 527L279.4 527L301.1 527L322.9 527.1L344.7 527.2L366.4 527.2L388.2 527.2L409.9 527.3L431.7 527.3L453.4 527.3L475.2 527.4L496.9 527.4L518.7 527.4L540.5 527.5L562.2 527.5L584 527.6L605.7 527.6L627.5 527.7L649.2 527.7L671 527.7L692.8 527.7" fill="none" stroke-width="1"></path></g><g><path stroke-linecap="round" stroke-linejoin="round" stroke="#ddd" d="M61.8 530.9L83.6 530.9L105.3 530.9L127.1 530.9L148.8 530.9L170.6 530.9L192.4 531L214.1 531L235.9 531L257.6 531L279.4 531L301.1 531L322.9 531L344.7 531L366.4 531L388.2 531L409.9 531L431.7 531L453.4 531L475.2 531L496.9 531L518.7 531L540.5 531L562.2 531L584 531L605.7 531L627.5 531L649.2 531L671 531L692.8 531" fill="none" stroke-width="1"></path></g><g><path stroke-linecap="round" stroke-linejoin="round" stroke="#ddd" d="M61.8 492.3L83.6 492.8L105.3 493.1L127.1 493L148.8 493.3L170.6 493.9L192.4 494.6L214.1 495.2L235.9 495.8L257.6 496L279.4 496.4L301.1 496.8L322.9 496.9L344.7 497.4L366.4 498.2L388.2 498.6L409.9 499.6L431.7 500.3L453.4 500.6L475.2 501.2L496.9 501.6L518.7 502.1L540.5 502.6L562.2 503.1L584 503.5L605.7 503.8L627.5 504.1L649.2 504.5L671 504.7L692.8 504.9" fill="none" stroke-width="1"></path></g><g><path stroke-linecap="round" stroke-linejoin="round" stroke="#ddd" d="M61.8 469.4L83.6 469.8L105.3 469.7L127.1 468.9L148.8 468.9L170.6 470L192.4 471.1L214.1 472.3L235.9 473.9L257.6 475L279.4 475.8L301.1 476.8L322.9 477.1L344.7 477.9L366.4 479.6L388.2 480.6L409.9 482.5L431.7 483.8L453.4 484.6L475.2 485.7L496.9 486.2L518.7 486.9L540.5 487.4L562.2 488.4L584 489L605.7 488.8L627.5 489.1L649.2 489.8L671 490.3L692.8 490.5" fill="none" stroke-width="1"></path></g><g><path stroke-linecap="round" stroke-linejoin="round" stroke="#ddd" d="M61.8 142.8L83.6 147.1L105.3 150.6L127.1 149.7L148.8 153.9L170.6 160L192.4 166.7L214.1 172.5L235.9 177.7L257.6 179.6L279.4 182.8L301.1 185.6L322.9 186.3L344.7 189.8L366.4 197.3L388.2 199.8L409.9 207.8L431.7 213.4L453.4 214.9L475.2 219L496.9 220.9L518.7 224.6L540.5 228.2L562.2 229.4L584 231.8L605.7 233.3L627.5 235.8L649.2 239.6L671 240.9L692.8 243.1" fill="none" stroke-width="1"></path></g><g><path stroke-linecap="round" stroke-linejoin="round" stroke="#ddd" d="M61.8 506.4L83.6 506.5L105.3 506.4L127.1 506.1L148.8 506L170.6 506.1L192.4 506.3L214.1 506.4L235.9 506.5L257.6 506.4L279.4 506.3L301.1 506.2L322.9 506L344.7 505.9L366.4 506.2L388.2 506.1L409.9 506.4L431.7 506.5L453.4 506.4L475.2 506.5L496.9 506.3L518.7 506.3L540.5 506.3L562.2 506.2L584 506.1L605.7 505.9L627.5 505.7L649.2 505.6L671 505.2L692.8 504.9" fill="none" stroke-width="1"></path></g><g><path stroke-linecap="round" stroke-linejoin="round" stroke="#ddd" d="M61.8 529.9L83.6 529.9L105.3 530L127.1 530L148.8 530L170.6 530.1L192.4 530.1L214.1 530.2L235.9 530.2L257.6 530.3L279.4 530.3L301.1 530.3L322.9 530.4L344.7 530.4L366.4 530.4L388.2 530.4L409.9 530.4L431.7 530.5L453.4 530.5L475.2 530.5L496.9 530.5L518.7 530.6L540.5 530.6L562.2 530.6L584 530.6L605.7 530.6L627.5 530.7L649.2 530.7L671 530.7L692.8 530.7" fill="none" stroke-width="1"></path></g><g><path fill="none" stroke-linecap="butt" stroke-linejoin="round" stroke="#fff" stroke-width="2.5" d="M61.8 527.2L83.6 527.2L105.3 527.2L127.1 527.1L148.8 527L170.6 527L192.4 527L214.1 527L235.9 527.1L257.6 527L279.4 527L301.1 527L322.9 527.1L344.7 527.2L366.4 527.2L388.2 527.2L409.9 527.3L431.7 527.3L453.4 527.3L475.2 527.4L496.9 527.4L518.7 527.4L540.5 527.5L562.2 527.5L584 527.6L605.7 527.6L627.5 527.7L649.2 527.7L671 527.7L692.8 527.7"></path><polyline points="61.80,527.20 83.60,527.20 105.30,527.20 127.10,527.10 148.80,527.00 170.60,527.00 192.40,527.00 214.10,527.00 235.90,527.10 257.60,527.00 279.40,527.00 301.10,527.00 322.90,527.10 344.70,527.20 366.40,527.20 388.20,527.20 409.90,527.30 431.70,527.30 453.40,527.30 475.20,527.40 496.90,527.40 518.70,527.40 540.50,527.50 562.20,527.50 584.00,527.60 605.70,527.60 627.50,527.70 649.20,527.70 671.00,527.70 692.80,527.70" stroke-linejoin="round" stroke-width="1.5" stroke="#286BBB" fill="none" stroke-linecap="butt"></polyline><g><circle cx="61.8" cy="527.2" r="1.8" fill="#286BBB"></circle><circle cx="83.6" cy="527.2" r="1.8" fill="#286BBB"></circle><circle cx="105.3" cy="527.2" r="1.8" fill="#286BBB"></circle><circle cx="127.1" cy="527.1" r="1.8" fill="#286BBB"></circle><circle cx="148.8" cy="527" r="1.8" fill="#286BBB"></circle><circle cx="170.6" cy="527" r="1.8" fill="#286BBB"></circle><circle cx="192.4" cy="527" r="1.8" fill="#286BBB"></circle><circle cx="214.1" cy="527" r="1.8" fill="#286BBB"></circle><circle cx="235.9" cy="527.1" r="1.8" fill="#286BBB"></circle><circle cx="257.6" cy="527" r="1.8" fill="#286BBB"></circle><circle cx="279.4" cy="527" r="1.8" fill="#286BBB"></circle><circle cx="301.1" cy="527" r="1.8" fill="#286BBB"></circle><circle cx="322.9" cy="527.1" r="1.8" fill="#286BBB"></circle><circle cx="344.7" cy="527.2" r="1.8" fill="#286BBB"></circle><circle cx="366.4" cy="527.2" r="1.8" fill="#286BBB"></circle><circle cx="388.2" cy="527.2" r="1.8" fill="#286BBB"></circle><circle cx="409.9" cy="527.3" r="1.8" fill="#286BBB"></circle><circle cx="431.7" cy="527.3" r="1.8" fill="#286BBB"></circle><circle cx="453.4" cy="527.3" r="1.8" fill="#286BBB"></circle><circle cx="475.2" cy="527.4" r="1.8" fill="#286BBB"></circle><circle cx="496.9" cy="527.4" r="1.8" fill="#286BBB"></circle><circle cx="518.7" cy="527.4" r="1.8" fill="#286BBB"></circle><circle cx="540.5" cy="527.5" r="1.8" fill="#286BBB"></circle><circle cx="562.2" cy="527.5" r="1.8" fill="#286BBB"></circle><circle cx="584" cy="527.6" r="1.8" fill="#286BBB"></circle><circle cx="605.7" cy="527.6" r="1.8" fill="#286BBB"></circle><circle cx="627.5" cy="527.7" r="1.8" fill="#286BBB"></circle><circle cx="649.2" cy="527.7" r="1.8" fill="#286BBB"></circle><circle cx="671" cy="527.7" r="1.8" fill="#286BBB"></circle><circle cx="692.8" cy="527.7" r="1.8" fill="#286BBB"></circle></g></g><g><path fill="none" stroke-linecap="butt" stroke-linejoin="round" stroke="#fff" stroke-width="2.5" d="M61.8 530.9L83.6 530.9L105.3 530.9L127.1 530.9L148.8 530.9L170.6 530.9L192.4 531L214.1 531L235.9 531L257.6 531L279.4 531L301.1 531L322.9 531L344.7 531L366.4 531L388.2 531L409.9 531L431.7 531L453.4 531L475.2 531L496.9 531L518.7 531L540.5 531L562.2 531L584 531L605.7 531L627.5 531L649.2 531L671 531L692.8 531"></path><polyline points="61.80,530.90 83.60,530.90 105.30,530.90 127.10,530.90 148.80,530.90 170.60,530.90 192.40,531.00 214.10,531.00 235.90,531.00 257.60,531.00 279.40,531.00 301.10,531.00 322.90,531.00 344.70,531.00 366.40,531.00 388.20,531.00 409.90,531.00 431.70,531.00 453.40,531.00 475.20,531.00 496.90,531.00 518.70,531.00 540.50,531.00 562.20,531.00 584.00,531.00 605.70,531.00 627.50,531.00 649.20,531.00 671.00,531.00 692.80,531.00" stroke-linejoin="round" stroke-width="1.5" stroke="#18470F" fill="none" stroke-linecap="butt"></polyline><g><circle cx="61.8" cy="530.9" r="1.8" fill="#18470F"></circle><circle cx="83.6" cy="530.9" r="1.8" fill="#18470F"></circle><circle cx="105.3" cy="530.9" r="1.8" fill="#18470F"></circle><circle cx="127.1" cy="530.9" r="1.8" fill="#18470F"></circle><circle cx="148.8" cy="530.9" r="1.8" fill="#18470F"></circle><circle cx="170.6" cy="530.9" r="1.8" fill="#18470F"></circle><circle cx="192.4" cy="531" r="1.8" fill="#18470F"></circle><circle cx="214.1" cy="531" r="1.8" fill="#18470F"></circle><circle cx="235.9" cy="531" r="1.8" fill="#18470F"></circle><circle cx="257.6" cy="531" r="1.8" fill="#18470F"></circle><circle cx="279.4" cy="531" r="1.8" fill="#18470F"></circle><circle cx="301.1" cy="531" r="1.8" fill="#18470F"></circle><circle cx="322.9" cy="531" r="1.8" fill="#18470F"></circle><circle cx="344.7" cy="531" r="1.8" fill="#18470F"></circle><circle cx="366.4" cy="531" r="1.8" fill="#18470F"></circle><circle cx="388.2" cy="531" r="1.8" fill="#18470F"></circle><circle cx="409.9" cy="531" r="1.8" fill="#18470F"></circle><circle cx="431.7" cy="531" r="1.8" fill="#18470F"></circle><circle cx="453.4" cy="531" r="1.8" fill="#18470F"></circle><circle cx="475.2" cy="531" r="1.8" fill="#18470F"></circle><circle cx="496.9" cy="531" r="1.8" fill="#18470F"></circle><circle cx="518.7" cy="531" r="1.8" fill="#18470F"></circle><circle cx="540.5" cy="531" r="1.8" fill="#18470F"></circle><circle cx="562.2" cy="531" r="1.8" fill="#18470F"></circle><circle cx="584" cy="531" r="1.8" fill="#18470F"></circle><circle cx="605.7" cy="531" r="1.8" fill="#18470F"></circle><circle cx="627.5" cy="531" r="1.8" fill="#18470F"></circle><circle cx="649.2" cy="531" r="1.8" fill="#18470F"></circle><circle cx="671" cy="531" r="1.8" fill="#18470F"></circle><circle cx="692.8" cy="531" r="1.8" fill="#18470F"></circle></g></g><g><path fill="none" stroke-linecap="butt" stroke-linejoin="round" stroke="#fff" stroke-width="2.5" d="M61.8 492.3L83.6 492.8L105.3 493.1L127.1 493L148.8 493.3L170.6 493.9L192.4 494.6L214.1 495.2L235.9 495.8L257.6 496L279.4 496.4L301.1 496.8L322.9 496.9L344.7 497.4L366.4 498.2L388.2 498.6L409.9 499.6L431.7 500.3L453.4 500.6L475.2 501.2L496.9 501.6L518.7 502.1L540.5 502.6L562.2 503.1L584 503.5L605.7 503.8L627.5 504.1L649.2 504.5L671 504.7L692.8 504.9"></path><polyline points="61.80,492.30 83.60,492.80 105.30,493.10 127.10,493.00 148.80,493.30 170.60,493.90 192.40,494.60 214.10,495.20 235.90,495.80 257.60,496.00 279.40,496.40 301.10,496.80 322.90,496.90 344.70,497.40 366.40,498.20 388.20,498.60 409.90,499.60 431.70,500.30 453.40,500.60 475.20,501.20 496.90,501.60 518.70,502.10 540.50,502.60 562.20,503.10 584.00,503.50 605.70,503.80 627.50,504.10 649.20,504.50 671.00,504.70 692.80,504.90" stroke-linejoin="round" stroke-width="1.5" stroke="#CF0A66" fill="none" stroke-linecap="butt"></polyline><g><circle cx="61.8" cy="492.3" r="1.8" fill="#CF0A66"></circle><circle cx="83.6" cy="492.8" r="1.8" fill="#CF0A66"></circle><circle cx="105.3" cy="493.1" r="1.8" fill="#CF0A66"></circle><circle cx="127.1" cy="493" r="1.8" fill="#CF0A66"></circle><circle cx="148.8" cy="493.3" r="1.8" fill="#CF0A66"></circle><circle cx="170.6" cy="493.9" r="1.8" fill="#CF0A66"></circle><circle cx="192.4" cy="494.6" r="1.8" fill="#CF0A66"></circle><circle cx="214.1" cy="495.2" r="1.8" fill="#CF0A66"></circle><circle cx="235.9" cy="495.8" r="1.8" fill="#CF0A66"></circle><circle cx="257.6" cy="496" r="1.8" fill="#CF0A66"></circle><circle cx="279.4" cy="496.4" r="1.8" fill="#CF0A66"></circle><circle cx="301.1" cy="496.8" r="1.8" fill="#CF0A66"></circle><circle cx="322.9" cy="496.9" r="1.8" fill="#CF0A66"></circle><circle cx="344.7" cy="497.4" r="1.8" fill="#CF0A66"></circle><circle cx="366.4" cy="498.2" r="1.8" fill="#CF0A66"></circle><circle cx="388.2" cy="498.6" r="1.8" fill="#CF0A66"></circle><circle cx="409.9" cy="499.6" r="1.8" fill="#CF0A66"></circle><circle cx="431.7" cy="500.3" r="1.8" fill="#CF0A66"></circle><circle cx="453.4" cy="500.6" r="1.8" fill="#CF0A66"></circle><circle cx="475.2" cy="501.2" r="1.8" fill="#CF0A66"></circle><circle cx="496.9" cy="501.6" r="1.8" fill="#CF0A66"></circle><circle cx="518.7" cy="502.1" r="1.8" fill="#CF0A66"></circle><circle cx="540.5" cy="502.6" r="1.8" fill="#CF0A66"></circle><circle cx="562.2" cy="503.1" r="1.8" fill="#CF0A66"></circle><circle cx="584" cy="503.5" r="1.8" fill="#CF0A66"></circle><circle cx="605.7" cy="503.8" r="1.8" fill="#CF0A66"></circle><circle cx="627.5" cy="504.1" r="1.8" fill="#CF0A66"></circle><circle cx="649.2" cy="504.5" r="1.8" fill="#CF0A66"></circle><circle cx="671" cy="504.7" r="1.8" fill="#CF0A66"></circle><circle cx="692.8" cy="504.9" r="1.8" fill="#CF0A66"></circle></g></g><g><path fill="none" stroke-linecap="butt" stroke-linejoin="round" stroke="#fff" stroke-width="2.5" d="M61.8 469.4L83.6 469.8L105.3 469.7L127.1 468.9L148.8 468.9L170.6 470L192.4 471.1L214.1 472.3L235.9 473.9L257.6 475L279.4 475.8L301.1 476.8L322.9 477.1L344.7 477.9L366.4 479.6L388.2 480.6L409.9 482.5L431.7 483.8L453.4 484.6L475.2 485.7L496.9 486.2L518.7 486.9L540.5 487.4L562.2 488.4L584 489L605.7 488.8L627.5 489.1L649.2 489.8L671 490.3L692.8 490.5"></path><polyline points="61.80,469.40 83.60,469.80 105.30,469.70 127.10,468.90 148.80,468.90 170.60,470.00 192.40,471.10 214.10,472.30 235.90,473.90 257.60,475.00 279.40,475.80 301.10,476.80 322.90,477.10 344.70,477.90 366.40,479.60 388.20,480.60 409.90,482.50 431.70,483.80 453.40,484.60 475.20,485.70 496.90,486.20 518.70,486.90 540.50,487.40 562.20,488.40 584.00,489.00 605.70,488.80 627.50,489.10 649.20,489.80 671.00,490.30 692.80,490.50" stroke-linejoin="round" stroke-width="1.5" stroke="#6D3E91" fill="none" stroke-linecap="butt"></polyline><g><circle cx="61.8" cy="469.4" r="1.8" fill="#6D3E91"></circle><circle cx="83.6" cy="469.8" r="1.8" fill="#6D3E91"></circle><circle cx="105.3" cy="469.7" r="1.8" fill="#6D3E91"></circle><circle cx="127.1" cy="468.9" r="1.8" fill="#6D3E91"></circle><circle cx="148.8" cy="468.9" r="1.8" fill="#6D3E91"></circle><circle cx="170.6" cy="470" r="1.8" fill="#6D3E91"></circle><circle cx="192.4" cy="471.1" r="1.8" fill="#6D3E91"></circle><circle cx="214.1" cy="472.3" r="1.8" fill="#6D3E91"></circle><circle cx="235.9" cy="473.9" r="1.8" fill="#6D3E91"></circle><circle cx="257.6" cy="475" r="1.8" fill="#6D3E91"></circle><circle cx="279.4" cy="475.8" r="1.8" fill="#6D3E91"></circle><circle cx="301.1" cy="476.8" r="1.8" fill="#6D3E91"></circle><circle cx="322.9" cy="477.1" r="1.8" fill="#6D3E91"></circle><circle cx="344.7" cy="477.9" r="1.8" fill="#6D3E91"></circle><circle cx="366.4" cy="479.6" r="1.8" fill="#6D3E91"></circle><circle cx="388.2" cy="480.6" r="1.8" fill="#6D3E91"></circle><circle cx="409.9" cy="482.5" r="1.8" fill="#6D3E91"></circle><circle cx="431.7" cy="483.8" r="1.8" fill="#6D3E91"></circle><circle cx="453.4" cy="484.6" r="1.8" fill="#6D3E91"></circle><circle cx="475.2" cy="485.7" r="1.8" fill="#6D3E91"></circle><circle cx="496.9" cy="486.2" r="1.8" fill="#6D3E91"></circle><circle cx="518.7" cy="486.9" r="1.8" fill="#6D3E91"></circle><circle cx="540.5" cy="487.4" r="1.8" fill="#6D3E91"></circle><circle cx="562.2" cy="488.4" r="1.8" fill="#6D3E91"></circle><circle cx="584" cy="489" r="1.8" fill="#6D3E91"></circle><circle cx="605.7" cy="488.8" r="1.8" fill="#6D3E91"></circle><circle cx="627.5" cy="489.1" r="1.8" fill="#6D3E91"></circle><circle cx="649.2" cy="489.8" r="1.8" fill="#6D3E91"></circle><circle cx="671" cy="490.3" r="1.8" fill="#6D3E91"></circle><circle cx="692.8" cy="490.5" r="1.8" fill="#6D3E91"></circle></g></g><g><path fill="none" stroke-linecap="butt" stroke-linejoin="round" stroke="#fff" stroke-width="2.5" d="M61.8 142.8L83.6 147.1L105.3 150.6L127.1 149.7L148.8 153.9L170.6 160L192.4 166.7L214.1 172.5L235.9 177.7L257.6 179.6L279.4 182.8L301.1 185.6L322.9 186.3L344.7 189.8L366.4 197.3L388.2 199.8L409.9 207.8L431.7 213.4L453.4 214.9L475.2 219L496.9 220.9L518.7 224.6L540.5 228.2L562.2 229.4L584 231.8L605.7 233.3L627.5 235.8L649.2 239.6L671 240.9L692.8 243.1"></path><polyline points="61.80,142.80 83.60,147.10 105.30,150.60 127.10,149.70 148.80,153.90 170.60,160.00 192.40,166.70 214.10,172.50 235.90,177.70 257.60,179.60 279.40,182.80 301.10,185.60 322.90,186.30 344.70,189.80 366.40,197.30 388.20,199.80 409.90,207.80 431.70,213.40 453.40,214.90 475.20,219.00 496.90,220.90 518.70,224.60 540.50,228.20 562.20,229.40 584.00,231.80 605.70,233.30 627.50,235.80 649.20,239.60 671.00,240.90 692.80,243.10" stroke-linejoin="round" stroke-width="1.5" stroke="#BE5915" fill="none" stroke-linecap="butt"></polyline><g><circle cx="61.8" cy="142.8" r="1.8" fill="#BE5915"></circle><circle cx="83.6" cy="147.1" r="1.8" fill="#BE5915"></circle><circle cx="105.3" cy="150.6" r="1.8" fill="#BE5915"></circle><circle cx="127.1" cy="149.7" r="1.8" fill="#BE5915"></circle><circle cx="148.8" cy="153.9" r="1.8" fill="#BE5915"></circle><circle cx="170.6" cy="160" r="1.8" fill="#BE5915"></circle><circle cx="192.4" cy="166.7" r="1.8" fill="#BE5915"></circle><circle cx="214.1" cy="172.5" r="1.8" fill="#BE5915"></circle><circle cx="235.9" cy="177.7" r="1.8" fill="#BE5915"></circle><circle cx="257.6" cy="179.6" r="1.8" fill="#BE5915"></circle><circle cx="279.4" cy="182.8" r="1.8" fill="#BE5915"></circle><circle cx="301.1" cy="185.6" r="1.8" fill="#BE5915"></circle><circle cx="322.9" cy="186.3" r="1.8" fill="#BE5915"></circle><circle cx="344.7" cy="189.8" r="1.8" fill="#BE5915"></circle><circle cx="366.4" cy="197.3" r="1.8" fill="#BE5915"></circle><circle cx="388.2" cy="199.8" r="1.8" fill="#BE5915"></circle><circle cx="409.9" cy="207.8" r="1.8" fill="#BE5915"></circle><circle cx="431.7" cy="213.4" r="1.8" fill="#BE5915"></circle><circle cx="453.4" cy="214.9" r="1.8" fill="#BE5915"></circle><circle cx="475.2" cy="219" r="1.8" fill="#BE5915"></circle><circle cx="496.9" cy="220.9" r="1.8" fill="#BE5915"></circle><circle cx="518.7" cy="224.6" r="1.8" fill="#BE5915"></circle><circle cx="540.5" cy="228.2" r="1.8" fill="#BE5915"></circle><circle cx="562.2" cy="229.4" r="1.8" fill="#BE5915"></circle><circle cx="584" cy="231.8" r="1.8" fill="#BE5915"></circle><circle cx="605.7" cy="233.3" r="1.8" fill="#BE5915"></circle><circle cx="627.5" cy="235.8" r="1.8" fill="#BE5915"></circle><circle cx="649.2" cy="239.6" r="1.8" fill="#BE5915"></circle><circle cx="671" cy="240.9" r="1.8" fill="#BE5915"></circle><circle cx="692.8" cy="243.1" r="1.8" fill="#BE5915"></circle></g></g><g><path fill="none" stroke-linecap="butt" stroke-linejoin="round" stroke="#fff" stroke-width="2.5" d="M61.8 506.4L83.6 506.5L105.3 506.4L127.1 506.1L148.8 506L170.6 506.1L192.4 506.3L214.1 506.4L235.9 506.5L257.6 506.4L279.4 506.3L301.1 506.2L322.9 506L344.7 505.9L366.4 506.2L388.2 506.1L409.9 506.4L431.7 506.5L453.4 506.4L475.2 506.5L496.9 506.3L518.7 506.3L540.5 506.3L562.2 506.2L584 506.1L605.7 505.9L627.5 505.7L649.2 505.6L671 505.2L692.8 504.9"></path><polyline points="61.80,506.40 83.60,506.50 105.30,506.40 127.10,506.10 148.80,506.00 170.60,506.10 192.40,506.30 214.10,506.40 235.90,506.50 257.60,506.40 279.40,506.30 301.10,506.20 322.90,506.00 344.70,505.90 366.40,506.20 388.20,506.10 409.90,506.40 431.70,506.50 453.40,506.40 475.20,506.50 496.90,506.30 518.70,506.30 540.50,506.30 562.20,506.20 584.00,506.10 605.70,505.90 627.50,505.70 649.20,505.60 671.00,505.20 692.80,504.90" stroke-linejoin="round" stroke-width="1.5" stroke="#2C8465" fill="none" stroke-linecap="butt"></polyline><g><circle cx="61.8" cy="506.4" r="1.8" fill="#2C8465"></circle><circle cx="83.6" cy="506.5" r="1.8" fill="#2C8465"></circle><circle cx="105.3" cy="506.4" r="1.8" fill="#2C8465"></circle><circle cx="127.1" cy="506.1" r="1.8" fill="#2C8465"></circle><circle cx="148.8" cy="506" r="1.8" fill="#2C8465"></circle><circle cx="170.6" cy="506.1" r="1.8" fill="#2C8465"></circle><circle cx="192.4" cy="506.3" r="1.8" fill="#2C8465"></circle><circle cx="214.1" cy="506.4" r="1.8" fill="#2C8465"></circle><circle cx="235.9" cy="506.5" r="1.8" fill="#2C8465"></circle><circle cx="257.6" cy="506.4" r="1.8" fill="#2C8465"></circle><circle cx="279.4" cy="506.3" r="1.8" fill="#2C8465"></circle><circle cx="301.1" cy="506.2" r="1.8" fill="#2C8465"></circle><circle cx="322.9" cy="506" r="1.8" fill="#2C8465"></circle><circle cx="344.7" cy="505.9" r="1.8" fill="#2C8465"></circle><circle cx="366.4" cy="506.2" r="1.8" fill="#2C8465"></circle><circle cx="388.2" cy="506.1" r="1.8" fill="#2C8465"></circle><circle cx="409.9" cy="506.4" r="1.8" fill="#2C8465"></circle><circle cx="431.7" cy="506.5" r="1.8" fill="#2C8465"></circle><circle cx="453.4" cy="506.4" r="1.8" fill="#2C8465"></circle><circle cx="475.2" cy="506.5" r="1.8" fill="#2C8465"></circle><circle cx="496.9" cy="506.3" r="1.8" fill="#2C8465"></circle><circle cx="518.7" cy="506.3" r="1.8" fill="#2C8465"></circle><circle cx="540.5" cy="506.3" r="1.8" fill="#2C8465"></circle><circle cx="562.2" cy="506.2" r="1.8" fill="#2C8465"></circle><circle cx="584" cy="506.1" r="1.8" fill="#2C8465"></circle><circle cx="605.7" cy="505.9" r="1.8" fill="#2C8465"></circle><circle cx="627.5" cy="505.7" r="1.8" fill="#2C8465"></circle><circle cx="649.2" cy="505.6" r="1.8" fill="#2C8465"></circle><circle cx="671" cy="505.2" r="1.8" fill="#2C8465"></circle><circle cx="692.8" cy="504.9" r="1.8" fill="#2C8465"></circle></g></g><g><path fill="none" stroke-linecap="butt" stroke-linejoin="round" stroke="#fff" stroke-width="2.5" d="M61.8 529.9L83.6 529.9L105.3 530L127.1 530L148.8 530L170.6 530.1L192.4 530.1L214.1 530.2L235.9 530.2L257.6 530.3L279.4 530.3L301.1 530.3L322.9 530.4L344.7 530.4L366.4 530.4L388.2 530.4L409.9 530.4L431.7 530.5L453.4 530.5L475.2 530.5L496.9 530.5L518.7 530.6L540.5 530.6L562.2 530.6L584 530.6L605.7 530.6L627.5 530.7L649.2 530.7L671 530.7L692.8 530.7"></path><polyline points="61.80,529.90 83.60,529.90 105.30,530.00 127.10,530.00 148.80,530.00 170.60,530.10 192.40,530.10 214.10,530.20 235.90,530.20 257.60,530.30 279.40,530.30 301.10,530.30 322.90,530.40 344.70,530.40 366.40,530.40 388.20,530.40 409.90,530.40 431.70,530.50 453.40,530.50 475.20,530.50 496.90,530.50 518.70,530.60 540.50,530.60 562.20,530.60 584.00,530.60 605.70,530.60 627.50,530.70 649.20,530.70 671.00,530.70 692.80,530.70" stroke-linejoin="round" stroke-width="1.5" stroke="#C15065" fill="none" stroke-linecap="butt"></polyline><g><circle cx="61.8" cy="529.9" r="1.8" fill="#C15065"></circle><circle cx="83.6" cy="529.9" r="1.8" fill="#C15065"></circle><circle cx="105.3" cy="530" r="1.8" fill="#C15065"></circle><circle cx="127.1" cy="530" r="1.8" fill="#C15065"></circle><circle cx="148.8" cy="530" r="1.8" fill="#C15065"></circle><circle cx="170.6" cy="530.1" r="1.8" fill="#C15065"></circle><circle cx="192.4" cy="530.1" r="1.8" fill="#C15065"></circle><circle cx="214.1" cy="530.2" r="1.8" fill="#C15065"></circle><circle cx="235.9" cy="530.2" r="1.8" fill="#C15065"></circle><circle cx="257.6" cy="530.3" r="1.8" fill="#C15065"></circle><circle cx="279.4" cy="530.3" r="1.8" fill="#C15065"></circle><circle cx="301.1" cy="530.3" r="1.8" fill="#C15065"></circle><circle cx="322.9" cy="530.4" r="1.8" fill="#C15065"></circle><circle cx="344.7" cy="530.4" r="1.8" fill="#C15065"></circle><circle cx="366.4" cy="530.4" r="1.8" fill="#C15065"></circle><circle cx="388.2" cy="530.4" r="1.8" fill="#C15065"></circle><circle cx="409.9" cy="530.4" r="1.8" fill="#C15065"></circle><circle cx="431.7" cy="530.5" r="1.8" fill="#C15065"></circle><circle cx="453.4" cy="530.5" r="1.8" fill="#C15065"></circle><circle cx="475.2" cy="530.5" r="1.8" fill="#C15065"></circle><circle cx="496.9" cy="530.5" r="1.8" fill="#C15065"></circle><circle cx="518.7" cy="530.6" r="1.8" fill="#C15065"></circle><circle cx="540.5" cy="530.6" r="1.8" fill="#C15065"></circle><circle cx="562.2" cy="530.6" r="1.8" fill="#C15065"></circle><circle cx="584" cy="530.6" r="1.8" fill="#C15065"></circle><circle cx="605.7" cy="530.6" r="1.8" fill="#C15065"></circle><circle cx="627.5" cy="530.7" r="1.8" fill="#C15065"></circle><circle cx="649.2" cy="530.7" r="1.8" fill="#C15065"></circle><circle cx="671" cy="530.7" r="1.8" fill="#C15065"></circle><circle cx="692.8" cy="530.7" r="1.8" fill="#C15065"></circle></g></g></g></g></g><g class="SourcesFooter" style="fill:#5b5b5b"><text x="16.0" y="581.0" style="font-size:13px;line-height:1.2"><tspan x="16" y="581.0"><tspan style="font-weight:700">Data source:</tspan> IHME, Global Burden of Disease (2019)</tspan></text><text font-size="13.00" x="569.7" y="581.0"><tspan x="569.71" y="581.01"><a target="_blank" style="fill: #5b5b5b; text-decoration: underline;" href="https://ourworldindata.org/causes-of-death">OurWorldInData.org/causes-of-death</a> | <a target="_blank" style="fill: #5b5b5b; text-decoration: underline;" href="http://creativecommons.org/licenses/by/4.0/deed.en_US">CC BY</a></tspan></text></g></svg>