<svg xmlns="http://www.w3.org/2000/svg" version="1.1" style="font-family:Lato, &#x27;Helvetica Neue&#x27;, Helvetica, Arial, sans-serif;font-size:18px;background-color:white;text-rendering:geometricPrecision;-webkit-font-smoothing:antialiased" width="850" height="600" viewBox="0 0 850 600"><defs><pattern id="noDataPattern" patternUnits="userSpaceOnUse" width="4" height="4" patternTransform="rotate(-45 2 2)"><path d="M -1,2 l 6,0" stroke="#ccc" stroke-width="0.7"></path></pattern></defs><g class="HeaderView"><g transform="translate(774, 15) scale(0.29)"><svg className="owidLog" width="210" height="120" viewBox="0 0 210 120" fill="none" xmlns="http://www.w3.org/2000/svg">
<g clip-path="url(#clip0)">
  <path d="M0 0h210v107.89H0V0z" fill="#002147" />
  <path
    d="M40.98 32.25c0 2.36-.38 4.53-1.12 6.51a14.26 14.26 0 0 1-8.1 8.4c-1.9.78-4.02 1.17-6.34 1.17-2.31 0-4.42-.39-6.33-1.17a14.31 14.31 0 0 1-8.08-8.4 18.29 18.29 0 0 1-1.12-6.51c0-2.36.38-4.53 1.12-6.5.75-1.97 1.8-3.67 3.17-5.1a14.32 14.32 0 0 1 4.9-3.34c1.92-.8 4.03-1.19 6.34-1.19 2.32 0 4.43.4 6.34 1.19 1.92.8 3.56 1.9 4.93 3.34a14.87 14.87 0 0 1 3.17 5.1 18.1 18.1 0 0 1 1.12 6.5zm-4.38 0c0-1.94-.26-3.68-.8-5.22a10.91 10.91 0 0 0-2.24-3.89 9.68 9.68 0 0 0-3.52-2.46 11.95 11.95 0 0 0-4.62-.86c-1.68 0-3.21.28-4.6.86a9.88 9.88 0 0 0-3.54 2.46 10.91 10.91 0 0 0-2.24 3.9c-.53 1.53-.8 3.27-.8 5.2 0 1.94.27 3.68.8 5.22a11.17 11.17 0 0 0 2.24 3.9 10.01 10.01 0 0 0 3.55 2.44c1.38.56 2.9.83 4.6.83s3.24-.27 4.61-.83a9.8 9.8 0 0 0 3.52-2.44 11.17 11.17 0 0 0 2.25-3.9c.53-1.54.8-3.28.8-5.21zm26.22-6.54V48H60.5c-.56 0-.9-.27-1.05-.81l-.31-2.4a12.45 12.45 0 0 1-3.26 2.6c-1.2.64-2.58.96-4.13.96-1.22 0-2.3-.2-3.24-.6a6.52 6.52 0 0 1-2.33-1.7 7.37 7.37 0 0 1-1.43-2.67c-.3-1.04-.46-2.2-.46-3.45V25.7h3.91v14.22c0 1.68.38 2.99 1.15 3.91.77.93 1.96 1.39 3.54 1.39 1.16 0 2.24-.27 3.23-.82a10.42 10.42 0 0 0 2.8-2.28V25.7h3.91zm8.61 4.47a9.94 9.94 0 0 1 2.6-3.56 5.64 5.64 0 0 1 3.76-1.3c.47 0 .92.05 1.34.15.44.1.83.27 1.17.49l-.3 2.92c-.09.37-.3.55-.66.55-.2 0-.5-.04-.9-.13a6.21 6.21 0 0 0-3.24.18 4.23 4.23 0 0 0-1.47.92c-.42.4-.81.9-1.17 1.5-.33.58-.64 1.26-.92 2.02V48H67.7V25.71h2.25c.42 0 .72.08.88.25.16.16.27.44.33.83l.26 3.39zm61.16-13.7L122.75 48h-3.82l-7.99-24.05a21.95 21.95 0 0 1-.42-1.58 38.36 38.36 0 0 1-.44 1.58L102.05 48h-3.83L88.4 16.47h3.54c.38 0 .7.1.95.29.26.2.43.43.5.73l6.52 21.9.28 1.28.29 1.46.3-1.46.38-1.27 7.41-21.91c.1-.25.26-.48.51-.69.27-.22.58-.33.95-.33h1.23c.38 0 .69.1.92.29a1.77 1.77 0 0 1 .53.73l7.4 21.9a28.4 28.4 0 0 1 .68 2.62 29.52 29.52 0 0 1 .52-2.61l6.54-21.91a1.31 1.31 0 0 1 .48-.7c.27-.21.58-.32.95-.32h3.32zm9.35 8.88c1.63 0 3.1.27 4.4.82a9.43 9.43 0 0 1 5.46 5.94c.5 1.4.74 2.98.74 4.73 0 1.76-.25 3.34-.74 4.75a9.43 9.43 0 0 1-5.46 5.92c-1.3.52-2.77.79-4.4.79-1.64 0-3.12-.27-4.44-.8a9.42 9.42 0 0 1-3.35-2.3c-.92-1-1.63-2.2-2.13-3.61-.49-1.41-.73-3-.73-4.75s.24-3.33.73-4.73c.5-1.43 1.2-2.64 2.13-3.63.93-1 2.04-1.77 3.35-2.31 1.32-.55 2.8-.82 4.44-.82zm0 19.89c2.2 0 3.84-.73 4.93-2.2 1.08-1.48 1.63-3.54 1.63-6.18 0-2.66-.55-4.72-1.63-6.2-1.09-1.49-2.73-2.23-4.93-2.23-1.12 0-2.09.2-2.93.57a5.71 5.71 0 0 0-2.06 1.65c-.55.72-.96 1.61-1.24 2.67-.26 1.04-.4 2.22-.4 3.54 0 2.64.55 4.7 1.64 6.18 1.1 1.47 2.76 2.2 4.99 2.2zm17.97-15.07a9.94 9.94 0 0 1 2.6-3.56 5.64 5.64 0 0 1 3.76-1.3c.47 0 .91.05 1.34.15.44.1.83.27 1.16.49l-.28 2.92c-.09.37-.31.55-.66.55-.2 0-.5-.04-.9-.13a6.2 6.2 0 0 0-3.24.18 4.23 4.23 0 0 0-1.47.92c-.43.4-.82.9-1.17 1.5a13.1 13.1 0 0 0-.92 2.02V48h-3.94V25.71h2.24c.43 0 .72.08.88.25.17.16.28.44.33.83l.27 3.39zm15.04-14.59V48h-3.92V15.6h3.92zm19.55 15.43a6.22 6.22 0 0 0-2.38-2.05 6.7 6.7 0 0 0-2.86-.6c-2.07 0-3.66.75-4.77 2.23-1.12 1.48-1.68 3.6-1.68 6.33 0 1.46.13 2.7.38 3.74a7.29 7.29 0 0 0 1.1 2.56 4.35 4.35 0 0 0 1.78 1.45c.7.3 1.5.46 2.4.46 1.29 0 2.41-.3 3.36-.88a9.6 9.6 0 0 0 2.67-2.49V31.02zm3.91-15.43V48h-2.33c-.56 0-.9-.27-1.06-.81l-.35-2.71a12.13 12.13 0 0 1-3.25 2.77 8.28 8.28 0 0 1-4.23 1.06 7.31 7.31 0 0 1-6.14-2.9c-.73-.96-1.3-2.15-1.69-3.57a18.35 18.35 0 0 1 .07-9.48 11.29 11.29 0 0 1 1.89-3.7 8.7 8.7 0 0 1 7.06-3.34 7.96 7.96 0 0 1 6.12 2.62V15.59h3.91zM46.61 70.71V93H42.7V70.71h3.91zm.84-7c0 .39-.08.75-.24 1.09-.15.32-.35.61-.62.88-.25.25-.55.44-.9.59a2.67 2.67 0 0 1-2.16 0 2.9 2.9 0 0 1-1.45-1.47 2.67 2.67 0 0 1 0-2.16c.15-.35.35-.65.6-.9.25-.27.53-.47.85-.62a2.67 2.67 0 0 1 2.16 0c.35.15.65.35.9.62.27.25.47.55.62.9.16.34.24.7.24 1.08zm7.97 10.24c.49-.54 1-1.04 1.54-1.48a9.85 9.85 0 0 1 3.66-1.84 8.96 8.96 0 0 1 5.43.35c.94.4 1.72.97 2.33 1.71.63.74 1.11 1.62 1.43 2.67.32 1.04.49 2.19.49 3.45V93h-3.94V78.81c0-1.69-.4-3-1.17-3.92-.76-.93-1.93-1.4-3.5-1.4-1.15 0-2.24.27-3.25.83-1 .56-1.92 1.31-2.77 2.27V93h-3.94V70.71h2.35c.56 0 .9.28 1.04.82l.3 2.42zm57.7 3.3c0 2.36-.37 4.5-1.11 6.44a14.3 14.3 0 0 1-3.17 4.98c-1.37 1.37-3 2.45-4.93 3.2-1.9.76-4.02 1.13-6.33 1.13H85.8V61.47h11.77c2.31 0 4.42.39 6.33 1.15a13.8 13.8 0 0 1 8.1 8.18 17.75 17.75 0 0 1 1.12 6.45zm-4.37 0c0-1.94-.26-3.67-.8-5.2a10.94 10.94 0 0 0-2.23-3.87 9.57 9.57 0 0 0-3.53-2.42 12.23 12.23 0 0 0-4.61-.83h-7.5v24.62h7.5c1.7 0 3.24-.28 4.61-.84a9.7 9.7 0 0 0 3.53-2.4 10.94 10.94 0 0 0 2.24-3.87c.53-1.53.8-3.26.8-5.2zm19.8 5.72c-1.8.06-3.34.2-4.62.44-1.26.22-2.3.51-3.1.88-.8.36-1.37.8-1.74 1.3-.35.5-.53 1.05-.53 1.67 0 .58.1 1.1.3 1.52a3 3 0 0 0 .76 1.05c.34.27.73.46 1.17.6a6.13 6.13 0 0 0 1.45.17 7.28 7.28 0 0 0 3.5-.81 11.95 11.95 0 0 0 2.82-2.2v-4.62zm-12.65-9.11a12.73 12.73 0 0 1 3.98-2.66c1.43-.59 3-.88 4.73-.88 1.25 0 2.36.2 3.33.61a6.81 6.81 0 0 1 3.94 4.38c.33 1.04.5 2.19.5 3.43V93h-1.74a1.8 1.8 0 0 1-.88-.18c-.2-.13-.36-.38-.48-.74l-.44-2.12-1.72 1.46a9.48 9.48 0 0 1-3.74 1.7c-.69.15-1.46.23-2.3.23-.87 0-1.69-.12-2.45-.35a5.34 5.34 0 0 1-3.34-2.93 6.64 6.64 0 0 1-.49-2.64c0-.88.25-1.72.73-2.53a6.33 6.33 0 0 1 2.35-2.17c1.09-.63 2.5-1.15 4.25-1.54 1.75-.41 3.89-.65 6.42-.7v-1.75c0-1.73-.37-3.03-1.12-3.91-.75-.9-1.84-1.34-3.28-1.34-.97 0-1.78.12-2.44.37-.64.23-1.2.5-1.7.81l-1.23.82c-.33.23-.67.35-1 .35-.27 0-.5-.07-.69-.2a2.1 2.1 0 0 1-.48-.53l-.7-1.25zm27.67 19.5c-1.76 0-3.12-.5-4.07-1.48-.94-.98-1.41-2.4-1.41-4.25V74h-2.68a.9.9 0 0 1-.6-.2c-.16-.14-.24-.36-.24-.66v-1.56l3.65-.46.9-6.89c.05-.22.14-.4.29-.52a.88.88 0 0 1 .62-.22H142v7.67h6.44V74H142v13.38c0 .94.22 1.63.68 2.09.45.45 1.04.68 1.76.68a3.21 3.21 0 0 0 1.85-.53l.55-.35c.16-.12.3-.18.41-.18.2 0 .4.13.55.38l1.15 1.87a7.45 7.45 0 0 1-2.44 1.5 8.53 8.53 0 0 1-2.95.52zm19.68-10.4c-1.8.07-3.34.21-4.62.45-1.26.22-2.3.51-3.1.88-.8.36-1.37.8-1.74 1.3-.35.5-.53 1.05-.53 1.67 0 .58.1 1.1.3 1.52a2.9 2.9 0 0 0 .76 1.05c.34.27.73.46 1.17.6a6.13 6.13 0 0 0 1.45.17 7.3 7.3 0 0 0 3.5-.81 12.04 12.04 0 0 0 2.82-2.2v-4.62zm-12.65-9.1a12.72 12.72 0 0 1 3.99-2.66c1.42-.59 3-.88 4.72-.88 1.25 0 2.36.2 3.33.61a6.81 6.81 0 0 1 3.94 4.38c.33 1.04.5 2.19.5 3.43V93h-1.74a1.8 1.8 0 0 1-.88-.18c-.2-.13-.36-.38-.48-.74l-.44-2.12-1.72 1.46a9.48 9.48 0 0 1-3.74 1.7c-.69.15-1.46.23-2.3.23-.87 0-1.69-.12-2.45-.35a5.33 5.33 0 0 1-3.34-2.93 6.62 6.62 0 0 1-.49-2.64c0-.88.25-1.72.73-2.53a6.33 6.33 0 0 1 2.35-2.17c1.09-.63 2.5-1.15 4.25-1.54 1.74-.41 3.89-.65 6.42-.7v-1.75c0-1.73-.37-3.03-1.12-3.91-.75-.9-1.84-1.34-3.28-1.34-.97 0-1.78.12-2.44.37-.64.23-1.2.5-1.7.81l-1.22.82c-.34.23-.68.35-1.02.35-.26 0-.49-.07-.68-.2a1.88 1.88 0 0 1-.48-.53l-.7-1.25zM40.98 32.25c0 2.36-.38 4.53-1.12 6.51a14.26 14.26 0 0 1-8.1 8.4c-1.9.78-4.02 1.17-6.34 1.17-2.31 0-4.42-.39-6.33-1.17a14.31 14.31 0 0 1-8.08-8.4 18.29 18.29 0 0 1-1.12-6.51c0-2.36.38-4.53 1.12-6.5.75-1.97 1.8-3.67 3.17-5.1a14.32 14.32 0 0 1 4.9-3.34c1.92-.8 4.03-1.19 6.34-1.19 2.32 0 4.43.4 6.34 1.19 1.92.8 3.56 1.9 4.93 3.34a14.87 14.87 0 0 1 3.17 5.1 18.1 18.1 0 0 1 1.12 6.5zm-4.38 0c0-1.94-.26-3.68-.8-5.22a10.91 10.91 0 0 0-2.24-3.89 9.68 9.68 0 0 0-3.52-2.46 11.95 11.95 0 0 0-4.62-.86c-1.68 0-3.21.28-4.6.86a9.88 9.88 0 0 0-3.54 2.46 10.91 10.91 0 0 0-2.24 3.9c-.53 1.53-.8 3.27-.8 5.2 0 1.94.27 3.68.8 5.22a11.17 11.17 0 0 0 2.24 3.9 10.01 10.01 0 0 0 3.55 2.44c1.38.56 2.9.83 4.6.83s3.24-.27 4.61-.83a9.8 9.8 0 0 0 3.52-2.44 11.17 11.17 0 0 0 2.25-3.9c.53-1.54.8-3.28.8-5.21zm26.22-6.54V48H60.5c-.56 0-.9-.27-1.05-.81l-.31-2.4a12.45 12.45 0 0 1-3.26 2.6c-1.2.64-2.58.96-4.13.96-1.22 0-2.3-.2-3.24-.6a6.52 6.52 0 0 1-2.33-1.7 7.37 7.37 0 0 1-1.43-2.67c-.3-1.04-.46-2.2-.46-3.45V25.7h3.91v14.22c0 1.68.38 2.99 1.15 3.91.77.93 1.96 1.39 3.54 1.39 1.16 0 2.24-.27 3.23-.82a10.42 10.42 0 0 0 2.8-2.28V25.7h3.91zm8.61 4.47a9.94 9.94 0 0 1 2.6-3.56 5.64 5.64 0 0 1 3.76-1.3c.47 0 .92.05 1.34.15.44.1.83.27 1.17.49l-.3 2.92c-.09.37-.3.55-.66.55-.2 0-.5-.04-.9-.13a6.21 6.21 0 0 0-3.24.18 4.23 4.23 0 0 0-1.47.92c-.42.4-.81.9-1.17 1.5-.33.58-.64 1.26-.92 2.02V48H67.7V25.71h2.25c.42 0 .72.08.88.25.16.16.27.44.33.83l.26 3.39zm61.16-13.7L122.75 48h-3.82l-7.99-24.05a21.95 21.95 0 0 1-.42-1.58 38.36 38.36 0 0 1-.44 1.58L102.05 48h-3.83L88.4 16.47h3.54c.38 0 .7.1.95.29.26.2.43.43.5.73l6.52 21.9.28 1.28.29 1.46.3-1.46.38-1.27 7.41-21.91c.1-.25.26-.48.51-.69.27-.22.58-.33.95-.33h1.23c.38 0 .69.1.92.29a1.77 1.77 0 0 1 .53.73l7.4 21.9a28.4 28.4 0 0 1 .68 2.62 29.52 29.52 0 0 1 .52-2.61l6.54-21.91a1.31 1.31 0 0 1 .48-.7c.27-.21.58-.32.95-.32h3.32zm9.35 8.88c1.63 0 3.1.27 4.4.82a9.43 9.43 0 0 1 5.46 5.94c.5 1.4.74 2.98.74 4.73 0 1.76-.25 3.34-.74 4.75a9.43 9.43 0 0 1-5.46 5.92c-1.3.52-2.77.79-4.4.79-1.64 0-3.12-.27-4.44-.8a9.42 9.42 0 0 1-3.35-2.3c-.92-1-1.63-2.2-2.13-3.61-.49-1.41-.73-3-.73-4.75s.24-3.33.73-4.73c.5-1.43 1.2-2.64 2.13-3.63.93-1 2.04-1.77 3.35-2.31 1.32-.55 2.8-.82 4.44-.82zm0 19.89c2.2 0 3.84-.73 4.93-2.2 1.08-1.48 1.63-3.54 1.63-6.18 0-2.66-.55-4.72-1.63-6.2-1.09-1.49-2.73-2.23-4.93-2.23-1.12 0-2.09.2-2.93.57a5.71 5.71 0 0 0-2.06 1.65c-.55.72-.96 1.61-1.24 2.67-.26 1.04-.4 2.22-.4 3.54 0 2.64.55 4.7 1.64 6.18 1.1 1.47 2.76 2.2 4.99 2.2zm17.97-15.07a9.94 9.94 0 0 1 2.6-3.56 5.64 5.64 0 0 1 3.76-1.3c.47 0 .91.05 1.34.15.44.1.83.27 1.16.49l-.28 2.92c-.09.37-.31.55-.66.55-.2 0-.5-.04-.9-.13a6.2 6.2 0 0 0-3.24.18 4.23 4.23 0 0 0-1.47.92c-.43.4-.82.9-1.17 1.5a13.1 13.1 0 0 0-.92 2.02V48h-3.94V25.71h2.24c.43 0 .72.08.88.25.17.16.28.44.33.83l.27 3.39zm15.04-14.59V48h-3.92V15.6h3.92zm19.55 15.43a6.22 6.22 0 0 0-2.38-2.05 6.7 6.7 0 0 0-2.86-.6c-2.07 0-3.66.75-4.77 2.23-1.12 1.48-1.68 3.6-1.68 6.33 0 1.46.13 2.7.38 3.74a7.29 7.29 0 0 0 1.1 2.56 4.35 4.35 0 0 0 1.78 1.45c.7.3 1.5.46 2.4.46 1.29 0 2.41-.3 3.36-.88a9.6 9.6 0 0 0 2.67-2.49V31.02zm3.91-15.43V48h-2.33c-.56 0-.9-.27-1.06-.81l-.35-2.71a12.13 12.13 0 0 1-3.25 2.77 8.28 8.28 0 0 1-4.23 1.06 7.31 7.31 0 0 1-6.14-2.9c-.73-.96-1.3-2.15-1.69-3.57a18.35 18.35 0 0 1 .07-9.48 11.29 11.29 0 0 1 1.89-3.7 8.7 8.7 0 0 1 7.06-3.34 7.96 7.96 0 0 1 6.12 2.62V15.59h3.91zM46.61 70.71V93H42.7V70.71h3.91zm.84-7c0 .39-.08.75-.24 1.09-.15.32-.35.61-.62.88-.25.25-.55.44-.9.59a2.67 2.67 0 0 1-2.16 0 2.9 2.9 0 0 1-1.45-1.47 2.67 2.67 0 0 1 0-2.16c.15-.35.35-.65.6-.9.25-.27.53-.47.85-.62a2.67 2.67 0 0 1 2.16 0c.35.15.65.35.9.62.27.25.47.55.62.9.16.34.24.7.24 1.08zm7.97 10.24c.49-.54 1-1.04 1.54-1.48a9.85 9.85 0 0 1 3.66-1.84 8.96 8.96 0 0 1 5.43.35c.94.4 1.72.97 2.33 1.71.63.74 1.11 1.62 1.43 2.67.32 1.04.49 2.19.49 3.45V93h-3.94V78.81c0-1.69-.4-3-1.17-3.92-.76-.93-1.93-1.4-3.5-1.4-1.15 0-2.24.27-3.25.83-1 .56-1.92 1.31-2.77 2.27V93h-3.94V70.71h2.35c.56 0 .9.28 1.04.82l.3 2.42zm57.7 3.3c0 2.36-.37 4.5-1.11 6.44a14.3 14.3 0 0 1-3.17 4.98c-1.37 1.37-3 2.45-4.93 3.2-1.9.76-4.02 1.13-6.33 1.13H85.8V61.47h11.77c2.31 0 4.42.39 6.33 1.15a13.8 13.8 0 0 1 8.1 8.18 17.75 17.75 0 0 1 1.12 6.45zm-4.37 0c0-1.94-.26-3.67-.8-5.2a10.94 10.94 0 0 0-2.23-3.87 9.57 9.57 0 0 0-3.53-2.42 12.23 12.23 0 0 0-4.61-.83h-7.5v24.62h7.5c1.7 0 3.24-.28 4.61-.84a9.7 9.7 0 0 0 3.53-2.4 10.94 10.94 0 0 0 2.24-3.87c.53-1.53.8-3.26.8-5.2zm19.8 5.72c-1.8.06-3.34.2-4.62.44-1.26.22-2.3.51-3.1.88-.8.36-1.37.8-1.74 1.3-.35.5-.53 1.05-.53 1.67 0 .58.1 1.1.3 1.52a3 3 0 0 0 .76 1.05c.34.27.73.46 1.17.6a6.13 6.13 0 0 0 1.45.17 7.28 7.28 0 0 0 3.5-.81 11.95 11.95 0 0 0 2.82-2.2v-4.62zm-12.65-9.11a12.73 12.73 0 0 1 3.98-2.66c1.43-.59 3-.88 4.73-.88 1.25 0 2.36.2 3.33.61a6.81 6.81 0 0 1 3.94 4.38c.33 1.04.5 2.19.5 3.43V93h-1.74a1.8 1.8 0 0 1-.88-.18c-.2-.13-.36-.38-.48-.74l-.44-2.12-1.72 1.46a9.48 9.48 0 0 1-3.74 1.7c-.69.15-1.46.23-2.3.23-.87 0-1.69-.12-2.45-.35a5.34 5.34 0 0 1-3.34-2.93 6.64 6.64 0 0 1-.49-2.64c0-.88.25-1.72.73-2.53a6.33 6.33 0 0 1 2.35-2.17c1.09-.63 2.5-1.15 4.25-1.54 1.75-.41 3.89-.65 6.42-.7v-1.75c0-1.73-.37-3.03-1.12-3.91-.75-.9-1.84-1.34-3.28-1.34-.97 0-1.78.12-2.44.37-.64.23-1.2.5-1.7.81l-1.23.82c-.33.23-.67.35-1 .35-.27 0-.5-.07-.69-.2a2.1 2.1 0 0 1-.48-.53l-.7-1.25zm27.67 19.5c-1.76 0-3.12-.5-4.07-1.48-.94-.98-1.41-2.4-1.41-4.25V74h-2.68a.9.9 0 0 1-.6-.2c-.16-.14-.24-.36-.24-.66v-1.56l3.65-.46.9-6.89c.05-.22.14-.4.29-.52a.88.88 0 0 1 .62-.22H142v7.67h6.44V74H142v13.38c0 .94.22 1.63.68 2.09.45.45 1.04.68 1.76.68a3.21 3.21 0 0 0 1.85-.53l.55-.35c.16-.12.3-.18.41-.18.2 0 .4.13.55.38l1.15 1.87a7.45 7.45 0 0 1-2.44 1.5 8.53 8.53 0 0 1-2.95.52zm19.68-10.4c-1.8.07-3.34.21-4.62.45-1.26.22-2.3.51-3.1.88-.8.36-1.37.8-1.74 1.3-.35.5-.53 1.05-.53 1.67 0 .58.1 1.1.3 1.52a2.9 2.9 0 0 0 .76 1.05c.34.27.73.46 1.17.6a6.13 6.13 0 0 0 1.45.17 7.3 7.3 0 0 0 3.5-.81 12.04 12.04 0 0 0 2.82-2.2v-4.62zm-12.65-9.1a12.72 12.72 0 0 1 3.99-2.66c1.42-.59 3-.88 4.72-.88 1.25 0 2.36.2 3.33.61a6.81 6.81 0 0 1 3.94 4.38c.33 1.04.5 2.19.5 3.43V93h-1.74a1.8 1.8 0 0 1-.88-.18c-.2-.13-.36-.38-.48-.74l-.44-2.12-1.72 1.46a9.48 9.48 0 0 1-3.74 1.7c-.69.15-1.46.23-2.3.23-.87 0-1.69-.12-2.45-.35a5.33 5.33 0 0 1-3.34-2.93 6.62 6.62 0 0 1-.49-2.64c0-.88.25-1.72.73-2.53a6.33 6.33 0 0 1 2.35-2.17c1.09-.63 2.5-1.15 4.25-1.54 1.74-.41 3.89-.65 6.42-.7v-1.75c0-1.73-.37-3.03-1.12-3.91-.75-.9-1.84-1.34-3.28-1.34-.97 0-1.78.12-2.44.37-.64.23-1.2.5-1.7.81l-1.22.82c-.34.23-.68.35-1.02.35-.26 0-.49-.07-.68-.2a1.88 1.88 0 0 1-.48-.53l-.7-1.25zM40.98 32.25c0 2.36-.38 4.53-1.12 6.51a14.26 14.26 0 0 1-8.1 8.4c-1.9.78-4.02 1.17-6.34 1.17-2.31 0-4.42-.39-6.33-1.17a14.31 14.31 0 0 1-8.08-8.4 18.29 18.29 0 0 1-1.12-6.51c0-2.36.38-4.53 1.12-6.5.75-1.97 1.8-3.67 3.17-5.1a14.32 14.32 0 0 1 4.9-3.34c1.92-.8 4.03-1.19 6.34-1.19 2.32 0 4.43.4 6.34 1.19 1.92.8 3.56 1.9 4.93 3.34a14.87 14.87 0 0 1 3.17 5.1 18.1 18.1 0 0 1 1.12 6.5zm-4.38 0c0-1.94-.26-3.68-.8-5.22a10.91 10.91 0 0 0-2.24-3.89 9.68 9.68 0 0 0-3.52-2.46 11.95 11.95 0 0 0-4.62-.86c-1.68 0-3.21.28-4.6.86a9.88 9.88 0 0 0-3.54 2.46 10.91 10.91 0 0 0-2.24 3.9c-.53 1.53-.8 3.27-.8 5.2 0 1.94.27 3.68.8 5.22a11.17 11.17 0 0 0 2.24 3.9 10.01 10.01 0 0 0 3.55 2.44c1.38.56 2.9.83 4.6.83s3.24-.27 4.61-.83a9.8 9.8 0 0 0 3.52-2.44 11.17 11.17 0 0 0 2.25-3.9c.53-1.54.8-3.28.8-5.21zm26.22-6.54V48H60.5c-.56 0-.9-.27-1.05-.81l-.31-2.4a12.45 12.45 0 0 1-3.26 2.6c-1.2.64-2.58.96-4.13.96-1.22 0-2.3-.2-3.24-.6a6.52 6.52 0 0 1-2.33-1.7 7.37 7.37 0 0 1-1.43-2.67c-.3-1.04-.46-2.2-.46-3.45V25.7h3.91v14.22c0 1.68.38 2.99 1.15 3.91.77.93 1.96 1.39 3.54 1.39 1.16 0 2.24-.27 3.23-.82a10.42 10.42 0 0 0 2.8-2.28V25.7h3.91zm8.61 4.47a9.94 9.94 0 0 1 2.6-3.56 5.64 5.64 0 0 1 3.76-1.3c.47 0 .92.05 1.34.15.44.1.83.27 1.17.49l-.3 2.92c-.09.37-.3.55-.66.55-.2 0-.5-.04-.9-.13a6.21 6.21 0 0 0-3.24.18 4.23 4.23 0 0 0-1.47.92c-.42.4-.81.9-1.17 1.5-.33.58-.64 1.26-.92 2.02V48H67.7V25.71h2.25c.42 0 .72.08.88.25.16.16.27.44.33.83l.26 3.39zm61.16-13.7L122.75 48h-3.82l-7.99-24.05a21.95 21.95 0 0 1-.42-1.58 38.36 38.36 0 0 1-.44 1.58L102.05 48h-3.83L88.4 16.47h3.54c.38 0 .7.1.95.29.26.2.43.43.5.73l6.52 21.9.28 1.28.29 1.46.3-1.46.38-1.27 7.41-21.91c.1-.25.26-.48.51-.69.27-.22.58-.33.95-.33h1.23c.38 0 .69.1.92.29a1.77 1.77 0 0 1 .53.73l7.4 21.9a28.4 28.4 0 0 1 .68 2.62 29.52 29.52 0 0 1 .52-2.61l6.54-21.91a1.31 1.31 0 0 1 .48-.7c.27-.21.58-.32.95-.32h3.32zm9.35 8.88c1.63 0 3.1.27 4.4.82a9.43 9.43 0 0 1 5.46 5.94c.5 1.4.74 2.98.74 4.73 0 1.76-.25 3.34-.74 4.75a9.43 9.43 0 0 1-5.46 5.92c-1.3.52-2.77.79-4.4.79-1.64 0-3.12-.27-4.44-.8a9.42 9.42 0 0 1-3.35-2.3c-.92-1-1.63-2.2-2.13-3.61-.49-1.41-.73-3-.73-4.75s.24-3.33.73-4.73c.5-1.43 1.2-2.64 2.13-3.63.93-1 2.04-1.77 3.35-2.31 1.32-.55 2.8-.82 4.44-.82zm0 19.89c2.2 0 3.84-.73 4.93-2.2 1.08-1.48 1.63-3.54 1.63-6.18 0-2.66-.55-4.72-1.63-6.2-1.09-1.49-2.73-2.23-4.93-2.23-1.12 0-2.09.2-2.93.57a5.71 5.71 0 0 0-2.06 1.65c-.55.72-.96 1.61-1.24 2.67-.26 1.04-.4 2.22-.4 3.54 0 2.64.55 4.7 1.64 6.18 1.1 1.47 2.76 2.2 4.99 2.2zm17.97-15.07a9.94 9.94 0 0 1 2.6-3.56 5.64 5.64 0 0 1 3.76-1.3c.47 0 .91.05 1.34.15.44.1.83.27 1.16.49l-.28 2.92c-.09.37-.31.55-.66.55-.2 0-.5-.04-.9-.13a6.2 6.2 0 0 0-3.24.18 4.23 4.23 0 0 0-1.47.92c-.43.4-.82.9-1.17 1.5a13.1 13.1 0 0 0-.92 2.02V48h-3.94V25.71h2.24c.43 0 .72.08.88.25.17.16.28.44.33.83l.27 3.39zm15.04-14.59V48h-3.92V15.6h3.92zm19.55 15.43a6.22 6.22 0 0 0-2.38-2.05 6.7 6.7 0 0 0-2.86-.6c-2.07 0-3.66.75-4.77 2.23-1.12 1.48-1.68 3.6-1.68 6.33 0 1.46.13 2.7.38 3.74a7.29 7.29 0 0 0 1.1 2.56 4.35 4.35 0 0 0 1.78 1.45c.7.3 1.5.46 2.4.46 1.29 0 2.41-.3 3.36-.88a9.6 9.6 0 0 0 2.67-2.49V31.02zm3.91-15.43V48h-2.33c-.56 0-.9-.27-1.06-.81l-.35-2.71a12.13 12.13 0 0 1-3.25 2.77 8.28 8.28 0 0 1-4.23 1.06 7.31 7.31 0 0 1-6.14-2.9c-.73-.96-1.3-2.15-1.69-3.57a18.35 18.35 0 0 1 .07-9.48 11.29 11.29 0 0 1 1.89-3.7 8.7 8.7 0 0 1 7.06-3.34 7.96 7.96 0 0 1 6.12 2.62V15.59h3.91zM46.61 70.71V93H42.7V70.71h3.91zm.84-7c0 .39-.08.75-.24 1.09-.15.32-.35.61-.62.88-.25.25-.55.44-.9.59a2.67 2.67 0 0 1-2.16 0 2.9 2.9 0 0 1-1.45-1.47 2.67 2.67 0 0 1 0-2.16c.15-.35.35-.65.6-.9.25-.27.53-.47.85-.62a2.67 2.67 0 0 1 2.16 0c.35.15.65.35.9.62.27.25.47.55.62.9.16.34.24.7.24 1.08zm7.97 10.24c.49-.54 1-1.04 1.54-1.48a9.85 9.85 0 0 1 3.66-1.84 8.96 8.96 0 0 1 5.43.35c.94.4 1.72.97 2.33 1.71.63.74 1.11 1.62 1.43 2.67.32 1.04.49 2.19.49 3.45V93h-3.94V78.81c0-1.69-.4-3-1.17-3.92-.76-.93-1.93-1.4-3.5-1.4-1.15 0-2.24.27-3.25.83-1 .56-1.92 1.31-2.77 2.27V93h-3.94V70.71h2.35c.56 0 .9.28 1.04.82l.3 2.42zm57.7 3.3c0 2.36-.37 4.5-1.11 6.44a14.3 14.3 0 0 1-3.17 4.98c-1.37 1.37-3 2.45-4.93 3.2-1.9.76-4.02 1.13-6.33 1.13H85.8V61.47h11.77c2.31 0 4.42.39 6.33 1.15a13.8 13.8 0 0 1 8.1 8.18 17.75 17.75 0 0 1 1.12 6.45zm-4.37 0c0-1.94-.26-3.67-.8-5.2a10.94 10.94 0 0 0-2.23-3.87 9.57 9.57 0 0 0-3.53-2.42 12.23 12.23 0 0 0-4.61-.83h-7.5v24.62h7.5c1.7 0 3.24-.28 4.61-.84a9.7 9.7 0 0 0 3.53-2.4 10.94 10.94 0 0 0 2.24-3.87c.53-1.53.8-3.26.8-5.2zm19.8 5.72c-1.8.06-3.34.2-4.62.44-1.26.22-2.3.51-3.1.88-.8.36-1.37.8-1.74 1.3-.35.5-.53 1.05-.53 1.67 0 .58.1 1.1.3 1.52a3 3 0 0 0 .76 1.05c.34.27.73.46 1.17.6a6.13 6.13 0 0 0 1.45.17 7.28 7.28 0 0 0 3.5-.81 11.95 11.95 0 0 0 2.82-2.2v-4.62zm-12.65-9.11a12.73 12.73 0 0 1 3.98-2.66c1.43-.59 3-.88 4.73-.88 1.25 0 2.36.2 3.33.61a6.81 6.81 0 0 1 3.94 4.38c.33 1.04.5 2.19.5 3.43V93h-1.74a1.8 1.8 0 0 1-.88-.18c-.2-.13-.36-.38-.48-.74l-.44-2.12-1.72 1.46a9.48 9.48 0 0 1-3.74 1.7c-.69.15-1.46.23-2.3.23-.87 0-1.69-.12-2.45-.35a5.34 5.34 0 0 1-3.34-2.93 6.64 6.64 0 0 1-.49-2.64c0-.88.25-1.72.73-2.53a6.33 6.33 0 0 1 2.35-2.17c1.09-.63 2.5-1.15 4.25-1.54 1.75-.41 3.89-.65 6.42-.7v-1.75c0-1.73-.37-3.03-1.12-3.91-.75-.9-1.84-1.34-3.28-1.34-.97 0-1.78.12-2.44.37-.64.23-1.2.5-1.7.81l-1.23.82c-.33.23-.67.35-1 .35-.27 0-.5-.07-.69-.2a2.1 2.1 0 0 1-.48-.53l-.7-1.25zm27.67 19.5c-1.76 0-3.12-.5-4.07-1.48-.94-.98-1.41-2.4-1.41-4.25V74h-2.68a.9.9 0 0 1-.6-.2c-.16-.14-.24-.36-.24-.66v-1.56l3.65-.46.9-6.89c.05-.22.14-.4.29-.52a.88.88 0 0 1 .62-.22H142v7.67h6.44V74H142v13.38c0 .94.22 1.63.68 2.09.45.45 1.04.68 1.76.68a3.21 3.21 0 0 0 1.85-.53l.55-.35c.16-.12.3-.18.41-.18.2 0 .4.13.55.38l1.15 1.87a7.45 7.45 0 0 1-2.44 1.5 8.53 8.53 0 0 1-2.95.52zm19.68-10.4c-1.8.07-3.34.21-4.62.45-1.26.22-2.3.51-3.1.88-.8.36-1.37.8-1.74 1.3-.35.5-.53 1.05-.53 1.67 0 .58.1 1.1.3 1.52a2.9 2.9 0 0 0 .76 1.05c.34.27.73.46 1.17.6a6.13 6.13 0 0 0 1.45.17 7.3 7.3 0 0 0 3.5-.81 12.04 12.04 0 0 0 2.82-2.2v-4.62zm-12.65-9.1a12.72 12.72 0 0 1 3.99-2.66c1.42-.59 3-.88 4.72-.88 1.25 0 2.36.2 3.33.61a6.81 6.81 0 0 1 3.94 4.38c.33 1.04.5 2.19.5 3.43V93h-1.74a1.8 1.8 0 0 1-.88-.18c-.2-.13-.36-.38-.48-.74l-.44-2.12-1.72 1.46a9.48 9.48 0 0 1-3.74 1.7c-.69.15-1.46.23-2.3.23-.87 0-1.69-.12-2.45-.35a5.33 5.33 0 0 1-3.34-2.93 6.62 6.62 0 0 1-.49-2.64c0-.88.25-1.72.73-2.53a6.33 6.33 0 0 1 2.35-2.17c1.09-.63 2.5-1.15 4.25-1.54 1.74-.41 3.89-.65 6.42-.7v-1.75c0-1.73-.37-3.03-1.12-3.91-.75-.9-1.84-1.34-3.28-1.34-.97 0-1.78.12-2.44.37-.64.23-1.2.5-1.7.81l-1.22.82c-.34.23-.68.35-1.02.35-.26 0-.49-.07-.68-.2a1.88 1.88 0 0 1-.48-.53l-.7-1.25z"
    fill="#fff"
  />
  <path fill="#D42B21" d="M0 106.79h210V120H0z" />
</g>
<defs>
  <clipPath id="clip0"><path fill="#fff" d="M0 0h210v120H0z" /></clipPath>
</defs>
</svg></g><a href="http://localhost:3030/grapher/child-mortality-rate-including-un-projections-through-2100" style="font-family:&quot;Playfair Display&quot;, Georgia, &quot;Times New Roman&quot;, serif" target="_blank" rel="noopener"><text font-size="25.20" x="15.0" y="36.9" fill="#555"><tspan x="15" y="36.924">Child mortality rate, including UN projections</tspan></text></a><text x="15.0" y="58.2" style="font-size:14.4px;line-height:1.2" fill="#666"><tspan x="15" y="58.2">Child mortality rate is the share of children (born alive) dying between birth and the age of 5.</tspan></text></g><g class="LineChart"><defs><clipPath id="boundsClip-1"><rect x="42.562" y="67.48" width="840" height="488.65999999999997"></rect></clipPath></defs><rect x="15" y="77.48" width="820" height="468.65999999999997" fill="transparent"></rect><g class="DualAxisView"><g class="HorizontalAxis"><line x1="52.6" y1="524.9399999999999" x2="52.6" y2="529.9399999999999" stroke="#999"></line><line x1="764.6" y1="524.9399999999999" x2="764.6" y2="529.9399999999999" stroke="#999"></line><line x1="195.9" y1="524.9399999999999" x2="195.9" y2="529.9399999999999" stroke="#999"></line><line x1="291.5" y1="524.9399999999999" x2="291.5" y2="529.9399999999999" stroke="#999"></line><line x1="387.1" y1="524.9399999999999" x2="387.1" y2="529.9399999999999" stroke="#999"></line><line x1="482.7" y1="524.9399999999999" x2="482.7" y2="529.9399999999999" stroke="#999"></line><line x1="578.2" y1="524.9399999999999" x2="578.2" y2="529.9399999999999" stroke="#999"></line><line x1="673.8" y1="524.9399999999999" x2="673.8" y2="529.9399999999999" stroke="#999"></line><text x="52.562" y="546.14" fill="#666" text-anchor="start" font-size="16.2">1950</text><text x="764.63" y="546.14" fill="#666" text-anchor="end" font-size="16.2">2099</text><text x="195.9" y="546.14" fill="#666" text-anchor="middle" font-size="16.2">1980</text><text x="291.5" y="546.14" fill="#666" text-anchor="middle" font-size="16.2">2000</text><text x="387.1" y="546.14" fill="#666" text-anchor="middle" font-size="16.2">2020</text><text x="482.7" y="546.14" fill="#666" text-anchor="middle" font-size="16.2">2040</text><text x="578.2" y="546.14" fill="#666" text-anchor="middle" font-size="16.2">2060</text><text x="673.8" y="546.14" fill="#666" text-anchor="middle" font-size="16.2">2080</text></g><g class="VerticalAxis"><text x="47.56" y="524.9" dy=".32em" text-anchor="end" fill="#666" font-size="16.2">0%</text><text x="47.56" y="455.6" dy=".32em" text-anchor="end" fill="#666" font-size="16.2">5%</text><text x="47.56" y="386.3" dy=".32em" text-anchor="end" fill="#666" font-size="16.2">10%</text><text x="47.56" y="316.9" dy=".32em" text-anchor="end" fill="#666" font-size="16.2">15%</text><text x="47.56" y="247.6" dy=".32em" text-anchor="end" fill="#666" font-size="16.2">20%</text><text x="47.56" y="178.2" dy=".32em" text-anchor="end" fill="#666" font-size="16.2">25%</text><text x="47.56" y="108.9" dy=".32em" text-anchor="end" fill="#666" font-size="16.2">30%</text></g><g class="AxisGridLines horizontalLines"><line x1="52.56" y1="524.9" x2="764.63" y2="524.9" stroke="#999"></line><line x1="52.56" y1="455.6" x2="764.63" y2="455.6" stroke="#ddd" stroke-dasharray="3,2"></line><line x1="52.56" y1="386.3" x2="764.63" y2="386.3" stroke="#ddd" stroke-dasharray="3,2"></line><line x1="52.56" y1="316.9" x2="764.63" y2="316.9" stroke="#ddd" stroke-dasharray="3,2"></line><line x1="52.56" y1="247.6" x2="764.63" y2="247.6" stroke="#ddd" stroke-dasharray="3,2"></line><line x1="52.56" y1="178.2" x2="764.63" y2="178.2" stroke="#ddd" stroke-dasharray="3,2"></line><line x1="52.56" y1="108.9" x2="764.63" y2="108.9" stroke="#ddd" stroke-dasharray="3,2"></line></g></g><g clip-path="url(#boundsClip-1)"><g class="LineLabels" style="cursor:default"><g class="legendMark"><g class="indicator"><path d="M768.63,500.4 H773.13 V456.18999999999994 H795.63" stroke="#999" stroke-width="0.5" fill="none"></path></g><rect x="764.63" y="449.43999999999994" width="69.56" height="13.5" fill="#fff" opacity="0"></rect><text font-size="13.50" font-weight="400" x="799.6" y="461.2" fill="#c15065"><tspan x="799.63" y="461.18499999999995">Africa</tspan></text></g><g class="legendMark"><g class="indicator"><path d="M768.63,509.2 H777.63 V471.68999999999994 H795.63" stroke="#999" stroke-width="0.5" fill="none"></path></g><rect x="764.63" y="464.93999999999994" width="70.235" height="13.5" fill="#fff" opacity="0"></rect><text font-size="13.50" font-weight="400" x="799.6" y="476.7" fill="#be5915"><tspan x="799.63" y="476.68499999999995">World</tspan></text></g><g class="legendMark"><g class="indicator"><path d="M768.63,516 H782.13 V487.18999999999994 H795.63" stroke="#999" stroke-width="0.5" fill="none"></path></g><rect x="764.63" y="480.43999999999994" width="64.43" height="13.5" fill="#fff" opacity="0"></rect><text font-size="13.50" font-weight="400" x="799.6" y="492.2" fill="#6d3e91"><tspan x="799.63" y="492.18499999999995">India</tspan></text></g><g class="legendMark"><g class="indicator"><path d="M768.63,516.6 H786.63 V502.68999999999994 H795.63" stroke="#999" stroke-width="0.5" fill="none"></path></g><rect x="764.63" y="495.93999999999994" width="61.325" height="13.5" fill="#fff" opacity="0"></rect><text font-size="13.50" font-weight="400" x="799.6" y="507.7" fill="#2c8465"><tspan x="799.63" y="507.68499999999995">Asia</tspan></text></g><g class="legendMark"><g class="indicator"><path d="M768.63,521 H791.13 V518.1899999999999 H795.63" stroke="#999" stroke-width="0.5" fill="none"></path></g><rect x="764.63" y="511.43999999999994" width="70.37" height="13.5" fill="#fff" opacity="0"></rect><text font-size="13.50" font-weight="400" x="799.6" y="523.2" fill="#cf0a66"><tspan x="799.63" y="523.185">China</tspan></text></g></g><g class="Lines"><rect x="53" y="77" width="712" height="447" fill="rgba(255,255,255,0)" opacity="0"></rect><g><path stroke-linecap="round" stroke-linejoin="round" stroke="#ddd" d="M387.1 475.4L391.9 477.1L396.6 478.8L401.4 480.3L406.2 481.8L411 483.2L415.8 484.5L420.5 485.8L425.3 487L430.1 488.2L434.9 489.2L439.7 490.3L444.4 491.2L449.2 492.2L454 493.1L458.8 493.9L463.6 494.7L468.3 495.5L473.1 496.3L477.9 497L482.7 497.7L487.4 498.4L492.2 499L497 499.7L501.8 500.3L506.6 500.9L511.3 501.4L516.1 502L520.9 502.5L525.7 503L530.5 503.5L535.2 504L540 504.5L544.8 505L549.6 505.4L554.4 505.8L559.1 506.2L563.9 506.6L568.7 507L573.5 507.4L578.2 507.8L583 508.1L587.8 508.5L592.6 508.8L597.4 509.1L602.1 509.4L606.9 509.7L611.7 510L616.5 510.3L621.3 510.5L626 510.8L630.8 511.1L635.6 511.3L640.4 511.5L645.2 511.8L649.9 512L654.7 512.2L659.5 512.5L664.3 512.7L669.1 512.9L673.8 513.1L678.6 513.3L683.4 513.4L688.2 513.6L692.9 513.8L697.7 514L702.5 514.1L707.3 514.3L712.1 514.5L716.8 514.6L721.6 514.8L726.4 514.9L731.2 515L736 515.2L740.7 515.3L745.5 515.5L750.3 515.6L755.1 515.7L759.9 515.9L764.6 516" fill="none" stroke-width="1"></path></g><g><path stroke-linecap="round" stroke-linejoin="round" stroke="#ddd" d="M387.1 472.8L391.9 473.9L396.6 474.9L401.4 475.9L406.2 476.9L411 477.8L415.8 478.7L420.5 479.6L425.3 480.5L430.1 481.4L434.9 482.3L439.7 483.1L444.4 483.9L449.2 484.7L454 485.5L458.8 486.2L463.6 487L468.3 487.7L473.1 488.4L477.9 489L482.7 489.7L487.4 490.3L492.2 491L497 491.6L501.8 492.1L506.6 492.7L511.3 493.3L516.1 493.8L520.9 494.3L525.7 494.8L530.5 495.3L535.2 495.8L540 496.2L544.8 496.6L549.6 497.1L554.4 497.5L559.1 497.9L563.9 498.3L568.7 498.7L573.5 499.1L578.2 499.4L583 499.8L587.8 500.1L592.6 500.5L597.4 500.8L602.1 501.2L606.9 501.5L611.7 501.8L616.5 502.1L621.3 502.4L626 502.7L630.8 503L635.6 503.3L640.4 503.6L645.2 503.9L649.9 504.1L654.7 504.4L659.5 504.7L664.3 504.9L669.1 505.2L673.8 505.4L678.6 505.6L683.4 505.9L688.2 506.1L692.9 506.3L697.7 506.6L702.5 506.8L707.3 507L712.1 507.2L716.8 507.4L721.6 507.6L726.4 507.8L731.2 508L736 508.1L740.7 508.3L745.5 508.5L750.3 508.7L755.1 508.9L759.9 509L764.6 509.2" fill="none" stroke-width="1"></path></g><g><path stroke-linecap="round" stroke-linejoin="round" stroke="#ddd" d="M387.1 485.3L391.9 486.3L396.6 487.3L401.4 488.3L406.2 489.2L411 490.1L415.8 491L420.5 491.9L425.3 492.7L430.1 493.6L434.9 494.4L439.7 495.1L444.4 495.9L449.2 496.6L454 497.3L458.8 497.9L463.6 498.6L468.3 499.2L473.1 499.8L477.9 500.3L482.7 500.9L487.4 501.4L492.2 502L497 502.5L501.8 502.9L506.6 503.4L511.3 503.9L516.1 504.3L520.9 504.7L525.7 505.1L530.5 505.5L535.2 505.9L540 506.3L544.8 506.7L549.6 507L554.4 507.4L559.1 507.7L563.9 508L568.7 508.4L573.5 508.7L578.2 509L583 509.3L587.8 509.5L592.6 509.8L597.4 510.1L602.1 510.4L606.9 510.6L611.7 510.9L616.5 511.1L621.3 511.4L626 511.6L630.8 511.8L635.6 512.1L640.4 512.3L645.2 512.5L649.9 512.7L654.7 512.9L659.5 513.1L664.3 513.3L669.1 513.5L673.8 513.7L678.6 513.9L683.4 514.1L688.2 514.3L692.9 514.4L697.7 514.6L702.5 514.8L707.3 514.9L712.1 515.1L716.8 515.2L721.6 515.4L726.4 515.5L731.2 515.7L736 515.8L740.7 515.9L745.5 516.1L750.3 516.2L755.1 516.3L759.9 516.4L764.6 516.6" fill="none" stroke-width="1"></path></g><g><path stroke-linecap="round" stroke-linejoin="round" stroke="#ddd" d="M387.1 433L391.9 435.3L396.6 437.4L401.4 439.4L406.2 441.4L411 443.2L415.8 445.1L420.5 446.9L425.3 448.7L430.1 450.4L434.9 452L439.7 453.7L444.4 455.3L449.2 456.8L454 458.3L458.8 459.8L463.6 461.2L468.3 462.6L473.1 463.9L477.9 465.2L482.7 466.4L487.4 467.6L492.2 468.8L497 469.9L501.8 471L506.6 472L511.3 473L516.1 474L520.9 474.9L525.7 475.9L530.5 476.7L535.2 477.6L540 478.4L544.8 479.2L549.6 480L554.4 480.7L559.1 481.5L563.9 482.2L568.7 482.9L573.5 483.6L578.2 484.2L583 484.9L587.8 485.5L592.6 486.1L597.4 486.7L602.1 487.3L606.9 487.9L611.7 488.4L616.5 488.9L621.3 489.5L626 490L630.8 490.5L635.6 490.9L640.4 491.4L645.2 491.8L649.9 492.3L654.7 492.7L659.5 493.2L664.3 493.6L669.1 494L673.8 494.4L678.6 494.8L683.4 495.1L688.2 495.5L692.9 495.9L697.7 496.2L702.5 496.6L707.3 496.9L712.1 497.2L716.8 497.5L721.6 497.9L726.4 498.2L731.2 498.5L736 498.8L740.7 499L745.5 499.3L750.3 499.6L755.1 499.9L759.9 500.2L764.6 500.4" fill="none" stroke-width="1"></path></g><g><path stroke-linecap="round" stroke-linejoin="round" stroke="#ddd" d="M387.1 510.3L391.9 510.8L396.6 511.2L401.4 511.6L406.2 512L411 512.3L415.8 512.7L420.5 513L425.3 513.4L430.1 513.7L434.9 514L439.7 514.3L444.4 514.6L449.2 514.8L454 515.1L458.8 515.3L463.6 515.6L468.3 515.8L473.1 516L477.9 516.2L482.7 516.4L487.4 516.6L492.2 516.8L497 517L501.8 517.1L506.6 517.3L511.3 517.5L516.1 517.6L520.9 517.8L525.7 517.9L530.5 518L535.2 518.2L540 518.3L544.8 518.4L549.6 518.5L554.4 518.6L559.1 518.7L563.9 518.8L568.7 518.9L573.5 519L578.2 519.1L583 519.2L587.8 519.2L592.6 519.3L597.4 519.4L602.1 519.4L606.9 519.5L611.7 519.5L616.5 519.6L621.3 519.7L626 519.7L630.8 519.8L635.6 519.8L640.4 519.9L645.2 519.9L649.9 520L654.7 520L659.5 520.1L664.3 520.1L669.1 520.2L673.8 520.2L678.6 520.3L683.4 520.3L688.2 520.4L692.9 520.4L697.7 520.5L702.5 520.5L707.3 520.5L712.1 520.6L716.8 520.6L721.6 520.7L726.4 520.7L731.2 520.7L736 520.8L740.7 520.8L745.5 520.9L750.3 520.9L755.1 520.9L759.9 521L764.6 521" fill="none" stroke-width="1"></path></g><g><path stroke-linecap="round" stroke-linejoin="round" stroke="#ddd" d="M52.6 232.7L57.3 235.4L62.1 240L66.9 242.9L71.7 244.2L76.5 243.8L81.2 242L86 239.1L90.8 235.6L95.6 232.5L100.4 230.9L105.1 232L109.9 236.6L114.7 245.5L119.5 258.4L124.2 274.7L129 293.1L133.8 312L138.6 330L143.4 346.2L148.1 360.3L152.9 372.1L157.7 382.5L162.5 391.8L167.3 400.3L172 408L176.8 415L181.6 421.4L186.4 427.2L191.2 432.4L195.9 437.1L200.7 441.1L205.5 444.3L210.3 446.8L215 448.6L219.8 449.8L224.6 450.5L229.4 451L234.2 451.3L238.9 451.6L243.7 452.1L248.5 452.9L253.3 453.9L258.1 455.1L262.8 456.7L267.6 458.6L272.4 460.8L277.2 463.3L282 466L286.7 468.9L291.5 471.9L296.3 475L301.1 478.2L305.8 481.6L310.6 484.9L315.4 488.1L320.2 491.2L325 494.1L329.7 496.8L334.5 499.2L339.3 501.3L344.1 503.1L348.9 504.5L353.6 505.8L358.4 506.8L363.2 507.6L368 508.3L372.8 508.9L377.5 509.4L382.3 509.9" fill="none" stroke-width="1"></path></g><g><path stroke-linecap="round" stroke-linejoin="round" stroke="#ddd" d="M52.6 135.9L57.3 139.2L62.1 145.7L66.9 152.1L71.7 158.3L76.5 164.3L81.2 170.2L86 176L90.8 181.5L95.6 186.8L100.4 191.9L105.1 196.7L109.9 201.3L114.7 205.5L119.5 209.5L124.2 213.4L129 217L133.8 220.7L138.6 224.4L143.4 228.3L148.1 232.5L152.9 237.1L157.7 242.2L162.5 247.8L167.3 253.8L172 260.2L176.8 267L181.6 274.1L186.4 281.3L191.2 288.4L195.9 295.4L200.7 302.2L205.5 308.8L210.3 315.1L215 321.1L219.8 326.8L224.6 332.2L229.4 337.4L234.2 342.5L238.9 347.5L243.7 352.4L248.5 357.3L253.3 362L258.1 366.8L262.8 371.5L267.6 376.2L272.4 381L277.2 385.8L282 390.6L286.7 395.5L291.5 400.4L296.3 405.3L301.1 410.1L305.8 414.9L310.6 419.6L315.4 424.2L320.2 428.8L325 433.3L329.7 437.8L334.5 442.2L339.3 446.5L344.1 450.6L348.9 454.5L353.6 458.1L358.4 461.3L363.2 464.3L368 466.9L372.8 469.3L377.5 471.5L382.3 473.5" fill="none" stroke-width="1"></path></g><g><path stroke-linecap="round" stroke-linejoin="round" stroke="#ddd" d="M52.6 215.1L57.3 219.2L62.1 227L66.9 234L71.7 240.2L76.5 245.6L81.2 250.2L86 254.2L90.8 257.7L95.6 261L100.4 264.3L105.1 267.9L109.9 272.2L114.7 277.3L119.5 283.2L124.2 289.8L129 296.7L133.8 303.7L138.6 310.3L143.4 316.4L148.1 321.9L152.9 326.8L157.7 331.3L162.5 335.6L167.3 339.6L172 343.5L176.8 347.5L181.6 351.4L186.4 355.4L191.2 359.5L195.9 363.6L200.7 367.9L205.5 372.1L210.3 376.2L215 380.1L219.8 383.8L224.6 387L229.4 389.8L234.2 392.1L238.9 394.1L243.7 395.7L248.5 397.2L253.3 398.8L258.1 400.4L262.8 402.3L267.6 404.6L272.4 407.1L277.2 409.9L282 412.8L286.7 415.9L291.5 419.2L296.3 422.6L301.1 426.1L305.8 429.7L310.6 433.4L315.4 437L320.2 440.7L325 444.2L329.7 447.6L334.5 450.9L339.3 454L344.1 456.8L348.9 459.4L353.6 461.8L358.4 463.9L363.2 465.8L368 467.5L372.8 469.1L377.5 470.4L382.3 471.7" fill="none" stroke-width="1"></path></g><g><path stroke-linecap="round" stroke-linejoin="round" stroke="#ddd" d="M52.6 186.9L57.3 190.6L62.1 197.5L66.9 203.7L71.7 209L76.5 213.6L81.2 217.6L86 220.9L90.8 223.9L95.6 226.9L100.4 230.4L105.1 234.8L109.9 240.4L114.7 247.6L119.5 256.1L124.2 265.7L129 275.9L133.8 286L138.6 295.4L143.4 303.9L148.1 311.3L152.9 317.6L157.7 323.2L162.5 328.2L167.3 333L172 337.6L176.8 342.1L181.6 346.7L186.4 351.4L191.2 356.2L195.9 361.2L200.7 366.4L205.5 371.5L210.3 376.6L215 381.5L219.8 386.1L224.6 390.3L229.4 394L234.2 397.3L238.9 400.1L243.7 402.7L248.5 405L253.3 407.4L258.1 409.8L262.8 412.5L267.6 415.4L272.4 418.5L277.2 421.9L282 425.4L286.7 428.9L291.5 432.5L296.3 436.2L301.1 439.9L305.8 443.6L310.6 447.3L315.4 450.9L320.2 454.4L325 457.8L329.7 461.2L334.5 464.4L339.3 467.4L344.1 470.2L348.9 472.8L353.6 475.1L358.4 477.1L363.2 478.9L368 480.5L372.8 481.8L377.5 483.1L382.3 484.2" fill="none" stroke-width="1"></path></g><g><path stroke-linecap="round" stroke-linejoin="round" stroke="#ddd" d="M52.6 77.5L57.3 81.7L62.1 90L66.9 98.2L71.7 106.2L76.5 114.1L81.2 121.7L86 129.2L90.8 136.5L95.6 143.6L100.4 150.4L105.1 157L109.9 163.4L114.7 169.4L119.5 175.3L124.2 180.9L129 186.3L133.8 191.5L138.6 196.6L143.4 201.7L148.1 206.7L152.9 211.9L157.7 217.3L162.5 222.7L167.3 228.3L172 234L176.8 239.7L181.6 245.3L186.4 250.9L191.2 256.2L195.9 261.2L200.7 266.1L205.5 270.6L210.3 275L215 279L219.8 282.5L224.6 285.5L229.4 287.8L234.2 289.5L238.9 290.8L243.7 292L248.5 293.2L253.3 294.7L258.1 296.8L262.8 299.6L267.6 303.1L272.4 307.4L277.2 312.2L282 317.5L286.7 323.1L291.5 329L296.3 335.2L301.1 341.8L305.8 348.6L310.6 355.5L315.4 362.5L320.2 369.4L325 376.2L329.7 382.8L334.5 389.1L339.3 395L344.1 400.5L348.9 405.6L353.6 410.2L358.4 414.5L363.2 418.4L368 421.9L372.8 425.1L377.5 428L382.3 430.6" fill="none" stroke-width="1"></path></g><g><path fill="none" stroke-linecap="butt" stroke-linejoin="round" stroke="#fff" stroke-width="2.5" stroke-dasharray="2,3" d="M387.1 475.4L391.9 477.1L396.6 478.8L401.4 480.3L406.2 481.8L411 483.2L415.8 484.5L420.5 485.8L425.3 487L430.1 488.2L434.9 489.2L439.7 490.3L444.4 491.2L449.2 492.2L454 493.1L458.8 493.9L463.6 494.7L468.3 495.5L473.1 496.3L477.9 497L482.7 497.7L487.4 498.4L492.2 499L497 499.7L501.8 500.3L506.6 500.9L511.3 501.4L516.1 502L520.9 502.5L525.7 503L530.5 503.5L535.2 504L540 504.5L544.8 505L549.6 505.4L554.4 505.8L559.1 506.2L563.9 506.6L568.7 507L573.5 507.4L578.2 507.8L583 508.1L587.8 508.5L592.6 508.8L597.4 509.1L602.1 509.4L606.9 509.7L611.7 510L616.5 510.3L621.3 510.5L626 510.8L630.8 511.1L635.6 511.3L640.4 511.5L645.2 511.8L649.9 512L654.7 512.2L659.5 512.5L664.3 512.7L669.1 512.9L673.8 513.1L678.6 513.3L683.4 513.4L688.2 513.6L692.9 513.8L697.7 514L702.5 514.1L707.3 514.3L712.1 514.5L716.8 514.6L721.6 514.8L726.4 514.9L731.2 515L736 515.2L740.7 515.3L745.5 515.5L750.3 515.6L755.1 515.7L759.9 515.9L764.6 516"></path><polyline points="387.10,475.40 391.90,477.10 396.60,478.80 401.40,480.30 406.20,481.80 411.00,483.20 415.80,484.50 420.50,485.80 425.30,487.00 430.10,488.20 434.90,489.20 439.70,490.30 444.40,491.20 449.20,492.20 454.00,493.10 458.80,493.90 463.60,494.70 468.30,495.50 473.10,496.30 477.90,497.00 482.70,497.70 487.40,498.40 492.20,499.00 497.00,499.70 501.80,500.30 506.60,500.90 511.30,501.40 516.10,502.00 520.90,502.50 525.70,503.00 530.50,503.50 535.20,504.00 540.00,504.50 544.80,505.00 549.60,505.40 554.40,505.80 559.10,506.20 563.90,506.60 568.70,507.00 573.50,507.40 578.20,507.80 583.00,508.10 587.80,508.50 592.60,508.80 597.40,509.10 602.10,509.40 606.90,509.70 611.70,510.00 616.50,510.30 621.30,510.50 626.00,510.80 630.80,511.10 635.60,511.30 640.40,511.50 645.20,511.80 649.90,512.00 654.70,512.20 659.50,512.50 664.30,512.70 669.10,512.90 673.80,513.10 678.60,513.30 683.40,513.40 688.20,513.60 692.90,513.80 697.70,514.00 702.50,514.10 707.30,514.30 712.10,514.50 716.80,514.60 721.60,514.80 726.40,514.90 731.20,515.00 736.00,515.20 740.70,515.30 745.50,515.50 750.30,515.60 755.10,515.70 759.90,515.90 764.60,516.00" stroke-linejoin="round" stroke-width="1.5" stroke-dasharray="2,3" stroke="#6D3E91" fill="none" stroke-linecap="butt"></polyline></g><g><path fill="none" stroke-linecap="butt" stroke-linejoin="round" stroke="#fff" stroke-width="2.5" stroke-dasharray="2,3" d="M387.1 472.8L391.9 473.9L396.6 474.9L401.4 475.9L406.2 476.9L411 477.8L415.8 478.7L420.5 479.6L425.3 480.5L430.1 481.4L434.9 482.3L439.7 483.1L444.4 483.9L449.2 484.7L454 485.5L458.8 486.2L463.6 487L468.3 487.7L473.1 488.4L477.9 489L482.7 489.7L487.4 490.3L492.2 491L497 491.6L501.8 492.1L506.6 492.7L511.3 493.3L516.1 493.8L520.9 494.3L525.7 494.8L530.5 495.3L535.2 495.8L540 496.2L544.8 496.6L549.6 497.1L554.4 497.5L559.1 497.9L563.9 498.3L568.7 498.7L573.5 499.1L578.2 499.4L583 499.8L587.8 500.1L592.6 500.5L597.4 500.8L602.1 501.2L606.9 501.5L611.7 501.8L616.5 502.1L621.3 502.4L626 502.7L630.8 503L635.6 503.3L640.4 503.6L645.2 503.9L649.9 504.1L654.7 504.4L659.5 504.7L664.3 504.9L669.1 505.2L673.8 505.4L678.6 505.6L683.4 505.9L688.2 506.1L692.9 506.3L697.7 506.6L702.5 506.8L707.3 507L712.1 507.2L716.8 507.4L721.6 507.6L726.4 507.8L731.2 508L736 508.1L740.7 508.3L745.5 508.5L750.3 508.7L755.1 508.9L759.9 509L764.6 509.2"></path><polyline points="387.10,472.80 391.90,473.90 396.60,474.90 401.40,475.90 406.20,476.90 411.00,477.80 415.80,478.70 420.50,479.60 425.30,480.50 430.10,481.40 434.90,482.30 439.70,483.10 444.40,483.90 449.20,484.70 454.00,485.50 458.80,486.20 463.60,487.00 468.30,487.70 473.10,488.40 477.90,489.00 482.70,489.70 487.40,490.30 492.20,491.00 497.00,491.60 501.80,492.10 506.60,492.70 511.30,493.30 516.10,493.80 520.90,494.30 525.70,494.80 530.50,495.30 535.20,495.80 540.00,496.20 544.80,496.60 549.60,497.10 554.40,497.50 559.10,497.90 563.90,498.30 568.70,498.70 573.50,499.10 578.20,499.40 583.00,499.80 587.80,500.10 592.60,500.50 597.40,500.80 602.10,501.20 606.90,501.50 611.70,501.80 616.50,502.10 621.30,502.40 626.00,502.70 630.80,503.00 635.60,503.30 640.40,503.60 645.20,503.90 649.90,504.10 654.70,504.40 659.50,504.70 664.30,504.90 669.10,505.20 673.80,505.40 678.60,505.60 683.40,505.90 688.20,506.10 692.90,506.30 697.70,506.60 702.50,506.80 707.30,507.00 712.10,507.20 716.80,507.40 721.60,507.60 726.40,507.80 731.20,508.00 736.00,508.10 740.70,508.30 745.50,508.50 750.30,508.70 755.10,508.90 759.90,509.00 764.60,509.20" stroke-linejoin="round" stroke-width="1.5" stroke-dasharray="2,3" stroke="#BE5915" fill="none" stroke-linecap="butt"></polyline></g><g><path fill="none" stroke-linecap="butt" stroke-linejoin="round" stroke="#fff" stroke-width="2.5" stroke-dasharray="2,3" d="M387.1 485.3L391.9 486.3L396.6 487.3L401.4 488.3L406.2 489.2L411 490.1L415.8 491L420.5 491.9L425.3 492.7L430.1 493.6L434.9 494.4L439.7 495.1L444.4 495.9L449.2 496.6L454 497.3L458.8 497.9L463.6 498.6L468.3 499.2L473.1 499.8L477.9 500.3L482.7 500.9L487.4 501.4L492.2 502L497 502.5L501.8 502.9L506.6 503.4L511.3 503.9L516.1 504.3L520.9 504.7L525.7 505.1L530.5 505.5L535.2 505.9L540 506.3L544.8 506.7L549.6 507L554.4 507.4L559.1 507.7L563.9 508L568.7 508.4L573.5 508.7L578.2 509L583 509.3L587.8 509.5L592.6 509.8L597.4 510.1L602.1 510.4L606.9 510.6L611.7 510.9L616.5 511.1L621.3 511.4L626 511.6L630.8 511.8L635.6 512.1L640.4 512.3L645.2 512.5L649.9 512.7L654.7 512.9L659.5 513.1L664.3 513.3L669.1 513.5L673.8 513.7L678.6 513.9L683.4 514.1L688.2 514.3L692.9 514.4L697.7 514.6L702.5 514.8L707.3 514.9L712.1 515.1L716.8 515.2L721.6 515.4L726.4 515.5L731.2 515.7L736 515.8L740.7 515.9L745.5 516.1L750.3 516.2L755.1 516.3L759.9 516.4L764.6 516.6"></path><polyline points="387.10,485.30 391.90,486.30 396.60,487.30 401.40,488.30 406.20,489.20 411.00,490.10 415.80,491.00 420.50,491.90 425.30,492.70 430.10,493.60 434.90,494.40 439.70,495.10 444.40,495.90 449.20,496.60 454.00,497.30 458.80,497.90 463.60,498.60 468.30,499.20 473.10,499.80 477.90,500.30 482.70,500.90 487.40,501.40 492.20,502.00 497.00,502.50 501.80,502.90 506.60,503.40 511.30,503.90 516.10,504.30 520.90,504.70 525.70,505.10 530.50,505.50 535.20,505.90 540.00,506.30 544.80,506.70 549.60,507.00 554.40,507.40 559.10,507.70 563.90,508.00 568.70,508.40 573.50,508.70 578.20,509.00 583.00,509.30 587.80,509.50 592.60,509.80 597.40,510.10 602.10,510.40 606.90,510.60 611.70,510.90 616.50,511.10 621.30,511.40 626.00,511.60 630.80,511.80 635.60,512.10 640.40,512.30 645.20,512.50 649.90,512.70 654.70,512.90 659.50,513.10 664.30,513.30 669.10,513.50 673.80,513.70 678.60,513.90 683.40,514.10 688.20,514.30 692.90,514.40 697.70,514.60 702.50,514.80 707.30,514.90 712.10,515.10 716.80,515.20 721.60,515.40 726.40,515.50 731.20,515.70 736.00,515.80 740.70,515.90 745.50,516.10 750.30,516.20 755.10,516.30 759.90,516.40 764.60,516.60" stroke-linejoin="round" stroke-width="1.5" stroke-dasharray="2,3" stroke="#2C8465" fill="none" stroke-linecap="butt"></polyline></g><g><path fill="none" stroke-linecap="butt" stroke-linejoin="round" stroke="#fff" stroke-width="2.5" stroke-dasharray="2,3" d="M387.1 433L391.9 435.3L396.6 437.4L401.4 439.4L406.2 441.4L411 443.2L415.8 445.1L420.5 446.9L425.3 448.7L430.1 450.4L434.9 452L439.7 453.7L444.4 455.3L449.2 456.8L454 458.3L458.8 459.8L463.6 461.2L468.3 462.6L473.1 463.9L477.9 465.2L482.7 466.4L487.4 467.6L492.2 468.8L497 469.9L501.8 471L506.6 472L511.3 473L516.1 474L520.9 474.9L525.7 475.9L530.5 476.7L535.2 477.6L540 478.4L544.8 479.2L549.6 480L554.4 480.7L559.1 481.5L563.9 482.2L568.7 482.9L573.5 483.6L578.2 484.2L583 484.9L587.8 485.5L592.6 486.1L597.4 486.7L602.1 487.3L606.9 487.9L611.7 488.4L616.5 488.9L621.3 489.5L626 490L630.8 490.5L635.6 490.9L640.4 491.4L645.2 491.8L649.9 492.3L654.7 492.7L659.5 493.2L664.3 493.6L669.1 494L673.8 494.4L678.6 494.8L683.4 495.1L688.2 495.5L692.9 495.9L697.7 496.2L702.5 496.6L707.3 496.9L712.1 497.2L716.8 497.5L721.6 497.9L726.4 498.2L731.2 498.5L736 498.8L740.7 499L745.5 499.3L750.3 499.6L755.1 499.9L759.9 500.2L764.6 500.4"></path><polyline points="387.10,433.00 391.90,435.30 396.60,437.40 401.40,439.40 406.20,441.40 411.00,443.20 415.80,445.10 420.50,446.90 425.30,448.70 430.10,450.40 434.90,452.00 439.70,453.70 444.40,455.30 449.20,456.80 454.00,458.30 458.80,459.80 463.60,461.20 468.30,462.60 473.10,463.90 477.90,465.20 482.70,466.40 487.40,467.60 492.20,468.80 497.00,469.90 501.80,471.00 506.60,472.00 511.30,473.00 516.10,474.00 520.90,474.90 525.70,475.90 530.50,476.70 535.20,477.60 540.00,478.40 544.80,479.20 549.60,480.00 554.40,480.70 559.10,481.50 563.90,482.20 568.70,482.90 573.50,483.60 578.20,484.20 583.00,484.90 587.80,485.50 592.60,486.10 597.40,486.70 602.10,487.30 606.90,487.90 611.70,488.40 616.50,488.90 621.30,489.50 626.00,490.00 630.80,490.50 635.60,490.90 640.40,491.40 645.20,491.80 649.90,492.30 654.70,492.70 659.50,493.20 664.30,493.60 669.10,494.00 673.80,494.40 678.60,494.80 683.40,495.10 688.20,495.50 692.90,495.90 697.70,496.20 702.50,496.60 707.30,496.90 712.10,497.20 716.80,497.50 721.60,497.90 726.40,498.20 731.20,498.50 736.00,498.80 740.70,499.00 745.50,499.30 750.30,499.60 755.10,499.90 759.90,500.20 764.60,500.40" stroke-linejoin="round" stroke-width="1.5" stroke-dasharray="2,3" stroke="#C15065" fill="none" stroke-linecap="butt"></polyline></g><g><path fill="none" stroke-linecap="butt" stroke-linejoin="round" stroke="#fff" stroke-width="2.5" stroke-dasharray="2,3" d="M387.1 510.3L391.9 510.8L396.6 511.2L401.4 511.6L406.2 512L411 512.3L415.8 512.7L420.5 513L425.3 513.4L430.1 513.7L434.9 514L439.7 514.3L444.4 514.6L449.2 514.8L454 515.1L458.8 515.3L463.6 515.6L468.3 515.8L473.1 516L477.9 516.2L482.7 516.4L487.4 516.6L492.2 516.8L497 517L501.8 517.1L506.6 517.3L511.3 517.5L516.1 517.6L520.9 517.8L525.7 517.9L530.5 518L535.2 518.2L540 518.3L544.8 518.4L549.6 518.5L554.4 518.6L559.1 518.7L563.9 518.8L568.7 518.9L573.5 519L578.2 519.1L583 519.2L587.8 519.2L592.6 519.3L597.4 519.4L602.1 519.4L606.9 519.5L611.7 519.5L616.5 519.6L621.3 519.7L626 519.7L630.8 519.8L635.6 519.8L640.4 519.9L645.2 519.9L649.9 520L654.7 520L659.5 520.1L664.3 520.1L669.1 520.2L673.8 520.2L678.6 520.3L683.4 520.3L688.2 520.4L692.9 520.4L697.7 520.5L702.5 520.5L707.3 520.5L712.1 520.6L716.8 520.6L721.6 520.7L726.4 520.7L731.2 520.7L736 520.8L740.7 520.8L745.5 520.9L750.3 520.9L755.1 520.9L759.9 521L764.6 521"></path><polyline points="387.10,510.30 391.90,510.80 396.60,511.20 401.40,511.60 406.20,512.00 411.00,512.30 415.80,512.70 420.50,513.00 425.30,513.40 430.10,513.70 434.90,514.00 439.70,514.30 444.40,514.60 449.20,514.80 454.00,515.10 458.80,515.30 463.60,515.60 468.30,515.80 473.10,516.00 477.90,516.20 482.70,516.40 487.40,516.60 492.20,516.80 497.00,517.00 501.80,517.10 506.60,517.30 511.30,517.50 516.10,517.60 520.90,517.80 525.70,517.90 530.50,518.00 535.20,518.20 540.00,518.30 544.80,518.40 549.60,518.50 554.40,518.60 559.10,518.70 563.90,518.80 568.70,518.90 573.50,519.00 578.20,519.10 583.00,519.20 587.80,519.20 592.60,519.30 597.40,519.40 602.10,519.40 606.90,519.50 611.70,519.50 616.50,519.60 621.30,519.70 626.00,519.70 630.80,519.80 635.60,519.80 640.40,519.90 645.20,519.90 649.90,520.00 654.70,520.00 659.50,520.10 664.30,520.10 669.10,520.20 673.80,520.20 678.60,520.30 683.40,520.30 688.20,520.40 692.90,520.40 697.70,520.50 702.50,520.50 707.30,520.50 712.10,520.60 716.80,520.60 721.60,520.70 726.40,520.70 731.20,520.70 736.00,520.80 740.70,520.80 745.50,520.90 750.30,520.90 755.10,520.90 759.90,521.00 764.60,521.00" stroke-linejoin="round" stroke-width="1.5" stroke-dasharray="2,3" stroke="#CF0A66" fill="none" stroke-linecap="butt"></polyline></g><g><path fill="none" stroke-linecap="butt" stroke-linejoin="round" stroke="#fff" stroke-width="2.5" d="M52.6 232.7L57.3 235.4L62.1 240L66.9 242.9L71.7 244.2L76.5 243.8L81.2 242L86 239.1L90.8 235.6L95.6 232.5L100.4 230.9L105.1 232L109.9 236.6L114.7 245.5L119.5 258.4L124.2 274.7L129 293.1L133.8 312L138.6 330L143.4 346.2L148.1 360.3L152.9 372.1L157.7 382.5L162.5 391.8L167.3 400.3L172 408L176.8 415L181.6 421.4L186.4 427.2L191.2 432.4L195.9 437.1L200.7 441.1L205.5 444.3L210.3 446.8L215 448.6L219.8 449.8L224.6 450.5L229.4 451L234.2 451.3L238.9 451.6L243.7 452.1L248.5 452.9L253.3 453.9L258.1 455.1L262.8 456.7L267.6 458.6L272.4 460.8L277.2 463.3L282 466L286.7 468.9L291.5 471.9L296.3 475L301.1 478.2L305.8 481.6L310.6 484.9L315.4 488.1L320.2 491.2L325 494.1L329.7 496.8L334.5 499.2L339.3 501.3L344.1 503.1L348.9 504.5L353.6 505.8L358.4 506.8L363.2 507.6L368 508.3L372.8 508.9L377.5 509.4L382.3 509.9"></path><polyline points="52.60,232.70 57.30,235.40 62.10,240.00 66.90,242.90 71.70,244.20 76.50,243.80 81.20,242.00 86.00,239.10 90.80,235.60 95.60,232.50 100.40,230.90 105.10,232.00 109.90,236.60 114.70,245.50 119.50,258.40 124.20,274.70 129.00,293.10 133.80,312.00 138.60,330.00 143.40,346.20 148.10,360.30 152.90,372.10 157.70,382.50 162.50,391.80 167.30,400.30 172.00,408.00 176.80,415.00 181.60,421.40 186.40,427.20 191.20,432.40 195.90,437.10 200.70,441.10 205.50,444.30 210.30,446.80 215.00,448.60 219.80,449.80 224.60,450.50 229.40,451.00 234.20,451.30 238.90,451.60 243.70,452.10 248.50,452.90 253.30,453.90 258.10,455.10 262.80,456.70 267.60,458.60 272.40,460.80 277.20,463.30 282.00,466.00 286.70,468.90 291.50,471.90 296.30,475.00 301.10,478.20 305.80,481.60 310.60,484.90 315.40,488.10 320.20,491.20 325.00,494.10 329.70,496.80 334.50,499.20 339.30,501.30 344.10,503.10 348.90,504.50 353.60,505.80 358.40,506.80 363.20,507.60 368.00,508.30 372.80,508.90 377.50,509.40 382.30,509.90" stroke-linejoin="round" stroke-width="1.5" stroke="#CF0A66" fill="none" stroke-linecap="butt"></polyline></g><g><path fill="none" stroke-linecap="butt" stroke-linejoin="round" stroke="#fff" stroke-width="2.5" d="M52.6 135.9L57.3 139.2L62.1 145.7L66.9 152.1L71.7 158.3L76.5 164.3L81.2 170.2L86 176L90.8 181.5L95.6 186.8L100.4 191.9L105.1 196.7L109.9 201.3L114.7 205.5L119.5 209.5L124.2 213.4L129 217L133.8 220.7L138.6 224.4L143.4 228.3L148.1 232.5L152.9 237.1L157.7 242.2L162.5 247.8L167.3 253.8L172 260.2L176.8 267L181.6 274.1L186.4 281.3L191.2 288.4L195.9 295.4L200.7 302.2L205.5 308.8L210.3 315.1L215 321.1L219.8 326.8L224.6 332.2L229.4 337.4L234.2 342.5L238.9 347.5L243.7 352.4L248.5 357.3L253.3 362L258.1 366.8L262.8 371.5L267.6 376.2L272.4 381L277.2 385.8L282 390.6L286.7 395.5L291.5 400.4L296.3 405.3L301.1 410.1L305.8 414.9L310.6 419.6L315.4 424.2L320.2 428.8L325 433.3L329.7 437.8L334.5 442.2L339.3 446.5L344.1 450.6L348.9 454.5L353.6 458.1L358.4 461.3L363.2 464.3L368 466.9L372.8 469.3L377.5 471.5L382.3 473.5"></path><polyline points="52.60,135.90 57.30,139.20 62.10,145.70 66.90,152.10 71.70,158.30 76.50,164.30 81.20,170.20 86.00,176.00 90.80,181.50 95.60,186.80 100.40,191.90 105.10,196.70 109.90,201.30 114.70,205.50 119.50,209.50 124.20,213.40 129.00,217.00 133.80,220.70 138.60,224.40 143.40,228.30 148.10,232.50 152.90,237.10 157.70,242.20 162.50,247.80 167.30,253.80 172.00,260.20 176.80,267.00 181.60,274.10 186.40,281.30 191.20,288.40 195.90,295.40 200.70,302.20 205.50,308.80 210.30,315.10 215.00,321.10 219.80,326.80 224.60,332.20 229.40,337.40 234.20,342.50 238.90,347.50 243.70,352.40 248.50,357.30 253.30,362.00 258.10,366.80 262.80,371.50 267.60,376.20 272.40,381.00 277.20,385.80 282.00,390.60 286.70,395.50 291.50,400.40 296.30,405.30 301.10,410.10 305.80,414.90 310.60,419.60 315.40,424.20 320.20,428.80 325.00,433.30 329.70,437.80 334.50,442.20 339.30,446.50 344.10,450.60 348.90,454.50 353.60,458.10 358.40,461.30 363.20,464.30 368.00,466.90 372.80,469.30 377.50,471.50 382.30,473.50" stroke-linejoin="round" stroke-width="1.5" stroke="#6D3E91" fill="none" stroke-linecap="butt"></polyline></g><g><path fill="none" stroke-linecap="butt" stroke-linejoin="round" stroke="#fff" stroke-width="2.5" d="M52.6 215.1L57.3 219.2L62.1 227L66.9 234L71.7 240.2L76.5 245.6L81.2 250.2L86 254.2L90.8 257.7L95.6 261L100.4 264.3L105.1 267.9L109.9 272.2L114.7 277.3L119.5 283.2L124.2 289.8L129 296.7L133.8 303.7L138.6 310.3L143.4 316.4L148.1 321.9L152.9 326.8L157.7 331.3L162.5 335.6L167.3 339.6L172 343.5L176.8 347.5L181.6 351.4L186.4 355.4L191.2 359.5L195.9 363.6L200.7 367.9L205.5 372.1L210.3 376.2L215 380.1L219.8 383.8L224.6 387L229.4 389.8L234.2 392.1L238.9 394.1L243.7 395.7L248.5 397.2L253.3 398.8L258.1 400.4L262.8 402.3L267.6 404.6L272.4 407.1L277.2 409.9L282 412.8L286.7 415.9L291.5 419.2L296.3 422.6L301.1 426.1L305.8 429.7L310.6 433.4L315.4 437L320.2 440.7L325 444.2L329.7 447.6L334.5 450.9L339.3 454L344.1 456.8L348.9 459.4L353.6 461.8L358.4 463.9L363.2 465.8L368 467.5L372.8 469.1L377.5 470.4L382.3 471.7"></path><polyline points="52.60,215.10 57.30,219.20 62.10,227.00 66.90,234.00 71.70,240.20 76.50,245.60 81.20,250.20 86.00,254.20 90.80,257.70 95.60,261.00 100.40,264.30 105.10,267.90 109.90,272.20 114.70,277.30 119.50,283.20 124.20,289.80 129.00,296.70 133.80,303.70 138.60,310.30 143.40,316.40 148.10,321.90 152.90,326.80 157.70,331.30 162.50,335.60 167.30,339.60 172.00,343.50 176.80,347.50 181.60,351.40 186.40,355.40 191.20,359.50 195.90,363.60 200.70,367.90 205.50,372.10 210.30,376.20 215.00,380.10 219.80,383.80 224.60,387.00 229.40,389.80 234.20,392.10 238.90,394.10 243.70,395.70 248.50,397.20 253.30,398.80 258.10,400.40 262.80,402.30 267.60,404.60 272.40,407.10 277.20,409.90 282.00,412.80 286.70,415.90 291.50,419.20 296.30,422.60 301.10,426.10 305.80,429.70 310.60,433.40 315.40,437.00 320.20,440.70 325.00,444.20 329.70,447.60 334.50,450.90 339.30,454.00 344.10,456.80 348.90,459.40 353.60,461.80 358.40,463.90 363.20,465.80 368.00,467.50 372.80,469.10 377.50,470.40 382.30,471.70" stroke-linejoin="round" stroke-width="1.5" stroke="#BE5915" fill="none" stroke-linecap="butt"></polyline></g><g><path fill="none" stroke-linecap="butt" stroke-linejoin="round" stroke="#fff" stroke-width="2.5" d="M52.6 186.9L57.3 190.6L62.1 197.5L66.9 203.7L71.7 209L76.5 213.6L81.2 217.6L86 220.9L90.8 223.9L95.6 226.9L100.4 230.4L105.1 234.8L109.9 240.4L114.7 247.6L119.5 256.1L124.2 265.7L129 275.9L133.8 286L138.6 295.4L143.4 303.9L148.1 311.3L152.9 317.6L157.7 323.2L162.5 328.2L167.3 333L172 337.6L176.8 342.1L181.6 346.7L186.4 351.4L191.2 356.2L195.9 361.2L200.7 366.4L205.5 371.5L210.3 376.6L215 381.5L219.8 386.1L224.6 390.3L229.4 394L234.2 397.3L238.9 400.1L243.7 402.7L248.5 405L253.3 407.4L258.1 409.8L262.8 412.5L267.6 415.4L272.4 418.5L277.2 421.9L282 425.4L286.7 428.9L291.5 432.5L296.3 436.2L301.1 439.9L305.8 443.6L310.6 447.3L315.4 450.9L320.2 454.4L325 457.8L329.7 461.2L334.5 464.4L339.3 467.4L344.1 470.2L348.9 472.8L353.6 475.1L358.4 477.1L363.2 478.9L368 480.5L372.8 481.8L377.5 483.1L382.3 484.2"></path><polyline points="52.60,186.90 57.30,190.60 62.10,197.50 66.90,203.70 71.70,209.00 76.50,213.60 81.20,217.60 86.00,220.90 90.80,223.90 95.60,226.90 100.40,230.40 105.10,234.80 109.90,240.40 114.70,247.60 119.50,256.10 124.20,265.70 129.00,275.90 133.80,286.00 138.60,295.40 143.40,303.90 148.10,311.30 152.90,317.60 157.70,323.20 162.50,328.20 167.30,333.00 172.00,337.60 176.80,342.10 181.60,346.70 186.40,351.40 191.20,356.20 195.90,361.20 200.70,366.40 205.50,371.50 210.30,376.60 215.00,381.50 219.80,386.10 224.60,390.30 229.40,394.00 234.20,397.30 238.90,400.10 243.70,402.70 248.50,405.00 253.30,407.40 258.10,409.80 262.80,412.50 267.60,415.40 272.40,418.50 277.20,421.90 282.00,425.40 286.70,428.90 291.50,432.50 296.30,436.20 301.10,439.90 305.80,443.60 310.60,447.30 315.40,450.90 320.20,454.40 325.00,457.80 329.70,461.20 334.50,464.40 339.30,467.40 344.10,470.20 348.90,472.80 353.60,475.10 358.40,477.10 363.20,478.90 368.00,480.50 372.80,481.80 377.50,483.10 382.30,484.20" stroke-linejoin="round" stroke-width="1.5" stroke="#2C8465" fill="none" stroke-linecap="butt"></polyline></g><g><path fill="none" stroke-linecap="butt" stroke-linejoin="round" stroke="#fff" stroke-width="2.5" d="M52.6 77.5L57.3 81.7L62.1 90L66.9 98.2L71.7 106.2L76.5 114.1L81.2 121.7L86 129.2L90.8 136.5L95.6 143.6L100.4 150.4L105.1 157L109.9 163.4L114.7 169.4L119.5 175.3L124.2 180.9L129 186.3L133.8 191.5L138.6 196.6L143.4 201.7L148.1 206.7L152.9 211.9L157.7 217.3L162.5 222.7L167.3 228.3L172 234L176.8 239.7L181.6 245.3L186.4 250.9L191.2 256.2L195.9 261.2L200.7 266.1L205.5 270.6L210.3 275L215 279L219.8 282.5L224.6 285.5L229.4 287.8L234.2 289.5L238.9 290.8L243.7 292L248.5 293.2L253.3 294.7L258.1 296.8L262.8 299.6L267.6 303.1L272.4 307.4L277.2 312.2L282 317.5L286.7 323.1L291.5 329L296.3 335.2L301.1 341.8L305.8 348.6L310.6 355.5L315.4 362.5L320.2 369.4L325 376.2L329.7 382.8L334.5 389.1L339.3 395L344.1 400.5L348.9 405.6L353.6 410.2L358.4 414.5L363.2 418.4L368 421.9L372.8 425.1L377.5 428L382.3 430.6"></path><polyline points="52.60,77.50 57.30,81.70 62.10,90.00 66.90,98.20 71.70,106.20 76.50,114.10 81.20,121.70 86.00,129.20 90.80,136.50 95.60,143.60 100.40,150.40 105.10,157.00 109.90,163.40 114.70,169.40 119.50,175.30 124.20,180.90 129.00,186.30 133.80,191.50 138.60,196.60 143.40,201.70 148.10,206.70 152.90,211.90 157.70,217.30 162.50,222.70 167.30,228.30 172.00,234.00 176.80,239.70 181.60,245.30 186.40,250.90 191.20,256.20 195.90,261.20 200.70,266.10 205.50,270.60 210.30,275.00 215.00,279.00 219.80,282.50 224.60,285.50 229.40,287.80 234.20,289.50 238.90,290.80 243.70,292.00 248.50,293.20 253.30,294.70 258.10,296.80 262.80,299.60 267.60,303.10 272.40,307.40 277.20,312.20 282.00,317.50 286.70,323.10 291.50,329.00 296.30,335.20 301.10,341.80 305.80,348.60 310.60,355.50 315.40,362.50 320.20,369.40 325.00,376.20 329.70,382.80 334.50,389.10 339.30,395.00 344.10,400.50 348.90,405.60 353.60,410.20 358.40,414.50 363.20,418.40 368.00,421.90 372.80,425.10 377.50,428.00 382.30,430.60" stroke-linejoin="round" stroke-width="1.5" stroke="#C15065" fill="none" stroke-linecap="butt"></polyline></g></g></g></g><g class="SourcesFooter" style="fill:#777"><g style="fill:#777"><text font-size="12.60" x="15.0" y="582.7"><tspan x="15" y="582.732">Source: United Nations  Population Division (2019 Revision)</tspan></text></g><text font-size="12.60" x="588.8" y="582.7"><tspan x="588.796" y="582.732"><a target='_blank' style='fill: #777;' href='https://ourworldindata.org/child-mortality'>OurWorldInData.org/child-mortality</a>  <a style="fill: #777;" class="cclogo" href="http://creativecommons.org/licenses/by/4.0/deed.en_US" target="_blank">CC BY</a></tspan></text></g></svg>