<svg xmlns="http://www.w3.org/2000/svg" version="1.1" style="font-family:Lato, &#x27;Helvetica Neue&#x27;, Helvetica, Arial, &#x27;Liberation Sans&#x27;, sans-serif;font-size:18px;background-color:white;text-rendering:geometricPrecision;-webkit-font-smoothing:antialiased" width="850" height="600" viewBox="0 0 850 600"><defs><style>@import url(https://ourworldindata.org/fonts.css)</style></defs><defs><pattern id="noDataPattern" patternUnits="userSpaceOnUse" width="4" height="4" patternTransform="rotate(-45 2 2)"><path d="M -1,2 l 6,0" stroke="#ccc" stroke-width="0.7"></path></pattern></defs><rect class="background-fill" fill="white" width="850" height="600"></rect><g id="header" class="HeaderView"><g id="logo" transform="translate(769, 16) scale(1)"><svg className="owidLogo" xmlns="http://www.w3.org/2000/svg" width="65" height="36" viewBox="0 0 65 36"  fill="none"><path fill="#002147" d="M0 0h64.8v36H0z"/><path fill="#CE261E" d="M0 33.3h64.8V36H0z"/><path fill="#fff" d="M13.796 10.575c0 .636-.106 1.226-.318 1.77a4.193 4.193 0 0 1-.894 1.404 4.084 4.084 0 0 1-1.386.93c-.54.22-1.138.33-1.794.33-.656 0-1.256-.11-1.8-.33a4.149 4.149 0 0 1-1.392-.93 4.193 4.193 0 0 1-.894-1.404A4.833 4.833 0 0 1 5 10.575c0-.636.106-1.224.318-1.764a4.18 4.18 0 0 1 .894-1.41 4.076 4.076 0 0 1 1.392-.924 4.684 4.684 0 0 1 1.8-.336c.656 0 1.254.112 1.794.336.54.224 1.002.534 1.386.93.384.392.682.86.894 1.404.212.54.318 1.128.318 1.764Zm-1.656 0c0-.476-.064-.902-.192-1.278a2.671 2.671 0 0 0-.54-.966 2.332 2.332 0 0 0-.864-.606 2.94 2.94 0 0 0-1.14-.21c-.424 0-.806.07-1.146.21-.34.14-.63.342-.87.606a2.742 2.742 0 0 0-.546.966 3.955 3.955 0 0 0-.192 1.278c0 .476.064.904.192 1.284.128.376.31.696.546.96.24.26.53.46.87.6.34.14.722.21 1.146.21.424 0 .804-.07 1.14-.21.34-.14.628-.34.864-.6.236-.264.416-.584.54-.96a4.01 4.01 0 0 0 .192-1.284ZM16.104 8.757v3.912c0 .376.086.668.258.876.176.204.438.306.786.306.256 0 .496-.056.72-.168a2.58 2.58 0 0 0 .636-.474V8.757h1.482v6.156h-.906c-.192 0-.318-.09-.378-.27l-.102-.492a4.65 4.65 0 0 1-.396.354 2.577 2.577 0 0 1-.438.27 2.35 2.35 0 0 1-.498.168 2.345 2.345 0 0 1-.57.066c-.336 0-.634-.056-.894-.168a1.821 1.821 0 0 1-.648-.486 2.157 2.157 0 0 1-.402-.738 3.233 3.233 0 0 1-.132-.948V8.757h1.482ZM21.328 14.913V8.757h.87c.152 0 .258.028.318.084.06.056.1.152.12.288l.09.744c.22-.38.478-.68.774-.9.296-.22.628-.33.996-.33.304 0 .556.07.756.21l-.192 1.11c-.012.072-.038.124-.078.156a.278.278 0 0 1-.162.042 1.01 1.01 0 0 1-.246-.042 1.646 1.646 0 0 0-.414-.042c-.308 0-.572.086-.792.258-.22.168-.406.416-.558.744v3.834h-1.482ZM27.347 6.237h1.356a.57.57 0 0 1 .348.102c.096.064.16.152.192.264l1.476 5.19c.036.128.068.268.096.42.032.148.062.306.09.474a5.968 5.968 0 0 1 .228-.894l1.704-5.19a.575.575 0 0 1 .186-.252.543.543 0 0 1 .348-.114h.474a.57.57 0 0 1 .348.102.497.497 0 0 1 .192.264l1.692 5.19c.088.256.164.54.228.852.028-.156.056-.306.084-.45.032-.144.064-.278.096-.402l1.476-5.19c.028-.1.09-.186.186-.258a.563.563 0 0 1 .348-.108h1.266l-2.694 8.676h-1.458l-1.896-5.928-.078-.246a9.504 9.504 0 0 1-.072-.282c-.024.1-.05.194-.078.282-.024.088-.048.17-.072.246l-1.914 5.928H30.04l-2.694-8.676ZM42.771 8.661c.46 0 .876.074 1.248.222.376.148.696.358.96.63s.468.604.612.996c.144.392.216.83.216 1.314 0 .488-.072.928-.216 1.32a2.85 2.85 0 0 1-.612 1.002 2.653 2.653 0 0 1-.96.636 3.35 3.35 0 0 1-1.248.222c-.46 0-.878-.074-1.254-.222a2.712 2.712 0 0 1-.966-.636 2.922 2.922 0 0 1-.618-1.002 3.807 3.807 0 0 1-.216-1.32c0-.484.072-.922.216-1.314.148-.392.354-.724.618-.996.268-.272.59-.482.966-.63a3.397 3.397 0 0 1 1.254-.222Zm0 5.202c.512 0 .89-.172 1.134-.516.248-.344.372-.848.372-1.512s-.124-1.17-.372-1.518c-.244-.348-.622-.522-1.134-.522-.52 0-.904.176-1.152.528-.248.348-.372.852-.372 1.512s.124 1.164.372 1.512c.248.344.632.516 1.152.516ZM46.723 14.913V8.757h.87c.152 0 .258.028.318.084.06.056.1.152.12.288l.09.744c.22-.38.478-.68.774-.9.296-.22.628-.33.996-.33.304 0 .556.07.756.21l-.192 1.11c-.012.072-.038.124-.078.156a.278.278 0 0 1-.162.042 1.01 1.01 0 0 1-.246-.042 1.646 1.646 0 0 0-.414-.042c-.308 0-.572.086-.792.258-.22.168-.406.416-.558.744v3.834h-1.482ZM52.96 5.997v8.916h-1.482V5.997h1.482ZM58.732 14.913c-.192 0-.318-.09-.378-.27l-.12-.594a3.68 3.68 0 0 1-.402.39c-.14.116-.292.216-.456.3-.16.084-.334.148-.522.192a2.372 2.372 0 0 1-.6.072c-.336 0-.644-.07-.924-.21a2.098 2.098 0 0 1-.726-.606 3.033 3.033 0 0 1-.468-.99 5.072 5.072 0 0 1-.162-1.344c0-.456.062-.88.186-1.272s.302-.732.534-1.02c.232-.288.51-.512.834-.672a2.384 2.384 0 0 1 1.092-.246 2.103 2.103 0 0 1 1.536.606V5.997h1.482v8.916h-.906Zm-1.974-1.086c.308 0 .57-.064.786-.192.216-.128.42-.31.612-.546v-2.76a1.452 1.452 0 0 0-.552-.432 1.597 1.597 0 0 0-.636-.126c-.224 0-.428.042-.612.126a1.21 1.21 0 0 0-.462.384c-.124.168-.22.384-.288.648-.068.26-.102.568-.102.924 0 .36.028.666.084.918.06.248.144.452.252.612.108.156.24.27.396.342.156.068.33.102.522.102ZM16.331 20.757v6.156H14.85v-6.156h1.481Zm.223-1.794a.844.844 0 0 1-.078.36.963.963 0 0 1-.21.294.995.995 0 0 1-.3.204.963.963 0 0 1-.372.072.948.948 0 0 1-.367-.072 1.018 1.018 0 0 1-.498-.498.963.963 0 0 1 0-.732.995.995 0 0 1 .205-.3.929.929 0 0 1 .293-.198.899.899 0 0 1 .738 0 .912.912 0 0 1 .3.198.943.943 0 0 1 .288.672ZM17.771 26.913v-6.156h.906c.192 0 .318.09.378.27l.102.486a2.934 2.934 0 0 1 .828-.618c.156-.076.322-.134.498-.174.176-.04.368-.06.576-.06.336 0 .634.058.894.174.26.112.476.272.648.48.176.204.308.45.396.738.092.284.138.598.138.942v3.918h-1.482v-3.918c0-.376-.088-.666-.264-.87-.172-.208-.432-.312-.78-.312-.256 0-.496.058-.72.174a2.58 2.58 0 0 0-.636.474v4.452h-1.482ZM34.22 22.575c0 .636-.106 1.22-.318 1.752-.212.532-.51.99-.894 1.374a4 4 0 0 1-1.386.894 4.87 4.87 0 0 1-1.794.318h-3.312v-8.676h3.312a4.79 4.79 0 0 1 1.794.324 4 4 0 0 1 1.386.894c.384.38.682.836.894 1.368.212.532.318 1.116.318 1.752Zm-1.65 0c0-.476-.064-.902-.192-1.278a2.68 2.68 0 0 0-.546-.96 2.332 2.332 0 0 0-.864-.606 2.94 2.94 0 0 0-1.14-.21h-1.686v6.108h1.686c.424 0 .804-.07 1.14-.21.34-.14.628-.34.864-.6a2.75 2.75 0 0 0 .546-.96 4.01 4.01 0 0 0 .192-1.284ZM39.98 26.913h-.665c-.14 0-.25-.02-.33-.06-.08-.044-.14-.13-.18-.258l-.132-.438c-.156.14-.31.264-.462.372a2.804 2.804 0 0 1-.462.264c-.16.072-.33.126-.51.162-.18.036-.38.054-.6.054-.26 0-.5-.034-.72-.102a1.618 1.618 0 0 1-.57-.318 1.448 1.448 0 0 1-.366-.522 1.852 1.852 0 0 1-.132-.726c0-.232.06-.46.18-.684.124-.228.328-.432.612-.612.284-.184.662-.336 1.134-.456.472-.12 1.058-.188 1.758-.204v-.36c0-.412-.088-.716-.264-.912-.172-.2-.424-.3-.756-.3a1.837 1.837 0 0 0-1.02.276c-.116.068-.224.13-.324.186a.664.664 0 0 1-.33.084.429.429 0 0 1-.258-.078.614.614 0 0 1-.174-.192l-.27-.474c.708-.648 1.562-.972 2.562-.972.36 0 .68.06.96.18.284.116.524.28.72.492.196.208.344.458.444.75.104.292.156.612.156.96v3.888Zm-2.88-.924c.153 0 .293-.014.42-.042.129-.028.249-.07.36-.126.117-.056.227-.124.33-.204.109-.084.217-.182.325-.294v-1.038c-.432.02-.794.058-1.086.114-.288.052-.52.12-.696.204a.923.923 0 0 0-.378.294.664.664 0 0 0-.108.366c0 .26.076.446.228.558.156.112.358.168.606.168ZM43.22 27.01c-.532 0-.942-.15-1.23-.45-.288-.305-.432-.723-.432-1.255v-3.438h-.624a.31.31 0 0 1-.21-.078c-.056-.052-.084-.13-.084-.234v-.588l.99-.162.312-1.68a.302.302 0 0 1 .108-.186.365.365 0 0 1 .222-.066h.768v1.938h1.62v1.056h-1.62v3.336c0 .192.048.342.144.45a.488.488 0 0 0 .384.162c.092 0 .168-.01.228-.03.064-.024.118-.048.162-.072.048-.024.09-.046.126-.066a.194.194 0 0 1 .108-.036.16.16 0 0 1 .108.036c.028.02.058.052.09.096l.444.72c-.216.18-.464.316-.744.408a2.77 2.77 0 0 1-.87.138ZM50.423 26.913h-.666c-.14 0-.25-.02-.33-.06-.08-.044-.14-.13-.18-.258l-.132-.438c-.156.14-.31.264-.462.372a2.804 2.804 0 0 1-.462.264c-.16.072-.33.126-.51.162-.18.036-.38.054-.6.054-.26 0-.5-.034-.72-.102a1.618 1.618 0 0 1-.57-.318 1.448 1.448 0 0 1-.366-.522 1.852 1.852 0 0 1-.132-.726c0-.232.06-.46.18-.684.124-.228.328-.432.612-.612.284-.184.662-.336 1.134-.456.472-.12 1.058-.188 1.758-.204v-.36c0-.412-.088-.716-.264-.912-.172-.2-.424-.3-.756-.3a1.837 1.837 0 0 0-1.02.276c-.116.068-.224.13-.324.186a.664.664 0 0 1-.33.084.429.429 0 0 1-.258-.078.614.614 0 0 1-.174-.192l-.27-.474c.708-.648 1.562-.972 2.562-.972.36 0 .68.06.96.18.284.116.524.28.72.492.196.208.344.458.444.75.104.292.156.612.156.96v3.888Zm-2.88-.924c.152 0 .292-.014.42-.042.128-.028.248-.07.36-.126.116-.056.226-.124.33-.204.108-.084.216-.182.324-.294v-1.038c-.432.02-.794.058-1.086.114-.288.052-.52.12-.696.204a.923.923 0 0 0-.378.294.664.664 0 0 0-.108.366c0 .26.076.446.228.558.156.112.358.168.606.168Z"/></svg></g><a id="title" href="https://ourworldindata.org/grapher/co2-emissions-and-gdp-per-capita" style="font-family:&#x27;Playfair Display&#x27;, Georgia, &#x27;Times New Roman&#x27;, &#x27;Liberation Serif&#x27;, serif" target="_blank" rel="noopener"><text font-size="24.75" font-weight="600" x="16.0" y="40.0" fill="#5b5b5b"><tspan x="16" y="40.0075">Change in per capita CO₂ emissions and GDP</tspan></text></a><g id="subtitle" class="markdown-text-wrap"><text x="16.0" y="63.9" style="font-size:14.625px;line-height:1.2" fill="#5b5b5b"><tspan x="16" y="63.9"><tspan class="dod-span" data-id="consumptionbasedemissions">Consumption-based emissions</tspan> include those from <tspan class="dod-span" data-id="fossilemissions">fossil fuels and industry</tspan>. Land-use change emissions are not</tspan><tspan x="16" y="81.4">included.</tspan></text></g></g><g id="chart-area" style="pointer-events:none"><g id="categorical-color-legend" class="categoricalColorLegend"><g id="mark__GDP-per-capita" style="cursor:default"><rect x="16" y="100.8" height="13.5" width="129.284" fill="#fff" opacity="0"></rect><rect x="16" y="100.8" width="13.5" height="13.5" fill="#00295b" stroke-width="0.4"></rect><text x="34.5" y="107.55" dy=".32em" font-size="14.4">GDP per capita</text></g><g id="mark__CO__2082-emissions-per-capita" style="cursor:default"><rect x="145.284" y="100.8" height="13.5" width="194.948" fill="#fff" opacity="0"></rect><rect x="145.284" y="100.8" width="13.5" height="13.5" fill="#C15065" stroke-width="0.4"></rect><text x="163.784" y="107.55" dy=".32em" font-size="14.4">CO₂ emissions per capita</text></g><g id="mark__Consumption-based-CO__2082-emissions-per-capita" style="cursor:default"><rect x="340.23199999999997" y="100.8" height="13.5" width="328.29200000000003" fill="#fff" opacity="0"></rect><rect x="340.23199999999997" y="100.8" width="13.5" height="13.5" fill="#2C8465" stroke-width="0.4"></rect><text x="358.73199999999997" y="107.55" dy=".32em" font-size="14.4">Consumption-based CO₂ emissions per capita</text></g></g><text x="49.4090625" y="141.01875" fill="#1d3d63" font-size="14.625" style="font-weight:700">United Kingdom<title>United Kingdom</title></text><g id="line-chart" class="LineChart"><defs><clipPath id="boundsClip-1"><rect x="39.4090625" y="138.33125" width="304.4090625" height="185"></rect></clipPath></defs><rect x="16" y="148.33125" width="284.4090625" height="165" fill="none"></rect><g id="dual-axis" class="DualAxisView"><g id="horizontal-axis" class="HorizontalAxis"><g id="tick__1990"><line x1="49.4" y1="294.8625" x2="49.4" y2="300.3625" stroke="#999" stroke-width="1"></line><text x="49.4090625" y="311.33125" fill="#5b5b5b" text-anchor="start" font-size="10.96875">1990</text></g><g id="tick__2022"><line x1="299.4" y1="294.8625" x2="299.4" y2="300.3625" stroke="#999" stroke-width="1"></line><text x="299.4090625" y="311.33125" fill="#5b5b5b" text-anchor="end" font-size="10.96875">2022</text></g><g id="tick__2000"><line x1="127.5" y1="294.8625" x2="127.5" y2="300.3625" stroke="#999" stroke-width="1"></line><text x="127.5" y="311.33125" fill="#5b5b5b" text-anchor="middle" font-size="10.96875">2000</text></g><g id="tick__2005"><line x1="166.6" y1="294.8625" x2="166.6" y2="300.3625" stroke="#999" stroke-width="1"></line><text x="166.6" y="311.33125" fill="#5b5b5b" text-anchor="middle" font-size="10.96875">2005</text></g><g id="tick__2010"><line x1="205.7" y1="294.8625" x2="205.7" y2="300.3625" stroke="#999" stroke-width="1"></line><text x="205.7" y="311.33125" fill="#5b5b5b" text-anchor="middle" font-size="10.96875">2010</text></g><g id="tick__2015"><line x1="244.7" y1="294.8625" x2="244.7" y2="300.3625" stroke="#999" stroke-width="1"></line><text x="244.7" y="311.33125" fill="#5b5b5b" text-anchor="middle" font-size="10.96875">2015</text></g></g><g id="vertical-axis" class="VerticalAxis"><g id="tick-labels"><text id="tick-label__-40__0025" x="44.41" y="276.4" dy=".32em" text-anchor="end" fill="#5b5b5b" font-size="10.96875">-40%</text><text id="tick-label__-20__0025" x="44.41" y="251.3" dy=".32em" text-anchor="end" fill="#5b5b5b" font-size="10.96875">-20%</text><text id="tick-label____002b0__0025" x="44.41" y="226.3" dy=".32em" text-anchor="end" fill="#5b5b5b" font-size="10.96875">+0%</text><text id="tick-label____002b20__0025" x="44.41" y="201.2" dy=".32em" text-anchor="end" fill="#5b5b5b" font-size="10.96875">+20%</text><text id="tick-label____002b40__0025" x="44.41" y="176.1" dy=".32em" text-anchor="end" fill="#5b5b5b" font-size="10.96875">+40%</text></g></g><g id="horizontal-grid-lines" class="AxisGridLines horizontalLines"><line id="grid-line__-40" x1="49.41" y1="276.4" x2="299.41" y2="276.4" stroke="#ddd" stroke-width="1" stroke-dasharray="2,1"></line><line id="grid-line__-20" x1="49.41" y1="251.3" x2="299.41" y2="251.3" stroke="#ddd" stroke-width="1" stroke-dasharray="2,1"></line><line id="grid-line__0" x1="49.41" y1="226.3" x2="299.41" y2="226.3" stroke="#999" stroke-width="1"></line><line id="grid-line__20" x1="49.41" y1="201.2" x2="299.41" y2="201.2" stroke="#ddd" stroke-width="1" stroke-dasharray="2,1"></line><line id="grid-line__40" x1="49.41" y1="176.1" x2="299.41" y2="176.1" stroke="#ddd" stroke-width="1" stroke-dasharray="2,1"></line></g></g><g clip-path="url(#boundsClip-1)"><g id="lines" class="Lines"><rect x="49" y="154" width="250" height="141" fill="rgba(255,255,255,0)" opacity="0"></rect><g id="line__Consumption-based-CO__2082-emissions-per-capita"><path stroke-linecap="round" stroke-linejoin="round" stroke="#ddd" d="M49.4 226.3L57.2 225.2L65 222.6L72.8 229.5L80.7 231.2L88.5 232.5L96.3 227.5L104.1 228L111.9 224L119.7 227L127.5 216.2L135.3 219.9L143.2 218.9L151 217.2L158.8 215.9L166.6 218.6L174.4 218.8L182.2 220.1L190 226.8L197.8 243.4L205.7 236.1L213.5 248L221.3 244.9L229.1 248.6L236.9 253L244.7 254.9L252.5 258L260.3 263L268.2 265.6L276 269.2L283.8 278L291.6 269.9" fill="none" stroke-width="1"></path></g><g id="line__CO__2082-emissions-per-capita"><path stroke-linecap="round" stroke-linejoin="round" stroke="#ddd" d="M49.4 226.3L57.2 225L65 228.6L72.8 231.8L80.7 233.3L88.5 235.2L96.3 231.2L104.1 236.5L111.9 235.7L119.7 237.5L127.5 236.4L135.3 235.1L143.2 239.1L151 237.4L158.8 237.7L166.6 239.1L174.4 240.3L182.2 242.8L190 246.5L197.8 257L205.7 254.4L213.5 263.2L221.3 260.6L229.1 263.1L236.9 270.9L244.7 274.4L252.5 279.1L260.3 281.7L268.2 283.5L276 286.5L283.8 293.6L291.6 290.1L299.4 295.4" fill="none" stroke-width="1"></path></g><g id="line__GDP-per-capita"><path stroke-linecap="round" stroke-linejoin="round" stroke="#ddd" d="M49.4 226.3L57.2 228L65 227.9L72.8 225.1L80.7 220.5L88.5 217.6L96.3 215.4L104.1 209.8L111.9 205.7L119.7 201.8L127.5 196.3L135.3 193.5L143.2 191.4L151 187.2L158.8 184.3L166.6 181L174.4 178.6L182.2 175.5L190 177.2L197.8 186.3L205.7 183.6L213.5 183.1L221.3 181.9L229.1 179.9L236.9 175.7L244.7 173L252.5 170.5L260.3 167.3L268.2 165.3L276 163.4L283.8 184.7L291.6 172.8" fill="none" stroke-width="1"></path></g><g id="line__Consumption-based-CO__2082-emissions-per-capita"><path id="outline" fill="none" stroke-linecap="butt" stroke-linejoin="round" stroke="#fff" stroke-width="2.5" d="M49.4 226.3L57.2 225.2L65 222.6L72.8 229.5L80.7 231.2L88.5 232.5L96.3 227.5L104.1 228L111.9 224L119.7 227L127.5 216.2L135.3 219.9L143.2 218.9L151 217.2L158.8 215.9L166.6 218.6L174.4 218.8L182.2 220.1L190 226.8L197.8 243.4L205.7 236.1L213.5 248L221.3 244.9L229.1 248.6L236.9 253L244.7 254.9L252.5 258L260.3 263L268.2 265.6L276 269.2L283.8 278L291.6 269.9"></path><g id="polyline"><polyline id="polyline" points="49.40,226.30 57.20,225.20 65.00,222.60 72.80,229.50 80.70,231.20 88.50,232.50 96.30,227.50 104.10,228.00 111.90,224.00 119.70,227.00 127.50,216.20 135.30,219.90 143.20,218.90 151.00,217.20 158.80,215.90 166.60,218.60 174.40,218.80 182.20,220.10 190.00,226.80 197.80,243.40 205.70,236.10 213.50,248.00 221.30,244.90 229.10,248.60 236.90,253.00 244.70,254.90 252.50,258.00 260.30,263.00 268.20,265.60 276.00,269.20 283.80,278.00 291.60,269.90" stroke-linejoin="round" stroke-width="1.5" stroke="#2C8465" fill="none" stroke-linecap="butt"></polyline></g></g><g id="line__CO__2082-emissions-per-capita"><path id="outline" fill="none" stroke-linecap="butt" stroke-linejoin="round" stroke="#fff" stroke-width="2.5" d="M49.4 226.3L57.2 225L65 228.6L72.8 231.8L80.7 233.3L88.5 235.2L96.3 231.2L104.1 236.5L111.9 235.7L119.7 237.5L127.5 236.4L135.3 235.1L143.2 239.1L151 237.4L158.8 237.7L166.6 239.1L174.4 240.3L182.2 242.8L190 246.5L197.8 257L205.7 254.4L213.5 263.2L221.3 260.6L229.1 263.1L236.9 270.9L244.7 274.4L252.5 279.1L260.3 281.7L268.2 283.5L276 286.5L283.8 293.6L291.6 290.1L299.4 295.4"></path><g id="polyline"><polyline id="polyline" points="49.40,226.30 57.20,225.00 65.00,228.60 72.80,231.80 80.70,233.30 88.50,235.20 96.30,231.20 104.10,236.50 111.90,235.70 119.70,237.50 127.50,236.40 135.30,235.10 143.20,239.10 151.00,237.40 158.80,237.70 166.60,239.10 174.40,240.30 182.20,242.80 190.00,246.50 197.80,257.00 205.70,254.40 213.50,263.20 221.30,260.60 229.10,263.10 236.90,270.90 244.70,274.40 252.50,279.10 260.30,281.70 268.20,283.50 276.00,286.50 283.80,293.60 291.60,290.10 299.40,295.40" stroke-linejoin="round" stroke-width="1.5" stroke="#C15065" fill="none" stroke-linecap="butt"></polyline></g></g><g id="line__GDP-per-capita"><path id="outline" fill="none" stroke-linecap="butt" stroke-linejoin="round" stroke="#fff" stroke-width="2.5" d="M49.4 226.3L57.2 228L65 227.9L72.8 225.1L80.7 220.5L88.5 217.6L96.3 215.4L104.1 209.8L111.9 205.7L119.7 201.8L127.5 196.3L135.3 193.5L143.2 191.4L151 187.2L158.8 184.3L166.6 181L174.4 178.6L182.2 175.5L190 177.2L197.8 186.3L205.7 183.6L213.5 183.1L221.3 181.9L229.1 179.9L236.9 175.7L244.7 173L252.5 170.5L260.3 167.3L268.2 165.3L276 163.4L283.8 184.7L291.6 172.8"></path><g id="polyline"><polyline id="polyline" points="49.40,226.30 57.20,228.00 65.00,227.90 72.80,225.10 80.70,220.50 88.50,217.60 96.30,215.40 104.10,209.80 111.90,205.70 119.70,201.80 127.50,196.30 135.30,193.50 143.20,191.40 151.00,187.20 158.80,184.30 166.60,181.00 174.40,178.60 182.20,175.50 190.00,177.20 197.80,186.30 205.70,183.60 213.50,183.10 221.30,181.90 229.10,179.90 236.90,175.70 244.70,173.00 252.50,170.50 260.30,167.30 268.20,165.30 276.00,163.40 283.80,184.70 291.60,172.80" stroke-linejoin="round" stroke-width="1.5" stroke="#00295b" fill="none" stroke-linecap="butt"></polyline></g></g></g></g></g><text x="315.4090625" y="141.01875" fill="#1d3d63" font-size="14.625" style="font-weight:700">France<title>France</title></text><g id="line-chart" class="LineChart"><defs><clipPath id="boundsClip-2"><rect x="305.4090625" y="138.33125" width="271" height="185"></rect></clipPath></defs><rect x="315.4090625" y="148.33125" width="251" height="165" fill="none"></rect><g id="dual-axis" class="DualAxisView"><g id="horizontal-axis" class="HorizontalAxis"><g id="tick__1990"><line x1="315.4" y1="294.8625" x2="315.4" y2="300.3625" stroke="#999" stroke-width="1"></line><text x="315.4090625" y="311.33125" fill="#5b5b5b" text-anchor="start" font-size="10.96875">1990</text></g><g id="tick__2022"><line x1="565.4" y1="294.8625" x2="565.4" y2="300.3625" stroke="#999" stroke-width="1"></line><text x="565.4090625" y="311.33125" fill="#5b5b5b" text-anchor="end" font-size="10.96875">2022</text></g><g id="tick__2000"><line x1="393.5" y1="294.8625" x2="393.5" y2="300.3625" stroke="#999" stroke-width="1"></line><text x="393.5" y="311.33125" fill="#5b5b5b" text-anchor="middle" font-size="10.96875">2000</text></g><g id="tick__2005"><line x1="432.6" y1="294.8625" x2="432.6" y2="300.3625" stroke="#999" stroke-width="1"></line><text x="432.6" y="311.33125" fill="#5b5b5b" text-anchor="middle" font-size="10.96875">2005</text></g><g id="tick__2010"><line x1="471.7" y1="294.8625" x2="471.7" y2="300.3625" stroke="#999" stroke-width="1"></line><text x="471.7" y="311.33125" fill="#5b5b5b" text-anchor="middle" font-size="10.96875">2010</text></g><g id="tick__2015"><line x1="510.7" y1="294.8625" x2="510.7" y2="300.3625" stroke="#999" stroke-width="1"></line><text x="510.7" y="311.33125" fill="#5b5b5b" text-anchor="middle" font-size="10.96875">2015</text></g></g><g id="horizontal-grid-lines" class="AxisGridLines horizontalLines"><line id="grid-line__-40" x1="315.41" y1="276.4" x2="565.41" y2="276.4" stroke="#ddd" stroke-width="1" stroke-dasharray="2,1"></line><line id="grid-line__-20" x1="315.41" y1="251.3" x2="565.41" y2="251.3" stroke="#ddd" stroke-width="1" stroke-dasharray="2,1"></line><line id="grid-line__0" x1="315.41" y1="226.3" x2="565.41" y2="226.3" stroke="#999" stroke-width="1"></line><line id="grid-line__20" x1="315.41" y1="201.2" x2="565.41" y2="201.2" stroke="#ddd" stroke-width="1" stroke-dasharray="2,1"></line><line id="grid-line__40" x1="315.41" y1="176.1" x2="565.41" y2="176.1" stroke="#ddd" stroke-width="1" stroke-dasharray="2,1"></line></g></g><g clip-path="url(#boundsClip-2)"><g id="lines" class="Lines"><rect x="315" y="154" width="250" height="141" fill="rgba(255,255,255,0)" opacity="0"></rect><g id="line__Consumption-based-CO__2082-emissions-per-capita"><path stroke-linecap="round" stroke-linejoin="round" stroke="#ddd" d="M315.4 226.3L323.2 223.9L331 213.9L338.8 224.8L346.7 228.2L354.5 226.2L362.3 226L370.1 230.1L377.9 225.7L385.7 225.5L393.5 224.7L401.3 225.5L409.2 228.1L417 226.4L424.8 222.2L432.6 220.9L440.4 222L448.2 222.9L456 225.3L463.8 235L471.7 236L479.5 237.1L487.3 242.6L495.1 245.9L502.9 253.6L510.7 256.7L518.5 255.3L526.3 256L534.2 256.4L542 259.4L549.8 268.1L557.6 259.2" fill="none" stroke-width="1"></path></g><g id="line__CO__2082-emissions-per-capita"><path stroke-linecap="round" stroke-linejoin="round" stroke="#ddd" d="M315.4 226.3L323.2 219L331 222.7L338.8 229.2L346.7 231.8L354.5 230.6L362.3 225.9L370.1 228.7L377.9 223.5L385.7 224.6L393.5 227.1L401.3 226.4L409.2 228.6L417 227.5L424.8 227.9L432.6 228L440.4 231.7L448.2 235.5L456 238.2L463.8 244.2L471.7 243.2L479.5 250.2L487.3 250L495.1 249.9L502.9 259.2L510.7 258.2L518.5 257.8L526.3 257.2L534.2 261.5L542 263.6L549.8 273.1L557.6 266.2L565.4 268.9" fill="none" stroke-width="1"></path></g><g id="line__GDP-per-capita"><path stroke-linecap="round" stroke-linejoin="round" stroke="#ddd" d="M315.4 226.3L323.2 226L331 224.7L338.8 226L346.7 223.5L354.5 221.3L362.3 219.9L370.1 217.3L377.9 213L385.7 209L393.5 204.5L401.3 202.6L409.2 202L417 201.9L424.8 198.8L432.6 197.4L440.4 194.7L448.2 191.9L456 192.4L463.8 197.7L471.7 195.5L479.5 192.8L487.3 193.1L495.1 193L502.9 192.3L510.7 191.1L518.5 189.7L526.3 186.5L534.2 184L542 181.5L549.8 195.2L557.6 185" fill="none" stroke-width="1"></path></g><g id="line__Consumption-based-CO__2082-emissions-per-capita"><path id="outline" fill="none" stroke-linecap="butt" stroke-linejoin="round" stroke="#fff" stroke-width="2.5" d="M315.4 226.3L323.2 223.9L331 213.9L338.8 224.8L346.7 228.2L354.5 226.2L362.3 226L370.1 230.1L377.9 225.7L385.7 225.5L393.5 224.7L401.3 225.5L409.2 228.1L417 226.4L424.8 222.2L432.6 220.9L440.4 222L448.2 222.9L456 225.3L463.8 235L471.7 236L479.5 237.1L487.3 242.6L495.1 245.9L502.9 253.6L510.7 256.7L518.5 255.3L526.3 256L534.2 256.4L542 259.4L549.8 268.1L557.6 259.2"></path><g id="polyline"><polyline id="polyline" points="315.40,226.30 323.20,223.90 331.00,213.90 338.80,224.80 346.70,228.20 354.50,226.20 362.30,226.00 370.10,230.10 377.90,225.70 385.70,225.50 393.50,224.70 401.30,225.50 409.20,228.10 417.00,226.40 424.80,222.20 432.60,220.90 440.40,222.00 448.20,222.90 456.00,225.30 463.80,235.00 471.70,236.00 479.50,237.10 487.30,242.60 495.10,245.90 502.90,253.60 510.70,256.70 518.50,255.30 526.30,256.00 534.20,256.40 542.00,259.40 549.80,268.10 557.60,259.20" stroke-linejoin="round" stroke-width="1.5" stroke="#2C8465" fill="none" stroke-linecap="butt"></polyline></g></g><g id="line__CO__2082-emissions-per-capita"><path id="outline" fill="none" stroke-linecap="butt" stroke-linejoin="round" stroke="#fff" stroke-width="2.5" d="M315.4 226.3L323.2 219L331 222.7L338.8 229.2L346.7 231.8L354.5 230.6L362.3 225.9L370.1 228.7L377.9 223.5L385.7 224.6L393.5 227.1L401.3 226.4L409.2 228.6L417 227.5L424.8 227.9L432.6 228L440.4 231.7L448.2 235.5L456 238.2L463.8 244.2L471.7 243.2L479.5 250.2L487.3 250L495.1 249.9L502.9 259.2L510.7 258.2L518.5 257.8L526.3 257.2L534.2 261.5L542 263.6L549.8 273.1L557.6 266.2L565.4 268.9"></path><g id="polyline"><polyline id="polyline" points="315.40,226.30 323.20,219.00 331.00,222.70 338.80,229.20 346.70,231.80 354.50,230.60 362.30,225.90 370.10,228.70 377.90,223.50 385.70,224.60 393.50,227.10 401.30,226.40 409.20,228.60 417.00,227.50 424.80,227.90 432.60,228.00 440.40,231.70 448.20,235.50 456.00,238.20 463.80,244.20 471.70,243.20 479.50,250.20 487.30,250.00 495.10,249.90 502.90,259.20 510.70,258.20 518.50,257.80 526.30,257.20 534.20,261.50 542.00,263.60 549.80,273.10 557.60,266.20 565.40,268.90" stroke-linejoin="round" stroke-width="1.5" stroke="#C15065" fill="none" stroke-linecap="butt"></polyline></g></g><g id="line__GDP-per-capita"><path id="outline" fill="none" stroke-linecap="butt" stroke-linejoin="round" stroke="#fff" stroke-width="2.5" d="M315.4 226.3L323.2 226L331 224.7L338.8 226L346.7 223.5L354.5 221.3L362.3 219.9L370.1 217.3L377.9 213L385.7 209L393.5 204.5L401.3 202.6L409.2 202L417 201.9L424.8 198.8L432.6 197.4L440.4 194.7L448.2 191.9L456 192.4L463.8 197.7L471.7 195.5L479.5 192.8L487.3 193.1L495.1 193L502.9 192.3L510.7 191.1L518.5 189.7L526.3 186.5L534.2 184L542 181.5L549.8 195.2L557.6 185"></path><g id="polyline"><polyline id="polyline" points="315.40,226.30 323.20,226.00 331.00,224.70 338.80,226.00 346.70,223.50 354.50,221.30 362.30,219.90 370.10,217.30 377.90,213.00 385.70,209.00 393.50,204.50 401.30,202.60 409.20,202.00 417.00,201.90 424.80,198.80 432.60,197.40 440.40,194.70 448.20,191.90 456.00,192.40 463.80,197.70 471.70,195.50 479.50,192.80 487.30,193.10 495.10,193.00 502.90,192.30 510.70,191.10 518.50,189.70 526.30,186.50 534.20,184.00 542.00,181.50 549.80,195.20 557.60,185.00" stroke-linejoin="round" stroke-width="1.5" stroke="#00295b" fill="none" stroke-linecap="butt"></polyline></g></g></g></g></g><text x="581.4090625" y="141.01875" fill="#1d3d63" font-size="14.625" style="font-weight:700">Germany<title>Germany</title></text><g id="line-chart" class="LineChart"><defs><clipPath id="boundsClip-3"><rect x="571.4090625" y="138.33125" width="271" height="185"></rect></clipPath></defs><rect x="581.4090625" y="148.33125" width="251" height="165" fill="none"></rect><g id="dual-axis" class="DualAxisView"><g id="horizontal-axis" class="HorizontalAxis"><g id="tick__1990"><line x1="581.4" y1="294.8625" x2="581.4" y2="300.3625" stroke="#999" stroke-width="1"></line><text x="581.4090625" y="311.33125" fill="#5b5b5b" text-anchor="start" font-size="10.96875">1990</text></g><g id="tick__2022"><line x1="831.4" y1="294.8625" x2="831.4" y2="300.3625" stroke="#999" stroke-width="1"></line><text x="831.4090625" y="311.33125" fill="#5b5b5b" text-anchor="end" font-size="10.96875">2022</text></g><g id="tick__2000"><line x1="659.5" y1="294.8625" x2="659.5" y2="300.3625" stroke="#999" stroke-width="1"></line><text x="659.5" y="311.33125" fill="#5b5b5b" text-anchor="middle" font-size="10.96875">2000</text></g><g id="tick__2005"><line x1="698.6" y1="294.8625" x2="698.6" y2="300.3625" stroke="#999" stroke-width="1"></line><text x="698.6" y="311.33125" fill="#5b5b5b" text-anchor="middle" font-size="10.96875">2005</text></g><g id="tick__2010"><line x1="737.7" y1="294.8625" x2="737.7" y2="300.3625" stroke="#999" stroke-width="1"></line><text x="737.7" y="311.33125" fill="#5b5b5b" text-anchor="middle" font-size="10.96875">2010</text></g><g id="tick__2015"><line x1="776.7" y1="294.8625" x2="776.7" y2="300.3625" stroke="#999" stroke-width="1"></line><text x="776.7" y="311.33125" fill="#5b5b5b" text-anchor="middle" font-size="10.96875">2015</text></g></g><g id="horizontal-grid-lines" class="AxisGridLines horizontalLines"><line id="grid-line__-40" x1="581.41" y1="276.4" x2="831.41" y2="276.4" stroke="#ddd" stroke-width="1" stroke-dasharray="2,1"></line><line id="grid-line__-20" x1="581.41" y1="251.3" x2="831.41" y2="251.3" stroke="#ddd" stroke-width="1" stroke-dasharray="2,1"></line><line id="grid-line__0" x1="581.41" y1="226.3" x2="831.41" y2="226.3" stroke="#999" stroke-width="1"></line><line id="grid-line__20" x1="581.41" y1="201.2" x2="831.41" y2="201.2" stroke="#ddd" stroke-width="1" stroke-dasharray="2,1"></line><line id="grid-line__40" x1="581.41" y1="176.1" x2="831.41" y2="176.1" stroke="#ddd" stroke-width="1" stroke-dasharray="2,1"></line></g></g><g clip-path="url(#boundsClip-3)"><g id="lines" class="Lines"><rect x="581" y="154" width="250" height="141" fill="rgba(255,255,255,0)" opacity="0"></rect><g id="line__Consumption-based-CO__2082-emissions-per-capita"><path stroke-linecap="round" stroke-linejoin="round" stroke="#ddd" d="M581.4 226.3L589.2 232.2L597 226.3L604.8 231.7L612.7 234.8L620.5 234.6L628.3 236.5L636.1 241.4L643.9 241.2L651.7 240.4L659.5 241L667.3 241.3L675.2 246.6L683 242.4L690.8 243.9L698.6 244L706.4 244.7L714.2 244.9L722 245.1L729.8 251.9L737.7 247L745.5 251.2L753.3 257.9L761.1 256.9L768.9 259.4L776.7 261L784.5 259.7L792.3 261.1L800.2 262.9L808 267.3L815.8 274.3L823.6 268.7" fill="none" stroke-width="1"></path></g><g id="line__CO__2082-emissions-per-capita"><path stroke-linecap="round" stroke-linejoin="round" stroke="#ddd" d="M581.4 226.3L589.2 231.4L597 237.6L604.8 239.3L612.7 241.6L620.5 242.3L628.3 240.3L636.1 243.7L643.9 244.8L651.7 248L659.5 247.6L667.3 245.7L675.2 247.5L683 247.3L690.8 248.8L698.6 251.1L706.4 249.6L714.2 252.8L722 252.5L729.8 260.1L737.7 255.2L745.5 258L753.3 257.6L761.1 255.3L768.9 260L776.7 259.9L784.5 259.7L792.3 261.9L800.2 265.7L808 271.3L815.8 278.3L823.6 274.8L831.4 276.3" fill="none" stroke-width="1"></path></g><g id="line__GDP-per-capita"><path stroke-linecap="round" stroke-linejoin="round" stroke="#ddd" d="M581.4 226.3L589.2 220.8L597 219.3L604.8 221.5L612.7 218.8L620.5 217.1L628.3 216.5L636.1 214.2L643.9 211.5L651.7 208.9L659.5 205L667.3 202.8L675.2 203.3L683 204.4L690.8 202.7L698.6 201.5L706.4 195.6L714.2 190.7L722 188.9L729.8 197.8L737.7 191.1L745.5 181.7L753.3 181.3L761.1 181L768.9 177.9L776.7 176.9L784.5 174.4L792.3 170.3L800.2 169.1L808 167.6L815.8 174.5L823.6 170" fill="none" stroke-width="1"></path></g><g id="line__Consumption-based-CO__2082-emissions-per-capita"><path id="outline" fill="none" stroke-linecap="butt" stroke-linejoin="round" stroke="#fff" stroke-width="2.5" d="M581.4 226.3L589.2 232.2L597 226.3L604.8 231.7L612.7 234.8L620.5 234.6L628.3 236.5L636.1 241.4L643.9 241.2L651.7 240.4L659.5 241L667.3 241.3L675.2 246.6L683 242.4L690.8 243.9L698.6 244L706.4 244.7L714.2 244.9L722 245.1L729.8 251.9L737.7 247L745.5 251.2L753.3 257.9L761.1 256.9L768.9 259.4L776.7 261L784.5 259.7L792.3 261.1L800.2 262.9L808 267.3L815.8 274.3L823.6 268.7"></path><g id="polyline"><polyline id="polyline" points="581.40,226.30 589.20,232.20 597.00,226.30 604.80,231.70 612.70,234.80 620.50,234.60 628.30,236.50 636.10,241.40 643.90,241.20 651.70,240.40 659.50,241.00 667.30,241.30 675.20,246.60 683.00,242.40 690.80,243.90 698.60,244.00 706.40,244.70 714.20,244.90 722.00,245.10 729.80,251.90 737.70,247.00 745.50,251.20 753.30,257.90 761.10,256.90 768.90,259.40 776.70,261.00 784.50,259.70 792.30,261.10 800.20,262.90 808.00,267.30 815.80,274.30 823.60,268.70" stroke-linejoin="round" stroke-width="1.5" stroke="#2C8465" fill="none" stroke-linecap="butt"></polyline></g></g><g id="line__CO__2082-emissions-per-capita"><path id="outline" fill="none" stroke-linecap="butt" stroke-linejoin="round" stroke="#fff" stroke-width="2.5" d="M581.4 226.3L589.2 231.4L597 237.6L604.8 239.3L612.7 241.6L620.5 242.3L628.3 240.3L636.1 243.7L643.9 244.8L651.7 248L659.5 247.6L667.3 245.7L675.2 247.5L683 247.3L690.8 248.8L698.6 251.1L706.4 249.6L714.2 252.8L722 252.5L729.8 260.1L737.7 255.2L745.5 258L753.3 257.6L761.1 255.3L768.9 260L776.7 259.9L784.5 259.7L792.3 261.9L800.2 265.7L808 271.3L815.8 278.3L823.6 274.8L831.4 276.3"></path><g id="polyline"><polyline id="polyline" points="581.40,226.30 589.20,231.40 597.00,237.60 604.80,239.30 612.70,241.60 620.50,242.30 628.30,240.30 636.10,243.70 643.90,244.80 651.70,248.00 659.50,247.60 667.30,245.70 675.20,247.50 683.00,247.30 690.80,248.80 698.60,251.10 706.40,249.60 714.20,252.80 722.00,252.50 729.80,260.10 737.70,255.20 745.50,258.00 753.30,257.60 761.10,255.30 768.90,260.00 776.70,259.90 784.50,259.70 792.30,261.90 800.20,265.70 808.00,271.30 815.80,278.30 823.60,274.80 831.40,276.30" stroke-linejoin="round" stroke-width="1.5" stroke="#C15065" fill="none" stroke-linecap="butt"></polyline></g></g><g id="line__GDP-per-capita"><path id="outline" fill="none" stroke-linecap="butt" stroke-linejoin="round" stroke="#fff" stroke-width="2.5" d="M581.4 226.3L589.2 220.8L597 219.3L604.8 221.5L612.7 218.8L620.5 217.1L628.3 216.5L636.1 214.2L643.9 211.5L651.7 208.9L659.5 205L667.3 202.8L675.2 203.3L683 204.4L690.8 202.7L698.6 201.5L706.4 195.6L714.2 190.7L722 188.9L729.8 197.8L737.7 191.1L745.5 181.7L753.3 181.3L761.1 181L768.9 177.9L776.7 176.9L784.5 174.4L792.3 170.3L800.2 169.1L808 167.6L815.8 174.5L823.6 170"></path><g id="polyline"><polyline id="polyline" points="581.40,226.30 589.20,220.80 597.00,219.30 604.80,221.50 612.70,218.80 620.50,217.10 628.30,216.50 636.10,214.20 643.90,211.50 651.70,208.90 659.50,205.00 667.30,202.80 675.20,203.30 683.00,204.40 690.80,202.70 698.60,201.50 706.40,195.60 714.20,190.70 722.00,188.90 729.80,197.80 737.70,191.10 745.50,181.70 753.30,181.30 761.10,181.00 768.90,177.90 776.70,176.90 784.50,174.40 792.30,170.30 800.20,169.10 808.00,167.60 815.80,174.50 823.60,170.00" stroke-linejoin="round" stroke-width="1.5" stroke="#00295b" fill="none" stroke-linecap="butt"></polyline></g></g></g></g></g><text x="49.4090625" y="343.01875" fill="#1d3d63" font-size="14.625" style="font-weight:700">Sweden<title>Sweden</title></text><g id="line-chart" class="LineChart"><defs><clipPath id="boundsClip-4"><rect x="39.4090625" y="340.33125" width="304.4090625" height="185"></rect></clipPath></defs><rect x="16" y="350.33125" width="284.4090625" height="165" fill="none"></rect><g id="dual-axis" class="DualAxisView"><g id="horizontal-axis" class="HorizontalAxis"><g id="tick__1990"><line x1="49.4" y1="496.8625" x2="49.4" y2="502.3625" stroke="#999" stroke-width="1"></line><text x="49.4090625" y="513.33125" fill="#5b5b5b" text-anchor="start" font-size="10.96875">1990</text></g><g id="tick__2022"><line x1="299.4" y1="496.8625" x2="299.4" y2="502.3625" stroke="#999" stroke-width="1"></line><text x="299.4090625" y="513.33125" fill="#5b5b5b" text-anchor="end" font-size="10.96875">2022</text></g><g id="tick__2000"><line x1="127.5" y1="496.8625" x2="127.5" y2="502.3625" stroke="#999" stroke-width="1"></line><text x="127.5" y="513.33125" fill="#5b5b5b" text-anchor="middle" font-size="10.96875">2000</text></g><g id="tick__2005"><line x1="166.6" y1="496.8625" x2="166.6" y2="502.3625" stroke="#999" stroke-width="1"></line><text x="166.6" y="513.33125" fill="#5b5b5b" text-anchor="middle" font-size="10.96875">2005</text></g><g id="tick__2010"><line x1="205.7" y1="496.8625" x2="205.7" y2="502.3625" stroke="#999" stroke-width="1"></line><text x="205.7" y="513.33125" fill="#5b5b5b" text-anchor="middle" font-size="10.96875">2010</text></g><g id="tick__2015"><line x1="244.7" y1="496.8625" x2="244.7" y2="502.3625" stroke="#999" stroke-width="1"></line><text x="244.7" y="513.33125" fill="#5b5b5b" text-anchor="middle" font-size="10.96875">2015</text></g></g><g id="vertical-axis" class="VerticalAxis"><g id="tick-labels"><text id="tick-label__-40__0025" x="44.41" y="478.4" dy=".32em" text-anchor="end" fill="#5b5b5b" font-size="10.96875">-40%</text><text id="tick-label__-20__0025" x="44.41" y="453.3" dy=".32em" text-anchor="end" fill="#5b5b5b" font-size="10.96875">-20%</text><text id="tick-label____002b0__0025" x="44.41" y="428.3" dy=".32em" text-anchor="end" fill="#5b5b5b" font-size="10.96875">+0%</text><text id="tick-label____002b20__0025" x="44.41" y="403.2" dy=".32em" text-anchor="end" fill="#5b5b5b" font-size="10.96875">+20%</text><text id="tick-label____002b40__0025" x="44.41" y="378.1" dy=".32em" text-anchor="end" fill="#5b5b5b" font-size="10.96875">+40%</text></g></g><g id="horizontal-grid-lines" class="AxisGridLines horizontalLines"><line id="grid-line__-40" x1="49.41" y1="478.4" x2="299.41" y2="478.4" stroke="#ddd" stroke-width="1" stroke-dasharray="2,1"></line><line id="grid-line__-20" x1="49.41" y1="453.3" x2="299.41" y2="453.3" stroke="#ddd" stroke-width="1" stroke-dasharray="2,1"></line><line id="grid-line__0" x1="49.41" y1="428.3" x2="299.41" y2="428.3" stroke="#999" stroke-width="1"></line><line id="grid-line__20" x1="49.41" y1="403.2" x2="299.41" y2="403.2" stroke="#ddd" stroke-width="1" stroke-dasharray="2,1"></line><line id="grid-line__40" x1="49.41" y1="378.1" x2="299.41" y2="378.1" stroke="#ddd" stroke-width="1" stroke-dasharray="2,1"></line></g></g><g clip-path="url(#boundsClip-4)"><g id="lines" class="Lines"><rect x="49" y="356" width="250" height="141" fill="rgba(255,255,255,0)" opacity="0"></rect><g id="line__Consumption-based-CO__2082-emissions-per-capita"><path stroke-linecap="round" stroke-linejoin="round" stroke="#ddd" d="M49.4 428.3L57.2 430.2L65 417.9L72.8 428.1L80.7 429.7L88.5 431.5L96.3 424.2L104.1 431.1L111.9 429.2L119.7 437.3L127.5 432.5L135.3 441L143.2 438.7L151 430.8L158.8 432.1L166.6 427.4L174.4 426.4L182.2 428.2L190 431.6L197.8 449.7L205.7 438.7L213.5 442.2L221.3 452.1L229.1 457.5L236.9 459.7L244.7 463L252.5 464.1L260.3 463.7L268.2 464.2L276 469.8L283.8 479.6L291.6 472.1" fill="none" stroke-width="1"></path></g><g id="line__CO__2082-emissions-per-capita"><path stroke-linecap="round" stroke-linejoin="round" stroke="#ddd" d="M49.4 428.3L57.2 428.4L65 429.5L72.8 430.1L80.7 425.4L88.5 427L96.3 419.2L104.1 430.1L111.9 429.5L119.7 435.7L127.5 438.2L135.3 436.7L143.2 435.3L151 434.5L158.8 436.7L166.6 442.7L174.4 443.6L182.2 445.9L190 450.9L197.8 459L205.7 448.1L213.5 456.7L221.3 462.5L229.1 466.3L236.9 470.5L244.7 471.5L252.5 472.3L260.3 474.9L268.2 476.5L276 479.2L283.8 487.7L291.6 485L299.4 486.4" fill="none" stroke-width="1"></path></g><g id="line__GDP-per-capita"><path stroke-linecap="round" stroke-linejoin="round" stroke="#ddd" d="M49.4 428.3L57.2 430.5L65 432.7L72.8 435.9L80.7 432.1L88.5 428L96.3 426.2L104.1 422.4L111.9 416.8L119.7 411.1L127.5 404.5L135.3 402.8L143.2 399.9L151 397L158.8 390.8L166.6 386.8L174.4 380L182.2 375.4L190 377.6L197.8 386.7L205.7 378.2L213.5 374L221.3 376.3L229.1 375.8L236.9 372.8L244.7 366.7L252.5 365.2L260.3 363L268.2 361.5L276 359.7L283.8 365.2L291.6 356.9" fill="none" stroke-width="1"></path></g><g id="line__Consumption-based-CO__2082-emissions-per-capita"><path id="outline" fill="none" stroke-linecap="butt" stroke-linejoin="round" stroke="#fff" stroke-width="2.5" d="M49.4 428.3L57.2 430.2L65 417.9L72.8 428.1L80.7 429.7L88.5 431.5L96.3 424.2L104.1 431.1L111.9 429.2L119.7 437.3L127.5 432.5L135.3 441L143.2 438.7L151 430.8L158.8 432.1L166.6 427.4L174.4 426.4L182.2 428.2L190 431.6L197.8 449.7L205.7 438.7L213.5 442.2L221.3 452.1L229.1 457.5L236.9 459.7L244.7 463L252.5 464.1L260.3 463.7L268.2 464.2L276 469.8L283.8 479.6L291.6 472.1"></path><g id="polyline"><polyline id="polyline" points="49.40,428.30 57.20,430.20 65.00,417.90 72.80,428.10 80.70,429.70 88.50,431.50 96.30,424.20 104.10,431.10 111.90,429.20 119.70,437.30 127.50,432.50 135.30,441.00 143.20,438.70 151.00,430.80 158.80,432.10 166.60,427.40 174.40,426.40 182.20,428.20 190.00,431.60 197.80,449.70 205.70,438.70 213.50,442.20 221.30,452.10 229.10,457.50 236.90,459.70 244.70,463.00 252.50,464.10 260.30,463.70 268.20,464.20 276.00,469.80 283.80,479.60 291.60,472.10" stroke-linejoin="round" stroke-width="1.5" stroke="#2C8465" fill="none" stroke-linecap="butt"></polyline></g></g><g id="line__CO__2082-emissions-per-capita"><path id="outline" fill="none" stroke-linecap="butt" stroke-linejoin="round" stroke="#fff" stroke-width="2.5" d="M49.4 428.3L57.2 428.4L65 429.5L72.8 430.1L80.7 425.4L88.5 427L96.3 419.2L104.1 430.1L111.9 429.5L119.7 435.7L127.5 438.2L135.3 436.7L143.2 435.3L151 434.5L158.8 436.7L166.6 442.7L174.4 443.6L182.2 445.9L190 450.9L197.8 459L205.7 448.1L213.5 456.7L221.3 462.5L229.1 466.3L236.9 470.5L244.7 471.5L252.5 472.3L260.3 474.9L268.2 476.5L276 479.2L283.8 487.7L291.6 485L299.4 486.4"></path><g id="polyline"><polyline id="polyline" points="49.40,428.30 57.20,428.40 65.00,429.50 72.80,430.10 80.70,425.40 88.50,427.00 96.30,419.20 104.10,430.10 111.90,429.50 119.70,435.70 127.50,438.20 135.30,436.70 143.20,435.30 151.00,434.50 158.80,436.70 166.60,442.70 174.40,443.60 182.20,445.90 190.00,450.90 197.80,459.00 205.70,448.10 213.50,456.70 221.30,462.50 229.10,466.30 236.90,470.50 244.70,471.50 252.50,472.30 260.30,474.90 268.20,476.50 276.00,479.20 283.80,487.70 291.60,485.00 299.40,486.40" stroke-linejoin="round" stroke-width="1.5" stroke="#C15065" fill="none" stroke-linecap="butt"></polyline></g></g><g id="line__GDP-per-capita"><path id="outline" fill="none" stroke-linecap="butt" stroke-linejoin="round" stroke="#fff" stroke-width="2.5" d="M49.4 428.3L57.2 430.5L65 432.7L72.8 435.9L80.7 432.1L88.5 428L96.3 426.2L104.1 422.4L111.9 416.8L119.7 411.1L127.5 404.5L135.3 402.8L143.2 399.9L151 397L158.8 390.8L166.6 386.8L174.4 380L182.2 375.4L190 377.6L197.8 386.7L205.7 378.2L213.5 374L221.3 376.3L229.1 375.8L236.9 372.8L244.7 366.7L252.5 365.2L260.3 363L268.2 361.5L276 359.7L283.8 365.2L291.6 356.9"></path><g id="polyline"><polyline id="polyline" points="49.40,428.30 57.20,430.50 65.00,432.70 72.80,435.90 80.70,432.10 88.50,428.00 96.30,426.20 104.10,422.40 111.90,416.80 119.70,411.10 127.50,404.50 135.30,402.80 143.20,399.90 151.00,397.00 158.80,390.80 166.60,386.80 174.40,380.00 182.20,375.40 190.00,377.60 197.80,386.70 205.70,378.20 213.50,374.00 221.30,376.30 229.10,375.80 236.90,372.80 244.70,366.70 252.50,365.20 260.30,363.00 268.20,361.50 276.00,359.70 283.80,365.20 291.60,356.90" stroke-linejoin="round" stroke-width="1.5" stroke="#00295b" fill="none" stroke-linecap="butt"></polyline></g></g></g></g></g><text x="315.4090625" y="343.01875" fill="#1d3d63" font-size="14.625" style="font-weight:700">United States<title>United States</title></text><g id="line-chart" class="LineChart"><defs><clipPath id="boundsClip-5"><rect x="305.4090625" y="340.33125" width="271" height="185"></rect></clipPath></defs><rect x="315.4090625" y="350.33125" width="251" height="165" fill="none"></rect><g id="dual-axis" class="DualAxisView"><g id="horizontal-axis" class="HorizontalAxis"><g id="tick__1990"><line x1="315.4" y1="496.8625" x2="315.4" y2="502.3625" stroke="#999" stroke-width="1"></line><text x="315.4090625" y="513.33125" fill="#5b5b5b" text-anchor="start" font-size="10.96875">1990</text></g><g id="tick__2022"><line x1="565.4" y1="496.8625" x2="565.4" y2="502.3625" stroke="#999" stroke-width="1"></line><text x="565.4090625" y="513.33125" fill="#5b5b5b" text-anchor="end" font-size="10.96875">2022</text></g><g id="tick__2000"><line x1="393.5" y1="496.8625" x2="393.5" y2="502.3625" stroke="#999" stroke-width="1"></line><text x="393.5" y="513.33125" fill="#5b5b5b" text-anchor="middle" font-size="10.96875">2000</text></g><g id="tick__2005"><line x1="432.6" y1="496.8625" x2="432.6" y2="502.3625" stroke="#999" stroke-width="1"></line><text x="432.6" y="513.33125" fill="#5b5b5b" text-anchor="middle" font-size="10.96875">2005</text></g><g id="tick__2010"><line x1="471.7" y1="496.8625" x2="471.7" y2="502.3625" stroke="#999" stroke-width="1"></line><text x="471.7" y="513.33125" fill="#5b5b5b" text-anchor="middle" font-size="10.96875">2010</text></g><g id="tick__2015"><line x1="510.7" y1="496.8625" x2="510.7" y2="502.3625" stroke="#999" stroke-width="1"></line><text x="510.7" y="513.33125" fill="#5b5b5b" text-anchor="middle" font-size="10.96875">2015</text></g></g><g id="horizontal-grid-lines" class="AxisGridLines horizontalLines"><line id="grid-line__-40" x1="315.41" y1="478.4" x2="565.41" y2="478.4" stroke="#ddd" stroke-width="1" stroke-dasharray="2,1"></line><line id="grid-line__-20" x1="315.41" y1="453.3" x2="565.41" y2="453.3" stroke="#ddd" stroke-width="1" stroke-dasharray="2,1"></line><line id="grid-line__0" x1="315.41" y1="428.3" x2="565.41" y2="428.3" stroke="#999" stroke-width="1"></line><line id="grid-line__20" x1="315.41" y1="403.2" x2="565.41" y2="403.2" stroke="#ddd" stroke-width="1" stroke-dasharray="2,1"></line><line id="grid-line__40" x1="315.41" y1="378.1" x2="565.41" y2="378.1" stroke="#ddd" stroke-width="1" stroke-dasharray="2,1"></line></g></g><g clip-path="url(#boundsClip-5)"><g id="lines" class="Lines"><rect x="315" y="356" width="250" height="141" fill="rgba(255,255,255,0)" opacity="0"></rect><g id="line__Consumption-based-CO__2082-emissions-per-capita"><path stroke-linecap="round" stroke-linejoin="round" stroke="#ddd" d="M315.4 428.3L323.2 432.1L331 429.3L338.8 429.6L346.7 428.8L354.5 429L362.3 426.7L370.1 425.9L377.9 423.8L385.7 421.4L393.5 417.2L401.3 420.3L409.2 419.1L417 416.3L424.8 414.9L432.6 414.1L440.4 415.8L448.2 418.5L456 426.3L463.8 438.2L471.7 435.5L479.5 439.4L487.3 443.6L495.1 442.9L502.9 441.9L510.7 443.7L518.5 447L526.3 448.4L534.2 446.1L542 448.8L549.8 458.5L557.6 451.7" fill="none" stroke-width="1"></path></g><g id="line__CO__2082-emissions-per-capita"><path stroke-linecap="round" stroke-linejoin="round" stroke="#ddd" d="M315.4 428.3L323.2 431.4L331 430.5L338.8 429.9L346.7 429.4L354.5 429.6L362.3 426.9L370.1 426.8L377.9 427.4L385.7 427.4L393.5 424.4L401.3 427.9L409.2 428.4L417 428.2L424.8 427.3L432.6 428.2L440.4 431L448.2 430.6L456 436.1L463.8 445.7L471.7 442.8L479.5 446.3L487.3 451.1L495.1 449.4L502.9 449.3L510.7 453L518.5 456.1L526.3 457.6L534.2 455.3L542 458L549.8 468.4L557.6 462.9L565.4 462.8" fill="none" stroke-width="1"></path></g><g id="line__GDP-per-capita"><path stroke-linecap="round" stroke-linejoin="round" stroke="#ddd" d="M315.4 428.3L323.2 430L331 427.5L338.8 425.7L346.7 422.2L354.5 420.2L362.3 416.8L370.1 412.4L377.9 407.8L385.7 402.6L393.5 398.1L401.3 398.2L409.2 397L417 394L424.8 389.4L432.6 385.2L440.4 382.2L448.2 380.4L456 381.8L463.8 387.8L471.7 384.7L479.5 383.3L487.3 380.7L495.1 378.7L502.9 376L510.7 372.6L518.5 370.9L526.3 368L534.2 363.5L542 360L549.8 367.2L557.6 356.3" fill="none" stroke-width="1"></path></g><g id="line__Consumption-based-CO__2082-emissions-per-capita"><path id="outline" fill="none" stroke-linecap="butt" stroke-linejoin="round" stroke="#fff" stroke-width="2.5" d="M315.4 428.3L323.2 432.1L331 429.3L338.8 429.6L346.7 428.8L354.5 429L362.3 426.7L370.1 425.9L377.9 423.8L385.7 421.4L393.5 417.2L401.3 420.3L409.2 419.1L417 416.3L424.8 414.9L432.6 414.1L440.4 415.8L448.2 418.5L456 426.3L463.8 438.2L471.7 435.5L479.5 439.4L487.3 443.6L495.1 442.9L502.9 441.9L510.7 443.7L518.5 447L526.3 448.4L534.2 446.1L542 448.8L549.8 458.5L557.6 451.7"></path><g id="polyline"><polyline id="polyline" points="315.40,428.30 323.20,432.10 331.00,429.30 338.80,429.60 346.70,428.80 354.50,429.00 362.30,426.70 370.10,425.90 377.90,423.80 385.70,421.40 393.50,417.20 401.30,420.30 409.20,419.10 417.00,416.30 424.80,414.90 432.60,414.10 440.40,415.80 448.20,418.50 456.00,426.30 463.80,438.20 471.70,435.50 479.50,439.40 487.30,443.60 495.10,442.90 502.90,441.90 510.70,443.70 518.50,447.00 526.30,448.40 534.20,446.10 542.00,448.80 549.80,458.50 557.60,451.70" stroke-linejoin="round" stroke-width="1.5" stroke="#2C8465" fill="none" stroke-linecap="butt"></polyline></g></g><g id="line__CO__2082-emissions-per-capita"><path id="outline" fill="none" stroke-linecap="butt" stroke-linejoin="round" stroke="#fff" stroke-width="2.5" d="M315.4 428.3L323.2 431.4L331 430.5L338.8 429.9L346.7 429.4L354.5 429.6L362.3 426.9L370.1 426.8L377.9 427.4L385.7 427.4L393.5 424.4L401.3 427.9L409.2 428.4L417 428.2L424.8 427.3L432.6 428.2L440.4 431L448.2 430.6L456 436.1L463.8 445.7L471.7 442.8L479.5 446.3L487.3 451.1L495.1 449.4L502.9 449.3L510.7 453L518.5 456.1L526.3 457.6L534.2 455.3L542 458L549.8 468.4L557.6 462.9L565.4 462.8"></path><g id="polyline"><polyline id="polyline" points="315.40,428.30 323.20,431.40 331.00,430.50 338.80,429.90 346.70,429.40 354.50,429.60 362.30,426.90 370.10,426.80 377.90,427.40 385.70,427.40 393.50,424.40 401.30,427.90 409.20,428.40 417.00,428.20 424.80,427.30 432.60,428.20 440.40,431.00 448.20,430.60 456.00,436.10 463.80,445.70 471.70,442.80 479.50,446.30 487.30,451.10 495.10,449.40 502.90,449.30 510.70,453.00 518.50,456.10 526.30,457.60 534.20,455.30 542.00,458.00 549.80,468.40 557.60,462.90 565.40,462.80" stroke-linejoin="round" stroke-width="1.5" stroke="#C15065" fill="none" stroke-linecap="butt"></polyline></g></g><g id="line__GDP-per-capita"><path id="outline" fill="none" stroke-linecap="butt" stroke-linejoin="round" stroke="#fff" stroke-width="2.5" d="M315.4 428.3L323.2 430L331 427.5L338.8 425.7L346.7 422.2L354.5 420.2L362.3 416.8L370.1 412.4L377.9 407.8L385.7 402.6L393.5 398.1L401.3 398.2L409.2 397L417 394L424.8 389.4L432.6 385.2L440.4 382.2L448.2 380.4L456 381.8L463.8 387.8L471.7 384.7L479.5 383.3L487.3 380.7L495.1 378.7L502.9 376L510.7 372.6L518.5 370.9L526.3 368L534.2 363.5L542 360L549.8 367.2L557.6 356.3"></path><g id="polyline"><polyline id="polyline" points="315.40,428.30 323.20,430.00 331.00,427.50 338.80,425.70 346.70,422.20 354.50,420.20 362.30,416.80 370.10,412.40 377.90,407.80 385.70,402.60 393.50,398.10 401.30,398.20 409.20,397.00 417.00,394.00 424.80,389.40 432.60,385.20 440.40,382.20 448.20,380.40 456.00,381.80 463.80,387.80 471.70,384.70 479.50,383.30 487.30,380.70 495.10,378.70 502.90,376.00 510.70,372.60 518.50,370.90 526.30,368.00 534.20,363.50 542.00,360.00 549.80,367.20 557.60,356.30" stroke-linejoin="round" stroke-width="1.5" stroke="#00295b" fill="none" stroke-linecap="butt"></polyline></g></g></g></g></g><text x="581.4090625" y="343.01875" fill="#1d3d63" font-size="14.625" style="font-weight:700">Finland<title>Finland</title></text><g id="line-chart" class="LineChart"><defs><clipPath id="boundsClip-6"><rect x="571.4090625" y="340.33125" width="271" height="185"></rect></clipPath></defs><rect x="581.4090625" y="350.33125" width="251" height="165" fill="none"></rect><g id="dual-axis" class="DualAxisView"><g id="horizontal-axis" class="HorizontalAxis"><g id="tick__1990"><line x1="581.4" y1="496.8625" x2="581.4" y2="502.3625" stroke="#999" stroke-width="1"></line><text x="581.4090625" y="513.33125" fill="#5b5b5b" text-anchor="start" font-size="10.96875">1990</text></g><g id="tick__2022"><line x1="831.4" y1="496.8625" x2="831.4" y2="502.3625" stroke="#999" stroke-width="1"></line><text x="831.4090625" y="513.33125" fill="#5b5b5b" text-anchor="end" font-size="10.96875">2022</text></g><g id="tick__2000"><line x1="659.5" y1="496.8625" x2="659.5" y2="502.3625" stroke="#999" stroke-width="1"></line><text x="659.5" y="513.33125" fill="#5b5b5b" text-anchor="middle" font-size="10.96875">2000</text></g><g id="tick__2005"><line x1="698.6" y1="496.8625" x2="698.6" y2="502.3625" stroke="#999" stroke-width="1"></line><text x="698.6" y="513.33125" fill="#5b5b5b" text-anchor="middle" font-size="10.96875">2005</text></g><g id="tick__2010"><line x1="737.7" y1="496.8625" x2="737.7" y2="502.3625" stroke="#999" stroke-width="1"></line><text x="737.7" y="513.33125" fill="#5b5b5b" text-anchor="middle" font-size="10.96875">2010</text></g><g id="tick__2015"><line x1="776.7" y1="496.8625" x2="776.7" y2="502.3625" stroke="#999" stroke-width="1"></line><text x="776.7" y="513.33125" fill="#5b5b5b" text-anchor="middle" font-size="10.96875">2015</text></g></g><g id="horizontal-grid-lines" class="AxisGridLines horizontalLines"><line id="grid-line__-40" x1="581.41" y1="478.4" x2="831.41" y2="478.4" stroke="#ddd" stroke-width="1" stroke-dasharray="2,1"></line><line id="grid-line__-20" x1="581.41" y1="453.3" x2="831.41" y2="453.3" stroke="#ddd" stroke-width="1" stroke-dasharray="2,1"></line><line id="grid-line__0" x1="581.41" y1="428.3" x2="831.41" y2="428.3" stroke="#999" stroke-width="1"></line><line id="grid-line__20" x1="581.41" y1="403.2" x2="831.41" y2="403.2" stroke="#ddd" stroke-width="1" stroke-dasharray="2,1"></line><line id="grid-line__40" x1="581.41" y1="378.1" x2="831.41" y2="378.1" stroke="#ddd" stroke-width="1" stroke-dasharray="2,1"></line></g></g><g clip-path="url(#boundsClip-6)"><g id="lines" class="Lines"><rect x="581" y="356" width="250" height="141" fill="rgba(255,255,255,0)" opacity="0"></rect><g id="line__Consumption-based-CO__2082-emissions-per-capita"><path stroke-linecap="round" stroke-linejoin="round" stroke="#ddd" d="M581.4 428.3L589.2 438.4L597 394.4L604.8 423.4L612.7 434.4L620.5 439.5L628.3 440.6L636.1 442.8L643.9 446.1L651.7 442.4L659.5 435.3L667.3 432.3L675.2 432.1L683 420.7L690.8 427.2L698.6 434.4L706.4 421.7L714.2 423.7L722 433.1L729.8 452.3L737.7 434.3L745.5 452L753.3 456.6L761.1 458.9L768.9 466.4L776.7 475.7L784.5 473.1L792.3 475.6L800.2 472.3L808 478.9L815.8 486.2L823.6 481.3" fill="none" stroke-width="1"></path></g><g id="line__CO__2082-emissions-per-capita"><path stroke-linecap="round" stroke-linejoin="round" stroke="#ddd" d="M581.4 428.3L589.2 432.7L597 435.4L604.8 431.5L612.7 420.4L620.5 428.6L628.3 416.4L636.1 419.6L643.9 427.1L651.7 428.4L659.5 432.6L667.3 421.3L675.2 416.3L683 400.5L690.8 408.8L698.6 434.2L706.4 411L714.2 415L722 432.4L729.8 438.6L737.7 422.4L745.5 438.2L753.3 449.8L761.1 449.2L768.9 457.8L776.7 465L784.5 459.2L792.3 464.6L800.2 462.5L808 469.2L815.8 478.7L823.6 478.3L831.4 481.9" fill="none" stroke-width="1"></path></g><g id="line__GDP-per-capita"><path stroke-linecap="round" stroke-linejoin="round" stroke="#ddd" d="M581.4 428.3L589.2 436.3L597 440.8L604.8 442.1L612.7 438.1L620.5 433.7L628.3 429.7L636.1 422.3L643.9 415.5L651.7 409.8L659.5 401.8L667.3 398.2L675.2 395.9L683 393.1L690.8 387.2L698.6 383.2L706.4 377L714.2 368.4L722 367.8L729.8 383.6L737.7 379L745.5 375.4L753.3 378.7L761.1 381.1L768.9 382.4L776.7 382.1L784.5 377.8L792.3 372.6L800.2 370.8L808 368.7L815.8 373.1L823.6 368.1" fill="none" stroke-width="1"></path></g><g id="line__Consumption-based-CO__2082-emissions-per-capita"><path id="outline" fill="none" stroke-linecap="butt" stroke-linejoin="round" stroke="#fff" stroke-width="2.5" d="M581.4 428.3L589.2 438.4L597 394.4L604.8 423.4L612.7 434.4L620.5 439.5L628.3 440.6L636.1 442.8L643.9 446.1L651.7 442.4L659.5 435.3L667.3 432.3L675.2 432.1L683 420.7L690.8 427.2L698.6 434.4L706.4 421.7L714.2 423.7L722 433.1L729.8 452.3L737.7 434.3L745.5 452L753.3 456.6L761.1 458.9L768.9 466.4L776.7 475.7L784.5 473.1L792.3 475.6L800.2 472.3L808 478.9L815.8 486.2L823.6 481.3"></path><g id="polyline"><polyline id="polyline" points="581.40,428.30 589.20,438.40 597.00,394.40 604.80,423.40 612.70,434.40 620.50,439.50 628.30,440.60 636.10,442.80 643.90,446.10 651.70,442.40 659.50,435.30 667.30,432.30 675.20,432.10 683.00,420.70 690.80,427.20 698.60,434.40 706.40,421.70 714.20,423.70 722.00,433.10 729.80,452.30 737.70,434.30 745.50,452.00 753.30,456.60 761.10,458.90 768.90,466.40 776.70,475.70 784.50,473.10 792.30,475.60 800.20,472.30 808.00,478.90 815.80,486.20 823.60,481.30" stroke-linejoin="round" stroke-width="1.5" stroke="#2C8465" fill="none" stroke-linecap="butt"></polyline></g></g><g id="line__CO__2082-emissions-per-capita"><path id="outline" fill="none" stroke-linecap="butt" stroke-linejoin="round" stroke="#fff" stroke-width="2.5" d="M581.4 428.3L589.2 432.7L597 435.4L604.8 431.5L612.7 420.4L620.5 428.6L628.3 416.4L636.1 419.6L643.9 427.1L651.7 428.4L659.5 432.6L667.3 421.3L675.2 416.3L683 400.5L690.8 408.8L698.6 434.2L706.4 411L714.2 415L722 432.4L729.8 438.6L737.7 422.4L745.5 438.2L753.3 449.8L761.1 449.2L768.9 457.8L776.7 465L784.5 459.2L792.3 464.6L800.2 462.5L808 469.2L815.8 478.7L823.6 478.3L831.4 481.9"></path><g id="polyline"><polyline id="polyline" points="581.40,428.30 589.20,432.70 597.00,435.40 604.80,431.50 612.70,420.40 620.50,428.60 628.30,416.40 636.10,419.60 643.90,427.10 651.70,428.40 659.50,432.60 667.30,421.30 675.20,416.30 683.00,400.50 690.80,408.80 698.60,434.20 706.40,411.00 714.20,415.00 722.00,432.40 729.80,438.60 737.70,422.40 745.50,438.20 753.30,449.80 761.10,449.20 768.90,457.80 776.70,465.00 784.50,459.20 792.30,464.60 800.20,462.50 808.00,469.20 815.80,478.70 823.60,478.30 831.40,481.90" stroke-linejoin="round" stroke-width="1.5" stroke="#C15065" fill="none" stroke-linecap="butt"></polyline></g></g><g id="line__GDP-per-capita"><path id="outline" fill="none" stroke-linecap="butt" stroke-linejoin="round" stroke="#fff" stroke-width="2.5" d="M581.4 428.3L589.2 436.3L597 440.8L604.8 442.1L612.7 438.1L620.5 433.7L628.3 429.7L636.1 422.3L643.9 415.5L651.7 409.8L659.5 401.8L667.3 398.2L675.2 395.9L683 393.1L690.8 387.2L698.6 383.2L706.4 377L714.2 368.4L722 367.8L729.8 383.6L737.7 379L745.5 375.4L753.3 378.7L761.1 381.1L768.9 382.4L776.7 382.1L784.5 377.8L792.3 372.6L800.2 370.8L808 368.7L815.8 373.1L823.6 368.1"></path><g id="polyline"><polyline id="polyline" points="581.40,428.30 589.20,436.30 597.00,440.80 604.80,442.10 612.70,438.10 620.50,433.70 628.30,429.70 636.10,422.30 643.90,415.50 651.70,409.80 659.50,401.80 667.30,398.20 675.20,395.90 683.00,393.10 690.80,387.20 698.60,383.20 706.40,377.00 714.20,368.40 722.00,367.80 729.80,383.60 737.70,379.00 745.50,375.40 753.30,378.70 761.10,381.10 768.90,382.40 776.70,382.10 784.50,377.80 792.30,372.60 800.20,370.80 808.00,368.70 815.80,373.10 823.60,368.10" stroke-linejoin="round" stroke-width="1.5" stroke="#00295b" fill="none" stroke-linecap="butt"></polyline></g></g></g></g></g></g><g id="footer" class="SourcesFooter" style="fill:#5b5b5b"><g id="sources" class="markdown-text-wrap"><text x="16.0" y="544.5" style="font-size:13.5px;line-height:1.2"><tspan x="16" y="544.5"><tspan style="font-weight:700">Data source:</tspan> World Bank (2023); Global Carbon Budget (2023); Population based on various sources (2023)</tspan></text></g><g id="note" class="markdown-text-wrap"><text x="16.0" y="562.7" style="font-size:13.5px;line-height:1.2"><tspan x="16" y="562.7"><tspan style="font-weight:700">Note:</tspan> GDP figures are adjusted for inflation.</tspan></text></g><text id="origin-url" font-size="13.50" x="16.0" y="580.9"><tspan x="16" y="580.8950000000001"><a target="_blank" style="fill: #5b5b5b;" href="https://ourworldindata.org/co2-and-greenhouse-gas-emissions">OurWorldInData.org/co2-and-greenhouse-gas-emissions</a> | <a target="_blank" style="fill: #5b5b5b;" href="https://creativecommons.org/licenses/by/4.0/">CC BY</a></tspan></text></g></svg>