<svg xmlns="http://www.w3.org/2000/svg" version="1.1" style="font-family:Lato, &#x27;Helvetica Neue&#x27;, Helvetica, Arial, &#x27;Liberation Sans&#x27;, sans-serif;font-size:18px;background-color:#ffffff;text-rendering:geometricPrecision;-webkit-font-smoothing:antialiased" width="850" height="600" viewBox="0 0 850 600"><defs><style>@import url(https://ourworldindata.org/fonts.css)</style></defs><defs><pattern id="noDataPattern" patternUnits="userSpaceOnUse" width="4" height="4" patternTransform="rotate(-45 2 2)"><path d="M -1,2 l 6,0" stroke="#ccc" stroke-width="0.7"></path></pattern></defs><rect class="background-fill" fill="#ffffff" width="850" height="600"></rect><g id="header" class="HeaderView"><g id="logo" transform="translate(769, 16) scale(1)"><svg className="owidLogo" xmlns="http://www.w3.org/2000/svg" width="65" height="36" viewBox="0 0 65 36"  fill="none"><path fill="#002147" d="M0 0h64.8v36H0z"/><path fill="#CE261E" d="M0 33.3h64.8V36H0z"/><path fill="#fff" d="M13.796 10.575c0 .636-.106 1.226-.318 1.77a4.193 4.193 0 0 1-.894 1.404 4.084 4.084 0 0 1-1.386.93c-.54.22-1.138.33-1.794.33-.656 0-1.256-.11-1.8-.33a4.149 4.149 0 0 1-1.392-.93 4.193 4.193 0 0 1-.894-1.404A4.833 4.833 0 0 1 5 10.575c0-.636.106-1.224.318-1.764a4.18 4.18 0 0 1 .894-1.41 4.076 4.076 0 0 1 1.392-.924 4.684 4.684 0 0 1 1.8-.336c.656 0 1.254.112 1.794.336.54.224 1.002.534 1.386.93.384.392.682.86.894 1.404.212.54.318 1.128.318 1.764Zm-1.656 0c0-.476-.064-.902-.192-1.278a2.671 2.671 0 0 0-.54-.966 2.332 2.332 0 0 0-.864-.606 2.94 2.94 0 0 0-1.14-.21c-.424 0-.806.07-1.146.21-.34.14-.63.342-.87.606a2.742 2.742 0 0 0-.546.966 3.955 3.955 0 0 0-.192 1.278c0 .476.064.904.192 1.284.128.376.31.696.546.96.24.26.53.46.87.6.34.14.722.21 1.146.21.424 0 .804-.07 1.14-.21.34-.14.628-.34.864-.6.236-.264.416-.584.54-.96a4.01 4.01 0 0 0 .192-1.284ZM16.104 8.757v3.912c0 .376.086.668.258.876.176.204.438.306.786.306.256 0 .496-.056.72-.168a2.58 2.58 0 0 0 .636-.474V8.757h1.482v6.156h-.906c-.192 0-.318-.09-.378-.27l-.102-.492a4.65 4.65 0 0 1-.396.354 2.577 2.577 0 0 1-.438.27 2.35 2.35 0 0 1-.498.168 2.345 2.345 0 0 1-.57.066c-.336 0-.634-.056-.894-.168a1.821 1.821 0 0 1-.648-.486 2.157 2.157 0 0 1-.402-.738 3.233 3.233 0 0 1-.132-.948V8.757h1.482ZM21.328 14.913V8.757h.87c.152 0 .258.028.318.084.06.056.1.152.12.288l.09.744c.22-.38.478-.68.774-.9.296-.22.628-.33.996-.33.304 0 .556.07.756.21l-.192 1.11c-.012.072-.038.124-.078.156a.278.278 0 0 1-.162.042 1.01 1.01 0 0 1-.246-.042 1.646 1.646 0 0 0-.414-.042c-.308 0-.572.086-.792.258-.22.168-.406.416-.558.744v3.834h-1.482ZM27.347 6.237h1.356a.57.57 0 0 1 .348.102c.096.064.16.152.192.264l1.476 5.19c.036.128.068.268.096.42.032.148.062.306.09.474a5.968 5.968 0 0 1 .228-.894l1.704-5.19a.575.575 0 0 1 .186-.252.543.543 0 0 1 .348-.114h.474a.57.57 0 0 1 .348.102.497.497 0 0 1 .192.264l1.692 5.19c.088.256.164.54.228.852.028-.156.056-.306.084-.45.032-.144.064-.278.096-.402l1.476-5.19c.028-.1.09-.186.186-.258a.563.563 0 0 1 .348-.108h1.266l-2.694 8.676h-1.458l-1.896-5.928-.078-.246a9.504 9.504 0 0 1-.072-.282c-.024.1-.05.194-.078.282-.024.088-.048.17-.072.246l-1.914 5.928H30.04l-2.694-8.676ZM42.771 8.661c.46 0 .876.074 1.248.222.376.148.696.358.96.63s.468.604.612.996c.144.392.216.83.216 1.314 0 .488-.072.928-.216 1.32a2.85 2.85 0 0 1-.612 1.002 2.653 2.653 0 0 1-.96.636 3.35 3.35 0 0 1-1.248.222c-.46 0-.878-.074-1.254-.222a2.712 2.712 0 0 1-.966-.636 2.922 2.922 0 0 1-.618-1.002 3.807 3.807 0 0 1-.216-1.32c0-.484.072-.922.216-1.314.148-.392.354-.724.618-.996.268-.272.59-.482.966-.63a3.397 3.397 0 0 1 1.254-.222Zm0 5.202c.512 0 .89-.172 1.134-.516.248-.344.372-.848.372-1.512s-.124-1.17-.372-1.518c-.244-.348-.622-.522-1.134-.522-.52 0-.904.176-1.152.528-.248.348-.372.852-.372 1.512s.124 1.164.372 1.512c.248.344.632.516 1.152.516ZM46.723 14.913V8.757h.87c.152 0 .258.028.318.084.06.056.1.152.12.288l.09.744c.22-.38.478-.68.774-.9.296-.22.628-.33.996-.33.304 0 .556.07.756.21l-.192 1.11c-.012.072-.038.124-.078.156a.278.278 0 0 1-.162.042 1.01 1.01 0 0 1-.246-.042 1.646 1.646 0 0 0-.414-.042c-.308 0-.572.086-.792.258-.22.168-.406.416-.558.744v3.834h-1.482ZM52.96 5.997v8.916h-1.482V5.997h1.482ZM58.732 14.913c-.192 0-.318-.09-.378-.27l-.12-.594a3.68 3.68 0 0 1-.402.39c-.14.116-.292.216-.456.3-.16.084-.334.148-.522.192a2.372 2.372 0 0 1-.6.072c-.336 0-.644-.07-.924-.21a2.098 2.098 0 0 1-.726-.606 3.033 3.033 0 0 1-.468-.99 5.072 5.072 0 0 1-.162-1.344c0-.456.062-.88.186-1.272s.302-.732.534-1.02c.232-.288.51-.512.834-.672a2.384 2.384 0 0 1 1.092-.246 2.103 2.103 0 0 1 1.536.606V5.997h1.482v8.916h-.906Zm-1.974-1.086c.308 0 .57-.064.786-.192.216-.128.42-.31.612-.546v-2.76a1.452 1.452 0 0 0-.552-.432 1.597 1.597 0 0 0-.636-.126c-.224 0-.428.042-.612.126a1.21 1.21 0 0 0-.462.384c-.124.168-.22.384-.288.648-.068.26-.102.568-.102.924 0 .36.028.666.084.918.06.248.144.452.252.612.108.156.24.27.396.342.156.068.33.102.522.102ZM16.331 20.757v6.156H14.85v-6.156h1.481Zm.223-1.794a.844.844 0 0 1-.078.36.963.963 0 0 1-.21.294.995.995 0 0 1-.3.204.963.963 0 0 1-.372.072.948.948 0 0 1-.367-.072 1.018 1.018 0 0 1-.498-.498.963.963 0 0 1 0-.732.995.995 0 0 1 .205-.3.929.929 0 0 1 .293-.198.899.899 0 0 1 .738 0 .912.912 0 0 1 .3.198.943.943 0 0 1 .288.672ZM17.771 26.913v-6.156h.906c.192 0 .318.09.378.27l.102.486a2.934 2.934 0 0 1 .828-.618c.156-.076.322-.134.498-.174.176-.04.368-.06.576-.06.336 0 .634.058.894.174.26.112.476.272.648.48.176.204.308.45.396.738.092.284.138.598.138.942v3.918h-1.482v-3.918c0-.376-.088-.666-.264-.87-.172-.208-.432-.312-.78-.312-.256 0-.496.058-.72.174a2.58 2.58 0 0 0-.636.474v4.452h-1.482ZM34.22 22.575c0 .636-.106 1.22-.318 1.752-.212.532-.51.99-.894 1.374a4 4 0 0 1-1.386.894 4.87 4.87 0 0 1-1.794.318h-3.312v-8.676h3.312a4.79 4.79 0 0 1 1.794.324 4 4 0 0 1 1.386.894c.384.38.682.836.894 1.368.212.532.318 1.116.318 1.752Zm-1.65 0c0-.476-.064-.902-.192-1.278a2.68 2.68 0 0 0-.546-.96 2.332 2.332 0 0 0-.864-.606 2.94 2.94 0 0 0-1.14-.21h-1.686v6.108h1.686c.424 0 .804-.07 1.14-.21.34-.14.628-.34.864-.6a2.75 2.75 0 0 0 .546-.96 4.01 4.01 0 0 0 .192-1.284ZM39.98 26.913h-.665c-.14 0-.25-.02-.33-.06-.08-.044-.14-.13-.18-.258l-.132-.438c-.156.14-.31.264-.462.372a2.804 2.804 0 0 1-.462.264c-.16.072-.33.126-.51.162-.18.036-.38.054-.6.054-.26 0-.5-.034-.72-.102a1.618 1.618 0 0 1-.57-.318 1.448 1.448 0 0 1-.366-.522 1.852 1.852 0 0 1-.132-.726c0-.232.06-.46.18-.684.124-.228.328-.432.612-.612.284-.184.662-.336 1.134-.456.472-.12 1.058-.188 1.758-.204v-.36c0-.412-.088-.716-.264-.912-.172-.2-.424-.3-.756-.3a1.837 1.837 0 0 0-1.02.276c-.116.068-.224.13-.324.186a.664.664 0 0 1-.33.084.429.429 0 0 1-.258-.078.614.614 0 0 1-.174-.192l-.27-.474c.708-.648 1.562-.972 2.562-.972.36 0 .68.06.96.18.284.116.524.28.72.492.196.208.344.458.444.75.104.292.156.612.156.96v3.888Zm-2.88-.924c.153 0 .293-.014.42-.042.129-.028.249-.07.36-.126.117-.056.227-.124.33-.204.109-.084.217-.182.325-.294v-1.038c-.432.02-.794.058-1.086.114-.288.052-.52.12-.696.204a.923.923 0 0 0-.378.294.664.664 0 0 0-.108.366c0 .26.076.446.228.558.156.112.358.168.606.168ZM43.22 27.01c-.532 0-.942-.15-1.23-.45-.288-.305-.432-.723-.432-1.255v-3.438h-.624a.31.31 0 0 1-.21-.078c-.056-.052-.084-.13-.084-.234v-.588l.99-.162.312-1.68a.302.302 0 0 1 .108-.186.365.365 0 0 1 .222-.066h.768v1.938h1.62v1.056h-1.62v3.336c0 .192.048.342.144.45a.488.488 0 0 0 .384.162c.092 0 .168-.01.228-.03.064-.024.118-.048.162-.072.048-.024.09-.046.126-.066a.194.194 0 0 1 .108-.036.16.16 0 0 1 .108.036c.028.02.058.052.09.096l.444.72c-.216.18-.464.316-.744.408a2.77 2.77 0 0 1-.87.138ZM50.423 26.913h-.666c-.14 0-.25-.02-.33-.06-.08-.044-.14-.13-.18-.258l-.132-.438c-.156.14-.31.264-.462.372a2.804 2.804 0 0 1-.462.264c-.16.072-.33.126-.51.162-.18.036-.38.054-.6.054-.26 0-.5-.034-.72-.102a1.618 1.618 0 0 1-.57-.318 1.448 1.448 0 0 1-.366-.522 1.852 1.852 0 0 1-.132-.726c0-.232.06-.46.18-.684.124-.228.328-.432.612-.612.284-.184.662-.336 1.134-.456.472-.12 1.058-.188 1.758-.204v-.36c0-.412-.088-.716-.264-.912-.172-.2-.424-.3-.756-.3a1.837 1.837 0 0 0-1.02.276c-.116.068-.224.13-.324.186a.664.664 0 0 1-.33.084.429.429 0 0 1-.258-.078.614.614 0 0 1-.174-.192l-.27-.474c.708-.648 1.562-.972 2.562-.972.36 0 .68.06.96.18.284.116.524.28.72.492.196.208.344.458.444.75.104.292.156.612.156.96v3.888Zm-2.88-.924c.152 0 .292-.014.42-.042.128-.028.248-.07.36-.126.116-.056.226-.124.33-.204.108-.084.216-.182.324-.294v-1.038c-.432.02-.794.058-1.086.114-.288.052-.52.12-.696.204a.923.923 0 0 0-.378.294.664.664 0 0 0-.108.366c0 .26.076.446.228.558.156.112.358.168.606.168Z"/></svg></g><a id="title" href="https://ourworldindata.org/grapher/cropland-use-over-the-long-term" style="font-family:&#x27;Playfair Display&#x27;, Georgia, &#x27;Times New Roman&#x27;, &#x27;Liberation Serif&#x27;, serif" target="_blank" rel="noopener"><text font-size="24.75" font-weight="600" x="16.0" y="40.0" fill="#5b5b5b"><tspan x="16" y="40.0075">Cropland extent over the long-term, 1600 to 2023</tspan></text></a><g id="subtitle" class="markdown-text-wrap"><text x="16.0" y="63.9" style="font-size:14.625px;line-height:1.2" fill="#5b5b5b"><tspan x="16" y="63.9">Total cropland area, measured in hectares. Cropland refers to the area defined by the UN Food and Agricultural</tspan><tspan x="16" y="81.4">Organization (FAO) as &#x27;arable land and permanent crops&#x27;.</tspan></text></g></g><g id="chart-area" style="pointer-events:none"><g id="horizontal-axis" class="HorizontalAxis"><g id="tick-marks"><line id="1600" x1="104.6" y1="530.8" x2="104.6" y2="536.3" stroke="#999" stroke-width="1"></line><line id="2023" x1="689.5" y1="530.8" x2="689.5" y2="536.3" stroke="#999" stroke-width="1"></line><line id="1650" x1="173.7" y1="530.8" x2="173.7" y2="536.3" stroke="#999" stroke-width="1"></line><line id="1700" x1="242.8" y1="530.8" x2="242.8" y2="536.3" stroke="#999" stroke-width="1"></line><line id="1750" x1="312" y1="530.8" x2="312" y2="536.3" stroke="#999" stroke-width="1"></line><line id="1800" x1="381.1" y1="530.8" x2="381.1" y2="536.3" stroke="#999" stroke-width="1"></line><line id="1850" x1="450.3" y1="530.8" x2="450.3" y2="536.3" stroke="#999" stroke-width="1"></line><line id="1900" x1="519.4" y1="530.8" x2="519.4" y2="536.3" stroke="#999" stroke-width="1"></line><line id="1950" x1="588.5" y1="530.8" x2="588.5" y2="536.3" stroke="#999" stroke-width="1"></line></g><g id="tick-labels"><text x="104.56500000000001" y="549.8" fill="#5b5b5b" text-anchor="start" font-size="13.5">1600</text><text x="689.48" y="549.8" fill="#5b5b5b" text-anchor="end" font-size="13.5">2023</text><text x="173.7" y="549.8" fill="#5b5b5b" text-anchor="middle" font-size="13.5">1650</text><text x="242.8" y="549.8" fill="#5b5b5b" text-anchor="middle" font-size="13.5">1700</text><text x="312" y="549.8" fill="#5b5b5b" text-anchor="middle" font-size="13.5">1750</text><text x="381.1" y="549.8" fill="#5b5b5b" text-anchor="middle" font-size="13.5">1800</text><text x="450.3" y="549.8" fill="#5b5b5b" text-anchor="middle" font-size="13.5">1850</text><text x="519.4" y="549.8" fill="#5b5b5b" text-anchor="middle" font-size="13.5">1900</text><text x="588.5" y="549.8" fill="#5b5b5b" text-anchor="middle" font-size="13.5">1950</text></g></g><g id="vertical-axis" class="VerticalAxis"><g id="tick-labels"><text x="99.57" y="531.3" dy=".32em" text-anchor="end" fill="#5b5b5b" font-size="13.5">0 ha</text><text x="99.57" y="479.1" dy=".32em" text-anchor="end" fill="#5b5b5b" font-size="13.5">200 million ha</text><text x="99.57" y="426.9" dy=".32em" text-anchor="end" fill="#5b5b5b" font-size="13.5">400 million ha</text><text x="99.57" y="374.7" dy=".32em" text-anchor="end" fill="#5b5b5b" font-size="13.5">600 million ha</text><text x="99.57" y="322.5" dy=".32em" text-anchor="end" fill="#5b5b5b" font-size="13.5">800 million ha</text><text x="99.57" y="270.3" dy=".32em" text-anchor="end" fill="#5b5b5b" font-size="13.5">1 billion ha</text><text x="99.57" y="218.1" dy=".32em" text-anchor="end" fill="#5b5b5b" font-size="13.5">1.2 billion ha</text><text x="99.57" y="166" dy=".32em" text-anchor="end" fill="#5b5b5b" font-size="13.5">1.4 billion ha</text><text x="99.57" y="113.8" dy=".32em" text-anchor="end" fill="#5b5b5b" font-size="13.5">1.6 billion ha</text></g></g><g id="horizontal-grid-lines" class="AxisGridLines horizontalLines"><line id="0-ha" x1="104.57" y1="531.3" x2="689.48" y2="531.3" stroke="#999" stroke-width="1"></line><line id="200-million-ha" x1="104.57" y1="479.1" x2="689.48" y2="479.1" stroke="#ddd" stroke-width="1" stroke-dasharray="3,2"></line><line id="400-million-ha" x1="104.57" y1="426.9" x2="689.48" y2="426.9" stroke="#ddd" stroke-width="1" stroke-dasharray="3,2"></line><line id="600-million-ha" x1="104.57" y1="374.7" x2="689.48" y2="374.7" stroke="#ddd" stroke-width="1" stroke-dasharray="3,2"></line><line id="800-million-ha" x1="104.57" y1="322.5" x2="689.48" y2="322.5" stroke="#ddd" stroke-width="1" stroke-dasharray="3,2"></line><line id="1-billion-ha" x1="104.57" y1="270.3" x2="689.48" y2="270.3" stroke="#ddd" stroke-width="1" stroke-dasharray="3,2"></line><line id="1.2-billion-ha" x1="104.57" y1="218.1" x2="689.48" y2="218.1" stroke="#ddd" stroke-width="1" stroke-dasharray="3,2"></line><line id="1.4-billion-ha" x1="104.57" y1="166" x2="689.48" y2="166" stroke="#ddd" stroke-width="1" stroke-dasharray="3,2"></line><line id="1.6-billion-ha" x1="104.57" y1="113.8" x2="689.48" y2="113.8" stroke="#ddd" stroke-width="1" stroke-dasharray="3,2"></line></g><g id="line-labels" class="LineLabels"><g id="text-annotations"></g><g id="text-values"></g><g id="text-labels"></g><g id="text-annotations"></g><g id="text-values"></g><g id="text-labels"><text font-size="13.50" font-weight="400" x="693.5" y="115.9" fill="#9a5129" opacity="1" text-anchor="start"><tspan x="693.48" y="115.89500000000001">Oceania</tspan></text><text font-size="13.50" font-weight="400" x="693.5" y="157.3" fill="#a2559c" opacity="1" text-anchor="start"><tspan x="693.48" y="157.29500000000002">Africa</tspan></text><text font-size="13.50" font-weight="400" x="693.5" y="216.8" fill="#36a4b3" opacity="1" text-anchor="start"><tspan x="693.48" y="216.79500000000002">India</tspan></text><text font-size="13.50" font-weight="400" x="693.5" y="259.8" fill="#af8454" opacity="1" text-anchor="start"><tspan x="693.48" y="259.795">China</tspan></text><text font-size="13.50" font-weight="400" x="693.5" y="314.4" fill="#00847e" opacity="1" text-anchor="start"><tspan x="693.48" y="314.445">Asia (excl. China</tspan><tspan x="693.48" y="327.945">and India)</tspan></text><text font-size="13.50" font-weight="400" x="693.5" y="367.3" fill="#00295b" opacity="1" text-anchor="start"><tspan x="693.48" y="367.27">Brazil</tspan></text><text font-size="13.50" font-weight="400" x="693.5" y="382.8" fill="#883039" opacity="1" text-anchor="start"><tspan x="693.48" y="382.77">South America</tspan><tspan x="693.48" y="396.27">(excl. Brazil)</tspan></text><text font-size="13.50" font-weight="400" x="693.5" y="428.6" fill="#d96855" opacity="1" text-anchor="start"><tspan x="693.48" y="428.595">North America</tspan></text><text font-size="13.50" font-weight="400" x="693.5" y="477.4" fill="#970046" opacity="1" text-anchor="start"><tspan x="693.48" y="477.395">Russia</tspan></text><text font-size="13.50" font-weight="400" x="693.5" y="508.1" fill="#4c6a9c" opacity="1" text-anchor="start"><tspan x="693.48" y="508.145">Europe (excl.</tspan><tspan x="693.48" y="521.645">Russia)</tspan></text></g></g><g class="Areas" id="stacked-areas"><g id="areas"><path id="Europe-(excl.-Russia)" class="Europe-__0028excl__002e-Russia__0029-area" stroke-linecap="round" d="M104.6 510.1L242.8 508.3L256.7 507.5L270.5 506.8L284.3 506.1L298.2 505.4L312 504.7L325.8 504L339.6 503.4L353.5 502.7L367.3 501.9L381.1 501.2L394.9 500.1L408.8 498.8L422.6 497.3L436.4 495.5L450.3 494L464.1 492.6L477.9 490.9L491.7 488.5L505.6 486.3L519.4 483.9L533.2 481.2L547.1 481.3L560.9 479.7L574.7 478.7L588.5 477.5L589.9 477.5L591.3 477.5L592.7 477.4L594.1 477.3L595.5 477.3L596.8 477.3L598.2 477.3L599.6 477.2L601 477.2L602.4 478.6L603.7 478.3L605.1 478.4L606.5 478.6L607.9 478.9L609.3 479.1L610.7 479.5L612 479.6L613.4 479.9L614.8 479.9L616.2 480.2L617.6 480.8L619 481L620.3 481.1L621.7 481.1L623.1 481.3L624.5 481.3L625.9 481.4L627.3 481.4L628.6 481.5L630 481.6L631.4 481.7L632.8 481.7L634.2 481.8L635.6 481.7L636.9 481.7L638.3 481.8L639.7 481.8L641.1 481.9L642.5 482.3L643.8 482.4L645.2 482.7L646.6 483L648 483.3L649.4 483.5L650.8 483.9L652.1 483.9L653.5 483.9L654.9 484.2L656.3 484.5L657.7 484.8L659.1 485.6L660.4 486L661.8 486.3L663.2 486.3L664.6 486.5L666 486.6L667.4 487.1L668.7 486.9L670.1 487L671.5 487.2L672.9 487.3L674.3 487.1L675.7 487.5L677 487.5L678.4 487.8L679.8 487.9L681.2 487.9L682.6 488L683.9 488.1L685.3 488.2L686.7 488.3L688.1 488.4L689.5 488.4L689.5 531.3L104.6 531.3" fill="#4c6a9c" fill-opacity="0.8"></path><path id="Russia" class="Russia-area" stroke-linecap="round" d="M104.6 506.6L242.8 504.4L256.7 502.7L270.5 501.2L284.3 499.7L298.2 498.1L312 496.8L325.8 495.5L339.6 494.2L353.5 492.8L367.3 491.4L381.1 490L394.9 488.3L408.8 486.3L422.6 484.2L436.4 480.3L450.3 477.7L464.1 474.1L477.9 470.9L491.7 465.8L505.6 460.4L519.4 455.1L533.2 445.6L547.1 448.4L560.9 443.2L574.7 434.3L588.5 446.5L589.9 446L591.3 445.5L592.7 444.8L594.1 444.2L595.5 443.6L596.8 442.9L598.2 442.3L599.6 441.8L601 441.5L602.4 442L603.7 441.8L605.1 441.7L606.5 442.2L607.9 442.8L609.3 443L610.7 443.8L612 444L613.4 444.3L614.8 444.3L616.2 444.6L617.6 445.3L619 445.5L620.3 445.7L621.7 445.6L623.1 445.8L624.5 445.9L625.9 445.9L627.3 446L628.6 446.2L630 446.3L631.4 446.3L632.8 446.3L634.2 446.4L635.6 446.4L636.9 446.4L638.3 446.4L639.7 446.4L641.1 446.6L642.5 447.2L643.8 447.5L645.2 447.8L646.6 448.1L648 449L649.4 449.5L650.8 450.2L652.1 450.5L653.5 450.2L654.9 450.8L656.3 451.4L657.7 451.8L659.1 452.8L660.4 453.3L661.8 453.8L663.2 454L664.6 454.2L666 454.4L667.4 454.9L668.7 454.7L670.1 454.8L671.5 455.1L672.9 455.1L674.3 455L675.7 455.4L677 455.4L678.4 455.6L679.8 455.4L681.2 455.1L682.6 455.1L683.9 455.9L685.3 456L686.7 456.1L688.1 456.2L689.5 456.3L689.5 488.4L688.1 488.4L686.7 488.3L685.3 488.2L683.9 488.1L682.6 488L681.2 487.9L679.8 487.9L678.4 487.8L677 487.5L675.7 487.5L674.3 487.1L672.9 487.3L671.5 487.2L670.1 487L668.7 486.9L667.4 487.1L666 486.6L664.6 486.5L663.2 486.3L661.8 486.3L660.4 486L659.1 485.6L657.7 484.8L656.3 484.5L654.9 484.2L653.5 483.9L652.1 483.9L650.8 483.9L649.4 483.5L648 483.3L646.6 483L645.2 482.7L643.8 482.4L642.5 482.3L641.1 481.9L639.7 481.8L638.3 481.8L636.9 481.7L635.6 481.7L634.2 481.8L632.8 481.7L631.4 481.7L630 481.6L628.6 481.5L627.3 481.4L625.9 481.4L624.5 481.3L623.1 481.3L621.7 481.1L620.3 481.1L619 481L617.6 480.8L616.2 480.2L614.8 479.9L613.4 479.9L612 479.6L610.7 479.5L609.3 479.1L607.9 478.9L606.5 478.6L605.1 478.4L603.7 478.3L602.4 478.6L601 477.2L599.6 477.2L598.2 477.3L596.8 477.3L595.5 477.3L594.1 477.3L592.7 477.4L591.3 477.5L589.9 477.5L588.5 477.5L574.7 478.7L560.9 479.7L547.1 481.3L533.2 481.2L519.4 483.9L505.6 486.3L491.7 488.5L477.9 490.9L464.1 492.6L450.3 494L436.4 495.5L422.6 497.3L408.8 498.8L394.9 500.1L381.1 501.2L367.3 501.9L353.5 502.7L339.6 503.4L325.8 504L312 504.7L298.2 505.4L284.3 506.1L270.5 506.8L256.7 507.5L242.8 508.3L104.6 510.1" fill="#970046" fill-opacity="0.8"></path><path id="North-America" class="North-America-area" stroke-linecap="round" d="M104.6 505.9L242.8 503.3L256.7 501.4L270.5 499.7L284.3 497.9L298.2 496.1L312 494.5L325.8 492.9L339.6 491.3L353.5 489.5L367.3 487.7L381.1 485.4L394.9 482.6L408.8 479.2L422.6 475.2L436.4 469.1L450.3 464.1L464.1 455.5L477.9 449.6L491.7 435.2L505.6 422.5L519.4 411.5L533.2 394L547.1 392.2L560.9 384L574.7 374.9L588.5 381.8L589.9 381.2L591.3 380.6L592.7 379.8L594.1 379.1L595.5 378.4L596.8 377.7L598.2 377L599.6 376.3L601 375.9L602.4 376.8L603.7 376.4L605.1 377.2L606.5 376.9L607.9 377.8L609.3 378.2L610.7 379.4L612 379.8L613.4 378.4L614.8 376.2L616.2 376.8L617.6 377.6L619 377.8L620.3 378L621.7 378.1L623.1 378.2L624.5 378.1L625.9 378L627.3 377.3L628.6 377.5L630 377.5L631.4 377.4L632.8 377.5L634.2 377.3L635.6 377.3L636.9 377.1L638.3 377L639.7 377.3L641.1 377.4L642.5 377.7L643.8 377.8L645.2 377.8L646.6 378.5L648 379.6L649.4 380.3L650.8 380.9L652.1 382L653.5 381.9L654.9 382.8L656.3 383.6L657.7 384.1L659.1 384.9L660.4 386.1L661.8 387.2L663.2 388.1L664.6 389L666 389.9L667.4 390.9L668.7 391.5L670.1 392.2L671.5 393.2L672.9 393.8L674.3 394.3L675.7 394.6L677 394.6L678.4 394.2L679.8 393.3L681.2 392.5L682.6 392.1L683.9 392.4L685.3 392L686.7 391.7L688.1 391.2L689.5 390.8L689.5 456.3L688.1 456.2L686.7 456.1L685.3 456L683.9 455.9L682.6 455.1L681.2 455.1L679.8 455.4L678.4 455.6L677 455.4L675.7 455.4L674.3 455L672.9 455.1L671.5 455.1L670.1 454.8L668.7 454.7L667.4 454.9L666 454.4L664.6 454.2L663.2 454L661.8 453.8L660.4 453.3L659.1 452.8L657.7 451.8L656.3 451.4L654.9 450.8L653.5 450.2L652.1 450.5L650.8 450.2L649.4 449.5L648 449L646.6 448.1L645.2 447.8L643.8 447.5L642.5 447.2L641.1 446.6L639.7 446.4L638.3 446.4L636.9 446.4L635.6 446.4L634.2 446.4L632.8 446.3L631.4 446.3L630 446.3L628.6 446.2L627.3 446L625.9 445.9L624.5 445.9L623.1 445.8L621.7 445.6L620.3 445.7L619 445.5L617.6 445.3L616.2 444.6L614.8 444.3L613.4 444.3L612 444L610.7 443.8L609.3 443L607.9 442.8L606.5 442.2L605.1 441.7L603.7 441.8L602.4 442L601 441.5L599.6 441.8L598.2 442.3L596.8 442.9L595.5 443.6L594.1 444.2L592.7 444.8L591.3 445.5L589.9 446L588.5 446.5L574.7 434.3L560.9 443.2L547.1 448.4L533.2 445.6L519.4 455.1L505.6 460.4L491.7 465.8L477.9 470.9L464.1 474.1L450.3 477.7L436.4 480.3L422.6 484.2L408.8 486.3L394.9 488.3L381.1 490L367.3 491.4L353.5 492.8L339.6 494.2L325.8 495.5L312 496.8L298.2 498.1L284.3 499.7L270.5 501.2L256.7 502.7L242.8 504.4L104.6 506.6" fill="#e56e5a" fill-opacity="0.8"></path><path id="South-America-(excl.-Brazil)" class="South-America-__0028excl__002e-Brazil__0029-area" stroke-linecap="round" d="M104.6 505.2L242.8 502.6L256.7 500.7L270.5 498.9L284.3 497.1L298.2 495.3L312 493.6L325.8 492L339.6 490.3L353.5 488.5L367.3 486.7L381.1 484.4L394.9 481.5L408.8 478.1L422.6 473.9L436.4 467.6L450.3 462.4L464.1 453.4L477.9 447.4L491.7 432.7L505.6 419.6L519.4 408.2L533.2 389.2L547.1 385.8L560.9 375L574.7 365L588.5 372.4L589.9 371.7L591.3 370.9L592.7 370L594.1 369.2L595.5 368.3L596.8 367.5L598.2 366.6L599.6 365.8L601 365.3L602.4 366L603.7 365.6L605.1 366.2L606.5 365.7L607.9 366.4L609.3 366.7L610.7 367.6L612 367.8L613.4 366L614.8 363.2L616.2 363.8L617.6 364.6L619 364.7L620.3 364.9L621.7 364.8L623.1 364.9L624.5 364.8L625.9 364.6L627.3 363.9L628.6 364.1L630 364L631.4 363.9L632.8 363.7L634.2 363.6L635.6 363.5L636.9 363.2L638.3 363.1L639.7 363.4L641.1 363.7L642.5 364L643.8 364.1L645.2 364.1L646.6 364.8L648 366L649.4 366.4L650.8 367L652.1 368.1L653.5 367.9L654.9 368.5L656.3 369.3L657.7 369.7L659.1 370.6L660.4 372L661.8 372.8L663.2 373.1L664.6 373.4L666 373.8L667.4 374.3L668.7 374.9L670.1 375.7L671.5 375.8L672.9 376.1L674.3 376.2L675.7 376.3L677 376.6L678.4 376.2L679.8 375.3L681.2 374.6L682.6 374.2L683.9 374.6L685.3 374.3L686.7 374L688.1 373.6L689.5 373.2L689.5 390.8L688.1 391.2L686.7 391.7L685.3 392L683.9 392.4L682.6 392.1L681.2 392.5L679.8 393.3L678.4 394.2L677 394.6L675.7 394.6L674.3 394.3L672.9 393.8L671.5 393.2L670.1 392.2L668.7 391.5L667.4 390.9L666 389.9L664.6 389L663.2 388.1L661.8 387.2L660.4 386.1L659.1 384.9L657.7 384.1L656.3 383.6L654.9 382.8L653.5 381.9L652.1 382L650.8 380.9L649.4 380.3L648 379.6L646.6 378.5L645.2 377.8L643.8 377.8L642.5 377.7L641.1 377.4L639.7 377.3L638.3 377L636.9 377.1L635.6 377.3L634.2 377.3L632.8 377.5L631.4 377.4L630 377.5L628.6 377.5L627.3 377.3L625.9 378L624.5 378.1L623.1 378.2L621.7 378.1L620.3 378L619 377.8L617.6 377.6L616.2 376.8L614.8 376.2L613.4 378.4L612 379.8L610.7 379.4L609.3 378.2L607.9 377.8L606.5 376.9L605.1 377.2L603.7 376.4L602.4 376.8L601 375.9L599.6 376.3L598.2 377L596.8 377.7L595.5 378.4L594.1 379.1L592.7 379.8L591.3 380.6L589.9 381.2L588.5 381.8L574.7 374.9L560.9 384L547.1 392.2L533.2 394L519.4 411.5L505.6 422.5L491.7 435.2L477.9 449.6L464.1 455.5L450.3 464.1L436.4 469.1L422.6 475.2L408.8 479.2L394.9 482.6L381.1 485.4L367.3 487.7L353.5 489.5L339.6 491.3L325.8 492.9L312 494.5L298.2 496.1L284.3 497.9L270.5 499.7L256.7 501.4L242.8 503.3L104.6 505.9" fill="#883039" fill-opacity="0.8"></path><path id="Brazil" class="Brazil-area" stroke-linecap="round" d="M104.6 505.1L242.8 502.6L256.7 500.7L270.5 498.9L284.3 497.1L298.2 495.3L312 493.6L325.8 491.9L339.6 490.3L353.5 488.5L367.3 486.6L381.1 484.3L394.9 481.4L408.8 478L422.6 473.8L436.4 467.4L450.3 462.2L464.1 453.2L477.9 447.1L491.7 432.5L505.6 419.2L519.4 407.8L533.2 388.6L547.1 384.9L560.9 373.8L574.7 363.6L588.5 370.6L589.9 369.8L591.3 368.9L592.7 368L594.1 367L595.5 366.1L596.8 365.2L598.2 364.2L599.6 363.3L601 362.7L602.4 363.4L603.7 362.8L605.1 363.3L606.5 362.7L607.9 363.4L609.3 363.6L610.7 364.3L612 364.4L613.4 362.5L614.8 359.6L616.2 360.1L617.6 360.8L619 360.8L620.3 360.9L621.7 360.8L623.1 360.8L624.5 360.6L625.9 360.4L627.3 359.6L628.6 359.7L630 359.5L631.4 359.3L632.8 359.1L634.2 358.8L635.6 358.6L636.9 358.3L638.3 358L639.7 357.9L641.1 357.8L642.5 357.9L643.8 357.5L645.2 357L646.6 357.5L648 358.5L649.4 358.7L650.8 359.2L652.1 360.1L653.5 359.7L654.9 360.2L656.3 360.8L657.7 360.8L659.1 361.4L660.4 362.6L661.8 363.3L663.2 363.1L664.6 362.7L666 362.6L667.4 362.7L668.7 363L670.1 363.5L671.5 363.2L672.9 363.3L674.3 363.1L675.7 362.7L677 362.4L678.4 361.5L679.8 360.2L681.2 359.1L682.6 358.6L683.9 358.8L685.3 358.3L686.7 357.6L688.1 357.1L689.5 356.4L689.5 373.2L688.1 373.6L686.7 374L685.3 374.3L683.9 374.6L682.6 374.2L681.2 374.6L679.8 375.3L678.4 376.2L677 376.6L675.7 376.3L674.3 376.2L672.9 376.1L671.5 375.8L670.1 375.7L668.7 374.9L667.4 374.3L666 373.8L664.6 373.4L663.2 373.1L661.8 372.8L660.4 372L659.1 370.6L657.7 369.7L656.3 369.3L654.9 368.5L653.5 367.9L652.1 368.1L650.8 367L649.4 366.4L648 366L646.6 364.8L645.2 364.1L643.8 364.1L642.5 364L641.1 363.7L639.7 363.4L638.3 363.1L636.9 363.2L635.6 363.5L634.2 363.6L632.8 363.7L631.4 363.9L630 364L628.6 364.1L627.3 363.9L625.9 364.6L624.5 364.8L623.1 364.9L621.7 364.8L620.3 364.9L619 364.7L617.6 364.6L616.2 363.8L614.8 363.2L613.4 366L612 367.8L610.7 367.6L609.3 366.7L607.9 366.4L606.5 365.7L605.1 366.2L603.7 365.6L602.4 366L601 365.3L599.6 365.8L598.2 366.6L596.8 367.5L595.5 368.3L594.1 369.2L592.7 370L591.3 370.9L589.9 371.7L588.5 372.4L574.7 365L560.9 375L547.1 385.8L533.2 389.2L519.4 408.2L505.6 419.6L491.7 432.7L477.9 447.4L464.1 453.4L450.3 462.4L436.4 467.6L422.6 473.9L408.8 478.1L394.9 481.5L381.1 484.4L367.3 486.7L353.5 488.5L339.6 490.3L325.8 492L312 493.6L298.2 495.3L284.3 497.1L270.5 498.9L256.7 500.7L242.8 502.6L104.6 505.2" fill="#00295b" fill-opacity="0.8"></path><path id="Asia-(excl.-China-and-India)" class="Asia-__0028excl__002e-China-and-India__0029-area" stroke-linecap="round" d="M104.6 487.3L242.8 483.6L256.7 481.3L270.5 479.1L284.3 476.9L298.2 474.6L312 472.5L325.8 470.4L339.6 468.2L353.5 465.9L367.3 463.4L381.1 460.6L394.9 457.2L408.8 453.1L422.6 448.2L436.4 441.1L450.3 435.1L464.1 424.8L477.9 417.3L491.7 401.1L505.6 385.9L519.4 372.1L533.2 350.2L547.1 343L560.9 328.9L574.7 316.1L588.5 317.3L589.9 315.6L591.3 313.8L592.7 311.8L594.1 309.8L595.5 307.8L596.8 305.7L598.2 303.6L599.6 301.5L601 299.7L602.4 299.2L603.7 298.2L605.1 298.4L606.5 297.3L607.9 297.6L609.3 297.4L610.7 298.1L612 298.1L613.4 296.2L614.8 293.4L616.2 293.7L617.6 294.5L619 293.8L620.3 293.2L621.7 293.1L623.1 293.2L624.5 292.8L625.9 292.2L627.3 291.3L628.6 290.7L630 290.8L631.4 290.4L632.8 289.7L634.2 289.9L635.6 289.1L636.9 287.7L638.3 287.1L639.7 285.4L641.1 285L642.5 285L643.8 284.6L645.2 284.3L646.6 285L648 285.4L649.4 285.9L650.8 286.2L652.1 287.5L653.5 287L654.9 287.6L656.3 287.7L657.7 287.7L659.1 288L660.4 289.1L661.8 289.8L663.2 289.3L664.6 288.5L666 288.2L667.4 288.6L668.7 289.1L670.1 289.5L671.5 288.8L672.9 288.6L674.3 287.8L675.7 286.9L677 286.2L678.4 284.6L679.8 283L681.2 281.7L682.6 280.7L683.9 280.9L685.3 279.7L686.7 278.4L688.1 277.1L689.5 275.9L689.5 356.4L688.1 357.1L686.7 357.6L685.3 358.3L683.9 358.8L682.6 358.6L681.2 359.1L679.8 360.2L678.4 361.5L677 362.4L675.7 362.7L674.3 363.1L672.9 363.3L671.5 363.2L670.1 363.5L668.7 363L667.4 362.7L666 362.6L664.6 362.7L663.2 363.1L661.8 363.3L660.4 362.6L659.1 361.4L657.7 360.8L656.3 360.8L654.9 360.2L653.5 359.7L652.1 360.1L650.8 359.2L649.4 358.7L648 358.5L646.6 357.5L645.2 357L643.8 357.5L642.5 357.9L641.1 357.8L639.7 357.9L638.3 358L636.9 358.3L635.6 358.6L634.2 358.8L632.8 359.1L631.4 359.3L630 359.5L628.6 359.7L627.3 359.6L625.9 360.4L624.5 360.6L623.1 360.8L621.7 360.8L620.3 360.9L619 360.8L617.6 360.8L616.2 360.1L614.8 359.6L613.4 362.5L612 364.4L610.7 364.3L609.3 363.6L607.9 363.4L606.5 362.7L605.1 363.3L603.7 362.8L602.4 363.4L601 362.7L599.6 363.3L598.2 364.2L596.8 365.2L595.5 366.1L594.1 367L592.7 368L591.3 368.9L589.9 369.8L588.5 370.6L574.7 363.6L560.9 373.8L547.1 384.9L533.2 388.6L519.4 407.8L505.6 419.2L491.7 432.5L477.9 447.1L464.1 453.2L450.3 462.2L436.4 467.4L422.6 473.8L408.8 478L394.9 481.4L381.1 484.3L367.3 486.6L353.5 488.5L339.6 490.3L325.8 491.9L312 493.6L298.2 495.3L284.3 497.1L270.5 498.9L256.7 500.7L242.8 502.6L104.6 505.1" fill="#00847e" fill-opacity="0.8"></path><path id="China" class="China-area" stroke-linecap="round" d="M104.6 472.1L242.8 467.7L256.7 464.7L270.5 461.7L284.3 459.2L298.2 456.7L312 454.3L325.8 452L339.6 449.6L353.5 446.8L367.3 443.9L381.1 440.4L394.9 436.2L408.8 431.5L422.6 426.3L436.4 419.2L450.3 413.1L464.1 402.7L477.9 395.1L491.7 378.9L505.6 363.1L519.4 348.7L533.2 326.1L547.1 317.6L560.9 302.4L574.7 290.5L588.5 292.1L589.9 290.3L591.3 288.3L592.7 286.2L594.1 284.1L595.5 281.9L596.8 279.6L598.2 277.3L599.6 274.9L601 272.8L602.4 272L603.7 270.9L605.1 271.2L606.5 270.2L607.9 270.5L609.3 270.4L610.7 271.2L612 271.3L613.4 269.5L614.8 266.7L616.2 267.2L617.6 268.1L619 267.4L620.3 267L621.7 266.7L623.1 267.2L624.5 266.8L625.9 266.2L627.3 265.4L628.6 264.8L630 264.8L631.4 264.3L632.8 262.3L634.2 261L635.6 258.3L636.9 255.1L638.3 254L639.7 252.2L641.1 251.6L642.5 251.2L643.8 250.3L645.2 249.8L646.6 250.9L648 251.5L649.4 252L650.8 252.3L652.1 253.6L653.5 252.9L654.9 253.4L656.3 253.7L657.7 254L659.1 254.9L660.4 256.3L661.8 257.7L663.2 257.1L664.6 256L666 256.6L667.4 256.8L668.7 257.4L670.1 257.7L671.5 257.1L672.9 256.9L674.3 256L675.7 255.2L677 254.5L678.4 249.4L679.8 247.8L681.2 246.5L682.6 243.7L683.9 242.9L685.3 240.7L686.7 238.3L688.1 236.1L689.5 233.8L689.5 275.9L688.1 277.1L686.7 278.4L685.3 279.7L683.9 280.9L682.6 280.7L681.2 281.7L679.8 283L678.4 284.6L677 286.2L675.7 286.9L674.3 287.8L672.9 288.6L671.5 288.8L670.1 289.5L668.7 289.1L667.4 288.6L666 288.2L664.6 288.5L663.2 289.3L661.8 289.8L660.4 289.1L659.1 288L657.7 287.7L656.3 287.7L654.9 287.6L653.5 287L652.1 287.5L650.8 286.2L649.4 285.9L648 285.4L646.6 285L645.2 284.3L643.8 284.6L642.5 285L641.1 285L639.7 285.4L638.3 287.1L636.9 287.7L635.6 289.1L634.2 289.9L632.8 289.7L631.4 290.4L630 290.8L628.6 290.7L627.3 291.3L625.9 292.2L624.5 292.8L623.1 293.2L621.7 293.1L620.3 293.2L619 293.8L617.6 294.5L616.2 293.7L614.8 293.4L613.4 296.2L612 298.1L610.7 298.1L609.3 297.4L607.9 297.6L606.5 297.3L605.1 298.4L603.7 298.2L602.4 299.2L601 299.7L599.6 301.5L598.2 303.6L596.8 305.7L595.5 307.8L594.1 309.8L592.7 311.8L591.3 313.8L589.9 315.6L588.5 317.3L574.7 316.1L560.9 328.9L547.1 343L533.2 350.2L519.4 372.1L505.6 385.9L491.7 401.1L477.9 417.3L464.1 424.8L450.3 435.1L436.4 441.1L422.6 448.2L408.8 453.1L394.9 457.2L381.1 460.6L367.3 463.4L353.5 465.9L339.6 468.2L325.8 470.4L312 472.5L298.2 474.6L284.3 476.9L270.5 479.1L256.7 481.3L242.8 483.6L104.6 487.3" fill="#bc8e5a" fill-opacity="0.8"></path><path id="India" class="India-area" stroke-linecap="round" d="M104.6 464.1L242.8 457.9L256.7 454.2L270.5 450.4L284.3 447L298.2 443.7L312 440.3L325.8 436.9L339.6 433.4L353.5 429.4L367.3 425.1L381.1 420.2L394.9 414.5L408.8 408.2L422.6 401.2L436.4 392.2L450.3 384.1L464.1 373.2L477.9 365.3L491.7 348.6L505.6 332.4L519.4 317.5L533.2 294.5L547.1 285.5L560.9 268L574.7 253.8L588.5 253.1L589.9 251L591.3 248.8L592.7 246.4L594.1 244L595.5 241.5L596.8 238.9L598.2 236.3L599.6 233.7L601 231.2L602.4 230.1L603.7 229.1L605.1 229L606.5 228.1L607.9 228.3L609.3 228.1L610.7 228.9L612 228.7L613.4 226.7L614.8 224L616.2 224.3L617.6 225.3L619 224.5L620.3 223.9L621.7 223.4L623.1 223.8L624.5 223.4L625.9 222.8L627.3 221.6L628.6 221L630 221.1L631.4 220.5L632.8 218.4L634.2 217.2L635.6 214.3L636.9 211L638.3 210L639.7 208.1L641.1 207.5L642.5 207L643.8 206.1L645.2 205.5L646.6 206.7L648 207.2L649.4 207.7L650.8 208.1L652.1 209.5L653.5 208.7L654.9 209.2L656.3 209.5L657.7 209.7L659.1 210.7L660.4 212.1L661.8 213.5L663.2 212.9L664.6 211.8L666 212.5L667.4 212.8L668.7 213.3L670.1 213.6L671.5 213.1L672.9 212.8L674.3 212L675.7 211.1L677 210.4L678.4 205.3L679.8 203.8L681.2 202.4L682.6 199.7L683.9 198.9L685.3 196.6L686.7 194.3L688.1 192L689.5 189.7L689.5 233.8L688.1 236.1L686.7 238.3L685.3 240.7L683.9 242.9L682.6 243.7L681.2 246.5L679.8 247.8L678.4 249.4L677 254.5L675.7 255.2L674.3 256L672.9 256.9L671.5 257.1L670.1 257.7L668.7 257.4L667.4 256.8L666 256.6L664.6 256L663.2 257.1L661.8 257.7L660.4 256.3L659.1 254.9L657.7 254L656.3 253.7L654.9 253.4L653.5 252.9L652.1 253.6L650.8 252.3L649.4 252L648 251.5L646.6 250.9L645.2 249.8L643.8 250.3L642.5 251.2L641.1 251.6L639.7 252.2L638.3 254L636.9 255.1L635.6 258.3L634.2 261L632.8 262.3L631.4 264.3L630 264.8L628.6 264.8L627.3 265.4L625.9 266.2L624.5 266.8L623.1 267.2L621.7 266.7L620.3 267L619 267.4L617.6 268.1L616.2 267.2L614.8 266.7L613.4 269.5L612 271.3L610.7 271.2L609.3 270.4L607.9 270.5L606.5 270.2L605.1 271.2L603.7 270.9L602.4 272L601 272.8L599.6 274.9L598.2 277.3L596.8 279.6L595.5 281.9L594.1 284.1L592.7 286.2L591.3 288.3L589.9 290.3L588.5 292.1L574.7 290.5L560.9 302.4L547.1 317.6L533.2 326.1L519.4 348.7L505.6 363.1L491.7 378.9L477.9 395.1L464.1 402.7L450.3 413.1L436.4 419.2L422.6 426.3L408.8 431.5L394.9 436.2L381.1 440.4L367.3 443.9L353.5 446.8L339.6 449.6L325.8 452L312 454.3L298.2 456.7L284.3 459.2L270.5 461.7L256.7 464.7L242.8 467.7L104.6 472.1" fill="#38aaba" fill-opacity="0.8"></path><path id="Africa" class="Africa-area" stroke-linecap="round" d="M104.6 453.5L242.8 445.8L256.7 442.1L270.5 438.3L284.3 434.7L298.2 431.3L312 427.7L325.8 424.2L339.6 420.6L353.5 416.4L367.3 412L381.1 407L394.9 401L408.8 394.5L422.6 387.1L436.4 377.5L450.3 368.8L464.1 357L477.9 348.4L491.7 330.8L505.6 313.6L519.4 297.6L533.2 273.2L547.1 262.7L560.9 243.1L574.7 225.7L588.5 218.2L589.9 215.6L591.3 212.6L592.7 209.5L594.1 206.2L595.5 202.9L596.8 199.5L598.2 196L599.6 192.3L601 188.9L602.4 186.8L603.7 184.9L605.1 184.7L606.5 182.8L607.9 182.4L609.3 181.2L610.7 182.4L612 181.6L613.4 179.1L614.8 174.6L616.2 175.4L617.6 176.3L619 176.5L620.3 174.4L621.7 175.1L623.1 175.2L624.5 174.4L625.9 175.1L627.3 173.9L628.6 173.6L630 173.2L631.4 173.2L632.8 170.6L634.2 169.2L635.6 165.2L636.9 160.7L638.3 158.2L639.7 156.2L641.1 155.2L642.5 154.2L643.8 152.8L645.2 151.3L646.6 151.6L648 151.1L649.4 151L650.8 150.1L652.1 150.7L653.5 149.5L654.9 149.7L656.3 149.2L657.7 149.4L659.1 150.5L660.4 151.1L661.8 150.5L663.2 149.5L664.6 147.3L666 147.7L667.4 147.1L668.7 146.5L670.1 146.4L671.5 144.6L672.9 143L674.3 139.6L675.7 138.3L677 137.5L678.4 132.3L679.8 130.4L681.2 128.7L682.6 125.8L683.9 124.9L685.3 122.5L686.7 119.9L688.1 117.4L689.5 114.9L689.5 189.7L688.1 192L686.7 194.3L685.3 196.6L683.9 198.9L682.6 199.7L681.2 202.4L679.8 203.8L678.4 205.3L677 210.4L675.7 211.1L674.3 212L672.9 212.8L671.5 213.1L670.1 213.6L668.7 213.3L667.4 212.8L666 212.5L664.6 211.8L663.2 212.9L661.8 213.5L660.4 212.1L659.1 210.7L657.7 209.7L656.3 209.5L654.9 209.2L653.5 208.7L652.1 209.5L650.8 208.1L649.4 207.7L648 207.2L646.6 206.7L645.2 205.5L643.8 206.1L642.5 207L641.1 207.5L639.7 208.1L638.3 210L636.9 211L635.6 214.3L634.2 217.2L632.8 218.4L631.4 220.5L630 221.1L628.6 221L627.3 221.6L625.9 222.8L624.5 223.4L623.1 223.8L621.7 223.4L620.3 223.9L619 224.5L617.6 225.3L616.2 224.3L614.8 224L613.4 226.7L612 228.7L610.7 228.9L609.3 228.1L607.9 228.3L606.5 228.1L605.1 229L603.7 229.1L602.4 230.1L601 231.2L599.6 233.7L598.2 236.3L596.8 238.9L595.5 241.5L594.1 244L592.7 246.4L591.3 248.8L589.9 251L588.5 253.1L574.7 253.8L560.9 268L547.1 285.5L533.2 294.5L519.4 317.5L505.6 332.4L491.7 348.6L477.9 365.3L464.1 373.2L450.3 384.1L436.4 392.2L422.6 401.2L408.8 408.2L394.9 414.5L381.1 420.2L367.3 425.1L353.5 429.4L339.6 433.4L325.8 436.9L312 440.3L298.2 443.7L284.3 447L270.5 450.4L256.7 454.2L242.8 457.9L104.6 464.1" fill="#a2559c" fill-opacity="0.8"></path><path id="Oceania" class="Oceania-area" stroke-linecap="round" d="M104.6 453.3L242.8 445.6L256.7 441.9L270.5 438.1L284.3 434.5L298.2 431.1L312 427.5L325.8 424L339.6 420.4L353.5 416.3L367.3 411.8L381.1 406.8L394.9 400.8L408.8 394.3L422.6 386.9L436.4 377.3L450.3 368.6L464.1 356.7L477.9 347.9L491.7 330.1L505.6 312.7L519.4 296.3L533.2 271.8L547.1 261.4L560.9 241.2L574.7 224.2L588.5 217L589.9 214.1L591.3 210.8L592.7 207.3L594.1 203.7L595.5 200.1L596.8 196.3L598.2 192.5L599.6 188.5L601 184.8L602.4 182.3L603.7 180.1L605.1 179.6L606.5 177.7L607.9 177.1L609.3 175.7L610.7 176.5L612 175.5L613.4 172.4L614.8 168.4L616.2 169.5L617.6 170.8L619 171L620.3 169.4L621.7 170.1L623.1 170.6L624.5 169.5L625.9 170.1L627.3 168.6L628.6 168L630 167.5L631.4 167.4L632.8 164.5L634.2 163.2L635.6 158.5L636.9 154.2L638.3 151.7L639.7 150L641.1 149.4L642.5 148.6L643.8 147.3L645.2 145.8L646.6 146.5L648 145.8L649.4 145.5L650.8 144.9L652.1 144.8L653.5 143.3L654.9 143.3L656.3 142.4L657.7 142.5L659.1 143.3L660.4 144.3L661.8 143.8L663.2 142.2L664.6 139.9L666 140.8L667.4 140.5L668.7 139.6L670.1 138.7L671.5 137.2L672.9 134L674.3 130.7L675.7 129.5L677 128.4L678.4 123.5L679.8 121.9L681.2 120L682.6 117.3L683.9 116.4L685.3 114.2L686.7 111.6L688.1 109.2L689.5 106.8L689.5 114.9L688.1 117.4L686.7 119.9L685.3 122.5L683.9 124.9L682.6 125.8L681.2 128.7L679.8 130.4L678.4 132.3L677 137.5L675.7 138.3L674.3 139.6L672.9 143L671.5 144.6L670.1 146.4L668.7 146.5L667.4 147.1L666 147.7L664.6 147.3L663.2 149.5L661.8 150.5L660.4 151.1L659.1 150.5L657.7 149.4L656.3 149.2L654.9 149.7L653.5 149.5L652.1 150.7L650.8 150.1L649.4 151L648 151.1L646.6 151.6L645.2 151.3L643.8 152.8L642.5 154.2L641.1 155.2L639.7 156.2L638.3 158.2L636.9 160.7L635.6 165.2L634.2 169.2L632.8 170.6L631.4 173.2L630 173.2L628.6 173.6L627.3 173.9L625.9 175.1L624.5 174.4L623.1 175.2L621.7 175.1L620.3 174.4L619 176.5L617.6 176.3L616.2 175.4L614.8 174.6L613.4 179.1L612 181.6L610.7 182.4L609.3 181.2L607.9 182.4L606.5 182.8L605.1 184.7L603.7 184.9L602.4 186.8L601 188.9L599.6 192.3L598.2 196L596.8 199.5L595.5 202.9L594.1 206.2L592.7 209.5L591.3 212.6L589.9 215.6L588.5 218.2L574.7 225.7L560.9 243.1L547.1 262.7L533.2 273.2L519.4 297.6L505.6 313.6L491.7 330.8L477.9 348.4L464.1 357L450.3 368.8L436.4 377.5L422.6 387.1L408.8 394.5L394.9 401L381.1 407L367.3 412L353.5 416.4L339.6 420.6L325.8 424.2L312 427.7L298.2 431.3L284.3 434.7L270.5 438.3L256.7 442.1L242.8 445.8L104.6 453.5" fill="#9a5129" fill-opacity="0.8"></path></g><g id="borders"><path id="Europe-(excl.-Russia)" class="Europe-__0028excl__002e-Russia__0029-border" stroke-linecap="round" d="M104.6 510.1L242.8 508.3L256.7 507.5L270.5 506.8L284.3 506.1L298.2 505.4L312 504.7L325.8 504L339.6 503.4L353.5 502.7L367.3 501.9L381.1 501.2L394.9 500.1L408.8 498.8L422.6 497.3L436.4 495.5L450.3 494L464.1 492.6L477.9 490.9L491.7 488.5L505.6 486.3L519.4 483.9L533.2 481.2L547.1 481.3L560.9 479.7L574.7 478.7L588.5 477.5L589.9 477.5L591.3 477.5L592.7 477.4L594.1 477.3L595.5 477.3L596.8 477.3L598.2 477.3L599.6 477.2L601 477.2L602.4 478.6L603.7 478.3L605.1 478.4L606.5 478.6L607.9 478.9L609.3 479.1L610.7 479.5L612 479.6L613.4 479.9L614.8 479.9L616.2 480.2L617.6 480.8L619 481L620.3 481.1L621.7 481.1L623.1 481.3L624.5 481.3L625.9 481.4L627.3 481.4L628.6 481.5L630 481.6L631.4 481.7L632.8 481.7L634.2 481.8L635.6 481.7L636.9 481.7L638.3 481.8L639.7 481.8L641.1 481.9L642.5 482.3L643.8 482.4L645.2 482.7L646.6 483L648 483.3L649.4 483.5L650.8 483.9L652.1 483.9L653.5 483.9L654.9 484.2L656.3 484.5L657.7 484.8L659.1 485.6L660.4 486L661.8 486.3L663.2 486.3L664.6 486.5L666 486.6L667.4 487.1L668.7 486.9L670.1 487L671.5 487.2L672.9 487.3L674.3 487.1L675.7 487.5L677 487.5L678.4 487.8L679.8 487.9L681.2 487.9L682.6 488L683.9 488.1L685.3 488.2L686.7 488.3L688.1 488.4L689.5 488.4" stroke="rgb(64, 89, 131)" stroke-opacity="0.7" stroke-width="0.5" fill="none"></path><path id="Russia" class="Russia-border" stroke-linecap="round" d="M104.6 506.6L242.8 504.4L256.7 502.7L270.5 501.2L284.3 499.7L298.2 498.1L312 496.8L325.8 495.5L339.6 494.2L353.5 492.8L367.3 491.4L381.1 490L394.9 488.3L408.8 486.3L422.6 484.2L436.4 480.3L450.3 477.7L464.1 474.1L477.9 470.9L491.7 465.8L505.6 460.4L519.4 455.1L533.2 445.6L547.1 448.4L560.9 443.2L574.7 434.3L588.5 446.5L589.9 446L591.3 445.5L592.7 444.8L594.1 444.2L595.5 443.6L596.8 442.9L598.2 442.3L599.6 441.8L601 441.5L602.4 442L603.7 441.8L605.1 441.7L606.5 442.2L607.9 442.8L609.3 443L610.7 443.8L612 444L613.4 444.3L614.8 444.3L616.2 444.6L617.6 445.3L619 445.5L620.3 445.7L621.7 445.6L623.1 445.8L624.5 445.9L625.9 445.9L627.3 446L628.6 446.2L630 446.3L631.4 446.3L632.8 446.3L634.2 446.4L635.6 446.4L636.9 446.4L638.3 446.4L639.7 446.4L641.1 446.6L642.5 447.2L643.8 447.5L645.2 447.8L646.6 448.1L648 449L649.4 449.5L650.8 450.2L652.1 450.5L653.5 450.2L654.9 450.8L656.3 451.4L657.7 451.8L659.1 452.8L660.4 453.3L661.8 453.8L663.2 454L664.6 454.2L666 454.4L667.4 454.9L668.7 454.7L670.1 454.8L671.5 455.1L672.9 455.1L674.3 455L675.7 455.4L677 455.4L678.4 455.6L679.8 455.4L681.2 455.1L682.6 455.1L683.9 455.9L685.3 456L686.7 456.1L688.1 456.2L689.5 456.3" stroke="rgb(126, 0, 59)" stroke-opacity="0.7" stroke-width="0.5" fill="none"></path><path id="North-America" class="North-America-border" stroke-linecap="round" d="M104.6 505.9L242.8 503.3L256.7 501.4L270.5 499.7L284.3 497.9L298.2 496.1L312 494.5L325.8 492.9L339.6 491.3L353.5 489.5L367.3 487.7L381.1 485.4L394.9 482.6L408.8 479.2L422.6 475.2L436.4 469.1L450.3 464.1L464.1 455.5L477.9 449.6L491.7 435.2L505.6 422.5L519.4 411.5L533.2 394L547.1 392.2L560.9 384L574.7 374.9L588.5 381.8L589.9 381.2L591.3 380.6L592.7 379.8L594.1 379.1L595.5 378.4L596.8 377.7L598.2 377L599.6 376.3L601 375.9L602.4 376.8L603.7 376.4L605.1 377.2L606.5 376.9L607.9 377.8L609.3 378.2L610.7 379.4L612 379.8L613.4 378.4L614.8 376.2L616.2 376.8L617.6 377.6L619 377.8L620.3 378L621.7 378.1L623.1 378.2L624.5 378.1L625.9 378L627.3 377.3L628.6 377.5L630 377.5L631.4 377.4L632.8 377.5L634.2 377.3L635.6 377.3L636.9 377.1L638.3 377L639.7 377.3L641.1 377.4L642.5 377.7L643.8 377.8L645.2 377.8L646.6 378.5L648 379.6L649.4 380.3L650.8 380.9L652.1 382L653.5 381.9L654.9 382.8L656.3 383.6L657.7 384.1L659.1 384.9L660.4 386.1L661.8 387.2L663.2 388.1L664.6 389L666 389.9L667.4 390.9L668.7 391.5L670.1 392.2L671.5 393.2L672.9 393.8L674.3 394.3L675.7 394.6L677 394.6L678.4 394.2L679.8 393.3L681.2 392.5L682.6 392.1L683.9 392.4L685.3 392L686.7 391.7L688.1 391.2L689.5 390.8" stroke="rgb(192, 92, 75)" stroke-opacity="0.7" stroke-width="0.5" fill="none"></path><path id="South-America-(excl.-Brazil)" class="South-America-__0028excl__002e-Brazil__0029-border" stroke-linecap="round" d="M104.6 505.2L242.8 502.6L256.7 500.7L270.5 498.9L284.3 497.1L298.2 495.3L312 493.6L325.8 492L339.6 490.3L353.5 488.5L367.3 486.7L381.1 484.4L394.9 481.5L408.8 478.1L422.6 473.9L436.4 467.6L450.3 462.4L464.1 453.4L477.9 447.4L491.7 432.7L505.6 419.6L519.4 408.2L533.2 389.2L547.1 385.8L560.9 375L574.7 365L588.5 372.4L589.9 371.7L591.3 370.9L592.7 370L594.1 369.2L595.5 368.3L596.8 367.5L598.2 366.6L599.6 365.8L601 365.3L602.4 366L603.7 365.6L605.1 366.2L606.5 365.7L607.9 366.4L609.3 366.7L610.7 367.6L612 367.8L613.4 366L614.8 363.2L616.2 363.8L617.6 364.6L619 364.7L620.3 364.9L621.7 364.8L623.1 364.9L624.5 364.8L625.9 364.6L627.3 363.9L628.6 364.1L630 364L631.4 363.9L632.8 363.7L634.2 363.6L635.6 363.5L636.9 363.2L638.3 363.1L639.7 363.4L641.1 363.7L642.5 364L643.8 364.1L645.2 364.1L646.6 364.8L648 366L649.4 366.4L650.8 367L652.1 368.1L653.5 367.9L654.9 368.5L656.3 369.3L657.7 369.7L659.1 370.6L660.4 372L661.8 372.8L663.2 373.1L664.6 373.4L666 373.8L667.4 374.3L668.7 374.9L670.1 375.7L671.5 375.8L672.9 376.1L674.3 376.2L675.7 376.3L677 376.6L678.4 376.2L679.8 375.3L681.2 374.6L682.6 374.2L683.9 374.6L685.3 374.3L686.7 374L688.1 373.6L689.5 373.2" stroke="rgb(114, 40, 48)" stroke-opacity="0.7" stroke-width="0.5" fill="none"></path><path id="Brazil" class="Brazil-border" stroke-linecap="round" d="M104.6 505.1L242.8 502.6L256.7 500.7L270.5 498.9L284.3 497.1L298.2 495.3L312 493.6L325.8 491.9L339.6 490.3L353.5 488.5L367.3 486.6L381.1 484.3L394.9 481.4L408.8 478L422.6 473.8L436.4 467.4L450.3 462.2L464.1 453.2L477.9 447.1L491.7 432.5L505.6 419.2L519.4 407.8L533.2 388.6L547.1 384.9L560.9 373.8L574.7 363.6L588.5 370.6L589.9 369.8L591.3 368.9L592.7 368L594.1 367L595.5 366.1L596.8 365.2L598.2 364.2L599.6 363.3L601 362.7L602.4 363.4L603.7 362.8L605.1 363.3L606.5 362.7L607.9 363.4L609.3 363.6L610.7 364.3L612 364.4L613.4 362.5L614.8 359.6L616.2 360.1L617.6 360.8L619 360.8L620.3 360.9L621.7 360.8L623.1 360.8L624.5 360.6L625.9 360.4L627.3 359.6L628.6 359.7L630 359.5L631.4 359.3L632.8 359.1L634.2 358.8L635.6 358.6L636.9 358.3L638.3 358L639.7 357.9L641.1 357.8L642.5 357.9L643.8 357.5L645.2 357L646.6 357.5L648 358.5L649.4 358.7L650.8 359.2L652.1 360.1L653.5 359.7L654.9 360.2L656.3 360.8L657.7 360.8L659.1 361.4L660.4 362.6L661.8 363.3L663.2 363.1L664.6 362.7L666 362.6L667.4 362.7L668.7 363L670.1 363.5L671.5 363.2L672.9 363.3L674.3 363.1L675.7 362.7L677 362.4L678.4 361.5L679.8 360.2L681.2 359.1L682.6 358.6L683.9 358.8L685.3 358.3L686.7 357.6L688.1 357.1L689.5 356.4" stroke="rgb(0, 34, 76)" stroke-opacity="0.7" stroke-width="0.5" fill="none"></path><path id="Asia-(excl.-China-and-India)" class="Asia-__0028excl__002e-China-and-India__0029-border" stroke-linecap="round" d="M104.6 487.3L242.8 483.6L256.7 481.3L270.5 479.1L284.3 476.9L298.2 474.6L312 472.5L325.8 470.4L339.6 468.2L353.5 465.9L367.3 463.4L381.1 460.6L394.9 457.2L408.8 453.1L422.6 448.2L436.4 441.1L450.3 435.1L464.1 424.8L477.9 417.3L491.7 401.1L505.6 385.9L519.4 372.1L533.2 350.2L547.1 343L560.9 328.9L574.7 316.1L588.5 317.3L589.9 315.6L591.3 313.8L592.7 311.8L594.1 309.8L595.5 307.8L596.8 305.7L598.2 303.6L599.6 301.5L601 299.7L602.4 299.2L603.7 298.2L605.1 298.4L606.5 297.3L607.9 297.6L609.3 297.4L610.7 298.1L612 298.1L613.4 296.2L614.8 293.4L616.2 293.7L617.6 294.5L619 293.8L620.3 293.2L621.7 293.1L623.1 293.2L624.5 292.8L625.9 292.2L627.3 291.3L628.6 290.7L630 290.8L631.4 290.4L632.8 289.7L634.2 289.9L635.6 289.1L636.9 287.7L638.3 287.1L639.7 285.4L641.1 285L642.5 285L643.8 284.6L645.2 284.3L646.6 285L648 285.4L649.4 285.9L650.8 286.2L652.1 287.5L653.5 287L654.9 287.6L656.3 287.7L657.7 287.7L659.1 288L660.4 289.1L661.8 289.8L663.2 289.3L664.6 288.5L666 288.2L667.4 288.6L668.7 289.1L670.1 289.5L671.5 288.8L672.9 288.6L674.3 287.8L675.7 286.9L677 286.2L678.4 284.6L679.8 283L681.2 281.7L682.6 280.7L683.9 280.9L685.3 279.7L686.7 278.4L688.1 277.1L689.5 275.9" stroke="rgb(0, 110, 105)" stroke-opacity="0.7" stroke-width="0.5" fill="none"></path><path id="China" class="China-border" stroke-linecap="round" d="M104.6 472.1L242.8 467.7L256.7 464.7L270.5 461.7L284.3 459.2L298.2 456.7L312 454.3L325.8 452L339.6 449.6L353.5 446.8L367.3 443.9L381.1 440.4L394.9 436.2L408.8 431.5L422.6 426.3L436.4 419.2L450.3 413.1L464.1 402.7L477.9 395.1L491.7 378.9L505.6 363.1L519.4 348.7L533.2 326.1L547.1 317.6L560.9 302.4L574.7 290.5L588.5 292.1L589.9 290.3L591.3 288.3L592.7 286.2L594.1 284.1L595.5 281.9L596.8 279.6L598.2 277.3L599.6 274.9L601 272.8L602.4 272L603.7 270.9L605.1 271.2L606.5 270.2L607.9 270.5L609.3 270.4L610.7 271.2L612 271.3L613.4 269.5L614.8 266.7L616.2 267.2L617.6 268.1L619 267.4L620.3 267L621.7 266.7L623.1 267.2L624.5 266.8L625.9 266.2L627.3 265.4L628.6 264.8L630 264.8L631.4 264.3L632.8 262.3L634.2 261L635.6 258.3L636.9 255.1L638.3 254L639.7 252.2L641.1 251.6L642.5 251.2L643.8 250.3L645.2 249.8L646.6 250.9L648 251.5L649.4 252L650.8 252.3L652.1 253.6L653.5 252.9L654.9 253.4L656.3 253.7L657.7 254L659.1 254.9L660.4 256.3L661.8 257.7L663.2 257.1L664.6 256L666 256.6L667.4 256.8L668.7 257.4L670.1 257.7L671.5 257.1L672.9 256.9L674.3 256L675.7 255.2L677 254.5L678.4 249.4L679.8 247.8L681.2 246.5L682.6 243.7L683.9 242.9L685.3 240.7L686.7 238.3L688.1 236.1L689.5 233.8" stroke="rgb(157, 119, 75)" stroke-opacity="0.7" stroke-width="0.5" fill="none"></path><path id="India" class="India-border" stroke-linecap="round" d="M104.6 464.1L242.8 457.9L256.7 454.2L270.5 450.4L284.3 447L298.2 443.7L312 440.3L325.8 436.9L339.6 433.4L353.5 429.4L367.3 425.1L381.1 420.2L394.9 414.5L408.8 408.2L422.6 401.2L436.4 392.2L450.3 384.1L464.1 373.2L477.9 365.3L491.7 348.6L505.6 332.4L519.4 317.5L533.2 294.5L547.1 285.5L560.9 268L574.7 253.8L588.5 253.1L589.9 251L591.3 248.8L592.7 246.4L594.1 244L595.5 241.5L596.8 238.9L598.2 236.3L599.6 233.7L601 231.2L602.4 230.1L603.7 229.1L605.1 229L606.5 228.1L607.9 228.3L609.3 228.1L610.7 228.9L612 228.7L613.4 226.7L614.8 224L616.2 224.3L617.6 225.3L619 224.5L620.3 223.9L621.7 223.4L623.1 223.8L624.5 223.4L625.9 222.8L627.3 221.6L628.6 221L630 221.1L631.4 220.5L632.8 218.4L634.2 217.2L635.6 214.3L636.9 211L638.3 210L639.7 208.1L641.1 207.5L642.5 207L643.8 206.1L645.2 205.5L646.6 206.7L648 207.2L649.4 207.7L650.8 208.1L652.1 209.5L653.5 208.7L654.9 209.2L656.3 209.5L657.7 209.7L659.1 210.7L660.4 212.1L661.8 213.5L663.2 212.9L664.6 211.8L666 212.5L667.4 212.8L668.7 213.3L670.1 213.6L671.5 213.1L672.9 212.8L674.3 212L675.7 211.1L677 210.4L678.4 205.3L679.8 203.8L681.2 202.4L682.6 199.7L683.9 198.9L685.3 196.6L686.7 194.3L688.1 192L689.5 189.7" stroke="rgb(47, 142, 156)" stroke-opacity="0.7" stroke-width="0.5" fill="none"></path><path id="Africa" class="Africa-border" stroke-linecap="round" d="M104.6 453.5L242.8 445.8L256.7 442.1L270.5 438.3L284.3 434.7L298.2 431.3L312 427.7L325.8 424.2L339.6 420.6L353.5 416.4L367.3 412L381.1 407L394.9 401L408.8 394.5L422.6 387.1L436.4 377.5L450.3 368.8L464.1 357L477.9 348.4L491.7 330.8L505.6 313.6L519.4 297.6L533.2 273.2L547.1 262.7L560.9 243.1L574.7 225.7L588.5 218.2L589.9 215.6L591.3 212.6L592.7 209.5L594.1 206.2L595.5 202.9L596.8 199.5L598.2 196L599.6 192.3L601 188.9L602.4 186.8L603.7 184.9L605.1 184.7L606.5 182.8L607.9 182.4L609.3 181.2L610.7 182.4L612 181.6L613.4 179.1L614.8 174.6L616.2 175.4L617.6 176.3L619 176.5L620.3 174.4L621.7 175.1L623.1 175.2L624.5 174.4L625.9 175.1L627.3 173.9L628.6 173.6L630 173.2L631.4 173.2L632.8 170.6L634.2 169.2L635.6 165.2L636.9 160.7L638.3 158.2L639.7 156.2L641.1 155.2L642.5 154.2L643.8 152.8L645.2 151.3L646.6 151.6L648 151.1L649.4 151L650.8 150.1L652.1 150.7L653.5 149.5L654.9 149.7L656.3 149.2L657.7 149.4L659.1 150.5L660.4 151.1L661.8 150.5L663.2 149.5L664.6 147.3L666 147.7L667.4 147.1L668.7 146.5L670.1 146.4L671.5 144.6L672.9 143L674.3 139.6L675.7 138.3L677 137.5L678.4 132.3L679.8 130.4L681.2 128.7L682.6 125.8L683.9 124.9L685.3 122.5L686.7 119.9L688.1 117.4L689.5 114.9" stroke="rgb(136, 71, 131)" stroke-opacity="0.7" stroke-width="0.5" fill="none"></path><path id="Oceania" class="Oceania-border" stroke-linecap="round" d="M104.6 453.3L242.8 445.6L256.7 441.9L270.5 438.1L284.3 434.5L298.2 431.1L312 427.5L325.8 424L339.6 420.4L353.5 416.3L367.3 411.8L381.1 406.8L394.9 400.8L408.8 394.3L422.6 386.9L436.4 377.3L450.3 368.6L464.1 356.7L477.9 347.9L491.7 330.1L505.6 312.7L519.4 296.3L533.2 271.8L547.1 261.4L560.9 241.2L574.7 224.2L588.5 217L589.9 214.1L591.3 210.8L592.7 207.3L594.1 203.7L595.5 200.1L596.8 196.3L598.2 192.5L599.6 188.5L601 184.8L602.4 182.3L603.7 180.1L605.1 179.6L606.5 177.7L607.9 177.1L609.3 175.7L610.7 176.5L612 175.5L613.4 172.4L614.8 168.4L616.2 169.5L617.6 170.8L619 171L620.3 169.4L621.7 170.1L623.1 170.6L624.5 169.5L625.9 170.1L627.3 168.6L628.6 168L630 167.5L631.4 167.4L632.8 164.5L634.2 163.2L635.6 158.5L636.9 154.2L638.3 151.7L639.7 150L641.1 149.4L642.5 148.6L643.8 147.3L645.2 145.8L646.6 146.5L648 145.8L649.4 145.5L650.8 144.9L652.1 144.8L653.5 143.3L654.9 143.3L656.3 142.4L657.7 142.5L659.1 143.3L660.4 144.3L661.8 143.8L663.2 142.2L664.6 139.9L666 140.8L667.4 140.5L668.7 139.6L670.1 138.7L671.5 137.2L672.9 134L674.3 130.7L675.7 129.5L677 128.4L678.4 123.5L679.8 121.9L681.2 120L682.6 117.3L683.9 116.4L685.3 114.2L686.7 111.6L688.1 109.2L689.5 106.8" stroke="rgb(129, 68, 34)" stroke-opacity="0.7" stroke-width="0.5" fill="none"></path></g></g></g><g id="footer" class="SourcesFooter" style="fill:#5b5b5b"><g id="sources" class="markdown-text-wrap"><text x="16.0" y="580.9" style="font-size:13.5px;line-height:1.2"><tspan x="16" y="580.9"><tspan style="font-weight:700">Data source:</tspan> HYDE (2023)</tspan></text></g><text id="origin-url" font-size="13.50" x="605.6" y="580.9"><tspan x="605.5799999999999" y="580.895"><a target="_blank" style="fill: #5b5b5b;" href="https://ourworldindata.org/land-use">OurWorldinData.org/land-use</a> | <a target="_blank" style="fill: #5b5b5b;" href="https://creativecommons.org/licenses/by/4.0/">CC BY</a></tspan></text></g></svg>