<svg xmlns="http://www.w3.org/2000/svg" version="1.1" style="font-family:Lato, &#x27;Helvetica Neue&#x27;, Helvetica, Arial, sans-serif;font-size:18px;background-color:white;text-rendering:geometricPrecision;-webkit-font-smoothing:antialiased" width="850" height="600" viewBox="0 0 850 600"><g class="HeaderView"><g transform="translate(774, 15) scale(0.29)"><svg className="owidLog" width="210" height="120" viewBox="0 0 210 120" fill="none" xmlns="http://www.w3.org/2000/svg">
<g clip-path="url(#clip0)">
  <path d="M0 0h210v107.89H0V0z" fill="#002147" />
  <path
    d="M40.98 32.25c0 2.36-.38 4.53-1.12 6.51a14.26 14.26 0 0 1-8.1 8.4c-1.9.78-4.02 1.17-6.34 1.17-2.31 0-4.42-.39-6.33-1.17a14.31 14.31 0 0 1-8.08-8.4 18.29 18.29 0 0 1-1.12-6.51c0-2.36.38-4.53 1.12-6.5.75-1.97 1.8-3.67 3.17-5.1a14.32 14.32 0 0 1 4.9-3.34c1.92-.8 4.03-1.19 6.34-1.19 2.32 0 4.43.4 6.34 1.19 1.92.8 3.56 1.9 4.93 3.34a14.87 14.87 0 0 1 3.17 5.1 18.1 18.1 0 0 1 1.12 6.5zm-4.38 0c0-1.94-.26-3.68-.8-5.22a10.91 10.91 0 0 0-2.24-3.89 9.68 9.68 0 0 0-3.52-2.46 11.95 11.95 0 0 0-4.62-.86c-1.68 0-3.21.28-4.6.86a9.88 9.88 0 0 0-3.54 2.46 10.91 10.91 0 0 0-2.24 3.9c-.53 1.53-.8 3.27-.8 5.2 0 1.94.27 3.68.8 5.22a11.17 11.17 0 0 0 2.24 3.9 10.01 10.01 0 0 0 3.55 2.44c1.38.56 2.9.83 4.6.83s3.24-.27 4.61-.83a9.8 9.8 0 0 0 3.52-2.44 11.17 11.17 0 0 0 2.25-3.9c.53-1.54.8-3.28.8-5.21zm26.22-6.54V48H60.5c-.56 0-.9-.27-1.05-.81l-.31-2.4a12.45 12.45 0 0 1-3.26 2.6c-1.2.64-2.58.96-4.13.96-1.22 0-2.3-.2-3.24-.6a6.52 6.52 0 0 1-2.33-1.7 7.37 7.37 0 0 1-1.43-2.67c-.3-1.04-.46-2.2-.46-3.45V25.7h3.91v14.22c0 1.68.38 2.99 1.15 3.91.77.93 1.96 1.39 3.54 1.39 1.16 0 2.24-.27 3.23-.82a10.42 10.42 0 0 0 2.8-2.28V25.7h3.91zm8.61 4.47a9.94 9.94 0 0 1 2.6-3.56 5.64 5.64 0 0 1 3.76-1.3c.47 0 .92.05 1.34.15.44.1.83.27 1.17.49l-.3 2.92c-.09.37-.3.55-.66.55-.2 0-.5-.04-.9-.13a6.21 6.21 0 0 0-3.24.18 4.23 4.23 0 0 0-1.47.92c-.42.4-.81.9-1.17 1.5-.33.58-.64 1.26-.92 2.02V48H67.7V25.71h2.25c.42 0 .72.08.88.25.16.16.27.44.33.83l.26 3.39zm61.16-13.7L122.75 48h-3.82l-7.99-24.05a21.95 21.95 0 0 1-.42-1.58 38.36 38.36 0 0 1-.44 1.58L102.05 48h-3.83L88.4 16.47h3.54c.38 0 .7.1.95.29.26.2.43.43.5.73l6.52 21.9.28 1.28.29 1.46.3-1.46.38-1.27 7.41-21.91c.1-.25.26-.48.51-.69.27-.22.58-.33.95-.33h1.23c.38 0 .69.1.92.29a1.77 1.77 0 0 1 .53.73l7.4 21.9a28.4 28.4 0 0 1 .68 2.62 29.52 29.52 0 0 1 .52-2.61l6.54-21.91a1.31 1.31 0 0 1 .48-.7c.27-.21.58-.32.95-.32h3.32zm9.35 8.88c1.63 0 3.1.27 4.4.82a9.43 9.43 0 0 1 5.46 5.94c.5 1.4.74 2.98.74 4.73 0 1.76-.25 3.34-.74 4.75a9.43 9.43 0 0 1-5.46 5.92c-1.3.52-2.77.79-4.4.79-1.64 0-3.12-.27-4.44-.8a9.42 9.42 0 0 1-3.35-2.3c-.92-1-1.63-2.2-2.13-3.61-.49-1.41-.73-3-.73-4.75s.24-3.33.73-4.73c.5-1.43 1.2-2.64 2.13-3.63.93-1 2.04-1.77 3.35-2.31 1.32-.55 2.8-.82 4.44-.82zm0 19.89c2.2 0 3.84-.73 4.93-2.2 1.08-1.48 1.63-3.54 1.63-6.18 0-2.66-.55-4.72-1.63-6.2-1.09-1.49-2.73-2.23-4.93-2.23-1.12 0-2.09.2-2.93.57a5.71 5.71 0 0 0-2.06 1.65c-.55.72-.96 1.61-1.24 2.67-.26 1.04-.4 2.22-.4 3.54 0 2.64.55 4.7 1.64 6.18 1.1 1.47 2.76 2.2 4.99 2.2zm17.97-15.07a9.94 9.94 0 0 1 2.6-3.56 5.64 5.64 0 0 1 3.76-1.3c.47 0 .91.05 1.34.15.44.1.83.27 1.16.49l-.28 2.92c-.09.37-.31.55-.66.55-.2 0-.5-.04-.9-.13a6.2 6.2 0 0 0-3.24.18 4.23 4.23 0 0 0-1.47.92c-.43.4-.82.9-1.17 1.5a13.1 13.1 0 0 0-.92 2.02V48h-3.94V25.71h2.24c.43 0 .72.08.88.25.17.16.28.44.33.83l.27 3.39zm15.04-14.59V48h-3.92V15.6h3.92zm19.55 15.43a6.22 6.22 0 0 0-2.38-2.05 6.7 6.7 0 0 0-2.86-.6c-2.07 0-3.66.75-4.77 2.23-1.12 1.48-1.68 3.6-1.68 6.33 0 1.46.13 2.7.38 3.74a7.29 7.29 0 0 0 1.1 2.56 4.35 4.35 0 0 0 1.78 1.45c.7.3 1.5.46 2.4.46 1.29 0 2.41-.3 3.36-.88a9.6 9.6 0 0 0 2.67-2.49V31.02zm3.91-15.43V48h-2.33c-.56 0-.9-.27-1.06-.81l-.35-2.71a12.13 12.13 0 0 1-3.25 2.77 8.28 8.28 0 0 1-4.23 1.06 7.31 7.31 0 0 1-6.14-2.9c-.73-.96-1.3-2.15-1.69-3.57a18.35 18.35 0 0 1 .07-9.48 11.29 11.29 0 0 1 1.89-3.7 8.7 8.7 0 0 1 7.06-3.34 7.96 7.96 0 0 1 6.12 2.62V15.59h3.91zM46.61 70.71V93H42.7V70.71h3.91zm.84-7c0 .39-.08.75-.24 1.09-.15.32-.35.61-.62.88-.25.25-.55.44-.9.59a2.67 2.67 0 0 1-2.16 0 2.9 2.9 0 0 1-1.45-1.47 2.67 2.67 0 0 1 0-2.16c.15-.35.35-.65.6-.9.25-.27.53-.47.85-.62a2.67 2.67 0 0 1 2.16 0c.35.15.65.35.9.62.27.25.47.55.62.9.16.34.24.7.24 1.08zm7.97 10.24c.49-.54 1-1.04 1.54-1.48a9.85 9.85 0 0 1 3.66-1.84 8.96 8.96 0 0 1 5.43.35c.94.4 1.72.97 2.33 1.71.63.74 1.11 1.62 1.43 2.67.32 1.04.49 2.19.49 3.45V93h-3.94V78.81c0-1.69-.4-3-1.17-3.92-.76-.93-1.93-1.4-3.5-1.4-1.15 0-2.24.27-3.25.83-1 .56-1.92 1.31-2.77 2.27V93h-3.94V70.71h2.35c.56 0 .9.28 1.04.82l.3 2.42zm57.7 3.3c0 2.36-.37 4.5-1.11 6.44a14.3 14.3 0 0 1-3.17 4.98c-1.37 1.37-3 2.45-4.93 3.2-1.9.76-4.02 1.13-6.33 1.13H85.8V61.47h11.77c2.31 0 4.42.39 6.33 1.15a13.8 13.8 0 0 1 8.1 8.18 17.75 17.75 0 0 1 1.12 6.45zm-4.37 0c0-1.94-.26-3.67-.8-5.2a10.94 10.94 0 0 0-2.23-3.87 9.57 9.57 0 0 0-3.53-2.42 12.23 12.23 0 0 0-4.61-.83h-7.5v24.62h7.5c1.7 0 3.24-.28 4.61-.84a9.7 9.7 0 0 0 3.53-2.4 10.94 10.94 0 0 0 2.24-3.87c.53-1.53.8-3.26.8-5.2zm19.8 5.72c-1.8.06-3.34.2-4.62.44-1.26.22-2.3.51-3.1.88-.8.36-1.37.8-1.74 1.3-.35.5-.53 1.05-.53 1.67 0 .58.1 1.1.3 1.52a3 3 0 0 0 .76 1.05c.34.27.73.46 1.17.6a6.13 6.13 0 0 0 1.45.17 7.28 7.28 0 0 0 3.5-.81 11.95 11.95 0 0 0 2.82-2.2v-4.62zm-12.65-9.11a12.73 12.73 0 0 1 3.98-2.66c1.43-.59 3-.88 4.73-.88 1.25 0 2.36.2 3.33.61a6.81 6.81 0 0 1 3.94 4.38c.33 1.04.5 2.19.5 3.43V93h-1.74a1.8 1.8 0 0 1-.88-.18c-.2-.13-.36-.38-.48-.74l-.44-2.12-1.72 1.46a9.48 9.48 0 0 1-3.74 1.7c-.69.15-1.46.23-2.3.23-.87 0-1.69-.12-2.45-.35a5.34 5.34 0 0 1-3.34-2.93 6.64 6.64 0 0 1-.49-2.64c0-.88.25-1.72.73-2.53a6.33 6.33 0 0 1 2.35-2.17c1.09-.63 2.5-1.15 4.25-1.54 1.75-.41 3.89-.65 6.42-.7v-1.75c0-1.73-.37-3.03-1.12-3.91-.75-.9-1.84-1.34-3.28-1.34-.97 0-1.78.12-2.44.37-.64.23-1.2.5-1.7.81l-1.23.82c-.33.23-.67.35-1 .35-.27 0-.5-.07-.69-.2a2.1 2.1 0 0 1-.48-.53l-.7-1.25zm27.67 19.5c-1.76 0-3.12-.5-4.07-1.48-.94-.98-1.41-2.4-1.41-4.25V74h-2.68a.9.9 0 0 1-.6-.2c-.16-.14-.24-.36-.24-.66v-1.56l3.65-.46.9-6.89c.05-.22.14-.4.29-.52a.88.88 0 0 1 .62-.22H142v7.67h6.44V74H142v13.38c0 .94.22 1.63.68 2.09.45.45 1.04.68 1.76.68a3.21 3.21 0 0 0 1.85-.53l.55-.35c.16-.12.3-.18.41-.18.2 0 .4.13.55.38l1.15 1.87a7.45 7.45 0 0 1-2.44 1.5 8.53 8.53 0 0 1-2.95.52zm19.68-10.4c-1.8.07-3.34.21-4.62.45-1.26.22-2.3.51-3.1.88-.8.36-1.37.8-1.74 1.3-.35.5-.53 1.05-.53 1.67 0 .58.1 1.1.3 1.52a2.9 2.9 0 0 0 .76 1.05c.34.27.73.46 1.17.6a6.13 6.13 0 0 0 1.45.17 7.3 7.3 0 0 0 3.5-.81 12.04 12.04 0 0 0 2.82-2.2v-4.62zm-12.65-9.1a12.72 12.72 0 0 1 3.99-2.66c1.42-.59 3-.88 4.72-.88 1.25 0 2.36.2 3.33.61a6.81 6.81 0 0 1 3.94 4.38c.33 1.04.5 2.19.5 3.43V93h-1.74a1.8 1.8 0 0 1-.88-.18c-.2-.13-.36-.38-.48-.74l-.44-2.12-1.72 1.46a9.48 9.48 0 0 1-3.74 1.7c-.69.15-1.46.23-2.3.23-.87 0-1.69-.12-2.45-.35a5.33 5.33 0 0 1-3.34-2.93 6.62 6.62 0 0 1-.49-2.64c0-.88.25-1.72.73-2.53a6.33 6.33 0 0 1 2.35-2.17c1.09-.63 2.5-1.15 4.25-1.54 1.74-.41 3.89-.65 6.42-.7v-1.75c0-1.73-.37-3.03-1.12-3.91-.75-.9-1.84-1.34-3.28-1.34-.97 0-1.78.12-2.44.37-.64.23-1.2.5-1.7.81l-1.22.82c-.34.23-.68.35-1.02.35-.26 0-.49-.07-.68-.2a1.88 1.88 0 0 1-.48-.53l-.7-1.25zM40.98 32.25c0 2.36-.38 4.53-1.12 6.51a14.26 14.26 0 0 1-8.1 8.4c-1.9.78-4.02 1.17-6.34 1.17-2.31 0-4.42-.39-6.33-1.17a14.31 14.31 0 0 1-8.08-8.4 18.29 18.29 0 0 1-1.12-6.51c0-2.36.38-4.53 1.12-6.5.75-1.97 1.8-3.67 3.17-5.1a14.32 14.32 0 0 1 4.9-3.34c1.92-.8 4.03-1.19 6.34-1.19 2.32 0 4.43.4 6.34 1.19 1.92.8 3.56 1.9 4.93 3.34a14.87 14.87 0 0 1 3.17 5.1 18.1 18.1 0 0 1 1.12 6.5zm-4.38 0c0-1.94-.26-3.68-.8-5.22a10.91 10.91 0 0 0-2.24-3.89 9.68 9.68 0 0 0-3.52-2.46 11.95 11.95 0 0 0-4.62-.86c-1.68 0-3.21.28-4.6.86a9.88 9.88 0 0 0-3.54 2.46 10.91 10.91 0 0 0-2.24 3.9c-.53 1.53-.8 3.27-.8 5.2 0 1.94.27 3.68.8 5.22a11.17 11.17 0 0 0 2.24 3.9 10.01 10.01 0 0 0 3.55 2.44c1.38.56 2.9.83 4.6.83s3.24-.27 4.61-.83a9.8 9.8 0 0 0 3.52-2.44 11.17 11.17 0 0 0 2.25-3.9c.53-1.54.8-3.28.8-5.21zm26.22-6.54V48H60.5c-.56 0-.9-.27-1.05-.81l-.31-2.4a12.45 12.45 0 0 1-3.26 2.6c-1.2.64-2.58.96-4.13.96-1.22 0-2.3-.2-3.24-.6a6.52 6.52 0 0 1-2.33-1.7 7.37 7.37 0 0 1-1.43-2.67c-.3-1.04-.46-2.2-.46-3.45V25.7h3.91v14.22c0 1.68.38 2.99 1.15 3.91.77.93 1.96 1.39 3.54 1.39 1.16 0 2.24-.27 3.23-.82a10.42 10.42 0 0 0 2.8-2.28V25.7h3.91zm8.61 4.47a9.94 9.94 0 0 1 2.6-3.56 5.64 5.64 0 0 1 3.76-1.3c.47 0 .92.05 1.34.15.44.1.83.27 1.17.49l-.3 2.92c-.09.37-.3.55-.66.55-.2 0-.5-.04-.9-.13a6.21 6.21 0 0 0-3.24.18 4.23 4.23 0 0 0-1.47.92c-.42.4-.81.9-1.17 1.5-.33.58-.64 1.26-.92 2.02V48H67.7V25.71h2.25c.42 0 .72.08.88.25.16.16.27.44.33.83l.26 3.39zm61.16-13.7L122.75 48h-3.82l-7.99-24.05a21.95 21.95 0 0 1-.42-1.58 38.36 38.36 0 0 1-.44 1.58L102.05 48h-3.83L88.4 16.47h3.54c.38 0 .7.1.95.29.26.2.43.43.5.73l6.52 21.9.28 1.28.29 1.46.3-1.46.38-1.27 7.41-21.91c.1-.25.26-.48.51-.69.27-.22.58-.33.95-.33h1.23c.38 0 .69.1.92.29a1.77 1.77 0 0 1 .53.73l7.4 21.9a28.4 28.4 0 0 1 .68 2.62 29.52 29.52 0 0 1 .52-2.61l6.54-21.91a1.31 1.31 0 0 1 .48-.7c.27-.21.58-.32.95-.32h3.32zm9.35 8.88c1.63 0 3.1.27 4.4.82a9.43 9.43 0 0 1 5.46 5.94c.5 1.4.74 2.98.74 4.73 0 1.76-.25 3.34-.74 4.75a9.43 9.43 0 0 1-5.46 5.92c-1.3.52-2.77.79-4.4.79-1.64 0-3.12-.27-4.44-.8a9.42 9.42 0 0 1-3.35-2.3c-.92-1-1.63-2.2-2.13-3.61-.49-1.41-.73-3-.73-4.75s.24-3.33.73-4.73c.5-1.43 1.2-2.64 2.13-3.63.93-1 2.04-1.77 3.35-2.31 1.32-.55 2.8-.82 4.44-.82zm0 19.89c2.2 0 3.84-.73 4.93-2.2 1.08-1.48 1.63-3.54 1.63-6.18 0-2.66-.55-4.72-1.63-6.2-1.09-1.49-2.73-2.23-4.93-2.23-1.12 0-2.09.2-2.93.57a5.71 5.71 0 0 0-2.06 1.65c-.55.72-.96 1.61-1.24 2.67-.26 1.04-.4 2.22-.4 3.54 0 2.64.55 4.7 1.64 6.18 1.1 1.47 2.76 2.2 4.99 2.2zm17.97-15.07a9.94 9.94 0 0 1 2.6-3.56 5.64 5.64 0 0 1 3.76-1.3c.47 0 .91.05 1.34.15.44.1.83.27 1.16.49l-.28 2.92c-.09.37-.31.55-.66.55-.2 0-.5-.04-.9-.13a6.2 6.2 0 0 0-3.24.18 4.23 4.23 0 0 0-1.47.92c-.43.4-.82.9-1.17 1.5a13.1 13.1 0 0 0-.92 2.02V48h-3.94V25.71h2.24c.43 0 .72.08.88.25.17.16.28.44.33.83l.27 3.39zm15.04-14.59V48h-3.92V15.6h3.92zm19.55 15.43a6.22 6.22 0 0 0-2.38-2.05 6.7 6.7 0 0 0-2.86-.6c-2.07 0-3.66.75-4.77 2.23-1.12 1.48-1.68 3.6-1.68 6.33 0 1.46.13 2.7.38 3.74a7.29 7.29 0 0 0 1.1 2.56 4.35 4.35 0 0 0 1.78 1.45c.7.3 1.5.46 2.4.46 1.29 0 2.41-.3 3.36-.88a9.6 9.6 0 0 0 2.67-2.49V31.02zm3.91-15.43V48h-2.33c-.56 0-.9-.27-1.06-.81l-.35-2.71a12.13 12.13 0 0 1-3.25 2.77 8.28 8.28 0 0 1-4.23 1.06 7.31 7.31 0 0 1-6.14-2.9c-.73-.96-1.3-2.15-1.69-3.57a18.35 18.35 0 0 1 .07-9.48 11.29 11.29 0 0 1 1.89-3.7 8.7 8.7 0 0 1 7.06-3.34 7.96 7.96 0 0 1 6.12 2.62V15.59h3.91zM46.61 70.71V93H42.7V70.71h3.91zm.84-7c0 .39-.08.75-.24 1.09-.15.32-.35.61-.62.88-.25.25-.55.44-.9.59a2.67 2.67 0 0 1-2.16 0 2.9 2.9 0 0 1-1.45-1.47 2.67 2.67 0 0 1 0-2.16c.15-.35.35-.65.6-.9.25-.27.53-.47.85-.62a2.67 2.67 0 0 1 2.16 0c.35.15.65.35.9.62.27.25.47.55.62.9.16.34.24.7.24 1.08zm7.97 10.24c.49-.54 1-1.04 1.54-1.48a9.85 9.85 0 0 1 3.66-1.84 8.96 8.96 0 0 1 5.43.35c.94.4 1.72.97 2.33 1.71.63.74 1.11 1.62 1.43 2.67.32 1.04.49 2.19.49 3.45V93h-3.94V78.81c0-1.69-.4-3-1.17-3.92-.76-.93-1.93-1.4-3.5-1.4-1.15 0-2.24.27-3.25.83-1 .56-1.92 1.31-2.77 2.27V93h-3.94V70.71h2.35c.56 0 .9.28 1.04.82l.3 2.42zm57.7 3.3c0 2.36-.37 4.5-1.11 6.44a14.3 14.3 0 0 1-3.17 4.98c-1.37 1.37-3 2.45-4.93 3.2-1.9.76-4.02 1.13-6.33 1.13H85.8V61.47h11.77c2.31 0 4.42.39 6.33 1.15a13.8 13.8 0 0 1 8.1 8.18 17.75 17.75 0 0 1 1.12 6.45zm-4.37 0c0-1.94-.26-3.67-.8-5.2a10.94 10.94 0 0 0-2.23-3.87 9.57 9.57 0 0 0-3.53-2.42 12.23 12.23 0 0 0-4.61-.83h-7.5v24.62h7.5c1.7 0 3.24-.28 4.61-.84a9.7 9.7 0 0 0 3.53-2.4 10.94 10.94 0 0 0 2.24-3.87c.53-1.53.8-3.26.8-5.2zm19.8 5.72c-1.8.06-3.34.2-4.62.44-1.26.22-2.3.51-3.1.88-.8.36-1.37.8-1.74 1.3-.35.5-.53 1.05-.53 1.67 0 .58.1 1.1.3 1.52a3 3 0 0 0 .76 1.05c.34.27.73.46 1.17.6a6.13 6.13 0 0 0 1.45.17 7.28 7.28 0 0 0 3.5-.81 11.95 11.95 0 0 0 2.82-2.2v-4.62zm-12.65-9.11a12.73 12.73 0 0 1 3.98-2.66c1.43-.59 3-.88 4.73-.88 1.25 0 2.36.2 3.33.61a6.81 6.81 0 0 1 3.94 4.38c.33 1.04.5 2.19.5 3.43V93h-1.74a1.8 1.8 0 0 1-.88-.18c-.2-.13-.36-.38-.48-.74l-.44-2.12-1.72 1.46a9.48 9.48 0 0 1-3.74 1.7c-.69.15-1.46.23-2.3.23-.87 0-1.69-.12-2.45-.35a5.34 5.34 0 0 1-3.34-2.93 6.64 6.64 0 0 1-.49-2.64c0-.88.25-1.72.73-2.53a6.33 6.33 0 0 1 2.35-2.17c1.09-.63 2.5-1.15 4.25-1.54 1.75-.41 3.89-.65 6.42-.7v-1.75c0-1.73-.37-3.03-1.12-3.91-.75-.9-1.84-1.34-3.28-1.34-.97 0-1.78.12-2.44.37-.64.23-1.2.5-1.7.81l-1.23.82c-.33.23-.67.35-1 .35-.27 0-.5-.07-.69-.2a2.1 2.1 0 0 1-.48-.53l-.7-1.25zm27.67 19.5c-1.76 0-3.12-.5-4.07-1.48-.94-.98-1.41-2.4-1.41-4.25V74h-2.68a.9.9 0 0 1-.6-.2c-.16-.14-.24-.36-.24-.66v-1.56l3.65-.46.9-6.89c.05-.22.14-.4.29-.52a.88.88 0 0 1 .62-.22H142v7.67h6.44V74H142v13.38c0 .94.22 1.63.68 2.09.45.45 1.04.68 1.76.68a3.21 3.21 0 0 0 1.85-.53l.55-.35c.16-.12.3-.18.41-.18.2 0 .4.13.55.38l1.15 1.87a7.45 7.45 0 0 1-2.44 1.5 8.53 8.53 0 0 1-2.95.52zm19.68-10.4c-1.8.07-3.34.21-4.62.45-1.26.22-2.3.51-3.1.88-.8.36-1.37.8-1.74 1.3-.35.5-.53 1.05-.53 1.67 0 .58.1 1.1.3 1.52a2.9 2.9 0 0 0 .76 1.05c.34.27.73.46 1.17.6a6.13 6.13 0 0 0 1.45.17 7.3 7.3 0 0 0 3.5-.81 12.04 12.04 0 0 0 2.82-2.2v-4.62zm-12.65-9.1a12.72 12.72 0 0 1 3.99-2.66c1.42-.59 3-.88 4.72-.88 1.25 0 2.36.2 3.33.61a6.81 6.81 0 0 1 3.94 4.38c.33 1.04.5 2.19.5 3.43V93h-1.74a1.8 1.8 0 0 1-.88-.18c-.2-.13-.36-.38-.48-.74l-.44-2.12-1.72 1.46a9.48 9.48 0 0 1-3.74 1.7c-.69.15-1.46.23-2.3.23-.87 0-1.69-.12-2.45-.35a5.33 5.33 0 0 1-3.34-2.93 6.62 6.62 0 0 1-.49-2.64c0-.88.25-1.72.73-2.53a6.33 6.33 0 0 1 2.35-2.17c1.09-.63 2.5-1.15 4.25-1.54 1.74-.41 3.89-.65 6.42-.7v-1.75c0-1.73-.37-3.03-1.12-3.91-.75-.9-1.84-1.34-3.28-1.34-.97 0-1.78.12-2.44.37-.64.23-1.2.5-1.7.81l-1.22.82c-.34.23-.68.35-1.02.35-.26 0-.49-.07-.68-.2a1.88 1.88 0 0 1-.48-.53l-.7-1.25zM40.98 32.25c0 2.36-.38 4.53-1.12 6.51a14.26 14.26 0 0 1-8.1 8.4c-1.9.78-4.02 1.17-6.34 1.17-2.31 0-4.42-.39-6.33-1.17a14.31 14.31 0 0 1-8.08-8.4 18.29 18.29 0 0 1-1.12-6.51c0-2.36.38-4.53 1.12-6.5.75-1.97 1.8-3.67 3.17-5.1a14.32 14.32 0 0 1 4.9-3.34c1.92-.8 4.03-1.19 6.34-1.19 2.32 0 4.43.4 6.34 1.19 1.92.8 3.56 1.9 4.93 3.34a14.87 14.87 0 0 1 3.17 5.1 18.1 18.1 0 0 1 1.12 6.5zm-4.38 0c0-1.94-.26-3.68-.8-5.22a10.91 10.91 0 0 0-2.24-3.89 9.68 9.68 0 0 0-3.52-2.46 11.95 11.95 0 0 0-4.62-.86c-1.68 0-3.21.28-4.6.86a9.88 9.88 0 0 0-3.54 2.46 10.91 10.91 0 0 0-2.24 3.9c-.53 1.53-.8 3.27-.8 5.2 0 1.94.27 3.68.8 5.22a11.17 11.17 0 0 0 2.24 3.9 10.01 10.01 0 0 0 3.55 2.44c1.38.56 2.9.83 4.6.83s3.24-.27 4.61-.83a9.8 9.8 0 0 0 3.52-2.44 11.17 11.17 0 0 0 2.25-3.9c.53-1.54.8-3.28.8-5.21zm26.22-6.54V48H60.5c-.56 0-.9-.27-1.05-.81l-.31-2.4a12.45 12.45 0 0 1-3.26 2.6c-1.2.64-2.58.96-4.13.96-1.22 0-2.3-.2-3.24-.6a6.52 6.52 0 0 1-2.33-1.7 7.37 7.37 0 0 1-1.43-2.67c-.3-1.04-.46-2.2-.46-3.45V25.7h3.91v14.22c0 1.68.38 2.99 1.15 3.91.77.93 1.96 1.39 3.54 1.39 1.16 0 2.24-.27 3.23-.82a10.42 10.42 0 0 0 2.8-2.28V25.7h3.91zm8.61 4.47a9.94 9.94 0 0 1 2.6-3.56 5.64 5.64 0 0 1 3.76-1.3c.47 0 .92.05 1.34.15.44.1.83.27 1.17.49l-.3 2.92c-.09.37-.3.55-.66.55-.2 0-.5-.04-.9-.13a6.21 6.21 0 0 0-3.24.18 4.23 4.23 0 0 0-1.47.92c-.42.4-.81.9-1.17 1.5-.33.58-.64 1.26-.92 2.02V48H67.7V25.71h2.25c.42 0 .72.08.88.25.16.16.27.44.33.83l.26 3.39zm61.16-13.7L122.75 48h-3.82l-7.99-24.05a21.95 21.95 0 0 1-.42-1.58 38.36 38.36 0 0 1-.44 1.58L102.05 48h-3.83L88.4 16.47h3.54c.38 0 .7.1.95.29.26.2.43.43.5.73l6.52 21.9.28 1.28.29 1.46.3-1.46.38-1.27 7.41-21.91c.1-.25.26-.48.51-.69.27-.22.58-.33.95-.33h1.23c.38 0 .69.1.92.29a1.77 1.77 0 0 1 .53.73l7.4 21.9a28.4 28.4 0 0 1 .68 2.62 29.52 29.52 0 0 1 .52-2.61l6.54-21.91a1.31 1.31 0 0 1 .48-.7c.27-.21.58-.32.95-.32h3.32zm9.35 8.88c1.63 0 3.1.27 4.4.82a9.43 9.43 0 0 1 5.46 5.94c.5 1.4.74 2.98.74 4.73 0 1.76-.25 3.34-.74 4.75a9.43 9.43 0 0 1-5.46 5.92c-1.3.52-2.77.79-4.4.79-1.64 0-3.12-.27-4.44-.8a9.42 9.42 0 0 1-3.35-2.3c-.92-1-1.63-2.2-2.13-3.61-.49-1.41-.73-3-.73-4.75s.24-3.33.73-4.73c.5-1.43 1.2-2.64 2.13-3.63.93-1 2.04-1.77 3.35-2.31 1.32-.55 2.8-.82 4.44-.82zm0 19.89c2.2 0 3.84-.73 4.93-2.2 1.08-1.48 1.63-3.54 1.63-6.18 0-2.66-.55-4.72-1.63-6.2-1.09-1.49-2.73-2.23-4.93-2.23-1.12 0-2.09.2-2.93.57a5.71 5.71 0 0 0-2.06 1.65c-.55.72-.96 1.61-1.24 2.67-.26 1.04-.4 2.22-.4 3.54 0 2.64.55 4.7 1.64 6.18 1.1 1.47 2.76 2.2 4.99 2.2zm17.97-15.07a9.94 9.94 0 0 1 2.6-3.56 5.64 5.64 0 0 1 3.76-1.3c.47 0 .91.05 1.34.15.44.1.83.27 1.16.49l-.28 2.92c-.09.37-.31.55-.66.55-.2 0-.5-.04-.9-.13a6.2 6.2 0 0 0-3.24.18 4.23 4.23 0 0 0-1.47.92c-.43.4-.82.9-1.17 1.5a13.1 13.1 0 0 0-.92 2.02V48h-3.94V25.71h2.24c.43 0 .72.08.88.25.17.16.28.44.33.83l.27 3.39zm15.04-14.59V48h-3.92V15.6h3.92zm19.55 15.43a6.22 6.22 0 0 0-2.38-2.05 6.7 6.7 0 0 0-2.86-.6c-2.07 0-3.66.75-4.77 2.23-1.12 1.48-1.68 3.6-1.68 6.33 0 1.46.13 2.7.38 3.74a7.29 7.29 0 0 0 1.1 2.56 4.35 4.35 0 0 0 1.78 1.45c.7.3 1.5.46 2.4.46 1.29 0 2.41-.3 3.36-.88a9.6 9.6 0 0 0 2.67-2.49V31.02zm3.91-15.43V48h-2.33c-.56 0-.9-.27-1.06-.81l-.35-2.71a12.13 12.13 0 0 1-3.25 2.77 8.28 8.28 0 0 1-4.23 1.06 7.31 7.31 0 0 1-6.14-2.9c-.73-.96-1.3-2.15-1.69-3.57a18.35 18.35 0 0 1 .07-9.48 11.29 11.29 0 0 1 1.89-3.7 8.7 8.7 0 0 1 7.06-3.34 7.96 7.96 0 0 1 6.12 2.62V15.59h3.91zM46.61 70.71V93H42.7V70.71h3.91zm.84-7c0 .39-.08.75-.24 1.09-.15.32-.35.61-.62.88-.25.25-.55.44-.9.59a2.67 2.67 0 0 1-2.16 0 2.9 2.9 0 0 1-1.45-1.47 2.67 2.67 0 0 1 0-2.16c.15-.35.35-.65.6-.9.25-.27.53-.47.85-.62a2.67 2.67 0 0 1 2.16 0c.35.15.65.35.9.62.27.25.47.55.62.9.16.34.24.7.24 1.08zm7.97 10.24c.49-.54 1-1.04 1.54-1.48a9.85 9.85 0 0 1 3.66-1.84 8.96 8.96 0 0 1 5.43.35c.94.4 1.72.97 2.33 1.71.63.74 1.11 1.62 1.43 2.67.32 1.04.49 2.19.49 3.45V93h-3.94V78.81c0-1.69-.4-3-1.17-3.92-.76-.93-1.93-1.4-3.5-1.4-1.15 0-2.24.27-3.25.83-1 .56-1.92 1.31-2.77 2.27V93h-3.94V70.71h2.35c.56 0 .9.28 1.04.82l.3 2.42zm57.7 3.3c0 2.36-.37 4.5-1.11 6.44a14.3 14.3 0 0 1-3.17 4.98c-1.37 1.37-3 2.45-4.93 3.2-1.9.76-4.02 1.13-6.33 1.13H85.8V61.47h11.77c2.31 0 4.42.39 6.33 1.15a13.8 13.8 0 0 1 8.1 8.18 17.75 17.75 0 0 1 1.12 6.45zm-4.37 0c0-1.94-.26-3.67-.8-5.2a10.94 10.94 0 0 0-2.23-3.87 9.57 9.57 0 0 0-3.53-2.42 12.23 12.23 0 0 0-4.61-.83h-7.5v24.62h7.5c1.7 0 3.24-.28 4.61-.84a9.7 9.7 0 0 0 3.53-2.4 10.94 10.94 0 0 0 2.24-3.87c.53-1.53.8-3.26.8-5.2zm19.8 5.72c-1.8.06-3.34.2-4.62.44-1.26.22-2.3.51-3.1.88-.8.36-1.37.8-1.74 1.3-.35.5-.53 1.05-.53 1.67 0 .58.1 1.1.3 1.52a3 3 0 0 0 .76 1.05c.34.27.73.46 1.17.6a6.13 6.13 0 0 0 1.45.17 7.28 7.28 0 0 0 3.5-.81 11.95 11.95 0 0 0 2.82-2.2v-4.62zm-12.65-9.11a12.73 12.73 0 0 1 3.98-2.66c1.43-.59 3-.88 4.73-.88 1.25 0 2.36.2 3.33.61a6.81 6.81 0 0 1 3.94 4.38c.33 1.04.5 2.19.5 3.43V93h-1.74a1.8 1.8 0 0 1-.88-.18c-.2-.13-.36-.38-.48-.74l-.44-2.12-1.72 1.46a9.48 9.48 0 0 1-3.74 1.7c-.69.15-1.46.23-2.3.23-.87 0-1.69-.12-2.45-.35a5.34 5.34 0 0 1-3.34-2.93 6.64 6.64 0 0 1-.49-2.64c0-.88.25-1.72.73-2.53a6.33 6.33 0 0 1 2.35-2.17c1.09-.63 2.5-1.15 4.25-1.54 1.75-.41 3.89-.65 6.42-.7v-1.75c0-1.73-.37-3.03-1.12-3.91-.75-.9-1.84-1.34-3.28-1.34-.97 0-1.78.12-2.44.37-.64.23-1.2.5-1.7.81l-1.23.82c-.33.23-.67.35-1 .35-.27 0-.5-.07-.69-.2a2.1 2.1 0 0 1-.48-.53l-.7-1.25zm27.67 19.5c-1.76 0-3.12-.5-4.07-1.48-.94-.98-1.41-2.4-1.41-4.25V74h-2.68a.9.9 0 0 1-.6-.2c-.16-.14-.24-.36-.24-.66v-1.56l3.65-.46.9-6.89c.05-.22.14-.4.29-.52a.88.88 0 0 1 .62-.22H142v7.67h6.44V74H142v13.38c0 .94.22 1.63.68 2.09.45.45 1.04.68 1.76.68a3.21 3.21 0 0 0 1.85-.53l.55-.35c.16-.12.3-.18.41-.18.2 0 .4.13.55.38l1.15 1.87a7.45 7.45 0 0 1-2.44 1.5 8.53 8.53 0 0 1-2.95.52zm19.68-10.4c-1.8.07-3.34.21-4.62.45-1.26.22-2.3.51-3.1.88-.8.36-1.37.8-1.74 1.3-.35.5-.53 1.05-.53 1.67 0 .58.1 1.1.3 1.52a2.9 2.9 0 0 0 .76 1.05c.34.27.73.46 1.17.6a6.13 6.13 0 0 0 1.45.17 7.3 7.3 0 0 0 3.5-.81 12.04 12.04 0 0 0 2.82-2.2v-4.62zm-12.65-9.1a12.72 12.72 0 0 1 3.99-2.66c1.42-.59 3-.88 4.72-.88 1.25 0 2.36.2 3.33.61a6.81 6.81 0 0 1 3.94 4.38c.33 1.04.5 2.19.5 3.43V93h-1.74a1.8 1.8 0 0 1-.88-.18c-.2-.13-.36-.38-.48-.74l-.44-2.12-1.72 1.46a9.48 9.48 0 0 1-3.74 1.7c-.69.15-1.46.23-2.3.23-.87 0-1.69-.12-2.45-.35a5.33 5.33 0 0 1-3.34-2.93 6.62 6.62 0 0 1-.49-2.64c0-.88.25-1.72.73-2.53a6.33 6.33 0 0 1 2.35-2.17c1.09-.63 2.5-1.15 4.25-1.54 1.74-.41 3.89-.65 6.42-.7v-1.75c0-1.73-.37-3.03-1.12-3.91-.75-.9-1.84-1.34-3.28-1.34-.97 0-1.78.12-2.44.37-.64.23-1.2.5-1.7.81l-1.22.82c-.34.23-.68.35-1.02.35-.26 0-.49-.07-.68-.2a1.88 1.88 0 0 1-.48-.53l-.7-1.25z"
    fill="#fff"
  />
  <path fill="#D42B21" d="M0 106.79h210V120H0z" />
</g>
<defs>
  <clipPath id="clip0"><path fill="#fff" d="M0 0h210v120H0z" /></clipPath>
</defs>
</svg></g><a href="http://localhost:3030/grapher/cumulative-space-visits?country=OWID_WRL~USA~JPN~RUS" style="font-family:&quot;Playfair Display&quot;, Georgia, &quot;Times New Roman&quot;, serif" target="_blank" rel="noopener"><text font-size="25.20" x="15.0" y="36.9" fill="#555"><tspan x="15" y="36.924">Cumulative number of human visits to space, 1961 to 2021</tspan></text></a><text font-size="14.40" x="15.0" y="58.2" fill="#666"><tspan x="15" y="58.168000000000006">For individuals who went to space multiple times, each visit is counted individually.</tspan></text></g><g class="LineChart"><defs><clipPath id="boundsClip-1"><rect x="50.824" y="67.48" width="840" height="472.79999999999995"></rect></clipPath></defs><rect x="15" y="77.48" width="820" height="452.79999999999995" fill="transparent"></rect><g class="DualAxisView"><g class="HorizontalAxis"><line x1="60.8" y1="509.08" x2="60.8" y2="514.0799999999999" stroke="#999"></line><line x1="718.6" y1="509.08" x2="718.6" y2="514.0799999999999" stroke="#999"></line><line x1="159.5" y1="509.08" x2="159.5" y2="514.0799999999999" stroke="#999"></line><line x1="269.1" y1="509.08" x2="269.1" y2="514.0799999999999" stroke="#999"></line><line x1="378.7" y1="509.08" x2="378.7" y2="514.0799999999999" stroke="#999"></line><line x1="488.4" y1="509.08" x2="488.4" y2="514.0799999999999" stroke="#999"></line><line x1="598" y1="509.08" x2="598" y2="514.0799999999999" stroke="#999"></line><text x="60.824" y="530.28" fill="#666" text-anchor="start" font-size="16.2">1961</text><text x="718.595" y="530.28" fill="#666" text-anchor="end" font-size="16.2">2021</text><text x="159.5" y="530.28" fill="#666" text-anchor="middle" font-size="16.2">1970</text><text x="269.1" y="530.28" fill="#666" text-anchor="middle" font-size="16.2">1980</text><text x="378.7" y="530.28" fill="#666" text-anchor="middle" font-size="16.2">1990</text><text x="488.4" y="530.28" fill="#666" text-anchor="middle" font-size="16.2">2000</text><text x="598" y="530.28" fill="#666" text-anchor="middle" font-size="16.2">2010</text></g><g class="VerticalAxis"><text x="55.82" y="509.1" dy=".32em" text-anchor="end" fill="#666" font-size="16.2">0</text><text x="55.82" y="442.4" dy=".32em" text-anchor="end" fill="#666" font-size="16.2">200</text><text x="55.82" y="375.7" dy=".32em" text-anchor="end" fill="#666" font-size="16.2">400</text><text x="55.82" y="309" dy=".32em" text-anchor="end" fill="#666" font-size="16.2">600</text><text x="55.82" y="242.2" dy=".32em" text-anchor="end" fill="#666" font-size="16.2">800</text><text x="55.82" y="175.5" dy=".32em" text-anchor="end" fill="#666" font-size="16.2">1,000</text><text x="55.82" y="108.8" dy=".32em" text-anchor="end" fill="#666" font-size="16.2">1,200</text></g><g class="AxisGridLines horizontalLines"><line x1="60.82" y1="509.1" x2="718.60" y2="509.1" stroke="#999"></line><line x1="60.82" y1="442.4" x2="718.60" y2="442.4" stroke="#ddd" stroke-dasharray="3,2"></line><line x1="60.82" y1="375.7" x2="718.60" y2="375.7" stroke="#ddd" stroke-dasharray="3,2"></line><line x1="60.82" y1="309" x2="718.60" y2="309" stroke="#ddd" stroke-dasharray="3,2"></line><line x1="60.82" y1="242.2" x2="718.60" y2="242.2" stroke="#ddd" stroke-dasharray="3,2"></line><line x1="60.82" y1="175.5" x2="718.60" y2="175.5" stroke="#ddd" stroke-dasharray="3,2"></line><line x1="60.82" y1="108.8" x2="718.60" y2="108.8" stroke="#ddd" stroke-dasharray="3,2"></line></g></g><g clip-path="url(#boundsClip-1)"><g class="LineLabels" style="cursor:default"><g class="legendMark"><rect x="718.595" y="77.48" width="70.235" height="13.5" fill="#fff" opacity="0"></rect><text font-size="13.50" font-weight="400" x="722.6" y="89.2" fill="#00847e"><tspan x="722.595" y="89.22500000000001">World</tspan></text></g><g class="legendMark"><rect x="718.595" y="213.85" width="116.405" height="13.5" fill="#fff" opacity="0"></rect><text font-size="13.50" font-weight="400" x="722.6" y="225.6" fill="#b13507"><tspan x="722.595" y="225.595">United States</tspan></text></g><g class="legendMark"><rect x="718.595" y="411.25" width="76.31" height="13.5" fill="#fff" opacity="0"></rect><text font-size="13.50" font-weight="400" x="722.6" y="423.0" fill="#3c4e66"><tspan x="722.595" y="422.995">Russia</tspan></text></g><g class="legendMark"><rect x="718.595" y="495.35" width="71.99000000000001" height="13.5" fill="#fff" opacity="0"></rect><text font-size="13.50" font-weight="400" x="722.6" y="507.1" fill="#6d3e91"><tspan x="722.595" y="507.095">Japan</tspan></text></g></g><g class="Lines"><rect x="61" y="77" width="658" height="432" fill="rgba(255,255,255,0)" opacity="0"></rect><g><path stroke-linecap="round" stroke-linejoin="round" stroke="#ddd" d="M400.7 508.7L422.6 508.4L444.5 508.1L455.5 507.7L466.4 507.4L488.4 506.7L543.2 506.4L576.1 505.7L587 505.1L598 504.7L609 504.4L619.9 504.1L630.9 503.7L652.8 503.4L663.8 503.1L674.7 502.7L707.6 502.4L718.6 502.1" fill="none" stroke-width="1"></path></g><g><path stroke-linecap="round" stroke-linejoin="round" stroke="#ddd" d="M60.8 507.7L71.8 506.1L82.7 504.4L93.7 503.4L104.7 499.4L115.6 496.1L126.6 495.7L137.6 493.4L148.5 485.7L159.5 484.1L170.5 480.1L181.4 478.1L192.4 473.7L203.3 471.7L214.3 468.1L225.3 466.1L236.2 464.1L247.2 460.7L258.2 459.4L269.1 455L280.1 451.7L291 446.7L302 438.4L313 426L323.9 405L334.9 401L345.9 398.3L356.8 392.3L367.8 383.3L378.7 370.7L389.7 356.7L400.7 337.3L411.6 321.6L422.6 305L433.6 288.9L444.5 272.9L455.5 253.6L466.4 240.9L477.4 233.6L488.4 221.2L499.3 206.6L510.3 193.2L521.3 188.9L532.2 185.9L543.2 180.9L554.2 172.2L565.1 163.5L576.1 151.2L587 135.8L598 125.5L609 116.2L619.9 111.2L630.9 106.2L641.9 102.2L652.8 98.2L663.8 93.5L674.7 89.8L685.7 86.8L696.7 83.8L707.6 79.8L718.6 77.5" fill="none" stroke-width="1"></path></g><g><path stroke-linecap="round" stroke-linejoin="round" stroke="#ddd" d="M60.8 508.4L71.8 507.4L82.7 506.4L104.7 503.1L115.6 499.7L137.6 497.7L148.5 493.7L159.5 492.7L170.5 490.7L181.4 488.7L192.4 485.7L214.3 484.7L280.1 483.4L291 480.7L302 474.4L313 465.4L323.9 448L334.9 444.7L356.8 441.4L367.8 433L378.7 422.4L389.7 410.7L400.7 395.7L411.6 383L422.6 370L433.6 357.3L444.5 345.3L455.5 330.6L466.4 321.6L477.4 317.3L488.4 309L499.3 297.9L510.3 288.3L521.3 285.9L532.2 284.3L543.2 281.3L554.2 274.9L565.1 268.6L576.1 259.9L587 248.6L598 240.9L609 234.6L619.9 233.2L630.9 231.9L641.9 230.6L652.8 229.6L663.8 228.2L674.7 226.6L685.7 225.2L696.7 223.9L707.6 221.6L718.6 220.6" fill="none" stroke-width="1"></path></g><g><path stroke-linecap="round" stroke-linejoin="round" stroke="#ddd" d="M60.8 508.4L71.8 507.7L82.7 507.1L93.7 506.1L104.7 505.4L126.6 505.1L137.6 504.7L148.5 501.1L159.5 500.4L170.5 498.4L192.4 497.1L203.3 495.1L214.3 492.4L225.3 490.4L236.2 488.4L247.2 486.1L258.2 485.1L269.1 481.7L280.1 480.4L291 478.4L302 476.7L313 474.1L323.9 472.4L334.9 471.7L345.9 469.4L356.8 467.7L367.8 467.1L378.7 465.1L389.7 463.7L400.7 462.4L411.6 461.1L422.6 458.7L433.6 456.4L444.5 455L455.5 453L466.4 451L477.4 450.4L488.4 448L499.3 445.7L510.3 443.4L521.3 442.7L532.2 441.7L543.2 441L554.2 440.4L565.1 439.4L576.1 438.4L587 437L598 435L609 433L619.9 431L630.9 429L641.9 427L652.8 425.4L663.8 423.4L674.7 422L685.7 421L696.7 420L707.6 418.7L718.6 418" fill="none" stroke-width="1"></path></g><g><path fill="none" stroke-linecap="butt" stroke-linejoin="round" stroke="#fff" stroke-width="2.5" d="M400.7 508.7L422.6 508.4L444.5 508.1L455.5 507.7L466.4 507.4L488.4 506.7L543.2 506.4L576.1 505.7L587 505.1L598 504.7L609 504.4L619.9 504.1L630.9 503.7L652.8 503.4L663.8 503.1L674.7 502.7L707.6 502.4L718.6 502.1"></path><polyline points="400.70,508.70 422.60,508.40 444.50,508.10 455.50,507.70 466.40,507.40 488.40,506.70 543.20,506.40 576.10,505.70 587.00,505.10 598.00,504.70 609.00,504.40 619.90,504.10 630.90,503.70 652.80,503.40 663.80,503.10 674.70,502.70 707.60,502.40 718.60,502.10" stroke-linejoin="round" stroke-width="1.5" stroke="#6D3E91" fill="none" stroke-linecap="butt"></polyline><g><circle cx="400.7" cy="508.7" r="1.8" fill="#6D3E91"></circle><circle cx="422.6" cy="508.4" r="1.8" fill="#6D3E91"></circle><circle cx="444.5" cy="508.1" r="1.8" fill="#6D3E91"></circle><circle cx="455.5" cy="507.7" r="1.8" fill="#6D3E91"></circle><circle cx="466.4" cy="507.4" r="1.8" fill="#6D3E91"></circle><circle cx="488.4" cy="506.7" r="1.8" fill="#6D3E91"></circle><circle cx="543.2" cy="506.4" r="1.8" fill="#6D3E91"></circle><circle cx="576.1" cy="505.7" r="1.8" fill="#6D3E91"></circle><circle cx="587" cy="505.1" r="1.8" fill="#6D3E91"></circle><circle cx="598" cy="504.7" r="1.8" fill="#6D3E91"></circle><circle cx="609" cy="504.4" r="1.8" fill="#6D3E91"></circle><circle cx="619.9" cy="504.1" r="1.8" fill="#6D3E91"></circle><circle cx="630.9" cy="503.7" r="1.8" fill="#6D3E91"></circle><circle cx="652.8" cy="503.4" r="1.8" fill="#6D3E91"></circle><circle cx="663.8" cy="503.1" r="1.8" fill="#6D3E91"></circle><circle cx="674.7" cy="502.7" r="1.8" fill="#6D3E91"></circle><circle cx="707.6" cy="502.4" r="1.8" fill="#6D3E91"></circle><circle cx="718.6" cy="502.1" r="1.8" fill="#6D3E91"></circle></g></g><g><path fill="none" stroke-linecap="butt" stroke-linejoin="round" stroke="#fff" stroke-width="2.5" d="M60.8 507.7L71.8 506.1L82.7 504.4L93.7 503.4L104.7 499.4L115.6 496.1L126.6 495.7L137.6 493.4L148.5 485.7L159.5 484.1L170.5 480.1L181.4 478.1L192.4 473.7L203.3 471.7L214.3 468.1L225.3 466.1L236.2 464.1L247.2 460.7L258.2 459.4L269.1 455L280.1 451.7L291 446.7L302 438.4L313 426L323.9 405L334.9 401L345.9 398.3L356.8 392.3L367.8 383.3L378.7 370.7L389.7 356.7L400.7 337.3L411.6 321.6L422.6 305L433.6 288.9L444.5 272.9L455.5 253.6L466.4 240.9L477.4 233.6L488.4 221.2L499.3 206.6L510.3 193.2L521.3 188.9L532.2 185.9L543.2 180.9L554.2 172.2L565.1 163.5L576.1 151.2L587 135.8L598 125.5L609 116.2L619.9 111.2L630.9 106.2L641.9 102.2L652.8 98.2L663.8 93.5L674.7 89.8L685.7 86.8L696.7 83.8L707.6 79.8L718.6 77.5"></path><polyline points="60.80,507.70 71.80,506.10 82.70,504.40 93.70,503.40 104.70,499.40 115.60,496.10 126.60,495.70 137.60,493.40 148.50,485.70 159.50,484.10 170.50,480.10 181.40,478.10 192.40,473.70 203.30,471.70 214.30,468.10 225.30,466.10 236.20,464.10 247.20,460.70 258.20,459.40 269.10,455.00 280.10,451.70 291.00,446.70 302.00,438.40 313.00,426.00 323.90,405.00 334.90,401.00 345.90,398.30 356.80,392.30 367.80,383.30 378.70,370.70 389.70,356.70 400.70,337.30 411.60,321.60 422.60,305.00 433.60,288.90 444.50,272.90 455.50,253.60 466.40,240.90 477.40,233.60 488.40,221.20 499.30,206.60 510.30,193.20 521.30,188.90 532.20,185.90 543.20,180.90 554.20,172.20 565.10,163.50 576.10,151.20 587.00,135.80 598.00,125.50 609.00,116.20 619.90,111.20 630.90,106.20 641.90,102.20 652.80,98.20 663.80,93.50 674.70,89.80 685.70,86.80 696.70,83.80 707.60,79.80 718.60,77.50" stroke-linejoin="round" stroke-width="1.5" stroke="#00847E" fill="none" stroke-linecap="butt"></polyline><g><circle cx="60.8" cy="507.7" r="1.8" fill="#00847E"></circle><circle cx="71.8" cy="506.1" r="1.8" fill="#00847E"></circle><circle cx="82.7" cy="504.4" r="1.8" fill="#00847E"></circle><circle cx="93.7" cy="503.4" r="1.8" fill="#00847E"></circle><circle cx="104.7" cy="499.4" r="1.8" fill="#00847E"></circle><circle cx="115.6" cy="496.1" r="1.8" fill="#00847E"></circle><circle cx="126.6" cy="495.7" r="1.8" fill="#00847E"></circle><circle cx="137.6" cy="493.4" r="1.8" fill="#00847E"></circle><circle cx="148.5" cy="485.7" r="1.8" fill="#00847E"></circle><circle cx="159.5" cy="484.1" r="1.8" fill="#00847E"></circle><circle cx="170.5" cy="480.1" r="1.8" fill="#00847E"></circle><circle cx="181.4" cy="478.1" r="1.8" fill="#00847E"></circle><circle cx="192.4" cy="473.7" r="1.8" fill="#00847E"></circle><circle cx="203.3" cy="471.7" r="1.8" fill="#00847E"></circle><circle cx="214.3" cy="468.1" r="1.8" fill="#00847E"></circle><circle cx="225.3" cy="466.1" r="1.8" fill="#00847E"></circle><circle cx="236.2" cy="464.1" r="1.8" fill="#00847E"></circle><circle cx="247.2" cy="460.7" r="1.8" fill="#00847E"></circle><circle cx="258.2" cy="459.4" r="1.8" fill="#00847E"></circle><circle cx="269.1" cy="455" r="1.8" fill="#00847E"></circle><circle cx="280.1" cy="451.7" r="1.8" fill="#00847E"></circle><circle cx="291" cy="446.7" r="1.8" fill="#00847E"></circle><circle cx="302" cy="438.4" r="1.8" fill="#00847E"></circle><circle cx="313" cy="426" r="1.8" fill="#00847E"></circle><circle cx="323.9" cy="405" r="1.8" fill="#00847E"></circle><circle cx="334.9" cy="401" r="1.8" fill="#00847E"></circle><circle cx="345.9" cy="398.3" r="1.8" fill="#00847E"></circle><circle cx="356.8" cy="392.3" r="1.8" fill="#00847E"></circle><circle cx="367.8" cy="383.3" r="1.8" fill="#00847E"></circle><circle cx="378.7" cy="370.7" r="1.8" fill="#00847E"></circle><circle cx="389.7" cy="356.7" r="1.8" fill="#00847E"></circle><circle cx="400.7" cy="337.3" r="1.8" fill="#00847E"></circle><circle cx="411.6" cy="321.6" r="1.8" fill="#00847E"></circle><circle cx="422.6" cy="305" r="1.8" fill="#00847E"></circle><circle cx="433.6" cy="288.9" r="1.8" fill="#00847E"></circle><circle cx="444.5" cy="272.9" r="1.8" fill="#00847E"></circle><circle cx="455.5" cy="253.6" r="1.8" fill="#00847E"></circle><circle cx="466.4" cy="240.9" r="1.8" fill="#00847E"></circle><circle cx="477.4" cy="233.6" r="1.8" fill="#00847E"></circle><circle cx="488.4" cy="221.2" r="1.8" fill="#00847E"></circle><circle cx="499.3" cy="206.6" r="1.8" fill="#00847E"></circle><circle cx="510.3" cy="193.2" r="1.8" fill="#00847E"></circle><circle cx="521.3" cy="188.9" r="1.8" fill="#00847E"></circle><circle cx="532.2" cy="185.9" r="1.8" fill="#00847E"></circle><circle cx="543.2" cy="180.9" r="1.8" fill="#00847E"></circle><circle cx="554.2" cy="172.2" r="1.8" fill="#00847E"></circle><circle cx="565.1" cy="163.5" r="1.8" fill="#00847E"></circle><circle cx="576.1" cy="151.2" r="1.8" fill="#00847E"></circle><circle cx="587" cy="135.8" r="1.8" fill="#00847E"></circle><circle cx="598" cy="125.5" r="1.8" fill="#00847E"></circle><circle cx="609" cy="116.2" r="1.8" fill="#00847E"></circle><circle cx="619.9" cy="111.2" r="1.8" fill="#00847E"></circle><circle cx="630.9" cy="106.2" r="1.8" fill="#00847E"></circle><circle cx="641.9" cy="102.2" r="1.8" fill="#00847E"></circle><circle cx="652.8" cy="98.2" r="1.8" fill="#00847E"></circle><circle cx="663.8" cy="93.5" r="1.8" fill="#00847E"></circle><circle cx="674.7" cy="89.8" r="1.8" fill="#00847E"></circle><circle cx="685.7" cy="86.8" r="1.8" fill="#00847E"></circle><circle cx="696.7" cy="83.8" r="1.8" fill="#00847E"></circle><circle cx="707.6" cy="79.8" r="1.8" fill="#00847E"></circle><circle cx="718.6" cy="77.5" r="1.8" fill="#00847E"></circle></g></g><g><path fill="none" stroke-linecap="butt" stroke-linejoin="round" stroke="#fff" stroke-width="2.5" d="M60.8 508.4L71.8 507.4L82.7 506.4L104.7 503.1L115.6 499.7L137.6 497.7L148.5 493.7L159.5 492.7L170.5 490.7L181.4 488.7L192.4 485.7L214.3 484.7L280.1 483.4L291 480.7L302 474.4L313 465.4L323.9 448L334.9 444.7L356.8 441.4L367.8 433L378.7 422.4L389.7 410.7L400.7 395.7L411.6 383L422.6 370L433.6 357.3L444.5 345.3L455.5 330.6L466.4 321.6L477.4 317.3L488.4 309L499.3 297.9L510.3 288.3L521.3 285.9L532.2 284.3L543.2 281.3L554.2 274.9L565.1 268.6L576.1 259.9L587 248.6L598 240.9L609 234.6L619.9 233.2L630.9 231.9L641.9 230.6L652.8 229.6L663.8 228.2L674.7 226.6L685.7 225.2L696.7 223.9L707.6 221.6L718.6 220.6"></path><polyline points="60.80,508.40 71.80,507.40 82.70,506.40 104.70,503.10 115.60,499.70 137.60,497.70 148.50,493.70 159.50,492.70 170.50,490.70 181.40,488.70 192.40,485.70 214.30,484.70 280.10,483.40 291.00,480.70 302.00,474.40 313.00,465.40 323.90,448.00 334.90,444.70 356.80,441.40 367.80,433.00 378.70,422.40 389.70,410.70 400.70,395.70 411.60,383.00 422.60,370.00 433.60,357.30 444.50,345.30 455.50,330.60 466.40,321.60 477.40,317.30 488.40,309.00 499.30,297.90 510.30,288.30 521.30,285.90 532.20,284.30 543.20,281.30 554.20,274.90 565.10,268.60 576.10,259.90 587.00,248.60 598.00,240.90 609.00,234.60 619.90,233.20 630.90,231.90 641.90,230.60 652.80,229.60 663.80,228.20 674.70,226.60 685.70,225.20 696.70,223.90 707.60,221.60 718.60,220.60" stroke-linejoin="round" stroke-width="1.5" stroke="#B13507" fill="none" stroke-linecap="butt"></polyline><g><circle cx="60.8" cy="508.4" r="1.8" fill="#B13507"></circle><circle cx="71.8" cy="507.4" r="1.8" fill="#B13507"></circle><circle cx="82.7" cy="506.4" r="1.8" fill="#B13507"></circle><circle cx="104.7" cy="503.1" r="1.8" fill="#B13507"></circle><circle cx="115.6" cy="499.7" r="1.8" fill="#B13507"></circle><circle cx="137.6" cy="497.7" r="1.8" fill="#B13507"></circle><circle cx="148.5" cy="493.7" r="1.8" fill="#B13507"></circle><circle cx="159.5" cy="492.7" r="1.8" fill="#B13507"></circle><circle cx="170.5" cy="490.7" r="1.8" fill="#B13507"></circle><circle cx="181.4" cy="488.7" r="1.8" fill="#B13507"></circle><circle cx="192.4" cy="485.7" r="1.8" fill="#B13507"></circle><circle cx="214.3" cy="484.7" r="1.8" fill="#B13507"></circle><circle cx="280.1" cy="483.4" r="1.8" fill="#B13507"></circle><circle cx="291" cy="480.7" r="1.8" fill="#B13507"></circle><circle cx="302" cy="474.4" r="1.8" fill="#B13507"></circle><circle cx="313" cy="465.4" r="1.8" fill="#B13507"></circle><circle cx="323.9" cy="448" r="1.8" fill="#B13507"></circle><circle cx="334.9" cy="444.7" r="1.8" fill="#B13507"></circle><circle cx="356.8" cy="441.4" r="1.8" fill="#B13507"></circle><circle cx="367.8" cy="433" r="1.8" fill="#B13507"></circle><circle cx="378.7" cy="422.4" r="1.8" fill="#B13507"></circle><circle cx="389.7" cy="410.7" r="1.8" fill="#B13507"></circle><circle cx="400.7" cy="395.7" r="1.8" fill="#B13507"></circle><circle cx="411.6" cy="383" r="1.8" fill="#B13507"></circle><circle cx="422.6" cy="370" r="1.8" fill="#B13507"></circle><circle cx="433.6" cy="357.3" r="1.8" fill="#B13507"></circle><circle cx="444.5" cy="345.3" r="1.8" fill="#B13507"></circle><circle cx="455.5" cy="330.6" r="1.8" fill="#B13507"></circle><circle cx="466.4" cy="321.6" r="1.8" fill="#B13507"></circle><circle cx="477.4" cy="317.3" r="1.8" fill="#B13507"></circle><circle cx="488.4" cy="309" r="1.8" fill="#B13507"></circle><circle cx="499.3" cy="297.9" r="1.8" fill="#B13507"></circle><circle cx="510.3" cy="288.3" r="1.8" fill="#B13507"></circle><circle cx="521.3" cy="285.9" r="1.8" fill="#B13507"></circle><circle cx="532.2" cy="284.3" r="1.8" fill="#B13507"></circle><circle cx="543.2" cy="281.3" r="1.8" fill="#B13507"></circle><circle cx="554.2" cy="274.9" r="1.8" fill="#B13507"></circle><circle cx="565.1" cy="268.6" r="1.8" fill="#B13507"></circle><circle cx="576.1" cy="259.9" r="1.8" fill="#B13507"></circle><circle cx="587" cy="248.6" r="1.8" fill="#B13507"></circle><circle cx="598" cy="240.9" r="1.8" fill="#B13507"></circle><circle cx="609" cy="234.6" r="1.8" fill="#B13507"></circle><circle cx="619.9" cy="233.2" r="1.8" fill="#B13507"></circle><circle cx="630.9" cy="231.9" r="1.8" fill="#B13507"></circle><circle cx="641.9" cy="230.6" r="1.8" fill="#B13507"></circle><circle cx="652.8" cy="229.6" r="1.8" fill="#B13507"></circle><circle cx="663.8" cy="228.2" r="1.8" fill="#B13507"></circle><circle cx="674.7" cy="226.6" r="1.8" fill="#B13507"></circle><circle cx="685.7" cy="225.2" r="1.8" fill="#B13507"></circle><circle cx="696.7" cy="223.9" r="1.8" fill="#B13507"></circle><circle cx="707.6" cy="221.6" r="1.8" fill="#B13507"></circle><circle cx="718.6" cy="220.6" r="1.8" fill="#B13507"></circle></g></g><g><path fill="none" stroke-linecap="butt" stroke-linejoin="round" stroke="#fff" stroke-width="2.5" d="M60.8 508.4L71.8 507.7L82.7 507.1L93.7 506.1L104.7 505.4L126.6 505.1L137.6 504.7L148.5 501.1L159.5 500.4L170.5 498.4L192.4 497.1L203.3 495.1L214.3 492.4L225.3 490.4L236.2 488.4L247.2 486.1L258.2 485.1L269.1 481.7L280.1 480.4L291 478.4L302 476.7L313 474.1L323.9 472.4L334.9 471.7L345.9 469.4L356.8 467.7L367.8 467.1L378.7 465.1L389.7 463.7L400.7 462.4L411.6 461.1L422.6 458.7L433.6 456.4L444.5 455L455.5 453L466.4 451L477.4 450.4L488.4 448L499.3 445.7L510.3 443.4L521.3 442.7L532.2 441.7L543.2 441L554.2 440.4L565.1 439.4L576.1 438.4L587 437L598 435L609 433L619.9 431L630.9 429L641.9 427L652.8 425.4L663.8 423.4L674.7 422L685.7 421L696.7 420L707.6 418.7L718.6 418"></path><polyline points="60.80,508.40 71.80,507.70 82.70,507.10 93.70,506.10 104.70,505.40 126.60,505.10 137.60,504.70 148.50,501.10 159.50,500.40 170.50,498.40 192.40,497.10 203.30,495.10 214.30,492.40 225.30,490.40 236.20,488.40 247.20,486.10 258.20,485.10 269.10,481.70 280.10,480.40 291.00,478.40 302.00,476.70 313.00,474.10 323.90,472.40 334.90,471.70 345.90,469.40 356.80,467.70 367.80,467.10 378.70,465.10 389.70,463.70 400.70,462.40 411.60,461.10 422.60,458.70 433.60,456.40 444.50,455.00 455.50,453.00 466.40,451.00 477.40,450.40 488.40,448.00 499.30,445.70 510.30,443.40 521.30,442.70 532.20,441.70 543.20,441.00 554.20,440.40 565.10,439.40 576.10,438.40 587.00,437.00 598.00,435.00 609.00,433.00 619.90,431.00 630.90,429.00 641.90,427.00 652.80,425.40 663.80,423.40 674.70,422.00 685.70,421.00 696.70,420.00 707.60,418.70 718.60,418.00" stroke-linejoin="round" stroke-width="1.5" stroke="#3C4E66" fill="none" stroke-linecap="butt"></polyline><g><circle cx="60.8" cy="508.4" r="1.8" fill="#3C4E66"></circle><circle cx="71.8" cy="507.7" r="1.8" fill="#3C4E66"></circle><circle cx="82.7" cy="507.1" r="1.8" fill="#3C4E66"></circle><circle cx="93.7" cy="506.1" r="1.8" fill="#3C4E66"></circle><circle cx="104.7" cy="505.4" r="1.8" fill="#3C4E66"></circle><circle cx="126.6" cy="505.1" r="1.8" fill="#3C4E66"></circle><circle cx="137.6" cy="504.7" r="1.8" fill="#3C4E66"></circle><circle cx="148.5" cy="501.1" r="1.8" fill="#3C4E66"></circle><circle cx="159.5" cy="500.4" r="1.8" fill="#3C4E66"></circle><circle cx="170.5" cy="498.4" r="1.8" fill="#3C4E66"></circle><circle cx="192.4" cy="497.1" r="1.8" fill="#3C4E66"></circle><circle cx="203.3" cy="495.1" r="1.8" fill="#3C4E66"></circle><circle cx="214.3" cy="492.4" r="1.8" fill="#3C4E66"></circle><circle cx="225.3" cy="490.4" r="1.8" fill="#3C4E66"></circle><circle cx="236.2" cy="488.4" r="1.8" fill="#3C4E66"></circle><circle cx="247.2" cy="486.1" r="1.8" fill="#3C4E66"></circle><circle cx="258.2" cy="485.1" r="1.8" fill="#3C4E66"></circle><circle cx="269.1" cy="481.7" r="1.8" fill="#3C4E66"></circle><circle cx="280.1" cy="480.4" r="1.8" fill="#3C4E66"></circle><circle cx="291" cy="478.4" r="1.8" fill="#3C4E66"></circle><circle cx="302" cy="476.7" r="1.8" fill="#3C4E66"></circle><circle cx="313" cy="474.1" r="1.8" fill="#3C4E66"></circle><circle cx="323.9" cy="472.4" r="1.8" fill="#3C4E66"></circle><circle cx="334.9" cy="471.7" r="1.8" fill="#3C4E66"></circle><circle cx="345.9" cy="469.4" r="1.8" fill="#3C4E66"></circle><circle cx="356.8" cy="467.7" r="1.8" fill="#3C4E66"></circle><circle cx="367.8" cy="467.1" r="1.8" fill="#3C4E66"></circle><circle cx="378.7" cy="465.1" r="1.8" fill="#3C4E66"></circle><circle cx="389.7" cy="463.7" r="1.8" fill="#3C4E66"></circle><circle cx="400.7" cy="462.4" r="1.8" fill="#3C4E66"></circle><circle cx="411.6" cy="461.1" r="1.8" fill="#3C4E66"></circle><circle cx="422.6" cy="458.7" r="1.8" fill="#3C4E66"></circle><circle cx="433.6" cy="456.4" r="1.8" fill="#3C4E66"></circle><circle cx="444.5" cy="455" r="1.8" fill="#3C4E66"></circle><circle cx="455.5" cy="453" r="1.8" fill="#3C4E66"></circle><circle cx="466.4" cy="451" r="1.8" fill="#3C4E66"></circle><circle cx="477.4" cy="450.4" r="1.8" fill="#3C4E66"></circle><circle cx="488.4" cy="448" r="1.8" fill="#3C4E66"></circle><circle cx="499.3" cy="445.7" r="1.8" fill="#3C4E66"></circle><circle cx="510.3" cy="443.4" r="1.8" fill="#3C4E66"></circle><circle cx="521.3" cy="442.7" r="1.8" fill="#3C4E66"></circle><circle cx="532.2" cy="441.7" r="1.8" fill="#3C4E66"></circle><circle cx="543.2" cy="441" r="1.8" fill="#3C4E66"></circle><circle cx="554.2" cy="440.4" r="1.8" fill="#3C4E66"></circle><circle cx="565.1" cy="439.4" r="1.8" fill="#3C4E66"></circle><circle cx="576.1" cy="438.4" r="1.8" fill="#3C4E66"></circle><circle cx="587" cy="437" r="1.8" fill="#3C4E66"></circle><circle cx="598" cy="435" r="1.8" fill="#3C4E66"></circle><circle cx="609" cy="433" r="1.8" fill="#3C4E66"></circle><circle cx="619.9" cy="431" r="1.8" fill="#3C4E66"></circle><circle cx="630.9" cy="429" r="1.8" fill="#3C4E66"></circle><circle cx="641.9" cy="427" r="1.8" fill="#3C4E66"></circle><circle cx="652.8" cy="425.4" r="1.8" fill="#3C4E66"></circle><circle cx="663.8" cy="423.4" r="1.8" fill="#3C4E66"></circle><circle cx="674.7" cy="422" r="1.8" fill="#3C4E66"></circle><circle cx="685.7" cy="421" r="1.8" fill="#3C4E66"></circle><circle cx="696.7" cy="420" r="1.8" fill="#3C4E66"></circle><circle cx="707.6" cy="418.7" r="1.8" fill="#3C4E66"></circle><circle cx="718.6" cy="418" r="1.8" fill="#3C4E66"></circle></g></g></g></g></g><g class="SourcesFooter" style="fill:#777"><g style="fill:#777"><text font-size="12.60" x="15.0" y="566.9"><tspan x="15" y="566.872">Source: CSIS Aerospace Security Project (2022)</tspan></text></g><text font-size="12.60" x="15.0" y="582.7"><tspan x="15" y="582.732">Note: Country-level visits are assigned by nationality of the individual.</tspan></text><text font-size="12.60" x="513.4" y="566.9"><tspan x="513.448" y="566.872"><a target='_blank' style='fill: #777;' href='https://ourworldindata.org/space-exploration-satellites'>OurWorldInData.org/space-exploration-satellites</a> • <a style="fill: #777;" class="cclogo" href="http://creativecommons.org/licenses/by/4.0/deed.en_US" target="_blank">CC BY</a></tspan></text></g></svg>