<svg xmlns="http://www.w3.org/2000/svg" version="1.1" style="font-family:Lato, &#x27;Helvetica Neue&#x27;, Helvetica, Arial, sans-serif;font-size:18px;background-color:white;text-rendering:geometricPrecision;-webkit-font-smoothing:antialiased" width="850" height="600" viewBox="0 0 850 600"><g class="HeaderView"><g transform="translate(774, 15) scale(0.29)"><svg className="owidLog" width="210" height="120" viewBox="0 0 210 120" fill="none" xmlns="http://www.w3.org/2000/svg">
<g clip-path="url(#clip0)">
  <path d="M0 0h210v107.89H0V0z" fill="#002147" />
  <path
    d="M40.98 32.25c0 2.36-.38 4.53-1.12 6.51a14.26 14.26 0 0 1-8.1 8.4c-1.9.78-4.02 1.17-6.34 1.17-2.31 0-4.42-.39-6.33-1.17a14.31 14.31 0 0 1-8.08-8.4 18.29 18.29 0 0 1-1.12-6.51c0-2.36.38-4.53 1.12-6.5.75-1.97 1.8-3.67 3.17-5.1a14.32 14.32 0 0 1 4.9-3.34c1.92-.8 4.03-1.19 6.34-1.19 2.32 0 4.43.4 6.34 1.19 1.92.8 3.56 1.9 4.93 3.34a14.87 14.87 0 0 1 3.17 5.1 18.1 18.1 0 0 1 1.12 6.5zm-4.38 0c0-1.94-.26-3.68-.8-5.22a10.91 10.91 0 0 0-2.24-3.89 9.68 9.68 0 0 0-3.52-2.46 11.95 11.95 0 0 0-4.62-.86c-1.68 0-3.21.28-4.6.86a9.88 9.88 0 0 0-3.54 2.46 10.91 10.91 0 0 0-2.24 3.9c-.53 1.53-.8 3.27-.8 5.2 0 1.94.27 3.68.8 5.22a11.17 11.17 0 0 0 2.24 3.9 10.01 10.01 0 0 0 3.55 2.44c1.38.56 2.9.83 4.6.83s3.24-.27 4.61-.83a9.8 9.8 0 0 0 3.52-2.44 11.17 11.17 0 0 0 2.25-3.9c.53-1.54.8-3.28.8-5.21zm26.22-6.54V48H60.5c-.56 0-.9-.27-1.05-.81l-.31-2.4a12.45 12.45 0 0 1-3.26 2.6c-1.2.64-2.58.96-4.13.96-1.22 0-2.3-.2-3.24-.6a6.52 6.52 0 0 1-2.33-1.7 7.37 7.37 0 0 1-1.43-2.67c-.3-1.04-.46-2.2-.46-3.45V25.7h3.91v14.22c0 1.68.38 2.99 1.15 3.91.77.93 1.96 1.39 3.54 1.39 1.16 0 2.24-.27 3.23-.82a10.42 10.42 0 0 0 2.8-2.28V25.7h3.91zm8.61 4.47a9.94 9.94 0 0 1 2.6-3.56 5.64 5.64 0 0 1 3.76-1.3c.47 0 .92.05 1.34.15.44.1.83.27 1.17.49l-.3 2.92c-.09.37-.3.55-.66.55-.2 0-.5-.04-.9-.13a6.21 6.21 0 0 0-3.24.18 4.23 4.23 0 0 0-1.47.92c-.42.4-.81.9-1.17 1.5-.33.58-.64 1.26-.92 2.02V48H67.7V25.71h2.25c.42 0 .72.08.88.25.16.16.27.44.33.83l.26 3.39zm61.16-13.7L122.75 48h-3.82l-7.99-24.05a21.95 21.95 0 0 1-.42-1.58 38.36 38.36 0 0 1-.44 1.58L102.05 48h-3.83L88.4 16.47h3.54c.38 0 .7.1.95.29.26.2.43.43.5.73l6.52 21.9.28 1.28.29 1.46.3-1.46.38-1.27 7.41-21.91c.1-.25.26-.48.51-.69.27-.22.58-.33.95-.33h1.23c.38 0 .69.1.92.29a1.77 1.77 0 0 1 .53.73l7.4 21.9a28.4 28.4 0 0 1 .68 2.62 29.52 29.52 0 0 1 .52-2.61l6.54-21.91a1.31 1.31 0 0 1 .48-.7c.27-.21.58-.32.95-.32h3.32zm9.35 8.88c1.63 0 3.1.27 4.4.82a9.43 9.43 0 0 1 5.46 5.94c.5 1.4.74 2.98.74 4.73 0 1.76-.25 3.34-.74 4.75a9.43 9.43 0 0 1-5.46 5.92c-1.3.52-2.77.79-4.4.79-1.64 0-3.12-.27-4.44-.8a9.42 9.42 0 0 1-3.35-2.3c-.92-1-1.63-2.2-2.13-3.61-.49-1.41-.73-3-.73-4.75s.24-3.33.73-4.73c.5-1.43 1.2-2.64 2.13-3.63.93-1 2.04-1.77 3.35-2.31 1.32-.55 2.8-.82 4.44-.82zm0 19.89c2.2 0 3.84-.73 4.93-2.2 1.08-1.48 1.63-3.54 1.63-6.18 0-2.66-.55-4.72-1.63-6.2-1.09-1.49-2.73-2.23-4.93-2.23-1.12 0-2.09.2-2.93.57a5.71 5.71 0 0 0-2.06 1.65c-.55.72-.96 1.61-1.24 2.67-.26 1.04-.4 2.22-.4 3.54 0 2.64.55 4.7 1.64 6.18 1.1 1.47 2.76 2.2 4.99 2.2zm17.97-15.07a9.94 9.94 0 0 1 2.6-3.56 5.64 5.64 0 0 1 3.76-1.3c.47 0 .91.05 1.34.15.44.1.83.27 1.16.49l-.28 2.92c-.09.37-.31.55-.66.55-.2 0-.5-.04-.9-.13a6.2 6.2 0 0 0-3.24.18 4.23 4.23 0 0 0-1.47.92c-.43.4-.82.9-1.17 1.5a13.1 13.1 0 0 0-.92 2.02V48h-3.94V25.71h2.24c.43 0 .72.08.88.25.17.16.28.44.33.83l.27 3.39zm15.04-14.59V48h-3.92V15.6h3.92zm19.55 15.43a6.22 6.22 0 0 0-2.38-2.05 6.7 6.7 0 0 0-2.86-.6c-2.07 0-3.66.75-4.77 2.23-1.12 1.48-1.68 3.6-1.68 6.33 0 1.46.13 2.7.38 3.74a7.29 7.29 0 0 0 1.1 2.56 4.35 4.35 0 0 0 1.78 1.45c.7.3 1.5.46 2.4.46 1.29 0 2.41-.3 3.36-.88a9.6 9.6 0 0 0 2.67-2.49V31.02zm3.91-15.43V48h-2.33c-.56 0-.9-.27-1.06-.81l-.35-2.71a12.13 12.13 0 0 1-3.25 2.77 8.28 8.28 0 0 1-4.23 1.06 7.31 7.31 0 0 1-6.14-2.9c-.73-.96-1.3-2.15-1.69-3.57a18.35 18.35 0 0 1 .07-9.48 11.29 11.29 0 0 1 1.89-3.7 8.7 8.7 0 0 1 7.06-3.34 7.96 7.96 0 0 1 6.12 2.62V15.59h3.91zM46.61 70.71V93H42.7V70.71h3.91zm.84-7c0 .39-.08.75-.24 1.09-.15.32-.35.61-.62.88-.25.25-.55.44-.9.59a2.67 2.67 0 0 1-2.16 0 2.9 2.9 0 0 1-1.45-1.47 2.67 2.67 0 0 1 0-2.16c.15-.35.35-.65.6-.9.25-.27.53-.47.85-.62a2.67 2.67 0 0 1 2.16 0c.35.15.65.35.9.62.27.25.47.55.62.9.16.34.24.7.24 1.08zm7.97 10.24c.49-.54 1-1.04 1.54-1.48a9.85 9.85 0 0 1 3.66-1.84 8.96 8.96 0 0 1 5.43.35c.94.4 1.72.97 2.33 1.71.63.74 1.11 1.62 1.43 2.67.32 1.04.49 2.19.49 3.45V93h-3.94V78.81c0-1.69-.4-3-1.17-3.92-.76-.93-1.93-1.4-3.5-1.4-1.15 0-2.24.27-3.25.83-1 .56-1.92 1.31-2.77 2.27V93h-3.94V70.71h2.35c.56 0 .9.28 1.04.82l.3 2.42zm57.7 3.3c0 2.36-.37 4.5-1.11 6.44a14.3 14.3 0 0 1-3.17 4.98c-1.37 1.37-3 2.45-4.93 3.2-1.9.76-4.02 1.13-6.33 1.13H85.8V61.47h11.77c2.31 0 4.42.39 6.33 1.15a13.8 13.8 0 0 1 8.1 8.18 17.75 17.75 0 0 1 1.12 6.45zm-4.37 0c0-1.94-.26-3.67-.8-5.2a10.94 10.94 0 0 0-2.23-3.87 9.57 9.57 0 0 0-3.53-2.42 12.23 12.23 0 0 0-4.61-.83h-7.5v24.62h7.5c1.7 0 3.24-.28 4.61-.84a9.7 9.7 0 0 0 3.53-2.4 10.94 10.94 0 0 0 2.24-3.87c.53-1.53.8-3.26.8-5.2zm19.8 5.72c-1.8.06-3.34.2-4.62.44-1.26.22-2.3.51-3.1.88-.8.36-1.37.8-1.74 1.3-.35.5-.53 1.05-.53 1.67 0 .58.1 1.1.3 1.52a3 3 0 0 0 .76 1.05c.34.27.73.46 1.17.6a6.13 6.13 0 0 0 1.45.17 7.28 7.28 0 0 0 3.5-.81 11.95 11.95 0 0 0 2.82-2.2v-4.62zm-12.65-9.11a12.73 12.73 0 0 1 3.98-2.66c1.43-.59 3-.88 4.73-.88 1.25 0 2.36.2 3.33.61a6.81 6.81 0 0 1 3.94 4.38c.33 1.04.5 2.19.5 3.43V93h-1.74a1.8 1.8 0 0 1-.88-.18c-.2-.13-.36-.38-.48-.74l-.44-2.12-1.72 1.46a9.48 9.48 0 0 1-3.74 1.7c-.69.15-1.46.23-2.3.23-.87 0-1.69-.12-2.45-.35a5.34 5.34 0 0 1-3.34-2.93 6.64 6.64 0 0 1-.49-2.64c0-.88.25-1.72.73-2.53a6.33 6.33 0 0 1 2.35-2.17c1.09-.63 2.5-1.15 4.25-1.54 1.75-.41 3.89-.65 6.42-.7v-1.75c0-1.73-.37-3.03-1.12-3.91-.75-.9-1.84-1.34-3.28-1.34-.97 0-1.78.12-2.44.37-.64.23-1.2.5-1.7.81l-1.23.82c-.33.23-.67.35-1 .35-.27 0-.5-.07-.69-.2a2.1 2.1 0 0 1-.48-.53l-.7-1.25zm27.67 19.5c-1.76 0-3.12-.5-4.07-1.48-.94-.98-1.41-2.4-1.41-4.25V74h-2.68a.9.9 0 0 1-.6-.2c-.16-.14-.24-.36-.24-.66v-1.56l3.65-.46.9-6.89c.05-.22.14-.4.29-.52a.88.88 0 0 1 .62-.22H142v7.67h6.44V74H142v13.38c0 .94.22 1.63.68 2.09.45.45 1.04.68 1.76.68a3.21 3.21 0 0 0 1.85-.53l.55-.35c.16-.12.3-.18.41-.18.2 0 .4.13.55.38l1.15 1.87a7.45 7.45 0 0 1-2.44 1.5 8.53 8.53 0 0 1-2.95.52zm19.68-10.4c-1.8.07-3.34.21-4.62.45-1.26.22-2.3.51-3.1.88-.8.36-1.37.8-1.74 1.3-.35.5-.53 1.05-.53 1.67 0 .58.1 1.1.3 1.52a2.9 2.9 0 0 0 .76 1.05c.34.27.73.46 1.17.6a6.13 6.13 0 0 0 1.45.17 7.3 7.3 0 0 0 3.5-.81 12.04 12.04 0 0 0 2.82-2.2v-4.62zm-12.65-9.1a12.72 12.72 0 0 1 3.99-2.66c1.42-.59 3-.88 4.72-.88 1.25 0 2.36.2 3.33.61a6.81 6.81 0 0 1 3.94 4.38c.33 1.04.5 2.19.5 3.43V93h-1.74a1.8 1.8 0 0 1-.88-.18c-.2-.13-.36-.38-.48-.74l-.44-2.12-1.72 1.46a9.48 9.48 0 0 1-3.74 1.7c-.69.15-1.46.23-2.3.23-.87 0-1.69-.12-2.45-.35a5.33 5.33 0 0 1-3.34-2.93 6.62 6.62 0 0 1-.49-2.64c0-.88.25-1.72.73-2.53a6.33 6.33 0 0 1 2.35-2.17c1.09-.63 2.5-1.15 4.25-1.54 1.74-.41 3.89-.65 6.42-.7v-1.75c0-1.73-.37-3.03-1.12-3.91-.75-.9-1.84-1.34-3.28-1.34-.97 0-1.78.12-2.44.37-.64.23-1.2.5-1.7.81l-1.22.82c-.34.23-.68.35-1.02.35-.26 0-.49-.07-.68-.2a1.88 1.88 0 0 1-.48-.53l-.7-1.25zM40.98 32.25c0 2.36-.38 4.53-1.12 6.51a14.26 14.26 0 0 1-8.1 8.4c-1.9.78-4.02 1.17-6.34 1.17-2.31 0-4.42-.39-6.33-1.17a14.31 14.31 0 0 1-8.08-8.4 18.29 18.29 0 0 1-1.12-6.51c0-2.36.38-4.53 1.12-6.5.75-1.97 1.8-3.67 3.17-5.1a14.32 14.32 0 0 1 4.9-3.34c1.92-.8 4.03-1.19 6.34-1.19 2.32 0 4.43.4 6.34 1.19 1.92.8 3.56 1.9 4.93 3.34a14.87 14.87 0 0 1 3.17 5.1 18.1 18.1 0 0 1 1.12 6.5zm-4.38 0c0-1.94-.26-3.68-.8-5.22a10.91 10.91 0 0 0-2.24-3.89 9.68 9.68 0 0 0-3.52-2.46 11.95 11.95 0 0 0-4.62-.86c-1.68 0-3.21.28-4.6.86a9.88 9.88 0 0 0-3.54 2.46 10.91 10.91 0 0 0-2.24 3.9c-.53 1.53-.8 3.27-.8 5.2 0 1.94.27 3.68.8 5.22a11.17 11.17 0 0 0 2.24 3.9 10.01 10.01 0 0 0 3.55 2.44c1.38.56 2.9.83 4.6.83s3.24-.27 4.61-.83a9.8 9.8 0 0 0 3.52-2.44 11.17 11.17 0 0 0 2.25-3.9c.53-1.54.8-3.28.8-5.21zm26.22-6.54V48H60.5c-.56 0-.9-.27-1.05-.81l-.31-2.4a12.45 12.45 0 0 1-3.26 2.6c-1.2.64-2.58.96-4.13.96-1.22 0-2.3-.2-3.24-.6a6.52 6.52 0 0 1-2.33-1.7 7.37 7.37 0 0 1-1.43-2.67c-.3-1.04-.46-2.2-.46-3.45V25.7h3.91v14.22c0 1.68.38 2.99 1.15 3.91.77.93 1.96 1.39 3.54 1.39 1.16 0 2.24-.27 3.23-.82a10.42 10.42 0 0 0 2.8-2.28V25.7h3.91zm8.61 4.47a9.94 9.94 0 0 1 2.6-3.56 5.64 5.64 0 0 1 3.76-1.3c.47 0 .92.05 1.34.15.44.1.83.27 1.17.49l-.3 2.92c-.09.37-.3.55-.66.55-.2 0-.5-.04-.9-.13a6.21 6.21 0 0 0-3.24.18 4.23 4.23 0 0 0-1.47.92c-.42.4-.81.9-1.17 1.5-.33.58-.64 1.26-.92 2.02V48H67.7V25.71h2.25c.42 0 .72.08.88.25.16.16.27.44.33.83l.26 3.39zm61.16-13.7L122.75 48h-3.82l-7.99-24.05a21.95 21.95 0 0 1-.42-1.58 38.36 38.36 0 0 1-.44 1.58L102.05 48h-3.83L88.4 16.47h3.54c.38 0 .7.1.95.29.26.2.43.43.5.73l6.52 21.9.28 1.28.29 1.46.3-1.46.38-1.27 7.41-21.91c.1-.25.26-.48.51-.69.27-.22.58-.33.95-.33h1.23c.38 0 .69.1.92.29a1.77 1.77 0 0 1 .53.73l7.4 21.9a28.4 28.4 0 0 1 .68 2.62 29.52 29.52 0 0 1 .52-2.61l6.54-21.91a1.31 1.31 0 0 1 .48-.7c.27-.21.58-.32.95-.32h3.32zm9.35 8.88c1.63 0 3.1.27 4.4.82a9.43 9.43 0 0 1 5.46 5.94c.5 1.4.74 2.98.74 4.73 0 1.76-.25 3.34-.74 4.75a9.43 9.43 0 0 1-5.46 5.92c-1.3.52-2.77.79-4.4.79-1.64 0-3.12-.27-4.44-.8a9.42 9.42 0 0 1-3.35-2.3c-.92-1-1.63-2.2-2.13-3.61-.49-1.41-.73-3-.73-4.75s.24-3.33.73-4.73c.5-1.43 1.2-2.64 2.13-3.63.93-1 2.04-1.77 3.35-2.31 1.32-.55 2.8-.82 4.44-.82zm0 19.89c2.2 0 3.84-.73 4.93-2.2 1.08-1.48 1.63-3.54 1.63-6.18 0-2.66-.55-4.72-1.63-6.2-1.09-1.49-2.73-2.23-4.93-2.23-1.12 0-2.09.2-2.93.57a5.71 5.71 0 0 0-2.06 1.65c-.55.72-.96 1.61-1.24 2.67-.26 1.04-.4 2.22-.4 3.54 0 2.64.55 4.7 1.64 6.18 1.1 1.47 2.76 2.2 4.99 2.2zm17.97-15.07a9.94 9.94 0 0 1 2.6-3.56 5.64 5.64 0 0 1 3.76-1.3c.47 0 .91.05 1.34.15.44.1.83.27 1.16.49l-.28 2.92c-.09.37-.31.55-.66.55-.2 0-.5-.04-.9-.13a6.2 6.2 0 0 0-3.24.18 4.23 4.23 0 0 0-1.47.92c-.43.4-.82.9-1.17 1.5a13.1 13.1 0 0 0-.92 2.02V48h-3.94V25.71h2.24c.43 0 .72.08.88.25.17.16.28.44.33.83l.27 3.39zm15.04-14.59V48h-3.92V15.6h3.92zm19.55 15.43a6.22 6.22 0 0 0-2.38-2.05 6.7 6.7 0 0 0-2.86-.6c-2.07 0-3.66.75-4.77 2.23-1.12 1.48-1.68 3.6-1.68 6.33 0 1.46.13 2.7.38 3.74a7.29 7.29 0 0 0 1.1 2.56 4.35 4.35 0 0 0 1.78 1.45c.7.3 1.5.46 2.4.46 1.29 0 2.41-.3 3.36-.88a9.6 9.6 0 0 0 2.67-2.49V31.02zm3.91-15.43V48h-2.33c-.56 0-.9-.27-1.06-.81l-.35-2.71a12.13 12.13 0 0 1-3.25 2.77 8.28 8.28 0 0 1-4.23 1.06 7.31 7.31 0 0 1-6.14-2.9c-.73-.96-1.3-2.15-1.69-3.57a18.35 18.35 0 0 1 .07-9.48 11.29 11.29 0 0 1 1.89-3.7 8.7 8.7 0 0 1 7.06-3.34 7.96 7.96 0 0 1 6.12 2.62V15.59h3.91zM46.61 70.71V93H42.7V70.71h3.91zm.84-7c0 .39-.08.75-.24 1.09-.15.32-.35.61-.62.88-.25.25-.55.44-.9.59a2.67 2.67 0 0 1-2.16 0 2.9 2.9 0 0 1-1.45-1.47 2.67 2.67 0 0 1 0-2.16c.15-.35.35-.65.6-.9.25-.27.53-.47.85-.62a2.67 2.67 0 0 1 2.16 0c.35.15.65.35.9.62.27.25.47.55.62.9.16.34.24.7.24 1.08zm7.97 10.24c.49-.54 1-1.04 1.54-1.48a9.85 9.85 0 0 1 3.66-1.84 8.96 8.96 0 0 1 5.43.35c.94.4 1.72.97 2.33 1.71.63.74 1.11 1.62 1.43 2.67.32 1.04.49 2.19.49 3.45V93h-3.94V78.81c0-1.69-.4-3-1.17-3.92-.76-.93-1.93-1.4-3.5-1.4-1.15 0-2.24.27-3.25.83-1 .56-1.92 1.31-2.77 2.27V93h-3.94V70.71h2.35c.56 0 .9.28 1.04.82l.3 2.42zm57.7 3.3c0 2.36-.37 4.5-1.11 6.44a14.3 14.3 0 0 1-3.17 4.98c-1.37 1.37-3 2.45-4.93 3.2-1.9.76-4.02 1.13-6.33 1.13H85.8V61.47h11.77c2.31 0 4.42.39 6.33 1.15a13.8 13.8 0 0 1 8.1 8.18 17.75 17.75 0 0 1 1.12 6.45zm-4.37 0c0-1.94-.26-3.67-.8-5.2a10.94 10.94 0 0 0-2.23-3.87 9.57 9.57 0 0 0-3.53-2.42 12.23 12.23 0 0 0-4.61-.83h-7.5v24.62h7.5c1.7 0 3.24-.28 4.61-.84a9.7 9.7 0 0 0 3.53-2.4 10.94 10.94 0 0 0 2.24-3.87c.53-1.53.8-3.26.8-5.2zm19.8 5.72c-1.8.06-3.34.2-4.62.44-1.26.22-2.3.51-3.1.88-.8.36-1.37.8-1.74 1.3-.35.5-.53 1.05-.53 1.67 0 .58.1 1.1.3 1.52a3 3 0 0 0 .76 1.05c.34.27.73.46 1.17.6a6.13 6.13 0 0 0 1.45.17 7.28 7.28 0 0 0 3.5-.81 11.95 11.95 0 0 0 2.82-2.2v-4.62zm-12.65-9.11a12.73 12.73 0 0 1 3.98-2.66c1.43-.59 3-.88 4.73-.88 1.25 0 2.36.2 3.33.61a6.81 6.81 0 0 1 3.94 4.38c.33 1.04.5 2.19.5 3.43V93h-1.74a1.8 1.8 0 0 1-.88-.18c-.2-.13-.36-.38-.48-.74l-.44-2.12-1.72 1.46a9.48 9.48 0 0 1-3.74 1.7c-.69.15-1.46.23-2.3.23-.87 0-1.69-.12-2.45-.35a5.34 5.34 0 0 1-3.34-2.93 6.64 6.64 0 0 1-.49-2.64c0-.88.25-1.72.73-2.53a6.33 6.33 0 0 1 2.35-2.17c1.09-.63 2.5-1.15 4.25-1.54 1.75-.41 3.89-.65 6.42-.7v-1.75c0-1.73-.37-3.03-1.12-3.91-.75-.9-1.84-1.34-3.28-1.34-.97 0-1.78.12-2.44.37-.64.23-1.2.5-1.7.81l-1.23.82c-.33.23-.67.35-1 .35-.27 0-.5-.07-.69-.2a2.1 2.1 0 0 1-.48-.53l-.7-1.25zm27.67 19.5c-1.76 0-3.12-.5-4.07-1.48-.94-.98-1.41-2.4-1.41-4.25V74h-2.68a.9.9 0 0 1-.6-.2c-.16-.14-.24-.36-.24-.66v-1.56l3.65-.46.9-6.89c.05-.22.14-.4.29-.52a.88.88 0 0 1 .62-.22H142v7.67h6.44V74H142v13.38c0 .94.22 1.63.68 2.09.45.45 1.04.68 1.76.68a3.21 3.21 0 0 0 1.85-.53l.55-.35c.16-.12.3-.18.41-.18.2 0 .4.13.55.38l1.15 1.87a7.45 7.45 0 0 1-2.44 1.5 8.53 8.53 0 0 1-2.95.52zm19.68-10.4c-1.8.07-3.34.21-4.62.45-1.26.22-2.3.51-3.1.88-.8.36-1.37.8-1.74 1.3-.35.5-.53 1.05-.53 1.67 0 .58.1 1.1.3 1.52a2.9 2.9 0 0 0 .76 1.05c.34.27.73.46 1.17.6a6.13 6.13 0 0 0 1.45.17 7.3 7.3 0 0 0 3.5-.81 12.04 12.04 0 0 0 2.82-2.2v-4.62zm-12.65-9.1a12.72 12.72 0 0 1 3.99-2.66c1.42-.59 3-.88 4.72-.88 1.25 0 2.36.2 3.33.61a6.81 6.81 0 0 1 3.94 4.38c.33 1.04.5 2.19.5 3.43V93h-1.74a1.8 1.8 0 0 1-.88-.18c-.2-.13-.36-.38-.48-.74l-.44-2.12-1.72 1.46a9.48 9.48 0 0 1-3.74 1.7c-.69.15-1.46.23-2.3.23-.87 0-1.69-.12-2.45-.35a5.33 5.33 0 0 1-3.34-2.93 6.62 6.62 0 0 1-.49-2.64c0-.88.25-1.72.73-2.53a6.33 6.33 0 0 1 2.35-2.17c1.09-.63 2.5-1.15 4.25-1.54 1.74-.41 3.89-.65 6.42-.7v-1.75c0-1.73-.37-3.03-1.12-3.91-.75-.9-1.84-1.34-3.28-1.34-.97 0-1.78.12-2.44.37-.64.23-1.2.5-1.7.81l-1.22.82c-.34.23-.68.35-1.02.35-.26 0-.49-.07-.68-.2a1.88 1.88 0 0 1-.48-.53l-.7-1.25zM40.98 32.25c0 2.36-.38 4.53-1.12 6.51a14.26 14.26 0 0 1-8.1 8.4c-1.9.78-4.02 1.17-6.34 1.17-2.31 0-4.42-.39-6.33-1.17a14.31 14.31 0 0 1-8.08-8.4 18.29 18.29 0 0 1-1.12-6.51c0-2.36.38-4.53 1.12-6.5.75-1.97 1.8-3.67 3.17-5.1a14.32 14.32 0 0 1 4.9-3.34c1.92-.8 4.03-1.19 6.34-1.19 2.32 0 4.43.4 6.34 1.19 1.92.8 3.56 1.9 4.93 3.34a14.87 14.87 0 0 1 3.17 5.1 18.1 18.1 0 0 1 1.12 6.5zm-4.38 0c0-1.94-.26-3.68-.8-5.22a10.91 10.91 0 0 0-2.24-3.89 9.68 9.68 0 0 0-3.52-2.46 11.95 11.95 0 0 0-4.62-.86c-1.68 0-3.21.28-4.6.86a9.88 9.88 0 0 0-3.54 2.46 10.91 10.91 0 0 0-2.24 3.9c-.53 1.53-.8 3.27-.8 5.2 0 1.94.27 3.68.8 5.22a11.17 11.17 0 0 0 2.24 3.9 10.01 10.01 0 0 0 3.55 2.44c1.38.56 2.9.83 4.6.83s3.24-.27 4.61-.83a9.8 9.8 0 0 0 3.52-2.44 11.17 11.17 0 0 0 2.25-3.9c.53-1.54.8-3.28.8-5.21zm26.22-6.54V48H60.5c-.56 0-.9-.27-1.05-.81l-.31-2.4a12.45 12.45 0 0 1-3.26 2.6c-1.2.64-2.58.96-4.13.96-1.22 0-2.3-.2-3.24-.6a6.52 6.52 0 0 1-2.33-1.7 7.37 7.37 0 0 1-1.43-2.67c-.3-1.04-.46-2.2-.46-3.45V25.7h3.91v14.22c0 1.68.38 2.99 1.15 3.91.77.93 1.96 1.39 3.54 1.39 1.16 0 2.24-.27 3.23-.82a10.42 10.42 0 0 0 2.8-2.28V25.7h3.91zm8.61 4.47a9.94 9.94 0 0 1 2.6-3.56 5.64 5.64 0 0 1 3.76-1.3c.47 0 .92.05 1.34.15.44.1.83.27 1.17.49l-.3 2.92c-.09.37-.3.55-.66.55-.2 0-.5-.04-.9-.13a6.21 6.21 0 0 0-3.24.18 4.23 4.23 0 0 0-1.47.92c-.42.4-.81.9-1.17 1.5-.33.58-.64 1.26-.92 2.02V48H67.7V25.71h2.25c.42 0 .72.08.88.25.16.16.27.44.33.83l.26 3.39zm61.16-13.7L122.75 48h-3.82l-7.99-24.05a21.95 21.95 0 0 1-.42-1.58 38.36 38.36 0 0 1-.44 1.58L102.05 48h-3.83L88.4 16.47h3.54c.38 0 .7.1.95.29.26.2.43.43.5.73l6.52 21.9.28 1.28.29 1.46.3-1.46.38-1.27 7.41-21.91c.1-.25.26-.48.51-.69.27-.22.58-.33.95-.33h1.23c.38 0 .69.1.92.29a1.77 1.77 0 0 1 .53.73l7.4 21.9a28.4 28.4 0 0 1 .68 2.62 29.52 29.52 0 0 1 .52-2.61l6.54-21.91a1.31 1.31 0 0 1 .48-.7c.27-.21.58-.32.95-.32h3.32zm9.35 8.88c1.63 0 3.1.27 4.4.82a9.43 9.43 0 0 1 5.46 5.94c.5 1.4.74 2.98.74 4.73 0 1.76-.25 3.34-.74 4.75a9.43 9.43 0 0 1-5.46 5.92c-1.3.52-2.77.79-4.4.79-1.64 0-3.12-.27-4.44-.8a9.42 9.42 0 0 1-3.35-2.3c-.92-1-1.63-2.2-2.13-3.61-.49-1.41-.73-3-.73-4.75s.24-3.33.73-4.73c.5-1.43 1.2-2.64 2.13-3.63.93-1 2.04-1.77 3.35-2.31 1.32-.55 2.8-.82 4.44-.82zm0 19.89c2.2 0 3.84-.73 4.93-2.2 1.08-1.48 1.63-3.54 1.63-6.18 0-2.66-.55-4.72-1.63-6.2-1.09-1.49-2.73-2.23-4.93-2.23-1.12 0-2.09.2-2.93.57a5.71 5.71 0 0 0-2.06 1.65c-.55.72-.96 1.61-1.24 2.67-.26 1.04-.4 2.22-.4 3.54 0 2.64.55 4.7 1.64 6.18 1.1 1.47 2.76 2.2 4.99 2.2zm17.97-15.07a9.94 9.94 0 0 1 2.6-3.56 5.64 5.64 0 0 1 3.76-1.3c.47 0 .91.05 1.34.15.44.1.83.27 1.16.49l-.28 2.92c-.09.37-.31.55-.66.55-.2 0-.5-.04-.9-.13a6.2 6.2 0 0 0-3.24.18 4.23 4.23 0 0 0-1.47.92c-.43.4-.82.9-1.17 1.5a13.1 13.1 0 0 0-.92 2.02V48h-3.94V25.71h2.24c.43 0 .72.08.88.25.17.16.28.44.33.83l.27 3.39zm15.04-14.59V48h-3.92V15.6h3.92zm19.55 15.43a6.22 6.22 0 0 0-2.38-2.05 6.7 6.7 0 0 0-2.86-.6c-2.07 0-3.66.75-4.77 2.23-1.12 1.48-1.68 3.6-1.68 6.33 0 1.46.13 2.7.38 3.74a7.29 7.29 0 0 0 1.1 2.56 4.35 4.35 0 0 0 1.78 1.45c.7.3 1.5.46 2.4.46 1.29 0 2.41-.3 3.36-.88a9.6 9.6 0 0 0 2.67-2.49V31.02zm3.91-15.43V48h-2.33c-.56 0-.9-.27-1.06-.81l-.35-2.71a12.13 12.13 0 0 1-3.25 2.77 8.28 8.28 0 0 1-4.23 1.06 7.31 7.31 0 0 1-6.14-2.9c-.73-.96-1.3-2.15-1.69-3.57a18.35 18.35 0 0 1 .07-9.48 11.29 11.29 0 0 1 1.89-3.7 8.7 8.7 0 0 1 7.06-3.34 7.96 7.96 0 0 1 6.12 2.62V15.59h3.91zM46.61 70.71V93H42.7V70.71h3.91zm.84-7c0 .39-.08.75-.24 1.09-.15.32-.35.61-.62.88-.25.25-.55.44-.9.59a2.67 2.67 0 0 1-2.16 0 2.9 2.9 0 0 1-1.45-1.47 2.67 2.67 0 0 1 0-2.16c.15-.35.35-.65.6-.9.25-.27.53-.47.85-.62a2.67 2.67 0 0 1 2.16 0c.35.15.65.35.9.62.27.25.47.55.62.9.16.34.24.7.24 1.08zm7.97 10.24c.49-.54 1-1.04 1.54-1.48a9.85 9.85 0 0 1 3.66-1.84 8.96 8.96 0 0 1 5.43.35c.94.4 1.72.97 2.33 1.71.63.74 1.11 1.62 1.43 2.67.32 1.04.49 2.19.49 3.45V93h-3.94V78.81c0-1.69-.4-3-1.17-3.92-.76-.93-1.93-1.4-3.5-1.4-1.15 0-2.24.27-3.25.83-1 .56-1.92 1.31-2.77 2.27V93h-3.94V70.71h2.35c.56 0 .9.28 1.04.82l.3 2.42zm57.7 3.3c0 2.36-.37 4.5-1.11 6.44a14.3 14.3 0 0 1-3.17 4.98c-1.37 1.37-3 2.45-4.93 3.2-1.9.76-4.02 1.13-6.33 1.13H85.8V61.47h11.77c2.31 0 4.42.39 6.33 1.15a13.8 13.8 0 0 1 8.1 8.18 17.75 17.75 0 0 1 1.12 6.45zm-4.37 0c0-1.94-.26-3.67-.8-5.2a10.94 10.94 0 0 0-2.23-3.87 9.57 9.57 0 0 0-3.53-2.42 12.23 12.23 0 0 0-4.61-.83h-7.5v24.62h7.5c1.7 0 3.24-.28 4.61-.84a9.7 9.7 0 0 0 3.53-2.4 10.94 10.94 0 0 0 2.24-3.87c.53-1.53.8-3.26.8-5.2zm19.8 5.72c-1.8.06-3.34.2-4.62.44-1.26.22-2.3.51-3.1.88-.8.36-1.37.8-1.74 1.3-.35.5-.53 1.05-.53 1.67 0 .58.1 1.1.3 1.52a3 3 0 0 0 .76 1.05c.34.27.73.46 1.17.6a6.13 6.13 0 0 0 1.45.17 7.28 7.28 0 0 0 3.5-.81 11.95 11.95 0 0 0 2.82-2.2v-4.62zm-12.65-9.11a12.73 12.73 0 0 1 3.98-2.66c1.43-.59 3-.88 4.73-.88 1.25 0 2.36.2 3.33.61a6.81 6.81 0 0 1 3.94 4.38c.33 1.04.5 2.19.5 3.43V93h-1.74a1.8 1.8 0 0 1-.88-.18c-.2-.13-.36-.38-.48-.74l-.44-2.12-1.72 1.46a9.48 9.48 0 0 1-3.74 1.7c-.69.15-1.46.23-2.3.23-.87 0-1.69-.12-2.45-.35a5.34 5.34 0 0 1-3.34-2.93 6.64 6.64 0 0 1-.49-2.64c0-.88.25-1.72.73-2.53a6.33 6.33 0 0 1 2.35-2.17c1.09-.63 2.5-1.15 4.25-1.54 1.75-.41 3.89-.65 6.42-.7v-1.75c0-1.73-.37-3.03-1.12-3.91-.75-.9-1.84-1.34-3.28-1.34-.97 0-1.78.12-2.44.37-.64.23-1.2.5-1.7.81l-1.23.82c-.33.23-.67.35-1 .35-.27 0-.5-.07-.69-.2a2.1 2.1 0 0 1-.48-.53l-.7-1.25zm27.67 19.5c-1.76 0-3.12-.5-4.07-1.48-.94-.98-1.41-2.4-1.41-4.25V74h-2.68a.9.9 0 0 1-.6-.2c-.16-.14-.24-.36-.24-.66v-1.56l3.65-.46.9-6.89c.05-.22.14-.4.29-.52a.88.88 0 0 1 .62-.22H142v7.67h6.44V74H142v13.38c0 .94.22 1.63.68 2.09.45.45 1.04.68 1.76.68a3.21 3.21 0 0 0 1.85-.53l.55-.35c.16-.12.3-.18.41-.18.2 0 .4.13.55.38l1.15 1.87a7.45 7.45 0 0 1-2.44 1.5 8.53 8.53 0 0 1-2.95.52zm19.68-10.4c-1.8.07-3.34.21-4.62.45-1.26.22-2.3.51-3.1.88-.8.36-1.37.8-1.74 1.3-.35.5-.53 1.05-.53 1.67 0 .58.1 1.1.3 1.52a2.9 2.9 0 0 0 .76 1.05c.34.27.73.46 1.17.6a6.13 6.13 0 0 0 1.45.17 7.3 7.3 0 0 0 3.5-.81 12.04 12.04 0 0 0 2.82-2.2v-4.62zm-12.65-9.1a12.72 12.72 0 0 1 3.99-2.66c1.42-.59 3-.88 4.72-.88 1.25 0 2.36.2 3.33.61a6.81 6.81 0 0 1 3.94 4.38c.33 1.04.5 2.19.5 3.43V93h-1.74a1.8 1.8 0 0 1-.88-.18c-.2-.13-.36-.38-.48-.74l-.44-2.12-1.72 1.46a9.48 9.48 0 0 1-3.74 1.7c-.69.15-1.46.23-2.3.23-.87 0-1.69-.12-2.45-.35a5.33 5.33 0 0 1-3.34-2.93 6.62 6.62 0 0 1-.49-2.64c0-.88.25-1.72.73-2.53a6.33 6.33 0 0 1 2.35-2.17c1.09-.63 2.5-1.15 4.25-1.54 1.74-.41 3.89-.65 6.42-.7v-1.75c0-1.73-.37-3.03-1.12-3.91-.75-.9-1.84-1.34-3.28-1.34-.97 0-1.78.12-2.44.37-.64.23-1.2.5-1.7.81l-1.22.82c-.34.23-.68.35-1.02.35-.26 0-.49-.07-.68-.2a1.88 1.88 0 0 1-.48-.53l-.7-1.25z"
    fill="#fff"
  />
  <path fill="#D42B21" d="M0 106.79h210V120H0z" />
</g>
<defs>
  <clipPath id="clip0"><path fill="#fff" d="M0 0h210v120H0z" /></clipPath>
</defs>
</svg></g><a href="http://localhost:3030/grapher/deaths-from-smallpox-in-london" style="font-family:&quot;Playfair Display&quot;, Georgia, &quot;Times New Roman&quot;, serif" target="_blank" rel="noopener"><text font-size="25.20" x="15.0" y="35.2" fill="#555"><tspan x="15" y="35.160000000000004">Deaths caused by smallpox as a share of all deaths in London</tspan></text></a><text font-size="14.40" x="15.0" y="55.7" fill="#666"><tspan x="15" y="55.72">In London in the 18th century around 1 in every 13 deaths was caused by smallpox, the majority of which were</tspan><tspan x="15" y="73">young children.</tspan></text></g><g class="LineChart"><defs><clipPath id="boundsClip-1"><rect x="42.562" y="82.2" width="840" height="475.2"></rect></clipPath></defs><g class="DualAxisView"><g class="HorizontalAxis"><line x1="52.6" y1="526.2" x2="52.6" y2="531.2" stroke="#999"></line><line x1="703.6" y1="526.2" x2="703.6" y2="531.2" stroke="#999"></line><line x1="221.9" y1="526.2" x2="221.9" y2="531.2" stroke="#999"></line><line x1="341.1" y1="526.2" x2="341.1" y2="531.2" stroke="#999"></line><line x1="460.4" y1="526.2" x2="460.4" y2="531.2" stroke="#999"></line><line x1="579.6" y1="526.2" x2="579.6" y2="531.2" stroke="#999"></line><text x="52.562" y="547.4" fill="#666" text-anchor="start" font-size="16.2">1629</text><text x="703.61" y="547.4" fill="#666" text-anchor="end" font-size="16.2">1902</text><text x="221.9" y="547.4" fill="#666" text-anchor="middle" font-size="16.2">1700</text><text x="341.1" y="547.4" fill="#666" text-anchor="middle" font-size="16.2">1750</text><text x="460.4" y="547.4" fill="#666" text-anchor="middle" font-size="16.2">1800</text><text x="579.6" y="547.4" fill="#666" text-anchor="middle" font-size="16.2">1850</text></g><g class="VerticalAxis"><text x="47.56" y="526.2" dy=".32em" text-anchor="end" fill="#666" font-size="16.2">0%</text><text x="47.56" y="479" dy=".32em" text-anchor="end" fill="#666" font-size="16.2">2%</text><text x="47.56" y="431.8" dy=".32em" text-anchor="end" fill="#666" font-size="16.2">4%</text><text x="47.56" y="384.6" dy=".32em" text-anchor="end" fill="#666" font-size="16.2">6%</text><text x="47.56" y="337.5" dy=".32em" text-anchor="end" fill="#666" font-size="16.2">8%</text><text x="47.56" y="290.3" dy=".32em" text-anchor="end" fill="#666" font-size="16.2">10%</text><text x="47.56" y="243.1" dy=".32em" text-anchor="end" fill="#666" font-size="16.2">12%</text><text x="47.56" y="195.9" dy=".32em" text-anchor="end" fill="#666" font-size="16.2">14%</text><text x="47.56" y="148.7" dy=".32em" text-anchor="end" fill="#666" font-size="16.2">16%</text><text x="47.56" y="101.5" dy=".32em" text-anchor="end" fill="#666" font-size="16.2">18%</text></g><g class="AxisGridLines horizontalLines"><line x1="52.56" y1="526.2" x2="703.61" y2="526.2" stroke="#999"></line><line x1="52.56" y1="479" x2="703.61" y2="479" stroke="#ddd" stroke-dasharray="3,2"></line><line x1="52.56" y1="431.8" x2="703.61" y2="431.8" stroke="#ddd" stroke-dasharray="3,2"></line><line x1="52.56" y1="384.6" x2="703.61" y2="384.6" stroke="#ddd" stroke-dasharray="3,2"></line><line x1="52.56" y1="337.5" x2="703.61" y2="337.5" stroke="#ddd" stroke-dasharray="3,2"></line><line x1="52.56" y1="290.3" x2="703.61" y2="290.3" stroke="#ddd" stroke-dasharray="3,2"></line><line x1="52.56" y1="243.1" x2="703.61" y2="243.1" stroke="#ddd" stroke-dasharray="3,2"></line><line x1="52.56" y1="195.9" x2="703.61" y2="195.9" stroke="#ddd" stroke-dasharray="3,2"></line><line x1="52.56" y1="148.7" x2="703.61" y2="148.7" stroke="#ddd" stroke-dasharray="3,2"></line><line x1="52.56" y1="101.5" x2="703.61" y2="101.5" stroke="#ddd" stroke-dasharray="3,2"></line></g></g><g clip-path="url(#boundsClip-1)"><g class="LineLabels" style="cursor:default"><g class="legendMark"><rect x="703.61" y="481.85" width="131.39" height="13.5" fill="#fff" opacity="0"></rect><text font-size="13.50" x="707.6" y="492.7" fill="#3C4E66"><tspan x="707.61" y="492.65000000000003">United Kingdom</tspan></text></g></g><g class="Lines"><rect x="53" y="92" width="651" height="434" fill="rgba(255,255,255,0)" opacity="0"></rect><g><path stroke-linecap="round" stroke-linejoin="round" stroke="#ddd" d="M52.6 506.9L54.9 517.2L57.3 510L59.7 394.9L62.1 506L64.5 232.2L66.9 461.2L69.3 513.4L95.5 502.4L97.9 430.8L100.3 259.6L102.6 476.2L105 411.2L107.4 285.6L109.8 490.1L112.2 380.2L114.6 258.6L117 385L119.3 367.8L121.7 461.8L124.1 282.7L126.5 471L128.9 377.5L131.3 416.7L133.6 463.1L136 367.2L138.4 510.3L140.8 519.2L143.2 348.1L145.6 254.9L148 410.7L150.3 355.1L152.7 421.8L155.1 381.8L157.5 411.2L159.9 247.2L162.3 389.8L164.6 481L167 318.6L169.4 321L171.8 312.6L174.2 448L176.6 232.7L179 365.6L181.3 286L183.7 367.6L186.1 272.6L188.5 415.4L224.3 400L226.7 488.5L229 423.9L231.4 370.1L233.8 409.3L236.2 440.5L238.6 408.5L241 339.3L243.3 415.4L245.7 225.5L248.1 417.4L250.5 309.9L252.9 345.4L255.3 276.7L257.7 414L260 291.9L262.4 303.7L264.8 358.6L267.2 257.4L269.6 392.7L272 311.9L274.3 327.6L276.7 261.9L279.1 414.7L281.5 231.5L283.9 405.3L286.3 328.7L288.7 347.6L291 300L293.4 357.5L295.8 279.6L298.2 405.3L300.6 415.6L303 282.9L305.3 366.4L307.7 268.4L310.1 349.5L312.5 380.9L314.9 369.4L317.3 317.5L319.7 381.2L322 403.5L324.4 336.2L326.8 339.2L329.2 392.6L331.6 255L334 398.5L336.4 349.4L338.7 283.5L341.1 404L343.5 414.2L345.9 118.7L348.3 431.5L350.7 281L353 312.2L355.4 344.4L357.8 161.3L360.2 355.3L362.6 213.8L365 266L367.4 355.4L369.7 280.4L372.1 203L374.5 284L376.9 272.5L379.3 295.9L381.7 297.9L384 224L386.4 313.7L388.8 317.3L391.2 346.4L393.6 164.7L396 413L398.4 246.1L400.7 219.2L403.1 312.2L405.5 266.6L407.9 361.4L410.3 238.2L412.7 426L415.1 127.4L417.4 442.5L419.8 334L422.2 293.4L424.6 276.9L427 386.6L429.4 231.4L431.7 394.3L434.1 290L436.5 314.7L438.9 306.5L441.3 343.2L443.7 267.8L446.1 291.6L448.4 410.3L450.8 92.2L453.2 453.8L455.6 222.5L458 381.7L460.4 279.8L462.7 348.3L465.1 334L467.5 381.4L469.9 440L472.3 299.9L474.7 373.9L477.1 359.3L479.4 388L481.8 361.7L484.2 384.1L486.6 422.2L489 360.2L491.4 403.9L493.7 448.1L496.1 438.7L498.5 450.4L500.9 402L503.3 475.8L505.7 438.8L508.1 429.6L510.4 461.2L512.8 450.7L515.2 437.5L517.6 441.7L520 380.4L522.4 469L524.8 461L527.1 461.2L529.5 452.4L531.9 457.9L534.3 473.8L558.1 471.6L560.5 507.5L562.9 505L565.3 442.9L567.7 481.8L570.1 513.9L572.4 488.1L574.8 460L577.2 508.3L579.6 502.1L582 481L584.4 476.2L586.8 517.9L589.1 504L591.5 486.6L593.9 504.3L596.3 520L598.7 517.3L601.1 482L603.4 492.2L605.8 518.4L608.2 513.4L610.6 459.9L613 509.7L615.4 505.7L617.8 485.4L620.1 481.5L622.5 507.1L624.9 517.9L627.3 496.6L629.7 294.1L632.1 467.1L634.5 522.7L636.8 524.4L639.2 524.9L641.6 503.8L644 448.5L646.4 486.5L648.8 513.5L651.1 512.4L653.5 457.2L655.9 513.9L658.3 522.3L660.7 499.9L663.1 499.7L665.5 525.5L667.8 525.9L670.2 525.9L672.6 526.2L675 526.1L677.4 526L679.8 525.1L682.1 520.9L684.5 523.5L686.9 524.7L689.3 525.9L691.7 525.7L694.1 526.2L696.5 526.1L698.8 526.1L701.2 519.1L703.6 488.6" fill="none" stroke-width="1"></path></g><g><path stroke="#3C4E66" stroke-linecap="round" stroke-linejoin="round" d="M52.6 506.9L54.9 517.2L57.3 510L59.7 394.9L62.1 506L64.5 232.2L66.9 461.2L69.3 513.4L95.5 502.4L97.9 430.8L100.3 259.6L102.6 476.2L105 411.2L107.4 285.6L109.8 490.1L112.2 380.2L114.6 258.6L117 385L119.3 367.8L121.7 461.8L124.1 282.7L126.5 471L128.9 377.5L131.3 416.7L133.6 463.1L136 367.2L138.4 510.3L140.8 519.2L143.2 348.1L145.6 254.9L148 410.7L150.3 355.1L152.7 421.8L155.1 381.8L157.5 411.2L159.9 247.2L162.3 389.8L164.6 481L167 318.6L169.4 321L171.8 312.6L174.2 448L176.6 232.7L179 365.6L181.3 286L183.7 367.6L186.1 272.6L188.5 415.4L224.3 400L226.7 488.5L229 423.9L231.4 370.1L233.8 409.3L236.2 440.5L238.6 408.5L241 339.3L243.3 415.4L245.7 225.5L248.1 417.4L250.5 309.9L252.9 345.4L255.3 276.7L257.7 414L260 291.9L262.4 303.7L264.8 358.6L267.2 257.4L269.6 392.7L272 311.9L274.3 327.6L276.7 261.9L279.1 414.7L281.5 231.5L283.9 405.3L286.3 328.7L288.7 347.6L291 300L293.4 357.5L295.8 279.6L298.2 405.3L300.6 415.6L303 282.9L305.3 366.4L307.7 268.4L310.1 349.5L312.5 380.9L314.9 369.4L317.3 317.5L319.7 381.2L322 403.5L324.4 336.2L326.8 339.2L329.2 392.6L331.6 255L334 398.5L336.4 349.4L338.7 283.5L341.1 404L343.5 414.2L345.9 118.7L348.3 431.5L350.7 281L353 312.2L355.4 344.4L357.8 161.3L360.2 355.3L362.6 213.8L365 266L367.4 355.4L369.7 280.4L372.1 203L374.5 284L376.9 272.5L379.3 295.9L381.7 297.9L384 224L386.4 313.7L388.8 317.3L391.2 346.4L393.6 164.7L396 413L398.4 246.1L400.7 219.2L403.1 312.2L405.5 266.6L407.9 361.4L410.3 238.2L412.7 426L415.1 127.4L417.4 442.5L419.8 334L422.2 293.4L424.6 276.9L427 386.6L429.4 231.4L431.7 394.3L434.1 290L436.5 314.7L438.9 306.5L441.3 343.2L443.7 267.8L446.1 291.6L448.4 410.3L450.8 92.2L453.2 453.8L455.6 222.5L458 381.7L460.4 279.8L462.7 348.3L465.1 334L467.5 381.4L469.9 440L472.3 299.9L474.7 373.9L477.1 359.3L479.4 388L481.8 361.7L484.2 384.1L486.6 422.2L489 360.2L491.4 403.9L493.7 448.1L496.1 438.7L498.5 450.4L500.9 402L503.3 475.8L505.7 438.8L508.1 429.6L510.4 461.2L512.8 450.7L515.2 437.5L517.6 441.7L520 380.4L522.4 469L524.8 461L527.1 461.2L529.5 452.4L531.9 457.9L534.3 473.8L558.1 471.6L560.5 507.5L562.9 505L565.3 442.9L567.7 481.8L570.1 513.9L572.4 488.1L574.8 460L577.2 508.3L579.6 502.1L582 481L584.4 476.2L586.8 517.9L589.1 504L591.5 486.6L593.9 504.3L596.3 520L598.7 517.3L601.1 482L603.4 492.2L605.8 518.4L608.2 513.4L610.6 459.9L613 509.7L615.4 505.7L617.8 485.4L620.1 481.5L622.5 507.1L624.9 517.9L627.3 496.6L629.7 294.1L632.1 467.1L634.5 522.7L636.8 524.4L639.2 524.9L641.6 503.8L644 448.5L646.4 486.5L648.8 513.5L651.1 512.4L653.5 457.2L655.9 513.9L658.3 522.3L660.7 499.9L663.1 499.7L665.5 525.5L667.8 525.9L670.2 525.9L672.6 526.2L675 526.1L677.4 526L679.8 525.1L682.1 520.9L684.5 523.5L686.9 524.7L689.3 525.9L691.7 525.7L694.1 526.2L696.5 526.1L698.8 526.1L701.2 519.1L703.6 488.6" fill="none" stroke-width="1.5"></path><g fill="#3C4E66"><circle cx="52.6" cy="506.9" r="2"></circle><circle cx="54.9" cy="517.2" r="2"></circle><circle cx="57.3" cy="510" r="2"></circle><circle cx="59.7" cy="394.9" r="2"></circle><circle cx="62.1" cy="506" r="2"></circle><circle cx="64.5" cy="232.2" r="2"></circle><circle cx="66.9" cy="461.2" r="2"></circle><circle cx="69.3" cy="513.4" r="2"></circle><circle cx="95.5" cy="502.4" r="2"></circle><circle cx="97.9" cy="430.8" r="2"></circle><circle cx="100.3" cy="259.6" r="2"></circle><circle cx="102.6" cy="476.2" r="2"></circle><circle cx="105" cy="411.2" r="2"></circle><circle cx="107.4" cy="285.6" r="2"></circle><circle cx="109.8" cy="490.1" r="2"></circle><circle cx="112.2" cy="380.2" r="2"></circle><circle cx="114.6" cy="258.6" r="2"></circle><circle cx="117" cy="385" r="2"></circle><circle cx="119.3" cy="367.8" r="2"></circle><circle cx="121.7" cy="461.8" r="2"></circle><circle cx="124.1" cy="282.7" r="2"></circle><circle cx="126.5" cy="471" r="2"></circle><circle cx="128.9" cy="377.5" r="2"></circle><circle cx="131.3" cy="416.7" r="2"></circle><circle cx="133.6" cy="463.1" r="2"></circle><circle cx="136" cy="367.2" r="2"></circle><circle cx="138.4" cy="510.3" r="2"></circle><circle cx="140.8" cy="519.2" r="2"></circle><circle cx="143.2" cy="348.1" r="2"></circle><circle cx="145.6" cy="254.9" r="2"></circle><circle cx="148" cy="410.7" r="2"></circle><circle cx="150.3" cy="355.1" r="2"></circle><circle cx="152.7" cy="421.8" r="2"></circle><circle cx="155.1" cy="381.8" r="2"></circle><circle cx="157.5" cy="411.2" r="2"></circle><circle cx="159.9" cy="247.2" r="2"></circle><circle cx="162.3" cy="389.8" r="2"></circle><circle cx="164.6" cy="481" r="2"></circle><circle cx="167" cy="318.6" r="2"></circle><circle cx="169.4" cy="321" r="2"></circle><circle cx="171.8" cy="312.6" r="2"></circle><circle cx="174.2" cy="448" r="2"></circle><circle cx="176.6" cy="232.7" r="2"></circle><circle cx="179" cy="365.6" r="2"></circle><circle cx="181.3" cy="286" r="2"></circle><circle cx="183.7" cy="367.6" r="2"></circle><circle cx="186.1" cy="272.6" r="2"></circle><circle cx="188.5" cy="415.4" r="2"></circle><circle cx="224.3" cy="400" r="2"></circle><circle cx="226.7" cy="488.5" r="2"></circle><circle cx="229" cy="423.9" r="2"></circle><circle cx="231.4" cy="370.1" r="2"></circle><circle cx="233.8" cy="409.3" r="2"></circle><circle cx="236.2" cy="440.5" r="2"></circle><circle cx="238.6" cy="408.5" r="2"></circle><circle cx="241" cy="339.3" r="2"></circle><circle cx="243.3" cy="415.4" r="2"></circle><circle cx="245.7" cy="225.5" r="2"></circle><circle cx="248.1" cy="417.4" r="2"></circle><circle cx="250.5" cy="309.9" r="2"></circle><circle cx="252.9" cy="345.4" r="2"></circle><circle cx="255.3" cy="276.7" r="2"></circle><circle cx="257.7" cy="414" r="2"></circle><circle cx="260" cy="291.9" r="2"></circle><circle cx="262.4" cy="303.7" r="2"></circle><circle cx="264.8" cy="358.6" r="2"></circle><circle cx="267.2" cy="257.4" r="2"></circle><circle cx="269.6" cy="392.7" r="2"></circle><circle cx="272" cy="311.9" r="2"></circle><circle cx="274.3" cy="327.6" r="2"></circle><circle cx="276.7" cy="261.9" r="2"></circle><circle cx="279.1" cy="414.7" r="2"></circle><circle cx="281.5" cy="231.5" r="2"></circle><circle cx="283.9" cy="405.3" r="2"></circle><circle cx="286.3" cy="328.7" r="2"></circle><circle cx="288.7" cy="347.6" r="2"></circle><circle cx="291" cy="300" r="2"></circle><circle cx="293.4" cy="357.5" r="2"></circle><circle cx="295.8" cy="279.6" r="2"></circle><circle cx="298.2" cy="405.3" r="2"></circle><circle cx="300.6" cy="415.6" r="2"></circle><circle cx="303" cy="282.9" r="2"></circle><circle cx="305.3" cy="366.4" r="2"></circle><circle cx="307.7" cy="268.4" r="2"></circle><circle cx="310.1" cy="349.5" r="2"></circle><circle cx="312.5" cy="380.9" r="2"></circle><circle cx="314.9" cy="369.4" r="2"></circle><circle cx="317.3" cy="317.5" r="2"></circle><circle cx="319.7" cy="381.2" r="2"></circle><circle cx="322" cy="403.5" r="2"></circle><circle cx="324.4" cy="336.2" r="2"></circle><circle cx="326.8" cy="339.2" r="2"></circle><circle cx="329.2" cy="392.6" r="2"></circle><circle cx="331.6" cy="255" r="2"></circle><circle cx="334" cy="398.5" r="2"></circle><circle cx="336.4" cy="349.4" r="2"></circle><circle cx="338.7" cy="283.5" r="2"></circle><circle cx="341.1" cy="404" r="2"></circle><circle cx="343.5" cy="414.2" r="2"></circle><circle cx="345.9" cy="118.7" r="2"></circle><circle cx="348.3" cy="431.5" r="2"></circle><circle cx="350.7" cy="281" r="2"></circle><circle cx="353" cy="312.2" r="2"></circle><circle cx="355.4" cy="344.4" r="2"></circle><circle cx="357.8" cy="161.3" r="2"></circle><circle cx="360.2" cy="355.3" r="2"></circle><circle cx="362.6" cy="213.8" r="2"></circle><circle cx="365" cy="266" r="2"></circle><circle cx="367.4" cy="355.4" r="2"></circle><circle cx="369.7" cy="280.4" r="2"></circle><circle cx="372.1" cy="203" r="2"></circle><circle cx="374.5" cy="284" r="2"></circle><circle cx="376.9" cy="272.5" r="2"></circle><circle cx="379.3" cy="295.9" r="2"></circle><circle cx="381.7" cy="297.9" r="2"></circle><circle cx="384" cy="224" r="2"></circle><circle cx="386.4" cy="313.7" r="2"></circle><circle cx="388.8" cy="317.3" r="2"></circle><circle cx="391.2" cy="346.4" r="2"></circle><circle cx="393.6" cy="164.7" r="2"></circle><circle cx="396" cy="413" r="2"></circle><circle cx="398.4" cy="246.1" r="2"></circle><circle cx="400.7" cy="219.2" r="2"></circle><circle cx="403.1" cy="312.2" r="2"></circle><circle cx="405.5" cy="266.6" r="2"></circle><circle cx="407.9" cy="361.4" r="2"></circle><circle cx="410.3" cy="238.2" r="2"></circle><circle cx="412.7" cy="426" r="2"></circle><circle cx="415.1" cy="127.4" r="2"></circle><circle cx="417.4" cy="442.5" r="2"></circle><circle cx="419.8" cy="334" r="2"></circle><circle cx="422.2" cy="293.4" r="2"></circle><circle cx="424.6" cy="276.9" r="2"></circle><circle cx="427" cy="386.6" r="2"></circle><circle cx="429.4" cy="231.4" r="2"></circle><circle cx="431.7" cy="394.3" r="2"></circle><circle cx="434.1" cy="290" r="2"></circle><circle cx="436.5" cy="314.7" r="2"></circle><circle cx="438.9" cy="306.5" r="2"></circle><circle cx="441.3" cy="343.2" r="2"></circle><circle cx="443.7" cy="267.8" r="2"></circle><circle cx="446.1" cy="291.6" r="2"></circle><circle cx="448.4" cy="410.3" r="2"></circle><circle cx="450.8" cy="92.2" r="2"></circle><circle cx="453.2" cy="453.8" r="2"></circle><circle cx="455.6" cy="222.5" r="2"></circle><circle cx="458" cy="381.7" r="2"></circle><circle cx="460.4" cy="279.8" r="2"></circle><circle cx="462.7" cy="348.3" r="2"></circle><circle cx="465.1" cy="334" r="2"></circle><circle cx="467.5" cy="381.4" r="2"></circle><circle cx="469.9" cy="440" r="2"></circle><circle cx="472.3" cy="299.9" r="2"></circle><circle cx="474.7" cy="373.9" r="2"></circle><circle cx="477.1" cy="359.3" r="2"></circle><circle cx="479.4" cy="388" r="2"></circle><circle cx="481.8" cy="361.7" r="2"></circle><circle cx="484.2" cy="384.1" r="2"></circle><circle cx="486.6" cy="422.2" r="2"></circle><circle cx="489" cy="360.2" r="2"></circle><circle cx="491.4" cy="403.9" r="2"></circle><circle cx="493.7" cy="448.1" r="2"></circle><circle cx="496.1" cy="438.7" r="2"></circle><circle cx="498.5" cy="450.4" r="2"></circle><circle cx="500.9" cy="402" r="2"></circle><circle cx="503.3" cy="475.8" r="2"></circle><circle cx="505.7" cy="438.8" r="2"></circle><circle cx="508.1" cy="429.6" r="2"></circle><circle cx="510.4" cy="461.2" r="2"></circle><circle cx="512.8" cy="450.7" r="2"></circle><circle cx="515.2" cy="437.5" r="2"></circle><circle cx="517.6" cy="441.7" r="2"></circle><circle cx="520" cy="380.4" r="2"></circle><circle cx="522.4" cy="469" r="2"></circle><circle cx="524.8" cy="461" r="2"></circle><circle cx="527.1" cy="461.2" r="2"></circle><circle cx="529.5" cy="452.4" r="2"></circle><circle cx="531.9" cy="457.9" r="2"></circle><circle cx="534.3" cy="473.8" r="2"></circle><circle cx="558.1" cy="471.6" r="2"></circle><circle cx="560.5" cy="507.5" r="2"></circle><circle cx="562.9" cy="505" r="2"></circle><circle cx="565.3" cy="442.9" r="2"></circle><circle cx="567.7" cy="481.8" r="2"></circle><circle cx="570.1" cy="513.9" r="2"></circle><circle cx="572.4" cy="488.1" r="2"></circle><circle cx="574.8" cy="460" r="2"></circle><circle cx="577.2" cy="508.3" r="2"></circle><circle cx="579.6" cy="502.1" r="2"></circle><circle cx="582" cy="481" r="2"></circle><circle cx="584.4" cy="476.2" r="2"></circle><circle cx="586.8" cy="517.9" r="2"></circle><circle cx="589.1" cy="504" r="2"></circle><circle cx="591.5" cy="486.6" r="2"></circle><circle cx="593.9" cy="504.3" r="2"></circle><circle cx="596.3" cy="520" r="2"></circle><circle cx="598.7" cy="517.3" r="2"></circle><circle cx="601.1" cy="482" r="2"></circle><circle cx="603.4" cy="492.2" r="2"></circle><circle cx="605.8" cy="518.4" r="2"></circle><circle cx="608.2" cy="513.4" r="2"></circle><circle cx="610.6" cy="459.9" r="2"></circle><circle cx="613" cy="509.7" r="2"></circle><circle cx="615.4" cy="505.7" r="2"></circle><circle cx="617.8" cy="485.4" r="2"></circle><circle cx="620.1" cy="481.5" r="2"></circle><circle cx="622.5" cy="507.1" r="2"></circle><circle cx="624.9" cy="517.9" r="2"></circle><circle cx="627.3" cy="496.6" r="2"></circle><circle cx="629.7" cy="294.1" r="2"></circle><circle cx="632.1" cy="467.1" r="2"></circle><circle cx="634.5" cy="522.7" r="2"></circle><circle cx="636.8" cy="524.4" r="2"></circle><circle cx="639.2" cy="524.9" r="2"></circle><circle cx="641.6" cy="503.8" r="2"></circle><circle cx="644" cy="448.5" r="2"></circle><circle cx="646.4" cy="486.5" r="2"></circle><circle cx="648.8" cy="513.5" r="2"></circle><circle cx="651.1" cy="512.4" r="2"></circle><circle cx="653.5" cy="457.2" r="2"></circle><circle cx="655.9" cy="513.9" r="2"></circle><circle cx="658.3" cy="522.3" r="2"></circle><circle cx="660.7" cy="499.9" r="2"></circle><circle cx="663.1" cy="499.7" r="2"></circle><circle cx="665.5" cy="525.5" r="2"></circle><circle cx="667.8" cy="525.9" r="2"></circle><circle cx="670.2" cy="525.9" r="2"></circle><circle cx="672.6" cy="526.2" r="2"></circle><circle cx="675" cy="526.1" r="2"></circle><circle cx="677.4" cy="526" r="2"></circle><circle cx="679.8" cy="525.1" r="2"></circle><circle cx="682.1" cy="520.9" r="2"></circle><circle cx="684.5" cy="523.5" r="2"></circle><circle cx="686.9" cy="524.7" r="2"></circle><circle cx="689.3" cy="525.9" r="2"></circle><circle cx="691.7" cy="525.7" r="2"></circle><circle cx="694.1" cy="526.2" r="2"></circle><circle cx="696.5" cy="526.1" r="2"></circle><circle cx="698.8" cy="526.1" r="2"></circle><circle cx="701.2" cy="519.1" r="2"></circle><circle cx="703.6" cy="488.6" r="2"></circle></g></g></g></g></g><g class="SourcesFooter" style="fill:#777"><g style="fill:#777"><text font-size="12.60" x="15.0" y="582.5"><tspan x="15" y="582.48">Source: Our World in Data (2017)</tspan></text></g><text font-size="12.60" x="796.4" y="582.5"><tspan x="796.444" y="582.48"><a style="fill: #777;" class="cclogo" href="http://creativecommons.org/licenses/by/4.0/deed.en_US" target="_blank">CC BY</a></tspan></text></g></svg>