<svg xmlns="http://www.w3.org/2000/svg" version="1.1" style="font-family:Lato, &#x27;Helvetica Neue&#x27;, Helvetica, Arial, &#x27;Liberation Sans&#x27;, sans-serif;font-size:18px;background-color:#ffffff;text-rendering:geometricPrecision;-webkit-font-smoothing:antialiased" width="850" height="600" viewBox="0 0 850 600"><defs><style>@import url(https://ourworldindata.org/fonts.css)</style></defs><defs><pattern id="noDataPattern" patternUnits="userSpaceOnUse" width="4" height="4" patternTransform="rotate(-45 2 2)"><path d="M -1,2 l 6,0" stroke="#ccc" stroke-width="0.7"></path></pattern></defs><rect class="background-fill" fill="#ffffff" width="850" height="600"></rect><g id="header" class="HeaderView"><g id="logo" transform="translate(769, 16) scale(1)"><svg className="owidLogo" xmlns="http://www.w3.org/2000/svg" width="65" height="36" viewBox="0 0 65 36"  fill="none"><path fill="#002147" d="M0 0h64.8v36H0z"/><path fill="#CE261E" d="M0 33.3h64.8V36H0z"/><path fill="#fff" d="M13.796 10.575c0 .636-.106 1.226-.318 1.77a4.193 4.193 0 0 1-.894 1.404 4.084 4.084 0 0 1-1.386.93c-.54.22-1.138.33-1.794.33-.656 0-1.256-.11-1.8-.33a4.149 4.149 0 0 1-1.392-.93 4.193 4.193 0 0 1-.894-1.404A4.833 4.833 0 0 1 5 10.575c0-.636.106-1.224.318-1.764a4.18 4.18 0 0 1 .894-1.41 4.076 4.076 0 0 1 1.392-.924 4.684 4.684 0 0 1 1.8-.336c.656 0 1.254.112 1.794.336.54.224 1.002.534 1.386.93.384.392.682.86.894 1.404.212.54.318 1.128.318 1.764Zm-1.656 0c0-.476-.064-.902-.192-1.278a2.671 2.671 0 0 0-.54-.966 2.332 2.332 0 0 0-.864-.606 2.94 2.94 0 0 0-1.14-.21c-.424 0-.806.07-1.146.21-.34.14-.63.342-.87.606a2.742 2.742 0 0 0-.546.966 3.955 3.955 0 0 0-.192 1.278c0 .476.064.904.192 1.284.128.376.31.696.546.96.24.26.53.46.87.6.34.14.722.21 1.146.21.424 0 .804-.07 1.14-.21.34-.14.628-.34.864-.6.236-.264.416-.584.54-.96a4.01 4.01 0 0 0 .192-1.284ZM16.104 8.757v3.912c0 .376.086.668.258.876.176.204.438.306.786.306.256 0 .496-.056.72-.168a2.58 2.58 0 0 0 .636-.474V8.757h1.482v6.156h-.906c-.192 0-.318-.09-.378-.27l-.102-.492a4.65 4.65 0 0 1-.396.354 2.577 2.577 0 0 1-.438.27 2.35 2.35 0 0 1-.498.168 2.345 2.345 0 0 1-.57.066c-.336 0-.634-.056-.894-.168a1.821 1.821 0 0 1-.648-.486 2.157 2.157 0 0 1-.402-.738 3.233 3.233 0 0 1-.132-.948V8.757h1.482ZM21.328 14.913V8.757h.87c.152 0 .258.028.318.084.06.056.1.152.12.288l.09.744c.22-.38.478-.68.774-.9.296-.22.628-.33.996-.33.304 0 .556.07.756.21l-.192 1.11c-.012.072-.038.124-.078.156a.278.278 0 0 1-.162.042 1.01 1.01 0 0 1-.246-.042 1.646 1.646 0 0 0-.414-.042c-.308 0-.572.086-.792.258-.22.168-.406.416-.558.744v3.834h-1.482ZM27.347 6.237h1.356a.57.57 0 0 1 .348.102c.096.064.16.152.192.264l1.476 5.19c.036.128.068.268.096.42.032.148.062.306.09.474a5.968 5.968 0 0 1 .228-.894l1.704-5.19a.575.575 0 0 1 .186-.252.543.543 0 0 1 .348-.114h.474a.57.57 0 0 1 .348.102.497.497 0 0 1 .192.264l1.692 5.19c.088.256.164.54.228.852.028-.156.056-.306.084-.45.032-.144.064-.278.096-.402l1.476-5.19c.028-.1.09-.186.186-.258a.563.563 0 0 1 .348-.108h1.266l-2.694 8.676h-1.458l-1.896-5.928-.078-.246a9.504 9.504 0 0 1-.072-.282c-.024.1-.05.194-.078.282-.024.088-.048.17-.072.246l-1.914 5.928H30.04l-2.694-8.676ZM42.771 8.661c.46 0 .876.074 1.248.222.376.148.696.358.96.63s.468.604.612.996c.144.392.216.83.216 1.314 0 .488-.072.928-.216 1.32a2.85 2.85 0 0 1-.612 1.002 2.653 2.653 0 0 1-.96.636 3.35 3.35 0 0 1-1.248.222c-.46 0-.878-.074-1.254-.222a2.712 2.712 0 0 1-.966-.636 2.922 2.922 0 0 1-.618-1.002 3.807 3.807 0 0 1-.216-1.32c0-.484.072-.922.216-1.314.148-.392.354-.724.618-.996.268-.272.59-.482.966-.63a3.397 3.397 0 0 1 1.254-.222Zm0 5.202c.512 0 .89-.172 1.134-.516.248-.344.372-.848.372-1.512s-.124-1.17-.372-1.518c-.244-.348-.622-.522-1.134-.522-.52 0-.904.176-1.152.528-.248.348-.372.852-.372 1.512s.124 1.164.372 1.512c.248.344.632.516 1.152.516ZM46.723 14.913V8.757h.87c.152 0 .258.028.318.084.06.056.1.152.12.288l.09.744c.22-.38.478-.68.774-.9.296-.22.628-.33.996-.33.304 0 .556.07.756.21l-.192 1.11c-.012.072-.038.124-.078.156a.278.278 0 0 1-.162.042 1.01 1.01 0 0 1-.246-.042 1.646 1.646 0 0 0-.414-.042c-.308 0-.572.086-.792.258-.22.168-.406.416-.558.744v3.834h-1.482ZM52.96 5.997v8.916h-1.482V5.997h1.482ZM58.732 14.913c-.192 0-.318-.09-.378-.27l-.12-.594a3.68 3.68 0 0 1-.402.39c-.14.116-.292.216-.456.3-.16.084-.334.148-.522.192a2.372 2.372 0 0 1-.6.072c-.336 0-.644-.07-.924-.21a2.098 2.098 0 0 1-.726-.606 3.033 3.033 0 0 1-.468-.99 5.072 5.072 0 0 1-.162-1.344c0-.456.062-.88.186-1.272s.302-.732.534-1.02c.232-.288.51-.512.834-.672a2.384 2.384 0 0 1 1.092-.246 2.103 2.103 0 0 1 1.536.606V5.997h1.482v8.916h-.906Zm-1.974-1.086c.308 0 .57-.064.786-.192.216-.128.42-.31.612-.546v-2.76a1.452 1.452 0 0 0-.552-.432 1.597 1.597 0 0 0-.636-.126c-.224 0-.428.042-.612.126a1.21 1.21 0 0 0-.462.384c-.124.168-.22.384-.288.648-.068.26-.102.568-.102.924 0 .36.028.666.084.918.06.248.144.452.252.612.108.156.24.27.396.342.156.068.33.102.522.102ZM16.331 20.757v6.156H14.85v-6.156h1.481Zm.223-1.794a.844.844 0 0 1-.078.36.963.963 0 0 1-.21.294.995.995 0 0 1-.3.204.963.963 0 0 1-.372.072.948.948 0 0 1-.367-.072 1.018 1.018 0 0 1-.498-.498.963.963 0 0 1 0-.732.995.995 0 0 1 .205-.3.929.929 0 0 1 .293-.198.899.899 0 0 1 .738 0 .912.912 0 0 1 .3.198.943.943 0 0 1 .288.672ZM17.771 26.913v-6.156h.906c.192 0 .318.09.378.27l.102.486a2.934 2.934 0 0 1 .828-.618c.156-.076.322-.134.498-.174.176-.04.368-.06.576-.06.336 0 .634.058.894.174.26.112.476.272.648.48.176.204.308.45.396.738.092.284.138.598.138.942v3.918h-1.482v-3.918c0-.376-.088-.666-.264-.87-.172-.208-.432-.312-.78-.312-.256 0-.496.058-.72.174a2.58 2.58 0 0 0-.636.474v4.452h-1.482ZM34.22 22.575c0 .636-.106 1.22-.318 1.752-.212.532-.51.99-.894 1.374a4 4 0 0 1-1.386.894 4.87 4.87 0 0 1-1.794.318h-3.312v-8.676h3.312a4.79 4.79 0 0 1 1.794.324 4 4 0 0 1 1.386.894c.384.38.682.836.894 1.368.212.532.318 1.116.318 1.752Zm-1.65 0c0-.476-.064-.902-.192-1.278a2.68 2.68 0 0 0-.546-.96 2.332 2.332 0 0 0-.864-.606 2.94 2.94 0 0 0-1.14-.21h-1.686v6.108h1.686c.424 0 .804-.07 1.14-.21.34-.14.628-.34.864-.6a2.75 2.75 0 0 0 .546-.96 4.01 4.01 0 0 0 .192-1.284ZM39.98 26.913h-.665c-.14 0-.25-.02-.33-.06-.08-.044-.14-.13-.18-.258l-.132-.438c-.156.14-.31.264-.462.372a2.804 2.804 0 0 1-.462.264c-.16.072-.33.126-.51.162-.18.036-.38.054-.6.054-.26 0-.5-.034-.72-.102a1.618 1.618 0 0 1-.57-.318 1.448 1.448 0 0 1-.366-.522 1.852 1.852 0 0 1-.132-.726c0-.232.06-.46.18-.684.124-.228.328-.432.612-.612.284-.184.662-.336 1.134-.456.472-.12 1.058-.188 1.758-.204v-.36c0-.412-.088-.716-.264-.912-.172-.2-.424-.3-.756-.3a1.837 1.837 0 0 0-1.02.276c-.116.068-.224.13-.324.186a.664.664 0 0 1-.33.084.429.429 0 0 1-.258-.078.614.614 0 0 1-.174-.192l-.27-.474c.708-.648 1.562-.972 2.562-.972.36 0 .68.06.96.18.284.116.524.28.72.492.196.208.344.458.444.75.104.292.156.612.156.96v3.888Zm-2.88-.924c.153 0 .293-.014.42-.042.129-.028.249-.07.36-.126.117-.056.227-.124.33-.204.109-.084.217-.182.325-.294v-1.038c-.432.02-.794.058-1.086.114-.288.052-.52.12-.696.204a.923.923 0 0 0-.378.294.664.664 0 0 0-.108.366c0 .26.076.446.228.558.156.112.358.168.606.168ZM43.22 27.01c-.532 0-.942-.15-1.23-.45-.288-.305-.432-.723-.432-1.255v-3.438h-.624a.31.31 0 0 1-.21-.078c-.056-.052-.084-.13-.084-.234v-.588l.99-.162.312-1.68a.302.302 0 0 1 .108-.186.365.365 0 0 1 .222-.066h.768v1.938h1.62v1.056h-1.62v3.336c0 .192.048.342.144.45a.488.488 0 0 0 .384.162c.092 0 .168-.01.228-.03.064-.024.118-.048.162-.072.048-.024.09-.046.126-.066a.194.194 0 0 1 .108-.036.16.16 0 0 1 .108.036c.028.02.058.052.09.096l.444.72c-.216.18-.464.316-.744.408a2.77 2.77 0 0 1-.87.138ZM50.423 26.913h-.666c-.14 0-.25-.02-.33-.06-.08-.044-.14-.13-.18-.258l-.132-.438c-.156.14-.31.264-.462.372a2.804 2.804 0 0 1-.462.264c-.16.072-.33.126-.51.162-.18.036-.38.054-.6.054-.26 0-.5-.034-.72-.102a1.618 1.618 0 0 1-.57-.318 1.448 1.448 0 0 1-.366-.522 1.852 1.852 0 0 1-.132-.726c0-.232.06-.46.18-.684.124-.228.328-.432.612-.612.284-.184.662-.336 1.134-.456.472-.12 1.058-.188 1.758-.204v-.36c0-.412-.088-.716-.264-.912-.172-.2-.424-.3-.756-.3a1.837 1.837 0 0 0-1.02.276c-.116.068-.224.13-.324.186a.664.664 0 0 1-.33.084.429.429 0 0 1-.258-.078.614.614 0 0 1-.174-.192l-.27-.474c.708-.648 1.562-.972 2.562-.972.36 0 .68.06.96.18.284.116.524.28.72.492.196.208.344.458.444.75.104.292.156.612.156.96v3.888Zm-2.88-.924c.152 0 .292-.014.42-.042.128-.028.248-.07.36-.126.116-.056.226-.124.33-.204.108-.084.216-.182.324-.294v-1.038c-.432.02-.794.058-1.086.114-.288.052-.52.12-.696.204a.923.923 0 0 0-.378.294.664.664 0 0 0-.108.366c0 .26.076.446.228.558.156.112.358.168.606.168Z"/></svg></g><a id="title" href="https://ourworldindata.org/grapher/democracy-index-population-weighted-polity" style="font-family:&#x27;Playfair Display&#x27;, Georgia, &#x27;Times New Roman&#x27;, &#x27;Liberation Serif&#x27;, serif" target="_blank" rel="noopener"><text font-size="24.75" font-weight="600" x="16.0" y="40.0" fill="#5b5b5b"><tspan x="16" y="40.0075">Democracy index</tspan></text></a><g id="subtitle" class="markdown-text-wrap"><text x="16.0" y="63.9" style="font-size:14.625px;line-height:1.2" fill="#5b5b5b"><tspan x="16" y="63.9">Based on the estimates and index by <tspan class="dod-span" data-id="polity">Polity 5 (2020)</tspan>, weighted by countries&#x27; populations. It captures the extent to</tspan><tspan x="16" y="81.4">which open, multi-party, and competitive elections choose a chief executive who faces comprehensive institutional</tspan><tspan x="16" y="99.0">constraints, and political participation is competitive. It ranges from -10 to 10 (fully democratic).</tspan></text></g></g><g id="chart-area" style="pointer-events:none"><g id="horizontal-axis" class="HorizontalAxis"><g id="tick-marks"><line id="1800" x1="40.6" y1="530.8" x2="40.6" y2="536.3" stroke="#999" stroke-width="1"></line><line id="2018" x1="755.8" y1="530.8" x2="755.8" y2="536.3" stroke="#999" stroke-width="1"></line><line id="1850" x1="204.6" y1="530.8" x2="204.6" y2="536.3" stroke="#999" stroke-width="1"></line><line id="1900" x1="368.6" y1="530.8" x2="368.6" y2="536.3" stroke="#999" stroke-width="1"></line><line id="1950" x1="532.7" y1="530.8" x2="532.7" y2="536.3" stroke="#999" stroke-width="1"></line><line id="2000" x1="696.7" y1="530.8" x2="696.7" y2="536.3" stroke="#999" stroke-width="1"></line></g><g id="tick-labels"><text x="40.575" y="549.8" fill="#5b5b5b" text-anchor="start" font-size="13.5">1800</text><text x="755.765" y="549.8" fill="#5b5b5b" text-anchor="end" font-size="13.5">2018</text><text x="204.6" y="549.8" fill="#5b5b5b" text-anchor="middle" font-size="13.5">1850</text><text x="368.6" y="549.8" fill="#5b5b5b" text-anchor="middle" font-size="13.5">1900</text><text x="532.7" y="549.8" fill="#5b5b5b" text-anchor="middle" font-size="13.5">1950</text><text x="696.7" y="549.8" fill="#5b5b5b" text-anchor="middle" font-size="13.5">2000</text></g></g><g id="vertical-axis" class="VerticalAxis"><g id="tick-labels"><text x="35.58" y="531.3" dy=".32em" text-anchor="end" fill="#5b5b5b" font-size="13.5">-10</text><text x="35.58" y="429.6" dy=".32em" text-anchor="end" fill="#5b5b5b" font-size="13.5">-5</text><text x="35.58" y="327.8" dy=".32em" text-anchor="end" fill="#5b5b5b" font-size="13.5">0</text><text x="35.58" y="226.1" dy=".32em" text-anchor="end" fill="#5b5b5b" font-size="13.5">5</text><text x="35.58" y="124.3" dy=".32em" text-anchor="end" fill="#5b5b5b" font-size="13.5">10</text></g></g><g id="horizontal-grid-lines" class="AxisGridLines horizontalLines"><line id="-10" x1="40.58" y1="531.3" x2="755.76" y2="531.3" stroke="#ddd" stroke-width="1" stroke-dasharray="3,2"></line><line id="-5" x1="40.58" y1="429.6" x2="755.76" y2="429.6" stroke="#ddd" stroke-width="1" stroke-dasharray="3,2"></line><line id="0" x1="40.58" y1="327.8" x2="755.76" y2="327.8" stroke="#999" stroke-width="1"></line><line id="5" x1="40.58" y1="226.1" x2="755.76" y2="226.1" stroke="#ddd" stroke-width="1" stroke-dasharray="3,2"></line><line id="10" x1="40.58" y1="124.3" x2="755.76" y2="124.3" stroke="#ddd" stroke-width="1" stroke-dasharray="3,2"></line></g><g id="line-labels" class="LineLabels"><g id="text-annotations"></g><g id="text-values"></g><g id="text-labels"></g><g id="text-annotations"></g><g id="text-values"></g><g id="text-labels"><text font-size="13.50" font-weight="400" x="759.8" y="271.3" fill="#4c6a9c" opacity="1" text-anchor="start"><tspan x="759.765" y="271.295">World</tspan></text></g></g><g id="lines"><path fill="none" stroke-linecap="butt" stroke-linejoin="round" stroke="#ffffff" stroke-width="2.5" id="outline__World" d="M40.6 464.4L43.9 462.9L47.1 464L50.4 463.9L53.7 463.8L57 462.5L60.3 463.6L63.5 462.4L66.8 457.5L70.1 457.3L73.4 457.2L76.7 457L79.9 456.7L83.2 456.4L86.5 455.6L89.8 455.3L93.1 455.1L96.3 454.8L99.6 454.5L102.9 454.2L106.2 452.1L109.5 451.7L112.8 450.5L116 451.2L119.3 450.9L122.6 450.2L125.9 449.9L129.2 449.6L132.4 449.4L135.7 448L139 444.3L142.3 444L145.6 443.4L148.8 443.2L152.1 443.1L155.4 443.5L158.7 441.5L162 436.3L165.2 435.5L168.5 435L171.8 434.8L175.1 434.4L178.4 434.8L181.6 434.5L184.9 434.3L188.2 434.5L191.5 433.2L194.8 431.7L198 422.7L201.3 421.8L204.6 422.1L207.9 429.1L211.2 437.7L214.5 437.3L217.7 437.7L221 435.1L224.3 434.7L227.6 434.2L230.9 433.4L234.1 431.1L237.4 370.3L240.7 369.8L244 431.2L247.3 428.9L250.5 428.8L253.8 420.5L257.1 420.6L260.4 417.9L263.7 417.5L266.9 412.3L270.2 410.3L273.5 407L276.8 403.5L280.1 404.4L283.3 402.6L286.6 399.4L289.9 396.6L293.2 396.2L296.5 396.2L299.7 394L303 389.5L306.3 389.1L309.6 388.7L312.9 388.3L316.2 387.9L319.4 387.6L322.7 388L326 387.7L329.3 386.7L332.6 385.3L335.8 378.9L339.1 378.7L342.4 378.4L345.7 378.2L349 378.1L352.2 378.3L355.5 378.2L358.8 377.9L362.1 376.1L365.4 375.9L368.6 372.4L371.9 370.3L375.2 369.8L378.5 369.1L381.8 369.2L385 366.1L388.3 360.7L391.6 361.2L394.9 357.4L398.2 355.1L401.5 353.4L404.7 318.6L408 286.4L411.3 316.8L414.6 342.6L417.9 342.6L421.1 341.9L424.4 334.2L427.7 326.4L431 324.1L434.3 323L437.5 322.6L440.8 336.1L444.1 341.8L447.4 343.6L450.7 344.8L453.9 348.7L457.2 351.7L460.5 353.5L463.8 356.6L467.1 358.7L470.3 357.5L473.6 357.5L476.9 374.7L480.2 376L483.5 375.4L486.7 376.1L490 339.1L493.3 339.5L496.6 341.1L499.9 349.6L503.2 347.6L506.4 349.5L509.7 345.9L513 339.1L516.3 329L519.6 347.2L522.8 345.2L526.1 345.8L529.4 358.3L532.7 360.1L536 358.8L539.2 337.5L542.5 336.5L545.8 337.7L549.1 337.2L552.4 336.1L555.6 335L558.9 338.2L562.2 338.6L565.5 333.4L568.8 336.5L572 339.5L575.3 338.5L578.6 343.9L581.9 347.9L585.2 361.1L588.4 354.7L591.7 354.4L595 350.8L598.3 350.9L601.6 355.3L604.9 356.2L608.1 350.6L611.4 346.9L614.7 355.9L618 356L621.3 352.5L624.5 346.5L627.8 341.4L631.1 343.9L634.4 343L637.7 344L640.9 339.4L644.2 344.6L647.5 337.8L650.8 335.5L654.1 332.7L657.3 322.7L660.6 315L663.9 304.7L667.2 299L670.5 290.7L673.7 291.6L677 288.4L680.3 287.8L683.6 288.3L686.9 285.8L690.2 277.9L693.4 273.6L696.7 270L700 268.6L703.3 268.3L706.6 267.5L709.8 266.9L713.1 265.9L716.4 267.2L719.7 269L723 266L726.2 262.8L729.5 261.9L732.8 259.7L736.1 259.9L739.4 258.8L742.6 262.7L745.9 259.5L749.2 264L752.5 264.8L755.8 266.3"></path><path fill="none" stroke-linecap="butt" stroke-linejoin="round" stroke="#4C6A9C" stroke-width="1.5" id="line__World" d="M40.6 464.4L43.9 462.9L47.1 464L50.4 463.9L53.7 463.8L57 462.5L60.3 463.6L63.5 462.4L66.8 457.5L70.1 457.3L73.4 457.2L76.7 457L79.9 456.7L83.2 456.4L86.5 455.6L89.8 455.3L93.1 455.1L96.3 454.8L99.6 454.5L102.9 454.2L106.2 452.1L109.5 451.7L112.8 450.5L116 451.2L119.3 450.9L122.6 450.2L125.9 449.9L129.2 449.6L132.4 449.4L135.7 448L139 444.3L142.3 444L145.6 443.4L148.8 443.2L152.1 443.1L155.4 443.5L158.7 441.5L162 436.3L165.2 435.5L168.5 435L171.8 434.8L175.1 434.4L178.4 434.8L181.6 434.5L184.9 434.3L188.2 434.5L191.5 433.2L194.8 431.7L198 422.7L201.3 421.8L204.6 422.1L207.9 429.1L211.2 437.7L214.5 437.3L217.7 437.7L221 435.1L224.3 434.7L227.6 434.2L230.9 433.4L234.1 431.1L237.4 370.3L240.7 369.8L244 431.2L247.3 428.9L250.5 428.8L253.8 420.5L257.1 420.6L260.4 417.9L263.7 417.5L266.9 412.3L270.2 410.3L273.5 407L276.8 403.5L280.1 404.4L283.3 402.6L286.6 399.4L289.9 396.6L293.2 396.2L296.5 396.2L299.7 394L303 389.5L306.3 389.1L309.6 388.7L312.9 388.3L316.2 387.9L319.4 387.6L322.7 388L326 387.7L329.3 386.7L332.6 385.3L335.8 378.9L339.1 378.7L342.4 378.4L345.7 378.2L349 378.1L352.2 378.3L355.5 378.2L358.8 377.9L362.1 376.1L365.4 375.9L368.6 372.4L371.9 370.3L375.2 369.8L378.5 369.1L381.8 369.2L385 366.1L388.3 360.7L391.6 361.2L394.9 357.4L398.2 355.1L401.5 353.4L404.7 318.6L408 286.4L411.3 316.8L414.6 342.6L417.9 342.6L421.1 341.9L424.4 334.2L427.7 326.4L431 324.1L434.3 323L437.5 322.6L440.8 336.1L444.1 341.8L447.4 343.6L450.7 344.8L453.9 348.7L457.2 351.7L460.5 353.5L463.8 356.6L467.1 358.7L470.3 357.5L473.6 357.5L476.9 374.7L480.2 376L483.5 375.4L486.7 376.1L490 339.1L493.3 339.5L496.6 341.1L499.9 349.6L503.2 347.6L506.4 349.5L509.7 345.9L513 339.1L516.3 329L519.6 347.2L522.8 345.2L526.1 345.8L529.4 358.3L532.7 360.1L536 358.8L539.2 337.5L542.5 336.5L545.8 337.7L549.1 337.2L552.4 336.1L555.6 335L558.9 338.2L562.2 338.6L565.5 333.4L568.8 336.5L572 339.5L575.3 338.5L578.6 343.9L581.9 347.9L585.2 361.1L588.4 354.7L591.7 354.4L595 350.8L598.3 350.9L601.6 355.3L604.9 356.2L608.1 350.6L611.4 346.9L614.7 355.9L618 356L621.3 352.5L624.5 346.5L627.8 341.4L631.1 343.9L634.4 343L637.7 344L640.9 339.4L644.2 344.6L647.5 337.8L650.8 335.5L654.1 332.7L657.3 322.7L660.6 315L663.9 304.7L667.2 299L670.5 290.7L673.7 291.6L677 288.4L680.3 287.8L683.6 288.3L686.9 285.8L690.2 277.9L693.4 273.6L696.7 270L700 268.6L703.3 268.3L706.6 267.5L709.8 266.9L713.1 265.9L716.4 267.2L719.7 269L723 266L726.2 262.8L729.5 261.9L732.8 259.7L736.1 259.9L739.4 258.8L742.6 262.7L745.9 259.5L749.2 264L752.5 264.8L755.8 266.3"></path></g><g id="markers"><g id="markers__World"><circle id="1800" cx="40.6" cy="464.4" r="1.8" fill="#4C6A9C"></circle><circle id="1801" cx="43.9" cy="462.9" r="1.8" fill="#4C6A9C"></circle><circle id="1802" cx="47.1" cy="464" r="1.8" fill="#4C6A9C"></circle><circle id="1803" cx="50.4" cy="463.9" r="1.8" fill="#4C6A9C"></circle><circle id="1804" cx="53.7" cy="463.8" r="1.8" fill="#4C6A9C"></circle><circle id="1805" cx="57" cy="462.5" r="1.8" fill="#4C6A9C"></circle><circle id="1806" cx="60.3" cy="463.6" r="1.8" fill="#4C6A9C"></circle><circle id="1807" cx="63.5" cy="462.4" r="1.8" fill="#4C6A9C"></circle><circle id="1808" cx="66.8" cy="457.5" r="1.8" fill="#4C6A9C"></circle><circle id="1809" cx="70.1" cy="457.3" r="1.8" fill="#4C6A9C"></circle><circle id="1810" cx="73.4" cy="457.2" r="1.8" fill="#4C6A9C"></circle><circle id="1811" cx="76.7" cy="457" r="1.8" fill="#4C6A9C"></circle><circle id="1812" cx="79.9" cy="456.7" r="1.8" fill="#4C6A9C"></circle><circle id="1813" cx="83.2" cy="456.4" r="1.8" fill="#4C6A9C"></circle><circle id="1814" cx="86.5" cy="455.6" r="1.8" fill="#4C6A9C"></circle><circle id="1815" cx="89.8" cy="455.3" r="1.8" fill="#4C6A9C"></circle><circle id="1816" cx="93.1" cy="455.1" r="1.8" fill="#4C6A9C"></circle><circle id="1817" cx="96.3" cy="454.8" r="1.8" fill="#4C6A9C"></circle><circle id="1818" cx="99.6" cy="454.5" r="1.8" fill="#4C6A9C"></circle><circle id="1819" cx="102.9" cy="454.2" r="1.8" fill="#4C6A9C"></circle><circle id="1820" cx="106.2" cy="452.1" r="1.8" fill="#4C6A9C"></circle><circle id="1821" cx="109.5" cy="451.7" r="1.8" fill="#4C6A9C"></circle><circle id="1822" cx="112.8" cy="450.5" r="1.8" fill="#4C6A9C"></circle><circle id="1823" cx="116" cy="451.2" r="1.8" fill="#4C6A9C"></circle><circle id="1824" cx="119.3" cy="450.9" r="1.8" fill="#4C6A9C"></circle><circle id="1825" cx="122.6" cy="450.2" r="1.8" fill="#4C6A9C"></circle><circle id="1826" cx="125.9" cy="449.9" r="1.8" fill="#4C6A9C"></circle><circle id="1827" cx="129.2" cy="449.6" r="1.8" fill="#4C6A9C"></circle><circle id="1828" cx="132.4" cy="449.4" r="1.8" fill="#4C6A9C"></circle><circle id="1829" cx="135.7" cy="448" r="1.8" fill="#4C6A9C"></circle><circle id="1830" cx="139" cy="444.3" r="1.8" fill="#4C6A9C"></circle><circle id="1831" cx="142.3" cy="444" r="1.8" fill="#4C6A9C"></circle><circle id="1832" cx="145.6" cy="443.4" r="1.8" fill="#4C6A9C"></circle><circle id="1833" cx="148.8" cy="443.2" r="1.8" fill="#4C6A9C"></circle><circle id="1834" cx="152.1" cy="443.1" r="1.8" fill="#4C6A9C"></circle><circle id="1835" cx="155.4" cy="443.5" r="1.8" fill="#4C6A9C"></circle><circle id="1836" cx="158.7" cy="441.5" r="1.8" fill="#4C6A9C"></circle><circle id="1837" cx="162" cy="436.3" r="1.8" fill="#4C6A9C"></circle><circle id="1838" cx="165.2" cy="435.5" r="1.8" fill="#4C6A9C"></circle><circle id="1839" cx="168.5" cy="435" r="1.8" fill="#4C6A9C"></circle><circle id="1840" cx="171.8" cy="434.8" r="1.8" fill="#4C6A9C"></circle><circle id="1841" cx="175.1" cy="434.4" r="1.8" fill="#4C6A9C"></circle><circle id="1842" cx="178.4" cy="434.8" r="1.8" fill="#4C6A9C"></circle><circle id="1843" cx="181.6" cy="434.5" r="1.8" fill="#4C6A9C"></circle><circle id="1844" cx="184.9" cy="434.3" r="1.8" fill="#4C6A9C"></circle><circle id="1845" cx="188.2" cy="434.5" r="1.8" fill="#4C6A9C"></circle><circle id="1846" cx="191.5" cy="433.2" r="1.8" fill="#4C6A9C"></circle><circle id="1847" cx="194.8" cy="431.7" r="1.8" fill="#4C6A9C"></circle><circle id="1848" cx="198" cy="422.7" r="1.8" fill="#4C6A9C"></circle><circle id="1849" cx="201.3" cy="421.8" r="1.8" fill="#4C6A9C"></circle><circle id="1850" cx="204.6" cy="422.1" r="1.8" fill="#4C6A9C"></circle><circle id="1851" cx="207.9" cy="429.1" r="1.8" fill="#4C6A9C"></circle><circle id="1852" cx="211.2" cy="437.7" r="1.8" fill="#4C6A9C"></circle><circle id="1853" cx="214.5" cy="437.3" r="1.8" fill="#4C6A9C"></circle><circle id="1854" cx="217.7" cy="437.7" r="1.8" fill="#4C6A9C"></circle><circle id="1855" cx="221" cy="435.1" r="1.8" fill="#4C6A9C"></circle><circle id="1856" cx="224.3" cy="434.7" r="1.8" fill="#4C6A9C"></circle><circle id="1857" cx="227.6" cy="434.2" r="1.8" fill="#4C6A9C"></circle><circle id="1858" cx="230.9" cy="433.4" r="1.8" fill="#4C6A9C"></circle><circle id="1859" cx="234.1" cy="431.1" r="1.8" fill="#4C6A9C"></circle><circle id="1860" cx="237.4" cy="370.3" r="1.8" fill="#4C6A9C"></circle><circle id="1861" cx="240.7" cy="369.8" r="1.8" fill="#4C6A9C"></circle><circle id="1862" cx="244" cy="431.2" r="1.8" fill="#4C6A9C"></circle><circle id="1863" cx="247.3" cy="428.9" r="1.8" fill="#4C6A9C"></circle><circle id="1864" cx="250.5" cy="428.8" r="1.8" fill="#4C6A9C"></circle><circle id="1865" cx="253.8" cy="420.5" r="1.8" fill="#4C6A9C"></circle><circle id="1866" cx="257.1" cy="420.6" r="1.8" fill="#4C6A9C"></circle><circle id="1867" cx="260.4" cy="417.9" r="1.8" fill="#4C6A9C"></circle><circle id="1868" cx="263.7" cy="417.5" r="1.8" fill="#4C6A9C"></circle><circle id="1869" cx="266.9" cy="412.3" r="1.8" fill="#4C6A9C"></circle><circle id="1870" cx="270.2" cy="410.3" r="1.8" fill="#4C6A9C"></circle><circle id="1871" cx="273.5" cy="407" r="1.8" fill="#4C6A9C"></circle><circle id="1872" cx="276.8" cy="403.5" r="1.8" fill="#4C6A9C"></circle><circle id="1873" cx="280.1" cy="404.4" r="1.8" fill="#4C6A9C"></circle><circle id="1874" cx="283.3" cy="402.6" r="1.8" fill="#4C6A9C"></circle><circle id="1875" cx="286.6" cy="399.4" r="1.8" fill="#4C6A9C"></circle><circle id="1876" cx="289.9" cy="396.6" r="1.8" fill="#4C6A9C"></circle><circle id="1877" cx="293.2" cy="396.2" r="1.8" fill="#4C6A9C"></circle><circle id="1878" cx="296.5" cy="396.2" r="1.8" fill="#4C6A9C"></circle><circle id="1879" cx="299.7" cy="394" r="1.8" fill="#4C6A9C"></circle><circle id="1880" cx="303" cy="389.5" r="1.8" fill="#4C6A9C"></circle><circle id="1881" cx="306.3" cy="389.1" r="1.8" fill="#4C6A9C"></circle><circle id="1882" cx="309.6" cy="388.7" r="1.8" fill="#4C6A9C"></circle><circle id="1883" cx="312.9" cy="388.3" r="1.8" fill="#4C6A9C"></circle><circle id="1884" cx="316.2" cy="387.9" r="1.8" fill="#4C6A9C"></circle><circle id="1885" cx="319.4" cy="387.6" r="1.8" fill="#4C6A9C"></circle><circle id="1886" cx="322.7" cy="388" r="1.8" fill="#4C6A9C"></circle><circle id="1887" cx="326" cy="387.7" r="1.8" fill="#4C6A9C"></circle><circle id="1888" cx="329.3" cy="386.7" r="1.8" fill="#4C6A9C"></circle><circle id="1889" cx="332.6" cy="385.3" r="1.8" fill="#4C6A9C"></circle><circle id="1890" cx="335.8" cy="378.9" r="1.8" fill="#4C6A9C"></circle><circle id="1891" cx="339.1" cy="378.7" r="1.8" fill="#4C6A9C"></circle><circle id="1892" cx="342.4" cy="378.4" r="1.8" fill="#4C6A9C"></circle><circle id="1893" cx="345.7" cy="378.2" r="1.8" fill="#4C6A9C"></circle><circle id="1894" cx="349" cy="378.1" r="1.8" fill="#4C6A9C"></circle><circle id="1895" cx="352.2" cy="378.3" r="1.8" fill="#4C6A9C"></circle><circle id="1896" cx="355.5" cy="378.2" r="1.8" fill="#4C6A9C"></circle><circle id="1897" cx="358.8" cy="377.9" r="1.8" fill="#4C6A9C"></circle><circle id="1898" cx="362.1" cy="376.1" r="1.8" fill="#4C6A9C"></circle><circle id="1899" cx="365.4" cy="375.9" r="1.8" fill="#4C6A9C"></circle><circle id="1900" cx="368.6" cy="372.4" r="1.8" fill="#4C6A9C"></circle><circle id="1901" cx="371.9" cy="370.3" r="1.8" fill="#4C6A9C"></circle><circle id="1902" cx="375.2" cy="369.8" r="1.8" fill="#4C6A9C"></circle><circle id="1903" cx="378.5" cy="369.1" r="1.8" fill="#4C6A9C"></circle><circle id="1904" cx="381.8" cy="369.2" r="1.8" fill="#4C6A9C"></circle><circle id="1905" cx="385" cy="366.1" r="1.8" fill="#4C6A9C"></circle><circle id="1906" cx="388.3" cy="360.7" r="1.8" fill="#4C6A9C"></circle><circle id="1907" cx="391.6" cy="361.2" r="1.8" fill="#4C6A9C"></circle><circle id="1908" cx="394.9" cy="357.4" r="1.8" fill="#4C6A9C"></circle><circle id="1909" cx="398.2" cy="355.1" r="1.8" fill="#4C6A9C"></circle><circle id="1910" cx="401.5" cy="353.4" r="1.8" fill="#4C6A9C"></circle><circle id="1911" cx="404.7" cy="318.6" r="1.8" fill="#4C6A9C"></circle><circle id="1912" cx="408" cy="286.4" r="1.8" fill="#4C6A9C"></circle><circle id="1913" cx="411.3" cy="316.8" r="1.8" fill="#4C6A9C"></circle><circle id="1914" cx="414.6" cy="342.6" r="1.8" fill="#4C6A9C"></circle><circle id="1915" cx="417.9" cy="342.6" r="1.8" fill="#4C6A9C"></circle><circle id="1916" cx="421.1" cy="341.9" r="1.8" fill="#4C6A9C"></circle><circle id="1917" cx="424.4" cy="334.2" r="1.8" fill="#4C6A9C"></circle><circle id="1918" cx="427.7" cy="326.4" r="1.8" fill="#4C6A9C"></circle><circle id="1919" cx="431" cy="324.1" r="1.8" fill="#4C6A9C"></circle><circle id="1920" cx="434.3" cy="323" r="1.8" fill="#4C6A9C"></circle><circle id="1921" cx="437.5" cy="322.6" r="1.8" fill="#4C6A9C"></circle><circle id="1922" cx="440.8" cy="336.1" r="1.8" fill="#4C6A9C"></circle><circle id="1923" cx="444.1" cy="341.8" r="1.8" fill="#4C6A9C"></circle><circle id="1924" cx="447.4" cy="343.6" r="1.8" fill="#4C6A9C"></circle><circle id="1925" cx="450.7" cy="344.8" r="1.8" fill="#4C6A9C"></circle><circle id="1926" cx="453.9" cy="348.7" r="1.8" fill="#4C6A9C"></circle><circle id="1927" cx="457.2" cy="351.7" r="1.8" fill="#4C6A9C"></circle><circle id="1928" cx="460.5" cy="353.5" r="1.8" fill="#4C6A9C"></circle><circle id="1929" cx="463.8" cy="356.6" r="1.8" fill="#4C6A9C"></circle><circle id="1930" cx="467.1" cy="358.7" r="1.8" fill="#4C6A9C"></circle><circle id="1931" cx="470.3" cy="357.5" r="1.8" fill="#4C6A9C"></circle><circle id="1932" cx="473.6" cy="357.5" r="1.8" fill="#4C6A9C"></circle><circle id="1933" cx="476.9" cy="374.7" r="1.8" fill="#4C6A9C"></circle><circle id="1934" cx="480.2" cy="376" r="1.8" fill="#4C6A9C"></circle><circle id="1935" cx="483.5" cy="375.4" r="1.8" fill="#4C6A9C"></circle><circle id="1936" cx="486.7" cy="376.1" r="1.8" fill="#4C6A9C"></circle><circle id="1937" cx="490" cy="339.1" r="1.8" fill="#4C6A9C"></circle><circle id="1938" cx="493.3" cy="339.5" r="1.8" fill="#4C6A9C"></circle><circle id="1939" cx="496.6" cy="341.1" r="1.8" fill="#4C6A9C"></circle><circle id="1940" cx="499.9" cy="349.6" r="1.8" fill="#4C6A9C"></circle><circle id="1941" cx="503.2" cy="347.6" r="1.8" fill="#4C6A9C"></circle><circle id="1942" cx="506.4" cy="349.5" r="1.8" fill="#4C6A9C"></circle><circle id="1943" cx="509.7" cy="345.9" r="1.8" fill="#4C6A9C"></circle><circle id="1944" cx="513" cy="339.1" r="1.8" fill="#4C6A9C"></circle><circle id="1945" cx="516.3" cy="329" r="1.8" fill="#4C6A9C"></circle><circle id="1946" cx="519.6" cy="347.2" r="1.8" fill="#4C6A9C"></circle><circle id="1947" cx="522.8" cy="345.2" r="1.8" fill="#4C6A9C"></circle><circle id="1948" cx="526.1" cy="345.8" r="1.8" fill="#4C6A9C"></circle><circle id="1949" cx="529.4" cy="358.3" r="1.8" fill="#4C6A9C"></circle><circle id="1950" cx="532.7" cy="360.1" r="1.8" fill="#4C6A9C"></circle><circle id="1951" cx="536" cy="358.8" r="1.8" fill="#4C6A9C"></circle><circle id="1952" cx="539.2" cy="337.5" r="1.8" fill="#4C6A9C"></circle><circle id="1953" cx="542.5" cy="336.5" r="1.8" fill="#4C6A9C"></circle><circle id="1954" cx="545.8" cy="337.7" r="1.8" fill="#4C6A9C"></circle><circle id="1955" cx="549.1" cy="337.2" r="1.8" fill="#4C6A9C"></circle><circle id="1956" cx="552.4" cy="336.1" r="1.8" fill="#4C6A9C"></circle><circle id="1957" cx="555.6" cy="335" r="1.8" fill="#4C6A9C"></circle><circle id="1958" cx="558.9" cy="338.2" r="1.8" fill="#4C6A9C"></circle><circle id="1959" cx="562.2" cy="338.6" r="1.8" fill="#4C6A9C"></circle><circle id="1960" cx="565.5" cy="333.4" r="1.8" fill="#4C6A9C"></circle><circle id="1961" cx="568.8" cy="336.5" r="1.8" fill="#4C6A9C"></circle><circle id="1962" cx="572" cy="339.5" r="1.8" fill="#4C6A9C"></circle><circle id="1963" cx="575.3" cy="338.5" r="1.8" fill="#4C6A9C"></circle><circle id="1964" cx="578.6" cy="343.9" r="1.8" fill="#4C6A9C"></circle><circle id="1965" cx="581.9" cy="347.9" r="1.8" fill="#4C6A9C"></circle><circle id="1966" cx="585.2" cy="361.1" r="1.8" fill="#4C6A9C"></circle><circle id="1967" cx="588.4" cy="354.7" r="1.8" fill="#4C6A9C"></circle><circle id="1968" cx="591.7" cy="354.4" r="1.8" fill="#4C6A9C"></circle><circle id="1969" cx="595" cy="350.8" r="1.8" fill="#4C6A9C"></circle><circle id="1970" cx="598.3" cy="350.9" r="1.8" fill="#4C6A9C"></circle><circle id="1971" cx="601.6" cy="355.3" r="1.8" fill="#4C6A9C"></circle><circle id="1972" cx="604.9" cy="356.2" r="1.8" fill="#4C6A9C"></circle><circle id="1973" cx="608.1" cy="350.6" r="1.8" fill="#4C6A9C"></circle><circle id="1974" cx="611.4" cy="346.9" r="1.8" fill="#4C6A9C"></circle><circle id="1975" cx="614.7" cy="355.9" r="1.8" fill="#4C6A9C"></circle><circle id="1976" cx="618" cy="356" r="1.8" fill="#4C6A9C"></circle><circle id="1977" cx="621.3" cy="352.5" r="1.8" fill="#4C6A9C"></circle><circle id="1978" cx="624.5" cy="346.5" r="1.8" fill="#4C6A9C"></circle><circle id="1979" cx="627.8" cy="341.4" r="1.8" fill="#4C6A9C"></circle><circle id="1980" cx="631.1" cy="343.9" r="1.8" fill="#4C6A9C"></circle><circle id="1981" cx="634.4" cy="343" r="1.8" fill="#4C6A9C"></circle><circle id="1982" cx="637.7" cy="344" r="1.8" fill="#4C6A9C"></circle><circle id="1983" cx="640.9" cy="339.4" r="1.8" fill="#4C6A9C"></circle><circle id="1984" cx="644.2" cy="344.6" r="1.8" fill="#4C6A9C"></circle><circle id="1985" cx="647.5" cy="337.8" r="1.8" fill="#4C6A9C"></circle><circle id="1986" cx="650.8" cy="335.5" r="1.8" fill="#4C6A9C"></circle><circle id="1987" cx="654.1" cy="332.7" r="1.8" fill="#4C6A9C"></circle><circle id="1988" cx="657.3" cy="322.7" r="1.8" fill="#4C6A9C"></circle><circle id="1989" cx="660.6" cy="315" r="1.8" fill="#4C6A9C"></circle><circle id="1990" cx="663.9" cy="304.7" r="1.8" fill="#4C6A9C"></circle><circle id="1991" cx="667.2" cy="299" r="1.8" fill="#4C6A9C"></circle><circle id="1992" cx="670.5" cy="290.7" r="1.8" fill="#4C6A9C"></circle><circle id="1993" cx="673.7" cy="291.6" r="1.8" fill="#4C6A9C"></circle><circle id="1994" cx="677" cy="288.4" r="1.8" fill="#4C6A9C"></circle><circle id="1995" cx="680.3" cy="287.8" r="1.8" fill="#4C6A9C"></circle><circle id="1996" cx="683.6" cy="288.3" r="1.8" fill="#4C6A9C"></circle><circle id="1997" cx="686.9" cy="285.8" r="1.8" fill="#4C6A9C"></circle><circle id="1998" cx="690.2" cy="277.9" r="1.8" fill="#4C6A9C"></circle><circle id="1999" cx="693.4" cy="273.6" r="1.8" fill="#4C6A9C"></circle><circle id="2000" cx="696.7" cy="270" r="1.8" fill="#4C6A9C"></circle><circle id="2001" cx="700" cy="268.6" r="1.8" fill="#4C6A9C"></circle><circle id="2002" cx="703.3" cy="268.3" r="1.8" fill="#4C6A9C"></circle><circle id="2003" cx="706.6" cy="267.5" r="1.8" fill="#4C6A9C"></circle><circle id="2004" cx="709.8" cy="266.9" r="1.8" fill="#4C6A9C"></circle><circle id="2005" cx="713.1" cy="265.9" r="1.8" fill="#4C6A9C"></circle><circle id="2006" cx="716.4" cy="267.2" r="1.8" fill="#4C6A9C"></circle><circle id="2007" cx="719.7" cy="269" r="1.8" fill="#4C6A9C"></circle><circle id="2008" cx="723" cy="266" r="1.8" fill="#4C6A9C"></circle><circle id="2009" cx="726.2" cy="262.8" r="1.8" fill="#4C6A9C"></circle><circle id="2010" cx="729.5" cy="261.9" r="1.8" fill="#4C6A9C"></circle><circle id="2011" cx="732.8" cy="259.7" r="1.8" fill="#4C6A9C"></circle><circle id="2012" cx="736.1" cy="259.9" r="1.8" fill="#4C6A9C"></circle><circle id="2013" cx="739.4" cy="258.8" r="1.8" fill="#4C6A9C"></circle><circle id="2014" cx="742.6" cy="262.7" r="1.8" fill="#4C6A9C"></circle><circle id="2015" cx="745.9" cy="259.5" r="1.8" fill="#4C6A9C"></circle><circle id="2016" cx="749.2" cy="264" r="1.8" fill="#4C6A9C"></circle><circle id="2017" cx="752.5" cy="264.8" r="1.8" fill="#4C6A9C"></circle><circle id="2018" cx="755.8" cy="266.3" r="1.8" fill="#4C6A9C"></circle></g></g></g><g id="footer" class="SourcesFooter" style="fill:#5b5b5b"><g id="sources" class="markdown-text-wrap"><text x="16.0" y="580.9" style="font-size:13.5px;line-height:1.2"><tspan x="16" y="580.9"><tspan style="font-weight:700">Data source:</tspan> Polity 5 (2020); Population based on various sources (2023)</tspan></text></g><text id="origin-url" font-size="13.50" x="591.4" y="580.9"><tspan x="591.405" y="580.895"><a target="_blank" style="fill: #5b5b5b;" href="https://ourworldindata.org/democracy">OurWorldinData.org/democracy</a> | <a target="_blank" style="fill: #5b5b5b;" href="https://creativecommons.org/licenses/by/4.0/">CC BY</a></tspan></text></g></svg>