<svg xmlns="http://www.w3.org/2000/svg" version="1.1" style="font-family:Lato, &#x27;Helvetica Neue&#x27;, Helvetica, Arial, &#x27;Liberation Sans&#x27;, sans-serif;font-size:16px;background-color:#ffffff;text-rendering:geometricPrecision;-webkit-font-smoothing:antialiased" width="850" height="600" viewBox="0 0 850 600"><defs><style>@import url(https://ourworldindata.org/fonts.css)</style></defs><defs><pattern id="noDataPattern" patternUnits="userSpaceOnUse" width="4" height="4" patternTransform="rotate(-45 2 2)"><path d="M -1,2 l 6,0" stroke="#ccc" stroke-width="0.7"></path></pattern></defs><rect class="background-fill" fill="#ffffff" width="850" height="600"></rect><g id="header" class="HeaderView"><g id="logo" transform="translate(769, 16) scale(1)"><svg className="owidLogo" xmlns="http://www.w3.org/2000/svg" width="65" height="36" viewBox="0 0 65 36"  fill="none"><path fill="#002147" d="M0 0h64.8v36H0z"/><path fill="#CE261E" d="M0 33.3h64.8V36H0z"/><path fill="#fff" d="M13.796 10.575c0 .636-.106 1.226-.318 1.77a4.193 4.193 0 0 1-.894 1.404 4.084 4.084 0 0 1-1.386.93c-.54.22-1.138.33-1.794.33-.656 0-1.256-.11-1.8-.33a4.149 4.149 0 0 1-1.392-.93 4.193 4.193 0 0 1-.894-1.404A4.833 4.833 0 0 1 5 10.575c0-.636.106-1.224.318-1.764a4.18 4.18 0 0 1 .894-1.41 4.076 4.076 0 0 1 1.392-.924 4.684 4.684 0 0 1 1.8-.336c.656 0 1.254.112 1.794.336.54.224 1.002.534 1.386.93.384.392.682.86.894 1.404.212.54.318 1.128.318 1.764Zm-1.656 0c0-.476-.064-.902-.192-1.278a2.671 2.671 0 0 0-.54-.966 2.332 2.332 0 0 0-.864-.606 2.94 2.94 0 0 0-1.14-.21c-.424 0-.806.07-1.146.21-.34.14-.63.342-.87.606a2.742 2.742 0 0 0-.546.966 3.955 3.955 0 0 0-.192 1.278c0 .476.064.904.192 1.284.128.376.31.696.546.96.24.26.53.46.87.6.34.14.722.21 1.146.21.424 0 .804-.07 1.14-.21.34-.14.628-.34.864-.6.236-.264.416-.584.54-.96a4.01 4.01 0 0 0 .192-1.284ZM16.104 8.757v3.912c0 .376.086.668.258.876.176.204.438.306.786.306.256 0 .496-.056.72-.168a2.58 2.58 0 0 0 .636-.474V8.757h1.482v6.156h-.906c-.192 0-.318-.09-.378-.27l-.102-.492a4.65 4.65 0 0 1-.396.354 2.577 2.577 0 0 1-.438.27 2.35 2.35 0 0 1-.498.168 2.345 2.345 0 0 1-.57.066c-.336 0-.634-.056-.894-.168a1.821 1.821 0 0 1-.648-.486 2.157 2.157 0 0 1-.402-.738 3.233 3.233 0 0 1-.132-.948V8.757h1.482ZM21.328 14.913V8.757h.87c.152 0 .258.028.318.084.06.056.1.152.12.288l.09.744c.22-.38.478-.68.774-.9.296-.22.628-.33.996-.33.304 0 .556.07.756.21l-.192 1.11c-.012.072-.038.124-.078.156a.278.278 0 0 1-.162.042 1.01 1.01 0 0 1-.246-.042 1.646 1.646 0 0 0-.414-.042c-.308 0-.572.086-.792.258-.22.168-.406.416-.558.744v3.834h-1.482ZM27.347 6.237h1.356a.57.57 0 0 1 .348.102c.096.064.16.152.192.264l1.476 5.19c.036.128.068.268.096.42.032.148.062.306.09.474a5.968 5.968 0 0 1 .228-.894l1.704-5.19a.575.575 0 0 1 .186-.252.543.543 0 0 1 .348-.114h.474a.57.57 0 0 1 .348.102.497.497 0 0 1 .192.264l1.692 5.19c.088.256.164.54.228.852.028-.156.056-.306.084-.45.032-.144.064-.278.096-.402l1.476-5.19c.028-.1.09-.186.186-.258a.563.563 0 0 1 .348-.108h1.266l-2.694 8.676h-1.458l-1.896-5.928-.078-.246a9.504 9.504 0 0 1-.072-.282c-.024.1-.05.194-.078.282-.024.088-.048.17-.072.246l-1.914 5.928H30.04l-2.694-8.676ZM42.771 8.661c.46 0 .876.074 1.248.222.376.148.696.358.96.63s.468.604.612.996c.144.392.216.83.216 1.314 0 .488-.072.928-.216 1.32a2.85 2.85 0 0 1-.612 1.002 2.653 2.653 0 0 1-.96.636 3.35 3.35 0 0 1-1.248.222c-.46 0-.878-.074-1.254-.222a2.712 2.712 0 0 1-.966-.636 2.922 2.922 0 0 1-.618-1.002 3.807 3.807 0 0 1-.216-1.32c0-.484.072-.922.216-1.314.148-.392.354-.724.618-.996.268-.272.59-.482.966-.63a3.397 3.397 0 0 1 1.254-.222Zm0 5.202c.512 0 .89-.172 1.134-.516.248-.344.372-.848.372-1.512s-.124-1.17-.372-1.518c-.244-.348-.622-.522-1.134-.522-.52 0-.904.176-1.152.528-.248.348-.372.852-.372 1.512s.124 1.164.372 1.512c.248.344.632.516 1.152.516ZM46.723 14.913V8.757h.87c.152 0 .258.028.318.084.06.056.1.152.12.288l.09.744c.22-.38.478-.68.774-.9.296-.22.628-.33.996-.33.304 0 .556.07.756.21l-.192 1.11c-.012.072-.038.124-.078.156a.278.278 0 0 1-.162.042 1.01 1.01 0 0 1-.246-.042 1.646 1.646 0 0 0-.414-.042c-.308 0-.572.086-.792.258-.22.168-.406.416-.558.744v3.834h-1.482ZM52.96 5.997v8.916h-1.482V5.997h1.482ZM58.732 14.913c-.192 0-.318-.09-.378-.27l-.12-.594a3.68 3.68 0 0 1-.402.39c-.14.116-.292.216-.456.3-.16.084-.334.148-.522.192a2.372 2.372 0 0 1-.6.072c-.336 0-.644-.07-.924-.21a2.098 2.098 0 0 1-.726-.606 3.033 3.033 0 0 1-.468-.99 5.072 5.072 0 0 1-.162-1.344c0-.456.062-.88.186-1.272s.302-.732.534-1.02c.232-.288.51-.512.834-.672a2.384 2.384 0 0 1 1.092-.246 2.103 2.103 0 0 1 1.536.606V5.997h1.482v8.916h-.906Zm-1.974-1.086c.308 0 .57-.064.786-.192.216-.128.42-.31.612-.546v-2.76a1.452 1.452 0 0 0-.552-.432 1.597 1.597 0 0 0-.636-.126c-.224 0-.428.042-.612.126a1.21 1.21 0 0 0-.462.384c-.124.168-.22.384-.288.648-.068.26-.102.568-.102.924 0 .36.028.666.084.918.06.248.144.452.252.612.108.156.24.27.396.342.156.068.33.102.522.102ZM16.331 20.757v6.156H14.85v-6.156h1.481Zm.223-1.794a.844.844 0 0 1-.078.36.963.963 0 0 1-.21.294.995.995 0 0 1-.3.204.963.963 0 0 1-.372.072.948.948 0 0 1-.367-.072 1.018 1.018 0 0 1-.498-.498.963.963 0 0 1 0-.732.995.995 0 0 1 .205-.3.929.929 0 0 1 .293-.198.899.899 0 0 1 .738 0 .912.912 0 0 1 .3.198.943.943 0 0 1 .288.672ZM17.771 26.913v-6.156h.906c.192 0 .318.09.378.27l.102.486a2.934 2.934 0 0 1 .828-.618c.156-.076.322-.134.498-.174.176-.04.368-.06.576-.06.336 0 .634.058.894.174.26.112.476.272.648.48.176.204.308.45.396.738.092.284.138.598.138.942v3.918h-1.482v-3.918c0-.376-.088-.666-.264-.87-.172-.208-.432-.312-.78-.312-.256 0-.496.058-.72.174a2.58 2.58 0 0 0-.636.474v4.452h-1.482ZM34.22 22.575c0 .636-.106 1.22-.318 1.752-.212.532-.51.99-.894 1.374a4 4 0 0 1-1.386.894 4.87 4.87 0 0 1-1.794.318h-3.312v-8.676h3.312a4.79 4.79 0 0 1 1.794.324 4 4 0 0 1 1.386.894c.384.38.682.836.894 1.368.212.532.318 1.116.318 1.752Zm-1.65 0c0-.476-.064-.902-.192-1.278a2.68 2.68 0 0 0-.546-.96 2.332 2.332 0 0 0-.864-.606 2.94 2.94 0 0 0-1.14-.21h-1.686v6.108h1.686c.424 0 .804-.07 1.14-.21.34-.14.628-.34.864-.6a2.75 2.75 0 0 0 .546-.96 4.01 4.01 0 0 0 .192-1.284ZM39.98 26.913h-.665c-.14 0-.25-.02-.33-.06-.08-.044-.14-.13-.18-.258l-.132-.438c-.156.14-.31.264-.462.372a2.804 2.804 0 0 1-.462.264c-.16.072-.33.126-.51.162-.18.036-.38.054-.6.054-.26 0-.5-.034-.72-.102a1.618 1.618 0 0 1-.57-.318 1.448 1.448 0 0 1-.366-.522 1.852 1.852 0 0 1-.132-.726c0-.232.06-.46.18-.684.124-.228.328-.432.612-.612.284-.184.662-.336 1.134-.456.472-.12 1.058-.188 1.758-.204v-.36c0-.412-.088-.716-.264-.912-.172-.2-.424-.3-.756-.3a1.837 1.837 0 0 0-1.02.276c-.116.068-.224.13-.324.186a.664.664 0 0 1-.33.084.429.429 0 0 1-.258-.078.614.614 0 0 1-.174-.192l-.27-.474c.708-.648 1.562-.972 2.562-.972.36 0 .68.06.96.18.284.116.524.28.72.492.196.208.344.458.444.75.104.292.156.612.156.96v3.888Zm-2.88-.924c.153 0 .293-.014.42-.042.129-.028.249-.07.36-.126.117-.056.227-.124.33-.204.109-.084.217-.182.325-.294v-1.038c-.432.02-.794.058-1.086.114-.288.052-.52.12-.696.204a.923.923 0 0 0-.378.294.664.664 0 0 0-.108.366c0 .26.076.446.228.558.156.112.358.168.606.168ZM43.22 27.01c-.532 0-.942-.15-1.23-.45-.288-.305-.432-.723-.432-1.255v-3.438h-.624a.31.31 0 0 1-.21-.078c-.056-.052-.084-.13-.084-.234v-.588l.99-.162.312-1.68a.302.302 0 0 1 .108-.186.365.365 0 0 1 .222-.066h.768v1.938h1.62v1.056h-1.62v3.336c0 .192.048.342.144.45a.488.488 0 0 0 .384.162c.092 0 .168-.01.228-.03.064-.024.118-.048.162-.072.048-.024.09-.046.126-.066a.194.194 0 0 1 .108-.036.16.16 0 0 1 .108.036c.028.02.058.052.09.096l.444.72c-.216.18-.464.316-.744.408a2.77 2.77 0 0 1-.87.138ZM50.423 26.913h-.666c-.14 0-.25-.02-.33-.06-.08-.044-.14-.13-.18-.258l-.132-.438c-.156.14-.31.264-.462.372a2.804 2.804 0 0 1-.462.264c-.16.072-.33.126-.51.162-.18.036-.38.054-.6.054-.26 0-.5-.034-.72-.102a1.618 1.618 0 0 1-.57-.318 1.448 1.448 0 0 1-.366-.522 1.852 1.852 0 0 1-.132-.726c0-.232.06-.46.18-.684.124-.228.328-.432.612-.612.284-.184.662-.336 1.134-.456.472-.12 1.058-.188 1.758-.204v-.36c0-.412-.088-.716-.264-.912-.172-.2-.424-.3-.756-.3a1.837 1.837 0 0 0-1.02.276c-.116.068-.224.13-.324.186a.664.664 0 0 1-.33.084.429.429 0 0 1-.258-.078.614.614 0 0 1-.174-.192l-.27-.474c.708-.648 1.562-.972 2.562-.972.36 0 .68.06.96.18.284.116.524.28.72.492.196.208.344.458.444.75.104.292.156.612.156.96v3.888Zm-2.88-.924c.152 0 .292-.014.42-.042.128-.028.248-.07.36-.126.116-.056.226-.124.33-.204.108-.084.216-.182.324-.294v-1.038c-.432.02-.794.058-1.086.114-.288.052-.52.12-.696.204a.923.923 0 0 0-.378.294.664.664 0 0 0-.108.366c0 .26.076.446.228.558.156.112.358.168.606.168Z"/></svg></g><a id="title" href="https://ourworldindata.org/grapher/distribution-of-population-between-different-poverty-thresholds-historical" style="font-family:&#x27;Playfair Display&#x27;, Georgia, &#x27;Times New Roman&#x27;, &#x27;Liberation Serif&#x27;, serif" target="_blank" rel="noopener"><text font-size="21.50" font-weight="600" x="16.0" y="36.9" fill="#4e4e4e"><tspan x="16" y="36.855000000000004">Distribution of population between different poverty thresholds,</tspan><tspan x="16" y="62.655">World, 1820 to 2018</tspan></text></a><g id="subtitle" class="markdown-text-wrap"><text x="16.0" y="88.1" style="font-size:15px;line-height:1.2" fill="#858585"><tspan x="16" y="88.1">This data is adjusted for inflation and for differences in the cost of living between countries. Data after 1981 relates to</tspan><tspan x="16" y="106.1">household income or consumption surveys collated by the World Bank; before 1981 it is based on historical</tspan><tspan x="16" y="124.1">reconstructions of GDP per capita and inequality data.</tspan></text></g></g><g id="chart-area" style="pointer-events:none"><g id="horizontal-axis" class="HorizontalAxis"><g id="tick-marks"><line id="1820" x1="51.8" y1="513.3" x2="51.8" y2="518.8" stroke="#999" stroke-width="1"></line><line id="2018" x1="701.8" y1="513.3" x2="701.8" y2="518.8" stroke="#999" stroke-width="1"></line><line id="1850" x1="150.3" y1="513.3" x2="150.3" y2="518.8" stroke="#999" stroke-width="1"></line><line id="1900" x1="314.5" y1="513.3" x2="314.5" y2="518.8" stroke="#999" stroke-width="1"></line><line id="1950" x1="478.6" y1="513.3" x2="478.6" y2="518.8" stroke="#999" stroke-width="1"></line><line id="2000" x1="642.7" y1="513.3" x2="642.7" y2="518.8" stroke="#999" stroke-width="1"></line></g><g id="tick-labels"><text x="51.84" y="530.8" fill="#5b5b5b" text-anchor="start" font-size="12">1820</text><text x="701.8" y="530.8" fill="#5b5b5b" text-anchor="end" font-size="12">2018</text><text x="150.3" y="530.8" fill="#5b5b5b" text-anchor="middle" font-size="12">1850</text><text x="314.5" y="530.8" fill="#5b5b5b" text-anchor="middle" font-size="12">1900</text><text x="478.6" y="530.8" fill="#5b5b5b" text-anchor="middle" font-size="12">1950</text><text x="642.7" y="530.8" fill="#5b5b5b" text-anchor="middle" font-size="12">2000</text></g></g><g id="vertical-axis" class="VerticalAxis"><g id="tick-labels"><text x="46.84" y="513.8" dy=".32em" text-anchor="end" fill="#5b5b5b" font-size="12">0%</text><text x="46.84" y="441" dy=".32em" text-anchor="end" fill="#5b5b5b" font-size="12">20%</text><text x="46.84" y="368.1" dy=".32em" text-anchor="end" fill="#5b5b5b" font-size="12">40%</text><text x="46.84" y="295.3" dy=".32em" text-anchor="end" fill="#5b5b5b" font-size="12">60%</text><text x="46.84" y="222.4" dy=".32em" text-anchor="end" fill="#5b5b5b" font-size="12">80%</text><text x="46.84" y="149.6" dy=".32em" text-anchor="end" fill="#5b5b5b" font-size="12">100%</text></g></g><g id="horizontal-grid-lines" class="AxisGridLines horizontalLines"><line id="0%" x1="51.84" y1="513.8" x2="701.80" y2="513.8" stroke="#999" stroke-width="1"></line><line id="20%" x1="51.84" y1="441" x2="701.80" y2="441" stroke="#ddd" stroke-width="1" stroke-dasharray="2,1"></line><line id="40%" x1="51.84" y1="368.1" x2="701.80" y2="368.1" stroke="#ddd" stroke-width="1" stroke-dasharray="2,1"></line><line id="60%" x1="51.84" y1="295.3" x2="701.80" y2="295.3" stroke="#ddd" stroke-width="1" stroke-dasharray="2,1"></line><line id="80%" x1="51.84" y1="222.4" x2="701.80" y2="222.4" stroke="#ddd" stroke-width="1" stroke-dasharray="2,1"></line><line id="100%" x1="51.84" y1="149.6" x2="701.80" y2="149.6" stroke="#ddd" stroke-width="1" stroke-dasharray="2,1"></line></g><g id="line-labels" class="LineLabels"><g id="text-annotations"></g><g id="text-labels"><text font-size="12.00" font-weight="400" x="705.8" y="179.5" fill="#2c7bb6" opacity="1" text-anchor="start"><tspan x="705.8" y="179.54">Above $30 a day</tspan></text><text font-size="12.00" font-weight="400" x="705.8" y="247.5" fill="#88adb9" opacity="1" text-anchor="start"><tspan x="705.8" y="247.54">$10-$30 a day</tspan></text><text font-size="12.00" font-weight="400" x="705.8" y="330.7" fill="#b4b487" opacity="1" text-anchor="start"><tspan x="705.8" y="330.74">$5-$10 a day</tspan></text><text font-size="12.00" font-weight="400" x="705.8" y="429.1" fill="#d39151" opacity="1" text-anchor="start"><tspan x="705.8" y="429.14">$1.90-$5 a day</tspan></text><text font-size="12.00" font-weight="400" x="705.8" y="502.5" fill="#d7191c" opacity="1" text-anchor="start"><tspan x="705.8" y="502.54">Below $1.90 a day</tspan></text></g></g><g class="Areas" id="stacked-areas"><g id="areas"><path id="Below-$1.90-a-day" class="Below-__00241__002e90-a-day-area" stroke-linecap="round" d="M51.8 224.8L84.7 225.2L117.5 226L150.3 227.4L183.1 232.8L216 238.7L248.8 247.2L281.6 261.9L314.5 275.4L347.3 291L380.1 296.9L412.9 304.9L445.8 316.7L478.6 319.6L511.4 330.8L544.2 333.2L577.1 347L580.3 353.7L583.6 356.6L586.9 360.4L590.2 368.4L593.5 378.3L596.8 383.2L600 385.8L603.3 383.3L606.6 380.8L609.9 381.9L613.2 384.4L616.5 388.1L619.7 392.2L623 395.5L626.3 401.9L629.6 410L632.9 409.3L636.1 406.7L639.4 413L642.7 417.2L646 421.3L649.3 426.7L652.6 429.2L655.8 436.2L659.1 442.6L662.4 444.8L665.7 449.6L669 450.7L672.3 454.4L675.5 460.1L678.8 465L682.1 468.3L685.4 475.2L688.7 477L692 475.2L695.2 479L698.5 479.8L701.8 482.4L701.8 513.8L51.8 513.8" fill="#d7191c" fill-opacity="0.8"></path><path id="$1.90-$5-a-day" class="__00241__002e90-__00245-a-day-area" stroke-linecap="round" d="M51.8 163.1L84.7 163.7L117.5 164.9L150.3 166.2L183.1 169.6L216 173.2L248.8 177.9L281.6 185L314.5 191.9L347.3 200.6L380.1 207.7L412.9 214.4L445.8 218.9L478.6 227.1L511.4 245.2L544.2 264.8L577.1 280.7L580.3 279.8L583.6 279.1L586.9 277.3L590.2 277L593.5 277.4L596.8 279.5L600 278.8L603.3 278.7L606.6 277.4L609.9 277.4L613.2 276.7L616.5 275.8L619.7 274.4L623 274.8L626.3 276.8L629.6 277.9L632.9 279L636.1 279.4L639.4 279.5L642.7 283.4L646 287L649.3 292.3L652.6 295L655.8 300.7L659.1 306.6L662.4 311.4L665.7 317.8L669 321L672.3 325L675.5 331.4L678.8 337.5L682.1 342.6L685.4 351.1L688.7 356.3L692 359.1L695.2 362.2L698.5 363.4L701.8 367.1L701.8 482.4L698.5 479.8L695.2 479L692 475.2L688.7 477L685.4 475.2L682.1 468.3L678.8 465L675.5 460.1L672.3 454.4L669 450.7L665.7 449.6L662.4 444.8L659.1 442.6L655.8 436.2L652.6 429.2L649.3 426.7L646 421.3L642.7 417.2L639.4 413L636.1 406.7L632.9 409.3L629.6 410L626.3 401.9L623 395.5L619.7 392.2L616.5 388.1L613.2 384.4L609.9 381.9L606.6 380.8L603.3 383.3L600 385.8L596.8 383.2L593.5 378.3L590.2 368.4L586.9 360.4L583.6 356.6L580.3 353.7L577.1 347L544.2 333.2L511.4 330.8L478.6 319.6L445.8 316.7L412.9 304.9L380.1 296.9L347.3 291L314.5 275.4L281.6 261.9L248.8 247.2L216 238.7L183.1 232.8L150.3 227.4L117.5 226L84.7 225.2L51.8 224.8" fill="#fdae61" fill-opacity="0.8"></path><path id="$5-$10-a-day" class="__00245-__002410-a-day-area" stroke-linecap="round" d="M51.8 152.4L84.7 152.5L117.5 152.8L150.3 153L183.1 154.4L216 156.2L248.8 157.8L281.6 160.8L314.5 164.3L347.3 169.9L380.1 174.3L412.9 178.1L445.8 180.7L478.6 190.5L511.4 200.6L544.2 222.1L577.1 246.3L580.3 245.8L583.6 244.7L586.9 243.5L590.2 242.3L593.5 242.3L596.8 243.2L600 242.7L603.3 242.8L606.6 241.4L609.9 240.1L613.2 238.1L616.5 236.9L619.7 233.9L623 234.2L626.3 234.9L629.6 233.8L632.9 233.8L636.1 233.9L639.4 232.6L642.7 234.5L646 235.6L649.3 237.3L652.6 238.9L655.8 242.2L659.1 245.7L662.4 249L665.7 253.3L669 256.3L672.3 258L675.5 262.2L678.8 266.2L682.1 269.9L685.4 274.2L688.7 277.6L692 279.8L695.2 282.4L698.5 283.4L701.8 285.6L701.8 367.1L698.5 363.4L695.2 362.2L692 359.1L688.7 356.3L685.4 351.1L682.1 342.6L678.8 337.5L675.5 331.4L672.3 325L669 321L665.7 317.8L662.4 311.4L659.1 306.6L655.8 300.7L652.6 295L649.3 292.3L646 287L642.7 283.4L639.4 279.5L636.1 279.4L632.9 279L629.6 277.9L626.3 276.8L623 274.8L619.7 274.4L616.5 275.8L613.2 276.7L609.9 277.4L606.6 277.4L603.3 278.7L600 278.8L596.8 279.5L593.5 277.4L590.2 277L586.9 277.3L583.6 279.1L580.3 279.8L577.1 280.7L544.2 264.8L511.4 245.2L478.6 227.1L445.8 218.9L412.9 214.4L380.1 207.7L347.3 200.6L314.5 191.9L281.6 185L248.8 177.9L216 173.2L183.1 169.6L150.3 166.2L117.5 164.9L84.7 163.7L51.8 163.1" fill="#ffffbf" fill-opacity="0.8"></path><path id="$10-$30-a-day" class="__002410-__002430-a-day-area" stroke-linecap="round" d="M51.8 149.8L84.7 149.8L117.5 149.8L150.3 149.8L183.1 149.9L216 150.1L248.8 150.2L281.6 150.4L314.5 150.8L347.3 152.1L380.1 152.6L412.9 153.6L445.8 153.9L478.6 158.6L511.4 161.5L544.2 168.3L577.1 182.9L580.3 183.2L583.6 183.1L586.9 183.1L590.2 183.3L593.5 183.9L596.8 185.1L600 185.4L603.3 186.6L606.6 187.4L609.9 187.5L613.2 187.1L616.5 187.1L619.7 186.7L623 187.4L626.3 188.1L629.6 188.4L632.9 188.7L636.1 189L639.4 189.1L642.7 190.4L646 190.8L649.3 191L652.6 191.9L655.8 192.5L659.1 193.2L662.4 194L665.7 195.9L669 195.5L672.3 195.1L675.5 196.8L678.8 197.1L682.1 197.4L685.4 197.7L688.7 198.2L692 198.9L695.2 200L698.5 199.7L701.8 200.7L701.8 285.6L698.5 283.4L695.2 282.4L692 279.8L688.7 277.6L685.4 274.2L682.1 269.9L678.8 266.2L675.5 262.2L672.3 258L669 256.3L665.7 253.3L662.4 249L659.1 245.7L655.8 242.2L652.6 238.9L649.3 237.3L646 235.6L642.7 234.5L639.4 232.6L636.1 233.9L632.9 233.8L629.6 233.8L626.3 234.9L623 234.2L619.7 233.9L616.5 236.9L613.2 238.1L609.9 240.1L606.6 241.4L603.3 242.8L600 242.7L596.8 243.2L593.5 242.3L590.2 242.3L586.9 243.5L583.6 244.7L580.3 245.8L577.1 246.3L544.2 222.1L511.4 200.6L478.6 190.5L445.8 180.7L412.9 178.1L380.1 174.3L347.3 169.9L314.5 164.3L281.6 160.8L248.8 157.8L216 156.2L183.1 154.4L150.3 153L117.5 152.8L84.7 152.5L51.8 152.4" fill="#abd9e9" fill-opacity="0.8"></path><path id="Above-$30-a-day" class="Above-__002430-a-day-area" stroke-linecap="round" d="M51.8 149.6L84.7 149.6L117.5 149.6L150.3 149.6L183.1 149.6L216 149.6L248.8 149.6L281.6 149.6L314.5 149.6L347.3 149.6L380.1 149.6L412.9 149.6L445.8 149.6L478.6 149.6L511.4 149.6L544.2 149.6L577.1 149.6L580.3 149.6L583.6 149.6L586.9 149.6L590.2 149.6L593.5 149.6L596.8 149.6L600 149.6L603.3 149.6L606.6 149.6L609.9 149.6L613.2 149.6L616.5 149.6L619.7 149.6L623 149.6L626.3 149.6L629.6 149.6L632.9 149.6L636.1 149.6L639.4 149.6L642.7 149.6L646 149.6L649.3 149.6L652.6 149.6L655.8 149.6L659.1 149.6L662.4 149.6L665.7 149.6L669 149.6L672.3 149.6L675.5 149.6L678.8 149.6L682.1 149.6L685.4 149.6L688.7 149.6L692 149.6L695.2 149.6L698.5 149.6L701.8 149.6L701.8 200.7L698.5 199.7L695.2 200L692 198.9L688.7 198.2L685.4 197.7L682.1 197.4L678.8 197.1L675.5 196.8L672.3 195.1L669 195.5L665.7 195.9L662.4 194L659.1 193.2L655.8 192.5L652.6 191.9L649.3 191L646 190.8L642.7 190.4L639.4 189.1L636.1 189L632.9 188.7L629.6 188.4L626.3 188.1L623 187.4L619.7 186.7L616.5 187.1L613.2 187.1L609.9 187.5L606.6 187.4L603.3 186.6L600 185.4L596.8 185.1L593.5 183.9L590.2 183.3L586.9 183.1L583.6 183.1L580.3 183.2L577.1 182.9L544.2 168.3L511.4 161.5L478.6 158.6L445.8 153.9L412.9 153.6L380.1 152.6L347.3 152.1L314.5 150.8L281.6 150.4L248.8 150.2L216 150.1L183.1 149.9L150.3 149.8L117.5 149.8L84.7 149.8L51.8 149.8" fill="#2c7bb6" fill-opacity="0.8"></path></g><g id="borders"><path id="Below-$1.90-a-day" class="Below-__00241__002e90-a-day-border" stroke-linecap="round" d="M51.8 224.8L84.7 225.2L117.5 226L150.3 227.4L183.1 232.8L216 238.7L248.8 247.2L281.6 261.9L314.5 275.4L347.3 291L380.1 296.9L412.9 304.9L445.8 316.7L478.6 319.6L511.4 330.8L544.2 333.2L577.1 347L580.3 353.7L583.6 356.6L586.9 360.4L590.2 368.4L593.5 378.3L596.8 383.2L600 385.8L603.3 383.3L606.6 380.8L609.9 381.9L613.2 384.4L616.5 388.1L619.7 392.2L623 395.5L626.3 401.9L629.6 410L632.9 409.3L636.1 406.7L639.4 413L642.7 417.2L646 421.3L649.3 426.7L652.6 429.2L655.8 436.2L659.1 442.6L662.4 444.8L665.7 449.6L669 450.7L672.3 454.4L675.5 460.1L678.8 465L682.1 468.3L685.4 475.2L688.7 477L692 475.2L695.2 479L698.5 479.8L701.8 482.4" stroke="rgb(180, 21, 23)" stroke-opacity="0.7" stroke-width="0.5" fill="none"></path><path id="$1.90-$5-a-day" class="__00241__002e90-__00245-a-day-border" stroke-linecap="round" d="M51.8 163.1L84.7 163.7L117.5 164.9L150.3 166.2L183.1 169.6L216 173.2L248.8 177.9L281.6 185L314.5 191.9L347.3 200.6L380.1 207.7L412.9 214.4L445.8 218.9L478.6 227.1L511.4 245.2L544.2 264.8L577.1 280.7L580.3 279.8L583.6 279.1L586.9 277.3L590.2 277L593.5 277.4L596.8 279.5L600 278.8L603.3 278.7L606.6 277.4L609.9 277.4L613.2 276.7L616.5 275.8L619.7 274.4L623 274.8L626.3 276.8L629.6 277.9L632.9 279L636.1 279.4L639.4 279.5L642.7 283.4L646 287L649.3 292.3L652.6 295L655.8 300.7L659.1 306.6L662.4 311.4L665.7 317.8L669 321L672.3 325L675.5 331.4L678.8 337.5L682.1 342.6L685.4 351.1L688.7 356.3L692 359.1L695.2 362.2L698.5 363.4L701.8 367.1" stroke="rgb(212, 146, 81)" stroke-opacity="0.7" stroke-width="0.5" fill="none"></path><path id="$5-$10-a-day" class="__00245-__002410-a-day-border" stroke-linecap="round" d="M51.8 152.4L84.7 152.5L117.5 152.8L150.3 153L183.1 154.4L216 156.2L248.8 157.8L281.6 160.8L314.5 164.3L347.3 169.9L380.1 174.3L412.9 178.1L445.8 180.7L478.6 190.5L511.4 200.6L544.2 222.1L577.1 246.3L580.3 245.8L583.6 244.7L586.9 243.5L590.2 242.3L593.5 242.3L596.8 243.2L600 242.7L603.3 242.8L606.6 241.4L609.9 240.1L613.2 238.1L616.5 236.9L619.7 233.9L623 234.2L626.3 234.9L629.6 233.8L632.9 233.8L636.1 233.9L639.4 232.6L642.7 234.5L646 235.6L649.3 237.3L652.6 238.9L655.8 242.2L659.1 245.7L662.4 249L665.7 253.3L669 256.3L672.3 258L675.5 262.2L678.8 266.2L682.1 269.9L685.4 274.2L688.7 277.6L692 279.8L695.2 282.4L698.5 283.4L701.8 285.6" stroke="rgb(213, 213, 160)" stroke-opacity="0.7" stroke-width="0.5" fill="none"></path><path id="$10-$30-a-day" class="__002410-__002430-a-day-border" stroke-linecap="round" d="M51.8 149.8L84.7 149.8L117.5 149.8L150.3 149.8L183.1 149.9L216 150.1L248.8 150.2L281.6 150.4L314.5 150.8L347.3 152.1L380.1 152.6L412.9 153.6L445.8 153.9L478.6 158.6L511.4 161.5L544.2 168.3L577.1 182.9L580.3 183.2L583.6 183.1L586.9 183.1L590.2 183.3L593.5 183.9L596.8 185.1L600 185.4L603.3 186.6L606.6 187.4L609.9 187.5L613.2 187.1L616.5 187.1L619.7 186.7L623 187.4L626.3 188.1L629.6 188.4L632.9 188.7L636.1 189L639.4 189.1L642.7 190.4L646 190.8L649.3 191L652.6 191.9L655.8 192.5L659.1 193.2L662.4 194L665.7 195.9L669 195.5L672.3 195.1L675.5 196.8L678.8 197.1L682.1 197.4L685.4 197.7L688.7 198.2L692 198.9L695.2 200L698.5 199.7L701.8 200.7" stroke="rgb(143, 182, 195)" stroke-opacity="0.7" stroke-width="0.5" fill="none"></path><path id="Above-$30-a-day" class="Above-__002430-a-day-border" stroke-linecap="round" d="M51.8 149.6L84.7 149.6L117.5 149.6L150.3 149.6L183.1 149.6L216 149.6L248.8 149.6L281.6 149.6L314.5 149.6L347.3 149.6L380.1 149.6L412.9 149.6L445.8 149.6L478.6 149.6L511.4 149.6L544.2 149.6L577.1 149.6L580.3 149.6L583.6 149.6L586.9 149.6L590.2 149.6L593.5 149.6L596.8 149.6L600 149.6L603.3 149.6L606.6 149.6L609.9 149.6L613.2 149.6L616.5 149.6L619.7 149.6L623 149.6L626.3 149.6L629.6 149.6L632.9 149.6L636.1 149.6L639.4 149.6L642.7 149.6L646 149.6L649.3 149.6L652.6 149.6L655.8 149.6L659.1 149.6L662.4 149.6L665.7 149.6L669 149.6L672.3 149.6L675.5 149.6L678.8 149.6L682.1 149.6L685.4 149.6L688.7 149.6L692 149.6L695.2 149.6L698.5 149.6L701.8 149.6" stroke="rgb(37, 103, 152)" stroke-opacity="0.7" stroke-width="0.5" fill="none"></path></g></g></g><g id="footer" class="SourcesFooter" style="fill:#858585"><g id="sources" class="markdown-text-wrap"><text x="16.0" y="561.4" style="font-size:13px;line-height:1.2"><tspan x="16" y="561.4"><tspan style="font-weight:700">Data source:</tspan> Michalis Moatsos (2021; 2022)</tspan></text></g><g id="note" class="markdown-text-wrap"><text x="16.0" y="581.0" style="font-size:13px;line-height:1.2"><tspan x="16" y="581.0"><tspan style="font-weight:700">Note:</tspan> Data is measured in <tspan class="dod-span" data-id="int_dollar_abbreviation">international-$</tspan> at 2011 prices.</tspan></text></g><text id="origin-url" font-size="13.00" x="621.3" y="561.4"><tspan x="621.3199999999999" y="561.41"><a target="_blank" style="fill: #858585;" href="https://ourworldindata.org/poverty">OurWorldinData.org/poverty</a> | <a target="_blank" style="fill: #858585;" href="https://creativecommons.org/licenses/by/4.0/">CC BY</a></tspan></text></g></svg>