<svg xmlns="http://www.w3.org/2000/svg" version="1.1" style="font-family:Lato, &#x27;Helvetica Neue&#x27;, Helvetica, Arial, &#x27;Liberation Sans&#x27;, sans-serif;font-size:18px;background-color:#ffffff;text-rendering:geometricPrecision;-webkit-font-smoothing:antialiased" width="850" height="600" viewBox="0 0 850 600"><defs><style>@import url(https://ourworldindata.org/fonts.css)</style></defs><defs><pattern id="noDataPattern" patternUnits="userSpaceOnUse" width="4" height="4" patternTransform="rotate(-45 2 2)"><path d="M -1,2 l 6,0" stroke="#ccc" stroke-width="0.7"></path></pattern></defs><rect class="background-fill" fill="#ffffff" width="850" height="600"></rect><g id="header" class="HeaderView"><g id="logo" transform="translate(735, 16) scale(0.97)"><svg className="coreLogo" xmlns="http://www.w3.org/2000/svg" width="102" height="37" viewBox="0 0 102 37" fill="none"><g clip-path="url(#a)"><path fill="#EA4148" d="M47 0H0v37h47V0Z"/><path fill="#fff" d="M3.78 11.85c0-3.55 2.67-5.6 5.68-5.6a4.63 4.63 0 0 1 3.09 1.1l-1.7 2.36c-.31-.32-.74-.5-1.18-.52-1.36 0-2.16 1.03-2.16 2.66 0 1.62.89 2.65 2.03 2.65a2.93 2.93 0 0 0 1.7-.69l1.4 2.4a5.29 5.29 0 0 1-3.52 1.24c-3 0-5.34-2.05-5.34-5.6Z"/><path fill="#fff" d="M18.85 11.85c0-1.63-.42-2.66-1.52-2.66s-1.52 1.03-1.52 2.66c0 1.62.42 2.65 1.52 2.65s1.52-1.03 1.52-2.65Zm-6.77 0c0-3.55 2.54-5.6 5.25-5.6 2.7 0 5.25 2.05 5.25 5.6s-2.54 5.6-5.25 5.6-5.25-2.05-5.25-5.6ZM23.34 6.5h2.97l.25 1.84h.09c.78-1.46 1.97-2.1 3-2.1.45-.02.9.05 1.32.22l-.6 3.16c-.38-.1-.78-.16-1.18-.17-.76 0-1.7.47-2.2 1.8v5.94h-3.65V6.5Zm13.64 4.06c0-.81-.34-1.54-1.44-1.54-.8 0-1.49.47-1.7 1.54h3.14Zm-6.6 1.29c0-3.47 2.49-5.6 5.07-5.6 3.13 0 4.62 2.3 4.62 5.17 0 .52-.05 1.03-.15 1.54h-6.04c.34 1.28 1.27 1.71 2.46 1.71a4.3 4.3 0 0 0 2.16-.64l1.18 2.18a7.08 7.08 0 0 1-3.85 1.24c-3.09 0-5.46-2.05-5.46-5.6"/><path fill="#1A1818" d="M10.43 23.87c0-.81-.34-1.54-1.44-1.54-.8 0-1.48.47-1.69 1.54h3.13Zm-6.6 1.28c0-3.46 2.5-5.6 5.08-5.6 3.13 0 4.61 2.3 4.61 5.18 0 .51-.05 1.03-.15 1.54H7.34c.34 1.28 1.27 1.7 2.46 1.7.76-.01 1.5-.23 2.16-.63l1.18 2.18a7.08 7.08 0 0 1-3.85 1.24c-3.1 0-5.46-2.06-5.46-5.6m10.07-.01c0-3.55 2.67-5.6 5.68-5.6a4.63 4.63 0 0 1 3.09 1.11l-1.7 2.35c-.32-.31-.74-.5-1.18-.51-1.36 0-2.16 1.03-2.16 2.65 0 1.63.89 2.66 2.03 2.66a2.93 2.93 0 0 0 1.7-.69l1.39 2.4a5.29 5.29 0 0 1-3.51 1.24c-3 0-5.34-2.06-5.34-5.6"/><path fill="#1A1818" d="M28.97 25.15c0-1.62-.42-2.65-1.52-2.65s-1.52 1.03-1.52 2.65c0 1.63.42 2.66 1.52 2.66s1.52-1.03 1.52-2.66Zm-6.77 0c0-3.55 2.54-5.6 5.25-5.6 2.7 0 5.25 2.05 5.25 5.6s-2.54 5.6-5.25 5.6-5.25-2.04-5.25-5.6Zm11.34-5.35h2.97l.25 1.29h.09a4.76 4.76 0 0 1 3.34-1.54c2.33 0 3.3 1.71 3.3 4.36v6.6h-3.64v-6.13c0-1.37-.34-1.7-1.06-1.7-.67 0-1.05.3-1.6.8v7.02h-3.65V19.8Z"/><path fill="#002147" d="M48 0h54v33H48z"/><path fill="#fff" d="M58.375 11.247c0 .59-.099 1.138-.295 1.642a3.89 3.89 0 0 1-.83 1.303 3.788 3.788 0 0 1-1.285.863 4.373 4.373 0 0 1-1.665.306 4.415 4.415 0 0 1-1.67-.306 3.85 3.85 0 0 1-1.291-.863 3.891 3.891 0 0 1-.83-1.303 4.483 4.483 0 0 1-.295-1.642c0-.59.099-1.135.295-1.636.197-.505.474-.941.83-1.308.36-.368.79-.654 1.291-.858a4.345 4.345 0 0 1 1.67-.311c.609 0 1.164.104 1.665.311.5.208.93.496 1.285.863.357.364.633.798.83 1.303a4.44 4.44 0 0 1 .295 1.636Zm-1.536 0c0-.441-.06-.837-.179-1.185a2.48 2.48 0 0 0-.5-.897 2.165 2.165 0 0 0-.802-.562 2.727 2.727 0 0 0-1.058-.195 2.77 2.77 0 0 0-1.063.195c-.316.13-.585.317-.807.562a2.544 2.544 0 0 0-.507.897 3.67 3.67 0 0 0-.178 1.185c0 .442.06.839.178 1.191.119.35.288.646.507.891.222.241.492.427.807.557.315.13.67.195 1.063.195.394 0 .746-.065 1.058-.195.315-.13.582-.316.801-.557.22-.245.386-.542.501-.89a3.72 3.72 0 0 0 .179-1.192ZM60.404 9.56v3.63c0 .349.08.62.24.813.163.189.406.284.73.284.237 0 .46-.052.667-.156.208-.108.405-.254.59-.44v-4.13h1.375v5.71h-.84c-.179 0-.295-.083-.351-.25l-.095-.456a4.326 4.326 0 0 1-.367.328 2.18 2.18 0 0 1-.868.406c-.164.042-.34.062-.53.062a2.08 2.08 0 0 1-.829-.156 1.688 1.688 0 0 1-.601-.45 2.002 2.002 0 0 1-.373-.686 3 3 0 0 1-.123-.879V9.56h1.375ZM65.14 15.272V9.56h.807c.141 0 .24.026.295.078.056.052.093.14.112.267l.083.69c.204-.353.444-.63.718-.835.275-.204.583-.306.924-.306.282 0 .516.065.702.195l-.178 1.03c-.012.066-.036.114-.073.144a.258.258 0 0 1-.15.04.936.936 0 0 1-.228-.04 1.527 1.527 0 0 0-.385-.039c-.285 0-.53.08-.734.24-.204.155-.377.386-.518.69v3.557H65.14ZM70.501 7.223h1.258c.13 0 .238.031.323.094.09.06.149.141.178.245l1.37 4.815c.033.119.063.249.089.39.03.137.057.284.083.44a5.576 5.576 0 0 1 .212-.83l1.58-4.815a.534.534 0 0 1 .173-.234.504.504 0 0 1 .323-.105h.44c.13 0 .237.031.323.094.085.06.145.141.178.245l1.57 4.815c.081.238.152.501.211.79l.078-.417c.03-.133.06-.258.09-.373l1.369-4.815a.45.45 0 0 1 .172-.24.522.522 0 0 1 .323-.1h1.175l-2.5 8.05h-1.353l-1.758-5.5-.073-.228a8.82 8.82 0 0 1-.067-.262c-.022.093-.046.18-.072.262a5.844 5.844 0 0 1-.067.228l-1.776 5.5h-1.352l-2.5-8.05ZM84.7 9.472c.427 0 .813.068 1.158.206a2.5 2.5 0 0 1 .89.584c.246.252.435.56.568.924.134.364.2.77.2 1.22 0 .452-.066.86-.2 1.224a2.645 2.645 0 0 1-.567.93 2.463 2.463 0 0 1-.891.59 3.106 3.106 0 0 1-1.158.205 3.15 3.15 0 0 1-1.163-.206 2.517 2.517 0 0 1-.897-.59 2.712 2.712 0 0 1-.573-.93 3.532 3.532 0 0 1-.2-1.224c0-.449.067-.855.2-1.219.138-.364.329-.672.574-.924.248-.252.547-.447.896-.584a3.152 3.152 0 0 1 1.163-.206Zm0 4.826c.475 0 .826-.16 1.052-.479.23-.32.345-.787.345-1.403s-.115-1.085-.345-1.408c-.226-.323-.577-.484-1.052-.484-.482 0-.838.163-1.069.49-.23.322-.345.79-.345 1.402 0 .613.115 1.08.345 1.403.23.32.587.479 1.07.479ZM88.256 15.272V9.56h.807c.14 0 .24.026.295.078.055.052.093.14.111.267l.084.69c.204-.353.443-.63.718-.835.274-.204.582-.306.924-.306.282 0 .516.065.701.195l-.178 1.03c-.011.066-.035.114-.072.144a.258.258 0 0 1-.15.04.937.937 0 0 1-.229-.04 1.526 1.526 0 0 0-.384-.039c-.286 0-.53.08-.735.24-.204.155-.376.386-.517.69v3.557h-1.375ZM93.93 7v8.272h-1.375V7h1.375ZM99.174 15.272c-.178 0-.295-.084-.351-.25l-.111-.552a3.406 3.406 0 0 1-.373.362c-.13.108-.271.2-.423.278-.149.078-.31.138-.485.179-.17.044-.356.066-.556.066a1.89 1.89 0 0 1-.858-.194 1.947 1.947 0 0 1-.673-.563 2.817 2.817 0 0 1-.434-.918c-.1-.364-.15-.78-.15-1.247 0-.423.057-.816.172-1.18.115-.364.28-.68.495-.947.216-.267.474-.474.774-.623.3-.152.639-.228 1.013-.228a1.951 1.951 0 0 1 1.425.562V7h1.375v8.272h-.84Zm-1.832-1.008c.286 0 .53-.059.73-.178.2-.119.39-.287.567-.506v-2.56a1.345 1.345 0 0 0-.512-.402 1.48 1.48 0 0 0-.59-.117 1.35 1.35 0 0 0-.568.117c-.167.078-.31.197-.428.357a1.732 1.732 0 0 0-.267.6 3.417 3.417 0 0 0-.095.858c0 .334.026.618.078.852.055.23.133.419.234.567.1.145.222.25.367.318a1.2 1.2 0 0 0 .484.094ZM60.616 20.694v5.711H59.24v-5.711h1.375Zm.206-1.665c0 .12-.024.23-.073.334a.894.894 0 0 1-.194.273.924.924 0 0 1-.279.19.894.894 0 0 1-.684 0 .946.946 0 0 1-.462-.463.894.894 0 0 1 0-.68.923.923 0 0 1 .189-.277.86.86 0 0 1 .273-.184.833.833 0 0 1 .685 0c.107.045.2.106.278.184a.875.875 0 0 1 .267.623ZM61.84 26.405v-5.711h.84c.179 0 .296.083.352.25l.094.451a2.722 2.722 0 0 1 .768-.573c.145-.07.3-.125.462-.162.164-.037.342-.055.535-.055.311 0 .588.053.83.161.24.104.44.253.6.445.164.19.286.418.368.685.085.264.128.555.128.874v3.635h-1.375V22.77c0-.349-.082-.618-.245-.807-.16-.193-.4-.29-.724-.29-.237 0-.46.054-.668.162a2.394 2.394 0 0 0-.59.44v4.13H61.84ZM76.878 22.38c0 .59-.098 1.132-.295 1.626a3.734 3.734 0 0 1-.83 1.275 3.711 3.711 0 0 1-1.285.829 4.518 4.518 0 0 1-1.665.295h-3.072v-8.05h3.072c.609 0 1.164.101 1.665.301.5.197.93.474 1.286.83.356.352.632.775.829 1.269.197.494.295 1.035.295 1.625Zm-1.53 0c0-.441-.06-.836-.179-1.185a2.486 2.486 0 0 0-.506-.89 2.163 2.163 0 0 0-.802-.563 2.727 2.727 0 0 0-1.058-.195H71.24v5.667h1.564a2.73 2.73 0 0 0 1.058-.195c.315-.13.583-.316.802-.557a2.55 2.55 0 0 0 .506-.89c.119-.353.178-.75.178-1.192ZM82.111 26.405h-.618a.694.694 0 0 1-.306-.056c-.074-.04-.13-.12-.167-.239l-.122-.406c-.145.13-.288.245-.429.345-.137.096-.28.178-.428.245a2.2 2.2 0 0 1-.474.15c-.166.033-.352.05-.556.05-.241 0-.464-.032-.668-.095a1.502 1.502 0 0 1-.529-.295 1.343 1.343 0 0 1-.34-.484 1.717 1.717 0 0 1-.122-.673c0-.216.056-.427.167-.635.115-.212.304-.4.568-.568.263-.17.614-.311 1.052-.423.438-.111.981-.174 1.63-.19v-.333c0-.382-.08-.664-.244-.846-.16-.186-.393-.279-.702-.279a1.702 1.702 0 0 0-.946.257c-.107.063-.208.12-.3.172a.616.616 0 0 1-.306.078.398.398 0 0 1-.24-.072.569.569 0 0 1-.161-.178l-.25-.44c.656-.601 1.448-.902 2.376-.902.334 0 .631.056.89.167.264.108.487.26.669.456.182.193.319.425.412.696.096.271.144.568.144.89v3.608Zm-2.672-.857c.142 0 .271-.013.39-.04.119-.025.23-.064.334-.116a1.74 1.74 0 0 0 .306-.19c.1-.077.2-.168.3-.272v-.963c-.4.018-.736.054-1.007.106a2.602 2.602 0 0 0-.645.189.856.856 0 0 0-.351.273.616.616 0 0 0-.1.34c0 .24.07.413.211.517.145.104.332.156.563.156ZM85.005 26.494c-.493 0-.874-.14-1.14-.417-.268-.282-.402-.67-.402-1.164v-3.19h-.578a.289.289 0 0 1-.195-.072c-.052-.048-.078-.12-.078-.217v-.545l.918-.15.29-1.56a.28.28 0 0 1 .1-.172.339.339 0 0 1 .206-.061h.712v1.798h1.503v.98h-1.503v3.095c0 .178.045.317.134.417.089.1.208.15.356.15.085 0 .156-.009.212-.027.06-.023.11-.045.15-.067.044-.023.084-.043.117-.062a.18.18 0 0 1 .1-.033c.04 0 .074.011.1.034a.392.392 0 0 1 .084.088l.412.669c-.2.166-.43.293-.69.378-.26.085-.53.128-.808.128ZM91.576 26.405h-.618a.695.695 0 0 1-.306-.056c-.074-.04-.13-.12-.167-.239l-.122-.406c-.145.13-.288.245-.429.345-.137.096-.28.178-.428.245a2.2 2.2 0 0 1-.474.15c-.167.033-.352.05-.556.05-.242 0-.464-.032-.668-.095a1.502 1.502 0 0 1-.53-.295 1.343 1.343 0 0 1-.339-.484 1.717 1.717 0 0 1-.122-.673c0-.216.056-.427.167-.635.115-.212.304-.4.568-.568.263-.17.614-.311 1.052-.423.438-.111.981-.174 1.63-.19v-.333c0-.382-.08-.664-.244-.846-.16-.186-.393-.279-.702-.279a1.702 1.702 0 0 0-.946.257l-.3.172a.616.616 0 0 1-.307.078.398.398 0 0 1-.239-.072.569.569 0 0 1-.161-.178l-.25-.44c.656-.601 1.448-.902 2.376-.902.334 0 .63.056.89.167.264.108.487.26.669.456.181.193.319.425.412.696.096.271.144.568.144.89v3.608Zm-2.672-.857c.141 0 .271-.013.39-.04.119-.025.23-.064.334-.116a1.74 1.74 0 0 0 .306-.19c.1-.077.2-.168.3-.272v-.963c-.4.018-.736.054-1.007.106a2.602 2.602 0 0 0-.645.189.856.856 0 0 0-.351.273.616.616 0 0 0-.1.34c0 .24.07.413.211.517.145.104.332.156.562.156Z"/><path fill="#CE261E" d="M48 33h54v4H48z"/></g><defs><clipPath id="a"><path fill="#fff" d="M0 0h102v37H0z"/></clipPath></defs></svg></g><a id="title" href="https://ourworldindata.org/grapher/divergence-of-gdp-per-capita-among-latecomers-to-the-capitalist-revolution-18002016" style="font-family:&#x27;Playfair Display&#x27;, Georgia, &#x27;Times New Roman&#x27;, &#x27;Liberation Serif&#x27;, serif" target="_blank" rel="noopener"><text font-size="21.25" font-weight="600" x="16.0" y="36.6" fill="#5b5b5b"><tspan x="16" y="36.6125">Divergence of GDP per capita among latecomers to the capitalist</tspan><tspan x="16" y="62.1125">revolution, 1800 to 2018</tspan></text></a><g id="subtitle" class="markdown-text-wrap"><text x="16.0" y="85.2" style="font-size:14.625px;line-height:1.2" fill="#5b5b5b"><tspan x="16" y="85.2">Unit 1 &#x27;The capitalist revolution: prosperity, inequality, and planetary limits’ in The CORE Team, The Economy 2.0</tspan><tspan x="16" y="102.7">Microeconomics. Available at: <a href="https://tinyco.re/4329598" target="_blank" style="text-decoration:underline" rel="noopener">https://tinyco.re/4329598</a> [Figure 1.19]</tspan></text></g></g><g id="chart-area" style="pointer-events:none"><g id="horizontal-axis" class="HorizontalAxis"><g id="tick-marks"><line id="1800" x1="70.1" y1="512.6" x2="70.1" y2="518.1" stroke="#999" stroke-width="1"></line><line id="2018" x1="681.5" y1="512.6" x2="681.5" y2="518.1" stroke="#999" stroke-width="1"></line><line id="1850" x1="210.4" y1="512.6" x2="210.4" y2="518.1" stroke="#999" stroke-width="1"></line><line id="1900" x1="350.6" y1="512.6" x2="350.6" y2="518.1" stroke="#999" stroke-width="1"></line><line id="1950" x1="490.8" y1="512.6" x2="490.8" y2="518.1" stroke="#999" stroke-width="1"></line></g><g id="tick-labels"><text x="70.14" y="531.6" fill="#5b5b5b" text-anchor="start" font-size="13.5">1800</text><text x="681.55" y="531.6" fill="#5b5b5b" text-anchor="end" font-size="13.5">2018</text><text x="210.4" y="531.6" fill="#5b5b5b" text-anchor="middle" font-size="13.5">1850</text><text x="350.6" y="531.6" fill="#5b5b5b" text-anchor="middle" font-size="13.5">1900</text><text x="490.8" y="531.6" fill="#5b5b5b" text-anchor="middle" font-size="13.5">1950</text></g></g><g id="vertical-axis" class="VerticalAxis"><g id="tick-labels"><text x="65.14" y="513.1" dy=".32em" text-anchor="end" fill="#5b5b5b" font-size="13.5">$0</text><text x="65.14" y="462.3" dy=".32em" text-anchor="end" fill="#5b5b5b" font-size="13.5">$5,000</text><text x="65.14" y="411.6" dy=".32em" text-anchor="end" fill="#5b5b5b" font-size="13.5">$10,000</text><text x="65.14" y="360.8" dy=".32em" text-anchor="end" fill="#5b5b5b" font-size="13.5">$15,000</text><text x="65.14" y="310.1" dy=".32em" text-anchor="end" fill="#5b5b5b" font-size="13.5">$20,000</text><text x="65.14" y="259.3" dy=".32em" text-anchor="end" fill="#5b5b5b" font-size="13.5">$25,000</text><text x="65.14" y="208.6" dy=".32em" text-anchor="end" fill="#5b5b5b" font-size="13.5">$30,000</text><text x="65.14" y="157.8" dy=".32em" text-anchor="end" fill="#5b5b5b" font-size="13.5">$35,000</text></g></g><g id="horizontal-grid-lines" class="AxisGridLines horizontalLines"><line id="$0" x1="70.14" y1="513.1" x2="681.55" y2="513.1" stroke="#999" stroke-width="1"></line><line id="$5,000" x1="70.14" y1="462.3" x2="681.55" y2="462.3" stroke="#ddd" stroke-width="1" stroke-dasharray="3,2"></line><line id="$10,000" x1="70.14" y1="411.6" x2="681.55" y2="411.6" stroke="#ddd" stroke-width="1" stroke-dasharray="3,2"></line><line id="$15,000" x1="70.14" y1="360.8" x2="681.55" y2="360.8" stroke="#ddd" stroke-width="1" stroke-dasharray="3,2"></line><line id="$20,000" x1="70.14" y1="310.1" x2="681.55" y2="310.1" stroke="#ddd" stroke-width="1" stroke-dasharray="3,2"></line><line id="$25,000" x1="70.14" y1="259.3" x2="681.55" y2="259.3" stroke="#ddd" stroke-width="1" stroke-dasharray="3,2"></line><line id="$30,000" x1="70.14" y1="208.6" x2="681.55" y2="208.6" stroke="#ddd" stroke-width="1" stroke-dasharray="3,2"></line><line id="$35,000" x1="70.14" y1="157.8" x2="681.55" y2="157.8" stroke="#ddd" stroke-width="1" stroke-dasharray="3,2"></line></g><g id="line-labels" class="LineLabels"><g id="text-annotations"></g><g id="text-labels"></g><g id="text-annotations"></g><g id="text-labels"><text font-size="13.50" font-weight="400" x="685.5" y="133.8" fill="#996d39"><tspan x="685.55" y="133.845">Republic of Korea</tspan></text><text font-size="13.50" font-weight="400" x="685.5" y="267.7" fill="#00295b"><tspan x="685.55" y="267.695">Russian Federation</tspan></text><text font-size="13.50" font-weight="400" x="685.5" y="317.0" fill="#2c8465"><tspan x="685.55" y="316.995">Former USSR</tspan></text><text font-size="13.50" font-weight="400" x="685.5" y="332.5" fill="#4c6a9c"><tspan x="685.55" y="332.495">Argentina</tspan></text><text font-size="13.50" font-weight="400" x="685.5" y="357.3" fill="#6d3e91"><tspan x="685.55" y="357.295">Botswana</tspan></text><text font-size="13.50" font-weight="400" x="685.5" y="375.6" fill="#b13507"><tspan x="685.55" y="375.595">Brazil</tspan></text><text font-size="13.50" font-weight="400" x="685.5" y="464.9" fill="#883039"><tspan x="685.55" y="464.895">Nigeria</tspan></text></g></g><g id="lines"><path fill="none" stroke-linecap="butt" stroke-linejoin="round" stroke="#ffffff" stroke-width="2.5" id="outline__Russian Federation" d="M518.9 456.7L521.7 453.5L524.5 449.9L527.3 448.1L530.1 444.5L532.9 441.4L535.7 436.8L538.5 432.5L541.3 427.9L544.1 426.2L546.9 419.4L549.7 416L552.5 413.8L555.3 406.6L558.1 403.5L561 399.8L563.8 397.1L566.6 394.4L569.4 393L572.2 392.6L575 389.2L577.8 388.5L580.6 388.6L583.4 387L586.2 387.4L589 386.5L591.8 384.2L594.6 385.2L597.4 384L600.2 383.5L603 387.2L605.8 391.2L608.6 406.6L611.4 413.7L614.2 424.3L617 425.9L619.8 427L622.7 423.6L625.5 426.2L628.3 418.3L631.1 406L633.9 397.5L636.7 388.7L639.5 375.8L642.3 362L645.1 348.2L647.9 330.3L650.7 309.9L653.5 294.2L656.3 306.7L659.1 292.4L661.9 278.3L664.7 270.2L667.5 267.2L670.3 265.5L673.1 272.6L675.9 273.2L678.7 269L681.5 262.7"></path><path fill="none" stroke-linecap="butt" stroke-linejoin="round" stroke="#00295B" stroke-width="1.5" id="line__Russian Federation" d="M518.9 456.7L521.7 453.5L524.5 449.9L527.3 448.1L530.1 444.5L532.9 441.4L535.7 436.8L538.5 432.5L541.3 427.9L544.1 426.2L546.9 419.4L549.7 416L552.5 413.8L555.3 406.6L558.1 403.5L561 399.8L563.8 397.1L566.6 394.4L569.4 393L572.2 392.6L575 389.2L577.8 388.5L580.6 388.6L583.4 387L586.2 387.4L589 386.5L591.8 384.2L594.6 385.2L597.4 384L600.2 383.5L603 387.2L605.8 391.2L608.6 406.6L611.4 413.7L614.2 424.3L617 425.9L619.8 427L622.7 423.6L625.5 426.2L628.3 418.3L631.1 406L633.9 397.5L636.7 388.7L639.5 375.8L642.3 362L645.1 348.2L647.9 330.3L650.7 309.9L653.5 294.2L656.3 306.7L659.1 292.4L661.9 278.3L664.7 270.2L667.5 267.2L670.3 265.5L673.1 272.6L675.9 273.2L678.7 269L681.5 262.7"></path><path fill="none" stroke-linecap="butt" stroke-linejoin="round" stroke="#ffffff" stroke-width="2.5" id="outline__Nigeria" d="M490.8 500.9L493.6 500.3L496.4 499.7L499.2 499.7L502.1 499.1L504.9 499.1L507.7 499.8L510.5 499.7L513.3 500.2L516.1 500L518.9 499.8L521.7 499.8L524.5 499.4L527.3 498.6L530.1 498.4L532.9 497.8L535.7 498.7L538.5 501.3L541.3 501.8L544.1 499.2L546.9 495.4L549.7 493.9L552.5 493.7L555.3 492.7L558.1 491L561 492.3L563.8 490.7L566.6 490.6L569.4 492.5L572.2 491.7L575 492L577.8 494.3L580.6 495L583.4 496.5L586.2 497.6L589 496.6L591.8 496.8L594.6 497.3L597.4 496.2L600.2 495.5L603 495.1L605.8 495.2L608.6 494.9L611.4 494.6L614.2 494.6L617 494.3L619.8 493.6L622.7 493L625.5 492.5L628.3 492.4L631.1 491.3L633.9 489.9L636.7 486.6L639.5 484.2L642.3 481.3L645.1 479.1L647.9 476.9L650.7 474.3L653.5 471.6L656.3 468.3L659.1 463.3L661.9 461L664.7 460.1L667.5 458.6L670.3 456.6L673.1 456.5L675.9 458.7L678.7 459.6L681.5 459.9"></path><path fill="none" stroke-linecap="butt" stroke-linejoin="round" stroke="#883039" stroke-width="1.5" id="line__Nigeria" d="M490.8 500.9L493.6 500.3L496.4 499.7L499.2 499.7L502.1 499.1L504.9 499.1L507.7 499.8L510.5 499.7L513.3 500.2L516.1 500L518.9 499.8L521.7 499.8L524.5 499.4L527.3 498.6L530.1 498.4L532.9 497.8L535.7 498.7L538.5 501.3L541.3 501.8L544.1 499.2L546.9 495.4L549.7 493.9L552.5 493.7L555.3 492.7L558.1 491L561 492.3L563.8 490.7L566.6 490.6L569.4 492.5L572.2 491.7L575 492L577.8 494.3L580.6 495L583.4 496.5L586.2 497.6L589 496.6L591.8 496.8L594.6 497.3L597.4 496.2L600.2 495.5L603 495.1L605.8 495.2L608.6 494.9L611.4 494.6L614.2 494.6L617 494.3L619.8 493.6L622.7 493L625.5 492.5L628.3 492.4L631.1 491.3L633.9 489.9L636.7 486.6L639.5 484.2L642.3 481.3L645.1 479.1L647.9 476.9L650.7 474.3L653.5 471.6L656.3 468.3L659.1 463.3L661.9 461L664.7 460.1L667.5 458.6L670.3 456.6L673.1 456.5L675.9 458.7L678.7 459.6L681.5 459.9"></path><path fill="none" stroke-linecap="butt" stroke-linejoin="round" stroke="#ffffff" stroke-width="2.5" id="outline__Botswana" d="M490.8 508.1L493.6 508.1L496.4 508L499.2 507.9L502.1 507.8L504.9 507.7L507.7 507.6L510.5 507.6L513.3 507.5L516.1 507.4L518.9 507.4L521.7 507.3L524.5 507.2L527.3 507.1L530.1 507L532.9 506.9L535.7 506.4L538.5 505.8L541.3 505.2L544.1 504.5L546.9 503.9L549.7 501.8L552.5 499.3L555.3 497L558.1 496.3L561 495.7L563.8 494.8L566.6 493.9L569.4 492.7L572.2 490.9L575 489.3L577.8 487.4L580.6 486.3L583.4 484.2L586.2 481.4L589 479.6L591.8 478.3L594.6 476.5L597.4 473.3L600.2 461.7L603 459.6L605.8 456.1L608.6 454.9L611.4 454.4L614.2 452.7L617 449L619.8 445.6L622.7 440.5L625.5 440.2L628.3 433.1L631.1 431.4L633.9 431.1L636.7 425.8L639.5 421.3L642.3 418.4L645.1 413.6L647.9 404.8L650.7 395.3L653.5 387.4L656.3 396.4L659.1 385.8L661.9 377.3L664.7 373.6L667.5 362.3L670.3 360L673.1 362.8L675.9 358.8L678.7 356.8L681.5 352.3"></path><path fill="none" stroke-linecap="butt" stroke-linejoin="round" stroke="#6D3E91" stroke-width="1.5" id="line__Botswana" d="M490.8 508.1L493.6 508.1L496.4 508L499.2 507.9L502.1 507.8L504.9 507.7L507.7 507.6L510.5 507.6L513.3 507.5L516.1 507.4L518.9 507.4L521.7 507.3L524.5 507.2L527.3 507.1L530.1 507L532.9 506.9L535.7 506.4L538.5 505.8L541.3 505.2L544.1 504.5L546.9 503.9L549.7 501.8L552.5 499.3L555.3 497L558.1 496.3L561 495.7L563.8 494.8L566.6 493.9L569.4 492.7L572.2 490.9L575 489.3L577.8 487.4L580.6 486.3L583.4 484.2L586.2 481.4L589 479.6L591.8 478.3L594.6 476.5L597.4 473.3L600.2 461.7L603 459.6L605.8 456.1L608.6 454.9L611.4 454.4L614.2 452.7L617 449L619.8 445.6L622.7 440.5L625.5 440.2L628.3 433.1L631.1 431.4L633.9 431.1L636.7 425.8L639.5 421.3L642.3 418.4L645.1 413.6L647.9 404.8L650.7 395.3L653.5 387.4L656.3 396.4L659.1 385.8L661.9 377.3L664.7 373.6L667.5 362.3L670.3 360L673.1 362.8L675.9 358.8L678.7 356.8L681.5 352.3"></path><path fill="none" stroke-linecap="butt" stroke-linejoin="round" stroke="#ffffff" stroke-width="2.5" id="outline__Former USSR" d="M308.5 499.1L311.3 499.6L314.1 497.4L316.9 498L319.8 499L322.6 499.1L325.4 500.3L328.2 499L331 497.2L333.8 495L336.6 496.3L339.4 494.6L342.2 495L345 494.5L347.8 493.3L350.6 493.8L353.4 493.3L356.2 491.5L359 493L361.8 490.9L364.6 493.5L367.4 494.3L370.2 495.1L373 493.4L375.8 492.6L378.6 491.3L381.5 492.9L384.3 491.3L387.1 490.2L389.9 491.3L392.7 490.6L395.5 493.1L398.3 495.5L401.1 502.4L403.9 503.8L406.7 503.8L409.5 504.6L412.3 503.2L415.1 501.7L417.9 498.7L420.7 495.1L423.5 492.9L426.3 492L429.1 490.9L431.9 490.7L434.7 489.7L437.5 489.4L440.4 489.8L443.2 488.9L446 486.7L448.8 482.9L451.6 480.9L454.4 478.2L457.2 478.3L460 476.9L462.8 478.4L479.6 482.1L482.4 478.7L485.2 474.2L488 470.7L490.8 467.1L493.6 467.7L496.4 465.6L499.2 464.3L502.1 462.8L504.9 459.5L507.7 455.4L510.5 455.2L513.3 452L516.1 453.7L518.9 449.3L521.7 446.8L524.5 446.1L527.3 448.6L530.1 441.3L532.9 438.1L535.7 435.4L538.5 432.8L541.3 428.9L544.1 428.6L546.9 422.9L549.7 421.4L552.5 421.8L555.3 415.1L558.1 413.2L561 413.8L563.8 410.1L566.6 408.7L569.4 407L572.2 408.4L575 409.1L577.8 409L580.6 407.3L583.4 404.9L586.2 404.5L589 404.6L591.8 401.1L594.6 400.6L597.4 399.1L600.2 398L603 401.6L605.8 407.6L608.6 422L611.4 429.9L614.2 440.4L617 443.2L619.8 444.2L622.7 441.7L625.5 442.3L628.3 437.8L631.1 429.9L633.9 423.3L636.7 416.8L639.5 407.6L642.3 397.1L645.1 387L647.9 373.5L650.7 358.6L653.5 348.4L656.3 356.6L659.1 347.2L661.9 336.6L664.7 330.3L667.5 325.8L670.3 323L673.1 325.5L675.9 323.9L678.7 318.7L681.5 314.8"></path><path fill="none" stroke-linecap="butt" stroke-linejoin="round" stroke="#2C8465" stroke-width="1.5" id="line__Former USSR" d="M308.5 499.1L311.3 499.6L314.1 497.4L316.9 498L319.8 499L322.6 499.1L325.4 500.3L328.2 499L331 497.2L333.8 495L336.6 496.3L339.4 494.6L342.2 495L345 494.5L347.8 493.3L350.6 493.8L353.4 493.3L356.2 491.5L359 493L361.8 490.9L364.6 493.5L367.4 494.3L370.2 495.1L373 493.4L375.8 492.6L378.6 491.3L381.5 492.9L384.3 491.3L387.1 490.2L389.9 491.3L392.7 490.6L395.5 493.1L398.3 495.5L401.1 502.4L403.9 503.8L406.7 503.8L409.5 504.6L412.3 503.2L415.1 501.7L417.9 498.7L420.7 495.1L423.5 492.9L426.3 492L429.1 490.9L431.9 490.7L434.7 489.7L437.5 489.4L440.4 489.8L443.2 488.9L446 486.7L448.8 482.9L451.6 480.9L454.4 478.2L457.2 478.3L460 476.9L462.8 478.4L479.6 482.1L482.4 478.7L485.2 474.2L488 470.7L490.8 467.1L493.6 467.7L496.4 465.6L499.2 464.3L502.1 462.8L504.9 459.5L507.7 455.4L510.5 455.2L513.3 452L516.1 453.7L518.9 449.3L521.7 446.8L524.5 446.1L527.3 448.6L530.1 441.3L532.9 438.1L535.7 435.4L538.5 432.8L541.3 428.9L544.1 428.6L546.9 422.9L549.7 421.4L552.5 421.8L555.3 415.1L558.1 413.2L561 413.8L563.8 410.1L566.6 408.7L569.4 407L572.2 408.4L575 409.1L577.8 409L580.6 407.3L583.4 404.9L586.2 404.5L589 404.6L591.8 401.1L594.6 400.6L597.4 399.1L600.2 398L603 401.6L605.8 407.6L608.6 422L611.4 429.9L614.2 440.4L617 443.2L619.8 444.2L622.7 441.7L625.5 442.3L628.3 437.8L631.1 429.9L633.9 423.3L636.7 416.8L639.5 407.6L642.3 397.1L645.1 387L647.9 373.5L650.7 358.6L653.5 348.4L656.3 356.6L659.1 347.2L661.9 336.6L664.7 330.3L667.5 325.8L670.3 323L673.1 325.5L675.9 323.9L678.7 318.7L681.5 314.8"></path><path fill="none" stroke-linecap="butt" stroke-linejoin="round" stroke="#ffffff" stroke-width="2.5" id="outline__Republic of Korea" d="M126.2 504.8L266.5 504.8L381.5 501.9L384.3 502L387.1 501.2L389.9 500.4L392.7 500.3L395.5 499.8L398.3 499.2L401.1 498.6L403.9 499.3L406.7 498.6L409.5 498.1L412.3 497.9L415.1 497.8L417.9 498.7L420.7 498.2L423.5 497.6L426.3 496.7L429.1 497.9L431.9 497.9L434.7 496.5L437.5 496.6L440.4 496.6L443.2 496.3L446 496.1L448.8 495.2L451.6 495.9L454.4 492.7L457.2 493.5L460 496.7L462.8 493L465.6 491.7L468.4 496.4L471.2 496L479.6 503.8L482.4 503.6L485.2 501.9L488 501L490.8 503L493.6 503L496.4 502.6L499.2 499.7L502.1 499.2L504.9 498.8L507.7 499.1L510.5 498.2L513.3 497.7L516.1 497.3L518.9 497.4L521.7 496.8L524.5 496.7L527.3 495.6L530.1 494.5L532.9 493.6L535.7 491.8L538.5 490.4L541.3 488L544.1 485L546.9 482.9L549.7 480.4L552.5 478.7L555.3 474.3L558.1 471.4L561 468.8L563.8 463.8L566.6 458.6L569.4 453.7L572.2 449.5L575 451.5L577.8 448.1L580.6 443.9L583.4 435.8L586.2 428.8L589 423.2L591.8 414.1L594.6 402.8L597.4 390.9L600.2 383.6L603 372.3L605.8 360.3L608.6 353.6L611.4 345.6L614.2 333.2L617 319.3L619.8 308L622.7 299.4L625.5 313.9L628.3 294.4L631.1 278.5L633.9 271.5L636.7 256.8L639.5 252.4L642.3 242.6L645.1 234.5L647.9 223.6L650.7 211.4L653.5 207.4L656.3 208.9L659.1 193L661.9 186L664.7 180.2L667.5 172.2L670.3 163L673.1 155.1L675.9 146.6L678.7 136.6L681.5 128.1"></path><path fill="none" stroke-linecap="butt" stroke-linejoin="round" stroke="#996D39" stroke-width="1.5" id="line__Republic of Korea" d="M126.2 504.8L266.5 504.8L381.5 501.9L384.3 502L387.1 501.2L389.9 500.4L392.7 500.3L395.5 499.8L398.3 499.2L401.1 498.6L403.9 499.3L406.7 498.6L409.5 498.1L412.3 497.9L415.1 497.8L417.9 498.7L420.7 498.2L423.5 497.6L426.3 496.7L429.1 497.9L431.9 497.9L434.7 496.5L437.5 496.6L440.4 496.6L443.2 496.3L446 496.1L448.8 495.2L451.6 495.9L454.4 492.7L457.2 493.5L460 496.7L462.8 493L465.6 491.7L468.4 496.4L471.2 496L479.6 503.8L482.4 503.6L485.2 501.9L488 501L490.8 503L493.6 503L496.4 502.6L499.2 499.7L502.1 499.2L504.9 498.8L507.7 499.1L510.5 498.2L513.3 497.7L516.1 497.3L518.9 497.4L521.7 496.8L524.5 496.7L527.3 495.6L530.1 494.5L532.9 493.6L535.7 491.8L538.5 490.4L541.3 488L544.1 485L546.9 482.9L549.7 480.4L552.5 478.7L555.3 474.3L558.1 471.4L561 468.8L563.8 463.8L566.6 458.6L569.4 453.7L572.2 449.5L575 451.5L577.8 448.1L580.6 443.9L583.4 435.8L586.2 428.8L589 423.2L591.8 414.1L594.6 402.8L597.4 390.9L600.2 383.6L603 372.3L605.8 360.3L608.6 353.6L611.4 345.6L614.2 333.2L617 319.3L619.8 308L622.7 299.4L625.5 313.9L628.3 294.4L631.1 278.5L633.9 271.5L636.7 256.8L639.5 252.4L642.3 242.6L645.1 234.5L647.9 223.6L650.7 211.4L653.5 207.4L656.3 208.9L659.1 193L661.9 186L664.7 180.2L667.5 172.2L670.3 163L673.1 155.1L675.9 146.6L678.7 136.6L681.5 128.1"></path><path fill="none" stroke-linecap="butt" stroke-linejoin="round" stroke="#ffffff" stroke-width="2.5" id="outline__Brazil" d="M70.1 504.3L126.2 504.3L210.4 504.3L213.2 503.7L216 504L218.8 504.5L221.6 504.8L224.4 504.7L227.2 504.4L230 503.8L232.8 503.2L235.6 503.3L238.4 503L241.2 503.1L244 503.6L246.8 503.4L249.6 503.2L252.4 502.5L255.2 502.1L258.1 501.2L260.9 501.2L263.7 501.2L266.5 502.1L269.3 502.1L272.1 501.7L274.9 502L277.7 501.9L280.5 501.7L283.3 502.1L286.1 502.4L288.9 501.9L291.7 501.8L294.5 502.4L297.3 502.3L300.1 502L302.9 502.3L305.7 501.6L308.5 502.4L311.3 502L314.1 502.8L316.9 503.2L319.8 503L322.6 502.1L325.4 501.4L328.2 503L331 504.5L333.8 504.5L336.6 502.9L339.4 503.8L342.2 504L345 503.7L347.8 503.9L350.6 504.2L353.4 503.6L356.2 503.8L359 503.8L361.8 503.8L364.6 503.7L367.4 503L370.2 503.2L373 503.5L375.8 503L378.6 503.1L381.5 502.2L384.3 502.5L387.1 502.5L389.9 502.9L392.7 502.7L395.5 502.6L398.3 502.1L401.1 502.5L403.9 501.4L406.7 500.5L409.5 500.5L412.3 499.9L415.1 499.4L417.9 499.7L420.7 499.9L423.5 499.9L426.3 499.2L429.1 498L431.9 498.2L434.7 499.4L437.5 500L440.4 499.8L443.2 499L446 498.2L448.8 498.1L451.6 496.9L454.4 496.8L457.2 496.4L460 496.6L462.8 496.8L465.6 496L468.4 497L471.2 495.2L474 495L476.8 494.9L479.6 493.5L482.4 493.2L485.2 491.8L488 490.7L490.8 490.4L493.6 490L496.4 489L499.2 488.6L502.1 487.4L504.9 485.9L507.7 486L510.5 484.7L513.3 482.6L516.1 480.6L518.9 478.6L521.7 476.7L524.5 475.4L527.3 476.3L530.1 476.2L532.9 476.4L535.7 475.1L538.5 474.6L541.3 472L544.1 469.3L546.9 466.1L549.7 462.1L552.5 457.5L555.3 451.3L558.1 448L561 446.3L563.8 441.2L566.6 439.5L569.4 437.7L572.2 434.6L575 429.4L577.8 434.8L580.6 436.1L583.4 440L586.2 437.6L589 433.3L591.8 429L594.6 427.8L597.4 429.6L600.2 428.5L603 433.5L605.8 433L608.6 433.8L611.4 430.2L614.2 425.6L617 422.2L619.8 420.5L622.7 417.6L625.5 417.5L628.3 417.3L631.1 413.3L633.9 412.1L636.7 409.1L639.5 408L642.3 402L645.1 398.3L647.9 393.7L650.7 386.2L653.5 379.5L656.3 379.3L659.1 368.8L661.9 362.6L664.7 361L667.5 357.7L670.3 358.2L673.1 352.5L675.9 372.3L678.7 371.5L681.5 370.6"></path><path fill="none" stroke-linecap="butt" stroke-linejoin="round" stroke="#B13507" stroke-width="1.5" id="line__Brazil" d="M70.1 504.3L126.2 504.3L210.4 504.3L213.2 503.7L216 504L218.8 504.5L221.6 504.8L224.4 504.7L227.2 504.4L230 503.8L232.8 503.2L235.6 503.3L238.4 503L241.2 503.1L244 503.6L246.8 503.4L249.6 503.2L252.4 502.5L255.2 502.1L258.1 501.2L260.9 501.2L263.7 501.2L266.5 502.1L269.3 502.1L272.1 501.7L274.9 502L277.7 501.9L280.5 501.7L283.3 502.1L286.1 502.4L288.9 501.9L291.7 501.8L294.5 502.4L297.3 502.3L300.1 502L302.9 502.3L305.7 501.6L308.5 502.4L311.3 502L314.1 502.8L316.9 503.2L319.8 503L322.6 502.1L325.4 501.4L328.2 503L331 504.5L333.8 504.5L336.6 502.9L339.4 503.8L342.2 504L345 503.7L347.8 503.9L350.6 504.2L353.4 503.6L356.2 503.8L359 503.8L361.8 503.8L364.6 503.7L367.4 503L370.2 503.2L373 503.5L375.8 503L378.6 503.1L381.5 502.2L384.3 502.5L387.1 502.5L389.9 502.9L392.7 502.7L395.5 502.6L398.3 502.1L401.1 502.5L403.9 501.4L406.7 500.5L409.5 500.5L412.3 499.9L415.1 499.4L417.9 499.7L420.7 499.9L423.5 499.9L426.3 499.2L429.1 498L431.9 498.2L434.7 499.4L437.5 500L440.4 499.8L443.2 499L446 498.2L448.8 498.1L451.6 496.9L454.4 496.8L457.2 496.4L460 496.6L462.8 496.8L465.6 496L468.4 497L471.2 495.2L474 495L476.8 494.9L479.6 493.5L482.4 493.2L485.2 491.8L488 490.7L490.8 490.4L493.6 490L496.4 489L499.2 488.6L502.1 487.4L504.9 485.9L507.7 486L510.5 484.7L513.3 482.6L516.1 480.6L518.9 478.6L521.7 476.7L524.5 475.4L527.3 476.3L530.1 476.2L532.9 476.4L535.7 475.1L538.5 474.6L541.3 472L544.1 469.3L546.9 466.1L549.7 462.1L552.5 457.5L555.3 451.3L558.1 448L561 446.3L563.8 441.2L566.6 439.5L569.4 437.7L572.2 434.6L575 429.4L577.8 434.8L580.6 436.1L583.4 440L586.2 437.6L589 433.3L591.8 429L594.6 427.8L597.4 429.6L600.2 428.5L603 433.5L605.8 433L608.6 433.8L611.4 430.2L614.2 425.6L617 422.2L619.8 420.5L622.7 417.6L625.5 417.5L628.3 417.3L631.1 413.3L633.9 412.1L636.7 409.1L639.5 408L642.3 402L645.1 398.3L647.9 393.7L650.7 386.2L653.5 379.5L656.3 379.3L659.1 368.8L661.9 362.6L664.7 361L667.5 357.7L670.3 358.2L673.1 352.5L675.9 372.3L678.7 371.5L681.5 370.6"></path><path fill="none" stroke-linecap="butt" stroke-linejoin="round" stroke="#ffffff" stroke-width="2.5" id="outline__Argentina" d="M70.1 498L126.2 496.9L210.4 492.9L238.4 491.2L266.5 489.3L280.5 486.6L283.3 486.6L286.1 484.5L288.9 486.5L291.7 486.1L294.5 487.1L297.3 487.3L300.1 481.6L302.9 478.9L305.7 477.7L308.5 473.5L311.3 474.8L314.1 474.1L316.9 470.3L319.8 469.6L322.6 474L325.4 476.2L328.2 469.9L331 468.3L333.8 462.7L336.6 458.4L339.4 455.1L342.2 467.4L345 465L347.8 458.2L350.6 466.6L353.4 466.5L356.2 469.1L359 464.7L361.8 461.5L364.6 456.8L367.4 456.2L370.2 457.1L373 453.9L375.8 453.3L378.6 451.3L381.5 452.5L384.3 449.9L387.1 451.7L389.9 459.7L392.7 460.6L395.5 463.1L398.3 468L401.1 460.5L403.9 459.6L406.7 456.9L409.5 456.9L412.3 454.3L415.1 450L417.9 447.5L420.7 449.7L423.5 448.5L426.3 445.9L429.1 443.7L431.9 442.4L434.7 447.1L437.5 453L440.4 456.1L443.2 454.5L446 450.9L448.8 449.2L451.6 449.8L454.4 446.4L457.2 447.2L460 446L462.8 445.8L465.6 443.5L468.4 443.8L471.2 445.4L474 439L476.8 442.6L479.6 437.6L482.4 430.8L485.2 428.1L488 431.4L490.8 432.4L493.6 431L496.4 436.8L499.2 434.2L502.1 432.5L504.9 428.4L507.7 427.6L510.5 424.7L513.3 420.9L516.1 428.3L518.9 423.2L521.7 418.2L524.5 421.2L527.3 424.8L530.1 417.2L532.9 410L535.7 410.8L538.5 409.6L541.3 406.7L544.1 399.2L546.9 395L549.7 391.3L552.5 389.6L555.3 384.3L558.1 378.3L561 381.7L563.8 384.2L566.6 378.7L569.4 386.8L572.2 380L575 380.3L577.8 390L580.6 395.9L583.4 393.6L586.2 392.9L589 402.5L591.8 396.2L594.6 395L597.4 399L600.2 407.6L603 409L605.8 399.2L608.6 388.6L611.4 381.9L614.2 375.3L617 380.3L619.8 373.9L622.7 363.7L625.5 358.9L628.3 365.1L631.1 367.2L633.9 374.5L636.7 390.3L639.5 380.2L642.3 369.1L645.1 357.3L647.9 345.7L650.7 331.5L653.5 325.1L656.3 337.2L659.1 320.4L661.9 310.1L664.7 314.2L667.5 311.4L670.3 318.4L673.1 315.1L675.9 321.5L678.7 318.2L681.5 324.7"></path><path fill="none" stroke-linecap="butt" stroke-linejoin="round" stroke="#4C6A9C" stroke-width="1.5" id="line__Argentina" d="M70.1 498L126.2 496.9L210.4 492.9L238.4 491.2L266.5 489.3L280.5 486.6L283.3 486.6L286.1 484.5L288.9 486.5L291.7 486.1L294.5 487.1L297.3 487.3L300.1 481.6L302.9 478.9L305.7 477.7L308.5 473.5L311.3 474.8L314.1 474.1L316.9 470.3L319.8 469.6L322.6 474L325.4 476.2L328.2 469.9L331 468.3L333.8 462.7L336.6 458.4L339.4 455.1L342.2 467.4L345 465L347.8 458.2L350.6 466.6L353.4 466.5L356.2 469.1L359 464.7L361.8 461.5L364.6 456.8L367.4 456.2L370.2 457.1L373 453.9L375.8 453.3L378.6 451.3L381.5 452.5L384.3 449.9L387.1 451.7L389.9 459.7L392.7 460.6L395.5 463.1L398.3 468L401.1 460.5L403.9 459.6L406.7 456.9L409.5 456.9L412.3 454.3L415.1 450L417.9 447.5L420.7 449.7L423.5 448.5L426.3 445.9L429.1 443.7L431.9 442.4L434.7 447.1L437.5 453L440.4 456.1L443.2 454.5L446 450.9L448.8 449.2L451.6 449.8L454.4 446.4L457.2 447.2L460 446L462.8 445.8L465.6 443.5L468.4 443.8L471.2 445.4L474 439L476.8 442.6L479.6 437.6L482.4 430.8L485.2 428.1L488 431.4L490.8 432.4L493.6 431L496.4 436.8L499.2 434.2L502.1 432.5L504.9 428.4L507.7 427.6L510.5 424.7L513.3 420.9L516.1 428.3L518.9 423.2L521.7 418.2L524.5 421.2L527.3 424.8L530.1 417.2L532.9 410L535.7 410.8L538.5 409.6L541.3 406.7L544.1 399.2L546.9 395L549.7 391.3L552.5 389.6L555.3 384.3L558.1 378.3L561 381.7L563.8 384.2L566.6 378.7L569.4 386.8L572.2 380L575 380.3L577.8 390L580.6 395.9L583.4 393.6L586.2 392.9L589 402.5L591.8 396.2L594.6 395L597.4 399L600.2 407.6L603 409L605.8 399.2L608.6 388.6L611.4 381.9L614.2 375.3L617 380.3L619.8 373.9L622.7 363.7L625.5 358.9L628.3 365.1L631.1 367.2L633.9 374.5L636.7 390.3L639.5 380.2L642.3 369.1L645.1 357.3L647.9 345.7L650.7 331.5L653.5 325.1L656.3 337.2L659.1 320.4L661.9 310.1L664.7 314.2L667.5 311.4L670.3 318.4L673.1 315.1L675.9 321.5L678.7 318.2L681.5 324.7"></path></g><g id="markers"></g></g><g id="footer" class="SourcesFooter" style="fill:#5b5b5b"><g id="sources" class="markdown-text-wrap"><text x="16.0" y="562.7" style="font-size:13.5px;line-height:1.2"><tspan x="16" y="562.7"><tspan style="font-weight:700">Data source:</tspan> Maddison Project Database (2018)</tspan></text></g><g id="note" class="markdown-text-wrap"><text x="16.0" y="580.9" style="font-size:13.5px;line-height:1.2"><tspan x="16" y="580.9"><tspan style="font-weight:700">Note:</tspan> The units of measurement is 2011 US dollar. CC-BY-ND-NC</tspan></text></g><text id="origin-url" font-size="13.50" x="527.5" y="562.7"><tspan x="527.55" y="562.695"><a target="_blank" style="fill: #5b5b5b;" href="https://tinyco.re/4329598">tinyco.re/4329598</a> | <a target="_blank" style="fill: #5b5b5b;" href="https://ourworldindata.org">Powered by ourworldindata.org</a></tspan></text></g></svg>