<svg xmlns="http://www.w3.org/2000/svg" version="1.1" style="font-family:Lato, &#x27;Helvetica Neue&#x27;, Helvetica, Arial, &#x27;Liberation Sans&#x27;, sans-serif;font-size:18px;background-color:#ffffff;text-rendering:geometricPrecision;-webkit-font-smoothing:antialiased" width="850" height="600" viewBox="0 0 850 600"><defs><style>@import url(https://ourworldindata.org/fonts.css)</style></defs><defs><pattern id="noDataPattern" patternUnits="userSpaceOnUse" width="4" height="4" patternTransform="rotate(-45 2 2)"><path d="M -1,2 l 6,0" stroke="#ccc" stroke-width="0.7"></path></pattern></defs><rect class="background-fill" fill="#ffffff" width="850" height="600"></rect><g id="header" class="HeaderView"><g id="logo" transform="translate(769, 16) scale(1)"><svg className="owidLogo" xmlns="http://www.w3.org/2000/svg" width="65" height="36" viewBox="0 0 65 36"  fill="none"><path fill="#002147" d="M0 0h64.8v36H0z"/><path fill="#CE261E" d="M0 33.3h64.8V36H0z"/><path fill="#fff" d="M13.796 10.575c0 .636-.106 1.226-.318 1.77a4.193 4.193 0 0 1-.894 1.404 4.084 4.084 0 0 1-1.386.93c-.54.22-1.138.33-1.794.33-.656 0-1.256-.11-1.8-.33a4.149 4.149 0 0 1-1.392-.93 4.193 4.193 0 0 1-.894-1.404A4.833 4.833 0 0 1 5 10.575c0-.636.106-1.224.318-1.764a4.18 4.18 0 0 1 .894-1.41 4.076 4.076 0 0 1 1.392-.924 4.684 4.684 0 0 1 1.8-.336c.656 0 1.254.112 1.794.336.54.224 1.002.534 1.386.93.384.392.682.86.894 1.404.212.54.318 1.128.318 1.764Zm-1.656 0c0-.476-.064-.902-.192-1.278a2.671 2.671 0 0 0-.54-.966 2.332 2.332 0 0 0-.864-.606 2.94 2.94 0 0 0-1.14-.21c-.424 0-.806.07-1.146.21-.34.14-.63.342-.87.606a2.742 2.742 0 0 0-.546.966 3.955 3.955 0 0 0-.192 1.278c0 .476.064.904.192 1.284.128.376.31.696.546.96.24.26.53.46.87.6.34.14.722.21 1.146.21.424 0 .804-.07 1.14-.21.34-.14.628-.34.864-.6.236-.264.416-.584.54-.96a4.01 4.01 0 0 0 .192-1.284ZM16.104 8.757v3.912c0 .376.086.668.258.876.176.204.438.306.786.306.256 0 .496-.056.72-.168a2.58 2.58 0 0 0 .636-.474V8.757h1.482v6.156h-.906c-.192 0-.318-.09-.378-.27l-.102-.492a4.65 4.65 0 0 1-.396.354 2.577 2.577 0 0 1-.438.27 2.35 2.35 0 0 1-.498.168 2.345 2.345 0 0 1-.57.066c-.336 0-.634-.056-.894-.168a1.821 1.821 0 0 1-.648-.486 2.157 2.157 0 0 1-.402-.738 3.233 3.233 0 0 1-.132-.948V8.757h1.482ZM21.328 14.913V8.757h.87c.152 0 .258.028.318.084.06.056.1.152.12.288l.09.744c.22-.38.478-.68.774-.9.296-.22.628-.33.996-.33.304 0 .556.07.756.21l-.192 1.11c-.012.072-.038.124-.078.156a.278.278 0 0 1-.162.042 1.01 1.01 0 0 1-.246-.042 1.646 1.646 0 0 0-.414-.042c-.308 0-.572.086-.792.258-.22.168-.406.416-.558.744v3.834h-1.482ZM27.347 6.237h1.356a.57.57 0 0 1 .348.102c.096.064.16.152.192.264l1.476 5.19c.036.128.068.268.096.42.032.148.062.306.09.474a5.968 5.968 0 0 1 .228-.894l1.704-5.19a.575.575 0 0 1 .186-.252.543.543 0 0 1 .348-.114h.474a.57.57 0 0 1 .348.102.497.497 0 0 1 .192.264l1.692 5.19c.088.256.164.54.228.852.028-.156.056-.306.084-.45.032-.144.064-.278.096-.402l1.476-5.19c.028-.1.09-.186.186-.258a.563.563 0 0 1 .348-.108h1.266l-2.694 8.676h-1.458l-1.896-5.928-.078-.246a9.504 9.504 0 0 1-.072-.282c-.024.1-.05.194-.078.282-.024.088-.048.17-.072.246l-1.914 5.928H30.04l-2.694-8.676ZM42.771 8.661c.46 0 .876.074 1.248.222.376.148.696.358.96.63s.468.604.612.996c.144.392.216.83.216 1.314 0 .488-.072.928-.216 1.32a2.85 2.85 0 0 1-.612 1.002 2.653 2.653 0 0 1-.96.636 3.35 3.35 0 0 1-1.248.222c-.46 0-.878-.074-1.254-.222a2.712 2.712 0 0 1-.966-.636 2.922 2.922 0 0 1-.618-1.002 3.807 3.807 0 0 1-.216-1.32c0-.484.072-.922.216-1.314.148-.392.354-.724.618-.996.268-.272.59-.482.966-.63a3.397 3.397 0 0 1 1.254-.222Zm0 5.202c.512 0 .89-.172 1.134-.516.248-.344.372-.848.372-1.512s-.124-1.17-.372-1.518c-.244-.348-.622-.522-1.134-.522-.52 0-.904.176-1.152.528-.248.348-.372.852-.372 1.512s.124 1.164.372 1.512c.248.344.632.516 1.152.516ZM46.723 14.913V8.757h.87c.152 0 .258.028.318.084.06.056.1.152.12.288l.09.744c.22-.38.478-.68.774-.9.296-.22.628-.33.996-.33.304 0 .556.07.756.21l-.192 1.11c-.012.072-.038.124-.078.156a.278.278 0 0 1-.162.042 1.01 1.01 0 0 1-.246-.042 1.646 1.646 0 0 0-.414-.042c-.308 0-.572.086-.792.258-.22.168-.406.416-.558.744v3.834h-1.482ZM52.96 5.997v8.916h-1.482V5.997h1.482ZM58.732 14.913c-.192 0-.318-.09-.378-.27l-.12-.594a3.68 3.68 0 0 1-.402.39c-.14.116-.292.216-.456.3-.16.084-.334.148-.522.192a2.372 2.372 0 0 1-.6.072c-.336 0-.644-.07-.924-.21a2.098 2.098 0 0 1-.726-.606 3.033 3.033 0 0 1-.468-.99 5.072 5.072 0 0 1-.162-1.344c0-.456.062-.88.186-1.272s.302-.732.534-1.02c.232-.288.51-.512.834-.672a2.384 2.384 0 0 1 1.092-.246 2.103 2.103 0 0 1 1.536.606V5.997h1.482v8.916h-.906Zm-1.974-1.086c.308 0 .57-.064.786-.192.216-.128.42-.31.612-.546v-2.76a1.452 1.452 0 0 0-.552-.432 1.597 1.597 0 0 0-.636-.126c-.224 0-.428.042-.612.126a1.21 1.21 0 0 0-.462.384c-.124.168-.22.384-.288.648-.068.26-.102.568-.102.924 0 .36.028.666.084.918.06.248.144.452.252.612.108.156.24.27.396.342.156.068.33.102.522.102ZM16.331 20.757v6.156H14.85v-6.156h1.481Zm.223-1.794a.844.844 0 0 1-.078.36.963.963 0 0 1-.21.294.995.995 0 0 1-.3.204.963.963 0 0 1-.372.072.948.948 0 0 1-.367-.072 1.018 1.018 0 0 1-.498-.498.963.963 0 0 1 0-.732.995.995 0 0 1 .205-.3.929.929 0 0 1 .293-.198.899.899 0 0 1 .738 0 .912.912 0 0 1 .3.198.943.943 0 0 1 .288.672ZM17.771 26.913v-6.156h.906c.192 0 .318.09.378.27l.102.486a2.934 2.934 0 0 1 .828-.618c.156-.076.322-.134.498-.174.176-.04.368-.06.576-.06.336 0 .634.058.894.174.26.112.476.272.648.48.176.204.308.45.396.738.092.284.138.598.138.942v3.918h-1.482v-3.918c0-.376-.088-.666-.264-.87-.172-.208-.432-.312-.78-.312-.256 0-.496.058-.72.174a2.58 2.58 0 0 0-.636.474v4.452h-1.482ZM34.22 22.575c0 .636-.106 1.22-.318 1.752-.212.532-.51.99-.894 1.374a4 4 0 0 1-1.386.894 4.87 4.87 0 0 1-1.794.318h-3.312v-8.676h3.312a4.79 4.79 0 0 1 1.794.324 4 4 0 0 1 1.386.894c.384.38.682.836.894 1.368.212.532.318 1.116.318 1.752Zm-1.65 0c0-.476-.064-.902-.192-1.278a2.68 2.68 0 0 0-.546-.96 2.332 2.332 0 0 0-.864-.606 2.94 2.94 0 0 0-1.14-.21h-1.686v6.108h1.686c.424 0 .804-.07 1.14-.21.34-.14.628-.34.864-.6a2.75 2.75 0 0 0 .546-.96 4.01 4.01 0 0 0 .192-1.284ZM39.98 26.913h-.665c-.14 0-.25-.02-.33-.06-.08-.044-.14-.13-.18-.258l-.132-.438c-.156.14-.31.264-.462.372a2.804 2.804 0 0 1-.462.264c-.16.072-.33.126-.51.162-.18.036-.38.054-.6.054-.26 0-.5-.034-.72-.102a1.618 1.618 0 0 1-.57-.318 1.448 1.448 0 0 1-.366-.522 1.852 1.852 0 0 1-.132-.726c0-.232.06-.46.18-.684.124-.228.328-.432.612-.612.284-.184.662-.336 1.134-.456.472-.12 1.058-.188 1.758-.204v-.36c0-.412-.088-.716-.264-.912-.172-.2-.424-.3-.756-.3a1.837 1.837 0 0 0-1.02.276c-.116.068-.224.13-.324.186a.664.664 0 0 1-.33.084.429.429 0 0 1-.258-.078.614.614 0 0 1-.174-.192l-.27-.474c.708-.648 1.562-.972 2.562-.972.36 0 .68.06.96.18.284.116.524.28.72.492.196.208.344.458.444.75.104.292.156.612.156.96v3.888Zm-2.88-.924c.153 0 .293-.014.42-.042.129-.028.249-.07.36-.126.117-.056.227-.124.33-.204.109-.084.217-.182.325-.294v-1.038c-.432.02-.794.058-1.086.114-.288.052-.52.12-.696.204a.923.923 0 0 0-.378.294.664.664 0 0 0-.108.366c0 .26.076.446.228.558.156.112.358.168.606.168ZM43.22 27.01c-.532 0-.942-.15-1.23-.45-.288-.305-.432-.723-.432-1.255v-3.438h-.624a.31.31 0 0 1-.21-.078c-.056-.052-.084-.13-.084-.234v-.588l.99-.162.312-1.68a.302.302 0 0 1 .108-.186.365.365 0 0 1 .222-.066h.768v1.938h1.62v1.056h-1.62v3.336c0 .192.048.342.144.45a.488.488 0 0 0 .384.162c.092 0 .168-.01.228-.03.064-.024.118-.048.162-.072.048-.024.09-.046.126-.066a.194.194 0 0 1 .108-.036.16.16 0 0 1 .108.036c.028.02.058.052.09.096l.444.72c-.216.18-.464.316-.744.408a2.77 2.77 0 0 1-.87.138ZM50.423 26.913h-.666c-.14 0-.25-.02-.33-.06-.08-.044-.14-.13-.18-.258l-.132-.438c-.156.14-.31.264-.462.372a2.804 2.804 0 0 1-.462.264c-.16.072-.33.126-.51.162-.18.036-.38.054-.6.054-.26 0-.5-.034-.72-.102a1.618 1.618 0 0 1-.57-.318 1.448 1.448 0 0 1-.366-.522 1.852 1.852 0 0 1-.132-.726c0-.232.06-.46.18-.684.124-.228.328-.432.612-.612.284-.184.662-.336 1.134-.456.472-.12 1.058-.188 1.758-.204v-.36c0-.412-.088-.716-.264-.912-.172-.2-.424-.3-.756-.3a1.837 1.837 0 0 0-1.02.276c-.116.068-.224.13-.324.186a.664.664 0 0 1-.33.084.429.429 0 0 1-.258-.078.614.614 0 0 1-.174-.192l-.27-.474c.708-.648 1.562-.972 2.562-.972.36 0 .68.06.96.18.284.116.524.28.72.492.196.208.344.458.444.75.104.292.156.612.156.96v3.888Zm-2.88-.924c.152 0 .292-.014.42-.042.128-.028.248-.07.36-.126.116-.056.226-.124.33-.204.108-.084.216-.182.324-.294v-1.038c-.432.02-.794.058-1.086.114-.288.052-.52.12-.696.204a.923.923 0 0 0-.378.294.664.664 0 0 0-.108.366c0 .26.076.446.228.558.156.112.358.168.606.168Z"/></svg></g><a id="title" href="https://ourworldindata.org/grapher/fertilizer-inputs-per-land" style="font-family:&#x27;Playfair Display&#x27;, Georgia, &#x27;Times New Roman&#x27;, &#x27;Liberation Serif&#x27;, serif" target="_blank" rel="noopener"><text font-size="24.75" font-weight="600" x="16.0" y="40.0" fill="#5b5b5b"><tspan x="16" y="40.0075">Fertilizer inputs per unit of agricultural land, 1961 to 2019</tspan></text></a><g id="subtitle" class="markdown-text-wrap"><text x="16.0" y="63.9" style="font-size:14.625px;line-height:1.2" fill="#5b5b5b"><tspan x="16" y="63.9">Total fertilizer consumption is the sum of nitrogen, potassium and phosphorous inputs. This is measured in</tspan><tspan x="16" y="81.4">kilograms per hectare of agricultural land, where this land is normalized between cropland and pasture into</tspan><tspan x="16" y="99.0">&#x27;rainfed-cropland-equivalents&#x27;.</tspan></text></g></g><g id="chart-area" style="pointer-events:none"><g id="horizontal-axis" class="HorizontalAxis"><g id="tick-marks"><line id="1961" x1="61.8" y1="530.8" x2="61.8" y2="536.3" stroke="#999" stroke-width="1"></line><line id="2019" x1="666" y1="530.8" x2="666" y2="536.3" stroke="#999" stroke-width="1"></line><line id="1970" x1="155.5" y1="530.8" x2="155.5" y2="536.3" stroke="#999" stroke-width="1"></line><line id="1980" x1="259.7" y1="530.8" x2="259.7" y2="536.3" stroke="#999" stroke-width="1"></line><line id="1990" x1="363.9" y1="530.8" x2="363.9" y2="536.3" stroke="#999" stroke-width="1"></line><line id="2000" x1="468" y1="530.8" x2="468" y2="536.3" stroke="#999" stroke-width="1"></line><line id="2010" x1="572.2" y1="530.8" x2="572.2" y2="536.3" stroke="#999" stroke-width="1"></line></g><g id="tick-labels"><text x="61.77" y="549.8" fill="#5b5b5b" text-anchor="start" font-size="13.5">1961</text><text x="665.95" y="549.8" fill="#5b5b5b" text-anchor="end" font-size="13.5">2019</text><text x="155.5" y="549.8" fill="#5b5b5b" text-anchor="middle" font-size="13.5">1970</text><text x="259.7" y="549.8" fill="#5b5b5b" text-anchor="middle" font-size="13.5">1980</text><text x="363.9" y="549.8" fill="#5b5b5b" text-anchor="middle" font-size="13.5">1990</text><text x="468" y="549.8" fill="#5b5b5b" text-anchor="middle" font-size="13.5">2000</text><text x="572.2" y="549.8" fill="#5b5b5b" text-anchor="middle" font-size="13.5">2010</text></g></g><g id="vertical-axis" class="VerticalAxis"><g id="tick-labels"><text x="56.77" y="531.3" dy=".32em" text-anchor="end" fill="#5b5b5b" font-size="13.5">0 kg</text><text x="56.77" y="473.2" dy=".32em" text-anchor="end" fill="#5b5b5b" font-size="13.5">20 kg</text><text x="56.77" y="415" dy=".32em" text-anchor="end" fill="#5b5b5b" font-size="13.5">40 kg</text><text x="56.77" y="356.9" dy=".32em" text-anchor="end" fill="#5b5b5b" font-size="13.5">60 kg</text><text x="56.77" y="298.8" dy=".32em" text-anchor="end" fill="#5b5b5b" font-size="13.5">80 kg</text><text x="56.77" y="240.6" dy=".32em" text-anchor="end" fill="#5b5b5b" font-size="13.5">100 kg</text><text x="56.77" y="182.5" dy=".32em" text-anchor="end" fill="#5b5b5b" font-size="13.5">120 kg</text><text x="56.77" y="124.4" dy=".32em" text-anchor="end" fill="#5b5b5b" font-size="13.5">140 kg</text></g></g><g id="horizontal-grid-lines" class="AxisGridLines horizontalLines"><line id="0-kg" x1="61.77" y1="531.3" x2="665.95" y2="531.3" stroke="#999" stroke-width="1"></line><line id="20-kg" x1="61.77" y1="473.2" x2="665.95" y2="473.2" stroke="#ddd" stroke-width="1" stroke-dasharray="3,2"></line><line id="40-kg" x1="61.77" y1="415" x2="665.95" y2="415" stroke="#ddd" stroke-width="1" stroke-dasharray="3,2"></line><line id="60-kg" x1="61.77" y1="356.9" x2="665.95" y2="356.9" stroke="#ddd" stroke-width="1" stroke-dasharray="3,2"></line><line id="80-kg" x1="61.77" y1="298.8" x2="665.95" y2="298.8" stroke="#ddd" stroke-width="1" stroke-dasharray="3,2"></line><line id="100-kg" x1="61.77" y1="240.6" x2="665.95" y2="240.6" stroke="#ddd" stroke-width="1" stroke-dasharray="3,2"></line><line id="120-kg" x1="61.77" y1="182.5" x2="665.95" y2="182.5" stroke="#ddd" stroke-width="1" stroke-dasharray="3,2"></line><line id="140-kg" x1="61.77" y1="124.4" x2="665.95" y2="124.4" stroke="#ddd" stroke-width="1" stroke-dasharray="3,2"></line></g><g id="line-labels" class="LineLabels"><g id="text-annotations"></g><g id="text-labels"><text font-size="13.50" font-weight="400" x="670.0" y="144.2" fill="#b13507" opacity="1" text-anchor="start"><tspan x="669.95" y="144.195">Upper-middle income</tspan></text><text font-size="13.50" font-weight="400" x="670.0" y="213.5" fill="#996d39" opacity="1" text-anchor="start"><tspan x="669.95" y="213.495">High income</tspan></text><text font-size="13.50" font-weight="400" x="670.0" y="308.7" fill="#4c6a9c" opacity="1" text-anchor="start"><tspan x="669.95" y="308.695">Lower-middle income</tspan></text><text font-size="13.50" font-weight="400" x="670.0" y="495.2" fill="#2c8465" opacity="1" text-anchor="start"><tspan x="669.95" y="495.195">Low income</tspan></text></g></g><g id="lines"><path fill="none" stroke-linecap="butt" stroke-linejoin="round" stroke="#ffffff" id="outline__Low-income" stroke-width="2.5" d="M61.8 517.4L72.2 514.9L82.6 514.2L93 513.3L103.4 512.1L113.9 510.4L124.3 509.1L134.7 506L145.1 506.6L155.5 503.2L165.9 501.4L176.4 499.1L186.8 500.2L197.2 498.8L207.6 495.4L218 489.8L228.4 488.6L238.9 482.2L249.3 479.5L259.7 478.3L270.1 477.5L280.5 477.8L290.9 478.3L301.4 474.3L311.8 475.2L322.2 478.4L332.6 476.1L343 477.3L353.4 476.6L363.9 473.6L374.3 476.7L384.7 478.7L395.1 477.1L405.5 492.5L415.9 497L426.4 494.6L436.8 493.6L447.2 495L457.6 490.9L468 490.5L478.4 492.9L488.9 490.5L499.3 495.6L509.7 484.3L520.1 488.6L530.5 488.9L540.9 488.4L551.4 489.4L561.8 488.9L572.2 487.7L582.6 487.4L593 489L603.4 490.7L613.9 489.7L624.3 486.9L634.7 485.7L645.1 483.3L655.5 485L666 490.2"></path><path fill="none" stroke-linecap="butt" stroke-linejoin="round" stroke="#2c8465" id="line__Low-income" stroke-width="1.5" stroke-opacity="1" d="M61.8 517.4L72.2 514.9L82.6 514.2L93 513.3L103.4 512.1L113.9 510.4L124.3 509.1L134.7 506L145.1 506.6L155.5 503.2L165.9 501.4L176.4 499.1L186.8 500.2L197.2 498.8L207.6 495.4L218 489.8L228.4 488.6L238.9 482.2L249.3 479.5L259.7 478.3L270.1 477.5L280.5 477.8L290.9 478.3L301.4 474.3L311.8 475.2L322.2 478.4L332.6 476.1L343 477.3L353.4 476.6L363.9 473.6L374.3 476.7L384.7 478.7L395.1 477.1L405.5 492.5L415.9 497L426.4 494.6L436.8 493.6L447.2 495L457.6 490.9L468 490.5L478.4 492.9L488.9 490.5L499.3 495.6L509.7 484.3L520.1 488.6L530.5 488.9L540.9 488.4L551.4 489.4L561.8 488.9L572.2 487.7L582.6 487.4L593 489L603.4 490.7L613.9 489.7L624.3 486.9L634.7 485.7L645.1 483.3L655.5 485L666 490.2"></path><g id="markers__Low-income"><circle id="1961" cx="61.8" cy="517.4" r="1.8" fill="#2c8465" opacity="1"></circle><circle id="1962" cx="72.2" cy="514.9" r="1.8" fill="#2c8465" opacity="1"></circle><circle id="1963" cx="82.6" cy="514.2" r="1.8" fill="#2c8465" opacity="1"></circle><circle id="1964" cx="93" cy="513.3" r="1.8" fill="#2c8465" opacity="1"></circle><circle id="1965" cx="103.4" cy="512.1" r="1.8" fill="#2c8465" opacity="1"></circle><circle id="1966" cx="113.9" cy="510.4" r="1.8" fill="#2c8465" opacity="1"></circle><circle id="1967" cx="124.3" cy="509.1" r="1.8" fill="#2c8465" opacity="1"></circle><circle id="1968" cx="134.7" cy="506" r="1.8" fill="#2c8465" opacity="1"></circle><circle id="1969" cx="145.1" cy="506.6" r="1.8" fill="#2c8465" opacity="1"></circle><circle id="1970" cx="155.5" cy="503.2" r="1.8" fill="#2c8465" opacity="1"></circle><circle id="1971" cx="165.9" cy="501.4" r="1.8" fill="#2c8465" opacity="1"></circle><circle id="1972" cx="176.4" cy="499.1" r="1.8" fill="#2c8465" opacity="1"></circle><circle id="1973" cx="186.8" cy="500.2" r="1.8" fill="#2c8465" opacity="1"></circle><circle id="1974" cx="197.2" cy="498.8" r="1.8" fill="#2c8465" opacity="1"></circle><circle id="1975" cx="207.6" cy="495.4" r="1.8" fill="#2c8465" opacity="1"></circle><circle id="1976" cx="218" cy="489.8" r="1.8" fill="#2c8465" opacity="1"></circle><circle id="1977" cx="228.4" cy="488.6" r="1.8" fill="#2c8465" opacity="1"></circle><circle id="1978" cx="238.9" cy="482.2" r="1.8" fill="#2c8465" opacity="1"></circle><circle id="1979" cx="249.3" cy="479.5" r="1.8" fill="#2c8465" opacity="1"></circle><circle id="1980" cx="259.7" cy="478.3" r="1.8" fill="#2c8465" opacity="1"></circle><circle id="1981" cx="270.1" cy="477.5" r="1.8" fill="#2c8465" opacity="1"></circle><circle id="1982" cx="280.5" cy="477.8" r="1.8" fill="#2c8465" opacity="1"></circle><circle id="1983" cx="290.9" cy="478.3" r="1.8" fill="#2c8465" opacity="1"></circle><circle id="1984" cx="301.4" cy="474.3" r="1.8" fill="#2c8465" opacity="1"></circle><circle id="1985" cx="311.8" cy="475.2" r="1.8" fill="#2c8465" opacity="1"></circle><circle id="1986" cx="322.2" cy="478.4" r="1.8" fill="#2c8465" opacity="1"></circle><circle id="1987" cx="332.6" cy="476.1" r="1.8" fill="#2c8465" opacity="1"></circle><circle id="1988" cx="343" cy="477.3" r="1.8" fill="#2c8465" opacity="1"></circle><circle id="1989" cx="353.4" cy="476.6" r="1.8" fill="#2c8465" opacity="1"></circle><circle id="1990" cx="363.9" cy="473.6" r="1.8" fill="#2c8465" opacity="1"></circle><circle id="1991" cx="374.3" cy="476.7" r="1.8" fill="#2c8465" opacity="1"></circle><circle id="1992" cx="384.7" cy="478.7" r="1.8" fill="#2c8465" opacity="1"></circle><circle id="1993" cx="395.1" cy="477.1" r="1.8" fill="#2c8465" opacity="1"></circle><circle id="1994" cx="405.5" cy="492.5" r="1.8" fill="#2c8465" opacity="1"></circle><circle id="1995" cx="415.9" cy="497" r="1.8" fill="#2c8465" opacity="1"></circle><circle id="1996" cx="426.4" cy="494.6" r="1.8" fill="#2c8465" opacity="1"></circle><circle id="1997" cx="436.8" cy="493.6" r="1.8" fill="#2c8465" opacity="1"></circle><circle id="1998" cx="447.2" cy="495" r="1.8" fill="#2c8465" opacity="1"></circle><circle id="1999" cx="457.6" cy="490.9" r="1.8" fill="#2c8465" opacity="1"></circle><circle id="2000" cx="468" cy="490.5" r="1.8" fill="#2c8465" opacity="1"></circle><circle id="2001" cx="478.4" cy="492.9" r="1.8" fill="#2c8465" opacity="1"></circle><circle id="2002" cx="488.9" cy="490.5" r="1.8" fill="#2c8465" opacity="1"></circle><circle id="2003" cx="499.3" cy="495.6" r="1.8" fill="#2c8465" opacity="1"></circle><circle id="2004" cx="509.7" cy="484.3" r="1.8" fill="#2c8465" opacity="1"></circle><circle id="2005" cx="520.1" cy="488.6" r="1.8" fill="#2c8465" opacity="1"></circle><circle id="2006" cx="530.5" cy="488.9" r="1.8" fill="#2c8465" opacity="1"></circle><circle id="2007" cx="540.9" cy="488.4" r="1.8" fill="#2c8465" opacity="1"></circle><circle id="2008" cx="551.4" cy="489.4" r="1.8" fill="#2c8465" opacity="1"></circle><circle id="2009" cx="561.8" cy="488.9" r="1.8" fill="#2c8465" opacity="1"></circle><circle id="2010" cx="572.2" cy="487.7" r="1.8" fill="#2c8465" opacity="1"></circle><circle id="2011" cx="582.6" cy="487.4" r="1.8" fill="#2c8465" opacity="1"></circle><circle id="2012" cx="593" cy="489" r="1.8" fill="#2c8465" opacity="1"></circle><circle id="2013" cx="603.4" cy="490.7" r="1.8" fill="#2c8465" opacity="1"></circle><circle id="2014" cx="613.9" cy="489.7" r="1.8" fill="#2c8465" opacity="1"></circle><circle id="2015" cx="624.3" cy="486.9" r="1.8" fill="#2c8465" opacity="1"></circle><circle id="2016" cx="634.7" cy="485.7" r="1.8" fill="#2c8465" opacity="1"></circle><circle id="2017" cx="645.1" cy="483.3" r="1.8" fill="#2c8465" opacity="1"></circle><circle id="2018" cx="655.5" cy="485" r="1.8" fill="#2c8465" opacity="1"></circle><circle id="2019" cx="666" cy="490.2" r="1.8" fill="#2c8465" opacity="1"></circle></g><path fill="none" stroke-linecap="butt" stroke-linejoin="round" stroke="#ffffff" id="outline__High-income" stroke-width="2.5" d="M61.8 344.5L72.2 335.8L82.6 325.8L93 314.6L103.4 301.3L113.9 287L124.3 272.3L134.7 268L145.1 261.2L155.5 245.9L165.9 236.1L176.4 222.1L186.8 198.6L197.2 220.6L207.6 199.9L218 186.4L228.4 189.4L238.9 171.9L249.3 163L259.7 170L270.1 185.8L280.5 202.4L290.9 176.5L301.4 177.2L311.8 188.2L322.2 185.6L332.6 182.8L343 182.5L353.4 180.2L363.9 206.5L374.3 217.8L384.7 227.3L395.1 217.5L405.5 218.8L415.9 210.8L426.4 203.2L436.8 204.9L447.2 209.4L457.6 210.1L468 224L478.4 219L488.9 219.2L499.3 205.2L509.7 211.8L520.1 225L530.5 212.7L540.9 207.8L551.4 261.6L561.8 239.8L572.2 217.4L582.6 221.2L593 211.4L603.4 202.7L613.9 208.5L624.3 206L634.7 199.7L645.1 196.7L655.5 211.7L666 208.5"></path><path fill="none" stroke-linecap="butt" stroke-linejoin="round" stroke="#996d39" id="line__High-income" stroke-width="1.5" stroke-opacity="1" d="M61.8 344.5L72.2 335.8L82.6 325.8L93 314.6L103.4 301.3L113.9 287L124.3 272.3L134.7 268L145.1 261.2L155.5 245.9L165.9 236.1L176.4 222.1L186.8 198.6L197.2 220.6L207.6 199.9L218 186.4L228.4 189.4L238.9 171.9L249.3 163L259.7 170L270.1 185.8L280.5 202.4L290.9 176.5L301.4 177.2L311.8 188.2L322.2 185.6L332.6 182.8L343 182.5L353.4 180.2L363.9 206.5L374.3 217.8L384.7 227.3L395.1 217.5L405.5 218.8L415.9 210.8L426.4 203.2L436.8 204.9L447.2 209.4L457.6 210.1L468 224L478.4 219L488.9 219.2L499.3 205.2L509.7 211.8L520.1 225L530.5 212.7L540.9 207.8L551.4 261.6L561.8 239.8L572.2 217.4L582.6 221.2L593 211.4L603.4 202.7L613.9 208.5L624.3 206L634.7 199.7L645.1 196.7L655.5 211.7L666 208.5"></path><g id="markers__High-income"><circle id="1961" cx="61.8" cy="344.5" r="1.8" fill="#996d39" opacity="1"></circle><circle id="1962" cx="72.2" cy="335.8" r="1.8" fill="#996d39" opacity="1"></circle><circle id="1963" cx="82.6" cy="325.8" r="1.8" fill="#996d39" opacity="1"></circle><circle id="1964" cx="93" cy="314.6" r="1.8" fill="#996d39" opacity="1"></circle><circle id="1965" cx="103.4" cy="301.3" r="1.8" fill="#996d39" opacity="1"></circle><circle id="1966" cx="113.9" cy="287" r="1.8" fill="#996d39" opacity="1"></circle><circle id="1967" cx="124.3" cy="272.3" r="1.8" fill="#996d39" opacity="1"></circle><circle id="1968" cx="134.7" cy="268" r="1.8" fill="#996d39" opacity="1"></circle><circle id="1969" cx="145.1" cy="261.2" r="1.8" fill="#996d39" opacity="1"></circle><circle id="1970" cx="155.5" cy="245.9" r="1.8" fill="#996d39" opacity="1"></circle><circle id="1971" cx="165.9" cy="236.1" r="1.8" fill="#996d39" opacity="1"></circle><circle id="1972" cx="176.4" cy="222.1" r="1.8" fill="#996d39" opacity="1"></circle><circle id="1973" cx="186.8" cy="198.6" r="1.8" fill="#996d39" opacity="1"></circle><circle id="1974" cx="197.2" cy="220.6" r="1.8" fill="#996d39" opacity="1"></circle><circle id="1975" cx="207.6" cy="199.9" r="1.8" fill="#996d39" opacity="1"></circle><circle id="1976" cx="218" cy="186.4" r="1.8" fill="#996d39" opacity="1"></circle><circle id="1977" cx="228.4" cy="189.4" r="1.8" fill="#996d39" opacity="1"></circle><circle id="1978" cx="238.9" cy="171.9" r="1.8" fill="#996d39" opacity="1"></circle><circle id="1979" cx="249.3" cy="163" r="1.8" fill="#996d39" opacity="1"></circle><circle id="1980" cx="259.7" cy="170" r="1.8" fill="#996d39" opacity="1"></circle><circle id="1981" cx="270.1" cy="185.8" r="1.8" fill="#996d39" opacity="1"></circle><circle id="1982" cx="280.5" cy="202.4" r="1.8" fill="#996d39" opacity="1"></circle><circle id="1983" cx="290.9" cy="176.5" r="1.8" fill="#996d39" opacity="1"></circle><circle id="1984" cx="301.4" cy="177.2" r="1.8" fill="#996d39" opacity="1"></circle><circle id="1985" cx="311.8" cy="188.2" r="1.8" fill="#996d39" opacity="1"></circle><circle id="1986" cx="322.2" cy="185.6" r="1.8" fill="#996d39" opacity="1"></circle><circle id="1987" cx="332.6" cy="182.8" r="1.8" fill="#996d39" opacity="1"></circle><circle id="1988" cx="343" cy="182.5" r="1.8" fill="#996d39" opacity="1"></circle><circle id="1989" cx="353.4" cy="180.2" r="1.8" fill="#996d39" opacity="1"></circle><circle id="1990" cx="363.9" cy="206.5" r="1.8" fill="#996d39" opacity="1"></circle><circle id="1991" cx="374.3" cy="217.8" r="1.8" fill="#996d39" opacity="1"></circle><circle id="1992" cx="384.7" cy="227.3" r="1.8" fill="#996d39" opacity="1"></circle><circle id="1993" cx="395.1" cy="217.5" r="1.8" fill="#996d39" opacity="1"></circle><circle id="1994" cx="405.5" cy="218.8" r="1.8" fill="#996d39" opacity="1"></circle><circle id="1995" cx="415.9" cy="210.8" r="1.8" fill="#996d39" opacity="1"></circle><circle id="1996" cx="426.4" cy="203.2" r="1.8" fill="#996d39" opacity="1"></circle><circle id="1997" cx="436.8" cy="204.9" r="1.8" fill="#996d39" opacity="1"></circle><circle id="1998" cx="447.2" cy="209.4" r="1.8" fill="#996d39" opacity="1"></circle><circle id="1999" cx="457.6" cy="210.1" r="1.8" fill="#996d39" opacity="1"></circle><circle id="2000" cx="468" cy="224" r="1.8" fill="#996d39" opacity="1"></circle><circle id="2001" cx="478.4" cy="219" r="1.8" fill="#996d39" opacity="1"></circle><circle id="2002" cx="488.9" cy="219.2" r="1.8" fill="#996d39" opacity="1"></circle><circle id="2003" cx="499.3" cy="205.2" r="1.8" fill="#996d39" opacity="1"></circle><circle id="2004" cx="509.7" cy="211.8" r="1.8" fill="#996d39" opacity="1"></circle><circle id="2005" cx="520.1" cy="225" r="1.8" fill="#996d39" opacity="1"></circle><circle id="2006" cx="530.5" cy="212.7" r="1.8" fill="#996d39" opacity="1"></circle><circle id="2007" cx="540.9" cy="207.8" r="1.8" fill="#996d39" opacity="1"></circle><circle id="2008" cx="551.4" cy="261.6" r="1.8" fill="#996d39" opacity="1"></circle><circle id="2009" cx="561.8" cy="239.8" r="1.8" fill="#996d39" opacity="1"></circle><circle id="2010" cx="572.2" cy="217.4" r="1.8" fill="#996d39" opacity="1"></circle><circle id="2011" cx="582.6" cy="221.2" r="1.8" fill="#996d39" opacity="1"></circle><circle id="2012" cx="593" cy="211.4" r="1.8" fill="#996d39" opacity="1"></circle><circle id="2013" cx="603.4" cy="202.7" r="1.8" fill="#996d39" opacity="1"></circle><circle id="2014" cx="613.9" cy="208.5" r="1.8" fill="#996d39" opacity="1"></circle><circle id="2015" cx="624.3" cy="206" r="1.8" fill="#996d39" opacity="1"></circle><circle id="2016" cx="634.7" cy="199.7" r="1.8" fill="#996d39" opacity="1"></circle><circle id="2017" cx="645.1" cy="196.7" r="1.8" fill="#996d39" opacity="1"></circle><circle id="2018" cx="655.5" cy="211.7" r="1.8" fill="#996d39" opacity="1"></circle><circle id="2019" cx="666" cy="208.5" r="1.8" fill="#996d39" opacity="1"></circle></g><path fill="none" stroke-linecap="butt" stroke-linejoin="round" stroke="#ffffff" id="outline__Upper-middle-income" stroke-width="2.5" d="M61.8 469.2L72.2 467.6L82.6 463.7L93 455.3L103.4 443.3L113.9 436.1L124.3 432.8L134.7 424.8L145.1 419.5L155.5 409.6L165.9 403.9L176.4 393.3L186.8 383.7L197.2 383.3L207.6 368.3L218 355.3L228.4 339.8L238.9 333.1L249.3 323.3L259.7 308.6L270.1 308.2L280.5 302.7L290.9 287.1L301.4 271.7L311.8 280.8L322.2 271L332.6 243.3L343 233.2L353.4 243.6L363.9 247.5L374.3 250.8L384.7 273.5L395.1 293.5L405.5 289.8L415.9 261.4L426.4 252.5L436.8 253L447.2 251.2L457.6 249L468 247.3L478.4 244.3L488.9 222L499.3 213.9L509.7 192.4L520.1 200.8L530.5 182.6L540.9 179.7L551.4 206L561.8 186L572.2 175.4L582.6 150.3L593 140.2L603.4 130.4L613.9 134.8L624.3 129.3L634.7 129.4L645.1 136.9L655.5 144.6L666 139.2"></path><path fill="none" stroke-linecap="butt" stroke-linejoin="round" stroke="#b13507" id="line__Upper-middle-income" stroke-width="1.5" stroke-opacity="1" d="M61.8 469.2L72.2 467.6L82.6 463.7L93 455.3L103.4 443.3L113.9 436.1L124.3 432.8L134.7 424.8L145.1 419.5L155.5 409.6L165.9 403.9L176.4 393.3L186.8 383.7L197.2 383.3L207.6 368.3L218 355.3L228.4 339.8L238.9 333.1L249.3 323.3L259.7 308.6L270.1 308.2L280.5 302.7L290.9 287.1L301.4 271.7L311.8 280.8L322.2 271L332.6 243.3L343 233.2L353.4 243.6L363.9 247.5L374.3 250.8L384.7 273.5L395.1 293.5L405.5 289.8L415.9 261.4L426.4 252.5L436.8 253L447.2 251.2L457.6 249L468 247.3L478.4 244.3L488.9 222L499.3 213.9L509.7 192.4L520.1 200.8L530.5 182.6L540.9 179.7L551.4 206L561.8 186L572.2 175.4L582.6 150.3L593 140.2L603.4 130.4L613.9 134.8L624.3 129.3L634.7 129.4L645.1 136.9L655.5 144.6L666 139.2"></path><g id="markers__Upper-middle-income"><circle id="1961" cx="61.8" cy="469.2" r="1.8" fill="#b13507" opacity="1"></circle><circle id="1962" cx="72.2" cy="467.6" r="1.8" fill="#b13507" opacity="1"></circle><circle id="1963" cx="82.6" cy="463.7" r="1.8" fill="#b13507" opacity="1"></circle><circle id="1964" cx="93" cy="455.3" r="1.8" fill="#b13507" opacity="1"></circle><circle id="1965" cx="103.4" cy="443.3" r="1.8" fill="#b13507" opacity="1"></circle><circle id="1966" cx="113.9" cy="436.1" r="1.8" fill="#b13507" opacity="1"></circle><circle id="1967" cx="124.3" cy="432.8" r="1.8" fill="#b13507" opacity="1"></circle><circle id="1968" cx="134.7" cy="424.8" r="1.8" fill="#b13507" opacity="1"></circle><circle id="1969" cx="145.1" cy="419.5" r="1.8" fill="#b13507" opacity="1"></circle><circle id="1970" cx="155.5" cy="409.6" r="1.8" fill="#b13507" opacity="1"></circle><circle id="1971" cx="165.9" cy="403.9" r="1.8" fill="#b13507" opacity="1"></circle><circle id="1972" cx="176.4" cy="393.3" r="1.8" fill="#b13507" opacity="1"></circle><circle id="1973" cx="186.8" cy="383.7" r="1.8" fill="#b13507" opacity="1"></circle><circle id="1974" cx="197.2" cy="383.3" r="1.8" fill="#b13507" opacity="1"></circle><circle id="1975" cx="207.6" cy="368.3" r="1.8" fill="#b13507" opacity="1"></circle><circle id="1976" cx="218" cy="355.3" r="1.8" fill="#b13507" opacity="1"></circle><circle id="1977" cx="228.4" cy="339.8" r="1.8" fill="#b13507" opacity="1"></circle><circle id="1978" cx="238.9" cy="333.1" r="1.8" fill="#b13507" opacity="1"></circle><circle id="1979" cx="249.3" cy="323.3" r="1.8" fill="#b13507" opacity="1"></circle><circle id="1980" cx="259.7" cy="308.6" r="1.8" fill="#b13507" opacity="1"></circle><circle id="1981" cx="270.1" cy="308.2" r="1.8" fill="#b13507" opacity="1"></circle><circle id="1982" cx="280.5" cy="302.7" r="1.8" fill="#b13507" opacity="1"></circle><circle id="1983" cx="290.9" cy="287.1" r="1.8" fill="#b13507" opacity="1"></circle><circle id="1984" cx="301.4" cy="271.7" r="1.8" fill="#b13507" opacity="1"></circle><circle id="1985" cx="311.8" cy="280.8" r="1.8" fill="#b13507" opacity="1"></circle><circle id="1986" cx="322.2" cy="271" r="1.8" fill="#b13507" opacity="1"></circle><circle id="1987" cx="332.6" cy="243.3" r="1.8" fill="#b13507" opacity="1"></circle><circle id="1988" cx="343" cy="233.2" r="1.8" fill="#b13507" opacity="1"></circle><circle id="1989" cx="353.4" cy="243.6" r="1.8" fill="#b13507" opacity="1"></circle><circle id="1990" cx="363.9" cy="247.5" r="1.8" fill="#b13507" opacity="1"></circle><circle id="1991" cx="374.3" cy="250.8" r="1.8" fill="#b13507" opacity="1"></circle><circle id="1992" cx="384.7" cy="273.5" r="1.8" fill="#b13507" opacity="1"></circle><circle id="1993" cx="395.1" cy="293.5" r="1.8" fill="#b13507" opacity="1"></circle><circle id="1994" cx="405.5" cy="289.8" r="1.8" fill="#b13507" opacity="1"></circle><circle id="1995" cx="415.9" cy="261.4" r="1.8" fill="#b13507" opacity="1"></circle><circle id="1996" cx="426.4" cy="252.5" r="1.8" fill="#b13507" opacity="1"></circle><circle id="1997" cx="436.8" cy="253" r="1.8" fill="#b13507" opacity="1"></circle><circle id="1998" cx="447.2" cy="251.2" r="1.8" fill="#b13507" opacity="1"></circle><circle id="1999" cx="457.6" cy="249" r="1.8" fill="#b13507" opacity="1"></circle><circle id="2000" cx="468" cy="247.3" r="1.8" fill="#b13507" opacity="1"></circle><circle id="2001" cx="478.4" cy="244.3" r="1.8" fill="#b13507" opacity="1"></circle><circle id="2002" cx="488.9" cy="222" r="1.8" fill="#b13507" opacity="1"></circle><circle id="2003" cx="499.3" cy="213.9" r="1.8" fill="#b13507" opacity="1"></circle><circle id="2004" cx="509.7" cy="192.4" r="1.8" fill="#b13507" opacity="1"></circle><circle id="2005" cx="520.1" cy="200.8" r="1.8" fill="#b13507" opacity="1"></circle><circle id="2006" cx="530.5" cy="182.6" r="1.8" fill="#b13507" opacity="1"></circle><circle id="2007" cx="540.9" cy="179.7" r="1.8" fill="#b13507" opacity="1"></circle><circle id="2008" cx="551.4" cy="206" r="1.8" fill="#b13507" opacity="1"></circle><circle id="2009" cx="561.8" cy="186" r="1.8" fill="#b13507" opacity="1"></circle><circle id="2010" cx="572.2" cy="175.4" r="1.8" fill="#b13507" opacity="1"></circle><circle id="2011" cx="582.6" cy="150.3" r="1.8" fill="#b13507" opacity="1"></circle><circle id="2012" cx="593" cy="140.2" r="1.8" fill="#b13507" opacity="1"></circle><circle id="2013" cx="603.4" cy="130.4" r="1.8" fill="#b13507" opacity="1"></circle><circle id="2014" cx="613.9" cy="134.8" r="1.8" fill="#b13507" opacity="1"></circle><circle id="2015" cx="624.3" cy="129.3" r="1.8" fill="#b13507" opacity="1"></circle><circle id="2016" cx="634.7" cy="129.4" r="1.8" fill="#b13507" opacity="1"></circle><circle id="2017" cx="645.1" cy="136.9" r="1.8" fill="#b13507" opacity="1"></circle><circle id="2018" cx="655.5" cy="144.6" r="1.8" fill="#b13507" opacity="1"></circle><circle id="2019" cx="666" cy="139.2" r="1.8" fill="#b13507" opacity="1"></circle></g><path fill="none" stroke-linecap="butt" stroke-linejoin="round" stroke="#ffffff" id="outline__Lower-middle-income" stroke-width="2.5" d="M61.8 495.7L72.2 494.9L82.6 493.1L93 489.4L103.4 486.7L113.9 483.4L124.3 479.3L134.7 476.7L145.1 475.7L155.5 470.6L165.9 464.9L176.4 460.9L186.8 459.2L197.2 455.6L207.6 453.1L218 444.9L228.4 437.7L238.9 433.8L249.3 430.8L259.7 424.3L270.1 419.8L280.5 415L290.9 405.7L301.4 399.9L311.8 391.7L322.2 385.2L332.6 390.5L343 376.7L353.4 377.1L363.9 377.8L374.3 378.7L384.7 385.7L395.1 394.9L405.5 389.6L415.9 388.5L426.4 385.9L436.8 378L447.2 375L457.6 368.4L468 373.1L478.4 372.5L488.9 376.6L499.3 372.4L509.7 361.8L520.1 355.4L530.5 349.4L540.9 345.5L551.4 337.1L561.8 326.6L572.2 317.3L582.6 317.4L593 327L603.4 327.1L613.9 320.2L624.3 317.3L634.7 316.4L645.1 307.3L655.5 304.6L666 303.7"></path><path fill="none" stroke-linecap="butt" stroke-linejoin="round" stroke="#4c6a9c" id="line__Lower-middle-income" stroke-width="1.5" stroke-opacity="1" d="M61.8 495.7L72.2 494.9L82.6 493.1L93 489.4L103.4 486.7L113.9 483.4L124.3 479.3L134.7 476.7L145.1 475.7L155.5 470.6L165.9 464.9L176.4 460.9L186.8 459.2L197.2 455.6L207.6 453.1L218 444.9L228.4 437.7L238.9 433.8L249.3 430.8L259.7 424.3L270.1 419.8L280.5 415L290.9 405.7L301.4 399.9L311.8 391.7L322.2 385.2L332.6 390.5L343 376.7L353.4 377.1L363.9 377.8L374.3 378.7L384.7 385.7L395.1 394.9L405.5 389.6L415.9 388.5L426.4 385.9L436.8 378L447.2 375L457.6 368.4L468 373.1L478.4 372.5L488.9 376.6L499.3 372.4L509.7 361.8L520.1 355.4L530.5 349.4L540.9 345.5L551.4 337.1L561.8 326.6L572.2 317.3L582.6 317.4L593 327L603.4 327.1L613.9 320.2L624.3 317.3L634.7 316.4L645.1 307.3L655.5 304.6L666 303.7"></path><g id="markers__Lower-middle-income"><circle id="1961" cx="61.8" cy="495.7" r="1.8" fill="#4c6a9c" opacity="1"></circle><circle id="1962" cx="72.2" cy="494.9" r="1.8" fill="#4c6a9c" opacity="1"></circle><circle id="1963" cx="82.6" cy="493.1" r="1.8" fill="#4c6a9c" opacity="1"></circle><circle id="1964" cx="93" cy="489.4" r="1.8" fill="#4c6a9c" opacity="1"></circle><circle id="1965" cx="103.4" cy="486.7" r="1.8" fill="#4c6a9c" opacity="1"></circle><circle id="1966" cx="113.9" cy="483.4" r="1.8" fill="#4c6a9c" opacity="1"></circle><circle id="1967" cx="124.3" cy="479.3" r="1.8" fill="#4c6a9c" opacity="1"></circle><circle id="1968" cx="134.7" cy="476.7" r="1.8" fill="#4c6a9c" opacity="1"></circle><circle id="1969" cx="145.1" cy="475.7" r="1.8" fill="#4c6a9c" opacity="1"></circle><circle id="1970" cx="155.5" cy="470.6" r="1.8" fill="#4c6a9c" opacity="1"></circle><circle id="1971" cx="165.9" cy="464.9" r="1.8" fill="#4c6a9c" opacity="1"></circle><circle id="1972" cx="176.4" cy="460.9" r="1.8" fill="#4c6a9c" opacity="1"></circle><circle id="1973" cx="186.8" cy="459.2" r="1.8" fill="#4c6a9c" opacity="1"></circle><circle id="1974" cx="197.2" cy="455.6" r="1.8" fill="#4c6a9c" opacity="1"></circle><circle id="1975" cx="207.6" cy="453.1" r="1.8" fill="#4c6a9c" opacity="1"></circle><circle id="1976" cx="218" cy="444.9" r="1.8" fill="#4c6a9c" opacity="1"></circle><circle id="1977" cx="228.4" cy="437.7" r="1.8" fill="#4c6a9c" opacity="1"></circle><circle id="1978" cx="238.9" cy="433.8" r="1.8" fill="#4c6a9c" opacity="1"></circle><circle id="1979" cx="249.3" cy="430.8" r="1.8" fill="#4c6a9c" opacity="1"></circle><circle id="1980" cx="259.7" cy="424.3" r="1.8" fill="#4c6a9c" opacity="1"></circle><circle id="1981" cx="270.1" cy="419.8" r="1.8" fill="#4c6a9c" opacity="1"></circle><circle id="1982" cx="280.5" cy="415" r="1.8" fill="#4c6a9c" opacity="1"></circle><circle id="1983" cx="290.9" cy="405.7" r="1.8" fill="#4c6a9c" opacity="1"></circle><circle id="1984" cx="301.4" cy="399.9" r="1.8" fill="#4c6a9c" opacity="1"></circle><circle id="1985" cx="311.8" cy="391.7" r="1.8" fill="#4c6a9c" opacity="1"></circle><circle id="1986" cx="322.2" cy="385.2" r="1.8" fill="#4c6a9c" opacity="1"></circle><circle id="1987" cx="332.6" cy="390.5" r="1.8" fill="#4c6a9c" opacity="1"></circle><circle id="1988" cx="343" cy="376.7" r="1.8" fill="#4c6a9c" opacity="1"></circle><circle id="1989" cx="353.4" cy="377.1" r="1.8" fill="#4c6a9c" opacity="1"></circle><circle id="1990" cx="363.9" cy="377.8" r="1.8" fill="#4c6a9c" opacity="1"></circle><circle id="1991" cx="374.3" cy="378.7" r="1.8" fill="#4c6a9c" opacity="1"></circle><circle id="1992" cx="384.7" cy="385.7" r="1.8" fill="#4c6a9c" opacity="1"></circle><circle id="1993" cx="395.1" cy="394.9" r="1.8" fill="#4c6a9c" opacity="1"></circle><circle id="1994" cx="405.5" cy="389.6" r="1.8" fill="#4c6a9c" opacity="1"></circle><circle id="1995" cx="415.9" cy="388.5" r="1.8" fill="#4c6a9c" opacity="1"></circle><circle id="1996" cx="426.4" cy="385.9" r="1.8" fill="#4c6a9c" opacity="1"></circle><circle id="1997" cx="436.8" cy="378" r="1.8" fill="#4c6a9c" opacity="1"></circle><circle id="1998" cx="447.2" cy="375" r="1.8" fill="#4c6a9c" opacity="1"></circle><circle id="1999" cx="457.6" cy="368.4" r="1.8" fill="#4c6a9c" opacity="1"></circle><circle id="2000" cx="468" cy="373.1" r="1.8" fill="#4c6a9c" opacity="1"></circle><circle id="2001" cx="478.4" cy="372.5" r="1.8" fill="#4c6a9c" opacity="1"></circle><circle id="2002" cx="488.9" cy="376.6" r="1.8" fill="#4c6a9c" opacity="1"></circle><circle id="2003" cx="499.3" cy="372.4" r="1.8" fill="#4c6a9c" opacity="1"></circle><circle id="2004" cx="509.7" cy="361.8" r="1.8" fill="#4c6a9c" opacity="1"></circle><circle id="2005" cx="520.1" cy="355.4" r="1.8" fill="#4c6a9c" opacity="1"></circle><circle id="2006" cx="530.5" cy="349.4" r="1.8" fill="#4c6a9c" opacity="1"></circle><circle id="2007" cx="540.9" cy="345.5" r="1.8" fill="#4c6a9c" opacity="1"></circle><circle id="2008" cx="551.4" cy="337.1" r="1.8" fill="#4c6a9c" opacity="1"></circle><circle id="2009" cx="561.8" cy="326.6" r="1.8" fill="#4c6a9c" opacity="1"></circle><circle id="2010" cx="572.2" cy="317.3" r="1.8" fill="#4c6a9c" opacity="1"></circle><circle id="2011" cx="582.6" cy="317.4" r="1.8" fill="#4c6a9c" opacity="1"></circle><circle id="2012" cx="593" cy="327" r="1.8" fill="#4c6a9c" opacity="1"></circle><circle id="2013" cx="603.4" cy="327.1" r="1.8" fill="#4c6a9c" opacity="1"></circle><circle id="2014" cx="613.9" cy="320.2" r="1.8" fill="#4c6a9c" opacity="1"></circle><circle id="2015" cx="624.3" cy="317.3" r="1.8" fill="#4c6a9c" opacity="1"></circle><circle id="2016" cx="634.7" cy="316.4" r="1.8" fill="#4c6a9c" opacity="1"></circle><circle id="2017" cx="645.1" cy="307.3" r="1.8" fill="#4c6a9c" opacity="1"></circle><circle id="2018" cx="655.5" cy="304.6" r="1.8" fill="#4c6a9c" opacity="1"></circle><circle id="2019" cx="666" cy="303.7" r="1.8" fill="#4c6a9c" opacity="1"></circle></g></g></g><g id="footer" class="SourcesFooter" style="fill:#5b5b5b"><g id="sources" class="markdown-text-wrap"><text x="16.0" y="580.9" style="font-size:13.5px;line-height:1.2"><tspan x="16" y="580.9"><tspan style="font-weight:700">Data source:</tspan> United States Department for Agriculture (USDA) Economic Research Service</tspan></text></g><text id="origin-url" font-size="13.50" x="603.6" y="580.9"><tspan x="603.555" y="580.895"><a target="_blank" style="fill: #5b5b5b;" href="https://ourworldindata.org/fertilizers">OurWorldinData.org/fertilizers</a> | <a target="_blank" style="fill: #5b5b5b;" href="https://creativecommons.org/licenses/by/4.0/">CC BY</a></tspan></text></g></svg>