<svg
    xmlns="http://www.w3.org/2000/svg"
    version="1.1"
    style='font-family:Lato, &#x27;Helvetica Neue&#x27;, Helvetica, Arial, &#x27;Liberation Sans&#x27;, sans-serif;font-feature-settings:"liga", "kern", "calt", "lnum";text-rendering:geometricPrecision;-webkit-font-smoothing:antialiased;font-size:18px;background-color:#ffffff'
    width="850"
    height="600"
    viewBox="0 0 850 600"
>
    <defs>
        <style>
            @import url(https://ourworldindata.org/fonts.css);
        </style>
    </defs>
    <defs>
        <pattern
            id="noDataPattern"
            patternUnits="userSpaceOnUse"
            width="4"
            height="4"
            patternTransform="rotate(-45 2 2)"
        >
            <path d="M -1,2 l 6,0" stroke="#ccc" stroke-width="0.7"></path>
        </pattern>
    </defs>
    <g id="header" class="HeaderView">
        <g id="logo" transform="translate(769, 16) scale(1)">
            <svg
                className="owidLogo"
                xmlns="http://www.w3.org/2000/svg"
                width="65"
                height="36"
                viewBox="0 0 65 36"
                fill="none"
            >
                <path fill="#002147" d="M0 0h64.8v36H0z" />
                <path fill="#CE261E" d="M0 33.3h64.8V36H0z" />
                <path
                    fill="#fff"
                    d="M13.796 10.575c0 .636-.106 1.226-.318 1.77a4.193 4.193 0 0 1-.894 1.404 4.084 4.084 0 0 1-1.386.93c-.54.22-1.138.33-1.794.33-.656 0-1.256-.11-1.8-.33a4.149 4.149 0 0 1-1.392-.93 4.193 4.193 0 0 1-.894-1.404A4.833 4.833 0 0 1 5 10.575c0-.636.106-1.224.318-1.764a4.18 4.18 0 0 1 .894-1.41 4.076 4.076 0 0 1 1.392-.924 4.684 4.684 0 0 1 1.8-.336c.656 0 1.254.112 1.794.336.54.224 1.002.534 1.386.93.384.392.682.86.894 1.404.212.54.318 1.128.318 1.764Zm-1.656 0c0-.476-.064-.902-.192-1.278a2.671 2.671 0 0 0-.54-.966 2.332 2.332 0 0 0-.864-.606 2.94 2.94 0 0 0-1.14-.21c-.424 0-.806.07-1.146.21-.34.14-.63.342-.87.606a2.742 2.742 0 0 0-.546.966 3.955 3.955 0 0 0-.192 1.278c0 .476.064.904.192 1.284.128.376.31.696.546.96.24.26.53.46.87.6.34.14.722.21 1.146.21.424 0 .804-.07 1.14-.21.34-.14.628-.34.864-.6.236-.264.416-.584.54-.96a4.01 4.01 0 0 0 .192-1.284ZM16.104 8.757v3.912c0 .376.086.668.258.876.176.204.438.306.786.306.256 0 .496-.056.72-.168a2.58 2.58 0 0 0 .636-.474V8.757h1.482v6.156h-.906c-.192 0-.318-.09-.378-.27l-.102-.492a4.65 4.65 0 0 1-.396.354 2.577 2.577 0 0 1-.438.27 2.35 2.35 0 0 1-.498.168 2.345 2.345 0 0 1-.57.066c-.336 0-.634-.056-.894-.168a1.821 1.821 0 0 1-.648-.486 2.157 2.157 0 0 1-.402-.738 3.233 3.233 0 0 1-.132-.948V8.757h1.482ZM21.328 14.913V8.757h.87c.152 0 .258.028.318.084.06.056.1.152.12.288l.09.744c.22-.38.478-.68.774-.9.296-.22.628-.33.996-.33.304 0 .556.07.756.21l-.192 1.11c-.012.072-.038.124-.078.156a.278.278 0 0 1-.162.042 1.01 1.01 0 0 1-.246-.042 1.646 1.646 0 0 0-.414-.042c-.308 0-.572.086-.792.258-.22.168-.406.416-.558.744v3.834h-1.482ZM27.347 6.237h1.356a.57.57 0 0 1 .348.102c.096.064.16.152.192.264l1.476 5.19c.036.128.068.268.096.42.032.148.062.306.09.474a5.968 5.968 0 0 1 .228-.894l1.704-5.19a.575.575 0 0 1 .186-.252.543.543 0 0 1 .348-.114h.474a.57.57 0 0 1 .348.102.497.497 0 0 1 .192.264l1.692 5.19c.088.256.164.54.228.852.028-.156.056-.306.084-.45.032-.144.064-.278.096-.402l1.476-5.19c.028-.1.09-.186.186-.258a.563.563 0 0 1 .348-.108h1.266l-2.694 8.676h-1.458l-1.896-5.928-.078-.246a9.504 9.504 0 0 1-.072-.282c-.024.1-.05.194-.078.282-.024.088-.048.17-.072.246l-1.914 5.928H30.04l-2.694-8.676ZM42.771 8.661c.46 0 .876.074 1.248.222.376.148.696.358.96.63s.468.604.612.996c.144.392.216.83.216 1.314 0 .488-.072.928-.216 1.32a2.85 2.85 0 0 1-.612 1.002 2.653 2.653 0 0 1-.96.636 3.35 3.35 0 0 1-1.248.222c-.46 0-.878-.074-1.254-.222a2.712 2.712 0 0 1-.966-.636 2.922 2.922 0 0 1-.618-1.002 3.807 3.807 0 0 1-.216-1.32c0-.484.072-.922.216-1.314.148-.392.354-.724.618-.996.268-.272.59-.482.966-.63a3.397 3.397 0 0 1 1.254-.222Zm0 5.202c.512 0 .89-.172 1.134-.516.248-.344.372-.848.372-1.512s-.124-1.17-.372-1.518c-.244-.348-.622-.522-1.134-.522-.52 0-.904.176-1.152.528-.248.348-.372.852-.372 1.512s.124 1.164.372 1.512c.248.344.632.516 1.152.516ZM46.723 14.913V8.757h.87c.152 0 .258.028.318.084.06.056.1.152.12.288l.09.744c.22-.38.478-.68.774-.9.296-.22.628-.33.996-.33.304 0 .556.07.756.21l-.192 1.11c-.012.072-.038.124-.078.156a.278.278 0 0 1-.162.042 1.01 1.01 0 0 1-.246-.042 1.646 1.646 0 0 0-.414-.042c-.308 0-.572.086-.792.258-.22.168-.406.416-.558.744v3.834h-1.482ZM52.96 5.997v8.916h-1.482V5.997h1.482ZM58.732 14.913c-.192 0-.318-.09-.378-.27l-.12-.594a3.68 3.68 0 0 1-.402.39c-.14.116-.292.216-.456.3-.16.084-.334.148-.522.192a2.372 2.372 0 0 1-.6.072c-.336 0-.644-.07-.924-.21a2.098 2.098 0 0 1-.726-.606 3.033 3.033 0 0 1-.468-.99 5.072 5.072 0 0 1-.162-1.344c0-.456.062-.88.186-1.272s.302-.732.534-1.02c.232-.288.51-.512.834-.672a2.384 2.384 0 0 1 1.092-.246 2.103 2.103 0 0 1 1.536.606V5.997h1.482v8.916h-.906Zm-1.974-1.086c.308 0 .57-.064.786-.192.216-.128.42-.31.612-.546v-2.76a1.452 1.452 0 0 0-.552-.432 1.597 1.597 0 0 0-.636-.126c-.224 0-.428.042-.612.126a1.21 1.21 0 0 0-.462.384c-.124.168-.22.384-.288.648-.068.26-.102.568-.102.924 0 .36.028.666.084.918.06.248.144.452.252.612.108.156.24.27.396.342.156.068.33.102.522.102ZM16.331 20.757v6.156H14.85v-6.156h1.481Zm.223-1.794a.844.844 0 0 1-.078.36.963.963 0 0 1-.21.294.995.995 0 0 1-.3.204.963.963 0 0 1-.372.072.948.948 0 0 1-.367-.072 1.018 1.018 0 0 1-.498-.498.963.963 0 0 1 0-.732.995.995 0 0 1 .205-.3.929.929 0 0 1 .293-.198.899.899 0 0 1 .738 0 .912.912 0 0 1 .3.198.943.943 0 0 1 .288.672ZM17.771 26.913v-6.156h.906c.192 0 .318.09.378.27l.102.486a2.934 2.934 0 0 1 .828-.618c.156-.076.322-.134.498-.174.176-.04.368-.06.576-.06.336 0 .634.058.894.174.26.112.476.272.648.48.176.204.308.45.396.738.092.284.138.598.138.942v3.918h-1.482v-3.918c0-.376-.088-.666-.264-.87-.172-.208-.432-.312-.78-.312-.256 0-.496.058-.72.174a2.58 2.58 0 0 0-.636.474v4.452h-1.482ZM34.22 22.575c0 .636-.106 1.22-.318 1.752-.212.532-.51.99-.894 1.374a4 4 0 0 1-1.386.894 4.87 4.87 0 0 1-1.794.318h-3.312v-8.676h3.312a4.79 4.79 0 0 1 1.794.324 4 4 0 0 1 1.386.894c.384.38.682.836.894 1.368.212.532.318 1.116.318 1.752Zm-1.65 0c0-.476-.064-.902-.192-1.278a2.68 2.68 0 0 0-.546-.96 2.332 2.332 0 0 0-.864-.606 2.94 2.94 0 0 0-1.14-.21h-1.686v6.108h1.686c.424 0 .804-.07 1.14-.21.34-.14.628-.34.864-.6a2.75 2.75 0 0 0 .546-.96 4.01 4.01 0 0 0 .192-1.284ZM39.98 26.913h-.665c-.14 0-.25-.02-.33-.06-.08-.044-.14-.13-.18-.258l-.132-.438c-.156.14-.31.264-.462.372a2.804 2.804 0 0 1-.462.264c-.16.072-.33.126-.51.162-.18.036-.38.054-.6.054-.26 0-.5-.034-.72-.102a1.618 1.618 0 0 1-.57-.318 1.448 1.448 0 0 1-.366-.522 1.852 1.852 0 0 1-.132-.726c0-.232.06-.46.18-.684.124-.228.328-.432.612-.612.284-.184.662-.336 1.134-.456.472-.12 1.058-.188 1.758-.204v-.36c0-.412-.088-.716-.264-.912-.172-.2-.424-.3-.756-.3a1.837 1.837 0 0 0-1.02.276c-.116.068-.224.13-.324.186a.664.664 0 0 1-.33.084.429.429 0 0 1-.258-.078.614.614 0 0 1-.174-.192l-.27-.474c.708-.648 1.562-.972 2.562-.972.36 0 .68.06.96.18.284.116.524.28.72.492.196.208.344.458.444.75.104.292.156.612.156.96v3.888Zm-2.88-.924c.153 0 .293-.014.42-.042.129-.028.249-.07.36-.126.117-.056.227-.124.33-.204.109-.084.217-.182.325-.294v-1.038c-.432.02-.794.058-1.086.114-.288.052-.52.12-.696.204a.923.923 0 0 0-.378.294.664.664 0 0 0-.108.366c0 .26.076.446.228.558.156.112.358.168.606.168ZM43.22 27.01c-.532 0-.942-.15-1.23-.45-.288-.305-.432-.723-.432-1.255v-3.438h-.624a.31.31 0 0 1-.21-.078c-.056-.052-.084-.13-.084-.234v-.588l.99-.162.312-1.68a.302.302 0 0 1 .108-.186.365.365 0 0 1 .222-.066h.768v1.938h1.62v1.056h-1.62v3.336c0 .192.048.342.144.45a.488.488 0 0 0 .384.162c.092 0 .168-.01.228-.03.064-.024.118-.048.162-.072.048-.024.09-.046.126-.066a.194.194 0 0 1 .108-.036.16.16 0 0 1 .108.036c.028.02.058.052.09.096l.444.72c-.216.18-.464.316-.744.408a2.77 2.77 0 0 1-.87.138ZM50.423 26.913h-.666c-.14 0-.25-.02-.33-.06-.08-.044-.14-.13-.18-.258l-.132-.438c-.156.14-.31.264-.462.372a2.804 2.804 0 0 1-.462.264c-.16.072-.33.126-.51.162-.18.036-.38.054-.6.054-.26 0-.5-.034-.72-.102a1.618 1.618 0 0 1-.57-.318 1.448 1.448 0 0 1-.366-.522 1.852 1.852 0 0 1-.132-.726c0-.232.06-.46.18-.684.124-.228.328-.432.612-.612.284-.184.662-.336 1.134-.456.472-.12 1.058-.188 1.758-.204v-.36c0-.412-.088-.716-.264-.912-.172-.2-.424-.3-.756-.3a1.837 1.837 0 0 0-1.02.276c-.116.068-.224.13-.324.186a.664.664 0 0 1-.33.084.429.429 0 0 1-.258-.078.614.614 0 0 1-.174-.192l-.27-.474c.708-.648 1.562-.972 2.562-.972.36 0 .68.06.96.18.284.116.524.28.72.492.196.208.344.458.444.75.104.292.156.612.156.96v3.888Zm-2.88-.924c.152 0 .292-.014.42-.042.128-.028.248-.07.36-.126.116-.056.226-.124.33-.204.108-.084.216-.182.324-.294v-1.038c-.432.02-.794.058-1.086.114-.288.052-.52.12-.696.204a.923.923 0 0 0-.378.294.664.664 0 0 0-.108.366c0 .26.076.446.228.558.156.112.358.168.606.168Z"
                />
            </svg>
        </g>
        <a
            id="title"
            href="https://ourworldindata.org/grapher/ghg-emissions-by-gas"
            style="font-family:&#x27;Playfair Display&#x27;, Georgia, &#x27;Times New Roman&#x27;, &#x27;Liberation Serif&#x27;, serif"
            target="_blank"
            rel="noopener"
        >
            <text
                font-size="22.50"
                font-weight="600"
                x="16.0"
                y="37.8"
                fill="#2d2e2d"
            >
                <tspan x="16" y="37.825">
                    (changed) Greenhouse gas emissions by gas, World, 1850 to
                    2023
                </tspan>
            </text>
        </a>
        <g id="subtitle" class="markdown-text-wrap">
            <text
                x="16.0"
                y="63.5"
                style="font-size: 15px; line-height: 1.2"
                fill="#5b5b5b"
            >
                <tspan x="16" y="63.5">
                    <tspan class="dod-span" data-id="ghgemissions">
                        Greenhouse gas emissions
                    </tspan>
                    from all sources, including agriculture and land-use change.
                    They are measured in
                </tspan>
                <tspan x="16" y="81.5">
                    tonnes of
                    <tspan class="dod-span" data-id="carbondioxideequivalents">
                        carbon dioxide-equivalents
                    </tspan>
                    over a 100-year timescale.
                </tspan>
            </text>
        </g>
    </g>
    <g id="chart-area" style="pointer-events: none">
        <g id="horizontal-axis" class="HorizontalAxis">
            <g id="tick-marks">
                <line
                    id="1850"
                    x1="79.8"
                    y1="531.9"
                    x2="79.8"
                    y2="537.4"
                    stroke="#999"
                    stroke-width="1"
                ></line>
                <line
                    id="2023"
                    x1="690.7"
                    y1="531.9"
                    x2="690.7"
                    y2="537.4"
                    stroke="#999"
                    stroke-width="1"
                ></line>
                <line
                    id="1880"
                    x1="185.7"
                    y1="531.9"
                    x2="185.7"
                    y2="537.4"
                    stroke="#999"
                    stroke-width="1"
                ></line>
                <line
                    id="1900"
                    x1="256.3"
                    y1="531.9"
                    x2="256.3"
                    y2="537.4"
                    stroke="#999"
                    stroke-width="1"
                ></line>
                <line
                    id="1920"
                    x1="327"
                    y1="531.9"
                    x2="327"
                    y2="537.4"
                    stroke="#999"
                    stroke-width="1"
                ></line>
                <line
                    id="1940"
                    x1="397.6"
                    y1="531.9"
                    x2="397.6"
                    y2="537.4"
                    stroke="#999"
                    stroke-width="1"
                ></line>
                <line
                    id="1960"
                    x1="468.2"
                    y1="531.9"
                    x2="468.2"
                    y2="537.4"
                    stroke="#999"
                    stroke-width="1"
                ></line>
                <line
                    id="1980"
                    x1="538.9"
                    y1="531.9"
                    x2="538.9"
                    y2="537.4"
                    stroke="#999"
                    stroke-width="1"
                ></line>
                <line
                    id="2000"
                    x1="609.5"
                    y1="531.9"
                    x2="609.5"
                    y2="537.4"
                    stroke="#999"
                    stroke-width="1"
                ></line>
            </g>
            <g id="tick-labels">
                <text
                    x="79.76"
                    y="550.4"
                    fill="#5b5b5b"
                    text-anchor="start"
                    font-size="13"
                >
                    1850
                </text>
                <text
                    x="690.73"
                    y="550.4"
                    fill="#5b5b5b"
                    text-anchor="end"
                    font-size="13"
                >
                    2023
                </text>
                <text
                    x="185.7"
                    y="550.4"
                    fill="#5b5b5b"
                    text-anchor="middle"
                    font-size="13"
                >
                    1880
                </text>
                <text
                    x="256.3"
                    y="550.4"
                    fill="#5b5b5b"
                    text-anchor="middle"
                    font-size="13"
                >
                    1900
                </text>
                <text
                    x="327"
                    y="550.4"
                    fill="#5b5b5b"
                    text-anchor="middle"
                    font-size="13"
                >
                    1920
                </text>
                <text
                    x="397.6"
                    y="550.4"
                    fill="#5b5b5b"
                    text-anchor="middle"
                    font-size="13"
                >
                    1940
                </text>
                <text
                    x="468.2"
                    y="550.4"
                    fill="#5b5b5b"
                    text-anchor="middle"
                    font-size="13"
                >
                    1960
                </text>
                <text
                    x="538.9"
                    y="550.4"
                    fill="#5b5b5b"
                    text-anchor="middle"
                    font-size="13"
                >
                    1980
                </text>
                <text
                    x="609.5"
                    y="550.4"
                    fill="#5b5b5b"
                    text-anchor="middle"
                    font-size="13"
                >
                    2000
                </text>
            </g>
        </g>
        <g id="vertical-axis" class="VerticalAxis">
            <g id="tick-labels">
                <text
                    x="74.76"
                    y="532.4"
                    dy=".32em"
                    text-anchor="end"
                    fill="#5b5b5b"
                    font-size="13"
                >
                    0 t
                </text>
                <text
                    x="74.76"
                    y="461.5"
                    dy=".32em"
                    text-anchor="end"
                    fill="#5b5b5b"
                    font-size="13"
                >
                    10 billion t
                </text>
                <text
                    x="74.76"
                    y="390.6"
                    dy=".32em"
                    text-anchor="end"
                    fill="#5b5b5b"
                    font-size="13"
                >
                    20 billion t
                </text>
                <text
                    x="74.76"
                    y="319.7"
                    dy=".32em"
                    text-anchor="end"
                    fill="#5b5b5b"
                    font-size="13"
                >
                    30 billion t
                </text>
                <text
                    x="74.76"
                    y="248.8"
                    dy=".32em"
                    text-anchor="end"
                    fill="#5b5b5b"
                    font-size="13"
                >
                    40 billion t
                </text>
                <text
                    x="74.76"
                    y="177.9"
                    dy=".32em"
                    text-anchor="end"
                    fill="#5b5b5b"
                    font-size="13"
                >
                    50 billion t
                </text>
                <text
                    x="74.76"
                    y="107"
                    dy=".32em"
                    text-anchor="end"
                    fill="#5b5b5b"
                    font-size="13"
                >
                    60 billion t
                </text>
            </g>
        </g>
        <g id="horizontal-grid-lines" class="AxisGridLines horizontalLines">
            <line
                id="0-t"
                x1="79.76"
                y1="532.4"
                x2="690.73"
                y2="532.4"
                stroke="#999"
            ></line>
            <line
                id="10-billion-t"
                x1="79.76"
                y1="461.5"
                x2="690.73"
                y2="461.5"
                stroke="#ddd"
                stroke-dasharray="4,4"
            ></line>
            <line
                id="20-billion-t"
                x1="79.76"
                y1="390.6"
                x2="690.73"
                y2="390.6"
                stroke="#ddd"
                stroke-dasharray="4,4"
            ></line>
            <line
                id="30-billion-t"
                x1="79.76"
                y1="319.7"
                x2="690.73"
                y2="319.7"
                stroke="#ddd"
                stroke-dasharray="4,4"
            ></line>
            <line
                id="40-billion-t"
                x1="79.76"
                y1="248.8"
                x2="690.73"
                y2="248.8"
                stroke="#ddd"
                stroke-dasharray="4,4"
            ></line>
            <line
                id="50-billion-t"
                x1="79.76"
                y1="177.9"
                x2="690.73"
                y2="177.9"
                stroke="#ddd"
                stroke-dasharray="4,4"
            ></line>
            <line
                id="60-billion-t"
                x1="79.76"
                y1="107"
                x2="690.73"
                y2="107"
                stroke="#ddd"
                stroke-dasharray="4,4"
            ></line>
        </g>
        <g id="line-labels" class="LineLabels">
            <g id="text-annotations"></g>
            <g id="text-labels">
                <text
                    id="label__Nitrous-oxide-(N₂O)"
                    font-size="13.00"
                    font-weight="400"
                    x="694.7"
                    y="166.3"
                    fill="#af8454"
                    opacity="1"
                    text-anchor="start"
                >
                    <tspan x="694.73" y="166.31">Nitrous oxide (N₂O)</tspan>
                </text>
                <text
                    id="label__Methane-(CH₄)"
                    font-size="13.00"
                    font-weight="400"
                    x="694.7"
                    y="214.2"
                    fill="#466599"
                    opacity="1"
                    text-anchor="start"
                >
                    <tspan x="694.73" y="214.21">Methane (CH₄)</tspan>
                </text>
                <text
                    id="label__Carbon-dioxide-(CO₂)"
                    font-size="13.00"
                    font-weight="400"
                    x="694.7"
                    y="387.2"
                    fill="#b52639"
                    opacity="1"
                    text-anchor="start"
                >
                    <tspan x="694.73" y="387.15999999999997">
                        Carbon dioxide
                    </tspan>
                    <tspan x="694.73" y="401.46">(CO₂)</tspan>
                </text>
            </g>
        </g>
        <g class="Areas" id="stacked-areas">
            <g id="areas">
                <path
                    id="Carbon-dioxide-(CO₂)"
                    class="Carbon-dioxide-__0028CO__2082__0029-area"
                    stroke-linecap="round"
                    d="M79.8 512.3L83.3 511L86.8 510.7L90.4 510.3L93.9 509.9L97.4 510.2L100.9 509.4L104.5 509.5L108 509.3L111.5 508.7L115.1 510.3L118.6 510.3L122.1 510.5L125.7 510.5L129.2 510.9L132.7 511.1L136.3 510.7L139.8 510.8L143.3 510.9L146.9 510.4L150.4 508.5L153.9 508.1L157.5 506.3L161 506.5L164.5 505.4L168.1 504.5L171.6 504.2L175.1 504.9L178.6 504.2L182.2 503.8L185.7 502.4L189.2 502.2L192.8 500.5L196.3 500.7L199.8 499.5L203.4 499.5L206.9 500L210.4 498.6L214 498.6L217.5 497.8L221 495.1L224.6 493.2L228.1 493.6L231.6 492.4L235.2 491.9L238.7 491.3L242.2 491.4L245.7 489.7L249.3 489.4L252.8 487.7L256.3 486.6L259.9 485.9L263.4 484.9L266.9 483.8L270.5 483L274 480.9L277.5 480.1L281.1 478.2L284.6 478.4L288.1 476.8L291.7 477.2L295.2 476.3L298.7 476.2L302.3 475.5L305.8 477.2L309.3 477.8L312.8 476.3L316.4 475L319.9 475.4L323.4 479.1L327 474.7L330.5 476.1L334 475.3L337.6 471.5L341.1 471.3L344.6 471L348.2 471.4L351.7 468.8L355.2 469.1L358.8 467.3L362.3 468.8L365.8 470.6L369.4 472.7L372.9 471L376.4 468.7L379.9 467.9L383.5 465L387 462.5L390.5 464L394.1 462.8L397.6 459.1L401.1 456.3L404.7 456.2L408.2 455.9L411.7 455.5L415.3 461.7L418.8 459.8L422.3 455.9L425.9 454.5L429.4 456.8L432.9 447.3L436.5 441.8L440 441.8L443.5 439.8L447 436L450.6 430.5L454.1 426.5L457.6 424.1L461.2 423.3L464.7 416.3L468.2 420.1L471.8 419.2L475.3 420.4L478.8 418L482.4 416.4L485.9 414.7L489.4 413.8L493 410.1L496.5 406L500 396.5L503.6 389.6L507.1 389.6L510.6 382.7L514.1 377.9L517.7 378.9L521.2 378.9L524.7 372L528.3 365.4L531.8 362.2L535.3 363.5L538.9 362.3L542.4 366.3L545.9 369.1L549.5 366.5L553 355.8L556.5 353.6L560.1 349.9L563.6 347.7L567.1 343.1L570.7 342.7L574.2 340L577.7 336.8L581.2 339.4L584.8 339.9L588.3 331.9L591.8 331.5L595.4 322.6L598.9 312L602.4 321.9L606 319.2L609.5 319.6L613 322L616.6 315.5L620.1 299.2L623.6 297.6L627.2 294.6L630.7 284.6L634.2 283.8L637.8 278.1L641.3 278.8L644.8 264.8L648.4 258.4L651.9 252.2L655.4 253.8L658.9 250.8L662.5 250.4L666 258.4L669.5 255.8L673.1 253.5L676.6 251.3L680.1 265L683.7 251.2L687.2 250.1L690.7 246.6L690.7 532.4L79.8 532.4"
                    fill="#b52639"
                    fill-opacity="0.8"
                ></path>
                <path
                    id="Methane-(CH₄)"
                    class="Methane-__0028CH__2084__0029-area"
                    stroke-linecap="round"
                    d="M79.8 503.5L83.3 502.2L86.8 501.8L90.4 501.3L93.9 500.9L97.4 501.1L100.9 500.3L104.5 500.3L108 500.1L111.5 499.5L115.1 501L118.6 500.9L122.1 501L125.7 501L129.2 501.3L132.7 501.4L136.3 501L139.8 501L143.3 501.1L146.9 500.4L150.4 498.5L153.9 498.1L157.5 496.1L161 496.2L164.5 495.1L168.1 494L171.6 493.7L175.1 494.3L178.6 493.5L182.2 493L185.7 491.4L189.2 491.1L192.8 489.3L196.3 489.3L199.8 488.1L203.4 488L206.9 488.4L210.4 486.8L214 486.7L217.5 485.8L221 483L224.6 480.9L228.1 481.1L231.6 479.9L235.2 479.3L238.7 478.5L242.2 478.5L245.7 476.7L249.3 476.2L252.8 474.3L256.3 473L259.9 472.2L263.4 471L266.9 469.7L270.5 468.8L274 466.5L277.5 465.4L281.1 463.2L284.6 463.3L288.1 461.6L291.7 461.8L295.2 460.7L298.7 460.4L302.3 459.4L305.8 461.3L309.3 461.8L312.8 460L316.4 458.5L319.9 458.9L323.4 462.9L327 458L330.5 459.7L334 458.5L337.6 454.1L341.1 453.8L344.6 453.3L348.2 453.7L351.7 450.5L355.2 450.7L358.8 448.5L362.3 450L365.8 451.9L369.4 454L372.9 452L376.4 449.2L379.9 448.1L383.5 444.6L387 441.7L390.5 443.1L394.1 441.5L397.6 437.3L401.1 434.2L404.7 433.8L408.2 433.1L411.7 432.3L415.3 438.7L418.8 436.1L422.3 431.4L425.9 429.6L429.4 431.5L432.9 421.4L436.5 415L440 414.4L443.5 411.6L447 407.1L450.6 400.2L454.1 395.1L457.6 391.7L461.2 390.2L464.7 381.7L468.2 384.4L471.8 383.2L475.3 383.7L478.8 380.3L482.4 377.9L485.9 375L489.4 372.6L493 368.3L496.5 363.4L500 352.5L503.6 344.4L507.1 344.2L510.6 336.4L514.1 330.5L517.7 331.2L521.2 330.5L524.7 322.9L528.3 315.6L531.8 312L535.3 312.1L538.9 311.1L542.4 316.3L545.9 318.5L549.5 315.7L553 304.2L556.5 301.2L560.1 296.9L563.6 294L567.1 288.5L570.7 286.8L574.2 283.8L577.7 280.8L581.2 283.5L584.8 283.8L588.3 275.3L591.8 274.1L595.4 264.6L598.9 253.9L602.4 264.3L606 261.3L609.5 260.6L613 263.1L616.6 256.6L620.1 238.6L623.6 235.8L627.2 231.6L630.7 220.4L634.2 219.1L637.8 212.5L641.3 213.6L644.8 198.2L648.4 189.8L651.9 182.9L655.4 184.7L658.9 181.1L662.5 180.5L666 188.3L669.5 184.6L673.1 181.2L676.6 178.4L680.1 192.9L683.7 178L687.2 175.4L690.7 172.1L690.7 246.6L687.2 250.1L683.7 251.2L680.1 265L676.6 251.3L673.1 253.5L669.5 255.8L666 258.4L662.5 250.4L658.9 250.8L655.4 253.8L651.9 252.2L648.4 258.4L644.8 264.8L641.3 278.8L637.8 278.1L634.2 283.8L630.7 284.6L627.2 294.6L623.6 297.6L620.1 299.2L616.6 315.5L613 322L609.5 319.6L606 319.2L602.4 321.9L598.9 312L595.4 322.6L591.8 331.5L588.3 331.9L584.8 339.9L581.2 339.4L577.7 336.8L574.2 340L570.7 342.7L567.1 343.1L563.6 347.7L560.1 349.9L556.5 353.6L553 355.8L549.5 366.5L545.9 369.1L542.4 366.3L538.9 362.3L535.3 363.5L531.8 362.2L528.3 365.4L524.7 372L521.2 378.9L517.7 378.9L514.1 377.9L510.6 382.7L507.1 389.6L503.6 389.6L500 396.5L496.5 406L493 410.1L489.4 413.8L485.9 414.7L482.4 416.4L478.8 418L475.3 420.4L471.8 419.2L468.2 420.1L464.7 416.3L461.2 423.3L457.6 424.1L454.1 426.5L450.6 430.5L447 436L443.5 439.8L440 441.8L436.5 441.8L432.9 447.3L429.4 456.8L425.9 454.5L422.3 455.9L418.8 459.8L415.3 461.7L411.7 455.5L408.2 455.9L404.7 456.2L401.1 456.3L397.6 459.1L394.1 462.8L390.5 464L387 462.5L383.5 465L379.9 467.9L376.4 468.7L372.9 471L369.4 472.7L365.8 470.6L362.3 468.8L358.8 467.3L355.2 469.1L351.7 468.8L348.2 471.4L344.6 471L341.1 471.3L337.6 471.5L334 475.3L330.5 476.1L327 474.7L323.4 479.1L319.9 475.4L316.4 475L312.8 476.3L309.3 477.8L305.8 477.2L302.3 475.5L298.7 476.2L295.2 476.3L291.7 477.2L288.1 476.8L284.6 478.4L281.1 478.2L277.5 480.1L274 480.9L270.5 483L266.9 483.8L263.4 484.9L259.9 485.9L256.3 486.6L252.8 487.7L249.3 489.4L245.7 489.7L242.2 491.4L238.7 491.3L235.2 491.9L231.6 492.4L228.1 493.6L224.6 493.2L221 495.1L217.5 497.8L214 498.6L210.4 498.6L206.9 500L203.4 499.5L199.8 499.5L196.3 500.7L192.8 500.5L189.2 502.2L185.7 502.4L182.2 503.8L178.6 504.2L175.1 504.9L171.6 504.2L168.1 504.5L164.5 505.4L161 506.5L157.5 506.3L153.9 508.1L150.4 508.5L146.9 510.4L143.3 510.9L139.8 510.8L136.3 510.7L132.7 511.1L129.2 510.9L125.7 510.5L122.1 510.5L118.6 510.3L115.1 510.3L111.5 508.7L108 509.3L104.5 509.5L100.9 509.4L97.4 510.2L93.9 509.9L90.4 510.3L86.8 510.7L83.3 511L79.8 512.3"
                    fill="#466599"
                    fill-opacity="0.8"
                ></path>
                <path
                    id="Nitrous-oxide-(N₂O)"
                    class="Nitrous-oxide-__0028N__2082O__0029-area"
                    stroke-linecap="round"
                    d="M79.8 502.5L83.3 501.1L86.8 500.7L90.4 500.3L93.9 499.8L97.4 500L100.9 499.1L104.5 499.2L108 498.9L111.5 498.3L115.1 499.8L118.6 499.7L122.1 499.8L125.7 499.8L129.2 500.2L132.7 500.2L136.3 499.8L139.8 499.8L143.3 499.9L146.9 499.2L150.4 497.3L153.9 496.9L157.5 494.8L161 494.9L164.5 493.7L168.1 492.5L171.6 492.2L175.1 492.6L178.6 491.8L182.2 491.3L185.7 489.7L189.2 489.3L192.8 487.6L196.3 487.5L199.8 486.3L203.4 486.1L206.9 486.5L210.4 485L214 484.8L217.5 483.9L221 481L224.6 478.9L228.1 479.1L231.6 477.9L235.2 477.2L238.7 476.4L242.2 476.4L245.7 474.6L249.3 474.1L252.8 472.1L256.3 470.8L259.9 470L263.4 468.8L266.9 467.4L270.5 466.5L274 464.2L277.5 463.1L281.1 460.8L284.6 461L288.1 459.1L291.7 459.3L295.2 458.2L298.7 457.9L302.3 456.9L305.8 458.7L309.3 459.1L312.8 457.3L316.4 455.8L319.9 456.1L323.4 460L327 455.1L330.5 456.8L334 455.6L337.6 451.1L341.1 450.7L344.6 450.2L348.2 450.5L351.7 447.3L355.2 447.5L358.8 445.3L362.3 446.7L365.8 448.6L369.4 450.7L372.9 448.7L376.4 445.9L379.9 444.7L383.5 441.2L387 438.2L390.5 439.7L394.1 438L397.6 433.8L401.1 430.5L404.7 429.9L408.2 428.8L411.7 427.5L415.3 433.5L418.8 430.3L422.3 425.1L425.9 422.9L429.4 424.5L432.9 414.2L436.5 407.7L440 406.9L443.5 404L447 399.3L450.6 392.3L454.1 387.1L457.6 383.5L461.2 381.7L464.7 373L468.2 375.5L471.8 373.8L475.3 374L478.8 370.3L482.4 367.5L485.9 364.3L489.4 361.4L493 356.7L496.5 351.4L500 340.3L503.6 332L507.1 331.9L510.6 323.7L514.1 317.3L517.7 318L521.2 316.8L524.7 308.8L528.3 301.2L531.8 297.4L535.3 297L538.9 296L542.4 301.5L545.9 303.2L549.5 300.2L553 288.6L556.5 285.7L560.1 281.2L563.6 278.1L567.1 272.6L570.7 270.8L574.2 267.7L577.7 264.8L581.2 267.4L584.8 267.7L588.3 259L591.8 257.3L595.4 247.5L598.9 237L602.4 247.3L606 244.2L609.5 243.6L613 246L616.6 239.3L620.1 221.2L623.6 217.8L627.2 213.4L630.7 202L634.2 200.1L637.8 193.8L641.3 195.1L644.8 179.3L648.4 170.2L651.9 163.1L655.4 165.1L658.9 161.2L662.5 160.6L666 168.2L669.5 164.1L673.1 160.7L676.6 158.1L680.1 172.3L683.7 157.1L687.2 154.3L690.7 150.8L690.7 172.1L687.2 175.4L683.7 178L680.1 192.9L676.6 178.4L673.1 181.2L669.5 184.6L666 188.3L662.5 180.5L658.9 181.1L655.4 184.7L651.9 182.9L648.4 189.8L644.8 198.2L641.3 213.6L637.8 212.5L634.2 219.1L630.7 220.4L627.2 231.6L623.6 235.8L620.1 238.6L616.6 256.6L613 263.1L609.5 260.6L606 261.3L602.4 264.3L598.9 253.9L595.4 264.6L591.8 274.1L588.3 275.3L584.8 283.8L581.2 283.5L577.7 280.8L574.2 283.8L570.7 286.8L567.1 288.5L563.6 294L560.1 296.9L556.5 301.2L553 304.2L549.5 315.7L545.9 318.5L542.4 316.3L538.9 311.1L535.3 312.1L531.8 312L528.3 315.6L524.7 322.9L521.2 330.5L517.7 331.2L514.1 330.5L510.6 336.4L507.1 344.2L503.6 344.4L500 352.5L496.5 363.4L493 368.3L489.4 372.6L485.9 375L482.4 377.9L478.8 380.3L475.3 383.7L471.8 383.2L468.2 384.4L464.7 381.7L461.2 390.2L457.6 391.7L454.1 395.1L450.6 400.2L447 407.1L443.5 411.6L440 414.4L436.5 415L432.9 421.4L429.4 431.5L425.9 429.6L422.3 431.4L418.8 436.1L415.3 438.7L411.7 432.3L408.2 433.1L404.7 433.8L401.1 434.2L397.6 437.3L394.1 441.5L390.5 443.1L387 441.7L383.5 444.6L379.9 448.1L376.4 449.2L372.9 452L369.4 454L365.8 451.9L362.3 450L358.8 448.5L355.2 450.7L351.7 450.5L348.2 453.7L344.6 453.3L341.1 453.8L337.6 454.1L334 458.5L330.5 459.7L327 458L323.4 462.9L319.9 458.9L316.4 458.5L312.8 460L309.3 461.8L305.8 461.3L302.3 459.4L298.7 460.4L295.2 460.7L291.7 461.8L288.1 461.6L284.6 463.3L281.1 463.2L277.5 465.4L274 466.5L270.5 468.8L266.9 469.7L263.4 471L259.9 472.2L256.3 473L252.8 474.3L249.3 476.2L245.7 476.7L242.2 478.5L238.7 478.5L235.2 479.3L231.6 479.9L228.1 481.1L224.6 480.9L221 483L217.5 485.8L214 486.7L210.4 486.8L206.9 488.4L203.4 488L199.8 488.1L196.3 489.3L192.8 489.3L189.2 491.1L185.7 491.4L182.2 493L178.6 493.5L175.1 494.3L171.6 493.7L168.1 494L164.5 495.1L161 496.2L157.5 496.1L153.9 498.1L150.4 498.5L146.9 500.4L143.3 501.1L139.8 501L136.3 501L132.7 501.4L129.2 501.3L125.7 501L122.1 501L118.6 500.9L115.1 501L111.5 499.5L108 500.1L104.5 500.3L100.9 500.3L97.4 501.1L93.9 500.9L90.4 501.3L86.8 501.8L83.3 502.2L79.8 503.5"
                    fill="#bc8e5a"
                    fill-opacity="0.8"
                ></path>
            </g>
            <g id="borders">
                <path
                    id="Carbon-dioxide-(CO₂)"
                    class="Carbon-dioxide-__0028CO__2082__0029-border"
                    stroke-linecap="round"
                    d="M79.8 512.3L83.3 511L86.8 510.7L90.4 510.3L93.9 509.9L97.4 510.2L100.9 509.4L104.5 509.5L108 509.3L111.5 508.7L115.1 510.3L118.6 510.3L122.1 510.5L125.7 510.5L129.2 510.9L132.7 511.1L136.3 510.7L139.8 510.8L143.3 510.9L146.9 510.4L150.4 508.5L153.9 508.1L157.5 506.3L161 506.5L164.5 505.4L168.1 504.5L171.6 504.2L175.1 504.9L178.6 504.2L182.2 503.8L185.7 502.4L189.2 502.2L192.8 500.5L196.3 500.7L199.8 499.5L203.4 499.5L206.9 500L210.4 498.6L214 498.6L217.5 497.8L221 495.1L224.6 493.2L228.1 493.6L231.6 492.4L235.2 491.9L238.7 491.3L242.2 491.4L245.7 489.7L249.3 489.4L252.8 487.7L256.3 486.6L259.9 485.9L263.4 484.9L266.9 483.8L270.5 483L274 480.9L277.5 480.1L281.1 478.2L284.6 478.4L288.1 476.8L291.7 477.2L295.2 476.3L298.7 476.2L302.3 475.5L305.8 477.2L309.3 477.8L312.8 476.3L316.4 475L319.9 475.4L323.4 479.1L327 474.7L330.5 476.1L334 475.3L337.6 471.5L341.1 471.3L344.6 471L348.2 471.4L351.7 468.8L355.2 469.1L358.8 467.3L362.3 468.8L365.8 470.6L369.4 472.7L372.9 471L376.4 468.7L379.9 467.9L383.5 465L387 462.5L390.5 464L394.1 462.8L397.6 459.1L401.1 456.3L404.7 456.2L408.2 455.9L411.7 455.5L415.3 461.7L418.8 459.8L422.3 455.9L425.9 454.5L429.4 456.8L432.9 447.3L436.5 441.8L440 441.8L443.5 439.8L447 436L450.6 430.5L454.1 426.5L457.6 424.1L461.2 423.3L464.7 416.3L468.2 420.1L471.8 419.2L475.3 420.4L478.8 418L482.4 416.4L485.9 414.7L489.4 413.8L493 410.1L496.5 406L500 396.5L503.6 389.6L507.1 389.6L510.6 382.7L514.1 377.9L517.7 378.9L521.2 378.9L524.7 372L528.3 365.4L531.8 362.2L535.3 363.5L538.9 362.3L542.4 366.3L545.9 369.1L549.5 366.5L553 355.8L556.5 353.6L560.1 349.9L563.6 347.7L567.1 343.1L570.7 342.7L574.2 340L577.7 336.8L581.2 339.4L584.8 339.9L588.3 331.9L591.8 331.5L595.4 322.6L598.9 312L602.4 321.9L606 319.2L609.5 319.6L613 322L616.6 315.5L620.1 299.2L623.6 297.6L627.2 294.6L630.7 284.6L634.2 283.8L637.8 278.1L641.3 278.8L644.8 264.8L648.4 258.4L651.9 252.2L655.4 253.8L658.9 250.8L662.5 250.4L666 258.4L669.5 255.8L673.1 253.5L676.6 251.3L680.1 265L683.7 251.2L687.2 250.1L690.7 246.6"
                    stroke="rgb(151, 32, 48)"
                    stroke-opacity="0.7"
                    stroke-width="0.5"
                    fill="none"
                ></path>
                <path
                    id="Methane-(CH₄)"
                    class="Methane-__0028CH__2084__0029-border"
                    stroke-linecap="round"
                    d="M79.8 503.5L83.3 502.2L86.8 501.8L90.4 501.3L93.9 500.9L97.4 501.1L100.9 500.3L104.5 500.3L108 500.1L111.5 499.5L115.1 501L118.6 500.9L122.1 501L125.7 501L129.2 501.3L132.7 501.4L136.3 501L139.8 501L143.3 501.1L146.9 500.4L150.4 498.5L153.9 498.1L157.5 496.1L161 496.2L164.5 495.1L168.1 494L171.6 493.7L175.1 494.3L178.6 493.5L182.2 493L185.7 491.4L189.2 491.1L192.8 489.3L196.3 489.3L199.8 488.1L203.4 488L206.9 488.4L210.4 486.8L214 486.7L217.5 485.8L221 483L224.6 480.9L228.1 481.1L231.6 479.9L235.2 479.3L238.7 478.5L242.2 478.5L245.7 476.7L249.3 476.2L252.8 474.3L256.3 473L259.9 472.2L263.4 471L266.9 469.7L270.5 468.8L274 466.5L277.5 465.4L281.1 463.2L284.6 463.3L288.1 461.6L291.7 461.8L295.2 460.7L298.7 460.4L302.3 459.4L305.8 461.3L309.3 461.8L312.8 460L316.4 458.5L319.9 458.9L323.4 462.9L327 458L330.5 459.7L334 458.5L337.6 454.1L341.1 453.8L344.6 453.3L348.2 453.7L351.7 450.5L355.2 450.7L358.8 448.5L362.3 450L365.8 451.9L369.4 454L372.9 452L376.4 449.2L379.9 448.1L383.5 444.6L387 441.7L390.5 443.1L394.1 441.5L397.6 437.3L401.1 434.2L404.7 433.8L408.2 433.1L411.7 432.3L415.3 438.7L418.8 436.1L422.3 431.4L425.9 429.6L429.4 431.5L432.9 421.4L436.5 415L440 414.4L443.5 411.6L447 407.1L450.6 400.2L454.1 395.1L457.6 391.7L461.2 390.2L464.7 381.7L468.2 384.4L471.8 383.2L475.3 383.7L478.8 380.3L482.4 377.9L485.9 375L489.4 372.6L493 368.3L496.5 363.4L500 352.5L503.6 344.4L507.1 344.2L510.6 336.4L514.1 330.5L517.7 331.2L521.2 330.5L524.7 322.9L528.3 315.6L531.8 312L535.3 312.1L538.9 311.1L542.4 316.3L545.9 318.5L549.5 315.7L553 304.2L556.5 301.2L560.1 296.9L563.6 294L567.1 288.5L570.7 286.8L574.2 283.8L577.7 280.8L581.2 283.5L584.8 283.8L588.3 275.3L591.8 274.1L595.4 264.6L598.9 253.9L602.4 264.3L606 261.3L609.5 260.6L613 263.1L616.6 256.6L620.1 238.6L623.6 235.8L627.2 231.6L630.7 220.4L634.2 219.1L637.8 212.5L641.3 213.6L644.8 198.2L648.4 189.8L651.9 182.9L655.4 184.7L658.9 181.1L662.5 180.5L666 188.3L669.5 184.6L673.1 181.2L676.6 178.4L680.1 192.9L683.7 178L687.2 175.4L690.7 172.1"
                    stroke="rgb(59, 85, 128)"
                    stroke-opacity="0.7"
                    stroke-width="0.5"
                    fill="none"
                ></path>
                <path
                    id="Nitrous-oxide-(N₂O)"
                    class="Nitrous-oxide-__0028N__2082O__0029-border"
                    stroke-linecap="round"
                    d="M79.8 502.5L83.3 501.1L86.8 500.7L90.4 500.3L93.9 499.8L97.4 500L100.9 499.1L104.5 499.2L108 498.9L111.5 498.3L115.1 499.8L118.6 499.7L122.1 499.8L125.7 499.8L129.2 500.2L132.7 500.2L136.3 499.8L139.8 499.8L143.3 499.9L146.9 499.2L150.4 497.3L153.9 496.9L157.5 494.8L161 494.9L164.5 493.7L168.1 492.5L171.6 492.2L175.1 492.6L178.6 491.8L182.2 491.3L185.7 489.7L189.2 489.3L192.8 487.6L196.3 487.5L199.8 486.3L203.4 486.1L206.9 486.5L210.4 485L214 484.8L217.5 483.9L221 481L224.6 478.9L228.1 479.1L231.6 477.9L235.2 477.2L238.7 476.4L242.2 476.4L245.7 474.6L249.3 474.1L252.8 472.1L256.3 470.8L259.9 470L263.4 468.8L266.9 467.4L270.5 466.5L274 464.2L277.5 463.1L281.1 460.8L284.6 461L288.1 459.1L291.7 459.3L295.2 458.2L298.7 457.9L302.3 456.9L305.8 458.7L309.3 459.1L312.8 457.3L316.4 455.8L319.9 456.1L323.4 460L327 455.1L330.5 456.8L334 455.6L337.6 451.1L341.1 450.7L344.6 450.2L348.2 450.5L351.7 447.3L355.2 447.5L358.8 445.3L362.3 446.7L365.8 448.6L369.4 450.7L372.9 448.7L376.4 445.9L379.9 444.7L383.5 441.2L387 438.2L390.5 439.7L394.1 438L397.6 433.8L401.1 430.5L404.7 429.9L408.2 428.8L411.7 427.5L415.3 433.5L418.8 430.3L422.3 425.1L425.9 422.9L429.4 424.5L432.9 414.2L436.5 407.7L440 406.9L443.5 404L447 399.3L450.6 392.3L454.1 387.1L457.6 383.5L461.2 381.7L464.7 373L468.2 375.5L471.8 373.8L475.3 374L478.8 370.3L482.4 367.5L485.9 364.3L489.4 361.4L493 356.7L496.5 351.4L500 340.3L503.6 332L507.1 331.9L510.6 323.7L514.1 317.3L517.7 318L521.2 316.8L524.7 308.8L528.3 301.2L531.8 297.4L535.3 297L538.9 296L542.4 301.5L545.9 303.2L549.5 300.2L553 288.6L556.5 285.7L560.1 281.2L563.6 278.1L567.1 272.6L570.7 270.8L574.2 267.7L577.7 264.8L581.2 267.4L584.8 267.7L588.3 259L591.8 257.3L595.4 247.5L598.9 237L602.4 247.3L606 244.2L609.5 243.6L613 246L616.6 239.3L620.1 221.2L623.6 217.8L627.2 213.4L630.7 202L634.2 200.1L637.8 193.8L641.3 195.1L644.8 179.3L648.4 170.2L651.9 163.1L655.4 165.1L658.9 161.2L662.5 160.6L666 168.2L669.5 164.1L673.1 160.7L676.6 158.1L680.1 172.3L683.7 157.1L687.2 154.3L690.7 150.8"
                    stroke="rgb(157, 119, 75)"
                    stroke-opacity="0.7"
                    stroke-width="0.5"
                    fill="none"
                ></path>
            </g>
        </g>
    </g>
    <g id="footer" class="SourcesFooter" style="fill: #858585">
        <g id="sources" class="markdown-text-wrap">
            <text x="16.0" y="581.0" style="font-size: 13px; line-height: 1.2">
                <tspan x="16" y="581.0">
                    <tspan style="font-weight: 700">Data source:</tspan>
                    Jones et al. (2024)
                </tspan>
            </text>
        </g>
        <text id="origin-url" font-size="13.00" x="456.1" y="581.0">
            <tspan x="456.09" y="581.01">
                <a
                    target="_blank"
                    style="fill: #858585"
                    href="https://ourworldindata.org/co2-and-greenhouse-gas-emissions"
                >
                    OurWorldinData.org/co2-and-greenhouse-gas-emissions
                </a>
                |
                <a
                    target="_blank"
                    style="fill: #858585"
                    href="https://creativecommons.org/licenses/by/4.0/"
                >
                    CC BY
                </a>
            </tspan>
        </text>
    </g>
</svg>
