<svg xmlns="http://www.w3.org/2000/svg" version="1.1" style="font-family:Lato, &#x27;Helvetica Neue&#x27;, Helvetica, Arial, &#x27;Liberation Sans&#x27;, sans-serif;font-size:18px;background-color:#ffffff;text-rendering:geometricPrecision;-webkit-font-smoothing:antialiased" width="850" height="600" viewBox="0 0 850 600"><defs><style>@import url(https://ourworldindata.org/fonts.css)</style></defs><defs><pattern id="noDataPattern" patternUnits="userSpaceOnUse" width="4" height="4" patternTransform="rotate(-45 2 2)"><path d="M -1,2 l 6,0" stroke="#ccc" stroke-width="0.7"></path></pattern></defs><rect class="background-fill" fill="#ffffff" width="850" height="600"></rect><g id="header" class="HeaderView"><g id="logo" transform="translate(769, 16) scale(1)"><svg className="owidLogo" xmlns="http://www.w3.org/2000/svg" width="65" height="36" viewBox="0 0 65 36"  fill="none"><path fill="#002147" d="M0 0h64.8v36H0z"/><path fill="#CE261E" d="M0 33.3h64.8V36H0z"/><path fill="#fff" d="M13.796 10.575c0 .636-.106 1.226-.318 1.77a4.193 4.193 0 0 1-.894 1.404 4.084 4.084 0 0 1-1.386.93c-.54.22-1.138.33-1.794.33-.656 0-1.256-.11-1.8-.33a4.149 4.149 0 0 1-1.392-.93 4.193 4.193 0 0 1-.894-1.404A4.833 4.833 0 0 1 5 10.575c0-.636.106-1.224.318-1.764a4.18 4.18 0 0 1 .894-1.41 4.076 4.076 0 0 1 1.392-.924 4.684 4.684 0 0 1 1.8-.336c.656 0 1.254.112 1.794.336.54.224 1.002.534 1.386.93.384.392.682.86.894 1.404.212.54.318 1.128.318 1.764Zm-1.656 0c0-.476-.064-.902-.192-1.278a2.671 2.671 0 0 0-.54-.966 2.332 2.332 0 0 0-.864-.606 2.94 2.94 0 0 0-1.14-.21c-.424 0-.806.07-1.146.21-.34.14-.63.342-.87.606a2.742 2.742 0 0 0-.546.966 3.955 3.955 0 0 0-.192 1.278c0 .476.064.904.192 1.284.128.376.31.696.546.96.24.26.53.46.87.6.34.14.722.21 1.146.21.424 0 .804-.07 1.14-.21.34-.14.628-.34.864-.6.236-.264.416-.584.54-.96a4.01 4.01 0 0 0 .192-1.284ZM16.104 8.757v3.912c0 .376.086.668.258.876.176.204.438.306.786.306.256 0 .496-.056.72-.168a2.58 2.58 0 0 0 .636-.474V8.757h1.482v6.156h-.906c-.192 0-.318-.09-.378-.27l-.102-.492a4.65 4.65 0 0 1-.396.354 2.577 2.577 0 0 1-.438.27 2.35 2.35 0 0 1-.498.168 2.345 2.345 0 0 1-.57.066c-.336 0-.634-.056-.894-.168a1.821 1.821 0 0 1-.648-.486 2.157 2.157 0 0 1-.402-.738 3.233 3.233 0 0 1-.132-.948V8.757h1.482ZM21.328 14.913V8.757h.87c.152 0 .258.028.318.084.06.056.1.152.12.288l.09.744c.22-.38.478-.68.774-.9.296-.22.628-.33.996-.33.304 0 .556.07.756.21l-.192 1.11c-.012.072-.038.124-.078.156a.278.278 0 0 1-.162.042 1.01 1.01 0 0 1-.246-.042 1.646 1.646 0 0 0-.414-.042c-.308 0-.572.086-.792.258-.22.168-.406.416-.558.744v3.834h-1.482ZM27.347 6.237h1.356a.57.57 0 0 1 .348.102c.096.064.16.152.192.264l1.476 5.19c.036.128.068.268.096.42.032.148.062.306.09.474a5.968 5.968 0 0 1 .228-.894l1.704-5.19a.575.575 0 0 1 .186-.252.543.543 0 0 1 .348-.114h.474a.57.57 0 0 1 .348.102.497.497 0 0 1 .192.264l1.692 5.19c.088.256.164.54.228.852.028-.156.056-.306.084-.45.032-.144.064-.278.096-.402l1.476-5.19c.028-.1.09-.186.186-.258a.563.563 0 0 1 .348-.108h1.266l-2.694 8.676h-1.458l-1.896-5.928-.078-.246a9.504 9.504 0 0 1-.072-.282c-.024.1-.05.194-.078.282-.024.088-.048.17-.072.246l-1.914 5.928H30.04l-2.694-8.676ZM42.771 8.661c.46 0 .876.074 1.248.222.376.148.696.358.96.63s.468.604.612.996c.144.392.216.83.216 1.314 0 .488-.072.928-.216 1.32a2.85 2.85 0 0 1-.612 1.002 2.653 2.653 0 0 1-.96.636 3.35 3.35 0 0 1-1.248.222c-.46 0-.878-.074-1.254-.222a2.712 2.712 0 0 1-.966-.636 2.922 2.922 0 0 1-.618-1.002 3.807 3.807 0 0 1-.216-1.32c0-.484.072-.922.216-1.314.148-.392.354-.724.618-.996.268-.272.59-.482.966-.63a3.397 3.397 0 0 1 1.254-.222Zm0 5.202c.512 0 .89-.172 1.134-.516.248-.344.372-.848.372-1.512s-.124-1.17-.372-1.518c-.244-.348-.622-.522-1.134-.522-.52 0-.904.176-1.152.528-.248.348-.372.852-.372 1.512s.124 1.164.372 1.512c.248.344.632.516 1.152.516ZM46.723 14.913V8.757h.87c.152 0 .258.028.318.084.06.056.1.152.12.288l.09.744c.22-.38.478-.68.774-.9.296-.22.628-.33.996-.33.304 0 .556.07.756.21l-.192 1.11c-.012.072-.038.124-.078.156a.278.278 0 0 1-.162.042 1.01 1.01 0 0 1-.246-.042 1.646 1.646 0 0 0-.414-.042c-.308 0-.572.086-.792.258-.22.168-.406.416-.558.744v3.834h-1.482ZM52.96 5.997v8.916h-1.482V5.997h1.482ZM58.732 14.913c-.192 0-.318-.09-.378-.27l-.12-.594a3.68 3.68 0 0 1-.402.39c-.14.116-.292.216-.456.3-.16.084-.334.148-.522.192a2.372 2.372 0 0 1-.6.072c-.336 0-.644-.07-.924-.21a2.098 2.098 0 0 1-.726-.606 3.033 3.033 0 0 1-.468-.99 5.072 5.072 0 0 1-.162-1.344c0-.456.062-.88.186-1.272s.302-.732.534-1.02c.232-.288.51-.512.834-.672a2.384 2.384 0 0 1 1.092-.246 2.103 2.103 0 0 1 1.536.606V5.997h1.482v8.916h-.906Zm-1.974-1.086c.308 0 .57-.064.786-.192.216-.128.42-.31.612-.546v-2.76a1.452 1.452 0 0 0-.552-.432 1.597 1.597 0 0 0-.636-.126c-.224 0-.428.042-.612.126a1.21 1.21 0 0 0-.462.384c-.124.168-.22.384-.288.648-.068.26-.102.568-.102.924 0 .36.028.666.084.918.06.248.144.452.252.612.108.156.24.27.396.342.156.068.33.102.522.102ZM16.331 20.757v6.156H14.85v-6.156h1.481Zm.223-1.794a.844.844 0 0 1-.078.36.963.963 0 0 1-.21.294.995.995 0 0 1-.3.204.963.963 0 0 1-.372.072.948.948 0 0 1-.367-.072 1.018 1.018 0 0 1-.498-.498.963.963 0 0 1 0-.732.995.995 0 0 1 .205-.3.929.929 0 0 1 .293-.198.899.899 0 0 1 .738 0 .912.912 0 0 1 .3.198.943.943 0 0 1 .288.672ZM17.771 26.913v-6.156h.906c.192 0 .318.09.378.27l.102.486a2.934 2.934 0 0 1 .828-.618c.156-.076.322-.134.498-.174.176-.04.368-.06.576-.06.336 0 .634.058.894.174.26.112.476.272.648.48.176.204.308.45.396.738.092.284.138.598.138.942v3.918h-1.482v-3.918c0-.376-.088-.666-.264-.87-.172-.208-.432-.312-.78-.312-.256 0-.496.058-.72.174a2.58 2.58 0 0 0-.636.474v4.452h-1.482ZM34.22 22.575c0 .636-.106 1.22-.318 1.752-.212.532-.51.99-.894 1.374a4 4 0 0 1-1.386.894 4.87 4.87 0 0 1-1.794.318h-3.312v-8.676h3.312a4.79 4.79 0 0 1 1.794.324 4 4 0 0 1 1.386.894c.384.38.682.836.894 1.368.212.532.318 1.116.318 1.752Zm-1.65 0c0-.476-.064-.902-.192-1.278a2.68 2.68 0 0 0-.546-.96 2.332 2.332 0 0 0-.864-.606 2.94 2.94 0 0 0-1.14-.21h-1.686v6.108h1.686c.424 0 .804-.07 1.14-.21.34-.14.628-.34.864-.6a2.75 2.75 0 0 0 .546-.96 4.01 4.01 0 0 0 .192-1.284ZM39.98 26.913h-.665c-.14 0-.25-.02-.33-.06-.08-.044-.14-.13-.18-.258l-.132-.438c-.156.14-.31.264-.462.372a2.804 2.804 0 0 1-.462.264c-.16.072-.33.126-.51.162-.18.036-.38.054-.6.054-.26 0-.5-.034-.72-.102a1.618 1.618 0 0 1-.57-.318 1.448 1.448 0 0 1-.366-.522 1.852 1.852 0 0 1-.132-.726c0-.232.06-.46.18-.684.124-.228.328-.432.612-.612.284-.184.662-.336 1.134-.456.472-.12 1.058-.188 1.758-.204v-.36c0-.412-.088-.716-.264-.912-.172-.2-.424-.3-.756-.3a1.837 1.837 0 0 0-1.02.276c-.116.068-.224.13-.324.186a.664.664 0 0 1-.33.084.429.429 0 0 1-.258-.078.614.614 0 0 1-.174-.192l-.27-.474c.708-.648 1.562-.972 2.562-.972.36 0 .68.06.96.18.284.116.524.28.72.492.196.208.344.458.444.75.104.292.156.612.156.96v3.888Zm-2.88-.924c.153 0 .293-.014.42-.042.129-.028.249-.07.36-.126.117-.056.227-.124.33-.204.109-.084.217-.182.325-.294v-1.038c-.432.02-.794.058-1.086.114-.288.052-.52.12-.696.204a.923.923 0 0 0-.378.294.664.664 0 0 0-.108.366c0 .26.076.446.228.558.156.112.358.168.606.168ZM43.22 27.01c-.532 0-.942-.15-1.23-.45-.288-.305-.432-.723-.432-1.255v-3.438h-.624a.31.31 0 0 1-.21-.078c-.056-.052-.084-.13-.084-.234v-.588l.99-.162.312-1.68a.302.302 0 0 1 .108-.186.365.365 0 0 1 .222-.066h.768v1.938h1.62v1.056h-1.62v3.336c0 .192.048.342.144.45a.488.488 0 0 0 .384.162c.092 0 .168-.01.228-.03.064-.024.118-.048.162-.072.048-.024.09-.046.126-.066a.194.194 0 0 1 .108-.036.16.16 0 0 1 .108.036c.028.02.058.052.09.096l.444.72c-.216.18-.464.316-.744.408a2.77 2.77 0 0 1-.87.138ZM50.423 26.913h-.666c-.14 0-.25-.02-.33-.06-.08-.044-.14-.13-.18-.258l-.132-.438c-.156.14-.31.264-.462.372a2.804 2.804 0 0 1-.462.264c-.16.072-.33.126-.51.162-.18.036-.38.054-.6.054-.26 0-.5-.034-.72-.102a1.618 1.618 0 0 1-.57-.318 1.448 1.448 0 0 1-.366-.522 1.852 1.852 0 0 1-.132-.726c0-.232.06-.46.18-.684.124-.228.328-.432.612-.612.284-.184.662-.336 1.134-.456.472-.12 1.058-.188 1.758-.204v-.36c0-.412-.088-.716-.264-.912-.172-.2-.424-.3-.756-.3a1.837 1.837 0 0 0-1.02.276c-.116.068-.224.13-.324.186a.664.664 0 0 1-.33.084.429.429 0 0 1-.258-.078.614.614 0 0 1-.174-.192l-.27-.474c.708-.648 1.562-.972 2.562-.972.36 0 .68.06.96.18.284.116.524.28.72.492.196.208.344.458.444.75.104.292.156.612.156.96v3.888Zm-2.88-.924c.152 0 .292-.014.42-.042.128-.028.248-.07.36-.126.116-.056.226-.124.33-.204.108-.084.216-.182.324-.294v-1.038c-.432.02-.794.058-1.086.114-.288.052-.52.12-.696.204a.923.923 0 0 0-.378.294.664.664 0 0 0-.108.366c0 .26.076.446.228.558.156.112.358.168.606.168Z"/></svg></g><a id="title" href="https://ourworldindata.org/grapher/global-aquaculture-wild-fish-feed" style="font-family:&#x27;Playfair Display&#x27;, Georgia, &#x27;Times New Roman&#x27;, &#x27;Liberation Serif&#x27;, serif" target="_blank" rel="noopener"><text font-size="22.75" font-weight="600" x="16.0" y="38.1" fill="#5b5b5b"><tspan x="16" y="38.0675">Global aquaculture production and wild fish used for animal feed</tspan></text></a><g id="subtitle" class="markdown-text-wrap"><text x="16.0" y="61.5" style="font-size:14.625px;line-height:1.2" fill="#5b5b5b"><tspan x="16" y="61.5">Some wild fish catch is processed into fishmeal and oils for animal feed – this is used for land-based livestock and</tspan><tspan x="16" y="79.0">fish farms (aquaculture).</tspan><tspan x="16" y="96.6">Efficiency improvements in aquaculture, and changes in the diets of farmed fish means production has increased</tspan><tspan x="16" y="114.1">rapidly, without increasing inputs from wild fish.</tspan></text></g></g><g id="chart-area" style="pointer-events:none"><g id="horizontal-axis" class="HorizontalAxis"><g id="tick-marks"><line id="1950" x1="93.2" y1="496.4" x2="93.2" y2="501.9" stroke="#999" stroke-width="1"></line><line id="2015" x1="601" y1="496.4" x2="601" y2="501.9" stroke="#999" stroke-width="1"></line><line id="1960" x1="171.3" y1="496.4" x2="171.3" y2="501.9" stroke="#999" stroke-width="1"></line><line id="1970" x1="249.5" y1="496.4" x2="249.5" y2="501.9" stroke="#999" stroke-width="1"></line><line id="1980" x1="327.6" y1="496.4" x2="327.6" y2="501.9" stroke="#999" stroke-width="1"></line><line id="1990" x1="405.7" y1="496.4" x2="405.7" y2="501.9" stroke="#999" stroke-width="1"></line><line id="2000" x1="483.8" y1="496.4" x2="483.8" y2="501.9" stroke="#999" stroke-width="1"></line></g><g id="tick-labels"><text x="93.22500000000001" y="515.4" fill="#5b5b5b" text-anchor="start" font-size="13.5">1950</text><text x="601.015" y="515.4" fill="#5b5b5b" text-anchor="end" font-size="13.5">2015</text><text x="171.3" y="515.4" fill="#5b5b5b" text-anchor="middle" font-size="13.5">1960</text><text x="249.5" y="515.4" fill="#5b5b5b" text-anchor="middle" font-size="13.5">1970</text><text x="327.6" y="515.4" fill="#5b5b5b" text-anchor="middle" font-size="13.5">1980</text><text x="405.7" y="515.4" fill="#5b5b5b" text-anchor="middle" font-size="13.5">1990</text><text x="483.8" y="515.4" fill="#5b5b5b" text-anchor="middle" font-size="13.5">2000</text></g></g><g id="vertical-axis" class="VerticalAxis"><g id="tick-labels"><text x="88.23" y="496.9" dy=".32em" text-anchor="end" fill="#5b5b5b" font-size="13.5">0 t</text><text x="88.23" y="428.2" dy=".32em" text-anchor="end" fill="#5b5b5b" font-size="13.5">20 million t</text><text x="88.23" y="359.4" dy=".32em" text-anchor="end" fill="#5b5b5b" font-size="13.5">40 million t</text><text x="88.23" y="290.7" dy=".32em" text-anchor="end" fill="#5b5b5b" font-size="13.5">60 million t</text><text x="88.23" y="222" dy=".32em" text-anchor="end" fill="#5b5b5b" font-size="13.5">80 million t</text><text x="88.23" y="153.3" dy=".32em" text-anchor="end" fill="#5b5b5b" font-size="13.5">100 million t</text></g></g><g id="horizontal-grid-lines" class="AxisGridLines horizontalLines"><line id="0-t" x1="93.23" y1="496.9" x2="601.01" y2="496.9" stroke="#999" stroke-width="1"></line><line id="20-million-t" x1="93.23" y1="428.2" x2="601.01" y2="428.2" stroke="#ddd" stroke-width="1" stroke-dasharray="3,2"></line><line id="40-million-t" x1="93.23" y1="359.4" x2="601.01" y2="359.4" stroke="#ddd" stroke-width="1" stroke-dasharray="3,2"></line><line id="60-million-t" x1="93.23" y1="290.7" x2="601.01" y2="290.7" stroke="#ddd" stroke-width="1" stroke-dasharray="3,2"></line><line id="80-million-t" x1="93.23" y1="222" x2="601.01" y2="222" stroke="#ddd" stroke-width="1" stroke-dasharray="3,2"></line><line id="100-million-t" x1="93.23" y1="153.3" x2="601.01" y2="153.3" stroke="#ddd" stroke-width="1" stroke-dasharray="3,2"></line></g><g id="line-labels" class="LineLabels"><g id="text-annotations"></g><g id="text-labels"><text x="605.015" y="145.92000000000002" font-size="13.50" fill="#00295b" opacity="1" text-anchor="start"><tspan font-weight="400">Aquaculture (fish farm) production</tspan></text><text x="605.015" y="451.695" font-size="13.50" fill="#2c8465" opacity="1" text-anchor="start"><tspan font-weight="400">Wild fish used as fishmeal and oil</tspan></text><text x="605.015" y="466.545" font-size="13.50" fill="#2c8465" opacity="1" text-anchor="start"><tspan font-weight="400">(animal feed)</tspan></text></g></g><g id="lines"><path fill="none" stroke-linecap="butt" stroke-linejoin="round" stroke="#ffffff" id="outline__Aquaculture-(fish-farm)-production" stroke-width="2.5" d="M171.3 489.9L179.2 490.2L187 489.9L194.8 489.1L202.6 488.4L210.4 487.7L218.2 487L226 486.6L233.8 486L241.7 485.4L249.5 484.5L257.3 483L265.1 481.7L272.9 481.1L280.7 479.5L288.5 478.6L296.3 478L304.2 474.6L312 473.3L319.8 473L327.6 470.8L335.4 469.5L343.2 468.2L351 465.2L358.8 461.4L366.7 457.5L374.5 453.4L382.3 449.1L390.1 443.4L397.9 439.9L405.7 439.1L413.5 432.8L421.3 421.1L429.1 409.2L437 397.5L444.8 385.7L452.6 376.3L460.4 374.6L468.2 367.3L476 356L483.8 349.1L491.6 340.4L499.5 329.6L507.3 319.8L515.1 305.1L522.9 293.6L530.7 280.6L538.5 269L546.3 255.6L554.1 243.1L562 228.9L569.8 216.4L577.6 193.8L585.4 170.6L593.2 154.5L601 139.5"></path><path fill="none" stroke-linecap="butt" stroke-linejoin="round" stroke="#00295b" id="line__Aquaculture-(fish-farm)-production" stroke-width="1.5" stroke-opacity="1" d="M171.3 489.9L179.2 490.2L187 489.9L194.8 489.1L202.6 488.4L210.4 487.7L218.2 487L226 486.6L233.8 486L241.7 485.4L249.5 484.5L257.3 483L265.1 481.7L272.9 481.1L280.7 479.5L288.5 478.6L296.3 478L304.2 474.6L312 473.3L319.8 473L327.6 470.8L335.4 469.5L343.2 468.2L351 465.2L358.8 461.4L366.7 457.5L374.5 453.4L382.3 449.1L390.1 443.4L397.9 439.9L405.7 439.1L413.5 432.8L421.3 421.1L429.1 409.2L437 397.5L444.8 385.7L452.6 376.3L460.4 374.6L468.2 367.3L476 356L483.8 349.1L491.6 340.4L499.5 329.6L507.3 319.8L515.1 305.1L522.9 293.6L530.7 280.6L538.5 269L546.3 255.6L554.1 243.1L562 228.9L569.8 216.4L577.6 193.8L585.4 170.6L593.2 154.5L601 139.5"></path><g id="markers__Aquaculture-(fish-farm)-production"><circle id="1960" cx="171.3" cy="489.9" r="1.8" fill="#00295b" opacity="1"></circle><circle id="1961" cx="179.2" cy="490.2" r="1.8" fill="#00295b" opacity="1"></circle><circle id="1962" cx="187" cy="489.9" r="1.8" fill="#00295b" opacity="1"></circle><circle id="1963" cx="194.8" cy="489.1" r="1.8" fill="#00295b" opacity="1"></circle><circle id="1964" cx="202.6" cy="488.4" r="1.8" fill="#00295b" opacity="1"></circle><circle id="1965" cx="210.4" cy="487.7" r="1.8" fill="#00295b" opacity="1"></circle><circle id="1966" cx="218.2" cy="487" r="1.8" fill="#00295b" opacity="1"></circle><circle id="1967" cx="226" cy="486.6" r="1.8" fill="#00295b" opacity="1"></circle><circle id="1968" cx="233.8" cy="486" r="1.8" fill="#00295b" opacity="1"></circle><circle id="1969" cx="241.7" cy="485.4" r="1.8" fill="#00295b" opacity="1"></circle><circle id="1970" cx="249.5" cy="484.5" r="1.8" fill="#00295b" opacity="1"></circle><circle id="1971" cx="257.3" cy="483" r="1.8" fill="#00295b" opacity="1"></circle><circle id="1972" cx="265.1" cy="481.7" r="1.8" fill="#00295b" opacity="1"></circle><circle id="1973" cx="272.9" cy="481.1" r="1.8" fill="#00295b" opacity="1"></circle><circle id="1974" cx="280.7" cy="479.5" r="1.8" fill="#00295b" opacity="1"></circle><circle id="1975" cx="288.5" cy="478.6" r="1.8" fill="#00295b" opacity="1"></circle><circle id="1976" cx="296.3" cy="478" r="1.8" fill="#00295b" opacity="1"></circle><circle id="1977" cx="304.2" cy="474.6" r="1.8" fill="#00295b" opacity="1"></circle><circle id="1978" cx="312" cy="473.3" r="1.8" fill="#00295b" opacity="1"></circle><circle id="1979" cx="319.8" cy="473" r="1.8" fill="#00295b" opacity="1"></circle><circle id="1980" cx="327.6" cy="470.8" r="1.8" fill="#00295b" opacity="1"></circle><circle id="1981" cx="335.4" cy="469.5" r="1.8" fill="#00295b" opacity="1"></circle><circle id="1982" cx="343.2" cy="468.2" r="1.8" fill="#00295b" opacity="1"></circle><circle id="1983" cx="351" cy="465.2" r="1.8" fill="#00295b" opacity="1"></circle><circle id="1984" cx="358.8" cy="461.4" r="1.8" fill="#00295b" opacity="1"></circle><circle id="1985" cx="366.7" cy="457.5" r="1.8" fill="#00295b" opacity="1"></circle><circle id="1986" cx="374.5" cy="453.4" r="1.8" fill="#00295b" opacity="1"></circle><circle id="1987" cx="382.3" cy="449.1" r="1.8" fill="#00295b" opacity="1"></circle><circle id="1988" cx="390.1" cy="443.4" r="1.8" fill="#00295b" opacity="1"></circle><circle id="1989" cx="397.9" cy="439.9" r="1.8" fill="#00295b" opacity="1"></circle><circle id="1990" cx="405.7" cy="439.1" r="1.8" fill="#00295b" opacity="1"></circle><circle id="1991" cx="413.5" cy="432.8" r="1.8" fill="#00295b" opacity="1"></circle><circle id="1992" cx="421.3" cy="421.1" r="1.8" fill="#00295b" opacity="1"></circle><circle id="1993" cx="429.1" cy="409.2" r="1.8" fill="#00295b" opacity="1"></circle><circle id="1994" cx="437" cy="397.5" r="1.8" fill="#00295b" opacity="1"></circle><circle id="1995" cx="444.8" cy="385.7" r="1.8" fill="#00295b" opacity="1"></circle><circle id="1996" cx="452.6" cy="376.3" r="1.8" fill="#00295b" opacity="1"></circle><circle id="1997" cx="460.4" cy="374.6" r="1.8" fill="#00295b" opacity="1"></circle><circle id="1998" cx="468.2" cy="367.3" r="1.8" fill="#00295b" opacity="1"></circle><circle id="1999" cx="476" cy="356" r="1.8" fill="#00295b" opacity="1"></circle><circle id="2000" cx="483.8" cy="349.1" r="1.8" fill="#00295b" opacity="1"></circle><circle id="2001" cx="491.6" cy="340.4" r="1.8" fill="#00295b" opacity="1"></circle><circle id="2002" cx="499.5" cy="329.6" r="1.8" fill="#00295b" opacity="1"></circle><circle id="2003" cx="507.3" cy="319.8" r="1.8" fill="#00295b" opacity="1"></circle><circle id="2004" cx="515.1" cy="305.1" r="1.8" fill="#00295b" opacity="1"></circle><circle id="2005" cx="522.9" cy="293.6" r="1.8" fill="#00295b" opacity="1"></circle><circle id="2006" cx="530.7" cy="280.6" r="1.8" fill="#00295b" opacity="1"></circle><circle id="2007" cx="538.5" cy="269" r="1.8" fill="#00295b" opacity="1"></circle><circle id="2008" cx="546.3" cy="255.6" r="1.8" fill="#00295b" opacity="1"></circle><circle id="2009" cx="554.1" cy="243.1" r="1.8" fill="#00295b" opacity="1"></circle><circle id="2010" cx="562" cy="228.9" r="1.8" fill="#00295b" opacity="1"></circle><circle id="2011" cx="569.8" cy="216.4" r="1.8" fill="#00295b" opacity="1"></circle><circle id="2012" cx="577.6" cy="193.8" r="1.8" fill="#00295b" opacity="1"></circle><circle id="2013" cx="585.4" cy="170.6" r="1.8" fill="#00295b" opacity="1"></circle><circle id="2014" cx="593.2" cy="154.5" r="1.8" fill="#00295b" opacity="1"></circle><circle id="2015" cx="601" cy="139.5" r="1.8" fill="#00295b" opacity="1"></circle></g><path fill="none" stroke-linecap="butt" stroke-linejoin="round" stroke="#ffffff" id="outline__Wild-fish-used-as-fishmeal-and-oil-(animal-feed)" stroke-width="2.5" d="M93.2 489.2L101 487.4L108.8 486.7L116.7 485.8L124.5 484.3L132.3 484.9L140.1 483.3L147.9 483L155.7 481.6L163.5 475.6L171.3 471L179.2 460.8L187 453.9L194.8 452.3L202.6 440.2L210.4 445.7L218.2 434.9L226 427.5L233.8 420.5L241.7 429.9L249.5 417.1L257.3 425.4L265.1 452L272.9 460.4L280.7 448.3L288.5 449.9L296.3 441.8L304.2 446.9L312 438.2L319.8 436.9L327.6 438.5L335.4 435.4L343.2 426.1L351 432.8L358.8 424.5L366.7 421.6L374.5 415.8L382.3 417.1L390.1 413.5L397.9 411.3L405.7 421.1L413.5 420.6L421.3 415.7L429.1 413.7L437 398L444.8 411.4L452.6 411L460.4 419.6L468.2 442L476 419.6L483.8 409.1L491.6 420L499.5 415.7L507.3 426.6L515.1 409.1L522.9 413.3L530.7 429.2L538.5 427.8L546.3 432.3L554.1 437.9L562 447.9L569.8 429.2L577.6 443.2L585.4 440.7L593.2 449.5L601 446.7"></path><path fill="none" stroke-linecap="butt" stroke-linejoin="round" stroke="#2c8465" id="line__Wild-fish-used-as-fishmeal-and-oil-(animal-feed)" stroke-width="1.5" stroke-opacity="1" d="M93.2 489.2L101 487.4L108.8 486.7L116.7 485.8L124.5 484.3L132.3 484.9L140.1 483.3L147.9 483L155.7 481.6L163.5 475.6L171.3 471L179.2 460.8L187 453.9L194.8 452.3L202.6 440.2L210.4 445.7L218.2 434.9L226 427.5L233.8 420.5L241.7 429.9L249.5 417.1L257.3 425.4L265.1 452L272.9 460.4L280.7 448.3L288.5 449.9L296.3 441.8L304.2 446.9L312 438.2L319.8 436.9L327.6 438.5L335.4 435.4L343.2 426.1L351 432.8L358.8 424.5L366.7 421.6L374.5 415.8L382.3 417.1L390.1 413.5L397.9 411.3L405.7 421.1L413.5 420.6L421.3 415.7L429.1 413.7L437 398L444.8 411.4L452.6 411L460.4 419.6L468.2 442L476 419.6L483.8 409.1L491.6 420L499.5 415.7L507.3 426.6L515.1 409.1L522.9 413.3L530.7 429.2L538.5 427.8L546.3 432.3L554.1 437.9L562 447.9L569.8 429.2L577.6 443.2L585.4 440.7L593.2 449.5L601 446.7"></path><g id="markers__Wild-fish-used-as-fishmeal-and-oil-(animal-feed)"><circle id="1950" cx="93.2" cy="489.2" r="1.8" fill="#2c8465" opacity="1"></circle><circle id="1951" cx="101" cy="487.4" r="1.8" fill="#2c8465" opacity="1"></circle><circle id="1952" cx="108.8" cy="486.7" r="1.8" fill="#2c8465" opacity="1"></circle><circle id="1953" cx="116.7" cy="485.8" r="1.8" fill="#2c8465" opacity="1"></circle><circle id="1954" cx="124.5" cy="484.3" r="1.8" fill="#2c8465" opacity="1"></circle><circle id="1955" cx="132.3" cy="484.9" r="1.8" fill="#2c8465" opacity="1"></circle><circle id="1956" cx="140.1" cy="483.3" r="1.8" fill="#2c8465" opacity="1"></circle><circle id="1957" cx="147.9" cy="483" r="1.8" fill="#2c8465" opacity="1"></circle><circle id="1958" cx="155.7" cy="481.6" r="1.8" fill="#2c8465" opacity="1"></circle><circle id="1959" cx="163.5" cy="475.6" r="1.8" fill="#2c8465" opacity="1"></circle><circle id="1960" cx="171.3" cy="471" r="1.8" fill="#2c8465" opacity="1"></circle><circle id="1961" cx="179.2" cy="460.8" r="1.8" fill="#2c8465" opacity="1"></circle><circle id="1962" cx="187" cy="453.9" r="1.8" fill="#2c8465" opacity="1"></circle><circle id="1963" cx="194.8" cy="452.3" r="1.8" fill="#2c8465" opacity="1"></circle><circle id="1964" cx="202.6" cy="440.2" r="1.8" fill="#2c8465" opacity="1"></circle><circle id="1965" cx="210.4" cy="445.7" r="1.8" fill="#2c8465" opacity="1"></circle><circle id="1966" cx="218.2" cy="434.9" r="1.8" fill="#2c8465" opacity="1"></circle><circle id="1967" cx="226" cy="427.5" r="1.8" fill="#2c8465" opacity="1"></circle><circle id="1968" cx="233.8" cy="420.5" r="1.8" fill="#2c8465" opacity="1"></circle><circle id="1969" cx="241.7" cy="429.9" r="1.8" fill="#2c8465" opacity="1"></circle><circle id="1970" cx="249.5" cy="417.1" r="1.8" fill="#2c8465" opacity="1"></circle><circle id="1971" cx="257.3" cy="425.4" r="1.8" fill="#2c8465" opacity="1"></circle><circle id="1972" cx="265.1" cy="452" r="1.8" fill="#2c8465" opacity="1"></circle><circle id="1973" cx="272.9" cy="460.4" r="1.8" fill="#2c8465" opacity="1"></circle><circle id="1974" cx="280.7" cy="448.3" r="1.8" fill="#2c8465" opacity="1"></circle><circle id="1975" cx="288.5" cy="449.9" r="1.8" fill="#2c8465" opacity="1"></circle><circle id="1976" cx="296.3" cy="441.8" r="1.8" fill="#2c8465" opacity="1"></circle><circle id="1977" cx="304.2" cy="446.9" r="1.8" fill="#2c8465" opacity="1"></circle><circle id="1978" cx="312" cy="438.2" r="1.8" fill="#2c8465" opacity="1"></circle><circle id="1979" cx="319.8" cy="436.9" r="1.8" fill="#2c8465" opacity="1"></circle><circle id="1980" cx="327.6" cy="438.5" r="1.8" fill="#2c8465" opacity="1"></circle><circle id="1981" cx="335.4" cy="435.4" r="1.8" fill="#2c8465" opacity="1"></circle><circle id="1982" cx="343.2" cy="426.1" r="1.8" fill="#2c8465" opacity="1"></circle><circle id="1983" cx="351" cy="432.8" r="1.8" fill="#2c8465" opacity="1"></circle><circle id="1984" cx="358.8" cy="424.5" r="1.8" fill="#2c8465" opacity="1"></circle><circle id="1985" cx="366.7" cy="421.6" r="1.8" fill="#2c8465" opacity="1"></circle><circle id="1986" cx="374.5" cy="415.8" r="1.8" fill="#2c8465" opacity="1"></circle><circle id="1987" cx="382.3" cy="417.1" r="1.8" fill="#2c8465" opacity="1"></circle><circle id="1988" cx="390.1" cy="413.5" r="1.8" fill="#2c8465" opacity="1"></circle><circle id="1989" cx="397.9" cy="411.3" r="1.8" fill="#2c8465" opacity="1"></circle><circle id="1990" cx="405.7" cy="421.1" r="1.8" fill="#2c8465" opacity="1"></circle><circle id="1991" cx="413.5" cy="420.6" r="1.8" fill="#2c8465" opacity="1"></circle><circle id="1992" cx="421.3" cy="415.7" r="1.8" fill="#2c8465" opacity="1"></circle><circle id="1993" cx="429.1" cy="413.7" r="1.8" fill="#2c8465" opacity="1"></circle><circle id="1994" cx="437" cy="398" r="1.8" fill="#2c8465" opacity="1"></circle><circle id="1995" cx="444.8" cy="411.4" r="1.8" fill="#2c8465" opacity="1"></circle><circle id="1996" cx="452.6" cy="411" r="1.8" fill="#2c8465" opacity="1"></circle><circle id="1997" cx="460.4" cy="419.6" r="1.8" fill="#2c8465" opacity="1"></circle><circle id="1998" cx="468.2" cy="442" r="1.8" fill="#2c8465" opacity="1"></circle><circle id="1999" cx="476" cy="419.6" r="1.8" fill="#2c8465" opacity="1"></circle><circle id="2000" cx="483.8" cy="409.1" r="1.8" fill="#2c8465" opacity="1"></circle><circle id="2001" cx="491.6" cy="420" r="1.8" fill="#2c8465" opacity="1"></circle><circle id="2002" cx="499.5" cy="415.7" r="1.8" fill="#2c8465" opacity="1"></circle><circle id="2003" cx="507.3" cy="426.6" r="1.8" fill="#2c8465" opacity="1"></circle><circle id="2004" cx="515.1" cy="409.1" r="1.8" fill="#2c8465" opacity="1"></circle><circle id="2005" cx="522.9" cy="413.3" r="1.8" fill="#2c8465" opacity="1"></circle><circle id="2006" cx="530.7" cy="429.2" r="1.8" fill="#2c8465" opacity="1"></circle><circle id="2007" cx="538.5" cy="427.8" r="1.8" fill="#2c8465" opacity="1"></circle><circle id="2008" cx="546.3" cy="432.3" r="1.8" fill="#2c8465" opacity="1"></circle><circle id="2009" cx="554.1" cy="437.9" r="1.8" fill="#2c8465" opacity="1"></circle><circle id="2010" cx="562" cy="447.9" r="1.8" fill="#2c8465" opacity="1"></circle><circle id="2011" cx="569.8" cy="429.2" r="1.8" fill="#2c8465" opacity="1"></circle><circle id="2012" cx="577.6" cy="443.2" r="1.8" fill="#2c8465" opacity="1"></circle><circle id="2013" cx="585.4" cy="440.7" r="1.8" fill="#2c8465" opacity="1"></circle><circle id="2014" cx="593.2" cy="449.5" r="1.8" fill="#2c8465" opacity="1"></circle><circle id="2015" cx="601" cy="446.7" r="1.8" fill="#2c8465" opacity="1"></circle></g></g></g><g id="footer" class="SourcesFooter" style="fill:#5b5b5b"><g id="sources" class="markdown-text-wrap"><text x="16.0" y="546.5" style="font-size:13.5px;line-height:1.2"><tspan x="16" y="546.5"><tspan style="font-weight:700">Data source:</tspan> FishStat via Pauly, Zeller, and Palomares from Sea Around Us Concepts, Design and Data.; Multiple sources compiled by</tspan><tspan x="16" y="562.7">World Bank (2024)</tspan></text></g><text id="origin-url" font-size="13.50" x="16.0" y="580.9"><tspan x="16" y="580.895"><a target="_blank" style="fill: #5b5b5b;" href="https://ourworldindata.org/fish-and-overfishing">OurWorldinData.org/fish-and-overfishing</a> | <a target="_blank" style="fill: #5b5b5b;" href="https://creativecommons.org/licenses/by/4.0/">CC BY</a></tspan></text></g></svg>