<svg xmlns="http://www.w3.org/2000/svg" version="1.1" style="font-family:Lato, &#x27;Helvetica Neue&#x27;, Helvetica, Arial, &#x27;Liberation Sans&#x27;, sans-serif;font-size:18px;background-color:#ffffff;text-rendering:geometricPrecision;-webkit-font-smoothing:antialiased" width="850" height="600" viewBox="0 0 850 600"><defs><style>@import url(https://ourworldindata.org/fonts.css)</style></defs><defs><pattern id="noDataPattern" patternUnits="userSpaceOnUse" width="4" height="4" patternTransform="rotate(-45 2 2)"><path d="M -1,2 l 6,0" stroke="#ccc" stroke-width="0.7"></path></pattern></defs><rect class="background-fill" fill="#ffffff" width="850" height="600"></rect><g id="header" class="HeaderView"><g id="logo" transform="translate(769, 16) scale(1)"><svg className="owidLogo" xmlns="http://www.w3.org/2000/svg" width="65" height="36" viewBox="0 0 65 36"  fill="none"><path fill="#002147" d="M0 0h64.8v36H0z"/><path fill="#CE261E" d="M0 33.3h64.8V36H0z"/><path fill="#fff" d="M13.796 10.575c0 .636-.106 1.226-.318 1.77a4.193 4.193 0 0 1-.894 1.404 4.084 4.084 0 0 1-1.386.93c-.54.22-1.138.33-1.794.33-.656 0-1.256-.11-1.8-.33a4.149 4.149 0 0 1-1.392-.93 4.193 4.193 0 0 1-.894-1.404A4.833 4.833 0 0 1 5 10.575c0-.636.106-1.224.318-1.764a4.18 4.18 0 0 1 .894-1.41 4.076 4.076 0 0 1 1.392-.924 4.684 4.684 0 0 1 1.8-.336c.656 0 1.254.112 1.794.336.54.224 1.002.534 1.386.93.384.392.682.86.894 1.404.212.54.318 1.128.318 1.764Zm-1.656 0c0-.476-.064-.902-.192-1.278a2.671 2.671 0 0 0-.54-.966 2.332 2.332 0 0 0-.864-.606 2.94 2.94 0 0 0-1.14-.21c-.424 0-.806.07-1.146.21-.34.14-.63.342-.87.606a2.742 2.742 0 0 0-.546.966 3.955 3.955 0 0 0-.192 1.278c0 .476.064.904.192 1.284.128.376.31.696.546.96.24.26.53.46.87.6.34.14.722.21 1.146.21.424 0 .804-.07 1.14-.21.34-.14.628-.34.864-.6.236-.264.416-.584.54-.96a4.01 4.01 0 0 0 .192-1.284ZM16.104 8.757v3.912c0 .376.086.668.258.876.176.204.438.306.786.306.256 0 .496-.056.72-.168a2.58 2.58 0 0 0 .636-.474V8.757h1.482v6.156h-.906c-.192 0-.318-.09-.378-.27l-.102-.492a4.65 4.65 0 0 1-.396.354 2.577 2.577 0 0 1-.438.27 2.35 2.35 0 0 1-.498.168 2.345 2.345 0 0 1-.57.066c-.336 0-.634-.056-.894-.168a1.821 1.821 0 0 1-.648-.486 2.157 2.157 0 0 1-.402-.738 3.233 3.233 0 0 1-.132-.948V8.757h1.482ZM21.328 14.913V8.757h.87c.152 0 .258.028.318.084.06.056.1.152.12.288l.09.744c.22-.38.478-.68.774-.9.296-.22.628-.33.996-.33.304 0 .556.07.756.21l-.192 1.11c-.012.072-.038.124-.078.156a.278.278 0 0 1-.162.042 1.01 1.01 0 0 1-.246-.042 1.646 1.646 0 0 0-.414-.042c-.308 0-.572.086-.792.258-.22.168-.406.416-.558.744v3.834h-1.482ZM27.347 6.237h1.356a.57.57 0 0 1 .348.102c.096.064.16.152.192.264l1.476 5.19c.036.128.068.268.096.42.032.148.062.306.09.474a5.968 5.968 0 0 1 .228-.894l1.704-5.19a.575.575 0 0 1 .186-.252.543.543 0 0 1 .348-.114h.474a.57.57 0 0 1 .348.102.497.497 0 0 1 .192.264l1.692 5.19c.088.256.164.54.228.852.028-.156.056-.306.084-.45.032-.144.064-.278.096-.402l1.476-5.19c.028-.1.09-.186.186-.258a.563.563 0 0 1 .348-.108h1.266l-2.694 8.676h-1.458l-1.896-5.928-.078-.246a9.504 9.504 0 0 1-.072-.282c-.024.1-.05.194-.078.282-.024.088-.048.17-.072.246l-1.914 5.928H30.04l-2.694-8.676ZM42.771 8.661c.46 0 .876.074 1.248.222.376.148.696.358.96.63s.468.604.612.996c.144.392.216.83.216 1.314 0 .488-.072.928-.216 1.32a2.85 2.85 0 0 1-.612 1.002 2.653 2.653 0 0 1-.96.636 3.35 3.35 0 0 1-1.248.222c-.46 0-.878-.074-1.254-.222a2.712 2.712 0 0 1-.966-.636 2.922 2.922 0 0 1-.618-1.002 3.807 3.807 0 0 1-.216-1.32c0-.484.072-.922.216-1.314.148-.392.354-.724.618-.996.268-.272.59-.482.966-.63a3.397 3.397 0 0 1 1.254-.222Zm0 5.202c.512 0 .89-.172 1.134-.516.248-.344.372-.848.372-1.512s-.124-1.17-.372-1.518c-.244-.348-.622-.522-1.134-.522-.52 0-.904.176-1.152.528-.248.348-.372.852-.372 1.512s.124 1.164.372 1.512c.248.344.632.516 1.152.516ZM46.723 14.913V8.757h.87c.152 0 .258.028.318.084.06.056.1.152.12.288l.09.744c.22-.38.478-.68.774-.9.296-.22.628-.33.996-.33.304 0 .556.07.756.21l-.192 1.11c-.012.072-.038.124-.078.156a.278.278 0 0 1-.162.042 1.01 1.01 0 0 1-.246-.042 1.646 1.646 0 0 0-.414-.042c-.308 0-.572.086-.792.258-.22.168-.406.416-.558.744v3.834h-1.482ZM52.96 5.997v8.916h-1.482V5.997h1.482ZM58.732 14.913c-.192 0-.318-.09-.378-.27l-.12-.594a3.68 3.68 0 0 1-.402.39c-.14.116-.292.216-.456.3-.16.084-.334.148-.522.192a2.372 2.372 0 0 1-.6.072c-.336 0-.644-.07-.924-.21a2.098 2.098 0 0 1-.726-.606 3.033 3.033 0 0 1-.468-.99 5.072 5.072 0 0 1-.162-1.344c0-.456.062-.88.186-1.272s.302-.732.534-1.02c.232-.288.51-.512.834-.672a2.384 2.384 0 0 1 1.092-.246 2.103 2.103 0 0 1 1.536.606V5.997h1.482v8.916h-.906Zm-1.974-1.086c.308 0 .57-.064.786-.192.216-.128.42-.31.612-.546v-2.76a1.452 1.452 0 0 0-.552-.432 1.597 1.597 0 0 0-.636-.126c-.224 0-.428.042-.612.126a1.21 1.21 0 0 0-.462.384c-.124.168-.22.384-.288.648-.068.26-.102.568-.102.924 0 .36.028.666.084.918.06.248.144.452.252.612.108.156.24.27.396.342.156.068.33.102.522.102ZM16.331 20.757v6.156H14.85v-6.156h1.481Zm.223-1.794a.844.844 0 0 1-.078.36.963.963 0 0 1-.21.294.995.995 0 0 1-.3.204.963.963 0 0 1-.372.072.948.948 0 0 1-.367-.072 1.018 1.018 0 0 1-.498-.498.963.963 0 0 1 0-.732.995.995 0 0 1 .205-.3.929.929 0 0 1 .293-.198.899.899 0 0 1 .738 0 .912.912 0 0 1 .3.198.943.943 0 0 1 .288.672ZM17.771 26.913v-6.156h.906c.192 0 .318.09.378.27l.102.486a2.934 2.934 0 0 1 .828-.618c.156-.076.322-.134.498-.174.176-.04.368-.06.576-.06.336 0 .634.058.894.174.26.112.476.272.648.48.176.204.308.45.396.738.092.284.138.598.138.942v3.918h-1.482v-3.918c0-.376-.088-.666-.264-.87-.172-.208-.432-.312-.78-.312-.256 0-.496.058-.72.174a2.58 2.58 0 0 0-.636.474v4.452h-1.482ZM34.22 22.575c0 .636-.106 1.22-.318 1.752-.212.532-.51.99-.894 1.374a4 4 0 0 1-1.386.894 4.87 4.87 0 0 1-1.794.318h-3.312v-8.676h3.312a4.79 4.79 0 0 1 1.794.324 4 4 0 0 1 1.386.894c.384.38.682.836.894 1.368.212.532.318 1.116.318 1.752Zm-1.65 0c0-.476-.064-.902-.192-1.278a2.68 2.68 0 0 0-.546-.96 2.332 2.332 0 0 0-.864-.606 2.94 2.94 0 0 0-1.14-.21h-1.686v6.108h1.686c.424 0 .804-.07 1.14-.21.34-.14.628-.34.864-.6a2.75 2.75 0 0 0 .546-.96 4.01 4.01 0 0 0 .192-1.284ZM39.98 26.913h-.665c-.14 0-.25-.02-.33-.06-.08-.044-.14-.13-.18-.258l-.132-.438c-.156.14-.31.264-.462.372a2.804 2.804 0 0 1-.462.264c-.16.072-.33.126-.51.162-.18.036-.38.054-.6.054-.26 0-.5-.034-.72-.102a1.618 1.618 0 0 1-.57-.318 1.448 1.448 0 0 1-.366-.522 1.852 1.852 0 0 1-.132-.726c0-.232.06-.46.18-.684.124-.228.328-.432.612-.612.284-.184.662-.336 1.134-.456.472-.12 1.058-.188 1.758-.204v-.36c0-.412-.088-.716-.264-.912-.172-.2-.424-.3-.756-.3a1.837 1.837 0 0 0-1.02.276c-.116.068-.224.13-.324.186a.664.664 0 0 1-.33.084.429.429 0 0 1-.258-.078.614.614 0 0 1-.174-.192l-.27-.474c.708-.648 1.562-.972 2.562-.972.36 0 .68.06.96.18.284.116.524.28.72.492.196.208.344.458.444.75.104.292.156.612.156.96v3.888Zm-2.88-.924c.153 0 .293-.014.42-.042.129-.028.249-.07.36-.126.117-.056.227-.124.33-.204.109-.084.217-.182.325-.294v-1.038c-.432.02-.794.058-1.086.114-.288.052-.52.12-.696.204a.923.923 0 0 0-.378.294.664.664 0 0 0-.108.366c0 .26.076.446.228.558.156.112.358.168.606.168ZM43.22 27.01c-.532 0-.942-.15-1.23-.45-.288-.305-.432-.723-.432-1.255v-3.438h-.624a.31.31 0 0 1-.21-.078c-.056-.052-.084-.13-.084-.234v-.588l.99-.162.312-1.68a.302.302 0 0 1 .108-.186.365.365 0 0 1 .222-.066h.768v1.938h1.62v1.056h-1.62v3.336c0 .192.048.342.144.45a.488.488 0 0 0 .384.162c.092 0 .168-.01.228-.03.064-.024.118-.048.162-.072.048-.024.09-.046.126-.066a.194.194 0 0 1 .108-.036.16.16 0 0 1 .108.036c.028.02.058.052.09.096l.444.72c-.216.18-.464.316-.744.408a2.77 2.77 0 0 1-.87.138ZM50.423 26.913h-.666c-.14 0-.25-.02-.33-.06-.08-.044-.14-.13-.18-.258l-.132-.438c-.156.14-.31.264-.462.372a2.804 2.804 0 0 1-.462.264c-.16.072-.33.126-.51.162-.18.036-.38.054-.6.054-.26 0-.5-.034-.72-.102a1.618 1.618 0 0 1-.57-.318 1.448 1.448 0 0 1-.366-.522 1.852 1.852 0 0 1-.132-.726c0-.232.06-.46.18-.684.124-.228.328-.432.612-.612.284-.184.662-.336 1.134-.456.472-.12 1.058-.188 1.758-.204v-.36c0-.412-.088-.716-.264-.912-.172-.2-.424-.3-.756-.3a1.837 1.837 0 0 0-1.02.276c-.116.068-.224.13-.324.186a.664.664 0 0 1-.33.084.429.429 0 0 1-.258-.078.614.614 0 0 1-.174-.192l-.27-.474c.708-.648 1.562-.972 2.562-.972.36 0 .68.06.96.18.284.116.524.28.72.492.196.208.344.458.444.75.104.292.156.612.156.96v3.888Zm-2.88-.924c.152 0 .292-.014.42-.042.128-.028.248-.07.36-.126.116-.056.226-.124.33-.204.108-.084.216-.182.324-.294v-1.038c-.432.02-.794.058-1.086.114-.288.052-.52.12-.696.204a.923.923 0 0 0-.378.294.664.664 0 0 0-.108.366c0 .26.076.446.228.558.156.112.358.168.606.168Z"/></svg></g><a id="title" href="https://ourworldindata.org/grapher/global-fishery-catch-by-sector" style="font-family:&#x27;Playfair Display&#x27;, Georgia, &#x27;Times New Roman&#x27;, &#x27;Liberation Serif&#x27;, serif" target="_blank" rel="noopener"><text font-size="24.75" font-weight="600" x="16.0" y="40.0" fill="#5b5b5b"><tspan x="16" y="40.0075">Global fishery catch by sector</tspan></text></a><g id="subtitle" class="markdown-text-wrap"><text x="16.0" y="63.9" style="font-size:14.625px;line-height:1.2" fill="#5b5b5b"><tspan x="16" y="63.9">Breakdown of global wild fishery catch by sector. This relates only to wild fishery catch, and does not include</tspan><tspan x="16" y="81.4">aquaculture (fish farming) production.</tspan></text></g></g><g id="chart-area" style="pointer-events:none"><g id="horizontal-axis" class="HorizontalAxis"><g id="tick-marks"><line id="1950" x1="85.7" y1="530.8" x2="85.7" y2="536.3" stroke="#999" stroke-width="1"></line><line id="2010" x1="729" y1="530.8" x2="729" y2="536.3" stroke="#999" stroke-width="1"></line><line id="1960" x1="192.9" y1="530.8" x2="192.9" y2="536.3" stroke="#999" stroke-width="1"></line><line id="1970" x1="300.1" y1="530.8" x2="300.1" y2="536.3" stroke="#999" stroke-width="1"></line><line id="1980" x1="407.3" y1="530.8" x2="407.3" y2="536.3" stroke="#999" stroke-width="1"></line><line id="1990" x1="514.6" y1="530.8" x2="514.6" y2="536.3" stroke="#999" stroke-width="1"></line><line id="2000" x1="621.8" y1="530.8" x2="621.8" y2="536.3" stroke="#999" stroke-width="1"></line></g><g id="tick-labels"><text x="85.665" y="549.8" fill="#5b5b5b" text-anchor="start" font-size="13.5">1950</text><text x="728.995" y="549.8" fill="#5b5b5b" text-anchor="end" font-size="13.5">2010</text><text x="192.9" y="549.8" fill="#5b5b5b" text-anchor="middle" font-size="13.5">1960</text><text x="300.1" y="549.8" fill="#5b5b5b" text-anchor="middle" font-size="13.5">1970</text><text x="407.3" y="549.8" fill="#5b5b5b" text-anchor="middle" font-size="13.5">1980</text><text x="514.6" y="549.8" fill="#5b5b5b" text-anchor="middle" font-size="13.5">1990</text><text x="621.8" y="549.8" fill="#5b5b5b" text-anchor="middle" font-size="13.5">2000</text></g></g><g id="vertical-axis" class="VerticalAxis"><g id="tick-labels"><text x="80.67" y="531.3" dy=".32em" text-anchor="end" fill="#5b5b5b" font-size="13.5">0</text><text x="80.67" y="466.2" dy=".32em" text-anchor="end" fill="#5b5b5b" font-size="13.5">20 million</text><text x="80.67" y="401.1" dy=".32em" text-anchor="end" fill="#5b5b5b" font-size="13.5">40 million</text><text x="80.67" y="335.9" dy=".32em" text-anchor="end" fill="#5b5b5b" font-size="13.5">60 million</text><text x="80.67" y="270.8" dy=".32em" text-anchor="end" fill="#5b5b5b" font-size="13.5">80 million</text><text x="80.67" y="205.7" dy=".32em" text-anchor="end" fill="#5b5b5b" font-size="13.5">100 million</text><text x="80.67" y="140.6" dy=".32em" text-anchor="end" fill="#5b5b5b" font-size="13.5">120 million</text></g></g><g id="horizontal-grid-lines" class="AxisGridLines horizontalLines"><line id="0" x1="85.67" y1="531.3" x2="729.00" y2="531.3" stroke="#999" stroke-width="1"></line><line id="20-million" x1="85.67" y1="466.2" x2="729.00" y2="466.2" stroke="#ddd" stroke-width="1" stroke-dasharray="3,2"></line><line id="40-million" x1="85.67" y1="401.1" x2="729.00" y2="401.1" stroke="#ddd" stroke-width="1" stroke-dasharray="3,2"></line><line id="60-million" x1="85.67" y1="335.9" x2="729.00" y2="335.9" stroke="#ddd" stroke-width="1" stroke-dasharray="3,2"></line><line id="80-million" x1="85.67" y1="270.8" x2="729.00" y2="270.8" stroke="#ddd" stroke-width="1" stroke-dasharray="3,2"></line><line id="100-million" x1="85.67" y1="205.7" x2="729.00" y2="205.7" stroke="#ddd" stroke-width="1" stroke-dasharray="3,2"></line><line id="120-million" x1="85.67" y1="140.6" x2="729.00" y2="140.6" stroke="#ddd" stroke-width="1" stroke-dasharray="3,2"></line></g><g id="line-labels" class="LineLabels"><g id="connectors"><path id="Discards" d="M732.995,192.1 H738.6616666666666 V187.01666666666665 H749.995" stroke="#999" stroke-width="0.5" fill="none"></path><path id="Recreational" d="M732.995,209.1 H744.3283333333333 V205.86666666666665 H749.995" stroke="#999" stroke-width="0.5" fill="none"></path><path id="Subsistence" d="M732.995,216.4 H744.3283333333333 V224.71666666666664 H749.995" stroke="#999" stroke-width="0.5" fill="none"></path><path id="Artisanal-(small-scale-commercial)" d="M732.995,257.4 H741.495 V257.4 H749.995" stroke="#999" stroke-width="0.5" fill="none"></path><path id="Industrial-(large-scale-commercial)" d="M732.995,411.9 H741.495 V411.9 H749.995" stroke="#999" stroke-width="0.5" fill="none"></path></g><g id="text-annotations"></g><g id="text-labels"><text x="753.995" y="192.01166666666666" font-size="13.50" fill="#6d3e91" opacity="1" text-anchor="start"><tspan font-weight="400">Discards</tspan></text><text x="753.995" y="210.86166666666662" font-size="13.50" fill="#18470f" opacity="1" text-anchor="start"><tspan font-weight="400">Recreational</tspan></text><text x="753.995" y="229.71166666666664" font-size="13.50" fill="#286bbb" opacity="1" text-anchor="start"><tspan font-weight="400">Subsistence</tspan></text><text x="753.995" y="247.54499999999996" font-size="13.50" fill="#d96855" opacity="1" text-anchor="start"><tspan font-weight="400">Artisanal</tspan></text><text x="753.995" y="262.395" font-size="13.50" fill="#d96855" opacity="1" text-anchor="start"><tspan font-weight="400">(small-scale</tspan></text><text x="753.995" y="277.24499999999995" font-size="13.50" fill="#d96855" opacity="1" text-anchor="start"><tspan font-weight="400">commercial)</tspan></text><text x="753.995" y="402.045" font-size="13.50" fill="#9a5129" opacity="1" text-anchor="start"><tspan font-weight="400">Industrial</tspan></text><text x="753.995" y="416.89500000000004" font-size="13.50" fill="#9a5129" opacity="1" text-anchor="start"><tspan font-weight="400">(large-scale</tspan></text><text x="753.995" y="431.745" font-size="13.50" fill="#9a5129" opacity="1" text-anchor="start"><tspan font-weight="400">commercial)</tspan></text></g></g><g class="Areas" id="stacked-areas"><g id="areas"><path id="Industrial-(large-scale-commercial)" class="Industrial-__0028large-scale-commercial__0029-area" stroke-linecap="round" d="M85.7 483.9L96.4 481.1L107.1 477.7L117.8 475.4L128.6 471.6L139.3 470.3L150 466.5L160.7 466.1L171.4 464.5L182.2 455L192.9 447.1L203.6 431.9L214.3 421.7L225.1 413.8L235.8 396.3L246.5 399.5L257.2 385.3L267.9 369.1L278.7 350.2L289.4 359.9L300.1 339.6L310.8 341.5L321.6 362.7L332.3 364.2L343 346.6L353.7 349.4L364.4 338.9L375.2 338.4L385.9 327.4L396.6 335.1L407.3 334.3L418.1 327.9L428.8 311.4L439.5 317.4L450.2 301.4L460.9 292L471.7 275.4L482.4 271.6L493.1 260.3L503.8 257.4L514.6 268.9L525.3 272.4L536 265L546.7 261.9L557.4 243.2L568.2 245.6L578.9 238L589.6 244.1L600.3 272.2L611.1 255.1L621.8 246.4L632.5 257.1L643.2 256.6L653.9 267.7L664.7 252.1L675.4 258.5L686.1 275.8L696.8 274.5L707.6 281.1L718.3 284.7L729 292.6L729 531.3L85.7 531.3" fill="#9A5129" fill-opacity="0.8"></path><path id="Artisanal-(small-scale-commercial)" class="Artisanal-__0028small-scale-commercial__0029-area" stroke-linecap="round" d="M85.7 459.4L96.4 454.1L107.1 450.8L117.8 447.8L128.6 441.5L139.3 439.2L150 433L160.7 432.1L171.4 431.4L182.2 421.2L192.9 412.3L203.6 396.6L214.3 385.8L225.1 377.9L235.8 359.5L246.5 361.6L257.2 346L267.9 328.7L278.7 310.2L289.4 320.2L300.1 299.3L310.8 301.1L321.6 321.2L332.3 319.7L343 303.3L353.7 305.7L364.4 294.1L375.2 293.2L385.9 280.6L396.6 287.5L407.3 286.5L418.1 278.2L428.8 261.8L439.5 267.6L450.2 249.1L460.9 238.6L471.7 222.5L482.4 214.8L493.1 203.6L503.8 200L514.6 211.1L525.3 214.5L536 205L546.7 203.2L557.4 182.2L568.2 181.6L578.9 170.4L589.6 177.7L600.3 206L611.1 188L621.8 182.2L632.5 191.9L643.2 192.3L653.9 200.7L664.7 183.4L675.4 190.3L686.1 206L696.8 205.8L707.6 212.4L718.3 213.7L729 222.3L729 292.6L718.3 284.7L707.6 281.1L696.8 274.5L686.1 275.8L675.4 258.5L664.7 252.1L653.9 267.7L643.2 256.6L632.5 257.1L621.8 246.4L611.1 255.1L600.3 272.2L589.6 244.1L578.9 238L568.2 245.6L557.4 243.2L546.7 261.9L536 265L525.3 272.4L514.6 268.9L503.8 257.4L493.1 260.3L482.4 271.6L471.7 275.4L460.9 292L450.2 301.4L439.5 317.4L428.8 311.4L418.1 327.9L407.3 334.3L396.6 335.1L385.9 327.4L375.2 338.4L364.4 338.9L353.7 349.4L343 346.6L332.3 364.2L321.6 362.7L310.8 341.5L300.1 339.6L289.4 359.9L278.7 350.2L267.9 369.1L257.2 385.3L246.5 399.5L235.8 396.3L225.1 413.8L214.3 421.7L203.6 431.9L192.9 447.1L182.2 455L171.4 464.5L160.7 466.1L150 466.5L139.3 470.3L128.6 471.6L117.8 475.4L107.1 477.7L96.4 481.1L85.7 483.9" fill="#E56E5A" fill-opacity="0.8"></path><path id="Subsistence" class="Subsistence-area" stroke-linecap="round" d="M85.7 450.6L96.4 445.3L107.1 441.9L117.8 438.9L128.6 432.1L139.3 429.4L150 423L160.7 422L171.4 421L182.2 410.5L192.9 400.9L203.6 385.1L214.3 373.8L225.1 365.5L235.8 346.9L246.5 349L257.2 333.4L267.9 316L278.7 297.4L289.4 307.5L300.1 286.5L310.8 288.2L321.6 308.2L332.3 306.8L343 290.7L353.7 293.3L364.4 281.4L375.2 279.9L385.9 267.5L396.6 274.6L407.3 273.8L418.1 265.2L428.8 248.5L439.5 253.9L450.2 235.6L460.9 225L471.7 208.8L482.4 201.1L493.1 190.3L503.8 186.6L514.6 197.9L525.3 201.2L536 191.6L546.7 189.9L557.4 168.7L568.2 168.2L578.9 157.1L589.6 164.5L600.3 192.9L611.1 174.8L621.8 168.8L632.5 179L643.2 179.7L653.9 188.2L664.7 171L675.4 178.1L686.1 193.7L696.8 194L707.6 200.6L718.3 201.8L729 210.5L729 222.3L718.3 213.7L707.6 212.4L696.8 205.8L686.1 206L675.4 190.3L664.7 183.4L653.9 200.7L643.2 192.3L632.5 191.9L621.8 182.2L611.1 188L600.3 206L589.6 177.7L578.9 170.4L568.2 181.6L557.4 182.2L546.7 203.2L536 205L525.3 214.5L514.6 211.1L503.8 200L493.1 203.6L482.4 214.8L471.7 222.5L460.9 238.6L450.2 249.1L439.5 267.6L428.8 261.8L418.1 278.2L407.3 286.5L396.6 287.5L385.9 280.6L375.2 293.2L364.4 294.1L353.7 305.7L343 303.3L332.3 319.7L321.6 321.2L310.8 301.1L300.1 299.3L289.4 320.2L278.7 310.2L267.9 328.7L257.2 346L246.5 361.6L235.8 359.5L225.1 377.9L214.3 385.8L203.6 396.6L192.9 412.3L182.2 421.2L171.4 431.4L160.7 432.1L150 433L139.3 439.2L128.6 441.5L117.8 447.8L107.1 450.8L96.4 454.1L85.7 459.4" fill="#286BBB" fill-opacity="0.8"></path><path id="Recreational" class="Recreational-area" stroke-linecap="round" d="M85.7 449.8L96.4 444.4L107.1 440.9L117.8 437.9L128.6 431.1L139.3 428.4L150 422L160.7 420.9L171.4 419.8L182.2 409.3L192.9 399.8L203.6 383.9L214.3 372.6L225.1 364.2L235.8 345.6L246.5 347.6L257.2 332L267.9 314.6L278.7 295.9L289.4 306.1L300.1 284.9L310.8 286.5L321.6 306.5L332.3 305L343 288.8L353.7 291.4L364.4 279.3L375.2 277.8L385.9 265.3L396.6 272.2L407.3 271.3L418.1 262.7L428.8 245.9L439.5 251.2L450.2 233L460.9 222.4L471.7 206L482.4 198.5L493.1 187.7L503.8 184.1L514.6 195.5L525.3 198.7L536 189.2L546.7 187.5L557.4 166.3L568.2 165.7L578.9 154.6L589.6 162L600.3 190.5L611.1 172.5L621.8 166.3L632.5 176.5L643.2 177.2L653.9 185.6L664.7 168.5L675.4 175.7L686.1 191.1L696.8 191.4L707.6 197.9L718.3 199.2L729 207.8L729 210.5L718.3 201.8L707.6 200.6L696.8 194L686.1 193.7L675.4 178.1L664.7 171L653.9 188.2L643.2 179.7L632.5 179L621.8 168.8L611.1 174.8L600.3 192.9L589.6 164.5L578.9 157.1L568.2 168.2L557.4 168.7L546.7 189.9L536 191.6L525.3 201.2L514.6 197.9L503.8 186.6L493.1 190.3L482.4 201.1L471.7 208.8L460.9 225L450.2 235.6L439.5 253.9L428.8 248.5L418.1 265.2L407.3 273.8L396.6 274.6L385.9 267.5L375.2 279.9L364.4 281.4L353.7 293.3L343 290.7L332.3 306.8L321.6 308.2L310.8 288.2L300.1 286.5L289.4 307.5L278.7 297.4L267.9 316L257.2 333.4L246.5 349L235.8 346.9L225.1 365.5L214.3 373.8L203.6 385.1L192.9 400.9L182.2 410.5L171.4 421L160.7 422L150 423L139.3 429.4L128.6 432.1L117.8 438.9L107.1 441.9L96.4 445.3L85.7 450.6" fill="#18470F" fill-opacity="0.8"></path><path id="Discards" class="Discards-area" stroke-linecap="round" d="M85.7 430.6L96.4 424L107.1 417.4L117.8 414.6L128.6 405L139.3 401.3L150 393.6L160.7 391.6L171.4 389.7L182.2 377.1L192.9 364.3L203.6 345.8L214.3 335.2L225.1 324.1L235.8 303.5L246.5 303.4L257.2 288.5L267.9 270.5L278.7 250.7L289.4 264.5L300.1 243.4L310.8 245.2L321.6 266.2L332.3 265.8L343 251.6L353.7 254.5L364.4 243.2L375.2 242.4L385.9 229.9L396.6 237.3L407.3 237.1L418.1 227L428.8 205.2L439.5 210.8L450.2 187.7L460.9 174.5L471.7 156.9L482.4 147.5L493.1 135.4L503.8 128.9L514.6 141.1L525.3 145.2L536 138L546.7 138.3L557.4 119.2L568.2 118.8L578.9 106.8L589.6 115.4L600.3 147.6L611.1 132L621.8 127.3L632.5 139L643.2 142.1L653.9 150.5L664.7 134.7L675.4 143.1L686.1 160.1L696.8 159.8L707.6 166.7L718.3 168.7L729 176.4L729 207.8L718.3 199.2L707.6 197.9L696.8 191.4L686.1 191.1L675.4 175.7L664.7 168.5L653.9 185.6L643.2 177.2L632.5 176.5L621.8 166.3L611.1 172.5L600.3 190.5L589.6 162L578.9 154.6L568.2 165.7L557.4 166.3L546.7 187.5L536 189.2L525.3 198.7L514.6 195.5L503.8 184.1L493.1 187.7L482.4 198.5L471.7 206L460.9 222.4L450.2 233L439.5 251.2L428.8 245.9L418.1 262.7L407.3 271.3L396.6 272.2L385.9 265.3L375.2 277.8L364.4 279.3L353.7 291.4L343 288.8L332.3 305L321.6 306.5L310.8 286.5L300.1 284.9L289.4 306.1L278.7 295.9L267.9 314.6L257.2 332L246.5 347.6L235.8 345.6L225.1 364.2L214.3 372.6L203.6 383.9L192.9 399.8L182.2 409.3L171.4 419.8L160.7 420.9L150 422L139.3 428.4L128.6 431.1L117.8 437.9L107.1 440.9L96.4 444.4L85.7 449.8" fill="#6D3E91" fill-opacity="0.8"></path></g><g id="borders"><path id="Industrial-(large-scale-commercial)" class="Industrial-__0028large-scale-commercial__0029-border" stroke-linecap="round" d="M85.7 483.9L96.4 481.1L107.1 477.7L117.8 475.4L128.6 471.6L139.3 470.3L150 466.5L160.7 466.1L171.4 464.5L182.2 455L192.9 447.1L203.6 431.9L214.3 421.7L225.1 413.8L235.8 396.3L246.5 399.5L257.2 385.3L267.9 369.1L278.7 350.2L289.4 359.9L300.1 339.6L310.8 341.5L321.6 362.7L332.3 364.2L343 346.6L353.7 349.4L364.4 338.9L375.2 338.4L385.9 327.4L396.6 335.1L407.3 334.3L418.1 327.9L428.8 311.4L439.5 317.4L450.2 301.4L460.9 292L471.7 275.4L482.4 271.6L493.1 260.3L503.8 257.4L514.6 268.9L525.3 272.4L536 265L546.7 261.9L557.4 243.2L568.2 245.6L578.9 238L589.6 244.1L600.3 272.2L611.1 255.1L621.8 246.4L632.5 257.1L643.2 256.6L653.9 267.7L664.7 252.1L675.4 258.5L686.1 275.8L696.8 274.5L707.6 281.1L718.3 284.7L729 292.6" stroke="rgb(129, 68, 34)" stroke-opacity="0.7" stroke-width="0.5" fill="none"></path><path id="Artisanal-(small-scale-commercial)" class="Artisanal-__0028small-scale-commercial__0029-border" stroke-linecap="round" d="M85.7 459.4L96.4 454.1L107.1 450.8L117.8 447.8L128.6 441.5L139.3 439.2L150 433L160.7 432.1L171.4 431.4L182.2 421.2L192.9 412.3L203.6 396.6L214.3 385.8L225.1 377.9L235.8 359.5L246.5 361.6L257.2 346L267.9 328.7L278.7 310.2L289.4 320.2L300.1 299.3L310.8 301.1L321.6 321.2L332.3 319.7L343 303.3L353.7 305.7L364.4 294.1L375.2 293.2L385.9 280.6L396.6 287.5L407.3 286.5L418.1 278.2L428.8 261.8L439.5 267.6L450.2 249.1L460.9 238.6L471.7 222.5L482.4 214.8L493.1 203.6L503.8 200L514.6 211.1L525.3 214.5L536 205L546.7 203.2L557.4 182.2L568.2 181.6L578.9 170.4L589.6 177.7L600.3 206L611.1 188L621.8 182.2L632.5 191.9L643.2 192.3L653.9 200.7L664.7 183.4L675.4 190.3L686.1 206L696.8 205.8L707.6 212.4L718.3 213.7L729 222.3" stroke="rgb(192, 92, 75)" stroke-opacity="0.7" stroke-width="0.5" fill="none"></path><path id="Subsistence" class="Subsistence-border" stroke-linecap="round" d="M85.7 450.6L96.4 445.3L107.1 441.9L117.8 438.9L128.6 432.1L139.3 429.4L150 423L160.7 422L171.4 421L182.2 410.5L192.9 400.9L203.6 385.1L214.3 373.8L225.1 365.5L235.8 346.9L246.5 349L257.2 333.4L267.9 316L278.7 297.4L289.4 307.5L300.1 286.5L310.8 288.2L321.6 308.2L332.3 306.8L343 290.7L353.7 293.3L364.4 281.4L375.2 279.9L385.9 267.5L396.6 274.6L407.3 273.8L418.1 265.2L428.8 248.5L439.5 253.9L450.2 235.6L460.9 225L471.7 208.8L482.4 201.1L493.1 190.3L503.8 186.6L514.6 197.9L525.3 201.2L536 191.6L546.7 189.9L557.4 168.7L568.2 168.2L578.9 157.1L589.6 164.5L600.3 192.9L611.1 174.8L621.8 168.8L632.5 179L643.2 179.7L653.9 188.2L664.7 171L675.4 178.1L686.1 193.7L696.8 194L707.6 200.6L718.3 201.8L729 210.5" stroke="rgb(33, 90, 156)" stroke-opacity="0.7" stroke-width="0.5" fill="none"></path><path id="Recreational" class="Recreational-border" stroke-linecap="round" d="M85.7 449.8L96.4 444.4L107.1 440.9L117.8 437.9L128.6 431.1L139.3 428.4L150 422L160.7 420.9L171.4 419.8L182.2 409.3L192.9 399.8L203.6 383.9L214.3 372.6L225.1 364.2L235.8 345.6L246.5 347.6L257.2 332L267.9 314.6L278.7 295.9L289.4 306.1L300.1 284.9L310.8 286.5L321.6 306.5L332.3 305L343 288.8L353.7 291.4L364.4 279.3L375.2 277.8L385.9 265.3L396.6 272.2L407.3 271.3L418.1 262.7L428.8 245.9L439.5 251.2L450.2 233L460.9 222.4L471.7 206L482.4 198.5L493.1 187.7L503.8 184.1L514.6 195.5L525.3 198.7L536 189.2L546.7 187.5L557.4 166.3L568.2 165.7L578.9 154.6L589.6 162L600.3 190.5L611.1 172.5L621.8 166.3L632.5 176.5L643.2 177.2L653.9 185.6L664.7 168.5L675.4 175.7L686.1 191.1L696.8 191.4L707.6 197.9L718.3 199.2L729 207.8" stroke="rgb(20, 59, 13)" stroke-opacity="0.7" stroke-width="0.5" fill="none"></path><path id="Discards" class="Discards-border" stroke-linecap="round" d="M85.7 430.6L96.4 424L107.1 417.4L117.8 414.6L128.6 405L139.3 401.3L150 393.6L160.7 391.6L171.4 389.7L182.2 377.1L192.9 364.3L203.6 345.8L214.3 335.2L225.1 324.1L235.8 303.5L246.5 303.4L257.2 288.5L267.9 270.5L278.7 250.7L289.4 264.5L300.1 243.4L310.8 245.2L321.6 266.2L332.3 265.8L343 251.6L353.7 254.5L364.4 243.2L375.2 242.4L385.9 229.9L396.6 237.3L407.3 237.1L418.1 227L428.8 205.2L439.5 210.8L450.2 187.7L460.9 174.5L471.7 156.9L482.4 147.5L493.1 135.4L503.8 128.9L514.6 141.1L525.3 145.2L536 138L546.7 138.3L557.4 119.2L568.2 118.8L578.9 106.8L589.6 115.4L600.3 147.6L611.1 132L621.8 127.3L632.5 139L643.2 142.1L653.9 150.5L664.7 134.7L675.4 143.1L686.1 160.1L696.8 159.8L707.6 166.7L718.3 168.7L729 176.4" stroke="rgb(91, 52, 121)" stroke-opacity="0.7" stroke-width="0.5" fill="none"></path></g></g></g><g id="footer" class="SourcesFooter" style="fill:#5b5b5b"><g id="sources" class="markdown-text-wrap"><text x="16.0" y="580.9" style="font-size:13.5px;line-height:1.2"><tspan x="16" y="580.9"><tspan style="font-weight:700">Data source:</tspan> Pauly and Zeller (2016)</tspan></text></g><text id="origin-url" font-size="13.50" x="539.4" y="580.9"><tspan x="539.4300000000001" y="580.895"><a target="_blank" style="fill: #5b5b5b;" href="https://ourworldindata.org/fish-and-overfishing">OurWorldinData.org/fish-and-overfishing</a> | <a target="_blank" style="fill: #5b5b5b;" href="https://creativecommons.org/licenses/by/4.0/">CC BY</a></tspan></text></g></svg>