<svg xmlns="http://www.w3.org/2000/svg" version="1.1" style="font-family:Lato, &#x27;Helvetica Neue&#x27;, Helvetica, Arial, sans-serif;font-size:18px;background-color:white;text-rendering:geometricPrecision;-webkit-font-smoothing:antialiased" width="850" height="600" viewBox="0 0 850 600"><g class="HeaderView"><g transform="translate(774, 15) scale(0.29)"><svg className="owidLog" width="210" height="120" viewBox="0 0 210 120" fill="none" xmlns="http://www.w3.org/2000/svg">
<g clip-path="url(#clip0)">
  <path d="M0 0h210v107.89H0V0z" fill="#002147" />
  <path
    d="M40.98 32.25c0 2.36-.38 4.53-1.12 6.51a14.26 14.26 0 0 1-8.1 8.4c-1.9.78-4.02 1.17-6.34 1.17-2.31 0-4.42-.39-6.33-1.17a14.31 14.31 0 0 1-8.08-8.4 18.29 18.29 0 0 1-1.12-6.51c0-2.36.38-4.53 1.12-6.5.75-1.97 1.8-3.67 3.17-5.1a14.32 14.32 0 0 1 4.9-3.34c1.92-.8 4.03-1.19 6.34-1.19 2.32 0 4.43.4 6.34 1.19 1.92.8 3.56 1.9 4.93 3.34a14.87 14.87 0 0 1 3.17 5.1 18.1 18.1 0 0 1 1.12 6.5zm-4.38 0c0-1.94-.26-3.68-.8-5.22a10.91 10.91 0 0 0-2.24-3.89 9.68 9.68 0 0 0-3.52-2.46 11.95 11.95 0 0 0-4.62-.86c-1.68 0-3.21.28-4.6.86a9.88 9.88 0 0 0-3.54 2.46 10.91 10.91 0 0 0-2.24 3.9c-.53 1.53-.8 3.27-.8 5.2 0 1.94.27 3.68.8 5.22a11.17 11.17 0 0 0 2.24 3.9 10.01 10.01 0 0 0 3.55 2.44c1.38.56 2.9.83 4.6.83s3.24-.27 4.61-.83a9.8 9.8 0 0 0 3.52-2.44 11.17 11.17 0 0 0 2.25-3.9c.53-1.54.8-3.28.8-5.21zm26.22-6.54V48H60.5c-.56 0-.9-.27-1.05-.81l-.31-2.4a12.45 12.45 0 0 1-3.26 2.6c-1.2.64-2.58.96-4.13.96-1.22 0-2.3-.2-3.24-.6a6.52 6.52 0 0 1-2.33-1.7 7.37 7.37 0 0 1-1.43-2.67c-.3-1.04-.46-2.2-.46-3.45V25.7h3.91v14.22c0 1.68.38 2.99 1.15 3.91.77.93 1.96 1.39 3.54 1.39 1.16 0 2.24-.27 3.23-.82a10.42 10.42 0 0 0 2.8-2.28V25.7h3.91zm8.61 4.47a9.94 9.94 0 0 1 2.6-3.56 5.64 5.64 0 0 1 3.76-1.3c.47 0 .92.05 1.34.15.44.1.83.27 1.17.49l-.3 2.92c-.09.37-.3.55-.66.55-.2 0-.5-.04-.9-.13a6.21 6.21 0 0 0-3.24.18 4.23 4.23 0 0 0-1.47.92c-.42.4-.81.9-1.17 1.5-.33.58-.64 1.26-.92 2.02V48H67.7V25.71h2.25c.42 0 .72.08.88.25.16.16.27.44.33.83l.26 3.39zm61.16-13.7L122.75 48h-3.82l-7.99-24.05a21.95 21.95 0 0 1-.42-1.58 38.36 38.36 0 0 1-.44 1.58L102.05 48h-3.83L88.4 16.47h3.54c.38 0 .7.1.95.29.26.2.43.43.5.73l6.52 21.9.28 1.28.29 1.46.3-1.46.38-1.27 7.41-21.91c.1-.25.26-.48.51-.69.27-.22.58-.33.95-.33h1.23c.38 0 .69.1.92.29a1.77 1.77 0 0 1 .53.73l7.4 21.9a28.4 28.4 0 0 1 .68 2.62 29.52 29.52 0 0 1 .52-2.61l6.54-21.91a1.31 1.31 0 0 1 .48-.7c.27-.21.58-.32.95-.32h3.32zm9.35 8.88c1.63 0 3.1.27 4.4.82a9.43 9.43 0 0 1 5.46 5.94c.5 1.4.74 2.98.74 4.73 0 1.76-.25 3.34-.74 4.75a9.43 9.43 0 0 1-5.46 5.92c-1.3.52-2.77.79-4.4.79-1.64 0-3.12-.27-4.44-.8a9.42 9.42 0 0 1-3.35-2.3c-.92-1-1.63-2.2-2.13-3.61-.49-1.41-.73-3-.73-4.75s.24-3.33.73-4.73c.5-1.43 1.2-2.64 2.13-3.63.93-1 2.04-1.77 3.35-2.31 1.32-.55 2.8-.82 4.44-.82zm0 19.89c2.2 0 3.84-.73 4.93-2.2 1.08-1.48 1.63-3.54 1.63-6.18 0-2.66-.55-4.72-1.63-6.2-1.09-1.49-2.73-2.23-4.93-2.23-1.12 0-2.09.2-2.93.57a5.71 5.71 0 0 0-2.06 1.65c-.55.72-.96 1.61-1.24 2.67-.26 1.04-.4 2.22-.4 3.54 0 2.64.55 4.7 1.64 6.18 1.1 1.47 2.76 2.2 4.99 2.2zm17.97-15.07a9.94 9.94 0 0 1 2.6-3.56 5.64 5.64 0 0 1 3.76-1.3c.47 0 .91.05 1.34.15.44.1.83.27 1.16.49l-.28 2.92c-.09.37-.31.55-.66.55-.2 0-.5-.04-.9-.13a6.2 6.2 0 0 0-3.24.18 4.23 4.23 0 0 0-1.47.92c-.43.4-.82.9-1.17 1.5a13.1 13.1 0 0 0-.92 2.02V48h-3.94V25.71h2.24c.43 0 .72.08.88.25.17.16.28.44.33.83l.27 3.39zm15.04-14.59V48h-3.92V15.6h3.92zm19.55 15.43a6.22 6.22 0 0 0-2.38-2.05 6.7 6.7 0 0 0-2.86-.6c-2.07 0-3.66.75-4.77 2.23-1.12 1.48-1.68 3.6-1.68 6.33 0 1.46.13 2.7.38 3.74a7.29 7.29 0 0 0 1.1 2.56 4.35 4.35 0 0 0 1.78 1.45c.7.3 1.5.46 2.4.46 1.29 0 2.41-.3 3.36-.88a9.6 9.6 0 0 0 2.67-2.49V31.02zm3.91-15.43V48h-2.33c-.56 0-.9-.27-1.06-.81l-.35-2.71a12.13 12.13 0 0 1-3.25 2.77 8.28 8.28 0 0 1-4.23 1.06 7.31 7.31 0 0 1-6.14-2.9c-.73-.96-1.3-2.15-1.69-3.57a18.35 18.35 0 0 1 .07-9.48 11.29 11.29 0 0 1 1.89-3.7 8.7 8.7 0 0 1 7.06-3.34 7.96 7.96 0 0 1 6.12 2.62V15.59h3.91zM46.61 70.71V93H42.7V70.71h3.91zm.84-7c0 .39-.08.75-.24 1.09-.15.32-.35.61-.62.88-.25.25-.55.44-.9.59a2.67 2.67 0 0 1-2.16 0 2.9 2.9 0 0 1-1.45-1.47 2.67 2.67 0 0 1 0-2.16c.15-.35.35-.65.6-.9.25-.27.53-.47.85-.62a2.67 2.67 0 0 1 2.16 0c.35.15.65.35.9.62.27.25.47.55.62.9.16.34.24.7.24 1.08zm7.97 10.24c.49-.54 1-1.04 1.54-1.48a9.85 9.85 0 0 1 3.66-1.84 8.96 8.96 0 0 1 5.43.35c.94.4 1.72.97 2.33 1.71.63.74 1.11 1.62 1.43 2.67.32 1.04.49 2.19.49 3.45V93h-3.94V78.81c0-1.69-.4-3-1.17-3.92-.76-.93-1.93-1.4-3.5-1.4-1.15 0-2.24.27-3.25.83-1 .56-1.92 1.31-2.77 2.27V93h-3.94V70.71h2.35c.56 0 .9.28 1.04.82l.3 2.42zm57.7 3.3c0 2.36-.37 4.5-1.11 6.44a14.3 14.3 0 0 1-3.17 4.98c-1.37 1.37-3 2.45-4.93 3.2-1.9.76-4.02 1.13-6.33 1.13H85.8V61.47h11.77c2.31 0 4.42.39 6.33 1.15a13.8 13.8 0 0 1 8.1 8.18 17.75 17.75 0 0 1 1.12 6.45zm-4.37 0c0-1.94-.26-3.67-.8-5.2a10.94 10.94 0 0 0-2.23-3.87 9.57 9.57 0 0 0-3.53-2.42 12.23 12.23 0 0 0-4.61-.83h-7.5v24.62h7.5c1.7 0 3.24-.28 4.61-.84a9.7 9.7 0 0 0 3.53-2.4 10.94 10.94 0 0 0 2.24-3.87c.53-1.53.8-3.26.8-5.2zm19.8 5.72c-1.8.06-3.34.2-4.62.44-1.26.22-2.3.51-3.1.88-.8.36-1.37.8-1.74 1.3-.35.5-.53 1.05-.53 1.67 0 .58.1 1.1.3 1.52a3 3 0 0 0 .76 1.05c.34.27.73.46 1.17.6a6.13 6.13 0 0 0 1.45.17 7.28 7.28 0 0 0 3.5-.81 11.95 11.95 0 0 0 2.82-2.2v-4.62zm-12.65-9.11a12.73 12.73 0 0 1 3.98-2.66c1.43-.59 3-.88 4.73-.88 1.25 0 2.36.2 3.33.61a6.81 6.81 0 0 1 3.94 4.38c.33 1.04.5 2.19.5 3.43V93h-1.74a1.8 1.8 0 0 1-.88-.18c-.2-.13-.36-.38-.48-.74l-.44-2.12-1.72 1.46a9.48 9.48 0 0 1-3.74 1.7c-.69.15-1.46.23-2.3.23-.87 0-1.69-.12-2.45-.35a5.34 5.34 0 0 1-3.34-2.93 6.64 6.64 0 0 1-.49-2.64c0-.88.25-1.72.73-2.53a6.33 6.33 0 0 1 2.35-2.17c1.09-.63 2.5-1.15 4.25-1.54 1.75-.41 3.89-.65 6.42-.7v-1.75c0-1.73-.37-3.03-1.12-3.91-.75-.9-1.84-1.34-3.28-1.34-.97 0-1.78.12-2.44.37-.64.23-1.2.5-1.7.81l-1.23.82c-.33.23-.67.35-1 .35-.27 0-.5-.07-.69-.2a2.1 2.1 0 0 1-.48-.53l-.7-1.25zm27.67 19.5c-1.76 0-3.12-.5-4.07-1.48-.94-.98-1.41-2.4-1.41-4.25V74h-2.68a.9.9 0 0 1-.6-.2c-.16-.14-.24-.36-.24-.66v-1.56l3.65-.46.9-6.89c.05-.22.14-.4.29-.52a.88.88 0 0 1 .62-.22H142v7.67h6.44V74H142v13.38c0 .94.22 1.63.68 2.09.45.45 1.04.68 1.76.68a3.21 3.21 0 0 0 1.85-.53l.55-.35c.16-.12.3-.18.41-.18.2 0 .4.13.55.38l1.15 1.87a7.45 7.45 0 0 1-2.44 1.5 8.53 8.53 0 0 1-2.95.52zm19.68-10.4c-1.8.07-3.34.21-4.62.45-1.26.22-2.3.51-3.1.88-.8.36-1.37.8-1.74 1.3-.35.5-.53 1.05-.53 1.67 0 .58.1 1.1.3 1.52a2.9 2.9 0 0 0 .76 1.05c.34.27.73.46 1.17.6a6.13 6.13 0 0 0 1.45.17 7.3 7.3 0 0 0 3.5-.81 12.04 12.04 0 0 0 2.82-2.2v-4.62zm-12.65-9.1a12.72 12.72 0 0 1 3.99-2.66c1.42-.59 3-.88 4.72-.88 1.25 0 2.36.2 3.33.61a6.81 6.81 0 0 1 3.94 4.38c.33 1.04.5 2.19.5 3.43V93h-1.74a1.8 1.8 0 0 1-.88-.18c-.2-.13-.36-.38-.48-.74l-.44-2.12-1.72 1.46a9.48 9.48 0 0 1-3.74 1.7c-.69.15-1.46.23-2.3.23-.87 0-1.69-.12-2.45-.35a5.33 5.33 0 0 1-3.34-2.93 6.62 6.62 0 0 1-.49-2.64c0-.88.25-1.72.73-2.53a6.33 6.33 0 0 1 2.35-2.17c1.09-.63 2.5-1.15 4.25-1.54 1.74-.41 3.89-.65 6.42-.7v-1.75c0-1.73-.37-3.03-1.12-3.91-.75-.9-1.84-1.34-3.28-1.34-.97 0-1.78.12-2.44.37-.64.23-1.2.5-1.7.81l-1.22.82c-.34.23-.68.35-1.02.35-.26 0-.49-.07-.68-.2a1.88 1.88 0 0 1-.48-.53l-.7-1.25zM40.98 32.25c0 2.36-.38 4.53-1.12 6.51a14.26 14.26 0 0 1-8.1 8.4c-1.9.78-4.02 1.17-6.34 1.17-2.31 0-4.42-.39-6.33-1.17a14.31 14.31 0 0 1-8.08-8.4 18.29 18.29 0 0 1-1.12-6.51c0-2.36.38-4.53 1.12-6.5.75-1.97 1.8-3.67 3.17-5.1a14.32 14.32 0 0 1 4.9-3.34c1.92-.8 4.03-1.19 6.34-1.19 2.32 0 4.43.4 6.34 1.19 1.92.8 3.56 1.9 4.93 3.34a14.87 14.87 0 0 1 3.17 5.1 18.1 18.1 0 0 1 1.12 6.5zm-4.38 0c0-1.94-.26-3.68-.8-5.22a10.91 10.91 0 0 0-2.24-3.89 9.68 9.68 0 0 0-3.52-2.46 11.95 11.95 0 0 0-4.62-.86c-1.68 0-3.21.28-4.6.86a9.88 9.88 0 0 0-3.54 2.46 10.91 10.91 0 0 0-2.24 3.9c-.53 1.53-.8 3.27-.8 5.2 0 1.94.27 3.68.8 5.22a11.17 11.17 0 0 0 2.24 3.9 10.01 10.01 0 0 0 3.55 2.44c1.38.56 2.9.83 4.6.83s3.24-.27 4.61-.83a9.8 9.8 0 0 0 3.52-2.44 11.17 11.17 0 0 0 2.25-3.9c.53-1.54.8-3.28.8-5.21zm26.22-6.54V48H60.5c-.56 0-.9-.27-1.05-.81l-.31-2.4a12.45 12.45 0 0 1-3.26 2.6c-1.2.64-2.58.96-4.13.96-1.22 0-2.3-.2-3.24-.6a6.52 6.52 0 0 1-2.33-1.7 7.37 7.37 0 0 1-1.43-2.67c-.3-1.04-.46-2.2-.46-3.45V25.7h3.91v14.22c0 1.68.38 2.99 1.15 3.91.77.93 1.96 1.39 3.54 1.39 1.16 0 2.24-.27 3.23-.82a10.42 10.42 0 0 0 2.8-2.28V25.7h3.91zm8.61 4.47a9.94 9.94 0 0 1 2.6-3.56 5.64 5.64 0 0 1 3.76-1.3c.47 0 .92.05 1.34.15.44.1.83.27 1.17.49l-.3 2.92c-.09.37-.3.55-.66.55-.2 0-.5-.04-.9-.13a6.21 6.21 0 0 0-3.24.18 4.23 4.23 0 0 0-1.47.92c-.42.4-.81.9-1.17 1.5-.33.58-.64 1.26-.92 2.02V48H67.7V25.71h2.25c.42 0 .72.08.88.25.16.16.27.44.33.83l.26 3.39zm61.16-13.7L122.75 48h-3.82l-7.99-24.05a21.95 21.95 0 0 1-.42-1.58 38.36 38.36 0 0 1-.44 1.58L102.05 48h-3.83L88.4 16.47h3.54c.38 0 .7.1.95.29.26.2.43.43.5.73l6.52 21.9.28 1.28.29 1.46.3-1.46.38-1.27 7.41-21.91c.1-.25.26-.48.51-.69.27-.22.58-.33.95-.33h1.23c.38 0 .69.1.92.29a1.77 1.77 0 0 1 .53.73l7.4 21.9a28.4 28.4 0 0 1 .68 2.62 29.52 29.52 0 0 1 .52-2.61l6.54-21.91a1.31 1.31 0 0 1 .48-.7c.27-.21.58-.32.95-.32h3.32zm9.35 8.88c1.63 0 3.1.27 4.4.82a9.43 9.43 0 0 1 5.46 5.94c.5 1.4.74 2.98.74 4.73 0 1.76-.25 3.34-.74 4.75a9.43 9.43 0 0 1-5.46 5.92c-1.3.52-2.77.79-4.4.79-1.64 0-3.12-.27-4.44-.8a9.42 9.42 0 0 1-3.35-2.3c-.92-1-1.63-2.2-2.13-3.61-.49-1.41-.73-3-.73-4.75s.24-3.33.73-4.73c.5-1.43 1.2-2.64 2.13-3.63.93-1 2.04-1.77 3.35-2.31 1.32-.55 2.8-.82 4.44-.82zm0 19.89c2.2 0 3.84-.73 4.93-2.2 1.08-1.48 1.63-3.54 1.63-6.18 0-2.66-.55-4.72-1.63-6.2-1.09-1.49-2.73-2.23-4.93-2.23-1.12 0-2.09.2-2.93.57a5.71 5.71 0 0 0-2.06 1.65c-.55.72-.96 1.61-1.24 2.67-.26 1.04-.4 2.22-.4 3.54 0 2.64.55 4.7 1.64 6.18 1.1 1.47 2.76 2.2 4.99 2.2zm17.97-15.07a9.94 9.94 0 0 1 2.6-3.56 5.64 5.64 0 0 1 3.76-1.3c.47 0 .91.05 1.34.15.44.1.83.27 1.16.49l-.28 2.92c-.09.37-.31.55-.66.55-.2 0-.5-.04-.9-.13a6.2 6.2 0 0 0-3.24.18 4.23 4.23 0 0 0-1.47.92c-.43.4-.82.9-1.17 1.5a13.1 13.1 0 0 0-.92 2.02V48h-3.94V25.71h2.24c.43 0 .72.08.88.25.17.16.28.44.33.83l.27 3.39zm15.04-14.59V48h-3.92V15.6h3.92zm19.55 15.43a6.22 6.22 0 0 0-2.38-2.05 6.7 6.7 0 0 0-2.86-.6c-2.07 0-3.66.75-4.77 2.23-1.12 1.48-1.68 3.6-1.68 6.33 0 1.46.13 2.7.38 3.74a7.29 7.29 0 0 0 1.1 2.56 4.35 4.35 0 0 0 1.78 1.45c.7.3 1.5.46 2.4.46 1.29 0 2.41-.3 3.36-.88a9.6 9.6 0 0 0 2.67-2.49V31.02zm3.91-15.43V48h-2.33c-.56 0-.9-.27-1.06-.81l-.35-2.71a12.13 12.13 0 0 1-3.25 2.77 8.28 8.28 0 0 1-4.23 1.06 7.31 7.31 0 0 1-6.14-2.9c-.73-.96-1.3-2.15-1.69-3.57a18.35 18.35 0 0 1 .07-9.48 11.29 11.29 0 0 1 1.89-3.7 8.7 8.7 0 0 1 7.06-3.34 7.96 7.96 0 0 1 6.12 2.62V15.59h3.91zM46.61 70.71V93H42.7V70.71h3.91zm.84-7c0 .39-.08.75-.24 1.09-.15.32-.35.61-.62.88-.25.25-.55.44-.9.59a2.67 2.67 0 0 1-2.16 0 2.9 2.9 0 0 1-1.45-1.47 2.67 2.67 0 0 1 0-2.16c.15-.35.35-.65.6-.9.25-.27.53-.47.85-.62a2.67 2.67 0 0 1 2.16 0c.35.15.65.35.9.62.27.25.47.55.62.9.16.34.24.7.24 1.08zm7.97 10.24c.49-.54 1-1.04 1.54-1.48a9.85 9.85 0 0 1 3.66-1.84 8.96 8.96 0 0 1 5.43.35c.94.4 1.72.97 2.33 1.71.63.74 1.11 1.62 1.43 2.67.32 1.04.49 2.19.49 3.45V93h-3.94V78.81c0-1.69-.4-3-1.17-3.92-.76-.93-1.93-1.4-3.5-1.4-1.15 0-2.24.27-3.25.83-1 .56-1.92 1.31-2.77 2.27V93h-3.94V70.71h2.35c.56 0 .9.28 1.04.82l.3 2.42zm57.7 3.3c0 2.36-.37 4.5-1.11 6.44a14.3 14.3 0 0 1-3.17 4.98c-1.37 1.37-3 2.45-4.93 3.2-1.9.76-4.02 1.13-6.33 1.13H85.8V61.47h11.77c2.31 0 4.42.39 6.33 1.15a13.8 13.8 0 0 1 8.1 8.18 17.75 17.75 0 0 1 1.12 6.45zm-4.37 0c0-1.94-.26-3.67-.8-5.2a10.94 10.94 0 0 0-2.23-3.87 9.57 9.57 0 0 0-3.53-2.42 12.23 12.23 0 0 0-4.61-.83h-7.5v24.62h7.5c1.7 0 3.24-.28 4.61-.84a9.7 9.7 0 0 0 3.53-2.4 10.94 10.94 0 0 0 2.24-3.87c.53-1.53.8-3.26.8-5.2zm19.8 5.72c-1.8.06-3.34.2-4.62.44-1.26.22-2.3.51-3.1.88-.8.36-1.37.8-1.74 1.3-.35.5-.53 1.05-.53 1.67 0 .58.1 1.1.3 1.52a3 3 0 0 0 .76 1.05c.34.27.73.46 1.17.6a6.13 6.13 0 0 0 1.45.17 7.28 7.28 0 0 0 3.5-.81 11.95 11.95 0 0 0 2.82-2.2v-4.62zm-12.65-9.11a12.73 12.73 0 0 1 3.98-2.66c1.43-.59 3-.88 4.73-.88 1.25 0 2.36.2 3.33.61a6.81 6.81 0 0 1 3.94 4.38c.33 1.04.5 2.19.5 3.43V93h-1.74a1.8 1.8 0 0 1-.88-.18c-.2-.13-.36-.38-.48-.74l-.44-2.12-1.72 1.46a9.48 9.48 0 0 1-3.74 1.7c-.69.15-1.46.23-2.3.23-.87 0-1.69-.12-2.45-.35a5.34 5.34 0 0 1-3.34-2.93 6.64 6.64 0 0 1-.49-2.64c0-.88.25-1.72.73-2.53a6.33 6.33 0 0 1 2.35-2.17c1.09-.63 2.5-1.15 4.25-1.54 1.75-.41 3.89-.65 6.42-.7v-1.75c0-1.73-.37-3.03-1.12-3.91-.75-.9-1.84-1.34-3.28-1.34-.97 0-1.78.12-2.44.37-.64.23-1.2.5-1.7.81l-1.23.82c-.33.23-.67.35-1 .35-.27 0-.5-.07-.69-.2a2.1 2.1 0 0 1-.48-.53l-.7-1.25zm27.67 19.5c-1.76 0-3.12-.5-4.07-1.48-.94-.98-1.41-2.4-1.41-4.25V74h-2.68a.9.9 0 0 1-.6-.2c-.16-.14-.24-.36-.24-.66v-1.56l3.65-.46.9-6.89c.05-.22.14-.4.29-.52a.88.88 0 0 1 .62-.22H142v7.67h6.44V74H142v13.38c0 .94.22 1.63.68 2.09.45.45 1.04.68 1.76.68a3.21 3.21 0 0 0 1.85-.53l.55-.35c.16-.12.3-.18.41-.18.2 0 .4.13.55.38l1.15 1.87a7.45 7.45 0 0 1-2.44 1.5 8.53 8.53 0 0 1-2.95.52zm19.68-10.4c-1.8.07-3.34.21-4.62.45-1.26.22-2.3.51-3.1.88-.8.36-1.37.8-1.74 1.3-.35.5-.53 1.05-.53 1.67 0 .58.1 1.1.3 1.52a2.9 2.9 0 0 0 .76 1.05c.34.27.73.46 1.17.6a6.13 6.13 0 0 0 1.45.17 7.3 7.3 0 0 0 3.5-.81 12.04 12.04 0 0 0 2.82-2.2v-4.62zm-12.65-9.1a12.72 12.72 0 0 1 3.99-2.66c1.42-.59 3-.88 4.72-.88 1.25 0 2.36.2 3.33.61a6.81 6.81 0 0 1 3.94 4.38c.33 1.04.5 2.19.5 3.43V93h-1.74a1.8 1.8 0 0 1-.88-.18c-.2-.13-.36-.38-.48-.74l-.44-2.12-1.72 1.46a9.48 9.48 0 0 1-3.74 1.7c-.69.15-1.46.23-2.3.23-.87 0-1.69-.12-2.45-.35a5.33 5.33 0 0 1-3.34-2.93 6.62 6.62 0 0 1-.49-2.64c0-.88.25-1.72.73-2.53a6.33 6.33 0 0 1 2.35-2.17c1.09-.63 2.5-1.15 4.25-1.54 1.74-.41 3.89-.65 6.42-.7v-1.75c0-1.73-.37-3.03-1.12-3.91-.75-.9-1.84-1.34-3.28-1.34-.97 0-1.78.12-2.44.37-.64.23-1.2.5-1.7.81l-1.22.82c-.34.23-.68.35-1.02.35-.26 0-.49-.07-.68-.2a1.88 1.88 0 0 1-.48-.53l-.7-1.25zM40.98 32.25c0 2.36-.38 4.53-1.12 6.51a14.26 14.26 0 0 1-8.1 8.4c-1.9.78-4.02 1.17-6.34 1.17-2.31 0-4.42-.39-6.33-1.17a14.31 14.31 0 0 1-8.08-8.4 18.29 18.29 0 0 1-1.12-6.51c0-2.36.38-4.53 1.12-6.5.75-1.97 1.8-3.67 3.17-5.1a14.32 14.32 0 0 1 4.9-3.34c1.92-.8 4.03-1.19 6.34-1.19 2.32 0 4.43.4 6.34 1.19 1.92.8 3.56 1.9 4.93 3.34a14.87 14.87 0 0 1 3.17 5.1 18.1 18.1 0 0 1 1.12 6.5zm-4.38 0c0-1.94-.26-3.68-.8-5.22a10.91 10.91 0 0 0-2.24-3.89 9.68 9.68 0 0 0-3.52-2.46 11.95 11.95 0 0 0-4.62-.86c-1.68 0-3.21.28-4.6.86a9.88 9.88 0 0 0-3.54 2.46 10.91 10.91 0 0 0-2.24 3.9c-.53 1.53-.8 3.27-.8 5.2 0 1.94.27 3.68.8 5.22a11.17 11.17 0 0 0 2.24 3.9 10.01 10.01 0 0 0 3.55 2.44c1.38.56 2.9.83 4.6.83s3.24-.27 4.61-.83a9.8 9.8 0 0 0 3.52-2.44 11.17 11.17 0 0 0 2.25-3.9c.53-1.54.8-3.28.8-5.21zm26.22-6.54V48H60.5c-.56 0-.9-.27-1.05-.81l-.31-2.4a12.45 12.45 0 0 1-3.26 2.6c-1.2.64-2.58.96-4.13.96-1.22 0-2.3-.2-3.24-.6a6.52 6.52 0 0 1-2.33-1.7 7.37 7.37 0 0 1-1.43-2.67c-.3-1.04-.46-2.2-.46-3.45V25.7h3.91v14.22c0 1.68.38 2.99 1.15 3.91.77.93 1.96 1.39 3.54 1.39 1.16 0 2.24-.27 3.23-.82a10.42 10.42 0 0 0 2.8-2.28V25.7h3.91zm8.61 4.47a9.94 9.94 0 0 1 2.6-3.56 5.64 5.64 0 0 1 3.76-1.3c.47 0 .92.05 1.34.15.44.1.83.27 1.17.49l-.3 2.92c-.09.37-.3.55-.66.55-.2 0-.5-.04-.9-.13a6.21 6.21 0 0 0-3.24.18 4.23 4.23 0 0 0-1.47.92c-.42.4-.81.9-1.17 1.5-.33.58-.64 1.26-.92 2.02V48H67.7V25.71h2.25c.42 0 .72.08.88.25.16.16.27.44.33.83l.26 3.39zm61.16-13.7L122.75 48h-3.82l-7.99-24.05a21.95 21.95 0 0 1-.42-1.58 38.36 38.36 0 0 1-.44 1.58L102.05 48h-3.83L88.4 16.47h3.54c.38 0 .7.1.95.29.26.2.43.43.5.73l6.52 21.9.28 1.28.29 1.46.3-1.46.38-1.27 7.41-21.91c.1-.25.26-.48.51-.69.27-.22.58-.33.95-.33h1.23c.38 0 .69.1.92.29a1.77 1.77 0 0 1 .53.73l7.4 21.9a28.4 28.4 0 0 1 .68 2.62 29.52 29.52 0 0 1 .52-2.61l6.54-21.91a1.31 1.31 0 0 1 .48-.7c.27-.21.58-.32.95-.32h3.32zm9.35 8.88c1.63 0 3.1.27 4.4.82a9.43 9.43 0 0 1 5.46 5.94c.5 1.4.74 2.98.74 4.73 0 1.76-.25 3.34-.74 4.75a9.43 9.43 0 0 1-5.46 5.92c-1.3.52-2.77.79-4.4.79-1.64 0-3.12-.27-4.44-.8a9.42 9.42 0 0 1-3.35-2.3c-.92-1-1.63-2.2-2.13-3.61-.49-1.41-.73-3-.73-4.75s.24-3.33.73-4.73c.5-1.43 1.2-2.64 2.13-3.63.93-1 2.04-1.77 3.35-2.31 1.32-.55 2.8-.82 4.44-.82zm0 19.89c2.2 0 3.84-.73 4.93-2.2 1.08-1.48 1.63-3.54 1.63-6.18 0-2.66-.55-4.72-1.63-6.2-1.09-1.49-2.73-2.23-4.93-2.23-1.12 0-2.09.2-2.93.57a5.71 5.71 0 0 0-2.06 1.65c-.55.72-.96 1.61-1.24 2.67-.26 1.04-.4 2.22-.4 3.54 0 2.64.55 4.7 1.64 6.18 1.1 1.47 2.76 2.2 4.99 2.2zm17.97-15.07a9.94 9.94 0 0 1 2.6-3.56 5.64 5.64 0 0 1 3.76-1.3c.47 0 .91.05 1.34.15.44.1.83.27 1.16.49l-.28 2.92c-.09.37-.31.55-.66.55-.2 0-.5-.04-.9-.13a6.2 6.2 0 0 0-3.24.18 4.23 4.23 0 0 0-1.47.92c-.43.4-.82.9-1.17 1.5a13.1 13.1 0 0 0-.92 2.02V48h-3.94V25.71h2.24c.43 0 .72.08.88.25.17.16.28.44.33.83l.27 3.39zm15.04-14.59V48h-3.92V15.6h3.92zm19.55 15.43a6.22 6.22 0 0 0-2.38-2.05 6.7 6.7 0 0 0-2.86-.6c-2.07 0-3.66.75-4.77 2.23-1.12 1.48-1.68 3.6-1.68 6.33 0 1.46.13 2.7.38 3.74a7.29 7.29 0 0 0 1.1 2.56 4.35 4.35 0 0 0 1.78 1.45c.7.3 1.5.46 2.4.46 1.29 0 2.41-.3 3.36-.88a9.6 9.6 0 0 0 2.67-2.49V31.02zm3.91-15.43V48h-2.33c-.56 0-.9-.27-1.06-.81l-.35-2.71a12.13 12.13 0 0 1-3.25 2.77 8.28 8.28 0 0 1-4.23 1.06 7.31 7.31 0 0 1-6.14-2.9c-.73-.96-1.3-2.15-1.69-3.57a18.35 18.35 0 0 1 .07-9.48 11.29 11.29 0 0 1 1.89-3.7 8.7 8.7 0 0 1 7.06-3.34 7.96 7.96 0 0 1 6.12 2.62V15.59h3.91zM46.61 70.71V93H42.7V70.71h3.91zm.84-7c0 .39-.08.75-.24 1.09-.15.32-.35.61-.62.88-.25.25-.55.44-.9.59a2.67 2.67 0 0 1-2.16 0 2.9 2.9 0 0 1-1.45-1.47 2.67 2.67 0 0 1 0-2.16c.15-.35.35-.65.6-.9.25-.27.53-.47.85-.62a2.67 2.67 0 0 1 2.16 0c.35.15.65.35.9.62.27.25.47.55.62.9.16.34.24.7.24 1.08zm7.97 10.24c.49-.54 1-1.04 1.54-1.48a9.85 9.85 0 0 1 3.66-1.84 8.96 8.96 0 0 1 5.43.35c.94.4 1.72.97 2.33 1.71.63.74 1.11 1.62 1.43 2.67.32 1.04.49 2.19.49 3.45V93h-3.94V78.81c0-1.69-.4-3-1.17-3.92-.76-.93-1.93-1.4-3.5-1.4-1.15 0-2.24.27-3.25.83-1 .56-1.92 1.31-2.77 2.27V93h-3.94V70.71h2.35c.56 0 .9.28 1.04.82l.3 2.42zm57.7 3.3c0 2.36-.37 4.5-1.11 6.44a14.3 14.3 0 0 1-3.17 4.98c-1.37 1.37-3 2.45-4.93 3.2-1.9.76-4.02 1.13-6.33 1.13H85.8V61.47h11.77c2.31 0 4.42.39 6.33 1.15a13.8 13.8 0 0 1 8.1 8.18 17.75 17.75 0 0 1 1.12 6.45zm-4.37 0c0-1.94-.26-3.67-.8-5.2a10.94 10.94 0 0 0-2.23-3.87 9.57 9.57 0 0 0-3.53-2.42 12.23 12.23 0 0 0-4.61-.83h-7.5v24.62h7.5c1.7 0 3.24-.28 4.61-.84a9.7 9.7 0 0 0 3.53-2.4 10.94 10.94 0 0 0 2.24-3.87c.53-1.53.8-3.26.8-5.2zm19.8 5.72c-1.8.06-3.34.2-4.62.44-1.26.22-2.3.51-3.1.88-.8.36-1.37.8-1.74 1.3-.35.5-.53 1.05-.53 1.67 0 .58.1 1.1.3 1.52a3 3 0 0 0 .76 1.05c.34.27.73.46 1.17.6a6.13 6.13 0 0 0 1.45.17 7.28 7.28 0 0 0 3.5-.81 11.95 11.95 0 0 0 2.82-2.2v-4.62zm-12.65-9.11a12.73 12.73 0 0 1 3.98-2.66c1.43-.59 3-.88 4.73-.88 1.25 0 2.36.2 3.33.61a6.81 6.81 0 0 1 3.94 4.38c.33 1.04.5 2.19.5 3.43V93h-1.74a1.8 1.8 0 0 1-.88-.18c-.2-.13-.36-.38-.48-.74l-.44-2.12-1.72 1.46a9.48 9.48 0 0 1-3.74 1.7c-.69.15-1.46.23-2.3.23-.87 0-1.69-.12-2.45-.35a5.34 5.34 0 0 1-3.34-2.93 6.64 6.64 0 0 1-.49-2.64c0-.88.25-1.72.73-2.53a6.33 6.33 0 0 1 2.35-2.17c1.09-.63 2.5-1.15 4.25-1.54 1.75-.41 3.89-.65 6.42-.7v-1.75c0-1.73-.37-3.03-1.12-3.91-.75-.9-1.84-1.34-3.28-1.34-.97 0-1.78.12-2.44.37-.64.23-1.2.5-1.7.81l-1.23.82c-.33.23-.67.35-1 .35-.27 0-.5-.07-.69-.2a2.1 2.1 0 0 1-.48-.53l-.7-1.25zm27.67 19.5c-1.76 0-3.12-.5-4.07-1.48-.94-.98-1.41-2.4-1.41-4.25V74h-2.68a.9.9 0 0 1-.6-.2c-.16-.14-.24-.36-.24-.66v-1.56l3.65-.46.9-6.89c.05-.22.14-.4.29-.52a.88.88 0 0 1 .62-.22H142v7.67h6.44V74H142v13.38c0 .94.22 1.63.68 2.09.45.45 1.04.68 1.76.68a3.21 3.21 0 0 0 1.85-.53l.55-.35c.16-.12.3-.18.41-.18.2 0 .4.13.55.38l1.15 1.87a7.45 7.45 0 0 1-2.44 1.5 8.53 8.53 0 0 1-2.95.52zm19.68-10.4c-1.8.07-3.34.21-4.62.45-1.26.22-2.3.51-3.1.88-.8.36-1.37.8-1.74 1.3-.35.5-.53 1.05-.53 1.67 0 .58.1 1.1.3 1.52a2.9 2.9 0 0 0 .76 1.05c.34.27.73.46 1.17.6a6.13 6.13 0 0 0 1.45.17 7.3 7.3 0 0 0 3.5-.81 12.04 12.04 0 0 0 2.82-2.2v-4.62zm-12.65-9.1a12.72 12.72 0 0 1 3.99-2.66c1.42-.59 3-.88 4.72-.88 1.25 0 2.36.2 3.33.61a6.81 6.81 0 0 1 3.94 4.38c.33 1.04.5 2.19.5 3.43V93h-1.74a1.8 1.8 0 0 1-.88-.18c-.2-.13-.36-.38-.48-.74l-.44-2.12-1.72 1.46a9.48 9.48 0 0 1-3.74 1.7c-.69.15-1.46.23-2.3.23-.87 0-1.69-.12-2.45-.35a5.33 5.33 0 0 1-3.34-2.93 6.62 6.62 0 0 1-.49-2.64c0-.88.25-1.72.73-2.53a6.33 6.33 0 0 1 2.35-2.17c1.09-.63 2.5-1.15 4.25-1.54 1.74-.41 3.89-.65 6.42-.7v-1.75c0-1.73-.37-3.03-1.12-3.91-.75-.9-1.84-1.34-3.28-1.34-.97 0-1.78.12-2.44.37-.64.23-1.2.5-1.7.81l-1.22.82c-.34.23-.68.35-1.02.35-.26 0-.49-.07-.68-.2a1.88 1.88 0 0 1-.48-.53l-.7-1.25z"
    fill="#fff"
  />
  <path fill="#D42B21" d="M0 106.79h210V120H0z" />
</g>
<defs>
  <clipPath id="clip0"><path fill="#fff" d="M0 0h210v120H0z" /></clipPath>
</defs>
</svg></g><a href="http://localhost:3030/grapher/global-cropland?country=~OWID_WRL" style="font-family:&quot;Playfair Display&quot;, Georgia, &quot;Times New Roman&quot;, serif" target="_blank" rel="noopener"><text font-size="25.20" x="15.0" y="35.2" fill="#555"><tspan x="15" y="35.160000000000004">Global cropland is still increasing</tspan></text></a><text font-size="14.40" x="15.0" y="55.7" fill="#666"><tspan x="15" y="55.72">Cropland is land used to grow crops, excluding pasture used for livestock grazing.</tspan></text></g><g class="LineChart"><defs><clipPath id="boundsClip-1"><rect x="110.278" y="66.6" width="840" height="476.2"></rect></clipPath></defs><rect x="15" y="76.6" width="820" height="456.2" fill="transparent"></rect><g class="DualAxisView"><g class="HorizontalAxis"><line x1="120.3" y1="511.6" x2="120.3" y2="516.6" stroke="#999"></line><line x1="639.1" y1="511.6" x2="639.1" y2="516.6" stroke="#999"></line><line x1="183.5" y1="511.6" x2="183.5" y2="516.6" stroke="#999"></line><line x1="246.8" y1="511.6" x2="246.8" y2="516.6" stroke="#999"></line><line x1="310.1" y1="511.6" x2="310.1" y2="516.6" stroke="#999"></line><line x1="373.4" y1="511.6" x2="373.4" y2="516.6" stroke="#999"></line><line x1="436.6" y1="511.6" x2="436.6" y2="516.6" stroke="#999"></line><line x1="499.9" y1="511.6" x2="499.9" y2="516.6" stroke="#999"></line><line x1="563.2" y1="511.6" x2="563.2" y2="516.6" stroke="#999"></line><text x="120.278" y="532.8" fill="#666" text-anchor="start" font-size="16.2">1200</text><text x="639.0799999999999" y="532.8" fill="#666" text-anchor="end" font-size="16.2">2020</text><text x="183.5" y="532.8" fill="#666" text-anchor="middle" font-size="16.2">1300</text><text x="246.8" y="532.8" fill="#666" text-anchor="middle" font-size="16.2">1400</text><text x="310.1" y="532.8" fill="#666" text-anchor="middle" font-size="16.2">1500</text><text x="373.4" y="532.8" fill="#666" text-anchor="middle" font-size="16.2">1600</text><text x="436.6" y="532.8" fill="#666" text-anchor="middle" font-size="16.2">1700</text><text x="499.9" y="532.8" fill="#666" text-anchor="middle" font-size="16.2">1800</text><text x="563.2" y="532.8" fill="#666" text-anchor="middle" font-size="16.2">1900</text></g><g class="VerticalAxis"><text x="115.28" y="511.6" dy=".32em" text-anchor="end" fill="#666" font-size="16.2">0 ha</text><text x="115.28" y="463.3" dy=".32em" text-anchor="end" fill="#666" font-size="16.2">200 million ha</text><text x="115.28" y="414.9" dy=".32em" text-anchor="end" fill="#666" font-size="16.2">400 million ha</text><text x="115.28" y="366.6" dy=".32em" text-anchor="end" fill="#666" font-size="16.2">600 million ha</text><text x="115.28" y="318.3" dy=".32em" text-anchor="end" fill="#666" font-size="16.2">800 million ha</text><text x="115.28" y="269.9" dy=".32em" text-anchor="end" fill="#666" font-size="16.2">1 billion ha</text><text x="115.28" y="221.6" dy=".32em" text-anchor="end" fill="#666" font-size="16.2">1.2 billion ha</text><text x="115.28" y="173.3" dy=".32em" text-anchor="end" fill="#666" font-size="16.2">1.4 billion ha</text><text x="115.28" y="124.9" dy=".32em" text-anchor="end" fill="#666" font-size="16.2">1.6 billion ha</text><text x="115.28" y="76.6" dy=".32em" text-anchor="end" fill="#666" font-size="16.2">1.8 billion ha</text></g><g class="AxisGridLines horizontalLines"><line x1="120.28" y1="511.6" x2="639.08" y2="511.6" stroke="#999"></line><line x1="120.28" y1="463.3" x2="639.08" y2="463.3" stroke="#ddd" stroke-dasharray="3,2"></line><line x1="120.28" y1="414.9" x2="639.08" y2="414.9" stroke="#ddd" stroke-dasharray="3,2"></line><line x1="120.28" y1="366.6" x2="639.08" y2="366.6" stroke="#ddd" stroke-dasharray="3,2"></line><line x1="120.28" y1="318.3" x2="639.08" y2="318.3" stroke="#ddd" stroke-dasharray="3,2"></line><line x1="120.28" y1="269.9" x2="639.08" y2="269.9" stroke="#ddd" stroke-dasharray="3,2"></line><line x1="120.28" y1="221.6" x2="639.08" y2="221.6" stroke="#ddd" stroke-dasharray="3,2"></line><line x1="120.28" y1="173.3" x2="639.08" y2="173.3" stroke="#ddd" stroke-dasharray="3,2"></line><line x1="120.28" y1="124.9" x2="639.08" y2="124.9" stroke="#ddd" stroke-dasharray="3,2"></line><line x1="120.28" y1="76.6" x2="639.08" y2="76.6" stroke="#ddd" stroke-dasharray="3,2"></line></g></g><g clip-path="url(#boundsClip-1)"><g class="LineLabels" style="cursor:default"><g class="legendMark"><rect x="639.0799999999999" y="111.25" width="195.92000000000002" height="13.5" fill="#fff" opacity="0"></rect><text font-size="13.50" font-weight="400" x="643.1" y="122.0" fill="#9a5129"><tspan x="643.0799999999999" y="122.05">HYDE3.2 (Goldewijk et al.)</tspan></text></g><g class="legendMark"><rect x="639.0799999999999" y="128.85" width="86.03" height="13.5" fill="#fff" opacity="0"></rect><text font-size="13.50" font-weight="400" x="643.1" y="139.7" fill="#97091d"><tspan x="643.0799999999999" y="139.65">UN FAO</tspan></text></g><g class="legendMark"><rect x="639.0799999999999" y="170.25" width="183.23000000000002" height="13.5" fill="#fff" opacity="0"></rect><text font-size="13.50" font-weight="400" x="643.1" y="181.1" fill="#3c4e66"><tspan x="643.0799999999999" y="181.05">Taylor and Rising (2021)</tspan></text></g></g><g class="Lines"><rect x="120" y="77" width="519" height="435" fill="rgba(255,255,255,0)" opacity="0"></rect><g><path stroke-linecap="round" stroke-linejoin="round" stroke="#ddd" d="M120.3 453.3L183.5 452.4L246.8 458.7L310.1 449.7L373.4 446.3L436.6 440.7L442.9 437.8L449.3 434.8L455.6 432L461.9 429.3L468.3 425.7L474.6 422.8L480.9 419.7L487.2 416.1L493.6 412.3L499.9 407.9L506.2 402.4L512.5 396.7L518.9 390L525.2 380.9L531.5 371.9L537.9 361.9L544.2 354.4L550.5 338.3L556.8 323.2L563.2 308.6L569.5 286.8L575.8 274.8L582.1 254.7L588.5 233.8L594.8 215.9L601.1 178.6L607.4 164.7L613.8 160.7L620.1 143.5L626.4 141.4L627.1 140.5L627.7 141.4L628.3 139.7L629 138.3L629.6 136.6L630.2 138.7L630.9 138.2L631.5 137.1L632.1 137.3L632.8 138L633.4 135.3L634 131L634.7 131.1L635.3 129.4L635.9 126.7L636.5 125.1L637.2 123.7L637.8 121.5L638.4 119.7L639.1 118" fill="none" stroke-width="1"></path></g><g><path stroke-linecap="round" stroke-linejoin="round" stroke="#ddd" d="M601.8 185.1L602.4 184.2L603 182.4L603.6 181.8L604.3 180.4L604.9 181.2L605.5 180.2L606.2 177.4L606.8 173.6L607.4 174.6L608.1 175.5L608.7 175.5L609.3 173.8L610 174.3L610.6 174.4L611.2 172.8L611.9 172.7L612.5 170.5L613.1 169.4L613.8 168.2L614.4 168.1L615 165.3L615.7 163.9L616.3 159.3L616.9 155.4L617.6 153.6L618.2 152.9L618.8 153.1L619.5 152.9L620.1 152.5L620.7 151.6L621.4 152.5L622 152.4L622.6 152.7L623.3 152.6L623.9 152.5L624.5 151.3L625.2 151.2L625.8 150.2L626.4 150.8L627.1 150.8L627.7 151.2L628.3 149.1L629 147.5L629.6 146.3L630.2 147.1L630.9 146.7L631.5 146.2L632.1 145.4L632.8 144.5L633.4 141.9L634 138.6L634.7 137.8L635.3 137.5L635.9 137.2L636.5 136.7L637.2 134.8L637.8 135.3L638.4 135.6" fill="none" stroke-width="1"></path></g><g><path stroke-linecap="round" stroke-linejoin="round" stroke="#ddd" d="M487.2 426L493.6 423L499.9 419.7L506.2 415.6L512.5 411L518.9 405.1L525.2 397.4L531.5 388.9L537.9 379.7L544.2 372.3L550.5 357L556.8 342L563.2 326.4L569.5 307.4L575.8 295.3L582.1 277.4L588.5 260.9L594.8 249.3L601.1 217.3L607.4 207.9L613.8 204L620.1 193.9L626.4 186.7L632.8 177" fill="none" stroke-width="1"></path></g><g><path fill="none" stroke-linecap="butt" stroke-linejoin="round" stroke="#fff" stroke-width="2.5" d="M120.3 453.3L183.5 452.4L246.8 458.7L310.1 449.7L373.4 446.3L436.6 440.7L442.9 437.8L449.3 434.8L455.6 432L461.9 429.3L468.3 425.7L474.6 422.8L480.9 419.7L487.2 416.1L493.6 412.3L499.9 407.9L506.2 402.4L512.5 396.7L518.9 390L525.2 380.9L531.5 371.9L537.9 361.9L544.2 354.4L550.5 338.3L556.8 323.2L563.2 308.6L569.5 286.8L575.8 274.8L582.1 254.7L588.5 233.8L594.8 215.9L601.1 178.6L607.4 164.7L613.8 160.7L620.1 143.5L626.4 141.4L627.1 140.5L627.7 141.4L628.3 139.7L629 138.3L629.6 136.6L630.2 138.7L630.9 138.2L631.5 137.1L632.1 137.3L632.8 138L633.4 135.3L634 131L634.7 131.1L635.3 129.4L635.9 126.7L636.5 125.1L637.2 123.7L637.8 121.5L638.4 119.7L639.1 118"></path><polyline points="120.30,453.30 183.50,452.40 246.80,458.70 310.10,449.70 373.40,446.30 436.60,440.70 442.90,437.80 449.30,434.80 455.60,432.00 461.90,429.30 468.30,425.70 474.60,422.80 480.90,419.70 487.20,416.10 493.60,412.30 499.90,407.90 506.20,402.40 512.50,396.70 518.90,390.00 525.20,380.90 531.50,371.90 537.90,361.90 544.20,354.40 550.50,338.30 556.80,323.20 563.20,308.60 569.50,286.80 575.80,274.80 582.10,254.70 588.50,233.80 594.80,215.90 601.10,178.60 607.40,164.70 613.80,160.70 620.10,143.50 626.40,141.40 627.10,140.50 627.70,141.40 628.30,139.70 629.00,138.30 629.60,136.60 630.20,138.70 630.90,138.20 631.50,137.10 632.10,137.30 632.80,138.00 633.40,135.30 634.00,131.00 634.70,131.10 635.30,129.40 635.90,126.70 636.50,125.10 637.20,123.70 637.80,121.50 638.40,119.70 639.10,118.00" stroke-linejoin="round" stroke-width="1.5" stroke="#9a5129" fill="none" stroke-linecap="butt"></polyline><g><circle cx="120.3" cy="453.3" r="1.8" fill="#9a5129"></circle><circle cx="183.5" cy="452.4" r="1.8" fill="#9a5129"></circle><circle cx="246.8" cy="458.7" r="1.8" fill="#9a5129"></circle><circle cx="310.1" cy="449.7" r="1.8" fill="#9a5129"></circle><circle cx="373.4" cy="446.3" r="1.8" fill="#9a5129"></circle><circle cx="436.6" cy="440.7" r="1.8" fill="#9a5129"></circle><circle cx="442.9" cy="437.8" r="1.8" fill="#9a5129"></circle><circle cx="449.3" cy="434.8" r="1.8" fill="#9a5129"></circle><circle cx="455.6" cy="432" r="1.8" fill="#9a5129"></circle><circle cx="461.9" cy="429.3" r="1.8" fill="#9a5129"></circle><circle cx="468.3" cy="425.7" r="1.8" fill="#9a5129"></circle><circle cx="474.6" cy="422.8" r="1.8" fill="#9a5129"></circle><circle cx="480.9" cy="419.7" r="1.8" fill="#9a5129"></circle><circle cx="487.2" cy="416.1" r="1.8" fill="#9a5129"></circle><circle cx="493.6" cy="412.3" r="1.8" fill="#9a5129"></circle><circle cx="499.9" cy="407.9" r="1.8" fill="#9a5129"></circle><circle cx="506.2" cy="402.4" r="1.8" fill="#9a5129"></circle><circle cx="512.5" cy="396.7" r="1.8" fill="#9a5129"></circle><circle cx="518.9" cy="390" r="1.8" fill="#9a5129"></circle><circle cx="525.2" cy="380.9" r="1.8" fill="#9a5129"></circle><circle cx="531.5" cy="371.9" r="1.8" fill="#9a5129"></circle><circle cx="537.9" cy="361.9" r="1.8" fill="#9a5129"></circle><circle cx="544.2" cy="354.4" r="1.8" fill="#9a5129"></circle><circle cx="550.5" cy="338.3" r="1.8" fill="#9a5129"></circle><circle cx="556.8" cy="323.2" r="1.8" fill="#9a5129"></circle><circle cx="563.2" cy="308.6" r="1.8" fill="#9a5129"></circle><circle cx="569.5" cy="286.8" r="1.8" fill="#9a5129"></circle><circle cx="575.8" cy="274.8" r="1.8" fill="#9a5129"></circle><circle cx="582.1" cy="254.7" r="1.8" fill="#9a5129"></circle><circle cx="588.5" cy="233.8" r="1.8" fill="#9a5129"></circle><circle cx="594.8" cy="215.9" r="1.8" fill="#9a5129"></circle><circle cx="601.1" cy="178.6" r="1.8" fill="#9a5129"></circle><circle cx="607.4" cy="164.7" r="1.8" fill="#9a5129"></circle><circle cx="613.8" cy="160.7" r="1.8" fill="#9a5129"></circle><circle cx="620.1" cy="143.5" r="1.8" fill="#9a5129"></circle><circle cx="626.4" cy="141.4" r="1.8" fill="#9a5129"></circle><circle cx="627.1" cy="140.5" r="1.8" fill="#9a5129"></circle><circle cx="627.7" cy="141.4" r="1.8" fill="#9a5129"></circle><circle cx="628.3" cy="139.7" r="1.8" fill="#9a5129"></circle><circle cx="629" cy="138.3" r="1.8" fill="#9a5129"></circle><circle cx="629.6" cy="136.6" r="1.8" fill="#9a5129"></circle><circle cx="630.2" cy="138.7" r="1.8" fill="#9a5129"></circle><circle cx="630.9" cy="138.2" r="1.8" fill="#9a5129"></circle><circle cx="631.5" cy="137.1" r="1.8" fill="#9a5129"></circle><circle cx="632.1" cy="137.3" r="1.8" fill="#9a5129"></circle><circle cx="632.8" cy="138" r="1.8" fill="#9a5129"></circle><circle cx="633.4" cy="135.3" r="1.8" fill="#9a5129"></circle><circle cx="634" cy="131" r="1.8" fill="#9a5129"></circle><circle cx="634.7" cy="131.1" r="1.8" fill="#9a5129"></circle><circle cx="635.3" cy="129.4" r="1.8" fill="#9a5129"></circle><circle cx="635.9" cy="126.7" r="1.8" fill="#9a5129"></circle><circle cx="636.5" cy="125.1" r="1.8" fill="#9a5129"></circle><circle cx="637.2" cy="123.7" r="1.8" fill="#9a5129"></circle><circle cx="637.8" cy="121.5" r="1.8" fill="#9a5129"></circle><circle cx="638.4" cy="119.7" r="1.8" fill="#9a5129"></circle><circle cx="639.1" cy="118" r="1.8" fill="#9a5129"></circle></g></g><g><path fill="none" stroke-linecap="butt" stroke-linejoin="round" stroke="#fff" stroke-width="2.5" d="M601.8 185.1L602.4 184.2L603 182.4L603.6 181.8L604.3 180.4L604.9 181.2L605.5 180.2L606.2 177.4L606.8 173.6L607.4 174.6L608.1 175.5L608.7 175.5L609.3 173.8L610 174.3L610.6 174.4L611.2 172.8L611.9 172.7L612.5 170.5L613.1 169.4L613.8 168.2L614.4 168.1L615 165.3L615.7 163.9L616.3 159.3L616.9 155.4L617.6 153.6L618.2 152.9L618.8 153.1L619.5 152.9L620.1 152.5L620.7 151.6L621.4 152.5L622 152.4L622.6 152.7L623.3 152.6L623.9 152.5L624.5 151.3L625.2 151.2L625.8 150.2L626.4 150.8L627.1 150.8L627.7 151.2L628.3 149.1L629 147.5L629.6 146.3L630.2 147.1L630.9 146.7L631.5 146.2L632.1 145.4L632.8 144.5L633.4 141.9L634 138.6L634.7 137.8L635.3 137.5L635.9 137.2L636.5 136.7L637.2 134.8L637.8 135.3L638.4 135.6"></path><polyline points="601.80,185.10 602.40,184.20 603.00,182.40 603.60,181.80 604.30,180.40 604.90,181.20 605.50,180.20 606.20,177.40 606.80,173.60 607.40,174.60 608.10,175.50 608.70,175.50 609.30,173.80 610.00,174.30 610.60,174.40 611.20,172.80 611.90,172.70 612.50,170.50 613.10,169.40 613.80,168.20 614.40,168.10 615.00,165.30 615.70,163.90 616.30,159.30 616.90,155.40 617.60,153.60 618.20,152.90 618.80,153.10 619.50,152.90 620.10,152.50 620.70,151.60 621.40,152.50 622.00,152.40 622.60,152.70 623.30,152.60 623.90,152.50 624.50,151.30 625.20,151.20 625.80,150.20 626.40,150.80 627.10,150.80 627.70,151.20 628.30,149.10 629.00,147.50 629.60,146.30 630.20,147.10 630.90,146.70 631.50,146.20 632.10,145.40 632.80,144.50 633.40,141.90 634.00,138.60 634.70,137.80 635.30,137.50 635.90,137.20 636.50,136.70 637.20,134.80 637.80,135.30 638.40,135.60" stroke-linejoin="round" stroke-width="1.5" stroke="#97091d" fill="none" stroke-linecap="butt"></polyline><g><circle cx="601.8" cy="185.1" r="1.8" fill="#97091d"></circle><circle cx="602.4" cy="184.2" r="1.8" fill="#97091d"></circle><circle cx="603" cy="182.4" r="1.8" fill="#97091d"></circle><circle cx="603.6" cy="181.8" r="1.8" fill="#97091d"></circle><circle cx="604.3" cy="180.4" r="1.8" fill="#97091d"></circle><circle cx="604.9" cy="181.2" r="1.8" fill="#97091d"></circle><circle cx="605.5" cy="180.2" r="1.8" fill="#97091d"></circle><circle cx="606.2" cy="177.4" r="1.8" fill="#97091d"></circle><circle cx="606.8" cy="173.6" r="1.8" fill="#97091d"></circle><circle cx="607.4" cy="174.6" r="1.8" fill="#97091d"></circle><circle cx="608.1" cy="175.5" r="1.8" fill="#97091d"></circle><circle cx="608.7" cy="175.5" r="1.8" fill="#97091d"></circle><circle cx="609.3" cy="173.8" r="1.8" fill="#97091d"></circle><circle cx="610" cy="174.3" r="1.8" fill="#97091d"></circle><circle cx="610.6" cy="174.4" r="1.8" fill="#97091d"></circle><circle cx="611.2" cy="172.8" r="1.8" fill="#97091d"></circle><circle cx="611.9" cy="172.7" r="1.8" fill="#97091d"></circle><circle cx="612.5" cy="170.5" r="1.8" fill="#97091d"></circle><circle cx="613.1" cy="169.4" r="1.8" fill="#97091d"></circle><circle cx="613.8" cy="168.2" r="1.8" fill="#97091d"></circle><circle cx="614.4" cy="168.1" r="1.8" fill="#97091d"></circle><circle cx="615" cy="165.3" r="1.8" fill="#97091d"></circle><circle cx="615.7" cy="163.9" r="1.8" fill="#97091d"></circle><circle cx="616.3" cy="159.3" r="1.8" fill="#97091d"></circle><circle cx="616.9" cy="155.4" r="1.8" fill="#97091d"></circle><circle cx="617.6" cy="153.6" r="1.8" fill="#97091d"></circle><circle cx="618.2" cy="152.9" r="1.8" fill="#97091d"></circle><circle cx="618.8" cy="153.1" r="1.8" fill="#97091d"></circle><circle cx="619.5" cy="152.9" r="1.8" fill="#97091d"></circle><circle cx="620.1" cy="152.5" r="1.8" fill="#97091d"></circle><circle cx="620.7" cy="151.6" r="1.8" fill="#97091d"></circle><circle cx="621.4" cy="152.5" r="1.8" fill="#97091d"></circle><circle cx="622" cy="152.4" r="1.8" fill="#97091d"></circle><circle cx="622.6" cy="152.7" r="1.8" fill="#97091d"></circle><circle cx="623.3" cy="152.6" r="1.8" fill="#97091d"></circle><circle cx="623.9" cy="152.5" r="1.8" fill="#97091d"></circle><circle cx="624.5" cy="151.3" r="1.8" fill="#97091d"></circle><circle cx="625.2" cy="151.2" r="1.8" fill="#97091d"></circle><circle cx="625.8" cy="150.2" r="1.8" fill="#97091d"></circle><circle cx="626.4" cy="150.8" r="1.8" fill="#97091d"></circle><circle cx="627.1" cy="150.8" r="1.8" fill="#97091d"></circle><circle cx="627.7" cy="151.2" r="1.8" fill="#97091d"></circle><circle cx="628.3" cy="149.1" r="1.8" fill="#97091d"></circle><circle cx="629" cy="147.5" r="1.8" fill="#97091d"></circle><circle cx="629.6" cy="146.3" r="1.8" fill="#97091d"></circle><circle cx="630.2" cy="147.1" r="1.8" fill="#97091d"></circle><circle cx="630.9" cy="146.7" r="1.8" fill="#97091d"></circle><circle cx="631.5" cy="146.2" r="1.8" fill="#97091d"></circle><circle cx="632.1" cy="145.4" r="1.8" fill="#97091d"></circle><circle cx="632.8" cy="144.5" r="1.8" fill="#97091d"></circle><circle cx="633.4" cy="141.9" r="1.8" fill="#97091d"></circle><circle cx="634" cy="138.6" r="1.8" fill="#97091d"></circle><circle cx="634.7" cy="137.8" r="1.8" fill="#97091d"></circle><circle cx="635.3" cy="137.5" r="1.8" fill="#97091d"></circle><circle cx="635.9" cy="137.2" r="1.8" fill="#97091d"></circle><circle cx="636.5" cy="136.7" r="1.8" fill="#97091d"></circle><circle cx="637.2" cy="134.8" r="1.8" fill="#97091d"></circle><circle cx="637.8" cy="135.3" r="1.8" fill="#97091d"></circle><circle cx="638.4" cy="135.6" r="1.8" fill="#97091d"></circle></g></g><g><path fill="none" stroke-linecap="butt" stroke-linejoin="round" stroke="#fff" stroke-width="2.5" d="M487.2 426L493.6 423L499.9 419.7L506.2 415.6L512.5 411L518.9 405.1L525.2 397.4L531.5 388.9L537.9 379.7L544.2 372.3L550.5 357L556.8 342L563.2 326.4L569.5 307.4L575.8 295.3L582.1 277.4L588.5 260.9L594.8 249.3L601.1 217.3L607.4 207.9L613.8 204L620.1 193.9L626.4 186.7L632.8 177"></path><polyline points="487.20,426.00 493.60,423.00 499.90,419.70 506.20,415.60 512.50,411.00 518.90,405.10 525.20,397.40 531.50,388.90 537.90,379.70 544.20,372.30 550.50,357.00 556.80,342.00 563.20,326.40 569.50,307.40 575.80,295.30 582.10,277.40 588.50,260.90 594.80,249.30 601.10,217.30 607.40,207.90 613.80,204.00 620.10,193.90 626.40,186.70 632.80,177.00" stroke-linejoin="round" stroke-width="1.5" stroke="#3c4e66" fill="none" stroke-linecap="butt"></polyline><g><circle cx="487.2" cy="426" r="1.8" fill="#3c4e66"></circle><circle cx="493.6" cy="423" r="1.8" fill="#3c4e66"></circle><circle cx="499.9" cy="419.7" r="1.8" fill="#3c4e66"></circle><circle cx="506.2" cy="415.6" r="1.8" fill="#3c4e66"></circle><circle cx="512.5" cy="411" r="1.8" fill="#3c4e66"></circle><circle cx="518.9" cy="405.1" r="1.8" fill="#3c4e66"></circle><circle cx="525.2" cy="397.4" r="1.8" fill="#3c4e66"></circle><circle cx="531.5" cy="388.9" r="1.8" fill="#3c4e66"></circle><circle cx="537.9" cy="379.7" r="1.8" fill="#3c4e66"></circle><circle cx="544.2" cy="372.3" r="1.8" fill="#3c4e66"></circle><circle cx="550.5" cy="357" r="1.8" fill="#3c4e66"></circle><circle cx="556.8" cy="342" r="1.8" fill="#3c4e66"></circle><circle cx="563.2" cy="326.4" r="1.8" fill="#3c4e66"></circle><circle cx="569.5" cy="307.4" r="1.8" fill="#3c4e66"></circle><circle cx="575.8" cy="295.3" r="1.8" fill="#3c4e66"></circle><circle cx="582.1" cy="277.4" r="1.8" fill="#3c4e66"></circle><circle cx="588.5" cy="260.9" r="1.8" fill="#3c4e66"></circle><circle cx="594.8" cy="249.3" r="1.8" fill="#3c4e66"></circle><circle cx="601.1" cy="217.3" r="1.8" fill="#3c4e66"></circle><circle cx="607.4" cy="207.9" r="1.8" fill="#3c4e66"></circle><circle cx="613.8" cy="204" r="1.8" fill="#3c4e66"></circle><circle cx="620.1" cy="193.9" r="1.8" fill="#3c4e66"></circle><circle cx="626.4" cy="186.7" r="1.8" fill="#3c4e66"></circle><circle cx="632.8" cy="177" r="1.8" fill="#3c4e66"></circle></g></g></g></g></g><g class="SourcesFooter" style="fill:#777"><g style="fill:#777"><text font-size="12.60" x="15.0" y="567.9"><tspan x="15" y="567.88">Source: Taylor &amp; Rising (2021); Food and Agriculture Organization of the United Nation; Goldewijk et al. (2017)</tspan></text></g><text font-size="12.60" x="15.0" y="582.5"><tspan x="15" y="582.48"><a target='_blank' style='fill: #777;' href='https://ourworldindata.org/land-use'>OurWorldInData.org/land-use</a> • <a style="fill: #777;" class="cclogo" href="http://creativecommons.org/licenses/by/4.0/deed.en_US" target="_blank">CC BY</a></tspan></text></g></svg>