<svg xmlns="http://www.w3.org/2000/svg" version="1.1" style="font-family:Lato, &#x27;Helvetica Neue&#x27;, Helvetica, Arial, &#x27;Liberation Sans&#x27;, sans-serif;font-size:18px;background-color:white;text-rendering:geometricPrecision;-webkit-font-smoothing:antialiased" width="850" height="600" viewBox="0 0 850 600"><defs><style>@import url(https://ourworldindata.org/fonts.css)</style></defs><defs><pattern id="noDataPattern" patternUnits="userSpaceOnUse" width="4" height="4" patternTransform="rotate(-45 2 2)"><path d="M -1,2 l 6,0" stroke="#ccc" stroke-width="0.7"></path></pattern></defs><rect class="background-fill" fill="white" width="850" height="600"></rect><g id="header" class="HeaderView"><g id="logo" transform="translate(769, 16) scale(1)"><svg className="owidLogo" xmlns="http://www.w3.org/2000/svg" width="65" height="36" viewBox="0 0 65 36"  fill="none"><path fill="#002147" d="M0 0h64.8v36H0z"/><path fill="#CE261E" d="M0 33.3h64.8V36H0z"/><path fill="#fff" d="M13.796 10.575c0 .636-.106 1.226-.318 1.77a4.193 4.193 0 0 1-.894 1.404 4.084 4.084 0 0 1-1.386.93c-.54.22-1.138.33-1.794.33-.656 0-1.256-.11-1.8-.33a4.149 4.149 0 0 1-1.392-.93 4.193 4.193 0 0 1-.894-1.404A4.833 4.833 0 0 1 5 10.575c0-.636.106-1.224.318-1.764a4.18 4.18 0 0 1 .894-1.41 4.076 4.076 0 0 1 1.392-.924 4.684 4.684 0 0 1 1.8-.336c.656 0 1.254.112 1.794.336.54.224 1.002.534 1.386.93.384.392.682.86.894 1.404.212.54.318 1.128.318 1.764Zm-1.656 0c0-.476-.064-.902-.192-1.278a2.671 2.671 0 0 0-.54-.966 2.332 2.332 0 0 0-.864-.606 2.94 2.94 0 0 0-1.14-.21c-.424 0-.806.07-1.146.21-.34.14-.63.342-.87.606a2.742 2.742 0 0 0-.546.966 3.955 3.955 0 0 0-.192 1.278c0 .476.064.904.192 1.284.128.376.31.696.546.96.24.26.53.46.87.6.34.14.722.21 1.146.21.424 0 .804-.07 1.14-.21.34-.14.628-.34.864-.6.236-.264.416-.584.54-.96a4.01 4.01 0 0 0 .192-1.284ZM16.104 8.757v3.912c0 .376.086.668.258.876.176.204.438.306.786.306.256 0 .496-.056.72-.168a2.58 2.58 0 0 0 .636-.474V8.757h1.482v6.156h-.906c-.192 0-.318-.09-.378-.27l-.102-.492a4.65 4.65 0 0 1-.396.354 2.577 2.577 0 0 1-.438.27 2.35 2.35 0 0 1-.498.168 2.345 2.345 0 0 1-.57.066c-.336 0-.634-.056-.894-.168a1.821 1.821 0 0 1-.648-.486 2.157 2.157 0 0 1-.402-.738 3.233 3.233 0 0 1-.132-.948V8.757h1.482ZM21.328 14.913V8.757h.87c.152 0 .258.028.318.084.06.056.1.152.12.288l.09.744c.22-.38.478-.68.774-.9.296-.22.628-.33.996-.33.304 0 .556.07.756.21l-.192 1.11c-.012.072-.038.124-.078.156a.278.278 0 0 1-.162.042 1.01 1.01 0 0 1-.246-.042 1.646 1.646 0 0 0-.414-.042c-.308 0-.572.086-.792.258-.22.168-.406.416-.558.744v3.834h-1.482ZM27.347 6.237h1.356a.57.57 0 0 1 .348.102c.096.064.16.152.192.264l1.476 5.19c.036.128.068.268.096.42.032.148.062.306.09.474a5.968 5.968 0 0 1 .228-.894l1.704-5.19a.575.575 0 0 1 .186-.252.543.543 0 0 1 .348-.114h.474a.57.57 0 0 1 .348.102.497.497 0 0 1 .192.264l1.692 5.19c.088.256.164.54.228.852.028-.156.056-.306.084-.45.032-.144.064-.278.096-.402l1.476-5.19c.028-.1.09-.186.186-.258a.563.563 0 0 1 .348-.108h1.266l-2.694 8.676h-1.458l-1.896-5.928-.078-.246a9.504 9.504 0 0 1-.072-.282c-.024.1-.05.194-.078.282-.024.088-.048.17-.072.246l-1.914 5.928H30.04l-2.694-8.676ZM42.771 8.661c.46 0 .876.074 1.248.222.376.148.696.358.96.63s.468.604.612.996c.144.392.216.83.216 1.314 0 .488-.072.928-.216 1.32a2.85 2.85 0 0 1-.612 1.002 2.653 2.653 0 0 1-.96.636 3.35 3.35 0 0 1-1.248.222c-.46 0-.878-.074-1.254-.222a2.712 2.712 0 0 1-.966-.636 2.922 2.922 0 0 1-.618-1.002 3.807 3.807 0 0 1-.216-1.32c0-.484.072-.922.216-1.314.148-.392.354-.724.618-.996.268-.272.59-.482.966-.63a3.397 3.397 0 0 1 1.254-.222Zm0 5.202c.512 0 .89-.172 1.134-.516.248-.344.372-.848.372-1.512s-.124-1.17-.372-1.518c-.244-.348-.622-.522-1.134-.522-.52 0-.904.176-1.152.528-.248.348-.372.852-.372 1.512s.124 1.164.372 1.512c.248.344.632.516 1.152.516ZM46.723 14.913V8.757h.87c.152 0 .258.028.318.084.06.056.1.152.12.288l.09.744c.22-.38.478-.68.774-.9.296-.22.628-.33.996-.33.304 0 .556.07.756.21l-.192 1.11c-.012.072-.038.124-.078.156a.278.278 0 0 1-.162.042 1.01 1.01 0 0 1-.246-.042 1.646 1.646 0 0 0-.414-.042c-.308 0-.572.086-.792.258-.22.168-.406.416-.558.744v3.834h-1.482ZM52.96 5.997v8.916h-1.482V5.997h1.482ZM58.732 14.913c-.192 0-.318-.09-.378-.27l-.12-.594a3.68 3.68 0 0 1-.402.39c-.14.116-.292.216-.456.3-.16.084-.334.148-.522.192a2.372 2.372 0 0 1-.6.072c-.336 0-.644-.07-.924-.21a2.098 2.098 0 0 1-.726-.606 3.033 3.033 0 0 1-.468-.99 5.072 5.072 0 0 1-.162-1.344c0-.456.062-.88.186-1.272s.302-.732.534-1.02c.232-.288.51-.512.834-.672a2.384 2.384 0 0 1 1.092-.246 2.103 2.103 0 0 1 1.536.606V5.997h1.482v8.916h-.906Zm-1.974-1.086c.308 0 .57-.064.786-.192.216-.128.42-.31.612-.546v-2.76a1.452 1.452 0 0 0-.552-.432 1.597 1.597 0 0 0-.636-.126c-.224 0-.428.042-.612.126a1.21 1.21 0 0 0-.462.384c-.124.168-.22.384-.288.648-.068.26-.102.568-.102.924 0 .36.028.666.084.918.06.248.144.452.252.612.108.156.24.27.396.342.156.068.33.102.522.102ZM16.331 20.757v6.156H14.85v-6.156h1.481Zm.223-1.794a.844.844 0 0 1-.078.36.963.963 0 0 1-.21.294.995.995 0 0 1-.3.204.963.963 0 0 1-.372.072.948.948 0 0 1-.367-.072 1.018 1.018 0 0 1-.498-.498.963.963 0 0 1 0-.732.995.995 0 0 1 .205-.3.929.929 0 0 1 .293-.198.899.899 0 0 1 .738 0 .912.912 0 0 1 .3.198.943.943 0 0 1 .288.672ZM17.771 26.913v-6.156h.906c.192 0 .318.09.378.27l.102.486a2.934 2.934 0 0 1 .828-.618c.156-.076.322-.134.498-.174.176-.04.368-.06.576-.06.336 0 .634.058.894.174.26.112.476.272.648.48.176.204.308.45.396.738.092.284.138.598.138.942v3.918h-1.482v-3.918c0-.376-.088-.666-.264-.87-.172-.208-.432-.312-.78-.312-.256 0-.496.058-.72.174a2.58 2.58 0 0 0-.636.474v4.452h-1.482ZM34.22 22.575c0 .636-.106 1.22-.318 1.752-.212.532-.51.99-.894 1.374a4 4 0 0 1-1.386.894 4.87 4.87 0 0 1-1.794.318h-3.312v-8.676h3.312a4.79 4.79 0 0 1 1.794.324 4 4 0 0 1 1.386.894c.384.38.682.836.894 1.368.212.532.318 1.116.318 1.752Zm-1.65 0c0-.476-.064-.902-.192-1.278a2.68 2.68 0 0 0-.546-.96 2.332 2.332 0 0 0-.864-.606 2.94 2.94 0 0 0-1.14-.21h-1.686v6.108h1.686c.424 0 .804-.07 1.14-.21.34-.14.628-.34.864-.6a2.75 2.75 0 0 0 .546-.96 4.01 4.01 0 0 0 .192-1.284ZM39.98 26.913h-.665c-.14 0-.25-.02-.33-.06-.08-.044-.14-.13-.18-.258l-.132-.438c-.156.14-.31.264-.462.372a2.804 2.804 0 0 1-.462.264c-.16.072-.33.126-.51.162-.18.036-.38.054-.6.054-.26 0-.5-.034-.72-.102a1.618 1.618 0 0 1-.57-.318 1.448 1.448 0 0 1-.366-.522 1.852 1.852 0 0 1-.132-.726c0-.232.06-.46.18-.684.124-.228.328-.432.612-.612.284-.184.662-.336 1.134-.456.472-.12 1.058-.188 1.758-.204v-.36c0-.412-.088-.716-.264-.912-.172-.2-.424-.3-.756-.3a1.837 1.837 0 0 0-1.02.276c-.116.068-.224.13-.324.186a.664.664 0 0 1-.33.084.429.429 0 0 1-.258-.078.614.614 0 0 1-.174-.192l-.27-.474c.708-.648 1.562-.972 2.562-.972.36 0 .68.06.96.18.284.116.524.28.72.492.196.208.344.458.444.75.104.292.156.612.156.96v3.888Zm-2.88-.924c.153 0 .293-.014.42-.042.129-.028.249-.07.36-.126.117-.056.227-.124.33-.204.109-.084.217-.182.325-.294v-1.038c-.432.02-.794.058-1.086.114-.288.052-.52.12-.696.204a.923.923 0 0 0-.378.294.664.664 0 0 0-.108.366c0 .26.076.446.228.558.156.112.358.168.606.168ZM43.22 27.01c-.532 0-.942-.15-1.23-.45-.288-.305-.432-.723-.432-1.255v-3.438h-.624a.31.31 0 0 1-.21-.078c-.056-.052-.084-.13-.084-.234v-.588l.99-.162.312-1.68a.302.302 0 0 1 .108-.186.365.365 0 0 1 .222-.066h.768v1.938h1.62v1.056h-1.62v3.336c0 .192.048.342.144.45a.488.488 0 0 0 .384.162c.092 0 .168-.01.228-.03.064-.024.118-.048.162-.072.048-.024.09-.046.126-.066a.194.194 0 0 1 .108-.036.16.16 0 0 1 .108.036c.028.02.058.052.09.096l.444.72c-.216.18-.464.316-.744.408a2.77 2.77 0 0 1-.87.138ZM50.423 26.913h-.666c-.14 0-.25-.02-.33-.06-.08-.044-.14-.13-.18-.258l-.132-.438c-.156.14-.31.264-.462.372a2.804 2.804 0 0 1-.462.264c-.16.072-.33.126-.51.162-.18.036-.38.054-.6.054-.26 0-.5-.034-.72-.102a1.618 1.618 0 0 1-.57-.318 1.448 1.448 0 0 1-.366-.522 1.852 1.852 0 0 1-.132-.726c0-.232.06-.46.18-.684.124-.228.328-.432.612-.612.284-.184.662-.336 1.134-.456.472-.12 1.058-.188 1.758-.204v-.36c0-.412-.088-.716-.264-.912-.172-.2-.424-.3-.756-.3a1.837 1.837 0 0 0-1.02.276c-.116.068-.224.13-.324.186a.664.664 0 0 1-.33.084.429.429 0 0 1-.258-.078.614.614 0 0 1-.174-.192l-.27-.474c.708-.648 1.562-.972 2.562-.972.36 0 .68.06.96.18.284.116.524.28.72.492.196.208.344.458.444.75.104.292.156.612.156.96v3.888Zm-2.88-.924c.152 0 .292-.014.42-.042.128-.028.248-.07.36-.126.116-.056.226-.124.33-.204.108-.084.216-.182.324-.294v-1.038c-.432.02-.794.058-1.086.114-.288.052-.52.12-.696.204a.923.923 0 0 0-.378.294.664.664 0 0 0-.108.366c0 .26.076.446.228.558.156.112.358.168.606.168Z"/></svg></g><a id="title" href="https://ourworldindata.org/grapher/global-cropland" style="font-family:&#x27;Playfair Display&#x27;, Georgia, &#x27;Times New Roman&#x27;, &#x27;Liberation Serif&#x27;, serif" target="_blank" rel="noopener"><text font-size="24.75" font-weight="600" x="16.0" y="40.0" fill="#5b5b5b"><tspan x="16" y="40.0075">Global cropland is still increasing, World</tspan></text></a><g id="subtitle" class="markdown-text-wrap"><text x="16.0" y="63.9" style="font-size:14.625px;line-height:1.2" fill="#5b5b5b"><tspan x="16" y="63.9">Cropland is land used to grow crops, excluding pasture used for livestock grazing.</tspan></text></g></g><g id="chart-area" style="pointer-events:none"><g id="line-chart" class="LineChart"><defs><clipPath id="boundsClip-1"><rect x="94.56500000000001" y="73.25" width="838" height="470.35"></rect></clipPath></defs><rect x="16" y="83.25" width="818" height="450.35" fill="none"></rect><g id="dual-axis" class="DualAxisView"><g id="horizontal-axis" class="HorizontalAxis"><g id="tick__1200"><line x1="104.6" y1="512.6" x2="104.6" y2="518.1" stroke="#999" stroke-width="1"></line><text x="104.56500000000001" y="531.6" fill="#5b5b5b" text-anchor="start" font-size="13.5">1200</text></g><g id="tick__2023"><line x1="634.3" y1="512.6" x2="634.3" y2="518.1" stroke="#999" stroke-width="1"></line><text x="634.3" y="531.6" fill="#5b5b5b" text-anchor="end" font-size="13.5">2023</text></g><g id="tick__1300"><line x1="168.9" y1="512.6" x2="168.9" y2="518.1" stroke="#999" stroke-width="1"></line><text x="168.9" y="531.6" fill="#5b5b5b" text-anchor="middle" font-size="13.5">1300</text></g><g id="tick__1400"><line x1="233.3" y1="512.6" x2="233.3" y2="518.1" stroke="#999" stroke-width="1"></line><text x="233.3" y="531.6" fill="#5b5b5b" text-anchor="middle" font-size="13.5">1400</text></g><g id="tick__1500"><line x1="297.7" y1="512.6" x2="297.7" y2="518.1" stroke="#999" stroke-width="1"></line><text x="297.7" y="531.6" fill="#5b5b5b" text-anchor="middle" font-size="13.5">1500</text></g><g id="tick__1600"><line x1="362" y1="512.6" x2="362" y2="518.1" stroke="#999" stroke-width="1"></line><text x="362" y="531.6" fill="#5b5b5b" text-anchor="middle" font-size="13.5">1600</text></g><g id="tick__1700"><line x1="426.4" y1="512.6" x2="426.4" y2="518.1" stroke="#999" stroke-width="1"></line><text x="426.4" y="531.6" fill="#5b5b5b" text-anchor="middle" font-size="13.5">1700</text></g><g id="tick__1800"><line x1="490.8" y1="512.6" x2="490.8" y2="518.1" stroke="#999" stroke-width="1"></line><text x="490.8" y="531.6" fill="#5b5b5b" text-anchor="middle" font-size="13.5">1800</text></g><g id="tick__1900"><line x1="555.1" y1="512.6" x2="555.1" y2="518.1" stroke="#999" stroke-width="1"></line><text x="555.1" y="531.6" fill="#5b5b5b" text-anchor="middle" font-size="13.5">1900</text></g></g><g id="vertical-axis" class="VerticalAxis"><g id="tick-labels"><text id="tick-label__0-ha" x="99.57" y="513.1" dy=".32em" text-anchor="end" fill="#5b5b5b" font-size="13.5">0 ha</text><text id="tick-label__200-million-ha" x="99.57" y="466" dy=".32em" text-anchor="end" fill="#5b5b5b" font-size="13.5">200 million ha</text><text id="tick-label__400-million-ha" x="99.57" y="418.9" dy=".32em" text-anchor="end" fill="#5b5b5b" font-size="13.5">400 million ha</text><text id="tick-label__600-million-ha" x="99.57" y="371.8" dy=".32em" text-anchor="end" fill="#5b5b5b" font-size="13.5">600 million ha</text><text id="tick-label__800-million-ha" x="99.57" y="324.7" dy=".32em" text-anchor="end" fill="#5b5b5b" font-size="13.5">800 million ha</text><text id="tick-label__1-billion-ha" x="99.57" y="277.6" dy=".32em" text-anchor="end" fill="#5b5b5b" font-size="13.5">1 billion ha</text><text id="tick-label__1__002e2-billion-ha" x="99.57" y="230.5" dy=".32em" text-anchor="end" fill="#5b5b5b" font-size="13.5">1.2 billion ha</text><text id="tick-label__1__002e4-billion-ha" x="99.57" y="183.4" dy=".32em" text-anchor="end" fill="#5b5b5b" font-size="13.5">1.4 billion ha</text><text id="tick-label__1__002e6-billion-ha" x="99.57" y="136.3" dy=".32em" text-anchor="end" fill="#5b5b5b" font-size="13.5">1.6 billion ha</text><text id="tick-label__1__002e8-billion-ha" x="99.57" y="89.3" dy=".32em" text-anchor="end" fill="#5b5b5b" font-size="13.5">1.8 billion ha</text></g></g><g id="horizontal-grid-lines" class="AxisGridLines horizontalLines"><line id="grid-line__0" x1="104.57" y1="513.1" x2="634.30" y2="513.1" stroke="#999" stroke-width="1"></line><line id="grid-line__200000000" x1="104.57" y1="466" x2="634.30" y2="466" stroke="#ddd" stroke-width="1" stroke-dasharray="3,2"></line><line id="grid-line__400000000" x1="104.57" y1="418.9" x2="634.30" y2="418.9" stroke="#ddd" stroke-width="1" stroke-dasharray="3,2"></line><line id="grid-line__600000000" x1="104.57" y1="371.8" x2="634.30" y2="371.8" stroke="#ddd" stroke-width="1" stroke-dasharray="3,2"></line><line id="grid-line__800000000" x1="104.57" y1="324.7" x2="634.30" y2="324.7" stroke="#ddd" stroke-width="1" stroke-dasharray="3,2"></line><line id="grid-line__1000000000" x1="104.57" y1="277.6" x2="634.30" y2="277.6" stroke="#ddd" stroke-width="1" stroke-dasharray="3,2"></line><line id="grid-line__1200000000" x1="104.57" y1="230.5" x2="634.30" y2="230.5" stroke="#ddd" stroke-width="1" stroke-dasharray="3,2"></line><line id="grid-line__1400000000" x1="104.57" y1="183.4" x2="634.30" y2="183.4" stroke="#ddd" stroke-width="1" stroke-dasharray="3,2"></line><line id="grid-line__1600000000" x1="104.57" y1="136.3" x2="634.30" y2="136.3" stroke="#ddd" stroke-width="1" stroke-dasharray="3,2"></line><line id="grid-line__1800000000" x1="104.57" y1="89.3" x2="634.30" y2="89.3" stroke="#ddd" stroke-width="1" stroke-dasharray="3,2"></line></g></g><g clip-path="url(#boundsClip-1)"><g id="line-labels" class="LineLabels"><g id="mark__HYDE-3__002e3-__0028Goldewijk-et-al__002e__0029" class="legendMark" style="cursor:default"><rect id="background" x="634.3" y="121.1" width="199.70000000000002" height="13.5" fill="#fff" opacity="0"></rect><text id="label" font-size="13.50" font-weight="400" x="638.3" y="132.8" fill="#9a5129"><tspan x="638.3" y="132.845">HYDE 3.3 (Goldewijk et al.)</tspan></text></g><g id="mark__UN-FAO" class="legendMark" style="cursor:default"><rect id="background" x="634.3" y="136.6" width="86.03" height="13.5" fill="#fff" opacity="0"></rect><text id="label" font-size="13.50" font-weight="400" x="638.3" y="148.3" fill="#97091d"><tspan x="638.3" y="148.345">UN FAO</tspan></text></g><g id="mark__Taylor-and-Rising-__00282021__0029" class="legendMark" style="cursor:default"><rect id="background" x="634.3" y="180.35" width="183.23000000000002" height="13.5" fill="#fff" opacity="0"></rect><text id="label" font-size="13.50" font-weight="400" x="638.3" y="192.1" fill="#3c4e66"><tspan x="638.3" y="192.095">Taylor and Rising (2021)</tspan></text></g></g><g id="lines" class="Lines"><rect x="105" y="89" width="530" height="424" fill="rgba(255,255,255,0)" opacity="0"></rect><g id="line__HYDE-3__002e3-__0028Goldewijk-et-al__002e__0029"><path stroke-linecap="round" stroke-linejoin="round" stroke="#ddd" d="M104.6 450.3L168.9 449.5L233.3 455.1L297.7 446.6L362 442.7L426.4 435.7L432.8 432.4L439.3 429L445.7 425.8L452.1 422.7L458.6 419.5L465 416.3L471.5 413L477.9 409.3L484.3 405.3L490.8 400.8L497.2 395.4L503.6 389.5L510.1 382.8L516.5 374.1L522.9 366.3L529.4 355.6L535.8 347.6L542.3 331.5L548.7 315.9L555.1 301.1L561.6 278.9L568 269.5L574.4 251.3L580.9 236L587.3 229.5L588 226.9L588.6 223.9L589.2 220.7L589.9 217.5L590.5 214.2L591.2 210.8L591.8 207.3L592.5 203.8L593.1 200.4L593.7 198.2L594.4 196.2L595 195.8L595.7 194L596.3 193.5L597 192.2L597.6 192.9L598.3 192.1L598.9 189.3L599.5 185.7L600.2 186.7L600.8 187.8L601.5 188L602.1 186.6L602.8 187.2L603.4 187.6L604 186.7L604.7 187.2L605.3 185.8L606 185.3L606.6 184.8L607.3 184.7L607.9 182.1L608.6 181L609.2 176.7L609.8 172.8L610.5 170.6L611.1 169.1L611.8 168.5L612.4 167.8L613.1 166.6L613.7 165.3L614.3 165.9L615 165.2L615.6 165L616.3 164.4L616.9 164.4L617.6 163L618.2 163L618.9 162.2L619.5 162.2L620.1 163L620.8 163.9L621.4 163.5L622.1 162L622.7 159.9L623.4 160.7L624 160.5L624.6 159.6L625.3 158.9L625.9 157.5L626.6 154.6L627.2 151.7L627.9 150.6L628.5 149.6L629.2 145.2L629.8 143.7L630.4 142L631.1 139.5L631.7 138.8L632.4 136.7L633 134.4L633.7 132.2L634.3 130.1" fill="none" stroke-width="1"></path></g><g id="line__UN-FAO"><path stroke-linecap="round" stroke-linejoin="round" stroke="#ddd" d="M594.4 195.8L595 195.1L595.7 193.8L596.3 193.3L597 192.5L597.6 192.6L598.3 192.2L598.9 189.3L599.5 187.4L600.2 187.7L600.8 188.4L601.5 187L602.1 186.5L602.8 185.8L603.4 185.7L604 184.1L604.7 182.6L605.3 180L606 178.5L606.6 177.7L607.3 176.7L607.9 174.3L608.6 172.9L609.2 169.2L609.8 165.8L610.5 165.1L611.1 164.3L611.8 164.4L612.4 164.3L613.1 163.8L613.7 163.2L614.3 163.7L615 163.6L615.6 163.7L616.3 163.6L616.9 163.5L617.6 162.1L618.2 162L618.9 161L619.5 161.3L620.1 160.6L620.8 160.8L621.4 159.5L622.1 158.3L622.7 156.9L623.4 157L624 156.5L624.6 156.3L625.3 154.5L625.9 153.9L626.6 151.5L627.2 149.8L627.9 148.7L628.5 147.8L629.2 146.4L629.8 145.7L630.4 144.2L631.1 143.2L631.7 143.1L632.4 142L633 141.1" fill="none" stroke-width="1"></path></g><g id="line__Taylor-and-Rising-__00282021__0029"><path stroke-linecap="round" stroke-linejoin="round" stroke="#ddd" d="M477.9 429.7L484.3 426.8L490.8 423.6L497.2 419.6L503.6 415.1L510.1 409.4L516.5 401.8L522.9 393.6L529.4 384.5L535.8 377.4L542.3 362.5L548.7 347.8L555.1 332.6L561.6 314.2L568 302.4L574.4 284.9L580.9 268.9L587.3 257.5L593.7 226.4L600.2 217.2L606.6 213.4L613.1 203.6L619.5 196.5L625.9 187.1" fill="none" stroke-width="1"></path></g><g id="line__HYDE-3__002e3-__0028Goldewijk-et-al__002e__0029"><path id="outline" fill="none" stroke-linecap="butt" stroke-linejoin="round" stroke="#fff" stroke-width="2.5" d="M104.6 450.3L168.9 449.5L233.3 455.1L297.7 446.6L362 442.7L426.4 435.7L432.8 432.4L439.3 429L445.7 425.8L452.1 422.7L458.6 419.5L465 416.3L471.5 413L477.9 409.3L484.3 405.3L490.8 400.8L497.2 395.4L503.6 389.5L510.1 382.8L516.5 374.1L522.9 366.3L529.4 355.6L535.8 347.6L542.3 331.5L548.7 315.9L555.1 301.1L561.6 278.9L568 269.5L574.4 251.3L580.9 236L587.3 229.5L588 226.9L588.6 223.9L589.2 220.7L589.9 217.5L590.5 214.2L591.2 210.8L591.8 207.3L592.5 203.8L593.1 200.4L593.7 198.2L594.4 196.2L595 195.8L595.7 194L596.3 193.5L597 192.2L597.6 192.9L598.3 192.1L598.9 189.3L599.5 185.7L600.2 186.7L600.8 187.8L601.5 188L602.1 186.6L602.8 187.2L603.4 187.6L604 186.7L604.7 187.2L605.3 185.8L606 185.3L606.6 184.8L607.3 184.7L607.9 182.1L608.6 181L609.2 176.7L609.8 172.8L610.5 170.6L611.1 169.1L611.8 168.5L612.4 167.8L613.1 166.6L613.7 165.3L614.3 165.9L615 165.2L615.6 165L616.3 164.4L616.9 164.4L617.6 163L618.2 163L618.9 162.2L619.5 162.2L620.1 163L620.8 163.9L621.4 163.5L622.1 162L622.7 159.9L623.4 160.7L624 160.5L624.6 159.6L625.3 158.9L625.9 157.5L626.6 154.6L627.2 151.7L627.9 150.6L628.5 149.6L629.2 145.2L629.8 143.7L630.4 142L631.1 139.5L631.7 138.8L632.4 136.7L633 134.4L633.7 132.2L634.3 130.1"></path><g id="polyline"><polyline id="polyline" points="104.60,450.30 168.90,449.50 233.30,455.10 297.70,446.60 362.00,442.70 426.40,435.70 432.80,432.40 439.30,429.00 445.70,425.80 452.10,422.70 458.60,419.50 465.00,416.30 471.50,413.00 477.90,409.30 484.30,405.30 490.80,400.80 497.20,395.40 503.60,389.50 510.10,382.80 516.50,374.10 522.90,366.30 529.40,355.60 535.80,347.60 542.30,331.50 548.70,315.90 555.10,301.10 561.60,278.90 568.00,269.50 574.40,251.30 580.90,236.00 587.30,229.50 588.00,226.90 588.60,223.90 589.20,220.70 589.90,217.50 590.50,214.20 591.20,210.80 591.80,207.30 592.50,203.80 593.10,200.40 593.70,198.20 594.40,196.20 595.00,195.80 595.70,194.00 596.30,193.50 597.00,192.20 597.60,192.90 598.30,192.10 598.90,189.30 599.50,185.70 600.20,186.70 600.80,187.80 601.50,188.00 602.10,186.60 602.80,187.20 603.40,187.60 604.00,186.70 604.70,187.20 605.30,185.80 606.00,185.30 606.60,184.80 607.30,184.70 607.90,182.10 608.60,181.00 609.20,176.70 609.80,172.80 610.50,170.60 611.10,169.10 611.80,168.50 612.40,167.80 613.10,166.60 613.70,165.30 614.30,165.90 615.00,165.20 615.60,165.00 616.30,164.40 616.90,164.40 617.60,163.00 618.20,163.00 618.90,162.20 619.50,162.20 620.10,163.00 620.80,163.90 621.40,163.50 622.10,162.00 622.70,159.90 623.40,160.70 624.00,160.50 624.60,159.60 625.30,158.90 625.90,157.50 626.60,154.60 627.20,151.70 627.90,150.60 628.50,149.60 629.20,145.20 629.80,143.70 630.40,142.00 631.10,139.50 631.70,138.80 632.40,136.70 633.00,134.40 633.70,132.20 634.30,130.10" stroke-linejoin="round" stroke-width="1.5" stroke="#9a5129" fill="none" stroke-linecap="butt"></polyline></g><g id="markers"><circle cx="104.6" cy="450.3" r="1.8" fill="#9a5129"></circle><circle cx="168.9" cy="449.5" r="1.8" fill="#9a5129"></circle><circle cx="233.3" cy="455.1" r="1.8" fill="#9a5129"></circle><circle cx="297.7" cy="446.6" r="1.8" fill="#9a5129"></circle><circle cx="362" cy="442.7" r="1.8" fill="#9a5129"></circle><circle cx="426.4" cy="435.7" r="1.8" fill="#9a5129"></circle><circle cx="432.8" cy="432.4" r="1.8" fill="#9a5129"></circle><circle cx="439.3" cy="429" r="1.8" fill="#9a5129"></circle><circle cx="445.7" cy="425.8" r="1.8" fill="#9a5129"></circle><circle cx="452.1" cy="422.7" r="1.8" fill="#9a5129"></circle><circle cx="458.6" cy="419.5" r="1.8" fill="#9a5129"></circle><circle cx="465" cy="416.3" r="1.8" fill="#9a5129"></circle><circle cx="471.5" cy="413" r="1.8" fill="#9a5129"></circle><circle cx="477.9" cy="409.3" r="1.8" fill="#9a5129"></circle><circle cx="484.3" cy="405.3" r="1.8" fill="#9a5129"></circle><circle cx="490.8" cy="400.8" r="1.8" fill="#9a5129"></circle><circle cx="497.2" cy="395.4" r="1.8" fill="#9a5129"></circle><circle cx="503.6" cy="389.5" r="1.8" fill="#9a5129"></circle><circle cx="510.1" cy="382.8" r="1.8" fill="#9a5129"></circle><circle cx="516.5" cy="374.1" r="1.8" fill="#9a5129"></circle><circle cx="522.9" cy="366.3" r="1.8" fill="#9a5129"></circle><circle cx="529.4" cy="355.6" r="1.8" fill="#9a5129"></circle><circle cx="535.8" cy="347.6" r="1.8" fill="#9a5129"></circle><circle cx="542.3" cy="331.5" r="1.8" fill="#9a5129"></circle><circle cx="548.7" cy="315.9" r="1.8" fill="#9a5129"></circle><circle cx="555.1" cy="301.1" r="1.8" fill="#9a5129"></circle><circle cx="561.6" cy="278.9" r="1.8" fill="#9a5129"></circle><circle cx="568" cy="269.5" r="1.8" fill="#9a5129"></circle><circle cx="574.4" cy="251.3" r="1.8" fill="#9a5129"></circle><circle cx="580.9" cy="236" r="1.8" fill="#9a5129"></circle><circle cx="587.3" cy="229.5" r="1.8" fill="#9a5129"></circle><circle cx="588" cy="226.9" r="1.8" fill="#9a5129"></circle><circle cx="588.6" cy="223.9" r="1.8" fill="#9a5129"></circle><circle cx="589.2" cy="220.7" r="1.8" fill="#9a5129"></circle><circle cx="589.9" cy="217.5" r="1.8" fill="#9a5129"></circle><circle cx="590.5" cy="214.2" r="1.8" fill="#9a5129"></circle><circle cx="591.2" cy="210.8" r="1.8" fill="#9a5129"></circle><circle cx="591.8" cy="207.3" r="1.8" fill="#9a5129"></circle><circle cx="592.5" cy="203.8" r="1.8" fill="#9a5129"></circle><circle cx="593.1" cy="200.4" r="1.8" fill="#9a5129"></circle><circle cx="593.7" cy="198.2" r="1.8" fill="#9a5129"></circle><circle cx="594.4" cy="196.2" r="1.8" fill="#9a5129"></circle><circle cx="595" cy="195.8" r="1.8" fill="#9a5129"></circle><circle cx="595.7" cy="194" r="1.8" fill="#9a5129"></circle><circle cx="596.3" cy="193.5" r="1.8" fill="#9a5129"></circle><circle cx="597" cy="192.2" r="1.8" fill="#9a5129"></circle><circle cx="597.6" cy="192.9" r="1.8" fill="#9a5129"></circle><circle cx="598.3" cy="192.1" r="1.8" fill="#9a5129"></circle><circle cx="598.9" cy="189.3" r="1.8" fill="#9a5129"></circle><circle cx="599.5" cy="185.7" r="1.8" fill="#9a5129"></circle><circle cx="600.2" cy="186.7" r="1.8" fill="#9a5129"></circle><circle cx="600.8" cy="187.8" r="1.8" fill="#9a5129"></circle><circle cx="601.5" cy="188" r="1.8" fill="#9a5129"></circle><circle cx="602.1" cy="186.6" r="1.8" fill="#9a5129"></circle><circle cx="602.8" cy="187.2" r="1.8" fill="#9a5129"></circle><circle cx="603.4" cy="187.6" r="1.8" fill="#9a5129"></circle><circle cx="604" cy="186.7" r="1.8" fill="#9a5129"></circle><circle cx="604.7" cy="187.2" r="1.8" fill="#9a5129"></circle><circle cx="605.3" cy="185.8" r="1.8" fill="#9a5129"></circle><circle cx="606" cy="185.3" r="1.8" fill="#9a5129"></circle><circle cx="606.6" cy="184.8" r="1.8" fill="#9a5129"></circle><circle cx="607.3" cy="184.7" r="1.8" fill="#9a5129"></circle><circle cx="607.9" cy="182.1" r="1.8" fill="#9a5129"></circle><circle cx="608.6" cy="181" r="1.8" fill="#9a5129"></circle><circle cx="609.2" cy="176.7" r="1.8" fill="#9a5129"></circle><circle cx="609.8" cy="172.8" r="1.8" fill="#9a5129"></circle><circle cx="610.5" cy="170.6" r="1.8" fill="#9a5129"></circle><circle cx="611.1" cy="169.1" r="1.8" fill="#9a5129"></circle><circle cx="611.8" cy="168.5" r="1.8" fill="#9a5129"></circle><circle cx="612.4" cy="167.8" r="1.8" fill="#9a5129"></circle><circle cx="613.1" cy="166.6" r="1.8" fill="#9a5129"></circle><circle cx="613.7" cy="165.3" r="1.8" fill="#9a5129"></circle><circle cx="614.3" cy="165.9" r="1.8" fill="#9a5129"></circle><circle cx="615" cy="165.2" r="1.8" fill="#9a5129"></circle><circle cx="615.6" cy="165" r="1.8" fill="#9a5129"></circle><circle cx="616.3" cy="164.4" r="1.8" fill="#9a5129"></circle><circle cx="616.9" cy="164.4" r="1.8" fill="#9a5129"></circle><circle cx="617.6" cy="163" r="1.8" fill="#9a5129"></circle><circle cx="618.2" cy="163" r="1.8" fill="#9a5129"></circle><circle cx="618.9" cy="162.2" r="1.8" fill="#9a5129"></circle><circle cx="619.5" cy="162.2" r="1.8" fill="#9a5129"></circle><circle cx="620.1" cy="163" r="1.8" fill="#9a5129"></circle><circle cx="620.8" cy="163.9" r="1.8" fill="#9a5129"></circle><circle cx="621.4" cy="163.5" r="1.8" fill="#9a5129"></circle><circle cx="622.1" cy="162" r="1.8" fill="#9a5129"></circle><circle cx="622.7" cy="159.9" r="1.8" fill="#9a5129"></circle><circle cx="623.4" cy="160.7" r="1.8" fill="#9a5129"></circle><circle cx="624" cy="160.5" r="1.8" fill="#9a5129"></circle><circle cx="624.6" cy="159.6" r="1.8" fill="#9a5129"></circle><circle cx="625.3" cy="158.9" r="1.8" fill="#9a5129"></circle><circle cx="625.9" cy="157.5" r="1.8" fill="#9a5129"></circle><circle cx="626.6" cy="154.6" r="1.8" fill="#9a5129"></circle><circle cx="627.2" cy="151.7" r="1.8" fill="#9a5129"></circle><circle cx="627.9" cy="150.6" r="1.8" fill="#9a5129"></circle><circle cx="628.5" cy="149.6" r="1.8" fill="#9a5129"></circle><circle cx="629.2" cy="145.2" r="1.8" fill="#9a5129"></circle><circle cx="629.8" cy="143.7" r="1.8" fill="#9a5129"></circle><circle cx="630.4" cy="142" r="1.8" fill="#9a5129"></circle><circle cx="631.1" cy="139.5" r="1.8" fill="#9a5129"></circle><circle cx="631.7" cy="138.8" r="1.8" fill="#9a5129"></circle><circle cx="632.4" cy="136.7" r="1.8" fill="#9a5129"></circle><circle cx="633" cy="134.4" r="1.8" fill="#9a5129"></circle><circle cx="633.7" cy="132.2" r="1.8" fill="#9a5129"></circle><circle cx="634.3" cy="130.1" r="1.8" fill="#9a5129"></circle></g></g><g id="line__UN-FAO"><path id="outline" fill="none" stroke-linecap="butt" stroke-linejoin="round" stroke="#fff" stroke-width="2.5" d="M594.4 195.8L595 195.1L595.7 193.8L596.3 193.3L597 192.5L597.6 192.6L598.3 192.2L598.9 189.3L599.5 187.4L600.2 187.7L600.8 188.4L601.5 187L602.1 186.5L602.8 185.8L603.4 185.7L604 184.1L604.7 182.6L605.3 180L606 178.5L606.6 177.7L607.3 176.7L607.9 174.3L608.6 172.9L609.2 169.2L609.8 165.8L610.5 165.1L611.1 164.3L611.8 164.4L612.4 164.3L613.1 163.8L613.7 163.2L614.3 163.7L615 163.6L615.6 163.7L616.3 163.6L616.9 163.5L617.6 162.1L618.2 162L618.9 161L619.5 161.3L620.1 160.6L620.8 160.8L621.4 159.5L622.1 158.3L622.7 156.9L623.4 157L624 156.5L624.6 156.3L625.3 154.5L625.9 153.9L626.6 151.5L627.2 149.8L627.9 148.7L628.5 147.8L629.2 146.4L629.8 145.7L630.4 144.2L631.1 143.2L631.7 143.1L632.4 142L633 141.1"></path><g id="polyline"><polyline id="polyline" points="594.40,195.80 595.00,195.10 595.70,193.80 596.30,193.30 597.00,192.50 597.60,192.60 598.30,192.20 598.90,189.30 599.50,187.40 600.20,187.70 600.80,188.40 601.50,187.00 602.10,186.50 602.80,185.80 603.40,185.70 604.00,184.10 604.70,182.60 605.30,180.00 606.00,178.50 606.60,177.70 607.30,176.70 607.90,174.30 608.60,172.90 609.20,169.20 609.80,165.80 610.50,165.10 611.10,164.30 611.80,164.40 612.40,164.30 613.10,163.80 613.70,163.20 614.30,163.70 615.00,163.60 615.60,163.70 616.30,163.60 616.90,163.50 617.60,162.10 618.20,162.00 618.90,161.00 619.50,161.30 620.10,160.60 620.80,160.80 621.40,159.50 622.10,158.30 622.70,156.90 623.40,157.00 624.00,156.50 624.60,156.30 625.30,154.50 625.90,153.90 626.60,151.50 627.20,149.80 627.90,148.70 628.50,147.80 629.20,146.40 629.80,145.70 630.40,144.20 631.10,143.20 631.70,143.10 632.40,142.00 633.00,141.10" stroke-linejoin="round" stroke-width="1.5" stroke="#97091d" fill="none" stroke-linecap="butt"></polyline></g><g id="markers"><circle cx="594.4" cy="195.8" r="1.8" fill="#97091d"></circle><circle cx="595" cy="195.1" r="1.8" fill="#97091d"></circle><circle cx="595.7" cy="193.8" r="1.8" fill="#97091d"></circle><circle cx="596.3" cy="193.3" r="1.8" fill="#97091d"></circle><circle cx="597" cy="192.5" r="1.8" fill="#97091d"></circle><circle cx="597.6" cy="192.6" r="1.8" fill="#97091d"></circle><circle cx="598.3" cy="192.2" r="1.8" fill="#97091d"></circle><circle cx="598.9" cy="189.3" r="1.8" fill="#97091d"></circle><circle cx="599.5" cy="187.4" r="1.8" fill="#97091d"></circle><circle cx="600.2" cy="187.7" r="1.8" fill="#97091d"></circle><circle cx="600.8" cy="188.4" r="1.8" fill="#97091d"></circle><circle cx="601.5" cy="187" r="1.8" fill="#97091d"></circle><circle cx="602.1" cy="186.5" r="1.8" fill="#97091d"></circle><circle cx="602.8" cy="185.8" r="1.8" fill="#97091d"></circle><circle cx="603.4" cy="185.7" r="1.8" fill="#97091d"></circle><circle cx="604" cy="184.1" r="1.8" fill="#97091d"></circle><circle cx="604.7" cy="182.6" r="1.8" fill="#97091d"></circle><circle cx="605.3" cy="180" r="1.8" fill="#97091d"></circle><circle cx="606" cy="178.5" r="1.8" fill="#97091d"></circle><circle cx="606.6" cy="177.7" r="1.8" fill="#97091d"></circle><circle cx="607.3" cy="176.7" r="1.8" fill="#97091d"></circle><circle cx="607.9" cy="174.3" r="1.8" fill="#97091d"></circle><circle cx="608.6" cy="172.9" r="1.8" fill="#97091d"></circle><circle cx="609.2" cy="169.2" r="1.8" fill="#97091d"></circle><circle cx="609.8" cy="165.8" r="1.8" fill="#97091d"></circle><circle cx="610.5" cy="165.1" r="1.8" fill="#97091d"></circle><circle cx="611.1" cy="164.3" r="1.8" fill="#97091d"></circle><circle cx="611.8" cy="164.4" r="1.8" fill="#97091d"></circle><circle cx="612.4" cy="164.3" r="1.8" fill="#97091d"></circle><circle cx="613.1" cy="163.8" r="1.8" fill="#97091d"></circle><circle cx="613.7" cy="163.2" r="1.8" fill="#97091d"></circle><circle cx="614.3" cy="163.7" r="1.8" fill="#97091d"></circle><circle cx="615" cy="163.6" r="1.8" fill="#97091d"></circle><circle cx="615.6" cy="163.7" r="1.8" fill="#97091d"></circle><circle cx="616.3" cy="163.6" r="1.8" fill="#97091d"></circle><circle cx="616.9" cy="163.5" r="1.8" fill="#97091d"></circle><circle cx="617.6" cy="162.1" r="1.8" fill="#97091d"></circle><circle cx="618.2" cy="162" r="1.8" fill="#97091d"></circle><circle cx="618.9" cy="161" r="1.8" fill="#97091d"></circle><circle cx="619.5" cy="161.3" r="1.8" fill="#97091d"></circle><circle cx="620.1" cy="160.6" r="1.8" fill="#97091d"></circle><circle cx="620.8" cy="160.8" r="1.8" fill="#97091d"></circle><circle cx="621.4" cy="159.5" r="1.8" fill="#97091d"></circle><circle cx="622.1" cy="158.3" r="1.8" fill="#97091d"></circle><circle cx="622.7" cy="156.9" r="1.8" fill="#97091d"></circle><circle cx="623.4" cy="157" r="1.8" fill="#97091d"></circle><circle cx="624" cy="156.5" r="1.8" fill="#97091d"></circle><circle cx="624.6" cy="156.3" r="1.8" fill="#97091d"></circle><circle cx="625.3" cy="154.5" r="1.8" fill="#97091d"></circle><circle cx="625.9" cy="153.9" r="1.8" fill="#97091d"></circle><circle cx="626.6" cy="151.5" r="1.8" fill="#97091d"></circle><circle cx="627.2" cy="149.8" r="1.8" fill="#97091d"></circle><circle cx="627.9" cy="148.7" r="1.8" fill="#97091d"></circle><circle cx="628.5" cy="147.8" r="1.8" fill="#97091d"></circle><circle cx="629.2" cy="146.4" r="1.8" fill="#97091d"></circle><circle cx="629.8" cy="145.7" r="1.8" fill="#97091d"></circle><circle cx="630.4" cy="144.2" r="1.8" fill="#97091d"></circle><circle cx="631.1" cy="143.2" r="1.8" fill="#97091d"></circle><circle cx="631.7" cy="143.1" r="1.8" fill="#97091d"></circle><circle cx="632.4" cy="142" r="1.8" fill="#97091d"></circle><circle cx="633" cy="141.1" r="1.8" fill="#97091d"></circle></g></g><g id="line__Taylor-and-Rising-__00282021__0029"><path id="outline" fill="none" stroke-linecap="butt" stroke-linejoin="round" stroke="#fff" stroke-width="2.5" d="M477.9 429.7L484.3 426.8L490.8 423.6L497.2 419.6L503.6 415.1L510.1 409.4L516.5 401.8L522.9 393.6L529.4 384.5L535.8 377.4L542.3 362.5L548.7 347.8L555.1 332.6L561.6 314.2L568 302.4L574.4 284.9L580.9 268.9L587.3 257.5L593.7 226.4L600.2 217.2L606.6 213.4L613.1 203.6L619.5 196.5L625.9 187.1"></path><g id="polyline"><polyline id="polyline" points="477.90,429.70 484.30,426.80 490.80,423.60 497.20,419.60 503.60,415.10 510.10,409.40 516.50,401.80 522.90,393.60 529.40,384.50 535.80,377.40 542.30,362.50 548.70,347.80 555.10,332.60 561.60,314.20 568.00,302.40 574.40,284.90 580.90,268.90 587.30,257.50 593.70,226.40 600.20,217.20 606.60,213.40 613.10,203.60 619.50,196.50 625.90,187.10" stroke-linejoin="round" stroke-width="1.5" stroke="#3c4e66" fill="none" stroke-linecap="butt"></polyline></g><g id="markers"><circle cx="477.9" cy="429.7" r="1.8" fill="#3c4e66"></circle><circle cx="484.3" cy="426.8" r="1.8" fill="#3c4e66"></circle><circle cx="490.8" cy="423.6" r="1.8" fill="#3c4e66"></circle><circle cx="497.2" cy="419.6" r="1.8" fill="#3c4e66"></circle><circle cx="503.6" cy="415.1" r="1.8" fill="#3c4e66"></circle><circle cx="510.1" cy="409.4" r="1.8" fill="#3c4e66"></circle><circle cx="516.5" cy="401.8" r="1.8" fill="#3c4e66"></circle><circle cx="522.9" cy="393.6" r="1.8" fill="#3c4e66"></circle><circle cx="529.4" cy="384.5" r="1.8" fill="#3c4e66"></circle><circle cx="535.8" cy="377.4" r="1.8" fill="#3c4e66"></circle><circle cx="542.3" cy="362.5" r="1.8" fill="#3c4e66"></circle><circle cx="548.7" cy="347.8" r="1.8" fill="#3c4e66"></circle><circle cx="555.1" cy="332.6" r="1.8" fill="#3c4e66"></circle><circle cx="561.6" cy="314.2" r="1.8" fill="#3c4e66"></circle><circle cx="568" cy="302.4" r="1.8" fill="#3c4e66"></circle><circle cx="574.4" cy="284.9" r="1.8" fill="#3c4e66"></circle><circle cx="580.9" cy="268.9" r="1.8" fill="#3c4e66"></circle><circle cx="587.3" cy="257.5" r="1.8" fill="#3c4e66"></circle><circle cx="593.7" cy="226.4" r="1.8" fill="#3c4e66"></circle><circle cx="600.2" cy="217.2" r="1.8" fill="#3c4e66"></circle><circle cx="606.6" cy="213.4" r="1.8" fill="#3c4e66"></circle><circle cx="613.1" cy="203.6" r="1.8" fill="#3c4e66"></circle><circle cx="619.5" cy="196.5" r="1.8" fill="#3c4e66"></circle><circle cx="625.9" cy="187.1" r="1.8" fill="#3c4e66"></circle></g></g></g></g></g></g><g id="footer" class="SourcesFooter" style="fill:#5b5b5b"><g id="sources" class="markdown-text-wrap"><text x="16.0" y="562.7" style="font-size:13.5px;line-height:1.2"><tspan x="16" y="562.7"><tspan style="font-weight:700">Data source:</tspan> Taylor &amp; Rising (2021); Food and Agriculture Organization of the United Nations (2024); HYDE (2023)</tspan></text></g><text id="origin-url" font-size="13.50" x="16.0" y="580.9"><tspan x="16" y="580.8950000000001"><a target="_blank" style="fill: #5b5b5b;" href="https://ourworldindata.org/land-use">OurWorldInData.org/land-use</a> | <a target="_blank" style="fill: #5b5b5b;" href="https://creativecommons.org/licenses/by/4.0/">CC BY</a></tspan></text></g></svg>