<svg xmlns="http://www.w3.org/2000/svg" version="1.1" style="font-family:Lato, &#x27;Helvetica Neue&#x27;, Helvetica, Arial, &#x27;Liberation Sans&#x27;, sans-serif;font-size:18px;background-color:white;text-rendering:geometricPrecision;-webkit-font-smoothing:antialiased" width="850" height="600" viewBox="0 0 850 600"><defs><style>@import url(http://localhost:3030/fonts.css)</style></defs><defs><pattern id="noDataPattern" patternUnits="userSpaceOnUse" width="4" height="4" patternTransform="rotate(-45 2 2)"><path d="M -1,2 l 6,0" stroke="#ccc" stroke-width="0.7"></path></pattern></defs><rect class="background-fill" fill="white" width="850" height="600"></rect><g class="HeaderView"><g transform="translate(769, 16) scale(1)"><svg className="owidLogo" xmlns="http://www.w3.org/2000/svg" width="65" height="36" viewBox="0 0 65 36"  fill="none"><path fill="#002147" d="M0 0h64.8v36H0z"/><path fill="#CE261E" d="M0 33.3h64.8V36H0z"/><path fill="#fff" d="M13.796 10.575c0 .636-.106 1.226-.318 1.77a4.193 4.193 0 0 1-.894 1.404 4.084 4.084 0 0 1-1.386.93c-.54.22-1.138.33-1.794.33-.656 0-1.256-.11-1.8-.33a4.149 4.149 0 0 1-1.392-.93 4.193 4.193 0 0 1-.894-1.404A4.833 4.833 0 0 1 5 10.575c0-.636.106-1.224.318-1.764a4.18 4.18 0 0 1 .894-1.41 4.076 4.076 0 0 1 1.392-.924 4.684 4.684 0 0 1 1.8-.336c.656 0 1.254.112 1.794.336.54.224 1.002.534 1.386.93.384.392.682.86.894 1.404.212.54.318 1.128.318 1.764Zm-1.656 0c0-.476-.064-.902-.192-1.278a2.671 2.671 0 0 0-.54-.966 2.332 2.332 0 0 0-.864-.606 2.94 2.94 0 0 0-1.14-.21c-.424 0-.806.07-1.146.21-.34.14-.63.342-.87.606a2.742 2.742 0 0 0-.546.966 3.955 3.955 0 0 0-.192 1.278c0 .476.064.904.192 1.284.128.376.31.696.546.96.24.26.53.46.87.6.34.14.722.21 1.146.21.424 0 .804-.07 1.14-.21.34-.14.628-.34.864-.6.236-.264.416-.584.54-.96a4.01 4.01 0 0 0 .192-1.284ZM16.104 8.757v3.912c0 .376.086.668.258.876.176.204.438.306.786.306.256 0 .496-.056.72-.168a2.58 2.58 0 0 0 .636-.474V8.757h1.482v6.156h-.906c-.192 0-.318-.09-.378-.27l-.102-.492a4.65 4.65 0 0 1-.396.354 2.577 2.577 0 0 1-.438.27 2.35 2.35 0 0 1-.498.168 2.345 2.345 0 0 1-.57.066c-.336 0-.634-.056-.894-.168a1.821 1.821 0 0 1-.648-.486 2.157 2.157 0 0 1-.402-.738 3.233 3.233 0 0 1-.132-.948V8.757h1.482ZM21.328 14.913V8.757h.87c.152 0 .258.028.318.084.06.056.1.152.12.288l.09.744c.22-.38.478-.68.774-.9.296-.22.628-.33.996-.33.304 0 .556.07.756.21l-.192 1.11c-.012.072-.038.124-.078.156a.278.278 0 0 1-.162.042 1.01 1.01 0 0 1-.246-.042 1.646 1.646 0 0 0-.414-.042c-.308 0-.572.086-.792.258-.22.168-.406.416-.558.744v3.834h-1.482ZM27.347 6.237h1.356a.57.57 0 0 1 .348.102c.096.064.16.152.192.264l1.476 5.19c.036.128.068.268.096.42.032.148.062.306.09.474a5.968 5.968 0 0 1 .228-.894l1.704-5.19a.575.575 0 0 1 .186-.252.543.543 0 0 1 .348-.114h.474a.57.57 0 0 1 .348.102.497.497 0 0 1 .192.264l1.692 5.19c.088.256.164.54.228.852.028-.156.056-.306.084-.45.032-.144.064-.278.096-.402l1.476-5.19c.028-.1.09-.186.186-.258a.563.563 0 0 1 .348-.108h1.266l-2.694 8.676h-1.458l-1.896-5.928-.078-.246a9.504 9.504 0 0 1-.072-.282c-.024.1-.05.194-.078.282-.024.088-.048.17-.072.246l-1.914 5.928H30.04l-2.694-8.676ZM42.771 8.661c.46 0 .876.074 1.248.222.376.148.696.358.96.63s.468.604.612.996c.144.392.216.83.216 1.314 0 .488-.072.928-.216 1.32a2.85 2.85 0 0 1-.612 1.002 2.653 2.653 0 0 1-.96.636 3.35 3.35 0 0 1-1.248.222c-.46 0-.878-.074-1.254-.222a2.712 2.712 0 0 1-.966-.636 2.922 2.922 0 0 1-.618-1.002 3.807 3.807 0 0 1-.216-1.32c0-.484.072-.922.216-1.314.148-.392.354-.724.618-.996.268-.272.59-.482.966-.63a3.397 3.397 0 0 1 1.254-.222Zm0 5.202c.512 0 .89-.172 1.134-.516.248-.344.372-.848.372-1.512s-.124-1.17-.372-1.518c-.244-.348-.622-.522-1.134-.522-.52 0-.904.176-1.152.528-.248.348-.372.852-.372 1.512s.124 1.164.372 1.512c.248.344.632.516 1.152.516ZM46.723 14.913V8.757h.87c.152 0 .258.028.318.084.06.056.1.152.12.288l.09.744c.22-.38.478-.68.774-.9.296-.22.628-.33.996-.33.304 0 .556.07.756.21l-.192 1.11c-.012.072-.038.124-.078.156a.278.278 0 0 1-.162.042 1.01 1.01 0 0 1-.246-.042 1.646 1.646 0 0 0-.414-.042c-.308 0-.572.086-.792.258-.22.168-.406.416-.558.744v3.834h-1.482ZM52.96 5.997v8.916h-1.482V5.997h1.482ZM58.732 14.913c-.192 0-.318-.09-.378-.27l-.12-.594a3.68 3.68 0 0 1-.402.39c-.14.116-.292.216-.456.3-.16.084-.334.148-.522.192a2.372 2.372 0 0 1-.6.072c-.336 0-.644-.07-.924-.21a2.098 2.098 0 0 1-.726-.606 3.033 3.033 0 0 1-.468-.99 5.072 5.072 0 0 1-.162-1.344c0-.456.062-.88.186-1.272s.302-.732.534-1.02c.232-.288.51-.512.834-.672a2.384 2.384 0 0 1 1.092-.246 2.103 2.103 0 0 1 1.536.606V5.997h1.482v8.916h-.906Zm-1.974-1.086c.308 0 .57-.064.786-.192.216-.128.42-.31.612-.546v-2.76a1.452 1.452 0 0 0-.552-.432 1.597 1.597 0 0 0-.636-.126c-.224 0-.428.042-.612.126a1.21 1.21 0 0 0-.462.384c-.124.168-.22.384-.288.648-.068.26-.102.568-.102.924 0 .36.028.666.084.918.06.248.144.452.252.612.108.156.24.27.396.342.156.068.33.102.522.102ZM16.331 20.757v6.156H14.85v-6.156h1.481Zm.223-1.794a.844.844 0 0 1-.078.36.963.963 0 0 1-.21.294.995.995 0 0 1-.3.204.963.963 0 0 1-.372.072.948.948 0 0 1-.367-.072 1.018 1.018 0 0 1-.498-.498.963.963 0 0 1 0-.732.995.995 0 0 1 .205-.3.929.929 0 0 1 .293-.198.899.899 0 0 1 .738 0 .912.912 0 0 1 .3.198.943.943 0 0 1 .288.672ZM17.771 26.913v-6.156h.906c.192 0 .318.09.378.27l.102.486a2.934 2.934 0 0 1 .828-.618c.156-.076.322-.134.498-.174.176-.04.368-.06.576-.06.336 0 .634.058.894.174.26.112.476.272.648.48.176.204.308.45.396.738.092.284.138.598.138.942v3.918h-1.482v-3.918c0-.376-.088-.666-.264-.87-.172-.208-.432-.312-.78-.312-.256 0-.496.058-.72.174a2.58 2.58 0 0 0-.636.474v4.452h-1.482ZM34.22 22.575c0 .636-.106 1.22-.318 1.752-.212.532-.51.99-.894 1.374a4 4 0 0 1-1.386.894 4.87 4.87 0 0 1-1.794.318h-3.312v-8.676h3.312a4.79 4.79 0 0 1 1.794.324 4 4 0 0 1 1.386.894c.384.38.682.836.894 1.368.212.532.318 1.116.318 1.752Zm-1.65 0c0-.476-.064-.902-.192-1.278a2.68 2.68 0 0 0-.546-.96 2.332 2.332 0 0 0-.864-.606 2.94 2.94 0 0 0-1.14-.21h-1.686v6.108h1.686c.424 0 .804-.07 1.14-.21.34-.14.628-.34.864-.6a2.75 2.75 0 0 0 .546-.96 4.01 4.01 0 0 0 .192-1.284ZM39.98 26.913h-.665c-.14 0-.25-.02-.33-.06-.08-.044-.14-.13-.18-.258l-.132-.438c-.156.14-.31.264-.462.372a2.804 2.804 0 0 1-.462.264c-.16.072-.33.126-.51.162-.18.036-.38.054-.6.054-.26 0-.5-.034-.72-.102a1.618 1.618 0 0 1-.57-.318 1.448 1.448 0 0 1-.366-.522 1.852 1.852 0 0 1-.132-.726c0-.232.06-.46.18-.684.124-.228.328-.432.612-.612.284-.184.662-.336 1.134-.456.472-.12 1.058-.188 1.758-.204v-.36c0-.412-.088-.716-.264-.912-.172-.2-.424-.3-.756-.3a1.837 1.837 0 0 0-1.02.276c-.116.068-.224.13-.324.186a.664.664 0 0 1-.33.084.429.429 0 0 1-.258-.078.614.614 0 0 1-.174-.192l-.27-.474c.708-.648 1.562-.972 2.562-.972.36 0 .68.06.96.18.284.116.524.28.72.492.196.208.344.458.444.75.104.292.156.612.156.96v3.888Zm-2.88-.924c.153 0 .293-.014.42-.042.129-.028.249-.07.36-.126.117-.056.227-.124.33-.204.109-.084.217-.182.325-.294v-1.038c-.432.02-.794.058-1.086.114-.288.052-.52.12-.696.204a.923.923 0 0 0-.378.294.664.664 0 0 0-.108.366c0 .26.076.446.228.558.156.112.358.168.606.168ZM43.22 27.01c-.532 0-.942-.15-1.23-.45-.288-.305-.432-.723-.432-1.255v-3.438h-.624a.31.31 0 0 1-.21-.078c-.056-.052-.084-.13-.084-.234v-.588l.99-.162.312-1.68a.302.302 0 0 1 .108-.186.365.365 0 0 1 .222-.066h.768v1.938h1.62v1.056h-1.62v3.336c0 .192.048.342.144.45a.488.488 0 0 0 .384.162c.092 0 .168-.01.228-.03.064-.024.118-.048.162-.072.048-.024.09-.046.126-.066a.194.194 0 0 1 .108-.036.16.16 0 0 1 .108.036c.028.02.058.052.09.096l.444.72c-.216.18-.464.316-.744.408a2.77 2.77 0 0 1-.87.138ZM50.423 26.913h-.666c-.14 0-.25-.02-.33-.06-.08-.044-.14-.13-.18-.258l-.132-.438c-.156.14-.31.264-.462.372a2.804 2.804 0 0 1-.462.264c-.16.072-.33.126-.51.162-.18.036-.38.054-.6.054-.26 0-.5-.034-.72-.102a1.618 1.618 0 0 1-.57-.318 1.448 1.448 0 0 1-.366-.522 1.852 1.852 0 0 1-.132-.726c0-.232.06-.46.18-.684.124-.228.328-.432.612-.612.284-.184.662-.336 1.134-.456.472-.12 1.058-.188 1.758-.204v-.36c0-.412-.088-.716-.264-.912-.172-.2-.424-.3-.756-.3a1.837 1.837 0 0 0-1.02.276c-.116.068-.224.13-.324.186a.664.664 0 0 1-.33.084.429.429 0 0 1-.258-.078.614.614 0 0 1-.174-.192l-.27-.474c.708-.648 1.562-.972 2.562-.972.36 0 .68.06.96.18.284.116.524.28.72.492.196.208.344.458.444.75.104.292.156.612.156.96v3.888Zm-2.88-.924c.152 0 .292-.014.42-.042.128-.028.248-.07.36-.126.116-.056.226-.124.33-.204.108-.084.216-.182.324-.294v-1.038c-.432.02-.794.058-1.086.114-.288.052-.52.12-.696.204a.923.923 0 0 0-.378.294.664.664 0 0 0-.108.366c0 .26.076.446.228.558.156.112.358.168.606.168Z"/></svg></g><a href="http://localhost:3030/grapher/high-summer-temp-usa" style="font-family:&#x27;Playfair Display&#x27;, Georgia, &#x27;Times New Roman&#x27;, &#x27;Liberation Serif&#x27;, serif" target="_blank" rel="noopener"><text font-size="23.25" font-weight="600" x="16.0" y="38.6" fill="#5b5b5b"><tspan x="16" y="38.552499999999995">Share of US land area with unusually high summer temperatures</tspan></text></a><text x="16.0" y="62.1" style="font-size:14.625px;line-height:1.2" fill="#5b5b5b"><tspan x="16" y="62.1">Unusually hot summers are defined based on daily maximum temperatures. At each station, the recorded highs</tspan><tspan x="16" y="79.6">are compared with the full set of historical records. After averaging over a particular month or season of interest,</tspan><tspan x="16" y="97.2">the warmest 10 percent of years are defined as “unusually hot.”</tspan></text></g><g style="pointer-events:none"><g class="LineChart"><defs><clipPath id="boundsClip-1"><rect x="38.135000000000005" y="106.54999999999998" width="838" height="437.05000000000007"></rect></clipPath></defs><rect x="16" y="116.54999999999998" width="818" height="417.05000000000007" fill="none"></rect><g class="DualAxisView"><g class="HorizontalAxis"><line x1="48.1" y1="513.1" x2="48.1" y2="518.1" stroke="#999" stroke-width="1"></line><line x1="707.9" y1="513.1" x2="707.9" y2="518.1" stroke="#999" stroke-width="1"></line><line x1="108.1" y1="513.1" x2="108.1" y2="518.1" stroke="#999" stroke-width="1"></line><line x1="228.1" y1="513.1" x2="228.1" y2="518.1" stroke="#999" stroke-width="1"></line><line x1="348" y1="513.1" x2="348" y2="518.1" stroke="#999" stroke-width="1"></line><line x1="468" y1="513.1" x2="468" y2="518.1" stroke="#999" stroke-width="1"></line><line x1="587.9" y1="513.1" x2="587.9" y2="518.1" stroke="#999" stroke-width="1"></line><text x="48.135000000000005" y="531.6" fill="#5b5b5b" text-anchor="start" font-size="13.5">1910</text><text x="707.875" y="531.6" fill="#5b5b5b" text-anchor="end" font-size="13.5">2020</text><text x="108.1" y="531.6" fill="#5b5b5b" text-anchor="middle" font-size="13.5">1920</text><text x="228.1" y="531.6" fill="#5b5b5b" text-anchor="middle" font-size="13.5">1940</text><text x="348" y="531.6" fill="#5b5b5b" text-anchor="middle" font-size="13.5">1960</text><text x="468" y="531.6" fill="#5b5b5b" text-anchor="middle" font-size="13.5">1980</text><text x="587.9" y="531.6" fill="#5b5b5b" text-anchor="middle" font-size="13.5">2000</text></g><g class="VerticalAxis"><text x="43.14" y="513.1" dy=".32em" text-anchor="end" fill="#5b5b5b" font-size="13.5">0%</text><text x="43.14" y="433.2" dy=".32em" text-anchor="end" fill="#5b5b5b" font-size="13.5">10%</text><text x="43.14" y="353.4" dy=".32em" text-anchor="end" fill="#5b5b5b" font-size="13.5">20%</text><text x="43.14" y="273.5" dy=".32em" text-anchor="end" fill="#5b5b5b" font-size="13.5">30%</text><text x="43.14" y="193.6" dy=".32em" text-anchor="end" fill="#5b5b5b" font-size="13.5">40%</text></g><g class="AxisGridLines horizontalLines"><line x1="48.14" y1="513.1" x2="707.88" y2="513.1" stroke="#999" stroke-width="1"></line><line x1="48.14" y1="433.2" x2="707.88" y2="433.2" stroke="#ddd" stroke-width="1" stroke-dasharray="3,2"></line><line x1="48.14" y1="353.4" x2="707.88" y2="353.4" stroke="#ddd" stroke-width="1" stroke-dasharray="3,2"></line><line x1="48.14" y1="273.5" x2="707.88" y2="273.5" stroke="#ddd" stroke-width="1" stroke-dasharray="3,2"></line><line x1="48.14" y1="193.6" x2="707.88" y2="193.6" stroke="#ddd" stroke-width="1" stroke-dasharray="3,2"></line></g></g><g clip-path="url(#boundsClip-1)"><g class="LineLabels" style="cursor:default"><g class="legendMark"><rect x="707.875" y="229.25" width="103.31" height="13.5" fill="#fff" opacity="0"></rect><text font-size="13.50" font-weight="400" x="711.9" y="241.0" fill="#c15065"><tspan x="711.875" y="240.995">Daily Highs</tspan></text></g><g class="legendMark"><rect x="707.875" y="282.15" width="126.125" height="13.5" fill="#fff" opacity="0"></rect><text font-size="13.50" font-weight="400" x="711.9" y="293.9" fill="#2c8465"><tspan x="711.875" y="293.895">9-year average</tspan></text></g></g><g class="Lines"><rect x="48" y="123" width="660" height="391" fill="rgba(255,255,255,0)" opacity="0"></rect><g><path stroke-linecap="round" stroke-linejoin="round" stroke="#ddd" d="M48.1 455.6L54.1 454.9L60.1 448.9L66.1 443.1L72.1 448.1L78.1 461.1L84.1 465L90.1 452.2L96.1 436.5L102.1 433.3L108.1 441.6L114.1 452.6L120.1 460.5L126.1 461.2L132.1 455.3L138.1 453.5L144.1 464L150.1 476.8L156.1 471.7L162.1 441.6L168.1 401.8L174.1 369.8L180.1 345.5L186.1 323.9L192.1 310.6L198.1 312.1L204.1 331.3L210.1 367.9L216.1 407.8L222.1 433.6L228.1 445.6L234.1 450.6L240.1 448.3L246.1 444.7L252.1 453.3L258.1 473.7L264 489.3L270 489.5L276 478.7L282 463.3L288 439.2L294 401.3L300 362.2L306 344.7L312 359.3L318 396.1L324 434.7L330 457.5L336 458.1L342 443.5L348 430.2L354 434.1L360 456.8L366 483.2L372 498.8L378 501L384 496.9L390 493.3L396 491.5L402 489.6L408 489.7L414 494.4L420 501L426 504.5L432 502.4L438 496.5L444 490.6L450 484.3L456 469.2L462 443.5L468 424.3L474 426.2L480 441.5L486 456.5L492 468L498 471.2L504 456.7L510 430.8L516 419.3L521.9 436.4L527.9 464.8L533.9 478.3L539.9 468L545.9 444.1L551.9 425.7L557.9 424.5L563.9 434L569.9 439.5L575.9 435.4L581.9 423.2L587.9 402.8L593.9 377.6L599.9 363.2L605.9 370.4L611.9 382.7L617.9 376.3L623.9 360.6L629.9 365.7L635.9 388.6L641.9 389.8L647.9 349.6L653.9 301.7L659.9 295.8L665.9 335.8L671.9 375.4L677.9 377.3L683.9 352.1L689.9 332L695.9 325.4L701.9 314.7L707.9 288.9" fill="none" stroke-width="1"></path></g><g><path stroke-linecap="round" stroke-linejoin="round" stroke="#ddd" d="M48.1 454L54.1 443.6L60.1 509.9L66.1 389.3L72.1 402.1L78.1 502.7L84.1 509.1L90.1 460.4L96.1 390.9L102.1 390.9L108.1 513.1L114.1 399.7L120.1 471.6L126.1 508.3L132.1 446L138.1 399.7L144.1 465.2L150.1 504.3L156.1 509.9L162.1 495.5L168.1 338.2L174.1 308.6L180.1 463.6L186.1 275.9L192.1 184.8L198.1 501.1L204.1 126.5L210.1 409.3L216.1 462.8L222.1 477.2L228.1 359L234.1 507.5L240.1 505.9L246.1 355.8L252.1 432.4L258.1 509.1L264 507.5L270 506.7L276 482.8L282 420.5L288 512.3L294 438.8L300 255.9L306 366.1L312 271.1L318 440.4L324 432.4L330 509.9L336 465.2L342 446.8L348 429.2L354 339L360 501.1L366 498.7L372 509.9L378 513.1L384 497.1L390 465.2L396 513.1L402 505.9L408 442L414 512.3L420 510.7L426 500.3L432 511.5L438 511.5L444 458.8L450 494.7L456 497.9L462 511.5L468 260.7L474 454.8L480 511.5L486 383.7L492 498.7L498 489.1L504 491.5L510 475.6L516 228.8L521.9 504.3L527.9 496.3L533.9 485.9L539.9 501.1L545.9 467.6L551.9 324.6L557.9 458.8L563.9 411.7L569.9 509.1L575.9 377.3L581.9 474L587.9 385.3L593.9 425.2L599.9 279.1L605.9 303L611.9 497.1L617.9 438.8L623.9 264.7L629.9 267.9L635.9 477.2L641.9 478.8L647.9 390.9L653.9 222.4L659.9 122.5L665.9 398.1L671.9 482L677.9 418.9L683.9 296.7L689.9 302.3L695.9 303L701.9 434L707.9 236" fill="none" stroke-width="1"></path></g><g><path fill="none" stroke-linecap="butt" stroke-linejoin="round" stroke="#fff" stroke-width="2.5" d="M48.1 455.6L54.1 454.9L60.1 448.9L66.1 443.1L72.1 448.1L78.1 461.1L84.1 465L90.1 452.2L96.1 436.5L102.1 433.3L108.1 441.6L114.1 452.6L120.1 460.5L126.1 461.2L132.1 455.3L138.1 453.5L144.1 464L150.1 476.8L156.1 471.7L162.1 441.6L168.1 401.8L174.1 369.8L180.1 345.5L186.1 323.9L192.1 310.6L198.1 312.1L204.1 331.3L210.1 367.9L216.1 407.8L222.1 433.6L228.1 445.6L234.1 450.6L240.1 448.3L246.1 444.7L252.1 453.3L258.1 473.7L264 489.3L270 489.5L276 478.7L282 463.3L288 439.2L294 401.3L300 362.2L306 344.7L312 359.3L318 396.1L324 434.7L330 457.5L336 458.1L342 443.5L348 430.2L354 434.1L360 456.8L366 483.2L372 498.8L378 501L384 496.9L390 493.3L396 491.5L402 489.6L408 489.7L414 494.4L420 501L426 504.5L432 502.4L438 496.5L444 490.6L450 484.3L456 469.2L462 443.5L468 424.3L474 426.2L480 441.5L486 456.5L492 468L498 471.2L504 456.7L510 430.8L516 419.3L521.9 436.4L527.9 464.8L533.9 478.3L539.9 468L545.9 444.1L551.9 425.7L557.9 424.5L563.9 434L569.9 439.5L575.9 435.4L581.9 423.2L587.9 402.8L593.9 377.6L599.9 363.2L605.9 370.4L611.9 382.7L617.9 376.3L623.9 360.6L629.9 365.7L635.9 388.6L641.9 389.8L647.9 349.6L653.9 301.7L659.9 295.8L665.9 335.8L671.9 375.4L677.9 377.3L683.9 352.1L689.9 332L695.9 325.4L701.9 314.7L707.9 288.9"></path><polyline points="48.10,455.60 54.10,454.90 60.10,448.90 66.10,443.10 72.10,448.10 78.10,461.10 84.10,465.00 90.10,452.20 96.10,436.50 102.10,433.30 108.10,441.60 114.10,452.60 120.10,460.50 126.10,461.20 132.10,455.30 138.10,453.50 144.10,464.00 150.10,476.80 156.10,471.70 162.10,441.60 168.10,401.80 174.10,369.80 180.10,345.50 186.10,323.90 192.10,310.60 198.10,312.10 204.10,331.30 210.10,367.90 216.10,407.80 222.10,433.60 228.10,445.60 234.10,450.60 240.10,448.30 246.10,444.70 252.10,453.30 258.10,473.70 264.00,489.30 270.00,489.50 276.00,478.70 282.00,463.30 288.00,439.20 294.00,401.30 300.00,362.20 306.00,344.70 312.00,359.30 318.00,396.10 324.00,434.70 330.00,457.50 336.00,458.10 342.00,443.50 348.00,430.20 354.00,434.10 360.00,456.80 366.00,483.20 372.00,498.80 378.00,501.00 384.00,496.90 390.00,493.30 396.00,491.50 402.00,489.60 408.00,489.70 414.00,494.40 420.00,501.00 426.00,504.50 432.00,502.40 438.00,496.50 444.00,490.60 450.00,484.30 456.00,469.20 462.00,443.50 468.00,424.30 474.00,426.20 480.00,441.50 486.00,456.50 492.00,468.00 498.00,471.20 504.00,456.70 510.00,430.80 516.00,419.30 521.90,436.40 527.90,464.80 533.90,478.30 539.90,468.00 545.90,444.10 551.90,425.70 557.90,424.50 563.90,434.00 569.90,439.50 575.90,435.40 581.90,423.20 587.90,402.80 593.90,377.60 599.90,363.20 605.90,370.40 611.90,382.70 617.90,376.30 623.90,360.60 629.90,365.70 635.90,388.60 641.90,389.80 647.90,349.60 653.90,301.70 659.90,295.80 665.90,335.80 671.90,375.40 677.90,377.30 683.90,352.10 689.90,332.00 695.90,325.40 701.90,314.70 707.90,288.90" stroke-linejoin="round" stroke-width="1.5" stroke="#2C8465" fill="none" stroke-linecap="butt"></polyline><g><circle cx="48.1" cy="455.6" r="1.8" fill="#2C8465"></circle><circle cx="54.1" cy="454.9" r="1.8" fill="#2C8465"></circle><circle cx="60.1" cy="448.9" r="1.8" fill="#2C8465"></circle><circle cx="66.1" cy="443.1" r="1.8" fill="#2C8465"></circle><circle cx="72.1" cy="448.1" r="1.8" fill="#2C8465"></circle><circle cx="78.1" cy="461.1" r="1.8" fill="#2C8465"></circle><circle cx="84.1" cy="465" r="1.8" fill="#2C8465"></circle><circle cx="90.1" cy="452.2" r="1.8" fill="#2C8465"></circle><circle cx="96.1" cy="436.5" r="1.8" fill="#2C8465"></circle><circle cx="102.1" cy="433.3" r="1.8" fill="#2C8465"></circle><circle cx="108.1" cy="441.6" r="1.8" fill="#2C8465"></circle><circle cx="114.1" cy="452.6" r="1.8" fill="#2C8465"></circle><circle cx="120.1" cy="460.5" r="1.8" fill="#2C8465"></circle><circle cx="126.1" cy="461.2" r="1.8" fill="#2C8465"></circle><circle cx="132.1" cy="455.3" r="1.8" fill="#2C8465"></circle><circle cx="138.1" cy="453.5" r="1.8" fill="#2C8465"></circle><circle cx="144.1" cy="464" r="1.8" fill="#2C8465"></circle><circle cx="150.1" cy="476.8" r="1.8" fill="#2C8465"></circle><circle cx="156.1" cy="471.7" r="1.8" fill="#2C8465"></circle><circle cx="162.1" cy="441.6" r="1.8" fill="#2C8465"></circle><circle cx="168.1" cy="401.8" r="1.8" fill="#2C8465"></circle><circle cx="174.1" cy="369.8" r="1.8" fill="#2C8465"></circle><circle cx="180.1" cy="345.5" r="1.8" fill="#2C8465"></circle><circle cx="186.1" cy="323.9" r="1.8" fill="#2C8465"></circle><circle cx="192.1" cy="310.6" r="1.8" fill="#2C8465"></circle><circle cx="198.1" cy="312.1" r="1.8" fill="#2C8465"></circle><circle cx="204.1" cy="331.3" r="1.8" fill="#2C8465"></circle><circle cx="210.1" cy="367.9" r="1.8" fill="#2C8465"></circle><circle cx="216.1" cy="407.8" r="1.8" fill="#2C8465"></circle><circle cx="222.1" cy="433.6" r="1.8" fill="#2C8465"></circle><circle cx="228.1" cy="445.6" r="1.8" fill="#2C8465"></circle><circle cx="234.1" cy="450.6" r="1.8" fill="#2C8465"></circle><circle cx="240.1" cy="448.3" r="1.8" fill="#2C8465"></circle><circle cx="246.1" cy="444.7" r="1.8" fill="#2C8465"></circle><circle cx="252.1" cy="453.3" r="1.8" fill="#2C8465"></circle><circle cx="258.1" cy="473.7" r="1.8" fill="#2C8465"></circle><circle cx="264" cy="489.3" r="1.8" fill="#2C8465"></circle><circle cx="270" cy="489.5" r="1.8" fill="#2C8465"></circle><circle cx="276" cy="478.7" r="1.8" fill="#2C8465"></circle><circle cx="282" cy="463.3" r="1.8" fill="#2C8465"></circle><circle cx="288" cy="439.2" r="1.8" fill="#2C8465"></circle><circle cx="294" cy="401.3" r="1.8" fill="#2C8465"></circle><circle cx="300" cy="362.2" r="1.8" fill="#2C8465"></circle><circle cx="306" cy="344.7" r="1.8" fill="#2C8465"></circle><circle cx="312" cy="359.3" r="1.8" fill="#2C8465"></circle><circle cx="318" cy="396.1" r="1.8" fill="#2C8465"></circle><circle cx="324" cy="434.7" r="1.8" fill="#2C8465"></circle><circle cx="330" cy="457.5" r="1.8" fill="#2C8465"></circle><circle cx="336" cy="458.1" r="1.8" fill="#2C8465"></circle><circle cx="342" cy="443.5" r="1.8" fill="#2C8465"></circle><circle cx="348" cy="430.2" r="1.8" fill="#2C8465"></circle><circle cx="354" cy="434.1" r="1.8" fill="#2C8465"></circle><circle cx="360" cy="456.8" r="1.8" fill="#2C8465"></circle><circle cx="366" cy="483.2" r="1.8" fill="#2C8465"></circle><circle cx="372" cy="498.8" r="1.8" fill="#2C8465"></circle><circle cx="378" cy="501" r="1.8" fill="#2C8465"></circle><circle cx="384" cy="496.9" r="1.8" fill="#2C8465"></circle><circle cx="390" cy="493.3" r="1.8" fill="#2C8465"></circle><circle cx="396" cy="491.5" r="1.8" fill="#2C8465"></circle><circle cx="402" cy="489.6" r="1.8" fill="#2C8465"></circle><circle cx="408" cy="489.7" r="1.8" fill="#2C8465"></circle><circle cx="414" cy="494.4" r="1.8" fill="#2C8465"></circle><circle cx="420" cy="501" r="1.8" fill="#2C8465"></circle><circle cx="426" cy="504.5" r="1.8" fill="#2C8465"></circle><circle cx="432" cy="502.4" r="1.8" fill="#2C8465"></circle><circle cx="438" cy="496.5" r="1.8" fill="#2C8465"></circle><circle cx="444" cy="490.6" r="1.8" fill="#2C8465"></circle><circle cx="450" cy="484.3" r="1.8" fill="#2C8465"></circle><circle cx="456" cy="469.2" r="1.8" fill="#2C8465"></circle><circle cx="462" cy="443.5" r="1.8" fill="#2C8465"></circle><circle cx="468" cy="424.3" r="1.8" fill="#2C8465"></circle><circle cx="474" cy="426.2" r="1.8" fill="#2C8465"></circle><circle cx="480" cy="441.5" r="1.8" fill="#2C8465"></circle><circle cx="486" cy="456.5" r="1.8" fill="#2C8465"></circle><circle cx="492" cy="468" r="1.8" fill="#2C8465"></circle><circle cx="498" cy="471.2" r="1.8" fill="#2C8465"></circle><circle cx="504" cy="456.7" r="1.8" fill="#2C8465"></circle><circle cx="510" cy="430.8" r="1.8" fill="#2C8465"></circle><circle cx="516" cy="419.3" r="1.8" fill="#2C8465"></circle><circle cx="521.9" cy="436.4" r="1.8" fill="#2C8465"></circle><circle cx="527.9" cy="464.8" r="1.8" fill="#2C8465"></circle><circle cx="533.9" cy="478.3" r="1.8" fill="#2C8465"></circle><circle cx="539.9" cy="468" r="1.8" fill="#2C8465"></circle><circle cx="545.9" cy="444.1" r="1.8" fill="#2C8465"></circle><circle cx="551.9" cy="425.7" r="1.8" fill="#2C8465"></circle><circle cx="557.9" cy="424.5" r="1.8" fill="#2C8465"></circle><circle cx="563.9" cy="434" r="1.8" fill="#2C8465"></circle><circle cx="569.9" cy="439.5" r="1.8" fill="#2C8465"></circle><circle cx="575.9" cy="435.4" r="1.8" fill="#2C8465"></circle><circle cx="581.9" cy="423.2" r="1.8" fill="#2C8465"></circle><circle cx="587.9" cy="402.8" r="1.8" fill="#2C8465"></circle><circle cx="593.9" cy="377.6" r="1.8" fill="#2C8465"></circle><circle cx="599.9" cy="363.2" r="1.8" fill="#2C8465"></circle><circle cx="605.9" cy="370.4" r="1.8" fill="#2C8465"></circle><circle cx="611.9" cy="382.7" r="1.8" fill="#2C8465"></circle><circle cx="617.9" cy="376.3" r="1.8" fill="#2C8465"></circle><circle cx="623.9" cy="360.6" r="1.8" fill="#2C8465"></circle><circle cx="629.9" cy="365.7" r="1.8" fill="#2C8465"></circle><circle cx="635.9" cy="388.6" r="1.8" fill="#2C8465"></circle><circle cx="641.9" cy="389.8" r="1.8" fill="#2C8465"></circle><circle cx="647.9" cy="349.6" r="1.8" fill="#2C8465"></circle><circle cx="653.9" cy="301.7" r="1.8" fill="#2C8465"></circle><circle cx="659.9" cy="295.8" r="1.8" fill="#2C8465"></circle><circle cx="665.9" cy="335.8" r="1.8" fill="#2C8465"></circle><circle cx="671.9" cy="375.4" r="1.8" fill="#2C8465"></circle><circle cx="677.9" cy="377.3" r="1.8" fill="#2C8465"></circle><circle cx="683.9" cy="352.1" r="1.8" fill="#2C8465"></circle><circle cx="689.9" cy="332" r="1.8" fill="#2C8465"></circle><circle cx="695.9" cy="325.4" r="1.8" fill="#2C8465"></circle><circle cx="701.9" cy="314.7" r="1.8" fill="#2C8465"></circle><circle cx="707.9" cy="288.9" r="1.8" fill="#2C8465"></circle></g></g><g><path fill="none" stroke-linecap="butt" stroke-linejoin="round" stroke="#fff" stroke-width="2.5" d="M48.1 454L54.1 443.6L60.1 509.9L66.1 389.3L72.1 402.1L78.1 502.7L84.1 509.1L90.1 460.4L96.1 390.9L102.1 390.9L108.1 513.1L114.1 399.7L120.1 471.6L126.1 508.3L132.1 446L138.1 399.7L144.1 465.2L150.1 504.3L156.1 509.9L162.1 495.5L168.1 338.2L174.1 308.6L180.1 463.6L186.1 275.9L192.1 184.8L198.1 501.1L204.1 126.5L210.1 409.3L216.1 462.8L222.1 477.2L228.1 359L234.1 507.5L240.1 505.9L246.1 355.8L252.1 432.4L258.1 509.1L264 507.5L270 506.7L276 482.8L282 420.5L288 512.3L294 438.8L300 255.9L306 366.1L312 271.1L318 440.4L324 432.4L330 509.9L336 465.2L342 446.8L348 429.2L354 339L360 501.1L366 498.7L372 509.9L378 513.1L384 497.1L390 465.2L396 513.1L402 505.9L408 442L414 512.3L420 510.7L426 500.3L432 511.5L438 511.5L444 458.8L450 494.7L456 497.9L462 511.5L468 260.7L474 454.8L480 511.5L486 383.7L492 498.7L498 489.1L504 491.5L510 475.6L516 228.8L521.9 504.3L527.9 496.3L533.9 485.9L539.9 501.1L545.9 467.6L551.9 324.6L557.9 458.8L563.9 411.7L569.9 509.1L575.9 377.3L581.9 474L587.9 385.3L593.9 425.2L599.9 279.1L605.9 303L611.9 497.1L617.9 438.8L623.9 264.7L629.9 267.9L635.9 477.2L641.9 478.8L647.9 390.9L653.9 222.4L659.9 122.5L665.9 398.1L671.9 482L677.9 418.9L683.9 296.7L689.9 302.3L695.9 303L701.9 434L707.9 236"></path><polyline points="48.10,454.00 54.10,443.60 60.10,509.90 66.10,389.30 72.10,402.10 78.10,502.70 84.10,509.10 90.10,460.40 96.10,390.90 102.10,390.90 108.10,513.10 114.10,399.70 120.10,471.60 126.10,508.30 132.10,446.00 138.10,399.70 144.10,465.20 150.10,504.30 156.10,509.90 162.10,495.50 168.10,338.20 174.10,308.60 180.10,463.60 186.10,275.90 192.10,184.80 198.10,501.10 204.10,126.50 210.10,409.30 216.10,462.80 222.10,477.20 228.10,359.00 234.10,507.50 240.10,505.90 246.10,355.80 252.10,432.40 258.10,509.10 264.00,507.50 270.00,506.70 276.00,482.80 282.00,420.50 288.00,512.30 294.00,438.80 300.00,255.90 306.00,366.10 312.00,271.10 318.00,440.40 324.00,432.40 330.00,509.90 336.00,465.20 342.00,446.80 348.00,429.20 354.00,339.00 360.00,501.10 366.00,498.70 372.00,509.90 378.00,513.10 384.00,497.10 390.00,465.20 396.00,513.10 402.00,505.90 408.00,442.00 414.00,512.30 420.00,510.70 426.00,500.30 432.00,511.50 438.00,511.50 444.00,458.80 450.00,494.70 456.00,497.90 462.00,511.50 468.00,260.70 474.00,454.80 480.00,511.50 486.00,383.70 492.00,498.70 498.00,489.10 504.00,491.50 510.00,475.60 516.00,228.80 521.90,504.30 527.90,496.30 533.90,485.90 539.90,501.10 545.90,467.60 551.90,324.60 557.90,458.80 563.90,411.70 569.90,509.10 575.90,377.30 581.90,474.00 587.90,385.30 593.90,425.20 599.90,279.10 605.90,303.00 611.90,497.10 617.90,438.80 623.90,264.70 629.90,267.90 635.90,477.20 641.90,478.80 647.90,390.90 653.90,222.40 659.90,122.50 665.90,398.10 671.90,482.00 677.90,418.90 683.90,296.70 689.90,302.30 695.90,303.00 701.90,434.00 707.90,236.00" stroke-linejoin="round" stroke-width="1.5" stroke="#C15065" fill="none" stroke-linecap="butt"></polyline><g><circle cx="48.1" cy="454" r="1.8" fill="#C15065"></circle><circle cx="54.1" cy="443.6" r="1.8" fill="#C15065"></circle><circle cx="60.1" cy="509.9" r="1.8" fill="#C15065"></circle><circle cx="66.1" cy="389.3" r="1.8" fill="#C15065"></circle><circle cx="72.1" cy="402.1" r="1.8" fill="#C15065"></circle><circle cx="78.1" cy="502.7" r="1.8" fill="#C15065"></circle><circle cx="84.1" cy="509.1" r="1.8" fill="#C15065"></circle><circle cx="90.1" cy="460.4" r="1.8" fill="#C15065"></circle><circle cx="96.1" cy="390.9" r="1.8" fill="#C15065"></circle><circle cx="102.1" cy="390.9" r="1.8" fill="#C15065"></circle><circle cx="108.1" cy="513.1" r="1.8" fill="#C15065"></circle><circle cx="114.1" cy="399.7" r="1.8" fill="#C15065"></circle><circle cx="120.1" cy="471.6" r="1.8" fill="#C15065"></circle><circle cx="126.1" cy="508.3" r="1.8" fill="#C15065"></circle><circle cx="132.1" cy="446" r="1.8" fill="#C15065"></circle><circle cx="138.1" cy="399.7" r="1.8" fill="#C15065"></circle><circle cx="144.1" cy="465.2" r="1.8" fill="#C15065"></circle><circle cx="150.1" cy="504.3" r="1.8" fill="#C15065"></circle><circle cx="156.1" cy="509.9" r="1.8" fill="#C15065"></circle><circle cx="162.1" cy="495.5" r="1.8" fill="#C15065"></circle><circle cx="168.1" cy="338.2" r="1.8" fill="#C15065"></circle><circle cx="174.1" cy="308.6" r="1.8" fill="#C15065"></circle><circle cx="180.1" cy="463.6" r="1.8" fill="#C15065"></circle><circle cx="186.1" cy="275.9" r="1.8" fill="#C15065"></circle><circle cx="192.1" cy="184.8" r="1.8" fill="#C15065"></circle><circle cx="198.1" cy="501.1" r="1.8" fill="#C15065"></circle><circle cx="204.1" cy="126.5" r="1.8" fill="#C15065"></circle><circle cx="210.1" cy="409.3" r="1.8" fill="#C15065"></circle><circle cx="216.1" cy="462.8" r="1.8" fill="#C15065"></circle><circle cx="222.1" cy="477.2" r="1.8" fill="#C15065"></circle><circle cx="228.1" cy="359" r="1.8" fill="#C15065"></circle><circle cx="234.1" cy="507.5" r="1.8" fill="#C15065"></circle><circle cx="240.1" cy="505.9" r="1.8" fill="#C15065"></circle><circle cx="246.1" cy="355.8" r="1.8" fill="#C15065"></circle><circle cx="252.1" cy="432.4" r="1.8" fill="#C15065"></circle><circle cx="258.1" cy="509.1" r="1.8" fill="#C15065"></circle><circle cx="264" cy="507.5" r="1.8" fill="#C15065"></circle><circle cx="270" cy="506.7" r="1.8" fill="#C15065"></circle><circle cx="276" cy="482.8" r="1.8" fill="#C15065"></circle><circle cx="282" cy="420.5" r="1.8" fill="#C15065"></circle><circle cx="288" cy="512.3" r="1.8" fill="#C15065"></circle><circle cx="294" cy="438.8" r="1.8" fill="#C15065"></circle><circle cx="300" cy="255.9" r="1.8" fill="#C15065"></circle><circle cx="306" cy="366.1" r="1.8" fill="#C15065"></circle><circle cx="312" cy="271.1" r="1.8" fill="#C15065"></circle><circle cx="318" cy="440.4" r="1.8" fill="#C15065"></circle><circle cx="324" cy="432.4" r="1.8" fill="#C15065"></circle><circle cx="330" cy="509.9" r="1.8" fill="#C15065"></circle><circle cx="336" cy="465.2" r="1.8" fill="#C15065"></circle><circle cx="342" cy="446.8" r="1.8" fill="#C15065"></circle><circle cx="348" cy="429.2" r="1.8" fill="#C15065"></circle><circle cx="354" cy="339" r="1.8" fill="#C15065"></circle><circle cx="360" cy="501.1" r="1.8" fill="#C15065"></circle><circle cx="366" cy="498.7" r="1.8" fill="#C15065"></circle><circle cx="372" cy="509.9" r="1.8" fill="#C15065"></circle><circle cx="378" cy="513.1" r="1.8" fill="#C15065"></circle><circle cx="384" cy="497.1" r="1.8" fill="#C15065"></circle><circle cx="390" cy="465.2" r="1.8" fill="#C15065"></circle><circle cx="396" cy="513.1" r="1.8" fill="#C15065"></circle><circle cx="402" cy="505.9" r="1.8" fill="#C15065"></circle><circle cx="408" cy="442" r="1.8" fill="#C15065"></circle><circle cx="414" cy="512.3" r="1.8" fill="#C15065"></circle><circle cx="420" cy="510.7" r="1.8" fill="#C15065"></circle><circle cx="426" cy="500.3" r="1.8" fill="#C15065"></circle><circle cx="432" cy="511.5" r="1.8" fill="#C15065"></circle><circle cx="438" cy="511.5" r="1.8" fill="#C15065"></circle><circle cx="444" cy="458.8" r="1.8" fill="#C15065"></circle><circle cx="450" cy="494.7" r="1.8" fill="#C15065"></circle><circle cx="456" cy="497.9" r="1.8" fill="#C15065"></circle><circle cx="462" cy="511.5" r="1.8" fill="#C15065"></circle><circle cx="468" cy="260.7" r="1.8" fill="#C15065"></circle><circle cx="474" cy="454.8" r="1.8" fill="#C15065"></circle><circle cx="480" cy="511.5" r="1.8" fill="#C15065"></circle><circle cx="486" cy="383.7" r="1.8" fill="#C15065"></circle><circle cx="492" cy="498.7" r="1.8" fill="#C15065"></circle><circle cx="498" cy="489.1" r="1.8" fill="#C15065"></circle><circle cx="504" cy="491.5" r="1.8" fill="#C15065"></circle><circle cx="510" cy="475.6" r="1.8" fill="#C15065"></circle><circle cx="516" cy="228.8" r="1.8" fill="#C15065"></circle><circle cx="521.9" cy="504.3" r="1.8" fill="#C15065"></circle><circle cx="527.9" cy="496.3" r="1.8" fill="#C15065"></circle><circle cx="533.9" cy="485.9" r="1.8" fill="#C15065"></circle><circle cx="539.9" cy="501.1" r="1.8" fill="#C15065"></circle><circle cx="545.9" cy="467.6" r="1.8" fill="#C15065"></circle><circle cx="551.9" cy="324.6" r="1.8" fill="#C15065"></circle><circle cx="557.9" cy="458.8" r="1.8" fill="#C15065"></circle><circle cx="563.9" cy="411.7" r="1.8" fill="#C15065"></circle><circle cx="569.9" cy="509.1" r="1.8" fill="#C15065"></circle><circle cx="575.9" cy="377.3" r="1.8" fill="#C15065"></circle><circle cx="581.9" cy="474" r="1.8" fill="#C15065"></circle><circle cx="587.9" cy="385.3" r="1.8" fill="#C15065"></circle><circle cx="593.9" cy="425.2" r="1.8" fill="#C15065"></circle><circle cx="599.9" cy="279.1" r="1.8" fill="#C15065"></circle><circle cx="605.9" cy="303" r="1.8" fill="#C15065"></circle><circle cx="611.9" cy="497.1" r="1.8" fill="#C15065"></circle><circle cx="617.9" cy="438.8" r="1.8" fill="#C15065"></circle><circle cx="623.9" cy="264.7" r="1.8" fill="#C15065"></circle><circle cx="629.9" cy="267.9" r="1.8" fill="#C15065"></circle><circle cx="635.9" cy="477.2" r="1.8" fill="#C15065"></circle><circle cx="641.9" cy="478.8" r="1.8" fill="#C15065"></circle><circle cx="647.9" cy="390.9" r="1.8" fill="#C15065"></circle><circle cx="653.9" cy="222.4" r="1.8" fill="#C15065"></circle><circle cx="659.9" cy="122.5" r="1.8" fill="#C15065"></circle><circle cx="665.9" cy="398.1" r="1.8" fill="#C15065"></circle><circle cx="671.9" cy="482" r="1.8" fill="#C15065"></circle><circle cx="677.9" cy="418.9" r="1.8" fill="#C15065"></circle><circle cx="683.9" cy="296.7" r="1.8" fill="#C15065"></circle><circle cx="689.9" cy="302.3" r="1.8" fill="#C15065"></circle><circle cx="695.9" cy="303" r="1.8" fill="#C15065"></circle><circle cx="701.9" cy="434" r="1.8" fill="#C15065"></circle><circle cx="707.9" cy="236" r="1.8" fill="#C15065"></circle></g></g></g></g></g></g><g class="SourcesFooter" style="fill:#5b5b5b"><text x="16.0" y="562.7" style="font-size:13.5px;line-height:1.2"><tspan x="16" y="562.7"><tspan style="font-weight:700">Data source:</tspan> National Oceanic &amp; Atmospheric Administration (NOAA) via the US EPA</tspan></text><text font-size="13.50" x="16.0" y="580.9"><tspan x="16" y="580.8950000000001"><a target="_blank" style="fill: #5b5b5b;  text-decoration: underline;" href="https://ourworldindata.org/natural-disasters">OurWorldInData.org/natural-disasters</a> | <a target="_blank" style="fill: #5b5b5b;  text-decoration: underline;" href="https://creativecommons.org/licenses/by/4.0/">CC BY</a></tspan></text></g></svg>