<svg xmlns="http://www.w3.org/2000/svg" version="1.1" style="font-family:Lato, &#x27;Helvetica Neue&#x27;, Helvetica, Arial, &#x27;Liberation Sans&#x27;, sans-serif;font-size:18px;background-color:white;text-rendering:geometricPrecision;-webkit-font-smoothing:antialiased" width="850" height="600" viewBox="0 0 850 600"><defs><pattern id="noDataPattern" patternUnits="userSpaceOnUse" width="4" height="4" patternTransform="rotate(-45 2 2)"><path d="M -1,2 l 6,0" stroke="#ccc" stroke-width="0.7"></path></pattern></defs><rect class="background-fill" fill="white" width="850" height="600"></rect><g class="HeaderView"><g transform="translate(774, 15) scale(0.29)"><svg className="owidLog" width="210" height="120" viewBox="0 0 210 120" fill="none" xmlns="http://www.w3.org/2000/svg">
<g clip-path="url(#clip0)">
  <path d="M0 0h210v107.89H0V0z" fill="#002147" />
  <path
    d="M40.98 32.25c0 2.36-.38 4.53-1.12 6.51a14.26 14.26 0 0 1-8.1 8.4c-1.9.78-4.02 1.17-6.34 1.17-2.31 0-4.42-.39-6.33-1.17a14.31 14.31 0 0 1-8.08-8.4 18.29 18.29 0 0 1-1.12-6.51c0-2.36.38-4.53 1.12-6.5.75-1.97 1.8-3.67 3.17-5.1a14.32 14.32 0 0 1 4.9-3.34c1.92-.8 4.03-1.19 6.34-1.19 2.32 0 4.43.4 6.34 1.19 1.92.8 3.56 1.9 4.93 3.34a14.87 14.87 0 0 1 3.17 5.1 18.1 18.1 0 0 1 1.12 6.5zm-4.38 0c0-1.94-.26-3.68-.8-5.22a10.91 10.91 0 0 0-2.24-3.89 9.68 9.68 0 0 0-3.52-2.46 11.95 11.95 0 0 0-4.62-.86c-1.68 0-3.21.28-4.6.86a9.88 9.88 0 0 0-3.54 2.46 10.91 10.91 0 0 0-2.24 3.9c-.53 1.53-.8 3.27-.8 5.2 0 1.94.27 3.68.8 5.22a11.17 11.17 0 0 0 2.24 3.9 10.01 10.01 0 0 0 3.55 2.44c1.38.56 2.9.83 4.6.83s3.24-.27 4.61-.83a9.8 9.8 0 0 0 3.52-2.44 11.17 11.17 0 0 0 2.25-3.9c.53-1.54.8-3.28.8-5.21zm26.22-6.54V48H60.5c-.56 0-.9-.27-1.05-.81l-.31-2.4a12.45 12.45 0 0 1-3.26 2.6c-1.2.64-2.58.96-4.13.96-1.22 0-2.3-.2-3.24-.6a6.52 6.52 0 0 1-2.33-1.7 7.37 7.37 0 0 1-1.43-2.67c-.3-1.04-.46-2.2-.46-3.45V25.7h3.91v14.22c0 1.68.38 2.99 1.15 3.91.77.93 1.96 1.39 3.54 1.39 1.16 0 2.24-.27 3.23-.82a10.42 10.42 0 0 0 2.8-2.28V25.7h3.91zm8.61 4.47a9.94 9.94 0 0 1 2.6-3.56 5.64 5.64 0 0 1 3.76-1.3c.47 0 .92.05 1.34.15.44.1.83.27 1.17.49l-.3 2.92c-.09.37-.3.55-.66.55-.2 0-.5-.04-.9-.13a6.21 6.21 0 0 0-3.24.18 4.23 4.23 0 0 0-1.47.92c-.42.4-.81.9-1.17 1.5-.33.58-.64 1.26-.92 2.02V48H67.7V25.71h2.25c.42 0 .72.08.88.25.16.16.27.44.33.83l.26 3.39zm61.16-13.7L122.75 48h-3.82l-7.99-24.05a21.95 21.95 0 0 1-.42-1.58 38.36 38.36 0 0 1-.44 1.58L102.05 48h-3.83L88.4 16.47h3.54c.38 0 .7.1.95.29.26.2.43.43.5.73l6.52 21.9.28 1.28.29 1.46.3-1.46.38-1.27 7.41-21.91c.1-.25.26-.48.51-.69.27-.22.58-.33.95-.33h1.23c.38 0 .69.1.92.29a1.77 1.77 0 0 1 .53.73l7.4 21.9a28.4 28.4 0 0 1 .68 2.62 29.52 29.52 0 0 1 .52-2.61l6.54-21.91a1.31 1.31 0 0 1 .48-.7c.27-.21.58-.32.95-.32h3.32zm9.35 8.88c1.63 0 3.1.27 4.4.82a9.43 9.43 0 0 1 5.46 5.94c.5 1.4.74 2.98.74 4.73 0 1.76-.25 3.34-.74 4.75a9.43 9.43 0 0 1-5.46 5.92c-1.3.52-2.77.79-4.4.79-1.64 0-3.12-.27-4.44-.8a9.42 9.42 0 0 1-3.35-2.3c-.92-1-1.63-2.2-2.13-3.61-.49-1.41-.73-3-.73-4.75s.24-3.33.73-4.73c.5-1.43 1.2-2.64 2.13-3.63.93-1 2.04-1.77 3.35-2.31 1.32-.55 2.8-.82 4.44-.82zm0 19.89c2.2 0 3.84-.73 4.93-2.2 1.08-1.48 1.63-3.54 1.63-6.18 0-2.66-.55-4.72-1.63-6.2-1.09-1.49-2.73-2.23-4.93-2.23-1.12 0-2.09.2-2.93.57a5.71 5.71 0 0 0-2.06 1.65c-.55.72-.96 1.61-1.24 2.67-.26 1.04-.4 2.22-.4 3.54 0 2.64.55 4.7 1.64 6.18 1.1 1.47 2.76 2.2 4.99 2.2zm17.97-15.07a9.94 9.94 0 0 1 2.6-3.56 5.64 5.64 0 0 1 3.76-1.3c.47 0 .91.05 1.34.15.44.1.83.27 1.16.49l-.28 2.92c-.09.37-.31.55-.66.55-.2 0-.5-.04-.9-.13a6.2 6.2 0 0 0-3.24.18 4.23 4.23 0 0 0-1.47.92c-.43.4-.82.9-1.17 1.5a13.1 13.1 0 0 0-.92 2.02V48h-3.94V25.71h2.24c.43 0 .72.08.88.25.17.16.28.44.33.83l.27 3.39zm15.04-14.59V48h-3.92V15.6h3.92zm19.55 15.43a6.22 6.22 0 0 0-2.38-2.05 6.7 6.7 0 0 0-2.86-.6c-2.07 0-3.66.75-4.77 2.23-1.12 1.48-1.68 3.6-1.68 6.33 0 1.46.13 2.7.38 3.74a7.29 7.29 0 0 0 1.1 2.56 4.35 4.35 0 0 0 1.78 1.45c.7.3 1.5.46 2.4.46 1.29 0 2.41-.3 3.36-.88a9.6 9.6 0 0 0 2.67-2.49V31.02zm3.91-15.43V48h-2.33c-.56 0-.9-.27-1.06-.81l-.35-2.71a12.13 12.13 0 0 1-3.25 2.77 8.28 8.28 0 0 1-4.23 1.06 7.31 7.31 0 0 1-6.14-2.9c-.73-.96-1.3-2.15-1.69-3.57a18.35 18.35 0 0 1 .07-9.48 11.29 11.29 0 0 1 1.89-3.7 8.7 8.7 0 0 1 7.06-3.34 7.96 7.96 0 0 1 6.12 2.62V15.59h3.91zM46.61 70.71V93H42.7V70.71h3.91zm.84-7c0 .39-.08.75-.24 1.09-.15.32-.35.61-.62.88-.25.25-.55.44-.9.59a2.67 2.67 0 0 1-2.16 0 2.9 2.9 0 0 1-1.45-1.47 2.67 2.67 0 0 1 0-2.16c.15-.35.35-.65.6-.9.25-.27.53-.47.85-.62a2.67 2.67 0 0 1 2.16 0c.35.15.65.35.9.62.27.25.47.55.62.9.16.34.24.7.24 1.08zm7.97 10.24c.49-.54 1-1.04 1.54-1.48a9.85 9.85 0 0 1 3.66-1.84 8.96 8.96 0 0 1 5.43.35c.94.4 1.72.97 2.33 1.71.63.74 1.11 1.62 1.43 2.67.32 1.04.49 2.19.49 3.45V93h-3.94V78.81c0-1.69-.4-3-1.17-3.92-.76-.93-1.93-1.4-3.5-1.4-1.15 0-2.24.27-3.25.83-1 .56-1.92 1.31-2.77 2.27V93h-3.94V70.71h2.35c.56 0 .9.28 1.04.82l.3 2.42zm57.7 3.3c0 2.36-.37 4.5-1.11 6.44a14.3 14.3 0 0 1-3.17 4.98c-1.37 1.37-3 2.45-4.93 3.2-1.9.76-4.02 1.13-6.33 1.13H85.8V61.47h11.77c2.31 0 4.42.39 6.33 1.15a13.8 13.8 0 0 1 8.1 8.18 17.75 17.75 0 0 1 1.12 6.45zm-4.37 0c0-1.94-.26-3.67-.8-5.2a10.94 10.94 0 0 0-2.23-3.87 9.57 9.57 0 0 0-3.53-2.42 12.23 12.23 0 0 0-4.61-.83h-7.5v24.62h7.5c1.7 0 3.24-.28 4.61-.84a9.7 9.7 0 0 0 3.53-2.4 10.94 10.94 0 0 0 2.24-3.87c.53-1.53.8-3.26.8-5.2zm19.8 5.72c-1.8.06-3.34.2-4.62.44-1.26.22-2.3.51-3.1.88-.8.36-1.37.8-1.74 1.3-.35.5-.53 1.05-.53 1.67 0 .58.1 1.1.3 1.52a3 3 0 0 0 .76 1.05c.34.27.73.46 1.17.6a6.13 6.13 0 0 0 1.45.17 7.28 7.28 0 0 0 3.5-.81 11.95 11.95 0 0 0 2.82-2.2v-4.62zm-12.65-9.11a12.73 12.73 0 0 1 3.98-2.66c1.43-.59 3-.88 4.73-.88 1.25 0 2.36.2 3.33.61a6.81 6.81 0 0 1 3.94 4.38c.33 1.04.5 2.19.5 3.43V93h-1.74a1.8 1.8 0 0 1-.88-.18c-.2-.13-.36-.38-.48-.74l-.44-2.12-1.72 1.46a9.48 9.48 0 0 1-3.74 1.7c-.69.15-1.46.23-2.3.23-.87 0-1.69-.12-2.45-.35a5.34 5.34 0 0 1-3.34-2.93 6.64 6.64 0 0 1-.49-2.64c0-.88.25-1.72.73-2.53a6.33 6.33 0 0 1 2.35-2.17c1.09-.63 2.5-1.15 4.25-1.54 1.75-.41 3.89-.65 6.42-.7v-1.75c0-1.73-.37-3.03-1.12-3.91-.75-.9-1.84-1.34-3.28-1.34-.97 0-1.78.12-2.44.37-.64.23-1.2.5-1.7.81l-1.23.82c-.33.23-.67.35-1 .35-.27 0-.5-.07-.69-.2a2.1 2.1 0 0 1-.48-.53l-.7-1.25zm27.67 19.5c-1.76 0-3.12-.5-4.07-1.48-.94-.98-1.41-2.4-1.41-4.25V74h-2.68a.9.9 0 0 1-.6-.2c-.16-.14-.24-.36-.24-.66v-1.56l3.65-.46.9-6.89c.05-.22.14-.4.29-.52a.88.88 0 0 1 .62-.22H142v7.67h6.44V74H142v13.38c0 .94.22 1.63.68 2.09.45.45 1.04.68 1.76.68a3.21 3.21 0 0 0 1.85-.53l.55-.35c.16-.12.3-.18.41-.18.2 0 .4.13.55.38l1.15 1.87a7.45 7.45 0 0 1-2.44 1.5 8.53 8.53 0 0 1-2.95.52zm19.68-10.4c-1.8.07-3.34.21-4.62.45-1.26.22-2.3.51-3.1.88-.8.36-1.37.8-1.74 1.3-.35.5-.53 1.05-.53 1.67 0 .58.1 1.1.3 1.52a2.9 2.9 0 0 0 .76 1.05c.34.27.73.46 1.17.6a6.13 6.13 0 0 0 1.45.17 7.3 7.3 0 0 0 3.5-.81 12.04 12.04 0 0 0 2.82-2.2v-4.62zm-12.65-9.1a12.72 12.72 0 0 1 3.99-2.66c1.42-.59 3-.88 4.72-.88 1.25 0 2.36.2 3.33.61a6.81 6.81 0 0 1 3.94 4.38c.33 1.04.5 2.19.5 3.43V93h-1.74a1.8 1.8 0 0 1-.88-.18c-.2-.13-.36-.38-.48-.74l-.44-2.12-1.72 1.46a9.48 9.48 0 0 1-3.74 1.7c-.69.15-1.46.23-2.3.23-.87 0-1.69-.12-2.45-.35a5.33 5.33 0 0 1-3.34-2.93 6.62 6.62 0 0 1-.49-2.64c0-.88.25-1.72.73-2.53a6.33 6.33 0 0 1 2.35-2.17c1.09-.63 2.5-1.15 4.25-1.54 1.74-.41 3.89-.65 6.42-.7v-1.75c0-1.73-.37-3.03-1.12-3.91-.75-.9-1.84-1.34-3.28-1.34-.97 0-1.78.12-2.44.37-.64.23-1.2.5-1.7.81l-1.22.82c-.34.23-.68.35-1.02.35-.26 0-.49-.07-.68-.2a1.88 1.88 0 0 1-.48-.53l-.7-1.25zM40.98 32.25c0 2.36-.38 4.53-1.12 6.51a14.26 14.26 0 0 1-8.1 8.4c-1.9.78-4.02 1.17-6.34 1.17-2.31 0-4.42-.39-6.33-1.17a14.31 14.31 0 0 1-8.08-8.4 18.29 18.29 0 0 1-1.12-6.51c0-2.36.38-4.53 1.12-6.5.75-1.97 1.8-3.67 3.17-5.1a14.32 14.32 0 0 1 4.9-3.34c1.92-.8 4.03-1.19 6.34-1.19 2.32 0 4.43.4 6.34 1.19 1.92.8 3.56 1.9 4.93 3.34a14.87 14.87 0 0 1 3.17 5.1 18.1 18.1 0 0 1 1.12 6.5zm-4.38 0c0-1.94-.26-3.68-.8-5.22a10.91 10.91 0 0 0-2.24-3.89 9.68 9.68 0 0 0-3.52-2.46 11.95 11.95 0 0 0-4.62-.86c-1.68 0-3.21.28-4.6.86a9.88 9.88 0 0 0-3.54 2.46 10.91 10.91 0 0 0-2.24 3.9c-.53 1.53-.8 3.27-.8 5.2 0 1.94.27 3.68.8 5.22a11.17 11.17 0 0 0 2.24 3.9 10.01 10.01 0 0 0 3.55 2.44c1.38.56 2.9.83 4.6.83s3.24-.27 4.61-.83a9.8 9.8 0 0 0 3.52-2.44 11.17 11.17 0 0 0 2.25-3.9c.53-1.54.8-3.28.8-5.21zm26.22-6.54V48H60.5c-.56 0-.9-.27-1.05-.81l-.31-2.4a12.45 12.45 0 0 1-3.26 2.6c-1.2.64-2.58.96-4.13.96-1.22 0-2.3-.2-3.24-.6a6.52 6.52 0 0 1-2.33-1.7 7.37 7.37 0 0 1-1.43-2.67c-.3-1.04-.46-2.2-.46-3.45V25.7h3.91v14.22c0 1.68.38 2.99 1.15 3.91.77.93 1.96 1.39 3.54 1.39 1.16 0 2.24-.27 3.23-.82a10.42 10.42 0 0 0 2.8-2.28V25.7h3.91zm8.61 4.47a9.94 9.94 0 0 1 2.6-3.56 5.64 5.64 0 0 1 3.76-1.3c.47 0 .92.05 1.34.15.44.1.83.27 1.17.49l-.3 2.92c-.09.37-.3.55-.66.55-.2 0-.5-.04-.9-.13a6.21 6.21 0 0 0-3.24.18 4.23 4.23 0 0 0-1.47.92c-.42.4-.81.9-1.17 1.5-.33.58-.64 1.26-.92 2.02V48H67.7V25.71h2.25c.42 0 .72.08.88.25.16.16.27.44.33.83l.26 3.39zm61.16-13.7L122.75 48h-3.82l-7.99-24.05a21.95 21.95 0 0 1-.42-1.58 38.36 38.36 0 0 1-.44 1.58L102.05 48h-3.83L88.4 16.47h3.54c.38 0 .7.1.95.29.26.2.43.43.5.73l6.52 21.9.28 1.28.29 1.46.3-1.46.38-1.27 7.41-21.91c.1-.25.26-.48.51-.69.27-.22.58-.33.95-.33h1.23c.38 0 .69.1.92.29a1.77 1.77 0 0 1 .53.73l7.4 21.9a28.4 28.4 0 0 1 .68 2.62 29.52 29.52 0 0 1 .52-2.61l6.54-21.91a1.31 1.31 0 0 1 .48-.7c.27-.21.58-.32.95-.32h3.32zm9.35 8.88c1.63 0 3.1.27 4.4.82a9.43 9.43 0 0 1 5.46 5.94c.5 1.4.74 2.98.74 4.73 0 1.76-.25 3.34-.74 4.75a9.43 9.43 0 0 1-5.46 5.92c-1.3.52-2.77.79-4.4.79-1.64 0-3.12-.27-4.44-.8a9.42 9.42 0 0 1-3.35-2.3c-.92-1-1.63-2.2-2.13-3.61-.49-1.41-.73-3-.73-4.75s.24-3.33.73-4.73c.5-1.43 1.2-2.64 2.13-3.63.93-1 2.04-1.77 3.35-2.31 1.32-.55 2.8-.82 4.44-.82zm0 19.89c2.2 0 3.84-.73 4.93-2.2 1.08-1.48 1.63-3.54 1.63-6.18 0-2.66-.55-4.72-1.63-6.2-1.09-1.49-2.73-2.23-4.93-2.23-1.12 0-2.09.2-2.93.57a5.71 5.71 0 0 0-2.06 1.65c-.55.72-.96 1.61-1.24 2.67-.26 1.04-.4 2.22-.4 3.54 0 2.64.55 4.7 1.64 6.18 1.1 1.47 2.76 2.2 4.99 2.2zm17.97-15.07a9.94 9.94 0 0 1 2.6-3.56 5.64 5.64 0 0 1 3.76-1.3c.47 0 .91.05 1.34.15.44.1.83.27 1.16.49l-.28 2.92c-.09.37-.31.55-.66.55-.2 0-.5-.04-.9-.13a6.2 6.2 0 0 0-3.24.18 4.23 4.23 0 0 0-1.47.92c-.43.4-.82.9-1.17 1.5a13.1 13.1 0 0 0-.92 2.02V48h-3.94V25.71h2.24c.43 0 .72.08.88.25.17.16.28.44.33.83l.27 3.39zm15.04-14.59V48h-3.92V15.6h3.92zm19.55 15.43a6.22 6.22 0 0 0-2.38-2.05 6.7 6.7 0 0 0-2.86-.6c-2.07 0-3.66.75-4.77 2.23-1.12 1.48-1.68 3.6-1.68 6.33 0 1.46.13 2.7.38 3.74a7.29 7.29 0 0 0 1.1 2.56 4.35 4.35 0 0 0 1.78 1.45c.7.3 1.5.46 2.4.46 1.29 0 2.41-.3 3.36-.88a9.6 9.6 0 0 0 2.67-2.49V31.02zm3.91-15.43V48h-2.33c-.56 0-.9-.27-1.06-.81l-.35-2.71a12.13 12.13 0 0 1-3.25 2.77 8.28 8.28 0 0 1-4.23 1.06 7.31 7.31 0 0 1-6.14-2.9c-.73-.96-1.3-2.15-1.69-3.57a18.35 18.35 0 0 1 .07-9.48 11.29 11.29 0 0 1 1.89-3.7 8.7 8.7 0 0 1 7.06-3.34 7.96 7.96 0 0 1 6.12 2.62V15.59h3.91zM46.61 70.71V93H42.7V70.71h3.91zm.84-7c0 .39-.08.75-.24 1.09-.15.32-.35.61-.62.88-.25.25-.55.44-.9.59a2.67 2.67 0 0 1-2.16 0 2.9 2.9 0 0 1-1.45-1.47 2.67 2.67 0 0 1 0-2.16c.15-.35.35-.65.6-.9.25-.27.53-.47.85-.62a2.67 2.67 0 0 1 2.16 0c.35.15.65.35.9.62.27.25.47.55.62.9.16.34.24.7.24 1.08zm7.97 10.24c.49-.54 1-1.04 1.54-1.48a9.85 9.85 0 0 1 3.66-1.84 8.96 8.96 0 0 1 5.43.35c.94.4 1.72.97 2.33 1.71.63.74 1.11 1.62 1.43 2.67.32 1.04.49 2.19.49 3.45V93h-3.94V78.81c0-1.69-.4-3-1.17-3.92-.76-.93-1.93-1.4-3.5-1.4-1.15 0-2.24.27-3.25.83-1 .56-1.92 1.31-2.77 2.27V93h-3.94V70.71h2.35c.56 0 .9.28 1.04.82l.3 2.42zm57.7 3.3c0 2.36-.37 4.5-1.11 6.44a14.3 14.3 0 0 1-3.17 4.98c-1.37 1.37-3 2.45-4.93 3.2-1.9.76-4.02 1.13-6.33 1.13H85.8V61.47h11.77c2.31 0 4.42.39 6.33 1.15a13.8 13.8 0 0 1 8.1 8.18 17.75 17.75 0 0 1 1.12 6.45zm-4.37 0c0-1.94-.26-3.67-.8-5.2a10.94 10.94 0 0 0-2.23-3.87 9.57 9.57 0 0 0-3.53-2.42 12.23 12.23 0 0 0-4.61-.83h-7.5v24.62h7.5c1.7 0 3.24-.28 4.61-.84a9.7 9.7 0 0 0 3.53-2.4 10.94 10.94 0 0 0 2.24-3.87c.53-1.53.8-3.26.8-5.2zm19.8 5.72c-1.8.06-3.34.2-4.62.44-1.26.22-2.3.51-3.1.88-.8.36-1.37.8-1.74 1.3-.35.5-.53 1.05-.53 1.67 0 .58.1 1.1.3 1.52a3 3 0 0 0 .76 1.05c.34.27.73.46 1.17.6a6.13 6.13 0 0 0 1.45.17 7.28 7.28 0 0 0 3.5-.81 11.95 11.95 0 0 0 2.82-2.2v-4.62zm-12.65-9.11a12.73 12.73 0 0 1 3.98-2.66c1.43-.59 3-.88 4.73-.88 1.25 0 2.36.2 3.33.61a6.81 6.81 0 0 1 3.94 4.38c.33 1.04.5 2.19.5 3.43V93h-1.74a1.8 1.8 0 0 1-.88-.18c-.2-.13-.36-.38-.48-.74l-.44-2.12-1.72 1.46a9.48 9.48 0 0 1-3.74 1.7c-.69.15-1.46.23-2.3.23-.87 0-1.69-.12-2.45-.35a5.34 5.34 0 0 1-3.34-2.93 6.64 6.64 0 0 1-.49-2.64c0-.88.25-1.72.73-2.53a6.33 6.33 0 0 1 2.35-2.17c1.09-.63 2.5-1.15 4.25-1.54 1.75-.41 3.89-.65 6.42-.7v-1.75c0-1.73-.37-3.03-1.12-3.91-.75-.9-1.84-1.34-3.28-1.34-.97 0-1.78.12-2.44.37-.64.23-1.2.5-1.7.81l-1.23.82c-.33.23-.67.35-1 .35-.27 0-.5-.07-.69-.2a2.1 2.1 0 0 1-.48-.53l-.7-1.25zm27.67 19.5c-1.76 0-3.12-.5-4.07-1.48-.94-.98-1.41-2.4-1.41-4.25V74h-2.68a.9.9 0 0 1-.6-.2c-.16-.14-.24-.36-.24-.66v-1.56l3.65-.46.9-6.89c.05-.22.14-.4.29-.52a.88.88 0 0 1 .62-.22H142v7.67h6.44V74H142v13.38c0 .94.22 1.63.68 2.09.45.45 1.04.68 1.76.68a3.21 3.21 0 0 0 1.85-.53l.55-.35c.16-.12.3-.18.41-.18.2 0 .4.13.55.38l1.15 1.87a7.45 7.45 0 0 1-2.44 1.5 8.53 8.53 0 0 1-2.95.52zm19.68-10.4c-1.8.07-3.34.21-4.62.45-1.26.22-2.3.51-3.1.88-.8.36-1.37.8-1.74 1.3-.35.5-.53 1.05-.53 1.67 0 .58.1 1.1.3 1.52a2.9 2.9 0 0 0 .76 1.05c.34.27.73.46 1.17.6a6.13 6.13 0 0 0 1.45.17 7.3 7.3 0 0 0 3.5-.81 12.04 12.04 0 0 0 2.82-2.2v-4.62zm-12.65-9.1a12.72 12.72 0 0 1 3.99-2.66c1.42-.59 3-.88 4.72-.88 1.25 0 2.36.2 3.33.61a6.81 6.81 0 0 1 3.94 4.38c.33 1.04.5 2.19.5 3.43V93h-1.74a1.8 1.8 0 0 1-.88-.18c-.2-.13-.36-.38-.48-.74l-.44-2.12-1.72 1.46a9.48 9.48 0 0 1-3.74 1.7c-.69.15-1.46.23-2.3.23-.87 0-1.69-.12-2.45-.35a5.33 5.33 0 0 1-3.34-2.93 6.62 6.62 0 0 1-.49-2.64c0-.88.25-1.72.73-2.53a6.33 6.33 0 0 1 2.35-2.17c1.09-.63 2.5-1.15 4.25-1.54 1.74-.41 3.89-.65 6.42-.7v-1.75c0-1.73-.37-3.03-1.12-3.91-.75-.9-1.84-1.34-3.28-1.34-.97 0-1.78.12-2.44.37-.64.23-1.2.5-1.7.81l-1.22.82c-.34.23-.68.35-1.02.35-.26 0-.49-.07-.68-.2a1.88 1.88 0 0 1-.48-.53l-.7-1.25zM40.98 32.25c0 2.36-.38 4.53-1.12 6.51a14.26 14.26 0 0 1-8.1 8.4c-1.9.78-4.02 1.17-6.34 1.17-2.31 0-4.42-.39-6.33-1.17a14.31 14.31 0 0 1-8.08-8.4 18.29 18.29 0 0 1-1.12-6.51c0-2.36.38-4.53 1.12-6.5.75-1.97 1.8-3.67 3.17-5.1a14.32 14.32 0 0 1 4.9-3.34c1.92-.8 4.03-1.19 6.34-1.19 2.32 0 4.43.4 6.34 1.19 1.92.8 3.56 1.9 4.93 3.34a14.87 14.87 0 0 1 3.17 5.1 18.1 18.1 0 0 1 1.12 6.5zm-4.38 0c0-1.94-.26-3.68-.8-5.22a10.91 10.91 0 0 0-2.24-3.89 9.68 9.68 0 0 0-3.52-2.46 11.95 11.95 0 0 0-4.62-.86c-1.68 0-3.21.28-4.6.86a9.88 9.88 0 0 0-3.54 2.46 10.91 10.91 0 0 0-2.24 3.9c-.53 1.53-.8 3.27-.8 5.2 0 1.94.27 3.68.8 5.22a11.17 11.17 0 0 0 2.24 3.9 10.01 10.01 0 0 0 3.55 2.44c1.38.56 2.9.83 4.6.83s3.24-.27 4.61-.83a9.8 9.8 0 0 0 3.52-2.44 11.17 11.17 0 0 0 2.25-3.9c.53-1.54.8-3.28.8-5.21zm26.22-6.54V48H60.5c-.56 0-.9-.27-1.05-.81l-.31-2.4a12.45 12.45 0 0 1-3.26 2.6c-1.2.64-2.58.96-4.13.96-1.22 0-2.3-.2-3.24-.6a6.52 6.52 0 0 1-2.33-1.7 7.37 7.37 0 0 1-1.43-2.67c-.3-1.04-.46-2.2-.46-3.45V25.7h3.91v14.22c0 1.68.38 2.99 1.15 3.91.77.93 1.96 1.39 3.54 1.39 1.16 0 2.24-.27 3.23-.82a10.42 10.42 0 0 0 2.8-2.28V25.7h3.91zm8.61 4.47a9.94 9.94 0 0 1 2.6-3.56 5.64 5.64 0 0 1 3.76-1.3c.47 0 .92.05 1.34.15.44.1.83.27 1.17.49l-.3 2.92c-.09.37-.3.55-.66.55-.2 0-.5-.04-.9-.13a6.21 6.21 0 0 0-3.24.18 4.23 4.23 0 0 0-1.47.92c-.42.4-.81.9-1.17 1.5-.33.58-.64 1.26-.92 2.02V48H67.7V25.71h2.25c.42 0 .72.08.88.25.16.16.27.44.33.83l.26 3.39zm61.16-13.7L122.75 48h-3.82l-7.99-24.05a21.95 21.95 0 0 1-.42-1.58 38.36 38.36 0 0 1-.44 1.58L102.05 48h-3.83L88.4 16.47h3.54c.38 0 .7.1.95.29.26.2.43.43.5.73l6.52 21.9.28 1.28.29 1.46.3-1.46.38-1.27 7.41-21.91c.1-.25.26-.48.51-.69.27-.22.58-.33.95-.33h1.23c.38 0 .69.1.92.29a1.77 1.77 0 0 1 .53.73l7.4 21.9a28.4 28.4 0 0 1 .68 2.62 29.52 29.52 0 0 1 .52-2.61l6.54-21.91a1.31 1.31 0 0 1 .48-.7c.27-.21.58-.32.95-.32h3.32zm9.35 8.88c1.63 0 3.1.27 4.4.82a9.43 9.43 0 0 1 5.46 5.94c.5 1.4.74 2.98.74 4.73 0 1.76-.25 3.34-.74 4.75a9.43 9.43 0 0 1-5.46 5.92c-1.3.52-2.77.79-4.4.79-1.64 0-3.12-.27-4.44-.8a9.42 9.42 0 0 1-3.35-2.3c-.92-1-1.63-2.2-2.13-3.61-.49-1.41-.73-3-.73-4.75s.24-3.33.73-4.73c.5-1.43 1.2-2.64 2.13-3.63.93-1 2.04-1.77 3.35-2.31 1.32-.55 2.8-.82 4.44-.82zm0 19.89c2.2 0 3.84-.73 4.93-2.2 1.08-1.48 1.63-3.54 1.63-6.18 0-2.66-.55-4.72-1.63-6.2-1.09-1.49-2.73-2.23-4.93-2.23-1.12 0-2.09.2-2.93.57a5.71 5.71 0 0 0-2.06 1.65c-.55.72-.96 1.61-1.24 2.67-.26 1.04-.4 2.22-.4 3.54 0 2.64.55 4.7 1.64 6.18 1.1 1.47 2.76 2.2 4.99 2.2zm17.97-15.07a9.94 9.94 0 0 1 2.6-3.56 5.64 5.64 0 0 1 3.76-1.3c.47 0 .91.05 1.34.15.44.1.83.27 1.16.49l-.28 2.92c-.09.37-.31.55-.66.55-.2 0-.5-.04-.9-.13a6.2 6.2 0 0 0-3.24.18 4.23 4.23 0 0 0-1.47.92c-.43.4-.82.9-1.17 1.5a13.1 13.1 0 0 0-.92 2.02V48h-3.94V25.71h2.24c.43 0 .72.08.88.25.17.16.28.44.33.83l.27 3.39zm15.04-14.59V48h-3.92V15.6h3.92zm19.55 15.43a6.22 6.22 0 0 0-2.38-2.05 6.7 6.7 0 0 0-2.86-.6c-2.07 0-3.66.75-4.77 2.23-1.12 1.48-1.68 3.6-1.68 6.33 0 1.46.13 2.7.38 3.74a7.29 7.29 0 0 0 1.1 2.56 4.35 4.35 0 0 0 1.78 1.45c.7.3 1.5.46 2.4.46 1.29 0 2.41-.3 3.36-.88a9.6 9.6 0 0 0 2.67-2.49V31.02zm3.91-15.43V48h-2.33c-.56 0-.9-.27-1.06-.81l-.35-2.71a12.13 12.13 0 0 1-3.25 2.77 8.28 8.28 0 0 1-4.23 1.06 7.31 7.31 0 0 1-6.14-2.9c-.73-.96-1.3-2.15-1.69-3.57a18.35 18.35 0 0 1 .07-9.48 11.29 11.29 0 0 1 1.89-3.7 8.7 8.7 0 0 1 7.06-3.34 7.96 7.96 0 0 1 6.12 2.62V15.59h3.91zM46.61 70.71V93H42.7V70.71h3.91zm.84-7c0 .39-.08.75-.24 1.09-.15.32-.35.61-.62.88-.25.25-.55.44-.9.59a2.67 2.67 0 0 1-2.16 0 2.9 2.9 0 0 1-1.45-1.47 2.67 2.67 0 0 1 0-2.16c.15-.35.35-.65.6-.9.25-.27.53-.47.85-.62a2.67 2.67 0 0 1 2.16 0c.35.15.65.35.9.62.27.25.47.55.62.9.16.34.24.7.24 1.08zm7.97 10.24c.49-.54 1-1.04 1.54-1.48a9.85 9.85 0 0 1 3.66-1.84 8.96 8.96 0 0 1 5.43.35c.94.4 1.72.97 2.33 1.71.63.74 1.11 1.62 1.43 2.67.32 1.04.49 2.19.49 3.45V93h-3.94V78.81c0-1.69-.4-3-1.17-3.92-.76-.93-1.93-1.4-3.5-1.4-1.15 0-2.24.27-3.25.83-1 .56-1.92 1.31-2.77 2.27V93h-3.94V70.71h2.35c.56 0 .9.28 1.04.82l.3 2.42zm57.7 3.3c0 2.36-.37 4.5-1.11 6.44a14.3 14.3 0 0 1-3.17 4.98c-1.37 1.37-3 2.45-4.93 3.2-1.9.76-4.02 1.13-6.33 1.13H85.8V61.47h11.77c2.31 0 4.42.39 6.33 1.15a13.8 13.8 0 0 1 8.1 8.18 17.75 17.75 0 0 1 1.12 6.45zm-4.37 0c0-1.94-.26-3.67-.8-5.2a10.94 10.94 0 0 0-2.23-3.87 9.57 9.57 0 0 0-3.53-2.42 12.23 12.23 0 0 0-4.61-.83h-7.5v24.62h7.5c1.7 0 3.24-.28 4.61-.84a9.7 9.7 0 0 0 3.53-2.4 10.94 10.94 0 0 0 2.24-3.87c.53-1.53.8-3.26.8-5.2zm19.8 5.72c-1.8.06-3.34.2-4.62.44-1.26.22-2.3.51-3.1.88-.8.36-1.37.8-1.74 1.3-.35.5-.53 1.05-.53 1.67 0 .58.1 1.1.3 1.52a3 3 0 0 0 .76 1.05c.34.27.73.46 1.17.6a6.13 6.13 0 0 0 1.45.17 7.28 7.28 0 0 0 3.5-.81 11.95 11.95 0 0 0 2.82-2.2v-4.62zm-12.65-9.11a12.73 12.73 0 0 1 3.98-2.66c1.43-.59 3-.88 4.73-.88 1.25 0 2.36.2 3.33.61a6.81 6.81 0 0 1 3.94 4.38c.33 1.04.5 2.19.5 3.43V93h-1.74a1.8 1.8 0 0 1-.88-.18c-.2-.13-.36-.38-.48-.74l-.44-2.12-1.72 1.46a9.48 9.48 0 0 1-3.74 1.7c-.69.15-1.46.23-2.3.23-.87 0-1.69-.12-2.45-.35a5.34 5.34 0 0 1-3.34-2.93 6.64 6.64 0 0 1-.49-2.64c0-.88.25-1.72.73-2.53a6.33 6.33 0 0 1 2.35-2.17c1.09-.63 2.5-1.15 4.25-1.54 1.75-.41 3.89-.65 6.42-.7v-1.75c0-1.73-.37-3.03-1.12-3.91-.75-.9-1.84-1.34-3.28-1.34-.97 0-1.78.12-2.44.37-.64.23-1.2.5-1.7.81l-1.23.82c-.33.23-.67.35-1 .35-.27 0-.5-.07-.69-.2a2.1 2.1 0 0 1-.48-.53l-.7-1.25zm27.67 19.5c-1.76 0-3.12-.5-4.07-1.48-.94-.98-1.41-2.4-1.41-4.25V74h-2.68a.9.9 0 0 1-.6-.2c-.16-.14-.24-.36-.24-.66v-1.56l3.65-.46.9-6.89c.05-.22.14-.4.29-.52a.88.88 0 0 1 .62-.22H142v7.67h6.44V74H142v13.38c0 .94.22 1.63.68 2.09.45.45 1.04.68 1.76.68a3.21 3.21 0 0 0 1.85-.53l.55-.35c.16-.12.3-.18.41-.18.2 0 .4.13.55.38l1.15 1.87a7.45 7.45 0 0 1-2.44 1.5 8.53 8.53 0 0 1-2.95.52zm19.68-10.4c-1.8.07-3.34.21-4.62.45-1.26.22-2.3.51-3.1.88-.8.36-1.37.8-1.74 1.3-.35.5-.53 1.05-.53 1.67 0 .58.1 1.1.3 1.52a2.9 2.9 0 0 0 .76 1.05c.34.27.73.46 1.17.6a6.13 6.13 0 0 0 1.45.17 7.3 7.3 0 0 0 3.5-.81 12.04 12.04 0 0 0 2.82-2.2v-4.62zm-12.65-9.1a12.72 12.72 0 0 1 3.99-2.66c1.42-.59 3-.88 4.72-.88 1.25 0 2.36.2 3.33.61a6.81 6.81 0 0 1 3.94 4.38c.33 1.04.5 2.19.5 3.43V93h-1.74a1.8 1.8 0 0 1-.88-.18c-.2-.13-.36-.38-.48-.74l-.44-2.12-1.72 1.46a9.48 9.48 0 0 1-3.74 1.7c-.69.15-1.46.23-2.3.23-.87 0-1.69-.12-2.45-.35a5.33 5.33 0 0 1-3.34-2.93 6.62 6.62 0 0 1-.49-2.64c0-.88.25-1.72.73-2.53a6.33 6.33 0 0 1 2.35-2.17c1.09-.63 2.5-1.15 4.25-1.54 1.74-.41 3.89-.65 6.42-.7v-1.75c0-1.73-.37-3.03-1.12-3.91-.75-.9-1.84-1.34-3.28-1.34-.97 0-1.78.12-2.44.37-.64.23-1.2.5-1.7.81l-1.22.82c-.34.23-.68.35-1.02.35-.26 0-.49-.07-.68-.2a1.88 1.88 0 0 1-.48-.53l-.7-1.25z"
    fill="#fff"
  />
  <path fill="#D42B21" d="M0 106.79h210V120H0z" />
</g>
<defs>
  <clipPath id="clip0"><path fill="#fff" d="M0 0h210v120H0z" /></clipPath>
</defs>
</svg></g><a href="http://localhost:3030/grapher/hubberts-peak-vs-actual-oil-production-in-the-united-states" style="font-family:&#x27;Playfair Display&#x27;, Georgia, &#x27;Times New Roman&#x27;, &#x27;Liberation Serif&#x27;, serif" target="_blank" rel="noopener"><text font-size="22.50" x="15.0" y="34.6" fill="#555"><tspan x="15" y="34.574999999999996">Hubbert&#x27;s peak prediction vs. actual oil production in the United States</tspan></text></a><text x="15.0" y="55.5" style="font-size:14.4px;line-height:1.2" fill="#666"><tspan x="15" y="55.5">Hubbert&#x27;s hypothesis of peak oil production in the United States, alongside actual oil production trends in the United</tspan><tspan x="15" y="72.7">States, both measured in cubic meters per year.</tspan></text></g><g class="LineChart"><defs><clipPath id="boundsClip-1"><rect x="87.598" y="82.06" width="840" height="474.08"></rect></clipPath></defs><rect x="15" y="92.06" width="820" height="454.08" fill="transparent"></rect><g class="DualAxisView"><g class="HorizontalAxis"><line x1="97.6" y1="524.94" x2="97.6" y2="529.94" stroke="#999"></line><line x1="718.6" y1="524.94" x2="718.6" y2="529.94" stroke="#999"></line><line x1="252.8" y1="524.94" x2="252.8" y2="529.94" stroke="#999"></line><line x1="356.3" y1="524.94" x2="356.3" y2="529.94" stroke="#999"></line><line x1="459.8" y1="524.94" x2="459.8" y2="529.94" stroke="#999"></line><line x1="563.3" y1="524.94" x2="563.3" y2="529.94" stroke="#999"></line><text x="97.598" y="546.14" fill="#666" text-anchor="start" font-size="16.2">1910</text><text x="718.595" y="546.14" fill="#666" text-anchor="end" font-size="16.2">2030</text><text x="252.8" y="546.14" fill="#666" text-anchor="middle" font-size="16.2">1940</text><text x="356.3" y="546.14" fill="#666" text-anchor="middle" font-size="16.2">1960</text><text x="459.8" y="546.14" fill="#666" text-anchor="middle" font-size="16.2">1980</text><text x="563.3" y="546.14" fill="#666" text-anchor="middle" font-size="16.2">2000</text></g><g class="VerticalAxis"><text x="92.60" y="524.9" dy=".32em" text-anchor="end" fill="#666" font-size="16.2">0</text><text x="92.60" y="464.4" dy=".32em" text-anchor="end" fill="#666" font-size="16.2">100 million</text><text x="92.60" y="403.8" dy=".32em" text-anchor="end" fill="#666" font-size="16.2">200 million</text><text x="92.60" y="343.2" dy=".32em" text-anchor="end" fill="#666" font-size="16.2">300 million</text><text x="92.60" y="282.6" dy=".32em" text-anchor="end" fill="#666" font-size="16.2">400 million</text><text x="92.60" y="222.1" dy=".32em" text-anchor="end" fill="#666" font-size="16.2">500 million</text><text x="92.60" y="161.5" dy=".32em" text-anchor="end" fill="#666" font-size="16.2">600 million</text><text x="92.60" y="100.9" dy=".32em" text-anchor="end" fill="#666" font-size="16.2">700 million</text></g><g class="AxisGridLines horizontalLines"><line x1="97.60" y1="524.9" x2="718.60" y2="524.9" stroke="#999"></line><line x1="97.60" y1="464.4" x2="718.60" y2="464.4" stroke="#ddd" stroke-dasharray="3,2"></line><line x1="97.60" y1="403.8" x2="718.60" y2="403.8" stroke="#ddd" stroke-dasharray="3,2"></line><line x1="97.60" y1="343.2" x2="718.60" y2="343.2" stroke="#ddd" stroke-dasharray="3,2"></line><line x1="97.60" y1="282.6" x2="718.60" y2="282.6" stroke="#ddd" stroke-dasharray="3,2"></line><line x1="97.60" y1="222.1" x2="718.60" y2="222.1" stroke="#ddd" stroke-dasharray="3,2"></line><line x1="97.60" y1="161.5" x2="718.60" y2="161.5" stroke="#ddd" stroke-dasharray="3,2"></line><line x1="97.60" y1="100.9" x2="718.60" y2="100.9" stroke="#ddd" stroke-dasharray="3,2"></line></g></g><g clip-path="url(#boundsClip-1)"><g class="LineLabels" style="cursor:default"><g class="legendMark"><rect x="718.595" y="499.55" width="116.405" height="13.5" fill="#fff" opacity="0"></rect><text font-size="13.50" font-weight="400" x="722.6" y="511.3" fill="#c15065"><tspan x="722.595" y="511.295">United States</tspan></text></g></g><g class="Lines"><rect x="98" y="92" width="621" height="433" fill="rgba(255,255,255,0)" opacity="0"></rect><g><path stroke-linecap="round" stroke-linejoin="round" stroke="#ddd" d="M102.8 505.7L107.9 504.3L113.1 502.9L118.3 501.4L123.5 499.9L128.6 498.2L133.8 496.4L139 494.4L144.2 492.4L149.3 490.2L154.5 487.9L159.7 485.5L164.9 482.9L170 480.2L175.2 477.3L180.4 474.2L185.6 471L190.7 467.5L195.9 463.9L201.1 460.1L206.3 456.1L211.4 451.9L216.6 447.5L221.8 442.8L227 437.9L232.1 432.9L237.3 427.5L242.5 422L247.7 416.2L252.8 410.2L258 404L263.2 397.6L268.4 391L273.5 384.2L278.7 377.2L283.9 370.1L289.1 362.8L294.2 355.4L299.4 347.9L304.6 340.3L309.8 332.7L314.9 325.1L320.1 317.5L325.3 310L330.5 302.7L335.6 295.4L340.8 288.4L346 281.7L351.2 275.2L356.3 269.1L361.5 263.4L366.7 258.2L371.9 253.4L377 249.2L382.2 245.5L387.4 242.4L392.6 239.9L397.7 238L402.9 236.9L408.1 236.4L413.3 236.5L418.4 237.4L423.6 238.9L428.8 241.1L434 243.9L439.1 247.3L444.3 251.2L449.5 255.8L454.7 260.8L459.8 266.3L465 272.2L470.2 278.5L475.4 285.1L480.5 292L485.7 299.1L490.9 306.4L496.1 313.8L501.2 321.3L506.4 328.9L511.6 336.5L516.8 344.1L521.9 351.7L527.1 359.1L532.3 366.5L537.5 373.7L542.6 380.8L547.8 387.7L553 394.4L558.2 400.9L563.3 407.2L568.5 413.3L573.7 419.2L578.9 424.8L584 430.3L589.2 435.5L594.4 440.4L599.6 445.2L604.7 449.7L609.9 454.1L615.1 458.2L620.3 462.1L625.4 465.8L630.6 469.3L635.8 472.6L641 475.8L646.1 478.8L651.3 481.6L656.5 484.2L661.7 486.8L666.8 489.1L672 491.4L677.2 493.5L682.4 495.4L687.5 497.3L692.7 499L697.9 500.7L703.1 502.2L708.2 503.7L713.4 505L718.6 506.3" fill="none" stroke-width="1"></path></g><g><path stroke-linecap="round" stroke-linejoin="round" stroke="#ddd" d="M97.6 504.8L102.8 503.7L107.9 503.5L113.1 501L118.3 499.3L123.5 497.9L128.6 496L133.8 492.6L139 490.7L144.2 488.5L149.3 482.3L154.5 479.5L159.7 471.2L164.9 454.4L170 456.2L175.2 465.2L180.4 450.7L185.6 438.2L190.7 438.1L195.9 427.9L201.1 438.5L206.3 443L211.4 449.3L216.6 437.7L221.8 437.5L227 429.2L232.1 419.2L237.3 401.9L242.5 408.1L247.7 403.2L252.8 380.2L258 389.7L263.2 391.5L268.4 379.9L273.5 363.4L278.7 359.9L283.9 358L289.1 346.1L294.2 330.4L299.4 347.6L304.6 334.9L309.8 308.5L314.9 304.4L320.1 297.9L325.3 302L330.5 285.7L335.6 272.9L340.8 272.9L346 289.1L351.2 277L356.3 277L361.5 272.5L366.7 267.2L371.9 259.8L377 256.6L382.2 250.6L387.4 233.4L392.6 215.3L397.7 204.3L402.9 200.2L408.1 186.2L413.3 192.3L418.4 192.2L423.6 201.3L428.8 216.5L434 230.6L439.1 238.3L444.3 235.1L449.5 218.9L454.7 224.3L459.8 221.9L465 223.6L470.2 220.9L475.4 219.6L480.5 212L485.7 209.6L490.9 219.8L496.1 231.5L501.2 238L506.4 257.3L511.6 266.4L516.8 264.2L521.9 272.2L527.1 284.3L532.3 290.8L537.5 294.4L542.6 297.1L547.8 298.2L553 305.2L558.2 318.2L563.3 319.7L568.5 321L573.7 323L578.9 326.4L584 333.2L589.2 342.7L594.4 346.2L599.6 346.6L604.7 348.7L609.9 336.6L615.1 332.2L620.3 325.5L625.4 295L630.6 261.4L635.8 215.8L641 193.1L646.1 213.1L651.3 196L656.5 139.9L661.7 92.1L666.8 126L672 129.4" fill="none" stroke-width="1"></path></g><g><path fill="none" stroke-linecap="butt" stroke-linejoin="round" stroke="#fff" stroke-width="2.5" stroke-dasharray="2,3" d="M102.8 505.7L107.9 504.3L113.1 502.9L118.3 501.4L123.5 499.9L128.6 498.2L133.8 496.4L139 494.4L144.2 492.4L149.3 490.2L154.5 487.9L159.7 485.5L164.9 482.9L170 480.2L175.2 477.3L180.4 474.2L185.6 471L190.7 467.5L195.9 463.9L201.1 460.1L206.3 456.1L211.4 451.9L216.6 447.5L221.8 442.8L227 437.9L232.1 432.9L237.3 427.5L242.5 422L247.7 416.2L252.8 410.2L258 404L263.2 397.6L268.4 391L273.5 384.2L278.7 377.2L283.9 370.1L289.1 362.8L294.2 355.4L299.4 347.9L304.6 340.3L309.8 332.7L314.9 325.1L320.1 317.5L325.3 310L330.5 302.7L335.6 295.4L340.8 288.4L346 281.7L351.2 275.2L356.3 269.1L361.5 263.4L366.7 258.2L371.9 253.4L377 249.2L382.2 245.5L387.4 242.4L392.6 239.9L397.7 238L402.9 236.9L408.1 236.4L413.3 236.5L418.4 237.4L423.6 238.9L428.8 241.1L434 243.9L439.1 247.3L444.3 251.2L449.5 255.8L454.7 260.8L459.8 266.3L465 272.2L470.2 278.5L475.4 285.1L480.5 292L485.7 299.1L490.9 306.4L496.1 313.8L501.2 321.3L506.4 328.9L511.6 336.5L516.8 344.1L521.9 351.7L527.1 359.1L532.3 366.5L537.5 373.7L542.6 380.8L547.8 387.7L553 394.4L558.2 400.9L563.3 407.2L568.5 413.3L573.7 419.2L578.9 424.8L584 430.3L589.2 435.5L594.4 440.4L599.6 445.2L604.7 449.7L609.9 454.1L615.1 458.2L620.3 462.1L625.4 465.8L630.6 469.3L635.8 472.6L641 475.8L646.1 478.8L651.3 481.6L656.5 484.2L661.7 486.8L666.8 489.1L672 491.4L677.2 493.5L682.4 495.4L687.5 497.3L692.7 499L697.9 500.7L703.1 502.2L708.2 503.7L713.4 505L718.6 506.3"></path><polyline points="102.80,505.70 107.90,504.30 113.10,502.90 118.30,501.40 123.50,499.90 128.60,498.20 133.80,496.40 139.00,494.40 144.20,492.40 149.30,490.20 154.50,487.90 159.70,485.50 164.90,482.90 170.00,480.20 175.20,477.30 180.40,474.20 185.60,471.00 190.70,467.50 195.90,463.90 201.10,460.10 206.30,456.10 211.40,451.90 216.60,447.50 221.80,442.80 227.00,437.90 232.10,432.90 237.30,427.50 242.50,422.00 247.70,416.20 252.80,410.20 258.00,404.00 263.20,397.60 268.40,391.00 273.50,384.20 278.70,377.20 283.90,370.10 289.10,362.80 294.20,355.40 299.40,347.90 304.60,340.30 309.80,332.70 314.90,325.10 320.10,317.50 325.30,310.00 330.50,302.70 335.60,295.40 340.80,288.40 346.00,281.70 351.20,275.20 356.30,269.10 361.50,263.40 366.70,258.20 371.90,253.40 377.00,249.20 382.20,245.50 387.40,242.40 392.60,239.90 397.70,238.00 402.90,236.90 408.10,236.40 413.30,236.50 418.40,237.40 423.60,238.90 428.80,241.10 434.00,243.90 439.10,247.30 444.30,251.20 449.50,255.80 454.70,260.80 459.80,266.30 465.00,272.20 470.20,278.50 475.40,285.10 480.50,292.00 485.70,299.10 490.90,306.40 496.10,313.80 501.20,321.30 506.40,328.90 511.60,336.50 516.80,344.10 521.90,351.70 527.10,359.10 532.30,366.50 537.50,373.70 542.60,380.80 547.80,387.70 553.00,394.40 558.20,400.90 563.30,407.20 568.50,413.30 573.70,419.20 578.90,424.80 584.00,430.30 589.20,435.50 594.40,440.40 599.60,445.20 604.70,449.70 609.90,454.10 615.10,458.20 620.30,462.10 625.40,465.80 630.60,469.30 635.80,472.60 641.00,475.80 646.10,478.80 651.30,481.60 656.50,484.20 661.70,486.80 666.80,489.10 672.00,491.40 677.20,493.50 682.40,495.40 687.50,497.30 692.70,499.00 697.90,500.70 703.10,502.20 708.20,503.70 713.40,505.00 718.60,506.30" stroke-linejoin="round" stroke-width="1.5" stroke-dasharray="2,3" stroke="#C15065" fill="none" stroke-linecap="butt"></polyline></g><g><path fill="none" stroke-linecap="butt" stroke-linejoin="round" stroke="#fff" stroke-width="2.5" d="M97.6 504.8L102.8 503.7L107.9 503.5L113.1 501L118.3 499.3L123.5 497.9L128.6 496L133.8 492.6L139 490.7L144.2 488.5L149.3 482.3L154.5 479.5L159.7 471.2L164.9 454.4L170 456.2L175.2 465.2L180.4 450.7L185.6 438.2L190.7 438.1L195.9 427.9L201.1 438.5L206.3 443L211.4 449.3L216.6 437.7L221.8 437.5L227 429.2L232.1 419.2L237.3 401.9L242.5 408.1L247.7 403.2L252.8 380.2L258 389.7L263.2 391.5L268.4 379.9L273.5 363.4L278.7 359.9L283.9 358L289.1 346.1L294.2 330.4L299.4 347.6L304.6 334.9L309.8 308.5L314.9 304.4L320.1 297.9L325.3 302L330.5 285.7L335.6 272.9L340.8 272.9L346 289.1L351.2 277L356.3 277L361.5 272.5L366.7 267.2L371.9 259.8L377 256.6L382.2 250.6L387.4 233.4L392.6 215.3L397.7 204.3L402.9 200.2L408.1 186.2L413.3 192.3L418.4 192.2L423.6 201.3L428.8 216.5L434 230.6L439.1 238.3L444.3 235.1L449.5 218.9L454.7 224.3L459.8 221.9L465 223.6L470.2 220.9L475.4 219.6L480.5 212L485.7 209.6L490.9 219.8L496.1 231.5L501.2 238L506.4 257.3L511.6 266.4L516.8 264.2L521.9 272.2L527.1 284.3L532.3 290.8L537.5 294.4L542.6 297.1L547.8 298.2L553 305.2L558.2 318.2L563.3 319.7L568.5 321L573.7 323L578.9 326.4L584 333.2L589.2 342.7L594.4 346.2L599.6 346.6L604.7 348.7L609.9 336.6L615.1 332.2L620.3 325.5L625.4 295L630.6 261.4L635.8 215.8L641 193.1L646.1 213.1L651.3 196L656.5 139.9L661.7 92.1L666.8 126L672 129.4"></path><polyline points="97.60,504.80 102.80,503.70 107.90,503.50 113.10,501.00 118.30,499.30 123.50,497.90 128.60,496.00 133.80,492.60 139.00,490.70 144.20,488.50 149.30,482.30 154.50,479.50 159.70,471.20 164.90,454.40 170.00,456.20 175.20,465.20 180.40,450.70 185.60,438.20 190.70,438.10 195.90,427.90 201.10,438.50 206.30,443.00 211.40,449.30 216.60,437.70 221.80,437.50 227.00,429.20 232.10,419.20 237.30,401.90 242.50,408.10 247.70,403.20 252.80,380.20 258.00,389.70 263.20,391.50 268.40,379.90 273.50,363.40 278.70,359.90 283.90,358.00 289.10,346.10 294.20,330.40 299.40,347.60 304.60,334.90 309.80,308.50 314.90,304.40 320.10,297.90 325.30,302.00 330.50,285.70 335.60,272.90 340.80,272.90 346.00,289.10 351.20,277.00 356.30,277.00 361.50,272.50 366.70,267.20 371.90,259.80 377.00,256.60 382.20,250.60 387.40,233.40 392.60,215.30 397.70,204.30 402.90,200.20 408.10,186.20 413.30,192.30 418.40,192.20 423.60,201.30 428.80,216.50 434.00,230.60 439.10,238.30 444.30,235.10 449.50,218.90 454.70,224.30 459.80,221.90 465.00,223.60 470.20,220.90 475.40,219.60 480.50,212.00 485.70,209.60 490.90,219.80 496.10,231.50 501.20,238.00 506.40,257.30 511.60,266.40 516.80,264.20 521.90,272.20 527.10,284.30 532.30,290.80 537.50,294.40 542.60,297.10 547.80,298.20 553.00,305.20 558.20,318.20 563.30,319.70 568.50,321.00 573.70,323.00 578.90,326.40 584.00,333.20 589.20,342.70 594.40,346.20 599.60,346.60 604.70,348.70 609.90,336.60 615.10,332.20 620.30,325.50 625.40,295.00 630.60,261.40 635.80,215.80 641.00,193.10 646.10,213.10 651.30,196.00 656.50,139.90 661.70,92.10 666.80,126.00 672.00,129.40" stroke-linejoin="round" stroke-width="1.5" stroke="#C15065" fill="none" stroke-linecap="butt"></polyline><g><circle cx="97.6" cy="504.8" r="1.8" fill="#C15065"></circle><circle cx="102.8" cy="503.7" r="1.8" fill="#C15065"></circle><circle cx="107.9" cy="503.5" r="1.8" fill="#C15065"></circle><circle cx="113.1" cy="501" r="1.8" fill="#C15065"></circle><circle cx="118.3" cy="499.3" r="1.8" fill="#C15065"></circle><circle cx="123.5" cy="497.9" r="1.8" fill="#C15065"></circle><circle cx="128.6" cy="496" r="1.8" fill="#C15065"></circle><circle cx="133.8" cy="492.6" r="1.8" fill="#C15065"></circle><circle cx="139" cy="490.7" r="1.8" fill="#C15065"></circle><circle cx="144.2" cy="488.5" r="1.8" fill="#C15065"></circle><circle cx="149.3" cy="482.3" r="1.8" fill="#C15065"></circle><circle cx="154.5" cy="479.5" r="1.8" fill="#C15065"></circle><circle cx="159.7" cy="471.2" r="1.8" fill="#C15065"></circle><circle cx="164.9" cy="454.4" r="1.8" fill="#C15065"></circle><circle cx="170" cy="456.2" r="1.8" fill="#C15065"></circle><circle cx="175.2" cy="465.2" r="1.8" fill="#C15065"></circle><circle cx="180.4" cy="450.7" r="1.8" fill="#C15065"></circle><circle cx="185.6" cy="438.2" r="1.8" fill="#C15065"></circle><circle cx="190.7" cy="438.1" r="1.8" fill="#C15065"></circle><circle cx="195.9" cy="427.9" r="1.8" fill="#C15065"></circle><circle cx="201.1" cy="438.5" r="1.8" fill="#C15065"></circle><circle cx="206.3" cy="443" r="1.8" fill="#C15065"></circle><circle cx="211.4" cy="449.3" r="1.8" fill="#C15065"></circle><circle cx="216.6" cy="437.7" r="1.8" fill="#C15065"></circle><circle cx="221.8" cy="437.5" r="1.8" fill="#C15065"></circle><circle cx="227" cy="429.2" r="1.8" fill="#C15065"></circle><circle cx="232.1" cy="419.2" r="1.8" fill="#C15065"></circle><circle cx="237.3" cy="401.9" r="1.8" fill="#C15065"></circle><circle cx="242.5" cy="408.1" r="1.8" fill="#C15065"></circle><circle cx="247.7" cy="403.2" r="1.8" fill="#C15065"></circle><circle cx="252.8" cy="380.2" r="1.8" fill="#C15065"></circle><circle cx="258" cy="389.7" r="1.8" fill="#C15065"></circle><circle cx="263.2" cy="391.5" r="1.8" fill="#C15065"></circle><circle cx="268.4" cy="379.9" r="1.8" fill="#C15065"></circle><circle cx="273.5" cy="363.4" r="1.8" fill="#C15065"></circle><circle cx="278.7" cy="359.9" r="1.8" fill="#C15065"></circle><circle cx="283.9" cy="358" r="1.8" fill="#C15065"></circle><circle cx="289.1" cy="346.1" r="1.8" fill="#C15065"></circle><circle cx="294.2" cy="330.4" r="1.8" fill="#C15065"></circle><circle cx="299.4" cy="347.6" r="1.8" fill="#C15065"></circle><circle cx="304.6" cy="334.9" r="1.8" fill="#C15065"></circle><circle cx="309.8" cy="308.5" r="1.8" fill="#C15065"></circle><circle cx="314.9" cy="304.4" r="1.8" fill="#C15065"></circle><circle cx="320.1" cy="297.9" r="1.8" fill="#C15065"></circle><circle cx="325.3" cy="302" r="1.8" fill="#C15065"></circle><circle cx="330.5" cy="285.7" r="1.8" fill="#C15065"></circle><circle cx="335.6" cy="272.9" r="1.8" fill="#C15065"></circle><circle cx="340.8" cy="272.9" r="1.8" fill="#C15065"></circle><circle cx="346" cy="289.1" r="1.8" fill="#C15065"></circle><circle cx="351.2" cy="277" r="1.8" fill="#C15065"></circle><circle cx="356.3" cy="277" r="1.8" fill="#C15065"></circle><circle cx="361.5" cy="272.5" r="1.8" fill="#C15065"></circle><circle cx="366.7" cy="267.2" r="1.8" fill="#C15065"></circle><circle cx="371.9" cy="259.8" r="1.8" fill="#C15065"></circle><circle cx="377" cy="256.6" r="1.8" fill="#C15065"></circle><circle cx="382.2" cy="250.6" r="1.8" fill="#C15065"></circle><circle cx="387.4" cy="233.4" r="1.8" fill="#C15065"></circle><circle cx="392.6" cy="215.3" r="1.8" fill="#C15065"></circle><circle cx="397.7" cy="204.3" r="1.8" fill="#C15065"></circle><circle cx="402.9" cy="200.2" r="1.8" fill="#C15065"></circle><circle cx="408.1" cy="186.2" r="1.8" fill="#C15065"></circle><circle cx="413.3" cy="192.3" r="1.8" fill="#C15065"></circle><circle cx="418.4" cy="192.2" r="1.8" fill="#C15065"></circle><circle cx="423.6" cy="201.3" r="1.8" fill="#C15065"></circle><circle cx="428.8" cy="216.5" r="1.8" fill="#C15065"></circle><circle cx="434" cy="230.6" r="1.8" fill="#C15065"></circle><circle cx="439.1" cy="238.3" r="1.8" fill="#C15065"></circle><circle cx="444.3" cy="235.1" r="1.8" fill="#C15065"></circle><circle cx="449.5" cy="218.9" r="1.8" fill="#C15065"></circle><circle cx="454.7" cy="224.3" r="1.8" fill="#C15065"></circle><circle cx="459.8" cy="221.9" r="1.8" fill="#C15065"></circle><circle cx="465" cy="223.6" r="1.8" fill="#C15065"></circle><circle cx="470.2" cy="220.9" r="1.8" fill="#C15065"></circle><circle cx="475.4" cy="219.6" r="1.8" fill="#C15065"></circle><circle cx="480.5" cy="212" r="1.8" fill="#C15065"></circle><circle cx="485.7" cy="209.6" r="1.8" fill="#C15065"></circle><circle cx="490.9" cy="219.8" r="1.8" fill="#C15065"></circle><circle cx="496.1" cy="231.5" r="1.8" fill="#C15065"></circle><circle cx="501.2" cy="238" r="1.8" fill="#C15065"></circle><circle cx="506.4" cy="257.3" r="1.8" fill="#C15065"></circle><circle cx="511.6" cy="266.4" r="1.8" fill="#C15065"></circle><circle cx="516.8" cy="264.2" r="1.8" fill="#C15065"></circle><circle cx="521.9" cy="272.2" r="1.8" fill="#C15065"></circle><circle cx="527.1" cy="284.3" r="1.8" fill="#C15065"></circle><circle cx="532.3" cy="290.8" r="1.8" fill="#C15065"></circle><circle cx="537.5" cy="294.4" r="1.8" fill="#C15065"></circle><circle cx="542.6" cy="297.1" r="1.8" fill="#C15065"></circle><circle cx="547.8" cy="298.2" r="1.8" fill="#C15065"></circle><circle cx="553" cy="305.2" r="1.8" fill="#C15065"></circle><circle cx="558.2" cy="318.2" r="1.8" fill="#C15065"></circle><circle cx="563.3" cy="319.7" r="1.8" fill="#C15065"></circle><circle cx="568.5" cy="321" r="1.8" fill="#C15065"></circle><circle cx="573.7" cy="323" r="1.8" fill="#C15065"></circle><circle cx="578.9" cy="326.4" r="1.8" fill="#C15065"></circle><circle cx="584" cy="333.2" r="1.8" fill="#C15065"></circle><circle cx="589.2" cy="342.7" r="1.8" fill="#C15065"></circle><circle cx="594.4" cy="346.2" r="1.8" fill="#C15065"></circle><circle cx="599.6" cy="346.6" r="1.8" fill="#C15065"></circle><circle cx="604.7" cy="348.7" r="1.8" fill="#C15065"></circle><circle cx="609.9" cy="336.6" r="1.8" fill="#C15065"></circle><circle cx="615.1" cy="332.2" r="1.8" fill="#C15065"></circle><circle cx="620.3" cy="325.5" r="1.8" fill="#C15065"></circle><circle cx="625.4" cy="295" r="1.8" fill="#C15065"></circle><circle cx="630.6" cy="261.4" r="1.8" fill="#C15065"></circle><circle cx="635.8" cy="215.8" r="1.8" fill="#C15065"></circle><circle cx="641" cy="193.1" r="1.8" fill="#C15065"></circle><circle cx="646.1" cy="213.1" r="1.8" fill="#C15065"></circle><circle cx="651.3" cy="196" r="1.8" fill="#C15065"></circle><circle cx="656.5" cy="139.9" r="1.8" fill="#C15065"></circle><circle cx="661.7" cy="92.1" r="1.8" fill="#C15065"></circle><circle cx="666.8" cy="126" r="1.8" fill="#C15065"></circle><circle cx="672" cy="129.4" r="1.8" fill="#C15065"></circle></g></g></g></g></g><g class="SourcesFooter" style="fill:#777"><g style="fill:#777"><text font-size="12.60" x="15.0" y="582.7"><tspan x="15" y="582.732">Source: Cavallo (2004) &amp; EIA</tspan></text></g><text font-size="12.60" x="627.9" y="582.7"><tspan x="627.856" y="582.732"><a target='_blank' style='fill: #777;' href='https://ourworldindata.org/energy'>OurWorldInData.org/energy</a> • <a style="fill: #777;" class="cclogo" href="http://creativecommons.org/licenses/by/4.0/deed.en_US" target="_blank">CC BY</a></tspan></text></g></svg>