<svg xmlns="http://www.w3.org/2000/svg" version="1.1" style="font-family:Lato, &#x27;Helvetica Neue&#x27;, Helvetica, Arial, &#x27;Liberation Sans&#x27;, sans-serif;font-size:16px;background-color:#ffffff;text-rendering:geometricPrecision;-webkit-font-smoothing:antialiased" width="850" height="600" viewBox="0 0 850 600"><defs><style>@import url(https://ourworldindata.org/fonts.css)</style></defs><defs><pattern id="noDataPattern" patternUnits="userSpaceOnUse" width="4" height="4" patternTransform="rotate(-45 2 2)"><path d="M -1,2 l 6,0" stroke="#ccc" stroke-width="0.7"></path></pattern></defs><rect class="background-fill" fill="#ffffff" width="850" height="600"></rect><g id="header" class="HeaderView"><g id="logo" transform="translate(769, 16) scale(1)"><svg className="owidLogo" xmlns="http://www.w3.org/2000/svg" width="65" height="36" viewBox="0 0 65 36"  fill="none"><path fill="#002147" d="M0 0h64.8v36H0z"/><path fill="#CE261E" d="M0 33.3h64.8V36H0z"/><path fill="#fff" d="M13.796 10.575c0 .636-.106 1.226-.318 1.77a4.193 4.193 0 0 1-.894 1.404 4.084 4.084 0 0 1-1.386.93c-.54.22-1.138.33-1.794.33-.656 0-1.256-.11-1.8-.33a4.149 4.149 0 0 1-1.392-.93 4.193 4.193 0 0 1-.894-1.404A4.833 4.833 0 0 1 5 10.575c0-.636.106-1.224.318-1.764a4.18 4.18 0 0 1 .894-1.41 4.076 4.076 0 0 1 1.392-.924 4.684 4.684 0 0 1 1.8-.336c.656 0 1.254.112 1.794.336.54.224 1.002.534 1.386.93.384.392.682.86.894 1.404.212.54.318 1.128.318 1.764Zm-1.656 0c0-.476-.064-.902-.192-1.278a2.671 2.671 0 0 0-.54-.966 2.332 2.332 0 0 0-.864-.606 2.94 2.94 0 0 0-1.14-.21c-.424 0-.806.07-1.146.21-.34.14-.63.342-.87.606a2.742 2.742 0 0 0-.546.966 3.955 3.955 0 0 0-.192 1.278c0 .476.064.904.192 1.284.128.376.31.696.546.96.24.26.53.46.87.6.34.14.722.21 1.146.21.424 0 .804-.07 1.14-.21.34-.14.628-.34.864-.6.236-.264.416-.584.54-.96a4.01 4.01 0 0 0 .192-1.284ZM16.104 8.757v3.912c0 .376.086.668.258.876.176.204.438.306.786.306.256 0 .496-.056.72-.168a2.58 2.58 0 0 0 .636-.474V8.757h1.482v6.156h-.906c-.192 0-.318-.09-.378-.27l-.102-.492a4.65 4.65 0 0 1-.396.354 2.577 2.577 0 0 1-.438.27 2.35 2.35 0 0 1-.498.168 2.345 2.345 0 0 1-.57.066c-.336 0-.634-.056-.894-.168a1.821 1.821 0 0 1-.648-.486 2.157 2.157 0 0 1-.402-.738 3.233 3.233 0 0 1-.132-.948V8.757h1.482ZM21.328 14.913V8.757h.87c.152 0 .258.028.318.084.06.056.1.152.12.288l.09.744c.22-.38.478-.68.774-.9.296-.22.628-.33.996-.33.304 0 .556.07.756.21l-.192 1.11c-.012.072-.038.124-.078.156a.278.278 0 0 1-.162.042 1.01 1.01 0 0 1-.246-.042 1.646 1.646 0 0 0-.414-.042c-.308 0-.572.086-.792.258-.22.168-.406.416-.558.744v3.834h-1.482ZM27.347 6.237h1.356a.57.57 0 0 1 .348.102c.096.064.16.152.192.264l1.476 5.19c.036.128.068.268.096.42.032.148.062.306.09.474a5.968 5.968 0 0 1 .228-.894l1.704-5.19a.575.575 0 0 1 .186-.252.543.543 0 0 1 .348-.114h.474a.57.57 0 0 1 .348.102.497.497 0 0 1 .192.264l1.692 5.19c.088.256.164.54.228.852.028-.156.056-.306.084-.45.032-.144.064-.278.096-.402l1.476-5.19c.028-.1.09-.186.186-.258a.563.563 0 0 1 .348-.108h1.266l-2.694 8.676h-1.458l-1.896-5.928-.078-.246a9.504 9.504 0 0 1-.072-.282c-.024.1-.05.194-.078.282-.024.088-.048.17-.072.246l-1.914 5.928H30.04l-2.694-8.676ZM42.771 8.661c.46 0 .876.074 1.248.222.376.148.696.358.96.63s.468.604.612.996c.144.392.216.83.216 1.314 0 .488-.072.928-.216 1.32a2.85 2.85 0 0 1-.612 1.002 2.653 2.653 0 0 1-.96.636 3.35 3.35 0 0 1-1.248.222c-.46 0-.878-.074-1.254-.222a2.712 2.712 0 0 1-.966-.636 2.922 2.922 0 0 1-.618-1.002 3.807 3.807 0 0 1-.216-1.32c0-.484.072-.922.216-1.314.148-.392.354-.724.618-.996.268-.272.59-.482.966-.63a3.397 3.397 0 0 1 1.254-.222Zm0 5.202c.512 0 .89-.172 1.134-.516.248-.344.372-.848.372-1.512s-.124-1.17-.372-1.518c-.244-.348-.622-.522-1.134-.522-.52 0-.904.176-1.152.528-.248.348-.372.852-.372 1.512s.124 1.164.372 1.512c.248.344.632.516 1.152.516ZM46.723 14.913V8.757h.87c.152 0 .258.028.318.084.06.056.1.152.12.288l.09.744c.22-.38.478-.68.774-.9.296-.22.628-.33.996-.33.304 0 .556.07.756.21l-.192 1.11c-.012.072-.038.124-.078.156a.278.278 0 0 1-.162.042 1.01 1.01 0 0 1-.246-.042 1.646 1.646 0 0 0-.414-.042c-.308 0-.572.086-.792.258-.22.168-.406.416-.558.744v3.834h-1.482ZM52.96 5.997v8.916h-1.482V5.997h1.482ZM58.732 14.913c-.192 0-.318-.09-.378-.27l-.12-.594a3.68 3.68 0 0 1-.402.39c-.14.116-.292.216-.456.3-.16.084-.334.148-.522.192a2.372 2.372 0 0 1-.6.072c-.336 0-.644-.07-.924-.21a2.098 2.098 0 0 1-.726-.606 3.033 3.033 0 0 1-.468-.99 5.072 5.072 0 0 1-.162-1.344c0-.456.062-.88.186-1.272s.302-.732.534-1.02c.232-.288.51-.512.834-.672a2.384 2.384 0 0 1 1.092-.246 2.103 2.103 0 0 1 1.536.606V5.997h1.482v8.916h-.906Zm-1.974-1.086c.308 0 .57-.064.786-.192.216-.128.42-.31.612-.546v-2.76a1.452 1.452 0 0 0-.552-.432 1.597 1.597 0 0 0-.636-.126c-.224 0-.428.042-.612.126a1.21 1.21 0 0 0-.462.384c-.124.168-.22.384-.288.648-.068.26-.102.568-.102.924 0 .36.028.666.084.918.06.248.144.452.252.612.108.156.24.27.396.342.156.068.33.102.522.102ZM16.331 20.757v6.156H14.85v-6.156h1.481Zm.223-1.794a.844.844 0 0 1-.078.36.963.963 0 0 1-.21.294.995.995 0 0 1-.3.204.963.963 0 0 1-.372.072.948.948 0 0 1-.367-.072 1.018 1.018 0 0 1-.498-.498.963.963 0 0 1 0-.732.995.995 0 0 1 .205-.3.929.929 0 0 1 .293-.198.899.899 0 0 1 .738 0 .912.912 0 0 1 .3.198.943.943 0 0 1 .288.672ZM17.771 26.913v-6.156h.906c.192 0 .318.09.378.27l.102.486a2.934 2.934 0 0 1 .828-.618c.156-.076.322-.134.498-.174.176-.04.368-.06.576-.06.336 0 .634.058.894.174.26.112.476.272.648.48.176.204.308.45.396.738.092.284.138.598.138.942v3.918h-1.482v-3.918c0-.376-.088-.666-.264-.87-.172-.208-.432-.312-.78-.312-.256 0-.496.058-.72.174a2.58 2.58 0 0 0-.636.474v4.452h-1.482ZM34.22 22.575c0 .636-.106 1.22-.318 1.752-.212.532-.51.99-.894 1.374a4 4 0 0 1-1.386.894 4.87 4.87 0 0 1-1.794.318h-3.312v-8.676h3.312a4.79 4.79 0 0 1 1.794.324 4 4 0 0 1 1.386.894c.384.38.682.836.894 1.368.212.532.318 1.116.318 1.752Zm-1.65 0c0-.476-.064-.902-.192-1.278a2.68 2.68 0 0 0-.546-.96 2.332 2.332 0 0 0-.864-.606 2.94 2.94 0 0 0-1.14-.21h-1.686v6.108h1.686c.424 0 .804-.07 1.14-.21.34-.14.628-.34.864-.6a2.75 2.75 0 0 0 .546-.96 4.01 4.01 0 0 0 .192-1.284ZM39.98 26.913h-.665c-.14 0-.25-.02-.33-.06-.08-.044-.14-.13-.18-.258l-.132-.438c-.156.14-.31.264-.462.372a2.804 2.804 0 0 1-.462.264c-.16.072-.33.126-.51.162-.18.036-.38.054-.6.054-.26 0-.5-.034-.72-.102a1.618 1.618 0 0 1-.57-.318 1.448 1.448 0 0 1-.366-.522 1.852 1.852 0 0 1-.132-.726c0-.232.06-.46.18-.684.124-.228.328-.432.612-.612.284-.184.662-.336 1.134-.456.472-.12 1.058-.188 1.758-.204v-.36c0-.412-.088-.716-.264-.912-.172-.2-.424-.3-.756-.3a1.837 1.837 0 0 0-1.02.276c-.116.068-.224.13-.324.186a.664.664 0 0 1-.33.084.429.429 0 0 1-.258-.078.614.614 0 0 1-.174-.192l-.27-.474c.708-.648 1.562-.972 2.562-.972.36 0 .68.06.96.18.284.116.524.28.72.492.196.208.344.458.444.75.104.292.156.612.156.96v3.888Zm-2.88-.924c.153 0 .293-.014.42-.042.129-.028.249-.07.36-.126.117-.056.227-.124.33-.204.109-.084.217-.182.325-.294v-1.038c-.432.02-.794.058-1.086.114-.288.052-.52.12-.696.204a.923.923 0 0 0-.378.294.664.664 0 0 0-.108.366c0 .26.076.446.228.558.156.112.358.168.606.168ZM43.22 27.01c-.532 0-.942-.15-1.23-.45-.288-.305-.432-.723-.432-1.255v-3.438h-.624a.31.31 0 0 1-.21-.078c-.056-.052-.084-.13-.084-.234v-.588l.99-.162.312-1.68a.302.302 0 0 1 .108-.186.365.365 0 0 1 .222-.066h.768v1.938h1.62v1.056h-1.62v3.336c0 .192.048.342.144.45a.488.488 0 0 0 .384.162c.092 0 .168-.01.228-.03.064-.024.118-.048.162-.072.048-.024.09-.046.126-.066a.194.194 0 0 1 .108-.036.16.16 0 0 1 .108.036c.028.02.058.052.09.096l.444.72c-.216.18-.464.316-.744.408a2.77 2.77 0 0 1-.87.138ZM50.423 26.913h-.666c-.14 0-.25-.02-.33-.06-.08-.044-.14-.13-.18-.258l-.132-.438c-.156.14-.31.264-.462.372a2.804 2.804 0 0 1-.462.264c-.16.072-.33.126-.51.162-.18.036-.38.054-.6.054-.26 0-.5-.034-.72-.102a1.618 1.618 0 0 1-.57-.318 1.448 1.448 0 0 1-.366-.522 1.852 1.852 0 0 1-.132-.726c0-.232.06-.46.18-.684.124-.228.328-.432.612-.612.284-.184.662-.336 1.134-.456.472-.12 1.058-.188 1.758-.204v-.36c0-.412-.088-.716-.264-.912-.172-.2-.424-.3-.756-.3a1.837 1.837 0 0 0-1.02.276c-.116.068-.224.13-.324.186a.664.664 0 0 1-.33.084.429.429 0 0 1-.258-.078.614.614 0 0 1-.174-.192l-.27-.474c.708-.648 1.562-.972 2.562-.972.36 0 .68.06.96.18.284.116.524.28.72.492.196.208.344.458.444.75.104.292.156.612.156.96v3.888Zm-2.88-.924c.152 0 .292-.014.42-.042.128-.028.248-.07.36-.126.116-.056.226-.124.33-.204.108-.084.216-.182.324-.294v-1.038c-.432.02-.794.058-1.086.114-.288.052-.52.12-.696.204a.923.923 0 0 0-.378.294.664.664 0 0 0-.108.366c0 .26.076.446.228.558.156.112.358.168.606.168Z"/></svg></g><a id="title" href="https://ourworldindata.org/grapher/imports-of-goods-and-services-constant-2010-us" style="font-family:&#x27;Playfair Display&#x27;, Georgia, &#x27;Times New Roman&#x27;, &#x27;Liberation Serif&#x27;, serif" target="_blank" rel="noopener"><text font-size="25.00" font-weight="600" x="16.0" y="40.3" fill="#4e4e4e"><tspan x="16" y="40.25">Imports of goods and services, 1960 to 2022</tspan></text></a><g id="subtitle" class="markdown-text-wrap"><text x="16.0" y="66.5" style="font-size:15px;line-height:1.2" fill="#858585"><tspan x="16" y="66.5">Imports of goods and services represent the value of all goods and other market services received from the</tspan><tspan x="16" y="84.5">rest of the world. Data are in constant U.S. dollars. This means values are corrected for inflation.</tspan></text></g></g><g id="chart-area" style="pointer-events:none"><g id="horizontal-axis" class="HorizontalAxis"><g id="tick-marks"><line id="1960" x1="82" y1="532.9" x2="82" y2="538.4" stroke="#999" stroke-width="1"></line><line id="2022" x1="712.4" y1="532.9" x2="712.4" y2="538.4" stroke="#999" stroke-width="1"></line><line id="1970" x1="183.6" y1="532.9" x2="183.6" y2="538.4" stroke="#999" stroke-width="1"></line><line id="1980" x1="285.3" y1="532.9" x2="285.3" y2="538.4" stroke="#999" stroke-width="1"></line><line id="1990" x1="387" y1="532.9" x2="387" y2="538.4" stroke="#999" stroke-width="1"></line><line id="2000" x1="488.7" y1="532.9" x2="488.7" y2="538.4" stroke="#999" stroke-width="1"></line><line id="2010" x1="590.3" y1="532.9" x2="590.3" y2="538.4" stroke="#999" stroke-width="1"></line></g><g id="tick-labels"><text x="81.96000000000001" y="550.4" fill="#5b5b5b" text-anchor="start" font-size="12">1960</text><text x="712.36" y="550.4" fill="#5b5b5b" text-anchor="end" font-size="12">2022</text><text x="183.6" y="550.4" fill="#5b5b5b" text-anchor="middle" font-size="12">1970</text><text x="285.3" y="550.4" fill="#5b5b5b" text-anchor="middle" font-size="12">1980</text><text x="387" y="550.4" fill="#5b5b5b" text-anchor="middle" font-size="12">1990</text><text x="488.7" y="550.4" fill="#5b5b5b" text-anchor="middle" font-size="12">2000</text><text x="590.3" y="550.4" fill="#5b5b5b" text-anchor="middle" font-size="12">2010</text></g></g><g id="vertical-axis" class="VerticalAxis"><g id="tick-labels"><text x="76.96" y="533.4" dy=".32em" text-anchor="end" fill="#5b5b5b" font-size="12">$0</text><text x="76.96" y="473.5" dy=".32em" text-anchor="end" fill="#5b5b5b" font-size="12">$500 billion</text><text x="76.96" y="413.6" dy=".32em" text-anchor="end" fill="#5b5b5b" font-size="12">$1 trillion</text><text x="76.96" y="353.8" dy=".32em" text-anchor="end" fill="#5b5b5b" font-size="12">$1.5 trillion</text><text x="76.96" y="293.9" dy=".32em" text-anchor="end" fill="#5b5b5b" font-size="12">$2 trillion</text><text x="76.96" y="234" dy=".32em" text-anchor="end" fill="#5b5b5b" font-size="12">$2.5 trillion</text><text x="76.96" y="174.1" dy=".32em" text-anchor="end" fill="#5b5b5b" font-size="12">$3 trillion</text><text x="76.96" y="114.2" dy=".32em" text-anchor="end" fill="#5b5b5b" font-size="12">$3.5 trillion</text></g></g><g id="horizontal-grid-lines" class="AxisGridLines horizontalLines"><line id="$0" x1="81.96" y1="533.4" x2="712.36" y2="533.4" stroke="#999" stroke-width="1"></line><line id="$500-billion" x1="81.96" y1="473.5" x2="712.36" y2="473.5" stroke="#ddd" stroke-width="1" stroke-dasharray="2,1"></line><line id="$1-trillion" x1="81.96" y1="413.6" x2="712.36" y2="413.6" stroke="#ddd" stroke-width="1" stroke-dasharray="2,1"></line><line id="$1.5-trillion" x1="81.96" y1="353.8" x2="712.36" y2="353.8" stroke="#ddd" stroke-width="1" stroke-dasharray="2,1"></line><line id="$2-trillion" x1="81.96" y1="293.9" x2="712.36" y2="293.9" stroke="#ddd" stroke-width="1" stroke-dasharray="2,1"></line><line id="$2.5-trillion" x1="81.96" y1="234" x2="712.36" y2="234" stroke="#ddd" stroke-width="1" stroke-dasharray="2,1"></line><line id="$3-trillion" x1="81.96" y1="174.1" x2="712.36" y2="174.1" stroke="#ddd" stroke-width="1" stroke-dasharray="2,1"></line><line id="$3.5-trillion" x1="81.96" y1="114.2" x2="712.36" y2="114.2" stroke="#ddd" stroke-width="1" stroke-dasharray="2,1"></line></g><g id="line-labels" class="LineLabels"><g id="text-annotations"></g><g id="text-labels"><text font-size="12.00" font-weight="400" x="716.4" y="115.0" fill="#6d3e91" opacity="1" text-anchor="start"><tspan x="716.36" y="115.03999999999999">United States</tspan></text><text font-size="12.00" font-weight="400" x="716.4" y="338.8" fill="#996d39" opacity="1" text-anchor="start"><tspan x="716.36" y="338.84">Germany</tspan></text><text font-size="12.00" font-weight="400" x="716.4" y="418.3" fill="#2c8465" opacity="1" text-anchor="start"><tspan x="716.36" y="418.34">United Kingdom</tspan></text><text font-size="12.00" font-weight="400" x="716.4" y="443.9" fill="#4c6a9c" opacity="1" text-anchor="start"><tspan x="716.36" y="443.89">India</tspan></text><text font-size="12.00" font-weight="400" x="716.4" y="461.1" fill="#b13507" opacity="1" text-anchor="start"><tspan x="716.36" y="461.09">South Korea</tspan></text></g></g><g id="lines"><path fill="none" stroke-linecap="butt" stroke-linejoin="round" stroke="#ffffff" id="outline__United-States" stroke-width="2.5" d="M183.6 503.1L193.8 501.5L204 497.9L214.1 496.2L224.3 497.1L234.5 501.1L244.6 494.8L254.8 490.6L265 486.8L275.1 486.1L285.3 489.2L295.5 488.1L305.7 488.6L315.8 483L326 470.7L336.2 466.7L346.3 461L356.5 456.7L366.7 453.7L376.8 450.1L387 447.2L397.2 447.3L407.3 441.3L417.5 433.3L427.7 421.3L437.8 412.4L448 401.9L458.2 384.1L468.3 366.7L478.5 347.4L488.7 323.2L498.8 328.4L509 320.8L519.2 309.9L529.3 285.4L539.5 269.3L549.7 252.4L559.8 245.1L570 251.3L580.2 287L590.3 255L600.5 241.6L610.7 234.4L620.9 230.8L631 215.2L641.2 198.7L651.4 193.8L661.5 177.8L671.7 163.5L681.9 159L692 192.8L702.2 143.5L712.4 110"></path><path fill="none" stroke-linecap="butt" stroke-linejoin="round" stroke="#6D3E91" id="line__United-States" stroke-width="1.5" stroke-opacity="1" d="M183.6 503.1L193.8 501.5L204 497.9L214.1 496.2L224.3 497.1L234.5 501.1L244.6 494.8L254.8 490.6L265 486.8L275.1 486.1L285.3 489.2L295.5 488.1L305.7 488.6L315.8 483L326 470.7L336.2 466.7L346.3 461L356.5 456.7L366.7 453.7L376.8 450.1L387 447.2L397.2 447.3L407.3 441.3L417.5 433.3L427.7 421.3L437.8 412.4L448 401.9L458.2 384.1L468.3 366.7L478.5 347.4L488.7 323.2L498.8 328.4L509 320.8L519.2 309.9L529.3 285.4L539.5 269.3L549.7 252.4L559.8 245.1L570 251.3L580.2 287L590.3 255L600.5 241.6L610.7 234.4L620.9 230.8L631 215.2L641.2 198.7L651.4 193.8L661.5 177.8L671.7 163.5L681.9 159L692 192.8L702.2 143.5L712.4 110"></path><g id="markers__United-States"><circle id="1970" cx="183.6" cy="503.1" r="1.8" fill="#6D3E91" opacity="1"></circle><circle id="1971" cx="193.8" cy="501.5" r="1.8" fill="#6D3E91" opacity="1"></circle><circle id="1972" cx="204" cy="497.9" r="1.8" fill="#6D3E91" opacity="1"></circle><circle id="1973" cx="214.1" cy="496.2" r="1.8" fill="#6D3E91" opacity="1"></circle><circle id="1974" cx="224.3" cy="497.1" r="1.8" fill="#6D3E91" opacity="1"></circle><circle id="1975" cx="234.5" cy="501.1" r="1.8" fill="#6D3E91" opacity="1"></circle><circle id="1976" cx="244.6" cy="494.8" r="1.8" fill="#6D3E91" opacity="1"></circle><circle id="1977" cx="254.8" cy="490.6" r="1.8" fill="#6D3E91" opacity="1"></circle><circle id="1978" cx="265" cy="486.8" r="1.8" fill="#6D3E91" opacity="1"></circle><circle id="1979" cx="275.1" cy="486.1" r="1.8" fill="#6D3E91" opacity="1"></circle><circle id="1980" cx="285.3" cy="489.2" r="1.8" fill="#6D3E91" opacity="1"></circle><circle id="1981" cx="295.5" cy="488.1" r="1.8" fill="#6D3E91" opacity="1"></circle><circle id="1982" cx="305.7" cy="488.6" r="1.8" fill="#6D3E91" opacity="1"></circle><circle id="1983" cx="315.8" cy="483" r="1.8" fill="#6D3E91" opacity="1"></circle><circle id="1984" cx="326" cy="470.7" r="1.8" fill="#6D3E91" opacity="1"></circle><circle id="1985" cx="336.2" cy="466.7" r="1.8" fill="#6D3E91" opacity="1"></circle><circle id="1986" cx="346.3" cy="461" r="1.8" fill="#6D3E91" opacity="1"></circle><circle id="1987" cx="356.5" cy="456.7" r="1.8" fill="#6D3E91" opacity="1"></circle><circle id="1988" cx="366.7" cy="453.7" r="1.8" fill="#6D3E91" opacity="1"></circle><circle id="1989" cx="376.8" cy="450.1" r="1.8" fill="#6D3E91" opacity="1"></circle><circle id="1990" cx="387" cy="447.2" r="1.8" fill="#6D3E91" opacity="1"></circle><circle id="1991" cx="397.2" cy="447.3" r="1.8" fill="#6D3E91" opacity="1"></circle><circle id="1992" cx="407.3" cy="441.3" r="1.8" fill="#6D3E91" opacity="1"></circle><circle id="1993" cx="417.5" cy="433.3" r="1.8" fill="#6D3E91" opacity="1"></circle><circle id="1994" cx="427.7" cy="421.3" r="1.8" fill="#6D3E91" opacity="1"></circle><circle id="1995" cx="437.8" cy="412.4" r="1.8" fill="#6D3E91" opacity="1"></circle><circle id="1996" cx="448" cy="401.9" r="1.8" fill="#6D3E91" opacity="1"></circle><circle id="1997" cx="458.2" cy="384.1" r="1.8" fill="#6D3E91" opacity="1"></circle><circle id="1998" cx="468.3" cy="366.7" r="1.8" fill="#6D3E91" opacity="1"></circle><circle id="1999" cx="478.5" cy="347.4" r="1.8" fill="#6D3E91" opacity="1"></circle><circle id="2000" cx="488.7" cy="323.2" r="1.8" fill="#6D3E91" opacity="1"></circle><circle id="2001" cx="498.8" cy="328.4" r="1.8" fill="#6D3E91" opacity="1"></circle><circle id="2002" cx="509" cy="320.8" r="1.8" fill="#6D3E91" opacity="1"></circle><circle id="2003" cx="519.2" cy="309.9" r="1.8" fill="#6D3E91" opacity="1"></circle><circle id="2004" cx="529.3" cy="285.4" r="1.8" fill="#6D3E91" opacity="1"></circle><circle id="2005" cx="539.5" cy="269.3" r="1.8" fill="#6D3E91" opacity="1"></circle><circle id="2006" cx="549.7" cy="252.4" r="1.8" fill="#6D3E91" opacity="1"></circle><circle id="2007" cx="559.8" cy="245.1" r="1.8" fill="#6D3E91" opacity="1"></circle><circle id="2008" cx="570" cy="251.3" r="1.8" fill="#6D3E91" opacity="1"></circle><circle id="2009" cx="580.2" cy="287" r="1.8" fill="#6D3E91" opacity="1"></circle><circle id="2010" cx="590.3" cy="255" r="1.8" fill="#6D3E91" opacity="1"></circle><circle id="2011" cx="600.5" cy="241.6" r="1.8" fill="#6D3E91" opacity="1"></circle><circle id="2012" cx="610.7" cy="234.4" r="1.8" fill="#6D3E91" opacity="1"></circle><circle id="2013" cx="620.9" cy="230.8" r="1.8" fill="#6D3E91" opacity="1"></circle><circle id="2014" cx="631" cy="215.2" r="1.8" fill="#6D3E91" opacity="1"></circle><circle id="2015" cx="641.2" cy="198.7" r="1.8" fill="#6D3E91" opacity="1"></circle><circle id="2016" cx="651.4" cy="193.8" r="1.8" fill="#6D3E91" opacity="1"></circle><circle id="2017" cx="661.5" cy="177.8" r="1.8" fill="#6D3E91" opacity="1"></circle><circle id="2018" cx="671.7" cy="163.5" r="1.8" fill="#6D3E91" opacity="1"></circle><circle id="2019" cx="681.9" cy="159" r="1.8" fill="#6D3E91" opacity="1"></circle><circle id="2020" cx="692" cy="192.8" r="1.8" fill="#6D3E91" opacity="1"></circle><circle id="2021" cx="702.2" cy="143.5" r="1.8" fill="#6D3E91" opacity="1"></circle><circle id="2022" cx="712.4" cy="110" r="1.8" fill="#6D3E91" opacity="1"></circle></g><path fill="none" stroke-linecap="butt" stroke-linejoin="round" stroke="#ffffff" id="outline__United-Kingdom" stroke-width="2.5" d="M183.6 519.6L193.8 518.8L204 517.4L214.1 515.6L224.3 515.4L234.5 516.6L244.6 515.7L254.8 515.4L265 514.7L275.1 512.9L285.3 513.7L295.5 514.2L305.7 513.2L315.8 511.9L326 509.8L336.2 509.2L346.3 507.5L356.5 505.5L366.7 501.9L376.8 499.6L387 499.4L397.2 500.9L407.3 498.7L417.5 497.5L427.7 495.4L437.8 493.3L448 489.6L458.2 485.3L468.3 481.7L478.5 477.9L488.7 472.7L498.8 468.9L509 465.9L519.2 464.8L529.3 460.2L539.5 455L549.7 446.7L559.8 447.9L570 448.8L580.2 454.7L590.3 447.7L600.5 445.2L610.7 443L620.9 440.1L631 435.3L641.2 430.5L651.4 426.4L661.5 423L671.7 419.6L681.9 416.5L692 435.2L702.2 429.1L712.4 413.9"></path><path fill="none" stroke-linecap="butt" stroke-linejoin="round" stroke="#2C8465" id="line__United-Kingdom" stroke-width="1.5" stroke-opacity="1" d="M183.6 519.6L193.8 518.8L204 517.4L214.1 515.6L224.3 515.4L234.5 516.6L244.6 515.7L254.8 515.4L265 514.7L275.1 512.9L285.3 513.7L295.5 514.2L305.7 513.2L315.8 511.9L326 509.8L336.2 509.2L346.3 507.5L356.5 505.5L366.7 501.9L376.8 499.6L387 499.4L397.2 500.9L407.3 498.7L417.5 497.5L427.7 495.4L437.8 493.3L448 489.6L458.2 485.3L468.3 481.7L478.5 477.9L488.7 472.7L498.8 468.9L509 465.9L519.2 464.8L529.3 460.2L539.5 455L549.7 446.7L559.8 447.9L570 448.8L580.2 454.7L590.3 447.7L600.5 445.2L610.7 443L620.9 440.1L631 435.3L641.2 430.5L651.4 426.4L661.5 423L671.7 419.6L681.9 416.5L692 435.2L702.2 429.1L712.4 413.9"></path><g id="markers__United-Kingdom"><circle id="1970" cx="183.6" cy="519.6" r="1.8" fill="#2C8465" opacity="1"></circle><circle id="1971" cx="193.8" cy="518.8" r="1.8" fill="#2C8465" opacity="1"></circle><circle id="1972" cx="204" cy="517.4" r="1.8" fill="#2C8465" opacity="1"></circle><circle id="1973" cx="214.1" cy="515.6" r="1.8" fill="#2C8465" opacity="1"></circle><circle id="1974" cx="224.3" cy="515.4" r="1.8" fill="#2C8465" opacity="1"></circle><circle id="1975" cx="234.5" cy="516.6" r="1.8" fill="#2C8465" opacity="1"></circle><circle id="1976" cx="244.6" cy="515.7" r="1.8" fill="#2C8465" opacity="1"></circle><circle id="1977" cx="254.8" cy="515.4" r="1.8" fill="#2C8465" opacity="1"></circle><circle id="1978" cx="265" cy="514.7" r="1.8" fill="#2C8465" opacity="1"></circle><circle id="1979" cx="275.1" cy="512.9" r="1.8" fill="#2C8465" opacity="1"></circle><circle id="1980" cx="285.3" cy="513.7" r="1.8" fill="#2C8465" opacity="1"></circle><circle id="1981" cx="295.5" cy="514.2" r="1.8" fill="#2C8465" opacity="1"></circle><circle id="1982" cx="305.7" cy="513.2" r="1.8" fill="#2C8465" opacity="1"></circle><circle id="1983" cx="315.8" cy="511.9" r="1.8" fill="#2C8465" opacity="1"></circle><circle id="1984" cx="326" cy="509.8" r="1.8" fill="#2C8465" opacity="1"></circle><circle id="1985" cx="336.2" cy="509.2" r="1.8" fill="#2C8465" opacity="1"></circle><circle id="1986" cx="346.3" cy="507.5" r="1.8" fill="#2C8465" opacity="1"></circle><circle id="1987" cx="356.5" cy="505.5" r="1.8" fill="#2C8465" opacity="1"></circle><circle id="1988" cx="366.7" cy="501.9" r="1.8" fill="#2C8465" opacity="1"></circle><circle id="1989" cx="376.8" cy="499.6" r="1.8" fill="#2C8465" opacity="1"></circle><circle id="1990" cx="387" cy="499.4" r="1.8" fill="#2C8465" opacity="1"></circle><circle id="1991" cx="397.2" cy="500.9" r="1.8" fill="#2C8465" opacity="1"></circle><circle id="1992" cx="407.3" cy="498.7" r="1.8" fill="#2C8465" opacity="1"></circle><circle id="1993" cx="417.5" cy="497.5" r="1.8" fill="#2C8465" opacity="1"></circle><circle id="1994" cx="427.7" cy="495.4" r="1.8" fill="#2C8465" opacity="1"></circle><circle id="1995" cx="437.8" cy="493.3" r="1.8" fill="#2C8465" opacity="1"></circle><circle id="1996" cx="448" cy="489.6" r="1.8" fill="#2C8465" opacity="1"></circle><circle id="1997" cx="458.2" cy="485.3" r="1.8" fill="#2C8465" opacity="1"></circle><circle id="1998" cx="468.3" cy="481.7" r="1.8" fill="#2C8465" opacity="1"></circle><circle id="1999" cx="478.5" cy="477.9" r="1.8" fill="#2C8465" opacity="1"></circle><circle id="2000" cx="488.7" cy="472.7" r="1.8" fill="#2C8465" opacity="1"></circle><circle id="2001" cx="498.8" cy="468.9" r="1.8" fill="#2C8465" opacity="1"></circle><circle id="2002" cx="509" cy="465.9" r="1.8" fill="#2C8465" opacity="1"></circle><circle id="2003" cx="519.2" cy="464.8" r="1.8" fill="#2C8465" opacity="1"></circle><circle id="2004" cx="529.3" cy="460.2" r="1.8" fill="#2C8465" opacity="1"></circle><circle id="2005" cx="539.5" cy="455" r="1.8" fill="#2C8465" opacity="1"></circle><circle id="2006" cx="549.7" cy="446.7" r="1.8" fill="#2C8465" opacity="1"></circle><circle id="2007" cx="559.8" cy="447.9" r="1.8" fill="#2C8465" opacity="1"></circle><circle id="2008" cx="570" cy="448.8" r="1.8" fill="#2C8465" opacity="1"></circle><circle id="2009" cx="580.2" cy="454.7" r="1.8" fill="#2C8465" opacity="1"></circle><circle id="2010" cx="590.3" cy="447.7" r="1.8" fill="#2C8465" opacity="1"></circle><circle id="2011" cx="600.5" cy="445.2" r="1.8" fill="#2C8465" opacity="1"></circle><circle id="2012" cx="610.7" cy="443" r="1.8" fill="#2C8465" opacity="1"></circle><circle id="2013" cx="620.9" cy="440.1" r="1.8" fill="#2C8465" opacity="1"></circle><circle id="2014" cx="631" cy="435.3" r="1.8" fill="#2C8465" opacity="1"></circle><circle id="2015" cx="641.2" cy="430.5" r="1.8" fill="#2C8465" opacity="1"></circle><circle id="2016" cx="651.4" cy="426.4" r="1.8" fill="#2C8465" opacity="1"></circle><circle id="2017" cx="661.5" cy="423" r="1.8" fill="#2C8465" opacity="1"></circle><circle id="2018" cx="671.7" cy="419.6" r="1.8" fill="#2C8465" opacity="1"></circle><circle id="2019" cx="681.9" cy="416.5" r="1.8" fill="#2C8465" opacity="1"></circle><circle id="2020" cx="692" cy="435.2" r="1.8" fill="#2C8465" opacity="1"></circle><circle id="2021" cx="702.2" cy="429.1" r="1.8" fill="#2C8465" opacity="1"></circle><circle id="2022" cx="712.4" cy="413.9" r="1.8" fill="#2C8465" opacity="1"></circle></g><path fill="none" stroke-linecap="butt" stroke-linejoin="round" stroke="#ffffff" id="outline__Germany" stroke-width="2.5" d="M183.6 514L193.8 512.6L204 511.2L214.1 510.4L224.3 510.3L234.5 509.7L244.6 507.1L254.8 506.1L265 504.6L275.1 501.8L285.3 500.9L295.5 501.8L305.7 502.1L315.8 501.2L326 499.5L336.2 498.2L346.3 497L356.5 495.4L366.7 493.3L376.8 489.8L387 485.1L397.2 479.9L407.3 478.3L417.5 482L427.7 477.7L437.8 473.8L448 471.4L458.2 465.7L468.3 459.3L478.5 452.8L488.7 444.1L498.8 443.3L509 445.7L519.2 440.7L529.3 433.4L539.5 427.5L549.7 415.7L559.8 408.4L570 405.5L580.2 417.9L590.3 403L600.5 393.5L610.7 393.3L620.9 389.6L631 383.9L641.2 375.3L651.4 368.2L661.5 359.5L671.7 352.6L681.9 346.5L692 362L702.2 346.8L712.4 334.4"></path><path fill="none" stroke-linecap="butt" stroke-linejoin="round" stroke="#996D39" id="line__Germany" stroke-width="1.5" stroke-opacity="1" d="M183.6 514L193.8 512.6L204 511.2L214.1 510.4L224.3 510.3L234.5 509.7L244.6 507.1L254.8 506.1L265 504.6L275.1 501.8L285.3 500.9L295.5 501.8L305.7 502.1L315.8 501.2L326 499.5L336.2 498.2L346.3 497L356.5 495.4L366.7 493.3L376.8 489.8L387 485.1L397.2 479.9L407.3 478.3L417.5 482L427.7 477.7L437.8 473.8L448 471.4L458.2 465.7L468.3 459.3L478.5 452.8L488.7 444.1L498.8 443.3L509 445.7L519.2 440.7L529.3 433.4L539.5 427.5L549.7 415.7L559.8 408.4L570 405.5L580.2 417.9L590.3 403L600.5 393.5L610.7 393.3L620.9 389.6L631 383.9L641.2 375.3L651.4 368.2L661.5 359.5L671.7 352.6L681.9 346.5L692 362L702.2 346.8L712.4 334.4"></path><g id="markers__Germany"><circle id="1970" cx="183.6" cy="514" r="1.8" fill="#996D39" opacity="1"></circle><circle id="1971" cx="193.8" cy="512.6" r="1.8" fill="#996D39" opacity="1"></circle><circle id="1972" cx="204" cy="511.2" r="1.8" fill="#996D39" opacity="1"></circle><circle id="1973" cx="214.1" cy="510.4" r="1.8" fill="#996D39" opacity="1"></circle><circle id="1974" cx="224.3" cy="510.3" r="1.8" fill="#996D39" opacity="1"></circle><circle id="1975" cx="234.5" cy="509.7" r="1.8" fill="#996D39" opacity="1"></circle><circle id="1976" cx="244.6" cy="507.1" r="1.8" fill="#996D39" opacity="1"></circle><circle id="1977" cx="254.8" cy="506.1" r="1.8" fill="#996D39" opacity="1"></circle><circle id="1978" cx="265" cy="504.6" r="1.8" fill="#996D39" opacity="1"></circle><circle id="1979" cx="275.1" cy="501.8" r="1.8" fill="#996D39" opacity="1"></circle><circle id="1980" cx="285.3" cy="500.9" r="1.8" fill="#996D39" opacity="1"></circle><circle id="1981" cx="295.5" cy="501.8" r="1.8" fill="#996D39" opacity="1"></circle><circle id="1982" cx="305.7" cy="502.1" r="1.8" fill="#996D39" opacity="1"></circle><circle id="1983" cx="315.8" cy="501.2" r="1.8" fill="#996D39" opacity="1"></circle><circle id="1984" cx="326" cy="499.5" r="1.8" fill="#996D39" opacity="1"></circle><circle id="1985" cx="336.2" cy="498.2" r="1.8" fill="#996D39" opacity="1"></circle><circle id="1986" cx="346.3" cy="497" r="1.8" fill="#996D39" opacity="1"></circle><circle id="1987" cx="356.5" cy="495.4" r="1.8" fill="#996D39" opacity="1"></circle><circle id="1988" cx="366.7" cy="493.3" r="1.8" fill="#996D39" opacity="1"></circle><circle id="1989" cx="376.8" cy="489.8" r="1.8" fill="#996D39" opacity="1"></circle><circle id="1990" cx="387" cy="485.1" r="1.8" fill="#996D39" opacity="1"></circle><circle id="1991" cx="397.2" cy="479.9" r="1.8" fill="#996D39" opacity="1"></circle><circle id="1992" cx="407.3" cy="478.3" r="1.8" fill="#996D39" opacity="1"></circle><circle id="1993" cx="417.5" cy="482" r="1.8" fill="#996D39" opacity="1"></circle><circle id="1994" cx="427.7" cy="477.7" r="1.8" fill="#996D39" opacity="1"></circle><circle id="1995" cx="437.8" cy="473.8" r="1.8" fill="#996D39" opacity="1"></circle><circle id="1996" cx="448" cy="471.4" r="1.8" fill="#996D39" opacity="1"></circle><circle id="1997" cx="458.2" cy="465.7" r="1.8" fill="#996D39" opacity="1"></circle><circle id="1998" cx="468.3" cy="459.3" r="1.8" fill="#996D39" opacity="1"></circle><circle id="1999" cx="478.5" cy="452.8" r="1.8" fill="#996D39" opacity="1"></circle><circle id="2000" cx="488.7" cy="444.1" r="1.8" fill="#996D39" opacity="1"></circle><circle id="2001" cx="498.8" cy="443.3" r="1.8" fill="#996D39" opacity="1"></circle><circle id="2002" cx="509" cy="445.7" r="1.8" fill="#996D39" opacity="1"></circle><circle id="2003" cx="519.2" cy="440.7" r="1.8" fill="#996D39" opacity="1"></circle><circle id="2004" cx="529.3" cy="433.4" r="1.8" fill="#996D39" opacity="1"></circle><circle id="2005" cx="539.5" cy="427.5" r="1.8" fill="#996D39" opacity="1"></circle><circle id="2006" cx="549.7" cy="415.7" r="1.8" fill="#996D39" opacity="1"></circle><circle id="2007" cx="559.8" cy="408.4" r="1.8" fill="#996D39" opacity="1"></circle><circle id="2008" cx="570" cy="405.5" r="1.8" fill="#996D39" opacity="1"></circle><circle id="2009" cx="580.2" cy="417.9" r="1.8" fill="#996D39" opacity="1"></circle><circle id="2010" cx="590.3" cy="403" r="1.8" fill="#996D39" opacity="1"></circle><circle id="2011" cx="600.5" cy="393.5" r="1.8" fill="#996D39" opacity="1"></circle><circle id="2012" cx="610.7" cy="393.3" r="1.8" fill="#996D39" opacity="1"></circle><circle id="2013" cx="620.9" cy="389.6" r="1.8" fill="#996D39" opacity="1"></circle><circle id="2014" cx="631" cy="383.9" r="1.8" fill="#996D39" opacity="1"></circle><circle id="2015" cx="641.2" cy="375.3" r="1.8" fill="#996D39" opacity="1"></circle><circle id="2016" cx="651.4" cy="368.2" r="1.8" fill="#996D39" opacity="1"></circle><circle id="2017" cx="661.5" cy="359.5" r="1.8" fill="#996D39" opacity="1"></circle><circle id="2018" cx="671.7" cy="352.6" r="1.8" fill="#996D39" opacity="1"></circle><circle id="2019" cx="681.9" cy="346.5" r="1.8" fill="#996D39" opacity="1"></circle><circle id="2020" cx="692" cy="362" r="1.8" fill="#996D39" opacity="1"></circle><circle id="2021" cx="702.2" cy="346.8" r="1.8" fill="#996D39" opacity="1"></circle><circle id="2022" cx="712.4" cy="334.4" r="1.8" fill="#996D39" opacity="1"></circle></g><path fill="none" stroke-linecap="butt" stroke-linejoin="round" stroke="#ffffff" id="outline__South-Korea" stroke-width="2.5" d="M82 533.2L92.1 533.3L102.3 533.2L112.5 533.2L122.6 533.2L132.8 533.2L143 533.1L153.1 533L163.3 532.9L173.5 532.7L183.6 532.6L193.8 532.5L204 532.5L214.1 532.2L224.3 531.9L234.5 531.9L244.6 531.5L254.8 531.1L265 530.4L275.1 530L285.3 530.1L295.5 529.9L305.7 529.9L315.8 529.6L326 529.5L336.2 529.6L346.3 528.3L356.5 527.4L366.7 526.6L376.8 525.5L387 524.4L397.2 522.6L407.3 522.1L417.5 521.4L427.7 518.5L437.8 515.2L448 512.6L458.2 512.1L468.3 517.3L478.5 513.3L488.7 508.9L498.8 509.7L509 506.2L519.2 503.3L529.3 499.7L539.5 497.1L549.7 492.5L559.8 487.9L570 486.4L580.2 489.7L590.3 482L600.5 474.5L610.7 473L620.9 472L631 471.3L641.2 469.9L651.4 466.7L661.5 460.7L671.7 459.5L681.9 460.9L692 463.2L702.2 456.1L712.4 453.4"></path><path fill="none" stroke-linecap="butt" stroke-linejoin="round" stroke="#B13507" id="line__South-Korea" stroke-width="1.5" stroke-opacity="1" d="M82 533.2L92.1 533.3L102.3 533.2L112.5 533.2L122.6 533.2L132.8 533.2L143 533.1L153.1 533L163.3 532.9L173.5 532.7L183.6 532.6L193.8 532.5L204 532.5L214.1 532.2L224.3 531.9L234.5 531.9L244.6 531.5L254.8 531.1L265 530.4L275.1 530L285.3 530.1L295.5 529.9L305.7 529.9L315.8 529.6L326 529.5L336.2 529.6L346.3 528.3L356.5 527.4L366.7 526.6L376.8 525.5L387 524.4L397.2 522.6L407.3 522.1L417.5 521.4L427.7 518.5L437.8 515.2L448 512.6L458.2 512.1L468.3 517.3L478.5 513.3L488.7 508.9L498.8 509.7L509 506.2L519.2 503.3L529.3 499.7L539.5 497.1L549.7 492.5L559.8 487.9L570 486.4L580.2 489.7L590.3 482L600.5 474.5L610.7 473L620.9 472L631 471.3L641.2 469.9L651.4 466.7L661.5 460.7L671.7 459.5L681.9 460.9L692 463.2L702.2 456.1L712.4 453.4"></path><g id="markers__South-Korea"><circle id="1960" cx="82" cy="533.2" r="1.8" fill="#B13507" opacity="1"></circle><circle id="1961" cx="92.1" cy="533.3" r="1.8" fill="#B13507" opacity="1"></circle><circle id="1962" cx="102.3" cy="533.2" r="1.8" fill="#B13507" opacity="1"></circle><circle id="1963" cx="112.5" cy="533.2" r="1.8" fill="#B13507" opacity="1"></circle><circle id="1964" cx="122.6" cy="533.2" r="1.8" fill="#B13507" opacity="1"></circle><circle id="1965" cx="132.8" cy="533.2" r="1.8" fill="#B13507" opacity="1"></circle><circle id="1966" cx="143" cy="533.1" r="1.8" fill="#B13507" opacity="1"></circle><circle id="1967" cx="153.1" cy="533" r="1.8" fill="#B13507" opacity="1"></circle><circle id="1968" cx="163.3" cy="532.9" r="1.8" fill="#B13507" opacity="1"></circle><circle id="1969" cx="173.5" cy="532.7" r="1.8" fill="#B13507" opacity="1"></circle><circle id="1970" cx="183.6" cy="532.6" r="1.8" fill="#B13507" opacity="1"></circle><circle id="1971" cx="193.8" cy="532.5" r="1.8" fill="#B13507" opacity="1"></circle><circle id="1972" cx="204" cy="532.5" r="1.8" fill="#B13507" opacity="1"></circle><circle id="1973" cx="214.1" cy="532.2" r="1.8" fill="#B13507" opacity="1"></circle><circle id="1974" cx="224.3" cy="531.9" r="1.8" fill="#B13507" opacity="1"></circle><circle id="1975" cx="234.5" cy="531.9" r="1.8" fill="#B13507" opacity="1"></circle><circle id="1976" cx="244.6" cy="531.5" r="1.8" fill="#B13507" opacity="1"></circle><circle id="1977" cx="254.8" cy="531.1" r="1.8" fill="#B13507" opacity="1"></circle><circle id="1978" cx="265" cy="530.4" r="1.8" fill="#B13507" opacity="1"></circle><circle id="1979" cx="275.1" cy="530" r="1.8" fill="#B13507" opacity="1"></circle><circle id="1980" cx="285.3" cy="530.1" r="1.8" fill="#B13507" opacity="1"></circle><circle id="1981" cx="295.5" cy="529.9" r="1.8" fill="#B13507" opacity="1"></circle><circle id="1982" cx="305.7" cy="529.9" r="1.8" fill="#B13507" opacity="1"></circle><circle id="1983" cx="315.8" cy="529.6" r="1.8" fill="#B13507" opacity="1"></circle><circle id="1984" cx="326" cy="529.5" r="1.8" fill="#B13507" opacity="1"></circle><circle id="1985" cx="336.2" cy="529.6" r="1.8" fill="#B13507" opacity="1"></circle><circle id="1986" cx="346.3" cy="528.3" r="1.8" fill="#B13507" opacity="1"></circle><circle id="1987" cx="356.5" cy="527.4" r="1.8" fill="#B13507" opacity="1"></circle><circle id="1988" cx="366.7" cy="526.6" r="1.8" fill="#B13507" opacity="1"></circle><circle id="1989" cx="376.8" cy="525.5" r="1.8" fill="#B13507" opacity="1"></circle><circle id="1990" cx="387" cy="524.4" r="1.8" fill="#B13507" opacity="1"></circle><circle id="1991" cx="397.2" cy="522.6" r="1.8" fill="#B13507" opacity="1"></circle><circle id="1992" cx="407.3" cy="522.1" r="1.8" fill="#B13507" opacity="1"></circle><circle id="1993" cx="417.5" cy="521.4" r="1.8" fill="#B13507" opacity="1"></circle><circle id="1994" cx="427.7" cy="518.5" r="1.8" fill="#B13507" opacity="1"></circle><circle id="1995" cx="437.8" cy="515.2" r="1.8" fill="#B13507" opacity="1"></circle><circle id="1996" cx="448" cy="512.6" r="1.8" fill="#B13507" opacity="1"></circle><circle id="1997" cx="458.2" cy="512.1" r="1.8" fill="#B13507" opacity="1"></circle><circle id="1998" cx="468.3" cy="517.3" r="1.8" fill="#B13507" opacity="1"></circle><circle id="1999" cx="478.5" cy="513.3" r="1.8" fill="#B13507" opacity="1"></circle><circle id="2000" cx="488.7" cy="508.9" r="1.8" fill="#B13507" opacity="1"></circle><circle id="2001" cx="498.8" cy="509.7" r="1.8" fill="#B13507" opacity="1"></circle><circle id="2002" cx="509" cy="506.2" r="1.8" fill="#B13507" opacity="1"></circle><circle id="2003" cx="519.2" cy="503.3" r="1.8" fill="#B13507" opacity="1"></circle><circle id="2004" cx="529.3" cy="499.7" r="1.8" fill="#B13507" opacity="1"></circle><circle id="2005" cx="539.5" cy="497.1" r="1.8" fill="#B13507" opacity="1"></circle><circle id="2006" cx="549.7" cy="492.5" r="1.8" fill="#B13507" opacity="1"></circle><circle id="2007" cx="559.8" cy="487.9" r="1.8" fill="#B13507" opacity="1"></circle><circle id="2008" cx="570" cy="486.4" r="1.8" fill="#B13507" opacity="1"></circle><circle id="2009" cx="580.2" cy="489.7" r="1.8" fill="#B13507" opacity="1"></circle><circle id="2010" cx="590.3" cy="482" r="1.8" fill="#B13507" opacity="1"></circle><circle id="2011" cx="600.5" cy="474.5" r="1.8" fill="#B13507" opacity="1"></circle><circle id="2012" cx="610.7" cy="473" r="1.8" fill="#B13507" opacity="1"></circle><circle id="2013" cx="620.9" cy="472" r="1.8" fill="#B13507" opacity="1"></circle><circle id="2014" cx="631" cy="471.3" r="1.8" fill="#B13507" opacity="1"></circle><circle id="2015" cx="641.2" cy="469.9" r="1.8" fill="#B13507" opacity="1"></circle><circle id="2016" cx="651.4" cy="466.7" r="1.8" fill="#B13507" opacity="1"></circle><circle id="2017" cx="661.5" cy="460.7" r="1.8" fill="#B13507" opacity="1"></circle><circle id="2018" cx="671.7" cy="459.5" r="1.8" fill="#B13507" opacity="1"></circle><circle id="2019" cx="681.9" cy="460.9" r="1.8" fill="#B13507" opacity="1"></circle><circle id="2020" cx="692" cy="463.2" r="1.8" fill="#B13507" opacity="1"></circle><circle id="2021" cx="702.2" cy="456.1" r="1.8" fill="#B13507" opacity="1"></circle><circle id="2022" cx="712.4" cy="453.4" r="1.8" fill="#B13507" opacity="1"></circle></g><path fill="none" stroke-linecap="butt" stroke-linejoin="round" stroke="#ffffff" id="outline__India" stroke-width="2.5" d="M82 532.3L92.1 532.4L102.3 532.4L112.5 532.3L122.6 532.3L132.8 532.4L143 532.1L153.1 532.2L163.3 532.4L173.5 532.5L183.6 532.3L193.8 532.1L204 532.2L214.1 532.1L224.3 532.2L234.5 532.2L244.6 532.2L254.8 531.9L265 531.9L275.1 531.6L285.3 531.3L295.5 531.1L305.7 531L315.8 530.5L326 530.9L336.2 530.6L346.3 530.1L356.5 530.2L366.7 529.9L376.8 529.8L387 529.7L397.2 529.7L407.3 528.9L417.5 528L427.7 526.8L437.8 524.9L448 525.1L458.2 524L468.3 522.1L478.5 521.3L488.7 520.7L498.8 520.3L509 518.8L519.2 516.7L529.3 513L539.5 506.5L549.7 500.7L559.8 497.4L570 489.4L580.2 490.2L590.3 483.4L600.5 473.2L610.7 469.5L620.9 474.8L631 474.2L641.2 477.7L651.4 475.3L661.5 465.1L671.7 459.1L681.9 459.7L692 469.8L702.2 455.9L712.4 442.7"></path><path fill="none" stroke-linecap="butt" stroke-linejoin="round" stroke="#4C6A9C" id="line__India" stroke-width="1.5" stroke-opacity="1" d="M82 532.3L92.1 532.4L102.3 532.4L112.5 532.3L122.6 532.3L132.8 532.4L143 532.1L153.1 532.2L163.3 532.4L173.5 532.5L183.6 532.3L193.8 532.1L204 532.2L214.1 532.1L224.3 532.2L234.5 532.2L244.6 532.2L254.8 531.9L265 531.9L275.1 531.6L285.3 531.3L295.5 531.1L305.7 531L315.8 530.5L326 530.9L336.2 530.6L346.3 530.1L356.5 530.2L366.7 529.9L376.8 529.8L387 529.7L397.2 529.7L407.3 528.9L417.5 528L427.7 526.8L437.8 524.9L448 525.1L458.2 524L468.3 522.1L478.5 521.3L488.7 520.7L498.8 520.3L509 518.8L519.2 516.7L529.3 513L539.5 506.5L549.7 500.7L559.8 497.4L570 489.4L580.2 490.2L590.3 483.4L600.5 473.2L610.7 469.5L620.9 474.8L631 474.2L641.2 477.7L651.4 475.3L661.5 465.1L671.7 459.1L681.9 459.7L692 469.8L702.2 455.9L712.4 442.7"></path><g id="markers__India"><circle id="1960" cx="82" cy="532.3" r="1.8" fill="#4C6A9C" opacity="1"></circle><circle id="1961" cx="92.1" cy="532.4" r="1.8" fill="#4C6A9C" opacity="1"></circle><circle id="1962" cx="102.3" cy="532.4" r="1.8" fill="#4C6A9C" opacity="1"></circle><circle id="1963" cx="112.5" cy="532.3" r="1.8" fill="#4C6A9C" opacity="1"></circle><circle id="1964" cx="122.6" cy="532.3" r="1.8" fill="#4C6A9C" opacity="1"></circle><circle id="1965" cx="132.8" cy="532.4" r="1.8" fill="#4C6A9C" opacity="1"></circle><circle id="1966" cx="143" cy="532.1" r="1.8" fill="#4C6A9C" opacity="1"></circle><circle id="1967" cx="153.1" cy="532.2" r="1.8" fill="#4C6A9C" opacity="1"></circle><circle id="1968" cx="163.3" cy="532.4" r="1.8" fill="#4C6A9C" opacity="1"></circle><circle id="1969" cx="173.5" cy="532.5" r="1.8" fill="#4C6A9C" opacity="1"></circle><circle id="1970" cx="183.6" cy="532.3" r="1.8" fill="#4C6A9C" opacity="1"></circle><circle id="1971" cx="193.8" cy="532.1" r="1.8" fill="#4C6A9C" opacity="1"></circle><circle id="1972" cx="204" cy="532.2" r="1.8" fill="#4C6A9C" opacity="1"></circle><circle id="1973" cx="214.1" cy="532.1" r="1.8" fill="#4C6A9C" opacity="1"></circle><circle id="1974" cx="224.3" cy="532.2" r="1.8" fill="#4C6A9C" opacity="1"></circle><circle id="1975" cx="234.5" cy="532.2" r="1.8" fill="#4C6A9C" opacity="1"></circle><circle id="1976" cx="244.6" cy="532.2" r="1.8" fill="#4C6A9C" opacity="1"></circle><circle id="1977" cx="254.8" cy="531.9" r="1.8" fill="#4C6A9C" opacity="1"></circle><circle id="1978" cx="265" cy="531.9" r="1.8" fill="#4C6A9C" opacity="1"></circle><circle id="1979" cx="275.1" cy="531.6" r="1.8" fill="#4C6A9C" opacity="1"></circle><circle id="1980" cx="285.3" cy="531.3" r="1.8" fill="#4C6A9C" opacity="1"></circle><circle id="1981" cx="295.5" cy="531.1" r="1.8" fill="#4C6A9C" opacity="1"></circle><circle id="1982" cx="305.7" cy="531" r="1.8" fill="#4C6A9C" opacity="1"></circle><circle id="1983" cx="315.8" cy="530.5" r="1.8" fill="#4C6A9C" opacity="1"></circle><circle id="1984" cx="326" cy="530.9" r="1.8" fill="#4C6A9C" opacity="1"></circle><circle id="1985" cx="336.2" cy="530.6" r="1.8" fill="#4C6A9C" opacity="1"></circle><circle id="1986" cx="346.3" cy="530.1" r="1.8" fill="#4C6A9C" opacity="1"></circle><circle id="1987" cx="356.5" cy="530.2" r="1.8" fill="#4C6A9C" opacity="1"></circle><circle id="1988" cx="366.7" cy="529.9" r="1.8" fill="#4C6A9C" opacity="1"></circle><circle id="1989" cx="376.8" cy="529.8" r="1.8" fill="#4C6A9C" opacity="1"></circle><circle id="1990" cx="387" cy="529.7" r="1.8" fill="#4C6A9C" opacity="1"></circle><circle id="1991" cx="397.2" cy="529.7" r="1.8" fill="#4C6A9C" opacity="1"></circle><circle id="1992" cx="407.3" cy="528.9" r="1.8" fill="#4C6A9C" opacity="1"></circle><circle id="1993" cx="417.5" cy="528" r="1.8" fill="#4C6A9C" opacity="1"></circle><circle id="1994" cx="427.7" cy="526.8" r="1.8" fill="#4C6A9C" opacity="1"></circle><circle id="1995" cx="437.8" cy="524.9" r="1.8" fill="#4C6A9C" opacity="1"></circle><circle id="1996" cx="448" cy="525.1" r="1.8" fill="#4C6A9C" opacity="1"></circle><circle id="1997" cx="458.2" cy="524" r="1.8" fill="#4C6A9C" opacity="1"></circle><circle id="1998" cx="468.3" cy="522.1" r="1.8" fill="#4C6A9C" opacity="1"></circle><circle id="1999" cx="478.5" cy="521.3" r="1.8" fill="#4C6A9C" opacity="1"></circle><circle id="2000" cx="488.7" cy="520.7" r="1.8" fill="#4C6A9C" opacity="1"></circle><circle id="2001" cx="498.8" cy="520.3" r="1.8" fill="#4C6A9C" opacity="1"></circle><circle id="2002" cx="509" cy="518.8" r="1.8" fill="#4C6A9C" opacity="1"></circle><circle id="2003" cx="519.2" cy="516.7" r="1.8" fill="#4C6A9C" opacity="1"></circle><circle id="2004" cx="529.3" cy="513" r="1.8" fill="#4C6A9C" opacity="1"></circle><circle id="2005" cx="539.5" cy="506.5" r="1.8" fill="#4C6A9C" opacity="1"></circle><circle id="2006" cx="549.7" cy="500.7" r="1.8" fill="#4C6A9C" opacity="1"></circle><circle id="2007" cx="559.8" cy="497.4" r="1.8" fill="#4C6A9C" opacity="1"></circle><circle id="2008" cx="570" cy="489.4" r="1.8" fill="#4C6A9C" opacity="1"></circle><circle id="2009" cx="580.2" cy="490.2" r="1.8" fill="#4C6A9C" opacity="1"></circle><circle id="2010" cx="590.3" cy="483.4" r="1.8" fill="#4C6A9C" opacity="1"></circle><circle id="2011" cx="600.5" cy="473.2" r="1.8" fill="#4C6A9C" opacity="1"></circle><circle id="2012" cx="610.7" cy="469.5" r="1.8" fill="#4C6A9C" opacity="1"></circle><circle id="2013" cx="620.9" cy="474.8" r="1.8" fill="#4C6A9C" opacity="1"></circle><circle id="2014" cx="631" cy="474.2" r="1.8" fill="#4C6A9C" opacity="1"></circle><circle id="2015" cx="641.2" cy="477.7" r="1.8" fill="#4C6A9C" opacity="1"></circle><circle id="2016" cx="651.4" cy="475.3" r="1.8" fill="#4C6A9C" opacity="1"></circle><circle id="2017" cx="661.5" cy="465.1" r="1.8" fill="#4C6A9C" opacity="1"></circle><circle id="2018" cx="671.7" cy="459.1" r="1.8" fill="#4C6A9C" opacity="1"></circle><circle id="2019" cx="681.9" cy="459.7" r="1.8" fill="#4C6A9C" opacity="1"></circle><circle id="2020" cx="692" cy="469.8" r="1.8" fill="#4C6A9C" opacity="1"></circle><circle id="2021" cx="702.2" cy="455.9" r="1.8" fill="#4C6A9C" opacity="1"></circle><circle id="2022" cx="712.4" cy="442.7" r="1.8" fill="#4C6A9C" opacity="1"></circle></g></g></g><g id="footer" class="SourcesFooter" style="fill:#858585"><g id="sources" class="markdown-text-wrap"><text x="16.0" y="581.0" style="font-size:13px;line-height:1.2"><tspan x="16" y="581.0"><tspan style="font-weight:700">Data source:</tspan> Multiple sources compiled by World Bank (2024)</tspan></text></g><text id="origin-url" font-size="13.00" x="531.4" y="581.0"><tspan x="531.36" y="581.01"><a target="_blank" style="fill: #858585;" href="https://ourworldindata.org/trade-and-globalization">OurWorldinData.org/trade-and-globalization</a> | <a target="_blank" style="fill: #858585;" href="https://creativecommons.org/licenses/by/4.0/">CC BY</a></tspan></text></g></svg>