<svg xmlns="http://www.w3.org/2000/svg" version="1.1" style="font-family:Lato, &#x27;Helvetica Neue&#x27;, Helvetica, Arial, &#x27;Liberation Sans&#x27;, sans-serif;font-size:18px;background-color:white;text-rendering:geometricPrecision;-webkit-font-smoothing:antialiased" width="850" height="600" viewBox="0 0 850 600"><defs><style>@import url(http://localhost:3030/fonts.css)</style></defs><defs><pattern id="noDataPattern" patternUnits="userSpaceOnUse" width="4" height="4" patternTransform="rotate(-45 2 2)"><path d="M -1,2 l 6,0" stroke="#ccc" stroke-width="0.7"></path></pattern></defs><rect class="background-fill" fill="white" width="850" height="600"></rect><g class="HeaderView"><g transform="translate(774, 15) scale(0.29)"><svg className="owidLog" width="210" height="120" viewBox="0 0 210 120" fill="none" xmlns="http://www.w3.org/2000/svg">
<g clip-path="url(#clip0)">
  <path d="M0 0h210v107.89H0V0z" fill="#002147" />
  <path
    d="M40.98 32.25c0 2.36-.38 4.53-1.12 6.51a14.26 14.26 0 0 1-8.1 8.4c-1.9.78-4.02 1.17-6.34 1.17-2.31 0-4.42-.39-6.33-1.17a14.31 14.31 0 0 1-8.08-8.4 18.29 18.29 0 0 1-1.12-6.51c0-2.36.38-4.53 1.12-6.5.75-1.97 1.8-3.67 3.17-5.1a14.32 14.32 0 0 1 4.9-3.34c1.92-.8 4.03-1.19 6.34-1.19 2.32 0 4.43.4 6.34 1.19 1.92.8 3.56 1.9 4.93 3.34a14.87 14.87 0 0 1 3.17 5.1 18.1 18.1 0 0 1 1.12 6.5zm-4.38 0c0-1.94-.26-3.68-.8-5.22a10.91 10.91 0 0 0-2.24-3.89 9.68 9.68 0 0 0-3.52-2.46 11.95 11.95 0 0 0-4.62-.86c-1.68 0-3.21.28-4.6.86a9.88 9.88 0 0 0-3.54 2.46 10.91 10.91 0 0 0-2.24 3.9c-.53 1.53-.8 3.27-.8 5.2 0 1.94.27 3.68.8 5.22a11.17 11.17 0 0 0 2.24 3.9 10.01 10.01 0 0 0 3.55 2.44c1.38.56 2.9.83 4.6.83s3.24-.27 4.61-.83a9.8 9.8 0 0 0 3.52-2.44 11.17 11.17 0 0 0 2.25-3.9c.53-1.54.8-3.28.8-5.21zm26.22-6.54V48H60.5c-.56 0-.9-.27-1.05-.81l-.31-2.4a12.45 12.45 0 0 1-3.26 2.6c-1.2.64-2.58.96-4.13.96-1.22 0-2.3-.2-3.24-.6a6.52 6.52 0 0 1-2.33-1.7 7.37 7.37 0 0 1-1.43-2.67c-.3-1.04-.46-2.2-.46-3.45V25.7h3.91v14.22c0 1.68.38 2.99 1.15 3.91.77.93 1.96 1.39 3.54 1.39 1.16 0 2.24-.27 3.23-.82a10.42 10.42 0 0 0 2.8-2.28V25.7h3.91zm8.61 4.47a9.94 9.94 0 0 1 2.6-3.56 5.64 5.64 0 0 1 3.76-1.3c.47 0 .92.05 1.34.15.44.1.83.27 1.17.49l-.3 2.92c-.09.37-.3.55-.66.55-.2 0-.5-.04-.9-.13a6.21 6.21 0 0 0-3.24.18 4.23 4.23 0 0 0-1.47.92c-.42.4-.81.9-1.17 1.5-.33.58-.64 1.26-.92 2.02V48H67.7V25.71h2.25c.42 0 .72.08.88.25.16.16.27.44.33.83l.26 3.39zm61.16-13.7L122.75 48h-3.82l-7.99-24.05a21.95 21.95 0 0 1-.42-1.58 38.36 38.36 0 0 1-.44 1.58L102.05 48h-3.83L88.4 16.47h3.54c.38 0 .7.1.95.29.26.2.43.43.5.73l6.52 21.9.28 1.28.29 1.46.3-1.46.38-1.27 7.41-21.91c.1-.25.26-.48.51-.69.27-.22.58-.33.95-.33h1.23c.38 0 .69.1.92.29a1.77 1.77 0 0 1 .53.73l7.4 21.9a28.4 28.4 0 0 1 .68 2.62 29.52 29.52 0 0 1 .52-2.61l6.54-21.91a1.31 1.31 0 0 1 .48-.7c.27-.21.58-.32.95-.32h3.32zm9.35 8.88c1.63 0 3.1.27 4.4.82a9.43 9.43 0 0 1 5.46 5.94c.5 1.4.74 2.98.74 4.73 0 1.76-.25 3.34-.74 4.75a9.43 9.43 0 0 1-5.46 5.92c-1.3.52-2.77.79-4.4.79-1.64 0-3.12-.27-4.44-.8a9.42 9.42 0 0 1-3.35-2.3c-.92-1-1.63-2.2-2.13-3.61-.49-1.41-.73-3-.73-4.75s.24-3.33.73-4.73c.5-1.43 1.2-2.64 2.13-3.63.93-1 2.04-1.77 3.35-2.31 1.32-.55 2.8-.82 4.44-.82zm0 19.89c2.2 0 3.84-.73 4.93-2.2 1.08-1.48 1.63-3.54 1.63-6.18 0-2.66-.55-4.72-1.63-6.2-1.09-1.49-2.73-2.23-4.93-2.23-1.12 0-2.09.2-2.93.57a5.71 5.71 0 0 0-2.06 1.65c-.55.72-.96 1.61-1.24 2.67-.26 1.04-.4 2.22-.4 3.54 0 2.64.55 4.7 1.64 6.18 1.1 1.47 2.76 2.2 4.99 2.2zm17.97-15.07a9.94 9.94 0 0 1 2.6-3.56 5.64 5.64 0 0 1 3.76-1.3c.47 0 .91.05 1.34.15.44.1.83.27 1.16.49l-.28 2.92c-.09.37-.31.55-.66.55-.2 0-.5-.04-.9-.13a6.2 6.2 0 0 0-3.24.18 4.23 4.23 0 0 0-1.47.92c-.43.4-.82.9-1.17 1.5a13.1 13.1 0 0 0-.92 2.02V48h-3.94V25.71h2.24c.43 0 .72.08.88.25.17.16.28.44.33.83l.27 3.39zm15.04-14.59V48h-3.92V15.6h3.92zm19.55 15.43a6.22 6.22 0 0 0-2.38-2.05 6.7 6.7 0 0 0-2.86-.6c-2.07 0-3.66.75-4.77 2.23-1.12 1.48-1.68 3.6-1.68 6.33 0 1.46.13 2.7.38 3.74a7.29 7.29 0 0 0 1.1 2.56 4.35 4.35 0 0 0 1.78 1.45c.7.3 1.5.46 2.4.46 1.29 0 2.41-.3 3.36-.88a9.6 9.6 0 0 0 2.67-2.49V31.02zm3.91-15.43V48h-2.33c-.56 0-.9-.27-1.06-.81l-.35-2.71a12.13 12.13 0 0 1-3.25 2.77 8.28 8.28 0 0 1-4.23 1.06 7.31 7.31 0 0 1-6.14-2.9c-.73-.96-1.3-2.15-1.69-3.57a18.35 18.35 0 0 1 .07-9.48 11.29 11.29 0 0 1 1.89-3.7 8.7 8.7 0 0 1 7.06-3.34 7.96 7.96 0 0 1 6.12 2.62V15.59h3.91zM46.61 70.71V93H42.7V70.71h3.91zm.84-7c0 .39-.08.75-.24 1.09-.15.32-.35.61-.62.88-.25.25-.55.44-.9.59a2.67 2.67 0 0 1-2.16 0 2.9 2.9 0 0 1-1.45-1.47 2.67 2.67 0 0 1 0-2.16c.15-.35.35-.65.6-.9.25-.27.53-.47.85-.62a2.67 2.67 0 0 1 2.16 0c.35.15.65.35.9.62.27.25.47.55.62.9.16.34.24.7.24 1.08zm7.97 10.24c.49-.54 1-1.04 1.54-1.48a9.85 9.85 0 0 1 3.66-1.84 8.96 8.96 0 0 1 5.43.35c.94.4 1.72.97 2.33 1.71.63.74 1.11 1.62 1.43 2.67.32 1.04.49 2.19.49 3.45V93h-3.94V78.81c0-1.69-.4-3-1.17-3.92-.76-.93-1.93-1.4-3.5-1.4-1.15 0-2.24.27-3.25.83-1 .56-1.92 1.31-2.77 2.27V93h-3.94V70.71h2.35c.56 0 .9.28 1.04.82l.3 2.42zm57.7 3.3c0 2.36-.37 4.5-1.11 6.44a14.3 14.3 0 0 1-3.17 4.98c-1.37 1.37-3 2.45-4.93 3.2-1.9.76-4.02 1.13-6.33 1.13H85.8V61.47h11.77c2.31 0 4.42.39 6.33 1.15a13.8 13.8 0 0 1 8.1 8.18 17.75 17.75 0 0 1 1.12 6.45zm-4.37 0c0-1.94-.26-3.67-.8-5.2a10.94 10.94 0 0 0-2.23-3.87 9.57 9.57 0 0 0-3.53-2.42 12.23 12.23 0 0 0-4.61-.83h-7.5v24.62h7.5c1.7 0 3.24-.28 4.61-.84a9.7 9.7 0 0 0 3.53-2.4 10.94 10.94 0 0 0 2.24-3.87c.53-1.53.8-3.26.8-5.2zm19.8 5.72c-1.8.06-3.34.2-4.62.44-1.26.22-2.3.51-3.1.88-.8.36-1.37.8-1.74 1.3-.35.5-.53 1.05-.53 1.67 0 .58.1 1.1.3 1.52a3 3 0 0 0 .76 1.05c.34.27.73.46 1.17.6a6.13 6.13 0 0 0 1.45.17 7.28 7.28 0 0 0 3.5-.81 11.95 11.95 0 0 0 2.82-2.2v-4.62zm-12.65-9.11a12.73 12.73 0 0 1 3.98-2.66c1.43-.59 3-.88 4.73-.88 1.25 0 2.36.2 3.33.61a6.81 6.81 0 0 1 3.94 4.38c.33 1.04.5 2.19.5 3.43V93h-1.74a1.8 1.8 0 0 1-.88-.18c-.2-.13-.36-.38-.48-.74l-.44-2.12-1.72 1.46a9.48 9.48 0 0 1-3.74 1.7c-.69.15-1.46.23-2.3.23-.87 0-1.69-.12-2.45-.35a5.34 5.34 0 0 1-3.34-2.93 6.64 6.64 0 0 1-.49-2.64c0-.88.25-1.72.73-2.53a6.33 6.33 0 0 1 2.35-2.17c1.09-.63 2.5-1.15 4.25-1.54 1.75-.41 3.89-.65 6.42-.7v-1.75c0-1.73-.37-3.03-1.12-3.91-.75-.9-1.84-1.34-3.28-1.34-.97 0-1.78.12-2.44.37-.64.23-1.2.5-1.7.81l-1.23.82c-.33.23-.67.35-1 .35-.27 0-.5-.07-.69-.2a2.1 2.1 0 0 1-.48-.53l-.7-1.25zm27.67 19.5c-1.76 0-3.12-.5-4.07-1.48-.94-.98-1.41-2.4-1.41-4.25V74h-2.68a.9.9 0 0 1-.6-.2c-.16-.14-.24-.36-.24-.66v-1.56l3.65-.46.9-6.89c.05-.22.14-.4.29-.52a.88.88 0 0 1 .62-.22H142v7.67h6.44V74H142v13.38c0 .94.22 1.63.68 2.09.45.45 1.04.68 1.76.68a3.21 3.21 0 0 0 1.85-.53l.55-.35c.16-.12.3-.18.41-.18.2 0 .4.13.55.38l1.15 1.87a7.45 7.45 0 0 1-2.44 1.5 8.53 8.53 0 0 1-2.95.52zm19.68-10.4c-1.8.07-3.34.21-4.62.45-1.26.22-2.3.51-3.1.88-.8.36-1.37.8-1.74 1.3-.35.5-.53 1.05-.53 1.67 0 .58.1 1.1.3 1.52a2.9 2.9 0 0 0 .76 1.05c.34.27.73.46 1.17.6a6.13 6.13 0 0 0 1.45.17 7.3 7.3 0 0 0 3.5-.81 12.04 12.04 0 0 0 2.82-2.2v-4.62zm-12.65-9.1a12.72 12.72 0 0 1 3.99-2.66c1.42-.59 3-.88 4.72-.88 1.25 0 2.36.2 3.33.61a6.81 6.81 0 0 1 3.94 4.38c.33 1.04.5 2.19.5 3.43V93h-1.74a1.8 1.8 0 0 1-.88-.18c-.2-.13-.36-.38-.48-.74l-.44-2.12-1.72 1.46a9.48 9.48 0 0 1-3.74 1.7c-.69.15-1.46.23-2.3.23-.87 0-1.69-.12-2.45-.35a5.33 5.33 0 0 1-3.34-2.93 6.62 6.62 0 0 1-.49-2.64c0-.88.25-1.72.73-2.53a6.33 6.33 0 0 1 2.35-2.17c1.09-.63 2.5-1.15 4.25-1.54 1.74-.41 3.89-.65 6.42-.7v-1.75c0-1.73-.37-3.03-1.12-3.91-.75-.9-1.84-1.34-3.28-1.34-.97 0-1.78.12-2.44.37-.64.23-1.2.5-1.7.81l-1.22.82c-.34.23-.68.35-1.02.35-.26 0-.49-.07-.68-.2a1.88 1.88 0 0 1-.48-.53l-.7-1.25zM40.98 32.25c0 2.36-.38 4.53-1.12 6.51a14.26 14.26 0 0 1-8.1 8.4c-1.9.78-4.02 1.17-6.34 1.17-2.31 0-4.42-.39-6.33-1.17a14.31 14.31 0 0 1-8.08-8.4 18.29 18.29 0 0 1-1.12-6.51c0-2.36.38-4.53 1.12-6.5.75-1.97 1.8-3.67 3.17-5.1a14.32 14.32 0 0 1 4.9-3.34c1.92-.8 4.03-1.19 6.34-1.19 2.32 0 4.43.4 6.34 1.19 1.92.8 3.56 1.9 4.93 3.34a14.87 14.87 0 0 1 3.17 5.1 18.1 18.1 0 0 1 1.12 6.5zm-4.38 0c0-1.94-.26-3.68-.8-5.22a10.91 10.91 0 0 0-2.24-3.89 9.68 9.68 0 0 0-3.52-2.46 11.95 11.95 0 0 0-4.62-.86c-1.68 0-3.21.28-4.6.86a9.88 9.88 0 0 0-3.54 2.46 10.91 10.91 0 0 0-2.24 3.9c-.53 1.53-.8 3.27-.8 5.2 0 1.94.27 3.68.8 5.22a11.17 11.17 0 0 0 2.24 3.9 10.01 10.01 0 0 0 3.55 2.44c1.38.56 2.9.83 4.6.83s3.24-.27 4.61-.83a9.8 9.8 0 0 0 3.52-2.44 11.17 11.17 0 0 0 2.25-3.9c.53-1.54.8-3.28.8-5.21zm26.22-6.54V48H60.5c-.56 0-.9-.27-1.05-.81l-.31-2.4a12.45 12.45 0 0 1-3.26 2.6c-1.2.64-2.58.96-4.13.96-1.22 0-2.3-.2-3.24-.6a6.52 6.52 0 0 1-2.33-1.7 7.37 7.37 0 0 1-1.43-2.67c-.3-1.04-.46-2.2-.46-3.45V25.7h3.91v14.22c0 1.68.38 2.99 1.15 3.91.77.93 1.96 1.39 3.54 1.39 1.16 0 2.24-.27 3.23-.82a10.42 10.42 0 0 0 2.8-2.28V25.7h3.91zm8.61 4.47a9.94 9.94 0 0 1 2.6-3.56 5.64 5.64 0 0 1 3.76-1.3c.47 0 .92.05 1.34.15.44.1.83.27 1.17.49l-.3 2.92c-.09.37-.3.55-.66.55-.2 0-.5-.04-.9-.13a6.21 6.21 0 0 0-3.24.18 4.23 4.23 0 0 0-1.47.92c-.42.4-.81.9-1.17 1.5-.33.58-.64 1.26-.92 2.02V48H67.7V25.71h2.25c.42 0 .72.08.88.25.16.16.27.44.33.83l.26 3.39zm61.16-13.7L122.75 48h-3.82l-7.99-24.05a21.95 21.95 0 0 1-.42-1.58 38.36 38.36 0 0 1-.44 1.58L102.05 48h-3.83L88.4 16.47h3.54c.38 0 .7.1.95.29.26.2.43.43.5.73l6.52 21.9.28 1.28.29 1.46.3-1.46.38-1.27 7.41-21.91c.1-.25.26-.48.51-.69.27-.22.58-.33.95-.33h1.23c.38 0 .69.1.92.29a1.77 1.77 0 0 1 .53.73l7.4 21.9a28.4 28.4 0 0 1 .68 2.62 29.52 29.52 0 0 1 .52-2.61l6.54-21.91a1.31 1.31 0 0 1 .48-.7c.27-.21.58-.32.95-.32h3.32zm9.35 8.88c1.63 0 3.1.27 4.4.82a9.43 9.43 0 0 1 5.46 5.94c.5 1.4.74 2.98.74 4.73 0 1.76-.25 3.34-.74 4.75a9.43 9.43 0 0 1-5.46 5.92c-1.3.52-2.77.79-4.4.79-1.64 0-3.12-.27-4.44-.8a9.42 9.42 0 0 1-3.35-2.3c-.92-1-1.63-2.2-2.13-3.61-.49-1.41-.73-3-.73-4.75s.24-3.33.73-4.73c.5-1.43 1.2-2.64 2.13-3.63.93-1 2.04-1.77 3.35-2.31 1.32-.55 2.8-.82 4.44-.82zm0 19.89c2.2 0 3.84-.73 4.93-2.2 1.08-1.48 1.63-3.54 1.63-6.18 0-2.66-.55-4.72-1.63-6.2-1.09-1.49-2.73-2.23-4.93-2.23-1.12 0-2.09.2-2.93.57a5.71 5.71 0 0 0-2.06 1.65c-.55.72-.96 1.61-1.24 2.67-.26 1.04-.4 2.22-.4 3.54 0 2.64.55 4.7 1.64 6.18 1.1 1.47 2.76 2.2 4.99 2.2zm17.97-15.07a9.94 9.94 0 0 1 2.6-3.56 5.64 5.64 0 0 1 3.76-1.3c.47 0 .91.05 1.34.15.44.1.83.27 1.16.49l-.28 2.92c-.09.37-.31.55-.66.55-.2 0-.5-.04-.9-.13a6.2 6.2 0 0 0-3.24.18 4.23 4.23 0 0 0-1.47.92c-.43.4-.82.9-1.17 1.5a13.1 13.1 0 0 0-.92 2.02V48h-3.94V25.71h2.24c.43 0 .72.08.88.25.17.16.28.44.33.83l.27 3.39zm15.04-14.59V48h-3.92V15.6h3.92zm19.55 15.43a6.22 6.22 0 0 0-2.38-2.05 6.7 6.7 0 0 0-2.86-.6c-2.07 0-3.66.75-4.77 2.23-1.12 1.48-1.68 3.6-1.68 6.33 0 1.46.13 2.7.38 3.74a7.29 7.29 0 0 0 1.1 2.56 4.35 4.35 0 0 0 1.78 1.45c.7.3 1.5.46 2.4.46 1.29 0 2.41-.3 3.36-.88a9.6 9.6 0 0 0 2.67-2.49V31.02zm3.91-15.43V48h-2.33c-.56 0-.9-.27-1.06-.81l-.35-2.71a12.13 12.13 0 0 1-3.25 2.77 8.28 8.28 0 0 1-4.23 1.06 7.31 7.31 0 0 1-6.14-2.9c-.73-.96-1.3-2.15-1.69-3.57a18.35 18.35 0 0 1 .07-9.48 11.29 11.29 0 0 1 1.89-3.7 8.7 8.7 0 0 1 7.06-3.34 7.96 7.96 0 0 1 6.12 2.62V15.59h3.91zM46.61 70.71V93H42.7V70.71h3.91zm.84-7c0 .39-.08.75-.24 1.09-.15.32-.35.61-.62.88-.25.25-.55.44-.9.59a2.67 2.67 0 0 1-2.16 0 2.9 2.9 0 0 1-1.45-1.47 2.67 2.67 0 0 1 0-2.16c.15-.35.35-.65.6-.9.25-.27.53-.47.85-.62a2.67 2.67 0 0 1 2.16 0c.35.15.65.35.9.62.27.25.47.55.62.9.16.34.24.7.24 1.08zm7.97 10.24c.49-.54 1-1.04 1.54-1.48a9.85 9.85 0 0 1 3.66-1.84 8.96 8.96 0 0 1 5.43.35c.94.4 1.72.97 2.33 1.71.63.74 1.11 1.62 1.43 2.67.32 1.04.49 2.19.49 3.45V93h-3.94V78.81c0-1.69-.4-3-1.17-3.92-.76-.93-1.93-1.4-3.5-1.4-1.15 0-2.24.27-3.25.83-1 .56-1.92 1.31-2.77 2.27V93h-3.94V70.71h2.35c.56 0 .9.28 1.04.82l.3 2.42zm57.7 3.3c0 2.36-.37 4.5-1.11 6.44a14.3 14.3 0 0 1-3.17 4.98c-1.37 1.37-3 2.45-4.93 3.2-1.9.76-4.02 1.13-6.33 1.13H85.8V61.47h11.77c2.31 0 4.42.39 6.33 1.15a13.8 13.8 0 0 1 8.1 8.18 17.75 17.75 0 0 1 1.12 6.45zm-4.37 0c0-1.94-.26-3.67-.8-5.2a10.94 10.94 0 0 0-2.23-3.87 9.57 9.57 0 0 0-3.53-2.42 12.23 12.23 0 0 0-4.61-.83h-7.5v24.62h7.5c1.7 0 3.24-.28 4.61-.84a9.7 9.7 0 0 0 3.53-2.4 10.94 10.94 0 0 0 2.24-3.87c.53-1.53.8-3.26.8-5.2zm19.8 5.72c-1.8.06-3.34.2-4.62.44-1.26.22-2.3.51-3.1.88-.8.36-1.37.8-1.74 1.3-.35.5-.53 1.05-.53 1.67 0 .58.1 1.1.3 1.52a3 3 0 0 0 .76 1.05c.34.27.73.46 1.17.6a6.13 6.13 0 0 0 1.45.17 7.28 7.28 0 0 0 3.5-.81 11.95 11.95 0 0 0 2.82-2.2v-4.62zm-12.65-9.11a12.73 12.73 0 0 1 3.98-2.66c1.43-.59 3-.88 4.73-.88 1.25 0 2.36.2 3.33.61a6.81 6.81 0 0 1 3.94 4.38c.33 1.04.5 2.19.5 3.43V93h-1.74a1.8 1.8 0 0 1-.88-.18c-.2-.13-.36-.38-.48-.74l-.44-2.12-1.72 1.46a9.48 9.48 0 0 1-3.74 1.7c-.69.15-1.46.23-2.3.23-.87 0-1.69-.12-2.45-.35a5.34 5.34 0 0 1-3.34-2.93 6.64 6.64 0 0 1-.49-2.64c0-.88.25-1.72.73-2.53a6.33 6.33 0 0 1 2.35-2.17c1.09-.63 2.5-1.15 4.25-1.54 1.75-.41 3.89-.65 6.42-.7v-1.75c0-1.73-.37-3.03-1.12-3.91-.75-.9-1.84-1.34-3.28-1.34-.97 0-1.78.12-2.44.37-.64.23-1.2.5-1.7.81l-1.23.82c-.33.23-.67.35-1 .35-.27 0-.5-.07-.69-.2a2.1 2.1 0 0 1-.48-.53l-.7-1.25zm27.67 19.5c-1.76 0-3.12-.5-4.07-1.48-.94-.98-1.41-2.4-1.41-4.25V74h-2.68a.9.9 0 0 1-.6-.2c-.16-.14-.24-.36-.24-.66v-1.56l3.65-.46.9-6.89c.05-.22.14-.4.29-.52a.88.88 0 0 1 .62-.22H142v7.67h6.44V74H142v13.38c0 .94.22 1.63.68 2.09.45.45 1.04.68 1.76.68a3.21 3.21 0 0 0 1.85-.53l.55-.35c.16-.12.3-.18.41-.18.2 0 .4.13.55.38l1.15 1.87a7.45 7.45 0 0 1-2.44 1.5 8.53 8.53 0 0 1-2.95.52zm19.68-10.4c-1.8.07-3.34.21-4.62.45-1.26.22-2.3.51-3.1.88-.8.36-1.37.8-1.74 1.3-.35.5-.53 1.05-.53 1.67 0 .58.1 1.1.3 1.52a2.9 2.9 0 0 0 .76 1.05c.34.27.73.46 1.17.6a6.13 6.13 0 0 0 1.45.17 7.3 7.3 0 0 0 3.5-.81 12.04 12.04 0 0 0 2.82-2.2v-4.62zm-12.65-9.1a12.72 12.72 0 0 1 3.99-2.66c1.42-.59 3-.88 4.72-.88 1.25 0 2.36.2 3.33.61a6.81 6.81 0 0 1 3.94 4.38c.33 1.04.5 2.19.5 3.43V93h-1.74a1.8 1.8 0 0 1-.88-.18c-.2-.13-.36-.38-.48-.74l-.44-2.12-1.72 1.46a9.48 9.48 0 0 1-3.74 1.7c-.69.15-1.46.23-2.3.23-.87 0-1.69-.12-2.45-.35a5.33 5.33 0 0 1-3.34-2.93 6.62 6.62 0 0 1-.49-2.64c0-.88.25-1.72.73-2.53a6.33 6.33 0 0 1 2.35-2.17c1.09-.63 2.5-1.15 4.25-1.54 1.74-.41 3.89-.65 6.42-.7v-1.75c0-1.73-.37-3.03-1.12-3.91-.75-.9-1.84-1.34-3.28-1.34-.97 0-1.78.12-2.44.37-.64.23-1.2.5-1.7.81l-1.22.82c-.34.23-.68.35-1.02.35-.26 0-.49-.07-.68-.2a1.88 1.88 0 0 1-.48-.53l-.7-1.25zM40.98 32.25c0 2.36-.38 4.53-1.12 6.51a14.26 14.26 0 0 1-8.1 8.4c-1.9.78-4.02 1.17-6.34 1.17-2.31 0-4.42-.39-6.33-1.17a14.31 14.31 0 0 1-8.08-8.4 18.29 18.29 0 0 1-1.12-6.51c0-2.36.38-4.53 1.12-6.5.75-1.97 1.8-3.67 3.17-5.1a14.32 14.32 0 0 1 4.9-3.34c1.92-.8 4.03-1.19 6.34-1.19 2.32 0 4.43.4 6.34 1.19 1.92.8 3.56 1.9 4.93 3.34a14.87 14.87 0 0 1 3.17 5.1 18.1 18.1 0 0 1 1.12 6.5zm-4.38 0c0-1.94-.26-3.68-.8-5.22a10.91 10.91 0 0 0-2.24-3.89 9.68 9.68 0 0 0-3.52-2.46 11.95 11.95 0 0 0-4.62-.86c-1.68 0-3.21.28-4.6.86a9.88 9.88 0 0 0-3.54 2.46 10.91 10.91 0 0 0-2.24 3.9c-.53 1.53-.8 3.27-.8 5.2 0 1.94.27 3.68.8 5.22a11.17 11.17 0 0 0 2.24 3.9 10.01 10.01 0 0 0 3.55 2.44c1.38.56 2.9.83 4.6.83s3.24-.27 4.61-.83a9.8 9.8 0 0 0 3.52-2.44 11.17 11.17 0 0 0 2.25-3.9c.53-1.54.8-3.28.8-5.21zm26.22-6.54V48H60.5c-.56 0-.9-.27-1.05-.81l-.31-2.4a12.45 12.45 0 0 1-3.26 2.6c-1.2.64-2.58.96-4.13.96-1.22 0-2.3-.2-3.24-.6a6.52 6.52 0 0 1-2.33-1.7 7.37 7.37 0 0 1-1.43-2.67c-.3-1.04-.46-2.2-.46-3.45V25.7h3.91v14.22c0 1.68.38 2.99 1.15 3.91.77.93 1.96 1.39 3.54 1.39 1.16 0 2.24-.27 3.23-.82a10.42 10.42 0 0 0 2.8-2.28V25.7h3.91zm8.61 4.47a9.94 9.94 0 0 1 2.6-3.56 5.64 5.64 0 0 1 3.76-1.3c.47 0 .92.05 1.34.15.44.1.83.27 1.17.49l-.3 2.92c-.09.37-.3.55-.66.55-.2 0-.5-.04-.9-.13a6.21 6.21 0 0 0-3.24.18 4.23 4.23 0 0 0-1.47.92c-.42.4-.81.9-1.17 1.5-.33.58-.64 1.26-.92 2.02V48H67.7V25.71h2.25c.42 0 .72.08.88.25.16.16.27.44.33.83l.26 3.39zm61.16-13.7L122.75 48h-3.82l-7.99-24.05a21.95 21.95 0 0 1-.42-1.58 38.36 38.36 0 0 1-.44 1.58L102.05 48h-3.83L88.4 16.47h3.54c.38 0 .7.1.95.29.26.2.43.43.5.73l6.52 21.9.28 1.28.29 1.46.3-1.46.38-1.27 7.41-21.91c.1-.25.26-.48.51-.69.27-.22.58-.33.95-.33h1.23c.38 0 .69.1.92.29a1.77 1.77 0 0 1 .53.73l7.4 21.9a28.4 28.4 0 0 1 .68 2.62 29.52 29.52 0 0 1 .52-2.61l6.54-21.91a1.31 1.31 0 0 1 .48-.7c.27-.21.58-.32.95-.32h3.32zm9.35 8.88c1.63 0 3.1.27 4.4.82a9.43 9.43 0 0 1 5.46 5.94c.5 1.4.74 2.98.74 4.73 0 1.76-.25 3.34-.74 4.75a9.43 9.43 0 0 1-5.46 5.92c-1.3.52-2.77.79-4.4.79-1.64 0-3.12-.27-4.44-.8a9.42 9.42 0 0 1-3.35-2.3c-.92-1-1.63-2.2-2.13-3.61-.49-1.41-.73-3-.73-4.75s.24-3.33.73-4.73c.5-1.43 1.2-2.64 2.13-3.63.93-1 2.04-1.77 3.35-2.31 1.32-.55 2.8-.82 4.44-.82zm0 19.89c2.2 0 3.84-.73 4.93-2.2 1.08-1.48 1.63-3.54 1.63-6.18 0-2.66-.55-4.72-1.63-6.2-1.09-1.49-2.73-2.23-4.93-2.23-1.12 0-2.09.2-2.93.57a5.71 5.71 0 0 0-2.06 1.65c-.55.72-.96 1.61-1.24 2.67-.26 1.04-.4 2.22-.4 3.54 0 2.64.55 4.7 1.64 6.18 1.1 1.47 2.76 2.2 4.99 2.2zm17.97-15.07a9.94 9.94 0 0 1 2.6-3.56 5.64 5.64 0 0 1 3.76-1.3c.47 0 .91.05 1.34.15.44.1.83.27 1.16.49l-.28 2.92c-.09.37-.31.55-.66.55-.2 0-.5-.04-.9-.13a6.2 6.2 0 0 0-3.24.18 4.23 4.23 0 0 0-1.47.92c-.43.4-.82.9-1.17 1.5a13.1 13.1 0 0 0-.92 2.02V48h-3.94V25.71h2.24c.43 0 .72.08.88.25.17.16.28.44.33.83l.27 3.39zm15.04-14.59V48h-3.92V15.6h3.92zm19.55 15.43a6.22 6.22 0 0 0-2.38-2.05 6.7 6.7 0 0 0-2.86-.6c-2.07 0-3.66.75-4.77 2.23-1.12 1.48-1.68 3.6-1.68 6.33 0 1.46.13 2.7.38 3.74a7.29 7.29 0 0 0 1.1 2.56 4.35 4.35 0 0 0 1.78 1.45c.7.3 1.5.46 2.4.46 1.29 0 2.41-.3 3.36-.88a9.6 9.6 0 0 0 2.67-2.49V31.02zm3.91-15.43V48h-2.33c-.56 0-.9-.27-1.06-.81l-.35-2.71a12.13 12.13 0 0 1-3.25 2.77 8.28 8.28 0 0 1-4.23 1.06 7.31 7.31 0 0 1-6.14-2.9c-.73-.96-1.3-2.15-1.69-3.57a18.35 18.35 0 0 1 .07-9.48 11.29 11.29 0 0 1 1.89-3.7 8.7 8.7 0 0 1 7.06-3.34 7.96 7.96 0 0 1 6.12 2.62V15.59h3.91zM46.61 70.71V93H42.7V70.71h3.91zm.84-7c0 .39-.08.75-.24 1.09-.15.32-.35.61-.62.88-.25.25-.55.44-.9.59a2.67 2.67 0 0 1-2.16 0 2.9 2.9 0 0 1-1.45-1.47 2.67 2.67 0 0 1 0-2.16c.15-.35.35-.65.6-.9.25-.27.53-.47.85-.62a2.67 2.67 0 0 1 2.16 0c.35.15.65.35.9.62.27.25.47.55.62.9.16.34.24.7.24 1.08zm7.97 10.24c.49-.54 1-1.04 1.54-1.48a9.85 9.85 0 0 1 3.66-1.84 8.96 8.96 0 0 1 5.43.35c.94.4 1.72.97 2.33 1.71.63.74 1.11 1.62 1.43 2.67.32 1.04.49 2.19.49 3.45V93h-3.94V78.81c0-1.69-.4-3-1.17-3.92-.76-.93-1.93-1.4-3.5-1.4-1.15 0-2.24.27-3.25.83-1 .56-1.92 1.31-2.77 2.27V93h-3.94V70.71h2.35c.56 0 .9.28 1.04.82l.3 2.42zm57.7 3.3c0 2.36-.37 4.5-1.11 6.44a14.3 14.3 0 0 1-3.17 4.98c-1.37 1.37-3 2.45-4.93 3.2-1.9.76-4.02 1.13-6.33 1.13H85.8V61.47h11.77c2.31 0 4.42.39 6.33 1.15a13.8 13.8 0 0 1 8.1 8.18 17.75 17.75 0 0 1 1.12 6.45zm-4.37 0c0-1.94-.26-3.67-.8-5.2a10.94 10.94 0 0 0-2.23-3.87 9.57 9.57 0 0 0-3.53-2.42 12.23 12.23 0 0 0-4.61-.83h-7.5v24.62h7.5c1.7 0 3.24-.28 4.61-.84a9.7 9.7 0 0 0 3.53-2.4 10.94 10.94 0 0 0 2.24-3.87c.53-1.53.8-3.26.8-5.2zm19.8 5.72c-1.8.06-3.34.2-4.62.44-1.26.22-2.3.51-3.1.88-.8.36-1.37.8-1.74 1.3-.35.5-.53 1.05-.53 1.67 0 .58.1 1.1.3 1.52a3 3 0 0 0 .76 1.05c.34.27.73.46 1.17.6a6.13 6.13 0 0 0 1.45.17 7.28 7.28 0 0 0 3.5-.81 11.95 11.95 0 0 0 2.82-2.2v-4.62zm-12.65-9.11a12.73 12.73 0 0 1 3.98-2.66c1.43-.59 3-.88 4.73-.88 1.25 0 2.36.2 3.33.61a6.81 6.81 0 0 1 3.94 4.38c.33 1.04.5 2.19.5 3.43V93h-1.74a1.8 1.8 0 0 1-.88-.18c-.2-.13-.36-.38-.48-.74l-.44-2.12-1.72 1.46a9.48 9.48 0 0 1-3.74 1.7c-.69.15-1.46.23-2.3.23-.87 0-1.69-.12-2.45-.35a5.34 5.34 0 0 1-3.34-2.93 6.64 6.64 0 0 1-.49-2.64c0-.88.25-1.72.73-2.53a6.33 6.33 0 0 1 2.35-2.17c1.09-.63 2.5-1.15 4.25-1.54 1.75-.41 3.89-.65 6.42-.7v-1.75c0-1.73-.37-3.03-1.12-3.91-.75-.9-1.84-1.34-3.28-1.34-.97 0-1.78.12-2.44.37-.64.23-1.2.5-1.7.81l-1.23.82c-.33.23-.67.35-1 .35-.27 0-.5-.07-.69-.2a2.1 2.1 0 0 1-.48-.53l-.7-1.25zm27.67 19.5c-1.76 0-3.12-.5-4.07-1.48-.94-.98-1.41-2.4-1.41-4.25V74h-2.68a.9.9 0 0 1-.6-.2c-.16-.14-.24-.36-.24-.66v-1.56l3.65-.46.9-6.89c.05-.22.14-.4.29-.52a.88.88 0 0 1 .62-.22H142v7.67h6.44V74H142v13.38c0 .94.22 1.63.68 2.09.45.45 1.04.68 1.76.68a3.21 3.21 0 0 0 1.85-.53l.55-.35c.16-.12.3-.18.41-.18.2 0 .4.13.55.38l1.15 1.87a7.45 7.45 0 0 1-2.44 1.5 8.53 8.53 0 0 1-2.95.52zm19.68-10.4c-1.8.07-3.34.21-4.62.45-1.26.22-2.3.51-3.1.88-.8.36-1.37.8-1.74 1.3-.35.5-.53 1.05-.53 1.67 0 .58.1 1.1.3 1.52a2.9 2.9 0 0 0 .76 1.05c.34.27.73.46 1.17.6a6.13 6.13 0 0 0 1.45.17 7.3 7.3 0 0 0 3.5-.81 12.04 12.04 0 0 0 2.82-2.2v-4.62zm-12.65-9.1a12.72 12.72 0 0 1 3.99-2.66c1.42-.59 3-.88 4.72-.88 1.25 0 2.36.2 3.33.61a6.81 6.81 0 0 1 3.94 4.38c.33 1.04.5 2.19.5 3.43V93h-1.74a1.8 1.8 0 0 1-.88-.18c-.2-.13-.36-.38-.48-.74l-.44-2.12-1.72 1.46a9.48 9.48 0 0 1-3.74 1.7c-.69.15-1.46.23-2.3.23-.87 0-1.69-.12-2.45-.35a5.33 5.33 0 0 1-3.34-2.93 6.62 6.62 0 0 1-.49-2.64c0-.88.25-1.72.73-2.53a6.33 6.33 0 0 1 2.35-2.17c1.09-.63 2.5-1.15 4.25-1.54 1.74-.41 3.89-.65 6.42-.7v-1.75c0-1.73-.37-3.03-1.12-3.91-.75-.9-1.84-1.34-3.28-1.34-.97 0-1.78.12-2.44.37-.64.23-1.2.5-1.7.81l-1.22.82c-.34.23-.68.35-1.02.35-.26 0-.49-.07-.68-.2a1.88 1.88 0 0 1-.48-.53l-.7-1.25z"
    fill="#fff"
  />
  <path fill="#D42B21" d="M0 106.79h210V120H0z" />
</g>
<defs>
  <clipPath id="clip0"><path fill="#fff" d="M0 0h210v120H0z" /></clipPath>
</defs>
</svg></g><a href="http://localhost:3030/grapher/index-of-cereal-production-yield-and-land-use" style="font-family:&#x27;Playfair Display&#x27;, Georgia, &#x27;Times New Roman&#x27;, &#x27;Liberation Serif&#x27;, serif" target="_blank" rel="noopener"><text font-size="24.30" x="15.0" y="36.1" fill="#555"><tspan x="15" y="36.141">Change in cereal production, yield, land use and population, World</tspan></text></a><text x="15.0" y="57.3" style="font-size:14.4px;line-height:1.2" fill="#666"><tspan x="15" y="57.3">All figures are indexed to the start year of the timeline. This means the first year of the time-series is given the value</tspan><tspan x="15" y="74.5">zero.</tspan></text></g><g class="LineChart"><defs><clipPath id="boundsClip-1"><rect x="61.03" y="83.86" width="840" height="456.41999999999996"></rect></clipPath></defs><rect x="15" y="93.86" width="820" height="436.41999999999996" fill="none"></rect><g class="DualAxisView"><g class="HorizontalAxis"><line x1="71" y1="509.08" x2="71" y2="514.0799999999999" stroke="#999"></line><line x1="676.3" y1="509.08" x2="676.3" y2="514.0799999999999" stroke="#999"></line><line x1="161.8" y1="509.08" x2="161.8" y2="514.0799999999999" stroke="#999"></line><line x1="262.7" y1="509.08" x2="262.7" y2="514.0799999999999" stroke="#999"></line><line x1="363.6" y1="509.08" x2="363.6" y2="514.0799999999999" stroke="#999"></line><line x1="464.5" y1="509.08" x2="464.5" y2="514.0799999999999" stroke="#999"></line><line x1="565.4" y1="509.08" x2="565.4" y2="514.0799999999999" stroke="#999"></line><text x="71.03" y="530.28" fill="#666" text-anchor="start" font-size="16.2">1961</text><text x="676.3399999999999" y="530.28" fill="#666" text-anchor="end" font-size="16.2">2021</text><text x="161.8" y="530.28" fill="#666" text-anchor="middle" font-size="16.2">1970</text><text x="262.7" y="530.28" fill="#666" text-anchor="middle" font-size="16.2">1980</text><text x="363.6" y="530.28" fill="#666" text-anchor="middle" font-size="16.2">1990</text><text x="464.5" y="530.28" fill="#666" text-anchor="middle" font-size="16.2">2000</text><text x="565.4" y="530.28" fill="#666" text-anchor="middle" font-size="16.2">2010</text></g><g class="VerticalAxis"><text x="66.03" y="509.1" dy=".32em" text-anchor="end" fill="#666" font-size="16.2">+0%</text><text x="66.03" y="426.1" dy=".32em" text-anchor="end" fill="#666" font-size="16.2">+50%</text><text x="66.03" y="343.1" dy=".32em" text-anchor="end" fill="#666" font-size="16.2">+100%</text><text x="66.03" y="260.1" dy=".32em" text-anchor="end" fill="#666" font-size="16.2">+150%</text><text x="66.03" y="177.1" dy=".32em" text-anchor="end" fill="#666" font-size="16.2">+200%</text><text x="66.03" y="94.2" dy=".32em" text-anchor="end" fill="#666" font-size="16.2">+250%</text></g><g class="AxisGridLines horizontalLines"><line x1="71.03" y1="509.1" x2="676.34" y2="509.1" stroke="#999"></line><line x1="71.03" y1="426.1" x2="676.34" y2="426.1" stroke="#ddd" stroke-dasharray="3,2"></line><line x1="71.03" y1="343.1" x2="676.34" y2="343.1" stroke="#ddd" stroke-dasharray="3,2"></line><line x1="71.03" y1="260.1" x2="676.34" y2="260.1" stroke="#ddd" stroke-dasharray="3,2"></line><line x1="71.03" y1="177.1" x2="676.34" y2="177.1" stroke="#ddd" stroke-dasharray="3,2"></line><line x1="71.03" y1="94.2" x2="676.34" y2="94.2" stroke="#ddd" stroke-dasharray="3,2"></line></g></g><g clip-path="url(#boundsClip-1)"><g class="LineLabels" style="cursor:default"><g class="legendMark"><rect x="676.3399999999999" y="93.86" width="141.92000000000002" height="13.5" fill="#fff" opacity="0"></rect><text font-size="13.50" font-weight="400" x="680.3" y="105.6" fill="#b13507"><tspan x="680.3399999999999" y="105.605">Cereal production</tspan></text></g><g class="legendMark"><rect x="676.3399999999999" y="158.95" width="106.415" height="13.5" fill="#fff" opacity="0"></rect><text font-size="13.50" font-weight="400" x="680.3" y="170.7" fill="#00847e"><tspan x="680.3399999999999" y="170.695">Cereal yield</tspan></text></g><g class="legendMark"><rect x="676.3399999999999" y="240.45" width="99.125" height="13.5" fill="#fff" opacity="0"></rect><text font-size="13.50" font-weight="400" x="680.3" y="252.2" fill="#6d3e91"><tspan x="680.3399999999999" y="252.195">Population</tspan></text></g><g class="legendMark"><rect x="676.3399999999999" y="478.95" width="158.66000000000003" height="13.5" fill="#fff" opacity="0"></rect><text font-size="13.50" font-weight="400" x="680.3" y="490.7" fill="#3c4e66"><tspan x="680.3399999999999" y="490.695">Land used for cereal</tspan></text></g></g><g class="Lines"><rect x="71" y="94" width="605" height="415" fill="rgba(255,255,255,0)" opacity="0"></rect><g><path stroke-linecap="round" stroke-linejoin="round" stroke="#ddd" d="M71 509.1L81.1 505.9L91.2 502.2L101.3 498.3L111.4 494.5L121.5 490.8L131.6 487.1L141.6 483.2L151.7 479.2L161.8 475.2L171.9 471.1L182 467.1L192.1 463L202.2 458.9L212.3 454.9L222.4 451L232.4 447L242.5 443L252.6 438.9L262.7 434.7L272.8 430.3L282.9 425.8L293 421.3L303.1 416.7L313.2 412.1L323.2 407.3L333.3 402.4L343.4 397.4L353.5 392.5L363.6 387.5L373.7 382.6L383.8 377.9L393.9 373.4L404 368.9L414 364.4L424.1 360L434.2 355.6L444.3 351.2L454.4 346.8L464.5 342.5L474.6 338L484.7 333.6L494.7 329.2L504.8 324.8L514.9 320.3L525 315.8L535.1 311.2L545.2 306.6L555.3 301.9L565.4 297.2L575.5 292.5L585.5 287.7L595.6 282.9L605.7 278.1L615.8 273.3L625.9 268.6L636 264L646.1 259.4L656.2 255L666.3 250.9L676.3 247.2" fill="none" stroke-width="1"></path></g><g><path stroke-linecap="round" stroke-linejoin="round" stroke="#ddd" d="M71 509.1L81.1 500L91.2 498.4L101.3 491.8L111.4 491.5L121.5 477.6L131.6 472.3L141.6 467L151.7 465.5L161.8 458.5L171.9 443L182 447.1L192.1 437.1L202.2 442.9L212.3 440.5L222.4 426.6L232.4 426.6L242.5 403.7L252.6 408.2L262.7 410L272.8 399.5L282.9 384.5L293 391.9L303.1 368.5L313.2 364.9L323.2 361.5L333.3 363.6L343.4 373.3L353.5 352.6L363.6 336.8L373.7 346L383.8 333.9L393.9 339.2L404 329L414 336.2L424.1 314.3L434.2 307.8L444.3 299.3L454.4 294.3L464.5 298.9L474.6 291.2L484.7 294.3L494.7 295.7L504.8 260.8L514.9 274.4L525 269.5L535.1 261.5L545.2 241.3L555.3 239.1L565.4 240.2L575.5 226.9L585.5 231.8L595.6 206.9L605.7 198.1L615.8 193.6L625.9 183.2L636 175.6L646.1 181L656.2 169.2L666.3 170.3L676.3 165.7" fill="none" stroke-width="1"></path></g><g><path stroke-linecap="round" stroke-linejoin="round" stroke="#ddd" d="M71 509.1L81.1 498.4L91.2 495.4L101.3 485.5L111.4 486L121.5 470.9L131.6 462.3L141.6 455.4L151.7 453.4L161.8 449.3L171.9 429.1L182 436.9L192.1 418.2L202.2 424L212.3 417.7L222.4 398L232.4 399.4L242.5 375.6L252.6 384L262.7 381.7L272.8 366.1L282.9 354.7L293 367.1L303.1 336.9L313.2 330.3L323.2 327.9L333.3 339.7L343.4 348.1L353.5 320.9L363.6 305.6L373.7 316.5L383.8 302.5L393.9 315.2L404 302.9L414 317.8L424.1 286.4L434.2 277.5L444.3 280.8L454.4 281.3L464.5 285.2L474.6 276.7L484.7 286.3L494.7 282.5L504.8 242.5L514.9 246L525 248.1L535.1 231L545.2 198.2L555.3 204.2L565.4 209.2L575.5 186.2L585.5 191.2L595.6 152.9L605.7 142.8L615.8 138.1L625.9 123.9L636 113.6L646.1 124.4L656.2 114.3L666.3 106L676.3 93.9" fill="none" stroke-width="1"></path></g><g><path stroke-linecap="round" stroke-linejoin="round" stroke="#ddd" d="M71 509.1L81.1 507.6L91.2 506.2L101.3 503.4L111.4 504.2L121.5 503.5L131.6 500.9L141.6 499.8L151.7 499.5L161.8 502L171.9 499.1L182 501.6L192.1 495.9L202.2 495.5L212.3 493L222.4 490L232.4 490.9L242.5 491.9L252.6 494.1L262.7 491.4L272.8 489L282.9 492.1L293 494.5L303.1 491.9L313.2 490.6L323.2 491.3L333.3 496.4L343.4 495.2L353.5 492.7L363.6 493.8L373.7 494.2L383.8 493.9L393.9 497.2L404 496.6L414 500.1L424.1 496.3L434.2 495.4L444.3 500.9L454.4 503.4L464.5 503.1L474.6 502.8L484.7 505.6L494.7 503.3L504.8 501.7L514.9 497.3L525 500.3L535.1 496.9L545.2 492.6L555.3 495.8L565.4 497.2L575.5 494L585.5 493.9L595.6 489.9L605.7 489.9L615.8 490L625.9 489.1L636 488.5L646.1 490.1L656.2 491.1L666.3 487.9L676.3 485.7" fill="none" stroke-width="1"></path></g><g><path fill="none" stroke-linecap="butt" stroke-linejoin="round" stroke="#fff" stroke-width="2.5" d="M71 509.1L81.1 505.9L91.2 502.2L101.3 498.3L111.4 494.5L121.5 490.8L131.6 487.1L141.6 483.2L151.7 479.2L161.8 475.2L171.9 471.1L182 467.1L192.1 463L202.2 458.9L212.3 454.9L222.4 451L232.4 447L242.5 443L252.6 438.9L262.7 434.7L272.8 430.3L282.9 425.8L293 421.3L303.1 416.7L313.2 412.1L323.2 407.3L333.3 402.4L343.4 397.4L353.5 392.5L363.6 387.5L373.7 382.6L383.8 377.9L393.9 373.4L404 368.9L414 364.4L424.1 360L434.2 355.6L444.3 351.2L454.4 346.8L464.5 342.5L474.6 338L484.7 333.6L494.7 329.2L504.8 324.8L514.9 320.3L525 315.8L535.1 311.2L545.2 306.6L555.3 301.9L565.4 297.2L575.5 292.5L585.5 287.7L595.6 282.9L605.7 278.1L615.8 273.3L625.9 268.6L636 264L646.1 259.4L656.2 255L666.3 250.9L676.3 247.2"></path><polyline points="71.00,509.10 81.10,505.90 91.20,502.20 101.30,498.30 111.40,494.50 121.50,490.80 131.60,487.10 141.60,483.20 151.70,479.20 161.80,475.20 171.90,471.10 182.00,467.10 192.10,463.00 202.20,458.90 212.30,454.90 222.40,451.00 232.40,447.00 242.50,443.00 252.60,438.90 262.70,434.70 272.80,430.30 282.90,425.80 293.00,421.30 303.10,416.70 313.20,412.10 323.20,407.30 333.30,402.40 343.40,397.40 353.50,392.50 363.60,387.50 373.70,382.60 383.80,377.90 393.90,373.40 404.00,368.90 414.00,364.40 424.10,360.00 434.20,355.60 444.30,351.20 454.40,346.80 464.50,342.50 474.60,338.00 484.70,333.60 494.70,329.20 504.80,324.80 514.90,320.30 525.00,315.80 535.10,311.20 545.20,306.60 555.30,301.90 565.40,297.20 575.50,292.50 585.50,287.70 595.60,282.90 605.70,278.10 615.80,273.30 625.90,268.60 636.00,264.00 646.10,259.40 656.20,255.00 666.30,250.90 676.30,247.20" stroke-linejoin="round" stroke-width="1.5" stroke="#6d3e91" fill="none" stroke-linecap="butt"></polyline><g><circle cx="71" cy="509.1" r="1.8" fill="#6d3e91"></circle><circle cx="81.1" cy="505.9" r="1.8" fill="#6d3e91"></circle><circle cx="91.2" cy="502.2" r="1.8" fill="#6d3e91"></circle><circle cx="101.3" cy="498.3" r="1.8" fill="#6d3e91"></circle><circle cx="111.4" cy="494.5" r="1.8" fill="#6d3e91"></circle><circle cx="121.5" cy="490.8" r="1.8" fill="#6d3e91"></circle><circle cx="131.6" cy="487.1" r="1.8" fill="#6d3e91"></circle><circle cx="141.6" cy="483.2" r="1.8" fill="#6d3e91"></circle><circle cx="151.7" cy="479.2" r="1.8" fill="#6d3e91"></circle><circle cx="161.8" cy="475.2" r="1.8" fill="#6d3e91"></circle><circle cx="171.9" cy="471.1" r="1.8" fill="#6d3e91"></circle><circle cx="182" cy="467.1" r="1.8" fill="#6d3e91"></circle><circle cx="192.1" cy="463" r="1.8" fill="#6d3e91"></circle><circle cx="202.2" cy="458.9" r="1.8" fill="#6d3e91"></circle><circle cx="212.3" cy="454.9" r="1.8" fill="#6d3e91"></circle><circle cx="222.4" cy="451" r="1.8" fill="#6d3e91"></circle><circle cx="232.4" cy="447" r="1.8" fill="#6d3e91"></circle><circle cx="242.5" cy="443" r="1.8" fill="#6d3e91"></circle><circle cx="252.6" cy="438.9" r="1.8" fill="#6d3e91"></circle><circle cx="262.7" cy="434.7" r="1.8" fill="#6d3e91"></circle><circle cx="272.8" cy="430.3" r="1.8" fill="#6d3e91"></circle><circle cx="282.9" cy="425.8" r="1.8" fill="#6d3e91"></circle><circle cx="293" cy="421.3" r="1.8" fill="#6d3e91"></circle><circle cx="303.1" cy="416.7" r="1.8" fill="#6d3e91"></circle><circle cx="313.2" cy="412.1" r="1.8" fill="#6d3e91"></circle><circle cx="323.2" cy="407.3" r="1.8" fill="#6d3e91"></circle><circle cx="333.3" cy="402.4" r="1.8" fill="#6d3e91"></circle><circle cx="343.4" cy="397.4" r="1.8" fill="#6d3e91"></circle><circle cx="353.5" cy="392.5" r="1.8" fill="#6d3e91"></circle><circle cx="363.6" cy="387.5" r="1.8" fill="#6d3e91"></circle><circle cx="373.7" cy="382.6" r="1.8" fill="#6d3e91"></circle><circle cx="383.8" cy="377.9" r="1.8" fill="#6d3e91"></circle><circle cx="393.9" cy="373.4" r="1.8" fill="#6d3e91"></circle><circle cx="404" cy="368.9" r="1.8" fill="#6d3e91"></circle><circle cx="414" cy="364.4" r="1.8" fill="#6d3e91"></circle><circle cx="424.1" cy="360" r="1.8" fill="#6d3e91"></circle><circle cx="434.2" cy="355.6" r="1.8" fill="#6d3e91"></circle><circle cx="444.3" cy="351.2" r="1.8" fill="#6d3e91"></circle><circle cx="454.4" cy="346.8" r="1.8" fill="#6d3e91"></circle><circle cx="464.5" cy="342.5" r="1.8" fill="#6d3e91"></circle><circle cx="474.6" cy="338" r="1.8" fill="#6d3e91"></circle><circle cx="484.7" cy="333.6" r="1.8" fill="#6d3e91"></circle><circle cx="494.7" cy="329.2" r="1.8" fill="#6d3e91"></circle><circle cx="504.8" cy="324.8" r="1.8" fill="#6d3e91"></circle><circle cx="514.9" cy="320.3" r="1.8" fill="#6d3e91"></circle><circle cx="525" cy="315.8" r="1.8" fill="#6d3e91"></circle><circle cx="535.1" cy="311.2" r="1.8" fill="#6d3e91"></circle><circle cx="545.2" cy="306.6" r="1.8" fill="#6d3e91"></circle><circle cx="555.3" cy="301.9" r="1.8" fill="#6d3e91"></circle><circle cx="565.4" cy="297.2" r="1.8" fill="#6d3e91"></circle><circle cx="575.5" cy="292.5" r="1.8" fill="#6d3e91"></circle><circle cx="585.5" cy="287.7" r="1.8" fill="#6d3e91"></circle><circle cx="595.6" cy="282.9" r="1.8" fill="#6d3e91"></circle><circle cx="605.7" cy="278.1" r="1.8" fill="#6d3e91"></circle><circle cx="615.8" cy="273.3" r="1.8" fill="#6d3e91"></circle><circle cx="625.9" cy="268.6" r="1.8" fill="#6d3e91"></circle><circle cx="636" cy="264" r="1.8" fill="#6d3e91"></circle><circle cx="646.1" cy="259.4" r="1.8" fill="#6d3e91"></circle><circle cx="656.2" cy="255" r="1.8" fill="#6d3e91"></circle><circle cx="666.3" cy="250.9" r="1.8" fill="#6d3e91"></circle><circle cx="676.3" cy="247.2" r="1.8" fill="#6d3e91"></circle></g></g><g><path fill="none" stroke-linecap="butt" stroke-linejoin="round" stroke="#fff" stroke-width="2.5" d="M71 509.1L81.1 500L91.2 498.4L101.3 491.8L111.4 491.5L121.5 477.6L131.6 472.3L141.6 467L151.7 465.5L161.8 458.5L171.9 443L182 447.1L192.1 437.1L202.2 442.9L212.3 440.5L222.4 426.6L232.4 426.6L242.5 403.7L252.6 408.2L262.7 410L272.8 399.5L282.9 384.5L293 391.9L303.1 368.5L313.2 364.9L323.2 361.5L333.3 363.6L343.4 373.3L353.5 352.6L363.6 336.8L373.7 346L383.8 333.9L393.9 339.2L404 329L414 336.2L424.1 314.3L434.2 307.8L444.3 299.3L454.4 294.3L464.5 298.9L474.6 291.2L484.7 294.3L494.7 295.7L504.8 260.8L514.9 274.4L525 269.5L535.1 261.5L545.2 241.3L555.3 239.1L565.4 240.2L575.5 226.9L585.5 231.8L595.6 206.9L605.7 198.1L615.8 193.6L625.9 183.2L636 175.6L646.1 181L656.2 169.2L666.3 170.3L676.3 165.7"></path><polyline points="71.00,509.10 81.10,500.00 91.20,498.40 101.30,491.80 111.40,491.50 121.50,477.60 131.60,472.30 141.60,467.00 151.70,465.50 161.80,458.50 171.90,443.00 182.00,447.10 192.10,437.10 202.20,442.90 212.30,440.50 222.40,426.60 232.40,426.60 242.50,403.70 252.60,408.20 262.70,410.00 272.80,399.50 282.90,384.50 293.00,391.90 303.10,368.50 313.20,364.90 323.20,361.50 333.30,363.60 343.40,373.30 353.50,352.60 363.60,336.80 373.70,346.00 383.80,333.90 393.90,339.20 404.00,329.00 414.00,336.20 424.10,314.30 434.20,307.80 444.30,299.30 454.40,294.30 464.50,298.90 474.60,291.20 484.70,294.30 494.70,295.70 504.80,260.80 514.90,274.40 525.00,269.50 535.10,261.50 545.20,241.30 555.30,239.10 565.40,240.20 575.50,226.90 585.50,231.80 595.60,206.90 605.70,198.10 615.80,193.60 625.90,183.20 636.00,175.60 646.10,181.00 656.20,169.20 666.30,170.30 676.30,165.70" stroke-linejoin="round" stroke-width="1.5" stroke="#00847e" fill="none" stroke-linecap="butt"></polyline><g><circle cx="71" cy="509.1" r="1.8" fill="#00847e"></circle><circle cx="81.1" cy="500" r="1.8" fill="#00847e"></circle><circle cx="91.2" cy="498.4" r="1.8" fill="#00847e"></circle><circle cx="101.3" cy="491.8" r="1.8" fill="#00847e"></circle><circle cx="111.4" cy="491.5" r="1.8" fill="#00847e"></circle><circle cx="121.5" cy="477.6" r="1.8" fill="#00847e"></circle><circle cx="131.6" cy="472.3" r="1.8" fill="#00847e"></circle><circle cx="141.6" cy="467" r="1.8" fill="#00847e"></circle><circle cx="151.7" cy="465.5" r="1.8" fill="#00847e"></circle><circle cx="161.8" cy="458.5" r="1.8" fill="#00847e"></circle><circle cx="171.9" cy="443" r="1.8" fill="#00847e"></circle><circle cx="182" cy="447.1" r="1.8" fill="#00847e"></circle><circle cx="192.1" cy="437.1" r="1.8" fill="#00847e"></circle><circle cx="202.2" cy="442.9" r="1.8" fill="#00847e"></circle><circle cx="212.3" cy="440.5" r="1.8" fill="#00847e"></circle><circle cx="222.4" cy="426.6" r="1.8" fill="#00847e"></circle><circle cx="232.4" cy="426.6" r="1.8" fill="#00847e"></circle><circle cx="242.5" cy="403.7" r="1.8" fill="#00847e"></circle><circle cx="252.6" cy="408.2" r="1.8" fill="#00847e"></circle><circle cx="262.7" cy="410" r="1.8" fill="#00847e"></circle><circle cx="272.8" cy="399.5" r="1.8" fill="#00847e"></circle><circle cx="282.9" cy="384.5" r="1.8" fill="#00847e"></circle><circle cx="293" cy="391.9" r="1.8" fill="#00847e"></circle><circle cx="303.1" cy="368.5" r="1.8" fill="#00847e"></circle><circle cx="313.2" cy="364.9" r="1.8" fill="#00847e"></circle><circle cx="323.2" cy="361.5" r="1.8" fill="#00847e"></circle><circle cx="333.3" cy="363.6" r="1.8" fill="#00847e"></circle><circle cx="343.4" cy="373.3" r="1.8" fill="#00847e"></circle><circle cx="353.5" cy="352.6" r="1.8" fill="#00847e"></circle><circle cx="363.6" cy="336.8" r="1.8" fill="#00847e"></circle><circle cx="373.7" cy="346" r="1.8" fill="#00847e"></circle><circle cx="383.8" cy="333.9" r="1.8" fill="#00847e"></circle><circle cx="393.9" cy="339.2" r="1.8" fill="#00847e"></circle><circle cx="404" cy="329" r="1.8" fill="#00847e"></circle><circle cx="414" cy="336.2" r="1.8" fill="#00847e"></circle><circle cx="424.1" cy="314.3" r="1.8" fill="#00847e"></circle><circle cx="434.2" cy="307.8" r="1.8" fill="#00847e"></circle><circle cx="444.3" cy="299.3" r="1.8" fill="#00847e"></circle><circle cx="454.4" cy="294.3" r="1.8" fill="#00847e"></circle><circle cx="464.5" cy="298.9" r="1.8" fill="#00847e"></circle><circle cx="474.6" cy="291.2" r="1.8" fill="#00847e"></circle><circle cx="484.7" cy="294.3" r="1.8" fill="#00847e"></circle><circle cx="494.7" cy="295.7" r="1.8" fill="#00847e"></circle><circle cx="504.8" cy="260.8" r="1.8" fill="#00847e"></circle><circle cx="514.9" cy="274.4" r="1.8" fill="#00847e"></circle><circle cx="525" cy="269.5" r="1.8" fill="#00847e"></circle><circle cx="535.1" cy="261.5" r="1.8" fill="#00847e"></circle><circle cx="545.2" cy="241.3" r="1.8" fill="#00847e"></circle><circle cx="555.3" cy="239.1" r="1.8" fill="#00847e"></circle><circle cx="565.4" cy="240.2" r="1.8" fill="#00847e"></circle><circle cx="575.5" cy="226.9" r="1.8" fill="#00847e"></circle><circle cx="585.5" cy="231.8" r="1.8" fill="#00847e"></circle><circle cx="595.6" cy="206.9" r="1.8" fill="#00847e"></circle><circle cx="605.7" cy="198.1" r="1.8" fill="#00847e"></circle><circle cx="615.8" cy="193.6" r="1.8" fill="#00847e"></circle><circle cx="625.9" cy="183.2" r="1.8" fill="#00847e"></circle><circle cx="636" cy="175.6" r="1.8" fill="#00847e"></circle><circle cx="646.1" cy="181" r="1.8" fill="#00847e"></circle><circle cx="656.2" cy="169.2" r="1.8" fill="#00847e"></circle><circle cx="666.3" cy="170.3" r="1.8" fill="#00847e"></circle><circle cx="676.3" cy="165.7" r="1.8" fill="#00847e"></circle></g></g><g><path fill="none" stroke-linecap="butt" stroke-linejoin="round" stroke="#fff" stroke-width="2.5" d="M71 509.1L81.1 498.4L91.2 495.4L101.3 485.5L111.4 486L121.5 470.9L131.6 462.3L141.6 455.4L151.7 453.4L161.8 449.3L171.9 429.1L182 436.9L192.1 418.2L202.2 424L212.3 417.7L222.4 398L232.4 399.4L242.5 375.6L252.6 384L262.7 381.7L272.8 366.1L282.9 354.7L293 367.1L303.1 336.9L313.2 330.3L323.2 327.9L333.3 339.7L343.4 348.1L353.5 320.9L363.6 305.6L373.7 316.5L383.8 302.5L393.9 315.2L404 302.9L414 317.8L424.1 286.4L434.2 277.5L444.3 280.8L454.4 281.3L464.5 285.2L474.6 276.7L484.7 286.3L494.7 282.5L504.8 242.5L514.9 246L525 248.1L535.1 231L545.2 198.2L555.3 204.2L565.4 209.2L575.5 186.2L585.5 191.2L595.6 152.9L605.7 142.8L615.8 138.1L625.9 123.9L636 113.6L646.1 124.4L656.2 114.3L666.3 106L676.3 93.9"></path><polyline points="71.00,509.10 81.10,498.40 91.20,495.40 101.30,485.50 111.40,486.00 121.50,470.90 131.60,462.30 141.60,455.40 151.70,453.40 161.80,449.30 171.90,429.10 182.00,436.90 192.10,418.20 202.20,424.00 212.30,417.70 222.40,398.00 232.40,399.40 242.50,375.60 252.60,384.00 262.70,381.70 272.80,366.10 282.90,354.70 293.00,367.10 303.10,336.90 313.20,330.30 323.20,327.90 333.30,339.70 343.40,348.10 353.50,320.90 363.60,305.60 373.70,316.50 383.80,302.50 393.90,315.20 404.00,302.90 414.00,317.80 424.10,286.40 434.20,277.50 444.30,280.80 454.40,281.30 464.50,285.20 474.60,276.70 484.70,286.30 494.70,282.50 504.80,242.50 514.90,246.00 525.00,248.10 535.10,231.00 545.20,198.20 555.30,204.20 565.40,209.20 575.50,186.20 585.50,191.20 595.60,152.90 605.70,142.80 615.80,138.10 625.90,123.90 636.00,113.60 646.10,124.40 656.20,114.30 666.30,106.00 676.30,93.90" stroke-linejoin="round" stroke-width="1.5" stroke="#b13507" fill="none" stroke-linecap="butt"></polyline><g><circle cx="71" cy="509.1" r="1.8" fill="#b13507"></circle><circle cx="81.1" cy="498.4" r="1.8" fill="#b13507"></circle><circle cx="91.2" cy="495.4" r="1.8" fill="#b13507"></circle><circle cx="101.3" cy="485.5" r="1.8" fill="#b13507"></circle><circle cx="111.4" cy="486" r="1.8" fill="#b13507"></circle><circle cx="121.5" cy="470.9" r="1.8" fill="#b13507"></circle><circle cx="131.6" cy="462.3" r="1.8" fill="#b13507"></circle><circle cx="141.6" cy="455.4" r="1.8" fill="#b13507"></circle><circle cx="151.7" cy="453.4" r="1.8" fill="#b13507"></circle><circle cx="161.8" cy="449.3" r="1.8" fill="#b13507"></circle><circle cx="171.9" cy="429.1" r="1.8" fill="#b13507"></circle><circle cx="182" cy="436.9" r="1.8" fill="#b13507"></circle><circle cx="192.1" cy="418.2" r="1.8" fill="#b13507"></circle><circle cx="202.2" cy="424" r="1.8" fill="#b13507"></circle><circle cx="212.3" cy="417.7" r="1.8" fill="#b13507"></circle><circle cx="222.4" cy="398" r="1.8" fill="#b13507"></circle><circle cx="232.4" cy="399.4" r="1.8" fill="#b13507"></circle><circle cx="242.5" cy="375.6" r="1.8" fill="#b13507"></circle><circle cx="252.6" cy="384" r="1.8" fill="#b13507"></circle><circle cx="262.7" cy="381.7" r="1.8" fill="#b13507"></circle><circle cx="272.8" cy="366.1" r="1.8" fill="#b13507"></circle><circle cx="282.9" cy="354.7" r="1.8" fill="#b13507"></circle><circle cx="293" cy="367.1" r="1.8" fill="#b13507"></circle><circle cx="303.1" cy="336.9" r="1.8" fill="#b13507"></circle><circle cx="313.2" cy="330.3" r="1.8" fill="#b13507"></circle><circle cx="323.2" cy="327.9" r="1.8" fill="#b13507"></circle><circle cx="333.3" cy="339.7" r="1.8" fill="#b13507"></circle><circle cx="343.4" cy="348.1" r="1.8" fill="#b13507"></circle><circle cx="353.5" cy="320.9" r="1.8" fill="#b13507"></circle><circle cx="363.6" cy="305.6" r="1.8" fill="#b13507"></circle><circle cx="373.7" cy="316.5" r="1.8" fill="#b13507"></circle><circle cx="383.8" cy="302.5" r="1.8" fill="#b13507"></circle><circle cx="393.9" cy="315.2" r="1.8" fill="#b13507"></circle><circle cx="404" cy="302.9" r="1.8" fill="#b13507"></circle><circle cx="414" cy="317.8" r="1.8" fill="#b13507"></circle><circle cx="424.1" cy="286.4" r="1.8" fill="#b13507"></circle><circle cx="434.2" cy="277.5" r="1.8" fill="#b13507"></circle><circle cx="444.3" cy="280.8" r="1.8" fill="#b13507"></circle><circle cx="454.4" cy="281.3" r="1.8" fill="#b13507"></circle><circle cx="464.5" cy="285.2" r="1.8" fill="#b13507"></circle><circle cx="474.6" cy="276.7" r="1.8" fill="#b13507"></circle><circle cx="484.7" cy="286.3" r="1.8" fill="#b13507"></circle><circle cx="494.7" cy="282.5" r="1.8" fill="#b13507"></circle><circle cx="504.8" cy="242.5" r="1.8" fill="#b13507"></circle><circle cx="514.9" cy="246" r="1.8" fill="#b13507"></circle><circle cx="525" cy="248.1" r="1.8" fill="#b13507"></circle><circle cx="535.1" cy="231" r="1.8" fill="#b13507"></circle><circle cx="545.2" cy="198.2" r="1.8" fill="#b13507"></circle><circle cx="555.3" cy="204.2" r="1.8" fill="#b13507"></circle><circle cx="565.4" cy="209.2" r="1.8" fill="#b13507"></circle><circle cx="575.5" cy="186.2" r="1.8" fill="#b13507"></circle><circle cx="585.5" cy="191.2" r="1.8" fill="#b13507"></circle><circle cx="595.6" cy="152.9" r="1.8" fill="#b13507"></circle><circle cx="605.7" cy="142.8" r="1.8" fill="#b13507"></circle><circle cx="615.8" cy="138.1" r="1.8" fill="#b13507"></circle><circle cx="625.9" cy="123.9" r="1.8" fill="#b13507"></circle><circle cx="636" cy="113.6" r="1.8" fill="#b13507"></circle><circle cx="646.1" cy="124.4" r="1.8" fill="#b13507"></circle><circle cx="656.2" cy="114.3" r="1.8" fill="#b13507"></circle><circle cx="666.3" cy="106" r="1.8" fill="#b13507"></circle><circle cx="676.3" cy="93.9" r="1.8" fill="#b13507"></circle></g></g><g><path fill="none" stroke-linecap="butt" stroke-linejoin="round" stroke="#fff" stroke-width="2.5" d="M71 509.1L81.1 507.6L91.2 506.2L101.3 503.4L111.4 504.2L121.5 503.5L131.6 500.9L141.6 499.8L151.7 499.5L161.8 502L171.9 499.1L182 501.6L192.1 495.9L202.2 495.5L212.3 493L222.4 490L232.4 490.9L242.5 491.9L252.6 494.1L262.7 491.4L272.8 489L282.9 492.1L293 494.5L303.1 491.9L313.2 490.6L323.2 491.3L333.3 496.4L343.4 495.2L353.5 492.7L363.6 493.8L373.7 494.2L383.8 493.9L393.9 497.2L404 496.6L414 500.1L424.1 496.3L434.2 495.4L444.3 500.9L454.4 503.4L464.5 503.1L474.6 502.8L484.7 505.6L494.7 503.3L504.8 501.7L514.9 497.3L525 500.3L535.1 496.9L545.2 492.6L555.3 495.8L565.4 497.2L575.5 494L585.5 493.9L595.6 489.9L605.7 489.9L615.8 490L625.9 489.1L636 488.5L646.1 490.1L656.2 491.1L666.3 487.9L676.3 485.7"></path><polyline points="71.00,509.10 81.10,507.60 91.20,506.20 101.30,503.40 111.40,504.20 121.50,503.50 131.60,500.90 141.60,499.80 151.70,499.50 161.80,502.00 171.90,499.10 182.00,501.60 192.10,495.90 202.20,495.50 212.30,493.00 222.40,490.00 232.40,490.90 242.50,491.90 252.60,494.10 262.70,491.40 272.80,489.00 282.90,492.10 293.00,494.50 303.10,491.90 313.20,490.60 323.20,491.30 333.30,496.40 343.40,495.20 353.50,492.70 363.60,493.80 373.70,494.20 383.80,493.90 393.90,497.20 404.00,496.60 414.00,500.10 424.10,496.30 434.20,495.40 444.30,500.90 454.40,503.40 464.50,503.10 474.60,502.80 484.70,505.60 494.70,503.30 504.80,501.70 514.90,497.30 525.00,500.30 535.10,496.90 545.20,492.60 555.30,495.80 565.40,497.20 575.50,494.00 585.50,493.90 595.60,489.90 605.70,489.90 615.80,490.00 625.90,489.10 636.00,488.50 646.10,490.10 656.20,491.10 666.30,487.90 676.30,485.70" stroke-linejoin="round" stroke-width="1.5" stroke="#3c4e66" fill="none" stroke-linecap="butt"></polyline><g><circle cx="71" cy="509.1" r="1.8" fill="#3c4e66"></circle><circle cx="81.1" cy="507.6" r="1.8" fill="#3c4e66"></circle><circle cx="91.2" cy="506.2" r="1.8" fill="#3c4e66"></circle><circle cx="101.3" cy="503.4" r="1.8" fill="#3c4e66"></circle><circle cx="111.4" cy="504.2" r="1.8" fill="#3c4e66"></circle><circle cx="121.5" cy="503.5" r="1.8" fill="#3c4e66"></circle><circle cx="131.6" cy="500.9" r="1.8" fill="#3c4e66"></circle><circle cx="141.6" cy="499.8" r="1.8" fill="#3c4e66"></circle><circle cx="151.7" cy="499.5" r="1.8" fill="#3c4e66"></circle><circle cx="161.8" cy="502" r="1.8" fill="#3c4e66"></circle><circle cx="171.9" cy="499.1" r="1.8" fill="#3c4e66"></circle><circle cx="182" cy="501.6" r="1.8" fill="#3c4e66"></circle><circle cx="192.1" cy="495.9" r="1.8" fill="#3c4e66"></circle><circle cx="202.2" cy="495.5" r="1.8" fill="#3c4e66"></circle><circle cx="212.3" cy="493" r="1.8" fill="#3c4e66"></circle><circle cx="222.4" cy="490" r="1.8" fill="#3c4e66"></circle><circle cx="232.4" cy="490.9" r="1.8" fill="#3c4e66"></circle><circle cx="242.5" cy="491.9" r="1.8" fill="#3c4e66"></circle><circle cx="252.6" cy="494.1" r="1.8" fill="#3c4e66"></circle><circle cx="262.7" cy="491.4" r="1.8" fill="#3c4e66"></circle><circle cx="272.8" cy="489" r="1.8" fill="#3c4e66"></circle><circle cx="282.9" cy="492.1" r="1.8" fill="#3c4e66"></circle><circle cx="293" cy="494.5" r="1.8" fill="#3c4e66"></circle><circle cx="303.1" cy="491.9" r="1.8" fill="#3c4e66"></circle><circle cx="313.2" cy="490.6" r="1.8" fill="#3c4e66"></circle><circle cx="323.2" cy="491.3" r="1.8" fill="#3c4e66"></circle><circle cx="333.3" cy="496.4" r="1.8" fill="#3c4e66"></circle><circle cx="343.4" cy="495.2" r="1.8" fill="#3c4e66"></circle><circle cx="353.5" cy="492.7" r="1.8" fill="#3c4e66"></circle><circle cx="363.6" cy="493.8" r="1.8" fill="#3c4e66"></circle><circle cx="373.7" cy="494.2" r="1.8" fill="#3c4e66"></circle><circle cx="383.8" cy="493.9" r="1.8" fill="#3c4e66"></circle><circle cx="393.9" cy="497.2" r="1.8" fill="#3c4e66"></circle><circle cx="404" cy="496.6" r="1.8" fill="#3c4e66"></circle><circle cx="414" cy="500.1" r="1.8" fill="#3c4e66"></circle><circle cx="424.1" cy="496.3" r="1.8" fill="#3c4e66"></circle><circle cx="434.2" cy="495.4" r="1.8" fill="#3c4e66"></circle><circle cx="444.3" cy="500.9" r="1.8" fill="#3c4e66"></circle><circle cx="454.4" cy="503.4" r="1.8" fill="#3c4e66"></circle><circle cx="464.5" cy="503.1" r="1.8" fill="#3c4e66"></circle><circle cx="474.6" cy="502.8" r="1.8" fill="#3c4e66"></circle><circle cx="484.7" cy="505.6" r="1.8" fill="#3c4e66"></circle><circle cx="494.7" cy="503.3" r="1.8" fill="#3c4e66"></circle><circle cx="504.8" cy="501.7" r="1.8" fill="#3c4e66"></circle><circle cx="514.9" cy="497.3" r="1.8" fill="#3c4e66"></circle><circle cx="525" cy="500.3" r="1.8" fill="#3c4e66"></circle><circle cx="535.1" cy="496.9" r="1.8" fill="#3c4e66"></circle><circle cx="545.2" cy="492.6" r="1.8" fill="#3c4e66"></circle><circle cx="555.3" cy="495.8" r="1.8" fill="#3c4e66"></circle><circle cx="565.4" cy="497.2" r="1.8" fill="#3c4e66"></circle><circle cx="575.5" cy="494" r="1.8" fill="#3c4e66"></circle><circle cx="585.5" cy="493.9" r="1.8" fill="#3c4e66"></circle><circle cx="595.6" cy="489.9" r="1.8" fill="#3c4e66"></circle><circle cx="605.7" cy="489.9" r="1.8" fill="#3c4e66"></circle><circle cx="615.8" cy="490" r="1.8" fill="#3c4e66"></circle><circle cx="625.9" cy="489.1" r="1.8" fill="#3c4e66"></circle><circle cx="636" cy="488.5" r="1.8" fill="#3c4e66"></circle><circle cx="646.1" cy="490.1" r="1.8" fill="#3c4e66"></circle><circle cx="656.2" cy="491.1" r="1.8" fill="#3c4e66"></circle><circle cx="666.3" cy="487.9" r="1.8" fill="#3c4e66"></circle><circle cx="676.3" cy="485.7" r="1.8" fill="#3c4e66"></circle></g></g></g></g></g><g class="SourcesFooter" style="fill:#777"><g style="fill:#777"><text x="15.0" y="566.9" style="font-size:12.6px;line-height:1.1"><tspan x="15" y="566.9">Source: Our World in Data based on World Bank; Food and Agriculture Organization of the United Nations</tspan></text></g><text font-size="12.60" x="15.0" y="582.7"><tspan x="15" y="582.732"><a target='_blank' style='fill: #777;' href='https://ourworldindata.org/crop-yields'>OurWorldInData.org/crop-yields</a>  <a style="fill: #777;" class="cclogo" href="https://creativecommons.org/licenses/by/4.0/" target="_blank">CC BY</a></tspan></text></g></svg>