<svg xmlns="http://www.w3.org/2000/svg" version="1.1" style="font-family:Lato, &#x27;Helvetica Neue&#x27;, Helvetica, Arial, &#x27;Liberation Sans&#x27;, sans-serif;font-size:18px;background-color:white;text-rendering:geometricPrecision;-webkit-font-smoothing:antialiased;overflow:visible" width="850" height="600" viewBox="0 0 850 600"><defs><style>@import url(http://localhost:3030/fonts.css)</style></defs><defs><pattern id="noDataPattern" patternUnits="userSpaceOnUse" width="4" height="4" patternTransform="rotate(-45 2 2)"><path d="M -1,2 l 6,0" stroke="#ccc" stroke-width="0.7"></path></pattern></defs><rect class="background-fill" fill="white" width="850" height="600"></rect><g class="HeaderView"><g transform="translate(769, 16) scale(1)"><svg className="owidLogo" xmlns="http://www.w3.org/2000/svg" width="65" height="36" viewBox="0 0 65 36"  fill="none"><path fill="#002147" d="M0 0h64.8v36H0z"/><path fill="#CE261E" d="M0 33.3h64.8V36H0z"/><path fill="#fff" d="M13.796 10.575c0 .636-.106 1.226-.318 1.77a4.193 4.193 0 0 1-.894 1.404 4.084 4.084 0 0 1-1.386.93c-.54.22-1.138.33-1.794.33-.656 0-1.256-.11-1.8-.33a4.149 4.149 0 0 1-1.392-.93 4.193 4.193 0 0 1-.894-1.404A4.833 4.833 0 0 1 5 10.575c0-.636.106-1.224.318-1.764a4.18 4.18 0 0 1 .894-1.41 4.076 4.076 0 0 1 1.392-.924 4.684 4.684 0 0 1 1.8-.336c.656 0 1.254.112 1.794.336.54.224 1.002.534 1.386.93.384.392.682.86.894 1.404.212.54.318 1.128.318 1.764Zm-1.656 0c0-.476-.064-.902-.192-1.278a2.671 2.671 0 0 0-.54-.966 2.332 2.332 0 0 0-.864-.606 2.94 2.94 0 0 0-1.14-.21c-.424 0-.806.07-1.146.21-.34.14-.63.342-.87.606a2.742 2.742 0 0 0-.546.966 3.955 3.955 0 0 0-.192 1.278c0 .476.064.904.192 1.284.128.376.31.696.546.96.24.26.53.46.87.6.34.14.722.21 1.146.21.424 0 .804-.07 1.14-.21.34-.14.628-.34.864-.6.236-.264.416-.584.54-.96a4.01 4.01 0 0 0 .192-1.284ZM16.104 8.757v3.912c0 .376.086.668.258.876.176.204.438.306.786.306.256 0 .496-.056.72-.168a2.58 2.58 0 0 0 .636-.474V8.757h1.482v6.156h-.906c-.192 0-.318-.09-.378-.27l-.102-.492a4.65 4.65 0 0 1-.396.354 2.577 2.577 0 0 1-.438.27 2.35 2.35 0 0 1-.498.168 2.345 2.345 0 0 1-.57.066c-.336 0-.634-.056-.894-.168a1.821 1.821 0 0 1-.648-.486 2.157 2.157 0 0 1-.402-.738 3.233 3.233 0 0 1-.132-.948V8.757h1.482ZM21.328 14.913V8.757h.87c.152 0 .258.028.318.084.06.056.1.152.12.288l.09.744c.22-.38.478-.68.774-.9.296-.22.628-.33.996-.33.304 0 .556.07.756.21l-.192 1.11c-.012.072-.038.124-.078.156a.278.278 0 0 1-.162.042 1.01 1.01 0 0 1-.246-.042 1.646 1.646 0 0 0-.414-.042c-.308 0-.572.086-.792.258-.22.168-.406.416-.558.744v3.834h-1.482ZM27.347 6.237h1.356a.57.57 0 0 1 .348.102c.096.064.16.152.192.264l1.476 5.19c.036.128.068.268.096.42.032.148.062.306.09.474a5.968 5.968 0 0 1 .228-.894l1.704-5.19a.575.575 0 0 1 .186-.252.543.543 0 0 1 .348-.114h.474a.57.57 0 0 1 .348.102.497.497 0 0 1 .192.264l1.692 5.19c.088.256.164.54.228.852.028-.156.056-.306.084-.45.032-.144.064-.278.096-.402l1.476-5.19c.028-.1.09-.186.186-.258a.563.563 0 0 1 .348-.108h1.266l-2.694 8.676h-1.458l-1.896-5.928-.078-.246a9.504 9.504 0 0 1-.072-.282c-.024.1-.05.194-.078.282-.024.088-.048.17-.072.246l-1.914 5.928H30.04l-2.694-8.676ZM42.771 8.661c.46 0 .876.074 1.248.222.376.148.696.358.96.63s.468.604.612.996c.144.392.216.83.216 1.314 0 .488-.072.928-.216 1.32a2.85 2.85 0 0 1-.612 1.002 2.653 2.653 0 0 1-.96.636 3.35 3.35 0 0 1-1.248.222c-.46 0-.878-.074-1.254-.222a2.712 2.712 0 0 1-.966-.636 2.922 2.922 0 0 1-.618-1.002 3.807 3.807 0 0 1-.216-1.32c0-.484.072-.922.216-1.314.148-.392.354-.724.618-.996.268-.272.59-.482.966-.63a3.397 3.397 0 0 1 1.254-.222Zm0 5.202c.512 0 .89-.172 1.134-.516.248-.344.372-.848.372-1.512s-.124-1.17-.372-1.518c-.244-.348-.622-.522-1.134-.522-.52 0-.904.176-1.152.528-.248.348-.372.852-.372 1.512s.124 1.164.372 1.512c.248.344.632.516 1.152.516ZM46.723 14.913V8.757h.87c.152 0 .258.028.318.084.06.056.1.152.12.288l.09.744c.22-.38.478-.68.774-.9.296-.22.628-.33.996-.33.304 0 .556.07.756.21l-.192 1.11c-.012.072-.038.124-.078.156a.278.278 0 0 1-.162.042 1.01 1.01 0 0 1-.246-.042 1.646 1.646 0 0 0-.414-.042c-.308 0-.572.086-.792.258-.22.168-.406.416-.558.744v3.834h-1.482ZM52.96 5.997v8.916h-1.482V5.997h1.482ZM58.732 14.913c-.192 0-.318-.09-.378-.27l-.12-.594a3.68 3.68 0 0 1-.402.39c-.14.116-.292.216-.456.3-.16.084-.334.148-.522.192a2.372 2.372 0 0 1-.6.072c-.336 0-.644-.07-.924-.21a2.098 2.098 0 0 1-.726-.606 3.033 3.033 0 0 1-.468-.99 5.072 5.072 0 0 1-.162-1.344c0-.456.062-.88.186-1.272s.302-.732.534-1.02c.232-.288.51-.512.834-.672a2.384 2.384 0 0 1 1.092-.246 2.103 2.103 0 0 1 1.536.606V5.997h1.482v8.916h-.906Zm-1.974-1.086c.308 0 .57-.064.786-.192.216-.128.42-.31.612-.546v-2.76a1.452 1.452 0 0 0-.552-.432 1.597 1.597 0 0 0-.636-.126c-.224 0-.428.042-.612.126a1.21 1.21 0 0 0-.462.384c-.124.168-.22.384-.288.648-.068.26-.102.568-.102.924 0 .36.028.666.084.918.06.248.144.452.252.612.108.156.24.27.396.342.156.068.33.102.522.102ZM16.331 20.757v6.156H14.85v-6.156h1.481Zm.223-1.794a.844.844 0 0 1-.078.36.963.963 0 0 1-.21.294.995.995 0 0 1-.3.204.963.963 0 0 1-.372.072.948.948 0 0 1-.367-.072 1.018 1.018 0 0 1-.498-.498.963.963 0 0 1 0-.732.995.995 0 0 1 .205-.3.929.929 0 0 1 .293-.198.899.899 0 0 1 .738 0 .912.912 0 0 1 .3.198.943.943 0 0 1 .288.672ZM17.771 26.913v-6.156h.906c.192 0 .318.09.378.27l.102.486a2.934 2.934 0 0 1 .828-.618c.156-.076.322-.134.498-.174.176-.04.368-.06.576-.06.336 0 .634.058.894.174.26.112.476.272.648.48.176.204.308.45.396.738.092.284.138.598.138.942v3.918h-1.482v-3.918c0-.376-.088-.666-.264-.87-.172-.208-.432-.312-.78-.312-.256 0-.496.058-.72.174a2.58 2.58 0 0 0-.636.474v4.452h-1.482ZM34.22 22.575c0 .636-.106 1.22-.318 1.752-.212.532-.51.99-.894 1.374a4 4 0 0 1-1.386.894 4.87 4.87 0 0 1-1.794.318h-3.312v-8.676h3.312a4.79 4.79 0 0 1 1.794.324 4 4 0 0 1 1.386.894c.384.38.682.836.894 1.368.212.532.318 1.116.318 1.752Zm-1.65 0c0-.476-.064-.902-.192-1.278a2.68 2.68 0 0 0-.546-.96 2.332 2.332 0 0 0-.864-.606 2.94 2.94 0 0 0-1.14-.21h-1.686v6.108h1.686c.424 0 .804-.07 1.14-.21.34-.14.628-.34.864-.6a2.75 2.75 0 0 0 .546-.96 4.01 4.01 0 0 0 .192-1.284ZM39.98 26.913h-.665c-.14 0-.25-.02-.33-.06-.08-.044-.14-.13-.18-.258l-.132-.438c-.156.14-.31.264-.462.372a2.804 2.804 0 0 1-.462.264c-.16.072-.33.126-.51.162-.18.036-.38.054-.6.054-.26 0-.5-.034-.72-.102a1.618 1.618 0 0 1-.57-.318 1.448 1.448 0 0 1-.366-.522 1.852 1.852 0 0 1-.132-.726c0-.232.06-.46.18-.684.124-.228.328-.432.612-.612.284-.184.662-.336 1.134-.456.472-.12 1.058-.188 1.758-.204v-.36c0-.412-.088-.716-.264-.912-.172-.2-.424-.3-.756-.3a1.837 1.837 0 0 0-1.02.276c-.116.068-.224.13-.324.186a.664.664 0 0 1-.33.084.429.429 0 0 1-.258-.078.614.614 0 0 1-.174-.192l-.27-.474c.708-.648 1.562-.972 2.562-.972.36 0 .68.06.96.18.284.116.524.28.72.492.196.208.344.458.444.75.104.292.156.612.156.96v3.888Zm-2.88-.924c.153 0 .293-.014.42-.042.129-.028.249-.07.36-.126.117-.056.227-.124.33-.204.109-.084.217-.182.325-.294v-1.038c-.432.02-.794.058-1.086.114-.288.052-.52.12-.696.204a.923.923 0 0 0-.378.294.664.664 0 0 0-.108.366c0 .26.076.446.228.558.156.112.358.168.606.168ZM43.22 27.01c-.532 0-.942-.15-1.23-.45-.288-.305-.432-.723-.432-1.255v-3.438h-.624a.31.31 0 0 1-.21-.078c-.056-.052-.084-.13-.084-.234v-.588l.99-.162.312-1.68a.302.302 0 0 1 .108-.186.365.365 0 0 1 .222-.066h.768v1.938h1.62v1.056h-1.62v3.336c0 .192.048.342.144.45a.488.488 0 0 0 .384.162c.092 0 .168-.01.228-.03.064-.024.118-.048.162-.072.048-.024.09-.046.126-.066a.194.194 0 0 1 .108-.036.16.16 0 0 1 .108.036c.028.02.058.052.09.096l.444.72c-.216.18-.464.316-.744.408a2.77 2.77 0 0 1-.87.138ZM50.423 26.913h-.666c-.14 0-.25-.02-.33-.06-.08-.044-.14-.13-.18-.258l-.132-.438c-.156.14-.31.264-.462.372a2.804 2.804 0 0 1-.462.264c-.16.072-.33.126-.51.162-.18.036-.38.054-.6.054-.26 0-.5-.034-.72-.102a1.618 1.618 0 0 1-.57-.318 1.448 1.448 0 0 1-.366-.522 1.852 1.852 0 0 1-.132-.726c0-.232.06-.46.18-.684.124-.228.328-.432.612-.612.284-.184.662-.336 1.134-.456.472-.12 1.058-.188 1.758-.204v-.36c0-.412-.088-.716-.264-.912-.172-.2-.424-.3-.756-.3a1.837 1.837 0 0 0-1.02.276c-.116.068-.224.13-.324.186a.664.664 0 0 1-.33.084.429.429 0 0 1-.258-.078.614.614 0 0 1-.174-.192l-.27-.474c.708-.648 1.562-.972 2.562-.972.36 0 .68.06.96.18.284.116.524.28.72.492.196.208.344.458.444.75.104.292.156.612.156.96v3.888Zm-2.88-.924c.152 0 .292-.014.42-.042.128-.028.248-.07.36-.126.116-.056.226-.124.33-.204.108-.084.216-.182.324-.294v-1.038c-.432.02-.794.058-1.086.114-.288.052-.52.12-.696.204a.923.923 0 0 0-.378.294.664.664 0 0 0-.108.366c0 .26.076.446.228.558.156.112.358.168.606.168Z"/></svg></g><a href="http://localhost:3030/grapher/long-term-energy-transitions" style="font-family:&#x27;Playfair Display&#x27;, Georgia, &#x27;Times New Roman&#x27;, &#x27;Liberation Serif&#x27;, serif;font-weight:500" target="_blank" rel="noopener"><text font-size="24.00" font-weight="600" x="16.0" y="39.3" fill="#4E4E4E"><tspan x="16" y="39.28">Long-term energy transitions, Portugal</tspan></text></a><text x="16.0" y="63.0" style="font-size:14px;line-height:1.28571" fill="#4E4E4E"><tspan x="16" y="63.0">Share of primary energy by source over the long-term, measured as the percentage of total energy consumption.</tspan><tspan x="16" y="81.0">Primary electricity includes: hydropower, nuclear power, wind, photo­voltaics, tidal, wave and solar thermal and</tspan><tspan x="16" y="99.0">geothermal (only figures for electricity production are included).</tspan></text></g><g class="StackedArea"><defs><clipPath id="boundsClip-1"><rect x="62.634" y="118.79982" width="818" height="832.00036"></rect></clipPath></defs><rect x="16" y="118.79982" width="818" height="416.00018" fill="none"></rect><g class="DualAxisView"><g class="HorizontalAxis"><line x1="62.6" y1="513.6" x2="62.6" y2="518.6" stroke="#999"></line><line x1="708.8" y1="513.6" x2="708.8" y2="518.6" stroke="#999"></line><line x1="164.7" y1="513.6" x2="164.7" y2="518.6" stroke="#999"></line><line x1="249.7" y1="513.6" x2="249.7" y2="518.6" stroke="#999"></line><line x1="334.7" y1="513.6" x2="334.7" y2="518.6" stroke="#999"></line><line x1="419.7" y1="513.6" x2="419.7" y2="518.6" stroke="#999"></line><line x1="504.8" y1="513.6" x2="504.8" y2="518.6" stroke="#999"></line><line x1="589.8" y1="513.6" x2="589.8" y2="518.6" stroke="#999"></line><text x="62.634" y="534.8" fill="#666" text-anchor="start" font-size="16.2">1856</text><text x="708.8199999999999" y="534.8" fill="#666" text-anchor="end" font-size="16.2">2008</text><text x="164.7" y="534.8" fill="#666" text-anchor="middle" font-size="16.2">1880</text><text x="249.7" y="534.8" fill="#666" text-anchor="middle" font-size="16.2">1900</text><text x="334.7" y="534.8" fill="#666" text-anchor="middle" font-size="16.2">1920</text><text x="419.7" y="534.8" fill="#666" text-anchor="middle" font-size="16.2">1940</text><text x="504.8" y="534.8" fill="#666" text-anchor="middle" font-size="16.2">1960</text><text x="589.8" y="534.8" fill="#666" text-anchor="middle" font-size="16.2">1980</text></g><g class="VerticalAxis"><text x="57.63" y="513.6" dy=".32em" text-anchor="end" fill="#666" font-size="16.2">0%</text><text x="57.63" y="435.8" dy=".32em" text-anchor="end" fill="#666" font-size="16.2">20%</text><text x="57.63" y="358.1" dy=".32em" text-anchor="end" fill="#666" font-size="16.2">40%</text><text x="57.63" y="280.3" dy=".32em" text-anchor="end" fill="#666" font-size="16.2">60%</text><text x="57.63" y="202.6" dy=".32em" text-anchor="end" fill="#666" font-size="16.2">80%</text><text x="57.63" y="124.8" dy=".32em" text-anchor="end" fill="#666" font-size="16.2">100%</text></g><g class="AxisGridLines horizontalLines"><line x1="62.63" y1="513.6" x2="708.82" y2="513.6" stroke="#999"></line><line x1="62.63" y1="435.8" x2="708.82" y2="435.8" stroke="#ddd" stroke-dasharray="3,2"></line><line x1="62.63" y1="358.1" x2="708.82" y2="358.1" stroke="#ddd" stroke-dasharray="3,2"></line><line x1="62.63" y1="280.3" x2="708.82" y2="280.3" stroke="#ddd" stroke-dasharray="3,2"></line><line x1="62.63" y1="202.6" x2="708.82" y2="202.6" stroke="#ddd" stroke-dasharray="3,2"></line><line x1="62.63" y1="124.8" x2="708.82" y2="124.8" stroke="#ddd" stroke-dasharray="3,2"></line></g></g><g clip-path="url(#boundsClip-1)"><g class="LineLabels" style="cursor:default"><g class="legendMark"><rect x="708.8199999999999" y="125.9" width="91.295" height="27" fill="#fff" opacity="0"></rect><text font-size="13.50" font-weight="400" x="712.8" y="137.6" fill="#54a385"><tspan x="712.8199999999999" y="137.645">Primary</tspan><tspan x="712.8199999999999" y="151.145">electricity</tspan></text></g><g class="legendMark"><rect x="708.8199999999999" y="178.75" width="107.22500000000001" height="13.5" fill="#fff" opacity="0"></rect><text font-size="13.50" font-weight="400" x="712.8" y="190.5" fill="#6d3e91"><tspan x="712.8199999999999" y="190.495">Natural Gas</tspan></text></g><g class="legendMark"><rect x="708.8199999999999" y="303.15" width="51.47" height="13.5" fill="#fff" opacity="0"></rect><text font-size="13.50" font-weight="400" x="712.8" y="314.9" fill="#c15065"><tspan x="712.8199999999999" y="314.895">Oil</tspan></text></g><g class="legendMark"><rect x="708.8199999999999" y="415.35" width="62.81" height="13.5" fill="#fff" opacity="0"></rect><text font-size="13.50" font-weight="400" x="712.8" y="427.1" fill="#883039"><tspan x="712.8199999999999" y="427.095">Coal</tspan></text></g><g class="legendMark"><rect x="708.8199999999999" y="435.05" width="118.43" height="13.5" fill="#fff" opacity="0"></rect><text font-size="13.50" font-weight="400" x="712.8" y="446.8" fill="#286bbb"><tspan x="712.8199999999999" y="446.795">Water &amp; Wind</tspan></text></g><g class="legendMark"><rect x="708.8199999999999" y="459.55" width="93.725" height="13.5" fill="#fff" opacity="0"></rect><text font-size="13.50" font-weight="400" x="712.8" y="471.3" fill="#af8454"><tspan x="712.8199999999999" y="471.295">Fuelwood</tspan></text></g><g class="legendMark"><rect x="708.8199999999999" y="482.05" width="122.885" height="13.5" fill="#fff" opacity="0"></rect><text font-size="13.50" font-weight="400" x="712.8" y="493.8" fill="#b13507"><tspan x="712.8199999999999" y="493.795">Animal muscle</tspan></text></g><g class="legendMark"><rect x="708.8199999999999" y="497.55" width="125.18" height="13.5" fill="#fff" opacity="0"></rect><text font-size="13.50" font-weight="400" x="712.8" y="509.3" fill="#970046"><tspan x="712.8199999999999" y="509.295">Human muscle</tspan></text></g></g><g class="Areas"><rect x="62.634" y="124.79982" width="646.1859999999999" height="388.80018" opacity="0" fill="rgba(255,255,255,0)"></rect><path class="Human-muscle-area" stroke-linecap="round" d="M62.6 440.4L66.9 439.7L71.1 439.4L75.4 440.1L79.6 439.3L83.9 438.6L88.1 438.9L92.4 439L96.6 439L100.9 439L105.1 441L109.4 440.1L113.6 441.3L117.9 439.7L122.2 440.9L126.4 439.7L130.7 440.5L134.9 442.4L139.2 440.9L143.4 441.6L147.7 441.3L151.9 442.1L156.2 442.1L160.4 442.1L164.7 443.2L168.9 442.9L173.2 444L177.4 443.6L181.7 444L185.9 442.8L190.2 444L194.4 444.8L198.7 445.2L202.9 446.3L207.2 446.3L211.4 446.7L215.7 445.9L219.9 444.4L224.2 446.7L228.4 445.6L232.7 445.5L236.9 445.9L241.2 447.5L245.4 447.1L249.7 447.6L253.9 447.5L258.2 448.7L262.4 449L266.7 449.8L270.9 449.1L275.2 450.6L279.4 451.8L283.7 451.8L287.9 451.8L292.2 452.1L296.5 452.6L300.7 454.1L305 454.9L309.2 453.7L313.5 452.9L317.7 452.2L322 445.9L326.2 444.3L330.5 449.8L334.7 450.6L339 446.7L343.2 450.2L347.5 448.3L351.7 450.3L356 450.9L360.2 449.8L364.5 452.5L368.7 454.6L373 453.8L377.2 455.3L381.5 453.7L385.7 451.4L390 453.7L394.2 453.7L398.5 454.2L402.7 452.9L407 456.4L411.2 454.5L415.5 455.7L419.7 451.8L424 451.8L428.2 449.9L432.5 451.4L436.7 454.9L441 452.6L445.2 454.5L449.5 458L453.7 453.8L458 454.9L462.2 450.7L466.5 451.4L470.8 453.7L475 453.4L479.3 453.7L483.5 456.8L487.8 456L492 456.9L496.3 458.8L500.5 458.3L504.8 458.4L509 461.9L513.3 461.2L517.5 460.8L521.8 463.5L526 460.4L530.3 462.3L534.5 461.5L538.8 462.3L543 463.8L547.3 468L551.5 468.5L555.8 470.4L560 472.4L564.3 472L568.5 473.6L572.8 474.3L577 475.1L581.3 477.5L585.5 479.8L589.8 480.6L594 481.4L598.3 482.5L602.5 482.9L606.8 482.1L611 480.6L615.3 480.9L619.5 480.6L623.8 481.7L628 485.2L632.3 485.6L636.5 486.4L640.8 487.9L645.1 487.2L649.3 487.2L653.6 488.7L657.8 488.7L662.1 490.7L666.3 490.7L670.6 491.5L674.8 491.8L679.1 491.4L683.3 492.2L687.6 491.4L691.8 491.8L696.1 492.2L700.3 491.4L704.6 491.8L708.8 491L708.8 513.6L62.6 513.6" fill="#970046" fill-opacity="0.7"></path><path class="Animal-muscle-area" stroke-linecap="round" d="M62.6 371.9L66.9 370.5L71.1 369.9L75.4 371.7L79.6 369.7L83.9 368.6L88.1 369.2L92.4 369.4L96.6 369.5L100.9 369.4L105.1 373L109.4 371.7L113.6 374L117.9 370.9L122.2 373.2L126.4 371.3L130.7 372.9L134.9 376.6L139.2 373.6L143.4 375.4L147.7 374.8L151.9 376.5L156.2 376.7L160.4 377.1L164.7 379.5L168.9 379.6L173.2 381.8L177.4 381.8L181.7 383L185.9 381L190.2 383.7L194.4 385.3L198.7 386.5L202.9 389.2L207.2 389.6L211.4 390.2L215.7 389.1L219.9 386.5L224.2 390.6L228.4 388.9L232.7 388.7L236.9 389.6L241.2 392.7L245.4 392.3L249.7 393.2L253.9 393.1L258.2 395.9L262.4 396.5L266.7 398.5L270.9 397.3L275.2 400.5L279.4 402.9L283.7 403.2L287.9 403.2L292.2 404.2L296.5 405.1L300.7 407.8L305 409.5L309.2 407.1L313.5 405.5L317.7 404.3L322 393.1L326.2 390.6L330.5 400.1L334.7 401.6L339 394.9L343.2 402L347.5 399.3L351.7 403.3L356 405L360.2 403.6L364.5 408.5L368.7 412.6L373 411.8L377.2 414.8L381.5 412.8L385.7 409.4L390 413.7L394.2 414L398.5 415.3L402.7 414L407 420.3L411.2 417.6L415.5 420.3L419.7 415.3L424 415.6L428.2 413.4L432.5 416L436.7 421.8L441 419.1L445.2 422.6L449.5 428.5L453.7 422.3L458 423.9L462.2 419.6L466.5 420.7L470.8 422.6L475 423.5L479.3 424.2L483.5 428.5L487.8 429.1L492 431L496.3 433.5L500.5 434.2L504.8 435.8L509 441L513.3 441L517.5 441.7L521.8 445.2L526 443.3L530.3 446L534.5 446.7L538.8 448.3L543 451L547.3 456.7L551.5 457.9L555.8 460.7L560 463.4L564.3 463.5L568.5 465.8L572.8 466.9L577 468.1L581.3 470.9L585.5 473.6L589.8 474.7L594 475.9L598.3 477.4L602.5 477.8L606.8 477.1L611 475.5L615.3 476.3L619.5 476.3L623.8 477.8L628 481.7L632.3 482.5L636.5 483.7L640.8 485.2L645.1 484.8L649.3 484.9L653.6 486.8L657.8 487.2L662.1 489.1L666.3 489.5L670.6 490.3L674.8 491L679.1 490.7L683.3 491.4L687.6 490.7L691.8 491.1L696.1 491.4L700.3 491L704.6 491.4L708.8 490.6L708.8 491L704.6 491.8L700.3 491.4L696.1 492.2L691.8 491.8L687.6 491.4L683.3 492.2L679.1 491.4L674.8 491.8L670.6 491.5L666.3 490.7L662.1 490.7L657.8 488.7L653.6 488.7L649.3 487.2L645.1 487.2L640.8 487.9L636.5 486.4L632.3 485.6L628 485.2L623.8 481.7L619.5 480.6L615.3 480.9L611 480.6L606.8 482.1L602.5 482.9L598.3 482.5L594 481.4L589.8 480.6L585.5 479.8L581.3 477.5L577 475.1L572.8 474.3L568.5 473.6L564.3 472L560 472.4L555.8 470.4L551.5 468.5L547.3 468L543 463.8L538.8 462.3L534.5 461.5L530.3 462.3L526 460.4L521.8 463.5L517.5 460.8L513.3 461.2L509 461.9L504.8 458.4L500.5 458.3L496.3 458.8L492 456.9L487.8 456L483.5 456.8L479.3 453.7L475 453.4L470.8 453.7L466.5 451.4L462.2 450.7L458 454.9L453.7 453.8L449.5 458L445.2 454.5L441 452.6L436.7 454.9L432.5 451.4L428.2 449.9L424 451.8L419.7 451.8L415.5 455.7L411.2 454.5L407 456.4L402.7 452.9L398.5 454.2L394.2 453.7L390 453.7L385.7 451.4L381.5 453.7L377.2 455.3L373 453.8L368.7 454.6L364.5 452.5L360.2 449.8L356 450.9L351.7 450.3L347.5 448.3L343.2 450.2L339 446.7L334.7 450.6L330.5 449.8L326.2 444.3L322 445.9L317.7 452.2L313.5 452.9L309.2 453.7L305 454.9L300.7 454.1L296.5 452.6L292.2 452.1L287.9 451.8L283.7 451.8L279.4 451.8L275.2 450.6L270.9 449.1L266.7 449.8L262.4 449L258.2 448.7L253.9 447.5L249.7 447.6L245.4 447.1L241.2 447.5L236.9 445.9L232.7 445.5L228.4 445.6L224.2 446.7L219.9 444.4L215.7 445.9L211.4 446.7L207.2 446.3L202.9 446.3L198.7 445.2L194.4 444.8L190.2 444L185.9 442.8L181.7 444L177.4 443.6L173.2 444L168.9 442.9L164.7 443.2L160.4 442.1L156.2 442.1L151.9 442.1L147.7 441.3L143.4 441.6L139.2 440.9L134.9 442.4L130.7 440.5L126.4 439.7L122.2 440.9L117.9 439.7L113.6 441.3L109.4 440.1L105.1 441L100.9 439L96.6 439L92.4 439L88.1 438.9L83.9 438.6L79.6 439.3L75.4 440.1L71.1 439.4L66.9 439.7L62.6 440.4" fill="#b13507" fill-opacity="0.7"></path><path class="Fuelwood-area" stroke-linecap="round" d="M62.6 148.5L66.9 145L71.1 147.7L75.4 150.8L79.6 147L83.9 144.2L88.1 144.6L92.4 145L96.6 145.8L100.9 145.8L105.1 153.9L109.4 150.8L113.6 157.8L117.9 149.7L122.2 155.5L126.4 150.5L130.7 152.4L134.9 160.6L139.2 153.2L143.4 157.1L147.7 157.1L151.9 159.8L156.2 161L160.4 160.6L164.7 167.6L168.9 167.9L173.2 171.8L177.4 173.4L181.7 176.1L185.9 172.6L190.2 176.1L194.4 180.4L198.7 182.7L202.9 190.5L207.2 192.8L211.4 193.7L215.7 191L219.9 183.9L224.2 192.9L228.4 189.3L232.7 189L236.9 190.1L241.2 197.9L245.4 195.6L249.7 198.2L253.9 197.5L258.2 202.5L262.4 204.6L266.7 209.2L270.9 207.6L275.2 215.4L279.4 221.5L283.7 221.6L287.9 221.6L292.2 223.7L296.5 225.5L300.7 230.9L305 235.5L309.2 226.7L313.5 219.3L317.7 211.5L322 168.3L326.2 152.4L330.5 183.5L334.7 183.5L339 187.8L343.2 209.6L347.5 201L351.7 210.6L356 212.8L360.2 208.8L364.5 222.1L368.7 229.3L373 226.2L377.2 233.3L381.5 227.9L385.7 217.3L390 228.6L394.2 230.3L398.5 233.9L402.7 227.5L407 244.6L411.2 234.8L415.5 237.9L419.7 218L424 213.8L428.2 193.2L432.5 194.8L436.7 204.5L441 201L445.2 215L449.5 244.2L453.7 247.1L458 250.6L462.2 247.5L466.5 251.2L470.8 251.9L475 258L479.3 259.3L483.5 268.7L487.8 271.5L492 275L496.3 278L500.5 281.3L504.8 286.2L509 299.6L513.3 302.7L517.5 310.5L521.8 314.3L526 318.6L530.3 324.1L534.5 329.3L538.8 333.2L543 343.7L547.3 357.4L551.5 365.3L555.8 375.6L560 383.4L564.3 386.6L568.5 392.3L572.8 396.6L577 398.4L581.3 403.3L585.5 410.6L589.8 414.5L594 417.7L598.3 420.3L602.5 421.8L606.8 421.1L611 416.4L615.3 420.3L619.5 419.9L623.8 423.7L628 435L632.3 429.6L636.5 430.8L640.8 435.8L645.1 435.5L649.3 436.8L653.6 439.8L657.8 440.5L662.1 443.6L666.3 446.3L670.6 448.8L674.8 448.7L679.1 448.3L683.3 449.8L687.6 447.1L691.8 448.3L696.1 449.1L700.3 446.7L704.6 443.5L708.8 442L708.8 490.6L704.6 491.4L700.3 491L696.1 491.4L691.8 491.1L687.6 490.7L683.3 491.4L679.1 490.7L674.8 491L670.6 490.3L666.3 489.5L662.1 489.1L657.8 487.2L653.6 486.8L649.3 484.9L645.1 484.8L640.8 485.2L636.5 483.7L632.3 482.5L628 481.7L623.8 477.8L619.5 476.3L615.3 476.3L611 475.5L606.8 477.1L602.5 477.8L598.3 477.4L594 475.9L589.8 474.7L585.5 473.6L581.3 470.9L577 468.1L572.8 466.9L568.5 465.8L564.3 463.5L560 463.4L555.8 460.7L551.5 457.9L547.3 456.7L543 451L538.8 448.3L534.5 446.7L530.3 446L526 443.3L521.8 445.2L517.5 441.7L513.3 441L509 441L504.8 435.8L500.5 434.2L496.3 433.5L492 431L487.8 429.1L483.5 428.5L479.3 424.2L475 423.5L470.8 422.6L466.5 420.7L462.2 419.6L458 423.9L453.7 422.3L449.5 428.5L445.2 422.6L441 419.1L436.7 421.8L432.5 416L428.2 413.4L424 415.6L419.7 415.3L415.5 420.3L411.2 417.6L407 420.3L402.7 414L398.5 415.3L394.2 414L390 413.7L385.7 409.4L381.5 412.8L377.2 414.8L373 411.8L368.7 412.6L364.5 408.5L360.2 403.6L356 405L351.7 403.3L347.5 399.3L343.2 402L339 394.9L334.7 401.6L330.5 400.1L326.2 390.6L322 393.1L317.7 404.3L313.5 405.5L309.2 407.1L305 409.5L300.7 407.8L296.5 405.1L292.2 404.2L287.9 403.2L283.7 403.2L279.4 402.9L275.2 400.5L270.9 397.3L266.7 398.5L262.4 396.5L258.2 395.9L253.9 393.1L249.7 393.2L245.4 392.3L241.2 392.7L236.9 389.6L232.7 388.7L228.4 388.9L224.2 390.6L219.9 386.5L215.7 389.1L211.4 390.2L207.2 389.6L202.9 389.2L198.7 386.5L194.4 385.3L190.2 383.7L185.9 381L181.7 383L177.4 381.8L173.2 381.8L168.9 379.6L164.7 379.5L160.4 377.1L156.2 376.7L151.9 376.5L147.7 374.8L143.4 375.4L139.2 373.6L134.9 376.6L130.7 372.9L126.4 371.3L122.2 373.2L117.9 370.9L113.6 374L109.4 371.7L105.1 373L100.9 369.4L96.6 369.5L92.4 369.4L88.1 369.2L83.9 368.6L79.6 369.7L75.4 371.7L71.1 369.9L66.9 370.5L62.6 371.9" fill="#bc8e5a" fill-opacity="0.7"></path><path class="Water-__0026-Wind-area" stroke-linecap="round" d="M62.6 143.9L66.9 140L71.1 142.7L75.4 145.8L79.6 141.9L83.9 139.2L88.1 139.6L92.4 140L96.6 140.3L100.9 140.7L105.1 148.9L109.4 145.8L113.6 152.8L117.9 144.6L122.2 150.5L126.4 145.4L130.7 147.4L134.9 155.9L139.2 148.1L143.4 152.4L147.7 152.4L151.9 155.1L156.2 156.3L160.4 155.9L164.7 162.9L168.9 163.3L173.2 167.6L177.4 169.1L181.7 171.8L185.9 168.3L190.2 171.8L194.4 176.1L198.7 178.5L202.9 186.2L207.2 188.6L211.4 189.4L215.7 186.7L219.9 179.2L224.2 188.2L228.4 184.6L232.7 184.3L236.9 185.5L241.2 193.2L245.4 190.9L249.7 193.5L253.9 192.8L258.2 197.8L262.4 200.3L266.7 204.9L270.9 203.7L275.2 211.5L279.4 217.6L283.7 218.1L287.9 217.7L292.2 220.2L296.5 222L300.7 227.4L305 232L309.2 223.2L313.5 215.8L317.7 208L322 164.8L326.2 148.9L330.5 180L334.7 180L339 184.3L343.2 206.1L347.5 197.5L351.7 207.5L356 209.6L360.2 205.7L364.5 219L368.7 226.2L373 223.1L377.2 230.6L381.5 225.2L385.7 214.6L390 225.9L394.2 227.5L398.5 231.6L402.7 225.2L407 242.2L411.2 232.5L415.5 235.6L419.7 215.7L424 211.5L428.2 190.8L432.5 192.5L436.7 202.6L441 199.1L445.2 213.1L449.5 242.6L453.7 245.2L458 248.7L462.2 245.6L466.5 249.2L470.8 250.4L475 256.5L479.3 257.8L483.5 267.1L487.8 270L492 273.4L496.3 276.4L500.5 280.1L504.8 285L509 298.4L513.3 301.5L517.5 309.3L521.8 313.2L526 317.5L530.3 323.3L534.5 328.5L538.8 332.4L543 342.9L547.3 357L551.5 364.9L555.8 375.2L560 383L564.3 386.2L568.5 391.9L572.8 396.2L577 398L581.3 402.9L585.5 410.2L589.8 414.1L594 417.3L598.3 420.3L602.5 421.8L606.8 421.1L611 416.4L615.3 420.3L619.5 419.9L623.8 423.7L628 435L632.3 429.6L636.5 430.8L640.8 435.8L645.1 435.5L649.3 436.8L653.6 439.8L657.8 440.5L662.1 443.6L666.3 445.9L670.6 448.4L674.8 448.3L679.1 447.9L683.3 449.4L687.6 446.7L691.8 448L696.1 448.7L700.3 446.3L704.6 443.2L708.8 441.6L708.8 442L704.6 443.5L700.3 446.7L696.1 449.1L691.8 448.3L687.6 447.1L683.3 449.8L679.1 448.3L674.8 448.7L670.6 448.8L666.3 446.3L662.1 443.6L657.8 440.5L653.6 439.8L649.3 436.8L645.1 435.5L640.8 435.8L636.5 430.8L632.3 429.6L628 435L623.8 423.7L619.5 419.9L615.3 420.3L611 416.4L606.8 421.1L602.5 421.8L598.3 420.3L594 417.7L589.8 414.5L585.5 410.6L581.3 403.3L577 398.4L572.8 396.6L568.5 392.3L564.3 386.6L560 383.4L555.8 375.6L551.5 365.3L547.3 357.4L543 343.7L538.8 333.2L534.5 329.3L530.3 324.1L526 318.6L521.8 314.3L517.5 310.5L513.3 302.7L509 299.6L504.8 286.2L500.5 281.3L496.3 278L492 275L487.8 271.5L483.5 268.7L479.3 259.3L475 258L470.8 251.9L466.5 251.2L462.2 247.5L458 250.6L453.7 247.1L449.5 244.2L445.2 215L441 201L436.7 204.5L432.5 194.8L428.2 193.2L424 213.8L419.7 218L415.5 237.9L411.2 234.8L407 244.6L402.7 227.5L398.5 233.9L394.2 230.3L390 228.6L385.7 217.3L381.5 227.9L377.2 233.3L373 226.2L368.7 229.3L364.5 222.1L360.2 208.8L356 212.8L351.7 210.6L347.5 201L343.2 209.6L339 187.8L334.7 183.5L330.5 183.5L326.2 152.4L322 168.3L317.7 211.5L313.5 219.3L309.2 226.7L305 235.5L300.7 230.9L296.5 225.5L292.2 223.7L287.9 221.6L283.7 221.6L279.4 221.5L275.2 215.4L270.9 207.6L266.7 209.2L262.4 204.6L258.2 202.5L253.9 197.5L249.7 198.2L245.4 195.6L241.2 197.9L236.9 190.1L232.7 189L228.4 189.3L224.2 192.9L219.9 183.9L215.7 191L211.4 193.7L207.2 192.8L202.9 190.5L198.7 182.7L194.4 180.4L190.2 176.1L185.9 172.6L181.7 176.1L177.4 173.4L173.2 171.8L168.9 167.9L164.7 167.6L160.4 160.6L156.2 161L151.9 159.8L147.7 157.1L143.4 157.1L139.2 153.2L134.9 160.6L130.7 152.4L126.4 150.5L122.2 155.5L117.9 149.7L113.6 157.8L109.4 150.8L105.1 153.9L100.9 145.8L96.6 145.8L92.4 145L88.1 144.6L83.9 144.2L79.6 147L75.4 150.8L71.1 147.7L66.9 145L62.6 148.5" fill="#286bbb" fill-opacity="0.7"></path><path class="Coal-area" stroke-linecap="round" d="M62.6 124.8L66.9 124.8L71.1 124.8L75.4 124.8L79.6 124.8L83.9 124.8L88.1 124.8L92.4 124.8L96.6 124.8L100.9 124.8L105.1 125.2L109.4 125.2L113.6 125.2L117.9 125.6L122.2 125.6L126.4 125.2L130.7 125.6L134.9 125.6L139.2 125.6L143.4 125.6L147.7 125.6L151.9 126L156.2 126L160.4 126.4L164.7 126L168.9 126.4L173.2 126.4L177.4 126L181.7 126.4L185.9 126.4L190.2 126.4L194.4 126.4L198.7 126.7L202.9 126.7L207.2 126.7L211.4 126.7L215.7 127.1L219.9 127.1L224.2 127.1L228.4 127.1L232.7 126.7L236.9 127.1L241.2 127.1L245.4 127.1L249.7 126.7L253.9 127.1L258.2 127.1L262.4 127.1L266.7 126.7L270.9 127.1L275.2 127.1L279.4 127.1L283.7 127.1L287.9 127.1L292.2 127.9L296.5 127.9L300.7 127.1L305 127.5L309.2 126.7L313.5 126.7L317.7 127.9L322 128.3L326.2 126L330.5 129.1L334.7 129.9L339 129.9L343.2 130.6L347.5 131.8L351.7 132.2L356 131.4L360.2 133L364.5 133.8L368.7 136.8L373 136.5L377.2 138L381.5 138L385.7 138.8L390 139.6L394.2 141.5L398.5 143.1L402.7 142.7L407 143.9L411.2 145L415.5 146.2L419.7 148.1L424 145.4L428.2 133L432.5 137.2L436.7 147.7L441 145.8L445.2 159L449.5 173.4L453.7 181.1L458 178.8L462.2 185.8L466.5 196.7L470.8 206.4L475 207.5L479.3 216.9L483.5 225.9L487.8 229.1L492 225.7L496.3 235.2L500.5 244.3L504.8 250L509 256.5L513.3 262.7L517.5 266.2L521.8 271.2L526 278.2L530.3 280.9L534.5 290.8L538.8 299L543 307.9L547.3 327L551.5 342.7L555.8 356.5L560 362.4L564.3 370.3L568.5 376.4L572.8 381.4L577 383.2L581.3 387L585.5 395L589.8 400.1L594 405.2L598.3 410.2L602.5 410.1L606.8 407.8L611 392.7L615.3 378.3L619.5 367.4L623.8 367.7L628 374.3L632.3 367L636.5 367L640.8 374.7L645.1 369.4L649.3 368.5L653.6 369.9L657.8 374.4L662.1 379.5L666.3 390L670.6 388.3L674.8 388L679.1 397.7L683.3 396.6L687.6 395L691.8 397.1L696.1 399.3L700.3 396.2L704.6 399.6L708.8 402.7L708.8 441.6L704.6 443.2L700.3 446.3L696.1 448.7L691.8 448L687.6 446.7L683.3 449.4L679.1 447.9L674.8 448.3L670.6 448.4L666.3 445.9L662.1 443.6L657.8 440.5L653.6 439.8L649.3 436.8L645.1 435.5L640.8 435.8L636.5 430.8L632.3 429.6L628 435L623.8 423.7L619.5 419.9L615.3 420.3L611 416.4L606.8 421.1L602.5 421.8L598.3 420.3L594 417.3L589.8 414.1L585.5 410.2L581.3 402.9L577 398L572.8 396.2L568.5 391.9L564.3 386.2L560 383L555.8 375.2L551.5 364.9L547.3 357L543 342.9L538.8 332.4L534.5 328.5L530.3 323.3L526 317.5L521.8 313.2L517.5 309.3L513.3 301.5L509 298.4L504.8 285L500.5 280.1L496.3 276.4L492 273.4L487.8 270L483.5 267.1L479.3 257.8L475 256.5L470.8 250.4L466.5 249.2L462.2 245.6L458 248.7L453.7 245.2L449.5 242.6L445.2 213.1L441 199.1L436.7 202.6L432.5 192.5L428.2 190.8L424 211.5L419.7 215.7L415.5 235.6L411.2 232.5L407 242.2L402.7 225.2L398.5 231.6L394.2 227.5L390 225.9L385.7 214.6L381.5 225.2L377.2 230.6L373 223.1L368.7 226.2L364.5 219L360.2 205.7L356 209.6L351.7 207.5L347.5 197.5L343.2 206.1L339 184.3L334.7 180L330.5 180L326.2 148.9L322 164.8L317.7 208L313.5 215.8L309.2 223.2L305 232L300.7 227.4L296.5 222L292.2 220.2L287.9 217.7L283.7 218.1L279.4 217.6L275.2 211.5L270.9 203.7L266.7 204.9L262.4 200.3L258.2 197.8L253.9 192.8L249.7 193.5L245.4 190.9L241.2 193.2L236.9 185.5L232.7 184.3L228.4 184.6L224.2 188.2L219.9 179.2L215.7 186.7L211.4 189.4L207.2 188.6L202.9 186.2L198.7 178.5L194.4 176.1L190.2 171.8L185.9 168.3L181.7 171.8L177.4 169.1L173.2 167.6L168.9 163.3L164.7 162.9L160.4 155.9L156.2 156.3L151.9 155.1L147.7 152.4L143.4 152.4L139.2 148.1L134.9 155.9L130.7 147.4L126.4 145.4L122.2 150.5L117.9 144.6L113.6 152.8L109.4 145.8L105.1 148.9L100.9 140.7L96.6 140.3L92.4 140L88.1 139.6L83.9 139.2L79.6 141.9L75.4 145.8L71.1 142.7L66.9 140L62.6 143.9" fill="#883039" fill-opacity="0.7"></path><path class="Oil-area" stroke-linecap="round" d="M62.6 124.8L66.9 124.8L71.1 124.8L75.4 124.8L79.6 124.8L83.9 124.8L88.1 124.8L92.4 124.8L96.6 124.8L100.9 124.8L105.1 124.8L109.4 124.8L113.6 124.8L117.9 124.8L122.2 124.8L126.4 124.8L130.7 124.8L134.9 124.8L139.2 124.8L143.4 124.8L147.7 124.8L151.9 124.8L156.2 124.8L160.4 124.8L164.7 124.8L168.9 124.8L173.2 124.8L177.4 124.8L181.7 124.8L185.9 124.8L190.2 124.8L194.4 124.8L198.7 124.8L202.9 124.8L207.2 124.8L211.4 124.8L215.7 124.8L219.9 124.8L224.2 124.8L228.4 124.8L232.7 124.8L236.9 124.8L241.2 124.8L245.4 124.8L249.7 124.8L253.9 124.8L258.2 124.8L262.4 124.8L266.7 124.8L270.9 124.8L275.2 124.8L279.4 124.8L283.7 124.8L287.9 124.8L292.2 124.8L296.5 124.8L300.7 124.8L305 124.8L309.2 124.8L313.5 124.8L317.7 124.8L322 124.8L326.2 124.8L330.5 124.8L334.7 124.8L339 124.8L343.2 125.2L347.5 125.2L351.7 125.2L356 125.2L360.2 125.2L364.5 125.2L368.7 125.6L373 125.6L377.2 125.6L381.5 125.6L385.7 126L390 125.6L394.2 125.6L398.5 126L402.7 126L407 126L411.2 126L415.5 126.4L419.7 126.4L424 126.4L428.2 126.7L432.5 126.4L436.7 126.4L441 126.4L445.2 127.1L449.5 127.1L453.7 127.5L458 126.7L462.2 127.9L466.5 130.6L470.8 133.4L475 131.8L479.3 134.5L483.5 136.1L487.8 137.6L492 136.4L496.3 140.4L500.5 142.3L504.8 143.1L509 144.2L513.3 144.6L517.5 146.9L521.8 147.7L526 147.7L530.3 152L534.5 151.6L538.8 150.1L543 153.6L547.3 149.3L551.5 150.9L555.8 152.4L560 151.6L564.3 152.8L568.5 147L572.8 146.6L577 155.2L581.3 158.2L585.5 157.5L589.8 152.8L594 147.7L598.3 151.2L602.5 152L606.8 152.8L611 159.4L615.3 150.8L619.5 154L623.8 158.7L628 139.6L632.3 143.1L636.5 142.3L640.8 136.1L645.1 141.1L649.3 145.4L653.6 140.7L657.8 151.6L662.1 151.6L666.3 157.1L670.6 165.9L674.8 176.1L679.1 180.8L683.3 179.6L687.6 191.3L691.8 197.8L696.1 197.9L700.3 205.7L704.6 209.3L708.8 217L708.8 402.7L704.6 399.6L700.3 396.2L696.1 399.3L691.8 397.1L687.6 395L683.3 396.6L679.1 397.7L674.8 388L670.6 388.3L666.3 390L662.1 379.5L657.8 374.4L653.6 369.9L649.3 368.5L645.1 369.4L640.8 374.7L636.5 367L632.3 367L628 374.3L623.8 367.7L619.5 367.4L615.3 378.3L611 392.7L606.8 407.8L602.5 410.1L598.3 410.2L594 405.2L589.8 400.1L585.5 395L581.3 387L577 383.2L572.8 381.4L568.5 376.4L564.3 370.3L560 362.4L555.8 356.5L551.5 342.7L547.3 327L543 307.9L538.8 299L534.5 290.8L530.3 280.9L526 278.2L521.8 271.2L517.5 266.2L513.3 262.7L509 256.5L504.8 250L500.5 244.3L496.3 235.2L492 225.7L487.8 229.1L483.5 225.9L479.3 216.9L475 207.5L470.8 206.4L466.5 196.7L462.2 185.8L458 178.8L453.7 181.1L449.5 173.4L445.2 159L441 145.8L436.7 147.7L432.5 137.2L428.2 133L424 145.4L419.7 148.1L415.5 146.2L411.2 145L407 143.9L402.7 142.7L398.5 143.1L394.2 141.5L390 139.6L385.7 138.8L381.5 138L377.2 138L373 136.5L368.7 136.8L364.5 133.8L360.2 133L356 131.4L351.7 132.2L347.5 131.8L343.2 130.6L339 129.9L334.7 129.9L330.5 129.1L326.2 126L322 128.3L317.7 127.9L313.5 126.7L309.2 126.7L305 127.5L300.7 127.1L296.5 127.9L292.2 127.9L287.9 127.1L283.7 127.1L279.4 127.1L275.2 127.1L270.9 127.1L266.7 126.7L262.4 127.1L258.2 127.1L253.9 127.1L249.7 126.7L245.4 127.1L241.2 127.1L236.9 127.1L232.7 126.7L228.4 127.1L224.2 127.1L219.9 127.1L215.7 127.1L211.4 126.7L207.2 126.7L202.9 126.7L198.7 126.7L194.4 126.4L190.2 126.4L185.9 126.4L181.7 126.4L177.4 126L173.2 126.4L168.9 126.4L164.7 126L160.4 126.4L156.2 126L151.9 126L147.7 125.6L143.4 125.6L139.2 125.6L134.9 125.6L130.7 125.6L126.4 125.2L122.2 125.6L117.9 125.6L113.6 125.2L109.4 125.2L105.1 125.2L100.9 124.8L96.6 124.8L92.4 124.8L88.1 124.8L83.9 124.8L79.6 124.8L75.4 124.8L71.1 124.8L66.9 124.8L62.6 124.8" fill="#c15065" fill-opacity="0.7"></path><path class="Natural-Gas-area" stroke-linecap="round" d="M62.6 124.8L66.9 124.8L71.1 124.8L75.4 124.8L79.6 124.8L83.9 124.8L88.1 124.8L92.4 124.8L96.6 124.8L100.9 124.8L105.1 124.8L109.4 124.8L113.6 124.8L117.9 124.8L122.2 124.8L126.4 124.8L130.7 124.8L134.9 124.8L139.2 124.8L143.4 124.8L147.7 124.8L151.9 124.8L156.2 124.8L160.4 124.8L164.7 124.8L168.9 124.8L173.2 124.8L177.4 124.8L181.7 124.8L185.9 124.8L190.2 124.8L194.4 124.8L198.7 124.8L202.9 124.8L207.2 124.8L211.4 124.8L215.7 124.8L219.9 124.8L224.2 124.8L228.4 124.8L232.7 124.8L236.9 124.8L241.2 124.8L245.4 124.8L249.7 124.8L253.9 124.8L258.2 124.8L262.4 124.8L266.7 124.8L270.9 124.8L275.2 124.8L279.4 124.8L283.7 124.8L287.9 124.8L292.2 124.8L296.5 124.8L300.7 124.8L305 124.8L309.2 124.8L313.5 124.8L317.7 124.8L322 124.8L326.2 124.8L330.5 124.8L334.7 124.8L339 124.8L343.2 125.2L347.5 125.2L351.7 125.2L356 125.2L360.2 125.2L364.5 125.2L368.7 125.6L373 125.6L377.2 125.6L381.5 125.6L385.7 126L390 125.6L394.2 125.6L398.5 126L402.7 126L407 126L411.2 126L415.5 126.4L419.7 126.4L424 126.4L428.2 126.7L432.5 126.4L436.7 126.4L441 126.4L445.2 127.1L449.5 127.1L453.7 127.5L458 126.7L462.2 127.9L466.5 130.6L470.8 133.4L475 131.8L479.3 134.5L483.5 136.1L487.8 137.6L492 136.4L496.3 140.4L500.5 142.3L504.8 143.1L509 144.2L513.3 144.6L517.5 146.9L521.8 147.7L526 147.7L530.3 152L534.5 151.6L538.8 150.1L543 153.6L547.3 149.3L551.5 150.9L555.8 152.4L560 151.6L564.3 152.8L568.5 147L572.8 146.6L577 155.2L581.3 158.2L585.5 157.5L589.8 152.8L594 147.7L598.3 151.2L602.5 152L606.8 152.8L611 159.4L615.3 150.8L619.5 154L623.8 158.7L628 139.6L632.3 143.1L636.5 142.3L640.8 136.1L645.1 141.1L649.3 145.4L653.6 140.7L657.8 151.6L662.1 150.1L666.3 145L670.6 134.5L674.8 142.3L679.1 145L683.3 138.4L687.6 150.5L691.8 147.7L696.1 142.3L700.3 150.8L704.6 152.8L708.8 154L708.8 217L704.6 209.3L700.3 205.7L696.1 197.9L691.8 197.8L687.6 191.3L683.3 179.6L679.1 180.8L674.8 176.1L670.6 165.9L666.3 157.1L662.1 151.6L657.8 151.6L653.6 140.7L649.3 145.4L645.1 141.1L640.8 136.1L636.5 142.3L632.3 143.1L628 139.6L623.8 158.7L619.5 154L615.3 150.8L611 159.4L606.8 152.8L602.5 152L598.3 151.2L594 147.7L589.8 152.8L585.5 157.5L581.3 158.2L577 155.2L572.8 146.6L568.5 147L564.3 152.8L560 151.6L555.8 152.4L551.5 150.9L547.3 149.3L543 153.6L538.8 150.1L534.5 151.6L530.3 152L526 147.7L521.8 147.7L517.5 146.9L513.3 144.6L509 144.2L504.8 143.1L500.5 142.3L496.3 140.4L492 136.4L487.8 137.6L483.5 136.1L479.3 134.5L475 131.8L470.8 133.4L466.5 130.6L462.2 127.9L458 126.7L453.7 127.5L449.5 127.1L445.2 127.1L441 126.4L436.7 126.4L432.5 126.4L428.2 126.7L424 126.4L419.7 126.4L415.5 126.4L411.2 126L407 126L402.7 126L398.5 126L394.2 125.6L390 125.6L385.7 126L381.5 125.6L377.2 125.6L373 125.6L368.7 125.6L364.5 125.2L360.2 125.2L356 125.2L351.7 125.2L347.5 125.2L343.2 125.2L339 124.8L334.7 124.8L330.5 124.8L326.2 124.8L322 124.8L317.7 124.8L313.5 124.8L309.2 124.8L305 124.8L300.7 124.8L296.5 124.8L292.2 124.8L287.9 124.8L283.7 124.8L279.4 124.8L275.2 124.8L270.9 124.8L266.7 124.8L262.4 124.8L258.2 124.8L253.9 124.8L249.7 124.8L245.4 124.8L241.2 124.8L236.9 124.8L232.7 124.8L228.4 124.8L224.2 124.8L219.9 124.8L215.7 124.8L211.4 124.8L207.2 124.8L202.9 124.8L198.7 124.8L194.4 124.8L190.2 124.8L185.9 124.8L181.7 124.8L177.4 124.8L173.2 124.8L168.9 124.8L164.7 124.8L160.4 124.8L156.2 124.8L151.9 124.8L147.7 124.8L143.4 124.8L139.2 124.8L134.9 124.8L130.7 124.8L126.4 124.8L122.2 124.8L117.9 124.8L113.6 124.8L109.4 124.8L105.1 124.8L100.9 124.8L96.6 124.8L92.4 124.8L88.1 124.8L83.9 124.8L79.6 124.8L75.4 124.8L71.1 124.8L66.9 124.8L62.6 124.8" fill="#6d3e91" fill-opacity="0.7"></path><path class="Primary-electricity-area" stroke-linecap="round" d="M62.6 124.8L66.9 124.8L71.1 124.8L75.4 124.8L79.6 124.8L83.9 124.8L88.1 124.8L92.4 124.8L96.6 124.8L100.9 124.8L105.1 124.8L109.4 124.8L113.6 124.8L117.9 124.8L122.2 124.8L126.4 124.8L130.7 124.8L134.9 124.8L139.2 124.8L143.4 124.8L147.7 124.8L151.9 124.8L156.2 124.8L160.4 124.8L164.7 124.8L168.9 124.8L173.2 124.8L177.4 124.8L181.7 124.8L185.9 124.8L190.2 124.8L194.4 124.8L198.7 124.8L202.9 124.8L207.2 124.8L211.4 124.8L215.7 124.8L219.9 124.8L224.2 124.8L228.4 124.8L232.7 124.8L236.9 124.8L241.2 124.8L245.4 124.8L249.7 124.8L253.9 124.8L258.2 124.8L262.4 124.8L266.7 124.8L270.9 124.8L275.2 124.8L279.4 124.8L283.7 124.8L287.9 124.8L292.2 124.8L296.5 124.8L300.7 124.8L305 124.8L309.2 124.8L313.5 124.8L317.7 124.8L322 124.8L326.2 124.8L330.5 124.8L334.7 124.8L339 124.8L343.2 124.8L347.5 124.8L351.7 124.8L356 124.8L360.2 124.8L364.5 124.8L368.7 124.8L373 124.8L377.2 124.8L381.5 124.8L385.7 124.8L390 124.8L394.2 124.8L398.5 124.8L402.7 124.8L407 124.8L411.2 124.8L415.5 124.8L419.7 124.8L424 124.8L428.2 124.8L432.5 124.8L436.7 124.8L441 124.8L445.2 124.8L449.5 124.8L453.7 124.8L458 124.8L462.2 124.8L466.5 124.8L470.8 124.8L475 124.8L479.3 124.8L483.5 124.8L487.8 124.8L492 124.8L496.3 124.8L500.5 124.8L504.8 124.8L509 124.8L513.3 124.8L517.5 124.8L521.8 124.8L526 124.8L530.3 124.8L534.5 124.8L538.8 124.8L543 124.8L547.3 124.8L551.5 124.8L555.8 124.8L560 124.8L564.3 124.8L568.5 124.8L572.8 124.8L577 124.8L581.3 124.8L585.5 124.8L589.8 124.8L594 124.8L598.3 124.8L602.5 124.8L606.8 124.8L611 124.8L615.3 124.8L619.5 124.8L623.8 124.8L628 124.8L632.3 124.8L636.5 124.8L640.8 124.8L645.1 124.8L649.3 124.8L653.6 124.8L657.8 124.8L662.1 124.8L666.3 124.8L670.6 124.8L674.8 124.8L679.1 124.8L683.3 124.8L687.6 124.8L691.8 124.8L696.1 124.8L700.3 124.8L704.6 124.8L708.8 124.8L708.8 154L704.6 152.8L700.3 150.8L696.1 142.3L691.8 147.7L687.6 150.5L683.3 138.4L679.1 145L674.8 142.3L670.6 134.5L666.3 145L662.1 150.1L657.8 151.6L653.6 140.7L649.3 145.4L645.1 141.1L640.8 136.1L636.5 142.3L632.3 143.1L628 139.6L623.8 158.7L619.5 154L615.3 150.8L611 159.4L606.8 152.8L602.5 152L598.3 151.2L594 147.7L589.8 152.8L585.5 157.5L581.3 158.2L577 155.2L572.8 146.6L568.5 147L564.3 152.8L560 151.6L555.8 152.4L551.5 150.9L547.3 149.3L543 153.6L538.8 150.1L534.5 151.6L530.3 152L526 147.7L521.8 147.7L517.5 146.9L513.3 144.6L509 144.2L504.8 143.1L500.5 142.3L496.3 140.4L492 136.4L487.8 137.6L483.5 136.1L479.3 134.5L475 131.8L470.8 133.4L466.5 130.6L462.2 127.9L458 126.7L453.7 127.5L449.5 127.1L445.2 127.1L441 126.4L436.7 126.4L432.5 126.4L428.2 126.7L424 126.4L419.7 126.4L415.5 126.4L411.2 126L407 126L402.7 126L398.5 126L394.2 125.6L390 125.6L385.7 126L381.5 125.6L377.2 125.6L373 125.6L368.7 125.6L364.5 125.2L360.2 125.2L356 125.2L351.7 125.2L347.5 125.2L343.2 125.2L339 124.8L334.7 124.8L330.5 124.8L326.2 124.8L322 124.8L317.7 124.8L313.5 124.8L309.2 124.8L305 124.8L300.7 124.8L296.5 124.8L292.2 124.8L287.9 124.8L283.7 124.8L279.4 124.8L275.2 124.8L270.9 124.8L266.7 124.8L262.4 124.8L258.2 124.8L253.9 124.8L249.7 124.8L245.4 124.8L241.2 124.8L236.9 124.8L232.7 124.8L228.4 124.8L224.2 124.8L219.9 124.8L215.7 124.8L211.4 124.8L207.2 124.8L202.9 124.8L198.7 124.8L194.4 124.8L190.2 124.8L185.9 124.8L181.7 124.8L177.4 124.8L173.2 124.8L168.9 124.8L164.7 124.8L160.4 124.8L156.2 124.8L151.9 124.8L147.7 124.8L143.4 124.8L139.2 124.8L134.9 124.8L130.7 124.8L126.4 124.8L122.2 124.8L117.9 124.8L113.6 124.8L109.4 124.8L105.1 124.8L100.9 124.8L96.6 124.8L92.4 124.8L88.1 124.8L83.9 124.8L79.6 124.8L75.4 124.8L71.1 124.8L66.9 124.8L62.6 124.8" fill="#58ac8c" fill-opacity="0.7"></path><path class="Human-muscle-border" stroke-linecap="round" d="M62.6 440.4L66.9 439.7L71.1 439.4L75.4 440.1L79.6 439.3L83.9 438.6L88.1 438.9L92.4 439L96.6 439L100.9 439L105.1 441L109.4 440.1L113.6 441.3L117.9 439.7L122.2 440.9L126.4 439.7L130.7 440.5L134.9 442.4L139.2 440.9L143.4 441.6L147.7 441.3L151.9 442.1L156.2 442.1L160.4 442.1L164.7 443.2L168.9 442.9L173.2 444L177.4 443.6L181.7 444L185.9 442.8L190.2 444L194.4 444.8L198.7 445.2L202.9 446.3L207.2 446.3L211.4 446.7L215.7 445.9L219.9 444.4L224.2 446.7L228.4 445.6L232.7 445.5L236.9 445.9L241.2 447.5L245.4 447.1L249.7 447.6L253.9 447.5L258.2 448.7L262.4 449L266.7 449.8L270.9 449.1L275.2 450.6L279.4 451.8L283.7 451.8L287.9 451.8L292.2 452.1L296.5 452.6L300.7 454.1L305 454.9L309.2 453.7L313.5 452.9L317.7 452.2L322 445.9L326.2 444.3L330.5 449.8L334.7 450.6L339 446.7L343.2 450.2L347.5 448.3L351.7 450.3L356 450.9L360.2 449.8L364.5 452.5L368.7 454.6L373 453.8L377.2 455.3L381.5 453.7L385.7 451.4L390 453.7L394.2 453.7L398.5 454.2L402.7 452.9L407 456.4L411.2 454.5L415.5 455.7L419.7 451.8L424 451.8L428.2 449.9L432.5 451.4L436.7 454.9L441 452.6L445.2 454.5L449.5 458L453.7 453.8L458 454.9L462.2 450.7L466.5 451.4L470.8 453.7L475 453.4L479.3 453.7L483.5 456.8L487.8 456L492 456.9L496.3 458.8L500.5 458.3L504.8 458.4L509 461.9L513.3 461.2L517.5 460.8L521.8 463.5L526 460.4L530.3 462.3L534.5 461.5L538.8 462.3L543 463.8L547.3 468L551.5 468.5L555.8 470.4L560 472.4L564.3 472L568.5 473.6L572.8 474.3L577 475.1L581.3 477.5L585.5 479.8L589.8 480.6L594 481.4L598.3 482.5L602.5 482.9L606.8 482.1L611 480.6L615.3 480.9L619.5 480.6L623.8 481.7L628 485.2L632.3 485.6L636.5 486.4L640.8 487.9L645.1 487.2L649.3 487.2L653.6 488.7L657.8 488.7L662.1 490.7L666.3 490.7L670.6 491.5L674.8 491.8L679.1 491.4L683.3 492.2L687.6 491.4L691.8 491.8L696.1 492.2L700.3 491.4L704.6 491.8L708.8 491" stroke="rgb(126, 0, 59)" stroke-opacity="0.7" stroke-width="0.5" fill="none"></path><path class="Animal-muscle-border" stroke-linecap="round" d="M62.6 371.9L66.9 370.5L71.1 369.9L75.4 371.7L79.6 369.7L83.9 368.6L88.1 369.2L92.4 369.4L96.6 369.5L100.9 369.4L105.1 373L109.4 371.7L113.6 374L117.9 370.9L122.2 373.2L126.4 371.3L130.7 372.9L134.9 376.6L139.2 373.6L143.4 375.4L147.7 374.8L151.9 376.5L156.2 376.7L160.4 377.1L164.7 379.5L168.9 379.6L173.2 381.8L177.4 381.8L181.7 383L185.9 381L190.2 383.7L194.4 385.3L198.7 386.5L202.9 389.2L207.2 389.6L211.4 390.2L215.7 389.1L219.9 386.5L224.2 390.6L228.4 388.9L232.7 388.7L236.9 389.6L241.2 392.7L245.4 392.3L249.7 393.2L253.9 393.1L258.2 395.9L262.4 396.5L266.7 398.5L270.9 397.3L275.2 400.5L279.4 402.9L283.7 403.2L287.9 403.2L292.2 404.2L296.5 405.1L300.7 407.8L305 409.5L309.2 407.1L313.5 405.5L317.7 404.3L322 393.1L326.2 390.6L330.5 400.1L334.7 401.6L339 394.9L343.2 402L347.5 399.3L351.7 403.3L356 405L360.2 403.6L364.5 408.5L368.7 412.6L373 411.8L377.2 414.8L381.5 412.8L385.7 409.4L390 413.7L394.2 414L398.5 415.3L402.7 414L407 420.3L411.2 417.6L415.5 420.3L419.7 415.3L424 415.6L428.2 413.4L432.5 416L436.7 421.8L441 419.1L445.2 422.6L449.5 428.5L453.7 422.3L458 423.9L462.2 419.6L466.5 420.7L470.8 422.6L475 423.5L479.3 424.2L483.5 428.5L487.8 429.1L492 431L496.3 433.5L500.5 434.2L504.8 435.8L509 441L513.3 441L517.5 441.7L521.8 445.2L526 443.3L530.3 446L534.5 446.7L538.8 448.3L543 451L547.3 456.7L551.5 457.9L555.8 460.7L560 463.4L564.3 463.5L568.5 465.8L572.8 466.9L577 468.1L581.3 470.9L585.5 473.6L589.8 474.7L594 475.9L598.3 477.4L602.5 477.8L606.8 477.1L611 475.5L615.3 476.3L619.5 476.3L623.8 477.8L628 481.7L632.3 482.5L636.5 483.7L640.8 485.2L645.1 484.8L649.3 484.9L653.6 486.8L657.8 487.2L662.1 489.1L666.3 489.5L670.6 490.3L674.8 491L679.1 490.7L683.3 491.4L687.6 490.7L691.8 491.1L696.1 491.4L700.3 491L704.6 491.4L708.8 490.6" stroke="rgb(148, 44, 6)" stroke-opacity="0.7" stroke-width="0.5" fill="none"></path><path class="Fuelwood-border" stroke-linecap="round" d="M62.6 148.5L66.9 145L71.1 147.7L75.4 150.8L79.6 147L83.9 144.2L88.1 144.6L92.4 145L96.6 145.8L100.9 145.8L105.1 153.9L109.4 150.8L113.6 157.8L117.9 149.7L122.2 155.5L126.4 150.5L130.7 152.4L134.9 160.6L139.2 153.2L143.4 157.1L147.7 157.1L151.9 159.8L156.2 161L160.4 160.6L164.7 167.6L168.9 167.9L173.2 171.8L177.4 173.4L181.7 176.1L185.9 172.6L190.2 176.1L194.4 180.4L198.7 182.7L202.9 190.5L207.2 192.8L211.4 193.7L215.7 191L219.9 183.9L224.2 192.9L228.4 189.3L232.7 189L236.9 190.1L241.2 197.9L245.4 195.6L249.7 198.2L253.9 197.5L258.2 202.5L262.4 204.6L266.7 209.2L270.9 207.6L275.2 215.4L279.4 221.5L283.7 221.6L287.9 221.6L292.2 223.7L296.5 225.5L300.7 230.9L305 235.5L309.2 226.7L313.5 219.3L317.7 211.5L322 168.3L326.2 152.4L330.5 183.5L334.7 183.5L339 187.8L343.2 209.6L347.5 201L351.7 210.6L356 212.8L360.2 208.8L364.5 222.1L368.7 229.3L373 226.2L377.2 233.3L381.5 227.9L385.7 217.3L390 228.6L394.2 230.3L398.5 233.9L402.7 227.5L407 244.6L411.2 234.8L415.5 237.9L419.7 218L424 213.8L428.2 193.2L432.5 194.8L436.7 204.5L441 201L445.2 215L449.5 244.2L453.7 247.1L458 250.6L462.2 247.5L466.5 251.2L470.8 251.9L475 258L479.3 259.3L483.5 268.7L487.8 271.5L492 275L496.3 278L500.5 281.3L504.8 286.2L509 299.6L513.3 302.7L517.5 310.5L521.8 314.3L526 318.6L530.3 324.1L534.5 329.3L538.8 333.2L543 343.7L547.3 357.4L551.5 365.3L555.8 375.6L560 383.4L564.3 386.6L568.5 392.3L572.8 396.6L577 398.4L581.3 403.3L585.5 410.6L589.8 414.5L594 417.7L598.3 420.3L602.5 421.8L606.8 421.1L611 416.4L615.3 420.3L619.5 419.9L623.8 423.7L628 435L632.3 429.6L636.5 430.8L640.8 435.8L645.1 435.5L649.3 436.8L653.6 439.8L657.8 440.5L662.1 443.6L666.3 446.3L670.6 448.8L674.8 448.7L679.1 448.3L683.3 449.8L687.6 447.1L691.8 448.3L696.1 449.1L700.3 446.7L704.6 443.5L708.8 442" stroke="rgb(157, 119, 75)" stroke-opacity="0.7" stroke-width="0.5" fill="none"></path><path class="Water-__0026-Wind-border" stroke-linecap="round" d="M62.6 143.9L66.9 140L71.1 142.7L75.4 145.8L79.6 141.9L83.9 139.2L88.1 139.6L92.4 140L96.6 140.3L100.9 140.7L105.1 148.9L109.4 145.8L113.6 152.8L117.9 144.6L122.2 150.5L126.4 145.4L130.7 147.4L134.9 155.9L139.2 148.1L143.4 152.4L147.7 152.4L151.9 155.1L156.2 156.3L160.4 155.9L164.7 162.9L168.9 163.3L173.2 167.6L177.4 169.1L181.7 171.8L185.9 168.3L190.2 171.8L194.4 176.1L198.7 178.5L202.9 186.2L207.2 188.6L211.4 189.4L215.7 186.7L219.9 179.2L224.2 188.2L228.4 184.6L232.7 184.3L236.9 185.5L241.2 193.2L245.4 190.9L249.7 193.5L253.9 192.8L258.2 197.8L262.4 200.3L266.7 204.9L270.9 203.7L275.2 211.5L279.4 217.6L283.7 218.1L287.9 217.7L292.2 220.2L296.5 222L300.7 227.4L305 232L309.2 223.2L313.5 215.8L317.7 208L322 164.8L326.2 148.9L330.5 180L334.7 180L339 184.3L343.2 206.1L347.5 197.5L351.7 207.5L356 209.6L360.2 205.7L364.5 219L368.7 226.2L373 223.1L377.2 230.6L381.5 225.2L385.7 214.6L390 225.9L394.2 227.5L398.5 231.6L402.7 225.2L407 242.2L411.2 232.5L415.5 235.6L419.7 215.7L424 211.5L428.2 190.8L432.5 192.5L436.7 202.6L441 199.1L445.2 213.1L449.5 242.6L453.7 245.2L458 248.7L462.2 245.6L466.5 249.2L470.8 250.4L475 256.5L479.3 257.8L483.5 267.1L487.8 270L492 273.4L496.3 276.4L500.5 280.1L504.8 285L509 298.4L513.3 301.5L517.5 309.3L521.8 313.2L526 317.5L530.3 323.3L534.5 328.5L538.8 332.4L543 342.9L547.3 357L551.5 364.9L555.8 375.2L560 383L564.3 386.2L568.5 391.9L572.8 396.2L577 398L581.3 402.9L585.5 410.2L589.8 414.1L594 417.3L598.3 420.3L602.5 421.8L606.8 421.1L611 416.4L615.3 420.3L619.5 419.9L623.8 423.7L628 435L632.3 429.6L636.5 430.8L640.8 435.8L645.1 435.5L649.3 436.8L653.6 439.8L657.8 440.5L662.1 443.6L666.3 445.9L670.6 448.4L674.8 448.3L679.1 447.9L683.3 449.4L687.6 446.7L691.8 448L696.1 448.7L700.3 446.3L704.6 443.2L708.8 441.6" stroke="rgb(33, 90, 156)" stroke-opacity="0.7" stroke-width="0.5" fill="none"></path><path class="Coal-border" stroke-linecap="round" d="M62.6 124.8L66.9 124.8L71.1 124.8L75.4 124.8L79.6 124.8L83.9 124.8L88.1 124.8L92.4 124.8L96.6 124.8L100.9 124.8L105.1 125.2L109.4 125.2L113.6 125.2L117.9 125.6L122.2 125.6L126.4 125.2L130.7 125.6L134.9 125.6L139.2 125.6L143.4 125.6L147.7 125.6L151.9 126L156.2 126L160.4 126.4L164.7 126L168.9 126.4L173.2 126.4L177.4 126L181.7 126.4L185.9 126.4L190.2 126.4L194.4 126.4L198.7 126.7L202.9 126.7L207.2 126.7L211.4 126.7L215.7 127.1L219.9 127.1L224.2 127.1L228.4 127.1L232.7 126.7L236.9 127.1L241.2 127.1L245.4 127.1L249.7 126.7L253.9 127.1L258.2 127.1L262.4 127.1L266.7 126.7L270.9 127.1L275.2 127.1L279.4 127.1L283.7 127.1L287.9 127.1L292.2 127.9L296.5 127.9L300.7 127.1L305 127.5L309.2 126.7L313.5 126.7L317.7 127.9L322 128.3L326.2 126L330.5 129.1L334.7 129.9L339 129.9L343.2 130.6L347.5 131.8L351.7 132.2L356 131.4L360.2 133L364.5 133.8L368.7 136.8L373 136.5L377.2 138L381.5 138L385.7 138.8L390 139.6L394.2 141.5L398.5 143.1L402.7 142.7L407 143.9L411.2 145L415.5 146.2L419.7 148.1L424 145.4L428.2 133L432.5 137.2L436.7 147.7L441 145.8L445.2 159L449.5 173.4L453.7 181.1L458 178.8L462.2 185.8L466.5 196.7L470.8 206.4L475 207.5L479.3 216.9L483.5 225.9L487.8 229.1L492 225.7L496.3 235.2L500.5 244.3L504.8 250L509 256.5L513.3 262.7L517.5 266.2L521.8 271.2L526 278.2L530.3 280.9L534.5 290.8L538.8 299L543 307.9L547.3 327L551.5 342.7L555.8 356.5L560 362.4L564.3 370.3L568.5 376.4L572.8 381.4L577 383.2L581.3 387L585.5 395L589.8 400.1L594 405.2L598.3 410.2L602.5 410.1L606.8 407.8L611 392.7L615.3 378.3L619.5 367.4L623.8 367.7L628 374.3L632.3 367L636.5 367L640.8 374.7L645.1 369.4L649.3 368.5L653.6 369.9L657.8 374.4L662.1 379.5L666.3 390L670.6 388.3L674.8 388L679.1 397.7L683.3 396.6L687.6 395L691.8 397.1L696.1 399.3L700.3 396.2L704.6 399.6L708.8 402.7" stroke="rgb(114, 40, 48)" stroke-opacity="0.7" stroke-width="0.5" fill="none"></path><path class="Oil-border" stroke-linecap="round" d="M62.6 124.8L66.9 124.8L71.1 124.8L75.4 124.8L79.6 124.8L83.9 124.8L88.1 124.8L92.4 124.8L96.6 124.8L100.9 124.8L105.1 124.8L109.4 124.8L113.6 124.8L117.9 124.8L122.2 124.8L126.4 124.8L130.7 124.8L134.9 124.8L139.2 124.8L143.4 124.8L147.7 124.8L151.9 124.8L156.2 124.8L160.4 124.8L164.7 124.8L168.9 124.8L173.2 124.8L177.4 124.8L181.7 124.8L185.9 124.8L190.2 124.8L194.4 124.8L198.7 124.8L202.9 124.8L207.2 124.8L211.4 124.8L215.7 124.8L219.9 124.8L224.2 124.8L228.4 124.8L232.7 124.8L236.9 124.8L241.2 124.8L245.4 124.8L249.7 124.8L253.9 124.8L258.2 124.8L262.4 124.8L266.7 124.8L270.9 124.8L275.2 124.8L279.4 124.8L283.7 124.8L287.9 124.8L292.2 124.8L296.5 124.8L300.7 124.8L305 124.8L309.2 124.8L313.5 124.8L317.7 124.8L322 124.8L326.2 124.8L330.5 124.8L334.7 124.8L339 124.8L343.2 125.2L347.5 125.2L351.7 125.2L356 125.2L360.2 125.2L364.5 125.2L368.7 125.6L373 125.6L377.2 125.6L381.5 125.6L385.7 126L390 125.6L394.2 125.6L398.5 126L402.7 126L407 126L411.2 126L415.5 126.4L419.7 126.4L424 126.4L428.2 126.7L432.5 126.4L436.7 126.4L441 126.4L445.2 127.1L449.5 127.1L453.7 127.5L458 126.7L462.2 127.9L466.5 130.6L470.8 133.4L475 131.8L479.3 134.5L483.5 136.1L487.8 137.6L492 136.4L496.3 140.4L500.5 142.3L504.8 143.1L509 144.2L513.3 144.6L517.5 146.9L521.8 147.7L526 147.7L530.3 152L534.5 151.6L538.8 150.1L543 153.6L547.3 149.3L551.5 150.9L555.8 152.4L560 151.6L564.3 152.8L568.5 147L572.8 146.6L577 155.2L581.3 158.2L585.5 157.5L589.8 152.8L594 147.7L598.3 151.2L602.5 152L606.8 152.8L611 159.4L615.3 150.8L619.5 154L623.8 158.7L628 139.6L632.3 143.1L636.5 142.3L640.8 136.1L645.1 141.1L649.3 145.4L653.6 140.7L657.8 151.6L662.1 151.6L666.3 157.1L670.6 165.9L674.8 176.1L679.1 180.8L683.3 179.6L687.6 191.3L691.8 197.8L696.1 197.9L700.3 205.7L704.6 209.3L708.8 217" stroke="rgb(161, 67, 85)" stroke-opacity="0.7" stroke-width="0.5" fill="none"></path><path class="Natural-Gas-border" stroke-linecap="round" d="M62.6 124.8L66.9 124.8L71.1 124.8L75.4 124.8L79.6 124.8L83.9 124.8L88.1 124.8L92.4 124.8L96.6 124.8L100.9 124.8L105.1 124.8L109.4 124.8L113.6 124.8L117.9 124.8L122.2 124.8L126.4 124.8L130.7 124.8L134.9 124.8L139.2 124.8L143.4 124.8L147.7 124.8L151.9 124.8L156.2 124.8L160.4 124.8L164.7 124.8L168.9 124.8L173.2 124.8L177.4 124.8L181.7 124.8L185.9 124.8L190.2 124.8L194.4 124.8L198.7 124.8L202.9 124.8L207.2 124.8L211.4 124.8L215.7 124.8L219.9 124.8L224.2 124.8L228.4 124.8L232.7 124.8L236.9 124.8L241.2 124.8L245.4 124.8L249.7 124.8L253.9 124.8L258.2 124.8L262.4 124.8L266.7 124.8L270.9 124.8L275.2 124.8L279.4 124.8L283.7 124.8L287.9 124.8L292.2 124.8L296.5 124.8L300.7 124.8L305 124.8L309.2 124.8L313.5 124.8L317.7 124.8L322 124.8L326.2 124.8L330.5 124.8L334.7 124.8L339 124.8L343.2 125.2L347.5 125.2L351.7 125.2L356 125.2L360.2 125.2L364.5 125.2L368.7 125.6L373 125.6L377.2 125.6L381.5 125.6L385.7 126L390 125.6L394.2 125.6L398.5 126L402.7 126L407 126L411.2 126L415.5 126.4L419.7 126.4L424 126.4L428.2 126.7L432.5 126.4L436.7 126.4L441 126.4L445.2 127.1L449.5 127.1L453.7 127.5L458 126.7L462.2 127.9L466.5 130.6L470.8 133.4L475 131.8L479.3 134.5L483.5 136.1L487.8 137.6L492 136.4L496.3 140.4L500.5 142.3L504.8 143.1L509 144.2L513.3 144.6L517.5 146.9L521.8 147.7L526 147.7L530.3 152L534.5 151.6L538.8 150.1L543 153.6L547.3 149.3L551.5 150.9L555.8 152.4L560 151.6L564.3 152.8L568.5 147L572.8 146.6L577 155.2L581.3 158.2L585.5 157.5L589.8 152.8L594 147.7L598.3 151.2L602.5 152L606.8 152.8L611 159.4L615.3 150.8L619.5 154L623.8 158.7L628 139.6L632.3 143.1L636.5 142.3L640.8 136.1L645.1 141.1L649.3 145.4L653.6 140.7L657.8 151.6L662.1 150.1L666.3 145L670.6 134.5L674.8 142.3L679.1 145L683.3 138.4L687.6 150.5L691.8 147.7L696.1 142.3L700.3 150.8L704.6 152.8L708.8 154" stroke="rgb(91, 52, 121)" stroke-opacity="0.7" stroke-width="0.5" fill="none"></path><path class="Primary-electricity-border" stroke-linecap="round" d="M62.6 124.8L66.9 124.8L71.1 124.8L75.4 124.8L79.6 124.8L83.9 124.8L88.1 124.8L92.4 124.8L96.6 124.8L100.9 124.8L105.1 124.8L109.4 124.8L113.6 124.8L117.9 124.8L122.2 124.8L126.4 124.8L130.7 124.8L134.9 124.8L139.2 124.8L143.4 124.8L147.7 124.8L151.9 124.8L156.2 124.8L160.4 124.8L164.7 124.8L168.9 124.8L173.2 124.8L177.4 124.8L181.7 124.8L185.9 124.8L190.2 124.8L194.4 124.8L198.7 124.8L202.9 124.8L207.2 124.8L211.4 124.8L215.7 124.8L219.9 124.8L224.2 124.8L228.4 124.8L232.7 124.8L236.9 124.8L241.2 124.8L245.4 124.8L249.7 124.8L253.9 124.8L258.2 124.8L262.4 124.8L266.7 124.8L270.9 124.8L275.2 124.8L279.4 124.8L283.7 124.8L287.9 124.8L292.2 124.8L296.5 124.8L300.7 124.8L305 124.8L309.2 124.8L313.5 124.8L317.7 124.8L322 124.8L326.2 124.8L330.5 124.8L334.7 124.8L339 124.8L343.2 124.8L347.5 124.8L351.7 124.8L356 124.8L360.2 124.8L364.5 124.8L368.7 124.8L373 124.8L377.2 124.8L381.5 124.8L385.7 124.8L390 124.8L394.2 124.8L398.5 124.8L402.7 124.8L407 124.8L411.2 124.8L415.5 124.8L419.7 124.8L424 124.8L428.2 124.8L432.5 124.8L436.7 124.8L441 124.8L445.2 124.8L449.5 124.8L453.7 124.8L458 124.8L462.2 124.8L466.5 124.8L470.8 124.8L475 124.8L479.3 124.8L483.5 124.8L487.8 124.8L492 124.8L496.3 124.8L500.5 124.8L504.8 124.8L509 124.8L513.3 124.8L517.5 124.8L521.8 124.8L526 124.8L530.3 124.8L534.5 124.8L538.8 124.8L543 124.8L547.3 124.8L551.5 124.8L555.8 124.8L560 124.8L564.3 124.8L568.5 124.8L572.8 124.8L577 124.8L581.3 124.8L585.5 124.8L589.8 124.8L594 124.8L598.3 124.8L602.5 124.8L606.8 124.8L611 124.8L615.3 124.8L619.5 124.8L623.8 124.8L628 124.8L632.3 124.8L636.5 124.8L640.8 124.8L645.1 124.8L649.3 124.8L653.6 124.8L657.8 124.8L662.1 124.8L666.3 124.8L670.6 124.8L674.8 124.8L679.1 124.8L683.3 124.8L687.6 124.8L691.8 124.8L696.1 124.8L700.3 124.8L704.6 124.8L708.8 124.8" stroke="rgb(74, 144, 117)" stroke-opacity="0.7" stroke-width="0.5" fill="none"></path></g></g></g><g class="SourcesFooter" style="fill:#5b5b5b"><text x="16.0" y="563.4" style="font-size:13px;line-height:1.2"><tspan x="16" y="563.4"><tspan style="font-weight:700">Data source:</tspan> Joint Center for History and Economics, Harvard University and University of Cambridge. Energy History.</tspan></text><text font-size="13.00" x="16.0" y="581.0"><tspan x="16" y="581.01"><a target="_blank" style="fill: #5b5b5b; text-decoration: underline;" href="https://ourworldindata.org/energy">OurWorldInData.org/energy</a> | <a target="_blank" style="fill: #5b5b5b; text-decoration: underline;" href="http://creativecommons.org/licenses/by/4.0/deed.en_US">CC BY</a></tspan></text></g></svg>