<svg xmlns="http://www.w3.org/2000/svg" version="1.1" style="font-family:Lato, &#x27;Helvetica Neue&#x27;, Helvetica, Arial, &#x27;Liberation Sans&#x27;, sans-serif;font-size:18px;background-color:white;text-rendering:geometricPrecision;-webkit-font-smoothing:antialiased" width="850" height="600" viewBox="0 0 850 600"><defs><style>@import url(http://localhost:3030/fonts.css)</style></defs><defs><pattern id="noDataPattern" patternUnits="userSpaceOnUse" width="4" height="4" patternTransform="rotate(-45 2 2)"><path d="M -1,2 l 6,0" stroke="#ccc" stroke-width="0.7"></path></pattern></defs><rect class="background-fill" fill="white" width="850" height="600"></rect><g class="HeaderView"><g transform="translate(769, 16) scale(1)"><svg className="owidLogo" xmlns="http://www.w3.org/2000/svg" width="65" height="36" viewBox="0 0 65 36"  fill="none"><path fill="#002147" d="M0 0h64.8v36H0z"/><path fill="#CE261E" d="M0 33.3h64.8V36H0z"/><path fill="#fff" d="M13.796 10.575c0 .636-.106 1.226-.318 1.77a4.193 4.193 0 0 1-.894 1.404 4.084 4.084 0 0 1-1.386.93c-.54.22-1.138.33-1.794.33-.656 0-1.256-.11-1.8-.33a4.149 4.149 0 0 1-1.392-.93 4.193 4.193 0 0 1-.894-1.404A4.833 4.833 0 0 1 5 10.575c0-.636.106-1.224.318-1.764a4.18 4.18 0 0 1 .894-1.41 4.076 4.076 0 0 1 1.392-.924 4.684 4.684 0 0 1 1.8-.336c.656 0 1.254.112 1.794.336.54.224 1.002.534 1.386.93.384.392.682.86.894 1.404.212.54.318 1.128.318 1.764Zm-1.656 0c0-.476-.064-.902-.192-1.278a2.671 2.671 0 0 0-.54-.966 2.332 2.332 0 0 0-.864-.606 2.94 2.94 0 0 0-1.14-.21c-.424 0-.806.07-1.146.21-.34.14-.63.342-.87.606a2.742 2.742 0 0 0-.546.966 3.955 3.955 0 0 0-.192 1.278c0 .476.064.904.192 1.284.128.376.31.696.546.96.24.26.53.46.87.6.34.14.722.21 1.146.21.424 0 .804-.07 1.14-.21.34-.14.628-.34.864-.6.236-.264.416-.584.54-.96a4.01 4.01 0 0 0 .192-1.284ZM16.104 8.757v3.912c0 .376.086.668.258.876.176.204.438.306.786.306.256 0 .496-.056.72-.168a2.58 2.58 0 0 0 .636-.474V8.757h1.482v6.156h-.906c-.192 0-.318-.09-.378-.27l-.102-.492a4.65 4.65 0 0 1-.396.354 2.577 2.577 0 0 1-.438.27 2.35 2.35 0 0 1-.498.168 2.345 2.345 0 0 1-.57.066c-.336 0-.634-.056-.894-.168a1.821 1.821 0 0 1-.648-.486 2.157 2.157 0 0 1-.402-.738 3.233 3.233 0 0 1-.132-.948V8.757h1.482ZM21.328 14.913V8.757h.87c.152 0 .258.028.318.084.06.056.1.152.12.288l.09.744c.22-.38.478-.68.774-.9.296-.22.628-.33.996-.33.304 0 .556.07.756.21l-.192 1.11c-.012.072-.038.124-.078.156a.278.278 0 0 1-.162.042 1.01 1.01 0 0 1-.246-.042 1.646 1.646 0 0 0-.414-.042c-.308 0-.572.086-.792.258-.22.168-.406.416-.558.744v3.834h-1.482ZM27.347 6.237h1.356a.57.57 0 0 1 .348.102c.096.064.16.152.192.264l1.476 5.19c.036.128.068.268.096.42.032.148.062.306.09.474a5.968 5.968 0 0 1 .228-.894l1.704-5.19a.575.575 0 0 1 .186-.252.543.543 0 0 1 .348-.114h.474a.57.57 0 0 1 .348.102.497.497 0 0 1 .192.264l1.692 5.19c.088.256.164.54.228.852.028-.156.056-.306.084-.45.032-.144.064-.278.096-.402l1.476-5.19c.028-.1.09-.186.186-.258a.563.563 0 0 1 .348-.108h1.266l-2.694 8.676h-1.458l-1.896-5.928-.078-.246a9.504 9.504 0 0 1-.072-.282c-.024.1-.05.194-.078.282-.024.088-.048.17-.072.246l-1.914 5.928H30.04l-2.694-8.676ZM42.771 8.661c.46 0 .876.074 1.248.222.376.148.696.358.96.63s.468.604.612.996c.144.392.216.83.216 1.314 0 .488-.072.928-.216 1.32a2.85 2.85 0 0 1-.612 1.002 2.653 2.653 0 0 1-.96.636 3.35 3.35 0 0 1-1.248.222c-.46 0-.878-.074-1.254-.222a2.712 2.712 0 0 1-.966-.636 2.922 2.922 0 0 1-.618-1.002 3.807 3.807 0 0 1-.216-1.32c0-.484.072-.922.216-1.314.148-.392.354-.724.618-.996.268-.272.59-.482.966-.63a3.397 3.397 0 0 1 1.254-.222Zm0 5.202c.512 0 .89-.172 1.134-.516.248-.344.372-.848.372-1.512s-.124-1.17-.372-1.518c-.244-.348-.622-.522-1.134-.522-.52 0-.904.176-1.152.528-.248.348-.372.852-.372 1.512s.124 1.164.372 1.512c.248.344.632.516 1.152.516ZM46.723 14.913V8.757h.87c.152 0 .258.028.318.084.06.056.1.152.12.288l.09.744c.22-.38.478-.68.774-.9.296-.22.628-.33.996-.33.304 0 .556.07.756.21l-.192 1.11c-.012.072-.038.124-.078.156a.278.278 0 0 1-.162.042 1.01 1.01 0 0 1-.246-.042 1.646 1.646 0 0 0-.414-.042c-.308 0-.572.086-.792.258-.22.168-.406.416-.558.744v3.834h-1.482ZM52.96 5.997v8.916h-1.482V5.997h1.482ZM58.732 14.913c-.192 0-.318-.09-.378-.27l-.12-.594a3.68 3.68 0 0 1-.402.39c-.14.116-.292.216-.456.3-.16.084-.334.148-.522.192a2.372 2.372 0 0 1-.6.072c-.336 0-.644-.07-.924-.21a2.098 2.098 0 0 1-.726-.606 3.033 3.033 0 0 1-.468-.99 5.072 5.072 0 0 1-.162-1.344c0-.456.062-.88.186-1.272s.302-.732.534-1.02c.232-.288.51-.512.834-.672a2.384 2.384 0 0 1 1.092-.246 2.103 2.103 0 0 1 1.536.606V5.997h1.482v8.916h-.906Zm-1.974-1.086c.308 0 .57-.064.786-.192.216-.128.42-.31.612-.546v-2.76a1.452 1.452 0 0 0-.552-.432 1.597 1.597 0 0 0-.636-.126c-.224 0-.428.042-.612.126a1.21 1.21 0 0 0-.462.384c-.124.168-.22.384-.288.648-.068.26-.102.568-.102.924 0 .36.028.666.084.918.06.248.144.452.252.612.108.156.24.27.396.342.156.068.33.102.522.102ZM16.331 20.757v6.156H14.85v-6.156h1.481Zm.223-1.794a.844.844 0 0 1-.078.36.963.963 0 0 1-.21.294.995.995 0 0 1-.3.204.963.963 0 0 1-.372.072.948.948 0 0 1-.367-.072 1.018 1.018 0 0 1-.498-.498.963.963 0 0 1 0-.732.995.995 0 0 1 .205-.3.929.929 0 0 1 .293-.198.899.899 0 0 1 .738 0 .912.912 0 0 1 .3.198.943.943 0 0 1 .288.672ZM17.771 26.913v-6.156h.906c.192 0 .318.09.378.27l.102.486a2.934 2.934 0 0 1 .828-.618c.156-.076.322-.134.498-.174.176-.04.368-.06.576-.06.336 0 .634.058.894.174.26.112.476.272.648.48.176.204.308.45.396.738.092.284.138.598.138.942v3.918h-1.482v-3.918c0-.376-.088-.666-.264-.87-.172-.208-.432-.312-.78-.312-.256 0-.496.058-.72.174a2.58 2.58 0 0 0-.636.474v4.452h-1.482ZM34.22 22.575c0 .636-.106 1.22-.318 1.752-.212.532-.51.99-.894 1.374a4 4 0 0 1-1.386.894 4.87 4.87 0 0 1-1.794.318h-3.312v-8.676h3.312a4.79 4.79 0 0 1 1.794.324 4 4 0 0 1 1.386.894c.384.38.682.836.894 1.368.212.532.318 1.116.318 1.752Zm-1.65 0c0-.476-.064-.902-.192-1.278a2.68 2.68 0 0 0-.546-.96 2.332 2.332 0 0 0-.864-.606 2.94 2.94 0 0 0-1.14-.21h-1.686v6.108h1.686c.424 0 .804-.07 1.14-.21.34-.14.628-.34.864-.6a2.75 2.75 0 0 0 .546-.96 4.01 4.01 0 0 0 .192-1.284ZM39.98 26.913h-.665c-.14 0-.25-.02-.33-.06-.08-.044-.14-.13-.18-.258l-.132-.438c-.156.14-.31.264-.462.372a2.804 2.804 0 0 1-.462.264c-.16.072-.33.126-.51.162-.18.036-.38.054-.6.054-.26 0-.5-.034-.72-.102a1.618 1.618 0 0 1-.57-.318 1.448 1.448 0 0 1-.366-.522 1.852 1.852 0 0 1-.132-.726c0-.232.06-.46.18-.684.124-.228.328-.432.612-.612.284-.184.662-.336 1.134-.456.472-.12 1.058-.188 1.758-.204v-.36c0-.412-.088-.716-.264-.912-.172-.2-.424-.3-.756-.3a1.837 1.837 0 0 0-1.02.276c-.116.068-.224.13-.324.186a.664.664 0 0 1-.33.084.429.429 0 0 1-.258-.078.614.614 0 0 1-.174-.192l-.27-.474c.708-.648 1.562-.972 2.562-.972.36 0 .68.06.96.18.284.116.524.28.72.492.196.208.344.458.444.75.104.292.156.612.156.96v3.888Zm-2.88-.924c.153 0 .293-.014.42-.042.129-.028.249-.07.36-.126.117-.056.227-.124.33-.204.109-.084.217-.182.325-.294v-1.038c-.432.02-.794.058-1.086.114-.288.052-.52.12-.696.204a.923.923 0 0 0-.378.294.664.664 0 0 0-.108.366c0 .26.076.446.228.558.156.112.358.168.606.168ZM43.22 27.01c-.532 0-.942-.15-1.23-.45-.288-.305-.432-.723-.432-1.255v-3.438h-.624a.31.31 0 0 1-.21-.078c-.056-.052-.084-.13-.084-.234v-.588l.99-.162.312-1.68a.302.302 0 0 1 .108-.186.365.365 0 0 1 .222-.066h.768v1.938h1.62v1.056h-1.62v3.336c0 .192.048.342.144.45a.488.488 0 0 0 .384.162c.092 0 .168-.01.228-.03.064-.024.118-.048.162-.072.048-.024.09-.046.126-.066a.194.194 0 0 1 .108-.036.16.16 0 0 1 .108.036c.028.02.058.052.09.096l.444.72c-.216.18-.464.316-.744.408a2.77 2.77 0 0 1-.87.138ZM50.423 26.913h-.666c-.14 0-.25-.02-.33-.06-.08-.044-.14-.13-.18-.258l-.132-.438c-.156.14-.31.264-.462.372a2.804 2.804 0 0 1-.462.264c-.16.072-.33.126-.51.162-.18.036-.38.054-.6.054-.26 0-.5-.034-.72-.102a1.618 1.618 0 0 1-.57-.318 1.448 1.448 0 0 1-.366-.522 1.852 1.852 0 0 1-.132-.726c0-.232.06-.46.18-.684.124-.228.328-.432.612-.612.284-.184.662-.336 1.134-.456.472-.12 1.058-.188 1.758-.204v-.36c0-.412-.088-.716-.264-.912-.172-.2-.424-.3-.756-.3a1.837 1.837 0 0 0-1.02.276c-.116.068-.224.13-.324.186a.664.664 0 0 1-.33.084.429.429 0 0 1-.258-.078.614.614 0 0 1-.174-.192l-.27-.474c.708-.648 1.562-.972 2.562-.972.36 0 .68.06.96.18.284.116.524.28.72.492.196.208.344.458.444.75.104.292.156.612.156.96v3.888Zm-2.88-.924c.152 0 .292-.014.42-.042.128-.028.248-.07.36-.126.116-.056.226-.124.33-.204.108-.084.216-.182.324-.294v-1.038c-.432.02-.794.058-1.086.114-.288.052-.52.12-.696.204a.923.923 0 0 0-.378.294.664.664 0 0 0-.108.366c0 .26.076.446.228.558.156.112.358.168.606.168Z"/></svg></g><a href="http://localhost:3030/grapher/malnutrition-death-rates-by-age" style="font-family:&#x27;Playfair Display&#x27;, Georgia, &#x27;Times New Roman&#x27;, &#x27;Liberation Serif&#x27;, serif" target="_blank" rel="noopener"><text font-size="23.75" font-weight="500" x="16.0" y="39.0" fill="#5b5b5b"><tspan x="16" y="39.0375">Protein-energy malnutrition death rate by age, World, 1990 to 2019</tspan></text></a><text x="16.0" y="62.7" style="font-size:14.625px;line-height:1.2" fill="#5b5b5b"><tspan x="16" y="62.7">Death rates from protein-energy malnutrition measured per 100,000 individuals across various age categories.</tspan><tspan x="16" y="80.2">Also shown is the total death rate across all ages (not age-standardized) and the age-standardized death rate.</tspan><tspan x="16" y="97.8">Age-standardization assumes a constant population age &amp; structure to allow for comparisons between countries</tspan><tspan x="16" y="115.3">and with time without the effects of a changing age distribution within a population (e.g. aging).</tspan></text></g><g style="pointer-events:none"><g class="LineChart"><defs><clipPath id="boundsClip-1"><rect x="26.120000000000005" y="124.69999999999999" width="838" height="437.1"></rect></clipPath></defs><rect x="16" y="134.7" width="818" height="417.1" fill="none"></rect><g class="DualAxisView"><g class="HorizontalAxis"><line x1="36.1" y1="531.3" x2="36.1" y2="536.3" stroke="#999" stroke-width="1"></line><line x1="692.8" y1="531.3" x2="692.8" y2="536.3" stroke="#999" stroke-width="1"></line><line x1="149.3" y1="531.3" x2="149.3" y2="536.3" stroke="#999" stroke-width="1"></line><line x1="262.5" y1="531.3" x2="262.5" y2="536.3" stroke="#999" stroke-width="1"></line><line x1="375.8" y1="531.3" x2="375.8" y2="536.3" stroke="#999" stroke-width="1"></line><line x1="489" y1="531.3" x2="489" y2="536.3" stroke="#999" stroke-width="1"></line><line x1="602.2" y1="531.3" x2="602.2" y2="536.3" stroke="#999" stroke-width="1"></line><text x="36.120000000000005" y="549.8" fill="#5b5b5b" text-anchor="start" font-size="13.5">1990</text><text x="692.755" y="549.8" fill="#5b5b5b" text-anchor="end" font-size="13.5">2019</text><text x="149.3" y="549.8" fill="#5b5b5b" text-anchor="middle" font-size="13.5">1995</text><text x="262.5" y="549.8" fill="#5b5b5b" text-anchor="middle" font-size="13.5">2000</text><text x="375.8" y="549.8" fill="#5b5b5b" text-anchor="middle" font-size="13.5">2005</text><text x="489" y="549.8" fill="#5b5b5b" text-anchor="middle" font-size="13.5">2010</text><text x="602.2" y="549.8" fill="#5b5b5b" text-anchor="middle" font-size="13.5">2015</text></g><g class="VerticalAxis"><text x="31.12" y="531.3" dy=".32em" text-anchor="end" fill="#5b5b5b" font-size="13.5">0</text><text x="31.12" y="482.2" dy=".32em" text-anchor="end" fill="#5b5b5b" font-size="13.5">10</text><text x="31.12" y="433.2" dy=".32em" text-anchor="end" fill="#5b5b5b" font-size="13.5">20</text><text x="31.12" y="384.1" dy=".32em" text-anchor="end" fill="#5b5b5b" font-size="13.5">30</text><text x="31.12" y="335.1" dy=".32em" text-anchor="end" fill="#5b5b5b" font-size="13.5">40</text><text x="31.12" y="286" dy=".32em" text-anchor="end" fill="#5b5b5b" font-size="13.5">50</text><text x="31.12" y="237" dy=".32em" text-anchor="end" fill="#5b5b5b" font-size="13.5">60</text><text x="31.12" y="187.9" dy=".32em" text-anchor="end" fill="#5b5b5b" font-size="13.5">70</text></g><g class="AxisGridLines horizontalLines"><line x1="36.12" y1="531.3" x2="692.75" y2="531.3" stroke="#999" stroke-width="1"></line><line x1="36.12" y1="482.2" x2="692.75" y2="482.2" stroke="#ddd" stroke-width="1" stroke-dasharray="3,2"></line><line x1="36.12" y1="433.2" x2="692.75" y2="433.2" stroke="#ddd" stroke-width="1" stroke-dasharray="3,2"></line><line x1="36.12" y1="384.1" x2="692.75" y2="384.1" stroke="#ddd" stroke-width="1" stroke-dasharray="3,2"></line><line x1="36.12" y1="335.1" x2="692.75" y2="335.1" stroke="#ddd" stroke-width="1" stroke-dasharray="3,2"></line><line x1="36.12" y1="286" x2="692.75" y2="286" stroke="#ddd" stroke-width="1" stroke-dasharray="3,2"></line><line x1="36.12" y1="237" x2="692.75" y2="237" stroke="#ddd" stroke-width="1" stroke-dasharray="3,2"></line><line x1="36.12" y1="187.9" x2="692.75" y2="187.9" stroke="#ddd" stroke-width="1" stroke-dasharray="3,2"></line></g></g><g clip-path="url(#boundsClip-1)"><g class="LineLabels" style="cursor:default"><g class="legendMark"><g class="indicator"><path d="M696.755,449.6 H700.13 V431.5499999999999 H723.755" stroke="#999" stroke-width="0.5" fill="none"></path></g><rect x="692.755" y="424.7999999999999" width="116.67500000000001" height="13.5" fill="#fff" opacity="0"></rect><text font-size="13.50" font-weight="400" x="727.8" y="436.5" fill="#cf0a66"><tspan x="727.755" y="436.5449999999999">70+ years old</tspan></text></g><g class="legendMark"><g class="indicator"><path d="M696.755,461.9 H703.505 V447.0499999999999 H723.755" stroke="#999" stroke-width="0.5" fill="none"></path></g><rect x="692.755" y="440.2999999999999" width="90.62" height="13.5" fill="#fff" opacity="0"></rect><text font-size="13.50" font-weight="400" x="727.8" y="452.0" fill="#c15065"><tspan x="727.755" y="452.0449999999999">Under-5s</tspan></text></g><g class="legendMark"><g class="indicator"><path d="M696.755,516.5 H706.88 V462.5499999999999 H723.755" stroke="#999" stroke-width="0.5" fill="none"></path></g><rect x="692.755" y="455.7999999999999" width="141.245" height="13.5" fill="#fff" opacity="0"></rect><text font-size="13.50" font-weight="400" x="727.8" y="467.5" fill="#18470f"><tspan x="727.755" y="467.5449999999999">Age-standardized</tspan></text></g><g class="legendMark"><g class="indicator"><path d="M696.755,517.9 H710.255 V478.0499999999999 H723.755" stroke="#999" stroke-width="0.5" fill="none"></path></g><rect x="692.755" y="471.2999999999999" width="83.195" height="13.5" fill="#fff" opacity="0"></rect><text font-size="13.50" font-weight="400" x="727.8" y="483.0" fill="#286bbb"><tspan x="727.755" y="483.0449999999999">All ages</tspan></text></g><g class="legendMark"><g class="indicator"><path d="M696.755,523.9 H713.63 V493.5499999999999 H723.755" stroke="#999" stroke-width="0.5" fill="none"></path></g><rect x="692.755" y="486.7999999999999" width="128.42000000000002" height="13.5" fill="#fff" opacity="0"></rect><text font-size="13.50" font-weight="400" x="727.8" y="498.5" fill="#2c8465"><tspan x="727.755" y="498.5449999999999">50-60 years old</tspan></text></g><g class="legendMark"><g class="indicator"><path d="M696.755,528.7 H717.005 V509.0499999999999 H723.755" stroke="#999" stroke-width="0.5" fill="none"></path></g><rect x="692.755" y="502.2999999999999" width="120.86" height="13.5" fill="#fff" opacity="0"></rect><text font-size="13.50" font-weight="400" x="727.8" y="514.0" fill="#6d3e91"><tspan x="727.755" y="514.0449999999998">5-14 years old</tspan></text></g><g class="legendMark"><g class="indicator"><path d="M696.755,529.6 H720.38 V524.55 H723.755" stroke="#999" stroke-width="0.5" fill="none"></path></g><rect x="692.755" y="517.8" width="128.42000000000002" height="13.5" fill="#fff" opacity="0"></rect><text font-size="13.50" font-weight="400" x="727.8" y="529.5" fill="#be5915"><tspan x="727.755" y="529.545">15-49 years old</tspan></text></g></g><g class="Lines"><rect x="36" y="141" width="657" height="391" fill="rgba(255,255,255,0)" opacity="0"></rect><g><path stroke-linecap="round" stroke-linejoin="round" stroke="#ddd" d="M36.1 471.1L58.8 474.3L81.4 477.3L104 480.1L126.7 482.5L149.3 476.7L172 481.4L194.6 483.8L217.3 486.3L239.9 488.7L262.5 491L285.2 493.3L307.8 495.4L330.5 503.2L353.1 505.1L375.8 506.6L398.4 508L421 509.3L443.7 510.4L466.3 511.4L489 511.7L511.6 512.5L534.3 513.8L556.9 514.4L579.5 515L602.2 515.6L624.8 516L647.5 516.6L670.1 517.3L692.8 517.9" fill="none" stroke-width="1"></path></g><g><path stroke-linecap="round" stroke-linejoin="round" stroke="#ddd" d="M36.1 473L58.8 475.5L81.4 477.9L104 479.9L126.7 481.7L149.3 473.1L172 478.6L194.6 480.7L217.3 482.8L239.9 485L262.5 486.8L285.2 489L307.8 491.1L330.5 500.1L353.1 502.1L375.8 503.7L398.4 505.1L421 506.6L443.7 507.8L466.3 509L489 509.3L511.6 510.1L534.3 511.6L556.9 512.4L579.5 513.1L602.2 513.7L624.8 514.4L647.5 515.1L670.1 515.9L692.8 516.5" fill="none" stroke-width="1"></path></g><g><path stroke-linecap="round" stroke-linejoin="round" stroke="#ddd" d="M36.1 376.2L58.8 379.3L81.4 382.4L104 384.6L126.7 388.2L149.3 327.4L172 363.2L194.6 368.5L217.3 373.6L239.9 378.4L262.5 371.1L285.2 376.1L307.8 380.1L330.5 424.9L353.1 429.6L375.8 432.9L398.4 436.3L421 439.6L443.7 441.2L466.3 442.2L489 442.1L511.6 442.9L534.3 444.1L556.9 444.2L579.5 444.2L602.2 443.8L624.8 444.3L647.5 445.9L670.1 447.8L692.8 449.6" fill="none" stroke-width="1"></path></g><g><path stroke-linecap="round" stroke-linejoin="round" stroke="#ddd" d="M36.1 518.1L58.8 518.4L81.4 518.9L104 519.6L126.7 520.5L149.3 520.7L172 521L194.6 521.7L217.3 522.3L239.9 523L262.5 523.8L285.2 524.2L307.8 524.8L330.5 525.8L353.1 526L375.8 526.1L398.4 526.3L421 526.6L443.7 526.8L466.3 527.1L489 527.2L511.6 527.4L534.3 527.7L556.9 527.9L579.5 528.1L602.2 528.2L624.8 528.3L647.5 528.4L670.1 528.5L692.8 528.7" fill="none" stroke-width="1"></path></g><g><path stroke-linecap="round" stroke-linejoin="round" stroke="#ddd" d="M36.1 526.5L58.8 526.7L81.4 526.8L104 527L126.7 527.1L149.3 525.1L172 526.4L194.6 526.5L217.3 526.6L239.9 526.8L262.5 526.3L285.2 526.5L307.8 526.7L330.5 528.4L353.1 528.6L375.8 528.7L398.4 528.8L421 529L443.7 529.1L466.3 529.2L489 529.2L511.6 529.3L534.3 529.4L556.9 529.4L579.5 529.5L602.2 529.5L624.8 529.5L647.5 529.6L670.1 529.6L692.8 529.6" fill="none" stroke-width="1"></path></g><g><path stroke-linecap="round" stroke-linejoin="round" stroke="#ddd" d="M36.1 507.9L58.8 508.3L81.4 509L104 509.6L126.7 510.3L149.3 492.5L172 505.9L194.6 506.6L217.3 507.4L239.9 508.5L262.5 501.6L285.2 502.6L307.8 503.7L330.5 518L353.1 518.8L375.8 519.6L398.4 520.1L421 520.7L443.7 521.1L466.3 521.4L489 521.5L511.6 521.8L534.3 522.1L556.9 522.5L579.5 522.9L602.2 523.1L624.8 523.3L647.5 523.5L670.1 523.7L692.8 523.9" fill="none" stroke-width="1"></path></g><g><path stroke-linecap="round" stroke-linejoin="round" stroke="#ddd" d="M36.1 140.7L58.8 161.4L81.4 180.4L104 195.9L126.7 208.4L149.3 201.4L172 204.6L194.6 219L217.3 234.5L239.9 249.4L262.5 282.2L285.2 298.5L307.8 312.9L330.5 340L353.1 353.8L375.8 365.1L398.4 374.9L421 385L443.7 394.3L466.3 403.4L489 405.5L511.6 412.2L534.3 423.8L556.9 429.2L579.5 434.8L602.2 440.3L624.8 445.5L647.5 450.5L670.1 457L692.8 461.9" fill="none" stroke-width="1"></path></g><g><path fill="none" stroke-linecap="butt" stroke-linejoin="round" stroke="#fff" stroke-width="2.5" d="M36.1 471.1L58.8 474.3L81.4 477.3L104 480.1L126.7 482.5L149.3 476.7L172 481.4L194.6 483.8L217.3 486.3L239.9 488.7L262.5 491L285.2 493.3L307.8 495.4L330.5 503.2L353.1 505.1L375.8 506.6L398.4 508L421 509.3L443.7 510.4L466.3 511.4L489 511.7L511.6 512.5L534.3 513.8L556.9 514.4L579.5 515L602.2 515.6L624.8 516L647.5 516.6L670.1 517.3L692.8 517.9"></path><polyline points="36.10,471.10 58.80,474.30 81.40,477.30 104.00,480.10 126.70,482.50 149.30,476.70 172.00,481.40 194.60,483.80 217.30,486.30 239.90,488.70 262.50,491.00 285.20,493.30 307.80,495.40 330.50,503.20 353.10,505.10 375.80,506.60 398.40,508.00 421.00,509.30 443.70,510.40 466.30,511.40 489.00,511.70 511.60,512.50 534.30,513.80 556.90,514.40 579.50,515.00 602.20,515.60 624.80,516.00 647.50,516.60 670.10,517.30 692.80,517.90" stroke-linejoin="round" stroke-width="1.5" stroke="#286BBB" fill="none" stroke-linecap="butt"></polyline><g><circle cx="36.1" cy="471.1" r="1.8" fill="#286BBB"></circle><circle cx="58.8" cy="474.3" r="1.8" fill="#286BBB"></circle><circle cx="81.4" cy="477.3" r="1.8" fill="#286BBB"></circle><circle cx="104" cy="480.1" r="1.8" fill="#286BBB"></circle><circle cx="126.7" cy="482.5" r="1.8" fill="#286BBB"></circle><circle cx="149.3" cy="476.7" r="1.8" fill="#286BBB"></circle><circle cx="172" cy="481.4" r="1.8" fill="#286BBB"></circle><circle cx="194.6" cy="483.8" r="1.8" fill="#286BBB"></circle><circle cx="217.3" cy="486.3" r="1.8" fill="#286BBB"></circle><circle cx="239.9" cy="488.7" r="1.8" fill="#286BBB"></circle><circle cx="262.5" cy="491" r="1.8" fill="#286BBB"></circle><circle cx="285.2" cy="493.3" r="1.8" fill="#286BBB"></circle><circle cx="307.8" cy="495.4" r="1.8" fill="#286BBB"></circle><circle cx="330.5" cy="503.2" r="1.8" fill="#286BBB"></circle><circle cx="353.1" cy="505.1" r="1.8" fill="#286BBB"></circle><circle cx="375.8" cy="506.6" r="1.8" fill="#286BBB"></circle><circle cx="398.4" cy="508" r="1.8" fill="#286BBB"></circle><circle cx="421" cy="509.3" r="1.8" fill="#286BBB"></circle><circle cx="443.7" cy="510.4" r="1.8" fill="#286BBB"></circle><circle cx="466.3" cy="511.4" r="1.8" fill="#286BBB"></circle><circle cx="489" cy="511.7" r="1.8" fill="#286BBB"></circle><circle cx="511.6" cy="512.5" r="1.8" fill="#286BBB"></circle><circle cx="534.3" cy="513.8" r="1.8" fill="#286BBB"></circle><circle cx="556.9" cy="514.4" r="1.8" fill="#286BBB"></circle><circle cx="579.5" cy="515" r="1.8" fill="#286BBB"></circle><circle cx="602.2" cy="515.6" r="1.8" fill="#286BBB"></circle><circle cx="624.8" cy="516" r="1.8" fill="#286BBB"></circle><circle cx="647.5" cy="516.6" r="1.8" fill="#286BBB"></circle><circle cx="670.1" cy="517.3" r="1.8" fill="#286BBB"></circle><circle cx="692.8" cy="517.9" r="1.8" fill="#286BBB"></circle></g></g><g><path fill="none" stroke-linecap="butt" stroke-linejoin="round" stroke="#fff" stroke-width="2.5" d="M36.1 473L58.8 475.5L81.4 477.9L104 479.9L126.7 481.7L149.3 473.1L172 478.6L194.6 480.7L217.3 482.8L239.9 485L262.5 486.8L285.2 489L307.8 491.1L330.5 500.1L353.1 502.1L375.8 503.7L398.4 505.1L421 506.6L443.7 507.8L466.3 509L489 509.3L511.6 510.1L534.3 511.6L556.9 512.4L579.5 513.1L602.2 513.7L624.8 514.4L647.5 515.1L670.1 515.9L692.8 516.5"></path><polyline points="36.10,473.00 58.80,475.50 81.40,477.90 104.00,479.90 126.70,481.70 149.30,473.10 172.00,478.60 194.60,480.70 217.30,482.80 239.90,485.00 262.50,486.80 285.20,489.00 307.80,491.10 330.50,500.10 353.10,502.10 375.80,503.70 398.40,505.10 421.00,506.60 443.70,507.80 466.30,509.00 489.00,509.30 511.60,510.10 534.30,511.60 556.90,512.40 579.50,513.10 602.20,513.70 624.80,514.40 647.50,515.10 670.10,515.90 692.80,516.50" stroke-linejoin="round" stroke-width="1.5" stroke="#18470F" fill="none" stroke-linecap="butt"></polyline><g><circle cx="36.1" cy="473" r="1.8" fill="#18470F"></circle><circle cx="58.8" cy="475.5" r="1.8" fill="#18470F"></circle><circle cx="81.4" cy="477.9" r="1.8" fill="#18470F"></circle><circle cx="104" cy="479.9" r="1.8" fill="#18470F"></circle><circle cx="126.7" cy="481.7" r="1.8" fill="#18470F"></circle><circle cx="149.3" cy="473.1" r="1.8" fill="#18470F"></circle><circle cx="172" cy="478.6" r="1.8" fill="#18470F"></circle><circle cx="194.6" cy="480.7" r="1.8" fill="#18470F"></circle><circle cx="217.3" cy="482.8" r="1.8" fill="#18470F"></circle><circle cx="239.9" cy="485" r="1.8" fill="#18470F"></circle><circle cx="262.5" cy="486.8" r="1.8" fill="#18470F"></circle><circle cx="285.2" cy="489" r="1.8" fill="#18470F"></circle><circle cx="307.8" cy="491.1" r="1.8" fill="#18470F"></circle><circle cx="330.5" cy="500.1" r="1.8" fill="#18470F"></circle><circle cx="353.1" cy="502.1" r="1.8" fill="#18470F"></circle><circle cx="375.8" cy="503.7" r="1.8" fill="#18470F"></circle><circle cx="398.4" cy="505.1" r="1.8" fill="#18470F"></circle><circle cx="421" cy="506.6" r="1.8" fill="#18470F"></circle><circle cx="443.7" cy="507.8" r="1.8" fill="#18470F"></circle><circle cx="466.3" cy="509" r="1.8" fill="#18470F"></circle><circle cx="489" cy="509.3" r="1.8" fill="#18470F"></circle><circle cx="511.6" cy="510.1" r="1.8" fill="#18470F"></circle><circle cx="534.3" cy="511.6" r="1.8" fill="#18470F"></circle><circle cx="556.9" cy="512.4" r="1.8" fill="#18470F"></circle><circle cx="579.5" cy="513.1" r="1.8" fill="#18470F"></circle><circle cx="602.2" cy="513.7" r="1.8" fill="#18470F"></circle><circle cx="624.8" cy="514.4" r="1.8" fill="#18470F"></circle><circle cx="647.5" cy="515.1" r="1.8" fill="#18470F"></circle><circle cx="670.1" cy="515.9" r="1.8" fill="#18470F"></circle><circle cx="692.8" cy="516.5" r="1.8" fill="#18470F"></circle></g></g><g><path fill="none" stroke-linecap="butt" stroke-linejoin="round" stroke="#fff" stroke-width="2.5" d="M36.1 376.2L58.8 379.3L81.4 382.4L104 384.6L126.7 388.2L149.3 327.4L172 363.2L194.6 368.5L217.3 373.6L239.9 378.4L262.5 371.1L285.2 376.1L307.8 380.1L330.5 424.9L353.1 429.6L375.8 432.9L398.4 436.3L421 439.6L443.7 441.2L466.3 442.2L489 442.1L511.6 442.9L534.3 444.1L556.9 444.2L579.5 444.2L602.2 443.8L624.8 444.3L647.5 445.9L670.1 447.8L692.8 449.6"></path><polyline points="36.10,376.20 58.80,379.30 81.40,382.40 104.00,384.60 126.70,388.20 149.30,327.40 172.00,363.20 194.60,368.50 217.30,373.60 239.90,378.40 262.50,371.10 285.20,376.10 307.80,380.10 330.50,424.90 353.10,429.60 375.80,432.90 398.40,436.30 421.00,439.60 443.70,441.20 466.30,442.20 489.00,442.10 511.60,442.90 534.30,444.10 556.90,444.20 579.50,444.20 602.20,443.80 624.80,444.30 647.50,445.90 670.10,447.80 692.80,449.60" stroke-linejoin="round" stroke-width="1.5" stroke="#CF0A66" fill="none" stroke-linecap="butt"></polyline><g><circle cx="36.1" cy="376.2" r="1.8" fill="#CF0A66"></circle><circle cx="58.8" cy="379.3" r="1.8" fill="#CF0A66"></circle><circle cx="81.4" cy="382.4" r="1.8" fill="#CF0A66"></circle><circle cx="104" cy="384.6" r="1.8" fill="#CF0A66"></circle><circle cx="126.7" cy="388.2" r="1.8" fill="#CF0A66"></circle><circle cx="149.3" cy="327.4" r="1.8" fill="#CF0A66"></circle><circle cx="172" cy="363.2" r="1.8" fill="#CF0A66"></circle><circle cx="194.6" cy="368.5" r="1.8" fill="#CF0A66"></circle><circle cx="217.3" cy="373.6" r="1.8" fill="#CF0A66"></circle><circle cx="239.9" cy="378.4" r="1.8" fill="#CF0A66"></circle><circle cx="262.5" cy="371.1" r="1.8" fill="#CF0A66"></circle><circle cx="285.2" cy="376.1" r="1.8" fill="#CF0A66"></circle><circle cx="307.8" cy="380.1" r="1.8" fill="#CF0A66"></circle><circle cx="330.5" cy="424.9" r="1.8" fill="#CF0A66"></circle><circle cx="353.1" cy="429.6" r="1.8" fill="#CF0A66"></circle><circle cx="375.8" cy="432.9" r="1.8" fill="#CF0A66"></circle><circle cx="398.4" cy="436.3" r="1.8" fill="#CF0A66"></circle><circle cx="421" cy="439.6" r="1.8" fill="#CF0A66"></circle><circle cx="443.7" cy="441.2" r="1.8" fill="#CF0A66"></circle><circle cx="466.3" cy="442.2" r="1.8" fill="#CF0A66"></circle><circle cx="489" cy="442.1" r="1.8" fill="#CF0A66"></circle><circle cx="511.6" cy="442.9" r="1.8" fill="#CF0A66"></circle><circle cx="534.3" cy="444.1" r="1.8" fill="#CF0A66"></circle><circle cx="556.9" cy="444.2" r="1.8" fill="#CF0A66"></circle><circle cx="579.5" cy="444.2" r="1.8" fill="#CF0A66"></circle><circle cx="602.2" cy="443.8" r="1.8" fill="#CF0A66"></circle><circle cx="624.8" cy="444.3" r="1.8" fill="#CF0A66"></circle><circle cx="647.5" cy="445.9" r="1.8" fill="#CF0A66"></circle><circle cx="670.1" cy="447.8" r="1.8" fill="#CF0A66"></circle><circle cx="692.8" cy="449.6" r="1.8" fill="#CF0A66"></circle></g></g><g><path fill="none" stroke-linecap="butt" stroke-linejoin="round" stroke="#fff" stroke-width="2.5" d="M36.1 518.1L58.8 518.4L81.4 518.9L104 519.6L126.7 520.5L149.3 520.7L172 521L194.6 521.7L217.3 522.3L239.9 523L262.5 523.8L285.2 524.2L307.8 524.8L330.5 525.8L353.1 526L375.8 526.1L398.4 526.3L421 526.6L443.7 526.8L466.3 527.1L489 527.2L511.6 527.4L534.3 527.7L556.9 527.9L579.5 528.1L602.2 528.2L624.8 528.3L647.5 528.4L670.1 528.5L692.8 528.7"></path><polyline points="36.10,518.10 58.80,518.40 81.40,518.90 104.00,519.60 126.70,520.50 149.30,520.70 172.00,521.00 194.60,521.70 217.30,522.30 239.90,523.00 262.50,523.80 285.20,524.20 307.80,524.80 330.50,525.80 353.10,526.00 375.80,526.10 398.40,526.30 421.00,526.60 443.70,526.80 466.30,527.10 489.00,527.20 511.60,527.40 534.30,527.70 556.90,527.90 579.50,528.10 602.20,528.20 624.80,528.30 647.50,528.40 670.10,528.50 692.80,528.70" stroke-linejoin="round" stroke-width="1.5" stroke="#6D3E91" fill="none" stroke-linecap="butt"></polyline><g><circle cx="36.1" cy="518.1" r="1.8" fill="#6D3E91"></circle><circle cx="58.8" cy="518.4" r="1.8" fill="#6D3E91"></circle><circle cx="81.4" cy="518.9" r="1.8" fill="#6D3E91"></circle><circle cx="104" cy="519.6" r="1.8" fill="#6D3E91"></circle><circle cx="126.7" cy="520.5" r="1.8" fill="#6D3E91"></circle><circle cx="149.3" cy="520.7" r="1.8" fill="#6D3E91"></circle><circle cx="172" cy="521" r="1.8" fill="#6D3E91"></circle><circle cx="194.6" cy="521.7" r="1.8" fill="#6D3E91"></circle><circle cx="217.3" cy="522.3" r="1.8" fill="#6D3E91"></circle><circle cx="239.9" cy="523" r="1.8" fill="#6D3E91"></circle><circle cx="262.5" cy="523.8" r="1.8" fill="#6D3E91"></circle><circle cx="285.2" cy="524.2" r="1.8" fill="#6D3E91"></circle><circle cx="307.8" cy="524.8" r="1.8" fill="#6D3E91"></circle><circle cx="330.5" cy="525.8" r="1.8" fill="#6D3E91"></circle><circle cx="353.1" cy="526" r="1.8" fill="#6D3E91"></circle><circle cx="375.8" cy="526.1" r="1.8" fill="#6D3E91"></circle><circle cx="398.4" cy="526.3" r="1.8" fill="#6D3E91"></circle><circle cx="421" cy="526.6" r="1.8" fill="#6D3E91"></circle><circle cx="443.7" cy="526.8" r="1.8" fill="#6D3E91"></circle><circle cx="466.3" cy="527.1" r="1.8" fill="#6D3E91"></circle><circle cx="489" cy="527.2" r="1.8" fill="#6D3E91"></circle><circle cx="511.6" cy="527.4" r="1.8" fill="#6D3E91"></circle><circle cx="534.3" cy="527.7" r="1.8" fill="#6D3E91"></circle><circle cx="556.9" cy="527.9" r="1.8" fill="#6D3E91"></circle><circle cx="579.5" cy="528.1" r="1.8" fill="#6D3E91"></circle><circle cx="602.2" cy="528.2" r="1.8" fill="#6D3E91"></circle><circle cx="624.8" cy="528.3" r="1.8" fill="#6D3E91"></circle><circle cx="647.5" cy="528.4" r="1.8" fill="#6D3E91"></circle><circle cx="670.1" cy="528.5" r="1.8" fill="#6D3E91"></circle><circle cx="692.8" cy="528.7" r="1.8" fill="#6D3E91"></circle></g></g><g><path fill="none" stroke-linecap="butt" stroke-linejoin="round" stroke="#fff" stroke-width="2.5" d="M36.1 526.5L58.8 526.7L81.4 526.8L104 527L126.7 527.1L149.3 525.1L172 526.4L194.6 526.5L217.3 526.6L239.9 526.8L262.5 526.3L285.2 526.5L307.8 526.7L330.5 528.4L353.1 528.6L375.8 528.7L398.4 528.8L421 529L443.7 529.1L466.3 529.2L489 529.2L511.6 529.3L534.3 529.4L556.9 529.4L579.5 529.5L602.2 529.5L624.8 529.5L647.5 529.6L670.1 529.6L692.8 529.6"></path><polyline points="36.10,526.50 58.80,526.70 81.40,526.80 104.00,527.00 126.70,527.10 149.30,525.10 172.00,526.40 194.60,526.50 217.30,526.60 239.90,526.80 262.50,526.30 285.20,526.50 307.80,526.70 330.50,528.40 353.10,528.60 375.80,528.70 398.40,528.80 421.00,529.00 443.70,529.10 466.30,529.20 489.00,529.20 511.60,529.30 534.30,529.40 556.90,529.40 579.50,529.50 602.20,529.50 624.80,529.50 647.50,529.60 670.10,529.60 692.80,529.60" stroke-linejoin="round" stroke-width="1.5" stroke="#BE5915" fill="none" stroke-linecap="butt"></polyline><g><circle cx="36.1" cy="526.5" r="1.8" fill="#BE5915"></circle><circle cx="58.8" cy="526.7" r="1.8" fill="#BE5915"></circle><circle cx="81.4" cy="526.8" r="1.8" fill="#BE5915"></circle><circle cx="104" cy="527" r="1.8" fill="#BE5915"></circle><circle cx="126.7" cy="527.1" r="1.8" fill="#BE5915"></circle><circle cx="149.3" cy="525.1" r="1.8" fill="#BE5915"></circle><circle cx="172" cy="526.4" r="1.8" fill="#BE5915"></circle><circle cx="194.6" cy="526.5" r="1.8" fill="#BE5915"></circle><circle cx="217.3" cy="526.6" r="1.8" fill="#BE5915"></circle><circle cx="239.9" cy="526.8" r="1.8" fill="#BE5915"></circle><circle cx="262.5" cy="526.3" r="1.8" fill="#BE5915"></circle><circle cx="285.2" cy="526.5" r="1.8" fill="#BE5915"></circle><circle cx="307.8" cy="526.7" r="1.8" fill="#BE5915"></circle><circle cx="330.5" cy="528.4" r="1.8" fill="#BE5915"></circle><circle cx="353.1" cy="528.6" r="1.8" fill="#BE5915"></circle><circle cx="375.8" cy="528.7" r="1.8" fill="#BE5915"></circle><circle cx="398.4" cy="528.8" r="1.8" fill="#BE5915"></circle><circle cx="421" cy="529" r="1.8" fill="#BE5915"></circle><circle cx="443.7" cy="529.1" r="1.8" fill="#BE5915"></circle><circle cx="466.3" cy="529.2" r="1.8" fill="#BE5915"></circle><circle cx="489" cy="529.2" r="1.8" fill="#BE5915"></circle><circle cx="511.6" cy="529.3" r="1.8" fill="#BE5915"></circle><circle cx="534.3" cy="529.4" r="1.8" fill="#BE5915"></circle><circle cx="556.9" cy="529.4" r="1.8" fill="#BE5915"></circle><circle cx="579.5" cy="529.5" r="1.8" fill="#BE5915"></circle><circle cx="602.2" cy="529.5" r="1.8" fill="#BE5915"></circle><circle cx="624.8" cy="529.5" r="1.8" fill="#BE5915"></circle><circle cx="647.5" cy="529.6" r="1.8" fill="#BE5915"></circle><circle cx="670.1" cy="529.6" r="1.8" fill="#BE5915"></circle><circle cx="692.8" cy="529.6" r="1.8" fill="#BE5915"></circle></g></g><g><path fill="none" stroke-linecap="butt" stroke-linejoin="round" stroke="#fff" stroke-width="2.5" d="M36.1 507.9L58.8 508.3L81.4 509L104 509.6L126.7 510.3L149.3 492.5L172 505.9L194.6 506.6L217.3 507.4L239.9 508.5L262.5 501.6L285.2 502.6L307.8 503.7L330.5 518L353.1 518.8L375.8 519.6L398.4 520.1L421 520.7L443.7 521.1L466.3 521.4L489 521.5L511.6 521.8L534.3 522.1L556.9 522.5L579.5 522.9L602.2 523.1L624.8 523.3L647.5 523.5L670.1 523.7L692.8 523.9"></path><polyline points="36.10,507.90 58.80,508.30 81.40,509.00 104.00,509.60 126.70,510.30 149.30,492.50 172.00,505.90 194.60,506.60 217.30,507.40 239.90,508.50 262.50,501.60 285.20,502.60 307.80,503.70 330.50,518.00 353.10,518.80 375.80,519.60 398.40,520.10 421.00,520.70 443.70,521.10 466.30,521.40 489.00,521.50 511.60,521.80 534.30,522.10 556.90,522.50 579.50,522.90 602.20,523.10 624.80,523.30 647.50,523.50 670.10,523.70 692.80,523.90" stroke-linejoin="round" stroke-width="1.5" stroke="#2C8465" fill="none" stroke-linecap="butt"></polyline><g><circle cx="36.1" cy="507.9" r="1.8" fill="#2C8465"></circle><circle cx="58.8" cy="508.3" r="1.8" fill="#2C8465"></circle><circle cx="81.4" cy="509" r="1.8" fill="#2C8465"></circle><circle cx="104" cy="509.6" r="1.8" fill="#2C8465"></circle><circle cx="126.7" cy="510.3" r="1.8" fill="#2C8465"></circle><circle cx="149.3" cy="492.5" r="1.8" fill="#2C8465"></circle><circle cx="172" cy="505.9" r="1.8" fill="#2C8465"></circle><circle cx="194.6" cy="506.6" r="1.8" fill="#2C8465"></circle><circle cx="217.3" cy="507.4" r="1.8" fill="#2C8465"></circle><circle cx="239.9" cy="508.5" r="1.8" fill="#2C8465"></circle><circle cx="262.5" cy="501.6" r="1.8" fill="#2C8465"></circle><circle cx="285.2" cy="502.6" r="1.8" fill="#2C8465"></circle><circle cx="307.8" cy="503.7" r="1.8" fill="#2C8465"></circle><circle cx="330.5" cy="518" r="1.8" fill="#2C8465"></circle><circle cx="353.1" cy="518.8" r="1.8" fill="#2C8465"></circle><circle cx="375.8" cy="519.6" r="1.8" fill="#2C8465"></circle><circle cx="398.4" cy="520.1" r="1.8" fill="#2C8465"></circle><circle cx="421" cy="520.7" r="1.8" fill="#2C8465"></circle><circle cx="443.7" cy="521.1" r="1.8" fill="#2C8465"></circle><circle cx="466.3" cy="521.4" r="1.8" fill="#2C8465"></circle><circle cx="489" cy="521.5" r="1.8" fill="#2C8465"></circle><circle cx="511.6" cy="521.8" r="1.8" fill="#2C8465"></circle><circle cx="534.3" cy="522.1" r="1.8" fill="#2C8465"></circle><circle cx="556.9" cy="522.5" r="1.8" fill="#2C8465"></circle><circle cx="579.5" cy="522.9" r="1.8" fill="#2C8465"></circle><circle cx="602.2" cy="523.1" r="1.8" fill="#2C8465"></circle><circle cx="624.8" cy="523.3" r="1.8" fill="#2C8465"></circle><circle cx="647.5" cy="523.5" r="1.8" fill="#2C8465"></circle><circle cx="670.1" cy="523.7" r="1.8" fill="#2C8465"></circle><circle cx="692.8" cy="523.9" r="1.8" fill="#2C8465"></circle></g></g><g><path fill="none" stroke-linecap="butt" stroke-linejoin="round" stroke="#fff" stroke-width="2.5" d="M36.1 140.7L58.8 161.4L81.4 180.4L104 195.9L126.7 208.4L149.3 201.4L172 204.6L194.6 219L217.3 234.5L239.9 249.4L262.5 282.2L285.2 298.5L307.8 312.9L330.5 340L353.1 353.8L375.8 365.1L398.4 374.9L421 385L443.7 394.3L466.3 403.4L489 405.5L511.6 412.2L534.3 423.8L556.9 429.2L579.5 434.8L602.2 440.3L624.8 445.5L647.5 450.5L670.1 457L692.8 461.9"></path><polyline points="36.10,140.70 58.80,161.40 81.40,180.40 104.00,195.90 126.70,208.40 149.30,201.40 172.00,204.60 194.60,219.00 217.30,234.50 239.90,249.40 262.50,282.20 285.20,298.50 307.80,312.90 330.50,340.00 353.10,353.80 375.80,365.10 398.40,374.90 421.00,385.00 443.70,394.30 466.30,403.40 489.00,405.50 511.60,412.20 534.30,423.80 556.90,429.20 579.50,434.80 602.20,440.30 624.80,445.50 647.50,450.50 670.10,457.00 692.80,461.90" stroke-linejoin="round" stroke-width="1.5" stroke="#C15065" fill="none" stroke-linecap="butt"></polyline><g><circle cx="36.1" cy="140.7" r="1.8" fill="#C15065"></circle><circle cx="58.8" cy="161.4" r="1.8" fill="#C15065"></circle><circle cx="81.4" cy="180.4" r="1.8" fill="#C15065"></circle><circle cx="104" cy="195.9" r="1.8" fill="#C15065"></circle><circle cx="126.7" cy="208.4" r="1.8" fill="#C15065"></circle><circle cx="149.3" cy="201.4" r="1.8" fill="#C15065"></circle><circle cx="172" cy="204.6" r="1.8" fill="#C15065"></circle><circle cx="194.6" cy="219" r="1.8" fill="#C15065"></circle><circle cx="217.3" cy="234.5" r="1.8" fill="#C15065"></circle><circle cx="239.9" cy="249.4" r="1.8" fill="#C15065"></circle><circle cx="262.5" cy="282.2" r="1.8" fill="#C15065"></circle><circle cx="285.2" cy="298.5" r="1.8" fill="#C15065"></circle><circle cx="307.8" cy="312.9" r="1.8" fill="#C15065"></circle><circle cx="330.5" cy="340" r="1.8" fill="#C15065"></circle><circle cx="353.1" cy="353.8" r="1.8" fill="#C15065"></circle><circle cx="375.8" cy="365.1" r="1.8" fill="#C15065"></circle><circle cx="398.4" cy="374.9" r="1.8" fill="#C15065"></circle><circle cx="421" cy="385" r="1.8" fill="#C15065"></circle><circle cx="443.7" cy="394.3" r="1.8" fill="#C15065"></circle><circle cx="466.3" cy="403.4" r="1.8" fill="#C15065"></circle><circle cx="489" cy="405.5" r="1.8" fill="#C15065"></circle><circle cx="511.6" cy="412.2" r="1.8" fill="#C15065"></circle><circle cx="534.3" cy="423.8" r="1.8" fill="#C15065"></circle><circle cx="556.9" cy="429.2" r="1.8" fill="#C15065"></circle><circle cx="579.5" cy="434.8" r="1.8" fill="#C15065"></circle><circle cx="602.2" cy="440.3" r="1.8" fill="#C15065"></circle><circle cx="624.8" cy="445.5" r="1.8" fill="#C15065"></circle><circle cx="647.5" cy="450.5" r="1.8" fill="#C15065"></circle><circle cx="670.1" cy="457" r="1.8" fill="#C15065"></circle><circle cx="692.8" cy="461.9" r="1.8" fill="#C15065"></circle></g></g></g></g></g></g><g class="SourcesFooter" style="fill:#5b5b5b"><text x="16.0" y="580.9" style="font-size:13.5px;line-height:1.2"><tspan x="16" y="580.9"><tspan style="font-weight:700">Data source:</tspan> IHME, Global Burden of Disease (2019)</tspan></text><text font-size="13.50" x="559.5" y="580.9"><tspan x="559.545" y="580.895"><a target="_blank" style="fill: #5b5b5b;  text-decoration: underline;" href="https://ourworldindata.org/causes-of-death">OurWorldInData.org/causes-of-death</a> | <a target="_blank" style="fill: #5b5b5b;  text-decoration: underline;" href="https://creativecommons.org/licenses/by/4.0/">CC BY</a></tspan></text></g></svg>