<svg xmlns="http://www.w3.org/2000/svg" version="1.1" style="font-family:Lato, &#x27;Helvetica Neue&#x27;, Helvetica, Arial, &#x27;Liberation Sans&#x27;, sans-serif;font-size:18px;background-color:white;text-rendering:geometricPrecision;-webkit-font-smoothing:antialiased" width="850" height="600" viewBox="0 0 850 600"><defs><style>@import url(http://localhost:3030/fonts.css)</style></defs><defs><pattern id="noDataPattern" patternUnits="userSpaceOnUse" width="4" height="4" patternTransform="rotate(-45 2 2)"><path d="M -1,2 l 6,0" stroke="#ccc" stroke-width="0.7"></path></pattern></defs><rect class="background-fill" fill="white" width="850" height="600"></rect><g class="HeaderView"><g transform="translate(769, 16) scale(1)"><svg className="owidLogo" xmlns="http://www.w3.org/2000/svg" width="65" height="36" viewBox="0 0 65 36"  fill="none"><path fill="#002147" d="M0 0h64.8v36H0z"/><path fill="#CE261E" d="M0 33.3h64.8V36H0z"/><path fill="#fff" d="M13.796 10.575c0 .636-.106 1.226-.318 1.77a4.193 4.193 0 0 1-.894 1.404 4.084 4.084 0 0 1-1.386.93c-.54.22-1.138.33-1.794.33-.656 0-1.256-.11-1.8-.33a4.149 4.149 0 0 1-1.392-.93 4.193 4.193 0 0 1-.894-1.404A4.833 4.833 0 0 1 5 10.575c0-.636.106-1.224.318-1.764a4.18 4.18 0 0 1 .894-1.41 4.076 4.076 0 0 1 1.392-.924 4.684 4.684 0 0 1 1.8-.336c.656 0 1.254.112 1.794.336.54.224 1.002.534 1.386.93.384.392.682.86.894 1.404.212.54.318 1.128.318 1.764Zm-1.656 0c0-.476-.064-.902-.192-1.278a2.671 2.671 0 0 0-.54-.966 2.332 2.332 0 0 0-.864-.606 2.94 2.94 0 0 0-1.14-.21c-.424 0-.806.07-1.146.21-.34.14-.63.342-.87.606a2.742 2.742 0 0 0-.546.966 3.955 3.955 0 0 0-.192 1.278c0 .476.064.904.192 1.284.128.376.31.696.546.96.24.26.53.46.87.6.34.14.722.21 1.146.21.424 0 .804-.07 1.14-.21.34-.14.628-.34.864-.6.236-.264.416-.584.54-.96a4.01 4.01 0 0 0 .192-1.284ZM16.104 8.757v3.912c0 .376.086.668.258.876.176.204.438.306.786.306.256 0 .496-.056.72-.168a2.58 2.58 0 0 0 .636-.474V8.757h1.482v6.156h-.906c-.192 0-.318-.09-.378-.27l-.102-.492a4.65 4.65 0 0 1-.396.354 2.577 2.577 0 0 1-.438.27 2.35 2.35 0 0 1-.498.168 2.345 2.345 0 0 1-.57.066c-.336 0-.634-.056-.894-.168a1.821 1.821 0 0 1-.648-.486 2.157 2.157 0 0 1-.402-.738 3.233 3.233 0 0 1-.132-.948V8.757h1.482ZM21.328 14.913V8.757h.87c.152 0 .258.028.318.084.06.056.1.152.12.288l.09.744c.22-.38.478-.68.774-.9.296-.22.628-.33.996-.33.304 0 .556.07.756.21l-.192 1.11c-.012.072-.038.124-.078.156a.278.278 0 0 1-.162.042 1.01 1.01 0 0 1-.246-.042 1.646 1.646 0 0 0-.414-.042c-.308 0-.572.086-.792.258-.22.168-.406.416-.558.744v3.834h-1.482ZM27.347 6.237h1.356a.57.57 0 0 1 .348.102c.096.064.16.152.192.264l1.476 5.19c.036.128.068.268.096.42.032.148.062.306.09.474a5.968 5.968 0 0 1 .228-.894l1.704-5.19a.575.575 0 0 1 .186-.252.543.543 0 0 1 .348-.114h.474a.57.57 0 0 1 .348.102.497.497 0 0 1 .192.264l1.692 5.19c.088.256.164.54.228.852.028-.156.056-.306.084-.45.032-.144.064-.278.096-.402l1.476-5.19c.028-.1.09-.186.186-.258a.563.563 0 0 1 .348-.108h1.266l-2.694 8.676h-1.458l-1.896-5.928-.078-.246a9.504 9.504 0 0 1-.072-.282c-.024.1-.05.194-.078.282-.024.088-.048.17-.072.246l-1.914 5.928H30.04l-2.694-8.676ZM42.771 8.661c.46 0 .876.074 1.248.222.376.148.696.358.96.63s.468.604.612.996c.144.392.216.83.216 1.314 0 .488-.072.928-.216 1.32a2.85 2.85 0 0 1-.612 1.002 2.653 2.653 0 0 1-.96.636 3.35 3.35 0 0 1-1.248.222c-.46 0-.878-.074-1.254-.222a2.712 2.712 0 0 1-.966-.636 2.922 2.922 0 0 1-.618-1.002 3.807 3.807 0 0 1-.216-1.32c0-.484.072-.922.216-1.314.148-.392.354-.724.618-.996.268-.272.59-.482.966-.63a3.397 3.397 0 0 1 1.254-.222Zm0 5.202c.512 0 .89-.172 1.134-.516.248-.344.372-.848.372-1.512s-.124-1.17-.372-1.518c-.244-.348-.622-.522-1.134-.522-.52 0-.904.176-1.152.528-.248.348-.372.852-.372 1.512s.124 1.164.372 1.512c.248.344.632.516 1.152.516ZM46.723 14.913V8.757h.87c.152 0 .258.028.318.084.06.056.1.152.12.288l.09.744c.22-.38.478-.68.774-.9.296-.22.628-.33.996-.33.304 0 .556.07.756.21l-.192 1.11c-.012.072-.038.124-.078.156a.278.278 0 0 1-.162.042 1.01 1.01 0 0 1-.246-.042 1.646 1.646 0 0 0-.414-.042c-.308 0-.572.086-.792.258-.22.168-.406.416-.558.744v3.834h-1.482ZM52.96 5.997v8.916h-1.482V5.997h1.482ZM58.732 14.913c-.192 0-.318-.09-.378-.27l-.12-.594a3.68 3.68 0 0 1-.402.39c-.14.116-.292.216-.456.3-.16.084-.334.148-.522.192a2.372 2.372 0 0 1-.6.072c-.336 0-.644-.07-.924-.21a2.098 2.098 0 0 1-.726-.606 3.033 3.033 0 0 1-.468-.99 5.072 5.072 0 0 1-.162-1.344c0-.456.062-.88.186-1.272s.302-.732.534-1.02c.232-.288.51-.512.834-.672a2.384 2.384 0 0 1 1.092-.246 2.103 2.103 0 0 1 1.536.606V5.997h1.482v8.916h-.906Zm-1.974-1.086c.308 0 .57-.064.786-.192.216-.128.42-.31.612-.546v-2.76a1.452 1.452 0 0 0-.552-.432 1.597 1.597 0 0 0-.636-.126c-.224 0-.428.042-.612.126a1.21 1.21 0 0 0-.462.384c-.124.168-.22.384-.288.648-.068.26-.102.568-.102.924 0 .36.028.666.084.918.06.248.144.452.252.612.108.156.24.27.396.342.156.068.33.102.522.102ZM16.331 20.757v6.156H14.85v-6.156h1.481Zm.223-1.794a.844.844 0 0 1-.078.36.963.963 0 0 1-.21.294.995.995 0 0 1-.3.204.963.963 0 0 1-.372.072.948.948 0 0 1-.367-.072 1.018 1.018 0 0 1-.498-.498.963.963 0 0 1 0-.732.995.995 0 0 1 .205-.3.929.929 0 0 1 .293-.198.899.899 0 0 1 .738 0 .912.912 0 0 1 .3.198.943.943 0 0 1 .288.672ZM17.771 26.913v-6.156h.906c.192 0 .318.09.378.27l.102.486a2.934 2.934 0 0 1 .828-.618c.156-.076.322-.134.498-.174.176-.04.368-.06.576-.06.336 0 .634.058.894.174.26.112.476.272.648.48.176.204.308.45.396.738.092.284.138.598.138.942v3.918h-1.482v-3.918c0-.376-.088-.666-.264-.87-.172-.208-.432-.312-.78-.312-.256 0-.496.058-.72.174a2.58 2.58 0 0 0-.636.474v4.452h-1.482ZM34.22 22.575c0 .636-.106 1.22-.318 1.752-.212.532-.51.99-.894 1.374a4 4 0 0 1-1.386.894 4.87 4.87 0 0 1-1.794.318h-3.312v-8.676h3.312a4.79 4.79 0 0 1 1.794.324 4 4 0 0 1 1.386.894c.384.38.682.836.894 1.368.212.532.318 1.116.318 1.752Zm-1.65 0c0-.476-.064-.902-.192-1.278a2.68 2.68 0 0 0-.546-.96 2.332 2.332 0 0 0-.864-.606 2.94 2.94 0 0 0-1.14-.21h-1.686v6.108h1.686c.424 0 .804-.07 1.14-.21.34-.14.628-.34.864-.6a2.75 2.75 0 0 0 .546-.96 4.01 4.01 0 0 0 .192-1.284ZM39.98 26.913h-.665c-.14 0-.25-.02-.33-.06-.08-.044-.14-.13-.18-.258l-.132-.438c-.156.14-.31.264-.462.372a2.804 2.804 0 0 1-.462.264c-.16.072-.33.126-.51.162-.18.036-.38.054-.6.054-.26 0-.5-.034-.72-.102a1.618 1.618 0 0 1-.57-.318 1.448 1.448 0 0 1-.366-.522 1.852 1.852 0 0 1-.132-.726c0-.232.06-.46.18-.684.124-.228.328-.432.612-.612.284-.184.662-.336 1.134-.456.472-.12 1.058-.188 1.758-.204v-.36c0-.412-.088-.716-.264-.912-.172-.2-.424-.3-.756-.3a1.837 1.837 0 0 0-1.02.276c-.116.068-.224.13-.324.186a.664.664 0 0 1-.33.084.429.429 0 0 1-.258-.078.614.614 0 0 1-.174-.192l-.27-.474c.708-.648 1.562-.972 2.562-.972.36 0 .68.06.96.18.284.116.524.28.72.492.196.208.344.458.444.75.104.292.156.612.156.96v3.888Zm-2.88-.924c.153 0 .293-.014.42-.042.129-.028.249-.07.36-.126.117-.056.227-.124.33-.204.109-.084.217-.182.325-.294v-1.038c-.432.02-.794.058-1.086.114-.288.052-.52.12-.696.204a.923.923 0 0 0-.378.294.664.664 0 0 0-.108.366c0 .26.076.446.228.558.156.112.358.168.606.168ZM43.22 27.01c-.532 0-.942-.15-1.23-.45-.288-.305-.432-.723-.432-1.255v-3.438h-.624a.31.31 0 0 1-.21-.078c-.056-.052-.084-.13-.084-.234v-.588l.99-.162.312-1.68a.302.302 0 0 1 .108-.186.365.365 0 0 1 .222-.066h.768v1.938h1.62v1.056h-1.62v3.336c0 .192.048.342.144.45a.488.488 0 0 0 .384.162c.092 0 .168-.01.228-.03.064-.024.118-.048.162-.072.048-.024.09-.046.126-.066a.194.194 0 0 1 .108-.036.16.16 0 0 1 .108.036c.028.02.058.052.09.096l.444.72c-.216.18-.464.316-.744.408a2.77 2.77 0 0 1-.87.138ZM50.423 26.913h-.666c-.14 0-.25-.02-.33-.06-.08-.044-.14-.13-.18-.258l-.132-.438c-.156.14-.31.264-.462.372a2.804 2.804 0 0 1-.462.264c-.16.072-.33.126-.51.162-.18.036-.38.054-.6.054-.26 0-.5-.034-.72-.102a1.618 1.618 0 0 1-.57-.318 1.448 1.448 0 0 1-.366-.522 1.852 1.852 0 0 1-.132-.726c0-.232.06-.46.18-.684.124-.228.328-.432.612-.612.284-.184.662-.336 1.134-.456.472-.12 1.058-.188 1.758-.204v-.36c0-.412-.088-.716-.264-.912-.172-.2-.424-.3-.756-.3a1.837 1.837 0 0 0-1.02.276c-.116.068-.224.13-.324.186a.664.664 0 0 1-.33.084.429.429 0 0 1-.258-.078.614.614 0 0 1-.174-.192l-.27-.474c.708-.648 1.562-.972 2.562-.972.36 0 .68.06.96.18.284.116.524.28.72.492.196.208.344.458.444.75.104.292.156.612.156.96v3.888Zm-2.88-.924c.152 0 .292-.014.42-.042.128-.028.248-.07.36-.126.116-.056.226-.124.33-.204.108-.084.216-.182.324-.294v-1.038c-.432.02-.794.058-1.086.114-.288.052-.52.12-.696.204a.923.923 0 0 0-.378.294.664.664 0 0 0-.108.366c0 .26.076.446.228.558.156.112.358.168.606.168Z"/></svg></g><a href="http://localhost:3030/grapher/marriage-rate-1990-vs-2010" style="font-family:&#x27;Playfair Display&#x27;, Georgia, &#x27;Times New Roman&#x27;, &#x27;Liberation Serif&#x27;, serif" target="_blank" rel="noopener"><text font-size="24.75" font-weight="600" x="16.0" y="40.0" fill="#5b5b5b"><tspan x="16" y="40.0075">Marriages per 1,000 people, 1990 vs. 2010</tspan></text></a><text x="16.0" y="63.9" style="font-size:14.625px;line-height:1.2" fill="#5b5b5b"><tspan x="16" y="63.9">Estimates correspond to closest year with available estimates. Bubble sizes are proportional to the population in</tspan><tspan x="16" y="81.4">2010.</tspan></text></g><g style="pointer-events:none"><g class="ScatterPlot"><g class="DualAxisView"><g class="HorizontalAxis"><text font-size="13.50" x="327.7" y="529.8" fill="#5b5b5b"><tspan x="327.735" y="529.845">Marriage rate in 1990</tspan></text><text x="52.06" y="508.1" fill="#5b5b5b" text-anchor="start" font-size="13.5">0</text><text x="190.9" y="508.1" fill="#5b5b5b" text-anchor="middle" font-size="13.5">2</text><text x="329.7" y="508.1" fill="#5b5b5b" text-anchor="middle" font-size="13.5">4</text><text x="468.5" y="508.1" fill="#5b5b5b" text-anchor="middle" font-size="13.5">6</text><text x="607.3" y="508.1" fill="#5b5b5b" text-anchor="middle" font-size="13.5">8</text></g><g class="VerticalAxis"><text font-size="13.50" x="-362.6" y="27.7" transform="rotate(-90)" fill="#5b5b5b"><tspan x="-362.595" y="27.745">Marriage rate in 2010</tspan></text><text x="47.06" y="489.6" dy=".32em" text-anchor="end" fill="#5b5b5b" font-size="13.5">0</text><text x="47.06" y="407.3" dy=".32em" text-anchor="end" fill="#5b5b5b" font-size="13.5">2</text><text x="47.06" y="325" dy=".32em" text-anchor="end" fill="#5b5b5b" font-size="13.5">4</text><text x="47.06" y="242.6" dy=".32em" text-anchor="end" fill="#5b5b5b" font-size="13.5">6</text><text x="47.06" y="160.3" dy=".32em" text-anchor="end" fill="#5b5b5b" font-size="13.5">8</text></g><g class="AxisGridLines horizontalLines"><line x1="52.06" y1="489.6" x2="732.20" y2="489.6" stroke="#999" stroke-width="1"></line><line x1="52.06" y1="407.3" x2="732.20" y2="407.3" stroke="#ddd" stroke-width="1" stroke-dasharray="3,2"></line><line x1="52.06" y1="325" x2="732.20" y2="325" stroke="#ddd" stroke-width="1" stroke-dasharray="3,2"></line><line x1="52.06" y1="242.6" x2="732.20" y2="242.6" stroke="#ddd" stroke-width="1" stroke-dasharray="3,2"></line><line x1="52.06" y1="160.3" x2="732.20" y2="160.3" stroke="#ddd" stroke-width="1" stroke-dasharray="3,2"></line></g><g class="AxisGridLines verticalLines"><line x1="52.1" y1="489.60" x2="52.1" y2="106.80" stroke="#999" stroke-width="1"></line><line x1="190.9" y1="489.60" x2="190.9" y2="106.80" stroke="#ddd" stroke-width="1" stroke-dasharray="3,2"></line><line x1="329.7" y1="489.60" x2="329.7" y2="106.80" stroke="#ddd" stroke-width="1" stroke-dasharray="3,2"></line><line x1="468.5" y1="489.60" x2="468.5" y2="106.80" stroke="#ddd" stroke-width="1" stroke-dasharray="3,2"></line><line x1="607.3" y1="489.60" x2="607.3" y2="106.80" stroke="#ddd" stroke-width="1" stroke-dasharray="3,2"></line></g></g><g class="comparisonLine"><defs><clipPath id="axisBounds-1"><rect x="52.06" y="106.8" width="680.1400000000001" height="382.8"></rect></clipPath></defs><path style="opacity:0.9;fill:none;stroke:#ccc;stroke-dasharray:2 2" id="path-1" d="M52.1,489.6L53.4,488.8L54.8,488L56.1,487.2L57.5,486.4L58.9,485.6L60.2,484.8L61.6,484L62.9,483.1L64.3,482.3L65.7,481.5L67,480.7L68.4,479.9L69.7,479.1L71.1,478.3L72.5,477.5L73.8,476.7L75.2,475.9L76.5,475.1L77.9,474.3L79.3,473.5L80.6,472.7L82,471.9L83.3,471L84.7,470.2L86.1,469.4L87.4,468.6L88.8,467.8L90.1,467L91.5,466.2L92.9,465.4L94.2,464.6L95.6,463.8L96.9,463L98.3,462.2L99.7,461.4L101,460.6L102.4,459.7L103.8,458.9L105.1,458.1L106.5,457.3L107.8,456.5L109.2,455.7L110.6,454.9L111.9,454.1L113.3,453.3L114.6,452.5L116,451.7L117.4,450.9L118.7,450.1L120.1,449.3L121.4,448.5L122.8,447.6L124.2,446.8L125.5,446L126.9,445.2L128.2,444.4L129.6,443.6L131,442.8L132.3,442L133.7,441.2L135,440.4L136.4,439.6L137.8,438.8L139.1,438L140.5,437.2L141.8,436.4L143.2,435.5L144.6,434.7L145.9,433.9L147.3,433.1L148.6,432.3L150,431.5L151.4,430.7L152.7,429.9L154.1,429.1L155.4,428.3L156.8,427.5L158.2,426.7L159.5,425.9L160.9,425.1L162.2,424.3L163.6,423.4L165,422.6L166.3,421.8L167.7,421L169,420.2L170.4,419.4L171.8,418.6L173.1,417.8L174.5,417L175.8,416.2L177.2,415.4L178.6,414.6L179.9,413.8L181.3,413L182.6,412.2L184,411.3L185.4,410.5L186.7,409.7L188.1,408.9L189.4,408.1L190.8,407.3L192.2,406.5L193.5,405.7L194.9,404.9L196.2,404.1L197.6,403.3L199,402.5L200.3,401.7L201.7,400.9L203.1,400L204.4,399.2L205.8,398.4L207.1,397.6L208.5,396.8L209.9,396L211.2,395.2L212.6,394.4L213.9,393.6L215.3,392.8L216.7,392L218,391.2L219.4,390.4L220.7,389.6L222.1,388.8L223.5,387.9L224.8,387.1L226.2,386.3L227.5,385.5L228.9,384.7L230.3,383.9L231.6,383.1L233,382.3L234.3,381.5L235.7,380.7L237.1,379.9L238.4,379.1L239.8,378.3L241.1,377.5L242.5,376.7L243.9,375.8L245.2,375L246.6,374.2L247.9,373.4L249.3,372.6L250.7,371.8L252,371L253.4,370.2L254.7,369.4L256.1,368.6L257.5,367.8L258.8,367L260.2,366.2L261.5,365.4L262.9,364.6L264.3,363.7L265.6,362.9L267,362.1L268.3,361.3L269.7,360.5L271.1,359.7L272.4,358.9L273.8,358.1L275.1,357.3L276.5,356.5L277.9,355.7L279.2,354.9L280.6,354.1L281.9,353.3L283.3,352.5L284.7,351.6L286,350.8L287.4,350L288.7,349.2L290.1,348.4L291.5,347.6L292.8,346.8L294.2,346L295.6,345.2L296.9,344.4L298.3,343.6L299.6,342.8L301,342L302.4,341.2L303.7,340.3L305.1,339.5L306.4,338.7L307.8,337.9L309.2,337.1L310.5,336.3L311.9,335.5L313.2,334.7L314.6,333.9L316,333.1L317.3,332.3L318.7,331.5L320,330.7L321.4,329.9L322.8,329.1L324.1,328.2L325.5,327.4L326.8,326.6L328.2,325.8L329.6,325L330.9,324.2L332.3,323.4L333.6,322.6L335,321.8L336.4,321L337.7,320.2L339.1,319.4L340.4,318.6L341.8,317.8L343.2,317L344.5,316.1L345.9,315.3L347.2,314.5L348.6,313.7L350,312.9L351.3,312.1L352.7,311.3L354,310.5L355.4,309.7L356.8,308.9L358.1,308.1L359.5,307.3L360.8,306.5L362.2,305.7L363.6,304.9L364.9,304L366.3,303.2L367.6,302.4L369,301.6L370.4,300.8L371.7,300L373.1,299.2L374.4,298.4L375.8,297.6L377.2,296.8L378.5,296L379.9,295.2L381.2,294.4L382.6,293.6L384,292.8L385.3,291.9L386.7,291.1L388,290.3L389.4,289.5L390.8,288.7L392.1,287.9L393.5,287.1L394.9,286.3L396.2,285.5L397.6,284.7L398.9,283.9L400.3,283.1L401.7,282.3L403,281.5L404.4,280.6L405.7,279.8L407.1,279L408.5,278.2L409.8,277.4L411.2,276.6L412.5,275.8L413.9,275L415.3,274.2L416.6,273.4L418,272.6L419.3,271.8L420.7,271L422.1,270.2L423.4,269.4L424.8,268.5L426.1,267.7L427.5,266.9L428.9,266.1L430.2,265.3L431.6,264.5L432.9,263.7L434.3,262.9L435.7,262.1L437,261.3L438.4,260.5L439.7,259.7L441.1,258.9L442.5,258.1L443.8,257.3L445.2,256.4L446.5,255.6L447.9,254.8L449.3,254L450.6,253.2L452,252.4L453.3,251.6L454.7,250.8L456.1,250L457.4,249.2L458.8,248.4L460.1,247.6L461.5,246.8L462.9,246L464.2,245.2L465.6,244.3L466.9,243.5L468.3,242.7L469.7,241.9L471,241.1L472.4,240.3L473.7,239.5L475.1,238.7L476.5,237.9L477.8,237.1L479.2,236.3L480.5,235.5L481.9,234.7L483.3,233.9L484.6,233L486,232.2L487.3,231.4L488.7,230.6L490.1,229.8L491.4,229L492.8,228.2L494.2,227.4L495.5,226.6L496.9,225.8L498.2,225L499.6,224.2L501,223.4L502.3,222.6L503.7,221.8L505,220.9L506.4,220.1L507.8,219.3L509.1,218.5L510.5,217.7L511.8,216.9L513.2,216.1L514.6,215.3L515.9,214.5L517.3,213.7L518.6,212.9L520,212.1L521.4,211.3L522.7,210.5L524.1,209.7L525.4,208.8L526.8,208L528.2,207.2L529.5,206.4L530.9,205.6L532.2,204.8L533.6,204L535,203.2L536.3,202.4L537.7,201.6L539,200.8L540.4,200L541.8,199.2L543.1,198.4L544.5,197.6L545.8,196.7L547.2,195.9L548.6,195.1L549.9,194.3L551.3,193.5L552.6,192.7L554,191.9L555.4,191.1L556.7,190.3L558.1,189.5L559.4,188.7L560.8,187.9L562.2,187.1L563.5,186.3L564.9,185.5L566.2,184.6L567.6,183.8L569,183L570.3,182.2L571.7,181.4L573,180.6L574.4,179.8L575.8,179L577.1,178.2L578.5,177.4L579.8,176.6L581.2,175.8L582.6,175L583.9,174.2L585.3,173.3L586.7,172.5L588,171.7L589.4,170.9L590.7,170.1L592.1,169.3L593.5,168.5L594.8,167.7L596.2,166.9L597.5,166.1L598.9,165.3L600.3,164.5L601.6,163.7L603,162.9L604.3,162.1L605.7,161.2L607.1,160.4L608.4,159.6L609.8,158.8L611.1,158L612.5,157.2L613.9,156.4L615.2,155.6L616.6,154.8L617.9,154L619.3,153.2L620.7,152.4L622,151.6L623.4,150.8L624.7,150L626.1,149.1L627.5,148.3L628.8,147.5L630.2,146.7L631.5,145.9L632.9,145.1L634.3,144.3L635.6,143.5L637,142.7L638.3,141.9L639.7,141.1L641.1,140.3L642.4,139.5L643.8,138.7L645.1,137.9L646.5,137L647.9,136.2L649.2,135.4L650.6,134.6L651.9,133.8L653.3,133L654.7,132.2L656,131.4L657.4,130.6L658.7,129.8L660.1,129L661.5,128.2L662.8,127.4L664.2,126.6L665.5,125.8L666.9,124.9L668.3,124.1L669.6,123.3L671,122.5L672.3,121.7L673.7,120.9L675.1,120.1L676.4,119.3L677.8,118.5L679.1,117.7L680.5,116.9L681.9,116.1L683.2,115.3L684.6,114.5L686,113.6L687.3,112.8L688.7,112L690,111.2L691.4,110.4L692.8,109.6L694.1,108.8L695.5,108L696.8,107.2" clip-path="url(#axisBounds-1)"></path></g><g class="PointsWithLabels clickable" clip-path="url(#scatterBounds-2)"><rect x="52.06" y="106.8" width="680.1400000000001" height="382.8" fill="rgba(255,255,255,0)"></rect><defs><clipPath id="scatterBounds-2"><rect x="42.06" y="96.8" width="700.1400000000001" height="402.8"></rect></clipPath></defs><g class="key-China"><circle cx="586.00" cy="106.00" r="18.00" fill="#6e7581" opacity="0.8" stroke="#333" stroke-width="0.5" style="transition:fill 250ms"></circle></g><g class="key-United-States"><circle cx="732.00" cy="209.00" r="8.65" fill="#6e7581" opacity="0.8" stroke="#333" stroke-width="0.5" style="transition:fill 250ms"></circle></g><g class="key-Japan"><circle cx="461.00" cy="263.00" r="5.55" fill="#6e7581" opacity="0.8" stroke="#333" stroke-width="0.5" style="transition:fill 250ms"></circle></g><g class="key-Mexico"><circle cx="565.00" cy="283.00" r="5.20" fill="#6e7581" opacity="0.8" stroke="#333" stroke-width="0.5" style="transition:fill 250ms"></circle></g><g class="key-Germany"><circle cx="503.00" cy="296.00" r="4.42" fill="#6e7581" opacity="0.8" stroke="#333" stroke-width="0.5" style="transition:fill 250ms"></circle></g><g class="key-Turkey"><circle cx="551.00" cy="160.00" r="4.19" fill="#6e7581" opacity="0.8" stroke="#333" stroke-width="0.5" style="transition:fill 250ms"></circle></g><g class="key-United-Kingdom"><circle cx="510.00" cy="304.00" r="3.88" fill="#6e7581" opacity="0.8" stroke="#666" stroke-width="0.5" style="transition:fill 250ms"></circle></g><g class="key-France"><circle cx="357.00" cy="329.00" r="3.87" fill="#6e7581" opacity="0.8" stroke="#333" stroke-width="0.5" style="transition:fill 250ms"></circle></g><g class="key-Italy"><circle cx="440.00" cy="337.00" r="3.79" fill="#6e7581" opacity="0.8" stroke="#333" stroke-width="0.5" style="transition:fill 250ms"></circle></g><g class="key-South-Korea"><circle cx="697.00" cy="222.00" r="3.43" fill="#6e7581" opacity="0.8" stroke="#666" stroke-width="0.5" style="transition:fill 250ms"></circle></g><g class="key-Spain"><circle cx="447.00" cy="341.00" r="3.35" fill="#6e7581" opacity="0.8" stroke="#666" stroke-width="0.5" style="transition:fill 250ms"></circle></g><g class="key-Ukraine"><circle cx="635.00" cy="213.00" r="3.31" fill="#6e7581" opacity="0.8" stroke="#666" stroke-width="0.5" style="transition:fill 250ms"></circle></g><g class="key-Argentina"><circle cx="350.00" cy="366.00" r="3.14" fill="#6e7581" opacity="0.8" stroke="#333" stroke-width="0.5" style="transition:fill 250ms"></circle></g><g class="key-Poland"><circle cx="517.00" cy="242.00" r="3.05" fill="#6e7581" opacity="0.8" stroke="#333" stroke-width="0.5" style="transition:fill 250ms"></circle></g><g class="key-Australia"><circle cx="530.00" cy="267.00" r="2.30" fill="#6e7581" opacity="0.8" stroke="#666" stroke-width="0.5" style="transition:fill 250ms"></circle></g><g class="key-Romania"><circle cx="628.00" cy="255.00" r="2.21" fill="#6e7581" opacity="0.8" stroke="#333" stroke-width="0.5" style="transition:fill 250ms"></circle></g><g class="key-Chile"><circle cx="510.00" cy="345.00" r="2.02" fill="#6e7581" opacity="0.8" stroke="#333" stroke-width="0.5" style="transition:fill 250ms"></circle></g><g class="key-Armenia"><circle cx="343.00" cy="275.00" r="2.00" fill="#6e7581" opacity="0.8" stroke="#666" stroke-width="0.5" style="transition:fill 250ms"></circle></g><g class="key-Austria"><circle cx="461.00" cy="304.00" r="2.00" fill="#6e7581" opacity="0.8" stroke="#666" stroke-width="0.5" style="transition:fill 250ms"></circle></g><g class="key-Azerbaijan"><circle cx="440.00" cy="131.00" r="2.00" fill="#6e7581" opacity="0.8" stroke="#333" stroke-width="0.5" style="transition:fill 250ms"></circle></g><g class="key-Belarus"><circle cx="579.00" cy="156.00" r="2.00" fill="#6e7581" opacity="0.8" stroke="#666" stroke-width="0.5" style="transition:fill 250ms"></circle></g><g class="key-Belgium"><circle cx="503.00" cy="329.00" r="2.00" fill="#6e7581" opacity="0.8" stroke="#666" stroke-width="0.5" style="transition:fill 250ms"></circle></g><g class="key-Bosnia-and-Herzegovina"><circle cx="517.00" cy="279.00" r="2.00" fill="#6e7581" opacity="0.8" stroke="#666" stroke-width="0.5" style="transition:fill 250ms"></circle></g><g class="key-Bulgaria"><circle cx="530.00" cy="353.00" r="2.00" fill="#6e7581" opacity="0.8" stroke="#666" stroke-width="0.5" style="transition:fill 250ms"></circle></g><g class="key-Costa-Rica"><circle cx="572.00" cy="271.00" r="2.00" fill="#6e7581" opacity="0.8" stroke="#666" stroke-width="0.5" style="transition:fill 250ms"></circle></g><g class="key-Croatia"><circle cx="454.00" cy="283.00" r="2.00" fill="#6e7581" opacity="0.8" stroke="#666" stroke-width="0.5" style="transition:fill 250ms"></circle></g><g class="key-Cyprus"><circle cx="725.00" cy="189.00" r="2.00" fill="#6e7581" opacity="0.8" stroke="#666" stroke-width="0.5" style="transition:fill 250ms"></circle></g><g class="key-Czechia"><circle cx="662.00" cy="304.00" r="2.00" fill="#6e7581" opacity="0.8" stroke="#333" stroke-width="0.5" style="transition:fill 250ms"></circle></g><g class="key-Denmark"><circle cx="475.00" cy="259.00" r="2.00" fill="#6e7581" opacity="0.8" stroke="#666" stroke-width="0.5" style="transition:fill 250ms"></circle></g><g class="key-Estonia"><circle cx="572.00" cy="333.00" r="2.00" fill="#6e7581" opacity="0.8" stroke="#666" stroke-width="0.5" style="transition:fill 250ms"></circle></g><g class="key-European-Union-__002828-countries__0029"><circle cx="489.00" cy="308.00" r="2.00" fill="#6e7581" opacity="0.8" stroke="#666" stroke-width="0.5" style="transition:fill 250ms"></circle></g><g class="key-Finland"><circle cx="399.00" cy="259.00" r="2.00" fill="#6e7581" opacity="0.8" stroke="#666" stroke-width="0.5" style="transition:fill 250ms"></circle></g><g class="key-France-__0028metropolitan__0029"><circle cx="406.00" cy="329.00" r="2.00" fill="#6e7581" opacity="0.8" stroke="#666" stroke-width="0.5" style="transition:fill 250ms"></circle></g><g class="key-Georgia"><circle cx="329.00" cy="168.00" r="2.00" fill="#6e7581" opacity="0.8" stroke="#333" stroke-width="0.5" style="transition:fill 250ms"></circle></g><g class="key-Greece"><circle cx="454.00" cy="279.00" r="2.00" fill="#6e7581" opacity="0.8" stroke="#333" stroke-width="0.5" style="transition:fill 250ms"></circle></g><g class="key-Hungary"><circle cx="496.00" cy="341.00" r="2.00" fill="#6e7581" opacity="0.8" stroke="#666" stroke-width="0.5" style="transition:fill 250ms"></circle></g><g class="key-Iceland"><circle cx="364.00" cy="287.00" r="2.00" fill="#6e7581" opacity="0.8" stroke="#666" stroke-width="0.5" style="transition:fill 250ms"></circle></g><g class="key-Ireland"><circle cx="406.00" cy="304.00" r="2.00" fill="#6e7581" opacity="0.8" stroke="#333" stroke-width="0.5" style="transition:fill 250ms"></circle></g><g class="key-Israel"><circle cx="524.00" cy="230.00" r="2.00" fill="#6e7581" opacity="0.8" stroke="#666" stroke-width="0.5" style="transition:fill 250ms"></circle></g><g class="key-Latvia"><circle cx="669.00" cy="308.00" r="2.00" fill="#6e7581" opacity="0.8" stroke="#666" stroke-width="0.5" style="transition:fill 250ms"></circle></g><g class="key-Liechtenstein"><circle cx="440.00" cy="283.00" r="2.00" fill="#6e7581" opacity="0.8" stroke="#666" stroke-width="0.5" style="transition:fill 250ms"></circle></g><g class="key-Lithuania"><circle cx="732.00" cy="242.00" r="2.00" fill="#6e7581" opacity="0.8" stroke="#666" stroke-width="0.5" style="transition:fill 250ms"></circle></g><g class="key-Luxembourg"><circle cx="475.00" cy="345.00" r="2.00" fill="#6e7581" opacity="0.8" stroke="#666" stroke-width="0.5" style="transition:fill 250ms"></circle></g><g class="key-Malta"><circle cx="544.00" cy="230.00" r="2.00" fill="#6e7581" opacity="0.8" stroke="#666" stroke-width="0.5" style="transition:fill 250ms"></circle></g><g class="key-Montenegro"><circle cx="468.00" cy="246.00" r="2.00" fill="#6e7581" opacity="0.8" stroke="#666" stroke-width="0.5" style="transition:fill 250ms"></circle></g><g class="key-Netherlands"><circle cx="503.00" cy="304.00" r="2.00" fill="#6e7581" opacity="0.8" stroke="#666" stroke-width="0.5" style="transition:fill 250ms"></circle></g><g class="key-New-Zealand"><circle cx="530.00" cy="287.00" r="2.00" fill="#6e7581" opacity="0.8" stroke="#666" stroke-width="0.5" style="transition:fill 250ms"></circle></g><g class="key-North-Macedonia"><circle cx="628.00" cy="205.00" r="2.00" fill="#6e7581" opacity="0.8" stroke="#666" stroke-width="0.5" style="transition:fill 250ms"></circle></g><g class="key-Norway"><circle cx="413.00" cy="292.00" r="2.00" fill="#6e7581" opacity="0.8" stroke="#666" stroke-width="0.5" style="transition:fill 250ms"></circle></g><g class="key-Portugal"><circle cx="551.00" cy="333.00" r="2.00" fill="#6e7581" opacity="0.8" stroke="#333" stroke-width="0.5" style="transition:fill 250ms"></circle></g><g class="key-Serbia"><circle cx="530.00" cy="287.00" r="2.00" fill="#6e7581" opacity="0.8" stroke="#666" stroke-width="0.5" style="transition:fill 250ms"></circle></g><g class="key-Slovakia"><circle cx="579.00" cy="296.00" r="2.00" fill="#6e7581" opacity="0.8" stroke="#666" stroke-width="0.5" style="transition:fill 250ms"></circle></g><g class="key-Slovenia"><circle cx="350.00" cy="357.00" r="2.00" fill="#6e7581" opacity="0.8" stroke="#666" stroke-width="0.5" style="transition:fill 250ms"></circle></g><g class="key-Sweden"><circle cx="378.00" cy="271.00" r="2.00" fill="#6e7581" opacity="0.8" stroke="#333" stroke-width="0.5" style="transition:fill 250ms"></circle></g><g class="key-Switzerland"><circle cx="530.00" cy="263.00" r="2.00" fill="#6e7581" opacity="0.8" stroke="#666" stroke-width="0.5" style="transition:fill 250ms"></circle></g><g class="backgroundLabels" fill="#333"><text x="586.00" y="122.89" font-size="16.09" font-weight="400" fill="#6e7581" style="fill:#fff;stroke:#fff;stroke-linecap:round;stroke-linejoin:round;stroke-width:.25em">China</text><text x="586.00" y="122.89" font-size="16.09" font-weight="400" fill="#6e7581" style="pointer-events:none">China</text><text x="646.62" y="199.35" font-size="14.16" font-weight="400" fill="#6e7581" style="fill:#fff;stroke:#fff;stroke-linecap:round;stroke-linejoin:round;stroke-width:.25em">United States</text><text x="646.62" y="199.35" font-size="14.16" font-weight="400" fill="#6e7581" style="pointer-events:none">United States</text><text x="461.00" y="256.45" font-size="13.52" font-weight="400" fill="#6e7581" style="fill:#fff;stroke:#fff;stroke-linecap:round;stroke-linejoin:round;stroke-width:.25em">Japan</text><text x="461.00" y="256.45" font-size="13.52" font-weight="400" fill="#6e7581" style="pointer-events:none">Japan</text><text x="565.00" y="276.80" font-size="13.45" font-weight="400" fill="#6e7581" style="fill:#fff;stroke:#fff;stroke-linecap:round;stroke-linejoin:round;stroke-width:.25em">Mexico</text><text x="565.00" y="276.80" font-size="13.45" font-weight="400" fill="#6e7581" style="pointer-events:none">Mexico</text><text x="503.00" y="290.58" font-size="13.29" font-weight="400" fill="#6e7581" style="fill:#fff;stroke:#fff;stroke-linecap:round;stroke-linejoin:round;stroke-width:.25em">Germany</text><text x="503.00" y="290.58" font-size="13.29" font-weight="400" fill="#6e7581" style="pointer-events:none">Germany</text><text x="551.00" y="154.81" font-size="13.24" font-weight="400" fill="#6e7581" style="fill:#fff;stroke:#fff;stroke-linecap:round;stroke-linejoin:round;stroke-width:.25em">Turkey</text><text x="551.00" y="154.81" font-size="13.24" font-weight="400" fill="#6e7581" style="pointer-events:none">Turkey</text><text x="357.00" y="324.13" font-size="13.17" font-weight="400" fill="#6e7581" style="fill:#fff;stroke:#fff;stroke-linecap:round;stroke-linejoin:round;stroke-width:.25em">France</text><text x="357.00" y="324.13" font-size="13.17" font-weight="400" fill="#6e7581" style="pointer-events:none">France</text><text x="440.00" y="332.21" font-size="13.16" font-weight="400" fill="#6e7581" style="fill:#fff;stroke:#fff;stroke-linecap:round;stroke-linejoin:round;stroke-width:.25em">Italy</text><text x="440.00" y="332.21" font-size="13.16" font-weight="400" fill="#6e7581" style="pointer-events:none">Italy</text><text x="350.00" y="361.86" font-size="13.02" font-weight="400" fill="#6e7581" style="fill:#fff;stroke:#fff;stroke-linecap:round;stroke-linejoin:round;stroke-width:.25em">Argentina</text><text x="350.00" y="361.86" font-size="13.02" font-weight="400" fill="#6e7581" style="pointer-events:none">Argentina</text><text x="517.00" y="237.95" font-size="13.00" font-weight="400" fill="#6e7581" style="fill:#fff;stroke:#fff;stroke-linecap:round;stroke-linejoin:round;stroke-width:.25em">Poland</text><text x="517.00" y="237.95" font-size="13.00" font-weight="400" fill="#6e7581" style="pointer-events:none">Poland</text><text x="628.00" y="251.79" font-size="12.83" font-weight="400" fill="#6e7581" style="fill:#fff;stroke:#fff;stroke-linecap:round;stroke-linejoin:round;stroke-width:.25em">Romania</text><text x="628.00" y="251.79" font-size="12.83" font-weight="400" fill="#6e7581" style="pointer-events:none">Romania</text><text x="510.00" y="341.98" font-size="12.79" font-weight="400" fill="#6e7581" style="fill:#fff;stroke:#fff;stroke-linecap:round;stroke-linejoin:round;stroke-width:.25em">Chile</text><text x="510.00" y="341.98" font-size="12.79" font-weight="400" fill="#6e7581" style="pointer-events:none">Chile</text><text x="440.00" y="128.00" font-size="12.68" font-weight="400" fill="#6e7581" style="fill:#fff;stroke:#fff;stroke-linecap:round;stroke-linejoin:round;stroke-width:.25em">Azerbaijan</text><text x="440.00" y="128.00" font-size="12.68" font-weight="400" fill="#6e7581" style="pointer-events:none">Azerbaijan</text><text x="662.00" y="301.00" font-size="12.70" font-weight="400" fill="#6e7581" style="fill:#fff;stroke:#fff;stroke-linecap:round;stroke-linejoin:round;stroke-width:.25em">Czechia</text><text x="662.00" y="301.00" font-size="12.70" font-weight="400" fill="#6e7581" style="pointer-events:none">Czechia</text><text x="329.00" y="165.00" font-size="12.57" font-weight="400" fill="#6e7581" style="fill:#fff;stroke:#fff;stroke-linecap:round;stroke-linejoin:round;stroke-width:.25em">Georgia</text><text x="329.00" y="165.00" font-size="12.57" font-weight="400" fill="#6e7581" style="pointer-events:none">Georgia</text><text x="454.00" y="276.00" font-size="12.71" font-weight="400" fill="#6e7581" style="fill:#fff;stroke:#fff;stroke-linecap:round;stroke-linejoin:round;stroke-width:.25em">Greece</text><text x="454.00" y="276.00" font-size="12.71" font-weight="400" fill="#6e7581" style="pointer-events:none">Greece</text><text x="406.00" y="301.00" font-size="12.59" font-weight="400" fill="#6e7581" style="fill:#fff;stroke:#fff;stroke-linecap:round;stroke-linejoin:round;stroke-width:.25em">Ireland</text><text x="406.00" y="301.00" font-size="12.59" font-weight="400" fill="#6e7581" style="pointer-events:none">Ireland</text><text x="551.00" y="330.00" font-size="12.70" font-weight="400" fill="#6e7581" style="fill:#fff;stroke:#fff;stroke-linecap:round;stroke-linejoin:round;stroke-width:.25em">Portugal</text><text x="551.00" y="330.00" font-size="12.70" font-weight="400" fill="#6e7581" style="pointer-events:none">Portugal</text><text x="378.00" y="268.00" font-size="12.68" font-weight="400" fill="#6e7581" style="fill:#fff;stroke:#fff;stroke-linecap:round;stroke-linejoin:round;stroke-width:.25em">Sweden</text><text x="378.00" y="268.00" font-size="12.68" font-weight="400" fill="#6e7581" style="pointer-events:none">Sweden</text></g></g><g class="ScatterColorLegend clickable" style="cursor:pointer"></g><g><g><circle cx="793.1" cy="121.81805780187467" r="16.981942198125335" fill="none" stroke="#bbb" stroke-width="1.25" opacity="1"></circle><text x="793.1" y="104.83611560374933" dy=".47em" fill="#444" style="fill:#fff;stroke:#fff;stroke-linecap:round;stroke-linejoin:round;stroke-width:3.5;font-size:10.745485549531335px;font-weight:400;text-anchor:middle">1.2B</text><text x="793.1" y="104.83611560374933" dy=".47em" fill="#444" style="font-size:10.745485549531335px;font-weight:400;text-anchor:middle">1.2B</text></g><g><circle cx="793.1" cy="128.99547110054968" r="9.804528899450327" fill="none" stroke="#bbb" stroke-width="1.25" opacity="1"></circle><text x="793.1" y="119.19094220109935" dy=".47em" fill="#444" style="fill:#fff;stroke:#fff;stroke-linecap:round;stroke-linejoin:round;stroke-width:3.5;font-size:8.951132224862583px;font-weight:400;text-anchor:middle">400M</text><text x="793.1" y="119.19094220109935" dy=".47em" fill="#444" style="font-size:8.951132224862583px;font-weight:400;text-anchor:middle">400M</text></g><text font-size="11.25" x="793.1" y="151.6" fill="#858585" text-anchor="middle"><tspan x="793.1" y="151.5875">Circles sized by</tspan></text><text font-size="12.38" font-weight="700" x="793.1" y="165.8" fill="#5b5b5b" text-anchor="middle"><tspan x="793.1" y="165.81625000000003">Population</tspan></text></g></g></g><g class="SourcesFooter" style="fill:#5b5b5b"><text x="16.0" y="562.7" style="font-size:13.5px;line-height:1.2"><tspan x="16" y="562.7"><tspan style="font-weight:700">Data source:</tspan> OWID based on UN, OECD, Eurostat and other sources</tspan></text><text font-size="13.50" x="16.0" y="580.9"><tspan x="16" y="580.8950000000001"><a target="_blank" style="fill: #5b5b5b;  text-decoration: underline;" href="https://ourworldindata.org/marriages-and-divorces">OurWorldInData.org/marriages-and-divorces</a> | <a target="_blank" style="fill: #5b5b5b;  text-decoration: underline;" href="https://creativecommons.org/licenses/by/4.0/">CC BY</a></tspan></text></g></svg>