<svg xmlns="http://www.w3.org/2000/svg" version="1.1" style="font-family:Lato, &#x27;Helvetica Neue&#x27;, Helvetica, Arial, sans-serif;font-size:18px;background-color:white;text-rendering:geometricPrecision;-webkit-font-smoothing:antialiased" width="850" height="600" viewBox="0 0 850 600"><g class="HeaderView"><g transform="translate(774, 15) scale(0.29)"><svg className="owidLog" width="210" height="120" viewBox="0 0 210 120" fill="none" xmlns="http://www.w3.org/2000/svg">
<g clip-path="url(#clip0)">
  <path d="M0 0h210v107.89H0V0z" fill="#002147" />
  <path
    d="M40.98 32.25c0 2.36-.38 4.53-1.12 6.51a14.26 14.26 0 0 1-8.1 8.4c-1.9.78-4.02 1.17-6.34 1.17-2.31 0-4.42-.39-6.33-1.17a14.31 14.31 0 0 1-8.08-8.4 18.29 18.29 0 0 1-1.12-6.51c0-2.36.38-4.53 1.12-6.5.75-1.97 1.8-3.67 3.17-5.1a14.32 14.32 0 0 1 4.9-3.34c1.92-.8 4.03-1.19 6.34-1.19 2.32 0 4.43.4 6.34 1.19 1.92.8 3.56 1.9 4.93 3.34a14.87 14.87 0 0 1 3.17 5.1 18.1 18.1 0 0 1 1.12 6.5zm-4.38 0c0-1.94-.26-3.68-.8-5.22a10.91 10.91 0 0 0-2.24-3.89 9.68 9.68 0 0 0-3.52-2.46 11.95 11.95 0 0 0-4.62-.86c-1.68 0-3.21.28-4.6.86a9.88 9.88 0 0 0-3.54 2.46 10.91 10.91 0 0 0-2.24 3.9c-.53 1.53-.8 3.27-.8 5.2 0 1.94.27 3.68.8 5.22a11.17 11.17 0 0 0 2.24 3.9 10.01 10.01 0 0 0 3.55 2.44c1.38.56 2.9.83 4.6.83s3.24-.27 4.61-.83a9.8 9.8 0 0 0 3.52-2.44 11.17 11.17 0 0 0 2.25-3.9c.53-1.54.8-3.28.8-5.21zm26.22-6.54V48H60.5c-.56 0-.9-.27-1.05-.81l-.31-2.4a12.45 12.45 0 0 1-3.26 2.6c-1.2.64-2.58.96-4.13.96-1.22 0-2.3-.2-3.24-.6a6.52 6.52 0 0 1-2.33-1.7 7.37 7.37 0 0 1-1.43-2.67c-.3-1.04-.46-2.2-.46-3.45V25.7h3.91v14.22c0 1.68.38 2.99 1.15 3.91.77.93 1.96 1.39 3.54 1.39 1.16 0 2.24-.27 3.23-.82a10.42 10.42 0 0 0 2.8-2.28V25.7h3.91zm8.61 4.47a9.94 9.94 0 0 1 2.6-3.56 5.64 5.64 0 0 1 3.76-1.3c.47 0 .92.05 1.34.15.44.1.83.27 1.17.49l-.3 2.92c-.09.37-.3.55-.66.55-.2 0-.5-.04-.9-.13a6.21 6.21 0 0 0-3.24.18 4.23 4.23 0 0 0-1.47.92c-.42.4-.81.9-1.17 1.5-.33.58-.64 1.26-.92 2.02V48H67.7V25.71h2.25c.42 0 .72.08.88.25.16.16.27.44.33.83l.26 3.39zm61.16-13.7L122.75 48h-3.82l-7.99-24.05a21.95 21.95 0 0 1-.42-1.58 38.36 38.36 0 0 1-.44 1.58L102.05 48h-3.83L88.4 16.47h3.54c.38 0 .7.1.95.29.26.2.43.43.5.73l6.52 21.9.28 1.28.29 1.46.3-1.46.38-1.27 7.41-21.91c.1-.25.26-.48.51-.69.27-.22.58-.33.95-.33h1.23c.38 0 .69.1.92.29a1.77 1.77 0 0 1 .53.73l7.4 21.9a28.4 28.4 0 0 1 .68 2.62 29.52 29.52 0 0 1 .52-2.61l6.54-21.91a1.31 1.31 0 0 1 .48-.7c.27-.21.58-.32.95-.32h3.32zm9.35 8.88c1.63 0 3.1.27 4.4.82a9.43 9.43 0 0 1 5.46 5.94c.5 1.4.74 2.98.74 4.73 0 1.76-.25 3.34-.74 4.75a9.43 9.43 0 0 1-5.46 5.92c-1.3.52-2.77.79-4.4.79-1.64 0-3.12-.27-4.44-.8a9.42 9.42 0 0 1-3.35-2.3c-.92-1-1.63-2.2-2.13-3.61-.49-1.41-.73-3-.73-4.75s.24-3.33.73-4.73c.5-1.43 1.2-2.64 2.13-3.63.93-1 2.04-1.77 3.35-2.31 1.32-.55 2.8-.82 4.44-.82zm0 19.89c2.2 0 3.84-.73 4.93-2.2 1.08-1.48 1.63-3.54 1.63-6.18 0-2.66-.55-4.72-1.63-6.2-1.09-1.49-2.73-2.23-4.93-2.23-1.12 0-2.09.2-2.93.57a5.71 5.71 0 0 0-2.06 1.65c-.55.72-.96 1.61-1.24 2.67-.26 1.04-.4 2.22-.4 3.54 0 2.64.55 4.7 1.64 6.18 1.1 1.47 2.76 2.2 4.99 2.2zm17.97-15.07a9.94 9.94 0 0 1 2.6-3.56 5.64 5.64 0 0 1 3.76-1.3c.47 0 .91.05 1.34.15.44.1.83.27 1.16.49l-.28 2.92c-.09.37-.31.55-.66.55-.2 0-.5-.04-.9-.13a6.2 6.2 0 0 0-3.24.18 4.23 4.23 0 0 0-1.47.92c-.43.4-.82.9-1.17 1.5a13.1 13.1 0 0 0-.92 2.02V48h-3.94V25.71h2.24c.43 0 .72.08.88.25.17.16.28.44.33.83l.27 3.39zm15.04-14.59V48h-3.92V15.6h3.92zm19.55 15.43a6.22 6.22 0 0 0-2.38-2.05 6.7 6.7 0 0 0-2.86-.6c-2.07 0-3.66.75-4.77 2.23-1.12 1.48-1.68 3.6-1.68 6.33 0 1.46.13 2.7.38 3.74a7.29 7.29 0 0 0 1.1 2.56 4.35 4.35 0 0 0 1.78 1.45c.7.3 1.5.46 2.4.46 1.29 0 2.41-.3 3.36-.88a9.6 9.6 0 0 0 2.67-2.49V31.02zm3.91-15.43V48h-2.33c-.56 0-.9-.27-1.06-.81l-.35-2.71a12.13 12.13 0 0 1-3.25 2.77 8.28 8.28 0 0 1-4.23 1.06 7.31 7.31 0 0 1-6.14-2.9c-.73-.96-1.3-2.15-1.69-3.57a18.35 18.35 0 0 1 .07-9.48 11.29 11.29 0 0 1 1.89-3.7 8.7 8.7 0 0 1 7.06-3.34 7.96 7.96 0 0 1 6.12 2.62V15.59h3.91zM46.61 70.71V93H42.7V70.71h3.91zm.84-7c0 .39-.08.75-.24 1.09-.15.32-.35.61-.62.88-.25.25-.55.44-.9.59a2.67 2.67 0 0 1-2.16 0 2.9 2.9 0 0 1-1.45-1.47 2.67 2.67 0 0 1 0-2.16c.15-.35.35-.65.6-.9.25-.27.53-.47.85-.62a2.67 2.67 0 0 1 2.16 0c.35.15.65.35.9.62.27.25.47.55.62.9.16.34.24.7.24 1.08zm7.97 10.24c.49-.54 1-1.04 1.54-1.48a9.85 9.85 0 0 1 3.66-1.84 8.96 8.96 0 0 1 5.43.35c.94.4 1.72.97 2.33 1.71.63.74 1.11 1.62 1.43 2.67.32 1.04.49 2.19.49 3.45V93h-3.94V78.81c0-1.69-.4-3-1.17-3.92-.76-.93-1.93-1.4-3.5-1.4-1.15 0-2.24.27-3.25.83-1 .56-1.92 1.31-2.77 2.27V93h-3.94V70.71h2.35c.56 0 .9.28 1.04.82l.3 2.42zm57.7 3.3c0 2.36-.37 4.5-1.11 6.44a14.3 14.3 0 0 1-3.17 4.98c-1.37 1.37-3 2.45-4.93 3.2-1.9.76-4.02 1.13-6.33 1.13H85.8V61.47h11.77c2.31 0 4.42.39 6.33 1.15a13.8 13.8 0 0 1 8.1 8.18 17.75 17.75 0 0 1 1.12 6.45zm-4.37 0c0-1.94-.26-3.67-.8-5.2a10.94 10.94 0 0 0-2.23-3.87 9.57 9.57 0 0 0-3.53-2.42 12.23 12.23 0 0 0-4.61-.83h-7.5v24.62h7.5c1.7 0 3.24-.28 4.61-.84a9.7 9.7 0 0 0 3.53-2.4 10.94 10.94 0 0 0 2.24-3.87c.53-1.53.8-3.26.8-5.2zm19.8 5.72c-1.8.06-3.34.2-4.62.44-1.26.22-2.3.51-3.1.88-.8.36-1.37.8-1.74 1.3-.35.5-.53 1.05-.53 1.67 0 .58.1 1.1.3 1.52a3 3 0 0 0 .76 1.05c.34.27.73.46 1.17.6a6.13 6.13 0 0 0 1.45.17 7.28 7.28 0 0 0 3.5-.81 11.95 11.95 0 0 0 2.82-2.2v-4.62zm-12.65-9.11a12.73 12.73 0 0 1 3.98-2.66c1.43-.59 3-.88 4.73-.88 1.25 0 2.36.2 3.33.61a6.81 6.81 0 0 1 3.94 4.38c.33 1.04.5 2.19.5 3.43V93h-1.74a1.8 1.8 0 0 1-.88-.18c-.2-.13-.36-.38-.48-.74l-.44-2.12-1.72 1.46a9.48 9.48 0 0 1-3.74 1.7c-.69.15-1.46.23-2.3.23-.87 0-1.69-.12-2.45-.35a5.34 5.34 0 0 1-3.34-2.93 6.64 6.64 0 0 1-.49-2.64c0-.88.25-1.72.73-2.53a6.33 6.33 0 0 1 2.35-2.17c1.09-.63 2.5-1.15 4.25-1.54 1.75-.41 3.89-.65 6.42-.7v-1.75c0-1.73-.37-3.03-1.12-3.91-.75-.9-1.84-1.34-3.28-1.34-.97 0-1.78.12-2.44.37-.64.23-1.2.5-1.7.81l-1.23.82c-.33.23-.67.35-1 .35-.27 0-.5-.07-.69-.2a2.1 2.1 0 0 1-.48-.53l-.7-1.25zm27.67 19.5c-1.76 0-3.12-.5-4.07-1.48-.94-.98-1.41-2.4-1.41-4.25V74h-2.68a.9.9 0 0 1-.6-.2c-.16-.14-.24-.36-.24-.66v-1.56l3.65-.46.9-6.89c.05-.22.14-.4.29-.52a.88.88 0 0 1 .62-.22H142v7.67h6.44V74H142v13.38c0 .94.22 1.63.68 2.09.45.45 1.04.68 1.76.68a3.21 3.21 0 0 0 1.85-.53l.55-.35c.16-.12.3-.18.41-.18.2 0 .4.13.55.38l1.15 1.87a7.45 7.45 0 0 1-2.44 1.5 8.53 8.53 0 0 1-2.95.52zm19.68-10.4c-1.8.07-3.34.21-4.62.45-1.26.22-2.3.51-3.1.88-.8.36-1.37.8-1.74 1.3-.35.5-.53 1.05-.53 1.67 0 .58.1 1.1.3 1.52a2.9 2.9 0 0 0 .76 1.05c.34.27.73.46 1.17.6a6.13 6.13 0 0 0 1.45.17 7.3 7.3 0 0 0 3.5-.81 12.04 12.04 0 0 0 2.82-2.2v-4.62zm-12.65-9.1a12.72 12.72 0 0 1 3.99-2.66c1.42-.59 3-.88 4.72-.88 1.25 0 2.36.2 3.33.61a6.81 6.81 0 0 1 3.94 4.38c.33 1.04.5 2.19.5 3.43V93h-1.74a1.8 1.8 0 0 1-.88-.18c-.2-.13-.36-.38-.48-.74l-.44-2.12-1.72 1.46a9.48 9.48 0 0 1-3.74 1.7c-.69.15-1.46.23-2.3.23-.87 0-1.69-.12-2.45-.35a5.33 5.33 0 0 1-3.34-2.93 6.62 6.62 0 0 1-.49-2.64c0-.88.25-1.72.73-2.53a6.33 6.33 0 0 1 2.35-2.17c1.09-.63 2.5-1.15 4.25-1.54 1.74-.41 3.89-.65 6.42-.7v-1.75c0-1.73-.37-3.03-1.12-3.91-.75-.9-1.84-1.34-3.28-1.34-.97 0-1.78.12-2.44.37-.64.23-1.2.5-1.7.81l-1.22.82c-.34.23-.68.35-1.02.35-.26 0-.49-.07-.68-.2a1.88 1.88 0 0 1-.48-.53l-.7-1.25zM40.98 32.25c0 2.36-.38 4.53-1.12 6.51a14.26 14.26 0 0 1-8.1 8.4c-1.9.78-4.02 1.17-6.34 1.17-2.31 0-4.42-.39-6.33-1.17a14.31 14.31 0 0 1-8.08-8.4 18.29 18.29 0 0 1-1.12-6.51c0-2.36.38-4.53 1.12-6.5.75-1.97 1.8-3.67 3.17-5.1a14.32 14.32 0 0 1 4.9-3.34c1.92-.8 4.03-1.19 6.34-1.19 2.32 0 4.43.4 6.34 1.19 1.92.8 3.56 1.9 4.93 3.34a14.87 14.87 0 0 1 3.17 5.1 18.1 18.1 0 0 1 1.12 6.5zm-4.38 0c0-1.94-.26-3.68-.8-5.22a10.91 10.91 0 0 0-2.24-3.89 9.68 9.68 0 0 0-3.52-2.46 11.95 11.95 0 0 0-4.62-.86c-1.68 0-3.21.28-4.6.86a9.88 9.88 0 0 0-3.54 2.46 10.91 10.91 0 0 0-2.24 3.9c-.53 1.53-.8 3.27-.8 5.2 0 1.94.27 3.68.8 5.22a11.17 11.17 0 0 0 2.24 3.9 10.01 10.01 0 0 0 3.55 2.44c1.38.56 2.9.83 4.6.83s3.24-.27 4.61-.83a9.8 9.8 0 0 0 3.52-2.44 11.17 11.17 0 0 0 2.25-3.9c.53-1.54.8-3.28.8-5.21zm26.22-6.54V48H60.5c-.56 0-.9-.27-1.05-.81l-.31-2.4a12.45 12.45 0 0 1-3.26 2.6c-1.2.64-2.58.96-4.13.96-1.22 0-2.3-.2-3.24-.6a6.52 6.52 0 0 1-2.33-1.7 7.37 7.37 0 0 1-1.43-2.67c-.3-1.04-.46-2.2-.46-3.45V25.7h3.91v14.22c0 1.68.38 2.99 1.15 3.91.77.93 1.96 1.39 3.54 1.39 1.16 0 2.24-.27 3.23-.82a10.42 10.42 0 0 0 2.8-2.28V25.7h3.91zm8.61 4.47a9.94 9.94 0 0 1 2.6-3.56 5.64 5.64 0 0 1 3.76-1.3c.47 0 .92.05 1.34.15.44.1.83.27 1.17.49l-.3 2.92c-.09.37-.3.55-.66.55-.2 0-.5-.04-.9-.13a6.21 6.21 0 0 0-3.24.18 4.23 4.23 0 0 0-1.47.92c-.42.4-.81.9-1.17 1.5-.33.58-.64 1.26-.92 2.02V48H67.7V25.71h2.25c.42 0 .72.08.88.25.16.16.27.44.33.83l.26 3.39zm61.16-13.7L122.75 48h-3.82l-7.99-24.05a21.95 21.95 0 0 1-.42-1.58 38.36 38.36 0 0 1-.44 1.58L102.05 48h-3.83L88.4 16.47h3.54c.38 0 .7.1.95.29.26.2.43.43.5.73l6.52 21.9.28 1.28.29 1.46.3-1.46.38-1.27 7.41-21.91c.1-.25.26-.48.51-.69.27-.22.58-.33.95-.33h1.23c.38 0 .69.1.92.29a1.77 1.77 0 0 1 .53.73l7.4 21.9a28.4 28.4 0 0 1 .68 2.62 29.52 29.52 0 0 1 .52-2.61l6.54-21.91a1.31 1.31 0 0 1 .48-.7c.27-.21.58-.32.95-.32h3.32zm9.35 8.88c1.63 0 3.1.27 4.4.82a9.43 9.43 0 0 1 5.46 5.94c.5 1.4.74 2.98.74 4.73 0 1.76-.25 3.34-.74 4.75a9.43 9.43 0 0 1-5.46 5.92c-1.3.52-2.77.79-4.4.79-1.64 0-3.12-.27-4.44-.8a9.42 9.42 0 0 1-3.35-2.3c-.92-1-1.63-2.2-2.13-3.61-.49-1.41-.73-3-.73-4.75s.24-3.33.73-4.73c.5-1.43 1.2-2.64 2.13-3.63.93-1 2.04-1.77 3.35-2.31 1.32-.55 2.8-.82 4.44-.82zm0 19.89c2.2 0 3.84-.73 4.93-2.2 1.08-1.48 1.63-3.54 1.63-6.18 0-2.66-.55-4.72-1.63-6.2-1.09-1.49-2.73-2.23-4.93-2.23-1.12 0-2.09.2-2.93.57a5.71 5.71 0 0 0-2.06 1.65c-.55.72-.96 1.61-1.24 2.67-.26 1.04-.4 2.22-.4 3.54 0 2.64.55 4.7 1.64 6.18 1.1 1.47 2.76 2.2 4.99 2.2zm17.97-15.07a9.94 9.94 0 0 1 2.6-3.56 5.64 5.64 0 0 1 3.76-1.3c.47 0 .91.05 1.34.15.44.1.83.27 1.16.49l-.28 2.92c-.09.37-.31.55-.66.55-.2 0-.5-.04-.9-.13a6.2 6.2 0 0 0-3.24.18 4.23 4.23 0 0 0-1.47.92c-.43.4-.82.9-1.17 1.5a13.1 13.1 0 0 0-.92 2.02V48h-3.94V25.71h2.24c.43 0 .72.08.88.25.17.16.28.44.33.83l.27 3.39zm15.04-14.59V48h-3.92V15.6h3.92zm19.55 15.43a6.22 6.22 0 0 0-2.38-2.05 6.7 6.7 0 0 0-2.86-.6c-2.07 0-3.66.75-4.77 2.23-1.12 1.48-1.68 3.6-1.68 6.33 0 1.46.13 2.7.38 3.74a7.29 7.29 0 0 0 1.1 2.56 4.35 4.35 0 0 0 1.78 1.45c.7.3 1.5.46 2.4.46 1.29 0 2.41-.3 3.36-.88a9.6 9.6 0 0 0 2.67-2.49V31.02zm3.91-15.43V48h-2.33c-.56 0-.9-.27-1.06-.81l-.35-2.71a12.13 12.13 0 0 1-3.25 2.77 8.28 8.28 0 0 1-4.23 1.06 7.31 7.31 0 0 1-6.14-2.9c-.73-.96-1.3-2.15-1.69-3.57a18.35 18.35 0 0 1 .07-9.48 11.29 11.29 0 0 1 1.89-3.7 8.7 8.7 0 0 1 7.06-3.34 7.96 7.96 0 0 1 6.12 2.62V15.59h3.91zM46.61 70.71V93H42.7V70.71h3.91zm.84-7c0 .39-.08.75-.24 1.09-.15.32-.35.61-.62.88-.25.25-.55.44-.9.59a2.67 2.67 0 0 1-2.16 0 2.9 2.9 0 0 1-1.45-1.47 2.67 2.67 0 0 1 0-2.16c.15-.35.35-.65.6-.9.25-.27.53-.47.85-.62a2.67 2.67 0 0 1 2.16 0c.35.15.65.35.9.62.27.25.47.55.62.9.16.34.24.7.24 1.08zm7.97 10.24c.49-.54 1-1.04 1.54-1.48a9.85 9.85 0 0 1 3.66-1.84 8.96 8.96 0 0 1 5.43.35c.94.4 1.72.97 2.33 1.71.63.74 1.11 1.62 1.43 2.67.32 1.04.49 2.19.49 3.45V93h-3.94V78.81c0-1.69-.4-3-1.17-3.92-.76-.93-1.93-1.4-3.5-1.4-1.15 0-2.24.27-3.25.83-1 .56-1.92 1.31-2.77 2.27V93h-3.94V70.71h2.35c.56 0 .9.28 1.04.82l.3 2.42zm57.7 3.3c0 2.36-.37 4.5-1.11 6.44a14.3 14.3 0 0 1-3.17 4.98c-1.37 1.37-3 2.45-4.93 3.2-1.9.76-4.02 1.13-6.33 1.13H85.8V61.47h11.77c2.31 0 4.42.39 6.33 1.15a13.8 13.8 0 0 1 8.1 8.18 17.75 17.75 0 0 1 1.12 6.45zm-4.37 0c0-1.94-.26-3.67-.8-5.2a10.94 10.94 0 0 0-2.23-3.87 9.57 9.57 0 0 0-3.53-2.42 12.23 12.23 0 0 0-4.61-.83h-7.5v24.62h7.5c1.7 0 3.24-.28 4.61-.84a9.7 9.7 0 0 0 3.53-2.4 10.94 10.94 0 0 0 2.24-3.87c.53-1.53.8-3.26.8-5.2zm19.8 5.72c-1.8.06-3.34.2-4.62.44-1.26.22-2.3.51-3.1.88-.8.36-1.37.8-1.74 1.3-.35.5-.53 1.05-.53 1.67 0 .58.1 1.1.3 1.52a3 3 0 0 0 .76 1.05c.34.27.73.46 1.17.6a6.13 6.13 0 0 0 1.45.17 7.28 7.28 0 0 0 3.5-.81 11.95 11.95 0 0 0 2.82-2.2v-4.62zm-12.65-9.11a12.73 12.73 0 0 1 3.98-2.66c1.43-.59 3-.88 4.73-.88 1.25 0 2.36.2 3.33.61a6.81 6.81 0 0 1 3.94 4.38c.33 1.04.5 2.19.5 3.43V93h-1.74a1.8 1.8 0 0 1-.88-.18c-.2-.13-.36-.38-.48-.74l-.44-2.12-1.72 1.46a9.48 9.48 0 0 1-3.74 1.7c-.69.15-1.46.23-2.3.23-.87 0-1.69-.12-2.45-.35a5.34 5.34 0 0 1-3.34-2.93 6.64 6.64 0 0 1-.49-2.64c0-.88.25-1.72.73-2.53a6.33 6.33 0 0 1 2.35-2.17c1.09-.63 2.5-1.15 4.25-1.54 1.75-.41 3.89-.65 6.42-.7v-1.75c0-1.73-.37-3.03-1.12-3.91-.75-.9-1.84-1.34-3.28-1.34-.97 0-1.78.12-2.44.37-.64.23-1.2.5-1.7.81l-1.23.82c-.33.23-.67.35-1 .35-.27 0-.5-.07-.69-.2a2.1 2.1 0 0 1-.48-.53l-.7-1.25zm27.67 19.5c-1.76 0-3.12-.5-4.07-1.48-.94-.98-1.41-2.4-1.41-4.25V74h-2.68a.9.9 0 0 1-.6-.2c-.16-.14-.24-.36-.24-.66v-1.56l3.65-.46.9-6.89c.05-.22.14-.4.29-.52a.88.88 0 0 1 .62-.22H142v7.67h6.44V74H142v13.38c0 .94.22 1.63.68 2.09.45.45 1.04.68 1.76.68a3.21 3.21 0 0 0 1.85-.53l.55-.35c.16-.12.3-.18.41-.18.2 0 .4.13.55.38l1.15 1.87a7.45 7.45 0 0 1-2.44 1.5 8.53 8.53 0 0 1-2.95.52zm19.68-10.4c-1.8.07-3.34.21-4.62.45-1.26.22-2.3.51-3.1.88-.8.36-1.37.8-1.74 1.3-.35.5-.53 1.05-.53 1.67 0 .58.1 1.1.3 1.52a2.9 2.9 0 0 0 .76 1.05c.34.27.73.46 1.17.6a6.13 6.13 0 0 0 1.45.17 7.3 7.3 0 0 0 3.5-.81 12.04 12.04 0 0 0 2.82-2.2v-4.62zm-12.65-9.1a12.72 12.72 0 0 1 3.99-2.66c1.42-.59 3-.88 4.72-.88 1.25 0 2.36.2 3.33.61a6.81 6.81 0 0 1 3.94 4.38c.33 1.04.5 2.19.5 3.43V93h-1.74a1.8 1.8 0 0 1-.88-.18c-.2-.13-.36-.38-.48-.74l-.44-2.12-1.72 1.46a9.48 9.48 0 0 1-3.74 1.7c-.69.15-1.46.23-2.3.23-.87 0-1.69-.12-2.45-.35a5.33 5.33 0 0 1-3.34-2.93 6.62 6.62 0 0 1-.49-2.64c0-.88.25-1.72.73-2.53a6.33 6.33 0 0 1 2.35-2.17c1.09-.63 2.5-1.15 4.25-1.54 1.74-.41 3.89-.65 6.42-.7v-1.75c0-1.73-.37-3.03-1.12-3.91-.75-.9-1.84-1.34-3.28-1.34-.97 0-1.78.12-2.44.37-.64.23-1.2.5-1.7.81l-1.22.82c-.34.23-.68.35-1.02.35-.26 0-.49-.07-.68-.2a1.88 1.88 0 0 1-.48-.53l-.7-1.25zM40.98 32.25c0 2.36-.38 4.53-1.12 6.51a14.26 14.26 0 0 1-8.1 8.4c-1.9.78-4.02 1.17-6.34 1.17-2.31 0-4.42-.39-6.33-1.17a14.31 14.31 0 0 1-8.08-8.4 18.29 18.29 0 0 1-1.12-6.51c0-2.36.38-4.53 1.12-6.5.75-1.97 1.8-3.67 3.17-5.1a14.32 14.32 0 0 1 4.9-3.34c1.92-.8 4.03-1.19 6.34-1.19 2.32 0 4.43.4 6.34 1.19 1.92.8 3.56 1.9 4.93 3.34a14.87 14.87 0 0 1 3.17 5.1 18.1 18.1 0 0 1 1.12 6.5zm-4.38 0c0-1.94-.26-3.68-.8-5.22a10.91 10.91 0 0 0-2.24-3.89 9.68 9.68 0 0 0-3.52-2.46 11.95 11.95 0 0 0-4.62-.86c-1.68 0-3.21.28-4.6.86a9.88 9.88 0 0 0-3.54 2.46 10.91 10.91 0 0 0-2.24 3.9c-.53 1.53-.8 3.27-.8 5.2 0 1.94.27 3.68.8 5.22a11.17 11.17 0 0 0 2.24 3.9 10.01 10.01 0 0 0 3.55 2.44c1.38.56 2.9.83 4.6.83s3.24-.27 4.61-.83a9.8 9.8 0 0 0 3.52-2.44 11.17 11.17 0 0 0 2.25-3.9c.53-1.54.8-3.28.8-5.21zm26.22-6.54V48H60.5c-.56 0-.9-.27-1.05-.81l-.31-2.4a12.45 12.45 0 0 1-3.26 2.6c-1.2.64-2.58.96-4.13.96-1.22 0-2.3-.2-3.24-.6a6.52 6.52 0 0 1-2.33-1.7 7.37 7.37 0 0 1-1.43-2.67c-.3-1.04-.46-2.2-.46-3.45V25.7h3.91v14.22c0 1.68.38 2.99 1.15 3.91.77.93 1.96 1.39 3.54 1.39 1.16 0 2.24-.27 3.23-.82a10.42 10.42 0 0 0 2.8-2.28V25.7h3.91zm8.61 4.47a9.94 9.94 0 0 1 2.6-3.56 5.64 5.64 0 0 1 3.76-1.3c.47 0 .92.05 1.34.15.44.1.83.27 1.17.49l-.3 2.92c-.09.37-.3.55-.66.55-.2 0-.5-.04-.9-.13a6.21 6.21 0 0 0-3.24.18 4.23 4.23 0 0 0-1.47.92c-.42.4-.81.9-1.17 1.5-.33.58-.64 1.26-.92 2.02V48H67.7V25.71h2.25c.42 0 .72.08.88.25.16.16.27.44.33.83l.26 3.39zm61.16-13.7L122.75 48h-3.82l-7.99-24.05a21.95 21.95 0 0 1-.42-1.58 38.36 38.36 0 0 1-.44 1.58L102.05 48h-3.83L88.4 16.47h3.54c.38 0 .7.1.95.29.26.2.43.43.5.73l6.52 21.9.28 1.28.29 1.46.3-1.46.38-1.27 7.41-21.91c.1-.25.26-.48.51-.69.27-.22.58-.33.95-.33h1.23c.38 0 .69.1.92.29a1.77 1.77 0 0 1 .53.73l7.4 21.9a28.4 28.4 0 0 1 .68 2.62 29.52 29.52 0 0 1 .52-2.61l6.54-21.91a1.31 1.31 0 0 1 .48-.7c.27-.21.58-.32.95-.32h3.32zm9.35 8.88c1.63 0 3.1.27 4.4.82a9.43 9.43 0 0 1 5.46 5.94c.5 1.4.74 2.98.74 4.73 0 1.76-.25 3.34-.74 4.75a9.43 9.43 0 0 1-5.46 5.92c-1.3.52-2.77.79-4.4.79-1.64 0-3.12-.27-4.44-.8a9.42 9.42 0 0 1-3.35-2.3c-.92-1-1.63-2.2-2.13-3.61-.49-1.41-.73-3-.73-4.75s.24-3.33.73-4.73c.5-1.43 1.2-2.64 2.13-3.63.93-1 2.04-1.77 3.35-2.31 1.32-.55 2.8-.82 4.44-.82zm0 19.89c2.2 0 3.84-.73 4.93-2.2 1.08-1.48 1.63-3.54 1.63-6.18 0-2.66-.55-4.72-1.63-6.2-1.09-1.49-2.73-2.23-4.93-2.23-1.12 0-2.09.2-2.93.57a5.71 5.71 0 0 0-2.06 1.65c-.55.72-.96 1.61-1.24 2.67-.26 1.04-.4 2.22-.4 3.54 0 2.64.55 4.7 1.64 6.18 1.1 1.47 2.76 2.2 4.99 2.2zm17.97-15.07a9.94 9.94 0 0 1 2.6-3.56 5.64 5.64 0 0 1 3.76-1.3c.47 0 .91.05 1.34.15.44.1.83.27 1.16.49l-.28 2.92c-.09.37-.31.55-.66.55-.2 0-.5-.04-.9-.13a6.2 6.2 0 0 0-3.24.18 4.23 4.23 0 0 0-1.47.92c-.43.4-.82.9-1.17 1.5a13.1 13.1 0 0 0-.92 2.02V48h-3.94V25.71h2.24c.43 0 .72.08.88.25.17.16.28.44.33.83l.27 3.39zm15.04-14.59V48h-3.92V15.6h3.92zm19.55 15.43a6.22 6.22 0 0 0-2.38-2.05 6.7 6.7 0 0 0-2.86-.6c-2.07 0-3.66.75-4.77 2.23-1.12 1.48-1.68 3.6-1.68 6.33 0 1.46.13 2.7.38 3.74a7.29 7.29 0 0 0 1.1 2.56 4.35 4.35 0 0 0 1.78 1.45c.7.3 1.5.46 2.4.46 1.29 0 2.41-.3 3.36-.88a9.6 9.6 0 0 0 2.67-2.49V31.02zm3.91-15.43V48h-2.33c-.56 0-.9-.27-1.06-.81l-.35-2.71a12.13 12.13 0 0 1-3.25 2.77 8.28 8.28 0 0 1-4.23 1.06 7.31 7.31 0 0 1-6.14-2.9c-.73-.96-1.3-2.15-1.69-3.57a18.35 18.35 0 0 1 .07-9.48 11.29 11.29 0 0 1 1.89-3.7 8.7 8.7 0 0 1 7.06-3.34 7.96 7.96 0 0 1 6.12 2.62V15.59h3.91zM46.61 70.71V93H42.7V70.71h3.91zm.84-7c0 .39-.08.75-.24 1.09-.15.32-.35.61-.62.88-.25.25-.55.44-.9.59a2.67 2.67 0 0 1-2.16 0 2.9 2.9 0 0 1-1.45-1.47 2.67 2.67 0 0 1 0-2.16c.15-.35.35-.65.6-.9.25-.27.53-.47.85-.62a2.67 2.67 0 0 1 2.16 0c.35.15.65.35.9.62.27.25.47.55.62.9.16.34.24.7.24 1.08zm7.97 10.24c.49-.54 1-1.04 1.54-1.48a9.85 9.85 0 0 1 3.66-1.84 8.96 8.96 0 0 1 5.43.35c.94.4 1.72.97 2.33 1.71.63.74 1.11 1.62 1.43 2.67.32 1.04.49 2.19.49 3.45V93h-3.94V78.81c0-1.69-.4-3-1.17-3.92-.76-.93-1.93-1.4-3.5-1.4-1.15 0-2.24.27-3.25.83-1 .56-1.92 1.31-2.77 2.27V93h-3.94V70.71h2.35c.56 0 .9.28 1.04.82l.3 2.42zm57.7 3.3c0 2.36-.37 4.5-1.11 6.44a14.3 14.3 0 0 1-3.17 4.98c-1.37 1.37-3 2.45-4.93 3.2-1.9.76-4.02 1.13-6.33 1.13H85.8V61.47h11.77c2.31 0 4.42.39 6.33 1.15a13.8 13.8 0 0 1 8.1 8.18 17.75 17.75 0 0 1 1.12 6.45zm-4.37 0c0-1.94-.26-3.67-.8-5.2a10.94 10.94 0 0 0-2.23-3.87 9.57 9.57 0 0 0-3.53-2.42 12.23 12.23 0 0 0-4.61-.83h-7.5v24.62h7.5c1.7 0 3.24-.28 4.61-.84a9.7 9.7 0 0 0 3.53-2.4 10.94 10.94 0 0 0 2.24-3.87c.53-1.53.8-3.26.8-5.2zm19.8 5.72c-1.8.06-3.34.2-4.62.44-1.26.22-2.3.51-3.1.88-.8.36-1.37.8-1.74 1.3-.35.5-.53 1.05-.53 1.67 0 .58.1 1.1.3 1.52a3 3 0 0 0 .76 1.05c.34.27.73.46 1.17.6a6.13 6.13 0 0 0 1.45.17 7.28 7.28 0 0 0 3.5-.81 11.95 11.95 0 0 0 2.82-2.2v-4.62zm-12.65-9.11a12.73 12.73 0 0 1 3.98-2.66c1.43-.59 3-.88 4.73-.88 1.25 0 2.36.2 3.33.61a6.81 6.81 0 0 1 3.94 4.38c.33 1.04.5 2.19.5 3.43V93h-1.74a1.8 1.8 0 0 1-.88-.18c-.2-.13-.36-.38-.48-.74l-.44-2.12-1.72 1.46a9.48 9.48 0 0 1-3.74 1.7c-.69.15-1.46.23-2.3.23-.87 0-1.69-.12-2.45-.35a5.34 5.34 0 0 1-3.34-2.93 6.64 6.64 0 0 1-.49-2.64c0-.88.25-1.72.73-2.53a6.33 6.33 0 0 1 2.35-2.17c1.09-.63 2.5-1.15 4.25-1.54 1.75-.41 3.89-.65 6.42-.7v-1.75c0-1.73-.37-3.03-1.12-3.91-.75-.9-1.84-1.34-3.28-1.34-.97 0-1.78.12-2.44.37-.64.23-1.2.5-1.7.81l-1.23.82c-.33.23-.67.35-1 .35-.27 0-.5-.07-.69-.2a2.1 2.1 0 0 1-.48-.53l-.7-1.25zm27.67 19.5c-1.76 0-3.12-.5-4.07-1.48-.94-.98-1.41-2.4-1.41-4.25V74h-2.68a.9.9 0 0 1-.6-.2c-.16-.14-.24-.36-.24-.66v-1.56l3.65-.46.9-6.89c.05-.22.14-.4.29-.52a.88.88 0 0 1 .62-.22H142v7.67h6.44V74H142v13.38c0 .94.22 1.63.68 2.09.45.45 1.04.68 1.76.68a3.21 3.21 0 0 0 1.85-.53l.55-.35c.16-.12.3-.18.41-.18.2 0 .4.13.55.38l1.15 1.87a7.45 7.45 0 0 1-2.44 1.5 8.53 8.53 0 0 1-2.95.52zm19.68-10.4c-1.8.07-3.34.21-4.62.45-1.26.22-2.3.51-3.1.88-.8.36-1.37.8-1.74 1.3-.35.5-.53 1.05-.53 1.67 0 .58.1 1.1.3 1.52a2.9 2.9 0 0 0 .76 1.05c.34.27.73.46 1.17.6a6.13 6.13 0 0 0 1.45.17 7.3 7.3 0 0 0 3.5-.81 12.04 12.04 0 0 0 2.82-2.2v-4.62zm-12.65-9.1a12.72 12.72 0 0 1 3.99-2.66c1.42-.59 3-.88 4.72-.88 1.25 0 2.36.2 3.33.61a6.81 6.81 0 0 1 3.94 4.38c.33 1.04.5 2.19.5 3.43V93h-1.74a1.8 1.8 0 0 1-.88-.18c-.2-.13-.36-.38-.48-.74l-.44-2.12-1.72 1.46a9.48 9.48 0 0 1-3.74 1.7c-.69.15-1.46.23-2.3.23-.87 0-1.69-.12-2.45-.35a5.33 5.33 0 0 1-3.34-2.93 6.62 6.62 0 0 1-.49-2.64c0-.88.25-1.72.73-2.53a6.33 6.33 0 0 1 2.35-2.17c1.09-.63 2.5-1.15 4.25-1.54 1.74-.41 3.89-.65 6.42-.7v-1.75c0-1.73-.37-3.03-1.12-3.91-.75-.9-1.84-1.34-3.28-1.34-.97 0-1.78.12-2.44.37-.64.23-1.2.5-1.7.81l-1.22.82c-.34.23-.68.35-1.02.35-.26 0-.49-.07-.68-.2a1.88 1.88 0 0 1-.48-.53l-.7-1.25z"
    fill="#fff"
  />
  <path fill="#D42B21" d="M0 106.79h210V120H0z" />
</g>
<defs>
  <clipPath id="clip0"><path fill="#fff" d="M0 0h210v120H0z" /></clipPath>
</defs>
</svg></g><a href="http://localhost:3030/grapher/metal-production-long-term" style="font-family:&quot;Playfair Display&quot;, Georgia, &quot;Times New Roman&quot;, serif" target="_blank" rel="noopener"><text font-size="25.20" x="15.0" y="36.9" fill="#555"><tspan x="15" y="36.924">Metal production over the long term, World, 1880 to 2013</tspan></text></a><text font-size="14.40" x="15.0" y="58.2" fill="#666"><tspan x="15" y="58.168000000000006">Annual production of metals and minerals by commodity type, measured in metric tons per year.</tspan></text></g><g class="StackedArea"><defs><clipPath id="boundsClip-1"><rect x="132.914" y="77.48" width="820" height="937.3199999999999"></rect></clipPath></defs><rect x="15" y="77.48" width="820" height="468.65999999999997" fill="transparent"></rect><g class="DualAxisView"><g class="HorizontalAxis"><line x1="132.9" y1="524.9399999999999" x2="132.9" y2="529.9399999999999" stroke="#999"></line><line x1="729.1" y1="524.9399999999999" x2="729.1" y2="529.9399999999999" stroke="#999"></line><line x1="222.6" y1="524.9399999999999" x2="222.6" y2="529.9399999999999" stroke="#999"></line><line x1="312.2" y1="524.9399999999999" x2="312.2" y2="529.9399999999999" stroke="#999"></line><line x1="401.9" y1="524.9399999999999" x2="401.9" y2="529.9399999999999" stroke="#999"></line><line x1="491.5" y1="524.9399999999999" x2="491.5" y2="529.9399999999999" stroke="#999"></line><line x1="581.2" y1="524.9399999999999" x2="581.2" y2="529.9399999999999" stroke="#999"></line><text x="132.914" y="546.14" fill="#666" text-anchor="start" font-size="16.2">1880</text><text x="729.125" y="546.14" fill="#666" text-anchor="end" font-size="16.2">2013</text><text x="222.6" y="546.14" fill="#666" text-anchor="middle" font-size="16.2">1900</text><text x="312.2" y="546.14" fill="#666" text-anchor="middle" font-size="16.2">1920</text><text x="401.9" y="546.14" fill="#666" text-anchor="middle" font-size="16.2">1940</text><text x="491.5" y="546.14" fill="#666" text-anchor="middle" font-size="16.2">1960</text><text x="581.2" y="546.14" fill="#666" text-anchor="middle" font-size="16.2">1980</text></g><g class="VerticalAxis"><text x="127.91" y="524.9" dy=".32em" text-anchor="end" fill="#666" font-size="16.2">0 tons</text><text x="127.91" y="458.9" dy=".32em" text-anchor="end" fill="#666" font-size="16.2">500 million tons</text><text x="127.91" y="392.9" dy=".32em" text-anchor="end" fill="#666" font-size="16.2">1 billion tons</text><text x="127.91" y="326.9" dy=".32em" text-anchor="end" fill="#666" font-size="16.2">1.5 billion tons</text><text x="127.91" y="260.9" dy=".32em" text-anchor="end" fill="#666" font-size="16.2">2 billion tons</text><text x="127.91" y="194.8" dy=".32em" text-anchor="end" fill="#666" font-size="16.2">2.5 billion tons</text><text x="127.91" y="128.8" dy=".32em" text-anchor="end" fill="#666" font-size="16.2">3 billion tons</text></g><g class="AxisGridLines horizontalLines"><line x1="132.91" y1="524.9" x2="729.13" y2="524.9" stroke="#999"></line><line x1="132.91" y1="458.9" x2="729.13" y2="458.9" stroke="#ddd" stroke-dasharray="3,2"></line><line x1="132.91" y1="392.9" x2="729.13" y2="392.9" stroke="#ddd" stroke-dasharray="3,2"></line><line x1="132.91" y1="326.9" x2="729.13" y2="326.9" stroke="#ddd" stroke-dasharray="3,2"></line><line x1="132.91" y1="260.9" x2="729.13" y2="260.9" stroke="#ddd" stroke-dasharray="3,2"></line><line x1="132.91" y1="194.8" x2="729.13" y2="194.8" stroke="#ddd" stroke-dasharray="3,2"></line><line x1="132.91" y1="128.8" x2="729.13" y2="128.8" stroke="#ddd" stroke-dasharray="3,2"></line></g></g><g clip-path="url(#boundsClip-1)"><g class="LineLabels" style="cursor:default"><g class="legendMark"><g class="indicator"><path d="M733.125,176.1 H742.125 V153.1 H760.125" stroke="#999" stroke-width="0.5" fill="none"></path></g><rect x="729.125" y="146.35" width="63.620000000000005" height="13.5" fill="#fff" opacity="0"></rect><text font-size="13.50" font-weight="400" x="764.1" y="158.1" fill="#34983f"><tspan x="764.125" y="158.095">Gold</tspan></text></g><g class="legendMark"><g class="indicator"><path d="M733.125,176.3 H751.125 V168.6 H760.125" stroke="#999" stroke-width="0.5" fill="none"></path></g><rect x="729.125" y="161.85" width="91.565" height="13.5" fill="#fff" opacity="0"></rect><text font-size="13.50" font-weight="400" x="764.1" y="173.6" fill="#63a75f"><tspan x="764.125" y="173.595">Tungsten</tspan></text></g><g class="legendMark"><g class="indicator"><path d="M733.125,176.4 H751.125 V184.1 H760.125" stroke="#999" stroke-width="0.5" fill="none"></path></g><rect x="729.125" y="177.35" width="53.765" height="13.5" fill="#fff" opacity="0"></rect><text font-size="13.50" font-weight="400" x="764.1" y="189.1" fill="#86ad75"><tspan x="764.125" y="189.095">Tin</tspan></text></g><g class="legendMark"><g class="indicator"><path d="M733.125,176.6 H742.125 V199.6 H760.125" stroke="#999" stroke-width="0.5" fill="none"></path></g><rect x="729.125" y="192.85" width="71.72" height="13.5" fill="#fff" opacity="0"></rect><text font-size="13.50" font-weight="400" x="764.1" y="204.6" fill="#a9ab52"><tspan x="764.125" y="204.595">Nickel</tspan></text></g><g class="legendMark"><g class="indicator"><path d="M733.125,323.9 H746.625 V323.9 H760.125" stroke="#999" stroke-width="0.5" fill="none"></path></g><rect x="729.125" y="317.15" width="84.68" height="13.5" fill="#fff" opacity="0"></rect><text font-size="13.50" font-weight="400" x="764.1" y="328.9" fill="#c9a831"><tspan x="764.125" y="328.895">Iron Ore</tspan></text></g><g class="legendMark"><g class="indicator"><path d="M733.125,471.9 H738.525 V425.18999999999994 H760.125" stroke="#999" stroke-width="0.5" fill="none"></path></g><rect x="729.125" y="418.43999999999994" width="65.24000000000001" height="13.5" fill="#fff" opacity="0"></rect><text font-size="13.50" font-weight="400" x="764.1" y="430.2" fill="#d67630"><tspan x="764.125" y="430.18499999999995">Lead</tspan></text></g><g class="legendMark"><g class="indicator"><path d="M733.125,473.4 H743.925 V440.68999999999994 H760.125" stroke="#999" stroke-width="0.5" fill="none"></path></g><rect x="729.125" y="433.93999999999994" width="60.515" height="13.5" fill="#fff" opacity="0"></rect><text font-size="13.50" font-weight="400" x="764.1" y="445.7" fill="#ca2628"><tspan x="764.125" y="445.68499999999995">Zinc</tspan></text></g><g class="legendMark"><g class="indicator"><path d="M733.125,475.4 H749.3249999999999 V456.18999999999994 H760.125" stroke="#999" stroke-width="0.5" fill="none"></path></g><rect x="729.125" y="449.43999999999994" width="105.875" height="13.5" fill="#fff" opacity="0"></rect><text font-size="13.50" font-weight="400" x="764.1" y="461.2" fill="#d82d2b"><tspan x="764.125" y="461.18499999999995">Manganese</tspan></text></g><g class="legendMark"><g class="indicator"><path d="M733.125,476.6 H754.725 V471.68999999999994 H760.125" stroke="#999" stroke-width="0.5" fill="none"></path></g><rect x="729.125" y="464.93999999999994" width="68.75" height="13.5" fill="#fff" opacity="0"></rect><text font-size="13.50" font-weight="400" x="764.1" y="476.7" fill="#e6332e"><tspan x="764.125" y="476.68499999999995">Silver</tspan></text></g><g class="legendMark"><g class="indicator"><path d="M733.125,477.8 H754.725 V487.18999999999994 H760.125" stroke="#999" stroke-width="0.5" fill="none"></path></g><rect x="729.125" y="480.43999999999994" width="79.415" height="13.5" fill="#fff" opacity="0"></rect><text font-size="13.50" font-weight="400" x="764.1" y="492.2" fill="#886365"><tspan x="764.125" y="492.18499999999995">Copper</tspan></text></g><g class="legendMark"><g class="indicator"><path d="M733.125,482.4 H749.3249999999999 V502.68999999999994 H760.125" stroke="#999" stroke-width="0.5" fill="none"></path></g><rect x="729.125" y="495.93999999999994" width="98.045" height="13.5" fill="#fff" opacity="0"></rect><text font-size="13.50" font-weight="400" x="764.1" y="507.7" fill="#2a939b"><tspan x="764.125" y="507.68499999999995">Aluminium</tspan></text></g><g class="legendMark"><g class="indicator"><path d="M733.125,505.4 H743.925 V518.1899999999999 H760.125" stroke="#999" stroke-width="0.5" fill="none"></path></g><rect x="729.125" y="511.43999999999994" width="80.225" height="13.5" fill="#fff" opacity="0"></rect><text font-size="13.50" font-weight="400" x="764.1" y="523.2" fill="#3360a9"><tspan x="764.125" y="523.185">Bauxite</tspan></text></g></g><g class="Areas"><rect x="132.914" y="77.48" width="596.211" height="447.4599999999999" opacity="0" fill="rgba(255,255,255,0)"></rect><path class="Bauxite-area" stroke-linecap="round" d="M132.9 524.9L137.4 524.9L141.9 524.9L146.4 524.9L150.8 524.9L155.3 524.9L159.8 524.9L164.3 524.9L168.8 524.9L173.3 524.9L177.7 524.9L182.2 524.9L186.7 524.9L191.2 524.9L195.7 524.9L200.2 524.9L204.6 524.9L209.1 524.9L213.6 524.9L218.1 524.9L222.6 524.9L227.1 524.9L231.5 524.9L236 524.9L240.5 524.9L245 524.9L249.5 524.9L253.9 524.9L258.4 524.9L262.9 524.9L267.4 524.9L271.9 524.9L276.4 524.9L280.8 524.9L285.3 524.9L289.8 524.9L294.3 524.9L298.8 524.8L303.3 524.9L307.7 524.9L312.2 524.8L316.7 524.9L321.2 524.9L325.7 524.8L330.2 524.8L334.6 524.8L339.1 524.8L343.6 524.7L348.1 524.7L352.6 524.7L357.1 524.7L361.5 524.8L366 524.8L370.5 524.8L375 524.8L379.5 524.8L384 524.6L388.4 524.5L392.9 524.5L397.4 524.5L401.9 524.4L406.4 524.2L410.8 523.9L415.3 523.2L419.8 524.2L424.3 524.5L428.8 524.4L433.3 524.2L437.7 523.9L442.2 523.9L446.7 524L451.2 523.6L455.7 523.5L460.2 523.3L464.6 523.1L469.1 522.9L473.6 522.9L478.1 522.6L482.6 522.5L487.1 522.4L491.5 521.8L496 521.7L500.5 521.5L505 521.6L509.5 521.3L514 520.8L518.4 520.4L522.9 519.9L527.4 519.7L531.9 518.7L536.4 518L540.8 517.2L545.3 516.9L549.8 516.3L554.3 515.2L558.8 515.9L563.3 515.3L567.7 514.8L572.2 515L576.7 514.4L581.2 513.6L585.7 514.3L590.2 515.7L594.6 515.7L599.1 513.6L603.6 514.1L608.1 514.3L612.6 513.5L617.1 512.9L621.5 512.2L626 511.5L630.5 510.8L635 510.4L639.5 510.5L644 509.9L648.4 508.4L652.9 508.2L657.4 508.4L661.9 508.9L666.4 508.3L670.8 507L675.3 506.3L679.8 505.6L684.3 504.5L688.8 502.6L693.3 500.3L697.7 497.8L702.2 495.1L706.7 495.5L711.2 498L715.7 495L720.2 492.1L724.6 492.2L729.1 485.9L729.125 524.9399999999999L132.914 524.9399999999999" fill="#3360a9" fill-opacity="0.7"></path><path class="Aluminium-area" stroke-linecap="round" d="M132.9 524.9L137.4 524.9L141.9 524.9L146.4 524.9L150.8 524.9L155.3 524.9L159.8 524.9L164.3 524.9L168.8 524.9L173.3 524.9L177.7 524.9L182.2 524.9L186.7 524.9L191.2 524.9L195.7 524.9L200.2 524.9L204.6 524.9L209.1 524.9L213.6 524.9L218.1 524.9L222.6 524.9L227.1 524.9L231.5 524.9L236 524.9L240.5 524.9L245 524.9L249.5 524.9L253.9 524.9L258.4 524.9L262.9 524.9L267.4 524.9L271.9 524.9L276.4 524.9L280.8 524.9L285.3 524.9L289.8 524.9L294.3 524.9L298.8 524.8L303.3 524.8L307.7 524.9L312.2 524.8L316.7 524.9L321.2 524.8L325.7 524.8L330.2 524.8L334.6 524.7L339.1 524.7L343.6 524.7L348.1 524.6L352.6 524.6L357.1 524.7L361.5 524.8L366 524.8L370.5 524.8L375 524.8L379.5 524.7L384 524.6L388.4 524.5L392.9 524.4L397.4 524.4L401.9 524.4L406.4 524.1L410.8 523.8L415.3 523L419.8 524L424.3 524.4L428.8 524.3L433.3 524.1L437.7 523.8L442.2 523.8L446.7 523.8L451.2 523.4L455.7 523.2L460.2 523L464.6 522.8L469.1 522.6L473.6 522.5L478.1 522.2L482.6 522.1L487.1 521.9L491.5 521.3L496 521.2L500.5 520.9L505 521.1L509.5 520.6L514 520.1L518.4 519.6L522.9 519.1L527.4 518.8L531.9 517.7L536.4 516.9L540.8 516L545.3 515.7L549.8 514.9L554.3 513.7L558.8 514.5L563.3 513.9L567.7 513.2L572.2 513.4L576.7 512.8L581.2 511.9L585.7 512.6L590.2 514.2L594.6 514.1L599.1 511.9L603.6 512.4L608.1 512.6L612.6 511.7L617.1 511L621.5 510.2L626 509.5L630.5 508.7L635 507.8L639.5 507.9L644 507.4L648.4 505.8L652.9 505.4L657.4 505.5L661.9 505.9L666.4 505.2L670.8 503.8L675.3 503L679.8 502.2L684.3 500.8L688.8 498.7L693.3 496.1L697.7 493.4L702.2 490.1L706.7 490.2L711.2 493.1L715.7 489.5L720.2 486.2L724.6 485.9L729.1 479L729.1 485.9L724.6 492.2L720.2 492.1L715.7 495L711.2 498L706.7 495.5L702.2 495.1L697.7 497.8L693.3 500.3L688.8 502.6L684.3 504.5L679.8 505.6L675.3 506.3L670.8 507L666.4 508.3L661.9 508.9L657.4 508.4L652.9 508.2L648.4 508.4L644 509.9L639.5 510.5L635 510.4L630.5 510.8L626 511.5L621.5 512.2L617.1 512.9L612.6 513.5L608.1 514.3L603.6 514.1L599.1 513.6L594.6 515.7L590.2 515.7L585.7 514.3L581.2 513.6L576.7 514.4L572.2 515L567.7 514.8L563.3 515.3L558.8 515.9L554.3 515.2L549.8 516.3L545.3 516.9L540.8 517.2L536.4 518L531.9 518.7L527.4 519.7L522.9 519.9L518.4 520.4L514 520.8L509.5 521.3L505 521.6L500.5 521.5L496 521.7L491.5 521.8L487.1 522.4L482.6 522.5L478.1 522.6L473.6 522.9L469.1 522.9L464.6 523.1L460.2 523.3L455.7 523.5L451.2 523.6L446.7 524L442.2 523.9L437.7 523.9L433.3 524.2L428.8 524.4L424.3 524.5L419.8 524.2L415.3 523.2L410.8 523.9L406.4 524.2L401.9 524.4L397.4 524.5L392.9 524.5L388.4 524.5L384 524.6L379.5 524.8L375 524.8L370.5 524.8L366 524.8L361.5 524.8L357.1 524.7L352.6 524.7L348.1 524.7L343.6 524.7L339.1 524.8L334.6 524.8L330.2 524.8L325.7 524.8L321.2 524.9L316.7 524.9L312.2 524.8L307.7 524.9L303.3 524.9L298.8 524.8L294.3 524.9L289.8 524.9L285.3 524.9L280.8 524.9L276.4 524.9L271.9 524.9L267.4 524.9L262.9 524.9L258.4 524.9L253.9 524.9L249.5 524.9L245 524.9L240.5 524.9L236 524.9L231.5 524.9L227.1 524.9L222.6 524.9L218.1 524.9L213.6 524.9L209.1 524.9L204.6 524.9L200.2 524.9L195.7 524.9L191.2 524.9L186.7 524.9L182.2 524.9L177.7 524.9L173.3 524.9L168.8 524.9L164.3 524.9L159.8 524.9L155.3 524.9L150.8 524.9L146.4 524.9L141.9 524.9L137.4 524.9L132.9 524.9" fill="#2a939b" fill-opacity="0.7"></path><path class="Copper-area" stroke-linecap="round" d="M132.9 524.9L137.4 524.9L141.9 524.9L146.4 524.9L150.8 524.9L155.3 524.9L159.8 524.9L164.3 524.9L168.8 524.8L173.3 524.8L177.7 524.8L182.2 524.8L186.7 524.8L191.2 524.8L195.7 524.8L200.2 524.8L204.6 524.8L209.1 524.8L213.6 524.8L218.1 524.7L222.6 524.7L227.1 524.7L231.5 524.7L236 524.7L240.5 524.7L245 524.6L249.5 524.6L253.9 524.6L258.4 524.6L262.9 524.6L267.4 524.6L271.9 524.5L276.4 524.5L280.8 524.5L285.3 524.5L289.8 524.4L294.3 524.3L298.8 524.3L303.3 524.3L307.7 524.5L312.2 524.4L316.7 524.7L321.2 524.5L325.7 524.3L330.2 524.3L334.6 524.2L339.1 524.2L343.6 524.1L348.1 524L352.6 523.9L357.1 524.1L361.5 524.2L366 524.4L370.5 524.4L375 524.3L379.5 524.2L384 523.9L388.4 523.6L392.9 523.7L397.4 523.5L401.9 523.4L406.4 523.1L410.8 522.7L415.3 521.9L419.8 523L424.3 523.6L428.8 523.6L433.3 523.2L437.7 522.9L442.2 522.9L446.7 522.8L451.2 522.4L455.7 522.1L460.2 521.9L464.6 521.6L469.1 521.3L473.6 521.1L478.1 520.8L482.6 520.7L487.1 520.4L491.5 519.5L496 519.4L500.5 519L505 519.1L509.5 518.6L514 518L518.4 517.5L522.9 517L527.4 516.5L531.9 515.2L536.4 514.3L540.8 513.4L545.3 512.7L549.8 511.8L554.3 510.5L558.8 511.5L563.3 510.7L567.7 511.1L572.2 511.4L576.7 510.7L581.2 509.9L585.7 510.4L590.2 511L594.6 510.9L599.1 508.6L603.6 509.1L608.1 509.3L612.6 508.3L617.1 507.5L621.5 506.7L626 506L630.5 505.2L635 504.2L639.5 504.3L644 503.9L648.4 502.1L652.9 501.5L657.4 501.4L661.9 501.6L666.4 500.7L670.8 499.1L675.3 498.2L679.8 497.4L684.3 496L688.8 493.5L693.3 490.9L697.7 488.2L702.2 484.7L706.7 484.7L711.2 487.5L715.7 483.9L720.2 480.5L724.6 482.2L729.1 476.6L729.1 479L724.6 485.9L720.2 486.2L715.7 489.5L711.2 493.1L706.7 490.2L702.2 490.1L697.7 493.4L693.3 496.1L688.8 498.7L684.3 500.8L679.8 502.2L675.3 503L670.8 503.8L666.4 505.2L661.9 505.9L657.4 505.5L652.9 505.4L648.4 505.8L644 507.4L639.5 507.9L635 507.8L630.5 508.7L626 509.5L621.5 510.2L617.1 511L612.6 511.7L608.1 512.6L603.6 512.4L599.1 511.9L594.6 514.1L590.2 514.2L585.7 512.6L581.2 511.9L576.7 512.8L572.2 513.4L567.7 513.2L563.3 513.9L558.8 514.5L554.3 513.7L549.8 514.9L545.3 515.7L540.8 516L536.4 516.9L531.9 517.7L527.4 518.8L522.9 519.1L518.4 519.6L514 520.1L509.5 520.6L505 521.1L500.5 520.9L496 521.2L491.5 521.3L487.1 521.9L482.6 522.1L478.1 522.2L473.6 522.5L469.1 522.6L464.6 522.8L460.2 523L455.7 523.2L451.2 523.4L446.7 523.8L442.2 523.8L437.7 523.8L433.3 524.1L428.8 524.3L424.3 524.4L419.8 524L415.3 523L410.8 523.8L406.4 524.1L401.9 524.4L397.4 524.4L392.9 524.4L388.4 524.5L384 524.6L379.5 524.7L375 524.8L370.5 524.8L366 524.8L361.5 524.8L357.1 524.7L352.6 524.6L348.1 524.6L343.6 524.7L339.1 524.7L334.6 524.7L330.2 524.8L325.7 524.8L321.2 524.8L316.7 524.9L312.2 524.8L307.7 524.9L303.3 524.8L298.8 524.8L294.3 524.9L289.8 524.9L285.3 524.9L280.8 524.9L276.4 524.9L271.9 524.9L267.4 524.9L262.9 524.9L258.4 524.9L253.9 524.9L249.5 524.9L245 524.9L240.5 524.9L236 524.9L231.5 524.9L227.1 524.9L222.6 524.9L218.1 524.9L213.6 524.9L209.1 524.9L204.6 524.9L200.2 524.9L195.7 524.9L191.2 524.9L186.7 524.9L182.2 524.9L177.7 524.9L173.3 524.9L168.8 524.9L164.3 524.9L159.8 524.9L155.3 524.9L150.8 524.9L146.4 524.9L141.9 524.9L137.4 524.9L132.9 524.9" fill="rgb(136, 99, 101)" fill-opacity="0.7"></path><path class="Silver-area" stroke-linecap="round" d="M132.9 524.9L137.4 524.9L141.9 524.9L146.4 524.9L150.8 524.9L155.3 524.9L159.8 524.9L164.3 524.9L168.8 524.8L173.3 524.8L177.7 524.8L182.2 524.8L186.7 524.8L191.2 524.8L195.7 524.8L200.2 524.8L204.6 524.8L209.1 524.8L213.6 524.8L218.1 524.7L222.6 524.7L227.1 524.7L231.5 524.7L236 524.7L240.5 524.7L245 524.6L249.5 524.6L253.9 524.6L258.4 524.6L262.9 524.6L267.4 524.5L271.9 524.5L276.4 524.5L280.8 524.5L285.3 524.5L289.8 524.4L294.3 524.3L298.8 524.3L303.3 524.3L307.7 524.5L312.2 524.4L316.7 524.7L321.2 524.5L325.7 524.3L330.2 524.3L334.6 524.2L339.1 524.2L343.6 524.1L348.1 524L352.6 523.9L357.1 524.1L361.5 524.2L366 524.4L370.5 524.4L375 524.3L379.5 524.2L384 523.9L388.4 523.6L392.9 523.7L397.4 523.5L401.9 523.4L406.4 523.1L410.8 522.7L415.3 521.9L419.8 523L424.3 523.6L428.8 523.6L433.3 523.2L437.7 522.9L442.2 522.9L446.7 522.8L451.2 522.4L455.7 522.1L460.2 521.9L464.6 521.6L469.1 521.3L473.6 521.1L478.1 520.8L482.6 520.7L487.1 520.4L491.5 519.5L496 519.4L500.5 519L505 519.1L509.5 518.6L514 518L518.4 517.5L522.9 517L527.4 516.5L531.9 515.2L536.4 514.3L540.8 513.4L545.3 512.7L549.8 511.8L554.3 510.5L558.8 511.5L563.3 510.7L567.7 511.1L572.2 511.4L576.7 510.7L581.2 509.9L585.7 510.4L590.2 511L594.6 510.9L599.1 508.6L603.6 509.1L608.1 509.3L612.6 508.3L617.1 507.5L621.5 506.7L626 505.9L630.5 505.2L635 504.2L639.5 504.3L644 503.9L648.4 502.1L652.9 501.5L657.4 501.4L661.9 501.6L666.4 500.7L670.8 499.1L675.3 498.2L679.8 497.4L684.3 496L688.8 493.5L693.3 490.9L697.7 488.2L702.2 484.7L706.7 484.7L711.2 487.4L715.7 483.9L720.2 480.5L724.6 482.2L729.1 476.6L729.1 476.6L724.6 482.2L720.2 480.5L715.7 483.9L711.2 487.5L706.7 484.7L702.2 484.7L697.7 488.2L693.3 490.9L688.8 493.5L684.3 496L679.8 497.4L675.3 498.2L670.8 499.1L666.4 500.7L661.9 501.6L657.4 501.4L652.9 501.5L648.4 502.1L644 503.9L639.5 504.3L635 504.2L630.5 505.2L626 506L621.5 506.7L617.1 507.5L612.6 508.3L608.1 509.3L603.6 509.1L599.1 508.6L594.6 510.9L590.2 511L585.7 510.4L581.2 509.9L576.7 510.7L572.2 511.4L567.7 511.1L563.3 510.7L558.8 511.5L554.3 510.5L549.8 511.8L545.3 512.7L540.8 513.4L536.4 514.3L531.9 515.2L527.4 516.5L522.9 517L518.4 517.5L514 518L509.5 518.6L505 519.1L500.5 519L496 519.4L491.5 519.5L487.1 520.4L482.6 520.7L478.1 520.8L473.6 521.1L469.1 521.3L464.6 521.6L460.2 521.9L455.7 522.1L451.2 522.4L446.7 522.8L442.2 522.9L437.7 522.9L433.3 523.2L428.8 523.6L424.3 523.6L419.8 523L415.3 521.9L410.8 522.7L406.4 523.1L401.9 523.4L397.4 523.5L392.9 523.7L388.4 523.6L384 523.9L379.5 524.2L375 524.3L370.5 524.4L366 524.4L361.5 524.2L357.1 524.1L352.6 523.9L348.1 524L343.6 524.1L339.1 524.2L334.6 524.2L330.2 524.3L325.7 524.3L321.2 524.5L316.7 524.7L312.2 524.4L307.7 524.5L303.3 524.3L298.8 524.3L294.3 524.3L289.8 524.4L285.3 524.5L280.8 524.5L276.4 524.5L271.9 524.5L267.4 524.6L262.9 524.6L258.4 524.6L253.9 524.6L249.5 524.6L245 524.6L240.5 524.7L236 524.7L231.5 524.7L227.1 524.7L222.6 524.7L218.1 524.7L213.6 524.8L209.1 524.8L204.6 524.8L200.2 524.8L195.7 524.8L191.2 524.8L186.7 524.8L182.2 524.8L177.7 524.8L173.3 524.8L168.8 524.8L164.3 524.9L159.8 524.9L155.3 524.9L150.8 524.9L146.4 524.9L141.9 524.9L137.4 524.9L132.9 524.9" fill="#e6332e" fill-opacity="0.7"></path><path class="Manganese-area" stroke-linecap="round" d="M132.9 524.9L137.4 524.9L141.9 524.9L146.4 524.9L150.8 524.9L155.3 524.8L159.8 524.8L164.3 524.8L168.8 524.8L173.3 524.8L177.7 524.8L182.2 524.8L186.7 524.8L191.2 524.8L195.7 524.8L200.2 524.8L204.6 524.7L209.1 524.7L213.6 524.7L218.1 524.6L222.6 524.6L227.1 524.6L231.5 524.6L236 524.6L240.5 524.6L245 524.5L249.5 524.4L253.9 524.3L258.4 524.4L262.9 524.4L267.4 524.3L271.9 524.3L276.4 524.3L280.8 524.2L285.3 524.3L289.8 524.2L294.3 524.1L298.8 524L303.3 524.1L307.7 524.3L312.2 524.2L316.7 524.5L321.2 524.4L325.7 524.1L330.2 524L334.6 523.9L339.1 523.8L343.6 523.7L348.1 523.8L352.6 523.6L357.1 524L361.5 524.2L366 524.4L370.5 524.4L375 524.2L379.5 524.1L384 523.8L388.4 523.2L392.9 523.4L397.4 523.3L401.9 523.1L406.4 522.9L410.8 522.5L415.3 521.8L419.8 522.8L424.3 523.4L428.8 523.4L433.3 523L437.7 522.6L442.2 522.5L446.7 522.4L451.2 521.9L455.7 521.5L460.2 521.2L464.6 521L469.1 520.7L473.6 520.4L478.1 520L482.6 520L487.1 519.7L491.5 518.8L496 518.6L500.5 518.2L505 518.3L509.5 517.7L514 517.1L518.4 516.6L522.9 516.1L527.4 515.6L531.9 514.2L536.4 513.3L540.8 512.3L545.3 511.6L549.8 510.6L554.3 509.2L558.8 510.2L563.3 509.4L567.7 509.8L572.2 510.2L576.7 509.3L581.2 508.4L585.7 509.1L590.2 509.6L594.6 509.8L599.1 507.3L603.6 507.8L608.1 508L612.6 507.1L617.1 506.3L621.5 505.3L626 504.7L630.5 504.1L635 503.1L639.5 503.2L644 502.8L648.4 500.8L652.9 500.1L657.4 500.2L661.9 500.4L666.4 499.6L670.8 498L675.3 497L679.8 496.2L684.3 494.7L688.8 492.1L693.3 489.3L697.7 486.5L702.2 483L706.7 482.8L711.2 485.8L715.7 481.7L720.2 478.1L724.6 479.8L729.1 474.3L729.1 476.6L724.6 482.2L720.2 480.5L715.7 483.9L711.2 487.4L706.7 484.7L702.2 484.7L697.7 488.2L693.3 490.9L688.8 493.5L684.3 496L679.8 497.4L675.3 498.2L670.8 499.1L666.4 500.7L661.9 501.6L657.4 501.4L652.9 501.5L648.4 502.1L644 503.9L639.5 504.3L635 504.2L630.5 505.2L626 505.9L621.5 506.7L617.1 507.5L612.6 508.3L608.1 509.3L603.6 509.1L599.1 508.6L594.6 510.9L590.2 511L585.7 510.4L581.2 509.9L576.7 510.7L572.2 511.4L567.7 511.1L563.3 510.7L558.8 511.5L554.3 510.5L549.8 511.8L545.3 512.7L540.8 513.4L536.4 514.3L531.9 515.2L527.4 516.5L522.9 517L518.4 517.5L514 518L509.5 518.6L505 519.1L500.5 519L496 519.4L491.5 519.5L487.1 520.4L482.6 520.7L478.1 520.8L473.6 521.1L469.1 521.3L464.6 521.6L460.2 521.9L455.7 522.1L451.2 522.4L446.7 522.8L442.2 522.9L437.7 522.9L433.3 523.2L428.8 523.6L424.3 523.6L419.8 523L415.3 521.9L410.8 522.7L406.4 523.1L401.9 523.4L397.4 523.5L392.9 523.7L388.4 523.6L384 523.9L379.5 524.2L375 524.3L370.5 524.4L366 524.4L361.5 524.2L357.1 524.1L352.6 523.9L348.1 524L343.6 524.1L339.1 524.2L334.6 524.2L330.2 524.3L325.7 524.3L321.2 524.5L316.7 524.7L312.2 524.4L307.7 524.5L303.3 524.3L298.8 524.3L294.3 524.3L289.8 524.4L285.3 524.5L280.8 524.5L276.4 524.5L271.9 524.5L267.4 524.5L262.9 524.6L258.4 524.6L253.9 524.6L249.5 524.6L245 524.6L240.5 524.7L236 524.7L231.5 524.7L227.1 524.7L222.6 524.7L218.1 524.7L213.6 524.8L209.1 524.8L204.6 524.8L200.2 524.8L195.7 524.8L191.2 524.8L186.7 524.8L182.2 524.8L177.7 524.8L173.3 524.8L168.8 524.8L164.3 524.9L159.8 524.9L155.3 524.9L150.8 524.9L146.4 524.9L141.9 524.9L137.4 524.9L132.9 524.9" fill="rgb(216, 45, 43)" fill-opacity="0.7"></path><path class="Zinc-area" stroke-linecap="round" d="M132.9 524.9L137.4 524.8L141.9 524.8L146.4 524.8L150.8 524.8L155.3 524.8L159.8 524.8L164.3 524.8L168.8 524.8L173.3 524.8L177.7 524.7L182.2 524.8L186.7 524.7L191.2 524.7L195.7 524.7L200.2 524.7L204.6 524.7L209.1 524.7L213.6 524.6L218.1 524.5L222.6 524.5L227.1 524.5L231.5 524.5L236 524.5L240.5 524.5L245 524.4L249.5 524.3L253.9 524.2L258.4 524.3L262.9 524.3L267.4 524.2L271.9 524.2L276.4 524.1L280.8 524L285.3 524.1L289.8 524.1L294.3 523.9L298.8 523.9L303.3 523.9L307.7 524.2L312.2 524.1L316.7 524.4L321.2 524.2L325.7 523.9L330.2 523.8L334.6 523.7L339.1 523.6L343.6 523.5L348.1 523.5L352.6 523.4L357.1 523.8L361.5 524L366 524.3L370.5 524.2L375 524.1L379.5 523.9L384 523.6L388.4 523L392.9 523.1L397.4 523L401.9 522.8L406.4 522.7L410.8 522.3L415.3 521.5L419.8 522.7L424.3 523.2L428.8 523.2L433.3 522.8L437.7 522.4L442.2 522.3L446.7 522.1L451.2 521.6L455.7 521.3L460.2 520.9L464.6 520.6L469.1 520.3L473.6 520L478.1 519.6L482.6 519.6L487.1 519.3L491.5 518.4L496 518.2L500.5 517.8L505 517.9L509.5 517.2L514 516.6L518.4 516L522.9 515.5L527.4 515L531.9 513.5L536.4 512.6L540.8 511.5L545.3 510.9L549.8 509.8L554.3 508.4L558.8 509.4L563.3 508.6L567.7 508.9L572.2 509.3L576.7 508.5L581.2 507.6L585.7 508.3L590.2 508.8L594.6 509L599.1 506.5L603.6 506.9L608.1 507.2L612.6 506.2L617.1 505.4L621.5 504.5L626 503.8L630.5 503.1L635 502.1L639.5 502.3L644 501.8L648.4 499.8L652.9 499.1L657.4 499.2L661.9 499.4L666.4 498.6L670.8 496.8L675.3 495.8L679.8 495L684.3 493.4L688.8 490.8L693.3 488L697.7 485.2L702.2 481.5L706.7 481.3L711.2 484.3L715.7 480.2L720.2 476.5L724.6 478.1L729.1 472.6L729.1 474.3L724.6 479.8L720.2 478.1L715.7 481.7L711.2 485.8L706.7 482.8L702.2 483L697.7 486.5L693.3 489.3L688.8 492.1L684.3 494.7L679.8 496.2L675.3 497L670.8 498L666.4 499.6L661.9 500.4L657.4 500.2L652.9 500.1L648.4 500.8L644 502.8L639.5 503.2L635 503.1L630.5 504.1L626 504.7L621.5 505.3L617.1 506.3L612.6 507.1L608.1 508L603.6 507.8L599.1 507.3L594.6 509.8L590.2 509.6L585.7 509.1L581.2 508.4L576.7 509.3L572.2 510.2L567.7 509.8L563.3 509.4L558.8 510.2L554.3 509.2L549.8 510.6L545.3 511.6L540.8 512.3L536.4 513.3L531.9 514.2L527.4 515.6L522.9 516.1L518.4 516.6L514 517.1L509.5 517.7L505 518.3L500.5 518.2L496 518.6L491.5 518.8L487.1 519.7L482.6 520L478.1 520L473.6 520.4L469.1 520.7L464.6 521L460.2 521.2L455.7 521.5L451.2 521.9L446.7 522.4L442.2 522.5L437.7 522.6L433.3 523L428.8 523.4L424.3 523.4L419.8 522.8L415.3 521.8L410.8 522.5L406.4 522.9L401.9 523.1L397.4 523.3L392.9 523.4L388.4 523.2L384 523.8L379.5 524.1L375 524.2L370.5 524.4L366 524.4L361.5 524.2L357.1 524L352.6 523.6L348.1 523.8L343.6 523.7L339.1 523.8L334.6 523.9L330.2 524L325.7 524.1L321.2 524.4L316.7 524.5L312.2 524.2L307.7 524.3L303.3 524.1L298.8 524L294.3 524.1L289.8 524.2L285.3 524.3L280.8 524.2L276.4 524.3L271.9 524.3L267.4 524.3L262.9 524.4L258.4 524.4L253.9 524.3L249.5 524.4L245 524.5L240.5 524.6L236 524.6L231.5 524.6L227.1 524.6L222.6 524.6L218.1 524.6L213.6 524.7L209.1 524.7L204.6 524.7L200.2 524.8L195.7 524.8L191.2 524.8L186.7 524.8L182.2 524.8L177.7 524.8L173.3 524.8L168.8 524.8L164.3 524.8L159.8 524.8L155.3 524.8L150.8 524.9L146.4 524.9L141.9 524.9L137.4 524.9L132.9 524.9" fill="#ca2628" fill-opacity="0.7"></path><path class="Lead-area" stroke-linecap="round" d="M132.9 524.8L137.4 524.8L141.9 524.8L146.4 524.8L150.8 524.8L155.3 524.8L159.8 524.8L164.3 524.7L168.8 524.7L173.3 524.7L177.7 524.7L182.2 524.7L186.7 524.7L191.2 524.7L195.7 524.7L200.2 524.6L204.6 524.6L209.1 524.6L213.6 524.5L218.1 524.5L222.6 524.4L227.1 524.5L231.5 524.4L236 524.4L240.5 524.4L245 524.3L249.5 524.2L253.9 524.1L258.4 524.2L262.9 524.1L267.4 524.1L271.9 524.1L276.4 524L280.8 523.9L285.3 524L289.8 524L294.3 523.8L298.8 523.7L303.3 523.8L307.7 524.1L312.2 524L316.7 524.3L321.2 524.1L325.7 523.8L330.2 523.7L334.6 523.5L339.1 523.4L343.6 523.3L348.1 523.4L352.6 523.2L357.1 523.6L361.5 523.9L366 524.1L370.5 524.1L375 523.9L379.5 523.7L384 523.4L388.4 522.8L392.9 522.9L397.4 522.8L401.9 522.6L406.4 522.5L410.8 522.1L415.3 521.3L419.8 522.5L424.3 523.1L428.8 523.1L433.3 522.6L437.7 522.2L442.2 522.1L446.7 521.9L451.2 521.4L455.7 521L460.2 520.7L464.6 520.4L469.1 520.1L473.6 519.8L478.1 519.4L482.6 519.3L487.1 519L491.5 518.1L496 517.9L500.5 517.5L505 517.5L509.5 516.9L514 516.3L518.4 515.7L522.9 515.1L527.4 514.6L531.9 513.1L536.4 512.2L540.8 511.1L545.3 510.4L549.8 509.4L554.3 508L558.8 508.9L563.3 508.1L567.7 508.5L572.2 508.9L576.7 508L581.2 507.2L585.7 507.9L590.2 508.3L594.6 508.5L599.1 506.1L603.6 506.5L608.1 506.8L612.6 505.8L617.1 504.9L621.5 504L626 503.3L630.5 502.8L635 501.7L639.5 501.9L644 501.5L648.4 499.5L652.9 498.7L657.4 498.8L661.9 499L666.4 498.2L670.8 496.4L675.3 495.4L679.8 494.7L684.3 493L688.8 490.4L693.3 487.6L697.7 484.7L702.2 481L706.7 480.8L711.2 483.8L715.7 479.6L720.2 475.9L724.6 477.4L729.1 471.2L729.1 472.6L724.6 478.1L720.2 476.5L715.7 480.2L711.2 484.3L706.7 481.3L702.2 481.5L697.7 485.2L693.3 488L688.8 490.8L684.3 493.4L679.8 495L675.3 495.8L670.8 496.8L666.4 498.6L661.9 499.4L657.4 499.2L652.9 499.1L648.4 499.8L644 501.8L639.5 502.3L635 502.1L630.5 503.1L626 503.8L621.5 504.5L617.1 505.4L612.6 506.2L608.1 507.2L603.6 506.9L599.1 506.5L594.6 509L590.2 508.8L585.7 508.3L581.2 507.6L576.7 508.5L572.2 509.3L567.7 508.9L563.3 508.6L558.8 509.4L554.3 508.4L549.8 509.8L545.3 510.9L540.8 511.5L536.4 512.6L531.9 513.5L527.4 515L522.9 515.5L518.4 516L514 516.6L509.5 517.2L505 517.9L500.5 517.8L496 518.2L491.5 518.4L487.1 519.3L482.6 519.6L478.1 519.6L473.6 520L469.1 520.3L464.6 520.6L460.2 520.9L455.7 521.3L451.2 521.6L446.7 522.1L442.2 522.3L437.7 522.4L433.3 522.8L428.8 523.2L424.3 523.2L419.8 522.7L415.3 521.5L410.8 522.3L406.4 522.7L401.9 522.8L397.4 523L392.9 523.1L388.4 523L384 523.6L379.5 523.9L375 524.1L370.5 524.2L366 524.3L361.5 524L357.1 523.8L352.6 523.4L348.1 523.5L343.6 523.5L339.1 523.6L334.6 523.7L330.2 523.8L325.7 523.9L321.2 524.2L316.7 524.4L312.2 524.1L307.7 524.2L303.3 523.9L298.8 523.9L294.3 523.9L289.8 524.1L285.3 524.1L280.8 524L276.4 524.1L271.9 524.2L267.4 524.2L262.9 524.3L258.4 524.3L253.9 524.2L249.5 524.3L245 524.4L240.5 524.5L236 524.5L231.5 524.5L227.1 524.5L222.6 524.5L218.1 524.5L213.6 524.6L209.1 524.7L204.6 524.7L200.2 524.7L195.7 524.7L191.2 524.7L186.7 524.7L182.2 524.8L177.7 524.7L173.3 524.8L168.8 524.8L164.3 524.8L159.8 524.8L155.3 524.8L150.8 524.8L146.4 524.8L141.9 524.8L137.4 524.8L132.9 524.9" fill="rgb(229, 126, 51)" fill-opacity="0.7"></path><path class="Iron-Ore-area" stroke-linecap="round" d="M132.9 519.3L137.4 519.3L141.9 518.6L146.4 518.8L150.8 519.1L155.3 519.3L159.8 519.2L164.3 518.8L168.8 518.4L173.3 518L177.7 517.3L182.2 517.8L186.7 517.5L191.2 518.2L195.7 517.7L200.2 517L204.6 516.3L209.1 515.6L213.6 515L218.1 513.4L222.6 512.8L227.1 513.5L231.5 512.3L236 511.6L240.5 512.2L245 509.5L249.5 507.8L253.9 506.7L258.4 509.4L262.9 507.1L267.4 504.9L271.9 506L276.4 503.5L280.8 500.8L285.3 507.4L289.8 507.7L294.3 504.4L298.8 504.7L303.3 507L307.7 509.7L312.2 508L316.7 514.8L321.2 510.4L325.7 506.1L330.2 506.8L334.6 503.9L339.1 503.3L343.6 501.1L348.1 500.9L352.6 497.2L357.1 500.5L361.5 508.7L366 514.4L370.5 512.5L375 508.6L379.5 505.6L384 501.4L388.4 495.2L392.9 501.8L397.4 497.5L401.9 496.1L406.4 497.3L410.8 495.5L415.3 494.9L419.8 499.7L424.3 503.4L428.8 503.3L433.3 498.6L437.7 494.2L442.2 493.6L446.7 490.6L451.2 484.4L455.7 483.1L460.2 478.2L464.6 482.8L469.1 474.2L473.6 470.9L478.1 466.7L482.6 472.6L487.1 463.6L491.5 452L496 454.9L500.5 453.4L505 451.6L509.5 443.5L514 438.4L518.4 434.7L522.9 435.7L527.4 427.7L531.9 427.6L536.4 414.1L540.8 411.3L545.3 410.7L549.8 401.6L554.3 394.4L558.8 394.6L563.3 393.1L567.7 400.7L572.2 401.4L576.7 392.5L581.2 393.7L585.7 399.4L590.2 405.6L594.6 410.6L599.1 395.7L603.6 391.2L608.1 391L612.6 385.8L617.1 381L621.5 377.1L626 377.8L630.5 379.6L635 379.1L639.5 378.5L644 370.9L648.4 365.7L652.9 364.3L657.4 358.4L661.9 360.4L666.4 364.7L670.8 353.4L675.3 356.9L679.8 347.5L684.3 329.9L688.8 309.1L693.3 280.8L697.7 243.1L702.2 211L706.7 186L711.2 182.9L715.7 132.7L720.2 78.1L724.6 85.5L729.1 176.7L729.1 471.2L724.6 477.4L720.2 475.9L715.7 479.6L711.2 483.8L706.7 480.8L702.2 481L697.7 484.7L693.3 487.6L688.8 490.4L684.3 493L679.8 494.7L675.3 495.4L670.8 496.4L666.4 498.2L661.9 499L657.4 498.8L652.9 498.7L648.4 499.5L644 501.5L639.5 501.9L635 501.7L630.5 502.8L626 503.3L621.5 504L617.1 504.9L612.6 505.8L608.1 506.8L603.6 506.5L599.1 506.1L594.6 508.5L590.2 508.3L585.7 507.9L581.2 507.2L576.7 508L572.2 508.9L567.7 508.5L563.3 508.1L558.8 508.9L554.3 508L549.8 509.4L545.3 510.4L540.8 511.1L536.4 512.2L531.9 513.1L527.4 514.6L522.9 515.1L518.4 515.7L514 516.3L509.5 516.9L505 517.5L500.5 517.5L496 517.9L491.5 518.1L487.1 519L482.6 519.3L478.1 519.4L473.6 519.8L469.1 520.1L464.6 520.4L460.2 520.7L455.7 521L451.2 521.4L446.7 521.9L442.2 522.1L437.7 522.2L433.3 522.6L428.8 523.1L424.3 523.1L419.8 522.5L415.3 521.3L410.8 522.1L406.4 522.5L401.9 522.6L397.4 522.8L392.9 522.9L388.4 522.8L384 523.4L379.5 523.7L375 523.9L370.5 524.1L366 524.1L361.5 523.9L357.1 523.6L352.6 523.2L348.1 523.4L343.6 523.3L339.1 523.4L334.6 523.5L330.2 523.7L325.7 523.8L321.2 524.1L316.7 524.3L312.2 524L307.7 524.1L303.3 523.8L298.8 523.7L294.3 523.8L289.8 524L285.3 524L280.8 523.9L276.4 524L271.9 524.1L267.4 524.1L262.9 524.1L258.4 524.2L253.9 524.1L249.5 524.2L245 524.3L240.5 524.4L236 524.4L231.5 524.4L227.1 524.5L222.6 524.4L218.1 524.5L213.6 524.5L209.1 524.6L204.6 524.6L200.2 524.6L195.7 524.7L191.2 524.7L186.7 524.7L182.2 524.7L177.7 524.7L173.3 524.7L168.8 524.7L164.3 524.7L159.8 524.8L155.3 524.8L150.8 524.8L146.4 524.8L141.9 524.8L137.4 524.8L132.9 524.8" fill="#ffd53e" fill-opacity="0.7"></path><path class="Nickel-area" stroke-linecap="round" d="M132.9 519.3L137.4 519.3L141.9 518.6L146.4 518.8L150.8 519.1L155.3 519.3L159.8 519.2L164.3 518.8L168.8 518.4L173.3 518L177.7 517.3L182.2 517.8L186.7 517.5L191.2 518.2L195.7 517.7L200.2 517L204.6 516.3L209.1 515.6L213.6 515L218.1 513.4L222.6 512.8L227.1 513.5L231.5 512.3L236 511.6L240.5 512.2L245 509.5L249.5 507.8L253.9 506.7L258.4 509.4L262.9 507.1L267.4 504.9L271.9 506L276.4 503.5L280.8 500.8L285.3 507.4L289.8 507.7L294.3 504.4L298.8 504.7L303.3 507L307.7 509.7L312.2 508L316.7 514.8L321.2 510.4L325.7 506.1L330.2 506.8L334.6 503.9L339.1 503.3L343.6 501.1L348.1 500.9L352.6 497.2L357.1 500.5L361.5 508.7L366 514.4L370.5 512.5L375 508.6L379.5 505.6L384 501.4L388.4 495.2L392.9 501.8L397.4 497.5L401.9 496.1L406.4 497.2L410.8 495.5L415.3 494.9L419.8 499.7L424.3 503.4L428.8 503.2L433.3 498.6L437.7 494.2L442.2 493.6L446.7 490.6L451.2 484.4L455.7 483.1L460.2 478.1L464.6 482.7L469.1 474.2L473.6 470.9L478.1 466.6L482.6 472.6L487.1 463.5L491.5 452L496 454.9L500.5 453.4L505 451.6L509.5 443.4L514 438.3L518.4 434.7L522.9 435.6L527.4 427.7L531.9 427.5L536.4 414L540.8 411.2L545.3 410.7L549.8 401.6L554.3 394.4L558.8 394.5L563.3 393L567.7 400.6L572.2 401.3L576.7 392.4L581.2 393.7L585.7 399.3L590.2 405.5L594.6 410.5L599.1 395.6L603.6 391.1L608.1 390.9L612.6 385.7L617.1 380.9L621.5 377L626 377.7L630.5 379.5L635 379L639.5 378.4L644 370.8L648.4 365.6L652.9 364.2L657.4 358.3L661.9 360.3L666.4 364.6L670.8 353.2L675.3 356.7L679.8 347.3L684.3 329.8L688.8 309L693.3 280.6L697.7 242.9L702.2 210.8L706.7 185.8L711.2 182.8L715.7 132.5L720.2 77.9L724.6 85.3L729.1 176.4L729.1 176.7L724.6 85.5L720.2 78.1L715.7 132.7L711.2 182.9L706.7 186L702.2 211L697.7 243.1L693.3 280.8L688.8 309.1L684.3 329.9L679.8 347.5L675.3 356.9L670.8 353.4L666.4 364.7L661.9 360.4L657.4 358.4L652.9 364.3L648.4 365.7L644 370.9L639.5 378.5L635 379.1L630.5 379.6L626 377.8L621.5 377.1L617.1 381L612.6 385.8L608.1 391L603.6 391.2L599.1 395.7L594.6 410.6L590.2 405.6L585.7 399.4L581.2 393.7L576.7 392.5L572.2 401.4L567.7 400.7L563.3 393.1L558.8 394.6L554.3 394.4L549.8 401.6L545.3 410.7L540.8 411.3L536.4 414.1L531.9 427.6L527.4 427.7L522.9 435.7L518.4 434.7L514 438.4L509.5 443.5L505 451.6L500.5 453.4L496 454.9L491.5 452L487.1 463.6L482.6 472.6L478.1 466.7L473.6 470.9L469.1 474.2L464.6 482.8L460.2 478.2L455.7 483.1L451.2 484.4L446.7 490.6L442.2 493.6L437.7 494.2L433.3 498.6L428.8 503.3L424.3 503.4L419.8 499.7L415.3 494.9L410.8 495.5L406.4 497.3L401.9 496.1L397.4 497.5L392.9 501.8L388.4 495.2L384 501.4L379.5 505.6L375 508.6L370.5 512.5L366 514.4L361.5 508.7L357.1 500.5L352.6 497.2L348.1 500.9L343.6 501.1L339.1 503.3L334.6 503.9L330.2 506.8L325.7 506.1L321.2 510.4L316.7 514.8L312.2 508L307.7 509.7L303.3 507L298.8 504.7L294.3 504.4L289.8 507.7L285.3 507.4L280.8 500.8L276.4 503.5L271.9 506L267.4 504.9L262.9 507.1L258.4 509.4L253.9 506.7L249.5 507.8L245 509.5L240.5 512.2L236 511.6L231.5 512.3L227.1 513.5L222.6 512.8L218.1 513.4L213.6 515L209.1 515.6L204.6 516.3L200.2 517L195.7 517.7L191.2 518.2L186.7 517.5L182.2 517.8L177.7 517.3L173.3 518L168.8 518.4L164.3 518.8L159.8 519.2L155.3 519.3L150.8 519.1L146.4 518.8L141.9 518.6L137.4 519.3L132.9 519.3" fill="rgb(207, 209, 100)" fill-opacity="0.7"></path><path class="Tin-area" stroke-linecap="round" d="M132.9 519.3L137.4 519.2L141.9 518.6L146.4 518.8L150.8 519.1L155.3 519.3L159.8 519.2L164.3 518.8L168.8 518.4L173.3 518L177.7 517.3L182.2 517.8L186.7 517.5L191.2 518.2L195.7 517.6L200.2 517L204.6 516.3L209.1 515.6L213.6 515L218.1 513.4L222.6 512.8L227.1 513.5L231.5 512.3L236 511.6L240.5 512.2L245 509.5L249.5 507.8L253.9 506.6L258.4 509.4L262.9 507.1L267.4 504.9L271.9 506L276.4 503.5L280.8 500.7L285.3 507.3L289.8 507.7L294.3 504.4L298.8 504.7L303.3 507L307.7 509.7L312.2 508L316.7 514.8L321.2 510.4L325.7 506.1L330.2 506.8L334.6 503.8L339.1 503.3L343.6 501.1L348.1 500.9L352.6 497.1L357.1 500.4L361.5 508.7L366 514.4L370.5 512.4L375 508.6L379.5 505.6L384 501.4L388.4 495.2L392.9 501.8L397.4 497.4L401.9 496L406.4 497.2L410.8 495.5L415.3 494.9L419.8 499.6L424.3 503.3L428.8 503.2L433.3 498.5L437.7 494.2L442.2 493.6L446.7 490.6L451.2 484.4L455.7 483.1L460.2 478.1L464.6 482.7L469.1 474.2L473.6 470.9L478.1 466.6L482.6 472.6L487.1 463.5L491.5 452L496 454.8L500.5 453.3L505 451.6L509.5 443.4L514 438.3L518.4 434.6L522.9 435.6L527.4 427.6L531.9 427.5L536.4 414L540.8 411.2L545.3 410.6L549.8 401.5L554.3 394.3L558.8 394.5L563.3 393L567.7 400.6L572.2 401.3L576.7 392.4L581.2 393.6L585.7 399.2L590.2 405.5L594.6 410.5L599.1 395.6L603.6 391.1L608.1 390.8L612.6 385.6L617.1 380.8L621.5 377L626 377.6L630.5 379.4L635 378.9L639.5 378.4L644 370.8L648.4 365.6L652.9 364.1L657.4 358.3L661.9 360.2L666.4 364.5L670.8 353.2L675.3 356.7L679.8 347.3L684.3 329.7L688.8 308.9L693.3 280.6L697.7 242.9L702.2 210.8L706.7 185.7L711.2 182.7L715.7 132.5L720.2 77.8L724.6 85.3L729.1 176.3L729.1 176.4L724.6 85.3L720.2 77.9L715.7 132.5L711.2 182.8L706.7 185.8L702.2 210.8L697.7 242.9L693.3 280.6L688.8 309L684.3 329.8L679.8 347.3L675.3 356.7L670.8 353.2L666.4 364.6L661.9 360.3L657.4 358.3L652.9 364.2L648.4 365.6L644 370.8L639.5 378.4L635 379L630.5 379.5L626 377.7L621.5 377L617.1 380.9L612.6 385.7L608.1 390.9L603.6 391.1L599.1 395.6L594.6 410.5L590.2 405.5L585.7 399.3L581.2 393.7L576.7 392.4L572.2 401.3L567.7 400.6L563.3 393L558.8 394.5L554.3 394.4L549.8 401.6L545.3 410.7L540.8 411.2L536.4 414L531.9 427.5L527.4 427.7L522.9 435.6L518.4 434.7L514 438.3L509.5 443.4L505 451.6L500.5 453.4L496 454.9L491.5 452L487.1 463.5L482.6 472.6L478.1 466.6L473.6 470.9L469.1 474.2L464.6 482.7L460.2 478.1L455.7 483.1L451.2 484.4L446.7 490.6L442.2 493.6L437.7 494.2L433.3 498.6L428.8 503.2L424.3 503.4L419.8 499.7L415.3 494.9L410.8 495.5L406.4 497.2L401.9 496.1L397.4 497.5L392.9 501.8L388.4 495.2L384 501.4L379.5 505.6L375 508.6L370.5 512.5L366 514.4L361.5 508.7L357.1 500.5L352.6 497.2L348.1 500.9L343.6 501.1L339.1 503.3L334.6 503.9L330.2 506.8L325.7 506.1L321.2 510.4L316.7 514.8L312.2 508L307.7 509.7L303.3 507L298.8 504.7L294.3 504.4L289.8 507.7L285.3 507.4L280.8 500.8L276.4 503.5L271.9 506L267.4 504.9L262.9 507.1L258.4 509.4L253.9 506.7L249.5 507.8L245 509.5L240.5 512.2L236 511.6L231.5 512.3L227.1 513.5L222.6 512.8L218.1 513.4L213.6 515L209.1 515.6L204.6 516.3L200.2 517L195.7 517.7L191.2 518.2L186.7 517.5L182.2 517.8L177.7 517.3L173.3 518L168.8 518.4L164.3 518.8L159.8 519.2L155.3 519.3L150.8 519.1L146.4 518.8L141.9 518.6L137.4 519.3L132.9 519.3" fill="#9ecc8a" fill-opacity="0.7"></path><path class="Tungsten-area" stroke-linecap="round" d="M132.9 519.3L137.4 519.2L141.9 518.6L146.4 518.8L150.8 519.1L155.3 519.3L159.8 519.2L164.3 518.8L168.8 518.4L173.3 518L177.7 517.3L182.2 517.8L186.7 517.5L191.2 518.2L195.7 517.6L200.2 517L204.6 516.3L209.1 515.6L213.6 515L218.1 513.4L222.6 512.8L227.1 513.5L231.5 512.3L236 511.6L240.5 512.2L245 509.5L249.5 507.8L253.9 506.6L258.4 509.4L262.9 507.1L267.4 504.9L271.9 506L276.4 503.5L280.8 500.7L285.3 507.3L289.8 507.7L294.3 504.4L298.8 504.7L303.3 507L307.7 509.7L312.2 508L316.7 514.8L321.2 510.4L325.7 506.1L330.2 506.8L334.6 503.8L339.1 503.3L343.6 501.1L348.1 500.9L352.6 497.1L357.1 500.4L361.5 508.7L366 514.4L370.5 512.4L375 508.6L379.5 505.6L384 501.4L388.4 495.2L392.9 501.8L397.4 497.4L401.9 496L406.4 497.2L410.8 495.5L415.3 494.9L419.8 499.6L424.3 503.3L428.8 503.2L433.3 498.5L437.7 494.2L442.2 493.6L446.7 490.6L451.2 484.4L455.7 483.1L460.2 478.1L464.6 482.7L469.1 474.2L473.6 470.9L478.1 466.6L482.6 472.6L487.1 463.5L491.5 452L496 454.8L500.5 453.3L505 451.6L509.5 443.4L514 438.3L518.4 434.6L522.9 435.6L527.4 427.6L531.9 427.5L536.4 414L540.8 411.2L545.3 410.6L549.8 401.5L554.3 394.3L558.8 394.5L563.3 393L567.7 400.6L572.2 401.3L576.7 392.4L581.2 393.6L585.7 399.2L590.2 405.5L594.6 410.5L599.1 395.6L603.6 391.1L608.1 390.8L612.6 385.6L617.1 380.8L621.5 377L626 377.6L630.5 379.4L635 378.9L639.5 378.4L644 370.8L648.4 365.6L652.9 364.1L657.4 358.3L661.9 360.2L666.4 364.5L670.8 353.2L675.3 356.7L679.8 347.3L684.3 329.7L688.8 308.9L693.3 280.6L697.7 242.8L702.2 210.8L706.7 185.7L711.2 182.7L715.7 132.5L720.2 77.8L724.6 85.3L729.1 176.3L729.1 176.3L724.6 85.3L720.2 77.8L715.7 132.5L711.2 182.7L706.7 185.7L702.2 210.8L697.7 242.9L693.3 280.6L688.8 308.9L684.3 329.7L679.8 347.3L675.3 356.7L670.8 353.2L666.4 364.5L661.9 360.2L657.4 358.3L652.9 364.1L648.4 365.6L644 370.8L639.5 378.4L635 378.9L630.5 379.4L626 377.6L621.5 377L617.1 380.8L612.6 385.6L608.1 390.8L603.6 391.1L599.1 395.6L594.6 410.5L590.2 405.5L585.7 399.2L581.2 393.6L576.7 392.4L572.2 401.3L567.7 400.6L563.3 393L558.8 394.5L554.3 394.3L549.8 401.5L545.3 410.6L540.8 411.2L536.4 414L531.9 427.5L527.4 427.6L522.9 435.6L518.4 434.6L514 438.3L509.5 443.4L505 451.6L500.5 453.3L496 454.8L491.5 452L487.1 463.5L482.6 472.6L478.1 466.6L473.6 470.9L469.1 474.2L464.6 482.7L460.2 478.1L455.7 483.1L451.2 484.4L446.7 490.6L442.2 493.6L437.7 494.2L433.3 498.5L428.8 503.2L424.3 503.3L419.8 499.6L415.3 494.9L410.8 495.5L406.4 497.2L401.9 496L397.4 497.4L392.9 501.8L388.4 495.2L384 501.4L379.5 505.6L375 508.6L370.5 512.4L366 514.4L361.5 508.7L357.1 500.4L352.6 497.1L348.1 500.9L343.6 501.1L339.1 503.3L334.6 503.8L330.2 506.8L325.7 506.1L321.2 510.4L316.7 514.8L312.2 508L307.7 509.7L303.3 507L298.8 504.7L294.3 504.4L289.8 507.7L285.3 507.3L280.8 500.7L276.4 503.5L271.9 506L267.4 504.9L262.9 507.1L258.4 509.4L253.9 506.6L249.5 507.8L245 509.5L240.5 512.2L236 511.6L231.5 512.3L227.1 513.5L222.6 512.8L218.1 513.4L213.6 515L209.1 515.6L204.6 516.3L200.2 517L195.7 517.6L191.2 518.2L186.7 517.5L182.2 517.8L177.7 517.3L173.3 518L168.8 518.4L164.3 518.8L159.8 519.2L155.3 519.3L150.8 519.1L146.4 518.8L141.9 518.6L137.4 519.2L132.9 519.3" fill="rgb(105, 178, 101)" fill-opacity="0.7"></path><path class="Gold-area" stroke-linecap="round" d="M132.9 519.2L137.4 519.2L141.9 518.6L146.4 518.8L150.8 519.1L155.3 519.3L159.8 519.2L164.3 518.8L168.8 518.4L173.3 518L177.7 517.3L182.2 517.8L186.7 517.5L191.2 518.2L195.7 517.6L200.2 516.9L204.6 516.2L209.1 515.5L213.6 515L218.1 513.3L222.6 512.8L227.1 513.4L231.5 512.2L236 511.5L240.5 512.1L245 509.4L249.5 507.7L253.9 506.6L258.4 509.3L262.9 507L267.4 504.8L271.9 505.9L276.4 503.4L280.8 500.6L285.3 507.3L289.8 507.6L294.3 504.3L298.8 504.6L303.3 506.9L307.7 509.6L312.2 507.9L316.7 514.7L321.2 510.3L325.7 506L330.2 506.7L334.6 503.8L339.1 503.2L343.6 501L348.1 500.8L352.6 497.1L357.1 500.3L361.5 508.6L366 514.3L370.5 512.3L375 508.5L379.5 505.5L384 501.2L388.4 495L392.9 501.6L397.4 497.3L401.9 495.9L406.4 497.1L410.8 495.4L415.3 494.8L419.8 499.5L424.3 503.3L428.8 503.1L433.3 498.5L437.7 494.1L442.2 493.5L446.7 490.5L451.2 484.3L455.7 483L460.2 478L464.6 482.6L469.1 474.1L473.6 470.7L478.1 466.5L482.6 472.4L487.1 463.4L491.5 451.8L496 454.7L500.5 453.2L505 451.4L509.5 443.2L514 438.1L518.4 434.5L522.9 435.4L527.4 427.5L531.9 427.3L536.4 413.7L540.8 411L545.3 410.4L549.8 401.3L554.3 394.1L558.8 394.3L563.3 392.8L567.7 400.4L572.2 401.1L576.7 392.2L581.2 393.5L585.7 399.1L590.2 405.3L594.6 410.3L599.1 395.4L603.6 390.9L608.1 390.6L612.6 385.4L617.1 380.6L621.5 376.8L626 377.3L630.5 379.2L635 378.6L639.5 378L644 370.5L648.4 365.3L652.9 363.8L657.4 357.9L661.9 359.9L666.4 364.2L670.8 352.9L675.3 356.4L679.8 346.9L684.3 329.4L688.8 308.6L693.3 280.2L697.7 242.5L702.2 210.5L706.7 185.4L711.2 182.4L715.7 132.2L720.2 77.5L724.6 84.9L729.1 175.9L729.1 176.3L724.6 85.3L720.2 77.8L715.7 132.5L711.2 182.7L706.7 185.7L702.2 210.8L697.7 242.8L693.3 280.6L688.8 308.9L684.3 329.7L679.8 347.3L675.3 356.7L670.8 353.2L666.4 364.5L661.9 360.2L657.4 358.3L652.9 364.1L648.4 365.6L644 370.8L639.5 378.4L635 378.9L630.5 379.4L626 377.6L621.5 377L617.1 380.8L612.6 385.6L608.1 390.8L603.6 391.1L599.1 395.6L594.6 410.5L590.2 405.5L585.7 399.2L581.2 393.6L576.7 392.4L572.2 401.3L567.7 400.6L563.3 393L558.8 394.5L554.3 394.3L549.8 401.5L545.3 410.6L540.8 411.2L536.4 414L531.9 427.5L527.4 427.6L522.9 435.6L518.4 434.6L514 438.3L509.5 443.4L505 451.6L500.5 453.3L496 454.8L491.5 452L487.1 463.5L482.6 472.6L478.1 466.6L473.6 470.9L469.1 474.2L464.6 482.7L460.2 478.1L455.7 483.1L451.2 484.4L446.7 490.6L442.2 493.6L437.7 494.2L433.3 498.5L428.8 503.2L424.3 503.3L419.8 499.6L415.3 494.9L410.8 495.5L406.4 497.2L401.9 496L397.4 497.4L392.9 501.8L388.4 495.2L384 501.4L379.5 505.6L375 508.6L370.5 512.4L366 514.4L361.5 508.7L357.1 500.4L352.6 497.1L348.1 500.9L343.6 501.1L339.1 503.3L334.6 503.8L330.2 506.8L325.7 506.1L321.2 510.4L316.7 514.8L312.2 508L307.7 509.7L303.3 507L298.8 504.7L294.3 504.4L289.8 507.7L285.3 507.3L280.8 500.7L276.4 503.5L271.9 506L267.4 504.9L262.9 507.1L258.4 509.4L253.9 506.6L249.5 507.8L245 509.5L240.5 512.2L236 511.6L231.5 512.3L227.1 513.5L222.6 512.8L218.1 513.4L213.6 515L209.1 515.6L204.6 516.3L200.2 517L195.7 517.6L191.2 518.2L186.7 517.5L182.2 517.8L177.7 517.3L173.3 518L168.8 518.4L164.3 518.8L159.8 519.2L155.3 519.3L150.8 519.1L146.4 518.8L141.9 518.6L137.4 519.2L132.9 519.3" fill="#34983f" fill-opacity="0.7"></path><path class="Bauxite-border" stroke-linecap="round" d="M132.9 524.9L137.4 524.9L141.9 524.9L146.4 524.9L150.8 524.9L155.3 524.9L159.8 524.9L164.3 524.9L168.8 524.9L173.3 524.9L177.7 524.9L182.2 524.9L186.7 524.9L191.2 524.9L195.7 524.9L200.2 524.9L204.6 524.9L209.1 524.9L213.6 524.9L218.1 524.9L222.6 524.9L227.1 524.9L231.5 524.9L236 524.9L240.5 524.9L245 524.9L249.5 524.9L253.9 524.9L258.4 524.9L262.9 524.9L267.4 524.9L271.9 524.9L276.4 524.9L280.8 524.9L285.3 524.9L289.8 524.9L294.3 524.9L298.8 524.8L303.3 524.9L307.7 524.9L312.2 524.8L316.7 524.9L321.2 524.9L325.7 524.8L330.2 524.8L334.6 524.8L339.1 524.8L343.6 524.7L348.1 524.7L352.6 524.7L357.1 524.7L361.5 524.8L366 524.8L370.5 524.8L375 524.8L379.5 524.8L384 524.6L388.4 524.5L392.9 524.5L397.4 524.5L401.9 524.4L406.4 524.2L410.8 523.9L415.3 523.2L419.8 524.2L424.3 524.5L428.8 524.4L433.3 524.2L437.7 523.9L442.2 523.9L446.7 524L451.2 523.6L455.7 523.5L460.2 523.3L464.6 523.1L469.1 522.9L473.6 522.9L478.1 522.6L482.6 522.5L487.1 522.4L491.5 521.8L496 521.7L500.5 521.5L505 521.6L509.5 521.3L514 520.8L518.4 520.4L522.9 519.9L527.4 519.7L531.9 518.7L536.4 518L540.8 517.2L545.3 516.9L549.8 516.3L554.3 515.2L558.8 515.9L563.3 515.3L567.7 514.8L572.2 515L576.7 514.4L581.2 513.6L585.7 514.3L590.2 515.7L594.6 515.7L599.1 513.6L603.6 514.1L608.1 514.3L612.6 513.5L617.1 512.9L621.5 512.2L626 511.5L630.5 510.8L635 510.4L639.5 510.5L644 509.9L648.4 508.4L652.9 508.2L657.4 508.4L661.9 508.9L666.4 508.3L670.8 507L675.3 506.3L679.8 505.6L684.3 504.5L688.8 502.6L693.3 500.3L697.7 497.8L702.2 495.1L706.7 495.5L711.2 498L715.7 495L720.2 492.1L724.6 492.2L729.1 485.9" stroke="rgb(43, 80, 141)" stroke-opacity="0.7" stroke-width="0.5" fill="none"></path><path class="Aluminium-border" stroke-linecap="round" d="M132.9 524.9L137.4 524.9L141.9 524.9L146.4 524.9L150.8 524.9L155.3 524.9L159.8 524.9L164.3 524.9L168.8 524.9L173.3 524.9L177.7 524.9L182.2 524.9L186.7 524.9L191.2 524.9L195.7 524.9L200.2 524.9L204.6 524.9L209.1 524.9L213.6 524.9L218.1 524.9L222.6 524.9L227.1 524.9L231.5 524.9L236 524.9L240.5 524.9L245 524.9L249.5 524.9L253.9 524.9L258.4 524.9L262.9 524.9L267.4 524.9L271.9 524.9L276.4 524.9L280.8 524.9L285.3 524.9L289.8 524.9L294.3 524.9L298.8 524.8L303.3 524.8L307.7 524.9L312.2 524.8L316.7 524.9L321.2 524.8L325.7 524.8L330.2 524.8L334.6 524.7L339.1 524.7L343.6 524.7L348.1 524.6L352.6 524.6L357.1 524.7L361.5 524.8L366 524.8L370.5 524.8L375 524.8L379.5 524.7L384 524.6L388.4 524.5L392.9 524.4L397.4 524.4L401.9 524.4L406.4 524.1L410.8 523.8L415.3 523L419.8 524L424.3 524.4L428.8 524.3L433.3 524.1L437.7 523.8L442.2 523.8L446.7 523.8L451.2 523.4L455.7 523.2L460.2 523L464.6 522.8L469.1 522.6L473.6 522.5L478.1 522.2L482.6 522.1L487.1 521.9L491.5 521.3L496 521.2L500.5 520.9L505 521.1L509.5 520.6L514 520.1L518.4 519.6L522.9 519.1L527.4 518.8L531.9 517.7L536.4 516.9L540.8 516L545.3 515.7L549.8 514.9L554.3 513.7L558.8 514.5L563.3 513.9L567.7 513.2L572.2 513.4L576.7 512.8L581.2 511.9L585.7 512.6L590.2 514.2L594.6 514.1L599.1 511.9L603.6 512.4L608.1 512.6L612.6 511.7L617.1 511L621.5 510.2L626 509.5L630.5 508.7L635 507.8L639.5 507.9L644 507.4L648.4 505.8L652.9 505.4L657.4 505.5L661.9 505.9L666.4 505.2L670.8 503.8L675.3 503L679.8 502.2L684.3 500.8L688.8 498.7L693.3 496.1L697.7 493.4L702.2 490.1L706.7 490.2L711.2 493.1L715.7 489.5L720.2 486.2L724.6 485.9L729.1 479" stroke="rgb(35, 123, 130)" stroke-opacity="0.7" stroke-width="0.5" fill="none"></path><path class="Copper-border" stroke-linecap="round" d="M132.9 524.9L137.4 524.9L141.9 524.9L146.4 524.9L150.8 524.9L155.3 524.9L159.8 524.9L164.3 524.9L168.8 524.8L173.3 524.8L177.7 524.8L182.2 524.8L186.7 524.8L191.2 524.8L195.7 524.8L200.2 524.8L204.6 524.8L209.1 524.8L213.6 524.8L218.1 524.7L222.6 524.7L227.1 524.7L231.5 524.7L236 524.7L240.5 524.7L245 524.6L249.5 524.6L253.9 524.6L258.4 524.6L262.9 524.6L267.4 524.6L271.9 524.5L276.4 524.5L280.8 524.5L285.3 524.5L289.8 524.4L294.3 524.3L298.8 524.3L303.3 524.3L307.7 524.5L312.2 524.4L316.7 524.7L321.2 524.5L325.7 524.3L330.2 524.3L334.6 524.2L339.1 524.2L343.6 524.1L348.1 524L352.6 523.9L357.1 524.1L361.5 524.2L366 524.4L370.5 524.4L375 524.3L379.5 524.2L384 523.9L388.4 523.6L392.9 523.7L397.4 523.5L401.9 523.4L406.4 523.1L410.8 522.7L415.3 521.9L419.8 523L424.3 523.6L428.8 523.6L433.3 523.2L437.7 522.9L442.2 522.9L446.7 522.8L451.2 522.4L455.7 522.1L460.2 521.9L464.6 521.6L469.1 521.3L473.6 521.1L478.1 520.8L482.6 520.7L487.1 520.4L491.5 519.5L496 519.4L500.5 519L505 519.1L509.5 518.6L514 518L518.4 517.5L522.9 517L527.4 516.5L531.9 515.2L536.4 514.3L540.8 513.4L545.3 512.7L549.8 511.8L554.3 510.5L558.8 511.5L563.3 510.7L567.7 511.1L572.2 511.4L576.7 510.7L581.2 509.9L585.7 510.4L590.2 511L594.6 510.9L599.1 508.6L603.6 509.1L608.1 509.3L612.6 508.3L617.1 507.5L621.5 506.7L626 506L630.5 505.2L635 504.2L639.5 504.3L644 503.9L648.4 502.1L652.9 501.5L657.4 501.4L661.9 501.6L666.4 500.7L670.8 499.1L675.3 498.2L679.8 497.4L684.3 496L688.8 493.5L693.3 490.9L697.7 488.2L702.2 484.7L706.7 484.7L711.2 487.5L715.7 483.9L720.2 480.5L724.6 482.2L729.1 476.6" stroke="rgb(114, 83, 85)" stroke-opacity="0.7" stroke-width="0.5" fill="none"></path><path class="Silver-border" stroke-linecap="round" d="M132.9 524.9L137.4 524.9L141.9 524.9L146.4 524.9L150.8 524.9L155.3 524.9L159.8 524.9L164.3 524.9L168.8 524.8L173.3 524.8L177.7 524.8L182.2 524.8L186.7 524.8L191.2 524.8L195.7 524.8L200.2 524.8L204.6 524.8L209.1 524.8L213.6 524.8L218.1 524.7L222.6 524.7L227.1 524.7L231.5 524.7L236 524.7L240.5 524.7L245 524.6L249.5 524.6L253.9 524.6L258.4 524.6L262.9 524.6L267.4 524.5L271.9 524.5L276.4 524.5L280.8 524.5L285.3 524.5L289.8 524.4L294.3 524.3L298.8 524.3L303.3 524.3L307.7 524.5L312.2 524.4L316.7 524.7L321.2 524.5L325.7 524.3L330.2 524.3L334.6 524.2L339.1 524.2L343.6 524.1L348.1 524L352.6 523.9L357.1 524.1L361.5 524.2L366 524.4L370.5 524.4L375 524.3L379.5 524.2L384 523.9L388.4 523.6L392.9 523.7L397.4 523.5L401.9 523.4L406.4 523.1L410.8 522.7L415.3 521.9L419.8 523L424.3 523.6L428.8 523.6L433.3 523.2L437.7 522.9L442.2 522.9L446.7 522.8L451.2 522.4L455.7 522.1L460.2 521.9L464.6 521.6L469.1 521.3L473.6 521.1L478.1 520.8L482.6 520.7L487.1 520.4L491.5 519.5L496 519.4L500.5 519L505 519.1L509.5 518.6L514 518L518.4 517.5L522.9 517L527.4 516.5L531.9 515.2L536.4 514.3L540.8 513.4L545.3 512.7L549.8 511.8L554.3 510.5L558.8 511.5L563.3 510.7L567.7 511.1L572.2 511.4L576.7 510.7L581.2 509.9L585.7 510.4L590.2 511L594.6 510.9L599.1 508.6L603.6 509.1L608.1 509.3L612.6 508.3L617.1 507.5L621.5 506.7L626 505.9L630.5 505.2L635 504.2L639.5 504.3L644 503.9L648.4 502.1L652.9 501.5L657.4 501.4L661.9 501.6L666.4 500.7L670.8 499.1L675.3 498.2L679.8 497.4L684.3 496L688.8 493.5L693.3 490.9L697.7 488.2L702.2 484.7L706.7 484.7L711.2 487.4L715.7 483.9L720.2 480.5L724.6 482.2L729.1 476.6" stroke="rgb(192, 43, 38)" stroke-opacity="0.7" stroke-width="0.5" fill="none"></path><path class="Manganese-border" stroke-linecap="round" d="M132.9 524.9L137.4 524.9L141.9 524.9L146.4 524.9L150.8 524.9L155.3 524.8L159.8 524.8L164.3 524.8L168.8 524.8L173.3 524.8L177.7 524.8L182.2 524.8L186.7 524.8L191.2 524.8L195.7 524.8L200.2 524.8L204.6 524.7L209.1 524.7L213.6 524.7L218.1 524.6L222.6 524.6L227.1 524.6L231.5 524.6L236 524.6L240.5 524.6L245 524.5L249.5 524.4L253.9 524.3L258.4 524.4L262.9 524.4L267.4 524.3L271.9 524.3L276.4 524.3L280.8 524.2L285.3 524.3L289.8 524.2L294.3 524.1L298.8 524L303.3 524.1L307.7 524.3L312.2 524.2L316.7 524.5L321.2 524.4L325.7 524.1L330.2 524L334.6 523.9L339.1 523.8L343.6 523.7L348.1 523.8L352.6 523.6L357.1 524L361.5 524.2L366 524.4L370.5 524.4L375 524.2L379.5 524.1L384 523.8L388.4 523.2L392.9 523.4L397.4 523.3L401.9 523.1L406.4 522.9L410.8 522.5L415.3 521.8L419.8 522.8L424.3 523.4L428.8 523.4L433.3 523L437.7 522.6L442.2 522.5L446.7 522.4L451.2 521.9L455.7 521.5L460.2 521.2L464.6 521L469.1 520.7L473.6 520.4L478.1 520L482.6 520L487.1 519.7L491.5 518.8L496 518.6L500.5 518.2L505 518.3L509.5 517.7L514 517.1L518.4 516.6L522.9 516.1L527.4 515.6L531.9 514.2L536.4 513.3L540.8 512.3L545.3 511.6L549.8 510.6L554.3 509.2L558.8 510.2L563.3 509.4L567.7 509.8L572.2 510.2L576.7 509.3L581.2 508.4L585.7 509.1L590.2 509.6L594.6 509.8L599.1 507.3L603.6 507.8L608.1 508L612.6 507.1L617.1 506.3L621.5 505.3L626 504.7L630.5 504.1L635 503.1L639.5 503.2L644 502.8L648.4 500.8L652.9 500.1L657.4 500.2L661.9 500.4L666.4 499.6L670.8 498L675.3 497L679.8 496.2L684.3 494.7L688.8 492.1L693.3 489.3L697.7 486.5L702.2 483L706.7 482.8L711.2 485.8L715.7 481.7L720.2 478.1L724.6 479.8L729.1 474.3" stroke="rgb(181, 38, 36)" stroke-opacity="0.7" stroke-width="0.5" fill="none"></path><path class="Zinc-border" stroke-linecap="round" d="M132.9 524.9L137.4 524.8L141.9 524.8L146.4 524.8L150.8 524.8L155.3 524.8L159.8 524.8L164.3 524.8L168.8 524.8L173.3 524.8L177.7 524.7L182.2 524.8L186.7 524.7L191.2 524.7L195.7 524.7L200.2 524.7L204.6 524.7L209.1 524.7L213.6 524.6L218.1 524.5L222.6 524.5L227.1 524.5L231.5 524.5L236 524.5L240.5 524.5L245 524.4L249.5 524.3L253.9 524.2L258.4 524.3L262.9 524.3L267.4 524.2L271.9 524.2L276.4 524.1L280.8 524L285.3 524.1L289.8 524.1L294.3 523.9L298.8 523.9L303.3 523.9L307.7 524.2L312.2 524.1L316.7 524.4L321.2 524.2L325.7 523.9L330.2 523.8L334.6 523.7L339.1 523.6L343.6 523.5L348.1 523.5L352.6 523.4L357.1 523.8L361.5 524L366 524.3L370.5 524.2L375 524.1L379.5 523.9L384 523.6L388.4 523L392.9 523.1L397.4 523L401.9 522.8L406.4 522.7L410.8 522.3L415.3 521.5L419.8 522.7L424.3 523.2L428.8 523.2L433.3 522.8L437.7 522.4L442.2 522.3L446.7 522.1L451.2 521.6L455.7 521.3L460.2 520.9L464.6 520.6L469.1 520.3L473.6 520L478.1 519.6L482.6 519.6L487.1 519.3L491.5 518.4L496 518.2L500.5 517.8L505 517.9L509.5 517.2L514 516.6L518.4 516L522.9 515.5L527.4 515L531.9 513.5L536.4 512.6L540.8 511.5L545.3 510.9L549.8 509.8L554.3 508.4L558.8 509.4L563.3 508.6L567.7 508.9L572.2 509.3L576.7 508.5L581.2 507.6L585.7 508.3L590.2 508.8L594.6 509L599.1 506.5L603.6 506.9L608.1 507.2L612.6 506.2L617.1 505.4L621.5 504.5L626 503.8L630.5 503.1L635 502.1L639.5 502.3L644 501.8L648.4 499.8L652.9 499.1L657.4 499.2L661.9 499.4L666.4 498.6L670.8 496.8L675.3 495.8L679.8 495L684.3 493.4L688.8 490.8L693.3 488L697.7 485.2L702.2 481.5L706.7 481.3L711.2 484.3L715.7 480.2L720.2 476.5L724.6 478.1L729.1 472.6" stroke="rgb(169, 32, 33)" stroke-opacity="0.7" stroke-width="0.5" fill="none"></path><path class="Lead-border" stroke-linecap="round" d="M132.9 524.8L137.4 524.8L141.9 524.8L146.4 524.8L150.8 524.8L155.3 524.8L159.8 524.8L164.3 524.7L168.8 524.7L173.3 524.7L177.7 524.7L182.2 524.7L186.7 524.7L191.2 524.7L195.7 524.7L200.2 524.6L204.6 524.6L209.1 524.6L213.6 524.5L218.1 524.5L222.6 524.4L227.1 524.5L231.5 524.4L236 524.4L240.5 524.4L245 524.3L249.5 524.2L253.9 524.1L258.4 524.2L262.9 524.1L267.4 524.1L271.9 524.1L276.4 524L280.8 523.9L285.3 524L289.8 524L294.3 523.8L298.8 523.7L303.3 523.8L307.7 524.1L312.2 524L316.7 524.3L321.2 524.1L325.7 523.8L330.2 523.7L334.6 523.5L339.1 523.4L343.6 523.3L348.1 523.4L352.6 523.2L357.1 523.6L361.5 523.9L366 524.1L370.5 524.1L375 523.9L379.5 523.7L384 523.4L388.4 522.8L392.9 522.9L397.4 522.8L401.9 522.6L406.4 522.5L410.8 522.1L415.3 521.3L419.8 522.5L424.3 523.1L428.8 523.1L433.3 522.6L437.7 522.2L442.2 522.1L446.7 521.9L451.2 521.4L455.7 521L460.2 520.7L464.6 520.4L469.1 520.1L473.6 519.8L478.1 519.4L482.6 519.3L487.1 519L491.5 518.1L496 517.9L500.5 517.5L505 517.5L509.5 516.9L514 516.3L518.4 515.7L522.9 515.1L527.4 514.6L531.9 513.1L536.4 512.2L540.8 511.1L545.3 510.4L549.8 509.4L554.3 508L558.8 508.9L563.3 508.1L567.7 508.5L572.2 508.9L576.7 508L581.2 507.2L585.7 507.9L590.2 508.3L594.6 508.5L599.1 506.1L603.6 506.5L608.1 506.8L612.6 505.8L617.1 504.9L621.5 504L626 503.3L630.5 502.8L635 501.7L639.5 501.9L644 501.5L648.4 499.5L652.9 498.7L657.4 498.8L661.9 499L666.4 498.2L670.8 496.4L675.3 495.4L679.8 494.7L684.3 493L688.8 490.4L693.3 487.6L697.7 484.7L702.2 481L706.7 480.8L711.2 483.8L715.7 479.6L720.2 475.9L724.6 477.4L729.1 471.2" stroke="rgb(192, 105, 43)" stroke-opacity="0.7" stroke-width="0.5" fill="none"></path><path class="Iron-Ore-border" stroke-linecap="round" d="M132.9 519.3L137.4 519.3L141.9 518.6L146.4 518.8L150.8 519.1L155.3 519.3L159.8 519.2L164.3 518.8L168.8 518.4L173.3 518L177.7 517.3L182.2 517.8L186.7 517.5L191.2 518.2L195.7 517.7L200.2 517L204.6 516.3L209.1 515.6L213.6 515L218.1 513.4L222.6 512.8L227.1 513.5L231.5 512.3L236 511.6L240.5 512.2L245 509.5L249.5 507.8L253.9 506.7L258.4 509.4L262.9 507.1L267.4 504.9L271.9 506L276.4 503.5L280.8 500.8L285.3 507.4L289.8 507.7L294.3 504.4L298.8 504.7L303.3 507L307.7 509.7L312.2 508L316.7 514.8L321.2 510.4L325.7 506.1L330.2 506.8L334.6 503.9L339.1 503.3L343.6 501.1L348.1 500.9L352.6 497.2L357.1 500.5L361.5 508.7L366 514.4L370.5 512.5L375 508.6L379.5 505.6L384 501.4L388.4 495.2L392.9 501.8L397.4 497.5L401.9 496.1L406.4 497.3L410.8 495.5L415.3 494.9L419.8 499.7L424.3 503.4L428.8 503.3L433.3 498.6L437.7 494.2L442.2 493.6L446.7 490.6L451.2 484.4L455.7 483.1L460.2 478.2L464.6 482.8L469.1 474.2L473.6 470.9L478.1 466.7L482.6 472.6L487.1 463.6L491.5 452L496 454.9L500.5 453.4L505 451.6L509.5 443.5L514 438.4L518.4 434.7L522.9 435.7L527.4 427.7L531.9 427.6L536.4 414.1L540.8 411.3L545.3 410.7L549.8 401.6L554.3 394.4L558.8 394.6L563.3 393.1L567.7 400.7L572.2 401.4L576.7 392.5L581.2 393.7L585.7 399.4L590.2 405.6L594.6 410.6L599.1 395.7L603.6 391.2L608.1 391L612.6 385.8L617.1 381L621.5 377.1L626 377.8L630.5 379.6L635 379.1L639.5 378.5L644 370.9L648.4 365.7L652.9 364.3L657.4 358.4L661.9 360.4L666.4 364.7L670.8 353.4L675.3 356.9L679.8 347.5L684.3 329.9L688.8 309.1L693.3 280.8L697.7 243.1L702.2 211L706.7 186L711.2 182.9L715.7 132.7L720.2 78.1L724.6 85.5L729.1 176.7" stroke="rgb(213, 178, 52)" stroke-opacity="0.7" stroke-width="0.5" fill="none"></path><path class="Nickel-border" stroke-linecap="round" d="M132.9 519.3L137.4 519.3L141.9 518.6L146.4 518.8L150.8 519.1L155.3 519.3L159.8 519.2L164.3 518.8L168.8 518.4L173.3 518L177.7 517.3L182.2 517.8L186.7 517.5L191.2 518.2L195.7 517.7L200.2 517L204.6 516.3L209.1 515.6L213.6 515L218.1 513.4L222.6 512.8L227.1 513.5L231.5 512.3L236 511.6L240.5 512.2L245 509.5L249.5 507.8L253.9 506.7L258.4 509.4L262.9 507.1L267.4 504.9L271.9 506L276.4 503.5L280.8 500.8L285.3 507.4L289.8 507.7L294.3 504.4L298.8 504.7L303.3 507L307.7 509.7L312.2 508L316.7 514.8L321.2 510.4L325.7 506.1L330.2 506.8L334.6 503.9L339.1 503.3L343.6 501.1L348.1 500.9L352.6 497.2L357.1 500.5L361.5 508.7L366 514.4L370.5 512.5L375 508.6L379.5 505.6L384 501.4L388.4 495.2L392.9 501.8L397.4 497.5L401.9 496.1L406.4 497.2L410.8 495.5L415.3 494.9L419.8 499.7L424.3 503.4L428.8 503.2L433.3 498.6L437.7 494.2L442.2 493.6L446.7 490.6L451.2 484.4L455.7 483.1L460.2 478.1L464.6 482.7L469.1 474.2L473.6 470.9L478.1 466.6L482.6 472.6L487.1 463.5L491.5 452L496 454.9L500.5 453.4L505 451.6L509.5 443.4L514 438.3L518.4 434.7L522.9 435.6L527.4 427.7L531.9 427.5L536.4 414L540.8 411.2L545.3 410.7L549.8 401.6L554.3 394.4L558.8 394.5L563.3 393L567.7 400.6L572.2 401.3L576.7 392.4L581.2 393.7L585.7 399.3L590.2 405.5L594.6 410.5L599.1 395.6L603.6 391.1L608.1 390.9L612.6 385.7L617.1 380.9L621.5 377L626 377.7L630.5 379.5L635 379L639.5 378.4L644 370.8L648.4 365.6L652.9 364.2L657.4 358.3L661.9 360.3L666.4 364.6L670.8 353.2L675.3 356.7L679.8 347.3L684.3 329.8L688.8 309L693.3 280.6L697.7 242.9L702.2 210.8L706.7 185.8L711.2 182.8L715.7 132.5L720.2 77.9L724.6 85.3L729.1 176.4" stroke="rgb(173, 175, 84)" stroke-opacity="0.7" stroke-width="0.5" fill="none"></path><path class="Tin-border" stroke-linecap="round" d="M132.9 519.3L137.4 519.2L141.9 518.6L146.4 518.8L150.8 519.1L155.3 519.3L159.8 519.2L164.3 518.8L168.8 518.4L173.3 518L177.7 517.3L182.2 517.8L186.7 517.5L191.2 518.2L195.7 517.6L200.2 517L204.6 516.3L209.1 515.6L213.6 515L218.1 513.4L222.6 512.8L227.1 513.5L231.5 512.3L236 511.6L240.5 512.2L245 509.5L249.5 507.8L253.9 506.6L258.4 509.4L262.9 507.1L267.4 504.9L271.9 506L276.4 503.5L280.8 500.7L285.3 507.3L289.8 507.7L294.3 504.4L298.8 504.7L303.3 507L307.7 509.7L312.2 508L316.7 514.8L321.2 510.4L325.7 506.1L330.2 506.8L334.6 503.8L339.1 503.3L343.6 501.1L348.1 500.9L352.6 497.1L357.1 500.4L361.5 508.7L366 514.4L370.5 512.4L375 508.6L379.5 505.6L384 501.4L388.4 495.2L392.9 501.8L397.4 497.4L401.9 496L406.4 497.2L410.8 495.5L415.3 494.9L419.8 499.6L424.3 503.3L428.8 503.2L433.3 498.5L437.7 494.2L442.2 493.6L446.7 490.6L451.2 484.4L455.7 483.1L460.2 478.1L464.6 482.7L469.1 474.2L473.6 470.9L478.1 466.6L482.6 472.6L487.1 463.5L491.5 452L496 454.8L500.5 453.3L505 451.6L509.5 443.4L514 438.3L518.4 434.6L522.9 435.6L527.4 427.6L531.9 427.5L536.4 414L540.8 411.2L545.3 410.6L549.8 401.5L554.3 394.3L558.8 394.5L563.3 393L567.7 400.6L572.2 401.3L576.7 392.4L581.2 393.6L585.7 399.2L590.2 405.5L594.6 410.5L599.1 395.6L603.6 391.1L608.1 390.8L612.6 385.6L617.1 380.8L621.5 377L626 377.6L630.5 379.4L635 378.9L639.5 378.4L644 370.8L648.4 365.6L652.9 364.1L657.4 358.3L661.9 360.2L666.4 364.5L670.8 353.2L675.3 356.7L679.8 347.3L684.3 329.7L688.8 308.9L693.3 280.6L697.7 242.9L702.2 210.8L706.7 185.7L711.2 182.7L715.7 132.5L720.2 77.8L724.6 85.3L729.1 176.3" stroke="rgb(132, 171, 115)" stroke-opacity="0.7" stroke-width="0.5" fill="none"></path><path class="Tungsten-border" stroke-linecap="round" d="M132.9 519.3L137.4 519.2L141.9 518.6L146.4 518.8L150.8 519.1L155.3 519.3L159.8 519.2L164.3 518.8L168.8 518.4L173.3 518L177.7 517.3L182.2 517.8L186.7 517.5L191.2 518.2L195.7 517.6L200.2 517L204.6 516.3L209.1 515.6L213.6 515L218.1 513.4L222.6 512.8L227.1 513.5L231.5 512.3L236 511.6L240.5 512.2L245 509.5L249.5 507.8L253.9 506.6L258.4 509.4L262.9 507.1L267.4 504.9L271.9 506L276.4 503.5L280.8 500.7L285.3 507.3L289.8 507.7L294.3 504.4L298.8 504.7L303.3 507L307.7 509.7L312.2 508L316.7 514.8L321.2 510.4L325.7 506.1L330.2 506.8L334.6 503.8L339.1 503.3L343.6 501.1L348.1 500.9L352.6 497.1L357.1 500.4L361.5 508.7L366 514.4L370.5 512.4L375 508.6L379.5 505.6L384 501.4L388.4 495.2L392.9 501.8L397.4 497.4L401.9 496L406.4 497.2L410.8 495.5L415.3 494.9L419.8 499.6L424.3 503.3L428.8 503.2L433.3 498.5L437.7 494.2L442.2 493.6L446.7 490.6L451.2 484.4L455.7 483.1L460.2 478.1L464.6 482.7L469.1 474.2L473.6 470.9L478.1 466.6L482.6 472.6L487.1 463.5L491.5 452L496 454.8L500.5 453.3L505 451.6L509.5 443.4L514 438.3L518.4 434.6L522.9 435.6L527.4 427.6L531.9 427.5L536.4 414L540.8 411.2L545.3 410.6L549.8 401.5L554.3 394.3L558.8 394.5L563.3 393L567.7 400.6L572.2 401.3L576.7 392.4L581.2 393.6L585.7 399.2L590.2 405.5L594.6 410.5L599.1 395.6L603.6 391.1L608.1 390.8L612.6 385.6L617.1 380.8L621.5 377L626 377.6L630.5 379.4L635 378.9L639.5 378.4L644 370.8L648.4 365.6L652.9 364.1L657.4 358.3L661.9 360.2L666.4 364.5L670.8 353.2L675.3 356.7L679.8 347.3L684.3 329.7L688.8 308.9L693.3 280.6L697.7 242.8L702.2 210.8L706.7 185.7L711.2 182.7L715.7 132.5L720.2 77.8L724.6 85.3L729.1 176.3" stroke="rgb(88, 149, 85)" stroke-opacity="0.7" stroke-width="0.5" fill="none"></path><path class="Gold-border" stroke-linecap="round" d="M132.9 519.2L137.4 519.2L141.9 518.6L146.4 518.8L150.8 519.1L155.3 519.3L159.8 519.2L164.3 518.8L168.8 518.4L173.3 518L177.7 517.3L182.2 517.8L186.7 517.5L191.2 518.2L195.7 517.6L200.2 516.9L204.6 516.2L209.1 515.5L213.6 515L218.1 513.3L222.6 512.8L227.1 513.4L231.5 512.2L236 511.5L240.5 512.1L245 509.4L249.5 507.7L253.9 506.6L258.4 509.3L262.9 507L267.4 504.8L271.9 505.9L276.4 503.4L280.8 500.6L285.3 507.3L289.8 507.6L294.3 504.3L298.8 504.6L303.3 506.9L307.7 509.6L312.2 507.9L316.7 514.7L321.2 510.3L325.7 506L330.2 506.7L334.6 503.8L339.1 503.2L343.6 501L348.1 500.8L352.6 497.1L357.1 500.3L361.5 508.6L366 514.3L370.5 512.3L375 508.5L379.5 505.5L384 501.2L388.4 495L392.9 501.6L397.4 497.3L401.9 495.9L406.4 497.1L410.8 495.4L415.3 494.8L419.8 499.5L424.3 503.3L428.8 503.1L433.3 498.5L437.7 494.1L442.2 493.5L446.7 490.5L451.2 484.3L455.7 483L460.2 478L464.6 482.6L469.1 474.1L473.6 470.7L478.1 466.5L482.6 472.4L487.1 463.4L491.5 451.8L496 454.7L500.5 453.2L505 451.4L509.5 443.2L514 438.1L518.4 434.5L522.9 435.4L527.4 427.5L531.9 427.3L536.4 413.7L540.8 411L545.3 410.4L549.8 401.3L554.3 394.1L558.8 394.3L563.3 392.8L567.7 400.4L572.2 401.1L576.7 392.2L581.2 393.5L585.7 399.1L590.2 405.3L594.6 410.3L599.1 395.4L603.6 390.9L608.1 390.6L612.6 385.4L617.1 380.6L621.5 376.8L626 377.3L630.5 379.2L635 378.6L639.5 378L644 370.5L648.4 365.3L652.9 363.8L657.4 357.9L661.9 359.9L666.4 364.2L670.8 352.9L675.3 356.4L679.8 346.9L684.3 329.4L688.8 308.6L693.3 280.2L697.7 242.5L702.2 210.5L706.7 185.4L711.2 182.4L715.7 132.2L720.2 77.5L724.6 84.9L729.1 175.9" stroke="rgb(44, 127, 53)" stroke-opacity="0.7" stroke-width="0.5" fill="none"></path></g></g></g><g class="SourcesFooter" style="fill:#777"><g style="fill:#777"><text font-size="12.60" x="15.0" y="582.7"><tspan x="15" y="582.732">Source: Clio Infra &amp; USGS</tspan></text></g><text font-size="12.60" x="796.4" y="582.7"><tspan x="796.444" y="582.732"><a style="fill: #777;" class="cclogo" href="http://creativecommons.org/licenses/by/4.0/deed.en_US" target="_blank">CC BY</a></tspan></text></g></svg>