<svg xmlns="http://www.w3.org/2000/svg" version="1.1" style="font-family:Lato, &#x27;Helvetica Neue&#x27;, Helvetica, Arial, &#x27;Liberation Sans&#x27;, sans-serif;font-size:18px;background-color:#ffffff;text-rendering:geometricPrecision;-webkit-font-smoothing:antialiased" width="850" height="600" viewBox="0 0 850 600"><defs><style>@import url(https://ourworldindata.org/fonts.css)</style></defs><defs><pattern id="noDataPattern" patternUnits="userSpaceOnUse" width="4" height="4" patternTransform="rotate(-45 2 2)"><path d="M -1,2 l 6,0" stroke="#ccc" stroke-width="0.7"></path></pattern></defs><rect class="background-fill" fill="#ffffff" width="850" height="600"></rect><g id="header" class="HeaderView"><g id="logo" transform="translate(769, 16) scale(1)"><svg className="owidLogo" xmlns="http://www.w3.org/2000/svg" width="65" height="36" viewBox="0 0 65 36"  fill="none"><path fill="#002147" d="M0 0h64.8v36H0z"/><path fill="#CE261E" d="M0 33.3h64.8V36H0z"/><path fill="#fff" d="M13.796 10.575c0 .636-.106 1.226-.318 1.77a4.193 4.193 0 0 1-.894 1.404 4.084 4.084 0 0 1-1.386.93c-.54.22-1.138.33-1.794.33-.656 0-1.256-.11-1.8-.33a4.149 4.149 0 0 1-1.392-.93 4.193 4.193 0 0 1-.894-1.404A4.833 4.833 0 0 1 5 10.575c0-.636.106-1.224.318-1.764a4.18 4.18 0 0 1 .894-1.41 4.076 4.076 0 0 1 1.392-.924 4.684 4.684 0 0 1 1.8-.336c.656 0 1.254.112 1.794.336.54.224 1.002.534 1.386.93.384.392.682.86.894 1.404.212.54.318 1.128.318 1.764Zm-1.656 0c0-.476-.064-.902-.192-1.278a2.671 2.671 0 0 0-.54-.966 2.332 2.332 0 0 0-.864-.606 2.94 2.94 0 0 0-1.14-.21c-.424 0-.806.07-1.146.21-.34.14-.63.342-.87.606a2.742 2.742 0 0 0-.546.966 3.955 3.955 0 0 0-.192 1.278c0 .476.064.904.192 1.284.128.376.31.696.546.96.24.26.53.46.87.6.34.14.722.21 1.146.21.424 0 .804-.07 1.14-.21.34-.14.628-.34.864-.6.236-.264.416-.584.54-.96a4.01 4.01 0 0 0 .192-1.284ZM16.104 8.757v3.912c0 .376.086.668.258.876.176.204.438.306.786.306.256 0 .496-.056.72-.168a2.58 2.58 0 0 0 .636-.474V8.757h1.482v6.156h-.906c-.192 0-.318-.09-.378-.27l-.102-.492a4.65 4.65 0 0 1-.396.354 2.577 2.577 0 0 1-.438.27 2.35 2.35 0 0 1-.498.168 2.345 2.345 0 0 1-.57.066c-.336 0-.634-.056-.894-.168a1.821 1.821 0 0 1-.648-.486 2.157 2.157 0 0 1-.402-.738 3.233 3.233 0 0 1-.132-.948V8.757h1.482ZM21.328 14.913V8.757h.87c.152 0 .258.028.318.084.06.056.1.152.12.288l.09.744c.22-.38.478-.68.774-.9.296-.22.628-.33.996-.33.304 0 .556.07.756.21l-.192 1.11c-.012.072-.038.124-.078.156a.278.278 0 0 1-.162.042 1.01 1.01 0 0 1-.246-.042 1.646 1.646 0 0 0-.414-.042c-.308 0-.572.086-.792.258-.22.168-.406.416-.558.744v3.834h-1.482ZM27.347 6.237h1.356a.57.57 0 0 1 .348.102c.096.064.16.152.192.264l1.476 5.19c.036.128.068.268.096.42.032.148.062.306.09.474a5.968 5.968 0 0 1 .228-.894l1.704-5.19a.575.575 0 0 1 .186-.252.543.543 0 0 1 .348-.114h.474a.57.57 0 0 1 .348.102.497.497 0 0 1 .192.264l1.692 5.19c.088.256.164.54.228.852.028-.156.056-.306.084-.45.032-.144.064-.278.096-.402l1.476-5.19c.028-.1.09-.186.186-.258a.563.563 0 0 1 .348-.108h1.266l-2.694 8.676h-1.458l-1.896-5.928-.078-.246a9.504 9.504 0 0 1-.072-.282c-.024.1-.05.194-.078.282-.024.088-.048.17-.072.246l-1.914 5.928H30.04l-2.694-8.676ZM42.771 8.661c.46 0 .876.074 1.248.222.376.148.696.358.96.63s.468.604.612.996c.144.392.216.83.216 1.314 0 .488-.072.928-.216 1.32a2.85 2.85 0 0 1-.612 1.002 2.653 2.653 0 0 1-.96.636 3.35 3.35 0 0 1-1.248.222c-.46 0-.878-.074-1.254-.222a2.712 2.712 0 0 1-.966-.636 2.922 2.922 0 0 1-.618-1.002 3.807 3.807 0 0 1-.216-1.32c0-.484.072-.922.216-1.314.148-.392.354-.724.618-.996.268-.272.59-.482.966-.63a3.397 3.397 0 0 1 1.254-.222Zm0 5.202c.512 0 .89-.172 1.134-.516.248-.344.372-.848.372-1.512s-.124-1.17-.372-1.518c-.244-.348-.622-.522-1.134-.522-.52 0-.904.176-1.152.528-.248.348-.372.852-.372 1.512s.124 1.164.372 1.512c.248.344.632.516 1.152.516ZM46.723 14.913V8.757h.87c.152 0 .258.028.318.084.06.056.1.152.12.288l.09.744c.22-.38.478-.68.774-.9.296-.22.628-.33.996-.33.304 0 .556.07.756.21l-.192 1.11c-.012.072-.038.124-.078.156a.278.278 0 0 1-.162.042 1.01 1.01 0 0 1-.246-.042 1.646 1.646 0 0 0-.414-.042c-.308 0-.572.086-.792.258-.22.168-.406.416-.558.744v3.834h-1.482ZM52.96 5.997v8.916h-1.482V5.997h1.482ZM58.732 14.913c-.192 0-.318-.09-.378-.27l-.12-.594a3.68 3.68 0 0 1-.402.39c-.14.116-.292.216-.456.3-.16.084-.334.148-.522.192a2.372 2.372 0 0 1-.6.072c-.336 0-.644-.07-.924-.21a2.098 2.098 0 0 1-.726-.606 3.033 3.033 0 0 1-.468-.99 5.072 5.072 0 0 1-.162-1.344c0-.456.062-.88.186-1.272s.302-.732.534-1.02c.232-.288.51-.512.834-.672a2.384 2.384 0 0 1 1.092-.246 2.103 2.103 0 0 1 1.536.606V5.997h1.482v8.916h-.906Zm-1.974-1.086c.308 0 .57-.064.786-.192.216-.128.42-.31.612-.546v-2.76a1.452 1.452 0 0 0-.552-.432 1.597 1.597 0 0 0-.636-.126c-.224 0-.428.042-.612.126a1.21 1.21 0 0 0-.462.384c-.124.168-.22.384-.288.648-.068.26-.102.568-.102.924 0 .36.028.666.084.918.06.248.144.452.252.612.108.156.24.27.396.342.156.068.33.102.522.102ZM16.331 20.757v6.156H14.85v-6.156h1.481Zm.223-1.794a.844.844 0 0 1-.078.36.963.963 0 0 1-.21.294.995.995 0 0 1-.3.204.963.963 0 0 1-.372.072.948.948 0 0 1-.367-.072 1.018 1.018 0 0 1-.498-.498.963.963 0 0 1 0-.732.995.995 0 0 1 .205-.3.929.929 0 0 1 .293-.198.899.899 0 0 1 .738 0 .912.912 0 0 1 .3.198.943.943 0 0 1 .288.672ZM17.771 26.913v-6.156h.906c.192 0 .318.09.378.27l.102.486a2.934 2.934 0 0 1 .828-.618c.156-.076.322-.134.498-.174.176-.04.368-.06.576-.06.336 0 .634.058.894.174.26.112.476.272.648.48.176.204.308.45.396.738.092.284.138.598.138.942v3.918h-1.482v-3.918c0-.376-.088-.666-.264-.87-.172-.208-.432-.312-.78-.312-.256 0-.496.058-.72.174a2.58 2.58 0 0 0-.636.474v4.452h-1.482ZM34.22 22.575c0 .636-.106 1.22-.318 1.752-.212.532-.51.99-.894 1.374a4 4 0 0 1-1.386.894 4.87 4.87 0 0 1-1.794.318h-3.312v-8.676h3.312a4.79 4.79 0 0 1 1.794.324 4 4 0 0 1 1.386.894c.384.38.682.836.894 1.368.212.532.318 1.116.318 1.752Zm-1.65 0c0-.476-.064-.902-.192-1.278a2.68 2.68 0 0 0-.546-.96 2.332 2.332 0 0 0-.864-.606 2.94 2.94 0 0 0-1.14-.21h-1.686v6.108h1.686c.424 0 .804-.07 1.14-.21.34-.14.628-.34.864-.6a2.75 2.75 0 0 0 .546-.96 4.01 4.01 0 0 0 .192-1.284ZM39.98 26.913h-.665c-.14 0-.25-.02-.33-.06-.08-.044-.14-.13-.18-.258l-.132-.438c-.156.14-.31.264-.462.372a2.804 2.804 0 0 1-.462.264c-.16.072-.33.126-.51.162-.18.036-.38.054-.6.054-.26 0-.5-.034-.72-.102a1.618 1.618 0 0 1-.57-.318 1.448 1.448 0 0 1-.366-.522 1.852 1.852 0 0 1-.132-.726c0-.232.06-.46.18-.684.124-.228.328-.432.612-.612.284-.184.662-.336 1.134-.456.472-.12 1.058-.188 1.758-.204v-.36c0-.412-.088-.716-.264-.912-.172-.2-.424-.3-.756-.3a1.837 1.837 0 0 0-1.02.276c-.116.068-.224.13-.324.186a.664.664 0 0 1-.33.084.429.429 0 0 1-.258-.078.614.614 0 0 1-.174-.192l-.27-.474c.708-.648 1.562-.972 2.562-.972.36 0 .68.06.96.18.284.116.524.28.72.492.196.208.344.458.444.75.104.292.156.612.156.96v3.888Zm-2.88-.924c.153 0 .293-.014.42-.042.129-.028.249-.07.36-.126.117-.056.227-.124.33-.204.109-.084.217-.182.325-.294v-1.038c-.432.02-.794.058-1.086.114-.288.052-.52.12-.696.204a.923.923 0 0 0-.378.294.664.664 0 0 0-.108.366c0 .26.076.446.228.558.156.112.358.168.606.168ZM43.22 27.01c-.532 0-.942-.15-1.23-.45-.288-.305-.432-.723-.432-1.255v-3.438h-.624a.31.31 0 0 1-.21-.078c-.056-.052-.084-.13-.084-.234v-.588l.99-.162.312-1.68a.302.302 0 0 1 .108-.186.365.365 0 0 1 .222-.066h.768v1.938h1.62v1.056h-1.62v3.336c0 .192.048.342.144.45a.488.488 0 0 0 .384.162c.092 0 .168-.01.228-.03.064-.024.118-.048.162-.072.048-.024.09-.046.126-.066a.194.194 0 0 1 .108-.036.16.16 0 0 1 .108.036c.028.02.058.052.09.096l.444.72c-.216.18-.464.316-.744.408a2.77 2.77 0 0 1-.87.138ZM50.423 26.913h-.666c-.14 0-.25-.02-.33-.06-.08-.044-.14-.13-.18-.258l-.132-.438c-.156.14-.31.264-.462.372a2.804 2.804 0 0 1-.462.264c-.16.072-.33.126-.51.162-.18.036-.38.054-.6.054-.26 0-.5-.034-.72-.102a1.618 1.618 0 0 1-.57-.318 1.448 1.448 0 0 1-.366-.522 1.852 1.852 0 0 1-.132-.726c0-.232.06-.46.18-.684.124-.228.328-.432.612-.612.284-.184.662-.336 1.134-.456.472-.12 1.058-.188 1.758-.204v-.36c0-.412-.088-.716-.264-.912-.172-.2-.424-.3-.756-.3a1.837 1.837 0 0 0-1.02.276c-.116.068-.224.13-.324.186a.664.664 0 0 1-.33.084.429.429 0 0 1-.258-.078.614.614 0 0 1-.174-.192l-.27-.474c.708-.648 1.562-.972 2.562-.972.36 0 .68.06.96.18.284.116.524.28.72.492.196.208.344.458.444.75.104.292.156.612.156.96v3.888Zm-2.88-.924c.152 0 .292-.014.42-.042.128-.028.248-.07.36-.126.116-.056.226-.124.33-.204.108-.084.216-.182.324-.294v-1.038c-.432.02-.794.058-1.086.114-.288.052-.52.12-.696.204a.923.923 0 0 0-.378.294.664.664 0 0 0-.108.366c0 .26.076.446.228.558.156.112.358.168.606.168Z"/></svg></g><a id="title" href="https://ourworldindata.org/grapher/number-of-people-with-blindness-due-to-each-cause" style="font-family:&#x27;Playfair Display&#x27;, Georgia, &#x27;Times New Roman&#x27;, &#x27;Liberation Serif&#x27;, serif" target="_blank" rel="noopener"><text font-size="24.75" font-weight="600" x="16.0" y="40.0" fill="#5b5b5b"><tspan x="16" y="40.0075">Number of people with blindness, broken down by cause</tspan></text></a><g id="subtitle" class="markdown-text-wrap"><text x="16.0" y="63.9" style="font-size:14.625px;line-height:1.2" fill="#5b5b5b"><tspan x="16" y="63.9">The estimated number of people with blindness from each cause: cataract, glaucoma, refraction disorders,</tspan><tspan x="16" y="81.4">age-related macular degeneration, <tspan class="dod-span" data-id="malaria">malaria</tspan>, <tspan class="dod-span" data-id="onchocerciasis">river blindness</tspan>, <tspan class="dod-span" data-id="trachoma">trachoma</tspan>, and others.</tspan></text></g></g><g id="chart-area" style="pointer-events:none"><g id="categorical-color-legend" class="categoricalColorLegend"><g id="swatches"><rect id="Africa" x="16" y="100.8" width="13.5" height="13.5" fill="#4c6a9c" stroke-width="0.4"></rect><rect id="Asia" x="83.364" y="100.8" width="13.5" height="13.5" fill="#893b5f" stroke-width="0.4"></rect><rect id="Europe" x="141.94400000000002" y="100.8" width="13.5" height="13.5" fill="#e56e5a" stroke-width="0.4"></rect><rect id="Oceania" x="219.10000000000002" y="100.8" width="13.5" height="13.5" fill="#00295b" stroke-width="0.4"></rect><rect id="North-America" x="303.456" y="100.8" width="13.5" height="13.5" fill="#38aaba" stroke-width="0.4"></rect><rect id="South-America" x="426.11600000000004" y="100.8" width="13.5" height="13.5" fill="#bc8e5a" stroke-width="0.4"></rect></g><g id="labels"><text x="34.5" y="107.55" dy=".32em" font-size="14.4">Africa</text><text x="101.864" y="107.55" dy=".32em" font-size="14.4">Asia</text><text x="160.44400000000002" y="107.55" dy=".32em" font-size="14.4">Europe</text><text x="237.60000000000002" y="107.55" dy=".32em" font-size="14.4">Oceania</text><text x="321.956" y="107.55" dy=".32em" font-size="14.4">North America</text><text x="444.61600000000004" y="107.55" dy=".32em" font-size="14.4">South America</text></g><g><g style="cursor:default"><rect x="16" y="98.3" height="18.5" width="67.364" fill="#fff" opacity="0"></rect></g><g style="cursor:default"><rect x="83.364" y="98.3" height="18.5" width="58.58" fill="#fff" opacity="0"></rect></g><g style="cursor:default"><rect x="141.94400000000002" y="98.3" height="18.5" width="77.156" fill="#fff" opacity="0"></rect></g><g style="cursor:default"><rect x="219.10000000000002" y="98.3" height="18.5" width="84.35600000000001" fill="#fff" opacity="0"></rect></g><g style="cursor:default"><rect x="303.456" y="98.3" height="18.5" width="122.66000000000001" fill="#fff" opacity="0"></rect></g><g style="cursor:default"><rect x="426.11600000000004" y="98.3" height="18.5" width="125.25200000000001" fill="#fff" opacity="0"></rect></g></g></g><text x="45.4603125" y="141.01875" fill="#5b5b5b" font-size="14.625" style="font-weight:700">Cataract<title>Cataract</title></text><g class="LineChart"><defs><clipPath id="boundsClip-1"><rect x="35.4603125" y="138.33125" width="282" height="123"></rect></clipPath></defs><rect x="16" y="148.33125" width="262" height="103" fill-opacity="0"></rect><g id="horizontal-axis" class="HorizontalAxis"><g id="tick-marks"><line id="1990" x1="45.5" y1="232.8625" x2="45.5" y2="238.3625" stroke="#999" stroke-width="1"></line><line id="2021" x1="277" y1="232.8625" x2="277" y2="238.3625" stroke="#999" stroke-width="1"></line><line id="2000" x1="120.2" y1="232.8625" x2="120.2" y2="238.3625" stroke="#999" stroke-width="1"></line><line id="2005" x1="157.5" y1="232.8625" x2="157.5" y2="238.3625" stroke="#999" stroke-width="1"></line><line id="2010" x1="194.8" y1="232.8625" x2="194.8" y2="238.3625" stroke="#999" stroke-width="1"></line><line id="2015" x1="232.2" y1="232.8625" x2="232.2" y2="238.3625" stroke="#999" stroke-width="1"></line></g><g id="tick-labels"><text x="45.4603125" y="249.33125" fill="#5b5b5b" text-anchor="start" font-size="10.96875">1990</text><text x="277" y="249.33125" fill="#5b5b5b" text-anchor="end" font-size="10.96875">2021</text><text x="120.2" y="249.33125" fill="#5b5b5b" text-anchor="middle" font-size="10.96875">2000</text><text x="157.5" y="249.33125" fill="#5b5b5b" text-anchor="middle" font-size="10.96875">2005</text><text x="194.8" y="249.33125" fill="#5b5b5b" text-anchor="middle" font-size="10.96875">2010</text><text x="232.2" y="249.33125" fill="#5b5b5b" text-anchor="middle" font-size="10.96875">2015</text></g></g><g id="vertical-axis" class="VerticalAxis"><g id="tick-labels"><text x="40.46" y="233.4" dy=".32em" text-anchor="end" fill="#5b5b5b" font-size="10.96875">0</text><text x="40.46" y="201.4" dy=".32em" text-anchor="end" fill="#5b5b5b" font-size="10.96875">5M</text><text x="40.46" y="169.4" dy=".32em" text-anchor="end" fill="#5b5b5b" font-size="10.96875">10M</text></g></g><g id="horizontal-grid-lines" class="AxisGridLines horizontalLines"><line id="0" x1="45.46" y1="233.4" x2="277.00" y2="233.4" stroke="#999" stroke-width="1"></line><line id="5M" x1="45.46" y1="201.4" x2="277.00" y2="201.4" stroke="#ddd" stroke-width="1" stroke-dasharray="2,1"></line><line id="10M" x1="45.46" y1="169.4" x2="277.00" y2="169.4" stroke="#ddd" stroke-width="1" stroke-dasharray="2,1"></line></g><g clip-path="url(#boundsClip-1)"><g class="Lines"><rect x="45" y="154" width="232" height="79" fill="rgba(255,255,255,0)" opacity="0"></rect><g id="lines"><path fill="none" stroke-linecap="butt" stroke-linejoin="round" stroke="#ffffff" stroke-width="2.5" id="outline__South-America" d="M45.5 230.1L52.9 230.1L60.4 230.1L67.9 230.1L75.3 230.1L82.8 230.1L90.3 230.1L97.7 230L105.2 230L112.7 229.9L120.2 229.9L127.6 229.8L135.1 229.7L142.6 229.6L150 229.4L157.5 229.3L165 229.3L172.4 229.2L179.9 229.2L187.4 229.1L194.8 229.1L202.3 229L209.8 228.9L217.2 228.7L224.7 228.6L232.2 228.5L239.7 228.4L247.1 228.3L254.6 228.1L262.1 228L269.5 227.9L277 227.9"></path><path fill="none" stroke-linecap="butt" stroke-linejoin="round" stroke="#bc8e5a" stroke-width="1.5" id="line__South-America" d="M45.5 230.1L52.9 230.1L60.4 230.1L67.9 230.1L75.3 230.1L82.8 230.1L90.3 230.1L97.7 230L105.2 230L112.7 229.9L120.2 229.9L127.6 229.8L135.1 229.7L142.6 229.6L150 229.4L157.5 229.3L165 229.3L172.4 229.2L179.9 229.2L187.4 229.1L194.8 229.1L202.3 229L209.8 228.9L217.2 228.7L224.7 228.6L232.2 228.5L239.7 228.4L247.1 228.3L254.6 228.1L262.1 228L269.5 227.9L277 227.9"></path><path fill="none" stroke-linecap="butt" stroke-linejoin="round" stroke="#ffffff" stroke-width="2.5" id="outline__North-America" d="M45.5 231.6L52.9 231.6L60.4 231.5L67.9 231.5L75.3 231.5L82.8 231.5L90.3 231.5L97.7 231.5L105.2 231.5L112.7 231.4L120.2 231.4L127.6 231.4L135.1 231.4L142.6 231.4L150 231.4L157.5 231.4L165 231.3L172.4 231.3L179.9 231.3L187.4 231.2L194.8 231.2L202.3 231.2L209.8 231.1L217.2 231.1L224.7 231L232.2 231L239.7 230.9L247.1 230.9L254.6 230.9L262.1 230.8L269.5 230.8L277 230.7"></path><path fill="none" stroke-linecap="butt" stroke-linejoin="round" stroke="#38aaba" stroke-width="1.5" id="line__North-America" d="M45.5 231.6L52.9 231.6L60.4 231.5L67.9 231.5L75.3 231.5L82.8 231.5L90.3 231.5L97.7 231.5L105.2 231.5L112.7 231.4L120.2 231.4L127.6 231.4L135.1 231.4L142.6 231.4L150 231.4L157.5 231.4L165 231.3L172.4 231.3L179.9 231.3L187.4 231.2L194.8 231.2L202.3 231.2L209.8 231.1L217.2 231.1L224.7 231L232.2 231L239.7 230.9L247.1 230.9L254.6 230.9L262.1 230.8L269.5 230.8L277 230.7"></path><path fill="none" stroke-linecap="butt" stroke-linejoin="round" stroke="#ffffff" stroke-width="2.5" id="outline__Oceania" d="M45.5 233.2L52.9 233.2L60.4 233.2L67.9 233.2L75.3 233.2L82.8 233.2L90.3 233.2L97.7 233.2L105.2 233.2L112.7 233.2L120.2 233.2L127.6 233.2L135.1 233.2L142.6 233.2L150 233.2L157.5 233.2L165 233.2L172.4 233.2L179.9 233.2L187.4 233.2L194.8 233.2L202.3 233.2L209.8 233.1L217.2 233.1L224.7 233.1L232.2 233.1L239.7 233.1L247.1 233.1L254.6 233.1L262.1 233.1L269.5 233.1L277 233.1"></path><path fill="none" stroke-linecap="butt" stroke-linejoin="round" stroke="#00295b" stroke-width="1.5" id="line__Oceania" d="M45.5 233.2L52.9 233.2L60.4 233.2L67.9 233.2L75.3 233.2L82.8 233.2L90.3 233.2L97.7 233.2L105.2 233.2L112.7 233.2L120.2 233.2L127.6 233.2L135.1 233.2L142.6 233.2L150 233.2L157.5 233.2L165 233.2L172.4 233.2L179.9 233.2L187.4 233.2L194.8 233.2L202.3 233.2L209.8 233.1L217.2 233.1L224.7 233.1L232.2 233.1L239.7 233.1L247.1 233.1L254.6 233.1L262.1 233.1L269.5 233.1L277 233.1"></path><path fill="none" stroke-linecap="butt" stroke-linejoin="round" stroke="#ffffff" stroke-width="2.5" id="outline__Europe" d="M45.5 230.9L52.9 230.9L60.4 230.9L67.9 230.9L75.3 231L82.8 231L90.3 231L97.7 231L105.2 231L112.7 230.9L120.2 230.9L127.6 230.9L135.1 231L142.6 231L150 231L157.5 231L165 231L172.4 231.1L179.9 231.1L187.4 231.1L194.8 231.1L202.3 231.1L209.8 231.1L217.2 231.1L224.7 231.1L232.2 231.1L239.7 231.1L247.1 231.1L254.6 231.1L262.1 231.1L269.5 231.1L277 231.1"></path><path fill="none" stroke-linecap="butt" stroke-linejoin="round" stroke="#e56e5a" stroke-width="1.5" id="line__Europe" d="M45.5 230.9L52.9 230.9L60.4 230.9L67.9 230.9L75.3 231L82.8 231L90.3 231L97.7 231L105.2 231L112.7 230.9L120.2 230.9L127.6 230.9L135.1 231L142.6 231L150 231L157.5 231L165 231L172.4 231.1L179.9 231.1L187.4 231.1L194.8 231.1L202.3 231.1L209.8 231.1L217.2 231.1L224.7 231.1L232.2 231.1L239.7 231.1L247.1 231.1L254.6 231.1L262.1 231.1L269.5 231.1L277 231.1"></path><path fill="none" stroke-linecap="butt" stroke-linejoin="round" stroke="#ffffff" stroke-width="2.5" id="outline__Asia" d="M45.5 177.5L52.9 177.1L60.4 176.5L67.9 175.8L75.3 175L82.8 174.2L90.3 173.2L97.7 171.9L105.2 170.4L112.7 168.9L120.2 167.6L127.6 166.7L135.1 166L142.6 165.6L150 165.2L157.5 164.8L165 164.2L172.4 163.8L179.9 163.5L187.4 163.2L194.8 162.8L202.3 162.3L209.8 162L217.2 161.7L224.7 161.5L232.2 161.3L239.7 161.1L247.1 161.1L254.6 160.8L262.1 159.4L269.5 154.3L277 156.1"></path><path fill="none" stroke-linecap="butt" stroke-linejoin="round" stroke="#893b5f" stroke-width="1.5" id="line__Asia" d="M45.5 177.5L52.9 177.1L60.4 176.5L67.9 175.8L75.3 175L82.8 174.2L90.3 173.2L97.7 171.9L105.2 170.4L112.7 168.9L120.2 167.6L127.6 166.7L135.1 166L142.6 165.6L150 165.2L157.5 164.8L165 164.2L172.4 163.8L179.9 163.5L187.4 163.2L194.8 162.8L202.3 162.3L209.8 162L217.2 161.7L224.7 161.5L232.2 161.3L239.7 161.1L247.1 161.1L254.6 160.8L262.1 159.4L269.5 154.3L277 156.1"></path><path fill="none" stroke-linecap="butt" stroke-linejoin="round" stroke="#ffffff" stroke-width="2.5" id="outline__Africa" d="M45.5 225.4L52.9 225.2L60.4 225.1L67.9 224.9L75.3 224.8L82.8 224.6L90.3 224.5L97.7 224.4L105.2 224.3L112.7 224.2L120.2 224.1L127.6 224L135.1 223.9L142.6 223.8L150 223.7L157.5 223.6L165 223.5L172.4 223.4L179.9 223.4L187.4 223.3L194.8 223.1L202.3 223L209.8 222.9L217.2 222.8L224.7 222.6L232.2 222.5L239.7 222.3L247.1 222.2L254.6 222.1L262.1 221.9L269.5 221.7L277 221.6"></path><path fill="none" stroke-linecap="butt" stroke-linejoin="round" stroke="#4c6a9c" stroke-width="1.5" id="line__Africa" d="M45.5 225.4L52.9 225.2L60.4 225.1L67.9 224.9L75.3 224.8L82.8 224.6L90.3 224.5L97.7 224.4L105.2 224.3L112.7 224.2L120.2 224.1L127.6 224L135.1 223.9L142.6 223.8L150 223.7L157.5 223.6L165 223.5L172.4 223.4L179.9 223.4L187.4 223.3L194.8 223.1L202.3 223L209.8 222.9L217.2 222.8L224.7 222.6L232.2 222.5L239.7 222.3L247.1 222.2L254.6 222.1L262.1 221.9L269.5 221.7L277 221.6"></path></g><g id="markers"></g></g></g></g><text x="322.4603125" y="141.01875" fill="#5b5b5b" font-size="14.625" style="font-weight:700">Glaucoma<title>Glaucoma</title></text><g class="LineChart"><defs><clipPath id="boundsClip-2"><rect x="312.4603125" y="138.33125" width="282" height="123"></rect></clipPath></defs><rect x="293" y="148.33125" width="262" height="103" fill-opacity="0"></rect><g id="horizontal-axis" class="HorizontalAxis"><g id="tick-marks"><line id="1990" x1="322.5" y1="232.8625" x2="322.5" y2="238.3625" stroke="#999" stroke-width="1"></line><line id="2021" x1="554" y1="232.8625" x2="554" y2="238.3625" stroke="#999" stroke-width="1"></line><line id="2000" x1="397.2" y1="232.8625" x2="397.2" y2="238.3625" stroke="#999" stroke-width="1"></line><line id="2005" x1="434.5" y1="232.8625" x2="434.5" y2="238.3625" stroke="#999" stroke-width="1"></line><line id="2010" x1="471.8" y1="232.8625" x2="471.8" y2="238.3625" stroke="#999" stroke-width="1"></line><line id="2015" x1="509.2" y1="232.8625" x2="509.2" y2="238.3625" stroke="#999" stroke-width="1"></line></g><g id="tick-labels"><text x="322.4603125" y="249.33125" fill="#5b5b5b" text-anchor="start" font-size="10.96875">1990</text><text x="554" y="249.33125" fill="#5b5b5b" text-anchor="end" font-size="10.96875">2021</text><text x="397.2" y="249.33125" fill="#5b5b5b" text-anchor="middle" font-size="10.96875">2000</text><text x="434.5" y="249.33125" fill="#5b5b5b" text-anchor="middle" font-size="10.96875">2005</text><text x="471.8" y="249.33125" fill="#5b5b5b" text-anchor="middle" font-size="10.96875">2010</text><text x="509.2" y="249.33125" fill="#5b5b5b" text-anchor="middle" font-size="10.96875">2015</text></g></g><g id="vertical-axis" class="VerticalAxis"><g id="tick-labels"><text x="317.46" y="233.4" dy=".32em" text-anchor="end" fill="#5b5b5b" font-size="10.96875">0</text><text x="317.46" y="211.1" dy=".32em" text-anchor="end" fill="#5b5b5b" font-size="10.96875">500k</text><text x="317.46" y="188.8" dy=".32em" text-anchor="end" fill="#5b5b5b" font-size="10.96875">1M</text><text x="317.46" y="166.5" dy=".32em" text-anchor="end" fill="#5b5b5b" font-size="10.96875">1.5M</text></g></g><g id="horizontal-grid-lines" class="AxisGridLines horizontalLines"><line id="0" x1="322.46" y1="233.4" x2="554.00" y2="233.4" stroke="#999" stroke-width="1"></line><line id="500k" x1="322.46" y1="211.1" x2="554.00" y2="211.1" stroke="#ddd" stroke-width="1" stroke-dasharray="2,1"></line><line id="1M" x1="322.46" y1="188.8" x2="554.00" y2="188.8" stroke="#ddd" stroke-width="1" stroke-dasharray="2,1"></line><line id="1.5M" x1="322.46" y1="166.5" x2="554.00" y2="166.5" stroke="#ddd" stroke-width="1" stroke-dasharray="2,1"></line></g><g clip-path="url(#boundsClip-2)"><g class="Lines"><rect x="322" y="154" width="232" height="79" fill="rgba(255,255,255,0)" opacity="0"></rect><g id="lines"><path fill="none" stroke-linecap="butt" stroke-linejoin="round" stroke="#ffffff" stroke-width="2.5" id="outline__South-America" d="M322.5 227.2L329.9 227.3L337.4 227.3L344.9 227.3L352.3 227.4L359.8 227.3L367.3 227.2L374.7 227.1L382.2 227L389.7 226.9L397.2 226.7L404.6 226.5L412.1 226.2L419.6 225.9L427 225.6L434.5 225.4L442 225.2L449.4 225L456.9 224.9L464.4 224.8L471.8 224.5L479.3 224.2L486.8 223.9L494.2 223.4L501.7 223L509.2 222.7L516.7 222.3L524.1 222L531.6 221.7L539.1 221.3L546.5 221.1L554 220.9"></path><path fill="none" stroke-linecap="butt" stroke-linejoin="round" stroke="#bc8e5a" stroke-width="1.5" id="line__South-America" d="M322.5 227.2L329.9 227.3L337.4 227.3L344.9 227.3L352.3 227.4L359.8 227.3L367.3 227.2L374.7 227.1L382.2 227L389.7 226.9L397.2 226.7L404.6 226.5L412.1 226.2L419.6 225.9L427 225.6L434.5 225.4L442 225.2L449.4 225L456.9 224.9L464.4 224.8L471.8 224.5L479.3 224.2L486.8 223.9L494.2 223.4L501.7 223L509.2 222.7L516.7 222.3L524.1 222L531.6 221.7L539.1 221.3L546.5 221.1L554 220.9"></path><path fill="none" stroke-linecap="butt" stroke-linejoin="round" stroke="#ffffff" stroke-width="2.5" id="outline__North-America" d="M322.5 226.3L329.9 226.2L337.4 226.2L344.9 226.1L352.3 226L359.8 225.9L367.3 225.9L374.7 225.8L382.2 225.8L389.7 225.7L397.2 225.7L404.6 225.5L412.1 225.4L419.6 225.3L427 225.2L434.5 225.1L442 224.9L449.4 224.8L456.9 224.7L464.4 224.5L471.8 224.4L479.3 224.1L486.8 223.9L494.2 223.6L501.7 223.3L509.2 223L516.7 222.7L524.1 222.3L531.6 221.9L539.1 221.6L546.5 221.5L554 221.2"></path><path fill="none" stroke-linecap="butt" stroke-linejoin="round" stroke="#38aaba" stroke-width="1.5" id="line__North-America" d="M322.5 226.3L329.9 226.2L337.4 226.2L344.9 226.1L352.3 226L359.8 225.9L367.3 225.9L374.7 225.8L382.2 225.8L389.7 225.7L397.2 225.7L404.6 225.5L412.1 225.4L419.6 225.3L427 225.2L434.5 225.1L442 224.9L449.4 224.8L456.9 224.7L464.4 224.5L471.8 224.4L479.3 224.1L486.8 223.9L494.2 223.6L501.7 223.3L509.2 223L516.7 222.7L524.1 222.3L531.6 221.9L539.1 221.6L546.5 221.5L554 221.2"></path><path fill="none" stroke-linecap="butt" stroke-linejoin="round" stroke="#ffffff" stroke-width="2.5" id="outline__Oceania" d="M322.5 233L329.9 233L337.4 233L344.9 233L352.3 233L359.8 232.9L367.3 232.9L374.7 232.9L382.2 232.9L389.7 232.9L397.2 232.9L404.6 232.9L412.1 232.9L419.6 232.9L427 232.9L434.5 232.8L442 232.8L449.4 232.8L456.9 232.8L464.4 232.8L471.8 232.8L479.3 232.8L486.8 232.8L494.2 232.7L501.7 232.7L509.2 232.7L516.7 232.7L524.1 232.7L531.6 232.7L539.1 232.6L546.5 232.6L554 232.6"></path><path fill="none" stroke-linecap="butt" stroke-linejoin="round" stroke="#00295b" stroke-width="1.5" id="line__Oceania" d="M322.5 233L329.9 233L337.4 233L344.9 233L352.3 233L359.8 232.9L367.3 232.9L374.7 232.9L382.2 232.9L389.7 232.9L397.2 232.9L404.6 232.9L412.1 232.9L419.6 232.9L427 232.9L434.5 232.8L442 232.8L449.4 232.8L456.9 232.8L464.4 232.8L471.8 232.8L479.3 232.8L486.8 232.8L494.2 232.7L501.7 232.7L509.2 232.7L516.7 232.7L524.1 232.7L531.6 232.7L539.1 232.6L546.5 232.6L554 232.6"></path><path fill="none" stroke-linecap="butt" stroke-linejoin="round" stroke="#ffffff" stroke-width="2.5" id="outline__Europe" d="M322.5 210.7L329.9 210.7L337.4 210.8L344.9 210.9L352.3 210.9L359.8 210.9L367.3 210.9L374.7 211L382.2 211.1L389.7 211.1L397.2 211L404.6 210.9L412.1 210.9L419.6 210.9L427 210.9L434.5 210.8L442 210.7L449.4 210.6L456.9 210.5L464.4 210.4L471.8 210.2L479.3 209.9L486.8 209.6L494.2 209.3L501.7 208.9L509.2 208.7L516.7 208.4L524.1 208.2L531.6 208.1L539.1 207.8L546.5 207.6L554 207.2"></path><path fill="none" stroke-linecap="butt" stroke-linejoin="round" stroke="#e56e5a" stroke-width="1.5" id="line__Europe" d="M322.5 210.7L329.9 210.7L337.4 210.8L344.9 210.9L352.3 210.9L359.8 210.9L367.3 210.9L374.7 211L382.2 211.1L389.7 211.1L397.2 211L404.6 210.9L412.1 210.9L419.6 210.9L427 210.9L434.5 210.8L442 210.7L449.4 210.6L456.9 210.5L464.4 210.4L471.8 210.2L479.3 209.9L486.8 209.6L494.2 209.3L501.7 208.9L509.2 208.7L516.7 208.4L524.1 208.2L531.6 208.1L539.1 207.8L546.5 207.6L554 207.2"></path><path fill="none" stroke-linecap="butt" stroke-linejoin="round" stroke="#ffffff" stroke-width="2.5" id="outline__Asia" d="M322.5 181.7L329.9 181.9L337.4 182L344.9 181.9L352.3 181.4L359.8 180.4L367.3 179L374.7 177.4L382.2 175.9L389.7 174.4L397.2 173L404.6 172L412.1 171.6L419.6 171.5L427 171.4L434.5 171L442 170.2L449.4 169.3L456.9 168.4L464.4 167.5L471.8 166.5L479.3 165.6L486.8 164.7L494.2 164.1L501.7 163.4L509.2 162.6L516.7 161.6L524.1 160.7L531.6 159.6L539.1 158L546.5 154.4L554 154.3"></path><path fill="none" stroke-linecap="butt" stroke-linejoin="round" stroke="#893b5f" stroke-width="1.5" id="line__Asia" d="M322.5 181.7L329.9 181.9L337.4 182L344.9 181.9L352.3 181.4L359.8 180.4L367.3 179L374.7 177.4L382.2 175.9L389.7 174.4L397.2 173L404.6 172L412.1 171.6L419.6 171.5L427 171.4L434.5 171L442 170.2L449.4 169.3L456.9 168.4L464.4 167.5L471.8 166.5L479.3 165.6L486.8 164.7L494.2 164.1L501.7 163.4L509.2 162.6L516.7 161.6L524.1 160.7L531.6 159.6L539.1 158L546.5 154.4L554 154.3"></path><path fill="none" stroke-linecap="butt" stroke-linejoin="round" stroke="#ffffff" stroke-width="2.5" id="outline__Africa" d="M322.5 215.1L329.9 214.5L337.4 214L344.9 213.5L352.3 213L359.8 212.6L367.3 212.4L374.7 212.4L382.2 212.4L389.7 212.5L397.2 212.3L404.6 212L412.1 211.7L419.6 211.3L427 211L434.5 210.7L442 210.4L449.4 210.2L456.9 210L464.4 209.8L471.8 209.5L479.3 209.1L486.8 208.8L494.2 208.4L501.7 208L509.2 207.5L516.7 206.9L524.1 206.2L531.6 205.4L539.1 204.6L546.5 203.8L554 203.9"></path><path fill="none" stroke-linecap="butt" stroke-linejoin="round" stroke="#4c6a9c" stroke-width="1.5" id="line__Africa" d="M322.5 215.1L329.9 214.5L337.4 214L344.9 213.5L352.3 213L359.8 212.6L367.3 212.4L374.7 212.4L382.2 212.4L389.7 212.5L397.2 212.3L404.6 212L412.1 211.7L419.6 211.3L427 211L434.5 210.7L442 210.4L449.4 210.2L456.9 210L464.4 209.8L471.8 209.5L479.3 209.1L486.8 208.8L494.2 208.4L501.7 208L509.2 207.5L516.7 206.9L524.1 206.2L531.6 205.4L539.1 204.6L546.5 203.8L554 203.9"></path></g><g id="markers"></g></g></g></g><text x="599.4603125" y="141.01875" fill="#5b5b5b" font-size="14.625" style="font-weight:700">Refraction disorders<title>Refraction disorders</title></text><g class="LineChart"><defs><clipPath id="boundsClip-3"><rect x="589.4603125" y="138.33125" width="282" height="123"></rect></clipPath></defs><rect x="570" y="148.33125" width="262" height="103" fill-opacity="0"></rect><g id="horizontal-axis" class="HorizontalAxis"><g id="tick-marks"><line id="1990" x1="599.5" y1="232.8625" x2="599.5" y2="238.3625" stroke="#999" stroke-width="1"></line><line id="2021" x1="831" y1="232.8625" x2="831" y2="238.3625" stroke="#999" stroke-width="1"></line><line id="2000" x1="674.2" y1="232.8625" x2="674.2" y2="238.3625" stroke="#999" stroke-width="1"></line><line id="2005" x1="711.5" y1="232.8625" x2="711.5" y2="238.3625" stroke="#999" stroke-width="1"></line><line id="2010" x1="748.8" y1="232.8625" x2="748.8" y2="238.3625" stroke="#999" stroke-width="1"></line><line id="2015" x1="786.2" y1="232.8625" x2="786.2" y2="238.3625" stroke="#999" stroke-width="1"></line></g><g id="tick-labels"><text x="599.4603125" y="249.33125" fill="#5b5b5b" text-anchor="start" font-size="10.96875">1990</text><text x="831" y="249.33125" fill="#5b5b5b" text-anchor="end" font-size="10.96875">2021</text><text x="674.2" y="249.33125" fill="#5b5b5b" text-anchor="middle" font-size="10.96875">2000</text><text x="711.5" y="249.33125" fill="#5b5b5b" text-anchor="middle" font-size="10.96875">2005</text><text x="748.8" y="249.33125" fill="#5b5b5b" text-anchor="middle" font-size="10.96875">2010</text><text x="786.2" y="249.33125" fill="#5b5b5b" text-anchor="middle" font-size="10.96875">2015</text></g></g><g id="vertical-axis" class="VerticalAxis"><g id="tick-labels"><text x="594.46" y="233.4" dy=".32em" text-anchor="end" fill="#5b5b5b" font-size="10.96875">0</text><text x="594.46" y="206.7" dy=".32em" text-anchor="end" fill="#5b5b5b" font-size="10.96875">1M</text><text x="594.46" y="180.1" dy=".32em" text-anchor="end" fill="#5b5b5b" font-size="10.96875">2M</text></g></g><g id="horizontal-grid-lines" class="AxisGridLines horizontalLines"><line id="0" x1="599.46" y1="233.4" x2="831.00" y2="233.4" stroke="#999" stroke-width="1"></line><line id="1M" x1="599.46" y1="206.7" x2="831.00" y2="206.7" stroke="#ddd" stroke-width="1" stroke-dasharray="2,1"></line><line id="2M" x1="599.46" y1="180.1" x2="831.00" y2="180.1" stroke="#ddd" stroke-width="1" stroke-dasharray="2,1"></line></g><g clip-path="url(#boundsClip-3)"><g class="Lines"><rect x="599" y="154" width="232" height="79" fill="rgba(255,255,255,0)" opacity="0"></rect><g id="lines"><path fill="none" stroke-linecap="butt" stroke-linejoin="round" stroke="#ffffff" stroke-width="2.5" id="outline__South-America" d="M599.5 230.9L606.9 230.9L614.4 230.9L621.9 230.9L629.3 230.8L636.8 230.8L644.3 230.8L651.7 230.8L659.2 230.7L666.7 230.7L674.2 230.6L681.6 230.6L689.1 230.5L696.6 230.4L704 230.3L711.5 230.3L719 230.2L726.4 230.2L733.9 230.2L741.4 230.2L748.8 230.1L756.3 230.1L763.8 230L771.2 229.9L778.7 229.9L786.2 229.8L793.7 229.8L801.1 229.7L808.6 229.7L816.1 229.7L823.5 229.6L831 229.6"></path><path fill="none" stroke-linecap="butt" stroke-linejoin="round" stroke="#bc8e5a" stroke-width="1.5" id="line__South-America" d="M599.5 230.9L606.9 230.9L614.4 230.9L621.9 230.9L629.3 230.8L636.8 230.8L644.3 230.8L651.7 230.8L659.2 230.7L666.7 230.7L674.2 230.6L681.6 230.6L689.1 230.5L696.6 230.4L704 230.3L711.5 230.3L719 230.2L726.4 230.2L733.9 230.2L741.4 230.2L748.8 230.1L756.3 230.1L763.8 230L771.2 229.9L778.7 229.9L786.2 229.8L793.7 229.8L801.1 229.7L808.6 229.7L816.1 229.7L823.5 229.6L831 229.6"></path><path fill="none" stroke-linecap="butt" stroke-linejoin="round" stroke="#ffffff" stroke-width="2.5" id="outline__North-America" d="M599.5 231.6L606.9 231.6L614.4 231.6L621.9 231.6L629.3 231.6L636.8 231.5L644.3 231.5L651.7 231.5L659.2 231.5L666.7 231.5L674.2 231.5L681.6 231.4L689.1 231.4L696.6 231.4L704 231.4L711.5 231.4L719 231.3L726.4 231.3L733.9 231.3L741.4 231.3L748.8 231.2L756.3 231.2L763.8 231.2L771.2 231.1L778.7 231.1L786.2 231L793.7 231L801.1 231L808.6 231L816.1 231L823.5 230.9L831 230.9"></path><path fill="none" stroke-linecap="butt" stroke-linejoin="round" stroke="#38aaba" stroke-width="1.5" id="line__North-America" d="M599.5 231.6L606.9 231.6L614.4 231.6L621.9 231.6L629.3 231.6L636.8 231.5L644.3 231.5L651.7 231.5L659.2 231.5L666.7 231.5L674.2 231.5L681.6 231.4L689.1 231.4L696.6 231.4L704 231.4L711.5 231.4L719 231.3L726.4 231.3L733.9 231.3L741.4 231.3L748.8 231.2L756.3 231.2L763.8 231.2L771.2 231.1L778.7 231.1L786.2 231L793.7 231L801.1 231L808.6 231L816.1 231L823.5 230.9L831 230.9"></path><path fill="none" stroke-linecap="butt" stroke-linejoin="round" stroke="#ffffff" stroke-width="2.5" id="outline__Oceania" d="M599.5 233.3L606.9 233.3L614.4 233.3L621.9 233.3L629.3 233.3L636.8 233.3L644.3 233.3L651.7 233.3L659.2 233.3L666.7 233.3L674.2 233.3L681.6 233.3L689.1 233.3L696.6 233.3L704 233.3L711.5 233.3L719 233.3L726.4 233.3L733.9 233.3L741.4 233.3L748.8 233.3L756.3 233.3L763.8 233.3L771.2 233.3L778.7 233.3L786.2 233.3L793.7 233.3L801.1 233.3L808.6 233.3L816.1 233.3L823.5 233.3L831 233.3"></path><path fill="none" stroke-linecap="butt" stroke-linejoin="round" stroke="#00295b" stroke-width="1.5" id="line__Oceania" d="M599.5 233.3L606.9 233.3L614.4 233.3L621.9 233.3L629.3 233.3L636.8 233.3L644.3 233.3L651.7 233.3L659.2 233.3L666.7 233.3L674.2 233.3L681.6 233.3L689.1 233.3L696.6 233.3L704 233.3L711.5 233.3L719 233.3L726.4 233.3L733.9 233.3L741.4 233.3L748.8 233.3L756.3 233.3L763.8 233.3L771.2 233.3L778.7 233.3L786.2 233.3L793.7 233.3L801.1 233.3L808.6 233.3L816.1 233.3L823.5 233.3L831 233.3"></path><path fill="none" stroke-linecap="butt" stroke-linejoin="round" stroke="#ffffff" stroke-width="2.5" id="outline__Europe" d="M599.5 231.5L606.9 231.6L614.4 231.6L621.9 231.6L629.3 231.6L636.8 231.6L644.3 231.6L651.7 231.6L659.2 231.6L666.7 231.7L674.2 231.7L681.6 231.7L689.1 231.7L696.6 231.7L704 231.7L711.5 231.7L719 231.7L726.4 231.7L733.9 231.7L741.4 231.8L748.8 231.8L756.3 231.8L763.8 231.8L771.2 231.8L778.7 231.8L786.2 231.8L793.7 231.8L801.1 231.8L808.6 231.8L816.1 231.8L823.5 231.8L831 231.8"></path><path fill="none" stroke-linecap="butt" stroke-linejoin="round" stroke="#e56e5a" stroke-width="1.5" id="line__Europe" d="M599.5 231.5L606.9 231.6L614.4 231.6L621.9 231.6L629.3 231.6L636.8 231.6L644.3 231.6L651.7 231.6L659.2 231.6L666.7 231.7L674.2 231.7L681.6 231.7L689.1 231.7L696.6 231.7L704 231.7L711.5 231.7L719 231.7L726.4 231.7L733.9 231.7L741.4 231.8L748.8 231.8L756.3 231.8L763.8 231.8L771.2 231.8L778.7 231.8L786.2 231.8L793.7 231.8L801.1 231.8L808.6 231.8L816.1 231.8L823.5 231.8L831 231.8"></path><path fill="none" stroke-linecap="butt" stroke-linejoin="round" stroke="#ffffff" stroke-width="2.5" id="outline__Asia" d="M599.5 170.1L606.9 169.3L614.4 168.5L621.9 167.6L629.3 166.6L636.8 165.7L644.3 164.6L651.7 163.4L659.2 162.1L666.7 160.9L674.2 159.8L681.6 159L689.1 158.9L696.6 159L704 159.2L711.5 158.9L719 158.3L726.4 157.6L733.9 157L741.4 156.4L748.8 156L756.3 155.9L763.8 156.2L771.2 156.8L778.7 157.2L786.2 157.4L793.7 157.1L801.1 156.9L808.6 156.4L816.1 155.7L823.5 154.3L831 154.4"></path><path fill="none" stroke-linecap="butt" stroke-linejoin="round" stroke="#893b5f" stroke-width="1.5" id="line__Asia" d="M599.5 170.1L606.9 169.3L614.4 168.5L621.9 167.6L629.3 166.6L636.8 165.7L644.3 164.6L651.7 163.4L659.2 162.1L666.7 160.9L674.2 159.8L681.6 159L689.1 158.9L696.6 159L704 159.2L711.5 158.9L719 158.3L726.4 157.6L733.9 157L741.4 156.4L748.8 156L756.3 155.9L763.8 156.2L771.2 156.8L778.7 157.2L786.2 157.4L793.7 157.1L801.1 156.9L808.6 156.4L816.1 155.7L823.5 154.3L831 154.4"></path><path fill="none" stroke-linecap="butt" stroke-linejoin="round" stroke="#ffffff" stroke-width="2.5" id="outline__Africa" d="M599.5 229L606.9 228.9L614.4 228.9L621.9 228.8L629.3 228.7L636.8 228.6L644.3 228.5L651.7 228.4L659.2 228.3L666.7 228.1L674.2 228L681.6 227.9L689.1 227.8L696.6 227.7L704 227.6L711.5 227.5L719 227.3L726.4 227.2L733.9 227L741.4 226.9L748.8 226.7L756.3 226.6L763.8 226.4L771.2 226.3L778.7 226.1L786.2 226L793.7 225.8L801.1 225.7L808.6 225.6L816.1 225.5L823.5 225.4L831 225.3"></path><path fill="none" stroke-linecap="butt" stroke-linejoin="round" stroke="#4c6a9c" stroke-width="1.5" id="line__Africa" d="M599.5 229L606.9 228.9L614.4 228.9L621.9 228.8L629.3 228.7L636.8 228.6L644.3 228.5L651.7 228.4L659.2 228.3L666.7 228.1L674.2 228L681.6 227.9L689.1 227.8L696.6 227.7L704 227.6L711.5 227.5L719 227.3L726.4 227.2L733.9 227L741.4 226.9L748.8 226.7L756.3 226.6L763.8 226.4L771.2 226.3L778.7 226.1L786.2 226L793.7 225.8L801.1 225.7L808.6 225.6L816.1 225.5L823.5 225.4L831 225.3"></path></g><g id="markers"></g></g></g></g><text x="45.4603125" y="281.01875" fill="#5b5b5b" font-size="14.625" style="font-weight:700">Age-related macular degeneration<title>Age-related macular degeneration</title></text><g class="LineChart"><defs><clipPath id="boundsClip-4"><rect x="35.4603125" y="278.33125" width="282" height="123"></rect></clipPath></defs><rect x="16" y="288.33125" width="262" height="103" fill-opacity="0"></rect><g id="horizontal-axis" class="HorizontalAxis"><g id="tick-marks"><line id="1990" x1="45.5" y1="372.8625" x2="45.5" y2="378.3625" stroke="#999" stroke-width="1"></line><line id="2021" x1="277" y1="372.8625" x2="277" y2="378.3625" stroke="#999" stroke-width="1"></line><line id="2000" x1="120.2" y1="372.8625" x2="120.2" y2="378.3625" stroke="#999" stroke-width="1"></line><line id="2005" x1="157.5" y1="372.8625" x2="157.5" y2="378.3625" stroke="#999" stroke-width="1"></line><line id="2010" x1="194.8" y1="372.8625" x2="194.8" y2="378.3625" stroke="#999" stroke-width="1"></line><line id="2015" x1="232.2" y1="372.8625" x2="232.2" y2="378.3625" stroke="#999" stroke-width="1"></line></g><g id="tick-labels"><text x="45.4603125" y="389.33125" fill="#5b5b5b" text-anchor="start" font-size="10.96875">1990</text><text x="277" y="389.33125" fill="#5b5b5b" text-anchor="end" font-size="10.96875">2021</text><text x="120.2" y="389.33125" fill="#5b5b5b" text-anchor="middle" font-size="10.96875">2000</text><text x="157.5" y="389.33125" fill="#5b5b5b" text-anchor="middle" font-size="10.96875">2005</text><text x="194.8" y="389.33125" fill="#5b5b5b" text-anchor="middle" font-size="10.96875">2010</text><text x="232.2" y="389.33125" fill="#5b5b5b" text-anchor="middle" font-size="10.96875">2015</text></g></g><g id="vertical-axis" class="VerticalAxis"><g id="tick-labels"><text x="40.46" y="373.4" dy=".32em" text-anchor="end" fill="#5b5b5b" font-size="10.96875">0</text><text x="40.46" y="335.7" dy=".32em" text-anchor="end" fill="#5b5b5b" font-size="10.96875">500k</text><text x="40.46" y="298" dy=".32em" text-anchor="end" fill="#5b5b5b" font-size="10.96875">1M</text></g></g><g id="horizontal-grid-lines" class="AxisGridLines horizontalLines"><line id="0" x1="45.46" y1="373.4" x2="277.00" y2="373.4" stroke="#999" stroke-width="1"></line><line id="500k" x1="45.46" y1="335.7" x2="277.00" y2="335.7" stroke="#ddd" stroke-width="1" stroke-dasharray="2,1"></line><line id="1M" x1="45.46" y1="298" x2="277.00" y2="298" stroke="#ddd" stroke-width="1" stroke-dasharray="2,1"></line></g><g clip-path="url(#boundsClip-4)"><g class="Lines"><rect x="45" y="294" width="232" height="79" fill="rgba(255,255,255,0)" opacity="0"></rect><g id="lines"><path fill="none" stroke-linecap="butt" stroke-linejoin="round" stroke="#ffffff" stroke-width="2.5" id="outline__South-America" d="M45.5 371.6L52.9 371.6L60.4 371.6L67.9 371.6L75.3 371.5L82.8 371.5L90.3 371.5L97.7 371.4L105.2 371.4L112.7 371.3L120.2 371.3L127.6 371.2L135.1 371.1L142.6 371L150 370.9L157.5 370.8L165 370.8L172.4 370.7L179.9 370.7L187.4 370.6L194.8 370.5L202.3 370.4L209.8 370.3L217.2 370.2L224.7 370.1L232.2 370L239.7 369.9L247.1 369.8L254.6 369.7L262.1 369.6L269.5 369.6L277 369.5"></path><path fill="none" stroke-linecap="butt" stroke-linejoin="round" stroke="#bc8e5a" stroke-width="1.5" id="line__South-America" d="M45.5 371.6L52.9 371.6L60.4 371.6L67.9 371.6L75.3 371.5L82.8 371.5L90.3 371.5L97.7 371.4L105.2 371.4L112.7 371.3L120.2 371.3L127.6 371.2L135.1 371.1L142.6 371L150 370.9L157.5 370.8L165 370.8L172.4 370.7L179.9 370.7L187.4 370.6L194.8 370.5L202.3 370.4L209.8 370.3L217.2 370.2L224.7 370.1L232.2 370L239.7 369.9L247.1 369.8L254.6 369.7L262.1 369.6L269.5 369.6L277 369.5"></path><path fill="none" stroke-linecap="butt" stroke-linejoin="round" stroke="#ffffff" stroke-width="2.5" id="outline__North-America" d="M45.5 368.8L52.9 368.7L60.4 368.7L67.9 368.6L75.3 368.6L82.8 368.5L90.3 368.5L97.7 368.4L105.2 368.3L112.7 368.3L120.2 368.2L127.6 368.2L135.1 368.2L142.6 368.2L150 368.2L157.5 368.2L165 368.1L172.4 368L179.9 367.9L187.4 367.8L194.8 367.7L202.3 367.5L209.8 367.3L217.2 367.1L224.7 366.9L232.2 366.7L239.7 366.5L247.1 366.2L254.6 366L262.1 365.7L269.5 365.6L277 365.5"></path><path fill="none" stroke-linecap="butt" stroke-linejoin="round" stroke="#38aaba" stroke-width="1.5" id="line__North-America" d="M45.5 368.8L52.9 368.7L60.4 368.7L67.9 368.6L75.3 368.6L82.8 368.5L90.3 368.5L97.7 368.4L105.2 368.3L112.7 368.3L120.2 368.2L127.6 368.2L135.1 368.2L142.6 368.2L150 368.2L157.5 368.2L165 368.1L172.4 368L179.9 367.9L187.4 367.8L194.8 367.7L202.3 367.5L209.8 367.3L217.2 367.1L224.7 366.9L232.2 366.7L239.7 366.5L247.1 366.2L254.6 366L262.1 365.7L269.5 365.6L277 365.5"></path><path fill="none" stroke-linecap="butt" stroke-linejoin="round" stroke="#ffffff" stroke-width="2.5" id="outline__Oceania" d="M45.5 372.9L52.9 372.9L60.4 372.9L67.9 372.9L75.3 372.9L82.8 372.9L90.3 372.9L97.7 372.9L105.2 372.9L112.7 372.9L120.2 372.8L127.6 372.8L135.1 372.8L142.6 372.8L150 372.8L157.5 372.8L165 372.8L172.4 372.7L179.9 372.7L187.4 372.7L194.8 372.7L202.3 372.7L209.8 372.7L217.2 372.7L224.7 372.7L232.2 372.6L239.7 372.6L247.1 372.6L254.6 372.6L262.1 372.6L269.5 372.5L277 372.5"></path><path fill="none" stroke-linecap="butt" stroke-linejoin="round" stroke="#00295b" stroke-width="1.5" id="line__Oceania" d="M45.5 372.9L52.9 372.9L60.4 372.9L67.9 372.9L75.3 372.9L82.8 372.9L90.3 372.9L97.7 372.9L105.2 372.9L112.7 372.9L120.2 372.8L127.6 372.8L135.1 372.8L142.6 372.8L150 372.8L157.5 372.8L165 372.8L172.4 372.7L179.9 372.7L187.4 372.7L194.8 372.7L202.3 372.7L209.8 372.7L217.2 372.7L224.7 372.7L232.2 372.6L239.7 372.6L247.1 372.6L254.6 372.6L262.1 372.6L269.5 372.5L277 372.5"></path><path fill="none" stroke-linecap="butt" stroke-linejoin="round" stroke="#ffffff" stroke-width="2.5" id="outline__Europe" d="M45.5 344.7L52.9 344.3L60.4 344.1L67.9 343.9L75.3 343.8L82.8 343.7L90.3 343.6L97.7 343.9L105.2 344.1L112.7 344.3L120.2 344.4L127.6 344.2L135.1 344.1L142.6 344L150 343.8L157.5 343.6L165 343.2L172.4 342.9L179.9 342.7L187.4 342.4L194.8 342L202.3 341.6L209.8 341.2L217.2 340.9L224.7 340.5L232.2 340.1L239.7 339.8L247.1 339.6L254.6 339.4L262.1 339L269.5 338.6L277 338.2"></path><path fill="none" stroke-linecap="butt" stroke-linejoin="round" stroke="#e56e5a" stroke-width="1.5" id="line__Europe" d="M45.5 344.7L52.9 344.3L60.4 344.1L67.9 343.9L75.3 343.8L82.8 343.7L90.3 343.6L97.7 343.9L105.2 344.1L112.7 344.3L120.2 344.4L127.6 344.2L135.1 344.1L142.6 344L150 343.8L157.5 343.6L165 343.2L172.4 342.9L179.9 342.7L187.4 342.4L194.8 342L202.3 341.6L209.8 341.2L217.2 340.9L224.7 340.5L232.2 340.1L239.7 339.8L247.1 339.6L254.6 339.4L262.1 339L269.5 338.6L277 338.2"></path><path fill="none" stroke-linecap="butt" stroke-linejoin="round" stroke="#ffffff" stroke-width="2.5" id="outline__Asia" d="M45.5 332.7L52.9 328.3L60.4 324.3L67.9 321L75.3 318.4L82.8 316.7L90.3 316.5L97.7 317.8L105.2 319.7L112.7 321.3L120.2 321.5L127.6 320.6L135.1 319.6L142.6 318.7L150 317.7L157.5 316.8L165 316.1L172.4 315.9L179.9 315.9L187.4 315.7L194.8 315L202.3 313.8L209.8 312.7L217.2 311.8L224.7 310.9L232.2 310L239.7 309.6L247.1 309.9L254.6 309.9L262.1 308.6L269.5 303.9L277 294.3"></path><path fill="none" stroke-linecap="butt" stroke-linejoin="round" stroke="#893b5f" stroke-width="1.5" id="line__Asia" d="M45.5 332.7L52.9 328.3L60.4 324.3L67.9 321L75.3 318.4L82.8 316.7L90.3 316.5L97.7 317.8L105.2 319.7L112.7 321.3L120.2 321.5L127.6 320.6L135.1 319.6L142.6 318.7L150 317.7L157.5 316.8L165 316.1L172.4 315.9L179.9 315.9L187.4 315.7L194.8 315L202.3 313.8L209.8 312.7L217.2 311.8L224.7 310.9L232.2 310L239.7 309.6L247.1 309.9L254.6 309.9L262.1 308.6L269.5 303.9L277 294.3"></path><path fill="none" stroke-linecap="butt" stroke-linejoin="round" stroke="#ffffff" stroke-width="2.5" id="outline__Africa" d="M45.5 365.3L52.9 365.1L60.4 364.8L67.9 364.6L75.3 364.5L82.8 364.3L90.3 364.3L97.7 364.3L105.2 364.4L112.7 364.5L120.2 364.4L127.6 364.3L135.1 364.1L142.6 363.9L150 363.7L157.5 363.5L165 363.3L172.4 363L179.9 362.8L187.4 362.5L194.8 362.2L202.3 362L209.8 361.8L217.2 361.5L224.7 361.3L232.2 361L239.7 360.7L247.1 360.3L254.6 360L262.1 359.6L269.5 359.3L277 359"></path><path fill="none" stroke-linecap="butt" stroke-linejoin="round" stroke="#4c6a9c" stroke-width="1.5" id="line__Africa" d="M45.5 365.3L52.9 365.1L60.4 364.8L67.9 364.6L75.3 364.5L82.8 364.3L90.3 364.3L97.7 364.3L105.2 364.4L112.7 364.5L120.2 364.4L127.6 364.3L135.1 364.1L142.6 363.9L150 363.7L157.5 363.5L165 363.3L172.4 363L179.9 362.8L187.4 362.5L194.8 362.2L202.3 362L209.8 361.8L217.2 361.5L224.7 361.3L232.2 361L239.7 360.7L247.1 360.3L254.6 360L262.1 359.6L269.5 359.3L277 359"></path></g><g id="markers"></g></g></g></g><text x="322.4603125" y="281.01875" fill="#5b5b5b" font-size="14.625" style="font-weight:700">Trachoma<title>Trachoma</title></text><g class="LineChart"><defs><clipPath id="boundsClip-5"><rect x="312.4603125" y="278.33125" width="282" height="123"></rect></clipPath></defs><rect x="293" y="288.33125" width="262" height="103" fill-opacity="0"></rect><g id="horizontal-axis" class="HorizontalAxis"><g id="tick-marks"><line id="1990" x1="322.5" y1="372.8625" x2="322.5" y2="378.3625" stroke="#999" stroke-width="1"></line><line id="2021" x1="554" y1="372.8625" x2="554" y2="378.3625" stroke="#999" stroke-width="1"></line><line id="2000" x1="397.2" y1="372.8625" x2="397.2" y2="378.3625" stroke="#999" stroke-width="1"></line><line id="2005" x1="434.5" y1="372.8625" x2="434.5" y2="378.3625" stroke="#999" stroke-width="1"></line><line id="2010" x1="471.8" y1="372.8625" x2="471.8" y2="378.3625" stroke="#999" stroke-width="1"></line><line id="2015" x1="509.2" y1="372.8625" x2="509.2" y2="378.3625" stroke="#999" stroke-width="1"></line></g><g id="tick-labels"><text x="322.4603125" y="389.33125" fill="#5b5b5b" text-anchor="start" font-size="10.96875">1990</text><text x="554" y="389.33125" fill="#5b5b5b" text-anchor="end" font-size="10.96875">2021</text><text x="397.2" y="389.33125" fill="#5b5b5b" text-anchor="middle" font-size="10.96875">2000</text><text x="434.5" y="389.33125" fill="#5b5b5b" text-anchor="middle" font-size="10.96875">2005</text><text x="471.8" y="389.33125" fill="#5b5b5b" text-anchor="middle" font-size="10.96875">2010</text><text x="509.2" y="389.33125" fill="#5b5b5b" text-anchor="middle" font-size="10.96875">2015</text></g></g><g id="vertical-axis" class="VerticalAxis"><g id="tick-labels"><text x="317.46" y="373.4" dy=".32em" text-anchor="end" fill="#5b5b5b" font-size="10.96875">0</text><text x="317.46" y="350.5" dy=".32em" text-anchor="end" fill="#5b5b5b" font-size="10.96875">100k</text><text x="317.46" y="327.6" dy=".32em" text-anchor="end" fill="#5b5b5b" font-size="10.96875">200k</text><text x="317.46" y="304.8" dy=".32em" text-anchor="end" fill="#5b5b5b" font-size="10.96875">300k</text></g></g><g id="horizontal-grid-lines" class="AxisGridLines horizontalLines"><line id="0" x1="322.46" y1="373.4" x2="554.00" y2="373.4" stroke="#999" stroke-width="1"></line><line id="100k" x1="322.46" y1="350.5" x2="554.00" y2="350.5" stroke="#ddd" stroke-width="1" stroke-dasharray="2,1"></line><line id="200k" x1="322.46" y1="327.6" x2="554.00" y2="327.6" stroke="#ddd" stroke-width="1" stroke-dasharray="2,1"></line><line id="300k" x1="322.46" y1="304.8" x2="554.00" y2="304.8" stroke="#ddd" stroke-width="1" stroke-dasharray="2,1"></line></g><g clip-path="url(#boundsClip-5)"><g class="Lines"><rect x="322" y="294" width="232" height="79" fill="rgba(255,255,255,0)" opacity="0"></rect><g id="lines"><path fill="none" stroke-linecap="butt" stroke-linejoin="round" stroke="#ffffff" stroke-width="2.5" id="outline__South-America" d="M322.5 372.5L329.9 372.6L337.4 372.7L344.9 372.7L352.3 372.8L359.8 372.8L367.3 372.8L374.7 372.9L382.2 372.9L389.7 372.9L397.2 372.9L404.6 372.9L412.1 372.9L419.6 372.9L427 372.9L434.5 372.9L442 372.9L449.4 372.9L456.9 372.9L464.4 372.9L471.8 372.9L479.3 372.9L486.8 372.9L494.2 372.9L501.7 372.9L509.2 372.9L516.7 372.9L524.1 372.9L531.6 372.9L539.1 372.9L546.5 372.9L554 372.9"></path><path fill="none" stroke-linecap="butt" stroke-linejoin="round" stroke="#bc8e5a" stroke-width="1.5" id="line__South-America" d="M322.5 372.5L329.9 372.6L337.4 372.7L344.9 372.7L352.3 372.8L359.8 372.8L367.3 372.8L374.7 372.9L382.2 372.9L389.7 372.9L397.2 372.9L404.6 372.9L412.1 372.9L419.6 372.9L427 372.9L434.5 372.9L442 372.9L449.4 372.9L456.9 372.9L464.4 372.9L471.8 372.9L479.3 372.9L486.8 372.9L494.2 372.9L501.7 372.9L509.2 372.9L516.7 372.9L524.1 372.9L531.6 372.9L539.1 372.9L546.5 372.9L554 372.9"></path><path fill="none" stroke-linecap="butt" stroke-linejoin="round" stroke="#ffffff" stroke-width="2.5" id="outline__North-America" d="M322.5 373L329.9 373.1L337.4 373.1L344.9 373.1L352.3 373.1L359.8 373.1L367.3 373.1L374.7 373.1L382.2 373.1L389.7 373.1L397.2 373.1L404.6 373.1L412.1 373.1L419.6 373.1L427 373.1L434.5 373.1L442 373.1L449.4 373.1L456.9 373.1L464.4 373.1L471.8 373.1L479.3 373.1L486.8 373.1L494.2 373L501.7 373L509.2 373L516.7 373L524.1 373L531.6 373L539.1 373L546.5 373L554 373"></path><path fill="none" stroke-linecap="butt" stroke-linejoin="round" stroke="#38aaba" stroke-width="1.5" id="line__North-America" d="M322.5 373L329.9 373.1L337.4 373.1L344.9 373.1L352.3 373.1L359.8 373.1L367.3 373.1L374.7 373.1L382.2 373.1L389.7 373.1L397.2 373.1L404.6 373.1L412.1 373.1L419.6 373.1L427 373.1L434.5 373.1L442 373.1L449.4 373.1L456.9 373.1L464.4 373.1L471.8 373.1L479.3 373.1L486.8 373.1L494.2 373L501.7 373L509.2 373L516.7 373L524.1 373L531.6 373L539.1 373L546.5 373L554 373"></path><path fill="none" stroke-linecap="butt" stroke-linejoin="round" stroke="#ffffff" stroke-width="2.5" id="outline__Oceania" d="M322.5 373.3L329.9 373.3L337.4 373.3L344.9 373.3L352.3 373.3L359.8 373.3L367.3 373.3L374.7 373.3L382.2 373.3L389.7 373.3L397.2 373.3L404.6 373.3L412.1 373.3L419.6 373.3L427 373.3L434.5 373.3L442 373.3L449.4 373.3L456.9 373.2L464.4 373.2L471.8 373.2L479.3 373.2L486.8 373.2L494.2 373.2L501.7 373.2L509.2 373.2L516.7 373.2L524.1 373.2L531.6 373.2L539.1 373.2L546.5 373.2L554 373.2"></path><path fill="none" stroke-linecap="butt" stroke-linejoin="round" stroke="#00295b" stroke-width="1.5" id="line__Oceania" d="M322.5 373.3L329.9 373.3L337.4 373.3L344.9 373.3L352.3 373.3L359.8 373.3L367.3 373.3L374.7 373.3L382.2 373.3L389.7 373.3L397.2 373.3L404.6 373.3L412.1 373.3L419.6 373.3L427 373.3L434.5 373.3L442 373.3L449.4 373.3L456.9 373.2L464.4 373.2L471.8 373.2L479.3 373.2L486.8 373.2L494.2 373.2L501.7 373.2L509.2 373.2L516.7 373.2L524.1 373.2L531.6 373.2L539.1 373.2L546.5 373.2L554 373.2"></path><path fill="none" stroke-linecap="butt" stroke-linejoin="round" stroke="#ffffff" stroke-width="2.5" id="outline__Europe" d="M322.5 373.4L329.9 373.4L337.4 373.4L344.9 373.4L352.3 373.4L359.8 373.4L367.3 373.4L374.7 373.4L382.2 373.4L389.7 373.4L397.2 373.4L404.6 373.4L412.1 373.4L419.6 373.4L427 373.4L434.5 373.4L442 373.4L449.4 373.4L456.9 373.4L464.4 373.4L471.8 373.4L479.3 373.4L486.8 373.4L494.2 373.4L501.7 373.4L509.2 373.4L516.7 373.4L524.1 373.4L531.6 373.4L539.1 373.4L546.5 373.4L554 373.4"></path><path fill="none" stroke-linecap="butt" stroke-linejoin="round" stroke="#e56e5a" stroke-width="1.5" id="line__Europe" d="M322.5 373.4L329.9 373.4L337.4 373.4L344.9 373.4L352.3 373.4L359.8 373.4L367.3 373.4L374.7 373.4L382.2 373.4L389.7 373.4L397.2 373.4L404.6 373.4L412.1 373.4L419.6 373.4L427 373.4L434.5 373.4L442 373.4L449.4 373.4L456.9 373.4L464.4 373.4L471.8 373.4L479.3 373.4L486.8 373.4L494.2 373.4L501.7 373.4L509.2 373.4L516.7 373.4L524.1 373.4L531.6 373.4L539.1 373.4L546.5 373.4L554 373.4"></path><path fill="none" stroke-linecap="butt" stroke-linejoin="round" stroke="#ffffff" stroke-width="2.5" id="outline__Asia" d="M322.5 294.6L329.9 294.3L337.4 294.4L344.9 294.5L352.3 294.6L359.8 294.7L367.3 295.4L374.7 297.3L382.2 299.7L389.7 301.9L397.2 303L404.6 303.5L412.1 304.6L419.6 306.1L427 307.6L434.5 308.8L442 310L449.4 311.8L456.9 313.8L464.4 315.8L471.8 317.2L479.3 318.6L486.8 320.4L494.2 322.4L501.7 324.5L509.2 326L516.7 327.3L524.1 328.8L531.6 329.8L539.1 329.6L546.5 325.6L554 326.7"></path><path fill="none" stroke-linecap="butt" stroke-linejoin="round" stroke="#893b5f" stroke-width="1.5" id="line__Asia" d="M322.5 294.6L329.9 294.3L337.4 294.4L344.9 294.5L352.3 294.6L359.8 294.7L367.3 295.4L374.7 297.3L382.2 299.7L389.7 301.9L397.2 303L404.6 303.5L412.1 304.6L419.6 306.1L427 307.6L434.5 308.8L442 310L449.4 311.8L456.9 313.8L464.4 315.8L471.8 317.2L479.3 318.6L486.8 320.4L494.2 322.4L501.7 324.5L509.2 326L516.7 327.3L524.1 328.8L531.6 329.8L539.1 329.6L546.5 325.6L554 326.7"></path><path fill="none" stroke-linecap="butt" stroke-linejoin="round" stroke="#ffffff" stroke-width="2.5" id="outline__Africa" d="M322.5 299.1L329.9 300.8L337.4 302.4L344.9 303.9L352.3 305.2L359.8 306.2L367.3 307.2L374.7 308.4L382.2 309.7L389.7 310.7L397.2 311.1L404.6 311L412.1 311.2L419.6 311.5L427 311.8L434.5 312.2L442 312.8L449.4 314L456.9 315.4L464.4 316.6L471.8 317.4L479.3 317.8L486.8 318.5L494.2 319.2L501.7 319.9L509.2 320.4L516.7 321.1L524.1 322.2L531.6 323.3L539.1 324.2L546.5 325.3L554 326.7"></path><path fill="none" stroke-linecap="butt" stroke-linejoin="round" stroke="#4c6a9c" stroke-width="1.5" id="line__Africa" d="M322.5 299.1L329.9 300.8L337.4 302.4L344.9 303.9L352.3 305.2L359.8 306.2L367.3 307.2L374.7 308.4L382.2 309.7L389.7 310.7L397.2 311.1L404.6 311L412.1 311.2L419.6 311.5L427 311.8L434.5 312.2L442 312.8L449.4 314L456.9 315.4L464.4 316.6L471.8 317.4L479.3 317.8L486.8 318.5L494.2 319.2L501.7 319.9L509.2 320.4L516.7 321.1L524.1 322.2L531.6 323.3L539.1 324.2L546.5 325.3L554 326.7"></path></g><g id="markers"></g></g></g></g><text x="599.4603125" y="281.01875" fill="#5b5b5b" font-size="14.625" style="font-weight:700">River blindness<title>River blindness</title></text><g class="LineChart"><defs><clipPath id="boundsClip-6"><rect x="589.4603125" y="278.33125" width="282" height="123"></rect></clipPath></defs><rect x="570" y="288.33125" width="262" height="103" fill-opacity="0"></rect><g id="horizontal-axis" class="HorizontalAxis"><g id="tick-marks"><line id="1990" x1="599.5" y1="372.8625" x2="599.5" y2="378.3625" stroke="#999" stroke-width="1"></line><line id="2021" x1="831" y1="372.8625" x2="831" y2="378.3625" stroke="#999" stroke-width="1"></line><line id="2000" x1="674.2" y1="372.8625" x2="674.2" y2="378.3625" stroke="#999" stroke-width="1"></line><line id="2005" x1="711.5" y1="372.8625" x2="711.5" y2="378.3625" stroke="#999" stroke-width="1"></line><line id="2010" x1="748.8" y1="372.8625" x2="748.8" y2="378.3625" stroke="#999" stroke-width="1"></line><line id="2015" x1="786.2" y1="372.8625" x2="786.2" y2="378.3625" stroke="#999" stroke-width="1"></line></g><g id="tick-labels"><text x="599.4603125" y="389.33125" fill="#5b5b5b" text-anchor="start" font-size="10.96875">1990</text><text x="831" y="389.33125" fill="#5b5b5b" text-anchor="end" font-size="10.96875">2021</text><text x="674.2" y="389.33125" fill="#5b5b5b" text-anchor="middle" font-size="10.96875">2000</text><text x="711.5" y="389.33125" fill="#5b5b5b" text-anchor="middle" font-size="10.96875">2005</text><text x="748.8" y="389.33125" fill="#5b5b5b" text-anchor="middle" font-size="10.96875">2010</text><text x="786.2" y="389.33125" fill="#5b5b5b" text-anchor="middle" font-size="10.96875">2015</text></g></g><g id="vertical-axis" class="VerticalAxis"><g id="tick-labels"><text x="594.46" y="373.4" dy=".32em" text-anchor="end" fill="#5b5b5b" font-size="10.96875">0</text><text x="594.46" y="342.7" dy=".32em" text-anchor="end" fill="#5b5b5b" font-size="10.96875">100k</text><text x="594.46" y="312" dy=".32em" text-anchor="end" fill="#5b5b5b" font-size="10.96875">200k</text></g></g><g id="horizontal-grid-lines" class="AxisGridLines horizontalLines"><line id="0" x1="599.46" y1="373.4" x2="831.00" y2="373.4" stroke="#999" stroke-width="1"></line><line id="100k" x1="599.46" y1="342.7" x2="831.00" y2="342.7" stroke="#ddd" stroke-width="1" stroke-dasharray="2,1"></line><line id="200k" x1="599.46" y1="312" x2="831.00" y2="312" stroke="#ddd" stroke-width="1" stroke-dasharray="2,1"></line></g><g clip-path="url(#boundsClip-6)"><g class="Lines"><rect x="599" y="294" width="232" height="79" fill="rgba(255,255,255,0)" opacity="0"></rect><g id="lines"><path fill="none" stroke-linecap="butt" stroke-linejoin="round" stroke="#ffffff" stroke-width="2.5" id="outline__South-America" d="M599.5 372.4L606.9 372.4L614.4 372.5L621.9 372.5L629.3 372.6L636.8 372.6L644.3 372.7L651.7 372.7L659.2 372.8L666.7 372.8L674.2 372.9L681.6 373L689.1 373L696.6 373.1L704 373.1L711.5 373.2L719 373.2L726.4 373.2L733.9 373.2L741.4 373.3L748.8 373.3L756.3 373.3L763.8 373.3L771.2 373.3L778.7 373.3L786.2 373.3L793.7 373.3L801.1 373.3L808.6 373.3L816.1 373.3L823.5 373.3L831 373.3"></path><path fill="none" stroke-linecap="butt" stroke-linejoin="round" stroke="#bc8e5a" stroke-width="1.5" id="line__South-America" d="M599.5 372.4L606.9 372.4L614.4 372.5L621.9 372.5L629.3 372.6L636.8 372.6L644.3 372.7L651.7 372.7L659.2 372.8L666.7 372.8L674.2 372.9L681.6 373L689.1 373L696.6 373.1L704 373.1L711.5 373.2L719 373.2L726.4 373.2L733.9 373.2L741.4 373.3L748.8 373.3L756.3 373.3L763.8 373.3L771.2 373.3L778.7 373.3L786.2 373.3L793.7 373.3L801.1 373.3L808.6 373.3L816.1 373.3L823.5 373.3L831 373.3"></path><path fill="none" stroke-linecap="butt" stroke-linejoin="round" stroke="#ffffff" stroke-width="2.5" id="outline__North-America" d="M599.5 372.3L606.9 372.4L614.4 372.4L621.9 372.5L629.3 372.5L636.8 372.6L644.3 372.7L651.7 372.8L659.2 372.9L666.7 373L674.2 373.1L681.6 373.1L689.1 373.2L696.6 373.2L704 373.3L711.5 373.3L719 373.3L726.4 373.3L733.9 373.4L741.4 373.4L748.8 373.4L756.3 373.4L763.8 373.4L771.2 373.4L778.7 373.4L786.2 373.4L793.7 373.4L801.1 373.4L808.6 373.4L816.1 373.4L823.5 373.4L831 373.4"></path><path fill="none" stroke-linecap="butt" stroke-linejoin="round" stroke="#38aaba" stroke-width="1.5" id="line__North-America" d="M599.5 372.3L606.9 372.4L614.4 372.4L621.9 372.5L629.3 372.5L636.8 372.6L644.3 372.7L651.7 372.8L659.2 372.9L666.7 373L674.2 373.1L681.6 373.1L689.1 373.2L696.6 373.2L704 373.3L711.5 373.3L719 373.3L726.4 373.3L733.9 373.4L741.4 373.4L748.8 373.4L756.3 373.4L763.8 373.4L771.2 373.4L778.7 373.4L786.2 373.4L793.7 373.4L801.1 373.4L808.6 373.4L816.1 373.4L823.5 373.4L831 373.4"></path><path fill="none" stroke-linecap="butt" stroke-linejoin="round" stroke="#ffffff" stroke-width="2.5" id="outline__Oceania" d="M599.5 373.4L606.9 373.4L614.4 373.4L621.9 373.4L629.3 373.4L636.8 373.4L644.3 373.4L651.7 373.4L659.2 373.4L666.7 373.4L674.2 373.4L681.6 373.4L689.1 373.4L696.6 373.4L704 373.4L711.5 373.4L719 373.4L726.4 373.4L733.9 373.4L741.4 373.4L748.8 373.4L756.3 373.4L763.8 373.4L771.2 373.4L778.7 373.4L786.2 373.4L793.7 373.4L801.1 373.4L808.6 373.4L816.1 373.4L823.5 373.4L831 373.4"></path><path fill="none" stroke-linecap="butt" stroke-linejoin="round" stroke="#00295b" stroke-width="1.5" id="line__Oceania" d="M599.5 373.4L606.9 373.4L614.4 373.4L621.9 373.4L629.3 373.4L636.8 373.4L644.3 373.4L651.7 373.4L659.2 373.4L666.7 373.4L674.2 373.4L681.6 373.4L689.1 373.4L696.6 373.4L704 373.4L711.5 373.4L719 373.4L726.4 373.4L733.9 373.4L741.4 373.4L748.8 373.4L756.3 373.4L763.8 373.4L771.2 373.4L778.7 373.4L786.2 373.4L793.7 373.4L801.1 373.4L808.6 373.4L816.1 373.4L823.5 373.4L831 373.4"></path><path fill="none" stroke-linecap="butt" stroke-linejoin="round" stroke="#ffffff" stroke-width="2.5" id="outline__Europe" d="M599.5 373.4L606.9 373.4L614.4 373.4L621.9 373.4L629.3 373.4L636.8 373.4L644.3 373.4L651.7 373.4L659.2 373.4L666.7 373.4L674.2 373.4L681.6 373.4L689.1 373.4L696.6 373.4L704 373.4L711.5 373.4L719 373.4L726.4 373.4L733.9 373.4L741.4 373.4L748.8 373.4L756.3 373.4L763.8 373.4L771.2 373.4L778.7 373.4L786.2 373.4L793.7 373.4L801.1 373.4L808.6 373.4L816.1 373.4L823.5 373.4L831 373.4"></path><path fill="none" stroke-linecap="butt" stroke-linejoin="round" stroke="#e56e5a" stroke-width="1.5" id="line__Europe" d="M599.5 373.4L606.9 373.4L614.4 373.4L621.9 373.4L629.3 373.4L636.8 373.4L644.3 373.4L651.7 373.4L659.2 373.4L666.7 373.4L674.2 373.4L681.6 373.4L689.1 373.4L696.6 373.4L704 373.4L711.5 373.4L719 373.4L726.4 373.4L733.9 373.4L741.4 373.4L748.8 373.4L756.3 373.4L763.8 373.4L771.2 373.4L778.7 373.4L786.2 373.4L793.7 373.4L801.1 373.4L808.6 373.4L816.1 373.4L823.5 373.4L831 373.4"></path><path fill="none" stroke-linecap="butt" stroke-linejoin="round" stroke="#ffffff" stroke-width="2.5" id="outline__Asia" d="M599.5 373.4L606.9 373.4L614.4 373.4L621.9 373.4L629.3 373.4L636.8 373.4L644.3 373.4L651.7 373.4L659.2 373.4L666.7 373.4L674.2 373.4L681.6 373.4L689.1 373.4L696.6 373.4L704 373.4L711.5 373.4L719 373.4L726.4 373.4L733.9 373.4L741.4 373.4L748.8 373.4L756.3 373.4L763.8 373.4L771.2 373.4L778.7 373.4L786.2 373.4L793.7 373.4L801.1 373.4L808.6 373.4L816.1 373.4L823.5 373.4L831 373.4"></path><path fill="none" stroke-linecap="butt" stroke-linejoin="round" stroke="#893b5f" stroke-width="1.5" id="line__Asia" d="M599.5 373.4L606.9 373.4L614.4 373.4L621.9 373.4L629.3 373.4L636.8 373.4L644.3 373.4L651.7 373.4L659.2 373.4L666.7 373.4L674.2 373.4L681.6 373.4L689.1 373.4L696.6 373.4L704 373.4L711.5 373.4L719 373.4L726.4 373.4L733.9 373.4L741.4 373.4L748.8 373.4L756.3 373.4L763.8 373.4L771.2 373.4L778.7 373.4L786.2 373.4L793.7 373.4L801.1 373.4L808.6 373.4L816.1 373.4L823.5 373.4L831 373.4"></path><path fill="none" stroke-linecap="butt" stroke-linejoin="round" stroke="#ffffff" stroke-width="2.5" id="outline__Africa" d="M599.5 294.3L606.9 299.6L614.4 304.6L621.9 309L629.3 312.6L636.8 314.9L644.3 316.5L651.7 318L659.2 319.2L666.7 320.1L674.2 320.4L681.6 320.3L689.1 319.9L696.6 319.4L704 318.8L711.5 318.3L719 318.6L726.4 320.4L733.9 322.7L741.4 324.7L748.8 325.5L756.3 324.9L763.8 324.2L771.2 323.2L778.7 322.3L786.2 321.5L793.7 321.1L801.1 321.1L808.6 321.1L816.1 320.8L823.5 320.2L831 320.3"></path><path fill="none" stroke-linecap="butt" stroke-linejoin="round" stroke="#4c6a9c" stroke-width="1.5" id="line__Africa" d="M599.5 294.3L606.9 299.6L614.4 304.6L621.9 309L629.3 312.6L636.8 314.9L644.3 316.5L651.7 318L659.2 319.2L666.7 320.1L674.2 320.4L681.6 320.3L689.1 319.9L696.6 319.4L704 318.8L711.5 318.3L719 318.6L726.4 320.4L733.9 322.7L741.4 324.7L748.8 325.5L756.3 324.9L763.8 324.2L771.2 323.2L778.7 322.3L786.2 321.5L793.7 321.1L801.1 321.1L808.6 321.1L816.1 320.8L823.5 320.2L831 320.3"></path></g><g id="markers"></g></g></g></g><text x="45.4603125" y="421.01875" fill="#5b5b5b" font-size="14.625" style="font-weight:700">Malaria<title>Malaria</title></text><g class="LineChart"><defs><clipPath id="boundsClip-7"><rect x="35.4603125" y="418.33125" width="282" height="123"></rect></clipPath></defs><rect x="16" y="428.33125" width="262" height="103" fill-opacity="0"></rect><g id="horizontal-axis" class="HorizontalAxis"><g id="tick-marks"><line id="1990" x1="45.5" y1="512.8625" x2="45.5" y2="518.3625" stroke="#999" stroke-width="1"></line><line id="2021" x1="277" y1="512.8625" x2="277" y2="518.3625" stroke="#999" stroke-width="1"></line><line id="2000" x1="120.2" y1="512.8625" x2="120.2" y2="518.3625" stroke="#999" stroke-width="1"></line><line id="2005" x1="157.5" y1="512.8625" x2="157.5" y2="518.3625" stroke="#999" stroke-width="1"></line><line id="2010" x1="194.8" y1="512.8625" x2="194.8" y2="518.3625" stroke="#999" stroke-width="1"></line><line id="2015" x1="232.2" y1="512.8625" x2="232.2" y2="518.3625" stroke="#999" stroke-width="1"></line></g><g id="tick-labels"><text x="45.4603125" y="529.33125" fill="#5b5b5b" text-anchor="start" font-size="10.96875">1990</text><text x="277" y="529.33125" fill="#5b5b5b" text-anchor="end" font-size="10.96875">2021</text><text x="120.2" y="529.33125" fill="#5b5b5b" text-anchor="middle" font-size="10.96875">2000</text><text x="157.5" y="529.33125" fill="#5b5b5b" text-anchor="middle" font-size="10.96875">2005</text><text x="194.8" y="529.33125" fill="#5b5b5b" text-anchor="middle" font-size="10.96875">2010</text><text x="232.2" y="529.33125" fill="#5b5b5b" text-anchor="middle" font-size="10.96875">2015</text></g></g><g id="vertical-axis" class="VerticalAxis"><g id="tick-labels"><text x="40.46" y="513.4" dy=".32em" text-anchor="end" fill="#5b5b5b" font-size="10.96875">0</text><text x="40.46" y="494.3" dy=".32em" text-anchor="end" fill="#5b5b5b" font-size="10.96875">20k</text><text x="40.46" y="475.2" dy=".32em" text-anchor="end" fill="#5b5b5b" font-size="10.96875">40k</text><text x="40.46" y="456.1" dy=".32em" text-anchor="end" fill="#5b5b5b" font-size="10.96875">60k</text><text x="40.46" y="437" dy=".32em" text-anchor="end" fill="#5b5b5b" font-size="10.96875">80k</text></g></g><g id="horizontal-grid-lines" class="AxisGridLines horizontalLines"><line id="0" x1="45.46" y1="513.4" x2="277.00" y2="513.4" stroke="#999" stroke-width="1"></line><line id="20k" x1="45.46" y1="494.3" x2="277.00" y2="494.3" stroke="#ddd" stroke-width="1" stroke-dasharray="2,1"></line><line id="40k" x1="45.46" y1="475.2" x2="277.00" y2="475.2" stroke="#ddd" stroke-width="1" stroke-dasharray="2,1"></line><line id="60k" x1="45.46" y1="456.1" x2="277.00" y2="456.1" stroke="#ddd" stroke-width="1" stroke-dasharray="2,1"></line><line id="80k" x1="45.46" y1="437" x2="277.00" y2="437" stroke="#ddd" stroke-width="1" stroke-dasharray="2,1"></line></g><g clip-path="url(#boundsClip-7)"><g class="Lines"><rect x="45" y="434" width="232" height="79" fill="rgba(255,255,255,0)" opacity="0"></rect><g id="lines"><path fill="none" stroke-linecap="butt" stroke-linejoin="round" stroke="#ffffff" stroke-width="2.5" id="outline__South-America" d="M45.5 512.7L52.9 512.7L60.4 512.8L67.9 512.8L75.3 512.9L82.8 512.9L90.3 512.9L97.7 512.8L105.2 512.8L112.7 512.7L120.2 512.7L127.6 512.7L135.1 512.7L142.6 512.7L150 512.7L157.5 512.7L165 512.8L172.4 512.8L179.9 512.9L187.4 513L194.8 513L202.3 513L209.8 513L217.2 513L224.7 513L232.2 513L239.7 513L247.1 513L254.6 513L262.1 513L269.5 513.1L277 513.1"></path><path fill="none" stroke-linecap="butt" stroke-linejoin="round" stroke="#bc8e5a" stroke-width="1.5" id="line__South-America" d="M45.5 512.7L52.9 512.7L60.4 512.8L67.9 512.8L75.3 512.9L82.8 512.9L90.3 512.9L97.7 512.8L105.2 512.8L112.7 512.7L120.2 512.7L127.6 512.7L135.1 512.7L142.6 512.7L150 512.7L157.5 512.7L165 512.8L172.4 512.8L179.9 512.9L187.4 513L194.8 513L202.3 513L209.8 513L217.2 513L224.7 513L232.2 513L239.7 513L247.1 513L254.6 513L262.1 513L269.5 513.1L277 513.1"></path><path fill="none" stroke-linecap="butt" stroke-linejoin="round" stroke="#ffffff" stroke-width="2.5" id="outline__North-America" d="M45.5 513.3L52.9 513.3L60.4 513.3L67.9 513.3L75.3 513.3L82.8 513.3L90.3 513.3L97.7 513.3L105.2 513.3L112.7 513.3L120.2 513.3L127.6 513.3L135.1 513.3L142.6 513.3L150 513.3L157.5 513.3L165 513.3L172.4 513.3L179.9 513.3L187.4 513.3L194.8 513.3L202.3 513.3L209.8 513.3L217.2 513.3L224.7 513.3L232.2 513.3L239.7 513.3L247.1 513.3L254.6 513.3L262.1 513.3L269.5 513.3L277 513.3"></path><path fill="none" stroke-linecap="butt" stroke-linejoin="round" stroke="#38aaba" stroke-width="1.5" id="line__North-America" d="M45.5 513.3L52.9 513.3L60.4 513.3L67.9 513.3L75.3 513.3L82.8 513.3L90.3 513.3L97.7 513.3L105.2 513.3L112.7 513.3L120.2 513.3L127.6 513.3L135.1 513.3L142.6 513.3L150 513.3L157.5 513.3L165 513.3L172.4 513.3L179.9 513.3L187.4 513.3L194.8 513.3L202.3 513.3L209.8 513.3L217.2 513.3L224.7 513.3L232.2 513.3L239.7 513.3L247.1 513.3L254.6 513.3L262.1 513.3L269.5 513.3L277 513.3"></path><path fill="none" stroke-linecap="butt" stroke-linejoin="round" stroke="#ffffff" stroke-width="2.5" id="outline__Oceania" d="M45.5 513.3L52.9 513.3L60.4 513.3L67.9 513.3L75.3 513.3L82.8 513.3L90.3 513.3L97.7 513.3L105.2 513.3L112.7 513.3L120.2 513.3L127.6 513.3L135.1 513.3L142.6 513.3L150 513.3L157.5 513.3L165 513.3L172.4 513.3L179.9 513.3L187.4 513.3L194.8 513.3L202.3 513.3L209.8 513.3L217.2 513.3L224.7 513.2L232.2 513.2L239.7 513.2L247.1 513.2L254.6 513.2L262.1 513.2L269.5 513.2L277 513.2"></path><path fill="none" stroke-linecap="butt" stroke-linejoin="round" stroke="#00295b" stroke-width="1.5" id="line__Oceania" d="M45.5 513.3L52.9 513.3L60.4 513.3L67.9 513.3L75.3 513.3L82.8 513.3L90.3 513.3L97.7 513.3L105.2 513.3L112.7 513.3L120.2 513.3L127.6 513.3L135.1 513.3L142.6 513.3L150 513.3L157.5 513.3L165 513.3L172.4 513.3L179.9 513.3L187.4 513.3L194.8 513.3L202.3 513.3L209.8 513.3L217.2 513.3L224.7 513.2L232.2 513.2L239.7 513.2L247.1 513.2L254.6 513.2L262.1 513.2L269.5 513.2L277 513.2"></path><path fill="none" stroke-linecap="butt" stroke-linejoin="round" stroke="#ffffff" stroke-width="2.5" id="outline__Europe" d="M45.5 513.4L52.9 513.4L60.4 513.4L67.9 513.4L75.3 513.4L82.8 513.4L90.3 513.4L97.7 513.4L105.2 513.4L112.7 513.4L120.2 513.4L127.6 513.4L135.1 513.4L142.6 513.4L150 513.4L157.5 513.4L165 513.4L172.4 513.4L179.9 513.4L187.4 513.4L194.8 513.4L202.3 513.4L209.8 513.4L217.2 513.4L224.7 513.4L232.2 513.4L239.7 513.4L247.1 513.4L254.6 513.4L262.1 513.4L269.5 513.4L277 513.4"></path><path fill="none" stroke-linecap="butt" stroke-linejoin="round" stroke="#e56e5a" stroke-width="1.5" id="line__Europe" d="M45.5 513.4L52.9 513.4L60.4 513.4L67.9 513.4L75.3 513.4L82.8 513.4L90.3 513.4L97.7 513.4L105.2 513.4L112.7 513.4L120.2 513.4L127.6 513.4L135.1 513.4L142.6 513.4L150 513.4L157.5 513.4L165 513.4L172.4 513.4L179.9 513.4L187.4 513.4L194.8 513.4L202.3 513.4L209.8 513.4L217.2 513.4L224.7 513.4L232.2 513.4L239.7 513.4L247.1 513.4L254.6 513.4L262.1 513.4L269.5 513.4L277 513.4"></path><path fill="none" stroke-linecap="butt" stroke-linejoin="round" stroke="#ffffff" stroke-width="2.5" id="outline__Asia" d="M45.5 508.4L52.9 508.3L60.4 508.2L67.9 508.2L75.3 508.1L82.8 508L90.3 508L97.7 508.1L105.2 508.3L112.7 508.5L120.2 508.6L127.6 508.7L135.1 508.8L142.6 508.9L150 509L157.5 509.1L165 509L172.4 509L179.9 509L187.4 509L194.8 508.9L202.3 509L209.8 509.1L217.2 509.2L224.7 509.4L232.2 509.4L239.7 509.6L247.1 509.9L254.6 510.2L262.1 510.4L269.5 510.5L277 510.5"></path><path fill="none" stroke-linecap="butt" stroke-linejoin="round" stroke="#893b5f" stroke-width="1.5" id="line__Asia" d="M45.5 508.4L52.9 508.3L60.4 508.2L67.9 508.2L75.3 508.1L82.8 508L90.3 508L97.7 508.1L105.2 508.3L112.7 508.5L120.2 508.6L127.6 508.7L135.1 508.8L142.6 508.9L150 509L157.5 509.1L165 509L172.4 509L179.9 509L187.4 509L194.8 508.9L202.3 509L209.8 509.1L217.2 509.2L224.7 509.4L232.2 509.4L239.7 509.6L247.1 509.9L254.6 510.2L262.1 510.4L269.5 510.5L277 510.5"></path><path fill="none" stroke-linecap="butt" stroke-linejoin="round" stroke="#ffffff" stroke-width="2.5" id="outline__Africa" d="M45.5 471.7L52.9 470.4L60.4 469.1L67.9 467.7L75.3 466.5L82.8 465.1L90.3 463.8L97.7 462.7L105.2 461.6L112.7 460.4L120.2 459.1L127.6 457.5L135.1 455.9L142.6 454.2L150 452.5L157.5 450.9L165 449.6L172.4 448.6L179.9 447.7L187.4 447L194.8 446.1L202.3 445.5L209.8 445.3L217.2 445.2L224.7 444.9L232.2 444.2L239.7 443.2L247.1 442.1L254.6 440.8L262.1 439L269.5 436.5L277 434.3"></path><path fill="none" stroke-linecap="butt" stroke-linejoin="round" stroke="#4c6a9c" stroke-width="1.5" id="line__Africa" d="M45.5 471.7L52.9 470.4L60.4 469.1L67.9 467.7L75.3 466.5L82.8 465.1L90.3 463.8L97.7 462.7L105.2 461.6L112.7 460.4L120.2 459.1L127.6 457.5L135.1 455.9L142.6 454.2L150 452.5L157.5 450.9L165 449.6L172.4 448.6L179.9 447.7L187.4 447L194.8 446.1L202.3 445.5L209.8 445.3L217.2 445.2L224.7 444.9L232.2 444.2L239.7 443.2L247.1 442.1L254.6 440.8L262.1 439L269.5 436.5L277 434.3"></path></g><g id="markers"></g></g></g></g><text x="322.4603125" y="421.01875" fill="#5b5b5b" font-size="14.625" style="font-weight:700">All other causes<title>All other causes</title></text><g class="LineChart"><defs><clipPath id="boundsClip-8"><rect x="312.4603125" y="418.33125" width="282" height="123"></rect></clipPath></defs><rect x="293" y="428.33125" width="262" height="103" fill-opacity="0"></rect><g id="horizontal-axis" class="HorizontalAxis"><g id="tick-marks"><line id="1990" x1="322.5" y1="512.8625" x2="322.5" y2="518.3625" stroke="#999" stroke-width="1"></line><line id="2021" x1="554" y1="512.8625" x2="554" y2="518.3625" stroke="#999" stroke-width="1"></line><line id="2000" x1="397.2" y1="512.8625" x2="397.2" y2="518.3625" stroke="#999" stroke-width="1"></line><line id="2005" x1="434.5" y1="512.8625" x2="434.5" y2="518.3625" stroke="#999" stroke-width="1"></line><line id="2010" x1="471.8" y1="512.8625" x2="471.8" y2="518.3625" stroke="#999" stroke-width="1"></line><line id="2015" x1="509.2" y1="512.8625" x2="509.2" y2="518.3625" stroke="#999" stroke-width="1"></line></g><g id="tick-labels"><text x="322.4603125" y="529.33125" fill="#5b5b5b" text-anchor="start" font-size="10.96875">1990</text><text x="554" y="529.33125" fill="#5b5b5b" text-anchor="end" font-size="10.96875">2021</text><text x="397.2" y="529.33125" fill="#5b5b5b" text-anchor="middle" font-size="10.96875">2000</text><text x="434.5" y="529.33125" fill="#5b5b5b" text-anchor="middle" font-size="10.96875">2005</text><text x="471.8" y="529.33125" fill="#5b5b5b" text-anchor="middle" font-size="10.96875">2010</text><text x="509.2" y="529.33125" fill="#5b5b5b" text-anchor="middle" font-size="10.96875">2015</text></g></g><g id="vertical-axis" class="VerticalAxis"><g id="tick-labels"><text x="317.46" y="513.4" dy=".32em" text-anchor="end" fill="#5b5b5b" font-size="10.96875">0</text><text x="317.46" y="485.1" dy=".32em" text-anchor="end" fill="#5b5b5b" font-size="10.96875">2M</text><text x="317.46" y="456.9" dy=".32em" text-anchor="end" fill="#5b5b5b" font-size="10.96875">4M</text></g></g><g id="horizontal-grid-lines" class="AxisGridLines horizontalLines"><line id="0" x1="322.46" y1="513.4" x2="554.00" y2="513.4" stroke="#999" stroke-width="1"></line><line id="2M" x1="322.46" y1="485.1" x2="554.00" y2="485.1" stroke="#ddd" stroke-width="1" stroke-dasharray="2,1"></line><line id="4M" x1="322.46" y1="456.9" x2="554.00" y2="456.9" stroke="#ddd" stroke-width="1" stroke-dasharray="2,1"></line></g><g clip-path="url(#boundsClip-8)"><g class="Lines"><rect x="322" y="434" width="232" height="79" fill="rgba(255,255,255,0)" opacity="0"></rect><g id="lines"><path fill="none" stroke-linecap="butt" stroke-linejoin="round" stroke="#ffffff" stroke-width="2.5" id="outline__South-America" d="M322.5 505.6L329.9 505.6L337.4 505.6L344.9 505.6L352.3 505.6L359.8 505.5L367.3 505.4L374.7 505.3L382.2 505.2L389.7 505L397.2 504.8L404.6 504.5L412.1 504.3L419.6 504L427 503.7L434.5 503.4L442 503.2L449.4 503.1L456.9 502.9L464.4 502.8L471.8 502.6L479.3 502.3L486.8 501.9L494.2 501.5L501.7 501.1L509.2 500.8L516.7 500.5L524.1 500.2L531.6 499.9L539.1 499.5L546.5 499.4L554 499.2"></path><path fill="none" stroke-linecap="butt" stroke-linejoin="round" stroke="#bc8e5a" stroke-width="1.5" id="line__South-America" d="M322.5 505.6L329.9 505.6L337.4 505.6L344.9 505.6L352.3 505.6L359.8 505.5L367.3 505.4L374.7 505.3L382.2 505.2L389.7 505L397.2 504.8L404.6 504.5L412.1 504.3L419.6 504L427 503.7L434.5 503.4L442 503.2L449.4 503.1L456.9 502.9L464.4 502.8L471.8 502.6L479.3 502.3L486.8 501.9L494.2 501.5L501.7 501.1L509.2 500.8L516.7 500.5L524.1 500.2L531.6 499.9L539.1 499.5L546.5 499.4L554 499.2"></path><path fill="none" stroke-linecap="butt" stroke-linejoin="round" stroke="#ffffff" stroke-width="2.5" id="outline__North-America" d="M322.5 509.1L329.9 509.1L337.4 509L344.9 509L352.3 509L359.8 508.9L367.3 508.9L374.7 508.9L382.2 508.8L389.7 508.8L397.2 508.7L404.6 508.7L412.1 508.6L419.6 508.5L427 508.5L434.5 508.4L442 508.3L449.4 508.3L456.9 508.2L464.4 508.1L471.8 508L479.3 507.9L486.8 507.8L494.2 507.6L501.7 507.5L509.2 507.4L516.7 507.3L524.1 507.1L531.6 507L539.1 506.9L546.5 506.8L554 506.7"></path><path fill="none" stroke-linecap="butt" stroke-linejoin="round" stroke="#38aaba" stroke-width="1.5" id="line__North-America" d="M322.5 509.1L329.9 509.1L337.4 509L344.9 509L352.3 509L359.8 508.9L367.3 508.9L374.7 508.9L382.2 508.8L389.7 508.8L397.2 508.7L404.6 508.7L412.1 508.6L419.6 508.5L427 508.5L434.5 508.4L442 508.3L449.4 508.3L456.9 508.2L464.4 508.1L471.8 508L479.3 507.9L486.8 507.8L494.2 507.6L501.7 507.5L509.2 507.4L516.7 507.3L524.1 507.1L531.6 507L539.1 506.9L546.5 506.8L554 506.7"></path><path fill="none" stroke-linecap="butt" stroke-linejoin="round" stroke="#ffffff" stroke-width="2.5" id="outline__Oceania" d="M322.5 513.2L329.9 513.2L337.4 513.2L344.9 513.2L352.3 513.2L359.8 513.2L367.3 513.2L374.7 513.2L382.2 513.2L389.7 513.2L397.2 513.2L404.6 513.2L412.1 513.2L419.6 513.2L427 513.2L434.5 513.2L442 513.2L449.4 513.2L456.9 513.1L464.4 513.1L471.8 513.1L479.3 513.1L486.8 513.1L494.2 513.1L501.7 513.1L509.2 513.1L516.7 513.1L524.1 513.1L531.6 513.1L539.1 513.1L546.5 513.1L554 513.1"></path><path fill="none" stroke-linecap="butt" stroke-linejoin="round" stroke="#00295b" stroke-width="1.5" id="line__Oceania" d="M322.5 513.2L329.9 513.2L337.4 513.2L344.9 513.2L352.3 513.2L359.8 513.2L367.3 513.2L374.7 513.2L382.2 513.2L389.7 513.2L397.2 513.2L404.6 513.2L412.1 513.2L419.6 513.2L427 513.2L434.5 513.2L442 513.2L449.4 513.2L456.9 513.1L464.4 513.1L471.8 513.1L479.3 513.1L486.8 513.1L494.2 513.1L501.7 513.1L509.2 513.1L516.7 513.1L524.1 513.1L531.6 513.1L539.1 513.1L546.5 513.1L554 513.1"></path><path fill="none" stroke-linecap="butt" stroke-linejoin="round" stroke="#ffffff" stroke-width="2.5" id="outline__Europe" d="M322.5 502L329.9 502L337.4 502.1L344.9 502.1L352.3 502.1L359.8 502.2L367.3 502.2L374.7 502.2L382.2 502.2L389.7 502.2L397.2 502.2L404.6 502.2L412.1 502.3L419.6 502.4L427 502.6L434.5 502.6L442 502.7L449.4 502.8L456.9 502.9L464.4 502.9L471.8 503L479.3 503L486.8 502.9L494.2 502.9L501.7 502.9L509.2 502.9L516.7 502.8L524.1 502.8L531.6 502.8L539.1 502.8L546.5 502.7L554 502.7"></path><path fill="none" stroke-linecap="butt" stroke-linejoin="round" stroke="#e56e5a" stroke-width="1.5" id="line__Europe" d="M322.5 502L329.9 502L337.4 502.1L344.9 502.1L352.3 502.1L359.8 502.2L367.3 502.2L374.7 502.2L382.2 502.2L389.7 502.2L397.2 502.2L404.6 502.2L412.1 502.3L419.6 502.4L427 502.6L434.5 502.6L442 502.7L449.4 502.8L456.9 502.9L464.4 502.9L471.8 503L479.3 503L486.8 502.9L494.2 502.9L501.7 502.9L509.2 502.9L516.7 502.8L524.1 502.8L531.6 502.8L539.1 502.8L546.5 502.7L554 502.7"></path><path fill="none" stroke-linecap="butt" stroke-linejoin="round" stroke="#ffffff" stroke-width="2.5" id="outline__Asia" d="M322.5 467.9L329.9 467.2L337.4 466.4L344.9 465.6L352.3 464.8L359.8 463.9L367.3 462.9L374.7 461.7L382.2 460.5L389.7 459.3L397.2 458.2L404.6 457.4L412.1 456.8L419.6 456.2L427 455.6L434.5 455L442 454.3L449.4 453.7L456.9 453.1L464.4 452.4L471.8 451.6L479.3 450.7L486.8 449.9L494.2 449L501.7 448L509.2 446.7L516.7 444.9L524.1 442.9L531.6 440.6L539.1 438.1L546.5 434.5L554 434.3"></path><path fill="none" stroke-linecap="butt" stroke-linejoin="round" stroke="#893b5f" stroke-width="1.5" id="line__Asia" d="M322.5 467.9L329.9 467.2L337.4 466.4L344.9 465.6L352.3 464.8L359.8 463.9L367.3 462.9L374.7 461.7L382.2 460.5L389.7 459.3L397.2 458.2L404.6 457.4L412.1 456.8L419.6 456.2L427 455.6L434.5 455L442 454.3L449.4 453.7L456.9 453.1L464.4 452.4L471.8 451.6L479.3 450.7L486.8 449.9L494.2 449L501.7 448L509.2 446.7L516.7 444.9L524.1 442.9L531.6 440.6L539.1 438.1L546.5 434.5L554 434.3"></path><path fill="none" stroke-linecap="butt" stroke-linejoin="round" stroke="#ffffff" stroke-width="2.5" id="outline__Africa" d="M322.5 509.9L329.9 509.3L337.4 508.7L344.9 508.1L352.3 507.5L359.8 507.1L367.3 506.6L374.7 506.2L382.2 505.7L389.7 505.3L397.2 505L404.6 504.7L412.1 504.4L419.6 504.2L427 503.9L434.5 503.6L442 503.3L449.4 502.9L456.9 502.6L464.4 502.2L471.8 501.8L479.3 501.5L486.8 501.1L494.2 500.8L501.7 500.4L509.2 500.1L516.7 499.8L524.1 499.5L531.6 499.2L539.1 498.8L546.5 498.5L554 498.2"></path><path fill="none" stroke-linecap="butt" stroke-linejoin="round" stroke="#4c6a9c" stroke-width="1.5" id="line__Africa" d="M322.5 509.9L329.9 509.3L337.4 508.7L344.9 508.1L352.3 507.5L359.8 507.1L367.3 506.6L374.7 506.2L382.2 505.7L389.7 505.3L397.2 505L404.6 504.7L412.1 504.4L419.6 504.2L427 503.9L434.5 503.6L442 503.3L449.4 502.9L456.9 502.6L464.4 502.2L471.8 501.8L479.3 501.5L486.8 501.1L494.2 500.8L501.7 500.4L509.2 500.1L516.7 499.8L524.1 499.5L531.6 499.2L539.1 498.8L546.5 498.5L554 498.2"></path></g><g id="markers"></g></g></g></g></g><g id="footer" class="SourcesFooter" style="fill:#5b5b5b"><g id="sources" class="markdown-text-wrap"><text x="16.0" y="562.7" style="font-size:13.5px;line-height:1.2"><tspan x="16" y="562.7"><tspan style="font-weight:700">Data source:</tspan> IHME, Global Burden of Disease (2024)</tspan></text></g><g id="note" class="markdown-text-wrap"><text x="16.0" y="580.9" style="font-size:13.5px;line-height:1.2"><tspan x="16" y="580.9"><tspan style="font-weight:700">Note:</tspan> &#x27;All other causes&#x27; includes vitamin A deficiency, premature retinopathy, and others.</tspan></text></g><text id="origin-url" font-size="13.50" x="492.7" y="562.7"><tspan x="492.71999999999997" y="562.695"><a target="_blank" style="fill: #5b5b5b;" href="https://ourworldindata.org/neglected-tropical-diseases">OurWorldinData.org/neglected-tropical-diseases</a> | <a target="_blank" style="fill: #5b5b5b;" href="https://creativecommons.org/licenses/by/4.0/">CC BY</a></tspan></text></g></svg>