<svg xmlns="http://www.w3.org/2000/svg" version="1.1" style="font-family:Lato, &#x27;Helvetica Neue&#x27;, Helvetica, Arial, sans-serif;font-size:18px;background-color:white;text-rendering:geometricPrecision;-webkit-font-smoothing:antialiased" width="850" height="600" viewBox="0 0 850 600"><g class="HeaderView"><g transform="translate(774, 15) scale(0.29)"><svg className="owidLog" width="210" height="120" viewBox="0 0 210 120" fill="none" xmlns="http://www.w3.org/2000/svg">
<g clip-path="url(#clip0)">
  <path d="M0 0h210v107.89H0V0z" fill="#002147" />
  <path
    d="M40.98 32.25c0 2.36-.38 4.53-1.12 6.51a14.26 14.26 0 0 1-8.1 8.4c-1.9.78-4.02 1.17-6.34 1.17-2.31 0-4.42-.39-6.33-1.17a14.31 14.31 0 0 1-8.08-8.4 18.29 18.29 0 0 1-1.12-6.51c0-2.36.38-4.53 1.12-6.5.75-1.97 1.8-3.67 3.17-5.1a14.32 14.32 0 0 1 4.9-3.34c1.92-.8 4.03-1.19 6.34-1.19 2.32 0 4.43.4 6.34 1.19 1.92.8 3.56 1.9 4.93 3.34a14.87 14.87 0 0 1 3.17 5.1 18.1 18.1 0 0 1 1.12 6.5zm-4.38 0c0-1.94-.26-3.68-.8-5.22a10.91 10.91 0 0 0-2.24-3.89 9.68 9.68 0 0 0-3.52-2.46 11.95 11.95 0 0 0-4.62-.86c-1.68 0-3.21.28-4.6.86a9.88 9.88 0 0 0-3.54 2.46 10.91 10.91 0 0 0-2.24 3.9c-.53 1.53-.8 3.27-.8 5.2 0 1.94.27 3.68.8 5.22a11.17 11.17 0 0 0 2.24 3.9 10.01 10.01 0 0 0 3.55 2.44c1.38.56 2.9.83 4.6.83s3.24-.27 4.61-.83a9.8 9.8 0 0 0 3.52-2.44 11.17 11.17 0 0 0 2.25-3.9c.53-1.54.8-3.28.8-5.21zm26.22-6.54V48H60.5c-.56 0-.9-.27-1.05-.81l-.31-2.4a12.45 12.45 0 0 1-3.26 2.6c-1.2.64-2.58.96-4.13.96-1.22 0-2.3-.2-3.24-.6a6.52 6.52 0 0 1-2.33-1.7 7.37 7.37 0 0 1-1.43-2.67c-.3-1.04-.46-2.2-.46-3.45V25.7h3.91v14.22c0 1.68.38 2.99 1.15 3.91.77.93 1.96 1.39 3.54 1.39 1.16 0 2.24-.27 3.23-.82a10.42 10.42 0 0 0 2.8-2.28V25.7h3.91zm8.61 4.47a9.94 9.94 0 0 1 2.6-3.56 5.64 5.64 0 0 1 3.76-1.3c.47 0 .92.05 1.34.15.44.1.83.27 1.17.49l-.3 2.92c-.09.37-.3.55-.66.55-.2 0-.5-.04-.9-.13a6.21 6.21 0 0 0-3.24.18 4.23 4.23 0 0 0-1.47.92c-.42.4-.81.9-1.17 1.5-.33.58-.64 1.26-.92 2.02V48H67.7V25.71h2.25c.42 0 .72.08.88.25.16.16.27.44.33.83l.26 3.39zm61.16-13.7L122.75 48h-3.82l-7.99-24.05a21.95 21.95 0 0 1-.42-1.58 38.36 38.36 0 0 1-.44 1.58L102.05 48h-3.83L88.4 16.47h3.54c.38 0 .7.1.95.29.26.2.43.43.5.73l6.52 21.9.28 1.28.29 1.46.3-1.46.38-1.27 7.41-21.91c.1-.25.26-.48.51-.69.27-.22.58-.33.95-.33h1.23c.38 0 .69.1.92.29a1.77 1.77 0 0 1 .53.73l7.4 21.9a28.4 28.4 0 0 1 .68 2.62 29.52 29.52 0 0 1 .52-2.61l6.54-21.91a1.31 1.31 0 0 1 .48-.7c.27-.21.58-.32.95-.32h3.32zm9.35 8.88c1.63 0 3.1.27 4.4.82a9.43 9.43 0 0 1 5.46 5.94c.5 1.4.74 2.98.74 4.73 0 1.76-.25 3.34-.74 4.75a9.43 9.43 0 0 1-5.46 5.92c-1.3.52-2.77.79-4.4.79-1.64 0-3.12-.27-4.44-.8a9.42 9.42 0 0 1-3.35-2.3c-.92-1-1.63-2.2-2.13-3.61-.49-1.41-.73-3-.73-4.75s.24-3.33.73-4.73c.5-1.43 1.2-2.64 2.13-3.63.93-1 2.04-1.77 3.35-2.31 1.32-.55 2.8-.82 4.44-.82zm0 19.89c2.2 0 3.84-.73 4.93-2.2 1.08-1.48 1.63-3.54 1.63-6.18 0-2.66-.55-4.72-1.63-6.2-1.09-1.49-2.73-2.23-4.93-2.23-1.12 0-2.09.2-2.93.57a5.71 5.71 0 0 0-2.06 1.65c-.55.72-.96 1.61-1.24 2.67-.26 1.04-.4 2.22-.4 3.54 0 2.64.55 4.7 1.64 6.18 1.1 1.47 2.76 2.2 4.99 2.2zm17.97-15.07a9.94 9.94 0 0 1 2.6-3.56 5.64 5.64 0 0 1 3.76-1.3c.47 0 .91.05 1.34.15.44.1.83.27 1.16.49l-.28 2.92c-.09.37-.31.55-.66.55-.2 0-.5-.04-.9-.13a6.2 6.2 0 0 0-3.24.18 4.23 4.23 0 0 0-1.47.92c-.43.4-.82.9-1.17 1.5a13.1 13.1 0 0 0-.92 2.02V48h-3.94V25.71h2.24c.43 0 .72.08.88.25.17.16.28.44.33.83l.27 3.39zm15.04-14.59V48h-3.92V15.6h3.92zm19.55 15.43a6.22 6.22 0 0 0-2.38-2.05 6.7 6.7 0 0 0-2.86-.6c-2.07 0-3.66.75-4.77 2.23-1.12 1.48-1.68 3.6-1.68 6.33 0 1.46.13 2.7.38 3.74a7.29 7.29 0 0 0 1.1 2.56 4.35 4.35 0 0 0 1.78 1.45c.7.3 1.5.46 2.4.46 1.29 0 2.41-.3 3.36-.88a9.6 9.6 0 0 0 2.67-2.49V31.02zm3.91-15.43V48h-2.33c-.56 0-.9-.27-1.06-.81l-.35-2.71a12.13 12.13 0 0 1-3.25 2.77 8.28 8.28 0 0 1-4.23 1.06 7.31 7.31 0 0 1-6.14-2.9c-.73-.96-1.3-2.15-1.69-3.57a18.35 18.35 0 0 1 .07-9.48 11.29 11.29 0 0 1 1.89-3.7 8.7 8.7 0 0 1 7.06-3.34 7.96 7.96 0 0 1 6.12 2.62V15.59h3.91zM46.61 70.71V93H42.7V70.71h3.91zm.84-7c0 .39-.08.75-.24 1.09-.15.32-.35.61-.62.88-.25.25-.55.44-.9.59a2.67 2.67 0 0 1-2.16 0 2.9 2.9 0 0 1-1.45-1.47 2.67 2.67 0 0 1 0-2.16c.15-.35.35-.65.6-.9.25-.27.53-.47.85-.62a2.67 2.67 0 0 1 2.16 0c.35.15.65.35.9.62.27.25.47.55.62.9.16.34.24.7.24 1.08zm7.97 10.24c.49-.54 1-1.04 1.54-1.48a9.85 9.85 0 0 1 3.66-1.84 8.96 8.96 0 0 1 5.43.35c.94.4 1.72.97 2.33 1.71.63.74 1.11 1.62 1.43 2.67.32 1.04.49 2.19.49 3.45V93h-3.94V78.81c0-1.69-.4-3-1.17-3.92-.76-.93-1.93-1.4-3.5-1.4-1.15 0-2.24.27-3.25.83-1 .56-1.92 1.31-2.77 2.27V93h-3.94V70.71h2.35c.56 0 .9.28 1.04.82l.3 2.42zm57.7 3.3c0 2.36-.37 4.5-1.11 6.44a14.3 14.3 0 0 1-3.17 4.98c-1.37 1.37-3 2.45-4.93 3.2-1.9.76-4.02 1.13-6.33 1.13H85.8V61.47h11.77c2.31 0 4.42.39 6.33 1.15a13.8 13.8 0 0 1 8.1 8.18 17.75 17.75 0 0 1 1.12 6.45zm-4.37 0c0-1.94-.26-3.67-.8-5.2a10.94 10.94 0 0 0-2.23-3.87 9.57 9.57 0 0 0-3.53-2.42 12.23 12.23 0 0 0-4.61-.83h-7.5v24.62h7.5c1.7 0 3.24-.28 4.61-.84a9.7 9.7 0 0 0 3.53-2.4 10.94 10.94 0 0 0 2.24-3.87c.53-1.53.8-3.26.8-5.2zm19.8 5.72c-1.8.06-3.34.2-4.62.44-1.26.22-2.3.51-3.1.88-.8.36-1.37.8-1.74 1.3-.35.5-.53 1.05-.53 1.67 0 .58.1 1.1.3 1.52a3 3 0 0 0 .76 1.05c.34.27.73.46 1.17.6a6.13 6.13 0 0 0 1.45.17 7.28 7.28 0 0 0 3.5-.81 11.95 11.95 0 0 0 2.82-2.2v-4.62zm-12.65-9.11a12.73 12.73 0 0 1 3.98-2.66c1.43-.59 3-.88 4.73-.88 1.25 0 2.36.2 3.33.61a6.81 6.81 0 0 1 3.94 4.38c.33 1.04.5 2.19.5 3.43V93h-1.74a1.8 1.8 0 0 1-.88-.18c-.2-.13-.36-.38-.48-.74l-.44-2.12-1.72 1.46a9.48 9.48 0 0 1-3.74 1.7c-.69.15-1.46.23-2.3.23-.87 0-1.69-.12-2.45-.35a5.34 5.34 0 0 1-3.34-2.93 6.64 6.64 0 0 1-.49-2.64c0-.88.25-1.72.73-2.53a6.33 6.33 0 0 1 2.35-2.17c1.09-.63 2.5-1.15 4.25-1.54 1.75-.41 3.89-.65 6.42-.7v-1.75c0-1.73-.37-3.03-1.12-3.91-.75-.9-1.84-1.34-3.28-1.34-.97 0-1.78.12-2.44.37-.64.23-1.2.5-1.7.81l-1.23.82c-.33.23-.67.35-1 .35-.27 0-.5-.07-.69-.2a2.1 2.1 0 0 1-.48-.53l-.7-1.25zm27.67 19.5c-1.76 0-3.12-.5-4.07-1.48-.94-.98-1.41-2.4-1.41-4.25V74h-2.68a.9.9 0 0 1-.6-.2c-.16-.14-.24-.36-.24-.66v-1.56l3.65-.46.9-6.89c.05-.22.14-.4.29-.52a.88.88 0 0 1 .62-.22H142v7.67h6.44V74H142v13.38c0 .94.22 1.63.68 2.09.45.45 1.04.68 1.76.68a3.21 3.21 0 0 0 1.85-.53l.55-.35c.16-.12.3-.18.41-.18.2 0 .4.13.55.38l1.15 1.87a7.45 7.45 0 0 1-2.44 1.5 8.53 8.53 0 0 1-2.95.52zm19.68-10.4c-1.8.07-3.34.21-4.62.45-1.26.22-2.3.51-3.1.88-.8.36-1.37.8-1.74 1.3-.35.5-.53 1.05-.53 1.67 0 .58.1 1.1.3 1.52a2.9 2.9 0 0 0 .76 1.05c.34.27.73.46 1.17.6a6.13 6.13 0 0 0 1.45.17 7.3 7.3 0 0 0 3.5-.81 12.04 12.04 0 0 0 2.82-2.2v-4.62zm-12.65-9.1a12.72 12.72 0 0 1 3.99-2.66c1.42-.59 3-.88 4.72-.88 1.25 0 2.36.2 3.33.61a6.81 6.81 0 0 1 3.94 4.38c.33 1.04.5 2.19.5 3.43V93h-1.74a1.8 1.8 0 0 1-.88-.18c-.2-.13-.36-.38-.48-.74l-.44-2.12-1.72 1.46a9.48 9.48 0 0 1-3.74 1.7c-.69.15-1.46.23-2.3.23-.87 0-1.69-.12-2.45-.35a5.33 5.33 0 0 1-3.34-2.93 6.62 6.62 0 0 1-.49-2.64c0-.88.25-1.72.73-2.53a6.33 6.33 0 0 1 2.35-2.17c1.09-.63 2.5-1.15 4.25-1.54 1.74-.41 3.89-.65 6.42-.7v-1.75c0-1.73-.37-3.03-1.12-3.91-.75-.9-1.84-1.34-3.28-1.34-.97 0-1.78.12-2.44.37-.64.23-1.2.5-1.7.81l-1.22.82c-.34.23-.68.35-1.02.35-.26 0-.49-.07-.68-.2a1.88 1.88 0 0 1-.48-.53l-.7-1.25zM40.98 32.25c0 2.36-.38 4.53-1.12 6.51a14.26 14.26 0 0 1-8.1 8.4c-1.9.78-4.02 1.17-6.34 1.17-2.31 0-4.42-.39-6.33-1.17a14.31 14.31 0 0 1-8.08-8.4 18.29 18.29 0 0 1-1.12-6.51c0-2.36.38-4.53 1.12-6.5.75-1.97 1.8-3.67 3.17-5.1a14.32 14.32 0 0 1 4.9-3.34c1.92-.8 4.03-1.19 6.34-1.19 2.32 0 4.43.4 6.34 1.19 1.92.8 3.56 1.9 4.93 3.34a14.87 14.87 0 0 1 3.17 5.1 18.1 18.1 0 0 1 1.12 6.5zm-4.38 0c0-1.94-.26-3.68-.8-5.22a10.91 10.91 0 0 0-2.24-3.89 9.68 9.68 0 0 0-3.52-2.46 11.95 11.95 0 0 0-4.62-.86c-1.68 0-3.21.28-4.6.86a9.88 9.88 0 0 0-3.54 2.46 10.91 10.91 0 0 0-2.24 3.9c-.53 1.53-.8 3.27-.8 5.2 0 1.94.27 3.68.8 5.22a11.17 11.17 0 0 0 2.24 3.9 10.01 10.01 0 0 0 3.55 2.44c1.38.56 2.9.83 4.6.83s3.24-.27 4.61-.83a9.8 9.8 0 0 0 3.52-2.44 11.17 11.17 0 0 0 2.25-3.9c.53-1.54.8-3.28.8-5.21zm26.22-6.54V48H60.5c-.56 0-.9-.27-1.05-.81l-.31-2.4a12.45 12.45 0 0 1-3.26 2.6c-1.2.64-2.58.96-4.13.96-1.22 0-2.3-.2-3.24-.6a6.52 6.52 0 0 1-2.33-1.7 7.37 7.37 0 0 1-1.43-2.67c-.3-1.04-.46-2.2-.46-3.45V25.7h3.91v14.22c0 1.68.38 2.99 1.15 3.91.77.93 1.96 1.39 3.54 1.39 1.16 0 2.24-.27 3.23-.82a10.42 10.42 0 0 0 2.8-2.28V25.7h3.91zm8.61 4.47a9.94 9.94 0 0 1 2.6-3.56 5.64 5.64 0 0 1 3.76-1.3c.47 0 .92.05 1.34.15.44.1.83.27 1.17.49l-.3 2.92c-.09.37-.3.55-.66.55-.2 0-.5-.04-.9-.13a6.21 6.21 0 0 0-3.24.18 4.23 4.23 0 0 0-1.47.92c-.42.4-.81.9-1.17 1.5-.33.58-.64 1.26-.92 2.02V48H67.7V25.71h2.25c.42 0 .72.08.88.25.16.16.27.44.33.83l.26 3.39zm61.16-13.7L122.75 48h-3.82l-7.99-24.05a21.95 21.95 0 0 1-.42-1.58 38.36 38.36 0 0 1-.44 1.58L102.05 48h-3.83L88.4 16.47h3.54c.38 0 .7.1.95.29.26.2.43.43.5.73l6.52 21.9.28 1.28.29 1.46.3-1.46.38-1.27 7.41-21.91c.1-.25.26-.48.51-.69.27-.22.58-.33.95-.33h1.23c.38 0 .69.1.92.29a1.77 1.77 0 0 1 .53.73l7.4 21.9a28.4 28.4 0 0 1 .68 2.62 29.52 29.52 0 0 1 .52-2.61l6.54-21.91a1.31 1.31 0 0 1 .48-.7c.27-.21.58-.32.95-.32h3.32zm9.35 8.88c1.63 0 3.1.27 4.4.82a9.43 9.43 0 0 1 5.46 5.94c.5 1.4.74 2.98.74 4.73 0 1.76-.25 3.34-.74 4.75a9.43 9.43 0 0 1-5.46 5.92c-1.3.52-2.77.79-4.4.79-1.64 0-3.12-.27-4.44-.8a9.42 9.42 0 0 1-3.35-2.3c-.92-1-1.63-2.2-2.13-3.61-.49-1.41-.73-3-.73-4.75s.24-3.33.73-4.73c.5-1.43 1.2-2.64 2.13-3.63.93-1 2.04-1.77 3.35-2.31 1.32-.55 2.8-.82 4.44-.82zm0 19.89c2.2 0 3.84-.73 4.93-2.2 1.08-1.48 1.63-3.54 1.63-6.18 0-2.66-.55-4.72-1.63-6.2-1.09-1.49-2.73-2.23-4.93-2.23-1.12 0-2.09.2-2.93.57a5.71 5.71 0 0 0-2.06 1.65c-.55.72-.96 1.61-1.24 2.67-.26 1.04-.4 2.22-.4 3.54 0 2.64.55 4.7 1.64 6.18 1.1 1.47 2.76 2.2 4.99 2.2zm17.97-15.07a9.94 9.94 0 0 1 2.6-3.56 5.64 5.64 0 0 1 3.76-1.3c.47 0 .91.05 1.34.15.44.1.83.27 1.16.49l-.28 2.92c-.09.37-.31.55-.66.55-.2 0-.5-.04-.9-.13a6.2 6.2 0 0 0-3.24.18 4.23 4.23 0 0 0-1.47.92c-.43.4-.82.9-1.17 1.5a13.1 13.1 0 0 0-.92 2.02V48h-3.94V25.71h2.24c.43 0 .72.08.88.25.17.16.28.44.33.83l.27 3.39zm15.04-14.59V48h-3.92V15.6h3.92zm19.55 15.43a6.22 6.22 0 0 0-2.38-2.05 6.7 6.7 0 0 0-2.86-.6c-2.07 0-3.66.75-4.77 2.23-1.12 1.48-1.68 3.6-1.68 6.33 0 1.46.13 2.7.38 3.74a7.29 7.29 0 0 0 1.1 2.56 4.35 4.35 0 0 0 1.78 1.45c.7.3 1.5.46 2.4.46 1.29 0 2.41-.3 3.36-.88a9.6 9.6 0 0 0 2.67-2.49V31.02zm3.91-15.43V48h-2.33c-.56 0-.9-.27-1.06-.81l-.35-2.71a12.13 12.13 0 0 1-3.25 2.77 8.28 8.28 0 0 1-4.23 1.06 7.31 7.31 0 0 1-6.14-2.9c-.73-.96-1.3-2.15-1.69-3.57a18.35 18.35 0 0 1 .07-9.48 11.29 11.29 0 0 1 1.89-3.7 8.7 8.7 0 0 1 7.06-3.34 7.96 7.96 0 0 1 6.12 2.62V15.59h3.91zM46.61 70.71V93H42.7V70.71h3.91zm.84-7c0 .39-.08.75-.24 1.09-.15.32-.35.61-.62.88-.25.25-.55.44-.9.59a2.67 2.67 0 0 1-2.16 0 2.9 2.9 0 0 1-1.45-1.47 2.67 2.67 0 0 1 0-2.16c.15-.35.35-.65.6-.9.25-.27.53-.47.85-.62a2.67 2.67 0 0 1 2.16 0c.35.15.65.35.9.62.27.25.47.55.62.9.16.34.24.7.24 1.08zm7.97 10.24c.49-.54 1-1.04 1.54-1.48a9.85 9.85 0 0 1 3.66-1.84 8.96 8.96 0 0 1 5.43.35c.94.4 1.72.97 2.33 1.71.63.74 1.11 1.62 1.43 2.67.32 1.04.49 2.19.49 3.45V93h-3.94V78.81c0-1.69-.4-3-1.17-3.92-.76-.93-1.93-1.4-3.5-1.4-1.15 0-2.24.27-3.25.83-1 .56-1.92 1.31-2.77 2.27V93h-3.94V70.71h2.35c.56 0 .9.28 1.04.82l.3 2.42zm57.7 3.3c0 2.36-.37 4.5-1.11 6.44a14.3 14.3 0 0 1-3.17 4.98c-1.37 1.37-3 2.45-4.93 3.2-1.9.76-4.02 1.13-6.33 1.13H85.8V61.47h11.77c2.31 0 4.42.39 6.33 1.15a13.8 13.8 0 0 1 8.1 8.18 17.75 17.75 0 0 1 1.12 6.45zm-4.37 0c0-1.94-.26-3.67-.8-5.2a10.94 10.94 0 0 0-2.23-3.87 9.57 9.57 0 0 0-3.53-2.42 12.23 12.23 0 0 0-4.61-.83h-7.5v24.62h7.5c1.7 0 3.24-.28 4.61-.84a9.7 9.7 0 0 0 3.53-2.4 10.94 10.94 0 0 0 2.24-3.87c.53-1.53.8-3.26.8-5.2zm19.8 5.72c-1.8.06-3.34.2-4.62.44-1.26.22-2.3.51-3.1.88-.8.36-1.37.8-1.74 1.3-.35.5-.53 1.05-.53 1.67 0 .58.1 1.1.3 1.52a3 3 0 0 0 .76 1.05c.34.27.73.46 1.17.6a6.13 6.13 0 0 0 1.45.17 7.28 7.28 0 0 0 3.5-.81 11.95 11.95 0 0 0 2.82-2.2v-4.62zm-12.65-9.11a12.73 12.73 0 0 1 3.98-2.66c1.43-.59 3-.88 4.73-.88 1.25 0 2.36.2 3.33.61a6.81 6.81 0 0 1 3.94 4.38c.33 1.04.5 2.19.5 3.43V93h-1.74a1.8 1.8 0 0 1-.88-.18c-.2-.13-.36-.38-.48-.74l-.44-2.12-1.72 1.46a9.48 9.48 0 0 1-3.74 1.7c-.69.15-1.46.23-2.3.23-.87 0-1.69-.12-2.45-.35a5.34 5.34 0 0 1-3.34-2.93 6.64 6.64 0 0 1-.49-2.64c0-.88.25-1.72.73-2.53a6.33 6.33 0 0 1 2.35-2.17c1.09-.63 2.5-1.15 4.25-1.54 1.75-.41 3.89-.65 6.42-.7v-1.75c0-1.73-.37-3.03-1.12-3.91-.75-.9-1.84-1.34-3.28-1.34-.97 0-1.78.12-2.44.37-.64.23-1.2.5-1.7.81l-1.23.82c-.33.23-.67.35-1 .35-.27 0-.5-.07-.69-.2a2.1 2.1 0 0 1-.48-.53l-.7-1.25zm27.67 19.5c-1.76 0-3.12-.5-4.07-1.48-.94-.98-1.41-2.4-1.41-4.25V74h-2.68a.9.9 0 0 1-.6-.2c-.16-.14-.24-.36-.24-.66v-1.56l3.65-.46.9-6.89c.05-.22.14-.4.29-.52a.88.88 0 0 1 .62-.22H142v7.67h6.44V74H142v13.38c0 .94.22 1.63.68 2.09.45.45 1.04.68 1.76.68a3.21 3.21 0 0 0 1.85-.53l.55-.35c.16-.12.3-.18.41-.18.2 0 .4.13.55.38l1.15 1.87a7.45 7.45 0 0 1-2.44 1.5 8.53 8.53 0 0 1-2.95.52zm19.68-10.4c-1.8.07-3.34.21-4.62.45-1.26.22-2.3.51-3.1.88-.8.36-1.37.8-1.74 1.3-.35.5-.53 1.05-.53 1.67 0 .58.1 1.1.3 1.52a2.9 2.9 0 0 0 .76 1.05c.34.27.73.46 1.17.6a6.13 6.13 0 0 0 1.45.17 7.3 7.3 0 0 0 3.5-.81 12.04 12.04 0 0 0 2.82-2.2v-4.62zm-12.65-9.1a12.72 12.72 0 0 1 3.99-2.66c1.42-.59 3-.88 4.72-.88 1.25 0 2.36.2 3.33.61a6.81 6.81 0 0 1 3.94 4.38c.33 1.04.5 2.19.5 3.43V93h-1.74a1.8 1.8 0 0 1-.88-.18c-.2-.13-.36-.38-.48-.74l-.44-2.12-1.72 1.46a9.48 9.48 0 0 1-3.74 1.7c-.69.15-1.46.23-2.3.23-.87 0-1.69-.12-2.45-.35a5.33 5.33 0 0 1-3.34-2.93 6.62 6.62 0 0 1-.49-2.64c0-.88.25-1.72.73-2.53a6.33 6.33 0 0 1 2.35-2.17c1.09-.63 2.5-1.15 4.25-1.54 1.74-.41 3.89-.65 6.42-.7v-1.75c0-1.73-.37-3.03-1.12-3.91-.75-.9-1.84-1.34-3.28-1.34-.97 0-1.78.12-2.44.37-.64.23-1.2.5-1.7.81l-1.22.82c-.34.23-.68.35-1.02.35-.26 0-.49-.07-.68-.2a1.88 1.88 0 0 1-.48-.53l-.7-1.25zM40.98 32.25c0 2.36-.38 4.53-1.12 6.51a14.26 14.26 0 0 1-8.1 8.4c-1.9.78-4.02 1.17-6.34 1.17-2.31 0-4.42-.39-6.33-1.17a14.31 14.31 0 0 1-8.08-8.4 18.29 18.29 0 0 1-1.12-6.51c0-2.36.38-4.53 1.12-6.5.75-1.97 1.8-3.67 3.17-5.1a14.32 14.32 0 0 1 4.9-3.34c1.92-.8 4.03-1.19 6.34-1.19 2.32 0 4.43.4 6.34 1.19 1.92.8 3.56 1.9 4.93 3.34a14.87 14.87 0 0 1 3.17 5.1 18.1 18.1 0 0 1 1.12 6.5zm-4.38 0c0-1.94-.26-3.68-.8-5.22a10.91 10.91 0 0 0-2.24-3.89 9.68 9.68 0 0 0-3.52-2.46 11.95 11.95 0 0 0-4.62-.86c-1.68 0-3.21.28-4.6.86a9.88 9.88 0 0 0-3.54 2.46 10.91 10.91 0 0 0-2.24 3.9c-.53 1.53-.8 3.27-.8 5.2 0 1.94.27 3.68.8 5.22a11.17 11.17 0 0 0 2.24 3.9 10.01 10.01 0 0 0 3.55 2.44c1.38.56 2.9.83 4.6.83s3.24-.27 4.61-.83a9.8 9.8 0 0 0 3.52-2.44 11.17 11.17 0 0 0 2.25-3.9c.53-1.54.8-3.28.8-5.21zm26.22-6.54V48H60.5c-.56 0-.9-.27-1.05-.81l-.31-2.4a12.45 12.45 0 0 1-3.26 2.6c-1.2.64-2.58.96-4.13.96-1.22 0-2.3-.2-3.24-.6a6.52 6.52 0 0 1-2.33-1.7 7.37 7.37 0 0 1-1.43-2.67c-.3-1.04-.46-2.2-.46-3.45V25.7h3.91v14.22c0 1.68.38 2.99 1.15 3.91.77.93 1.96 1.39 3.54 1.39 1.16 0 2.24-.27 3.23-.82a10.42 10.42 0 0 0 2.8-2.28V25.7h3.91zm8.61 4.47a9.94 9.94 0 0 1 2.6-3.56 5.64 5.64 0 0 1 3.76-1.3c.47 0 .92.05 1.34.15.44.1.83.27 1.17.49l-.3 2.92c-.09.37-.3.55-.66.55-.2 0-.5-.04-.9-.13a6.21 6.21 0 0 0-3.24.18 4.23 4.23 0 0 0-1.47.92c-.42.4-.81.9-1.17 1.5-.33.58-.64 1.26-.92 2.02V48H67.7V25.71h2.25c.42 0 .72.08.88.25.16.16.27.44.33.83l.26 3.39zm61.16-13.7L122.75 48h-3.82l-7.99-24.05a21.95 21.95 0 0 1-.42-1.58 38.36 38.36 0 0 1-.44 1.58L102.05 48h-3.83L88.4 16.47h3.54c.38 0 .7.1.95.29.26.2.43.43.5.73l6.52 21.9.28 1.28.29 1.46.3-1.46.38-1.27 7.41-21.91c.1-.25.26-.48.51-.69.27-.22.58-.33.95-.33h1.23c.38 0 .69.1.92.29a1.77 1.77 0 0 1 .53.73l7.4 21.9a28.4 28.4 0 0 1 .68 2.62 29.52 29.52 0 0 1 .52-2.61l6.54-21.91a1.31 1.31 0 0 1 .48-.7c.27-.21.58-.32.95-.32h3.32zm9.35 8.88c1.63 0 3.1.27 4.4.82a9.43 9.43 0 0 1 5.46 5.94c.5 1.4.74 2.98.74 4.73 0 1.76-.25 3.34-.74 4.75a9.43 9.43 0 0 1-5.46 5.92c-1.3.52-2.77.79-4.4.79-1.64 0-3.12-.27-4.44-.8a9.42 9.42 0 0 1-3.35-2.3c-.92-1-1.63-2.2-2.13-3.61-.49-1.41-.73-3-.73-4.75s.24-3.33.73-4.73c.5-1.43 1.2-2.64 2.13-3.63.93-1 2.04-1.77 3.35-2.31 1.32-.55 2.8-.82 4.44-.82zm0 19.89c2.2 0 3.84-.73 4.93-2.2 1.08-1.48 1.63-3.54 1.63-6.18 0-2.66-.55-4.72-1.63-6.2-1.09-1.49-2.73-2.23-4.93-2.23-1.12 0-2.09.2-2.93.57a5.71 5.71 0 0 0-2.06 1.65c-.55.72-.96 1.61-1.24 2.67-.26 1.04-.4 2.22-.4 3.54 0 2.64.55 4.7 1.64 6.18 1.1 1.47 2.76 2.2 4.99 2.2zm17.97-15.07a9.94 9.94 0 0 1 2.6-3.56 5.64 5.64 0 0 1 3.76-1.3c.47 0 .91.05 1.34.15.44.1.83.27 1.16.49l-.28 2.92c-.09.37-.31.55-.66.55-.2 0-.5-.04-.9-.13a6.2 6.2 0 0 0-3.24.18 4.23 4.23 0 0 0-1.47.92c-.43.4-.82.9-1.17 1.5a13.1 13.1 0 0 0-.92 2.02V48h-3.94V25.71h2.24c.43 0 .72.08.88.25.17.16.28.44.33.83l.27 3.39zm15.04-14.59V48h-3.92V15.6h3.92zm19.55 15.43a6.22 6.22 0 0 0-2.38-2.05 6.7 6.7 0 0 0-2.86-.6c-2.07 0-3.66.75-4.77 2.23-1.12 1.48-1.68 3.6-1.68 6.33 0 1.46.13 2.7.38 3.74a7.29 7.29 0 0 0 1.1 2.56 4.35 4.35 0 0 0 1.78 1.45c.7.3 1.5.46 2.4.46 1.29 0 2.41-.3 3.36-.88a9.6 9.6 0 0 0 2.67-2.49V31.02zm3.91-15.43V48h-2.33c-.56 0-.9-.27-1.06-.81l-.35-2.71a12.13 12.13 0 0 1-3.25 2.77 8.28 8.28 0 0 1-4.23 1.06 7.31 7.31 0 0 1-6.14-2.9c-.73-.96-1.3-2.15-1.69-3.57a18.35 18.35 0 0 1 .07-9.48 11.29 11.29 0 0 1 1.89-3.7 8.7 8.7 0 0 1 7.06-3.34 7.96 7.96 0 0 1 6.12 2.62V15.59h3.91zM46.61 70.71V93H42.7V70.71h3.91zm.84-7c0 .39-.08.75-.24 1.09-.15.32-.35.61-.62.88-.25.25-.55.44-.9.59a2.67 2.67 0 0 1-2.16 0 2.9 2.9 0 0 1-1.45-1.47 2.67 2.67 0 0 1 0-2.16c.15-.35.35-.65.6-.9.25-.27.53-.47.85-.62a2.67 2.67 0 0 1 2.16 0c.35.15.65.35.9.62.27.25.47.55.62.9.16.34.24.7.24 1.08zm7.97 10.24c.49-.54 1-1.04 1.54-1.48a9.85 9.85 0 0 1 3.66-1.84 8.96 8.96 0 0 1 5.43.35c.94.4 1.72.97 2.33 1.71.63.74 1.11 1.62 1.43 2.67.32 1.04.49 2.19.49 3.45V93h-3.94V78.81c0-1.69-.4-3-1.17-3.92-.76-.93-1.93-1.4-3.5-1.4-1.15 0-2.24.27-3.25.83-1 .56-1.92 1.31-2.77 2.27V93h-3.94V70.71h2.35c.56 0 .9.28 1.04.82l.3 2.42zm57.7 3.3c0 2.36-.37 4.5-1.11 6.44a14.3 14.3 0 0 1-3.17 4.98c-1.37 1.37-3 2.45-4.93 3.2-1.9.76-4.02 1.13-6.33 1.13H85.8V61.47h11.77c2.31 0 4.42.39 6.33 1.15a13.8 13.8 0 0 1 8.1 8.18 17.75 17.75 0 0 1 1.12 6.45zm-4.37 0c0-1.94-.26-3.67-.8-5.2a10.94 10.94 0 0 0-2.23-3.87 9.57 9.57 0 0 0-3.53-2.42 12.23 12.23 0 0 0-4.61-.83h-7.5v24.62h7.5c1.7 0 3.24-.28 4.61-.84a9.7 9.7 0 0 0 3.53-2.4 10.94 10.94 0 0 0 2.24-3.87c.53-1.53.8-3.26.8-5.2zm19.8 5.72c-1.8.06-3.34.2-4.62.44-1.26.22-2.3.51-3.1.88-.8.36-1.37.8-1.74 1.3-.35.5-.53 1.05-.53 1.67 0 .58.1 1.1.3 1.52a3 3 0 0 0 .76 1.05c.34.27.73.46 1.17.6a6.13 6.13 0 0 0 1.45.17 7.28 7.28 0 0 0 3.5-.81 11.95 11.95 0 0 0 2.82-2.2v-4.62zm-12.65-9.11a12.73 12.73 0 0 1 3.98-2.66c1.43-.59 3-.88 4.73-.88 1.25 0 2.36.2 3.33.61a6.81 6.81 0 0 1 3.94 4.38c.33 1.04.5 2.19.5 3.43V93h-1.74a1.8 1.8 0 0 1-.88-.18c-.2-.13-.36-.38-.48-.74l-.44-2.12-1.72 1.46a9.48 9.48 0 0 1-3.74 1.7c-.69.15-1.46.23-2.3.23-.87 0-1.69-.12-2.45-.35a5.34 5.34 0 0 1-3.34-2.93 6.64 6.64 0 0 1-.49-2.64c0-.88.25-1.72.73-2.53a6.33 6.33 0 0 1 2.35-2.17c1.09-.63 2.5-1.15 4.25-1.54 1.75-.41 3.89-.65 6.42-.7v-1.75c0-1.73-.37-3.03-1.12-3.91-.75-.9-1.84-1.34-3.28-1.34-.97 0-1.78.12-2.44.37-.64.23-1.2.5-1.7.81l-1.23.82c-.33.23-.67.35-1 .35-.27 0-.5-.07-.69-.2a2.1 2.1 0 0 1-.48-.53l-.7-1.25zm27.67 19.5c-1.76 0-3.12-.5-4.07-1.48-.94-.98-1.41-2.4-1.41-4.25V74h-2.68a.9.9 0 0 1-.6-.2c-.16-.14-.24-.36-.24-.66v-1.56l3.65-.46.9-6.89c.05-.22.14-.4.29-.52a.88.88 0 0 1 .62-.22H142v7.67h6.44V74H142v13.38c0 .94.22 1.63.68 2.09.45.45 1.04.68 1.76.68a3.21 3.21 0 0 0 1.85-.53l.55-.35c.16-.12.3-.18.41-.18.2 0 .4.13.55.38l1.15 1.87a7.45 7.45 0 0 1-2.44 1.5 8.53 8.53 0 0 1-2.95.52zm19.68-10.4c-1.8.07-3.34.21-4.62.45-1.26.22-2.3.51-3.1.88-.8.36-1.37.8-1.74 1.3-.35.5-.53 1.05-.53 1.67 0 .58.1 1.1.3 1.52a2.9 2.9 0 0 0 .76 1.05c.34.27.73.46 1.17.6a6.13 6.13 0 0 0 1.45.17 7.3 7.3 0 0 0 3.5-.81 12.04 12.04 0 0 0 2.82-2.2v-4.62zm-12.65-9.1a12.72 12.72 0 0 1 3.99-2.66c1.42-.59 3-.88 4.72-.88 1.25 0 2.36.2 3.33.61a6.81 6.81 0 0 1 3.94 4.38c.33 1.04.5 2.19.5 3.43V93h-1.74a1.8 1.8 0 0 1-.88-.18c-.2-.13-.36-.38-.48-.74l-.44-2.12-1.72 1.46a9.48 9.48 0 0 1-3.74 1.7c-.69.15-1.46.23-2.3.23-.87 0-1.69-.12-2.45-.35a5.33 5.33 0 0 1-3.34-2.93 6.62 6.62 0 0 1-.49-2.64c0-.88.25-1.72.73-2.53a6.33 6.33 0 0 1 2.35-2.17c1.09-.63 2.5-1.15 4.25-1.54 1.74-.41 3.89-.65 6.42-.7v-1.75c0-1.73-.37-3.03-1.12-3.91-.75-.9-1.84-1.34-3.28-1.34-.97 0-1.78.12-2.44.37-.64.23-1.2.5-1.7.81l-1.22.82c-.34.23-.68.35-1.02.35-.26 0-.49-.07-.68-.2a1.88 1.88 0 0 1-.48-.53l-.7-1.25z"
    fill="#fff"
  />
  <path fill="#D42B21" d="M0 106.79h210V120H0z" />
</g>
<defs>
  <clipPath id="clip0"><path fill="#fff" d="M0 0h210v120H0z" /></clipPath>
</defs>
</svg></g><a href="http://localhost:3030/grapher/number-of-people-infected-with-hiv-by-region" style="font-family:&quot;Playfair Display&quot;, Georgia, &quot;Times New Roman&quot;, serif" target="_blank" rel="noopener"><text font-size="25.20" x="15.0" y="35.2" fill="#555"><tspan x="15" y="35.160000000000004">Number of people infected with HIV by region, 1990 to 2019</tspan></text></a><text font-size="14.40" x="15.0" y="55.7" fill="#666"><tspan x="15" y="55.72">Total number of people infected with HIV/AIDS, broken down by region.</tspan></text></g><g class="StackedArea"><defs><clipPath id="boundsClip-1"><rect x="79.45400000000001" y="76.6" width="820" height="941.5999999999999"></rect></clipPath></defs><rect x="15" y="76.6" width="820" height="470.79999999999995" fill="transparent"></rect><g class="DualAxisView"><g class="HorizontalAxis"><line x1="79.5" y1="526.1999999999999" x2="79.5" y2="531.1999999999999" stroke="#999"></line><line x1="702.1" y1="526.1999999999999" x2="702.1" y2="531.1999999999999" stroke="#999"></line><line x1="186.8" y1="526.1999999999999" x2="186.8" y2="531.1999999999999" stroke="#999"></line><line x1="294.2" y1="526.1999999999999" x2="294.2" y2="531.1999999999999" stroke="#999"></line><line x1="401.5" y1="526.1999999999999" x2="401.5" y2="531.1999999999999" stroke="#999"></line><line x1="508.9" y1="526.1999999999999" x2="508.9" y2="531.1999999999999" stroke="#999"></line><line x1="616.2" y1="526.1999999999999" x2="616.2" y2="531.1999999999999" stroke="#999"></line><text x="79.45400000000001" y="547.4" fill="#666" text-anchor="start" font-size="16.2">1990</text><text x="702.125" y="547.4" fill="#666" text-anchor="end" font-size="16.2">2019</text><text x="186.8" y="547.4" fill="#666" text-anchor="middle" font-size="16.2">1995</text><text x="294.2" y="547.4" fill="#666" text-anchor="middle" font-size="16.2">2000</text><text x="401.5" y="547.4" fill="#666" text-anchor="middle" font-size="16.2">2005</text><text x="508.9" y="547.4" fill="#666" text-anchor="middle" font-size="16.2">2010</text><text x="616.2" y="547.4" fill="#666" text-anchor="middle" font-size="16.2">2015</text></g><g class="VerticalAxis"><text x="74.45" y="526.2" dy=".32em" text-anchor="end" fill="#666" font-size="16.2">0</text><text x="74.45" y="458.5" dy=".32em" text-anchor="end" fill="#666" font-size="16.2">1 million</text><text x="74.45" y="390.8" dy=".32em" text-anchor="end" fill="#666" font-size="16.2">2 million</text><text x="74.45" y="323" dy=".32em" text-anchor="end" fill="#666" font-size="16.2">3 million</text><text x="74.45" y="255.3" dy=".32em" text-anchor="end" fill="#666" font-size="16.2">4 million</text><text x="74.45" y="187.6" dy=".32em" text-anchor="end" fill="#666" font-size="16.2">5 million</text><text x="74.45" y="119.9" dy=".32em" text-anchor="end" fill="#666" font-size="16.2">6 million</text></g><g class="AxisGridLines horizontalLines"><line x1="79.45" y1="526.2" x2="702.13" y2="526.2" stroke="#999"></line><line x1="79.45" y1="458.5" x2="702.13" y2="458.5" stroke="#ddd" stroke-dasharray="3,2"></line><line x1="79.45" y1="390.8" x2="702.13" y2="390.8" stroke="#ddd" stroke-dasharray="3,2"></line><line x1="79.45" y1="323" x2="702.13" y2="323" stroke="#ddd" stroke-dasharray="3,2"></line><line x1="79.45" y1="255.3" x2="702.13" y2="255.3" stroke="#ddd" stroke-dasharray="3,2"></line><line x1="79.45" y1="187.6" x2="702.13" y2="187.6" stroke="#ddd" stroke-dasharray="3,2"></line><line x1="79.45" y1="119.9" x2="702.13" y2="119.9" stroke="#ddd" stroke-dasharray="3,2"></line></g></g><g clip-path="url(#boundsClip-1)"><g class="LineLabels" style="cursor:default"><g class="legendMark"><g class="indicator"><path d="M706.125,78 H728.625 V83.35 H733.125" stroke="#999" stroke-width="0.5" fill="none"></path></g><rect x="702.125" y="76.6" width="126.125" height="13.5" fill="#fff" opacity="0"></rect><text font-size="13.50" font-weight="400" x="737.1" y="87.4" fill="#1f77b4"><tspan x="737.125" y="87.39999999999999">Central Europe</tspan></text></g><g class="legendMark"><g class="indicator"><path d="M706.125,82.6 H724.125 V98.85 H733.125" stroke="#999" stroke-width="0.5" fill="none"></path></g><rect x="702.125" y="92.1" width="85.49000000000001" height="13.5" fill="#fff" opacity="0"></rect><text font-size="13.50" font-weight="400" x="737.1" y="102.9" fill="#ec750d"><tspan x="737.125" y="102.89999999999999">Oceania</tspan></text></g><g class="legendMark"><g class="indicator"><path d="M706.125,88 H719.625 V114.35 H733.125" stroke="#999" stroke-width="0.5" fill="none"></path></g><rect x="702.125" y="107.6" width="108.71000000000001" height="13.5" fill="#fff" opacity="0"></rect><text font-size="13.50" font-weight="400" x="737.1" y="118.4" fill="#932834"><tspan x="737.125" y="118.39999999999999">Central Asia</tspan></text></g><g class="legendMark"><g class="indicator"><path d="M706.125,97.1 H715.125 V137.15 H733.125" stroke="#999" stroke-width="0.5" fill="none"></path></g><rect x="702.125" y="123.1" width="132.875" height="28.1" fill="#fff" opacity="0"></rect><text font-size="13.50" font-weight="400" x="737.1" y="133.9" fill="#a8633c"><tspan x="737.125" y="133.9">North Africa and</tspan><tspan x="737.125" y="148.75">Middle East</tspan></text></g><g class="legendMark"><g class="indicator"><path d="M706.125,152.6 H710.625 V159.95 H733.125" stroke="#999" stroke-width="0.5" fill="none"></path></g><rect x="702.125" y="153.2" width="129.23000000000002" height="13.5" fill="#fff" opacity="0"></rect><text font-size="13.50" font-weight="400" x="737.1" y="164.0" fill="#e04e4b"><tspan x="737.125" y="164">Eastern Europe</tspan></text></g><g class="legendMark"><g class="indicator"><path d="M706.125,220.6 H719.625 V220.6 H733.125" stroke="#999" stroke-width="0.5" fill="none"></path></g><rect x="702.125" y="213.85" width="92.24000000000001" height="13.5" fill="#fff" opacity="0"></rect><text font-size="13.50" font-weight="400" x="737.1" y="224.7" fill="#4c5c78"><tspan x="737.125" y="224.65">East Asia</tspan></text></g><g class="legendMark"><g class="indicator"><path d="M706.125,262.8 H719.625 V262.8 H733.125" stroke="#999" stroke-width="0.5" fill="none"></path></g><rect x="702.125" y="256.05" width="132.875" height="13.5" fill="#fff" opacity="0"></rect><text font-size="13.50" font-weight="400" x="737.1" y="266.9" fill="#2d8587"><tspan x="737.125" y="266.85">Western Europe</tspan></text></g><g class="legendMark"><g class="indicator"><path d="M706.125,343.8 H719.625 V343.8 H733.125" stroke="#999" stroke-width="0.5" fill="none"></path></g><rect x="702.125" y="337.05" width="126.26" height="13.5" fill="#fff" opacity="0"></rect><text font-size="13.50" font-weight="400" x="737.1" y="347.9" fill="#5887a1"><tspan x="737.125" y="347.85">Southeast Asia</tspan></text></g><g class="legendMark"><g class="indicator"><path d="M706.125,464 H719.625 V464 H733.125" stroke="#999" stroke-width="0.5" fill="none"></path></g><rect x="702.125" y="457.25" width="121.4" height="13.5" fill="#fff" opacity="0"></rect><text font-size="13.50" font-weight="400" x="737.1" y="468.1" fill="#923e8b"><tspan x="737.125" y="468.05">North America</tspan></text></g></g><g class="Areas"><rect x="79.45400000000001" y="76.6" width="622.671" height="449.5999999999999" opacity="0" fill="rgba(255,255,255,0)"></rect><path class="North-America-area" stroke-linecap="round" d="M79.5 461.3L100.9 458.7L122.4 457.1L143.9 455.7L165.3 455L186.8 455.1L208.3 454.8L229.8 453.8L251.2 452.2L272.7 450.6L294.2 448.7L315.6 446.8L337.1 445L358.6 443.3L380.1 441.4L401.5 439.4L423 437.4L444.5 435.4L465.9 433.5L487.4 431.4L508.9 429.2L530.4 426.9L551.8 424.4L573.3 421.9L594.8 419L616.2 416L637.7 412.6L659.2 409.1L680.7 405.5L702.1 401.9L702.125 526.1999999999999L79.45400000000001 526.1999999999999" fill="#923E8B" fill-opacity="0.7"></path><path class="Southeast-Asia-area" stroke-linecap="round" d="M79.5 452.9L100.9 441.3L122.4 430L143.9 419.8L165.3 411.4L186.8 404.6L208.3 398.2L229.8 391.9L251.2 386.5L272.7 382.1L294.2 377.9L315.6 374L337.1 370.2L358.6 366.3L380.1 362.3L401.5 358.5L423 354.3L444.5 349.5L465.9 345.5L487.4 341.8L508.9 337.7L530.4 333.1L551.8 328.4L573.3 323.5L594.8 318.3L616.2 312.8L637.7 307.1L659.2 300.9L680.7 293.6L702.1 285.7L702.1 401.9L680.7 405.5L659.2 409.1L637.7 412.6L616.2 416L594.8 419L573.3 421.9L551.8 424.4L530.4 426.9L508.9 429.2L487.4 431.4L465.9 433.5L444.5 435.4L423 437.4L401.5 439.4L380.1 441.4L358.6 443.3L337.1 445L315.6 446.8L294.2 448.7L272.7 450.6L251.2 452.2L229.8 453.8L208.3 454.8L186.8 455.1L165.3 455L143.9 455.7L122.4 457.1L100.9 458.7L79.5 461.3" fill="#5887A1" fill-opacity="0.7"></path><path class="Western-Europe-area" stroke-linecap="round" d="M79.5 433.7L100.9 420.8L122.4 408.4L143.9 397.4L165.3 388.3L186.8 381L208.3 374.1L229.8 367.3L251.2 361.3L272.7 356.2L294.2 351.3L315.6 346.6L337.1 342L358.6 337.1L380.1 332.3L401.5 327.6L423 322.4L444.5 316.8L465.9 311.7L487.4 307.2L508.9 302.1L530.4 296.5L551.8 290.8L573.3 284.9L594.8 278.6L616.2 272L637.7 265.1L659.2 257.5L680.7 249L702.1 239.9L702.1 285.7L680.7 293.6L659.2 300.9L637.7 307.1L616.2 312.8L594.8 318.3L573.3 323.5L551.8 328.4L530.4 333.1L508.9 337.7L487.4 341.8L465.9 345.5L444.5 349.5L423 354.3L401.5 358.5L380.1 362.3L358.6 366.3L337.1 370.2L315.6 374L294.2 377.9L272.7 382.1L251.2 386.5L229.8 391.9L208.3 398.2L186.8 404.6L165.3 411.4L143.9 419.8L122.4 430L100.9 441.3L79.5 452.9" fill="#2D8587" fill-opacity="0.7"></path><path class="East-Asia-area" stroke-linecap="round" d="M79.5 429.1L100.9 415.6L122.4 402.6L143.9 390.9L165.3 381L186.8 372.9L208.3 365.3L229.8 357.6L251.2 350.6L272.7 344.3L294.2 337.9L315.6 331.2L337.1 324.2L358.6 316.8L380.1 309.1L401.5 301.5L423 293.6L444.5 285.3L465.9 278L487.4 271.4L508.9 264.6L530.4 257.8L551.8 251.1L573.3 244.6L594.8 238.1L616.2 231.6L637.7 225L659.2 217.9L680.7 209.9L702.1 201.3L702.1 239.9L680.7 249L659.2 257.5L637.7 265.1L616.2 272L594.8 278.6L573.3 284.9L551.8 290.8L530.4 296.5L508.9 302.1L487.4 307.2L465.9 311.7L444.5 316.8L423 322.4L401.5 327.6L380.1 332.3L358.6 337.1L337.1 342L315.6 346.6L294.2 351.3L272.7 356.2L251.2 361.3L229.8 367.3L208.3 374.1L186.8 381L165.3 388.3L143.9 397.4L122.4 408.4L100.9 420.8L79.5 433.7" fill="#4C5C78" fill-opacity="0.7"></path><path class="Eastern-Europe-area" stroke-linecap="round" d="M79.5 423.9L100.9 410L122.4 396.6L143.9 384.5L165.3 374.3L186.8 365.7L208.3 357.2L229.8 348L251.2 339.3L272.7 331.3L294.2 323.2L315.6 315L337.1 306.4L358.6 297.5L380.1 288.4L401.5 279.6L423 270.5L444.5 260.9L465.9 251.7L487.4 242.8L508.9 233.1L530.4 222.5L551.8 211.2L573.3 198.7L594.8 184.7L616.2 169.6L637.7 153.8L659.2 137.5L680.7 120.8L702.1 104L702.1 201.3L680.7 209.9L659.2 217.9L637.7 225L616.2 231.6L594.8 238.1L573.3 244.6L551.8 251.1L530.4 257.8L508.9 264.6L487.4 271.4L465.9 278L444.5 285.3L423 293.6L401.5 301.5L380.1 309.1L358.6 316.8L337.1 324.2L315.6 331.2L294.2 337.9L272.7 344.3L251.2 350.6L229.8 357.6L208.3 365.3L186.8 372.9L165.3 381L143.9 390.9L122.4 402.6L100.9 415.6L79.5 429.1" fill="#E04E4B" fill-opacity="0.7"></path><path class="North-Africa-and-Middle-East-area" stroke-linecap="round" d="M79.5 422.8L100.9 408.7L122.4 394.9L143.9 382.6L165.3 372L186.8 363.1L208.3 354.2L229.8 344.6L251.2 335.4L272.7 327L294.2 318.5L315.6 309.8L337.1 300.9L358.6 291.6L380.1 282.2L401.5 273L423 263.6L444.5 253.6L465.9 244.1L487.4 234.8L508.9 224.7L530.4 213.8L551.8 202L573.3 189L594.8 174.5L616.2 158.8L637.7 142.3L659.2 125.3L680.7 107.8L702.1 90.2L702.1 104L680.7 120.8L659.2 137.5L637.7 153.8L616.2 169.6L594.8 184.7L573.3 198.7L551.8 211.2L530.4 222.5L508.9 233.1L487.4 242.8L465.9 251.7L444.5 260.9L423 270.5L401.5 279.6L380.1 288.4L358.6 297.5L337.1 306.4L315.6 315L294.2 323.2L272.7 331.3L251.2 339.3L229.8 348L208.3 357.2L186.8 365.7L165.3 374.3L143.9 384.5L122.4 396.6L100.9 410L79.5 423.9" fill="#A8633C" fill-opacity="0.7"></path><path class="Central-Asia-area" stroke-linecap="round" d="M79.5 422.4L100.9 408.1L122.4 394.3L143.9 381.9L165.3 371.3L186.8 362.3L208.3 353.3L229.8 343.7L251.2 334.5L272.7 326L294.2 317.4L315.6 308.7L337.1 299.6L358.6 290.3L380.1 280.7L401.5 271.5L423 262L444.5 251.9L465.9 242.3L487.4 233L508.9 222.9L530.4 211.8L551.8 199.9L573.3 186.7L594.8 172L616.2 156L637.7 139.2L659.2 121.8L680.7 103.9L702.1 85.9L702.1 90.2L680.7 107.8L659.2 125.3L637.7 142.3L616.2 158.8L594.8 174.5L573.3 189L551.8 202L530.4 213.8L508.9 224.7L487.4 234.8L465.9 244.1L444.5 253.6L423 263.6L401.5 273L380.1 282.2L358.6 291.6L337.1 300.9L315.6 309.8L294.2 318.5L272.7 327L251.2 335.4L229.8 344.6L208.3 354.2L186.8 363.1L165.3 372L143.9 382.6L122.4 394.9L100.9 408.7L79.5 422.8" fill="#932834" fill-opacity="0.7"></path><path class="Oceania-area" stroke-linecap="round" d="M79.5 422.3L100.9 408.1L122.4 394.3L143.9 381.8L165.3 371.1L186.8 362L208.3 352.8L229.8 342.9L251.2 333.3L272.7 324.3L294.2 315.3L315.6 306.1L337.1 296.7L358.6 287L380.1 277.2L401.5 267.8L423 258.1L444.5 247.9L465.9 238.1L487.4 228.5L508.9 218.2L530.4 207L551.8 194.8L573.3 181.5L594.8 166.5L616.2 150.3L637.7 133.2L659.2 115.7L680.7 97.5L702.1 79.3L702.1 85.9L680.7 103.9L659.2 121.8L637.7 139.2L616.2 156L594.8 172L573.3 186.7L551.8 199.9L530.4 211.8L508.9 222.9L487.4 233L465.9 242.3L444.5 251.9L423 262L401.5 271.5L380.1 280.7L358.6 290.3L337.1 299.6L315.6 308.7L294.2 317.4L272.7 326L251.2 334.5L229.8 343.7L208.3 353.3L186.8 362.3L165.3 371.3L143.9 381.9L122.4 394.3L100.9 408.1L79.5 422.4" fill="#ff7f0e" fill-opacity="0.7"></path><path class="Central-Europe-area" stroke-linecap="round" d="M79.5 421.9L100.9 407.7L122.4 393.8L143.9 381.3L165.3 370.5L186.8 361.4L208.3 352.1L229.8 342.1L251.2 332.4L272.7 323.4L294.2 314.3L315.6 305L337.1 295.4L358.6 285.6L380.1 275.7L401.5 266.2L423 256.4L444.5 246.1L465.9 236.2L487.4 226.6L508.9 216.2L530.4 204.9L551.8 192.7L573.3 179.2L594.8 164.2L616.2 147.9L637.7 130.8L659.2 113.1L680.7 94.9L702.1 76.6L702.1 79.3L680.7 97.5L659.2 115.7L637.7 133.2L616.2 150.3L594.8 166.5L573.3 181.5L551.8 194.8L530.4 207L508.9 218.2L487.4 228.5L465.9 238.1L444.5 247.9L423 258.1L401.5 267.8L380.1 277.2L358.6 287L337.1 296.7L315.6 306.1L294.2 315.3L272.7 324.3L251.2 333.3L229.8 342.9L208.3 352.8L186.8 362L165.3 371.1L143.9 381.8L122.4 394.3L100.9 408.1L79.5 422.3" fill="#1f77b4" fill-opacity="0.7"></path><path class="North-America-border" stroke-linecap="round" d="M79.5 461.3L100.9 458.7L122.4 457.1L143.9 455.7L165.3 455L186.8 455.1L208.3 454.8L229.8 453.8L251.2 452.2L272.7 450.6L294.2 448.7L315.6 446.8L337.1 445L358.6 443.3L380.1 441.4L401.5 439.4L423 437.4L444.5 435.4L465.9 433.5L487.4 431.4L508.9 429.2L530.4 426.9L551.8 424.4L573.3 421.9L594.8 419L616.2 416L637.7 412.6L659.2 409.1L680.7 405.5L702.1 401.9" stroke="rgb(122, 52, 116)" stroke-opacity="0.7" stroke-width="0.5" fill="none"></path><path class="Southeast-Asia-border" stroke-linecap="round" d="M79.5 452.9L100.9 441.3L122.4 430L143.9 419.8L165.3 411.4L186.8 404.6L208.3 398.2L229.8 391.9L251.2 386.5L272.7 382.1L294.2 377.9L315.6 374L337.1 370.2L358.6 366.3L380.1 362.3L401.5 358.5L423 354.3L444.5 349.5L465.9 345.5L487.4 341.8L508.9 337.7L530.4 333.1L551.8 328.4L573.3 323.5L594.8 318.3L616.2 312.8L637.7 307.1L659.2 300.9L680.7 293.6L702.1 285.7" stroke="rgb(74, 113, 135)" stroke-opacity="0.7" stroke-width="0.5" fill="none"></path><path class="Western-Europe-border" stroke-linecap="round" d="M79.5 433.7L100.9 420.8L122.4 408.4L143.9 397.4L165.3 388.3L186.8 381L208.3 374.1L229.8 367.3L251.2 361.3L272.7 356.2L294.2 351.3L315.6 346.6L337.1 342L358.6 337.1L380.1 332.3L401.5 327.6L423 322.4L444.5 316.8L465.9 311.7L487.4 307.2L508.9 302.1L530.4 296.5L551.8 290.8L573.3 284.9L594.8 278.6L616.2 272L637.7 265.1L659.2 257.5L680.7 249L702.1 239.9" stroke="rgb(38, 111, 113)" stroke-opacity="0.7" stroke-width="0.5" fill="none"></path><path class="East-Asia-border" stroke-linecap="round" d="M79.5 429.1L100.9 415.6L122.4 402.6L143.9 390.9L165.3 381L186.8 372.9L208.3 365.3L229.8 357.6L251.2 350.6L272.7 344.3L294.2 337.9L315.6 331.2L337.1 324.2L358.6 316.8L380.1 309.1L401.5 301.5L423 293.6L444.5 285.3L465.9 278L487.4 271.4L508.9 264.6L530.4 257.8L551.8 251.1L573.3 244.6L594.8 238.1L616.2 231.6L637.7 225L659.2 217.9L680.7 209.9L702.1 201.3" stroke="rgb(64, 77, 100)" stroke-opacity="0.7" stroke-width="0.5" fill="none"></path><path class="Eastern-Europe-border" stroke-linecap="round" d="M79.5 423.9L100.9 410L122.4 396.6L143.9 384.5L165.3 374.3L186.8 365.7L208.3 357.2L229.8 348L251.2 339.3L272.7 331.3L294.2 323.2L315.6 315L337.1 306.4L358.6 297.5L380.1 288.4L401.5 279.6L423 270.5L444.5 260.9L465.9 251.7L487.4 242.8L508.9 233.1L530.4 222.5L551.8 211.2L573.3 198.7L594.8 184.7L616.2 169.6L637.7 153.8L659.2 137.5L680.7 120.8L702.1 104" stroke="rgb(187, 65, 63)" stroke-opacity="0.7" stroke-width="0.5" fill="none"></path><path class="North-Africa-and-Middle-East-border" stroke-linecap="round" d="M79.5 422.8L100.9 408.7L122.4 394.9L143.9 382.6L165.3 372L186.8 363.1L208.3 354.2L229.8 344.6L251.2 335.4L272.7 327L294.2 318.5L315.6 309.8L337.1 300.9L358.6 291.6L380.1 282.2L401.5 273L423 263.6L444.5 253.6L465.9 244.1L487.4 234.8L508.9 224.7L530.4 213.8L551.8 202L573.3 189L594.8 174.5L616.2 158.8L637.7 142.3L659.2 125.3L680.7 107.8L702.1 90.2" stroke="rgb(141, 83, 50)" stroke-opacity="0.7" stroke-width="0.5" fill="none"></path><path class="Central-Asia-border" stroke-linecap="round" d="M79.5 422.4L100.9 408.1L122.4 394.3L143.9 381.9L165.3 371.3L186.8 362.3L208.3 353.3L229.8 343.7L251.2 334.5L272.7 326L294.2 317.4L315.6 308.7L337.1 299.6L358.6 290.3L380.1 280.7L401.5 271.5L423 262L444.5 251.9L465.9 242.3L487.4 233L508.9 222.9L530.4 211.8L551.8 199.9L573.3 186.7L594.8 172L616.2 156L637.7 139.2L659.2 121.8L680.7 103.9L702.1 85.9" stroke="rgb(123, 33, 44)" stroke-opacity="0.7" stroke-width="0.5" fill="none"></path><path class="Oceania-border" stroke-linecap="round" d="M79.5 422.3L100.9 408.1L122.4 394.3L143.9 381.8L165.3 371.1L186.8 362L208.3 352.8L229.8 342.9L251.2 333.3L272.7 324.3L294.2 315.3L315.6 306.1L337.1 296.7L358.6 287L380.1 277.2L401.5 267.8L423 258.1L444.5 247.9L465.9 238.1L487.4 228.5L508.9 218.2L530.4 207L551.8 194.8L573.3 181.5L594.8 166.5L616.2 150.3L637.7 133.2L659.2 115.7L680.7 97.5L702.1 79.3" stroke="rgb(213, 106, 12)" stroke-opacity="0.7" stroke-width="0.5" fill="none"></path><path class="Central-Europe-border" stroke-linecap="round" d="M79.5 421.9L100.9 407.7L122.4 393.8L143.9 381.3L165.3 370.5L186.8 361.4L208.3 352.1L229.8 342.1L251.2 332.4L272.7 323.4L294.2 314.3L315.6 305L337.1 295.4L358.6 285.6L380.1 275.7L401.5 266.2L423 256.4L444.5 246.1L465.9 236.2L487.4 226.6L508.9 216.2L530.4 204.9L551.8 192.7L573.3 179.2L594.8 164.2L616.2 147.9L637.7 130.8L659.2 113.1L680.7 94.9L702.1 76.6" stroke="rgb(26, 100, 151)" stroke-opacity="0.7" stroke-width="0.5" fill="none"></path></g></g></g><g class="SourcesFooter" style="fill:#777"><g style="fill:#777"><text font-size="12.60" x="15.0" y="582.5"><tspan x="15" y="582.48">Source: IHME, Global Burden of Disease</tspan></text></g><text font-size="12.60" x="796.4" y="582.5"><tspan x="796.444" y="582.48"><a style="fill: #777;" class="cclogo" href="http://creativecommons.org/licenses/by/4.0/deed.en_US" target="_blank">CC BY</a></tspan></text></g></svg>