<svg xmlns="http://www.w3.org/2000/svg" version="1.1" style="font-family:Lato, &#x27;Helvetica Neue&#x27;, Helvetica, Arial, &#x27;Liberation Sans&#x27;, sans-serif;font-size:18px;background-color:#ffffff;text-rendering:geometricPrecision;-webkit-font-smoothing:antialiased" width="850" height="600" viewBox="0 0 850 600"><defs><style>@import url(https://ourworldindata.org/fonts.css)</style></defs><defs><pattern id="noDataPattern" patternUnits="userSpaceOnUse" width="4" height="4" patternTransform="rotate(-45 2 2)"><path d="M -1,2 l 6,0" stroke="#ccc" stroke-width="0.7"></path></pattern></defs><rect class="background-fill" fill="#ffffff" width="850" height="600"></rect><g id="header" class="HeaderView"><g id="logo" transform="translate(769, 16) scale(1)"><svg className="owidLogo" xmlns="http://www.w3.org/2000/svg" width="65" height="36" viewBox="0 0 65 36"  fill="none"><path fill="#002147" d="M0 0h64.8v36H0z"/><path fill="#CE261E" d="M0 33.3h64.8V36H0z"/><path fill="#fff" d="M13.796 10.575c0 .636-.106 1.226-.318 1.77a4.193 4.193 0 0 1-.894 1.404 4.084 4.084 0 0 1-1.386.93c-.54.22-1.138.33-1.794.33-.656 0-1.256-.11-1.8-.33a4.149 4.149 0 0 1-1.392-.93 4.193 4.193 0 0 1-.894-1.404A4.833 4.833 0 0 1 5 10.575c0-.636.106-1.224.318-1.764a4.18 4.18 0 0 1 .894-1.41 4.076 4.076 0 0 1 1.392-.924 4.684 4.684 0 0 1 1.8-.336c.656 0 1.254.112 1.794.336.54.224 1.002.534 1.386.93.384.392.682.86.894 1.404.212.54.318 1.128.318 1.764Zm-1.656 0c0-.476-.064-.902-.192-1.278a2.671 2.671 0 0 0-.54-.966 2.332 2.332 0 0 0-.864-.606 2.94 2.94 0 0 0-1.14-.21c-.424 0-.806.07-1.146.21-.34.14-.63.342-.87.606a2.742 2.742 0 0 0-.546.966 3.955 3.955 0 0 0-.192 1.278c0 .476.064.904.192 1.284.128.376.31.696.546.96.24.26.53.46.87.6.34.14.722.21 1.146.21.424 0 .804-.07 1.14-.21.34-.14.628-.34.864-.6.236-.264.416-.584.54-.96a4.01 4.01 0 0 0 .192-1.284ZM16.104 8.757v3.912c0 .376.086.668.258.876.176.204.438.306.786.306.256 0 .496-.056.72-.168a2.58 2.58 0 0 0 .636-.474V8.757h1.482v6.156h-.906c-.192 0-.318-.09-.378-.27l-.102-.492a4.65 4.65 0 0 1-.396.354 2.577 2.577 0 0 1-.438.27 2.35 2.35 0 0 1-.498.168 2.345 2.345 0 0 1-.57.066c-.336 0-.634-.056-.894-.168a1.821 1.821 0 0 1-.648-.486 2.157 2.157 0 0 1-.402-.738 3.233 3.233 0 0 1-.132-.948V8.757h1.482ZM21.328 14.913V8.757h.87c.152 0 .258.028.318.084.06.056.1.152.12.288l.09.744c.22-.38.478-.68.774-.9.296-.22.628-.33.996-.33.304 0 .556.07.756.21l-.192 1.11c-.012.072-.038.124-.078.156a.278.278 0 0 1-.162.042 1.01 1.01 0 0 1-.246-.042 1.646 1.646 0 0 0-.414-.042c-.308 0-.572.086-.792.258-.22.168-.406.416-.558.744v3.834h-1.482ZM27.347 6.237h1.356a.57.57 0 0 1 .348.102c.096.064.16.152.192.264l1.476 5.19c.036.128.068.268.096.42.032.148.062.306.09.474a5.968 5.968 0 0 1 .228-.894l1.704-5.19a.575.575 0 0 1 .186-.252.543.543 0 0 1 .348-.114h.474a.57.57 0 0 1 .348.102.497.497 0 0 1 .192.264l1.692 5.19c.088.256.164.54.228.852.028-.156.056-.306.084-.45.032-.144.064-.278.096-.402l1.476-5.19c.028-.1.09-.186.186-.258a.563.563 0 0 1 .348-.108h1.266l-2.694 8.676h-1.458l-1.896-5.928-.078-.246a9.504 9.504 0 0 1-.072-.282c-.024.1-.05.194-.078.282-.024.088-.048.17-.072.246l-1.914 5.928H30.04l-2.694-8.676ZM42.771 8.661c.46 0 .876.074 1.248.222.376.148.696.358.96.63s.468.604.612.996c.144.392.216.83.216 1.314 0 .488-.072.928-.216 1.32a2.85 2.85 0 0 1-.612 1.002 2.653 2.653 0 0 1-.96.636 3.35 3.35 0 0 1-1.248.222c-.46 0-.878-.074-1.254-.222a2.712 2.712 0 0 1-.966-.636 2.922 2.922 0 0 1-.618-1.002 3.807 3.807 0 0 1-.216-1.32c0-.484.072-.922.216-1.314.148-.392.354-.724.618-.996.268-.272.59-.482.966-.63a3.397 3.397 0 0 1 1.254-.222Zm0 5.202c.512 0 .89-.172 1.134-.516.248-.344.372-.848.372-1.512s-.124-1.17-.372-1.518c-.244-.348-.622-.522-1.134-.522-.52 0-.904.176-1.152.528-.248.348-.372.852-.372 1.512s.124 1.164.372 1.512c.248.344.632.516 1.152.516ZM46.723 14.913V8.757h.87c.152 0 .258.028.318.084.06.056.1.152.12.288l.09.744c.22-.38.478-.68.774-.9.296-.22.628-.33.996-.33.304 0 .556.07.756.21l-.192 1.11c-.012.072-.038.124-.078.156a.278.278 0 0 1-.162.042 1.01 1.01 0 0 1-.246-.042 1.646 1.646 0 0 0-.414-.042c-.308 0-.572.086-.792.258-.22.168-.406.416-.558.744v3.834h-1.482ZM52.96 5.997v8.916h-1.482V5.997h1.482ZM58.732 14.913c-.192 0-.318-.09-.378-.27l-.12-.594a3.68 3.68 0 0 1-.402.39c-.14.116-.292.216-.456.3-.16.084-.334.148-.522.192a2.372 2.372 0 0 1-.6.072c-.336 0-.644-.07-.924-.21a2.098 2.098 0 0 1-.726-.606 3.033 3.033 0 0 1-.468-.99 5.072 5.072 0 0 1-.162-1.344c0-.456.062-.88.186-1.272s.302-.732.534-1.02c.232-.288.51-.512.834-.672a2.384 2.384 0 0 1 1.092-.246 2.103 2.103 0 0 1 1.536.606V5.997h1.482v8.916h-.906Zm-1.974-1.086c.308 0 .57-.064.786-.192.216-.128.42-.31.612-.546v-2.76a1.452 1.452 0 0 0-.552-.432 1.597 1.597 0 0 0-.636-.126c-.224 0-.428.042-.612.126a1.21 1.21 0 0 0-.462.384c-.124.168-.22.384-.288.648-.068.26-.102.568-.102.924 0 .36.028.666.084.918.06.248.144.452.252.612.108.156.24.27.396.342.156.068.33.102.522.102ZM16.331 20.757v6.156H14.85v-6.156h1.481Zm.223-1.794a.844.844 0 0 1-.078.36.963.963 0 0 1-.21.294.995.995 0 0 1-.3.204.963.963 0 0 1-.372.072.948.948 0 0 1-.367-.072 1.018 1.018 0 0 1-.498-.498.963.963 0 0 1 0-.732.995.995 0 0 1 .205-.3.929.929 0 0 1 .293-.198.899.899 0 0 1 .738 0 .912.912 0 0 1 .3.198.943.943 0 0 1 .288.672ZM17.771 26.913v-6.156h.906c.192 0 .318.09.378.27l.102.486a2.934 2.934 0 0 1 .828-.618c.156-.076.322-.134.498-.174.176-.04.368-.06.576-.06.336 0 .634.058.894.174.26.112.476.272.648.48.176.204.308.45.396.738.092.284.138.598.138.942v3.918h-1.482v-3.918c0-.376-.088-.666-.264-.87-.172-.208-.432-.312-.78-.312-.256 0-.496.058-.72.174a2.58 2.58 0 0 0-.636.474v4.452h-1.482ZM34.22 22.575c0 .636-.106 1.22-.318 1.752-.212.532-.51.99-.894 1.374a4 4 0 0 1-1.386.894 4.87 4.87 0 0 1-1.794.318h-3.312v-8.676h3.312a4.79 4.79 0 0 1 1.794.324 4 4 0 0 1 1.386.894c.384.38.682.836.894 1.368.212.532.318 1.116.318 1.752Zm-1.65 0c0-.476-.064-.902-.192-1.278a2.68 2.68 0 0 0-.546-.96 2.332 2.332 0 0 0-.864-.606 2.94 2.94 0 0 0-1.14-.21h-1.686v6.108h1.686c.424 0 .804-.07 1.14-.21.34-.14.628-.34.864-.6a2.75 2.75 0 0 0 .546-.96 4.01 4.01 0 0 0 .192-1.284ZM39.98 26.913h-.665c-.14 0-.25-.02-.33-.06-.08-.044-.14-.13-.18-.258l-.132-.438c-.156.14-.31.264-.462.372a2.804 2.804 0 0 1-.462.264c-.16.072-.33.126-.51.162-.18.036-.38.054-.6.054-.26 0-.5-.034-.72-.102a1.618 1.618 0 0 1-.57-.318 1.448 1.448 0 0 1-.366-.522 1.852 1.852 0 0 1-.132-.726c0-.232.06-.46.18-.684.124-.228.328-.432.612-.612.284-.184.662-.336 1.134-.456.472-.12 1.058-.188 1.758-.204v-.36c0-.412-.088-.716-.264-.912-.172-.2-.424-.3-.756-.3a1.837 1.837 0 0 0-1.02.276c-.116.068-.224.13-.324.186a.664.664 0 0 1-.33.084.429.429 0 0 1-.258-.078.614.614 0 0 1-.174-.192l-.27-.474c.708-.648 1.562-.972 2.562-.972.36 0 .68.06.96.18.284.116.524.28.72.492.196.208.344.458.444.75.104.292.156.612.156.96v3.888Zm-2.88-.924c.153 0 .293-.014.42-.042.129-.028.249-.07.36-.126.117-.056.227-.124.33-.204.109-.084.217-.182.325-.294v-1.038c-.432.02-.794.058-1.086.114-.288.052-.52.12-.696.204a.923.923 0 0 0-.378.294.664.664 0 0 0-.108.366c0 .26.076.446.228.558.156.112.358.168.606.168ZM43.22 27.01c-.532 0-.942-.15-1.23-.45-.288-.305-.432-.723-.432-1.255v-3.438h-.624a.31.31 0 0 1-.21-.078c-.056-.052-.084-.13-.084-.234v-.588l.99-.162.312-1.68a.302.302 0 0 1 .108-.186.365.365 0 0 1 .222-.066h.768v1.938h1.62v1.056h-1.62v3.336c0 .192.048.342.144.45a.488.488 0 0 0 .384.162c.092 0 .168-.01.228-.03.064-.024.118-.048.162-.072.048-.024.09-.046.126-.066a.194.194 0 0 1 .108-.036.16.16 0 0 1 .108.036c.028.02.058.052.09.096l.444.72c-.216.18-.464.316-.744.408a2.77 2.77 0 0 1-.87.138ZM50.423 26.913h-.666c-.14 0-.25-.02-.33-.06-.08-.044-.14-.13-.18-.258l-.132-.438c-.156.14-.31.264-.462.372a2.804 2.804 0 0 1-.462.264c-.16.072-.33.126-.51.162-.18.036-.38.054-.6.054-.26 0-.5-.034-.72-.102a1.618 1.618 0 0 1-.57-.318 1.448 1.448 0 0 1-.366-.522 1.852 1.852 0 0 1-.132-.726c0-.232.06-.46.18-.684.124-.228.328-.432.612-.612.284-.184.662-.336 1.134-.456.472-.12 1.058-.188 1.758-.204v-.36c0-.412-.088-.716-.264-.912-.172-.2-.424-.3-.756-.3a1.837 1.837 0 0 0-1.02.276c-.116.068-.224.13-.324.186a.664.664 0 0 1-.33.084.429.429 0 0 1-.258-.078.614.614 0 0 1-.174-.192l-.27-.474c.708-.648 1.562-.972 2.562-.972.36 0 .68.06.96.18.284.116.524.28.72.492.196.208.344.458.444.75.104.292.156.612.156.96v3.888Zm-2.88-.924c.152 0 .292-.014.42-.042.128-.028.248-.07.36-.126.116-.056.226-.124.33-.204.108-.084.216-.182.324-.294v-1.038c-.432.02-.794.058-1.086.114-.288.052-.52.12-.696.204a.923.923 0 0 0-.378.294.664.664 0 0 0-.108.366c0 .26.076.446.228.558.156.112.358.168.606.168Z"/></svg></g><a id="title" href="https://ourworldindata.org/grapher/number-of-cities-towns-and-suburbs-and-rural-areas" style="font-family:&#x27;Playfair Display&#x27;, Georgia, &#x27;Times New Roman&#x27;, &#x27;Liberation Serif&#x27;, serif" target="_blank" rel="noopener"><text font-size="22.25" font-weight="600" x="16.0" y="37.6" fill="#5b5b5b"><tspan x="16" y="37.582499999999996">Number of cities, towns and suburbs, and rural areas, 1975 to 2030</tspan></text></a><g id="subtitle" class="markdown-text-wrap"><text x="16.0" y="60.9" style="font-size:14.625px;line-height:1.2" fill="#5b5b5b"><tspan x="16" y="60.9">The European Commission combines satellite imagery with national census data to identify <tspan class="dod-span" data-id="cities-degurba">cities</tspan>, <tspan class="dod-span" data-id="towns-suburbs-degurba">towns and</tspan></tspan><tspan x="16" y="78.4"><tspan class="dod-span" data-id="towns-suburbs-degurba">suburbs</tspan>, and <tspan class="dod-span" data-id="rural-areas-degurba">rural areas</tspan> and estimate their respective populations.</tspan></text></g></g><g id="chart-area" style="pointer-events:none"><g id="categorical-color-legend" class="categoricalColorLegend"><g id="swatches"><rect id="Cities" x="16" y="97.8" width="13.5" height="13.5" fill="#4C6A9C" stroke-width="0.4"></rect><rect id="Towns and suburbs" x="82.5" y="97.8" width="13.5" height="13.5" fill="#B13507" stroke-width="0.4"></rect><rect id="Rural areas" x="239.144" y="97.8" width="13.5" height="13.5" fill="#996D39" stroke-width="0.4"></rect></g><g id="labels"><text x="34.5" y="104.55" dy=".32em" font-size="14.4">Cities</text><text x="101" y="104.55" dy=".32em" font-size="14.4">Towns and suburbs</text><text x="257.644" y="104.55" dy=".32em" font-size="14.4">Rural areas</text></g><g><g style="cursor:default"><rect x="16" y="95.3" height="18.5" width="66.5" fill="#fff" opacity="0"></rect></g><g style="cursor:default"><rect x="82.5" y="95.3" height="18.5" width="156.644" fill="#fff" opacity="0"></rect></g><g style="cursor:default"><rect x="239.144" y="95.3" height="18.5" width="105.09200000000001" fill="#fff" opacity="0"></rect></g></g></g><text x="44.911874999999995" y="138.01875" fill="#1d3d63" font-size="14.625" style="font-weight:700">Asia<title>Asia</title></text><g class="LineChart"><defs><clipPath id="boundsClip-1"><rect x="34.911874999999995" y="135.33125" width="421" height="130"></rect></clipPath></defs><rect x="16" y="145.33125" width="401" height="110" fill="none"></rect><g id="horizontal-axis" class="HorizontalAxis"><g id="tick-marks"><line id="1975" x1="44.9" y1="236.8625" x2="44.9" y2="242.3625" stroke="#999" stroke-width="1"></line><line id="2030" x1="416" y1="236.8625" x2="416" y2="242.3625" stroke="#999" stroke-width="1"></line><line id="1990" x1="146.1" y1="236.8625" x2="146.1" y2="242.3625" stroke="#999" stroke-width="1"></line><line id="2000" x1="213.6" y1="236.8625" x2="213.6" y2="242.3625" stroke="#999" stroke-width="1"></line><line id="2010" x1="281.1" y1="236.8625" x2="281.1" y2="242.3625" stroke="#999" stroke-width="1"></line><line id="2020" x1="348.5" y1="236.8625" x2="348.5" y2="242.3625" stroke="#999" stroke-width="1"></line></g><g id="tick-labels"><text x="44.911874999999995" y="253.33125" fill="#5b5b5b" text-anchor="start" font-size="10.96875">1975</text><text x="416" y="253.33125" fill="#5b5b5b" text-anchor="end" font-size="10.96875">2030</text><text x="146.1" y="253.33125" fill="#5b5b5b" text-anchor="middle" font-size="10.96875">1990</text><text x="213.6" y="253.33125" fill="#5b5b5b" text-anchor="middle" font-size="10.96875">2000</text><text x="281.1" y="253.33125" fill="#5b5b5b" text-anchor="middle" font-size="10.96875">2010</text><text x="348.5" y="253.33125" fill="#5b5b5b" text-anchor="middle" font-size="10.96875">2020</text></g></g><g id="vertical-axis" class="VerticalAxis"><g id="tick-labels"><text x="39.91" y="237.4" dy=".32em" text-anchor="end" fill="#5b5b5b" font-size="10.96875">0</text><text x="39.91" y="196.3" dy=".32em" text-anchor="end" fill="#5b5b5b" font-size="10.96875">50k</text><text x="39.91" y="155.2" dy=".32em" text-anchor="end" fill="#5b5b5b" font-size="10.96875">100k</text></g></g><g id="horizontal-grid-lines" class="AxisGridLines horizontalLines"><line id="0" x1="44.91" y1="237.4" x2="416.00" y2="237.4" stroke="#999" stroke-width="1"></line><line id="50k" x1="44.91" y1="196.3" x2="416.00" y2="196.3" stroke="#ddd" stroke-width="1" stroke-dasharray="2,1"></line><line id="100k" x1="44.91" y1="155.2" x2="416.00" y2="155.2" stroke="#ddd" stroke-width="1" stroke-dasharray="2,1"></line></g><g clip-path="url(#boundsClip-1)"><g class="Lines"><rect x="45" y="151" width="371" height="86" fill="rgba(255,255,255,0)" opacity="0"></rect><g id="lines"><path fill="none" stroke-linecap="butt" stroke-linejoin="round" stroke="#ffffff" stroke-width="2.5" stroke-dasharray="2,3" id="outline__Towns and suburbs" d="M382.3 172.7L416 172.2"></path><path fill="none" stroke-linecap="butt" stroke-linejoin="round" stroke="#B13507" stroke-width="1.5" stroke-dasharray="2,3" id="line__Towns and suburbs" d="M382.3 172.7L416 172.2"></path><path fill="none" stroke-linecap="butt" stroke-linejoin="round" stroke="#ffffff" stroke-width="2.5" stroke-dasharray="2,3" id="outline__Cities" d="M382.3 213.1L416 212.6"></path><path fill="none" stroke-linecap="butt" stroke-linejoin="round" stroke="#4C6A9C" stroke-width="1.5" stroke-dasharray="2,3" id="line__Cities" d="M382.3 213.1L416 212.6"></path><path fill="none" stroke-linecap="butt" stroke-linejoin="round" stroke="#ffffff" stroke-width="2.5" stroke-dasharray="2,3" id="outline__Rural areas" d="M382.3 190.6L416 191.6"></path><path fill="none" stroke-linecap="butt" stroke-linejoin="round" stroke="#996D39" stroke-width="1.5" stroke-dasharray="2,3" id="line__Rural areas" d="M382.3 190.6L416 191.6"></path><path fill="none" stroke-linecap="butt" stroke-linejoin="round" stroke="#ffffff" stroke-width="2.5" id="outline__Rural areas" d="M44.9 151.3L78.6 155L112.4 165.1L146.1 171L179.9 175.4L213.6 179.4L247.3 182.5L281.1 185L314.8 187.3L348.5 189.1"></path><path fill="none" stroke-linecap="butt" stroke-linejoin="round" stroke="#996D39" stroke-width="1.5" id="line__Rural areas" d="M44.9 151.3L78.6 155L112.4 165.1L146.1 171L179.9 175.4L213.6 179.4L247.3 182.5L281.1 185L314.8 187.3L348.5 189.1"></path><path fill="none" stroke-linecap="butt" stroke-linejoin="round" stroke="#ffffff" stroke-width="2.5" id="outline__Towns and suburbs" d="M44.9 201.6L78.6 198.6L112.4 190.2L146.1 185.5L179.9 182.5L213.6 179.8L247.3 177.7L281.1 176.2L314.8 174.8L348.5 173.7"></path><path fill="none" stroke-linecap="butt" stroke-linejoin="round" stroke="#B13507" stroke-width="1.5" id="line__Towns and suburbs" d="M44.9 201.6L78.6 198.6L112.4 190.2L146.1 185.5L179.9 182.5L213.6 179.8L247.3 177.7L281.1 176.2L314.8 174.8L348.5 173.7"></path><path fill="none" stroke-linecap="butt" stroke-linejoin="round" stroke="#ffffff" stroke-width="2.5" id="outline__Cities" d="M44.9 223.5L78.6 222.8L112.4 221.2L146.1 219.9L179.9 218.5L213.6 217.3L247.3 216.2L281.1 215.2L314.8 214.3L348.5 213.6"></path><path fill="none" stroke-linecap="butt" stroke-linejoin="round" stroke="#4C6A9C" stroke-width="1.5" id="line__Cities" d="M44.9 223.5L78.6 222.8L112.4 221.2L146.1 219.9L179.9 218.5L213.6 217.3L247.3 216.2L281.1 215.2L314.8 214.3L348.5 213.6"></path></g><g id="markers"></g></g></g></g><text x="460.911875" y="138.01875" fill="#1d3d63" font-size="14.625" style="font-weight:700">Africa<title>Africa</title></text><g class="LineChart"><defs><clipPath id="boundsClip-2"><rect x="450.911875" y="135.33125" width="421" height="130"></rect></clipPath></defs><rect x="432" y="145.33125" width="401" height="110" fill="none"></rect><g id="horizontal-axis" class="HorizontalAxis"><g id="tick-marks"><line id="1975" x1="460.9" y1="236.8625" x2="460.9" y2="242.3625" stroke="#999" stroke-width="1"></line><line id="2030" x1="832" y1="236.8625" x2="832" y2="242.3625" stroke="#999" stroke-width="1"></line><line id="1990" x1="562.1" y1="236.8625" x2="562.1" y2="242.3625" stroke="#999" stroke-width="1"></line><line id="2000" x1="629.6" y1="236.8625" x2="629.6" y2="242.3625" stroke="#999" stroke-width="1"></line><line id="2010" x1="697.1" y1="236.8625" x2="697.1" y2="242.3625" stroke="#999" stroke-width="1"></line><line id="2020" x1="764.5" y1="236.8625" x2="764.5" y2="242.3625" stroke="#999" stroke-width="1"></line></g><g id="tick-labels"><text x="460.911875" y="253.33125" fill="#5b5b5b" text-anchor="start" font-size="10.96875">1975</text><text x="832" y="253.33125" fill="#5b5b5b" text-anchor="end" font-size="10.96875">2030</text><text x="562.1" y="253.33125" fill="#5b5b5b" text-anchor="middle" font-size="10.96875">1990</text><text x="629.6" y="253.33125" fill="#5b5b5b" text-anchor="middle" font-size="10.96875">2000</text><text x="697.1" y="253.33125" fill="#5b5b5b" text-anchor="middle" font-size="10.96875">2010</text><text x="764.5" y="253.33125" fill="#5b5b5b" text-anchor="middle" font-size="10.96875">2020</text></g></g><g id="vertical-axis" class="VerticalAxis"><g id="tick-labels"><text x="455.91" y="237.4" dy=".32em" text-anchor="end" fill="#5b5b5b" font-size="10.96875">0</text><text x="455.91" y="216.3" dy=".32em" text-anchor="end" fill="#5b5b5b" font-size="10.96875">10k</text><text x="455.91" y="195.3" dy=".32em" text-anchor="end" fill="#5b5b5b" font-size="10.96875">20k</text><text x="455.91" y="174.3" dy=".32em" text-anchor="end" fill="#5b5b5b" font-size="10.96875">30k</text><text x="455.91" y="153.2" dy=".32em" text-anchor="end" fill="#5b5b5b" font-size="10.96875">40k</text></g></g><g id="horizontal-grid-lines" class="AxisGridLines horizontalLines"><line id="0" x1="460.91" y1="237.4" x2="832.00" y2="237.4" stroke="#999" stroke-width="1"></line><line id="10k" x1="460.91" y1="216.3" x2="832.00" y2="216.3" stroke="#ddd" stroke-width="1" stroke-dasharray="2,1"></line><line id="20k" x1="460.91" y1="195.3" x2="832.00" y2="195.3" stroke="#ddd" stroke-width="1" stroke-dasharray="2,1"></line><line id="30k" x1="460.91" y1="174.3" x2="832.00" y2="174.3" stroke="#ddd" stroke-width="1" stroke-dasharray="2,1"></line><line id="40k" x1="460.91" y1="153.2" x2="832.00" y2="153.2" stroke="#ddd" stroke-width="1" stroke-dasharray="2,1"></line></g><g clip-path="url(#boundsClip-2)"><g class="Lines"><rect x="461" y="151" width="371" height="86" fill="rgba(255,255,255,0)" opacity="0"></rect><g id="lines"><path fill="none" stroke-linecap="butt" stroke-linejoin="round" stroke="#ffffff" stroke-width="2.5" stroke-dasharray="2,3" id="outline__Towns and suburbs" d="M798.3 164.5L832 162.7"></path><path fill="none" stroke-linecap="butt" stroke-linejoin="round" stroke="#B13507" stroke-width="1.5" stroke-dasharray="2,3" id="line__Towns and suburbs" d="M798.3 164.5L832 162.7"></path><path fill="none" stroke-linecap="butt" stroke-linejoin="round" stroke="#ffffff" stroke-width="2.5" stroke-dasharray="2,3" id="outline__Cities" d="M798.3 224.6L832 223.7"></path><path fill="none" stroke-linecap="butt" stroke-linejoin="round" stroke="#4C6A9C" stroke-width="1.5" stroke-dasharray="2,3" id="line__Cities" d="M798.3 224.6L832 223.7"></path><path fill="none" stroke-linecap="butt" stroke-linejoin="round" stroke="#ffffff" stroke-width="2.5" stroke-dasharray="2,3" id="outline__Rural areas" d="M798.3 203.6L832 206.3"></path><path fill="none" stroke-linecap="butt" stroke-linejoin="round" stroke="#996D39" stroke-width="1.5" stroke-dasharray="2,3" id="line__Rural areas" d="M798.3 203.6L832 206.3"></path><path fill="none" stroke-linecap="butt" stroke-linejoin="round" stroke="#ffffff" stroke-width="2.5" id="outline__Rural areas" d="M460.9 151.3L494.6 154.6L528.4 160.6L562.1 166.1L595.9 165.1L629.6 173.4L663.3 178.7L697.1 186.5L730.8 193.5L764.5 199.3"></path><path fill="none" stroke-linecap="butt" stroke-linejoin="round" stroke="#996D39" stroke-width="1.5" id="line__Rural areas" d="M460.9 151.3L494.6 154.6L528.4 160.6L562.1 166.1L595.9 165.1L629.6 173.4L663.3 178.7L697.1 186.5L730.8 193.5L764.5 199.3"></path><path fill="none" stroke-linecap="butt" stroke-linejoin="round" stroke="#ffffff" stroke-width="2.5" id="outline__Towns and suburbs" d="M460.9 209.2L494.6 206.4L528.4 201.6L562.1 197.1L595.9 198.7L629.6 191.5L663.3 187.1L697.1 180.1L730.8 173.5L764.5 168.2"></path><path fill="none" stroke-linecap="butt" stroke-linejoin="round" stroke="#B13507" stroke-width="1.5" id="line__Towns and suburbs" d="M460.9 209.2L494.6 206.4L528.4 201.6L562.1 197.1L595.9 198.7L629.6 191.5L663.3 187.1L697.1 180.1L730.8 173.5L764.5 168.2"></path><path fill="none" stroke-linecap="butt" stroke-linejoin="round" stroke="#ffffff" stroke-width="2.5" id="outline__Cities" d="M460.9 232.2L494.6 231.8L528.4 230.6L562.1 229.6L595.9 228.9L629.6 227.9L663.3 226.9L697.1 226.1L730.8 225.7L764.5 225.2"></path><path fill="none" stroke-linecap="butt" stroke-linejoin="round" stroke="#4C6A9C" stroke-width="1.5" id="line__Cities" d="M460.9 232.2L494.6 231.8L528.4 230.6L562.1 229.6L595.9 228.9L629.6 227.9L663.3 226.9L697.1 226.1L730.8 225.7L764.5 225.2"></path></g><g id="markers"></g></g></g></g><text x="44.911874999999995" y="285.01875" fill="#1d3d63" font-size="14.625" style="font-weight:700">South America<title>South America</title></text><g class="LineChart"><defs><clipPath id="boundsClip-3"><rect x="34.911874999999995" y="282.33125" width="421" height="130"></rect></clipPath></defs><rect x="16" y="292.33125" width="401" height="110" fill="none"></rect><g id="horizontal-axis" class="HorizontalAxis"><g id="tick-marks"><line id="1975" x1="44.9" y1="383.8625" x2="44.9" y2="389.3625" stroke="#999" stroke-width="1"></line><line id="2030" x1="416" y1="383.8625" x2="416" y2="389.3625" stroke="#999" stroke-width="1"></line><line id="1990" x1="146.1" y1="383.8625" x2="146.1" y2="389.3625" stroke="#999" stroke-width="1"></line><line id="2000" x1="213.6" y1="383.8625" x2="213.6" y2="389.3625" stroke="#999" stroke-width="1"></line><line id="2010" x1="281.1" y1="383.8625" x2="281.1" y2="389.3625" stroke="#999" stroke-width="1"></line><line id="2020" x1="348.5" y1="383.8625" x2="348.5" y2="389.3625" stroke="#999" stroke-width="1"></line></g><g id="tick-labels"><text x="44.911874999999995" y="400.33125" fill="#5b5b5b" text-anchor="start" font-size="10.96875">1975</text><text x="416" y="400.33125" fill="#5b5b5b" text-anchor="end" font-size="10.96875">2030</text><text x="146.1" y="400.33125" fill="#5b5b5b" text-anchor="middle" font-size="10.96875">1990</text><text x="213.6" y="400.33125" fill="#5b5b5b" text-anchor="middle" font-size="10.96875">2000</text><text x="281.1" y="400.33125" fill="#5b5b5b" text-anchor="middle" font-size="10.96875">2010</text><text x="348.5" y="400.33125" fill="#5b5b5b" text-anchor="middle" font-size="10.96875">2020</text></g></g><g id="vertical-axis" class="VerticalAxis"><g id="tick-labels"><text x="39.91" y="384.4" dy=".32em" text-anchor="end" fill="#5b5b5b" font-size="10.96875">0</text><text x="39.91" y="363.2" dy=".32em" text-anchor="end" fill="#5b5b5b" font-size="10.96875">2k</text><text x="39.91" y="342" dy=".32em" text-anchor="end" fill="#5b5b5b" font-size="10.96875">4k</text><text x="39.91" y="320.9" dy=".32em" text-anchor="end" fill="#5b5b5b" font-size="10.96875">6k</text><text x="39.91" y="299.7" dy=".32em" text-anchor="end" fill="#5b5b5b" font-size="10.96875">8k</text></g></g><g id="horizontal-grid-lines" class="AxisGridLines horizontalLines"><line id="0" x1="44.91" y1="384.4" x2="416.00" y2="384.4" stroke="#999" stroke-width="1"></line><line id="2k" x1="44.91" y1="363.2" x2="416.00" y2="363.2" stroke="#ddd" stroke-width="1" stroke-dasharray="2,1"></line><line id="4k" x1="44.91" y1="342" x2="416.00" y2="342" stroke="#ddd" stroke-width="1" stroke-dasharray="2,1"></line><line id="6k" x1="44.91" y1="320.9" x2="416.00" y2="320.9" stroke="#ddd" stroke-width="1" stroke-dasharray="2,1"></line><line id="8k" x1="44.91" y1="299.7" x2="416.00" y2="299.7" stroke="#ddd" stroke-width="1" stroke-dasharray="2,1"></line></g><g clip-path="url(#boundsClip-3)"><g class="Lines"><rect x="45" y="298" width="371" height="86" fill="rgba(255,255,255,0)" opacity="0"></rect><g id="lines"><path fill="none" stroke-linecap="butt" stroke-linejoin="round" stroke="#ffffff" stroke-width="2.5" stroke-dasharray="2,3" id="outline__Towns and suburbs" d="M382.3 344.4L416 344.4"></path><path fill="none" stroke-linecap="butt" stroke-linejoin="round" stroke="#B13507" stroke-width="1.5" stroke-dasharray="2,3" id="line__Towns and suburbs" d="M382.3 344.4L416 344.4"></path><path fill="none" stroke-linecap="butt" stroke-linejoin="round" stroke="#ffffff" stroke-width="2.5" stroke-dasharray="2,3" id="outline__Cities" d="M382.3 372.7L416 372.3"></path><path fill="none" stroke-linecap="butt" stroke-linejoin="round" stroke="#4C6A9C" stroke-width="1.5" stroke-dasharray="2,3" id="line__Cities" d="M382.3 372.7L416 372.3"></path><path fill="none" stroke-linecap="butt" stroke-linejoin="round" stroke="#ffffff" stroke-width="2.5" stroke-dasharray="2,3" id="outline__Rural areas" d="M382.3 312.9L416 313.2"></path><path fill="none" stroke-linecap="butt" stroke-linejoin="round" stroke="#996D39" stroke-width="1.5" stroke-dasharray="2,3" id="line__Rural areas" d="M382.3 312.9L416 313.2"></path><path fill="none" stroke-linecap="butt" stroke-linejoin="round" stroke="#ffffff" stroke-width="2.5" id="outline__Rural areas" d="M44.9 298.3L78.6 299L112.4 301.1L146.1 302.6L179.9 305.7L213.6 307.8L247.3 309.4L281.1 310.4L314.8 311.2L348.5 312.4"></path><path fill="none" stroke-linecap="butt" stroke-linejoin="round" stroke="#996D39" stroke-width="1.5" id="line__Rural areas" d="M44.9 298.3L78.6 299L112.4 301.1L146.1 302.6L179.9 305.7L213.6 307.8L247.3 309.4L281.1 310.4L314.8 311.2L348.5 312.4"></path><path fill="none" stroke-linecap="butt" stroke-linejoin="round" stroke="#ffffff" stroke-width="2.5" id="outline__Towns and suburbs" d="M44.9 352.5L78.6 352.3L112.4 351.2L146.1 350.4L179.9 348.5L213.6 347.1L247.3 346.2L281.1 345.7L314.8 345.5L348.5 344.7"></path><path fill="none" stroke-linecap="butt" stroke-linejoin="round" stroke="#B13507" stroke-width="1.5" id="line__Towns and suburbs" d="M44.9 352.5L78.6 352.3L112.4 351.2L146.1 350.4L179.9 348.5L213.6 347.1L247.3 346.2L281.1 345.7L314.8 345.5L348.5 344.7"></path><path fill="none" stroke-linecap="butt" stroke-linejoin="round" stroke="#ffffff" stroke-width="2.5" id="outline__Cities" d="M44.9 379.2L78.6 378.7L112.4 377.7L146.1 376.9L179.9 375.9L213.6 375.2L247.3 374.4L281.1 373.9L314.8 373.3L348.5 373"></path><path fill="none" stroke-linecap="butt" stroke-linejoin="round" stroke="#4C6A9C" stroke-width="1.5" id="line__Cities" d="M44.9 379.2L78.6 378.7L112.4 377.7L146.1 376.9L179.9 375.9L213.6 375.2L247.3 374.4L281.1 373.9L314.8 373.3L348.5 373"></path></g><g id="markers"></g></g></g></g><text x="460.911875" y="285.01875" fill="#1d3d63" font-size="14.625" style="font-weight:700">North America<title>North America</title></text><g class="LineChart"><defs><clipPath id="boundsClip-4"><rect x="450.911875" y="282.33125" width="421" height="130"></rect></clipPath></defs><rect x="432" y="292.33125" width="401" height="110" fill="none"></rect><g id="horizontal-axis" class="HorizontalAxis"><g id="tick-marks"><line id="1975" x1="460.9" y1="383.8625" x2="460.9" y2="389.3625" stroke="#999" stroke-width="1"></line><line id="2030" x1="832" y1="383.8625" x2="832" y2="389.3625" stroke="#999" stroke-width="1"></line><line id="1990" x1="562.1" y1="383.8625" x2="562.1" y2="389.3625" stroke="#999" stroke-width="1"></line><line id="2000" x1="629.6" y1="383.8625" x2="629.6" y2="389.3625" stroke="#999" stroke-width="1"></line><line id="2010" x1="697.1" y1="383.8625" x2="697.1" y2="389.3625" stroke="#999" stroke-width="1"></line><line id="2020" x1="764.5" y1="383.8625" x2="764.5" y2="389.3625" stroke="#999" stroke-width="1"></line></g><g id="tick-labels"><text x="460.911875" y="400.33125" fill="#5b5b5b" text-anchor="start" font-size="10.96875">1975</text><text x="832" y="400.33125" fill="#5b5b5b" text-anchor="end" font-size="10.96875">2030</text><text x="562.1" y="400.33125" fill="#5b5b5b" text-anchor="middle" font-size="10.96875">1990</text><text x="629.6" y="400.33125" fill="#5b5b5b" text-anchor="middle" font-size="10.96875">2000</text><text x="697.1" y="400.33125" fill="#5b5b5b" text-anchor="middle" font-size="10.96875">2010</text><text x="764.5" y="400.33125" fill="#5b5b5b" text-anchor="middle" font-size="10.96875">2020</text></g></g><g id="vertical-axis" class="VerticalAxis"><g id="tick-labels"><text x="455.91" y="384.4" dy=".32em" text-anchor="end" fill="#5b5b5b" font-size="10.96875">0</text><text x="455.91" y="347.5" dy=".32em" text-anchor="end" fill="#5b5b5b" font-size="10.96875">5k</text><text x="455.91" y="310.6" dy=".32em" text-anchor="end" fill="#5b5b5b" font-size="10.96875">10k</text></g></g><g id="horizontal-grid-lines" class="AxisGridLines horizontalLines"><line id="0" x1="460.91" y1="384.4" x2="832.00" y2="384.4" stroke="#999" stroke-width="1"></line><line id="5k" x1="460.91" y1="347.5" x2="832.00" y2="347.5" stroke="#ddd" stroke-width="1" stroke-dasharray="2,1"></line><line id="10k" x1="460.91" y1="310.6" x2="832.00" y2="310.6" stroke="#ddd" stroke-width="1" stroke-dasharray="2,1"></line></g><g clip-path="url(#boundsClip-4)"><g class="Lines"><rect x="461" y="298" width="371" height="86" fill="rgba(255,255,255,0)" opacity="0"></rect><g id="lines"><path fill="none" stroke-linecap="butt" stroke-linejoin="round" stroke="#ffffff" stroke-width="2.5" stroke-dasharray="2,3" id="outline__Towns and suburbs" d="M798.3 360L832 359.7"></path><path fill="none" stroke-linecap="butt" stroke-linejoin="round" stroke="#B13507" stroke-width="1.5" stroke-dasharray="2,3" id="line__Towns and suburbs" d="M798.3 360L832 359.7"></path><path fill="none" stroke-linecap="butt" stroke-linejoin="round" stroke="#ffffff" stroke-width="2.5" stroke-dasharray="2,3" id="outline__Cities" d="M798.3 376.6L832 376.4"></path><path fill="none" stroke-linecap="butt" stroke-linejoin="round" stroke="#4C6A9C" stroke-width="1.5" stroke-dasharray="2,3" id="line__Cities" d="M798.3 376.6L832 376.4"></path><path fill="none" stroke-linecap="butt" stroke-linejoin="round" stroke="#ffffff" stroke-width="2.5" stroke-dasharray="2,3" id="outline__Rural areas" d="M798.3 308.9L832 309.3"></path><path fill="none" stroke-linecap="butt" stroke-linejoin="round" stroke="#996D39" stroke-width="1.5" stroke-dasharray="2,3" id="line__Rural areas" d="M798.3 308.9L832 309.3"></path><path fill="none" stroke-linecap="butt" stroke-linejoin="round" stroke="#ffffff" stroke-width="2.5" id="outline__Rural areas" d="M460.9 298.3L494.6 299.7L528.4 301.2L562.1 302.2L595.9 303.6L629.6 305L663.3 306.1L697.1 306.8L730.8 307.4L764.5 308.3"></path><path fill="none" stroke-linecap="butt" stroke-linejoin="round" stroke="#996D39" stroke-width="1.5" id="line__Rural areas" d="M460.9 298.3L494.6 299.7L528.4 301.2L562.1 302.2L595.9 303.6L629.6 305L663.3 306.1L697.1 306.8L730.8 307.4L764.5 308.3"></path><path fill="none" stroke-linecap="butt" stroke-linejoin="round" stroke="#ffffff" stroke-width="2.5" id="outline__Towns and suburbs" d="M460.9 366.6L494.6 365.6L528.4 364.6L562.1 364L595.9 363.1L629.6 362.1L663.3 361.4L697.1 361.1L730.8 361L764.5 360.4"></path><path fill="none" stroke-linecap="butt" stroke-linejoin="round" stroke="#B13507" stroke-width="1.5" id="line__Towns and suburbs" d="M460.9 366.6L494.6 365.6L528.4 364.6L562.1 364L595.9 363.1L629.6 362.1L663.3 361.4L697.1 361.1L730.8 361L764.5 360.4"></path><path fill="none" stroke-linecap="butt" stroke-linejoin="round" stroke="#ffffff" stroke-width="2.5" id="outline__Cities" d="M460.9 380.5L494.6 380.2L528.4 379.7L562.1 379.3L595.9 378.8L629.6 378.3L663.3 377.9L697.1 377.6L730.8 377.1L764.5 376.8"></path><path fill="none" stroke-linecap="butt" stroke-linejoin="round" stroke="#4C6A9C" stroke-width="1.5" id="line__Cities" d="M460.9 380.5L494.6 380.2L528.4 379.7L562.1 379.3L595.9 378.8L629.6 378.3L663.3 377.9L697.1 377.6L730.8 377.1L764.5 376.8"></path></g><g id="markers"></g></g></g></g><text x="44.911874999999995" y="432.01875" fill="#1d3d63" font-size="14.625" style="font-weight:700">Europe<title>Europe</title></text><g class="LineChart"><defs><clipPath id="boundsClip-5"><rect x="34.911874999999995" y="429.33125" width="421" height="130"></rect></clipPath></defs><rect x="16" y="439.33125" width="401" height="110" fill="none"></rect><g id="horizontal-axis" class="HorizontalAxis"><g id="tick-marks"><line id="1975" x1="44.9" y1="530.8625" x2="44.9" y2="536.3625" stroke="#999" stroke-width="1"></line><line id="2030" x1="416" y1="530.8625" x2="416" y2="536.3625" stroke="#999" stroke-width="1"></line><line id="1990" x1="146.1" y1="530.8625" x2="146.1" y2="536.3625" stroke="#999" stroke-width="1"></line><line id="2000" x1="213.6" y1="530.8625" x2="213.6" y2="536.3625" stroke="#999" stroke-width="1"></line><line id="2010" x1="281.1" y1="530.8625" x2="281.1" y2="536.3625" stroke="#999" stroke-width="1"></line><line id="2020" x1="348.5" y1="530.8625" x2="348.5" y2="536.3625" stroke="#999" stroke-width="1"></line></g><g id="tick-labels"><text x="44.911874999999995" y="547.33125" fill="#5b5b5b" text-anchor="start" font-size="10.96875">1975</text><text x="416" y="547.33125" fill="#5b5b5b" text-anchor="end" font-size="10.96875">2030</text><text x="146.1" y="547.33125" fill="#5b5b5b" text-anchor="middle" font-size="10.96875">1990</text><text x="213.6" y="547.33125" fill="#5b5b5b" text-anchor="middle" font-size="10.96875">2000</text><text x="281.1" y="547.33125" fill="#5b5b5b" text-anchor="middle" font-size="10.96875">2010</text><text x="348.5" y="547.33125" fill="#5b5b5b" text-anchor="middle" font-size="10.96875">2020</text></g></g><g id="vertical-axis" class="VerticalAxis"><g id="tick-labels"><text x="39.91" y="531.4" dy=".32em" text-anchor="end" fill="#5b5b5b" font-size="10.96875">0</text><text x="39.91" y="510.7" dy=".32em" text-anchor="end" fill="#5b5b5b" font-size="10.96875">20k</text><text x="39.91" y="490.1" dy=".32em" text-anchor="end" fill="#5b5b5b" font-size="10.96875">40k</text><text x="39.91" y="469.4" dy=".32em" text-anchor="end" fill="#5b5b5b" font-size="10.96875">60k</text><text x="39.91" y="448.7" dy=".32em" text-anchor="end" fill="#5b5b5b" font-size="10.96875">80k</text></g></g><g id="horizontal-grid-lines" class="AxisGridLines horizontalLines"><line id="0" x1="44.91" y1="531.4" x2="416.00" y2="531.4" stroke="#999" stroke-width="1"></line><line id="20k" x1="44.91" y1="510.7" x2="416.00" y2="510.7" stroke="#ddd" stroke-width="1" stroke-dasharray="2,1"></line><line id="40k" x1="44.91" y1="490.1" x2="416.00" y2="490.1" stroke="#ddd" stroke-width="1" stroke-dasharray="2,1"></line><line id="60k" x1="44.91" y1="469.4" x2="416.00" y2="469.4" stroke="#ddd" stroke-width="1" stroke-dasharray="2,1"></line><line id="80k" x1="44.91" y1="448.7" x2="416.00" y2="448.7" stroke="#ddd" stroke-width="1" stroke-dasharray="2,1"></line></g><g clip-path="url(#boundsClip-5)"><g class="Lines"><rect x="45" y="445" width="371" height="86" fill="rgba(255,255,255,0)" opacity="0"></rect><g id="lines"><path fill="none" stroke-linecap="butt" stroke-linejoin="round" stroke="#ffffff" stroke-width="2.5" stroke-dasharray="2,3" id="outline__Towns and suburbs" d="M382.3 511.9L416 512.2"></path><path fill="none" stroke-linecap="butt" stroke-linejoin="round" stroke="#B13507" stroke-width="1.5" stroke-dasharray="2,3" id="line__Towns and suburbs" d="M382.3 511.9L416 512.2"></path><path fill="none" stroke-linecap="butt" stroke-linejoin="round" stroke="#ffffff" stroke-width="2.5" stroke-dasharray="2,3" id="outline__Cities" d="M382.3 523.8L416 523.7"></path><path fill="none" stroke-linecap="butt" stroke-linejoin="round" stroke="#4C6A9C" stroke-width="1.5" stroke-dasharray="2,3" id="line__Cities" d="M382.3 523.8L416 523.7"></path><path fill="none" stroke-linecap="butt" stroke-linejoin="round" stroke="#ffffff" stroke-width="2.5" stroke-dasharray="2,3" id="outline__Rural areas" d="M382.3 447.8L416 447.6"></path><path fill="none" stroke-linecap="butt" stroke-linejoin="round" stroke="#996D39" stroke-width="1.5" stroke-dasharray="2,3" id="line__Rural areas" d="M382.3 447.8L416 447.6"></path><path fill="none" stroke-linecap="butt" stroke-linejoin="round" stroke="#ffffff" stroke-width="2.5" id="outline__Rural areas" d="M44.9 445.3L78.6 445.5L112.4 445.8L146.1 446L179.9 446.6L213.6 447L247.3 447.4L281.1 447.8L314.8 448L348.5 448"></path><path fill="none" stroke-linecap="butt" stroke-linejoin="round" stroke="#996D39" stroke-width="1.5" id="line__Rural areas" d="M44.9 445.3L78.6 445.5L112.4 445.8L146.1 446L179.9 446.6L213.6 447L247.3 447.4L281.1 447.8L314.8 448L348.5 448"></path><path fill="none" stroke-linecap="butt" stroke-linejoin="round" stroke="#ffffff" stroke-width="2.5" id="outline__Towns and suburbs" d="M44.9 513.4L78.6 513.3L112.4 513.1L146.1 513.1L179.9 512.6L213.6 512.3L247.3 512L281.1 511.7L314.8 511.7L348.5 511.7"></path><path fill="none" stroke-linecap="butt" stroke-linejoin="round" stroke="#B13507" stroke-width="1.5" id="line__Towns and suburbs" d="M44.9 513.4L78.6 513.3L112.4 513.1L146.1 513.1L179.9 512.6L213.6 512.3L247.3 512L281.1 511.7L314.8 511.7L348.5 511.7"></path><path fill="none" stroke-linecap="butt" stroke-linejoin="round" stroke="#ffffff" stroke-width="2.5" id="outline__Cities" d="M44.9 524.8L78.6 524.7L112.4 524.6L146.1 524.4L179.9 524.3L213.6 524.2L247.3 524.1L281.1 524L314.8 523.9L348.5 523.8"></path><path fill="none" stroke-linecap="butt" stroke-linejoin="round" stroke="#4C6A9C" stroke-width="1.5" id="line__Cities" d="M44.9 524.8L78.6 524.7L112.4 524.6L146.1 524.4L179.9 524.3L213.6 524.2L247.3 524.1L281.1 524L314.8 523.9L348.5 523.8"></path></g><g id="markers"></g></g></g></g><text x="460.911875" y="432.01875" fill="#1d3d63" font-size="14.625" style="font-weight:700">Oceania<title>Oceania</title></text><g class="LineChart"><defs><clipPath id="boundsClip-6"><rect x="450.911875" y="429.33125" width="421" height="130"></rect></clipPath></defs><rect x="432" y="439.33125" width="401" height="110" fill="none"></rect><g id="horizontal-axis" class="HorizontalAxis"><g id="tick-marks"><line id="1975" x1="460.9" y1="530.8625" x2="460.9" y2="536.3625" stroke="#999" stroke-width="1"></line><line id="2030" x1="832" y1="530.8625" x2="832" y2="536.3625" stroke="#999" stroke-width="1"></line><line id="1990" x1="562.1" y1="530.8625" x2="562.1" y2="536.3625" stroke="#999" stroke-width="1"></line><line id="2000" x1="629.6" y1="530.8625" x2="629.6" y2="536.3625" stroke="#999" stroke-width="1"></line><line id="2010" x1="697.1" y1="530.8625" x2="697.1" y2="536.3625" stroke="#999" stroke-width="1"></line><line id="2020" x1="764.5" y1="530.8625" x2="764.5" y2="536.3625" stroke="#999" stroke-width="1"></line></g><g id="tick-labels"><text x="460.911875" y="547.33125" fill="#5b5b5b" text-anchor="start" font-size="10.96875">1975</text><text x="832" y="547.33125" fill="#5b5b5b" text-anchor="end" font-size="10.96875">2030</text><text x="562.1" y="547.33125" fill="#5b5b5b" text-anchor="middle" font-size="10.96875">1990</text><text x="629.6" y="547.33125" fill="#5b5b5b" text-anchor="middle" font-size="10.96875">2000</text><text x="697.1" y="547.33125" fill="#5b5b5b" text-anchor="middle" font-size="10.96875">2010</text><text x="764.5" y="547.33125" fill="#5b5b5b" text-anchor="middle" font-size="10.96875">2020</text></g></g><g id="vertical-axis" class="VerticalAxis"><g id="tick-labels"><text x="455.91" y="531.4" dy=".32em" text-anchor="end" fill="#5b5b5b" font-size="10.96875">0</text><text x="455.91" y="489.8" dy=".32em" text-anchor="end" fill="#5b5b5b" font-size="10.96875">500</text><text x="455.91" y="448.3" dy=".32em" text-anchor="end" fill="#5b5b5b" font-size="10.96875">1k</text></g></g><g id="horizontal-grid-lines" class="AxisGridLines horizontalLines"><line id="0" x1="460.91" y1="531.4" x2="832.00" y2="531.4" stroke="#999" stroke-width="1"></line><line id="500" x1="460.91" y1="489.8" x2="832.00" y2="489.8" stroke="#ddd" stroke-width="1" stroke-dasharray="2,1"></line><line id="1k" x1="460.91" y1="448.3" x2="832.00" y2="448.3" stroke="#ddd" stroke-width="1" stroke-dasharray="2,1"></line></g><g clip-path="url(#boundsClip-6)"><g class="Lines"><rect x="461" y="445" width="371" height="86" fill="rgba(255,255,255,0)" opacity="0"></rect><g id="lines"><path fill="none" stroke-linecap="butt" stroke-linejoin="round" stroke="#ffffff" stroke-width="2.5" stroke-dasharray="2,3" id="outline__Towns and suburbs" d="M798.3 511.6L832 511.6"></path><path fill="none" stroke-linecap="butt" stroke-linejoin="round" stroke="#B13507" stroke-width="1.5" stroke-dasharray="2,3" id="line__Towns and suburbs" d="M798.3 511.6L832 511.6"></path><path fill="none" stroke-linecap="butt" stroke-linejoin="round" stroke="#ffffff" stroke-width="2.5" stroke-dasharray="2,3" id="outline__Cities" d="M798.3 518.2L832 517.8"></path><path fill="none" stroke-linecap="butt" stroke-linejoin="round" stroke="#4C6A9C" stroke-width="1.5" stroke-dasharray="2,3" id="line__Cities" d="M798.3 518.2L832 517.8"></path><path fill="none" stroke-linecap="butt" stroke-linejoin="round" stroke="#ffffff" stroke-width="2.5" stroke-dasharray="2,3" id="outline__Rural areas" d="M798.3 452.2L832 452.6"></path><path fill="none" stroke-linecap="butt" stroke-linejoin="round" stroke="#996D39" stroke-width="1.5" stroke-dasharray="2,3" id="line__Rural areas" d="M798.3 452.2L832 452.6"></path><path fill="none" stroke-linecap="butt" stroke-linejoin="round" stroke="#ffffff" stroke-width="2.5" id="outline__Rural areas" d="M460.9 445.3L494.6 445.7L528.4 447.2L562.1 448.5L595.9 449.2L629.6 450.5L663.3 451.2L697.1 451.6L730.8 451.9L764.5 452.1"></path><path fill="none" stroke-linecap="butt" stroke-linejoin="round" stroke="#996D39" stroke-width="1.5" id="line__Rural areas" d="M460.9 445.3L494.6 445.7L528.4 447.2L562.1 448.5L595.9 449.2L629.6 450.5L663.3 451.2L697.1 451.6L730.8 451.9L764.5 452.1"></path><path fill="none" stroke-linecap="butt" stroke-linejoin="round" stroke="#ffffff" stroke-width="2.5" id="outline__Towns and suburbs" d="M460.9 514.5L494.6 514.3L528.4 513.2L562.1 512.2L595.9 511.7L629.6 511.5L663.3 510.9L697.1 510.6L730.8 510.5L764.5 510.9"></path><path fill="none" stroke-linecap="butt" stroke-linejoin="round" stroke="#B13507" stroke-width="1.5" id="line__Towns and suburbs" d="M460.9 514.5L494.6 514.3L528.4 513.2L562.1 512.2L595.9 511.7L629.6 511.5L663.3 510.9L697.1 510.6L730.8 510.5L764.5 510.9"></path><path fill="none" stroke-linecap="butt" stroke-linejoin="round" stroke="#ffffff" stroke-width="2.5" id="outline__Cities" d="M460.9 522.1L494.6 521.9L528.4 521.6L562.1 521.3L595.9 521.1L629.6 520L663.3 519.9L697.1 519.7L730.8 519.6L764.5 519"></path><path fill="none" stroke-linecap="butt" stroke-linejoin="round" stroke="#4C6A9C" stroke-width="1.5" id="line__Cities" d="M460.9 522.1L494.6 521.9L528.4 521.6L562.1 521.3L595.9 521.1L629.6 520L663.3 519.9L697.1 519.7L730.8 519.6L764.5 519"></path></g><g id="markers"></g></g></g></g></g><g id="footer" class="SourcesFooter" style="fill:#5b5b5b"><g id="sources" class="markdown-text-wrap"><text x="16.0" y="580.9" style="font-size:13.5px;line-height:1.2"><tspan x="16" y="580.9"><tspan style="font-weight:700">Data source:</tspan> European Commission, Joint Research Centre (JRC) (2023)</tspan></text></g><text id="origin-url" font-size="13.50" x="583.7" y="580.9"><tspan x="583.71" y="580.895"><a target="_blank" style="fill: #5b5b5b;" href="https://ourworldindata.org/urbanization">OurWorldinData.org/urbanization</a> | <a target="_blank" style="fill: #5b5b5b;" href="https://creativecommons.org/licenses/by/4.0/">CC BY</a></tspan></text></g></svg>