<svg xmlns="http://www.w3.org/2000/svg" version="1.1" style="font-family:Lato, &#x27;Helvetica Neue&#x27;, Helvetica, Arial, &#x27;Liberation Sans&#x27;, sans-serif;font-size:18px;background-color:white;text-rendering:geometricPrecision;-webkit-font-smoothing:antialiased" width="850" height="600" viewBox="0 0 850 600"><defs><style>@import url(https://ourworldindata.org/fonts.css)</style></defs><defs><pattern id="noDataPattern" patternUnits="userSpaceOnUse" width="4" height="4" patternTransform="rotate(-45 2 2)"><path d="M -1,2 l 6,0" stroke="#ccc" stroke-width="0.7"></path></pattern></defs><rect class="background-fill" fill="white" width="850" height="600"></rect><g id="header" class="HeaderView"><g id="logo" transform="translate(769, 16) scale(1)"><svg className="owidLogo" xmlns="http://www.w3.org/2000/svg" width="65" height="36" viewBox="0 0 65 36"  fill="none"><path fill="#002147" d="M0 0h64.8v36H0z"/><path fill="#CE261E" d="M0 33.3h64.8V36H0z"/><path fill="#fff" d="M13.796 10.575c0 .636-.106 1.226-.318 1.77a4.193 4.193 0 0 1-.894 1.404 4.084 4.084 0 0 1-1.386.93c-.54.22-1.138.33-1.794.33-.656 0-1.256-.11-1.8-.33a4.149 4.149 0 0 1-1.392-.93 4.193 4.193 0 0 1-.894-1.404A4.833 4.833 0 0 1 5 10.575c0-.636.106-1.224.318-1.764a4.18 4.18 0 0 1 .894-1.41 4.076 4.076 0 0 1 1.392-.924 4.684 4.684 0 0 1 1.8-.336c.656 0 1.254.112 1.794.336.54.224 1.002.534 1.386.93.384.392.682.86.894 1.404.212.54.318 1.128.318 1.764Zm-1.656 0c0-.476-.064-.902-.192-1.278a2.671 2.671 0 0 0-.54-.966 2.332 2.332 0 0 0-.864-.606 2.94 2.94 0 0 0-1.14-.21c-.424 0-.806.07-1.146.21-.34.14-.63.342-.87.606a2.742 2.742 0 0 0-.546.966 3.955 3.955 0 0 0-.192 1.278c0 .476.064.904.192 1.284.128.376.31.696.546.96.24.26.53.46.87.6.34.14.722.21 1.146.21.424 0 .804-.07 1.14-.21.34-.14.628-.34.864-.6.236-.264.416-.584.54-.96a4.01 4.01 0 0 0 .192-1.284ZM16.104 8.757v3.912c0 .376.086.668.258.876.176.204.438.306.786.306.256 0 .496-.056.72-.168a2.58 2.58 0 0 0 .636-.474V8.757h1.482v6.156h-.906c-.192 0-.318-.09-.378-.27l-.102-.492a4.65 4.65 0 0 1-.396.354 2.577 2.577 0 0 1-.438.27 2.35 2.35 0 0 1-.498.168 2.345 2.345 0 0 1-.57.066c-.336 0-.634-.056-.894-.168a1.821 1.821 0 0 1-.648-.486 2.157 2.157 0 0 1-.402-.738 3.233 3.233 0 0 1-.132-.948V8.757h1.482ZM21.328 14.913V8.757h.87c.152 0 .258.028.318.084.06.056.1.152.12.288l.09.744c.22-.38.478-.68.774-.9.296-.22.628-.33.996-.33.304 0 .556.07.756.21l-.192 1.11c-.012.072-.038.124-.078.156a.278.278 0 0 1-.162.042 1.01 1.01 0 0 1-.246-.042 1.646 1.646 0 0 0-.414-.042c-.308 0-.572.086-.792.258-.22.168-.406.416-.558.744v3.834h-1.482ZM27.347 6.237h1.356a.57.57 0 0 1 .348.102c.096.064.16.152.192.264l1.476 5.19c.036.128.068.268.096.42.032.148.062.306.09.474a5.968 5.968 0 0 1 .228-.894l1.704-5.19a.575.575 0 0 1 .186-.252.543.543 0 0 1 .348-.114h.474a.57.57 0 0 1 .348.102.497.497 0 0 1 .192.264l1.692 5.19c.088.256.164.54.228.852.028-.156.056-.306.084-.45.032-.144.064-.278.096-.402l1.476-5.19c.028-.1.09-.186.186-.258a.563.563 0 0 1 .348-.108h1.266l-2.694 8.676h-1.458l-1.896-5.928-.078-.246a9.504 9.504 0 0 1-.072-.282c-.024.1-.05.194-.078.282-.024.088-.048.17-.072.246l-1.914 5.928H30.04l-2.694-8.676ZM42.771 8.661c.46 0 .876.074 1.248.222.376.148.696.358.96.63s.468.604.612.996c.144.392.216.83.216 1.314 0 .488-.072.928-.216 1.32a2.85 2.85 0 0 1-.612 1.002 2.653 2.653 0 0 1-.96.636 3.35 3.35 0 0 1-1.248.222c-.46 0-.878-.074-1.254-.222a2.712 2.712 0 0 1-.966-.636 2.922 2.922 0 0 1-.618-1.002 3.807 3.807 0 0 1-.216-1.32c0-.484.072-.922.216-1.314.148-.392.354-.724.618-.996.268-.272.59-.482.966-.63a3.397 3.397 0 0 1 1.254-.222Zm0 5.202c.512 0 .89-.172 1.134-.516.248-.344.372-.848.372-1.512s-.124-1.17-.372-1.518c-.244-.348-.622-.522-1.134-.522-.52 0-.904.176-1.152.528-.248.348-.372.852-.372 1.512s.124 1.164.372 1.512c.248.344.632.516 1.152.516ZM46.723 14.913V8.757h.87c.152 0 .258.028.318.084.06.056.1.152.12.288l.09.744c.22-.38.478-.68.774-.9.296-.22.628-.33.996-.33.304 0 .556.07.756.21l-.192 1.11c-.012.072-.038.124-.078.156a.278.278 0 0 1-.162.042 1.01 1.01 0 0 1-.246-.042 1.646 1.646 0 0 0-.414-.042c-.308 0-.572.086-.792.258-.22.168-.406.416-.558.744v3.834h-1.482ZM52.96 5.997v8.916h-1.482V5.997h1.482ZM58.732 14.913c-.192 0-.318-.09-.378-.27l-.12-.594a3.68 3.68 0 0 1-.402.39c-.14.116-.292.216-.456.3-.16.084-.334.148-.522.192a2.372 2.372 0 0 1-.6.072c-.336 0-.644-.07-.924-.21a2.098 2.098 0 0 1-.726-.606 3.033 3.033 0 0 1-.468-.99 5.072 5.072 0 0 1-.162-1.344c0-.456.062-.88.186-1.272s.302-.732.534-1.02c.232-.288.51-.512.834-.672a2.384 2.384 0 0 1 1.092-.246 2.103 2.103 0 0 1 1.536.606V5.997h1.482v8.916h-.906Zm-1.974-1.086c.308 0 .57-.064.786-.192.216-.128.42-.31.612-.546v-2.76a1.452 1.452 0 0 0-.552-.432 1.597 1.597 0 0 0-.636-.126c-.224 0-.428.042-.612.126a1.21 1.21 0 0 0-.462.384c-.124.168-.22.384-.288.648-.068.26-.102.568-.102.924 0 .36.028.666.084.918.06.248.144.452.252.612.108.156.24.27.396.342.156.068.33.102.522.102ZM16.331 20.757v6.156H14.85v-6.156h1.481Zm.223-1.794a.844.844 0 0 1-.078.36.963.963 0 0 1-.21.294.995.995 0 0 1-.3.204.963.963 0 0 1-.372.072.948.948 0 0 1-.367-.072 1.018 1.018 0 0 1-.498-.498.963.963 0 0 1 0-.732.995.995 0 0 1 .205-.3.929.929 0 0 1 .293-.198.899.899 0 0 1 .738 0 .912.912 0 0 1 .3.198.943.943 0 0 1 .288.672ZM17.771 26.913v-6.156h.906c.192 0 .318.09.378.27l.102.486a2.934 2.934 0 0 1 .828-.618c.156-.076.322-.134.498-.174.176-.04.368-.06.576-.06.336 0 .634.058.894.174.26.112.476.272.648.48.176.204.308.45.396.738.092.284.138.598.138.942v3.918h-1.482v-3.918c0-.376-.088-.666-.264-.87-.172-.208-.432-.312-.78-.312-.256 0-.496.058-.72.174a2.58 2.58 0 0 0-.636.474v4.452h-1.482ZM34.22 22.575c0 .636-.106 1.22-.318 1.752-.212.532-.51.99-.894 1.374a4 4 0 0 1-1.386.894 4.87 4.87 0 0 1-1.794.318h-3.312v-8.676h3.312a4.79 4.79 0 0 1 1.794.324 4 4 0 0 1 1.386.894c.384.38.682.836.894 1.368.212.532.318 1.116.318 1.752Zm-1.65 0c0-.476-.064-.902-.192-1.278a2.68 2.68 0 0 0-.546-.96 2.332 2.332 0 0 0-.864-.606 2.94 2.94 0 0 0-1.14-.21h-1.686v6.108h1.686c.424 0 .804-.07 1.14-.21.34-.14.628-.34.864-.6a2.75 2.75 0 0 0 .546-.96 4.01 4.01 0 0 0 .192-1.284ZM39.98 26.913h-.665c-.14 0-.25-.02-.33-.06-.08-.044-.14-.13-.18-.258l-.132-.438c-.156.14-.31.264-.462.372a2.804 2.804 0 0 1-.462.264c-.16.072-.33.126-.51.162-.18.036-.38.054-.6.054-.26 0-.5-.034-.72-.102a1.618 1.618 0 0 1-.57-.318 1.448 1.448 0 0 1-.366-.522 1.852 1.852 0 0 1-.132-.726c0-.232.06-.46.18-.684.124-.228.328-.432.612-.612.284-.184.662-.336 1.134-.456.472-.12 1.058-.188 1.758-.204v-.36c0-.412-.088-.716-.264-.912-.172-.2-.424-.3-.756-.3a1.837 1.837 0 0 0-1.02.276c-.116.068-.224.13-.324.186a.664.664 0 0 1-.33.084.429.429 0 0 1-.258-.078.614.614 0 0 1-.174-.192l-.27-.474c.708-.648 1.562-.972 2.562-.972.36 0 .68.06.96.18.284.116.524.28.72.492.196.208.344.458.444.75.104.292.156.612.156.96v3.888Zm-2.88-.924c.153 0 .293-.014.42-.042.129-.028.249-.07.36-.126.117-.056.227-.124.33-.204.109-.084.217-.182.325-.294v-1.038c-.432.02-.794.058-1.086.114-.288.052-.52.12-.696.204a.923.923 0 0 0-.378.294.664.664 0 0 0-.108.366c0 .26.076.446.228.558.156.112.358.168.606.168ZM43.22 27.01c-.532 0-.942-.15-1.23-.45-.288-.305-.432-.723-.432-1.255v-3.438h-.624a.31.31 0 0 1-.21-.078c-.056-.052-.084-.13-.084-.234v-.588l.99-.162.312-1.68a.302.302 0 0 1 .108-.186.365.365 0 0 1 .222-.066h.768v1.938h1.62v1.056h-1.62v3.336c0 .192.048.342.144.45a.488.488 0 0 0 .384.162c.092 0 .168-.01.228-.03.064-.024.118-.048.162-.072.048-.024.09-.046.126-.066a.194.194 0 0 1 .108-.036.16.16 0 0 1 .108.036c.028.02.058.052.09.096l.444.72c-.216.18-.464.316-.744.408a2.77 2.77 0 0 1-.87.138ZM50.423 26.913h-.666c-.14 0-.25-.02-.33-.06-.08-.044-.14-.13-.18-.258l-.132-.438c-.156.14-.31.264-.462.372a2.804 2.804 0 0 1-.462.264c-.16.072-.33.126-.51.162-.18.036-.38.054-.6.054-.26 0-.5-.034-.72-.102a1.618 1.618 0 0 1-.57-.318 1.448 1.448 0 0 1-.366-.522 1.852 1.852 0 0 1-.132-.726c0-.232.06-.46.18-.684.124-.228.328-.432.612-.612.284-.184.662-.336 1.134-.456.472-.12 1.058-.188 1.758-.204v-.36c0-.412-.088-.716-.264-.912-.172-.2-.424-.3-.756-.3a1.837 1.837 0 0 0-1.02.276c-.116.068-.224.13-.324.186a.664.664 0 0 1-.33.084.429.429 0 0 1-.258-.078.614.614 0 0 1-.174-.192l-.27-.474c.708-.648 1.562-.972 2.562-.972.36 0 .68.06.96.18.284.116.524.28.72.492.196.208.344.458.444.75.104.292.156.612.156.96v3.888Zm-2.88-.924c.152 0 .292-.014.42-.042.128-.028.248-.07.36-.126.116-.056.226-.124.33-.204.108-.084.216-.182.324-.294v-1.038c-.432.02-.794.058-1.086.114-.288.052-.52.12-.696.204a.923.923 0 0 0-.378.294.664.664 0 0 0-.108.366c0 .26.076.446.228.558.156.112.358.168.606.168Z"/></svg></g><a id="title" href="https://ourworldindata.org/grapher/organic-agricultural-area" style="font-family:&#x27;Playfair Display&#x27;, Georgia, &#x27;Times New Roman&#x27;, &#x27;Liberation Serif&#x27;, serif" target="_blank" rel="noopener"><text font-size="24.75" font-weight="600" x="16.0" y="40.0" fill="#5b5b5b"><tspan x="16" y="40.0075">Organic agricultural area, World, 1961 to 2020</tspan></text></a><g id="subtitle" class="markdown-text-wrap"><text x="16.0" y="63.9" style="font-size:14.625px;line-height:1.2" fill="#5b5b5b"><tspan x="16" y="63.9">Total organic area is defined as the land area certified as organic, or in the conversion process to organic (over a</tspan><tspan x="16" y="81.4">two year period). It is the portion of land area (including arable lands, pastures or wild areas) managed (cultivated)</tspan><tspan x="16" y="99.0">or wild harvested in accordance with specific organic standards.</tspan></text></g></g><g id="chart-area" style="pointer-events:none"><g id="line-chart" class="LineChart"><defs><clipPath id="boundsClip-1"><rect x="75.80000000000001" y="108.35" width="838" height="453.45"></rect></clipPath></defs><rect x="16" y="118.35" width="818" height="433.45" fill="none"></rect><g id="dual-axis" class="DualAxisView"><g id="horizontal-axis" class="HorizontalAxis"><g id="tick__1961"><line x1="85.8" y1="530.8" x2="85.8" y2="536.3" stroke="#999" stroke-width="1"></line><text x="85.80000000000001" y="549.8" fill="#5b5b5b" text-anchor="start" font-size="13.5">1961</text></g><g id="tick__2020"><line x1="650.8" y1="530.8" x2="650.8" y2="536.3" stroke="#999" stroke-width="1"></line><text x="650.77" y="549.8" fill="#5b5b5b" text-anchor="end" font-size="13.5">2020</text></g><g id="tick__1970"><line x1="172" y1="530.8" x2="172" y2="536.3" stroke="#999" stroke-width="1"></line><text x="172" y="549.8" fill="#5b5b5b" text-anchor="middle" font-size="13.5">1970</text></g><g id="tick__1980"><line x1="267.7" y1="530.8" x2="267.7" y2="536.3" stroke="#999" stroke-width="1"></line><text x="267.7" y="549.8" fill="#5b5b5b" text-anchor="middle" font-size="13.5">1980</text></g><g id="tick__1990"><line x1="363.5" y1="530.8" x2="363.5" y2="536.3" stroke="#999" stroke-width="1"></line><text x="363.5" y="549.8" fill="#5b5b5b" text-anchor="middle" font-size="13.5">1990</text></g><g id="tick__2000"><line x1="459.3" y1="530.8" x2="459.3" y2="536.3" stroke="#999" stroke-width="1"></line><text x="459.3" y="549.8" fill="#5b5b5b" text-anchor="middle" font-size="13.5">2000</text></g><g id="tick__2010"><line x1="555" y1="530.8" x2="555" y2="536.3" stroke="#999" stroke-width="1"></line><text x="555" y="549.8" fill="#5b5b5b" text-anchor="middle" font-size="13.5">2010</text></g></g><g id="vertical-axis" class="VerticalAxis"><g id="tick-labels"><text id="tick-label__0-ha" x="80.80" y="531.3" dy=".32em" text-anchor="end" fill="#5b5b5b" font-size="13.5">0 ha</text><text id="tick-label__1-billion-ha" x="80.80" y="447.9" dy=".32em" text-anchor="end" fill="#5b5b5b" font-size="13.5">1 billion ha</text><text id="tick-label__2-billion-ha" x="80.80" y="364.5" dy=".32em" text-anchor="end" fill="#5b5b5b" font-size="13.5">2 billion ha</text><text id="tick-label__3-billion-ha" x="80.80" y="281.1" dy=".32em" text-anchor="end" fill="#5b5b5b" font-size="13.5">3 billion ha</text><text id="tick-label__4-billion-ha" x="80.80" y="197.7" dy=".32em" text-anchor="end" fill="#5b5b5b" font-size="13.5">4 billion ha</text></g></g><g id="horizontal-grid-lines" class="AxisGridLines horizontalLines"><line id="grid-line__0" x1="85.80" y1="531.3" x2="650.77" y2="531.3" stroke="#999" stroke-width="1"></line><line id="grid-line__1000000000" x1="85.80" y1="447.9" x2="650.77" y2="447.9" stroke="#ddd" stroke-width="1" stroke-dasharray="3,2"></line><line id="grid-line__2000000000" x1="85.80" y1="364.5" x2="650.77" y2="364.5" stroke="#ddd" stroke-width="1" stroke-dasharray="3,2"></line><line id="grid-line__3000000000" x1="85.80" y1="281.1" x2="650.77" y2="281.1" stroke="#ddd" stroke-width="1" stroke-dasharray="3,2"></line><line id="grid-line__4000000000" x1="85.80" y1="197.7" x2="650.77" y2="197.7" stroke="#ddd" stroke-width="1" stroke-dasharray="3,2"></line></g></g><g clip-path="url(#boundsClip-1)"><g id="line-labels" class="LineLabels"><g id="mark__Agricultural-area" class="legendMark" style="cursor:default"><rect id="background" x="650.77" y="128.95" width="133.55" height="13.5" fill="#fff" opacity="0"></rect><text id="label" font-size="13.50" font-weight="400" x="654.8" y="140.7" fill="#2c8465"><tspan x="654.77" y="140.695">Agricultural area</tspan></text></g><g id="mark__Organic-agricultural-area" class="legendMark" style="cursor:default"><rect id="background" x="650.77" y="519.45" width="183.23000000000002" height="13.5" fill="#fff" opacity="0"></rect><text id="label" font-size="13.50" font-weight="400" x="654.8" y="531.2" fill="#c15065"><tspan x="654.77" y="531.195">Organic agricultural area</tspan></text></g></g><g id="lines" class="Lines"><rect x="86" y="124" width="565" height="407" fill="rgba(255,255,255,0)" opacity="0"></rect><g id="line__Agricultural-area"><path stroke-linecap="round" stroke-linejoin="round" stroke="#ddd" d="M85.8 161L95.4 160.2L105 159.4L114.5 158.6L124.1 157.3L133.7 156.7L143.3 155.8L152.8 152.9L162.4 151.9L172 153.1L181.6 151.9L191.1 150.9L200.7 149.5L210.3 148.6L219.9 148.1L229.4 147.9L239 147.8L248.6 146.5L258.2 145.9L267.7 144.6L277.3 144.4L286.9 143L296.5 142.3L306 139.8L315.6 137.2L325.2 136.9L334.8 135.6L344.3 134.1L353.9 133.1L363.5 132.2L373.1 131.9L382.6 128.7L392.2 130L401.8 128.3L411.4 128.6L421 127.9L430.5 126.2L440.1 125.1L449.7 124.9L459.3 124.5L468.8 124.3L478.4 125.3L488 126.6L497.6 129.9L507.1 129.3L516.7 129.5L526.3 130.2L535.9 131.3L545.4 131.6L555 131.5L564.6 129.9L574.2 133.8L583.7 134.6L593.3 134.7L602.9 136.7L612.5 137L622 134L631.6 135.2L641.2 135.1L650.8 135.7" fill="none" stroke-width="1"></path></g><g id="line__Organic-agricultural-area"><path stroke-linecap="round" stroke-linejoin="round" stroke="#ddd" d="M497.6 529.8L507.1 529.8L516.7 529.6L526.3 529.2L535.9 530.2L545.4 529L555 530L564.6 529.2L574.2 529L583.7 529.1L593.3 528.6L602.9 528.2L612.5 529.6L622 529.8L631.6 526.7L641.2 526.6L650.8 526.2" fill="none" stroke-width="1"></path></g><g id="line__Agricultural-area"><path id="outline" fill="none" stroke-linecap="butt" stroke-linejoin="round" stroke="#fff" stroke-width="2.5" d="M85.8 161L95.4 160.2L105 159.4L114.5 158.6L124.1 157.3L133.7 156.7L143.3 155.8L152.8 152.9L162.4 151.9L172 153.1L181.6 151.9L191.1 150.9L200.7 149.5L210.3 148.6L219.9 148.1L229.4 147.9L239 147.8L248.6 146.5L258.2 145.9L267.7 144.6L277.3 144.4L286.9 143L296.5 142.3L306 139.8L315.6 137.2L325.2 136.9L334.8 135.6L344.3 134.1L353.9 133.1L363.5 132.2L373.1 131.9L382.6 128.7L392.2 130L401.8 128.3L411.4 128.6L421 127.9L430.5 126.2L440.1 125.1L449.7 124.9L459.3 124.5L468.8 124.3L478.4 125.3L488 126.6L497.6 129.9L507.1 129.3L516.7 129.5L526.3 130.2L535.9 131.3L545.4 131.6L555 131.5L564.6 129.9L574.2 133.8L583.7 134.6L593.3 134.7L602.9 136.7L612.5 137L622 134L631.6 135.2L641.2 135.1L650.8 135.7"></path><g id="polyline"><polyline id="polyline" points="85.80,161.00 95.40,160.20 105.00,159.40 114.50,158.60 124.10,157.30 133.70,156.70 143.30,155.80 152.80,152.90 162.40,151.90 172.00,153.10 181.60,151.90 191.10,150.90 200.70,149.50 210.30,148.60 219.90,148.10 229.40,147.90 239.00,147.80 248.60,146.50 258.20,145.90 267.70,144.60 277.30,144.40 286.90,143.00 296.50,142.30 306.00,139.80 315.60,137.20 325.20,136.90 334.80,135.60 344.30,134.10 353.90,133.10 363.50,132.20 373.10,131.90 382.60,128.70 392.20,130.00 401.80,128.30 411.40,128.60 421.00,127.90 430.50,126.20 440.10,125.10 449.70,124.90 459.30,124.50 468.80,124.30 478.40,125.30 488.00,126.60 497.60,129.90 507.10,129.30 516.70,129.50 526.30,130.20 535.90,131.30 545.40,131.60 555.00,131.50 564.60,129.90 574.20,133.80 583.70,134.60 593.30,134.70 602.90,136.70 612.50,137.00 622.00,134.00 631.60,135.20 641.20,135.10 650.80,135.70" stroke-linejoin="round" stroke-width="1.5" stroke="#2C8465" fill="none" stroke-linecap="butt"></polyline></g><g id="markers"><circle cx="85.8" cy="161" r="1.8" fill="#2C8465"></circle><circle cx="95.4" cy="160.2" r="1.8" fill="#2C8465"></circle><circle cx="105" cy="159.4" r="1.8" fill="#2C8465"></circle><circle cx="114.5" cy="158.6" r="1.8" fill="#2C8465"></circle><circle cx="124.1" cy="157.3" r="1.8" fill="#2C8465"></circle><circle cx="133.7" cy="156.7" r="1.8" fill="#2C8465"></circle><circle cx="143.3" cy="155.8" r="1.8" fill="#2C8465"></circle><circle cx="152.8" cy="152.9" r="1.8" fill="#2C8465"></circle><circle cx="162.4" cy="151.9" r="1.8" fill="#2C8465"></circle><circle cx="172" cy="153.1" r="1.8" fill="#2C8465"></circle><circle cx="181.6" cy="151.9" r="1.8" fill="#2C8465"></circle><circle cx="191.1" cy="150.9" r="1.8" fill="#2C8465"></circle><circle cx="200.7" cy="149.5" r="1.8" fill="#2C8465"></circle><circle cx="210.3" cy="148.6" r="1.8" fill="#2C8465"></circle><circle cx="219.9" cy="148.1" r="1.8" fill="#2C8465"></circle><circle cx="229.4" cy="147.9" r="1.8" fill="#2C8465"></circle><circle cx="239" cy="147.8" r="1.8" fill="#2C8465"></circle><circle cx="248.6" cy="146.5" r="1.8" fill="#2C8465"></circle><circle cx="258.2" cy="145.9" r="1.8" fill="#2C8465"></circle><circle cx="267.7" cy="144.6" r="1.8" fill="#2C8465"></circle><circle cx="277.3" cy="144.4" r="1.8" fill="#2C8465"></circle><circle cx="286.9" cy="143" r="1.8" fill="#2C8465"></circle><circle cx="296.5" cy="142.3" r="1.8" fill="#2C8465"></circle><circle cx="306" cy="139.8" r="1.8" fill="#2C8465"></circle><circle cx="315.6" cy="137.2" r="1.8" fill="#2C8465"></circle><circle cx="325.2" cy="136.9" r="1.8" fill="#2C8465"></circle><circle cx="334.8" cy="135.6" r="1.8" fill="#2C8465"></circle><circle cx="344.3" cy="134.1" r="1.8" fill="#2C8465"></circle><circle cx="353.9" cy="133.1" r="1.8" fill="#2C8465"></circle><circle cx="363.5" cy="132.2" r="1.8" fill="#2C8465"></circle><circle cx="373.1" cy="131.9" r="1.8" fill="#2C8465"></circle><circle cx="382.6" cy="128.7" r="1.8" fill="#2C8465"></circle><circle cx="392.2" cy="130" r="1.8" fill="#2C8465"></circle><circle cx="401.8" cy="128.3" r="1.8" fill="#2C8465"></circle><circle cx="411.4" cy="128.6" r="1.8" fill="#2C8465"></circle><circle cx="421" cy="127.9" r="1.8" fill="#2C8465"></circle><circle cx="430.5" cy="126.2" r="1.8" fill="#2C8465"></circle><circle cx="440.1" cy="125.1" r="1.8" fill="#2C8465"></circle><circle cx="449.7" cy="124.9" r="1.8" fill="#2C8465"></circle><circle cx="459.3" cy="124.5" r="1.8" fill="#2C8465"></circle><circle cx="468.8" cy="124.3" r="1.8" fill="#2C8465"></circle><circle cx="478.4" cy="125.3" r="1.8" fill="#2C8465"></circle><circle cx="488" cy="126.6" r="1.8" fill="#2C8465"></circle><circle cx="497.6" cy="129.9" r="1.8" fill="#2C8465"></circle><circle cx="507.1" cy="129.3" r="1.8" fill="#2C8465"></circle><circle cx="516.7" cy="129.5" r="1.8" fill="#2C8465"></circle><circle cx="526.3" cy="130.2" r="1.8" fill="#2C8465"></circle><circle cx="535.9" cy="131.3" r="1.8" fill="#2C8465"></circle><circle cx="545.4" cy="131.6" r="1.8" fill="#2C8465"></circle><circle cx="555" cy="131.5" r="1.8" fill="#2C8465"></circle><circle cx="564.6" cy="129.9" r="1.8" fill="#2C8465"></circle><circle cx="574.2" cy="133.8" r="1.8" fill="#2C8465"></circle><circle cx="583.7" cy="134.6" r="1.8" fill="#2C8465"></circle><circle cx="593.3" cy="134.7" r="1.8" fill="#2C8465"></circle><circle cx="602.9" cy="136.7" r="1.8" fill="#2C8465"></circle><circle cx="612.5" cy="137" r="1.8" fill="#2C8465"></circle><circle cx="622" cy="134" r="1.8" fill="#2C8465"></circle><circle cx="631.6" cy="135.2" r="1.8" fill="#2C8465"></circle><circle cx="641.2" cy="135.1" r="1.8" fill="#2C8465"></circle><circle cx="650.8" cy="135.7" r="1.8" fill="#2C8465"></circle></g></g><g id="line__Organic-agricultural-area"><path id="outline" fill="none" stroke-linecap="butt" stroke-linejoin="round" stroke="#fff" stroke-width="2.5" d="M497.6 529.8L507.1 529.8L516.7 529.6L526.3 529.2L535.9 530.2L545.4 529L555 530L564.6 529.2L574.2 529L583.7 529.1L593.3 528.6L602.9 528.2L612.5 529.6L622 529.8L631.6 526.7L641.2 526.6L650.8 526.2"></path><g id="polyline"><polyline id="polyline" points="497.60,529.80 507.10,529.80 516.70,529.60 526.30,529.20 535.90,530.20 545.40,529.00 555.00,530.00 564.60,529.20 574.20,529.00 583.70,529.10 593.30,528.60 602.90,528.20 612.50,529.60 622.00,529.80 631.60,526.70 641.20,526.60 650.80,526.20" stroke-linejoin="round" stroke-width="1.5" stroke="#C15065" fill="none" stroke-linecap="butt"></polyline></g><g id="markers"><circle cx="497.6" cy="529.8" r="1.8" fill="#C15065"></circle><circle cx="507.1" cy="529.8" r="1.8" fill="#C15065"></circle><circle cx="516.7" cy="529.6" r="1.8" fill="#C15065"></circle><circle cx="526.3" cy="529.2" r="1.8" fill="#C15065"></circle><circle cx="535.9" cy="530.2" r="1.8" fill="#C15065"></circle><circle cx="545.4" cy="529" r="1.8" fill="#C15065"></circle><circle cx="555" cy="530" r="1.8" fill="#C15065"></circle><circle cx="564.6" cy="529.2" r="1.8" fill="#C15065"></circle><circle cx="574.2" cy="529" r="1.8" fill="#C15065"></circle><circle cx="583.7" cy="529.1" r="1.8" fill="#C15065"></circle><circle cx="593.3" cy="528.6" r="1.8" fill="#C15065"></circle><circle cx="602.9" cy="528.2" r="1.8" fill="#C15065"></circle><circle cx="612.5" cy="529.6" r="1.8" fill="#C15065"></circle><circle cx="622" cy="529.8" r="1.8" fill="#C15065"></circle><circle cx="631.6" cy="526.7" r="1.8" fill="#C15065"></circle><circle cx="641.2" cy="526.6" r="1.8" fill="#C15065"></circle><circle cx="650.8" cy="526.2" r="1.8" fill="#C15065"></circle></g></g></g></g></g></g><g id="footer" class="SourcesFooter" style="fill:#5b5b5b"><g id="sources" class="markdown-text-wrap"><text x="16.0" y="580.9" style="font-size:13.5px;line-height:1.2"><tspan x="16" y="580.9"><tspan style="font-weight:700">Data source:</tspan> Food and Agriculture Organization of the United Nations</tspan></text></g><text id="origin-url" font-size="13.50" x="604.8" y="580.9"><tspan x="604.77" y="580.895"><a target="_blank" style="fill: #5b5b5b;" href="https://ourworldindata.org/land-use">OurWorldInData.org/land-use</a> | <a target="_blank" style="fill: #5b5b5b;" href="https://creativecommons.org/licenses/by/4.0/">CC BY</a></tspan></text></g></svg>