<svg
  xmlns="http://www.w3.org/2000/svg"
  version="1.1"
  style="font-family:Lato, &#x27;Helvetica Neue&#x27;, Helvetica, Arial, &#x27;Liberation Sans&#x27;, sans-serif;font-size:18px;background-color:#ffffff;text-rendering:geometricPrecision;-webkit-font-smoothing:antialiased"
  width="850"
  height="600"
  viewBox="0 0 850 600"
>
  <defs>
    <style>
      @import url(https://ourworldindata.org/fonts.css);
    </style>
  </defs>
  <defs>
    <pattern
      id="noDataPattern"
      patternUnits="userSpaceOnUse"
      width="4"
      height="4"
      patternTransform="rotate(-45 2 2)"
    >
      <path d="M -1,2 l 6,0" stroke="#ccc" stroke-width="0.7"></path>
    </pattern>
  </defs>
  <rect class="background-fill" fill="#ffffff" width="850" height="600"></rect>
  <g id="header" class="HeaderView">
    <g id="logo" transform="translate(769, 16) scale(1)">
      <svg
        className="owidLogo"
        xmlns="http://www.w3.org/2000/svg"
        width="65"
        height="36"
        viewBox="0 0 65 36"
        fill="none"
      >
        <path fill="#002147" d="M0 0h64.8v36H0z" />
        <path fill="#CE261E" d="M0 33.3h64.8V36H0z" />
        <path
          fill="#fff"
          d="M13.796 10.575c0 .636-.106 1.226-.318 1.77a4.193 4.193 0 0 1-.894 1.404 4.084 4.084 0 0 1-1.386.93c-.54.22-1.138.33-1.794.33-.656 0-1.256-.11-1.8-.33a4.149 4.149 0 0 1-1.392-.93 4.193 4.193 0 0 1-.894-1.404A4.833 4.833 0 0 1 5 10.575c0-.636.106-1.224.318-1.764a4.18 4.18 0 0 1 .894-1.41 4.076 4.076 0 0 1 1.392-.924 4.684 4.684 0 0 1 1.8-.336c.656 0 1.254.112 1.794.336.54.224 1.002.534 1.386.93.384.392.682.86.894 1.404.212.54.318 1.128.318 1.764Zm-1.656 0c0-.476-.064-.902-.192-1.278a2.671 2.671 0 0 0-.54-.966 2.332 2.332 0 0 0-.864-.606 2.94 2.94 0 0 0-1.14-.21c-.424 0-.806.07-1.146.21-.34.14-.63.342-.87.606a2.742 2.742 0 0 0-.546.966 3.955 3.955 0 0 0-.192 1.278c0 .476.064.904.192 1.284.128.376.31.696.546.96.24.26.53.46.87.6.34.14.722.21 1.146.21.424 0 .804-.07 1.14-.21.34-.14.628-.34.864-.6.236-.264.416-.584.54-.96a4.01 4.01 0 0 0 .192-1.284ZM16.104 8.757v3.912c0 .376.086.668.258.876.176.204.438.306.786.306.256 0 .496-.056.72-.168a2.58 2.58 0 0 0 .636-.474V8.757h1.482v6.156h-.906c-.192 0-.318-.09-.378-.27l-.102-.492a4.65 4.65 0 0 1-.396.354 2.577 2.577 0 0 1-.438.27 2.35 2.35 0 0 1-.498.168 2.345 2.345 0 0 1-.57.066c-.336 0-.634-.056-.894-.168a1.821 1.821 0 0 1-.648-.486 2.157 2.157 0 0 1-.402-.738 3.233 3.233 0 0 1-.132-.948V8.757h1.482ZM21.328 14.913V8.757h.87c.152 0 .258.028.318.084.06.056.1.152.12.288l.09.744c.22-.38.478-.68.774-.9.296-.22.628-.33.996-.33.304 0 .556.07.756.21l-.192 1.11c-.012.072-.038.124-.078.156a.278.278 0 0 1-.162.042 1.01 1.01 0 0 1-.246-.042 1.646 1.646 0 0 0-.414-.042c-.308 0-.572.086-.792.258-.22.168-.406.416-.558.744v3.834h-1.482ZM27.347 6.237h1.356a.57.57 0 0 1 .348.102c.096.064.16.152.192.264l1.476 5.19c.036.128.068.268.096.42.032.148.062.306.09.474a5.968 5.968 0 0 1 .228-.894l1.704-5.19a.575.575 0 0 1 .186-.252.543.543 0 0 1 .348-.114h.474a.57.57 0 0 1 .348.102.497.497 0 0 1 .192.264l1.692 5.19c.088.256.164.54.228.852.028-.156.056-.306.084-.45.032-.144.064-.278.096-.402l1.476-5.19c.028-.1.09-.186.186-.258a.563.563 0 0 1 .348-.108h1.266l-2.694 8.676h-1.458l-1.896-5.928-.078-.246a9.504 9.504 0 0 1-.072-.282c-.024.1-.05.194-.078.282-.024.088-.048.17-.072.246l-1.914 5.928H30.04l-2.694-8.676ZM42.771 8.661c.46 0 .876.074 1.248.222.376.148.696.358.96.63s.468.604.612.996c.144.392.216.83.216 1.314 0 .488-.072.928-.216 1.32a2.85 2.85 0 0 1-.612 1.002 2.653 2.653 0 0 1-.96.636 3.35 3.35 0 0 1-1.248.222c-.46 0-.878-.074-1.254-.222a2.712 2.712 0 0 1-.966-.636 2.922 2.922 0 0 1-.618-1.002 3.807 3.807 0 0 1-.216-1.32c0-.484.072-.922.216-1.314.148-.392.354-.724.618-.996.268-.272.59-.482.966-.63a3.397 3.397 0 0 1 1.254-.222Zm0 5.202c.512 0 .89-.172 1.134-.516.248-.344.372-.848.372-1.512s-.124-1.17-.372-1.518c-.244-.348-.622-.522-1.134-.522-.52 0-.904.176-1.152.528-.248.348-.372.852-.372 1.512s.124 1.164.372 1.512c.248.344.632.516 1.152.516ZM46.723 14.913V8.757h.87c.152 0 .258.028.318.084.06.056.1.152.12.288l.09.744c.22-.38.478-.68.774-.9.296-.22.628-.33.996-.33.304 0 .556.07.756.21l-.192 1.11c-.012.072-.038.124-.078.156a.278.278 0 0 1-.162.042 1.01 1.01 0 0 1-.246-.042 1.646 1.646 0 0 0-.414-.042c-.308 0-.572.086-.792.258-.22.168-.406.416-.558.744v3.834h-1.482ZM52.96 5.997v8.916h-1.482V5.997h1.482ZM58.732 14.913c-.192 0-.318-.09-.378-.27l-.12-.594a3.68 3.68 0 0 1-.402.39c-.14.116-.292.216-.456.3-.16.084-.334.148-.522.192a2.372 2.372 0 0 1-.6.072c-.336 0-.644-.07-.924-.21a2.098 2.098 0 0 1-.726-.606 3.033 3.033 0 0 1-.468-.99 5.072 5.072 0 0 1-.162-1.344c0-.456.062-.88.186-1.272s.302-.732.534-1.02c.232-.288.51-.512.834-.672a2.384 2.384 0 0 1 1.092-.246 2.103 2.103 0 0 1 1.536.606V5.997h1.482v8.916h-.906Zm-1.974-1.086c.308 0 .57-.064.786-.192.216-.128.42-.31.612-.546v-2.76a1.452 1.452 0 0 0-.552-.432 1.597 1.597 0 0 0-.636-.126c-.224 0-.428.042-.612.126a1.21 1.21 0 0 0-.462.384c-.124.168-.22.384-.288.648-.068.26-.102.568-.102.924 0 .36.028.666.084.918.06.248.144.452.252.612.108.156.24.27.396.342.156.068.33.102.522.102ZM16.331 20.757v6.156H14.85v-6.156h1.481Zm.223-1.794a.844.844 0 0 1-.078.36.963.963 0 0 1-.21.294.995.995 0 0 1-.3.204.963.963 0 0 1-.372.072.948.948 0 0 1-.367-.072 1.018 1.018 0 0 1-.498-.498.963.963 0 0 1 0-.732.995.995 0 0 1 .205-.3.929.929 0 0 1 .293-.198.899.899 0 0 1 .738 0 .912.912 0 0 1 .3.198.943.943 0 0 1 .288.672ZM17.771 26.913v-6.156h.906c.192 0 .318.09.378.27l.102.486a2.934 2.934 0 0 1 .828-.618c.156-.076.322-.134.498-.174.176-.04.368-.06.576-.06.336 0 .634.058.894.174.26.112.476.272.648.48.176.204.308.45.396.738.092.284.138.598.138.942v3.918h-1.482v-3.918c0-.376-.088-.666-.264-.87-.172-.208-.432-.312-.78-.312-.256 0-.496.058-.72.174a2.58 2.58 0 0 0-.636.474v4.452h-1.482ZM34.22 22.575c0 .636-.106 1.22-.318 1.752-.212.532-.51.99-.894 1.374a4 4 0 0 1-1.386.894 4.87 4.87 0 0 1-1.794.318h-3.312v-8.676h3.312a4.79 4.79 0 0 1 1.794.324 4 4 0 0 1 1.386.894c.384.38.682.836.894 1.368.212.532.318 1.116.318 1.752Zm-1.65 0c0-.476-.064-.902-.192-1.278a2.68 2.68 0 0 0-.546-.96 2.332 2.332 0 0 0-.864-.606 2.94 2.94 0 0 0-1.14-.21h-1.686v6.108h1.686c.424 0 .804-.07 1.14-.21.34-.14.628-.34.864-.6a2.75 2.75 0 0 0 .546-.96 4.01 4.01 0 0 0 .192-1.284ZM39.98 26.913h-.665c-.14 0-.25-.02-.33-.06-.08-.044-.14-.13-.18-.258l-.132-.438c-.156.14-.31.264-.462.372a2.804 2.804 0 0 1-.462.264c-.16.072-.33.126-.51.162-.18.036-.38.054-.6.054-.26 0-.5-.034-.72-.102a1.618 1.618 0 0 1-.57-.318 1.448 1.448 0 0 1-.366-.522 1.852 1.852 0 0 1-.132-.726c0-.232.06-.46.18-.684.124-.228.328-.432.612-.612.284-.184.662-.336 1.134-.456.472-.12 1.058-.188 1.758-.204v-.36c0-.412-.088-.716-.264-.912-.172-.2-.424-.3-.756-.3a1.837 1.837 0 0 0-1.02.276c-.116.068-.224.13-.324.186a.664.664 0 0 1-.33.084.429.429 0 0 1-.258-.078.614.614 0 0 1-.174-.192l-.27-.474c.708-.648 1.562-.972 2.562-.972.36 0 .68.06.96.18.284.116.524.28.72.492.196.208.344.458.444.75.104.292.156.612.156.96v3.888Zm-2.88-.924c.153 0 .293-.014.42-.042.129-.028.249-.07.36-.126.117-.056.227-.124.33-.204.109-.084.217-.182.325-.294v-1.038c-.432.02-.794.058-1.086.114-.288.052-.52.12-.696.204a.923.923 0 0 0-.378.294.664.664 0 0 0-.108.366c0 .26.076.446.228.558.156.112.358.168.606.168ZM43.22 27.01c-.532 0-.942-.15-1.23-.45-.288-.305-.432-.723-.432-1.255v-3.438h-.624a.31.31 0 0 1-.21-.078c-.056-.052-.084-.13-.084-.234v-.588l.99-.162.312-1.68a.302.302 0 0 1 .108-.186.365.365 0 0 1 .222-.066h.768v1.938h1.62v1.056h-1.62v3.336c0 .192.048.342.144.45a.488.488 0 0 0 .384.162c.092 0 .168-.01.228-.03.064-.024.118-.048.162-.072.048-.024.09-.046.126-.066a.194.194 0 0 1 .108-.036.16.16 0 0 1 .108.036c.028.02.058.052.09.096l.444.72c-.216.18-.464.316-.744.408a2.77 2.77 0 0 1-.87.138ZM50.423 26.913h-.666c-.14 0-.25-.02-.33-.06-.08-.044-.14-.13-.18-.258l-.132-.438c-.156.14-.31.264-.462.372a2.804 2.804 0 0 1-.462.264c-.16.072-.33.126-.51.162-.18.036-.38.054-.6.054-.26 0-.5-.034-.72-.102a1.618 1.618 0 0 1-.57-.318 1.448 1.448 0 0 1-.366-.522 1.852 1.852 0 0 1-.132-.726c0-.232.06-.46.18-.684.124-.228.328-.432.612-.612.284-.184.662-.336 1.134-.456.472-.12 1.058-.188 1.758-.204v-.36c0-.412-.088-.716-.264-.912-.172-.2-.424-.3-.756-.3a1.837 1.837 0 0 0-1.02.276c-.116.068-.224.13-.324.186a.664.664 0 0 1-.33.084.429.429 0 0 1-.258-.078.614.614 0 0 1-.174-.192l-.27-.474c.708-.648 1.562-.972 2.562-.972.36 0 .68.06.96.18.284.116.524.28.72.492.196.208.344.458.444.75.104.292.156.612.156.96v3.888Zm-2.88-.924c.152 0 .292-.014.42-.042.128-.028.248-.07.36-.126.116-.056.226-.124.33-.204.108-.084.216-.182.324-.294v-1.038c-.432.02-.794.058-1.086.114-.288.052-.52.12-.696.204a.923.923 0 0 0-.378.294.664.664 0 0 0-.108.366c0 .26.076.446.228.558.156.112.358.168.606.168Z"
        />
      </svg>
    </g>
    <a
      id="title"
      href="https://ourworldindata.org/grapher/people-living-in-long-standing-democracies-womsuffr-bmr"
      style="font-family:&#x27;Playfair Display&#x27;, Georgia, &#x27;Times New Roman&#x27;, &#x27;Liberation Serif&#x27;, serif"
      target="_blank"
      rel="noopener"
    >
      <text
        font-size="24.75"
        font-weight="600"
        x="16.0"
        y="40.0"
        fill="#5b5b5b"
      >
        <tspan x="16" y="40.0075">
          People living in long-standing democracies, World
        </tspan>
      </text>
    </a>
    <g id="subtitle" class="markdown-text-wrap">
      <text
        x="16.0"
        y="63.9"
        style="font-size: 14.625px; line-height: 1.2"
        fill="#5b5b5b"
      >
        <tspan x="16" y="63.9">
          Based on the
          <tspan class="dod-span" data-id="democracy-boix-miller-rosato">
            classification
          </tspan>
          and estimates by Boix et al. (2013). Democracies are understood here
          as political
        </tspan>
        <tspan x="16" y="81.4">
          systems in which political leaders are elected under broad rights for
          men and women to vote in free and fair
        </tspan>
        <tspan x="16" y="99.0">elections.</tspan>
      </text>
    </g>
  </g>
  <g id="chart-area" style="pointer-events: none">
    <g id="horizontal-axis" class="HorizontalAxis">
      <g id="tick-marks">
        <line
          id="1800"
          x1="66.9"
          y1="530.8"
          x2="66.9"
          y2="536.3"
          stroke="#999"
          stroke-width="1"
        ></line>
        <line
          id="2020"
          x1="693"
          y1="530.8"
          x2="693"
          y2="536.3"
          stroke="#999"
          stroke-width="1"
        ></line>
        <line
          id="1850"
          x1="209.2"
          y1="530.8"
          x2="209.2"
          y2="536.3"
          stroke="#999"
          stroke-width="1"
        ></line>
        <line
          id="1900"
          x1="351.5"
          y1="530.8"
          x2="351.5"
          y2="536.3"
          stroke="#999"
          stroke-width="1"
        ></line>
        <line
          id="1950"
          x1="493.8"
          y1="530.8"
          x2="493.8"
          y2="536.3"
          stroke="#999"
          stroke-width="1"
        ></line>
        <line
          id="2000"
          x1="636"
          y1="530.8"
          x2="636"
          y2="536.3"
          stroke="#999"
          stroke-width="1"
        ></line>
      </g>
      <g id="tick-labels">
        <text
          x="66.9"
          y="549.8"
          fill="#5b5b5b"
          text-anchor="start"
          font-size="13.5"
        >
          1800
        </text>
        <text
          x="692.95"
          y="549.8"
          fill="#5b5b5b"
          text-anchor="end"
          font-size="13.5"
        >
          2020
        </text>
        <text
          x="209.2"
          y="549.8"
          fill="#5b5b5b"
          text-anchor="middle"
          font-size="13.5"
        >
          1850
        </text>
        <text
          x="351.5"
          y="549.8"
          fill="#5b5b5b"
          text-anchor="middle"
          font-size="13.5"
        >
          1900
        </text>
        <text
          x="493.8"
          y="549.8"
          fill="#5b5b5b"
          text-anchor="middle"
          font-size="13.5"
        >
          1950
        </text>
        <text
          x="636"
          y="549.8"
          fill="#5b5b5b"
          text-anchor="middle"
          font-size="13.5"
        >
          2000
        </text>
      </g>
    </g>
    <g id="vertical-axis" class="VerticalAxis">
      <g id="tick-labels">
        <text
          x="61.90"
          y="531.3"
          dy=".32em"
          text-anchor="end"
          fill="#5b5b5b"
          font-size="13.5"
        >
          0
        </text>
        <text
          x="61.90"
          y="479.3"
          dy=".32em"
          text-anchor="end"
          fill="#5b5b5b"
          font-size="13.5"
        >
          1 billion
        </text>
        <text
          x="61.90"
          y="427.2"
          dy=".32em"
          text-anchor="end"
          fill="#5b5b5b"
          font-size="13.5"
        >
          2 billion
        </text>
        <text
          x="61.90"
          y="375.2"
          dy=".32em"
          text-anchor="end"
          fill="#5b5b5b"
          font-size="13.5"
        >
          3 billion
        </text>
        <text
          x="61.90"
          y="323.1"
          dy=".32em"
          text-anchor="end"
          fill="#5b5b5b"
          font-size="13.5"
        >
          4 billion
        </text>
        <text
          x="61.90"
          y="271.1"
          dy=".32em"
          text-anchor="end"
          fill="#5b5b5b"
          font-size="13.5"
        >
          5 billion
        </text>
        <text
          x="61.90"
          y="219"
          dy=".32em"
          text-anchor="end"
          fill="#5b5b5b"
          font-size="13.5"
        >
          6 billion
        </text>
        <text
          x="61.90"
          y="167"
          dy=".32em"
          text-anchor="end"
          fill="#5b5b5b"
          font-size="13.5"
        >
          7 billion
        </text>
      </g>
    </g>
    <g id="horizontal-grid-lines" class="AxisGridLines horizontalLines">
      <line
        id="0"
        x1="66.90"
        y1="531.3"
        x2="692.95"
        y2="531.3"
        stroke="#999"
        stroke-width="1"
      ></line>
      <line
        id="1-billion"
        x1="66.90"
        y1="479.3"
        x2="692.95"
        y2="479.3"
        stroke="#ddd"
        stroke-width="1"
        stroke-dasharray="3,2"
      ></line>
      <line
        id="2-billion"
        x1="66.90"
        y1="427.2"
        x2="692.95"
        y2="427.2"
        stroke="#ddd"
        stroke-width="1"
        stroke-dasharray="3,2"
      ></line>
      <line
        id="3-billion"
        x1="66.90"
        y1="375.2"
        x2="692.95"
        y2="375.2"
        stroke="#ddd"
        stroke-width="1"
        stroke-dasharray="3,2"
      ></line>
      <line
        id="4-billion"
        x1="66.90"
        y1="323.1"
        x2="692.95"
        y2="323.1"
        stroke="#ddd"
        stroke-width="1"
        stroke-dasharray="3,2"
      ></line>
      <line
        id="5-billion"
        x1="66.90"
        y1="271.1"
        x2="692.95"
        y2="271.1"
        stroke="#ddd"
        stroke-width="1"
        stroke-dasharray="3,2"
      ></line>
      <line
        id="6-billion"
        x1="66.90"
        y1="219"
        x2="692.95"
        y2="219"
        stroke="#ddd"
        stroke-width="1"
        stroke-dasharray="3,2"
      ></line>
      <line
        id="7-billion"
        x1="66.90"
        y1="167"
        x2="692.95"
        y2="167"
        stroke="#ddd"
        stroke-width="1"
        stroke-dasharray="3,2"
      ></line>
    </g>
    <g id="line-labels" class="LineLabels">
      <g id="text-annotations"></g>
      <g id="text-labels">
        <text
          font-size="13.50"
          font-weight="400"
          x="697.0"
          y="130.8"
          fill="#555555"
          opacity="1"
          text-anchor="start"
        >
          <tspan x="696.95" y="130.76999999999998">No regime data</tspan>
        </text>
        <text
          font-size="13.50"
          font-weight="400"
          x="697.0"
          y="218.9"
          fill="#ad8d90"
          opacity="1"
          text-anchor="start"
        >
          <tspan x="696.95" y="218.87">People living in</tspan>
          <tspan x="696.95" y="233.72">non-democracies</tspan>
        </text>
        <text
          font-size="13.50"
          font-weight="400"
          x="697.0"
          y="323.8"
          fill="#acb481"
          opacity="1"
          text-anchor="start"
        >
          <tspan x="696.95" y="323.77">democracies</tspan>
          <tspan x="696.95" y="338.62">aged 1-18</tspan>
        </text>
        <text
          font-size="13.50"
          font-weight="400"
          x="697.0"
          y="362.8"
          fill="#99b38b"
          opacity="1"
          text-anchor="start"
        >
          <tspan x="696.95" y="362.795">aged 19-30</tspan>
        </text>
        <text
          font-size="13.50"
          font-weight="400"
          x="697.0"
          y="401.8"
          fill="#3daab7"
          opacity="1"
          text-anchor="start"
        >
          <tspan x="696.95" y="401.795">aged 31-60</tspan>
        </text>
        <text
          font-size="13.50"
          font-weight="400"
          x="697.0"
          y="464.8"
          fill="#225ea8"
          opacity="1"
          text-anchor="start"
        >
          <tspan x="696.95" y="464.795">aged 61-90</tspan>
        </text>
        <text
          font-size="13.50"
          font-weight="400"
          x="697.0"
          y="523.5"
          fill="#172976"
          opacity="1"
          text-anchor="start"
        >
          <tspan x="696.95" y="523.495">aged 91 +</tspan>
        </text>
      </g>
    </g>
    <g class="Areas" id="stacked-areas">
      <g id="areas">
        <path
          id="aged-91-+"
          class="aged-91-__002b-area"
          stroke-linecap="round"
          d="M66.9 531.3L69.7 531.3L72.6 531.3L75.4 531.3L78.3 531.3L81.1 531.3L84 531.3L86.8 531.3L89.7 531.3L92.5 531.3L95.4 531.3L98.2 531.3L101 531.3L103.9 531.3L106.7 531.3L109.6 531.3L112.4 531.3L115.3 531.3L118.1 531.3L121 531.3L123.8 531.3L126.7 531.3L129.5 531.3L132.4 531.3L135.2 531.3L138 531.3L140.9 531.3L143.7 531.3L146.6 531.3L149.4 531.3L152.3 531.3L155.1 531.3L158 531.3L160.8 531.3L163.7 531.3L166.5 531.3L169.3 531.3L172.2 531.3L175 531.3L177.9 531.3L180.7 531.3L183.6 531.3L186.4 531.3L189.3 531.3L192.1 531.3L195 531.3L197.8 531.3L200.6 531.3L203.5 531.3L206.3 531.3L209.2 531.3L212 531.3L214.9 531.3L217.7 531.3L220.6 531.3L223.4 531.3L226.3 531.3L229.1 531.3L231.9 531.3L234.8 531.3L237.6 531.3L240.5 531.3L243.3 531.3L246.2 531.3L249 531.3L251.9 531.3L254.7 531.3L257.6 531.3L260.4 531.3L263.3 531.3L266.1 531.3L268.9 531.3L271.8 531.3L274.6 531.3L277.5 531.3L280.3 531.3L283.2 531.3L286 531.3L288.9 531.3L291.7 531.3L294.6 531.3L297.4 531.3L300.2 531.3L303.1 531.3L305.9 531.3L308.8 531.3L311.6 531.3L314.5 531.3L317.3 531.3L320.2 531.3L323 531.3L325.9 531.3L328.7 531.3L331.5 531.3L334.4 531.3L337.2 531.3L340.1 531.3L342.9 531.3L345.8 531.3L348.6 531.3L351.5 531.3L354.3 531.3L357.2 531.3L360 531.3L362.9 531.3L365.7 531.3L368.5 531.3L371.4 531.3L374.2 531.3L377.1 531.3L379.9 531.3L382.8 531.3L385.6 531.3L388.5 531.3L391.3 531.3L394.2 531.3L397 531.3L399.8 531.3L402.7 531.3L405.5 531.3L408.4 531.3L411.2 531.3L414.1 531.3L416.9 531.3L419.8 531.3L422.6 531.3L425.5 531.3L428.3 531.3L431.1 531.3L434 531.3L436.8 531.3L439.7 531.3L442.5 531.3L445.4 531.3L448.2 531.3L451.1 531.3L453.9 531.3L456.8 531.3L459.6 531.3L462.4 531.3L465.3 531.3L468.1 531.3L471 531.3L473.8 531.3L476.7 531.3L479.5 531.3L482.4 531.3L485.2 531.3L488.1 531.3L490.9 531.3L493.8 531.3L496.6 531.3L499.4 531.3L502.3 531.3L505.1 531.3L508 531.3L510.8 531.3L513.7 531.3L516.5 531.3L519.4 531.3L522.2 531.3L525.1 531.3L527.9 531.3L530.7 531.3L533.6 531.3L536.4 531.3L539.3 531.3L542.1 531.3L545 531.3L547.8 531.3L550.7 531.3L553.5 531.3L556.4 531.3L559.2 531.3L562 531.3L564.9 531.3L567.7 531.3L570.6 531.3L573.4 531.3L576.3 531.3L579.1 531.3L582 531.3L584.8 531.3L587.7 531.1L590.5 531.1L593.4 531.1L596.2 531.1L599 531.1L601.9 531.1L604.7 531.1L607.6 531.1L610.4 531.1L613.3 530.2L616.1 530.2L619 530.2L621.8 530.2L624.7 530.2L627.5 530.1L630.3 530.1L633.2 530.1L636 530.1L638.9 530.1L641.7 530.1L644.6 530.1L647.4 530.1L650.3 530L653.1 530L656 529.7L658.8 524.7L661.6 524.7L664.5 508.4L667.3 507.7L670.2 507.2L673 507L675.9 506.8L678.7 506.6L681.6 506.4L684.4 506.2L687.3 506L690.1 505.8L693 505.7L693 531.3L66.9 531.3"
          fill="#172976"
          fill-opacity="0.8"
        ></path>
        <path
          id="aged-61-90"
          class="aged-61-90-area"
          stroke-linecap="round"
          d="M66.9 531.3L69.7 531.3L72.6 531.3L75.4 531.3L78.3 531.3L81.1 531.3L84 531.3L86.8 531.3L89.7 531.3L92.5 531.3L95.4 531.3L98.2 531.3L101 531.3L103.9 531.3L106.7 531.3L109.6 531.3L112.4 531.3L115.3 531.3L118.1 531.3L121 531.3L123.8 531.3L126.7 531.3L129.5 531.3L132.4 531.3L135.2 531.3L138 531.3L140.9 531.3L143.7 531.3L146.6 531.3L149.4 531.3L152.3 531.3L155.1 531.3L158 531.3L160.8 531.3L163.7 531.3L166.5 531.3L169.3 531.3L172.2 531.3L175 531.3L177.9 531.3L180.7 531.3L183.6 531.3L186.4 531.3L189.3 531.3L192.1 531.3L195 531.3L197.8 531.3L200.6 531.3L203.5 531.3L206.3 531.3L209.2 531.3L212 531.3L214.9 531.3L217.7 531.3L220.6 531.3L223.4 531.3L226.3 531.3L229.1 531.3L231.9 531.3L234.8 531.3L237.6 531.3L240.5 531.3L243.3 531.3L246.2 531.3L249 531.3L251.9 531.3L254.7 531.3L257.6 531.3L260.4 531.3L263.3 531.3L266.1 531.3L268.9 531.3L271.8 531.3L274.6 531.3L277.5 531.3L280.3 531.3L283.2 531.3L286 531.3L288.9 531.3L291.7 531.3L294.6 531.3L297.4 531.3L300.2 531.3L303.1 531.3L305.9 531.3L308.8 531.3L311.6 531.3L314.5 531.3L317.3 531.3L320.2 531.3L323 531.3L325.9 531.3L328.7 531.3L331.5 531.3L334.4 531.3L337.2 531.3L340.1 531.3L342.9 531.3L345.8 531.3L348.6 531.3L351.5 531.3L354.3 531.3L357.2 531.3L360 531.3L362.9 531.3L365.7 531.3L368.5 531.3L371.4 531.3L374.2 531.3L377.1 531.3L379.9 531.3L382.8 531.3L385.6 531.3L388.5 531.3L391.3 531.3L394.2 531.3L397 531.3L399.8 531.3L402.7 531.3L405.5 531.3L408.4 531.3L411.2 531.3L414.1 531.3L416.9 531.3L419.8 531.3L422.6 531.3L425.5 531.3L428.3 531.3L431.1 531.3L434 531.3L436.8 531.3L439.7 531.3L442.5 531.3L445.4 531.3L448.2 531.3L451.1 531.3L453.9 531.3L456.8 531.3L459.6 531.3L462.4 531.3L465.3 531.3L468.1 531.3L471 531.3L473.8 531.3L476.7 531.3L479.5 531.3L482.4 531.3L485.2 531.3L488.1 531.3L490.9 531.3L493.8 531.3L496.6 531.3L499.4 531.3L502.3 531.2L505.1 531.2L508 531.2L510.8 531.2L513.7 531.2L516.5 531.2L519.4 531.2L522.2 531.2L525.1 531.2L527.9 530.6L530.7 530.6L533.6 530.6L536.4 530.6L539.3 530.6L542.1 530.5L545 530.5L547.8 530.5L550.7 530.5L553.5 530.5L556.4 530.5L559.2 530.4L562 530.4L564.9 530.4L567.7 530.4L570.6 530.2L573.4 526L576.3 525.9L579.1 514.3L582 513.7L584.8 513.4L587.7 513.2L590.5 513L593.4 512.9L596.2 512.7L599 512.6L601.9 512.4L604.7 512.2L607.6 512L610.4 511.8L613.3 511.5L616.1 511.3L619 511.1L621.8 510.9L624.7 510.7L627.5 510.5L630.3 510.2L633.2 510L636 509.8L638.9 509.6L641.7 509.4L644.6 509.2L647.4 509L650.3 507.4L653.1 500.5L656 500.3L658.8 499L661.6 498.5L664.5 433.7L667.3 432.5L670.2 424.7L673 423.6L675.9 422.5L678.7 421.5L681.6 420.5L684.4 419.4L687.3 415.9L690.1 414.9L693 414L693 505.7L690.1 505.8L687.3 506L684.4 506.2L681.6 506.4L678.7 506.6L675.9 506.8L673 507L670.2 507.2L667.3 507.7L664.5 508.4L661.6 524.7L658.8 524.7L656 529.7L653.1 530L650.3 530L647.4 530.1L644.6 530.1L641.7 530.1L638.9 530.1L636 530.1L633.2 530.1L630.3 530.1L627.5 530.1L624.7 530.2L621.8 530.2L619 530.2L616.1 530.2L613.3 530.2L610.4 531.1L607.6 531.1L604.7 531.1L601.9 531.1L599 531.1L596.2 531.1L593.4 531.1L590.5 531.1L587.7 531.1L584.8 531.3L582 531.3L579.1 531.3L576.3 531.3L573.4 531.3L570.6 531.3L567.7 531.3L564.9 531.3L562 531.3L559.2 531.3L556.4 531.3L553.5 531.3L550.7 531.3L547.8 531.3L545 531.3L542.1 531.3L539.3 531.3L536.4 531.3L533.6 531.3L530.7 531.3L527.9 531.3L525.1 531.3L522.2 531.3L519.4 531.3L516.5 531.3L513.7 531.3L510.8 531.3L508 531.3L505.1 531.3L502.3 531.3L499.4 531.3L496.6 531.3L493.8 531.3L490.9 531.3L488.1 531.3L485.2 531.3L482.4 531.3L479.5 531.3L476.7 531.3L473.8 531.3L471 531.3L468.1 531.3L465.3 531.3L462.4 531.3L459.6 531.3L456.8 531.3L453.9 531.3L451.1 531.3L448.2 531.3L445.4 531.3L442.5 531.3L439.7 531.3L436.8 531.3L434 531.3L431.1 531.3L428.3 531.3L425.5 531.3L422.6 531.3L419.8 531.3L416.9 531.3L414.1 531.3L411.2 531.3L408.4 531.3L405.5 531.3L402.7 531.3L399.8 531.3L397 531.3L394.2 531.3L391.3 531.3L388.5 531.3L385.6 531.3L382.8 531.3L379.9 531.3L377.1 531.3L374.2 531.3L371.4 531.3L368.5 531.3L365.7 531.3L362.9 531.3L360 531.3L357.2 531.3L354.3 531.3L351.5 531.3L348.6 531.3L345.8 531.3L342.9 531.3L340.1 531.3L337.2 531.3L334.4 531.3L331.5 531.3L328.7 531.3L325.9 531.3L323 531.3L320.2 531.3L317.3 531.3L314.5 531.3L311.6 531.3L308.8 531.3L305.9 531.3L303.1 531.3L300.2 531.3L297.4 531.3L294.6 531.3L291.7 531.3L288.9 531.3L286 531.3L283.2 531.3L280.3 531.3L277.5 531.3L274.6 531.3L271.8 531.3L268.9 531.3L266.1 531.3L263.3 531.3L260.4 531.3L257.6 531.3L254.7 531.3L251.9 531.3L249 531.3L246.2 531.3L243.3 531.3L240.5 531.3L237.6 531.3L234.8 531.3L231.9 531.3L229.1 531.3L226.3 531.3L223.4 531.3L220.6 531.3L217.7 531.3L214.9 531.3L212 531.3L209.2 531.3L206.3 531.3L203.5 531.3L200.6 531.3L197.8 531.3L195 531.3L192.1 531.3L189.3 531.3L186.4 531.3L183.6 531.3L180.7 531.3L177.9 531.3L175 531.3L172.2 531.3L169.3 531.3L166.5 531.3L163.7 531.3L160.8 531.3L158 531.3L155.1 531.3L152.3 531.3L149.4 531.3L146.6 531.3L143.7 531.3L140.9 531.3L138 531.3L135.2 531.3L132.4 531.3L129.5 531.3L126.7 531.3L123.8 531.3L121 531.3L118.1 531.3L115.3 531.3L112.4 531.3L109.6 531.3L106.7 531.3L103.9 531.3L101 531.3L98.2 531.3L95.4 531.3L92.5 531.3L89.7 531.3L86.8 531.3L84 531.3L81.1 531.3L78.3 531.3L75.4 531.3L72.6 531.3L69.7 531.3L66.9 531.3"
          fill="#225ea8"
          fill-opacity="0.8"
        ></path>
        <path
          id="aged-31-60"
          class="aged-31-60-area"
          stroke-linecap="round"
          d="M66.9 531.3L69.7 531.3L72.6 531.3L75.4 531.3L78.3 531.3L81.1 531.3L84 531.3L86.8 531.3L89.7 531.3L92.5 531.3L95.4 531.3L98.2 531.3L101 531.3L103.9 531.3L106.7 531.3L109.6 531.3L112.4 531.3L115.3 531.3L118.1 531.3L121 531.3L123.8 531.3L126.7 531.3L129.5 531.3L132.4 531.3L135.2 531.3L138 531.3L140.9 531.3L143.7 531.3L146.6 531.3L149.4 531.3L152.3 531.3L155.1 531.3L158 531.3L160.8 531.3L163.7 531.3L166.5 531.3L169.3 531.3L172.2 531.3L175 531.3L177.9 531.3L180.7 531.3L183.6 531.3L186.4 531.3L189.3 531.3L192.1 531.3L195 531.3L197.8 531.3L200.6 531.3L203.5 531.3L206.3 531.3L209.2 531.3L212 531.3L214.9 531.3L217.7 531.3L220.6 531.3L223.4 531.3L226.3 531.3L229.1 531.3L231.9 531.3L234.8 531.3L237.6 531.3L240.5 531.3L243.3 531.3L246.2 531.3L249 531.3L251.9 531.3L254.7 531.3L257.6 531.3L260.4 531.3L263.3 531.3L266.1 531.3L268.9 531.3L271.8 531.3L274.6 531.3L277.5 531.3L280.3 531.3L283.2 531.3L286 531.3L288.9 531.3L291.7 531.3L294.6 531.3L297.4 531.3L300.2 531.3L303.1 531.3L305.9 531.3L308.8 531.3L311.6 531.3L314.5 531.3L317.3 531.3L320.2 531.3L323 531.3L325.9 531.3L328.7 531.3L331.5 531.3L334.4 531.3L337.2 531.3L340.1 531.3L342.9 531.3L345.8 531.3L348.6 531.3L351.5 531.3L354.3 531.3L357.2 531.3L360 531.3L362.9 531.3L365.7 531.3L368.5 531.3L371.4 531.3L374.2 531.3L377.1 531.3L379.9 531.3L382.8 531.3L385.6 531.3L388.5 531.3L391.3 531.3L394.2 531.3L397 531.3L399.8 531.3L402.7 531.3L405.5 531.3L408.4 531.3L411.2 531.3L414.1 531.3L416.9 531.2L419.8 531.2L422.6 531.2L425.5 531.2L428.3 531.2L431.1 531.2L434 531.2L436.8 531.2L439.7 531.2L442.5 530.9L445.4 530.9L448.2 530.9L451.1 530.9L453.9 530.9L456.8 530.9L459.6 530.9L462.4 530.9L465.3 530.9L468.1 530.8L471 530.8L473.8 530.8L476.7 530.8L479.5 530.8L482.4 530.8L485.2 530.6L488.1 527.3L490.9 527.3L493.8 519.5L496.6 519L499.4 518.7L502.3 518.5L505.1 518.3L508 518.1L510.8 517.9L513.7 517.7L516.5 517.4L519.4 517.2L522.2 517L525.1 516.8L527.9 516.6L530.7 516.4L533.6 516.2L536.4 516.1L539.3 515.9L542.1 515.7L545 515.6L547.8 515.4L550.7 515.2L553.5 515L556.4 514.9L559.2 514.7L562 514.6L564.9 513.2L567.7 507.1L570.6 506.9L573.4 506L576.3 502.5L579.1 466L582 464.9L584.8 457.7L587.7 456.6L590.5 455.5L593.4 454.4L596.2 453.2L599 452.1L601.9 449.3L604.7 447L607.6 445.7L610.4 447.7L613.3 446.2L616.1 444.9L619 443.6L621.8 442.2L624.7 440.4L627.5 439.1L630.3 437.7L633.2 436.4L636 435.1L638.9 433.3L641.7 432L644.6 430.7L647.4 428.8L650.3 428.5L653.1 426.7L656 423.1L658.8 421.8L661.6 420.5L664.5 419.3L667.3 418.1L670.2 416.3L673 409L675.9 407.1L678.7 395L681.6 392L684.4 390.7L687.3 386.7L690.1 383.4L693 379.5L693 414L690.1 414.9L687.3 415.9L684.4 419.4L681.6 420.5L678.7 421.5L675.9 422.5L673 423.6L670.2 424.7L667.3 432.5L664.5 433.7L661.6 498.5L658.8 499L656 500.3L653.1 500.5L650.3 507.4L647.4 509L644.6 509.2L641.7 509.4L638.9 509.6L636 509.8L633.2 510L630.3 510.2L627.5 510.5L624.7 510.7L621.8 510.9L619 511.1L616.1 511.3L613.3 511.5L610.4 511.8L607.6 512L604.7 512.2L601.9 512.4L599 512.6L596.2 512.7L593.4 512.9L590.5 513L587.7 513.2L584.8 513.4L582 513.7L579.1 514.3L576.3 525.9L573.4 526L570.6 530.2L567.7 530.4L564.9 530.4L562 530.4L559.2 530.4L556.4 530.5L553.5 530.5L550.7 530.5L547.8 530.5L545 530.5L542.1 530.5L539.3 530.6L536.4 530.6L533.6 530.6L530.7 530.6L527.9 530.6L525.1 531.2L522.2 531.2L519.4 531.2L516.5 531.2L513.7 531.2L510.8 531.2L508 531.2L505.1 531.2L502.3 531.2L499.4 531.3L496.6 531.3L493.8 531.3L490.9 531.3L488.1 531.3L485.2 531.3L482.4 531.3L479.5 531.3L476.7 531.3L473.8 531.3L471 531.3L468.1 531.3L465.3 531.3L462.4 531.3L459.6 531.3L456.8 531.3L453.9 531.3L451.1 531.3L448.2 531.3L445.4 531.3L442.5 531.3L439.7 531.3L436.8 531.3L434 531.3L431.1 531.3L428.3 531.3L425.5 531.3L422.6 531.3L419.8 531.3L416.9 531.3L414.1 531.3L411.2 531.3L408.4 531.3L405.5 531.3L402.7 531.3L399.8 531.3L397 531.3L394.2 531.3L391.3 531.3L388.5 531.3L385.6 531.3L382.8 531.3L379.9 531.3L377.1 531.3L374.2 531.3L371.4 531.3L368.5 531.3L365.7 531.3L362.9 531.3L360 531.3L357.2 531.3L354.3 531.3L351.5 531.3L348.6 531.3L345.8 531.3L342.9 531.3L340.1 531.3L337.2 531.3L334.4 531.3L331.5 531.3L328.7 531.3L325.9 531.3L323 531.3L320.2 531.3L317.3 531.3L314.5 531.3L311.6 531.3L308.8 531.3L305.9 531.3L303.1 531.3L300.2 531.3L297.4 531.3L294.6 531.3L291.7 531.3L288.9 531.3L286 531.3L283.2 531.3L280.3 531.3L277.5 531.3L274.6 531.3L271.8 531.3L268.9 531.3L266.1 531.3L263.3 531.3L260.4 531.3L257.6 531.3L254.7 531.3L251.9 531.3L249 531.3L246.2 531.3L243.3 531.3L240.5 531.3L237.6 531.3L234.8 531.3L231.9 531.3L229.1 531.3L226.3 531.3L223.4 531.3L220.6 531.3L217.7 531.3L214.9 531.3L212 531.3L209.2 531.3L206.3 531.3L203.5 531.3L200.6 531.3L197.8 531.3L195 531.3L192.1 531.3L189.3 531.3L186.4 531.3L183.6 531.3L180.7 531.3L177.9 531.3L175 531.3L172.2 531.3L169.3 531.3L166.5 531.3L163.7 531.3L160.8 531.3L158 531.3L155.1 531.3L152.3 531.3L149.4 531.3L146.6 531.3L143.7 531.3L140.9 531.3L138 531.3L135.2 531.3L132.4 531.3L129.5 531.3L126.7 531.3L123.8 531.3L121 531.3L118.1 531.3L115.3 531.3L112.4 531.3L109.6 531.3L106.7 531.3L103.9 531.3L101 531.3L98.2 531.3L95.4 531.3L92.5 531.3L89.7 531.3L86.8 531.3L84 531.3L81.1 531.3L78.3 531.3L75.4 531.3L72.6 531.3L69.7 531.3L66.9 531.3"
          fill="#41b6c4"
          fill-opacity="0.8"
        ></path>
        <path
          id="aged-19-30"
          class="aged-19-30-area"
          stroke-linecap="round"
          d="M66.9 531.3L69.7 531.3L72.6 531.3L75.4 531.3L78.3 531.3L81.1 531.3L84 531.3L86.8 531.3L89.7 531.3L92.5 531.3L95.4 531.3L98.2 531.3L101 531.3L103.9 531.3L106.7 531.3L109.6 531.3L112.4 531.3L115.3 531.3L118.1 531.3L121 531.3L123.8 531.3L126.7 531.3L129.5 531.3L132.4 531.3L135.2 531.3L138 531.3L140.9 531.3L143.7 531.3L146.6 531.3L149.4 531.3L152.3 531.3L155.1 531.3L158 531.3L160.8 531.3L163.7 531.3L166.5 531.3L169.3 531.3L172.2 531.3L175 531.3L177.9 531.3L180.7 531.3L183.6 531.3L186.4 531.3L189.3 531.3L192.1 531.3L195 531.3L197.8 531.3L200.6 531.3L203.5 531.3L206.3 531.3L209.2 531.3L212 531.3L214.9 531.3L217.7 531.3L220.6 531.3L223.4 531.3L226.3 531.3L229.1 531.3L231.9 531.3L234.8 531.3L237.6 531.3L240.5 531.3L243.3 531.3L246.2 531.3L249 531.3L251.9 531.3L254.7 531.3L257.6 531.3L260.4 531.3L263.3 531.3L266.1 531.3L268.9 531.3L271.8 531.3L274.6 531.3L277.5 531.3L280.3 531.3L283.2 531.3L286 531.3L288.9 531.3L291.7 531.3L294.6 531.3L297.4 531.3L300.2 531.3L303.1 531.3L305.9 531.3L308.8 531.3L311.6 531.3L314.5 531.3L317.3 531.3L320.2 531.3L323 531.3L325.9 531.3L328.7 531.3L331.5 531.3L334.4 531.3L337.2 531.3L340.1 531.3L342.9 531.3L345.8 531.3L348.6 531.3L351.5 531.3L354.3 531.3L357.2 531.3L360 531.3L362.9 531.3L365.7 531.3L368.5 531.3L371.4 531.3L374.2 531.3L377.1 531.3L379.9 531.3L382.8 531.2L385.6 531.2L388.5 531.2L391.3 531.2L394.2 531.2L397 531.2L399.8 531.2L402.7 531.2L405.5 531.2L408.4 531L411.2 531L414.1 530.9L416.9 530.9L419.8 530.9L422.6 530.9L425.5 530.9L428.3 530.9L431.1 530.9L434 530.9L436.8 530.9L439.7 530.7L442.5 530.7L445.4 530.5L448.2 530.5L451.1 530.3L453.9 527.3L456.8 526.8L459.6 519.4L462.4 519.8L465.3 520.3L468.1 520.2L471 520.1L473.8 520L476.7 519.9L479.5 519.7L482.4 519.6L485.2 519.4L488.1 519.3L490.9 519.2L493.8 519L496.6 518.8L499.4 518.7L502.3 518.5L505.1 518.3L508 518.1L510.8 517.9L513.7 517.7L516.5 517.4L519.4 517.2L522.2 517L525.1 516.7L527.9 516.5L530.7 515.2L533.6 507.8L536.4 509.3L539.3 507.8L542.1 503.9L545 475.9L547.8 475L550.7 468.6L553.5 467.6L556.4 466.5L559.2 466.2L562 465.2L564.9 464.2L567.7 462L570.6 461L573.4 459.9L576.3 456.6L579.1 457.5L582 456.4L584.8 455.2L587.7 454.1L590.5 452.5L593.4 451.3L596.2 450.1L599 448.8L601.9 447.6L604.7 446L607.6 444.6L610.4 446.6L613.3 444.7L616.1 443.1L619 441.3L621.8 437.9L624.7 436.5L627.5 434.5L630.3 433.1L633.2 431.7L636 430.3L638.9 423.5L641.7 421.5L644.6 410.3L647.4 403.7L650.3 403.4L653.1 399.4L656 395.8L658.8 391.4L661.6 384.1L664.5 378.9L667.3 377.2L670.2 372.9L673 371.4L675.9 368.4L678.7 365.3L681.6 368.3L684.4 353.1L687.3 343.5L690.1 340.9L693 336.1L693 379.5L690.1 383.4L687.3 386.7L684.4 390.7L681.6 392L678.7 395L675.9 407.1L673 409L670.2 416.3L667.3 418.1L664.5 419.3L661.6 420.5L658.8 421.8L656 423.1L653.1 426.7L650.3 428.5L647.4 428.8L644.6 430.7L641.7 432L638.9 433.3L636 435.1L633.2 436.4L630.3 437.7L627.5 439.1L624.7 440.4L621.8 442.2L619 443.6L616.1 444.9L613.3 446.2L610.4 447.7L607.6 445.7L604.7 447L601.9 449.3L599 452.1L596.2 453.2L593.4 454.4L590.5 455.5L587.7 456.6L584.8 457.7L582 464.9L579.1 466L576.3 502.5L573.4 506L570.6 506.9L567.7 507.1L564.9 513.2L562 514.6L559.2 514.7L556.4 514.9L553.5 515L550.7 515.2L547.8 515.4L545 515.6L542.1 515.7L539.3 515.9L536.4 516.1L533.6 516.2L530.7 516.4L527.9 516.6L525.1 516.8L522.2 517L519.4 517.2L516.5 517.4L513.7 517.7L510.8 517.9L508 518.1L505.1 518.3L502.3 518.5L499.4 518.7L496.6 519L493.8 519.5L490.9 527.3L488.1 527.3L485.2 530.6L482.4 530.8L479.5 530.8L476.7 530.8L473.8 530.8L471 530.8L468.1 530.8L465.3 530.9L462.4 530.9L459.6 530.9L456.8 530.9L453.9 530.9L451.1 530.9L448.2 530.9L445.4 530.9L442.5 530.9L439.7 531.2L436.8 531.2L434 531.2L431.1 531.2L428.3 531.2L425.5 531.2L422.6 531.2L419.8 531.2L416.9 531.2L414.1 531.3L411.2 531.3L408.4 531.3L405.5 531.3L402.7 531.3L399.8 531.3L397 531.3L394.2 531.3L391.3 531.3L388.5 531.3L385.6 531.3L382.8 531.3L379.9 531.3L377.1 531.3L374.2 531.3L371.4 531.3L368.5 531.3L365.7 531.3L362.9 531.3L360 531.3L357.2 531.3L354.3 531.3L351.5 531.3L348.6 531.3L345.8 531.3L342.9 531.3L340.1 531.3L337.2 531.3L334.4 531.3L331.5 531.3L328.7 531.3L325.9 531.3L323 531.3L320.2 531.3L317.3 531.3L314.5 531.3L311.6 531.3L308.8 531.3L305.9 531.3L303.1 531.3L300.2 531.3L297.4 531.3L294.6 531.3L291.7 531.3L288.9 531.3L286 531.3L283.2 531.3L280.3 531.3L277.5 531.3L274.6 531.3L271.8 531.3L268.9 531.3L266.1 531.3L263.3 531.3L260.4 531.3L257.6 531.3L254.7 531.3L251.9 531.3L249 531.3L246.2 531.3L243.3 531.3L240.5 531.3L237.6 531.3L234.8 531.3L231.9 531.3L229.1 531.3L226.3 531.3L223.4 531.3L220.6 531.3L217.7 531.3L214.9 531.3L212 531.3L209.2 531.3L206.3 531.3L203.5 531.3L200.6 531.3L197.8 531.3L195 531.3L192.1 531.3L189.3 531.3L186.4 531.3L183.6 531.3L180.7 531.3L177.9 531.3L175 531.3L172.2 531.3L169.3 531.3L166.5 531.3L163.7 531.3L160.8 531.3L158 531.3L155.1 531.3L152.3 531.3L149.4 531.3L146.6 531.3L143.7 531.3L140.9 531.3L138 531.3L135.2 531.3L132.4 531.3L129.5 531.3L126.7 531.3L123.8 531.3L121 531.3L118.1 531.3L115.3 531.3L112.4 531.3L109.6 531.3L106.7 531.3L103.9 531.3L101 531.3L98.2 531.3L95.4 531.3L92.5 531.3L89.7 531.3L86.8 531.3L84 531.3L81.1 531.3L78.3 531.3L75.4 531.3L72.6 531.3L69.7 531.3L66.9 531.3"
          fill="#c7e9b4"
          fill-opacity="0.8"
        ></path>
        <path
          id="democracies-aged-1-18"
          class="democracies-aged-1-18-area"
          stroke-linecap="round"
          d="M66.9 531.3L69.7 531.3L72.6 531.3L75.4 531.3L78.3 531.3L81.1 531.3L84 531.3L86.8 531.3L89.7 531.3L92.5 531.3L95.4 531.3L98.2 531.3L101 531.3L103.9 531.3L106.7 531.3L109.6 531.3L112.4 531.3L115.3 531.3L118.1 531.3L121 531.3L123.8 531.3L126.7 531.3L129.5 531.3L132.4 531.3L135.2 531.3L138 531.3L140.9 531.3L143.7 531.3L146.6 531.3L149.4 531.3L152.3 531.3L155.1 531.3L158 531.3L160.8 531.3L163.7 531.3L166.5 531.3L169.3 531.3L172.2 531.3L175 531.3L177.9 531.3L180.7 531.3L183.6 531.3L186.4 531.3L189.3 531.3L192.1 531.3L195 531.3L197.8 531.3L200.6 531.3L203.5 531.3L206.3 531.3L209.2 531.3L212 531.3L214.9 531.3L217.7 531.3L220.6 531.3L223.4 531.3L226.3 531.3L229.1 531.3L231.9 531.3L234.8 531.3L237.6 531.3L240.5 531.3L243.3 531.3L246.2 531.3L249 531.3L251.9 531.3L254.7 531.3L257.6 531.3L260.4 531.3L263.3 531.3L266.1 531.3L268.9 531.3L271.8 531.3L274.6 531.3L277.5 531.3L280.3 531.3L283.2 531.3L286 531.3L288.9 531.3L291.7 531.3L294.6 531.3L297.4 531.3L300.2 531.3L303.1 531.3L305.9 531.3L308.8 531.3L311.6 531.3L314.5 531.3L317.3 531.3L320.2 531.3L323 531.3L325.9 531.3L328.7 531.3L331.5 531.3L334.4 531.3L337.2 531.3L340.1 531.3L342.9 531.3L345.8 531.3L348.6 531.3L351.5 531.3L354.3 531.3L357.2 531.1L360 531.1L362.9 531L365.7 531L368.5 531L371.4 531L374.2 531L377.1 531L379.9 531L382.8 531L385.6 531L388.5 530.9L391.3 530.9L394.2 530.7L397 530.7L399.8 530.5L402.7 526.4L405.5 522.7L408.4 516.1L411.2 515.6L414.1 515.2L416.9 515.1L419.8 515L422.6 514.8L425.5 516.1L428.3 516L431.1 515.9L434 515.7L436.8 515.6L439.7 514.3L442.5 514L445.4 517.8L448.2 518L451.1 517.9L453.9 517.8L456.8 519L459.6 519L462.4 519.6L465.3 520.1L468.1 520L471 519.9L473.8 519.6L476.7 519.5L479.5 517.7L482.4 509.4L485.2 509.8L488.1 507.5L490.9 504.3L493.8 481.3L496.6 480.4L499.4 474.5L502.3 473.8L505.1 472.8L508 467.6L510.8 470.4L513.7 473.4L516.5 471.6L519.4 470.1L522.2 464L525.1 462.6L527.9 464L530.7 461.4L533.6 464.4L536.4 464.4L539.3 466.6L542.1 466.1L545 465.7L547.8 465.4L550.7 464.1L553.5 462.4L556.4 458.6L559.2 456.7L562 455L564.9 451.5L567.7 453.4L570.6 454.8L573.4 453.6L576.3 447.4L579.1 447.1L582 446.3L584.8 444.5L587.7 440.7L590.5 438.9L593.4 431L596.2 425L599 423.4L601.9 413.8L604.7 411L607.6 407.6L610.4 399.1L613.3 381.9L616.1 378.3L619 372.2L621.8 370L624.7 367.1L627.5 363.8L630.3 361.6L633.2 363.3L636 355.4L638.9 351.7L641.7 348.6L644.6 345.5L647.4 344L650.3 342.7L653.1 343.7L656 349L658.8 335.2L661.6 327.5L664.5 325.8L667.3 319L670.2 317.4L673 315.1L675.9 324.5L678.7 311.6L681.6 313.9L684.4 323.3L687.3 321.1L690.1 318.1L693 316.2L693 336.1L690.1 340.9L687.3 343.5L684.4 353.1L681.6 368.3L678.7 365.3L675.9 368.4L673 371.4L670.2 372.9L667.3 377.2L664.5 378.9L661.6 384.1L658.8 391.4L656 395.8L653.1 399.4L650.3 403.4L647.4 403.7L644.6 410.3L641.7 421.5L638.9 423.5L636 430.3L633.2 431.7L630.3 433.1L627.5 434.5L624.7 436.5L621.8 437.9L619 441.3L616.1 443.1L613.3 444.7L610.4 446.6L607.6 444.6L604.7 446L601.9 447.6L599 448.8L596.2 450.1L593.4 451.3L590.5 452.5L587.7 454.1L584.8 455.2L582 456.4L579.1 457.5L576.3 456.6L573.4 459.9L570.6 461L567.7 462L564.9 464.2L562 465.2L559.2 466.2L556.4 466.5L553.5 467.6L550.7 468.6L547.8 475L545 475.9L542.1 503.9L539.3 507.8L536.4 509.3L533.6 507.8L530.7 515.2L527.9 516.5L525.1 516.7L522.2 517L519.4 517.2L516.5 517.4L513.7 517.7L510.8 517.9L508 518.1L505.1 518.3L502.3 518.5L499.4 518.7L496.6 518.8L493.8 519L490.9 519.2L488.1 519.3L485.2 519.4L482.4 519.6L479.5 519.7L476.7 519.9L473.8 520L471 520.1L468.1 520.2L465.3 520.3L462.4 519.8L459.6 519.4L456.8 526.8L453.9 527.3L451.1 530.3L448.2 530.5L445.4 530.5L442.5 530.7L439.7 530.7L436.8 530.9L434 530.9L431.1 530.9L428.3 530.9L425.5 530.9L422.6 530.9L419.8 530.9L416.9 530.9L414.1 530.9L411.2 531L408.4 531L405.5 531.2L402.7 531.2L399.8 531.2L397 531.2L394.2 531.2L391.3 531.2L388.5 531.2L385.6 531.2L382.8 531.2L379.9 531.3L377.1 531.3L374.2 531.3L371.4 531.3L368.5 531.3L365.7 531.3L362.9 531.3L360 531.3L357.2 531.3L354.3 531.3L351.5 531.3L348.6 531.3L345.8 531.3L342.9 531.3L340.1 531.3L337.2 531.3L334.4 531.3L331.5 531.3L328.7 531.3L325.9 531.3L323 531.3L320.2 531.3L317.3 531.3L314.5 531.3L311.6 531.3L308.8 531.3L305.9 531.3L303.1 531.3L300.2 531.3L297.4 531.3L294.6 531.3L291.7 531.3L288.9 531.3L286 531.3L283.2 531.3L280.3 531.3L277.5 531.3L274.6 531.3L271.8 531.3L268.9 531.3L266.1 531.3L263.3 531.3L260.4 531.3L257.6 531.3L254.7 531.3L251.9 531.3L249 531.3L246.2 531.3L243.3 531.3L240.5 531.3L237.6 531.3L234.8 531.3L231.9 531.3L229.1 531.3L226.3 531.3L223.4 531.3L220.6 531.3L217.7 531.3L214.9 531.3L212 531.3L209.2 531.3L206.3 531.3L203.5 531.3L200.6 531.3L197.8 531.3L195 531.3L192.1 531.3L189.3 531.3L186.4 531.3L183.6 531.3L180.7 531.3L177.9 531.3L175 531.3L172.2 531.3L169.3 531.3L166.5 531.3L163.7 531.3L160.8 531.3L158 531.3L155.1 531.3L152.3 531.3L149.4 531.3L146.6 531.3L143.7 531.3L140.9 531.3L138 531.3L135.2 531.3L132.4 531.3L129.5 531.3L126.7 531.3L123.8 531.3L121 531.3L118.1 531.3L115.3 531.3L112.4 531.3L109.6 531.3L106.7 531.3L103.9 531.3L101 531.3L98.2 531.3L95.4 531.3L92.5 531.3L89.7 531.3L86.8 531.3L84 531.3L81.1 531.3L78.3 531.3L75.4 531.3L72.6 531.3L69.7 531.3L66.9 531.3"
          fill="#edf8b1"
          fill-opacity="0.8"
        ></path>
        <path
          id="People-living-in-non-democracies"
          class="People-living-in-non-democracies-area"
          stroke-linecap="round"
          d="M66.9 504.1L69.7 504L72.6 503.8L75.4 503.7L78.3 503.6L81.1 503.4L84 503.3L86.8 504.2L89.7 504.2L92.5 504.1L95.4 503.9L98.2 503.7L101 503.5L103.9 502L106.7 501.7L109.6 501.3L112.4 501L115.3 500.7L118.1 500.4L121 500.1L123.8 499.7L126.7 499.3L129.5 498.7L132.4 498.3L135.2 497.7L138 497.4L140.9 497.1L143.7 496.8L146.6 496.5L149.4 496.3L152.3 495.9L155.1 495.8L158 495.5L160.8 495.4L163.7 495.2L166.5 495.1L169.3 495L172.2 494.8L175 494.7L177.9 494.6L180.7 494.4L183.6 494.3L186.4 494.2L189.3 494L192.1 493.9L195 493.8L197.8 493.7L200.6 493.5L203.5 493.3L206.3 493.2L209.2 493.1L212 493.1L214.9 493.1L217.7 493.2L220.6 493.2L223.4 492.3L226.3 492.4L229.1 492.4L231.9 494.1L234.8 493.7L237.6 513.3L240.5 511.8L243.3 492.5L246.2 492.4L249 492.2L251.9 492L254.7 491.9L257.6 491.4L260.4 489.4L263.3 489.3L266.1 489.2L268.9 489L271.8 488.8L274.6 488.5L277.5 488.3L280.3 488L283.2 487.7L286 487.5L288.9 487.1L291.7 486.7L294.6 486.4L297.4 486.1L300.2 485.8L303.1 485.5L305.9 485.2L308.8 484.9L311.6 484.5L314.5 484.2L317.3 483.9L320.2 483.6L323 483.2L325.9 482.9L328.7 482.5L331.5 482.1L334.4 481.7L337.2 481.3L340.1 480.9L342.9 480.5L345.8 480.1L348.6 479.7L351.5 479.1L354.3 478.5L357.2 477.9L360 477.4L362.9 477L365.7 476.5L368.5 476.5L371.4 476L374.2 475.5L377.1 475L379.9 474.5L382.8 496.5L385.6 474.5L388.5 496.7L391.3 473.7L394.2 472.9L397 473L399.8 471.7L402.7 473L405.5 469.5L408.4 468.5L411.2 467.3L414.1 464.3L416.9 463.1L419.8 462.5L422.6 461.4L425.5 460.7L428.3 460.1L431.1 459.6L434 459L436.8 458.4L439.7 457.8L442.5 457.7L445.4 457.1L448.2 456.5L451.1 455.2L453.9 454.7L456.8 454.1L459.6 453.8L462.4 481.8L465.3 483.1L468.1 484.5L471 482.5L473.8 482.1L476.7 484.4L479.5 484.4L482.4 453.2L485.2 448.2L488.1 441.5L490.9 437.5L493.8 413.2L496.6 411.1L499.4 408.8L502.3 406.5L505.1 404L508 401.2L510.8 397.5L513.7 394.1L516.5 391.1L519.4 388.6L522.2 380.8L525.1 377.8L527.9 373.4L530.7 369.5L533.6 365.5L536.4 361.6L539.3 358L542.1 354.4L545 350.7L547.8 346.9L550.7 343.4L553.5 339.6L556.4 335.4L559.2 331.6L562 327.8L564.9 323.3L567.7 316.8L570.6 313.1L573.4 309.2L576.3 305.2L579.1 301.2L582 297L584.8 292.6L587.7 288.3L590.5 283.9L593.4 279.5L596.2 274.9L599 270.2L601.9 265.5L604.7 260.8L607.6 255.7L610.4 251.3L613.3 246.8L616.1 242.4L619 238.1L621.8 233.8L624.7 229.4L627.5 225.1L630.3 221L633.2 216.8L636 212.6L638.9 209.4L641.7 205.2L644.6 202.5L647.4 197.1L650.3 192.9L653.1 188.6L656 184.2L658.8 179.8L661.6 173.8L664.5 169.3L667.3 164.6L670.2 159.6L673 155L675.9 150.7L678.7 147.7L681.6 143.2L684.4 138.8L687.3 134.5L690.1 130.3L693 126.4L693 316.2L690.1 318.1L687.3 321.1L684.4 323.3L681.6 313.9L678.7 311.6L675.9 324.5L673 315.1L670.2 317.4L667.3 319L664.5 325.8L661.6 327.5L658.8 335.2L656 349L653.1 343.7L650.3 342.7L647.4 344L644.6 345.5L641.7 348.6L638.9 351.7L636 355.4L633.2 363.3L630.3 361.6L627.5 363.8L624.7 367.1L621.8 370L619 372.2L616.1 378.3L613.3 381.9L610.4 399.1L607.6 407.6L604.7 411L601.9 413.8L599 423.4L596.2 425L593.4 431L590.5 438.9L587.7 440.7L584.8 444.5L582 446.3L579.1 447.1L576.3 447.4L573.4 453.6L570.6 454.8L567.7 453.4L564.9 451.5L562 455L559.2 456.7L556.4 458.6L553.5 462.4L550.7 464.1L547.8 465.4L545 465.7L542.1 466.1L539.3 466.6L536.4 464.4L533.6 464.4L530.7 461.4L527.9 464L525.1 462.6L522.2 464L519.4 470.1L516.5 471.6L513.7 473.4L510.8 470.4L508 467.6L505.1 472.8L502.3 473.8L499.4 474.5L496.6 480.4L493.8 481.3L490.9 504.3L488.1 507.5L485.2 509.8L482.4 509.4L479.5 517.7L476.7 519.5L473.8 519.6L471 519.9L468.1 520L465.3 520.1L462.4 519.6L459.6 519L456.8 519L453.9 517.8L451.1 517.9L448.2 518L445.4 517.8L442.5 514L439.7 514.3L436.8 515.6L434 515.7L431.1 515.9L428.3 516L425.5 516.1L422.6 514.8L419.8 515L416.9 515.1L414.1 515.2L411.2 515.6L408.4 516.1L405.5 522.7L402.7 526.4L399.8 530.5L397 530.7L394.2 530.7L391.3 530.9L388.5 530.9L385.6 531L382.8 531L379.9 531L377.1 531L374.2 531L371.4 531L368.5 531L365.7 531L362.9 531L360 531.1L357.2 531.1L354.3 531.3L351.5 531.3L348.6 531.3L345.8 531.3L342.9 531.3L340.1 531.3L337.2 531.3L334.4 531.3L331.5 531.3L328.7 531.3L325.9 531.3L323 531.3L320.2 531.3L317.3 531.3L314.5 531.3L311.6 531.3L308.8 531.3L305.9 531.3L303.1 531.3L300.2 531.3L297.4 531.3L294.6 531.3L291.7 531.3L288.9 531.3L286 531.3L283.2 531.3L280.3 531.3L277.5 531.3L274.6 531.3L271.8 531.3L268.9 531.3L266.1 531.3L263.3 531.3L260.4 531.3L257.6 531.3L254.7 531.3L251.9 531.3L249 531.3L246.2 531.3L243.3 531.3L240.5 531.3L237.6 531.3L234.8 531.3L231.9 531.3L229.1 531.3L226.3 531.3L223.4 531.3L220.6 531.3L217.7 531.3L214.9 531.3L212 531.3L209.2 531.3L206.3 531.3L203.5 531.3L200.6 531.3L197.8 531.3L195 531.3L192.1 531.3L189.3 531.3L186.4 531.3L183.6 531.3L180.7 531.3L177.9 531.3L175 531.3L172.2 531.3L169.3 531.3L166.5 531.3L163.7 531.3L160.8 531.3L158 531.3L155.1 531.3L152.3 531.3L149.4 531.3L146.6 531.3L143.7 531.3L140.9 531.3L138 531.3L135.2 531.3L132.4 531.3L129.5 531.3L126.7 531.3L123.8 531.3L121 531.3L118.1 531.3L115.3 531.3L112.4 531.3L109.6 531.3L106.7 531.3L103.9 531.3L101 531.3L98.2 531.3L95.4 531.3L92.5 531.3L89.7 531.3L86.8 531.3L84 531.3L81.1 531.3L78.3 531.3L75.4 531.3L72.6 531.3L69.7 531.3L66.9 531.3"
          fill="#c6a1a5"
          fill-opacity="0.8"
        ></path>
        <path
          id="No-regime-data"
          class="No-regime-data-area"
          stroke-linecap="round"
          d="M66.9 480.1L69.7 479.9L72.6 479.7L75.4 479.5L78.3 479.3L81.1 479.2L84 479L86.8 478.8L89.7 478.6L92.5 478.4L95.4 478.1L98.2 477.8L101 477.5L103.9 477.1L106.7 476.8L109.6 476.4L112.4 476L115.3 475.6L118.1 475.2L121 474.8L123.8 474.4L126.7 474.1L129.5 473.7L132.4 473.3L135.2 473L138 472.6L140.9 472.2L143.7 471.8L146.6 471.4L149.4 471L152.3 470.6L155.1 470.3L158 470L160.8 469.7L163.7 469.4L166.5 469.1L169.3 468.8L172.2 468.5L175 468.2L177.9 467.9L180.7 467.6L183.6 467.3L186.4 467L189.3 466.8L192.1 466.5L195 466.2L197.8 465.9L200.6 465.6L203.5 465.3L206.3 465L209.2 464.8L212 464.6L214.9 464.5L217.7 464.4L220.6 464.4L223.4 464.3L226.3 464.2L229.1 464.1L231.9 464L234.8 463.8L237.6 463.7L240.5 463.5L243.3 463.3L246.2 463.1L249 462.9L251.9 462.7L254.7 462.5L257.6 462.3L260.4 462.1L263.3 461.8L266.1 461.5L268.9 461.2L271.8 460.9L274.6 460.5L277.5 460.1L280.3 459.7L283.2 459.3L286 459L288.9 458.6L291.7 458.1L294.6 457.7L297.4 457.2L300.2 456.7L303.1 456.1L305.9 455.6L308.8 455L311.6 454.5L314.5 453.9L317.3 453.3L320.2 452.7L323 452.2L325.9 451.6L328.7 451.1L331.5 450.6L334.4 450.1L337.2 449.5L340.1 449L342.9 448.4L345.8 447.9L348.6 447.3L351.5 446.7L354.3 446L357.2 445.3L360 444.6L362.9 443.9L365.7 443.1L368.5 442.4L371.4 441.6L374.2 440.9L377.1 440.1L379.9 439.4L382.8 438.7L385.6 438.1L388.5 437.5L391.3 436.8L394.2 436.2L397 435.6L399.8 434.9L402.7 434.2L405.5 433.5L408.4 432.8L411.2 432L414.1 431.1L416.9 430.3L419.8 429.4L422.6 428.5L425.5 427.6L428.3 426.6L431.1 425.7L434 424.7L436.8 423.7L439.7 422.6L442.5 421.6L445.4 420.4L448.2 419.3L451.1 418.1L453.9 417L456.8 415.8L459.6 414.6L462.4 413.4L465.3 412.3L468.1 411.3L471 410.3L473.8 409.4L476.7 408.4L479.5 407.9L482.4 406.9L485.2 405.9L488.1 404.8L490.9 403.4L493.8 401.7L496.6 399.4L499.4 397L502.3 394.4L505.1 391.7L508 388.8L510.8 386L513.7 383L516.5 380L519.4 377.2L522.2 374.7L525.1 372.1L527.9 369.1L530.7 365.6L533.6 361.9L536.4 358.2L539.3 354.7L542.1 351L545 347.3L547.8 343.5L550.7 339.6L553.5 335.7L556.4 331.8L559.2 327.9L562 324L564.9 320.1L567.7 316.3L570.6 312.5L573.4 308.7L576.3 304.7L579.1 300.7L582 296.5L584.8 292.1L587.7 287.8L590.5 283.4L593.4 279L596.2 274.4L599 269.7L601.9 265L604.7 260.3L607.6 255.4L610.4 250.8L613.3 246.3L616.1 241.9L619 237.6L621.8 233.3L624.7 229L627.5 224.8L630.3 220.6L633.2 216.4L636 212.2L638.9 208L641.7 203.8L644.6 199.5L647.4 195.3L650.3 191L653.1 186.7L656 182.3L658.8 177.8L661.6 173.3L664.5 168.8L667.3 164.2L670.2 159.6L673 155L675.9 150.4L678.7 145.9L681.6 141.4L684.4 136.9L687.3 132.5L690.1 128.3L693 124.3L693 126.4L690.1 130.3L687.3 134.5L684.4 138.8L681.6 143.2L678.7 147.7L675.9 150.7L673 155L670.2 159.6L667.3 164.6L664.5 169.3L661.6 173.8L658.8 179.8L656 184.2L653.1 188.6L650.3 192.9L647.4 197.1L644.6 202.5L641.7 205.2L638.9 209.4L636 212.6L633.2 216.8L630.3 221L627.5 225.1L624.7 229.4L621.8 233.8L619 238.1L616.1 242.4L613.3 246.8L610.4 251.3L607.6 255.7L604.7 260.8L601.9 265.5L599 270.2L596.2 274.9L593.4 279.5L590.5 283.9L587.7 288.3L584.8 292.6L582 297L579.1 301.2L576.3 305.2L573.4 309.2L570.6 313.1L567.7 316.8L564.9 323.3L562 327.8L559.2 331.6L556.4 335.4L553.5 339.6L550.7 343.4L547.8 346.9L545 350.7L542.1 354.4L539.3 358L536.4 361.6L533.6 365.5L530.7 369.5L527.9 373.4L525.1 377.8L522.2 380.8L519.4 388.6L516.5 391.1L513.7 394.1L510.8 397.5L508 401.2L505.1 404L502.3 406.5L499.4 408.8L496.6 411.1L493.8 413.2L490.9 437.5L488.1 441.5L485.2 448.2L482.4 453.2L479.5 484.4L476.7 484.4L473.8 482.1L471 482.5L468.1 484.5L465.3 483.1L462.4 481.8L459.6 453.8L456.8 454.1L453.9 454.7L451.1 455.2L448.2 456.5L445.4 457.1L442.5 457.7L439.7 457.8L436.8 458.4L434 459L431.1 459.6L428.3 460.1L425.5 460.7L422.6 461.4L419.8 462.5L416.9 463.1L414.1 464.3L411.2 467.3L408.4 468.5L405.5 469.5L402.7 473L399.8 471.7L397 473L394.2 472.9L391.3 473.7L388.5 496.7L385.6 474.5L382.8 496.5L379.9 474.5L377.1 475L374.2 475.5L371.4 476L368.5 476.5L365.7 476.5L362.9 477L360 477.4L357.2 477.9L354.3 478.5L351.5 479.1L348.6 479.7L345.8 480.1L342.9 480.5L340.1 480.9L337.2 481.3L334.4 481.7L331.5 482.1L328.7 482.5L325.9 482.9L323 483.2L320.2 483.6L317.3 483.9L314.5 484.2L311.6 484.5L308.8 484.9L305.9 485.2L303.1 485.5L300.2 485.8L297.4 486.1L294.6 486.4L291.7 486.7L288.9 487.1L286 487.5L283.2 487.7L280.3 488L277.5 488.3L274.6 488.5L271.8 488.8L268.9 489L266.1 489.2L263.3 489.3L260.4 489.4L257.6 491.4L254.7 491.9L251.9 492L249 492.2L246.2 492.4L243.3 492.5L240.5 511.8L237.6 513.3L234.8 493.7L231.9 494.1L229.1 492.4L226.3 492.4L223.4 492.3L220.6 493.2L217.7 493.2L214.9 493.1L212 493.1L209.2 493.1L206.3 493.2L203.5 493.3L200.6 493.5L197.8 493.7L195 493.8L192.1 493.9L189.3 494L186.4 494.2L183.6 494.3L180.7 494.4L177.9 494.6L175 494.7L172.2 494.8L169.3 495L166.5 495.1L163.7 495.2L160.8 495.4L158 495.5L155.1 495.8L152.3 495.9L149.4 496.3L146.6 496.5L143.7 496.8L140.9 497.1L138 497.4L135.2 497.7L132.4 498.3L129.5 498.7L126.7 499.3L123.8 499.7L121 500.1L118.1 500.4L115.3 500.7L112.4 501L109.6 501.3L106.7 501.7L103.9 502L101 503.5L98.2 503.7L95.4 503.9L92.5 504.1L89.7 504.2L86.8 504.2L84 503.3L81.1 503.4L78.3 503.6L75.4 503.7L72.6 503.8L69.7 504L66.9 504.1"
          fill="#555555"
          fill-opacity="0.8"
        ></path>
      </g>
      <g id="borders">
        <path
          id="aged-91-+"
          class="aged-91-__002b-border"
          stroke-linecap="round"
          d="M66.9 531.3L69.7 531.3L72.6 531.3L75.4 531.3L78.3 531.3L81.1 531.3L84 531.3L86.8 531.3L89.7 531.3L92.5 531.3L95.4 531.3L98.2 531.3L101 531.3L103.9 531.3L106.7 531.3L109.6 531.3L112.4 531.3L115.3 531.3L118.1 531.3L121 531.3L123.8 531.3L126.7 531.3L129.5 531.3L132.4 531.3L135.2 531.3L138 531.3L140.9 531.3L143.7 531.3L146.6 531.3L149.4 531.3L152.3 531.3L155.1 531.3L158 531.3L160.8 531.3L163.7 531.3L166.5 531.3L169.3 531.3L172.2 531.3L175 531.3L177.9 531.3L180.7 531.3L183.6 531.3L186.4 531.3L189.3 531.3L192.1 531.3L195 531.3L197.8 531.3L200.6 531.3L203.5 531.3L206.3 531.3L209.2 531.3L212 531.3L214.9 531.3L217.7 531.3L220.6 531.3L223.4 531.3L226.3 531.3L229.1 531.3L231.9 531.3L234.8 531.3L237.6 531.3L240.5 531.3L243.3 531.3L246.2 531.3L249 531.3L251.9 531.3L254.7 531.3L257.6 531.3L260.4 531.3L263.3 531.3L266.1 531.3L268.9 531.3L271.8 531.3L274.6 531.3L277.5 531.3L280.3 531.3L283.2 531.3L286 531.3L288.9 531.3L291.7 531.3L294.6 531.3L297.4 531.3L300.2 531.3L303.1 531.3L305.9 531.3L308.8 531.3L311.6 531.3L314.5 531.3L317.3 531.3L320.2 531.3L323 531.3L325.9 531.3L328.7 531.3L331.5 531.3L334.4 531.3L337.2 531.3L340.1 531.3L342.9 531.3L345.8 531.3L348.6 531.3L351.5 531.3L354.3 531.3L357.2 531.3L360 531.3L362.9 531.3L365.7 531.3L368.5 531.3L371.4 531.3L374.2 531.3L377.1 531.3L379.9 531.3L382.8 531.3L385.6 531.3L388.5 531.3L391.3 531.3L394.2 531.3L397 531.3L399.8 531.3L402.7 531.3L405.5 531.3L408.4 531.3L411.2 531.3L414.1 531.3L416.9 531.3L419.8 531.3L422.6 531.3L425.5 531.3L428.3 531.3L431.1 531.3L434 531.3L436.8 531.3L439.7 531.3L442.5 531.3L445.4 531.3L448.2 531.3L451.1 531.3L453.9 531.3L456.8 531.3L459.6 531.3L462.4 531.3L465.3 531.3L468.1 531.3L471 531.3L473.8 531.3L476.7 531.3L479.5 531.3L482.4 531.3L485.2 531.3L488.1 531.3L490.9 531.3L493.8 531.3L496.6 531.3L499.4 531.3L502.3 531.3L505.1 531.3L508 531.3L510.8 531.3L513.7 531.3L516.5 531.3L519.4 531.3L522.2 531.3L525.1 531.3L527.9 531.3L530.7 531.3L533.6 531.3L536.4 531.3L539.3 531.3L542.1 531.3L545 531.3L547.8 531.3L550.7 531.3L553.5 531.3L556.4 531.3L559.2 531.3L562 531.3L564.9 531.3L567.7 531.3L570.6 531.3L573.4 531.3L576.3 531.3L579.1 531.3L582 531.3L584.8 531.3L587.7 531.1L590.5 531.1L593.4 531.1L596.2 531.1L599 531.1L601.9 531.1L604.7 531.1L607.6 531.1L610.4 531.1L613.3 530.2L616.1 530.2L619 530.2L621.8 530.2L624.7 530.2L627.5 530.1L630.3 530.1L633.2 530.1L636 530.1L638.9 530.1L641.7 530.1L644.6 530.1L647.4 530.1L650.3 530L653.1 530L656 529.7L658.8 524.7L661.6 524.7L664.5 508.4L667.3 507.7L670.2 507.2L673 507L675.9 506.8L678.7 506.6L681.6 506.4L684.4 506.2L687.3 506L690.1 505.8L693 505.7"
          stroke="rgb(19, 34, 99)"
          stroke-opacity="0.7"
          stroke-width="0.5"
          fill="none"
        ></path>
        <path
          id="aged-61-90"
          class="aged-61-90-border"
          stroke-linecap="round"
          d="M66.9 531.3L69.7 531.3L72.6 531.3L75.4 531.3L78.3 531.3L81.1 531.3L84 531.3L86.8 531.3L89.7 531.3L92.5 531.3L95.4 531.3L98.2 531.3L101 531.3L103.9 531.3L106.7 531.3L109.6 531.3L112.4 531.3L115.3 531.3L118.1 531.3L121 531.3L123.8 531.3L126.7 531.3L129.5 531.3L132.4 531.3L135.2 531.3L138 531.3L140.9 531.3L143.7 531.3L146.6 531.3L149.4 531.3L152.3 531.3L155.1 531.3L158 531.3L160.8 531.3L163.7 531.3L166.5 531.3L169.3 531.3L172.2 531.3L175 531.3L177.9 531.3L180.7 531.3L183.6 531.3L186.4 531.3L189.3 531.3L192.1 531.3L195 531.3L197.8 531.3L200.6 531.3L203.5 531.3L206.3 531.3L209.2 531.3L212 531.3L214.9 531.3L217.7 531.3L220.6 531.3L223.4 531.3L226.3 531.3L229.1 531.3L231.9 531.3L234.8 531.3L237.6 531.3L240.5 531.3L243.3 531.3L246.2 531.3L249 531.3L251.9 531.3L254.7 531.3L257.6 531.3L260.4 531.3L263.3 531.3L266.1 531.3L268.9 531.3L271.8 531.3L274.6 531.3L277.5 531.3L280.3 531.3L283.2 531.3L286 531.3L288.9 531.3L291.7 531.3L294.6 531.3L297.4 531.3L300.2 531.3L303.1 531.3L305.9 531.3L308.8 531.3L311.6 531.3L314.5 531.3L317.3 531.3L320.2 531.3L323 531.3L325.9 531.3L328.7 531.3L331.5 531.3L334.4 531.3L337.2 531.3L340.1 531.3L342.9 531.3L345.8 531.3L348.6 531.3L351.5 531.3L354.3 531.3L357.2 531.3L360 531.3L362.9 531.3L365.7 531.3L368.5 531.3L371.4 531.3L374.2 531.3L377.1 531.3L379.9 531.3L382.8 531.3L385.6 531.3L388.5 531.3L391.3 531.3L394.2 531.3L397 531.3L399.8 531.3L402.7 531.3L405.5 531.3L408.4 531.3L411.2 531.3L414.1 531.3L416.9 531.3L419.8 531.3L422.6 531.3L425.5 531.3L428.3 531.3L431.1 531.3L434 531.3L436.8 531.3L439.7 531.3L442.5 531.3L445.4 531.3L448.2 531.3L451.1 531.3L453.9 531.3L456.8 531.3L459.6 531.3L462.4 531.3L465.3 531.3L468.1 531.3L471 531.3L473.8 531.3L476.7 531.3L479.5 531.3L482.4 531.3L485.2 531.3L488.1 531.3L490.9 531.3L493.8 531.3L496.6 531.3L499.4 531.3L502.3 531.2L505.1 531.2L508 531.2L510.8 531.2L513.7 531.2L516.5 531.2L519.4 531.2L522.2 531.2L525.1 531.2L527.9 530.6L530.7 530.6L533.6 530.6L536.4 530.6L539.3 530.6L542.1 530.5L545 530.5L547.8 530.5L550.7 530.5L553.5 530.5L556.4 530.5L559.2 530.4L562 530.4L564.9 530.4L567.7 530.4L570.6 530.2L573.4 526L576.3 525.9L579.1 514.3L582 513.7L584.8 513.4L587.7 513.2L590.5 513L593.4 512.9L596.2 512.7L599 512.6L601.9 512.4L604.7 512.2L607.6 512L610.4 511.8L613.3 511.5L616.1 511.3L619 511.1L621.8 510.9L624.7 510.7L627.5 510.5L630.3 510.2L633.2 510L636 509.8L638.9 509.6L641.7 509.4L644.6 509.2L647.4 509L650.3 507.4L653.1 500.5L656 500.3L658.8 499L661.6 498.5L664.5 433.7L667.3 432.5L670.2 424.7L673 423.6L675.9 422.5L678.7 421.5L681.6 420.5L684.4 419.4L687.3 415.9L690.1 414.9L693 414"
          stroke="rgb(28, 79, 141)"
          stroke-opacity="0.7"
          stroke-width="0.5"
          fill="none"
        ></path>
        <path
          id="aged-31-60"
          class="aged-31-60-border"
          stroke-linecap="round"
          d="M66.9 531.3L69.7 531.3L72.6 531.3L75.4 531.3L78.3 531.3L81.1 531.3L84 531.3L86.8 531.3L89.7 531.3L92.5 531.3L95.4 531.3L98.2 531.3L101 531.3L103.9 531.3L106.7 531.3L109.6 531.3L112.4 531.3L115.3 531.3L118.1 531.3L121 531.3L123.8 531.3L126.7 531.3L129.5 531.3L132.4 531.3L135.2 531.3L138 531.3L140.9 531.3L143.7 531.3L146.6 531.3L149.4 531.3L152.3 531.3L155.1 531.3L158 531.3L160.8 531.3L163.7 531.3L166.5 531.3L169.3 531.3L172.2 531.3L175 531.3L177.9 531.3L180.7 531.3L183.6 531.3L186.4 531.3L189.3 531.3L192.1 531.3L195 531.3L197.8 531.3L200.6 531.3L203.5 531.3L206.3 531.3L209.2 531.3L212 531.3L214.9 531.3L217.7 531.3L220.6 531.3L223.4 531.3L226.3 531.3L229.1 531.3L231.9 531.3L234.8 531.3L237.6 531.3L240.5 531.3L243.3 531.3L246.2 531.3L249 531.3L251.9 531.3L254.7 531.3L257.6 531.3L260.4 531.3L263.3 531.3L266.1 531.3L268.9 531.3L271.8 531.3L274.6 531.3L277.5 531.3L280.3 531.3L283.2 531.3L286 531.3L288.9 531.3L291.7 531.3L294.6 531.3L297.4 531.3L300.2 531.3L303.1 531.3L305.9 531.3L308.8 531.3L311.6 531.3L314.5 531.3L317.3 531.3L320.2 531.3L323 531.3L325.9 531.3L328.7 531.3L331.5 531.3L334.4 531.3L337.2 531.3L340.1 531.3L342.9 531.3L345.8 531.3L348.6 531.3L351.5 531.3L354.3 531.3L357.2 531.3L360 531.3L362.9 531.3L365.7 531.3L368.5 531.3L371.4 531.3L374.2 531.3L377.1 531.3L379.9 531.3L382.8 531.3L385.6 531.3L388.5 531.3L391.3 531.3L394.2 531.3L397 531.3L399.8 531.3L402.7 531.3L405.5 531.3L408.4 531.3L411.2 531.3L414.1 531.3L416.9 531.2L419.8 531.2L422.6 531.2L425.5 531.2L428.3 531.2L431.1 531.2L434 531.2L436.8 531.2L439.7 531.2L442.5 530.9L445.4 530.9L448.2 530.9L451.1 530.9L453.9 530.9L456.8 530.9L459.6 530.9L462.4 530.9L465.3 530.9L468.1 530.8L471 530.8L473.8 530.8L476.7 530.8L479.5 530.8L482.4 530.8L485.2 530.6L488.1 527.3L490.9 527.3L493.8 519.5L496.6 519L499.4 518.7L502.3 518.5L505.1 518.3L508 518.1L510.8 517.9L513.7 517.7L516.5 517.4L519.4 517.2L522.2 517L525.1 516.8L527.9 516.6L530.7 516.4L533.6 516.2L536.4 516.1L539.3 515.9L542.1 515.7L545 515.6L547.8 515.4L550.7 515.2L553.5 515L556.4 514.9L559.2 514.7L562 514.6L564.9 513.2L567.7 507.1L570.6 506.9L573.4 506L576.3 502.5L579.1 466L582 464.9L584.8 457.7L587.7 456.6L590.5 455.5L593.4 454.4L596.2 453.2L599 452.1L601.9 449.3L604.7 447L607.6 445.7L610.4 447.7L613.3 446.2L616.1 444.9L619 443.6L621.8 442.2L624.7 440.4L627.5 439.1L630.3 437.7L633.2 436.4L636 435.1L638.9 433.3L641.7 432L644.6 430.7L647.4 428.8L650.3 428.5L653.1 426.7L656 423.1L658.8 421.8L661.6 420.5L664.5 419.3L667.3 418.1L670.2 416.3L673 409L675.9 407.1L678.7 395L681.6 392L684.4 390.7L687.3 386.7L690.1 383.4L693 379.5"
          stroke="rgb(54, 152, 164)"
          stroke-opacity="0.7"
          stroke-width="0.5"
          fill="none"
        ></path>
        <path
          id="aged-19-30"
          class="aged-19-30-border"
          stroke-linecap="round"
          d="M66.9 531.3L69.7 531.3L72.6 531.3L75.4 531.3L78.3 531.3L81.1 531.3L84 531.3L86.8 531.3L89.7 531.3L92.5 531.3L95.4 531.3L98.2 531.3L101 531.3L103.9 531.3L106.7 531.3L109.6 531.3L112.4 531.3L115.3 531.3L118.1 531.3L121 531.3L123.8 531.3L126.7 531.3L129.5 531.3L132.4 531.3L135.2 531.3L138 531.3L140.9 531.3L143.7 531.3L146.6 531.3L149.4 531.3L152.3 531.3L155.1 531.3L158 531.3L160.8 531.3L163.7 531.3L166.5 531.3L169.3 531.3L172.2 531.3L175 531.3L177.9 531.3L180.7 531.3L183.6 531.3L186.4 531.3L189.3 531.3L192.1 531.3L195 531.3L197.8 531.3L200.6 531.3L203.5 531.3L206.3 531.3L209.2 531.3L212 531.3L214.9 531.3L217.7 531.3L220.6 531.3L223.4 531.3L226.3 531.3L229.1 531.3L231.9 531.3L234.8 531.3L237.6 531.3L240.5 531.3L243.3 531.3L246.2 531.3L249 531.3L251.9 531.3L254.7 531.3L257.6 531.3L260.4 531.3L263.3 531.3L266.1 531.3L268.9 531.3L271.8 531.3L274.6 531.3L277.5 531.3L280.3 531.3L283.2 531.3L286 531.3L288.9 531.3L291.7 531.3L294.6 531.3L297.4 531.3L300.2 531.3L303.1 531.3L305.9 531.3L308.8 531.3L311.6 531.3L314.5 531.3L317.3 531.3L320.2 531.3L323 531.3L325.9 531.3L328.7 531.3L331.5 531.3L334.4 531.3L337.2 531.3L340.1 531.3L342.9 531.3L345.8 531.3L348.6 531.3L351.5 531.3L354.3 531.3L357.2 531.3L360 531.3L362.9 531.3L365.7 531.3L368.5 531.3L371.4 531.3L374.2 531.3L377.1 531.3L379.9 531.3L382.8 531.2L385.6 531.2L388.5 531.2L391.3 531.2L394.2 531.2L397 531.2L399.8 531.2L402.7 531.2L405.5 531.2L408.4 531L411.2 531L414.1 530.9L416.9 530.9L419.8 530.9L422.6 530.9L425.5 530.9L428.3 530.9L431.1 530.9L434 530.9L436.8 530.9L439.7 530.7L442.5 530.7L445.4 530.5L448.2 530.5L451.1 530.3L453.9 527.3L456.8 526.8L459.6 519.4L462.4 519.8L465.3 520.3L468.1 520.2L471 520.1L473.8 520L476.7 519.9L479.5 519.7L482.4 519.6L485.2 519.4L488.1 519.3L490.9 519.2L493.8 519L496.6 518.8L499.4 518.7L502.3 518.5L505.1 518.3L508 518.1L510.8 517.9L513.7 517.7L516.5 517.4L519.4 517.2L522.2 517L525.1 516.7L527.9 516.5L530.7 515.2L533.6 507.8L536.4 509.3L539.3 507.8L542.1 503.9L545 475.9L547.8 475L550.7 468.6L553.5 467.6L556.4 466.5L559.2 466.2L562 465.2L564.9 464.2L567.7 462L570.6 461L573.4 459.9L576.3 456.6L579.1 457.5L582 456.4L584.8 455.2L587.7 454.1L590.5 452.5L593.4 451.3L596.2 450.1L599 448.8L601.9 447.6L604.7 446L607.6 444.6L610.4 446.6L613.3 444.7L616.1 443.1L619 441.3L621.8 437.9L624.7 436.5L627.5 434.5L630.3 433.1L633.2 431.7L636 430.3L638.9 423.5L641.7 421.5L644.6 410.3L647.4 403.7L650.3 403.4L653.1 399.4L656 395.8L658.8 391.4L661.6 384.1L664.5 378.9L667.3 377.2L670.2 372.9L673 371.4L675.9 368.4L678.7 365.3L681.6 368.3L684.4 353.1L687.3 343.5L690.1 340.9L693 336.1"
          stroke="rgb(166, 195, 151)"
          stroke-opacity="0.7"
          stroke-width="0.5"
          fill="none"
        ></path>
        <path
          id="democracies-aged-1-18"
          class="democracies-aged-1-18-border"
          stroke-linecap="round"
          d="M66.9 531.3L69.7 531.3L72.6 531.3L75.4 531.3L78.3 531.3L81.1 531.3L84 531.3L86.8 531.3L89.7 531.3L92.5 531.3L95.4 531.3L98.2 531.3L101 531.3L103.9 531.3L106.7 531.3L109.6 531.3L112.4 531.3L115.3 531.3L118.1 531.3L121 531.3L123.8 531.3L126.7 531.3L129.5 531.3L132.4 531.3L135.2 531.3L138 531.3L140.9 531.3L143.7 531.3L146.6 531.3L149.4 531.3L152.3 531.3L155.1 531.3L158 531.3L160.8 531.3L163.7 531.3L166.5 531.3L169.3 531.3L172.2 531.3L175 531.3L177.9 531.3L180.7 531.3L183.6 531.3L186.4 531.3L189.3 531.3L192.1 531.3L195 531.3L197.8 531.3L200.6 531.3L203.5 531.3L206.3 531.3L209.2 531.3L212 531.3L214.9 531.3L217.7 531.3L220.6 531.3L223.4 531.3L226.3 531.3L229.1 531.3L231.9 531.3L234.8 531.3L237.6 531.3L240.5 531.3L243.3 531.3L246.2 531.3L249 531.3L251.9 531.3L254.7 531.3L257.6 531.3L260.4 531.3L263.3 531.3L266.1 531.3L268.9 531.3L271.8 531.3L274.6 531.3L277.5 531.3L280.3 531.3L283.2 531.3L286 531.3L288.9 531.3L291.7 531.3L294.6 531.3L297.4 531.3L300.2 531.3L303.1 531.3L305.9 531.3L308.8 531.3L311.6 531.3L314.5 531.3L317.3 531.3L320.2 531.3L323 531.3L325.9 531.3L328.7 531.3L331.5 531.3L334.4 531.3L337.2 531.3L340.1 531.3L342.9 531.3L345.8 531.3L348.6 531.3L351.5 531.3L354.3 531.3L357.2 531.1L360 531.1L362.9 531L365.7 531L368.5 531L371.4 531L374.2 531L377.1 531L379.9 531L382.8 531L385.6 531L388.5 530.9L391.3 530.9L394.2 530.7L397 530.7L399.8 530.5L402.7 526.4L405.5 522.7L408.4 516.1L411.2 515.6L414.1 515.2L416.9 515.1L419.8 515L422.6 514.8L425.5 516.1L428.3 516L431.1 515.9L434 515.7L436.8 515.6L439.7 514.3L442.5 514L445.4 517.8L448.2 518L451.1 517.9L453.9 517.8L456.8 519L459.6 519L462.4 519.6L465.3 520.1L468.1 520L471 519.9L473.8 519.6L476.7 519.5L479.5 517.7L482.4 509.4L485.2 509.8L488.1 507.5L490.9 504.3L493.8 481.3L496.6 480.4L499.4 474.5L502.3 473.8L505.1 472.8L508 467.6L510.8 470.4L513.7 473.4L516.5 471.6L519.4 470.1L522.2 464L525.1 462.6L527.9 464L530.7 461.4L533.6 464.4L536.4 464.4L539.3 466.6L542.1 466.1L545 465.7L547.8 465.4L550.7 464.1L553.5 462.4L556.4 458.6L559.2 456.7L562 455L564.9 451.5L567.7 453.4L570.6 454.8L573.4 453.6L576.3 447.4L579.1 447.1L582 446.3L584.8 444.5L587.7 440.7L590.5 438.9L593.4 431L596.2 425L599 423.4L601.9 413.8L604.7 411L607.6 407.6L610.4 399.1L613.3 381.9L616.1 378.3L619 372.2L621.8 370L624.7 367.1L627.5 363.8L630.3 361.6L633.2 363.3L636 355.4L638.9 351.7L641.7 348.6L644.6 345.5L647.4 344L650.3 342.7L653.1 343.7L656 349L658.8 335.2L661.6 327.5L664.5 325.8L667.3 319L670.2 317.4L673 315.1L675.9 324.5L678.7 311.6L681.6 313.9L684.4 323.3L687.3 321.1L690.1 318.1L693 316.2"
          stroke="rgb(198, 207, 148)"
          stroke-opacity="0.7"
          stroke-width="0.5"
          fill="none"
        ></path>
        <path
          id="People-living-in-non-democracies"
          class="People-living-in-non-democracies-border"
          stroke-linecap="round"
          d="M66.9 504.1L69.7 504L72.6 503.8L75.4 503.7L78.3 503.6L81.1 503.4L84 503.3L86.8 504.2L89.7 504.2L92.5 504.1L95.4 503.9L98.2 503.7L101 503.5L103.9 502L106.7 501.7L109.6 501.3L112.4 501L115.3 500.7L118.1 500.4L121 500.1L123.8 499.7L126.7 499.3L129.5 498.7L132.4 498.3L135.2 497.7L138 497.4L140.9 497.1L143.7 496.8L146.6 496.5L149.4 496.3L152.3 495.9L155.1 495.8L158 495.5L160.8 495.4L163.7 495.2L166.5 495.1L169.3 495L172.2 494.8L175 494.7L177.9 494.6L180.7 494.4L183.6 494.3L186.4 494.2L189.3 494L192.1 493.9L195 493.8L197.8 493.7L200.6 493.5L203.5 493.3L206.3 493.2L209.2 493.1L212 493.1L214.9 493.1L217.7 493.2L220.6 493.2L223.4 492.3L226.3 492.4L229.1 492.4L231.9 494.1L234.8 493.7L237.6 513.3L240.5 511.8L243.3 492.5L246.2 492.4L249 492.2L251.9 492L254.7 491.9L257.6 491.4L260.4 489.4L263.3 489.3L266.1 489.2L268.9 489L271.8 488.8L274.6 488.5L277.5 488.3L280.3 488L283.2 487.7L286 487.5L288.9 487.1L291.7 486.7L294.6 486.4L297.4 486.1L300.2 485.8L303.1 485.5L305.9 485.2L308.8 484.9L311.6 484.5L314.5 484.2L317.3 483.9L320.2 483.6L323 483.2L325.9 482.9L328.7 482.5L331.5 482.1L334.4 481.7L337.2 481.3L340.1 480.9L342.9 480.5L345.8 480.1L348.6 479.7L351.5 479.1L354.3 478.5L357.2 477.9L360 477.4L362.9 477L365.7 476.5L368.5 476.5L371.4 476L374.2 475.5L377.1 475L379.9 474.5L382.8 496.5L385.6 474.5L388.5 496.7L391.3 473.7L394.2 472.9L397 473L399.8 471.7L402.7 473L405.5 469.5L408.4 468.5L411.2 467.3L414.1 464.3L416.9 463.1L419.8 462.5L422.6 461.4L425.5 460.7L428.3 460.1L431.1 459.6L434 459L436.8 458.4L439.7 457.8L442.5 457.7L445.4 457.1L448.2 456.5L451.1 455.2L453.9 454.7L456.8 454.1L459.6 453.8L462.4 481.8L465.3 483.1L468.1 484.5L471 482.5L473.8 482.1L476.7 484.4L479.5 484.4L482.4 453.2L485.2 448.2L488.1 441.5L490.9 437.5L493.8 413.2L496.6 411.1L499.4 408.8L502.3 406.5L505.1 404L508 401.2L510.8 397.5L513.7 394.1L516.5 391.1L519.4 388.6L522.2 380.8L525.1 377.8L527.9 373.4L530.7 369.5L533.6 365.5L536.4 361.6L539.3 358L542.1 354.4L545 350.7L547.8 346.9L550.7 343.4L553.5 339.6L556.4 335.4L559.2 331.6L562 327.8L564.9 323.3L567.7 316.8L570.6 313.1L573.4 309.2L576.3 305.2L579.1 301.2L582 297L584.8 292.6L587.7 288.3L590.5 283.9L593.4 279.5L596.2 274.9L599 270.2L601.9 265.5L604.7 260.8L607.6 255.7L610.4 251.3L613.3 246.8L616.1 242.4L619 238.1L621.8 233.8L624.7 229.4L627.5 225.1L630.3 221L633.2 216.8L636 212.6L638.9 209.4L641.7 205.2L644.6 202.5L647.4 197.1L650.3 192.9L653.1 188.6L656 184.2L658.8 179.8L661.6 173.8L664.5 169.3L667.3 164.6L670.2 159.6L673 155L675.9 150.7L678.7 147.7L681.6 143.2L684.4 138.8L687.3 134.5L690.1 130.3L693 126.4"
          stroke="rgb(166, 135, 138)"
          stroke-opacity="0.7"
          stroke-width="0.5"
          fill="none"
        ></path>
        <path
          id="No-regime-data"
          class="No-regime-data-border"
          stroke-linecap="round"
          d="M66.9 480.1L69.7 479.9L72.6 479.7L75.4 479.5L78.3 479.3L81.1 479.2L84 479L86.8 478.8L89.7 478.6L92.5 478.4L95.4 478.1L98.2 477.8L101 477.5L103.9 477.1L106.7 476.8L109.6 476.4L112.4 476L115.3 475.6L118.1 475.2L121 474.8L123.8 474.4L126.7 474.1L129.5 473.7L132.4 473.3L135.2 473L138 472.6L140.9 472.2L143.7 471.8L146.6 471.4L149.4 471L152.3 470.6L155.1 470.3L158 470L160.8 469.7L163.7 469.4L166.5 469.1L169.3 468.8L172.2 468.5L175 468.2L177.9 467.9L180.7 467.6L183.6 467.3L186.4 467L189.3 466.8L192.1 466.5L195 466.2L197.8 465.9L200.6 465.6L203.5 465.3L206.3 465L209.2 464.8L212 464.6L214.9 464.5L217.7 464.4L220.6 464.4L223.4 464.3L226.3 464.2L229.1 464.1L231.9 464L234.8 463.8L237.6 463.7L240.5 463.5L243.3 463.3L246.2 463.1L249 462.9L251.9 462.7L254.7 462.5L257.6 462.3L260.4 462.1L263.3 461.8L266.1 461.5L268.9 461.2L271.8 460.9L274.6 460.5L277.5 460.1L280.3 459.7L283.2 459.3L286 459L288.9 458.6L291.7 458.1L294.6 457.7L297.4 457.2L300.2 456.7L303.1 456.1L305.9 455.6L308.8 455L311.6 454.5L314.5 453.9L317.3 453.3L320.2 452.7L323 452.2L325.9 451.6L328.7 451.1L331.5 450.6L334.4 450.1L337.2 449.5L340.1 449L342.9 448.4L345.8 447.9L348.6 447.3L351.5 446.7L354.3 446L357.2 445.3L360 444.6L362.9 443.9L365.7 443.1L368.5 442.4L371.4 441.6L374.2 440.9L377.1 440.1L379.9 439.4L382.8 438.7L385.6 438.1L388.5 437.5L391.3 436.8L394.2 436.2L397 435.6L399.8 434.9L402.7 434.2L405.5 433.5L408.4 432.8L411.2 432L414.1 431.1L416.9 430.3L419.8 429.4L422.6 428.5L425.5 427.6L428.3 426.6L431.1 425.7L434 424.7L436.8 423.7L439.7 422.6L442.5 421.6L445.4 420.4L448.2 419.3L451.1 418.1L453.9 417L456.8 415.8L459.6 414.6L462.4 413.4L465.3 412.3L468.1 411.3L471 410.3L473.8 409.4L476.7 408.4L479.5 407.9L482.4 406.9L485.2 405.9L488.1 404.8L490.9 403.4L493.8 401.7L496.6 399.4L499.4 397L502.3 394.4L505.1 391.7L508 388.8L510.8 386L513.7 383L516.5 380L519.4 377.2L522.2 374.7L525.1 372.1L527.9 369.1L530.7 365.6L533.6 361.9L536.4 358.2L539.3 354.7L542.1 351L545 347.3L547.8 343.5L550.7 339.6L553.5 335.7L556.4 331.8L559.2 327.9L562 324L564.9 320.1L567.7 316.3L570.6 312.5L573.4 308.7L576.3 304.7L579.1 300.7L582 296.5L584.8 292.1L587.7 287.8L590.5 283.4L593.4 279L596.2 274.4L599 269.7L601.9 265L604.7 260.3L607.6 255.4L610.4 250.8L613.3 246.3L616.1 241.9L619 237.6L621.8 233.3L624.7 229L627.5 224.8L630.3 220.6L633.2 216.4L636 212.2L638.9 208L641.7 203.8L644.6 199.5L647.4 195.3L650.3 191L653.1 186.7L656 182.3L658.8 177.8L661.6 173.3L664.5 168.8L667.3 164.2L670.2 159.6L673 155L675.9 150.4L678.7 145.9L681.6 141.4L684.4 136.9L687.3 132.5L690.1 128.3L693 124.3"
          stroke="rgb(71, 71, 71)"
          stroke-opacity="0.7"
          stroke-width="0.5"
          fill="none"
        ></path>
      </g>
    </g>
  </g>
  <g id="footer" class="SourcesFooter" style="fill: #5b5b5b">
    <g id="sources" class="markdown-text-wrap">
      <text x="16.0" y="580.9" style="font-size: 13.5px; line-height: 1.2">
        <tspan x="16" y="580.9">
          <tspan style="font-weight: 700">Data source:</tspan>
          Boix-Miller-Rosato (2022); Population based on various sources (2023)
        </tspan>
      </text>
    </g>
    <text id="origin-url" font-size="13.50" x="591.4" y="580.9">
      <tspan x="591.405" y="580.895">
        <a
          target="_blank"
          style="fill: #5b5b5b"
          href="https://ourworldindata.org/democracy"
        >
          OurWorldinData.org/democracy
        </a>
        |
        <a
          target="_blank"
          style="fill: #5b5b5b"
          href="https://creativecommons.org/licenses/by/4.0/"
        >
          CC BY
        </a>
      </tspan>
    </text>
  </g>
</svg>
