<svg
    xmlns="http://www.w3.org/2000/svg"
    version="1.1"
    style="font-family:Lato, &#x27;Helvetica Neue&#x27;, Helvetica, Arial, &#x27;Liberation Sans&#x27;, sans-serif;text-rendering:geometricPrecision;-webkit-font-smoothing:antialiased;font-size:18px;background-color:#ffffff"
    width="850"
    height="600"
    viewBox="0 0 850 600"
>
    <defs>
        <style>
            @import url(https://ourworldindata.org/fonts.css);
        </style>
    </defs>
    <defs>
        <pattern
            id="noDataPattern"
            patternUnits="userSpaceOnUse"
            width="4"
            height="4"
            patternTransform="rotate(-45 2 2)"
        >
            <path d="M -1,2 l 6,0" stroke="#ccc" stroke-width="0.7"></path>
        </pattern>
    </defs>
    <g id="header" class="HeaderView">
        <g id="logo" transform="translate(769, 16) scale(1)">
            <svg
                className="owidLogo"
                xmlns="http://www.w3.org/2000/svg"
                width="65"
                height="36"
                viewBox="0 0 65 36"
                fill="none"
            >
                <path fill="#002147" d="M0 0h64.8v36H0z" />
                <path fill="#CE261E" d="M0 33.3h64.8V36H0z" />
                <path
                    fill="#fff"
                    d="M13.796 10.575c0 .636-.106 1.226-.318 1.77a4.193 4.193 0 0 1-.894 1.404 4.084 4.084 0 0 1-1.386.93c-.54.22-1.138.33-1.794.33-.656 0-1.256-.11-1.8-.33a4.149 4.149 0 0 1-1.392-.93 4.193 4.193 0 0 1-.894-1.404A4.833 4.833 0 0 1 5 10.575c0-.636.106-1.224.318-1.764a4.18 4.18 0 0 1 .894-1.41 4.076 4.076 0 0 1 1.392-.924 4.684 4.684 0 0 1 1.8-.336c.656 0 1.254.112 1.794.336.54.224 1.002.534 1.386.93.384.392.682.86.894 1.404.212.54.318 1.128.318 1.764Zm-1.656 0c0-.476-.064-.902-.192-1.278a2.671 2.671 0 0 0-.54-.966 2.332 2.332 0 0 0-.864-.606 2.94 2.94 0 0 0-1.14-.21c-.424 0-.806.07-1.146.21-.34.14-.63.342-.87.606a2.742 2.742 0 0 0-.546.966 3.955 3.955 0 0 0-.192 1.278c0 .476.064.904.192 1.284.128.376.31.696.546.96.24.26.53.46.87.6.34.14.722.21 1.146.21.424 0 .804-.07 1.14-.21.34-.14.628-.34.864-.6.236-.264.416-.584.54-.96a4.01 4.01 0 0 0 .192-1.284ZM16.104 8.757v3.912c0 .376.086.668.258.876.176.204.438.306.786.306.256 0 .496-.056.72-.168a2.58 2.58 0 0 0 .636-.474V8.757h1.482v6.156h-.906c-.192 0-.318-.09-.378-.27l-.102-.492a4.65 4.65 0 0 1-.396.354 2.577 2.577 0 0 1-.438.27 2.35 2.35 0 0 1-.498.168 2.345 2.345 0 0 1-.57.066c-.336 0-.634-.056-.894-.168a1.821 1.821 0 0 1-.648-.486 2.157 2.157 0 0 1-.402-.738 3.233 3.233 0 0 1-.132-.948V8.757h1.482ZM21.328 14.913V8.757h.87c.152 0 .258.028.318.084.06.056.1.152.12.288l.09.744c.22-.38.478-.68.774-.9.296-.22.628-.33.996-.33.304 0 .556.07.756.21l-.192 1.11c-.012.072-.038.124-.078.156a.278.278 0 0 1-.162.042 1.01 1.01 0 0 1-.246-.042 1.646 1.646 0 0 0-.414-.042c-.308 0-.572.086-.792.258-.22.168-.406.416-.558.744v3.834h-1.482ZM27.347 6.237h1.356a.57.57 0 0 1 .348.102c.096.064.16.152.192.264l1.476 5.19c.036.128.068.268.096.42.032.148.062.306.09.474a5.968 5.968 0 0 1 .228-.894l1.704-5.19a.575.575 0 0 1 .186-.252.543.543 0 0 1 .348-.114h.474a.57.57 0 0 1 .348.102.497.497 0 0 1 .192.264l1.692 5.19c.088.256.164.54.228.852.028-.156.056-.306.084-.45.032-.144.064-.278.096-.402l1.476-5.19c.028-.1.09-.186.186-.258a.563.563 0 0 1 .348-.108h1.266l-2.694 8.676h-1.458l-1.896-5.928-.078-.246a9.504 9.504 0 0 1-.072-.282c-.024.1-.05.194-.078.282-.024.088-.048.17-.072.246l-1.914 5.928H30.04l-2.694-8.676ZM42.771 8.661c.46 0 .876.074 1.248.222.376.148.696.358.96.63s.468.604.612.996c.144.392.216.83.216 1.314 0 .488-.072.928-.216 1.32a2.85 2.85 0 0 1-.612 1.002 2.653 2.653 0 0 1-.96.636 3.35 3.35 0 0 1-1.248.222c-.46 0-.878-.074-1.254-.222a2.712 2.712 0 0 1-.966-.636 2.922 2.922 0 0 1-.618-1.002 3.807 3.807 0 0 1-.216-1.32c0-.484.072-.922.216-1.314.148-.392.354-.724.618-.996.268-.272.59-.482.966-.63a3.397 3.397 0 0 1 1.254-.222Zm0 5.202c.512 0 .89-.172 1.134-.516.248-.344.372-.848.372-1.512s-.124-1.17-.372-1.518c-.244-.348-.622-.522-1.134-.522-.52 0-.904.176-1.152.528-.248.348-.372.852-.372 1.512s.124 1.164.372 1.512c.248.344.632.516 1.152.516ZM46.723 14.913V8.757h.87c.152 0 .258.028.318.084.06.056.1.152.12.288l.09.744c.22-.38.478-.68.774-.9.296-.22.628-.33.996-.33.304 0 .556.07.756.21l-.192 1.11c-.012.072-.038.124-.078.156a.278.278 0 0 1-.162.042 1.01 1.01 0 0 1-.246-.042 1.646 1.646 0 0 0-.414-.042c-.308 0-.572.086-.792.258-.22.168-.406.416-.558.744v3.834h-1.482ZM52.96 5.997v8.916h-1.482V5.997h1.482ZM58.732 14.913c-.192 0-.318-.09-.378-.27l-.12-.594a3.68 3.68 0 0 1-.402.39c-.14.116-.292.216-.456.3-.16.084-.334.148-.522.192a2.372 2.372 0 0 1-.6.072c-.336 0-.644-.07-.924-.21a2.098 2.098 0 0 1-.726-.606 3.033 3.033 0 0 1-.468-.99 5.072 5.072 0 0 1-.162-1.344c0-.456.062-.88.186-1.272s.302-.732.534-1.02c.232-.288.51-.512.834-.672a2.384 2.384 0 0 1 1.092-.246 2.103 2.103 0 0 1 1.536.606V5.997h1.482v8.916h-.906Zm-1.974-1.086c.308 0 .57-.064.786-.192.216-.128.42-.31.612-.546v-2.76a1.452 1.452 0 0 0-.552-.432 1.597 1.597 0 0 0-.636-.126c-.224 0-.428.042-.612.126a1.21 1.21 0 0 0-.462.384c-.124.168-.22.384-.288.648-.068.26-.102.568-.102.924 0 .36.028.666.084.918.06.248.144.452.252.612.108.156.24.27.396.342.156.068.33.102.522.102ZM16.331 20.757v6.156H14.85v-6.156h1.481Zm.223-1.794a.844.844 0 0 1-.078.36.963.963 0 0 1-.21.294.995.995 0 0 1-.3.204.963.963 0 0 1-.372.072.948.948 0 0 1-.367-.072 1.018 1.018 0 0 1-.498-.498.963.963 0 0 1 0-.732.995.995 0 0 1 .205-.3.929.929 0 0 1 .293-.198.899.899 0 0 1 .738 0 .912.912 0 0 1 .3.198.943.943 0 0 1 .288.672ZM17.771 26.913v-6.156h.906c.192 0 .318.09.378.27l.102.486a2.934 2.934 0 0 1 .828-.618c.156-.076.322-.134.498-.174.176-.04.368-.06.576-.06.336 0 .634.058.894.174.26.112.476.272.648.48.176.204.308.45.396.738.092.284.138.598.138.942v3.918h-1.482v-3.918c0-.376-.088-.666-.264-.87-.172-.208-.432-.312-.78-.312-.256 0-.496.058-.72.174a2.58 2.58 0 0 0-.636.474v4.452h-1.482ZM34.22 22.575c0 .636-.106 1.22-.318 1.752-.212.532-.51.99-.894 1.374a4 4 0 0 1-1.386.894 4.87 4.87 0 0 1-1.794.318h-3.312v-8.676h3.312a4.79 4.79 0 0 1 1.794.324 4 4 0 0 1 1.386.894c.384.38.682.836.894 1.368.212.532.318 1.116.318 1.752Zm-1.65 0c0-.476-.064-.902-.192-1.278a2.68 2.68 0 0 0-.546-.96 2.332 2.332 0 0 0-.864-.606 2.94 2.94 0 0 0-1.14-.21h-1.686v6.108h1.686c.424 0 .804-.07 1.14-.21.34-.14.628-.34.864-.6a2.75 2.75 0 0 0 .546-.96 4.01 4.01 0 0 0 .192-1.284ZM39.98 26.913h-.665c-.14 0-.25-.02-.33-.06-.08-.044-.14-.13-.18-.258l-.132-.438c-.156.14-.31.264-.462.372a2.804 2.804 0 0 1-.462.264c-.16.072-.33.126-.51.162-.18.036-.38.054-.6.054-.26 0-.5-.034-.72-.102a1.618 1.618 0 0 1-.57-.318 1.448 1.448 0 0 1-.366-.522 1.852 1.852 0 0 1-.132-.726c0-.232.06-.46.18-.684.124-.228.328-.432.612-.612.284-.184.662-.336 1.134-.456.472-.12 1.058-.188 1.758-.204v-.36c0-.412-.088-.716-.264-.912-.172-.2-.424-.3-.756-.3a1.837 1.837 0 0 0-1.02.276c-.116.068-.224.13-.324.186a.664.664 0 0 1-.33.084.429.429 0 0 1-.258-.078.614.614 0 0 1-.174-.192l-.27-.474c.708-.648 1.562-.972 2.562-.972.36 0 .68.06.96.18.284.116.524.28.72.492.196.208.344.458.444.75.104.292.156.612.156.96v3.888Zm-2.88-.924c.153 0 .293-.014.42-.042.129-.028.249-.07.36-.126.117-.056.227-.124.33-.204.109-.084.217-.182.325-.294v-1.038c-.432.02-.794.058-1.086.114-.288.052-.52.12-.696.204a.923.923 0 0 0-.378.294.664.664 0 0 0-.108.366c0 .26.076.446.228.558.156.112.358.168.606.168ZM43.22 27.01c-.532 0-.942-.15-1.23-.45-.288-.305-.432-.723-.432-1.255v-3.438h-.624a.31.31 0 0 1-.21-.078c-.056-.052-.084-.13-.084-.234v-.588l.99-.162.312-1.68a.302.302 0 0 1 .108-.186.365.365 0 0 1 .222-.066h.768v1.938h1.62v1.056h-1.62v3.336c0 .192.048.342.144.45a.488.488 0 0 0 .384.162c.092 0 .168-.01.228-.03.064-.024.118-.048.162-.072.048-.024.09-.046.126-.066a.194.194 0 0 1 .108-.036.16.16 0 0 1 .108.036c.028.02.058.052.09.096l.444.72c-.216.18-.464.316-.744.408a2.77 2.77 0 0 1-.87.138ZM50.423 26.913h-.666c-.14 0-.25-.02-.33-.06-.08-.044-.14-.13-.18-.258l-.132-.438c-.156.14-.31.264-.462.372a2.804 2.804 0 0 1-.462.264c-.16.072-.33.126-.51.162-.18.036-.38.054-.6.054-.26 0-.5-.034-.72-.102a1.618 1.618 0 0 1-.57-.318 1.448 1.448 0 0 1-.366-.522 1.852 1.852 0 0 1-.132-.726c0-.232.06-.46.18-.684.124-.228.328-.432.612-.612.284-.184.662-.336 1.134-.456.472-.12 1.058-.188 1.758-.204v-.36c0-.412-.088-.716-.264-.912-.172-.2-.424-.3-.756-.3a1.837 1.837 0 0 0-1.02.276c-.116.068-.224.13-.324.186a.664.664 0 0 1-.33.084.429.429 0 0 1-.258-.078.614.614 0 0 1-.174-.192l-.27-.474c.708-.648 1.562-.972 2.562-.972.36 0 .68.06.96.18.284.116.524.28.72.492.196.208.344.458.444.75.104.292.156.612.156.96v3.888Zm-2.88-.924c.152 0 .292-.014.42-.042.128-.028.248-.07.36-.126.116-.056.226-.124.33-.204.108-.084.216-.182.324-.294v-1.038c-.432.02-.794.058-1.086.114-.288.052-.52.12-.696.204a.923.923 0 0 0-.378.294.664.664 0 0 0-.108.366c0 .26.076.446.228.558.156.112.358.168.606.168Z"
                />
            </svg>
        </g>
        <a
            id="title"
            href="https://ourworldindata.org/grapher/people-living-in-countries-with-universal-suffrage"
            style="font-family:&#x27;Playfair Display&#x27;, Georgia, &#x27;Times New Roman&#x27;, &#x27;Liberation Serif&#x27;, serif"
            target="_blank"
            rel="noopener"
        >
            <text
                font-size="21.50"
                font-weight="600"
                x="16.0"
                y="36.9"
                fill="#2d2e2d"
            >
                <tspan x="16" y="36.855000000000004">
                    People living in countries with universal right to vote,
                    World, 1800 to
                </tspan>
                <tspan x="16" y="62.655">2022</tspan>
            </text>
        </a>
        <g id="subtitle" class="markdown-text-wrap">
            <text
                x="16.0"
                y="88.1"
                style="font-size: 15px; line-height: 1.2"
                fill="#5b5b5b"
            >
                <tspan x="16" y="88.1">
                    This does not consider elections not being held, informal
                    restrictions, or legal restrictions based on age, criminal
                </tspan>
                <tspan x="16" y="106.1">
                    conviction, disability, and local residency.
                </tspan>
            </text>
        </g>
    </g>
    <g id="chart-area" style="pointer-events: none">
        <g id="horizontal-axis" class="HorizontalAxis">
            <g id="tick-marks">
                <line
                    id="1800"
                    x1="54.4"
                    y1="531.9"
                    x2="54.4"
                    y2="537.4"
                    stroke="#999"
                    stroke-width="1"
                ></line>
                <line
                    id="2022"
                    x1="697.5"
                    y1="531.9"
                    x2="697.5"
                    y2="537.4"
                    stroke="#999"
                    stroke-width="1"
                ></line>
                <line
                    id="1850"
                    x1="199.2"
                    y1="531.9"
                    x2="199.2"
                    y2="537.4"
                    stroke="#999"
                    stroke-width="1"
                ></line>
                <line
                    id="1900"
                    x1="344.1"
                    y1="531.9"
                    x2="344.1"
                    y2="537.4"
                    stroke="#999"
                    stroke-width="1"
                ></line>
                <line
                    id="1950"
                    x1="488.9"
                    y1="531.9"
                    x2="488.9"
                    y2="537.4"
                    stroke="#999"
                    stroke-width="1"
                ></line>
                <line
                    id="2000"
                    x1="633.8"
                    y1="531.9"
                    x2="633.8"
                    y2="537.4"
                    stroke="#999"
                    stroke-width="1"
                ></line>
            </g>
            <g id="tick-labels">
                <text
                    x="54.410000000000004"
                    y="550.4"
                    fill="#5b5b5b"
                    text-anchor="start"
                    font-size="13"
                >
                    1800
                </text>
                <text
                    x="697.49"
                    y="550.4"
                    fill="#5b5b5b"
                    text-anchor="end"
                    font-size="13"
                >
                    2022
                </text>
                <text
                    x="199.2"
                    y="550.4"
                    fill="#5b5b5b"
                    text-anchor="middle"
                    font-size="13"
                >
                    1850
                </text>
                <text
                    x="344.1"
                    y="550.4"
                    fill="#5b5b5b"
                    text-anchor="middle"
                    font-size="13"
                >
                    1900
                </text>
                <text
                    x="488.9"
                    y="550.4"
                    fill="#5b5b5b"
                    text-anchor="middle"
                    font-size="13"
                >
                    1950
                </text>
                <text
                    x="633.8"
                    y="550.4"
                    fill="#5b5b5b"
                    text-anchor="middle"
                    font-size="13"
                >
                    2000
                </text>
            </g>
        </g>
        <g id="vertical-axis" class="VerticalAxis">
            <g id="tick-labels">
                <text
                    x="49.41"
                    y="532.4"
                    dy=".32em"
                    text-anchor="end"
                    fill="#5b5b5b"
                    font-size="13"
                >
                    0%
                </text>
                <text
                    x="49.41"
                    y="452.2"
                    dy=".32em"
                    text-anchor="end"
                    fill="#5b5b5b"
                    font-size="13"
                >
                    20%
                </text>
                <text
                    x="49.41"
                    y="372.1"
                    dy=".32em"
                    text-anchor="end"
                    fill="#5b5b5b"
                    font-size="13"
                >
                    40%
                </text>
                <text
                    x="49.41"
                    y="291.9"
                    dy=".32em"
                    text-anchor="end"
                    fill="#5b5b5b"
                    font-size="13"
                >
                    60%
                </text>
                <text
                    x="49.41"
                    y="211.8"
                    dy=".32em"
                    text-anchor="end"
                    fill="#5b5b5b"
                    font-size="13"
                >
                    80%
                </text>
                <text
                    x="49.41"
                    y="131.6"
                    dy=".32em"
                    text-anchor="end"
                    fill="#5b5b5b"
                    font-size="13"
                >
                    100%
                </text>
            </g>
        </g>
        <g id="horizontal-grid-lines" class="AxisGridLines horizontalLines">
            <line
                id="0%"
                x1="54.41"
                y1="532.4"
                x2="697.49"
                y2="532.4"
                stroke="#999"
            ></line>
            <line
                id="20%"
                x1="54.41"
                y1="452.2"
                x2="697.49"
                y2="452.2"
                stroke="#ddd"
                stroke-dasharray="4,4"
            ></line>
            <line
                id="40%"
                x1="54.41"
                y1="372.1"
                x2="697.49"
                y2="372.1"
                stroke="#ddd"
                stroke-dasharray="4,4"
            ></line>
            <line
                id="60%"
                x1="54.41"
                y1="291.9"
                x2="697.49"
                y2="291.9"
                stroke="#ddd"
                stroke-dasharray="4,4"
            ></line>
            <line
                id="80%"
                x1="54.41"
                y1="211.8"
                x2="697.49"
                y2="211.8"
                stroke="#ddd"
                stroke-dasharray="4,4"
            ></line>
            <line
                id="100%"
                x1="54.41"
                y1="131.6"
                x2="697.49"
                y2="131.6"
                stroke="#ddd"
                stroke-dasharray="4,4"
            ></line>
        </g>
        <g id="line-labels" class="LineLabels">
            <g id="connectors">
                <path
                    id="No-data-on-right-to-vote"
                    d="M701.49,131.7 H714.24 V139.9 H718.49"
                    stroke="#999"
                    stroke-width="0.5"
                    fill="none"
                ></path>
                <path
                    id="No-universal-right-to-vote"
                    d="M701.49,133.5 H709.99 V172.5 H718.49"
                    stroke="#999"
                    stroke-width="0.5"
                    fill="none"
                ></path>
                <path
                    id="Universal-right-to-vote-for-men-only"
                    d="M701.49,135.2 H705.74 V205.1 H718.49"
                    stroke="#999"
                    stroke-width="0.5"
                    fill="none"
                ></path>
                <path
                    id="Universal-right-to-vote-for-men-and-women"
                    d="M701.49,333.8 H709.99 V333.8 H718.49"
                    stroke="#999"
                    stroke-width="0.5"
                    fill="none"
                ></path>
            </g>
            <g id="text-annotations"></g>
            <g id="text-labels">
                <text
                    id="label__No-data-on-right-to-vote"
                    font-size="13.00"
                    font-weight="400"
                    x="722.5"
                    y="137.6"
                    fill="#555555"
                    opacity="1"
                    text-anchor="start"
                >
                    <tspan x="722.49" y="137.56">No data on right to</tspan>
                    <tspan x="722.49" y="151.86">vote</tspan>
                </text>
                <text
                    id="label__No-universal-right-to-vote"
                    font-size="13.00"
                    font-weight="400"
                    x="722.5"
                    y="170.2"
                    fill="#af8454"
                    opacity="1"
                    text-anchor="start"
                >
                    <tspan x="722.49" y="170.16">No universal right</tspan>
                    <tspan x="722.49" y="184.46">to vote</tspan>
                </text>
                <text
                    id="label__Universal-right-to-vote-for-men-only"
                    font-size="13.00"
                    font-weight="400"
                    x="722.5"
                    y="202.8"
                    fill="#6dafa0"
                    opacity="1"
                    text-anchor="start"
                >
                    <tspan x="722.49" y="202.76">Universal right to</tspan>
                    <tspan x="722.49" y="217.06">vote for men only</tspan>
                </text>
                <text
                    id="label__Universal-right-to-vote-for-men-and-women"
                    font-size="13.00"
                    font-weight="400"
                    x="722.5"
                    y="324.3"
                    fill="#2c7fb8"
                    opacity="1"
                    text-anchor="start"
                >
                    <tspan x="722.49" y="324.31">Universal right to</tspan>
                    <tspan x="722.49" y="338.61">vote for men and</tspan>
                    <tspan x="722.49" y="352.91">women</tspan>
                </text>
            </g>
        </g>
        <g class="Areas" id="stacked-areas">
            <g id="areas">
                <path
                    id="Universal-right-to-vote-for-men-and-women"
                    class="Universal-right-to-vote-for-men-and-women-area"
                    stroke-linecap="round"
                    d="M54.4 532.4L57.3 532.4L60.2 532.4L63.1 532.4L66 532.4L68.9 532.4L71.8 532.4L74.7 532.4L77.6 532.4L80.5 532.4L83.4 532.4L86.3 532.4L89.2 532.4L92.1 532.4L95 532.4L97.9 532.4L100.8 532.4L103.7 532.4L106.6 532.4L109.4 532.4L112.3 532.4L115.2 532.4L118.1 532.4L121 532.4L123.9 532.4L126.8 532.4L129.7 532.4L132.6 532.4L135.5 532.4L138.4 532.4L141.3 532.4L144.2 532.4L147.1 532.4L150 532.4L152.9 532.4L155.8 532.4L158.7 532.4L161.6 532.4L164.5 532.4L167.4 532.4L170.3 532.4L173.2 532.4L176.1 532.4L179 532.4L181.9 532.4L184.8 532.4L187.7 532.4L190.6 532.4L193.5 532.4L196.4 532.4L199.2 532.4L202.1 532.4L205 532.4L207.9 532.4L210.8 532.4L213.7 532.4L216.6 532.4L219.5 532.4L222.4 532.4L225.3 532.4L228.2 532.4L231.1 532.4L234 532.4L236.9 532.4L239.8 532.4L242.7 532.4L245.6 532.4L248.5 532.4L251.4 532.4L254.3 532.4L257.2 532.4L260.1 532.4L263 532.4L265.9 532.4L268.8 532.4L271.7 532.4L274.6 532.4L277.5 532.4L280.4 532.4L283.3 532.4L286.2 532.4L289 532.4L291.9 532.4L294.8 532.4L297.7 532.4L300.6 532.4L303.5 532.4L306.4 532.4L309.3 532.4L312.2 532.4L315.1 532.4L318 532.4L320.9 532.4L323.8 532.2L326.7 532.2L329.6 532.2L332.5 532.2L335.4 532.2L338.3 532.2L341.2 532.2L344.1 532.2L347 531.3L349.9 531.3L352.8 531.3L355.7 531.2L358.6 531.2L361.5 530.6L364.4 530.6L367.3 530.5L370.2 530.5L373.1 530.5L375.9 530.5L378.8 530.5L381.7 529.9L384.6 529.9L387.5 529.2L390.4 529.2L393.3 512.6L396.2 509.3L399.1 487.7L402 483.3L404.9 483.4L407.8 500.1L410.7 500.2L413.6 500L416.5 500L419.4 500L422.3 500L425.2 491L428.1 491.1L431 488.4L433.9 484L436.8 480.1L439.7 480.2L442.6 480.3L445.5 479.7L448.4 479.8L451.3 479.9L454.2 480L457.1 484.6L460 485.7L462.9 457L465.7 456.8L468.6 456.9L471.5 449.8L474.4 453.5L477.3 441.8L480.2 290.1L483.1 283.6L486 275.7L488.9 274.7L491.8 274.1L494.7 253.9L497.6 237.7L500.5 237.7L503.4 234.1L506.3 228.3L509.2 222.3L512.1 219.6L515 219.1L517.9 218.2L520.8 217.7L523.7 213.9L526.6 208.6L529.5 204.8L532.4 181.9L535.3 181.5L538.2 179.4L541.1 179.5L544 179.6L546.9 178.1L549.8 170.2L552.7 170.4L555.5 166.4L558.4 166.9L561.3 164.5L564.2 156.6L567.1 150.5L570 149.9L572.9 147.9L575.8 148L578.7 148.2L581.6 148.3L584.5 148.5L587.4 148.6L590.3 137.4L593.2 137.5L596.1 137.6L599 137.1L601.9 137.1L604.8 137.1L607.7 137.9L610.6 137.2L613.5 137.1L616.4 134L619.3 134.1L622.2 134.1L625.1 134.2L628 134.2L630.9 134.2L633.8 134.3L636.7 134.3L639.6 134.3L642.5 134.2L645.3 134.3L648.2 134.3L651.1 134.3L654 134.4L656.9 134.5L659.8 134.6L662.7 134.7L665.6 134.7L668.5 134.9L671.4 134.9L674.3 135L677.2 135L680.1 135L683 135.1L685.9 135.1L688.8 135.2L691.7 135.2L694.6 135.2L697.5 135.2L697.5 532.4L54.4 532.4"
                    fill="#2c7fb8"
                    fill-opacity="0.8"
                ></path>
                <path
                    id="Universal-right-to-vote-for-men-only"
                    class="Universal-right-to-vote-for-men-only-area"
                    stroke-linecap="round"
                    d="M54.4 532.4L57.3 532.4L60.2 532.4L63.1 532.4L66 532.4L68.9 532.4L71.8 532.4L74.7 532.4L77.6 532.4L80.5 532.4L83.4 532.4L86.3 532.4L89.2 532.4L92.1 532.4L95 532.4L97.9 532.4L100.8 532.4L103.7 532.4L106.6 532.4L109.4 532.4L112.3 532.4L115.2 532.4L118.1 532.4L121 532.4L123.9 532.4L126.8 532.4L129.7 532.4L132.6 532.4L135.5 532.4L138.4 532.4L141.3 532.4L144.2 532.4L147.1 532.4L150 532.4L152.9 532.4L155.8 532.4L158.7 532.4L161.6 532.4L164.5 532.4L167.4 532.4L170.3 532.4L173.2 532.4L176.1 532.4L179 532.4L181.9 531.5L184.8 531.5L187.7 531.5L190.6 529.1L193.5 516.9L196.4 516.9L199.2 528.3L202.1 516.9L205 516.8L207.9 516.1L210.8 516L213.7 515.9L216.6 515.8L219.5 515.8L222.4 515.3L225.3 515.2L228.2 515.2L231.1 515.1L234 515.1L236.9 515.1L239.8 515.1L242.7 515L245.6 515L248.5 515L251.4 515.1L254.3 510.3L257.2 511L260.1 499.1L263 499L265.9 499L268.8 498.9L271.7 498.8L274.6 498.7L277.5 498.6L280.4 503.4L283.3 502.5L286.2 502.3L289 502.3L291.9 502.3L294.8 502.1L297.7 502.1L300.6 502.1L303.5 502.1L306.4 502.1L309.3 497.3L312.2 497.3L315.1 497.3L318 497.3L320.9 497.2L323.8 497L326.7 495.2L329.6 495.1L332.5 492.7L335.4 492.6L338.3 491.9L341.2 491.8L344.1 491.8L347 491.3L349.9 491.2L352.8 491.1L355.7 491L358.6 474.9L361.5 474.1L364.4 474.1L367.3 474L370.2 474L373.1 474L375.9 474.1L378.8 472.7L381.7 464.8L384.6 462.7L387.5 462.3L390.4 462.5L393.3 461.1L396.2 446.7L399.1 438.9L402 431.8L404.9 429L407.8 447.2L410.7 444.4L413.6 443.5L416.5 431.2L419.4 431.1L422.3 430.8L425.2 430.1L428.1 430.1L431 430L433.9 428.8L436.8 425.3L439.7 425.4L442.6 425.5L445.5 425.6L448.4 424.8L451.3 425L454.2 425L457.1 429.6L460 430.7L462.9 401.8L465.7 401.7L468.6 401.6L471.5 401.2L474.4 408.2L477.3 405.4L480.2 256L483.1 249.2L486 242.4L488.9 241.5L491.8 240.6L494.7 233.9L497.6 221.7L500.5 221.8L503.4 212.2L506.3 209.6L509.2 205.8L512.1 204.4L515 204.5L517.9 201.5L520.8 201.1L523.7 198.7L526.6 196.3L529.5 195.3L532.4 172.3L535.3 172.4L538.2 172.4L541.1 172.5L544 172.6L546.9 171.1L549.8 163.9L552.7 164L555.5 160L558.4 160.6L561.3 158.2L564.2 150.1L567.1 150.3L570 149.8L572.9 147.7L575.8 147.9L578.7 148L581.6 148.1L584.5 148.3L587.4 148.4L590.3 137.2L593.2 137.3L596.1 137.4L599 136.9L601.9 136.9L604.8 136.9L607.7 137.7L610.6 137L613.5 136.9L616.4 133.9L619.3 133.9L622.2 133.9L625.1 134L628 134L630.9 134.1L633.8 134.1L636.7 134.1L639.6 134.2L642.5 134.1L645.3 134.1L648.2 134.2L651.1 134.3L654 134.4L656.9 134.5L659.8 134.6L662.7 134.7L665.6 134.7L668.5 134.9L671.4 134.9L674.3 135L677.2 135L680.1 135L683 135.1L685.9 135.1L688.8 135.2L691.7 135.2L694.6 135.2L697.5 135.2L697.5 135.2L694.6 135.2L691.7 135.2L688.8 135.2L685.9 135.1L683 135.1L680.1 135L677.2 135L674.3 135L671.4 134.9L668.5 134.9L665.6 134.7L662.7 134.7L659.8 134.6L656.9 134.5L654 134.4L651.1 134.3L648.2 134.3L645.3 134.3L642.5 134.2L639.6 134.3L636.7 134.3L633.8 134.3L630.9 134.2L628 134.2L625.1 134.2L622.2 134.1L619.3 134.1L616.4 134L613.5 137.1L610.6 137.2L607.7 137.9L604.8 137.1L601.9 137.1L599 137.1L596.1 137.6L593.2 137.5L590.3 137.4L587.4 148.6L584.5 148.5L581.6 148.3L578.7 148.2L575.8 148L572.9 147.9L570 149.9L567.1 150.5L564.2 156.6L561.3 164.5L558.4 166.9L555.5 166.4L552.7 170.4L549.8 170.2L546.9 178.1L544 179.6L541.1 179.5L538.2 179.4L535.3 181.5L532.4 181.9L529.5 204.8L526.6 208.6L523.7 213.9L520.8 217.7L517.9 218.2L515 219.1L512.1 219.6L509.2 222.3L506.3 228.3L503.4 234.1L500.5 237.7L497.6 237.7L494.7 253.9L491.8 274.1L488.9 274.7L486 275.7L483.1 283.6L480.2 290.1L477.3 441.8L474.4 453.5L471.5 449.8L468.6 456.9L465.7 456.8L462.9 457L460 485.7L457.1 484.6L454.2 480L451.3 479.9L448.4 479.8L445.5 479.7L442.6 480.3L439.7 480.2L436.8 480.1L433.9 484L431 488.4L428.1 491.1L425.2 491L422.3 500L419.4 500L416.5 500L413.6 500L410.7 500.2L407.8 500.1L404.9 483.4L402 483.3L399.1 487.7L396.2 509.3L393.3 512.6L390.4 529.2L387.5 529.2L384.6 529.9L381.7 529.9L378.8 530.5L375.9 530.5L373.1 530.5L370.2 530.5L367.3 530.5L364.4 530.6L361.5 530.6L358.6 531.2L355.7 531.2L352.8 531.3L349.9 531.3L347 531.3L344.1 532.2L341.2 532.2L338.3 532.2L335.4 532.2L332.5 532.2L329.6 532.2L326.7 532.2L323.8 532.2L320.9 532.4L318 532.4L315.1 532.4L312.2 532.4L309.3 532.4L306.4 532.4L303.5 532.4L300.6 532.4L297.7 532.4L294.8 532.4L291.9 532.4L289 532.4L286.2 532.4L283.3 532.4L280.4 532.4L277.5 532.4L274.6 532.4L271.7 532.4L268.8 532.4L265.9 532.4L263 532.4L260.1 532.4L257.2 532.4L254.3 532.4L251.4 532.4L248.5 532.4L245.6 532.4L242.7 532.4L239.8 532.4L236.9 532.4L234 532.4L231.1 532.4L228.2 532.4L225.3 532.4L222.4 532.4L219.5 532.4L216.6 532.4L213.7 532.4L210.8 532.4L207.9 532.4L205 532.4L202.1 532.4L199.2 532.4L196.4 532.4L193.5 532.4L190.6 532.4L187.7 532.4L184.8 532.4L181.9 532.4L179 532.4L176.1 532.4L173.2 532.4L170.3 532.4L167.4 532.4L164.5 532.4L161.6 532.4L158.7 532.4L155.8 532.4L152.9 532.4L150 532.4L147.1 532.4L144.2 532.4L141.3 532.4L138.4 532.4L135.5 532.4L132.6 532.4L129.7 532.4L126.8 532.4L123.9 532.4L121 532.4L118.1 532.4L115.2 532.4L112.3 532.4L109.4 532.4L106.6 532.4L103.7 532.4L100.8 532.4L97.9 532.4L95 532.4L92.1 532.4L89.2 532.4L86.3 532.4L83.4 532.4L80.5 532.4L77.6 532.4L74.7 532.4L71.8 532.4L68.9 532.4L66 532.4L63.1 532.4L60.2 532.4L57.3 532.4L54.4 532.4"
                    fill="#7fcdbb"
                    fill-opacity="0.8"
                ></path>
                <path
                    id="No-universal-right-to-vote"
                    class="No-universal-right-to-vote-area"
                    stroke-linecap="round"
                    d="M54.4 222.8L57.3 222.8L60.2 222.7L63.1 222.7L66 221.7L68.9 221.7L71.8 221.7L74.7 225.4L77.6 225.3L80.5 224.9L83.4 224.8L86.3 224.5L89.2 224.3L92.1 224L95 223.7L97.9 223.4L100.8 223.1L103.7 222.2L106.6 221.9L109.4 221.7L112.3 221.5L115.2 222.1L118.1 221.2L121 221.5L123.9 221.5L126.8 221.2L129.7 221.3L132.6 221.3L135.5 221.4L138.4 221.5L141.3 219.3L144.2 219.4L147.1 219.6L150 219.9L152.9 220.1L155.8 220.3L158.7 220.5L161.6 220.8L164.5 220.7L167.4 220.9L170.3 220.8L173.2 220.4L176.1 220.6L179 220.8L181.9 220.9L184.8 221.1L187.7 221.3L190.6 221.5L193.5 221.7L196.4 221.9L199.2 222.1L202.1 222.4L205 222.7L207.9 223L210.8 223.4L213.7 223.7L216.6 224L219.5 224.3L222.4 224.6L225.3 224.9L228.2 225.2L231.1 217.4L234 217.6L236.9 217.8L239.8 218L242.7 218.3L245.6 218.5L248.5 203.9L251.4 199.2L254.3 199.3L257.2 199.3L260.1 199.4L263 199.4L265.9 199.4L268.8 199.2L271.7 199.2L274.6 199.2L277.5 196.5L280.4 195.6L283.3 195.6L286.2 195.6L289 195.5L291.9 195.3L294.8 195.2L297.7 193.7L300.6 192.4L303.5 192.3L306.4 192.2L309.3 192.1L312.2 191.7L315.1 191.2L318 190.2L320.9 189.1L323.8 187.5L326.7 186.2L329.6 184.2L332.5 183.8L335.4 183.8L338.3 183.7L341.2 182.4L344.1 181L347 180.9L349.9 180.2L352.8 180L355.7 179.5L358.6 179.4L361.5 179.3L364.4 179.2L367.3 179.1L370.2 179.1L373.1 179L375.9 178.4L378.8 178.2L381.7 178.2L384.6 172.4L387.5 172.4L390.4 171.5L393.3 171.2L396.2 164.1L399.1 163.6L402 162.5L404.9 159.7L407.8 175.8L410.7 175.9L413.6 175.9L416.5 176L419.4 176L422.3 176.1L425.2 176.1L428.1 176.2L431 176.2L433.9 176.3L436.8 177L439.7 177.1L442.6 177.2L445.5 177.3L448.4 177.3L451.3 177.4L454.2 177.5L457.1 177.6L460 177.9L462.9 149.2L465.7 149.3L468.6 149.4L471.5 149.6L474.4 149.8L477.3 149.9L480.2 143.5L483.1 138.6L486 138.6L488.9 138.6L491.8 138.6L494.7 138.6L497.6 138.6L500.5 142.7L503.4 142.8L506.3 142.8L509.2 142.9L512.1 143L515 143.1L517.9 143.2L520.8 143.4L523.7 143.5L526.6 143.7L529.5 143.8L532.4 143.8L535.3 143.9L538.2 144L541.1 144.1L544 144.1L546.9 144.2L549.8 136.8L552.7 136.8L555.5 136.8L558.4 136.8L561.3 136.9L564.2 132.2L567.1 132.2L570 132.3L572.9 132.3L575.8 132.3L578.7 132.3L581.6 132.3L584.5 132.3L587.4 132.3L590.3 132.3L593.2 132.3L596.1 132.3L599 132.3L601.9 132.3L604.8 132.3L607.7 133L610.6 132.3L613.5 132.1L616.4 132.1L619.3 132.2L622.2 132.2L625.1 132.2L628 132.2L630.9 132.2L633.8 132.2L636.7 132.2L639.6 132.2L642.5 132.3L645.3 132.3L648.2 132.3L651.1 132.3L654 132.3L656.9 132.3L659.8 132.4L662.7 132.4L665.6 131.8L668.5 131.8L671.4 131.8L674.3 131.8L677.2 131.8L680.1 131.8L683 131.8L685.9 131.9L688.8 131.9L691.7 131.9L694.6 131.9L697.5 131.9L697.5 135.2L694.6 135.2L691.7 135.2L688.8 135.2L685.9 135.1L683 135.1L680.1 135L677.2 135L674.3 135L671.4 134.9L668.5 134.9L665.6 134.7L662.7 134.7L659.8 134.6L656.9 134.5L654 134.4L651.1 134.3L648.2 134.2L645.3 134.1L642.5 134.1L639.6 134.2L636.7 134.1L633.8 134.1L630.9 134.1L628 134L625.1 134L622.2 133.9L619.3 133.9L616.4 133.9L613.5 136.9L610.6 137L607.7 137.7L604.8 136.9L601.9 136.9L599 136.9L596.1 137.4L593.2 137.3L590.3 137.2L587.4 148.4L584.5 148.3L581.6 148.1L578.7 148L575.8 147.9L572.9 147.7L570 149.8L567.1 150.3L564.2 150.1L561.3 158.2L558.4 160.6L555.5 160L552.7 164L549.8 163.9L546.9 171.1L544 172.6L541.1 172.5L538.2 172.4L535.3 172.4L532.4 172.3L529.5 195.3L526.6 196.3L523.7 198.7L520.8 201.1L517.9 201.5L515 204.5L512.1 204.4L509.2 205.8L506.3 209.6L503.4 212.2L500.5 221.8L497.6 221.7L494.7 233.9L491.8 240.6L488.9 241.5L486 242.4L483.1 249.2L480.2 256L477.3 405.4L474.4 408.2L471.5 401.2L468.6 401.6L465.7 401.7L462.9 401.8L460 430.7L457.1 429.6L454.2 425L451.3 425L448.4 424.8L445.5 425.6L442.6 425.5L439.7 425.4L436.8 425.3L433.9 428.8L431 430L428.1 430.1L425.2 430.1L422.3 430.8L419.4 431.1L416.5 431.2L413.6 443.5L410.7 444.4L407.8 447.2L404.9 429L402 431.8L399.1 438.9L396.2 446.7L393.3 461.1L390.4 462.5L387.5 462.3L384.6 462.7L381.7 464.8L378.8 472.7L375.9 474.1L373.1 474L370.2 474L367.3 474L364.4 474.1L361.5 474.1L358.6 474.9L355.7 491L352.8 491.1L349.9 491.2L347 491.3L344.1 491.8L341.2 491.8L338.3 491.9L335.4 492.6L332.5 492.7L329.6 495.1L326.7 495.2L323.8 497L320.9 497.2L318 497.3L315.1 497.3L312.2 497.3L309.3 497.3L306.4 502.1L303.5 502.1L300.6 502.1L297.7 502.1L294.8 502.1L291.9 502.3L289 502.3L286.2 502.3L283.3 502.5L280.4 503.4L277.5 498.6L274.6 498.7L271.7 498.8L268.8 498.9L265.9 499L263 499L260.1 499.1L257.2 511L254.3 510.3L251.4 515.1L248.5 515L245.6 515L242.7 515L239.8 515.1L236.9 515.1L234 515.1L231.1 515.1L228.2 515.2L225.3 515.2L222.4 515.3L219.5 515.8L216.6 515.8L213.7 515.9L210.8 516L207.9 516.1L205 516.8L202.1 516.9L199.2 528.3L196.4 516.9L193.5 516.9L190.6 529.1L187.7 531.5L184.8 531.5L181.9 531.5L179 532.4L176.1 532.4L173.2 532.4L170.3 532.4L167.4 532.4L164.5 532.4L161.6 532.4L158.7 532.4L155.8 532.4L152.9 532.4L150 532.4L147.1 532.4L144.2 532.4L141.3 532.4L138.4 532.4L135.5 532.4L132.6 532.4L129.7 532.4L126.8 532.4L123.9 532.4L121 532.4L118.1 532.4L115.2 532.4L112.3 532.4L109.4 532.4L106.6 532.4L103.7 532.4L100.8 532.4L97.9 532.4L95 532.4L92.1 532.4L89.2 532.4L86.3 532.4L83.4 532.4L80.5 532.4L77.6 532.4L74.7 532.4L71.8 532.4L68.9 532.4L66 532.4L63.1 532.4L60.2 532.4L57.3 532.4L54.4 532.4"
                    fill="#bc8e5a"
                    fill-opacity="0.8"
                ></path>
                <path
                    id="No-data-on-right-to-vote"
                    class="No-data-on-right-to-vote-area"
                    stroke-linecap="round"
                    d="M54.4 131.6L57.3 131.6L60.2 131.6L63.1 131.6L66 131.6L68.9 131.6L71.8 131.6L74.7 131.6L77.6 131.6L80.5 131.6L83.4 131.6L86.3 131.6L89.2 131.6L92.1 131.6L95 131.6L97.9 131.6L100.8 131.6L103.7 131.6L106.6 131.6L109.4 131.6L112.3 131.6L115.2 131.6L118.1 131.6L121 131.6L123.9 131.6L126.8 131.6L129.7 131.6L132.6 131.6L135.5 131.6L138.4 131.6L141.3 131.6L144.2 131.6L147.1 131.6L150 131.6L152.9 131.6L155.8 131.6L158.7 131.6L161.6 131.6L164.5 131.6L167.4 131.6L170.3 131.6L173.2 131.6L176.1 131.6L179 131.6L181.9 131.6L184.8 131.6L187.7 131.6L190.6 131.6L193.5 131.6L196.4 131.6L199.2 131.6L202.1 131.6L205 131.6L207.9 131.6L210.8 131.6L213.7 131.6L216.6 131.6L219.5 131.6L222.4 131.6L225.3 131.6L228.2 131.6L231.1 131.6L234 131.6L236.9 131.6L239.8 131.6L242.7 131.6L245.6 131.6L248.5 131.6L251.4 131.6L254.3 131.6L257.2 131.6L260.1 131.6L263 131.6L265.9 131.6L268.8 131.6L271.7 131.6L274.6 131.6L277.5 131.6L280.4 131.6L283.3 131.6L286.2 131.6L289 131.6L291.9 131.6L294.8 131.6L297.7 131.6L300.6 131.6L303.5 131.6L306.4 131.6L309.3 131.6L312.2 131.6L315.1 131.6L318 131.6L320.9 131.6L323.8 131.6L326.7 131.6L329.6 131.6L332.5 131.6L335.4 131.6L338.3 131.6L341.2 131.6L344.1 131.6L347 131.6L349.9 131.6L352.8 131.6L355.7 131.6L358.6 131.6L361.5 131.6L364.4 131.6L367.3 131.6L370.2 131.6L373.1 131.6L375.9 131.6L378.8 131.6L381.7 131.6L384.6 131.6L387.5 131.6L390.4 131.6L393.3 131.6L396.2 131.6L399.1 131.6L402 131.6L404.9 131.6L407.8 131.6L410.7 131.6L413.6 131.6L416.5 131.6L419.4 131.6L422.3 131.6L425.2 131.6L428.1 131.6L431 131.6L433.9 131.6L436.8 131.6L439.7 131.6L442.6 131.6L445.5 131.6L448.4 131.6L451.3 131.6L454.2 131.6L457.1 131.6L460 131.6L462.9 131.6L465.7 131.6L468.6 131.6L471.5 131.6L474.4 131.6L477.3 131.6L480.2 131.6L483.1 131.6L486 131.6L488.9 131.6L491.8 131.6L494.7 131.6L497.6 131.6L500.5 131.6L503.4 131.6L506.3 131.6L509.2 131.6L512.1 131.6L515 131.6L517.9 131.6L520.8 131.6L523.7 131.6L526.6 131.6L529.5 131.6L532.4 131.6L535.3 131.6L538.2 131.6L541.1 131.6L544 131.6L546.9 131.6L549.8 131.6L552.7 131.6L555.5 131.6L558.4 131.6L561.3 131.6L564.2 131.6L567.1 131.6L570 131.6L572.9 131.6L575.8 131.6L578.7 131.6L581.6 131.6L584.5 131.6L587.4 131.6L590.3 131.6L593.2 131.6L596.1 131.6L599 131.6L601.9 131.6L604.8 131.6L607.7 131.6L610.6 131.6L613.5 131.6L616.4 131.6L619.3 131.6L622.2 131.6L625.1 131.6L628 131.6L630.9 131.6L633.8 131.6L636.7 131.6L639.6 131.6L642.5 131.6L645.3 131.6L648.2 131.6L651.1 131.6L654 131.6L656.9 131.6L659.8 131.6L662.7 131.6L665.6 131.6L668.5 131.6L671.4 131.6L674.3 131.6L677.2 131.6L680.1 131.6L683 131.6L685.9 131.6L688.8 131.6L691.7 131.6L694.6 131.6L697.5 131.6L697.5 131.9L694.6 131.9L691.7 131.9L688.8 131.9L685.9 131.9L683 131.8L680.1 131.8L677.2 131.8L674.3 131.8L671.4 131.8L668.5 131.8L665.6 131.8L662.7 132.4L659.8 132.4L656.9 132.3L654 132.3L651.1 132.3L648.2 132.3L645.3 132.3L642.5 132.3L639.6 132.2L636.7 132.2L633.8 132.2L630.9 132.2L628 132.2L625.1 132.2L622.2 132.2L619.3 132.2L616.4 132.1L613.5 132.1L610.6 132.3L607.7 133L604.8 132.3L601.9 132.3L599 132.3L596.1 132.3L593.2 132.3L590.3 132.3L587.4 132.3L584.5 132.3L581.6 132.3L578.7 132.3L575.8 132.3L572.9 132.3L570 132.3L567.1 132.2L564.2 132.2L561.3 136.9L558.4 136.8L555.5 136.8L552.7 136.8L549.8 136.8L546.9 144.2L544 144.1L541.1 144.1L538.2 144L535.3 143.9L532.4 143.8L529.5 143.8L526.6 143.7L523.7 143.5L520.8 143.4L517.9 143.2L515 143.1L512.1 143L509.2 142.9L506.3 142.8L503.4 142.8L500.5 142.7L497.6 138.6L494.7 138.6L491.8 138.6L488.9 138.6L486 138.6L483.1 138.6L480.2 143.5L477.3 149.9L474.4 149.8L471.5 149.6L468.6 149.4L465.7 149.3L462.9 149.2L460 177.9L457.1 177.6L454.2 177.5L451.3 177.4L448.4 177.3L445.5 177.3L442.6 177.2L439.7 177.1L436.8 177L433.9 176.3L431 176.2L428.1 176.2L425.2 176.1L422.3 176.1L419.4 176L416.5 176L413.6 175.9L410.7 175.9L407.8 175.8L404.9 159.7L402 162.5L399.1 163.6L396.2 164.1L393.3 171.2L390.4 171.5L387.5 172.4L384.6 172.4L381.7 178.2L378.8 178.2L375.9 178.4L373.1 179L370.2 179.1L367.3 179.1L364.4 179.2L361.5 179.3L358.6 179.4L355.7 179.5L352.8 180L349.9 180.2L347 180.9L344.1 181L341.2 182.4L338.3 183.7L335.4 183.8L332.5 183.8L329.6 184.2L326.7 186.2L323.8 187.5L320.9 189.1L318 190.2L315.1 191.2L312.2 191.7L309.3 192.1L306.4 192.2L303.5 192.3L300.6 192.4L297.7 193.7L294.8 195.2L291.9 195.3L289 195.5L286.2 195.6L283.3 195.6L280.4 195.6L277.5 196.5L274.6 199.2L271.7 199.2L268.8 199.2L265.9 199.4L263 199.4L260.1 199.4L257.2 199.3L254.3 199.3L251.4 199.2L248.5 203.9L245.6 218.5L242.7 218.3L239.8 218L236.9 217.8L234 217.6L231.1 217.4L228.2 225.2L225.3 224.9L222.4 224.6L219.5 224.3L216.6 224L213.7 223.7L210.8 223.4L207.9 223L205 222.7L202.1 222.4L199.2 222.1L196.4 221.9L193.5 221.7L190.6 221.5L187.7 221.3L184.8 221.1L181.9 220.9L179 220.8L176.1 220.6L173.2 220.4L170.3 220.8L167.4 220.9L164.5 220.7L161.6 220.8L158.7 220.5L155.8 220.3L152.9 220.1L150 219.9L147.1 219.6L144.2 219.4L141.3 219.3L138.4 221.5L135.5 221.4L132.6 221.3L129.7 221.3L126.8 221.2L123.9 221.5L121 221.5L118.1 221.2L115.2 222.1L112.3 221.5L109.4 221.7L106.6 221.9L103.7 222.2L100.8 223.1L97.9 223.4L95 223.7L92.1 224L89.2 224.3L86.3 224.5L83.4 224.8L80.5 224.9L77.6 225.3L74.7 225.4L71.8 221.7L68.9 221.7L66 221.7L63.1 222.7L60.2 222.7L57.3 222.8L54.4 222.8"
                    fill="#555555"
                    fill-opacity="0.8"
                ></path>
            </g>
            <g id="borders">
                <path
                    id="Universal-right-to-vote-for-men-and-women"
                    class="Universal-right-to-vote-for-men-and-women-border"
                    stroke-linecap="round"
                    d="M54.4 532.4L57.3 532.4L60.2 532.4L63.1 532.4L66 532.4L68.9 532.4L71.8 532.4L74.7 532.4L77.6 532.4L80.5 532.4L83.4 532.4L86.3 532.4L89.2 532.4L92.1 532.4L95 532.4L97.9 532.4L100.8 532.4L103.7 532.4L106.6 532.4L109.4 532.4L112.3 532.4L115.2 532.4L118.1 532.4L121 532.4L123.9 532.4L126.8 532.4L129.7 532.4L132.6 532.4L135.5 532.4L138.4 532.4L141.3 532.4L144.2 532.4L147.1 532.4L150 532.4L152.9 532.4L155.8 532.4L158.7 532.4L161.6 532.4L164.5 532.4L167.4 532.4L170.3 532.4L173.2 532.4L176.1 532.4L179 532.4L181.9 532.4L184.8 532.4L187.7 532.4L190.6 532.4L193.5 532.4L196.4 532.4L199.2 532.4L202.1 532.4L205 532.4L207.9 532.4L210.8 532.4L213.7 532.4L216.6 532.4L219.5 532.4L222.4 532.4L225.3 532.4L228.2 532.4L231.1 532.4L234 532.4L236.9 532.4L239.8 532.4L242.7 532.4L245.6 532.4L248.5 532.4L251.4 532.4L254.3 532.4L257.2 532.4L260.1 532.4L263 532.4L265.9 532.4L268.8 532.4L271.7 532.4L274.6 532.4L277.5 532.4L280.4 532.4L283.3 532.4L286.2 532.4L289 532.4L291.9 532.4L294.8 532.4L297.7 532.4L300.6 532.4L303.5 532.4L306.4 532.4L309.3 532.4L312.2 532.4L315.1 532.4L318 532.4L320.9 532.4L323.8 532.2L326.7 532.2L329.6 532.2L332.5 532.2L335.4 532.2L338.3 532.2L341.2 532.2L344.1 532.2L347 531.3L349.9 531.3L352.8 531.3L355.7 531.2L358.6 531.2L361.5 530.6L364.4 530.6L367.3 530.5L370.2 530.5L373.1 530.5L375.9 530.5L378.8 530.5L381.7 529.9L384.6 529.9L387.5 529.2L390.4 529.2L393.3 512.6L396.2 509.3L399.1 487.7L402 483.3L404.9 483.4L407.8 500.1L410.7 500.2L413.6 500L416.5 500L419.4 500L422.3 500L425.2 491L428.1 491.1L431 488.4L433.9 484L436.8 480.1L439.7 480.2L442.6 480.3L445.5 479.7L448.4 479.8L451.3 479.9L454.2 480L457.1 484.6L460 485.7L462.9 457L465.7 456.8L468.6 456.9L471.5 449.8L474.4 453.5L477.3 441.8L480.2 290.1L483.1 283.6L486 275.7L488.9 274.7L491.8 274.1L494.7 253.9L497.6 237.7L500.5 237.7L503.4 234.1L506.3 228.3L509.2 222.3L512.1 219.6L515 219.1L517.9 218.2L520.8 217.7L523.7 213.9L526.6 208.6L529.5 204.8L532.4 181.9L535.3 181.5L538.2 179.4L541.1 179.5L544 179.6L546.9 178.1L549.8 170.2L552.7 170.4L555.5 166.4L558.4 166.9L561.3 164.5L564.2 156.6L567.1 150.5L570 149.9L572.9 147.9L575.8 148L578.7 148.2L581.6 148.3L584.5 148.5L587.4 148.6L590.3 137.4L593.2 137.5L596.1 137.6L599 137.1L601.9 137.1L604.8 137.1L607.7 137.9L610.6 137.2L613.5 137.1L616.4 134L619.3 134.1L622.2 134.1L625.1 134.2L628 134.2L630.9 134.2L633.8 134.3L636.7 134.3L639.6 134.3L642.5 134.2L645.3 134.3L648.2 134.3L651.1 134.3L654 134.4L656.9 134.5L659.8 134.6L662.7 134.7L665.6 134.7L668.5 134.9L671.4 134.9L674.3 135L677.2 135L680.1 135L683 135.1L685.9 135.1L688.8 135.2L691.7 135.2L694.6 135.2L697.5 135.2"
                    stroke="rgb(37, 106, 154)"
                    stroke-opacity="0.7"
                    stroke-width="0.5"
                    fill="none"
                ></path>
                <path
                    id="Universal-right-to-vote-for-men-only"
                    class="Universal-right-to-vote-for-men-only-border"
                    stroke-linecap="round"
                    d="M54.4 532.4L57.3 532.4L60.2 532.4L63.1 532.4L66 532.4L68.9 532.4L71.8 532.4L74.7 532.4L77.6 532.4L80.5 532.4L83.4 532.4L86.3 532.4L89.2 532.4L92.1 532.4L95 532.4L97.9 532.4L100.8 532.4L103.7 532.4L106.6 532.4L109.4 532.4L112.3 532.4L115.2 532.4L118.1 532.4L121 532.4L123.9 532.4L126.8 532.4L129.7 532.4L132.6 532.4L135.5 532.4L138.4 532.4L141.3 532.4L144.2 532.4L147.1 532.4L150 532.4L152.9 532.4L155.8 532.4L158.7 532.4L161.6 532.4L164.5 532.4L167.4 532.4L170.3 532.4L173.2 532.4L176.1 532.4L179 532.4L181.9 531.5L184.8 531.5L187.7 531.5L190.6 529.1L193.5 516.9L196.4 516.9L199.2 528.3L202.1 516.9L205 516.8L207.9 516.1L210.8 516L213.7 515.9L216.6 515.8L219.5 515.8L222.4 515.3L225.3 515.2L228.2 515.2L231.1 515.1L234 515.1L236.9 515.1L239.8 515.1L242.7 515L245.6 515L248.5 515L251.4 515.1L254.3 510.3L257.2 511L260.1 499.1L263 499L265.9 499L268.8 498.9L271.7 498.8L274.6 498.7L277.5 498.6L280.4 503.4L283.3 502.5L286.2 502.3L289 502.3L291.9 502.3L294.8 502.1L297.7 502.1L300.6 502.1L303.5 502.1L306.4 502.1L309.3 497.3L312.2 497.3L315.1 497.3L318 497.3L320.9 497.2L323.8 497L326.7 495.2L329.6 495.1L332.5 492.7L335.4 492.6L338.3 491.9L341.2 491.8L344.1 491.8L347 491.3L349.9 491.2L352.8 491.1L355.7 491L358.6 474.9L361.5 474.1L364.4 474.1L367.3 474L370.2 474L373.1 474L375.9 474.1L378.8 472.7L381.7 464.8L384.6 462.7L387.5 462.3L390.4 462.5L393.3 461.1L396.2 446.7L399.1 438.9L402 431.8L404.9 429L407.8 447.2L410.7 444.4L413.6 443.5L416.5 431.2L419.4 431.1L422.3 430.8L425.2 430.1L428.1 430.1L431 430L433.9 428.8L436.8 425.3L439.7 425.4L442.6 425.5L445.5 425.6L448.4 424.8L451.3 425L454.2 425L457.1 429.6L460 430.7L462.9 401.8L465.7 401.7L468.6 401.6L471.5 401.2L474.4 408.2L477.3 405.4L480.2 256L483.1 249.2L486 242.4L488.9 241.5L491.8 240.6L494.7 233.9L497.6 221.7L500.5 221.8L503.4 212.2L506.3 209.6L509.2 205.8L512.1 204.4L515 204.5L517.9 201.5L520.8 201.1L523.7 198.7L526.6 196.3L529.5 195.3L532.4 172.3L535.3 172.4L538.2 172.4L541.1 172.5L544 172.6L546.9 171.1L549.8 163.9L552.7 164L555.5 160L558.4 160.6L561.3 158.2L564.2 150.1L567.1 150.3L570 149.8L572.9 147.7L575.8 147.9L578.7 148L581.6 148.1L584.5 148.3L587.4 148.4L590.3 137.2L593.2 137.3L596.1 137.4L599 136.9L601.9 136.9L604.8 136.9L607.7 137.7L610.6 137L613.5 136.9L616.4 133.9L619.3 133.9L622.2 133.9L625.1 134L628 134L630.9 134.1L633.8 134.1L636.7 134.1L639.6 134.2L642.5 134.1L645.3 134.1L648.2 134.2L651.1 134.3L654 134.4L656.9 134.5L659.8 134.6L662.7 134.7L665.6 134.7L668.5 134.9L671.4 134.9L674.3 135L677.2 135L680.1 135L683 135.1L685.9 135.1L688.8 135.2L691.7 135.2L694.6 135.2L697.5 135.2"
                    stroke="rgb(106, 172, 156)"
                    stroke-opacity="0.7"
                    stroke-width="0.5"
                    fill="none"
                ></path>
                <path
                    id="No-universal-right-to-vote"
                    class="No-universal-right-to-vote-border"
                    stroke-linecap="round"
                    d="M54.4 222.8L57.3 222.8L60.2 222.7L63.1 222.7L66 221.7L68.9 221.7L71.8 221.7L74.7 225.4L77.6 225.3L80.5 224.9L83.4 224.8L86.3 224.5L89.2 224.3L92.1 224L95 223.7L97.9 223.4L100.8 223.1L103.7 222.2L106.6 221.9L109.4 221.7L112.3 221.5L115.2 222.1L118.1 221.2L121 221.5L123.9 221.5L126.8 221.2L129.7 221.3L132.6 221.3L135.5 221.4L138.4 221.5L141.3 219.3L144.2 219.4L147.1 219.6L150 219.9L152.9 220.1L155.8 220.3L158.7 220.5L161.6 220.8L164.5 220.7L167.4 220.9L170.3 220.8L173.2 220.4L176.1 220.6L179 220.8L181.9 220.9L184.8 221.1L187.7 221.3L190.6 221.5L193.5 221.7L196.4 221.9L199.2 222.1L202.1 222.4L205 222.7L207.9 223L210.8 223.4L213.7 223.7L216.6 224L219.5 224.3L222.4 224.6L225.3 224.9L228.2 225.2L231.1 217.4L234 217.6L236.9 217.8L239.8 218L242.7 218.3L245.6 218.5L248.5 203.9L251.4 199.2L254.3 199.3L257.2 199.3L260.1 199.4L263 199.4L265.9 199.4L268.8 199.2L271.7 199.2L274.6 199.2L277.5 196.5L280.4 195.6L283.3 195.6L286.2 195.6L289 195.5L291.9 195.3L294.8 195.2L297.7 193.7L300.6 192.4L303.5 192.3L306.4 192.2L309.3 192.1L312.2 191.7L315.1 191.2L318 190.2L320.9 189.1L323.8 187.5L326.7 186.2L329.6 184.2L332.5 183.8L335.4 183.8L338.3 183.7L341.2 182.4L344.1 181L347 180.9L349.9 180.2L352.8 180L355.7 179.5L358.6 179.4L361.5 179.3L364.4 179.2L367.3 179.1L370.2 179.1L373.1 179L375.9 178.4L378.8 178.2L381.7 178.2L384.6 172.4L387.5 172.4L390.4 171.5L393.3 171.2L396.2 164.1L399.1 163.6L402 162.5L404.9 159.7L407.8 175.8L410.7 175.9L413.6 175.9L416.5 176L419.4 176L422.3 176.1L425.2 176.1L428.1 176.2L431 176.2L433.9 176.3L436.8 177L439.7 177.1L442.6 177.2L445.5 177.3L448.4 177.3L451.3 177.4L454.2 177.5L457.1 177.6L460 177.9L462.9 149.2L465.7 149.3L468.6 149.4L471.5 149.6L474.4 149.8L477.3 149.9L480.2 143.5L483.1 138.6L486 138.6L488.9 138.6L491.8 138.6L494.7 138.6L497.6 138.6L500.5 142.7L503.4 142.8L506.3 142.8L509.2 142.9L512.1 143L515 143.1L517.9 143.2L520.8 143.4L523.7 143.5L526.6 143.7L529.5 143.8L532.4 143.8L535.3 143.9L538.2 144L541.1 144.1L544 144.1L546.9 144.2L549.8 136.8L552.7 136.8L555.5 136.8L558.4 136.8L561.3 136.9L564.2 132.2L567.1 132.2L570 132.3L572.9 132.3L575.8 132.3L578.7 132.3L581.6 132.3L584.5 132.3L587.4 132.3L590.3 132.3L593.2 132.3L596.1 132.3L599 132.3L601.9 132.3L604.8 132.3L607.7 133L610.6 132.3L613.5 132.1L616.4 132.1L619.3 132.2L622.2 132.2L625.1 132.2L628 132.2L630.9 132.2L633.8 132.2L636.7 132.2L639.6 132.2L642.5 132.3L645.3 132.3L648.2 132.3L651.1 132.3L654 132.3L656.9 132.3L659.8 132.4L662.7 132.4L665.6 131.8L668.5 131.8L671.4 131.8L674.3 131.8L677.2 131.8L680.1 131.8L683 131.8L685.9 131.9L688.8 131.9L691.7 131.9L694.6 131.9L697.5 131.9"
                    stroke="rgb(157, 119, 75)"
                    stroke-opacity="0.7"
                    stroke-width="0.5"
                    fill="none"
                ></path>
                <path
                    id="No-data-on-right-to-vote"
                    class="No-data-on-right-to-vote-border"
                    stroke-linecap="round"
                    d="M54.4 131.6L57.3 131.6L60.2 131.6L63.1 131.6L66 131.6L68.9 131.6L71.8 131.6L74.7 131.6L77.6 131.6L80.5 131.6L83.4 131.6L86.3 131.6L89.2 131.6L92.1 131.6L95 131.6L97.9 131.6L100.8 131.6L103.7 131.6L106.6 131.6L109.4 131.6L112.3 131.6L115.2 131.6L118.1 131.6L121 131.6L123.9 131.6L126.8 131.6L129.7 131.6L132.6 131.6L135.5 131.6L138.4 131.6L141.3 131.6L144.2 131.6L147.1 131.6L150 131.6L152.9 131.6L155.8 131.6L158.7 131.6L161.6 131.6L164.5 131.6L167.4 131.6L170.3 131.6L173.2 131.6L176.1 131.6L179 131.6L181.9 131.6L184.8 131.6L187.7 131.6L190.6 131.6L193.5 131.6L196.4 131.6L199.2 131.6L202.1 131.6L205 131.6L207.9 131.6L210.8 131.6L213.7 131.6L216.6 131.6L219.5 131.6L222.4 131.6L225.3 131.6L228.2 131.6L231.1 131.6L234 131.6L236.9 131.6L239.8 131.6L242.7 131.6L245.6 131.6L248.5 131.6L251.4 131.6L254.3 131.6L257.2 131.6L260.1 131.6L263 131.6L265.9 131.6L268.8 131.6L271.7 131.6L274.6 131.6L277.5 131.6L280.4 131.6L283.3 131.6L286.2 131.6L289 131.6L291.9 131.6L294.8 131.6L297.7 131.6L300.6 131.6L303.5 131.6L306.4 131.6L309.3 131.6L312.2 131.6L315.1 131.6L318 131.6L320.9 131.6L323.8 131.6L326.7 131.6L329.6 131.6L332.5 131.6L335.4 131.6L338.3 131.6L341.2 131.6L344.1 131.6L347 131.6L349.9 131.6L352.8 131.6L355.7 131.6L358.6 131.6L361.5 131.6L364.4 131.6L367.3 131.6L370.2 131.6L373.1 131.6L375.9 131.6L378.8 131.6L381.7 131.6L384.6 131.6L387.5 131.6L390.4 131.6L393.3 131.6L396.2 131.6L399.1 131.6L402 131.6L404.9 131.6L407.8 131.6L410.7 131.6L413.6 131.6L416.5 131.6L419.4 131.6L422.3 131.6L425.2 131.6L428.1 131.6L431 131.6L433.9 131.6L436.8 131.6L439.7 131.6L442.6 131.6L445.5 131.6L448.4 131.6L451.3 131.6L454.2 131.6L457.1 131.6L460 131.6L462.9 131.6L465.7 131.6L468.6 131.6L471.5 131.6L474.4 131.6L477.3 131.6L480.2 131.6L483.1 131.6L486 131.6L488.9 131.6L491.8 131.6L494.7 131.6L497.6 131.6L500.5 131.6L503.4 131.6L506.3 131.6L509.2 131.6L512.1 131.6L515 131.6L517.9 131.6L520.8 131.6L523.7 131.6L526.6 131.6L529.5 131.6L532.4 131.6L535.3 131.6L538.2 131.6L541.1 131.6L544 131.6L546.9 131.6L549.8 131.6L552.7 131.6L555.5 131.6L558.4 131.6L561.3 131.6L564.2 131.6L567.1 131.6L570 131.6L572.9 131.6L575.8 131.6L578.7 131.6L581.6 131.6L584.5 131.6L587.4 131.6L590.3 131.6L593.2 131.6L596.1 131.6L599 131.6L601.9 131.6L604.8 131.6L607.7 131.6L610.6 131.6L613.5 131.6L616.4 131.6L619.3 131.6L622.2 131.6L625.1 131.6L628 131.6L630.9 131.6L633.8 131.6L636.7 131.6L639.6 131.6L642.5 131.6L645.3 131.6L648.2 131.6L651.1 131.6L654 131.6L656.9 131.6L659.8 131.6L662.7 131.6L665.6 131.6L668.5 131.6L671.4 131.6L674.3 131.6L677.2 131.6L680.1 131.6L683 131.6L685.9 131.6L688.8 131.6L691.7 131.6L694.6 131.6L697.5 131.6"
                    stroke="rgb(71, 71, 71)"
                    stroke-opacity="0.7"
                    stroke-width="0.5"
                    fill="none"
                ></path>
            </g>
        </g>
    </g>
    <g id="footer" class="SourcesFooter" style="fill: #858585">
        <g id="sources" class="markdown-text-wrap">
            <text x="16.0" y="581.0" style="font-size: 13px; line-height: 1.2">
                <tspan x="16" y="581.0">
                    <tspan style="font-weight: 700">Data source:</tspan>
                    Skaaning et al. (2023); Population based on various sources
                    (2023)
                </tspan>
            </text>
        </g>
        <text id="origin-url" font-size="13.00" x="600.4" y="581.0">
            <tspan x="600.39" y="581.01">
                <a
                    target="_blank"
                    style="fill: #858585"
                    href="https://ourworldindata.org/democracy"
                >
                    OurWorldinData.org/democracy
                </a>
                |
                <a
                    target="_blank"
                    style="fill: #858585"
                    href="https://creativecommons.org/licenses/by/4.0/"
                >
                    CC BY
                </a>
            </tspan>
        </text>
    </g>
</svg>
