<svg xmlns="http://www.w3.org/2000/svg" version="1.1" style="font-family:Lato, &#x27;Helvetica Neue&#x27;, Helvetica, Arial, sans-serif;font-size:18px;background-color:white;text-rendering:geometricPrecision;-webkit-font-smoothing:antialiased" width="850" height="600" viewBox="0 0 850 600"><g class="HeaderView"><g transform="translate(774, 15) scale(0.29)"><svg className="owidLog" width="210" height="120" viewBox="0 0 210 120" fill="none" xmlns="http://www.w3.org/2000/svg">
<g clip-path="url(#clip0)">
  <path d="M0 0h210v107.89H0V0z" fill="#002147" />
  <path
    d="M40.98 32.25c0 2.36-.38 4.53-1.12 6.51a14.26 14.26 0 0 1-8.1 8.4c-1.9.78-4.02 1.17-6.34 1.17-2.31 0-4.42-.39-6.33-1.17a14.31 14.31 0 0 1-8.08-8.4 18.29 18.29 0 0 1-1.12-6.51c0-2.36.38-4.53 1.12-6.5.75-1.97 1.8-3.67 3.17-5.1a14.32 14.32 0 0 1 4.9-3.34c1.92-.8 4.03-1.19 6.34-1.19 2.32 0 4.43.4 6.34 1.19 1.92.8 3.56 1.9 4.93 3.34a14.87 14.87 0 0 1 3.17 5.1 18.1 18.1 0 0 1 1.12 6.5zm-4.38 0c0-1.94-.26-3.68-.8-5.22a10.91 10.91 0 0 0-2.24-3.89 9.68 9.68 0 0 0-3.52-2.46 11.95 11.95 0 0 0-4.62-.86c-1.68 0-3.21.28-4.6.86a9.88 9.88 0 0 0-3.54 2.46 10.91 10.91 0 0 0-2.24 3.9c-.53 1.53-.8 3.27-.8 5.2 0 1.94.27 3.68.8 5.22a11.17 11.17 0 0 0 2.24 3.9 10.01 10.01 0 0 0 3.55 2.44c1.38.56 2.9.83 4.6.83s3.24-.27 4.61-.83a9.8 9.8 0 0 0 3.52-2.44 11.17 11.17 0 0 0 2.25-3.9c.53-1.54.8-3.28.8-5.21zm26.22-6.54V48H60.5c-.56 0-.9-.27-1.05-.81l-.31-2.4a12.45 12.45 0 0 1-3.26 2.6c-1.2.64-2.58.96-4.13.96-1.22 0-2.3-.2-3.24-.6a6.52 6.52 0 0 1-2.33-1.7 7.37 7.37 0 0 1-1.43-2.67c-.3-1.04-.46-2.2-.46-3.45V25.7h3.91v14.22c0 1.68.38 2.99 1.15 3.91.77.93 1.96 1.39 3.54 1.39 1.16 0 2.24-.27 3.23-.82a10.42 10.42 0 0 0 2.8-2.28V25.7h3.91zm8.61 4.47a9.94 9.94 0 0 1 2.6-3.56 5.64 5.64 0 0 1 3.76-1.3c.47 0 .92.05 1.34.15.44.1.83.27 1.17.49l-.3 2.92c-.09.37-.3.55-.66.55-.2 0-.5-.04-.9-.13a6.21 6.21 0 0 0-3.24.18 4.23 4.23 0 0 0-1.47.92c-.42.4-.81.9-1.17 1.5-.33.58-.64 1.26-.92 2.02V48H67.7V25.71h2.25c.42 0 .72.08.88.25.16.16.27.44.33.83l.26 3.39zm61.16-13.7L122.75 48h-3.82l-7.99-24.05a21.95 21.95 0 0 1-.42-1.58 38.36 38.36 0 0 1-.44 1.58L102.05 48h-3.83L88.4 16.47h3.54c.38 0 .7.1.95.29.26.2.43.43.5.73l6.52 21.9.28 1.28.29 1.46.3-1.46.38-1.27 7.41-21.91c.1-.25.26-.48.51-.69.27-.22.58-.33.95-.33h1.23c.38 0 .69.1.92.29a1.77 1.77 0 0 1 .53.73l7.4 21.9a28.4 28.4 0 0 1 .68 2.62 29.52 29.52 0 0 1 .52-2.61l6.54-21.91a1.31 1.31 0 0 1 .48-.7c.27-.21.58-.32.95-.32h3.32zm9.35 8.88c1.63 0 3.1.27 4.4.82a9.43 9.43 0 0 1 5.46 5.94c.5 1.4.74 2.98.74 4.73 0 1.76-.25 3.34-.74 4.75a9.43 9.43 0 0 1-5.46 5.92c-1.3.52-2.77.79-4.4.79-1.64 0-3.12-.27-4.44-.8a9.42 9.42 0 0 1-3.35-2.3c-.92-1-1.63-2.2-2.13-3.61-.49-1.41-.73-3-.73-4.75s.24-3.33.73-4.73c.5-1.43 1.2-2.64 2.13-3.63.93-1 2.04-1.77 3.35-2.31 1.32-.55 2.8-.82 4.44-.82zm0 19.89c2.2 0 3.84-.73 4.93-2.2 1.08-1.48 1.63-3.54 1.63-6.18 0-2.66-.55-4.72-1.63-6.2-1.09-1.49-2.73-2.23-4.93-2.23-1.12 0-2.09.2-2.93.57a5.71 5.71 0 0 0-2.06 1.65c-.55.72-.96 1.61-1.24 2.67-.26 1.04-.4 2.22-.4 3.54 0 2.64.55 4.7 1.64 6.18 1.1 1.47 2.76 2.2 4.99 2.2zm17.97-15.07a9.94 9.94 0 0 1 2.6-3.56 5.64 5.64 0 0 1 3.76-1.3c.47 0 .91.05 1.34.15.44.1.83.27 1.16.49l-.28 2.92c-.09.37-.31.55-.66.55-.2 0-.5-.04-.9-.13a6.2 6.2 0 0 0-3.24.18 4.23 4.23 0 0 0-1.47.92c-.43.4-.82.9-1.17 1.5a13.1 13.1 0 0 0-.92 2.02V48h-3.94V25.71h2.24c.43 0 .72.08.88.25.17.16.28.44.33.83l.27 3.39zm15.04-14.59V48h-3.92V15.6h3.92zm19.55 15.43a6.22 6.22 0 0 0-2.38-2.05 6.7 6.7 0 0 0-2.86-.6c-2.07 0-3.66.75-4.77 2.23-1.12 1.48-1.68 3.6-1.68 6.33 0 1.46.13 2.7.38 3.74a7.29 7.29 0 0 0 1.1 2.56 4.35 4.35 0 0 0 1.78 1.45c.7.3 1.5.46 2.4.46 1.29 0 2.41-.3 3.36-.88a9.6 9.6 0 0 0 2.67-2.49V31.02zm3.91-15.43V48h-2.33c-.56 0-.9-.27-1.06-.81l-.35-2.71a12.13 12.13 0 0 1-3.25 2.77 8.28 8.28 0 0 1-4.23 1.06 7.31 7.31 0 0 1-6.14-2.9c-.73-.96-1.3-2.15-1.69-3.57a18.35 18.35 0 0 1 .07-9.48 11.29 11.29 0 0 1 1.89-3.7 8.7 8.7 0 0 1 7.06-3.34 7.96 7.96 0 0 1 6.12 2.62V15.59h3.91zM46.61 70.71V93H42.7V70.71h3.91zm.84-7c0 .39-.08.75-.24 1.09-.15.32-.35.61-.62.88-.25.25-.55.44-.9.59a2.67 2.67 0 0 1-2.16 0 2.9 2.9 0 0 1-1.45-1.47 2.67 2.67 0 0 1 0-2.16c.15-.35.35-.65.6-.9.25-.27.53-.47.85-.62a2.67 2.67 0 0 1 2.16 0c.35.15.65.35.9.62.27.25.47.55.62.9.16.34.24.7.24 1.08zm7.97 10.24c.49-.54 1-1.04 1.54-1.48a9.85 9.85 0 0 1 3.66-1.84 8.96 8.96 0 0 1 5.43.35c.94.4 1.72.97 2.33 1.71.63.74 1.11 1.62 1.43 2.67.32 1.04.49 2.19.49 3.45V93h-3.94V78.81c0-1.69-.4-3-1.17-3.92-.76-.93-1.93-1.4-3.5-1.4-1.15 0-2.24.27-3.25.83-1 .56-1.92 1.31-2.77 2.27V93h-3.94V70.71h2.35c.56 0 .9.28 1.04.82l.3 2.42zm57.7 3.3c0 2.36-.37 4.5-1.11 6.44a14.3 14.3 0 0 1-3.17 4.98c-1.37 1.37-3 2.45-4.93 3.2-1.9.76-4.02 1.13-6.33 1.13H85.8V61.47h11.77c2.31 0 4.42.39 6.33 1.15a13.8 13.8 0 0 1 8.1 8.18 17.75 17.75 0 0 1 1.12 6.45zm-4.37 0c0-1.94-.26-3.67-.8-5.2a10.94 10.94 0 0 0-2.23-3.87 9.57 9.57 0 0 0-3.53-2.42 12.23 12.23 0 0 0-4.61-.83h-7.5v24.62h7.5c1.7 0 3.24-.28 4.61-.84a9.7 9.7 0 0 0 3.53-2.4 10.94 10.94 0 0 0 2.24-3.87c.53-1.53.8-3.26.8-5.2zm19.8 5.72c-1.8.06-3.34.2-4.62.44-1.26.22-2.3.51-3.1.88-.8.36-1.37.8-1.74 1.3-.35.5-.53 1.05-.53 1.67 0 .58.1 1.1.3 1.52a3 3 0 0 0 .76 1.05c.34.27.73.46 1.17.6a6.13 6.13 0 0 0 1.45.17 7.28 7.28 0 0 0 3.5-.81 11.95 11.95 0 0 0 2.82-2.2v-4.62zm-12.65-9.11a12.73 12.73 0 0 1 3.98-2.66c1.43-.59 3-.88 4.73-.88 1.25 0 2.36.2 3.33.61a6.81 6.81 0 0 1 3.94 4.38c.33 1.04.5 2.19.5 3.43V93h-1.74a1.8 1.8 0 0 1-.88-.18c-.2-.13-.36-.38-.48-.74l-.44-2.12-1.72 1.46a9.48 9.48 0 0 1-3.74 1.7c-.69.15-1.46.23-2.3.23-.87 0-1.69-.12-2.45-.35a5.34 5.34 0 0 1-3.34-2.93 6.64 6.64 0 0 1-.49-2.64c0-.88.25-1.72.73-2.53a6.33 6.33 0 0 1 2.35-2.17c1.09-.63 2.5-1.15 4.25-1.54 1.75-.41 3.89-.65 6.42-.7v-1.75c0-1.73-.37-3.03-1.12-3.91-.75-.9-1.84-1.34-3.28-1.34-.97 0-1.78.12-2.44.37-.64.23-1.2.5-1.7.81l-1.23.82c-.33.23-.67.35-1 .35-.27 0-.5-.07-.69-.2a2.1 2.1 0 0 1-.48-.53l-.7-1.25zm27.67 19.5c-1.76 0-3.12-.5-4.07-1.48-.94-.98-1.41-2.4-1.41-4.25V74h-2.68a.9.9 0 0 1-.6-.2c-.16-.14-.24-.36-.24-.66v-1.56l3.65-.46.9-6.89c.05-.22.14-.4.29-.52a.88.88 0 0 1 .62-.22H142v7.67h6.44V74H142v13.38c0 .94.22 1.63.68 2.09.45.45 1.04.68 1.76.68a3.21 3.21 0 0 0 1.85-.53l.55-.35c.16-.12.3-.18.41-.18.2 0 .4.13.55.38l1.15 1.87a7.45 7.45 0 0 1-2.44 1.5 8.53 8.53 0 0 1-2.95.52zm19.68-10.4c-1.8.07-3.34.21-4.62.45-1.26.22-2.3.51-3.1.88-.8.36-1.37.8-1.74 1.3-.35.5-.53 1.05-.53 1.67 0 .58.1 1.1.3 1.52a2.9 2.9 0 0 0 .76 1.05c.34.27.73.46 1.17.6a6.13 6.13 0 0 0 1.45.17 7.3 7.3 0 0 0 3.5-.81 12.04 12.04 0 0 0 2.82-2.2v-4.62zm-12.65-9.1a12.72 12.72 0 0 1 3.99-2.66c1.42-.59 3-.88 4.72-.88 1.25 0 2.36.2 3.33.61a6.81 6.81 0 0 1 3.94 4.38c.33 1.04.5 2.19.5 3.43V93h-1.74a1.8 1.8 0 0 1-.88-.18c-.2-.13-.36-.38-.48-.74l-.44-2.12-1.72 1.46a9.48 9.48 0 0 1-3.74 1.7c-.69.15-1.46.23-2.3.23-.87 0-1.69-.12-2.45-.35a5.33 5.33 0 0 1-3.34-2.93 6.62 6.62 0 0 1-.49-2.64c0-.88.25-1.72.73-2.53a6.33 6.33 0 0 1 2.35-2.17c1.09-.63 2.5-1.15 4.25-1.54 1.74-.41 3.89-.65 6.42-.7v-1.75c0-1.73-.37-3.03-1.12-3.91-.75-.9-1.84-1.34-3.28-1.34-.97 0-1.78.12-2.44.37-.64.23-1.2.5-1.7.81l-1.22.82c-.34.23-.68.35-1.02.35-.26 0-.49-.07-.68-.2a1.88 1.88 0 0 1-.48-.53l-.7-1.25zM40.98 32.25c0 2.36-.38 4.53-1.12 6.51a14.26 14.26 0 0 1-8.1 8.4c-1.9.78-4.02 1.17-6.34 1.17-2.31 0-4.42-.39-6.33-1.17a14.31 14.31 0 0 1-8.08-8.4 18.29 18.29 0 0 1-1.12-6.51c0-2.36.38-4.53 1.12-6.5.75-1.97 1.8-3.67 3.17-5.1a14.32 14.32 0 0 1 4.9-3.34c1.92-.8 4.03-1.19 6.34-1.19 2.32 0 4.43.4 6.34 1.19 1.92.8 3.56 1.9 4.93 3.34a14.87 14.87 0 0 1 3.17 5.1 18.1 18.1 0 0 1 1.12 6.5zm-4.38 0c0-1.94-.26-3.68-.8-5.22a10.91 10.91 0 0 0-2.24-3.89 9.68 9.68 0 0 0-3.52-2.46 11.95 11.95 0 0 0-4.62-.86c-1.68 0-3.21.28-4.6.86a9.88 9.88 0 0 0-3.54 2.46 10.91 10.91 0 0 0-2.24 3.9c-.53 1.53-.8 3.27-.8 5.2 0 1.94.27 3.68.8 5.22a11.17 11.17 0 0 0 2.24 3.9 10.01 10.01 0 0 0 3.55 2.44c1.38.56 2.9.83 4.6.83s3.24-.27 4.61-.83a9.8 9.8 0 0 0 3.52-2.44 11.17 11.17 0 0 0 2.25-3.9c.53-1.54.8-3.28.8-5.21zm26.22-6.54V48H60.5c-.56 0-.9-.27-1.05-.81l-.31-2.4a12.45 12.45 0 0 1-3.26 2.6c-1.2.64-2.58.96-4.13.96-1.22 0-2.3-.2-3.24-.6a6.52 6.52 0 0 1-2.33-1.7 7.37 7.37 0 0 1-1.43-2.67c-.3-1.04-.46-2.2-.46-3.45V25.7h3.91v14.22c0 1.68.38 2.99 1.15 3.91.77.93 1.96 1.39 3.54 1.39 1.16 0 2.24-.27 3.23-.82a10.42 10.42 0 0 0 2.8-2.28V25.7h3.91zm8.61 4.47a9.94 9.94 0 0 1 2.6-3.56 5.64 5.64 0 0 1 3.76-1.3c.47 0 .92.05 1.34.15.44.1.83.27 1.17.49l-.3 2.92c-.09.37-.3.55-.66.55-.2 0-.5-.04-.9-.13a6.21 6.21 0 0 0-3.24.18 4.23 4.23 0 0 0-1.47.92c-.42.4-.81.9-1.17 1.5-.33.58-.64 1.26-.92 2.02V48H67.7V25.71h2.25c.42 0 .72.08.88.25.16.16.27.44.33.83l.26 3.39zm61.16-13.7L122.75 48h-3.82l-7.99-24.05a21.95 21.95 0 0 1-.42-1.58 38.36 38.36 0 0 1-.44 1.58L102.05 48h-3.83L88.4 16.47h3.54c.38 0 .7.1.95.29.26.2.43.43.5.73l6.52 21.9.28 1.28.29 1.46.3-1.46.38-1.27 7.41-21.91c.1-.25.26-.48.51-.69.27-.22.58-.33.95-.33h1.23c.38 0 .69.1.92.29a1.77 1.77 0 0 1 .53.73l7.4 21.9a28.4 28.4 0 0 1 .68 2.62 29.52 29.52 0 0 1 .52-2.61l6.54-21.91a1.31 1.31 0 0 1 .48-.7c.27-.21.58-.32.95-.32h3.32zm9.35 8.88c1.63 0 3.1.27 4.4.82a9.43 9.43 0 0 1 5.46 5.94c.5 1.4.74 2.98.74 4.73 0 1.76-.25 3.34-.74 4.75a9.43 9.43 0 0 1-5.46 5.92c-1.3.52-2.77.79-4.4.79-1.64 0-3.12-.27-4.44-.8a9.42 9.42 0 0 1-3.35-2.3c-.92-1-1.63-2.2-2.13-3.61-.49-1.41-.73-3-.73-4.75s.24-3.33.73-4.73c.5-1.43 1.2-2.64 2.13-3.63.93-1 2.04-1.77 3.35-2.31 1.32-.55 2.8-.82 4.44-.82zm0 19.89c2.2 0 3.84-.73 4.93-2.2 1.08-1.48 1.63-3.54 1.63-6.18 0-2.66-.55-4.72-1.63-6.2-1.09-1.49-2.73-2.23-4.93-2.23-1.12 0-2.09.2-2.93.57a5.71 5.71 0 0 0-2.06 1.65c-.55.72-.96 1.61-1.24 2.67-.26 1.04-.4 2.22-.4 3.54 0 2.64.55 4.7 1.64 6.18 1.1 1.47 2.76 2.2 4.99 2.2zm17.97-15.07a9.94 9.94 0 0 1 2.6-3.56 5.64 5.64 0 0 1 3.76-1.3c.47 0 .91.05 1.34.15.44.1.83.27 1.16.49l-.28 2.92c-.09.37-.31.55-.66.55-.2 0-.5-.04-.9-.13a6.2 6.2 0 0 0-3.24.18 4.23 4.23 0 0 0-1.47.92c-.43.4-.82.9-1.17 1.5a13.1 13.1 0 0 0-.92 2.02V48h-3.94V25.71h2.24c.43 0 .72.08.88.25.17.16.28.44.33.83l.27 3.39zm15.04-14.59V48h-3.92V15.6h3.92zm19.55 15.43a6.22 6.22 0 0 0-2.38-2.05 6.7 6.7 0 0 0-2.86-.6c-2.07 0-3.66.75-4.77 2.23-1.12 1.48-1.68 3.6-1.68 6.33 0 1.46.13 2.7.38 3.74a7.29 7.29 0 0 0 1.1 2.56 4.35 4.35 0 0 0 1.78 1.45c.7.3 1.5.46 2.4.46 1.29 0 2.41-.3 3.36-.88a9.6 9.6 0 0 0 2.67-2.49V31.02zm3.91-15.43V48h-2.33c-.56 0-.9-.27-1.06-.81l-.35-2.71a12.13 12.13 0 0 1-3.25 2.77 8.28 8.28 0 0 1-4.23 1.06 7.31 7.31 0 0 1-6.14-2.9c-.73-.96-1.3-2.15-1.69-3.57a18.35 18.35 0 0 1 .07-9.48 11.29 11.29 0 0 1 1.89-3.7 8.7 8.7 0 0 1 7.06-3.34 7.96 7.96 0 0 1 6.12 2.62V15.59h3.91zM46.61 70.71V93H42.7V70.71h3.91zm.84-7c0 .39-.08.75-.24 1.09-.15.32-.35.61-.62.88-.25.25-.55.44-.9.59a2.67 2.67 0 0 1-2.16 0 2.9 2.9 0 0 1-1.45-1.47 2.67 2.67 0 0 1 0-2.16c.15-.35.35-.65.6-.9.25-.27.53-.47.85-.62a2.67 2.67 0 0 1 2.16 0c.35.15.65.35.9.62.27.25.47.55.62.9.16.34.24.7.24 1.08zm7.97 10.24c.49-.54 1-1.04 1.54-1.48a9.85 9.85 0 0 1 3.66-1.84 8.96 8.96 0 0 1 5.43.35c.94.4 1.72.97 2.33 1.71.63.74 1.11 1.62 1.43 2.67.32 1.04.49 2.19.49 3.45V93h-3.94V78.81c0-1.69-.4-3-1.17-3.92-.76-.93-1.93-1.4-3.5-1.4-1.15 0-2.24.27-3.25.83-1 .56-1.92 1.31-2.77 2.27V93h-3.94V70.71h2.35c.56 0 .9.28 1.04.82l.3 2.42zm57.7 3.3c0 2.36-.37 4.5-1.11 6.44a14.3 14.3 0 0 1-3.17 4.98c-1.37 1.37-3 2.45-4.93 3.2-1.9.76-4.02 1.13-6.33 1.13H85.8V61.47h11.77c2.31 0 4.42.39 6.33 1.15a13.8 13.8 0 0 1 8.1 8.18 17.75 17.75 0 0 1 1.12 6.45zm-4.37 0c0-1.94-.26-3.67-.8-5.2a10.94 10.94 0 0 0-2.23-3.87 9.57 9.57 0 0 0-3.53-2.42 12.23 12.23 0 0 0-4.61-.83h-7.5v24.62h7.5c1.7 0 3.24-.28 4.61-.84a9.7 9.7 0 0 0 3.53-2.4 10.94 10.94 0 0 0 2.24-3.87c.53-1.53.8-3.26.8-5.2zm19.8 5.72c-1.8.06-3.34.2-4.62.44-1.26.22-2.3.51-3.1.88-.8.36-1.37.8-1.74 1.3-.35.5-.53 1.05-.53 1.67 0 .58.1 1.1.3 1.52a3 3 0 0 0 .76 1.05c.34.27.73.46 1.17.6a6.13 6.13 0 0 0 1.45.17 7.28 7.28 0 0 0 3.5-.81 11.95 11.95 0 0 0 2.82-2.2v-4.62zm-12.65-9.11a12.73 12.73 0 0 1 3.98-2.66c1.43-.59 3-.88 4.73-.88 1.25 0 2.36.2 3.33.61a6.81 6.81 0 0 1 3.94 4.38c.33 1.04.5 2.19.5 3.43V93h-1.74a1.8 1.8 0 0 1-.88-.18c-.2-.13-.36-.38-.48-.74l-.44-2.12-1.72 1.46a9.48 9.48 0 0 1-3.74 1.7c-.69.15-1.46.23-2.3.23-.87 0-1.69-.12-2.45-.35a5.34 5.34 0 0 1-3.34-2.93 6.64 6.64 0 0 1-.49-2.64c0-.88.25-1.72.73-2.53a6.33 6.33 0 0 1 2.35-2.17c1.09-.63 2.5-1.15 4.25-1.54 1.75-.41 3.89-.65 6.42-.7v-1.75c0-1.73-.37-3.03-1.12-3.91-.75-.9-1.84-1.34-3.28-1.34-.97 0-1.78.12-2.44.37-.64.23-1.2.5-1.7.81l-1.23.82c-.33.23-.67.35-1 .35-.27 0-.5-.07-.69-.2a2.1 2.1 0 0 1-.48-.53l-.7-1.25zm27.67 19.5c-1.76 0-3.12-.5-4.07-1.48-.94-.98-1.41-2.4-1.41-4.25V74h-2.68a.9.9 0 0 1-.6-.2c-.16-.14-.24-.36-.24-.66v-1.56l3.65-.46.9-6.89c.05-.22.14-.4.29-.52a.88.88 0 0 1 .62-.22H142v7.67h6.44V74H142v13.38c0 .94.22 1.63.68 2.09.45.45 1.04.68 1.76.68a3.21 3.21 0 0 0 1.85-.53l.55-.35c.16-.12.3-.18.41-.18.2 0 .4.13.55.38l1.15 1.87a7.45 7.45 0 0 1-2.44 1.5 8.53 8.53 0 0 1-2.95.52zm19.68-10.4c-1.8.07-3.34.21-4.62.45-1.26.22-2.3.51-3.1.88-.8.36-1.37.8-1.74 1.3-.35.5-.53 1.05-.53 1.67 0 .58.1 1.1.3 1.52a2.9 2.9 0 0 0 .76 1.05c.34.27.73.46 1.17.6a6.13 6.13 0 0 0 1.45.17 7.3 7.3 0 0 0 3.5-.81 12.04 12.04 0 0 0 2.82-2.2v-4.62zm-12.65-9.1a12.72 12.72 0 0 1 3.99-2.66c1.42-.59 3-.88 4.72-.88 1.25 0 2.36.2 3.33.61a6.81 6.81 0 0 1 3.94 4.38c.33 1.04.5 2.19.5 3.43V93h-1.74a1.8 1.8 0 0 1-.88-.18c-.2-.13-.36-.38-.48-.74l-.44-2.12-1.72 1.46a9.48 9.48 0 0 1-3.74 1.7c-.69.15-1.46.23-2.3.23-.87 0-1.69-.12-2.45-.35a5.33 5.33 0 0 1-3.34-2.93 6.62 6.62 0 0 1-.49-2.64c0-.88.25-1.72.73-2.53a6.33 6.33 0 0 1 2.35-2.17c1.09-.63 2.5-1.15 4.25-1.54 1.74-.41 3.89-.65 6.42-.7v-1.75c0-1.73-.37-3.03-1.12-3.91-.75-.9-1.84-1.34-3.28-1.34-.97 0-1.78.12-2.44.37-.64.23-1.2.5-1.7.81l-1.22.82c-.34.23-.68.35-1.02.35-.26 0-.49-.07-.68-.2a1.88 1.88 0 0 1-.48-.53l-.7-1.25zM40.98 32.25c0 2.36-.38 4.53-1.12 6.51a14.26 14.26 0 0 1-8.1 8.4c-1.9.78-4.02 1.17-6.34 1.17-2.31 0-4.42-.39-6.33-1.17a14.31 14.31 0 0 1-8.08-8.4 18.29 18.29 0 0 1-1.12-6.51c0-2.36.38-4.53 1.12-6.5.75-1.97 1.8-3.67 3.17-5.1a14.32 14.32 0 0 1 4.9-3.34c1.92-.8 4.03-1.19 6.34-1.19 2.32 0 4.43.4 6.34 1.19 1.92.8 3.56 1.9 4.93 3.34a14.87 14.87 0 0 1 3.17 5.1 18.1 18.1 0 0 1 1.12 6.5zm-4.38 0c0-1.94-.26-3.68-.8-5.22a10.91 10.91 0 0 0-2.24-3.89 9.68 9.68 0 0 0-3.52-2.46 11.95 11.95 0 0 0-4.62-.86c-1.68 0-3.21.28-4.6.86a9.88 9.88 0 0 0-3.54 2.46 10.91 10.91 0 0 0-2.24 3.9c-.53 1.53-.8 3.27-.8 5.2 0 1.94.27 3.68.8 5.22a11.17 11.17 0 0 0 2.24 3.9 10.01 10.01 0 0 0 3.55 2.44c1.38.56 2.9.83 4.6.83s3.24-.27 4.61-.83a9.8 9.8 0 0 0 3.52-2.44 11.17 11.17 0 0 0 2.25-3.9c.53-1.54.8-3.28.8-5.21zm26.22-6.54V48H60.5c-.56 0-.9-.27-1.05-.81l-.31-2.4a12.45 12.45 0 0 1-3.26 2.6c-1.2.64-2.58.96-4.13.96-1.22 0-2.3-.2-3.24-.6a6.52 6.52 0 0 1-2.33-1.7 7.37 7.37 0 0 1-1.43-2.67c-.3-1.04-.46-2.2-.46-3.45V25.7h3.91v14.22c0 1.68.38 2.99 1.15 3.91.77.93 1.96 1.39 3.54 1.39 1.16 0 2.24-.27 3.23-.82a10.42 10.42 0 0 0 2.8-2.28V25.7h3.91zm8.61 4.47a9.94 9.94 0 0 1 2.6-3.56 5.64 5.64 0 0 1 3.76-1.3c.47 0 .92.05 1.34.15.44.1.83.27 1.17.49l-.3 2.92c-.09.37-.3.55-.66.55-.2 0-.5-.04-.9-.13a6.21 6.21 0 0 0-3.24.18 4.23 4.23 0 0 0-1.47.92c-.42.4-.81.9-1.17 1.5-.33.58-.64 1.26-.92 2.02V48H67.7V25.71h2.25c.42 0 .72.08.88.25.16.16.27.44.33.83l.26 3.39zm61.16-13.7L122.75 48h-3.82l-7.99-24.05a21.95 21.95 0 0 1-.42-1.58 38.36 38.36 0 0 1-.44 1.58L102.05 48h-3.83L88.4 16.47h3.54c.38 0 .7.1.95.29.26.2.43.43.5.73l6.52 21.9.28 1.28.29 1.46.3-1.46.38-1.27 7.41-21.91c.1-.25.26-.48.51-.69.27-.22.58-.33.95-.33h1.23c.38 0 .69.1.92.29a1.77 1.77 0 0 1 .53.73l7.4 21.9a28.4 28.4 0 0 1 .68 2.62 29.52 29.52 0 0 1 .52-2.61l6.54-21.91a1.31 1.31 0 0 1 .48-.7c.27-.21.58-.32.95-.32h3.32zm9.35 8.88c1.63 0 3.1.27 4.4.82a9.43 9.43 0 0 1 5.46 5.94c.5 1.4.74 2.98.74 4.73 0 1.76-.25 3.34-.74 4.75a9.43 9.43 0 0 1-5.46 5.92c-1.3.52-2.77.79-4.4.79-1.64 0-3.12-.27-4.44-.8a9.42 9.42 0 0 1-3.35-2.3c-.92-1-1.63-2.2-2.13-3.61-.49-1.41-.73-3-.73-4.75s.24-3.33.73-4.73c.5-1.43 1.2-2.64 2.13-3.63.93-1 2.04-1.77 3.35-2.31 1.32-.55 2.8-.82 4.44-.82zm0 19.89c2.2 0 3.84-.73 4.93-2.2 1.08-1.48 1.63-3.54 1.63-6.18 0-2.66-.55-4.72-1.63-6.2-1.09-1.49-2.73-2.23-4.93-2.23-1.12 0-2.09.2-2.93.57a5.71 5.71 0 0 0-2.06 1.65c-.55.72-.96 1.61-1.24 2.67-.26 1.04-.4 2.22-.4 3.54 0 2.64.55 4.7 1.64 6.18 1.1 1.47 2.76 2.2 4.99 2.2zm17.97-15.07a9.94 9.94 0 0 1 2.6-3.56 5.64 5.64 0 0 1 3.76-1.3c.47 0 .91.05 1.34.15.44.1.83.27 1.16.49l-.28 2.92c-.09.37-.31.55-.66.55-.2 0-.5-.04-.9-.13a6.2 6.2 0 0 0-3.24.18 4.23 4.23 0 0 0-1.47.92c-.43.4-.82.9-1.17 1.5a13.1 13.1 0 0 0-.92 2.02V48h-3.94V25.71h2.24c.43 0 .72.08.88.25.17.16.28.44.33.83l.27 3.39zm15.04-14.59V48h-3.92V15.6h3.92zm19.55 15.43a6.22 6.22 0 0 0-2.38-2.05 6.7 6.7 0 0 0-2.86-.6c-2.07 0-3.66.75-4.77 2.23-1.12 1.48-1.68 3.6-1.68 6.33 0 1.46.13 2.7.38 3.74a7.29 7.29 0 0 0 1.1 2.56 4.35 4.35 0 0 0 1.78 1.45c.7.3 1.5.46 2.4.46 1.29 0 2.41-.3 3.36-.88a9.6 9.6 0 0 0 2.67-2.49V31.02zm3.91-15.43V48h-2.33c-.56 0-.9-.27-1.06-.81l-.35-2.71a12.13 12.13 0 0 1-3.25 2.77 8.28 8.28 0 0 1-4.23 1.06 7.31 7.31 0 0 1-6.14-2.9c-.73-.96-1.3-2.15-1.69-3.57a18.35 18.35 0 0 1 .07-9.48 11.29 11.29 0 0 1 1.89-3.7 8.7 8.7 0 0 1 7.06-3.34 7.96 7.96 0 0 1 6.12 2.62V15.59h3.91zM46.61 70.71V93H42.7V70.71h3.91zm.84-7c0 .39-.08.75-.24 1.09-.15.32-.35.61-.62.88-.25.25-.55.44-.9.59a2.67 2.67 0 0 1-2.16 0 2.9 2.9 0 0 1-1.45-1.47 2.67 2.67 0 0 1 0-2.16c.15-.35.35-.65.6-.9.25-.27.53-.47.85-.62a2.67 2.67 0 0 1 2.16 0c.35.15.65.35.9.62.27.25.47.55.62.9.16.34.24.7.24 1.08zm7.97 10.24c.49-.54 1-1.04 1.54-1.48a9.85 9.85 0 0 1 3.66-1.84 8.96 8.96 0 0 1 5.43.35c.94.4 1.72.97 2.33 1.71.63.74 1.11 1.62 1.43 2.67.32 1.04.49 2.19.49 3.45V93h-3.94V78.81c0-1.69-.4-3-1.17-3.92-.76-.93-1.93-1.4-3.5-1.4-1.15 0-2.24.27-3.25.83-1 .56-1.92 1.31-2.77 2.27V93h-3.94V70.71h2.35c.56 0 .9.28 1.04.82l.3 2.42zm57.7 3.3c0 2.36-.37 4.5-1.11 6.44a14.3 14.3 0 0 1-3.17 4.98c-1.37 1.37-3 2.45-4.93 3.2-1.9.76-4.02 1.13-6.33 1.13H85.8V61.47h11.77c2.31 0 4.42.39 6.33 1.15a13.8 13.8 0 0 1 8.1 8.18 17.75 17.75 0 0 1 1.12 6.45zm-4.37 0c0-1.94-.26-3.67-.8-5.2a10.94 10.94 0 0 0-2.23-3.87 9.57 9.57 0 0 0-3.53-2.42 12.23 12.23 0 0 0-4.61-.83h-7.5v24.62h7.5c1.7 0 3.24-.28 4.61-.84a9.7 9.7 0 0 0 3.53-2.4 10.94 10.94 0 0 0 2.24-3.87c.53-1.53.8-3.26.8-5.2zm19.8 5.72c-1.8.06-3.34.2-4.62.44-1.26.22-2.3.51-3.1.88-.8.36-1.37.8-1.74 1.3-.35.5-.53 1.05-.53 1.67 0 .58.1 1.1.3 1.52a3 3 0 0 0 .76 1.05c.34.27.73.46 1.17.6a6.13 6.13 0 0 0 1.45.17 7.28 7.28 0 0 0 3.5-.81 11.95 11.95 0 0 0 2.82-2.2v-4.62zm-12.65-9.11a12.73 12.73 0 0 1 3.98-2.66c1.43-.59 3-.88 4.73-.88 1.25 0 2.36.2 3.33.61a6.81 6.81 0 0 1 3.94 4.38c.33 1.04.5 2.19.5 3.43V93h-1.74a1.8 1.8 0 0 1-.88-.18c-.2-.13-.36-.38-.48-.74l-.44-2.12-1.72 1.46a9.48 9.48 0 0 1-3.74 1.7c-.69.15-1.46.23-2.3.23-.87 0-1.69-.12-2.45-.35a5.34 5.34 0 0 1-3.34-2.93 6.64 6.64 0 0 1-.49-2.64c0-.88.25-1.72.73-2.53a6.33 6.33 0 0 1 2.35-2.17c1.09-.63 2.5-1.15 4.25-1.54 1.75-.41 3.89-.65 6.42-.7v-1.75c0-1.73-.37-3.03-1.12-3.91-.75-.9-1.84-1.34-3.28-1.34-.97 0-1.78.12-2.44.37-.64.23-1.2.5-1.7.81l-1.23.82c-.33.23-.67.35-1 .35-.27 0-.5-.07-.69-.2a2.1 2.1 0 0 1-.48-.53l-.7-1.25zm27.67 19.5c-1.76 0-3.12-.5-4.07-1.48-.94-.98-1.41-2.4-1.41-4.25V74h-2.68a.9.9 0 0 1-.6-.2c-.16-.14-.24-.36-.24-.66v-1.56l3.65-.46.9-6.89c.05-.22.14-.4.29-.52a.88.88 0 0 1 .62-.22H142v7.67h6.44V74H142v13.38c0 .94.22 1.63.68 2.09.45.45 1.04.68 1.76.68a3.21 3.21 0 0 0 1.85-.53l.55-.35c.16-.12.3-.18.41-.18.2 0 .4.13.55.38l1.15 1.87a7.45 7.45 0 0 1-2.44 1.5 8.53 8.53 0 0 1-2.95.52zm19.68-10.4c-1.8.07-3.34.21-4.62.45-1.26.22-2.3.51-3.1.88-.8.36-1.37.8-1.74 1.3-.35.5-.53 1.05-.53 1.67 0 .58.1 1.1.3 1.52a2.9 2.9 0 0 0 .76 1.05c.34.27.73.46 1.17.6a6.13 6.13 0 0 0 1.45.17 7.3 7.3 0 0 0 3.5-.81 12.04 12.04 0 0 0 2.82-2.2v-4.62zm-12.65-9.1a12.72 12.72 0 0 1 3.99-2.66c1.42-.59 3-.88 4.72-.88 1.25 0 2.36.2 3.33.61a6.81 6.81 0 0 1 3.94 4.38c.33 1.04.5 2.19.5 3.43V93h-1.74a1.8 1.8 0 0 1-.88-.18c-.2-.13-.36-.38-.48-.74l-.44-2.12-1.72 1.46a9.48 9.48 0 0 1-3.74 1.7c-.69.15-1.46.23-2.3.23-.87 0-1.69-.12-2.45-.35a5.33 5.33 0 0 1-3.34-2.93 6.62 6.62 0 0 1-.49-2.64c0-.88.25-1.72.73-2.53a6.33 6.33 0 0 1 2.35-2.17c1.09-.63 2.5-1.15 4.25-1.54 1.74-.41 3.89-.65 6.42-.7v-1.75c0-1.73-.37-3.03-1.12-3.91-.75-.9-1.84-1.34-3.28-1.34-.97 0-1.78.12-2.44.37-.64.23-1.2.5-1.7.81l-1.22.82c-.34.23-.68.35-1.02.35-.26 0-.49-.07-.68-.2a1.88 1.88 0 0 1-.48-.53l-.7-1.25z"
    fill="#fff"
  />
  <path fill="#D42B21" d="M0 106.79h210V120H0z" />
</g>
<defs>
  <clipPath id="clip0"><path fill="#fff" d="M0 0h210v120H0z" /></clipPath>
</defs>
</svg></g><a href="http://localhost:3030/grapher/per-capita-nitrous-oxide-agriculture?country=NER~NGA~SSD~ZAF~BRA~CHN~IND~USA~GBR~OWID_WRL" style="font-family:&quot;Playfair Display&quot;, Georgia, &quot;Times New Roman&quot;, serif" target="_blank" rel="noopener"><text font-size="25.20" x="15.0" y="35.2" fill="#555"><tspan x="15" y="35.160000000000004">Per capita nitrous oxide emissions from agriculture</tspan></text></a><text font-size="14.40" x="15.0" y="55.7" fill="#666"><tspan x="15" y="55.72">Nitrous oxide (N₂O) emissions are measured in tonnes of carbon dioxide equivalents (CO₂e), based on 100-year</tspan><tspan x="15" y="73">global warming potential factors for non-CO₂ gases.</tspan></text></g><g class="LineChart"><defs><clipPath id="boundsClip-1"><rect x="41.752" y="82.2" width="840" height="475.2"></rect></clipPath></defs><g class="DualAxisView"><g class="HorizontalAxis"><line x1="703.6" y1="526.2" x2="703.6" y2="531.2" stroke="#999"></line><line x1="51.8" y1="526.2" x2="51.8" y2="531.2" stroke="#999"></line><line x1="168.2" y1="526.2" x2="168.2" y2="531.2" stroke="#999"></line><line x1="284.6" y1="526.2" x2="284.6" y2="531.2" stroke="#999"></line><line x1="401" y1="526.2" x2="401" y2="531.2" stroke="#999"></line><line x1="517.4" y1="526.2" x2="517.4" y2="531.2" stroke="#999"></line><line x1="633.8" y1="526.2" x2="633.8" y2="531.2" stroke="#999"></line><text x="703.61" y="547.4" fill="#666" text-anchor="end" font-size="16.2">2018</text><text x="51.752" y="547.4" fill="#666" text-anchor="start" font-size="16.2">1990</text><text x="168.2" y="547.4" fill="#666" text-anchor="middle" font-size="16.2">1995</text><text x="284.6" y="547.4" fill="#666" text-anchor="middle" font-size="16.2">2000</text><text x="401" y="547.4" fill="#666" text-anchor="middle" font-size="16.2">2005</text><text x="517.4" y="547.4" fill="#666" text-anchor="middle" font-size="16.2">2010</text><text x="633.8" y="547.4" fill="#666" text-anchor="middle" font-size="16.2">2015</text></g><g class="VerticalAxis"><text x="46.75" y="526.2" dy=".32em" text-anchor="end" fill="#666" font-size="16.2">0 t</text><text x="46.75" y="462.7" dy=".32em" text-anchor="end" fill="#666" font-size="16.2">0.5 t</text><text x="46.75" y="399.3" dy=".32em" text-anchor="end" fill="#666" font-size="16.2">1 t</text><text x="46.75" y="335.8" dy=".32em" text-anchor="end" fill="#666" font-size="16.2">1.5 t</text><text x="46.75" y="272.3" dy=".32em" text-anchor="end" fill="#666" font-size="16.2">2 t</text><text x="46.75" y="208.9" dy=".32em" text-anchor="end" fill="#666" font-size="16.2">2.5 t</text><text x="46.75" y="145.4" dy=".32em" text-anchor="end" fill="#666" font-size="16.2">3 t</text></g><g class="AxisGridLines horizontalLines"><line x1="51.75" y1="526.2" x2="703.61" y2="526.2" stroke="#999"></line><line x1="51.75" y1="462.7" x2="703.61" y2="462.7" stroke="#ddd" stroke-dasharray="3,2"></line><line x1="51.75" y1="399.3" x2="703.61" y2="399.3" stroke="#ddd" stroke-dasharray="3,2"></line><line x1="51.75" y1="335.8" x2="703.61" y2="335.8" stroke="#ddd" stroke-dasharray="3,2"></line><line x1="51.75" y1="272.3" x2="703.61" y2="272.3" stroke="#ddd" stroke-dasharray="3,2"></line><line x1="51.75" y1="208.9" x2="703.61" y2="208.9" stroke="#ddd" stroke-dasharray="3,2"></line><line x1="51.75" y1="145.4" x2="703.61" y2="145.4" stroke="#ddd" stroke-dasharray="3,2"></line></g></g><g clip-path="url(#boundsClip-1)"><g class="LineLabels" style="cursor:default"><g class="legendMark"><g class="indicator"><path d="M707.61,263.1 H721.11 V263.1 H734.61" stroke="#999" stroke-width="0.5" fill="none"></path></g><rect x="703.61" y="256.35" width="113.57000000000001" height="13.5" fill="#fff" opacity="0"></rect><text font-size="13.50" font-weight="400" x="738.6" y="267.2" fill="#3c4e66"><tspan x="738.61" y="267.15000000000003">South Sudan</tspan></text></g><g class="legendMark"><g class="indicator"><path d="M707.61,425.5 H710.61 V395.44999999999993 H734.61" stroke="#999" stroke-width="0.5" fill="none"></path></g><rect x="703.61" y="388.69999999999993" width="68.75" height="13.5" fill="#fff" opacity="0"></rect><text font-size="13.50" font-weight="400" x="738.6" y="399.5" fill="#cf0a66"><tspan x="738.61" y="399.49999999999994">Brazil</tspan></text></g><g class="legendMark"><g class="indicator"><path d="M707.61,455.2 H713.61 V410.94999999999993 H734.61" stroke="#999" stroke-width="0.5" fill="none"></path></g><rect x="703.61" y="404.19999999999993" width="116.405" height="13.5" fill="#fff" opacity="0"></rect><text font-size="13.50" font-weight="400" x="738.6" y="415.0" fill="#6d3e91"><tspan x="738.61" y="414.99999999999994">United States</tspan></text></g><g class="legendMark"><g class="indicator"><path d="M707.61,462.7 H716.61 V426.44999999999993 H734.61" stroke="#999" stroke-width="0.5" fill="none"></path></g><rect x="703.61" y="419.69999999999993" width="67.265" height="13.5" fill="#fff" opacity="0"></rect><text font-size="13.50" font-weight="400" x="738.6" y="430.5" fill="#4c6a9c"><tspan x="738.61" y="430.49999999999994">Niger</tspan></text></g><g class="legendMark"><g class="indicator"><path d="M707.61,482.6 H719.61 V441.94999999999993 H734.61" stroke="#999" stroke-width="0.5" fill="none"></path></g><rect x="703.61" y="435.19999999999993" width="131.39" height="13.5" fill="#fff" opacity="0"></rect><text font-size="13.50" font-weight="400" x="738.6" y="446.0" fill="#00847e"><tspan x="738.61" y="445.99999999999994">United Kingdom</tspan></text></g><g class="legendMark"><g class="indicator"><path d="M707.61,487.9 H722.61 V457.44999999999993 H734.61" stroke="#999" stroke-width="0.5" fill="none"></path></g><rect x="703.61" y="450.69999999999993" width="70.235" height="13.5" fill="#fff" opacity="0"></rect><text font-size="13.50" font-weight="400" x="738.6" y="461.5" fill="#b13507"><tspan x="738.61" y="461.49999999999994">World</tspan></text></g><g class="legendMark"><g class="indicator"><path d="M707.61,494.5 H725.61 V472.94999999999993 H734.61" stroke="#999" stroke-width="0.5" fill="none"></path></g><rect x="703.61" y="466.19999999999993" width="108.845" height="13.5" fill="#fff" opacity="0"></rect><text font-size="13.50" font-weight="400" x="738.6" y="477.0" fill="#883039"><tspan x="738.61" y="476.99999999999994">South Africa</tspan></text></g><g class="legendMark"><g class="indicator"><path d="M707.61,495.8 H728.61 V488.44999999999993 H734.61" stroke="#999" stroke-width="0.5" fill="none"></path></g><rect x="703.61" y="481.69999999999993" width="70.37" height="13.5" fill="#fff" opacity="0"></rect><text font-size="13.50" font-weight="400" x="738.6" y="492.5" fill="#d73c50"><tspan x="738.61" y="492.49999999999994">China</tspan></text></g><g class="legendMark"><g class="indicator"><path d="M707.61,505.5 H731.61 V503.94999999999993 H734.61" stroke="#999" stroke-width="0.5" fill="none"></path></g><rect x="703.61" y="497.19999999999993" width="64.43" height="13.5" fill="#fff" opacity="0"></rect><text font-size="13.50" font-weight="400" x="738.6" y="508.0" fill="#c05917"><tspan x="738.61" y="507.99999999999994">India</tspan></text></g><g class="legendMark"><g class="indicator"><path d="M707.61,506.5 H731.61 V519.4499999999999 H734.61" stroke="#999" stroke-width="0.5" fill="none"></path></g><rect x="703.61" y="512.6999999999999" width="77.795" height="13.5" fill="#fff" opacity="0"></rect><text font-size="13.50" font-weight="400" x="738.6" y="523.5" fill="#00823f"><tspan x="738.61" y="523.4999999999999">Nigeria</tspan></text></g></g><g class="Lines"><rect x="52" y="92" width="652" height="434" fill="rgba(255,255,255,0)" opacity="0"></rect><g><path stroke-linecap="round" stroke-linejoin="round" stroke="#ddd" d="M51.8 498.8L75 498.6L98.3 498.4L121.6 499.8L144.9 498.7L168.2 494.9L191.4 493L214.7 496.4L238 496L261.3 495L284.6 496.3L307.8 496.5L331.1 495.3L354.4 495.7L377.7 494.9L401 494.6L424.2 494.5L447.5 494.6L470.8 494.1L494.1 493.9L517.4 493.8L540.6 494.1L563.9 493.9L587.2 494L610.5 494.1L633.8 494L657 494.1L680.3 495L703.6 495.8" fill="none" stroke-width="1"></path></g><g><path stroke-linecap="round" stroke-linejoin="round" stroke="#ddd" d="M51.8 506.9L75 506.8L98.3 506.6L121.6 506.6L144.9 506.2L168.2 506.3L191.4 506.1L214.7 505.9L238 505.9L261.3 506L284.6 506.8L307.8 506.8L331.1 507.9L354.4 507.5L377.7 507.2L401 506.5L424.2 505.9L447.5 505.4L470.8 505.4L494.1 505.3L517.4 504.9L540.6 504.5L563.9 505L587.2 505.3L610.5 505.4L633.8 505.5L657 505.8L680.3 505.8L703.6 505.5" fill="none" stroke-width="1"></path></g><g><path stroke-linecap="round" stroke-linejoin="round" stroke="#ddd" d="M51.8 469.9L75 469.7L98.3 469L121.6 468.9L144.9 469L168.2 468.3L191.4 467.9L214.7 468.7L238 467.1L261.3 466.7L284.6 466.6L307.8 465.6L331.1 465.5L354.4 465.4L377.7 465.6L401 464.7L424.2 464.5L447.5 464L470.8 463.2L494.1 463.4L517.4 466.3L540.6 467.1L563.9 465.6L587.2 465.4L610.5 464.5L633.8 464.7L657 463.7L680.3 463.4L703.6 462.7" fill="none" stroke-width="1"></path></g><g><path stroke-linecap="round" stroke-linejoin="round" stroke="#ddd" d="M51.8 504.2L75 504.4L98.3 504.6L121.6 504.5L144.9 504.7L168.2 505.2L191.4 504.9L214.7 504.8L238 503.7L261.3 504.1L284.6 504.5L307.8 504.9L331.1 505.3L354.4 504.9L377.7 505.5L401 504.3L424.2 505L447.5 506.1L470.8 506.2L494.1 507.4L517.4 506.3L540.6 506.2L563.9 506.2L587.2 506.2L610.5 506.4L633.8 506.9L657 506.1L680.3 506L703.6 506.5" fill="none" stroke-width="1"></path></g><g><path stroke-linecap="round" stroke-linejoin="round" stroke="#ddd" d="M51.8 475.6L75 476.9L98.3 479.5L121.6 479.6L144.9 481.6L168.2 483.3L191.4 481.3L214.7 481.7L238 481.7L261.3 482.7L284.6 483L307.8 485.2L331.1 482.7L354.4 486.3L377.7 487.5L401 487.4L424.2 488.6L447.5 487.9L470.8 487.6L494.1 487.5L517.4 488.6L540.6 489.2L563.9 489L587.2 491.1L610.5 491L633.8 494.1L657 496.3L680.3 493.2L703.6 494.5" fill="none" stroke-width="1"></path></g><g><path stroke-linecap="round" stroke-linejoin="round" stroke="#ddd" d="M51.8 442.8L75 441.8L98.3 441.7L121.6 441.8L144.9 440.7L168.2 440.9L191.4 447.1L214.7 445.7L238 443.1L261.3 444.2L284.6 445.5L307.8 441.7L331.1 436.6L354.4 433.7L377.7 429.4L401 430.7L424.2 433.6L447.5 426.8L470.8 432.2L494.1 435.3L517.4 425.4L540.6 426.8L563.9 427.3L587.2 428.2L610.5 425L633.8 427.5L657 425.7L680.3 421.6L703.6 425.5" fill="none" stroke-width="1"></path></g><g><path stroke-linecap="round" stroke-linejoin="round" stroke="#ddd" d="M51.8 445.2L75 446.1L98.3 444.5L121.6 444.9L144.9 443.2L168.2 445.3L191.4 443.8L214.7 445.1L238 446L261.3 447.7L284.6 450L307.8 451.3L331.1 452L354.4 450.1L377.7 450.1L401 452L424.2 451.3L447.5 450.8L470.8 452.8L494.1 454.8L517.4 454.9L540.6 453.4L563.9 454.3L587.2 454L610.5 454.8L633.8 455.7L657 454.2L680.3 454.7L703.6 455.2" fill="none" stroke-width="1"></path></g><g><path stroke-linecap="round" stroke-linejoin="round" stroke="#ddd" d="M51.8 474.9L75 475L98.3 475.2L121.6 475.3L144.9 475.5L168.2 475.6L191.4 475.8L214.7 475.9L238 476.1L261.3 476.3L284.6 476.5L307.8 476.6L331.1 476.8L354.4 477L377.7 477.3L401 477.6L424.2 478L447.5 478.5L470.8 479L494.1 479.6L517.4 480L540.6 480.4L563.9 480.8L587.2 481.1L610.5 481.4L633.8 481.7L657 482L680.3 482.3L703.6 482.6" fill="none" stroke-width="1"></path></g><g><path stroke-linecap="round" stroke-linejoin="round" stroke="#ddd" d="M51.8 482.5L75 483.4L98.3 484.2L121.6 485.2L144.9 485.3L168.2 485L191.4 485L214.7 486.1L238 485.9L261.3 485.9L284.6 486.7L307.8 486.9L331.1 486.6L354.4 487.2L377.7 486.5L401 486.8L424.2 486.8L447.5 486.3L470.8 486.9L494.1 487.3L517.4 487.1L540.6 486.1L563.9 486.4L587.2 487.3L610.5 487.2L633.8 487.6L657 487.6L680.3 487.3L703.6 487.9" fill="none" stroke-width="1"></path></g><g><path stroke-linecap="round" stroke-linejoin="round" stroke="#ddd" d="M51.8 212.9L75 198.8L98.3 165.9L121.6 137.5L144.9 110L168.2 104.4L191.4 93.3L214.7 96.1L238 92.2L261.3 104.6L284.6 98.1L307.8 157.1L331.1 148.2L354.4 154.3L377.7 163.9L401 164.9L424.2 202.9L447.5 199.2L470.8 219.2L494.1 226.6L517.4 254.6L540.6 263.3L563.9 249.5L587.2 263.3L610.5 264.8L633.8 266.6L657 261.9L680.3 277.5L703.6 263.1" fill="none" stroke-width="1"></path></g><g><path fill="none" stroke-linecap="butt" stroke-linejoin="round" stroke="#fff" stroke-width="2.5" d="M51.8 498.8L75 498.6L98.3 498.4L121.6 499.8L144.9 498.7L168.2 494.9L191.4 493L214.7 496.4L238 496L261.3 495L284.6 496.3L307.8 496.5L331.1 495.3L354.4 495.7L377.7 494.9L401 494.6L424.2 494.5L447.5 494.6L470.8 494.1L494.1 493.9L517.4 493.8L540.6 494.1L563.9 493.9L587.2 494L610.5 494.1L633.8 494L657 494.1L680.3 495L703.6 495.8"></path><polyline points="51.80,498.80 75.00,498.60 98.30,498.40 121.60,499.80 144.90,498.70 168.20,494.90 191.40,493.00 214.70,496.40 238.00,496.00 261.30,495.00 284.60,496.30 307.80,496.50 331.10,495.30 354.40,495.70 377.70,494.90 401.00,494.60 424.20,494.50 447.50,494.60 470.80,494.10 494.10,493.90 517.40,493.80 540.60,494.10 563.90,493.90 587.20,494.00 610.50,494.10 633.80,494.00 657.00,494.10 680.30,495.00 703.60,495.80" stroke-linejoin="round" stroke-width="1.5" stroke="#D73C50" fill="none" stroke-linecap="butt"></polyline><g><circle cx="51.8" cy="498.8" r="1.8" fill="#D73C50"></circle><circle cx="75" cy="498.6" r="1.8" fill="#D73C50"></circle><circle cx="98.3" cy="498.4" r="1.8" fill="#D73C50"></circle><circle cx="121.6" cy="499.8" r="1.8" fill="#D73C50"></circle><circle cx="144.9" cy="498.7" r="1.8" fill="#D73C50"></circle><circle cx="168.2" cy="494.9" r="1.8" fill="#D73C50"></circle><circle cx="191.4" cy="493" r="1.8" fill="#D73C50"></circle><circle cx="214.7" cy="496.4" r="1.8" fill="#D73C50"></circle><circle cx="238" cy="496" r="1.8" fill="#D73C50"></circle><circle cx="261.3" cy="495" r="1.8" fill="#D73C50"></circle><circle cx="284.6" cy="496.3" r="1.8" fill="#D73C50"></circle><circle cx="307.8" cy="496.5" r="1.8" fill="#D73C50"></circle><circle cx="331.1" cy="495.3" r="1.8" fill="#D73C50"></circle><circle cx="354.4" cy="495.7" r="1.8" fill="#D73C50"></circle><circle cx="377.7" cy="494.9" r="1.8" fill="#D73C50"></circle><circle cx="401" cy="494.6" r="1.8" fill="#D73C50"></circle><circle cx="424.2" cy="494.5" r="1.8" fill="#D73C50"></circle><circle cx="447.5" cy="494.6" r="1.8" fill="#D73C50"></circle><circle cx="470.8" cy="494.1" r="1.8" fill="#D73C50"></circle><circle cx="494.1" cy="493.9" r="1.8" fill="#D73C50"></circle><circle cx="517.4" cy="493.8" r="1.8" fill="#D73C50"></circle><circle cx="540.6" cy="494.1" r="1.8" fill="#D73C50"></circle><circle cx="563.9" cy="493.9" r="1.8" fill="#D73C50"></circle><circle cx="587.2" cy="494" r="1.8" fill="#D73C50"></circle><circle cx="610.5" cy="494.1" r="1.8" fill="#D73C50"></circle><circle cx="633.8" cy="494" r="1.8" fill="#D73C50"></circle><circle cx="657" cy="494.1" r="1.8" fill="#D73C50"></circle><circle cx="680.3" cy="495" r="1.8" fill="#D73C50"></circle><circle cx="703.6" cy="495.8" r="1.8" fill="#D73C50"></circle></g></g><g><path fill="none" stroke-linecap="butt" stroke-linejoin="round" stroke="#fff" stroke-width="2.5" d="M51.8 506.9L75 506.8L98.3 506.6L121.6 506.6L144.9 506.2L168.2 506.3L191.4 506.1L214.7 505.9L238 505.9L261.3 506L284.6 506.8L307.8 506.8L331.1 507.9L354.4 507.5L377.7 507.2L401 506.5L424.2 505.9L447.5 505.4L470.8 505.4L494.1 505.3L517.4 504.9L540.6 504.5L563.9 505L587.2 505.3L610.5 505.4L633.8 505.5L657 505.8L680.3 505.8L703.6 505.5"></path><polyline points="51.80,506.90 75.00,506.80 98.30,506.60 121.60,506.60 144.90,506.20 168.20,506.30 191.40,506.10 214.70,505.90 238.00,505.90 261.30,506.00 284.60,506.80 307.80,506.80 331.10,507.90 354.40,507.50 377.70,507.20 401.00,506.50 424.20,505.90 447.50,505.40 470.80,505.40 494.10,505.30 517.40,504.90 540.60,504.50 563.90,505.00 587.20,505.30 610.50,505.40 633.80,505.50 657.00,505.80 680.30,505.80 703.60,505.50" stroke-linejoin="round" stroke-width="1.5" stroke="#C05917" fill="none" stroke-linecap="butt"></polyline><g><circle cx="51.8" cy="506.9" r="1.8" fill="#C05917"></circle><circle cx="75" cy="506.8" r="1.8" fill="#C05917"></circle><circle cx="98.3" cy="506.6" r="1.8" fill="#C05917"></circle><circle cx="121.6" cy="506.6" r="1.8" fill="#C05917"></circle><circle cx="144.9" cy="506.2" r="1.8" fill="#C05917"></circle><circle cx="168.2" cy="506.3" r="1.8" fill="#C05917"></circle><circle cx="191.4" cy="506.1" r="1.8" fill="#C05917"></circle><circle cx="214.7" cy="505.9" r="1.8" fill="#C05917"></circle><circle cx="238" cy="505.9" r="1.8" fill="#C05917"></circle><circle cx="261.3" cy="506" r="1.8" fill="#C05917"></circle><circle cx="284.6" cy="506.8" r="1.8" fill="#C05917"></circle><circle cx="307.8" cy="506.8" r="1.8" fill="#C05917"></circle><circle cx="331.1" cy="507.9" r="1.8" fill="#C05917"></circle><circle cx="354.4" cy="507.5" r="1.8" fill="#C05917"></circle><circle cx="377.7" cy="507.2" r="1.8" fill="#C05917"></circle><circle cx="401" cy="506.5" r="1.8" fill="#C05917"></circle><circle cx="424.2" cy="505.9" r="1.8" fill="#C05917"></circle><circle cx="447.5" cy="505.4" r="1.8" fill="#C05917"></circle><circle cx="470.8" cy="505.4" r="1.8" fill="#C05917"></circle><circle cx="494.1" cy="505.3" r="1.8" fill="#C05917"></circle><circle cx="517.4" cy="504.9" r="1.8" fill="#C05917"></circle><circle cx="540.6" cy="504.5" r="1.8" fill="#C05917"></circle><circle cx="563.9" cy="505" r="1.8" fill="#C05917"></circle><circle cx="587.2" cy="505.3" r="1.8" fill="#C05917"></circle><circle cx="610.5" cy="505.4" r="1.8" fill="#C05917"></circle><circle cx="633.8" cy="505.5" r="1.8" fill="#C05917"></circle><circle cx="657" cy="505.8" r="1.8" fill="#C05917"></circle><circle cx="680.3" cy="505.8" r="1.8" fill="#C05917"></circle><circle cx="703.6" cy="505.5" r="1.8" fill="#C05917"></circle></g></g><g><path fill="none" stroke-linecap="butt" stroke-linejoin="round" stroke="#fff" stroke-width="2.5" d="M51.8 469.9L75 469.7L98.3 469L121.6 468.9L144.9 469L168.2 468.3L191.4 467.9L214.7 468.7L238 467.1L261.3 466.7L284.6 466.6L307.8 465.6L331.1 465.5L354.4 465.4L377.7 465.6L401 464.7L424.2 464.5L447.5 464L470.8 463.2L494.1 463.4L517.4 466.3L540.6 467.1L563.9 465.6L587.2 465.4L610.5 464.5L633.8 464.7L657 463.7L680.3 463.4L703.6 462.7"></path><polyline points="51.80,469.90 75.00,469.70 98.30,469.00 121.60,468.90 144.90,469.00 168.20,468.30 191.40,467.90 214.70,468.70 238.00,467.10 261.30,466.70 284.60,466.60 307.80,465.60 331.10,465.50 354.40,465.40 377.70,465.60 401.00,464.70 424.20,464.50 447.50,464.00 470.80,463.20 494.10,463.40 517.40,466.30 540.60,467.10 563.90,465.60 587.20,465.40 610.50,464.50 633.80,464.70 657.00,463.70 680.30,463.40 703.60,462.70" stroke-linejoin="round" stroke-width="1.5" stroke="#4C6A9C" fill="none" stroke-linecap="butt"></polyline><g><circle cx="51.8" cy="469.9" r="1.8" fill="#4C6A9C"></circle><circle cx="75" cy="469.7" r="1.8" fill="#4C6A9C"></circle><circle cx="98.3" cy="469" r="1.8" fill="#4C6A9C"></circle><circle cx="121.6" cy="468.9" r="1.8" fill="#4C6A9C"></circle><circle cx="144.9" cy="469" r="1.8" fill="#4C6A9C"></circle><circle cx="168.2" cy="468.3" r="1.8" fill="#4C6A9C"></circle><circle cx="191.4" cy="467.9" r="1.8" fill="#4C6A9C"></circle><circle cx="214.7" cy="468.7" r="1.8" fill="#4C6A9C"></circle><circle cx="238" cy="467.1" r="1.8" fill="#4C6A9C"></circle><circle cx="261.3" cy="466.7" r="1.8" fill="#4C6A9C"></circle><circle cx="284.6" cy="466.6" r="1.8" fill="#4C6A9C"></circle><circle cx="307.8" cy="465.6" r="1.8" fill="#4C6A9C"></circle><circle cx="331.1" cy="465.5" r="1.8" fill="#4C6A9C"></circle><circle cx="354.4" cy="465.4" r="1.8" fill="#4C6A9C"></circle><circle cx="377.7" cy="465.6" r="1.8" fill="#4C6A9C"></circle><circle cx="401" cy="464.7" r="1.8" fill="#4C6A9C"></circle><circle cx="424.2" cy="464.5" r="1.8" fill="#4C6A9C"></circle><circle cx="447.5" cy="464" r="1.8" fill="#4C6A9C"></circle><circle cx="470.8" cy="463.2" r="1.8" fill="#4C6A9C"></circle><circle cx="494.1" cy="463.4" r="1.8" fill="#4C6A9C"></circle><circle cx="517.4" cy="466.3" r="1.8" fill="#4C6A9C"></circle><circle cx="540.6" cy="467.1" r="1.8" fill="#4C6A9C"></circle><circle cx="563.9" cy="465.6" r="1.8" fill="#4C6A9C"></circle><circle cx="587.2" cy="465.4" r="1.8" fill="#4C6A9C"></circle><circle cx="610.5" cy="464.5" r="1.8" fill="#4C6A9C"></circle><circle cx="633.8" cy="464.7" r="1.8" fill="#4C6A9C"></circle><circle cx="657" cy="463.7" r="1.8" fill="#4C6A9C"></circle><circle cx="680.3" cy="463.4" r="1.8" fill="#4C6A9C"></circle><circle cx="703.6" cy="462.7" r="1.8" fill="#4C6A9C"></circle></g></g><g><path fill="none" stroke-linecap="butt" stroke-linejoin="round" stroke="#fff" stroke-width="2.5" d="M51.8 504.2L75 504.4L98.3 504.6L121.6 504.5L144.9 504.7L168.2 505.2L191.4 504.9L214.7 504.8L238 503.7L261.3 504.1L284.6 504.5L307.8 504.9L331.1 505.3L354.4 504.9L377.7 505.5L401 504.3L424.2 505L447.5 506.1L470.8 506.2L494.1 507.4L517.4 506.3L540.6 506.2L563.9 506.2L587.2 506.2L610.5 506.4L633.8 506.9L657 506.1L680.3 506L703.6 506.5"></path><polyline points="51.80,504.20 75.00,504.40 98.30,504.60 121.60,504.50 144.90,504.70 168.20,505.20 191.40,504.90 214.70,504.80 238.00,503.70 261.30,504.10 284.60,504.50 307.80,504.90 331.10,505.30 354.40,504.90 377.70,505.50 401.00,504.30 424.20,505.00 447.50,506.10 470.80,506.20 494.10,507.40 517.40,506.30 540.60,506.20 563.90,506.20 587.20,506.20 610.50,506.40 633.80,506.90 657.00,506.10 680.30,506.00 703.60,506.50" stroke-linejoin="round" stroke-width="1.5" stroke="#00823F" fill="none" stroke-linecap="butt"></polyline><g><circle cx="51.8" cy="504.2" r="1.8" fill="#00823F"></circle><circle cx="75" cy="504.4" r="1.8" fill="#00823F"></circle><circle cx="98.3" cy="504.6" r="1.8" fill="#00823F"></circle><circle cx="121.6" cy="504.5" r="1.8" fill="#00823F"></circle><circle cx="144.9" cy="504.7" r="1.8" fill="#00823F"></circle><circle cx="168.2" cy="505.2" r="1.8" fill="#00823F"></circle><circle cx="191.4" cy="504.9" r="1.8" fill="#00823F"></circle><circle cx="214.7" cy="504.8" r="1.8" fill="#00823F"></circle><circle cx="238" cy="503.7" r="1.8" fill="#00823F"></circle><circle cx="261.3" cy="504.1" r="1.8" fill="#00823F"></circle><circle cx="284.6" cy="504.5" r="1.8" fill="#00823F"></circle><circle cx="307.8" cy="504.9" r="1.8" fill="#00823F"></circle><circle cx="331.1" cy="505.3" r="1.8" fill="#00823F"></circle><circle cx="354.4" cy="504.9" r="1.8" fill="#00823F"></circle><circle cx="377.7" cy="505.5" r="1.8" fill="#00823F"></circle><circle cx="401" cy="504.3" r="1.8" fill="#00823F"></circle><circle cx="424.2" cy="505" r="1.8" fill="#00823F"></circle><circle cx="447.5" cy="506.1" r="1.8" fill="#00823F"></circle><circle cx="470.8" cy="506.2" r="1.8" fill="#00823F"></circle><circle cx="494.1" cy="507.4" r="1.8" fill="#00823F"></circle><circle cx="517.4" cy="506.3" r="1.8" fill="#00823F"></circle><circle cx="540.6" cy="506.2" r="1.8" fill="#00823F"></circle><circle cx="563.9" cy="506.2" r="1.8" fill="#00823F"></circle><circle cx="587.2" cy="506.2" r="1.8" fill="#00823F"></circle><circle cx="610.5" cy="506.4" r="1.8" fill="#00823F"></circle><circle cx="633.8" cy="506.9" r="1.8" fill="#00823F"></circle><circle cx="657" cy="506.1" r="1.8" fill="#00823F"></circle><circle cx="680.3" cy="506" r="1.8" fill="#00823F"></circle><circle cx="703.6" cy="506.5" r="1.8" fill="#00823F"></circle></g></g><g><path fill="none" stroke-linecap="butt" stroke-linejoin="round" stroke="#fff" stroke-width="2.5" d="M51.8 475.6L75 476.9L98.3 479.5L121.6 479.6L144.9 481.6L168.2 483.3L191.4 481.3L214.7 481.7L238 481.7L261.3 482.7L284.6 483L307.8 485.2L331.1 482.7L354.4 486.3L377.7 487.5L401 487.4L424.2 488.6L447.5 487.9L470.8 487.6L494.1 487.5L517.4 488.6L540.6 489.2L563.9 489L587.2 491.1L610.5 491L633.8 494.1L657 496.3L680.3 493.2L703.6 494.5"></path><polyline points="51.80,475.60 75.00,476.90 98.30,479.50 121.60,479.60 144.90,481.60 168.20,483.30 191.40,481.30 214.70,481.70 238.00,481.70 261.30,482.70 284.60,483.00 307.80,485.20 331.10,482.70 354.40,486.30 377.70,487.50 401.00,487.40 424.20,488.60 447.50,487.90 470.80,487.60 494.10,487.50 517.40,488.60 540.60,489.20 563.90,489.00 587.20,491.10 610.50,491.00 633.80,494.10 657.00,496.30 680.30,493.20 703.60,494.50" stroke-linejoin="round" stroke-width="1.5" stroke="#883039" fill="none" stroke-linecap="butt"></polyline><g><circle cx="51.8" cy="475.6" r="1.8" fill="#883039"></circle><circle cx="75" cy="476.9" r="1.8" fill="#883039"></circle><circle cx="98.3" cy="479.5" r="1.8" fill="#883039"></circle><circle cx="121.6" cy="479.6" r="1.8" fill="#883039"></circle><circle cx="144.9" cy="481.6" r="1.8" fill="#883039"></circle><circle cx="168.2" cy="483.3" r="1.8" fill="#883039"></circle><circle cx="191.4" cy="481.3" r="1.8" fill="#883039"></circle><circle cx="214.7" cy="481.7" r="1.8" fill="#883039"></circle><circle cx="238" cy="481.7" r="1.8" fill="#883039"></circle><circle cx="261.3" cy="482.7" r="1.8" fill="#883039"></circle><circle cx="284.6" cy="483" r="1.8" fill="#883039"></circle><circle cx="307.8" cy="485.2" r="1.8" fill="#883039"></circle><circle cx="331.1" cy="482.7" r="1.8" fill="#883039"></circle><circle cx="354.4" cy="486.3" r="1.8" fill="#883039"></circle><circle cx="377.7" cy="487.5" r="1.8" fill="#883039"></circle><circle cx="401" cy="487.4" r="1.8" fill="#883039"></circle><circle cx="424.2" cy="488.6" r="1.8" fill="#883039"></circle><circle cx="447.5" cy="487.9" r="1.8" fill="#883039"></circle><circle cx="470.8" cy="487.6" r="1.8" fill="#883039"></circle><circle cx="494.1" cy="487.5" r="1.8" fill="#883039"></circle><circle cx="517.4" cy="488.6" r="1.8" fill="#883039"></circle><circle cx="540.6" cy="489.2" r="1.8" fill="#883039"></circle><circle cx="563.9" cy="489" r="1.8" fill="#883039"></circle><circle cx="587.2" cy="491.1" r="1.8" fill="#883039"></circle><circle cx="610.5" cy="491" r="1.8" fill="#883039"></circle><circle cx="633.8" cy="494.1" r="1.8" fill="#883039"></circle><circle cx="657" cy="496.3" r="1.8" fill="#883039"></circle><circle cx="680.3" cy="493.2" r="1.8" fill="#883039"></circle><circle cx="703.6" cy="494.5" r="1.8" fill="#883039"></circle></g></g><g><path fill="none" stroke-linecap="butt" stroke-linejoin="round" stroke="#fff" stroke-width="2.5" d="M51.8 442.8L75 441.8L98.3 441.7L121.6 441.8L144.9 440.7L168.2 440.9L191.4 447.1L214.7 445.7L238 443.1L261.3 444.2L284.6 445.5L307.8 441.7L331.1 436.6L354.4 433.7L377.7 429.4L401 430.7L424.2 433.6L447.5 426.8L470.8 432.2L494.1 435.3L517.4 425.4L540.6 426.8L563.9 427.3L587.2 428.2L610.5 425L633.8 427.5L657 425.7L680.3 421.6L703.6 425.5"></path><polyline points="51.80,442.80 75.00,441.80 98.30,441.70 121.60,441.80 144.90,440.70 168.20,440.90 191.40,447.10 214.70,445.70 238.00,443.10 261.30,444.20 284.60,445.50 307.80,441.70 331.10,436.60 354.40,433.70 377.70,429.40 401.00,430.70 424.20,433.60 447.50,426.80 470.80,432.20 494.10,435.30 517.40,425.40 540.60,426.80 563.90,427.30 587.20,428.20 610.50,425.00 633.80,427.50 657.00,425.70 680.30,421.60 703.60,425.50" stroke-linejoin="round" stroke-width="1.5" stroke="#CF0A66" fill="none" stroke-linecap="butt"></polyline><g><circle cx="51.8" cy="442.8" r="1.8" fill="#CF0A66"></circle><circle cx="75" cy="441.8" r="1.8" fill="#CF0A66"></circle><circle cx="98.3" cy="441.7" r="1.8" fill="#CF0A66"></circle><circle cx="121.6" cy="441.8" r="1.8" fill="#CF0A66"></circle><circle cx="144.9" cy="440.7" r="1.8" fill="#CF0A66"></circle><circle cx="168.2" cy="440.9" r="1.8" fill="#CF0A66"></circle><circle cx="191.4" cy="447.1" r="1.8" fill="#CF0A66"></circle><circle cx="214.7" cy="445.7" r="1.8" fill="#CF0A66"></circle><circle cx="238" cy="443.1" r="1.8" fill="#CF0A66"></circle><circle cx="261.3" cy="444.2" r="1.8" fill="#CF0A66"></circle><circle cx="284.6" cy="445.5" r="1.8" fill="#CF0A66"></circle><circle cx="307.8" cy="441.7" r="1.8" fill="#CF0A66"></circle><circle cx="331.1" cy="436.6" r="1.8" fill="#CF0A66"></circle><circle cx="354.4" cy="433.7" r="1.8" fill="#CF0A66"></circle><circle cx="377.7" cy="429.4" r="1.8" fill="#CF0A66"></circle><circle cx="401" cy="430.7" r="1.8" fill="#CF0A66"></circle><circle cx="424.2" cy="433.6" r="1.8" fill="#CF0A66"></circle><circle cx="447.5" cy="426.8" r="1.8" fill="#CF0A66"></circle><circle cx="470.8" cy="432.2" r="1.8" fill="#CF0A66"></circle><circle cx="494.1" cy="435.3" r="1.8" fill="#CF0A66"></circle><circle cx="517.4" cy="425.4" r="1.8" fill="#CF0A66"></circle><circle cx="540.6" cy="426.8" r="1.8" fill="#CF0A66"></circle><circle cx="563.9" cy="427.3" r="1.8" fill="#CF0A66"></circle><circle cx="587.2" cy="428.2" r="1.8" fill="#CF0A66"></circle><circle cx="610.5" cy="425" r="1.8" fill="#CF0A66"></circle><circle cx="633.8" cy="427.5" r="1.8" fill="#CF0A66"></circle><circle cx="657" cy="425.7" r="1.8" fill="#CF0A66"></circle><circle cx="680.3" cy="421.6" r="1.8" fill="#CF0A66"></circle><circle cx="703.6" cy="425.5" r="1.8" fill="#CF0A66"></circle></g></g><g><path fill="none" stroke-linecap="butt" stroke-linejoin="round" stroke="#fff" stroke-width="2.5" d="M51.8 445.2L75 446.1L98.3 444.5L121.6 444.9L144.9 443.2L168.2 445.3L191.4 443.8L214.7 445.1L238 446L261.3 447.7L284.6 450L307.8 451.3L331.1 452L354.4 450.1L377.7 450.1L401 452L424.2 451.3L447.5 450.8L470.8 452.8L494.1 454.8L517.4 454.9L540.6 453.4L563.9 454.3L587.2 454L610.5 454.8L633.8 455.7L657 454.2L680.3 454.7L703.6 455.2"></path><polyline points="51.80,445.20 75.00,446.10 98.30,444.50 121.60,444.90 144.90,443.20 168.20,445.30 191.40,443.80 214.70,445.10 238.00,446.00 261.30,447.70 284.60,450.00 307.80,451.30 331.10,452.00 354.40,450.10 377.70,450.10 401.00,452.00 424.20,451.30 447.50,450.80 470.80,452.80 494.10,454.80 517.40,454.90 540.60,453.40 563.90,454.30 587.20,454.00 610.50,454.80 633.80,455.70 657.00,454.20 680.30,454.70 703.60,455.20" stroke-linejoin="round" stroke-width="1.5" stroke="#6D3E91" fill="none" stroke-linecap="butt"></polyline><g><circle cx="51.8" cy="445.2" r="1.8" fill="#6D3E91"></circle><circle cx="75" cy="446.1" r="1.8" fill="#6D3E91"></circle><circle cx="98.3" cy="444.5" r="1.8" fill="#6D3E91"></circle><circle cx="121.6" cy="444.9" r="1.8" fill="#6D3E91"></circle><circle cx="144.9" cy="443.2" r="1.8" fill="#6D3E91"></circle><circle cx="168.2" cy="445.3" r="1.8" fill="#6D3E91"></circle><circle cx="191.4" cy="443.8" r="1.8" fill="#6D3E91"></circle><circle cx="214.7" cy="445.1" r="1.8" fill="#6D3E91"></circle><circle cx="238" cy="446" r="1.8" fill="#6D3E91"></circle><circle cx="261.3" cy="447.7" r="1.8" fill="#6D3E91"></circle><circle cx="284.6" cy="450" r="1.8" fill="#6D3E91"></circle><circle cx="307.8" cy="451.3" r="1.8" fill="#6D3E91"></circle><circle cx="331.1" cy="452" r="1.8" fill="#6D3E91"></circle><circle cx="354.4" cy="450.1" r="1.8" fill="#6D3E91"></circle><circle cx="377.7" cy="450.1" r="1.8" fill="#6D3E91"></circle><circle cx="401" cy="452" r="1.8" fill="#6D3E91"></circle><circle cx="424.2" cy="451.3" r="1.8" fill="#6D3E91"></circle><circle cx="447.5" cy="450.8" r="1.8" fill="#6D3E91"></circle><circle cx="470.8" cy="452.8" r="1.8" fill="#6D3E91"></circle><circle cx="494.1" cy="454.8" r="1.8" fill="#6D3E91"></circle><circle cx="517.4" cy="454.9" r="1.8" fill="#6D3E91"></circle><circle cx="540.6" cy="453.4" r="1.8" fill="#6D3E91"></circle><circle cx="563.9" cy="454.3" r="1.8" fill="#6D3E91"></circle><circle cx="587.2" cy="454" r="1.8" fill="#6D3E91"></circle><circle cx="610.5" cy="454.8" r="1.8" fill="#6D3E91"></circle><circle cx="633.8" cy="455.7" r="1.8" fill="#6D3E91"></circle><circle cx="657" cy="454.2" r="1.8" fill="#6D3E91"></circle><circle cx="680.3" cy="454.7" r="1.8" fill="#6D3E91"></circle><circle cx="703.6" cy="455.2" r="1.8" fill="#6D3E91"></circle></g></g><g><path fill="none" stroke-linecap="butt" stroke-linejoin="round" stroke="#fff" stroke-width="2.5" d="M51.8 474.9L75 475L98.3 475.2L121.6 475.3L144.9 475.5L168.2 475.6L191.4 475.8L214.7 475.9L238 476.1L261.3 476.3L284.6 476.5L307.8 476.6L331.1 476.8L354.4 477L377.7 477.3L401 477.6L424.2 478L447.5 478.5L470.8 479L494.1 479.6L517.4 480L540.6 480.4L563.9 480.8L587.2 481.1L610.5 481.4L633.8 481.7L657 482L680.3 482.3L703.6 482.6"></path><polyline points="51.80,474.90 75.00,475.00 98.30,475.20 121.60,475.30 144.90,475.50 168.20,475.60 191.40,475.80 214.70,475.90 238.00,476.10 261.30,476.30 284.60,476.50 307.80,476.60 331.10,476.80 354.40,477.00 377.70,477.30 401.00,477.60 424.20,478.00 447.50,478.50 470.80,479.00 494.10,479.60 517.40,480.00 540.60,480.40 563.90,480.80 587.20,481.10 610.50,481.40 633.80,481.70 657.00,482.00 680.30,482.30 703.60,482.60" stroke-linejoin="round" stroke-width="1.5" stroke="#00847E" fill="none" stroke-linecap="butt"></polyline><g><circle cx="51.8" cy="474.9" r="1.8" fill="#00847E"></circle><circle cx="75" cy="475" r="1.8" fill="#00847E"></circle><circle cx="98.3" cy="475.2" r="1.8" fill="#00847E"></circle><circle cx="121.6" cy="475.3" r="1.8" fill="#00847E"></circle><circle cx="144.9" cy="475.5" r="1.8" fill="#00847E"></circle><circle cx="168.2" cy="475.6" r="1.8" fill="#00847E"></circle><circle cx="191.4" cy="475.8" r="1.8" fill="#00847E"></circle><circle cx="214.7" cy="475.9" r="1.8" fill="#00847E"></circle><circle cx="238" cy="476.1" r="1.8" fill="#00847E"></circle><circle cx="261.3" cy="476.3" r="1.8" fill="#00847E"></circle><circle cx="284.6" cy="476.5" r="1.8" fill="#00847E"></circle><circle cx="307.8" cy="476.6" r="1.8" fill="#00847E"></circle><circle cx="331.1" cy="476.8" r="1.8" fill="#00847E"></circle><circle cx="354.4" cy="477" r="1.8" fill="#00847E"></circle><circle cx="377.7" cy="477.3" r="1.8" fill="#00847E"></circle><circle cx="401" cy="477.6" r="1.8" fill="#00847E"></circle><circle cx="424.2" cy="478" r="1.8" fill="#00847E"></circle><circle cx="447.5" cy="478.5" r="1.8" fill="#00847E"></circle><circle cx="470.8" cy="479" r="1.8" fill="#00847E"></circle><circle cx="494.1" cy="479.6" r="1.8" fill="#00847E"></circle><circle cx="517.4" cy="480" r="1.8" fill="#00847E"></circle><circle cx="540.6" cy="480.4" r="1.8" fill="#00847E"></circle><circle cx="563.9" cy="480.8" r="1.8" fill="#00847E"></circle><circle cx="587.2" cy="481.1" r="1.8" fill="#00847E"></circle><circle cx="610.5" cy="481.4" r="1.8" fill="#00847E"></circle><circle cx="633.8" cy="481.7" r="1.8" fill="#00847E"></circle><circle cx="657" cy="482" r="1.8" fill="#00847E"></circle><circle cx="680.3" cy="482.3" r="1.8" fill="#00847E"></circle><circle cx="703.6" cy="482.6" r="1.8" fill="#00847E"></circle></g></g><g><path fill="none" stroke-linecap="butt" stroke-linejoin="round" stroke="#fff" stroke-width="2.5" d="M51.8 482.5L75 483.4L98.3 484.2L121.6 485.2L144.9 485.3L168.2 485L191.4 485L214.7 486.1L238 485.9L261.3 485.9L284.6 486.7L307.8 486.9L331.1 486.6L354.4 487.2L377.7 486.5L401 486.8L424.2 486.8L447.5 486.3L470.8 486.9L494.1 487.3L517.4 487.1L540.6 486.1L563.9 486.4L587.2 487.3L610.5 487.2L633.8 487.6L657 487.6L680.3 487.3L703.6 487.9"></path><polyline points="51.80,482.50 75.00,483.40 98.30,484.20 121.60,485.20 144.90,485.30 168.20,485.00 191.40,485.00 214.70,486.10 238.00,485.90 261.30,485.90 284.60,486.70 307.80,486.90 331.10,486.60 354.40,487.20 377.70,486.50 401.00,486.80 424.20,486.80 447.50,486.30 470.80,486.90 494.10,487.30 517.40,487.10 540.60,486.10 563.90,486.40 587.20,487.30 610.50,487.20 633.80,487.60 657.00,487.60 680.30,487.30 703.60,487.90" stroke-linejoin="round" stroke-width="1.5" stroke="#B13507" fill="none" stroke-linecap="butt"></polyline><g><circle cx="51.8" cy="482.5" r="1.8" fill="#B13507"></circle><circle cx="75" cy="483.4" r="1.8" fill="#B13507"></circle><circle cx="98.3" cy="484.2" r="1.8" fill="#B13507"></circle><circle cx="121.6" cy="485.2" r="1.8" fill="#B13507"></circle><circle cx="144.9" cy="485.3" r="1.8" fill="#B13507"></circle><circle cx="168.2" cy="485" r="1.8" fill="#B13507"></circle><circle cx="191.4" cy="485" r="1.8" fill="#B13507"></circle><circle cx="214.7" cy="486.1" r="1.8" fill="#B13507"></circle><circle cx="238" cy="485.9" r="1.8" fill="#B13507"></circle><circle cx="261.3" cy="485.9" r="1.8" fill="#B13507"></circle><circle cx="284.6" cy="486.7" r="1.8" fill="#B13507"></circle><circle cx="307.8" cy="486.9" r="1.8" fill="#B13507"></circle><circle cx="331.1" cy="486.6" r="1.8" fill="#B13507"></circle><circle cx="354.4" cy="487.2" r="1.8" fill="#B13507"></circle><circle cx="377.7" cy="486.5" r="1.8" fill="#B13507"></circle><circle cx="401" cy="486.8" r="1.8" fill="#B13507"></circle><circle cx="424.2" cy="486.8" r="1.8" fill="#B13507"></circle><circle cx="447.5" cy="486.3" r="1.8" fill="#B13507"></circle><circle cx="470.8" cy="486.9" r="1.8" fill="#B13507"></circle><circle cx="494.1" cy="487.3" r="1.8" fill="#B13507"></circle><circle cx="517.4" cy="487.1" r="1.8" fill="#B13507"></circle><circle cx="540.6" cy="486.1" r="1.8" fill="#B13507"></circle><circle cx="563.9" cy="486.4" r="1.8" fill="#B13507"></circle><circle cx="587.2" cy="487.3" r="1.8" fill="#B13507"></circle><circle cx="610.5" cy="487.2" r="1.8" fill="#B13507"></circle><circle cx="633.8" cy="487.6" r="1.8" fill="#B13507"></circle><circle cx="657" cy="487.6" r="1.8" fill="#B13507"></circle><circle cx="680.3" cy="487.3" r="1.8" fill="#B13507"></circle><circle cx="703.6" cy="487.9" r="1.8" fill="#B13507"></circle></g></g><g><path fill="none" stroke-linecap="butt" stroke-linejoin="round" stroke="#fff" stroke-width="2.5" d="M51.8 212.9L75 198.8L98.3 165.9L121.6 137.5L144.9 110L168.2 104.4L191.4 93.3L214.7 96.1L238 92.2L261.3 104.6L284.6 98.1L307.8 157.1L331.1 148.2L354.4 154.3L377.7 163.9L401 164.9L424.2 202.9L447.5 199.2L470.8 219.2L494.1 226.6L517.4 254.6L540.6 263.3L563.9 249.5L587.2 263.3L610.5 264.8L633.8 266.6L657 261.9L680.3 277.5L703.6 263.1"></path><polyline points="51.80,212.90 75.00,198.80 98.30,165.90 121.60,137.50 144.90,110.00 168.20,104.40 191.40,93.30 214.70,96.10 238.00,92.20 261.30,104.60 284.60,98.10 307.80,157.10 331.10,148.20 354.40,154.30 377.70,163.90 401.00,164.90 424.20,202.90 447.50,199.20 470.80,219.20 494.10,226.60 517.40,254.60 540.60,263.30 563.90,249.50 587.20,263.30 610.50,264.80 633.80,266.60 657.00,261.90 680.30,277.50 703.60,263.10" stroke-linejoin="round" stroke-width="1.5" stroke="#3C4E66" fill="none" stroke-linecap="butt"></polyline><g><circle cx="51.8" cy="212.9" r="1.8" fill="#3C4E66"></circle><circle cx="75" cy="198.8" r="1.8" fill="#3C4E66"></circle><circle cx="98.3" cy="165.9" r="1.8" fill="#3C4E66"></circle><circle cx="121.6" cy="137.5" r="1.8" fill="#3C4E66"></circle><circle cx="144.9" cy="110" r="1.8" fill="#3C4E66"></circle><circle cx="168.2" cy="104.4" r="1.8" fill="#3C4E66"></circle><circle cx="191.4" cy="93.3" r="1.8" fill="#3C4E66"></circle><circle cx="214.7" cy="96.1" r="1.8" fill="#3C4E66"></circle><circle cx="238" cy="92.2" r="1.8" fill="#3C4E66"></circle><circle cx="261.3" cy="104.6" r="1.8" fill="#3C4E66"></circle><circle cx="284.6" cy="98.1" r="1.8" fill="#3C4E66"></circle><circle cx="307.8" cy="157.1" r="1.8" fill="#3C4E66"></circle><circle cx="331.1" cy="148.2" r="1.8" fill="#3C4E66"></circle><circle cx="354.4" cy="154.3" r="1.8" fill="#3C4E66"></circle><circle cx="377.7" cy="163.9" r="1.8" fill="#3C4E66"></circle><circle cx="401" cy="164.9" r="1.8" fill="#3C4E66"></circle><circle cx="424.2" cy="202.9" r="1.8" fill="#3C4E66"></circle><circle cx="447.5" cy="199.2" r="1.8" fill="#3C4E66"></circle><circle cx="470.8" cy="219.2" r="1.8" fill="#3C4E66"></circle><circle cx="494.1" cy="226.6" r="1.8" fill="#3C4E66"></circle><circle cx="517.4" cy="254.6" r="1.8" fill="#3C4E66"></circle><circle cx="540.6" cy="263.3" r="1.8" fill="#3C4E66"></circle><circle cx="563.9" cy="249.5" r="1.8" fill="#3C4E66"></circle><circle cx="587.2" cy="263.3" r="1.8" fill="#3C4E66"></circle><circle cx="610.5" cy="264.8" r="1.8" fill="#3C4E66"></circle><circle cx="633.8" cy="266.6" r="1.8" fill="#3C4E66"></circle><circle cx="657" cy="261.9" r="1.8" fill="#3C4E66"></circle><circle cx="680.3" cy="277.5" r="1.8" fill="#3C4E66"></circle><circle cx="703.6" cy="263.1" r="1.8" fill="#3C4E66"></circle></g></g></g></g></g><g class="SourcesFooter" style="fill:#777"><g style="fill:#777"><text font-size="12.60" x="15.0" y="582.5"><tspan x="15" y="582.48">Source: Nitrous oxide emissions by sector (CAIT)</tspan></text></g><text font-size="12.60" x="431.9" y="582.5"><tspan x="431.926" y="582.48"><a target='_blank' style='fill: #777;' href='https://ourworldindata.org/co2-and-other-greenhouse-gas-emissions'>OurWorldInData.org/co2-and-other-greenhouse-gas-emissions</a> • <a style="fill: #777;" class="cclogo" href="http://creativecommons.org/licenses/by/4.0/deed.en_US" target="_blank">CC BY</a></tspan></text></g></svg>