<svg xmlns="http://www.w3.org/2000/svg" version="1.1" style="font-family:Lato, &#x27;Helvetica Neue&#x27;, Helvetica, Arial, &#x27;Liberation Sans&#x27;, sans-serif;font-size:18px;background-color:white;text-rendering:geometricPrecision;-webkit-font-smoothing:antialiased" width="850" height="600" viewBox="0 0 850 600"><defs><style>@import url(http://localhost:3030/fonts.css)</style></defs><defs><pattern id="noDataPattern" patternUnits="userSpaceOnUse" width="4" height="4" patternTransform="rotate(-45 2 2)"><path d="M -1,2 l 6,0" stroke="#ccc" stroke-width="0.7"></path></pattern></defs><rect class="background-fill" fill="white" width="850" height="600"></rect><g class="HeaderView"><g transform="translate(769, 16) scale(1)"><svg className="owidLogo" xmlns="http://www.w3.org/2000/svg" width="65" height="36" viewBox="0 0 65 36"  fill="none"><path fill="#002147" d="M0 0h64.8v36H0z"/><path fill="#CE261E" d="M0 33.3h64.8V36H0z"/><path fill="#fff" d="M13.796 10.575c0 .636-.106 1.226-.318 1.77a4.193 4.193 0 0 1-.894 1.404 4.084 4.084 0 0 1-1.386.93c-.54.22-1.138.33-1.794.33-.656 0-1.256-.11-1.8-.33a4.149 4.149 0 0 1-1.392-.93 4.193 4.193 0 0 1-.894-1.404A4.833 4.833 0 0 1 5 10.575c0-.636.106-1.224.318-1.764a4.18 4.18 0 0 1 .894-1.41 4.076 4.076 0 0 1 1.392-.924 4.684 4.684 0 0 1 1.8-.336c.656 0 1.254.112 1.794.336.54.224 1.002.534 1.386.93.384.392.682.86.894 1.404.212.54.318 1.128.318 1.764Zm-1.656 0c0-.476-.064-.902-.192-1.278a2.671 2.671 0 0 0-.54-.966 2.332 2.332 0 0 0-.864-.606 2.94 2.94 0 0 0-1.14-.21c-.424 0-.806.07-1.146.21-.34.14-.63.342-.87.606a2.742 2.742 0 0 0-.546.966 3.955 3.955 0 0 0-.192 1.278c0 .476.064.904.192 1.284.128.376.31.696.546.96.24.26.53.46.87.6.34.14.722.21 1.146.21.424 0 .804-.07 1.14-.21.34-.14.628-.34.864-.6.236-.264.416-.584.54-.96a4.01 4.01 0 0 0 .192-1.284ZM16.104 8.757v3.912c0 .376.086.668.258.876.176.204.438.306.786.306.256 0 .496-.056.72-.168a2.58 2.58 0 0 0 .636-.474V8.757h1.482v6.156h-.906c-.192 0-.318-.09-.378-.27l-.102-.492a4.65 4.65 0 0 1-.396.354 2.577 2.577 0 0 1-.438.27 2.35 2.35 0 0 1-.498.168 2.345 2.345 0 0 1-.57.066c-.336 0-.634-.056-.894-.168a1.821 1.821 0 0 1-.648-.486 2.157 2.157 0 0 1-.402-.738 3.233 3.233 0 0 1-.132-.948V8.757h1.482ZM21.328 14.913V8.757h.87c.152 0 .258.028.318.084.06.056.1.152.12.288l.09.744c.22-.38.478-.68.774-.9.296-.22.628-.33.996-.33.304 0 .556.07.756.21l-.192 1.11c-.012.072-.038.124-.078.156a.278.278 0 0 1-.162.042 1.01 1.01 0 0 1-.246-.042 1.646 1.646 0 0 0-.414-.042c-.308 0-.572.086-.792.258-.22.168-.406.416-.558.744v3.834h-1.482ZM27.347 6.237h1.356a.57.57 0 0 1 .348.102c.096.064.16.152.192.264l1.476 5.19c.036.128.068.268.096.42.032.148.062.306.09.474a5.968 5.968 0 0 1 .228-.894l1.704-5.19a.575.575 0 0 1 .186-.252.543.543 0 0 1 .348-.114h.474a.57.57 0 0 1 .348.102.497.497 0 0 1 .192.264l1.692 5.19c.088.256.164.54.228.852.028-.156.056-.306.084-.45.032-.144.064-.278.096-.402l1.476-5.19c.028-.1.09-.186.186-.258a.563.563 0 0 1 .348-.108h1.266l-2.694 8.676h-1.458l-1.896-5.928-.078-.246a9.504 9.504 0 0 1-.072-.282c-.024.1-.05.194-.078.282-.024.088-.048.17-.072.246l-1.914 5.928H30.04l-2.694-8.676ZM42.771 8.661c.46 0 .876.074 1.248.222.376.148.696.358.96.63s.468.604.612.996c.144.392.216.83.216 1.314 0 .488-.072.928-.216 1.32a2.85 2.85 0 0 1-.612 1.002 2.653 2.653 0 0 1-.96.636 3.35 3.35 0 0 1-1.248.222c-.46 0-.878-.074-1.254-.222a2.712 2.712 0 0 1-.966-.636 2.922 2.922 0 0 1-.618-1.002 3.807 3.807 0 0 1-.216-1.32c0-.484.072-.922.216-1.314.148-.392.354-.724.618-.996.268-.272.59-.482.966-.63a3.397 3.397 0 0 1 1.254-.222Zm0 5.202c.512 0 .89-.172 1.134-.516.248-.344.372-.848.372-1.512s-.124-1.17-.372-1.518c-.244-.348-.622-.522-1.134-.522-.52 0-.904.176-1.152.528-.248.348-.372.852-.372 1.512s.124 1.164.372 1.512c.248.344.632.516 1.152.516ZM46.723 14.913V8.757h.87c.152 0 .258.028.318.084.06.056.1.152.12.288l.09.744c.22-.38.478-.68.774-.9.296-.22.628-.33.996-.33.304 0 .556.07.756.21l-.192 1.11c-.012.072-.038.124-.078.156a.278.278 0 0 1-.162.042 1.01 1.01 0 0 1-.246-.042 1.646 1.646 0 0 0-.414-.042c-.308 0-.572.086-.792.258-.22.168-.406.416-.558.744v3.834h-1.482ZM52.96 5.997v8.916h-1.482V5.997h1.482ZM58.732 14.913c-.192 0-.318-.09-.378-.27l-.12-.594a3.68 3.68 0 0 1-.402.39c-.14.116-.292.216-.456.3-.16.084-.334.148-.522.192a2.372 2.372 0 0 1-.6.072c-.336 0-.644-.07-.924-.21a2.098 2.098 0 0 1-.726-.606 3.033 3.033 0 0 1-.468-.99 5.072 5.072 0 0 1-.162-1.344c0-.456.062-.88.186-1.272s.302-.732.534-1.02c.232-.288.51-.512.834-.672a2.384 2.384 0 0 1 1.092-.246 2.103 2.103 0 0 1 1.536.606V5.997h1.482v8.916h-.906Zm-1.974-1.086c.308 0 .57-.064.786-.192.216-.128.42-.31.612-.546v-2.76a1.452 1.452 0 0 0-.552-.432 1.597 1.597 0 0 0-.636-.126c-.224 0-.428.042-.612.126a1.21 1.21 0 0 0-.462.384c-.124.168-.22.384-.288.648-.068.26-.102.568-.102.924 0 .36.028.666.084.918.06.248.144.452.252.612.108.156.24.27.396.342.156.068.33.102.522.102ZM16.331 20.757v6.156H14.85v-6.156h1.481Zm.223-1.794a.844.844 0 0 1-.078.36.963.963 0 0 1-.21.294.995.995 0 0 1-.3.204.963.963 0 0 1-.372.072.948.948 0 0 1-.367-.072 1.018 1.018 0 0 1-.498-.498.963.963 0 0 1 0-.732.995.995 0 0 1 .205-.3.929.929 0 0 1 .293-.198.899.899 0 0 1 .738 0 .912.912 0 0 1 .3.198.943.943 0 0 1 .288.672ZM17.771 26.913v-6.156h.906c.192 0 .318.09.378.27l.102.486a2.934 2.934 0 0 1 .828-.618c.156-.076.322-.134.498-.174.176-.04.368-.06.576-.06.336 0 .634.058.894.174.26.112.476.272.648.48.176.204.308.45.396.738.092.284.138.598.138.942v3.918h-1.482v-3.918c0-.376-.088-.666-.264-.87-.172-.208-.432-.312-.78-.312-.256 0-.496.058-.72.174a2.58 2.58 0 0 0-.636.474v4.452h-1.482ZM34.22 22.575c0 .636-.106 1.22-.318 1.752-.212.532-.51.99-.894 1.374a4 4 0 0 1-1.386.894 4.87 4.87 0 0 1-1.794.318h-3.312v-8.676h3.312a4.79 4.79 0 0 1 1.794.324 4 4 0 0 1 1.386.894c.384.38.682.836.894 1.368.212.532.318 1.116.318 1.752Zm-1.65 0c0-.476-.064-.902-.192-1.278a2.68 2.68 0 0 0-.546-.96 2.332 2.332 0 0 0-.864-.606 2.94 2.94 0 0 0-1.14-.21h-1.686v6.108h1.686c.424 0 .804-.07 1.14-.21.34-.14.628-.34.864-.6a2.75 2.75 0 0 0 .546-.96 4.01 4.01 0 0 0 .192-1.284ZM39.98 26.913h-.665c-.14 0-.25-.02-.33-.06-.08-.044-.14-.13-.18-.258l-.132-.438c-.156.14-.31.264-.462.372a2.804 2.804 0 0 1-.462.264c-.16.072-.33.126-.51.162-.18.036-.38.054-.6.054-.26 0-.5-.034-.72-.102a1.618 1.618 0 0 1-.57-.318 1.448 1.448 0 0 1-.366-.522 1.852 1.852 0 0 1-.132-.726c0-.232.06-.46.18-.684.124-.228.328-.432.612-.612.284-.184.662-.336 1.134-.456.472-.12 1.058-.188 1.758-.204v-.36c0-.412-.088-.716-.264-.912-.172-.2-.424-.3-.756-.3a1.837 1.837 0 0 0-1.02.276c-.116.068-.224.13-.324.186a.664.664 0 0 1-.33.084.429.429 0 0 1-.258-.078.614.614 0 0 1-.174-.192l-.27-.474c.708-.648 1.562-.972 2.562-.972.36 0 .68.06.96.18.284.116.524.28.72.492.196.208.344.458.444.75.104.292.156.612.156.96v3.888Zm-2.88-.924c.153 0 .293-.014.42-.042.129-.028.249-.07.36-.126.117-.056.227-.124.33-.204.109-.084.217-.182.325-.294v-1.038c-.432.02-.794.058-1.086.114-.288.052-.52.12-.696.204a.923.923 0 0 0-.378.294.664.664 0 0 0-.108.366c0 .26.076.446.228.558.156.112.358.168.606.168ZM43.22 27.01c-.532 0-.942-.15-1.23-.45-.288-.305-.432-.723-.432-1.255v-3.438h-.624a.31.31 0 0 1-.21-.078c-.056-.052-.084-.13-.084-.234v-.588l.99-.162.312-1.68a.302.302 0 0 1 .108-.186.365.365 0 0 1 .222-.066h.768v1.938h1.62v1.056h-1.62v3.336c0 .192.048.342.144.45a.488.488 0 0 0 .384.162c.092 0 .168-.01.228-.03.064-.024.118-.048.162-.072.048-.024.09-.046.126-.066a.194.194 0 0 1 .108-.036.16.16 0 0 1 .108.036c.028.02.058.052.09.096l.444.72c-.216.18-.464.316-.744.408a2.77 2.77 0 0 1-.87.138ZM50.423 26.913h-.666c-.14 0-.25-.02-.33-.06-.08-.044-.14-.13-.18-.258l-.132-.438c-.156.14-.31.264-.462.372a2.804 2.804 0 0 1-.462.264c-.16.072-.33.126-.51.162-.18.036-.38.054-.6.054-.26 0-.5-.034-.72-.102a1.618 1.618 0 0 1-.57-.318 1.448 1.448 0 0 1-.366-.522 1.852 1.852 0 0 1-.132-.726c0-.232.06-.46.18-.684.124-.228.328-.432.612-.612.284-.184.662-.336 1.134-.456.472-.12 1.058-.188 1.758-.204v-.36c0-.412-.088-.716-.264-.912-.172-.2-.424-.3-.756-.3a1.837 1.837 0 0 0-1.02.276c-.116.068-.224.13-.324.186a.664.664 0 0 1-.33.084.429.429 0 0 1-.258-.078.614.614 0 0 1-.174-.192l-.27-.474c.708-.648 1.562-.972 2.562-.972.36 0 .68.06.96.18.284.116.524.28.72.492.196.208.344.458.444.75.104.292.156.612.156.96v3.888Zm-2.88-.924c.152 0 .292-.014.42-.042.128-.028.248-.07.36-.126.116-.056.226-.124.33-.204.108-.084.216-.182.324-.294v-1.038c-.432.02-.794.058-1.086.114-.288.052-.52.12-.696.204a.923.923 0 0 0-.378.294.664.664 0 0 0-.108.366c0 .26.076.446.228.558.156.112.358.168.606.168Z"/></svg></g><a href="http://localhost:3030/grapher/population-unwpp" style="font-family:&#x27;Playfair Display&#x27;, Georgia, &#x27;Times New Roman&#x27;, &#x27;Liberation Serif&#x27;, serif" target="_blank" rel="noopener"><text font-size="24.75" font-weight="500" x="16.0" y="40.0" fill="#5b5b5b"><tspan x="16" y="40.0075">Population</tspan></text></a></g><g style="pointer-events:none"><g class="LineChart"><defs><clipPath id="boundsClip-1"><rect x="75.665" y="58" width="838" height="503.8"></rect></clipPath></defs><rect x="16" y="68" width="818" height="483.8" fill="none"></rect><g class="DualAxisView"><g class="HorizontalAxis"><line x1="85.7" y1="531.3" x2="85.7" y2="536.3" stroke="#999" stroke-width="1"></line><line x1="717.6" y1="531.3" x2="717.6" y2="536.3" stroke="#999" stroke-width="1"></line><line x1="174.7" y1="531.3" x2="174.7" y2="536.3" stroke="#999" stroke-width="1"></line><line x1="263.7" y1="531.3" x2="263.7" y2="536.3" stroke="#999" stroke-width="1"></line><line x1="352.7" y1="531.3" x2="352.7" y2="536.3" stroke="#999" stroke-width="1"></line><line x1="441.7" y1="531.3" x2="441.7" y2="536.3" stroke="#999" stroke-width="1"></line><line x1="530.7" y1="531.3" x2="530.7" y2="536.3" stroke="#999" stroke-width="1"></line><line x1="619.7" y1="531.3" x2="619.7" y2="536.3" stroke="#999" stroke-width="1"></line><text x="85.665" y="549.8" fill="#5b5b5b" text-anchor="start" font-size="13.5">1950</text><text x="717.595" y="549.8" fill="#5b5b5b" text-anchor="end" font-size="13.5">2021</text><text x="174.7" y="549.8" fill="#5b5b5b" text-anchor="middle" font-size="13.5">1960</text><text x="263.7" y="549.8" fill="#5b5b5b" text-anchor="middle" font-size="13.5">1970</text><text x="352.7" y="549.8" fill="#5b5b5b" text-anchor="middle" font-size="13.5">1980</text><text x="441.7" y="549.8" fill="#5b5b5b" text-anchor="middle" font-size="13.5">1990</text><text x="530.7" y="549.8" fill="#5b5b5b" text-anchor="middle" font-size="13.5">2000</text><text x="619.7" y="549.8" fill="#5b5b5b" text-anchor="middle" font-size="13.5">2010</text></g><g class="VerticalAxis"><text x="80.67" y="531.3" dy=".32em" text-anchor="end" fill="#5b5b5b" font-size="13.5">0</text><text x="80.67" y="467.2" dy=".32em" text-anchor="end" fill="#5b5b5b" font-size="13.5">200 million</text><text x="80.67" y="403" dy=".32em" text-anchor="end" fill="#5b5b5b" font-size="13.5">400 million</text><text x="80.67" y="338.9" dy=".32em" text-anchor="end" fill="#5b5b5b" font-size="13.5">600 million</text><text x="80.67" y="274.7" dy=".32em" text-anchor="end" fill="#5b5b5b" font-size="13.5">800 million</text><text x="80.67" y="210.6" dy=".32em" text-anchor="end" fill="#5b5b5b" font-size="13.5">1 billion</text><text x="80.67" y="146.4" dy=".32em" text-anchor="end" fill="#5b5b5b" font-size="13.5">1.2 billion</text><text x="80.67" y="82.3" dy=".32em" text-anchor="end" fill="#5b5b5b" font-size="13.5">1.4 billion</text></g><g class="AxisGridLines horizontalLines"><line x1="85.67" y1="531.3" x2="717.60" y2="531.3" stroke="#999" stroke-width="1"></line><line x1="85.67" y1="467.2" x2="717.60" y2="467.2" stroke="#ddd" stroke-width="1" stroke-dasharray="3,2"></line><line x1="85.67" y1="403" x2="717.60" y2="403" stroke="#ddd" stroke-width="1" stroke-dasharray="3,2"></line><line x1="85.67" y1="338.9" x2="717.60" y2="338.9" stroke="#ddd" stroke-width="1" stroke-dasharray="3,2"></line><line x1="85.67" y1="274.7" x2="717.60" y2="274.7" stroke="#ddd" stroke-width="1" stroke-dasharray="3,2"></line><line x1="85.67" y1="210.6" x2="717.60" y2="210.6" stroke="#ddd" stroke-width="1" stroke-dasharray="3,2"></line><line x1="85.67" y1="146.4" x2="717.60" y2="146.4" stroke="#ddd" stroke-width="1" stroke-dasharray="3,2"></line><line x1="85.67" y1="82.3" x2="717.60" y2="82.3" stroke="#ddd" stroke-width="1" stroke-dasharray="3,2"></line></g></g><g clip-path="url(#boundsClip-1)"><g class="LineLabels" style="cursor:default"><g class="legendMark"><g class="indicator"><path d="M721.595,74 H739.595 V80.75 H748.595" stroke="#999" stroke-width="0.5" fill="none"></path></g><rect x="717.595" y="74" width="70.37" height="13.5" fill="#fff" opacity="0"></rect><text font-size="13.50" font-weight="400" x="752.6" y="85.7" fill="#c15065"><tspan x="752.595" y="85.745">China</tspan></text></g><g class="legendMark"><g class="indicator"><path d="M721.595,79.9 H730.595 V96.25 H748.595" stroke="#999" stroke-width="0.5" fill="none"></path></g><rect x="717.595" y="89.5" width="64.43" height="13.5" fill="#fff" opacity="0"></rect><text font-size="13.50" font-weight="400" x="752.6" y="101.2" fill="#2c8465"><tspan x="752.595" y="101.245">India</tspan></text></g><g class="legendMark"><g class="indicator"><path d="M721.595,423.2 H735.095 V423.2 H748.595" stroke="#999" stroke-width="0.5" fill="none"></path></g><rect x="717.595" y="416.45" width="116.405" height="13.5" fill="#fff" opacity="0"></rect><text font-size="13.50" font-weight="400" x="752.6" y="428.2" fill="#be5915"><tspan x="752.595" y="428.195">United States</tspan></text></g></g><g class="Lines"><rect x="86" y="74" width="632" height="457" fill="rgba(255,255,255,0)" opacity="0"></rect><g><path stroke-linecap="round" stroke-linejoin="round" stroke="#ddd" d="M85.7 483.7L94.6 483L103.5 482.2L112.4 481.4L121.3 480.6L130.2 479.6L139.1 478.7L148 477.8L156.9 476.7L165.8 475.7L174.7 474.8L183.6 473.9L192.5 473L201.4 472.1L210.3 471.2L219.2 470.5L228.1 469.8L237 469.2L245.9 468.5L254.8 467.8L263.7 467.1L272.6 466.2L281.5 465.5L290.4 464.8L299.3 464.2L308.2 463.5L317.1 462.9L326 462.2L334.9 461.4L343.8 460.6L352.7 459.7L361.6 458.9L370.5 458.2L379.4 457.4L388.3 456.6L397.2 455.9L406.1 455.1L415 454.4L423.9 453.6L432.8 452.7L441.7 451.7L450.6 450.6L459.5 449.5L468.4 448.3L477.3 447.2L486.2 446.1L495.1 445L504 443.9L512.9 442.8L521.8 441.8L530.7 440.7L539.6 439.7L548.5 438.8L557.4 437.9L566.3 437L575.2 436.1L584.1 435.2L593 434.2L601.9 433.3L610.8 432.4L619.7 431.5L628.6 430.6L637.5 429.7L646.4 428.9L655.3 428L664.2 427.2L673.1 426.4L682 425.5L690.9 424.8L699.8 424.1L708.7 423.6L717.6 423.2" fill="none" stroke-width="1"></path></g><g><path stroke-linecap="round" stroke-linejoin="round" stroke="#ddd" d="M85.7 416.8L94.6 414.3L103.5 411.7L112.4 409L121.3 406.3L130.2 403.5L139.1 400.6L148 397.6L156.9 394.6L165.8 391.5L174.7 388.3L183.6 384.9L192.5 381.5L201.4 378L210.3 374.5L219.2 370.9L228.1 367.4L237 363.9L245.9 360.2L254.8 356.4L263.7 352.5L272.6 348.5L281.5 344.4L290.4 340.1L299.3 335.8L308.2 331.3L317.1 326.9L326 322.3L334.9 317.6L343.8 312.8L352.7 307.8L361.6 302.7L370.5 297.4L379.4 292.1L388.3 286.6L397.2 281.1L406.1 275.4L415 269.7L423.9 263.9L432.8 258.1L441.7 252.1L450.6 246.2L459.5 240.2L468.4 234.2L477.3 228.1L486.2 222L495.1 216L504 209.8L512.9 203.7L521.8 197.6L530.7 191.5L539.6 185.3L548.5 179.1L557.4 172.9L566.3 166.9L575.2 161L584.1 155.3L593 149.8L601.9 144.3L610.8 138.9L619.7 133.4L628.6 128L637.5 122.6L646.4 117.2L655.3 112.1L664.2 107L673.1 102L682 97L690.9 92.2L699.8 87.7L708.7 83.5L717.6 79.9" fill="none" stroke-width="1"></path></g><g><path stroke-linecap="round" stroke-linejoin="round" stroke="#ddd" d="M85.7 356.8L94.6 353.7L103.5 350.1L112.4 346.1L121.3 342.1L130.2 337.8L139.1 333.7L148 329.3L156.9 324.8L165.8 322.1L174.7 321.5L183.6 321.2L192.5 318.2L201.4 312L210.3 305.3L219.2 299.2L228.1 293L237 287.2L245.9 281L254.8 274.3L263.7 267.5L272.6 260.8L281.5 254.6L290.4 248.5L299.3 242.9L308.2 237.8L317.1 233.2L326 229L334.9 225L343.8 220.8L352.7 216.2L361.6 211.5L370.5 206.3L379.4 201.2L388.3 196.4L397.2 191.3L406.1 185.6L415 179.5L423.9 173.4L432.8 167.5L441.7 161.3L450.6 155.9L459.5 151.6L468.4 147.8L477.3 144.1L486.2 140.6L495.1 137.4L504 134.3L512.9 131.4L521.8 128.7L530.7 125.9L539.6 123.1L548.5 120.5L557.4 117.9L566.3 115.4L575.2 112.8L584.1 110.2L593 107.5L601.9 104.7L610.8 101.8L619.7 98.9L628.6 96.1L637.5 93L646.4 90L655.3 87.1L664.2 84.3L673.1 81.7L682 79L690.9 76.8L699.8 75.3L708.7 74.3L717.6 74" fill="none" stroke-width="1"></path></g><g><path fill="none" stroke-linecap="butt" stroke-linejoin="round" stroke="#fff" stroke-width="2.5" d="M85.7 483.7L94.6 483L103.5 482.2L112.4 481.4L121.3 480.6L130.2 479.6L139.1 478.7L148 477.8L156.9 476.7L165.8 475.7L174.7 474.8L183.6 473.9L192.5 473L201.4 472.1L210.3 471.2L219.2 470.5L228.1 469.8L237 469.2L245.9 468.5L254.8 467.8L263.7 467.1L272.6 466.2L281.5 465.5L290.4 464.8L299.3 464.2L308.2 463.5L317.1 462.9L326 462.2L334.9 461.4L343.8 460.6L352.7 459.7L361.6 458.9L370.5 458.2L379.4 457.4L388.3 456.6L397.2 455.9L406.1 455.1L415 454.4L423.9 453.6L432.8 452.7L441.7 451.7L450.6 450.6L459.5 449.5L468.4 448.3L477.3 447.2L486.2 446.1L495.1 445L504 443.9L512.9 442.8L521.8 441.8L530.7 440.7L539.6 439.7L548.5 438.8L557.4 437.9L566.3 437L575.2 436.1L584.1 435.2L593 434.2L601.9 433.3L610.8 432.4L619.7 431.5L628.6 430.6L637.5 429.7L646.4 428.9L655.3 428L664.2 427.2L673.1 426.4L682 425.5L690.9 424.8L699.8 424.1L708.7 423.6L717.6 423.2"></path><polyline points="85.70,483.70 94.60,483.00 103.50,482.20 112.40,481.40 121.30,480.60 130.20,479.60 139.10,478.70 148.00,477.80 156.90,476.70 165.80,475.70 174.70,474.80 183.60,473.90 192.50,473.00 201.40,472.10 210.30,471.20 219.20,470.50 228.10,469.80 237.00,469.20 245.90,468.50 254.80,467.80 263.70,467.10 272.60,466.20 281.50,465.50 290.40,464.80 299.30,464.20 308.20,463.50 317.10,462.90 326.00,462.20 334.90,461.40 343.80,460.60 352.70,459.70 361.60,458.90 370.50,458.20 379.40,457.40 388.30,456.60 397.20,455.90 406.10,455.10 415.00,454.40 423.90,453.60 432.80,452.70 441.70,451.70 450.60,450.60 459.50,449.50 468.40,448.30 477.30,447.20 486.20,446.10 495.10,445.00 504.00,443.90 512.90,442.80 521.80,441.80 530.70,440.70 539.60,439.70 548.50,438.80 557.40,437.90 566.30,437.00 575.20,436.10 584.10,435.20 593.00,434.20 601.90,433.30 610.80,432.40 619.70,431.50 628.60,430.60 637.50,429.70 646.40,428.90 655.30,428.00 664.20,427.20 673.10,426.40 682.00,425.50 690.90,424.80 699.80,424.10 708.70,423.60 717.60,423.20" stroke-linejoin="round" stroke-width="1.5" stroke="#BE5915" fill="none" stroke-linecap="butt"></polyline><g><circle cx="85.7" cy="483.7" r="1.8" fill="#BE5915"></circle><circle cx="94.6" cy="483" r="1.8" fill="#BE5915"></circle><circle cx="103.5" cy="482.2" r="1.8" fill="#BE5915"></circle><circle cx="112.4" cy="481.4" r="1.8" fill="#BE5915"></circle><circle cx="121.3" cy="480.6" r="1.8" fill="#BE5915"></circle><circle cx="130.2" cy="479.6" r="1.8" fill="#BE5915"></circle><circle cx="139.1" cy="478.7" r="1.8" fill="#BE5915"></circle><circle cx="148" cy="477.8" r="1.8" fill="#BE5915"></circle><circle cx="156.9" cy="476.7" r="1.8" fill="#BE5915"></circle><circle cx="165.8" cy="475.7" r="1.8" fill="#BE5915"></circle><circle cx="174.7" cy="474.8" r="1.8" fill="#BE5915"></circle><circle cx="183.6" cy="473.9" r="1.8" fill="#BE5915"></circle><circle cx="192.5" cy="473" r="1.8" fill="#BE5915"></circle><circle cx="201.4" cy="472.1" r="1.8" fill="#BE5915"></circle><circle cx="210.3" cy="471.2" r="1.8" fill="#BE5915"></circle><circle cx="219.2" cy="470.5" r="1.8" fill="#BE5915"></circle><circle cx="228.1" cy="469.8" r="1.8" fill="#BE5915"></circle><circle cx="237" cy="469.2" r="1.8" fill="#BE5915"></circle><circle cx="245.9" cy="468.5" r="1.8" fill="#BE5915"></circle><circle cx="254.8" cy="467.8" r="1.8" fill="#BE5915"></circle><circle cx="263.7" cy="467.1" r="1.8" fill="#BE5915"></circle><circle cx="272.6" cy="466.2" r="1.8" fill="#BE5915"></circle><circle cx="281.5" cy="465.5" r="1.8" fill="#BE5915"></circle><circle cx="290.4" cy="464.8" r="1.8" fill="#BE5915"></circle><circle cx="299.3" cy="464.2" r="1.8" fill="#BE5915"></circle><circle cx="308.2" cy="463.5" r="1.8" fill="#BE5915"></circle><circle cx="317.1" cy="462.9" r="1.8" fill="#BE5915"></circle><circle cx="326" cy="462.2" r="1.8" fill="#BE5915"></circle><circle cx="334.9" cy="461.4" r="1.8" fill="#BE5915"></circle><circle cx="343.8" cy="460.6" r="1.8" fill="#BE5915"></circle><circle cx="352.7" cy="459.7" r="1.8" fill="#BE5915"></circle><circle cx="361.6" cy="458.9" r="1.8" fill="#BE5915"></circle><circle cx="370.5" cy="458.2" r="1.8" fill="#BE5915"></circle><circle cx="379.4" cy="457.4" r="1.8" fill="#BE5915"></circle><circle cx="388.3" cy="456.6" r="1.8" fill="#BE5915"></circle><circle cx="397.2" cy="455.9" r="1.8" fill="#BE5915"></circle><circle cx="406.1" cy="455.1" r="1.8" fill="#BE5915"></circle><circle cx="415" cy="454.4" r="1.8" fill="#BE5915"></circle><circle cx="423.9" cy="453.6" r="1.8" fill="#BE5915"></circle><circle cx="432.8" cy="452.7" r="1.8" fill="#BE5915"></circle><circle cx="441.7" cy="451.7" r="1.8" fill="#BE5915"></circle><circle cx="450.6" cy="450.6" r="1.8" fill="#BE5915"></circle><circle cx="459.5" cy="449.5" r="1.8" fill="#BE5915"></circle><circle cx="468.4" cy="448.3" r="1.8" fill="#BE5915"></circle><circle cx="477.3" cy="447.2" r="1.8" fill="#BE5915"></circle><circle cx="486.2" cy="446.1" r="1.8" fill="#BE5915"></circle><circle cx="495.1" cy="445" r="1.8" fill="#BE5915"></circle><circle cx="504" cy="443.9" r="1.8" fill="#BE5915"></circle><circle cx="512.9" cy="442.8" r="1.8" fill="#BE5915"></circle><circle cx="521.8" cy="441.8" r="1.8" fill="#BE5915"></circle><circle cx="530.7" cy="440.7" r="1.8" fill="#BE5915"></circle><circle cx="539.6" cy="439.7" r="1.8" fill="#BE5915"></circle><circle cx="548.5" cy="438.8" r="1.8" fill="#BE5915"></circle><circle cx="557.4" cy="437.9" r="1.8" fill="#BE5915"></circle><circle cx="566.3" cy="437" r="1.8" fill="#BE5915"></circle><circle cx="575.2" cy="436.1" r="1.8" fill="#BE5915"></circle><circle cx="584.1" cy="435.2" r="1.8" fill="#BE5915"></circle><circle cx="593" cy="434.2" r="1.8" fill="#BE5915"></circle><circle cx="601.9" cy="433.3" r="1.8" fill="#BE5915"></circle><circle cx="610.8" cy="432.4" r="1.8" fill="#BE5915"></circle><circle cx="619.7" cy="431.5" r="1.8" fill="#BE5915"></circle><circle cx="628.6" cy="430.6" r="1.8" fill="#BE5915"></circle><circle cx="637.5" cy="429.7" r="1.8" fill="#BE5915"></circle><circle cx="646.4" cy="428.9" r="1.8" fill="#BE5915"></circle><circle cx="655.3" cy="428" r="1.8" fill="#BE5915"></circle><circle cx="664.2" cy="427.2" r="1.8" fill="#BE5915"></circle><circle cx="673.1" cy="426.4" r="1.8" fill="#BE5915"></circle><circle cx="682" cy="425.5" r="1.8" fill="#BE5915"></circle><circle cx="690.9" cy="424.8" r="1.8" fill="#BE5915"></circle><circle cx="699.8" cy="424.1" r="1.8" fill="#BE5915"></circle><circle cx="708.7" cy="423.6" r="1.8" fill="#BE5915"></circle><circle cx="717.6" cy="423.2" r="1.8" fill="#BE5915"></circle></g></g><g><path fill="none" stroke-linecap="butt" stroke-linejoin="round" stroke="#fff" stroke-width="2.5" d="M85.7 416.8L94.6 414.3L103.5 411.7L112.4 409L121.3 406.3L130.2 403.5L139.1 400.6L148 397.6L156.9 394.6L165.8 391.5L174.7 388.3L183.6 384.9L192.5 381.5L201.4 378L210.3 374.5L219.2 370.9L228.1 367.4L237 363.9L245.9 360.2L254.8 356.4L263.7 352.5L272.6 348.5L281.5 344.4L290.4 340.1L299.3 335.8L308.2 331.3L317.1 326.9L326 322.3L334.9 317.6L343.8 312.8L352.7 307.8L361.6 302.7L370.5 297.4L379.4 292.1L388.3 286.6L397.2 281.1L406.1 275.4L415 269.7L423.9 263.9L432.8 258.1L441.7 252.1L450.6 246.2L459.5 240.2L468.4 234.2L477.3 228.1L486.2 222L495.1 216L504 209.8L512.9 203.7L521.8 197.6L530.7 191.5L539.6 185.3L548.5 179.1L557.4 172.9L566.3 166.9L575.2 161L584.1 155.3L593 149.8L601.9 144.3L610.8 138.9L619.7 133.4L628.6 128L637.5 122.6L646.4 117.2L655.3 112.1L664.2 107L673.1 102L682 97L690.9 92.2L699.8 87.7L708.7 83.5L717.6 79.9"></path><polyline points="85.70,416.80 94.60,414.30 103.50,411.70 112.40,409.00 121.30,406.30 130.20,403.50 139.10,400.60 148.00,397.60 156.90,394.60 165.80,391.50 174.70,388.30 183.60,384.90 192.50,381.50 201.40,378.00 210.30,374.50 219.20,370.90 228.10,367.40 237.00,363.90 245.90,360.20 254.80,356.40 263.70,352.50 272.60,348.50 281.50,344.40 290.40,340.10 299.30,335.80 308.20,331.30 317.10,326.90 326.00,322.30 334.90,317.60 343.80,312.80 352.70,307.80 361.60,302.70 370.50,297.40 379.40,292.10 388.30,286.60 397.20,281.10 406.10,275.40 415.00,269.70 423.90,263.90 432.80,258.10 441.70,252.10 450.60,246.20 459.50,240.20 468.40,234.20 477.30,228.10 486.20,222.00 495.10,216.00 504.00,209.80 512.90,203.70 521.80,197.60 530.70,191.50 539.60,185.30 548.50,179.10 557.40,172.90 566.30,166.90 575.20,161.00 584.10,155.30 593.00,149.80 601.90,144.30 610.80,138.90 619.70,133.40 628.60,128.00 637.50,122.60 646.40,117.20 655.30,112.10 664.20,107.00 673.10,102.00 682.00,97.00 690.90,92.20 699.80,87.70 708.70,83.50 717.60,79.90" stroke-linejoin="round" stroke-width="1.5" stroke="#2C8465" fill="none" stroke-linecap="butt"></polyline><g><circle cx="85.7" cy="416.8" r="1.8" fill="#2C8465"></circle><circle cx="94.6" cy="414.3" r="1.8" fill="#2C8465"></circle><circle cx="103.5" cy="411.7" r="1.8" fill="#2C8465"></circle><circle cx="112.4" cy="409" r="1.8" fill="#2C8465"></circle><circle cx="121.3" cy="406.3" r="1.8" fill="#2C8465"></circle><circle cx="130.2" cy="403.5" r="1.8" fill="#2C8465"></circle><circle cx="139.1" cy="400.6" r="1.8" fill="#2C8465"></circle><circle cx="148" cy="397.6" r="1.8" fill="#2C8465"></circle><circle cx="156.9" cy="394.6" r="1.8" fill="#2C8465"></circle><circle cx="165.8" cy="391.5" r="1.8" fill="#2C8465"></circle><circle cx="174.7" cy="388.3" r="1.8" fill="#2C8465"></circle><circle cx="183.6" cy="384.9" r="1.8" fill="#2C8465"></circle><circle cx="192.5" cy="381.5" r="1.8" fill="#2C8465"></circle><circle cx="201.4" cy="378" r="1.8" fill="#2C8465"></circle><circle cx="210.3" cy="374.5" r="1.8" fill="#2C8465"></circle><circle cx="219.2" cy="370.9" r="1.8" fill="#2C8465"></circle><circle cx="228.1" cy="367.4" r="1.8" fill="#2C8465"></circle><circle cx="237" cy="363.9" r="1.8" fill="#2C8465"></circle><circle cx="245.9" cy="360.2" r="1.8" fill="#2C8465"></circle><circle cx="254.8" cy="356.4" r="1.8" fill="#2C8465"></circle><circle cx="263.7" cy="352.5" r="1.8" fill="#2C8465"></circle><circle cx="272.6" cy="348.5" r="1.8" fill="#2C8465"></circle><circle cx="281.5" cy="344.4" r="1.8" fill="#2C8465"></circle><circle cx="290.4" cy="340.1" r="1.8" fill="#2C8465"></circle><circle cx="299.3" cy="335.8" r="1.8" fill="#2C8465"></circle><circle cx="308.2" cy="331.3" r="1.8" fill="#2C8465"></circle><circle cx="317.1" cy="326.9" r="1.8" fill="#2C8465"></circle><circle cx="326" cy="322.3" r="1.8" fill="#2C8465"></circle><circle cx="334.9" cy="317.6" r="1.8" fill="#2C8465"></circle><circle cx="343.8" cy="312.8" r="1.8" fill="#2C8465"></circle><circle cx="352.7" cy="307.8" r="1.8" fill="#2C8465"></circle><circle cx="361.6" cy="302.7" r="1.8" fill="#2C8465"></circle><circle cx="370.5" cy="297.4" r="1.8" fill="#2C8465"></circle><circle cx="379.4" cy="292.1" r="1.8" fill="#2C8465"></circle><circle cx="388.3" cy="286.6" r="1.8" fill="#2C8465"></circle><circle cx="397.2" cy="281.1" r="1.8" fill="#2C8465"></circle><circle cx="406.1" cy="275.4" r="1.8" fill="#2C8465"></circle><circle cx="415" cy="269.7" r="1.8" fill="#2C8465"></circle><circle cx="423.9" cy="263.9" r="1.8" fill="#2C8465"></circle><circle cx="432.8" cy="258.1" r="1.8" fill="#2C8465"></circle><circle cx="441.7" cy="252.1" r="1.8" fill="#2C8465"></circle><circle cx="450.6" cy="246.2" r="1.8" fill="#2C8465"></circle><circle cx="459.5" cy="240.2" r="1.8" fill="#2C8465"></circle><circle cx="468.4" cy="234.2" r="1.8" fill="#2C8465"></circle><circle cx="477.3" cy="228.1" r="1.8" fill="#2C8465"></circle><circle cx="486.2" cy="222" r="1.8" fill="#2C8465"></circle><circle cx="495.1" cy="216" r="1.8" fill="#2C8465"></circle><circle cx="504" cy="209.8" r="1.8" fill="#2C8465"></circle><circle cx="512.9" cy="203.7" r="1.8" fill="#2C8465"></circle><circle cx="521.8" cy="197.6" r="1.8" fill="#2C8465"></circle><circle cx="530.7" cy="191.5" r="1.8" fill="#2C8465"></circle><circle cx="539.6" cy="185.3" r="1.8" fill="#2C8465"></circle><circle cx="548.5" cy="179.1" r="1.8" fill="#2C8465"></circle><circle cx="557.4" cy="172.9" r="1.8" fill="#2C8465"></circle><circle cx="566.3" cy="166.9" r="1.8" fill="#2C8465"></circle><circle cx="575.2" cy="161" r="1.8" fill="#2C8465"></circle><circle cx="584.1" cy="155.3" r="1.8" fill="#2C8465"></circle><circle cx="593" cy="149.8" r="1.8" fill="#2C8465"></circle><circle cx="601.9" cy="144.3" r="1.8" fill="#2C8465"></circle><circle cx="610.8" cy="138.9" r="1.8" fill="#2C8465"></circle><circle cx="619.7" cy="133.4" r="1.8" fill="#2C8465"></circle><circle cx="628.6" cy="128" r="1.8" fill="#2C8465"></circle><circle cx="637.5" cy="122.6" r="1.8" fill="#2C8465"></circle><circle cx="646.4" cy="117.2" r="1.8" fill="#2C8465"></circle><circle cx="655.3" cy="112.1" r="1.8" fill="#2C8465"></circle><circle cx="664.2" cy="107" r="1.8" fill="#2C8465"></circle><circle cx="673.1" cy="102" r="1.8" fill="#2C8465"></circle><circle cx="682" cy="97" r="1.8" fill="#2C8465"></circle><circle cx="690.9" cy="92.2" r="1.8" fill="#2C8465"></circle><circle cx="699.8" cy="87.7" r="1.8" fill="#2C8465"></circle><circle cx="708.7" cy="83.5" r="1.8" fill="#2C8465"></circle><circle cx="717.6" cy="79.9" r="1.8" fill="#2C8465"></circle></g></g><g><path fill="none" stroke-linecap="butt" stroke-linejoin="round" stroke="#fff" stroke-width="2.5" d="M85.7 356.8L94.6 353.7L103.5 350.1L112.4 346.1L121.3 342.1L130.2 337.8L139.1 333.7L148 329.3L156.9 324.8L165.8 322.1L174.7 321.5L183.6 321.2L192.5 318.2L201.4 312L210.3 305.3L219.2 299.2L228.1 293L237 287.2L245.9 281L254.8 274.3L263.7 267.5L272.6 260.8L281.5 254.6L290.4 248.5L299.3 242.9L308.2 237.8L317.1 233.2L326 229L334.9 225L343.8 220.8L352.7 216.2L361.6 211.5L370.5 206.3L379.4 201.2L388.3 196.4L397.2 191.3L406.1 185.6L415 179.5L423.9 173.4L432.8 167.5L441.7 161.3L450.6 155.9L459.5 151.6L468.4 147.8L477.3 144.1L486.2 140.6L495.1 137.4L504 134.3L512.9 131.4L521.8 128.7L530.7 125.9L539.6 123.1L548.5 120.5L557.4 117.9L566.3 115.4L575.2 112.8L584.1 110.2L593 107.5L601.9 104.7L610.8 101.8L619.7 98.9L628.6 96.1L637.5 93L646.4 90L655.3 87.1L664.2 84.3L673.1 81.7L682 79L690.9 76.8L699.8 75.3L708.7 74.3L717.6 74"></path><polyline points="85.70,356.80 94.60,353.70 103.50,350.10 112.40,346.10 121.30,342.10 130.20,337.80 139.10,333.70 148.00,329.30 156.90,324.80 165.80,322.10 174.70,321.50 183.60,321.20 192.50,318.20 201.40,312.00 210.30,305.30 219.20,299.20 228.10,293.00 237.00,287.20 245.90,281.00 254.80,274.30 263.70,267.50 272.60,260.80 281.50,254.60 290.40,248.50 299.30,242.90 308.20,237.80 317.10,233.20 326.00,229.00 334.90,225.00 343.80,220.80 352.70,216.20 361.60,211.50 370.50,206.30 379.40,201.20 388.30,196.40 397.20,191.30 406.10,185.60 415.00,179.50 423.90,173.40 432.80,167.50 441.70,161.30 450.60,155.90 459.50,151.60 468.40,147.80 477.30,144.10 486.20,140.60 495.10,137.40 504.00,134.30 512.90,131.40 521.80,128.70 530.70,125.90 539.60,123.10 548.50,120.50 557.40,117.90 566.30,115.40 575.20,112.80 584.10,110.20 593.00,107.50 601.90,104.70 610.80,101.80 619.70,98.90 628.60,96.10 637.50,93.00 646.40,90.00 655.30,87.10 664.20,84.30 673.10,81.70 682.00,79.00 690.90,76.80 699.80,75.30 708.70,74.30 717.60,74.00" stroke-linejoin="round" stroke-width="1.5" stroke="#C15065" fill="none" stroke-linecap="butt"></polyline><g><circle cx="85.7" cy="356.8" r="1.8" fill="#C15065"></circle><circle cx="94.6" cy="353.7" r="1.8" fill="#C15065"></circle><circle cx="103.5" cy="350.1" r="1.8" fill="#C15065"></circle><circle cx="112.4" cy="346.1" r="1.8" fill="#C15065"></circle><circle cx="121.3" cy="342.1" r="1.8" fill="#C15065"></circle><circle cx="130.2" cy="337.8" r="1.8" fill="#C15065"></circle><circle cx="139.1" cy="333.7" r="1.8" fill="#C15065"></circle><circle cx="148" cy="329.3" r="1.8" fill="#C15065"></circle><circle cx="156.9" cy="324.8" r="1.8" fill="#C15065"></circle><circle cx="165.8" cy="322.1" r="1.8" fill="#C15065"></circle><circle cx="174.7" cy="321.5" r="1.8" fill="#C15065"></circle><circle cx="183.6" cy="321.2" r="1.8" fill="#C15065"></circle><circle cx="192.5" cy="318.2" r="1.8" fill="#C15065"></circle><circle cx="201.4" cy="312" r="1.8" fill="#C15065"></circle><circle cx="210.3" cy="305.3" r="1.8" fill="#C15065"></circle><circle cx="219.2" cy="299.2" r="1.8" fill="#C15065"></circle><circle cx="228.1" cy="293" r="1.8" fill="#C15065"></circle><circle cx="237" cy="287.2" r="1.8" fill="#C15065"></circle><circle cx="245.9" cy="281" r="1.8" fill="#C15065"></circle><circle cx="254.8" cy="274.3" r="1.8" fill="#C15065"></circle><circle cx="263.7" cy="267.5" r="1.8" fill="#C15065"></circle><circle cx="272.6" cy="260.8" r="1.8" fill="#C15065"></circle><circle cx="281.5" cy="254.6" r="1.8" fill="#C15065"></circle><circle cx="290.4" cy="248.5" r="1.8" fill="#C15065"></circle><circle cx="299.3" cy="242.9" r="1.8" fill="#C15065"></circle><circle cx="308.2" cy="237.8" r="1.8" fill="#C15065"></circle><circle cx="317.1" cy="233.2" r="1.8" fill="#C15065"></circle><circle cx="326" cy="229" r="1.8" fill="#C15065"></circle><circle cx="334.9" cy="225" r="1.8" fill="#C15065"></circle><circle cx="343.8" cy="220.8" r="1.8" fill="#C15065"></circle><circle cx="352.7" cy="216.2" r="1.8" fill="#C15065"></circle><circle cx="361.6" cy="211.5" r="1.8" fill="#C15065"></circle><circle cx="370.5" cy="206.3" r="1.8" fill="#C15065"></circle><circle cx="379.4" cy="201.2" r="1.8" fill="#C15065"></circle><circle cx="388.3" cy="196.4" r="1.8" fill="#C15065"></circle><circle cx="397.2" cy="191.3" r="1.8" fill="#C15065"></circle><circle cx="406.1" cy="185.6" r="1.8" fill="#C15065"></circle><circle cx="415" cy="179.5" r="1.8" fill="#C15065"></circle><circle cx="423.9" cy="173.4" r="1.8" fill="#C15065"></circle><circle cx="432.8" cy="167.5" r="1.8" fill="#C15065"></circle><circle cx="441.7" cy="161.3" r="1.8" fill="#C15065"></circle><circle cx="450.6" cy="155.9" r="1.8" fill="#C15065"></circle><circle cx="459.5" cy="151.6" r="1.8" fill="#C15065"></circle><circle cx="468.4" cy="147.8" r="1.8" fill="#C15065"></circle><circle cx="477.3" cy="144.1" r="1.8" fill="#C15065"></circle><circle cx="486.2" cy="140.6" r="1.8" fill="#C15065"></circle><circle cx="495.1" cy="137.4" r="1.8" fill="#C15065"></circle><circle cx="504" cy="134.3" r="1.8" fill="#C15065"></circle><circle cx="512.9" cy="131.4" r="1.8" fill="#C15065"></circle><circle cx="521.8" cy="128.7" r="1.8" fill="#C15065"></circle><circle cx="530.7" cy="125.9" r="1.8" fill="#C15065"></circle><circle cx="539.6" cy="123.1" r="1.8" fill="#C15065"></circle><circle cx="548.5" cy="120.5" r="1.8" fill="#C15065"></circle><circle cx="557.4" cy="117.9" r="1.8" fill="#C15065"></circle><circle cx="566.3" cy="115.4" r="1.8" fill="#C15065"></circle><circle cx="575.2" cy="112.8" r="1.8" fill="#C15065"></circle><circle cx="584.1" cy="110.2" r="1.8" fill="#C15065"></circle><circle cx="593" cy="107.5" r="1.8" fill="#C15065"></circle><circle cx="601.9" cy="104.7" r="1.8" fill="#C15065"></circle><circle cx="610.8" cy="101.8" r="1.8" fill="#C15065"></circle><circle cx="619.7" cy="98.9" r="1.8" fill="#C15065"></circle><circle cx="628.6" cy="96.1" r="1.8" fill="#C15065"></circle><circle cx="637.5" cy="93" r="1.8" fill="#C15065"></circle><circle cx="646.4" cy="90" r="1.8" fill="#C15065"></circle><circle cx="655.3" cy="87.1" r="1.8" fill="#C15065"></circle><circle cx="664.2" cy="84.3" r="1.8" fill="#C15065"></circle><circle cx="673.1" cy="81.7" r="1.8" fill="#C15065"></circle><circle cx="682" cy="79" r="1.8" fill="#C15065"></circle><circle cx="690.9" cy="76.8" r="1.8" fill="#C15065"></circle><circle cx="699.8" cy="75.3" r="1.8" fill="#C15065"></circle><circle cx="708.7" cy="74.3" r="1.8" fill="#C15065"></circle><circle cx="717.6" cy="74" r="1.8" fill="#C15065"></circle></g></g></g></g></g></g><g class="SourcesFooter" style="fill:#5b5b5b"><text x="16.0" y="580.9" style="font-size:13.5px;line-height:1.2"><tspan x="16" y="580.9"><tspan style="font-weight:700">Data source:</tspan> HYDE (2017); Gapminder (2022); UN (2022)</tspan></text><text font-size="13.50" x="549.0" y="580.9"><tspan x="549.015" y="580.895"><a target="_blank" style="fill: #5b5b5b;  text-decoration: underline;" href="https://ourworldindata.org/population-growth">OurWorldInData.org/population-growth</a> | <a target="_blank" style="fill: #5b5b5b;  text-decoration: underline;" href="https://creativecommons.org/licenses/by/4.0/">CC BY</a></tspan></text></g></svg>