<svg xmlns="http://www.w3.org/2000/svg" version="1.1" style="font-family:Lato, &#x27;Helvetica Neue&#x27;, Helvetica, Arial, &#x27;Liberation Sans&#x27;, sans-serif;font-size:18px;background-color:white;text-rendering:geometricPrecision;-webkit-font-smoothing:antialiased" width="850" height="600" viewBox="0 0 850 600"><defs><style>@import url(http://localhost:3030/fonts.css)</style></defs><defs><pattern id="noDataPattern" patternUnits="userSpaceOnUse" width="4" height="4" patternTransform="rotate(-45 2 2)"><path d="M -1,2 l 6,0" stroke="#ccc" stroke-width="0.7"></path></pattern></defs><rect class="background-fill" fill="white" width="850" height="600"></rect><g class="HeaderView"><g transform="translate(769, 16) scale(1)"><svg className="owidLogo" xmlns="http://www.w3.org/2000/svg" width="65" height="36" viewBox="0 0 65 36"  fill="none"><path fill="#002147" d="M0 0h64.8v36H0z"/><path fill="#CE261E" d="M0 33.3h64.8V36H0z"/><path fill="#fff" d="M13.796 10.575c0 .636-.106 1.226-.318 1.77a4.193 4.193 0 0 1-.894 1.404 4.084 4.084 0 0 1-1.386.93c-.54.22-1.138.33-1.794.33-.656 0-1.256-.11-1.8-.33a4.149 4.149 0 0 1-1.392-.93 4.193 4.193 0 0 1-.894-1.404A4.833 4.833 0 0 1 5 10.575c0-.636.106-1.224.318-1.764a4.18 4.18 0 0 1 .894-1.41 4.076 4.076 0 0 1 1.392-.924 4.684 4.684 0 0 1 1.8-.336c.656 0 1.254.112 1.794.336.54.224 1.002.534 1.386.93.384.392.682.86.894 1.404.212.54.318 1.128.318 1.764Zm-1.656 0c0-.476-.064-.902-.192-1.278a2.671 2.671 0 0 0-.54-.966 2.332 2.332 0 0 0-.864-.606 2.94 2.94 0 0 0-1.14-.21c-.424 0-.806.07-1.146.21-.34.14-.63.342-.87.606a2.742 2.742 0 0 0-.546.966 3.955 3.955 0 0 0-.192 1.278c0 .476.064.904.192 1.284.128.376.31.696.546.96.24.26.53.46.87.6.34.14.722.21 1.146.21.424 0 .804-.07 1.14-.21.34-.14.628-.34.864-.6.236-.264.416-.584.54-.96a4.01 4.01 0 0 0 .192-1.284ZM16.104 8.757v3.912c0 .376.086.668.258.876.176.204.438.306.786.306.256 0 .496-.056.72-.168a2.58 2.58 0 0 0 .636-.474V8.757h1.482v6.156h-.906c-.192 0-.318-.09-.378-.27l-.102-.492a4.65 4.65 0 0 1-.396.354 2.577 2.577 0 0 1-.438.27 2.35 2.35 0 0 1-.498.168 2.345 2.345 0 0 1-.57.066c-.336 0-.634-.056-.894-.168a1.821 1.821 0 0 1-.648-.486 2.157 2.157 0 0 1-.402-.738 3.233 3.233 0 0 1-.132-.948V8.757h1.482ZM21.328 14.913V8.757h.87c.152 0 .258.028.318.084.06.056.1.152.12.288l.09.744c.22-.38.478-.68.774-.9.296-.22.628-.33.996-.33.304 0 .556.07.756.21l-.192 1.11c-.012.072-.038.124-.078.156a.278.278 0 0 1-.162.042 1.01 1.01 0 0 1-.246-.042 1.646 1.646 0 0 0-.414-.042c-.308 0-.572.086-.792.258-.22.168-.406.416-.558.744v3.834h-1.482ZM27.347 6.237h1.356a.57.57 0 0 1 .348.102c.096.064.16.152.192.264l1.476 5.19c.036.128.068.268.096.42.032.148.062.306.09.474a5.968 5.968 0 0 1 .228-.894l1.704-5.19a.575.575 0 0 1 .186-.252.543.543 0 0 1 .348-.114h.474a.57.57 0 0 1 .348.102.497.497 0 0 1 .192.264l1.692 5.19c.088.256.164.54.228.852.028-.156.056-.306.084-.45.032-.144.064-.278.096-.402l1.476-5.19c.028-.1.09-.186.186-.258a.563.563 0 0 1 .348-.108h1.266l-2.694 8.676h-1.458l-1.896-5.928-.078-.246a9.504 9.504 0 0 1-.072-.282c-.024.1-.05.194-.078.282-.024.088-.048.17-.072.246l-1.914 5.928H30.04l-2.694-8.676ZM42.771 8.661c.46 0 .876.074 1.248.222.376.148.696.358.96.63s.468.604.612.996c.144.392.216.83.216 1.314 0 .488-.072.928-.216 1.32a2.85 2.85 0 0 1-.612 1.002 2.653 2.653 0 0 1-.96.636 3.35 3.35 0 0 1-1.248.222c-.46 0-.878-.074-1.254-.222a2.712 2.712 0 0 1-.966-.636 2.922 2.922 0 0 1-.618-1.002 3.807 3.807 0 0 1-.216-1.32c0-.484.072-.922.216-1.314.148-.392.354-.724.618-.996.268-.272.59-.482.966-.63a3.397 3.397 0 0 1 1.254-.222Zm0 5.202c.512 0 .89-.172 1.134-.516.248-.344.372-.848.372-1.512s-.124-1.17-.372-1.518c-.244-.348-.622-.522-1.134-.522-.52 0-.904.176-1.152.528-.248.348-.372.852-.372 1.512s.124 1.164.372 1.512c.248.344.632.516 1.152.516ZM46.723 14.913V8.757h.87c.152 0 .258.028.318.084.06.056.1.152.12.288l.09.744c.22-.38.478-.68.774-.9.296-.22.628-.33.996-.33.304 0 .556.07.756.21l-.192 1.11c-.012.072-.038.124-.078.156a.278.278 0 0 1-.162.042 1.01 1.01 0 0 1-.246-.042 1.646 1.646 0 0 0-.414-.042c-.308 0-.572.086-.792.258-.22.168-.406.416-.558.744v3.834h-1.482ZM52.96 5.997v8.916h-1.482V5.997h1.482ZM58.732 14.913c-.192 0-.318-.09-.378-.27l-.12-.594a3.68 3.68 0 0 1-.402.39c-.14.116-.292.216-.456.3-.16.084-.334.148-.522.192a2.372 2.372 0 0 1-.6.072c-.336 0-.644-.07-.924-.21a2.098 2.098 0 0 1-.726-.606 3.033 3.033 0 0 1-.468-.99 5.072 5.072 0 0 1-.162-1.344c0-.456.062-.88.186-1.272s.302-.732.534-1.02c.232-.288.51-.512.834-.672a2.384 2.384 0 0 1 1.092-.246 2.103 2.103 0 0 1 1.536.606V5.997h1.482v8.916h-.906Zm-1.974-1.086c.308 0 .57-.064.786-.192.216-.128.42-.31.612-.546v-2.76a1.452 1.452 0 0 0-.552-.432 1.597 1.597 0 0 0-.636-.126c-.224 0-.428.042-.612.126a1.21 1.21 0 0 0-.462.384c-.124.168-.22.384-.288.648-.068.26-.102.568-.102.924 0 .36.028.666.084.918.06.248.144.452.252.612.108.156.24.27.396.342.156.068.33.102.522.102ZM16.331 20.757v6.156H14.85v-6.156h1.481Zm.223-1.794a.844.844 0 0 1-.078.36.963.963 0 0 1-.21.294.995.995 0 0 1-.3.204.963.963 0 0 1-.372.072.948.948 0 0 1-.367-.072 1.018 1.018 0 0 1-.498-.498.963.963 0 0 1 0-.732.995.995 0 0 1 .205-.3.929.929 0 0 1 .293-.198.899.899 0 0 1 .738 0 .912.912 0 0 1 .3.198.943.943 0 0 1 .288.672ZM17.771 26.913v-6.156h.906c.192 0 .318.09.378.27l.102.486a2.934 2.934 0 0 1 .828-.618c.156-.076.322-.134.498-.174.176-.04.368-.06.576-.06.336 0 .634.058.894.174.26.112.476.272.648.48.176.204.308.45.396.738.092.284.138.598.138.942v3.918h-1.482v-3.918c0-.376-.088-.666-.264-.87-.172-.208-.432-.312-.78-.312-.256 0-.496.058-.72.174a2.58 2.58 0 0 0-.636.474v4.452h-1.482ZM34.22 22.575c0 .636-.106 1.22-.318 1.752-.212.532-.51.99-.894 1.374a4 4 0 0 1-1.386.894 4.87 4.87 0 0 1-1.794.318h-3.312v-8.676h3.312a4.79 4.79 0 0 1 1.794.324 4 4 0 0 1 1.386.894c.384.38.682.836.894 1.368.212.532.318 1.116.318 1.752Zm-1.65 0c0-.476-.064-.902-.192-1.278a2.68 2.68 0 0 0-.546-.96 2.332 2.332 0 0 0-.864-.606 2.94 2.94 0 0 0-1.14-.21h-1.686v6.108h1.686c.424 0 .804-.07 1.14-.21.34-.14.628-.34.864-.6a2.75 2.75 0 0 0 .546-.96 4.01 4.01 0 0 0 .192-1.284ZM39.98 26.913h-.665c-.14 0-.25-.02-.33-.06-.08-.044-.14-.13-.18-.258l-.132-.438c-.156.14-.31.264-.462.372a2.804 2.804 0 0 1-.462.264c-.16.072-.33.126-.51.162-.18.036-.38.054-.6.054-.26 0-.5-.034-.72-.102a1.618 1.618 0 0 1-.57-.318 1.448 1.448 0 0 1-.366-.522 1.852 1.852 0 0 1-.132-.726c0-.232.06-.46.18-.684.124-.228.328-.432.612-.612.284-.184.662-.336 1.134-.456.472-.12 1.058-.188 1.758-.204v-.36c0-.412-.088-.716-.264-.912-.172-.2-.424-.3-.756-.3a1.837 1.837 0 0 0-1.02.276c-.116.068-.224.13-.324.186a.664.664 0 0 1-.33.084.429.429 0 0 1-.258-.078.614.614 0 0 1-.174-.192l-.27-.474c.708-.648 1.562-.972 2.562-.972.36 0 .68.06.96.18.284.116.524.28.72.492.196.208.344.458.444.75.104.292.156.612.156.96v3.888Zm-2.88-.924c.153 0 .293-.014.42-.042.129-.028.249-.07.36-.126.117-.056.227-.124.33-.204.109-.084.217-.182.325-.294v-1.038c-.432.02-.794.058-1.086.114-.288.052-.52.12-.696.204a.923.923 0 0 0-.378.294.664.664 0 0 0-.108.366c0 .26.076.446.228.558.156.112.358.168.606.168ZM43.22 27.01c-.532 0-.942-.15-1.23-.45-.288-.305-.432-.723-.432-1.255v-3.438h-.624a.31.31 0 0 1-.21-.078c-.056-.052-.084-.13-.084-.234v-.588l.99-.162.312-1.68a.302.302 0 0 1 .108-.186.365.365 0 0 1 .222-.066h.768v1.938h1.62v1.056h-1.62v3.336c0 .192.048.342.144.45a.488.488 0 0 0 .384.162c.092 0 .168-.01.228-.03.064-.024.118-.048.162-.072.048-.024.09-.046.126-.066a.194.194 0 0 1 .108-.036.16.16 0 0 1 .108.036c.028.02.058.052.09.096l.444.72c-.216.18-.464.316-.744.408a2.77 2.77 0 0 1-.87.138ZM50.423 26.913h-.666c-.14 0-.25-.02-.33-.06-.08-.044-.14-.13-.18-.258l-.132-.438c-.156.14-.31.264-.462.372a2.804 2.804 0 0 1-.462.264c-.16.072-.33.126-.51.162-.18.036-.38.054-.6.054-.26 0-.5-.034-.72-.102a1.618 1.618 0 0 1-.57-.318 1.448 1.448 0 0 1-.366-.522 1.852 1.852 0 0 1-.132-.726c0-.232.06-.46.18-.684.124-.228.328-.432.612-.612.284-.184.662-.336 1.134-.456.472-.12 1.058-.188 1.758-.204v-.36c0-.412-.088-.716-.264-.912-.172-.2-.424-.3-.756-.3a1.837 1.837 0 0 0-1.02.276c-.116.068-.224.13-.324.186a.664.664 0 0 1-.33.084.429.429 0 0 1-.258-.078.614.614 0 0 1-.174-.192l-.27-.474c.708-.648 1.562-.972 2.562-.972.36 0 .68.06.96.18.284.116.524.28.72.492.196.208.344.458.444.75.104.292.156.612.156.96v3.888Zm-2.88-.924c.152 0 .292-.014.42-.042.128-.028.248-.07.36-.126.116-.056.226-.124.33-.204.108-.084.216-.182.324-.294v-1.038c-.432.02-.794.058-1.086.114-.288.052-.52.12-.696.204a.923.923 0 0 0-.378.294.664.664 0 0 0-.108.366c0 .26.076.446.228.558.156.112.358.168.606.168Z"/></svg></g><a href="http://localhost:3030/grapher/population-young-working-elderly-with-projections" style="font-family:&#x27;Playfair Display&#x27;, Georgia, &#x27;Times New Roman&#x27;, &#x27;Liberation Serif&#x27;, serif" target="_blank" rel="noopener"><text font-size="24.00" font-weight="500" x="16.0" y="39.3" fill="#5b5b5b"><tspan x="16" y="39.28">Population of young, working-age and elderly, World</tspan></text></a><text x="16.0" y="63.0" style="font-size:14px;line-height:1.28571" fill="#5b5b5b"><tspan x="16" y="63.0">Historic estimates from 1950 to 2021, and projected to 2100 based on the <tspan>UN medium-fertility scenario</tspan>.</tspan></text></g><g class="LineChart"><defs><clipPath id="boundsClip-1"><rect x="66.08" y="72.79993999999999" width="838" height="489.60006"></rect></clipPath></defs><rect x="16" y="82.79993999999999" width="818" height="469.60006" fill="none"></rect><g class="DualAxisView"><g class="HorizontalAxis"><line x1="76.1" y1="529.2" x2="76.1" y2="534.2" stroke="#999"></line><line x1="638.8" y1="529.2" x2="638.8" y2="534.2" stroke="#999"></line><line x1="188.6" y1="529.2" x2="188.6" y2="534.2" stroke="#999"></line><line x1="263.6" y1="529.2" x2="263.6" y2="534.2" stroke="#999"></line><line x1="338.7" y1="529.2" x2="338.7" y2="534.2" stroke="#999"></line><line x1="413.7" y1="529.2" x2="413.7" y2="534.2" stroke="#999"></line><line x1="488.7" y1="529.2" x2="488.7" y2="534.2" stroke="#999"></line><line x1="563.7" y1="529.2" x2="563.7" y2="534.2" stroke="#999"></line><text x="76.08" y="550.4" fill="#666" text-anchor="start" font-size="16.2">1950</text><text x="638.755" y="550.4" fill="#666" text-anchor="end" font-size="16.2">2100</text><text x="188.6" y="550.4" fill="#666" text-anchor="middle" font-size="16.2">1980</text><text x="263.6" y="550.4" fill="#666" text-anchor="middle" font-size="16.2">2000</text><text x="338.7" y="550.4" fill="#666" text-anchor="middle" font-size="16.2">2020</text><text x="413.7" y="550.4" fill="#666" text-anchor="middle" font-size="16.2">2040</text><text x="488.7" y="550.4" fill="#666" text-anchor="middle" font-size="16.2">2060</text><text x="563.7" y="550.4" fill="#666" text-anchor="middle" font-size="16.2">2080</text></g><g class="VerticalAxis"><text x="71.08" y="529.2" dy=".32em" text-anchor="end" fill="#666" font-size="16.2">0</text><text x="71.08" y="459.6" dy=".32em" text-anchor="end" fill="#666" font-size="16.2">1 billion</text><text x="71.08" y="389.9" dy=".32em" text-anchor="end" fill="#666" font-size="16.2">2 billion</text><text x="71.08" y="320.3" dy=".32em" text-anchor="end" fill="#666" font-size="16.2">3 billion</text><text x="71.08" y="250.6" dy=".32em" text-anchor="end" fill="#666" font-size="16.2">4 billion</text><text x="71.08" y="181" dy=".32em" text-anchor="end" fill="#666" font-size="16.2">5 billion</text><text x="71.08" y="111.4" dy=".32em" text-anchor="end" fill="#666" font-size="16.2">6 billion</text></g><g class="AxisGridLines horizontalLines"><line x1="76.08" y1="529.2" x2="638.75" y2="529.2" stroke="#999"></line><line x1="76.08" y1="459.6" x2="638.75" y2="459.6" stroke="#ddd" stroke-dasharray="3,2"></line><line x1="76.08" y1="389.9" x2="638.75" y2="389.9" stroke="#ddd" stroke-dasharray="3,2"></line><line x1="76.08" y1="320.3" x2="638.75" y2="320.3" stroke="#ddd" stroke-dasharray="3,2"></line><line x1="76.08" y1="250.6" x2="638.75" y2="250.6" stroke="#ddd" stroke-dasharray="3,2"></line><line x1="76.08" y1="181" x2="638.75" y2="181" stroke="#ddd" stroke-dasharray="3,2"></line><line x1="76.08" y1="111.4" x2="638.75" y2="111.4" stroke="#ddd" stroke-dasharray="3,2"></line></g></g><g clip-path="url(#boundsClip-1)"><g class="LineLabels" style="cursor:default"><g class="legendMark"><rect x="638.755" y="93.65" width="195.245" height="13.5" fill="#fff" opacity="0"></rect><text font-size="13.50" font-weight="400" x="642.8" y="105.4" fill="#2c8465"><tspan x="642.755" y="105.39500000000001">Working age (15-64 years)</tspan></text></g><g class="legendMark"><rect x="638.755" y="349.25" width="148.805" height="13.5" fill="#fff" opacity="0"></rect><text font-size="13.50" font-weight="400" x="642.8" y="361.0" fill="#c15065"><tspan x="642.755" y="360.995">Elderly (65+ years)</tspan></text></g><g class="legendMark"><rect x="638.755" y="403.65" width="147.995" height="13.5" fill="#fff" opacity="0"></rect><text font-size="13.50" font-weight="400" x="642.8" y="415.4" fill="#be5915"><tspan x="642.755" y="415.395">Young (under-15s)</tspan></text></g></g><g class="Lines"><rect x="76" y="89" width="563" height="440" fill="rgba(255,255,255,0)" opacity="0"></rect><g><path stroke-linecap="round" stroke-linejoin="round" stroke="#ddd" d="M346.2 388.9L349.9 389.1L353.7 389.4L357.4 389.7L361.2 390.1L364.9 390.5L368.7 391L372.4 391.4L376.2 391.8L379.9 392.2L383.7 392.5L387.4 392.7L391.2 392.8L394.9 392.7L398.7 392.4L402.4 392L406.2 391.7L409.9 391.4L413.7 391L417.4 390.7L421.2 390.4L424.9 390.1L428.7 389.8L432.4 389.6L436.2 389.4L439.9 389.3L443.7 389.2L447.4 389.2L451.2 389.2L454.9 389.3L458.7 389.4L462.5 389.7L466.2 389.9L470 390.3L473.7 390.6L477.5 391L481.2 391.4L485 391.9L488.7 392.3L492.5 392.8L496.2 393.3L500 393.7L503.7 394.1L507.5 394.5L511.2 394.9L515 395.3L518.7 395.6L522.5 395.9L526.2 396.2L530 396.5L533.7 396.8L537.5 397.1L541.2 397.4L545 397.7L548.7 398L552.5 398.3L556.2 398.7L560 399.1L563.7 399.5L567.5 399.9L571.2 400.4L575 400.9L578.7 401.4L582.5 401.9L586.2 402.4L590 403L593.7 403.5L597.5 404.1L601.2 404.7L605 405.3L608.7 405.9L612.5 406.4L616.2 407L620 407.6L623.8 408.2L627.5 408.7L631.3 409.3L635 409.9L638.8 410.4" fill="none" stroke-width="1"></path></g><g><path stroke-linecap="round" stroke-linejoin="round" stroke="#ddd" d="M76.1 468.8L79.8 467.4L83.6 465.9L87.3 464.3L91.1 462.5L94.8 460.5L98.6 458.6L102.3 456.4L106.1 454.2L109.8 452.3L113.6 450.6L117.3 449.2L121.1 447.4L124.8 445.1L128.6 442.9L132.3 440.8L136.1 439L139.8 437.3L143.6 435.6L147.4 433.9L151.1 432.2L154.9 430.5L158.6 429L162.4 427.5L166.1 425.8L169.9 424.3L173.6 422.8L177.4 421.6L181.1 421L184.9 420.5L188.6 419.6L192.4 418.7L196.1 417.4L199.9 416.3L203.6 415.3L207.4 414.3L211.1 413.1L214.9 411.8L218.6 410.4L222.4 409L226.1 407.4L229.9 405.9L233.6 404.6L237.4 403.3L241.1 402.3L244.9 401.5L248.6 400.9L252.4 400.5L256.1 400.2L259.9 400L263.6 399.8L267.4 399.7L271.1 399.8L274.9 399.9L278.6 399.9L282.4 400.1L286.1 400L289.9 399.6L293.6 399L297.4 398.3L301.1 397.5L304.9 396.6L308.7 395.6L312.4 394.5L316.2 393.4L319.9 392.4L323.7 391.5L327.4 390.6L331.2 389.8L334.9 389.3L338.7 389L342.4 388.9" fill="none" stroke-width="1"></path></g><g><path stroke-linecap="round" stroke-linejoin="round" stroke="#ddd" d="M346.2 168.6L349.9 165.3L353.7 161.6L357.4 157.9L361.2 154.2L364.9 150.7L368.7 147.6L372.4 144.7L376.2 141.8L379.9 139L383.7 136.1L387.4 133.5L391.2 131.2L394.9 129.2L398.7 127.4L402.4 125.6L406.2 123.8L409.9 122L413.7 120.1L417.4 118.2L421.2 116.3L424.9 114.4L428.7 112.6L432.4 111L436.2 109.6L439.9 108.3L443.7 107L447.4 105.8L451.2 104.7L454.9 103.7L458.7 102.9L462.5 102.1L466.2 101.4L470 100.7L473.7 100L477.5 99L481.2 98L485 97L488.7 96L492.5 95L496.2 94.1L500 93.1L503.7 92.3L507.5 91.5L511.2 90.9L515 90.3L518.7 89.8L522.5 89.4L526.2 89.1L530 88.9L533.7 88.8L537.5 88.9L541.2 89.1L545 89.3L548.7 89.7L552.5 90.1L556.2 90.6L560 91.1L563.7 91.7L567.5 92.2L571.2 92.8L575 93.2L578.7 93.6L582.5 93.8L586.2 94L590 94.1L593.7 94.2L597.5 94.4L601.2 94.7L605 95L608.7 95.4L612.5 95.8L616.2 96.3L620 96.8L623.8 97.4L627.5 98.1L631.3 98.8L635 99.6L638.8 100.4" fill="none" stroke-width="1"></path></g><g><path stroke-linecap="round" stroke-linejoin="round" stroke="#ddd" d="M76.1 424.5L79.8 422.9L83.6 421.3L87.3 419.6L91.1 417.9L94.8 416.3L98.6 414.6L102.3 413L106.1 411.3L109.8 409.7L113.6 408.1L117.3 406.3L121.1 404.2L124.8 402L128.6 399.6L132.3 397L136.1 394.4L139.8 391.6L143.6 388.7L147.4 385.7L151.1 382.5L154.9 379.4L158.6 376.1L162.4 372.8L166.1 369.6L169.9 366.5L173.6 363.4L177.4 359.9L181.1 355.9L184.9 351.6L188.6 347.4L192.4 343.1L196.1 338.8L199.9 334.4L203.6 329.9L207.4 325.4L211.1 320.9L214.9 316.4L218.6 312L222.4 307.6L226.1 303.4L229.9 299.2L233.6 295.2L237.4 291.3L241.1 287.2L244.9 282.9L248.6 278.5L252.4 273.9L256.1 269.3L259.9 264.6L263.6 259.9L267.4 255L271.1 250.1L274.9 245.1L278.6 240.1L282.4 235.1L286.1 230.2L289.9 225.4L293.6 220.7L297.4 216.2L301.1 211.7L304.9 207.3L308.7 203.3L312.4 199.4L316.2 195.6L319.9 192L323.7 188.4L327.4 184.9L331.2 181.5L334.9 178.1L338.7 174.9L342.4 171.7" fill="none" stroke-width="1"></path></g><g><path stroke-linecap="round" stroke-linejoin="round" stroke="#ddd" d="M346.2 474.7L349.9 472.9L353.7 471.2L357.4 469.5L361.2 467.8L364.9 465.9L368.7 463.6L372.4 461.2L376.2 458.8L379.9 456.6L383.7 454.4L387.4 452.1L391.2 449.7L394.9 447.4L398.7 445L402.4 442.8L406.2 440.6L409.9 438.5L413.7 436.6L417.4 434.8L421.2 433L424.9 431.3L428.7 429.5L432.4 427.6L436.2 425.7L439.9 423.6L443.7 421.6L447.4 419.6L451.2 417.6L454.9 415.4L458.7 413.2L462.5 411L466.2 408.8L470 406.6L473.7 404.6L477.5 402.8L481.2 401.2L485 399.6L488.7 398.1L492.5 396.7L496.2 395.4L500 394.1L503.7 392.8L507.5 391.5L511.2 390.2L515 389L518.7 387.7L522.5 386.5L526.2 385.2L530 384L533.7 382.6L537.5 381.2L541.2 379.8L545 378.4L548.7 376.9L552.5 375.5L556.2 374L560 372.6L563.7 371.2L567.5 369.8L571.2 368.5L575 367.3L578.7 366.4L582.5 365.5L586.2 364.8L590 364.2L593.7 363.6L597.5 363L601.2 362.3L605 361.7L608.7 361.1L612.5 360.4L616.2 359.8L620 359.2L623.8 358.6L627.5 357.9L631.3 357.3L635 356.7L638.8 356" fill="none" stroke-width="1"></path></g><g><path stroke-linecap="round" stroke-linejoin="round" stroke="#ddd" d="M76.1 520.3L79.8 520.2L83.6 520L87.3 519.9L91.1 519.7L94.8 519.5L98.6 519.4L102.3 519.2L106.1 519L109.8 518.8L113.6 518.6L117.3 518.4L121.1 518.2L124.8 517.9L128.6 517.6L132.3 517.3L136.1 517L139.8 516.6L143.6 516.3L147.4 515.9L151.1 515.6L154.9 515.2L158.6 514.8L162.4 514.3L166.1 513.9L169.9 513.4L173.6 512.9L177.4 512.5L181.1 512L184.9 511.5L188.6 511.1L192.4 510.7L196.1 510.4L199.9 510.1L203.6 509.8L207.4 509.4L211.1 508.9L214.9 508.4L218.6 507.8L222.4 507.2L226.1 506.6L229.9 506L233.6 505.3L237.4 504.6L241.1 503.9L244.9 503.2L248.6 502.5L252.4 501.8L256.1 501.1L259.9 500.4L263.6 499.7L267.4 498.9L271.1 498.1L274.9 497.3L278.6 496.5L282.4 495.8L286.1 495L289.9 494.2L293.6 493.5L297.4 492.7L301.1 492L304.9 491.1L308.7 490L312.4 488.8L316.2 487.5L319.9 486L323.7 484.5L327.4 482.9L331.2 481.2L334.9 479.4L338.7 477.7L342.4 476.2" fill="none" stroke-width="1"></path></g><g><path fill="none" stroke-linecap="butt" stroke-linejoin="round" stroke="#fff" stroke-width="2.5" stroke-dasharray="2,3" d="M346.2 388.9L349.9 389.1L353.7 389.4L357.4 389.7L361.2 390.1L364.9 390.5L368.7 391L372.4 391.4L376.2 391.8L379.9 392.2L383.7 392.5L387.4 392.7L391.2 392.8L394.9 392.7L398.7 392.4L402.4 392L406.2 391.7L409.9 391.4L413.7 391L417.4 390.7L421.2 390.4L424.9 390.1L428.7 389.8L432.4 389.6L436.2 389.4L439.9 389.3L443.7 389.2L447.4 389.2L451.2 389.2L454.9 389.3L458.7 389.4L462.5 389.7L466.2 389.9L470 390.3L473.7 390.6L477.5 391L481.2 391.4L485 391.9L488.7 392.3L492.5 392.8L496.2 393.3L500 393.7L503.7 394.1L507.5 394.5L511.2 394.9L515 395.3L518.7 395.6L522.5 395.9L526.2 396.2L530 396.5L533.7 396.8L537.5 397.1L541.2 397.4L545 397.7L548.7 398L552.5 398.3L556.2 398.7L560 399.1L563.7 399.5L567.5 399.9L571.2 400.4L575 400.9L578.7 401.4L582.5 401.9L586.2 402.4L590 403L593.7 403.5L597.5 404.1L601.2 404.7L605 405.3L608.7 405.9L612.5 406.4L616.2 407L620 407.6L623.8 408.2L627.5 408.7L631.3 409.3L635 409.9L638.8 410.4"></path><polyline points="346.20,388.90 349.90,389.10 353.70,389.40 357.40,389.70 361.20,390.10 364.90,390.50 368.70,391.00 372.40,391.40 376.20,391.80 379.90,392.20 383.70,392.50 387.40,392.70 391.20,392.80 394.90,392.70 398.70,392.40 402.40,392.00 406.20,391.70 409.90,391.40 413.70,391.00 417.40,390.70 421.20,390.40 424.90,390.10 428.70,389.80 432.40,389.60 436.20,389.40 439.90,389.30 443.70,389.20 447.40,389.20 451.20,389.20 454.90,389.30 458.70,389.40 462.50,389.70 466.20,389.90 470.00,390.30 473.70,390.60 477.50,391.00 481.20,391.40 485.00,391.90 488.70,392.30 492.50,392.80 496.20,393.30 500.00,393.70 503.70,394.10 507.50,394.50 511.20,394.90 515.00,395.30 518.70,395.60 522.50,395.90 526.20,396.20 530.00,396.50 533.70,396.80 537.50,397.10 541.20,397.40 545.00,397.70 548.70,398.00 552.50,398.30 556.20,398.70 560.00,399.10 563.70,399.50 567.50,399.90 571.20,400.40 575.00,400.90 578.70,401.40 582.50,401.90 586.20,402.40 590.00,403.00 593.70,403.50 597.50,404.10 601.20,404.70 605.00,405.30 608.70,405.90 612.50,406.40 616.20,407.00 620.00,407.60 623.80,408.20 627.50,408.70 631.30,409.30 635.00,409.90 638.80,410.40" stroke-linejoin="round" stroke-width="1.5" stroke-dasharray="2,3" stroke="#be5915" fill="none" stroke-linecap="butt"></polyline></g><g><path fill="none" stroke-linecap="butt" stroke-linejoin="round" stroke="#fff" stroke-width="2.5" d="M76.1 468.8L79.8 467.4L83.6 465.9L87.3 464.3L91.1 462.5L94.8 460.5L98.6 458.6L102.3 456.4L106.1 454.2L109.8 452.3L113.6 450.6L117.3 449.2L121.1 447.4L124.8 445.1L128.6 442.9L132.3 440.8L136.1 439L139.8 437.3L143.6 435.6L147.4 433.9L151.1 432.2L154.9 430.5L158.6 429L162.4 427.5L166.1 425.8L169.9 424.3L173.6 422.8L177.4 421.6L181.1 421L184.9 420.5L188.6 419.6L192.4 418.7L196.1 417.4L199.9 416.3L203.6 415.3L207.4 414.3L211.1 413.1L214.9 411.8L218.6 410.4L222.4 409L226.1 407.4L229.9 405.9L233.6 404.6L237.4 403.3L241.1 402.3L244.9 401.5L248.6 400.9L252.4 400.5L256.1 400.2L259.9 400L263.6 399.8L267.4 399.7L271.1 399.8L274.9 399.9L278.6 399.9L282.4 400.1L286.1 400L289.9 399.6L293.6 399L297.4 398.3L301.1 397.5L304.9 396.6L308.7 395.6L312.4 394.5L316.2 393.4L319.9 392.4L323.7 391.5L327.4 390.6L331.2 389.8L334.9 389.3L338.7 389L342.4 388.9"></path><polyline points="76.10,468.80 79.80,467.40 83.60,465.90 87.30,464.30 91.10,462.50 94.80,460.50 98.60,458.60 102.30,456.40 106.10,454.20 109.80,452.30 113.60,450.60 117.30,449.20 121.10,447.40 124.80,445.10 128.60,442.90 132.30,440.80 136.10,439.00 139.80,437.30 143.60,435.60 147.40,433.90 151.10,432.20 154.90,430.50 158.60,429.00 162.40,427.50 166.10,425.80 169.90,424.30 173.60,422.80 177.40,421.60 181.10,421.00 184.90,420.50 188.60,419.60 192.40,418.70 196.10,417.40 199.90,416.30 203.60,415.30 207.40,414.30 211.10,413.10 214.90,411.80 218.60,410.40 222.40,409.00 226.10,407.40 229.90,405.90 233.60,404.60 237.40,403.30 241.10,402.30 244.90,401.50 248.60,400.90 252.40,400.50 256.10,400.20 259.90,400.00 263.60,399.80 267.40,399.70 271.10,399.80 274.90,399.90 278.60,399.90 282.40,400.10 286.10,400.00 289.90,399.60 293.60,399.00 297.40,398.30 301.10,397.50 304.90,396.60 308.70,395.60 312.40,394.50 316.20,393.40 319.90,392.40 323.70,391.50 327.40,390.60 331.20,389.80 334.90,389.30 338.70,389.00 342.40,388.90" stroke-linejoin="round" stroke-width="1.5" stroke="#be5915" fill="none" stroke-linecap="butt"></polyline><g><circle cx="76.1" cy="468.8" r="1.8" fill="#be5915"></circle><circle cx="79.8" cy="467.4" r="1.8" fill="#be5915"></circle><circle cx="83.6" cy="465.9" r="1.8" fill="#be5915"></circle><circle cx="87.3" cy="464.3" r="1.8" fill="#be5915"></circle><circle cx="91.1" cy="462.5" r="1.8" fill="#be5915"></circle><circle cx="94.8" cy="460.5" r="1.8" fill="#be5915"></circle><circle cx="98.6" cy="458.6" r="1.8" fill="#be5915"></circle><circle cx="102.3" cy="456.4" r="1.8" fill="#be5915"></circle><circle cx="106.1" cy="454.2" r="1.8" fill="#be5915"></circle><circle cx="109.8" cy="452.3" r="1.8" fill="#be5915"></circle><circle cx="113.6" cy="450.6" r="1.8" fill="#be5915"></circle><circle cx="117.3" cy="449.2" r="1.8" fill="#be5915"></circle><circle cx="121.1" cy="447.4" r="1.8" fill="#be5915"></circle><circle cx="124.8" cy="445.1" r="1.8" fill="#be5915"></circle><circle cx="128.6" cy="442.9" r="1.8" fill="#be5915"></circle><circle cx="132.3" cy="440.8" r="1.8" fill="#be5915"></circle><circle cx="136.1" cy="439" r="1.8" fill="#be5915"></circle><circle cx="139.8" cy="437.3" r="1.8" fill="#be5915"></circle><circle cx="143.6" cy="435.6" r="1.8" fill="#be5915"></circle><circle cx="147.4" cy="433.9" r="1.8" fill="#be5915"></circle><circle cx="151.1" cy="432.2" r="1.8" fill="#be5915"></circle><circle cx="154.9" cy="430.5" r="1.8" fill="#be5915"></circle><circle cx="158.6" cy="429" r="1.8" fill="#be5915"></circle><circle cx="162.4" cy="427.5" r="1.8" fill="#be5915"></circle><circle cx="166.1" cy="425.8" r="1.8" fill="#be5915"></circle><circle cx="169.9" cy="424.3" r="1.8" fill="#be5915"></circle><circle cx="173.6" cy="422.8" r="1.8" fill="#be5915"></circle><circle cx="177.4" cy="421.6" r="1.8" fill="#be5915"></circle><circle cx="181.1" cy="421" r="1.8" fill="#be5915"></circle><circle cx="184.9" cy="420.5" r="1.8" fill="#be5915"></circle><circle cx="188.6" cy="419.6" r="1.8" fill="#be5915"></circle><circle cx="192.4" cy="418.7" r="1.8" fill="#be5915"></circle><circle cx="196.1" cy="417.4" r="1.8" fill="#be5915"></circle><circle cx="199.9" cy="416.3" r="1.8" fill="#be5915"></circle><circle cx="203.6" cy="415.3" r="1.8" fill="#be5915"></circle><circle cx="207.4" cy="414.3" r="1.8" fill="#be5915"></circle><circle cx="211.1" cy="413.1" r="1.8" fill="#be5915"></circle><circle cx="214.9" cy="411.8" r="1.8" fill="#be5915"></circle><circle cx="218.6" cy="410.4" r="1.8" fill="#be5915"></circle><circle cx="222.4" cy="409" r="1.8" fill="#be5915"></circle><circle cx="226.1" cy="407.4" r="1.8" fill="#be5915"></circle><circle cx="229.9" cy="405.9" r="1.8" fill="#be5915"></circle><circle cx="233.6" cy="404.6" r="1.8" fill="#be5915"></circle><circle cx="237.4" cy="403.3" r="1.8" fill="#be5915"></circle><circle cx="241.1" cy="402.3" r="1.8" fill="#be5915"></circle><circle cx="244.9" cy="401.5" r="1.8" fill="#be5915"></circle><circle cx="248.6" cy="400.9" r="1.8" fill="#be5915"></circle><circle cx="252.4" cy="400.5" r="1.8" fill="#be5915"></circle><circle cx="256.1" cy="400.2" r="1.8" fill="#be5915"></circle><circle cx="259.9" cy="400" r="1.8" fill="#be5915"></circle><circle cx="263.6" cy="399.8" r="1.8" fill="#be5915"></circle><circle cx="267.4" cy="399.7" r="1.8" fill="#be5915"></circle><circle cx="271.1" cy="399.8" r="1.8" fill="#be5915"></circle><circle cx="274.9" cy="399.9" r="1.8" fill="#be5915"></circle><circle cx="278.6" cy="399.9" r="1.8" fill="#be5915"></circle><circle cx="282.4" cy="400.1" r="1.8" fill="#be5915"></circle><circle cx="286.1" cy="400" r="1.8" fill="#be5915"></circle><circle cx="289.9" cy="399.6" r="1.8" fill="#be5915"></circle><circle cx="293.6" cy="399" r="1.8" fill="#be5915"></circle><circle cx="297.4" cy="398.3" r="1.8" fill="#be5915"></circle><circle cx="301.1" cy="397.5" r="1.8" fill="#be5915"></circle><circle cx="304.9" cy="396.6" r="1.8" fill="#be5915"></circle><circle cx="308.7" cy="395.6" r="1.8" fill="#be5915"></circle><circle cx="312.4" cy="394.5" r="1.8" fill="#be5915"></circle><circle cx="316.2" cy="393.4" r="1.8" fill="#be5915"></circle><circle cx="319.9" cy="392.4" r="1.8" fill="#be5915"></circle><circle cx="323.7" cy="391.5" r="1.8" fill="#be5915"></circle><circle cx="327.4" cy="390.6" r="1.8" fill="#be5915"></circle><circle cx="331.2" cy="389.8" r="1.8" fill="#be5915"></circle><circle cx="334.9" cy="389.3" r="1.8" fill="#be5915"></circle><circle cx="338.7" cy="389" r="1.8" fill="#be5915"></circle><circle cx="342.4" cy="388.9" r="1.8" fill="#be5915"></circle></g></g><g><path fill="none" stroke-linecap="butt" stroke-linejoin="round" stroke="#fff" stroke-width="2.5" stroke-dasharray="2,3" d="M346.2 168.6L349.9 165.3L353.7 161.6L357.4 157.9L361.2 154.2L364.9 150.7L368.7 147.6L372.4 144.7L376.2 141.8L379.9 139L383.7 136.1L387.4 133.5L391.2 131.2L394.9 129.2L398.7 127.4L402.4 125.6L406.2 123.8L409.9 122L413.7 120.1L417.4 118.2L421.2 116.3L424.9 114.4L428.7 112.6L432.4 111L436.2 109.6L439.9 108.3L443.7 107L447.4 105.8L451.2 104.7L454.9 103.7L458.7 102.9L462.5 102.1L466.2 101.4L470 100.7L473.7 100L477.5 99L481.2 98L485 97L488.7 96L492.5 95L496.2 94.1L500 93.1L503.7 92.3L507.5 91.5L511.2 90.9L515 90.3L518.7 89.8L522.5 89.4L526.2 89.1L530 88.9L533.7 88.8L537.5 88.9L541.2 89.1L545 89.3L548.7 89.7L552.5 90.1L556.2 90.6L560 91.1L563.7 91.7L567.5 92.2L571.2 92.8L575 93.2L578.7 93.6L582.5 93.8L586.2 94L590 94.1L593.7 94.2L597.5 94.4L601.2 94.7L605 95L608.7 95.4L612.5 95.8L616.2 96.3L620 96.8L623.8 97.4L627.5 98.1L631.3 98.8L635 99.6L638.8 100.4"></path><polyline points="346.20,168.60 349.90,165.30 353.70,161.60 357.40,157.90 361.20,154.20 364.90,150.70 368.70,147.60 372.40,144.70 376.20,141.80 379.90,139.00 383.70,136.10 387.40,133.50 391.20,131.20 394.90,129.20 398.70,127.40 402.40,125.60 406.20,123.80 409.90,122.00 413.70,120.10 417.40,118.20 421.20,116.30 424.90,114.40 428.70,112.60 432.40,111.00 436.20,109.60 439.90,108.30 443.70,107.00 447.40,105.80 451.20,104.70 454.90,103.70 458.70,102.90 462.50,102.10 466.20,101.40 470.00,100.70 473.70,100.00 477.50,99.00 481.20,98.00 485.00,97.00 488.70,96.00 492.50,95.00 496.20,94.10 500.00,93.10 503.70,92.30 507.50,91.50 511.20,90.90 515.00,90.30 518.70,89.80 522.50,89.40 526.20,89.10 530.00,88.90 533.70,88.80 537.50,88.90 541.20,89.10 545.00,89.30 548.70,89.70 552.50,90.10 556.20,90.60 560.00,91.10 563.70,91.70 567.50,92.20 571.20,92.80 575.00,93.20 578.70,93.60 582.50,93.80 586.20,94.00 590.00,94.10 593.70,94.20 597.50,94.40 601.20,94.70 605.00,95.00 608.70,95.40 612.50,95.80 616.20,96.30 620.00,96.80 623.80,97.40 627.50,98.10 631.30,98.80 635.00,99.60 638.80,100.40" stroke-linejoin="round" stroke-width="1.5" stroke-dasharray="2,3" stroke="#2c8465" fill="none" stroke-linecap="butt"></polyline></g><g><path fill="none" stroke-linecap="butt" stroke-linejoin="round" stroke="#fff" stroke-width="2.5" d="M76.1 424.5L79.8 422.9L83.6 421.3L87.3 419.6L91.1 417.9L94.8 416.3L98.6 414.6L102.3 413L106.1 411.3L109.8 409.7L113.6 408.1L117.3 406.3L121.1 404.2L124.8 402L128.6 399.6L132.3 397L136.1 394.4L139.8 391.6L143.6 388.7L147.4 385.7L151.1 382.5L154.9 379.4L158.6 376.1L162.4 372.8L166.1 369.6L169.9 366.5L173.6 363.4L177.4 359.9L181.1 355.9L184.9 351.6L188.6 347.4L192.4 343.1L196.1 338.8L199.9 334.4L203.6 329.9L207.4 325.4L211.1 320.9L214.9 316.4L218.6 312L222.4 307.6L226.1 303.4L229.9 299.2L233.6 295.2L237.4 291.3L241.1 287.2L244.9 282.9L248.6 278.5L252.4 273.9L256.1 269.3L259.9 264.6L263.6 259.9L267.4 255L271.1 250.1L274.9 245.1L278.6 240.1L282.4 235.1L286.1 230.2L289.9 225.4L293.6 220.7L297.4 216.2L301.1 211.7L304.9 207.3L308.7 203.3L312.4 199.4L316.2 195.6L319.9 192L323.7 188.4L327.4 184.9L331.2 181.5L334.9 178.1L338.7 174.9L342.4 171.7"></path><polyline points="76.10,424.50 79.80,422.90 83.60,421.30 87.30,419.60 91.10,417.90 94.80,416.30 98.60,414.60 102.30,413.00 106.10,411.30 109.80,409.70 113.60,408.10 117.30,406.30 121.10,404.20 124.80,402.00 128.60,399.60 132.30,397.00 136.10,394.40 139.80,391.60 143.60,388.70 147.40,385.70 151.10,382.50 154.90,379.40 158.60,376.10 162.40,372.80 166.10,369.60 169.90,366.50 173.60,363.40 177.40,359.90 181.10,355.90 184.90,351.60 188.60,347.40 192.40,343.10 196.10,338.80 199.90,334.40 203.60,329.90 207.40,325.40 211.10,320.90 214.90,316.40 218.60,312.00 222.40,307.60 226.10,303.40 229.90,299.20 233.60,295.20 237.40,291.30 241.10,287.20 244.90,282.90 248.60,278.50 252.40,273.90 256.10,269.30 259.90,264.60 263.60,259.90 267.40,255.00 271.10,250.10 274.90,245.10 278.60,240.10 282.40,235.10 286.10,230.20 289.90,225.40 293.60,220.70 297.40,216.20 301.10,211.70 304.90,207.30 308.70,203.30 312.40,199.40 316.20,195.60 319.90,192.00 323.70,188.40 327.40,184.90 331.20,181.50 334.90,178.10 338.70,174.90 342.40,171.70" stroke-linejoin="round" stroke-width="1.5" stroke="#2c8465" fill="none" stroke-linecap="butt"></polyline><g><circle cx="76.1" cy="424.5" r="1.8" fill="#2c8465"></circle><circle cx="79.8" cy="422.9" r="1.8" fill="#2c8465"></circle><circle cx="83.6" cy="421.3" r="1.8" fill="#2c8465"></circle><circle cx="87.3" cy="419.6" r="1.8" fill="#2c8465"></circle><circle cx="91.1" cy="417.9" r="1.8" fill="#2c8465"></circle><circle cx="94.8" cy="416.3" r="1.8" fill="#2c8465"></circle><circle cx="98.6" cy="414.6" r="1.8" fill="#2c8465"></circle><circle cx="102.3" cy="413" r="1.8" fill="#2c8465"></circle><circle cx="106.1" cy="411.3" r="1.8" fill="#2c8465"></circle><circle cx="109.8" cy="409.7" r="1.8" fill="#2c8465"></circle><circle cx="113.6" cy="408.1" r="1.8" fill="#2c8465"></circle><circle cx="117.3" cy="406.3" r="1.8" fill="#2c8465"></circle><circle cx="121.1" cy="404.2" r="1.8" fill="#2c8465"></circle><circle cx="124.8" cy="402" r="1.8" fill="#2c8465"></circle><circle cx="128.6" cy="399.6" r="1.8" fill="#2c8465"></circle><circle cx="132.3" cy="397" r="1.8" fill="#2c8465"></circle><circle cx="136.1" cy="394.4" r="1.8" fill="#2c8465"></circle><circle cx="139.8" cy="391.6" r="1.8" fill="#2c8465"></circle><circle cx="143.6" cy="388.7" r="1.8" fill="#2c8465"></circle><circle cx="147.4" cy="385.7" r="1.8" fill="#2c8465"></circle><circle cx="151.1" cy="382.5" r="1.8" fill="#2c8465"></circle><circle cx="154.9" cy="379.4" r="1.8" fill="#2c8465"></circle><circle cx="158.6" cy="376.1" r="1.8" fill="#2c8465"></circle><circle cx="162.4" cy="372.8" r="1.8" fill="#2c8465"></circle><circle cx="166.1" cy="369.6" r="1.8" fill="#2c8465"></circle><circle cx="169.9" cy="366.5" r="1.8" fill="#2c8465"></circle><circle cx="173.6" cy="363.4" r="1.8" fill="#2c8465"></circle><circle cx="177.4" cy="359.9" r="1.8" fill="#2c8465"></circle><circle cx="181.1" cy="355.9" r="1.8" fill="#2c8465"></circle><circle cx="184.9" cy="351.6" r="1.8" fill="#2c8465"></circle><circle cx="188.6" cy="347.4" r="1.8" fill="#2c8465"></circle><circle cx="192.4" cy="343.1" r="1.8" fill="#2c8465"></circle><circle cx="196.1" cy="338.8" r="1.8" fill="#2c8465"></circle><circle cx="199.9" cy="334.4" r="1.8" fill="#2c8465"></circle><circle cx="203.6" cy="329.9" r="1.8" fill="#2c8465"></circle><circle cx="207.4" cy="325.4" r="1.8" fill="#2c8465"></circle><circle cx="211.1" cy="320.9" r="1.8" fill="#2c8465"></circle><circle cx="214.9" cy="316.4" r="1.8" fill="#2c8465"></circle><circle cx="218.6" cy="312" r="1.8" fill="#2c8465"></circle><circle cx="222.4" cy="307.6" r="1.8" fill="#2c8465"></circle><circle cx="226.1" cy="303.4" r="1.8" fill="#2c8465"></circle><circle cx="229.9" cy="299.2" r="1.8" fill="#2c8465"></circle><circle cx="233.6" cy="295.2" r="1.8" fill="#2c8465"></circle><circle cx="237.4" cy="291.3" r="1.8" fill="#2c8465"></circle><circle cx="241.1" cy="287.2" r="1.8" fill="#2c8465"></circle><circle cx="244.9" cy="282.9" r="1.8" fill="#2c8465"></circle><circle cx="248.6" cy="278.5" r="1.8" fill="#2c8465"></circle><circle cx="252.4" cy="273.9" r="1.8" fill="#2c8465"></circle><circle cx="256.1" cy="269.3" r="1.8" fill="#2c8465"></circle><circle cx="259.9" cy="264.6" r="1.8" fill="#2c8465"></circle><circle cx="263.6" cy="259.9" r="1.8" fill="#2c8465"></circle><circle cx="267.4" cy="255" r="1.8" fill="#2c8465"></circle><circle cx="271.1" cy="250.1" r="1.8" fill="#2c8465"></circle><circle cx="274.9" cy="245.1" r="1.8" fill="#2c8465"></circle><circle cx="278.6" cy="240.1" r="1.8" fill="#2c8465"></circle><circle cx="282.4" cy="235.1" r="1.8" fill="#2c8465"></circle><circle cx="286.1" cy="230.2" r="1.8" fill="#2c8465"></circle><circle cx="289.9" cy="225.4" r="1.8" fill="#2c8465"></circle><circle cx="293.6" cy="220.7" r="1.8" fill="#2c8465"></circle><circle cx="297.4" cy="216.2" r="1.8" fill="#2c8465"></circle><circle cx="301.1" cy="211.7" r="1.8" fill="#2c8465"></circle><circle cx="304.9" cy="207.3" r="1.8" fill="#2c8465"></circle><circle cx="308.7" cy="203.3" r="1.8" fill="#2c8465"></circle><circle cx="312.4" cy="199.4" r="1.8" fill="#2c8465"></circle><circle cx="316.2" cy="195.6" r="1.8" fill="#2c8465"></circle><circle cx="319.9" cy="192" r="1.8" fill="#2c8465"></circle><circle cx="323.7" cy="188.4" r="1.8" fill="#2c8465"></circle><circle cx="327.4" cy="184.9" r="1.8" fill="#2c8465"></circle><circle cx="331.2" cy="181.5" r="1.8" fill="#2c8465"></circle><circle cx="334.9" cy="178.1" r="1.8" fill="#2c8465"></circle><circle cx="338.7" cy="174.9" r="1.8" fill="#2c8465"></circle><circle cx="342.4" cy="171.7" r="1.8" fill="#2c8465"></circle></g></g><g><path fill="none" stroke-linecap="butt" stroke-linejoin="round" stroke="#fff" stroke-width="2.5" stroke-dasharray="2,3" d="M346.2 474.7L349.9 472.9L353.7 471.2L357.4 469.5L361.2 467.8L364.9 465.9L368.7 463.6L372.4 461.2L376.2 458.8L379.9 456.6L383.7 454.4L387.4 452.1L391.2 449.7L394.9 447.4L398.7 445L402.4 442.8L406.2 440.6L409.9 438.5L413.7 436.6L417.4 434.8L421.2 433L424.9 431.3L428.7 429.5L432.4 427.6L436.2 425.7L439.9 423.6L443.7 421.6L447.4 419.6L451.2 417.6L454.9 415.4L458.7 413.2L462.5 411L466.2 408.8L470 406.6L473.7 404.6L477.5 402.8L481.2 401.2L485 399.6L488.7 398.1L492.5 396.7L496.2 395.4L500 394.1L503.7 392.8L507.5 391.5L511.2 390.2L515 389L518.7 387.7L522.5 386.5L526.2 385.2L530 384L533.7 382.6L537.5 381.2L541.2 379.8L545 378.4L548.7 376.9L552.5 375.5L556.2 374L560 372.6L563.7 371.2L567.5 369.8L571.2 368.5L575 367.3L578.7 366.4L582.5 365.5L586.2 364.8L590 364.2L593.7 363.6L597.5 363L601.2 362.3L605 361.7L608.7 361.1L612.5 360.4L616.2 359.8L620 359.2L623.8 358.6L627.5 357.9L631.3 357.3L635 356.7L638.8 356"></path><polyline points="346.20,474.70 349.90,472.90 353.70,471.20 357.40,469.50 361.20,467.80 364.90,465.90 368.70,463.60 372.40,461.20 376.20,458.80 379.90,456.60 383.70,454.40 387.40,452.10 391.20,449.70 394.90,447.40 398.70,445.00 402.40,442.80 406.20,440.60 409.90,438.50 413.70,436.60 417.40,434.80 421.20,433.00 424.90,431.30 428.70,429.50 432.40,427.60 436.20,425.70 439.90,423.60 443.70,421.60 447.40,419.60 451.20,417.60 454.90,415.40 458.70,413.20 462.50,411.00 466.20,408.80 470.00,406.60 473.70,404.60 477.50,402.80 481.20,401.20 485.00,399.60 488.70,398.10 492.50,396.70 496.20,395.40 500.00,394.10 503.70,392.80 507.50,391.50 511.20,390.20 515.00,389.00 518.70,387.70 522.50,386.50 526.20,385.20 530.00,384.00 533.70,382.60 537.50,381.20 541.20,379.80 545.00,378.40 548.70,376.90 552.50,375.50 556.20,374.00 560.00,372.60 563.70,371.20 567.50,369.80 571.20,368.50 575.00,367.30 578.70,366.40 582.50,365.50 586.20,364.80 590.00,364.20 593.70,363.60 597.50,363.00 601.20,362.30 605.00,361.70 608.70,361.10 612.50,360.40 616.20,359.80 620.00,359.20 623.80,358.60 627.50,357.90 631.30,357.30 635.00,356.70 638.80,356.00" stroke-linejoin="round" stroke-width="1.5" stroke-dasharray="2,3" stroke="#c15065" fill="none" stroke-linecap="butt"></polyline></g><g><path fill="none" stroke-linecap="butt" stroke-linejoin="round" stroke="#fff" stroke-width="2.5" d="M76.1 520.3L79.8 520.2L83.6 520L87.3 519.9L91.1 519.7L94.8 519.5L98.6 519.4L102.3 519.2L106.1 519L109.8 518.8L113.6 518.6L117.3 518.4L121.1 518.2L124.8 517.9L128.6 517.6L132.3 517.3L136.1 517L139.8 516.6L143.6 516.3L147.4 515.9L151.1 515.6L154.9 515.2L158.6 514.8L162.4 514.3L166.1 513.9L169.9 513.4L173.6 512.9L177.4 512.5L181.1 512L184.9 511.5L188.6 511.1L192.4 510.7L196.1 510.4L199.9 510.1L203.6 509.8L207.4 509.4L211.1 508.9L214.9 508.4L218.6 507.8L222.4 507.2L226.1 506.6L229.9 506L233.6 505.3L237.4 504.6L241.1 503.9L244.9 503.2L248.6 502.5L252.4 501.8L256.1 501.1L259.9 500.4L263.6 499.7L267.4 498.9L271.1 498.1L274.9 497.3L278.6 496.5L282.4 495.8L286.1 495L289.9 494.2L293.6 493.5L297.4 492.7L301.1 492L304.9 491.1L308.7 490L312.4 488.8L316.2 487.5L319.9 486L323.7 484.5L327.4 482.9L331.2 481.2L334.9 479.4L338.7 477.7L342.4 476.2"></path><polyline points="76.10,520.30 79.80,520.20 83.60,520.00 87.30,519.90 91.10,519.70 94.80,519.50 98.60,519.40 102.30,519.20 106.10,519.00 109.80,518.80 113.60,518.60 117.30,518.40 121.10,518.20 124.80,517.90 128.60,517.60 132.30,517.30 136.10,517.00 139.80,516.60 143.60,516.30 147.40,515.90 151.10,515.60 154.90,515.20 158.60,514.80 162.40,514.30 166.10,513.90 169.90,513.40 173.60,512.90 177.40,512.50 181.10,512.00 184.90,511.50 188.60,511.10 192.40,510.70 196.10,510.40 199.90,510.10 203.60,509.80 207.40,509.40 211.10,508.90 214.90,508.40 218.60,507.80 222.40,507.20 226.10,506.60 229.90,506.00 233.60,505.30 237.40,504.60 241.10,503.90 244.90,503.20 248.60,502.50 252.40,501.80 256.10,501.10 259.90,500.40 263.60,499.70 267.40,498.90 271.10,498.10 274.90,497.30 278.60,496.50 282.40,495.80 286.10,495.00 289.90,494.20 293.60,493.50 297.40,492.70 301.10,492.00 304.90,491.10 308.70,490.00 312.40,488.80 316.20,487.50 319.90,486.00 323.70,484.50 327.40,482.90 331.20,481.20 334.90,479.40 338.70,477.70 342.40,476.20" stroke-linejoin="round" stroke-width="1.5" stroke="#c15065" fill="none" stroke-linecap="butt"></polyline><g><circle cx="76.1" cy="520.3" r="1.8" fill="#c15065"></circle><circle cx="79.8" cy="520.2" r="1.8" fill="#c15065"></circle><circle cx="83.6" cy="520" r="1.8" fill="#c15065"></circle><circle cx="87.3" cy="519.9" r="1.8" fill="#c15065"></circle><circle cx="91.1" cy="519.7" r="1.8" fill="#c15065"></circle><circle cx="94.8" cy="519.5" r="1.8" fill="#c15065"></circle><circle cx="98.6" cy="519.4" r="1.8" fill="#c15065"></circle><circle cx="102.3" cy="519.2" r="1.8" fill="#c15065"></circle><circle cx="106.1" cy="519" r="1.8" fill="#c15065"></circle><circle cx="109.8" cy="518.8" r="1.8" fill="#c15065"></circle><circle cx="113.6" cy="518.6" r="1.8" fill="#c15065"></circle><circle cx="117.3" cy="518.4" r="1.8" fill="#c15065"></circle><circle cx="121.1" cy="518.2" r="1.8" fill="#c15065"></circle><circle cx="124.8" cy="517.9" r="1.8" fill="#c15065"></circle><circle cx="128.6" cy="517.6" r="1.8" fill="#c15065"></circle><circle cx="132.3" cy="517.3" r="1.8" fill="#c15065"></circle><circle cx="136.1" cy="517" r="1.8" fill="#c15065"></circle><circle cx="139.8" cy="516.6" r="1.8" fill="#c15065"></circle><circle cx="143.6" cy="516.3" r="1.8" fill="#c15065"></circle><circle cx="147.4" cy="515.9" r="1.8" fill="#c15065"></circle><circle cx="151.1" cy="515.6" r="1.8" fill="#c15065"></circle><circle cx="154.9" cy="515.2" r="1.8" fill="#c15065"></circle><circle cx="158.6" cy="514.8" r="1.8" fill="#c15065"></circle><circle cx="162.4" cy="514.3" r="1.8" fill="#c15065"></circle><circle cx="166.1" cy="513.9" r="1.8" fill="#c15065"></circle><circle cx="169.9" cy="513.4" r="1.8" fill="#c15065"></circle><circle cx="173.6" cy="512.9" r="1.8" fill="#c15065"></circle><circle cx="177.4" cy="512.5" r="1.8" fill="#c15065"></circle><circle cx="181.1" cy="512" r="1.8" fill="#c15065"></circle><circle cx="184.9" cy="511.5" r="1.8" fill="#c15065"></circle><circle cx="188.6" cy="511.1" r="1.8" fill="#c15065"></circle><circle cx="192.4" cy="510.7" r="1.8" fill="#c15065"></circle><circle cx="196.1" cy="510.4" r="1.8" fill="#c15065"></circle><circle cx="199.9" cy="510.1" r="1.8" fill="#c15065"></circle><circle cx="203.6" cy="509.8" r="1.8" fill="#c15065"></circle><circle cx="207.4" cy="509.4" r="1.8" fill="#c15065"></circle><circle cx="211.1" cy="508.9" r="1.8" fill="#c15065"></circle><circle cx="214.9" cy="508.4" r="1.8" fill="#c15065"></circle><circle cx="218.6" cy="507.8" r="1.8" fill="#c15065"></circle><circle cx="222.4" cy="507.2" r="1.8" fill="#c15065"></circle><circle cx="226.1" cy="506.6" r="1.8" fill="#c15065"></circle><circle cx="229.9" cy="506" r="1.8" fill="#c15065"></circle><circle cx="233.6" cy="505.3" r="1.8" fill="#c15065"></circle><circle cx="237.4" cy="504.6" r="1.8" fill="#c15065"></circle><circle cx="241.1" cy="503.9" r="1.8" fill="#c15065"></circle><circle cx="244.9" cy="503.2" r="1.8" fill="#c15065"></circle><circle cx="248.6" cy="502.5" r="1.8" fill="#c15065"></circle><circle cx="252.4" cy="501.8" r="1.8" fill="#c15065"></circle><circle cx="256.1" cy="501.1" r="1.8" fill="#c15065"></circle><circle cx="259.9" cy="500.4" r="1.8" fill="#c15065"></circle><circle cx="263.6" cy="499.7" r="1.8" fill="#c15065"></circle><circle cx="267.4" cy="498.9" r="1.8" fill="#c15065"></circle><circle cx="271.1" cy="498.1" r="1.8" fill="#c15065"></circle><circle cx="274.9" cy="497.3" r="1.8" fill="#c15065"></circle><circle cx="278.6" cy="496.5" r="1.8" fill="#c15065"></circle><circle cx="282.4" cy="495.8" r="1.8" fill="#c15065"></circle><circle cx="286.1" cy="495" r="1.8" fill="#c15065"></circle><circle cx="289.9" cy="494.2" r="1.8" fill="#c15065"></circle><circle cx="293.6" cy="493.5" r="1.8" fill="#c15065"></circle><circle cx="297.4" cy="492.7" r="1.8" fill="#c15065"></circle><circle cx="301.1" cy="492" r="1.8" fill="#c15065"></circle><circle cx="304.9" cy="491.1" r="1.8" fill="#c15065"></circle><circle cx="308.7" cy="490" r="1.8" fill="#c15065"></circle><circle cx="312.4" cy="488.8" r="1.8" fill="#c15065"></circle><circle cx="316.2" cy="487.5" r="1.8" fill="#c15065"></circle><circle cx="319.9" cy="486" r="1.8" fill="#c15065"></circle><circle cx="323.7" cy="484.5" r="1.8" fill="#c15065"></circle><circle cx="327.4" cy="482.9" r="1.8" fill="#c15065"></circle><circle cx="331.2" cy="481.2" r="1.8" fill="#c15065"></circle><circle cx="334.9" cy="479.4" r="1.8" fill="#c15065"></circle><circle cx="338.7" cy="477.7" r="1.8" fill="#c15065"></circle><circle cx="342.4" cy="476.2" r="1.8" fill="#c15065"></circle></g></g></g></g></g><g class="SourcesFooter" style="fill:#5b5b5b"><text x="16.0" y="581.0" style="font-size:13px;line-height:1.2"><tspan x="16" y="581.0"><tspan style="font-weight:700">Data source:</tspan> United Nations, World Population Prospects (2022)</tspan></text><text font-size="13.00" x="586.5" y="581.0"><tspan x="586.48" y="581.01"><a target="_blank" style="fill: #5b5b5b; text-decoration: underline;" href="https://ourworldindata.org/age-structure">OurWorldInData.org/age-structure</a> | <a target="_blank" style="fill: #5b5b5b; text-decoration: underline;" href="https://creativecommons.org/licenses/by/4.0/">CC BY</a></tspan></text></g></svg>