<svg xmlns="http://www.w3.org/2000/svg" version="1.1" style="font-family:Lato, &#x27;Helvetica Neue&#x27;, Helvetica, Arial, sans-serif;font-size:18px;background-color:white;text-rendering:geometricPrecision;-webkit-font-smoothing:antialiased" width="850" height="600" viewBox="0 0 850 600"><g class="HeaderView"><g transform="translate(774, 15) scale(0.29)"><svg className="owidLog" width="210" height="120" viewBox="0 0 210 120" fill="none" xmlns="http://www.w3.org/2000/svg">
<g clip-path="url(#clip0)">
  <path d="M0 0h210v107.89H0V0z" fill="#002147" />
  <path
    d="M40.98 32.25c0 2.36-.38 4.53-1.12 6.51a14.26 14.26 0 0 1-8.1 8.4c-1.9.78-4.02 1.17-6.34 1.17-2.31 0-4.42-.39-6.33-1.17a14.31 14.31 0 0 1-8.08-8.4 18.29 18.29 0 0 1-1.12-6.51c0-2.36.38-4.53 1.12-6.5.75-1.97 1.8-3.67 3.17-5.1a14.32 14.32 0 0 1 4.9-3.34c1.92-.8 4.03-1.19 6.34-1.19 2.32 0 4.43.4 6.34 1.19 1.92.8 3.56 1.9 4.93 3.34a14.87 14.87 0 0 1 3.17 5.1 18.1 18.1 0 0 1 1.12 6.5zm-4.38 0c0-1.94-.26-3.68-.8-5.22a10.91 10.91 0 0 0-2.24-3.89 9.68 9.68 0 0 0-3.52-2.46 11.95 11.95 0 0 0-4.62-.86c-1.68 0-3.21.28-4.6.86a9.88 9.88 0 0 0-3.54 2.46 10.91 10.91 0 0 0-2.24 3.9c-.53 1.53-.8 3.27-.8 5.2 0 1.94.27 3.68.8 5.22a11.17 11.17 0 0 0 2.24 3.9 10.01 10.01 0 0 0 3.55 2.44c1.38.56 2.9.83 4.6.83s3.24-.27 4.61-.83a9.8 9.8 0 0 0 3.52-2.44 11.17 11.17 0 0 0 2.25-3.9c.53-1.54.8-3.28.8-5.21zm26.22-6.54V48H60.5c-.56 0-.9-.27-1.05-.81l-.31-2.4a12.45 12.45 0 0 1-3.26 2.6c-1.2.64-2.58.96-4.13.96-1.22 0-2.3-.2-3.24-.6a6.52 6.52 0 0 1-2.33-1.7 7.37 7.37 0 0 1-1.43-2.67c-.3-1.04-.46-2.2-.46-3.45V25.7h3.91v14.22c0 1.68.38 2.99 1.15 3.91.77.93 1.96 1.39 3.54 1.39 1.16 0 2.24-.27 3.23-.82a10.42 10.42 0 0 0 2.8-2.28V25.7h3.91zm8.61 4.47a9.94 9.94 0 0 1 2.6-3.56 5.64 5.64 0 0 1 3.76-1.3c.47 0 .92.05 1.34.15.44.1.83.27 1.17.49l-.3 2.92c-.09.37-.3.55-.66.55-.2 0-.5-.04-.9-.13a6.21 6.21 0 0 0-3.24.18 4.23 4.23 0 0 0-1.47.92c-.42.4-.81.9-1.17 1.5-.33.58-.64 1.26-.92 2.02V48H67.7V25.71h2.25c.42 0 .72.08.88.25.16.16.27.44.33.83l.26 3.39zm61.16-13.7L122.75 48h-3.82l-7.99-24.05a21.95 21.95 0 0 1-.42-1.58 38.36 38.36 0 0 1-.44 1.58L102.05 48h-3.83L88.4 16.47h3.54c.38 0 .7.1.95.29.26.2.43.43.5.73l6.52 21.9.28 1.28.29 1.46.3-1.46.38-1.27 7.41-21.91c.1-.25.26-.48.51-.69.27-.22.58-.33.95-.33h1.23c.38 0 .69.1.92.29a1.77 1.77 0 0 1 .53.73l7.4 21.9a28.4 28.4 0 0 1 .68 2.62 29.52 29.52 0 0 1 .52-2.61l6.54-21.91a1.31 1.31 0 0 1 .48-.7c.27-.21.58-.32.95-.32h3.32zm9.35 8.88c1.63 0 3.1.27 4.4.82a9.43 9.43 0 0 1 5.46 5.94c.5 1.4.74 2.98.74 4.73 0 1.76-.25 3.34-.74 4.75a9.43 9.43 0 0 1-5.46 5.92c-1.3.52-2.77.79-4.4.79-1.64 0-3.12-.27-4.44-.8a9.42 9.42 0 0 1-3.35-2.3c-.92-1-1.63-2.2-2.13-3.61-.49-1.41-.73-3-.73-4.75s.24-3.33.73-4.73c.5-1.43 1.2-2.64 2.13-3.63.93-1 2.04-1.77 3.35-2.31 1.32-.55 2.8-.82 4.44-.82zm0 19.89c2.2 0 3.84-.73 4.93-2.2 1.08-1.48 1.63-3.54 1.63-6.18 0-2.66-.55-4.72-1.63-6.2-1.09-1.49-2.73-2.23-4.93-2.23-1.12 0-2.09.2-2.93.57a5.71 5.71 0 0 0-2.06 1.65c-.55.72-.96 1.61-1.24 2.67-.26 1.04-.4 2.22-.4 3.54 0 2.64.55 4.7 1.64 6.18 1.1 1.47 2.76 2.2 4.99 2.2zm17.97-15.07a9.94 9.94 0 0 1 2.6-3.56 5.64 5.64 0 0 1 3.76-1.3c.47 0 .91.05 1.34.15.44.1.83.27 1.16.49l-.28 2.92c-.09.37-.31.55-.66.55-.2 0-.5-.04-.9-.13a6.2 6.2 0 0 0-3.24.18 4.23 4.23 0 0 0-1.47.92c-.43.4-.82.9-1.17 1.5a13.1 13.1 0 0 0-.92 2.02V48h-3.94V25.71h2.24c.43 0 .72.08.88.25.17.16.28.44.33.83l.27 3.39zm15.04-14.59V48h-3.92V15.6h3.92zm19.55 15.43a6.22 6.22 0 0 0-2.38-2.05 6.7 6.7 0 0 0-2.86-.6c-2.07 0-3.66.75-4.77 2.23-1.12 1.48-1.68 3.6-1.68 6.33 0 1.46.13 2.7.38 3.74a7.29 7.29 0 0 0 1.1 2.56 4.35 4.35 0 0 0 1.78 1.45c.7.3 1.5.46 2.4.46 1.29 0 2.41-.3 3.36-.88a9.6 9.6 0 0 0 2.67-2.49V31.02zm3.91-15.43V48h-2.33c-.56 0-.9-.27-1.06-.81l-.35-2.71a12.13 12.13 0 0 1-3.25 2.77 8.28 8.28 0 0 1-4.23 1.06 7.31 7.31 0 0 1-6.14-2.9c-.73-.96-1.3-2.15-1.69-3.57a18.35 18.35 0 0 1 .07-9.48 11.29 11.29 0 0 1 1.89-3.7 8.7 8.7 0 0 1 7.06-3.34 7.96 7.96 0 0 1 6.12 2.62V15.59h3.91zM46.61 70.71V93H42.7V70.71h3.91zm.84-7c0 .39-.08.75-.24 1.09-.15.32-.35.61-.62.88-.25.25-.55.44-.9.59a2.67 2.67 0 0 1-2.16 0 2.9 2.9 0 0 1-1.45-1.47 2.67 2.67 0 0 1 0-2.16c.15-.35.35-.65.6-.9.25-.27.53-.47.85-.62a2.67 2.67 0 0 1 2.16 0c.35.15.65.35.9.62.27.25.47.55.62.9.16.34.24.7.24 1.08zm7.97 10.24c.49-.54 1-1.04 1.54-1.48a9.85 9.85 0 0 1 3.66-1.84 8.96 8.96 0 0 1 5.43.35c.94.4 1.72.97 2.33 1.71.63.74 1.11 1.62 1.43 2.67.32 1.04.49 2.19.49 3.45V93h-3.94V78.81c0-1.69-.4-3-1.17-3.92-.76-.93-1.93-1.4-3.5-1.4-1.15 0-2.24.27-3.25.83-1 .56-1.92 1.31-2.77 2.27V93h-3.94V70.71h2.35c.56 0 .9.28 1.04.82l.3 2.42zm57.7 3.3c0 2.36-.37 4.5-1.11 6.44a14.3 14.3 0 0 1-3.17 4.98c-1.37 1.37-3 2.45-4.93 3.2-1.9.76-4.02 1.13-6.33 1.13H85.8V61.47h11.77c2.31 0 4.42.39 6.33 1.15a13.8 13.8 0 0 1 8.1 8.18 17.75 17.75 0 0 1 1.12 6.45zm-4.37 0c0-1.94-.26-3.67-.8-5.2a10.94 10.94 0 0 0-2.23-3.87 9.57 9.57 0 0 0-3.53-2.42 12.23 12.23 0 0 0-4.61-.83h-7.5v24.62h7.5c1.7 0 3.24-.28 4.61-.84a9.7 9.7 0 0 0 3.53-2.4 10.94 10.94 0 0 0 2.24-3.87c.53-1.53.8-3.26.8-5.2zm19.8 5.72c-1.8.06-3.34.2-4.62.44-1.26.22-2.3.51-3.1.88-.8.36-1.37.8-1.74 1.3-.35.5-.53 1.05-.53 1.67 0 .58.1 1.1.3 1.52a3 3 0 0 0 .76 1.05c.34.27.73.46 1.17.6a6.13 6.13 0 0 0 1.45.17 7.28 7.28 0 0 0 3.5-.81 11.95 11.95 0 0 0 2.82-2.2v-4.62zm-12.65-9.11a12.73 12.73 0 0 1 3.98-2.66c1.43-.59 3-.88 4.73-.88 1.25 0 2.36.2 3.33.61a6.81 6.81 0 0 1 3.94 4.38c.33 1.04.5 2.19.5 3.43V93h-1.74a1.8 1.8 0 0 1-.88-.18c-.2-.13-.36-.38-.48-.74l-.44-2.12-1.72 1.46a9.48 9.48 0 0 1-3.74 1.7c-.69.15-1.46.23-2.3.23-.87 0-1.69-.12-2.45-.35a5.34 5.34 0 0 1-3.34-2.93 6.64 6.64 0 0 1-.49-2.64c0-.88.25-1.72.73-2.53a6.33 6.33 0 0 1 2.35-2.17c1.09-.63 2.5-1.15 4.25-1.54 1.75-.41 3.89-.65 6.42-.7v-1.75c0-1.73-.37-3.03-1.12-3.91-.75-.9-1.84-1.34-3.28-1.34-.97 0-1.78.12-2.44.37-.64.23-1.2.5-1.7.81l-1.23.82c-.33.23-.67.35-1 .35-.27 0-.5-.07-.69-.2a2.1 2.1 0 0 1-.48-.53l-.7-1.25zm27.67 19.5c-1.76 0-3.12-.5-4.07-1.48-.94-.98-1.41-2.4-1.41-4.25V74h-2.68a.9.9 0 0 1-.6-.2c-.16-.14-.24-.36-.24-.66v-1.56l3.65-.46.9-6.89c.05-.22.14-.4.29-.52a.88.88 0 0 1 .62-.22H142v7.67h6.44V74H142v13.38c0 .94.22 1.63.68 2.09.45.45 1.04.68 1.76.68a3.21 3.21 0 0 0 1.85-.53l.55-.35c.16-.12.3-.18.41-.18.2 0 .4.13.55.38l1.15 1.87a7.45 7.45 0 0 1-2.44 1.5 8.53 8.53 0 0 1-2.95.52zm19.68-10.4c-1.8.07-3.34.21-4.62.45-1.26.22-2.3.51-3.1.88-.8.36-1.37.8-1.74 1.3-.35.5-.53 1.05-.53 1.67 0 .58.1 1.1.3 1.52a2.9 2.9 0 0 0 .76 1.05c.34.27.73.46 1.17.6a6.13 6.13 0 0 0 1.45.17 7.3 7.3 0 0 0 3.5-.81 12.04 12.04 0 0 0 2.82-2.2v-4.62zm-12.65-9.1a12.72 12.72 0 0 1 3.99-2.66c1.42-.59 3-.88 4.72-.88 1.25 0 2.36.2 3.33.61a6.81 6.81 0 0 1 3.94 4.38c.33 1.04.5 2.19.5 3.43V93h-1.74a1.8 1.8 0 0 1-.88-.18c-.2-.13-.36-.38-.48-.74l-.44-2.12-1.72 1.46a9.48 9.48 0 0 1-3.74 1.7c-.69.15-1.46.23-2.3.23-.87 0-1.69-.12-2.45-.35a5.33 5.33 0 0 1-3.34-2.93 6.62 6.62 0 0 1-.49-2.64c0-.88.25-1.72.73-2.53a6.33 6.33 0 0 1 2.35-2.17c1.09-.63 2.5-1.15 4.25-1.54 1.74-.41 3.89-.65 6.42-.7v-1.75c0-1.73-.37-3.03-1.12-3.91-.75-.9-1.84-1.34-3.28-1.34-.97 0-1.78.12-2.44.37-.64.23-1.2.5-1.7.81l-1.22.82c-.34.23-.68.35-1.02.35-.26 0-.49-.07-.68-.2a1.88 1.88 0 0 1-.48-.53l-.7-1.25zM40.98 32.25c0 2.36-.38 4.53-1.12 6.51a14.26 14.26 0 0 1-8.1 8.4c-1.9.78-4.02 1.17-6.34 1.17-2.31 0-4.42-.39-6.33-1.17a14.31 14.31 0 0 1-8.08-8.4 18.29 18.29 0 0 1-1.12-6.51c0-2.36.38-4.53 1.12-6.5.75-1.97 1.8-3.67 3.17-5.1a14.32 14.32 0 0 1 4.9-3.34c1.92-.8 4.03-1.19 6.34-1.19 2.32 0 4.43.4 6.34 1.19 1.92.8 3.56 1.9 4.93 3.34a14.87 14.87 0 0 1 3.17 5.1 18.1 18.1 0 0 1 1.12 6.5zm-4.38 0c0-1.94-.26-3.68-.8-5.22a10.91 10.91 0 0 0-2.24-3.89 9.68 9.68 0 0 0-3.52-2.46 11.95 11.95 0 0 0-4.62-.86c-1.68 0-3.21.28-4.6.86a9.88 9.88 0 0 0-3.54 2.46 10.91 10.91 0 0 0-2.24 3.9c-.53 1.53-.8 3.27-.8 5.2 0 1.94.27 3.68.8 5.22a11.17 11.17 0 0 0 2.24 3.9 10.01 10.01 0 0 0 3.55 2.44c1.38.56 2.9.83 4.6.83s3.24-.27 4.61-.83a9.8 9.8 0 0 0 3.52-2.44 11.17 11.17 0 0 0 2.25-3.9c.53-1.54.8-3.28.8-5.21zm26.22-6.54V48H60.5c-.56 0-.9-.27-1.05-.81l-.31-2.4a12.45 12.45 0 0 1-3.26 2.6c-1.2.64-2.58.96-4.13.96-1.22 0-2.3-.2-3.24-.6a6.52 6.52 0 0 1-2.33-1.7 7.37 7.37 0 0 1-1.43-2.67c-.3-1.04-.46-2.2-.46-3.45V25.7h3.91v14.22c0 1.68.38 2.99 1.15 3.91.77.93 1.96 1.39 3.54 1.39 1.16 0 2.24-.27 3.23-.82a10.42 10.42 0 0 0 2.8-2.28V25.7h3.91zm8.61 4.47a9.94 9.94 0 0 1 2.6-3.56 5.64 5.64 0 0 1 3.76-1.3c.47 0 .92.05 1.34.15.44.1.83.27 1.17.49l-.3 2.92c-.09.37-.3.55-.66.55-.2 0-.5-.04-.9-.13a6.21 6.21 0 0 0-3.24.18 4.23 4.23 0 0 0-1.47.92c-.42.4-.81.9-1.17 1.5-.33.58-.64 1.26-.92 2.02V48H67.7V25.71h2.25c.42 0 .72.08.88.25.16.16.27.44.33.83l.26 3.39zm61.16-13.7L122.75 48h-3.82l-7.99-24.05a21.95 21.95 0 0 1-.42-1.58 38.36 38.36 0 0 1-.44 1.58L102.05 48h-3.83L88.4 16.47h3.54c.38 0 .7.1.95.29.26.2.43.43.5.73l6.52 21.9.28 1.28.29 1.46.3-1.46.38-1.27 7.41-21.91c.1-.25.26-.48.51-.69.27-.22.58-.33.95-.33h1.23c.38 0 .69.1.92.29a1.77 1.77 0 0 1 .53.73l7.4 21.9a28.4 28.4 0 0 1 .68 2.62 29.52 29.52 0 0 1 .52-2.61l6.54-21.91a1.31 1.31 0 0 1 .48-.7c.27-.21.58-.32.95-.32h3.32zm9.35 8.88c1.63 0 3.1.27 4.4.82a9.43 9.43 0 0 1 5.46 5.94c.5 1.4.74 2.98.74 4.73 0 1.76-.25 3.34-.74 4.75a9.43 9.43 0 0 1-5.46 5.92c-1.3.52-2.77.79-4.4.79-1.64 0-3.12-.27-4.44-.8a9.42 9.42 0 0 1-3.35-2.3c-.92-1-1.63-2.2-2.13-3.61-.49-1.41-.73-3-.73-4.75s.24-3.33.73-4.73c.5-1.43 1.2-2.64 2.13-3.63.93-1 2.04-1.77 3.35-2.31 1.32-.55 2.8-.82 4.44-.82zm0 19.89c2.2 0 3.84-.73 4.93-2.2 1.08-1.48 1.63-3.54 1.63-6.18 0-2.66-.55-4.72-1.63-6.2-1.09-1.49-2.73-2.23-4.93-2.23-1.12 0-2.09.2-2.93.57a5.71 5.71 0 0 0-2.06 1.65c-.55.72-.96 1.61-1.24 2.67-.26 1.04-.4 2.22-.4 3.54 0 2.64.55 4.7 1.64 6.18 1.1 1.47 2.76 2.2 4.99 2.2zm17.97-15.07a9.94 9.94 0 0 1 2.6-3.56 5.64 5.64 0 0 1 3.76-1.3c.47 0 .91.05 1.34.15.44.1.83.27 1.16.49l-.28 2.92c-.09.37-.31.55-.66.55-.2 0-.5-.04-.9-.13a6.2 6.2 0 0 0-3.24.18 4.23 4.23 0 0 0-1.47.92c-.43.4-.82.9-1.17 1.5a13.1 13.1 0 0 0-.92 2.02V48h-3.94V25.71h2.24c.43 0 .72.08.88.25.17.16.28.44.33.83l.27 3.39zm15.04-14.59V48h-3.92V15.6h3.92zm19.55 15.43a6.22 6.22 0 0 0-2.38-2.05 6.7 6.7 0 0 0-2.86-.6c-2.07 0-3.66.75-4.77 2.23-1.12 1.48-1.68 3.6-1.68 6.33 0 1.46.13 2.7.38 3.74a7.29 7.29 0 0 0 1.1 2.56 4.35 4.35 0 0 0 1.78 1.45c.7.3 1.5.46 2.4.46 1.29 0 2.41-.3 3.36-.88a9.6 9.6 0 0 0 2.67-2.49V31.02zm3.91-15.43V48h-2.33c-.56 0-.9-.27-1.06-.81l-.35-2.71a12.13 12.13 0 0 1-3.25 2.77 8.28 8.28 0 0 1-4.23 1.06 7.31 7.31 0 0 1-6.14-2.9c-.73-.96-1.3-2.15-1.69-3.57a18.35 18.35 0 0 1 .07-9.48 11.29 11.29 0 0 1 1.89-3.7 8.7 8.7 0 0 1 7.06-3.34 7.96 7.96 0 0 1 6.12 2.62V15.59h3.91zM46.61 70.71V93H42.7V70.71h3.91zm.84-7c0 .39-.08.75-.24 1.09-.15.32-.35.61-.62.88-.25.25-.55.44-.9.59a2.67 2.67 0 0 1-2.16 0 2.9 2.9 0 0 1-1.45-1.47 2.67 2.67 0 0 1 0-2.16c.15-.35.35-.65.6-.9.25-.27.53-.47.85-.62a2.67 2.67 0 0 1 2.16 0c.35.15.65.35.9.62.27.25.47.55.62.9.16.34.24.7.24 1.08zm7.97 10.24c.49-.54 1-1.04 1.54-1.48a9.85 9.85 0 0 1 3.66-1.84 8.96 8.96 0 0 1 5.43.35c.94.4 1.72.97 2.33 1.71.63.74 1.11 1.62 1.43 2.67.32 1.04.49 2.19.49 3.45V93h-3.94V78.81c0-1.69-.4-3-1.17-3.92-.76-.93-1.93-1.4-3.5-1.4-1.15 0-2.24.27-3.25.83-1 .56-1.92 1.31-2.77 2.27V93h-3.94V70.71h2.35c.56 0 .9.28 1.04.82l.3 2.42zm57.7 3.3c0 2.36-.37 4.5-1.11 6.44a14.3 14.3 0 0 1-3.17 4.98c-1.37 1.37-3 2.45-4.93 3.2-1.9.76-4.02 1.13-6.33 1.13H85.8V61.47h11.77c2.31 0 4.42.39 6.33 1.15a13.8 13.8 0 0 1 8.1 8.18 17.75 17.75 0 0 1 1.12 6.45zm-4.37 0c0-1.94-.26-3.67-.8-5.2a10.94 10.94 0 0 0-2.23-3.87 9.57 9.57 0 0 0-3.53-2.42 12.23 12.23 0 0 0-4.61-.83h-7.5v24.62h7.5c1.7 0 3.24-.28 4.61-.84a9.7 9.7 0 0 0 3.53-2.4 10.94 10.94 0 0 0 2.24-3.87c.53-1.53.8-3.26.8-5.2zm19.8 5.72c-1.8.06-3.34.2-4.62.44-1.26.22-2.3.51-3.1.88-.8.36-1.37.8-1.74 1.3-.35.5-.53 1.05-.53 1.67 0 .58.1 1.1.3 1.52a3 3 0 0 0 .76 1.05c.34.27.73.46 1.17.6a6.13 6.13 0 0 0 1.45.17 7.28 7.28 0 0 0 3.5-.81 11.95 11.95 0 0 0 2.82-2.2v-4.62zm-12.65-9.11a12.73 12.73 0 0 1 3.98-2.66c1.43-.59 3-.88 4.73-.88 1.25 0 2.36.2 3.33.61a6.81 6.81 0 0 1 3.94 4.38c.33 1.04.5 2.19.5 3.43V93h-1.74a1.8 1.8 0 0 1-.88-.18c-.2-.13-.36-.38-.48-.74l-.44-2.12-1.72 1.46a9.48 9.48 0 0 1-3.74 1.7c-.69.15-1.46.23-2.3.23-.87 0-1.69-.12-2.45-.35a5.34 5.34 0 0 1-3.34-2.93 6.64 6.64 0 0 1-.49-2.64c0-.88.25-1.72.73-2.53a6.33 6.33 0 0 1 2.35-2.17c1.09-.63 2.5-1.15 4.25-1.54 1.75-.41 3.89-.65 6.42-.7v-1.75c0-1.73-.37-3.03-1.12-3.91-.75-.9-1.84-1.34-3.28-1.34-.97 0-1.78.12-2.44.37-.64.23-1.2.5-1.7.81l-1.23.82c-.33.23-.67.35-1 .35-.27 0-.5-.07-.69-.2a2.1 2.1 0 0 1-.48-.53l-.7-1.25zm27.67 19.5c-1.76 0-3.12-.5-4.07-1.48-.94-.98-1.41-2.4-1.41-4.25V74h-2.68a.9.9 0 0 1-.6-.2c-.16-.14-.24-.36-.24-.66v-1.56l3.65-.46.9-6.89c.05-.22.14-.4.29-.52a.88.88 0 0 1 .62-.22H142v7.67h6.44V74H142v13.38c0 .94.22 1.63.68 2.09.45.45 1.04.68 1.76.68a3.21 3.21 0 0 0 1.85-.53l.55-.35c.16-.12.3-.18.41-.18.2 0 .4.13.55.38l1.15 1.87a7.45 7.45 0 0 1-2.44 1.5 8.53 8.53 0 0 1-2.95.52zm19.68-10.4c-1.8.07-3.34.21-4.62.45-1.26.22-2.3.51-3.1.88-.8.36-1.37.8-1.74 1.3-.35.5-.53 1.05-.53 1.67 0 .58.1 1.1.3 1.52a2.9 2.9 0 0 0 .76 1.05c.34.27.73.46 1.17.6a6.13 6.13 0 0 0 1.45.17 7.3 7.3 0 0 0 3.5-.81 12.04 12.04 0 0 0 2.82-2.2v-4.62zm-12.65-9.1a12.72 12.72 0 0 1 3.99-2.66c1.42-.59 3-.88 4.72-.88 1.25 0 2.36.2 3.33.61a6.81 6.81 0 0 1 3.94 4.38c.33 1.04.5 2.19.5 3.43V93h-1.74a1.8 1.8 0 0 1-.88-.18c-.2-.13-.36-.38-.48-.74l-.44-2.12-1.72 1.46a9.48 9.48 0 0 1-3.74 1.7c-.69.15-1.46.23-2.3.23-.87 0-1.69-.12-2.45-.35a5.33 5.33 0 0 1-3.34-2.93 6.62 6.62 0 0 1-.49-2.64c0-.88.25-1.72.73-2.53a6.33 6.33 0 0 1 2.35-2.17c1.09-.63 2.5-1.15 4.25-1.54 1.74-.41 3.89-.65 6.42-.7v-1.75c0-1.73-.37-3.03-1.12-3.91-.75-.9-1.84-1.34-3.28-1.34-.97 0-1.78.12-2.44.37-.64.23-1.2.5-1.7.81l-1.22.82c-.34.23-.68.35-1.02.35-.26 0-.49-.07-.68-.2a1.88 1.88 0 0 1-.48-.53l-.7-1.25zM40.98 32.25c0 2.36-.38 4.53-1.12 6.51a14.26 14.26 0 0 1-8.1 8.4c-1.9.78-4.02 1.17-6.34 1.17-2.31 0-4.42-.39-6.33-1.17a14.31 14.31 0 0 1-8.08-8.4 18.29 18.29 0 0 1-1.12-6.51c0-2.36.38-4.53 1.12-6.5.75-1.97 1.8-3.67 3.17-5.1a14.32 14.32 0 0 1 4.9-3.34c1.92-.8 4.03-1.19 6.34-1.19 2.32 0 4.43.4 6.34 1.19 1.92.8 3.56 1.9 4.93 3.34a14.87 14.87 0 0 1 3.17 5.1 18.1 18.1 0 0 1 1.12 6.5zm-4.38 0c0-1.94-.26-3.68-.8-5.22a10.91 10.91 0 0 0-2.24-3.89 9.68 9.68 0 0 0-3.52-2.46 11.95 11.95 0 0 0-4.62-.86c-1.68 0-3.21.28-4.6.86a9.88 9.88 0 0 0-3.54 2.46 10.91 10.91 0 0 0-2.24 3.9c-.53 1.53-.8 3.27-.8 5.2 0 1.94.27 3.68.8 5.22a11.17 11.17 0 0 0 2.24 3.9 10.01 10.01 0 0 0 3.55 2.44c1.38.56 2.9.83 4.6.83s3.24-.27 4.61-.83a9.8 9.8 0 0 0 3.52-2.44 11.17 11.17 0 0 0 2.25-3.9c.53-1.54.8-3.28.8-5.21zm26.22-6.54V48H60.5c-.56 0-.9-.27-1.05-.81l-.31-2.4a12.45 12.45 0 0 1-3.26 2.6c-1.2.64-2.58.96-4.13.96-1.22 0-2.3-.2-3.24-.6a6.52 6.52 0 0 1-2.33-1.7 7.37 7.37 0 0 1-1.43-2.67c-.3-1.04-.46-2.2-.46-3.45V25.7h3.91v14.22c0 1.68.38 2.99 1.15 3.91.77.93 1.96 1.39 3.54 1.39 1.16 0 2.24-.27 3.23-.82a10.42 10.42 0 0 0 2.8-2.28V25.7h3.91zm8.61 4.47a9.94 9.94 0 0 1 2.6-3.56 5.64 5.64 0 0 1 3.76-1.3c.47 0 .92.05 1.34.15.44.1.83.27 1.17.49l-.3 2.92c-.09.37-.3.55-.66.55-.2 0-.5-.04-.9-.13a6.21 6.21 0 0 0-3.24.18 4.23 4.23 0 0 0-1.47.92c-.42.4-.81.9-1.17 1.5-.33.58-.64 1.26-.92 2.02V48H67.7V25.71h2.25c.42 0 .72.08.88.25.16.16.27.44.33.83l.26 3.39zm61.16-13.7L122.75 48h-3.82l-7.99-24.05a21.95 21.95 0 0 1-.42-1.58 38.36 38.36 0 0 1-.44 1.58L102.05 48h-3.83L88.4 16.47h3.54c.38 0 .7.1.95.29.26.2.43.43.5.73l6.52 21.9.28 1.28.29 1.46.3-1.46.38-1.27 7.41-21.91c.1-.25.26-.48.51-.69.27-.22.58-.33.95-.33h1.23c.38 0 .69.1.92.29a1.77 1.77 0 0 1 .53.73l7.4 21.9a28.4 28.4 0 0 1 .68 2.62 29.52 29.52 0 0 1 .52-2.61l6.54-21.91a1.31 1.31 0 0 1 .48-.7c.27-.21.58-.32.95-.32h3.32zm9.35 8.88c1.63 0 3.1.27 4.4.82a9.43 9.43 0 0 1 5.46 5.94c.5 1.4.74 2.98.74 4.73 0 1.76-.25 3.34-.74 4.75a9.43 9.43 0 0 1-5.46 5.92c-1.3.52-2.77.79-4.4.79-1.64 0-3.12-.27-4.44-.8a9.42 9.42 0 0 1-3.35-2.3c-.92-1-1.63-2.2-2.13-3.61-.49-1.41-.73-3-.73-4.75s.24-3.33.73-4.73c.5-1.43 1.2-2.64 2.13-3.63.93-1 2.04-1.77 3.35-2.31 1.32-.55 2.8-.82 4.44-.82zm0 19.89c2.2 0 3.84-.73 4.93-2.2 1.08-1.48 1.63-3.54 1.63-6.18 0-2.66-.55-4.72-1.63-6.2-1.09-1.49-2.73-2.23-4.93-2.23-1.12 0-2.09.2-2.93.57a5.71 5.71 0 0 0-2.06 1.65c-.55.72-.96 1.61-1.24 2.67-.26 1.04-.4 2.22-.4 3.54 0 2.64.55 4.7 1.64 6.18 1.1 1.47 2.76 2.2 4.99 2.2zm17.97-15.07a9.94 9.94 0 0 1 2.6-3.56 5.64 5.64 0 0 1 3.76-1.3c.47 0 .91.05 1.34.15.44.1.83.27 1.16.49l-.28 2.92c-.09.37-.31.55-.66.55-.2 0-.5-.04-.9-.13a6.2 6.2 0 0 0-3.24.18 4.23 4.23 0 0 0-1.47.92c-.43.4-.82.9-1.17 1.5a13.1 13.1 0 0 0-.92 2.02V48h-3.94V25.71h2.24c.43 0 .72.08.88.25.17.16.28.44.33.83l.27 3.39zm15.04-14.59V48h-3.92V15.6h3.92zm19.55 15.43a6.22 6.22 0 0 0-2.38-2.05 6.7 6.7 0 0 0-2.86-.6c-2.07 0-3.66.75-4.77 2.23-1.12 1.48-1.68 3.6-1.68 6.33 0 1.46.13 2.7.38 3.74a7.29 7.29 0 0 0 1.1 2.56 4.35 4.35 0 0 0 1.78 1.45c.7.3 1.5.46 2.4.46 1.29 0 2.41-.3 3.36-.88a9.6 9.6 0 0 0 2.67-2.49V31.02zm3.91-15.43V48h-2.33c-.56 0-.9-.27-1.06-.81l-.35-2.71a12.13 12.13 0 0 1-3.25 2.77 8.28 8.28 0 0 1-4.23 1.06 7.31 7.31 0 0 1-6.14-2.9c-.73-.96-1.3-2.15-1.69-3.57a18.35 18.35 0 0 1 .07-9.48 11.29 11.29 0 0 1 1.89-3.7 8.7 8.7 0 0 1 7.06-3.34 7.96 7.96 0 0 1 6.12 2.62V15.59h3.91zM46.61 70.71V93H42.7V70.71h3.91zm.84-7c0 .39-.08.75-.24 1.09-.15.32-.35.61-.62.88-.25.25-.55.44-.9.59a2.67 2.67 0 0 1-2.16 0 2.9 2.9 0 0 1-1.45-1.47 2.67 2.67 0 0 1 0-2.16c.15-.35.35-.65.6-.9.25-.27.53-.47.85-.62a2.67 2.67 0 0 1 2.16 0c.35.15.65.35.9.62.27.25.47.55.62.9.16.34.24.7.24 1.08zm7.97 10.24c.49-.54 1-1.04 1.54-1.48a9.85 9.85 0 0 1 3.66-1.84 8.96 8.96 0 0 1 5.43.35c.94.4 1.72.97 2.33 1.71.63.74 1.11 1.62 1.43 2.67.32 1.04.49 2.19.49 3.45V93h-3.94V78.81c0-1.69-.4-3-1.17-3.92-.76-.93-1.93-1.4-3.5-1.4-1.15 0-2.24.27-3.25.83-1 .56-1.92 1.31-2.77 2.27V93h-3.94V70.71h2.35c.56 0 .9.28 1.04.82l.3 2.42zm57.7 3.3c0 2.36-.37 4.5-1.11 6.44a14.3 14.3 0 0 1-3.17 4.98c-1.37 1.37-3 2.45-4.93 3.2-1.9.76-4.02 1.13-6.33 1.13H85.8V61.47h11.77c2.31 0 4.42.39 6.33 1.15a13.8 13.8 0 0 1 8.1 8.18 17.75 17.75 0 0 1 1.12 6.45zm-4.37 0c0-1.94-.26-3.67-.8-5.2a10.94 10.94 0 0 0-2.23-3.87 9.57 9.57 0 0 0-3.53-2.42 12.23 12.23 0 0 0-4.61-.83h-7.5v24.62h7.5c1.7 0 3.24-.28 4.61-.84a9.7 9.7 0 0 0 3.53-2.4 10.94 10.94 0 0 0 2.24-3.87c.53-1.53.8-3.26.8-5.2zm19.8 5.72c-1.8.06-3.34.2-4.62.44-1.26.22-2.3.51-3.1.88-.8.36-1.37.8-1.74 1.3-.35.5-.53 1.05-.53 1.67 0 .58.1 1.1.3 1.52a3 3 0 0 0 .76 1.05c.34.27.73.46 1.17.6a6.13 6.13 0 0 0 1.45.17 7.28 7.28 0 0 0 3.5-.81 11.95 11.95 0 0 0 2.82-2.2v-4.62zm-12.65-9.11a12.73 12.73 0 0 1 3.98-2.66c1.43-.59 3-.88 4.73-.88 1.25 0 2.36.2 3.33.61a6.81 6.81 0 0 1 3.94 4.38c.33 1.04.5 2.19.5 3.43V93h-1.74a1.8 1.8 0 0 1-.88-.18c-.2-.13-.36-.38-.48-.74l-.44-2.12-1.72 1.46a9.48 9.48 0 0 1-3.74 1.7c-.69.15-1.46.23-2.3.23-.87 0-1.69-.12-2.45-.35a5.34 5.34 0 0 1-3.34-2.93 6.64 6.64 0 0 1-.49-2.64c0-.88.25-1.72.73-2.53a6.33 6.33 0 0 1 2.35-2.17c1.09-.63 2.5-1.15 4.25-1.54 1.75-.41 3.89-.65 6.42-.7v-1.75c0-1.73-.37-3.03-1.12-3.91-.75-.9-1.84-1.34-3.28-1.34-.97 0-1.78.12-2.44.37-.64.23-1.2.5-1.7.81l-1.23.82c-.33.23-.67.35-1 .35-.27 0-.5-.07-.69-.2a2.1 2.1 0 0 1-.48-.53l-.7-1.25zm27.67 19.5c-1.76 0-3.12-.5-4.07-1.48-.94-.98-1.41-2.4-1.41-4.25V74h-2.68a.9.9 0 0 1-.6-.2c-.16-.14-.24-.36-.24-.66v-1.56l3.65-.46.9-6.89c.05-.22.14-.4.29-.52a.88.88 0 0 1 .62-.22H142v7.67h6.44V74H142v13.38c0 .94.22 1.63.68 2.09.45.45 1.04.68 1.76.68a3.21 3.21 0 0 0 1.85-.53l.55-.35c.16-.12.3-.18.41-.18.2 0 .4.13.55.38l1.15 1.87a7.45 7.45 0 0 1-2.44 1.5 8.53 8.53 0 0 1-2.95.52zm19.68-10.4c-1.8.07-3.34.21-4.62.45-1.26.22-2.3.51-3.1.88-.8.36-1.37.8-1.74 1.3-.35.5-.53 1.05-.53 1.67 0 .58.1 1.1.3 1.52a2.9 2.9 0 0 0 .76 1.05c.34.27.73.46 1.17.6a6.13 6.13 0 0 0 1.45.17 7.3 7.3 0 0 0 3.5-.81 12.04 12.04 0 0 0 2.82-2.2v-4.62zm-12.65-9.1a12.72 12.72 0 0 1 3.99-2.66c1.42-.59 3-.88 4.72-.88 1.25 0 2.36.2 3.33.61a6.81 6.81 0 0 1 3.94 4.38c.33 1.04.5 2.19.5 3.43V93h-1.74a1.8 1.8 0 0 1-.88-.18c-.2-.13-.36-.38-.48-.74l-.44-2.12-1.72 1.46a9.48 9.48 0 0 1-3.74 1.7c-.69.15-1.46.23-2.3.23-.87 0-1.69-.12-2.45-.35a5.33 5.33 0 0 1-3.34-2.93 6.62 6.62 0 0 1-.49-2.64c0-.88.25-1.72.73-2.53a6.33 6.33 0 0 1 2.35-2.17c1.09-.63 2.5-1.15 4.25-1.54 1.74-.41 3.89-.65 6.42-.7v-1.75c0-1.73-.37-3.03-1.12-3.91-.75-.9-1.84-1.34-3.28-1.34-.97 0-1.78.12-2.44.37-.64.23-1.2.5-1.7.81l-1.22.82c-.34.23-.68.35-1.02.35-.26 0-.49-.07-.68-.2a1.88 1.88 0 0 1-.48-.53l-.7-1.25z"
    fill="#fff"
  />
  <path fill="#D42B21" d="M0 106.79h210V120H0z" />
</g>
<defs>
  <clipPath id="clip0"><path fill="#fff" d="M0 0h210v120H0z" /></clipPath>
</defs>
</svg></g><a href="http://localhost:3030/grapher/prevalence-of-alcohol-use-disorders-by-age?country=~OWID_WRL" style="font-family:&quot;Playfair Display&quot;, Georgia, &quot;Times New Roman&quot;, serif" target="_blank" rel="noopener"><text font-size="25.20" x="15.0" y="35.2" fill="#555"><tspan x="15" y="35.160000000000004">Prevalence of alcohol use disorders by age, World, 1990 to 2017</tspan></text></a><text font-size="14.40" x="15.0" y="55.7" fill="#666"><tspan x="15" y="55.72">Share of the population within particular age categories suffering from alcohol use disorders. Alcohol dependence</tspan><tspan x="15" y="73">is defined by the International Classification of Diseases as the presence of three or more indicators of dependence</tspan><tspan x="15" y="90.28">for at least a month within the previous year.</tspan></text></g><g class="LineChart"><defs><clipPath id="boundsClip-1"><rect x="47.098" y="97.8" width="840" height="459.59999999999997"></rect></clipPath></defs><g class="DualAxisView"><g class="HorizontalAxis"><line x1="57.1" y1="526.1999999999999" x2="57.1" y2="531.1999999999999" stroke="#999"></line><line x1="693.8" y1="526.1999999999999" x2="693.8" y2="531.1999999999999" stroke="#999"></line><line x1="175" y1="526.1999999999999" x2="175" y2="531.1999999999999" stroke="#999"></line><line x1="292.9" y1="526.1999999999999" x2="292.9" y2="531.1999999999999" stroke="#999"></line><line x1="410.8" y1="526.1999999999999" x2="410.8" y2="531.1999999999999" stroke="#999"></line><line x1="528.7" y1="526.1999999999999" x2="528.7" y2="531.1999999999999" stroke="#999"></line><text x="57.098" y="547.4" fill="#666" text-anchor="start" font-size="16.2">1990</text><text x="693.755" y="547.4" fill="#666" text-anchor="end" font-size="16.2">2017</text><text x="175" y="547.4" fill="#666" text-anchor="middle" font-size="16.2">1995</text><text x="292.9" y="547.4" fill="#666" text-anchor="middle" font-size="16.2">2000</text><text x="410.8" y="547.4" fill="#666" text-anchor="middle" font-size="16.2">2005</text><text x="528.7" y="547.4" fill="#666" text-anchor="middle" font-size="16.2">2010</text></g><g class="VerticalAxis"><text x="52.10" y="526.2" dy=".32em" text-anchor="end" fill="#666" font-size="16.2">0%</text><text x="52.10" y="450.7" dy=".32em" text-anchor="end" fill="#666" font-size="16.2">0.5%</text><text x="52.10" y="375.2" dy=".32em" text-anchor="end" fill="#666" font-size="16.2">1%</text><text x="52.10" y="299.7" dy=".32em" text-anchor="end" fill="#666" font-size="16.2">1.5%</text><text x="52.10" y="224.2" dy=".32em" text-anchor="end" fill="#666" font-size="16.2">2%</text><text x="52.10" y="148.7" dy=".32em" text-anchor="end" fill="#666" font-size="16.2">2.5%</text></g><g class="AxisGridLines horizontalLines"><line x1="57.10" y1="526.2" x2="693.75" y2="526.2" stroke="#999"></line><line x1="57.10" y1="450.7" x2="693.75" y2="450.7" stroke="#ddd" stroke-dasharray="3,2"></line><line x1="57.10" y1="375.2" x2="693.75" y2="375.2" stroke="#ddd" stroke-dasharray="3,2"></line><line x1="57.10" y1="299.7" x2="693.75" y2="299.7" stroke="#ddd" stroke-dasharray="3,2"></line><line x1="57.10" y1="224.2" x2="693.75" y2="224.2" stroke="#ddd" stroke-dasharray="3,2"></line><line x1="57.10" y1="148.7" x2="693.75" y2="148.7" stroke="#ddd" stroke-dasharray="3,2"></line></g></g><g clip-path="url(#boundsClip-1)"><g class="LineLabels" style="cursor:default"><g class="legendMark"><g class="indicator"><path d="M697.755,135.1 H711.255 V132.45 H724.755" stroke="#999" stroke-width="0.5" fill="none"></path></g><rect x="693.755" y="125.7" width="128.42000000000002" height="13.5" fill="#fff" opacity="0"></rect><text font-size="13.50" x="728.8" y="136.5" fill="#CF0A66"><tspan x="728.755" y="136.5">30-34 years old</tspan></text></g><g class="legendMark"><g class="indicator"><path d="M697.755,145.3 H711.255 V147.95 H724.755" stroke="#999" stroke-width="0.5" fill="none"></path></g><rect x="693.755" y="141.2" width="128.42000000000002" height="13.5" fill="#fff" opacity="0"></rect><text font-size="13.50" x="728.8" y="152.0" fill="#6D3E91"><tspan x="728.755" y="152">25-29 years old</tspan></text></g><g class="legendMark"><g class="indicator"><path d="M697.755,207.5 H711.255 V200.45 H724.755" stroke="#999" stroke-width="0.5" fill="none"></path></g><rect x="693.755" y="193.7" width="128.42000000000002" height="13.5" fill="#fff" opacity="0"></rect><text font-size="13.50" x="728.8" y="204.5" fill="#4C6A9C"><tspan x="728.755" y="204.5">15-49 years old</tspan></text></g><g class="legendMark"><g class="indicator"><path d="M697.755,208.9 H711.255 V215.95 H724.755" stroke="#999" stroke-width="0.5" fill="none"></path></g><rect x="693.755" y="209.2" width="128.42000000000002" height="13.5" fill="#fff" opacity="0"></rect><text font-size="13.50" x="728.8" y="220.0" fill="#883039"><tspan x="728.755" y="220">20-24 years old</tspan></text></g><g class="legendMark"><g class="indicator"><path d="M697.755,268.8 H711.255 V268.8 H724.755" stroke="#999" stroke-width="0.5" fill="none"></path></g><rect x="693.755" y="262.05" width="128.42000000000002" height="13.5" fill="#fff" opacity="0"></rect><text font-size="13.50" x="728.8" y="272.9" fill="#D73C50"><tspan x="728.755" y="272.85">50-69 years old</tspan></text></g><g class="legendMark"><g class="indicator"><path d="M697.755,306.1 H711.255 V302.95000000000005 H724.755" stroke="#999" stroke-width="0.5" fill="none"></path></g><rect x="693.755" y="296.20000000000005" width="83.195" height="13.5" fill="#fff" opacity="0"></rect><text font-size="13.50" x="728.8" y="307.0" fill="#00847E"><tspan x="728.755" y="307.00000000000006">All ages</tspan></text></g><g class="legendMark"><g class="indicator"><path d="M697.755,315.3 H711.255 V318.45000000000005 H724.755" stroke="#999" stroke-width="0.5" fill="none"></path></g><rect x="693.755" y="311.70000000000005" width="141.245" height="13.5" fill="#fff" opacity="0"></rect><text font-size="13.50" x="728.8" y="322.5" fill="#287669"><tspan x="728.755" y="322.50000000000006">Age-standardized</tspan></text></g><g class="legendMark"><g class="indicator"><path d="M697.755,402.7 H711.255 V395.54999999999995 H724.755" stroke="#999" stroke-width="0.5" fill="none"></path></g><rect x="693.755" y="388.79999999999995" width="128.42000000000002" height="13.5" fill="#fff" opacity="0"></rect><text font-size="13.50" x="728.8" y="399.6" fill="#B13507"><tspan x="728.755" y="399.59999999999997">15-19 years old</tspan></text></g><g class="legendMark"><g class="indicator"><path d="M697.755,403.9 H711.255 V411.04999999999995 H724.755" stroke="#999" stroke-width="0.5" fill="none"></path></g><rect x="693.755" y="404.29999999999995" width="116.67500000000001" height="13.5" fill="#fff" opacity="0"></rect><text font-size="13.50" x="728.8" y="415.1" fill="#00823F"><tspan x="728.755" y="415.09999999999997">70+ years old</tspan></text></g><g class="legendMark"><g class="indicator"><path d="M697.755,513.4 H706.755 V503.94999999999993 H724.755" stroke="#999" stroke-width="0.5" fill="none"></path></g><rect x="693.755" y="497.19999999999993" width="128.42000000000002" height="13.5" fill="#fff" opacity="0"></rect><text font-size="13.50" x="728.8" y="508.0" fill="#3C4E66"><tspan x="728.755" y="507.99999999999994">10-14 years old</tspan></text></g><g class="legendMark"><g class="indicator"><path d="M697.755,519.6 H715.755 V519.4499999999999 H724.755" stroke="#999" stroke-width="0.5" fill="none"></path></g><rect x="693.755" y="512.6999999999999" width="120.86" height="13.5" fill="#fff" opacity="0"></rect><text font-size="13.50" x="728.8" y="523.5" fill="#C05917"><tspan x="728.755" y="523.4999999999999">5-14 years old</tspan></text></g></g><g class="Lines"><rect x="57" y="108" width="637" height="418" fill="rgba(255,255,255,0)" opacity="0"></rect><g><path stroke-linecap="round" stroke-linejoin="round" stroke="#ddd" d="M57.1 309L80.7 308.1L104.3 307.3L127.8 306.6L151.4 306.1L175 305.8L198.6 305.1L222.2 303.7L245.7 302.1L269.3 300.9L292.9 300.5L316.5 301.2L340.1 302.3L363.6 303.6L387.2 304.8L410.8 305.5L434.4 305.9L458 306.4L481.5 306.9L505.1 307.5L528.7 308.2L552.3 309L575.9 309.8L599.4 310.7L623 311.7L646.6 312.8L670.2 314L693.8 315.3" fill="none" stroke-width="1"></path></g><g><path stroke-linecap="round" stroke-linejoin="round" stroke="#ddd" d="M57.1 260.5L80.7 255L104.3 250.6L127.8 248.5L151.4 248.3L175 249.7L198.6 251.4L222.2 252.1L245.7 252.7L269.3 252.8L292.9 252.9L316.5 253.4L340.1 254.3L363.6 255.2L387.2 255.8L410.8 255.9L434.4 255.6L458 255.3L481.5 254.9L505.1 254.7L528.7 254.8L552.3 255.3L575.9 256.4L599.4 257.7L623 259.6L646.6 262.2L670.2 265.2L693.8 268.8" fill="none" stroke-width="1"></path></g><g><path stroke-linecap="round" stroke-linejoin="round" stroke="#ddd" d="M57.1 519.8L80.7 519.8L104.3 519.8L127.8 519.8L151.4 519.7L175 519.7L198.6 519.6L222.2 519.5L245.7 519.4L269.3 519.3L292.9 519.2L316.5 519.2L340.1 519.2L363.6 519.2L387.2 519.2L410.8 519.2L434.4 519.3L458 519.4L481.5 519.4L505.1 519.5L528.7 519.5L552.3 519.5L575.9 519.5L599.4 519.6L623 519.6L646.6 519.6L670.2 519.6L693.8 519.6" fill="none" stroke-width="1"></path></g><g><path stroke-linecap="round" stroke-linejoin="round" stroke="#ddd" d="M57.1 202.3L80.7 201.9L104.3 201.3L127.8 200.2L151.4 199L175 197.7L198.6 195.6L222.2 192.4L245.7 189.2L269.3 186.9L292.9 186.3L316.5 187.7L340.1 190.2L363.6 192.8L387.2 195L410.8 196.3L434.4 196.8L458 197.5L481.5 198.2L505.1 199.1L528.7 199.9L552.3 200.7L575.9 201.6L599.4 202.5L623 203.6L646.6 204.8L670.2 206.1L693.8 207.5" fill="none" stroke-width="1"></path></g><g><path stroke-linecap="round" stroke-linejoin="round" stroke="#ddd" d="M57.1 414.4L80.7 412.2L104.3 410L127.8 408.1L151.4 406.7L175 405.6L198.6 404.8L222.2 403.9L245.7 403.1L269.3 402.4L292.9 402L316.5 401.8L340.1 401.9L363.6 402.1L387.2 402.4L410.8 402.7L434.4 402.5L458 401.6L481.5 400.4L505.1 399.5L528.7 399.2L552.3 399.6L575.9 400.1L599.4 401.2L623 402.3L646.6 403.3L670.2 403.8L693.8 403.9" fill="none" stroke-width="1"></path></g><g><path stroke-linecap="round" stroke-linejoin="round" stroke="#ddd" d="M57.1 209.4L80.7 209.6L104.3 209.1L127.8 208.6L151.4 207.8L175 206.8L198.6 204.4L222.2 199.8L245.7 194.4L269.3 189.7L292.9 186.9L316.5 186.3L340.1 186.7L363.6 187.8L387.2 189.4L410.8 191L434.4 192.8L458 195.2L481.5 197.7L505.1 199.8L528.7 201.4L552.3 202.4L575.9 203.1L599.4 204L623 205L646.6 206.1L670.2 207.4L693.8 208.9" fill="none" stroke-width="1"></path></g><g><path stroke-linecap="round" stroke-linejoin="round" stroke="#ddd" d="M57.1 107.8L80.7 108.1L104.3 110.1L127.8 113.9L151.4 118.3L175 123L198.6 125.2L222.2 124.7L245.7 122.6L269.3 120.1L292.9 118.6L316.5 119.2L340.1 120.8L363.6 122.9L387.2 124.5L410.8 124.8L434.4 124.3L458 124.2L481.5 124.4L505.1 125L528.7 125.6L552.3 126.3L575.9 127.1L599.4 128.1L623 129.3L646.6 131L670.2 133L693.8 135.1" fill="none" stroke-width="1"></path></g><g><path stroke-linecap="round" stroke-linejoin="round" stroke="#ddd" d="M57.1 127.3L80.7 134L104.3 139.4L127.8 143.1L151.4 144.9L175 144.6L198.6 141.9L222.2 136.5L245.7 130.6L269.3 125.6L292.9 122.8L316.5 122.4L340.1 122.9L363.6 123.4L387.2 123.8L410.8 123.5L434.4 123.1L458 123.6L481.5 124.9L505.1 126.8L528.7 129L552.3 131.5L575.9 134.4L599.4 137.4L623 140L646.6 142.2L670.2 143.9L693.8 145.3" fill="none" stroke-width="1"></path></g><g><path stroke-linecap="round" stroke-linejoin="round" stroke="#ddd" d="M57.1 318.4L80.7 316.8L104.3 315.3L127.8 313.8L151.4 312.4L175 311.2L198.6 309.6L222.2 307.2L245.7 304.7L269.3 302.5L292.9 301.2L316.5 301L340.1 301.2L363.6 301.6L387.2 301.9L410.8 301.8L434.4 301.3L458 301L481.5 300.7L505.1 300.7L528.7 300.8L552.3 301L575.9 301.4L599.4 302.1L623 302.9L646.6 303.7L670.2 304.8L693.8 306.1" fill="none" stroke-width="1"></path></g><g><path stroke-linecap="round" stroke-linejoin="round" stroke="#ddd" d="M57.1 404.7L80.7 404.2L104.3 403.5L127.8 402.6L151.4 401.7L175 400.9L198.6 399.9L222.2 398.5L245.7 397.2L269.3 396.2L292.9 396L316.5 396.5L340.1 397.3L363.6 398.1L387.2 398.6L410.8 398.9L434.4 398.9L458 399L481.5 399.2L505.1 399.5L528.7 399.8L552.3 400.1L575.9 400.4L599.4 400.8L623 401.2L646.6 401.7L670.2 402.2L693.8 402.7" fill="none" stroke-width="1"></path></g><g><path stroke-linecap="round" stroke-linejoin="round" stroke="#ddd" d="M57.1 513.8L80.7 513.7L104.3 513.6L127.8 513.6L151.4 513.5L175 513.5L198.6 513.5L222.2 513.4L245.7 513.4L269.3 513.3L292.9 513.3L316.5 513.2L340.1 513.2L363.6 513.2L387.2 513.1L410.8 513.1L434.4 513.2L458 513.2L481.5 513.3L505.1 513.4L528.7 513.4L552.3 513.5L575.9 513.5L599.4 513.5L623 513.5L646.6 513.5L670.2 513.4L693.8 513.4" fill="none" stroke-width="1"></path></g><g><path stroke="#287669" stroke-linecap="round" stroke-linejoin="round" d="M57.1 309L80.7 308.1L104.3 307.3L127.8 306.6L151.4 306.1L175 305.8L198.6 305.1L222.2 303.7L245.7 302.1L269.3 300.9L292.9 300.5L316.5 301.2L340.1 302.3L363.6 303.6L387.2 304.8L410.8 305.5L434.4 305.9L458 306.4L481.5 306.9L505.1 307.5L528.7 308.2L552.3 309L575.9 309.8L599.4 310.7L623 311.7L646.6 312.8L670.2 314L693.8 315.3" fill="none" stroke-width="1.5"></path><g fill="#287669"><circle cx="57.1" cy="309" r="2"></circle><circle cx="80.7" cy="308.1" r="2"></circle><circle cx="104.3" cy="307.3" r="2"></circle><circle cx="127.8" cy="306.6" r="2"></circle><circle cx="151.4" cy="306.1" r="2"></circle><circle cx="175" cy="305.8" r="2"></circle><circle cx="198.6" cy="305.1" r="2"></circle><circle cx="222.2" cy="303.7" r="2"></circle><circle cx="245.7" cy="302.1" r="2"></circle><circle cx="269.3" cy="300.9" r="2"></circle><circle cx="292.9" cy="300.5" r="2"></circle><circle cx="316.5" cy="301.2" r="2"></circle><circle cx="340.1" cy="302.3" r="2"></circle><circle cx="363.6" cy="303.6" r="2"></circle><circle cx="387.2" cy="304.8" r="2"></circle><circle cx="410.8" cy="305.5" r="2"></circle><circle cx="434.4" cy="305.9" r="2"></circle><circle cx="458" cy="306.4" r="2"></circle><circle cx="481.5" cy="306.9" r="2"></circle><circle cx="505.1" cy="307.5" r="2"></circle><circle cx="528.7" cy="308.2" r="2"></circle><circle cx="552.3" cy="309" r="2"></circle><circle cx="575.9" cy="309.8" r="2"></circle><circle cx="599.4" cy="310.7" r="2"></circle><circle cx="623" cy="311.7" r="2"></circle><circle cx="646.6" cy="312.8" r="2"></circle><circle cx="670.2" cy="314" r="2"></circle><circle cx="693.8" cy="315.3" r="2"></circle></g></g><g><path stroke="#D73C50" stroke-linecap="round" stroke-linejoin="round" d="M57.1 260.5L80.7 255L104.3 250.6L127.8 248.5L151.4 248.3L175 249.7L198.6 251.4L222.2 252.1L245.7 252.7L269.3 252.8L292.9 252.9L316.5 253.4L340.1 254.3L363.6 255.2L387.2 255.8L410.8 255.9L434.4 255.6L458 255.3L481.5 254.9L505.1 254.7L528.7 254.8L552.3 255.3L575.9 256.4L599.4 257.7L623 259.6L646.6 262.2L670.2 265.2L693.8 268.8" fill="none" stroke-width="1.5"></path><g fill="#D73C50"><circle cx="57.1" cy="260.5" r="2"></circle><circle cx="80.7" cy="255" r="2"></circle><circle cx="104.3" cy="250.6" r="2"></circle><circle cx="127.8" cy="248.5" r="2"></circle><circle cx="151.4" cy="248.3" r="2"></circle><circle cx="175" cy="249.7" r="2"></circle><circle cx="198.6" cy="251.4" r="2"></circle><circle cx="222.2" cy="252.1" r="2"></circle><circle cx="245.7" cy="252.7" r="2"></circle><circle cx="269.3" cy="252.8" r="2"></circle><circle cx="292.9" cy="252.9" r="2"></circle><circle cx="316.5" cy="253.4" r="2"></circle><circle cx="340.1" cy="254.3" r="2"></circle><circle cx="363.6" cy="255.2" r="2"></circle><circle cx="387.2" cy="255.8" r="2"></circle><circle cx="410.8" cy="255.9" r="2"></circle><circle cx="434.4" cy="255.6" r="2"></circle><circle cx="458" cy="255.3" r="2"></circle><circle cx="481.5" cy="254.9" r="2"></circle><circle cx="505.1" cy="254.7" r="2"></circle><circle cx="528.7" cy="254.8" r="2"></circle><circle cx="552.3" cy="255.3" r="2"></circle><circle cx="575.9" cy="256.4" r="2"></circle><circle cx="599.4" cy="257.7" r="2"></circle><circle cx="623" cy="259.6" r="2"></circle><circle cx="646.6" cy="262.2" r="2"></circle><circle cx="670.2" cy="265.2" r="2"></circle><circle cx="693.8" cy="268.8" r="2"></circle></g></g><g><path stroke="#C05917" stroke-linecap="round" stroke-linejoin="round" d="M57.1 519.8L80.7 519.8L104.3 519.8L127.8 519.8L151.4 519.7L175 519.7L198.6 519.6L222.2 519.5L245.7 519.4L269.3 519.3L292.9 519.2L316.5 519.2L340.1 519.2L363.6 519.2L387.2 519.2L410.8 519.2L434.4 519.3L458 519.4L481.5 519.4L505.1 519.5L528.7 519.5L552.3 519.5L575.9 519.5L599.4 519.6L623 519.6L646.6 519.6L670.2 519.6L693.8 519.6" fill="none" stroke-width="1.5"></path><g fill="#C05917"><circle cx="57.1" cy="519.8" r="2"></circle><circle cx="80.7" cy="519.8" r="2"></circle><circle cx="104.3" cy="519.8" r="2"></circle><circle cx="127.8" cy="519.8" r="2"></circle><circle cx="151.4" cy="519.7" r="2"></circle><circle cx="175" cy="519.7" r="2"></circle><circle cx="198.6" cy="519.6" r="2"></circle><circle cx="222.2" cy="519.5" r="2"></circle><circle cx="245.7" cy="519.4" r="2"></circle><circle cx="269.3" cy="519.3" r="2"></circle><circle cx="292.9" cy="519.2" r="2"></circle><circle cx="316.5" cy="519.2" r="2"></circle><circle cx="340.1" cy="519.2" r="2"></circle><circle cx="363.6" cy="519.2" r="2"></circle><circle cx="387.2" cy="519.2" r="2"></circle><circle cx="410.8" cy="519.2" r="2"></circle><circle cx="434.4" cy="519.3" r="2"></circle><circle cx="458" cy="519.4" r="2"></circle><circle cx="481.5" cy="519.4" r="2"></circle><circle cx="505.1" cy="519.5" r="2"></circle><circle cx="528.7" cy="519.5" r="2"></circle><circle cx="552.3" cy="519.5" r="2"></circle><circle cx="575.9" cy="519.5" r="2"></circle><circle cx="599.4" cy="519.6" r="2"></circle><circle cx="623" cy="519.6" r="2"></circle><circle cx="646.6" cy="519.6" r="2"></circle><circle cx="670.2" cy="519.6" r="2"></circle><circle cx="693.8" cy="519.6" r="2"></circle></g></g><g><path stroke="#4C6A9C" stroke-linecap="round" stroke-linejoin="round" d="M57.1 202.3L80.7 201.9L104.3 201.3L127.8 200.2L151.4 199L175 197.7L198.6 195.6L222.2 192.4L245.7 189.2L269.3 186.9L292.9 186.3L316.5 187.7L340.1 190.2L363.6 192.8L387.2 195L410.8 196.3L434.4 196.8L458 197.5L481.5 198.2L505.1 199.1L528.7 199.9L552.3 200.7L575.9 201.6L599.4 202.5L623 203.6L646.6 204.8L670.2 206.1L693.8 207.5" fill="none" stroke-width="1.5"></path><g fill="#4C6A9C"><circle cx="57.1" cy="202.3" r="2"></circle><circle cx="80.7" cy="201.9" r="2"></circle><circle cx="104.3" cy="201.3" r="2"></circle><circle cx="127.8" cy="200.2" r="2"></circle><circle cx="151.4" cy="199" r="2"></circle><circle cx="175" cy="197.7" r="2"></circle><circle cx="198.6" cy="195.6" r="2"></circle><circle cx="222.2" cy="192.4" r="2"></circle><circle cx="245.7" cy="189.2" r="2"></circle><circle cx="269.3" cy="186.9" r="2"></circle><circle cx="292.9" cy="186.3" r="2"></circle><circle cx="316.5" cy="187.7" r="2"></circle><circle cx="340.1" cy="190.2" r="2"></circle><circle cx="363.6" cy="192.8" r="2"></circle><circle cx="387.2" cy="195" r="2"></circle><circle cx="410.8" cy="196.3" r="2"></circle><circle cx="434.4" cy="196.8" r="2"></circle><circle cx="458" cy="197.5" r="2"></circle><circle cx="481.5" cy="198.2" r="2"></circle><circle cx="505.1" cy="199.1" r="2"></circle><circle cx="528.7" cy="199.9" r="2"></circle><circle cx="552.3" cy="200.7" r="2"></circle><circle cx="575.9" cy="201.6" r="2"></circle><circle cx="599.4" cy="202.5" r="2"></circle><circle cx="623" cy="203.6" r="2"></circle><circle cx="646.6" cy="204.8" r="2"></circle><circle cx="670.2" cy="206.1" r="2"></circle><circle cx="693.8" cy="207.5" r="2"></circle></g></g><g><path stroke="#00823F" stroke-linecap="round" stroke-linejoin="round" d="M57.1 414.4L80.7 412.2L104.3 410L127.8 408.1L151.4 406.7L175 405.6L198.6 404.8L222.2 403.9L245.7 403.1L269.3 402.4L292.9 402L316.5 401.8L340.1 401.9L363.6 402.1L387.2 402.4L410.8 402.7L434.4 402.5L458 401.6L481.5 400.4L505.1 399.5L528.7 399.2L552.3 399.6L575.9 400.1L599.4 401.2L623 402.3L646.6 403.3L670.2 403.8L693.8 403.9" fill="none" stroke-width="1.5"></path><g fill="#00823F"><circle cx="57.1" cy="414.4" r="2"></circle><circle cx="80.7" cy="412.2" r="2"></circle><circle cx="104.3" cy="410" r="2"></circle><circle cx="127.8" cy="408.1" r="2"></circle><circle cx="151.4" cy="406.7" r="2"></circle><circle cx="175" cy="405.6" r="2"></circle><circle cx="198.6" cy="404.8" r="2"></circle><circle cx="222.2" cy="403.9" r="2"></circle><circle cx="245.7" cy="403.1" r="2"></circle><circle cx="269.3" cy="402.4" r="2"></circle><circle cx="292.9" cy="402" r="2"></circle><circle cx="316.5" cy="401.8" r="2"></circle><circle cx="340.1" cy="401.9" r="2"></circle><circle cx="363.6" cy="402.1" r="2"></circle><circle cx="387.2" cy="402.4" r="2"></circle><circle cx="410.8" cy="402.7" r="2"></circle><circle cx="434.4" cy="402.5" r="2"></circle><circle cx="458" cy="401.6" r="2"></circle><circle cx="481.5" cy="400.4" r="2"></circle><circle cx="505.1" cy="399.5" r="2"></circle><circle cx="528.7" cy="399.2" r="2"></circle><circle cx="552.3" cy="399.6" r="2"></circle><circle cx="575.9" cy="400.1" r="2"></circle><circle cx="599.4" cy="401.2" r="2"></circle><circle cx="623" cy="402.3" r="2"></circle><circle cx="646.6" cy="403.3" r="2"></circle><circle cx="670.2" cy="403.8" r="2"></circle><circle cx="693.8" cy="403.9" r="2"></circle></g></g><g><path stroke="#883039" stroke-linecap="round" stroke-linejoin="round" d="M57.1 209.4L80.7 209.6L104.3 209.1L127.8 208.6L151.4 207.8L175 206.8L198.6 204.4L222.2 199.8L245.7 194.4L269.3 189.7L292.9 186.9L316.5 186.3L340.1 186.7L363.6 187.8L387.2 189.4L410.8 191L434.4 192.8L458 195.2L481.5 197.7L505.1 199.8L528.7 201.4L552.3 202.4L575.9 203.1L599.4 204L623 205L646.6 206.1L670.2 207.4L693.8 208.9" fill="none" stroke-width="1.5"></path><g fill="#883039"><circle cx="57.1" cy="209.4" r="2"></circle><circle cx="80.7" cy="209.6" r="2"></circle><circle cx="104.3" cy="209.1" r="2"></circle><circle cx="127.8" cy="208.6" r="2"></circle><circle cx="151.4" cy="207.8" r="2"></circle><circle cx="175" cy="206.8" r="2"></circle><circle cx="198.6" cy="204.4" r="2"></circle><circle cx="222.2" cy="199.8" r="2"></circle><circle cx="245.7" cy="194.4" r="2"></circle><circle cx="269.3" cy="189.7" r="2"></circle><circle cx="292.9" cy="186.9" r="2"></circle><circle cx="316.5" cy="186.3" r="2"></circle><circle cx="340.1" cy="186.7" r="2"></circle><circle cx="363.6" cy="187.8" r="2"></circle><circle cx="387.2" cy="189.4" r="2"></circle><circle cx="410.8" cy="191" r="2"></circle><circle cx="434.4" cy="192.8" r="2"></circle><circle cx="458" cy="195.2" r="2"></circle><circle cx="481.5" cy="197.7" r="2"></circle><circle cx="505.1" cy="199.8" r="2"></circle><circle cx="528.7" cy="201.4" r="2"></circle><circle cx="552.3" cy="202.4" r="2"></circle><circle cx="575.9" cy="203.1" r="2"></circle><circle cx="599.4" cy="204" r="2"></circle><circle cx="623" cy="205" r="2"></circle><circle cx="646.6" cy="206.1" r="2"></circle><circle cx="670.2" cy="207.4" r="2"></circle><circle cx="693.8" cy="208.9" r="2"></circle></g></g><g><path stroke="#CF0A66" stroke-linecap="round" stroke-linejoin="round" d="M57.1 107.8L80.7 108.1L104.3 110.1L127.8 113.9L151.4 118.3L175 123L198.6 125.2L222.2 124.7L245.7 122.6L269.3 120.1L292.9 118.6L316.5 119.2L340.1 120.8L363.6 122.9L387.2 124.5L410.8 124.8L434.4 124.3L458 124.2L481.5 124.4L505.1 125L528.7 125.6L552.3 126.3L575.9 127.1L599.4 128.1L623 129.3L646.6 131L670.2 133L693.8 135.1" fill="none" stroke-width="1.5"></path><g fill="#CF0A66"><circle cx="57.1" cy="107.8" r="2"></circle><circle cx="80.7" cy="108.1" r="2"></circle><circle cx="104.3" cy="110.1" r="2"></circle><circle cx="127.8" cy="113.9" r="2"></circle><circle cx="151.4" cy="118.3" r="2"></circle><circle cx="175" cy="123" r="2"></circle><circle cx="198.6" cy="125.2" r="2"></circle><circle cx="222.2" cy="124.7" r="2"></circle><circle cx="245.7" cy="122.6" r="2"></circle><circle cx="269.3" cy="120.1" r="2"></circle><circle cx="292.9" cy="118.6" r="2"></circle><circle cx="316.5" cy="119.2" r="2"></circle><circle cx="340.1" cy="120.8" r="2"></circle><circle cx="363.6" cy="122.9" r="2"></circle><circle cx="387.2" cy="124.5" r="2"></circle><circle cx="410.8" cy="124.8" r="2"></circle><circle cx="434.4" cy="124.3" r="2"></circle><circle cx="458" cy="124.2" r="2"></circle><circle cx="481.5" cy="124.4" r="2"></circle><circle cx="505.1" cy="125" r="2"></circle><circle cx="528.7" cy="125.6" r="2"></circle><circle cx="552.3" cy="126.3" r="2"></circle><circle cx="575.9" cy="127.1" r="2"></circle><circle cx="599.4" cy="128.1" r="2"></circle><circle cx="623" cy="129.3" r="2"></circle><circle cx="646.6" cy="131" r="2"></circle><circle cx="670.2" cy="133" r="2"></circle><circle cx="693.8" cy="135.1" r="2"></circle></g></g><g><path stroke="#6D3E91" stroke-linecap="round" stroke-linejoin="round" d="M57.1 127.3L80.7 134L104.3 139.4L127.8 143.1L151.4 144.9L175 144.6L198.6 141.9L222.2 136.5L245.7 130.6L269.3 125.6L292.9 122.8L316.5 122.4L340.1 122.9L363.6 123.4L387.2 123.8L410.8 123.5L434.4 123.1L458 123.6L481.5 124.9L505.1 126.8L528.7 129L552.3 131.5L575.9 134.4L599.4 137.4L623 140L646.6 142.2L670.2 143.9L693.8 145.3" fill="none" stroke-width="1.5"></path><g fill="#6D3E91"><circle cx="57.1" cy="127.3" r="2"></circle><circle cx="80.7" cy="134" r="2"></circle><circle cx="104.3" cy="139.4" r="2"></circle><circle cx="127.8" cy="143.1" r="2"></circle><circle cx="151.4" cy="144.9" r="2"></circle><circle cx="175" cy="144.6" r="2"></circle><circle cx="198.6" cy="141.9" r="2"></circle><circle cx="222.2" cy="136.5" r="2"></circle><circle cx="245.7" cy="130.6" r="2"></circle><circle cx="269.3" cy="125.6" r="2"></circle><circle cx="292.9" cy="122.8" r="2"></circle><circle cx="316.5" cy="122.4" r="2"></circle><circle cx="340.1" cy="122.9" r="2"></circle><circle cx="363.6" cy="123.4" r="2"></circle><circle cx="387.2" cy="123.8" r="2"></circle><circle cx="410.8" cy="123.5" r="2"></circle><circle cx="434.4" cy="123.1" r="2"></circle><circle cx="458" cy="123.6" r="2"></circle><circle cx="481.5" cy="124.9" r="2"></circle><circle cx="505.1" cy="126.8" r="2"></circle><circle cx="528.7" cy="129" r="2"></circle><circle cx="552.3" cy="131.5" r="2"></circle><circle cx="575.9" cy="134.4" r="2"></circle><circle cx="599.4" cy="137.4" r="2"></circle><circle cx="623" cy="140" r="2"></circle><circle cx="646.6" cy="142.2" r="2"></circle><circle cx="670.2" cy="143.9" r="2"></circle><circle cx="693.8" cy="145.3" r="2"></circle></g></g><g><path stroke="#00847E" stroke-linecap="round" stroke-linejoin="round" d="M57.1 318.4L80.7 316.8L104.3 315.3L127.8 313.8L151.4 312.4L175 311.2L198.6 309.6L222.2 307.2L245.7 304.7L269.3 302.5L292.9 301.2L316.5 301L340.1 301.2L363.6 301.6L387.2 301.9L410.8 301.8L434.4 301.3L458 301L481.5 300.7L505.1 300.7L528.7 300.8L552.3 301L575.9 301.4L599.4 302.1L623 302.9L646.6 303.7L670.2 304.8L693.8 306.1" fill="none" stroke-width="1.5"></path><g fill="#00847E"><circle cx="57.1" cy="318.4" r="2"></circle><circle cx="80.7" cy="316.8" r="2"></circle><circle cx="104.3" cy="315.3" r="2"></circle><circle cx="127.8" cy="313.8" r="2"></circle><circle cx="151.4" cy="312.4" r="2"></circle><circle cx="175" cy="311.2" r="2"></circle><circle cx="198.6" cy="309.6" r="2"></circle><circle cx="222.2" cy="307.2" r="2"></circle><circle cx="245.7" cy="304.7" r="2"></circle><circle cx="269.3" cy="302.5" r="2"></circle><circle cx="292.9" cy="301.2" r="2"></circle><circle cx="316.5" cy="301" r="2"></circle><circle cx="340.1" cy="301.2" r="2"></circle><circle cx="363.6" cy="301.6" r="2"></circle><circle cx="387.2" cy="301.9" r="2"></circle><circle cx="410.8" cy="301.8" r="2"></circle><circle cx="434.4" cy="301.3" r="2"></circle><circle cx="458" cy="301" r="2"></circle><circle cx="481.5" cy="300.7" r="2"></circle><circle cx="505.1" cy="300.7" r="2"></circle><circle cx="528.7" cy="300.8" r="2"></circle><circle cx="552.3" cy="301" r="2"></circle><circle cx="575.9" cy="301.4" r="2"></circle><circle cx="599.4" cy="302.1" r="2"></circle><circle cx="623" cy="302.9" r="2"></circle><circle cx="646.6" cy="303.7" r="2"></circle><circle cx="670.2" cy="304.8" r="2"></circle><circle cx="693.8" cy="306.1" r="2"></circle></g></g><g><path stroke="#B13507" stroke-linecap="round" stroke-linejoin="round" d="M57.1 404.7L80.7 404.2L104.3 403.5L127.8 402.6L151.4 401.7L175 400.9L198.6 399.9L222.2 398.5L245.7 397.2L269.3 396.2L292.9 396L316.5 396.5L340.1 397.3L363.6 398.1L387.2 398.6L410.8 398.9L434.4 398.9L458 399L481.5 399.2L505.1 399.5L528.7 399.8L552.3 400.1L575.9 400.4L599.4 400.8L623 401.2L646.6 401.7L670.2 402.2L693.8 402.7" fill="none" stroke-width="1.5"></path><g fill="#B13507"><circle cx="57.1" cy="404.7" r="2"></circle><circle cx="80.7" cy="404.2" r="2"></circle><circle cx="104.3" cy="403.5" r="2"></circle><circle cx="127.8" cy="402.6" r="2"></circle><circle cx="151.4" cy="401.7" r="2"></circle><circle cx="175" cy="400.9" r="2"></circle><circle cx="198.6" cy="399.9" r="2"></circle><circle cx="222.2" cy="398.5" r="2"></circle><circle cx="245.7" cy="397.2" r="2"></circle><circle cx="269.3" cy="396.2" r="2"></circle><circle cx="292.9" cy="396" r="2"></circle><circle cx="316.5" cy="396.5" r="2"></circle><circle cx="340.1" cy="397.3" r="2"></circle><circle cx="363.6" cy="398.1" r="2"></circle><circle cx="387.2" cy="398.6" r="2"></circle><circle cx="410.8" cy="398.9" r="2"></circle><circle cx="434.4" cy="398.9" r="2"></circle><circle cx="458" cy="399" r="2"></circle><circle cx="481.5" cy="399.2" r="2"></circle><circle cx="505.1" cy="399.5" r="2"></circle><circle cx="528.7" cy="399.8" r="2"></circle><circle cx="552.3" cy="400.1" r="2"></circle><circle cx="575.9" cy="400.4" r="2"></circle><circle cx="599.4" cy="400.8" r="2"></circle><circle cx="623" cy="401.2" r="2"></circle><circle cx="646.6" cy="401.7" r="2"></circle><circle cx="670.2" cy="402.2" r="2"></circle><circle cx="693.8" cy="402.7" r="2"></circle></g></g><g><path stroke="#3C4E66" stroke-linecap="round" stroke-linejoin="round" d="M57.1 513.8L80.7 513.7L104.3 513.6L127.8 513.6L151.4 513.5L175 513.5L198.6 513.5L222.2 513.4L245.7 513.4L269.3 513.3L292.9 513.3L316.5 513.2L340.1 513.2L363.6 513.2L387.2 513.1L410.8 513.1L434.4 513.2L458 513.2L481.5 513.3L505.1 513.4L528.7 513.4L552.3 513.5L575.9 513.5L599.4 513.5L623 513.5L646.6 513.5L670.2 513.4L693.8 513.4" fill="none" stroke-width="1.5"></path><g fill="#3C4E66"><circle cx="57.1" cy="513.8" r="2"></circle><circle cx="80.7" cy="513.7" r="2"></circle><circle cx="104.3" cy="513.6" r="2"></circle><circle cx="127.8" cy="513.6" r="2"></circle><circle cx="151.4" cy="513.5" r="2"></circle><circle cx="175" cy="513.5" r="2"></circle><circle cx="198.6" cy="513.5" r="2"></circle><circle cx="222.2" cy="513.4" r="2"></circle><circle cx="245.7" cy="513.4" r="2"></circle><circle cx="269.3" cy="513.3" r="2"></circle><circle cx="292.9" cy="513.3" r="2"></circle><circle cx="316.5" cy="513.2" r="2"></circle><circle cx="340.1" cy="513.2" r="2"></circle><circle cx="363.6" cy="513.2" r="2"></circle><circle cx="387.2" cy="513.1" r="2"></circle><circle cx="410.8" cy="513.1" r="2"></circle><circle cx="434.4" cy="513.2" r="2"></circle><circle cx="458" cy="513.2" r="2"></circle><circle cx="481.5" cy="513.3" r="2"></circle><circle cx="505.1" cy="513.4" r="2"></circle><circle cx="528.7" cy="513.4" r="2"></circle><circle cx="552.3" cy="513.5" r="2"></circle><circle cx="575.9" cy="513.5" r="2"></circle><circle cx="599.4" cy="513.5" r="2"></circle><circle cx="623" cy="513.5" r="2"></circle><circle cx="646.6" cy="513.5" r="2"></circle><circle cx="670.2" cy="513.4" r="2"></circle><circle cx="693.8" cy="513.4" r="2"></circle></g></g></g></g></g><g class="SourcesFooter" style="fill:#777"><g style="fill:#777"><text font-size="12.60" x="15.0" y="582.5"><tspan x="15" y="582.48">Source: IHME, Global Burden of Disease</tspan></text></g><text font-size="12.60" x="796.4" y="582.5"><tspan x="796.444" y="582.48"><a style="fill: #777;" class="cclogo" href="http://creativecommons.org/licenses/by/4.0/deed.en_US" target="_blank">CC BY</a></tspan></text></g></svg>