<svg xmlns="http://www.w3.org/2000/svg" version="1.1" style="font-family:Lato, &#x27;Helvetica Neue&#x27;, Helvetica, Arial, &#x27;Liberation Sans&#x27;, sans-serif;font-size:18px;background-color:white;text-rendering:geometricPrecision;-webkit-font-smoothing:antialiased" width="850" height="600" viewBox="0 0 850 600"><defs><style>@import url(https://ourworldindata.org/fonts.css)</style></defs><defs><pattern id="noDataPattern" patternUnits="userSpaceOnUse" width="4" height="4" patternTransform="rotate(-45 2 2)"><path d="M -1,2 l 6,0" stroke="#ccc" stroke-width="0.7"></path></pattern></defs><rect class="background-fill" fill="white" width="850" height="600"></rect><g id="header" class="HeaderView"><g id="logo" transform="translate(769, 16) scale(1)"><svg className="owidLogo" xmlns="http://www.w3.org/2000/svg" width="65" height="36" viewBox="0 0 65 36"  fill="none"><path fill="#002147" d="M0 0h64.8v36H0z"/><path fill="#CE261E" d="M0 33.3h64.8V36H0z"/><path fill="#fff" d="M13.796 10.575c0 .636-.106 1.226-.318 1.77a4.193 4.193 0 0 1-.894 1.404 4.084 4.084 0 0 1-1.386.93c-.54.22-1.138.33-1.794.33-.656 0-1.256-.11-1.8-.33a4.149 4.149 0 0 1-1.392-.93 4.193 4.193 0 0 1-.894-1.404A4.833 4.833 0 0 1 5 10.575c0-.636.106-1.224.318-1.764a4.18 4.18 0 0 1 .894-1.41 4.076 4.076 0 0 1 1.392-.924 4.684 4.684 0 0 1 1.8-.336c.656 0 1.254.112 1.794.336.54.224 1.002.534 1.386.93.384.392.682.86.894 1.404.212.54.318 1.128.318 1.764Zm-1.656 0c0-.476-.064-.902-.192-1.278a2.671 2.671 0 0 0-.54-.966 2.332 2.332 0 0 0-.864-.606 2.94 2.94 0 0 0-1.14-.21c-.424 0-.806.07-1.146.21-.34.14-.63.342-.87.606a2.742 2.742 0 0 0-.546.966 3.955 3.955 0 0 0-.192 1.278c0 .476.064.904.192 1.284.128.376.31.696.546.96.24.26.53.46.87.6.34.14.722.21 1.146.21.424 0 .804-.07 1.14-.21.34-.14.628-.34.864-.6.236-.264.416-.584.54-.96a4.01 4.01 0 0 0 .192-1.284ZM16.104 8.757v3.912c0 .376.086.668.258.876.176.204.438.306.786.306.256 0 .496-.056.72-.168a2.58 2.58 0 0 0 .636-.474V8.757h1.482v6.156h-.906c-.192 0-.318-.09-.378-.27l-.102-.492a4.65 4.65 0 0 1-.396.354 2.577 2.577 0 0 1-.438.27 2.35 2.35 0 0 1-.498.168 2.345 2.345 0 0 1-.57.066c-.336 0-.634-.056-.894-.168a1.821 1.821 0 0 1-.648-.486 2.157 2.157 0 0 1-.402-.738 3.233 3.233 0 0 1-.132-.948V8.757h1.482ZM21.328 14.913V8.757h.87c.152 0 .258.028.318.084.06.056.1.152.12.288l.09.744c.22-.38.478-.68.774-.9.296-.22.628-.33.996-.33.304 0 .556.07.756.21l-.192 1.11c-.012.072-.038.124-.078.156a.278.278 0 0 1-.162.042 1.01 1.01 0 0 1-.246-.042 1.646 1.646 0 0 0-.414-.042c-.308 0-.572.086-.792.258-.22.168-.406.416-.558.744v3.834h-1.482ZM27.347 6.237h1.356a.57.57 0 0 1 .348.102c.096.064.16.152.192.264l1.476 5.19c.036.128.068.268.096.42.032.148.062.306.09.474a5.968 5.968 0 0 1 .228-.894l1.704-5.19a.575.575 0 0 1 .186-.252.543.543 0 0 1 .348-.114h.474a.57.57 0 0 1 .348.102.497.497 0 0 1 .192.264l1.692 5.19c.088.256.164.54.228.852.028-.156.056-.306.084-.45.032-.144.064-.278.096-.402l1.476-5.19c.028-.1.09-.186.186-.258a.563.563 0 0 1 .348-.108h1.266l-2.694 8.676h-1.458l-1.896-5.928-.078-.246a9.504 9.504 0 0 1-.072-.282c-.024.1-.05.194-.078.282-.024.088-.048.17-.072.246l-1.914 5.928H30.04l-2.694-8.676ZM42.771 8.661c.46 0 .876.074 1.248.222.376.148.696.358.96.63s.468.604.612.996c.144.392.216.83.216 1.314 0 .488-.072.928-.216 1.32a2.85 2.85 0 0 1-.612 1.002 2.653 2.653 0 0 1-.96.636 3.35 3.35 0 0 1-1.248.222c-.46 0-.878-.074-1.254-.222a2.712 2.712 0 0 1-.966-.636 2.922 2.922 0 0 1-.618-1.002 3.807 3.807 0 0 1-.216-1.32c0-.484.072-.922.216-1.314.148-.392.354-.724.618-.996.268-.272.59-.482.966-.63a3.397 3.397 0 0 1 1.254-.222Zm0 5.202c.512 0 .89-.172 1.134-.516.248-.344.372-.848.372-1.512s-.124-1.17-.372-1.518c-.244-.348-.622-.522-1.134-.522-.52 0-.904.176-1.152.528-.248.348-.372.852-.372 1.512s.124 1.164.372 1.512c.248.344.632.516 1.152.516ZM46.723 14.913V8.757h.87c.152 0 .258.028.318.084.06.056.1.152.12.288l.09.744c.22-.38.478-.68.774-.9.296-.22.628-.33.996-.33.304 0 .556.07.756.21l-.192 1.11c-.012.072-.038.124-.078.156a.278.278 0 0 1-.162.042 1.01 1.01 0 0 1-.246-.042 1.646 1.646 0 0 0-.414-.042c-.308 0-.572.086-.792.258-.22.168-.406.416-.558.744v3.834h-1.482ZM52.96 5.997v8.916h-1.482V5.997h1.482ZM58.732 14.913c-.192 0-.318-.09-.378-.27l-.12-.594a3.68 3.68 0 0 1-.402.39c-.14.116-.292.216-.456.3-.16.084-.334.148-.522.192a2.372 2.372 0 0 1-.6.072c-.336 0-.644-.07-.924-.21a2.098 2.098 0 0 1-.726-.606 3.033 3.033 0 0 1-.468-.99 5.072 5.072 0 0 1-.162-1.344c0-.456.062-.88.186-1.272s.302-.732.534-1.02c.232-.288.51-.512.834-.672a2.384 2.384 0 0 1 1.092-.246 2.103 2.103 0 0 1 1.536.606V5.997h1.482v8.916h-.906Zm-1.974-1.086c.308 0 .57-.064.786-.192.216-.128.42-.31.612-.546v-2.76a1.452 1.452 0 0 0-.552-.432 1.597 1.597 0 0 0-.636-.126c-.224 0-.428.042-.612.126a1.21 1.21 0 0 0-.462.384c-.124.168-.22.384-.288.648-.068.26-.102.568-.102.924 0 .36.028.666.084.918.06.248.144.452.252.612.108.156.24.27.396.342.156.068.33.102.522.102ZM16.331 20.757v6.156H14.85v-6.156h1.481Zm.223-1.794a.844.844 0 0 1-.078.36.963.963 0 0 1-.21.294.995.995 0 0 1-.3.204.963.963 0 0 1-.372.072.948.948 0 0 1-.367-.072 1.018 1.018 0 0 1-.498-.498.963.963 0 0 1 0-.732.995.995 0 0 1 .205-.3.929.929 0 0 1 .293-.198.899.899 0 0 1 .738 0 .912.912 0 0 1 .3.198.943.943 0 0 1 .288.672ZM17.771 26.913v-6.156h.906c.192 0 .318.09.378.27l.102.486a2.934 2.934 0 0 1 .828-.618c.156-.076.322-.134.498-.174.176-.04.368-.06.576-.06.336 0 .634.058.894.174.26.112.476.272.648.48.176.204.308.45.396.738.092.284.138.598.138.942v3.918h-1.482v-3.918c0-.376-.088-.666-.264-.87-.172-.208-.432-.312-.78-.312-.256 0-.496.058-.72.174a2.58 2.58 0 0 0-.636.474v4.452h-1.482ZM34.22 22.575c0 .636-.106 1.22-.318 1.752-.212.532-.51.99-.894 1.374a4 4 0 0 1-1.386.894 4.87 4.87 0 0 1-1.794.318h-3.312v-8.676h3.312a4.79 4.79 0 0 1 1.794.324 4 4 0 0 1 1.386.894c.384.38.682.836.894 1.368.212.532.318 1.116.318 1.752Zm-1.65 0c0-.476-.064-.902-.192-1.278a2.68 2.68 0 0 0-.546-.96 2.332 2.332 0 0 0-.864-.606 2.94 2.94 0 0 0-1.14-.21h-1.686v6.108h1.686c.424 0 .804-.07 1.14-.21.34-.14.628-.34.864-.6a2.75 2.75 0 0 0 .546-.96 4.01 4.01 0 0 0 .192-1.284ZM39.98 26.913h-.665c-.14 0-.25-.02-.33-.06-.08-.044-.14-.13-.18-.258l-.132-.438c-.156.14-.31.264-.462.372a2.804 2.804 0 0 1-.462.264c-.16.072-.33.126-.51.162-.18.036-.38.054-.6.054-.26 0-.5-.034-.72-.102a1.618 1.618 0 0 1-.57-.318 1.448 1.448 0 0 1-.366-.522 1.852 1.852 0 0 1-.132-.726c0-.232.06-.46.18-.684.124-.228.328-.432.612-.612.284-.184.662-.336 1.134-.456.472-.12 1.058-.188 1.758-.204v-.36c0-.412-.088-.716-.264-.912-.172-.2-.424-.3-.756-.3a1.837 1.837 0 0 0-1.02.276c-.116.068-.224.13-.324.186a.664.664 0 0 1-.33.084.429.429 0 0 1-.258-.078.614.614 0 0 1-.174-.192l-.27-.474c.708-.648 1.562-.972 2.562-.972.36 0 .68.06.96.18.284.116.524.28.72.492.196.208.344.458.444.75.104.292.156.612.156.96v3.888Zm-2.88-.924c.153 0 .293-.014.42-.042.129-.028.249-.07.36-.126.117-.056.227-.124.33-.204.109-.084.217-.182.325-.294v-1.038c-.432.02-.794.058-1.086.114-.288.052-.52.12-.696.204a.923.923 0 0 0-.378.294.664.664 0 0 0-.108.366c0 .26.076.446.228.558.156.112.358.168.606.168ZM43.22 27.01c-.532 0-.942-.15-1.23-.45-.288-.305-.432-.723-.432-1.255v-3.438h-.624a.31.31 0 0 1-.21-.078c-.056-.052-.084-.13-.084-.234v-.588l.99-.162.312-1.68a.302.302 0 0 1 .108-.186.365.365 0 0 1 .222-.066h.768v1.938h1.62v1.056h-1.62v3.336c0 .192.048.342.144.45a.488.488 0 0 0 .384.162c.092 0 .168-.01.228-.03.064-.024.118-.048.162-.072.048-.024.09-.046.126-.066a.194.194 0 0 1 .108-.036.16.16 0 0 1 .108.036c.028.02.058.052.09.096l.444.72c-.216.18-.464.316-.744.408a2.77 2.77 0 0 1-.87.138ZM50.423 26.913h-.666c-.14 0-.25-.02-.33-.06-.08-.044-.14-.13-.18-.258l-.132-.438c-.156.14-.31.264-.462.372a2.804 2.804 0 0 1-.462.264c-.16.072-.33.126-.51.162-.18.036-.38.054-.6.054-.26 0-.5-.034-.72-.102a1.618 1.618 0 0 1-.57-.318 1.448 1.448 0 0 1-.366-.522 1.852 1.852 0 0 1-.132-.726c0-.232.06-.46.18-.684.124-.228.328-.432.612-.612.284-.184.662-.336 1.134-.456.472-.12 1.058-.188 1.758-.204v-.36c0-.412-.088-.716-.264-.912-.172-.2-.424-.3-.756-.3a1.837 1.837 0 0 0-1.02.276c-.116.068-.224.13-.324.186a.664.664 0 0 1-.33.084.429.429 0 0 1-.258-.078.614.614 0 0 1-.174-.192l-.27-.474c.708-.648 1.562-.972 2.562-.972.36 0 .68.06.96.18.284.116.524.28.72.492.196.208.344.458.444.75.104.292.156.612.156.96v3.888Zm-2.88-.924c.152 0 .292-.014.42-.042.128-.028.248-.07.36-.126.116-.056.226-.124.33-.204.108-.084.216-.182.324-.294v-1.038c-.432.02-.794.058-1.086.114-.288.052-.52.12-.696.204a.923.923 0 0 0-.378.294.664.664 0 0 0-.108.366c0 .26.076.446.228.558.156.112.358.168.606.168Z"/></svg></g><a id="title" href="https://ourworldindata.org/grapher/price-changes-consumer-goods-services-united-states" style="font-family:&#x27;Playfair Display&#x27;, Georgia, &#x27;Times New Roman&#x27;, &#x27;Liberation Serif&#x27;, serif" target="_blank" rel="noopener"><text font-size="21.75" font-weight="600" x="16.0" y="37.1" fill="#5b5b5b"><tspan x="16" y="37.0975">Price changes in consumer goods and services in the United States</tspan></text></a><g id="subtitle" class="markdown-text-wrap"><text x="16.0" y="60.3" style="font-size:14.625px;line-height:1.2" fill="#5b5b5b"><tspan x="16" y="60.3">Price change in consumer goods and services in the United States, measured as the percentage change since</tspan><tspan x="16" y="77.8">1997. Data is based on the consumer price index (CPI) for national average urban consumer prices.</tspan></text></g></g><g id="chart-area" style="pointer-events:none"><g id="line-chart" class="LineChart"><defs><clipPath id="boundsClip-1"><rect x="53.525000000000006" y="87.2" width="838" height="440.20000000000005"></rect></clipPath></defs><rect x="16" y="97.2" width="818" height="420.20000000000005" fill="none"></rect><g id="dual-axis" class="DualAxisView"><g id="horizontal-axis" class="HorizontalAxis"><g id="tick__1997"><line x1="63.5" y1="496.40000000000003" x2="63.5" y2="501.90000000000003" stroke="#999" stroke-width="1"></line><text x="63.525000000000006" y="515.4000000000001" fill="#5b5b5b" text-anchor="start" font-size="13.5">1997</text></g><g id="tick__2023"><line x1="596.6" y1="496.40000000000003" x2="596.6" y2="501.90000000000003" stroke="#999" stroke-width="1"></line><text x="596.635" y="515.4000000000001" fill="#5b5b5b" text-anchor="end" font-size="13.5">2023</text></g><g id="tick__2000"><line x1="125" y1="496.40000000000003" x2="125" y2="501.90000000000003" stroke="#999" stroke-width="1"></line><text x="125" y="515.4000000000001" fill="#5b5b5b" text-anchor="middle" font-size="13.5">2000</text></g><g id="tick__2005"><line x1="227.6" y1="496.40000000000003" x2="227.6" y2="501.90000000000003" stroke="#999" stroke-width="1"></line><text x="227.6" y="515.4000000000001" fill="#5b5b5b" text-anchor="middle" font-size="13.5">2005</text></g><g id="tick__2010"><line x1="330.1" y1="496.40000000000003" x2="330.1" y2="501.90000000000003" stroke="#999" stroke-width="1"></line><text x="330.1" y="515.4000000000001" fill="#5b5b5b" text-anchor="middle" font-size="13.5">2010</text></g><g id="tick__2015"><line x1="432.6" y1="496.40000000000003" x2="432.6" y2="501.90000000000003" stroke="#999" stroke-width="1"></line><text x="432.6" y="515.4000000000001" fill="#5b5b5b" text-anchor="middle" font-size="13.5">2015</text></g><g id="tick__2020"><line x1="535.1" y1="496.40000000000003" x2="535.1" y2="501.90000000000003" stroke="#999" stroke-width="1"></line><text x="535.1" y="515.4000000000001" fill="#5b5b5b" text-anchor="middle" font-size="13.5">2020</text></g></g><g id="vertical-axis" class="VerticalAxis"><g id="tick-labels"><text id="tick-label__-100__0025" x="58.53" y="496.9" dy=".32em" text-anchor="end" fill="#5b5b5b" font-size="13.5">-100%</text><text id="tick-label__-50__0025" x="58.53" y="433.7" dy=".32em" text-anchor="end" fill="#5b5b5b" font-size="13.5">-50%</text><text id="tick-label____002b0__0025" x="58.53" y="370.5" dy=".32em" text-anchor="end" fill="#5b5b5b" font-size="13.5">+0%</text><text id="tick-label____002b50__0025" x="58.53" y="307.3" dy=".32em" text-anchor="end" fill="#5b5b5b" font-size="13.5">+50%</text><text id="tick-label____002b100__0025" x="58.53" y="244.1" dy=".32em" text-anchor="end" fill="#5b5b5b" font-size="13.5">+100%</text><text id="tick-label____002b150__0025" x="58.53" y="180.9" dy=".32em" text-anchor="end" fill="#5b5b5b" font-size="13.5">+150%</text><text id="tick-label____002b200__0025" x="58.53" y="117.7" dy=".32em" text-anchor="end" fill="#5b5b5b" font-size="13.5">+200%</text></g></g><g id="horizontal-grid-lines" class="AxisGridLines horizontalLines"><line id="grid-line__-100" x1="63.53" y1="496.9" x2="596.63" y2="496.9" stroke="#ddd" stroke-width="1" stroke-dasharray="3,2"></line><line id="grid-line__-50" x1="63.53" y1="433.7" x2="596.63" y2="433.7" stroke="#ddd" stroke-width="1" stroke-dasharray="3,2"></line><line id="grid-line__0" x1="63.53" y1="370.5" x2="596.63" y2="370.5" stroke="#999" stroke-width="1"></line><line id="grid-line__50" x1="63.53" y1="307.3" x2="596.63" y2="307.3" stroke="#ddd" stroke-width="1" stroke-dasharray="3,2"></line><line id="grid-line__100" x1="63.53" y1="244.1" x2="596.63" y2="244.1" stroke="#ddd" stroke-width="1" stroke-dasharray="3,2"></line><line id="grid-line__150" x1="63.53" y1="180.9" x2="596.63" y2="180.9" stroke="#ddd" stroke-width="1" stroke-dasharray="3,2"></line><line id="grid-line__200" x1="63.53" y1="117.7" x2="596.63" y2="117.7" stroke="#ddd" stroke-width="1" stroke-dasharray="3,2"></line></g></g><g clip-path="url(#boundsClip-1)"><g id="line-labels" class="LineLabels"><g id="mark__College-tuition-__0026-fees" class="legendMark" style="cursor:default"><rect id="background" x="596.635" y="97.2" width="163.115" height="13.5" fill="#fff" opacity="0"></rect><text id="label" font-size="13.50" font-weight="400" x="600.6" y="108.9" fill="#008291"><tspan x="600.635" y="108.94500000000001">College tuition &amp; fees</tspan></text></g><g id="mark__Tuition__002c-school-fees__002c-childcare" class="legendMark" style="cursor:default"><rect id="background" x="596.635" y="117.75" width="213.47" height="13.5" fill="#fff" opacity="0"></rect><text id="label" font-size="13.50" font-weight="400" x="600.6" y="129.5" fill="#b13507"><tspan x="600.635" y="129.495">Tuition, school fees, childcare</tspan></text></g><g id="mark__Medical-care" class="legendMark" style="cursor:default"><rect id="background" x="596.635" y="189" width="111.68" height="13.5" fill="#fff" opacity="0"></rect><text id="label" font-size="13.50" font-weight="400" x="600.6" y="200.7" fill="#a2559c"><tspan x="600.635" y="200.745">Medical care</tspan></text></g><g id="mark__Household-energy" class="legendMark" style="cursor:default"><rect id="background" x="596.635" y="204.5" width="145.025" height="13.5" fill="#fff" opacity="0"></rect><text id="label" font-size="13.50" font-weight="400" x="600.6" y="216.2" fill="#578145"><tspan x="600.635" y="216.245">Household energy</tspan></text></g><g id="mark__Food-__0026-beverages" class="legendMark" style="cursor:default"><rect id="background" x="596.635" y="229" width="145.835" height="13.5" fill="#fff" opacity="0"></rect><text id="label" font-size="13.50" font-weight="400" x="600.6" y="240.7" fill="#8c4569"><tspan x="600.635" y="240.745">Food &amp; beverages</tspan></text></g><g id="mark__Housing" class="legendMark" style="cursor:default"><rect id="background" x="596.635" y="244.5" width="84.68" height="13.5" fill="#fff" opacity="0"></rect><text id="label" font-size="13.50" font-weight="400" x="600.6" y="256.2" fill="#b16214"><tspan x="600.635" y="256.245">Housing</tspan></text></g><g id="mark__Public-transport" class="legendMark" style="cursor:default"><rect id="background" x="596.635" y="310.65" width="129.09500000000003" height="13.5" fill="#fff" opacity="0"></rect><text id="label" font-size="13.50" font-weight="400" x="600.6" y="322.4" fill="#970046"><tspan x="600.635" y="322.395">Public transport</tspan></text></g><g id="mark__New-cars" class="legendMark" style="cursor:default"><rect id="background" x="596.635" y="339.55" width="91.295" height="13.5" fill="#fff" opacity="0"></rect><text id="label" font-size="13.50" font-weight="400" x="600.6" y="351.3" fill="#4c6a9c"><tspan x="600.635" y="351.295">New cars</tspan></text></g><g id="mark__Clothing" class="legendMark" style="cursor:default"><rect id="background" x="596.635" y="368.45" width="84.68" height="13.5" fill="#fff" opacity="0"></rect><text id="label" font-size="13.50" font-weight="400" x="600.6" y="380.2" fill="#d73c50"><tspan x="600.635" y="380.195">Clothing</tspan></text></g><g id="mark__Computer-software-__0026-accessories" class="legendMark" style="cursor:default"><rect id="background" x="596.635" y="451.75" width="237.365" height="13.5" fill="#fff" opacity="0"></rect><text id="label" font-size="13.50" font-weight="400" x="600.6" y="463.5" fill="#338711"><tspan x="600.635" y="463.495">Computer software &amp; accessories</tspan></text></g><g id="mark__Toys" class="legendMark" style="cursor:default"><rect id="background" x="596.635" y="467.25" width="64.295" height="13.5" fill="#fff" opacity="0"></rect><text id="label" font-size="13.50" font-weight="400" x="600.6" y="479.0" fill="#00847e"><tspan x="600.635" y="478.995">Toys</tspan></text></g><g id="mark__Televisions" class="legendMark" style="cursor:default"><rect id="background" x="596.635" y="487.65" width="102.635" height="13.5" fill="#fff" opacity="0"></rect><text id="label" font-size="13.50" font-weight="400" x="600.6" y="499.4" fill="#00875e"><tspan x="600.635" y="499.395">Televisions</tspan></text></g></g><g id="lines" class="Lines"><rect x="64" y="103" width="533" height="394" fill="rgba(255,255,255,0)" opacity="0"></rect><g id="line__Medical-care"><path stroke-linecap="round" stroke-linejoin="round" stroke="#ddd" d="M63.5 370.5L84 366.4L104.5 361.9L125 356.4L145.5 349.9L166 343L186.6 336.8L207.1 329.8L227.6 322.7L248.1 315.7L268.6 307.7L289.1 300.7L309.6 294.5L330.1 287.6L350.6 281.2L371.1 273.3L391.6 267.8L412.1 262.3L432.6 256.2L453.1 247L473.6 240.8L494.1 235.7L514.6 228.3L535.1 217.3L555.6 213.9L576.1 202.4L596.6 199.8" fill="none" stroke-width="1"></path></g><g id="line__College-tuition-__0026-fees"><path stroke-linecap="round" stroke-linejoin="round" stroke="#ddd" d="M63.5 370.5L84 365.2L104.5 359.9L125 354.3L145.5 347L166 336.7L186.6 323.3L207.1 306.9L227.6 292.7L248.1 279L268.6 265.4L289.1 250.9L309.6 236.2L330.1 222.6L350.6 208.8L371.1 194.9L391.6 182.1L412.1 170.5L432.6 159.1L453.1 150L473.6 143.1L494.1 135.3L514.6 125L535.1 119.9L555.6 116.6L576.1 108.4L596.6 103.2" fill="none" stroke-width="1"></path></g><g id="line__Household-energy"><path stroke-linecap="round" stroke-linejoin="round" stroke="#ddd" d="M63.5 370.5L84 375L104.5 375.2L125 365.3L145.5 351.7L166 360.5L186.6 348.8L207.1 342L227.6 323.7L248.1 307L268.6 302L289.1 281.6L309.6 295.2L330.1 293.9L350.6 289.3L371.1 293.9L391.6 289.1L412.1 280.1L432.6 288.2L453.1 292.1L473.6 284.3L494.1 281.6L514.6 282.4L535.1 283L555.6 266.1L576.1 225.3L596.6 207.2" fill="none" stroke-width="1"></path></g><g id="line__Public-transport"><path stroke-linecap="round" stroke-linejoin="round" stroke="#ddd" d="M63.5 370.5L84 368L104.5 363.1L125 355L145.5 354.3L166 356.5L186.6 355.2L207.1 355.4L227.6 349.8L248.1 343.5L268.6 341.2L289.1 327.3L309.6 336.9L330.1 326.7L350.6 314.5L371.1 313.2L391.6 308.1L412.1 309.8L432.6 315L453.1 317.2L473.6 318.8L494.1 321.7L514.6 321.3L535.1 342.9L555.6 340.4L576.1 309.2L596.6 317.4" fill="none" stroke-width="1"></path></g><g id="line__Toys"><path stroke-linecap="round" stroke-linejoin="round" stroke="#ddd" d="M63.5 370.5L84 376.9L104.5 384L125 391.2L145.5 396.5L166 402.8L186.6 409.3L207.1 413.5L227.6 419.2L248.1 422.7L268.6 426.2L289.1 429.9L309.6 433.5L330.1 437.7L350.6 440.2L371.1 443.1L391.6 446L412.1 449.2L432.6 452.2L453.1 455.9L473.6 459.5L494.1 463.1L514.6 465.7L535.1 467.7L555.6 467.7L576.1 467.2L596.6 467.2" fill="none" stroke-width="1"></path></g><g id="line__Tuition__002c-school-fees__002c-childcare"><path stroke-linecap="round" stroke-linejoin="round" stroke="#ddd" d="M63.5 370.5L84 364.2L104.5 357.9L125 350.8L145.5 343.1L166 333.6L186.6 322.6L207.1 310.1L227.6 298.1L248.1 285.9L268.6 274.1L289.1 261.5L309.6 249.4L330.1 238.5L350.6 227.7L371.1 216.9L391.6 206.7L412.1 197.2L432.6 186.4L453.1 177.7L473.6 170.2L494.1 162.7L514.6 153L535.1 146.3L555.6 141.3L576.1 131.7L596.6 124.5" fill="none" stroke-width="1"></path></g><g id="line__New-cars"><path stroke-linecap="round" stroke-linejoin="round" stroke="#ddd" d="M63.5 370.5L84 371.3L104.5 372.4L125 372.4L145.5 372.9L166 374.4L186.6 376.7L207.1 377.4L227.6 376.2L248.1 375.1L268.6 375.7L289.1 376.1L309.6 374.9L330.1 373.7L350.6 370L371.1 368.2L391.6 367.6L412.1 368L432.6 368L453.1 368.7L473.6 369.6L494.1 370.2L514.6 369.5L535.1 368.4L555.6 361.3L576.1 346.3" fill="none" stroke-width="1"></path></g><g id="line__Televisions"><path stroke-linecap="round" stroke-linejoin="round" stroke="#ddd" d="M63.5 370.5L84 375.6L104.5 384.4L125 394.6L145.5 405.1L166 414.7L186.6 425.5L207.1 435.4L227.6 442.5L248.1 451.2L268.6 462.2L289.1 468.2L309.6 475.2L330.1 480.5L350.6 483.3L371.1 485.8L391.6 487.5L412.1 488.8L432.6 490L453.1 491.3L473.6 492.1L494.1 492.9L514.6 493.6L535.1 494.1L555.6 493.9L576.1 494.3L596.6 494.4" fill="none" stroke-width="1"></path></g><g id="line__Housing"><path stroke-linecap="round" stroke-linejoin="round" stroke="#ddd" d="M63.5 370.5L84 367.6L104.5 364.8L125 360.2L145.5 354.7L166 351.6L186.6 347.9L207.1 344.1L227.6 339.1L248.1 333.1L268.6 327.9L289.1 322.5L309.6 321.9L330.1 322.5L350.6 320.2L371.1 317.3L391.6 313.6L412.1 308.9L432.6 305L453.1 300.2L473.6 294.3L494.1 288.5L514.6 282.5L535.1 277.8L555.6 270.6L576.1 254.4L596.6 243.9" fill="none" stroke-width="1"></path></g><g id="line__Food-__0026-beverages"><path stroke-linecap="round" stroke-linejoin="round" stroke="#ddd" d="M63.5 370.5L84 367.8L104.5 365L125 362L145.5 357.8L166 355.3L186.6 352.2L207.1 347.3L227.6 343.7L248.1 340.1L268.6 334L289.1 325.2L309.6 322L330.1 320.6L350.6 314.3L371.1 309.7L391.6 307L412.1 302.6L432.6 299.1L453.1 298.4L473.6 296.7L494.1 293.9L514.6 290.1L535.1 283.2L555.6 275.1L576.1 253.8L596.6 243.1" fill="none" stroke-width="1"></path></g><g id="line__Computer-software-__0026-accessories"><path stroke-linecap="round" stroke-linejoin="round" stroke="#ddd" d="M63.5 370.5L84 376.2L104.5 385.1L125 388.9L145.5 396.9L166 403.4L186.6 411.7L207.1 418L227.6 422.4L248.1 426.9L268.6 430.5L289.1 432.9L309.6 433.8L330.1 438.2L350.6 442.5L371.1 445.1L391.6 448.2L412.1 450.1L432.6 450.4L453.1 453.5L473.6 455.2L494.1 456.3L514.6 459.5L535.1 463.5L555.6 464.1L576.1 464.6L596.6 465.3" fill="none" stroke-width="1"></path></g><g id="line__Clothing"><path stroke-linecap="round" stroke-linejoin="round" stroke="#ddd" d="M63.5 370.5L84 370.3L104.5 372L125 373.6L145.5 375.8L166 378.9L186.6 381.9L207.1 382.3L227.6 383.2L248.1 383.2L268.6 383.7L289.1 383.8L309.6 382.6L330.1 383.2L350.6 380.7L371.1 376.8L391.6 375.7L412.1 375.6L432.6 377.1L453.1 377L473.6 377.4L494.1 377.3L514.6 378.9L535.1 384.5L555.6 381.8L576.1 376L596.6 375.2" fill="none" stroke-width="1"></path></g><g id="line__Medical-care"><path id="outline" fill="none" stroke-linecap="butt" stroke-linejoin="round" stroke="#fff" stroke-width="2.5" d="M63.5 370.5L84 366.4L104.5 361.9L125 356.4L145.5 349.9L166 343L186.6 336.8L207.1 329.8L227.6 322.7L248.1 315.7L268.6 307.7L289.1 300.7L309.6 294.5L330.1 287.6L350.6 281.2L371.1 273.3L391.6 267.8L412.1 262.3L432.6 256.2L453.1 247L473.6 240.8L494.1 235.7L514.6 228.3L535.1 217.3L555.6 213.9L576.1 202.4L596.6 199.8"></path><g id="polyline"><polyline id="polyline" points="63.50,370.50 84.00,366.40 104.50,361.90 125.00,356.40 145.50,349.90 166.00,343.00 186.60,336.80 207.10,329.80 227.60,322.70 248.10,315.70 268.60,307.70 289.10,300.70 309.60,294.50 330.10,287.60 350.60,281.20 371.10,273.30 391.60,267.80 412.10,262.30 432.60,256.20 453.10,247.00 473.60,240.80 494.10,235.70 514.60,228.30 535.10,217.30 555.60,213.90 576.10,202.40 596.60,199.80" stroke-linejoin="round" stroke-width="1.5" stroke="#A2559C" fill="none" stroke-linecap="butt"></polyline></g><g id="markers"><circle cx="63.5" cy="370.5" r="1.8" fill="#A2559C"></circle><circle cx="84" cy="366.4" r="1.8" fill="#A2559C"></circle><circle cx="104.5" cy="361.9" r="1.8" fill="#A2559C"></circle><circle cx="125" cy="356.4" r="1.8" fill="#A2559C"></circle><circle cx="145.5" cy="349.9" r="1.8" fill="#A2559C"></circle><circle cx="166" cy="343" r="1.8" fill="#A2559C"></circle><circle cx="186.6" cy="336.8" r="1.8" fill="#A2559C"></circle><circle cx="207.1" cy="329.8" r="1.8" fill="#A2559C"></circle><circle cx="227.6" cy="322.7" r="1.8" fill="#A2559C"></circle><circle cx="248.1" cy="315.7" r="1.8" fill="#A2559C"></circle><circle cx="268.6" cy="307.7" r="1.8" fill="#A2559C"></circle><circle cx="289.1" cy="300.7" r="1.8" fill="#A2559C"></circle><circle cx="309.6" cy="294.5" r="1.8" fill="#A2559C"></circle><circle cx="330.1" cy="287.6" r="1.8" fill="#A2559C"></circle><circle cx="350.6" cy="281.2" r="1.8" fill="#A2559C"></circle><circle cx="371.1" cy="273.3" r="1.8" fill="#A2559C"></circle><circle cx="391.6" cy="267.8" r="1.8" fill="#A2559C"></circle><circle cx="412.1" cy="262.3" r="1.8" fill="#A2559C"></circle><circle cx="432.6" cy="256.2" r="1.8" fill="#A2559C"></circle><circle cx="453.1" cy="247" r="1.8" fill="#A2559C"></circle><circle cx="473.6" cy="240.8" r="1.8" fill="#A2559C"></circle><circle cx="494.1" cy="235.7" r="1.8" fill="#A2559C"></circle><circle cx="514.6" cy="228.3" r="1.8" fill="#A2559C"></circle><circle cx="535.1" cy="217.3" r="1.8" fill="#A2559C"></circle><circle cx="555.6" cy="213.9" r="1.8" fill="#A2559C"></circle><circle cx="576.1" cy="202.4" r="1.8" fill="#A2559C"></circle><circle cx="596.6" cy="199.8" r="1.8" fill="#A2559C"></circle></g></g><g id="line__College-tuition-__0026-fees"><path id="outline" fill="none" stroke-linecap="butt" stroke-linejoin="round" stroke="#fff" stroke-width="2.5" d="M63.5 370.5L84 365.2L104.5 359.9L125 354.3L145.5 347L166 336.7L186.6 323.3L207.1 306.9L227.6 292.7L248.1 279L268.6 265.4L289.1 250.9L309.6 236.2L330.1 222.6L350.6 208.8L371.1 194.9L391.6 182.1L412.1 170.5L432.6 159.1L453.1 150L473.6 143.1L494.1 135.3L514.6 125L535.1 119.9L555.6 116.6L576.1 108.4L596.6 103.2"></path><g id="polyline"><polyline id="polyline" points="63.50,370.50 84.00,365.20 104.50,359.90 125.00,354.30 145.50,347.00 166.00,336.70 186.60,323.30 207.10,306.90 227.60,292.70 248.10,279.00 268.60,265.40 289.10,250.90 309.60,236.20 330.10,222.60 350.60,208.80 371.10,194.90 391.60,182.10 412.10,170.50 432.60,159.10 453.10,150.00 473.60,143.10 494.10,135.30 514.60,125.00 535.10,119.90 555.60,116.60 576.10,108.40 596.60,103.20" stroke-linejoin="round" stroke-width="1.5" stroke="#008291" fill="none" stroke-linecap="butt"></polyline></g><g id="markers"><circle cx="63.5" cy="370.5" r="1.8" fill="#008291"></circle><circle cx="84" cy="365.2" r="1.8" fill="#008291"></circle><circle cx="104.5" cy="359.9" r="1.8" fill="#008291"></circle><circle cx="125" cy="354.3" r="1.8" fill="#008291"></circle><circle cx="145.5" cy="347" r="1.8" fill="#008291"></circle><circle cx="166" cy="336.7" r="1.8" fill="#008291"></circle><circle cx="186.6" cy="323.3" r="1.8" fill="#008291"></circle><circle cx="207.1" cy="306.9" r="1.8" fill="#008291"></circle><circle cx="227.6" cy="292.7" r="1.8" fill="#008291"></circle><circle cx="248.1" cy="279" r="1.8" fill="#008291"></circle><circle cx="268.6" cy="265.4" r="1.8" fill="#008291"></circle><circle cx="289.1" cy="250.9" r="1.8" fill="#008291"></circle><circle cx="309.6" cy="236.2" r="1.8" fill="#008291"></circle><circle cx="330.1" cy="222.6" r="1.8" fill="#008291"></circle><circle cx="350.6" cy="208.8" r="1.8" fill="#008291"></circle><circle cx="371.1" cy="194.9" r="1.8" fill="#008291"></circle><circle cx="391.6" cy="182.1" r="1.8" fill="#008291"></circle><circle cx="412.1" cy="170.5" r="1.8" fill="#008291"></circle><circle cx="432.6" cy="159.1" r="1.8" fill="#008291"></circle><circle cx="453.1" cy="150" r="1.8" fill="#008291"></circle><circle cx="473.6" cy="143.1" r="1.8" fill="#008291"></circle><circle cx="494.1" cy="135.3" r="1.8" fill="#008291"></circle><circle cx="514.6" cy="125" r="1.8" fill="#008291"></circle><circle cx="535.1" cy="119.9" r="1.8" fill="#008291"></circle><circle cx="555.6" cy="116.6" r="1.8" fill="#008291"></circle><circle cx="576.1" cy="108.4" r="1.8" fill="#008291"></circle><circle cx="596.6" cy="103.2" r="1.8" fill="#008291"></circle></g></g><g id="line__Household-energy"><path id="outline" fill="none" stroke-linecap="butt" stroke-linejoin="round" stroke="#fff" stroke-width="2.5" d="M63.5 370.5L84 375L104.5 375.2L125 365.3L145.5 351.7L166 360.5L186.6 348.8L207.1 342L227.6 323.7L248.1 307L268.6 302L289.1 281.6L309.6 295.2L330.1 293.9L350.6 289.3L371.1 293.9L391.6 289.1L412.1 280.1L432.6 288.2L453.1 292.1L473.6 284.3L494.1 281.6L514.6 282.4L535.1 283L555.6 266.1L576.1 225.3L596.6 207.2"></path><g id="polyline"><polyline id="polyline" points="63.50,370.50 84.00,375.00 104.50,375.20 125.00,365.30 145.50,351.70 166.00,360.50 186.60,348.80 207.10,342.00 227.60,323.70 248.10,307.00 268.60,302.00 289.10,281.60 309.60,295.20 330.10,293.90 350.60,289.30 371.10,293.90 391.60,289.10 412.10,280.10 432.60,288.20 453.10,292.10 473.60,284.30 494.10,281.60 514.60,282.40 535.10,283.00 555.60,266.10 576.10,225.30 596.60,207.20" stroke-linejoin="round" stroke-width="1.5" stroke="#578145" fill="none" stroke-linecap="butt"></polyline></g><g id="markers"><circle cx="63.5" cy="370.5" r="1.8" fill="#578145"></circle><circle cx="84" cy="375" r="1.8" fill="#578145"></circle><circle cx="104.5" cy="375.2" r="1.8" fill="#578145"></circle><circle cx="125" cy="365.3" r="1.8" fill="#578145"></circle><circle cx="145.5" cy="351.7" r="1.8" fill="#578145"></circle><circle cx="166" cy="360.5" r="1.8" fill="#578145"></circle><circle cx="186.6" cy="348.8" r="1.8" fill="#578145"></circle><circle cx="207.1" cy="342" r="1.8" fill="#578145"></circle><circle cx="227.6" cy="323.7" r="1.8" fill="#578145"></circle><circle cx="248.1" cy="307" r="1.8" fill="#578145"></circle><circle cx="268.6" cy="302" r="1.8" fill="#578145"></circle><circle cx="289.1" cy="281.6" r="1.8" fill="#578145"></circle><circle cx="309.6" cy="295.2" r="1.8" fill="#578145"></circle><circle cx="330.1" cy="293.9" r="1.8" fill="#578145"></circle><circle cx="350.6" cy="289.3" r="1.8" fill="#578145"></circle><circle cx="371.1" cy="293.9" r="1.8" fill="#578145"></circle><circle cx="391.6" cy="289.1" r="1.8" fill="#578145"></circle><circle cx="412.1" cy="280.1" r="1.8" fill="#578145"></circle><circle cx="432.6" cy="288.2" r="1.8" fill="#578145"></circle><circle cx="453.1" cy="292.1" r="1.8" fill="#578145"></circle><circle cx="473.6" cy="284.3" r="1.8" fill="#578145"></circle><circle cx="494.1" cy="281.6" r="1.8" fill="#578145"></circle><circle cx="514.6" cy="282.4" r="1.8" fill="#578145"></circle><circle cx="535.1" cy="283" r="1.8" fill="#578145"></circle><circle cx="555.6" cy="266.1" r="1.8" fill="#578145"></circle><circle cx="576.1" cy="225.3" r="1.8" fill="#578145"></circle><circle cx="596.6" cy="207.2" r="1.8" fill="#578145"></circle></g></g><g id="line__Public-transport"><path id="outline" fill="none" stroke-linecap="butt" stroke-linejoin="round" stroke="#fff" stroke-width="2.5" d="M63.5 370.5L84 368L104.5 363.1L125 355L145.5 354.3L166 356.5L186.6 355.2L207.1 355.4L227.6 349.8L248.1 343.5L268.6 341.2L289.1 327.3L309.6 336.9L330.1 326.7L350.6 314.5L371.1 313.2L391.6 308.1L412.1 309.8L432.6 315L453.1 317.2L473.6 318.8L494.1 321.7L514.6 321.3L535.1 342.9L555.6 340.4L576.1 309.2L596.6 317.4"></path><g id="polyline"><polyline id="polyline" points="63.50,370.50 84.00,368.00 104.50,363.10 125.00,355.00 145.50,354.30 166.00,356.50 186.60,355.20 207.10,355.40 227.60,349.80 248.10,343.50 268.60,341.20 289.10,327.30 309.60,336.90 330.10,326.70 350.60,314.50 371.10,313.20 391.60,308.10 412.10,309.80 432.60,315.00 453.10,317.20 473.60,318.80 494.10,321.70 514.60,321.30 535.10,342.90 555.60,340.40 576.10,309.20 596.60,317.40" stroke-linejoin="round" stroke-width="1.5" stroke="#970046" fill="none" stroke-linecap="butt"></polyline></g><g id="markers"><circle cx="63.5" cy="370.5" r="1.8" fill="#970046"></circle><circle cx="84" cy="368" r="1.8" fill="#970046"></circle><circle cx="104.5" cy="363.1" r="1.8" fill="#970046"></circle><circle cx="125" cy="355" r="1.8" fill="#970046"></circle><circle cx="145.5" cy="354.3" r="1.8" fill="#970046"></circle><circle cx="166" cy="356.5" r="1.8" fill="#970046"></circle><circle cx="186.6" cy="355.2" r="1.8" fill="#970046"></circle><circle cx="207.1" cy="355.4" r="1.8" fill="#970046"></circle><circle cx="227.6" cy="349.8" r="1.8" fill="#970046"></circle><circle cx="248.1" cy="343.5" r="1.8" fill="#970046"></circle><circle cx="268.6" cy="341.2" r="1.8" fill="#970046"></circle><circle cx="289.1" cy="327.3" r="1.8" fill="#970046"></circle><circle cx="309.6" cy="336.9" r="1.8" fill="#970046"></circle><circle cx="330.1" cy="326.7" r="1.8" fill="#970046"></circle><circle cx="350.6" cy="314.5" r="1.8" fill="#970046"></circle><circle cx="371.1" cy="313.2" r="1.8" fill="#970046"></circle><circle cx="391.6" cy="308.1" r="1.8" fill="#970046"></circle><circle cx="412.1" cy="309.8" r="1.8" fill="#970046"></circle><circle cx="432.6" cy="315" r="1.8" fill="#970046"></circle><circle cx="453.1" cy="317.2" r="1.8" fill="#970046"></circle><circle cx="473.6" cy="318.8" r="1.8" fill="#970046"></circle><circle cx="494.1" cy="321.7" r="1.8" fill="#970046"></circle><circle cx="514.6" cy="321.3" r="1.8" fill="#970046"></circle><circle cx="535.1" cy="342.9" r="1.8" fill="#970046"></circle><circle cx="555.6" cy="340.4" r="1.8" fill="#970046"></circle><circle cx="576.1" cy="309.2" r="1.8" fill="#970046"></circle><circle cx="596.6" cy="317.4" r="1.8" fill="#970046"></circle></g></g><g id="line__Toys"><path id="outline" fill="none" stroke-linecap="butt" stroke-linejoin="round" stroke="#fff" stroke-width="2.5" d="M63.5 370.5L84 376.9L104.5 384L125 391.2L145.5 396.5L166 402.8L186.6 409.3L207.1 413.5L227.6 419.2L248.1 422.7L268.6 426.2L289.1 429.9L309.6 433.5L330.1 437.7L350.6 440.2L371.1 443.1L391.6 446L412.1 449.2L432.6 452.2L453.1 455.9L473.6 459.5L494.1 463.1L514.6 465.7L535.1 467.7L555.6 467.7L576.1 467.2L596.6 467.2"></path><g id="polyline"><polyline id="polyline" points="63.50,370.50 84.00,376.90 104.50,384.00 125.00,391.20 145.50,396.50 166.00,402.80 186.60,409.30 207.10,413.50 227.60,419.20 248.10,422.70 268.60,426.20 289.10,429.90 309.60,433.50 330.10,437.70 350.60,440.20 371.10,443.10 391.60,446.00 412.10,449.20 432.60,452.20 453.10,455.90 473.60,459.50 494.10,463.10 514.60,465.70 535.10,467.70 555.60,467.70 576.10,467.20 596.60,467.20" stroke-linejoin="round" stroke-width="1.5" stroke="#00847E" fill="none" stroke-linecap="butt"></polyline></g><g id="markers"><circle cx="63.5" cy="370.5" r="1.8" fill="#00847E"></circle><circle cx="84" cy="376.9" r="1.8" fill="#00847E"></circle><circle cx="104.5" cy="384" r="1.8" fill="#00847E"></circle><circle cx="125" cy="391.2" r="1.8" fill="#00847E"></circle><circle cx="145.5" cy="396.5" r="1.8" fill="#00847E"></circle><circle cx="166" cy="402.8" r="1.8" fill="#00847E"></circle><circle cx="186.6" cy="409.3" r="1.8" fill="#00847E"></circle><circle cx="207.1" cy="413.5" r="1.8" fill="#00847E"></circle><circle cx="227.6" cy="419.2" r="1.8" fill="#00847E"></circle><circle cx="248.1" cy="422.7" r="1.8" fill="#00847E"></circle><circle cx="268.6" cy="426.2" r="1.8" fill="#00847E"></circle><circle cx="289.1" cy="429.9" r="1.8" fill="#00847E"></circle><circle cx="309.6" cy="433.5" r="1.8" fill="#00847E"></circle><circle cx="330.1" cy="437.7" r="1.8" fill="#00847E"></circle><circle cx="350.6" cy="440.2" r="1.8" fill="#00847E"></circle><circle cx="371.1" cy="443.1" r="1.8" fill="#00847E"></circle><circle cx="391.6" cy="446" r="1.8" fill="#00847E"></circle><circle cx="412.1" cy="449.2" r="1.8" fill="#00847E"></circle><circle cx="432.6" cy="452.2" r="1.8" fill="#00847E"></circle><circle cx="453.1" cy="455.9" r="1.8" fill="#00847E"></circle><circle cx="473.6" cy="459.5" r="1.8" fill="#00847E"></circle><circle cx="494.1" cy="463.1" r="1.8" fill="#00847E"></circle><circle cx="514.6" cy="465.7" r="1.8" fill="#00847E"></circle><circle cx="535.1" cy="467.7" r="1.8" fill="#00847E"></circle><circle cx="555.6" cy="467.7" r="1.8" fill="#00847E"></circle><circle cx="576.1" cy="467.2" r="1.8" fill="#00847E"></circle><circle cx="596.6" cy="467.2" r="1.8" fill="#00847E"></circle></g></g><g id="line__Tuition__002c-school-fees__002c-childcare"><path id="outline" fill="none" stroke-linecap="butt" stroke-linejoin="round" stroke="#fff" stroke-width="2.5" d="M63.5 370.5L84 364.2L104.5 357.9L125 350.8L145.5 343.1L166 333.6L186.6 322.6L207.1 310.1L227.6 298.1L248.1 285.9L268.6 274.1L289.1 261.5L309.6 249.4L330.1 238.5L350.6 227.7L371.1 216.9L391.6 206.7L412.1 197.2L432.6 186.4L453.1 177.7L473.6 170.2L494.1 162.7L514.6 153L535.1 146.3L555.6 141.3L576.1 131.7L596.6 124.5"></path><g id="polyline"><polyline id="polyline" points="63.50,370.50 84.00,364.20 104.50,357.90 125.00,350.80 145.50,343.10 166.00,333.60 186.60,322.60 207.10,310.10 227.60,298.10 248.10,285.90 268.60,274.10 289.10,261.50 309.60,249.40 330.10,238.50 350.60,227.70 371.10,216.90 391.60,206.70 412.10,197.20 432.60,186.40 453.10,177.70 473.60,170.20 494.10,162.70 514.60,153.00 535.10,146.30 555.60,141.30 576.10,131.70 596.60,124.50" stroke-linejoin="round" stroke-width="1.5" stroke="#B13507" fill="none" stroke-linecap="butt"></polyline></g><g id="markers"><circle cx="63.5" cy="370.5" r="1.8" fill="#B13507"></circle><circle cx="84" cy="364.2" r="1.8" fill="#B13507"></circle><circle cx="104.5" cy="357.9" r="1.8" fill="#B13507"></circle><circle cx="125" cy="350.8" r="1.8" fill="#B13507"></circle><circle cx="145.5" cy="343.1" r="1.8" fill="#B13507"></circle><circle cx="166" cy="333.6" r="1.8" fill="#B13507"></circle><circle cx="186.6" cy="322.6" r="1.8" fill="#B13507"></circle><circle cx="207.1" cy="310.1" r="1.8" fill="#B13507"></circle><circle cx="227.6" cy="298.1" r="1.8" fill="#B13507"></circle><circle cx="248.1" cy="285.9" r="1.8" fill="#B13507"></circle><circle cx="268.6" cy="274.1" r="1.8" fill="#B13507"></circle><circle cx="289.1" cy="261.5" r="1.8" fill="#B13507"></circle><circle cx="309.6" cy="249.4" r="1.8" fill="#B13507"></circle><circle cx="330.1" cy="238.5" r="1.8" fill="#B13507"></circle><circle cx="350.6" cy="227.7" r="1.8" fill="#B13507"></circle><circle cx="371.1" cy="216.9" r="1.8" fill="#B13507"></circle><circle cx="391.6" cy="206.7" r="1.8" fill="#B13507"></circle><circle cx="412.1" cy="197.2" r="1.8" fill="#B13507"></circle><circle cx="432.6" cy="186.4" r="1.8" fill="#B13507"></circle><circle cx="453.1" cy="177.7" r="1.8" fill="#B13507"></circle><circle cx="473.6" cy="170.2" r="1.8" fill="#B13507"></circle><circle cx="494.1" cy="162.7" r="1.8" fill="#B13507"></circle><circle cx="514.6" cy="153" r="1.8" fill="#B13507"></circle><circle cx="535.1" cy="146.3" r="1.8" fill="#B13507"></circle><circle cx="555.6" cy="141.3" r="1.8" fill="#B13507"></circle><circle cx="576.1" cy="131.7" r="1.8" fill="#B13507"></circle><circle cx="596.6" cy="124.5" r="1.8" fill="#B13507"></circle></g></g><g id="line__New-cars"><path id="outline" fill="none" stroke-linecap="butt" stroke-linejoin="round" stroke="#fff" stroke-width="2.5" d="M63.5 370.5L84 371.3L104.5 372.4L125 372.4L145.5 372.9L166 374.4L186.6 376.7L207.1 377.4L227.6 376.2L248.1 375.1L268.6 375.7L289.1 376.1L309.6 374.9L330.1 373.7L350.6 370L371.1 368.2L391.6 367.6L412.1 368L432.6 368L453.1 368.7L473.6 369.6L494.1 370.2L514.6 369.5L535.1 368.4L555.6 361.3L576.1 346.3"></path><g id="polyline"><polyline id="polyline" points="63.50,370.50 84.00,371.30 104.50,372.40 125.00,372.40 145.50,372.90 166.00,374.40 186.60,376.70 207.10,377.40 227.60,376.20 248.10,375.10 268.60,375.70 289.10,376.10 309.60,374.90 330.10,373.70 350.60,370.00 371.10,368.20 391.60,367.60 412.10,368.00 432.60,368.00 453.10,368.70 473.60,369.60 494.10,370.20 514.60,369.50 535.10,368.40 555.60,361.30 576.10,346.30" stroke-linejoin="round" stroke-width="1.5" stroke="#4C6A9C" fill="none" stroke-linecap="butt"></polyline></g><g id="markers"><circle cx="63.5" cy="370.5" r="1.8" fill="#4C6A9C"></circle><circle cx="84" cy="371.3" r="1.8" fill="#4C6A9C"></circle><circle cx="104.5" cy="372.4" r="1.8" fill="#4C6A9C"></circle><circle cx="125" cy="372.4" r="1.8" fill="#4C6A9C"></circle><circle cx="145.5" cy="372.9" r="1.8" fill="#4C6A9C"></circle><circle cx="166" cy="374.4" r="1.8" fill="#4C6A9C"></circle><circle cx="186.6" cy="376.7" r="1.8" fill="#4C6A9C"></circle><circle cx="207.1" cy="377.4" r="1.8" fill="#4C6A9C"></circle><circle cx="227.6" cy="376.2" r="1.8" fill="#4C6A9C"></circle><circle cx="248.1" cy="375.1" r="1.8" fill="#4C6A9C"></circle><circle cx="268.6" cy="375.7" r="1.8" fill="#4C6A9C"></circle><circle cx="289.1" cy="376.1" r="1.8" fill="#4C6A9C"></circle><circle cx="309.6" cy="374.9" r="1.8" fill="#4C6A9C"></circle><circle cx="330.1" cy="373.7" r="1.8" fill="#4C6A9C"></circle><circle cx="350.6" cy="370" r="1.8" fill="#4C6A9C"></circle><circle cx="371.1" cy="368.2" r="1.8" fill="#4C6A9C"></circle><circle cx="391.6" cy="367.6" r="1.8" fill="#4C6A9C"></circle><circle cx="412.1" cy="368" r="1.8" fill="#4C6A9C"></circle><circle cx="432.6" cy="368" r="1.8" fill="#4C6A9C"></circle><circle cx="453.1" cy="368.7" r="1.8" fill="#4C6A9C"></circle><circle cx="473.6" cy="369.6" r="1.8" fill="#4C6A9C"></circle><circle cx="494.1" cy="370.2" r="1.8" fill="#4C6A9C"></circle><circle cx="514.6" cy="369.5" r="1.8" fill="#4C6A9C"></circle><circle cx="535.1" cy="368.4" r="1.8" fill="#4C6A9C"></circle><circle cx="555.6" cy="361.3" r="1.8" fill="#4C6A9C"></circle><circle cx="576.1" cy="346.3" r="1.8" fill="#4C6A9C"></circle></g></g><g id="line__Televisions"><path id="outline" fill="none" stroke-linecap="butt" stroke-linejoin="round" stroke="#fff" stroke-width="2.5" d="M63.5 370.5L84 375.6L104.5 384.4L125 394.6L145.5 405.1L166 414.7L186.6 425.5L207.1 435.4L227.6 442.5L248.1 451.2L268.6 462.2L289.1 468.2L309.6 475.2L330.1 480.5L350.6 483.3L371.1 485.8L391.6 487.5L412.1 488.8L432.6 490L453.1 491.3L473.6 492.1L494.1 492.9L514.6 493.6L535.1 494.1L555.6 493.9L576.1 494.3L596.6 494.4"></path><g id="polyline"><polyline id="polyline" points="63.50,370.50 84.00,375.60 104.50,384.40 125.00,394.60 145.50,405.10 166.00,414.70 186.60,425.50 207.10,435.40 227.60,442.50 248.10,451.20 268.60,462.20 289.10,468.20 309.60,475.20 330.10,480.50 350.60,483.30 371.10,485.80 391.60,487.50 412.10,488.80 432.60,490.00 453.10,491.30 473.60,492.10 494.10,492.90 514.60,493.60 535.10,494.10 555.60,493.90 576.10,494.30 596.60,494.40" stroke-linejoin="round" stroke-width="1.5" stroke="#00875E" fill="none" stroke-linecap="butt"></polyline></g><g id="markers"><circle cx="63.5" cy="370.5" r="1.8" fill="#00875E"></circle><circle cx="84" cy="375.6" r="1.8" fill="#00875E"></circle><circle cx="104.5" cy="384.4" r="1.8" fill="#00875E"></circle><circle cx="125" cy="394.6" r="1.8" fill="#00875E"></circle><circle cx="145.5" cy="405.1" r="1.8" fill="#00875E"></circle><circle cx="166" cy="414.7" r="1.8" fill="#00875E"></circle><circle cx="186.6" cy="425.5" r="1.8" fill="#00875E"></circle><circle cx="207.1" cy="435.4" r="1.8" fill="#00875E"></circle><circle cx="227.6" cy="442.5" r="1.8" fill="#00875E"></circle><circle cx="248.1" cy="451.2" r="1.8" fill="#00875E"></circle><circle cx="268.6" cy="462.2" r="1.8" fill="#00875E"></circle><circle cx="289.1" cy="468.2" r="1.8" fill="#00875E"></circle><circle cx="309.6" cy="475.2" r="1.8" fill="#00875E"></circle><circle cx="330.1" cy="480.5" r="1.8" fill="#00875E"></circle><circle cx="350.6" cy="483.3" r="1.8" fill="#00875E"></circle><circle cx="371.1" cy="485.8" r="1.8" fill="#00875E"></circle><circle cx="391.6" cy="487.5" r="1.8" fill="#00875E"></circle><circle cx="412.1" cy="488.8" r="1.8" fill="#00875E"></circle><circle cx="432.6" cy="490" r="1.8" fill="#00875E"></circle><circle cx="453.1" cy="491.3" r="1.8" fill="#00875E"></circle><circle cx="473.6" cy="492.1" r="1.8" fill="#00875E"></circle><circle cx="494.1" cy="492.9" r="1.8" fill="#00875E"></circle><circle cx="514.6" cy="493.6" r="1.8" fill="#00875E"></circle><circle cx="535.1" cy="494.1" r="1.8" fill="#00875E"></circle><circle cx="555.6" cy="493.9" r="1.8" fill="#00875E"></circle><circle cx="576.1" cy="494.3" r="1.8" fill="#00875E"></circle><circle cx="596.6" cy="494.4" r="1.8" fill="#00875E"></circle></g></g><g id="line__Housing"><path id="outline" fill="none" stroke-linecap="butt" stroke-linejoin="round" stroke="#fff" stroke-width="2.5" d="M63.5 370.5L84 367.6L104.5 364.8L125 360.2L145.5 354.7L166 351.6L186.6 347.9L207.1 344.1L227.6 339.1L248.1 333.1L268.6 327.9L289.1 322.5L309.6 321.9L330.1 322.5L350.6 320.2L371.1 317.3L391.6 313.6L412.1 308.9L432.6 305L453.1 300.2L473.6 294.3L494.1 288.5L514.6 282.5L535.1 277.8L555.6 270.6L576.1 254.4L596.6 243.9"></path><g id="polyline"><polyline id="polyline" points="63.50,370.50 84.00,367.60 104.50,364.80 125.00,360.20 145.50,354.70 166.00,351.60 186.60,347.90 207.10,344.10 227.60,339.10 248.10,333.10 268.60,327.90 289.10,322.50 309.60,321.90 330.10,322.50 350.60,320.20 371.10,317.30 391.60,313.60 412.10,308.90 432.60,305.00 453.10,300.20 473.60,294.30 494.10,288.50 514.60,282.50 535.10,277.80 555.60,270.60 576.10,254.40 596.60,243.90" stroke-linejoin="round" stroke-width="1.5" stroke="#B16214" fill="none" stroke-linecap="butt"></polyline></g><g id="markers"><circle cx="63.5" cy="370.5" r="1.8" fill="#B16214"></circle><circle cx="84" cy="367.6" r="1.8" fill="#B16214"></circle><circle cx="104.5" cy="364.8" r="1.8" fill="#B16214"></circle><circle cx="125" cy="360.2" r="1.8" fill="#B16214"></circle><circle cx="145.5" cy="354.7" r="1.8" fill="#B16214"></circle><circle cx="166" cy="351.6" r="1.8" fill="#B16214"></circle><circle cx="186.6" cy="347.9" r="1.8" fill="#B16214"></circle><circle cx="207.1" cy="344.1" r="1.8" fill="#B16214"></circle><circle cx="227.6" cy="339.1" r="1.8" fill="#B16214"></circle><circle cx="248.1" cy="333.1" r="1.8" fill="#B16214"></circle><circle cx="268.6" cy="327.9" r="1.8" fill="#B16214"></circle><circle cx="289.1" cy="322.5" r="1.8" fill="#B16214"></circle><circle cx="309.6" cy="321.9" r="1.8" fill="#B16214"></circle><circle cx="330.1" cy="322.5" r="1.8" fill="#B16214"></circle><circle cx="350.6" cy="320.2" r="1.8" fill="#B16214"></circle><circle cx="371.1" cy="317.3" r="1.8" fill="#B16214"></circle><circle cx="391.6" cy="313.6" r="1.8" fill="#B16214"></circle><circle cx="412.1" cy="308.9" r="1.8" fill="#B16214"></circle><circle cx="432.6" cy="305" r="1.8" fill="#B16214"></circle><circle cx="453.1" cy="300.2" r="1.8" fill="#B16214"></circle><circle cx="473.6" cy="294.3" r="1.8" fill="#B16214"></circle><circle cx="494.1" cy="288.5" r="1.8" fill="#B16214"></circle><circle cx="514.6" cy="282.5" r="1.8" fill="#B16214"></circle><circle cx="535.1" cy="277.8" r="1.8" fill="#B16214"></circle><circle cx="555.6" cy="270.6" r="1.8" fill="#B16214"></circle><circle cx="576.1" cy="254.4" r="1.8" fill="#B16214"></circle><circle cx="596.6" cy="243.9" r="1.8" fill="#B16214"></circle></g></g><g id="line__Food-__0026-beverages"><path id="outline" fill="none" stroke-linecap="butt" stroke-linejoin="round" stroke="#fff" stroke-width="2.5" d="M63.5 370.5L84 367.8L104.5 365L125 362L145.5 357.8L166 355.3L186.6 352.2L207.1 347.3L227.6 343.7L248.1 340.1L268.6 334L289.1 325.2L309.6 322L330.1 320.6L350.6 314.3L371.1 309.7L391.6 307L412.1 302.6L432.6 299.1L453.1 298.4L473.6 296.7L494.1 293.9L514.6 290.1L535.1 283.2L555.6 275.1L576.1 253.8L596.6 243.1"></path><g id="polyline"><polyline id="polyline" points="63.50,370.50 84.00,367.80 104.50,365.00 125.00,362.00 145.50,357.80 166.00,355.30 186.60,352.20 207.10,347.30 227.60,343.70 248.10,340.10 268.60,334.00 289.10,325.20 309.60,322.00 330.10,320.60 350.60,314.30 371.10,309.70 391.60,307.00 412.10,302.60 432.60,299.10 453.10,298.40 473.60,296.70 494.10,293.90 514.60,290.10 535.10,283.20 555.60,275.10 576.10,253.80 596.60,243.10" stroke-linejoin="round" stroke-width="1.5" stroke="#8C4569" fill="none" stroke-linecap="butt"></polyline></g><g id="markers"><circle cx="63.5" cy="370.5" r="1.8" fill="#8C4569"></circle><circle cx="84" cy="367.8" r="1.8" fill="#8C4569"></circle><circle cx="104.5" cy="365" r="1.8" fill="#8C4569"></circle><circle cx="125" cy="362" r="1.8" fill="#8C4569"></circle><circle cx="145.5" cy="357.8" r="1.8" fill="#8C4569"></circle><circle cx="166" cy="355.3" r="1.8" fill="#8C4569"></circle><circle cx="186.6" cy="352.2" r="1.8" fill="#8C4569"></circle><circle cx="207.1" cy="347.3" r="1.8" fill="#8C4569"></circle><circle cx="227.6" cy="343.7" r="1.8" fill="#8C4569"></circle><circle cx="248.1" cy="340.1" r="1.8" fill="#8C4569"></circle><circle cx="268.6" cy="334" r="1.8" fill="#8C4569"></circle><circle cx="289.1" cy="325.2" r="1.8" fill="#8C4569"></circle><circle cx="309.6" cy="322" r="1.8" fill="#8C4569"></circle><circle cx="330.1" cy="320.6" r="1.8" fill="#8C4569"></circle><circle cx="350.6" cy="314.3" r="1.8" fill="#8C4569"></circle><circle cx="371.1" cy="309.7" r="1.8" fill="#8C4569"></circle><circle cx="391.6" cy="307" r="1.8" fill="#8C4569"></circle><circle cx="412.1" cy="302.6" r="1.8" fill="#8C4569"></circle><circle cx="432.6" cy="299.1" r="1.8" fill="#8C4569"></circle><circle cx="453.1" cy="298.4" r="1.8" fill="#8C4569"></circle><circle cx="473.6" cy="296.7" r="1.8" fill="#8C4569"></circle><circle cx="494.1" cy="293.9" r="1.8" fill="#8C4569"></circle><circle cx="514.6" cy="290.1" r="1.8" fill="#8C4569"></circle><circle cx="535.1" cy="283.2" r="1.8" fill="#8C4569"></circle><circle cx="555.6" cy="275.1" r="1.8" fill="#8C4569"></circle><circle cx="576.1" cy="253.8" r="1.8" fill="#8C4569"></circle><circle cx="596.6" cy="243.1" r="1.8" fill="#8C4569"></circle></g></g><g id="line__Computer-software-__0026-accessories"><path id="outline" fill="none" stroke-linecap="butt" stroke-linejoin="round" stroke="#fff" stroke-width="2.5" d="M63.5 370.5L84 376.2L104.5 385.1L125 388.9L145.5 396.9L166 403.4L186.6 411.7L207.1 418L227.6 422.4L248.1 426.9L268.6 430.5L289.1 432.9L309.6 433.8L330.1 438.2L350.6 442.5L371.1 445.1L391.6 448.2L412.1 450.1L432.6 450.4L453.1 453.5L473.6 455.2L494.1 456.3L514.6 459.5L535.1 463.5L555.6 464.1L576.1 464.6L596.6 465.3"></path><g id="polyline"><polyline id="polyline" points="63.50,370.50 84.00,376.20 104.50,385.10 125.00,388.90 145.50,396.90 166.00,403.40 186.60,411.70 207.10,418.00 227.60,422.40 248.10,426.90 268.60,430.50 289.10,432.90 309.60,433.80 330.10,438.20 350.60,442.50 371.10,445.10 391.60,448.20 412.10,450.10 432.60,450.40 453.10,453.50 473.60,455.20 494.10,456.30 514.60,459.50 535.10,463.50 555.60,464.10 576.10,464.60 596.60,465.30" stroke-linejoin="round" stroke-width="1.5" stroke="#338711" fill="none" stroke-linecap="butt"></polyline></g><g id="markers"><circle cx="63.5" cy="370.5" r="1.8" fill="#338711"></circle><circle cx="84" cy="376.2" r="1.8" fill="#338711"></circle><circle cx="104.5" cy="385.1" r="1.8" fill="#338711"></circle><circle cx="125" cy="388.9" r="1.8" fill="#338711"></circle><circle cx="145.5" cy="396.9" r="1.8" fill="#338711"></circle><circle cx="166" cy="403.4" r="1.8" fill="#338711"></circle><circle cx="186.6" cy="411.7" r="1.8" fill="#338711"></circle><circle cx="207.1" cy="418" r="1.8" fill="#338711"></circle><circle cx="227.6" cy="422.4" r="1.8" fill="#338711"></circle><circle cx="248.1" cy="426.9" r="1.8" fill="#338711"></circle><circle cx="268.6" cy="430.5" r="1.8" fill="#338711"></circle><circle cx="289.1" cy="432.9" r="1.8" fill="#338711"></circle><circle cx="309.6" cy="433.8" r="1.8" fill="#338711"></circle><circle cx="330.1" cy="438.2" r="1.8" fill="#338711"></circle><circle cx="350.6" cy="442.5" r="1.8" fill="#338711"></circle><circle cx="371.1" cy="445.1" r="1.8" fill="#338711"></circle><circle cx="391.6" cy="448.2" r="1.8" fill="#338711"></circle><circle cx="412.1" cy="450.1" r="1.8" fill="#338711"></circle><circle cx="432.6" cy="450.4" r="1.8" fill="#338711"></circle><circle cx="453.1" cy="453.5" r="1.8" fill="#338711"></circle><circle cx="473.6" cy="455.2" r="1.8" fill="#338711"></circle><circle cx="494.1" cy="456.3" r="1.8" fill="#338711"></circle><circle cx="514.6" cy="459.5" r="1.8" fill="#338711"></circle><circle cx="535.1" cy="463.5" r="1.8" fill="#338711"></circle><circle cx="555.6" cy="464.1" r="1.8" fill="#338711"></circle><circle cx="576.1" cy="464.6" r="1.8" fill="#338711"></circle><circle cx="596.6" cy="465.3" r="1.8" fill="#338711"></circle></g></g><g id="line__Clothing"><path id="outline" fill="none" stroke-linecap="butt" stroke-linejoin="round" stroke="#fff" stroke-width="2.5" d="M63.5 370.5L84 370.3L104.5 372L125 373.6L145.5 375.8L166 378.9L186.6 381.9L207.1 382.3L227.6 383.2L248.1 383.2L268.6 383.7L289.1 383.8L309.6 382.6L330.1 383.2L350.6 380.7L371.1 376.8L391.6 375.7L412.1 375.6L432.6 377.1L453.1 377L473.6 377.4L494.1 377.3L514.6 378.9L535.1 384.5L555.6 381.8L576.1 376L596.6 375.2"></path><g id="polyline"><polyline id="polyline" points="63.50,370.50 84.00,370.30 104.50,372.00 125.00,373.60 145.50,375.80 166.00,378.90 186.60,381.90 207.10,382.30 227.60,383.20 248.10,383.20 268.60,383.70 289.10,383.80 309.60,382.60 330.10,383.20 350.60,380.70 371.10,376.80 391.60,375.70 412.10,375.60 432.60,377.10 453.10,377.00 473.60,377.40 494.10,377.30 514.60,378.90 535.10,384.50 555.60,381.80 576.10,376.00 596.60,375.20" stroke-linejoin="round" stroke-width="1.5" stroke="#D73C50" fill="none" stroke-linecap="butt"></polyline></g><g id="markers"><circle cx="63.5" cy="370.5" r="1.8" fill="#D73C50"></circle><circle cx="84" cy="370.3" r="1.8" fill="#D73C50"></circle><circle cx="104.5" cy="372" r="1.8" fill="#D73C50"></circle><circle cx="125" cy="373.6" r="1.8" fill="#D73C50"></circle><circle cx="145.5" cy="375.8" r="1.8" fill="#D73C50"></circle><circle cx="166" cy="378.9" r="1.8" fill="#D73C50"></circle><circle cx="186.6" cy="381.9" r="1.8" fill="#D73C50"></circle><circle cx="207.1" cy="382.3" r="1.8" fill="#D73C50"></circle><circle cx="227.6" cy="383.2" r="1.8" fill="#D73C50"></circle><circle cx="248.1" cy="383.2" r="1.8" fill="#D73C50"></circle><circle cx="268.6" cy="383.7" r="1.8" fill="#D73C50"></circle><circle cx="289.1" cy="383.8" r="1.8" fill="#D73C50"></circle><circle cx="309.6" cy="382.6" r="1.8" fill="#D73C50"></circle><circle cx="330.1" cy="383.2" r="1.8" fill="#D73C50"></circle><circle cx="350.6" cy="380.7" r="1.8" fill="#D73C50"></circle><circle cx="371.1" cy="376.8" r="1.8" fill="#D73C50"></circle><circle cx="391.6" cy="375.7" r="1.8" fill="#D73C50"></circle><circle cx="412.1" cy="375.6" r="1.8" fill="#D73C50"></circle><circle cx="432.6" cy="377.1" r="1.8" fill="#D73C50"></circle><circle cx="453.1" cy="377" r="1.8" fill="#D73C50"></circle><circle cx="473.6" cy="377.4" r="1.8" fill="#D73C50"></circle><circle cx="494.1" cy="377.3" r="1.8" fill="#D73C50"></circle><circle cx="514.6" cy="378.9" r="1.8" fill="#D73C50"></circle><circle cx="535.1" cy="384.5" r="1.8" fill="#D73C50"></circle><circle cx="555.6" cy="381.8" r="1.8" fill="#D73C50"></circle><circle cx="576.1" cy="376" r="1.8" fill="#D73C50"></circle><circle cx="596.6" cy="375.2" r="1.8" fill="#D73C50"></circle></g></g></g></g></g></g><g id="footer" class="SourcesFooter" style="fill:#5b5b5b"><g id="sources" class="markdown-text-wrap"><text x="16.0" y="546.5" style="font-size:13.5px;line-height:1.2"><tspan x="16" y="546.5"><tspan style="font-weight:700">Data source:</tspan> United States Bureau of Labor Statistics (BLS)</tspan></text></g><g id="note" class="markdown-text-wrap"><text x="16.0" y="564.7" style="font-size:13.5px;line-height:1.2"><tspan x="16" y="564.7"><tspan style="font-weight:700">Note:</tspan> Some services  such as medical care  are not adjusted for quality. When adjusted for quality, some treatments have decreased</tspan><tspan x="16" y="580.9">in price rather than increased.</tspan></text></g><text id="origin-url" font-size="13.50" x="528.6" y="546.5"><tspan x="528.63" y="546.495"><a target="_blank" style="fill: #5b5b5b;" href="https://ourworldindata.org/technological-change">OurWorldInData.org/technological-change</a> | <a target="_blank" style="fill: #5b5b5b;" href="https://creativecommons.org/licenses/by/4.0/">CC BY</a></tspan></text></g></svg>