<svg xmlns="http://www.w3.org/2000/svg" version="1.1" style="font-family:Lato, &#x27;Helvetica Neue&#x27;, Helvetica, Arial, &#x27;Liberation Sans&#x27;, sans-serif;font-size:18px;background-color:white;text-rendering:geometricPrecision;-webkit-font-smoothing:antialiased" width="850" height="600" viewBox="0 0 850 600"><defs><pattern id="noDataPattern" patternUnits="userSpaceOnUse" width="4" height="4" patternTransform="rotate(-45 2 2)"><path d="M -1,2 l 6,0" stroke="#ccc" stroke-width="0.7"></path></pattern></defs><rect class="background-fill" fill="white" width="850" height="600"></rect><g class="HeaderView"><g transform="translate(774, 15) scale(0.29)"><svg className="owidLog" width="210" height="120" viewBox="0 0 210 120" fill="none" xmlns="http://www.w3.org/2000/svg">
<g clip-path="url(#clip0)">
  <path d="M0 0h210v107.89H0V0z" fill="#002147" />
  <path
    d="M40.98 32.25c0 2.36-.38 4.53-1.12 6.51a14.26 14.26 0 0 1-8.1 8.4c-1.9.78-4.02 1.17-6.34 1.17-2.31 0-4.42-.39-6.33-1.17a14.31 14.31 0 0 1-8.08-8.4 18.29 18.29 0 0 1-1.12-6.51c0-2.36.38-4.53 1.12-6.5.75-1.97 1.8-3.67 3.17-5.1a14.32 14.32 0 0 1 4.9-3.34c1.92-.8 4.03-1.19 6.34-1.19 2.32 0 4.43.4 6.34 1.19 1.92.8 3.56 1.9 4.93 3.34a14.87 14.87 0 0 1 3.17 5.1 18.1 18.1 0 0 1 1.12 6.5zm-4.38 0c0-1.94-.26-3.68-.8-5.22a10.91 10.91 0 0 0-2.24-3.89 9.68 9.68 0 0 0-3.52-2.46 11.95 11.95 0 0 0-4.62-.86c-1.68 0-3.21.28-4.6.86a9.88 9.88 0 0 0-3.54 2.46 10.91 10.91 0 0 0-2.24 3.9c-.53 1.53-.8 3.27-.8 5.2 0 1.94.27 3.68.8 5.22a11.17 11.17 0 0 0 2.24 3.9 10.01 10.01 0 0 0 3.55 2.44c1.38.56 2.9.83 4.6.83s3.24-.27 4.61-.83a9.8 9.8 0 0 0 3.52-2.44 11.17 11.17 0 0 0 2.25-3.9c.53-1.54.8-3.28.8-5.21zm26.22-6.54V48H60.5c-.56 0-.9-.27-1.05-.81l-.31-2.4a12.45 12.45 0 0 1-3.26 2.6c-1.2.64-2.58.96-4.13.96-1.22 0-2.3-.2-3.24-.6a6.52 6.52 0 0 1-2.33-1.7 7.37 7.37 0 0 1-1.43-2.67c-.3-1.04-.46-2.2-.46-3.45V25.7h3.91v14.22c0 1.68.38 2.99 1.15 3.91.77.93 1.96 1.39 3.54 1.39 1.16 0 2.24-.27 3.23-.82a10.42 10.42 0 0 0 2.8-2.28V25.7h3.91zm8.61 4.47a9.94 9.94 0 0 1 2.6-3.56 5.64 5.64 0 0 1 3.76-1.3c.47 0 .92.05 1.34.15.44.1.83.27 1.17.49l-.3 2.92c-.09.37-.3.55-.66.55-.2 0-.5-.04-.9-.13a6.21 6.21 0 0 0-3.24.18 4.23 4.23 0 0 0-1.47.92c-.42.4-.81.9-1.17 1.5-.33.58-.64 1.26-.92 2.02V48H67.7V25.71h2.25c.42 0 .72.08.88.25.16.16.27.44.33.83l.26 3.39zm61.16-13.7L122.75 48h-3.82l-7.99-24.05a21.95 21.95 0 0 1-.42-1.58 38.36 38.36 0 0 1-.44 1.58L102.05 48h-3.83L88.4 16.47h3.54c.38 0 .7.1.95.29.26.2.43.43.5.73l6.52 21.9.28 1.28.29 1.46.3-1.46.38-1.27 7.41-21.91c.1-.25.26-.48.51-.69.27-.22.58-.33.95-.33h1.23c.38 0 .69.1.92.29a1.77 1.77 0 0 1 .53.73l7.4 21.9a28.4 28.4 0 0 1 .68 2.62 29.52 29.52 0 0 1 .52-2.61l6.54-21.91a1.31 1.31 0 0 1 .48-.7c.27-.21.58-.32.95-.32h3.32zm9.35 8.88c1.63 0 3.1.27 4.4.82a9.43 9.43 0 0 1 5.46 5.94c.5 1.4.74 2.98.74 4.73 0 1.76-.25 3.34-.74 4.75a9.43 9.43 0 0 1-5.46 5.92c-1.3.52-2.77.79-4.4.79-1.64 0-3.12-.27-4.44-.8a9.42 9.42 0 0 1-3.35-2.3c-.92-1-1.63-2.2-2.13-3.61-.49-1.41-.73-3-.73-4.75s.24-3.33.73-4.73c.5-1.43 1.2-2.64 2.13-3.63.93-1 2.04-1.77 3.35-2.31 1.32-.55 2.8-.82 4.44-.82zm0 19.89c2.2 0 3.84-.73 4.93-2.2 1.08-1.48 1.63-3.54 1.63-6.18 0-2.66-.55-4.72-1.63-6.2-1.09-1.49-2.73-2.23-4.93-2.23-1.12 0-2.09.2-2.93.57a5.71 5.71 0 0 0-2.06 1.65c-.55.72-.96 1.61-1.24 2.67-.26 1.04-.4 2.22-.4 3.54 0 2.64.55 4.7 1.64 6.18 1.1 1.47 2.76 2.2 4.99 2.2zm17.97-15.07a9.94 9.94 0 0 1 2.6-3.56 5.64 5.64 0 0 1 3.76-1.3c.47 0 .91.05 1.34.15.44.1.83.27 1.16.49l-.28 2.92c-.09.37-.31.55-.66.55-.2 0-.5-.04-.9-.13a6.2 6.2 0 0 0-3.24.18 4.23 4.23 0 0 0-1.47.92c-.43.4-.82.9-1.17 1.5a13.1 13.1 0 0 0-.92 2.02V48h-3.94V25.71h2.24c.43 0 .72.08.88.25.17.16.28.44.33.83l.27 3.39zm15.04-14.59V48h-3.92V15.6h3.92zm19.55 15.43a6.22 6.22 0 0 0-2.38-2.05 6.7 6.7 0 0 0-2.86-.6c-2.07 0-3.66.75-4.77 2.23-1.12 1.48-1.68 3.6-1.68 6.33 0 1.46.13 2.7.38 3.74a7.29 7.29 0 0 0 1.1 2.56 4.35 4.35 0 0 0 1.78 1.45c.7.3 1.5.46 2.4.46 1.29 0 2.41-.3 3.36-.88a9.6 9.6 0 0 0 2.67-2.49V31.02zm3.91-15.43V48h-2.33c-.56 0-.9-.27-1.06-.81l-.35-2.71a12.13 12.13 0 0 1-3.25 2.77 8.28 8.28 0 0 1-4.23 1.06 7.31 7.31 0 0 1-6.14-2.9c-.73-.96-1.3-2.15-1.69-3.57a18.35 18.35 0 0 1 .07-9.48 11.29 11.29 0 0 1 1.89-3.7 8.7 8.7 0 0 1 7.06-3.34 7.96 7.96 0 0 1 6.12 2.62V15.59h3.91zM46.61 70.71V93H42.7V70.71h3.91zm.84-7c0 .39-.08.75-.24 1.09-.15.32-.35.61-.62.88-.25.25-.55.44-.9.59a2.67 2.67 0 0 1-2.16 0 2.9 2.9 0 0 1-1.45-1.47 2.67 2.67 0 0 1 0-2.16c.15-.35.35-.65.6-.9.25-.27.53-.47.85-.62a2.67 2.67 0 0 1 2.16 0c.35.15.65.35.9.62.27.25.47.55.62.9.16.34.24.7.24 1.08zm7.97 10.24c.49-.54 1-1.04 1.54-1.48a9.85 9.85 0 0 1 3.66-1.84 8.96 8.96 0 0 1 5.43.35c.94.4 1.72.97 2.33 1.71.63.74 1.11 1.62 1.43 2.67.32 1.04.49 2.19.49 3.45V93h-3.94V78.81c0-1.69-.4-3-1.17-3.92-.76-.93-1.93-1.4-3.5-1.4-1.15 0-2.24.27-3.25.83-1 .56-1.92 1.31-2.77 2.27V93h-3.94V70.71h2.35c.56 0 .9.28 1.04.82l.3 2.42zm57.7 3.3c0 2.36-.37 4.5-1.11 6.44a14.3 14.3 0 0 1-3.17 4.98c-1.37 1.37-3 2.45-4.93 3.2-1.9.76-4.02 1.13-6.33 1.13H85.8V61.47h11.77c2.31 0 4.42.39 6.33 1.15a13.8 13.8 0 0 1 8.1 8.18 17.75 17.75 0 0 1 1.12 6.45zm-4.37 0c0-1.94-.26-3.67-.8-5.2a10.94 10.94 0 0 0-2.23-3.87 9.57 9.57 0 0 0-3.53-2.42 12.23 12.23 0 0 0-4.61-.83h-7.5v24.62h7.5c1.7 0 3.24-.28 4.61-.84a9.7 9.7 0 0 0 3.53-2.4 10.94 10.94 0 0 0 2.24-3.87c.53-1.53.8-3.26.8-5.2zm19.8 5.72c-1.8.06-3.34.2-4.62.44-1.26.22-2.3.51-3.1.88-.8.36-1.37.8-1.74 1.3-.35.5-.53 1.05-.53 1.67 0 .58.1 1.1.3 1.52a3 3 0 0 0 .76 1.05c.34.27.73.46 1.17.6a6.13 6.13 0 0 0 1.45.17 7.28 7.28 0 0 0 3.5-.81 11.95 11.95 0 0 0 2.82-2.2v-4.62zm-12.65-9.11a12.73 12.73 0 0 1 3.98-2.66c1.43-.59 3-.88 4.73-.88 1.25 0 2.36.2 3.33.61a6.81 6.81 0 0 1 3.94 4.38c.33 1.04.5 2.19.5 3.43V93h-1.74a1.8 1.8 0 0 1-.88-.18c-.2-.13-.36-.38-.48-.74l-.44-2.12-1.72 1.46a9.48 9.48 0 0 1-3.74 1.7c-.69.15-1.46.23-2.3.23-.87 0-1.69-.12-2.45-.35a5.34 5.34 0 0 1-3.34-2.93 6.64 6.64 0 0 1-.49-2.64c0-.88.25-1.72.73-2.53a6.33 6.33 0 0 1 2.35-2.17c1.09-.63 2.5-1.15 4.25-1.54 1.75-.41 3.89-.65 6.42-.7v-1.75c0-1.73-.37-3.03-1.12-3.91-.75-.9-1.84-1.34-3.28-1.34-.97 0-1.78.12-2.44.37-.64.23-1.2.5-1.7.81l-1.23.82c-.33.23-.67.35-1 .35-.27 0-.5-.07-.69-.2a2.1 2.1 0 0 1-.48-.53l-.7-1.25zm27.67 19.5c-1.76 0-3.12-.5-4.07-1.48-.94-.98-1.41-2.4-1.41-4.25V74h-2.68a.9.9 0 0 1-.6-.2c-.16-.14-.24-.36-.24-.66v-1.56l3.65-.46.9-6.89c.05-.22.14-.4.29-.52a.88.88 0 0 1 .62-.22H142v7.67h6.44V74H142v13.38c0 .94.22 1.63.68 2.09.45.45 1.04.68 1.76.68a3.21 3.21 0 0 0 1.85-.53l.55-.35c.16-.12.3-.18.41-.18.2 0 .4.13.55.38l1.15 1.87a7.45 7.45 0 0 1-2.44 1.5 8.53 8.53 0 0 1-2.95.52zm19.68-10.4c-1.8.07-3.34.21-4.62.45-1.26.22-2.3.51-3.1.88-.8.36-1.37.8-1.74 1.3-.35.5-.53 1.05-.53 1.67 0 .58.1 1.1.3 1.52a2.9 2.9 0 0 0 .76 1.05c.34.27.73.46 1.17.6a6.13 6.13 0 0 0 1.45.17 7.3 7.3 0 0 0 3.5-.81 12.04 12.04 0 0 0 2.82-2.2v-4.62zm-12.65-9.1a12.72 12.72 0 0 1 3.99-2.66c1.42-.59 3-.88 4.72-.88 1.25 0 2.36.2 3.33.61a6.81 6.81 0 0 1 3.94 4.38c.33 1.04.5 2.19.5 3.43V93h-1.74a1.8 1.8 0 0 1-.88-.18c-.2-.13-.36-.38-.48-.74l-.44-2.12-1.72 1.46a9.48 9.48 0 0 1-3.74 1.7c-.69.15-1.46.23-2.3.23-.87 0-1.69-.12-2.45-.35a5.33 5.33 0 0 1-3.34-2.93 6.62 6.62 0 0 1-.49-2.64c0-.88.25-1.72.73-2.53a6.33 6.33 0 0 1 2.35-2.17c1.09-.63 2.5-1.15 4.25-1.54 1.74-.41 3.89-.65 6.42-.7v-1.75c0-1.73-.37-3.03-1.12-3.91-.75-.9-1.84-1.34-3.28-1.34-.97 0-1.78.12-2.44.37-.64.23-1.2.5-1.7.81l-1.22.82c-.34.23-.68.35-1.02.35-.26 0-.49-.07-.68-.2a1.88 1.88 0 0 1-.48-.53l-.7-1.25zM40.98 32.25c0 2.36-.38 4.53-1.12 6.51a14.26 14.26 0 0 1-8.1 8.4c-1.9.78-4.02 1.17-6.34 1.17-2.31 0-4.42-.39-6.33-1.17a14.31 14.31 0 0 1-8.08-8.4 18.29 18.29 0 0 1-1.12-6.51c0-2.36.38-4.53 1.12-6.5.75-1.97 1.8-3.67 3.17-5.1a14.32 14.32 0 0 1 4.9-3.34c1.92-.8 4.03-1.19 6.34-1.19 2.32 0 4.43.4 6.34 1.19 1.92.8 3.56 1.9 4.93 3.34a14.87 14.87 0 0 1 3.17 5.1 18.1 18.1 0 0 1 1.12 6.5zm-4.38 0c0-1.94-.26-3.68-.8-5.22a10.91 10.91 0 0 0-2.24-3.89 9.68 9.68 0 0 0-3.52-2.46 11.95 11.95 0 0 0-4.62-.86c-1.68 0-3.21.28-4.6.86a9.88 9.88 0 0 0-3.54 2.46 10.91 10.91 0 0 0-2.24 3.9c-.53 1.53-.8 3.27-.8 5.2 0 1.94.27 3.68.8 5.22a11.17 11.17 0 0 0 2.24 3.9 10.01 10.01 0 0 0 3.55 2.44c1.38.56 2.9.83 4.6.83s3.24-.27 4.61-.83a9.8 9.8 0 0 0 3.52-2.44 11.17 11.17 0 0 0 2.25-3.9c.53-1.54.8-3.28.8-5.21zm26.22-6.54V48H60.5c-.56 0-.9-.27-1.05-.81l-.31-2.4a12.45 12.45 0 0 1-3.26 2.6c-1.2.64-2.58.96-4.13.96-1.22 0-2.3-.2-3.24-.6a6.52 6.52 0 0 1-2.33-1.7 7.37 7.37 0 0 1-1.43-2.67c-.3-1.04-.46-2.2-.46-3.45V25.7h3.91v14.22c0 1.68.38 2.99 1.15 3.91.77.93 1.96 1.39 3.54 1.39 1.16 0 2.24-.27 3.23-.82a10.42 10.42 0 0 0 2.8-2.28V25.7h3.91zm8.61 4.47a9.94 9.94 0 0 1 2.6-3.56 5.64 5.64 0 0 1 3.76-1.3c.47 0 .92.05 1.34.15.44.1.83.27 1.17.49l-.3 2.92c-.09.37-.3.55-.66.55-.2 0-.5-.04-.9-.13a6.21 6.21 0 0 0-3.24.18 4.23 4.23 0 0 0-1.47.92c-.42.4-.81.9-1.17 1.5-.33.58-.64 1.26-.92 2.02V48H67.7V25.71h2.25c.42 0 .72.08.88.25.16.16.27.44.33.83l.26 3.39zm61.16-13.7L122.75 48h-3.82l-7.99-24.05a21.95 21.95 0 0 1-.42-1.58 38.36 38.36 0 0 1-.44 1.58L102.05 48h-3.83L88.4 16.47h3.54c.38 0 .7.1.95.29.26.2.43.43.5.73l6.52 21.9.28 1.28.29 1.46.3-1.46.38-1.27 7.41-21.91c.1-.25.26-.48.51-.69.27-.22.58-.33.95-.33h1.23c.38 0 .69.1.92.29a1.77 1.77 0 0 1 .53.73l7.4 21.9a28.4 28.4 0 0 1 .68 2.62 29.52 29.52 0 0 1 .52-2.61l6.54-21.91a1.31 1.31 0 0 1 .48-.7c.27-.21.58-.32.95-.32h3.32zm9.35 8.88c1.63 0 3.1.27 4.4.82a9.43 9.43 0 0 1 5.46 5.94c.5 1.4.74 2.98.74 4.73 0 1.76-.25 3.34-.74 4.75a9.43 9.43 0 0 1-5.46 5.92c-1.3.52-2.77.79-4.4.79-1.64 0-3.12-.27-4.44-.8a9.42 9.42 0 0 1-3.35-2.3c-.92-1-1.63-2.2-2.13-3.61-.49-1.41-.73-3-.73-4.75s.24-3.33.73-4.73c.5-1.43 1.2-2.64 2.13-3.63.93-1 2.04-1.77 3.35-2.31 1.32-.55 2.8-.82 4.44-.82zm0 19.89c2.2 0 3.84-.73 4.93-2.2 1.08-1.48 1.63-3.54 1.63-6.18 0-2.66-.55-4.72-1.63-6.2-1.09-1.49-2.73-2.23-4.93-2.23-1.12 0-2.09.2-2.93.57a5.71 5.71 0 0 0-2.06 1.65c-.55.72-.96 1.61-1.24 2.67-.26 1.04-.4 2.22-.4 3.54 0 2.64.55 4.7 1.64 6.18 1.1 1.47 2.76 2.2 4.99 2.2zm17.97-15.07a9.94 9.94 0 0 1 2.6-3.56 5.64 5.64 0 0 1 3.76-1.3c.47 0 .91.05 1.34.15.44.1.83.27 1.16.49l-.28 2.92c-.09.37-.31.55-.66.55-.2 0-.5-.04-.9-.13a6.2 6.2 0 0 0-3.24.18 4.23 4.23 0 0 0-1.47.92c-.43.4-.82.9-1.17 1.5a13.1 13.1 0 0 0-.92 2.02V48h-3.94V25.71h2.24c.43 0 .72.08.88.25.17.16.28.44.33.83l.27 3.39zm15.04-14.59V48h-3.92V15.6h3.92zm19.55 15.43a6.22 6.22 0 0 0-2.38-2.05 6.7 6.7 0 0 0-2.86-.6c-2.07 0-3.66.75-4.77 2.23-1.12 1.48-1.68 3.6-1.68 6.33 0 1.46.13 2.7.38 3.74a7.29 7.29 0 0 0 1.1 2.56 4.35 4.35 0 0 0 1.78 1.45c.7.3 1.5.46 2.4.46 1.29 0 2.41-.3 3.36-.88a9.6 9.6 0 0 0 2.67-2.49V31.02zm3.91-15.43V48h-2.33c-.56 0-.9-.27-1.06-.81l-.35-2.71a12.13 12.13 0 0 1-3.25 2.77 8.28 8.28 0 0 1-4.23 1.06 7.31 7.31 0 0 1-6.14-2.9c-.73-.96-1.3-2.15-1.69-3.57a18.35 18.35 0 0 1 .07-9.48 11.29 11.29 0 0 1 1.89-3.7 8.7 8.7 0 0 1 7.06-3.34 7.96 7.96 0 0 1 6.12 2.62V15.59h3.91zM46.61 70.71V93H42.7V70.71h3.91zm.84-7c0 .39-.08.75-.24 1.09-.15.32-.35.61-.62.88-.25.25-.55.44-.9.59a2.67 2.67 0 0 1-2.16 0 2.9 2.9 0 0 1-1.45-1.47 2.67 2.67 0 0 1 0-2.16c.15-.35.35-.65.6-.9.25-.27.53-.47.85-.62a2.67 2.67 0 0 1 2.16 0c.35.15.65.35.9.62.27.25.47.55.62.9.16.34.24.7.24 1.08zm7.97 10.24c.49-.54 1-1.04 1.54-1.48a9.85 9.85 0 0 1 3.66-1.84 8.96 8.96 0 0 1 5.43.35c.94.4 1.72.97 2.33 1.71.63.74 1.11 1.62 1.43 2.67.32 1.04.49 2.19.49 3.45V93h-3.94V78.81c0-1.69-.4-3-1.17-3.92-.76-.93-1.93-1.4-3.5-1.4-1.15 0-2.24.27-3.25.83-1 .56-1.92 1.31-2.77 2.27V93h-3.94V70.71h2.35c.56 0 .9.28 1.04.82l.3 2.42zm57.7 3.3c0 2.36-.37 4.5-1.11 6.44a14.3 14.3 0 0 1-3.17 4.98c-1.37 1.37-3 2.45-4.93 3.2-1.9.76-4.02 1.13-6.33 1.13H85.8V61.47h11.77c2.31 0 4.42.39 6.33 1.15a13.8 13.8 0 0 1 8.1 8.18 17.75 17.75 0 0 1 1.12 6.45zm-4.37 0c0-1.94-.26-3.67-.8-5.2a10.94 10.94 0 0 0-2.23-3.87 9.57 9.57 0 0 0-3.53-2.42 12.23 12.23 0 0 0-4.61-.83h-7.5v24.62h7.5c1.7 0 3.24-.28 4.61-.84a9.7 9.7 0 0 0 3.53-2.4 10.94 10.94 0 0 0 2.24-3.87c.53-1.53.8-3.26.8-5.2zm19.8 5.72c-1.8.06-3.34.2-4.62.44-1.26.22-2.3.51-3.1.88-.8.36-1.37.8-1.74 1.3-.35.5-.53 1.05-.53 1.67 0 .58.1 1.1.3 1.52a3 3 0 0 0 .76 1.05c.34.27.73.46 1.17.6a6.13 6.13 0 0 0 1.45.17 7.28 7.28 0 0 0 3.5-.81 11.95 11.95 0 0 0 2.82-2.2v-4.62zm-12.65-9.11a12.73 12.73 0 0 1 3.98-2.66c1.43-.59 3-.88 4.73-.88 1.25 0 2.36.2 3.33.61a6.81 6.81 0 0 1 3.94 4.38c.33 1.04.5 2.19.5 3.43V93h-1.74a1.8 1.8 0 0 1-.88-.18c-.2-.13-.36-.38-.48-.74l-.44-2.12-1.72 1.46a9.48 9.48 0 0 1-3.74 1.7c-.69.15-1.46.23-2.3.23-.87 0-1.69-.12-2.45-.35a5.34 5.34 0 0 1-3.34-2.93 6.64 6.64 0 0 1-.49-2.64c0-.88.25-1.72.73-2.53a6.33 6.33 0 0 1 2.35-2.17c1.09-.63 2.5-1.15 4.25-1.54 1.75-.41 3.89-.65 6.42-.7v-1.75c0-1.73-.37-3.03-1.12-3.91-.75-.9-1.84-1.34-3.28-1.34-.97 0-1.78.12-2.44.37-.64.23-1.2.5-1.7.81l-1.23.82c-.33.23-.67.35-1 .35-.27 0-.5-.07-.69-.2a2.1 2.1 0 0 1-.48-.53l-.7-1.25zm27.67 19.5c-1.76 0-3.12-.5-4.07-1.48-.94-.98-1.41-2.4-1.41-4.25V74h-2.68a.9.9 0 0 1-.6-.2c-.16-.14-.24-.36-.24-.66v-1.56l3.65-.46.9-6.89c.05-.22.14-.4.29-.52a.88.88 0 0 1 .62-.22H142v7.67h6.44V74H142v13.38c0 .94.22 1.63.68 2.09.45.45 1.04.68 1.76.68a3.21 3.21 0 0 0 1.85-.53l.55-.35c.16-.12.3-.18.41-.18.2 0 .4.13.55.38l1.15 1.87a7.45 7.45 0 0 1-2.44 1.5 8.53 8.53 0 0 1-2.95.52zm19.68-10.4c-1.8.07-3.34.21-4.62.45-1.26.22-2.3.51-3.1.88-.8.36-1.37.8-1.74 1.3-.35.5-.53 1.05-.53 1.67 0 .58.1 1.1.3 1.52a2.9 2.9 0 0 0 .76 1.05c.34.27.73.46 1.17.6a6.13 6.13 0 0 0 1.45.17 7.3 7.3 0 0 0 3.5-.81 12.04 12.04 0 0 0 2.82-2.2v-4.62zm-12.65-9.1a12.72 12.72 0 0 1 3.99-2.66c1.42-.59 3-.88 4.72-.88 1.25 0 2.36.2 3.33.61a6.81 6.81 0 0 1 3.94 4.38c.33 1.04.5 2.19.5 3.43V93h-1.74a1.8 1.8 0 0 1-.88-.18c-.2-.13-.36-.38-.48-.74l-.44-2.12-1.72 1.46a9.48 9.48 0 0 1-3.74 1.7c-.69.15-1.46.23-2.3.23-.87 0-1.69-.12-2.45-.35a5.33 5.33 0 0 1-3.34-2.93 6.62 6.62 0 0 1-.49-2.64c0-.88.25-1.72.73-2.53a6.33 6.33 0 0 1 2.35-2.17c1.09-.63 2.5-1.15 4.25-1.54 1.74-.41 3.89-.65 6.42-.7v-1.75c0-1.73-.37-3.03-1.12-3.91-.75-.9-1.84-1.34-3.28-1.34-.97 0-1.78.12-2.44.37-.64.23-1.2.5-1.7.81l-1.22.82c-.34.23-.68.35-1.02.35-.26 0-.49-.07-.68-.2a1.88 1.88 0 0 1-.48-.53l-.7-1.25zM40.98 32.25c0 2.36-.38 4.53-1.12 6.51a14.26 14.26 0 0 1-8.1 8.4c-1.9.78-4.02 1.17-6.34 1.17-2.31 0-4.42-.39-6.33-1.17a14.31 14.31 0 0 1-8.08-8.4 18.29 18.29 0 0 1-1.12-6.51c0-2.36.38-4.53 1.12-6.5.75-1.97 1.8-3.67 3.17-5.1a14.32 14.32 0 0 1 4.9-3.34c1.92-.8 4.03-1.19 6.34-1.19 2.32 0 4.43.4 6.34 1.19 1.92.8 3.56 1.9 4.93 3.34a14.87 14.87 0 0 1 3.17 5.1 18.1 18.1 0 0 1 1.12 6.5zm-4.38 0c0-1.94-.26-3.68-.8-5.22a10.91 10.91 0 0 0-2.24-3.89 9.68 9.68 0 0 0-3.52-2.46 11.95 11.95 0 0 0-4.62-.86c-1.68 0-3.21.28-4.6.86a9.88 9.88 0 0 0-3.54 2.46 10.91 10.91 0 0 0-2.24 3.9c-.53 1.53-.8 3.27-.8 5.2 0 1.94.27 3.68.8 5.22a11.17 11.17 0 0 0 2.24 3.9 10.01 10.01 0 0 0 3.55 2.44c1.38.56 2.9.83 4.6.83s3.24-.27 4.61-.83a9.8 9.8 0 0 0 3.52-2.44 11.17 11.17 0 0 0 2.25-3.9c.53-1.54.8-3.28.8-5.21zm26.22-6.54V48H60.5c-.56 0-.9-.27-1.05-.81l-.31-2.4a12.45 12.45 0 0 1-3.26 2.6c-1.2.64-2.58.96-4.13.96-1.22 0-2.3-.2-3.24-.6a6.52 6.52 0 0 1-2.33-1.7 7.37 7.37 0 0 1-1.43-2.67c-.3-1.04-.46-2.2-.46-3.45V25.7h3.91v14.22c0 1.68.38 2.99 1.15 3.91.77.93 1.96 1.39 3.54 1.39 1.16 0 2.24-.27 3.23-.82a10.42 10.42 0 0 0 2.8-2.28V25.7h3.91zm8.61 4.47a9.94 9.94 0 0 1 2.6-3.56 5.64 5.64 0 0 1 3.76-1.3c.47 0 .92.05 1.34.15.44.1.83.27 1.17.49l-.3 2.92c-.09.37-.3.55-.66.55-.2 0-.5-.04-.9-.13a6.21 6.21 0 0 0-3.24.18 4.23 4.23 0 0 0-1.47.92c-.42.4-.81.9-1.17 1.5-.33.58-.64 1.26-.92 2.02V48H67.7V25.71h2.25c.42 0 .72.08.88.25.16.16.27.44.33.83l.26 3.39zm61.16-13.7L122.75 48h-3.82l-7.99-24.05a21.95 21.95 0 0 1-.42-1.58 38.36 38.36 0 0 1-.44 1.58L102.05 48h-3.83L88.4 16.47h3.54c.38 0 .7.1.95.29.26.2.43.43.5.73l6.52 21.9.28 1.28.29 1.46.3-1.46.38-1.27 7.41-21.91c.1-.25.26-.48.51-.69.27-.22.58-.33.95-.33h1.23c.38 0 .69.1.92.29a1.77 1.77 0 0 1 .53.73l7.4 21.9a28.4 28.4 0 0 1 .68 2.62 29.52 29.52 0 0 1 .52-2.61l6.54-21.91a1.31 1.31 0 0 1 .48-.7c.27-.21.58-.32.95-.32h3.32zm9.35 8.88c1.63 0 3.1.27 4.4.82a9.43 9.43 0 0 1 5.46 5.94c.5 1.4.74 2.98.74 4.73 0 1.76-.25 3.34-.74 4.75a9.43 9.43 0 0 1-5.46 5.92c-1.3.52-2.77.79-4.4.79-1.64 0-3.12-.27-4.44-.8a9.42 9.42 0 0 1-3.35-2.3c-.92-1-1.63-2.2-2.13-3.61-.49-1.41-.73-3-.73-4.75s.24-3.33.73-4.73c.5-1.43 1.2-2.64 2.13-3.63.93-1 2.04-1.77 3.35-2.31 1.32-.55 2.8-.82 4.44-.82zm0 19.89c2.2 0 3.84-.73 4.93-2.2 1.08-1.48 1.63-3.54 1.63-6.18 0-2.66-.55-4.72-1.63-6.2-1.09-1.49-2.73-2.23-4.93-2.23-1.12 0-2.09.2-2.93.57a5.71 5.71 0 0 0-2.06 1.65c-.55.72-.96 1.61-1.24 2.67-.26 1.04-.4 2.22-.4 3.54 0 2.64.55 4.7 1.64 6.18 1.1 1.47 2.76 2.2 4.99 2.2zm17.97-15.07a9.94 9.94 0 0 1 2.6-3.56 5.64 5.64 0 0 1 3.76-1.3c.47 0 .91.05 1.34.15.44.1.83.27 1.16.49l-.28 2.92c-.09.37-.31.55-.66.55-.2 0-.5-.04-.9-.13a6.2 6.2 0 0 0-3.24.18 4.23 4.23 0 0 0-1.47.92c-.43.4-.82.9-1.17 1.5a13.1 13.1 0 0 0-.92 2.02V48h-3.94V25.71h2.24c.43 0 .72.08.88.25.17.16.28.44.33.83l.27 3.39zm15.04-14.59V48h-3.92V15.6h3.92zm19.55 15.43a6.22 6.22 0 0 0-2.38-2.05 6.7 6.7 0 0 0-2.86-.6c-2.07 0-3.66.75-4.77 2.23-1.12 1.48-1.68 3.6-1.68 6.33 0 1.46.13 2.7.38 3.74a7.29 7.29 0 0 0 1.1 2.56 4.35 4.35 0 0 0 1.78 1.45c.7.3 1.5.46 2.4.46 1.29 0 2.41-.3 3.36-.88a9.6 9.6 0 0 0 2.67-2.49V31.02zm3.91-15.43V48h-2.33c-.56 0-.9-.27-1.06-.81l-.35-2.71a12.13 12.13 0 0 1-3.25 2.77 8.28 8.28 0 0 1-4.23 1.06 7.31 7.31 0 0 1-6.14-2.9c-.73-.96-1.3-2.15-1.69-3.57a18.35 18.35 0 0 1 .07-9.48 11.29 11.29 0 0 1 1.89-3.7 8.7 8.7 0 0 1 7.06-3.34 7.96 7.96 0 0 1 6.12 2.62V15.59h3.91zM46.61 70.71V93H42.7V70.71h3.91zm.84-7c0 .39-.08.75-.24 1.09-.15.32-.35.61-.62.88-.25.25-.55.44-.9.59a2.67 2.67 0 0 1-2.16 0 2.9 2.9 0 0 1-1.45-1.47 2.67 2.67 0 0 1 0-2.16c.15-.35.35-.65.6-.9.25-.27.53-.47.85-.62a2.67 2.67 0 0 1 2.16 0c.35.15.65.35.9.62.27.25.47.55.62.9.16.34.24.7.24 1.08zm7.97 10.24c.49-.54 1-1.04 1.54-1.48a9.85 9.85 0 0 1 3.66-1.84 8.96 8.96 0 0 1 5.43.35c.94.4 1.72.97 2.33 1.71.63.74 1.11 1.62 1.43 2.67.32 1.04.49 2.19.49 3.45V93h-3.94V78.81c0-1.69-.4-3-1.17-3.92-.76-.93-1.93-1.4-3.5-1.4-1.15 0-2.24.27-3.25.83-1 .56-1.92 1.31-2.77 2.27V93h-3.94V70.71h2.35c.56 0 .9.28 1.04.82l.3 2.42zm57.7 3.3c0 2.36-.37 4.5-1.11 6.44a14.3 14.3 0 0 1-3.17 4.98c-1.37 1.37-3 2.45-4.93 3.2-1.9.76-4.02 1.13-6.33 1.13H85.8V61.47h11.77c2.31 0 4.42.39 6.33 1.15a13.8 13.8 0 0 1 8.1 8.18 17.75 17.75 0 0 1 1.12 6.45zm-4.37 0c0-1.94-.26-3.67-.8-5.2a10.94 10.94 0 0 0-2.23-3.87 9.57 9.57 0 0 0-3.53-2.42 12.23 12.23 0 0 0-4.61-.83h-7.5v24.62h7.5c1.7 0 3.24-.28 4.61-.84a9.7 9.7 0 0 0 3.53-2.4 10.94 10.94 0 0 0 2.24-3.87c.53-1.53.8-3.26.8-5.2zm19.8 5.72c-1.8.06-3.34.2-4.62.44-1.26.22-2.3.51-3.1.88-.8.36-1.37.8-1.74 1.3-.35.5-.53 1.05-.53 1.67 0 .58.1 1.1.3 1.52a3 3 0 0 0 .76 1.05c.34.27.73.46 1.17.6a6.13 6.13 0 0 0 1.45.17 7.28 7.28 0 0 0 3.5-.81 11.95 11.95 0 0 0 2.82-2.2v-4.62zm-12.65-9.11a12.73 12.73 0 0 1 3.98-2.66c1.43-.59 3-.88 4.73-.88 1.25 0 2.36.2 3.33.61a6.81 6.81 0 0 1 3.94 4.38c.33 1.04.5 2.19.5 3.43V93h-1.74a1.8 1.8 0 0 1-.88-.18c-.2-.13-.36-.38-.48-.74l-.44-2.12-1.72 1.46a9.48 9.48 0 0 1-3.74 1.7c-.69.15-1.46.23-2.3.23-.87 0-1.69-.12-2.45-.35a5.34 5.34 0 0 1-3.34-2.93 6.64 6.64 0 0 1-.49-2.64c0-.88.25-1.72.73-2.53a6.33 6.33 0 0 1 2.35-2.17c1.09-.63 2.5-1.15 4.25-1.54 1.75-.41 3.89-.65 6.42-.7v-1.75c0-1.73-.37-3.03-1.12-3.91-.75-.9-1.84-1.34-3.28-1.34-.97 0-1.78.12-2.44.37-.64.23-1.2.5-1.7.81l-1.23.82c-.33.23-.67.35-1 .35-.27 0-.5-.07-.69-.2a2.1 2.1 0 0 1-.48-.53l-.7-1.25zm27.67 19.5c-1.76 0-3.12-.5-4.07-1.48-.94-.98-1.41-2.4-1.41-4.25V74h-2.68a.9.9 0 0 1-.6-.2c-.16-.14-.24-.36-.24-.66v-1.56l3.65-.46.9-6.89c.05-.22.14-.4.29-.52a.88.88 0 0 1 .62-.22H142v7.67h6.44V74H142v13.38c0 .94.22 1.63.68 2.09.45.45 1.04.68 1.76.68a3.21 3.21 0 0 0 1.85-.53l.55-.35c.16-.12.3-.18.41-.18.2 0 .4.13.55.38l1.15 1.87a7.45 7.45 0 0 1-2.44 1.5 8.53 8.53 0 0 1-2.95.52zm19.68-10.4c-1.8.07-3.34.21-4.62.45-1.26.22-2.3.51-3.1.88-.8.36-1.37.8-1.74 1.3-.35.5-.53 1.05-.53 1.67 0 .58.1 1.1.3 1.52a2.9 2.9 0 0 0 .76 1.05c.34.27.73.46 1.17.6a6.13 6.13 0 0 0 1.45.17 7.3 7.3 0 0 0 3.5-.81 12.04 12.04 0 0 0 2.82-2.2v-4.62zm-12.65-9.1a12.72 12.72 0 0 1 3.99-2.66c1.42-.59 3-.88 4.72-.88 1.25 0 2.36.2 3.33.61a6.81 6.81 0 0 1 3.94 4.38c.33 1.04.5 2.19.5 3.43V93h-1.74a1.8 1.8 0 0 1-.88-.18c-.2-.13-.36-.38-.48-.74l-.44-2.12-1.72 1.46a9.48 9.48 0 0 1-3.74 1.7c-.69.15-1.46.23-2.3.23-.87 0-1.69-.12-2.45-.35a5.33 5.33 0 0 1-3.34-2.93 6.62 6.62 0 0 1-.49-2.64c0-.88.25-1.72.73-2.53a6.33 6.33 0 0 1 2.35-2.17c1.09-.63 2.5-1.15 4.25-1.54 1.74-.41 3.89-.65 6.42-.7v-1.75c0-1.73-.37-3.03-1.12-3.91-.75-.9-1.84-1.34-3.28-1.34-.97 0-1.78.12-2.44.37-.64.23-1.2.5-1.7.81l-1.22.82c-.34.23-.68.35-1.02.35-.26 0-.49-.07-.68-.2a1.88 1.88 0 0 1-.48-.53l-.7-1.25z"
    fill="#fff"
  />
  <path fill="#D42B21" d="M0 106.79h210V120H0z" />
</g>
<defs>
  <clipPath id="clip0"><path fill="#fff" d="M0 0h210v120H0z" /></clipPath>
</defs>
</svg></g><a href="http://localhost:3030/grapher/prod-cons-co2-per-capita" style="font-family:&#x27;Playfair Display&#x27;, Georgia, &#x27;Times New Roman&#x27;, &#x27;Liberation Serif&#x27;, serif" target="_blank" rel="noopener"><text font-size="21.60" x="15.0" y="33.8" fill="#555"><tspan x="15" y="33.791999999999994">Production vs. consumption-based CO₂ emissions per capita, United</tspan><tspan x="15" y="55.39199999999999">Kingdom, 1750 to 2021</tspan></text></a><text x="15.0" y="76.2" style="font-size:14.4px;line-height:1.2" fill="#666"><tspan x="15" y="76.2"><tspan>Consumption-based emissions<tspan style="font-size:8px" dy="-5.333333333333333">1</tspan><tspan dy="5.333333333333333" style="font-size:0"> </tspan></tspan> are national emissions that have been adjusted for trade. It&#x27;s production-based emissions minus</tspan><tspan x="15" y="93.4">emissions embedded in exports, plus emissions embedded in imports.</tspan></text></g><g class="LineChart"><defs><clipPath id="boundsClip-1"><rect x="37.216" y="102.75999999999999" width="840" height="453.38"></rect></clipPath></defs><rect x="15" y="112.75999999999999" width="820" height="433.38" fill="transparent"></rect><g class="DualAxisView"><g class="HorizontalAxis"><line x1="47.2" y1="524.94" x2="47.2" y2="529.94" stroke="#999"></line><line x1="678.8" y1="524.94" x2="678.8" y2="529.94" stroke="#999"></line><line x1="163.7" y1="524.94" x2="163.7" y2="529.94" stroke="#999"></line><line x1="280.3" y1="524.94" x2="280.3" y2="529.94" stroke="#999"></line><line x1="396.8" y1="524.94" x2="396.8" y2="529.94" stroke="#999"></line><line x1="513.3" y1="524.94" x2="513.3" y2="529.94" stroke="#999"></line><text x="47.216" y="546.14" fill="#666" text-anchor="start" font-size="16.2">1750</text><text x="678.77" y="546.14" fill="#666" text-anchor="end" font-size="16.2">2021</text><text x="163.7" y="546.14" fill="#666" text-anchor="middle" font-size="16.2">1800</text><text x="280.3" y="546.14" fill="#666" text-anchor="middle" font-size="16.2">1850</text><text x="396.8" y="546.14" fill="#666" text-anchor="middle" font-size="16.2">1900</text><text x="513.3" y="546.14" fill="#666" text-anchor="middle" font-size="16.2">1950</text></g><g class="VerticalAxis"><text x="42.22" y="524.9" dy=".32em" text-anchor="end" fill="#666" font-size="16.2">0 t</text><text x="42.22" y="460.1" dy=".32em" text-anchor="end" fill="#666" font-size="16.2">2 t</text><text x="42.22" y="395.2" dy=".32em" text-anchor="end" fill="#666" font-size="16.2">4 t</text><text x="42.22" y="330.3" dy=".32em" text-anchor="end" fill="#666" font-size="16.2">6 t</text><text x="42.22" y="265.4" dy=".32em" text-anchor="end" fill="#666" font-size="16.2">8 t</text><text x="42.22" y="200.5" dy=".32em" text-anchor="end" fill="#666" font-size="16.2">10 t</text><text x="42.22" y="135.6" dy=".32em" text-anchor="end" fill="#666" font-size="16.2">12 t</text></g><g class="AxisGridLines horizontalLines"><line x1="47.22" y1="524.9" x2="678.77" y2="524.9" stroke="#999"></line><line x1="47.22" y1="460.1" x2="678.77" y2="460.1" stroke="#ddd" stroke-dasharray="3,2"></line><line x1="47.22" y1="395.2" x2="678.77" y2="395.2" stroke="#ddd" stroke-dasharray="3,2"></line><line x1="47.22" y1="330.3" x2="678.77" y2="330.3" stroke="#ddd" stroke-dasharray="3,2"></line><line x1="47.22" y1="265.4" x2="678.77" y2="265.4" stroke="#ddd" stroke-dasharray="3,2"></line><line x1="47.22" y1="200.5" x2="678.77" y2="200.5" stroke="#ddd" stroke-dasharray="3,2"></line><line x1="47.22" y1="135.6" x2="678.77" y2="135.6" stroke="#ddd" stroke-dasharray="3,2"></line></g></g><g clip-path="url(#boundsClip-1)"><g class="LineLabels" style="cursor:default"><g class="legendMark"><rect x="678.77" y="293.35" width="156.23000000000002" height="13.5" fill="#fff" opacity="0"></rect><text font-size="13.50" font-weight="400" x="682.8" y="305.1" fill="#c15065"><tspan x="682.77" y="305.095">Consumption-based</tspan></text></g><g class="legendMark"><rect x="678.77" y="350.95" width="141.245" height="13.5" fill="#fff" opacity="0"></rect><text font-size="13.50" font-weight="400" x="682.8" y="362.7" fill="#4c6a9c"><tspan x="682.77" y="362.695">Production-based</tspan></text></g></g><g class="Lines"><rect x="47" y="113" width="632" height="412" fill="rgba(255,255,255,0)" opacity="0"></rect><g><path stroke-linecap="round" stroke-linejoin="round" stroke="#ddd" d="M606.5 145.5L608.9 142.3L611.2 134.1L613.5 154.8L615.8 160.1L618.2 163.4L620.5 148.4L622.8 150.2L625.2 138L627.5 147.1L629.8 113.3L632.2 125.2L634.5 122L636.8 117L639.2 112.8L641.5 121.2L643.8 121.6L646.1 125.5L648.5 145.3L650.8 196.1L653.1 173.3L655.5 209.9L657.8 200.3L660.1 211.9L662.5 225.2L664.8 231L667.1 240.6L669.4 255.7L671.8 263.3L674.1 275.2L676.4 300.1" fill="none" stroke-width="1"></path></g><g><path stroke-linecap="round" stroke-linejoin="round" stroke="#ddd" d="M47.2 492.3L70.5 491.9L93.8 486.5L117.1 480.3L140.4 470.9L163.7 444.6L166.1 445.2L168.4 445.6L170.7 436.7L173.1 437.3L175.4 435L177.7 430.9L180.1 431.8L182.4 432.8L184.7 433.8L187 437.3L189.4 435L191.7 436L194 439.9L196.4 443.1L198.7 446L201 445.6L203.4 449.1L205.7 453.2L208 456L210.3 458.3L212.7 459.7L215 458.7L217.3 456L219.7 453.7L222 453.9L224.3 454L226.7 452L229 452.4L231.3 452.3L233.7 433.6L236 437.4L238.3 438.6L240.6 439.6L243 440.4L245.3 441.6L247.6 428.3L250 432.7L252.3 431.1L254.6 429.5L257 426.2L259.3 425.7L261.6 421.7L263.9 417.4L266.3 412.3L268.6 404.6L270.9 410L273.3 400.7L275.6 394.1L277.9 386.4L280.3 379L282.6 386.7L284.9 387.9L287.3 389.5L289.6 362.8L291.9 374L294.2 363.5L296.6 367.4L298.9 371.5L301.2 355.7L303.6 336.8L305.9 330.4L308.2 338.1L310.6 327.9L312.9 314.7L315.2 304.1L317.5 299.3L319.9 295.2L322.2 301.5L324.5 292.6L326.9 289.7L329.2 278.1L331.5 267.4L333.9 260.3L336.2 270.3L338.5 258.8L340.9 261.8L343.2 259.8L345.5 267.1L347.8 267.9L350.2 247.4L352.5 235.8L354.8 235.8L357.2 226.5L359.5 236.7L361.8 242.4L364.2 247.2L366.5 242.4L368.8 233.5L371.1 225.7L373.5 221.4L375.8 217.7L378.1 226.9L380.5 260.4L382.8 224.9L385.1 224.9L387.5 219.3L389.8 214.1L392.1 216.3L394.5 197.3L396.8 196.3L399.1 206.3L401.4 196.9L403.8 197.2L406.1 198.6L408.4 197.2L410.8 188.5L413.1 176.6L415.4 188.1L417.8 187.8L420.1 187.6L422.4 181.3L424.8 201.2L427.1 172.6L429.4 184.7L431.7 181.8L434.1 171L436.4 176.6L438.7 201.8L441.1 210.1L443.4 200.6L445.7 304.7L448.1 229.8L450.4 210.7L452.7 195.5L455 213.1L457.4 353.7L459.7 199.9L462 219.5L464.4 203.2L466.7 217.2L469 237.9L471.4 250.3L473.7 254.3L476 234.3L478.4 231.7L480.7 216.4L483 208.2L485.3 222.7L487.7 221.8L490 208.1L492.3 213.1L494.7 214.8L497 225.3L499.3 234.9L501.7 251.9L504 240.9L506.3 225.7L508.6 217.7L511 212.7L513.3 200.3L515.6 173.1L518 185.2L520.3 179.4L522.6 172.9L525 159.3L527.3 162.6L529.6 166.7L532 177.6L534.3 185.5L536.6 164.3L538.9 163.7L541.3 163.2L543.6 159.1L545.9 158.8L548.3 152.8L550.6 157.4L552.9 174.9L555.3 168.3L557.6 157.1L559.9 144.5L562.2 141.5L564.6 149.9L566.9 143.9L569.2 168.9L571.6 177.1L573.9 179.8L576.2 176.3L578.6 176.1L580.9 153.3L583.2 191.4L585.6 202.5L587.9 209.9L590.2 211.7L592.5 221.5L594.9 204.4L597.2 199.7L599.5 198.6L601.9 200.1L604.2 194.4L606.5 183.6L608.9 180.2L611.2 189.9L613.5 198.7L615.8 202.7L618.2 207.9L620.5 197.2L622.8 211.5L625.2 209.3L627.5 214.2L629.8 211.2L632.2 207.6L634.5 218.7L636.8 214L639.2 214.9L641.5 218.5L643.8 221.9L646.1 228.6L648.5 238.6L650.8 267.4L653.1 260.3L655.5 284.1L657.8 277.1L660.1 284L662.5 305.2L664.8 314.8L667.1 327.6L669.4 334.7L671.8 339.5L674.1 347.7L676.4 367.1L678.8 357.7" fill="none" stroke-width="1"></path></g><g><path fill="none" stroke-linecap="butt" stroke-linejoin="round" stroke="#fff" stroke-width="2.5" d="M606.5 145.5L608.9 142.3L611.2 134.1L613.5 154.8L615.8 160.1L618.2 163.4L620.5 148.4L622.8 150.2L625.2 138L627.5 147.1L629.8 113.3L632.2 125.2L634.5 122L636.8 117L639.2 112.8L641.5 121.2L643.8 121.6L646.1 125.5L648.5 145.3L650.8 196.1L653.1 173.3L655.5 209.9L657.8 200.3L660.1 211.9L662.5 225.2L664.8 231L667.1 240.6L669.4 255.7L671.8 263.3L674.1 275.2L676.4 300.1"></path><polyline points="606.50,145.50 608.90,142.30 611.20,134.10 613.50,154.80 615.80,160.10 618.20,163.40 620.50,148.40 622.80,150.20 625.20,138.00 627.50,147.10 629.80,113.30 632.20,125.20 634.50,122.00 636.80,117.00 639.20,112.80 641.50,121.20 643.80,121.60 646.10,125.50 648.50,145.30 650.80,196.10 653.10,173.30 655.50,209.90 657.80,200.30 660.10,211.90 662.50,225.20 664.80,231.00 667.10,240.60 669.40,255.70 671.80,263.30 674.10,275.20 676.40,300.10" stroke-linejoin="round" stroke-width="1.5" stroke="#C15065" fill="none" stroke-linecap="butt"></polyline><g><circle cx="606.5" cy="145.5" r="1.8" fill="#C15065"></circle><circle cx="608.9" cy="142.3" r="1.8" fill="#C15065"></circle><circle cx="611.2" cy="134.1" r="1.8" fill="#C15065"></circle><circle cx="613.5" cy="154.8" r="1.8" fill="#C15065"></circle><circle cx="615.8" cy="160.1" r="1.8" fill="#C15065"></circle><circle cx="618.2" cy="163.4" r="1.8" fill="#C15065"></circle><circle cx="620.5" cy="148.4" r="1.8" fill="#C15065"></circle><circle cx="622.8" cy="150.2" r="1.8" fill="#C15065"></circle><circle cx="625.2" cy="138" r="1.8" fill="#C15065"></circle><circle cx="627.5" cy="147.1" r="1.8" fill="#C15065"></circle><circle cx="629.8" cy="113.3" r="1.8" fill="#C15065"></circle><circle cx="632.2" cy="125.2" r="1.8" fill="#C15065"></circle><circle cx="634.5" cy="122" r="1.8" fill="#C15065"></circle><circle cx="636.8" cy="117" r="1.8" fill="#C15065"></circle><circle cx="639.2" cy="112.8" r="1.8" fill="#C15065"></circle><circle cx="641.5" cy="121.2" r="1.8" fill="#C15065"></circle><circle cx="643.8" cy="121.6" r="1.8" fill="#C15065"></circle><circle cx="646.1" cy="125.5" r="1.8" fill="#C15065"></circle><circle cx="648.5" cy="145.3" r="1.8" fill="#C15065"></circle><circle cx="650.8" cy="196.1" r="1.8" fill="#C15065"></circle><circle cx="653.1" cy="173.3" r="1.8" fill="#C15065"></circle><circle cx="655.5" cy="209.9" r="1.8" fill="#C15065"></circle><circle cx="657.8" cy="200.3" r="1.8" fill="#C15065"></circle><circle cx="660.1" cy="211.9" r="1.8" fill="#C15065"></circle><circle cx="662.5" cy="225.2" r="1.8" fill="#C15065"></circle><circle cx="664.8" cy="231" r="1.8" fill="#C15065"></circle><circle cx="667.1" cy="240.6" r="1.8" fill="#C15065"></circle><circle cx="669.4" cy="255.7" r="1.8" fill="#C15065"></circle><circle cx="671.8" cy="263.3" r="1.8" fill="#C15065"></circle><circle cx="674.1" cy="275.2" r="1.8" fill="#C15065"></circle><circle cx="676.4" cy="300.1" r="1.8" fill="#C15065"></circle></g></g><g><path fill="none" stroke-linecap="butt" stroke-linejoin="round" stroke="#fff" stroke-width="2.5" d="M47.2 492.3L70.5 491.9L93.8 486.5L117.1 480.3L140.4 470.9L163.7 444.6L166.1 445.2L168.4 445.6L170.7 436.7L173.1 437.3L175.4 435L177.7 430.9L180.1 431.8L182.4 432.8L184.7 433.8L187 437.3L189.4 435L191.7 436L194 439.9L196.4 443.1L198.7 446L201 445.6L203.4 449.1L205.7 453.2L208 456L210.3 458.3L212.7 459.7L215 458.7L217.3 456L219.7 453.7L222 453.9L224.3 454L226.7 452L229 452.4L231.3 452.3L233.7 433.6L236 437.4L238.3 438.6L240.6 439.6L243 440.4L245.3 441.6L247.6 428.3L250 432.7L252.3 431.1L254.6 429.5L257 426.2L259.3 425.7L261.6 421.7L263.9 417.4L266.3 412.3L268.6 404.6L270.9 410L273.3 400.7L275.6 394.1L277.9 386.4L280.3 379L282.6 386.7L284.9 387.9L287.3 389.5L289.6 362.8L291.9 374L294.2 363.5L296.6 367.4L298.9 371.5L301.2 355.7L303.6 336.8L305.9 330.4L308.2 338.1L310.6 327.9L312.9 314.7L315.2 304.1L317.5 299.3L319.9 295.2L322.2 301.5L324.5 292.6L326.9 289.7L329.2 278.1L331.5 267.4L333.9 260.3L336.2 270.3L338.5 258.8L340.9 261.8L343.2 259.8L345.5 267.1L347.8 267.9L350.2 247.4L352.5 235.8L354.8 235.8L357.2 226.5L359.5 236.7L361.8 242.4L364.2 247.2L366.5 242.4L368.8 233.5L371.1 225.7L373.5 221.4L375.8 217.7L378.1 226.9L380.5 260.4L382.8 224.9L385.1 224.9L387.5 219.3L389.8 214.1L392.1 216.3L394.5 197.3L396.8 196.3L399.1 206.3L401.4 196.9L403.8 197.2L406.1 198.6L408.4 197.2L410.8 188.5L413.1 176.6L415.4 188.1L417.8 187.8L420.1 187.6L422.4 181.3L424.8 201.2L427.1 172.6L429.4 184.7L431.7 181.8L434.1 171L436.4 176.6L438.7 201.8L441.1 210.1L443.4 200.6L445.7 304.7L448.1 229.8L450.4 210.7L452.7 195.5L455 213.1L457.4 353.7L459.7 199.9L462 219.5L464.4 203.2L466.7 217.2L469 237.9L471.4 250.3L473.7 254.3L476 234.3L478.4 231.7L480.7 216.4L483 208.2L485.3 222.7L487.7 221.8L490 208.1L492.3 213.1L494.7 214.8L497 225.3L499.3 234.9L501.7 251.9L504 240.9L506.3 225.7L508.6 217.7L511 212.7L513.3 200.3L515.6 173.1L518 185.2L520.3 179.4L522.6 172.9L525 159.3L527.3 162.6L529.6 166.7L532 177.6L534.3 185.5L536.6 164.3L538.9 163.7L541.3 163.2L543.6 159.1L545.9 158.8L548.3 152.8L550.6 157.4L552.9 174.9L555.3 168.3L557.6 157.1L559.9 144.5L562.2 141.5L564.6 149.9L566.9 143.9L569.2 168.9L571.6 177.1L573.9 179.8L576.2 176.3L578.6 176.1L580.9 153.3L583.2 191.4L585.6 202.5L587.9 209.9L590.2 211.7L592.5 221.5L594.9 204.4L597.2 199.7L599.5 198.6L601.9 200.1L604.2 194.4L606.5 183.6L608.9 180.2L611.2 189.9L613.5 198.7L615.8 202.7L618.2 207.9L620.5 197.2L622.8 211.5L625.2 209.3L627.5 214.2L629.8 211.2L632.2 207.6L634.5 218.7L636.8 214L639.2 214.9L641.5 218.5L643.8 221.9L646.1 228.6L648.5 238.6L650.8 267.4L653.1 260.3L655.5 284.1L657.8 277.1L660.1 284L662.5 305.2L664.8 314.8L667.1 327.6L669.4 334.7L671.8 339.5L674.1 347.7L676.4 367.1L678.8 357.7"></path><polyline points="47.20,492.30 70.50,491.90 93.80,486.50 117.10,480.30 140.40,470.90 163.70,444.60 166.10,445.20 168.40,445.60 170.70,436.70 173.10,437.30 175.40,435.00 177.70,430.90 180.10,431.80 182.40,432.80 184.70,433.80 187.00,437.30 189.40,435.00 191.70,436.00 194.00,439.90 196.40,443.10 198.70,446.00 201.00,445.60 203.40,449.10 205.70,453.20 208.00,456.00 210.30,458.30 212.70,459.70 215.00,458.70 217.30,456.00 219.70,453.70 222.00,453.90 224.30,454.00 226.70,452.00 229.00,452.40 231.30,452.30 233.70,433.60 236.00,437.40 238.30,438.60 240.60,439.60 243.00,440.40 245.30,441.60 247.60,428.30 250.00,432.70 252.30,431.10 254.60,429.50 257.00,426.20 259.30,425.70 261.60,421.70 263.90,417.40 266.30,412.30 268.60,404.60 270.90,410.00 273.30,400.70 275.60,394.10 277.90,386.40 280.30,379.00 282.60,386.70 284.90,387.90 287.30,389.50 289.60,362.80 291.90,374.00 294.20,363.50 296.60,367.40 298.90,371.50 301.20,355.70 303.60,336.80 305.90,330.40 308.20,338.10 310.60,327.90 312.90,314.70 315.20,304.10 317.50,299.30 319.90,295.20 322.20,301.50 324.50,292.60 326.90,289.70 329.20,278.10 331.50,267.40 333.90,260.30 336.20,270.30 338.50,258.80 340.90,261.80 343.20,259.80 345.50,267.10 347.80,267.90 350.20,247.40 352.50,235.80 354.80,235.80 357.20,226.50 359.50,236.70 361.80,242.40 364.20,247.20 366.50,242.40 368.80,233.50 371.10,225.70 373.50,221.40 375.80,217.70 378.10,226.90 380.50,260.40 382.80,224.90 385.10,224.90 387.50,219.30 389.80,214.10 392.10,216.30 394.50,197.30 396.80,196.30 399.10,206.30 401.40,196.90 403.80,197.20 406.10,198.60 408.40,197.20 410.80,188.50 413.10,176.60 415.40,188.10 417.80,187.80 420.10,187.60 422.40,181.30 424.80,201.20 427.10,172.60 429.40,184.70 431.70,181.80 434.10,171.00 436.40,176.60 438.70,201.80 441.10,210.10 443.40,200.60 445.70,304.70 448.10,229.80 450.40,210.70 452.70,195.50 455.00,213.10 457.40,353.70 459.70,199.90 462.00,219.50 464.40,203.20 466.70,217.20 469.00,237.90 471.40,250.30 473.70,254.30 476.00,234.30 478.40,231.70 480.70,216.40 483.00,208.20 485.30,222.70 487.70,221.80 490.00,208.10 492.30,213.10 494.70,214.80 497.00,225.30 499.30,234.90 501.70,251.90 504.00,240.90 506.30,225.70 508.60,217.70 511.00,212.70 513.30,200.30 515.60,173.10 518.00,185.20 520.30,179.40 522.60,172.90 525.00,159.30 527.30,162.60 529.60,166.70 532.00,177.60 534.30,185.50 536.60,164.30 538.90,163.70 541.30,163.20 543.60,159.10 545.90,158.80 548.30,152.80 550.60,157.40 552.90,174.90 555.30,168.30 557.60,157.10 559.90,144.50 562.20,141.50 564.60,149.90 566.90,143.90 569.20,168.90 571.60,177.10 573.90,179.80 576.20,176.30 578.60,176.10 580.90,153.30 583.20,191.40 585.60,202.50 587.90,209.90 590.20,211.70 592.50,221.50 594.90,204.40 597.20,199.70 599.50,198.60 601.90,200.10 604.20,194.40 606.50,183.60 608.90,180.20 611.20,189.90 613.50,198.70 615.80,202.70 618.20,207.90 620.50,197.20 622.80,211.50 625.20,209.30 627.50,214.20 629.80,211.20 632.20,207.60 634.50,218.70 636.80,214.00 639.20,214.90 641.50,218.50 643.80,221.90 646.10,228.60 648.50,238.60 650.80,267.40 653.10,260.30 655.50,284.10 657.80,277.10 660.10,284.00 662.50,305.20 664.80,314.80 667.10,327.60 669.40,334.70 671.80,339.50 674.10,347.70 676.40,367.10 678.80,357.70" stroke-linejoin="round" stroke-width="1.5" stroke="#4c6a9c" fill="none" stroke-linecap="butt"></polyline><g><circle cx="47.2" cy="492.3" r="1.8" fill="#4c6a9c"></circle><circle cx="70.5" cy="491.9" r="1.8" fill="#4c6a9c"></circle><circle cx="93.8" cy="486.5" r="1.8" fill="#4c6a9c"></circle><circle cx="117.1" cy="480.3" r="1.8" fill="#4c6a9c"></circle><circle cx="140.4" cy="470.9" r="1.8" fill="#4c6a9c"></circle><circle cx="163.7" cy="444.6" r="1.8" fill="#4c6a9c"></circle><circle cx="166.1" cy="445.2" r="1.8" fill="#4c6a9c"></circle><circle cx="168.4" cy="445.6" r="1.8" fill="#4c6a9c"></circle><circle cx="170.7" cy="436.7" r="1.8" fill="#4c6a9c"></circle><circle cx="173.1" cy="437.3" r="1.8" fill="#4c6a9c"></circle><circle cx="175.4" cy="435" r="1.8" fill="#4c6a9c"></circle><circle cx="177.7" cy="430.9" r="1.8" fill="#4c6a9c"></circle><circle cx="180.1" cy="431.8" r="1.8" fill="#4c6a9c"></circle><circle cx="182.4" cy="432.8" r="1.8" fill="#4c6a9c"></circle><circle cx="184.7" cy="433.8" r="1.8" fill="#4c6a9c"></circle><circle cx="187" cy="437.3" r="1.8" fill="#4c6a9c"></circle><circle cx="189.4" cy="435" r="1.8" fill="#4c6a9c"></circle><circle cx="191.7" cy="436" r="1.8" fill="#4c6a9c"></circle><circle cx="194" cy="439.9" r="1.8" fill="#4c6a9c"></circle><circle cx="196.4" cy="443.1" r="1.8" fill="#4c6a9c"></circle><circle cx="198.7" cy="446" r="1.8" fill="#4c6a9c"></circle><circle cx="201" cy="445.6" r="1.8" fill="#4c6a9c"></circle><circle cx="203.4" cy="449.1" r="1.8" fill="#4c6a9c"></circle><circle cx="205.7" cy="453.2" r="1.8" fill="#4c6a9c"></circle><circle cx="208" cy="456" r="1.8" fill="#4c6a9c"></circle><circle cx="210.3" cy="458.3" r="1.8" fill="#4c6a9c"></circle><circle cx="212.7" cy="459.7" r="1.8" fill="#4c6a9c"></circle><circle cx="215" cy="458.7" r="1.8" fill="#4c6a9c"></circle><circle cx="217.3" cy="456" r="1.8" fill="#4c6a9c"></circle><circle cx="219.7" cy="453.7" r="1.8" fill="#4c6a9c"></circle><circle cx="222" cy="453.9" r="1.8" fill="#4c6a9c"></circle><circle cx="224.3" cy="454" r="1.8" fill="#4c6a9c"></circle><circle cx="226.7" cy="452" r="1.8" fill="#4c6a9c"></circle><circle cx="229" cy="452.4" r="1.8" fill="#4c6a9c"></circle><circle cx="231.3" cy="452.3" r="1.8" fill="#4c6a9c"></circle><circle cx="233.7" cy="433.6" r="1.8" fill="#4c6a9c"></circle><circle cx="236" cy="437.4" r="1.8" fill="#4c6a9c"></circle><circle cx="238.3" cy="438.6" r="1.8" fill="#4c6a9c"></circle><circle cx="240.6" cy="439.6" r="1.8" fill="#4c6a9c"></circle><circle cx="243" cy="440.4" r="1.8" fill="#4c6a9c"></circle><circle cx="245.3" cy="441.6" r="1.8" fill="#4c6a9c"></circle><circle cx="247.6" cy="428.3" r="1.8" fill="#4c6a9c"></circle><circle cx="250" cy="432.7" r="1.8" fill="#4c6a9c"></circle><circle cx="252.3" cy="431.1" r="1.8" fill="#4c6a9c"></circle><circle cx="254.6" cy="429.5" r="1.8" fill="#4c6a9c"></circle><circle cx="257" cy="426.2" r="1.8" fill="#4c6a9c"></circle><circle cx="259.3" cy="425.7" r="1.8" fill="#4c6a9c"></circle><circle cx="261.6" cy="421.7" r="1.8" fill="#4c6a9c"></circle><circle cx="263.9" cy="417.4" r="1.8" fill="#4c6a9c"></circle><circle cx="266.3" cy="412.3" r="1.8" fill="#4c6a9c"></circle><circle cx="268.6" cy="404.6" r="1.8" fill="#4c6a9c"></circle><circle cx="270.9" cy="410" r="1.8" fill="#4c6a9c"></circle><circle cx="273.3" cy="400.7" r="1.8" fill="#4c6a9c"></circle><circle cx="275.6" cy="394.1" r="1.8" fill="#4c6a9c"></circle><circle cx="277.9" cy="386.4" r="1.8" fill="#4c6a9c"></circle><circle cx="280.3" cy="379" r="1.8" fill="#4c6a9c"></circle><circle cx="282.6" cy="386.7" r="1.8" fill="#4c6a9c"></circle><circle cx="284.9" cy="387.9" r="1.8" fill="#4c6a9c"></circle><circle cx="287.3" cy="389.5" r="1.8" fill="#4c6a9c"></circle><circle cx="289.6" cy="362.8" r="1.8" fill="#4c6a9c"></circle><circle cx="291.9" cy="374" r="1.8" fill="#4c6a9c"></circle><circle cx="294.2" cy="363.5" r="1.8" fill="#4c6a9c"></circle><circle cx="296.6" cy="367.4" r="1.8" fill="#4c6a9c"></circle><circle cx="298.9" cy="371.5" r="1.8" fill="#4c6a9c"></circle><circle cx="301.2" cy="355.7" r="1.8" fill="#4c6a9c"></circle><circle cx="303.6" cy="336.8" r="1.8" fill="#4c6a9c"></circle><circle cx="305.9" cy="330.4" r="1.8" fill="#4c6a9c"></circle><circle cx="308.2" cy="338.1" r="1.8" fill="#4c6a9c"></circle><circle cx="310.6" cy="327.9" r="1.8" fill="#4c6a9c"></circle><circle cx="312.9" cy="314.7" r="1.8" fill="#4c6a9c"></circle><circle cx="315.2" cy="304.1" r="1.8" fill="#4c6a9c"></circle><circle cx="317.5" cy="299.3" r="1.8" fill="#4c6a9c"></circle><circle cx="319.9" cy="295.2" r="1.8" fill="#4c6a9c"></circle><circle cx="322.2" cy="301.5" r="1.8" fill="#4c6a9c"></circle><circle cx="324.5" cy="292.6" r="1.8" fill="#4c6a9c"></circle><circle cx="326.9" cy="289.7" r="1.8" fill="#4c6a9c"></circle><circle cx="329.2" cy="278.1" r="1.8" fill="#4c6a9c"></circle><circle cx="331.5" cy="267.4" r="1.8" fill="#4c6a9c"></circle><circle cx="333.9" cy="260.3" r="1.8" fill="#4c6a9c"></circle><circle cx="336.2" cy="270.3" r="1.8" fill="#4c6a9c"></circle><circle cx="338.5" cy="258.8" r="1.8" fill="#4c6a9c"></circle><circle cx="340.9" cy="261.8" r="1.8" fill="#4c6a9c"></circle><circle cx="343.2" cy="259.8" r="1.8" fill="#4c6a9c"></circle><circle cx="345.5" cy="267.1" r="1.8" fill="#4c6a9c"></circle><circle cx="347.8" cy="267.9" r="1.8" fill="#4c6a9c"></circle><circle cx="350.2" cy="247.4" r="1.8" fill="#4c6a9c"></circle><circle cx="352.5" cy="235.8" r="1.8" fill="#4c6a9c"></circle><circle cx="354.8" cy="235.8" r="1.8" fill="#4c6a9c"></circle><circle cx="357.2" cy="226.5" r="1.8" fill="#4c6a9c"></circle><circle cx="359.5" cy="236.7" r="1.8" fill="#4c6a9c"></circle><circle cx="361.8" cy="242.4" r="1.8" fill="#4c6a9c"></circle><circle cx="364.2" cy="247.2" r="1.8" fill="#4c6a9c"></circle><circle cx="366.5" cy="242.4" r="1.8" fill="#4c6a9c"></circle><circle cx="368.8" cy="233.5" r="1.8" fill="#4c6a9c"></circle><circle cx="371.1" cy="225.7" r="1.8" fill="#4c6a9c"></circle><circle cx="373.5" cy="221.4" r="1.8" fill="#4c6a9c"></circle><circle cx="375.8" cy="217.7" r="1.8" fill="#4c6a9c"></circle><circle cx="378.1" cy="226.9" r="1.8" fill="#4c6a9c"></circle><circle cx="380.5" cy="260.4" r="1.8" fill="#4c6a9c"></circle><circle cx="382.8" cy="224.9" r="1.8" fill="#4c6a9c"></circle><circle cx="385.1" cy="224.9" r="1.8" fill="#4c6a9c"></circle><circle cx="387.5" cy="219.3" r="1.8" fill="#4c6a9c"></circle><circle cx="389.8" cy="214.1" r="1.8" fill="#4c6a9c"></circle><circle cx="392.1" cy="216.3" r="1.8" fill="#4c6a9c"></circle><circle cx="394.5" cy="197.3" r="1.8" fill="#4c6a9c"></circle><circle cx="396.8" cy="196.3" r="1.8" fill="#4c6a9c"></circle><circle cx="399.1" cy="206.3" r="1.8" fill="#4c6a9c"></circle><circle cx="401.4" cy="196.9" r="1.8" fill="#4c6a9c"></circle><circle cx="403.8" cy="197.2" r="1.8" fill="#4c6a9c"></circle><circle cx="406.1" cy="198.6" r="1.8" fill="#4c6a9c"></circle><circle cx="408.4" cy="197.2" r="1.8" fill="#4c6a9c"></circle><circle cx="410.8" cy="188.5" r="1.8" fill="#4c6a9c"></circle><circle cx="413.1" cy="176.6" r="1.8" fill="#4c6a9c"></circle><circle cx="415.4" cy="188.1" r="1.8" fill="#4c6a9c"></circle><circle cx="417.8" cy="187.8" r="1.8" fill="#4c6a9c"></circle><circle cx="420.1" cy="187.6" r="1.8" fill="#4c6a9c"></circle><circle cx="422.4" cy="181.3" r="1.8" fill="#4c6a9c"></circle><circle cx="424.8" cy="201.2" r="1.8" fill="#4c6a9c"></circle><circle cx="427.1" cy="172.6" r="1.8" fill="#4c6a9c"></circle><circle cx="429.4" cy="184.7" r="1.8" fill="#4c6a9c"></circle><circle cx="431.7" cy="181.8" r="1.8" fill="#4c6a9c"></circle><circle cx="434.1" cy="171" r="1.8" fill="#4c6a9c"></circle><circle cx="436.4" cy="176.6" r="1.8" fill="#4c6a9c"></circle><circle cx="438.7" cy="201.8" r="1.8" fill="#4c6a9c"></circle><circle cx="441.1" cy="210.1" r="1.8" fill="#4c6a9c"></circle><circle cx="443.4" cy="200.6" r="1.8" fill="#4c6a9c"></circle><circle cx="445.7" cy="304.7" r="1.8" fill="#4c6a9c"></circle><circle cx="448.1" cy="229.8" r="1.8" fill="#4c6a9c"></circle><circle cx="450.4" cy="210.7" r="1.8" fill="#4c6a9c"></circle><circle cx="452.7" cy="195.5" r="1.8" fill="#4c6a9c"></circle><circle cx="455" cy="213.1" r="1.8" fill="#4c6a9c"></circle><circle cx="457.4" cy="353.7" r="1.8" fill="#4c6a9c"></circle><circle cx="459.7" cy="199.9" r="1.8" fill="#4c6a9c"></circle><circle cx="462" cy="219.5" r="1.8" fill="#4c6a9c"></circle><circle cx="464.4" cy="203.2" r="1.8" fill="#4c6a9c"></circle><circle cx="466.7" cy="217.2" r="1.8" fill="#4c6a9c"></circle><circle cx="469" cy="237.9" r="1.8" fill="#4c6a9c"></circle><circle cx="471.4" cy="250.3" r="1.8" fill="#4c6a9c"></circle><circle cx="473.7" cy="254.3" r="1.8" fill="#4c6a9c"></circle><circle cx="476" cy="234.3" r="1.8" fill="#4c6a9c"></circle><circle cx="478.4" cy="231.7" r="1.8" fill="#4c6a9c"></circle><circle cx="480.7" cy="216.4" r="1.8" fill="#4c6a9c"></circle><circle cx="483" cy="208.2" r="1.8" fill="#4c6a9c"></circle><circle cx="485.3" cy="222.7" r="1.8" fill="#4c6a9c"></circle><circle cx="487.7" cy="221.8" r="1.8" fill="#4c6a9c"></circle><circle cx="490" cy="208.1" r="1.8" fill="#4c6a9c"></circle><circle cx="492.3" cy="213.1" r="1.8" fill="#4c6a9c"></circle><circle cx="494.7" cy="214.8" r="1.8" fill="#4c6a9c"></circle><circle cx="497" cy="225.3" r="1.8" fill="#4c6a9c"></circle><circle cx="499.3" cy="234.9" r="1.8" fill="#4c6a9c"></circle><circle cx="501.7" cy="251.9" r="1.8" fill="#4c6a9c"></circle><circle cx="504" cy="240.9" r="1.8" fill="#4c6a9c"></circle><circle cx="506.3" cy="225.7" r="1.8" fill="#4c6a9c"></circle><circle cx="508.6" cy="217.7" r="1.8" fill="#4c6a9c"></circle><circle cx="511" cy="212.7" r="1.8" fill="#4c6a9c"></circle><circle cx="513.3" cy="200.3" r="1.8" fill="#4c6a9c"></circle><circle cx="515.6" cy="173.1" r="1.8" fill="#4c6a9c"></circle><circle cx="518" cy="185.2" r="1.8" fill="#4c6a9c"></circle><circle cx="520.3" cy="179.4" r="1.8" fill="#4c6a9c"></circle><circle cx="522.6" cy="172.9" r="1.8" fill="#4c6a9c"></circle><circle cx="525" cy="159.3" r="1.8" fill="#4c6a9c"></circle><circle cx="527.3" cy="162.6" r="1.8" fill="#4c6a9c"></circle><circle cx="529.6" cy="166.7" r="1.8" fill="#4c6a9c"></circle><circle cx="532" cy="177.6" r="1.8" fill="#4c6a9c"></circle><circle cx="534.3" cy="185.5" r="1.8" fill="#4c6a9c"></circle><circle cx="536.6" cy="164.3" r="1.8" fill="#4c6a9c"></circle><circle cx="538.9" cy="163.7" r="1.8" fill="#4c6a9c"></circle><circle cx="541.3" cy="163.2" r="1.8" fill="#4c6a9c"></circle><circle cx="543.6" cy="159.1" r="1.8" fill="#4c6a9c"></circle><circle cx="545.9" cy="158.8" r="1.8" fill="#4c6a9c"></circle><circle cx="548.3" cy="152.8" r="1.8" fill="#4c6a9c"></circle><circle cx="550.6" cy="157.4" r="1.8" fill="#4c6a9c"></circle><circle cx="552.9" cy="174.9" r="1.8" fill="#4c6a9c"></circle><circle cx="555.3" cy="168.3" r="1.8" fill="#4c6a9c"></circle><circle cx="557.6" cy="157.1" r="1.8" fill="#4c6a9c"></circle><circle cx="559.9" cy="144.5" r="1.8" fill="#4c6a9c"></circle><circle cx="562.2" cy="141.5" r="1.8" fill="#4c6a9c"></circle><circle cx="564.6" cy="149.9" r="1.8" fill="#4c6a9c"></circle><circle cx="566.9" cy="143.9" r="1.8" fill="#4c6a9c"></circle><circle cx="569.2" cy="168.9" r="1.8" fill="#4c6a9c"></circle><circle cx="571.6" cy="177.1" r="1.8" fill="#4c6a9c"></circle><circle cx="573.9" cy="179.8" r="1.8" fill="#4c6a9c"></circle><circle cx="576.2" cy="176.3" r="1.8" fill="#4c6a9c"></circle><circle cx="578.6" cy="176.1" r="1.8" fill="#4c6a9c"></circle><circle cx="580.9" cy="153.3" r="1.8" fill="#4c6a9c"></circle><circle cx="583.2" cy="191.4" r="1.8" fill="#4c6a9c"></circle><circle cx="585.6" cy="202.5" r="1.8" fill="#4c6a9c"></circle><circle cx="587.9" cy="209.9" r="1.8" fill="#4c6a9c"></circle><circle cx="590.2" cy="211.7" r="1.8" fill="#4c6a9c"></circle><circle cx="592.5" cy="221.5" r="1.8" fill="#4c6a9c"></circle><circle cx="594.9" cy="204.4" r="1.8" fill="#4c6a9c"></circle><circle cx="597.2" cy="199.7" r="1.8" fill="#4c6a9c"></circle><circle cx="599.5" cy="198.6" r="1.8" fill="#4c6a9c"></circle><circle cx="601.9" cy="200.1" r="1.8" fill="#4c6a9c"></circle><circle cx="604.2" cy="194.4" r="1.8" fill="#4c6a9c"></circle><circle cx="606.5" cy="183.6" r="1.8" fill="#4c6a9c"></circle><circle cx="608.9" cy="180.2" r="1.8" fill="#4c6a9c"></circle><circle cx="611.2" cy="189.9" r="1.8" fill="#4c6a9c"></circle><circle cx="613.5" cy="198.7" r="1.8" fill="#4c6a9c"></circle><circle cx="615.8" cy="202.7" r="1.8" fill="#4c6a9c"></circle><circle cx="618.2" cy="207.9" r="1.8" fill="#4c6a9c"></circle><circle cx="620.5" cy="197.2" r="1.8" fill="#4c6a9c"></circle><circle cx="622.8" cy="211.5" r="1.8" fill="#4c6a9c"></circle><circle cx="625.2" cy="209.3" r="1.8" fill="#4c6a9c"></circle><circle cx="627.5" cy="214.2" r="1.8" fill="#4c6a9c"></circle><circle cx="629.8" cy="211.2" r="1.8" fill="#4c6a9c"></circle><circle cx="632.2" cy="207.6" r="1.8" fill="#4c6a9c"></circle><circle cx="634.5" cy="218.7" r="1.8" fill="#4c6a9c"></circle><circle cx="636.8" cy="214" r="1.8" fill="#4c6a9c"></circle><circle cx="639.2" cy="214.9" r="1.8" fill="#4c6a9c"></circle><circle cx="641.5" cy="218.5" r="1.8" fill="#4c6a9c"></circle><circle cx="643.8" cy="221.9" r="1.8" fill="#4c6a9c"></circle><circle cx="646.1" cy="228.6" r="1.8" fill="#4c6a9c"></circle><circle cx="648.5" cy="238.6" r="1.8" fill="#4c6a9c"></circle><circle cx="650.8" cy="267.4" r="1.8" fill="#4c6a9c"></circle><circle cx="653.1" cy="260.3" r="1.8" fill="#4c6a9c"></circle><circle cx="655.5" cy="284.1" r="1.8" fill="#4c6a9c"></circle><circle cx="657.8" cy="277.1" r="1.8" fill="#4c6a9c"></circle><circle cx="660.1" cy="284" r="1.8" fill="#4c6a9c"></circle><circle cx="662.5" cy="305.2" r="1.8" fill="#4c6a9c"></circle><circle cx="664.8" cy="314.8" r="1.8" fill="#4c6a9c"></circle><circle cx="667.1" cy="327.6" r="1.8" fill="#4c6a9c"></circle><circle cx="669.4" cy="334.7" r="1.8" fill="#4c6a9c"></circle><circle cx="671.8" cy="339.5" r="1.8" fill="#4c6a9c"></circle><circle cx="674.1" cy="347.7" r="1.8" fill="#4c6a9c"></circle><circle cx="676.4" cy="367.1" r="1.8" fill="#4c6a9c"></circle><circle cx="678.8" cy="357.7" r="1.8" fill="#4c6a9c"></circle></g></g></g></g></g><g class="SourcesFooter" style="fill:#777"><g style="fill:#777"><text font-size="12.60" x="15.0" y="582.7"><tspan x="15" y="582.732">Source: Our World in Data based on the Global Carbon Project (2022)</tspan></text></g><text font-size="12.60" x="464.9" y="582.7"><tspan x="464.938" y="582.732"><a target='_blank' style='fill: #777;' href='https://ourworldindata.org/co2-and-greenhouse-gas-emissions'>OurWorldInData.org/co2-and-greenhouse-gas-emissions</a> • <a style="fill: #777;" class="cclogo" href="http://creativecommons.org/licenses/by/4.0/deed.en_US" target="_blank">CC BY</a></tspan></text></g></svg>