<svg xmlns="http://www.w3.org/2000/svg" version="1.1" style="font-family:Lato, &#x27;Helvetica Neue&#x27;, Helvetica, Arial, &#x27;Liberation Sans&#x27;, sans-serif;font-size:18px;background-color:white;text-rendering:geometricPrecision;-webkit-font-smoothing:antialiased" width="850" height="600" viewBox="0 0 850 600"><defs><style>@import url(http://localhost:3030/fonts.css)</style></defs><defs><pattern id="noDataPattern" patternUnits="userSpaceOnUse" width="4" height="4" patternTransform="rotate(-45 2 2)"><path d="M -1,2 l 6,0" stroke="#ccc" stroke-width="0.7"></path></pattern></defs><rect class="background-fill" fill="white" width="850" height="600"></rect><g class="HeaderView"><g transform="translate(774, 15) scale(0.29)"><svg className="owidLog" width="210" height="120" viewBox="0 0 210 120" fill="none" xmlns="http://www.w3.org/2000/svg">
<g clip-path="url(#clip0)">
  <path d="M0 0h210v107.89H0V0z" fill="#002147" />
  <path
    d="M40.98 32.25c0 2.36-.38 4.53-1.12 6.51a14.26 14.26 0 0 1-8.1 8.4c-1.9.78-4.02 1.17-6.34 1.17-2.31 0-4.42-.39-6.33-1.17a14.31 14.31 0 0 1-8.08-8.4 18.29 18.29 0 0 1-1.12-6.51c0-2.36.38-4.53 1.12-6.5.75-1.97 1.8-3.67 3.17-5.1a14.32 14.32 0 0 1 4.9-3.34c1.92-.8 4.03-1.19 6.34-1.19 2.32 0 4.43.4 6.34 1.19 1.92.8 3.56 1.9 4.93 3.34a14.87 14.87 0 0 1 3.17 5.1 18.1 18.1 0 0 1 1.12 6.5zm-4.38 0c0-1.94-.26-3.68-.8-5.22a10.91 10.91 0 0 0-2.24-3.89 9.68 9.68 0 0 0-3.52-2.46 11.95 11.95 0 0 0-4.62-.86c-1.68 0-3.21.28-4.6.86a9.88 9.88 0 0 0-3.54 2.46 10.91 10.91 0 0 0-2.24 3.9c-.53 1.53-.8 3.27-.8 5.2 0 1.94.27 3.68.8 5.22a11.17 11.17 0 0 0 2.24 3.9 10.01 10.01 0 0 0 3.55 2.44c1.38.56 2.9.83 4.6.83s3.24-.27 4.61-.83a9.8 9.8 0 0 0 3.52-2.44 11.17 11.17 0 0 0 2.25-3.9c.53-1.54.8-3.28.8-5.21zm26.22-6.54V48H60.5c-.56 0-.9-.27-1.05-.81l-.31-2.4a12.45 12.45 0 0 1-3.26 2.6c-1.2.64-2.58.96-4.13.96-1.22 0-2.3-.2-3.24-.6a6.52 6.52 0 0 1-2.33-1.7 7.37 7.37 0 0 1-1.43-2.67c-.3-1.04-.46-2.2-.46-3.45V25.7h3.91v14.22c0 1.68.38 2.99 1.15 3.91.77.93 1.96 1.39 3.54 1.39 1.16 0 2.24-.27 3.23-.82a10.42 10.42 0 0 0 2.8-2.28V25.7h3.91zm8.61 4.47a9.94 9.94 0 0 1 2.6-3.56 5.64 5.64 0 0 1 3.76-1.3c.47 0 .92.05 1.34.15.44.1.83.27 1.17.49l-.3 2.92c-.09.37-.3.55-.66.55-.2 0-.5-.04-.9-.13a6.21 6.21 0 0 0-3.24.18 4.23 4.23 0 0 0-1.47.92c-.42.4-.81.9-1.17 1.5-.33.58-.64 1.26-.92 2.02V48H67.7V25.71h2.25c.42 0 .72.08.88.25.16.16.27.44.33.83l.26 3.39zm61.16-13.7L122.75 48h-3.82l-7.99-24.05a21.95 21.95 0 0 1-.42-1.58 38.36 38.36 0 0 1-.44 1.58L102.05 48h-3.83L88.4 16.47h3.54c.38 0 .7.1.95.29.26.2.43.43.5.73l6.52 21.9.28 1.28.29 1.46.3-1.46.38-1.27 7.41-21.91c.1-.25.26-.48.51-.69.27-.22.58-.33.95-.33h1.23c.38 0 .69.1.92.29a1.77 1.77 0 0 1 .53.73l7.4 21.9a28.4 28.4 0 0 1 .68 2.62 29.52 29.52 0 0 1 .52-2.61l6.54-21.91a1.31 1.31 0 0 1 .48-.7c.27-.21.58-.32.95-.32h3.32zm9.35 8.88c1.63 0 3.1.27 4.4.82a9.43 9.43 0 0 1 5.46 5.94c.5 1.4.74 2.98.74 4.73 0 1.76-.25 3.34-.74 4.75a9.43 9.43 0 0 1-5.46 5.92c-1.3.52-2.77.79-4.4.79-1.64 0-3.12-.27-4.44-.8a9.42 9.42 0 0 1-3.35-2.3c-.92-1-1.63-2.2-2.13-3.61-.49-1.41-.73-3-.73-4.75s.24-3.33.73-4.73c.5-1.43 1.2-2.64 2.13-3.63.93-1 2.04-1.77 3.35-2.31 1.32-.55 2.8-.82 4.44-.82zm0 19.89c2.2 0 3.84-.73 4.93-2.2 1.08-1.48 1.63-3.54 1.63-6.18 0-2.66-.55-4.72-1.63-6.2-1.09-1.49-2.73-2.23-4.93-2.23-1.12 0-2.09.2-2.93.57a5.71 5.71 0 0 0-2.06 1.65c-.55.72-.96 1.61-1.24 2.67-.26 1.04-.4 2.22-.4 3.54 0 2.64.55 4.7 1.64 6.18 1.1 1.47 2.76 2.2 4.99 2.2zm17.97-15.07a9.94 9.94 0 0 1 2.6-3.56 5.64 5.64 0 0 1 3.76-1.3c.47 0 .91.05 1.34.15.44.1.83.27 1.16.49l-.28 2.92c-.09.37-.31.55-.66.55-.2 0-.5-.04-.9-.13a6.2 6.2 0 0 0-3.24.18 4.23 4.23 0 0 0-1.47.92c-.43.4-.82.9-1.17 1.5a13.1 13.1 0 0 0-.92 2.02V48h-3.94V25.71h2.24c.43 0 .72.08.88.25.17.16.28.44.33.83l.27 3.39zm15.04-14.59V48h-3.92V15.6h3.92zm19.55 15.43a6.22 6.22 0 0 0-2.38-2.05 6.7 6.7 0 0 0-2.86-.6c-2.07 0-3.66.75-4.77 2.23-1.12 1.48-1.68 3.6-1.68 6.33 0 1.46.13 2.7.38 3.74a7.29 7.29 0 0 0 1.1 2.56 4.35 4.35 0 0 0 1.78 1.45c.7.3 1.5.46 2.4.46 1.29 0 2.41-.3 3.36-.88a9.6 9.6 0 0 0 2.67-2.49V31.02zm3.91-15.43V48h-2.33c-.56 0-.9-.27-1.06-.81l-.35-2.71a12.13 12.13 0 0 1-3.25 2.77 8.28 8.28 0 0 1-4.23 1.06 7.31 7.31 0 0 1-6.14-2.9c-.73-.96-1.3-2.15-1.69-3.57a18.35 18.35 0 0 1 .07-9.48 11.29 11.29 0 0 1 1.89-3.7 8.7 8.7 0 0 1 7.06-3.34 7.96 7.96 0 0 1 6.12 2.62V15.59h3.91zM46.61 70.71V93H42.7V70.71h3.91zm.84-7c0 .39-.08.75-.24 1.09-.15.32-.35.61-.62.88-.25.25-.55.44-.9.59a2.67 2.67 0 0 1-2.16 0 2.9 2.9 0 0 1-1.45-1.47 2.67 2.67 0 0 1 0-2.16c.15-.35.35-.65.6-.9.25-.27.53-.47.85-.62a2.67 2.67 0 0 1 2.16 0c.35.15.65.35.9.62.27.25.47.55.62.9.16.34.24.7.24 1.08zm7.97 10.24c.49-.54 1-1.04 1.54-1.48a9.85 9.85 0 0 1 3.66-1.84 8.96 8.96 0 0 1 5.43.35c.94.4 1.72.97 2.33 1.71.63.74 1.11 1.62 1.43 2.67.32 1.04.49 2.19.49 3.45V93h-3.94V78.81c0-1.69-.4-3-1.17-3.92-.76-.93-1.93-1.4-3.5-1.4-1.15 0-2.24.27-3.25.83-1 .56-1.92 1.31-2.77 2.27V93h-3.94V70.71h2.35c.56 0 .9.28 1.04.82l.3 2.42zm57.7 3.3c0 2.36-.37 4.5-1.11 6.44a14.3 14.3 0 0 1-3.17 4.98c-1.37 1.37-3 2.45-4.93 3.2-1.9.76-4.02 1.13-6.33 1.13H85.8V61.47h11.77c2.31 0 4.42.39 6.33 1.15a13.8 13.8 0 0 1 8.1 8.18 17.75 17.75 0 0 1 1.12 6.45zm-4.37 0c0-1.94-.26-3.67-.8-5.2a10.94 10.94 0 0 0-2.23-3.87 9.57 9.57 0 0 0-3.53-2.42 12.23 12.23 0 0 0-4.61-.83h-7.5v24.62h7.5c1.7 0 3.24-.28 4.61-.84a9.7 9.7 0 0 0 3.53-2.4 10.94 10.94 0 0 0 2.24-3.87c.53-1.53.8-3.26.8-5.2zm19.8 5.72c-1.8.06-3.34.2-4.62.44-1.26.22-2.3.51-3.1.88-.8.36-1.37.8-1.74 1.3-.35.5-.53 1.05-.53 1.67 0 .58.1 1.1.3 1.52a3 3 0 0 0 .76 1.05c.34.27.73.46 1.17.6a6.13 6.13 0 0 0 1.45.17 7.28 7.28 0 0 0 3.5-.81 11.95 11.95 0 0 0 2.82-2.2v-4.62zm-12.65-9.11a12.73 12.73 0 0 1 3.98-2.66c1.43-.59 3-.88 4.73-.88 1.25 0 2.36.2 3.33.61a6.81 6.81 0 0 1 3.94 4.38c.33 1.04.5 2.19.5 3.43V93h-1.74a1.8 1.8 0 0 1-.88-.18c-.2-.13-.36-.38-.48-.74l-.44-2.12-1.72 1.46a9.48 9.48 0 0 1-3.74 1.7c-.69.15-1.46.23-2.3.23-.87 0-1.69-.12-2.45-.35a5.34 5.34 0 0 1-3.34-2.93 6.64 6.64 0 0 1-.49-2.64c0-.88.25-1.72.73-2.53a6.33 6.33 0 0 1 2.35-2.17c1.09-.63 2.5-1.15 4.25-1.54 1.75-.41 3.89-.65 6.42-.7v-1.75c0-1.73-.37-3.03-1.12-3.91-.75-.9-1.84-1.34-3.28-1.34-.97 0-1.78.12-2.44.37-.64.23-1.2.5-1.7.81l-1.23.82c-.33.23-.67.35-1 .35-.27 0-.5-.07-.69-.2a2.1 2.1 0 0 1-.48-.53l-.7-1.25zm27.67 19.5c-1.76 0-3.12-.5-4.07-1.48-.94-.98-1.41-2.4-1.41-4.25V74h-2.68a.9.9 0 0 1-.6-.2c-.16-.14-.24-.36-.24-.66v-1.56l3.65-.46.9-6.89c.05-.22.14-.4.29-.52a.88.88 0 0 1 .62-.22H142v7.67h6.44V74H142v13.38c0 .94.22 1.63.68 2.09.45.45 1.04.68 1.76.68a3.21 3.21 0 0 0 1.85-.53l.55-.35c.16-.12.3-.18.41-.18.2 0 .4.13.55.38l1.15 1.87a7.45 7.45 0 0 1-2.44 1.5 8.53 8.53 0 0 1-2.95.52zm19.68-10.4c-1.8.07-3.34.21-4.62.45-1.26.22-2.3.51-3.1.88-.8.36-1.37.8-1.74 1.3-.35.5-.53 1.05-.53 1.67 0 .58.1 1.1.3 1.52a2.9 2.9 0 0 0 .76 1.05c.34.27.73.46 1.17.6a6.13 6.13 0 0 0 1.45.17 7.3 7.3 0 0 0 3.5-.81 12.04 12.04 0 0 0 2.82-2.2v-4.62zm-12.65-9.1a12.72 12.72 0 0 1 3.99-2.66c1.42-.59 3-.88 4.72-.88 1.25 0 2.36.2 3.33.61a6.81 6.81 0 0 1 3.94 4.38c.33 1.04.5 2.19.5 3.43V93h-1.74a1.8 1.8 0 0 1-.88-.18c-.2-.13-.36-.38-.48-.74l-.44-2.12-1.72 1.46a9.48 9.48 0 0 1-3.74 1.7c-.69.15-1.46.23-2.3.23-.87 0-1.69-.12-2.45-.35a5.33 5.33 0 0 1-3.34-2.93 6.62 6.62 0 0 1-.49-2.64c0-.88.25-1.72.73-2.53a6.33 6.33 0 0 1 2.35-2.17c1.09-.63 2.5-1.15 4.25-1.54 1.74-.41 3.89-.65 6.42-.7v-1.75c0-1.73-.37-3.03-1.12-3.91-.75-.9-1.84-1.34-3.28-1.34-.97 0-1.78.12-2.44.37-.64.23-1.2.5-1.7.81l-1.22.82c-.34.23-.68.35-1.02.35-.26 0-.49-.07-.68-.2a1.88 1.88 0 0 1-.48-.53l-.7-1.25zM40.98 32.25c0 2.36-.38 4.53-1.12 6.51a14.26 14.26 0 0 1-8.1 8.4c-1.9.78-4.02 1.17-6.34 1.17-2.31 0-4.42-.39-6.33-1.17a14.31 14.31 0 0 1-8.08-8.4 18.29 18.29 0 0 1-1.12-6.51c0-2.36.38-4.53 1.12-6.5.75-1.97 1.8-3.67 3.17-5.1a14.32 14.32 0 0 1 4.9-3.34c1.92-.8 4.03-1.19 6.34-1.19 2.32 0 4.43.4 6.34 1.19 1.92.8 3.56 1.9 4.93 3.34a14.87 14.87 0 0 1 3.17 5.1 18.1 18.1 0 0 1 1.12 6.5zm-4.38 0c0-1.94-.26-3.68-.8-5.22a10.91 10.91 0 0 0-2.24-3.89 9.68 9.68 0 0 0-3.52-2.46 11.95 11.95 0 0 0-4.62-.86c-1.68 0-3.21.28-4.6.86a9.88 9.88 0 0 0-3.54 2.46 10.91 10.91 0 0 0-2.24 3.9c-.53 1.53-.8 3.27-.8 5.2 0 1.94.27 3.68.8 5.22a11.17 11.17 0 0 0 2.24 3.9 10.01 10.01 0 0 0 3.55 2.44c1.38.56 2.9.83 4.6.83s3.24-.27 4.61-.83a9.8 9.8 0 0 0 3.52-2.44 11.17 11.17 0 0 0 2.25-3.9c.53-1.54.8-3.28.8-5.21zm26.22-6.54V48H60.5c-.56 0-.9-.27-1.05-.81l-.31-2.4a12.45 12.45 0 0 1-3.26 2.6c-1.2.64-2.58.96-4.13.96-1.22 0-2.3-.2-3.24-.6a6.52 6.52 0 0 1-2.33-1.7 7.37 7.37 0 0 1-1.43-2.67c-.3-1.04-.46-2.2-.46-3.45V25.7h3.91v14.22c0 1.68.38 2.99 1.15 3.91.77.93 1.96 1.39 3.54 1.39 1.16 0 2.24-.27 3.23-.82a10.42 10.42 0 0 0 2.8-2.28V25.7h3.91zm8.61 4.47a9.94 9.94 0 0 1 2.6-3.56 5.64 5.64 0 0 1 3.76-1.3c.47 0 .92.05 1.34.15.44.1.83.27 1.17.49l-.3 2.92c-.09.37-.3.55-.66.55-.2 0-.5-.04-.9-.13a6.21 6.21 0 0 0-3.24.18 4.23 4.23 0 0 0-1.47.92c-.42.4-.81.9-1.17 1.5-.33.58-.64 1.26-.92 2.02V48H67.7V25.71h2.25c.42 0 .72.08.88.25.16.16.27.44.33.83l.26 3.39zm61.16-13.7L122.75 48h-3.82l-7.99-24.05a21.95 21.95 0 0 1-.42-1.58 38.36 38.36 0 0 1-.44 1.58L102.05 48h-3.83L88.4 16.47h3.54c.38 0 .7.1.95.29.26.2.43.43.5.73l6.52 21.9.28 1.28.29 1.46.3-1.46.38-1.27 7.41-21.91c.1-.25.26-.48.51-.69.27-.22.58-.33.95-.33h1.23c.38 0 .69.1.92.29a1.77 1.77 0 0 1 .53.73l7.4 21.9a28.4 28.4 0 0 1 .68 2.62 29.52 29.52 0 0 1 .52-2.61l6.54-21.91a1.31 1.31 0 0 1 .48-.7c.27-.21.58-.32.95-.32h3.32zm9.35 8.88c1.63 0 3.1.27 4.4.82a9.43 9.43 0 0 1 5.46 5.94c.5 1.4.74 2.98.74 4.73 0 1.76-.25 3.34-.74 4.75a9.43 9.43 0 0 1-5.46 5.92c-1.3.52-2.77.79-4.4.79-1.64 0-3.12-.27-4.44-.8a9.42 9.42 0 0 1-3.35-2.3c-.92-1-1.63-2.2-2.13-3.61-.49-1.41-.73-3-.73-4.75s.24-3.33.73-4.73c.5-1.43 1.2-2.64 2.13-3.63.93-1 2.04-1.77 3.35-2.31 1.32-.55 2.8-.82 4.44-.82zm0 19.89c2.2 0 3.84-.73 4.93-2.2 1.08-1.48 1.63-3.54 1.63-6.18 0-2.66-.55-4.72-1.63-6.2-1.09-1.49-2.73-2.23-4.93-2.23-1.12 0-2.09.2-2.93.57a5.71 5.71 0 0 0-2.06 1.65c-.55.72-.96 1.61-1.24 2.67-.26 1.04-.4 2.22-.4 3.54 0 2.64.55 4.7 1.64 6.18 1.1 1.47 2.76 2.2 4.99 2.2zm17.97-15.07a9.94 9.94 0 0 1 2.6-3.56 5.64 5.64 0 0 1 3.76-1.3c.47 0 .91.05 1.34.15.44.1.83.27 1.16.49l-.28 2.92c-.09.37-.31.55-.66.55-.2 0-.5-.04-.9-.13a6.2 6.2 0 0 0-3.24.18 4.23 4.23 0 0 0-1.47.92c-.43.4-.82.9-1.17 1.5a13.1 13.1 0 0 0-.92 2.02V48h-3.94V25.71h2.24c.43 0 .72.08.88.25.17.16.28.44.33.83l.27 3.39zm15.04-14.59V48h-3.92V15.6h3.92zm19.55 15.43a6.22 6.22 0 0 0-2.38-2.05 6.7 6.7 0 0 0-2.86-.6c-2.07 0-3.66.75-4.77 2.23-1.12 1.48-1.68 3.6-1.68 6.33 0 1.46.13 2.7.38 3.74a7.29 7.29 0 0 0 1.1 2.56 4.35 4.35 0 0 0 1.78 1.45c.7.3 1.5.46 2.4.46 1.29 0 2.41-.3 3.36-.88a9.6 9.6 0 0 0 2.67-2.49V31.02zm3.91-15.43V48h-2.33c-.56 0-.9-.27-1.06-.81l-.35-2.71a12.13 12.13 0 0 1-3.25 2.77 8.28 8.28 0 0 1-4.23 1.06 7.31 7.31 0 0 1-6.14-2.9c-.73-.96-1.3-2.15-1.69-3.57a18.35 18.35 0 0 1 .07-9.48 11.29 11.29 0 0 1 1.89-3.7 8.7 8.7 0 0 1 7.06-3.34 7.96 7.96 0 0 1 6.12 2.62V15.59h3.91zM46.61 70.71V93H42.7V70.71h3.91zm.84-7c0 .39-.08.75-.24 1.09-.15.32-.35.61-.62.88-.25.25-.55.44-.9.59a2.67 2.67 0 0 1-2.16 0 2.9 2.9 0 0 1-1.45-1.47 2.67 2.67 0 0 1 0-2.16c.15-.35.35-.65.6-.9.25-.27.53-.47.85-.62a2.67 2.67 0 0 1 2.16 0c.35.15.65.35.9.62.27.25.47.55.62.9.16.34.24.7.24 1.08zm7.97 10.24c.49-.54 1-1.04 1.54-1.48a9.85 9.85 0 0 1 3.66-1.84 8.96 8.96 0 0 1 5.43.35c.94.4 1.72.97 2.33 1.71.63.74 1.11 1.62 1.43 2.67.32 1.04.49 2.19.49 3.45V93h-3.94V78.81c0-1.69-.4-3-1.17-3.92-.76-.93-1.93-1.4-3.5-1.4-1.15 0-2.24.27-3.25.83-1 .56-1.92 1.31-2.77 2.27V93h-3.94V70.71h2.35c.56 0 .9.28 1.04.82l.3 2.42zm57.7 3.3c0 2.36-.37 4.5-1.11 6.44a14.3 14.3 0 0 1-3.17 4.98c-1.37 1.37-3 2.45-4.93 3.2-1.9.76-4.02 1.13-6.33 1.13H85.8V61.47h11.77c2.31 0 4.42.39 6.33 1.15a13.8 13.8 0 0 1 8.1 8.18 17.75 17.75 0 0 1 1.12 6.45zm-4.37 0c0-1.94-.26-3.67-.8-5.2a10.94 10.94 0 0 0-2.23-3.87 9.57 9.57 0 0 0-3.53-2.42 12.23 12.23 0 0 0-4.61-.83h-7.5v24.62h7.5c1.7 0 3.24-.28 4.61-.84a9.7 9.7 0 0 0 3.53-2.4 10.94 10.94 0 0 0 2.24-3.87c.53-1.53.8-3.26.8-5.2zm19.8 5.72c-1.8.06-3.34.2-4.62.44-1.26.22-2.3.51-3.1.88-.8.36-1.37.8-1.74 1.3-.35.5-.53 1.05-.53 1.67 0 .58.1 1.1.3 1.52a3 3 0 0 0 .76 1.05c.34.27.73.46 1.17.6a6.13 6.13 0 0 0 1.45.17 7.28 7.28 0 0 0 3.5-.81 11.95 11.95 0 0 0 2.82-2.2v-4.62zm-12.65-9.11a12.73 12.73 0 0 1 3.98-2.66c1.43-.59 3-.88 4.73-.88 1.25 0 2.36.2 3.33.61a6.81 6.81 0 0 1 3.94 4.38c.33 1.04.5 2.19.5 3.43V93h-1.74a1.8 1.8 0 0 1-.88-.18c-.2-.13-.36-.38-.48-.74l-.44-2.12-1.72 1.46a9.48 9.48 0 0 1-3.74 1.7c-.69.15-1.46.23-2.3.23-.87 0-1.69-.12-2.45-.35a5.34 5.34 0 0 1-3.34-2.93 6.64 6.64 0 0 1-.49-2.64c0-.88.25-1.72.73-2.53a6.33 6.33 0 0 1 2.35-2.17c1.09-.63 2.5-1.15 4.25-1.54 1.75-.41 3.89-.65 6.42-.7v-1.75c0-1.73-.37-3.03-1.12-3.91-.75-.9-1.84-1.34-3.28-1.34-.97 0-1.78.12-2.44.37-.64.23-1.2.5-1.7.81l-1.23.82c-.33.23-.67.35-1 .35-.27 0-.5-.07-.69-.2a2.1 2.1 0 0 1-.48-.53l-.7-1.25zm27.67 19.5c-1.76 0-3.12-.5-4.07-1.48-.94-.98-1.41-2.4-1.41-4.25V74h-2.68a.9.9 0 0 1-.6-.2c-.16-.14-.24-.36-.24-.66v-1.56l3.65-.46.9-6.89c.05-.22.14-.4.29-.52a.88.88 0 0 1 .62-.22H142v7.67h6.44V74H142v13.38c0 .94.22 1.63.68 2.09.45.45 1.04.68 1.76.68a3.21 3.21 0 0 0 1.85-.53l.55-.35c.16-.12.3-.18.41-.18.2 0 .4.13.55.38l1.15 1.87a7.45 7.45 0 0 1-2.44 1.5 8.53 8.53 0 0 1-2.95.52zm19.68-10.4c-1.8.07-3.34.21-4.62.45-1.26.22-2.3.51-3.1.88-.8.36-1.37.8-1.74 1.3-.35.5-.53 1.05-.53 1.67 0 .58.1 1.1.3 1.52a2.9 2.9 0 0 0 .76 1.05c.34.27.73.46 1.17.6a6.13 6.13 0 0 0 1.45.17 7.3 7.3 0 0 0 3.5-.81 12.04 12.04 0 0 0 2.82-2.2v-4.62zm-12.65-9.1a12.72 12.72 0 0 1 3.99-2.66c1.42-.59 3-.88 4.72-.88 1.25 0 2.36.2 3.33.61a6.81 6.81 0 0 1 3.94 4.38c.33 1.04.5 2.19.5 3.43V93h-1.74a1.8 1.8 0 0 1-.88-.18c-.2-.13-.36-.38-.48-.74l-.44-2.12-1.72 1.46a9.48 9.48 0 0 1-3.74 1.7c-.69.15-1.46.23-2.3.23-.87 0-1.69-.12-2.45-.35a5.33 5.33 0 0 1-3.34-2.93 6.62 6.62 0 0 1-.49-2.64c0-.88.25-1.72.73-2.53a6.33 6.33 0 0 1 2.35-2.17c1.09-.63 2.5-1.15 4.25-1.54 1.74-.41 3.89-.65 6.42-.7v-1.75c0-1.73-.37-3.03-1.12-3.91-.75-.9-1.84-1.34-3.28-1.34-.97 0-1.78.12-2.44.37-.64.23-1.2.5-1.7.81l-1.22.82c-.34.23-.68.35-1.02.35-.26 0-.49-.07-.68-.2a1.88 1.88 0 0 1-.48-.53l-.7-1.25zM40.98 32.25c0 2.36-.38 4.53-1.12 6.51a14.26 14.26 0 0 1-8.1 8.4c-1.9.78-4.02 1.17-6.34 1.17-2.31 0-4.42-.39-6.33-1.17a14.31 14.31 0 0 1-8.08-8.4 18.29 18.29 0 0 1-1.12-6.51c0-2.36.38-4.53 1.12-6.5.75-1.97 1.8-3.67 3.17-5.1a14.32 14.32 0 0 1 4.9-3.34c1.92-.8 4.03-1.19 6.34-1.19 2.32 0 4.43.4 6.34 1.19 1.92.8 3.56 1.9 4.93 3.34a14.87 14.87 0 0 1 3.17 5.1 18.1 18.1 0 0 1 1.12 6.5zm-4.38 0c0-1.94-.26-3.68-.8-5.22a10.91 10.91 0 0 0-2.24-3.89 9.68 9.68 0 0 0-3.52-2.46 11.95 11.95 0 0 0-4.62-.86c-1.68 0-3.21.28-4.6.86a9.88 9.88 0 0 0-3.54 2.46 10.91 10.91 0 0 0-2.24 3.9c-.53 1.53-.8 3.27-.8 5.2 0 1.94.27 3.68.8 5.22a11.17 11.17 0 0 0 2.24 3.9 10.01 10.01 0 0 0 3.55 2.44c1.38.56 2.9.83 4.6.83s3.24-.27 4.61-.83a9.8 9.8 0 0 0 3.52-2.44 11.17 11.17 0 0 0 2.25-3.9c.53-1.54.8-3.28.8-5.21zm26.22-6.54V48H60.5c-.56 0-.9-.27-1.05-.81l-.31-2.4a12.45 12.45 0 0 1-3.26 2.6c-1.2.64-2.58.96-4.13.96-1.22 0-2.3-.2-3.24-.6a6.52 6.52 0 0 1-2.33-1.7 7.37 7.37 0 0 1-1.43-2.67c-.3-1.04-.46-2.2-.46-3.45V25.7h3.91v14.22c0 1.68.38 2.99 1.15 3.91.77.93 1.96 1.39 3.54 1.39 1.16 0 2.24-.27 3.23-.82a10.42 10.42 0 0 0 2.8-2.28V25.7h3.91zm8.61 4.47a9.94 9.94 0 0 1 2.6-3.56 5.64 5.64 0 0 1 3.76-1.3c.47 0 .92.05 1.34.15.44.1.83.27 1.17.49l-.3 2.92c-.09.37-.3.55-.66.55-.2 0-.5-.04-.9-.13a6.21 6.21 0 0 0-3.24.18 4.23 4.23 0 0 0-1.47.92c-.42.4-.81.9-1.17 1.5-.33.58-.64 1.26-.92 2.02V48H67.7V25.71h2.25c.42 0 .72.08.88.25.16.16.27.44.33.83l.26 3.39zm61.16-13.7L122.75 48h-3.82l-7.99-24.05a21.95 21.95 0 0 1-.42-1.58 38.36 38.36 0 0 1-.44 1.58L102.05 48h-3.83L88.4 16.47h3.54c.38 0 .7.1.95.29.26.2.43.43.5.73l6.52 21.9.28 1.28.29 1.46.3-1.46.38-1.27 7.41-21.91c.1-.25.26-.48.51-.69.27-.22.58-.33.95-.33h1.23c.38 0 .69.1.92.29a1.77 1.77 0 0 1 .53.73l7.4 21.9a28.4 28.4 0 0 1 .68 2.62 29.52 29.52 0 0 1 .52-2.61l6.54-21.91a1.31 1.31 0 0 1 .48-.7c.27-.21.58-.32.95-.32h3.32zm9.35 8.88c1.63 0 3.1.27 4.4.82a9.43 9.43 0 0 1 5.46 5.94c.5 1.4.74 2.98.74 4.73 0 1.76-.25 3.34-.74 4.75a9.43 9.43 0 0 1-5.46 5.92c-1.3.52-2.77.79-4.4.79-1.64 0-3.12-.27-4.44-.8a9.42 9.42 0 0 1-3.35-2.3c-.92-1-1.63-2.2-2.13-3.61-.49-1.41-.73-3-.73-4.75s.24-3.33.73-4.73c.5-1.43 1.2-2.64 2.13-3.63.93-1 2.04-1.77 3.35-2.31 1.32-.55 2.8-.82 4.44-.82zm0 19.89c2.2 0 3.84-.73 4.93-2.2 1.08-1.48 1.63-3.54 1.63-6.18 0-2.66-.55-4.72-1.63-6.2-1.09-1.49-2.73-2.23-4.93-2.23-1.12 0-2.09.2-2.93.57a5.71 5.71 0 0 0-2.06 1.65c-.55.72-.96 1.61-1.24 2.67-.26 1.04-.4 2.22-.4 3.54 0 2.64.55 4.7 1.64 6.18 1.1 1.47 2.76 2.2 4.99 2.2zm17.97-15.07a9.94 9.94 0 0 1 2.6-3.56 5.64 5.64 0 0 1 3.76-1.3c.47 0 .91.05 1.34.15.44.1.83.27 1.16.49l-.28 2.92c-.09.37-.31.55-.66.55-.2 0-.5-.04-.9-.13a6.2 6.2 0 0 0-3.24.18 4.23 4.23 0 0 0-1.47.92c-.43.4-.82.9-1.17 1.5a13.1 13.1 0 0 0-.92 2.02V48h-3.94V25.71h2.24c.43 0 .72.08.88.25.17.16.28.44.33.83l.27 3.39zm15.04-14.59V48h-3.92V15.6h3.92zm19.55 15.43a6.22 6.22 0 0 0-2.38-2.05 6.7 6.7 0 0 0-2.86-.6c-2.07 0-3.66.75-4.77 2.23-1.12 1.48-1.68 3.6-1.68 6.33 0 1.46.13 2.7.38 3.74a7.29 7.29 0 0 0 1.1 2.56 4.35 4.35 0 0 0 1.78 1.45c.7.3 1.5.46 2.4.46 1.29 0 2.41-.3 3.36-.88a9.6 9.6 0 0 0 2.67-2.49V31.02zm3.91-15.43V48h-2.33c-.56 0-.9-.27-1.06-.81l-.35-2.71a12.13 12.13 0 0 1-3.25 2.77 8.28 8.28 0 0 1-4.23 1.06 7.31 7.31 0 0 1-6.14-2.9c-.73-.96-1.3-2.15-1.69-3.57a18.35 18.35 0 0 1 .07-9.48 11.29 11.29 0 0 1 1.89-3.7 8.7 8.7 0 0 1 7.06-3.34 7.96 7.96 0 0 1 6.12 2.62V15.59h3.91zM46.61 70.71V93H42.7V70.71h3.91zm.84-7c0 .39-.08.75-.24 1.09-.15.32-.35.61-.62.88-.25.25-.55.44-.9.59a2.67 2.67 0 0 1-2.16 0 2.9 2.9 0 0 1-1.45-1.47 2.67 2.67 0 0 1 0-2.16c.15-.35.35-.65.6-.9.25-.27.53-.47.85-.62a2.67 2.67 0 0 1 2.16 0c.35.15.65.35.9.62.27.25.47.55.62.9.16.34.24.7.24 1.08zm7.97 10.24c.49-.54 1-1.04 1.54-1.48a9.85 9.85 0 0 1 3.66-1.84 8.96 8.96 0 0 1 5.43.35c.94.4 1.72.97 2.33 1.71.63.74 1.11 1.62 1.43 2.67.32 1.04.49 2.19.49 3.45V93h-3.94V78.81c0-1.69-.4-3-1.17-3.92-.76-.93-1.93-1.4-3.5-1.4-1.15 0-2.24.27-3.25.83-1 .56-1.92 1.31-2.77 2.27V93h-3.94V70.71h2.35c.56 0 .9.28 1.04.82l.3 2.42zm57.7 3.3c0 2.36-.37 4.5-1.11 6.44a14.3 14.3 0 0 1-3.17 4.98c-1.37 1.37-3 2.45-4.93 3.2-1.9.76-4.02 1.13-6.33 1.13H85.8V61.47h11.77c2.31 0 4.42.39 6.33 1.15a13.8 13.8 0 0 1 8.1 8.18 17.75 17.75 0 0 1 1.12 6.45zm-4.37 0c0-1.94-.26-3.67-.8-5.2a10.94 10.94 0 0 0-2.23-3.87 9.57 9.57 0 0 0-3.53-2.42 12.23 12.23 0 0 0-4.61-.83h-7.5v24.62h7.5c1.7 0 3.24-.28 4.61-.84a9.7 9.7 0 0 0 3.53-2.4 10.94 10.94 0 0 0 2.24-3.87c.53-1.53.8-3.26.8-5.2zm19.8 5.72c-1.8.06-3.34.2-4.62.44-1.26.22-2.3.51-3.1.88-.8.36-1.37.8-1.74 1.3-.35.5-.53 1.05-.53 1.67 0 .58.1 1.1.3 1.52a3 3 0 0 0 .76 1.05c.34.27.73.46 1.17.6a6.13 6.13 0 0 0 1.45.17 7.28 7.28 0 0 0 3.5-.81 11.95 11.95 0 0 0 2.82-2.2v-4.62zm-12.65-9.11a12.73 12.73 0 0 1 3.98-2.66c1.43-.59 3-.88 4.73-.88 1.25 0 2.36.2 3.33.61a6.81 6.81 0 0 1 3.94 4.38c.33 1.04.5 2.19.5 3.43V93h-1.74a1.8 1.8 0 0 1-.88-.18c-.2-.13-.36-.38-.48-.74l-.44-2.12-1.72 1.46a9.48 9.48 0 0 1-3.74 1.7c-.69.15-1.46.23-2.3.23-.87 0-1.69-.12-2.45-.35a5.34 5.34 0 0 1-3.34-2.93 6.64 6.64 0 0 1-.49-2.64c0-.88.25-1.72.73-2.53a6.33 6.33 0 0 1 2.35-2.17c1.09-.63 2.5-1.15 4.25-1.54 1.75-.41 3.89-.65 6.42-.7v-1.75c0-1.73-.37-3.03-1.12-3.91-.75-.9-1.84-1.34-3.28-1.34-.97 0-1.78.12-2.44.37-.64.23-1.2.5-1.7.81l-1.23.82c-.33.23-.67.35-1 .35-.27 0-.5-.07-.69-.2a2.1 2.1 0 0 1-.48-.53l-.7-1.25zm27.67 19.5c-1.76 0-3.12-.5-4.07-1.48-.94-.98-1.41-2.4-1.41-4.25V74h-2.68a.9.9 0 0 1-.6-.2c-.16-.14-.24-.36-.24-.66v-1.56l3.65-.46.9-6.89c.05-.22.14-.4.29-.52a.88.88 0 0 1 .62-.22H142v7.67h6.44V74H142v13.38c0 .94.22 1.63.68 2.09.45.45 1.04.68 1.76.68a3.21 3.21 0 0 0 1.85-.53l.55-.35c.16-.12.3-.18.41-.18.2 0 .4.13.55.38l1.15 1.87a7.45 7.45 0 0 1-2.44 1.5 8.53 8.53 0 0 1-2.95.52zm19.68-10.4c-1.8.07-3.34.21-4.62.45-1.26.22-2.3.51-3.1.88-.8.36-1.37.8-1.74 1.3-.35.5-.53 1.05-.53 1.67 0 .58.1 1.1.3 1.52a2.9 2.9 0 0 0 .76 1.05c.34.27.73.46 1.17.6a6.13 6.13 0 0 0 1.45.17 7.3 7.3 0 0 0 3.5-.81 12.04 12.04 0 0 0 2.82-2.2v-4.62zm-12.65-9.1a12.72 12.72 0 0 1 3.99-2.66c1.42-.59 3-.88 4.72-.88 1.25 0 2.36.2 3.33.61a6.81 6.81 0 0 1 3.94 4.38c.33 1.04.5 2.19.5 3.43V93h-1.74a1.8 1.8 0 0 1-.88-.18c-.2-.13-.36-.38-.48-.74l-.44-2.12-1.72 1.46a9.48 9.48 0 0 1-3.74 1.7c-.69.15-1.46.23-2.3.23-.87 0-1.69-.12-2.45-.35a5.33 5.33 0 0 1-3.34-2.93 6.62 6.62 0 0 1-.49-2.64c0-.88.25-1.72.73-2.53a6.33 6.33 0 0 1 2.35-2.17c1.09-.63 2.5-1.15 4.25-1.54 1.74-.41 3.89-.65 6.42-.7v-1.75c0-1.73-.37-3.03-1.12-3.91-.75-.9-1.84-1.34-3.28-1.34-.97 0-1.78.12-2.44.37-.64.23-1.2.5-1.7.81l-1.22.82c-.34.23-.68.35-1.02.35-.26 0-.49-.07-.68-.2a1.88 1.88 0 0 1-.48-.53l-.7-1.25z"
    fill="#fff"
  />
  <path fill="#D42B21" d="M0 106.79h210V120H0z" />
</g>
<defs>
  <clipPath id="clip0"><path fill="#fff" d="M0 0h210v120H0z" /></clipPath>
</defs>
</svg></g><a href="http://localhost:3030/grapher/share-of-women-in-parliament-popw" style="font-family:&#x27;Playfair Display&#x27;, Georgia, &#x27;Times New Roman&#x27;, &#x27;Liberation Serif&#x27;, serif" target="_blank" rel="noopener"><text font-size="25.20" x="15.0" y="36.9" fill="#555"><tspan x="15" y="36.924">Share of women in parliament, 1900 to 2022</tspan></text></a><text x="15.0" y="58.2" style="font-size:14.4px;line-height:1.2" fill="#666"><tspan x="15" y="58.2">Percentage of seats in lower or single chamber of the legislature held by women, weighted by countries&#x27; populations.</tspan></text></g><g class="LineChart"><defs><clipPath id="boundsClip-1"><rect x="42.562" y="67.48" width="840" height="488.65999999999997"></rect></clipPath></defs><rect x="15" y="77.48" width="820" height="468.65999999999997" fill="none"></rect><g class="DualAxisView"><g class="HorizontalAxis"><line x1="52.6" y1="524.9399999999999" x2="52.6" y2="529.9399999999999" stroke="#999"></line><line x1="711.2" y1="524.9399999999999" x2="711.2" y2="529.9399999999999" stroke="#999"></line><line x1="160.5" y1="524.9399999999999" x2="160.5" y2="529.9399999999999" stroke="#999"></line><line x1="268.5" y1="524.9399999999999" x2="268.5" y2="529.9399999999999" stroke="#999"></line><line x1="376.5" y1="524.9399999999999" x2="376.5" y2="529.9399999999999" stroke="#999"></line><line x1="484.4" y1="524.9399999999999" x2="484.4" y2="529.9399999999999" stroke="#999"></line><line x1="592.4" y1="524.9399999999999" x2="592.4" y2="529.9399999999999" stroke="#999"></line><text x="52.562" y="546.14" fill="#666" text-anchor="start" font-size="16.2">1900</text><text x="711.17" y="546.14" fill="#666" text-anchor="end" font-size="16.2">2022</text><text x="160.5" y="546.14" fill="#666" text-anchor="middle" font-size="16.2">1920</text><text x="268.5" y="546.14" fill="#666" text-anchor="middle" font-size="16.2">1940</text><text x="376.5" y="546.14" fill="#666" text-anchor="middle" font-size="16.2">1960</text><text x="484.4" y="546.14" fill="#666" text-anchor="middle" font-size="16.2">1980</text><text x="592.4" y="546.14" fill="#666" text-anchor="middle" font-size="16.2">2000</text></g><g class="VerticalAxis"><text x="47.56" y="524.9" dy=".32em" text-anchor="end" fill="#666" font-size="16.2">0%</text><text x="47.56" y="435.4" dy=".32em" text-anchor="end" fill="#666" font-size="16.2">10%</text><text x="47.56" y="346" dy=".32em" text-anchor="end" fill="#666" font-size="16.2">20%</text><text x="47.56" y="256.5" dy=".32em" text-anchor="end" fill="#666" font-size="16.2">30%</text><text x="47.56" y="167" dy=".32em" text-anchor="end" fill="#666" font-size="16.2">40%</text><text x="47.56" y="77.5" dy=".32em" text-anchor="end" fill="#666" font-size="16.2">50%</text></g><g class="AxisGridLines horizontalLines"><line x1="52.56" y1="524.9" x2="711.17" y2="524.9" stroke="#999"></line><line x1="52.56" y1="435.4" x2="711.17" y2="435.4" stroke="#ddd" stroke-dasharray="3,2"></line><line x1="52.56" y1="346" x2="711.17" y2="346" stroke="#ddd" stroke-dasharray="3,2"></line><line x1="52.56" y1="256.5" x2="711.17" y2="256.5" stroke="#ddd" stroke-dasharray="3,2"></line><line x1="52.56" y1="167" x2="711.17" y2="167" stroke="#ddd" stroke-dasharray="3,2"></line><line x1="52.56" y1="77.5" x2="711.17" y2="77.5" stroke="#ddd" stroke-dasharray="3,2"></line></g></g><g clip-path="url(#boundsClip-1)"><g class="LineLabels" style="cursor:default"><g class="legendMark"><g class="indicator"><path d="M715.17,227.6 H728.67 V227.6 H742.17" stroke="#999" stroke-width="0.5" fill="none"></path></g><rect x="711.17" y="220.85" width="121.4" height="13.5" fill="#fff" opacity="0"></rect><text font-size="13.50" font-weight="400" x="746.2" y="232.6" fill="#6d3e91"><tspan x="746.17" y="232.595">North America</tspan></text></g><g class="legendMark"><g class="indicator"><path d="M715.17,251.7 H728.67 V246.54999999999998 H742.17" stroke="#999" stroke-width="0.5" fill="none"></path></g><rect x="711.17" y="239.79999999999998" width="78.74000000000001" height="13.5" fill="#fff" opacity="0"></rect><text font-size="13.50" font-weight="400" x="746.2" y="251.5" fill="#be5915"><tspan x="746.17" y="251.545">Europe</tspan></text></g><g class="legendMark"><g class="indicator"><path d="M715.17,256.9 H728.67 V262.04999999999995 H742.17" stroke="#999" stroke-width="0.5" fill="none"></path></g><rect x="711.17" y="255.29999999999998" width="85.49000000000001" height="13.5" fill="#fff" opacity="0"></rect><text font-size="13.50" font-weight="400" x="746.2" y="267.0" fill="#cf0a66"><tspan x="746.17" y="267.04499999999996">Oceania</tspan></text></g><g class="legendMark"><g class="indicator"><path d="M715.17,301.1 H724.17 V295.56666666666666 H742.17" stroke="#999" stroke-width="0.5" fill="none"></path></g><rect x="711.17" y="288.81666666666666" width="123.83000000000001" height="13.5" fill="#fff" opacity="0"></rect><text font-size="13.50" font-weight="400" x="746.2" y="300.6" fill="#18470f"><tspan x="746.17" y="300.56166666666667">South America</tspan></text></g><g class="legendMark"><g class="indicator"><path d="M715.17,312.5 H733.17 V311.06666666666666 H742.17" stroke="#999" stroke-width="0.5" fill="none"></path></g><rect x="711.17" y="304.31666666666666" width="69.56" height="13.5" fill="#fff" opacity="0"></rect><text font-size="13.50" font-weight="400" x="746.2" y="316.1" fill="#c15065"><tspan x="746.17" y="316.06166666666667">Africa</tspan></text></g><g class="legendMark"><g class="indicator"><path d="M715.17,319.6 H733.17 V326.56666666666666 H742.17" stroke="#999" stroke-width="0.5" fill="none"></path></g><rect x="711.17" y="319.81666666666666" width="70.235" height="13.5" fill="#fff" opacity="0"></rect><text font-size="13.50" font-weight="400" x="746.2" y="331.6" fill="#286bbb"><tspan x="746.17" y="331.56166666666667">World</tspan></text></g><g class="legendMark"><g class="indicator"><path d="M715.17,346.4 H728.67 V346.4 H742.17" stroke="#999" stroke-width="0.5" fill="none"></path></g><rect x="711.17" y="339.65" width="61.325" height="13.5" fill="#fff" opacity="0"></rect><text font-size="13.50" font-weight="400" x="746.2" y="351.4" fill="#2c8465"><tspan x="746.17" y="351.395">Asia</tspan></text></g></g><g class="Lines"><rect x="53" y="77" width="659" height="447" fill="rgba(255,255,255,0)" opacity="0"></rect><g><path stroke-linecap="round" stroke-linejoin="round" stroke="#ddd" d="M52.6 524.9L58 524.9L63.4 524.9L68.8 524.9L74.2 524.9L79.6 524.9L85 524.9L90.4 524.7L95.7 524.6L101.1 524.7L106.5 524.7L111.9 524.8L117.3 524.8L122.7 524.7L128.1 524.7L133.5 524.7L138.9 524.7L144.3 524.7L149.7 524.7L155.1 524.7L160.5 524.6L165.9 524.1L171.3 524L176.7 523.8L182.1 523.6L187.5 523.6L192.9 523.6L198.3 523.6L203.7 523.6L209.1 523.8L214.5 523.5L219.9 522.6L225.3 522.7L230.7 522.6L236.1 522.3L241.5 522.5L246.9 522.4L252.3 522.4L257.7 522.6L263.1 522.6L268.5 522.8L273.9 522.7L279.3 522.6L284.7 522.7L290.1 523.2L295.5 518L300.9 495L306.3 486.5L311.7 497.8L317.1 483.6L322.5 488.3L327.9 487.8L333.3 477.8L338.7 476.2L344.1 458.9L349.5 458.6L354.9 457.5L360.3 457.5L365.7 454.9L371.1 454.5L376.5 454.1L381.9 453.7L387.3 449.8L392.7 449.5L398.1 438.5L403.5 438.5L408.9 436.4L414.3 437.5L419.7 437.8L425.1 438.2L430.5 437.5L435.9 435.3L441.2 436.7L446.6 435.5L452 434.1L457.4 421.1L462.8 418.4L468.2 419L473.6 424.4L479 423.2L484.4 419.6L489.8 419.7L495.2 418.9L500.6 418.9L506 414.9L511.4 415.8L516.8 414.8L522.2 412.9L527.6 411.2L533 420.2L538.4 429L543.8 427.9L549.2 427.7L554.6 425.2L560 417.4L565.4 417.9L570.8 418.5L576.2 414.4L581.6 410L587 409.2L592.4 405.3L597.8 404.6L603.2 399.3L608.6 397.5L614 397.4L619.4 391.2L624.8 388.6L630.2 382.5L635.6 380.8L641 370.5L646.4 367.6L651.8 366.9L657.2 362.9L662.6 354.8L668 350.7L673.4 347.7L678.8 344.3L684.2 342.4L689.6 336.7L695 329.1L700.4 324.5L705.8 323.3L711.2 319.6" fill="none" stroke-width="1"></path></g><g><path stroke-linecap="round" stroke-linejoin="round" stroke="#ddd" d="M52.6 524.9L58 524.9L63.4 524.9L68.8 524.9L74.2 524.9L79.6 524.9L85 524.9L90.4 524.9L95.7 524.9L101.1 524.9L106.5 524.9L111.9 524.9L117.3 524.9L122.7 524.9L128.1 524.9L133.5 524.9L138.9 524.9L144.3 524.9L149.7 524.9L155.1 524.9L160.5 524.9L165.9 524.9L171.3 524.9L176.7 524.9L182.1 524.9L187.5 524.9L192.9 524.9L198.3 524.9L203.7 524.9L209.1 524.9L214.5 524.9L219.9 524.9L225.3 524.9L230.7 524.9L236.1 524.9L241.5 524.9L246.9 524.9L252.3 524.9L257.7 524.9L263.1 524.9L268.5 524.9L273.9 524.9L279.3 523.8L284.7 523.2L290.1 523.3L295.5 524.9L300.9 522.5L306.3 522.5L311.7 524.9L317.1 524.5L322.5 523L327.9 501.2L333.3 501.3L338.7 501.7L344.1 501.9L349.5 522.9L354.9 519L360.3 518.7L365.7 508.7L371.1 508.5L376.5 511.7L381.9 510.9L387.3 512.1L392.7 512.7L398.1 512.2L403.5 507.8L408.9 506.3L414.3 506.5L419.7 507.8L425.1 508.3L430.5 512.5L435.9 512.4L441.2 512.4L446.6 504.9L452 502.9L457.4 502.8L462.8 511.1L468.2 511.1L473.6 507.9L479 508.9L484.4 504L489.8 504L495.2 503.5L500.6 501.7L506 500.3L511.4 500.3L516.8 482.1L522.2 481.4L527.6 476.2L533 472.7L538.4 465.7L543.8 464.5L549.2 465.4L554.6 457.4L560 452.7L565.4 444.8L570.8 444.9L576.2 438L581.6 432.9L587 435.9L592.4 435.3L597.8 424.9L603.2 410.4L608.6 409.6L614 405.1L619.4 399.5L624.8 391.8L630.2 385.9L635.6 386.3L641 386.1L646.4 382.3L651.8 388.1L657.2 388L662.6 385.8L668 362.8L673.4 364.5L678.8 350.8L684.2 349.3L689.6 347.9L695 327.7L700.4 328.2L705.8 318L711.2 301.1" fill="none" stroke-width="1"></path></g><g><path stroke-linecap="round" stroke-linejoin="round" stroke="#ddd" d="M52.6 524.9L58 524.9L63.4 524.9L68.8 524.9L74.2 524.9L79.6 524.9L85 524.9L90.4 524.9L95.7 524.9L101.1 524.9L106.5 524.9L111.9 524.9L117.3 524.9L122.7 524.9L128.1 524.9L133.5 524.9L138.9 524.9L144.3 524.9L149.7 524.9L155.1 524.9L160.5 524.9L165.9 524.9L171.3 524.9L176.7 524.9L182.1 524.9L187.5 524.9L192.9 524.9L198.3 524.9L203.7 524.9L209.1 524.9L214.5 524.9L219.9 524.9L225.3 524.9L230.7 522.9L236.1 522.9L241.5 524.9L246.9 524.9L252.3 524.9L257.7 524.9L263.1 518.7L268.5 518.7L273.9 518.7L279.3 518.7L284.7 509.2L290.1 511.3L295.5 511.7L300.9 501.8L306.3 501.8L311.7 501.8L317.1 513L322.5 513.1L327.9 519.5L333.3 519.5L338.7 519.5L344.1 517.8L349.5 517.8L354.9 517.8L360.3 517.8L365.7 517.8L371.1 517.8L376.5 517.9L381.9 517.9L387.3 517.9L392.7 516.1L398.1 516.1L403.5 516.1L408.9 511.3L414.3 511.3L419.7 511.4L425.1 518.4L430.5 518.2L435.9 518.3L441.2 517.8L446.6 517.8L452 513L457.4 517.8L462.8 517.8L468.2 514.9L473.6 515.3L479 515.4L484.4 501L489.8 495.4L495.2 497.9L500.6 483.6L506 475.2L511.4 475.4L516.8 475.5L522.2 469.1L527.6 469.2L533 469.4L538.4 462.6L543.8 462.8L549.2 464.5L554.6 447.1L560 446.6L565.4 446.9L570.8 398.8L576.2 396.6L581.6 362.2L587 361L592.4 349.5L597.8 343L603.2 345.2L608.6 345.8L614 349.8L619.4 344.3L624.8 344.5L630.2 332.8L635.6 332.7L641 329.5L646.4 345.3L651.8 347.5L657.2 344.5L662.6 337.8L668 335.1L673.4 336.6L678.8 323.1L684.2 324.5L689.6 315L695 311.3L700.4 299.3L705.8 298.9L711.2 256.9" fill="none" stroke-width="1"></path></g><g><path stroke-linecap="round" stroke-linejoin="round" stroke="#ddd" d="M52.6 524.9L58 524.9L63.4 524.9L68.8 524.9L74.2 524.9L79.6 524.9L85 524.9L90.4 524.9L95.7 524.9L101.1 524.9L106.5 524.9L111.9 524.9L117.3 524.9L122.7 524.9L128.1 524.9L133.5 524.9L138.9 524.9L144.3 524.9L149.7 524.9L155.1 524.9L160.5 524.9L165.9 524.7L171.3 524.7L176.7 524.7L182.1 524.7L187.5 524.7L192.9 524.7L198.3 524.7L203.7 524.7L209.1 524.7L214.5 524.7L219.9 524.7L225.3 524.7L230.7 524.7L236.1 524.7L241.5 524.5L246.9 524.5L252.3 524.5L257.7 524.5L263.1 524.5L268.5 524.7L273.9 524.7L279.3 524.7L284.7 524.7L290.1 524.7L295.5 507.3L300.9 507.2L306.3 507.5L311.7 512.7L317.1 512.8L322.5 509.8L327.9 509.8L333.3 507.5L338.7 506.6L344.1 503.7L349.5 501.7L354.9 493.5L360.3 494.9L365.7 495.5L371.1 495.2L376.5 491.7L381.9 491.7L387.3 490.5L392.7 489.5L398.1 495.4L403.5 495.9L408.9 496.4L414.3 496.5L419.7 497.9L425.1 497.9L430.5 499.6L435.9 499.1L441.2 494.3L446.6 493.3L452 486.1L457.4 486L462.8 473.9L468.2 473.8L473.6 475.2L479 475.9L484.4 477.2L489.8 476.5L495.2 464.8L500.6 464.4L506 459.8L511.4 459.8L516.8 455.2L522.2 455.1L527.6 442.8L533 442.9L538.4 443.9L543.8 452.8L549.2 428.3L554.6 428.1L560 415.5L565.4 414.7L570.8 411.5L576.2 409L581.6 398.5L587 399.6L592.4 393.4L597.8 393L603.2 390.6L608.6 376.7L614 370L619.4 367.6L624.8 362L630.2 359L635.6 354.7L641 346.3L646.4 349.6L651.8 342.2L657.2 319L662.6 315L668 308.1L673.4 297.5L678.8 297.4L684.2 294.4L689.6 260.6L695 259.1L700.4 238.3L705.8 233.2L711.2 227.6" fill="none" stroke-width="1"></path></g><g><path stroke-linecap="round" stroke-linejoin="round" stroke="#ddd" d="M52.6 524.9L58 524.9L63.4 524.9L68.8 524.9L74.2 524.9L79.6 524.9L85 524.9L90.4 524.2L95.7 524L101.1 524.2L106.5 524.3L111.9 524.4L117.3 524.4L122.7 524.2L128.1 524.1L133.5 524.1L138.9 524L144.3 524L149.7 523.9L155.1 523.8L160.5 523.9L165.9 522.8L171.3 521.5L176.7 520.2L182.1 521L187.5 521.1L192.9 521L198.3 521L203.7 521.1L209.1 521.7L214.5 520.7L219.9 518.6L225.3 518.9L230.7 517.8L236.1 515.2L241.5 517.9L246.9 517.9L252.3 518.2L257.7 518.8L263.1 516.5L268.5 515.6L273.9 514.6L279.3 514.6L284.7 513.3L290.1 516.6L295.5 506.7L300.9 452.4L306.3 451.7L311.7 445.5L317.1 445L322.5 438.2L327.9 440.8L333.3 430.3L338.7 428.8L344.1 416.7L349.5 415.6L354.9 415.4L360.3 420.2L365.7 417.3L371.1 416.8L376.5 415.4L381.9 412L387.3 407.5L392.7 404.3L398.1 403.9L403.5 407.4L408.9 402.6L414.3 401.8L419.7 403.1L425.1 401.8L430.5 398.2L435.9 395.3L441.2 393.7L446.6 391.8L452 389.6L457.4 387.6L462.8 381.4L468.2 377.4L473.6 375.9L479 370.3L484.4 362.6L489.8 360.3L495.2 360L500.6 358.3L506 360.4L511.4 361.5L516.8 359.1L522.2 346.9L527.6 345.8L533 376.1L538.4 411.1L543.8 425.6L549.2 427.1L554.6 418L560 400.2L565.4 404.7L570.8 402.2L576.2 395L581.6 386.1L587 388.2L592.4 381.7L597.8 377.3L603.2 369.4L608.6 366.7L614 358.6L619.4 357.3L624.8 342.6L630.2 335.1L635.6 330.7L641 327.8L646.4 326.2L651.8 323.8L657.2 315.1L662.6 306.3L668 299.8L673.4 293.3L678.8 285.5L684.2 280.3L689.6 272.6L695 260.3L700.4 258.5L705.8 252.4L711.2 251.7" fill="none" stroke-width="1"></path></g><g><path stroke-linecap="round" stroke-linejoin="round" stroke="#ddd" d="M52.6 524.9L58 524.9L63.4 524.9L68.8 524.9L74.2 524.9L79.6 524.9L85 524.9L90.4 524.9L95.7 524.9L101.1 524.9L106.5 524.9L111.9 524.9L117.3 524.9L122.7 524.9L128.1 524.9L133.5 524.9L138.9 524.9L144.3 524.9L149.7 524.9L155.1 524.9L160.5 524.9L165.9 524.9L171.3 524.9L176.7 524.9L182.1 524.9L187.5 524.9L192.9 524.9L198.3 524.9L203.7 524.9L209.1 524.9L214.5 524.9L219.9 524.6L225.3 524.6L230.7 524.6L236.1 524.6L241.5 523.4L246.9 523.6L252.3 523.6L257.7 523.6L263.1 523.9L268.5 523.8L273.9 523.8L279.3 523.8L284.7 523.8L290.1 524.8L295.5 523.9L300.9 511.2L306.3 501.6L311.7 515.9L317.1 501.7L322.5 509.4L327.9 508.5L333.3 491.7L338.7 490.6L344.1 459.3L349.5 458.2L354.9 458.2L360.3 454.8L365.7 452.3L371.1 452L376.5 450.4L381.9 451.5L387.3 447.3L392.7 446.9L398.1 425.7L403.5 424.7L408.9 424.3L414.3 425.9L419.7 426.2L425.1 427.4L430.5 426.7L435.9 424.3L441.2 428.4L446.6 426.8L452 427.7L457.4 408L462.8 407.1L468.2 406.9L473.6 416.5L479 416.2L484.4 412.1L489.8 413.2L495.2 413.2L500.6 413L506 405.8L511.4 407.4L516.8 407.3L522.2 407L527.6 404.9L533 413.9L538.4 420.1L543.8 414.2L549.2 414.8L554.6 415.3L560 413.2L565.4 413.2L570.8 415.5L576.2 411.1L581.6 408.3L587 404.7L592.4 401.7L597.8 402.8L603.2 399.1L608.6 399.6L614 403.8L619.4 398.1L624.8 398.2L630.2 391.7L635.6 391.2L641 377.5L646.4 377.1L651.8 377.2L657.2 378.2L662.6 370.3L668 367.7L673.4 367.3L678.8 364.4L684.2 362.5L689.6 358.5L695 349.9L700.4 348.4L705.8 348.6L711.2 346.4" fill="none" stroke-width="1"></path></g><g><path stroke-linecap="round" stroke-linejoin="round" stroke="#ddd" d="M52.6 524.9L58 524.9L63.4 524.9L68.8 524.9L74.2 524.9L79.6 524.9L85 524.9L90.4 524.9L95.7 524.9L101.1 524.9L106.5 524.9L111.9 524.9L117.3 524.9L122.7 524.9L128.1 524.9L133.5 524.9L138.9 524.9L144.3 524.9L149.7 524.9L155.1 524.9L160.5 524.9L165.9 524.9L171.3 524.9L176.7 524.9L182.1 524.9L187.5 524.9L192.9 524.9L198.3 524.9L203.7 524.9L209.1 524.9L214.5 524.9L219.9 524.9L225.3 524.9L230.7 524.9L236.1 524.9L241.5 524.9L246.9 522.4L252.3 522.4L257.7 522.4L263.1 522.3L268.5 522.3L273.9 523L279.3 523L284.7 524L290.1 523.9L295.5 523.9L300.9 524L306.3 524.1L311.7 523.6L317.1 523.6L322.5 523.7L327.9 523.7L333.3 523.8L338.7 522.9L344.1 522.9L349.5 522.9L354.9 522.8L360.3 521L365.7 521.7L371.1 521.5L376.5 516.2L381.9 516.8L387.3 512L392.7 509.2L398.1 509.2L403.5 508.1L408.9 508.4L414.3 508.7L419.7 508.5L425.1 509.2L430.5 505.8L435.9 503.1L441.2 504L446.6 502.3L452 498.9L457.4 485.3L462.8 484.9L468.2 492.5L473.6 490.7L479 480.3L484.4 477.5L489.8 475.6L495.2 473.5L500.6 472.9L506 476.1L511.4 478.6L516.8 480.6L522.2 475.7L527.6 484.9L533 477.3L538.4 478.4L543.8 476L549.2 480.3L554.6 474.5L560 448.4L565.4 449.2L570.8 448.7L576.2 450.2L581.6 446.9L587 448.9L592.4 441.6L597.8 438.3L603.2 429.7L608.6 422.5L614 415.7L619.4 399.6L624.8 400L630.2 394.1L635.6 390.2L641 381.3L646.4 363.5L651.8 360.3L657.2 346.9L662.6 335L668 334.2L673.4 324.8L678.8 326.4L684.2 326.5L689.6 327.3L695 327.3L700.4 315.4L705.8 316.3L711.2 312.5" fill="none" stroke-width="1"></path></g><g><path fill="none" stroke-linecap="butt" stroke-linejoin="round" stroke="#fff" stroke-width="2.5" d="M52.6 524.9L58 524.9L63.4 524.9L68.8 524.9L74.2 524.9L79.6 524.9L85 524.9L90.4 524.7L95.7 524.6L101.1 524.7L106.5 524.7L111.9 524.8L117.3 524.8L122.7 524.7L128.1 524.7L133.5 524.7L138.9 524.7L144.3 524.7L149.7 524.7L155.1 524.7L160.5 524.6L165.9 524.1L171.3 524L176.7 523.8L182.1 523.6L187.5 523.6L192.9 523.6L198.3 523.6L203.7 523.6L209.1 523.8L214.5 523.5L219.9 522.6L225.3 522.7L230.7 522.6L236.1 522.3L241.5 522.5L246.9 522.4L252.3 522.4L257.7 522.6L263.1 522.6L268.5 522.8L273.9 522.7L279.3 522.6L284.7 522.7L290.1 523.2L295.5 518L300.9 495L306.3 486.5L311.7 497.8L317.1 483.6L322.5 488.3L327.9 487.8L333.3 477.8L338.7 476.2L344.1 458.9L349.5 458.6L354.9 457.5L360.3 457.5L365.7 454.9L371.1 454.5L376.5 454.1L381.9 453.7L387.3 449.8L392.7 449.5L398.1 438.5L403.5 438.5L408.9 436.4L414.3 437.5L419.7 437.8L425.1 438.2L430.5 437.5L435.9 435.3L441.2 436.7L446.6 435.5L452 434.1L457.4 421.1L462.8 418.4L468.2 419L473.6 424.4L479 423.2L484.4 419.6L489.8 419.7L495.2 418.9L500.6 418.9L506 414.9L511.4 415.8L516.8 414.8L522.2 412.9L527.6 411.2L533 420.2L538.4 429L543.8 427.9L549.2 427.7L554.6 425.2L560 417.4L565.4 417.9L570.8 418.5L576.2 414.4L581.6 410L587 409.2L592.4 405.3L597.8 404.6L603.2 399.3L608.6 397.5L614 397.4L619.4 391.2L624.8 388.6L630.2 382.5L635.6 380.8L641 370.5L646.4 367.6L651.8 366.9L657.2 362.9L662.6 354.8L668 350.7L673.4 347.7L678.8 344.3L684.2 342.4L689.6 336.7L695 329.1L700.4 324.5L705.8 323.3L711.2 319.6"></path><polyline points="52.60,524.90 58.00,524.90 63.40,524.90 68.80,524.90 74.20,524.90 79.60,524.90 85.00,524.90 90.40,524.70 95.70,524.60 101.10,524.70 106.50,524.70 111.90,524.80 117.30,524.80 122.70,524.70 128.10,524.70 133.50,524.70 138.90,524.70 144.30,524.70 149.70,524.70 155.10,524.70 160.50,524.60 165.90,524.10 171.30,524.00 176.70,523.80 182.10,523.60 187.50,523.60 192.90,523.60 198.30,523.60 203.70,523.60 209.10,523.80 214.50,523.50 219.90,522.60 225.30,522.70 230.70,522.60 236.10,522.30 241.50,522.50 246.90,522.40 252.30,522.40 257.70,522.60 263.10,522.60 268.50,522.80 273.90,522.70 279.30,522.60 284.70,522.70 290.10,523.20 295.50,518.00 300.90,495.00 306.30,486.50 311.70,497.80 317.10,483.60 322.50,488.30 327.90,487.80 333.30,477.80 338.70,476.20 344.10,458.90 349.50,458.60 354.90,457.50 360.30,457.50 365.70,454.90 371.10,454.50 376.50,454.10 381.90,453.70 387.30,449.80 392.70,449.50 398.10,438.50 403.50,438.50 408.90,436.40 414.30,437.50 419.70,437.80 425.10,438.20 430.50,437.50 435.90,435.30 441.20,436.70 446.60,435.50 452.00,434.10 457.40,421.10 462.80,418.40 468.20,419.00 473.60,424.40 479.00,423.20 484.40,419.60 489.80,419.70 495.20,418.90 500.60,418.90 506.00,414.90 511.40,415.80 516.80,414.80 522.20,412.90 527.60,411.20 533.00,420.20 538.40,429.00 543.80,427.90 549.20,427.70 554.60,425.20 560.00,417.40 565.40,417.90 570.80,418.50 576.20,414.40 581.60,410.00 587.00,409.20 592.40,405.30 597.80,404.60 603.20,399.30 608.60,397.50 614.00,397.40 619.40,391.20 624.80,388.60 630.20,382.50 635.60,380.80 641.00,370.50 646.40,367.60 651.80,366.90 657.20,362.90 662.60,354.80 668.00,350.70 673.40,347.70 678.80,344.30 684.20,342.40 689.60,336.70 695.00,329.10 700.40,324.50 705.80,323.30 711.20,319.60" stroke-linejoin="round" stroke-width="1.5" stroke="#286BBB" fill="none" stroke-linecap="butt"></polyline></g><g><path fill="none" stroke-linecap="butt" stroke-linejoin="round" stroke="#fff" stroke-width="2.5" d="M52.6 524.9L58 524.9L63.4 524.9L68.8 524.9L74.2 524.9L79.6 524.9L85 524.9L90.4 524.9L95.7 524.9L101.1 524.9L106.5 524.9L111.9 524.9L117.3 524.9L122.7 524.9L128.1 524.9L133.5 524.9L138.9 524.9L144.3 524.9L149.7 524.9L155.1 524.9L160.5 524.9L165.9 524.9L171.3 524.9L176.7 524.9L182.1 524.9L187.5 524.9L192.9 524.9L198.3 524.9L203.7 524.9L209.1 524.9L214.5 524.9L219.9 524.9L225.3 524.9L230.7 524.9L236.1 524.9L241.5 524.9L246.9 524.9L252.3 524.9L257.7 524.9L263.1 524.9L268.5 524.9L273.9 524.9L279.3 523.8L284.7 523.2L290.1 523.3L295.5 524.9L300.9 522.5L306.3 522.5L311.7 524.9L317.1 524.5L322.5 523L327.9 501.2L333.3 501.3L338.7 501.7L344.1 501.9L349.5 522.9L354.9 519L360.3 518.7L365.7 508.7L371.1 508.5L376.5 511.7L381.9 510.9L387.3 512.1L392.7 512.7L398.1 512.2L403.5 507.8L408.9 506.3L414.3 506.5L419.7 507.8L425.1 508.3L430.5 512.5L435.9 512.4L441.2 512.4L446.6 504.9L452 502.9L457.4 502.8L462.8 511.1L468.2 511.1L473.6 507.9L479 508.9L484.4 504L489.8 504L495.2 503.5L500.6 501.7L506 500.3L511.4 500.3L516.8 482.1L522.2 481.4L527.6 476.2L533 472.7L538.4 465.7L543.8 464.5L549.2 465.4L554.6 457.4L560 452.7L565.4 444.8L570.8 444.9L576.2 438L581.6 432.9L587 435.9L592.4 435.3L597.8 424.9L603.2 410.4L608.6 409.6L614 405.1L619.4 399.5L624.8 391.8L630.2 385.9L635.6 386.3L641 386.1L646.4 382.3L651.8 388.1L657.2 388L662.6 385.8L668 362.8L673.4 364.5L678.8 350.8L684.2 349.3L689.6 347.9L695 327.7L700.4 328.2L705.8 318L711.2 301.1"></path><polyline points="52.60,524.90 58.00,524.90 63.40,524.90 68.80,524.90 74.20,524.90 79.60,524.90 85.00,524.90 90.40,524.90 95.70,524.90 101.10,524.90 106.50,524.90 111.90,524.90 117.30,524.90 122.70,524.90 128.10,524.90 133.50,524.90 138.90,524.90 144.30,524.90 149.70,524.90 155.10,524.90 160.50,524.90 165.90,524.90 171.30,524.90 176.70,524.90 182.10,524.90 187.50,524.90 192.90,524.90 198.30,524.90 203.70,524.90 209.10,524.90 214.50,524.90 219.90,524.90 225.30,524.90 230.70,524.90 236.10,524.90 241.50,524.90 246.90,524.90 252.30,524.90 257.70,524.90 263.10,524.90 268.50,524.90 273.90,524.90 279.30,523.80 284.70,523.20 290.10,523.30 295.50,524.90 300.90,522.50 306.30,522.50 311.70,524.90 317.10,524.50 322.50,523.00 327.90,501.20 333.30,501.30 338.70,501.70 344.10,501.90 349.50,522.90 354.90,519.00 360.30,518.70 365.70,508.70 371.10,508.50 376.50,511.70 381.90,510.90 387.30,512.10 392.70,512.70 398.10,512.20 403.50,507.80 408.90,506.30 414.30,506.50 419.70,507.80 425.10,508.30 430.50,512.50 435.90,512.40 441.20,512.40 446.60,504.90 452.00,502.90 457.40,502.80 462.80,511.10 468.20,511.10 473.60,507.90 479.00,508.90 484.40,504.00 489.80,504.00 495.20,503.50 500.60,501.70 506.00,500.30 511.40,500.30 516.80,482.10 522.20,481.40 527.60,476.20 533.00,472.70 538.40,465.70 543.80,464.50 549.20,465.40 554.60,457.40 560.00,452.70 565.40,444.80 570.80,444.90 576.20,438.00 581.60,432.90 587.00,435.90 592.40,435.30 597.80,424.90 603.20,410.40 608.60,409.60 614.00,405.10 619.40,399.50 624.80,391.80 630.20,385.90 635.60,386.30 641.00,386.10 646.40,382.30 651.80,388.10 657.20,388.00 662.60,385.80 668.00,362.80 673.40,364.50 678.80,350.80 684.20,349.30 689.60,347.90 695.00,327.70 700.40,328.20 705.80,318.00 711.20,301.10" stroke-linejoin="round" stroke-width="1.5" stroke="#18470F" fill="none" stroke-linecap="butt"></polyline></g><g><path fill="none" stroke-linecap="butt" stroke-linejoin="round" stroke="#fff" stroke-width="2.5" d="M52.6 524.9L58 524.9L63.4 524.9L68.8 524.9L74.2 524.9L79.6 524.9L85 524.9L90.4 524.9L95.7 524.9L101.1 524.9L106.5 524.9L111.9 524.9L117.3 524.9L122.7 524.9L128.1 524.9L133.5 524.9L138.9 524.9L144.3 524.9L149.7 524.9L155.1 524.9L160.5 524.9L165.9 524.9L171.3 524.9L176.7 524.9L182.1 524.9L187.5 524.9L192.9 524.9L198.3 524.9L203.7 524.9L209.1 524.9L214.5 524.9L219.9 524.9L225.3 524.9L230.7 522.9L236.1 522.9L241.5 524.9L246.9 524.9L252.3 524.9L257.7 524.9L263.1 518.7L268.5 518.7L273.9 518.7L279.3 518.7L284.7 509.2L290.1 511.3L295.5 511.7L300.9 501.8L306.3 501.8L311.7 501.8L317.1 513L322.5 513.1L327.9 519.5L333.3 519.5L338.7 519.5L344.1 517.8L349.5 517.8L354.9 517.8L360.3 517.8L365.7 517.8L371.1 517.8L376.5 517.9L381.9 517.9L387.3 517.9L392.7 516.1L398.1 516.1L403.5 516.1L408.9 511.3L414.3 511.3L419.7 511.4L425.1 518.4L430.5 518.2L435.9 518.3L441.2 517.8L446.6 517.8L452 513L457.4 517.8L462.8 517.8L468.2 514.9L473.6 515.3L479 515.4L484.4 501L489.8 495.4L495.2 497.9L500.6 483.6L506 475.2L511.4 475.4L516.8 475.5L522.2 469.1L527.6 469.2L533 469.4L538.4 462.6L543.8 462.8L549.2 464.5L554.6 447.1L560 446.6L565.4 446.9L570.8 398.8L576.2 396.6L581.6 362.2L587 361L592.4 349.5L597.8 343L603.2 345.2L608.6 345.8L614 349.8L619.4 344.3L624.8 344.5L630.2 332.8L635.6 332.7L641 329.5L646.4 345.3L651.8 347.5L657.2 344.5L662.6 337.8L668 335.1L673.4 336.6L678.8 323.1L684.2 324.5L689.6 315L695 311.3L700.4 299.3L705.8 298.9L711.2 256.9"></path><polyline points="52.60,524.90 58.00,524.90 63.40,524.90 68.80,524.90 74.20,524.90 79.60,524.90 85.00,524.90 90.40,524.90 95.70,524.90 101.10,524.90 106.50,524.90 111.90,524.90 117.30,524.90 122.70,524.90 128.10,524.90 133.50,524.90 138.90,524.90 144.30,524.90 149.70,524.90 155.10,524.90 160.50,524.90 165.90,524.90 171.30,524.90 176.70,524.90 182.10,524.90 187.50,524.90 192.90,524.90 198.30,524.90 203.70,524.90 209.10,524.90 214.50,524.90 219.90,524.90 225.30,524.90 230.70,522.90 236.10,522.90 241.50,524.90 246.90,524.90 252.30,524.90 257.70,524.90 263.10,518.70 268.50,518.70 273.90,518.70 279.30,518.70 284.70,509.20 290.10,511.30 295.50,511.70 300.90,501.80 306.30,501.80 311.70,501.80 317.10,513.00 322.50,513.10 327.90,519.50 333.30,519.50 338.70,519.50 344.10,517.80 349.50,517.80 354.90,517.80 360.30,517.80 365.70,517.80 371.10,517.80 376.50,517.90 381.90,517.90 387.30,517.90 392.70,516.10 398.10,516.10 403.50,516.10 408.90,511.30 414.30,511.30 419.70,511.40 425.10,518.40 430.50,518.20 435.90,518.30 441.20,517.80 446.60,517.80 452.00,513.00 457.40,517.80 462.80,517.80 468.20,514.90 473.60,515.30 479.00,515.40 484.40,501.00 489.80,495.40 495.20,497.90 500.60,483.60 506.00,475.20 511.40,475.40 516.80,475.50 522.20,469.10 527.60,469.20 533.00,469.40 538.40,462.60 543.80,462.80 549.20,464.50 554.60,447.10 560.00,446.60 565.40,446.90 570.80,398.80 576.20,396.60 581.60,362.20 587.00,361.00 592.40,349.50 597.80,343.00 603.20,345.20 608.60,345.80 614.00,349.80 619.40,344.30 624.80,344.50 630.20,332.80 635.60,332.70 641.00,329.50 646.40,345.30 651.80,347.50 657.20,344.50 662.60,337.80 668.00,335.10 673.40,336.60 678.80,323.10 684.20,324.50 689.60,315.00 695.00,311.30 700.40,299.30 705.80,298.90 711.20,256.90" stroke-linejoin="round" stroke-width="1.5" stroke="#CF0A66" fill="none" stroke-linecap="butt"></polyline></g><g><path fill="none" stroke-linecap="butt" stroke-linejoin="round" stroke="#fff" stroke-width="2.5" d="M52.6 524.9L58 524.9L63.4 524.9L68.8 524.9L74.2 524.9L79.6 524.9L85 524.9L90.4 524.9L95.7 524.9L101.1 524.9L106.5 524.9L111.9 524.9L117.3 524.9L122.7 524.9L128.1 524.9L133.5 524.9L138.9 524.9L144.3 524.9L149.7 524.9L155.1 524.9L160.5 524.9L165.9 524.7L171.3 524.7L176.7 524.7L182.1 524.7L187.5 524.7L192.9 524.7L198.3 524.7L203.7 524.7L209.1 524.7L214.5 524.7L219.9 524.7L225.3 524.7L230.7 524.7L236.1 524.7L241.5 524.5L246.9 524.5L252.3 524.5L257.7 524.5L263.1 524.5L268.5 524.7L273.9 524.7L279.3 524.7L284.7 524.7L290.1 524.7L295.5 507.3L300.9 507.2L306.3 507.5L311.7 512.7L317.1 512.8L322.5 509.8L327.9 509.8L333.3 507.5L338.7 506.6L344.1 503.7L349.5 501.7L354.9 493.5L360.3 494.9L365.7 495.5L371.1 495.2L376.5 491.7L381.9 491.7L387.3 490.5L392.7 489.5L398.1 495.4L403.5 495.9L408.9 496.4L414.3 496.5L419.7 497.9L425.1 497.9L430.5 499.6L435.9 499.1L441.2 494.3L446.6 493.3L452 486.1L457.4 486L462.8 473.9L468.2 473.8L473.6 475.2L479 475.9L484.4 477.2L489.8 476.5L495.2 464.8L500.6 464.4L506 459.8L511.4 459.8L516.8 455.2L522.2 455.1L527.6 442.8L533 442.9L538.4 443.9L543.8 452.8L549.2 428.3L554.6 428.1L560 415.5L565.4 414.7L570.8 411.5L576.2 409L581.6 398.5L587 399.6L592.4 393.4L597.8 393L603.2 390.6L608.6 376.7L614 370L619.4 367.6L624.8 362L630.2 359L635.6 354.7L641 346.3L646.4 349.6L651.8 342.2L657.2 319L662.6 315L668 308.1L673.4 297.5L678.8 297.4L684.2 294.4L689.6 260.6L695 259.1L700.4 238.3L705.8 233.2L711.2 227.6"></path><polyline points="52.60,524.90 58.00,524.90 63.40,524.90 68.80,524.90 74.20,524.90 79.60,524.90 85.00,524.90 90.40,524.90 95.70,524.90 101.10,524.90 106.50,524.90 111.90,524.90 117.30,524.90 122.70,524.90 128.10,524.90 133.50,524.90 138.90,524.90 144.30,524.90 149.70,524.90 155.10,524.90 160.50,524.90 165.90,524.70 171.30,524.70 176.70,524.70 182.10,524.70 187.50,524.70 192.90,524.70 198.30,524.70 203.70,524.70 209.10,524.70 214.50,524.70 219.90,524.70 225.30,524.70 230.70,524.70 236.10,524.70 241.50,524.50 246.90,524.50 252.30,524.50 257.70,524.50 263.10,524.50 268.50,524.70 273.90,524.70 279.30,524.70 284.70,524.70 290.10,524.70 295.50,507.30 300.90,507.20 306.30,507.50 311.70,512.70 317.10,512.80 322.50,509.80 327.90,509.80 333.30,507.50 338.70,506.60 344.10,503.70 349.50,501.70 354.90,493.50 360.30,494.90 365.70,495.50 371.10,495.20 376.50,491.70 381.90,491.70 387.30,490.50 392.70,489.50 398.10,495.40 403.50,495.90 408.90,496.40 414.30,496.50 419.70,497.90 425.10,497.90 430.50,499.60 435.90,499.10 441.20,494.30 446.60,493.30 452.00,486.10 457.40,486.00 462.80,473.90 468.20,473.80 473.60,475.20 479.00,475.90 484.40,477.20 489.80,476.50 495.20,464.80 500.60,464.40 506.00,459.80 511.40,459.80 516.80,455.20 522.20,455.10 527.60,442.80 533.00,442.90 538.40,443.90 543.80,452.80 549.20,428.30 554.60,428.10 560.00,415.50 565.40,414.70 570.80,411.50 576.20,409.00 581.60,398.50 587.00,399.60 592.40,393.40 597.80,393.00 603.20,390.60 608.60,376.70 614.00,370.00 619.40,367.60 624.80,362.00 630.20,359.00 635.60,354.70 641.00,346.30 646.40,349.60 651.80,342.20 657.20,319.00 662.60,315.00 668.00,308.10 673.40,297.50 678.80,297.40 684.20,294.40 689.60,260.60 695.00,259.10 700.40,238.30 705.80,233.20 711.20,227.60" stroke-linejoin="round" stroke-width="1.5" stroke="#6D3E91" fill="none" stroke-linecap="butt"></polyline></g><g><path fill="none" stroke-linecap="butt" stroke-linejoin="round" stroke="#fff" stroke-width="2.5" d="M52.6 524.9L58 524.9L63.4 524.9L68.8 524.9L74.2 524.9L79.6 524.9L85 524.9L90.4 524.2L95.7 524L101.1 524.2L106.5 524.3L111.9 524.4L117.3 524.4L122.7 524.2L128.1 524.1L133.5 524.1L138.9 524L144.3 524L149.7 523.9L155.1 523.8L160.5 523.9L165.9 522.8L171.3 521.5L176.7 520.2L182.1 521L187.5 521.1L192.9 521L198.3 521L203.7 521.1L209.1 521.7L214.5 520.7L219.9 518.6L225.3 518.9L230.7 517.8L236.1 515.2L241.5 517.9L246.9 517.9L252.3 518.2L257.7 518.8L263.1 516.5L268.5 515.6L273.9 514.6L279.3 514.6L284.7 513.3L290.1 516.6L295.5 506.7L300.9 452.4L306.3 451.7L311.7 445.5L317.1 445L322.5 438.2L327.9 440.8L333.3 430.3L338.7 428.8L344.1 416.7L349.5 415.6L354.9 415.4L360.3 420.2L365.7 417.3L371.1 416.8L376.5 415.4L381.9 412L387.3 407.5L392.7 404.3L398.1 403.9L403.5 407.4L408.9 402.6L414.3 401.8L419.7 403.1L425.1 401.8L430.5 398.2L435.9 395.3L441.2 393.7L446.6 391.8L452 389.6L457.4 387.6L462.8 381.4L468.2 377.4L473.6 375.9L479 370.3L484.4 362.6L489.8 360.3L495.2 360L500.6 358.3L506 360.4L511.4 361.5L516.8 359.1L522.2 346.9L527.6 345.8L533 376.1L538.4 411.1L543.8 425.6L549.2 427.1L554.6 418L560 400.2L565.4 404.7L570.8 402.2L576.2 395L581.6 386.1L587 388.2L592.4 381.7L597.8 377.3L603.2 369.4L608.6 366.7L614 358.6L619.4 357.3L624.8 342.6L630.2 335.1L635.6 330.7L641 327.8L646.4 326.2L651.8 323.8L657.2 315.1L662.6 306.3L668 299.8L673.4 293.3L678.8 285.5L684.2 280.3L689.6 272.6L695 260.3L700.4 258.5L705.8 252.4L711.2 251.7"></path><polyline points="52.60,524.90 58.00,524.90 63.40,524.90 68.80,524.90 74.20,524.90 79.60,524.90 85.00,524.90 90.40,524.20 95.70,524.00 101.10,524.20 106.50,524.30 111.90,524.40 117.30,524.40 122.70,524.20 128.10,524.10 133.50,524.10 138.90,524.00 144.30,524.00 149.70,523.90 155.10,523.80 160.50,523.90 165.90,522.80 171.30,521.50 176.70,520.20 182.10,521.00 187.50,521.10 192.90,521.00 198.30,521.00 203.70,521.10 209.10,521.70 214.50,520.70 219.90,518.60 225.30,518.90 230.70,517.80 236.10,515.20 241.50,517.90 246.90,517.90 252.30,518.20 257.70,518.80 263.10,516.50 268.50,515.60 273.90,514.60 279.30,514.60 284.70,513.30 290.10,516.60 295.50,506.70 300.90,452.40 306.30,451.70 311.70,445.50 317.10,445.00 322.50,438.20 327.90,440.80 333.30,430.30 338.70,428.80 344.10,416.70 349.50,415.60 354.90,415.40 360.30,420.20 365.70,417.30 371.10,416.80 376.50,415.40 381.90,412.00 387.30,407.50 392.70,404.30 398.10,403.90 403.50,407.40 408.90,402.60 414.30,401.80 419.70,403.10 425.10,401.80 430.50,398.20 435.90,395.30 441.20,393.70 446.60,391.80 452.00,389.60 457.40,387.60 462.80,381.40 468.20,377.40 473.60,375.90 479.00,370.30 484.40,362.60 489.80,360.30 495.20,360.00 500.60,358.30 506.00,360.40 511.40,361.50 516.80,359.10 522.20,346.90 527.60,345.80 533.00,376.10 538.40,411.10 543.80,425.60 549.20,427.10 554.60,418.00 560.00,400.20 565.40,404.70 570.80,402.20 576.20,395.00 581.60,386.10 587.00,388.20 592.40,381.70 597.80,377.30 603.20,369.40 608.60,366.70 614.00,358.60 619.40,357.30 624.80,342.60 630.20,335.10 635.60,330.70 641.00,327.80 646.40,326.20 651.80,323.80 657.20,315.10 662.60,306.30 668.00,299.80 673.40,293.30 678.80,285.50 684.20,280.30 689.60,272.60 695.00,260.30 700.40,258.50 705.80,252.40 711.20,251.70" stroke-linejoin="round" stroke-width="1.5" stroke="#BE5915" fill="none" stroke-linecap="butt"></polyline></g><g><path fill="none" stroke-linecap="butt" stroke-linejoin="round" stroke="#fff" stroke-width="2.5" d="M52.6 524.9L58 524.9L63.4 524.9L68.8 524.9L74.2 524.9L79.6 524.9L85 524.9L90.4 524.9L95.7 524.9L101.1 524.9L106.5 524.9L111.9 524.9L117.3 524.9L122.7 524.9L128.1 524.9L133.5 524.9L138.9 524.9L144.3 524.9L149.7 524.9L155.1 524.9L160.5 524.9L165.9 524.9L171.3 524.9L176.7 524.9L182.1 524.9L187.5 524.9L192.9 524.9L198.3 524.9L203.7 524.9L209.1 524.9L214.5 524.9L219.9 524.6L225.3 524.6L230.7 524.6L236.1 524.6L241.5 523.4L246.9 523.6L252.3 523.6L257.7 523.6L263.1 523.9L268.5 523.8L273.9 523.8L279.3 523.8L284.7 523.8L290.1 524.8L295.5 523.9L300.9 511.2L306.3 501.6L311.7 515.9L317.1 501.7L322.5 509.4L327.9 508.5L333.3 491.7L338.7 490.6L344.1 459.3L349.5 458.2L354.9 458.2L360.3 454.8L365.7 452.3L371.1 452L376.5 450.4L381.9 451.5L387.3 447.3L392.7 446.9L398.1 425.7L403.5 424.7L408.9 424.3L414.3 425.9L419.7 426.2L425.1 427.4L430.5 426.7L435.9 424.3L441.2 428.4L446.6 426.8L452 427.7L457.4 408L462.8 407.1L468.2 406.9L473.6 416.5L479 416.2L484.4 412.1L489.8 413.2L495.2 413.2L500.6 413L506 405.8L511.4 407.4L516.8 407.3L522.2 407L527.6 404.9L533 413.9L538.4 420.1L543.8 414.2L549.2 414.8L554.6 415.3L560 413.2L565.4 413.2L570.8 415.5L576.2 411.1L581.6 408.3L587 404.7L592.4 401.7L597.8 402.8L603.2 399.1L608.6 399.6L614 403.8L619.4 398.1L624.8 398.2L630.2 391.7L635.6 391.2L641 377.5L646.4 377.1L651.8 377.2L657.2 378.2L662.6 370.3L668 367.7L673.4 367.3L678.8 364.4L684.2 362.5L689.6 358.5L695 349.9L700.4 348.4L705.8 348.6L711.2 346.4"></path><polyline points="52.60,524.90 58.00,524.90 63.40,524.90 68.80,524.90 74.20,524.90 79.60,524.90 85.00,524.90 90.40,524.90 95.70,524.90 101.10,524.90 106.50,524.90 111.90,524.90 117.30,524.90 122.70,524.90 128.10,524.90 133.50,524.90 138.90,524.90 144.30,524.90 149.70,524.90 155.10,524.90 160.50,524.90 165.90,524.90 171.30,524.90 176.70,524.90 182.10,524.90 187.50,524.90 192.90,524.90 198.30,524.90 203.70,524.90 209.10,524.90 214.50,524.90 219.90,524.60 225.30,524.60 230.70,524.60 236.10,524.60 241.50,523.40 246.90,523.60 252.30,523.60 257.70,523.60 263.10,523.90 268.50,523.80 273.90,523.80 279.30,523.80 284.70,523.80 290.10,524.80 295.50,523.90 300.90,511.20 306.30,501.60 311.70,515.90 317.10,501.70 322.50,509.40 327.90,508.50 333.30,491.70 338.70,490.60 344.10,459.30 349.50,458.20 354.90,458.20 360.30,454.80 365.70,452.30 371.10,452.00 376.50,450.40 381.90,451.50 387.30,447.30 392.70,446.90 398.10,425.70 403.50,424.70 408.90,424.30 414.30,425.90 419.70,426.20 425.10,427.40 430.50,426.70 435.90,424.30 441.20,428.40 446.60,426.80 452.00,427.70 457.40,408.00 462.80,407.10 468.20,406.90 473.60,416.50 479.00,416.20 484.40,412.10 489.80,413.20 495.20,413.20 500.60,413.00 506.00,405.80 511.40,407.40 516.80,407.30 522.20,407.00 527.60,404.90 533.00,413.90 538.40,420.10 543.80,414.20 549.20,414.80 554.60,415.30 560.00,413.20 565.40,413.20 570.80,415.50 576.20,411.10 581.60,408.30 587.00,404.70 592.40,401.70 597.80,402.80 603.20,399.10 608.60,399.60 614.00,403.80 619.40,398.10 624.80,398.20 630.20,391.70 635.60,391.20 641.00,377.50 646.40,377.10 651.80,377.20 657.20,378.20 662.60,370.30 668.00,367.70 673.40,367.30 678.80,364.40 684.20,362.50 689.60,358.50 695.00,349.90 700.40,348.40 705.80,348.60 711.20,346.40" stroke-linejoin="round" stroke-width="1.5" stroke="#2C8465" fill="none" stroke-linecap="butt"></polyline></g><g><path fill="none" stroke-linecap="butt" stroke-linejoin="round" stroke="#fff" stroke-width="2.5" d="M52.6 524.9L58 524.9L63.4 524.9L68.8 524.9L74.2 524.9L79.6 524.9L85 524.9L90.4 524.9L95.7 524.9L101.1 524.9L106.5 524.9L111.9 524.9L117.3 524.9L122.7 524.9L128.1 524.9L133.5 524.9L138.9 524.9L144.3 524.9L149.7 524.9L155.1 524.9L160.5 524.9L165.9 524.9L171.3 524.9L176.7 524.9L182.1 524.9L187.5 524.9L192.9 524.9L198.3 524.9L203.7 524.9L209.1 524.9L214.5 524.9L219.9 524.9L225.3 524.9L230.7 524.9L236.1 524.9L241.5 524.9L246.9 522.4L252.3 522.4L257.7 522.4L263.1 522.3L268.5 522.3L273.9 523L279.3 523L284.7 524L290.1 523.9L295.5 523.9L300.9 524L306.3 524.1L311.7 523.6L317.1 523.6L322.5 523.7L327.9 523.7L333.3 523.8L338.7 522.9L344.1 522.9L349.5 522.9L354.9 522.8L360.3 521L365.7 521.7L371.1 521.5L376.5 516.2L381.9 516.8L387.3 512L392.7 509.2L398.1 509.2L403.5 508.1L408.9 508.4L414.3 508.7L419.7 508.5L425.1 509.2L430.5 505.8L435.9 503.1L441.2 504L446.6 502.3L452 498.9L457.4 485.3L462.8 484.9L468.2 492.5L473.6 490.7L479 480.3L484.4 477.5L489.8 475.6L495.2 473.5L500.6 472.9L506 476.1L511.4 478.6L516.8 480.6L522.2 475.7L527.6 484.9L533 477.3L538.4 478.4L543.8 476L549.2 480.3L554.6 474.5L560 448.4L565.4 449.2L570.8 448.7L576.2 450.2L581.6 446.9L587 448.9L592.4 441.6L597.8 438.3L603.2 429.7L608.6 422.5L614 415.7L619.4 399.6L624.8 400L630.2 394.1L635.6 390.2L641 381.3L646.4 363.5L651.8 360.3L657.2 346.9L662.6 335L668 334.2L673.4 324.8L678.8 326.4L684.2 326.5L689.6 327.3L695 327.3L700.4 315.4L705.8 316.3L711.2 312.5"></path><polyline points="52.60,524.90 58.00,524.90 63.40,524.90 68.80,524.90 74.20,524.90 79.60,524.90 85.00,524.90 90.40,524.90 95.70,524.90 101.10,524.90 106.50,524.90 111.90,524.90 117.30,524.90 122.70,524.90 128.10,524.90 133.50,524.90 138.90,524.90 144.30,524.90 149.70,524.90 155.10,524.90 160.50,524.90 165.90,524.90 171.30,524.90 176.70,524.90 182.10,524.90 187.50,524.90 192.90,524.90 198.30,524.90 203.70,524.90 209.10,524.90 214.50,524.90 219.90,524.90 225.30,524.90 230.70,524.90 236.10,524.90 241.50,524.90 246.90,522.40 252.30,522.40 257.70,522.40 263.10,522.30 268.50,522.30 273.90,523.00 279.30,523.00 284.70,524.00 290.10,523.90 295.50,523.90 300.90,524.00 306.30,524.10 311.70,523.60 317.10,523.60 322.50,523.70 327.90,523.70 333.30,523.80 338.70,522.90 344.10,522.90 349.50,522.90 354.90,522.80 360.30,521.00 365.70,521.70 371.10,521.50 376.50,516.20 381.90,516.80 387.30,512.00 392.70,509.20 398.10,509.20 403.50,508.10 408.90,508.40 414.30,508.70 419.70,508.50 425.10,509.20 430.50,505.80 435.90,503.10 441.20,504.00 446.60,502.30 452.00,498.90 457.40,485.30 462.80,484.90 468.20,492.50 473.60,490.70 479.00,480.30 484.40,477.50 489.80,475.60 495.20,473.50 500.60,472.90 506.00,476.10 511.40,478.60 516.80,480.60 522.20,475.70 527.60,484.90 533.00,477.30 538.40,478.40 543.80,476.00 549.20,480.30 554.60,474.50 560.00,448.40 565.40,449.20 570.80,448.70 576.20,450.20 581.60,446.90 587.00,448.90 592.40,441.60 597.80,438.30 603.20,429.70 608.60,422.50 614.00,415.70 619.40,399.60 624.80,400.00 630.20,394.10 635.60,390.20 641.00,381.30 646.40,363.50 651.80,360.30 657.20,346.90 662.60,335.00 668.00,334.20 673.40,324.80 678.80,326.40 684.20,326.50 689.60,327.30 695.00,327.30 700.40,315.40 705.80,316.30 711.20,312.50" stroke-linejoin="round" stroke-width="1.5" stroke="#C15065" fill="none" stroke-linecap="butt"></polyline></g></g></g></g><g class="SourcesFooter" style="fill:#777"><g style="fill:#777"><text x="15.0" y="582.7" style="font-size:12.6px;line-height:1.1"><tspan x="15" y="582.7">Source: OWID based on V-Dem (v13); Gapminder (v6); HYDE (v3.2); UN (2022)</tspan></text></g><text font-size="12.60" x="592.8" y="582.7"><tspan x="592.828" y="582.732"><a target='_blank' style='fill: #777;' href='https://ourworldindata.org/human-rights'>OurWorldInData.org/human-rights</a>  <a style="fill: #777;" class="cclogo" href="http://creativecommons.org/licenses/by/4.0/deed.en_US" target="_blank">CC BY</a></tspan></text></g></svg>