<svg xmlns="http://www.w3.org/2000/svg" version="1.1" style="font-family:Lato, &#x27;Helvetica Neue&#x27;, Helvetica, Arial, &#x27;Liberation Sans&#x27;, sans-serif;font-size:18px;background-color:white;text-rendering:geometricPrecision;-webkit-font-smoothing:antialiased" width="850" height="600" viewBox="0 0 850 600"><defs><style>@import url(https://ourworldindata.org/fonts.css)</style></defs><defs><pattern id="noDataPattern" patternUnits="userSpaceOnUse" width="4" height="4" patternTransform="rotate(-45 2 2)"><path d="M -1,2 l 6,0" stroke="#ccc" stroke-width="0.7"></path></pattern></defs><rect class="background-fill" fill="white" width="850" height="600"></rect><g id="header" class="HeaderView"><g id="logo" transform="translate(769, 16) scale(1)"><svg className="owidLogo" xmlns="http://www.w3.org/2000/svg" width="65" height="36" viewBox="0 0 65 36"  fill="none"><path fill="#002147" d="M0 0h64.8v36H0z"/><path fill="#CE261E" d="M0 33.3h64.8V36H0z"/><path fill="#fff" d="M13.796 10.575c0 .636-.106 1.226-.318 1.77a4.193 4.193 0 0 1-.894 1.404 4.084 4.084 0 0 1-1.386.93c-.54.22-1.138.33-1.794.33-.656 0-1.256-.11-1.8-.33a4.149 4.149 0 0 1-1.392-.93 4.193 4.193 0 0 1-.894-1.404A4.833 4.833 0 0 1 5 10.575c0-.636.106-1.224.318-1.764a4.18 4.18 0 0 1 .894-1.41 4.076 4.076 0 0 1 1.392-.924 4.684 4.684 0 0 1 1.8-.336c.656 0 1.254.112 1.794.336.54.224 1.002.534 1.386.93.384.392.682.86.894 1.404.212.54.318 1.128.318 1.764Zm-1.656 0c0-.476-.064-.902-.192-1.278a2.671 2.671 0 0 0-.54-.966 2.332 2.332 0 0 0-.864-.606 2.94 2.94 0 0 0-1.14-.21c-.424 0-.806.07-1.146.21-.34.14-.63.342-.87.606a2.742 2.742 0 0 0-.546.966 3.955 3.955 0 0 0-.192 1.278c0 .476.064.904.192 1.284.128.376.31.696.546.96.24.26.53.46.87.6.34.14.722.21 1.146.21.424 0 .804-.07 1.14-.21.34-.14.628-.34.864-.6.236-.264.416-.584.54-.96a4.01 4.01 0 0 0 .192-1.284ZM16.104 8.757v3.912c0 .376.086.668.258.876.176.204.438.306.786.306.256 0 .496-.056.72-.168a2.58 2.58 0 0 0 .636-.474V8.757h1.482v6.156h-.906c-.192 0-.318-.09-.378-.27l-.102-.492a4.65 4.65 0 0 1-.396.354 2.577 2.577 0 0 1-.438.27 2.35 2.35 0 0 1-.498.168 2.345 2.345 0 0 1-.57.066c-.336 0-.634-.056-.894-.168a1.821 1.821 0 0 1-.648-.486 2.157 2.157 0 0 1-.402-.738 3.233 3.233 0 0 1-.132-.948V8.757h1.482ZM21.328 14.913V8.757h.87c.152 0 .258.028.318.084.06.056.1.152.12.288l.09.744c.22-.38.478-.68.774-.9.296-.22.628-.33.996-.33.304 0 .556.07.756.21l-.192 1.11c-.012.072-.038.124-.078.156a.278.278 0 0 1-.162.042 1.01 1.01 0 0 1-.246-.042 1.646 1.646 0 0 0-.414-.042c-.308 0-.572.086-.792.258-.22.168-.406.416-.558.744v3.834h-1.482ZM27.347 6.237h1.356a.57.57 0 0 1 .348.102c.096.064.16.152.192.264l1.476 5.19c.036.128.068.268.096.42.032.148.062.306.09.474a5.968 5.968 0 0 1 .228-.894l1.704-5.19a.575.575 0 0 1 .186-.252.543.543 0 0 1 .348-.114h.474a.57.57 0 0 1 .348.102.497.497 0 0 1 .192.264l1.692 5.19c.088.256.164.54.228.852.028-.156.056-.306.084-.45.032-.144.064-.278.096-.402l1.476-5.19c.028-.1.09-.186.186-.258a.563.563 0 0 1 .348-.108h1.266l-2.694 8.676h-1.458l-1.896-5.928-.078-.246a9.504 9.504 0 0 1-.072-.282c-.024.1-.05.194-.078.282-.024.088-.048.17-.072.246l-1.914 5.928H30.04l-2.694-8.676ZM42.771 8.661c.46 0 .876.074 1.248.222.376.148.696.358.96.63s.468.604.612.996c.144.392.216.83.216 1.314 0 .488-.072.928-.216 1.32a2.85 2.85 0 0 1-.612 1.002 2.653 2.653 0 0 1-.96.636 3.35 3.35 0 0 1-1.248.222c-.46 0-.878-.074-1.254-.222a2.712 2.712 0 0 1-.966-.636 2.922 2.922 0 0 1-.618-1.002 3.807 3.807 0 0 1-.216-1.32c0-.484.072-.922.216-1.314.148-.392.354-.724.618-.996.268-.272.59-.482.966-.63a3.397 3.397 0 0 1 1.254-.222Zm0 5.202c.512 0 .89-.172 1.134-.516.248-.344.372-.848.372-1.512s-.124-1.17-.372-1.518c-.244-.348-.622-.522-1.134-.522-.52 0-.904.176-1.152.528-.248.348-.372.852-.372 1.512s.124 1.164.372 1.512c.248.344.632.516 1.152.516ZM46.723 14.913V8.757h.87c.152 0 .258.028.318.084.06.056.1.152.12.288l.09.744c.22-.38.478-.68.774-.9.296-.22.628-.33.996-.33.304 0 .556.07.756.21l-.192 1.11c-.012.072-.038.124-.078.156a.278.278 0 0 1-.162.042 1.01 1.01 0 0 1-.246-.042 1.646 1.646 0 0 0-.414-.042c-.308 0-.572.086-.792.258-.22.168-.406.416-.558.744v3.834h-1.482ZM52.96 5.997v8.916h-1.482V5.997h1.482ZM58.732 14.913c-.192 0-.318-.09-.378-.27l-.12-.594a3.68 3.68 0 0 1-.402.39c-.14.116-.292.216-.456.3-.16.084-.334.148-.522.192a2.372 2.372 0 0 1-.6.072c-.336 0-.644-.07-.924-.21a2.098 2.098 0 0 1-.726-.606 3.033 3.033 0 0 1-.468-.99 5.072 5.072 0 0 1-.162-1.344c0-.456.062-.88.186-1.272s.302-.732.534-1.02c.232-.288.51-.512.834-.672a2.384 2.384 0 0 1 1.092-.246 2.103 2.103 0 0 1 1.536.606V5.997h1.482v8.916h-.906Zm-1.974-1.086c.308 0 .57-.064.786-.192.216-.128.42-.31.612-.546v-2.76a1.452 1.452 0 0 0-.552-.432 1.597 1.597 0 0 0-.636-.126c-.224 0-.428.042-.612.126a1.21 1.21 0 0 0-.462.384c-.124.168-.22.384-.288.648-.068.26-.102.568-.102.924 0 .36.028.666.084.918.06.248.144.452.252.612.108.156.24.27.396.342.156.068.33.102.522.102ZM16.331 20.757v6.156H14.85v-6.156h1.481Zm.223-1.794a.844.844 0 0 1-.078.36.963.963 0 0 1-.21.294.995.995 0 0 1-.3.204.963.963 0 0 1-.372.072.948.948 0 0 1-.367-.072 1.018 1.018 0 0 1-.498-.498.963.963 0 0 1 0-.732.995.995 0 0 1 .205-.3.929.929 0 0 1 .293-.198.899.899 0 0 1 .738 0 .912.912 0 0 1 .3.198.943.943 0 0 1 .288.672ZM17.771 26.913v-6.156h.906c.192 0 .318.09.378.27l.102.486a2.934 2.934 0 0 1 .828-.618c.156-.076.322-.134.498-.174.176-.04.368-.06.576-.06.336 0 .634.058.894.174.26.112.476.272.648.48.176.204.308.45.396.738.092.284.138.598.138.942v3.918h-1.482v-3.918c0-.376-.088-.666-.264-.87-.172-.208-.432-.312-.78-.312-.256 0-.496.058-.72.174a2.58 2.58 0 0 0-.636.474v4.452h-1.482ZM34.22 22.575c0 .636-.106 1.22-.318 1.752-.212.532-.51.99-.894 1.374a4 4 0 0 1-1.386.894 4.87 4.87 0 0 1-1.794.318h-3.312v-8.676h3.312a4.79 4.79 0 0 1 1.794.324 4 4 0 0 1 1.386.894c.384.38.682.836.894 1.368.212.532.318 1.116.318 1.752Zm-1.65 0c0-.476-.064-.902-.192-1.278a2.68 2.68 0 0 0-.546-.96 2.332 2.332 0 0 0-.864-.606 2.94 2.94 0 0 0-1.14-.21h-1.686v6.108h1.686c.424 0 .804-.07 1.14-.21.34-.14.628-.34.864-.6a2.75 2.75 0 0 0 .546-.96 4.01 4.01 0 0 0 .192-1.284ZM39.98 26.913h-.665c-.14 0-.25-.02-.33-.06-.08-.044-.14-.13-.18-.258l-.132-.438c-.156.14-.31.264-.462.372a2.804 2.804 0 0 1-.462.264c-.16.072-.33.126-.51.162-.18.036-.38.054-.6.054-.26 0-.5-.034-.72-.102a1.618 1.618 0 0 1-.57-.318 1.448 1.448 0 0 1-.366-.522 1.852 1.852 0 0 1-.132-.726c0-.232.06-.46.18-.684.124-.228.328-.432.612-.612.284-.184.662-.336 1.134-.456.472-.12 1.058-.188 1.758-.204v-.36c0-.412-.088-.716-.264-.912-.172-.2-.424-.3-.756-.3a1.837 1.837 0 0 0-1.02.276c-.116.068-.224.13-.324.186a.664.664 0 0 1-.33.084.429.429 0 0 1-.258-.078.614.614 0 0 1-.174-.192l-.27-.474c.708-.648 1.562-.972 2.562-.972.36 0 .68.06.96.18.284.116.524.28.72.492.196.208.344.458.444.75.104.292.156.612.156.96v3.888Zm-2.88-.924c.153 0 .293-.014.42-.042.129-.028.249-.07.36-.126.117-.056.227-.124.33-.204.109-.084.217-.182.325-.294v-1.038c-.432.02-.794.058-1.086.114-.288.052-.52.12-.696.204a.923.923 0 0 0-.378.294.664.664 0 0 0-.108.366c0 .26.076.446.228.558.156.112.358.168.606.168ZM43.22 27.01c-.532 0-.942-.15-1.23-.45-.288-.305-.432-.723-.432-1.255v-3.438h-.624a.31.31 0 0 1-.21-.078c-.056-.052-.084-.13-.084-.234v-.588l.99-.162.312-1.68a.302.302 0 0 1 .108-.186.365.365 0 0 1 .222-.066h.768v1.938h1.62v1.056h-1.62v3.336c0 .192.048.342.144.45a.488.488 0 0 0 .384.162c.092 0 .168-.01.228-.03.064-.024.118-.048.162-.072.048-.024.09-.046.126-.066a.194.194 0 0 1 .108-.036.16.16 0 0 1 .108.036c.028.02.058.052.09.096l.444.72c-.216.18-.464.316-.744.408a2.77 2.77 0 0 1-.87.138ZM50.423 26.913h-.666c-.14 0-.25-.02-.33-.06-.08-.044-.14-.13-.18-.258l-.132-.438c-.156.14-.31.264-.462.372a2.804 2.804 0 0 1-.462.264c-.16.072-.33.126-.51.162-.18.036-.38.054-.6.054-.26 0-.5-.034-.72-.102a1.618 1.618 0 0 1-.57-.318 1.448 1.448 0 0 1-.366-.522 1.852 1.852 0 0 1-.132-.726c0-.232.06-.46.18-.684.124-.228.328-.432.612-.612.284-.184.662-.336 1.134-.456.472-.12 1.058-.188 1.758-.204v-.36c0-.412-.088-.716-.264-.912-.172-.2-.424-.3-.756-.3a1.837 1.837 0 0 0-1.02.276c-.116.068-.224.13-.324.186a.664.664 0 0 1-.33.084.429.429 0 0 1-.258-.078.614.614 0 0 1-.174-.192l-.27-.474c.708-.648 1.562-.972 2.562-.972.36 0 .68.06.96.18.284.116.524.28.72.492.196.208.344.458.444.75.104.292.156.612.156.96v3.888Zm-2.88-.924c.152 0 .292-.014.42-.042.128-.028.248-.07.36-.126.116-.056.226-.124.33-.204.108-.084.216-.182.324-.294v-1.038c-.432.02-.794.058-1.086.114-.288.052-.52.12-.696.204a.923.923 0 0 0-.378.294.664.664 0 0 0-.108.366c0 .26.076.446.228.558.156.112.358.168.606.168Z"/></svg></g><a id="title" href="https://ourworldindata.org/grapher/share-of-primary-energy-consumption-by-source" style="font-family:&#x27;Playfair Display&#x27;, Georgia, &#x27;Times New Roman&#x27;, &#x27;Liberation Serif&#x27;, serif" target="_blank" rel="noopener"><text font-size="24.25" font-weight="600" x="16.0" y="39.5" fill="#5b5b5b"><tspan x="16" y="39.5225">Share of direct primary energy consumption by source, World</tspan></text></a><g id="subtitle" class="markdown-text-wrap"><text x="16.0" y="63.3" style="font-size:14.625px;line-height:1.2" fill="#5b5b5b"><tspan x="16" y="63.3">Measured as a percentage of direct <tspan class="dod-span" data-id="primaryenergy">primary energy</tspan>. This means that fossil fuels include the energy lost due to</tspan><tspan x="16" y="80.8">inefficiencies in energy production.</tspan></text></g></g><g id="chart-area" style="pointer-events:none"><g id="line-chart" class="LineChart"><defs><clipPath id="boundsClip-1"><rect x="38.135000000000005" y="90.2" width="838" height="453.40000000000003"></rect></clipPath></defs><rect x="16" y="100.2" width="818" height="433.40000000000003" fill="none"></rect><g id="dual-axis" class="DualAxisView"><g id="horizontal-axis" class="HorizontalAxis"><g id="tick__1965"><line x1="48.1" y1="512.6" x2="48.1" y2="518.1" stroke="#999" stroke-width="1"></line><text x="48.135000000000005" y="531.6" fill="#5b5b5b" text-anchor="start" font-size="13.5">1965</text></g><g id="tick__2022"><line x1="692.1" y1="512.6" x2="692.1" y2="518.1" stroke="#999" stroke-width="1"></line><text x="692.0799999999999" y="531.6" fill="#5b5b5b" text-anchor="end" font-size="13.5">2022</text></g><g id="tick__1970"><line x1="104.6" y1="512.6" x2="104.6" y2="518.1" stroke="#999" stroke-width="1"></line><text x="104.6" y="531.6" fill="#5b5b5b" text-anchor="middle" font-size="13.5">1970</text></g><g id="tick__1980"><line x1="217.6" y1="512.6" x2="217.6" y2="518.1" stroke="#999" stroke-width="1"></line><text x="217.6" y="531.6" fill="#5b5b5b" text-anchor="middle" font-size="13.5">1980</text></g><g id="tick__1990"><line x1="330.6" y1="512.6" x2="330.6" y2="518.1" stroke="#999" stroke-width="1"></line><text x="330.6" y="531.6" fill="#5b5b5b" text-anchor="middle" font-size="13.5">1990</text></g><g id="tick__2000"><line x1="443.5" y1="512.6" x2="443.5" y2="518.1" stroke="#999" stroke-width="1"></line><text x="443.5" y="531.6" fill="#5b5b5b" text-anchor="middle" font-size="13.5">2000</text></g><g id="tick__2010"><line x1="556.5" y1="512.6" x2="556.5" y2="518.1" stroke="#999" stroke-width="1"></line><text x="556.5" y="531.6" fill="#5b5b5b" text-anchor="middle" font-size="13.5">2010</text></g></g><g id="vertical-axis" class="VerticalAxis"><g id="tick-labels"><text id="tick-label__0__0025" x="43.14" y="513.1" dy=".32em" text-anchor="end" fill="#5b5b5b" font-size="13.5">0%</text><text id="tick-label__10__0025" x="43.14" y="434.2" dy=".32em" text-anchor="end" fill="#5b5b5b" font-size="13.5">10%</text><text id="tick-label__20__0025" x="43.14" y="355.2" dy=".32em" text-anchor="end" fill="#5b5b5b" font-size="13.5">20%</text><text id="tick-label__30__0025" x="43.14" y="276.3" dy=".32em" text-anchor="end" fill="#5b5b5b" font-size="13.5">30%</text><text id="tick-label__40__0025" x="43.14" y="197.4" dy=".32em" text-anchor="end" fill="#5b5b5b" font-size="13.5">40%</text><text id="tick-label__50__0025" x="43.14" y="118.5" dy=".32em" text-anchor="end" fill="#5b5b5b" font-size="13.5">50%</text></g></g><g id="horizontal-grid-lines" class="AxisGridLines horizontalLines"><line id="grid-line__0" x1="48.14" y1="513.1" x2="692.08" y2="513.1" stroke="#999" stroke-width="1"></line><line id="grid-line__10" x1="48.14" y1="434.2" x2="692.08" y2="434.2" stroke="#ddd" stroke-width="1" stroke-dasharray="3,2"></line><line id="grid-line__20" x1="48.14" y1="355.2" x2="692.08" y2="355.2" stroke="#ddd" stroke-width="1" stroke-dasharray="3,2"></line><line id="grid-line__30" x1="48.14" y1="276.3" x2="692.08" y2="276.3" stroke="#ddd" stroke-width="1" stroke-dasharray="3,2"></line><line id="grid-line__40" x1="48.14" y1="197.4" x2="692.08" y2="197.4" stroke="#ddd" stroke-width="1" stroke-dasharray="3,2"></line><line id="grid-line__50" x1="48.14" y1="118.5" x2="692.08" y2="118.5" stroke="#ddd" stroke-width="1" stroke-dasharray="3,2"></line></g></g><g clip-path="url(#boundsClip-1)"><g id="line-labels" class="LineLabels"><g id="mark__Oil" class="legendMark" style="cursor:default"><g id="connector" class="indicator"><path d="M696.0799999999999,233.7 H709.5799999999999 V233.7 H723.0799999999999" stroke="#999" stroke-width="0.5" fill="none"></path></g><rect id="background" x="692.0799999999999" y="226.95" width="51.47" height="13.5" fill="#fff" opacity="0"></rect><text id="label" font-size="13.50" font-weight="400" x="727.1" y="238.7" fill="#c15065"><tspan x="727.0799999999999" y="238.695">Oil</tspan></text></g><g id="mark__Coal" class="legendMark" style="cursor:default"><g id="connector" class="indicator"><path d="M696.0799999999999,276.5 H709.5799999999999 V276.5 H723.0799999999999" stroke="#999" stroke-width="0.5" fill="none"></path></g><rect id="background" x="692.0799999999999" y="269.75" width="62.81" height="13.5" fill="#fff" opacity="0"></rect><text id="label" font-size="13.50" font-weight="400" x="727.1" y="281.5" fill="#883039"><tspan x="727.0799999999999" y="281.495">Coal</tspan></text></g><g id="mark__Gas" class="legendMark" style="cursor:default"><g id="connector" class="indicator"><path d="M696.0799999999999,305.2 H709.5799999999999 V305.2 H723.0799999999999" stroke="#999" stroke-width="0.5" fill="none"></path></g><rect id="background" x="692.0799999999999" y="298.45" width="59.84" height="13.5" fill="#fff" opacity="0"></rect><text id="label" font-size="13.50" font-weight="400" x="727.1" y="310.2" fill="#6d3e91"><tspan x="727.0799999999999" y="310.195">Gas</tspan></text></g><g id="mark__Hydropower" class="legendMark" style="cursor:default"><g id="connector" class="indicator"><path d="M696.0799999999999,490.2 H701.4799999999999 V449.3500000000001 H723.0799999999999" stroke="#999" stroke-width="0.5" fill="none"></path></g><rect id="background" x="692.0799999999999" y="442.6000000000001" width="107.9" height="13.5" fill="#fff" opacity="0"></rect><text id="label" font-size="13.50" font-weight="400" x="727.1" y="454.3" fill="#286bbb"><tspan x="727.0799999999999" y="454.3450000000001">Hydropower</tspan></text></g><g id="mark__Nuclear" class="legendMark" style="cursor:default"><g id="connector" class="indicator"><path d="M696.0799999999999,499 H706.8799999999999 V464.8500000000001 H723.0799999999999" stroke="#999" stroke-width="0.5" fill="none"></path></g><rect id="background" x="692.0799999999999" y="458.1000000000001" width="81.575" height="13.5" fill="#fff" opacity="0"></rect><text id="label" font-size="13.50" font-weight="400" x="727.1" y="469.8" fill="#00847e"><tspan x="727.0799999999999" y="469.8450000000001">Nuclear</tspan></text></g><g id="mark__Wind" class="legendMark" style="cursor:default"><g id="connector" class="indicator"><path d="M696.0799999999999,502 H712.2799999999999 V480.3500000000001 H723.0799999999999" stroke="#999" stroke-width="0.5" fill="none"></path></g><rect id="background" x="692.0799999999999" y="473.6000000000001" width="65.78" height="13.5" fill="#fff" opacity="0"></rect><text id="label" font-size="13.50" font-weight="400" x="727.1" y="485.3" fill="#00295b"><tspan x="727.0799999999999" y="485.3450000000001">Wind</tspan></text></g><g id="mark__Solar" class="legendMark" style="cursor:default"><g id="connector" class="indicator"><path d="M696.0799999999999,506.1 H717.68 V495.8500000000001 H723.0799999999999" stroke="#999" stroke-width="0.5" fill="none"></path></g><rect id="background" x="692.0799999999999" y="489.1000000000001" width="66.59" height="13.5" fill="#fff" opacity="0"></rect><text id="label" font-size="13.50" font-weight="400" x="727.1" y="500.8" fill="#c4523e"><tspan x="727.0799999999999" y="500.8450000000001">Solar</tspan></text></g><g id="mark__Biofuels" class="legendMark" style="cursor:default"><g id="connector" class="indicator"><path d="M696.0799999999999,506.8 H717.68 V511.3500000000001 H723.0799999999999" stroke="#999" stroke-width="0.5" fill="none"></path></g><rect id="background" x="692.0799999999999" y="504.6000000000001" width="83.195" height="13.5" fill="#fff" opacity="0"></rect><text id="label" font-size="13.50" font-weight="400" x="727.1" y="516.3" fill="#9a5129"><tspan x="727.0799999999999" y="516.345">Biofuels</tspan></text></g><g id="mark__Other-renewables" class="legendMark" style="cursor:default"><g id="connector" class="indicator"><path d="M696.0799999999999,509 H712.2799999999999 V526.8500000000001 H723.0799999999999" stroke="#999" stroke-width="0.5" fill="none"></path></g><rect id="background" x="692.0799999999999" y="520.1000000000001" width="141.92000000000002" height="13.5" fill="#fff" opacity="0"></rect><text id="label" font-size="13.50" font-weight="400" x="727.1" y="531.8" fill="#578145"><tspan x="727.0799999999999" y="531.8450000000001">Other renewables</tspan></text></g></g><g id="lines" class="Lines"><rect x="48" y="106" width="644" height="407" fill="rgba(255,255,255,0)" opacity="0"></rect><g id="line__Biofuels"><path stroke-linecap="round" stroke-linejoin="round" stroke="#ddd" d="M48.1 512.9L59.4 512.9L70.7 512.9L82 512.9L93.3 513L104.6 512.9L115.9 512.9L127.2 512.9L138.5 512.9L149.8 512.9L161.1 512.9L172.4 512.9L183.7 512.9L195 512.8L206.3 512.8L217.6 512.7L228.9 512.8L240.2 512.7L251.5 512.6L262.8 512.5L274.1 512.4L285.4 512.3L296.7 512.3L308 512.3L319.3 512.2L330.6 512.1L341.9 512.1L353.2 512.1L364.5 512.1L375.8 512L387.1 512L398.4 512L409.6 512L420.9 512L432.2 512L443.5 512.1L454.8 512.1L466.1 511.9L477.4 511.8L488.7 511.6L500 511.4L511.3 511.1L522.6 510.6L533.9 509.7L545.2 509.2L556.5 508.8L567.8 508.7L579.1 508.6L590.4 508.3L601.7 508.1L613 507.9L624.3 507.7L635.6 507.7L646.9 507.4L658.2 507.1L669.5 507.1L680.8 507L692.1 506.8" fill="none" stroke-width="1"></path></g><g id="line__Oil"><path stroke-linecap="round" stroke-linejoin="round" stroke="#ddd" d="M48.1 170.1L59.4 162.7L70.7 151.3L82 143L93.3 137.6L104.6 128.9L115.9 122.7L127.2 114.2L138.5 106.2L149.8 112L161.1 117.2L172.4 113.7L183.7 113.5L195 110.2L206.3 117.3L217.6 129.8L228.9 140.1L240.2 148.4L251.5 155.5L262.8 162.9L274.1 170.4L285.4 167L296.7 171.7L308 172.8L319.3 174L330.6 173.1L341.9 174.7L353.2 172.2L364.5 175.3L375.8 172.3L387.1 173.2L398.4 175.5L409.6 169.7L420.9 169.8L432.2 169.6L443.5 173.8L454.8 174.6L466.1 179.7L477.4 185.6L488.7 188.8L500 196.3L511.3 201.8L522.6 208.4L533.9 213.9L545.2 215.3L556.5 220L567.8 225L579.1 224.4L590.4 226L601.7 226.4L613 222.5L624.3 219.4L635.6 220L646.9 224.3L658.2 225.9L669.5 240.5L680.8 240.1L692.1 233.7" fill="none" stroke-width="1"></path></g><g id="line__Coal"><path stroke-linecap="round" stroke-linejoin="round" stroke="#ddd" d="M48.1 205.5L59.4 217.5L70.7 233L82 245L93.3 254.2L104.6 266L115.9 276.8L127.2 286L138.5 292.3L149.8 292.3L161.1 288.3L172.4 292.1L183.7 293.2L195 298.6L206.3 296L217.6 288L228.9 282.9L240.2 278.3L251.5 273.9L262.8 274L274.1 268.9L285.4 271.2L296.7 270L308 271.4L319.3 273.9L330.6 279.3L341.9 282.5L353.2 284.7L364.5 284.5L375.8 286.5L387.1 289.4L398.4 290.6L409.6 293.2L420.9 295.8L432.2 298.5L443.5 296.5L454.8 295.7L466.1 292L477.4 282L488.7 277.6L500 268.6L511.3 263L522.6 257.4L533.9 256.5L545.2 256L556.5 256.8L567.8 251.3L579.1 254.3L590.4 254.5L601.7 255.6L613 264.1L624.3 271.8L635.6 274L646.9 276.3L658.2 279.4L669.5 276.2L680.8 276.2L692.1 276.5" fill="none" stroke-width="1"></path></g><g id="line__Solar"><path stroke-linecap="round" stroke-linejoin="round" stroke="#ddd" d="M48.1 513.1L59.4 513.1L70.7 513.1L82 513.1L93.3 513.1L104.6 513.1L115.9 513.1L127.2 513.1L138.5 513.1L149.8 513.1L161.1 513.1L172.4 513.1L183.7 513.1L195 513.1L206.3 513.1L217.6 513.1L228.9 513.1L240.2 513.1L251.5 513.1L262.8 513.1L274.1 513.1L285.4 513.1L296.7 513.1L308 513.1L319.3 513.1L330.6 513.1L341.9 513.1L353.2 513.1L364.5 513.1L375.8 513.1L387.1 513.1L398.4 513.1L409.6 513.1L420.9 513.1L432.2 513.1L443.5 513.1L454.8 513.1L466.1 513.1L477.4 513.1L488.7 513.1L500 513.1L511.3 513.1L522.6 513.1L533.9 513L545.2 513L556.5 512.9L567.8 512.7L579.1 512.5L590.4 512.3L601.7 512L613 511.6L624.3 511.2L635.6 510.6L646.9 510L658.2 509.3L669.5 508.3L680.8 507.5L692.1 506.1" fill="none" stroke-width="1"></path></g><g id="line__Nuclear"><path stroke-linecap="round" stroke-linejoin="round" stroke="#ddd" d="M48.1 512.6L59.4 512.5L70.7 512.4L82 512.2L93.3 512.1L104.6 512L115.9 511.6L127.2 511.1L138.5 510.6L149.8 509.8L161.1 508.5L172.4 508L183.7 506.9L195 506.2L206.3 506.2L217.6 505.4L228.9 503.9L240.2 503.1L251.5 501.9L262.8 500.1L274.1 497.9L285.4 497.2L296.7 496.4L308 495.5L319.3 495.4L330.6 495L341.9 494.3L353.2 494.2L364.5 493.7L375.8 493.5L387.1 493.1L398.4 493L409.6 493.3L420.9 493.1L432.2 492.6L443.5 492.7L454.8 492.4L466.1 492.5L477.4 493.7L488.7 493.8L500 494.4L511.3 494.7L522.6 495.6L533.9 495.9L545.2 495.8L556.5 496.2L567.8 497.3L579.1 498.6L590.4 498.7L601.7 498.5L613 498.4L624.3 498.3L635.6 498.5L646.9 498.5L658.2 498.1L669.5 498L680.8 498.2L692.1 499" fill="none" stroke-width="1"></path></g><g id="line__Other-renewables"><path stroke-linecap="round" stroke-linejoin="round" stroke="#ddd" d="M48.1 512.8L59.4 512.7L70.7 512.8L82 512.7L93.3 512.7L104.6 512.7L115.9 512.7L127.2 512.7L138.5 512.7L149.8 512.7L161.1 512.7L172.4 512.6L183.7 512.6L195 512.6L206.3 512.6L217.6 512.6L228.9 512.5L240.2 512.4L251.5 512.4L262.8 512.3L274.1 512.3L285.4 512.2L296.7 512.2L308 512.2L319.3 512.1L330.6 512L341.9 512L353.2 511.9L364.5 511.9L375.8 511.9L387.1 511.8L398.4 511.8L409.6 511.8L420.9 511.7L432.2 511.7L443.5 511.6L454.8 511.6L466.1 511.5L477.4 511.5L488.7 511.4L500 511.4L511.3 511.3L522.6 511.2L533.9 511.1L545.2 510.9L556.5 510.8L567.8 510.7L579.1 510.6L590.4 510.4L601.7 510.2L613 510L624.3 510L635.6 509.8L646.9 509.7L658.2 509.5L669.5 509.2L680.8 509.1L692.1 509" fill="none" stroke-width="1"></path></g><g id="line__Hydropower"><path stroke-linecap="round" stroke-linejoin="round" stroke="#ddd" d="M48.1 495.5L59.4 495.3L70.7 495.6L82 495.7L93.3 495.8L104.6 496.1L115.9 496L127.2 496.1L138.5 496.8L149.8 495.2L161.1 495L172.4 496L183.7 496L195 495.3L206.3 495L217.6 494.4L228.9 493.8L240.2 493.3L251.5 492.7L262.8 492.9L274.1 493L285.4 493.1L296.7 493.5L308 493.6L319.3 494.1L330.6 493.6L341.9 493.3L353.2 493.4L364.5 492.3L375.8 492.4L387.1 491.7L398.4 492L409.6 491.9L420.9 491.8L432.2 492L443.5 492.2L454.8 493L466.1 493.1L477.4 493.9L488.7 493.4L500 493.4L511.3 493.2L522.6 493.6L533.9 492.6L545.2 492.3L556.5 492.1L567.8 492.3L579.1 491.7L590.4 491.2L601.7 490.8L613 491L624.3 490.4L635.6 490.5L646.9 490.4L658.2 490.3L669.5 488.7L680.8 490.3L692.1 490.2" fill="none" stroke-width="1"></path></g><g id="line__Wind"><path stroke-linecap="round" stroke-linejoin="round" stroke="#ddd" d="M48.1 513.1L59.4 513.1L70.7 513.1L82 513.1L93.3 513.1L104.6 513.1L115.9 513.1L127.2 513.1L138.5 513.1L149.8 513.1L161.1 513.1L172.4 513.1L183.7 513.1L195 513.1L206.3 513.1L217.6 513.1L228.9 513.1L240.2 513.1L251.5 513.1L262.8 513.1L274.1 513.1L285.4 513.1L296.7 513.1L308 513.1L319.3 513.1L330.6 513.1L341.9 513.1L353.2 513.1L364.5 513L375.8 513L387.1 513L398.4 513L409.6 513L420.9 513L432.2 512.9L443.5 512.9L454.8 512.8L466.1 512.7L477.4 512.6L488.7 512.5L500 512.4L511.3 512.2L522.6 512L533.9 511.7L545.2 511.3L556.5 511L567.8 510.5L579.1 510L590.4 509.4L601.7 509L613 508.4L624.3 507.7L635.6 506.8L646.9 506.2L658.2 505.5L669.5 504.2L680.8 503.2L692.1 502" fill="none" stroke-width="1"></path></g><g id="line__Gas"><path stroke-linecap="round" stroke-linejoin="round" stroke="#ddd" d="M48.1 393L59.4 388.7L70.7 384.5L82 380.8L93.3 377L104.6 373.8L115.9 369.7L127.2 369.4L138.5 370.9L149.8 367.5L161.1 367.7L172.4 367L183.7 367.2L195 366.6L206.3 362.6L217.6 359.5L228.9 356.4L240.2 354.2L251.5 353.5L262.8 347.8L274.1 347.5L285.4 349.4L296.7 346.4L308 344.7L319.3 340.8L330.6 337.3L341.9 333.6L353.2 333.8L364.5 332.8L375.8 333.9L387.1 331.3L398.4 327.6L409.6 330.6L420.9 328.3L432.2 326.1L443.5 323.7L454.8 323.4L466.1 322.1L477.4 324.4L488.7 326.3L500 327.7L511.3 328.1L522.6 326.8L533.9 324.1L545.2 324.8L556.5 320L567.8 320.2L579.1 317.9L590.4 317.8L601.7 318L613 314.7L624.3 312L635.6 310.6L646.9 305.7L658.2 303.5L669.5 296.6L680.8 296.9L692.1 305.2" fill="none" stroke-width="1"></path></g><g id="line__Biofuels"><path id="outline" fill="none" stroke-linecap="butt" stroke-linejoin="round" stroke="#fff" stroke-width="2.5" d="M48.1 512.9L59.4 512.9L70.7 512.9L82 512.9L93.3 513L104.6 512.9L115.9 512.9L127.2 512.9L138.5 512.9L149.8 512.9L161.1 512.9L172.4 512.9L183.7 512.9L195 512.8L206.3 512.8L217.6 512.7L228.9 512.8L240.2 512.7L251.5 512.6L262.8 512.5L274.1 512.4L285.4 512.3L296.7 512.3L308 512.3L319.3 512.2L330.6 512.1L341.9 512.1L353.2 512.1L364.5 512.1L375.8 512L387.1 512L398.4 512L409.6 512L420.9 512L432.2 512L443.5 512.1L454.8 512.1L466.1 511.9L477.4 511.8L488.7 511.6L500 511.4L511.3 511.1L522.6 510.6L533.9 509.7L545.2 509.2L556.5 508.8L567.8 508.7L579.1 508.6L590.4 508.3L601.7 508.1L613 507.9L624.3 507.7L635.6 507.7L646.9 507.4L658.2 507.1L669.5 507.1L680.8 507L692.1 506.8"></path><g id="polyline"><polyline id="polyline" points="48.10,512.90 59.40,512.90 70.70,512.90 82.00,512.90 93.30,513.00 104.60,512.90 115.90,512.90 127.20,512.90 138.50,512.90 149.80,512.90 161.10,512.90 172.40,512.90 183.70,512.90 195.00,512.80 206.30,512.80 217.60,512.70 228.90,512.80 240.20,512.70 251.50,512.60 262.80,512.50 274.10,512.40 285.40,512.30 296.70,512.30 308.00,512.30 319.30,512.20 330.60,512.10 341.90,512.10 353.20,512.10 364.50,512.10 375.80,512.00 387.10,512.00 398.40,512.00 409.60,512.00 420.90,512.00 432.20,512.00 443.50,512.10 454.80,512.10 466.10,511.90 477.40,511.80 488.70,511.60 500.00,511.40 511.30,511.10 522.60,510.60 533.90,509.70 545.20,509.20 556.50,508.80 567.80,508.70 579.10,508.60 590.40,508.30 601.70,508.10 613.00,507.90 624.30,507.70 635.60,507.70 646.90,507.40 658.20,507.10 669.50,507.10 680.80,507.00 692.10,506.80" stroke-linejoin="round" stroke-width="1.5" stroke="#9a5129" fill="none" stroke-linecap="butt"></polyline></g></g><g id="line__Oil"><path id="outline" fill="none" stroke-linecap="butt" stroke-linejoin="round" stroke="#fff" stroke-width="2.5" d="M48.1 170.1L59.4 162.7L70.7 151.3L82 143L93.3 137.6L104.6 128.9L115.9 122.7L127.2 114.2L138.5 106.2L149.8 112L161.1 117.2L172.4 113.7L183.7 113.5L195 110.2L206.3 117.3L217.6 129.8L228.9 140.1L240.2 148.4L251.5 155.5L262.8 162.9L274.1 170.4L285.4 167L296.7 171.7L308 172.8L319.3 174L330.6 173.1L341.9 174.7L353.2 172.2L364.5 175.3L375.8 172.3L387.1 173.2L398.4 175.5L409.6 169.7L420.9 169.8L432.2 169.6L443.5 173.8L454.8 174.6L466.1 179.7L477.4 185.6L488.7 188.8L500 196.3L511.3 201.8L522.6 208.4L533.9 213.9L545.2 215.3L556.5 220L567.8 225L579.1 224.4L590.4 226L601.7 226.4L613 222.5L624.3 219.4L635.6 220L646.9 224.3L658.2 225.9L669.5 240.5L680.8 240.1L692.1 233.7"></path><g id="polyline"><polyline id="polyline" points="48.10,170.10 59.40,162.70 70.70,151.30 82.00,143.00 93.30,137.60 104.60,128.90 115.90,122.70 127.20,114.20 138.50,106.20 149.80,112.00 161.10,117.20 172.40,113.70 183.70,113.50 195.00,110.20 206.30,117.30 217.60,129.80 228.90,140.10 240.20,148.40 251.50,155.50 262.80,162.90 274.10,170.40 285.40,167.00 296.70,171.70 308.00,172.80 319.30,174.00 330.60,173.10 341.90,174.70 353.20,172.20 364.50,175.30 375.80,172.30 387.10,173.20 398.40,175.50 409.60,169.70 420.90,169.80 432.20,169.60 443.50,173.80 454.80,174.60 466.10,179.70 477.40,185.60 488.70,188.80 500.00,196.30 511.30,201.80 522.60,208.40 533.90,213.90 545.20,215.30 556.50,220.00 567.80,225.00 579.10,224.40 590.40,226.00 601.70,226.40 613.00,222.50 624.30,219.40 635.60,220.00 646.90,224.30 658.20,225.90 669.50,240.50 680.80,240.10 692.10,233.70" stroke-linejoin="round" stroke-width="1.5" stroke="#c15065" fill="none" stroke-linecap="butt"></polyline></g></g><g id="line__Coal"><path id="outline" fill="none" stroke-linecap="butt" stroke-linejoin="round" stroke="#fff" stroke-width="2.5" d="M48.1 205.5L59.4 217.5L70.7 233L82 245L93.3 254.2L104.6 266L115.9 276.8L127.2 286L138.5 292.3L149.8 292.3L161.1 288.3L172.4 292.1L183.7 293.2L195 298.6L206.3 296L217.6 288L228.9 282.9L240.2 278.3L251.5 273.9L262.8 274L274.1 268.9L285.4 271.2L296.7 270L308 271.4L319.3 273.9L330.6 279.3L341.9 282.5L353.2 284.7L364.5 284.5L375.8 286.5L387.1 289.4L398.4 290.6L409.6 293.2L420.9 295.8L432.2 298.5L443.5 296.5L454.8 295.7L466.1 292L477.4 282L488.7 277.6L500 268.6L511.3 263L522.6 257.4L533.9 256.5L545.2 256L556.5 256.8L567.8 251.3L579.1 254.3L590.4 254.5L601.7 255.6L613 264.1L624.3 271.8L635.6 274L646.9 276.3L658.2 279.4L669.5 276.2L680.8 276.2L692.1 276.5"></path><g id="polyline"><polyline id="polyline" points="48.10,205.50 59.40,217.50 70.70,233.00 82.00,245.00 93.30,254.20 104.60,266.00 115.90,276.80 127.20,286.00 138.50,292.30 149.80,292.30 161.10,288.30 172.40,292.10 183.70,293.20 195.00,298.60 206.30,296.00 217.60,288.00 228.90,282.90 240.20,278.30 251.50,273.90 262.80,274.00 274.10,268.90 285.40,271.20 296.70,270.00 308.00,271.40 319.30,273.90 330.60,279.30 341.90,282.50 353.20,284.70 364.50,284.50 375.80,286.50 387.10,289.40 398.40,290.60 409.60,293.20 420.90,295.80 432.20,298.50 443.50,296.50 454.80,295.70 466.10,292.00 477.40,282.00 488.70,277.60 500.00,268.60 511.30,263.00 522.60,257.40 533.90,256.50 545.20,256.00 556.50,256.80 567.80,251.30 579.10,254.30 590.40,254.50 601.70,255.60 613.00,264.10 624.30,271.80 635.60,274.00 646.90,276.30 658.20,279.40 669.50,276.20 680.80,276.20 692.10,276.50" stroke-linejoin="round" stroke-width="1.5" stroke="#883039" fill="none" stroke-linecap="butt"></polyline></g></g><g id="line__Solar"><path id="outline" fill="none" stroke-linecap="butt" stroke-linejoin="round" stroke="#fff" stroke-width="2.5" d="M48.1 513.1L59.4 513.1L70.7 513.1L82 513.1L93.3 513.1L104.6 513.1L115.9 513.1L127.2 513.1L138.5 513.1L149.8 513.1L161.1 513.1L172.4 513.1L183.7 513.1L195 513.1L206.3 513.1L217.6 513.1L228.9 513.1L240.2 513.1L251.5 513.1L262.8 513.1L274.1 513.1L285.4 513.1L296.7 513.1L308 513.1L319.3 513.1L330.6 513.1L341.9 513.1L353.2 513.1L364.5 513.1L375.8 513.1L387.1 513.1L398.4 513.1L409.6 513.1L420.9 513.1L432.2 513.1L443.5 513.1L454.8 513.1L466.1 513.1L477.4 513.1L488.7 513.1L500 513.1L511.3 513.1L522.6 513.1L533.9 513L545.2 513L556.5 512.9L567.8 512.7L579.1 512.5L590.4 512.3L601.7 512L613 511.6L624.3 511.2L635.6 510.6L646.9 510L658.2 509.3L669.5 508.3L680.8 507.5L692.1 506.1"></path><g id="polyline"><polyline id="polyline" points="48.10,513.10 59.40,513.10 70.70,513.10 82.00,513.10 93.30,513.10 104.60,513.10 115.90,513.10 127.20,513.10 138.50,513.10 149.80,513.10 161.10,513.10 172.40,513.10 183.70,513.10 195.00,513.10 206.30,513.10 217.60,513.10 228.90,513.10 240.20,513.10 251.50,513.10 262.80,513.10 274.10,513.10 285.40,513.10 296.70,513.10 308.00,513.10 319.30,513.10 330.60,513.10 341.90,513.10 353.20,513.10 364.50,513.10 375.80,513.10 387.10,513.10 398.40,513.10 409.60,513.10 420.90,513.10 432.20,513.10 443.50,513.10 454.80,513.10 466.10,513.10 477.40,513.10 488.70,513.10 500.00,513.10 511.30,513.10 522.60,513.10 533.90,513.00 545.20,513.00 556.50,512.90 567.80,512.70 579.10,512.50 590.40,512.30 601.70,512.00 613.00,511.60 624.30,511.20 635.60,510.60 646.90,510.00 658.20,509.30 669.50,508.30 680.80,507.50 692.10,506.10" stroke-linejoin="round" stroke-width="1.5" stroke="#c4523e" fill="none" stroke-linecap="butt"></polyline></g></g><g id="line__Nuclear"><path id="outline" fill="none" stroke-linecap="butt" stroke-linejoin="round" stroke="#fff" stroke-width="2.5" d="M48.1 512.6L59.4 512.5L70.7 512.4L82 512.2L93.3 512.1L104.6 512L115.9 511.6L127.2 511.1L138.5 510.6L149.8 509.8L161.1 508.5L172.4 508L183.7 506.9L195 506.2L206.3 506.2L217.6 505.4L228.9 503.9L240.2 503.1L251.5 501.9L262.8 500.1L274.1 497.9L285.4 497.2L296.7 496.4L308 495.5L319.3 495.4L330.6 495L341.9 494.3L353.2 494.2L364.5 493.7L375.8 493.5L387.1 493.1L398.4 493L409.6 493.3L420.9 493.1L432.2 492.6L443.5 492.7L454.8 492.4L466.1 492.5L477.4 493.7L488.7 493.8L500 494.4L511.3 494.7L522.6 495.6L533.9 495.9L545.2 495.8L556.5 496.2L567.8 497.3L579.1 498.6L590.4 498.7L601.7 498.5L613 498.4L624.3 498.3L635.6 498.5L646.9 498.5L658.2 498.1L669.5 498L680.8 498.2L692.1 499"></path><g id="polyline"><polyline id="polyline" points="48.10,512.60 59.40,512.50 70.70,512.40 82.00,512.20 93.30,512.10 104.60,512.00 115.90,511.60 127.20,511.10 138.50,510.60 149.80,509.80 161.10,508.50 172.40,508.00 183.70,506.90 195.00,506.20 206.30,506.20 217.60,505.40 228.90,503.90 240.20,503.10 251.50,501.90 262.80,500.10 274.10,497.90 285.40,497.20 296.70,496.40 308.00,495.50 319.30,495.40 330.60,495.00 341.90,494.30 353.20,494.20 364.50,493.70 375.80,493.50 387.10,493.10 398.40,493.00 409.60,493.30 420.90,493.10 432.20,492.60 443.50,492.70 454.80,492.40 466.10,492.50 477.40,493.70 488.70,493.80 500.00,494.40 511.30,494.70 522.60,495.60 533.90,495.90 545.20,495.80 556.50,496.20 567.80,497.30 579.10,498.60 590.40,498.70 601.70,498.50 613.00,498.40 624.30,498.30 635.60,498.50 646.90,498.50 658.20,498.10 669.50,498.00 680.80,498.20 692.10,499.00" stroke-linejoin="round" stroke-width="1.5" stroke="#00847e" fill="none" stroke-linecap="butt"></polyline></g></g><g id="line__Other-renewables"><path id="outline" fill="none" stroke-linecap="butt" stroke-linejoin="round" stroke="#fff" stroke-width="2.5" d="M48.1 512.8L59.4 512.7L70.7 512.8L82 512.7L93.3 512.7L104.6 512.7L115.9 512.7L127.2 512.7L138.5 512.7L149.8 512.7L161.1 512.7L172.4 512.6L183.7 512.6L195 512.6L206.3 512.6L217.6 512.6L228.9 512.5L240.2 512.4L251.5 512.4L262.8 512.3L274.1 512.3L285.4 512.2L296.7 512.2L308 512.2L319.3 512.1L330.6 512L341.9 512L353.2 511.9L364.5 511.9L375.8 511.9L387.1 511.8L398.4 511.8L409.6 511.8L420.9 511.7L432.2 511.7L443.5 511.6L454.8 511.6L466.1 511.5L477.4 511.5L488.7 511.4L500 511.4L511.3 511.3L522.6 511.2L533.9 511.1L545.2 510.9L556.5 510.8L567.8 510.7L579.1 510.6L590.4 510.4L601.7 510.2L613 510L624.3 510L635.6 509.8L646.9 509.7L658.2 509.5L669.5 509.2L680.8 509.1L692.1 509"></path><g id="polyline"><polyline id="polyline" points="48.10,512.80 59.40,512.70 70.70,512.80 82.00,512.70 93.30,512.70 104.60,512.70 115.90,512.70 127.20,512.70 138.50,512.70 149.80,512.70 161.10,512.70 172.40,512.60 183.70,512.60 195.00,512.60 206.30,512.60 217.60,512.60 228.90,512.50 240.20,512.40 251.50,512.40 262.80,512.30 274.10,512.30 285.40,512.20 296.70,512.20 308.00,512.20 319.30,512.10 330.60,512.00 341.90,512.00 353.20,511.90 364.50,511.90 375.80,511.90 387.10,511.80 398.40,511.80 409.60,511.80 420.90,511.70 432.20,511.70 443.50,511.60 454.80,511.60 466.10,511.50 477.40,511.50 488.70,511.40 500.00,511.40 511.30,511.30 522.60,511.20 533.90,511.10 545.20,510.90 556.50,510.80 567.80,510.70 579.10,510.60 590.40,510.40 601.70,510.20 613.00,510.00 624.30,510.00 635.60,509.80 646.90,509.70 658.20,509.50 669.50,509.20 680.80,509.10 692.10,509.00" stroke-linejoin="round" stroke-width="1.5" stroke="#578145" fill="none" stroke-linecap="butt"></polyline></g></g><g id="line__Hydropower"><path id="outline" fill="none" stroke-linecap="butt" stroke-linejoin="round" stroke="#fff" stroke-width="2.5" d="M48.1 495.5L59.4 495.3L70.7 495.6L82 495.7L93.3 495.8L104.6 496.1L115.9 496L127.2 496.1L138.5 496.8L149.8 495.2L161.1 495L172.4 496L183.7 496L195 495.3L206.3 495L217.6 494.4L228.9 493.8L240.2 493.3L251.5 492.7L262.8 492.9L274.1 493L285.4 493.1L296.7 493.5L308 493.6L319.3 494.1L330.6 493.6L341.9 493.3L353.2 493.4L364.5 492.3L375.8 492.4L387.1 491.7L398.4 492L409.6 491.9L420.9 491.8L432.2 492L443.5 492.2L454.8 493L466.1 493.1L477.4 493.9L488.7 493.4L500 493.4L511.3 493.2L522.6 493.6L533.9 492.6L545.2 492.3L556.5 492.1L567.8 492.3L579.1 491.7L590.4 491.2L601.7 490.8L613 491L624.3 490.4L635.6 490.5L646.9 490.4L658.2 490.3L669.5 488.7L680.8 490.3L692.1 490.2"></path><g id="polyline"><polyline id="polyline" points="48.10,495.50 59.40,495.30 70.70,495.60 82.00,495.70 93.30,495.80 104.60,496.10 115.90,496.00 127.20,496.10 138.50,496.80 149.80,495.20 161.10,495.00 172.40,496.00 183.70,496.00 195.00,495.30 206.30,495.00 217.60,494.40 228.90,493.80 240.20,493.30 251.50,492.70 262.80,492.90 274.10,493.00 285.40,493.10 296.70,493.50 308.00,493.60 319.30,494.10 330.60,493.60 341.90,493.30 353.20,493.40 364.50,492.30 375.80,492.40 387.10,491.70 398.40,492.00 409.60,491.90 420.90,491.80 432.20,492.00 443.50,492.20 454.80,493.00 466.10,493.10 477.40,493.90 488.70,493.40 500.00,493.40 511.30,493.20 522.60,493.60 533.90,492.60 545.20,492.30 556.50,492.10 567.80,492.30 579.10,491.70 590.40,491.20 601.70,490.80 613.00,491.00 624.30,490.40 635.60,490.50 646.90,490.40 658.20,490.30 669.50,488.70 680.80,490.30 692.10,490.20" stroke-linejoin="round" stroke-width="1.5" stroke="#286bbb" fill="none" stroke-linecap="butt"></polyline></g></g><g id="line__Wind"><path id="outline" fill="none" stroke-linecap="butt" stroke-linejoin="round" stroke="#fff" stroke-width="2.5" d="M48.1 513.1L59.4 513.1L70.7 513.1L82 513.1L93.3 513.1L104.6 513.1L115.9 513.1L127.2 513.1L138.5 513.1L149.8 513.1L161.1 513.1L172.4 513.1L183.7 513.1L195 513.1L206.3 513.1L217.6 513.1L228.9 513.1L240.2 513.1L251.5 513.1L262.8 513.1L274.1 513.1L285.4 513.1L296.7 513.1L308 513.1L319.3 513.1L330.6 513.1L341.9 513.1L353.2 513.1L364.5 513L375.8 513L387.1 513L398.4 513L409.6 513L420.9 513L432.2 512.9L443.5 512.9L454.8 512.8L466.1 512.7L477.4 512.6L488.7 512.5L500 512.4L511.3 512.2L522.6 512L533.9 511.7L545.2 511.3L556.5 511L567.8 510.5L579.1 510L590.4 509.4L601.7 509L613 508.4L624.3 507.7L635.6 506.8L646.9 506.2L658.2 505.5L669.5 504.2L680.8 503.2L692.1 502"></path><g id="polyline"><polyline id="polyline" points="48.10,513.10 59.40,513.10 70.70,513.10 82.00,513.10 93.30,513.10 104.60,513.10 115.90,513.10 127.20,513.10 138.50,513.10 149.80,513.10 161.10,513.10 172.40,513.10 183.70,513.10 195.00,513.10 206.30,513.10 217.60,513.10 228.90,513.10 240.20,513.10 251.50,513.10 262.80,513.10 274.10,513.10 285.40,513.10 296.70,513.10 308.00,513.10 319.30,513.10 330.60,513.10 341.90,513.10 353.20,513.10 364.50,513.00 375.80,513.00 387.10,513.00 398.40,513.00 409.60,513.00 420.90,513.00 432.20,512.90 443.50,512.90 454.80,512.80 466.10,512.70 477.40,512.60 488.70,512.50 500.00,512.40 511.30,512.20 522.60,512.00 533.90,511.70 545.20,511.30 556.50,511.00 567.80,510.50 579.10,510.00 590.40,509.40 601.70,509.00 613.00,508.40 624.30,507.70 635.60,506.80 646.90,506.20 658.20,505.50 669.50,504.20 680.80,503.20 692.10,502.00" stroke-linejoin="round" stroke-width="1.5" stroke="#00295b" fill="none" stroke-linecap="butt"></polyline></g></g><g id="line__Gas"><path id="outline" fill="none" stroke-linecap="butt" stroke-linejoin="round" stroke="#fff" stroke-width="2.5" d="M48.1 393L59.4 388.7L70.7 384.5L82 380.8L93.3 377L104.6 373.8L115.9 369.7L127.2 369.4L138.5 370.9L149.8 367.5L161.1 367.7L172.4 367L183.7 367.2L195 366.6L206.3 362.6L217.6 359.5L228.9 356.4L240.2 354.2L251.5 353.5L262.8 347.8L274.1 347.5L285.4 349.4L296.7 346.4L308 344.7L319.3 340.8L330.6 337.3L341.9 333.6L353.2 333.8L364.5 332.8L375.8 333.9L387.1 331.3L398.4 327.6L409.6 330.6L420.9 328.3L432.2 326.1L443.5 323.7L454.8 323.4L466.1 322.1L477.4 324.4L488.7 326.3L500 327.7L511.3 328.1L522.6 326.8L533.9 324.1L545.2 324.8L556.5 320L567.8 320.2L579.1 317.9L590.4 317.8L601.7 318L613 314.7L624.3 312L635.6 310.6L646.9 305.7L658.2 303.5L669.5 296.6L680.8 296.9L692.1 305.2"></path><g id="polyline"><polyline id="polyline" points="48.10,393.00 59.40,388.70 70.70,384.50 82.00,380.80 93.30,377.00 104.60,373.80 115.90,369.70 127.20,369.40 138.50,370.90 149.80,367.50 161.10,367.70 172.40,367.00 183.70,367.20 195.00,366.60 206.30,362.60 217.60,359.50 228.90,356.40 240.20,354.20 251.50,353.50 262.80,347.80 274.10,347.50 285.40,349.40 296.70,346.40 308.00,344.70 319.30,340.80 330.60,337.30 341.90,333.60 353.20,333.80 364.50,332.80 375.80,333.90 387.10,331.30 398.40,327.60 409.60,330.60 420.90,328.30 432.20,326.10 443.50,323.70 454.80,323.40 466.10,322.10 477.40,324.40 488.70,326.30 500.00,327.70 511.30,328.10 522.60,326.80 533.90,324.10 545.20,324.80 556.50,320.00 567.80,320.20 579.10,317.90 590.40,317.80 601.70,318.00 613.00,314.70 624.30,312.00 635.60,310.60 646.90,305.70 658.20,303.50 669.50,296.60 680.80,296.90 692.10,305.20" stroke-linejoin="round" stroke-width="1.5" stroke="#6d3e91" fill="none" stroke-linecap="butt"></polyline></g></g></g></g></g></g><g id="footer" class="SourcesFooter" style="fill:#5b5b5b"><g id="sources" class="markdown-text-wrap"><text x="16.0" y="562.7" style="font-size:13.5px;line-height:1.2"><tspan x="16" y="562.7"><tspan style="font-weight:700">Data source:</tspan> Energy Institute - Statistical Review of World Energy (2023)</tspan></text></g><g id="note" class="markdown-text-wrap"><text x="16.0" y="580.9" style="font-size:13.5px;line-height:1.2"><tspan x="16" y="580.9"><tspan style="font-weight:700">Note:</tspan> Other renewables include bioenergy, geothermal, wave, and tidal, but not traditional biofuels.</tspan></text></g><text id="origin-url" font-size="13.50" x="615.3" y="562.7"><tspan x="615.3" y="562.695"><a target="_blank" style="fill: #5b5b5b;" href="https://ourworldindata.org/energy">OurWorldInData.org/energy</a> | <a target="_blank" style="fill: #5b5b5b;" href="https://creativecommons.org/licenses/by/4.0/">CC BY</a></tspan></text></g></svg>