<svg xmlns="http://www.w3.org/2000/svg" version="1.1" style="font-family:Lato, &#x27;Helvetica Neue&#x27;, Helvetica, Arial, &#x27;Liberation Sans&#x27;, sans-serif;font-size:18px;background-color:white;text-rendering:geometricPrecision;-webkit-font-smoothing:antialiased" width="850" height="600" viewBox="0 0 850 600"><defs><style>@import url(http://localhost:3030/fonts.css)</style></defs><defs><pattern id="noDataPattern" patternUnits="userSpaceOnUse" width="4" height="4" patternTransform="rotate(-45 2 2)"><path d="M -1,2 l 6,0" stroke="#ccc" stroke-width="0.7"></path></pattern></defs><rect class="background-fill" fill="white" width="850" height="600"></rect><g class="HeaderView"><g transform="translate(769, 16) scale(1)"><svg className="owidLogo" xmlns="http://www.w3.org/2000/svg" width="65" height="36" viewBox="0 0 65 36"  fill="none"><path fill="#002147" d="M0 0h64.8v36H0z"/><path fill="#CE261E" d="M0 33.3h64.8V36H0z"/><path fill="#fff" d="M13.796 10.575c0 .636-.106 1.226-.318 1.77a4.193 4.193 0 0 1-.894 1.404 4.084 4.084 0 0 1-1.386.93c-.54.22-1.138.33-1.794.33-.656 0-1.256-.11-1.8-.33a4.149 4.149 0 0 1-1.392-.93 4.193 4.193 0 0 1-.894-1.404A4.833 4.833 0 0 1 5 10.575c0-.636.106-1.224.318-1.764a4.18 4.18 0 0 1 .894-1.41 4.076 4.076 0 0 1 1.392-.924 4.684 4.684 0 0 1 1.8-.336c.656 0 1.254.112 1.794.336.54.224 1.002.534 1.386.93.384.392.682.86.894 1.404.212.54.318 1.128.318 1.764Zm-1.656 0c0-.476-.064-.902-.192-1.278a2.671 2.671 0 0 0-.54-.966 2.332 2.332 0 0 0-.864-.606 2.94 2.94 0 0 0-1.14-.21c-.424 0-.806.07-1.146.21-.34.14-.63.342-.87.606a2.742 2.742 0 0 0-.546.966 3.955 3.955 0 0 0-.192 1.278c0 .476.064.904.192 1.284.128.376.31.696.546.96.24.26.53.46.87.6.34.14.722.21 1.146.21.424 0 .804-.07 1.14-.21.34-.14.628-.34.864-.6.236-.264.416-.584.54-.96a4.01 4.01 0 0 0 .192-1.284ZM16.104 8.757v3.912c0 .376.086.668.258.876.176.204.438.306.786.306.256 0 .496-.056.72-.168a2.58 2.58 0 0 0 .636-.474V8.757h1.482v6.156h-.906c-.192 0-.318-.09-.378-.27l-.102-.492a4.65 4.65 0 0 1-.396.354 2.577 2.577 0 0 1-.438.27 2.35 2.35 0 0 1-.498.168 2.345 2.345 0 0 1-.57.066c-.336 0-.634-.056-.894-.168a1.821 1.821 0 0 1-.648-.486 2.157 2.157 0 0 1-.402-.738 3.233 3.233 0 0 1-.132-.948V8.757h1.482ZM21.328 14.913V8.757h.87c.152 0 .258.028.318.084.06.056.1.152.12.288l.09.744c.22-.38.478-.68.774-.9.296-.22.628-.33.996-.33.304 0 .556.07.756.21l-.192 1.11c-.012.072-.038.124-.078.156a.278.278 0 0 1-.162.042 1.01 1.01 0 0 1-.246-.042 1.646 1.646 0 0 0-.414-.042c-.308 0-.572.086-.792.258-.22.168-.406.416-.558.744v3.834h-1.482ZM27.347 6.237h1.356a.57.57 0 0 1 .348.102c.096.064.16.152.192.264l1.476 5.19c.036.128.068.268.096.42.032.148.062.306.09.474a5.968 5.968 0 0 1 .228-.894l1.704-5.19a.575.575 0 0 1 .186-.252.543.543 0 0 1 .348-.114h.474a.57.57 0 0 1 .348.102.497.497 0 0 1 .192.264l1.692 5.19c.088.256.164.54.228.852.028-.156.056-.306.084-.45.032-.144.064-.278.096-.402l1.476-5.19c.028-.1.09-.186.186-.258a.563.563 0 0 1 .348-.108h1.266l-2.694 8.676h-1.458l-1.896-5.928-.078-.246a9.504 9.504 0 0 1-.072-.282c-.024.1-.05.194-.078.282-.024.088-.048.17-.072.246l-1.914 5.928H30.04l-2.694-8.676ZM42.771 8.661c.46 0 .876.074 1.248.222.376.148.696.358.96.63s.468.604.612.996c.144.392.216.83.216 1.314 0 .488-.072.928-.216 1.32a2.85 2.85 0 0 1-.612 1.002 2.653 2.653 0 0 1-.96.636 3.35 3.35 0 0 1-1.248.222c-.46 0-.878-.074-1.254-.222a2.712 2.712 0 0 1-.966-.636 2.922 2.922 0 0 1-.618-1.002 3.807 3.807 0 0 1-.216-1.32c0-.484.072-.922.216-1.314.148-.392.354-.724.618-.996.268-.272.59-.482.966-.63a3.397 3.397 0 0 1 1.254-.222Zm0 5.202c.512 0 .89-.172 1.134-.516.248-.344.372-.848.372-1.512s-.124-1.17-.372-1.518c-.244-.348-.622-.522-1.134-.522-.52 0-.904.176-1.152.528-.248.348-.372.852-.372 1.512s.124 1.164.372 1.512c.248.344.632.516 1.152.516ZM46.723 14.913V8.757h.87c.152 0 .258.028.318.084.06.056.1.152.12.288l.09.744c.22-.38.478-.68.774-.9.296-.22.628-.33.996-.33.304 0 .556.07.756.21l-.192 1.11c-.012.072-.038.124-.078.156a.278.278 0 0 1-.162.042 1.01 1.01 0 0 1-.246-.042 1.646 1.646 0 0 0-.414-.042c-.308 0-.572.086-.792.258-.22.168-.406.416-.558.744v3.834h-1.482ZM52.96 5.997v8.916h-1.482V5.997h1.482ZM58.732 14.913c-.192 0-.318-.09-.378-.27l-.12-.594a3.68 3.68 0 0 1-.402.39c-.14.116-.292.216-.456.3-.16.084-.334.148-.522.192a2.372 2.372 0 0 1-.6.072c-.336 0-.644-.07-.924-.21a2.098 2.098 0 0 1-.726-.606 3.033 3.033 0 0 1-.468-.99 5.072 5.072 0 0 1-.162-1.344c0-.456.062-.88.186-1.272s.302-.732.534-1.02c.232-.288.51-.512.834-.672a2.384 2.384 0 0 1 1.092-.246 2.103 2.103 0 0 1 1.536.606V5.997h1.482v8.916h-.906Zm-1.974-1.086c.308 0 .57-.064.786-.192.216-.128.42-.31.612-.546v-2.76a1.452 1.452 0 0 0-.552-.432 1.597 1.597 0 0 0-.636-.126c-.224 0-.428.042-.612.126a1.21 1.21 0 0 0-.462.384c-.124.168-.22.384-.288.648-.068.26-.102.568-.102.924 0 .36.028.666.084.918.06.248.144.452.252.612.108.156.24.27.396.342.156.068.33.102.522.102ZM16.331 20.757v6.156H14.85v-6.156h1.481Zm.223-1.794a.844.844 0 0 1-.078.36.963.963 0 0 1-.21.294.995.995 0 0 1-.3.204.963.963 0 0 1-.372.072.948.948 0 0 1-.367-.072 1.018 1.018 0 0 1-.498-.498.963.963 0 0 1 0-.732.995.995 0 0 1 .205-.3.929.929 0 0 1 .293-.198.899.899 0 0 1 .738 0 .912.912 0 0 1 .3.198.943.943 0 0 1 .288.672ZM17.771 26.913v-6.156h.906c.192 0 .318.09.378.27l.102.486a2.934 2.934 0 0 1 .828-.618c.156-.076.322-.134.498-.174.176-.04.368-.06.576-.06.336 0 .634.058.894.174.26.112.476.272.648.48.176.204.308.45.396.738.092.284.138.598.138.942v3.918h-1.482v-3.918c0-.376-.088-.666-.264-.87-.172-.208-.432-.312-.78-.312-.256 0-.496.058-.72.174a2.58 2.58 0 0 0-.636.474v4.452h-1.482ZM34.22 22.575c0 .636-.106 1.22-.318 1.752-.212.532-.51.99-.894 1.374a4 4 0 0 1-1.386.894 4.87 4.87 0 0 1-1.794.318h-3.312v-8.676h3.312a4.79 4.79 0 0 1 1.794.324 4 4 0 0 1 1.386.894c.384.38.682.836.894 1.368.212.532.318 1.116.318 1.752Zm-1.65 0c0-.476-.064-.902-.192-1.278a2.68 2.68 0 0 0-.546-.96 2.332 2.332 0 0 0-.864-.606 2.94 2.94 0 0 0-1.14-.21h-1.686v6.108h1.686c.424 0 .804-.07 1.14-.21.34-.14.628-.34.864-.6a2.75 2.75 0 0 0 .546-.96 4.01 4.01 0 0 0 .192-1.284ZM39.98 26.913h-.665c-.14 0-.25-.02-.33-.06-.08-.044-.14-.13-.18-.258l-.132-.438c-.156.14-.31.264-.462.372a2.804 2.804 0 0 1-.462.264c-.16.072-.33.126-.51.162-.18.036-.38.054-.6.054-.26 0-.5-.034-.72-.102a1.618 1.618 0 0 1-.57-.318 1.448 1.448 0 0 1-.366-.522 1.852 1.852 0 0 1-.132-.726c0-.232.06-.46.18-.684.124-.228.328-.432.612-.612.284-.184.662-.336 1.134-.456.472-.12 1.058-.188 1.758-.204v-.36c0-.412-.088-.716-.264-.912-.172-.2-.424-.3-.756-.3a1.837 1.837 0 0 0-1.02.276c-.116.068-.224.13-.324.186a.664.664 0 0 1-.33.084.429.429 0 0 1-.258-.078.614.614 0 0 1-.174-.192l-.27-.474c.708-.648 1.562-.972 2.562-.972.36 0 .68.06.96.18.284.116.524.28.72.492.196.208.344.458.444.75.104.292.156.612.156.96v3.888Zm-2.88-.924c.153 0 .293-.014.42-.042.129-.028.249-.07.36-.126.117-.056.227-.124.33-.204.109-.084.217-.182.325-.294v-1.038c-.432.02-.794.058-1.086.114-.288.052-.52.12-.696.204a.923.923 0 0 0-.378.294.664.664 0 0 0-.108.366c0 .26.076.446.228.558.156.112.358.168.606.168ZM43.22 27.01c-.532 0-.942-.15-1.23-.45-.288-.305-.432-.723-.432-1.255v-3.438h-.624a.31.31 0 0 1-.21-.078c-.056-.052-.084-.13-.084-.234v-.588l.99-.162.312-1.68a.302.302 0 0 1 .108-.186.365.365 0 0 1 .222-.066h.768v1.938h1.62v1.056h-1.62v3.336c0 .192.048.342.144.45a.488.488 0 0 0 .384.162c.092 0 .168-.01.228-.03.064-.024.118-.048.162-.072.048-.024.09-.046.126-.066a.194.194 0 0 1 .108-.036.16.16 0 0 1 .108.036c.028.02.058.052.09.096l.444.72c-.216.18-.464.316-.744.408a2.77 2.77 0 0 1-.87.138ZM50.423 26.913h-.666c-.14 0-.25-.02-.33-.06-.08-.044-.14-.13-.18-.258l-.132-.438c-.156.14-.31.264-.462.372a2.804 2.804 0 0 1-.462.264c-.16.072-.33.126-.51.162-.18.036-.38.054-.6.054-.26 0-.5-.034-.72-.102a1.618 1.618 0 0 1-.57-.318 1.448 1.448 0 0 1-.366-.522 1.852 1.852 0 0 1-.132-.726c0-.232.06-.46.18-.684.124-.228.328-.432.612-.612.284-.184.662-.336 1.134-.456.472-.12 1.058-.188 1.758-.204v-.36c0-.412-.088-.716-.264-.912-.172-.2-.424-.3-.756-.3a1.837 1.837 0 0 0-1.02.276c-.116.068-.224.13-.324.186a.664.664 0 0 1-.33.084.429.429 0 0 1-.258-.078.614.614 0 0 1-.174-.192l-.27-.474c.708-.648 1.562-.972 2.562-.972.36 0 .68.06.96.18.284.116.524.28.72.492.196.208.344.458.444.75.104.292.156.612.156.96v3.888Zm-2.88-.924c.152 0 .292-.014.42-.042.128-.028.248-.07.36-.126.116-.056.226-.124.33-.204.108-.084.216-.182.324-.294v-1.038c-.432.02-.794.058-1.086.114-.288.052-.52.12-.696.204a.923.923 0 0 0-.378.294.664.664 0 0 0-.108.366c0 .26.076.446.228.558.156.112.358.168.606.168Z"/></svg></g><a href="http://localhost:3030/grapher/share-vs-intensity-of-multidimensional-poverty-hot" style="font-family:&#x27;Playfair Display&#x27;, Georgia, &#x27;Times New Roman&#x27;, &#x27;Liberation Serif&#x27;, serif;font-weight:500" target="_blank" rel="noopener"><text font-size="24.00" font-weight="600" x="16.0" y="39.3" fill="#4E4E4E"><tspan x="16" y="39.28">Share vs. intensity of multidimensional poverty, 2000 to 2021</tspan></text></a><text x="16.0" y="63.0" style="font-size:14px;line-height:1.28571" fill="#4E4E4E"><tspan x="16" y="63.0">Multidimensional poverty is defined as being deprived in a range of health, education and living standards indicators.</tspan><tspan x="16" y="81.0">The intensity is the share of indicators in which the multidimensionally poor are deprived on average.</tspan></text></g><g class="ScatterPlot"><g class="DualAxisView"><g class="HorizontalAxis"><text font-size="12.60" x="271.7" y="500.0"><tspan x="271.731" y="499.962">Share in multidimensional poverty</tspan></text><text x="76.162" y="479" fill="#666" text-anchor="start" font-size="16.2">0%</text><text x="214.1" y="479" fill="#666" text-anchor="middle" font-size="16.2">20%</text><text x="352.1" y="479" fill="#666" text-anchor="middle" font-size="16.2">40%</text><text x="490" y="479" fill="#666" text-anchor="middle" font-size="16.2">60%</text><text x="628" y="479" fill="#666" text-anchor="middle" font-size="16.2">80%</text></g><g class="VerticalAxis"><text font-size="12.60" x="-406.1" y="27.0" transform="rotate(-90)"><tspan x="-406.07093999999995" y="26.962">Intensity of multidimensional poverty</tspan></text><text x="71.16" y="442.6" dy=".32em" text-anchor="end" fill="#666" font-size="16.2">35%</text><text x="71.16" y="397.2" dy=".32em" text-anchor="end" fill="#666" font-size="16.2">40%</text><text x="71.16" y="351.7" dy=".32em" text-anchor="end" fill="#666" font-size="16.2">45%</text><text x="71.16" y="306.2" dy=".32em" text-anchor="end" fill="#666" font-size="16.2">50%</text><text x="71.16" y="260.8" dy=".32em" text-anchor="end" fill="#666" font-size="16.2">55%</text><text x="71.16" y="215.3" dy=".32em" text-anchor="end" fill="#666" font-size="16.2">60%</text><text x="71.16" y="169.9" dy=".32em" text-anchor="end" fill="#666" font-size="16.2">65%</text><text x="71.16" y="124.4" dy=".32em" text-anchor="end" fill="#666" font-size="16.2">70%</text></g><g class="AxisGridLines horizontalLines"><line x1="76.16" y1="442.6" x2="717.09" y2="442.6" stroke="#ddd" stroke-dasharray="3,2"></line><line x1="76.16" y1="397.2" x2="717.09" y2="397.2" stroke="#ddd" stroke-dasharray="3,2"></line><line x1="76.16" y1="351.7" x2="717.09" y2="351.7" stroke="#ddd" stroke-dasharray="3,2"></line><line x1="76.16" y1="306.2" x2="717.09" y2="306.2" stroke="#ddd" stroke-dasharray="3,2"></line><line x1="76.16" y1="260.8" x2="717.09" y2="260.8" stroke="#ddd" stroke-dasharray="3,2"></line><line x1="76.16" y1="215.3" x2="717.09" y2="215.3" stroke="#ddd" stroke-dasharray="3,2"></line><line x1="76.16" y1="169.9" x2="717.09" y2="169.9" stroke="#ddd" stroke-dasharray="3,2"></line><line x1="76.16" y1="124.4" x2="717.09" y2="124.4" stroke="#ddd" stroke-dasharray="3,2"></line></g><g class="AxisGridLines verticalLines"><line x1="76.2" y1="457.80" x2="76.2" y2="106.80" stroke="#999"></line><line x1="214.1" y1="457.80" x2="214.1" y2="106.80" stroke="#ddd" stroke-dasharray="3,2"></line><line x1="352.1" y1="457.80" x2="352.1" y2="106.80" stroke="#ddd" stroke-dasharray="3,2"></line><line x1="490" y1="457.80" x2="490" y2="106.80" stroke="#ddd" stroke-dasharray="3,2"></line><line x1="628" y1="457.80" x2="628" y2="106.80" stroke="#ddd" stroke-dasharray="3,2"></line></g></g><g class="PointsWithLabels clickable" clip-path="url(#scatterBounds-1)"><rect x="76.162" y="106.79988" width="640.93" height="351.00012" fill="rgba(255,255,255,0)"></rect><defs><clipPath id="scatterBounds-1"><rect x="66.162" y="96.79988" width="660.93" height="371.00012"></rect></clipPath></defs><g class="key-China"><circle cx="141.00" cy="367.00" r="2.0" fill="#00847E" stroke="none" opacity="0.7"></circle><polyline points="141.00,367.00 141.00,367.00 141.00,367.00 141.00,367.00 141.00,367.00 141.00,367.00 141.00,367.00 141.00,367.00 105.00,382.00 105.00,382.00 105.00,382.00 105.00,382.00 105.00,382.00 105.00,382.00 105.00,382.00" stroke-width="2.00" opacity="0.7" style="transition:stroke 250ms" stroke="#00847E" fill="none" stroke-linecap="butt"></polyline><polygon points="101.50,385.50 105.00,378.50 108.50,385.50" transform="rotate(90.0000007648485, 105.00, 382.00)" cx="105" cy="382" r="3.5" fill="#00847E" opacity="0.7"></polygon></g><g class="key-India"><circle cx="456.00" cy="294.00" r="1.9" fill="#00847E" stroke="none" opacity="0.7"></circle><polyline points="456.00,294.00 456.00,294.00 456.00,294.00 456.00,294.00 456.00,294.00 456.00,294.00 456.00,294.00 456.00,294.00 456.00,294.00 456.00,294.00 456.00,294.00 267.00,361.00 267.00,361.00 267.00,361.00 267.00,361.00 267.00,361.00 267.00,361.00 267.00,361.00 189.00,379.00 189.00,379.00 189.00,379.00 189.00,379.00" stroke-width="1.99" opacity="0.7" style="transition:stroke 250ms" stroke="#00847E" fill="none" stroke-linecap="butt"></polyline><polygon points="185.51,382.49 189.00,375.51 192.49,382.49" transform="rotate(90.0000007648485, 189.00, 379.00)" cx="189" cy="379" r="3.4899172518091266" fill="#00847E" opacity="0.7"></polygon></g><g class="key-Indonesia"><circle cx="123.00" cy="394.00" r="1.4" fill="#00847E" stroke="none" opacity="0.7"></circle><polyline points="123.00,394.00 123.00,394.00 123.00,394.00 123.00,394.00 123.00,394.00 123.00,394.00 123.00,394.00 123.00,394.00 101.00,409.00 101.00,409.00 101.00,409.00 101.00,409.00 101.00,409.00 101.00,409.00 101.00,409.00" stroke-width="0.88" opacity="0.7" style="transition:stroke 250ms" stroke="#00847E" fill="none" stroke-linecap="butt"></polyline><polygon points="98.62,411.38 101.00,406.62 103.38,411.38" transform="rotate(90.0000007648485, 101.00, 409.00)" cx="101" cy="409" r="2.377567530461879" fill="#00847E" opacity="0.7"></polygon></g><g class="key-Pakistan"><circle cx="383.00" cy="285.00" r="1.4" fill="#00847E" stroke="none" opacity="0.7"></circle><polyline points="383.00,285.00 383.00,285.00 383.00,285.00 383.00,285.00 383.00,285.00 383.00,285.00 383.00,285.00 383.00,285.00 340.00,290.00 340.00,290.00 340.00,290.00 340.00,290.00 340.00,290.00 340.00,290.00 340.00,290.00" stroke-width="0.81" opacity="0.7" style="transition:stroke 250ms" stroke="#00847E" fill="none" stroke-linecap="butt"></polyline><polygon points="337.69,292.31 340.00,287.69 342.31,292.31" transform="rotate(90.0000007648485, 340.00, 290.00)" cx="340" cy="290" r="2.3068347890937604" fill="#00847E" opacity="0.7"></polygon></g><g class="key-Nigeria"><circle cx="368.00" cy="266.00" r="1.3" fill="#A2559C" stroke="none" opacity="0.7"></circle><polyline points="368.00,266.00 368.00,266.00 368.00,266.00 368.00,266.00 368.00,266.00 368.00,266.00 368.00,266.00 357.00,282.00 357.00,282.00 357.00,282.00 339.00,264.00 339.00,264.00 304.00,279.00 304.00,279.00" stroke-width="0.77" opacity="0.7" style="transition:stroke 250ms" stroke="#A2559C" fill="none" stroke-linecap="butt"></polyline><polygon points="301.73,281.27 304.00,276.73 306.27,281.27" transform="rotate(90.0000007648485, 304.00, 279.00)" cx="304" cy="279" r="2.2748176683784616" fill="#A2559C" opacity="0.7"></polygon></g><g class="key-Bangladesh"><circle cx="335.00" cy="338.00" r="1.3" fill="#00847E" stroke="none" opacity="0.7"></circle><polyline points="335.00,338.00 335.00,338.00 335.00,338.00 335.00,338.00 335.00,338.00 335.00,338.00 335.00,338.00 335.00,338.00 242.00,378.00 242.00,378.00 242.00,378.00 242.00,378.00 242.00,378.00" stroke-width="0.69" opacity="0.7" style="transition:stroke 250ms" stroke="#00847E" fill="none" stroke-linecap="butt"></polyline><polygon points="239.81,380.19 242.00,375.81 244.19,380.19" transform="rotate(90.0000007648485, 242.00, 378.00)" cx="242" cy="378" r="2.1902422802728987" fill="#00847E" opacity="0.7"></polygon></g><g class="key-Mexico"><circle cx="119.00" cy="380.00" r="1.3" fill="#E56E5A" stroke="none" opacity="0.7"></circle><polyline points="119.00,380.00 119.00,380.00 119.00,380.00 119.00,380.00 119.00,380.00 119.00,380.00 119.00,380.00 119.00,380.00 112.00,399.00 112.00,399.00 112.00,399.00 112.00,399.00 103.00,405.00 103.00,405.00 104.00,392.00" stroke-width="0.60" opacity="0.7" style="transition:stroke 250ms" stroke="#E56E5A" fill="none" stroke-linecap="butt"></polyline><polygon points="101.90,394.10 104.00,389.90 106.10,394.10" transform="rotate(4.398705392377182, 104.00, 392.00)" cx="104" cy="392" r="2.097032628329129" fill="#E56E5A" opacity="0.7"></polygon></g><g class="key-Ethiopia"><circle cx="651.00" cy="225.00" r="1.3" fill="#A2559C" stroke="none" opacity="0.7"></circle><polyline points="651.00,225.00 651.00,225.00 651.00,225.00 651.00,225.00 651.00,225.00 651.00,225.00 651.00,225.00 651.00,225.00 610.00,248.00 610.00,248.00 610.00,248.00 610.00,248.00 550.00,276.00 550.00,276.00 550.00,276.00 550.00,276.00" stroke-width="0.58" opacity="0.7" style="transition:stroke 250ms" stroke="#A2559C" fill="none" stroke-linecap="butt"></polyline><polygon points="547.92,278.08 550.00,273.92 552.08,278.08" transform="rotate(90.0000007648485, 550.00, 276.00)" cx="550" cy="276" r="2.0817054405302717" fill="#A2559C" opacity="0.7"></polygon></g><g class="key-Philippines"><circle cx="125.00" cy="288.00" r="1.3" fill="#00847E" stroke="none" opacity="0.7"></circle><polyline points="125.00,288.00 125.00,288.00 125.00,288.00 125.00,288.00 125.00,288.00 125.00,288.00 125.00,288.00 125.00,288.00 114.00,307.00 114.00,307.00 114.00,307.00 114.00,307.00 114.00,307.00 114.00,307.00" stroke-width="0.57" opacity="0.7" style="transition:stroke 250ms" stroke="#00847E" fill="none" stroke-linecap="butt"></polyline><polygon points="111.93,309.07 114.00,304.93 116.07,309.07" transform="rotate(90.0000007648485, 114.00, 307.00)" cx="114" cy="307" r="2.0660115931289615" fill="#00847E" opacity="0.7"></polygon></g><g class="key-Egypt"><circle cx="131.00" cy="396.00" r="1.3" fill="#A2559C" stroke="none" opacity="0.7"></circle><polyline points="131.00,396.00 131.00,396.00 131.00,396.00 131.00,396.00 131.00,396.00 131.00,396.00 131.00,396.00 131.00,396.00 131.00,396.00 109.00,419.00 109.00,419.00 109.00,419.00 109.00,419.00 109.00,419.00 109.00,419.00 109.00,419.00 109.00,419.00" stroke-width="0.55" opacity="0.7" style="transition:stroke 250ms" stroke="#A2559C" fill="none" stroke-linecap="butt"></polyline><polygon points="106.95,421.05 109.00,416.95 111.05,421.05" transform="rotate(90.0000007648485, 109.00, 419.00)" cx="109" cy="419" r="2.045093882352552" fill="#A2559C" opacity="0.7"></polygon></g><g class="key-Vietnam"><circle cx="110.00" cy="403.00" r="1.3" fill="#00847E" stroke="none" opacity="0.7"></circle><polyline points="110.00,403.00 110.00,403.00 110.00,403.00 110.00,403.00 110.00,403.00 110.00,403.00 110.00,403.00 110.00,403.00 110.00,403.00 89.00,394.00 89.00,394.00 89.00,394.00 89.00,394.00 89.00,394.00" stroke-width="0.52" opacity="0.7" style="transition:stroke 250ms" stroke="#00847E" fill="none" stroke-linecap="butt"></polyline><polygon points="86.98,396.02 89.00,391.98 91.02,396.02" transform="rotate(90.0000007648485, 89.00, 394.00)" cx="89" cy="394" r="2.023639063429465" fill="#00847E" opacity="0.7"></polygon></g><g class="key-Democratic-Republic-of-Congo"><circle cx="605.00" cy="253.00" r="1.3" fill="#A2559C" stroke="none" opacity="0.7"></circle><polyline points="605.00,253.00 605.00,253.00 605.00,253.00 605.00,253.00 605.00,253.00 605.00,253.00 605.00,253.00 605.00,253.00 605.00,253.00 572.00,286.00 572.00,286.00 572.00,286.00 572.00,286.00 572.00,286.00 523.00,287.00 523.00,287.00 523.00,287.00 523.00,287.00 523.00,287.00 523.00,287.00" stroke-width="0.52" opacity="0.7" style="transition:stroke 250ms" stroke="#A2559C" fill="none" stroke-linecap="butt"></polyline><polygon points="520.98,289.02 523.00,284.98 525.02,289.02" transform="rotate(90.0000007648485, 523.00, 287.00)" cx="523" cy="287" r="2.019394020678474" fill="#A2559C" opacity="0.7"></polygon></g><g class="key-Bolivia"><circle cx="310.00" cy="313.00" r="1.3" fill="#883039" stroke="none" opacity="0.7"></circle><polyline points="310.00,313.00 310.00,313.00 310.00,313.00 310.00,313.00 310.00,313.00 310.00,313.00 218.00,340.00 218.00,340.00 218.00,340.00 218.00,340.00 218.00,340.00 218.00,340.00 218.00,340.00 139.00,381.00 139.00,381.00 139.00,381.00 139.00,381.00 139.00,381.00 139.00,381.00 139.00,381.00 139.00,381.00 139.00,381.00" stroke-width="0.50" opacity="0.7" style="transition:stroke 250ms" stroke="#883039" fill="none" stroke-linecap="butt"></polyline><polygon points="137.00,383.00 139.00,379.00 141.00,383.00" transform="rotate(90.0000007648485, 139.00, 381.00)" cx="139" cy="381" r="2" fill="#883039" opacity="0.7"></polygon></g><g class="key-Central-African-Republic"><circle cx="694.00" cy="178.00" r="1.3" fill="#A2559C" stroke="none" opacity="0.7"></circle><polyline points="694.00,178.00 694.00,178.00 694.00,178.00 694.00,178.00 694.00,178.00 694.00,178.00 636.00,223.00 636.00,223.00 636.00,223.00 636.00,223.00 636.00,223.00 636.00,223.00 636.00,223.00 636.00,223.00 636.00,223.00 658.00,204.00 658.00,204.00 658.00,204.00 658.00,204.00 658.00,204.00 658.00,204.00 658.00,204.00" stroke-width="0.50" opacity="0.7" style="transition:stroke 250ms" stroke="#A2559C" fill="none" stroke-linecap="butt"></polyline><polygon points="656.00,206.00 658.00,202.00 660.00,206.00" transform="rotate(90.0000007648485, 658.00, 204.00)" cx="658" cy="204" r="2" fill="#A2559C" opacity="0.7"></polygon></g><g class="key-Congo"><circle cx="446.00" cy="324.00" r="1.3" fill="#A2559C" stroke="none" opacity="0.7"></circle><polyline points="446.00,324.00 446.00,324.00 446.00,324.00 446.00,324.00 446.00,324.00 446.00,324.00 446.00,324.00 446.00,324.00 446.00,324.00 446.00,324.00 246.00,341.00 246.00,341.00 246.00,341.00 246.00,341.00 246.00,341.00 246.00,341.00 246.00,341.00 246.00,341.00 246.00,341.00 246.00,341.00" stroke-width="0.50" opacity="0.7" style="transition:stroke 250ms" stroke="#A2559C" fill="none" stroke-linecap="butt"></polyline><polygon points="244.00,343.00 246.00,339.00 248.00,343.00" transform="rotate(90.0000007648485, 246.00, 341.00)" cx="246" cy="341" r="2" fill="#A2559C" opacity="0.7"></polygon></g><g class="key-Gabon"><circle cx="289.00" cy="333.00" r="1.3" fill="#A2559C" stroke="none" opacity="0.7"></circle><polyline points="289.00,333.00 289.00,333.00 289.00,333.00 289.00,333.00 289.00,333.00 289.00,333.00 181.00,354.00 181.00,354.00 181.00,354.00 181.00,354.00 181.00,354.00 181.00,354.00 181.00,354.00 181.00,354.00 181.00,354.00 181.00,354.00 181.00,354.00" stroke-width="0.50" opacity="0.7" style="transition:stroke 250ms" stroke="#A2559C" fill="none" stroke-linecap="butt"></polyline><polygon points="179.00,356.00 181.00,352.00 183.00,356.00" transform="rotate(90.0000007648485, 181.00, 354.00)" cx="181" cy="354" r="2" fill="#A2559C" opacity="0.7"></polygon></g><g class="key-Gambia"><circle cx="545.00" cy="243.00" r="1.3" fill="#A2559C" stroke="none" opacity="0.7"></circle><polyline points="545.00,243.00 545.00,243.00 545.00,243.00 545.00,243.00 545.00,243.00 545.00,243.00 545.00,243.00 545.00,243.00 545.00,243.00 545.00,243.00 503.00,262.00 503.00,262.00 503.00,262.00 503.00,262.00 503.00,262.00 503.00,262.00 421.00,293.00 421.00,293.00 421.00,293.00 408.00,305.00 408.00,305.00 408.00,305.00" stroke-width="0.50" opacity="0.7" style="transition:stroke 250ms" stroke="#A2559C" fill="none" stroke-linecap="butt"></polyline><polygon points="406.00,307.00 408.00,303.00 410.00,307.00" transform="rotate(90.0000007648485, 408.00, 305.00)" cx="408" cy="305" r="2" fill="#A2559C" opacity="0.7"></polygon></g><g class="key-Honduras"><circle cx="329.00" cy="299.00" r="1.3" fill="#E56E5A" stroke="none" opacity="0.7"></circle><polyline points="329.00,299.00 329.00,299.00 329.00,299.00 329.00,299.00 329.00,299.00 329.00,299.00 329.00,299.00 329.00,299.00 329.00,299.00 233.00,332.00 233.00,332.00 233.00,332.00 233.00,332.00 233.00,332.00 233.00,332.00 233.00,332.00 150.00,352.00 150.00,352.00 150.00,352.00 150.00,352.00 150.00,352.00 150.00,352.00" stroke-width="0.50" opacity="0.7" style="transition:stroke 250ms" stroke="#E56E5A" fill="none" stroke-linecap="butt"></polyline><polygon points="148.00,354.00 150.00,350.00 152.00,354.00" transform="rotate(90.0000007648485, 150.00, 352.00)" cx="150" cy="352" r="2" fill="#E56E5A" opacity="0.7"></polygon></g><g class="key-Kyrgyzstan"><circle cx="141.00" cy="415.00" r="1.3" fill="#00847E" stroke="none" opacity="0.7"></circle><polyline points="141.00,415.00 141.00,415.00 141.00,415.00 141.00,415.00 141.00,415.00 141.00,415.00 141.00,415.00 141.00,415.00 141.00,415.00 141.00,415.00 99.00,422.00 99.00,422.00 99.00,422.00 99.00,422.00 99.00,422.00 99.00,422.00 99.00,422.00 83.00,425.00 83.00,425.00 83.00,425.00 83.00,425.00 83.00,425.00" stroke-width="0.50" opacity="0.7" style="transition:stroke 250ms" stroke="#00847E" fill="none" stroke-linecap="butt"></polyline><polygon points="81.00,427.00 83.00,423.00 85.00,427.00" transform="rotate(90.0000007648485, 83.00, 425.00)" cx="83" cy="425" r="2" fill="#00847E" opacity="0.7"></polygon></g><g class="key-Moldova"><circle cx="86.00" cy="428.00" r="1.3" fill="#4C6A9C" stroke="none" opacity="0.7"></circle><polyline points="86.00,428.00 86.00,428.00 86.00,428.00 86.00,428.00 86.00,428.00 86.00,428.00 86.00,428.00 86.00,428.00 86.00,428.00 82.00,419.00 82.00,419.00 82.00,419.00 82.00,419.00 82.00,419.00 82.00,419.00 82.00,419.00 82.00,419.00 82.00,419.00" stroke-width="0.50" opacity="0.7" style="transition:stroke 250ms" stroke="#4C6A9C" fill="none" stroke-linecap="butt"></polyline><polygon points="80.00,421.00 82.00,417.00 84.00,421.00" transform="rotate(90.0000007648485, 82.00, 419.00)" cx="82" cy="419" r="2" fill="#4C6A9C" opacity="0.7"></polygon></g><g class="key-Mozambique"><circle cx="658.00" cy="204.00" r="1.3" fill="#A2559C" stroke="none" opacity="0.7"></circle><polyline points="658.00,204.00 658.00,204.00 658.00,204.00 658.00,204.00 658.00,204.00 658.00,204.00 658.00,204.00 658.00,204.00 567.00,249.00 567.00,249.00 567.00,249.00 567.00,249.00 567.00,249.00 567.00,249.00 567.00,249.00 567.00,249.00 567.00,249.00" stroke-width="0.50" opacity="0.7" style="transition:stroke 250ms" stroke="#A2559C" fill="none" stroke-linecap="butt"></polyline><polygon points="565.00,251.00 567.00,247.00 569.00,251.00" transform="rotate(90.0000007648485, 567.00, 249.00)" cx="567" cy="249" r="2" fill="#A2559C" opacity="0.7"></polygon></g><g class="key-Nicaragua"><circle cx="364.00" cy="279.00" r="1.3" fill="#E56E5A" stroke="none" opacity="0.7"></circle><polyline points="364.00,279.00 364.00,279.00 364.00,279.00 364.00,279.00 364.00,279.00 364.00,279.00 364.00,279.00 189.00,349.00 189.00,349.00 189.00,349.00 189.00,349.00 189.00,349.00 189.00,349.00 189.00,349.00 189.00,349.00 189.00,349.00 189.00,349.00" stroke-width="0.50" opacity="0.7" style="transition:stroke 250ms" stroke="#E56E5A" fill="none" stroke-linecap="butt"></polyline><polygon points="187.00,351.00 189.00,347.00 191.00,351.00" transform="rotate(90.0000007648485, 189.00, 349.00)" cx="189" cy="349" r="2" fill="#E56E5A" opacity="0.7"></polygon></g><g class="key-North-Macedonia"><circle cx="128.00" cy="390.00" r="1.3" fill="#4C6A9C" stroke="none" opacity="0.7"></circle><polyline points="128.00,390.00 128.00,390.00 128.00,390.00 128.00,390.00 128.00,390.00 128.00,390.00 128.00,390.00 128.00,390.00 128.00,390.00 93.00,417.00 93.00,417.00 93.00,417.00 93.00,417.00 93.00,417.00 93.00,417.00 85.00,417.00 85.00,417.00 85.00,417.00 85.00,417.00 85.00,417.00 85.00,417.00 85.00,417.00" stroke-width="0.50" opacity="0.7" style="transition:stroke 250ms" stroke="#4C6A9C" fill="none" stroke-linecap="butt"></polyline><polygon points="83.00,419.00 85.00,415.00 87.00,419.00" transform="rotate(90.0000007648485, 85.00, 417.00)" cx="85" cy="417" r="2" fill="#4C6A9C" opacity="0.7"></polygon></g><g class="key-Senegal"><circle cx="519.00" cy="221.00" r="1.3" fill="#A2559C" stroke="none" opacity="0.7"></circle><polyline points="519.00,221.00 519.00,221.00 519.00,221.00 519.00,221.00 519.00,221.00 519.00,221.00 519.00,221.00 519.00,221.00 519.00,221.00 519.00,221.00 519.00,221.00 437.00,271.00 437.00,271.00 437.00,271.00 437.00,271.00 437.00,271.00 437.00,271.00 437.00,271.00 423.00,291.00 423.00,291.00 423.00,291.00" stroke-width="0.50" opacity="0.7" style="transition:stroke 250ms" stroke="#A2559C" fill="none" stroke-linecap="butt"></polyline><polygon points="421.00,293.00 423.00,289.00 425.00,293.00" transform="rotate(90.0000007648485, 423.00, 291.00)" cx="423" cy="291" r="2" fill="#A2559C" opacity="0.7"></polygon></g><g class="key-Bosnia-and-Herzegovina"><circle cx="103.00" cy="407.00" r="1.3" fill="#4C6A9C" stroke="none" opacity="0.7"></circle><polyline points="103.00,407.00 103.00,407.00 103.00,407.00 103.00,407.00 103.00,407.00 103.00,407.00 103.00,407.00 103.00,407.00 91.00,416.00 91.00,416.00 91.00,416.00 91.00,416.00 91.00,416.00 91.00,416.00 91.00,416.00 91.00,416.00" stroke-width="0.50" opacity="0.7" style="transition:stroke 250ms" stroke="#4C6A9C" fill="none" stroke-linecap="butt"></polyline><polygon points="89.00,418.00 91.00,414.00 93.00,418.00" transform="rotate(90.0000007648485, 91.00, 416.00)" cx="91" cy="416" r="2" fill="#4C6A9C" opacity="0.7"></polygon></g><g class="key-Burkina-Faso"><circle cx="688.00" cy="139.00" r="1.3" fill="#A2559C" stroke="none" opacity="0.7"></circle><polyline points="688.00,139.00 688.00,139.00 688.00,139.00 688.00,139.00 688.00,139.00 688.00,139.00 688.00,139.00 688.00,139.00 671.00,156.00 671.00,156.00 671.00,156.00 671.00,156.00 671.00,156.00 671.00,156.00 671.00,156.00" stroke-width="0.50" opacity="0.7" style="transition:stroke 250ms" stroke="#A2559C" fill="none" stroke-linecap="butt"></polyline><polygon points="669.00,158.00 671.00,154.00 673.00,158.00" transform="rotate(90.0000007648485, 671.00, 156.00)" cx="671" cy="156" r="2" fill="#A2559C" opacity="0.7"></polygon></g><g class="key-Mali"><circle cx="653.00" cy="216.00" r="1.3" fill="#A2559C" stroke="none" opacity="0.7"></circle><polyline points="653.00,216.00 653.00,216.00 653.00,216.00 653.00,216.00 653.00,216.00 653.00,216.00 653.00,216.00 653.00,216.00 653.00,216.00 653.00,216.00 580.00,241.00 580.00,241.00 580.00,241.00 580.00,241.00 580.00,241.00 580.00,241.00 534.00,266.00 534.00,266.00 534.00,266.00 534.00,266.00 534.00,266.00" stroke-width="0.50" opacity="0.7" style="transition:stroke 250ms" stroke="#A2559C" fill="none" stroke-linecap="butt"></polyline><polygon points="532.00,268.00 534.00,264.00 536.00,268.00" transform="rotate(90.0000007648485, 534.00, 266.00)" cx="534" cy="266" r="2" fill="#A2559C" opacity="0.7"></polygon></g><g class="key-Namibia"><circle cx="372.00" cy="327.00" r="1.3" fill="#A2559C" stroke="none" opacity="0.7"></circle><polyline points="372.00,327.00 372.00,327.00 372.00,327.00 372.00,327.00 372.00,327.00 372.00,327.00 372.00,327.00 372.00,327.00 372.00,327.00 318.00,352.00 318.00,352.00 318.00,352.00 318.00,352.00 318.00,352.00 318.00,352.00 318.00,352.00 318.00,352.00 318.00,352.00" stroke-width="0.50" opacity="0.7" style="transition:stroke 250ms" stroke="#A2559C" fill="none" stroke-linecap="butt"></polyline><polygon points="316.00,354.00 318.00,350.00 320.00,354.00" transform="rotate(90.0000007648485, 318.00, 352.00)" cx="318" cy="352" r="2" fill="#A2559C" opacity="0.7"></polygon></g><g class="key-Niger"><circle cx="717.00" cy="106.00" r="1.3" fill="#A2559C" stroke="none" opacity="0.7"></circle><polyline points="717.00,106.00 717.00,106.00 717.00,106.00 717.00,106.00 717.00,106.00 717.00,106.00 717.00,106.00 717.00,106.00 717.00,106.00 696.00,160.00 696.00,160.00 696.00,160.00 696.00,160.00 696.00,160.00 696.00,160.00 696.00,160.00 696.00,160.00" stroke-width="0.50" opacity="0.7" style="transition:stroke 250ms" stroke="#A2559C" fill="none" stroke-linecap="butt"></polyline><polygon points="694.00,162.00 696.00,158.00 698.00,162.00" transform="rotate(90.0000007648485, 696.00, 160.00)" cx="696" cy="160" r="2" fill="#A2559C" opacity="0.7"></polygon></g><g class="key-Suriname"><circle cx="164.00" cy="340.00" r="1.3" fill="#883039" stroke="none" opacity="0.7"></circle><polyline points="164.00,340.00 164.00,340.00 164.00,340.00 164.00,340.00 164.00,340.00 164.00,340.00 164.00,340.00 164.00,340.00 141.00,367.00 141.00,367.00 141.00,367.00 141.00,367.00 141.00,367.00 141.00,367.00 122.00,409.00 122.00,409.00 122.00,409.00 122.00,409.00 122.00,409.00 122.00,409.00 122.00,409.00" stroke-width="0.50" opacity="0.7" style="transition:stroke 250ms" stroke="#883039" fill="none" stroke-linecap="butt"></polyline><polygon points="120.00,411.00 122.00,407.00 124.00,411.00" transform="rotate(90.0000007648485, 122.00, 409.00)" cx="122" cy="409" r="2" fill="#883039" opacity="0.7"></polygon></g><g class="key-Trinidad-and-Tobago"><circle cx="115.00" cy="431.00" r="1.3" fill="#E56E5A" stroke="none" opacity="0.7"></circle><polyline points="115.00,431.00 115.00,431.00 115.00,431.00 115.00,431.00 115.00,431.00 115.00,431.00 115.00,431.00 115.00,431.00 110.00,432.00 110.00,432.00 110.00,432.00 110.00,432.00 110.00,432.00 110.00,432.00 110.00,432.00 110.00,432.00" stroke-width="0.50" opacity="0.7" style="transition:stroke 250ms" stroke="#E56E5A" fill="none" stroke-linecap="butt"></polyline><polygon points="108.00,434.00 110.00,430.00 112.00,434.00" transform="rotate(90.0000007648485, 110.00, 432.00)" cx="110" cy="432" r="2" fill="#E56E5A" opacity="0.7"></polygon></g><g class="key-Turkmenistan"><circle cx="98.00" cy="417.00" r="1.3" fill="#00847E" stroke="none" opacity="0.7"></circle><polyline points="98.00,417.00 98.00,417.00 98.00,417.00 98.00,417.00 98.00,417.00 98.00,417.00 98.00,417.00 98.00,417.00 98.00,417.00 98.00,417.00 83.00,443.00 83.00,443.00 83.00,443.00 83.00,443.00 83.00,443.00 83.00,443.00 83.00,443.00 82.00,455.00 82.00,455.00 82.00,455.00 82.00,455.00" stroke-width="0.50" opacity="0.7" style="transition:stroke 250ms" stroke="#00847E" fill="none" stroke-linecap="butt"></polyline><polygon points="80.00,457.00 82.00,453.00 84.00,457.00" transform="rotate(90.0000007648485, 82.00, 455.00)" cx="82" cy="455" r="2" fill="#00847E" opacity="0.7"></polygon></g><g class="key-Yemen"><circle cx="338.00" cy="307.00" r="1.3" fill="#00847E" stroke="none" opacity="0.7"></circle><polyline points="338.00,307.00 338.00,307.00 338.00,307.00 338.00,307.00 338.00,307.00 338.00,307.00 338.00,307.00 338.00,307.00 338.00,307.00 277.00,328.00 277.00,328.00 277.00,328.00 277.00,328.00 277.00,328.00 277.00,328.00 277.00,328.00 277.00,328.00 277.00,328.00" stroke-width="0.50" opacity="0.7" style="transition:stroke 250ms" stroke="#00847E" fill="none" stroke-linecap="butt"></polyline><polygon points="275.00,330.00 277.00,326.00 279.00,330.00" transform="rotate(90.0000007648485, 277.00, 328.00)" cx="277" cy="328" r="2" fill="#00847E" opacity="0.7"></polygon></g><g class="key-Dominican-Republic"><circle cx="126.00" cy="387.00" r="1.3" fill="#E56E5A" stroke="none" opacity="0.7"></circle><polyline points="126.00,387.00 126.00,387.00 126.00,387.00 126.00,387.00 126.00,387.00 126.00,387.00 126.00,387.00 126.00,387.00 126.00,387.00 101.00,409.00 101.00,409.00 101.00,409.00 101.00,409.00 101.00,409.00 101.00,409.00 95.00,409.00 95.00,409.00 95.00,409.00 95.00,409.00 95.00,409.00" stroke-width="0.50" opacity="0.7" style="transition:stroke 250ms" stroke="#E56E5A" fill="none" stroke-linecap="butt"></polyline><polygon points="93.00,411.00 95.00,407.00 97.00,411.00" transform="rotate(90.0000007648485, 95.00, 409.00)" cx="95" cy="409" r="2" fill="#E56E5A" opacity="0.7"></polygon></g><g class="key-Liberia"><circle cx="638.00" cy="243.00" r="1.3" fill="#A2559C" stroke="none" opacity="0.7"></circle><polyline points="638.00,243.00 638.00,243.00 638.00,243.00 638.00,243.00 638.00,243.00 638.00,243.00 638.00,243.00 638.00,243.00 638.00,243.00 514.00,294.00 514.00,294.00 514.00,294.00 514.00,294.00 514.00,294.00 514.00,294.00 437.00,310.00 437.00,310.00 437.00,310.00 437.00,310.00 437.00,310.00" stroke-width="0.50" opacity="0.7" style="transition:stroke 250ms" stroke="#A2559C" fill="none" stroke-linecap="butt"></polyline><polygon points="435.00,312.00 437.00,308.00 439.00,312.00" transform="rotate(90.0000007648485, 437.00, 310.00)" cx="437" cy="310" r="2" fill="#A2559C" opacity="0.7"></polygon></g><g class="key-Ukraine"><circle cx="78.00" cy="429.00" r="1.3" fill="#4C6A9C" stroke="none" opacity="0.7"></circle><polyline points="78.00,429.00 78.00,429.00 78.00,429.00 78.00,429.00 78.00,429.00 78.00,429.00 78.00,429.00 78.00,429.00 77.00,447.00 77.00,447.00 77.00,447.00 77.00,447.00 77.00,447.00 77.00,447.00 77.00,447.00 77.00,447.00" stroke-width="0.50" opacity="0.7" style="transition:stroke 250ms" stroke="#4C6A9C" fill="none" stroke-linecap="butt"></polyline><polygon points="75.00,449.00 77.00,445.00 79.00,449.00" transform="rotate(90.0000007648485, 77.00, 447.00)" cx="77" cy="447" r="2" fill="#4C6A9C" opacity="0.7"></polygon></g><g class="key-Zambia"><circle cx="525.00" cy="281.00" r="1.3" fill="#A2559C" stroke="none" opacity="0.7"></circle><polyline points="525.00,281.00 525.00,281.00 525.00,281.00 525.00,281.00 525.00,281.00 525.00,281.00 525.00,281.00 525.00,281.00 525.00,281.00 443.00,312.00 443.00,312.00 443.00,312.00 443.00,312.00 443.00,312.00 406.00,321.00 406.00,321.00 406.00,321.00 406.00,321.00 406.00,321.00 406.00,321.00" stroke-width="0.50" opacity="0.7" style="transition:stroke 250ms" stroke="#A2559C" fill="none" stroke-linecap="butt"></polyline><polygon points="404.00,323.00 406.00,319.00 408.00,323.00" transform="rotate(90.0000007648485, 406.00, 321.00)" cx="406" cy="321" r="2" fill="#A2559C" opacity="0.7"></polygon></g><g class="key-Albania"><circle cx="90.00" cy="416.00" r="1.3" fill="#4C6A9C" stroke="none" opacity="0.7"></circle><polyline points="90.00,416.00 90.00,416.00 90.00,416.00 90.00,416.00 90.00,416.00 90.00,416.00 90.00,416.00 90.00,416.00 90.00,416.00 90.00,416.00 81.00,405.00 81.00,405.00 81.00,405.00 81.00,405.00 81.00,405.00 81.00,405.00 81.00,405.00 81.00,405.00 81.00,405.00" stroke-width="0.50" opacity="0.7" style="transition:stroke 250ms" stroke="#4C6A9C" fill="none" stroke-linecap="butt"></polyline><polygon points="79.00,407.00 81.00,403.00 83.00,407.00" transform="rotate(90.0000007648485, 81.00, 405.00)" cx="81" cy="405" r="2" fill="#4C6A9C" opacity="0.7"></polygon></g><g class="key-Kenya"><circle cx="436.00" cy="330.00" r="1.3" fill="#A2559C" stroke="none" opacity="0.7"></circle><polyline points="436.00,330.00 436.00,330.00 436.00,330.00 436.00,330.00 436.00,330.00 436.00,330.00 436.00,330.00 436.00,330.00 436.00,330.00 334.00,346.00 334.00,346.00 334.00,346.00 334.00,346.00 334.00,346.00 334.00,346.00 334.00,346.00 334.00,346.00" stroke-width="0.50" opacity="0.7" style="transition:stroke 250ms" stroke="#A2559C" fill="none" stroke-linecap="butt"></polyline><polygon points="332.00,348.00 334.00,344.00 336.00,348.00" transform="rotate(90.0000007648485, 334.00, 346.00)" cx="334" cy="346" r="2" fill="#A2559C" opacity="0.7"></polygon></g><g class="key-Madagascar"><circle cx="598.00" cy="241.00" r="1.3" fill="#A2559C" stroke="none" opacity="0.7"></circle><polyline points="598.00,241.00 598.00,241.00 598.00,241.00 598.00,241.00 598.00,241.00 598.00,241.00 598.00,241.00 598.00,241.00 598.00,241.00 598.00,241.00 598.00,241.00 549.00,258.00 549.00,258.00 549.00,258.00 549.00,258.00 549.00,258.00 549.00,258.00 529.00,257.00 529.00,257.00" stroke-width="0.50" opacity="0.7" style="transition:stroke 250ms" stroke="#A2559C" fill="none" stroke-linecap="butt"></polyline><polygon points="527.00,259.00 529.00,255.00 531.00,259.00" transform="rotate(90.0000007648485, 529.00, 257.00)" cx="529" cy="257" r="2" fill="#A2559C" opacity="0.7"></polygon></g><g class="key-Sao-Tome-and-Principe"><circle cx="357.00" cy="348.00" r="1.3" fill="#A2559C" stroke="none" opacity="0.7"></circle><polyline points="357.00,348.00 357.00,348.00 357.00,348.00 357.00,348.00 357.00,348.00 357.00,348.00 357.00,348.00 357.00,348.00 357.00,348.00 227.00,382.00 227.00,382.00 227.00,382.00 227.00,382.00 227.00,382.00 158.00,385.00 158.00,385.00 158.00,385.00 158.00,385.00 158.00,385.00" stroke-width="0.50" opacity="0.7" style="transition:stroke 250ms" stroke="#A2559C" fill="none" stroke-linecap="butt"></polyline><polygon points="156.00,387.00 158.00,383.00 160.00,387.00" transform="rotate(90.0000007648485, 158.00, 385.00)" cx="158" cy="385" r="2" fill="#A2559C" opacity="0.7"></polygon></g><g class="key-East-Timor"><circle cx="556.00" cy="288.00" r="1.3" fill="#00847E" stroke="none" opacity="0.7"></circle><polyline points="556.00,288.00 556.00,288.00 556.00,288.00 556.00,288.00 556.00,288.00 556.00,288.00 556.00,288.00 556.00,288.00 556.00,288.00 399.00,343.00 399.00,343.00 399.00,343.00 399.00,343.00 399.00,343.00 399.00,343.00 399.00,343.00 399.00,343.00 399.00,343.00" stroke-width="0.50" opacity="0.7" style="transition:stroke 250ms" stroke="#00847E" fill="none" stroke-linecap="butt"></polyline><polygon points="397.00,345.00 399.00,341.00 401.00,345.00" transform="rotate(90.0000007648485, 399.00, 343.00)" cx="399" cy="343" r="2" fill="#00847E" opacity="0.7"></polygon></g><g class="key-Guyana"><circle cx="113.00" cy="380.00" r="1.3" fill="#883039" stroke="none" opacity="0.7"></circle><polyline points="113.00,380.00 113.00,380.00 113.00,380.00 113.00,380.00 113.00,380.00 113.00,380.00 113.00,380.00 113.00,380.00 98.00,381.00 98.00,381.00 98.00,381.00 98.00,381.00 98.00,381.00 88.00,403.00 88.00,403.00 88.00,403.00 88.00,403.00 88.00,403.00" stroke-width="0.50" opacity="0.7" style="transition:stroke 250ms" stroke="#883039" fill="none" stroke-linecap="butt"></polyline><polygon points="86.00,405.00 88.00,401.00 90.00,405.00" transform="rotate(90.0000007648485, 88.00, 403.00)" cx="88" cy="403" r="2" fill="#883039" opacity="0.7"></polygon></g><g class="key-Lesotho"><circle cx="367.00" cy="340.00" r="1.3" fill="#A2559C" stroke="none" opacity="0.7"></circle><polyline points="367.00,340.00 367.00,340.00 367.00,340.00 367.00,340.00 367.00,340.00 367.00,340.00 367.00,340.00 367.00,340.00 271.00,351.00 271.00,351.00 271.00,351.00 271.00,351.00 271.00,351.00 211.00,369.00 211.00,369.00 211.00,369.00 211.00,369.00 211.00,369.00" stroke-width="0.50" opacity="0.7" style="transition:stroke 250ms" stroke="#A2559C" fill="none" stroke-linecap="butt"></polyline><polygon points="209.00,371.00 211.00,367.00 213.00,371.00" transform="rotate(90.0000007648485, 211.00, 369.00)" cx="211" cy="369" r="2" fill="#A2559C" opacity="0.7"></polygon></g><g class="key-Afghanistan"><circle cx="600.00" cy="235.00" r="1.3" fill="#00847E" stroke="none" opacity="0.7"></circle><polyline points="600.00,235.00 600.00,235.00 600.00,235.00 600.00,235.00 600.00,235.00 600.00,235.00 600.00,235.00 600.00,235.00 518.00,261.00 518.00,261.00 518.00,261.00 518.00,261.00 518.00,261.00 518.00,261.00 518.00,261.00 518.00,261.00" stroke-width="0.50" opacity="0.7" style="transition:stroke 250ms" stroke="#00847E" fill="none" stroke-linecap="butt"></polyline><polygon points="516.00,263.00 518.00,259.00 520.00,263.00" transform="rotate(90.0000007648485, 518.00, 261.00)" cx="518" cy="261" r="2" fill="#00847E" opacity="0.7"></polygon></g><g class="key-Armenia"><circle cx="78.00" cy="434.00" r="1.3" fill="#00847E" stroke="none" opacity="0.7"></circle><polyline points="78.00,434.00 78.00,434.00 78.00,434.00 78.00,434.00 78.00,434.00 78.00,434.00 78.00,434.00 78.00,434.00 77.00,434.00 77.00,434.00 77.00,434.00 77.00,434.00 77.00,434.00 77.00,434.00 77.00,434.00 77.00,434.00" stroke-width="0.50" opacity="0.7" style="transition:stroke 250ms" stroke="#00847E" fill="none" stroke-linecap="butt"></polyline><polygon points="75.00,436.00 77.00,432.00 79.00,436.00" transform="rotate(90.0000007648485, 77.00, 434.00)" cx="77" cy="434" r="2" fill="#00847E" opacity="0.7"></polygon></g><g class="key-Burundi"><circle cx="643.00" cy="248.00" r="1.3" fill="#A2559C" stroke="none" opacity="0.7"></circle><polyline points="643.00,248.00 643.00,248.00 643.00,248.00 643.00,248.00 643.00,248.00 643.00,248.00 643.00,248.00 643.00,248.00 643.00,248.00 594.00,265.00 594.00,265.00 594.00,265.00 594.00,265.00 594.00,265.00 594.00,265.00 594.00,265.00 594.00,265.00" stroke-width="0.50" opacity="0.7" style="transition:stroke 250ms" stroke="#A2559C" fill="none" stroke-linecap="butt"></polyline><polygon points="592.00,267.00 594.00,263.00 596.00,267.00" transform="rotate(90.0000007648485, 594.00, 265.00)" cx="594" cy="265" r="2" fill="#A2559C" opacity="0.7"></polygon></g><g class="key-Cambodia"><circle cx="401.00" cy="325.00" r="1.3" fill="#00847E" stroke="none" opacity="0.7"></circle><polyline points="401.00,325.00 401.00,325.00 401.00,325.00 401.00,325.00 401.00,325.00 401.00,325.00 401.00,325.00 401.00,325.00 329.00,344.00 329.00,344.00 329.00,344.00 329.00,344.00 329.00,344.00 191.00,376.00 191.00,376.00 191.00,376.00 191.00,376.00" stroke-width="0.50" opacity="0.7" style="transition:stroke 250ms" stroke="#00847E" fill="none" stroke-linecap="butt"></polyline><polygon points="189.00,378.00 191.00,374.00 193.00,378.00" transform="rotate(90.0000007648485, 191.00, 376.00)" cx="191" cy="376" r="2" fill="#00847E" opacity="0.7"></polygon></g><g class="key-Chad"><circle cx="697.00" cy="154.00" r="1.3" fill="#A2559C" stroke="none" opacity="0.7"></circle><polyline points="697.00,154.00 697.00,154.00 697.00,154.00 697.00,154.00 697.00,154.00 697.00,154.00 697.00,154.00 697.00,154.00 692.00,172.00 692.00,172.00 692.00,172.00 692.00,172.00 681.00,178.00 681.00,178.00 681.00,178.00 681.00,178.00 681.00,178.00" stroke-width="0.50" opacity="0.7" style="transition:stroke 250ms" stroke="#A2559C" fill="none" stroke-linecap="butt"></polyline><polygon points="679.00,180.00 681.00,176.00 683.00,180.00" transform="rotate(90.0000007648485, 681.00, 178.00)" cx="681" cy="178" r="2" fill="#A2559C" opacity="0.7"></polygon></g><g class="key-Colombia"><circle cx="117.00" cy="393.00" r="1.3" fill="#883039" stroke="none" opacity="0.7"></circle><polyline points="117.00,393.00 117.00,393.00 117.00,393.00 117.00,393.00 117.00,393.00 117.00,393.00 117.00,393.00 117.00,393.00 109.00,392.00 109.00,392.00 109.00,392.00 109.00,392.00 109.00,392.00 109.00,392.00 109.00,392.00 109.00,392.00" stroke-width="0.50" opacity="0.7" style="transition:stroke 250ms" stroke="#883039" fill="none" stroke-linecap="butt"></polyline><polygon points="107.00,394.00 109.00,390.00 111.00,394.00" transform="rotate(90.0000007648485, 109.00, 392.00)" cx="109" cy="392" r="2" fill="#883039" opacity="0.7"></polygon></g><g class="key-Eswatini"><circle cx="278.00" cy="358.00" r="1.3" fill="#A2559C" stroke="none" opacity="0.7"></circle><polyline points="278.00,358.00 278.00,358.00 278.00,358.00 278.00,358.00 278.00,358.00 278.00,358.00 278.00,358.00 278.00,358.00 208.00,376.00 208.00,376.00 208.00,376.00 208.00,376.00 208.00,376.00 208.00,376.00 208.00,376.00" stroke-width="0.50" opacity="0.7" style="transition:stroke 250ms" stroke="#A2559C" fill="none" stroke-linecap="butt"></polyline><polygon points="206.00,378.00 208.00,374.00 210.00,378.00" transform="rotate(90.0000007648485, 208.00, 376.00)" cx="208" cy="376" r="2" fill="#A2559C" opacity="0.7"></polygon></g><g class="key-Kazakhstan"><circle cx="82.00" cy="431.00" r="1.3" fill="#00847E" stroke="none" opacity="0.7"></circle><polyline points="82.00,431.00 82.00,431.00 82.00,431.00 82.00,431.00 82.00,431.00 82.00,431.00 82.00,431.00 82.00,431.00 79.00,438.00 79.00,438.00 79.00,438.00 79.00,438.00 79.00,438.00 79.00,438.00 79.00,438.00 79.00,438.00" stroke-width="0.50" opacity="0.7" style="transition:stroke 250ms" stroke="#00847E" fill="none" stroke-linecap="butt"></polyline><polygon points="77.00,440.00 79.00,436.00 81.00,440.00" transform="rotate(90.0000007648485, 79.00, 438.00)" cx="79" cy="438" r="2" fill="#00847E" opacity="0.7"></polygon></g><g class="key-Malawi"><circle cx="536.00" cy="310.00" r="1.3" fill="#A2559C" stroke="none" opacity="0.7"></circle><polyline points="536.00,310.00 536.00,310.00 536.00,310.00 536.00,310.00 536.00,310.00 536.00,310.00 536.00,310.00 536.00,310.00 438.00,339.00 438.00,339.00 438.00,339.00 438.00,339.00 438.00,339.00 420.00,339.00 420.00,339.00 420.00,339.00 420.00,339.00" stroke-width="0.50" opacity="0.7" style="transition:stroke 250ms" stroke="#A2559C" fill="none" stroke-linecap="butt"></polyline><polygon points="418.00,341.00 420.00,337.00 422.00,341.00" transform="rotate(90.0000007648485, 420.00, 339.00)" cx="420" cy="339" r="2" fill="#A2559C" opacity="0.7"></polygon></g><g class="key-Mongolia"><circle cx="211.00" cy="384.00" r="1.3" fill="#00847E" stroke="none" opacity="0.7"></circle><polyline points="211.00,384.00 211.00,384.00 211.00,384.00 211.00,384.00 211.00,384.00 211.00,384.00 211.00,384.00 168.00,381.00 168.00,381.00 168.00,381.00 168.00,381.00 144.00,403.00 144.00,403.00 144.00,403.00 144.00,403.00 144.00,403.00 144.00,403.00" stroke-width="0.50" opacity="0.7" style="transition:stroke 250ms" stroke="#00847E" fill="none" stroke-linecap="butt"></polyline><polygon points="142.00,405.00 144.00,401.00 146.00,405.00" transform="rotate(90.0000007648485, 144.00, 403.00)" cx="144" cy="403" r="2" fill="#00847E" opacity="0.7"></polygon></g><g class="key-Palestine"><circle cx="83.00" cy="439.00" r="1.3" fill="#00847E" stroke="none" opacity="0.7"></circle><polyline points="83.00,439.00 83.00,439.00 83.00,439.00 83.00,439.00 83.00,439.00 83.00,439.00 83.00,439.00 83.00,439.00 81.00,435.00 81.00,435.00 81.00,435.00 81.00,435.00 79.00,445.00 79.00,445.00 79.00,445.00 79.00,445.00 79.00,445.00" stroke-width="0.50" opacity="0.7" style="transition:stroke 250ms" stroke="#00847E" fill="none" stroke-linecap="butt"></polyline><polygon points="77.00,447.00 79.00,443.00 81.00,447.00" transform="rotate(90.0000007648485, 79.00, 445.00)" cx="79" cy="445" r="2" fill="#00847E" opacity="0.7"></polygon></g><g class="key-Rwanda"><circle cx="537.00" cy="300.00" r="1.3" fill="#A2559C" stroke="none" opacity="0.7"></circle><polyline points="537.00,300.00 537.00,300.00 537.00,300.00 537.00,300.00 537.00,300.00 537.00,300.00 537.00,300.00 537.00,300.00 472.00,315.00 472.00,315.00 472.00,315.00 472.00,315.00 412.00,330.00 412.00,330.00 412.00,330.00 412.00,330.00 412.00,330.00" stroke-width="0.50" opacity="0.7" style="transition:stroke 250ms" stroke="#A2559C" fill="none" stroke-linecap="butt"></polyline><polygon points="410.00,332.00 412.00,328.00 414.00,332.00" transform="rotate(90.0000007648485, 412.00, 330.00)" cx="412" cy="330" r="2" fill="#A2559C" opacity="0.7"></polygon></g><g class="key-Serbia"><circle cx="77.00" cy="373.00" r="1.3" fill="#4C6A9C" stroke="none" opacity="0.7"></circle><polyline points="77.00,373.00 77.00,373.00 77.00,373.00 77.00,373.00 77.00,373.00 77.00,373.00 77.00,373.00 77.00,373.00 78.00,374.00 78.00,374.00 78.00,374.00 78.00,374.00 76.00,414.00 76.00,414.00 76.00,414.00 76.00,414.00 76.00,414.00" stroke-width="0.50" opacity="0.7" style="transition:stroke 250ms" stroke="#4C6A9C" fill="none" stroke-linecap="butt"></polyline><polygon points="74.00,416.00 76.00,412.00 78.00,416.00" transform="rotate(90.0000007648485, 76.00, 414.00)" cx="76" cy="414" r="2" fill="#4C6A9C" opacity="0.7"></polygon></g><g class="key-Sudan"><circle cx="469.00" cy="255.00" r="1.3" fill="#A2559C" stroke="none" opacity="0.7"></circle><polyline points="469.00,255.00 469.00,255.00 469.00,255.00 469.00,255.00 469.00,255.00 469.00,255.00 469.00,255.00 469.00,255.00 437.00,275.00 437.00,275.00 437.00,275.00 437.00,275.00 437.00,275.00 437.00,275.00 437.00,275.00" stroke-width="0.50" opacity="0.7" style="transition:stroke 250ms" stroke="#A2559C" fill="none" stroke-linecap="butt"></polyline><polygon points="435.00,277.00 437.00,273.00 439.00,277.00" transform="rotate(90.0000007648485, 437.00, 275.00)" cx="437" cy="275" r="2" fill="#A2559C" opacity="0.7"></polygon></g><g class="key-Tanzania"><circle cx="543.00" cy="301.00" r="1.3" fill="#A2559C" stroke="none" opacity="0.7"></circle><polyline points="543.00,301.00 543.00,301.00 543.00,301.00 543.00,301.00 543.00,301.00 543.00,301.00 543.00,301.00 543.00,301.00 470.00,307.00 470.00,307.00 470.00,307.00 470.00,307.00 470.00,307.00 470.00,307.00 470.00,307.00 470.00,307.00" stroke-width="0.50" opacity="0.7" style="transition:stroke 250ms" stroke="#A2559C" fill="none" stroke-linecap="butt"></polyline><polygon points="468.00,309.00 470.00,305.00 472.00,309.00" transform="rotate(90.0000007648485, 470.00, 307.00)" cx="470" cy="307" r="2" fill="#A2559C" opacity="0.7"></polygon></g><g class="key-Togo"><circle cx="477.00" cy="260.00" r="1.3" fill="#A2559C" stroke="none" opacity="0.7"></circle><polyline points="477.00,260.00 477.00,260.00 477.00,260.00 477.00,260.00 477.00,260.00 477.00,260.00 477.00,260.00 456.00,265.00 456.00,265.00 456.00,265.00 456.00,265.00 372.00,309.00 372.00,309.00 372.00,309.00 372.00,309.00 372.00,309.00 372.00,309.00" stroke-width="0.50" opacity="0.7" style="transition:stroke 250ms" stroke="#A2559C" fill="none" stroke-linecap="butt"></polyline><polygon points="370.00,311.00 372.00,307.00 374.00,311.00" transform="rotate(90.0000007648485, 372.00, 309.00)" cx="372" cy="309" r="2" fill="#A2559C" opacity="0.7"></polygon></g><g class="key-Zimbabwe"><circle cx="325.00" cy="366.00" r="1.3" fill="#A2559C" stroke="none" opacity="0.7"></circle><polyline points="325.00,366.00 325.00,366.00 325.00,366.00 325.00,366.00 325.00,366.00 325.00,366.00 325.00,366.00 325.00,366.00 284.00,369.00 284.00,369.00 284.00,369.00 284.00,369.00 284.00,369.00 254.00,374.00 254.00,374.00 254.00,374.00 254.00,374.00" stroke-width="0.50" opacity="0.7" style="transition:stroke 250ms" stroke="#A2559C" fill="none" stroke-linecap="butt"></polyline><polygon points="252.00,376.00 254.00,372.00 256.00,376.00" transform="rotate(90.0000007648485, 254.00, 374.00)" cx="254" cy="374" r="2" fill="#A2559C" opacity="0.7"></polygon></g><g class="key-Belize"><circle cx="126.00" cy="387.00" r="1.3" fill="#E56E5A" stroke="none" opacity="0.7"></circle><polyline points="126.00,387.00 126.00,387.00 126.00,387.00 126.00,387.00 126.00,387.00 126.00,387.00 126.00,387.00 126.00,387.00 110.00,395.00 110.00,395.00 110.00,395.00 110.00,395.00 110.00,395.00 110.00,395.00 110.00,395.00" stroke-width="0.50" opacity="0.7" style="transition:stroke 250ms" stroke="#E56E5A" fill="none" stroke-linecap="butt"></polyline><polygon points="108.00,397.00 110.00,393.00 112.00,397.00" transform="rotate(90.0000007648485, 110.00, 395.00)" cx="110" cy="395" r="2" fill="#E56E5A" opacity="0.7"></polygon></g><g class="key-Cameroon"><circle cx="404.00" cy="268.00" r="1.3" fill="#A2559C" stroke="none" opacity="0.7"></circle><polyline points="404.00,268.00 404.00,268.00 404.00,268.00 404.00,268.00 404.00,268.00 404.00,268.00 404.00,268.00 389.00,273.00 389.00,273.00 389.00,273.00 389.00,273.00 374.00,278.00 374.00,278.00 374.00,278.00 374.00,278.00 374.00,278.00" stroke-width="0.50" opacity="0.7" style="transition:stroke 250ms" stroke="#A2559C" fill="none" stroke-linecap="butt"></polyline><polygon points="372.00,280.00 374.00,276.00 376.00,280.00" transform="rotate(90.0000007648485, 374.00, 278.00)" cx="374" cy="278" r="2" fill="#A2559C" opacity="0.7"></polygon></g><g class="key-Cote-d__0027Ivoire"><circle cx="482.00" cy="281.00" r="1.3" fill="#A2559C" stroke="none" opacity="0.7"></circle><polyline points="482.00,281.00 482.00,281.00 482.00,281.00 482.00,281.00 482.00,281.00 482.00,281.00 482.00,281.00 482.00,281.00 393.00,295.00 393.00,295.00 393.00,295.00 393.00,295.00 393.00,295.00 393.00,295.00 393.00,295.00 393.00,295.00" stroke-width="0.50" opacity="0.7" style="transition:stroke 250ms" stroke="#A2559C" fill="none" stroke-linecap="butt"></polyline><polygon points="391.00,297.00 393.00,293.00 395.00,297.00" transform="rotate(90.0000007648485, 393.00, 295.00)" cx="393" cy="295" r="2" fill="#A2559C" opacity="0.7"></polygon></g><g class="key-Ghana"><circle cx="295.00" cy="325.00" r="1.3" fill="#A2559C" stroke="none" opacity="0.7"></circle><polyline points="295.00,325.00 295.00,325.00 295.00,325.00 295.00,325.00 295.00,325.00 295.00,325.00 295.00,325.00 272.00,345.00 272.00,345.00 272.00,345.00 246.00,349.00 246.00,349.00 246.00,349.00 246.00,349.00 246.00,349.00 246.00,349.00" stroke-width="0.50" opacity="0.7" style="transition:stroke 250ms" stroke="#A2559C" fill="none" stroke-linecap="butt"></polyline><polygon points="244.00,351.00 246.00,347.00 248.00,351.00" transform="rotate(90.0000007648485, 246.00, 349.00)" cx="246" cy="349" r="2" fill="#A2559C" opacity="0.7"></polygon></g><g class="key-Iraq"><circle cx="175.00" cy="401.00" r="1.3" fill="#00847E" stroke="none" opacity="0.7"></circle><polyline points="175.00,401.00 175.00,401.00 175.00,401.00 175.00,401.00 175.00,401.00 175.00,401.00 175.00,401.00 175.00,401.00 175.00,401.00 135.00,416.00 135.00,416.00 135.00,416.00 135.00,416.00 135.00,416.00 135.00,416.00 135.00,416.00" stroke-width="0.50" opacity="0.7" style="transition:stroke 250ms" stroke="#00847E" fill="none" stroke-linecap="butt"></polyline><polygon points="133.00,418.00 135.00,414.00 137.00,418.00" transform="rotate(90.0000007648485, 135.00, 416.00)" cx="135" cy="416" r="2" fill="#00847E" opacity="0.7"></polygon></g><g class="key-Laos"><circle cx="353.00" cy="287.00" r="1.3" fill="#00847E" stroke="none" opacity="0.7"></circle><polyline points="353.00,287.00 353.00,287.00 353.00,287.00 353.00,287.00 353.00,287.00 353.00,287.00 353.00,287.00 353.00,287.00 353.00,287.00 235.00,333.00 235.00,333.00 235.00,333.00 235.00,333.00 235.00,333.00 235.00,333.00 235.00,333.00" stroke-width="0.50" opacity="0.7" style="transition:stroke 250ms" stroke="#00847E" fill="none" stroke-linecap="butt"></polyline><polygon points="233.00,335.00 235.00,331.00 237.00,335.00" transform="rotate(90.0000007648485, 235.00, 333.00)" cx="235" cy="333" r="2" fill="#00847E" opacity="0.7"></polygon></g><g class="key-Mauritania"><circle cx="508.00" cy="244.00" r="1.3" fill="#A2559C" stroke="none" opacity="0.7"></circle><polyline points="508.00,244.00 508.00,244.00 508.00,244.00 508.00,244.00 508.00,244.00 508.00,244.00 508.00,244.00 508.00,244.00 463.00,263.00 463.00,263.00 463.00,263.00 463.00,263.00 472.00,252.00 472.00,252.00 472.00,252.00 472.00,252.00" stroke-width="0.50" opacity="0.7" style="transition:stroke 250ms" stroke="#A2559C" fill="none" stroke-linecap="butt"></polyline><polygon points="470.00,254.00 472.00,250.00 474.00,254.00" transform="rotate(90.0000007648485, 472.00, 252.00)" cx="472" cy="252" r="2" fill="#A2559C" opacity="0.7"></polygon></g><g class="key-Morocco"><circle cx="195.00" cy="347.00" r="1.3" fill="#A2559C" stroke="none" opacity="0.7"></circle><polyline points="195.00,347.00 195.00,347.00 195.00,347.00 195.00,347.00 195.00,347.00 195.00,347.00 195.00,347.00 195.00,347.00 195.00,347.00 130.00,374.00 130.00,374.00 130.00,374.00 130.00,374.00 130.00,374.00 130.00,374.00 130.00,374.00" stroke-width="0.50" opacity="0.7" style="transition:stroke 250ms" stroke="#A2559C" fill="none" stroke-linecap="butt"></polyline><polygon points="128.00,376.00 130.00,372.00 132.00,376.00" transform="rotate(90.0000007648485, 130.00, 374.00)" cx="130" cy="374" r="2" fill="#A2559C" opacity="0.7"></polygon></g><g class="key-Nepal"><circle cx="346.00" cy="330.00" r="1.3" fill="#00847E" stroke="none" opacity="0.7"></circle><polyline points="346.00,330.00 346.00,330.00 346.00,330.00 346.00,330.00 346.00,330.00 346.00,330.00 346.00,330.00 346.00,330.00 253.00,368.00 253.00,368.00 253.00,368.00 253.00,368.00 198.00,375.00 198.00,375.00 198.00,375.00 198.00,375.00" stroke-width="0.50" opacity="0.7" style="transition:stroke 250ms" stroke="#00847E" fill="none" stroke-linecap="butt"></polyline><polygon points="196.00,377.00 198.00,373.00 200.00,377.00" transform="rotate(90.0000007648485, 198.00, 375.00)" cx="198" cy="375" r="2" fill="#00847E" opacity="0.7"></polygon></g><g class="key-Tunisia"><circle cx="85.00" cy="397.00" r="1.3" fill="#A2559C" stroke="none" opacity="0.7"></circle><polyline points="85.00,397.00 85.00,397.00 85.00,397.00 85.00,397.00 85.00,397.00 85.00,397.00 85.00,397.00 85.00,397.00 85.00,397.00 81.00,429.00 81.00,429.00 81.00,429.00 81.00,429.00 81.00,429.00 81.00,429.00 81.00,429.00" stroke-width="0.50" opacity="0.7" style="transition:stroke 250ms" stroke="#A2559C" fill="none" stroke-linecap="butt"></polyline><polygon points="79.00,431.00 81.00,427.00 83.00,431.00" transform="rotate(90.0000007648485, 81.00, 429.00)" cx="81" cy="429" r="2" fill="#A2559C" opacity="0.7"></polygon></g><g class="key-Uganda"><circle cx="543.00" cy="292.00" r="1.3" fill="#A2559C" stroke="none" opacity="0.7"></circle><polyline points="543.00,292.00 543.00,292.00 543.00,292.00 543.00,292.00 543.00,292.00 543.00,292.00 543.00,292.00 543.00,292.00 470.00,313.00 470.00,313.00 470.00,313.00 470.00,313.00 470.00,313.00 470.00,313.00 470.00,313.00 470.00,313.00" stroke-width="0.50" opacity="0.7" style="transition:stroke 250ms" stroke="#A2559C" fill="none" stroke-linecap="butt"></polyline><polygon points="468.00,315.00 470.00,311.00 472.00,315.00" transform="rotate(90.0000007648485, 470.00, 313.00)" cx="470" cy="313" r="2" fill="#A2559C" opacity="0.7"></polygon></g><g class="key-Algeria"><circle cx="90.00" cy="411.00" r="1.3" fill="#A2559C" stroke="none" opacity="0.7"></circle><polyline points="90.00,411.00 90.00,411.00 90.00,411.00 90.00,411.00 90.00,411.00 90.00,411.00 90.00,411.00 90.00,411.00 90.00,411.00 85.00,404.00 85.00,404.00 85.00,404.00 85.00,404.00 85.00,404.00 85.00,404.00" stroke-width="0.50" opacity="0.7" style="transition:stroke 250ms" stroke="#A2559C" fill="none" stroke-linecap="butt"></polyline><polygon points="83.00,406.00 85.00,402.00 87.00,406.00" transform="rotate(90.0000007648485, 85.00, 404.00)" cx="85" cy="404" r="2" fill="#A2559C" opacity="0.7"></polygon></g><g class="key-Guinea"><circle cx="567.00" cy="223.00" r="1.3" fill="#A2559C" stroke="none" opacity="0.7"></circle><polyline points="567.00,223.00 567.00,223.00 567.00,223.00 567.00,223.00 567.00,223.00 567.00,223.00 567.00,223.00 567.00,223.00 503.00,267.00 503.00,267.00 503.00,267.00 524.00,251.00 524.00,251.00 524.00,251.00 524.00,251.00" stroke-width="0.50" opacity="0.7" style="transition:stroke 250ms" stroke="#A2559C" fill="none" stroke-linecap="butt"></polyline><polygon points="522.00,253.00 524.00,249.00 526.00,253.00" transform="rotate(90.0000007648485, 524.00, 251.00)" cx="524" cy="251" r="2" fill="#A2559C" opacity="0.7"></polygon></g><g class="key-Haiti"><circle cx="410.00" cy="315.00" r="1.3" fill="#E56E5A" stroke="none" opacity="0.7"></circle><polyline points="410.00,315.00 410.00,315.00 410.00,315.00 410.00,315.00 410.00,315.00 410.00,315.00 410.00,315.00 410.00,315.00 351.00,323.00 351.00,323.00 351.00,323.00 351.00,323.00 351.00,323.00 351.00,323.00 351.00,323.00" stroke-width="0.50" opacity="0.7" style="transition:stroke 250ms" stroke="#E56E5A" fill="none" stroke-linecap="butt"></polyline><polygon points="349.00,325.00 351.00,321.00 353.00,325.00" transform="rotate(90.0000007648485, 351.00, 323.00)" cx="351" cy="323" r="2" fill="#E56E5A" opacity="0.7"></polygon></g><g class="key-Jordan"><circle cx="79.00" cy="453.00" r="1.3" fill="#00847E" stroke="none" opacity="0.7"></circle><polyline points="79.00,453.00 79.00,453.00 79.00,453.00 79.00,453.00 79.00,453.00 79.00,453.00 79.00,453.00 79.00,453.00 79.00,439.00 79.00,439.00 79.00,439.00 79.00,439.00 79.00,439.00 79.00,439.00 79.00,439.00" stroke-width="0.50" opacity="0.7" style="transition:stroke 250ms" stroke="#00847E" fill="none" stroke-linecap="butt"></polyline><polygon points="77.00,441.00 79.00,437.00 81.00,441.00" transform="rotate(90.0000007648485, 79.00, 439.00)" cx="79" cy="439" r="2" fill="#00847E" opacity="0.7"></polygon></g><g class="key-Peru"><circle cx="163.00" cy="382.00" r="1.3" fill="#883039" stroke="none" opacity="0.7"></circle><polyline points="163.00,382.00 163.00,382.00 163.00,382.00 163.00,382.00 163.00,382.00 163.00,382.00 163.00,382.00 163.00,382.00 163.00,382.00 127.00,400.00 127.00,400.00 127.00,400.00 126.00,400.00 126.00,400.00 121.00,406.00" stroke-width="0.50" opacity="0.7" style="transition:stroke 250ms" stroke="#883039" fill="none" stroke-linecap="butt"></polyline><polygon points="119.00,408.00 121.00,404.00 123.00,408.00" transform="rotate(-140.19443009915148, 121.00, 406.00)" cx="121" cy="406" r="2" fill="#883039" opacity="0.7"></polygon></g><g class="key-Tajikistan"><circle cx="160.00" cy="393.00" r="1.3" fill="#00847E" stroke="none" opacity="0.7"></circle><polyline points="160.00,393.00 160.00,393.00 160.00,393.00 160.00,393.00 160.00,393.00 160.00,393.00 160.00,393.00 160.00,393.00 127.00,406.00 127.00,406.00 127.00,406.00 127.00,406.00 127.00,406.00 127.00,406.00 127.00,406.00" stroke-width="0.50" opacity="0.7" style="transition:stroke 250ms" stroke="#00847E" fill="none" stroke-linecap="butt"></polyline><polygon points="125.00,408.00 127.00,404.00 129.00,408.00" transform="rotate(90.0000007648485, 127.00, 406.00)" cx="127" cy="406" r="2" fill="#00847E" opacity="0.7"></polygon></g><g class="key-Thailand"><circle cx="85.00" cy="425.00" r="1.3" fill="#00847E" stroke="none" opacity="0.7"></circle><polyline points="85.00,425.00 85.00,425.00 85.00,425.00 85.00,425.00 85.00,425.00 85.00,425.00 85.00,425.00 81.00,406.00 81.00,406.00 81.00,406.00 81.00,406.00 80.00,427.00 80.00,427.00 80.00,427.00 80.00,427.00" stroke-width="0.50" opacity="0.7" style="transition:stroke 250ms" stroke="#00847E" fill="none" stroke-linecap="butt"></polyline><polygon points="78.00,429.00 80.00,425.00 82.00,429.00" transform="rotate(90.0000007648485, 80.00, 427.00)" cx="80" cy="427" r="2" fill="#00847E" opacity="0.7"></polygon></g><g class="key-Ecuador"><circle cx="108.00" cy="396.00" r="1.3" fill="#883039" stroke="none" opacity="0.7"></circle><polyline points="108.00,396.00 108.00,396.00 108.00,396.00 108.00,396.00 108.00,396.00 108.00,396.00 108.00,396.00 108.00,396.00 96.00,414.00 96.00,414.00 96.00,414.00 96.00,414.00 96.00,414.00 96.00,414.00" stroke-width="0.50" opacity="0.7" style="transition:stroke 250ms" stroke="#883039" fill="none" stroke-linecap="butt"></polyline><polygon points="94.00,416.00 96.00,412.00 98.00,416.00" transform="rotate(90.0000007648485, 96.00, 414.00)" cx="96" cy="414" r="2" fill="#883039" opacity="0.7"></polygon></g><g class="key-Montenegro"><circle cx="78.00" cy="359.00" r="1.3" fill="#4C6A9C" stroke="none" opacity="0.7"></circle><polyline points="78.00,359.00 78.00,359.00 78.00,359.00 78.00,359.00 78.00,359.00 78.00,359.00 78.00,359.00 78.00,359.00 84.00,400.00 84.00,400.00 84.00,400.00 84.00,400.00 84.00,400.00 84.00,400.00" stroke-width="0.50" opacity="0.7" style="transition:stroke 250ms" stroke="#4C6A9C" fill="none" stroke-linecap="butt"></polyline><polygon points="82.00,402.00 84.00,398.00 86.00,402.00" transform="rotate(90.0000007648485, 84.00, 400.00)" cx="84" cy="400" r="2" fill="#4C6A9C" opacity="0.7"></polygon></g><g class="key-Sierra-Leone"><circle cx="587.00" cy="258.00" r="1.3" fill="#A2559C" stroke="none" opacity="0.7"></circle><polyline points="587.00,258.00 587.00,258.00 587.00,258.00 587.00,258.00 587.00,258.00 587.00,258.00 587.00,258.00 587.00,258.00 478.00,293.00 478.00,293.00 478.00,293.00 457.00,312.00 457.00,312.00 457.00,312.00" stroke-width="0.50" opacity="0.7" style="transition:stroke 250ms" stroke="#A2559C" fill="none" stroke-linecap="butt"></polyline><polygon points="455.00,314.00 457.00,310.00 459.00,314.00" transform="rotate(90.0000007648485, 457.00, 312.00)" cx="457" cy="312" r="2" fill="#A2559C" opacity="0.7"></polygon></g><g class="key-Benin"><circle cx="512.00" cy="263.00" r="1.3" fill="#A2559C" stroke="none" opacity="0.7"></circle><polyline points="512.00,263.00 512.00,263.00 512.00,263.00 512.00,263.00 512.00,263.00 512.00,263.00 512.00,263.00 531.00,261.00 531.00,261.00 531.00,261.00 531.00,261.00 531.00,261.00 531.00,261.00" stroke-width="0.50" opacity="0.7" style="transition:stroke 250ms" stroke="#A2559C" fill="none" stroke-linecap="butt"></polyline><polygon points="529.00,263.00 531.00,259.00 533.00,263.00" transform="rotate(90.0000007648485, 531.00, 261.00)" cx="531" cy="261" r="2" fill="#A2559C" opacity="0.7"></polygon></g><g class="key-Guinea__002dBissau"><circle cx="531.00" cy="261.00" r="1.3" fill="#A2559C" stroke="none" opacity="0.7"></circle><polyline points="531.00,261.00 531.00,261.00 531.00,261.00 531.00,261.00 531.00,261.00 531.00,261.00 531.00,261.00 531.00,261.00 520.00,279.00 520.00,279.00 520.00,279.00 520.00,279.00 520.00,279.00" stroke-width="0.50" opacity="0.7" style="transition:stroke 250ms" stroke="#A2559C" fill="none" stroke-linecap="butt"></polyline><polygon points="518.00,281.00 520.00,277.00 522.00,281.00" transform="rotate(90.0000007648485, 520.00, 279.00)" cx="520" cy="279" r="2" fill="#A2559C" opacity="0.7"></polygon></g><g class="backgroundLabels" fill="#333"><text x="105.00" y="382.00" font-size="14.30" font-weight="400" fill="#00847E" style="fill:#fff;stroke:#fff;stroke-linecap:round;stroke-linejoin:round;stroke-width:.25em">China</text><text x="105.00" y="382.00" font-size="14.30" font-weight="400" fill="#00847E" style="pointer-events:none">China</text><text x="189.00" y="379.00" font-size="14.28" font-weight="400" fill="#00847E" style="fill:#fff;stroke:#fff;stroke-linecap:round;stroke-linejoin:round;stroke-width:.25em">India</text><text x="189.00" y="379.00" font-size="14.28" font-weight="400" fill="#00847E" style="pointer-events:none">India</text><text x="101.00" y="409.00" font-size="12.45" font-weight="400" fill="#00847E" style="fill:#fff;stroke:#fff;stroke-linecap:round;stroke-linejoin:round;stroke-width:.25em">Indonesia</text><text x="101.00" y="409.00" font-size="12.45" font-weight="400" fill="#00847E" style="pointer-events:none">Indonesia</text><text x="340.00" y="290.00" font-size="12.33" font-weight="400" fill="#00847E" style="fill:#fff;stroke:#fff;stroke-linecap:round;stroke-linejoin:round;stroke-width:.25em">Pakistan</text><text x="340.00" y="290.00" font-size="12.33" font-weight="400" fill="#00847E" style="pointer-events:none">Pakistan</text><text x="242.00" y="378.00" font-size="12.14" font-weight="400" fill="#00847E" style="fill:#fff;stroke:#fff;stroke-linecap:round;stroke-linejoin:round;stroke-width:.25em">Bangladesh</text><text x="242.00" y="378.00" font-size="12.14" font-weight="400" fill="#00847E" style="pointer-events:none">Bangladesh</text><text x="550.00" y="276.00" font-size="11.96" font-weight="400" fill="#A2559C" style="fill:#fff;stroke:#fff;stroke-linecap:round;stroke-linejoin:round;stroke-width:.25em">Ethiopia</text><text x="550.00" y="276.00" font-size="11.96" font-weight="400" fill="#A2559C" style="pointer-events:none">Ethiopia</text><text x="114.00" y="307.00" font-size="11.93" font-weight="400" fill="#00847E" style="fill:#fff;stroke:#fff;stroke-linecap:round;stroke-linejoin:round;stroke-width:.25em">Philippines</text><text x="114.00" y="307.00" font-size="11.93" font-weight="400" fill="#00847E" style="pointer-events:none">Philippines</text><text x="536.88" y="204.00" font-size="11.20" font-weight="400" fill="#A2559C" style="fill:#fff;stroke:#fff;stroke-linecap:round;stroke-linejoin:round;stroke-width:.25em">Central African Republic</text><text x="536.88" y="204.00" font-size="11.20" font-weight="400" fill="#A2559C" style="pointer-events:none">Central African Republic</text><text x="150.00" y="352.00" font-size="11.28" font-weight="400" fill="#E56E5A" style="fill:#fff;stroke:#fff;stroke-linecap:round;stroke-linejoin:round;stroke-width:.25em">Honduras</text><text x="150.00" y="352.00" font-size="11.28" font-weight="400" fill="#E56E5A" style="pointer-events:none">Honduras</text><text x="668.73" y="160.00" font-size="11.41" font-weight="400" fill="#A2559C" style="fill:#fff;stroke:#fff;stroke-linecap:round;stroke-linejoin:round;stroke-width:.25em">Niger</text><text x="668.73" y="160.00" font-size="11.41" font-weight="400" fill="#A2559C" style="pointer-events:none">Niger</text><text x="277.00" y="328.00" font-size="11.49" font-weight="400" fill="#00847E" style="fill:#fff;stroke:#fff;stroke-linecap:round;stroke-linejoin:round;stroke-width:.25em">Yemen</text><text x="277.00" y="328.00" font-size="11.49" font-weight="400" fill="#00847E" style="pointer-events:none">Yemen</text><text x="77.00" y="447.00" font-size="11.58" font-weight="400" fill="#4C6A9C" style="fill:#fff;stroke:#fff;stroke-linecap:round;stroke-linejoin:round;stroke-width:.25em">Ukraine</text><text x="77.00" y="447.00" font-size="11.58" font-weight="400" fill="#4C6A9C" style="pointer-events:none">Ukraine</text><text x="406.00" y="321.00" font-size="11.39" font-weight="400" fill="#A2559C" style="fill:#fff;stroke:#fff;stroke-linecap:round;stroke-linejoin:round;stroke-width:.25em">Zambia</text><text x="406.00" y="321.00" font-size="11.39" font-weight="400" fill="#A2559C" style="pointer-events:none">Zambia</text><text x="334.00" y="346.00" font-size="11.62" font-weight="400" fill="#A2559C" style="fill:#fff;stroke:#fff;stroke-linecap:round;stroke-linejoin:round;stroke-width:.25em">Kenya</text><text x="334.00" y="346.00" font-size="11.62" font-weight="400" fill="#A2559C" style="pointer-events:none">Kenya</text><text x="529.00" y="257.00" font-size="11.47" font-weight="400" fill="#A2559C" style="fill:#fff;stroke:#fff;stroke-linecap:round;stroke-linejoin:round;stroke-width:.25em">Madagascar</text><text x="529.00" y="257.00" font-size="11.47" font-weight="400" fill="#A2559C" style="pointer-events:none">Madagascar</text><text x="681.00" y="178.00" font-size="11.36" font-weight="400" fill="#A2559C" style="fill:#fff;stroke:#fff;stroke-linecap:round;stroke-linejoin:round;stroke-width:.25em">Chad</text><text x="681.00" y="178.00" font-size="11.36" font-weight="400" fill="#A2559C" style="pointer-events:none">Chad</text><text x="420.00" y="339.00" font-size="11.39" font-weight="400" fill="#A2559C" style="fill:#fff;stroke:#fff;stroke-linecap:round;stroke-linejoin:round;stroke-width:.25em">Malawi</text><text x="420.00" y="339.00" font-size="11.39" font-weight="400" fill="#A2559C" style="pointer-events:none">Malawi</text><text x="437.00" y="275.00" font-size="11.58" font-weight="400" fill="#A2559C" style="fill:#fff;stroke:#fff;stroke-linecap:round;stroke-linejoin:round;stroke-width:.25em">Sudan</text><text x="437.00" y="275.00" font-size="11.58" font-weight="400" fill="#A2559C" style="pointer-events:none">Sudan</text><text x="470.00" y="307.00" font-size="11.69" font-weight="400" fill="#A2559C" style="fill:#fff;stroke:#fff;stroke-linecap:round;stroke-linejoin:round;stroke-width:.25em">Tanzania</text><text x="470.00" y="307.00" font-size="11.69" font-weight="400" fill="#A2559C" style="pointer-events:none">Tanzania</text><text x="246.00" y="349.00" font-size="11.50" font-weight="400" fill="#A2559C" style="fill:#fff;stroke:#fff;stroke-linecap:round;stroke-linejoin:round;stroke-width:.25em">Ghana</text><text x="246.00" y="349.00" font-size="11.50" font-weight="400" fill="#A2559C" style="pointer-events:none">Ghana</text><text x="351.00" y="323.00" font-size="11.30" font-weight="400" fill="#E56E5A" style="fill:#fff;stroke:#fff;stroke-linecap:round;stroke-linejoin:round;stroke-width:.25em">Haiti</text><text x="351.00" y="323.00" font-size="11.30" font-weight="400" fill="#E56E5A" style="pointer-events:none">Haiti</text><text x="80.00" y="427.00" font-size="11.74" font-weight="400" fill="#00847E" style="fill:#fff;stroke:#fff;stroke-linecap:round;stroke-linejoin:round;stroke-width:.25em">Thailand</text><text x="80.00" y="427.00" font-size="11.74" font-weight="400" fill="#00847E" style="pointer-events:none">Thailand</text></g></g><g class="ScatterColorLegend clickable" style="cursor:pointer"><g class="legendMark"><rect x="737.092" y="98.29988" width="46.256" height="17.6" fill="#fff" opacity="0"></rect><rect x="737.092" y="102.59988" width="9" height="9" fill="#A2559C"></rect><text font-size="12.60" x="751.1" y="111.8"><tspan x="751.092" y="111.76188">Africa</tspan></text></g><g class="legendMark"><rect x="737.092" y="115.89988" width="38.57" height="17.6" fill="#fff" opacity="0"></rect><rect x="737.092" y="120.19988" width="9" height="9" fill="#00847E"></rect><text font-size="12.60" x="751.1" y="129.4"><tspan x="751.092" y="129.36187999999999">Asia</tspan></text></g><g class="legendMark"><rect x="737.092" y="133.49988000000002" width="54.824" height="17.6" fill="#fff" opacity="0"></rect><rect x="737.092" y="137.79988000000003" width="9" height="9" fill="#4C6A9C"></rect><text font-size="12.60" x="751.1" y="147.0"><tspan x="751.092" y="146.96188">Europe</tspan></text></g><g class="legendMark"><rect x="737.092" y="151.09988" width="94.64" height="17.6" fill="#fff" opacity="0"></rect><rect x="737.092" y="155.39988000000002" width="9" height="9" fill="#E56E5A"></rect><text font-size="12.60" x="751.1" y="164.6"><tspan x="751.092" y="164.56188">North America</tspan></text></g><g class="legendMark"><rect x="737.092" y="168.69988" width="96.908" height="17.6" fill="#fff" opacity="0"></rect><rect x="737.092" y="172.99988000000002" width="9" height="9" fill="#883039"></rect><text font-size="12.60" x="751.1" y="182.2"><tspan x="751.092" y="182.16188">South America</tspan></text></g></g><line x1="737.092" y1="197.79988" x2="829" y2="197.79988" stroke="#ccc"></line><g class="clickable"><g class="ConnectedScatterLegend"><rect x="737.092" y="204.79988" width="96.908" height="12.6" fill="#fff" opacity="0"></rect><text font-size="12.60" x="737.1" y="215.8" fill="#333"><tspan x="737.092" y="215.76188">2000</tspan></text><text font-size="12.60" x="805.8" y="215.8" fill="#333"><tspan x="805.776" y="215.76188">2021</tspan></text><line x1="770.316" y1="210.59988" x2="800.776" y2="210.59988" stroke="#666" stroke-width="1"></line><circle cx="770.316" cy="210.59988" r="2" fill="#666" stroke="#ccc" stroke-width="0.2"></circle><circle cx="780.4693333333333" cy="210.59988" r="2" fill="#666" stroke="#ccc" stroke-width="0.2"></circle><circle cx="790.6226666666666" cy="210.59988" r="2" fill="#666" stroke="#ccc" stroke-width="0.2"></circle><polygon points="797.78,213.60 800.78,207.60 803.78,213.60" cx="800.776" cy="210.59988" r="3" fill="#666" stroke="#ccc" stroke-width="0.2" transform="rotate(90, 800.776, 210.59988)"></polygon></g></g></g><g class="SourcesFooter" style="fill:#5b5b5b"><text x="16.0" y="530.2" style="font-size:13px;line-height:1.2"><tspan x="16" y="530.2"><tspan style="font-weight:700">Data source:</tspan> Alkire, Kanagaratnam and Suppa (2023), The global Multidimensional Poverty Index (MPI) 2023</tspan></text><text x="16.0" y="547.8" style="font-size:13px;line-height:1.2"><tspan x="16" y="547.8"><tspan style="font-weight:700">Note:</tspan> This data aims to provide estimates that are comparable over time within individual countries. A <a href="https://ourworldindata.org/grapher/share-vs-intensity-of-multidimensional-poverty" target="_blank" style="text-decoration:underline" rel="noopener noreferrer">separate dataset</a> provides more</tspan><tspan x="16" y="563.4">complete data to be used for comparisons across countries at a point in time.</tspan></text><text font-size="13.00" x="16.0" y="581.0"><tspan x="16" y="581.0100000000001"><a target="_blank" style="fill: #5b5b5b; text-decoration: underline;" href="https://ourworldindata.org/poverty">OurWorldInData.org/poverty</a> | <a target="_blank" style="fill: #5b5b5b; text-decoration: underline;" href="https://creativecommons.org/licenses/by/4.0/">CC BY</a></tspan></text></g></svg>