<svg xmlns="http://www.w3.org/2000/svg" version="1.1" style="font-family:Lato, &#x27;Helvetica Neue&#x27;, Helvetica, Arial, &#x27;Liberation Sans&#x27;, sans-serif;font-size:18px;background-color:white;text-rendering:geometricPrecision;-webkit-font-smoothing:antialiased" width="850" height="600" viewBox="0 0 850 600"><defs><style>@import url(http://localhost:3030/fonts.css)</style></defs><defs><pattern id="noDataPattern" patternUnits="userSpaceOnUse" width="4" height="4" patternTransform="rotate(-45 2 2)"><path d="M -1,2 l 6,0" stroke="#ccc" stroke-width="0.7"></path></pattern></defs><rect class="background-fill" fill="white" width="850" height="600"></rect><g class="HeaderView"><g transform="translate(769, 16) scale(1)"><svg className="owidLogo" xmlns="http://www.w3.org/2000/svg" width="65" height="36" viewBox="0 0 65 36"  fill="none"><path fill="#002147" d="M0 0h64.8v36H0z"/><path fill="#CE261E" d="M0 33.3h64.8V36H0z"/><path fill="#fff" d="M13.796 10.575c0 .636-.106 1.226-.318 1.77a4.193 4.193 0 0 1-.894 1.404 4.084 4.084 0 0 1-1.386.93c-.54.22-1.138.33-1.794.33-.656 0-1.256-.11-1.8-.33a4.149 4.149 0 0 1-1.392-.93 4.193 4.193 0 0 1-.894-1.404A4.833 4.833 0 0 1 5 10.575c0-.636.106-1.224.318-1.764a4.18 4.18 0 0 1 .894-1.41 4.076 4.076 0 0 1 1.392-.924 4.684 4.684 0 0 1 1.8-.336c.656 0 1.254.112 1.794.336.54.224 1.002.534 1.386.93.384.392.682.86.894 1.404.212.54.318 1.128.318 1.764Zm-1.656 0c0-.476-.064-.902-.192-1.278a2.671 2.671 0 0 0-.54-.966 2.332 2.332 0 0 0-.864-.606 2.94 2.94 0 0 0-1.14-.21c-.424 0-.806.07-1.146.21-.34.14-.63.342-.87.606a2.742 2.742 0 0 0-.546.966 3.955 3.955 0 0 0-.192 1.278c0 .476.064.904.192 1.284.128.376.31.696.546.96.24.26.53.46.87.6.34.14.722.21 1.146.21.424 0 .804-.07 1.14-.21.34-.14.628-.34.864-.6.236-.264.416-.584.54-.96a4.01 4.01 0 0 0 .192-1.284ZM16.104 8.757v3.912c0 .376.086.668.258.876.176.204.438.306.786.306.256 0 .496-.056.72-.168a2.58 2.58 0 0 0 .636-.474V8.757h1.482v6.156h-.906c-.192 0-.318-.09-.378-.27l-.102-.492a4.65 4.65 0 0 1-.396.354 2.577 2.577 0 0 1-.438.27 2.35 2.35 0 0 1-.498.168 2.345 2.345 0 0 1-.57.066c-.336 0-.634-.056-.894-.168a1.821 1.821 0 0 1-.648-.486 2.157 2.157 0 0 1-.402-.738 3.233 3.233 0 0 1-.132-.948V8.757h1.482ZM21.328 14.913V8.757h.87c.152 0 .258.028.318.084.06.056.1.152.12.288l.09.744c.22-.38.478-.68.774-.9.296-.22.628-.33.996-.33.304 0 .556.07.756.21l-.192 1.11c-.012.072-.038.124-.078.156a.278.278 0 0 1-.162.042 1.01 1.01 0 0 1-.246-.042 1.646 1.646 0 0 0-.414-.042c-.308 0-.572.086-.792.258-.22.168-.406.416-.558.744v3.834h-1.482ZM27.347 6.237h1.356a.57.57 0 0 1 .348.102c.096.064.16.152.192.264l1.476 5.19c.036.128.068.268.096.42.032.148.062.306.09.474a5.968 5.968 0 0 1 .228-.894l1.704-5.19a.575.575 0 0 1 .186-.252.543.543 0 0 1 .348-.114h.474a.57.57 0 0 1 .348.102.497.497 0 0 1 .192.264l1.692 5.19c.088.256.164.54.228.852.028-.156.056-.306.084-.45.032-.144.064-.278.096-.402l1.476-5.19c.028-.1.09-.186.186-.258a.563.563 0 0 1 .348-.108h1.266l-2.694 8.676h-1.458l-1.896-5.928-.078-.246a9.504 9.504 0 0 1-.072-.282c-.024.1-.05.194-.078.282-.024.088-.048.17-.072.246l-1.914 5.928H30.04l-2.694-8.676ZM42.771 8.661c.46 0 .876.074 1.248.222.376.148.696.358.96.63s.468.604.612.996c.144.392.216.83.216 1.314 0 .488-.072.928-.216 1.32a2.85 2.85 0 0 1-.612 1.002 2.653 2.653 0 0 1-.96.636 3.35 3.35 0 0 1-1.248.222c-.46 0-.878-.074-1.254-.222a2.712 2.712 0 0 1-.966-.636 2.922 2.922 0 0 1-.618-1.002 3.807 3.807 0 0 1-.216-1.32c0-.484.072-.922.216-1.314.148-.392.354-.724.618-.996.268-.272.59-.482.966-.63a3.397 3.397 0 0 1 1.254-.222Zm0 5.202c.512 0 .89-.172 1.134-.516.248-.344.372-.848.372-1.512s-.124-1.17-.372-1.518c-.244-.348-.622-.522-1.134-.522-.52 0-.904.176-1.152.528-.248.348-.372.852-.372 1.512s.124 1.164.372 1.512c.248.344.632.516 1.152.516ZM46.723 14.913V8.757h.87c.152 0 .258.028.318.084.06.056.1.152.12.288l.09.744c.22-.38.478-.68.774-.9.296-.22.628-.33.996-.33.304 0 .556.07.756.21l-.192 1.11c-.012.072-.038.124-.078.156a.278.278 0 0 1-.162.042 1.01 1.01 0 0 1-.246-.042 1.646 1.646 0 0 0-.414-.042c-.308 0-.572.086-.792.258-.22.168-.406.416-.558.744v3.834h-1.482ZM52.96 5.997v8.916h-1.482V5.997h1.482ZM58.732 14.913c-.192 0-.318-.09-.378-.27l-.12-.594a3.68 3.68 0 0 1-.402.39c-.14.116-.292.216-.456.3-.16.084-.334.148-.522.192a2.372 2.372 0 0 1-.6.072c-.336 0-.644-.07-.924-.21a2.098 2.098 0 0 1-.726-.606 3.033 3.033 0 0 1-.468-.99 5.072 5.072 0 0 1-.162-1.344c0-.456.062-.88.186-1.272s.302-.732.534-1.02c.232-.288.51-.512.834-.672a2.384 2.384 0 0 1 1.092-.246 2.103 2.103 0 0 1 1.536.606V5.997h1.482v8.916h-.906Zm-1.974-1.086c.308 0 .57-.064.786-.192.216-.128.42-.31.612-.546v-2.76a1.452 1.452 0 0 0-.552-.432 1.597 1.597 0 0 0-.636-.126c-.224 0-.428.042-.612.126a1.21 1.21 0 0 0-.462.384c-.124.168-.22.384-.288.648-.068.26-.102.568-.102.924 0 .36.028.666.084.918.06.248.144.452.252.612.108.156.24.27.396.342.156.068.33.102.522.102ZM16.331 20.757v6.156H14.85v-6.156h1.481Zm.223-1.794a.844.844 0 0 1-.078.36.963.963 0 0 1-.21.294.995.995 0 0 1-.3.204.963.963 0 0 1-.372.072.948.948 0 0 1-.367-.072 1.018 1.018 0 0 1-.498-.498.963.963 0 0 1 0-.732.995.995 0 0 1 .205-.3.929.929 0 0 1 .293-.198.899.899 0 0 1 .738 0 .912.912 0 0 1 .3.198.943.943 0 0 1 .288.672ZM17.771 26.913v-6.156h.906c.192 0 .318.09.378.27l.102.486a2.934 2.934 0 0 1 .828-.618c.156-.076.322-.134.498-.174.176-.04.368-.06.576-.06.336 0 .634.058.894.174.26.112.476.272.648.48.176.204.308.45.396.738.092.284.138.598.138.942v3.918h-1.482v-3.918c0-.376-.088-.666-.264-.87-.172-.208-.432-.312-.78-.312-.256 0-.496.058-.72.174a2.58 2.58 0 0 0-.636.474v4.452h-1.482ZM34.22 22.575c0 .636-.106 1.22-.318 1.752-.212.532-.51.99-.894 1.374a4 4 0 0 1-1.386.894 4.87 4.87 0 0 1-1.794.318h-3.312v-8.676h3.312a4.79 4.79 0 0 1 1.794.324 4 4 0 0 1 1.386.894c.384.38.682.836.894 1.368.212.532.318 1.116.318 1.752Zm-1.65 0c0-.476-.064-.902-.192-1.278a2.68 2.68 0 0 0-.546-.96 2.332 2.332 0 0 0-.864-.606 2.94 2.94 0 0 0-1.14-.21h-1.686v6.108h1.686c.424 0 .804-.07 1.14-.21.34-.14.628-.34.864-.6a2.75 2.75 0 0 0 .546-.96 4.01 4.01 0 0 0 .192-1.284ZM39.98 26.913h-.665c-.14 0-.25-.02-.33-.06-.08-.044-.14-.13-.18-.258l-.132-.438c-.156.14-.31.264-.462.372a2.804 2.804 0 0 1-.462.264c-.16.072-.33.126-.51.162-.18.036-.38.054-.6.054-.26 0-.5-.034-.72-.102a1.618 1.618 0 0 1-.57-.318 1.448 1.448 0 0 1-.366-.522 1.852 1.852 0 0 1-.132-.726c0-.232.06-.46.18-.684.124-.228.328-.432.612-.612.284-.184.662-.336 1.134-.456.472-.12 1.058-.188 1.758-.204v-.36c0-.412-.088-.716-.264-.912-.172-.2-.424-.3-.756-.3a1.837 1.837 0 0 0-1.02.276c-.116.068-.224.13-.324.186a.664.664 0 0 1-.33.084.429.429 0 0 1-.258-.078.614.614 0 0 1-.174-.192l-.27-.474c.708-.648 1.562-.972 2.562-.972.36 0 .68.06.96.18.284.116.524.28.72.492.196.208.344.458.444.75.104.292.156.612.156.96v3.888Zm-2.88-.924c.153 0 .293-.014.42-.042.129-.028.249-.07.36-.126.117-.056.227-.124.33-.204.109-.084.217-.182.325-.294v-1.038c-.432.02-.794.058-1.086.114-.288.052-.52.12-.696.204a.923.923 0 0 0-.378.294.664.664 0 0 0-.108.366c0 .26.076.446.228.558.156.112.358.168.606.168ZM43.22 27.01c-.532 0-.942-.15-1.23-.45-.288-.305-.432-.723-.432-1.255v-3.438h-.624a.31.31 0 0 1-.21-.078c-.056-.052-.084-.13-.084-.234v-.588l.99-.162.312-1.68a.302.302 0 0 1 .108-.186.365.365 0 0 1 .222-.066h.768v1.938h1.62v1.056h-1.62v3.336c0 .192.048.342.144.45a.488.488 0 0 0 .384.162c.092 0 .168-.01.228-.03.064-.024.118-.048.162-.072.048-.024.09-.046.126-.066a.194.194 0 0 1 .108-.036.16.16 0 0 1 .108.036c.028.02.058.052.09.096l.444.72c-.216.18-.464.316-.744.408a2.77 2.77 0 0 1-.87.138ZM50.423 26.913h-.666c-.14 0-.25-.02-.33-.06-.08-.044-.14-.13-.18-.258l-.132-.438c-.156.14-.31.264-.462.372a2.804 2.804 0 0 1-.462.264c-.16.072-.33.126-.51.162-.18.036-.38.054-.6.054-.26 0-.5-.034-.72-.102a1.618 1.618 0 0 1-.57-.318 1.448 1.448 0 0 1-.366-.522 1.852 1.852 0 0 1-.132-.726c0-.232.06-.46.18-.684.124-.228.328-.432.612-.612.284-.184.662-.336 1.134-.456.472-.12 1.058-.188 1.758-.204v-.36c0-.412-.088-.716-.264-.912-.172-.2-.424-.3-.756-.3a1.837 1.837 0 0 0-1.02.276c-.116.068-.224.13-.324.186a.664.664 0 0 1-.33.084.429.429 0 0 1-.258-.078.614.614 0 0 1-.174-.192l-.27-.474c.708-.648 1.562-.972 2.562-.972.36 0 .68.06.96.18.284.116.524.28.72.492.196.208.344.458.444.75.104.292.156.612.156.96v3.888Zm-2.88-.924c.152 0 .292-.014.42-.042.128-.028.248-.07.36-.126.116-.056.226-.124.33-.204.108-.084.216-.182.324-.294v-1.038c-.432.02-.794.058-1.086.114-.288.052-.52.12-.696.204a.923.923 0 0 0-.378.294.664.664 0 0 0-.108.366c0 .26.076.446.228.558.156.112.358.168.606.168Z"/></svg></g><a href="http://localhost:3030/grapher/stroke-death-rates-by-age" style="font-family:&#x27;Playfair Display&#x27;, Georgia, &#x27;Times New Roman&#x27;, &#x27;Liberation Serif&#x27;, serif" target="_blank" rel="noopener"><text font-size="24.75" font-weight="500" x="16.0" y="40.0" fill="#5b5b5b"><tspan x="16" y="40.0075">Stroke death rate by age, World, 1990 to 2019</tspan></text></a><text x="16.0" y="63.9" style="font-size:14.625px;line-height:1.2" fill="#5b5b5b"><tspan x="16" y="63.9">Death rates from stroke by age group, measured as the number of deaths per 100,000 individuals.</tspan><tspan x="16" y="81.4">Age-standardization assumes a constant population age &amp; structure to allow for comparisons between countries</tspan><tspan x="16" y="99.0">and with time without the effects of a changing age distribution within a population (e.g. aging).</tspan></text></g><g style="pointer-events:none"><g class="LineChart"><defs><clipPath id="boundsClip-1"><rect x="45.02" y="108.35" width="838" height="453.45"></rect></clipPath></defs><rect x="16" y="118.35" width="818" height="433.45" fill="none"></rect><g class="DualAxisView"><g class="HorizontalAxis"><line x1="55" y1="531.3" x2="55" y2="536.3" stroke="#999" stroke-width="1"></line><line x1="692.8" y1="531.3" x2="692.8" y2="536.3" stroke="#999" stroke-width="1"></line><line x1="165" y1="531.3" x2="165" y2="536.3" stroke="#999" stroke-width="1"></line><line x1="274.9" y1="531.3" x2="274.9" y2="536.3" stroke="#999" stroke-width="1"></line><line x1="384.9" y1="531.3" x2="384.9" y2="536.3" stroke="#999" stroke-width="1"></line><line x1="494.8" y1="531.3" x2="494.8" y2="536.3" stroke="#999" stroke-width="1"></line><line x1="604.8" y1="531.3" x2="604.8" y2="536.3" stroke="#999" stroke-width="1"></line><text x="55.02" y="549.8" fill="#5b5b5b" text-anchor="start" font-size="13.5">1990</text><text x="692.755" y="549.8" fill="#5b5b5b" text-anchor="end" font-size="13.5">2019</text><text x="165" y="549.8" fill="#5b5b5b" text-anchor="middle" font-size="13.5">1995</text><text x="274.9" y="549.8" fill="#5b5b5b" text-anchor="middle" font-size="13.5">2000</text><text x="384.9" y="549.8" fill="#5b5b5b" text-anchor="middle" font-size="13.5">2005</text><text x="494.8" y="549.8" fill="#5b5b5b" text-anchor="middle" font-size="13.5">2010</text><text x="604.8" y="549.8" fill="#5b5b5b" text-anchor="middle" font-size="13.5">2015</text></g><g class="VerticalAxis"><text x="50.02" y="531.3" dy=".32em" text-anchor="end" fill="#5b5b5b" font-size="13.5">0</text><text x="50.02" y="471.1" dy=".32em" text-anchor="end" fill="#5b5b5b" font-size="13.5">200</text><text x="50.02" y="411" dy=".32em" text-anchor="end" fill="#5b5b5b" font-size="13.5">400</text><text x="50.02" y="350.8" dy=".32em" text-anchor="end" fill="#5b5b5b" font-size="13.5">600</text><text x="50.02" y="290.7" dy=".32em" text-anchor="end" fill="#5b5b5b" font-size="13.5">800</text><text x="50.02" y="230.5" dy=".32em" text-anchor="end" fill="#5b5b5b" font-size="13.5">1,000</text><text x="50.02" y="170.3" dy=".32em" text-anchor="end" fill="#5b5b5b" font-size="13.5">1,200</text></g><g class="AxisGridLines horizontalLines"><line x1="55.02" y1="531.3" x2="692.75" y2="531.3" stroke="#999" stroke-width="1"></line><line x1="55.02" y1="471.1" x2="692.75" y2="471.1" stroke="#ddd" stroke-width="1" stroke-dasharray="3,2"></line><line x1="55.02" y1="411" x2="692.75" y2="411" stroke="#ddd" stroke-width="1" stroke-dasharray="3,2"></line><line x1="55.02" y1="350.8" x2="692.75" y2="350.8" stroke="#ddd" stroke-width="1" stroke-dasharray="3,2"></line><line x1="55.02" y1="290.7" x2="692.75" y2="290.7" stroke="#ddd" stroke-width="1" stroke-dasharray="3,2"></line><line x1="55.02" y1="230.5" x2="692.75" y2="230.5" stroke="#ddd" stroke-width="1" stroke-dasharray="3,2"></line><line x1="55.02" y1="170.3" x2="692.75" y2="170.3" stroke="#ddd" stroke-width="1" stroke-dasharray="3,2"></line></g></g><g clip-path="url(#boundsClip-1)"><g class="LineLabels" style="cursor:default"><g class="legendMark"><g class="indicator"><path d="M696.755,249.4 H710.255 V249.4 H723.755" stroke="#999" stroke-width="0.5" fill="none"></path></g><rect x="692.755" y="242.65" width="116.67500000000001" height="13.5" fill="#fff" opacity="0"></rect><text font-size="13.50" font-weight="400" x="727.8" y="254.4" fill="#2c8465"><tspan x="727.755" y="254.395">70+ years old</tspan></text></g><g class="legendMark"><g class="indicator"><path d="M696.755,491.6 H700.6121428571429 V447.04999999999984 H723.755" stroke="#999" stroke-width="0.5" fill="none"></path></g><rect x="692.755" y="440.29999999999984" width="128.42000000000002" height="13.5" fill="#fff" opacity="0"></rect><text font-size="13.50" font-weight="400" x="727.8" y="452.0" fill="#cf0a66"><tspan x="727.755" y="452.04499999999985">50-69 years old</tspan></text></g><g class="legendMark"><g class="indicator"><path d="M696.755,505.8 H704.4692857142858 V462.54999999999984 H723.755" stroke="#999" stroke-width="0.5" fill="none"></path></g><rect x="692.755" y="455.79999999999984" width="83.195" height="13.5" fill="#fff" opacity="0"></rect><text font-size="13.50" font-weight="400" x="727.8" y="467.5" fill="#6d3e91"><tspan x="727.755" y="467.54499999999985">All ages</tspan></text></g><g class="legendMark"><g class="indicator"><path d="M696.755,506 H708.3264285714286 V478.04999999999984 H723.755" stroke="#999" stroke-width="0.5" fill="none"></path></g><rect x="692.755" y="471.29999999999984" width="141.245" height="13.5" fill="#fff" opacity="0"></rect><text font-size="13.50" font-weight="400" x="727.8" y="483.0" fill="#286bbb"><tspan x="727.755" y="483.04499999999985">Age-standardized</tspan></text></g><g class="legendMark"><g class="indicator"><path d="M696.755,528.5 H712.1835714285714 V493.54999999999984 H723.755" stroke="#999" stroke-width="0.5" fill="none"></path></g><rect x="692.755" y="486.79999999999984" width="128.42000000000002" height="13.5" fill="#fff" opacity="0"></rect><text font-size="13.50" font-weight="400" x="727.8" y="498.5" fill="#18470f"><tspan x="727.755" y="498.54499999999985">15-49 years old</tspan></text></g><g class="legendMark"><g class="indicator"><path d="M696.755,530.9 H716.0407142857143 V509.04999999999984 H723.755" stroke="#999" stroke-width="0.5" fill="none"></path></g><rect x="692.755" y="502.29999999999984" width="90.62" height="13.5" fill="#fff" opacity="0"></rect><text font-size="13.50" font-weight="400" x="727.8" y="514.0" fill="#be5915"><tspan x="727.755" y="514.0449999999998">Under-5s</tspan></text></g><g class="legendMark"><g class="indicator"><path d="M696.755,531.1 H719.8978571428572 V524.5499999999998 H723.755" stroke="#999" stroke-width="0.5" fill="none"></path></g><rect x="692.755" y="517.7999999999998" width="120.86" height="13.5" fill="#fff" opacity="0"></rect><text font-size="13.50" font-weight="400" x="727.8" y="529.5" fill="#c15065"><tspan x="727.755" y="529.5449999999998">5-14 years old</tspan></text></g></g><g class="Lines"><rect x="55" y="124" width="638" height="407" fill="rgba(255,255,255,0)" opacity="0"></rect><g><path stroke-linecap="round" stroke-linejoin="round" stroke="#ddd" d="M55 491.5L77 492L99 492.3L121 492.1L143 492.3L165 492.9L187 493.4L209 493.9L230.9 494.4L252.9 494.5L274.9 494.7L296.9 495.1L318.9 495.3L340.9 495.8L362.9 496.8L384.9 497.4L406.9 498.8L428.9 499.8L450.9 500.3L472.8 501.1L494.8 501.6L516.8 502.4L538.8 503.2L560.8 503.9L582.8 504.4L604.8 504.9L626.8 505.2L648.8 505.6L670.8 505.8L692.8 506" fill="none" stroke-width="1"></path></g><g><path stroke-linecap="round" stroke-linejoin="round" stroke="#ddd" d="M55 527.7L77 527.7L99 527.7L121 527.7L143 527.6L165 527.5L187 527.6L209 527.6L230.9 527.6L252.9 527.6L274.9 527.6L296.9 527.6L318.9 527.7L340.9 527.8L362.9 527.8L384.9 527.9L406.9 528L428.9 528L450.9 528L472.8 528L494.8 528L516.8 528.1L538.8 528.2L560.8 528.2L582.8 528.3L604.8 528.3L626.8 528.4L648.8 528.4L670.8 528.4L692.8 528.5" fill="none" stroke-width="1"></path></g><g><path stroke-linecap="round" stroke-linejoin="round" stroke="#ddd" d="M55 466.3L77 466.9L99 466.7L121 465.9L143 466L165 466.9L187 467.9L209 469L230.9 470.5L252.9 471.6L274.9 472.3L296.9 473.4L318.9 473.8L340.9 474.8L362.9 476.7L384.9 478.3L406.9 480.8L428.9 482.6L450.9 483.8L472.8 485.1L494.8 486L516.8 486.9L538.8 487.6L560.8 488.8L582.8 489.7L604.8 489.8L626.8 490.1L648.8 490.8L670.8 491.3L692.8 491.6" fill="none" stroke-width="1"></path></g><g><path stroke-linecap="round" stroke-linejoin="round" stroke="#ddd" d="M55 505.6L77 505.7L99 505.6L121 505.2L143 505.1L165 505.2L187 505.3L209 505.3L230.9 505.4L252.9 505.1L274.9 504.9L296.9 504.8L318.9 504.6L340.9 504.6L362.9 504.9L384.9 505L406.9 505.6L428.9 505.9L450.9 506L472.8 506.1L494.8 506.2L516.8 506.4L538.8 506.6L560.8 506.7L582.8 506.8L604.8 506.7L626.8 506.6L648.8 506.4L670.8 506.2L692.8 505.8" fill="none" stroke-width="1"></path></g><g><path stroke-linecap="round" stroke-linejoin="round" stroke="#ddd" d="M55 529.6L77 529.7L99 529.8L121 529.8L143 529.9L165 530L187 530.1L209 530.1L230.9 530.2L252.9 530.2L274.9 530.3L296.9 530.3L318.9 530.4L340.9 530.4L362.9 530.4L384.9 530.5L406.9 530.5L428.9 530.5L450.9 530.6L472.8 530.6L494.8 530.6L516.8 530.7L538.8 530.7L560.8 530.7L582.8 530.7L604.8 530.7L626.8 530.8L648.8 530.8L670.8 530.8L692.8 530.9" fill="none" stroke-width="1"></path></g><g><path stroke-linecap="round" stroke-linejoin="round" stroke="#ddd" d="M55 124.3L77 129.2L99 131.8L121 130.2L143 133.4L165 138.8L187 144.4L209 149.2L230.9 153.5L252.9 153.5L274.9 154.2L296.9 156.5L318.9 157.6L340.9 162.1L362.9 169.9L384.9 174.7L406.9 187.8L428.9 197L450.9 201.3L472.8 207.1L494.8 211.5L516.8 219L538.8 226.6L560.8 231L582.8 235.1L604.8 238.7L626.8 241.3L648.8 245.3L670.8 247.3L692.8 249.4" fill="none" stroke-width="1"></path></g><g><path stroke-linecap="round" stroke-linejoin="round" stroke="#ddd" d="M55 531L77 531L99 531L121 531L143 531L165 531L187 531L209 531L230.9 531L252.9 531L274.9 531.1L296.9 531.1L318.9 531.1L340.9 531.1L362.9 531.1L384.9 531.1L406.9 531.1L428.9 531.1L450.9 531.1L472.8 531.1L494.8 531.1L516.8 531.1L538.8 531.1L560.8 531.1L582.8 531.1L604.8 531.1L626.8 531.1L648.8 531.1L670.8 531.1L692.8 531.1" fill="none" stroke-width="1"></path></g><g><path fill="none" stroke-linecap="butt" stroke-linejoin="round" stroke="#fff" stroke-width="2.5" d="M55 491.5L77 492L99 492.3L121 492.1L143 492.3L165 492.9L187 493.4L209 493.9L230.9 494.4L252.9 494.5L274.9 494.7L296.9 495.1L318.9 495.3L340.9 495.8L362.9 496.8L384.9 497.4L406.9 498.8L428.9 499.8L450.9 500.3L472.8 501.1L494.8 501.6L516.8 502.4L538.8 503.2L560.8 503.9L582.8 504.4L604.8 504.9L626.8 505.2L648.8 505.6L670.8 505.8L692.8 506"></path><polyline points="55.00,491.50 77.00,492.00 99.00,492.30 121.00,492.10 143.00,492.30 165.00,492.90 187.00,493.40 209.00,493.90 230.90,494.40 252.90,494.50 274.90,494.70 296.90,495.10 318.90,495.30 340.90,495.80 362.90,496.80 384.90,497.40 406.90,498.80 428.90,499.80 450.90,500.30 472.80,501.10 494.80,501.60 516.80,502.40 538.80,503.20 560.80,503.90 582.80,504.40 604.80,504.90 626.80,505.20 648.80,505.60 670.80,505.80 692.80,506.00" stroke-linejoin="round" stroke-width="1.5" stroke="#286BBB" fill="none" stroke-linecap="butt"></polyline><g><circle cx="55" cy="491.5" r="1.8" fill="#286BBB"></circle><circle cx="77" cy="492" r="1.8" fill="#286BBB"></circle><circle cx="99" cy="492.3" r="1.8" fill="#286BBB"></circle><circle cx="121" cy="492.1" r="1.8" fill="#286BBB"></circle><circle cx="143" cy="492.3" r="1.8" fill="#286BBB"></circle><circle cx="165" cy="492.9" r="1.8" fill="#286BBB"></circle><circle cx="187" cy="493.4" r="1.8" fill="#286BBB"></circle><circle cx="209" cy="493.9" r="1.8" fill="#286BBB"></circle><circle cx="230.9" cy="494.4" r="1.8" fill="#286BBB"></circle><circle cx="252.9" cy="494.5" r="1.8" fill="#286BBB"></circle><circle cx="274.9" cy="494.7" r="1.8" fill="#286BBB"></circle><circle cx="296.9" cy="495.1" r="1.8" fill="#286BBB"></circle><circle cx="318.9" cy="495.3" r="1.8" fill="#286BBB"></circle><circle cx="340.9" cy="495.8" r="1.8" fill="#286BBB"></circle><circle cx="362.9" cy="496.8" r="1.8" fill="#286BBB"></circle><circle cx="384.9" cy="497.4" r="1.8" fill="#286BBB"></circle><circle cx="406.9" cy="498.8" r="1.8" fill="#286BBB"></circle><circle cx="428.9" cy="499.8" r="1.8" fill="#286BBB"></circle><circle cx="450.9" cy="500.3" r="1.8" fill="#286BBB"></circle><circle cx="472.8" cy="501.1" r="1.8" fill="#286BBB"></circle><circle cx="494.8" cy="501.6" r="1.8" fill="#286BBB"></circle><circle cx="516.8" cy="502.4" r="1.8" fill="#286BBB"></circle><circle cx="538.8" cy="503.2" r="1.8" fill="#286BBB"></circle><circle cx="560.8" cy="503.9" r="1.8" fill="#286BBB"></circle><circle cx="582.8" cy="504.4" r="1.8" fill="#286BBB"></circle><circle cx="604.8" cy="504.9" r="1.8" fill="#286BBB"></circle><circle cx="626.8" cy="505.2" r="1.8" fill="#286BBB"></circle><circle cx="648.8" cy="505.6" r="1.8" fill="#286BBB"></circle><circle cx="670.8" cy="505.8" r="1.8" fill="#286BBB"></circle><circle cx="692.8" cy="506" r="1.8" fill="#286BBB"></circle></g></g><g><path fill="none" stroke-linecap="butt" stroke-linejoin="round" stroke="#fff" stroke-width="2.5" d="M55 527.7L77 527.7L99 527.7L121 527.7L143 527.6L165 527.5L187 527.6L209 527.6L230.9 527.6L252.9 527.6L274.9 527.6L296.9 527.6L318.9 527.7L340.9 527.8L362.9 527.8L384.9 527.9L406.9 528L428.9 528L450.9 528L472.8 528L494.8 528L516.8 528.1L538.8 528.2L560.8 528.2L582.8 528.3L604.8 528.3L626.8 528.4L648.8 528.4L670.8 528.4L692.8 528.5"></path><polyline points="55.00,527.70 77.00,527.70 99.00,527.70 121.00,527.70 143.00,527.60 165.00,527.50 187.00,527.60 209.00,527.60 230.90,527.60 252.90,527.60 274.90,527.60 296.90,527.60 318.90,527.70 340.90,527.80 362.90,527.80 384.90,527.90 406.90,528.00 428.90,528.00 450.90,528.00 472.80,528.00 494.80,528.00 516.80,528.10 538.80,528.20 560.80,528.20 582.80,528.30 604.80,528.30 626.80,528.40 648.80,528.40 670.80,528.40 692.80,528.50" stroke-linejoin="round" stroke-width="1.5" stroke="#18470F" fill="none" stroke-linecap="butt"></polyline><g><circle cx="55" cy="527.7" r="1.8" fill="#18470F"></circle><circle cx="77" cy="527.7" r="1.8" fill="#18470F"></circle><circle cx="99" cy="527.7" r="1.8" fill="#18470F"></circle><circle cx="121" cy="527.7" r="1.8" fill="#18470F"></circle><circle cx="143" cy="527.6" r="1.8" fill="#18470F"></circle><circle cx="165" cy="527.5" r="1.8" fill="#18470F"></circle><circle cx="187" cy="527.6" r="1.8" fill="#18470F"></circle><circle cx="209" cy="527.6" r="1.8" fill="#18470F"></circle><circle cx="230.9" cy="527.6" r="1.8" fill="#18470F"></circle><circle cx="252.9" cy="527.6" r="1.8" fill="#18470F"></circle><circle cx="274.9" cy="527.6" r="1.8" fill="#18470F"></circle><circle cx="296.9" cy="527.6" r="1.8" fill="#18470F"></circle><circle cx="318.9" cy="527.7" r="1.8" fill="#18470F"></circle><circle cx="340.9" cy="527.8" r="1.8" fill="#18470F"></circle><circle cx="362.9" cy="527.8" r="1.8" fill="#18470F"></circle><circle cx="384.9" cy="527.9" r="1.8" fill="#18470F"></circle><circle cx="406.9" cy="528" r="1.8" fill="#18470F"></circle><circle cx="428.9" cy="528" r="1.8" fill="#18470F"></circle><circle cx="450.9" cy="528" r="1.8" fill="#18470F"></circle><circle cx="472.8" cy="528" r="1.8" fill="#18470F"></circle><circle cx="494.8" cy="528" r="1.8" fill="#18470F"></circle><circle cx="516.8" cy="528.1" r="1.8" fill="#18470F"></circle><circle cx="538.8" cy="528.2" r="1.8" fill="#18470F"></circle><circle cx="560.8" cy="528.2" r="1.8" fill="#18470F"></circle><circle cx="582.8" cy="528.3" r="1.8" fill="#18470F"></circle><circle cx="604.8" cy="528.3" r="1.8" fill="#18470F"></circle><circle cx="626.8" cy="528.4" r="1.8" fill="#18470F"></circle><circle cx="648.8" cy="528.4" r="1.8" fill="#18470F"></circle><circle cx="670.8" cy="528.4" r="1.8" fill="#18470F"></circle><circle cx="692.8" cy="528.5" r="1.8" fill="#18470F"></circle></g></g><g><path fill="none" stroke-linecap="butt" stroke-linejoin="round" stroke="#fff" stroke-width="2.5" d="M55 466.3L77 466.9L99 466.7L121 465.9L143 466L165 466.9L187 467.9L209 469L230.9 470.5L252.9 471.6L274.9 472.3L296.9 473.4L318.9 473.8L340.9 474.8L362.9 476.7L384.9 478.3L406.9 480.8L428.9 482.6L450.9 483.8L472.8 485.1L494.8 486L516.8 486.9L538.8 487.6L560.8 488.8L582.8 489.7L604.8 489.8L626.8 490.1L648.8 490.8L670.8 491.3L692.8 491.6"></path><polyline points="55.00,466.30 77.00,466.90 99.00,466.70 121.00,465.90 143.00,466.00 165.00,466.90 187.00,467.90 209.00,469.00 230.90,470.50 252.90,471.60 274.90,472.30 296.90,473.40 318.90,473.80 340.90,474.80 362.90,476.70 384.90,478.30 406.90,480.80 428.90,482.60 450.90,483.80 472.80,485.10 494.80,486.00 516.80,486.90 538.80,487.60 560.80,488.80 582.80,489.70 604.80,489.80 626.80,490.10 648.80,490.80 670.80,491.30 692.80,491.60" stroke-linejoin="round" stroke-width="1.5" stroke="#CF0A66" fill="none" stroke-linecap="butt"></polyline><g><circle cx="55" cy="466.3" r="1.8" fill="#CF0A66"></circle><circle cx="77" cy="466.9" r="1.8" fill="#CF0A66"></circle><circle cx="99" cy="466.7" r="1.8" fill="#CF0A66"></circle><circle cx="121" cy="465.9" r="1.8" fill="#CF0A66"></circle><circle cx="143" cy="466" r="1.8" fill="#CF0A66"></circle><circle cx="165" cy="466.9" r="1.8" fill="#CF0A66"></circle><circle cx="187" cy="467.9" r="1.8" fill="#CF0A66"></circle><circle cx="209" cy="469" r="1.8" fill="#CF0A66"></circle><circle cx="230.9" cy="470.5" r="1.8" fill="#CF0A66"></circle><circle cx="252.9" cy="471.6" r="1.8" fill="#CF0A66"></circle><circle cx="274.9" cy="472.3" r="1.8" fill="#CF0A66"></circle><circle cx="296.9" cy="473.4" r="1.8" fill="#CF0A66"></circle><circle cx="318.9" cy="473.8" r="1.8" fill="#CF0A66"></circle><circle cx="340.9" cy="474.8" r="1.8" fill="#CF0A66"></circle><circle cx="362.9" cy="476.7" r="1.8" fill="#CF0A66"></circle><circle cx="384.9" cy="478.3" r="1.8" fill="#CF0A66"></circle><circle cx="406.9" cy="480.8" r="1.8" fill="#CF0A66"></circle><circle cx="428.9" cy="482.6" r="1.8" fill="#CF0A66"></circle><circle cx="450.9" cy="483.8" r="1.8" fill="#CF0A66"></circle><circle cx="472.8" cy="485.1" r="1.8" fill="#CF0A66"></circle><circle cx="494.8" cy="486" r="1.8" fill="#CF0A66"></circle><circle cx="516.8" cy="486.9" r="1.8" fill="#CF0A66"></circle><circle cx="538.8" cy="487.6" r="1.8" fill="#CF0A66"></circle><circle cx="560.8" cy="488.8" r="1.8" fill="#CF0A66"></circle><circle cx="582.8" cy="489.7" r="1.8" fill="#CF0A66"></circle><circle cx="604.8" cy="489.8" r="1.8" fill="#CF0A66"></circle><circle cx="626.8" cy="490.1" r="1.8" fill="#CF0A66"></circle><circle cx="648.8" cy="490.8" r="1.8" fill="#CF0A66"></circle><circle cx="670.8" cy="491.3" r="1.8" fill="#CF0A66"></circle><circle cx="692.8" cy="491.6" r="1.8" fill="#CF0A66"></circle></g></g><g><path fill="none" stroke-linecap="butt" stroke-linejoin="round" stroke="#fff" stroke-width="2.5" d="M55 505.6L77 505.7L99 505.6L121 505.2L143 505.1L165 505.2L187 505.3L209 505.3L230.9 505.4L252.9 505.1L274.9 504.9L296.9 504.8L318.9 504.6L340.9 504.6L362.9 504.9L384.9 505L406.9 505.6L428.9 505.9L450.9 506L472.8 506.1L494.8 506.2L516.8 506.4L538.8 506.6L560.8 506.7L582.8 506.8L604.8 506.7L626.8 506.6L648.8 506.4L670.8 506.2L692.8 505.8"></path><polyline points="55.00,505.60 77.00,505.70 99.00,505.60 121.00,505.20 143.00,505.10 165.00,505.20 187.00,505.30 209.00,505.30 230.90,505.40 252.90,505.10 274.90,504.90 296.90,504.80 318.90,504.60 340.90,504.60 362.90,504.90 384.90,505.00 406.90,505.60 428.90,505.90 450.90,506.00 472.80,506.10 494.80,506.20 516.80,506.40 538.80,506.60 560.80,506.70 582.80,506.80 604.80,506.70 626.80,506.60 648.80,506.40 670.80,506.20 692.80,505.80" stroke-linejoin="round" stroke-width="1.5" stroke="#6D3E91" fill="none" stroke-linecap="butt"></polyline><g><circle cx="55" cy="505.6" r="1.8" fill="#6D3E91"></circle><circle cx="77" cy="505.7" r="1.8" fill="#6D3E91"></circle><circle cx="99" cy="505.6" r="1.8" fill="#6D3E91"></circle><circle cx="121" cy="505.2" r="1.8" fill="#6D3E91"></circle><circle cx="143" cy="505.1" r="1.8" fill="#6D3E91"></circle><circle cx="165" cy="505.2" r="1.8" fill="#6D3E91"></circle><circle cx="187" cy="505.3" r="1.8" fill="#6D3E91"></circle><circle cx="209" cy="505.3" r="1.8" fill="#6D3E91"></circle><circle cx="230.9" cy="505.4" r="1.8" fill="#6D3E91"></circle><circle cx="252.9" cy="505.1" r="1.8" fill="#6D3E91"></circle><circle cx="274.9" cy="504.9" r="1.8" fill="#6D3E91"></circle><circle cx="296.9" cy="504.8" r="1.8" fill="#6D3E91"></circle><circle cx="318.9" cy="504.6" r="1.8" fill="#6D3E91"></circle><circle cx="340.9" cy="504.6" r="1.8" fill="#6D3E91"></circle><circle cx="362.9" cy="504.9" r="1.8" fill="#6D3E91"></circle><circle cx="384.9" cy="505" r="1.8" fill="#6D3E91"></circle><circle cx="406.9" cy="505.6" r="1.8" fill="#6D3E91"></circle><circle cx="428.9" cy="505.9" r="1.8" fill="#6D3E91"></circle><circle cx="450.9" cy="506" r="1.8" fill="#6D3E91"></circle><circle cx="472.8" cy="506.1" r="1.8" fill="#6D3E91"></circle><circle cx="494.8" cy="506.2" r="1.8" fill="#6D3E91"></circle><circle cx="516.8" cy="506.4" r="1.8" fill="#6D3E91"></circle><circle cx="538.8" cy="506.6" r="1.8" fill="#6D3E91"></circle><circle cx="560.8" cy="506.7" r="1.8" fill="#6D3E91"></circle><circle cx="582.8" cy="506.8" r="1.8" fill="#6D3E91"></circle><circle cx="604.8" cy="506.7" r="1.8" fill="#6D3E91"></circle><circle cx="626.8" cy="506.6" r="1.8" fill="#6D3E91"></circle><circle cx="648.8" cy="506.4" r="1.8" fill="#6D3E91"></circle><circle cx="670.8" cy="506.2" r="1.8" fill="#6D3E91"></circle><circle cx="692.8" cy="505.8" r="1.8" fill="#6D3E91"></circle></g></g><g><path fill="none" stroke-linecap="butt" stroke-linejoin="round" stroke="#fff" stroke-width="2.5" d="M55 529.6L77 529.7L99 529.8L121 529.8L143 529.9L165 530L187 530.1L209 530.1L230.9 530.2L252.9 530.2L274.9 530.3L296.9 530.3L318.9 530.4L340.9 530.4L362.9 530.4L384.9 530.5L406.9 530.5L428.9 530.5L450.9 530.6L472.8 530.6L494.8 530.6L516.8 530.7L538.8 530.7L560.8 530.7L582.8 530.7L604.8 530.7L626.8 530.8L648.8 530.8L670.8 530.8L692.8 530.9"></path><polyline points="55.00,529.60 77.00,529.70 99.00,529.80 121.00,529.80 143.00,529.90 165.00,530.00 187.00,530.10 209.00,530.10 230.90,530.20 252.90,530.20 274.90,530.30 296.90,530.30 318.90,530.40 340.90,530.40 362.90,530.40 384.90,530.50 406.90,530.50 428.90,530.50 450.90,530.60 472.80,530.60 494.80,530.60 516.80,530.70 538.80,530.70 560.80,530.70 582.80,530.70 604.80,530.70 626.80,530.80 648.80,530.80 670.80,530.80 692.80,530.90" stroke-linejoin="round" stroke-width="1.5" stroke="#BE5915" fill="none" stroke-linecap="butt"></polyline><g><circle cx="55" cy="529.6" r="1.8" fill="#BE5915"></circle><circle cx="77" cy="529.7" r="1.8" fill="#BE5915"></circle><circle cx="99" cy="529.8" r="1.8" fill="#BE5915"></circle><circle cx="121" cy="529.8" r="1.8" fill="#BE5915"></circle><circle cx="143" cy="529.9" r="1.8" fill="#BE5915"></circle><circle cx="165" cy="530" r="1.8" fill="#BE5915"></circle><circle cx="187" cy="530.1" r="1.8" fill="#BE5915"></circle><circle cx="209" cy="530.1" r="1.8" fill="#BE5915"></circle><circle cx="230.9" cy="530.2" r="1.8" fill="#BE5915"></circle><circle cx="252.9" cy="530.2" r="1.8" fill="#BE5915"></circle><circle cx="274.9" cy="530.3" r="1.8" fill="#BE5915"></circle><circle cx="296.9" cy="530.3" r="1.8" fill="#BE5915"></circle><circle cx="318.9" cy="530.4" r="1.8" fill="#BE5915"></circle><circle cx="340.9" cy="530.4" r="1.8" fill="#BE5915"></circle><circle cx="362.9" cy="530.4" r="1.8" fill="#BE5915"></circle><circle cx="384.9" cy="530.5" r="1.8" fill="#BE5915"></circle><circle cx="406.9" cy="530.5" r="1.8" fill="#BE5915"></circle><circle cx="428.9" cy="530.5" r="1.8" fill="#BE5915"></circle><circle cx="450.9" cy="530.6" r="1.8" fill="#BE5915"></circle><circle cx="472.8" cy="530.6" r="1.8" fill="#BE5915"></circle><circle cx="494.8" cy="530.6" r="1.8" fill="#BE5915"></circle><circle cx="516.8" cy="530.7" r="1.8" fill="#BE5915"></circle><circle cx="538.8" cy="530.7" r="1.8" fill="#BE5915"></circle><circle cx="560.8" cy="530.7" r="1.8" fill="#BE5915"></circle><circle cx="582.8" cy="530.7" r="1.8" fill="#BE5915"></circle><circle cx="604.8" cy="530.7" r="1.8" fill="#BE5915"></circle><circle cx="626.8" cy="530.8" r="1.8" fill="#BE5915"></circle><circle cx="648.8" cy="530.8" r="1.8" fill="#BE5915"></circle><circle cx="670.8" cy="530.8" r="1.8" fill="#BE5915"></circle><circle cx="692.8" cy="530.9" r="1.8" fill="#BE5915"></circle></g></g><g><path fill="none" stroke-linecap="butt" stroke-linejoin="round" stroke="#fff" stroke-width="2.5" d="M55 124.3L77 129.2L99 131.8L121 130.2L143 133.4L165 138.8L187 144.4L209 149.2L230.9 153.5L252.9 153.5L274.9 154.2L296.9 156.5L318.9 157.6L340.9 162.1L362.9 169.9L384.9 174.7L406.9 187.8L428.9 197L450.9 201.3L472.8 207.1L494.8 211.5L516.8 219L538.8 226.6L560.8 231L582.8 235.1L604.8 238.7L626.8 241.3L648.8 245.3L670.8 247.3L692.8 249.4"></path><polyline points="55.00,124.30 77.00,129.20 99.00,131.80 121.00,130.20 143.00,133.40 165.00,138.80 187.00,144.40 209.00,149.20 230.90,153.50 252.90,153.50 274.90,154.20 296.90,156.50 318.90,157.60 340.90,162.10 362.90,169.90 384.90,174.70 406.90,187.80 428.90,197.00 450.90,201.30 472.80,207.10 494.80,211.50 516.80,219.00 538.80,226.60 560.80,231.00 582.80,235.10 604.80,238.70 626.80,241.30 648.80,245.30 670.80,247.30 692.80,249.40" stroke-linejoin="round" stroke-width="1.5" stroke="#2C8465" fill="none" stroke-linecap="butt"></polyline><g><circle cx="55" cy="124.3" r="1.8" fill="#2C8465"></circle><circle cx="77" cy="129.2" r="1.8" fill="#2C8465"></circle><circle cx="99" cy="131.8" r="1.8" fill="#2C8465"></circle><circle cx="121" cy="130.2" r="1.8" fill="#2C8465"></circle><circle cx="143" cy="133.4" r="1.8" fill="#2C8465"></circle><circle cx="165" cy="138.8" r="1.8" fill="#2C8465"></circle><circle cx="187" cy="144.4" r="1.8" fill="#2C8465"></circle><circle cx="209" cy="149.2" r="1.8" fill="#2C8465"></circle><circle cx="230.9" cy="153.5" r="1.8" fill="#2C8465"></circle><circle cx="252.9" cy="153.5" r="1.8" fill="#2C8465"></circle><circle cx="274.9" cy="154.2" r="1.8" fill="#2C8465"></circle><circle cx="296.9" cy="156.5" r="1.8" fill="#2C8465"></circle><circle cx="318.9" cy="157.6" r="1.8" fill="#2C8465"></circle><circle cx="340.9" cy="162.1" r="1.8" fill="#2C8465"></circle><circle cx="362.9" cy="169.9" r="1.8" fill="#2C8465"></circle><circle cx="384.9" cy="174.7" r="1.8" fill="#2C8465"></circle><circle cx="406.9" cy="187.8" r="1.8" fill="#2C8465"></circle><circle cx="428.9" cy="197" r="1.8" fill="#2C8465"></circle><circle cx="450.9" cy="201.3" r="1.8" fill="#2C8465"></circle><circle cx="472.8" cy="207.1" r="1.8" fill="#2C8465"></circle><circle cx="494.8" cy="211.5" r="1.8" fill="#2C8465"></circle><circle cx="516.8" cy="219" r="1.8" fill="#2C8465"></circle><circle cx="538.8" cy="226.6" r="1.8" fill="#2C8465"></circle><circle cx="560.8" cy="231" r="1.8" fill="#2C8465"></circle><circle cx="582.8" cy="235.1" r="1.8" fill="#2C8465"></circle><circle cx="604.8" cy="238.7" r="1.8" fill="#2C8465"></circle><circle cx="626.8" cy="241.3" r="1.8" fill="#2C8465"></circle><circle cx="648.8" cy="245.3" r="1.8" fill="#2C8465"></circle><circle cx="670.8" cy="247.3" r="1.8" fill="#2C8465"></circle><circle cx="692.8" cy="249.4" r="1.8" fill="#2C8465"></circle></g></g><g><path fill="none" stroke-linecap="butt" stroke-linejoin="round" stroke="#fff" stroke-width="2.5" d="M55 531L77 531L99 531L121 531L143 531L165 531L187 531L209 531L230.9 531L252.9 531L274.9 531.1L296.9 531.1L318.9 531.1L340.9 531.1L362.9 531.1L384.9 531.1L406.9 531.1L428.9 531.1L450.9 531.1L472.8 531.1L494.8 531.1L516.8 531.1L538.8 531.1L560.8 531.1L582.8 531.1L604.8 531.1L626.8 531.1L648.8 531.1L670.8 531.1L692.8 531.1"></path><polyline points="55.00,531.00 77.00,531.00 99.00,531.00 121.00,531.00 143.00,531.00 165.00,531.00 187.00,531.00 209.00,531.00 230.90,531.00 252.90,531.00 274.90,531.10 296.90,531.10 318.90,531.10 340.90,531.10 362.90,531.10 384.90,531.10 406.90,531.10 428.90,531.10 450.90,531.10 472.80,531.10 494.80,531.10 516.80,531.10 538.80,531.10 560.80,531.10 582.80,531.10 604.80,531.10 626.80,531.10 648.80,531.10 670.80,531.10 692.80,531.10" stroke-linejoin="round" stroke-width="1.5" stroke="#C15065" fill="none" stroke-linecap="butt"></polyline><g><circle cx="55" cy="531" r="1.8" fill="#C15065"></circle><circle cx="77" cy="531" r="1.8" fill="#C15065"></circle><circle cx="99" cy="531" r="1.8" fill="#C15065"></circle><circle cx="121" cy="531" r="1.8" fill="#C15065"></circle><circle cx="143" cy="531" r="1.8" fill="#C15065"></circle><circle cx="165" cy="531" r="1.8" fill="#C15065"></circle><circle cx="187" cy="531" r="1.8" fill="#C15065"></circle><circle cx="209" cy="531" r="1.8" fill="#C15065"></circle><circle cx="230.9" cy="531" r="1.8" fill="#C15065"></circle><circle cx="252.9" cy="531" r="1.8" fill="#C15065"></circle><circle cx="274.9" cy="531.1" r="1.8" fill="#C15065"></circle><circle cx="296.9" cy="531.1" r="1.8" fill="#C15065"></circle><circle cx="318.9" cy="531.1" r="1.8" fill="#C15065"></circle><circle cx="340.9" cy="531.1" r="1.8" fill="#C15065"></circle><circle cx="362.9" cy="531.1" r="1.8" fill="#C15065"></circle><circle cx="384.9" cy="531.1" r="1.8" fill="#C15065"></circle><circle cx="406.9" cy="531.1" r="1.8" fill="#C15065"></circle><circle cx="428.9" cy="531.1" r="1.8" fill="#C15065"></circle><circle cx="450.9" cy="531.1" r="1.8" fill="#C15065"></circle><circle cx="472.8" cy="531.1" r="1.8" fill="#C15065"></circle><circle cx="494.8" cy="531.1" r="1.8" fill="#C15065"></circle><circle cx="516.8" cy="531.1" r="1.8" fill="#C15065"></circle><circle cx="538.8" cy="531.1" r="1.8" fill="#C15065"></circle><circle cx="560.8" cy="531.1" r="1.8" fill="#C15065"></circle><circle cx="582.8" cy="531.1" r="1.8" fill="#C15065"></circle><circle cx="604.8" cy="531.1" r="1.8" fill="#C15065"></circle><circle cx="626.8" cy="531.1" r="1.8" fill="#C15065"></circle><circle cx="648.8" cy="531.1" r="1.8" fill="#C15065"></circle><circle cx="670.8" cy="531.1" r="1.8" fill="#C15065"></circle><circle cx="692.8" cy="531.1" r="1.8" fill="#C15065"></circle></g></g></g></g></g></g><g class="SourcesFooter" style="fill:#5b5b5b"><text x="16.0" y="580.9" style="font-size:13.5px;line-height:1.2"><tspan x="16" y="580.9"><tspan style="font-weight:700">Data source:</tspan> IHME, Global Burden of Disease (2019)</tspan></text><text font-size="13.50" x="559.5" y="580.9"><tspan x="559.545" y="580.895"><a target="_blank" style="fill: #5b5b5b;  text-decoration: underline;" href="https://ourworldindata.org/causes-of-death">OurWorldInData.org/causes-of-death</a> | <a target="_blank" style="fill: #5b5b5b;  text-decoration: underline;" href="https://creativecommons.org/licenses/by/4.0/">CC BY</a></tspan></text></g></svg>