<svg xmlns="http://www.w3.org/2000/svg" version="1.1" style="font-family:Lato, &#x27;Helvetica Neue&#x27;, Helvetica, Arial, &#x27;Liberation Sans&#x27;, sans-serif;font-size:18px;background-color:#ffffff;text-rendering:geometricPrecision;-webkit-font-smoothing:antialiased" width="850" height="600" viewBox="0 0 850 600"><defs><style>@import url(https://ourworldindata.org/fonts.css)</style></defs><defs><pattern id="noDataPattern" patternUnits="userSpaceOnUse" width="4" height="4" patternTransform="rotate(-45 2 2)"><path d="M -1,2 l 6,0" stroke="#ccc" stroke-width="0.7"></path></pattern></defs><rect class="background-fill" fill="#ffffff" width="850" height="600"></rect><g id="header" class="HeaderView"><g id="logo" transform="translate(769, 16) scale(1)"><svg className="owidLogo" xmlns="http://www.w3.org/2000/svg" width="65" height="36" viewBox="0 0 65 36"  fill="none"><path fill="#002147" d="M0 0h64.8v36H0z"/><path fill="#CE261E" d="M0 33.3h64.8V36H0z"/><path fill="#fff" d="M13.796 10.575c0 .636-.106 1.226-.318 1.77a4.193 4.193 0 0 1-.894 1.404 4.084 4.084 0 0 1-1.386.93c-.54.22-1.138.33-1.794.33-.656 0-1.256-.11-1.8-.33a4.149 4.149 0 0 1-1.392-.93 4.193 4.193 0 0 1-.894-1.404A4.833 4.833 0 0 1 5 10.575c0-.636.106-1.224.318-1.764a4.18 4.18 0 0 1 .894-1.41 4.076 4.076 0 0 1 1.392-.924 4.684 4.684 0 0 1 1.8-.336c.656 0 1.254.112 1.794.336.54.224 1.002.534 1.386.93.384.392.682.86.894 1.404.212.54.318 1.128.318 1.764Zm-1.656 0c0-.476-.064-.902-.192-1.278a2.671 2.671 0 0 0-.54-.966 2.332 2.332 0 0 0-.864-.606 2.94 2.94 0 0 0-1.14-.21c-.424 0-.806.07-1.146.21-.34.14-.63.342-.87.606a2.742 2.742 0 0 0-.546.966 3.955 3.955 0 0 0-.192 1.278c0 .476.064.904.192 1.284.128.376.31.696.546.96.24.26.53.46.87.6.34.14.722.21 1.146.21.424 0 .804-.07 1.14-.21.34-.14.628-.34.864-.6.236-.264.416-.584.54-.96a4.01 4.01 0 0 0 .192-1.284ZM16.104 8.757v3.912c0 .376.086.668.258.876.176.204.438.306.786.306.256 0 .496-.056.72-.168a2.58 2.58 0 0 0 .636-.474V8.757h1.482v6.156h-.906c-.192 0-.318-.09-.378-.27l-.102-.492a4.65 4.65 0 0 1-.396.354 2.577 2.577 0 0 1-.438.27 2.35 2.35 0 0 1-.498.168 2.345 2.345 0 0 1-.57.066c-.336 0-.634-.056-.894-.168a1.821 1.821 0 0 1-.648-.486 2.157 2.157 0 0 1-.402-.738 3.233 3.233 0 0 1-.132-.948V8.757h1.482ZM21.328 14.913V8.757h.87c.152 0 .258.028.318.084.06.056.1.152.12.288l.09.744c.22-.38.478-.68.774-.9.296-.22.628-.33.996-.33.304 0 .556.07.756.21l-.192 1.11c-.012.072-.038.124-.078.156a.278.278 0 0 1-.162.042 1.01 1.01 0 0 1-.246-.042 1.646 1.646 0 0 0-.414-.042c-.308 0-.572.086-.792.258-.22.168-.406.416-.558.744v3.834h-1.482ZM27.347 6.237h1.356a.57.57 0 0 1 .348.102c.096.064.16.152.192.264l1.476 5.19c.036.128.068.268.096.42.032.148.062.306.09.474a5.968 5.968 0 0 1 .228-.894l1.704-5.19a.575.575 0 0 1 .186-.252.543.543 0 0 1 .348-.114h.474a.57.57 0 0 1 .348.102.497.497 0 0 1 .192.264l1.692 5.19c.088.256.164.54.228.852.028-.156.056-.306.084-.45.032-.144.064-.278.096-.402l1.476-5.19c.028-.1.09-.186.186-.258a.563.563 0 0 1 .348-.108h1.266l-2.694 8.676h-1.458l-1.896-5.928-.078-.246a9.504 9.504 0 0 1-.072-.282c-.024.1-.05.194-.078.282-.024.088-.048.17-.072.246l-1.914 5.928H30.04l-2.694-8.676ZM42.771 8.661c.46 0 .876.074 1.248.222.376.148.696.358.96.63s.468.604.612.996c.144.392.216.83.216 1.314 0 .488-.072.928-.216 1.32a2.85 2.85 0 0 1-.612 1.002 2.653 2.653 0 0 1-.96.636 3.35 3.35 0 0 1-1.248.222c-.46 0-.878-.074-1.254-.222a2.712 2.712 0 0 1-.966-.636 2.922 2.922 0 0 1-.618-1.002 3.807 3.807 0 0 1-.216-1.32c0-.484.072-.922.216-1.314.148-.392.354-.724.618-.996.268-.272.59-.482.966-.63a3.397 3.397 0 0 1 1.254-.222Zm0 5.202c.512 0 .89-.172 1.134-.516.248-.344.372-.848.372-1.512s-.124-1.17-.372-1.518c-.244-.348-.622-.522-1.134-.522-.52 0-.904.176-1.152.528-.248.348-.372.852-.372 1.512s.124 1.164.372 1.512c.248.344.632.516 1.152.516ZM46.723 14.913V8.757h.87c.152 0 .258.028.318.084.06.056.1.152.12.288l.09.744c.22-.38.478-.68.774-.9.296-.22.628-.33.996-.33.304 0 .556.07.756.21l-.192 1.11c-.012.072-.038.124-.078.156a.278.278 0 0 1-.162.042 1.01 1.01 0 0 1-.246-.042 1.646 1.646 0 0 0-.414-.042c-.308 0-.572.086-.792.258-.22.168-.406.416-.558.744v3.834h-1.482ZM52.96 5.997v8.916h-1.482V5.997h1.482ZM58.732 14.913c-.192 0-.318-.09-.378-.27l-.12-.594a3.68 3.68 0 0 1-.402.39c-.14.116-.292.216-.456.3-.16.084-.334.148-.522.192a2.372 2.372 0 0 1-.6.072c-.336 0-.644-.07-.924-.21a2.098 2.098 0 0 1-.726-.606 3.033 3.033 0 0 1-.468-.99 5.072 5.072 0 0 1-.162-1.344c0-.456.062-.88.186-1.272s.302-.732.534-1.02c.232-.288.51-.512.834-.672a2.384 2.384 0 0 1 1.092-.246 2.103 2.103 0 0 1 1.536.606V5.997h1.482v8.916h-.906Zm-1.974-1.086c.308 0 .57-.064.786-.192.216-.128.42-.31.612-.546v-2.76a1.452 1.452 0 0 0-.552-.432 1.597 1.597 0 0 0-.636-.126c-.224 0-.428.042-.612.126a1.21 1.21 0 0 0-.462.384c-.124.168-.22.384-.288.648-.068.26-.102.568-.102.924 0 .36.028.666.084.918.06.248.144.452.252.612.108.156.24.27.396.342.156.068.33.102.522.102ZM16.331 20.757v6.156H14.85v-6.156h1.481Zm.223-1.794a.844.844 0 0 1-.078.36.963.963 0 0 1-.21.294.995.995 0 0 1-.3.204.963.963 0 0 1-.372.072.948.948 0 0 1-.367-.072 1.018 1.018 0 0 1-.498-.498.963.963 0 0 1 0-.732.995.995 0 0 1 .205-.3.929.929 0 0 1 .293-.198.899.899 0 0 1 .738 0 .912.912 0 0 1 .3.198.943.943 0 0 1 .288.672ZM17.771 26.913v-6.156h.906c.192 0 .318.09.378.27l.102.486a2.934 2.934 0 0 1 .828-.618c.156-.076.322-.134.498-.174.176-.04.368-.06.576-.06.336 0 .634.058.894.174.26.112.476.272.648.48.176.204.308.45.396.738.092.284.138.598.138.942v3.918h-1.482v-3.918c0-.376-.088-.666-.264-.87-.172-.208-.432-.312-.78-.312-.256 0-.496.058-.72.174a2.58 2.58 0 0 0-.636.474v4.452h-1.482ZM34.22 22.575c0 .636-.106 1.22-.318 1.752-.212.532-.51.99-.894 1.374a4 4 0 0 1-1.386.894 4.87 4.87 0 0 1-1.794.318h-3.312v-8.676h3.312a4.79 4.79 0 0 1 1.794.324 4 4 0 0 1 1.386.894c.384.38.682.836.894 1.368.212.532.318 1.116.318 1.752Zm-1.65 0c0-.476-.064-.902-.192-1.278a2.68 2.68 0 0 0-.546-.96 2.332 2.332 0 0 0-.864-.606 2.94 2.94 0 0 0-1.14-.21h-1.686v6.108h1.686c.424 0 .804-.07 1.14-.21.34-.14.628-.34.864-.6a2.75 2.75 0 0 0 .546-.96 4.01 4.01 0 0 0 .192-1.284ZM39.98 26.913h-.665c-.14 0-.25-.02-.33-.06-.08-.044-.14-.13-.18-.258l-.132-.438c-.156.14-.31.264-.462.372a2.804 2.804 0 0 1-.462.264c-.16.072-.33.126-.51.162-.18.036-.38.054-.6.054-.26 0-.5-.034-.72-.102a1.618 1.618 0 0 1-.57-.318 1.448 1.448 0 0 1-.366-.522 1.852 1.852 0 0 1-.132-.726c0-.232.06-.46.18-.684.124-.228.328-.432.612-.612.284-.184.662-.336 1.134-.456.472-.12 1.058-.188 1.758-.204v-.36c0-.412-.088-.716-.264-.912-.172-.2-.424-.3-.756-.3a1.837 1.837 0 0 0-1.02.276c-.116.068-.224.13-.324.186a.664.664 0 0 1-.33.084.429.429 0 0 1-.258-.078.614.614 0 0 1-.174-.192l-.27-.474c.708-.648 1.562-.972 2.562-.972.36 0 .68.06.96.18.284.116.524.28.72.492.196.208.344.458.444.75.104.292.156.612.156.96v3.888Zm-2.88-.924c.153 0 .293-.014.42-.042.129-.028.249-.07.36-.126.117-.056.227-.124.33-.204.109-.084.217-.182.325-.294v-1.038c-.432.02-.794.058-1.086.114-.288.052-.52.12-.696.204a.923.923 0 0 0-.378.294.664.664 0 0 0-.108.366c0 .26.076.446.228.558.156.112.358.168.606.168ZM43.22 27.01c-.532 0-.942-.15-1.23-.45-.288-.305-.432-.723-.432-1.255v-3.438h-.624a.31.31 0 0 1-.21-.078c-.056-.052-.084-.13-.084-.234v-.588l.99-.162.312-1.68a.302.302 0 0 1 .108-.186.365.365 0 0 1 .222-.066h.768v1.938h1.62v1.056h-1.62v3.336c0 .192.048.342.144.45a.488.488 0 0 0 .384.162c.092 0 .168-.01.228-.03.064-.024.118-.048.162-.072.048-.024.09-.046.126-.066a.194.194 0 0 1 .108-.036.16.16 0 0 1 .108.036c.028.02.058.052.09.096l.444.72c-.216.18-.464.316-.744.408a2.77 2.77 0 0 1-.87.138ZM50.423 26.913h-.666c-.14 0-.25-.02-.33-.06-.08-.044-.14-.13-.18-.258l-.132-.438c-.156.14-.31.264-.462.372a2.804 2.804 0 0 1-.462.264c-.16.072-.33.126-.51.162-.18.036-.38.054-.6.054-.26 0-.5-.034-.72-.102a1.618 1.618 0 0 1-.57-.318 1.448 1.448 0 0 1-.366-.522 1.852 1.852 0 0 1-.132-.726c0-.232.06-.46.18-.684.124-.228.328-.432.612-.612.284-.184.662-.336 1.134-.456.472-.12 1.058-.188 1.758-.204v-.36c0-.412-.088-.716-.264-.912-.172-.2-.424-.3-.756-.3a1.837 1.837 0 0 0-1.02.276c-.116.068-.224.13-.324.186a.664.664 0 0 1-.33.084.429.429 0 0 1-.258-.078.614.614 0 0 1-.174-.192l-.27-.474c.708-.648 1.562-.972 2.562-.972.36 0 .68.06.96.18.284.116.524.28.72.492.196.208.344.458.444.75.104.292.156.612.156.96v3.888Zm-2.88-.924c.152 0 .292-.014.42-.042.128-.028.248-.07.36-.126.116-.056.226-.124.33-.204.108-.084.216-.182.324-.294v-1.038c-.432.02-.794.058-1.086.114-.288.052-.52.12-.696.204a.923.923 0 0 0-.378.294.664.664 0 0 0-.108.366c0 .26.076.446.228.558.156.112.358.168.606.168Z"/></svg></g><a id="title" href="https://ourworldindata.org/grapher/suicide-rates-among-young-men-who-mdb" style="font-family:&#x27;Playfair Display&#x27;, Georgia, &#x27;Times New Roman&#x27;, &#x27;Liberation Serif&#x27;, serif" target="_blank" rel="noopener"><text font-size="24.00" font-weight="600" x="16.0" y="39.3" fill="#5b5b5b"><tspan x="16" y="39.28">Reported suicide rates among young men</tspan></text></a><g id="subtitle" class="markdown-text-wrap"><text x="16.0" y="62.4" style="font-size:14px;line-height:1.2" fill="#5b5b5b"><tspan x="16" y="62.4">Reported annual death rate from suicide per 100,000 men of each age group. Suicide deaths are underreported in</tspan><tspan x="16" y="79.2">many countries due to social stigma and cultural or legal concerns. This data has not been adjusted for underreporting,</tspan><tspan x="16" y="96.0">and comparisons may be affected by differences in measurement.</tspan></text></g></g><g id="chart-area" style="pointer-events:none"><g id="categorical-color-legend" class="categoricalColorLegend"><g id="swatches"><rect id="15–19-years" x="16" y="115.19999999999999" width="13.5" height="13.5" fill="#2c8465" stroke-width="0.4"></rect><rect id="20–24-years" x="125.26800000000001" y="115.19999999999999" width="13.5" height="13.5" fill="#be5915" stroke-width="0.4"></rect><rect id="25–29-years" x="234.53600000000003" y="115.19999999999999" width="13.5" height="13.5" fill="#6d3e91" stroke-width="0.4"></rect></g><g id="labels"><text x="34.5" y="121.94999999999999" dy=".32em" font-size="14.4" opacity="1">15–19 years</text><text x="143.76800000000003" y="121.94999999999999" dy=".32em" font-size="14.4" opacity="1">20–24 years</text><text x="253.03600000000003" y="121.94999999999999" dy=".32em" font-size="14.4" opacity="1">25–29 years</text></g><g><g style="cursor:pointer"><rect x="16" y="112.69999999999999" height="18.5" width="109.26800000000001" fill="#fff" opacity="0"></rect></g><g style="cursor:pointer"><rect x="125.26800000000001" y="112.69999999999999" height="18.5" width="109.26800000000001" fill="#fff" opacity="0"></rect></g><g style="cursor:pointer"><rect x="234.53600000000003" y="112.69999999999999" height="18.5" width="109.26800000000001" fill="#fff" opacity="0"></rect></g></g></g><text x="34.23" y="156.2625" fill="#5b5b5b" font-size="15.75" style="font-weight:700">United States<title>United States</title></text><g class="LineChart"><defs><clipPath id="boundsClip-1"><rect x="24.229999999999997" y="154.1375" width="421" height="185"></rect></clipPath></defs><rect x="16" y="164.1375" width="401" height="165" fill-opacity="0"></rect><g id="horizontal-axis" class="HorizontalAxis"><g id="tick-marks"><line id="1950" x1="34.2" y1="309.825" x2="34.2" y2="315.325" stroke="#999" stroke-width="1"></line><line id="2022" x1="416" y1="309.825" x2="416" y2="315.325" stroke="#999" stroke-width="1"></line><line id="1960" x1="87.3" y1="309.825" x2="87.3" y2="315.325" stroke="#999" stroke-width="1"></line><line id="1970" x1="140.3" y1="309.825" x2="140.3" y2="315.325" stroke="#999" stroke-width="1"></line><line id="1980" x1="193.3" y1="309.825" x2="193.3" y2="315.325" stroke="#999" stroke-width="1"></line><line id="1990" x1="246.3" y1="309.825" x2="246.3" y2="315.325" stroke="#999" stroke-width="1"></line><line id="2000" x1="299.3" y1="309.825" x2="299.3" y2="315.325" stroke="#999" stroke-width="1"></line><line id="2010" x1="352.4" y1="309.825" x2="352.4" y2="315.325" stroke="#999" stroke-width="1"></line></g><g id="tick-labels"><text x="34.23" y="327.1375" fill="#5b5b5b" text-anchor="start" font-size="11.8125">1950</text><text x="416" y="327.1375" fill="#5b5b5b" text-anchor="end" font-size="11.8125">2022</text><text x="87.3" y="327.1375" fill="#5b5b5b" text-anchor="middle" font-size="11.8125">1960</text><text x="140.3" y="327.1375" fill="#5b5b5b" text-anchor="middle" font-size="11.8125">1970</text><text x="193.3" y="327.1375" fill="#5b5b5b" text-anchor="middle" font-size="11.8125">1980</text><text x="246.3" y="327.1375" fill="#5b5b5b" text-anchor="middle" font-size="11.8125">1990</text><text x="299.3" y="327.1375" fill="#5b5b5b" text-anchor="middle" font-size="11.8125">2000</text><text x="352.4" y="327.1375" fill="#5b5b5b" text-anchor="middle" font-size="11.8125">2010</text></g></g><g id="vertical-axis" class="VerticalAxis"><g id="tick-labels"><text x="29.23" y="310.3" dy=".32em" text-anchor="end" fill="#5b5b5b" font-size="11.8125">0</text><text x="29.23" y="287.6" dy=".32em" text-anchor="end" fill="#5b5b5b" font-size="11.8125">5</text><text x="29.23" y="264.8" dy=".32em" text-anchor="end" fill="#5b5b5b" font-size="11.8125">10</text><text x="29.23" y="242" dy=".32em" text-anchor="end" fill="#5b5b5b" font-size="11.8125">15</text><text x="29.23" y="219.3" dy=".32em" text-anchor="end" fill="#5b5b5b" font-size="11.8125">20</text><text x="29.23" y="196.5" dy=".32em" text-anchor="end" fill="#5b5b5b" font-size="11.8125">25</text><text x="29.23" y="173.7" dy=".32em" text-anchor="end" fill="#5b5b5b" font-size="11.8125">30</text></g></g><g id="horizontal-grid-lines" class="AxisGridLines horizontalLines"><line id="0" x1="34.23" y1="310.3" x2="416.00" y2="310.3" stroke="#999" stroke-width="1"></line><line id="5" x1="34.23" y1="287.6" x2="416.00" y2="287.6" stroke="#ddd" stroke-width="1" stroke-dasharray="2,1"></line><line id="10" x1="34.23" y1="264.8" x2="416.00" y2="264.8" stroke="#ddd" stroke-width="1" stroke-dasharray="2,1"></line><line id="15" x1="34.23" y1="242" x2="416.00" y2="242" stroke="#ddd" stroke-width="1" stroke-dasharray="2,1"></line><line id="20" x1="34.23" y1="219.3" x2="416.00" y2="219.3" stroke="#ddd" stroke-width="1" stroke-dasharray="2,1"></line><line id="25" x1="34.23" y1="196.5" x2="416.00" y2="196.5" stroke="#ddd" stroke-width="1" stroke-dasharray="2,1"></line><line id="30" x1="34.23" y1="173.7" x2="416.00" y2="173.7" stroke="#ddd" stroke-width="1" stroke-dasharray="2,1"></line></g><g clip-path="url(#boundsClip-1)"><g class="Lines"><rect x="34" y="170" width="382" height="140" fill="rgba(255,255,255,0)" opacity="0"></rect><path fill="none" stroke-linecap="butt" stroke-linejoin="round" stroke="#ffffff" id="outline__25–29-years" stroke-width="2.5" d="M34.2 257.4L39.5 255.9L44.8 256L50.1 253L55.4 250.8L60.7 255.1L66 258.9L71.3 260.3L76.6 249.6L82 250.5L87.3 248L92.6 248.9L97.9 246.9L103.2 238.4L108.5 240.2L113.8 236L119.1 236.3L124.4 232.6L129.7 236.1L135 227.4L140.3 222.2L145.6 219.6L150.9 213.6L156.2 207.8L161.5 202L166.8 197.2L172.1 203.4L177.4 183.3L182.7 189.7L188 186.1L193.3 189.8L198.6 188.4L203.9 188.8L209.2 193.2L214.5 193.4L219.8 195L225.1 193.7L230.4 195.4L235.7 194.8L241 195.4L246.3 196.9L251.6 198L256.9 200.9L262.2 194.7L267.5 189.4L272.8 193.3L278.1 197.6L283.4 201.5L288.7 202.9L294 209.5L299.3 219.4L304.7 214.7L310 215.7L315.3 221.8L320.6 218.5L325.9 222.7L331.2 220.5L336.5 217.3L341.8 212.2L347.1 214.3L352.4 203.4L357.7 203.4L363 201.6L368.3 200.8L373.6 204.2L378.9 200.3L384.2 189.2L389.5 183.4L394.8 184.8L400.1 186.7L405.4 182.2L410.7 174.7"></path><path fill="none" stroke-linecap="butt" stroke-linejoin="round" stroke="#6d3e91" id="line__25–29-years" stroke-width="1.5" stroke-opacity="1" d="M34.2 257.4L39.5 255.9L44.8 256L50.1 253L55.4 250.8L60.7 255.1L66 258.9L71.3 260.3L76.6 249.6L82 250.5L87.3 248L92.6 248.9L97.9 246.9L103.2 238.4L108.5 240.2L113.8 236L119.1 236.3L124.4 232.6L129.7 236.1L135 227.4L140.3 222.2L145.6 219.6L150.9 213.6L156.2 207.8L161.5 202L166.8 197.2L172.1 203.4L177.4 183.3L182.7 189.7L188 186.1L193.3 189.8L198.6 188.4L203.9 188.8L209.2 193.2L214.5 193.4L219.8 195L225.1 193.7L230.4 195.4L235.7 194.8L241 195.4L246.3 196.9L251.6 198L256.9 200.9L262.2 194.7L267.5 189.4L272.8 193.3L278.1 197.6L283.4 201.5L288.7 202.9L294 209.5L299.3 219.4L304.7 214.7L310 215.7L315.3 221.8L320.6 218.5L325.9 222.7L331.2 220.5L336.5 217.3L341.8 212.2L347.1 214.3L352.4 203.4L357.7 203.4L363 201.6L368.3 200.8L373.6 204.2L378.9 200.3L384.2 189.2L389.5 183.4L394.8 184.8L400.1 186.7L405.4 182.2L410.7 174.7"></path><path fill="none" stroke-linecap="butt" stroke-linejoin="round" stroke="#ffffff" id="outline__20–24-years" stroke-width="2.5" d="M34.2 268.1L39.5 266.7L44.8 269.4L50.1 266.3L55.4 263.3L60.7 270.3L66 266.5L71.3 268.1L76.6 259.7L82 260.5L87.3 258.2L92.6 259.5L97.9 253.4L103.2 252.1L108.5 251.6L113.8 247.6L119.1 245.8L124.4 242.6L129.7 242.9L135 233.9L140.3 223.6L145.6 224.4L150.9 213.6L156.2 200.4L161.5 200.8L166.8 192.3L172.1 192.3L177.4 177.2L182.7 188.5L188 189.8L193.3 189.1L198.6 193.9L203.9 196L209.2 202.5L214.5 191.7L219.8 190.9L225.1 189.1L230.4 191.7L235.7 193L241 190.3L246.3 193.3L251.6 194.6L256.9 193.7L262.2 188.3L267.5 180.6L272.8 184.3L278.1 197.6L283.4 205.4L288.7 205.6L294 212.2L299.3 212.9L304.7 216.9L310 215.7L315.3 218.1L320.6 215.4L325.9 218.3L331.2 215.8L336.5 216.3L341.8 215.2L347.1 216.3L352.4 209.9L357.7 208.4L363 209.4L368.3 210.6L373.6 206.4L378.9 201.5L384.2 195.4L389.5 190L394.8 187.3L400.1 186.7L405.4 182.8L410.7 170.1"></path><path fill="none" stroke-linecap="butt" stroke-linejoin="round" stroke="#be5915" id="line__20–24-years" stroke-width="1.5" stroke-opacity="1" d="M34.2 268.1L39.5 266.7L44.8 269.4L50.1 266.3L55.4 263.3L60.7 270.3L66 266.5L71.3 268.1L76.6 259.7L82 260.5L87.3 258.2L92.6 259.5L97.9 253.4L103.2 252.1L108.5 251.6L113.8 247.6L119.1 245.8L124.4 242.6L129.7 242.9L135 233.9L140.3 223.6L145.6 224.4L150.9 213.6L156.2 200.4L161.5 200.8L166.8 192.3L172.1 192.3L177.4 177.2L182.7 188.5L188 189.8L193.3 189.1L198.6 193.9L203.9 196L209.2 202.5L214.5 191.7L219.8 190.9L225.1 189.1L230.4 191.7L235.7 193L241 190.3L246.3 193.3L251.6 194.6L256.9 193.7L262.2 188.3L267.5 180.6L272.8 184.3L278.1 197.6L283.4 205.4L288.7 205.6L294 212.2L299.3 212.9L304.7 216.9L310 215.7L315.3 218.1L320.6 215.4L325.9 218.3L331.2 215.8L336.5 216.3L341.8 215.2L347.1 216.3L352.4 209.9L357.7 208.4L363 209.4L368.3 210.6L373.6 206.4L378.9 201.5L384.2 195.4L389.5 190L394.8 187.3L400.1 186.7L405.4 182.8L410.7 170.1"></path><path fill="none" stroke-linecap="butt" stroke-linejoin="round" stroke="#ffffff" id="outline__15–19-years" stroke-width="2.5" d="M34.2 294.4L39.5 294.3L44.8 290.4L50.1 292.5L55.4 294L60.7 292.3L66 295.1L71.3 292.1L76.6 290.8L82 286.9L87.3 284.8L92.6 286.3L97.9 285.4L103.2 283L108.5 281.6L113.8 282.4L119.1 280.9L124.4 278.4L129.7 274.6L135 271.3L140.3 269.9L145.6 265.5L150.9 260.8L156.2 261.4L161.5 260.1L166.8 255.8L172.1 259.3L177.4 246.8L182.7 253.1L188 249.4L193.3 247.3L198.6 248.3L203.9 246.1L209.2 249.1L214.5 245.3L219.8 237.6L225.1 235.8L230.4 236.5L235.7 228.6L241 228.3L246.3 228.1L251.6 228.5L256.9 229.4L262.2 230.1L267.5 227.2L272.8 230.9L278.1 239.5L283.4 241.3L288.7 244L294 249.9L299.3 251.1L304.7 251.6L310 254.7L315.3 257.4L320.6 252.7L325.9 255.3L331.2 257.8L336.5 260.1L341.8 258.6L347.1 257.3L352.4 257.5L357.7 253.1L363 255.1L368.3 255.4L373.6 252.5L378.9 246.3L384.2 243.4L389.5 229.1L394.8 232L400.1 238.9L405.4 239.3L410.7 235.9"></path><path fill="none" stroke-linecap="butt" stroke-linejoin="round" stroke="#2c8465" id="line__15–19-years" stroke-width="1.5" stroke-opacity="1" d="M34.2 294.4L39.5 294.3L44.8 290.4L50.1 292.5L55.4 294L60.7 292.3L66 295.1L71.3 292.1L76.6 290.8L82 286.9L87.3 284.8L92.6 286.3L97.9 285.4L103.2 283L108.5 281.6L113.8 282.4L119.1 280.9L124.4 278.4L129.7 274.6L135 271.3L140.3 269.9L145.6 265.5L150.9 260.8L156.2 261.4L161.5 260.1L166.8 255.8L172.1 259.3L177.4 246.8L182.7 253.1L188 249.4L193.3 247.3L198.6 248.3L203.9 246.1L209.2 249.1L214.5 245.3L219.8 237.6L225.1 235.8L230.4 236.5L235.7 228.6L241 228.3L246.3 228.1L251.6 228.5L256.9 229.4L262.2 230.1L267.5 227.2L272.8 230.9L278.1 239.5L283.4 241.3L288.7 244L294 249.9L299.3 251.1L304.7 251.6L310 254.7L315.3 257.4L320.6 252.7L325.9 255.3L331.2 257.8L336.5 260.1L341.8 258.6L347.1 257.3L352.4 257.5L357.7 253.1L363 255.1L368.3 255.4L373.6 252.5L378.9 246.3L384.2 243.4L389.5 229.1L394.8 232L400.1 238.9L405.4 239.3L410.7 235.9"></path></g></g></g><text x="451.23" y="156.2625" fill="#5b5b5b" font-size="15.75" style="font-weight:700">France<title>France</title></text><g class="LineChart"><defs><clipPath id="boundsClip-2"><rect x="441.23" y="154.1375" width="421" height="185"></rect></clipPath></defs><rect x="433" y="164.1375" width="401" height="165" fill-opacity="0"></rect><g id="horizontal-axis" class="HorizontalAxis"><g id="tick-marks"><line id="1950" x1="451.2" y1="309.825" x2="451.2" y2="315.325" stroke="#999" stroke-width="1"></line><line id="2022" x1="833" y1="309.825" x2="833" y2="315.325" stroke="#999" stroke-width="1"></line><line id="1960" x1="504.3" y1="309.825" x2="504.3" y2="315.325" stroke="#999" stroke-width="1"></line><line id="1970" x1="557.3" y1="309.825" x2="557.3" y2="315.325" stroke="#999" stroke-width="1"></line><line id="1980" x1="610.3" y1="309.825" x2="610.3" y2="315.325" stroke="#999" stroke-width="1"></line><line id="1990" x1="663.3" y1="309.825" x2="663.3" y2="315.325" stroke="#999" stroke-width="1"></line><line id="2000" x1="716.3" y1="309.825" x2="716.3" y2="315.325" stroke="#999" stroke-width="1"></line><line id="2010" x1="769.4" y1="309.825" x2="769.4" y2="315.325" stroke="#999" stroke-width="1"></line></g><g id="tick-labels"><text x="451.23" y="327.1375" fill="#5b5b5b" text-anchor="start" font-size="11.8125">1950</text><text x="833" y="327.1375" fill="#5b5b5b" text-anchor="end" font-size="11.8125">2022</text><text x="504.3" y="327.1375" fill="#5b5b5b" text-anchor="middle" font-size="11.8125">1960</text><text x="557.3" y="327.1375" fill="#5b5b5b" text-anchor="middle" font-size="11.8125">1970</text><text x="610.3" y="327.1375" fill="#5b5b5b" text-anchor="middle" font-size="11.8125">1980</text><text x="663.3" y="327.1375" fill="#5b5b5b" text-anchor="middle" font-size="11.8125">1990</text><text x="716.3" y="327.1375" fill="#5b5b5b" text-anchor="middle" font-size="11.8125">2000</text><text x="769.4" y="327.1375" fill="#5b5b5b" text-anchor="middle" font-size="11.8125">2010</text></g></g><g id="vertical-axis" class="VerticalAxis"><g id="tick-labels"><text x="446.23" y="310.3" dy=".32em" text-anchor="end" fill="#5b5b5b" font-size="11.8125">0</text><text x="446.23" y="289.8" dy=".32em" text-anchor="end" fill="#5b5b5b" font-size="11.8125">5</text><text x="446.23" y="269.3" dy=".32em" text-anchor="end" fill="#5b5b5b" font-size="11.8125">10</text><text x="446.23" y="248.7" dy=".32em" text-anchor="end" fill="#5b5b5b" font-size="11.8125">15</text><text x="446.23" y="228.2" dy=".32em" text-anchor="end" fill="#5b5b5b" font-size="11.8125">20</text><text x="446.23" y="207.7" dy=".32em" text-anchor="end" fill="#5b5b5b" font-size="11.8125">25</text><text x="446.23" y="187.2" dy=".32em" text-anchor="end" fill="#5b5b5b" font-size="11.8125">30</text></g></g><g id="horizontal-grid-lines" class="AxisGridLines horizontalLines"><line id="0" x1="451.23" y1="310.3" x2="833.00" y2="310.3" stroke="#999" stroke-width="1"></line><line id="5" x1="451.23" y1="289.8" x2="833.00" y2="289.8" stroke="#ddd" stroke-width="1" stroke-dasharray="2,1"></line><line id="10" x1="451.23" y1="269.3" x2="833.00" y2="269.3" stroke="#ddd" stroke-width="1" stroke-dasharray="2,1"></line><line id="15" x1="451.23" y1="248.7" x2="833.00" y2="248.7" stroke="#ddd" stroke-width="1" stroke-dasharray="2,1"></line><line id="20" x1="451.23" y1="228.2" x2="833.00" y2="228.2" stroke="#ddd" stroke-width="1" stroke-dasharray="2,1"></line><line id="25" x1="451.23" y1="207.7" x2="833.00" y2="207.7" stroke="#ddd" stroke-width="1" stroke-dasharray="2,1"></line><line id="30" x1="451.23" y1="187.2" x2="833.00" y2="187.2" stroke="#ddd" stroke-width="1" stroke-dasharray="2,1"></line></g><g clip-path="url(#boundsClip-2)"><g class="Lines"><rect x="451" y="170" width="382" height="140" fill="rgba(255,255,255,0)" opacity="0"></rect><path fill="none" stroke-linecap="butt" stroke-linejoin="round" stroke="#ffffff" id="outline__25–29-years" stroke-width="2.5" d="M451.2 260.8L456.5 259.6L461.8 261.6L467.1 266.7L472.4 255.3L477.7 256.8L483 254.9L488.3 256.5L493.6 248.8L499 251.3L504.3 257.5L509.6 257.8L514.9 255.9L520.2 245.8L525.5 245.4L530.8 245.9L536.1 242L541.4 246.7L546.7 246.1L552 244.6L557.3 248.3L562.6 248.7L567.9 249.4L573.2 240.6L578.5 238.1L583.8 235.5L589.1 228.6L594.4 222.4L599.7 215.9L605 189.2L610.3 197.5L615.6 195L620.9 182.6L626.2 184.6L631.5 174.1L636.8 170.1L642.1 176.2L647.4 191.7L652.7 195.6L658 191.1L663.3 203.3L668.6 194L673.9 190.9L679.2 186.6L684.5 185.8L689.8 195.2L695.1 195.3L700.4 208.9L705.7 213.5L711 212.5L716.3 217.4L721.7 216.7L727 215.8L732.3 224.4L737.6 233.5L742.9 233.7L748.2 230.8L753.5 234.4L758.8 225.9L764.1 226L769.4 238L774.7 231.7L780 242.9L785.3 245.6L790.6 248.8L795.9 250.8L801.2 251.4L806.5 258.6L811.8 255.7L817.1 250L822.4 251.7"></path><path fill="none" stroke-linecap="butt" stroke-linejoin="round" stroke="#6d3e91" id="line__25–29-years" stroke-width="1.5" stroke-opacity="1" d="M451.2 260.8L456.5 259.6L461.8 261.6L467.1 266.7L472.4 255.3L477.7 256.8L483 254.9L488.3 256.5L493.6 248.8L499 251.3L504.3 257.5L509.6 257.8L514.9 255.9L520.2 245.8L525.5 245.4L530.8 245.9L536.1 242L541.4 246.7L546.7 246.1L552 244.6L557.3 248.3L562.6 248.7L567.9 249.4L573.2 240.6L578.5 238.1L583.8 235.5L589.1 228.6L594.4 222.4L599.7 215.9L605 189.2L610.3 197.5L615.6 195L620.9 182.6L626.2 184.6L631.5 174.1L636.8 170.1L642.1 176.2L647.4 191.7L652.7 195.6L658 191.1L663.3 203.3L668.6 194L673.9 190.9L679.2 186.6L684.5 185.8L689.8 195.2L695.1 195.3L700.4 208.9L705.7 213.5L711 212.5L716.3 217.4L721.7 216.7L727 215.8L732.3 224.4L737.6 233.5L742.9 233.7L748.2 230.8L753.5 234.4L758.8 225.9L764.1 226L769.4 238L774.7 231.7L780 242.9L785.3 245.6L790.6 248.8L795.9 250.8L801.2 251.4L806.5 258.6L811.8 255.7L817.1 250L822.4 251.7"></path><path fill="none" stroke-linecap="butt" stroke-linejoin="round" stroke="#ffffff" id="outline__20–24-years" stroke-width="2.5" d="M451.2 272.8L456.5 272.3L461.8 276.6L467.1 280.6L472.4 281.6L477.7 279.1L483 281.4L488.3 279.7L493.6 280.4L499 275.4L504.3 278.9L509.6 273.8L514.9 274.6L520.2 271.3L525.5 267.5L530.8 272L536.1 264.5L541.4 263.9L546.7 264.6L552 263.5L557.3 260.6L562.6 257.9L567.9 252L573.2 253.2L578.5 245.2L583.8 240L589.1 231.6L594.4 228.2L599.7 225.1L605 218.5L610.3 210.9L615.6 219.4L620.9 214.2L626.2 209.3L631.5 210.4L636.8 207.8L642.1 215.7L647.4 218.5L652.7 227.4L658 211.9L663.3 227.7L668.6 221.5L673.9 225.4L679.2 200.3L684.5 213.4L689.8 219.2L695.1 234.9L700.4 229.4L705.7 233.2L711 238.7L716.3 240.1L721.7 252.7L727 239.2L732.3 237.3L737.6 242.3L742.9 245.7L748.2 253.6L753.5 251.9L758.8 250.2L764.1 254.2L769.4 259.4L774.7 256.4L780 257.5L785.3 264.5L790.6 268.7L795.9 269L801.2 273L806.5 277.4L811.8 263.7L817.1 268.6L822.4 262.9"></path><path fill="none" stroke-linecap="butt" stroke-linejoin="round" stroke="#be5915" id="line__20–24-years" stroke-width="1.5" stroke-opacity="1" d="M451.2 272.8L456.5 272.3L461.8 276.6L467.1 280.6L472.4 281.6L477.7 279.1L483 281.4L488.3 279.7L493.6 280.4L499 275.4L504.3 278.9L509.6 273.8L514.9 274.6L520.2 271.3L525.5 267.5L530.8 272L536.1 264.5L541.4 263.9L546.7 264.6L552 263.5L557.3 260.6L562.6 257.9L567.9 252L573.2 253.2L578.5 245.2L583.8 240L589.1 231.6L594.4 228.2L599.7 225.1L605 218.5L610.3 210.9L615.6 219.4L620.9 214.2L626.2 209.3L631.5 210.4L636.8 207.8L642.1 215.7L647.4 218.5L652.7 227.4L658 211.9L663.3 227.7L668.6 221.5L673.9 225.4L679.2 200.3L684.5 213.4L689.8 219.2L695.1 234.9L700.4 229.4L705.7 233.2L711 238.7L716.3 240.1L721.7 252.7L727 239.2L732.3 237.3L737.6 242.3L742.9 245.7L748.2 253.6L753.5 251.9L758.8 250.2L764.1 254.2L769.4 259.4L774.7 256.4L780 257.5L785.3 264.5L790.6 268.7L795.9 269L801.2 273L806.5 277.4L811.8 263.7L817.1 268.6L822.4 262.9"></path><path fill="none" stroke-linecap="butt" stroke-linejoin="round" stroke="#ffffff" id="outline__15–19-years" stroke-width="2.5" d="M451.2 294.3L456.5 293.8L461.8 290.5L467.1 295.6L472.4 292.6L477.7 292.6L483 292.7L488.3 290.6L493.6 292.2L499 283.2L504.3 289.8L509.6 287.9L514.9 290L520.2 291.1L525.5 295.3L530.8 292.1L536.1 290.4L541.4 289.1L546.7 286L552 286.4L557.3 283L562.6 284.3L567.9 281.7L573.2 278.3L578.5 282.5L583.8 282L589.1 278.3L594.4 277.9L599.7 280.3L605 280.1L610.3 279.8L615.6 281L620.9 280.8L626.2 274.8L631.5 275.8L636.8 273L642.1 273.4L647.4 281.2L652.7 278.6L658 278.6L663.3 277.6L668.6 277.1L673.9 283L679.2 275.9L684.5 278.9L689.8 278.7L695.1 280.7L700.4 280.9L705.7 278.1L711 279.7L716.3 279.8L721.7 276.4L727 283.7L732.3 281.1L737.6 278.5L742.9 284.5L748.2 285L753.5 286.7L758.8 282.8L764.1 282.4L769.4 280.9L774.7 287.3L780 287.4L785.3 289.8L790.6 291.2L795.9 290.6L801.2 291.9L806.5 295.4L811.8 292.7L817.1 289.7L822.4 289.7"></path><path fill="none" stroke-linecap="butt" stroke-linejoin="round" stroke="#2c8465" id="line__15–19-years" stroke-width="1.5" stroke-opacity="1" d="M451.2 294.3L456.5 293.8L461.8 290.5L467.1 295.6L472.4 292.6L477.7 292.6L483 292.7L488.3 290.6L493.6 292.2L499 283.2L504.3 289.8L509.6 287.9L514.9 290L520.2 291.1L525.5 295.3L530.8 292.1L536.1 290.4L541.4 289.1L546.7 286L552 286.4L557.3 283L562.6 284.3L567.9 281.7L573.2 278.3L578.5 282.5L583.8 282L589.1 278.3L594.4 277.9L599.7 280.3L605 280.1L610.3 279.8L615.6 281L620.9 280.8L626.2 274.8L631.5 275.8L636.8 273L642.1 273.4L647.4 281.2L652.7 278.6L658 278.6L663.3 277.6L668.6 277.1L673.9 283L679.2 275.9L684.5 278.9L689.8 278.7L695.1 280.7L700.4 280.9L705.7 278.1L711 279.7L716.3 279.8L721.7 276.4L727 283.7L732.3 281.1L737.6 278.5L742.9 284.5L748.2 285L753.5 286.7L758.8 282.8L764.1 282.4L769.4 280.9L774.7 287.3L780 287.4L785.3 289.8L790.6 291.2L795.9 290.6L801.2 291.9L806.5 295.4L811.8 292.7L817.1 289.7L822.4 289.7"></path></g></g></g><text x="34.23" y="360.2625" fill="#5b5b5b" font-size="15.75" style="font-weight:700">Japan<title>Japan</title></text><g class="LineChart"><defs><clipPath id="boundsClip-3"><rect x="24.229999999999997" y="358.1375" width="421" height="185"></rect></clipPath></defs><rect x="16" y="368.1375" width="401" height="165" fill-opacity="0"></rect><g id="horizontal-axis" class="HorizontalAxis"><g id="tick-marks"><line id="1950" x1="34.2" y1="513.825" x2="34.2" y2="519.325" stroke="#999" stroke-width="1"></line><line id="2022" x1="416" y1="513.825" x2="416" y2="519.325" stroke="#999" stroke-width="1"></line><line id="1960" x1="87.3" y1="513.825" x2="87.3" y2="519.325" stroke="#999" stroke-width="1"></line><line id="1970" x1="140.3" y1="513.825" x2="140.3" y2="519.325" stroke="#999" stroke-width="1"></line><line id="1980" x1="193.3" y1="513.825" x2="193.3" y2="519.325" stroke="#999" stroke-width="1"></line><line id="1990" x1="246.3" y1="513.825" x2="246.3" y2="519.325" stroke="#999" stroke-width="1"></line><line id="2000" x1="299.3" y1="513.825" x2="299.3" y2="519.325" stroke="#999" stroke-width="1"></line><line id="2010" x1="352.4" y1="513.825" x2="352.4" y2="519.325" stroke="#999" stroke-width="1"></line></g><g id="tick-labels"><text x="34.23" y="531.1375" fill="#5b5b5b" text-anchor="start" font-size="11.8125">1950</text><text x="416" y="531.1375" fill="#5b5b5b" text-anchor="end" font-size="11.8125">2022</text><text x="87.3" y="531.1375" fill="#5b5b5b" text-anchor="middle" font-size="11.8125">1960</text><text x="140.3" y="531.1375" fill="#5b5b5b" text-anchor="middle" font-size="11.8125">1970</text><text x="193.3" y="531.1375" fill="#5b5b5b" text-anchor="middle" font-size="11.8125">1980</text><text x="246.3" y="531.1375" fill="#5b5b5b" text-anchor="middle" font-size="11.8125">1990</text><text x="299.3" y="531.1375" fill="#5b5b5b" text-anchor="middle" font-size="11.8125">2000</text><text x="352.4" y="531.1375" fill="#5b5b5b" text-anchor="middle" font-size="11.8125">2010</text></g></g><g id="vertical-axis" class="VerticalAxis"><g id="tick-labels"><text x="29.23" y="514.3" dy=".32em" text-anchor="end" fill="#5b5b5b" font-size="11.8125">0</text><text x="29.23" y="481" dy=".32em" text-anchor="end" fill="#5b5b5b" font-size="11.8125">20</text><text x="29.23" y="447.6" dy=".32em" text-anchor="end" fill="#5b5b5b" font-size="11.8125">40</text><text x="29.23" y="414.3" dy=".32em" text-anchor="end" fill="#5b5b5b" font-size="11.8125">60</text><text x="29.23" y="380.9" dy=".32em" text-anchor="end" fill="#5b5b5b" font-size="11.8125">80</text></g></g><g id="horizontal-grid-lines" class="AxisGridLines horizontalLines"><line id="0" x1="34.23" y1="514.3" x2="416.00" y2="514.3" stroke="#999" stroke-width="1"></line><line id="20" x1="34.23" y1="481" x2="416.00" y2="481" stroke="#ddd" stroke-width="1" stroke-dasharray="2,1"></line><line id="40" x1="34.23" y1="447.6" x2="416.00" y2="447.6" stroke="#ddd" stroke-width="1" stroke-dasharray="2,1"></line><line id="60" x1="34.23" y1="414.3" x2="416.00" y2="414.3" stroke="#ddd" stroke-width="1" stroke-dasharray="2,1"></line><line id="80" x1="34.23" y1="380.9" x2="416.00" y2="380.9" stroke="#ddd" stroke-width="1" stroke-dasharray="2,1"></line></g><g clip-path="url(#boundsClip-3)"><g class="Lines"><rect x="34" y="374" width="382" height="140" fill="rgba(255,255,255,0)" opacity="0"></rect><path fill="none" stroke-linecap="butt" stroke-linejoin="round" stroke="#ffffff" id="outline__25–29-years" stroke-width="2.5" d="M34.2 454.3L39.5 459.7L44.8 458.8L50.1 445.3L55.4 429.2L60.7 423L66 431.2L71.3 430.1L76.6 423.9L82 438L87.3 440.9L92.6 453.6L97.9 455.2L103.2 462.7L108.5 469L113.8 474.6L119.1 473.4L124.4 476.1L129.7 475.8L135 479.1L140.3 477.7L145.6 476.4L150.9 474.6L156.2 475.8L161.5 474.5L166.8 471.5L172.1 471.7L177.4 468.7L182.7 470.3L188 468.2L193.3 470.5L198.6 474.2L203.9 472.7L209.2 467.1L214.5 473.1L219.8 474.7L225.1 471.3L230.4 473.3L235.7 477.8L241 479.8L246.3 485.2L251.6 484L256.9 484.1L262.2 485.8L267.5 481.4L272.8 480.9L278.1 482.7L283.4 481.6L288.7 471.3L294 469.4L299.3 473.6L304.7 473.3L310 474.7L315.3 465.6L320.6 468.9L325.9 462.6L331.2 462.8L336.5 466.2L341.8 461.9L347.1 459.4L352.4 459.4L357.7 461.7L363 460.1L368.3 463.5L373.6 461.7L378.9 466.8L384.2 467.6L389.5 473.3L394.8 472.2L400.1 476.4L405.4 471.1L410.7 468.8"></path><path fill="none" stroke-linecap="butt" stroke-linejoin="round" stroke="#6d3e91" id="line__25–29-years" stroke-width="1.5" stroke-opacity="1" d="M34.2 454.3L39.5 459.7L44.8 458.8L50.1 445.3L55.4 429.2L60.7 423L66 431.2L71.3 430.1L76.6 423.9L82 438L87.3 440.9L92.6 453.6L97.9 455.2L103.2 462.7L108.5 469L113.8 474.6L119.1 473.4L124.4 476.1L129.7 475.8L135 479.1L140.3 477.7L145.6 476.4L150.9 474.6L156.2 475.8L161.5 474.5L166.8 471.5L172.1 471.7L177.4 468.7L182.7 470.3L188 468.2L193.3 470.5L198.6 474.2L203.9 472.7L209.2 467.1L214.5 473.1L219.8 474.7L225.1 471.3L230.4 473.3L235.7 477.8L241 479.8L246.3 485.2L251.6 484L256.9 484.1L262.2 485.8L267.5 481.4L272.8 480.9L278.1 482.7L283.4 481.6L288.7 471.3L294 469.4L299.3 473.6L304.7 473.3L310 474.7L315.3 465.6L320.6 468.9L325.9 462.6L331.2 462.8L336.5 466.2L341.8 461.9L347.1 459.4L352.4 459.4L357.7 461.7L363 460.1L368.3 463.5L373.6 461.7L378.9 466.8L384.2 467.6L389.5 473.3L394.8 472.2L400.1 476.4L405.4 471.1L410.7 468.8"></path><path fill="none" stroke-linecap="butt" stroke-linejoin="round" stroke="#ffffff" id="outline__20–24-years" stroke-width="2.5" d="M34.2 439.5L39.5 441.7L44.8 434.5L50.1 416.3L55.4 391.8L60.7 374.1L66 384.3L71.3 390.9L76.6 384L82 411.5L87.3 416.4L92.6 436L97.9 450.3L103.2 462L108.5 469.5L113.8 475.4L119.1 474.5L124.4 480.3L129.7 482.3L135 484L140.3 482.9L145.6 480.4L150.9 475.1L156.2 471L161.5 471.1L166.8 471.1L172.1 469L177.4 470L182.7 471.3L188 471.6L193.3 474.2L198.6 479.8L203.9 478.7L209.2 474L214.5 478.3L219.8 481.2L225.1 479.5L230.4 484.9L235.7 487.8L241 489.9L246.3 490.6L251.6 491.6L256.9 488.9L262.2 490L267.5 487.2L272.8 488.8L278.1 488.8L283.4 489.1L288.7 477.8L294 476.4L299.3 477.6L304.7 480.7L310 478.9L315.3 478.5L320.6 474.6L325.9 472.6L331.2 471.8L336.5 469.6L341.8 465.4L347.1 464.4L352.4 462L357.7 463.6L363 463.6L368.3 464.5L373.6 467.3L378.9 471.1L384.2 473.3L389.5 471.8L394.8 473.9L400.1 473.6L405.4 468.5L410.7 468.8"></path><path fill="none" stroke-linecap="butt" stroke-linejoin="round" stroke="#be5915" id="line__20–24-years" stroke-width="1.5" stroke-opacity="1" d="M34.2 439.5L39.5 441.7L44.8 434.5L50.1 416.3L55.4 391.8L60.7 374.1L66 384.3L71.3 390.9L76.6 384L82 411.5L87.3 416.4L92.6 436L97.9 450.3L103.2 462L108.5 469.5L113.8 475.4L119.1 474.5L124.4 480.3L129.7 482.3L135 484L140.3 482.9L145.6 480.4L150.9 475.1L156.2 471L161.5 471.1L166.8 471.1L172.1 469L177.4 470L182.7 471.3L188 471.6L193.3 474.2L198.6 479.8L203.9 478.7L209.2 474L214.5 478.3L219.8 481.2L225.1 479.5L230.4 484.9L235.7 487.8L241 489.9L246.3 490.6L251.6 491.6L256.9 488.9L262.2 490L267.5 487.2L272.8 488.8L278.1 488.8L283.4 489.1L288.7 477.8L294 476.4L299.3 477.6L304.7 480.7L310 478.9L315.3 478.5L320.6 474.6L325.9 472.6L331.2 471.8L336.5 469.6L341.8 465.4L347.1 464.4L352.4 462L357.7 463.6L363 463.6L368.3 464.5L373.6 467.3L378.9 471.1L384.2 473.3L389.5 471.8L394.8 473.9L400.1 473.6L405.4 468.5L410.7 468.8"></path><path fill="none" stroke-linecap="butt" stroke-linejoin="round" stroke="#ffffff" id="outline__15–19-years" stroke-width="2.5" d="M34.2 485.1L39.5 483.3L44.8 480.6L50.1 472.4L55.4 458.6L60.7 452.3L66 462.8L71.3 461.7L76.6 462L82 474.4L87.3 472.2L92.6 477.3L97.9 487.8L103.2 496L108.5 499L113.8 499.7L119.1 499.5L124.4 500.5L129.7 498.4L135 499.5L140.3 499.8L145.6 496.9L150.9 494L156.2 493.6L161.5 494.3L166.8 493.3L172.1 495.5L177.4 494.9L182.7 493.2L188 491.3L193.3 498.5L198.6 499.2L203.9 500.8L209.2 499.5L214.5 502.2L219.8 503L225.1 500.2L230.4 503.6L235.7 505L241 505.4L246.3 506.4L251.6 506.2L256.9 505.6L262.2 505.5L267.5 502.4L272.8 503.3L278.1 503.2L283.4 502.9L288.7 496.4L294 498.8L299.3 499.7L304.7 500.3L310 501.7L315.3 499.6L320.6 499.1L325.9 498.4L331.2 497.8L336.5 499.4L341.8 497.9L347.1 498.2L352.4 498.1L357.7 495.8L363 495.5L368.3 496.8L373.6 497.2L378.9 497.5L384.2 497.9L389.5 495.7L394.8 497.1L400.1 492.3L405.4 491.3L410.7 491.8"></path><path fill="none" stroke-linecap="butt" stroke-linejoin="round" stroke="#2c8465" id="line__15–19-years" stroke-width="1.5" stroke-opacity="1" d="M34.2 485.1L39.5 483.3L44.8 480.6L50.1 472.4L55.4 458.6L60.7 452.3L66 462.8L71.3 461.7L76.6 462L82 474.4L87.3 472.2L92.6 477.3L97.9 487.8L103.2 496L108.5 499L113.8 499.7L119.1 499.5L124.4 500.5L129.7 498.4L135 499.5L140.3 499.8L145.6 496.9L150.9 494L156.2 493.6L161.5 494.3L166.8 493.3L172.1 495.5L177.4 494.9L182.7 493.2L188 491.3L193.3 498.5L198.6 499.2L203.9 500.8L209.2 499.5L214.5 502.2L219.8 503L225.1 500.2L230.4 503.6L235.7 505L241 505.4L246.3 506.4L251.6 506.2L256.9 505.6L262.2 505.5L267.5 502.4L272.8 503.3L278.1 503.2L283.4 502.9L288.7 496.4L294 498.8L299.3 499.7L304.7 500.3L310 501.7L315.3 499.6L320.6 499.1L325.9 498.4L331.2 497.8L336.5 499.4L341.8 497.9L347.1 498.2L352.4 498.1L357.7 495.8L363 495.5L368.3 496.8L373.6 497.2L378.9 497.5L384.2 497.9L389.5 495.7L394.8 497.1L400.1 492.3L405.4 491.3L410.7 491.8"></path></g></g></g><text x="451.23" y="360.2625" fill="#5b5b5b" font-size="15.75" style="font-weight:700">Australia<title>Australia</title></text><g class="LineChart"><defs><clipPath id="boundsClip-4"><rect x="441.23" y="358.1375" width="421" height="185"></rect></clipPath></defs><rect x="433" y="368.1375" width="401" height="165" fill-opacity="0"></rect><g id="horizontal-axis" class="HorizontalAxis"><g id="tick-marks"><line id="1950" x1="451.2" y1="513.825" x2="451.2" y2="519.325" stroke="#999" stroke-width="1"></line><line id="2022" x1="833" y1="513.825" x2="833" y2="519.325" stroke="#999" stroke-width="1"></line><line id="1960" x1="504.3" y1="513.825" x2="504.3" y2="519.325" stroke="#999" stroke-width="1"></line><line id="1970" x1="557.3" y1="513.825" x2="557.3" y2="519.325" stroke="#999" stroke-width="1"></line><line id="1980" x1="610.3" y1="513.825" x2="610.3" y2="519.325" stroke="#999" stroke-width="1"></line><line id="1990" x1="663.3" y1="513.825" x2="663.3" y2="519.325" stroke="#999" stroke-width="1"></line><line id="2000" x1="716.3" y1="513.825" x2="716.3" y2="519.325" stroke="#999" stroke-width="1"></line><line id="2010" x1="769.4" y1="513.825" x2="769.4" y2="519.325" stroke="#999" stroke-width="1"></line></g><g id="tick-labels"><text x="451.23" y="531.1375" fill="#5b5b5b" text-anchor="start" font-size="11.8125">1950</text><text x="833" y="531.1375" fill="#5b5b5b" text-anchor="end" font-size="11.8125">2022</text><text x="504.3" y="531.1375" fill="#5b5b5b" text-anchor="middle" font-size="11.8125">1960</text><text x="557.3" y="531.1375" fill="#5b5b5b" text-anchor="middle" font-size="11.8125">1970</text><text x="610.3" y="531.1375" fill="#5b5b5b" text-anchor="middle" font-size="11.8125">1980</text><text x="663.3" y="531.1375" fill="#5b5b5b" text-anchor="middle" font-size="11.8125">1990</text><text x="716.3" y="531.1375" fill="#5b5b5b" text-anchor="middle" font-size="11.8125">2000</text><text x="769.4" y="531.1375" fill="#5b5b5b" text-anchor="middle" font-size="11.8125">2010</text></g></g><g id="vertical-axis" class="VerticalAxis"><g id="tick-labels"><text x="446.23" y="514.3" dy=".32em" text-anchor="end" fill="#5b5b5b" font-size="11.8125">0</text><text x="446.23" y="481.6" dy=".32em" text-anchor="end" fill="#5b5b5b" font-size="11.8125">10</text><text x="446.23" y="448.8" dy=".32em" text-anchor="end" fill="#5b5b5b" font-size="11.8125">20</text><text x="446.23" y="416" dy=".32em" text-anchor="end" fill="#5b5b5b" font-size="11.8125">30</text><text x="446.23" y="383.3" dy=".32em" text-anchor="end" fill="#5b5b5b" font-size="11.8125">40</text></g></g><g id="horizontal-grid-lines" class="AxisGridLines horizontalLines"><line id="0" x1="451.23" y1="514.3" x2="833.00" y2="514.3" stroke="#999" stroke-width="1"></line><line id="10" x1="451.23" y1="481.6" x2="833.00" y2="481.6" stroke="#ddd" stroke-width="1" stroke-dasharray="2,1"></line><line id="20" x1="451.23" y1="448.8" x2="833.00" y2="448.8" stroke="#ddd" stroke-width="1" stroke-dasharray="2,1"></line><line id="30" x1="451.23" y1="416" x2="833.00" y2="416" stroke="#ddd" stroke-width="1" stroke-dasharray="2,1"></line><line id="40" x1="451.23" y1="383.3" x2="833.00" y2="383.3" stroke="#ddd" stroke-width="1" stroke-dasharray="2,1"></line></g><g clip-path="url(#boundsClip-4)"><g class="Lines"><rect x="451" y="374" width="382" height="140" fill="rgba(255,255,255,0)" opacity="0"></rect><path fill="none" stroke-linecap="butt" stroke-linejoin="round" stroke="#ffffff" id="outline__25–29-years" stroke-width="2.5" d="M451.2 477.4L456.5 476.8L461.8 461.5L467.1 469.7L472.4 459.8L477.7 471.6L483 451.3L488.3 462.9L493.6 448.4L499 456.5L504.3 461.6L509.6 462.5L514.9 439.8L520.2 427.2L525.5 450.6L530.8 442.9L536.1 454.4L541.4 436.3L546.7 462.6L552 442.8L557.3 446.4L562.6 447.5L567.9 455L573.2 463.2L578.5 461L583.8 449L589.1 449.3L594.4 444.3L599.7 434.9L605 438.7L610.3 437.6L615.6 440.7L620.9 423.4L626.2 430.7L631.5 429.2L636.8 416.9L642.1 416.8L647.4 417.9L652.7 412.8L658 412.5L663.3 404.5L668.6 418.7L673.9 413.5L679.2 423.3L684.5 411.8L689.8 410.5L695.1 404.6L700.4 385.3L705.7 374.1L711 393.6L716.3 411.3L721.7 408.7L727 410.2L732.3 430L737.6 431L748.2 455.5L753.5 443L758.8 444.4L764.1 447.2L769.4 458.6L774.7 445.4L780 449.5L785.3 452.6L790.6 449.5L795.9 439.3L801.2 445.4L806.5 433.5L811.8 437.7L817.1 434.7L822.4 437.9L827.7 434.1L833 435.6"></path><path fill="none" stroke-linecap="butt" stroke-linejoin="round" stroke="#6d3e91" id="line__25–29-years" stroke-width="1.5" stroke-opacity="1" d="M451.2 477.4L456.5 476.8L461.8 461.5L467.1 469.7L472.4 459.8L477.7 471.6L483 451.3L488.3 462.9L493.6 448.4L499 456.5L504.3 461.6L509.6 462.5L514.9 439.8L520.2 427.2L525.5 450.6L530.8 442.9L536.1 454.4L541.4 436.3L546.7 462.6L552 442.8L557.3 446.4L562.6 447.5L567.9 455L573.2 463.2L578.5 461L583.8 449L589.1 449.3L594.4 444.3L599.7 434.9L605 438.7L610.3 437.6L615.6 440.7L620.9 423.4L626.2 430.7L631.5 429.2L636.8 416.9L642.1 416.8L647.4 417.9L652.7 412.8L658 412.5L663.3 404.5L668.6 418.7L673.9 413.5L679.2 423.3L684.5 411.8L689.8 410.5L695.1 404.6L700.4 385.3L705.7 374.1L711 393.6L716.3 411.3L721.7 408.7L727 410.2L732.3 430L737.6 431L748.2 455.5L753.5 443L758.8 444.4L764.1 447.2L769.4 458.6L774.7 445.4L780 449.5L785.3 452.6L790.6 449.5L795.9 439.3L801.2 445.4L806.5 433.5L811.8 437.7L817.1 434.7L822.4 437.9L827.7 434.1L833 435.6"></path><path fill="none" stroke-linecap="butt" stroke-linejoin="round" stroke="#ffffff" id="outline__20–24-years" stroke-width="2.5" d="M451.2 484.4L456.5 476.7L461.8 481.6L467.1 472.4L472.4 473.3L477.7 469.8L483 483.9L488.3 477.2L493.6 458.5L499 480.8L504.3 483L509.6 472.5L514.9 469.9L520.2 451.9L525.5 460.8L530.8 459.7L536.1 471.7L541.4 462L546.7 473.7L552 459.9L557.3 459.7L562.6 452.7L567.9 447.5L573.2 443.2L578.5 446.1L583.8 452.8L589.1 448L594.4 447L599.7 431.4L605 435.8L610.3 430.6L615.6 432L620.9 417.7L626.2 424.4L631.5 425.4L636.8 413.1L642.1 419.9L647.4 402.1L652.7 411.8L658 409.8L663.3 394.9L668.6 405.9L673.9 401.1L679.2 411.5L684.5 403.2L689.8 409.8L695.1 397.9L700.4 379.2L705.7 395.8L711 410.6L716.3 424.3L721.7 422.6L727 441.7L732.3 438.1L737.6 446.8L748.2 447.5L753.5 450.6L758.8 450.7L764.1 462L769.4 463.4L774.7 450.3L780 457L785.3 454L790.6 445L795.9 440.1L801.2 437.8L806.5 441L811.8 436.3L817.1 434.1L822.4 431L827.7 442.7L833 447.3"></path><path fill="none" stroke-linecap="butt" stroke-linejoin="round" stroke="#be5915" id="line__20–24-years" stroke-width="1.5" stroke-opacity="1" d="M451.2 484.4L456.5 476.7L461.8 481.6L467.1 472.4L472.4 473.3L477.7 469.8L483 483.9L488.3 477.2L493.6 458.5L499 480.8L504.3 483L509.6 472.5L514.9 469.9L520.2 451.9L525.5 460.8L530.8 459.7L536.1 471.7L541.4 462L546.7 473.7L552 459.9L557.3 459.7L562.6 452.7L567.9 447.5L573.2 443.2L578.5 446.1L583.8 452.8L589.1 448L594.4 447L599.7 431.4L605 435.8L610.3 430.6L615.6 432L620.9 417.7L626.2 424.4L631.5 425.4L636.8 413.1L642.1 419.9L647.4 402.1L652.7 411.8L658 409.8L663.3 394.9L668.6 405.9L673.9 401.1L679.2 411.5L684.5 403.2L689.8 409.8L695.1 397.9L700.4 379.2L705.7 395.8L711 410.6L716.3 424.3L721.7 422.6L727 441.7L732.3 438.1L737.6 446.8L748.2 447.5L753.5 450.6L758.8 450.7L764.1 462L769.4 463.4L774.7 450.3L780 457L785.3 454L790.6 445L795.9 440.1L801.2 437.8L806.5 441L811.8 436.3L817.1 434.1L822.4 431L827.7 442.7L833 447.3"></path><path fill="none" stroke-linecap="butt" stroke-linejoin="round" stroke="#ffffff" id="outline__15–19-years" stroke-width="2.5" d="M451.2 499.2L456.5 488.6L461.8 491.5L467.1 500.9L472.4 495.9L477.7 494.5L483 506.3L488.3 497L493.6 497.5L499 496.6L504.3 500.2L509.6 496.2L514.9 498.3L520.2 489.8L525.5 495.3L530.8 495.4L536.1 494.9L541.4 494.8L546.7 484.8L552 496.6L557.3 486.9L562.6 471.4L567.9 486.8L573.2 487.8L578.5 477.3L583.8 484.9L589.1 480.9L594.4 478.2L599.7 480.2L605 472.7L610.3 481.9L615.6 478.6L620.9 478.1L626.2 484.4L631.5 477.6L636.8 463.9L642.1 466.7L647.4 457.5L652.7 443.9L658 452.2L663.3 458.2L668.6 458.1L673.9 450.2L679.2 464.6L684.5 451.4L689.8 470.5L695.1 457.3L700.4 452.3L705.7 459.6L711 468.1L716.3 470.3L721.7 469.3L727 469.1L732.3 476.3L737.6 487.5L748.2 477.3L753.5 477.4L758.8 483L764.1 481.7L769.4 476L774.7 478.8L780 482.9L785.3 465.3L790.6 473.2L795.9 473.8L801.2 470.5L806.5 465.2L811.8 456L817.1 460.7L822.4 457.5L827.7 471.3L833 482.4"></path><path fill="none" stroke-linecap="butt" stroke-linejoin="round" stroke="#2c8465" id="line__15–19-years" stroke-width="1.5" stroke-opacity="1" d="M451.2 499.2L456.5 488.6L461.8 491.5L467.1 500.9L472.4 495.9L477.7 494.5L483 506.3L488.3 497L493.6 497.5L499 496.6L504.3 500.2L509.6 496.2L514.9 498.3L520.2 489.8L525.5 495.3L530.8 495.4L536.1 494.9L541.4 494.8L546.7 484.8L552 496.6L557.3 486.9L562.6 471.4L567.9 486.8L573.2 487.8L578.5 477.3L583.8 484.9L589.1 480.9L594.4 478.2L599.7 480.2L605 472.7L610.3 481.9L615.6 478.6L620.9 478.1L626.2 484.4L631.5 477.6L636.8 463.9L642.1 466.7L647.4 457.5L652.7 443.9L658 452.2L663.3 458.2L668.6 458.1L673.9 450.2L679.2 464.6L684.5 451.4L689.8 470.5L695.1 457.3L700.4 452.3L705.7 459.6L711 468.1L716.3 470.3L721.7 469.3L727 469.1L732.3 476.3L737.6 487.5L748.2 477.3L753.5 477.4L758.8 483L764.1 481.7L769.4 476L774.7 478.8L780 482.9L785.3 465.3L790.6 473.2L795.9 473.8L801.2 470.5L806.5 465.2L811.8 456L817.1 460.7L822.4 457.5L827.7 471.3L833 482.4"></path></g></g></g></g><g id="footer" class="SourcesFooter" style="fill:#5b5b5b"><g id="sources" class="markdown-text-wrap"><text x="16.0" y="563.4" style="font-size:13px;line-height:1.2"><tspan x="16" y="563.4"><tspan style="font-weight:700">Data source:</tspan> WHO Mortality Database (2024)</tspan></text></g><g id="note" class="markdown-text-wrap"><text x="16.0" y="581.0" style="font-size:13px;line-height:1.2"><tspan x="16" y="581.0"><tspan style="font-weight:700">Note:</tspan> Reported rates are based on the <tspan class="dod-span" data-id="underlying-cause-of-death">underlying cause of death</tspan> listed on death certificates, using the ICD codes X60–X84, Y87.0.</tspan></text></g><text id="origin-url" font-size="13.00" x="482.7" y="563.4"><tspan x="482.74" y="563.41"><a target="_blank" style="fill: #5b5b5b;" href="https://ourworldindata.org/suicide">OurWorldinData.org/suicide</a> | <a target="_blank" style="fill: #5b5b5b;" href="https://ourworldindata.org">Powered by ourworldindata.org</a></tspan></text></g></svg>