<svg xmlns="http://www.w3.org/2000/svg" version="1.1" style="font-family:Lato, &#x27;Helvetica Neue&#x27;, Helvetica, Arial, &#x27;Liberation Sans&#x27;, sans-serif;font-size:18px;background-color:#ffffff;text-rendering:geometricPrecision;-webkit-font-smoothing:antialiased" width="850" height="600" viewBox="0 0 850 600"><defs><style>@import url(https://ourworldindata.org/fonts.css)</style></defs><defs><pattern id="noDataPattern" patternUnits="userSpaceOnUse" width="4" height="4" patternTransform="rotate(-45 2 2)"><path d="M -1,2 l 6,0" stroke="#ccc" stroke-width="0.7"></path></pattern></defs><rect class="background-fill" fill="#ffffff" width="850" height="600"></rect><g id="header" class="HeaderView"><g id="logo" transform="translate(769, 16) scale(1)"><svg className="owidLogo" xmlns="http://www.w3.org/2000/svg" width="65" height="36" viewBox="0 0 65 36"  fill="none"><path fill="#002147" d="M0 0h64.8v36H0z"/><path fill="#CE261E" d="M0 33.3h64.8V36H0z"/><path fill="#fff" d="M13.796 10.575c0 .636-.106 1.226-.318 1.77a4.193 4.193 0 0 1-.894 1.404 4.084 4.084 0 0 1-1.386.93c-.54.22-1.138.33-1.794.33-.656 0-1.256-.11-1.8-.33a4.149 4.149 0 0 1-1.392-.93 4.193 4.193 0 0 1-.894-1.404A4.833 4.833 0 0 1 5 10.575c0-.636.106-1.224.318-1.764a4.18 4.18 0 0 1 .894-1.41 4.076 4.076 0 0 1 1.392-.924 4.684 4.684 0 0 1 1.8-.336c.656 0 1.254.112 1.794.336.54.224 1.002.534 1.386.93.384.392.682.86.894 1.404.212.54.318 1.128.318 1.764Zm-1.656 0c0-.476-.064-.902-.192-1.278a2.671 2.671 0 0 0-.54-.966 2.332 2.332 0 0 0-.864-.606 2.94 2.94 0 0 0-1.14-.21c-.424 0-.806.07-1.146.21-.34.14-.63.342-.87.606a2.742 2.742 0 0 0-.546.966 3.955 3.955 0 0 0-.192 1.278c0 .476.064.904.192 1.284.128.376.31.696.546.96.24.26.53.46.87.6.34.14.722.21 1.146.21.424 0 .804-.07 1.14-.21.34-.14.628-.34.864-.6.236-.264.416-.584.54-.96a4.01 4.01 0 0 0 .192-1.284ZM16.104 8.757v3.912c0 .376.086.668.258.876.176.204.438.306.786.306.256 0 .496-.056.72-.168a2.58 2.58 0 0 0 .636-.474V8.757h1.482v6.156h-.906c-.192 0-.318-.09-.378-.27l-.102-.492a4.65 4.65 0 0 1-.396.354 2.577 2.577 0 0 1-.438.27 2.35 2.35 0 0 1-.498.168 2.345 2.345 0 0 1-.57.066c-.336 0-.634-.056-.894-.168a1.821 1.821 0 0 1-.648-.486 2.157 2.157 0 0 1-.402-.738 3.233 3.233 0 0 1-.132-.948V8.757h1.482ZM21.328 14.913V8.757h.87c.152 0 .258.028.318.084.06.056.1.152.12.288l.09.744c.22-.38.478-.68.774-.9.296-.22.628-.33.996-.33.304 0 .556.07.756.21l-.192 1.11c-.012.072-.038.124-.078.156a.278.278 0 0 1-.162.042 1.01 1.01 0 0 1-.246-.042 1.646 1.646 0 0 0-.414-.042c-.308 0-.572.086-.792.258-.22.168-.406.416-.558.744v3.834h-1.482ZM27.347 6.237h1.356a.57.57 0 0 1 .348.102c.096.064.16.152.192.264l1.476 5.19c.036.128.068.268.096.42.032.148.062.306.09.474a5.968 5.968 0 0 1 .228-.894l1.704-5.19a.575.575 0 0 1 .186-.252.543.543 0 0 1 .348-.114h.474a.57.57 0 0 1 .348.102.497.497 0 0 1 .192.264l1.692 5.19c.088.256.164.54.228.852.028-.156.056-.306.084-.45.032-.144.064-.278.096-.402l1.476-5.19c.028-.1.09-.186.186-.258a.563.563 0 0 1 .348-.108h1.266l-2.694 8.676h-1.458l-1.896-5.928-.078-.246a9.504 9.504 0 0 1-.072-.282c-.024.1-.05.194-.078.282-.024.088-.048.17-.072.246l-1.914 5.928H30.04l-2.694-8.676ZM42.771 8.661c.46 0 .876.074 1.248.222.376.148.696.358.96.63s.468.604.612.996c.144.392.216.83.216 1.314 0 .488-.072.928-.216 1.32a2.85 2.85 0 0 1-.612 1.002 2.653 2.653 0 0 1-.96.636 3.35 3.35 0 0 1-1.248.222c-.46 0-.878-.074-1.254-.222a2.712 2.712 0 0 1-.966-.636 2.922 2.922 0 0 1-.618-1.002 3.807 3.807 0 0 1-.216-1.32c0-.484.072-.922.216-1.314.148-.392.354-.724.618-.996.268-.272.59-.482.966-.63a3.397 3.397 0 0 1 1.254-.222Zm0 5.202c.512 0 .89-.172 1.134-.516.248-.344.372-.848.372-1.512s-.124-1.17-.372-1.518c-.244-.348-.622-.522-1.134-.522-.52 0-.904.176-1.152.528-.248.348-.372.852-.372 1.512s.124 1.164.372 1.512c.248.344.632.516 1.152.516ZM46.723 14.913V8.757h.87c.152 0 .258.028.318.084.06.056.1.152.12.288l.09.744c.22-.38.478-.68.774-.9.296-.22.628-.33.996-.33.304 0 .556.07.756.21l-.192 1.11c-.012.072-.038.124-.078.156a.278.278 0 0 1-.162.042 1.01 1.01 0 0 1-.246-.042 1.646 1.646 0 0 0-.414-.042c-.308 0-.572.086-.792.258-.22.168-.406.416-.558.744v3.834h-1.482ZM52.96 5.997v8.916h-1.482V5.997h1.482ZM58.732 14.913c-.192 0-.318-.09-.378-.27l-.12-.594a3.68 3.68 0 0 1-.402.39c-.14.116-.292.216-.456.3-.16.084-.334.148-.522.192a2.372 2.372 0 0 1-.6.072c-.336 0-.644-.07-.924-.21a2.098 2.098 0 0 1-.726-.606 3.033 3.033 0 0 1-.468-.99 5.072 5.072 0 0 1-.162-1.344c0-.456.062-.88.186-1.272s.302-.732.534-1.02c.232-.288.51-.512.834-.672a2.384 2.384 0 0 1 1.092-.246 2.103 2.103 0 0 1 1.536.606V5.997h1.482v8.916h-.906Zm-1.974-1.086c.308 0 .57-.064.786-.192.216-.128.42-.31.612-.546v-2.76a1.452 1.452 0 0 0-.552-.432 1.597 1.597 0 0 0-.636-.126c-.224 0-.428.042-.612.126a1.21 1.21 0 0 0-.462.384c-.124.168-.22.384-.288.648-.068.26-.102.568-.102.924 0 .36.028.666.084.918.06.248.144.452.252.612.108.156.24.27.396.342.156.068.33.102.522.102ZM16.331 20.757v6.156H14.85v-6.156h1.481Zm.223-1.794a.844.844 0 0 1-.078.36.963.963 0 0 1-.21.294.995.995 0 0 1-.3.204.963.963 0 0 1-.372.072.948.948 0 0 1-.367-.072 1.018 1.018 0 0 1-.498-.498.963.963 0 0 1 0-.732.995.995 0 0 1 .205-.3.929.929 0 0 1 .293-.198.899.899 0 0 1 .738 0 .912.912 0 0 1 .3.198.943.943 0 0 1 .288.672ZM17.771 26.913v-6.156h.906c.192 0 .318.09.378.27l.102.486a2.934 2.934 0 0 1 .828-.618c.156-.076.322-.134.498-.174.176-.04.368-.06.576-.06.336 0 .634.058.894.174.26.112.476.272.648.48.176.204.308.45.396.738.092.284.138.598.138.942v3.918h-1.482v-3.918c0-.376-.088-.666-.264-.87-.172-.208-.432-.312-.78-.312-.256 0-.496.058-.72.174a2.58 2.58 0 0 0-.636.474v4.452h-1.482ZM34.22 22.575c0 .636-.106 1.22-.318 1.752-.212.532-.51.99-.894 1.374a4 4 0 0 1-1.386.894 4.87 4.87 0 0 1-1.794.318h-3.312v-8.676h3.312a4.79 4.79 0 0 1 1.794.324 4 4 0 0 1 1.386.894c.384.38.682.836.894 1.368.212.532.318 1.116.318 1.752Zm-1.65 0c0-.476-.064-.902-.192-1.278a2.68 2.68 0 0 0-.546-.96 2.332 2.332 0 0 0-.864-.606 2.94 2.94 0 0 0-1.14-.21h-1.686v6.108h1.686c.424 0 .804-.07 1.14-.21.34-.14.628-.34.864-.6a2.75 2.75 0 0 0 .546-.96 4.01 4.01 0 0 0 .192-1.284ZM39.98 26.913h-.665c-.14 0-.25-.02-.33-.06-.08-.044-.14-.13-.18-.258l-.132-.438c-.156.14-.31.264-.462.372a2.804 2.804 0 0 1-.462.264c-.16.072-.33.126-.51.162-.18.036-.38.054-.6.054-.26 0-.5-.034-.72-.102a1.618 1.618 0 0 1-.57-.318 1.448 1.448 0 0 1-.366-.522 1.852 1.852 0 0 1-.132-.726c0-.232.06-.46.18-.684.124-.228.328-.432.612-.612.284-.184.662-.336 1.134-.456.472-.12 1.058-.188 1.758-.204v-.36c0-.412-.088-.716-.264-.912-.172-.2-.424-.3-.756-.3a1.837 1.837 0 0 0-1.02.276c-.116.068-.224.13-.324.186a.664.664 0 0 1-.33.084.429.429 0 0 1-.258-.078.614.614 0 0 1-.174-.192l-.27-.474c.708-.648 1.562-.972 2.562-.972.36 0 .68.06.96.18.284.116.524.28.72.492.196.208.344.458.444.75.104.292.156.612.156.96v3.888Zm-2.88-.924c.153 0 .293-.014.42-.042.129-.028.249-.07.36-.126.117-.056.227-.124.33-.204.109-.084.217-.182.325-.294v-1.038c-.432.02-.794.058-1.086.114-.288.052-.52.12-.696.204a.923.923 0 0 0-.378.294.664.664 0 0 0-.108.366c0 .26.076.446.228.558.156.112.358.168.606.168ZM43.22 27.01c-.532 0-.942-.15-1.23-.45-.288-.305-.432-.723-.432-1.255v-3.438h-.624a.31.31 0 0 1-.21-.078c-.056-.052-.084-.13-.084-.234v-.588l.99-.162.312-1.68a.302.302 0 0 1 .108-.186.365.365 0 0 1 .222-.066h.768v1.938h1.62v1.056h-1.62v3.336c0 .192.048.342.144.45a.488.488 0 0 0 .384.162c.092 0 .168-.01.228-.03.064-.024.118-.048.162-.072.048-.024.09-.046.126-.066a.194.194 0 0 1 .108-.036.16.16 0 0 1 .108.036c.028.02.058.052.09.096l.444.72c-.216.18-.464.316-.744.408a2.77 2.77 0 0 1-.87.138ZM50.423 26.913h-.666c-.14 0-.25-.02-.33-.06-.08-.044-.14-.13-.18-.258l-.132-.438c-.156.14-.31.264-.462.372a2.804 2.804 0 0 1-.462.264c-.16.072-.33.126-.51.162-.18.036-.38.054-.6.054-.26 0-.5-.034-.72-.102a1.618 1.618 0 0 1-.57-.318 1.448 1.448 0 0 1-.366-.522 1.852 1.852 0 0 1-.132-.726c0-.232.06-.46.18-.684.124-.228.328-.432.612-.612.284-.184.662-.336 1.134-.456.472-.12 1.058-.188 1.758-.204v-.36c0-.412-.088-.716-.264-.912-.172-.2-.424-.3-.756-.3a1.837 1.837 0 0 0-1.02.276c-.116.068-.224.13-.324.186a.664.664 0 0 1-.33.084.429.429 0 0 1-.258-.078.614.614 0 0 1-.174-.192l-.27-.474c.708-.648 1.562-.972 2.562-.972.36 0 .68.06.96.18.284.116.524.28.72.492.196.208.344.458.444.75.104.292.156.612.156.96v3.888Zm-2.88-.924c.152 0 .292-.014.42-.042.128-.028.248-.07.36-.126.116-.056.226-.124.33-.204.108-.084.216-.182.324-.294v-1.038c-.432.02-.794.058-1.086.114-.288.052-.52.12-.696.204a.923.923 0 0 0-.378.294.664.664 0 0 0-.108.366c0 .26.076.446.228.558.156.112.358.168.606.168Z"/></svg></g><a id="title" href="https://ourworldindata.org/grapher/survival-ages-across-the-population" style="font-family:&#x27;Playfair Display&#x27;, Georgia, &#x27;Times New Roman&#x27;, &#x27;Liberation Serif&#x27;, serif" target="_blank" rel="noopener"><text font-size="24.75" font-weight="600" x="16.0" y="40.0" fill="#5b5b5b"><tspan x="16" y="40.0075">Survival ages across the population, France, 1816 to 2021</tspan></text></a><g id="subtitle" class="markdown-text-wrap"><text x="16.0" y="63.9" style="font-size:14.625px;line-height:1.2" fill="#5b5b5b"><tspan x="16" y="63.9">The number of years that a specific share of the population would survive, if they were born in a given year and</tspan><tspan x="16" y="81.4">experienced age-specific death rates of that year. For example, the line indicating 1% corresponds to the top 1%</tspan><tspan x="16" y="99.0">of survivors born in a given year and the number of years of their survival.</tspan></text></g></g><g id="chart-area" style="pointer-events:none"><g id="horizontal-axis" class="HorizontalAxis"><g id="tick-marks"><line id="1816" x1="80.5" y1="530.8" x2="80.5" y2="536.3" stroke="#999" stroke-width="1"></line><line id="2021" x1="744.3" y1="530.8" x2="744.3" y2="536.3" stroke="#999" stroke-width="1"></line><line id="1850" x1="190.6" y1="530.8" x2="190.6" y2="536.3" stroke="#999" stroke-width="1"></line><line id="1900" x1="352.5" y1="530.8" x2="352.5" y2="536.3" stroke="#999" stroke-width="1"></line><line id="1950" x1="514.4" y1="530.8" x2="514.4" y2="536.3" stroke="#999" stroke-width="1"></line><line id="2000" x1="676.3" y1="530.8" x2="676.3" y2="536.3" stroke="#999" stroke-width="1"></line></g><g id="tick-labels"><text x="80.535" y="549.8" fill="#5b5b5b" text-anchor="start" font-size="13.5">1816</text><text x="744.29" y="549.8" fill="#5b5b5b" text-anchor="end" font-size="13.5">2021</text><text x="190.6" y="549.8" fill="#5b5b5b" text-anchor="middle" font-size="13.5">1850</text><text x="352.5" y="549.8" fill="#5b5b5b" text-anchor="middle" font-size="13.5">1900</text><text x="514.4" y="549.8" fill="#5b5b5b" text-anchor="middle" font-size="13.5">1950</text><text x="676.3" y="549.8" fill="#5b5b5b" text-anchor="middle" font-size="13.5">2000</text></g></g><g id="vertical-axis" class="VerticalAxis"><g id="tick-labels"><text x="75.53" y="531.3" dy=".32em" text-anchor="end" fill="#5b5b5b" font-size="13.5">0 years</text><text x="75.53" y="452" dy=".32em" text-anchor="end" fill="#5b5b5b" font-size="13.5">20 years</text><text x="75.53" y="372.6" dy=".32em" text-anchor="end" fill="#5b5b5b" font-size="13.5">40 years</text><text x="75.53" y="293.3" dy=".32em" text-anchor="end" fill="#5b5b5b" font-size="13.5">60 years</text><text x="75.53" y="214" dy=".32em" text-anchor="end" fill="#5b5b5b" font-size="13.5">80 years</text><text x="75.53" y="134.7" dy=".32em" text-anchor="end" fill="#5b5b5b" font-size="13.5">100 years</text></g></g><g id="horizontal-grid-lines" class="AxisGridLines horizontalLines"><line id="0-years" x1="80.53" y1="531.3" x2="744.29" y2="531.3" stroke="#999" stroke-width="1"></line><line id="20-years" x1="80.53" y1="452" x2="744.29" y2="452" stroke="#ddd" stroke-width="1" stroke-dasharray="3,2"></line><line id="40-years" x1="80.53" y1="372.6" x2="744.29" y2="372.6" stroke="#ddd" stroke-width="1" stroke-dasharray="3,2"></line><line id="60-years" x1="80.53" y1="293.3" x2="744.29" y2="293.3" stroke="#ddd" stroke-width="1" stroke-dasharray="3,2"></line><line id="80-years" x1="80.53" y1="214" x2="744.29" y2="214" stroke="#ddd" stroke-width="1" stroke-dasharray="3,2"></line><line id="100-years" x1="80.53" y1="134.7" x2="744.29" y2="134.7" stroke="#ddd" stroke-width="1" stroke-dasharray="3,2"></line></g><g id="line-labels" class="LineLabels"><g id="connectors"></g><g id="text-annotations"></g><g id="text-values"></g><g id="text-labels"></g><g id="connectors"><path id="Top-1%" d="M748.29,125.1 H761.79 V125.1 H775.29" stroke="#999" stroke-width="0.5" fill="none"></path><path id="10%" d="M748.29,150.9 H761.79 V140.6 H775.29" stroke="#999" stroke-width="0.5" fill="none"></path><path id="20%" d="M748.29,162.8 H766.29 V156.1 H775.29" stroke="#999" stroke-width="0.5" fill="none"></path><path id="30%" d="M748.29,172.7 H770.79 V171.6 H775.29" stroke="#999" stroke-width="0.5" fill="none"></path><path id="40%" d="M748.29,181.9 H770.79 V187.1 H775.29" stroke="#999" stroke-width="0.5" fill="none"></path><path id="50%" d="M748.29,192.2 H766.29 V202.6 H775.29" stroke="#999" stroke-width="0.5" fill="none"></path><path id="60%" d="M748.29,204.5 H761.79 V218.1 H775.29" stroke="#999" stroke-width="0.5" fill="none"></path><path id="70%" d="M748.29,220.3 H757.29 V233.6 H775.29" stroke="#999" stroke-width="0.5" fill="none"></path><path id="80%" d="M748.29,242.9 H752.79 V249.1 H775.29" stroke="#999" stroke-width="0.5" fill="none"></path><path id="90%" d="M748.29,279.4 H761.79 V279.4 H775.29" stroke="#999" stroke-width="0.5" fill="none"></path><path id="99%" d="M748.29,400 H761.79 V400 H775.29" stroke="#999" stroke-width="0.5" fill="none"></path></g><g id="text-annotations"></g><g id="text-values"></g><g id="text-labels"><text font-size="13.50" font-weight="400" x="779.3" y="130.1" fill="#0000ff" opacity="1" text-anchor="start"><tspan x="779.29" y="130.095">Top 1%</tspan></text><text font-size="13.50" font-weight="400" x="779.3" y="145.6" fill="#1900e6" opacity="1" text-anchor="start"><tspan x="779.29" y="145.595">10%</tspan></text><text font-size="13.50" font-weight="400" x="779.3" y="161.1" fill="#4c00e6" opacity="1" text-anchor="start"><tspan x="779.29" y="161.095">20%</tspan></text><text font-size="13.50" font-weight="400" x="779.3" y="176.6" fill="#7f00e6" opacity="1" text-anchor="start"><tspan x="779.29" y="176.595">30%</tspan></text><text font-size="13.50" font-weight="400" x="779.3" y="192.1" fill="#b200e6" opacity="1" text-anchor="start"><tspan x="779.29" y="192.095">40%</tspan></text><text font-size="13.50" font-weight="400" x="779.3" y="207.6" fill="#e600cc" opacity="1" text-anchor="start"><tspan x="779.29" y="207.595">50%</tspan></text><text font-size="13.50" font-weight="400" x="779.3" y="223.1" fill="#ff00b2" opacity="1" text-anchor="start"><tspan x="779.29" y="223.095">60%</tspan></text><text font-size="13.50" font-weight="400" x="779.3" y="238.6" fill="#ff1a99" opacity="1" text-anchor="start"><tspan x="779.29" y="238.595">70%</tspan></text><text font-size="13.50" font-weight="400" x="779.3" y="254.1" fill="#ff337a" opacity="1" text-anchor="start"><tspan x="779.29" y="254.095">80%</tspan></text><text font-size="13.50" font-weight="400" x="779.3" y="284.4" fill="#fb4c4c" opacity="1" text-anchor="start"><tspan x="779.29" y="284.395">90%</tspan></text><text font-size="13.50" font-weight="400" x="779.3" y="405.0" fill="#ef6060" opacity="1" text-anchor="start"><tspan x="779.29" y="404.995">99%</tspan></text></g></g><g id="lines"><path fill="none" stroke-linecap="butt" stroke-linejoin="round" stroke="#ffffff" stroke-width="2.5" id="outline__Top-1%" d="M80.5 174.3L83.8 173.5L87 171.5L90.2 171.9L93.5 176.7L96.7 167.6L100 171.5L103.2 170.4L106.4 167.2L109.7 170.8L112.9 176.3L116.2 170.8L119.4 174.7L122.6 176.3L125.9 176.3L129.1 175.1L132.3 184.2L135.6 172.3L138.8 177.5L142.1 173.9L145.3 171.9L148.5 183.4L151.8 175.1L155 170L158.2 175.9L161.5 172.3L164.7 176.7L168 174.7L171.2 173.5L174.4 171.2L177.7 175.1L180.9 181.5L184.1 178.3L187.4 183.4L190.6 173.1L193.9 175.9L197.1 175.5L200.3 177.9L203.6 185.4L206.8 184.6L210 176.7L213.3 178.3L216.5 181.1L219.8 181.9L223 174.3L226.2 175.1L229.5 173.5L232.7 174.7L236 177.1L239.2 179.1L242.4 177.1L245.7 177.1L248.9 178.7L252.1 177.5L255.4 187.4L258.6 193.4L261.9 171.2L265.1 176.3L268.3 172.3L271.6 177.1L274.8 175.5L278 173.1L281.3 177.1L284.5 179.1L287.8 176.7L291 172.7L294.2 173.5L297.5 174.3L300.7 173.9L303.9 173.5L307.2 174.3L310.4 173.5L313.7 175.1L316.9 171.9L320.1 177.9L323.4 179.5L326.6 179.5L329.8 178.7L333.1 175.9L336.3 179.5L339.6 173.1L342.8 170.8L346 175.5L349.3 175.9L352.5 179.9L355.8 175.1L359 173.5L362.2 174.3L365.5 175.1L368.7 175.9L371.9 175.9L375.2 177.9L378.4 173.5L381.7 176.3L384.9 171.9L388.1 176.7L391.4 170.4L394.6 171.2L397.8 182.3L401.1 182.7L404.3 179.5L407.6 179.9L410.8 182.7L414 175.5L417.3 168.4L420.5 169.6L423.7 172.3L427 168L430.2 169.6L433.5 171.9L436.7 171.2L439.9 170L443.2 168.4L446.4 174.3L449.6 164L452.9 170.4L456.1 167.2L459.4 168L462.6 164L465.8 166.8L469.1 165.6L472.3 164L475.6 165.6L478.8 166.8L482 179.1L485.3 170.8L488.5 170.8L491.7 169.2L495 176.3L498.2 167.2L501.5 158.9L504.7 157.3L507.9 153.3L511.2 161.2L514.4 157.3L517.6 161.2L520.9 156.1L524.1 160.4L527.4 155.3L530.6 156.1L533.8 158.5L537.1 155.7L540.3 152.9L543.5 152.9L546.8 153.7L550 150.1L553.3 154.1L556.5 154.5L559.7 149.3L563 151.3L566.2 148.1L569.4 149.7L572.7 150.5L575.9 150.1L579.2 147.8L582.4 148.9L585.6 146.6L588.9 147.8L592.1 147L595.3 147.4L598.6 146.6L601.8 143.8L605.1 144.2L608.3 142.6L611.5 143.4L614.8 143.8L618 141.8L621.3 143L624.5 140.6L627.7 141.4L631 140.6L634.2 137.8L637.4 137L640.7 137.4L643.9 137L647.2 135.5L650.4 134.7L653.6 135.1L656.9 132.7L660.1 133.9L663.3 133.9L666.6 133.5L669.8 133.1L673.1 133.5L676.3 132.3L679.5 131.9L682.8 131.9L686 133.9L689.2 127.9L692.5 129.5L695.7 127.5L699 127.1L702.2 127.9L705.4 127.5L708.7 126.7L711.9 125.9L715.1 127.9L718.4 126.7L721.6 124.3L724.9 126.3L728.1 125.5L731.3 125.5L734.6 124.7L737.8 124.3L741.1 127.5L744.3 125.1"></path><path fill="none" stroke-linecap="butt" stroke-linejoin="round" stroke="#0000ff" stroke-width="1.5" id="line__Top-1%" d="M80.5 174.3L83.8 173.5L87 171.5L90.2 171.9L93.5 176.7L96.7 167.6L100 171.5L103.2 170.4L106.4 167.2L109.7 170.8L112.9 176.3L116.2 170.8L119.4 174.7L122.6 176.3L125.9 176.3L129.1 175.1L132.3 184.2L135.6 172.3L138.8 177.5L142.1 173.9L145.3 171.9L148.5 183.4L151.8 175.1L155 170L158.2 175.9L161.5 172.3L164.7 176.7L168 174.7L171.2 173.5L174.4 171.2L177.7 175.1L180.9 181.5L184.1 178.3L187.4 183.4L190.6 173.1L193.9 175.9L197.1 175.5L200.3 177.9L203.6 185.4L206.8 184.6L210 176.7L213.3 178.3L216.5 181.1L219.8 181.9L223 174.3L226.2 175.1L229.5 173.5L232.7 174.7L236 177.1L239.2 179.1L242.4 177.1L245.7 177.1L248.9 178.7L252.1 177.5L255.4 187.4L258.6 193.4L261.9 171.2L265.1 176.3L268.3 172.3L271.6 177.1L274.8 175.5L278 173.1L281.3 177.1L284.5 179.1L287.8 176.7L291 172.7L294.2 173.5L297.5 174.3L300.7 173.9L303.9 173.5L307.2 174.3L310.4 173.5L313.7 175.1L316.9 171.9L320.1 177.9L323.4 179.5L326.6 179.5L329.8 178.7L333.1 175.9L336.3 179.5L339.6 173.1L342.8 170.8L346 175.5L349.3 175.9L352.5 179.9L355.8 175.1L359 173.5L362.2 174.3L365.5 175.1L368.7 175.9L371.9 175.9L375.2 177.9L378.4 173.5L381.7 176.3L384.9 171.9L388.1 176.7L391.4 170.4L394.6 171.2L397.8 182.3L401.1 182.7L404.3 179.5L407.6 179.9L410.8 182.7L414 175.5L417.3 168.4L420.5 169.6L423.7 172.3L427 168L430.2 169.6L433.5 171.9L436.7 171.2L439.9 170L443.2 168.4L446.4 174.3L449.6 164L452.9 170.4L456.1 167.2L459.4 168L462.6 164L465.8 166.8L469.1 165.6L472.3 164L475.6 165.6L478.8 166.8L482 179.1L485.3 170.8L488.5 170.8L491.7 169.2L495 176.3L498.2 167.2L501.5 158.9L504.7 157.3L507.9 153.3L511.2 161.2L514.4 157.3L517.6 161.2L520.9 156.1L524.1 160.4L527.4 155.3L530.6 156.1L533.8 158.5L537.1 155.7L540.3 152.9L543.5 152.9L546.8 153.7L550 150.1L553.3 154.1L556.5 154.5L559.7 149.3L563 151.3L566.2 148.1L569.4 149.7L572.7 150.5L575.9 150.1L579.2 147.8L582.4 148.9L585.6 146.6L588.9 147.8L592.1 147L595.3 147.4L598.6 146.6L601.8 143.8L605.1 144.2L608.3 142.6L611.5 143.4L614.8 143.8L618 141.8L621.3 143L624.5 140.6L627.7 141.4L631 140.6L634.2 137.8L637.4 137L640.7 137.4L643.9 137L647.2 135.5L650.4 134.7L653.6 135.1L656.9 132.7L660.1 133.9L663.3 133.9L666.6 133.5L669.8 133.1L673.1 133.5L676.3 132.3L679.5 131.9L682.8 131.9L686 133.9L689.2 127.9L692.5 129.5L695.7 127.5L699 127.1L702.2 127.9L705.4 127.5L708.7 126.7L711.9 125.9L715.1 127.9L718.4 126.7L721.6 124.3L724.9 126.3L728.1 125.5L731.3 125.5L734.6 124.7L737.8 124.3L741.1 127.5L744.3 125.1"></path><path fill="none" stroke-linecap="butt" stroke-linejoin="round" stroke="#ffffff" stroke-width="2.5" id="outline__10%" d="M80.5 218.7L83.8 219.5L87 218.7L90.2 218.7L93.5 219.5L96.7 213.6L100 214.8L103.2 213.6L106.4 213.2L109.7 214.8L112.9 219.1L116.2 216.8L119.4 219.5L122.6 219.5L125.9 219.5L129.1 217.2L132.3 230.6L135.6 218.4L138.8 223.1L142.1 218L145.3 214L148.5 224.7L151.8 218.7L155 214.4L158.2 218L161.5 214.4L164.7 218L168 215.6L171.2 213.6L174.4 211.6L177.7 214.8L180.9 220.7L184.1 218.7L187.4 227.5L190.6 213.2L193.9 214.4L197.1 214.8L200.3 216L203.6 229.5L206.8 224.7L210 215.6L213.3 217.2L216.5 219.9L219.8 222.7L223 213.6L226.2 214.4L229.5 212.8L232.7 214L236 216.4L239.2 218.7L242.4 217.2L245.7 215.2L248.9 217.6L252.1 216.4L255.4 227.9L258.6 242.2L261.9 211.2L265.1 214.8L268.3 211.2L271.6 215.6L274.8 214L278 211.2L281.3 214L284.5 215.2L287.8 214L291 211.2L294.2 211.2L297.5 211.6L300.7 211.6L303.9 211.2L307.2 212L310.4 211.6L313.7 212.4L316.9 209.6L320.1 215.6L323.4 217.2L326.6 216.4L329.8 215.6L333.1 212.4L336.3 214.8L339.6 208.8L342.8 207.2L346 211.6L349.3 212L352.5 215.6L355.8 211.2L359 209.6L362.2 209.2L365.5 209.6L368.7 210.8L371.9 211.2L375.2 213.6L378.4 209.6L381.7 211.6L384.9 207.2L388.1 211.2L391.4 206.5L394.6 206.5L397.8 224.7L401.1 227.9L404.3 219.9L407.6 216.4L410.8 228.3L414 210L417.3 203.3L420.5 203.7L423.7 205.7L427 202.1L430.2 203.7L433.5 205.3L436.7 204.9L439.9 202.9L443.2 201.7L446.4 206.9L449.6 199.3L452.9 202.9L456.1 200.5L459.4 200.9L462.6 198.1L465.8 200.5L469.1 199.3L472.3 197.7L475.6 198.9L478.8 199.7L482 212.4L485.3 202.9L488.5 202.9L491.7 202.9L495 211.6L498.2 199.3L501.5 190.6L504.7 189L507.9 186.2L511.2 192.2L514.4 188.6L517.6 191.4L520.9 187.4L524.1 190.6L527.4 186.2L530.6 186.6L533.8 188.2L537.1 185.8L540.3 183.1L543.5 183.1L546.8 183.8L550 180.7L553.3 183.8L556.5 184.2L559.7 180.3L563 181.5L566.2 179.5L569.4 179.9L572.7 180.3L575.9 180.7L579.2 178.3L582.4 178.7L585.6 177.1L588.9 177.9L592.1 176.7L595.3 176.7L598.6 176.3L601.8 173.5L605.1 173.9L608.3 172.7L611.5 172.7L614.8 173.1L618 171.2L621.3 172.3L624.5 170L627.7 170.8L631 169.6L634.2 167.2L637.4 166L640.7 166L643.9 165.2L647.2 164L650.4 163.2L653.6 163.2L656.9 161.6L660.1 161.6L663.3 161.6L666.6 160.8L669.8 160.8L673.1 160.4L676.3 159.7L679.5 158.9L682.8 158.9L686 159.7L689.2 155.3L692.5 156.1L695.7 154.1L699 153.7L702.2 153.7L705.4 153.7L708.7 152.9L711.9 151.3L715.1 152.5L718.4 151.7L721.6 149.7L724.9 151.3L728.1 150.5L731.3 150.9L734.6 150.1L737.8 149.7L741.1 152.5L744.3 150.9"></path><path fill="none" stroke-linecap="butt" stroke-linejoin="round" stroke="#1900e6" stroke-width="1.5" id="line__10%" d="M80.5 218.7L83.8 219.5L87 218.7L90.2 218.7L93.5 219.5L96.7 213.6L100 214.8L103.2 213.6L106.4 213.2L109.7 214.8L112.9 219.1L116.2 216.8L119.4 219.5L122.6 219.5L125.9 219.5L129.1 217.2L132.3 230.6L135.6 218.4L138.8 223.1L142.1 218L145.3 214L148.5 224.7L151.8 218.7L155 214.4L158.2 218L161.5 214.4L164.7 218L168 215.6L171.2 213.6L174.4 211.6L177.7 214.8L180.9 220.7L184.1 218.7L187.4 227.5L190.6 213.2L193.9 214.4L197.1 214.8L200.3 216L203.6 229.5L206.8 224.7L210 215.6L213.3 217.2L216.5 219.9L219.8 222.7L223 213.6L226.2 214.4L229.5 212.8L232.7 214L236 216.4L239.2 218.7L242.4 217.2L245.7 215.2L248.9 217.6L252.1 216.4L255.4 227.9L258.6 242.2L261.9 211.2L265.1 214.8L268.3 211.2L271.6 215.6L274.8 214L278 211.2L281.3 214L284.5 215.2L287.8 214L291 211.2L294.2 211.2L297.5 211.6L300.7 211.6L303.9 211.2L307.2 212L310.4 211.6L313.7 212.4L316.9 209.6L320.1 215.6L323.4 217.2L326.6 216.4L329.8 215.6L333.1 212.4L336.3 214.8L339.6 208.8L342.8 207.2L346 211.6L349.3 212L352.5 215.6L355.8 211.2L359 209.6L362.2 209.2L365.5 209.6L368.7 210.8L371.9 211.2L375.2 213.6L378.4 209.6L381.7 211.6L384.9 207.2L388.1 211.2L391.4 206.5L394.6 206.5L397.8 224.7L401.1 227.9L404.3 219.9L407.6 216.4L410.8 228.3L414 210L417.3 203.3L420.5 203.7L423.7 205.7L427 202.1L430.2 203.7L433.5 205.3L436.7 204.9L439.9 202.9L443.2 201.7L446.4 206.9L449.6 199.3L452.9 202.9L456.1 200.5L459.4 200.9L462.6 198.1L465.8 200.5L469.1 199.3L472.3 197.7L475.6 198.9L478.8 199.7L482 212.4L485.3 202.9L488.5 202.9L491.7 202.9L495 211.6L498.2 199.3L501.5 190.6L504.7 189L507.9 186.2L511.2 192.2L514.4 188.6L517.6 191.4L520.9 187.4L524.1 190.6L527.4 186.2L530.6 186.6L533.8 188.2L537.1 185.8L540.3 183.1L543.5 183.1L546.8 183.8L550 180.7L553.3 183.8L556.5 184.2L559.7 180.3L563 181.5L566.2 179.5L569.4 179.9L572.7 180.3L575.9 180.7L579.2 178.3L582.4 178.7L585.6 177.1L588.9 177.9L592.1 176.7L595.3 176.7L598.6 176.3L601.8 173.5L605.1 173.9L608.3 172.7L611.5 172.7L614.8 173.1L618 171.2L621.3 172.3L624.5 170L627.7 170.8L631 169.6L634.2 167.2L637.4 166L640.7 166L643.9 165.2L647.2 164L650.4 163.2L653.6 163.2L656.9 161.6L660.1 161.6L663.3 161.6L666.6 160.8L669.8 160.8L673.1 160.4L676.3 159.7L679.5 158.9L682.8 158.9L686 159.7L689.2 155.3L692.5 156.1L695.7 154.1L699 153.7L702.2 153.7L705.4 153.7L708.7 152.9L711.9 151.3L715.1 152.5L718.4 151.7L721.6 149.7L724.9 151.3L728.1 150.5L731.3 150.9L734.6 150.1L737.8 149.7L741.1 152.5L744.3 150.9"></path><path fill="none" stroke-linecap="butt" stroke-linejoin="round" stroke="#ffffff" stroke-width="2.5" id="outline__20%" d="M80.5 242.5L83.8 244.9L87 244.5L90.2 245.3L93.5 244.1L96.7 238.6L100 240.2L103.2 238.2L106.4 238.2L109.7 241L112.9 244.5L116.2 242.2L119.4 245.3L122.6 243.7L125.9 243.3L129.1 241L132.3 258L135.6 243.3L138.8 250.1L142.1 242.9L145.3 237.4L148.5 247.7L151.8 242.9L155 238.6L158.2 241.8L161.5 238.6L164.7 241.4L168 238.6L171.2 236.2L174.4 233.8L177.7 238.2L180.9 243.7L184.1 242.5L187.4 255.2L190.6 236.2L193.9 237.4L197.1 238.2L200.3 238.2L203.6 256L206.8 249.3L210 239.4L213.3 241L216.5 242.9L219.8 247.7L223 235.8L226.2 237.4L229.5 234.6L232.7 236.6L236 238.2L239.2 241.8L242.4 240.6L245.7 237.8L248.9 240.6L252.1 239.8L255.4 252.5L258.6 278.6L261.9 234.6L265.1 237.4L268.3 232.6L271.6 237L274.8 235L278 232.2L281.3 234.6L284.5 235.8L287.8 235.4L291 233.4L294.2 233.8L297.5 234.2L300.7 234.6L303.9 233.8L307.2 234.6L310.4 234.6L313.7 234.2L316.9 231L320.1 237L323.4 237.8L326.6 236.2L329.8 235.8L333.1 232.6L336.3 234.2L339.6 229.1L342.8 226.7L346 231.4L349.3 232.2L352.5 235.8L355.8 230.6L359 229.1L362.2 228.3L365.5 228.7L368.7 230.3L371.9 230.6L375.2 233L378.4 229.1L381.7 230.6L384.9 226.3L388.1 229.9L391.4 225.5L394.6 225.5L397.8 253.7L401.1 261.2L404.3 246.1L407.6 238.6L410.8 262.4L414 229.9L417.3 221.9L420.5 221.9L423.7 223.5L427 219.9L430.2 221.5L433.5 222.7L436.7 222.7L439.9 220.3L443.2 219.1L446.4 224.3L449.6 217.6L452.9 219.9L456.1 218.4L459.4 218.4L462.6 216.4L465.8 218L469.1 216.8L472.3 215.6L475.6 216.8L478.8 216.8L482 231.4L485.3 219.9L488.5 219.5L491.7 221.1L495 233L498.2 216.4L501.5 206.5L504.7 204.9L507.9 202.5L511.2 207.2L514.4 203.7L517.6 206.5L520.9 202.5L524.1 205.3L527.4 201.3L530.6 201.3L533.8 202.9L537.1 200.9L540.3 198.1L543.5 197.7L546.8 198.1L550 195.7L553.3 198.5L556.5 198.9L559.7 195L563 196.5L566.2 194.2L569.4 195L572.7 195L575.9 196.1L579.2 193L582.4 193.4L585.6 192.2L588.9 192.6L592.1 191.4L595.3 191.8L598.6 190.6L601.8 188.2L605.1 188.6L608.3 187.4L611.5 187L614.8 187.4L618 185.8L621.3 186.6L624.5 184.6L627.7 184.6L631 183.4L634.2 181.1L637.4 180.3L640.7 179.9L643.9 178.7L647.2 177.9L650.4 176.7L653.6 177.1L656.9 175.1L660.1 175.5L663.3 175.1L666.6 174.3L669.8 173.9L673.1 173.5L676.3 172.7L679.5 171.5L682.8 171.5L686 172.3L689.2 168.4L692.5 169.2L695.7 167.2L699 166.8L702.2 166.4L705.4 166L708.7 165.2L711.9 164L715.1 164.8L718.4 164L721.6 162L724.9 163.6L728.1 162.8L731.3 162.8L734.6 162L737.8 161.6L741.1 164L744.3 162.8"></path><path fill="none" stroke-linecap="butt" stroke-linejoin="round" stroke="#4c00e6" stroke-width="1.5" id="line__20%" d="M80.5 242.5L83.8 244.9L87 244.5L90.2 245.3L93.5 244.1L96.7 238.6L100 240.2L103.2 238.2L106.4 238.2L109.7 241L112.9 244.5L116.2 242.2L119.4 245.3L122.6 243.7L125.9 243.3L129.1 241L132.3 258L135.6 243.3L138.8 250.1L142.1 242.9L145.3 237.4L148.5 247.7L151.8 242.9L155 238.6L158.2 241.8L161.5 238.6L164.7 241.4L168 238.6L171.2 236.2L174.4 233.8L177.7 238.2L180.9 243.7L184.1 242.5L187.4 255.2L190.6 236.2L193.9 237.4L197.1 238.2L200.3 238.2L203.6 256L206.8 249.3L210 239.4L213.3 241L216.5 242.9L219.8 247.7L223 235.8L226.2 237.4L229.5 234.6L232.7 236.6L236 238.2L239.2 241.8L242.4 240.6L245.7 237.8L248.9 240.6L252.1 239.8L255.4 252.5L258.6 278.6L261.9 234.6L265.1 237.4L268.3 232.6L271.6 237L274.8 235L278 232.2L281.3 234.6L284.5 235.8L287.8 235.4L291 233.4L294.2 233.8L297.5 234.2L300.7 234.6L303.9 233.8L307.2 234.6L310.4 234.6L313.7 234.2L316.9 231L320.1 237L323.4 237.8L326.6 236.2L329.8 235.8L333.1 232.6L336.3 234.2L339.6 229.1L342.8 226.7L346 231.4L349.3 232.2L352.5 235.8L355.8 230.6L359 229.1L362.2 228.3L365.5 228.7L368.7 230.3L371.9 230.6L375.2 233L378.4 229.1L381.7 230.6L384.9 226.3L388.1 229.9L391.4 225.5L394.6 225.5L397.8 253.7L401.1 261.2L404.3 246.1L407.6 238.6L410.8 262.4L414 229.9L417.3 221.9L420.5 221.9L423.7 223.5L427 219.9L430.2 221.5L433.5 222.7L436.7 222.7L439.9 220.3L443.2 219.1L446.4 224.3L449.6 217.6L452.9 219.9L456.1 218.4L459.4 218.4L462.6 216.4L465.8 218L469.1 216.8L472.3 215.6L475.6 216.8L478.8 216.8L482 231.4L485.3 219.9L488.5 219.5L491.7 221.1L495 233L498.2 216.4L501.5 206.5L504.7 204.9L507.9 202.5L511.2 207.2L514.4 203.7L517.6 206.5L520.9 202.5L524.1 205.3L527.4 201.3L530.6 201.3L533.8 202.9L537.1 200.9L540.3 198.1L543.5 197.7L546.8 198.1L550 195.7L553.3 198.5L556.5 198.9L559.7 195L563 196.5L566.2 194.2L569.4 195L572.7 195L575.9 196.1L579.2 193L582.4 193.4L585.6 192.2L588.9 192.6L592.1 191.4L595.3 191.8L598.6 190.6L601.8 188.2L605.1 188.6L608.3 187.4L611.5 187L614.8 187.4L618 185.8L621.3 186.6L624.5 184.6L627.7 184.6L631 183.4L634.2 181.1L637.4 180.3L640.7 179.9L643.9 178.7L647.2 177.9L650.4 176.7L653.6 177.1L656.9 175.1L660.1 175.5L663.3 175.1L666.6 174.3L669.8 173.9L673.1 173.5L676.3 172.7L679.5 171.5L682.8 171.5L686 172.3L689.2 168.4L692.5 169.2L695.7 167.2L699 166.8L702.2 166.4L705.4 166L708.7 165.2L711.9 164L715.1 164.8L718.4 164L721.6 162L724.9 163.6L728.1 162.8L731.3 162.8L734.6 162L737.8 161.6L741.1 164L744.3 162.8"></path><path fill="none" stroke-linecap="butt" stroke-linejoin="round" stroke="#ffffff" stroke-width="2.5" id="outline__30%" d="M80.5 265.2L83.8 269.5L87 269.9L90.2 271.9L93.5 268.3L96.7 262.4L100 264.8L103.2 260.8L106.4 261.6L109.7 265.9L112.9 269.5L116.2 265.9L119.4 270.3L122.6 266.3L125.9 265.9L129.1 263.6L132.3 285L135.6 267.5L138.8 277.5L142.1 266.7L145.3 258.4L148.5 269.9L151.8 265.9L155 260.4L158.2 264.4L161.5 260.8L164.7 263.6L168 260.8L171.2 257.2L174.4 254.4L177.7 260.4L180.9 266.3L184.1 265.2L187.4 284.2L190.6 256.4L193.9 258L197.1 259.6L200.3 258L203.6 283.4L206.8 274.7L210 262L213.3 262.8L216.5 264.8L219.8 273.9L223 255.2L226.2 258.4L229.5 254.8L232.7 257.2L236 258.8L239.2 263.6L242.4 262L245.7 258L248.9 261.6L252.1 260.4L255.4 278.2L258.6 323.1L261.9 254.4L265.1 257.2L268.3 251.3L271.6 256.8L274.8 254.8L278 252.1L281.3 254.4L284.5 255.2L287.8 255.6L291 254.1L294.2 254.8L297.5 254.8L300.7 255.6L303.9 254.1L307.2 255.2L310.4 254.8L313.7 252.9L316.9 249.3L320.1 256.4L323.4 256L326.6 254.8L329.8 254.8L333.1 250.9L336.3 252.5L339.6 246.9L342.8 244.1L346 248.9L349.3 250.1L352.5 254.1L355.8 248.5L359 246.5L362.2 245.3L365.5 245.7L368.7 247.3L371.9 247.7L375.2 250.1L378.4 246.1L381.7 247.3L384.9 242.5L388.1 246.1L391.4 241.8L394.6 241.8L397.8 290.1L401.1 308.4L404.3 275.9L407.6 260.8L410.8 310.4L414 248.1L417.3 238.2L420.5 237.4L423.7 238.2L427 235.4L430.2 237L433.5 238.6L436.7 237.8L439.9 235L443.2 234.6L446.4 239L449.6 232.6L452.9 234.6L456.1 233L459.4 233L462.6 231L465.8 233L469.1 231.4L472.3 230.3L475.6 231L478.8 230.6L482 250.1L485.3 234.6L488.5 233.4L491.7 237L495 254.4L498.2 230.6L501.5 219.1L504.7 217.6L507.9 215.6L511.2 219.9L514.4 216.4L517.6 218.7L520.9 215.2L524.1 217.6L527.4 213.6L530.6 213.6L533.8 214.8L537.1 213.2L540.3 209.6L543.5 210L546.8 210L550 207.6L553.3 210L556.5 210.8L559.7 207.2L563 208.4L566.2 206.5L569.4 206.9L572.7 207.2L575.9 208.4L579.2 205.3L582.4 205.3L585.6 204.5L588.9 204.5L592.1 203.7L595.3 203.7L598.6 202.9L601.8 200.5L605.1 200.9L608.3 199.3L611.5 198.9L614.8 198.9L618 197.3L621.3 198.1L624.5 196.1L627.7 196.1L631 195L634.2 192.6L637.4 191.8L640.7 191L643.9 189.8L647.2 189L650.4 187.8L653.6 187.8L656.9 186.2L660.1 186.2L663.3 185.8L666.6 185L669.8 185L673.1 184.6L676.3 183.4L679.5 182.7L682.8 182.3L686 182.7L689.2 179.1L692.5 179.1L695.7 177.5L699 177.1L702.2 176.7L705.4 176.3L708.7 175.5L711.9 173.9L715.1 174.7L718.4 173.9L721.6 171.9L724.9 173.5L728.1 172.3L731.3 172.3L734.6 171.5L737.8 171.2L741.1 173.5L744.3 172.7"></path><path fill="none" stroke-linecap="butt" stroke-linejoin="round" stroke="#7f00e6" stroke-width="1.5" id="line__30%" d="M80.5 265.2L83.8 269.5L87 269.9L90.2 271.9L93.5 268.3L96.7 262.4L100 264.8L103.2 260.8L106.4 261.6L109.7 265.9L112.9 269.5L116.2 265.9L119.4 270.3L122.6 266.3L125.9 265.9L129.1 263.6L132.3 285L135.6 267.5L138.8 277.5L142.1 266.7L145.3 258.4L148.5 269.9L151.8 265.9L155 260.4L158.2 264.4L161.5 260.8L164.7 263.6L168 260.8L171.2 257.2L174.4 254.4L177.7 260.4L180.9 266.3L184.1 265.2L187.4 284.2L190.6 256.4L193.9 258L197.1 259.6L200.3 258L203.6 283.4L206.8 274.7L210 262L213.3 262.8L216.5 264.8L219.8 273.9L223 255.2L226.2 258.4L229.5 254.8L232.7 257.2L236 258.8L239.2 263.6L242.4 262L245.7 258L248.9 261.6L252.1 260.4L255.4 278.2L258.6 323.1L261.9 254.4L265.1 257.2L268.3 251.3L271.6 256.8L274.8 254.8L278 252.1L281.3 254.4L284.5 255.2L287.8 255.6L291 254.1L294.2 254.8L297.5 254.8L300.7 255.6L303.9 254.1L307.2 255.2L310.4 254.8L313.7 252.9L316.9 249.3L320.1 256.4L323.4 256L326.6 254.8L329.8 254.8L333.1 250.9L336.3 252.5L339.6 246.9L342.8 244.1L346 248.9L349.3 250.1L352.5 254.1L355.8 248.5L359 246.5L362.2 245.3L365.5 245.7L368.7 247.3L371.9 247.7L375.2 250.1L378.4 246.1L381.7 247.3L384.9 242.5L388.1 246.1L391.4 241.8L394.6 241.8L397.8 290.1L401.1 308.4L404.3 275.9L407.6 260.8L410.8 310.4L414 248.1L417.3 238.2L420.5 237.4L423.7 238.2L427 235.4L430.2 237L433.5 238.6L436.7 237.8L439.9 235L443.2 234.6L446.4 239L449.6 232.6L452.9 234.6L456.1 233L459.4 233L462.6 231L465.8 233L469.1 231.4L472.3 230.3L475.6 231L478.8 230.6L482 250.1L485.3 234.6L488.5 233.4L491.7 237L495 254.4L498.2 230.6L501.5 219.1L504.7 217.6L507.9 215.6L511.2 219.9L514.4 216.4L517.6 218.7L520.9 215.2L524.1 217.6L527.4 213.6L530.6 213.6L533.8 214.8L537.1 213.2L540.3 209.6L543.5 210L546.8 210L550 207.6L553.3 210L556.5 210.8L559.7 207.2L563 208.4L566.2 206.5L569.4 206.9L572.7 207.2L575.9 208.4L579.2 205.3L582.4 205.3L585.6 204.5L588.9 204.5L592.1 203.7L595.3 203.7L598.6 202.9L601.8 200.5L605.1 200.9L608.3 199.3L611.5 198.9L614.8 198.9L618 197.3L621.3 198.1L624.5 196.1L627.7 196.1L631 195L634.2 192.6L637.4 191.8L640.7 191L643.9 189.8L647.2 189L650.4 187.8L653.6 187.8L656.9 186.2L660.1 186.2L663.3 185.8L666.6 185L669.8 185L673.1 184.6L676.3 183.4L679.5 182.7L682.8 182.3L686 182.7L689.2 179.1L692.5 179.1L695.7 177.5L699 177.1L702.2 176.7L705.4 176.3L708.7 175.5L711.9 173.9L715.1 174.7L718.4 173.9L721.6 171.9L724.9 173.5L728.1 172.3L731.3 172.3L734.6 171.5L737.8 171.2L741.1 173.5L744.3 172.7"></path><path fill="none" stroke-linecap="butt" stroke-linejoin="round" stroke="#ffffff" stroke-width="2.5" id="outline__40%" d="M80.5 291.3L83.8 296.1L87 298.1L90.2 302.4L93.5 294.5L96.7 290.1L100 292.9L103.2 287.4L106.4 289.4L109.7 294.5L112.9 298.9L116.2 292.9L119.4 299.7L122.6 292.5L125.9 292.5L129.1 290.5L132.3 318.7L135.6 296.1L138.8 312.8L142.1 294.9L145.3 283L148.5 296.1L151.8 293.7L155 287.4L158.2 292.1L161.5 289.4L164.7 290.9L168 287.8L171.2 282.2L174.4 278.2L177.7 287.4L180.9 292.5L184.1 292.1L187.4 320.3L190.6 280.6L193.9 283.4L197.1 285.4L200.3 282.2L203.6 317.1L206.8 307.2L210 290.1L213.3 290.1L216.5 290.9L219.8 306.4L223 279.4L226.2 284.6L229.5 279L232.7 281L236 281.4L239.2 288.6L242.4 286.2L245.7 280.2L248.9 286.6L252.1 284.6L255.4 312L258.6 373.4L261.9 280.2L265.1 282.2L268.3 273.9L271.6 280.2L274.8 278.6L278 274.7L281.3 277.1L284.5 277.5L287.8 279.4L291 277.5L294.2 279L297.5 278.6L300.7 279.8L303.9 277.8L307.2 279.8L310.4 278.2L313.7 274.7L316.9 270.3L320.1 279L323.4 277.1L326.6 275.9L329.8 276.3L333.1 271.5L336.3 272.3L339.6 266.3L342.8 263.2L346 268.3L349.3 270.3L352.5 274.7L355.8 268.3L359 265.9L362.2 264L365.5 264L368.7 266.3L371.9 267.1L375.2 269.1L378.4 264.4L381.7 265.2L384.9 260L388.1 264L391.4 259.6L394.6 259.2L397.8 352.8L401.1 378.6L404.3 321.5L407.6 290.1L410.8 372.2L414 268.7L417.3 255.2L420.5 254.1L423.7 254.1L427 251.7L430.2 252.9L433.5 254.8L436.7 254.4L439.9 250.1L443.2 250.1L446.4 254.8L449.6 248.5L452.9 249.7L456.1 248.1L459.4 248.1L462.6 246.5L465.8 248.1L469.1 246.1L472.3 244.9L475.6 246.1L478.8 244.9L482 270.3L485.3 249.7L488.5 248.5L491.7 255.2L495 281.8L498.2 246.1L501.5 232.2L504.7 230.3L507.9 227.9L511.2 231.8L514.4 228.7L517.6 230.3L520.9 226.7L524.1 229.1L527.4 225.5L530.6 225.5L533.8 226.3L537.1 225.1L540.3 221.1L543.5 221.5L546.8 221.5L550 219.5L553.3 221.5L556.5 222.3L559.7 218.7L563 219.9L566.2 218.4L569.4 218.7L572.7 218.7L575.9 220.7L579.2 217.2L582.4 217.2L585.6 216.4L588.9 216.4L592.1 215.2L595.3 215.2L598.6 214.4L601.8 212.4L605.1 212.4L608.3 210.8L611.5 210.4L614.8 210L618 208.4L621.3 208.8L624.5 206.9L627.7 206.9L631 205.7L634.2 203.7L637.4 202.5L640.7 201.7L643.9 200.5L647.2 199.7L650.4 198.5L653.6 198.5L656.9 196.9L660.1 196.9L663.3 196.5L666.6 195.7L669.8 195.3L673.1 195L676.3 193.8L679.5 193L682.8 192.2L686 192.6L689.2 189L692.5 189.4L695.7 187.4L699 186.6L702.2 186.6L705.4 185.8L708.7 185L711.9 183.8L715.1 184.2L718.4 183.1L721.6 181.5L724.9 182.7L728.1 181.9L731.3 181.5L734.6 181.1L737.8 180.3L741.1 182.7L744.3 181.9"></path><path fill="none" stroke-linecap="butt" stroke-linejoin="round" stroke="#b200e6" stroke-width="1.5" id="line__40%" d="M80.5 291.3L83.8 296.1L87 298.1L90.2 302.4L93.5 294.5L96.7 290.1L100 292.9L103.2 287.4L106.4 289.4L109.7 294.5L112.9 298.9L116.2 292.9L119.4 299.7L122.6 292.5L125.9 292.5L129.1 290.5L132.3 318.7L135.6 296.1L138.8 312.8L142.1 294.9L145.3 283L148.5 296.1L151.8 293.7L155 287.4L158.2 292.1L161.5 289.4L164.7 290.9L168 287.8L171.2 282.2L174.4 278.2L177.7 287.4L180.9 292.5L184.1 292.1L187.4 320.3L190.6 280.6L193.9 283.4L197.1 285.4L200.3 282.2L203.6 317.1L206.8 307.2L210 290.1L213.3 290.1L216.5 290.9L219.8 306.4L223 279.4L226.2 284.6L229.5 279L232.7 281L236 281.4L239.2 288.6L242.4 286.2L245.7 280.2L248.9 286.6L252.1 284.6L255.4 312L258.6 373.4L261.9 280.2L265.1 282.2L268.3 273.9L271.6 280.2L274.8 278.6L278 274.7L281.3 277.1L284.5 277.5L287.8 279.4L291 277.5L294.2 279L297.5 278.6L300.7 279.8L303.9 277.8L307.2 279.8L310.4 278.2L313.7 274.7L316.9 270.3L320.1 279L323.4 277.1L326.6 275.9L329.8 276.3L333.1 271.5L336.3 272.3L339.6 266.3L342.8 263.2L346 268.3L349.3 270.3L352.5 274.7L355.8 268.3L359 265.9L362.2 264L365.5 264L368.7 266.3L371.9 267.1L375.2 269.1L378.4 264.4L381.7 265.2L384.9 260L388.1 264L391.4 259.6L394.6 259.2L397.8 352.8L401.1 378.6L404.3 321.5L407.6 290.1L410.8 372.2L414 268.7L417.3 255.2L420.5 254.1L423.7 254.1L427 251.7L430.2 252.9L433.5 254.8L436.7 254.4L439.9 250.1L443.2 250.1L446.4 254.8L449.6 248.5L452.9 249.7L456.1 248.1L459.4 248.1L462.6 246.5L465.8 248.1L469.1 246.1L472.3 244.9L475.6 246.1L478.8 244.9L482 270.3L485.3 249.7L488.5 248.5L491.7 255.2L495 281.8L498.2 246.1L501.5 232.2L504.7 230.3L507.9 227.9L511.2 231.8L514.4 228.7L517.6 230.3L520.9 226.7L524.1 229.1L527.4 225.5L530.6 225.5L533.8 226.3L537.1 225.1L540.3 221.1L543.5 221.5L546.8 221.5L550 219.5L553.3 221.5L556.5 222.3L559.7 218.7L563 219.9L566.2 218.4L569.4 218.7L572.7 218.7L575.9 220.7L579.2 217.2L582.4 217.2L585.6 216.4L588.9 216.4L592.1 215.2L595.3 215.2L598.6 214.4L601.8 212.4L605.1 212.4L608.3 210.8L611.5 210.4L614.8 210L618 208.4L621.3 208.8L624.5 206.9L627.7 206.9L631 205.7L634.2 203.7L637.4 202.5L640.7 201.7L643.9 200.5L647.2 199.7L650.4 198.5L653.6 198.5L656.9 196.9L660.1 196.9L663.3 196.5L666.6 195.7L669.8 195.3L673.1 195L676.3 193.8L679.5 193L682.8 192.2L686 192.6L689.2 189L692.5 189.4L695.7 187.4L699 186.6L702.2 186.6L705.4 185.8L708.7 185L711.9 183.8L715.1 184.2L718.4 183.1L721.6 181.5L724.9 182.7L728.1 181.9L731.3 181.5L734.6 181.1L737.8 180.3L741.1 182.7L744.3 181.9"></path><path fill="none" stroke-linecap="butt" stroke-linejoin="round" stroke="#ffffff" stroke-width="2.5" id="outline__50%" d="M80.5 326.2L83.8 332.6L87 338.1L90.2 345.3L93.5 331.4L96.7 328.2L100 334.6L103.2 324.3L106.4 328.6L109.7 335.8L112.9 341.7L116.2 331L119.4 342.9L122.6 331L125.9 330.6L129.1 330.6L132.3 361.1L135.6 337.7L138.8 363.1L142.1 334.2L145.3 316.7L148.5 333L151.8 334.2L155 325.4L158.2 331.4L161.5 330.2L164.7 331L168 327L171.2 316.3L174.4 310.4L177.7 326.2L180.9 330.6L184.1 331L187.4 365.1L190.6 313.1L193.9 318.3L197.1 321.1L200.3 315.5L203.6 361.5L206.8 354.8L210 330.2L213.3 327.4L216.5 327.4L219.8 356.4L223 310L226.2 319.9L229.5 309.2L232.7 312.4L236 312.8L239.2 324.7L242.4 321.1L245.7 311.6L248.9 321.9L252.1 319.1L255.4 357.6L258.6 419.1L261.9 313.1L265.1 315.9L268.3 302.4L271.6 310.8L274.8 309.2L278 304L281.3 307.2L284.5 305.6L287.8 311.2L291 309.2L294.2 311.2L297.5 310.4L300.7 312.4L303.9 308.8L307.2 311.2L310.4 308L313.7 302.8L316.9 296.5L320.1 306.8L323.4 303.2L326.6 302.4L329.8 304.4L333.1 297.7L336.3 298.1L339.6 290.9L342.8 286.6L346 292.9L349.3 296.1L352.5 300.5L355.8 292.9L359 289.7L362.2 287L365.5 287L368.7 289.4L371.9 290.5L375.2 291.7L378.4 286.6L381.7 286.2L384.9 280.6L388.1 286.2L391.4 280.6L394.6 280.2L397.8 402.8L401.1 409.9L404.3 384.5L407.6 336.2L410.8 405.2L414 296.1L417.3 276.3L420.5 273.9L423.7 272.3L427 270.7L430.2 271.5L433.5 273.5L436.7 273.5L439.9 267.9L443.2 268.3L446.4 273.1L449.6 266.7L452.9 266.7L456.1 265.6L459.4 265.2L462.6 263.2L465.8 265.2L469.1 262.8L472.3 261.6L475.6 262.8L478.8 260.8L482 297.3L485.3 266.7L488.5 265.2L491.7 277.1L495 321.9L498.2 264L501.5 246.1L504.7 243.3L507.9 241.4L511.2 244.5L514.4 241.4L517.6 242.9L520.9 239.8L524.1 241.4L527.4 238.2L530.6 237.8L533.8 238.6L537.1 237.4L540.3 233.4L543.5 233.4L546.8 233.8L550 231.4L553.3 233.4L556.5 234.6L559.7 231.4L563 232.6L566.2 231L569.4 231.4L572.7 231.4L575.9 233.4L579.2 229.5L582.4 229.5L585.6 229.1L588.9 228.7L592.1 227.5L595.3 227.5L598.6 226.7L601.8 224.3L605.1 224.3L608.3 223.1L611.5 222.3L614.8 221.5L618 220.3L621.3 220.3L624.5 218.7L627.7 218.4L631 217.2L634.2 215.2L637.4 214L640.7 213.2L643.9 212L647.2 211.2L650.4 210L653.6 210L656.9 208.4L660.1 208.4L663.3 208L666.6 206.9L669.8 206.5L673.1 205.7L676.3 204.5L679.5 203.7L682.8 202.9L686 203.3L689.2 199.7L692.5 199.7L695.7 198.1L699 197.3L702.2 196.9L705.4 196.1L708.7 195.3L711.9 194.2L715.1 194.2L718.4 193.4L721.6 191.8L724.9 192.6L728.1 191.8L731.3 191.4L734.6 190.6L737.8 190.2L741.1 193L744.3 192.2"></path><path fill="none" stroke-linecap="butt" stroke-linejoin="round" stroke="#e600cc" stroke-width="1.5" id="line__50%" d="M80.5 326.2L83.8 332.6L87 338.1L90.2 345.3L93.5 331.4L96.7 328.2L100 334.6L103.2 324.3L106.4 328.6L109.7 335.8L112.9 341.7L116.2 331L119.4 342.9L122.6 331L125.9 330.6L129.1 330.6L132.3 361.1L135.6 337.7L138.8 363.1L142.1 334.2L145.3 316.7L148.5 333L151.8 334.2L155 325.4L158.2 331.4L161.5 330.2L164.7 331L168 327L171.2 316.3L174.4 310.4L177.7 326.2L180.9 330.6L184.1 331L187.4 365.1L190.6 313.1L193.9 318.3L197.1 321.1L200.3 315.5L203.6 361.5L206.8 354.8L210 330.2L213.3 327.4L216.5 327.4L219.8 356.4L223 310L226.2 319.9L229.5 309.2L232.7 312.4L236 312.8L239.2 324.7L242.4 321.1L245.7 311.6L248.9 321.9L252.1 319.1L255.4 357.6L258.6 419.1L261.9 313.1L265.1 315.9L268.3 302.4L271.6 310.8L274.8 309.2L278 304L281.3 307.2L284.5 305.6L287.8 311.2L291 309.2L294.2 311.2L297.5 310.4L300.7 312.4L303.9 308.8L307.2 311.2L310.4 308L313.7 302.8L316.9 296.5L320.1 306.8L323.4 303.2L326.6 302.4L329.8 304.4L333.1 297.7L336.3 298.1L339.6 290.9L342.8 286.6L346 292.9L349.3 296.1L352.5 300.5L355.8 292.9L359 289.7L362.2 287L365.5 287L368.7 289.4L371.9 290.5L375.2 291.7L378.4 286.6L381.7 286.2L384.9 280.6L388.1 286.2L391.4 280.6L394.6 280.2L397.8 402.8L401.1 409.9L404.3 384.5L407.6 336.2L410.8 405.2L414 296.1L417.3 276.3L420.5 273.9L423.7 272.3L427 270.7L430.2 271.5L433.5 273.5L436.7 273.5L439.9 267.9L443.2 268.3L446.4 273.1L449.6 266.7L452.9 266.7L456.1 265.6L459.4 265.2L462.6 263.2L465.8 265.2L469.1 262.8L472.3 261.6L475.6 262.8L478.8 260.8L482 297.3L485.3 266.7L488.5 265.2L491.7 277.1L495 321.9L498.2 264L501.5 246.1L504.7 243.3L507.9 241.4L511.2 244.5L514.4 241.4L517.6 242.9L520.9 239.8L524.1 241.4L527.4 238.2L530.6 237.8L533.8 238.6L537.1 237.4L540.3 233.4L543.5 233.4L546.8 233.8L550 231.4L553.3 233.4L556.5 234.6L559.7 231.4L563 232.6L566.2 231L569.4 231.4L572.7 231.4L575.9 233.4L579.2 229.5L582.4 229.5L585.6 229.1L588.9 228.7L592.1 227.5L595.3 227.5L598.6 226.7L601.8 224.3L605.1 224.3L608.3 223.1L611.5 222.3L614.8 221.5L618 220.3L621.3 220.3L624.5 218.7L627.7 218.4L631 217.2L634.2 215.2L637.4 214L640.7 213.2L643.9 212L647.2 211.2L650.4 210L653.6 210L656.9 208.4L660.1 208.4L663.3 208L666.6 206.9L669.8 206.5L673.1 205.7L676.3 204.5L679.5 203.7L682.8 202.9L686 203.3L689.2 199.7L692.5 199.7L695.7 198.1L699 197.3L702.2 196.9L705.4 196.1L708.7 195.3L711.9 194.2L715.1 194.2L718.4 193.4L721.6 191.8L724.9 192.6L728.1 191.8L731.3 191.4L734.6 190.6L737.8 190.2L741.1 193L744.3 192.2"></path><path fill="none" stroke-linecap="butt" stroke-linejoin="round" stroke="#ffffff" stroke-width="2.5" id="outline__60%" d="M80.5 374.2L83.8 382.6L87 392.1L90.2 404.4L93.5 384.1L96.7 382.2L100 393.7L103.2 379L106.4 386.5L109.7 394.5L112.9 401.6L116.2 384.9L119.4 402L122.6 385.3L125.9 384.1L129.1 388.5L132.3 411.9L135.6 394.1L138.8 424.6L142.1 387.7L145.3 366.7L148.5 384.1L151.8 390.5L155 379.8L158.2 385.7L161.5 388.1L164.7 385.7L168 382.2L171.2 367.5L174.4 360L177.7 382.2L180.9 380.6L184.1 383.4L187.4 416.7L190.6 360.3L193.9 368.7L197.1 372.6L200.3 365.5L203.6 414.3L206.8 415.9L210 390.5L213.3 383.8L216.5 381L219.8 423.4L223 357.6L226.2 374.6L229.5 357.6L232.7 361.9L236 359.6L239.2 377L242.4 368.3L245.7 357.2L248.9 372.6L252.1 368.7L255.4 411.1L258.6 446.4L261.9 362.7L265.1 365.1L268.3 345.7L271.6 356L274.8 353.6L278 347.7L281.3 351.6L284.5 347.7L287.8 357.6L291 354.8L294.2 357.2L297.5 356L300.7 360L303.9 354.4L307.2 358L310.4 352L313.7 347.7L316.9 338.1L320.1 352.4L323.4 346.5L326.6 344.9L329.8 348.1L333.1 338.1L336.3 337.3L339.6 327.4L342.8 321.1L346 328.2L349.3 333.8L352.5 336.6L355.8 327L359 323.5L362.2 319.5L365.5 319.1L368.7 320.7L371.9 323.1L375.2 323.1L378.4 316.7L381.7 315.1L384.9 309.2L388.1 317.1L391.4 309.2L394.6 308.8L397.8 425L401.1 429.4L404.3 414.7L407.6 393.3L410.8 427L414 336.2L417.3 304.4L420.5 299.3L423.7 295.7L427 294.5L430.2 294.9L433.5 298.1L436.7 298.1L439.9 291.3L443.2 290.9L446.4 296.1L449.6 289L452.9 288.6L456.1 287L459.4 286.2L462.6 284.6L465.8 286.2L469.1 283.4L472.3 282.2L475.6 283L478.8 280.6L482 338.1L485.3 287.8L488.5 286.2L491.7 309.6L495 373L498.2 288.2L501.5 262.8L504.7 259.2L507.9 257.2L511.2 259.2L514.4 256.4L517.6 258L520.9 254.4L524.1 255.6L527.4 252.9L530.6 252.1L533.8 252.9L537.1 252.1L540.3 247.3L543.5 247.7L546.8 247.7L550 245.7L553.3 247.7L556.5 248.9L559.7 245.7L563 246.9L566.2 245.7L569.4 246.1L572.7 246.1L575.9 248.1L579.2 243.7L582.4 244.1L585.6 243.3L588.9 242.5L592.1 241.4L595.3 241.4L598.6 240.6L601.8 238.2L605.1 237.8L608.3 236.6L611.5 236.2L614.8 235.4L618 233.8L621.3 233.8L624.5 232.2L627.7 231.8L631 230.6L634.2 228.7L637.4 227.5L640.7 226.7L643.9 225.5L647.2 224.7L650.4 223.9L653.6 223.5L656.9 221.9L660.1 221.9L663.3 221.5L666.6 219.9L669.8 219.5L673.1 218.7L676.3 217.2L679.5 216.4L682.8 215.6L686 215.6L689.2 212.4L692.5 212L695.7 210.4L699 209.6L702.2 209.2L705.4 208.4L708.7 207.6L711.9 206.1L715.1 206.1L718.4 205.3L721.6 203.3L724.9 204.1L728.1 203.3L731.3 202.9L734.6 202.5L737.8 201.7L741.1 204.9L744.3 204.5"></path><path fill="none" stroke-linecap="butt" stroke-linejoin="round" stroke="#ff00b2" stroke-width="1.5" id="line__60%" d="M80.5 374.2L83.8 382.6L87 392.1L90.2 404.4L93.5 384.1L96.7 382.2L100 393.7L103.2 379L106.4 386.5L109.7 394.5L112.9 401.6L116.2 384.9L119.4 402L122.6 385.3L125.9 384.1L129.1 388.5L132.3 411.9L135.6 394.1L138.8 424.6L142.1 387.7L145.3 366.7L148.5 384.1L151.8 390.5L155 379.8L158.2 385.7L161.5 388.1L164.7 385.7L168 382.2L171.2 367.5L174.4 360L177.7 382.2L180.9 380.6L184.1 383.4L187.4 416.7L190.6 360.3L193.9 368.7L197.1 372.6L200.3 365.5L203.6 414.3L206.8 415.9L210 390.5L213.3 383.8L216.5 381L219.8 423.4L223 357.6L226.2 374.6L229.5 357.6L232.7 361.9L236 359.6L239.2 377L242.4 368.3L245.7 357.2L248.9 372.6L252.1 368.7L255.4 411.1L258.6 446.4L261.9 362.7L265.1 365.1L268.3 345.7L271.6 356L274.8 353.6L278 347.7L281.3 351.6L284.5 347.7L287.8 357.6L291 354.8L294.2 357.2L297.5 356L300.7 360L303.9 354.4L307.2 358L310.4 352L313.7 347.7L316.9 338.1L320.1 352.4L323.4 346.5L326.6 344.9L329.8 348.1L333.1 338.1L336.3 337.3L339.6 327.4L342.8 321.1L346 328.2L349.3 333.8L352.5 336.6L355.8 327L359 323.5L362.2 319.5L365.5 319.1L368.7 320.7L371.9 323.1L375.2 323.1L378.4 316.7L381.7 315.1L384.9 309.2L388.1 317.1L391.4 309.2L394.6 308.8L397.8 425L401.1 429.4L404.3 414.7L407.6 393.3L410.8 427L414 336.2L417.3 304.4L420.5 299.3L423.7 295.7L427 294.5L430.2 294.9L433.5 298.1L436.7 298.1L439.9 291.3L443.2 290.9L446.4 296.1L449.6 289L452.9 288.6L456.1 287L459.4 286.2L462.6 284.6L465.8 286.2L469.1 283.4L472.3 282.2L475.6 283L478.8 280.6L482 338.1L485.3 287.8L488.5 286.2L491.7 309.6L495 373L498.2 288.2L501.5 262.8L504.7 259.2L507.9 257.2L511.2 259.2L514.4 256.4L517.6 258L520.9 254.4L524.1 255.6L527.4 252.9L530.6 252.1L533.8 252.9L537.1 252.1L540.3 247.3L543.5 247.7L546.8 247.7L550 245.7L553.3 247.7L556.5 248.9L559.7 245.7L563 246.9L566.2 245.7L569.4 246.1L572.7 246.1L575.9 248.1L579.2 243.7L582.4 244.1L585.6 243.3L588.9 242.5L592.1 241.4L595.3 241.4L598.6 240.6L601.8 238.2L605.1 237.8L608.3 236.6L611.5 236.2L614.8 235.4L618 233.8L621.3 233.8L624.5 232.2L627.7 231.8L631 230.6L634.2 228.7L637.4 227.5L640.7 226.7L643.9 225.5L647.2 224.7L650.4 223.9L653.6 223.5L656.9 221.9L660.1 221.9L663.3 221.5L666.6 219.9L669.8 219.5L673.1 218.7L676.3 217.2L679.5 216.4L682.8 215.6L686 215.6L689.2 212.4L692.5 212L695.7 210.4L699 209.6L702.2 209.2L705.4 208.4L708.7 207.6L711.9 206.1L715.1 206.1L718.4 205.3L721.6 203.3L724.9 204.1L728.1 203.3L731.3 202.9L734.6 202.5L737.8 201.7L741.1 204.9L744.3 204.5"></path><path fill="none" stroke-linecap="butt" stroke-linejoin="round" stroke="#ffffff" stroke-width="2.5" id="outline__70%" d="M80.5 434.9L83.8 445.2L87 454.7L90.2 469.8L93.5 449.2L96.7 448.4L100 457.9L103.2 446.4L106.4 454L109.7 461.9L112.9 465.1L116.2 446.8L119.4 467.8L122.6 446L125.9 446L129.1 448.8L132.3 463.9L135.6 452.8L138.8 490.8L142.1 446L145.3 428.2L148.5 441.7L151.8 449.2L155 441.3L158.2 443.2L161.5 444.4L164.7 443.6L168 443.6L171.2 430.6L174.4 424.2L177.7 442.5L180.9 438.5L184.1 440.9L187.4 467.8L190.6 421.8L193.9 432.5L197.1 435.3L200.3 428.2L203.6 459.9L206.8 452.8L210 445.6L213.3 446.4L216.5 444.8L219.8 489.7L223 423.4L226.2 442.1L229.5 424.2L232.7 428.6L236 422.2L239.2 438.5L242.4 427L245.7 419.8L248.9 436.1L252.1 431L255.4 454L258.6 493.2L261.9 423.4L265.1 427L268.3 406L271.6 414.7L274.8 411.9L278 406.8L281.3 411.5L284.5 405.6L287.8 417.9L291 414.3L294.2 415.9L297.5 413.5L300.7 417.9L303.9 411.5L307.2 415.1L310.4 408.3L313.7 406.4L316.9 395.3L320.1 410.3L323.4 403.2L326.6 401.2L329.8 404L333.1 391.7L336.3 390.5L339.6 378.2L342.8 372.6L346 381.4L349.3 387.7L352.5 386.9L355.8 376.2L359 371.9L362.2 367.9L365.5 367.9L368.7 366.3L371.9 369.5L375.2 366.7L378.4 360.3L381.7 356L384.9 350L388.1 362.7L391.4 349.2L394.6 349.6L397.8 441.7L401.1 443.2L404.3 435.3L407.6 426.6L410.8 443.6L414 391.7L417.3 348.5L420.5 337.7L423.7 329.4L427 329.8L430.2 328.2L433.5 332.6L436.7 333.8L439.9 324.7L443.2 324.3L446.4 329.8L449.6 320.7L452.9 319.1L456.1 316.7L459.4 315.1L462.6 313.1L465.8 313.9L469.1 311.2L472.3 310L475.6 310.8L478.8 306.8L482 393.7L485.3 316.7L488.5 316.3L491.7 363.1L495 417.1L498.2 325.8L501.5 285.4L504.7 280.6L507.9 277.5L511.2 279L514.4 275.9L517.6 277.1L520.9 273.1L524.1 274.3L527.4 271.5L530.6 270.7L533.8 271.1L537.1 270.3L540.3 265.2L543.5 265.6L546.8 265.6L550 264L553.3 265.9L556.5 266.7L559.7 263.6L563 264.8L566.2 263.6L569.4 263.6L572.7 263.2L575.9 264.8L579.2 261.2L582.4 261.2L585.6 260.8L588.9 259.6L592.1 258.8L595.3 258.4L598.6 257.6L601.8 255.2L605.1 254.8L608.3 254.1L611.5 253.3L614.8 252.5L618 251.3L621.3 250.9L624.5 249.7L627.7 248.9L631 248.1L634.2 246.1L637.4 244.9L640.7 244.1L643.9 242.5L647.2 242.2L650.4 241L653.6 241L656.9 239.4L660.1 239L663.3 238.6L666.6 237L669.8 236.2L673.1 235L676.3 233.8L679.5 233L682.8 232.2L686 231.8L689.2 228.3L692.5 227.9L695.7 226.7L699 225.1L702.2 224.7L705.4 223.9L708.7 223.1L711.9 221.5L715.1 221.5L718.4 220.7L721.6 218.7L724.9 219.9L728.1 219.1L731.3 218.7L734.6 218.4L737.8 217.6L741.1 220.3L744.3 220.3"></path><path fill="none" stroke-linecap="butt" stroke-linejoin="round" stroke="#ff1a99" stroke-width="1.5" id="line__70%" d="M80.5 434.9L83.8 445.2L87 454.7L90.2 469.8L93.5 449.2L96.7 448.4L100 457.9L103.2 446.4L106.4 454L109.7 461.9L112.9 465.1L116.2 446.8L119.4 467.8L122.6 446L125.9 446L129.1 448.8L132.3 463.9L135.6 452.8L138.8 490.8L142.1 446L145.3 428.2L148.5 441.7L151.8 449.2L155 441.3L158.2 443.2L161.5 444.4L164.7 443.6L168 443.6L171.2 430.6L174.4 424.2L177.7 442.5L180.9 438.5L184.1 440.9L187.4 467.8L190.6 421.8L193.9 432.5L197.1 435.3L200.3 428.2L203.6 459.9L206.8 452.8L210 445.6L213.3 446.4L216.5 444.8L219.8 489.7L223 423.4L226.2 442.1L229.5 424.2L232.7 428.6L236 422.2L239.2 438.5L242.4 427L245.7 419.8L248.9 436.1L252.1 431L255.4 454L258.6 493.2L261.9 423.4L265.1 427L268.3 406L271.6 414.7L274.8 411.9L278 406.8L281.3 411.5L284.5 405.6L287.8 417.9L291 414.3L294.2 415.9L297.5 413.5L300.7 417.9L303.9 411.5L307.2 415.1L310.4 408.3L313.7 406.4L316.9 395.3L320.1 410.3L323.4 403.2L326.6 401.2L329.8 404L333.1 391.7L336.3 390.5L339.6 378.2L342.8 372.6L346 381.4L349.3 387.7L352.5 386.9L355.8 376.2L359 371.9L362.2 367.9L365.5 367.9L368.7 366.3L371.9 369.5L375.2 366.7L378.4 360.3L381.7 356L384.9 350L388.1 362.7L391.4 349.2L394.6 349.6L397.8 441.7L401.1 443.2L404.3 435.3L407.6 426.6L410.8 443.6L414 391.7L417.3 348.5L420.5 337.7L423.7 329.4L427 329.8L430.2 328.2L433.5 332.6L436.7 333.8L439.9 324.7L443.2 324.3L446.4 329.8L449.6 320.7L452.9 319.1L456.1 316.7L459.4 315.1L462.6 313.1L465.8 313.9L469.1 311.2L472.3 310L475.6 310.8L478.8 306.8L482 393.7L485.3 316.7L488.5 316.3L491.7 363.1L495 417.1L498.2 325.8L501.5 285.4L504.7 280.6L507.9 277.5L511.2 279L514.4 275.9L517.6 277.1L520.9 273.1L524.1 274.3L527.4 271.5L530.6 270.7L533.8 271.1L537.1 270.3L540.3 265.2L543.5 265.6L546.8 265.6L550 264L553.3 265.9L556.5 266.7L559.7 263.6L563 264.8L566.2 263.6L569.4 263.6L572.7 263.2L575.9 264.8L579.2 261.2L582.4 261.2L585.6 260.8L588.9 259.6L592.1 258.8L595.3 258.4L598.6 257.6L601.8 255.2L605.1 254.8L608.3 254.1L611.5 253.3L614.8 252.5L618 251.3L621.3 250.9L624.5 249.7L627.7 248.9L631 248.1L634.2 246.1L637.4 244.9L640.7 244.1L643.9 242.5L647.2 242.2L650.4 241L653.6 241L656.9 239.4L660.1 239L663.3 238.6L666.6 237L669.8 236.2L673.1 235L676.3 233.8L679.5 233L682.8 232.2L686 231.8L689.2 228.3L692.5 227.9L695.7 226.7L699 225.1L702.2 224.7L705.4 223.9L708.7 223.1L711.9 221.5L715.1 221.5L718.4 220.7L721.6 218.7L724.9 219.9L728.1 219.1L731.3 218.7L734.6 218.4L737.8 217.6L741.1 220.3L744.3 220.3"></path><path fill="none" stroke-linecap="butt" stroke-linejoin="round" stroke="#ffffff" stroke-width="2.5" id="outline__80%" d="M80.5 505.9L83.8 512.3L87 515.4L90.2 518.6L93.5 513.5L96.7 513.8L100 517L103.2 513.5L106.4 517L109.7 517.8L112.9 517L116.2 511.9L119.4 519L122.6 513.1L125.9 513.1L129.1 513.8L132.3 516.2L135.6 514.2L138.8 521.4L142.1 511.5L145.3 503.5L148.5 510.7L151.8 515L155 510.3L158.2 508.3L161.5 509.9L164.7 509.5L168 511.5L171.2 502.3L174.4 496L177.7 510.3L180.9 505.1L184.1 508.7L187.4 518.2L190.6 496L193.9 506.7L197.1 507.5L200.3 496.4L203.6 517L206.8 513.5L210 509.5L213.3 511.9L216.5 512.3L219.8 521.8L223 498L226.2 513.8L229.5 500.4L232.7 507.5L236 500L239.2 511.9L242.4 500.4L245.7 499.6L248.9 512.3L252.1 507.5L255.4 515.8L258.6 521.4L261.9 495.2L265.1 501.6L268.3 472.2L271.6 484.1L274.8 475.8L278 472.2L281.3 481.3L284.5 469.4L287.8 492.4L291 484.1L294.2 486.9L297.5 483.7L300.7 493.6L303.9 480.9L307.2 485.3L310.4 477L313.7 474.2L316.9 461.5L320.1 484.9L323.4 468.6L326.6 469L329.8 472.6L333.1 457.5L336.3 453.6L339.6 442.5L342.8 439.7L346 448.4L349.3 454L352.5 449.2L355.8 440.9L359 436.1L362.2 432.9L365.5 433.7L368.7 429.4L371.9 433.7L375.2 427.4L378.4 422.2L381.7 415.9L384.9 410.3L388.1 428.6L391.4 409.5L394.6 411.1L397.8 454.4L401.1 454L404.3 450.4L407.6 450.4L410.8 466.3L414 439.3L417.3 416.7L420.5 400L423.7 383.4L427 386.9L430.2 381.4L433.5 387.7L436.7 390.1L439.9 379L443.2 380.2L446.4 384.1L449.6 370.3L452.9 368.3L456.1 364.7L459.4 360.7L462.6 358.4L465.8 357.2L469.1 354L472.3 352.8L475.6 353.2L478.8 346.9L482 431L485.3 359.6L488.5 366.7L491.7 423.4L495 436.5L498.2 393.7L501.5 321.9L504.7 313.5L507.9 308L511.2 308.4L514.4 304.4L517.6 305.2L520.9 300.5L524.1 300.9L527.4 298.1L530.6 296.9L533.8 296.9L537.1 295.7L540.3 290.1L543.5 290.5L546.8 289.7L550 288.2L553.3 289.7L556.5 290.1L559.7 287.4L563 288.2L566.2 287L569.4 287L572.7 286.6L575.9 287.8L579.2 284.6L582.4 284.6L585.6 284.6L588.9 283.4L592.1 282.6L595.3 282.2L598.6 281.8L601.8 279.8L605.1 279.4L608.3 278.6L611.5 277.8L614.8 277.1L618 275.9L621.3 275.5L624.5 274.3L627.7 273.5L631 272.7L634.2 270.3L637.4 269.5L640.7 269.1L643.9 267.1L647.2 266.7L650.4 265.9L653.6 265.6L656.9 264.4L660.1 263.6L663.3 262.4L666.6 260.8L669.8 259.6L673.1 258.4L676.3 257.2L679.5 256.4L682.8 255.6L686 254.8L689.2 251.7L692.5 251.3L695.7 250.1L699 248.9L702.2 248.1L705.4 247.7L708.7 246.9L711.9 245.3L715.1 244.9L718.4 244.1L721.6 242.5L724.9 243.3L728.1 242.5L731.3 242.2L734.6 241.8L737.8 241L741.1 242.5L744.3 242.9"></path><path fill="none" stroke-linecap="butt" stroke-linejoin="round" stroke="#ff337a" stroke-width="1.5" id="line__80%" d="M80.5 505.9L83.8 512.3L87 515.4L90.2 518.6L93.5 513.5L96.7 513.8L100 517L103.2 513.5L106.4 517L109.7 517.8L112.9 517L116.2 511.9L119.4 519L122.6 513.1L125.9 513.1L129.1 513.8L132.3 516.2L135.6 514.2L138.8 521.4L142.1 511.5L145.3 503.5L148.5 510.7L151.8 515L155 510.3L158.2 508.3L161.5 509.9L164.7 509.5L168 511.5L171.2 502.3L174.4 496L177.7 510.3L180.9 505.1L184.1 508.7L187.4 518.2L190.6 496L193.9 506.7L197.1 507.5L200.3 496.4L203.6 517L206.8 513.5L210 509.5L213.3 511.9L216.5 512.3L219.8 521.8L223 498L226.2 513.8L229.5 500.4L232.7 507.5L236 500L239.2 511.9L242.4 500.4L245.7 499.6L248.9 512.3L252.1 507.5L255.4 515.8L258.6 521.4L261.9 495.2L265.1 501.6L268.3 472.2L271.6 484.1L274.8 475.8L278 472.2L281.3 481.3L284.5 469.4L287.8 492.4L291 484.1L294.2 486.9L297.5 483.7L300.7 493.6L303.9 480.9L307.2 485.3L310.4 477L313.7 474.2L316.9 461.5L320.1 484.9L323.4 468.6L326.6 469L329.8 472.6L333.1 457.5L336.3 453.6L339.6 442.5L342.8 439.7L346 448.4L349.3 454L352.5 449.2L355.8 440.9L359 436.1L362.2 432.9L365.5 433.7L368.7 429.4L371.9 433.7L375.2 427.4L378.4 422.2L381.7 415.9L384.9 410.3L388.1 428.6L391.4 409.5L394.6 411.1L397.8 454.4L401.1 454L404.3 450.4L407.6 450.4L410.8 466.3L414 439.3L417.3 416.7L420.5 400L423.7 383.4L427 386.9L430.2 381.4L433.5 387.7L436.7 390.1L439.9 379L443.2 380.2L446.4 384.1L449.6 370.3L452.9 368.3L456.1 364.7L459.4 360.7L462.6 358.4L465.8 357.2L469.1 354L472.3 352.8L475.6 353.2L478.8 346.9L482 431L485.3 359.6L488.5 366.7L491.7 423.4L495 436.5L498.2 393.7L501.5 321.9L504.7 313.5L507.9 308L511.2 308.4L514.4 304.4L517.6 305.2L520.9 300.5L524.1 300.9L527.4 298.1L530.6 296.9L533.8 296.9L537.1 295.7L540.3 290.1L543.5 290.5L546.8 289.7L550 288.2L553.3 289.7L556.5 290.1L559.7 287.4L563 288.2L566.2 287L569.4 287L572.7 286.6L575.9 287.8L579.2 284.6L582.4 284.6L585.6 284.6L588.9 283.4L592.1 282.6L595.3 282.2L598.6 281.8L601.8 279.8L605.1 279.4L608.3 278.6L611.5 277.8L614.8 277.1L618 275.9L621.3 275.5L624.5 274.3L627.7 273.5L631 272.7L634.2 270.3L637.4 269.5L640.7 269.1L643.9 267.1L647.2 266.7L650.4 265.9L653.6 265.6L656.9 264.4L660.1 263.6L663.3 262.4L666.6 260.8L669.8 259.6L673.1 258.4L676.3 257.2L679.5 256.4L682.8 255.6L686 254.8L689.2 251.7L692.5 251.3L695.7 250.1L699 248.9L702.2 248.1L705.4 247.7L708.7 246.9L711.9 245.3L715.1 244.9L718.4 244.1L721.6 242.5L724.9 243.3L728.1 242.5L731.3 242.2L734.6 241.8L737.8 241L741.1 242.5L744.3 242.9"></path><path fill="none" stroke-linecap="butt" stroke-linejoin="round" stroke="#ffffff" stroke-width="2.5" id="outline__90%" d="M80.5 527.3L83.8 527.7L87 528.1L90.2 528.5L93.5 527.7L96.7 527.7L100 528.5L103.2 528.1L106.4 528.1L109.7 528.1L112.9 528.1L116.2 527.7L119.4 528.5L122.6 527.7L125.9 527.7L129.1 527.7L132.3 528.1L135.6 527.7L138.8 528.9L142.1 527.7L145.3 526.9L148.5 527.3L151.8 527.7L155 527.3L158.2 526.9L161.5 526.9L164.7 527.3L168 527.3L171.2 526.5L174.4 525.7L177.7 527.3L180.9 526.9L184.1 527.3L187.4 528.1L190.6 526.1L193.9 526.9L197.1 526.9L200.3 526.1L203.6 528.1L206.8 527.7L210 527.3L213.3 527.7L216.5 527.7L219.8 528.9L223 526.1L226.2 527.7L229.5 526.9L232.7 527.7L236 527.3L239.2 527.7L242.4 526.5L245.7 527.3L248.9 528.1L252.1 527.7L255.4 528.1L258.6 528.5L261.9 526.9L265.1 527.7L268.3 525.7L271.6 526.5L274.8 525.7L278 525.7L281.3 526.9L284.5 525.7L287.8 527.3L291 526.1L294.2 526.5L297.5 526.5L300.7 527.3L303.9 526.9L307.2 526.9L310.4 526.1L313.7 527.3L316.9 526.5L320.1 527.3L323.4 526.5L326.6 527.7L329.8 527.7L333.1 526.5L336.3 526.9L339.6 524.2L342.8 523.8L346 526.1L349.3 526.5L352.5 525.4L355.8 523L359 522.2L362.2 521.4L365.5 522.6L368.7 520.6L371.9 522.6L375.2 519.4L378.4 518.6L381.7 513.8L384.9 510.3L388.1 524.2L391.4 508.7L394.6 512.3L397.8 502.7L401.1 514.2L404.3 513.1L407.6 523.8L410.8 525.7L414 521L417.3 514.6L420.5 492.4L423.7 459.5L427 470.6L430.2 459.5L433.5 468.2L436.7 472.2L439.9 460.3L443.2 464.7L446.4 466.3L449.6 451.6L452.9 449.2L456.1 448L459.4 442.5L462.6 439.7L465.8 434.9L469.1 432.5L472.3 431.3L475.6 429.8L478.8 422.2L482 452.8L485.3 434.5L488.5 442.8L491.7 453.6L495 463.9L498.2 456.7L501.5 410.7L504.7 387.3L507.9 367.9L511.2 366.7L514.4 356.4L517.6 355.6L520.9 348.1L524.1 345.3L527.4 342.5L530.6 340.5L533.8 338.9L537.1 338.1L540.3 331.4L543.5 331.8L546.8 329.4L550 328.6L553.3 329.4L556.5 329.4L559.7 327L563 327.8L566.2 327L569.4 326.6L572.7 326.6L575.9 327.8L579.2 325L582.4 325.8L585.6 325.8L588.9 324.3L592.1 322.7L595.3 322.7L598.6 322.3L601.8 320.7L605.1 319.5L608.3 319.1L611.5 318.7L614.8 317.1L618 316.3L621.3 315.9L624.5 314.3L627.7 313.1L631 312.4L634.2 310.4L637.4 309.6L640.7 309.2L643.9 308L647.2 307.6L650.4 306.8L653.6 306.4L656.9 305.6L660.1 304.4L663.3 302.8L666.6 300.5L669.8 299.3L673.1 298.9L676.3 297.7L679.5 297.3L682.8 296.5L686 296.1L689.2 292.9L692.5 292.1L695.7 290.9L699 289.7L702.2 289L705.4 289.4L708.7 287.8L711.9 286.6L715.1 285.4L718.4 284.2L721.6 282.2L724.9 282.6L728.1 281.4L731.3 281L734.6 280.2L737.8 279L741.1 279.4L744.3 279.4"></path><path fill="none" stroke-linecap="butt" stroke-linejoin="round" stroke="#ff4d4d" stroke-width="1.5" id="line__90%" d="M80.5 527.3L83.8 527.7L87 528.1L90.2 528.5L93.5 527.7L96.7 527.7L100 528.5L103.2 528.1L106.4 528.1L109.7 528.1L112.9 528.1L116.2 527.7L119.4 528.5L122.6 527.7L125.9 527.7L129.1 527.7L132.3 528.1L135.6 527.7L138.8 528.9L142.1 527.7L145.3 526.9L148.5 527.3L151.8 527.7L155 527.3L158.2 526.9L161.5 526.9L164.7 527.3L168 527.3L171.2 526.5L174.4 525.7L177.7 527.3L180.9 526.9L184.1 527.3L187.4 528.1L190.6 526.1L193.9 526.9L197.1 526.9L200.3 526.1L203.6 528.1L206.8 527.7L210 527.3L213.3 527.7L216.5 527.7L219.8 528.9L223 526.1L226.2 527.7L229.5 526.9L232.7 527.7L236 527.3L239.2 527.7L242.4 526.5L245.7 527.3L248.9 528.1L252.1 527.7L255.4 528.1L258.6 528.5L261.9 526.9L265.1 527.7L268.3 525.7L271.6 526.5L274.8 525.7L278 525.7L281.3 526.9L284.5 525.7L287.8 527.3L291 526.1L294.2 526.5L297.5 526.5L300.7 527.3L303.9 526.9L307.2 526.9L310.4 526.1L313.7 527.3L316.9 526.5L320.1 527.3L323.4 526.5L326.6 527.7L329.8 527.7L333.1 526.5L336.3 526.9L339.6 524.2L342.8 523.8L346 526.1L349.3 526.5L352.5 525.4L355.8 523L359 522.2L362.2 521.4L365.5 522.6L368.7 520.6L371.9 522.6L375.2 519.4L378.4 518.6L381.7 513.8L384.9 510.3L388.1 524.2L391.4 508.7L394.6 512.3L397.8 502.7L401.1 514.2L404.3 513.1L407.6 523.8L410.8 525.7L414 521L417.3 514.6L420.5 492.4L423.7 459.5L427 470.6L430.2 459.5L433.5 468.2L436.7 472.2L439.9 460.3L443.2 464.7L446.4 466.3L449.6 451.6L452.9 449.2L456.1 448L459.4 442.5L462.6 439.7L465.8 434.9L469.1 432.5L472.3 431.3L475.6 429.8L478.8 422.2L482 452.8L485.3 434.5L488.5 442.8L491.7 453.6L495 463.9L498.2 456.7L501.5 410.7L504.7 387.3L507.9 367.9L511.2 366.7L514.4 356.4L517.6 355.6L520.9 348.1L524.1 345.3L527.4 342.5L530.6 340.5L533.8 338.9L537.1 338.1L540.3 331.4L543.5 331.8L546.8 329.4L550 328.6L553.3 329.4L556.5 329.4L559.7 327L563 327.8L566.2 327L569.4 326.6L572.7 326.6L575.9 327.8L579.2 325L582.4 325.8L585.6 325.8L588.9 324.3L592.1 322.7L595.3 322.7L598.6 322.3L601.8 320.7L605.1 319.5L608.3 319.1L611.5 318.7L614.8 317.1L618 316.3L621.3 315.9L624.5 314.3L627.7 313.1L631 312.4L634.2 310.4L637.4 309.6L640.7 309.2L643.9 308L647.2 307.6L650.4 306.8L653.6 306.4L656.9 305.6L660.1 304.4L663.3 302.8L666.6 300.5L669.8 299.3L673.1 298.9L676.3 297.7L679.5 297.3L682.8 296.5L686 296.1L689.2 292.9L692.5 292.1L695.7 290.9L699 289.7L702.2 289L705.4 289.4L708.7 287.8L711.9 286.6L715.1 285.4L718.4 284.2L721.6 282.2L724.9 282.6L728.1 281.4L731.3 281L734.6 280.2L737.8 279L741.1 279.4L744.3 279.4"></path><path fill="none" stroke-linecap="butt" stroke-linejoin="round" stroke="#ffffff" stroke-width="2.5" id="outline__99%" d="M80.5 530.9L83.8 530.9L87 530.9L90.2 530.9L93.5 530.9L96.7 530.9L100 530.9L103.2 530.9L106.4 530.9L109.7 530.9L112.9 530.9L116.2 530.9L119.4 530.9L122.6 530.9L125.9 530.9L129.1 530.9L132.3 530.9L135.6 530.9L138.8 530.9L142.1 530.9L145.3 530.9L148.5 530.9L151.8 530.9L155 530.9L158.2 530.9L161.5 530.9L164.7 530.9L168 530.9L171.2 530.9L174.4 530.9L177.7 530.9L180.9 530.9L184.1 530.9L187.4 530.9L190.6 530.9L193.9 530.9L197.1 530.9L200.3 530.9L203.6 530.9L206.8 530.9L210 530.9L213.3 530.9L216.5 530.9L219.8 530.9L223 530.9L226.2 530.9L229.5 530.9L232.7 530.9L236 530.9L239.2 530.9L242.4 530.9L245.7 530.9L248.9 530.9L252.1 530.9L255.4 530.9L258.6 530.9L261.9 530.9L265.1 530.9L268.3 530.9L271.6 530.9L274.8 530.9L278 530.9L281.3 530.9L284.5 530.9L287.8 530.9L291 530.9L294.2 530.9L297.5 530.9L300.7 530.9L303.9 530.9L307.2 530.9L310.4 530.9L313.7 530.9L316.9 530.9L320.1 530.9L323.4 530.9L326.6 530.9L329.8 530.9L333.1 530.9L336.3 530.9L339.6 530.9L342.8 530.9L346 530.9L349.3 530.9L352.5 530.9L355.8 530.9L359 530.9L362.2 530.9L365.5 530.9L368.7 530.9L371.9 530.9L375.2 530.9L378.4 530.9L381.7 530.9L384.9 530.9L388.1 530.9L391.4 530.9L394.6 530.9L397.8 530.9L401.1 530.9L404.3 530.9L407.6 530.9L410.8 530.9L414 530.9L417.3 530.9L420.5 530.9L423.7 530.9L427 530.9L430.2 530.9L433.5 530.9L436.7 530.9L439.9 530.9L443.2 530.9L446.4 530.9L449.6 530.9L452.9 530.9L456.1 530.9L459.4 530.9L462.6 530.5L465.8 530.5L469.1 530.5L472.3 530.5L475.6 530.5L478.8 530.5L482 530.9L485.3 530.9L488.5 530.9L491.7 530.9L495 530.9L498.2 530.9L501.5 530.9L504.7 530.5L507.9 530.5L511.2 530.5L514.4 530.5L517.6 530.5L520.9 530.1L524.1 530.1L527.4 530.1L530.6 530.1L533.8 529.7L537.1 529.7L540.3 529.3L543.5 529.3L546.8 528.9L550 528.5L553.3 528.5L556.5 528.5L559.7 527.3L563 522.2L566.2 522.2L569.4 519.4L572.7 518.6L575.9 517L579.2 511.5L582.4 508.7L585.6 501.2L588.9 498.8L592.1 492.4L595.3 483.3L598.6 476.2L601.8 475L605.1 470.2L608.3 467L611.5 468.2L614.8 465.5L618 462.7L621.3 461.9L624.5 458.7L627.7 457.5L631 456.3L634.2 453.2L637.4 453.2L640.7 452.4L643.9 450L647.2 450.4L650.4 447.2L653.6 446.8L656.9 444L660.1 441.7L663.3 439.3L666.6 438.1L669.8 436.1L673.1 435.7L676.3 433.7L679.5 434.1L682.8 430.6L686 426.2L689.2 421.8L692.5 420.2L695.7 417.5L699 416.3L702.2 415.1L705.4 415.1L708.7 411.9L711.9 410.3L715.1 407.2L718.4 404.8L721.6 402.4L724.9 404.4L728.1 402L731.3 401.2L734.6 400.8L737.8 401.2L741.1 398L744.3 400"></path><path fill="none" stroke-linecap="butt" stroke-linejoin="round" stroke="#ff6666" stroke-width="1.5" id="line__99%" d="M80.5 530.9L83.8 530.9L87 530.9L90.2 530.9L93.5 530.9L96.7 530.9L100 530.9L103.2 530.9L106.4 530.9L109.7 530.9L112.9 530.9L116.2 530.9L119.4 530.9L122.6 530.9L125.9 530.9L129.1 530.9L132.3 530.9L135.6 530.9L138.8 530.9L142.1 530.9L145.3 530.9L148.5 530.9L151.8 530.9L155 530.9L158.2 530.9L161.5 530.9L164.7 530.9L168 530.9L171.2 530.9L174.4 530.9L177.7 530.9L180.9 530.9L184.1 530.9L187.4 530.9L190.6 530.9L193.9 530.9L197.1 530.9L200.3 530.9L203.6 530.9L206.8 530.9L210 530.9L213.3 530.9L216.5 530.9L219.8 530.9L223 530.9L226.2 530.9L229.5 530.9L232.7 530.9L236 530.9L239.2 530.9L242.4 530.9L245.7 530.9L248.9 530.9L252.1 530.9L255.4 530.9L258.6 530.9L261.9 530.9L265.1 530.9L268.3 530.9L271.6 530.9L274.8 530.9L278 530.9L281.3 530.9L284.5 530.9L287.8 530.9L291 530.9L294.2 530.9L297.5 530.9L300.7 530.9L303.9 530.9L307.2 530.9L310.4 530.9L313.7 530.9L316.9 530.9L320.1 530.9L323.4 530.9L326.6 530.9L329.8 530.9L333.1 530.9L336.3 530.9L339.6 530.9L342.8 530.9L346 530.9L349.3 530.9L352.5 530.9L355.8 530.9L359 530.9L362.2 530.9L365.5 530.9L368.7 530.9L371.9 530.9L375.2 530.9L378.4 530.9L381.7 530.9L384.9 530.9L388.1 530.9L391.4 530.9L394.6 530.9L397.8 530.9L401.1 530.9L404.3 530.9L407.6 530.9L410.8 530.9L414 530.9L417.3 530.9L420.5 530.9L423.7 530.9L427 530.9L430.2 530.9L433.5 530.9L436.7 530.9L439.9 530.9L443.2 530.9L446.4 530.9L449.6 530.9L452.9 530.9L456.1 530.9L459.4 530.9L462.6 530.5L465.8 530.5L469.1 530.5L472.3 530.5L475.6 530.5L478.8 530.5L482 530.9L485.3 530.9L488.5 530.9L491.7 530.9L495 530.9L498.2 530.9L501.5 530.9L504.7 530.5L507.9 530.5L511.2 530.5L514.4 530.5L517.6 530.5L520.9 530.1L524.1 530.1L527.4 530.1L530.6 530.1L533.8 529.7L537.1 529.7L540.3 529.3L543.5 529.3L546.8 528.9L550 528.5L553.3 528.5L556.5 528.5L559.7 527.3L563 522.2L566.2 522.2L569.4 519.4L572.7 518.6L575.9 517L579.2 511.5L582.4 508.7L585.6 501.2L588.9 498.8L592.1 492.4L595.3 483.3L598.6 476.2L601.8 475L605.1 470.2L608.3 467L611.5 468.2L614.8 465.5L618 462.7L621.3 461.9L624.5 458.7L627.7 457.5L631 456.3L634.2 453.2L637.4 453.2L640.7 452.4L643.9 450L647.2 450.4L650.4 447.2L653.6 446.8L656.9 444L660.1 441.7L663.3 439.3L666.6 438.1L669.8 436.1L673.1 435.7L676.3 433.7L679.5 434.1L682.8 430.6L686 426.2L689.2 421.8L692.5 420.2L695.7 417.5L699 416.3L702.2 415.1L705.4 415.1L708.7 411.9L711.9 410.3L715.1 407.2L718.4 404.8L721.6 402.4L724.9 404.4L728.1 402L731.3 401.2L734.6 400.8L737.8 401.2L741.1 398L744.3 400"></path></g><g id="markers"></g></g><g id="footer" class="SourcesFooter" style="fill:#5b5b5b"><g id="sources" class="markdown-text-wrap"><text x="16.0" y="580.9" style="font-size:13.5px;line-height:1.2"><tspan x="16" y="580.9"><tspan style="font-weight:700">Data source:</tspan> Alvarez &amp; Vaupel (2023); Human Mortality Database (2023)</tspan></text></g><text id="origin-url" font-size="13.50" x="567.2" y="580.9"><tspan x="567.24" y="580.895"><a target="_blank" style="fill: #5b5b5b;" href="https://ourworldindata.org/life-expectancy">OurWorldinData.org/life-expectancy</a> | <a target="_blank" style="fill: #5b5b5b;" href="https://creativecommons.org/licenses/by/4.0/">CC BY</a></tspan></text></g></svg>