<svg xmlns="http://www.w3.org/2000/svg" version="1.1" style="font-family:Lato, &#x27;Helvetica Neue&#x27;, Helvetica, Arial, &#x27;Liberation Sans&#x27;, sans-serif;font-size:18px;background-color:#ffffff;text-rendering:geometricPrecision;-webkit-font-smoothing:antialiased" width="850" height="600" viewBox="0 0 850 600"><defs><style>@import url(https://ourworldindata.org/fonts.css)</style></defs><defs><pattern id="noDataPattern" patternUnits="userSpaceOnUse" width="4" height="4" patternTransform="rotate(-45 2 2)"><path d="M -1,2 l 6,0" stroke="#ccc" stroke-width="0.7"></path></pattern></defs><rect class="background-fill" fill="#ffffff" width="850" height="600"></rect><g id="header" class="HeaderView"><g id="logo" transform="translate(769, 16) scale(1)"><svg className="owidLogo" xmlns="http://www.w3.org/2000/svg" width="65" height="36" viewBox="0 0 65 36"  fill="none"><path fill="#002147" d="M0 0h64.8v36H0z"/><path fill="#CE261E" d="M0 33.3h64.8V36H0z"/><path fill="#fff" d="M13.796 10.575c0 .636-.106 1.226-.318 1.77a4.193 4.193 0 0 1-.894 1.404 4.084 4.084 0 0 1-1.386.93c-.54.22-1.138.33-1.794.33-.656 0-1.256-.11-1.8-.33a4.149 4.149 0 0 1-1.392-.93 4.193 4.193 0 0 1-.894-1.404A4.833 4.833 0 0 1 5 10.575c0-.636.106-1.224.318-1.764a4.18 4.18 0 0 1 .894-1.41 4.076 4.076 0 0 1 1.392-.924 4.684 4.684 0 0 1 1.8-.336c.656 0 1.254.112 1.794.336.54.224 1.002.534 1.386.93.384.392.682.86.894 1.404.212.54.318 1.128.318 1.764Zm-1.656 0c0-.476-.064-.902-.192-1.278a2.671 2.671 0 0 0-.54-.966 2.332 2.332 0 0 0-.864-.606 2.94 2.94 0 0 0-1.14-.21c-.424 0-.806.07-1.146.21-.34.14-.63.342-.87.606a2.742 2.742 0 0 0-.546.966 3.955 3.955 0 0 0-.192 1.278c0 .476.064.904.192 1.284.128.376.31.696.546.96.24.26.53.46.87.6.34.14.722.21 1.146.21.424 0 .804-.07 1.14-.21.34-.14.628-.34.864-.6.236-.264.416-.584.54-.96a4.01 4.01 0 0 0 .192-1.284ZM16.104 8.757v3.912c0 .376.086.668.258.876.176.204.438.306.786.306.256 0 .496-.056.72-.168a2.58 2.58 0 0 0 .636-.474V8.757h1.482v6.156h-.906c-.192 0-.318-.09-.378-.27l-.102-.492a4.65 4.65 0 0 1-.396.354 2.577 2.577 0 0 1-.438.27 2.35 2.35 0 0 1-.498.168 2.345 2.345 0 0 1-.57.066c-.336 0-.634-.056-.894-.168a1.821 1.821 0 0 1-.648-.486 2.157 2.157 0 0 1-.402-.738 3.233 3.233 0 0 1-.132-.948V8.757h1.482ZM21.328 14.913V8.757h.87c.152 0 .258.028.318.084.06.056.1.152.12.288l.09.744c.22-.38.478-.68.774-.9.296-.22.628-.33.996-.33.304 0 .556.07.756.21l-.192 1.11c-.012.072-.038.124-.078.156a.278.278 0 0 1-.162.042 1.01 1.01 0 0 1-.246-.042 1.646 1.646 0 0 0-.414-.042c-.308 0-.572.086-.792.258-.22.168-.406.416-.558.744v3.834h-1.482ZM27.347 6.237h1.356a.57.57 0 0 1 .348.102c.096.064.16.152.192.264l1.476 5.19c.036.128.068.268.096.42.032.148.062.306.09.474a5.968 5.968 0 0 1 .228-.894l1.704-5.19a.575.575 0 0 1 .186-.252.543.543 0 0 1 .348-.114h.474a.57.57 0 0 1 .348.102.497.497 0 0 1 .192.264l1.692 5.19c.088.256.164.54.228.852.028-.156.056-.306.084-.45.032-.144.064-.278.096-.402l1.476-5.19c.028-.1.09-.186.186-.258a.563.563 0 0 1 .348-.108h1.266l-2.694 8.676h-1.458l-1.896-5.928-.078-.246a9.504 9.504 0 0 1-.072-.282c-.024.1-.05.194-.078.282-.024.088-.048.17-.072.246l-1.914 5.928H30.04l-2.694-8.676ZM42.771 8.661c.46 0 .876.074 1.248.222.376.148.696.358.96.63s.468.604.612.996c.144.392.216.83.216 1.314 0 .488-.072.928-.216 1.32a2.85 2.85 0 0 1-.612 1.002 2.653 2.653 0 0 1-.96.636 3.35 3.35 0 0 1-1.248.222c-.46 0-.878-.074-1.254-.222a2.712 2.712 0 0 1-.966-.636 2.922 2.922 0 0 1-.618-1.002 3.807 3.807 0 0 1-.216-1.32c0-.484.072-.922.216-1.314.148-.392.354-.724.618-.996.268-.272.59-.482.966-.63a3.397 3.397 0 0 1 1.254-.222Zm0 5.202c.512 0 .89-.172 1.134-.516.248-.344.372-.848.372-1.512s-.124-1.17-.372-1.518c-.244-.348-.622-.522-1.134-.522-.52 0-.904.176-1.152.528-.248.348-.372.852-.372 1.512s.124 1.164.372 1.512c.248.344.632.516 1.152.516ZM46.723 14.913V8.757h.87c.152 0 .258.028.318.084.06.056.1.152.12.288l.09.744c.22-.38.478-.68.774-.9.296-.22.628-.33.996-.33.304 0 .556.07.756.21l-.192 1.11c-.012.072-.038.124-.078.156a.278.278 0 0 1-.162.042 1.01 1.01 0 0 1-.246-.042 1.646 1.646 0 0 0-.414-.042c-.308 0-.572.086-.792.258-.22.168-.406.416-.558.744v3.834h-1.482ZM52.96 5.997v8.916h-1.482V5.997h1.482ZM58.732 14.913c-.192 0-.318-.09-.378-.27l-.12-.594a3.68 3.68 0 0 1-.402.39c-.14.116-.292.216-.456.3-.16.084-.334.148-.522.192a2.372 2.372 0 0 1-.6.072c-.336 0-.644-.07-.924-.21a2.098 2.098 0 0 1-.726-.606 3.033 3.033 0 0 1-.468-.99 5.072 5.072 0 0 1-.162-1.344c0-.456.062-.88.186-1.272s.302-.732.534-1.02c.232-.288.51-.512.834-.672a2.384 2.384 0 0 1 1.092-.246 2.103 2.103 0 0 1 1.536.606V5.997h1.482v8.916h-.906Zm-1.974-1.086c.308 0 .57-.064.786-.192.216-.128.42-.31.612-.546v-2.76a1.452 1.452 0 0 0-.552-.432 1.597 1.597 0 0 0-.636-.126c-.224 0-.428.042-.612.126a1.21 1.21 0 0 0-.462.384c-.124.168-.22.384-.288.648-.068.26-.102.568-.102.924 0 .36.028.666.084.918.06.248.144.452.252.612.108.156.24.27.396.342.156.068.33.102.522.102ZM16.331 20.757v6.156H14.85v-6.156h1.481Zm.223-1.794a.844.844 0 0 1-.078.36.963.963 0 0 1-.21.294.995.995 0 0 1-.3.204.963.963 0 0 1-.372.072.948.948 0 0 1-.367-.072 1.018 1.018 0 0 1-.498-.498.963.963 0 0 1 0-.732.995.995 0 0 1 .205-.3.929.929 0 0 1 .293-.198.899.899 0 0 1 .738 0 .912.912 0 0 1 .3.198.943.943 0 0 1 .288.672ZM17.771 26.913v-6.156h.906c.192 0 .318.09.378.27l.102.486a2.934 2.934 0 0 1 .828-.618c.156-.076.322-.134.498-.174.176-.04.368-.06.576-.06.336 0 .634.058.894.174.26.112.476.272.648.48.176.204.308.45.396.738.092.284.138.598.138.942v3.918h-1.482v-3.918c0-.376-.088-.666-.264-.87-.172-.208-.432-.312-.78-.312-.256 0-.496.058-.72.174a2.58 2.58 0 0 0-.636.474v4.452h-1.482ZM34.22 22.575c0 .636-.106 1.22-.318 1.752-.212.532-.51.99-.894 1.374a4 4 0 0 1-1.386.894 4.87 4.87 0 0 1-1.794.318h-3.312v-8.676h3.312a4.79 4.79 0 0 1 1.794.324 4 4 0 0 1 1.386.894c.384.38.682.836.894 1.368.212.532.318 1.116.318 1.752Zm-1.65 0c0-.476-.064-.902-.192-1.278a2.68 2.68 0 0 0-.546-.96 2.332 2.332 0 0 0-.864-.606 2.94 2.94 0 0 0-1.14-.21h-1.686v6.108h1.686c.424 0 .804-.07 1.14-.21.34-.14.628-.34.864-.6a2.75 2.75 0 0 0 .546-.96 4.01 4.01 0 0 0 .192-1.284ZM39.98 26.913h-.665c-.14 0-.25-.02-.33-.06-.08-.044-.14-.13-.18-.258l-.132-.438c-.156.14-.31.264-.462.372a2.804 2.804 0 0 1-.462.264c-.16.072-.33.126-.51.162-.18.036-.38.054-.6.054-.26 0-.5-.034-.72-.102a1.618 1.618 0 0 1-.57-.318 1.448 1.448 0 0 1-.366-.522 1.852 1.852 0 0 1-.132-.726c0-.232.06-.46.18-.684.124-.228.328-.432.612-.612.284-.184.662-.336 1.134-.456.472-.12 1.058-.188 1.758-.204v-.36c0-.412-.088-.716-.264-.912-.172-.2-.424-.3-.756-.3a1.837 1.837 0 0 0-1.02.276c-.116.068-.224.13-.324.186a.664.664 0 0 1-.33.084.429.429 0 0 1-.258-.078.614.614 0 0 1-.174-.192l-.27-.474c.708-.648 1.562-.972 2.562-.972.36 0 .68.06.96.18.284.116.524.28.72.492.196.208.344.458.444.75.104.292.156.612.156.96v3.888Zm-2.88-.924c.153 0 .293-.014.42-.042.129-.028.249-.07.36-.126.117-.056.227-.124.33-.204.109-.084.217-.182.325-.294v-1.038c-.432.02-.794.058-1.086.114-.288.052-.52.12-.696.204a.923.923 0 0 0-.378.294.664.664 0 0 0-.108.366c0 .26.076.446.228.558.156.112.358.168.606.168ZM43.22 27.01c-.532 0-.942-.15-1.23-.45-.288-.305-.432-.723-.432-1.255v-3.438h-.624a.31.31 0 0 1-.21-.078c-.056-.052-.084-.13-.084-.234v-.588l.99-.162.312-1.68a.302.302 0 0 1 .108-.186.365.365 0 0 1 .222-.066h.768v1.938h1.62v1.056h-1.62v3.336c0 .192.048.342.144.45a.488.488 0 0 0 .384.162c.092 0 .168-.01.228-.03.064-.024.118-.048.162-.072.048-.024.09-.046.126-.066a.194.194 0 0 1 .108-.036.16.16 0 0 1 .108.036c.028.02.058.052.09.096l.444.72c-.216.18-.464.316-.744.408a2.77 2.77 0 0 1-.87.138ZM50.423 26.913h-.666c-.14 0-.25-.02-.33-.06-.08-.044-.14-.13-.18-.258l-.132-.438c-.156.14-.31.264-.462.372a2.804 2.804 0 0 1-.462.264c-.16.072-.33.126-.51.162-.18.036-.38.054-.6.054-.26 0-.5-.034-.72-.102a1.618 1.618 0 0 1-.57-.318 1.448 1.448 0 0 1-.366-.522 1.852 1.852 0 0 1-.132-.726c0-.232.06-.46.18-.684.124-.228.328-.432.612-.612.284-.184.662-.336 1.134-.456.472-.12 1.058-.188 1.758-.204v-.36c0-.412-.088-.716-.264-.912-.172-.2-.424-.3-.756-.3a1.837 1.837 0 0 0-1.02.276c-.116.068-.224.13-.324.186a.664.664 0 0 1-.33.084.429.429 0 0 1-.258-.078.614.614 0 0 1-.174-.192l-.27-.474c.708-.648 1.562-.972 2.562-.972.36 0 .68.06.96.18.284.116.524.28.72.492.196.208.344.458.444.75.104.292.156.612.156.96v3.888Zm-2.88-.924c.152 0 .292-.014.42-.042.128-.028.248-.07.36-.126.116-.056.226-.124.33-.204.108-.084.216-.182.324-.294v-1.038c-.432.02-.794.058-1.086.114-.288.052-.52.12-.696.204a.923.923 0 0 0-.378.294.664.664 0 0 0-.108.366c0 .26.076.446.228.558.156.112.358.168.606.168Z"/></svg></g><a id="title" href="https://ourworldindata.org/grapher/the-number-of-cases-of-infectious-diseases" style="font-family:&#x27;Playfair Display&#x27;, Georgia, &#x27;Times New Roman&#x27;, &#x27;Liberation Serif&#x27;, serif" target="_blank" rel="noopener"><text font-size="24.75" font-weight="600" x="16.0" y="40.0" fill="#5b5b5b"><tspan x="16" y="40.0075">Historical trends across infectious diseases, World</tspan></text></a><g id="subtitle" class="markdown-text-wrap"><text x="16.0" y="63.9" style="font-size:14.625px;line-height:1.2" fill="#5b5b5b"><tspan x="16" y="63.9">The number of cases of a range of infectious diseases. Estimated cases are shown for paralytic <tspan class="dod-span" data-id="polio">polio</tspan>, <tspan class="dod-span" data-id="hiv_aids">HIV/AIDS</tspan>,</tspan><tspan x="16" y="81.4"><tspan class="dod-span" data-id="malaria">malaria</tspan> and <tspan class="dod-span" data-id="tuberculosis">tuberculosis</tspan>, while reported cases are shown for <tspan class="dod-span" data-id="cholera">cholera</tspan>, <tspan class="dod-span" data-id="guinea-worm">guinea worm</tspan>, <tspan class="dod-span" data-id="smallpox">smallpox</tspan> and <tspan class="dod-span" data-id="yaws">yaws</tspan>.</tspan></text></g></g><g id="chart-area" style="pointer-events:none"><g id="horizontal-axis" class="HorizontalAxis"><g id="tick-marks"><line id="1920" x1="85.7" y1="494.40000000000003" x2="85.7" y2="499.90000000000003" stroke="#999" stroke-width="1"></line><line id="2023" x1="706.8" y1="494.40000000000003" x2="706.8" y2="499.90000000000003" stroke="#999" stroke-width="1"></line><line id="1940" x1="206.3" y1="494.40000000000003" x2="206.3" y2="499.90000000000003" stroke="#999" stroke-width="1"></line><line id="1960" x1="326.9" y1="494.40000000000003" x2="326.9" y2="499.90000000000003" stroke="#999" stroke-width="1"></line><line id="1980" x1="447.5" y1="494.40000000000003" x2="447.5" y2="499.90000000000003" stroke="#999" stroke-width="1"></line><line id="2000" x1="568.1" y1="494.40000000000003" x2="568.1" y2="499.90000000000003" stroke="#999" stroke-width="1"></line></g><g id="tick-labels"><text x="85.665" y="513.4" fill="#5b5b5b" text-anchor="start" font-size="13.5">1920</text><text x="706.76" y="513.4" fill="#5b5b5b" text-anchor="end" font-size="13.5">2023</text><text x="206.3" y="513.4" fill="#5b5b5b" text-anchor="middle" font-size="13.5">1940</text><text x="326.9" y="513.4" fill="#5b5b5b" text-anchor="middle" font-size="13.5">1960</text><text x="447.5" y="513.4" fill="#5b5b5b" text-anchor="middle" font-size="13.5">1980</text><text x="568.1" y="513.4" fill="#5b5b5b" text-anchor="middle" font-size="13.5">2000</text></g></g><g id="vertical-axis" class="VerticalAxis"><g id="tick-labels"><text x="80.67" y="461.4" dy=".32em" text-anchor="end" fill="#5b5b5b" font-size="13.5">10</text><text x="80.67" y="413.6" dy=".32em" text-anchor="end" fill="#5b5b5b" font-size="13.5">100</text><text x="80.67" y="365.7" dy=".32em" text-anchor="end" fill="#5b5b5b" font-size="13.5">1,000</text><text x="80.67" y="317.9" dy=".32em" text-anchor="end" fill="#5b5b5b" font-size="13.5">10,000</text><text x="80.67" y="270" dy=".32em" text-anchor="end" fill="#5b5b5b" font-size="13.5">100,000</text><text x="80.67" y="222.2" dy=".32em" text-anchor="end" fill="#5b5b5b" font-size="13.5">1 million</text><text x="80.67" y="174.3" dy=".32em" text-anchor="end" fill="#5b5b5b" font-size="13.5">10 million</text><text x="80.67" y="126.4" dy=".32em" text-anchor="end" fill="#5b5b5b" font-size="13.5">100 million</text></g></g><g id="horizontal-grid-lines" class="AxisGridLines horizontalLines"><line id="10" x1="85.67" y1="461.4" x2="706.76" y2="461.4" stroke="#ddd" stroke-width="1" stroke-dasharray="3,2"></line><line id="100" x1="85.67" y1="413.6" x2="706.76" y2="413.6" stroke="#ddd" stroke-width="1" stroke-dasharray="3,2"></line><line id="1,000" x1="85.67" y1="365.7" x2="706.76" y2="365.7" stroke="#ddd" stroke-width="1" stroke-dasharray="3,2"></line><line id="10,000" x1="85.67" y1="317.9" x2="706.76" y2="317.9" stroke="#ddd" stroke-width="1" stroke-dasharray="3,2"></line><line id="100,000" x1="85.67" y1="270" x2="706.76" y2="270" stroke="#ddd" stroke-width="1" stroke-dasharray="3,2"></line><line id="1-million" x1="85.67" y1="222.2" x2="706.76" y2="222.2" stroke="#ddd" stroke-width="1" stroke-dasharray="3,2"></line><line id="10-million" x1="85.67" y1="174.3" x2="706.76" y2="174.3" stroke="#ddd" stroke-width="1" stroke-dasharray="3,2"></line><line id="100-million" x1="85.67" y1="126.4" x2="706.76" y2="126.4" stroke="#ddd" stroke-width="1" stroke-dasharray="3,2"></line></g><g id="line-labels" class="LineLabels"><g id="text-annotations"></g><g id="text-values"></g><g id="text-labels"></g><g id="text-annotations"></g><g id="text-values"></g><g id="text-labels"><text font-size="13.50" font-weight="400" x="710.8" y="112.5" fill="#6d3e91" opacity="1" text-anchor="start"><tspan x="710.76" y="112.545">Malaria</tspan></text><text font-size="13.50" font-weight="400" x="710.8" y="182.9" fill="#00295b" opacity="1" text-anchor="start"><tspan x="710.76" y="182.895">Tuberculosis</tspan></text><text font-size="13.50" font-weight="400" x="710.8" y="216.8" fill="#883039" opacity="1" text-anchor="start"><tspan x="710.76" y="216.79500000000002">HIV/AIDS</tspan></text><text font-size="13.50" font-weight="400" x="710.8" y="258.3" fill="#9a5129" opacity="1" text-anchor="start"><tspan x="710.76" y="258.295">Cholera</tspan></text><text font-size="13.50" font-weight="400" x="710.8" y="285.9" fill="#4c6a9c" opacity="1" text-anchor="start"><tspan x="710.76" y="285.895">Yaws</tspan></text><text font-size="13.50" font-weight="400" x="710.8" y="322.5" fill="#2c8465" opacity="1" text-anchor="start"><tspan x="710.76" y="322.495">Rabies</tspan></text><text font-size="13.50" font-weight="400" x="710.8" y="343.3" fill="#b13507" opacity="1" text-anchor="start"><tspan x="710.76" y="343.295">Paralytic polio</tspan></text><text font-size="13.50" font-weight="400" x="710.8" y="459.5" fill="#996d39" opacity="1" text-anchor="start"><tspan x="710.76" y="459.495">Guinea worm</tspan></text><text font-size="13.50" font-weight="400" x="710.8" y="499.9" fill="#a2559c" opacity="1" text-anchor="start"><tspan x="710.76" y="499.895">Smallpox</tspan></text></g></g><g id="lines"><path fill="none" stroke-linecap="butt" stroke-linejoin="round" stroke="#ffffff" stroke-width="2.5" id="outline__Cholera" d="M260.5 450.4L266.6 292L272.6 267.2L278.6 265.7L284.7 251.7L290.7 290.2L296.7 289L302.7 279.4L308.8 279.6L314.8 270.9L320.8 291.2L326.9 290.1L332.9 280L338.9 277.8L345 280.8L351 270.9L357 281.8L363 294.3L369.1 299L375.1 292.3L381.1 291.2L387.2 279.3L393.2 258.3L399.2 274.6L405.3 268.3L411.3 270.5L417.3 271.5L423.3 277.8L429.4 279.5L435.4 275.3L441.4 281.5L447.5 287.7L453.5 283.8L459.5 279L465.6 278.9L471.6 295.5L477.6 286.5L483.6 283.3L489.7 282L495.7 282.9L501.7 282.8L507.8 276.1L513.8 232.9L519.8 236.9L525.9 242.2L531.9 242L537.9 254.1L543.9 262.3L550 261.7L556 247.3L562 249.9L568.1 262.4L574.1 257.1L580.1 262.7L586.2 267.7L592.2 269.7L598.2 264.3L604.2 252.1L610.3 258L616.3 256.7L622.3 253.5L628.4 246L634.4 233.1L640.4 251.4L646.5 264.7L652.5 256.6L658.5 258.7L664.5 264.2L670.6 217.9L676.6 236.6L682.6 223.8L688.7 245.6L694.7 253.3"></path><path fill="none" stroke-linecap="butt" stroke-linejoin="round" stroke="#9A5129" stroke-width="1.5" id="line__Cholera" d="M260.5 450.4L266.6 292L272.6 267.2L278.6 265.7L284.7 251.7L290.7 290.2L296.7 289L302.7 279.4L308.8 279.6L314.8 270.9L320.8 291.2L326.9 290.1L332.9 280L338.9 277.8L345 280.8L351 270.9L357 281.8L363 294.3L369.1 299L375.1 292.3L381.1 291.2L387.2 279.3L393.2 258.3L399.2 274.6L405.3 268.3L411.3 270.5L417.3 271.5L423.3 277.8L429.4 279.5L435.4 275.3L441.4 281.5L447.5 287.7L453.5 283.8L459.5 279L465.6 278.9L471.6 295.5L477.6 286.5L483.6 283.3L489.7 282L495.7 282.9L501.7 282.8L507.8 276.1L513.8 232.9L519.8 236.9L525.9 242.2L531.9 242L537.9 254.1L543.9 262.3L550 261.7L556 247.3L562 249.9L568.1 262.4L574.1 257.1L580.1 262.7L586.2 267.7L592.2 269.7L598.2 264.3L604.2 252.1L610.3 258L616.3 256.7L622.3 253.5L628.4 246L634.4 233.1L640.4 251.4L646.5 264.7L652.5 256.6L658.5 258.7L664.5 264.2L670.6 217.9L676.6 236.6L682.6 223.8L688.7 245.6L694.7 253.3"></path><path fill="none" stroke-linecap="butt" stroke-linejoin="round" stroke="#ffffff" stroke-width="2.5" id="outline__Smallpox" d="M85.7 241.1L91.7 246.9L97.7 256.7L103.8 258.4L109.8 257.1L115.8 248.3L121.8 245.6L127.9 245.4L133.9 249.2L139.9 249.6L146 243.4L152 257.5L158 254.5L164.1 245.3L170.1 245.4L176.1 245.1L182.1 249.9L188.2 261.7L194.2 262.4L200.2 257.1L206.3 252.2L212.3 256L218.3 265.5L224.4 254.6L230.4 240.8L236.4 240.9L242.4 247L248.5 259.8L254.5 260L260.5 231.7L266.6 239.9L272.6 234.4L278.6 259.3L284.7 271.3L290.7 270.2L296.7 271.8L302.7 270.8L308.8 260.7L314.8 248.6L320.8 270.8L326.9 278.3L332.9 272.1L338.9 270.3L345 264L351 275.7L357 267.6L363 271.6L369.1 264.3L375.1 274.7L381.1 282.7L387.2 292.6L393.2 283.3L399.2 278.9L405.3 263.6L411.3 253.8L417.3 304.2L423.3 366.7L429.4 341.3L435.4 494.9"></path><path fill="none" stroke-linecap="butt" stroke-linejoin="round" stroke="#A2559C" stroke-width="1.5" id="line__Smallpox" d="M85.7 241.1L91.7 246.9L97.7 256.7L103.8 258.4L109.8 257.1L115.8 248.3L121.8 245.6L127.9 245.4L133.9 249.2L139.9 249.6L146 243.4L152 257.5L158 254.5L164.1 245.3L170.1 245.4L176.1 245.1L182.1 249.9L188.2 261.7L194.2 262.4L200.2 257.1L206.3 252.2L212.3 256L218.3 265.5L224.4 254.6L230.4 240.8L236.4 240.9L242.4 247L248.5 259.8L254.5 260L260.5 231.7L266.6 239.9L272.6 234.4L278.6 259.3L284.7 271.3L290.7 270.2L296.7 271.8L302.7 270.8L308.8 260.7L314.8 248.6L320.8 270.8L326.9 278.3L332.9 272.1L338.9 270.3L345 264L351 275.7L357 267.6L363 271.6L369.1 264.3L375.1 274.7L381.1 282.7L387.2 292.6L393.2 283.3L399.2 278.9L405.3 263.6L411.3 253.8L417.3 304.2L423.3 366.7L429.4 341.3L435.4 494.9"></path><path fill="none" stroke-linecap="butt" stroke-linejoin="round" stroke="#ffffff" stroke-width="2.5" id="outline__Tuberculosis" d="M507.8 177.4L513.8 177.1L519.8 176.8L525.9 176.5L531.9 176.3L537.9 176.1L543.9 176L550 176.1L556 176.2L562 176.3L568.1 176.3L574.1 176.3L580.1 176.3L586.2 176.3L592.2 176.4L598.2 176.4L604.2 176.4L610.3 176.6L616.3 176.8L622.3 177L628.4 177.2L634.4 177.3L640.4 177.6L646.5 177.8L652.5 178L658.5 178.1L664.5 178.1L670.6 178.1L676.6 178.1L682.6 178L688.7 177.8L694.7 177.9"></path><path fill="none" stroke-linecap="butt" stroke-linejoin="round" stroke="#00295B" stroke-width="1.5" id="line__Tuberculosis" d="M507.8 177.4L513.8 177.1L519.8 176.8L525.9 176.5L531.9 176.3L537.9 176.1L543.9 176L550 176.1L556 176.2L562 176.3L568.1 176.3L574.1 176.3L580.1 176.3L586.2 176.3L592.2 176.4L598.2 176.4L604.2 176.4L610.3 176.6L616.3 176.8L622.3 177L628.4 177.2L634.4 177.3L640.4 177.6L646.5 177.8L652.5 178L658.5 178.1L664.5 178.1L670.6 178.1L676.6 178.1L682.6 178L688.7 177.8L694.7 177.9"></path><path fill="none" stroke-linecap="butt" stroke-linejoin="round" stroke="#ffffff" stroke-width="2.5" id="outline__HIV/AIDS" d="M507.8 207.7L513.8 205.2L519.8 203.5L525.9 202.2L531.9 201.3L537.9 200.4L543.9 199.5L550 199.2L556 199.5L562 200.1L568.1 201L574.1 202L580.1 203L586.2 203.9L592.2 204.8L598.2 205.5L604.2 206.1L610.3 206.4L616.3 206.6L622.3 206.7L628.4 206.7L634.4 206.8L640.4 206.9L646.5 206.9L652.5 207L658.5 207.2L664.5 207.6L670.6 208.3L676.6 208.9L682.6 209.8L688.7 210.8L694.7 211.8"></path><path fill="none" stroke-linecap="butt" stroke-linejoin="round" stroke="#883039" stroke-width="1.5" id="line__HIV/AIDS" d="M507.8 207.7L513.8 205.2L519.8 203.5L525.9 202.2L531.9 201.3L537.9 200.4L543.9 199.5L550 199.2L556 199.5L562 200.1L568.1 201L574.1 202L580.1 203L586.2 203.9L592.2 204.8L598.2 205.5L604.2 206.1L610.3 206.4L616.3 206.6L622.3 206.7L628.4 206.7L634.4 206.8L640.4 206.9L646.5 206.9L652.5 207L658.5 207.2L664.5 207.6L670.6 208.3L676.6 208.9L682.6 209.8L688.7 210.8L694.7 211.8"></path><path fill="none" stroke-linecap="butt" stroke-linejoin="round" stroke="#ffffff" stroke-width="2.5" id="outline__Malaria" d="M507.8 110.3L513.8 110.1L519.8 110L525.9 109.8L531.9 109.6L537.9 109.2L543.9 108.8L550 108.3L556 108L562 107.8L568.1 107.9L574.1 107.4L580.1 107.7L586.2 107.2L592.2 106.8L598.2 106.9L604.2 107.3L610.3 107.4L616.3 107.4L622.3 107.1L628.4 106.9L634.4 107.3L640.4 108L646.5 108.7L652.5 109.2L658.5 109.1L664.5 108.9L670.6 108.7L676.6 108.7L682.6 108.4L688.7 107.8L694.7 107.5"></path><path fill="none" stroke-linecap="butt" stroke-linejoin="round" stroke="#6D3E91" stroke-width="1.5" id="line__Malaria" d="M507.8 110.3L513.8 110.1L519.8 110L525.9 109.8L531.9 109.6L537.9 109.2L543.9 108.8L550 108.3L556 108L562 107.8L568.1 107.9L574.1 107.4L580.1 107.7L586.2 107.2L592.2 106.8L598.2 106.9L604.2 107.3L610.3 107.4L616.3 107.4L622.3 107.1L628.4 106.9L634.4 107.3L640.4 108L646.5 108.7L652.5 109.2L658.5 109.1L664.5 108.9L670.6 108.7L676.6 108.7L682.6 108.4L688.7 107.8L694.7 107.5"></path><path fill="none" stroke-linecap="butt" stroke-linejoin="round" stroke="#ffffff" stroke-width="2.5" id="outline__Rabies" d="M507.8 301.5L513.8 301.1L519.8 301L525.9 300.9L531.9 301L537.9 301.2L543.9 301.1L550 301.4L556 302L562 303L568.1 304L574.1 303.9L580.1 304.1L586.2 304.3L592.2 304.6L598.2 305.2L604.2 305.1L610.3 305.8L616.3 306.9L622.3 308.4L628.4 310L634.4 310.3L640.4 310.9L646.5 312.1L652.5 313.2L658.5 314.3L664.5 314.5L670.6 314.9L676.6 315.7L682.6 316.5L688.7 317.2L694.7 317.5"></path><path fill="none" stroke-linecap="butt" stroke-linejoin="round" stroke="#2C8465" stroke-width="1.5" id="line__Rabies" d="M507.8 301.5L513.8 301.1L519.8 301L525.9 300.9L531.9 301L537.9 301.2L543.9 301.1L550 301.4L556 302L562 303L568.1 304L574.1 303.9L580.1 304.1L586.2 304.3L592.2 304.6L598.2 305.2L604.2 305.1L610.3 305.8L616.3 306.9L622.3 308.4L628.4 310L634.4 310.3L640.4 310.9L646.5 312.1L652.5 313.2L658.5 314.3L664.5 314.5L670.6 314.9L676.6 315.7L682.6 316.5L688.7 317.2L694.7 317.5"></path><path fill="none" stroke-linecap="butt" stroke-linejoin="round" stroke="#ffffff" stroke-width="2.5" id="outline__Guinea-worm" d="M447.5 291.3L453.5 304.8L459.5 283.7L465.6 281.9L471.6 275.8L477.6 282.4L483.6 286.1L489.7 250.1L495.7 227.9L501.7 224.5L507.8 232L513.8 234.8L519.8 242.6L525.9 252.7L531.9 259.6L537.9 264.6L543.9 261.2L550 275.2L556 275L562 270.8L568.1 275.9L574.1 279.4L580.1 282.6L586.2 293.6L592.2 308.1L598.2 316.5L604.2 298.7L610.3 318.7L616.3 333.9L622.3 341.6L628.4 353.6L634.4 364.6L640.4 378.5L646.5 405.4L652.5 408.8L658.5 445.1L664.5 442.4L670.6 438.6L676.6 440L682.6 426.4L688.7 440.8L694.7 453L700.7 456L706.8 454.5"></path><path fill="none" stroke-linecap="butt" stroke-linejoin="round" stroke="#996D39" stroke-width="1.5" id="line__Guinea-worm" d="M447.5 291.3L453.5 304.8L459.5 283.7L465.6 281.9L471.6 275.8L477.6 282.4L483.6 286.1L489.7 250.1L495.7 227.9L501.7 224.5L507.8 232L513.8 234.8L519.8 242.6L525.9 252.7L531.9 259.6L537.9 264.6L543.9 261.2L550 275.2L556 275L562 270.8L568.1 275.9L574.1 279.4L580.1 282.6L586.2 293.6L592.2 308.1L598.2 316.5L604.2 298.7L610.3 318.7L616.3 333.9L622.3 341.6L628.4 353.6L634.4 364.6L640.4 378.5L646.5 405.4L652.5 408.8L658.5 445.1L664.5 442.4L670.6 438.6L676.6 440L682.6 426.4L688.7 440.8L694.7 453L700.7 456L706.8 454.5"></path><path fill="none" stroke-linecap="butt" stroke-linejoin="round" stroke="#ffffff" stroke-width="2.5" id="outline__Paralytic-polio" d="M447.5 242.9L453.5 238.3L459.5 243.3L465.6 248.6L471.6 251.3L477.6 249.4L483.6 252.7L489.7 248.8L495.7 251.6L501.7 257.5L507.8 260.1L513.8 271.5L519.8 268.6L525.9 276.4L531.9 280.4L537.9 284.7L543.9 296.1L550 291.1L556 286.9L562 284.4L568.1 302.7L574.1 339.9L580.1 311.7L586.2 330.3L592.2 320.5L598.2 310.6L604.2 310.7L610.3 318.5L616.3 313.8L622.3 313.2L628.4 318.1L634.4 332.2L640.4 350.8L646.5 340.5L652.5 343.6L658.5 371.9L664.5 391.2L670.6 369.7L676.6 366.5L682.6 337.6L688.7 320.6L694.7 332.9L700.7 327.2L706.8 338.3"></path><path fill="none" stroke-linecap="butt" stroke-linejoin="round" stroke="#B13507" stroke-width="1.5" id="line__Paralytic-polio" d="M447.5 242.9L453.5 238.3L459.5 243.3L465.6 248.6L471.6 251.3L477.6 249.4L483.6 252.7L489.7 248.8L495.7 251.6L501.7 257.5L507.8 260.1L513.8 271.5L519.8 268.6L525.9 276.4L531.9 280.4L537.9 284.7L543.9 296.1L550 291.1L556 286.9L562 284.4L568.1 302.7L574.1 339.9L580.1 311.7L586.2 330.3L592.2 320.5L598.2 310.6L604.2 310.7L610.3 318.5L616.3 313.8L622.3 313.2L628.4 318.1L634.4 332.2L640.4 350.8L646.5 340.5L652.5 343.6L658.5 371.9L664.5 391.2L670.6 369.7L676.6 366.5L682.6 337.6L688.7 320.6L694.7 332.9L700.7 327.2L706.8 338.3"></path><path fill="none" stroke-linecap="butt" stroke-linejoin="round" stroke="#ffffff" stroke-width="2.5" id="outline__Yaws" d="M616.3 282L622.3 277.6L628.4 274.6L634.4 284L640.4 284.7L646.5 281L652.5 284.2L658.5 286.1L664.5 280.9"></path><path fill="none" stroke-linecap="butt" stroke-linejoin="round" stroke="#4C6A9C" stroke-width="1.5" id="line__Yaws" d="M616.3 282L622.3 277.6L628.4 274.6L634.4 284L640.4 284.7L646.5 281L652.5 284.2L658.5 286.1L664.5 280.9"></path></g><g id="markers"><g id="markers__Cholera"><circle id="1949" cx="260.5" cy="450.4" r="1.8" fill="#9A5129"></circle><circle id="1950" cx="266.6" cy="292" r="1.8" fill="#9A5129"></circle><circle id="1951" cx="272.6" cy="267.2" r="1.8" fill="#9A5129"></circle><circle id="1952" cx="278.6" cy="265.7" r="1.8" fill="#9A5129"></circle><circle id="1953" cx="284.7" cy="251.7" r="1.8" fill="#9A5129"></circle><circle id="1954" cx="290.7" cy="290.2" r="1.8" fill="#9A5129"></circle><circle id="1955" cx="296.7" cy="289" r="1.8" fill="#9A5129"></circle><circle id="1956" cx="302.7" cy="279.4" r="1.8" fill="#9A5129"></circle><circle id="1957" cx="308.8" cy="279.6" r="1.8" fill="#9A5129"></circle><circle id="1958" cx="314.8" cy="270.9" r="1.8" fill="#9A5129"></circle><circle id="1959" cx="320.8" cy="291.2" r="1.8" fill="#9A5129"></circle><circle id="1960" cx="326.9" cy="290.1" r="1.8" fill="#9A5129"></circle><circle id="1961" cx="332.9" cy="280" r="1.8" fill="#9A5129"></circle><circle id="1962" cx="338.9" cy="277.8" r="1.8" fill="#9A5129"></circle><circle id="1963" cx="345" cy="280.8" r="1.8" fill="#9A5129"></circle><circle id="1964" cx="351" cy="270.9" r="1.8" fill="#9A5129"></circle><circle id="1965" cx="357" cy="281.8" r="1.8" fill="#9A5129"></circle><circle id="1966" cx="363" cy="294.3" r="1.8" fill="#9A5129"></circle><circle id="1967" cx="369.1" cy="299" r="1.8" fill="#9A5129"></circle><circle id="1968" cx="375.1" cy="292.3" r="1.8" fill="#9A5129"></circle><circle id="1969" cx="381.1" cy="291.2" r="1.8" fill="#9A5129"></circle><circle id="1970" cx="387.2" cy="279.3" r="1.8" fill="#9A5129"></circle><circle id="1971" cx="393.2" cy="258.3" r="1.8" fill="#9A5129"></circle><circle id="1972" cx="399.2" cy="274.6" r="1.8" fill="#9A5129"></circle><circle id="1973" cx="405.3" cy="268.3" r="1.8" fill="#9A5129"></circle><circle id="1974" cx="411.3" cy="270.5" r="1.8" fill="#9A5129"></circle><circle id="1975" cx="417.3" cy="271.5" r="1.8" fill="#9A5129"></circle><circle id="1976" cx="423.3" cy="277.8" r="1.8" fill="#9A5129"></circle><circle id="1977" cx="429.4" cy="279.5" r="1.8" fill="#9A5129"></circle><circle id="1978" cx="435.4" cy="275.3" r="1.8" fill="#9A5129"></circle><circle id="1979" cx="441.4" cy="281.5" r="1.8" fill="#9A5129"></circle><circle id="1980" cx="447.5" cy="287.7" r="1.8" fill="#9A5129"></circle><circle id="1981" cx="453.5" cy="283.8" r="1.8" fill="#9A5129"></circle><circle id="1982" cx="459.5" cy="279" r="1.8" fill="#9A5129"></circle><circle id="1983" cx="465.6" cy="278.9" r="1.8" fill="#9A5129"></circle><circle id="1984" cx="471.6" cy="295.5" r="1.8" fill="#9A5129"></circle><circle id="1985" cx="477.6" cy="286.5" r="1.8" fill="#9A5129"></circle><circle id="1986" cx="483.6" cy="283.3" r="1.8" fill="#9A5129"></circle><circle id="1987" cx="489.7" cy="282" r="1.8" fill="#9A5129"></circle><circle id="1988" cx="495.7" cy="282.9" r="1.8" fill="#9A5129"></circle><circle id="1989" cx="501.7" cy="282.8" r="1.8" fill="#9A5129"></circle><circle id="1990" cx="507.8" cy="276.1" r="1.8" fill="#9A5129"></circle><circle id="1991" cx="513.8" cy="232.9" r="1.8" fill="#9A5129"></circle><circle id="1992" cx="519.8" cy="236.9" r="1.8" fill="#9A5129"></circle><circle id="1993" cx="525.9" cy="242.2" r="1.8" fill="#9A5129"></circle><circle id="1994" cx="531.9" cy="242" r="1.8" fill="#9A5129"></circle><circle id="1995" cx="537.9" cy="254.1" r="1.8" fill="#9A5129"></circle><circle id="1996" cx="543.9" cy="262.3" r="1.8" fill="#9A5129"></circle><circle id="1997" cx="550" cy="261.7" r="1.8" fill="#9A5129"></circle><circle id="1998" cx="556" cy="247.3" r="1.8" fill="#9A5129"></circle><circle id="1999" cx="562" cy="249.9" r="1.8" fill="#9A5129"></circle><circle id="2000" cx="568.1" cy="262.4" r="1.8" fill="#9A5129"></circle><circle id="2001" cx="574.1" cy="257.1" r="1.8" fill="#9A5129"></circle><circle id="2002" cx="580.1" cy="262.7" r="1.8" fill="#9A5129"></circle><circle id="2003" cx="586.2" cy="267.7" r="1.8" fill="#9A5129"></circle><circle id="2004" cx="592.2" cy="269.7" r="1.8" fill="#9A5129"></circle><circle id="2005" cx="598.2" cy="264.3" r="1.8" fill="#9A5129"></circle><circle id="2006" cx="604.2" cy="252.1" r="1.8" fill="#9A5129"></circle><circle id="2007" cx="610.3" cy="258" r="1.8" fill="#9A5129"></circle><circle id="2008" cx="616.3" cy="256.7" r="1.8" fill="#9A5129"></circle><circle id="2009" cx="622.3" cy="253.5" r="1.8" fill="#9A5129"></circle><circle id="2010" cx="628.4" cy="246" r="1.8" fill="#9A5129"></circle><circle id="2011" cx="634.4" cy="233.1" r="1.8" fill="#9A5129"></circle><circle id="2012" cx="640.4" cy="251.4" r="1.8" fill="#9A5129"></circle><circle id="2013" cx="646.5" cy="264.7" r="1.8" fill="#9A5129"></circle><circle id="2014" cx="652.5" cy="256.6" r="1.8" fill="#9A5129"></circle><circle id="2015" cx="658.5" cy="258.7" r="1.8" fill="#9A5129"></circle><circle id="2016" cx="664.5" cy="264.2" r="1.8" fill="#9A5129"></circle><circle id="2017" cx="670.6" cy="217.9" r="1.8" fill="#9A5129"></circle><circle id="2018" cx="676.6" cy="236.6" r="1.8" fill="#9A5129"></circle><circle id="2019" cx="682.6" cy="223.8" r="1.8" fill="#9A5129"></circle><circle id="2020" cx="688.7" cy="245.6" r="1.8" fill="#9A5129"></circle><circle id="2021" cx="694.7" cy="253.3" r="1.8" fill="#9A5129"></circle></g><g id="markers__Smallpox"><circle id="1920" cx="85.7" cy="241.1" r="1.8" fill="#A2559C"></circle><circle id="1921" cx="91.7" cy="246.9" r="1.8" fill="#A2559C"></circle><circle id="1922" cx="97.7" cy="256.7" r="1.8" fill="#A2559C"></circle><circle id="1923" cx="103.8" cy="258.4" r="1.8" fill="#A2559C"></circle><circle id="1924" cx="109.8" cy="257.1" r="1.8" fill="#A2559C"></circle><circle id="1925" cx="115.8" cy="248.3" r="1.8" fill="#A2559C"></circle><circle id="1926" cx="121.8" cy="245.6" r="1.8" fill="#A2559C"></circle><circle id="1927" cx="127.9" cy="245.4" r="1.8" fill="#A2559C"></circle><circle id="1928" cx="133.9" cy="249.2" r="1.8" fill="#A2559C"></circle><circle id="1929" cx="139.9" cy="249.6" r="1.8" fill="#A2559C"></circle><circle id="1930" cx="146" cy="243.4" r="1.8" fill="#A2559C"></circle><circle id="1931" cx="152" cy="257.5" r="1.8" fill="#A2559C"></circle><circle id="1932" cx="158" cy="254.5" r="1.8" fill="#A2559C"></circle><circle id="1933" cx="164.1" cy="245.3" r="1.8" fill="#A2559C"></circle><circle id="1934" cx="170.1" cy="245.4" r="1.8" fill="#A2559C"></circle><circle id="1935" cx="176.1" cy="245.1" r="1.8" fill="#A2559C"></circle><circle id="1936" cx="182.1" cy="249.9" r="1.8" fill="#A2559C"></circle><circle id="1937" cx="188.2" cy="261.7" r="1.8" fill="#A2559C"></circle><circle id="1938" cx="194.2" cy="262.4" r="1.8" fill="#A2559C"></circle><circle id="1939" cx="200.2" cy="257.1" r="1.8" fill="#A2559C"></circle><circle id="1940" cx="206.3" cy="252.2" r="1.8" fill="#A2559C"></circle><circle id="1941" cx="212.3" cy="256" r="1.8" fill="#A2559C"></circle><circle id="1942" cx="218.3" cy="265.5" r="1.8" fill="#A2559C"></circle><circle id="1943" cx="224.4" cy="254.6" r="1.8" fill="#A2559C"></circle><circle id="1944" cx="230.4" cy="240.8" r="1.8" fill="#A2559C"></circle><circle id="1945" cx="236.4" cy="240.9" r="1.8" fill="#A2559C"></circle><circle id="1946" cx="242.4" cy="247" r="1.8" fill="#A2559C"></circle><circle id="1947" cx="248.5" cy="259.8" r="1.8" fill="#A2559C"></circle><circle id="1948" cx="254.5" cy="260" r="1.8" fill="#A2559C"></circle><circle id="1949" cx="260.5" cy="231.7" r="1.8" fill="#A2559C"></circle><circle id="1950" cx="266.6" cy="239.9" r="1.8" fill="#A2559C"></circle><circle id="1951" cx="272.6" cy="234.4" r="1.8" fill="#A2559C"></circle><circle id="1952" cx="278.6" cy="259.3" r="1.8" fill="#A2559C"></circle><circle id="1953" cx="284.7" cy="271.3" r="1.8" fill="#A2559C"></circle><circle id="1954" cx="290.7" cy="270.2" r="1.8" fill="#A2559C"></circle><circle id="1955" cx="296.7" cy="271.8" r="1.8" fill="#A2559C"></circle><circle id="1956" cx="302.7" cy="270.8" r="1.8" fill="#A2559C"></circle><circle id="1957" cx="308.8" cy="260.7" r="1.8" fill="#A2559C"></circle><circle id="1958" cx="314.8" cy="248.6" r="1.8" fill="#A2559C"></circle><circle id="1959" cx="320.8" cy="270.8" r="1.8" fill="#A2559C"></circle><circle id="1960" cx="326.9" cy="278.3" r="1.8" fill="#A2559C"></circle><circle id="1961" cx="332.9" cy="272.1" r="1.8" fill="#A2559C"></circle><circle id="1962" cx="338.9" cy="270.3" r="1.8" fill="#A2559C"></circle><circle id="1963" cx="345" cy="264" r="1.8" fill="#A2559C"></circle><circle id="1964" cx="351" cy="275.7" r="1.8" fill="#A2559C"></circle><circle id="1965" cx="357" cy="267.6" r="1.8" fill="#A2559C"></circle><circle id="1966" cx="363" cy="271.6" r="1.8" fill="#A2559C"></circle><circle id="1967" cx="369.1" cy="264.3" r="1.8" fill="#A2559C"></circle><circle id="1968" cx="375.1" cy="274.7" r="1.8" fill="#A2559C"></circle><circle id="1969" cx="381.1" cy="282.7" r="1.8" fill="#A2559C"></circle><circle id="1970" cx="387.2" cy="292.6" r="1.8" fill="#A2559C"></circle><circle id="1971" cx="393.2" cy="283.3" r="1.8" fill="#A2559C"></circle><circle id="1972" cx="399.2" cy="278.9" r="1.8" fill="#A2559C"></circle><circle id="1973" cx="405.3" cy="263.6" r="1.8" fill="#A2559C"></circle><circle id="1974" cx="411.3" cy="253.8" r="1.8" fill="#A2559C"></circle><circle id="1975" cx="417.3" cy="304.2" r="1.8" fill="#A2559C"></circle><circle id="1976" cx="423.3" cy="366.7" r="1.8" fill="#A2559C"></circle><circle id="1977" cx="429.4" cy="341.3" r="1.8" fill="#A2559C"></circle><circle id="1978" cx="435.4" cy="494.9" r="1.8" fill="#A2559C"></circle></g><g id="markers__Tuberculosis"><circle id="1990" cx="507.8" cy="177.4" r="1.8" fill="#00295B"></circle><circle id="1991" cx="513.8" cy="177.1" r="1.8" fill="#00295B"></circle><circle id="1992" cx="519.8" cy="176.8" r="1.8" fill="#00295B"></circle><circle id="1993" cx="525.9" cy="176.5" r="1.8" fill="#00295B"></circle><circle id="1994" cx="531.9" cy="176.3" r="1.8" fill="#00295B"></circle><circle id="1995" cx="537.9" cy="176.1" r="1.8" fill="#00295B"></circle><circle id="1996" cx="543.9" cy="176" r="1.8" fill="#00295B"></circle><circle id="1997" cx="550" cy="176.1" r="1.8" fill="#00295B"></circle><circle id="1998" cx="556" cy="176.2" r="1.8" fill="#00295B"></circle><circle id="1999" cx="562" cy="176.3" r="1.8" fill="#00295B"></circle><circle id="2000" cx="568.1" cy="176.3" r="1.8" fill="#00295B"></circle><circle id="2001" cx="574.1" cy="176.3" r="1.8" fill="#00295B"></circle><circle id="2002" cx="580.1" cy="176.3" r="1.8" fill="#00295B"></circle><circle id="2003" cx="586.2" cy="176.3" r="1.8" fill="#00295B"></circle><circle id="2004" cx="592.2" cy="176.4" r="1.8" fill="#00295B"></circle><circle id="2005" cx="598.2" cy="176.4" r="1.8" fill="#00295B"></circle><circle id="2006" cx="604.2" cy="176.4" r="1.8" fill="#00295B"></circle><circle id="2007" cx="610.3" cy="176.6" r="1.8" fill="#00295B"></circle><circle id="2008" cx="616.3" cy="176.8" r="1.8" fill="#00295B"></circle><circle id="2009" cx="622.3" cy="177" r="1.8" fill="#00295B"></circle><circle id="2010" cx="628.4" cy="177.2" r="1.8" fill="#00295B"></circle><circle id="2011" cx="634.4" cy="177.3" r="1.8" fill="#00295B"></circle><circle id="2012" cx="640.4" cy="177.6" r="1.8" fill="#00295B"></circle><circle id="2013" cx="646.5" cy="177.8" r="1.8" fill="#00295B"></circle><circle id="2014" cx="652.5" cy="178" r="1.8" fill="#00295B"></circle><circle id="2015" cx="658.5" cy="178.1" r="1.8" fill="#00295B"></circle><circle id="2016" cx="664.5" cy="178.1" r="1.8" fill="#00295B"></circle><circle id="2017" cx="670.6" cy="178.1" r="1.8" fill="#00295B"></circle><circle id="2018" cx="676.6" cy="178.1" r="1.8" fill="#00295B"></circle><circle id="2019" cx="682.6" cy="178" r="1.8" fill="#00295B"></circle><circle id="2020" cx="688.7" cy="177.8" r="1.8" fill="#00295B"></circle><circle id="2021" cx="694.7" cy="177.9" r="1.8" fill="#00295B"></circle></g><g id="markers__HIV/AIDS"><circle id="1990" cx="507.8" cy="207.7" r="1.8" fill="#883039"></circle><circle id="1991" cx="513.8" cy="205.2" r="1.8" fill="#883039"></circle><circle id="1992" cx="519.8" cy="203.5" r="1.8" fill="#883039"></circle><circle id="1993" cx="525.9" cy="202.2" r="1.8" fill="#883039"></circle><circle id="1994" cx="531.9" cy="201.3" r="1.8" fill="#883039"></circle><circle id="1995" cx="537.9" cy="200.4" r="1.8" fill="#883039"></circle><circle id="1996" cx="543.9" cy="199.5" r="1.8" fill="#883039"></circle><circle id="1997" cx="550" cy="199.2" r="1.8" fill="#883039"></circle><circle id="1998" cx="556" cy="199.5" r="1.8" fill="#883039"></circle><circle id="1999" cx="562" cy="200.1" r="1.8" fill="#883039"></circle><circle id="2000" cx="568.1" cy="201" r="1.8" fill="#883039"></circle><circle id="2001" cx="574.1" cy="202" r="1.8" fill="#883039"></circle><circle id="2002" cx="580.1" cy="203" r="1.8" fill="#883039"></circle><circle id="2003" cx="586.2" cy="203.9" r="1.8" fill="#883039"></circle><circle id="2004" cx="592.2" cy="204.8" r="1.8" fill="#883039"></circle><circle id="2005" cx="598.2" cy="205.5" r="1.8" fill="#883039"></circle><circle id="2006" cx="604.2" cy="206.1" r="1.8" fill="#883039"></circle><circle id="2007" cx="610.3" cy="206.4" r="1.8" fill="#883039"></circle><circle id="2008" cx="616.3" cy="206.6" r="1.8" fill="#883039"></circle><circle id="2009" cx="622.3" cy="206.7" r="1.8" fill="#883039"></circle><circle id="2010" cx="628.4" cy="206.7" r="1.8" fill="#883039"></circle><circle id="2011" cx="634.4" cy="206.8" r="1.8" fill="#883039"></circle><circle id="2012" cx="640.4" cy="206.9" r="1.8" fill="#883039"></circle><circle id="2013" cx="646.5" cy="206.9" r="1.8" fill="#883039"></circle><circle id="2014" cx="652.5" cy="207" r="1.8" fill="#883039"></circle><circle id="2015" cx="658.5" cy="207.2" r="1.8" fill="#883039"></circle><circle id="2016" cx="664.5" cy="207.6" r="1.8" fill="#883039"></circle><circle id="2017" cx="670.6" cy="208.3" r="1.8" fill="#883039"></circle><circle id="2018" cx="676.6" cy="208.9" r="1.8" fill="#883039"></circle><circle id="2019" cx="682.6" cy="209.8" r="1.8" fill="#883039"></circle><circle id="2020" cx="688.7" cy="210.8" r="1.8" fill="#883039"></circle><circle id="2021" cx="694.7" cy="211.8" r="1.8" fill="#883039"></circle></g><g id="markers__Malaria"><circle id="1990" cx="507.8" cy="110.3" r="1.8" fill="#6D3E91"></circle><circle id="1991" cx="513.8" cy="110.1" r="1.8" fill="#6D3E91"></circle><circle id="1992" cx="519.8" cy="110" r="1.8" fill="#6D3E91"></circle><circle id="1993" cx="525.9" cy="109.8" r="1.8" fill="#6D3E91"></circle><circle id="1994" cx="531.9" cy="109.6" r="1.8" fill="#6D3E91"></circle><circle id="1995" cx="537.9" cy="109.2" r="1.8" fill="#6D3E91"></circle><circle id="1996" cx="543.9" cy="108.8" r="1.8" fill="#6D3E91"></circle><circle id="1997" cx="550" cy="108.3" r="1.8" fill="#6D3E91"></circle><circle id="1998" cx="556" cy="108" r="1.8" fill="#6D3E91"></circle><circle id="1999" cx="562" cy="107.8" r="1.8" fill="#6D3E91"></circle><circle id="2000" cx="568.1" cy="107.9" r="1.8" fill="#6D3E91"></circle><circle id="2001" cx="574.1" cy="107.4" r="1.8" fill="#6D3E91"></circle><circle id="2002" cx="580.1" cy="107.7" r="1.8" fill="#6D3E91"></circle><circle id="2003" cx="586.2" cy="107.2" r="1.8" fill="#6D3E91"></circle><circle id="2004" cx="592.2" cy="106.8" r="1.8" fill="#6D3E91"></circle><circle id="2005" cx="598.2" cy="106.9" r="1.8" fill="#6D3E91"></circle><circle id="2006" cx="604.2" cy="107.3" r="1.8" fill="#6D3E91"></circle><circle id="2007" cx="610.3" cy="107.4" r="1.8" fill="#6D3E91"></circle><circle id="2008" cx="616.3" cy="107.4" r="1.8" fill="#6D3E91"></circle><circle id="2009" cx="622.3" cy="107.1" r="1.8" fill="#6D3E91"></circle><circle id="2010" cx="628.4" cy="106.9" r="1.8" fill="#6D3E91"></circle><circle id="2011" cx="634.4" cy="107.3" r="1.8" fill="#6D3E91"></circle><circle id="2012" cx="640.4" cy="108" r="1.8" fill="#6D3E91"></circle><circle id="2013" cx="646.5" cy="108.7" r="1.8" fill="#6D3E91"></circle><circle id="2014" cx="652.5" cy="109.2" r="1.8" fill="#6D3E91"></circle><circle id="2015" cx="658.5" cy="109.1" r="1.8" fill="#6D3E91"></circle><circle id="2016" cx="664.5" cy="108.9" r="1.8" fill="#6D3E91"></circle><circle id="2017" cx="670.6" cy="108.7" r="1.8" fill="#6D3E91"></circle><circle id="2018" cx="676.6" cy="108.7" r="1.8" fill="#6D3E91"></circle><circle id="2019" cx="682.6" cy="108.4" r="1.8" fill="#6D3E91"></circle><circle id="2020" cx="688.7" cy="107.8" r="1.8" fill="#6D3E91"></circle><circle id="2021" cx="694.7" cy="107.5" r="1.8" fill="#6D3E91"></circle></g><g id="markers__Rabies"><circle id="1990" cx="507.8" cy="301.5" r="1.8" fill="#2C8465"></circle><circle id="1991" cx="513.8" cy="301.1" r="1.8" fill="#2C8465"></circle><circle id="1992" cx="519.8" cy="301" r="1.8" fill="#2C8465"></circle><circle id="1993" cx="525.9" cy="300.9" r="1.8" fill="#2C8465"></circle><circle id="1994" cx="531.9" cy="301" r="1.8" fill="#2C8465"></circle><circle id="1995" cx="537.9" cy="301.2" r="1.8" fill="#2C8465"></circle><circle id="1996" cx="543.9" cy="301.1" r="1.8" fill="#2C8465"></circle><circle id="1997" cx="550" cy="301.4" r="1.8" fill="#2C8465"></circle><circle id="1998" cx="556" cy="302" r="1.8" fill="#2C8465"></circle><circle id="1999" cx="562" cy="303" r="1.8" fill="#2C8465"></circle><circle id="2000" cx="568.1" cy="304" r="1.8" fill="#2C8465"></circle><circle id="2001" cx="574.1" cy="303.9" r="1.8" fill="#2C8465"></circle><circle id="2002" cx="580.1" cy="304.1" r="1.8" fill="#2C8465"></circle><circle id="2003" cx="586.2" cy="304.3" r="1.8" fill="#2C8465"></circle><circle id="2004" cx="592.2" cy="304.6" r="1.8" fill="#2C8465"></circle><circle id="2005" cx="598.2" cy="305.2" r="1.8" fill="#2C8465"></circle><circle id="2006" cx="604.2" cy="305.1" r="1.8" fill="#2C8465"></circle><circle id="2007" cx="610.3" cy="305.8" r="1.8" fill="#2C8465"></circle><circle id="2008" cx="616.3" cy="306.9" r="1.8" fill="#2C8465"></circle><circle id="2009" cx="622.3" cy="308.4" r="1.8" fill="#2C8465"></circle><circle id="2010" cx="628.4" cy="310" r="1.8" fill="#2C8465"></circle><circle id="2011" cx="634.4" cy="310.3" r="1.8" fill="#2C8465"></circle><circle id="2012" cx="640.4" cy="310.9" r="1.8" fill="#2C8465"></circle><circle id="2013" cx="646.5" cy="312.1" r="1.8" fill="#2C8465"></circle><circle id="2014" cx="652.5" cy="313.2" r="1.8" fill="#2C8465"></circle><circle id="2015" cx="658.5" cy="314.3" r="1.8" fill="#2C8465"></circle><circle id="2016" cx="664.5" cy="314.5" r="1.8" fill="#2C8465"></circle><circle id="2017" cx="670.6" cy="314.9" r="1.8" fill="#2C8465"></circle><circle id="2018" cx="676.6" cy="315.7" r="1.8" fill="#2C8465"></circle><circle id="2019" cx="682.6" cy="316.5" r="1.8" fill="#2C8465"></circle><circle id="2020" cx="688.7" cy="317.2" r="1.8" fill="#2C8465"></circle><circle id="2021" cx="694.7" cy="317.5" r="1.8" fill="#2C8465"></circle></g><g id="markers__Guinea-worm"><circle id="1980" cx="447.5" cy="291.3" r="1.8" fill="#996D39"></circle><circle id="1981" cx="453.5" cy="304.8" r="1.8" fill="#996D39"></circle><circle id="1982" cx="459.5" cy="283.7" r="1.8" fill="#996D39"></circle><circle id="1983" cx="465.6" cy="281.9" r="1.8" fill="#996D39"></circle><circle id="1984" cx="471.6" cy="275.8" r="1.8" fill="#996D39"></circle><circle id="1985" cx="477.6" cy="282.4" r="1.8" fill="#996D39"></circle><circle id="1986" cx="483.6" cy="286.1" r="1.8" fill="#996D39"></circle><circle id="1987" cx="489.7" cy="250.1" r="1.8" fill="#996D39"></circle><circle id="1988" cx="495.7" cy="227.9" r="1.8" fill="#996D39"></circle><circle id="1989" cx="501.7" cy="224.5" r="1.8" fill="#996D39"></circle><circle id="1990" cx="507.8" cy="232" r="1.8" fill="#996D39"></circle><circle id="1991" cx="513.8" cy="234.8" r="1.8" fill="#996D39"></circle><circle id="1992" cx="519.8" cy="242.6" r="1.8" fill="#996D39"></circle><circle id="1993" cx="525.9" cy="252.7" r="1.8" fill="#996D39"></circle><circle id="1994" cx="531.9" cy="259.6" r="1.8" fill="#996D39"></circle><circle id="1995" cx="537.9" cy="264.6" r="1.8" fill="#996D39"></circle><circle id="1996" cx="543.9" cy="261.2" r="1.8" fill="#996D39"></circle><circle id="1997" cx="550" cy="275.2" r="1.8" fill="#996D39"></circle><circle id="1998" cx="556" cy="275" r="1.8" fill="#996D39"></circle><circle id="1999" cx="562" cy="270.8" r="1.8" fill="#996D39"></circle><circle id="2000" cx="568.1" cy="275.9" r="1.8" fill="#996D39"></circle><circle id="2001" cx="574.1" cy="279.4" r="1.8" fill="#996D39"></circle><circle id="2002" cx="580.1" cy="282.6" r="1.8" fill="#996D39"></circle><circle id="2003" cx="586.2" cy="293.6" r="1.8" fill="#996D39"></circle><circle id="2004" cx="592.2" cy="308.1" r="1.8" fill="#996D39"></circle><circle id="2005" cx="598.2" cy="316.5" r="1.8" fill="#996D39"></circle><circle id="2006" cx="604.2" cy="298.7" r="1.8" fill="#996D39"></circle><circle id="2007" cx="610.3" cy="318.7" r="1.8" fill="#996D39"></circle><circle id="2008" cx="616.3" cy="333.9" r="1.8" fill="#996D39"></circle><circle id="2009" cx="622.3" cy="341.6" r="1.8" fill="#996D39"></circle><circle id="2010" cx="628.4" cy="353.6" r="1.8" fill="#996D39"></circle><circle id="2011" cx="634.4" cy="364.6" r="1.8" fill="#996D39"></circle><circle id="2012" cx="640.4" cy="378.5" r="1.8" fill="#996D39"></circle><circle id="2013" cx="646.5" cy="405.4" r="1.8" fill="#996D39"></circle><circle id="2014" cx="652.5" cy="408.8" r="1.8" fill="#996D39"></circle><circle id="2015" cx="658.5" cy="445.1" r="1.8" fill="#996D39"></circle><circle id="2016" cx="664.5" cy="442.4" r="1.8" fill="#996D39"></circle><circle id="2017" cx="670.6" cy="438.6" r="1.8" fill="#996D39"></circle><circle id="2018" cx="676.6" cy="440" r="1.8" fill="#996D39"></circle><circle id="2019" cx="682.6" cy="426.4" r="1.8" fill="#996D39"></circle><circle id="2020" cx="688.7" cy="440.8" r="1.8" fill="#996D39"></circle><circle id="2021" cx="694.7" cy="453" r="1.8" fill="#996D39"></circle><circle id="2022" cx="700.7" cy="456" r="1.8" fill="#996D39"></circle><circle id="2023" cx="706.8" cy="454.5" r="1.8" fill="#996D39"></circle></g><g id="markers__Paralytic-polio"><circle id="1980" cx="447.5" cy="242.9" r="1.8" fill="#B13507"></circle><circle id="1981" cx="453.5" cy="238.3" r="1.8" fill="#B13507"></circle><circle id="1982" cx="459.5" cy="243.3" r="1.8" fill="#B13507"></circle><circle id="1983" cx="465.6" cy="248.6" r="1.8" fill="#B13507"></circle><circle id="1984" cx="471.6" cy="251.3" r="1.8" fill="#B13507"></circle><circle id="1985" cx="477.6" cy="249.4" r="1.8" fill="#B13507"></circle><circle id="1986" cx="483.6" cy="252.7" r="1.8" fill="#B13507"></circle><circle id="1987" cx="489.7" cy="248.8" r="1.8" fill="#B13507"></circle><circle id="1988" cx="495.7" cy="251.6" r="1.8" fill="#B13507"></circle><circle id="1989" cx="501.7" cy="257.5" r="1.8" fill="#B13507"></circle><circle id="1990" cx="507.8" cy="260.1" r="1.8" fill="#B13507"></circle><circle id="1991" cx="513.8" cy="271.5" r="1.8" fill="#B13507"></circle><circle id="1992" cx="519.8" cy="268.6" r="1.8" fill="#B13507"></circle><circle id="1993" cx="525.9" cy="276.4" r="1.8" fill="#B13507"></circle><circle id="1994" cx="531.9" cy="280.4" r="1.8" fill="#B13507"></circle><circle id="1995" cx="537.9" cy="284.7" r="1.8" fill="#B13507"></circle><circle id="1996" cx="543.9" cy="296.1" r="1.8" fill="#B13507"></circle><circle id="1997" cx="550" cy="291.1" r="1.8" fill="#B13507"></circle><circle id="1998" cx="556" cy="286.9" r="1.8" fill="#B13507"></circle><circle id="1999" cx="562" cy="284.4" r="1.8" fill="#B13507"></circle><circle id="2000" cx="568.1" cy="302.7" r="1.8" fill="#B13507"></circle><circle id="2001" cx="574.1" cy="339.9" r="1.8" fill="#B13507"></circle><circle id="2002" cx="580.1" cy="311.7" r="1.8" fill="#B13507"></circle><circle id="2003" cx="586.2" cy="330.3" r="1.8" fill="#B13507"></circle><circle id="2004" cx="592.2" cy="320.5" r="1.8" fill="#B13507"></circle><circle id="2005" cx="598.2" cy="310.6" r="1.8" fill="#B13507"></circle><circle id="2006" cx="604.2" cy="310.7" r="1.8" fill="#B13507"></circle><circle id="2007" cx="610.3" cy="318.5" r="1.8" fill="#B13507"></circle><circle id="2008" cx="616.3" cy="313.8" r="1.8" fill="#B13507"></circle><circle id="2009" cx="622.3" cy="313.2" r="1.8" fill="#B13507"></circle><circle id="2010" cx="628.4" cy="318.1" r="1.8" fill="#B13507"></circle><circle id="2011" cx="634.4" cy="332.2" r="1.8" fill="#B13507"></circle><circle id="2012" cx="640.4" cy="350.8" r="1.8" fill="#B13507"></circle><circle id="2013" cx="646.5" cy="340.5" r="1.8" fill="#B13507"></circle><circle id="2014" cx="652.5" cy="343.6" r="1.8" fill="#B13507"></circle><circle id="2015" cx="658.5" cy="371.9" r="1.8" fill="#B13507"></circle><circle id="2016" cx="664.5" cy="391.2" r="1.8" fill="#B13507"></circle><circle id="2017" cx="670.6" cy="369.7" r="1.8" fill="#B13507"></circle><circle id="2018" cx="676.6" cy="366.5" r="1.8" fill="#B13507"></circle><circle id="2019" cx="682.6" cy="337.6" r="1.8" fill="#B13507"></circle><circle id="2020" cx="688.7" cy="320.6" r="1.8" fill="#B13507"></circle><circle id="2021" cx="694.7" cy="332.9" r="1.8" fill="#B13507"></circle><circle id="2022" cx="700.7" cy="327.2" r="1.8" fill="#B13507"></circle><circle id="2023" cx="706.8" cy="338.3" r="1.8" fill="#B13507"></circle></g><g id="markers__Yaws"><circle id="2008" cx="616.3" cy="282" r="1.8" fill="#4C6A9C"></circle><circle id="2009" cx="622.3" cy="277.6" r="1.8" fill="#4C6A9C"></circle><circle id="2010" cx="628.4" cy="274.6" r="1.8" fill="#4C6A9C"></circle><circle id="2011" cx="634.4" cy="284" r="1.8" fill="#4C6A9C"></circle><circle id="2012" cx="640.4" cy="284.7" r="1.8" fill="#4C6A9C"></circle><circle id="2013" cx="646.5" cy="281" r="1.8" fill="#4C6A9C"></circle><circle id="2014" cx="652.5" cy="284.2" r="1.8" fill="#4C6A9C"></circle><circle id="2015" cx="658.5" cy="286.1" r="1.8" fill="#4C6A9C"></circle><circle id="2016" cx="664.5" cy="280.9" r="1.8" fill="#4C6A9C"></circle></g></g></g><g id="footer" class="SourcesFooter" style="fill:#5b5b5b"><g id="sources" class="markdown-text-wrap"><text x="16.0" y="544.5" style="font-size:13.5px;line-height:1.2"><tspan x="16" y="544.5"><tspan style="font-weight:700">Data source:</tspan> World Health Organization - Global Health Observatory (2024) and other sources</tspan></text></g><g id="note" class="markdown-text-wrap"><text x="16.0" y="562.7" style="font-size:13.5px;line-height:1.2"><tspan x="16" y="562.7"><tspan style="font-weight:700">Note:</tspan> Reported case numbers are limited by surveillance capacity.</tspan></text></g><text id="origin-url" font-size="13.50" x="16.0" y="580.9"><tspan x="16" y="580.8950000000001"><a target="_blank" style="fill: #5b5b5b;" href="https://ourworldindata.org/eradication-of-diseases">OurWorldinData.org/eradication-of-diseases</a> | <a target="_blank" style="fill: #5b5b5b;" href="https://creativecommons.org/licenses/by/4.0/">CC BY</a></tspan></text></g></svg>