<svg xmlns="http://www.w3.org/2000/svg" version="1.1" style="font-family:Lato, &#x27;Helvetica Neue&#x27;, Helvetica, Arial, &#x27;Liberation Sans&#x27;, sans-serif;font-size:18px;background-color:#ffffff;text-rendering:geometricPrecision;-webkit-font-smoothing:antialiased" width="850" height="600" viewBox="0 0 850 600"><defs><style>@import url(https://ourworldindata.org/fonts.css)</style></defs><defs><pattern id="noDataPattern" patternUnits="userSpaceOnUse" width="4" height="4" patternTransform="rotate(-45 2 2)"><path d="M -1,2 l 6,0" stroke="#ccc" stroke-width="0.7"></path></pattern></defs><g id="header" class="HeaderView"><g id="logo" transform="translate(769, 16) scale(1)"><svg className="owidLogo" xmlns="http://www.w3.org/2000/svg" width="65" height="36" viewBox="0 0 65 36"  fill="none"><path fill="#002147" d="M0 0h64.8v36H0z"/><path fill="#CE261E" d="M0 33.3h64.8V36H0z"/><path fill="#fff" d="M13.796 10.575c0 .636-.106 1.226-.318 1.77a4.193 4.193 0 0 1-.894 1.404 4.084 4.084 0 0 1-1.386.93c-.54.22-1.138.33-1.794.33-.656 0-1.256-.11-1.8-.33a4.149 4.149 0 0 1-1.392-.93 4.193 4.193 0 0 1-.894-1.404A4.833 4.833 0 0 1 5 10.575c0-.636.106-1.224.318-1.764a4.18 4.18 0 0 1 .894-1.41 4.076 4.076 0 0 1 1.392-.924 4.684 4.684 0 0 1 1.8-.336c.656 0 1.254.112 1.794.336.54.224 1.002.534 1.386.93.384.392.682.86.894 1.404.212.54.318 1.128.318 1.764Zm-1.656 0c0-.476-.064-.902-.192-1.278a2.671 2.671 0 0 0-.54-.966 2.332 2.332 0 0 0-.864-.606 2.94 2.94 0 0 0-1.14-.21c-.424 0-.806.07-1.146.21-.34.14-.63.342-.87.606a2.742 2.742 0 0 0-.546.966 3.955 3.955 0 0 0-.192 1.278c0 .476.064.904.192 1.284.128.376.31.696.546.96.24.26.53.46.87.6.34.14.722.21 1.146.21.424 0 .804-.07 1.14-.21.34-.14.628-.34.864-.6.236-.264.416-.584.54-.96a4.01 4.01 0 0 0 .192-1.284ZM16.104 8.757v3.912c0 .376.086.668.258.876.176.204.438.306.786.306.256 0 .496-.056.72-.168a2.58 2.58 0 0 0 .636-.474V8.757h1.482v6.156h-.906c-.192 0-.318-.09-.378-.27l-.102-.492a4.65 4.65 0 0 1-.396.354 2.577 2.577 0 0 1-.438.27 2.35 2.35 0 0 1-.498.168 2.345 2.345 0 0 1-.57.066c-.336 0-.634-.056-.894-.168a1.821 1.821 0 0 1-.648-.486 2.157 2.157 0 0 1-.402-.738 3.233 3.233 0 0 1-.132-.948V8.757h1.482ZM21.328 14.913V8.757h.87c.152 0 .258.028.318.084.06.056.1.152.12.288l.09.744c.22-.38.478-.68.774-.9.296-.22.628-.33.996-.33.304 0 .556.07.756.21l-.192 1.11c-.012.072-.038.124-.078.156a.278.278 0 0 1-.162.042 1.01 1.01 0 0 1-.246-.042 1.646 1.646 0 0 0-.414-.042c-.308 0-.572.086-.792.258-.22.168-.406.416-.558.744v3.834h-1.482ZM27.347 6.237h1.356a.57.57 0 0 1 .348.102c.096.064.16.152.192.264l1.476 5.19c.036.128.068.268.096.42.032.148.062.306.09.474a5.968 5.968 0 0 1 .228-.894l1.704-5.19a.575.575 0 0 1 .186-.252.543.543 0 0 1 .348-.114h.474a.57.57 0 0 1 .348.102.497.497 0 0 1 .192.264l1.692 5.19c.088.256.164.54.228.852.028-.156.056-.306.084-.45.032-.144.064-.278.096-.402l1.476-5.19c.028-.1.09-.186.186-.258a.563.563 0 0 1 .348-.108h1.266l-2.694 8.676h-1.458l-1.896-5.928-.078-.246a9.504 9.504 0 0 1-.072-.282c-.024.1-.05.194-.078.282-.024.088-.048.17-.072.246l-1.914 5.928H30.04l-2.694-8.676ZM42.771 8.661c.46 0 .876.074 1.248.222.376.148.696.358.96.63s.468.604.612.996c.144.392.216.83.216 1.314 0 .488-.072.928-.216 1.32a2.85 2.85 0 0 1-.612 1.002 2.653 2.653 0 0 1-.96.636 3.35 3.35 0 0 1-1.248.222c-.46 0-.878-.074-1.254-.222a2.712 2.712 0 0 1-.966-.636 2.922 2.922 0 0 1-.618-1.002 3.807 3.807 0 0 1-.216-1.32c0-.484.072-.922.216-1.314.148-.392.354-.724.618-.996.268-.272.59-.482.966-.63a3.397 3.397 0 0 1 1.254-.222Zm0 5.202c.512 0 .89-.172 1.134-.516.248-.344.372-.848.372-1.512s-.124-1.17-.372-1.518c-.244-.348-.622-.522-1.134-.522-.52 0-.904.176-1.152.528-.248.348-.372.852-.372 1.512s.124 1.164.372 1.512c.248.344.632.516 1.152.516ZM46.723 14.913V8.757h.87c.152 0 .258.028.318.084.06.056.1.152.12.288l.09.744c.22-.38.478-.68.774-.9.296-.22.628-.33.996-.33.304 0 .556.07.756.21l-.192 1.11c-.012.072-.038.124-.078.156a.278.278 0 0 1-.162.042 1.01 1.01 0 0 1-.246-.042 1.646 1.646 0 0 0-.414-.042c-.308 0-.572.086-.792.258-.22.168-.406.416-.558.744v3.834h-1.482ZM52.96 5.997v8.916h-1.482V5.997h1.482ZM58.732 14.913c-.192 0-.318-.09-.378-.27l-.12-.594a3.68 3.68 0 0 1-.402.39c-.14.116-.292.216-.456.3-.16.084-.334.148-.522.192a2.372 2.372 0 0 1-.6.072c-.336 0-.644-.07-.924-.21a2.098 2.098 0 0 1-.726-.606 3.033 3.033 0 0 1-.468-.99 5.072 5.072 0 0 1-.162-1.344c0-.456.062-.88.186-1.272s.302-.732.534-1.02c.232-.288.51-.512.834-.672a2.384 2.384 0 0 1 1.092-.246 2.103 2.103 0 0 1 1.536.606V5.997h1.482v8.916h-.906Zm-1.974-1.086c.308 0 .57-.064.786-.192.216-.128.42-.31.612-.546v-2.76a1.452 1.452 0 0 0-.552-.432 1.597 1.597 0 0 0-.636-.126c-.224 0-.428.042-.612.126a1.21 1.21 0 0 0-.462.384c-.124.168-.22.384-.288.648-.068.26-.102.568-.102.924 0 .36.028.666.084.918.06.248.144.452.252.612.108.156.24.27.396.342.156.068.33.102.522.102ZM16.331 20.757v6.156H14.85v-6.156h1.481Zm.223-1.794a.844.844 0 0 1-.078.36.963.963 0 0 1-.21.294.995.995 0 0 1-.3.204.963.963 0 0 1-.372.072.948.948 0 0 1-.367-.072 1.018 1.018 0 0 1-.498-.498.963.963 0 0 1 0-.732.995.995 0 0 1 .205-.3.929.929 0 0 1 .293-.198.899.899 0 0 1 .738 0 .912.912 0 0 1 .3.198.943.943 0 0 1 .288.672ZM17.771 26.913v-6.156h.906c.192 0 .318.09.378.27l.102.486a2.934 2.934 0 0 1 .828-.618c.156-.076.322-.134.498-.174.176-.04.368-.06.576-.06.336 0 .634.058.894.174.26.112.476.272.648.48.176.204.308.45.396.738.092.284.138.598.138.942v3.918h-1.482v-3.918c0-.376-.088-.666-.264-.87-.172-.208-.432-.312-.78-.312-.256 0-.496.058-.72.174a2.58 2.58 0 0 0-.636.474v4.452h-1.482ZM34.22 22.575c0 .636-.106 1.22-.318 1.752-.212.532-.51.99-.894 1.374a4 4 0 0 1-1.386.894 4.87 4.87 0 0 1-1.794.318h-3.312v-8.676h3.312a4.79 4.79 0 0 1 1.794.324 4 4 0 0 1 1.386.894c.384.38.682.836.894 1.368.212.532.318 1.116.318 1.752Zm-1.65 0c0-.476-.064-.902-.192-1.278a2.68 2.68 0 0 0-.546-.96 2.332 2.332 0 0 0-.864-.606 2.94 2.94 0 0 0-1.14-.21h-1.686v6.108h1.686c.424 0 .804-.07 1.14-.21.34-.14.628-.34.864-.6a2.75 2.75 0 0 0 .546-.96 4.01 4.01 0 0 0 .192-1.284ZM39.98 26.913h-.665c-.14 0-.25-.02-.33-.06-.08-.044-.14-.13-.18-.258l-.132-.438c-.156.14-.31.264-.462.372a2.804 2.804 0 0 1-.462.264c-.16.072-.33.126-.51.162-.18.036-.38.054-.6.054-.26 0-.5-.034-.72-.102a1.618 1.618 0 0 1-.57-.318 1.448 1.448 0 0 1-.366-.522 1.852 1.852 0 0 1-.132-.726c0-.232.06-.46.18-.684.124-.228.328-.432.612-.612.284-.184.662-.336 1.134-.456.472-.12 1.058-.188 1.758-.204v-.36c0-.412-.088-.716-.264-.912-.172-.2-.424-.3-.756-.3a1.837 1.837 0 0 0-1.02.276c-.116.068-.224.13-.324.186a.664.664 0 0 1-.33.084.429.429 0 0 1-.258-.078.614.614 0 0 1-.174-.192l-.27-.474c.708-.648 1.562-.972 2.562-.972.36 0 .68.06.96.18.284.116.524.28.72.492.196.208.344.458.444.75.104.292.156.612.156.96v3.888Zm-2.88-.924c.153 0 .293-.014.42-.042.129-.028.249-.07.36-.126.117-.056.227-.124.33-.204.109-.084.217-.182.325-.294v-1.038c-.432.02-.794.058-1.086.114-.288.052-.52.12-.696.204a.923.923 0 0 0-.378.294.664.664 0 0 0-.108.366c0 .26.076.446.228.558.156.112.358.168.606.168ZM43.22 27.01c-.532 0-.942-.15-1.23-.45-.288-.305-.432-.723-.432-1.255v-3.438h-.624a.31.31 0 0 1-.21-.078c-.056-.052-.084-.13-.084-.234v-.588l.99-.162.312-1.68a.302.302 0 0 1 .108-.186.365.365 0 0 1 .222-.066h.768v1.938h1.62v1.056h-1.62v3.336c0 .192.048.342.144.45a.488.488 0 0 0 .384.162c.092 0 .168-.01.228-.03.064-.024.118-.048.162-.072.048-.024.09-.046.126-.066a.194.194 0 0 1 .108-.036.16.16 0 0 1 .108.036c.028.02.058.052.09.096l.444.72c-.216.18-.464.316-.744.408a2.77 2.77 0 0 1-.87.138ZM50.423 26.913h-.666c-.14 0-.25-.02-.33-.06-.08-.044-.14-.13-.18-.258l-.132-.438c-.156.14-.31.264-.462.372a2.804 2.804 0 0 1-.462.264c-.16.072-.33.126-.51.162-.18.036-.38.054-.6.054-.26 0-.5-.034-.72-.102a1.618 1.618 0 0 1-.57-.318 1.448 1.448 0 0 1-.366-.522 1.852 1.852 0 0 1-.132-.726c0-.232.06-.46.18-.684.124-.228.328-.432.612-.612.284-.184.662-.336 1.134-.456.472-.12 1.058-.188 1.758-.204v-.36c0-.412-.088-.716-.264-.912-.172-.2-.424-.3-.756-.3a1.837 1.837 0 0 0-1.02.276c-.116.068-.224.13-.324.186a.664.664 0 0 1-.33.084.429.429 0 0 1-.258-.078.614.614 0 0 1-.174-.192l-.27-.474c.708-.648 1.562-.972 2.562-.972.36 0 .68.06.96.18.284.116.524.28.72.492.196.208.344.458.444.75.104.292.156.612.156.96v3.888Zm-2.88-.924c.152 0 .292-.014.42-.042.128-.028.248-.07.36-.126.116-.056.226-.124.33-.204.108-.084.216-.182.324-.294v-1.038c-.432.02-.794.058-1.086.114-.288.052-.52.12-.696.204a.923.923 0 0 0-.378.294.664.664 0 0 0-.108.366c0 .26.076.446.228.558.156.112.358.168.606.168Z"/></svg></g><a id="title" href="https://ourworldindata.org/grapher/whale-catch" style="font-family:&#x27;Playfair Display&#x27;, Georgia, &#x27;Times New Roman&#x27;, &#x27;Liberation Serif&#x27;, serif" target="_blank" rel="noopener"><text font-size="25.00" font-weight="600" x="16.0" y="40.3" fill="#2d2e2d"><tspan x="16" y="40.25">Number of whales killed, World</tspan></text></a></g><g id="chart-area" style="pointer-events:none"><g id="horizontal-axis" class="HorizontalAxis"><g id="tick-marks"><line id="1900" x1="61" y1="531.9" x2="61" y2="537.4" stroke="#999" stroke-width="1"></line><line id="2018" x1="643.4" y1="531.9" x2="643.4" y2="537.4" stroke="#999" stroke-width="1"></line><line id="1920" x1="159.7" y1="531.9" x2="159.7" y2="537.4" stroke="#999" stroke-width="1"></line><line id="1940" x1="258.5" y1="531.9" x2="258.5" y2="537.4" stroke="#999" stroke-width="1"></line><line id="1960" x1="357.2" y1="531.9" x2="357.2" y2="537.4" stroke="#999" stroke-width="1"></line><line id="1980" x1="455.9" y1="531.9" x2="455.9" y2="537.4" stroke="#999" stroke-width="1"></line><line id="2000" x1="554.6" y1="531.9" x2="554.6" y2="537.4" stroke="#999" stroke-width="1"></line></g><g id="tick-labels"><text x="61.04" y="550.4" fill="#5b5b5b" text-anchor="start" font-size="13">1900</text><text x="643.41" y="550.4" fill="#5b5b5b" text-anchor="end" font-size="13">2018</text><text x="159.7" y="550.4" fill="#5b5b5b" text-anchor="middle" font-size="13">1920</text><text x="258.5" y="550.4" fill="#5b5b5b" text-anchor="middle" font-size="13">1940</text><text x="357.2" y="550.4" fill="#5b5b5b" text-anchor="middle" font-size="13">1960</text><text x="455.9" y="550.4" fill="#5b5b5b" text-anchor="middle" font-size="13">1980</text><text x="554.6" y="550.4" fill="#5b5b5b" text-anchor="middle" font-size="13">2000</text></g></g><g id="vertical-axis" class="VerticalAxis"><g id="tick-labels"><text x="56.04" y="532.4" dy=".32em" text-anchor="end" fill="#5b5b5b" font-size="13">0</text><text x="56.04" y="476.6" dy=".32em" text-anchor="end" fill="#5b5b5b" font-size="13">10,000</text><text x="56.04" y="420.9" dy=".32em" text-anchor="end" fill="#5b5b5b" font-size="13">20,000</text><text x="56.04" y="365.1" dy=".32em" text-anchor="end" fill="#5b5b5b" font-size="13">30,000</text><text x="56.04" y="309.3" dy=".32em" text-anchor="end" fill="#5b5b5b" font-size="13">40,000</text><text x="56.04" y="253.5" dy=".32em" text-anchor="end" fill="#5b5b5b" font-size="13">50,000</text><text x="56.04" y="197.8" dy=".32em" text-anchor="end" fill="#5b5b5b" font-size="13">60,000</text><text x="56.04" y="142" dy=".32em" text-anchor="end" fill="#5b5b5b" font-size="13">70,000</text><text x="56.04" y="86.2" dy=".32em" text-anchor="end" fill="#5b5b5b" font-size="13">80,000</text></g></g><g id="horizontal-grid-lines" class="AxisGridLines horizontalLines"><line id="0" x1="61.04" y1="532.4" x2="643.41" y2="532.4" stroke="#999"></line><line id="10,000" x1="61.04" y1="476.6" x2="643.41" y2="476.6" stroke="#ddd" stroke-dasharray="4,4"></line><line id="20,000" x1="61.04" y1="420.9" x2="643.41" y2="420.9" stroke="#ddd" stroke-dasharray="4,4"></line><line id="30,000" x1="61.04" y1="365.1" x2="643.41" y2="365.1" stroke="#ddd" stroke-dasharray="4,4"></line><line id="40,000" x1="61.04" y1="309.3" x2="643.41" y2="309.3" stroke="#ddd" stroke-dasharray="4,4"></line><line id="50,000" x1="61.04" y1="253.5" x2="643.41" y2="253.5" stroke="#ddd" stroke-dasharray="4,4"></line><line id="60,000" x1="61.04" y1="197.8" x2="643.41" y2="197.8" stroke="#ddd" stroke-dasharray="4,4"></line><line id="70,000" x1="61.04" y1="142" x2="643.41" y2="142" stroke="#ddd" stroke-dasharray="4,4"></line><line id="80,000" x1="61.04" y1="86.2" x2="643.41" y2="86.2" stroke="#ddd" stroke-dasharray="4,4"></line></g><g id="line-labels" class="LineLabels"><g id="connectors"><path id="All-whale-species" d="M647.41,523.6 H648.9554545454545 V362.2500000000001 H664.41" stroke="#999" stroke-width="0.5" fill="none"></path><path id="Minke-whale" d="M647.41,526.4 H650.500909090909 V380.5500000000001 H664.41" stroke="#999" stroke-width="0.5" fill="none"></path><path id="Fin-whale" d="M647.41,531.5 H652.0463636363636 V398.85000000000014 H664.41" stroke="#999" stroke-width="0.5" fill="none"></path><path id="Sei-whale" d="M647.41,531.6 H653.5918181818181 V417.15000000000015 H664.41" stroke="#999" stroke-width="0.5" fill="none"></path><path id="Gray-whale" d="M647.41,531.8 H655.1372727272726 V435.45000000000016 H664.41" stroke="#999" stroke-width="0.5" fill="none"></path><path id="Sperm-whale" d="M647.41,532.3 H656.6827272727272 V453.75000000000017 H664.41" stroke="#999" stroke-width="0.5" fill="none"></path><path id="Bryde&#x27;s-whale" d="M647.41,532.4 H658.2281818181817 V472.0500000000002 H664.41" stroke="#999" stroke-width="0.5" fill="none"></path><path id="Unspecified/other-species" d="M647.41,532.4 H659.7736363636363 V490.3500000000002 H664.41" stroke="#999" stroke-width="0.5" fill="none"></path><path id="Blue-whale" d="M647.41,532.4 H661.3190909090908 V508.6500000000002 H664.41" stroke="#999" stroke-width="0.5" fill="none"></path><path id="Humpback-whale" d="M647.41,532.4 H662.8645454545454 V526.9500000000002 H664.41" stroke="#999" stroke-width="0.5" fill="none"></path><path id="Right-whale" d="M647.41,532.4 H662.8645454545454 V545.2500000000001 H664.41" stroke="#999" stroke-width="0.5" fill="none"></path></g><g id="text-annotations"></g><g id="text-labels"><text font-size="13.00" font-weight="400" x="668.4" y="367.1" fill="#4c6a9c" opacity="1" text-anchor="start"><tspan x="668.41" y="367.0600000000001">All whale species</tspan></text><text font-size="13.00" font-weight="400" x="668.4" y="385.4" fill="#2c8465" opacity="1" text-anchor="start"><tspan x="668.41" y="385.3600000000001">Minke whale</tspan></text><text font-size="13.00" font-weight="400" x="668.4" y="403.7" fill="#a2559c" opacity="1" text-anchor="start"><tspan x="668.41" y="403.66000000000014">Fin whale</tspan></text><text font-size="13.00" font-weight="400" x="668.4" y="422.0" fill="#6d3e91" opacity="1" text-anchor="start"><tspan x="668.41" y="421.96000000000015">Sei whale</tspan></text><text font-size="13.00" font-weight="400" x="668.4" y="440.3" fill="#996d39" opacity="1" text-anchor="start"><tspan x="668.41" y="440.26000000000016">Gray whale</tspan></text><text font-size="13.00" font-weight="400" x="668.4" y="458.6" fill="#970046" opacity="1" text-anchor="start"><tspan x="668.41" y="458.5600000000002">Sperm whale</tspan></text><text font-size="13.00" font-weight="400" x="668.4" y="476.9" fill="#b13507" opacity="1" text-anchor="start"><tspan x="668.41" y="476.8600000000002">Bryde&#x27;s whale</tspan></text><text font-size="13.00" font-weight="400" x="668.4" y="495.2" fill="#883039" opacity="1" text-anchor="start"><tspan x="668.41" y="495.1600000000002">Unspecified/other species</tspan></text><text font-size="13.00" font-weight="400" x="668.4" y="513.5" fill="#00295b" opacity="1" text-anchor="start"><tspan x="668.41" y="513.4600000000003">Blue whale</tspan></text><text font-size="13.00" font-weight="400" x="668.4" y="531.8" fill="#9a5129" opacity="1" text-anchor="start"><tspan x="668.41" y="531.7600000000002">Humpback whale</tspan></text><text font-size="13.00" font-weight="400" x="668.4" y="550.1" fill="#008291" opacity="1" text-anchor="start"><tspan x="668.41" y="550.0600000000002">Right whale</tspan></text></g></g><g id="lines"><path fill="none" stroke-linecap="butt" stroke-linejoin="round" stroke="#ffffff" id="outline__Sperm-whale" stroke-width="2.5" d="M61 532.4L66 532.4L70.9 532.4L75.8 531.6L80.8 532.3L85.7 532.3L90.7 532.3L95.6 532.3L100.5 532.3L105.5 532L110.4 532L115.3 531L120.3 528.7L125.2 528.3L130.1 526.5L135.1 526.4L140 526.1L144.9 529.8L149.9 527.1L154.8 525.9L159.7 527.8L164.7 527.9L169.6 526.3L174.6 526.8L179.5 526.4L184.4 523.5L189.4 523L194.3 523.5L199.2 520.6L204.2 519.4L209.1 523L214 529.2L219 527.2L223.9 521.3L228.8 520.1L233.8 519.4L238.7 500.5L243.6 490.7L248.6 501.3L253.5 505.3L258.5 511.5L263.4 504.8L268.3 505.3L273.3 501.3L278.2 517.9L283.1 520.6L288.1 506.6L293 481L297.9 469.8L302.9 489.8L307.8 474.4L312.7 416.4L317.7 484.6L322.6 476.3L327.5 432.4L332.5 439.5L337.4 442.9L342.4 415.8L347.3 417.8L352.2 425.6L357.2 418.2L362.1 405.9L367 396L372 337.3L376.9 344.4L381.8 359.3L386.8 331.1L391.7 360.6L396.6 374.6L401.6 351.6L406.5 372L411.4 370.4L416.4 419.3L421.3 422.3L426.3 405L431.2 424.7L436.1 451.7L441.1 461.4L446 473.6L450.9 507.6L455.9 520.7L460.8 524.3L465.7 528.9L470.7 530.1L475.6 529.9L480.5 530.2L485.5 531.3L490.4 531.3L495.3 532.4L500.3 532.4L505.2 532.4L510.2 532.4L515.1 532.4L520 532.4L525 532.4L529.9 532.4L534.8 532.4L539.8 532.4L544.7 532.4L549.6 532.4L554.6 532.4L559.5 532.4L564.4 532.4L569.4 532.3L574.3 532.4L579.3 532.4L584.2 532.4L589.1 532.4L594.1 532.4L599 532.4L603.9 532.3L608.9 532.3L613.8 532.3L618.7 532.3L623.7 532.3L628.6 532.3L633.5 532.3L638.5 532.3L643.4 532.3"></path><path fill="none" stroke-linecap="butt" stroke-linejoin="round" stroke="#970046" id="line__Sperm-whale" stroke-width="1.5" stroke-opacity="1" d="M61 532.4L66 532.4L70.9 532.4L75.8 531.6L80.8 532.3L85.7 532.3L90.7 532.3L95.6 532.3L100.5 532.3L105.5 532L110.4 532L115.3 531L120.3 528.7L125.2 528.3L130.1 526.5L135.1 526.4L140 526.1L144.9 529.8L149.9 527.1L154.8 525.9L159.7 527.8L164.7 527.9L169.6 526.3L174.6 526.8L179.5 526.4L184.4 523.5L189.4 523L194.3 523.5L199.2 520.6L204.2 519.4L209.1 523L214 529.2L219 527.2L223.9 521.3L228.8 520.1L233.8 519.4L238.7 500.5L243.6 490.7L248.6 501.3L253.5 505.3L258.5 511.5L263.4 504.8L268.3 505.3L273.3 501.3L278.2 517.9L283.1 520.6L288.1 506.6L293 481L297.9 469.8L302.9 489.8L307.8 474.4L312.7 416.4L317.7 484.6L322.6 476.3L327.5 432.4L332.5 439.5L337.4 442.9L342.4 415.8L347.3 417.8L352.2 425.6L357.2 418.2L362.1 405.9L367 396L372 337.3L376.9 344.4L381.8 359.3L386.8 331.1L391.7 360.6L396.6 374.6L401.6 351.6L406.5 372L411.4 370.4L416.4 419.3L421.3 422.3L426.3 405L431.2 424.7L436.1 451.7L441.1 461.4L446 473.6L450.9 507.6L455.9 520.7L460.8 524.3L465.7 528.9L470.7 530.1L475.6 529.9L480.5 530.2L485.5 531.3L490.4 531.3L495.3 532.4L500.3 532.4L505.2 532.4L510.2 532.4L515.1 532.4L520 532.4L525 532.4L529.9 532.4L534.8 532.4L539.8 532.4L544.7 532.4L549.6 532.4L554.6 532.4L559.5 532.4L564.4 532.4L569.4 532.3L574.3 532.4L579.3 532.4L584.2 532.4L589.1 532.4L594.1 532.4L599 532.4L603.9 532.3L608.9 532.3L613.8 532.3L618.7 532.3L623.7 532.3L628.6 532.3L633.5 532.3L638.5 532.3L643.4 532.3"></path><path fill="none" stroke-linecap="butt" stroke-linejoin="round" stroke="#ffffff" id="outline__Right-whale" stroke-width="2.5" d="M61 532.4L66 532.4L70.9 532.4L75.8 532.4L80.8 532.4L85.7 532.3L90.7 531.9L95.6 531.7L100.5 531.9L105.5 531.8L110.4 531.7L115.3 531.8L120.3 532.2L125.2 531.9L130.1 532.2L135.1 532.2L140 532.2L144.9 532.1L149.9 532.3L154.8 532.3L159.7 532.3L164.7 532.3L169.6 532.3L174.6 532.3L179.5 532.3L184.4 532.2L189.4 532.2L194.3 532.3L199.2 532.3L204.2 532.3L209.1 532.4L214 532.4L219 532.2L223.9 532.3L228.8 532.3L233.8 532.2L238.7 532.4L243.6 532.3L248.6 532.3L253.5 532.4L258.5 532.4L263.4 532.4L268.3 532.4L273.3 532.3L278.2 532.4L283.1 532.4L288.1 532.4L293 532.4L297.9 532.4L302.9 532.4L307.8 532.4L312.7 532.3L317.7 532.3L322.6 532.3L327.5 532.2L332.5 532.3L337.4 532.1L342.4 532.3L347.3 532.4L352.2 532L357.2 532.4L362.1 524.8L367 528.3L372 530.3L376.9 531.9L381.8 530.4L386.8 531.5L391.7 532.4L396.6 532.4L401.6 532L406.5 532.4L411.4 532.4L416.4 532.4L421.3 532.4L426.3 532.4L431.2 532.4L436.1 532.4L441.1 532.4L446 532.4L450.9 532.4L455.9 532.4L460.8 532.4L465.7 532.4L470.7 532.4L475.6 532.4L480.5 532.4L485.5 532.4L490.4 532.4L495.3 532.4L500.3 532.4L505.2 532.4L510.2 532.4L515.1 532.4L520 532.4L525 532.4L529.9 532.4L534.8 532.4L539.8 532.4L544.7 532.4L549.6 532.4L554.6 532.4L559.5 532.4L564.4 532.4L569.4 532.4L574.3 532.4L579.3 532.4L584.2 532.4L589.1 532.4L594.1 532.4L599 532.4L603.9 532.4L608.9 532.4L613.8 532.4L618.7 532.4L623.7 532.4L628.6 532.4L633.5 532.4L638.5 532.4L643.4 532.4"></path><path fill="none" stroke-linecap="butt" stroke-linejoin="round" stroke="#008291" id="line__Right-whale" stroke-width="1.5" stroke-opacity="1" d="M61 532.4L66 532.4L70.9 532.4L75.8 532.4L80.8 532.4L85.7 532.3L90.7 531.9L95.6 531.7L100.5 531.9L105.5 531.8L110.4 531.7L115.3 531.8L120.3 532.2L125.2 531.9L130.1 532.2L135.1 532.2L140 532.2L144.9 532.1L149.9 532.3L154.8 532.3L159.7 532.3L164.7 532.3L169.6 532.3L174.6 532.3L179.5 532.3L184.4 532.2L189.4 532.2L194.3 532.3L199.2 532.3L204.2 532.3L209.1 532.4L214 532.4L219 532.2L223.9 532.3L228.8 532.3L233.8 532.2L238.7 532.4L243.6 532.3L248.6 532.3L253.5 532.4L258.5 532.4L263.4 532.4L268.3 532.4L273.3 532.3L278.2 532.4L283.1 532.4L288.1 532.4L293 532.4L297.9 532.4L302.9 532.4L307.8 532.4L312.7 532.3L317.7 532.3L322.6 532.3L327.5 532.2L332.5 532.3L337.4 532.1L342.4 532.3L347.3 532.4L352.2 532L357.2 532.4L362.1 524.8L367 528.3L372 530.3L376.9 531.9L381.8 530.4L386.8 531.5L391.7 532.4L396.6 532.4L401.6 532L406.5 532.4L411.4 532.4L416.4 532.4L421.3 532.4L426.3 532.4L431.2 532.4L436.1 532.4L441.1 532.4L446 532.4L450.9 532.4L455.9 532.4L460.8 532.4L465.7 532.4L470.7 532.4L475.6 532.4L480.5 532.4L485.5 532.4L490.4 532.4L495.3 532.4L500.3 532.4L505.2 532.4L510.2 532.4L515.1 532.4L520 532.4L525 532.4L529.9 532.4L534.8 532.4L539.8 532.4L544.7 532.4L549.6 532.4L554.6 532.4L559.5 532.4L564.4 532.4L569.4 532.4L574.3 532.4L579.3 532.4L584.2 532.4L589.1 532.4L594.1 532.4L599 532.4L603.9 532.4L608.9 532.4L613.8 532.4L618.7 532.4L623.7 532.4L628.6 532.4L633.5 532.4L638.5 532.4L643.4 532.4"></path><path fill="none" stroke-linecap="butt" stroke-linejoin="round" stroke="#ffffff" id="outline__Humpback-whale" stroke-width="2.5" d="M61 531.6L66 530.6L70.9 530L75.8 528.3L80.8 527.5L85.7 528.8L90.7 528.1L95.6 523L100.5 510.5L105.5 496.3L110.4 470.6L115.3 459.2L120.3 463.7L125.2 469.2L130.1 484.2L135.1 507.4L140 525.7L144.9 528.7L149.9 528.8L154.8 526L159.7 524.8L164.7 528.5L169.6 517.3L174.6 518.4L179.5 521L184.4 511.4L189.4 515.6L194.3 518.1L199.2 521.4L204.2 524.2L209.1 522.5L214 529.5L219 528.3L223.9 524.6L228.8 512.5L233.8 503L238.7 481.8L243.6 490.7L248.6 510.5L253.5 529.5L258.5 514.7L263.4 530.9L268.3 530.7L273.3 530.8L278.2 530.5L283.1 529.7L288.1 530.8L293 530.8L297.9 528.9L302.9 499L307.8 500.2L312.7 505.1L317.7 512.2L322.6 515.3L327.5 508.1L332.5 496.9L337.4 514L342.4 503.9L347.3 484.7L352.2 441.8L357.2 447.6L362.1 489.3L367 500.8L372 512.5L376.9 522.8L381.8 517.2L386.8 525.8L391.7 526.6L396.6 532.1L401.6 532.3L406.5 532.2L411.4 532.3L416.4 532.4L421.3 532.4L426.3 532.3L431.2 532.4L436.1 532.4L441.1 532.4L446 532.3L450.9 532.4L455.9 532.4L460.8 532.4L465.7 532.4L470.7 532.4L475.6 532.4L480.5 532.4L485.5 532.4L490.4 532.4L495.3 532.4L500.3 532.4L505.2 532.4L510.2 532.4L515.1 532.4L520 532.4L525 532.4L529.9 532.4L534.8 532.4L539.8 532.4L544.7 532.4L549.6 532.4L554.6 532.4L559.5 532.4L564.4 532.4L569.4 532.4L574.3 532.4L579.3 532.4L584.2 532.4L589.1 532.4L594.1 532.4L599 532.4L603.9 532.3L608.9 532.3L613.8 532.3L618.7 532.3L623.7 532.3L628.6 532.4L633.5 532.4L638.5 532.4L643.4 532.4"></path><path fill="none" stroke-linecap="butt" stroke-linejoin="round" stroke="#9a5129" id="line__Humpback-whale" stroke-width="1.5" stroke-opacity="1" d="M61 531.6L66 530.6L70.9 530L75.8 528.3L80.8 527.5L85.7 528.8L90.7 528.1L95.6 523L100.5 510.5L105.5 496.3L110.4 470.6L115.3 459.2L120.3 463.7L125.2 469.2L130.1 484.2L135.1 507.4L140 525.7L144.9 528.7L149.9 528.8L154.8 526L159.7 524.8L164.7 528.5L169.6 517.3L174.6 518.4L179.5 521L184.4 511.4L189.4 515.6L194.3 518.1L199.2 521.4L204.2 524.2L209.1 522.5L214 529.5L219 528.3L223.9 524.6L228.8 512.5L233.8 503L238.7 481.8L243.6 490.7L248.6 510.5L253.5 529.5L258.5 514.7L263.4 530.9L268.3 530.7L273.3 530.8L278.2 530.5L283.1 529.7L288.1 530.8L293 530.8L297.9 528.9L302.9 499L307.8 500.2L312.7 505.1L317.7 512.2L322.6 515.3L327.5 508.1L332.5 496.9L337.4 514L342.4 503.9L347.3 484.7L352.2 441.8L357.2 447.6L362.1 489.3L367 500.8L372 512.5L376.9 522.8L381.8 517.2L386.8 525.8L391.7 526.6L396.6 532.1L401.6 532.3L406.5 532.2L411.4 532.3L416.4 532.4L421.3 532.4L426.3 532.3L431.2 532.4L436.1 532.4L441.1 532.4L446 532.3L450.9 532.4L455.9 532.4L460.8 532.4L465.7 532.4L470.7 532.4L475.6 532.4L480.5 532.4L485.5 532.4L490.4 532.4L495.3 532.4L500.3 532.4L505.2 532.4L510.2 532.4L515.1 532.4L520 532.4L525 532.4L529.9 532.4L534.8 532.4L539.8 532.4L544.7 532.4L549.6 532.4L554.6 532.4L559.5 532.4L564.4 532.4L569.4 532.4L574.3 532.4L579.3 532.4L584.2 532.4L589.1 532.4L594.1 532.4L599 532.4L603.9 532.3L608.9 532.3L613.8 532.3L618.7 532.3L623.7 532.3L628.6 532.4L633.5 532.4L638.5 532.4L643.4 532.4"></path><path fill="none" stroke-linecap="butt" stroke-linejoin="round" stroke="#ffffff" id="outline__Fin-whale" stroke-width="2.5" d="M61 529.6L66 529.2L70.9 528.6L75.8 526.9L80.8 521.5L85.7 521.3L90.7 525.3L95.6 524.1L100.5 521.9L105.5 519.4L110.4 518.7L115.3 506L120.3 492L125.2 489.9L130.1 490.2L135.1 488.4L140 507.9L144.9 513.9L149.9 504.9L154.8 503.5L159.7 490.1L164.7 511.2L169.6 497.8L174.6 496L179.5 484.7L184.4 454.8L189.4 473L194.3 485.5L199.2 477.9L204.2 450.7L209.1 460.5L214 508.9L219 495.9L223.9 481.1L228.8 452.1L233.8 469.5L238.7 437.7L243.6 357L248.6 406.6L253.5 417.7L258.5 482L263.4 518.4L268.3 522.7L273.3 520.2L278.2 516.5L283.1 475.1L288.1 441L293 402.9L297.9 409.7L302.9 407.4L307.8 408.9L312.7 387.5L317.7 388.3L322.6 362.8L327.5 356.6L332.5 362.6L337.4 359L342.4 360.1L347.3 361.2L352.2 373.4L357.2 363.7L362.1 367.8L367 417.7L372 432.3L376.9 461.2L381.8 491.1L386.8 492.9L391.7 500.9L396.6 497.5L401.6 503.5L406.5 503.1L411.4 511.5L416.4 514.1L421.3 520.3L426.3 521.8L431.2 528L436.1 529.2L441.1 530L446 527.1L450.9 527.7L455.9 529.8L460.8 530.1L465.7 530.5L470.7 530.9L475.6 530.9L480.5 531.2L485.5 532L490.4 532L495.3 532L500.3 532L505.2 532.4L510.2 532.4L515.1 532.4L520 532.4L525 532.4L529.9 532.4L534.8 532.4L539.8 532.4L544.7 532.4L549.6 532.4L554.6 532.4L559.5 532.4L564.4 532.3L569.4 532.3L574.3 532.3L579.3 532.3L584.2 532.3L589.1 532.3L594.1 532.3L599 531.6L603.9 531.5L608.9 532.4L613.8 532.4L618.7 531.6L623.7 531.6L628.6 531.5L633.5 532.3L638.5 532.4L643.4 531.5"></path><path fill="none" stroke-linecap="butt" stroke-linejoin="round" stroke="#a2559c" id="line__Fin-whale" stroke-width="1.5" stroke-opacity="1" d="M61 529.6L66 529.2L70.9 528.6L75.8 526.9L80.8 521.5L85.7 521.3L90.7 525.3L95.6 524.1L100.5 521.9L105.5 519.4L110.4 518.7L115.3 506L120.3 492L125.2 489.9L130.1 490.2L135.1 488.4L140 507.9L144.9 513.9L149.9 504.9L154.8 503.5L159.7 490.1L164.7 511.2L169.6 497.8L174.6 496L179.5 484.7L184.4 454.8L189.4 473L194.3 485.5L199.2 477.9L204.2 450.7L209.1 460.5L214 508.9L219 495.9L223.9 481.1L228.8 452.1L233.8 469.5L238.7 437.7L243.6 357L248.6 406.6L253.5 417.7L258.5 482L263.4 518.4L268.3 522.7L273.3 520.2L278.2 516.5L283.1 475.1L288.1 441L293 402.9L297.9 409.7L302.9 407.4L307.8 408.9L312.7 387.5L317.7 388.3L322.6 362.8L327.5 356.6L332.5 362.6L337.4 359L342.4 360.1L347.3 361.2L352.2 373.4L357.2 363.7L362.1 367.8L367 417.7L372 432.3L376.9 461.2L381.8 491.1L386.8 492.9L391.7 500.9L396.6 497.5L401.6 503.5L406.5 503.1L411.4 511.5L416.4 514.1L421.3 520.3L426.3 521.8L431.2 528L436.1 529.2L441.1 530L446 527.1L450.9 527.7L455.9 529.8L460.8 530.1L465.7 530.5L470.7 530.9L475.6 530.9L480.5 531.2L485.5 532L490.4 532L495.3 532L500.3 532L505.2 532.4L510.2 532.4L515.1 532.4L520 532.4L525 532.4L529.9 532.4L534.8 532.4L539.8 532.4L544.7 532.4L549.6 532.4L554.6 532.4L559.5 532.4L564.4 532.3L569.4 532.3L574.3 532.3L579.3 532.3L584.2 532.3L589.1 532.3L594.1 532.3L599 531.6L603.9 531.5L608.9 532.4L613.8 532.4L618.7 531.6L623.7 531.6L628.6 531.5L633.5 532.3L638.5 532.4L643.4 531.5"></path><path fill="none" stroke-linecap="butt" stroke-linejoin="round" stroke="#ffffff" id="outline__Blue-whale" stroke-width="2.5" d="M61 530.3L66 530.7L70.9 531.6L75.8 529.7L80.8 527.5L85.7 526.5L90.7 529.4L95.6 529.6L100.5 528.4L105.5 529.1L110.4 528.5L115.3 522L120.3 514.6L125.2 513.7L130.1 500.2L135.1 499.6L140 506.7L144.9 513.5L149.9 519.2L154.8 520.3L159.7 514.2L164.7 506.2L169.6 493.6L174.6 504L179.5 493.5L184.4 496.1L189.4 482.1L194.3 473.6L199.2 449.7L204.2 425.5L209.1 361L214 494.9L219 425.4L223.9 434.6L228.8 439.2L233.8 431.7L238.7 450.1L243.6 447.1L248.6 453L253.5 467.9L258.5 504.4L263.4 531.6L268.3 531.6L273.3 530.4L278.2 526.5L283.1 511.9L288.1 480.6L293 493.2L297.9 488.5L302.9 497.1L307.8 492.4L312.7 502.7L317.7 509.2L322.6 515.4L327.5 517L332.5 521.8L337.4 521.9L342.4 521.7L347.3 524.7L352.2 526.3L357.2 522.2L362.1 525.5L367 521.8L372 520.6L376.9 512.3L381.8 522.6L386.8 528.4L391.7 529.3L396.6 528.3L401.6 527L406.5 527.6L411.4 529.3L416.4 532.4L421.3 532.4L426.3 532.4L431.2 532.4L436.1 532.4L441.1 532.4L446 532.4L450.9 532.4L455.9 532.4L460.8 532.4L465.7 532.4L470.7 532.4L475.6 532.4L480.5 532.4L485.5 532.4L490.4 532.4L495.3 532.4L500.3 532.4L505.2 532.4L510.2 532.4L515.1 532.4L520 532.4L525 532.4L529.9 532.4L534.8 532.4L539.8 532.4L544.7 532.4L549.6 532.4L554.6 532.4L559.5 532.4L564.4 532.4L569.4 532.4L574.3 532.4L579.3 532.4L584.2 532.4L589.1 532.4L594.1 532.4L599 532.4L603.9 532.4L608.9 532.4L613.8 532.4L618.7 532.4L623.7 532.4L628.6 532.4L633.5 532.4L638.5 532.4L643.4 532.4"></path><path fill="none" stroke-linecap="butt" stroke-linejoin="round" stroke="#00295b" id="line__Blue-whale" stroke-width="1.5" stroke-opacity="1" d="M61 530.3L66 530.7L70.9 531.6L75.8 529.7L80.8 527.5L85.7 526.5L90.7 529.4L95.6 529.6L100.5 528.4L105.5 529.1L110.4 528.5L115.3 522L120.3 514.6L125.2 513.7L130.1 500.2L135.1 499.6L140 506.7L144.9 513.5L149.9 519.2L154.8 520.3L159.7 514.2L164.7 506.2L169.6 493.6L174.6 504L179.5 493.5L184.4 496.1L189.4 482.1L194.3 473.6L199.2 449.7L204.2 425.5L209.1 361L214 494.9L219 425.4L223.9 434.6L228.8 439.2L233.8 431.7L238.7 450.1L243.6 447.1L248.6 453L253.5 467.9L258.5 504.4L263.4 531.6L268.3 531.6L273.3 530.4L278.2 526.5L283.1 511.9L288.1 480.6L293 493.2L297.9 488.5L302.9 497.1L307.8 492.4L312.7 502.7L317.7 509.2L322.6 515.4L327.5 517L332.5 521.8L337.4 521.9L342.4 521.7L347.3 524.7L352.2 526.3L357.2 522.2L362.1 525.5L367 521.8L372 520.6L376.9 512.3L381.8 522.6L386.8 528.4L391.7 529.3L396.6 528.3L401.6 527L406.5 527.6L411.4 529.3L416.4 532.4L421.3 532.4L426.3 532.4L431.2 532.4L436.1 532.4L441.1 532.4L446 532.4L450.9 532.4L455.9 532.4L460.8 532.4L465.7 532.4L470.7 532.4L475.6 532.4L480.5 532.4L485.5 532.4L490.4 532.4L495.3 532.4L500.3 532.4L505.2 532.4L510.2 532.4L515.1 532.4L520 532.4L525 532.4L529.9 532.4L534.8 532.4L539.8 532.4L544.7 532.4L549.6 532.4L554.6 532.4L559.5 532.4L564.4 532.4L569.4 532.4L574.3 532.4L579.3 532.4L584.2 532.4L589.1 532.4L594.1 532.4L599 532.4L603.9 532.4L608.9 532.4L613.8 532.4L618.7 532.4L623.7 532.4L628.6 532.4L633.5 532.4L638.5 532.4L643.4 532.4"></path><path fill="none" stroke-linecap="butt" stroke-linejoin="round" stroke="#ffffff" id="outline__Unspecified/other-species" stroke-width="2.5" d="M61 529.1L66 526.7L70.9 523.2L75.8 527L80.8 528.8L85.7 527.5L90.7 524.3L95.6 517.6L100.5 523.9L105.5 525.9L110.4 521L115.3 524.2L120.3 528.3L125.2 530.8L130.1 531.9L135.1 531.6L140 529.4L144.9 532.4L149.9 531.8L154.8 532L159.7 531.9L164.7 532.3L169.6 532.3L174.6 532.3L179.5 532.4L184.4 532.2L189.4 532.3L194.3 530.9L199.2 532.4L204.2 532.3L209.1 530.7L214 532.4L219 532.4L223.9 532.4L228.8 528.5L233.8 528.7L238.7 529L243.6 532.4L248.6 531.2L253.5 521.5L258.5 532.2L263.4 532.4L268.3 532.4L273.3 532.4L278.2 532.4L283.1 532.2L288.1 532.2L293 532.3L297.9 532.3L302.9 532.4L307.8 532.4L312.7 532.4L317.7 532.1L322.6 532.2L327.5 531.9L332.5 531.8L337.4 532.2L342.4 532.3L347.3 532.4L352.2 532.4L357.2 532.4L362.1 532.4L367 532.4L372 532.4L376.9 532.4L381.8 532.4L386.8 532.4L391.7 532.4L396.6 532.4L401.6 532.4L406.5 532.4L411.4 532.4L416.4 532.4L421.3 532.4L426.3 532.4L431.2 532.4L436.1 532.4L441.1 532.4L446 532.4L450.9 532.4L455.9 532.4L460.8 532.4L465.7 532.4L470.7 532.4L475.6 532.4L480.5 532.4L485.5 532.4L490.4 532.4L495.3 532.4L500.3 532.4L505.2 532.4L510.2 532.4L515.1 532.4L520 532.4L525 532.4L529.9 532.4L534.8 532.4L539.8 532.4L544.7 532.4L549.6 532.4L554.6 532.4L559.5 532.4L564.4 532.4L569.4 532.4L574.3 532.4L579.3 532.4L584.2 532.4L589.1 532.4L594.1 532.4L599 532.4L603.9 532.4L608.9 532.4L613.8 532.4L618.7 532.4L623.7 532.4L628.6 532.4L633.5 532.4L638.5 532.4L643.4 532.4"></path><path fill="none" stroke-linecap="butt" stroke-linejoin="round" stroke="#883039" id="line__Unspecified/other-species" stroke-width="1.5" stroke-opacity="1" d="M61 529.1L66 526.7L70.9 523.2L75.8 527L80.8 528.8L85.7 527.5L90.7 524.3L95.6 517.6L100.5 523.9L105.5 525.9L110.4 521L115.3 524.2L120.3 528.3L125.2 530.8L130.1 531.9L135.1 531.6L140 529.4L144.9 532.4L149.9 531.8L154.8 532L159.7 531.9L164.7 532.3L169.6 532.3L174.6 532.3L179.5 532.4L184.4 532.2L189.4 532.3L194.3 530.9L199.2 532.4L204.2 532.3L209.1 530.7L214 532.4L219 532.4L223.9 532.4L228.8 528.5L233.8 528.7L238.7 529L243.6 532.4L248.6 531.2L253.5 521.5L258.5 532.2L263.4 532.4L268.3 532.4L273.3 532.4L278.2 532.4L283.1 532.2L288.1 532.2L293 532.3L297.9 532.3L302.9 532.4L307.8 532.4L312.7 532.4L317.7 532.1L322.6 532.2L327.5 531.9L332.5 531.8L337.4 532.2L342.4 532.3L347.3 532.4L352.2 532.4L357.2 532.4L362.1 532.4L367 532.4L372 532.4L376.9 532.4L381.8 532.4L386.8 532.4L391.7 532.4L396.6 532.4L401.6 532.4L406.5 532.4L411.4 532.4L416.4 532.4L421.3 532.4L426.3 532.4L431.2 532.4L436.1 532.4L441.1 532.4L446 532.4L450.9 532.4L455.9 532.4L460.8 532.4L465.7 532.4L470.7 532.4L475.6 532.4L480.5 532.4L485.5 532.4L490.4 532.4L495.3 532.4L500.3 532.4L505.2 532.4L510.2 532.4L515.1 532.4L520 532.4L525 532.4L529.9 532.4L534.8 532.4L539.8 532.4L544.7 532.4L549.6 532.4L554.6 532.4L559.5 532.4L564.4 532.4L569.4 532.4L574.3 532.4L579.3 532.4L584.2 532.4L589.1 532.4L594.1 532.4L599 532.4L603.9 532.4L608.9 532.4L613.8 532.4L618.7 532.4L623.7 532.4L628.6 532.4L633.5 532.4L638.5 532.4L643.4 532.4"></path><path fill="none" stroke-linecap="butt" stroke-linejoin="round" stroke="#ffffff" id="outline__Sei-whale" stroke-width="2.5" d="M61 532.2L66 532.2L70.9 532.1L75.8 531.8L80.8 531.4L85.7 531.1L90.7 529.8L95.6 529.7L100.5 527.6L105.5 526.2L110.4 528.3L115.3 528.9L120.3 529.2L125.2 523.4L130.1 527.1L135.1 527.8L140 529.3L144.9 527.7L149.9 526.1L154.8 525.9L159.7 525.8L164.7 528.4L169.6 528.5L174.6 525.8L179.5 523.3L184.4 524.9L189.4 520.6L194.3 520.5L199.2 521.3L204.2 526.5L209.1 527.2L214 529.5L219 529.7L223.9 529.9L228.8 527.9L233.8 528.5L238.7 525.1L243.6 527.3L248.6 528L253.5 527.5L258.5 529.2L263.4 528.2L268.3 530.2L273.3 528.9L278.2 527.4L283.1 531.1L288.1 526.7L293 525.6L297.9 524.4L302.9 518.9L307.8 523.6L312.7 519L317.7 516.7L322.6 518.2L327.5 521.2L332.5 522L337.4 515.1L342.4 506.8L347.3 506L352.2 495.6L357.2 489.4L362.1 486.6L367 481.2L372 456.6L376.9 388.8L381.8 395.3L386.8 412.9L391.7 411.8L396.6 439L401.6 442.4L406.5 457.7L411.4 472.8L416.4 493.3L421.3 493.8L426.3 500.4L431.2 515.8L436.1 521.7L441.1 528.3L446 531.1L450.9 531.5L455.9 531.8L460.8 531.8L465.7 532L470.7 531.8L475.6 531.9L480.5 532.2L485.5 532.2L490.4 532.3L495.3 532.3L500.3 532.4L505.2 532.4L510.2 532.4L515.1 532.4L520 532.4L525 532.4L529.9 532.4L534.8 532.4L539.8 532.4L544.7 532.4L549.6 532.4L554.6 532.4L559.5 532.4L564.4 532.2L569.4 532.1L574.3 531.8L579.3 531.8L584.2 531.8L589.1 531.8L594.1 531.8L599 531.8L603.9 531.8L608.9 531.9L613.8 531.8L618.7 531.8L623.7 531.9L628.6 531.9L633.5 531.9L638.5 531.7L643.4 531.6"></path><path fill="none" stroke-linecap="butt" stroke-linejoin="round" stroke="#6d3e91" id="line__Sei-whale" stroke-width="1.5" stroke-opacity="1" d="M61 532.2L66 532.2L70.9 532.1L75.8 531.8L80.8 531.4L85.7 531.1L90.7 529.8L95.6 529.7L100.5 527.6L105.5 526.2L110.4 528.3L115.3 528.9L120.3 529.2L125.2 523.4L130.1 527.1L135.1 527.8L140 529.3L144.9 527.7L149.9 526.1L154.8 525.9L159.7 525.8L164.7 528.4L169.6 528.5L174.6 525.8L179.5 523.3L184.4 524.9L189.4 520.6L194.3 520.5L199.2 521.3L204.2 526.5L209.1 527.2L214 529.5L219 529.7L223.9 529.9L228.8 527.9L233.8 528.5L238.7 525.1L243.6 527.3L248.6 528L253.5 527.5L258.5 529.2L263.4 528.2L268.3 530.2L273.3 528.9L278.2 527.4L283.1 531.1L288.1 526.7L293 525.6L297.9 524.4L302.9 518.9L307.8 523.6L312.7 519L317.7 516.7L322.6 518.2L327.5 521.2L332.5 522L337.4 515.1L342.4 506.8L347.3 506L352.2 495.6L357.2 489.4L362.1 486.6L367 481.2L372 456.6L376.9 388.8L381.8 395.3L386.8 412.9L391.7 411.8L396.6 439L401.6 442.4L406.5 457.7L411.4 472.8L416.4 493.3L421.3 493.8L426.3 500.4L431.2 515.8L436.1 521.7L441.1 528.3L446 531.1L450.9 531.5L455.9 531.8L460.8 531.8L465.7 532L470.7 531.8L475.6 531.9L480.5 532.2L485.5 532.2L490.4 532.3L495.3 532.3L500.3 532.4L505.2 532.4L510.2 532.4L515.1 532.4L520 532.4L525 532.4L529.9 532.4L534.8 532.4L539.8 532.4L544.7 532.4L549.6 532.4L554.6 532.4L559.5 532.4L564.4 532.2L569.4 532.1L574.3 531.8L579.3 531.8L584.2 531.8L589.1 531.8L594.1 531.8L599 531.8L603.9 531.8L608.9 531.9L613.8 531.8L618.7 531.8L623.7 531.9L628.6 531.9L633.5 531.9L638.5 531.7L643.4 531.6"></path><path fill="none" stroke-linecap="butt" stroke-linejoin="round" stroke="#ffffff" id="outline__Minke-whale" stroke-width="2.5" d="M61 532.4L66 532.4L70.9 532.4L75.8 532.4L80.8 532.4L85.7 532.4L90.7 532.4L95.6 532.4L100.5 532.4L105.5 532.4L110.4 532.4L115.3 532.4L120.3 532.4L125.2 532.4L130.1 532.4L135.1 532.3L140 532.4L144.9 532.3L149.9 532.4L154.8 532.3L159.7 532.4L164.7 532.3L169.6 532.3L174.6 532.3L179.5 532.3L184.4 532.3L189.4 532.3L194.3 532.3L199.2 532.3L204.2 532.3L209.1 532.1L214 531.3L219 530.3L223.9 529.4L228.8 528.3L233.8 527.3L238.7 526.4L243.6 525.2L248.6 524.5L253.5 526.9L258.5 528.3L263.4 519.2L268.3 518.7L273.3 521.7L278.2 523.4L283.1 521.9L288.1 521.2L293 517.3L297.9 510.7L302.9 509.1L307.8 519.7L312.7 514.6L317.7 510.6L322.6 516L327.5 510.4L332.5 505.2L337.4 508L342.4 507.5L347.3 503L352.2 511L357.2 510.1L362.1 510.9L367 510.1L372 509L376.9 510.9L381.8 513L386.8 512.2L391.7 508L396.6 507.7L401.6 508.4L406.5 506L411.4 488.2L416.4 470.6L421.3 462.8L426.3 467.9L431.2 472.6L436.1 461.4L441.1 478.8L446 479.7L450.9 468.7L455.9 472.7L460.8 470.4L465.7 472.8L470.7 479.3L475.6 491.6L480.5 493.7L485.5 500.5L490.4 527.1L495.3 530.9L500.3 530.5L505.2 530.6L510.2 530.8L515.1 530L520 529.3L525 529L529.9 528.2L534.8 527.4L539.8 526.5L544.7 526.2L549.6 526.1L554.6 526.1L559.5 525.4L564.4 524.7L569.4 524.1L574.3 524.8L579.3 521.6L584.2 524.1L589.1 523.5L594.1 523.6L599 524.5L603.9 526.7L608.9 525.7L613.8 527.1L618.7 525.9L623.7 526.8L628.6 525.4L633.5 525.9L638.5 526.5L643.4 526.4"></path><path fill="none" stroke-linecap="butt" stroke-linejoin="round" stroke="#2c8465" id="line__Minke-whale" stroke-width="1.5" stroke-opacity="1" d="M61 532.4L66 532.4L70.9 532.4L75.8 532.4L80.8 532.4L85.7 532.4L90.7 532.4L95.6 532.4L100.5 532.4L105.5 532.4L110.4 532.4L115.3 532.4L120.3 532.4L125.2 532.4L130.1 532.4L135.1 532.3L140 532.4L144.9 532.3L149.9 532.4L154.8 532.3L159.7 532.4L164.7 532.3L169.6 532.3L174.6 532.3L179.5 532.3L184.4 532.3L189.4 532.3L194.3 532.3L199.2 532.3L204.2 532.3L209.1 532.1L214 531.3L219 530.3L223.9 529.4L228.8 528.3L233.8 527.3L238.7 526.4L243.6 525.2L248.6 524.5L253.5 526.9L258.5 528.3L263.4 519.2L268.3 518.7L273.3 521.7L278.2 523.4L283.1 521.9L288.1 521.2L293 517.3L297.9 510.7L302.9 509.1L307.8 519.7L312.7 514.6L317.7 510.6L322.6 516L327.5 510.4L332.5 505.2L337.4 508L342.4 507.5L347.3 503L352.2 511L357.2 510.1L362.1 510.9L367 510.1L372 509L376.9 510.9L381.8 513L386.8 512.2L391.7 508L396.6 507.7L401.6 508.4L406.5 506L411.4 488.2L416.4 470.6L421.3 462.8L426.3 467.9L431.2 472.6L436.1 461.4L441.1 478.8L446 479.7L450.9 468.7L455.9 472.7L460.8 470.4L465.7 472.8L470.7 479.3L475.6 491.6L480.5 493.7L485.5 500.5L490.4 527.1L495.3 530.9L500.3 530.5L505.2 530.6L510.2 530.8L515.1 530L520 529.3L525 529L529.9 528.2L534.8 527.4L539.8 526.5L544.7 526.2L549.6 526.1L554.6 526.1L559.5 525.4L564.4 524.7L569.4 524.1L574.3 524.8L579.3 521.6L584.2 524.1L589.1 523.5L594.1 523.6L599 524.5L603.9 526.7L608.9 525.7L613.8 527.1L618.7 525.9L623.7 526.8L628.6 525.4L633.5 525.9L638.5 526.5L643.4 526.4"></path><path fill="none" stroke-linecap="butt" stroke-linejoin="round" stroke="#ffffff" id="outline__Gray-whale" stroke-width="2.5" d="M61 532.4L66 532.4L70.9 532.4L75.8 532.4L80.8 532.4L85.7 532.4L90.7 532.4L95.6 532.4L100.5 532.4L105.5 532.4L110.4 532.4L115.3 531.7L120.3 531.3L125.2 531.7L130.1 531.4L135.1 531.6L140 532L144.9 532L149.9 531.8L154.8 532.1L159.7 532L164.7 531.8L169.6 532.1L174.6 532.2L179.5 532.3L184.4 531.6L189.4 532.1L194.3 532.2L199.2 532.3L204.2 532.3L209.1 532.2L214 532.3L219 532.3L223.9 531.8L228.8 531.5L233.8 531.6L238.7 531.4L243.6 532.3L248.6 532.1L253.5 532.2L258.5 531.8L263.4 532.1L268.3 531.8L273.3 531.8L278.2 532.4L283.1 532.1L288.1 532.3L293 532.2L297.9 532.4L302.9 532.4L307.8 532.4L312.7 532.4L317.7 532.4L322.6 532.3L327.5 532.4L332.5 532.4L337.4 532.4L342.4 532.4L347.3 532.4L352.2 532.3L357.2 532.3L362.1 532.4L367 532.4L372 532.4L376.9 532.3L381.8 532.4L386.8 532.1L391.7 531.8L396.6 532L401.6 532L406.5 532.4L411.4 532.4L416.4 532.4L421.3 532.4L426.3 532.4L431.2 532.4L436.1 532.4L441.1 532.4L446 532.4L450.9 532.4L455.9 532.4L460.8 532.4L465.7 532.4L470.7 532.4L475.6 532.4L480.5 532.4L485.5 532.4L490.4 532.4L495.3 532.4L500.3 532.4L505.2 532.4L510.2 532.4L515.1 532.4L520 532.4L525 532.4L529.9 532.4L534.8 532.4L539.8 532.4L544.7 532.4L549.6 532.4L554.6 531.8L559.5 531.8L564.4 531.7L569.4 531.7L574.3 531.8L579.3 531.7L584.2 531.7L589.1 531.7L594.1 531.7L599 531.8L603.9 531.7L608.9 531.7L613.8 531.6L618.7 531.7L623.7 531.7L628.6 531.7L633.5 531.7L638.5 531.7L643.4 531.8"></path><path fill="none" stroke-linecap="butt" stroke-linejoin="round" stroke="#996d39" id="line__Gray-whale" stroke-width="1.5" stroke-opacity="1" d="M61 532.4L66 532.4L70.9 532.4L75.8 532.4L80.8 532.4L85.7 532.4L90.7 532.4L95.6 532.4L100.5 532.4L105.5 532.4L110.4 532.4L115.3 531.7L120.3 531.3L125.2 531.7L130.1 531.4L135.1 531.6L140 532L144.9 532L149.9 531.8L154.8 532.1L159.7 532L164.7 531.8L169.6 532.1L174.6 532.2L179.5 532.3L184.4 531.6L189.4 532.1L194.3 532.2L199.2 532.3L204.2 532.3L209.1 532.2L214 532.3L219 532.3L223.9 531.8L228.8 531.5L233.8 531.6L238.7 531.4L243.6 532.3L248.6 532.1L253.5 532.2L258.5 531.8L263.4 532.1L268.3 531.8L273.3 531.8L278.2 532.4L283.1 532.1L288.1 532.3L293 532.2L297.9 532.4L302.9 532.4L307.8 532.4L312.7 532.4L317.7 532.4L322.6 532.3L327.5 532.4L332.5 532.4L337.4 532.4L342.4 532.4L347.3 532.4L352.2 532.3L357.2 532.3L362.1 532.4L367 532.4L372 532.4L376.9 532.3L381.8 532.4L386.8 532.1L391.7 531.8L396.6 532L401.6 532L406.5 532.4L411.4 532.4L416.4 532.4L421.3 532.4L426.3 532.4L431.2 532.4L436.1 532.4L441.1 532.4L446 532.4L450.9 532.4L455.9 532.4L460.8 532.4L465.7 532.4L470.7 532.4L475.6 532.4L480.5 532.4L485.5 532.4L490.4 532.4L495.3 532.4L500.3 532.4L505.2 532.4L510.2 532.4L515.1 532.4L520 532.4L525 532.4L529.9 532.4L534.8 532.4L539.8 532.4L544.7 532.4L549.6 532.4L554.6 531.8L559.5 531.8L564.4 531.7L569.4 531.7L574.3 531.8L579.3 531.7L584.2 531.7L589.1 531.7L594.1 531.7L599 531.8L603.9 531.7L608.9 531.7L613.8 531.6L618.7 531.7L623.7 531.7L628.6 531.7L633.5 531.7L638.5 531.7L643.4 531.8"></path><path fill="none" stroke-linecap="butt" stroke-linejoin="round" stroke="#ffffff" id="outline__Bryde&#x27;s-whale" stroke-width="2.5" d="M61 532.4L66 532.4L70.9 532.4L75.8 532.4L80.8 532.4L85.7 532.4L90.7 532.4L95.6 532.4L100.5 532.4L105.5 532.4L110.4 532.4L115.3 532L120.3 531.4L125.2 531.7L130.1 532.1L135.1 531.9L140 532.3L144.9 532.4L149.9 532.2L154.8 532.3L159.7 532.3L164.7 532.4L169.6 532.4L174.6 532.3L179.5 531.9L184.4 532.2L189.4 532L194.3 532.2L199.2 532.1L204.2 532.2L209.1 532.3L214 532.4L219 532.4L223.9 532.4L228.8 532.4L233.8 532.4L238.7 532.4L243.6 532.2L248.6 532.4L253.5 532.4L258.5 532.4L263.4 532.4L268.3 532.4L273.3 532.4L278.2 532.4L283.1 532.4L288.1 532.2L293 531.2L297.9 530.4L302.9 530.9L307.8 530.5L312.7 530.7L317.7 530.1L322.6 532.4L327.5 532.4L332.5 532.4L337.4 532.3L342.4 532.2L347.3 532.2L352.2 532.2L357.2 532.3L362.1 532.3L367 530.9L372 531.6L376.9 528.6L381.8 530L386.8 531.5L391.7 531.9L396.6 531.4L401.6 531.7L406.5 531.9L411.4 528.1L416.4 531.6L421.3 530.2L426.3 525.9L431.2 525.5L436.1 523.5L441.1 525.6L446 528L450.9 526.3L455.9 527L460.8 528.8L465.7 527.9L470.7 527.5L475.6 529.5L480.5 530.4L485.5 530.6L490.4 530.6L495.3 532.4L500.3 532.4L505.2 532.4L510.2 532.4L515.1 532.4L520 532.4L525 532.4L529.9 532.4L534.8 532.4L539.8 532.4L544.7 532.4L549.6 532.4L554.6 532.2L559.5 532.1L564.4 532.1L569.4 532.1L574.3 532.1L579.3 532.1L584.2 532.1L589.1 532.1L594.1 532.1L599 532.1L603.9 532.1L608.9 532.1L613.8 532.2L618.7 532.2L623.7 532.3L628.6 532.3L633.5 532.3L638.5 532.4L643.4 532.4"></path><path fill="none" stroke-linecap="butt" stroke-linejoin="round" stroke="#b13507" id="line__Bryde&#x27;s-whale" stroke-width="1.5" stroke-opacity="1" d="M61 532.4L66 532.4L70.9 532.4L75.8 532.4L80.8 532.4L85.7 532.4L90.7 532.4L95.6 532.4L100.5 532.4L105.5 532.4L110.4 532.4L115.3 532L120.3 531.4L125.2 531.7L130.1 532.1L135.1 531.9L140 532.3L144.9 532.4L149.9 532.2L154.8 532.3L159.7 532.3L164.7 532.4L169.6 532.4L174.6 532.3L179.5 531.9L184.4 532.2L189.4 532L194.3 532.2L199.2 532.1L204.2 532.2L209.1 532.3L214 532.4L219 532.4L223.9 532.4L228.8 532.4L233.8 532.4L238.7 532.4L243.6 532.2L248.6 532.4L253.5 532.4L258.5 532.4L263.4 532.4L268.3 532.4L273.3 532.4L278.2 532.4L283.1 532.4L288.1 532.2L293 531.2L297.9 530.4L302.9 530.9L307.8 530.5L312.7 530.7L317.7 530.1L322.6 532.4L327.5 532.4L332.5 532.4L337.4 532.3L342.4 532.2L347.3 532.2L352.2 532.2L357.2 532.3L362.1 532.3L367 530.9L372 531.6L376.9 528.6L381.8 530L386.8 531.5L391.7 531.9L396.6 531.4L401.6 531.7L406.5 531.9L411.4 528.1L416.4 531.6L421.3 530.2L426.3 525.9L431.2 525.5L436.1 523.5L441.1 525.6L446 528L450.9 526.3L455.9 527L460.8 528.8L465.7 527.9L470.7 527.5L475.6 529.5L480.5 530.4L485.5 530.6L490.4 530.6L495.3 532.4L500.3 532.4L505.2 532.4L510.2 532.4L515.1 532.4L520 532.4L525 532.4L529.9 532.4L534.8 532.4L539.8 532.4L544.7 532.4L549.6 532.4L554.6 532.2L559.5 532.1L564.4 532.1L569.4 532.1L574.3 532.1L579.3 532.1L584.2 532.1L589.1 532.1L594.1 532.1L599 532.1L603.9 532.1L608.9 532.1L613.8 532.2L618.7 532.2L623.7 532.3L628.6 532.3L633.5 532.3L638.5 532.4L643.4 532.4"></path><path fill="none" stroke-linecap="butt" stroke-linejoin="round" stroke="#ffffff" id="outline__All-whale-species" stroke-width="2.5" d="M61 523.1L66 519.8L70.9 515.9L75.8 513.2L80.8 507L85.7 505.5L90.7 506.6L95.6 493.7L100.5 482L105.5 466.4L110.4 436.5L115.3 407.5L120.3 392.2L125.2 391.4L130.1 396.7L135.1 417.6L140 462.4L144.9 483.2L149.9 475L154.8 471.1L159.7 452L164.7 471.7L169.6 433.5L174.6 440.8L179.5 418.5L184.4 379.6L189.4 383.6L194.3 389.6L199.2 360.8L204.2 316.2L209.1 262.4L214 461.1L219 374.5L223.9 358.2L228.8 313.1L233.8 312.8L238.7 255.1L243.6 175.7L248.6 260.3L253.5 301.7L258.5 407.4L263.4 470.8L268.3 476.5L273.3 470.6L278.2 480.2L283.1 427.9L288.1 344.5L293 287.3L297.9 267.9L302.9 257.7L307.8 255.3L312.7 181.5L317.7 257.1L322.6 241.6L327.5 183L332.5 185.3L337.4 198.3L342.4 153.4L347.3 135.2L352.2 110.8L357.2 89.2L362.1 116.1L367 160L372 103.5L376.9 74L381.8 132.1L386.8 139.2L391.7 174.1L396.6 215.9L401.6 201.6L406.5 236.1L411.4 238.2L416.4 299.2L421.3 299.8L426.3 291.3L431.2 337L436.1 358L441.1 394.5L446 409.8L450.9 432.1L455.9 452.5L460.8 455.9L465.7 462.5L470.7 470L475.6 484.1L480.5 488.1L485.5 496.9L490.4 523.7L495.3 530.5L500.3 529.9L505.2 530.3L510.2 530.5L515.1 529.8L520 529L525 528.7L529.9 527.9L534.8 527.1L539.8 526.1L544.7 525.9L549.6 525.8L554.6 524.9L559.5 523.9L564.4 523.1L569.4 522.5L574.3 523L579.3 519.5L584.2 522.1L589.1 521.5L594.1 521.6L599 522L603.9 523.7L608.9 523.7L613.8 524.9L618.7 523.1L623.7 524.1L628.6 522.7L633.5 524L638.5 524.6L643.4 523.6"></path><path fill="none" stroke-linecap="butt" stroke-linejoin="round" stroke="#4c6a9c" id="line__All-whale-species" stroke-width="1.5" stroke-opacity="1" d="M61 523.1L66 519.8L70.9 515.9L75.8 513.2L80.8 507L85.7 505.5L90.7 506.6L95.6 493.7L100.5 482L105.5 466.4L110.4 436.5L115.3 407.5L120.3 392.2L125.2 391.4L130.1 396.7L135.1 417.6L140 462.4L144.9 483.2L149.9 475L154.8 471.1L159.7 452L164.7 471.7L169.6 433.5L174.6 440.8L179.5 418.5L184.4 379.6L189.4 383.6L194.3 389.6L199.2 360.8L204.2 316.2L209.1 262.4L214 461.1L219 374.5L223.9 358.2L228.8 313.1L233.8 312.8L238.7 255.1L243.6 175.7L248.6 260.3L253.5 301.7L258.5 407.4L263.4 470.8L268.3 476.5L273.3 470.6L278.2 480.2L283.1 427.9L288.1 344.5L293 287.3L297.9 267.9L302.9 257.7L307.8 255.3L312.7 181.5L317.7 257.1L322.6 241.6L327.5 183L332.5 185.3L337.4 198.3L342.4 153.4L347.3 135.2L352.2 110.8L357.2 89.2L362.1 116.1L367 160L372 103.5L376.9 74L381.8 132.1L386.8 139.2L391.7 174.1L396.6 215.9L401.6 201.6L406.5 236.1L411.4 238.2L416.4 299.2L421.3 299.8L426.3 291.3L431.2 337L436.1 358L441.1 394.5L446 409.8L450.9 432.1L455.9 452.5L460.8 455.9L465.7 462.5L470.7 470L475.6 484.1L480.5 488.1L485.5 496.9L490.4 523.7L495.3 530.5L500.3 529.9L505.2 530.3L510.2 530.5L515.1 529.8L520 529L525 528.7L529.9 527.9L534.8 527.1L539.8 526.1L544.7 525.9L549.6 525.8L554.6 524.9L559.5 523.9L564.4 523.1L569.4 522.5L574.3 523L579.3 519.5L584.2 522.1L589.1 521.5L594.1 521.6L599 522L603.9 523.7L608.9 523.7L613.8 524.9L618.7 523.1L623.7 524.1L628.6 522.7L633.5 524L638.5 524.6L643.4 523.6"></path></g></g><g id="footer" class="SourcesFooter" style="fill:#858585"><g id="sources" class="markdown-text-wrap"><text x="16.0" y="581.0" style="font-size:13px;line-height:1.2"><tspan x="16" y="581.0"><tspan style="font-weight:700">Data source:</tspan> International Whaling Commission (IWC); Rocha et al. (2014)</tspan></text></g><text id="origin-url" font-size="13.00" x="599.0" y="581.0"><tspan x="598.96" y="581.01"><a target="_blank" style="fill: #858585;" href="https://ourworldindata.org/biodiversity">OurWorldinData.org/biodiversity</a> | <a target="_blank" style="fill: #858585;" href="https://creativecommons.org/licenses/by/4.0/">CC BY</a></tspan></text></g></svg>