<svg xmlns="http://www.w3.org/2000/svg" version="1.1" style="font-family:Lato, &#x27;Helvetica Neue&#x27;, Helvetica, Arial, sans-serif;font-size:18px;background-color:white;text-rendering:geometricPrecision;-webkit-font-smoothing:antialiased" width="850" height="600" viewBox="0 0 850 600"><g class="HeaderView"><g transform="translate(774, 15) scale(0.29)"><svg className="owidLog" width="210" height="120" viewBox="0 0 210 120" fill="none" xmlns="http://www.w3.org/2000/svg">
<g clip-path="url(#clip0)">
  <path d="M0 0h210v107.89H0V0z" fill="#002147" />
  <path
    d="M40.98 32.25c0 2.36-.38 4.53-1.12 6.51a14.26 14.26 0 0 1-8.1 8.4c-1.9.78-4.02 1.17-6.34 1.17-2.31 0-4.42-.39-6.33-1.17a14.31 14.31 0 0 1-8.08-8.4 18.29 18.29 0 0 1-1.12-6.51c0-2.36.38-4.53 1.12-6.5.75-1.97 1.8-3.67 3.17-5.1a14.32 14.32 0 0 1 4.9-3.34c1.92-.8 4.03-1.19 6.34-1.19 2.32 0 4.43.4 6.34 1.19 1.92.8 3.56 1.9 4.93 3.34a14.87 14.87 0 0 1 3.17 5.1 18.1 18.1 0 0 1 1.12 6.5zm-4.38 0c0-1.94-.26-3.68-.8-5.22a10.91 10.91 0 0 0-2.24-3.89 9.68 9.68 0 0 0-3.52-2.46 11.95 11.95 0 0 0-4.62-.86c-1.68 0-3.21.28-4.6.86a9.88 9.88 0 0 0-3.54 2.46 10.91 10.91 0 0 0-2.24 3.9c-.53 1.53-.8 3.27-.8 5.2 0 1.94.27 3.68.8 5.22a11.17 11.17 0 0 0 2.24 3.9 10.01 10.01 0 0 0 3.55 2.44c1.38.56 2.9.83 4.6.83s3.24-.27 4.61-.83a9.8 9.8 0 0 0 3.52-2.44 11.17 11.17 0 0 0 2.25-3.9c.53-1.54.8-3.28.8-5.21zm26.22-6.54V48H60.5c-.56 0-.9-.27-1.05-.81l-.31-2.4a12.45 12.45 0 0 1-3.26 2.6c-1.2.64-2.58.96-4.13.96-1.22 0-2.3-.2-3.24-.6a6.52 6.52 0 0 1-2.33-1.7 7.37 7.37 0 0 1-1.43-2.67c-.3-1.04-.46-2.2-.46-3.45V25.7h3.91v14.22c0 1.68.38 2.99 1.15 3.91.77.93 1.96 1.39 3.54 1.39 1.16 0 2.24-.27 3.23-.82a10.42 10.42 0 0 0 2.8-2.28V25.7h3.91zm8.61 4.47a9.94 9.94 0 0 1 2.6-3.56 5.64 5.64 0 0 1 3.76-1.3c.47 0 .92.05 1.34.15.44.1.83.27 1.17.49l-.3 2.92c-.09.37-.3.55-.66.55-.2 0-.5-.04-.9-.13a6.21 6.21 0 0 0-3.24.18 4.23 4.23 0 0 0-1.47.92c-.42.4-.81.9-1.17 1.5-.33.58-.64 1.26-.92 2.02V48H67.7V25.71h2.25c.42 0 .72.08.88.25.16.16.27.44.33.83l.26 3.39zm61.16-13.7L122.75 48h-3.82l-7.99-24.05a21.95 21.95 0 0 1-.42-1.58 38.36 38.36 0 0 1-.44 1.58L102.05 48h-3.83L88.4 16.47h3.54c.38 0 .7.1.95.29.26.2.43.43.5.73l6.52 21.9.28 1.28.29 1.46.3-1.46.38-1.27 7.41-21.91c.1-.25.26-.48.51-.69.27-.22.58-.33.95-.33h1.23c.38 0 .69.1.92.29a1.77 1.77 0 0 1 .53.73l7.4 21.9a28.4 28.4 0 0 1 .68 2.62 29.52 29.52 0 0 1 .52-2.61l6.54-21.91a1.31 1.31 0 0 1 .48-.7c.27-.21.58-.32.95-.32h3.32zm9.35 8.88c1.63 0 3.1.27 4.4.82a9.43 9.43 0 0 1 5.46 5.94c.5 1.4.74 2.98.74 4.73 0 1.76-.25 3.34-.74 4.75a9.43 9.43 0 0 1-5.46 5.92c-1.3.52-2.77.79-4.4.79-1.64 0-3.12-.27-4.44-.8a9.42 9.42 0 0 1-3.35-2.3c-.92-1-1.63-2.2-2.13-3.61-.49-1.41-.73-3-.73-4.75s.24-3.33.73-4.73c.5-1.43 1.2-2.64 2.13-3.63.93-1 2.04-1.77 3.35-2.31 1.32-.55 2.8-.82 4.44-.82zm0 19.89c2.2 0 3.84-.73 4.93-2.2 1.08-1.48 1.63-3.54 1.63-6.18 0-2.66-.55-4.72-1.63-6.2-1.09-1.49-2.73-2.23-4.93-2.23-1.12 0-2.09.2-2.93.57a5.71 5.71 0 0 0-2.06 1.65c-.55.72-.96 1.61-1.24 2.67-.26 1.04-.4 2.22-.4 3.54 0 2.64.55 4.7 1.64 6.18 1.1 1.47 2.76 2.2 4.99 2.2zm17.97-15.07a9.94 9.94 0 0 1 2.6-3.56 5.64 5.64 0 0 1 3.76-1.3c.47 0 .91.05 1.34.15.44.1.83.27 1.16.49l-.28 2.92c-.09.37-.31.55-.66.55-.2 0-.5-.04-.9-.13a6.2 6.2 0 0 0-3.24.18 4.23 4.23 0 0 0-1.47.92c-.43.4-.82.9-1.17 1.5a13.1 13.1 0 0 0-.92 2.02V48h-3.94V25.71h2.24c.43 0 .72.08.88.25.17.16.28.44.33.83l.27 3.39zm15.04-14.59V48h-3.92V15.6h3.92zm19.55 15.43a6.22 6.22 0 0 0-2.38-2.05 6.7 6.7 0 0 0-2.86-.6c-2.07 0-3.66.75-4.77 2.23-1.12 1.48-1.68 3.6-1.68 6.33 0 1.46.13 2.7.38 3.74a7.29 7.29 0 0 0 1.1 2.56 4.35 4.35 0 0 0 1.78 1.45c.7.3 1.5.46 2.4.46 1.29 0 2.41-.3 3.36-.88a9.6 9.6 0 0 0 2.67-2.49V31.02zm3.91-15.43V48h-2.33c-.56 0-.9-.27-1.06-.81l-.35-2.71a12.13 12.13 0 0 1-3.25 2.77 8.28 8.28 0 0 1-4.23 1.06 7.31 7.31 0 0 1-6.14-2.9c-.73-.96-1.3-2.15-1.69-3.57a18.35 18.35 0 0 1 .07-9.48 11.29 11.29 0 0 1 1.89-3.7 8.7 8.7 0 0 1 7.06-3.34 7.96 7.96 0 0 1 6.12 2.62V15.59h3.91zM46.61 70.71V93H42.7V70.71h3.91zm.84-7c0 .39-.08.75-.24 1.09-.15.32-.35.61-.62.88-.25.25-.55.44-.9.59a2.67 2.67 0 0 1-2.16 0 2.9 2.9 0 0 1-1.45-1.47 2.67 2.67 0 0 1 0-2.16c.15-.35.35-.65.6-.9.25-.27.53-.47.85-.62a2.67 2.67 0 0 1 2.16 0c.35.15.65.35.9.62.27.25.47.55.62.9.16.34.24.7.24 1.08zm7.97 10.24c.49-.54 1-1.04 1.54-1.48a9.85 9.85 0 0 1 3.66-1.84 8.96 8.96 0 0 1 5.43.35c.94.4 1.72.97 2.33 1.71.63.74 1.11 1.62 1.43 2.67.32 1.04.49 2.19.49 3.45V93h-3.94V78.81c0-1.69-.4-3-1.17-3.92-.76-.93-1.93-1.4-3.5-1.4-1.15 0-2.24.27-3.25.83-1 .56-1.92 1.31-2.77 2.27V93h-3.94V70.71h2.35c.56 0 .9.28 1.04.82l.3 2.42zm57.7 3.3c0 2.36-.37 4.5-1.11 6.44a14.3 14.3 0 0 1-3.17 4.98c-1.37 1.37-3 2.45-4.93 3.2-1.9.76-4.02 1.13-6.33 1.13H85.8V61.47h11.77c2.31 0 4.42.39 6.33 1.15a13.8 13.8 0 0 1 8.1 8.18 17.75 17.75 0 0 1 1.12 6.45zm-4.37 0c0-1.94-.26-3.67-.8-5.2a10.94 10.94 0 0 0-2.23-3.87 9.57 9.57 0 0 0-3.53-2.42 12.23 12.23 0 0 0-4.61-.83h-7.5v24.62h7.5c1.7 0 3.24-.28 4.61-.84a9.7 9.7 0 0 0 3.53-2.4 10.94 10.94 0 0 0 2.24-3.87c.53-1.53.8-3.26.8-5.2zm19.8 5.72c-1.8.06-3.34.2-4.62.44-1.26.22-2.3.51-3.1.88-.8.36-1.37.8-1.74 1.3-.35.5-.53 1.05-.53 1.67 0 .58.1 1.1.3 1.52a3 3 0 0 0 .76 1.05c.34.27.73.46 1.17.6a6.13 6.13 0 0 0 1.45.17 7.28 7.28 0 0 0 3.5-.81 11.95 11.95 0 0 0 2.82-2.2v-4.62zm-12.65-9.11a12.73 12.73 0 0 1 3.98-2.66c1.43-.59 3-.88 4.73-.88 1.25 0 2.36.2 3.33.61a6.81 6.81 0 0 1 3.94 4.38c.33 1.04.5 2.19.5 3.43V93h-1.74a1.8 1.8 0 0 1-.88-.18c-.2-.13-.36-.38-.48-.74l-.44-2.12-1.72 1.46a9.48 9.48 0 0 1-3.74 1.7c-.69.15-1.46.23-2.3.23-.87 0-1.69-.12-2.45-.35a5.34 5.34 0 0 1-3.34-2.93 6.64 6.64 0 0 1-.49-2.64c0-.88.25-1.72.73-2.53a6.33 6.33 0 0 1 2.35-2.17c1.09-.63 2.5-1.15 4.25-1.54 1.75-.41 3.89-.65 6.42-.7v-1.75c0-1.73-.37-3.03-1.12-3.91-.75-.9-1.84-1.34-3.28-1.34-.97 0-1.78.12-2.44.37-.64.23-1.2.5-1.7.81l-1.23.82c-.33.23-.67.35-1 .35-.27 0-.5-.07-.69-.2a2.1 2.1 0 0 1-.48-.53l-.7-1.25zm27.67 19.5c-1.76 0-3.12-.5-4.07-1.48-.94-.98-1.41-2.4-1.41-4.25V74h-2.68a.9.9 0 0 1-.6-.2c-.16-.14-.24-.36-.24-.66v-1.56l3.65-.46.9-6.89c.05-.22.14-.4.29-.52a.88.88 0 0 1 .62-.22H142v7.67h6.44V74H142v13.38c0 .94.22 1.63.68 2.09.45.45 1.04.68 1.76.68a3.21 3.21 0 0 0 1.85-.53l.55-.35c.16-.12.3-.18.41-.18.2 0 .4.13.55.38l1.15 1.87a7.45 7.45 0 0 1-2.44 1.5 8.53 8.53 0 0 1-2.95.52zm19.68-10.4c-1.8.07-3.34.21-4.62.45-1.26.22-2.3.51-3.1.88-.8.36-1.37.8-1.74 1.3-.35.5-.53 1.05-.53 1.67 0 .58.1 1.1.3 1.52a2.9 2.9 0 0 0 .76 1.05c.34.27.73.46 1.17.6a6.13 6.13 0 0 0 1.45.17 7.3 7.3 0 0 0 3.5-.81 12.04 12.04 0 0 0 2.82-2.2v-4.62zm-12.65-9.1a12.72 12.72 0 0 1 3.99-2.66c1.42-.59 3-.88 4.72-.88 1.25 0 2.36.2 3.33.61a6.81 6.81 0 0 1 3.94 4.38c.33 1.04.5 2.19.5 3.43V93h-1.74a1.8 1.8 0 0 1-.88-.18c-.2-.13-.36-.38-.48-.74l-.44-2.12-1.72 1.46a9.48 9.48 0 0 1-3.74 1.7c-.69.15-1.46.23-2.3.23-.87 0-1.69-.12-2.45-.35a5.33 5.33 0 0 1-3.34-2.93 6.62 6.62 0 0 1-.49-2.64c0-.88.25-1.72.73-2.53a6.33 6.33 0 0 1 2.35-2.17c1.09-.63 2.5-1.15 4.25-1.54 1.74-.41 3.89-.65 6.42-.7v-1.75c0-1.73-.37-3.03-1.12-3.91-.75-.9-1.84-1.34-3.28-1.34-.97 0-1.78.12-2.44.37-.64.23-1.2.5-1.7.81l-1.22.82c-.34.23-.68.35-1.02.35-.26 0-.49-.07-.68-.2a1.88 1.88 0 0 1-.48-.53l-.7-1.25zM40.98 32.25c0 2.36-.38 4.53-1.12 6.51a14.26 14.26 0 0 1-8.1 8.4c-1.9.78-4.02 1.17-6.34 1.17-2.31 0-4.42-.39-6.33-1.17a14.31 14.31 0 0 1-8.08-8.4 18.29 18.29 0 0 1-1.12-6.51c0-2.36.38-4.53 1.12-6.5.75-1.97 1.8-3.67 3.17-5.1a14.32 14.32 0 0 1 4.9-3.34c1.92-.8 4.03-1.19 6.34-1.19 2.32 0 4.43.4 6.34 1.19 1.92.8 3.56 1.9 4.93 3.34a14.87 14.87 0 0 1 3.17 5.1 18.1 18.1 0 0 1 1.12 6.5zm-4.38 0c0-1.94-.26-3.68-.8-5.22a10.91 10.91 0 0 0-2.24-3.89 9.68 9.68 0 0 0-3.52-2.46 11.95 11.95 0 0 0-4.62-.86c-1.68 0-3.21.28-4.6.86a9.88 9.88 0 0 0-3.54 2.46 10.91 10.91 0 0 0-2.24 3.9c-.53 1.53-.8 3.27-.8 5.2 0 1.94.27 3.68.8 5.22a11.17 11.17 0 0 0 2.24 3.9 10.01 10.01 0 0 0 3.55 2.44c1.38.56 2.9.83 4.6.83s3.24-.27 4.61-.83a9.8 9.8 0 0 0 3.52-2.44 11.17 11.17 0 0 0 2.25-3.9c.53-1.54.8-3.28.8-5.21zm26.22-6.54V48H60.5c-.56 0-.9-.27-1.05-.81l-.31-2.4a12.45 12.45 0 0 1-3.26 2.6c-1.2.64-2.58.96-4.13.96-1.22 0-2.3-.2-3.24-.6a6.52 6.52 0 0 1-2.33-1.7 7.37 7.37 0 0 1-1.43-2.67c-.3-1.04-.46-2.2-.46-3.45V25.7h3.91v14.22c0 1.68.38 2.99 1.15 3.91.77.93 1.96 1.39 3.54 1.39 1.16 0 2.24-.27 3.23-.82a10.42 10.42 0 0 0 2.8-2.28V25.7h3.91zm8.61 4.47a9.94 9.94 0 0 1 2.6-3.56 5.64 5.64 0 0 1 3.76-1.3c.47 0 .92.05 1.34.15.44.1.83.27 1.17.49l-.3 2.92c-.09.37-.3.55-.66.55-.2 0-.5-.04-.9-.13a6.21 6.21 0 0 0-3.24.18 4.23 4.23 0 0 0-1.47.92c-.42.4-.81.9-1.17 1.5-.33.58-.64 1.26-.92 2.02V48H67.7V25.71h2.25c.42 0 .72.08.88.25.16.16.27.44.33.83l.26 3.39zm61.16-13.7L122.75 48h-3.82l-7.99-24.05a21.95 21.95 0 0 1-.42-1.58 38.36 38.36 0 0 1-.44 1.58L102.05 48h-3.83L88.4 16.47h3.54c.38 0 .7.1.95.29.26.2.43.43.5.73l6.52 21.9.28 1.28.29 1.46.3-1.46.38-1.27 7.41-21.91c.1-.25.26-.48.51-.69.27-.22.58-.33.95-.33h1.23c.38 0 .69.1.92.29a1.77 1.77 0 0 1 .53.73l7.4 21.9a28.4 28.4 0 0 1 .68 2.62 29.52 29.52 0 0 1 .52-2.61l6.54-21.91a1.31 1.31 0 0 1 .48-.7c.27-.21.58-.32.95-.32h3.32zm9.35 8.88c1.63 0 3.1.27 4.4.82a9.43 9.43 0 0 1 5.46 5.94c.5 1.4.74 2.98.74 4.73 0 1.76-.25 3.34-.74 4.75a9.43 9.43 0 0 1-5.46 5.92c-1.3.52-2.77.79-4.4.79-1.64 0-3.12-.27-4.44-.8a9.42 9.42 0 0 1-3.35-2.3c-.92-1-1.63-2.2-2.13-3.61-.49-1.41-.73-3-.73-4.75s.24-3.33.73-4.73c.5-1.43 1.2-2.64 2.13-3.63.93-1 2.04-1.77 3.35-2.31 1.32-.55 2.8-.82 4.44-.82zm0 19.89c2.2 0 3.84-.73 4.93-2.2 1.08-1.48 1.63-3.54 1.63-6.18 0-2.66-.55-4.72-1.63-6.2-1.09-1.49-2.73-2.23-4.93-2.23-1.12 0-2.09.2-2.93.57a5.71 5.71 0 0 0-2.06 1.65c-.55.72-.96 1.61-1.24 2.67-.26 1.04-.4 2.22-.4 3.54 0 2.64.55 4.7 1.64 6.18 1.1 1.47 2.76 2.2 4.99 2.2zm17.97-15.07a9.94 9.94 0 0 1 2.6-3.56 5.64 5.64 0 0 1 3.76-1.3c.47 0 .91.05 1.34.15.44.1.83.27 1.16.49l-.28 2.92c-.09.37-.31.55-.66.55-.2 0-.5-.04-.9-.13a6.2 6.2 0 0 0-3.24.18 4.23 4.23 0 0 0-1.47.92c-.43.4-.82.9-1.17 1.5a13.1 13.1 0 0 0-.92 2.02V48h-3.94V25.71h2.24c.43 0 .72.08.88.25.17.16.28.44.33.83l.27 3.39zm15.04-14.59V48h-3.92V15.6h3.92zm19.55 15.43a6.22 6.22 0 0 0-2.38-2.05 6.7 6.7 0 0 0-2.86-.6c-2.07 0-3.66.75-4.77 2.23-1.12 1.48-1.68 3.6-1.68 6.33 0 1.46.13 2.7.38 3.74a7.29 7.29 0 0 0 1.1 2.56 4.35 4.35 0 0 0 1.78 1.45c.7.3 1.5.46 2.4.46 1.29 0 2.41-.3 3.36-.88a9.6 9.6 0 0 0 2.67-2.49V31.02zm3.91-15.43V48h-2.33c-.56 0-.9-.27-1.06-.81l-.35-2.71a12.13 12.13 0 0 1-3.25 2.77 8.28 8.28 0 0 1-4.23 1.06 7.31 7.31 0 0 1-6.14-2.9c-.73-.96-1.3-2.15-1.69-3.57a18.35 18.35 0 0 1 .07-9.48 11.29 11.29 0 0 1 1.89-3.7 8.7 8.7 0 0 1 7.06-3.34 7.96 7.96 0 0 1 6.12 2.62V15.59h3.91zM46.61 70.71V93H42.7V70.71h3.91zm.84-7c0 .39-.08.75-.24 1.09-.15.32-.35.61-.62.88-.25.25-.55.44-.9.59a2.67 2.67 0 0 1-2.16 0 2.9 2.9 0 0 1-1.45-1.47 2.67 2.67 0 0 1 0-2.16c.15-.35.35-.65.6-.9.25-.27.53-.47.85-.62a2.67 2.67 0 0 1 2.16 0c.35.15.65.35.9.62.27.25.47.55.62.9.16.34.24.7.24 1.08zm7.97 10.24c.49-.54 1-1.04 1.54-1.48a9.85 9.85 0 0 1 3.66-1.84 8.96 8.96 0 0 1 5.43.35c.94.4 1.72.97 2.33 1.71.63.74 1.11 1.62 1.43 2.67.32 1.04.49 2.19.49 3.45V93h-3.94V78.81c0-1.69-.4-3-1.17-3.92-.76-.93-1.93-1.4-3.5-1.4-1.15 0-2.24.27-3.25.83-1 .56-1.92 1.31-2.77 2.27V93h-3.94V70.71h2.35c.56 0 .9.28 1.04.82l.3 2.42zm57.7 3.3c0 2.36-.37 4.5-1.11 6.44a14.3 14.3 0 0 1-3.17 4.98c-1.37 1.37-3 2.45-4.93 3.2-1.9.76-4.02 1.13-6.33 1.13H85.8V61.47h11.77c2.31 0 4.42.39 6.33 1.15a13.8 13.8 0 0 1 8.1 8.18 17.75 17.75 0 0 1 1.12 6.45zm-4.37 0c0-1.94-.26-3.67-.8-5.2a10.94 10.94 0 0 0-2.23-3.87 9.57 9.57 0 0 0-3.53-2.42 12.23 12.23 0 0 0-4.61-.83h-7.5v24.62h7.5c1.7 0 3.24-.28 4.61-.84a9.7 9.7 0 0 0 3.53-2.4 10.94 10.94 0 0 0 2.24-3.87c.53-1.53.8-3.26.8-5.2zm19.8 5.72c-1.8.06-3.34.2-4.62.44-1.26.22-2.3.51-3.1.88-.8.36-1.37.8-1.74 1.3-.35.5-.53 1.05-.53 1.67 0 .58.1 1.1.3 1.52a3 3 0 0 0 .76 1.05c.34.27.73.46 1.17.6a6.13 6.13 0 0 0 1.45.17 7.28 7.28 0 0 0 3.5-.81 11.95 11.95 0 0 0 2.82-2.2v-4.62zm-12.65-9.11a12.73 12.73 0 0 1 3.98-2.66c1.43-.59 3-.88 4.73-.88 1.25 0 2.36.2 3.33.61a6.81 6.81 0 0 1 3.94 4.38c.33 1.04.5 2.19.5 3.43V93h-1.74a1.8 1.8 0 0 1-.88-.18c-.2-.13-.36-.38-.48-.74l-.44-2.12-1.72 1.46a9.48 9.48 0 0 1-3.74 1.7c-.69.15-1.46.23-2.3.23-.87 0-1.69-.12-2.45-.35a5.34 5.34 0 0 1-3.34-2.93 6.64 6.64 0 0 1-.49-2.64c0-.88.25-1.72.73-2.53a6.33 6.33 0 0 1 2.35-2.17c1.09-.63 2.5-1.15 4.25-1.54 1.75-.41 3.89-.65 6.42-.7v-1.75c0-1.73-.37-3.03-1.12-3.91-.75-.9-1.84-1.34-3.28-1.34-.97 0-1.78.12-2.44.37-.64.23-1.2.5-1.7.81l-1.23.82c-.33.23-.67.35-1 .35-.27 0-.5-.07-.69-.2a2.1 2.1 0 0 1-.48-.53l-.7-1.25zm27.67 19.5c-1.76 0-3.12-.5-4.07-1.48-.94-.98-1.41-2.4-1.41-4.25V74h-2.68a.9.9 0 0 1-.6-.2c-.16-.14-.24-.36-.24-.66v-1.56l3.65-.46.9-6.89c.05-.22.14-.4.29-.52a.88.88 0 0 1 .62-.22H142v7.67h6.44V74H142v13.38c0 .94.22 1.63.68 2.09.45.45 1.04.68 1.76.68a3.21 3.21 0 0 0 1.85-.53l.55-.35c.16-.12.3-.18.41-.18.2 0 .4.13.55.38l1.15 1.87a7.45 7.45 0 0 1-2.44 1.5 8.53 8.53 0 0 1-2.95.52zm19.68-10.4c-1.8.07-3.34.21-4.62.45-1.26.22-2.3.51-3.1.88-.8.36-1.37.8-1.74 1.3-.35.5-.53 1.05-.53 1.67 0 .58.1 1.1.3 1.52a2.9 2.9 0 0 0 .76 1.05c.34.27.73.46 1.17.6a6.13 6.13 0 0 0 1.45.17 7.3 7.3 0 0 0 3.5-.81 12.04 12.04 0 0 0 2.82-2.2v-4.62zm-12.65-9.1a12.72 12.72 0 0 1 3.99-2.66c1.42-.59 3-.88 4.72-.88 1.25 0 2.36.2 3.33.61a6.81 6.81 0 0 1 3.94 4.38c.33 1.04.5 2.19.5 3.43V93h-1.74a1.8 1.8 0 0 1-.88-.18c-.2-.13-.36-.38-.48-.74l-.44-2.12-1.72 1.46a9.48 9.48 0 0 1-3.74 1.7c-.69.15-1.46.23-2.3.23-.87 0-1.69-.12-2.45-.35a5.33 5.33 0 0 1-3.34-2.93 6.62 6.62 0 0 1-.49-2.64c0-.88.25-1.72.73-2.53a6.33 6.33 0 0 1 2.35-2.17c1.09-.63 2.5-1.15 4.25-1.54 1.74-.41 3.89-.65 6.42-.7v-1.75c0-1.73-.37-3.03-1.12-3.91-.75-.9-1.84-1.34-3.28-1.34-.97 0-1.78.12-2.44.37-.64.23-1.2.5-1.7.81l-1.22.82c-.34.23-.68.35-1.02.35-.26 0-.49-.07-.68-.2a1.88 1.88 0 0 1-.48-.53l-.7-1.25zM40.98 32.25c0 2.36-.38 4.53-1.12 6.51a14.26 14.26 0 0 1-8.1 8.4c-1.9.78-4.02 1.17-6.34 1.17-2.31 0-4.42-.39-6.33-1.17a14.31 14.31 0 0 1-8.08-8.4 18.29 18.29 0 0 1-1.12-6.51c0-2.36.38-4.53 1.12-6.5.75-1.97 1.8-3.67 3.17-5.1a14.32 14.32 0 0 1 4.9-3.34c1.92-.8 4.03-1.19 6.34-1.19 2.32 0 4.43.4 6.34 1.19 1.92.8 3.56 1.9 4.93 3.34a14.87 14.87 0 0 1 3.17 5.1 18.1 18.1 0 0 1 1.12 6.5zm-4.38 0c0-1.94-.26-3.68-.8-5.22a10.91 10.91 0 0 0-2.24-3.89 9.68 9.68 0 0 0-3.52-2.46 11.95 11.95 0 0 0-4.62-.86c-1.68 0-3.21.28-4.6.86a9.88 9.88 0 0 0-3.54 2.46 10.91 10.91 0 0 0-2.24 3.9c-.53 1.53-.8 3.27-.8 5.2 0 1.94.27 3.68.8 5.22a11.17 11.17 0 0 0 2.24 3.9 10.01 10.01 0 0 0 3.55 2.44c1.38.56 2.9.83 4.6.83s3.24-.27 4.61-.83a9.8 9.8 0 0 0 3.52-2.44 11.17 11.17 0 0 0 2.25-3.9c.53-1.54.8-3.28.8-5.21zm26.22-6.54V48H60.5c-.56 0-.9-.27-1.05-.81l-.31-2.4a12.45 12.45 0 0 1-3.26 2.6c-1.2.64-2.58.96-4.13.96-1.22 0-2.3-.2-3.24-.6a6.52 6.52 0 0 1-2.33-1.7 7.37 7.37 0 0 1-1.43-2.67c-.3-1.04-.46-2.2-.46-3.45V25.7h3.91v14.22c0 1.68.38 2.99 1.15 3.91.77.93 1.96 1.39 3.54 1.39 1.16 0 2.24-.27 3.23-.82a10.42 10.42 0 0 0 2.8-2.28V25.7h3.91zm8.61 4.47a9.94 9.94 0 0 1 2.6-3.56 5.64 5.64 0 0 1 3.76-1.3c.47 0 .92.05 1.34.15.44.1.83.27 1.17.49l-.3 2.92c-.09.37-.3.55-.66.55-.2 0-.5-.04-.9-.13a6.21 6.21 0 0 0-3.24.18 4.23 4.23 0 0 0-1.47.92c-.42.4-.81.9-1.17 1.5-.33.58-.64 1.26-.92 2.02V48H67.7V25.71h2.25c.42 0 .72.08.88.25.16.16.27.44.33.83l.26 3.39zm61.16-13.7L122.75 48h-3.82l-7.99-24.05a21.95 21.95 0 0 1-.42-1.58 38.36 38.36 0 0 1-.44 1.58L102.05 48h-3.83L88.4 16.47h3.54c.38 0 .7.1.95.29.26.2.43.43.5.73l6.52 21.9.28 1.28.29 1.46.3-1.46.38-1.27 7.41-21.91c.1-.25.26-.48.51-.69.27-.22.58-.33.95-.33h1.23c.38 0 .69.1.92.29a1.77 1.77 0 0 1 .53.73l7.4 21.9a28.4 28.4 0 0 1 .68 2.62 29.52 29.52 0 0 1 .52-2.61l6.54-21.91a1.31 1.31 0 0 1 .48-.7c.27-.21.58-.32.95-.32h3.32zm9.35 8.88c1.63 0 3.1.27 4.4.82a9.43 9.43 0 0 1 5.46 5.94c.5 1.4.74 2.98.74 4.73 0 1.76-.25 3.34-.74 4.75a9.43 9.43 0 0 1-5.46 5.92c-1.3.52-2.77.79-4.4.79-1.64 0-3.12-.27-4.44-.8a9.42 9.42 0 0 1-3.35-2.3c-.92-1-1.63-2.2-2.13-3.61-.49-1.41-.73-3-.73-4.75s.24-3.33.73-4.73c.5-1.43 1.2-2.64 2.13-3.63.93-1 2.04-1.77 3.35-2.31 1.32-.55 2.8-.82 4.44-.82zm0 19.89c2.2 0 3.84-.73 4.93-2.2 1.08-1.48 1.63-3.54 1.63-6.18 0-2.66-.55-4.72-1.63-6.2-1.09-1.49-2.73-2.23-4.93-2.23-1.12 0-2.09.2-2.93.57a5.71 5.71 0 0 0-2.06 1.65c-.55.72-.96 1.61-1.24 2.67-.26 1.04-.4 2.22-.4 3.54 0 2.64.55 4.7 1.64 6.18 1.1 1.47 2.76 2.2 4.99 2.2zm17.97-15.07a9.94 9.94 0 0 1 2.6-3.56 5.64 5.64 0 0 1 3.76-1.3c.47 0 .91.05 1.34.15.44.1.83.27 1.16.49l-.28 2.92c-.09.37-.31.55-.66.55-.2 0-.5-.04-.9-.13a6.2 6.2 0 0 0-3.24.18 4.23 4.23 0 0 0-1.47.92c-.43.4-.82.9-1.17 1.5a13.1 13.1 0 0 0-.92 2.02V48h-3.94V25.71h2.24c.43 0 .72.08.88.25.17.16.28.44.33.83l.27 3.39zm15.04-14.59V48h-3.92V15.6h3.92zm19.55 15.43a6.22 6.22 0 0 0-2.38-2.05 6.7 6.7 0 0 0-2.86-.6c-2.07 0-3.66.75-4.77 2.23-1.12 1.48-1.68 3.6-1.68 6.33 0 1.46.13 2.7.38 3.74a7.29 7.29 0 0 0 1.1 2.56 4.35 4.35 0 0 0 1.78 1.45c.7.3 1.5.46 2.4.46 1.29 0 2.41-.3 3.36-.88a9.6 9.6 0 0 0 2.67-2.49V31.02zm3.91-15.43V48h-2.33c-.56 0-.9-.27-1.06-.81l-.35-2.71a12.13 12.13 0 0 1-3.25 2.77 8.28 8.28 0 0 1-4.23 1.06 7.31 7.31 0 0 1-6.14-2.9c-.73-.96-1.3-2.15-1.69-3.57a18.35 18.35 0 0 1 .07-9.48 11.29 11.29 0 0 1 1.89-3.7 8.7 8.7 0 0 1 7.06-3.34 7.96 7.96 0 0 1 6.12 2.62V15.59h3.91zM46.61 70.71V93H42.7V70.71h3.91zm.84-7c0 .39-.08.75-.24 1.09-.15.32-.35.61-.62.88-.25.25-.55.44-.9.59a2.67 2.67 0 0 1-2.16 0 2.9 2.9 0 0 1-1.45-1.47 2.67 2.67 0 0 1 0-2.16c.15-.35.35-.65.6-.9.25-.27.53-.47.85-.62a2.67 2.67 0 0 1 2.16 0c.35.15.65.35.9.62.27.25.47.55.62.9.16.34.24.7.24 1.08zm7.97 10.24c.49-.54 1-1.04 1.54-1.48a9.85 9.85 0 0 1 3.66-1.84 8.96 8.96 0 0 1 5.43.35c.94.4 1.72.97 2.33 1.71.63.74 1.11 1.62 1.43 2.67.32 1.04.49 2.19.49 3.45V93h-3.94V78.81c0-1.69-.4-3-1.17-3.92-.76-.93-1.93-1.4-3.5-1.4-1.15 0-2.24.27-3.25.83-1 .56-1.92 1.31-2.77 2.27V93h-3.94V70.71h2.35c.56 0 .9.28 1.04.82l.3 2.42zm57.7 3.3c0 2.36-.37 4.5-1.11 6.44a14.3 14.3 0 0 1-3.17 4.98c-1.37 1.37-3 2.45-4.93 3.2-1.9.76-4.02 1.13-6.33 1.13H85.8V61.47h11.77c2.31 0 4.42.39 6.33 1.15a13.8 13.8 0 0 1 8.1 8.18 17.75 17.75 0 0 1 1.12 6.45zm-4.37 0c0-1.94-.26-3.67-.8-5.2a10.94 10.94 0 0 0-2.23-3.87 9.57 9.57 0 0 0-3.53-2.42 12.23 12.23 0 0 0-4.61-.83h-7.5v24.62h7.5c1.7 0 3.24-.28 4.61-.84a9.7 9.7 0 0 0 3.53-2.4 10.94 10.94 0 0 0 2.24-3.87c.53-1.53.8-3.26.8-5.2zm19.8 5.72c-1.8.06-3.34.2-4.62.44-1.26.22-2.3.51-3.1.88-.8.36-1.37.8-1.74 1.3-.35.5-.53 1.05-.53 1.67 0 .58.1 1.1.3 1.52a3 3 0 0 0 .76 1.05c.34.27.73.46 1.17.6a6.13 6.13 0 0 0 1.45.17 7.28 7.28 0 0 0 3.5-.81 11.95 11.95 0 0 0 2.82-2.2v-4.62zm-12.65-9.11a12.73 12.73 0 0 1 3.98-2.66c1.43-.59 3-.88 4.73-.88 1.25 0 2.36.2 3.33.61a6.81 6.81 0 0 1 3.94 4.38c.33 1.04.5 2.19.5 3.43V93h-1.74a1.8 1.8 0 0 1-.88-.18c-.2-.13-.36-.38-.48-.74l-.44-2.12-1.72 1.46a9.48 9.48 0 0 1-3.74 1.7c-.69.15-1.46.23-2.3.23-.87 0-1.69-.12-2.45-.35a5.34 5.34 0 0 1-3.34-2.93 6.64 6.64 0 0 1-.49-2.64c0-.88.25-1.72.73-2.53a6.33 6.33 0 0 1 2.35-2.17c1.09-.63 2.5-1.15 4.25-1.54 1.75-.41 3.89-.65 6.42-.7v-1.75c0-1.73-.37-3.03-1.12-3.91-.75-.9-1.84-1.34-3.28-1.34-.97 0-1.78.12-2.44.37-.64.23-1.2.5-1.7.81l-1.23.82c-.33.23-.67.35-1 .35-.27 0-.5-.07-.69-.2a2.1 2.1 0 0 1-.48-.53l-.7-1.25zm27.67 19.5c-1.76 0-3.12-.5-4.07-1.48-.94-.98-1.41-2.4-1.41-4.25V74h-2.68a.9.9 0 0 1-.6-.2c-.16-.14-.24-.36-.24-.66v-1.56l3.65-.46.9-6.89c.05-.22.14-.4.29-.52a.88.88 0 0 1 .62-.22H142v7.67h6.44V74H142v13.38c0 .94.22 1.63.68 2.09.45.45 1.04.68 1.76.68a3.21 3.21 0 0 0 1.85-.53l.55-.35c.16-.12.3-.18.41-.18.2 0 .4.13.55.38l1.15 1.87a7.45 7.45 0 0 1-2.44 1.5 8.53 8.53 0 0 1-2.95.52zm19.68-10.4c-1.8.07-3.34.21-4.62.45-1.26.22-2.3.51-3.1.88-.8.36-1.37.8-1.74 1.3-.35.5-.53 1.05-.53 1.67 0 .58.1 1.1.3 1.52a2.9 2.9 0 0 0 .76 1.05c.34.27.73.46 1.17.6a6.13 6.13 0 0 0 1.45.17 7.3 7.3 0 0 0 3.5-.81 12.04 12.04 0 0 0 2.82-2.2v-4.62zm-12.65-9.1a12.72 12.72 0 0 1 3.99-2.66c1.42-.59 3-.88 4.72-.88 1.25 0 2.36.2 3.33.61a6.81 6.81 0 0 1 3.94 4.38c.33 1.04.5 2.19.5 3.43V93h-1.74a1.8 1.8 0 0 1-.88-.18c-.2-.13-.36-.38-.48-.74l-.44-2.12-1.72 1.46a9.48 9.48 0 0 1-3.74 1.7c-.69.15-1.46.23-2.3.23-.87 0-1.69-.12-2.45-.35a5.33 5.33 0 0 1-3.34-2.93 6.62 6.62 0 0 1-.49-2.64c0-.88.25-1.72.73-2.53a6.33 6.33 0 0 1 2.35-2.17c1.09-.63 2.5-1.15 4.25-1.54 1.74-.41 3.89-.65 6.42-.7v-1.75c0-1.73-.37-3.03-1.12-3.91-.75-.9-1.84-1.34-3.28-1.34-.97 0-1.78.12-2.44.37-.64.23-1.2.5-1.7.81l-1.22.82c-.34.23-.68.35-1.02.35-.26 0-.49-.07-.68-.2a1.88 1.88 0 0 1-.48-.53l-.7-1.25z"
    fill="#fff"
  />
  <path fill="#D42B21" d="M0 106.79h210V120H0z" />
</g>
<defs>
  <clipPath id="clip0"><path fill="#fff" d="M0 0h210v120H0z" /></clipPath>
</defs>
</svg></g><a href="http://localhost:3030/grapher/world-population-by-world-regions-post-1820" style="font-family:&quot;Playfair Display&quot;, Georgia, &quot;Times New Roman&quot;, serif" target="_blank" rel="noopener"><text font-size="25.20" x="15.0" y="36.9" fill="#555"><tspan x="15" y="36.924">World population by region</tspan></text></a></g><g class="StackedArea"><defs><clipPath id="boundsClip-1"><rect x="75.08" y="66" width="820" height="960.28"></rect></clipPath></defs><rect x="15" y="66" width="820" height="480.14" fill="transparent"></rect><g class="DualAxisView"><g class="HorizontalAxis"><line x1="75.1" y1="524.94" x2="75.1" y2="529.94" stroke="#999"></line><line x1="711.2" y1="524.94" x2="711.2" y2="529.94" stroke="#999"></line><line x1="170" y1="524.94" x2="170" y2="529.94" stroke="#999"></line><line x1="328.3" y1="524.94" x2="328.3" y2="529.94" stroke="#999"></line><line x1="486.5" y1="524.94" x2="486.5" y2="529.94" stroke="#999"></line><line x1="644.7" y1="524.94" x2="644.7" y2="529.94" stroke="#999"></line><text x="75.08" y="546.14" fill="#666" text-anchor="start" font-size="16.2">1820</text><text x="711.17" y="546.14" fill="#666" text-anchor="end" font-size="16.2">2021</text><text x="170" y="546.14" fill="#666" text-anchor="middle" font-size="16.2">1850</text><text x="328.3" y="546.14" fill="#666" text-anchor="middle" font-size="16.2">1900</text><text x="486.5" y="546.14" fill="#666" text-anchor="middle" font-size="16.2">1950</text><text x="644.7" y="546.14" fill="#666" text-anchor="middle" font-size="16.2">2000</text></g><g class="VerticalAxis"><text x="70.08" y="524.9" dy=".32em" text-anchor="end" fill="#666" font-size="16.2">0</text><text x="70.08" y="466.7" dy=".32em" text-anchor="end" fill="#666" font-size="16.2">1 billion</text><text x="70.08" y="408.4" dy=".32em" text-anchor="end" fill="#666" font-size="16.2">2 billion</text><text x="70.08" y="350.1" dy=".32em" text-anchor="end" fill="#666" font-size="16.2">3 billion</text><text x="70.08" y="291.8" dy=".32em" text-anchor="end" fill="#666" font-size="16.2">4 billion</text><text x="70.08" y="233.5" dy=".32em" text-anchor="end" fill="#666" font-size="16.2">5 billion</text><text x="70.08" y="175.3" dy=".32em" text-anchor="end" fill="#666" font-size="16.2">6 billion</text><text x="70.08" y="117" dy=".32em" text-anchor="end" fill="#666" font-size="16.2">7 billion</text></g><g class="AxisGridLines horizontalLines"><line x1="75.08" y1="524.9" x2="711.17" y2="524.9" stroke="#999"></line><line x1="75.08" y1="466.7" x2="711.17" y2="466.7" stroke="#ddd" stroke-dasharray="3,2"></line><line x1="75.08" y1="408.4" x2="711.17" y2="408.4" stroke="#ddd" stroke-dasharray="3,2"></line><line x1="75.08" y1="350.1" x2="711.17" y2="350.1" stroke="#ddd" stroke-dasharray="3,2"></line><line x1="75.08" y1="291.8" x2="711.17" y2="291.8" stroke="#ddd" stroke-dasharray="3,2"></line><line x1="75.08" y1="233.5" x2="711.17" y2="233.5" stroke="#ddd" stroke-dasharray="3,2"></line><line x1="75.08" y1="175.3" x2="711.17" y2="175.3" stroke="#ddd" stroke-dasharray="3,2"></line><line x1="75.08" y1="117" x2="711.17" y2="117" stroke="#ddd" stroke-dasharray="3,2"></line></g></g><g clip-path="url(#boundsClip-1)"><g class="LineLabels" style="cursor:default"><g class="legendMark"><rect x="711.17" y="76.65" width="121.4" height="13.5" fill="#fff" opacity="0"></rect><text font-size="13.50" font-weight="400" x="715.2" y="88.4" fill="#1b9e77"><tspan x="715.17" y="88.39500000000001">North America</tspan></text></g><g class="legendMark"><rect x="711.17" y="106.65" width="123.83000000000001" height="13.5" fill="#fff" opacity="0"></rect><text font-size="13.50" font-weight="400" x="715.2" y="118.4" fill="#d95f02"><tspan x="715.17" y="118.39500000000001">South America</tspan></text></g><g class="legendMark"><rect x="711.17" y="141.15" width="78.74000000000001" height="13.5" fill="#fff" opacity="0"></rect><text font-size="13.50" font-weight="400" x="715.2" y="152.9" fill="#7570b3"><tspan x="715.17" y="152.895">Europe</tspan></text></g><g class="legendMark"><rect x="711.17" y="202.95" width="69.56" height="13.5" fill="#fff" opacity="0"></rect><text font-size="13.50" font-weight="400" x="715.2" y="214.7" fill="#e7298a"><tspan x="715.17" y="214.695">Africa</tspan></text></g><g class="legendMark"><rect x="711.17" y="379.35" width="61.325" height="13.5" fill="#fff" opacity="0"></rect><text font-size="13.50" font-weight="400" x="715.2" y="391.1" fill="#64a31d"><tspan x="715.17" y="391.095">Asia</tspan></text></g><g class="legendMark"><rect x="711.17" y="511.44000000000005" width="85.49000000000001" height="13.5" fill="#fff" opacity="0"></rect><text font-size="13.50" font-weight="400" x="715.2" y="523.2" fill="#cb9702"><tspan x="715.17" y="523.1850000000001">Oceania</tspan></text></g></g><g class="Areas"><rect x="75.08" y="66" width="636.0899999999999" height="458.94000000000005" opacity="0" fill="rgba(255,255,255,0)"></rect><path class="Oceania-area" stroke-linecap="round" d="M75.1 524.8L78.2 524.9L81.4 524.9L84.6 524.9L87.7 524.9L90.9 524.9L94.1 524.9L97.2 524.9L100.4 524.9L103.6 524.9L106.7 524.8L109.9 524.8L113.1 524.8L116.2 524.8L119.4 524.8L122.5 524.8L125.7 524.8L128.9 524.8L132 524.8L135.2 524.8L138.4 524.8L141.5 524.8L144.7 524.8L147.9 524.8L151 524.8L154.2 524.8L157.4 524.8L160.5 524.8L163.7 524.8L166.9 524.8L170 524.8L173.2 524.8L176.3 524.8L179.5 524.8L182.7 524.8L185.8 524.8L189 524.8L192.2 524.8L195.3 524.8L198.5 524.8L201.7 524.8L204.8 524.8L208 524.8L211.2 524.8L214.3 524.8L217.5 524.8L220.7 524.8L223.8 524.8L227 524.8L230.1 524.8L233.3 524.7L236.5 524.7L239.6 524.7L242.8 524.7L246 524.7L249.1 524.7L252.3 524.7L255.5 524.7L258.6 524.7L261.8 524.7L265 524.7L268.1 524.7L271.3 524.7L274.5 524.7L277.6 524.7L280.8 524.7L283.9 524.7L287.1 524.7L290.3 524.7L293.4 524.6L296.6 524.6L299.8 524.6L302.9 524.6L306.1 524.6L309.3 524.6L312.4 524.6L315.6 524.6L318.8 524.6L321.9 524.6L325.1 524.6L328.3 524.6L331.4 524.6L334.6 524.6L337.7 524.6L340.9 524.6L344.1 524.6L347.2 524.6L350.4 524.6L353.6 524.5L356.7 524.5L359.9 524.5L363.1 524.5L366.2 524.5L369.4 524.5L372.6 524.5L375.7 524.5L378.9 524.5L382 524.5L385.2 524.5L388.4 524.5L391.5 524.5L394.7 524.5L397.9 524.5L401 524.5L404.2 524.5L407.4 524.4L410.5 524.4L413.7 524.4L416.9 524.4L420 524.4L423.2 524.4L426.4 524.4L429.5 524.4L432.7 524.4L435.8 524.4L439 524.4L442.2 524.4L445.3 524.4L448.5 524.4L451.7 524.3L454.8 524.3L458 524.3L461.2 524.3L464.3 524.3L467.5 524.3L470.7 524.3L473.8 524.3L477 524.2L480.2 524.2L483.3 524.2L486.5 524.2L489.6 524.2L492.8 524.2L496 524.1L499.1 524.1L502.3 524.1L505.5 524.1L508.6 524.1L511.8 524L515 524L518.1 524L521.3 524L524.5 524L527.6 523.9L530.8 523.9L534 523.9L537.1 523.9L540.3 523.9L543.4 523.8L546.6 523.8L549.8 523.8L552.9 523.8L556.1 523.7L559.3 523.7L562.4 523.7L565.6 523.7L568.8 523.7L571.9 523.6L575.1 523.6L578.3 523.6L581.4 523.6L584.6 523.6L587.7 523.5L590.9 523.5L594.1 523.5L597.2 523.5L600.4 523.4L603.6 523.4L606.7 523.4L609.9 523.4L613.1 523.3L616.2 523.3L619.4 523.3L622.6 523.3L625.7 523.3L628.9 523.2L632.1 523.2L635.2 523.2L638.4 523.2L641.5 523.1L644.7 523.1L647.9 523.1L651 523.1L654.2 523L657.4 523L660.5 523L663.7 522.9L666.9 522.9L670 522.9L673.2 522.8L676.4 522.8L679.5 522.8L682.7 522.7L685.9 522.7L689 522.7L692.2 522.6L695.3 522.6L698.5 522.6L701.7 522.5L704.8 522.5L708 522.5L711.2 522.4L711.17 524.94L75.08 524.94" fill="#e6ab02" fill-opacity="0.7"></path><path class="Asia-area" stroke-linecap="round" d="M75.1 481.1L78.2 480.9L81.4 480.7L84.6 480.4L87.7 480.2L90.9 479.9L94.1 479.7L97.2 479.4L100.4 479.2L103.6 479L106.7 478.8L109.9 478.6L113.1 478.5L116.2 478.4L119.4 478.2L122.5 478.1L125.7 478L128.9 477.9L132 477.8L135.2 477.7L138.4 477.6L141.5 477.5L144.7 477.4L147.9 477.3L151 477.2L154.2 477.1L157.4 477L160.5 476.9L163.7 476.8L166.9 476.7L170 476.7L173.2 476.7L176.3 476.8L179.5 476.9L182.7 477L185.8 477.1L189 477.2L192.2 477.2L195.3 477.3L198.5 477.4L201.7 477.4L204.8 477.4L208 477.4L211.2 477.4L214.3 477.4L217.5 477.4L220.7 477.3L223.8 477.3L227 477.3L230.1 477.2L233.3 477.1L236.5 477L239.6 476.9L242.8 476.7L246 476.5L249.1 476.4L252.3 476.2L255.5 476L258.6 475.9L261.8 475.7L265 475.5L268.1 475.2L271.3 474.9L274.5 474.6L277.6 474.3L280.8 474L283.9 473.7L287.1 473.3L290.3 473L293.4 472.7L296.6 472.4L299.8 472.1L302.9 471.8L306.1 471.5L309.3 471.2L312.4 471L315.6 470.7L318.8 470.4L321.9 470.1L325.1 469.8L328.3 469.4L331.4 469.1L334.6 468.7L337.7 468.3L340.9 467.8L344.1 467.4L347.2 466.9L350.4 466.5L353.6 466.1L356.7 465.6L359.9 465.1L363.1 464.7L366.2 464.2L369.4 463.8L372.6 463.3L375.7 462.8L378.9 462.4L382 461.9L385.2 461.4L388.4 460.9L391.5 460.4L394.7 459.9L397.9 459.5L401 459L404.2 458.5L407.4 458L410.5 457.5L413.7 457L416.9 456.5L420 455.9L423.2 455.3L426.4 454.7L429.5 453.9L432.7 453.2L435.8 452.4L439 451.6L442.2 450.8L445.3 450L448.5 449.1L451.7 448.4L454.8 447.7L458 447.1L461.2 446.6L464.3 446.2L467.5 445.8L470.7 445.5L473.8 445L477 444.6L480.2 444.1L483.3 443.3L486.5 442.3L489.6 440.5L492.8 438.8L496 437.2L499.1 435.5L502.3 433.9L505.5 432.1L508.6 430.4L511.8 428.5L515 426.6L518.1 424.7L521.3 422.7L524.5 420.6L527.6 418.4L530.8 416L534 413.5L537.1 410.8L540.3 408L543.4 405L546.6 402L549.8 399L552.9 395.9L556.1 392.8L559.3 389.8L562.4 386.8L565.6 383.8L568.8 380.8L571.9 378L575.1 375.1L578.3 372.2L581.4 369.2L584.6 366.2L587.7 363.1L590.9 359.9L594.1 356.7L597.2 353.3L600.4 349.8L603.6 346.1L606.7 342.5L609.9 338.9L613.1 335.4L616.2 332L619.4 328.8L622.6 325.7L625.7 322.7L628.9 319.7L632.1 316.7L635.2 313.8L638.4 310.9L641.5 308L644.7 305.1L647.9 302.3L651 299.5L654.2 296.7L657.4 294L660.5 291.2L663.7 288.5L666.9 285.7L670 283L673.2 280.2L676.4 277.5L679.5 274.8L682.7 272.2L685.9 269.5L689 266.9L692.2 264.3L695.3 261.8L698.5 259.3L701.7 256.8L704.8 254.4L708 252L711.2 249.8L711.2 522.4L708 522.5L704.8 522.5L701.7 522.5L698.5 522.6L695.3 522.6L692.2 522.6L689 522.7L685.9 522.7L682.7 522.7L679.5 522.8L676.4 522.8L673.2 522.8L670 522.9L666.9 522.9L663.7 522.9L660.5 523L657.4 523L654.2 523L651 523.1L647.9 523.1L644.7 523.1L641.5 523.1L638.4 523.2L635.2 523.2L632.1 523.2L628.9 523.2L625.7 523.3L622.6 523.3L619.4 523.3L616.2 523.3L613.1 523.3L609.9 523.4L606.7 523.4L603.6 523.4L600.4 523.4L597.2 523.5L594.1 523.5L590.9 523.5L587.7 523.5L584.6 523.6L581.4 523.6L578.3 523.6L575.1 523.6L571.9 523.6L568.8 523.7L565.6 523.7L562.4 523.7L559.3 523.7L556.1 523.7L552.9 523.8L549.8 523.8L546.6 523.8L543.4 523.8L540.3 523.9L537.1 523.9L534 523.9L530.8 523.9L527.6 523.9L524.5 524L521.3 524L518.1 524L515 524L511.8 524L508.6 524.1L505.5 524.1L502.3 524.1L499.1 524.1L496 524.1L492.8 524.2L489.6 524.2L486.5 524.2L483.3 524.2L480.2 524.2L477 524.2L473.8 524.3L470.7 524.3L467.5 524.3L464.3 524.3L461.2 524.3L458 524.3L454.8 524.3L451.7 524.3L448.5 524.4L445.3 524.4L442.2 524.4L439 524.4L435.8 524.4L432.7 524.4L429.5 524.4L426.4 524.4L423.2 524.4L420 524.4L416.9 524.4L413.7 524.4L410.5 524.4L407.4 524.4L404.2 524.5L401 524.5L397.9 524.5L394.7 524.5L391.5 524.5L388.4 524.5L385.2 524.5L382 524.5L378.9 524.5L375.7 524.5L372.6 524.5L369.4 524.5L366.2 524.5L363.1 524.5L359.9 524.5L356.7 524.5L353.6 524.5L350.4 524.6L347.2 524.6L344.1 524.6L340.9 524.6L337.7 524.6L334.6 524.6L331.4 524.6L328.3 524.6L325.1 524.6L321.9 524.6L318.8 524.6L315.6 524.6L312.4 524.6L309.3 524.6L306.1 524.6L302.9 524.6L299.8 524.6L296.6 524.6L293.4 524.6L290.3 524.7L287.1 524.7L283.9 524.7L280.8 524.7L277.6 524.7L274.5 524.7L271.3 524.7L268.1 524.7L265 524.7L261.8 524.7L258.6 524.7L255.5 524.7L252.3 524.7L249.1 524.7L246 524.7L242.8 524.7L239.6 524.7L236.5 524.7L233.3 524.7L230.1 524.8L227 524.8L223.8 524.8L220.7 524.8L217.5 524.8L214.3 524.8L211.2 524.8L208 524.8L204.8 524.8L201.7 524.8L198.5 524.8L195.3 524.8L192.2 524.8L189 524.8L185.8 524.8L182.7 524.8L179.5 524.8L176.3 524.8L173.2 524.8L170 524.8L166.9 524.8L163.7 524.8L160.5 524.8L157.4 524.8L154.2 524.8L151 524.8L147.9 524.8L144.7 524.8L141.5 524.8L138.4 524.8L135.2 524.8L132 524.8L128.9 524.8L125.7 524.8L122.5 524.8L119.4 524.8L116.2 524.8L113.1 524.8L109.9 524.8L106.7 524.8L103.6 524.9L100.4 524.9L97.2 524.9L94.1 524.9L90.9 524.9L87.7 524.9L84.6 524.9L81.4 524.9L78.2 524.9L75.1 524.8" fill="#66a61e" fill-opacity="0.7"></path><path class="Africa-area" stroke-linecap="round" d="M75.1 476.2L78.2 475.9L81.4 475.7L84.6 475.4L87.7 475.1L90.9 474.8L94.1 474.5L97.2 474.2L100.4 473.9L103.6 473.7L106.7 473.4L109.9 473.2L113.1 473L116.2 472.9L119.4 472.7L122.5 472.6L125.7 472.4L128.9 472.2L132 472.1L135.2 471.9L138.4 471.7L141.5 471.6L144.7 471.4L147.9 471.2L151 471.1L154.2 470.9L157.4 470.7L160.5 470.6L163.7 470.4L166.9 470.3L170 470.2L173.2 470.2L176.3 470.2L179.5 470.3L182.7 470.3L185.8 470.4L189 470.4L192.2 470.5L195.3 470.6L198.5 470.6L201.7 470.6L204.8 470.6L208 470.6L211.2 470.5L214.3 470.5L217.5 470.4L220.7 470.3L223.8 470.3L227 470.2L230.1 470.1L233.3 470L236.5 469.9L239.6 469.7L242.8 469.5L246 469.3L249.1 469.1L252.3 468.9L255.5 468.7L258.6 468.5L261.8 468.3L265 468L268.1 467.7L271.3 467.4L274.5 467L277.6 466.7L280.8 466.3L283.9 466L287.1 465.6L290.3 465.2L293.4 464.8L296.6 464.5L299.8 464.2L302.9 463.9L306.1 463.6L309.3 463.3L312.4 463L315.6 462.7L318.8 462.4L321.9 462.1L325.1 461.7L328.3 461.4L331.4 461L334.6 460.5L337.7 460.1L340.9 459.6L344.1 459.2L347.2 458.7L350.4 458.2L353.6 457.7L356.7 457.2L359.9 456.7L363.1 456.3L366.2 455.8L369.4 455.3L372.6 454.8L375.7 454.3L378.9 453.8L382 453.3L385.2 452.7L388.4 452.2L391.5 451.6L394.7 451.1L397.9 450.5L401 449.9L404.2 449.3L407.4 448.7L410.5 448.1L413.7 447.5L416.9 446.8L420 446.2L423.2 445.4L426.4 444.6L429.5 443.8L432.7 442.9L435.8 442L439 441L442.2 440.1L445.3 439.1L448.5 438.2L451.7 437.3L454.8 436.4L458 435.7L461.2 435L464.3 434.4L467.5 433.9L470.7 433.3L473.8 432.7L477 432L480.2 431.3L483.3 430.3L486.5 429.1L489.6 427L492.8 425L496 423.1L499.1 421.1L502.3 419.1L505.5 417.1L508.6 415L511.8 412.8L515 410.5L518.1 408.2L521.3 405.7L524.5 403.2L527.6 400.6L530.8 397.8L534 394.8L537.1 391.7L540.3 388.4L543.4 384.9L546.6 381.4L549.8 377.8L552.9 374.2L556.1 370.5L559.3 366.9L562.4 363.2L565.6 359.6L568.8 356L571.9 352.4L575.1 348.8L578.3 345.2L581.4 341.5L584.6 337.6L587.7 333.7L590.9 329.7L594.1 325.6L597.2 321.3L600.4 316.9L603.6 312.3L606.7 307.7L609.9 303.1L613.1 298.6L616.2 294.3L619.4 290.1L622.6 286L625.7 281.9L628.9 277.9L632.1 273.9L635.2 269.9L638.4 265.8L641.5 261.9L644.7 257.9L647.9 253.9L651 249.9L654.2 245.9L657.4 241.9L660.5 237.8L663.7 233.7L666.9 229.6L670 225.4L673.2 221.2L676.4 217L679.5 212.7L682.7 208.4L685.9 204.1L689 199.7L692.2 195.4L695.3 191.1L698.5 186.7L701.7 182.4L704.8 178.2L708 173.9L711.2 169.7L711.2 249.8L708 252L704.8 254.4L701.7 256.8L698.5 259.3L695.3 261.8L692.2 264.3L689 266.9L685.9 269.5L682.7 272.2L679.5 274.8L676.4 277.5L673.2 280.2L670 283L666.9 285.7L663.7 288.5L660.5 291.2L657.4 294L654.2 296.7L651 299.5L647.9 302.3L644.7 305.1L641.5 308L638.4 310.9L635.2 313.8L632.1 316.7L628.9 319.7L625.7 322.7L622.6 325.7L619.4 328.8L616.2 332L613.1 335.4L609.9 338.9L606.7 342.5L603.6 346.1L600.4 349.8L597.2 353.3L594.1 356.7L590.9 359.9L587.7 363.1L584.6 366.2L581.4 369.2L578.3 372.2L575.1 375.1L571.9 378L568.8 380.8L565.6 383.8L562.4 386.8L559.3 389.8L556.1 392.8L552.9 395.9L549.8 399L546.6 402L543.4 405L540.3 408L537.1 410.8L534 413.5L530.8 416L527.6 418.4L524.5 420.6L521.3 422.7L518.1 424.7L515 426.6L511.8 428.5L508.6 430.4L505.5 432.1L502.3 433.9L499.1 435.5L496 437.2L492.8 438.8L489.6 440.5L486.5 442.3L483.3 443.3L480.2 444.1L477 444.6L473.8 445L470.7 445.5L467.5 445.8L464.3 446.2L461.2 446.6L458 447.1L454.8 447.7L451.7 448.4L448.5 449.1L445.3 450L442.2 450.8L439 451.6L435.8 452.4L432.7 453.2L429.5 453.9L426.4 454.7L423.2 455.3L420 455.9L416.9 456.5L413.7 457L410.5 457.5L407.4 458L404.2 458.5L401 459L397.9 459.5L394.7 459.9L391.5 460.4L388.4 460.9L385.2 461.4L382 461.9L378.9 462.4L375.7 462.8L372.6 463.3L369.4 463.8L366.2 464.2L363.1 464.7L359.9 465.1L356.7 465.6L353.6 466.1L350.4 466.5L347.2 466.9L344.1 467.4L340.9 467.8L337.7 468.3L334.6 468.7L331.4 469.1L328.3 469.4L325.1 469.8L321.9 470.1L318.8 470.4L315.6 470.7L312.4 471L309.3 471.2L306.1 471.5L302.9 471.8L299.8 472.1L296.6 472.4L293.4 472.7L290.3 473L287.1 473.3L283.9 473.7L280.8 474L277.6 474.3L274.5 474.6L271.3 474.9L268.1 475.2L265 475.5L261.8 475.7L258.6 475.9L255.5 476L252.3 476.2L249.1 476.4L246 476.5L242.8 476.7L239.6 476.9L236.5 477L233.3 477.1L230.1 477.2L227 477.3L223.8 477.3L220.7 477.3L217.5 477.4L214.3 477.4L211.2 477.4L208 477.4L204.8 477.4L201.7 477.4L198.5 477.4L195.3 477.3L192.2 477.2L189 477.2L185.8 477.1L182.7 477L179.5 476.9L176.3 476.8L173.2 476.7L170 476.7L166.9 476.7L163.7 476.8L160.5 476.9L157.4 477L154.2 477.1L151 477.2L147.9 477.3L144.7 477.4L141.5 477.5L138.4 477.6L135.2 477.7L132 477.8L128.9 477.9L125.7 478L122.5 478.1L119.4 478.2L116.2 478.4L113.1 478.5L109.9 478.6L106.7 478.8L103.6 479L100.4 479.2L97.2 479.4L94.1 479.7L90.9 479.9L87.7 480.2L84.6 480.4L81.4 480.7L78.2 480.9L75.1 481.1" fill="#e7298a" fill-opacity="0.7"></path><path class="Europe-area" stroke-linecap="round" d="M75.1 463.1L78.2 462.8L81.4 462.4L84.6 462L87.7 461.6L90.9 461.2L94.1 460.8L97.2 460.4L100.4 460L103.6 459.6L106.7 459.2L109.9 458.9L113.1 458.6L116.2 458.3L119.4 458L122.5 457.8L125.7 457.5L128.9 457.2L132 456.9L135.2 456.6L138.4 456.4L141.5 456.1L144.7 455.8L147.9 455.6L151 455.3L154.2 455.1L157.4 454.8L160.5 454.5L163.7 454.3L166.9 454L170 453.9L173.2 453.7L176.3 453.7L179.5 453.6L182.7 453.6L185.8 453.6L189 453.5L192.2 453.5L195.3 453.4L198.5 453.3L201.7 453.2L204.8 453.1L208 452.9L211.2 452.8L214.3 452.6L217.5 452.4L220.7 452.2L223.8 452L227 451.8L230.1 451.6L233.3 451.3L236.5 451.1L239.6 450.8L242.8 450.4L246 450.1L249.1 449.7L252.3 449.3L255.5 449L258.6 448.6L261.8 448.2L265 447.8L268.1 447.4L271.3 446.9L274.5 446.4L277.6 445.9L280.8 445.3L283.9 444.8L287.1 444.3L290.3 443.7L293.4 443.2L296.6 442.7L299.8 442.2L302.9 441.7L306.1 441.2L309.3 440.7L312.4 440.3L315.6 439.8L318.8 439.3L321.9 438.8L325.1 438.2L328.3 437.7L331.4 437.1L334.6 436.4L337.7 435.8L340.9 435.1L344.1 434.4L347.2 433.7L350.4 433L353.6 432.3L356.7 431.6L359.9 431L363.1 430.4L366.2 429.8L369.4 429.2L372.6 428.7L375.7 428.1L378.9 427.5L382 426.9L385.2 426.3L388.4 425.7L391.5 425L394.7 424.3L397.9 423.6L401 422.8L404.2 422L407.4 421.2L410.5 420.3L413.7 419.5L416.9 418.7L420 417.8L423.2 416.8L426.4 415.8L429.5 414.8L432.7 413.7L435.8 412.5L439 411.4L442.2 410.3L445.3 409.1L448.5 407.9L451.7 406.8L454.8 405.8L458 404.9L461.2 404.1L464.3 403.3L467.5 402.6L470.7 401.9L473.8 401.3L477 400.5L480.2 399.7L483.3 398.5L486.5 397L489.6 394.6L492.8 392.3L496 390.1L499.1 387.8L502.3 385.5L505.5 383.1L508.6 380.7L511.8 378.1L515 375.5L518.1 372.8L521.3 370.1L524.5 367.2L527.6 364.2L530.8 361.1L534 357.8L537.1 354.4L540.3 350.8L543.4 347.1L546.6 343.3L549.8 339.5L552.9 335.6L556.1 331.7L559.3 327.8L562.4 324L565.6 320.1L568.8 316.3L571.9 312.5L575.1 308.7L578.3 304.9L581.4 301L584.6 297L587.7 292.9L590.9 288.8L594.1 284.5L597.2 280L600.4 275.4L603.6 270.7L606.7 265.9L609.9 261.2L613.1 256.6L616.2 252.2L619.4 247.9L622.6 243.7L625.7 239.6L628.9 235.5L632.1 231.4L635.2 227.4L638.4 223.5L641.5 219.5L644.7 215.5L647.9 211.5L651 207.5L654.2 203.5L657.4 199.4L660.5 195.3L663.7 191.1L666.9 186.9L670 182.6L673.2 178.3L676.4 174L679.5 169.6L682.7 165.2L685.9 160.8L689 156.4L692.2 152L695.3 147.6L698.5 143.2L701.7 138.9L704.8 134.5L708 130.3L711.2 126.1L711.2 169.7L708 173.9L704.8 178.2L701.7 182.4L698.5 186.7L695.3 191.1L692.2 195.4L689 199.7L685.9 204.1L682.7 208.4L679.5 212.7L676.4 217L673.2 221.2L670 225.4L666.9 229.6L663.7 233.7L660.5 237.8L657.4 241.9L654.2 245.9L651 249.9L647.9 253.9L644.7 257.9L641.5 261.9L638.4 265.8L635.2 269.9L632.1 273.9L628.9 277.9L625.7 281.9L622.6 286L619.4 290.1L616.2 294.3L613.1 298.6L609.9 303.1L606.7 307.7L603.6 312.3L600.4 316.9L597.2 321.3L594.1 325.6L590.9 329.7L587.7 333.7L584.6 337.6L581.4 341.5L578.3 345.2L575.1 348.8L571.9 352.4L568.8 356L565.6 359.6L562.4 363.2L559.3 366.9L556.1 370.5L552.9 374.2L549.8 377.8L546.6 381.4L543.4 384.9L540.3 388.4L537.1 391.7L534 394.8L530.8 397.8L527.6 400.6L524.5 403.2L521.3 405.7L518.1 408.2L515 410.5L511.8 412.8L508.6 415L505.5 417.1L502.3 419.1L499.1 421.1L496 423.1L492.8 425L489.6 427L486.5 429.1L483.3 430.3L480.2 431.3L477 432L473.8 432.7L470.7 433.3L467.5 433.9L464.3 434.4L461.2 435L458 435.7L454.8 436.4L451.7 437.3L448.5 438.2L445.3 439.1L442.2 440.1L439 441L435.8 442L432.7 442.9L429.5 443.8L426.4 444.6L423.2 445.4L420 446.2L416.9 446.8L413.7 447.5L410.5 448.1L407.4 448.7L404.2 449.3L401 449.9L397.9 450.5L394.7 451.1L391.5 451.6L388.4 452.2L385.2 452.7L382 453.3L378.9 453.8L375.7 454.3L372.6 454.8L369.4 455.3L366.2 455.8L363.1 456.3L359.9 456.7L356.7 457.2L353.6 457.7L350.4 458.2L347.2 458.7L344.1 459.2L340.9 459.6L337.7 460.1L334.6 460.5L331.4 461L328.3 461.4L325.1 461.7L321.9 462.1L318.8 462.4L315.6 462.7L312.4 463L309.3 463.3L306.1 463.6L302.9 463.9L299.8 464.2L296.6 464.5L293.4 464.8L290.3 465.2L287.1 465.6L283.9 466L280.8 466.3L277.6 466.7L274.5 467L271.3 467.4L268.1 467.7L265 468L261.8 468.3L258.6 468.5L255.5 468.7L252.3 468.9L249.1 469.1L246 469.3L242.8 469.5L239.6 469.7L236.5 469.9L233.3 470L230.1 470.1L227 470.2L223.8 470.3L220.7 470.3L217.5 470.4L214.3 470.5L211.2 470.5L208 470.6L204.8 470.6L201.7 470.6L198.5 470.6L195.3 470.6L192.2 470.5L189 470.4L185.8 470.4L182.7 470.3L179.5 470.3L176.3 470.2L173.2 470.2L170 470.2L166.9 470.3L163.7 470.4L160.5 470.6L157.4 470.7L154.2 470.9L151 471.1L147.9 471.2L144.7 471.4L141.5 471.6L138.4 471.7L135.2 471.9L132 472.1L128.9 472.2L125.7 472.4L122.5 472.6L119.4 472.7L116.2 472.9L113.1 473L109.9 473.2L106.7 473.4L103.6 473.7L100.4 473.9L97.2 474.2L94.1 474.5L90.9 474.8L87.7 475.1L84.6 475.4L81.4 475.7L78.2 475.9L75.1 476.2" fill="#7570b3" fill-opacity="0.7"></path><path class="South-America-area" stroke-linecap="round" d="M75.1 462.5L78.2 462.1L81.4 461.7L84.6 461.3L87.7 460.9L90.9 460.5L94.1 460.1L97.2 459.7L100.4 459.2L103.6 458.8L106.7 458.4L109.9 458.1L113.1 457.8L116.2 457.5L119.4 457.2L122.5 456.9L125.7 456.6L128.9 456.3L132 456L135.2 455.7L138.4 455.4L141.5 455.2L144.7 454.9L147.9 454.6L151 454.3L154.2 454.1L157.4 453.8L160.5 453.5L163.7 453.2L166.9 452.9L170 452.7L173.2 452.6L176.3 452.5L179.5 452.5L182.7 452.4L185.8 452.4L189 452.3L192.2 452.3L195.3 452.2L198.5 452.1L201.7 452L204.8 451.8L208 451.7L211.2 451.5L214.3 451.3L217.5 451.1L220.7 450.9L223.8 450.7L227 450.5L230.1 450.2L233.3 449.9L236.5 449.7L239.6 449.3L242.8 448.9L246 448.6L249.1 448.2L252.3 447.8L255.5 447.4L258.6 447.1L261.8 446.6L265 446.2L268.1 445.7L271.3 445.2L274.5 444.7L277.6 444.1L280.8 443.5L283.9 443L287.1 442.4L290.3 441.8L293.4 441.3L296.6 440.7L299.8 440.2L302.9 439.6L306.1 439.1L309.3 438.6L312.4 438.1L315.6 437.5L318.8 437L321.9 436.5L325.1 435.9L328.3 435.2L331.4 434.6L334.6 433.9L337.7 433.2L340.9 432.5L344.1 431.7L347.2 431L350.4 430.2L353.6 429.5L356.7 428.7L359.9 428L363.1 427.4L366.2 426.7L369.4 426.1L372.6 425.5L375.7 424.8L378.9 424.2L382 423.5L385.2 422.9L388.4 422.2L391.5 421.4L394.7 420.7L397.9 419.8L401 419L404.2 418.1L407.4 417.2L410.5 416.3L413.7 415.4L416.9 414.5L420 413.5L423.2 412.4L426.4 411.4L429.5 410.2L432.7 409L435.8 407.8L439 406.6L442.2 405.4L445.3 404.1L448.5 402.8L451.7 401.6L454.8 400.5L458 399.5L461.2 398.6L464.3 397.7L467.5 396.9L470.7 396L473.8 395.2L477 394.3L480.2 393.3L483.3 392.1L486.5 390.4L489.6 387.8L492.8 385.4L496 382.9L499.1 380.4L502.3 377.9L505.5 375.3L508.6 372.7L511.8 369.9L515 367.1L518.1 364.2L521.3 361.2L524.5 358.1L527.6 354.8L530.8 351.5L534 347.9L537.1 344.2L540.3 340.4L543.4 336.4L546.6 332.3L549.8 328.3L552.9 324.1L556.1 320L559.3 315.9L562.4 311.7L565.6 307.6L568.8 303.5L571.9 299.4L575.1 295.3L578.3 291.2L581.4 287L584.6 282.7L587.7 278.3L590.9 273.8L594.1 269.2L597.2 264.4L600.4 259.5L603.6 254.4L606.7 249.3L609.9 244.3L613.1 239.4L616.2 234.6L619.4 230L622.6 225.5L625.7 221.1L628.9 216.7L632.1 212.4L635.2 208L638.4 203.8L641.5 199.5L644.7 195.2L647.9 190.9L651 186.6L654.2 182.3L657.4 178L660.5 173.6L663.7 169.2L666.9 164.7L670 160.2L673.2 155.7L676.4 151.1L679.5 146.5L682.7 141.9L685.9 137.3L689 132.6L692.2 128L695.3 123.4L698.5 118.8L701.7 114.2L704.8 109.7L708 105.2L711.2 100.8L711.2 126.1L708 130.3L704.8 134.5L701.7 138.9L698.5 143.2L695.3 147.6L692.2 152L689 156.4L685.9 160.8L682.7 165.2L679.5 169.6L676.4 174L673.2 178.3L670 182.6L666.9 186.9L663.7 191.1L660.5 195.3L657.4 199.4L654.2 203.5L651 207.5L647.9 211.5L644.7 215.5L641.5 219.5L638.4 223.5L635.2 227.4L632.1 231.4L628.9 235.5L625.7 239.6L622.6 243.7L619.4 247.9L616.2 252.2L613.1 256.6L609.9 261.2L606.7 265.9L603.6 270.7L600.4 275.4L597.2 280L594.1 284.5L590.9 288.8L587.7 292.9L584.6 297L581.4 301L578.3 304.9L575.1 308.7L571.9 312.5L568.8 316.3L565.6 320.1L562.4 324L559.3 327.8L556.1 331.7L552.9 335.6L549.8 339.5L546.6 343.3L543.4 347.1L540.3 350.8L537.1 354.4L534 357.8L530.8 361.1L527.6 364.2L524.5 367.2L521.3 370.1L518.1 372.8L515 375.5L511.8 378.1L508.6 380.7L505.5 383.1L502.3 385.5L499.1 387.8L496 390.1L492.8 392.3L489.6 394.6L486.5 397L483.3 398.5L480.2 399.7L477 400.5L473.8 401.3L470.7 401.9L467.5 402.6L464.3 403.3L461.2 404.1L458 404.9L454.8 405.8L451.7 406.8L448.5 407.9L445.3 409.1L442.2 410.3L439 411.4L435.8 412.5L432.7 413.7L429.5 414.8L426.4 415.8L423.2 416.8L420 417.8L416.9 418.7L413.7 419.5L410.5 420.3L407.4 421.2L404.2 422L401 422.8L397.9 423.6L394.7 424.3L391.5 425L388.4 425.7L385.2 426.3L382 426.9L378.9 427.5L375.7 428.1L372.6 428.7L369.4 429.2L366.2 429.8L363.1 430.4L359.9 431L356.7 431.6L353.6 432.3L350.4 433L347.2 433.7L344.1 434.4L340.9 435.1L337.7 435.8L334.6 436.4L331.4 437.1L328.3 437.7L325.1 438.2L321.9 438.8L318.8 439.3L315.6 439.8L312.4 440.3L309.3 440.7L306.1 441.2L302.9 441.7L299.8 442.2L296.6 442.7L293.4 443.2L290.3 443.7L287.1 444.3L283.9 444.8L280.8 445.3L277.6 445.9L274.5 446.4L271.3 446.9L268.1 447.4L265 447.8L261.8 448.2L258.6 448.6L255.5 449L252.3 449.3L249.1 449.7L246 450.1L242.8 450.4L239.6 450.8L236.5 451.1L233.3 451.3L230.1 451.6L227 451.8L223.8 452L220.7 452.2L217.5 452.4L214.3 452.6L211.2 452.8L208 452.9L204.8 453.1L201.7 453.2L198.5 453.3L195.3 453.4L192.2 453.5L189 453.5L185.8 453.6L182.7 453.6L179.5 453.6L176.3 453.7L173.2 453.7L170 453.9L166.9 454L163.7 454.3L160.5 454.5L157.4 454.8L154.2 455.1L151 455.3L147.9 455.6L144.7 455.8L141.5 456.1L138.4 456.4L135.2 456.6L132 456.9L128.9 457.2L125.7 457.5L122.5 457.8L119.4 458L116.2 458.3L113.1 458.6L109.9 458.9L106.7 459.2L103.6 459.6L100.4 460L97.2 460.4L94.1 460.8L90.9 461.2L87.7 461.6L84.6 462L81.4 462.4L78.2 462.8L75.1 463.1" fill="#d95f02" fill-opacity="0.7"></path><path class="North-America-area" stroke-linecap="round" d="M75.1 461.2L78.2 460.9L81.4 460.5L84.6 460L87.7 459.6L90.9 459.2L94.1 458.7L97.2 458.3L100.4 457.8L103.6 457.4L106.7 457L109.9 456.6L113.1 456.3L116.2 456L119.4 455.6L122.5 455.3L125.7 455L128.9 454.6L132 454.3L135.2 454L138.4 453.6L141.5 453.3L144.7 453L147.9 452.7L151 452.4L154.2 452L157.4 451.7L160.5 451.4L163.7 451L166.9 450.7L170 450.4L173.2 450.3L176.3 450.1L179.5 450L182.7 449.9L185.8 449.8L189 449.7L192.2 449.5L195.3 449.4L198.5 449.2L201.7 449L204.8 448.9L208 448.6L211.2 448.4L214.3 448.1L217.5 447.9L220.7 447.6L223.8 447.4L227 447.1L230.1 446.8L233.3 446.4L236.5 446.1L239.6 445.7L242.8 445.2L246 444.8L249.1 444.3L252.3 443.9L255.5 443.4L258.6 442.9L261.8 442.4L265 441.8L268.1 441.4L271.3 440.8L274.5 440.1L277.6 439.5L280.8 438.8L283.9 438.2L287.1 437.5L290.3 436.8L293.4 436.1L296.6 435.4L299.8 434.9L302.9 434.2L306.1 433.6L309.3 433L312.4 432.4L315.6 431.7L318.8 431.1L321.9 430.4L325.1 429.8L328.3 428.9L331.4 428.3L334.6 427.5L337.7 426.6L340.9 425.8L344.1 424.9L347.2 424L350.4 423.1L353.6 422.2L356.7 421.4L359.9 420.4L363.1 419.8L366.2 419L369.4 418.3L372.6 417.5L375.7 416.8L378.9 416L382 415.3L385.2 414.5L388.4 413.7L391.5 412.7L394.7 411.9L397.9 410.9L401 410L404.2 408.9L407.4 407.9L410.5 406.9L413.7 405.8L416.9 404.7L420 403.6L423.2 402.3L426.4 401.3L429.5 400L432.7 398.7L435.8 397.4L439 396.1L442.2 394.8L445.3 393.4L448.5 392L451.7 390.7L454.8 389.3L458 388.3L461.2 387.2L464.3 386.1L467.5 385.1L470.7 384.1L473.8 383L477 381.9L480.2 380.7L483.3 379.2L486.5 377.1L489.6 374.3L492.8 371.6L496 368.9L499.1 366.1L502.3 363.3L505.5 360.5L508.6 357.5L511.8 354.4L515 351.3L518.1 348.1L521.3 344.8L524.5 341.3L527.6 337.8L530.8 334.1L534 330.3L537.1 326.3L540.3 322.2L543.4 318L546.6 313.6L549.8 309.3L552.9 304.9L556.1 300.5L559.3 296L562.4 291.6L565.6 287.2L568.8 282.8L571.9 278.5L575.1 274.1L578.3 269.7L581.4 265.1L584.6 260.5L587.7 255.8L590.9 251.1L594.1 246.1L597.2 241.1L600.4 235.8L603.6 230.5L606.7 225.1L609.9 219.7L613.1 214.5L616.2 209.4L619.4 204.5L622.6 199.7L625.7 194.9L628.9 190.2L632.1 185.5L635.2 180.8L638.4 176.2L641.5 171.5L644.7 166.9L647.9 162.3L651 157.7L654.2 153L657.4 148.4L660.5 143.7L663.7 138.9L666.9 134.1L670 129.3L673.2 124.4L676.4 119.5L679.5 114.6L682.7 109.6L685.9 104.7L689 99.8L692.2 94.8L695.3 89.9L698.5 85L701.7 80.2L704.8 75.4L708 70.7L711.2 66L711.2 100.8L708 105.2L704.8 109.7L701.7 114.2L698.5 118.8L695.3 123.4L692.2 128L689 132.6L685.9 137.3L682.7 141.9L679.5 146.5L676.4 151.1L673.2 155.7L670 160.2L666.9 164.7L663.7 169.2L660.5 173.6L657.4 178L654.2 182.3L651 186.6L647.9 190.9L644.7 195.2L641.5 199.5L638.4 203.8L635.2 208L632.1 212.4L628.9 216.7L625.7 221.1L622.6 225.5L619.4 230L616.2 234.6L613.1 239.4L609.9 244.3L606.7 249.3L603.6 254.4L600.4 259.5L597.2 264.4L594.1 269.2L590.9 273.8L587.7 278.3L584.6 282.7L581.4 287L578.3 291.2L575.1 295.3L571.9 299.4L568.8 303.5L565.6 307.6L562.4 311.7L559.3 315.9L556.1 320L552.9 324.1L549.8 328.3L546.6 332.3L543.4 336.4L540.3 340.4L537.1 344.2L534 347.9L530.8 351.5L527.6 354.8L524.5 358.1L521.3 361.2L518.1 364.2L515 367.1L511.8 369.9L508.6 372.7L505.5 375.3L502.3 377.9L499.1 380.4L496 382.9L492.8 385.4L489.6 387.8L486.5 390.4L483.3 392.1L480.2 393.3L477 394.3L473.8 395.2L470.7 396L467.5 396.9L464.3 397.7L461.2 398.6L458 399.5L454.8 400.5L451.7 401.6L448.5 402.8L445.3 404.1L442.2 405.4L439 406.6L435.8 407.8L432.7 409L429.5 410.2L426.4 411.4L423.2 412.4L420 413.5L416.9 414.5L413.7 415.4L410.5 416.3L407.4 417.2L404.2 418.1L401 419L397.9 419.8L394.7 420.7L391.5 421.4L388.4 422.2L385.2 422.9L382 423.5L378.9 424.2L375.7 424.8L372.6 425.5L369.4 426.1L366.2 426.7L363.1 427.4L359.9 428L356.7 428.7L353.6 429.5L350.4 430.2L347.2 431L344.1 431.7L340.9 432.5L337.7 433.2L334.6 433.9L331.4 434.6L328.3 435.2L325.1 435.9L321.9 436.5L318.8 437L315.6 437.5L312.4 438.1L309.3 438.6L306.1 439.1L302.9 439.6L299.8 440.2L296.6 440.7L293.4 441.3L290.3 441.8L287.1 442.4L283.9 443L280.8 443.5L277.6 444.1L274.5 444.7L271.3 445.2L268.1 445.7L265 446.2L261.8 446.6L258.6 447.1L255.5 447.4L252.3 447.8L249.1 448.2L246 448.6L242.8 448.9L239.6 449.3L236.5 449.7L233.3 449.9L230.1 450.2L227 450.5L223.8 450.7L220.7 450.9L217.5 451.1L214.3 451.3L211.2 451.5L208 451.7L204.8 451.8L201.7 452L198.5 452.1L195.3 452.2L192.2 452.3L189 452.3L185.8 452.4L182.7 452.4L179.5 452.5L176.3 452.5L173.2 452.6L170 452.7L166.9 452.9L163.7 453.2L160.5 453.5L157.4 453.8L154.2 454.1L151 454.3L147.9 454.6L144.7 454.9L141.5 455.2L138.4 455.4L135.2 455.7L132 456L128.9 456.3L125.7 456.6L122.5 456.9L119.4 457.2L116.2 457.5L113.1 457.8L109.9 458.1L106.7 458.4L103.6 458.8L100.4 459.2L97.2 459.7L94.1 460.1L90.9 460.5L87.7 460.9L84.6 461.3L81.4 461.7L78.2 462.1L75.1 462.5" fill="#1b9e77" fill-opacity="0.7"></path><path class="Oceania-border" stroke-linecap="round" d="M75.1 524.8L78.2 524.9L81.4 524.9L84.6 524.9L87.7 524.9L90.9 524.9L94.1 524.9L97.2 524.9L100.4 524.9L103.6 524.9L106.7 524.8L109.9 524.8L113.1 524.8L116.2 524.8L119.4 524.8L122.5 524.8L125.7 524.8L128.9 524.8L132 524.8L135.2 524.8L138.4 524.8L141.5 524.8L144.7 524.8L147.9 524.8L151 524.8L154.2 524.8L157.4 524.8L160.5 524.8L163.7 524.8L166.9 524.8L170 524.8L173.2 524.8L176.3 524.8L179.5 524.8L182.7 524.8L185.8 524.8L189 524.8L192.2 524.8L195.3 524.8L198.5 524.8L201.7 524.8L204.8 524.8L208 524.8L211.2 524.8L214.3 524.8L217.5 524.8L220.7 524.8L223.8 524.8L227 524.8L230.1 524.8L233.3 524.7L236.5 524.7L239.6 524.7L242.8 524.7L246 524.7L249.1 524.7L252.3 524.7L255.5 524.7L258.6 524.7L261.8 524.7L265 524.7L268.1 524.7L271.3 524.7L274.5 524.7L277.6 524.7L280.8 524.7L283.9 524.7L287.1 524.7L290.3 524.7L293.4 524.6L296.6 524.6L299.8 524.6L302.9 524.6L306.1 524.6L309.3 524.6L312.4 524.6L315.6 524.6L318.8 524.6L321.9 524.6L325.1 524.6L328.3 524.6L331.4 524.6L334.6 524.6L337.7 524.6L340.9 524.6L344.1 524.6L347.2 524.6L350.4 524.6L353.6 524.5L356.7 524.5L359.9 524.5L363.1 524.5L366.2 524.5L369.4 524.5L372.6 524.5L375.7 524.5L378.9 524.5L382 524.5L385.2 524.5L388.4 524.5L391.5 524.5L394.7 524.5L397.9 524.5L401 524.5L404.2 524.5L407.4 524.4L410.5 524.4L413.7 524.4L416.9 524.4L420 524.4L423.2 524.4L426.4 524.4L429.5 524.4L432.7 524.4L435.8 524.4L439 524.4L442.2 524.4L445.3 524.4L448.5 524.4L451.7 524.3L454.8 524.3L458 524.3L461.2 524.3L464.3 524.3L467.5 524.3L470.7 524.3L473.8 524.3L477 524.2L480.2 524.2L483.3 524.2L486.5 524.2L489.6 524.2L492.8 524.2L496 524.1L499.1 524.1L502.3 524.1L505.5 524.1L508.6 524.1L511.8 524L515 524L518.1 524L521.3 524L524.5 524L527.6 523.9L530.8 523.9L534 523.9L537.1 523.9L540.3 523.9L543.4 523.8L546.6 523.8L549.8 523.8L552.9 523.8L556.1 523.7L559.3 523.7L562.4 523.7L565.6 523.7L568.8 523.7L571.9 523.6L575.1 523.6L578.3 523.6L581.4 523.6L584.6 523.6L587.7 523.5L590.9 523.5L594.1 523.5L597.2 523.5L600.4 523.4L603.6 523.4L606.7 523.4L609.9 523.4L613.1 523.3L616.2 523.3L619.4 523.3L622.6 523.3L625.7 523.3L628.9 523.2L632.1 523.2L635.2 523.2L638.4 523.2L641.5 523.1L644.7 523.1L647.9 523.1L651 523.1L654.2 523L657.4 523L660.5 523L663.7 522.9L666.9 522.9L670 522.9L673.2 522.8L676.4 522.8L679.5 522.8L682.7 522.7L685.9 522.7L689 522.7L692.2 522.6L695.3 522.6L698.5 522.6L701.7 522.5L704.8 522.5L708 522.5L711.2 522.4" stroke="rgb(192, 143, 2)" stroke-opacity="0.7" stroke-width="0.5" fill="none"></path><path class="Asia-border" stroke-linecap="round" d="M75.1 481.1L78.2 480.9L81.4 480.7L84.6 480.4L87.7 480.2L90.9 479.9L94.1 479.7L97.2 479.4L100.4 479.2L103.6 479L106.7 478.8L109.9 478.6L113.1 478.5L116.2 478.4L119.4 478.2L122.5 478.1L125.7 478L128.9 477.9L132 477.8L135.2 477.7L138.4 477.6L141.5 477.5L144.7 477.4L147.9 477.3L151 477.2L154.2 477.1L157.4 477L160.5 476.9L163.7 476.8L166.9 476.7L170 476.7L173.2 476.7L176.3 476.8L179.5 476.9L182.7 477L185.8 477.1L189 477.2L192.2 477.2L195.3 477.3L198.5 477.4L201.7 477.4L204.8 477.4L208 477.4L211.2 477.4L214.3 477.4L217.5 477.4L220.7 477.3L223.8 477.3L227 477.3L230.1 477.2L233.3 477.1L236.5 477L239.6 476.9L242.8 476.7L246 476.5L249.1 476.4L252.3 476.2L255.5 476L258.6 475.9L261.8 475.7L265 475.5L268.1 475.2L271.3 474.9L274.5 474.6L277.6 474.3L280.8 474L283.9 473.7L287.1 473.3L290.3 473L293.4 472.7L296.6 472.4L299.8 472.1L302.9 471.8L306.1 471.5L309.3 471.2L312.4 471L315.6 470.7L318.8 470.4L321.9 470.1L325.1 469.8L328.3 469.4L331.4 469.1L334.6 468.7L337.7 468.3L340.9 467.8L344.1 467.4L347.2 466.9L350.4 466.5L353.6 466.1L356.7 465.6L359.9 465.1L363.1 464.7L366.2 464.2L369.4 463.8L372.6 463.3L375.7 462.8L378.9 462.4L382 461.9L385.2 461.4L388.4 460.9L391.5 460.4L394.7 459.9L397.9 459.5L401 459L404.2 458.5L407.4 458L410.5 457.5L413.7 457L416.9 456.5L420 455.9L423.2 455.3L426.4 454.7L429.5 453.9L432.7 453.2L435.8 452.4L439 451.6L442.2 450.8L445.3 450L448.5 449.1L451.7 448.4L454.8 447.7L458 447.1L461.2 446.6L464.3 446.2L467.5 445.8L470.7 445.5L473.8 445L477 444.6L480.2 444.1L483.3 443.3L486.5 442.3L489.6 440.5L492.8 438.8L496 437.2L499.1 435.5L502.3 433.9L505.5 432.1L508.6 430.4L511.8 428.5L515 426.6L518.1 424.7L521.3 422.7L524.5 420.6L527.6 418.4L530.8 416L534 413.5L537.1 410.8L540.3 408L543.4 405L546.6 402L549.8 399L552.9 395.9L556.1 392.8L559.3 389.8L562.4 386.8L565.6 383.8L568.8 380.8L571.9 378L575.1 375.1L578.3 372.2L581.4 369.2L584.6 366.2L587.7 363.1L590.9 359.9L594.1 356.7L597.2 353.3L600.4 349.8L603.6 346.1L606.7 342.5L609.9 338.9L613.1 335.4L616.2 332L619.4 328.8L622.6 325.7L625.7 322.7L628.9 319.7L632.1 316.7L635.2 313.8L638.4 310.9L641.5 308L644.7 305.1L647.9 302.3L651 299.5L654.2 296.7L657.4 294L660.5 291.2L663.7 288.5L666.9 285.7L670 283L673.2 280.2L676.4 277.5L679.5 274.8L682.7 272.2L685.9 269.5L689 266.9L692.2 264.3L695.3 261.8L698.5 259.3L701.7 256.8L704.8 254.4L708 252L711.2 249.8" stroke="rgb(85, 139, 25)" stroke-opacity="0.7" stroke-width="0.5" fill="none"></path><path class="Africa-border" stroke-linecap="round" d="M75.1 476.2L78.2 475.9L81.4 475.7L84.6 475.4L87.7 475.1L90.9 474.8L94.1 474.5L97.2 474.2L100.4 473.9L103.6 473.7L106.7 473.4L109.9 473.2L113.1 473L116.2 472.9L119.4 472.7L122.5 472.6L125.7 472.4L128.9 472.2L132 472.1L135.2 471.9L138.4 471.7L141.5 471.6L144.7 471.4L147.9 471.2L151 471.1L154.2 470.9L157.4 470.7L160.5 470.6L163.7 470.4L166.9 470.3L170 470.2L173.2 470.2L176.3 470.2L179.5 470.3L182.7 470.3L185.8 470.4L189 470.4L192.2 470.5L195.3 470.6L198.5 470.6L201.7 470.6L204.8 470.6L208 470.6L211.2 470.5L214.3 470.5L217.5 470.4L220.7 470.3L223.8 470.3L227 470.2L230.1 470.1L233.3 470L236.5 469.9L239.6 469.7L242.8 469.5L246 469.3L249.1 469.1L252.3 468.9L255.5 468.7L258.6 468.5L261.8 468.3L265 468L268.1 467.7L271.3 467.4L274.5 467L277.6 466.7L280.8 466.3L283.9 466L287.1 465.6L290.3 465.2L293.4 464.8L296.6 464.5L299.8 464.2L302.9 463.9L306.1 463.6L309.3 463.3L312.4 463L315.6 462.7L318.8 462.4L321.9 462.1L325.1 461.7L328.3 461.4L331.4 461L334.6 460.5L337.7 460.1L340.9 459.6L344.1 459.2L347.2 458.7L350.4 458.2L353.6 457.7L356.7 457.2L359.9 456.7L363.1 456.3L366.2 455.8L369.4 455.3L372.6 454.8L375.7 454.3L378.9 453.8L382 453.3L385.2 452.7L388.4 452.2L391.5 451.6L394.7 451.1L397.9 450.5L401 449.9L404.2 449.3L407.4 448.7L410.5 448.1L413.7 447.5L416.9 446.8L420 446.2L423.2 445.4L426.4 444.6L429.5 443.8L432.7 442.9L435.8 442L439 441L442.2 440.1L445.3 439.1L448.5 438.2L451.7 437.3L454.8 436.4L458 435.7L461.2 435L464.3 434.4L467.5 433.9L470.7 433.3L473.8 432.7L477 432L480.2 431.3L483.3 430.3L486.5 429.1L489.6 427L492.8 425L496 423.1L499.1 421.1L502.3 419.1L505.5 417.1L508.6 415L511.8 412.8L515 410.5L518.1 408.2L521.3 405.7L524.5 403.2L527.6 400.6L530.8 397.8L534 394.8L537.1 391.7L540.3 388.4L543.4 384.9L546.6 381.4L549.8 377.8L552.9 374.2L556.1 370.5L559.3 366.9L562.4 363.2L565.6 359.6L568.8 356L571.9 352.4L575.1 348.8L578.3 345.2L581.4 341.5L584.6 337.6L587.7 333.7L590.9 329.7L594.1 325.6L597.2 321.3L600.4 316.9L603.6 312.3L606.7 307.7L609.9 303.1L613.1 298.6L616.2 294.3L619.4 290.1L622.6 286L625.7 281.9L628.9 277.9L632.1 273.9L635.2 269.9L638.4 265.8L641.5 261.9L644.7 257.9L647.9 253.9L651 249.9L654.2 245.9L657.4 241.9L660.5 237.8L663.7 233.7L666.9 229.6L670 225.4L673.2 221.2L676.4 217L679.5 212.7L682.7 208.4L685.9 204.1L689 199.7L692.2 195.4L695.3 191.1L698.5 186.7L701.7 182.4L704.8 178.2L708 173.9L711.2 169.7" stroke="rgb(193, 34, 115)" stroke-opacity="0.7" stroke-width="0.5" fill="none"></path><path class="Europe-border" stroke-linecap="round" d="M75.1 463.1L78.2 462.8L81.4 462.4L84.6 462L87.7 461.6L90.9 461.2L94.1 460.8L97.2 460.4L100.4 460L103.6 459.6L106.7 459.2L109.9 458.9L113.1 458.6L116.2 458.3L119.4 458L122.5 457.8L125.7 457.5L128.9 457.2L132 456.9L135.2 456.6L138.4 456.4L141.5 456.1L144.7 455.8L147.9 455.6L151 455.3L154.2 455.1L157.4 454.8L160.5 454.5L163.7 454.3L166.9 454L170 453.9L173.2 453.7L176.3 453.7L179.5 453.6L182.7 453.6L185.8 453.6L189 453.5L192.2 453.5L195.3 453.4L198.5 453.3L201.7 453.2L204.8 453.1L208 452.9L211.2 452.8L214.3 452.6L217.5 452.4L220.7 452.2L223.8 452L227 451.8L230.1 451.6L233.3 451.3L236.5 451.1L239.6 450.8L242.8 450.4L246 450.1L249.1 449.7L252.3 449.3L255.5 449L258.6 448.6L261.8 448.2L265 447.8L268.1 447.4L271.3 446.9L274.5 446.4L277.6 445.9L280.8 445.3L283.9 444.8L287.1 444.3L290.3 443.7L293.4 443.2L296.6 442.7L299.8 442.2L302.9 441.7L306.1 441.2L309.3 440.7L312.4 440.3L315.6 439.8L318.8 439.3L321.9 438.8L325.1 438.2L328.3 437.7L331.4 437.1L334.6 436.4L337.7 435.8L340.9 435.1L344.1 434.4L347.2 433.7L350.4 433L353.6 432.3L356.7 431.6L359.9 431L363.1 430.4L366.2 429.8L369.4 429.2L372.6 428.7L375.7 428.1L378.9 427.5L382 426.9L385.2 426.3L388.4 425.7L391.5 425L394.7 424.3L397.9 423.6L401 422.8L404.2 422L407.4 421.2L410.5 420.3L413.7 419.5L416.9 418.7L420 417.8L423.2 416.8L426.4 415.8L429.5 414.8L432.7 413.7L435.8 412.5L439 411.4L442.2 410.3L445.3 409.1L448.5 407.9L451.7 406.8L454.8 405.8L458 404.9L461.2 404.1L464.3 403.3L467.5 402.6L470.7 401.9L473.8 401.3L477 400.5L480.2 399.7L483.3 398.5L486.5 397L489.6 394.6L492.8 392.3L496 390.1L499.1 387.8L502.3 385.5L505.5 383.1L508.6 380.7L511.8 378.1L515 375.5L518.1 372.8L521.3 370.1L524.5 367.2L527.6 364.2L530.8 361.1L534 357.8L537.1 354.4L540.3 350.8L543.4 347.1L546.6 343.3L549.8 339.5L552.9 335.6L556.1 331.7L559.3 327.8L562.4 324L565.6 320.1L568.8 316.3L571.9 312.5L575.1 308.7L578.3 304.9L581.4 301L584.6 297L587.7 292.9L590.9 288.8L594.1 284.5L597.2 280L600.4 275.4L603.6 270.7L606.7 265.9L609.9 261.2L613.1 256.6L616.2 252.2L619.4 247.9L622.6 243.7L625.7 239.6L628.9 235.5L632.1 231.4L635.2 227.4L638.4 223.5L641.5 219.5L644.7 215.5L647.9 211.5L651 207.5L654.2 203.5L657.4 199.4L660.5 195.3L663.7 191.1L666.9 186.9L670 182.6L673.2 178.3L676.4 174L679.5 169.6L682.7 165.2L685.9 160.8L689 156.4L692.2 152L695.3 147.6L698.5 143.2L701.7 138.9L704.8 134.5L708 130.3L711.2 126.1" stroke="rgb(98, 94, 150)" stroke-opacity="0.7" stroke-width="0.5" fill="none"></path><path class="South-America-border" stroke-linecap="round" d="M75.1 462.5L78.2 462.1L81.4 461.7L84.6 461.3L87.7 460.9L90.9 460.5L94.1 460.1L97.2 459.7L100.4 459.2L103.6 458.8L106.7 458.4L109.9 458.1L113.1 457.8L116.2 457.5L119.4 457.2L122.5 456.9L125.7 456.6L128.9 456.3L132 456L135.2 455.7L138.4 455.4L141.5 455.2L144.7 454.9L147.9 454.6L151 454.3L154.2 454.1L157.4 453.8L160.5 453.5L163.7 453.2L166.9 452.9L170 452.7L173.2 452.6L176.3 452.5L179.5 452.5L182.7 452.4L185.8 452.4L189 452.3L192.2 452.3L195.3 452.2L198.5 452.1L201.7 452L204.8 451.8L208 451.7L211.2 451.5L214.3 451.3L217.5 451.1L220.7 450.9L223.8 450.7L227 450.5L230.1 450.2L233.3 449.9L236.5 449.7L239.6 449.3L242.8 448.9L246 448.6L249.1 448.2L252.3 447.8L255.5 447.4L258.6 447.1L261.8 446.6L265 446.2L268.1 445.7L271.3 445.2L274.5 444.7L277.6 444.1L280.8 443.5L283.9 443L287.1 442.4L290.3 441.8L293.4 441.3L296.6 440.7L299.8 440.2L302.9 439.6L306.1 439.1L309.3 438.6L312.4 438.1L315.6 437.5L318.8 437L321.9 436.5L325.1 435.9L328.3 435.2L331.4 434.6L334.6 433.9L337.7 433.2L340.9 432.5L344.1 431.7L347.2 431L350.4 430.2L353.6 429.5L356.7 428.7L359.9 428L363.1 427.4L366.2 426.7L369.4 426.1L372.6 425.5L375.7 424.8L378.9 424.2L382 423.5L385.2 422.9L388.4 422.2L391.5 421.4L394.7 420.7L397.9 419.8L401 419L404.2 418.1L407.4 417.2L410.5 416.3L413.7 415.4L416.9 414.5L420 413.5L423.2 412.4L426.4 411.4L429.5 410.2L432.7 409L435.8 407.8L439 406.6L442.2 405.4L445.3 404.1L448.5 402.8L451.7 401.6L454.8 400.5L458 399.5L461.2 398.6L464.3 397.7L467.5 396.9L470.7 396L473.8 395.2L477 394.3L480.2 393.3L483.3 392.1L486.5 390.4L489.6 387.8L492.8 385.4L496 382.9L499.1 380.4L502.3 377.9L505.5 375.3L508.6 372.7L511.8 369.9L515 367.1L518.1 364.2L521.3 361.2L524.5 358.1L527.6 354.8L530.8 351.5L534 347.9L537.1 344.2L540.3 340.4L543.4 336.4L546.6 332.3L549.8 328.3L552.9 324.1L556.1 320L559.3 315.9L562.4 311.7L565.6 307.6L568.8 303.5L571.9 299.4L575.1 295.3L578.3 291.2L581.4 287L584.6 282.7L587.7 278.3L590.9 273.8L594.1 269.2L597.2 264.4L600.4 259.5L603.6 254.4L606.7 249.3L609.9 244.3L613.1 239.4L616.2 234.6L619.4 230L622.6 225.5L625.7 221.1L628.9 216.7L632.1 212.4L635.2 208L638.4 203.8L641.5 199.5L644.7 195.2L647.9 190.9L651 186.6L654.2 182.3L657.4 178L660.5 173.6L663.7 169.2L666.9 164.7L670 160.2L673.2 155.7L676.4 151.1L679.5 146.5L682.7 141.9L685.9 137.3L689 132.6L692.2 128L695.3 123.4L698.5 118.8L701.7 114.2L704.8 109.7L708 105.2L711.2 100.8" stroke="rgb(182, 79, 2)" stroke-opacity="0.7" stroke-width="0.5" fill="none"></path><path class="North-America-border" stroke-linecap="round" d="M75.1 461.2L78.2 460.9L81.4 460.5L84.6 460L87.7 459.6L90.9 459.2L94.1 458.7L97.2 458.3L100.4 457.8L103.6 457.4L106.7 457L109.9 456.6L113.1 456.3L116.2 456L119.4 455.6L122.5 455.3L125.7 455L128.9 454.6L132 454.3L135.2 454L138.4 453.6L141.5 453.3L144.7 453L147.9 452.7L151 452.4L154.2 452L157.4 451.7L160.5 451.4L163.7 451L166.9 450.7L170 450.4L173.2 450.3L176.3 450.1L179.5 450L182.7 449.9L185.8 449.8L189 449.7L192.2 449.5L195.3 449.4L198.5 449.2L201.7 449L204.8 448.9L208 448.6L211.2 448.4L214.3 448.1L217.5 447.9L220.7 447.6L223.8 447.4L227 447.1L230.1 446.8L233.3 446.4L236.5 446.1L239.6 445.7L242.8 445.2L246 444.8L249.1 444.3L252.3 443.9L255.5 443.4L258.6 442.9L261.8 442.4L265 441.8L268.1 441.4L271.3 440.8L274.5 440.1L277.6 439.5L280.8 438.8L283.9 438.2L287.1 437.5L290.3 436.8L293.4 436.1L296.6 435.4L299.8 434.9L302.9 434.2L306.1 433.6L309.3 433L312.4 432.4L315.6 431.7L318.8 431.1L321.9 430.4L325.1 429.8L328.3 428.9L331.4 428.3L334.6 427.5L337.7 426.6L340.9 425.8L344.1 424.9L347.2 424L350.4 423.1L353.6 422.2L356.7 421.4L359.9 420.4L363.1 419.8L366.2 419L369.4 418.3L372.6 417.5L375.7 416.8L378.9 416L382 415.3L385.2 414.5L388.4 413.7L391.5 412.7L394.7 411.9L397.9 410.9L401 410L404.2 408.9L407.4 407.9L410.5 406.9L413.7 405.8L416.9 404.7L420 403.6L423.2 402.3L426.4 401.3L429.5 400L432.7 398.7L435.8 397.4L439 396.1L442.2 394.8L445.3 393.4L448.5 392L451.7 390.7L454.8 389.3L458 388.3L461.2 387.2L464.3 386.1L467.5 385.1L470.7 384.1L473.8 383L477 381.9L480.2 380.7L483.3 379.2L486.5 377.1L489.6 374.3L492.8 371.6L496 368.9L499.1 366.1L502.3 363.3L505.5 360.5L508.6 357.5L511.8 354.4L515 351.3L518.1 348.1L521.3 344.8L524.5 341.3L527.6 337.8L530.8 334.1L534 330.3L537.1 326.3L540.3 322.2L543.4 318L546.6 313.6L549.8 309.3L552.9 304.9L556.1 300.5L559.3 296L562.4 291.6L565.6 287.2L568.8 282.8L571.9 278.5L575.1 274.1L578.3 269.7L581.4 265.1L584.6 260.5L587.7 255.8L590.9 251.1L594.1 246.1L597.2 241.1L600.4 235.8L603.6 230.5L606.7 225.1L609.9 219.7L613.1 214.5L616.2 209.4L619.4 204.5L622.6 199.7L625.7 194.9L628.9 190.2L632.1 185.5L635.2 180.8L638.4 176.2L641.5 171.5L644.7 166.9L647.9 162.3L651 157.7L654.2 153L657.4 148.4L660.5 143.7L663.7 138.9L666.9 134.1L670 129.3L673.2 124.4L676.4 119.5L679.5 114.6L682.7 109.6L685.9 104.7L689 99.8L692.2 94.8L695.3 89.9L698.5 85L701.7 80.2L704.8 75.4L708 70.7L711.2 66" stroke="rgb(23, 132, 100)" stroke-opacity="0.7" stroke-width="0.5" fill="none"></path></g></g></g><g class="SourcesFooter" style="fill:#777"><g style="fill:#777"><text font-size="12.60" x="15.0" y="582.7"><tspan x="15" y="582.732">Source: Gapminder (v6), HYDE (v3.2), UN (2019)</tspan></text></g><text font-size="12.60" x="528.2" y="582.7"><tspan x="528.19" y="582.732"><a target='_blank' style='fill: #777;' href='https://ourworldindata.org/world-population-growth/'>OurWorldInData.org/world-population-growth/</a>  <a style="fill: #777;" class="cclogo" href="http://creativecommons.org/licenses/by/4.0/deed.en_US" target="_blank">CC BY</a></tspan></text></g></svg>