<svg
    xmlns="http://www.w3.org/2000/svg"
    version="1.1"
    style='font-family:Lato, &#x27;Helvetica Neue&#x27;, Helvetica, Arial, &#x27;Liberation Sans&#x27;, sans-serif;font-feature-settings:"liga", "kern", "calt", "lnum";text-rendering:geometricPrecision;-webkit-font-smoothing:antialiased;font-size:14px;background-color:#ffffff'
    width="300"
    height="160"
    viewBox="0 0 300 160"
>
    <defs>
        <style>
            @import url(https://ourworldindata.org/fonts.css);
        </style>
    </defs>
    <defs>
        <pattern
            id="noDataPattern"
            patternUnits="userSpaceOnUse"
            width="4"
            height="4"
            patternTransform="rotate(-45 2 2)"
        >
            <path d="M -1,2 l 6,0" stroke="#ccc" stroke-width="0.7"></path>
        </pattern>
    </defs>
    <g id="chart-area" style="pointer-events: none">
        <line
            id="horizontal-zero-line"
            x1="8.00"
            y1="137.00"
            x2="232.20"
            y2="137.00"
            stroke="#999"
            stroke-width="1"
        ></line>
        <g id="horizontal-axis" class="HorizontalAxis">
            <g id="tick-labels">
                <text
                    x="8"
                    y="152"
                    fill="#5b5b5b"
                    text-anchor="start"
                    font-size="10"
                >
                    1800
                </text>
                <text
                    x="232.2"
                    y="152"
                    fill="#5b5b5b"
                    text-anchor="end"
                    font-size="10"
                >
                    2024
                </text>
            </g>
        </g>
        <g class="Areas" id="stacked-areas">
            <g id="areas">
                <path
                    id="Traditional-biomass"
                    class="Traditional-biomass-area"
                    stroke-linecap="round"
                    d="M8 133.4L18 133.2L28 133.1L38 132.9L48 132.5L58 132.3L68.1 132.5L78.1 132.5L88.1 132.5L98.1 132.7L108.1 133.1L118.1 132.9L128.1 132.5L138.1 132.3L148.1 132.3L158.1 132.2L168.1 131.3L173.1 131.1L174.1 131.1L175.1 131L176.1 131L177.2 130.9L178.2 130.9L179.2 130.9L180.2 130.8L181.2 130.8L182.2 130.8L183.2 130.7L184.2 130.7L185.2 130.7L186.2 130.6L187.2 130.6L188.2 130.6L189.2 130.5L190.2 130.4L191.2 130.3L192.2 130.3L193.2 130.2L194.2 130.1L195.2 130.1L196.2 130L197.2 129.9L198.2 129.8L199.2 129.7L200.2 129.7L201.2 129.6L202.2 129.5L203.2 129.4L204.2 129.3L205.2 129.2L206.2 129.1L207.2 129L208.2 128.9L209.2 128.9L210.2 129L211.2 129L212.2 129.2L213.2 129.2L214.2 129.3L215.2 129.3L216.2 129.4L217.2 129.4L218.2 129.5L219.2 129.5L220.2 129.6L221.2 129.7L222.2 129.8L223.2 129.8L224.2 129.8L225.2 129.8L226.2 129.8L227.2 129.8L228.2 129.8L229.2 129.8L230.2 129.8L231.2 129.8L232.2 129.8L232.2 137L8 137"
                    fill="#bc8e5a"
                    fill-opacity="0.8"
                ></path>
                <path
                    id="Coal"
                    class="Coal-area"
                    stroke-linecap="round"
                    d="M8 133.4L18 133.2L28 133L38 132.7L48 132.3L58 132L68.1 131.8L78.1 131.5L88.1 130.9L98.1 130.2L108.1 129.4L118.1 127.3L128.1 126.2L138.1 125.8L148.1 124.9L158.1 124L168.1 121.3L173.1 120.7L174.1 120.5L175.1 120.6L176.1 120.4L177.2 120.1L178.2 119.9L179.2 119.9L180.2 119.8L181.2 119.4L182.2 119.4L183.2 119.1L184.2 118.6L185.2 118.2L186.2 118.1L187.2 117.4L188.2 117.1L189.2 116.8L190.2 116.6L191.2 116.1L192.2 115.4L193.2 114.7L194.2 114.5L195.2 113.8L196.2 113.2L197.2 113L198.2 113.1L199.2 113.2L200.2 113.2L201.2 113L202.2 112.8L203.2 112.6L204.2 112.1L205.2 112.1L206.2 112.1L207.2 111.9L208.2 111.2L209.2 111L210.2 110.3L211.2 108.7L212.2 107.4L213.2 105.9L214.2 104.7L215.2 103.4L216.2 103.1L217.2 103.5L218.2 102.4L219.2 101.2L220.2 101.2L221.2 100.8L222.2 100.8L223.2 101.6L224.2 102.2L225.2 102L226.2 101.5L227.2 101.7L228.2 102.5L229.2 101L230.2 100.9L231.2 100.6L232.2 100.3L232.2 129.8L231.2 129.8L230.2 129.8L229.2 129.8L228.2 129.8L227.2 129.8L226.2 129.8L225.2 129.8L224.2 129.8L223.2 129.8L222.2 129.8L221.2 129.7L220.2 129.6L219.2 129.5L218.2 129.5L217.2 129.4L216.2 129.4L215.2 129.3L214.2 129.3L213.2 129.2L212.2 129.2L211.2 129L210.2 129L209.2 128.9L208.2 128.9L207.2 129L206.2 129.1L205.2 129.2L204.2 129.3L203.2 129.4L202.2 129.5L201.2 129.6L200.2 129.7L199.2 129.7L198.2 129.8L197.2 129.9L196.2 130L195.2 130.1L194.2 130.1L193.2 130.2L192.2 130.3L191.2 130.3L190.2 130.4L189.2 130.5L188.2 130.6L187.2 130.6L186.2 130.6L185.2 130.7L184.2 130.7L183.2 130.7L182.2 130.8L181.2 130.8L180.2 130.8L179.2 130.9L178.2 130.9L177.2 130.9L176.1 131L175.1 131L174.1 131.1L173.1 131.1L168.1 131.3L158.1 132.2L148.1 132.3L138.1 132.3L128.1 132.5L118.1 132.9L108.1 133.1L98.1 132.7L88.1 132.5L78.1 132.5L68.1 132.5L58 132.3L48 132.5L38 132.9L28 133.1L18 133.2L8 133.4"
                    fill="#883039"
                    fill-opacity="0.8"
                ></path>
                <path
                    id="Oil"
                    class="Oil-area"
                    stroke-linecap="round"
                    d="M8 133.4L18 133.2L28 133L38 132.7L48 132.3L58 132L68.1 131.8L78.1 131.5L88.1 130.9L98.1 130.2L108.1 129.2L118.1 127L128.1 125.6L138.1 124.7L148.1 123.2L158.1 120.5L168.1 114.1L173.1 109L174.1 108L175.1 107.2L176.1 105.9L177.2 104.3L178.2 102.7L179.2 101.8L180.2 100.2L181.2 98.3L182.2 98.6L183.2 98.5L184.2 96.7L185.2 95.5L186.2 94.4L187.2 93.5L188.2 94.1L189.2 94.7L190.2 95.2L191.2 94.8L192.2 93.7L193.2 93L194.2 92.1L195.2 90.9L196.2 89.6L197.2 89L198.2 88.7L199.2 88.7L200.2 88.4L201.2 88.3L202.2 87.6L203.2 87L204.2 86L205.2 85.2L206.2 85.1L207.2 84.5L208.2 83.5L209.2 83L210.2 82.1L211.2 79.9L212.2 77.5L213.2 75.5L214.2 74.1L215.2 72.3L216.2 72.3L217.2 73.4L218.2 71.3L219.2 69.8L220.2 69.3L221.2 68.6L222.2 68.3L223.2 68.6L224.2 68.5L225.2 67.6L226.2 66.8L227.2 66.9L228.2 70.9L229.2 67.6L230.2 66.3L231.2 65.2L232.2 64.6L232.2 100.3L231.2 100.6L230.2 100.9L229.2 101L228.2 102.5L227.2 101.7L226.2 101.5L225.2 102L224.2 102.2L223.2 101.6L222.2 100.8L221.2 100.8L220.2 101.2L219.2 101.2L218.2 102.4L217.2 103.5L216.2 103.1L215.2 103.4L214.2 104.7L213.2 105.9L212.2 107.4L211.2 108.7L210.2 110.3L209.2 111L208.2 111.2L207.2 111.9L206.2 112.1L205.2 112.1L204.2 112.1L203.2 112.6L202.2 112.8L201.2 113L200.2 113.2L199.2 113.2L198.2 113.1L197.2 113L196.2 113.2L195.2 113.8L194.2 114.5L193.2 114.7L192.2 115.4L191.2 116.1L190.2 116.6L189.2 116.8L188.2 117.1L187.2 117.4L186.2 118.1L185.2 118.2L184.2 118.6L183.2 119.1L182.2 119.4L181.2 119.4L180.2 119.8L179.2 119.9L178.2 119.9L177.2 120.1L176.1 120.4L175.1 120.6L174.1 120.5L173.1 120.7L168.1 121.3L158.1 124L148.1 124.9L138.1 125.8L128.1 126.2L118.1 127.3L108.1 129.4L98.1 130.2L88.1 130.9L78.1 131.5L68.1 131.8L58 132L48 132.3L38 132.7L28 133L18 133.2L8 133.4"
                    fill="#c15065"
                    fill-opacity="0.8"
                ></path>
                <path
                    id="Natural-gas"
                    class="Natural-gas-area"
                    stroke-linecap="round"
                    d="M8 133.4L18 133.2L28 133L38 132.7L48 132.3L58 132L68.1 131.8L78.1 131.5L88.1 130.9L98.1 130.1L108.1 129.2L118.1 126.9L128.1 125.5L138.1 124.3L148.1 122.6L158.1 119.2L168.1 111.3L173.1 105L174.1 103.5L175.1 102.5L176.1 100.7L177.2 98.6L178.2 96.5L179.2 95.1L180.2 93.2L181.2 90.9L182.2 91L183.2 90.9L184.2 88.7L185.2 87.3L186.2 85.8L187.2 84.4L188.2 85L189.2 85.4L190.2 85.8L191.2 85.3L192.2 83.5L193.2 82.5L194.2 81.5L195.2 79.7L196.2 77.9L197.2 76.8L198.2 76.1L199.2 75.9L200.2 75.4L201.2 75.3L202.2 74.5L203.2 73.4L204.2 71.7L205.2 71L206.2 70.7L207.2 69.6L208.2 68L209.2 67.3L210.2 65.9L211.2 63.3L212.2 60.2L213.2 57.8L214.2 55.9L215.2 53.4L216.2 52.9L217.2 54.4L218.2 50.9L219.2 49L220.2 47.9L221.2 46.9L222.2 46.4L223.2 46.1L224.2 45.6L225.2 44L226.2 42.1L227.2 41.7L228.2 45.9L229.2 41.7L230.2 40.5L231.2 39.3L232.2 38L232.2 64.6L231.2 65.2L230.2 66.3L229.2 67.6L228.2 70.9L227.2 66.9L226.2 66.8L225.2 67.6L224.2 68.5L223.2 68.6L222.2 68.3L221.2 68.6L220.2 69.3L219.2 69.8L218.2 71.3L217.2 73.4L216.2 72.3L215.2 72.3L214.2 74.1L213.2 75.5L212.2 77.5L211.2 79.9L210.2 82.1L209.2 83L208.2 83.5L207.2 84.5L206.2 85.1L205.2 85.2L204.2 86L203.2 87L202.2 87.6L201.2 88.3L200.2 88.4L199.2 88.7L198.2 88.7L197.2 89L196.2 89.6L195.2 90.9L194.2 92.1L193.2 93L192.2 93.7L191.2 94.8L190.2 95.2L189.2 94.7L188.2 94.1L187.2 93.5L186.2 94.4L185.2 95.5L184.2 96.7L183.2 98.5L182.2 98.6L181.2 98.3L180.2 100.2L179.2 101.8L178.2 102.7L177.2 104.3L176.1 105.9L175.1 107.2L174.1 108L173.1 109L168.1 114.1L158.1 120.5L148.1 123.2L138.1 124.7L128.1 125.6L118.1 127L108.1 129.2L98.1 130.2L88.1 130.9L78.1 131.5L68.1 131.8L58 132L48 132.3L38 132.7L28 133L18 133.2L8 133.4"
                    fill="#6d3e91"
                    fill-opacity="0.8"
                ></path>
                <path
                    id="Nuclear"
                    class="Nuclear-area"
                    stroke-linecap="round"
                    d="M8 133.4L18 133.2L28 133L38 132.7L48 132.3L58 132L68.1 131.8L78.1 131.5L88.1 130.9L98.1 130.1L108.1 129.2L118.1 126.9L128.1 125.5L138.1 124.3L148.1 122.6L158.1 119.2L168.1 111.3L173.1 104.9L174.1 103.5L175.1 102.4L176.1 100.6L177.2 98.5L178.2 96.3L179.2 94.9L180.2 92.9L181.2 90.6L182.2 90.6L183.2 90.3L184.2 87.9L185.2 86.3L186.2 84.7L187.2 83.2L188.2 83.7L189.2 83.9L190.2 84.2L191.2 83.4L192.2 81.2L193.2 79.8L194.2 78.6L195.2 76.6L196.2 74.5L197.2 73.3L198.2 72.5L199.2 72.1L200.2 71.7L201.2 71.3L202.2 70.5L203.2 69.3L204.2 67.4L205.2 66.7L206.2 66.3L207.2 65.1L208.2 63.4L209.2 62.6L210.2 61.2L211.2 58.7L212.2 55.4L213.2 53L214.2 51.1L215.2 48.7L216.2 48.3L217.2 49.9L218.2 46.3L219.2 44.5L220.2 43.8L221.2 42.8L222.2 42.2L223.2 41.9L224.2 41.3L225.2 39.7L226.2 37.8L227.2 37.2L228.2 41.6L229.2 37.2L230.2 36.2L231.2 35L232.2 33.5L232.2 38L231.2 39.3L230.2 40.5L229.2 41.7L228.2 45.9L227.2 41.7L226.2 42.1L225.2 44L224.2 45.6L223.2 46.1L222.2 46.4L221.2 46.9L220.2 47.9L219.2 49L218.2 50.9L217.2 54.4L216.2 52.9L215.2 53.4L214.2 55.9L213.2 57.8L212.2 60.2L211.2 63.3L210.2 65.9L209.2 67.3L208.2 68L207.2 69.6L206.2 70.7L205.2 71L204.2 71.7L203.2 73.4L202.2 74.5L201.2 75.3L200.2 75.4L199.2 75.9L198.2 76.1L197.2 76.8L196.2 77.9L195.2 79.7L194.2 81.5L193.2 82.5L192.2 83.5L191.2 85.3L190.2 85.8L189.2 85.4L188.2 85L187.2 84.4L186.2 85.8L185.2 87.3L184.2 88.7L183.2 90.9L182.2 91L181.2 90.9L180.2 93.2L179.2 95.1L178.2 96.5L177.2 98.6L176.1 100.7L175.1 102.5L174.1 103.5L173.1 105L168.1 111.3L158.1 119.2L148.1 122.6L138.1 124.3L128.1 125.5L118.1 126.9L108.1 129.2L98.1 130.1L88.1 130.9L78.1 131.5L68.1 131.8L58 132L48 132.3L38 132.7L28 133L18 133.2L8 133.4"
                    fill="#00847e"
                    fill-opacity="0.8"
                ></path>
                <path
                    id="Hydropower"
                    class="Hydropower-area"
                    stroke-linecap="round"
                    d="M8 133.4L18 133.2L28 133L38 132.7L48 132.3L58 132L68.1 131.8L78.1 131.5L88.1 130.9L98.1 130.1L108.1 129.2L118.1 126.9L128.1 125.3L138.1 124.1L148.1 122.2L158.1 118.6L168.1 110L173.1 103.3L174.1 101.7L175.1 100.6L176.1 98.7L177.2 96.5L178.2 94.2L179.2 92.7L180.2 90.6L181.2 88.2L182.2 88L183.2 87.7L184.2 85.3L185.2 83.7L186.2 81.8L187.2 80.2L188.2 80.6L189.2 80.8L190.2 81L191.2 80.1L192.2 77.8L193.2 76.3L194.2 75L195.2 73L196.2 70.8L197.2 69.6L198.2 68.6L199.2 68.2L200.2 67.7L201.2 67.1L202.2 66.3L203.2 64.8L204.2 62.9L205.2 62.1L206.2 61.7L207.2 60.5L208.2 58.6L209.2 58L210.2 56.5L211.2 54.1L212.2 50.5L213.2 48L214.2 45.9L215.2 43.4L216.2 42.7L217.2 44.4L218.2 40.5L219.2 38.7L220.2 37.7L221.2 36.5L222.2 35.9L223.2 35.6L224.2 34.8L225.2 33.2L226.2 31.1L227.2 30.4L228.2 34.7L229.2 30.4L230.2 29.4L231.2 28.3L232.2 26.5L232.2 33.5L231.2 35L230.2 36.2L229.2 37.2L228.2 41.6L227.2 37.2L226.2 37.8L225.2 39.7L224.2 41.3L223.2 41.9L222.2 42.2L221.2 42.8L220.2 43.8L219.2 44.5L218.2 46.3L217.2 49.9L216.2 48.3L215.2 48.7L214.2 51.1L213.2 53L212.2 55.4L211.2 58.7L210.2 61.2L209.2 62.6L208.2 63.4L207.2 65.1L206.2 66.3L205.2 66.7L204.2 67.4L203.2 69.3L202.2 70.5L201.2 71.3L200.2 71.7L199.2 72.1L198.2 72.5L197.2 73.3L196.2 74.5L195.2 76.6L194.2 78.6L193.2 79.8L192.2 81.2L191.2 83.4L190.2 84.2L189.2 83.9L188.2 83.7L187.2 83.2L186.2 84.7L185.2 86.3L184.2 87.9L183.2 90.3L182.2 90.6L181.2 90.6L180.2 92.9L179.2 94.9L178.2 96.3L177.2 98.5L176.1 100.6L175.1 102.4L174.1 103.5L173.1 104.9L168.1 111.3L158.1 119.2L148.1 122.6L138.1 124.3L128.1 125.5L118.1 126.9L108.1 129.2L98.1 130.1L88.1 130.9L78.1 131.5L68.1 131.8L58 132L48 132.3L38 132.7L28 133L18 133.2L8 133.4"
                    fill="#286bbb"
                    fill-opacity="0.8"
                ></path>
                <path
                    id="Wind"
                    class="Wind-area"
                    stroke-linecap="round"
                    d="M8 133.4L18 133.2L28 133L38 132.7L48 132.3L58 132L68.1 131.8L78.1 131.5L88.1 130.9L98.1 130.1L108.1 129.2L118.1 126.9L128.1 125.3L138.1 124.1L148.1 122.2L158.1 118.6L168.1 110L173.1 103.3L174.1 101.7L175.1 100.6L176.1 98.7L177.2 96.5L178.2 94.2L179.2 92.7L180.2 90.6L181.2 88.2L182.2 88L183.2 87.7L184.2 85.3L185.2 83.7L186.2 81.8L187.2 80.2L188.2 80.6L189.2 80.8L190.2 81L191.2 80.1L192.2 77.8L193.2 76.3L194.2 75L195.2 73L196.2 70.8L197.2 69.6L198.2 68.6L199.2 68.1L200.2 67.7L201.2 67.1L202.2 66.3L203.2 64.8L204.2 62.8L205.2 62.1L206.2 61.7L207.2 60.4L208.2 58.6L209.2 57.9L210.2 56.4L211.2 54L212.2 50.3L213.2 47.8L214.2 45.7L215.2 43.1L216.2 42.3L217.2 43.9L218.2 39.9L219.2 38L220.2 36.9L221.2 35.5L222.2 34.7L223.2 34.2L224.2 33.2L225.2 31.3L226.2 29L227.2 28.2L228.2 32.1L229.2 27.4L230.2 26L231.2 24.7L232.2 22.6L232.2 26.5L231.2 28.3L230.2 29.4L229.2 30.4L228.2 34.7L227.2 30.4L226.2 31.1L225.2 33.2L224.2 34.8L223.2 35.6L222.2 35.9L221.2 36.5L220.2 37.7L219.2 38.7L218.2 40.5L217.2 44.4L216.2 42.7L215.2 43.4L214.2 45.9L213.2 48L212.2 50.5L211.2 54.1L210.2 56.5L209.2 58L208.2 58.6L207.2 60.5L206.2 61.7L205.2 62.1L204.2 62.9L203.2 64.8L202.2 66.3L201.2 67.1L200.2 67.7L199.2 68.2L198.2 68.6L197.2 69.6L196.2 70.8L195.2 73L194.2 75L193.2 76.3L192.2 77.8L191.2 80.1L190.2 81L189.2 80.8L188.2 80.6L187.2 80.2L186.2 81.8L185.2 83.7L184.2 85.3L183.2 87.7L182.2 88L181.2 88.2L180.2 90.6L179.2 92.7L178.2 94.2L177.2 96.5L176.1 98.7L175.1 100.6L174.1 101.7L173.1 103.3L168.1 110L158.1 118.6L148.1 122.2L138.1 124.1L128.1 125.3L118.1 126.9L108.1 129.2L98.1 130.1L88.1 130.9L78.1 131.5L68.1 131.8L58 132L48 132.3L38 132.7L28 133L18 133.2L8 133.4"
                    fill="#00295b"
                    fill-opacity="0.8"
                ></path>
                <path
                    id="Solar"
                    class="Solar-area"
                    stroke-linecap="round"
                    d="M8 133.4L18 133.2L28 133L38 132.7L48 132.3L58 132L68.1 131.8L78.1 131.5L88.1 130.9L98.1 130.1L108.1 129.2L118.1 126.9L128.1 125.3L138.1 124.1L148.1 122.2L158.1 118.6L168.1 110L173.1 103.3L174.1 101.7L175.1 100.6L176.1 98.7L177.2 96.5L178.2 94.2L179.2 92.7L180.2 90.6L181.2 88.2L182.2 88L183.2 87.7L184.2 85.3L185.2 83.7L186.2 81.8L187.2 80.2L188.2 80.6L189.2 80.8L190.2 81L191.2 80.1L192.2 77.8L193.2 76.3L194.2 75L195.2 73L196.2 70.8L197.2 69.6L198.2 68.6L199.2 68.1L200.2 67.7L201.2 67.1L202.2 66.3L203.2 64.8L204.2 62.8L205.2 62.1L206.2 61.7L207.2 60.4L208.2 58.6L209.2 57.9L210.2 56.4L211.2 54L212.2 50.3L213.2 47.8L214.2 45.6L215.2 43.1L216.2 42.3L217.2 43.9L218.2 39.9L219.2 37.9L220.2 36.7L221.2 35.2L222.2 34.4L223.2 33.8L224.2 32.7L225.2 30.6L226.2 28.1L227.2 27L228.2 30.8L229.2 25.8L230.2 23.9L231.2 22.1L232.2 19.3L232.2 22.6L231.2 24.7L230.2 26L229.2 27.4L228.2 32.1L227.2 28.2L226.2 29L225.2 31.3L224.2 33.2L223.2 34.2L222.2 34.7L221.2 35.5L220.2 36.9L219.2 38L218.2 39.9L217.2 43.9L216.2 42.3L215.2 43.1L214.2 45.7L213.2 47.8L212.2 50.3L211.2 54L210.2 56.4L209.2 57.9L208.2 58.6L207.2 60.4L206.2 61.7L205.2 62.1L204.2 62.8L203.2 64.8L202.2 66.3L201.2 67.1L200.2 67.7L199.2 68.1L198.2 68.6L197.2 69.6L196.2 70.8L195.2 73L194.2 75L193.2 76.3L192.2 77.8L191.2 80.1L190.2 81L189.2 80.8L188.2 80.6L187.2 80.2L186.2 81.8L185.2 83.7L184.2 85.3L183.2 87.7L182.2 88L181.2 88.2L180.2 90.6L179.2 92.7L178.2 94.2L177.2 96.5L176.1 98.7L175.1 100.6L174.1 101.7L173.1 103.3L168.1 110L158.1 118.6L148.1 122.2L138.1 124.1L128.1 125.3L118.1 126.9L108.1 129.2L98.1 130.1L88.1 130.9L78.1 131.5L68.1 131.8L58 132L48 132.3L38 132.7L28 133L18 133.2L8 133.4"
                    fill="#e56e5a"
                    fill-opacity="0.8"
                ></path>
                <path
                    id="Modern-biofuels"
                    class="Modern-biofuels-area"
                    stroke-linecap="round"
                    d="M8 133.4L18 133.2L28 133L38 132.7L48 132.3L58 132L68.1 131.8L78.1 131.5L88.1 130.9L98.1 130.1L108.1 129.2L118.1 126.9L128.1 125.3L138.1 124.1L148.1 122.2L158.1 118.6L168.1 110L173.1 103.3L174.1 101.7L175.1 100.6L176.1 98.7L177.2 96.5L178.2 94.2L179.2 92.7L180.2 90.6L181.2 88.2L182.2 88L183.2 87.7L184.2 85.3L185.2 83.7L186.2 81.8L187.2 80.1L188.2 80.6L189.2 80.7L190.2 80.9L191.2 80L192.2 77.7L193.2 76.2L194.2 75L195.2 72.9L196.2 70.7L197.2 69.5L198.2 68.6L199.2 68.1L200.2 67.6L201.2 67.1L202.2 66.2L203.2 64.7L204.2 62.8L205.2 62L206.2 61.6L207.2 60.3L208.2 58.5L209.2 57.8L210.2 56.3L211.2 53.9L212.2 50.2L213.2 47.6L214.2 45.5L215.2 42.9L216.2 42L217.2 43.5L218.2 39.4L219.2 37.4L220.2 36.2L221.2 34.7L222.2 33.8L223.2 33.2L224.2 32.1L225.2 30L226.2 27.4L227.2 26.3L228.2 30.1L229.2 25L230.2 23.1L231.2 21.2L232.2 18.4L232.2 19.3L231.2 22.1L230.2 23.9L229.2 25.8L228.2 30.8L227.2 27L226.2 28.1L225.2 30.6L224.2 32.7L223.2 33.8L222.2 34.4L221.2 35.2L220.2 36.7L219.2 37.9L218.2 39.9L217.2 43.9L216.2 42.3L215.2 43.1L214.2 45.6L213.2 47.8L212.2 50.3L211.2 54L210.2 56.4L209.2 57.9L208.2 58.6L207.2 60.4L206.2 61.7L205.2 62.1L204.2 62.8L203.2 64.8L202.2 66.3L201.2 67.1L200.2 67.7L199.2 68.1L198.2 68.6L197.2 69.6L196.2 70.8L195.2 73L194.2 75L193.2 76.3L192.2 77.8L191.2 80.1L190.2 81L189.2 80.8L188.2 80.6L187.2 80.2L186.2 81.8L185.2 83.7L184.2 85.3L183.2 87.7L182.2 88L181.2 88.2L180.2 90.6L179.2 92.7L178.2 94.2L177.2 96.5L176.1 98.7L175.1 100.6L174.1 101.7L173.1 103.3L168.1 110L158.1 118.6L148.1 122.2L138.1 124.1L128.1 125.3L118.1 126.9L108.1 129.2L98.1 130.1L88.1 130.9L78.1 131.5L68.1 131.8L58 132L48 132.3L38 132.7L28 133L18 133.2L8 133.4"
                    fill="#9a5129"
                    fill-opacity="0.8"
                ></path>
                <path
                    id="Other-renewables"
                    class="Other-renewables-area"
                    stroke-linecap="round"
                    d="M8 133.4L18 133.2L28 133L38 132.7L48 132.3L58 132L68.1 131.8L78.1 131.5L88.1 130.9L98.1 130.1L108.1 129.2L118.1 126.9L128.1 125.3L138.1 124.1L148.1 122.2L158.1 118.6L168.1 110L173.1 103.2L174.1 101.7L175.1 100.6L176.1 98.7L177.2 96.4L178.2 94.2L179.2 92.7L180.2 90.5L181.2 88.2L182.2 87.9L183.2 87.6L184.2 85.2L185.2 83.6L186.2 81.7L187.2 80L188.2 80.5L189.2 80.6L190.2 80.8L191.2 79.9L192.2 77.6L193.2 76.1L194.2 74.8L195.2 72.7L196.2 70.5L197.2 69.3L198.2 68.3L199.2 67.8L200.2 67.4L201.2 66.8L202.2 65.9L203.2 64.4L204.2 62.5L205.2 61.7L206.2 61.2L207.2 60L208.2 58.1L209.2 57.4L210.2 55.9L211.2 53.4L212.2 49.7L213.2 47.1L214.2 44.9L215.2 42.3L216.2 41.3L217.2 42.8L218.2 38.7L219.2 36.6L220.2 35.3L221.2 33.8L222.2 32.8L223.2 32.2L224.2 31L225.2 28.8L226.2 26.2L227.2 25L228.2 28.7L229.2 23.5L230.2 21.6L231.2 19.7L232.2 16.8L232.2 18.4L231.2 21.2L230.2 23.1L229.2 25L228.2 30.1L227.2 26.3L226.2 27.4L225.2 30L224.2 32.1L223.2 33.2L222.2 33.8L221.2 34.7L220.2 36.2L219.2 37.4L218.2 39.4L217.2 43.5L216.2 42L215.2 42.9L214.2 45.5L213.2 47.6L212.2 50.2L211.2 53.9L210.2 56.3L209.2 57.8L208.2 58.5L207.2 60.3L206.2 61.6L205.2 62L204.2 62.8L203.2 64.7L202.2 66.2L201.2 67.1L200.2 67.6L199.2 68.1L198.2 68.6L197.2 69.5L196.2 70.7L195.2 72.9L194.2 75L193.2 76.2L192.2 77.7L191.2 80L190.2 80.9L189.2 80.7L188.2 80.6L187.2 80.1L186.2 81.8L185.2 83.7L184.2 85.3L183.2 87.7L182.2 88L181.2 88.2L180.2 90.6L179.2 92.7L178.2 94.2L177.2 96.5L176.1 98.7L175.1 100.6L174.1 101.7L173.1 103.3L168.1 110L158.1 118.6L148.1 122.2L138.1 124.1L128.1 125.3L118.1 126.9L108.1 129.2L98.1 130.1L88.1 130.9L78.1 131.5L68.1 131.8L58 132L48 132.3L38 132.7L28 133L18 133.2L8 133.4"
                    fill="#578145"
                    fill-opacity="0.8"
                ></path>
            </g>
            <g id="borders">
                <path
                    id="Traditional-biomass"
                    class="Traditional-biomass-border"
                    stroke-linecap="round"
                    d="M8 133.4L18 133.2L28 133.1L38 132.9L48 132.5L58 132.3L68.1 132.5L78.1 132.5L88.1 132.5L98.1 132.7L108.1 133.1L118.1 132.9L128.1 132.5L138.1 132.3L148.1 132.3L158.1 132.2L168.1 131.3L173.1 131.1L174.1 131.1L175.1 131L176.1 131L177.2 130.9L178.2 130.9L179.2 130.9L180.2 130.8L181.2 130.8L182.2 130.8L183.2 130.7L184.2 130.7L185.2 130.7L186.2 130.6L187.2 130.6L188.2 130.6L189.2 130.5L190.2 130.4L191.2 130.3L192.2 130.3L193.2 130.2L194.2 130.1L195.2 130.1L196.2 130L197.2 129.9L198.2 129.8L199.2 129.7L200.2 129.7L201.2 129.6L202.2 129.5L203.2 129.4L204.2 129.3L205.2 129.2L206.2 129.1L207.2 129L208.2 128.9L209.2 128.9L210.2 129L211.2 129L212.2 129.2L213.2 129.2L214.2 129.3L215.2 129.3L216.2 129.4L217.2 129.4L218.2 129.5L219.2 129.5L220.2 129.6L221.2 129.7L222.2 129.8L223.2 129.8L224.2 129.8L225.2 129.8L226.2 129.8L227.2 129.8L228.2 129.8L229.2 129.8L230.2 129.8L231.2 129.8L232.2 129.8"
                    stroke="rgb(157, 119, 75)"
                    stroke-opacity="0.7"
                    stroke-width="0.5"
                    fill="none"
                ></path>
                <path
                    id="Coal"
                    class="Coal-border"
                    stroke-linecap="round"
                    d="M8 133.4L18 133.2L28 133L38 132.7L48 132.3L58 132L68.1 131.8L78.1 131.5L88.1 130.9L98.1 130.2L108.1 129.4L118.1 127.3L128.1 126.2L138.1 125.8L148.1 124.9L158.1 124L168.1 121.3L173.1 120.7L174.1 120.5L175.1 120.6L176.1 120.4L177.2 120.1L178.2 119.9L179.2 119.9L180.2 119.8L181.2 119.4L182.2 119.4L183.2 119.1L184.2 118.6L185.2 118.2L186.2 118.1L187.2 117.4L188.2 117.1L189.2 116.8L190.2 116.6L191.2 116.1L192.2 115.4L193.2 114.7L194.2 114.5L195.2 113.8L196.2 113.2L197.2 113L198.2 113.1L199.2 113.2L200.2 113.2L201.2 113L202.2 112.8L203.2 112.6L204.2 112.1L205.2 112.1L206.2 112.1L207.2 111.9L208.2 111.2L209.2 111L210.2 110.3L211.2 108.7L212.2 107.4L213.2 105.9L214.2 104.7L215.2 103.4L216.2 103.1L217.2 103.5L218.2 102.4L219.2 101.2L220.2 101.2L221.2 100.8L222.2 100.8L223.2 101.6L224.2 102.2L225.2 102L226.2 101.5L227.2 101.7L228.2 102.5L229.2 101L230.2 100.9L231.2 100.6L232.2 100.3"
                    stroke="rgb(114, 40, 48)"
                    stroke-opacity="0.7"
                    stroke-width="0.5"
                    fill="none"
                ></path>
                <path
                    id="Oil"
                    class="Oil-border"
                    stroke-linecap="round"
                    d="M8 133.4L18 133.2L28 133L38 132.7L48 132.3L58 132L68.1 131.8L78.1 131.5L88.1 130.9L98.1 130.2L108.1 129.2L118.1 127L128.1 125.6L138.1 124.7L148.1 123.2L158.1 120.5L168.1 114.1L173.1 109L174.1 108L175.1 107.2L176.1 105.9L177.2 104.3L178.2 102.7L179.2 101.8L180.2 100.2L181.2 98.3L182.2 98.6L183.2 98.5L184.2 96.7L185.2 95.5L186.2 94.4L187.2 93.5L188.2 94.1L189.2 94.7L190.2 95.2L191.2 94.8L192.2 93.7L193.2 93L194.2 92.1L195.2 90.9L196.2 89.6L197.2 89L198.2 88.7L199.2 88.7L200.2 88.4L201.2 88.3L202.2 87.6L203.2 87L204.2 86L205.2 85.2L206.2 85.1L207.2 84.5L208.2 83.5L209.2 83L210.2 82.1L211.2 79.9L212.2 77.5L213.2 75.5L214.2 74.1L215.2 72.3L216.2 72.3L217.2 73.4L218.2 71.3L219.2 69.8L220.2 69.3L221.2 68.6L222.2 68.3L223.2 68.6L224.2 68.5L225.2 67.6L226.2 66.8L227.2 66.9L228.2 70.9L229.2 67.6L230.2 66.3L231.2 65.2L232.2 64.6"
                    stroke="rgb(161, 67, 85)"
                    stroke-opacity="0.7"
                    stroke-width="0.5"
                    fill="none"
                ></path>
                <path
                    id="Natural-gas"
                    class="Natural-gas-border"
                    stroke-linecap="round"
                    d="M8 133.4L18 133.2L28 133L38 132.7L48 132.3L58 132L68.1 131.8L78.1 131.5L88.1 130.9L98.1 130.1L108.1 129.2L118.1 126.9L128.1 125.5L138.1 124.3L148.1 122.6L158.1 119.2L168.1 111.3L173.1 105L174.1 103.5L175.1 102.5L176.1 100.7L177.2 98.6L178.2 96.5L179.2 95.1L180.2 93.2L181.2 90.9L182.2 91L183.2 90.9L184.2 88.7L185.2 87.3L186.2 85.8L187.2 84.4L188.2 85L189.2 85.4L190.2 85.8L191.2 85.3L192.2 83.5L193.2 82.5L194.2 81.5L195.2 79.7L196.2 77.9L197.2 76.8L198.2 76.1L199.2 75.9L200.2 75.4L201.2 75.3L202.2 74.5L203.2 73.4L204.2 71.7L205.2 71L206.2 70.7L207.2 69.6L208.2 68L209.2 67.3L210.2 65.9L211.2 63.3L212.2 60.2L213.2 57.8L214.2 55.9L215.2 53.4L216.2 52.9L217.2 54.4L218.2 50.9L219.2 49L220.2 47.9L221.2 46.9L222.2 46.4L223.2 46.1L224.2 45.6L225.2 44L226.2 42.1L227.2 41.7L228.2 45.9L229.2 41.7L230.2 40.5L231.2 39.3L232.2 38"
                    stroke="rgb(91, 52, 121)"
                    stroke-opacity="0.7"
                    stroke-width="0.5"
                    fill="none"
                ></path>
                <path
                    id="Nuclear"
                    class="Nuclear-border"
                    stroke-linecap="round"
                    d="M8 133.4L18 133.2L28 133L38 132.7L48 132.3L58 132L68.1 131.8L78.1 131.5L88.1 130.9L98.1 130.1L108.1 129.2L118.1 126.9L128.1 125.5L138.1 124.3L148.1 122.6L158.1 119.2L168.1 111.3L173.1 104.9L174.1 103.5L175.1 102.4L176.1 100.6L177.2 98.5L178.2 96.3L179.2 94.9L180.2 92.9L181.2 90.6L182.2 90.6L183.2 90.3L184.2 87.9L185.2 86.3L186.2 84.7L187.2 83.2L188.2 83.7L189.2 83.9L190.2 84.2L191.2 83.4L192.2 81.2L193.2 79.8L194.2 78.6L195.2 76.6L196.2 74.5L197.2 73.3L198.2 72.5L199.2 72.1L200.2 71.7L201.2 71.3L202.2 70.5L203.2 69.3L204.2 67.4L205.2 66.7L206.2 66.3L207.2 65.1L208.2 63.4L209.2 62.6L210.2 61.2L211.2 58.7L212.2 55.4L213.2 53L214.2 51.1L215.2 48.7L216.2 48.3L217.2 49.9L218.2 46.3L219.2 44.5L220.2 43.8L221.2 42.8L222.2 42.2L223.2 41.9L224.2 41.3L225.2 39.7L226.2 37.8L227.2 37.2L228.2 41.6L229.2 37.2L230.2 36.2L231.2 35L232.2 33.5"
                    stroke="rgb(0, 110, 105)"
                    stroke-opacity="0.7"
                    stroke-width="0.5"
                    fill="none"
                ></path>
                <path
                    id="Hydropower"
                    class="Hydropower-border"
                    stroke-linecap="round"
                    d="M8 133.4L18 133.2L28 133L38 132.7L48 132.3L58 132L68.1 131.8L78.1 131.5L88.1 130.9L98.1 130.1L108.1 129.2L118.1 126.9L128.1 125.3L138.1 124.1L148.1 122.2L158.1 118.6L168.1 110L173.1 103.3L174.1 101.7L175.1 100.6L176.1 98.7L177.2 96.5L178.2 94.2L179.2 92.7L180.2 90.6L181.2 88.2L182.2 88L183.2 87.7L184.2 85.3L185.2 83.7L186.2 81.8L187.2 80.2L188.2 80.6L189.2 80.8L190.2 81L191.2 80.1L192.2 77.8L193.2 76.3L194.2 75L195.2 73L196.2 70.8L197.2 69.6L198.2 68.6L199.2 68.2L200.2 67.7L201.2 67.1L202.2 66.3L203.2 64.8L204.2 62.9L205.2 62.1L206.2 61.7L207.2 60.5L208.2 58.6L209.2 58L210.2 56.5L211.2 54.1L212.2 50.5L213.2 48L214.2 45.9L215.2 43.4L216.2 42.7L217.2 44.4L218.2 40.5L219.2 38.7L220.2 37.7L221.2 36.5L222.2 35.9L223.2 35.6L224.2 34.8L225.2 33.2L226.2 31.1L227.2 30.4L228.2 34.7L229.2 30.4L230.2 29.4L231.2 28.3L232.2 26.5"
                    stroke="rgb(33, 90, 156)"
                    stroke-opacity="0.7"
                    stroke-width="0.5"
                    fill="none"
                ></path>
                <path
                    id="Wind"
                    class="Wind-border"
                    stroke-linecap="round"
                    d="M8 133.4L18 133.2L28 133L38 132.7L48 132.3L58 132L68.1 131.8L78.1 131.5L88.1 130.9L98.1 130.1L108.1 129.2L118.1 126.9L128.1 125.3L138.1 124.1L148.1 122.2L158.1 118.6L168.1 110L173.1 103.3L174.1 101.7L175.1 100.6L176.1 98.7L177.2 96.5L178.2 94.2L179.2 92.7L180.2 90.6L181.2 88.2L182.2 88L183.2 87.7L184.2 85.3L185.2 83.7L186.2 81.8L187.2 80.2L188.2 80.6L189.2 80.8L190.2 81L191.2 80.1L192.2 77.8L193.2 76.3L194.2 75L195.2 73L196.2 70.8L197.2 69.6L198.2 68.6L199.2 68.1L200.2 67.7L201.2 67.1L202.2 66.3L203.2 64.8L204.2 62.8L205.2 62.1L206.2 61.7L207.2 60.4L208.2 58.6L209.2 57.9L210.2 56.4L211.2 54L212.2 50.3L213.2 47.8L214.2 45.7L215.2 43.1L216.2 42.3L217.2 43.9L218.2 39.9L219.2 38L220.2 36.9L221.2 35.5L222.2 34.7L223.2 34.2L224.2 33.2L225.2 31.3L226.2 29L227.2 28.2L228.2 32.1L229.2 27.4L230.2 26L231.2 24.7L232.2 22.6"
                    stroke="rgb(0, 34, 76)"
                    stroke-opacity="0.7"
                    stroke-width="0.5"
                    fill="none"
                ></path>
                <path
                    id="Solar"
                    class="Solar-border"
                    stroke-linecap="round"
                    d="M8 133.4L18 133.2L28 133L38 132.7L48 132.3L58 132L68.1 131.8L78.1 131.5L88.1 130.9L98.1 130.1L108.1 129.2L118.1 126.9L128.1 125.3L138.1 124.1L148.1 122.2L158.1 118.6L168.1 110L173.1 103.3L174.1 101.7L175.1 100.6L176.1 98.7L177.2 96.5L178.2 94.2L179.2 92.7L180.2 90.6L181.2 88.2L182.2 88L183.2 87.7L184.2 85.3L185.2 83.7L186.2 81.8L187.2 80.2L188.2 80.6L189.2 80.8L190.2 81L191.2 80.1L192.2 77.8L193.2 76.3L194.2 75L195.2 73L196.2 70.8L197.2 69.6L198.2 68.6L199.2 68.1L200.2 67.7L201.2 67.1L202.2 66.3L203.2 64.8L204.2 62.8L205.2 62.1L206.2 61.7L207.2 60.4L208.2 58.6L209.2 57.9L210.2 56.4L211.2 54L212.2 50.3L213.2 47.8L214.2 45.6L215.2 43.1L216.2 42.3L217.2 43.9L218.2 39.9L219.2 37.9L220.2 36.7L221.2 35.2L222.2 34.4L223.2 33.8L224.2 32.7L225.2 30.6L226.2 28.1L227.2 27L228.2 30.8L229.2 25.8L230.2 23.9L231.2 22.1L232.2 19.3"
                    stroke="rgb(192, 92, 75)"
                    stroke-opacity="0.7"
                    stroke-width="0.5"
                    fill="none"
                ></path>
                <path
                    id="Modern-biofuels"
                    class="Modern-biofuels-border"
                    stroke-linecap="round"
                    d="M8 133.4L18 133.2L28 133L38 132.7L48 132.3L58 132L68.1 131.8L78.1 131.5L88.1 130.9L98.1 130.1L108.1 129.2L118.1 126.9L128.1 125.3L138.1 124.1L148.1 122.2L158.1 118.6L168.1 110L173.1 103.3L174.1 101.7L175.1 100.6L176.1 98.7L177.2 96.5L178.2 94.2L179.2 92.7L180.2 90.6L181.2 88.2L182.2 88L183.2 87.7L184.2 85.3L185.2 83.7L186.2 81.8L187.2 80.1L188.2 80.6L189.2 80.7L190.2 80.9L191.2 80L192.2 77.7L193.2 76.2L194.2 75L195.2 72.9L196.2 70.7L197.2 69.5L198.2 68.6L199.2 68.1L200.2 67.6L201.2 67.1L202.2 66.2L203.2 64.7L204.2 62.8L205.2 62L206.2 61.6L207.2 60.3L208.2 58.5L209.2 57.8L210.2 56.3L211.2 53.9L212.2 50.2L213.2 47.6L214.2 45.5L215.2 42.9L216.2 42L217.2 43.5L218.2 39.4L219.2 37.4L220.2 36.2L221.2 34.7L222.2 33.8L223.2 33.2L224.2 32.1L225.2 30L226.2 27.4L227.2 26.3L228.2 30.1L229.2 25L230.2 23.1L231.2 21.2L232.2 18.4"
                    stroke="rgb(129, 68, 34)"
                    stroke-opacity="0.7"
                    stroke-width="0.5"
                    fill="none"
                ></path>
                <path
                    id="Other-renewables"
                    class="Other-renewables-border"
                    stroke-linecap="round"
                    d="M8 133.4L18 133.2L28 133L38 132.7L48 132.3L58 132L68.1 131.8L78.1 131.5L88.1 130.9L98.1 130.1L108.1 129.2L118.1 126.9L128.1 125.3L138.1 124.1L148.1 122.2L158.1 118.6L168.1 110L173.1 103.2L174.1 101.7L175.1 100.6L176.1 98.7L177.2 96.4L178.2 94.2L179.2 92.7L180.2 90.5L181.2 88.2L182.2 87.9L183.2 87.6L184.2 85.2L185.2 83.6L186.2 81.7L187.2 80L188.2 80.5L189.2 80.6L190.2 80.8L191.2 79.9L192.2 77.6L193.2 76.1L194.2 74.8L195.2 72.7L196.2 70.5L197.2 69.3L198.2 68.3L199.2 67.8L200.2 67.4L201.2 66.8L202.2 65.9L203.2 64.4L204.2 62.5L205.2 61.7L206.2 61.2L207.2 60L208.2 58.1L209.2 57.4L210.2 55.9L211.2 53.4L212.2 49.7L213.2 47.1L214.2 44.9L215.2 42.3L216.2 41.3L217.2 42.8L218.2 38.7L219.2 36.6L220.2 35.3L221.2 33.8L222.2 32.8L223.2 32.2L224.2 31L225.2 28.8L226.2 26.2L227.2 25L228.2 28.7L229.2 23.5L230.2 21.6L231.2 19.7L232.2 16.8"
                    stroke="rgb(73, 108, 58)"
                    stroke-opacity="0.7"
                    stroke-width="0.5"
                    fill="none"
                ></path>
            </g>
        </g>
        <g>
            <text
                id="Traditional biomass"
                font-size="10.00"
                font-weight="500"
                x="236.2"
                y="132.1"
                text-anchor="start"
                fill="#af8454"
                style="
                    fill: #fff;
                    stroke: #fff;
                    stroke-linecap: round;
                    stroke-linejoin: round;
                    user-select: none;
                    stroke-width: 2.5;
                "
            >
                <tspan x="236.2" y="132.1">Traditional</tspan>
                <tspan x="236.2" y="142.1">biomass</tspan>
            </text>
            <text
                font-size="10.00"
                font-weight="500"
                x="236.2"
                y="132.1"
                text-anchor="start"
                fill="#af8454"
            >
                <tspan x="236.2" y="132.1">Traditional</tspan>
                <tspan x="236.2" y="142.1">biomass</tspan>
            </text>
            <text
                id="Coal"
                font-size="10.00"
                font-weight="500"
                x="236.2"
                y="118.7"
                text-anchor="start"
                fill="#883039"
                style="
                    fill: #fff;
                    stroke: #fff;
                    stroke-linecap: round;
                    stroke-linejoin: round;
                    user-select: none;
                    stroke-width: 2.5;
                "
            >
                <tspan x="236.2" y="118.7">Coal</tspan>
            </text>
            <text
                font-size="10.00"
                font-weight="500"
                x="236.2"
                y="118.7"
                text-anchor="start"
                fill="#883039"
            >
                <tspan x="236.2" y="118.7">Coal</tspan>
            </text>
            <text
                id="Oil"
                font-size="10.00"
                font-weight="500"
                x="236.2"
                y="86.1"
                text-anchor="start"
                fill="#c15065"
                style="
                    fill: #fff;
                    stroke: #fff;
                    stroke-linecap: round;
                    stroke-linejoin: round;
                    user-select: none;
                    stroke-width: 2.5;
                "
            >
                <tspan x="236.2" y="86.10000000000001">Oil</tspan>
            </text>
            <text
                font-size="10.00"
                font-weight="500"
                x="236.2"
                y="86.1"
                text-anchor="start"
                fill="#c15065"
            >
                <tspan x="236.2" y="86.10000000000001">Oil</tspan>
            </text>
            <text
                id="Natural gas"
                font-size="10.00"
                font-weight="500"
                x="236.2"
                y="55.0"
                text-anchor="start"
                fill="#6d3e91"
                style="
                    fill: #fff;
                    stroke: #fff;
                    stroke-linecap: round;
                    stroke-linejoin: round;
                    user-select: none;
                    stroke-width: 2.5;
                "
            >
                <tspan x="236.2" y="55">Natural gas</tspan>
            </text>
            <text
                font-size="10.00"
                font-weight="500"
                x="236.2"
                y="55.0"
                text-anchor="start"
                fill="#6d3e91"
            >
                <tspan x="236.2" y="55">Natural gas</tspan>
            </text>
            <text
                id="Hydropower"
                font-size="10.00"
                font-weight="500"
                x="236.2"
                y="33.7"
                text-anchor="start"
                fill="#286bbb"
                style="
                    fill: #fff;
                    stroke: #fff;
                    stroke-linecap: round;
                    stroke-linejoin: round;
                    user-select: none;
                    stroke-width: 2.5;
                "
            >
                <tspan x="236.2" y="33.7">Hydropower</tspan>
            </text>
            <text
                font-size="10.00"
                font-weight="500"
                x="236.2"
                y="33.7"
                text-anchor="start"
                fill="#286bbb"
            >
                <tspan x="236.2" y="33.7">Hydropower</tspan>
            </text>
        </g>
    </g>
</svg>
