<svg
    xmlns="http://www.w3.org/2000/svg"
    version="1.1"
    style='font-family:Lato, &#x27;Helvetica Neue&#x27;, Helvetica, Arial, &#x27;Liberation Sans&#x27;, sans-serif;font-feature-settings:"liga", "kern", "calt", "lnum";text-rendering:geometricPrecision;-webkit-font-smoothing:antialiased;font-size:18px;background-color:#fff'
    width="850"
    height="600"
    viewBox="0 0 850 600"
>
    <defs>
        <style>
            @import url(https://ourworldindata.org/fonts.css);
        </style>
    </defs>
    <defs>
        <pattern
            id="noDataPattern"
            patternUnits="userSpaceOnUse"
            width="4"
            height="4"
            patternTransform="rotate(-45 2 2)"
        >
            <path d="M -1,2 l 6,0" stroke="#ccc" stroke-width="0.7"></path>
        </pattern>
    </defs>
    <g id="header" class="HeaderView">
        <g id="logo" transform="translate(769, 16) scale(1)">
            <svg
                className="owidLogo"
                xmlns="http://www.w3.org/2000/svg"
                width="65"
                height="36"
                viewBox="0 0 65 36"
                fill="none"
            >
                <path fill="#002147" d="M0 0h64.8v36H0z" />
                <path fill="#CE261E" d="M0 33.3h64.8V36H0z" />
                <path
                    fill="#fff"
                    d="M13.796 10.575c0 .636-.106 1.226-.318 1.77a4.193 4.193 0 0 1-.894 1.404 4.084 4.084 0 0 1-1.386.93c-.54.22-1.138.33-1.794.33-.656 0-1.256-.11-1.8-.33a4.149 4.149 0 0 1-1.392-.93 4.193 4.193 0 0 1-.894-1.404A4.833 4.833 0 0 1 5 10.575c0-.636.106-1.224.318-1.764a4.18 4.18 0 0 1 .894-1.41 4.076 4.076 0 0 1 1.392-.924 4.684 4.684 0 0 1 1.8-.336c.656 0 1.254.112 1.794.336.54.224 1.002.534 1.386.93.384.392.682.86.894 1.404.212.54.318 1.128.318 1.764Zm-1.656 0c0-.476-.064-.902-.192-1.278a2.671 2.671 0 0 0-.54-.966 2.332 2.332 0 0 0-.864-.606 2.94 2.94 0 0 0-1.14-.21c-.424 0-.806.07-1.146.21-.34.14-.63.342-.87.606a2.742 2.742 0 0 0-.546.966 3.955 3.955 0 0 0-.192 1.278c0 .476.064.904.192 1.284.128.376.31.696.546.96.24.26.53.46.87.6.34.14.722.21 1.146.21.424 0 .804-.07 1.14-.21.34-.14.628-.34.864-.6.236-.264.416-.584.54-.96a4.01 4.01 0 0 0 .192-1.284ZM16.104 8.757v3.912c0 .376.086.668.258.876.176.204.438.306.786.306.256 0 .496-.056.72-.168a2.58 2.58 0 0 0 .636-.474V8.757h1.482v6.156h-.906c-.192 0-.318-.09-.378-.27l-.102-.492a4.65 4.65 0 0 1-.396.354 2.577 2.577 0 0 1-.438.27 2.35 2.35 0 0 1-.498.168 2.345 2.345 0 0 1-.57.066c-.336 0-.634-.056-.894-.168a1.821 1.821 0 0 1-.648-.486 2.157 2.157 0 0 1-.402-.738 3.233 3.233 0 0 1-.132-.948V8.757h1.482ZM21.328 14.913V8.757h.87c.152 0 .258.028.318.084.06.056.1.152.12.288l.09.744c.22-.38.478-.68.774-.9.296-.22.628-.33.996-.33.304 0 .556.07.756.21l-.192 1.11c-.012.072-.038.124-.078.156a.278.278 0 0 1-.162.042 1.01 1.01 0 0 1-.246-.042 1.646 1.646 0 0 0-.414-.042c-.308 0-.572.086-.792.258-.22.168-.406.416-.558.744v3.834h-1.482ZM27.347 6.237h1.356a.57.57 0 0 1 .348.102c.096.064.16.152.192.264l1.476 5.19c.036.128.068.268.096.42.032.148.062.306.09.474a5.968 5.968 0 0 1 .228-.894l1.704-5.19a.575.575 0 0 1 .186-.252.543.543 0 0 1 .348-.114h.474a.57.57 0 0 1 .348.102.497.497 0 0 1 .192.264l1.692 5.19c.088.256.164.54.228.852.028-.156.056-.306.084-.45.032-.144.064-.278.096-.402l1.476-5.19c.028-.1.09-.186.186-.258a.563.563 0 0 1 .348-.108h1.266l-2.694 8.676h-1.458l-1.896-5.928-.078-.246a9.504 9.504 0 0 1-.072-.282c-.024.1-.05.194-.078.282-.024.088-.048.17-.072.246l-1.914 5.928H30.04l-2.694-8.676ZM42.771 8.661c.46 0 .876.074 1.248.222.376.148.696.358.96.63s.468.604.612.996c.144.392.216.83.216 1.314 0 .488-.072.928-.216 1.32a2.85 2.85 0 0 1-.612 1.002 2.653 2.653 0 0 1-.96.636 3.35 3.35 0 0 1-1.248.222c-.46 0-.878-.074-1.254-.222a2.712 2.712 0 0 1-.966-.636 2.922 2.922 0 0 1-.618-1.002 3.807 3.807 0 0 1-.216-1.32c0-.484.072-.922.216-1.314.148-.392.354-.724.618-.996.268-.272.59-.482.966-.63a3.397 3.397 0 0 1 1.254-.222Zm0 5.202c.512 0 .89-.172 1.134-.516.248-.344.372-.848.372-1.512s-.124-1.17-.372-1.518c-.244-.348-.622-.522-1.134-.522-.52 0-.904.176-1.152.528-.248.348-.372.852-.372 1.512s.124 1.164.372 1.512c.248.344.632.516 1.152.516ZM46.723 14.913V8.757h.87c.152 0 .258.028.318.084.06.056.1.152.12.288l.09.744c.22-.38.478-.68.774-.9.296-.22.628-.33.996-.33.304 0 .556.07.756.21l-.192 1.11c-.012.072-.038.124-.078.156a.278.278 0 0 1-.162.042 1.01 1.01 0 0 1-.246-.042 1.646 1.646 0 0 0-.414-.042c-.308 0-.572.086-.792.258-.22.168-.406.416-.558.744v3.834h-1.482ZM52.96 5.997v8.916h-1.482V5.997h1.482ZM58.732 14.913c-.192 0-.318-.09-.378-.27l-.12-.594a3.68 3.68 0 0 1-.402.39c-.14.116-.292.216-.456.3-.16.084-.334.148-.522.192a2.372 2.372 0 0 1-.6.072c-.336 0-.644-.07-.924-.21a2.098 2.098 0 0 1-.726-.606 3.033 3.033 0 0 1-.468-.99 5.072 5.072 0 0 1-.162-1.344c0-.456.062-.88.186-1.272s.302-.732.534-1.02c.232-.288.51-.512.834-.672a2.384 2.384 0 0 1 1.092-.246 2.103 2.103 0 0 1 1.536.606V5.997h1.482v8.916h-.906Zm-1.974-1.086c.308 0 .57-.064.786-.192.216-.128.42-.31.612-.546v-2.76a1.452 1.452 0 0 0-.552-.432 1.597 1.597 0 0 0-.636-.126c-.224 0-.428.042-.612.126a1.21 1.21 0 0 0-.462.384c-.124.168-.22.384-.288.648-.068.26-.102.568-.102.924 0 .36.028.666.084.918.06.248.144.452.252.612.108.156.24.27.396.342.156.068.33.102.522.102ZM16.331 20.757v6.156H14.85v-6.156h1.481Zm.223-1.794a.844.844 0 0 1-.078.36.963.963 0 0 1-.21.294.995.995 0 0 1-.3.204.963.963 0 0 1-.372.072.948.948 0 0 1-.367-.072 1.018 1.018 0 0 1-.498-.498.963.963 0 0 1 0-.732.995.995 0 0 1 .205-.3.929.929 0 0 1 .293-.198.899.899 0 0 1 .738 0 .912.912 0 0 1 .3.198.943.943 0 0 1 .288.672ZM17.771 26.913v-6.156h.906c.192 0 .318.09.378.27l.102.486a2.934 2.934 0 0 1 .828-.618c.156-.076.322-.134.498-.174.176-.04.368-.06.576-.06.336 0 .634.058.894.174.26.112.476.272.648.48.176.204.308.45.396.738.092.284.138.598.138.942v3.918h-1.482v-3.918c0-.376-.088-.666-.264-.87-.172-.208-.432-.312-.78-.312-.256 0-.496.058-.72.174a2.58 2.58 0 0 0-.636.474v4.452h-1.482ZM34.22 22.575c0 .636-.106 1.22-.318 1.752-.212.532-.51.99-.894 1.374a4 4 0 0 1-1.386.894 4.87 4.87 0 0 1-1.794.318h-3.312v-8.676h3.312a4.79 4.79 0 0 1 1.794.324 4 4 0 0 1 1.386.894c.384.38.682.836.894 1.368.212.532.318 1.116.318 1.752Zm-1.65 0c0-.476-.064-.902-.192-1.278a2.68 2.68 0 0 0-.546-.96 2.332 2.332 0 0 0-.864-.606 2.94 2.94 0 0 0-1.14-.21h-1.686v6.108h1.686c.424 0 .804-.07 1.14-.21.34-.14.628-.34.864-.6a2.75 2.75 0 0 0 .546-.96 4.01 4.01 0 0 0 .192-1.284ZM39.98 26.913h-.665c-.14 0-.25-.02-.33-.06-.08-.044-.14-.13-.18-.258l-.132-.438c-.156.14-.31.264-.462.372a2.804 2.804 0 0 1-.462.264c-.16.072-.33.126-.51.162-.18.036-.38.054-.6.054-.26 0-.5-.034-.72-.102a1.618 1.618 0 0 1-.57-.318 1.448 1.448 0 0 1-.366-.522 1.852 1.852 0 0 1-.132-.726c0-.232.06-.46.18-.684.124-.228.328-.432.612-.612.284-.184.662-.336 1.134-.456.472-.12 1.058-.188 1.758-.204v-.36c0-.412-.088-.716-.264-.912-.172-.2-.424-.3-.756-.3a1.837 1.837 0 0 0-1.02.276c-.116.068-.224.13-.324.186a.664.664 0 0 1-.33.084.429.429 0 0 1-.258-.078.614.614 0 0 1-.174-.192l-.27-.474c.708-.648 1.562-.972 2.562-.972.36 0 .68.06.96.18.284.116.524.28.72.492.196.208.344.458.444.75.104.292.156.612.156.96v3.888Zm-2.88-.924c.153 0 .293-.014.42-.042.129-.028.249-.07.36-.126.117-.056.227-.124.33-.204.109-.084.217-.182.325-.294v-1.038c-.432.02-.794.058-1.086.114-.288.052-.52.12-.696.204a.923.923 0 0 0-.378.294.664.664 0 0 0-.108.366c0 .26.076.446.228.558.156.112.358.168.606.168ZM43.22 27.01c-.532 0-.942-.15-1.23-.45-.288-.305-.432-.723-.432-1.255v-3.438h-.624a.31.31 0 0 1-.21-.078c-.056-.052-.084-.13-.084-.234v-.588l.99-.162.312-1.68a.302.302 0 0 1 .108-.186.365.365 0 0 1 .222-.066h.768v1.938h1.62v1.056h-1.62v3.336c0 .192.048.342.144.45a.488.488 0 0 0 .384.162c.092 0 .168-.01.228-.03.064-.024.118-.048.162-.072.048-.024.09-.046.126-.066a.194.194 0 0 1 .108-.036.16.16 0 0 1 .108.036c.028.02.058.052.09.096l.444.72c-.216.18-.464.316-.744.408a2.77 2.77 0 0 1-.87.138ZM50.423 26.913h-.666c-.14 0-.25-.02-.33-.06-.08-.044-.14-.13-.18-.258l-.132-.438c-.156.14-.31.264-.462.372a2.804 2.804 0 0 1-.462.264c-.16.072-.33.126-.51.162-.18.036-.38.054-.6.054-.26 0-.5-.034-.72-.102a1.618 1.618 0 0 1-.57-.318 1.448 1.448 0 0 1-.366-.522 1.852 1.852 0 0 1-.132-.726c0-.232.06-.46.18-.684.124-.228.328-.432.612-.612.284-.184.662-.336 1.134-.456.472-.12 1.058-.188 1.758-.204v-.36c0-.412-.088-.716-.264-.912-.172-.2-.424-.3-.756-.3a1.837 1.837 0 0 0-1.02.276c-.116.068-.224.13-.324.186a.664.664 0 0 1-.33.084.429.429 0 0 1-.258-.078.614.614 0 0 1-.174-.192l-.27-.474c.708-.648 1.562-.972 2.562-.972.36 0 .68.06.96.18.284.116.524.28.72.492.196.208.344.458.444.75.104.292.156.612.156.96v3.888Zm-2.88-.924c.152 0 .292-.014.42-.042.128-.028.248-.07.36-.126.116-.056.226-.124.33-.204.108-.084.216-.182.324-.294v-1.038c-.432.02-.794.058-1.086.114-.288.052-.52.12-.696.204a.923.923 0 0 0-.378.294.664.664 0 0 0-.108.366c0 .26.076.446.228.558.156.112.358.168.606.168Z"
                />
            </svg>
        </g>
        <a
            id="title"
            href="https://ourworldindata.org/grapher/cancer-deaths-by-type-grouped"
            style="font-family:&#x27;Playfair Display&#x27;, Georgia, &#x27;Times New Roman&#x27;, &#x27;Liberation Serif&#x27;, serif"
        >
            <text
                font-size="25.00"
                font-weight="600"
                x="16.0"
                y="40.3"
                fill="#2d2e2d"
            >
                <tspan x="16" y="40.25">Cancer deaths by type, World</tspan>
            </text>
        </a>
        <g id="subtitle" class="markdown-text-wrap">
            <text
                x="16.0"
                y="66.5"
                style="font-size: 15px; line-height: 1.2"
                fill="#5b5b5b"
            >
                <tspan x="16" y="66.5">
                    Estimated deaths from
                    <tspan class="dod-span" data-id="cancer">cancer</tspan>
                    by type. Cancers that caused more than 200,000 deaths in the
                    most recent year
                </tspan>
                <tspan x="16" y="84.5">
                    are shown individually; all remaining types are included in
                    &#x27;Other cancers&#x27;.
                </tspan>
            </text>
        </g>
    </g>
    <g id="chart-area" style="pointer-events: none">
        <g id="horizontal-axis" class="HorizontalAxis">
            <g id="tick-marks">
                <line
                    id="1980"
                    x1="77.8"
                    y1="531.9"
                    x2="77.8"
                    y2="537.4"
                    stroke="#999"
                    stroke-width="1"
                ></line>
                <line
                    id="2023"
                    x1="700.5"
                    y1="531.9"
                    x2="700.5"
                    y2="537.4"
                    stroke="#999"
                    stroke-width="1"
                ></line>
                <line
                    id="1990"
                    x1="222.3"
                    y1="531.9"
                    x2="222.3"
                    y2="537.4"
                    stroke="#999"
                    stroke-width="1"
                ></line>
                <line
                    id="2000"
                    x1="367.4"
                    y1="531.9"
                    x2="367.4"
                    y2="537.4"
                    stroke="#999"
                    stroke-width="1"
                ></line>
                <line
                    id="2010"
                    x1="512.4"
                    y1="531.9"
                    x2="512.4"
                    y2="537.4"
                    stroke="#999"
                    stroke-width="1"
                ></line>
            </g>
            <g id="tick-labels">
                <text
                    x="77.28999999999999"
                    y="550.4"
                    fill="#5b5b5b"
                    text-anchor="start"
                    font-size="13"
                >
                    1980
                </text>
                <text
                    x="701"
                    y="550.4"
                    fill="#5b5b5b"
                    text-anchor="end"
                    font-size="13"
                >
                    2023
                </text>
                <text
                    x="222.3"
                    y="550.4"
                    fill="#5b5b5b"
                    text-anchor="middle"
                    font-size="13"
                >
                    1990
                </text>
                <text
                    x="367.4"
                    y="550.4"
                    fill="#5b5b5b"
                    text-anchor="middle"
                    font-size="13"
                >
                    2000
                </text>
                <text
                    x="512.4"
                    y="550.4"
                    fill="#5b5b5b"
                    text-anchor="middle"
                    font-size="13"
                >
                    2010
                </text>
            </g>
        </g>
        <g id="vertical-axis" class="VerticalAxis">
            <g id="tick-labels">
                <text
                    x="72.29"
                    y="532.4"
                    dy=".32em"
                    text-anchor="end"
                    fill="#5b5b5b"
                    font-size="13"
                >
                    0
                </text>
                <text
                    x="72.29"
                    y="450.7"
                    dy=".32em"
                    text-anchor="end"
                    fill="#5b5b5b"
                    font-size="13"
                >
                    2 million
                </text>
                <text
                    x="72.29"
                    y="369"
                    dy=".32em"
                    text-anchor="end"
                    fill="#5b5b5b"
                    font-size="13"
                >
                    4 million
                </text>
                <text
                    x="72.29"
                    y="287.2"
                    dy=".32em"
                    text-anchor="end"
                    fill="#5b5b5b"
                    font-size="13"
                >
                    6 million
                </text>
                <text
                    x="72.29"
                    y="205.5"
                    dy=".32em"
                    text-anchor="end"
                    fill="#5b5b5b"
                    font-size="13"
                >
                    8 million
                </text>
                <text
                    x="72.29"
                    y="123.8"
                    dy=".32em"
                    text-anchor="end"
                    fill="#5b5b5b"
                    font-size="13"
                >
                    10 million
                </text>
            </g>
        </g>
        <g id="horizontal-grid-lines" class="AxisGridLines horizontalLines">
            <line
                id="0"
                class="zero-line"
                x1="77.29"
                y1="532.4"
                x2="701.00"
                y2="532.4"
                stroke="#999"
            ></line>
            <line
                id="2-million"
                x1="77.29"
                y1="450.7"
                x2="701.00"
                y2="450.7"
                stroke="#ddd"
                stroke-dasharray="4,4"
            ></line>
            <line
                id="4-million"
                x1="77.29"
                y1="369"
                x2="701.00"
                y2="369"
                stroke="#ddd"
                stroke-dasharray="4,4"
            ></line>
            <line
                id="6-million"
                x1="77.29"
                y1="287.2"
                x2="701.00"
                y2="287.2"
                stroke="#ddd"
                stroke-dasharray="4,4"
            ></line>
            <line
                id="8-million"
                x1="77.29"
                y1="205.5"
                x2="701.00"
                y2="205.5"
                stroke="#ddd"
                stroke-dasharray="4,4"
            ></line>
            <line
                id="10-million"
                x1="77.29"
                y1="123.8"
                x2="701.00"
                y2="123.8"
                stroke="#ddd"
                stroke-dasharray="4,4"
            ></line>
        </g>
        <g id="vertical-labels" transform="translate(701, 0)">
            <g id="connectors" style="pointer-events: none">
                <path
                    id="Lung,-trachea-and-bronchus"
                    d="M4,151.6 H12.5 V151.6 H21"
                    stroke="#999"
                    stroke-width="0.5"
                    fill="none"
                ></path>
                <path
                    id="Colon-and-rectum"
                    d="M4,215.7 H12.5 V215.7 H21"
                    stroke="#999"
                    stroke-width="0.5"
                    fill="none"
                ></path>
                <path
                    id="Stomach"
                    d="M4,257.4 H12.5 V257.4 H21"
                    stroke="#999"
                    stroke-width="0.5"
                    fill="none"
                ></path>
                <path
                    id="Breast"
                    d="M4,292.5 H12.5 V292.5 H21"
                    stroke="#999"
                    stroke-width="0.5"
                    fill="none"
                ></path>
                <path
                    id="Esophageal"
                    d="M4,320.2 H6.125 V308.1181818181817 H21"
                    stroke="#999"
                    stroke-width="0.5"
                    fill="none"
                ></path>
                <path
                    id="Pancreatic"
                    d="M4,343.2 H8.25 V326.4181818181817 H21"
                    stroke="#999"
                    stroke-width="0.5"
                    fill="none"
                ></path>
                <path
                    id="Liver"
                    d="M4,364.9 H10.375 V344.71818181818173 H21"
                    stroke="#999"
                    stroke-width="0.5"
                    fill="none"
                ></path>
                <path
                    id="Prostate"
                    d="M4,384.9 H12.5 V363.01818181818174 H21"
                    stroke="#999"
                    stroke-width="0.5"
                    fill="none"
                ></path>
                <path
                    id="Leukemia"
                    d="M4,401.5 H14.625 V381.31818181818176 H21"
                    stroke="#999"
                    stroke-width="0.5"
                    fill="none"
                ></path>
                <path
                    id="Cervical"
                    d="M4,416.1 H16.75 V399.61818181818177 H21"
                    stroke="#999"
                    stroke-width="0.5"
                    fill="none"
                ></path>
                <path
                    id="Non-hodgkin-lymphoma"
                    d="M4,429.4 H18.875 V425.0681818181818 H21"
                    stroke="#999"
                    stroke-width="0.5"
                    fill="none"
                ></path>
                <path
                    id="Brain-and-central-nervous-system"
                    d="M4,440.6 H18.875 V457.66818181818184 H21"
                    stroke="#999"
                    stroke-width="0.5"
                    fill="none"
                ></path>
                <path
                    id="Bladder"
                    d="M4,450.7 H16.75 V483.1181818181818 H21"
                    stroke="#999"
                    stroke-width="0.5"
                    fill="none"
                ></path>
                <path
                    id="Lip-and-oral-cavity"
                    d="M4,460.1 H14.625 V501.41818181818184 H21"
                    stroke="#999"
                    stroke-width="0.5"
                    fill="none"
                ></path>
                <path
                    id="Other-cancers"
                    d="M4,498.6 H12.5 V519.7181818181818 H21"
                    stroke="#999"
                    stroke-width="0.5"
                    fill="none"
                ></path>
            </g>
            <g id="text-labels" style="pointer-events: none">
                <text
                    id="label__Lung,-trachea-and-bronchus"
                    x="25.0"
                    y="149.3"
                    text-anchor="start"
                    font-size="13.00"
                    opacity="1"
                >
                    <tspan x="25.0" font-weight="400" fill="#970046">
                        Lung, trachea and
                    </tspan>
                    <tspan x="25.0" dy="14.3" font-weight="400" fill="#970046">
                        bronchus
                    </tspan>
                </text>
                <text
                    id="label__Colon-and-rectum"
                    x="25.0"
                    y="220.5"
                    text-anchor="start"
                    font-size="13.00"
                    opacity="1"
                >
                    <tspan x="25.0" font-weight="400" fill="#578145">
                        Colon and rectum
                    </tspan>
                </text>
                <text
                    id="label__Stomach"
                    x="25.0"
                    y="262.2"
                    text-anchor="start"
                    font-size="13.00"
                    opacity="1"
                >
                    <tspan x="25.0" font-weight="400" fill="#36a4b3">
                        Stomach
                    </tspan>
                </text>
                <text
                    id="label__Breast"
                    x="25.0"
                    y="297.3"
                    text-anchor="start"
                    font-size="13.00"
                    opacity="1"
                >
                    <tspan x="25.0" font-weight="400" fill="#a2559c">
                        Breast
                    </tspan>
                </text>
                <text
                    id="label__Esophageal"
                    x="25.0"
                    y="312.9"
                    text-anchor="start"
                    font-size="13.00"
                    opacity="1"
                >
                    <tspan x="25.0" font-weight="400" fill="#d96855">
                        Esophageal
                    </tspan>
                </text>
                <text
                    id="label__Pancreatic"
                    x="25.0"
                    y="331.2"
                    text-anchor="start"
                    font-size="13.00"
                    opacity="1"
                >
                    <tspan x="25.0" font-weight="400" fill="#9a5129">
                        Pancreatic
                    </tspan>
                </text>
                <text
                    id="label__Liver"
                    x="25.0"
                    y="349.5"
                    text-anchor="start"
                    font-size="13.00"
                    opacity="1"
                >
                    <tspan x="25.0" font-weight="400" fill="#18470f">
                        Liver
                    </tspan>
                </text>
                <text
                    id="label__Prostate"
                    x="25.0"
                    y="367.8"
                    text-anchor="start"
                    font-size="13.00"
                    opacity="1"
                >
                    <tspan x="25.0" font-weight="400" fill="#c15065">
                        Prostate
                    </tspan>
                </text>
                <text
                    id="label__Leukemia"
                    x="25.0"
                    y="386.1"
                    text-anchor="start"
                    font-size="13.00"
                    opacity="1"
                >
                    <tspan x="25.0" font-weight="400" fill="#00295b">
                        Leukemia
                    </tspan>
                </text>
                <text
                    id="label__Cervical"
                    x="25.0"
                    y="404.4"
                    text-anchor="start"
                    font-size="13.00"
                    opacity="1"
                >
                    <tspan x="25.0" font-weight="400" fill="#af8454">
                        Cervical
                    </tspan>
                </text>
                <text
                    id="label__Non-hodgkin-lymphoma"
                    x="25.0"
                    y="422.7"
                    text-anchor="start"
                    font-size="13.00"
                    opacity="1"
                >
                    <tspan x="25.0" font-weight="400" fill="#883039">
                        Non-hodgkin
                    </tspan>
                    <tspan x="25.0" dy="14.3" font-weight="400" fill="#883039">
                        lymphoma
                    </tspan>
                </text>
                <text
                    id="label__Brain-and-central-nervous-system"
                    x="25.0"
                    y="455.3"
                    text-anchor="start"
                    font-size="13.00"
                    opacity="1"
                >
                    <tspan x="25.0" font-weight="400" fill="#286bbb">
                        Brain and central
                    </tspan>
                    <tspan x="25.0" dy="14.3" font-weight="400" fill="#286bbb">
                        nervous system
                    </tspan>
                </text>
                <text
                    id="label__Bladder"
                    x="25.0"
                    y="487.9"
                    text-anchor="start"
                    font-size="13.00"
                    opacity="1"
                >
                    <tspan x="25.0" font-weight="400" fill="#54a385">
                        Bladder
                    </tspan>
                </text>
                <text
                    id="label__Lip-and-oral-cavity"
                    x="25.0"
                    y="506.2"
                    text-anchor="start"
                    font-size="13.00"
                    opacity="1"
                >
                    <tspan x="25.0" font-weight="400" fill="#c05917">
                        Lip and oral cavity
                    </tspan>
                </text>
                <text
                    id="label__Other-cancers"
                    x="25.0"
                    y="524.5"
                    text-anchor="start"
                    font-size="13.00"
                    opacity="1"
                >
                    <tspan x="25.0" font-weight="400" fill="#6d3e91">
                        Other cancers
                    </tspan>
                </text>
            </g>
        </g>
        <g class="Areas" id="stacked-areas">
            <g id="areas">
                <path
                    id="Other-cancers"
                    class="Other-cancers-area"
                    stroke-linecap="round"
                    d="M77.3 503L91.8 502.6L106.3 502.1L120.8 501.3L135.3 500.6L149.8 499.8L164.3 499.2L178.8 498.5L193.3 497.5L207.8 496.5L222.3 495.7L236.8 494.8L251.3 494.1L265.9 493.3L280.4 492.7L294.9 492.2L309.4 491.7L323.9 491.3L338.4 490.7L352.9 490L367.4 489.7L381.9 489.2L396.4 488.6L410.9 488L425.4 487.8L439.9 486.9L454.4 486.2L468.9 485L483.4 483.9L497.9 483.1L512.4 481.8L526.9 481L541.4 479.9L556 479.1L570.5 478.1L585 476.4L599.5 474.8L614 473.3L628.5 472.4L643 471.5L657.5 470.3L672 467.6L686.5 465.8L701 464.7L701 532.4L77.3 532.4"
                    fill="#6d3e91"
                    fill-opacity="0.8"
                ></path>
                <path
                    id="Lip-and-oral-cavity"
                    class="Lip-and-oral-cavity-area"
                    stroke-linecap="round"
                    d="M77.3 499.9L91.8 499.5L106.3 498.9L120.8 498.1L135.3 497.3L149.8 496.3L164.3 495.7L178.8 494.9L193.3 493.7L207.8 492.7L222.3 491.7L236.8 490.7L251.3 490L265.9 489L280.4 488.4L294.9 487.8L309.4 487.2L323.9 486.7L338.4 486L352.9 485.2L367.4 484.8L381.9 484.2L396.4 483.4L410.9 482.8L425.4 482.5L439.9 481.5L454.4 480.7L468.9 479.3L483.4 478L497.9 477L512.4 475.5L526.9 474.5L541.4 473.3L556 472.4L570.5 471.3L585 469.3L599.5 467.5L614 465.7L628.5 464.6L643 463.6L657.5 462.1L672 458.7L686.5 456.9L701 455.5L701 464.7L686.5 465.8L672 467.6L657.5 470.3L643 471.5L628.5 472.4L614 473.3L599.5 474.8L585 476.4L570.5 478.1L556 479.1L541.4 479.9L526.9 481L512.4 481.8L497.9 483.1L483.4 483.9L468.9 485L454.4 486.2L439.9 486.9L425.4 487.8L410.9 488L396.4 488.6L381.9 489.2L367.4 489.7L352.9 490L338.4 490.7L323.9 491.3L309.4 491.7L294.9 492.2L280.4 492.7L265.9 493.3L251.3 494.1L236.8 494.8L222.3 495.7L207.8 496.5L193.3 497.5L178.8 498.5L164.3 499.2L149.8 499.8L135.3 500.6L120.8 501.3L106.3 502.1L91.8 502.6L77.3 503"
                    fill="#c05917"
                    fill-opacity="0.8"
                ></path>
                <path
                    id="Bladder"
                    class="Bladder-area"
                    stroke-linecap="round"
                    d="M77.3 496L91.8 495.5L106.3 494.9L120.8 493.9L135.3 493L149.8 492L164.3 491.3L178.8 490.3L193.3 489L207.8 487.8L222.3 486.7L236.8 485.6L251.3 484.7L265.9 483.6L280.4 483L294.9 482.3L309.4 481.6L323.9 481L338.4 480.2L352.9 479.3L367.4 478.8L381.9 478.1L396.4 477.3L410.9 476.5L425.4 476.3L439.9 475.2L454.4 474.3L468.9 472.7L483.4 471.3L497.9 470.2L512.4 468.6L526.9 467.5L541.4 466.1L556 465.1L570.5 463.8L585 461.5L599.5 459.5L614 457.4L628.5 456.3L643 455.2L657.5 453.5L672 449.8L686.5 447.5L701 446L701 455.5L686.5 456.9L672 458.7L657.5 462.1L643 463.6L628.5 464.6L614 465.7L599.5 467.5L585 469.3L570.5 471.3L556 472.4L541.4 473.3L526.9 474.5L512.4 475.5L497.9 477L483.4 478L468.9 479.3L454.4 480.7L439.9 481.5L425.4 482.5L410.9 482.8L396.4 483.4L381.9 484.2L367.4 484.8L352.9 485.2L338.4 486L323.9 486.7L309.4 487.2L294.9 487.8L280.4 488.4L265.9 489L251.3 490L236.8 490.7L222.3 491.7L207.8 492.7L193.3 493.7L178.8 494.9L164.3 495.7L149.8 496.3L135.3 497.3L120.8 498.1L106.3 498.9L91.8 499.5L77.3 499.9"
                    fill="#58ac8c"
                    fill-opacity="0.8"
                ></path>
                <path
                    id="Brain-and-central-nervous-system"
                    class="Brain-and-central-nervous-system-area"
                    stroke-linecap="round"
                    d="M77.3 491.3L91.8 490.7L106.3 490L120.8 489L135.3 488L149.8 486.8L164.3 486L178.8 484.9L193.3 483.5L207.8 482.1L222.3 480.8L236.8 479.6L251.3 478.6L265.9 477.4L280.4 476.6L294.9 475.7L309.4 475L323.9 474.3L338.4 473.4L352.9 472.3L367.4 471.6L381.9 470.8L396.4 469.8L410.9 469L425.4 468.7L439.9 467.3L454.4 466.4L468.9 464.7L483.4 463.1L497.9 461.9L512.4 460.1L526.9 458.9L541.4 457.3L556 456.2L570.5 454.7L585 452.2L599.5 449.9L614 447.6L628.5 446.3L643 445L657.5 443.1L672 439.1L686.5 436.6L701 435.2L701 446L686.5 447.5L672 449.8L657.5 453.5L643 455.2L628.5 456.3L614 457.4L599.5 459.5L585 461.5L570.5 463.8L556 465.1L541.4 466.1L526.9 467.5L512.4 468.6L497.9 470.2L483.4 471.3L468.9 472.7L454.4 474.3L439.9 475.2L425.4 476.3L410.9 476.5L396.4 477.3L381.9 478.1L367.4 478.8L352.9 479.3L338.4 480.2L323.9 481L309.4 481.6L294.9 482.3L280.4 483L265.9 483.6L251.3 484.7L236.8 485.6L222.3 486.7L207.8 487.8L193.3 489L178.8 490.3L164.3 491.3L149.8 492L135.3 493L120.8 493.9L106.3 494.9L91.8 495.5L77.3 496"
                    fill="#286bbb"
                    fill-opacity="0.8"
                ></path>
                <path
                    id="Non-hodgkin-lymphoma"
                    class="Non-hodgkin-lymphoma-area"
                    stroke-linecap="round"
                    d="M77.3 487L91.8 486.3L106.3 485.5L120.8 484.3L135.3 483.1L149.8 481.8L164.3 480.8L178.8 479.5L193.3 477.8L207.8 476.2L222.3 474.8L236.8 473.3L251.3 472.2L265.9 470.7L280.4 469.7L294.9 468.7L309.4 467.7L323.9 466.9L338.4 465.9L352.9 464.7L367.4 463.9L381.9 463.1L396.4 462.1L410.9 461.2L425.4 460.8L439.9 459.4L454.4 458.4L468.9 456.5L483.4 454.7L497.9 453.3L512.4 451.3L526.9 449.9L541.4 448.2L556 446.9L570.5 445.2L585 442.4L599.5 439.8L614 437.3L628.5 435.8L643 434.3L657.5 432.2L672 428L686.5 425.2L701 423.6L701 435.2L686.5 436.6L672 439.1L657.5 443.1L643 445L628.5 446.3L614 447.6L599.5 449.9L585 452.2L570.5 454.7L556 456.2L541.4 457.3L526.9 458.9L512.4 460.1L497.9 461.9L483.4 463.1L468.9 464.7L454.4 466.4L439.9 467.3L425.4 468.7L410.9 469L396.4 469.8L381.9 470.8L367.4 471.6L352.9 472.3L338.4 473.4L323.9 474.3L309.4 475L294.9 475.7L280.4 476.6L265.9 477.4L251.3 478.6L236.8 479.6L222.3 480.8L207.8 482.1L193.3 483.5L178.8 484.9L164.3 486L149.8 486.8L135.3 488L120.8 489L106.3 490L91.8 490.7L77.3 491.3"
                    fill="#883039"
                    fill-opacity="0.8"
                ></path>
                <path
                    id="Cervical"
                    class="Cervical-area"
                    stroke-linecap="round"
                    d="M77.3 479L91.8 478.3L106.3 477.4L120.8 476.2L135.3 474.9L149.8 473.5L164.3 472.5L178.8 471.1L193.3 469.3L207.8 467.6L222.3 466L236.8 464.4L251.3 463.2L265.9 461.8L280.4 460.7L294.9 459.6L309.4 458.6L323.9 457.6L338.4 456.4L352.9 455.1L367.4 454.3L381.9 453.4L396.4 452.2L410.9 451.2L425.4 450.9L439.9 449.4L454.4 448.2L468.9 446.2L483.4 444.2L497.9 442.7L512.4 440.5L526.9 439L541.4 437.1L556 435.6L570.5 433.5L585 430.3L599.5 427.4L614 424.7L628.5 423L643 421.4L657.5 419.2L672 414.1L686.5 410.6L701 408.5L701 423.6L686.5 425.2L672 428L657.5 432.2L643 434.3L628.5 435.8L614 437.3L599.5 439.8L585 442.4L570.5 445.2L556 446.9L541.4 448.2L526.9 449.9L512.4 451.3L497.9 453.3L483.4 454.7L468.9 456.5L454.4 458.4L439.9 459.4L425.4 460.8L410.9 461.2L396.4 462.1L381.9 463.1L367.4 463.9L352.9 464.7L338.4 465.9L323.9 466.9L309.4 467.7L294.9 468.7L280.4 469.7L265.9 470.7L251.3 472.2L236.8 473.3L222.3 474.8L207.8 476.2L193.3 477.8L178.8 479.5L164.3 480.8L149.8 481.8L135.3 483.1L120.8 484.3L106.3 485.5L91.8 486.3L77.3 487"
                    fill="#bc8e5a"
                    fill-opacity="0.8"
                ></path>
                <path
                    id="Leukemia"
                    class="Leukemia-area"
                    stroke-linecap="round"
                    d="M77.3 469.4L91.8 468.6L106.3 467.7L120.8 466.3L135.3 464.9L149.8 463.3L164.3 462.2L178.8 460.6L193.3 458.6L207.8 456.7L222.3 455L236.8 453.3L251.3 452L265.9 450.4L280.4 449.3L294.9 448.1L309.4 447L323.9 446L338.4 444.7L352.9 443.3L367.4 442.4L381.9 441.4L396.4 440.2L410.9 439.1L425.4 438.8L439.9 437.3L454.4 436.2L468.9 434.1L483.4 432L497.9 430.4L512.4 428.2L526.9 426.6L541.4 424.6L556 423.1L570.5 420.9L585 417.5L599.5 414.4L614 411.5L628.5 409.7L643 407.9L657.5 405.5L672 400.2L686.5 396.6L701 394.6L701 408.5L686.5 410.6L672 414.1L657.5 419.2L643 421.4L628.5 423L614 424.7L599.5 427.4L585 430.3L570.5 433.5L556 435.6L541.4 437.1L526.9 439L512.4 440.5L497.9 442.7L483.4 444.2L468.9 446.2L454.4 448.2L439.9 449.4L425.4 450.9L410.9 451.2L396.4 452.2L381.9 453.4L367.4 454.3L352.9 455.1L338.4 456.4L323.9 457.6L309.4 458.6L294.9 459.6L280.4 460.7L265.9 461.8L251.3 463.2L236.8 464.4L222.3 466L207.8 467.6L193.3 469.3L178.8 471.1L164.3 472.5L149.8 473.5L135.3 474.9L120.8 476.2L106.3 477.4L91.8 478.3L77.3 479"
                    fill="#00295b"
                    fill-opacity="0.8"
                ></path>
                <path
                    id="Prostate"
                    class="Prostate-area"
                    stroke-linecap="round"
                    d="M77.3 463.2L91.8 462.3L106.3 461.2L120.8 459.5L135.3 457.9L149.8 456L164.3 454.6L178.8 452.8L193.3 450.5L207.8 448.2L222.3 446.2L236.8 444.2L251.3 442.7L265.9 440.7L280.4 439.4L294.9 438L309.4 436.6L323.9 435.5L338.4 433.9L352.9 432.2L367.4 431.2L381.9 429.9L396.4 428.4L410.9 427.2L425.4 426.7L439.9 425L454.4 423.6L468.9 421.2L483.4 418.8L497.9 417.1L512.4 414.4L526.9 412.7L541.4 410.4L556 408.6L570.5 406.2L585 402.2L599.5 398.6L614 395.2L628.5 393.1L643 390.9L657.5 387.9L672 382L686.5 377.8L701 375.2L701 394.6L686.5 396.6L672 400.2L657.5 405.5L643 407.9L628.5 409.7L614 411.5L599.5 414.4L585 417.5L570.5 420.9L556 423.1L541.4 424.6L526.9 426.6L512.4 428.2L497.9 430.4L483.4 432L468.9 434.1L454.4 436.2L439.9 437.3L425.4 438.8L410.9 439.1L396.4 440.2L381.9 441.4L367.4 442.4L352.9 443.3L338.4 444.7L323.9 446L309.4 447L294.9 448.1L280.4 449.3L265.9 450.4L251.3 452L236.8 453.3L222.3 455L207.8 456.7L193.3 458.6L178.8 460.6L164.3 462.2L149.8 463.3L135.3 464.9L120.8 466.3L106.3 467.7L91.8 468.6L77.3 469.4"
                    fill="#c15065"
                    fill-opacity="0.8"
                ></path>
                <path
                    id="Liver"
                    class="Liver-area"
                    stroke-linecap="round"
                    d="M77.3 453L91.8 452.3L106.3 451.3L120.8 449.6L135.3 448.1L149.8 446.3L164.3 444.9L178.8 443.1L193.3 440.6L207.8 438.2L222.3 436.1L236.8 433.8L251.3 432L265.9 429.8L280.4 428.1L294.9 426.1L309.4 424.4L323.9 423L338.4 421.2L352.9 419.1L367.4 417.9L381.9 416.4L396.4 414.8L410.9 413.5L425.4 413.2L439.9 411.1L454.4 409.4L468.9 406.6L483.4 403.7L497.9 401.8L512.4 398.9L526.9 397L541.4 394.4L556 392.4L570.5 389.5L585 385L599.5 381L614 377.2L628.5 375.1L643 373.1L657.5 370L672 363.2L686.5 357.9L701 354.5L701 375.2L686.5 377.8L672 382L657.5 387.9L643 390.9L628.5 393.1L614 395.2L599.5 398.6L585 402.2L570.5 406.2L556 408.6L541.4 410.4L526.9 412.7L512.4 414.4L497.9 417.1L483.4 418.8L468.9 421.2L454.4 423.6L439.9 425L425.4 426.7L410.9 427.2L396.4 428.4L381.9 429.9L367.4 431.2L352.9 432.2L338.4 433.9L323.9 435.5L309.4 436.6L294.9 438L280.4 439.4L265.9 440.7L251.3 442.7L236.8 444.2L222.3 446.2L207.8 448.2L193.3 450.5L178.8 452.8L164.3 454.6L149.8 456L135.3 457.9L120.8 459.5L106.3 461.2L91.8 462.3L77.3 463.2"
                    fill="#18470f"
                    fill-opacity="0.8"
                ></path>
                <path
                    id="Pancreatic"
                    class="Pancreatic-area"
                    stroke-linecap="round"
                    d="M77.3 446.3L91.8 445.5L106.3 444.3L120.8 442.4L135.3 440.7L149.8 438.6L164.3 437L178.8 434.9L193.3 432.2L207.8 429.5L222.3 427.1L236.8 424.5L251.3 422.5L265.9 419.9L280.4 418.1L294.9 415.9L309.4 414L323.9 412.4L338.4 410.3L352.9 407.9L367.4 406.4L381.9 404.7L396.4 402.7L410.9 401.2L425.4 400.6L439.9 398.1L454.4 396L468.9 392.7L483.4 389.3L497.9 387.1L512.4 383.7L526.9 381.5L541.4 378.4L556 376.2L570.5 372.9L585 367.6L599.5 362.9L614 358.4L628.5 355.9L643 353.6L657.5 349.9L672 342.2L686.5 335.9L701 331.9L701 354.5L686.5 357.9L672 363.2L657.5 370L643 373.1L628.5 375.1L614 377.2L599.5 381L585 385L570.5 389.5L556 392.4L541.4 394.4L526.9 397L512.4 398.9L497.9 401.8L483.4 403.7L468.9 406.6L454.4 409.4L439.9 411.1L425.4 413.2L410.9 413.5L396.4 414.8L381.9 416.4L367.4 417.9L352.9 419.1L338.4 421.2L323.9 423L309.4 424.4L294.9 426.1L280.4 428.1L265.9 429.8L251.3 432L236.8 433.8L222.3 436.1L207.8 438.2L193.3 440.6L178.8 443.1L164.3 444.9L149.8 446.3L135.3 448.1L120.8 449.6L106.3 451.3L91.8 452.3L77.3 453"
                    fill="#9a5129"
                    fill-opacity="0.8"
                ></path>
                <path
                    id="Esophageal"
                    class="Esophageal-area"
                    stroke-linecap="round"
                    d="M77.3 434.4L91.8 433.3L106.3 432L120.8 429.9L135.3 428L149.8 425.7L164.3 423.8L178.8 421.2L193.3 417.8L207.8 414.4L222.3 411.5L236.8 408.6L251.3 406.4L265.9 403.5L280.4 401.5L294.9 399.2L309.4 397.1L323.9 395.3L338.4 392.9L352.9 390.2L367.4 388.3L381.9 386.2L396.4 384.1L410.9 382.5L425.4 382L439.9 379.5L454.4 377.4L468.9 374L483.4 370.8L497.9 368.8L512.4 365.7L526.9 363.9L541.4 360.9L556 358.9L570.5 355.3L585 349.4L599.5 343.9L614 338.7L628.5 336L643 333.7L657.5 329.8L672 320.3L686.5 312.8L701 308.4L701 331.9L686.5 335.9L672 342.2L657.5 349.9L643 353.6L628.5 355.9L614 358.4L599.5 362.9L585 367.6L570.5 372.9L556 376.2L541.4 378.4L526.9 381.5L512.4 383.7L497.9 387.1L483.4 389.3L468.9 392.7L454.4 396L439.9 398.1L425.4 400.6L410.9 401.2L396.4 402.7L381.9 404.7L367.4 406.4L352.9 407.9L338.4 410.3L323.9 412.4L309.4 414L294.9 415.9L280.4 418.1L265.9 419.9L251.3 422.5L236.8 424.5L222.3 427.1L207.8 429.5L193.3 432.2L178.8 434.9L164.3 437L149.8 438.6L135.3 440.7L120.8 442.4L106.3 444.3L91.8 445.5L77.3 446.3"
                    fill="#e56e5a"
                    fill-opacity="0.8"
                ></path>
                <path
                    id="Breast"
                    class="Breast-area"
                    stroke-linecap="round"
                    d="M77.3 422.7L91.8 421.4L106.3 419.8L120.8 417.4L135.3 415.2L149.8 412.4L164.3 410.2L178.8 407.3L193.3 403.5L207.8 399.7L222.3 396.4L236.8 393.1L251.3 390.6L265.9 387.4L280.4 385.1L294.9 382.5L309.4 380.1L323.9 378.1L338.4 375.4L352.9 372.2L367.4 370L381.9 367.7L396.4 365.3L410.9 363.4L425.4 362.8L439.9 360.1L454.4 357.7L468.9 353.8L483.4 350.2L497.9 347.8L512.4 344.1L526.9 341.9L541.4 338.5L556 335.9L570.5 331.8L585 325L599.5 318.8L614 312.8L628.5 309.4L643 306.5L657.5 301.9L672 291.1L686.5 282L701 276.5L701 308.4L686.5 312.8L672 320.3L657.5 329.8L643 333.7L628.5 336L614 338.7L599.5 343.9L585 349.4L570.5 355.3L556 358.9L541.4 360.9L526.9 363.9L512.4 365.7L497.9 368.8L483.4 370.8L468.9 374L454.4 377.4L439.9 379.5L425.4 382L410.9 382.5L396.4 384.1L381.9 386.2L367.4 388.3L352.9 390.2L338.4 392.9L323.9 395.3L309.4 397.1L294.9 399.2L280.4 401.5L265.9 403.5L251.3 406.4L236.8 408.6L222.3 411.5L207.8 414.4L193.3 417.8L178.8 421.2L164.3 423.8L149.8 425.7L135.3 428L120.8 429.9L106.3 432L91.8 433.3L77.3 434.4"
                    fill="#a2559c"
                    fill-opacity="0.8"
                ></path>
                <path
                    id="Stomach"
                    class="Stomach-area"
                    stroke-linecap="round"
                    d="M77.3 389.9L91.8 388.4L106.3 386.6L120.8 383.7L135.3 381.3L149.8 378.6L164.3 376.2L178.8 372.7L193.3 367.8L207.8 363.2L222.3 359.2L236.8 355.5L251.3 352.9L265.9 349.4L280.4 347.2L294.9 344.7L309.4 342.3L323.9 340.2L338.4 337.3L352.9 333.8L367.4 331.5L381.9 329.1L396.4 326.6L410.9 324.8L425.4 324.7L439.9 322.3L454.4 320.3L468.9 316.3L483.4 313L497.9 311.1L512.4 307.8L526.9 306.4L541.4 303.3L556 301.4L570.5 297.4L585 290L599.5 283L614 276.6L628.5 273.7L643 271.6L657.5 267.2L672 254.5L686.5 244L701 238.3L701 276.5L686.5 282L672 291.1L657.5 301.9L643 306.5L628.5 309.4L614 312.8L599.5 318.8L585 325L570.5 331.8L556 335.9L541.4 338.5L526.9 341.9L512.4 344.1L497.9 347.8L483.4 350.2L468.9 353.8L454.4 357.7L439.9 360.1L425.4 362.8L410.9 363.4L396.4 365.3L381.9 367.7L367.4 370L352.9 372.2L338.4 375.4L323.9 378.1L309.4 380.1L294.9 382.5L280.4 385.1L265.9 387.4L251.3 390.6L236.8 393.1L222.3 396.4L207.8 399.7L193.3 403.5L178.8 407.3L164.3 410.2L149.8 412.4L135.3 415.2L120.8 417.4L106.3 419.8L91.8 421.4L77.3 422.7"
                    fill="#38aaba"
                    fill-opacity="0.8"
                ></path>
                <path
                    id="Colon-and-rectum"
                    class="Colon-and-rectum-area"
                    stroke-linecap="round"
                    d="M77.3 371.7L91.8 369.9L106.3 367.8L120.8 364.4L135.3 361.5L149.8 358.1L164.3 355.1L178.8 351.1L193.3 345.5L207.8 340.1L222.3 335.4L236.8 331.1L251.3 327.9L265.9 323.8L280.4 321.2L294.9 318.2L309.4 315.5L323.9 313L338.4 309.6L352.9 305.4L367.4 302.7L381.9 299.9L396.4 296.9L410.9 294.6L425.4 294.4L439.9 291.5L454.4 288.9L468.9 284.2L483.4 280.2L497.9 277.9L512.4 273.9L526.9 272.1L541.4 268.2L556 266L570.5 261.5L585 252.9L599.5 244.8L614 237.5L628.5 234.2L643 231.7L657.5 226.7L672 212.2L686.5 199.6L701 193.1L701 238.3L686.5 244L672 254.5L657.5 267.2L643 271.6L628.5 273.7L614 276.6L599.5 283L585 290L570.5 297.4L556 301.4L541.4 303.3L526.9 306.4L512.4 307.8L497.9 311.1L483.4 313L468.9 316.3L454.4 320.3L439.9 322.3L425.4 324.7L410.9 324.8L396.4 326.6L381.9 329.1L367.4 331.5L352.9 333.8L338.4 337.3L323.9 340.2L309.4 342.3L294.9 344.7L280.4 347.2L265.9 349.4L251.3 352.9L236.8 355.5L222.3 359.2L207.8 363.2L193.3 367.8L178.8 372.7L164.3 376.2L149.8 378.6L135.3 381.3L120.8 383.7L106.3 386.6L91.8 388.4L77.3 389.9"
                    fill="#578145"
                    fill-opacity="0.8"
                ></path>
                <path
                    id="Lung,-trachea-and-bronchus"
                    class="Lung__002c-trachea-and-bronchus-area"
                    stroke-linecap="round"
                    d="M77.3 339L91.8 336.5L106.3 333.5L120.8 329.1L135.3 325.3L149.8 320.2L164.3 316.5L178.8 311.2L193.3 304L207.8 297.4L222.3 290.7L236.8 285.4L251.3 281.3L265.9 276L280.4 273L294.9 268.7L309.4 265.4L323.9 262.4L338.4 258L352.9 252.6L367.4 248.7L381.9 245L396.4 241.1L410.9 238L425.4 237.2L439.9 233.3L454.4 229.5L468.9 223.1L483.4 217.9L497.9 214.8L512.4 210.4L526.9 207.4L541.4 202.7L556 199.2L570.5 193.3L585 183.1L599.5 172.8L614 163.4L628.5 159.9L643 158.2L657.5 152.8L672 133.6L686.5 117L701 110L701 193.1L686.5 199.6L672 212.2L657.5 226.7L643 231.7L628.5 234.2L614 237.5L599.5 244.8L585 252.9L570.5 261.5L556 266L541.4 268.2L526.9 272.1L512.4 273.9L497.9 277.9L483.4 280.2L468.9 284.2L454.4 288.9L439.9 291.5L425.4 294.4L410.9 294.6L396.4 296.9L381.9 299.9L367.4 302.7L352.9 305.4L338.4 309.6L323.9 313L309.4 315.5L294.9 318.2L280.4 321.2L265.9 323.8L251.3 327.9L236.8 331.1L222.3 335.4L207.8 340.1L193.3 345.5L178.8 351.1L164.3 355.1L149.8 358.1L135.3 361.5L120.8 364.4L106.3 367.8L91.8 369.9L77.3 371.7"
                    fill="#970046"
                    fill-opacity="0.8"
                ></path>
            </g>
            <g id="borders">
                <path
                    id="Other-cancers"
                    class="Other-cancers-border"
                    stroke-linecap="round"
                    d="M77.3 503L91.8 502.6L106.3 502.1L120.8 501.3L135.3 500.6L149.8 499.8L164.3 499.2L178.8 498.5L193.3 497.5L207.8 496.5L222.3 495.7L236.8 494.8L251.3 494.1L265.9 493.3L280.4 492.7L294.9 492.2L309.4 491.7L323.9 491.3L338.4 490.7L352.9 490L367.4 489.7L381.9 489.2L396.4 488.6L410.9 488L425.4 487.8L439.9 486.9L454.4 486.2L468.9 485L483.4 483.9L497.9 483.1L512.4 481.8L526.9 481L541.4 479.9L556 479.1L570.5 478.1L585 476.4L599.5 474.8L614 473.3L628.5 472.4L643 471.5L657.5 470.3L672 467.6L686.5 465.8L701 464.7"
                    stroke="rgb(91, 52, 121)"
                    stroke-opacity="0.7"
                    stroke-width="0.5"
                    fill="none"
                ></path>
                <path
                    id="Lip-and-oral-cavity"
                    class="Lip-and-oral-cavity-border"
                    stroke-linecap="round"
                    d="M77.3 499.9L91.8 499.5L106.3 498.9L120.8 498.1L135.3 497.3L149.8 496.3L164.3 495.7L178.8 494.9L193.3 493.7L207.8 492.7L222.3 491.7L236.8 490.7L251.3 490L265.9 489L280.4 488.4L294.9 487.8L309.4 487.2L323.9 486.7L338.4 486L352.9 485.2L367.4 484.8L381.9 484.2L396.4 483.4L410.9 482.8L425.4 482.5L439.9 481.5L454.4 480.7L468.9 479.3L483.4 478L497.9 477L512.4 475.5L526.9 474.5L541.4 473.3L556 472.4L570.5 471.3L585 469.3L599.5 467.5L614 465.7L628.5 464.6L643 463.6L657.5 462.1L672 458.7L686.5 456.9L701 455.5"
                    stroke="rgb(161, 74, 19)"
                    stroke-opacity="0.7"
                    stroke-width="0.5"
                    fill="none"
                ></path>
                <path
                    id="Bladder"
                    class="Bladder-border"
                    stroke-linecap="round"
                    d="M77.3 496L91.8 495.5L106.3 494.9L120.8 493.9L135.3 493L149.8 492L164.3 491.3L178.8 490.3L193.3 489L207.8 487.8L222.3 486.7L236.8 485.6L251.3 484.7L265.9 483.6L280.4 483L294.9 482.3L309.4 481.6L323.9 481L338.4 480.2L352.9 479.3L367.4 478.8L381.9 478.1L396.4 477.3L410.9 476.5L425.4 476.3L439.9 475.2L454.4 474.3L468.9 472.7L483.4 471.3L497.9 470.2L512.4 468.6L526.9 467.5L541.4 466.1L556 465.1L570.5 463.8L585 461.5L599.5 459.5L614 457.4L628.5 456.3L643 455.2L657.5 453.5L672 449.8L686.5 447.5L701 446"
                    stroke="rgb(74, 144, 117)"
                    stroke-opacity="0.7"
                    stroke-width="0.5"
                    fill="none"
                ></path>
                <path
                    id="Brain-and-central-nervous-system"
                    class="Brain-and-central-nervous-system-border"
                    stroke-linecap="round"
                    d="M77.3 491.3L91.8 490.7L106.3 490L120.8 489L135.3 488L149.8 486.8L164.3 486L178.8 484.9L193.3 483.5L207.8 482.1L222.3 480.8L236.8 479.6L251.3 478.6L265.9 477.4L280.4 476.6L294.9 475.7L309.4 475L323.9 474.3L338.4 473.4L352.9 472.3L367.4 471.6L381.9 470.8L396.4 469.8L410.9 469L425.4 468.7L439.9 467.3L454.4 466.4L468.9 464.7L483.4 463.1L497.9 461.9L512.4 460.1L526.9 458.9L541.4 457.3L556 456.2L570.5 454.7L585 452.2L599.5 449.9L614 447.6L628.5 446.3L643 445L657.5 443.1L672 439.1L686.5 436.6L701 435.2"
                    stroke="rgb(33, 90, 156)"
                    stroke-opacity="0.7"
                    stroke-width="0.5"
                    fill="none"
                ></path>
                <path
                    id="Non-hodgkin-lymphoma"
                    class="Non-hodgkin-lymphoma-border"
                    stroke-linecap="round"
                    d="M77.3 487L91.8 486.3L106.3 485.5L120.8 484.3L135.3 483.1L149.8 481.8L164.3 480.8L178.8 479.5L193.3 477.8L207.8 476.2L222.3 474.8L236.8 473.3L251.3 472.2L265.9 470.7L280.4 469.7L294.9 468.7L309.4 467.7L323.9 466.9L338.4 465.9L352.9 464.7L367.4 463.9L381.9 463.1L396.4 462.1L410.9 461.2L425.4 460.8L439.9 459.4L454.4 458.4L468.9 456.5L483.4 454.7L497.9 453.3L512.4 451.3L526.9 449.9L541.4 448.2L556 446.9L570.5 445.2L585 442.4L599.5 439.8L614 437.3L628.5 435.8L643 434.3L657.5 432.2L672 428L686.5 425.2L701 423.6"
                    stroke="rgb(114, 40, 48)"
                    stroke-opacity="0.7"
                    stroke-width="0.5"
                    fill="none"
                ></path>
                <path
                    id="Cervical"
                    class="Cervical-border"
                    stroke-linecap="round"
                    d="M77.3 479L91.8 478.3L106.3 477.4L120.8 476.2L135.3 474.9L149.8 473.5L164.3 472.5L178.8 471.1L193.3 469.3L207.8 467.6L222.3 466L236.8 464.4L251.3 463.2L265.9 461.8L280.4 460.7L294.9 459.6L309.4 458.6L323.9 457.6L338.4 456.4L352.9 455.1L367.4 454.3L381.9 453.4L396.4 452.2L410.9 451.2L425.4 450.9L439.9 449.4L454.4 448.2L468.9 446.2L483.4 444.2L497.9 442.7L512.4 440.5L526.9 439L541.4 437.1L556 435.6L570.5 433.5L585 430.3L599.5 427.4L614 424.7L628.5 423L643 421.4L657.5 419.2L672 414.1L686.5 410.6L701 408.5"
                    stroke="rgb(157, 119, 75)"
                    stroke-opacity="0.7"
                    stroke-width="0.5"
                    fill="none"
                ></path>
                <path
                    id="Leukemia"
                    class="Leukemia-border"
                    stroke-linecap="round"
                    d="M77.3 469.4L91.8 468.6L106.3 467.7L120.8 466.3L135.3 464.9L149.8 463.3L164.3 462.2L178.8 460.6L193.3 458.6L207.8 456.7L222.3 455L236.8 453.3L251.3 452L265.9 450.4L280.4 449.3L294.9 448.1L309.4 447L323.9 446L338.4 444.7L352.9 443.3L367.4 442.4L381.9 441.4L396.4 440.2L410.9 439.1L425.4 438.8L439.9 437.3L454.4 436.2L468.9 434.1L483.4 432L497.9 430.4L512.4 428.2L526.9 426.6L541.4 424.6L556 423.1L570.5 420.9L585 417.5L599.5 414.4L614 411.5L628.5 409.7L643 407.9L657.5 405.5L672 400.2L686.5 396.6L701 394.6"
                    stroke="rgb(0, 34, 76)"
                    stroke-opacity="0.7"
                    stroke-width="0.5"
                    fill="none"
                ></path>
                <path
                    id="Prostate"
                    class="Prostate-border"
                    stroke-linecap="round"
                    d="M77.3 463.2L91.8 462.3L106.3 461.2L120.8 459.5L135.3 457.9L149.8 456L164.3 454.6L178.8 452.8L193.3 450.5L207.8 448.2L222.3 446.2L236.8 444.2L251.3 442.7L265.9 440.7L280.4 439.4L294.9 438L309.4 436.6L323.9 435.5L338.4 433.9L352.9 432.2L367.4 431.2L381.9 429.9L396.4 428.4L410.9 427.2L425.4 426.7L439.9 425L454.4 423.6L468.9 421.2L483.4 418.8L497.9 417.1L512.4 414.4L526.9 412.7L541.4 410.4L556 408.6L570.5 406.2L585 402.2L599.5 398.6L614 395.2L628.5 393.1L643 390.9L657.5 387.9L672 382L686.5 377.8L701 375.2"
                    stroke="rgb(161, 67, 85)"
                    stroke-opacity="0.7"
                    stroke-width="0.5"
                    fill="none"
                ></path>
                <path
                    id="Liver"
                    class="Liver-border"
                    stroke-linecap="round"
                    d="M77.3 453L91.8 452.3L106.3 451.3L120.8 449.6L135.3 448.1L149.8 446.3L164.3 444.9L178.8 443.1L193.3 440.6L207.8 438.2L222.3 436.1L236.8 433.8L251.3 432L265.9 429.8L280.4 428.1L294.9 426.1L309.4 424.4L323.9 423L338.4 421.2L352.9 419.1L367.4 417.9L381.9 416.4L396.4 414.8L410.9 413.5L425.4 413.2L439.9 411.1L454.4 409.4L468.9 406.6L483.4 403.7L497.9 401.8L512.4 398.9L526.9 397L541.4 394.4L556 392.4L570.5 389.5L585 385L599.5 381L614 377.2L628.5 375.1L643 373.1L657.5 370L672 363.2L686.5 357.9L701 354.5"
                    stroke="rgb(20, 59, 13)"
                    stroke-opacity="0.7"
                    stroke-width="0.5"
                    fill="none"
                ></path>
                <path
                    id="Pancreatic"
                    class="Pancreatic-border"
                    stroke-linecap="round"
                    d="M77.3 446.3L91.8 445.5L106.3 444.3L120.8 442.4L135.3 440.7L149.8 438.6L164.3 437L178.8 434.9L193.3 432.2L207.8 429.5L222.3 427.1L236.8 424.5L251.3 422.5L265.9 419.9L280.4 418.1L294.9 415.9L309.4 414L323.9 412.4L338.4 410.3L352.9 407.9L367.4 406.4L381.9 404.7L396.4 402.7L410.9 401.2L425.4 400.6L439.9 398.1L454.4 396L468.9 392.7L483.4 389.3L497.9 387.1L512.4 383.7L526.9 381.5L541.4 378.4L556 376.2L570.5 372.9L585 367.6L599.5 362.9L614 358.4L628.5 355.9L643 353.6L657.5 349.9L672 342.2L686.5 335.9L701 331.9"
                    stroke="rgb(129, 68, 34)"
                    stroke-opacity="0.7"
                    stroke-width="0.5"
                    fill="none"
                ></path>
                <path
                    id="Esophageal"
                    class="Esophageal-border"
                    stroke-linecap="round"
                    d="M77.3 434.4L91.8 433.3L106.3 432L120.8 429.9L135.3 428L149.8 425.7L164.3 423.8L178.8 421.2L193.3 417.8L207.8 414.4L222.3 411.5L236.8 408.6L251.3 406.4L265.9 403.5L280.4 401.5L294.9 399.2L309.4 397.1L323.9 395.3L338.4 392.9L352.9 390.2L367.4 388.3L381.9 386.2L396.4 384.1L410.9 382.5L425.4 382L439.9 379.5L454.4 377.4L468.9 374L483.4 370.8L497.9 368.8L512.4 365.7L526.9 363.9L541.4 360.9L556 358.9L570.5 355.3L585 349.4L599.5 343.9L614 338.7L628.5 336L643 333.7L657.5 329.8L672 320.3L686.5 312.8L701 308.4"
                    stroke="rgb(192, 92, 75)"
                    stroke-opacity="0.7"
                    stroke-width="0.5"
                    fill="none"
                ></path>
                <path
                    id="Breast"
                    class="Breast-border"
                    stroke-linecap="round"
                    d="M77.3 422.7L91.8 421.4L106.3 419.8L120.8 417.4L135.3 415.2L149.8 412.4L164.3 410.2L178.8 407.3L193.3 403.5L207.8 399.7L222.3 396.4L236.8 393.1L251.3 390.6L265.9 387.4L280.4 385.1L294.9 382.5L309.4 380.1L323.9 378.1L338.4 375.4L352.9 372.2L367.4 370L381.9 367.7L396.4 365.3L410.9 363.4L425.4 362.8L439.9 360.1L454.4 357.7L468.9 353.8L483.4 350.2L497.9 347.8L512.4 344.1L526.9 341.9L541.4 338.5L556 335.9L570.5 331.8L585 325L599.5 318.8L614 312.8L628.5 309.4L643 306.5L657.5 301.9L672 291.1L686.5 282L701 276.5"
                    stroke="rgb(136, 71, 131)"
                    stroke-opacity="0.7"
                    stroke-width="0.5"
                    fill="none"
                ></path>
                <path
                    id="Stomach"
                    class="Stomach-border"
                    stroke-linecap="round"
                    d="M77.3 389.9L91.8 388.4L106.3 386.6L120.8 383.7L135.3 381.3L149.8 378.6L164.3 376.2L178.8 372.7L193.3 367.8L207.8 363.2L222.3 359.2L236.8 355.5L251.3 352.9L265.9 349.4L280.4 347.2L294.9 344.7L309.4 342.3L323.9 340.2L338.4 337.3L352.9 333.8L367.4 331.5L381.9 329.1L396.4 326.6L410.9 324.8L425.4 324.7L439.9 322.3L454.4 320.3L468.9 316.3L483.4 313L497.9 311.1L512.4 307.8L526.9 306.4L541.4 303.3L556 301.4L570.5 297.4L585 290L599.5 283L614 276.6L628.5 273.7L643 271.6L657.5 267.2L672 254.5L686.5 244L701 238.3"
                    stroke="rgb(47, 142, 156)"
                    stroke-opacity="0.7"
                    stroke-width="0.5"
                    fill="none"
                ></path>
                <path
                    id="Colon-and-rectum"
                    class="Colon-and-rectum-border"
                    stroke-linecap="round"
                    d="M77.3 371.7L91.8 369.9L106.3 367.8L120.8 364.4L135.3 361.5L149.8 358.1L164.3 355.1L178.8 351.1L193.3 345.5L207.8 340.1L222.3 335.4L236.8 331.1L251.3 327.9L265.9 323.8L280.4 321.2L294.9 318.2L309.4 315.5L323.9 313L338.4 309.6L352.9 305.4L367.4 302.7L381.9 299.9L396.4 296.9L410.9 294.6L425.4 294.4L439.9 291.5L454.4 288.9L468.9 284.2L483.4 280.2L497.9 277.9L512.4 273.9L526.9 272.1L541.4 268.2L556 266L570.5 261.5L585 252.9L599.5 244.8L614 237.5L628.5 234.2L643 231.7L657.5 226.7L672 212.2L686.5 199.6L701 193.1"
                    stroke="rgb(73, 108, 58)"
                    stroke-opacity="0.7"
                    stroke-width="0.5"
                    fill="none"
                ></path>
                <path
                    id="Lung,-trachea-and-bronchus"
                    class="Lung__002c-trachea-and-bronchus-border"
                    stroke-linecap="round"
                    d="M77.3 339L91.8 336.5L106.3 333.5L120.8 329.1L135.3 325.3L149.8 320.2L164.3 316.5L178.8 311.2L193.3 304L207.8 297.4L222.3 290.7L236.8 285.4L251.3 281.3L265.9 276L280.4 273L294.9 268.7L309.4 265.4L323.9 262.4L338.4 258L352.9 252.6L367.4 248.7L381.9 245L396.4 241.1L410.9 238L425.4 237.2L439.9 233.3L454.4 229.5L468.9 223.1L483.4 217.9L497.9 214.8L512.4 210.4L526.9 207.4L541.4 202.7L556 199.2L570.5 193.3L585 183.1L599.5 172.8L614 163.4L628.5 159.9L643 158.2L657.5 152.8L672 133.6L686.5 117L701 110"
                    stroke="rgb(126, 0, 59)"
                    stroke-opacity="0.7"
                    stroke-width="0.5"
                    fill="none"
                ></path>
            </g>
        </g>
    </g>
    <g id="footer" class="SourcesFooter" style="fill: #767676">
        <g id="sources" class="markdown-text-wrap">
            <text x="16.0" y="581.0" style="font-size: 13px; line-height: 1.2">
                <tspan x="16" y="581.0">
                    <tspan style="font-weight: 700">Data source:</tspan>
                    IHME, Global Burden of Disease (2025)
                </tspan>
            </text>
        </g>
        <text id="origin-url" font-size="13.00" x="624.7" y="581.0">
            <tspan x="624.7" y="581.01">
                <a
                    style="fill: #767676"
                    href="https://ourworldindata.org/cancer"
                >
                    OurWorldinData.org/cancer
                </a>
                |
                <a
                    style="fill: #767676"
                    href="https://creativecommons.org/licenses/by/4.0/"
                >
                    CC BY
                </a>
            </tspan>
        </text>
    </g>
</svg>
