<svg
    xmlns="http://www.w3.org/2000/svg"
    version="1.1"
    style='font-family:Lato, &#x27;Helvetica Neue&#x27;, Helvetica, Arial, &#x27;Liberation Sans&#x27;, sans-serif;font-feature-settings:"liga", "kern", "calt", "lnum";text-rendering:geometricPrecision;-webkit-font-smoothing:antialiased;font-size:18px;background-color:#ffffff'
    width="850"
    height="600"
    viewBox="0 0 850 600"
>
    <defs>
        <style>
            @import url(https://ourworldindata.org/fonts.css);
        </style>
    </defs>
    <defs>
        <pattern
            id="noDataPattern"
            patternUnits="userSpaceOnUse"
            width="4"
            height="4"
            patternTransform="rotate(-45 2 2)"
        >
            <path d="M -1,2 l 6,0" stroke="#ccc" stroke-width="0.7"></path>
        </pattern>
    </defs>
    <g id="header" class="HeaderView">
        <g id="logo" transform="translate(769, 16) scale(1)">
            <svg
                className="owidLogo"
                xmlns="http://www.w3.org/2000/svg"
                width="65"
                height="36"
                viewBox="0 0 65 36"
                fill="none"
            >
                <path fill="#002147" d="M0 0h64.8v36H0z" />
                <path fill="#CE261E" d="M0 33.3h64.8V36H0z" />
                <path
                    fill="#fff"
                    d="M13.796 10.575c0 .636-.106 1.226-.318 1.77a4.193 4.193 0 0 1-.894 1.404 4.084 4.084 0 0 1-1.386.93c-.54.22-1.138.33-1.794.33-.656 0-1.256-.11-1.8-.33a4.149 4.149 0 0 1-1.392-.93 4.193 4.193 0 0 1-.894-1.404A4.833 4.833 0 0 1 5 10.575c0-.636.106-1.224.318-1.764a4.18 4.18 0 0 1 .894-1.41 4.076 4.076 0 0 1 1.392-.924 4.684 4.684 0 0 1 1.8-.336c.656 0 1.254.112 1.794.336.54.224 1.002.534 1.386.93.384.392.682.86.894 1.404.212.54.318 1.128.318 1.764Zm-1.656 0c0-.476-.064-.902-.192-1.278a2.671 2.671 0 0 0-.54-.966 2.332 2.332 0 0 0-.864-.606 2.94 2.94 0 0 0-1.14-.21c-.424 0-.806.07-1.146.21-.34.14-.63.342-.87.606a2.742 2.742 0 0 0-.546.966 3.955 3.955 0 0 0-.192 1.278c0 .476.064.904.192 1.284.128.376.31.696.546.96.24.26.53.46.87.6.34.14.722.21 1.146.21.424 0 .804-.07 1.14-.21.34-.14.628-.34.864-.6.236-.264.416-.584.54-.96a4.01 4.01 0 0 0 .192-1.284ZM16.104 8.757v3.912c0 .376.086.668.258.876.176.204.438.306.786.306.256 0 .496-.056.72-.168a2.58 2.58 0 0 0 .636-.474V8.757h1.482v6.156h-.906c-.192 0-.318-.09-.378-.27l-.102-.492a4.65 4.65 0 0 1-.396.354 2.577 2.577 0 0 1-.438.27 2.35 2.35 0 0 1-.498.168 2.345 2.345 0 0 1-.57.066c-.336 0-.634-.056-.894-.168a1.821 1.821 0 0 1-.648-.486 2.157 2.157 0 0 1-.402-.738 3.233 3.233 0 0 1-.132-.948V8.757h1.482ZM21.328 14.913V8.757h.87c.152 0 .258.028.318.084.06.056.1.152.12.288l.09.744c.22-.38.478-.68.774-.9.296-.22.628-.33.996-.33.304 0 .556.07.756.21l-.192 1.11c-.012.072-.038.124-.078.156a.278.278 0 0 1-.162.042 1.01 1.01 0 0 1-.246-.042 1.646 1.646 0 0 0-.414-.042c-.308 0-.572.086-.792.258-.22.168-.406.416-.558.744v3.834h-1.482ZM27.347 6.237h1.356a.57.57 0 0 1 .348.102c.096.064.16.152.192.264l1.476 5.19c.036.128.068.268.096.42.032.148.062.306.09.474a5.968 5.968 0 0 1 .228-.894l1.704-5.19a.575.575 0 0 1 .186-.252.543.543 0 0 1 .348-.114h.474a.57.57 0 0 1 .348.102.497.497 0 0 1 .192.264l1.692 5.19c.088.256.164.54.228.852.028-.156.056-.306.084-.45.032-.144.064-.278.096-.402l1.476-5.19c.028-.1.09-.186.186-.258a.563.563 0 0 1 .348-.108h1.266l-2.694 8.676h-1.458l-1.896-5.928-.078-.246a9.504 9.504 0 0 1-.072-.282c-.024.1-.05.194-.078.282-.024.088-.048.17-.072.246l-1.914 5.928H30.04l-2.694-8.676ZM42.771 8.661c.46 0 .876.074 1.248.222.376.148.696.358.96.63s.468.604.612.996c.144.392.216.83.216 1.314 0 .488-.072.928-.216 1.32a2.85 2.85 0 0 1-.612 1.002 2.653 2.653 0 0 1-.96.636 3.35 3.35 0 0 1-1.248.222c-.46 0-.878-.074-1.254-.222a2.712 2.712 0 0 1-.966-.636 2.922 2.922 0 0 1-.618-1.002 3.807 3.807 0 0 1-.216-1.32c0-.484.072-.922.216-1.314.148-.392.354-.724.618-.996.268-.272.59-.482.966-.63a3.397 3.397 0 0 1 1.254-.222Zm0 5.202c.512 0 .89-.172 1.134-.516.248-.344.372-.848.372-1.512s-.124-1.17-.372-1.518c-.244-.348-.622-.522-1.134-.522-.52 0-.904.176-1.152.528-.248.348-.372.852-.372 1.512s.124 1.164.372 1.512c.248.344.632.516 1.152.516ZM46.723 14.913V8.757h.87c.152 0 .258.028.318.084.06.056.1.152.12.288l.09.744c.22-.38.478-.68.774-.9.296-.22.628-.33.996-.33.304 0 .556.07.756.21l-.192 1.11c-.012.072-.038.124-.078.156a.278.278 0 0 1-.162.042 1.01 1.01 0 0 1-.246-.042 1.646 1.646 0 0 0-.414-.042c-.308 0-.572.086-.792.258-.22.168-.406.416-.558.744v3.834h-1.482ZM52.96 5.997v8.916h-1.482V5.997h1.482ZM58.732 14.913c-.192 0-.318-.09-.378-.27l-.12-.594a3.68 3.68 0 0 1-.402.39c-.14.116-.292.216-.456.3-.16.084-.334.148-.522.192a2.372 2.372 0 0 1-.6.072c-.336 0-.644-.07-.924-.21a2.098 2.098 0 0 1-.726-.606 3.033 3.033 0 0 1-.468-.99 5.072 5.072 0 0 1-.162-1.344c0-.456.062-.88.186-1.272s.302-.732.534-1.02c.232-.288.51-.512.834-.672a2.384 2.384 0 0 1 1.092-.246 2.103 2.103 0 0 1 1.536.606V5.997h1.482v8.916h-.906Zm-1.974-1.086c.308 0 .57-.064.786-.192.216-.128.42-.31.612-.546v-2.76a1.452 1.452 0 0 0-.552-.432 1.597 1.597 0 0 0-.636-.126c-.224 0-.428.042-.612.126a1.21 1.21 0 0 0-.462.384c-.124.168-.22.384-.288.648-.068.26-.102.568-.102.924 0 .36.028.666.084.918.06.248.144.452.252.612.108.156.24.27.396.342.156.068.33.102.522.102ZM16.331 20.757v6.156H14.85v-6.156h1.481Zm.223-1.794a.844.844 0 0 1-.078.36.963.963 0 0 1-.21.294.995.995 0 0 1-.3.204.963.963 0 0 1-.372.072.948.948 0 0 1-.367-.072 1.018 1.018 0 0 1-.498-.498.963.963 0 0 1 0-.732.995.995 0 0 1 .205-.3.929.929 0 0 1 .293-.198.899.899 0 0 1 .738 0 .912.912 0 0 1 .3.198.943.943 0 0 1 .288.672ZM17.771 26.913v-6.156h.906c.192 0 .318.09.378.27l.102.486a2.934 2.934 0 0 1 .828-.618c.156-.076.322-.134.498-.174.176-.04.368-.06.576-.06.336 0 .634.058.894.174.26.112.476.272.648.48.176.204.308.45.396.738.092.284.138.598.138.942v3.918h-1.482v-3.918c0-.376-.088-.666-.264-.87-.172-.208-.432-.312-.78-.312-.256 0-.496.058-.72.174a2.58 2.58 0 0 0-.636.474v4.452h-1.482ZM34.22 22.575c0 .636-.106 1.22-.318 1.752-.212.532-.51.99-.894 1.374a4 4 0 0 1-1.386.894 4.87 4.87 0 0 1-1.794.318h-3.312v-8.676h3.312a4.79 4.79 0 0 1 1.794.324 4 4 0 0 1 1.386.894c.384.38.682.836.894 1.368.212.532.318 1.116.318 1.752Zm-1.65 0c0-.476-.064-.902-.192-1.278a2.68 2.68 0 0 0-.546-.96 2.332 2.332 0 0 0-.864-.606 2.94 2.94 0 0 0-1.14-.21h-1.686v6.108h1.686c.424 0 .804-.07 1.14-.21.34-.14.628-.34.864-.6a2.75 2.75 0 0 0 .546-.96 4.01 4.01 0 0 0 .192-1.284ZM39.98 26.913h-.665c-.14 0-.25-.02-.33-.06-.08-.044-.14-.13-.18-.258l-.132-.438c-.156.14-.31.264-.462.372a2.804 2.804 0 0 1-.462.264c-.16.072-.33.126-.51.162-.18.036-.38.054-.6.054-.26 0-.5-.034-.72-.102a1.618 1.618 0 0 1-.57-.318 1.448 1.448 0 0 1-.366-.522 1.852 1.852 0 0 1-.132-.726c0-.232.06-.46.18-.684.124-.228.328-.432.612-.612.284-.184.662-.336 1.134-.456.472-.12 1.058-.188 1.758-.204v-.36c0-.412-.088-.716-.264-.912-.172-.2-.424-.3-.756-.3a1.837 1.837 0 0 0-1.02.276c-.116.068-.224.13-.324.186a.664.664 0 0 1-.33.084.429.429 0 0 1-.258-.078.614.614 0 0 1-.174-.192l-.27-.474c.708-.648 1.562-.972 2.562-.972.36 0 .68.06.96.18.284.116.524.28.72.492.196.208.344.458.444.75.104.292.156.612.156.96v3.888Zm-2.88-.924c.153 0 .293-.014.42-.042.129-.028.249-.07.36-.126.117-.056.227-.124.33-.204.109-.084.217-.182.325-.294v-1.038c-.432.02-.794.058-1.086.114-.288.052-.52.12-.696.204a.923.923 0 0 0-.378.294.664.664 0 0 0-.108.366c0 .26.076.446.228.558.156.112.358.168.606.168ZM43.22 27.01c-.532 0-.942-.15-1.23-.45-.288-.305-.432-.723-.432-1.255v-3.438h-.624a.31.31 0 0 1-.21-.078c-.056-.052-.084-.13-.084-.234v-.588l.99-.162.312-1.68a.302.302 0 0 1 .108-.186.365.365 0 0 1 .222-.066h.768v1.938h1.62v1.056h-1.62v3.336c0 .192.048.342.144.45a.488.488 0 0 0 .384.162c.092 0 .168-.01.228-.03.064-.024.118-.048.162-.072.048-.024.09-.046.126-.066a.194.194 0 0 1 .108-.036.16.16 0 0 1 .108.036c.028.02.058.052.09.096l.444.72c-.216.18-.464.316-.744.408a2.77 2.77 0 0 1-.87.138ZM50.423 26.913h-.666c-.14 0-.25-.02-.33-.06-.08-.044-.14-.13-.18-.258l-.132-.438c-.156.14-.31.264-.462.372a2.804 2.804 0 0 1-.462.264c-.16.072-.33.126-.51.162-.18.036-.38.054-.6.054-.26 0-.5-.034-.72-.102a1.618 1.618 0 0 1-.57-.318 1.448 1.448 0 0 1-.366-.522 1.852 1.852 0 0 1-.132-.726c0-.232.06-.46.18-.684.124-.228.328-.432.612-.612.284-.184.662-.336 1.134-.456.472-.12 1.058-.188 1.758-.204v-.36c0-.412-.088-.716-.264-.912-.172-.2-.424-.3-.756-.3a1.837 1.837 0 0 0-1.02.276c-.116.068-.224.13-.324.186a.664.664 0 0 1-.33.084.429.429 0 0 1-.258-.078.614.614 0 0 1-.174-.192l-.27-.474c.708-.648 1.562-.972 2.562-.972.36 0 .68.06.96.18.284.116.524.28.72.492.196.208.344.458.444.75.104.292.156.612.156.96v3.888Zm-2.88-.924c.152 0 .292-.014.42-.042.128-.028.248-.07.36-.126.116-.056.226-.124.33-.204.108-.084.216-.182.324-.294v-1.038c-.432.02-.794.058-1.086.114-.288.052-.52.12-.696.204a.923.923 0 0 0-.378.294.664.664 0 0 0-.108.366c0 .26.076.446.228.558.156.112.358.168.606.168Z"
                />
            </svg>
        </g>
        <a
            id="title"
            href="https://ourworldindata.org/grapher/monthly-co2-emissions-from-international-aviation"
            style="font-family:&#x27;Playfair Display&#x27;, Georgia, &#x27;Times New Roman&#x27;, &#x27;Liberation Serif&#x27;, serif"
        >
            <text
                font-size="25.00"
                font-weight="600"
                x="16.0"
                y="40.3"
                fill="#2d2e2d"
            >
                <tspan x="16" y="40.25">
                    Monthly CO₂ emissions from all commercial passenger flights
                </tspan>
            </text>
        </a>
        <g id="subtitle" class="markdown-text-wrap">
            <text
                x="16.0"
                y="66.5"
                style="font-size: 15px; line-height: 1.2"
                fill="#5b5b5b"
            >
                <tspan x="16" y="66.5">
                    Includes emissions from both domestic and international
                    aviation. Domestic aviation represents flights which
                </tspan>
                <tspan x="16" y="84.5">
                    depart and arrive within the same country. International
                    aviation emissions are assigned to the country of
                </tspan>
                <tspan x="16" y="102.5">departure.</tspan>
            </text>
        </g>
    </g>
    <g id="chart-area" style="pointer-events: none">
        <g id="categorical-color-legend" class="categoricalColorLegend">
            <g id="swatches">
                <rect
                    id="Europe"
                    x="16"
                    y="122"
                    width="13.5"
                    height="13.5"
                    style="fill: #4c6a9c; stroke-width: 0.4; opacity: 0.8"
                ></rect>
                <rect
                    id="North-America"
                    x="92.004"
                    y="122"
                    width="13.5"
                    height="13.5"
                    style="fill: #883039; stroke-width: 0.4; opacity: 0.8"
                ></rect>
                <rect
                    id="Asia"
                    x="215.81600000000003"
                    y="122"
                    width="13.5"
                    height="13.5"
                    style="fill: #578145; stroke-width: 0.4; opacity: 0.8"
                ></rect>
                <rect
                    id="South-America"
                    x="272.956"
                    y="122"
                    width="13.5"
                    height="13.5"
                    style="fill: #b13507; stroke-width: 0.4; opacity: 0.8"
                ></rect>
                <rect
                    id="Oceania"
                    x="396.48"
                    y="122"
                    width="13.5"
                    height="13.5"
                    style="fill: #b16214; stroke-width: 0.4; opacity: 0.8"
                ></rect>
                <rect
                    id="Africa"
                    x="478.96400000000006"
                    y="122"
                    width="13.5"
                    height="13.5"
                    style="fill: #970046; stroke-width: 0.4; opacity: 0.8"
                ></rect>
            </g>
            <g id="labels">
                <text
                    x="34.5"
                    y="128.75"
                    dy=".32em"
                    font-size="14.4"
                    style="fill: #5b5b5b; color: #5b5b5b"
                >
                    Europe
                </text>
                <text
                    x="110.504"
                    y="128.75"
                    dy=".32em"
                    font-size="14.4"
                    style="fill: #5b5b5b; color: #5b5b5b"
                >
                    North America
                </text>
                <text
                    x="234.31600000000003"
                    y="128.75"
                    dy=".32em"
                    font-size="14.4"
                    style="fill: #5b5b5b; color: #5b5b5b"
                >
                    Asia
                </text>
                <text
                    x="291.456"
                    y="128.75"
                    dy=".32em"
                    font-size="14.4"
                    style="fill: #5b5b5b; color: #5b5b5b"
                >
                    South America
                </text>
                <text
                    x="414.98"
                    y="128.75"
                    dy=".32em"
                    font-size="14.4"
                    style="fill: #5b5b5b; color: #5b5b5b"
                >
                    Oceania
                </text>
                <text
                    x="497.46400000000006"
                    y="128.75"
                    dy=".32em"
                    font-size="14.4"
                    style="fill: #5b5b5b; color: #5b5b5b"
                >
                    Africa
                </text>
            </g>
        </g>
        <text x="50.8" y="164.2" text-anchor="start" font-size="15.75">
            <tspan x="50.8" font-weight="700" fill="#5b5b5b">
                Monthly CO₂ emissions from international aviation
            </tspan>
        </text>
        <g id="Monthly-CO₂-emissions-from-international-aviation">
            <g id="horizontal-axis" class="HorizontalAxis">
                <g id="tick-marks">
                    <line
                        id="Jan-15,-2019"
                        x1="51.3"
                        y1="307.375"
                        x2="51.3"
                        y2="312.875"
                        stroke="#999"
                        stroke-width="1"
                    ></line>
                    <line
                        id="Dec-15,-2024"
                        x1="416.5"
                        y1="307.375"
                        x2="416.5"
                        y2="312.875"
                        stroke="#999"
                        stroke-width="1"
                    ></line>
                    <line
                        id="Jun-4,-2021"
                        x1="198.4"
                        y1="307.375"
                        x2="198.4"
                        y2="312.875"
                        stroke="#999"
                        stroke-width="1"
                    ></line>
                    <line
                        id="Oct-17,-2022"
                        x1="283.1"
                        y1="307.375"
                        x2="283.1"
                        y2="312.875"
                        stroke="#999"
                        stroke-width="1"
                    ></line>
                </g>
                <g id="tick-labels">
                    <text
                        x="50.81"
                        y="323.875"
                        fill="#5b5b5b"
                        text-anchor="start"
                        font-size="11"
                    >
                        Jan 15, 2019
                    </text>
                    <text
                        x="417"
                        y="323.875"
                        fill="#5b5b5b"
                        text-anchor="end"
                        font-size="11"
                    >
                        Dec 15, 2024
                    </text>
                    <text
                        x="198.4"
                        y="323.875"
                        fill="#5b5b5b"
                        text-anchor="middle"
                        font-size="11"
                    >
                        Jun 4, 2021
                    </text>
                    <text
                        x="283.1"
                        y="323.875"
                        fill="#5b5b5b"
                        text-anchor="middle"
                        font-size="11"
                    >
                        Oct 17, 2022
                    </text>
                </g>
            </g>
            <g id="vertical-axis" class="VerticalAxis">
                <g id="tick-labels">
                    <text
                        x="45.81"
                        y="307.9"
                        dy=".32em"
                        text-anchor="end"
                        fill="#5b5b5b"
                        font-size="11"
                    >
                        0 t
                    </text>
                    <text
                        x="45.81"
                        y="283"
                        dy=".32em"
                        text-anchor="end"
                        fill="#5b5b5b"
                        font-size="11"
                    >
                        10M t
                    </text>
                    <text
                        x="45.81"
                        y="258.2"
                        dy=".32em"
                        text-anchor="end"
                        fill="#5b5b5b"
                        font-size="11"
                    >
                        20M t
                    </text>
                    <text
                        x="45.81"
                        y="233.3"
                        dy=".32em"
                        text-anchor="end"
                        fill="#5b5b5b"
                        font-size="11"
                    >
                        30M t
                    </text>
                    <text
                        x="45.81"
                        y="208.5"
                        dy=".32em"
                        text-anchor="end"
                        fill="#5b5b5b"
                        font-size="11"
                    >
                        40M t
                    </text>
                    <text
                        x="45.81"
                        y="183.6"
                        dy=".32em"
                        text-anchor="end"
                        fill="#5b5b5b"
                        font-size="11"
                    >
                        50M t
                    </text>
                </g>
            </g>
            <g id="horizontal-grid-lines" class="AxisGridLines horizontalLines">
                <line
                    id="0-t"
                    class="zero-line"
                    x1="50.81"
                    y1="307.9"
                    x2="417.00"
                    y2="307.9"
                    stroke="#999"
                ></line>
                <line
                    id="10M-t"
                    x1="50.81"
                    y1="283"
                    x2="417.00"
                    y2="283"
                    stroke="#ddd"
                    stroke-dasharray="4,4"
                ></line>
                <line
                    id="20M-t"
                    x1="50.81"
                    y1="258.2"
                    x2="417.00"
                    y2="258.2"
                    stroke="#ddd"
                    stroke-dasharray="4,4"
                ></line>
                <line
                    id="30M-t"
                    x1="50.81"
                    y1="233.3"
                    x2="417.00"
                    y2="233.3"
                    stroke="#ddd"
                    stroke-dasharray="4,4"
                ></line>
                <line
                    id="40M-t"
                    x1="50.81"
                    y1="208.5"
                    x2="417.00"
                    y2="208.5"
                    stroke="#ddd"
                    stroke-dasharray="4,4"
                ></line>
                <line
                    id="50M-t"
                    x1="50.81"
                    y1="183.6"
                    x2="417.00"
                    y2="183.6"
                    stroke="#ddd"
                    stroke-dasharray="4,4"
                ></line>
            </g>
            <g class="Areas" id="stacked-areas">
                <g id="areas">
                    <path
                        id="Europe"
                        class="Europe-area"
                        stroke-linecap="round"
                        d="M50.8 276.8L56.1 279.7L60.8 278.4L66.1 273.1L71.1 270.1L76.4 268L81.5 265.1L86.7 265.2L92 268.2L97.1 270.1L102.3 277.2L107.4 276.1L112.7 277L117.9 279.7L122.8 288.5L128.1 305L133.2 303.9L138.4 302.7L143.5 297.1L148.8 293.4L154 295.5L159.1 296.6L164.3 299L169.4 298.1L174.7 299.6L179.9 300.9L184.7 299.5L189.9 298.8L195 297.4L200.3 294.1L205.4 287.8L210.6 285.6L215.9 286.3L220.9 285.5L226.2 288.3L231.3 286.8L236.5 289.1L241.8 290.9L246.5 287.1L251.8 283L256.9 279.9L262.1 279.4L267.2 275.2L272.5 275.2L277.7 277.4L282.8 278.1L288 284.1L293.1 283.1L298.4 283.9L303.6 285.9L308.4 282.4L313.6 279L318.7 275.8L324 273.9L329.1 270.9L334.3 271.1L339.6 273L344.6 274L349.9 280.7L355 279.5L360.2 281.1L365.5 282.5L370.4 278.9L375.7 276.1L380.7 272.3L386 270.9L391.1 268.4L396.3 268.3L401.6 270.8L406.7 271.9L411.9 279L417 278L417 307.875L50.8 307.875"
                        fill="#4c6a9c"
                        fill-opacity="0.8"
                    ></path>
                    <path
                        id="North-America"
                        class="North-America-area"
                        stroke-linecap="round"
                        d="M50.8 256.3L56.1 261.5L60.8 259.2L66.1 252.1L71.1 248.4L76.4 245.8L81.5 241.6L86.7 242L92 247.2L97.1 249.5L102.3 258.4L107.4 255L112.7 256.2L117.9 261.8L122.8 274.8L128.1 302L133.2 299.3L138.4 297.9L143.5 291.4L148.8 287.2L154 289L159.1 289.2L164.3 290.7L169.4 288.8L174.7 290.7L179.9 293.3L184.7 290.2L189.9 289.7L195 287.8L200.3 283.8L205.4 276L210.6 273.3L215.9 274.5L220.9 272.9L226.2 275L231.3 271.7L236.5 274.7L241.8 278.4L246.5 272.1L251.8 267.5L256.9 263.6L262.1 263.9L267.2 257.3L272.5 257.4L277.7 260.9L282.8 261.7L288 268.5L293.1 266L298.4 266.9L303.6 271L308.4 264.9L313.6 261.4L318.7 257.6L324 255.1L329.1 250.7L334.3 251L339.6 254.4L344.6 255.3L349.9 262.7L355 259.7L360.2 261.8L365.5 264.7L370.4 259L375.7 256.5L380.7 251.7L386 249.8L391.1 246.4L396.3 246.8L401.6 251.1L406.7 252.2L411.9 260.2L417 257.4L417 278L411.9 279L406.7 271.9L401.6 270.8L396.3 268.3L391.1 268.4L386 270.9L380.7 272.3L375.7 276.1L370.4 278.9L365.5 282.5L360.2 281.1L355 279.5L349.9 280.7L344.6 274L339.6 273L334.3 271.1L329.1 270.9L324 273.9L318.7 275.8L313.6 279L308.4 282.4L303.6 285.9L298.4 283.9L293.1 283.1L288 284.1L282.8 278.1L277.7 277.4L272.5 275.2L267.2 275.2L262.1 279.4L256.9 279.9L251.8 283L246.5 287.1L241.8 290.9L236.5 289.1L231.3 286.8L226.2 288.3L220.9 285.5L215.9 286.3L210.6 285.6L205.4 287.8L200.3 294.1L195 297.4L189.9 298.8L184.7 299.5L179.9 300.9L174.7 299.6L169.4 298.1L164.3 299L159.1 296.6L154 295.5L148.8 293.4L143.5 297.1L138.4 302.7L133.2 303.9L128.1 305L122.8 288.5L117.9 279.7L112.7 277L107.4 276.1L102.3 277.2L97.1 270.1L92 268.2L86.7 265.2L81.5 265.1L76.4 268L71.1 270.1L66.1 273.1L60.8 278.4L56.1 279.7L50.8 276.8"
                        fill="#883039"
                        fill-opacity="0.8"
                    ></path>
                    <path
                        id="Asia"
                        class="Asia-area"
                        stroke-linecap="round"
                        d="M50.8 211L56.1 220.3L60.8 218L66.1 208.2L71.1 204L76.4 200.8L81.5 193.8L86.7 193.8L92 201.9L97.1 203.6L102.3 214.4L107.4 208.8L112.7 208.9L117.9 226L122.8 253.2L128.1 295.5L133.2 290.1L138.4 288.7L143.5 281.5L148.8 276.5L154 277.4L159.1 276.5L164.3 277.1L169.4 274.3L174.7 276.6L179.9 280.5L184.7 274.8L189.9 274.6L195 273L200.3 268.9L205.4 259L210.6 255.6L215.9 256.4L220.9 253.1L226.2 255.1L231.3 250.5L236.5 254.5L241.8 260.3L246.5 250.6L251.8 246.2L256.9 240.6L262.1 240.7L267.2 230.6L272.5 230.2L277.7 234.5L282.8 234.2L288 240.8L293.1 236.1L298.4 236.4L303.6 243.5L308.4 234.1L313.6 229.4L318.7 223L324 219.9L329.1 212.4L334.3 212.1L339.6 217.2L344.6 217.1L349.9 225.7L355 220.1L360.2 221.8L365.5 226.9L370.4 219L375.7 217.3L380.7 210.7L386 208.6L391.1 202.9L396.3 202.8L401.6 209.3L406.7 210.5L411.9 220.1L417 214.9L417 257.4L411.9 260.2L406.7 252.2L401.6 251.1L396.3 246.8L391.1 246.4L386 249.8L380.7 251.7L375.7 256.5L370.4 259L365.5 264.7L360.2 261.8L355 259.7L349.9 262.7L344.6 255.3L339.6 254.4L334.3 251L329.1 250.7L324 255.1L318.7 257.6L313.6 261.4L308.4 264.9L303.6 271L298.4 266.9L293.1 266L288 268.5L282.8 261.7L277.7 260.9L272.5 257.4L267.2 257.3L262.1 263.9L256.9 263.6L251.8 267.5L246.5 272.1L241.8 278.4L236.5 274.7L231.3 271.7L226.2 275L220.9 272.9L215.9 274.5L210.6 273.3L205.4 276L200.3 283.8L195 287.8L189.9 289.7L184.7 290.2L179.9 293.3L174.7 290.7L169.4 288.8L164.3 290.7L159.1 289.2L154 289L148.8 287.2L143.5 291.4L138.4 297.9L133.2 299.3L128.1 302L122.8 274.8L117.9 261.8L112.7 256.2L107.4 255L102.3 258.4L97.1 249.5L92 247.2L86.7 242L81.5 241.6L76.4 245.8L71.1 248.4L66.1 252.1L60.8 259.2L56.1 261.5L50.8 256.3"
                        fill="#578145"
                        fill-opacity="0.8"
                    ></path>
                    <path
                        id="South-America"
                        class="South-America-area"
                        stroke-linecap="round"
                        d="M50.8 207L56.1 216.8L60.8 214.5L66.1 204.6L71.1 200.3L76.4 197.2L81.5 189.9L86.7 190L92 198.3L97.1 200L102.3 210.8L107.4 205.2L112.7 204.9L117.9 222.4L122.8 250.6L128.1 295.1L133.2 289.6L138.4 288.2L143.5 281L148.8 275.8L154 276.7L159.1 275.6L164.3 276L169.4 272.8L174.7 275.1L179.9 279.3L184.7 273.5L189.9 273.4L195 271.6L200.3 267.5L205.4 257.4L210.6 253.9L215.9 254.8L220.9 251.3L226.2 253.1L231.3 248.2L236.5 252L241.8 258.1L246.5 248.2L251.8 243.6L256.9 237.9L262.1 238.3L267.2 227.8L272.5 227.3L277.7 231.8L282.8 231.4L288 237.8L293.1 232.9L298.4 233.1L303.6 240.6L308.4 231L313.6 226.3L318.7 220L324 216.9L329.1 209.1L334.3 208.8L339.6 214.1L344.6 213.9L349.9 222.4L355 216.6L360.2 218.2L365.5 223.6L370.4 215.5L375.7 214L380.7 207.3L386 205.3L391.1 199.2L396.3 199.2L401.6 205.9L406.7 207L411.9 216.6L417 211L417 214.9L411.9 220.1L406.7 210.5L401.6 209.3L396.3 202.8L391.1 202.9L386 208.6L380.7 210.7L375.7 217.3L370.4 219L365.5 226.9L360.2 221.8L355 220.1L349.9 225.7L344.6 217.1L339.6 217.2L334.3 212.1L329.1 212.4L324 219.9L318.7 223L313.6 229.4L308.4 234.1L303.6 243.5L298.4 236.4L293.1 236.1L288 240.8L282.8 234.2L277.7 234.5L272.5 230.2L267.2 230.6L262.1 240.7L256.9 240.6L251.8 246.2L246.5 250.6L241.8 260.3L236.5 254.5L231.3 250.5L226.2 255.1L220.9 253.1L215.9 256.4L210.6 255.6L205.4 259L200.3 268.9L195 273L189.9 274.6L184.7 274.8L179.9 280.5L174.7 276.6L169.4 274.3L164.3 277.1L159.1 276.5L154 277.4L148.8 276.5L143.5 281.5L138.4 288.7L133.2 290.1L128.1 295.5L122.8 253.2L117.9 226L112.7 208.9L107.4 208.8L102.3 214.4L97.1 203.6L92 201.9L86.7 193.8L81.5 193.8L76.4 200.8L71.1 204L66.1 208.2L60.8 218L56.1 220.3L50.8 211"
                        fill="#b13507"
                        fill-opacity="0.8"
                    ></path>
                    <path
                        id="Oceania"
                        class="Oceania-area"
                        stroke-linecap="round"
                        d="M50.8 202.6L56.1 212.9L60.8 210.8L66.1 200.8L71.1 196.6L76.4 193.6L81.5 186L86.7 186.1L92 194.7L97.1 196.2L102.3 207.1L107.4 200.9L112.7 200.5L117.9 218.9L122.8 248L128.1 294.4L133.2 288.7L138.4 287.4L143.5 280.2L148.8 275.1L154 275.9L159.1 274.7L164.3 275.1L169.4 271.9L174.7 274.2L179.9 278.5L184.7 272.7L189.9 272.5L195 270.7L200.3 266.5L205.4 256.4L210.6 253L215.9 253.9L220.9 250.4L226.2 252.1L231.3 247L236.5 250.8L241.8 256.8L246.5 246.6L251.8 242.1L256.9 236.3L262.1 236.7L267.2 225.8L272.5 225.4L277.7 229.9L282.8 229.2L288 235.5L293.1 230.2L298.4 230.4L303.6 238.2L308.4 228.4L313.6 223.7L318.7 217.2L324 214L329.1 206.1L334.3 205.8L339.6 211.1L344.6 210.8L349.9 219.2L355 212.9L360.2 214.4L365.5 220.2L370.4 212.1L375.7 210.9L380.7 204.2L386 202.1L391.1 195.9L396.3 196L401.6 202.7L406.7 203.7L411.9 213.2L417 207.1L417 211L411.9 216.6L406.7 207L401.6 205.9L396.3 199.2L391.1 199.2L386 205.3L380.7 207.3L375.7 214L370.4 215.5L365.5 223.6L360.2 218.2L355 216.6L349.9 222.4L344.6 213.9L339.6 214.1L334.3 208.8L329.1 209.1L324 216.9L318.7 220L313.6 226.3L308.4 231L303.6 240.6L298.4 233.1L293.1 232.9L288 237.8L282.8 231.4L277.7 231.8L272.5 227.3L267.2 227.8L262.1 238.3L256.9 237.9L251.8 243.6L246.5 248.2L241.8 258.1L236.5 252L231.3 248.2L226.2 253.1L220.9 251.3L215.9 254.8L210.6 253.9L205.4 257.4L200.3 267.5L195 271.6L189.9 273.4L184.7 273.5L179.9 279.3L174.7 275.1L169.4 272.8L164.3 276L159.1 275.6L154 276.7L148.8 275.8L143.5 281L138.4 288.2L133.2 289.6L128.1 295.1L122.8 250.6L117.9 222.4L112.7 204.9L107.4 205.2L102.3 210.8L97.1 200L92 198.3L86.7 190L81.5 189.9L76.4 197.2L71.1 200.3L66.1 204.6L60.8 214.5L56.1 216.8L50.8 207"
                        fill="#b16214"
                        fill-opacity="0.8"
                    ></path>
                    <path
                        id="Africa"
                        class="Africa-area"
                        stroke-linecap="round"
                        d="M50.8 197.9L56.1 208.8L60.8 206.6L66.1 196.4L71.1 192.3L76.4 189.1L81.5 180.9L86.7 181L92 190.1L97.1 191.6L102.3 202.7L107.4 196L112.7 195.6L117.9 214.6L122.8 245L128.1 294L133.2 288.3L138.4 286.8L143.5 279.3L148.8 273.9L154 274.6L159.1 273.1L164.3 273.4L169.4 269.9L174.7 272.3L179.9 276.9L184.7 270.8L189.9 270.6L195 268.8L200.3 264.4L205.4 253.8L210.6 250.3L215.9 251.3L220.9 247.6L226.2 249.1L231.3 244.1L236.5 248.1L241.8 254.2L246.5 243.4L251.8 238.7L256.9 232.7L262.1 233L267.2 221.6L272.5 221.2L277.7 226.1L282.8 225.3L288 231.8L293.1 226.1L298.4 226.3L303.6 234.6L308.4 224.3L313.6 219.6L318.7 213L324 209.8L329.1 201.4L334.3 201.1L339.6 206.7L344.6 206.2L349.9 214.7L355 208.1L360.2 209.8L365.5 215.9L370.4 207.5L375.7 206.5L380.7 199.6L386 197.5L391.1 190.9L396.3 191L401.6 198L406.7 199.7L411.9 209.2L417 202.9L417 207.1L411.9 213.2L406.7 203.7L401.6 202.7L396.3 196L391.1 195.9L386 202.1L380.7 204.2L375.7 210.9L370.4 212.1L365.5 220.2L360.2 214.4L355 212.9L349.9 219.2L344.6 210.8L339.6 211.1L334.3 205.8L329.1 206.1L324 214L318.7 217.2L313.6 223.7L308.4 228.4L303.6 238.2L298.4 230.4L293.1 230.2L288 235.5L282.8 229.2L277.7 229.9L272.5 225.4L267.2 225.8L262.1 236.7L256.9 236.3L251.8 242.1L246.5 246.6L241.8 256.8L236.5 250.8L231.3 247L226.2 252.1L220.9 250.4L215.9 253.9L210.6 253L205.4 256.4L200.3 266.5L195 270.7L189.9 272.5L184.7 272.7L179.9 278.5L174.7 274.2L169.4 271.9L164.3 275.1L159.1 274.7L154 275.9L148.8 275.1L143.5 280.2L138.4 287.4L133.2 288.7L128.1 294.4L122.8 248L117.9 218.9L112.7 200.5L107.4 200.9L102.3 207.1L97.1 196.2L92 194.7L86.7 186.1L81.5 186L76.4 193.6L71.1 196.6L66.1 200.8L60.8 210.8L56.1 212.9L50.8 202.6"
                        fill="#970046"
                        fill-opacity="0.8"
                    ></path>
                </g>
                <g id="borders">
                    <path
                        id="Europe"
                        class="Europe-border"
                        stroke-linecap="round"
                        d="M50.8 276.8L56.1 279.7L60.8 278.4L66.1 273.1L71.1 270.1L76.4 268L81.5 265.1L86.7 265.2L92 268.2L97.1 270.1L102.3 277.2L107.4 276.1L112.7 277L117.9 279.7L122.8 288.5L128.1 305L133.2 303.9L138.4 302.7L143.5 297.1L148.8 293.4L154 295.5L159.1 296.6L164.3 299L169.4 298.1L174.7 299.6L179.9 300.9L184.7 299.5L189.9 298.8L195 297.4L200.3 294.1L205.4 287.8L210.6 285.6L215.9 286.3L220.9 285.5L226.2 288.3L231.3 286.8L236.5 289.1L241.8 290.9L246.5 287.1L251.8 283L256.9 279.9L262.1 279.4L267.2 275.2L272.5 275.2L277.7 277.4L282.8 278.1L288 284.1L293.1 283.1L298.4 283.9L303.6 285.9L308.4 282.4L313.6 279L318.7 275.8L324 273.9L329.1 270.9L334.3 271.1L339.6 273L344.6 274L349.9 280.7L355 279.5L360.2 281.1L365.5 282.5L370.4 278.9L375.7 276.1L380.7 272.3L386 270.9L391.1 268.4L396.3 268.3L401.6 270.8L406.7 271.9L411.9 279L417 278"
                        stroke="rgb(64, 89, 131)"
                        stroke-opacity="0.7"
                        stroke-width="0.5"
                        fill="none"
                    ></path>
                    <path
                        id="North-America"
                        class="North-America-border"
                        stroke-linecap="round"
                        d="M50.8 256.3L56.1 261.5L60.8 259.2L66.1 252.1L71.1 248.4L76.4 245.8L81.5 241.6L86.7 242L92 247.2L97.1 249.5L102.3 258.4L107.4 255L112.7 256.2L117.9 261.8L122.8 274.8L128.1 302L133.2 299.3L138.4 297.9L143.5 291.4L148.8 287.2L154 289L159.1 289.2L164.3 290.7L169.4 288.8L174.7 290.7L179.9 293.3L184.7 290.2L189.9 289.7L195 287.8L200.3 283.8L205.4 276L210.6 273.3L215.9 274.5L220.9 272.9L226.2 275L231.3 271.7L236.5 274.7L241.8 278.4L246.5 272.1L251.8 267.5L256.9 263.6L262.1 263.9L267.2 257.3L272.5 257.4L277.7 260.9L282.8 261.7L288 268.5L293.1 266L298.4 266.9L303.6 271L308.4 264.9L313.6 261.4L318.7 257.6L324 255.1L329.1 250.7L334.3 251L339.6 254.4L344.6 255.3L349.9 262.7L355 259.7L360.2 261.8L365.5 264.7L370.4 259L375.7 256.5L380.7 251.7L386 249.8L391.1 246.4L396.3 246.8L401.6 251.1L406.7 252.2L411.9 260.2L417 257.4"
                        stroke="rgb(114, 40, 48)"
                        stroke-opacity="0.7"
                        stroke-width="0.5"
                        fill="none"
                    ></path>
                    <path
                        id="Asia"
                        class="Asia-border"
                        stroke-linecap="round"
                        d="M50.8 211L56.1 220.3L60.8 218L66.1 208.2L71.1 204L76.4 200.8L81.5 193.8L86.7 193.8L92 201.9L97.1 203.6L102.3 214.4L107.4 208.8L112.7 208.9L117.9 226L122.8 253.2L128.1 295.5L133.2 290.1L138.4 288.7L143.5 281.5L148.8 276.5L154 277.4L159.1 276.5L164.3 277.1L169.4 274.3L174.7 276.6L179.9 280.5L184.7 274.8L189.9 274.6L195 273L200.3 268.9L205.4 259L210.6 255.6L215.9 256.4L220.9 253.1L226.2 255.1L231.3 250.5L236.5 254.5L241.8 260.3L246.5 250.6L251.8 246.2L256.9 240.6L262.1 240.7L267.2 230.6L272.5 230.2L277.7 234.5L282.8 234.2L288 240.8L293.1 236.1L298.4 236.4L303.6 243.5L308.4 234.1L313.6 229.4L318.7 223L324 219.9L329.1 212.4L334.3 212.1L339.6 217.2L344.6 217.1L349.9 225.7L355 220.1L360.2 221.8L365.5 226.9L370.4 219L375.7 217.3L380.7 210.7L386 208.6L391.1 202.9L396.3 202.8L401.6 209.3L406.7 210.5L411.9 220.1L417 214.9"
                        stroke="rgb(73, 108, 58)"
                        stroke-opacity="0.7"
                        stroke-width="0.5"
                        fill="none"
                    ></path>
                    <path
                        id="South-America"
                        class="South-America-border"
                        stroke-linecap="round"
                        d="M50.8 207L56.1 216.8L60.8 214.5L66.1 204.6L71.1 200.3L76.4 197.2L81.5 189.9L86.7 190L92 198.3L97.1 200L102.3 210.8L107.4 205.2L112.7 204.9L117.9 222.4L122.8 250.6L128.1 295.1L133.2 289.6L138.4 288.2L143.5 281L148.8 275.8L154 276.7L159.1 275.6L164.3 276L169.4 272.8L174.7 275.1L179.9 279.3L184.7 273.5L189.9 273.4L195 271.6L200.3 267.5L205.4 257.4L210.6 253.9L215.9 254.8L220.9 251.3L226.2 253.1L231.3 248.2L236.5 252L241.8 258.1L246.5 248.2L251.8 243.6L256.9 237.9L262.1 238.3L267.2 227.8L272.5 227.3L277.7 231.8L282.8 231.4L288 237.8L293.1 232.9L298.4 233.1L303.6 240.6L308.4 231L313.6 226.3L318.7 220L324 216.9L329.1 209.1L334.3 208.8L339.6 214.1L344.6 213.9L349.9 222.4L355 216.6L360.2 218.2L365.5 223.6L370.4 215.5L375.7 214L380.7 207.3L386 205.3L391.1 199.2L396.3 199.2L401.6 205.9L406.7 207L411.9 216.6L417 211"
                        stroke="rgb(148, 44, 6)"
                        stroke-opacity="0.7"
                        stroke-width="0.5"
                        fill="none"
                    ></path>
                    <path
                        id="Oceania"
                        class="Oceania-border"
                        stroke-linecap="round"
                        d="M50.8 202.6L56.1 212.9L60.8 210.8L66.1 200.8L71.1 196.6L76.4 193.6L81.5 186L86.7 186.1L92 194.7L97.1 196.2L102.3 207.1L107.4 200.9L112.7 200.5L117.9 218.9L122.8 248L128.1 294.4L133.2 288.7L138.4 287.4L143.5 280.2L148.8 275.1L154 275.9L159.1 274.7L164.3 275.1L169.4 271.9L174.7 274.2L179.9 278.5L184.7 272.7L189.9 272.5L195 270.7L200.3 266.5L205.4 256.4L210.6 253L215.9 253.9L220.9 250.4L226.2 252.1L231.3 247L236.5 250.8L241.8 256.8L246.5 246.6L251.8 242.1L256.9 236.3L262.1 236.7L267.2 225.8L272.5 225.4L277.7 229.9L282.8 229.2L288 235.5L293.1 230.2L298.4 230.4L303.6 238.2L308.4 228.4L313.6 223.7L318.7 217.2L324 214L329.1 206.1L334.3 205.8L339.6 211.1L344.6 210.8L349.9 219.2L355 212.9L360.2 214.4L365.5 220.2L370.4 212.1L375.7 210.9L380.7 204.2L386 202.1L391.1 195.9L396.3 196L401.6 202.7L406.7 203.7L411.9 213.2L417 207.1"
                        stroke="rgb(148, 82, 17)"
                        stroke-opacity="0.7"
                        stroke-width="0.5"
                        fill="none"
                    ></path>
                    <path
                        id="Africa"
                        class="Africa-border"
                        stroke-linecap="round"
                        d="M50.8 197.9L56.1 208.8L60.8 206.6L66.1 196.4L71.1 192.3L76.4 189.1L81.5 180.9L86.7 181L92 190.1L97.1 191.6L102.3 202.7L107.4 196L112.7 195.6L117.9 214.6L122.8 245L128.1 294L133.2 288.3L138.4 286.8L143.5 279.3L148.8 273.9L154 274.6L159.1 273.1L164.3 273.4L169.4 269.9L174.7 272.3L179.9 276.9L184.7 270.8L189.9 270.6L195 268.8L200.3 264.4L205.4 253.8L210.6 250.3L215.9 251.3L220.9 247.6L226.2 249.1L231.3 244.1L236.5 248.1L241.8 254.2L246.5 243.4L251.8 238.7L256.9 232.7L262.1 233L267.2 221.6L272.5 221.2L277.7 226.1L282.8 225.3L288 231.8L293.1 226.1L298.4 226.3L303.6 234.6L308.4 224.3L313.6 219.6L318.7 213L324 209.8L329.1 201.4L334.3 201.1L339.6 206.7L344.6 206.2L349.9 214.7L355 208.1L360.2 209.8L365.5 215.9L370.4 207.5L375.7 206.5L380.7 199.6L386 197.5L391.1 190.9L396.3 191L401.6 198L406.7 199.7L411.9 209.2L417 202.9"
                        stroke="rgb(126, 0, 59)"
                        stroke-opacity="0.7"
                        stroke-width="0.5"
                        fill="none"
                    ></path>
                </g>
            </g>
        </g>
        <text x="467.8" y="164.2" text-anchor="start" font-size="15.75">
            <tspan x="467.8" font-weight="700" fill="#5b5b5b">
                Monthly CO₂ emissions from domestic aviation
            </tspan>
        </text>
        <g id="Monthly-CO₂-emissions-from-domestic-aviation">
            <g id="horizontal-axis" class="HorizontalAxis">
                <g id="tick-marks">
                    <line
                        id="Jan-15,-2019"
                        x1="468.3"
                        y1="307.375"
                        x2="468.3"
                        y2="312.875"
                        stroke="#999"
                        stroke-width="1"
                    ></line>
                    <line
                        id="Dec-15,-2024"
                        x1="833.5"
                        y1="307.375"
                        x2="833.5"
                        y2="312.875"
                        stroke="#999"
                        stroke-width="1"
                    ></line>
                    <line
                        id="Jun-4,-2021"
                        x1="615.4"
                        y1="307.375"
                        x2="615.4"
                        y2="312.875"
                        stroke="#999"
                        stroke-width="1"
                    ></line>
                    <line
                        id="Oct-17,-2022"
                        x1="700.1"
                        y1="307.375"
                        x2="700.1"
                        y2="312.875"
                        stroke="#999"
                        stroke-width="1"
                    ></line>
                </g>
                <g id="tick-labels">
                    <text
                        x="467.81"
                        y="323.875"
                        fill="#5b5b5b"
                        text-anchor="start"
                        font-size="11"
                    >
                        Jan 15, 2019
                    </text>
                    <text
                        x="834"
                        y="323.875"
                        fill="#5b5b5b"
                        text-anchor="end"
                        font-size="11"
                    >
                        Dec 15, 2024
                    </text>
                    <text
                        x="615.4"
                        y="323.875"
                        fill="#5b5b5b"
                        text-anchor="middle"
                        font-size="11"
                    >
                        Jun 4, 2021
                    </text>
                    <text
                        x="700.1"
                        y="323.875"
                        fill="#5b5b5b"
                        text-anchor="middle"
                        font-size="11"
                    >
                        Oct 17, 2022
                    </text>
                </g>
            </g>
            <g id="vertical-axis" class="VerticalAxis">
                <g id="tick-labels">
                    <text
                        x="462.81"
                        y="307.9"
                        dy=".32em"
                        text-anchor="end"
                        fill="#5b5b5b"
                        font-size="11"
                    >
                        0 t
                    </text>
                    <text
                        x="462.81"
                        y="264.8"
                        dy=".32em"
                        text-anchor="end"
                        fill="#5b5b5b"
                        font-size="11"
                    >
                        10M t
                    </text>
                    <text
                        x="462.81"
                        y="221.7"
                        dy=".32em"
                        text-anchor="end"
                        fill="#5b5b5b"
                        font-size="11"
                    >
                        20M t
                    </text>
                </g>
            </g>
            <g id="horizontal-grid-lines" class="AxisGridLines horizontalLines">
                <line
                    id="0-t"
                    class="zero-line"
                    x1="467.81"
                    y1="307.9"
                    x2="834.00"
                    y2="307.9"
                    stroke="#999"
                ></line>
                <line
                    id="10M-t"
                    x1="467.81"
                    y1="264.8"
                    x2="834.00"
                    y2="264.8"
                    stroke="#ddd"
                    stroke-dasharray="4,4"
                ></line>
                <line
                    id="20M-t"
                    x1="467.81"
                    y1="221.7"
                    x2="834.00"
                    y2="221.7"
                    stroke="#ddd"
                    stroke-dasharray="4,4"
                ></line>
            </g>
            <g class="Areas" id="stacked-areas">
                <g id="areas">
                    <path
                        id="Europe"
                        class="Europe-area"
                        stroke-linecap="round"
                        d="M467.8 298.9L473.1 299.7L477.8 299.7L483.1 298.6L488.1 298L493.4 297.5L498.5 296.8L503.7 296.7L509 297.4L514.1 298.1L519.3 298.8L524.4 298.5L529.7 298.5L534.9 299.3L539.8 300.9L545.1 306.3L550.2 306L555.4 304L560.5 300L565.8 298.1L571 299.5L576.1 300.6L581.3 302.6L586.4 301.7L591.7 301.9L596.9 303.1L601.7 302.4L606.9 301.7L612 300.1L617.3 297.9L622.4 295.9L627.6 295.8L632.9 297.3L637.9 298.2L643.2 299.2L648.3 298.7L653.5 299.4L658.8 300.6L663.5 299.8L668.8 299.2L673.9 298L679.1 297.3L684.2 295.9L689.5 295.6L694.7 296.7L699.8 297.7L705 299.5L710.1 299.1L715.4 299.6L720.6 300.4L725.4 299.4L730.6 299L735.7 298.2L741 297.3L746.1 296.5L751.3 296.3L756.6 297.5L761.6 298.4L766.9 299.8L772 299.4L777.2 299.7L782.5 300.3L787.4 299.5L792.7 299L797.7 298.4L803 297.7L808.1 296.8L813.3 296.6L818.6 297.7L823.7 298.6L828.9 299.9L834 299.7L834 307.875L467.8 307.875"
                        fill="#4c6a9c"
                        fill-opacity="0.8"
                    ></path>
                    <path
                        id="North-America"
                        class="North-America-area"
                        stroke-linecap="round"
                        d="M467.8 250.9L473.1 255.9L477.8 252.6L483.1 248.1L488.1 245L493.4 243.7L498.5 240.3L503.7 240.6L509 247.2L514.1 245.1L519.3 248.7L524.4 245L529.7 248.6L534.9 251.9L539.8 256.3L545.1 291.3L550.2 291.3L555.4 283.7L560.5 270.2L565.8 266.4L571 271.5L576.1 270L581.3 271L586.4 268.7L591.7 271.4L596.9 276.1L601.7 265.1L606.9 263.7L612 258.3L617.3 252.2L622.4 246L627.6 246.3L632.9 251.2L637.9 250.3L643.2 252.5L648.3 251.4L653.5 255.9L658.8 259.8L663.5 251.5L668.8 252.4L673.9 249.2L679.1 250.2L684.2 244.7L689.5 244.7L694.7 249.1L699.8 248.2L705 252.4L710.1 251.6L715.4 252.2L720.6 256.4L725.4 248.3L730.6 249.9L735.7 246.4L741 245.4L746.1 242L751.3 241.6L756.6 246.8L761.6 245.3L766.9 249.6L772 248.2L777.2 252.5L782.5 254.3L787.4 247.3L792.7 247.8L797.7 244.4L803 243.2L808.1 240.5L813.3 241.3L818.6 246.5L823.7 244.8L828.9 249.5L834 246.6L834 299.7L828.9 299.9L823.7 298.6L818.6 297.7L813.3 296.6L808.1 296.8L803 297.7L797.7 298.4L792.7 299L787.4 299.5L782.5 300.3L777.2 299.7L772 299.4L766.9 299.8L761.6 298.4L756.6 297.5L751.3 296.3L746.1 296.5L741 297.3L735.7 298.2L730.6 299L725.4 299.4L720.6 300.4L715.4 299.6L710.1 299.1L705 299.5L699.8 297.7L694.7 296.7L689.5 295.6L684.2 295.9L679.1 297.3L673.9 298L668.8 299.2L663.5 299.8L658.8 300.6L653.5 299.4L648.3 298.7L643.2 299.2L637.9 298.2L632.9 297.3L627.6 295.8L622.4 295.9L617.3 297.9L612 300.1L606.9 301.7L601.7 302.4L596.9 303.1L591.7 301.9L586.4 301.7L581.3 302.6L576.1 300.6L571 299.5L565.8 298.1L560.5 300L555.4 304L550.2 306L545.1 306.3L539.8 300.9L534.9 299.3L529.7 298.5L524.4 298.5L519.3 298.8L514.1 298.1L509 297.4L503.7 296.7L498.5 296.8L493.4 297.5L488.1 298L483.1 298.6L477.8 299.7L473.1 299.7L467.8 298.9"
                        fill="#883039"
                        fill-opacity="0.8"
                    ></path>
                    <path
                        id="Asia"
                        class="Asia-area"
                        stroke-linecap="round"
                        d="M467.8 207.4L473.1 215.4L477.8 214.6L483.1 206.2L488.1 201.5L493.4 200.6L498.5 193.8L503.7 193.9L509 203.3L514.1 199.6L519.3 204.8L524.4 199.9L529.7 203L534.9 227.9L539.8 231.8L545.1 276.9L550.2 271.6L555.4 258.1L560.5 239.3L565.8 231.6L571 237L576.1 232.4L581.3 234.1L586.4 230.3L591.7 239.9L596.9 251L601.7 226.3L606.9 222.9L612 220.9L617.3 219.7L622.4 209.3L627.6 220.3L632.9 219.4L637.9 216.2L643.2 225.7L648.3 220.1L653.5 223.8L658.8 229.5L663.5 227.3L668.8 232.3L673.9 224.7L679.1 222L684.2 208L689.5 209.8L694.7 221.6L699.8 222.6L705 229.4L710.1 224L715.4 213.5L720.6 221.2L725.4 210.3L730.6 208.6L735.7 200.5L741 200.6L746.1 193.2L751.3 192.8L756.6 203.5L761.6 201.7L766.9 209.1L772 206.4L777.2 208.1L782.5 209.8L787.4 203.9L792.7 205.3L797.7 200.9L803 199.8L808.1 191L813.3 191.1L818.6 202.9L823.7 200.5L828.9 208.5L834 204.2L834 246.6L828.9 249.5L823.7 244.8L818.6 246.5L813.3 241.3L808.1 240.5L803 243.2L797.7 244.4L792.7 247.8L787.4 247.3L782.5 254.3L777.2 252.5L772 248.2L766.9 249.6L761.6 245.3L756.6 246.8L751.3 241.6L746.1 242L741 245.4L735.7 246.4L730.6 249.9L725.4 248.3L720.6 256.4L715.4 252.2L710.1 251.6L705 252.4L699.8 248.2L694.7 249.1L689.5 244.7L684.2 244.7L679.1 250.2L673.9 249.2L668.8 252.4L663.5 251.5L658.8 259.8L653.5 255.9L648.3 251.4L643.2 252.5L637.9 250.3L632.9 251.2L627.6 246.3L622.4 246L617.3 252.2L612 258.3L606.9 263.7L601.7 265.1L596.9 276.1L591.7 271.4L586.4 268.7L581.3 271L576.1 270L571 271.5L565.8 266.4L560.5 270.2L555.4 283.7L550.2 291.3L545.1 291.3L539.8 256.3L534.9 251.9L529.7 248.6L524.4 245L519.3 248.7L514.1 245.1L509 247.2L503.7 240.6L498.5 240.3L493.4 243.7L488.1 245L483.1 248.1L477.8 252.6L473.1 255.9L467.8 250.9"
                        fill="#578145"
                        fill-opacity="0.8"
                    ></path>
                    <path
                        id="South-America"
                        class="South-America-area"
                        stroke-linecap="round"
                        d="M467.8 202.1L473.1 210.9L477.8 210.3L483.1 201.8L488.1 197.1L493.4 196.2L498.5 188.5L503.7 188.9L509 198.5L514.1 194.5L519.3 199.8L524.4 194.4L529.7 197.3L534.9 222.9L539.8 228.1L545.1 276.5L550.2 271.2L555.4 257.5L560.5 238.3L565.8 230.4L571 235.3L576.1 230L581.3 231.4L586.4 226.8L591.7 236L596.9 247.9L601.7 223.5L606.9 220.6L612 218.3L617.3 216.7L622.4 205.4L627.6 216.3L632.9 215.3L637.9 211.8L643.2 221.1L648.3 214.9L653.5 218.7L658.8 225.3L663.5 222.5L668.8 227.7L673.9 219.8L679.1 217.5L684.2 202.6L689.5 204.6L694.7 216.7L699.8 217.4L705 224.3L710.1 218.4L715.4 207.8L720.6 216.4L725.4 205.1L730.6 203.7L735.7 195.2L741 195.5L746.1 187.6L751.3 187.3L756.6 198.3L761.6 196.4L766.9 203.8L772 200.6L777.2 202.3L782.5 204.6L787.4 198.4L792.7 200.1L797.7 195.7L803 194.6L808.1 185.1L813.3 185.4L818.6 197.3L823.7 194.7L828.9 202.8L834 198L834 204.2L828.9 208.5L823.7 200.5L818.6 202.9L813.3 191.1L808.1 191L803 199.8L797.7 200.9L792.7 205.3L787.4 203.9L782.5 209.8L777.2 208.1L772 206.4L766.9 209.1L761.6 201.7L756.6 203.5L751.3 192.8L746.1 193.2L741 200.6L735.7 200.5L730.6 208.6L725.4 210.3L720.6 221.2L715.4 213.5L710.1 224L705 229.4L699.8 222.6L694.7 221.6L689.5 209.8L684.2 208L679.1 222L673.9 224.7L668.8 232.3L663.5 227.3L658.8 229.5L653.5 223.8L648.3 220.1L643.2 225.7L637.9 216.2L632.9 219.4L627.6 220.3L622.4 209.3L617.3 219.7L612 220.9L606.9 222.9L601.7 226.3L596.9 251L591.7 239.9L586.4 230.3L581.3 234.1L576.1 232.4L571 237L565.8 231.6L560.5 239.3L555.4 258.1L550.2 271.6L545.1 276.9L539.8 231.8L534.9 227.9L529.7 203L524.4 199.9L519.3 204.8L514.1 199.6L509 203.3L503.7 193.9L498.5 193.8L493.4 200.6L488.1 201.5L483.1 206.2L477.8 214.6L473.1 215.4L467.8 207.4"
                        fill="#b13507"
                        fill-opacity="0.8"
                    ></path>
                    <path
                        id="Oceania"
                        class="Oceania-area"
                        stroke-linecap="round"
                        d="M467.8 198.9L473.1 208L477.8 207.5L483.1 198.6L488.1 194L493.4 193.3L498.5 185.1L503.7 185.7L509 195.3L514.1 191.1L519.3 196.6L524.4 191.1L529.7 194L534.9 219.9L539.8 225.4L545.1 275.9L550.2 270.6L555.4 256.7L560.5 237.2L565.8 229.3L571 234.2L576.1 228.7L581.3 230.1L586.4 224.8L591.7 234.2L596.9 246.3L601.7 221.2L606.9 218.1L612 215.7L617.3 214.5L622.4 203.5L627.6 215.1L632.9 214L637.9 210.4L643.2 219.5L648.3 212.6L653.5 216.5L658.8 223.4L663.5 220L668.8 224.8L673.9 216.8L679.1 214.3L684.2 199.7L689.5 201.7L694.7 213.8L699.8 214.4L705 221.3L710.1 215.4L715.4 204.8L720.6 213.7L725.4 202L730.6 200.6L735.7 192.1L741 192.5L746.1 184.4L751.3 184.1L756.6 195.1L761.6 193.1L766.9 200.6L772 197.5L777.2 199.1L782.5 201.6L787.4 195.2L792.7 196.8L797.7 192.5L803 191.6L808.1 181.8L813.3 182.3L818.6 194.2L823.7 191.4L828.9 199.7L834 194.8L834 198L828.9 202.8L823.7 194.7L818.6 197.3L813.3 185.4L808.1 185.1L803 194.6L797.7 195.7L792.7 200.1L787.4 198.4L782.5 204.6L777.2 202.3L772 200.6L766.9 203.8L761.6 196.4L756.6 198.3L751.3 187.3L746.1 187.6L741 195.5L735.7 195.2L730.6 203.7L725.4 205.1L720.6 216.4L715.4 207.8L710.1 218.4L705 224.3L699.8 217.4L694.7 216.7L689.5 204.6L684.2 202.6L679.1 217.5L673.9 219.8L668.8 227.7L663.5 222.5L658.8 225.3L653.5 218.7L648.3 214.9L643.2 221.1L637.9 211.8L632.9 215.3L627.6 216.3L622.4 205.4L617.3 216.7L612 218.3L606.9 220.6L601.7 223.5L596.9 247.9L591.7 236L586.4 226.8L581.3 231.4L576.1 230L571 235.3L565.8 230.4L560.5 238.3L555.4 257.5L550.2 271.2L545.1 276.5L539.8 228.1L534.9 222.9L529.7 197.3L524.4 194.4L519.3 199.8L514.1 194.5L509 198.5L503.7 188.9L498.5 188.5L493.4 196.2L488.1 197.1L483.1 201.8L477.8 210.3L473.1 210.9L467.8 202.1"
                        fill="#b16214"
                        fill-opacity="0.8"
                    ></path>
                    <path
                        id="Africa"
                        class="Africa-area"
                        stroke-linecap="round"
                        d="M467.8 198.1L473.1 207.3L477.8 206.7L483.1 197.7L488.1 193.2L493.4 192.4L498.5 184.3L503.7 184.8L509 194.3L514.1 190.2L519.3 195.7L524.4 190.1L529.7 193.1L534.9 219L539.8 224.7L545.1 275.9L550.2 270.5L555.4 256.6L560.5 237.1L565.8 229.1L571 233.9L576.1 228.3L581.3 229.6L586.4 224.2L591.7 233.8L596.9 245.9L601.7 220.6L606.9 217.5L612 215.1L617.3 213.9L622.4 203.1L627.6 214.5L632.9 213.4L637.9 209.7L643.2 218.7L648.3 211.8L653.5 215.7L658.8 222.7L663.5 219.1L668.8 223.9L673.9 216L679.1 213.6L684.2 198.9L689.5 201L694.7 213.1L699.8 213.6L705 220.6L710.1 214.6L715.4 204L720.6 212.9L725.4 201.1L730.6 199.7L735.7 191.2L741 191.7L746.1 183.5L751.3 183.2L756.6 194.2L761.6 192.2L766.9 199.8L772 196.5L777.2 198.2L782.5 200.8L787.4 194.3L792.7 195.9L797.7 191.7L803 190.7L808.1 180.9L813.3 181.4L818.6 193.3L823.7 191.1L828.9 199.3L834 194.4L834 194.8L828.9 199.7L823.7 191.4L818.6 194.2L813.3 182.3L808.1 181.8L803 191.6L797.7 192.5L792.7 196.8L787.4 195.2L782.5 201.6L777.2 199.1L772 197.5L766.9 200.6L761.6 193.1L756.6 195.1L751.3 184.1L746.1 184.4L741 192.5L735.7 192.1L730.6 200.6L725.4 202L720.6 213.7L715.4 204.8L710.1 215.4L705 221.3L699.8 214.4L694.7 213.8L689.5 201.7L684.2 199.7L679.1 214.3L673.9 216.8L668.8 224.8L663.5 220L658.8 223.4L653.5 216.5L648.3 212.6L643.2 219.5L637.9 210.4L632.9 214L627.6 215.1L622.4 203.5L617.3 214.5L612 215.7L606.9 218.1L601.7 221.2L596.9 246.3L591.7 234.2L586.4 224.8L581.3 230.1L576.1 228.7L571 234.2L565.8 229.3L560.5 237.2L555.4 256.7L550.2 270.6L545.1 275.9L539.8 225.4L534.9 219.9L529.7 194L524.4 191.1L519.3 196.6L514.1 191.1L509 195.3L503.7 185.7L498.5 185.1L493.4 193.3L488.1 194L483.1 198.6L477.8 207.5L473.1 208L467.8 198.9"
                        fill="#970046"
                        fill-opacity="0.8"
                    ></path>
                </g>
                <g id="borders">
                    <path
                        id="Europe"
                        class="Europe-border"
                        stroke-linecap="round"
                        d="M467.8 298.9L473.1 299.7L477.8 299.7L483.1 298.6L488.1 298L493.4 297.5L498.5 296.8L503.7 296.7L509 297.4L514.1 298.1L519.3 298.8L524.4 298.5L529.7 298.5L534.9 299.3L539.8 300.9L545.1 306.3L550.2 306L555.4 304L560.5 300L565.8 298.1L571 299.5L576.1 300.6L581.3 302.6L586.4 301.7L591.7 301.9L596.9 303.1L601.7 302.4L606.9 301.7L612 300.1L617.3 297.9L622.4 295.9L627.6 295.8L632.9 297.3L637.9 298.2L643.2 299.2L648.3 298.7L653.5 299.4L658.8 300.6L663.5 299.8L668.8 299.2L673.9 298L679.1 297.3L684.2 295.9L689.5 295.6L694.7 296.7L699.8 297.7L705 299.5L710.1 299.1L715.4 299.6L720.6 300.4L725.4 299.4L730.6 299L735.7 298.2L741 297.3L746.1 296.5L751.3 296.3L756.6 297.5L761.6 298.4L766.9 299.8L772 299.4L777.2 299.7L782.5 300.3L787.4 299.5L792.7 299L797.7 298.4L803 297.7L808.1 296.8L813.3 296.6L818.6 297.7L823.7 298.6L828.9 299.9L834 299.7"
                        stroke="rgb(64, 89, 131)"
                        stroke-opacity="0.7"
                        stroke-width="0.5"
                        fill="none"
                    ></path>
                    <path
                        id="North-America"
                        class="North-America-border"
                        stroke-linecap="round"
                        d="M467.8 250.9L473.1 255.9L477.8 252.6L483.1 248.1L488.1 245L493.4 243.7L498.5 240.3L503.7 240.6L509 247.2L514.1 245.1L519.3 248.7L524.4 245L529.7 248.6L534.9 251.9L539.8 256.3L545.1 291.3L550.2 291.3L555.4 283.7L560.5 270.2L565.8 266.4L571 271.5L576.1 270L581.3 271L586.4 268.7L591.7 271.4L596.9 276.1L601.7 265.1L606.9 263.7L612 258.3L617.3 252.2L622.4 246L627.6 246.3L632.9 251.2L637.9 250.3L643.2 252.5L648.3 251.4L653.5 255.9L658.8 259.8L663.5 251.5L668.8 252.4L673.9 249.2L679.1 250.2L684.2 244.7L689.5 244.7L694.7 249.1L699.8 248.2L705 252.4L710.1 251.6L715.4 252.2L720.6 256.4L725.4 248.3L730.6 249.9L735.7 246.4L741 245.4L746.1 242L751.3 241.6L756.6 246.8L761.6 245.3L766.9 249.6L772 248.2L777.2 252.5L782.5 254.3L787.4 247.3L792.7 247.8L797.7 244.4L803 243.2L808.1 240.5L813.3 241.3L818.6 246.5L823.7 244.8L828.9 249.5L834 246.6"
                        stroke="rgb(114, 40, 48)"
                        stroke-opacity="0.7"
                        stroke-width="0.5"
                        fill="none"
                    ></path>
                    <path
                        id="Asia"
                        class="Asia-border"
                        stroke-linecap="round"
                        d="M467.8 207.4L473.1 215.4L477.8 214.6L483.1 206.2L488.1 201.5L493.4 200.6L498.5 193.8L503.7 193.9L509 203.3L514.1 199.6L519.3 204.8L524.4 199.9L529.7 203L534.9 227.9L539.8 231.8L545.1 276.9L550.2 271.6L555.4 258.1L560.5 239.3L565.8 231.6L571 237L576.1 232.4L581.3 234.1L586.4 230.3L591.7 239.9L596.9 251L601.7 226.3L606.9 222.9L612 220.9L617.3 219.7L622.4 209.3L627.6 220.3L632.9 219.4L637.9 216.2L643.2 225.7L648.3 220.1L653.5 223.8L658.8 229.5L663.5 227.3L668.8 232.3L673.9 224.7L679.1 222L684.2 208L689.5 209.8L694.7 221.6L699.8 222.6L705 229.4L710.1 224L715.4 213.5L720.6 221.2L725.4 210.3L730.6 208.6L735.7 200.5L741 200.6L746.1 193.2L751.3 192.8L756.6 203.5L761.6 201.7L766.9 209.1L772 206.4L777.2 208.1L782.5 209.8L787.4 203.9L792.7 205.3L797.7 200.9L803 199.8L808.1 191L813.3 191.1L818.6 202.9L823.7 200.5L828.9 208.5L834 204.2"
                        stroke="rgb(73, 108, 58)"
                        stroke-opacity="0.7"
                        stroke-width="0.5"
                        fill="none"
                    ></path>
                    <path
                        id="South-America"
                        class="South-America-border"
                        stroke-linecap="round"
                        d="M467.8 202.1L473.1 210.9L477.8 210.3L483.1 201.8L488.1 197.1L493.4 196.2L498.5 188.5L503.7 188.9L509 198.5L514.1 194.5L519.3 199.8L524.4 194.4L529.7 197.3L534.9 222.9L539.8 228.1L545.1 276.5L550.2 271.2L555.4 257.5L560.5 238.3L565.8 230.4L571 235.3L576.1 230L581.3 231.4L586.4 226.8L591.7 236L596.9 247.9L601.7 223.5L606.9 220.6L612 218.3L617.3 216.7L622.4 205.4L627.6 216.3L632.9 215.3L637.9 211.8L643.2 221.1L648.3 214.9L653.5 218.7L658.8 225.3L663.5 222.5L668.8 227.7L673.9 219.8L679.1 217.5L684.2 202.6L689.5 204.6L694.7 216.7L699.8 217.4L705 224.3L710.1 218.4L715.4 207.8L720.6 216.4L725.4 205.1L730.6 203.7L735.7 195.2L741 195.5L746.1 187.6L751.3 187.3L756.6 198.3L761.6 196.4L766.9 203.8L772 200.6L777.2 202.3L782.5 204.6L787.4 198.4L792.7 200.1L797.7 195.7L803 194.6L808.1 185.1L813.3 185.4L818.6 197.3L823.7 194.7L828.9 202.8L834 198"
                        stroke="rgb(148, 44, 6)"
                        stroke-opacity="0.7"
                        stroke-width="0.5"
                        fill="none"
                    ></path>
                    <path
                        id="Oceania"
                        class="Oceania-border"
                        stroke-linecap="round"
                        d="M467.8 198.9L473.1 208L477.8 207.5L483.1 198.6L488.1 194L493.4 193.3L498.5 185.1L503.7 185.7L509 195.3L514.1 191.1L519.3 196.6L524.4 191.1L529.7 194L534.9 219.9L539.8 225.4L545.1 275.9L550.2 270.6L555.4 256.7L560.5 237.2L565.8 229.3L571 234.2L576.1 228.7L581.3 230.1L586.4 224.8L591.7 234.2L596.9 246.3L601.7 221.2L606.9 218.1L612 215.7L617.3 214.5L622.4 203.5L627.6 215.1L632.9 214L637.9 210.4L643.2 219.5L648.3 212.6L653.5 216.5L658.8 223.4L663.5 220L668.8 224.8L673.9 216.8L679.1 214.3L684.2 199.7L689.5 201.7L694.7 213.8L699.8 214.4L705 221.3L710.1 215.4L715.4 204.8L720.6 213.7L725.4 202L730.6 200.6L735.7 192.1L741 192.5L746.1 184.4L751.3 184.1L756.6 195.1L761.6 193.1L766.9 200.6L772 197.5L777.2 199.1L782.5 201.6L787.4 195.2L792.7 196.8L797.7 192.5L803 191.6L808.1 181.8L813.3 182.3L818.6 194.2L823.7 191.4L828.9 199.7L834 194.8"
                        stroke="rgb(148, 82, 17)"
                        stroke-opacity="0.7"
                        stroke-width="0.5"
                        fill="none"
                    ></path>
                    <path
                        id="Africa"
                        class="Africa-border"
                        stroke-linecap="round"
                        d="M467.8 198.1L473.1 207.3L477.8 206.7L483.1 197.7L488.1 193.2L493.4 192.4L498.5 184.3L503.7 184.8L509 194.3L514.1 190.2L519.3 195.7L524.4 190.1L529.7 193.1L534.9 219L539.8 224.7L545.1 275.9L550.2 270.5L555.4 256.6L560.5 237.1L565.8 229.1L571 233.9L576.1 228.3L581.3 229.6L586.4 224.2L591.7 233.8L596.9 245.9L601.7 220.6L606.9 217.5L612 215.1L617.3 213.9L622.4 203.1L627.6 214.5L632.9 213.4L637.9 209.7L643.2 218.7L648.3 211.8L653.5 215.7L658.8 222.7L663.5 219.1L668.8 223.9L673.9 216L679.1 213.6L684.2 198.9L689.5 201L694.7 213.1L699.8 213.6L705 220.6L710.1 214.6L715.4 204L720.6 212.9L725.4 201.1L730.6 199.7L735.7 191.2L741 191.7L746.1 183.5L751.3 183.2L756.6 194.2L761.6 192.2L766.9 199.8L772 196.5L777.2 198.2L782.5 200.8L787.4 194.3L792.7 195.9L797.7 191.7L803 190.7L808.1 180.9L813.3 181.4L818.6 193.3L823.7 191.1L828.9 199.3L834 194.4"
                        stroke="rgb(126, 0, 59)"
                        stroke-opacity="0.7"
                        stroke-width="0.5"
                        fill="none"
                    ></path>
                </g>
            </g>
        </g>
        <text x="50.8" y="354.2" text-anchor="start" font-size="15.75">
            <tspan x="50.8" font-weight="700" fill="#5b5b5b">
                Monthly CO₂ total emissions from aviation
            </tspan>
        </text>
        <g id="Monthly-CO₂-total-emissions-from-aviation">
            <g id="horizontal-axis" class="HorizontalAxis">
                <g id="tick-marks">
                    <line
                        id="Jan-15,-2019"
                        x1="51.3"
                        y1="497.375"
                        x2="51.3"
                        y2="502.875"
                        stroke="#999"
                        stroke-width="1"
                    ></line>
                    <line
                        id="Dec-15,-2024"
                        x1="416.5"
                        y1="497.375"
                        x2="416.5"
                        y2="502.875"
                        stroke="#999"
                        stroke-width="1"
                    ></line>
                    <line
                        id="Jun-4,-2021"
                        x1="198.4"
                        y1="497.375"
                        x2="198.4"
                        y2="502.875"
                        stroke="#999"
                        stroke-width="1"
                    ></line>
                    <line
                        id="Oct-17,-2022"
                        x1="283.1"
                        y1="497.375"
                        x2="283.1"
                        y2="502.875"
                        stroke="#999"
                        stroke-width="1"
                    ></line>
                </g>
                <g id="tick-labels">
                    <text
                        x="50.81"
                        y="513.875"
                        fill="#5b5b5b"
                        text-anchor="start"
                        font-size="11"
                    >
                        Jan 15, 2019
                    </text>
                    <text
                        x="417"
                        y="513.875"
                        fill="#5b5b5b"
                        text-anchor="end"
                        font-size="11"
                    >
                        Dec 15, 2024
                    </text>
                    <text
                        x="198.4"
                        y="513.875"
                        fill="#5b5b5b"
                        text-anchor="middle"
                        font-size="11"
                    >
                        Jun 4, 2021
                    </text>
                    <text
                        x="283.1"
                        y="513.875"
                        fill="#5b5b5b"
                        text-anchor="middle"
                        font-size="11"
                    >
                        Oct 17, 2022
                    </text>
                </g>
            </g>
            <g id="vertical-axis" class="VerticalAxis">
                <g id="tick-labels">
                    <text
                        x="45.81"
                        y="497.9"
                        dy=".32em"
                        text-anchor="end"
                        fill="#5b5b5b"
                        font-size="11"
                    >
                        0 t
                    </text>
                    <text
                        x="45.81"
                        y="466"
                        dy=".32em"
                        text-anchor="end"
                        fill="#5b5b5b"
                        font-size="11"
                    >
                        20M t
                    </text>
                    <text
                        x="45.81"
                        y="434.2"
                        dy=".32em"
                        text-anchor="end"
                        fill="#5b5b5b"
                        font-size="11"
                    >
                        40M t
                    </text>
                    <text
                        x="45.81"
                        y="402.4"
                        dy=".32em"
                        text-anchor="end"
                        fill="#5b5b5b"
                        font-size="11"
                    >
                        60M t
                    </text>
                </g>
            </g>
            <g id="horizontal-grid-lines" class="AxisGridLines horizontalLines">
                <line
                    id="0-t"
                    class="zero-line"
                    x1="50.81"
                    y1="497.9"
                    x2="417.00"
                    y2="497.9"
                    stroke="#999"
                ></line>
                <line
                    id="20M-t"
                    x1="50.81"
                    y1="466"
                    x2="417.00"
                    y2="466"
                    stroke="#ddd"
                    stroke-dasharray="4,4"
                ></line>
                <line
                    id="40M-t"
                    x1="50.81"
                    y1="434.2"
                    x2="417.00"
                    y2="434.2"
                    stroke="#ddd"
                    stroke-dasharray="4,4"
                ></line>
                <line
                    id="60M-t"
                    x1="50.81"
                    y1="402.4"
                    x2="417.00"
                    y2="402.4"
                    stroke="#ddd"
                    stroke-dasharray="4,4"
                ></line>
            </g>
            <g class="Areas" id="stacked-areas">
                <g id="areas">
                    <path
                        id="Europe"
                        class="Europe-area"
                        stroke-linecap="round"
                        d="M50.8 474.7L56.1 476.8L60.8 476L66.1 472.1L71.1 470L76.4 468.5L81.5 466.4L86.7 466.4L92 468.6L97.1 470L102.3 474.9L107.4 474.1L112.7 474.6L117.9 476.6L122.8 482.9L128.1 495.5L133.2 494.7L138.4 493.1L143.5 488.1L148.8 485L154 486.8L159.1 488L164.3 490.2L169.4 489.3L174.7 490.3L179.9 491.7L184.7 490.5L189.9 489.8L195 488.3L200.3 485.4L205.4 480.6L210.6 479.1L215.9 480.1L220.9 480L226.2 482.1L231.3 481L236.5 482.7L241.8 484.3L246.5 481.6L251.8 478.7L256.9 476.3L262.1 475.7L267.2 472.5L272.5 472.5L277.7 474.2L282.8 475L288 479.6L293.1 478.8L298.4 479.4L303.6 481.1L308.4 478.4L313.6 476.1L318.7 473.7L324 472.2L329.1 470L334.3 470L339.6 471.7L344.6 472.7L349.9 477.5L355 476.6L360.2 477.7L365.5 478.8L370.4 476.2L375.7 474.3L380.7 471.6L386 470.4L391.1 468.5L396.3 468.3L401.6 470.3L406.7 471.4L411.9 476.5L417 475.7L417 497.875L50.8 497.875"
                        fill="#4c6a9c"
                        fill-opacity="0.8"
                    ></path>
                    <path
                        id="North-America"
                        class="North-America-area"
                        stroke-linecap="round"
                        d="M50.8 443.8L56.1 449L60.8 446.3L66.1 440L71.1 436.5L76.4 434.4L81.5 430.5L86.7 430.8L92 436.6L97.1 437.3L102.3 444.3L107.4 440.8L112.7 442.9L117.9 447.7L122.8 457.6L128.1 488L133.2 486.3L138.4 482.6L143.5 473.4L148.8 469.3L154 472.4L159.1 471.9L164.3 473.2L169.4 471.2L174.7 473.4L179.9 476.8L184.7 470.8L189.9 469.9L195 466.7L200.3 461.9L205.4 454.6L210.6 453L215.9 455.6L220.9 454.2L226.2 456.3L231.3 453.9L236.5 457.4L241.8 461.2L246.5 454.1L251.8 451.5L256.9 447.9L262.1 448.4L267.2 442.1L272.5 442.2L277.7 446.1L282.8 446.3L288 452.1L293.1 450.3L298.4 451.1L303.6 455.2L308.4 448.4L313.6 446.7L318.7 442.9L324 441L329.1 436.9L334.3 437L339.6 441.1L344.6 441.1L349.9 447.4L355 444.9L360.2 447.9L365.5 450.4L370.4 444.2L375.7 442.8L380.7 438.5L386 436.8L391.1 433.6L396.3 434.2L401.6 438.8L406.7 438.9L411.9 445.8L417 443L417 475.7L411.9 476.5L406.7 471.4L401.6 470.3L396.3 468.3L391.1 468.5L386 470.4L380.7 471.6L375.7 474.3L370.4 476.2L365.5 478.8L360.2 477.7L355 476.6L349.9 477.5L344.6 472.7L339.6 471.7L334.3 470L329.1 470L324 472.2L318.7 473.7L313.6 476.1L308.4 478.4L303.6 481.1L298.4 479.4L293.1 478.8L288 479.6L282.8 475L277.7 474.2L272.5 472.5L267.2 472.5L262.1 475.7L256.9 476.3L251.8 478.7L246.5 481.6L241.8 484.3L236.5 482.7L231.3 481L226.2 482.1L220.9 480L215.9 480.1L210.6 479.1L205.4 480.6L200.3 485.4L195 488.3L189.9 489.8L184.7 490.5L179.9 491.7L174.7 490.3L169.4 489.3L164.3 490.2L159.1 488L154 486.8L148.8 485L143.5 488.1L138.4 493.1L133.2 494.7L128.1 495.5L122.8 482.9L117.9 476.6L112.7 474.6L107.4 474.1L102.3 474.9L97.1 470L92 468.6L86.7 466.4L81.5 466.4L76.4 468.5L71.1 470L66.1 472.1L60.8 476L56.1 476.8L50.8 474.7"
                        fill="#883039"
                        fill-opacity="0.8"
                    ></path>
                    <path
                        id="Asia"
                        class="Asia-area"
                        stroke-linecap="round"
                        d="M50.8 398.7L56.1 407.7L60.8 405.8L66.1 396.5L71.1 392L76.4 389.7L81.5 382.6L86.7 382.7L92 391.4L97.1 391.1L102.3 399.9L107.4 394.5L112.7 395.7L117.9 415.9L122.8 434.7L128.1 478.5L133.2 473.1L138.4 467.2L143.5 455.7L148.8 449.6L154 452.2L159.1 449.9L164.3 451L169.4 447.7L174.7 452.7L179.9 459.3L184.7 446.6L189.9 445.2L195 443.4L200.3 440.3L205.4 430.2L210.6 432L215.9 432.2L220.9 428.9L226.2 433.7L231.3 428.7L236.5 432.6L241.8 438.5L246.5 431.4L251.8 430.5L256.9 424.1L262.1 423.2L267.2 411.5L272.5 411.9L277.7 419L282.8 419.2L288 425.9L293.1 420.9L298.4 417.2L303.6 424.7L308.4 414.6L313.6 410.9L318.7 403.9L324 401.9L329.1 394.4L334.3 394L339.6 401.2L344.6 400.5L349.9 408.8L355 404.2L360.2 405.9L365.5 409.8L370.4 402.5L375.7 402L380.7 396.1L386 394.4L391.1 387.4L396.3 387.4L401.6 396L406.7 395.8L411.9 404.9L417 400L417 443L411.9 445.8L406.7 438.9L401.6 438.8L396.3 434.2L391.1 433.6L386 436.8L380.7 438.5L375.7 442.8L370.4 444.2L365.5 450.4L360.2 447.9L355 444.9L349.9 447.4L344.6 441.1L339.6 441.1L334.3 437L329.1 436.9L324 441L318.7 442.9L313.6 446.7L308.4 448.4L303.6 455.2L298.4 451.1L293.1 450.3L288 452.1L282.8 446.3L277.7 446.1L272.5 442.2L267.2 442.1L262.1 448.4L256.9 447.9L251.8 451.5L246.5 454.1L241.8 461.2L236.5 457.4L231.3 453.9L226.2 456.3L220.9 454.2L215.9 455.6L210.6 453L205.4 454.6L200.3 461.9L195 466.7L189.9 469.9L184.7 470.8L179.9 476.8L174.7 473.4L169.4 471.2L164.3 473.2L159.1 471.9L154 472.4L148.8 469.3L143.5 473.4L138.4 482.6L133.2 486.3L128.1 488L122.8 457.6L117.9 447.7L112.7 442.9L107.4 440.8L102.3 444.3L97.1 437.3L92 436.6L86.7 430.8L81.5 430.5L76.4 434.4L71.1 436.5L66.1 440L60.8 446.3L56.1 449L50.8 443.8"
                        fill="#578145"
                        fill-opacity="0.8"
                    ></path>
                    <path
                        id="South-America"
                        class="South-America-area"
                        stroke-linecap="round"
                        d="M50.8 394.2L56.1 403.7L60.8 402L66.1 392.5L71.1 388.1L76.4 385.8L81.5 378.2L86.7 378.4L92 387.3L97.1 386.9L102.3 395.8L107.4 390.2L112.7 391.1L117.9 411.7L122.8 431.7L128.1 478.1L133.2 472.6L138.4 466.7L143.5 454.9L148.8 448.7L154 451.1L159.1 448.5L164.3 449.2L169.4 445.5L174.7 450.3L179.9 457.4L184.7 444.7L189.9 443.5L195 441.6L200.3 438.3L205.4 427.7L210.6 429.5L215.9 429.6L220.9 426.1L226.2 430.7L231.3 425.3L236.5 429.1L241.8 435.5L246.5 428.1L251.8 427.1L256.9 420.6L262.1 419.9L267.2 407.7L272.5 408.2L277.7 415.5L282.8 415.4L288 422.1L293.1 416.8L298.4 413L303.6 421L308.4 410.7L313.6 407.2L318.7 400L324 398.1L329.1 390.2L334.3 389.9L339.6 397.3L344.6 396.5L349.9 404.7L355 399.8L360.2 401.4L365.5 405.7L370.4 398.3L375.7 397.9L380.7 392L386 390.3L391.1 382.9L396.3 383.1L401.6 391.7L406.7 391.5L411.9 400.6L417 395.3L417 400L411.9 404.9L406.7 395.8L401.6 396L396.3 387.4L391.1 387.4L386 394.4L380.7 396.1L375.7 402L370.4 402.5L365.5 409.8L360.2 405.9L355 404.2L349.9 408.8L344.6 400.5L339.6 401.2L334.3 394L329.1 394.4L324 401.9L318.7 403.9L313.6 410.9L308.4 414.6L303.6 424.7L298.4 417.2L293.1 420.9L288 425.9L282.8 419.2L277.7 419L272.5 411.9L267.2 411.5L262.1 423.2L256.9 424.1L251.8 430.5L246.5 431.4L241.8 438.5L236.5 432.6L231.3 428.7L226.2 433.7L220.9 428.9L215.9 432.2L210.6 432L205.4 430.2L200.3 440.3L195 443.4L189.9 445.2L184.7 446.6L179.9 459.3L174.7 452.7L169.4 447.7L164.3 451L159.1 449.9L154 452.2L148.8 449.6L143.5 455.7L138.4 467.2L133.2 473.1L128.1 478.5L122.8 434.7L117.9 415.9L112.7 395.7L107.4 394.5L102.3 399.9L97.1 391.1L92 391.4L86.7 382.7L81.5 382.6L76.4 389.7L71.1 392L66.1 396.5L60.8 405.8L56.1 407.7L50.8 398.7"
                        fill="#b13507"
                        fill-opacity="0.8"
                    ></path>
                    <path
                        id="Oceania"
                        class="Oceania-area"
                        stroke-linecap="round"
                        d="M50.8 390.2L56.1 400.1L60.8 398.6L66.1 388.9L71.1 384.6L76.4 382.3L81.5 374.5L86.7 374.8L92 383.8L97.1 383.2L102.3 392.2L107.4 386.2L112.7 387L117.9 408.4L122.8 429L128.1 477.4L133.2 471.8L138.4 465.9L143.5 454L148.8 447.8L154 450.2L159.1 447.4L164.3 448.2L169.4 444.1L174.7 449.1L179.9 456.3L184.7 443.3L189.9 442L195 440L200.3 436.9L205.4 426.4L210.6 428.5L215.9 428.6L220.9 425L226.2 429.5L231.3 423.7L236.5 427.5L241.8 434L246.5 426.2L251.8 425L256.9 418.4L262.1 417.7L267.2 405.3L272.5 405.8L277.7 413.2L282.8 413L288 419.6L293.1 414L298.4 410.2L303.6 418.5L308.4 407.8L313.6 404.3L318.7 397L324 395.2L329.1 387.1L334.3 386.8L339.6 394.2L344.6 393.3L349.9 401.5L355 396.2L360.2 397.8L365.5 402.5L370.4 394.9L375.7 394.7L380.7 388.8L386 387.2L391.1 379.6L396.3 379.8L401.6 388.5L406.7 388.1L411.9 397.3L417 391.6L417 395.3L411.9 400.6L406.7 391.5L401.6 391.7L396.3 383.1L391.1 382.9L386 390.3L380.7 392L375.7 397.9L370.4 398.3L365.5 405.7L360.2 401.4L355 399.8L349.9 404.7L344.6 396.5L339.6 397.3L334.3 389.9L329.1 390.2L324 398.1L318.7 400L313.6 407.2L308.4 410.7L303.6 421L298.4 413L293.1 416.8L288 422.1L282.8 415.4L277.7 415.5L272.5 408.2L267.2 407.7L262.1 419.9L256.9 420.6L251.8 427.1L246.5 428.1L241.8 435.5L236.5 429.1L231.3 425.3L226.2 430.7L220.9 426.1L215.9 429.6L210.6 429.5L205.4 427.7L200.3 438.3L195 441.6L189.9 443.5L184.7 444.7L179.9 457.4L174.7 450.3L169.4 445.5L164.3 449.2L159.1 448.5L154 451.1L148.8 448.7L143.5 454.9L138.4 466.7L133.2 472.6L128.1 478.1L122.8 431.7L117.9 411.7L112.7 391.1L107.4 390.2L102.3 395.8L97.1 386.9L92 387.3L86.7 378.4L81.5 378.2L76.4 385.8L71.1 388.1L66.1 392.5L60.8 402L56.1 403.7L50.8 394.2"
                        fill="#b16214"
                        fill-opacity="0.8"
                    ></path>
                    <path
                        id="Africa"
                        class="Africa-area"
                        stroke-linecap="round"
                        d="M50.8 386.9L56.1 397.3L60.8 395.7L66.1 385.8L71.1 381.5L76.4 379.1L81.5 370.9L86.7 371.2L92 380.5L97.1 379.9L102.3 389.1L107.4 382.7L112.7 383.5L117.9 405.3L122.8 426.9L128.1 477.2L133.2 471.5L138.4 465.5L143.5 453.4L148.8 447L154 449.3L159.1 446.2L164.3 446.9L169.4 442.6L174.7 447.7L179.9 455.1L184.7 441.9L189.9 440.6L195 438.6L200.3 435.3L205.4 424.6L210.6 426.5L215.9 426.7L220.9 423L226.2 427.3L231.3 421.5L236.5 425.5L241.8 432L246.5 423.8L251.8 422.6L256.9 415.8L262.1 415.1L267.2 402.4L272.5 402.9L277.7 410.4L282.8 410.2L288 416.9L293.1 411L298.4 407.2L303.6 415.9L308.4 404.9L313.6 401.4L318.7 394L324 392.1L329.1 383.7L334.3 383.4L339.6 391.1L344.6 390L349.9 398.3L355 392.9L360.2 394.5L365.5 399.4L370.4 391.7L375.7 391.6L380.7 385.6L386 383.9L391.1 376.1L396.3 376.3L401.6 385.2L406.7 385.4L411.9 394.6L417 388.7L417 391.6L411.9 397.3L406.7 388.1L401.6 388.5L396.3 379.8L391.1 379.6L386 387.2L380.7 388.8L375.7 394.7L370.4 394.9L365.5 402.5L360.2 397.8L355 396.2L349.9 401.5L344.6 393.3L339.6 394.2L334.3 386.8L329.1 387.1L324 395.2L318.7 397L313.6 404.3L308.4 407.8L303.6 418.5L298.4 410.2L293.1 414L288 419.6L282.8 413L277.7 413.2L272.5 405.8L267.2 405.3L262.1 417.7L256.9 418.4L251.8 425L246.5 426.2L241.8 434L236.5 427.5L231.3 423.7L226.2 429.5L220.9 425L215.9 428.6L210.6 428.5L205.4 426.4L200.3 436.9L195 440L189.9 442L184.7 443.3L179.9 456.3L174.7 449.1L169.4 444.1L164.3 448.2L159.1 447.4L154 450.2L148.8 447.8L143.5 454L138.4 465.9L133.2 471.8L128.1 477.4L122.8 429L117.9 408.4L112.7 387L107.4 386.2L102.3 392.2L97.1 383.2L92 383.8L86.7 374.8L81.5 374.5L76.4 382.3L71.1 384.6L66.1 388.9L60.8 398.6L56.1 400.1L50.8 390.2"
                        fill="#970046"
                        fill-opacity="0.8"
                    ></path>
                </g>
                <g id="borders">
                    <path
                        id="Europe"
                        class="Europe-border"
                        stroke-linecap="round"
                        d="M50.8 474.7L56.1 476.8L60.8 476L66.1 472.1L71.1 470L76.4 468.5L81.5 466.4L86.7 466.4L92 468.6L97.1 470L102.3 474.9L107.4 474.1L112.7 474.6L117.9 476.6L122.8 482.9L128.1 495.5L133.2 494.7L138.4 493.1L143.5 488.1L148.8 485L154 486.8L159.1 488L164.3 490.2L169.4 489.3L174.7 490.3L179.9 491.7L184.7 490.5L189.9 489.8L195 488.3L200.3 485.4L205.4 480.6L210.6 479.1L215.9 480.1L220.9 480L226.2 482.1L231.3 481L236.5 482.7L241.8 484.3L246.5 481.6L251.8 478.7L256.9 476.3L262.1 475.7L267.2 472.5L272.5 472.5L277.7 474.2L282.8 475L288 479.6L293.1 478.8L298.4 479.4L303.6 481.1L308.4 478.4L313.6 476.1L318.7 473.7L324 472.2L329.1 470L334.3 470L339.6 471.7L344.6 472.7L349.9 477.5L355 476.6L360.2 477.7L365.5 478.8L370.4 476.2L375.7 474.3L380.7 471.6L386 470.4L391.1 468.5L396.3 468.3L401.6 470.3L406.7 471.4L411.9 476.5L417 475.7"
                        stroke="rgb(64, 89, 131)"
                        stroke-opacity="0.7"
                        stroke-width="0.5"
                        fill="none"
                    ></path>
                    <path
                        id="North-America"
                        class="North-America-border"
                        stroke-linecap="round"
                        d="M50.8 443.8L56.1 449L60.8 446.3L66.1 440L71.1 436.5L76.4 434.4L81.5 430.5L86.7 430.8L92 436.6L97.1 437.3L102.3 444.3L107.4 440.8L112.7 442.9L117.9 447.7L122.8 457.6L128.1 488L133.2 486.3L138.4 482.6L143.5 473.4L148.8 469.3L154 472.4L159.1 471.9L164.3 473.2L169.4 471.2L174.7 473.4L179.9 476.8L184.7 470.8L189.9 469.9L195 466.7L200.3 461.9L205.4 454.6L210.6 453L215.9 455.6L220.9 454.2L226.2 456.3L231.3 453.9L236.5 457.4L241.8 461.2L246.5 454.1L251.8 451.5L256.9 447.9L262.1 448.4L267.2 442.1L272.5 442.2L277.7 446.1L282.8 446.3L288 452.1L293.1 450.3L298.4 451.1L303.6 455.2L308.4 448.4L313.6 446.7L318.7 442.9L324 441L329.1 436.9L334.3 437L339.6 441.1L344.6 441.1L349.9 447.4L355 444.9L360.2 447.9L365.5 450.4L370.4 444.2L375.7 442.8L380.7 438.5L386 436.8L391.1 433.6L396.3 434.2L401.6 438.8L406.7 438.9L411.9 445.8L417 443"
                        stroke="rgb(114, 40, 48)"
                        stroke-opacity="0.7"
                        stroke-width="0.5"
                        fill="none"
                    ></path>
                    <path
                        id="Asia"
                        class="Asia-border"
                        stroke-linecap="round"
                        d="M50.8 398.7L56.1 407.7L60.8 405.8L66.1 396.5L71.1 392L76.4 389.7L81.5 382.6L86.7 382.7L92 391.4L97.1 391.1L102.3 399.9L107.4 394.5L112.7 395.7L117.9 415.9L122.8 434.7L128.1 478.5L133.2 473.1L138.4 467.2L143.5 455.7L148.8 449.6L154 452.2L159.1 449.9L164.3 451L169.4 447.7L174.7 452.7L179.9 459.3L184.7 446.6L189.9 445.2L195 443.4L200.3 440.3L205.4 430.2L210.6 432L215.9 432.2L220.9 428.9L226.2 433.7L231.3 428.7L236.5 432.6L241.8 438.5L246.5 431.4L251.8 430.5L256.9 424.1L262.1 423.2L267.2 411.5L272.5 411.9L277.7 419L282.8 419.2L288 425.9L293.1 420.9L298.4 417.2L303.6 424.7L308.4 414.6L313.6 410.9L318.7 403.9L324 401.9L329.1 394.4L334.3 394L339.6 401.2L344.6 400.5L349.9 408.8L355 404.2L360.2 405.9L365.5 409.8L370.4 402.5L375.7 402L380.7 396.1L386 394.4L391.1 387.4L396.3 387.4L401.6 396L406.7 395.8L411.9 404.9L417 400"
                        stroke="rgb(73, 108, 58)"
                        stroke-opacity="0.7"
                        stroke-width="0.5"
                        fill="none"
                    ></path>
                    <path
                        id="South-America"
                        class="South-America-border"
                        stroke-linecap="round"
                        d="M50.8 394.2L56.1 403.7L60.8 402L66.1 392.5L71.1 388.1L76.4 385.8L81.5 378.2L86.7 378.4L92 387.3L97.1 386.9L102.3 395.8L107.4 390.2L112.7 391.1L117.9 411.7L122.8 431.7L128.1 478.1L133.2 472.6L138.4 466.7L143.5 454.9L148.8 448.7L154 451.1L159.1 448.5L164.3 449.2L169.4 445.5L174.7 450.3L179.9 457.4L184.7 444.7L189.9 443.5L195 441.6L200.3 438.3L205.4 427.7L210.6 429.5L215.9 429.6L220.9 426.1L226.2 430.7L231.3 425.3L236.5 429.1L241.8 435.5L246.5 428.1L251.8 427.1L256.9 420.6L262.1 419.9L267.2 407.7L272.5 408.2L277.7 415.5L282.8 415.4L288 422.1L293.1 416.8L298.4 413L303.6 421L308.4 410.7L313.6 407.2L318.7 400L324 398.1L329.1 390.2L334.3 389.9L339.6 397.3L344.6 396.5L349.9 404.7L355 399.8L360.2 401.4L365.5 405.7L370.4 398.3L375.7 397.9L380.7 392L386 390.3L391.1 382.9L396.3 383.1L401.6 391.7L406.7 391.5L411.9 400.6L417 395.3"
                        stroke="rgb(148, 44, 6)"
                        stroke-opacity="0.7"
                        stroke-width="0.5"
                        fill="none"
                    ></path>
                    <path
                        id="Oceania"
                        class="Oceania-border"
                        stroke-linecap="round"
                        d="M50.8 390.2L56.1 400.1L60.8 398.6L66.1 388.9L71.1 384.6L76.4 382.3L81.5 374.5L86.7 374.8L92 383.8L97.1 383.2L102.3 392.2L107.4 386.2L112.7 387L117.9 408.4L122.8 429L128.1 477.4L133.2 471.8L138.4 465.9L143.5 454L148.8 447.8L154 450.2L159.1 447.4L164.3 448.2L169.4 444.1L174.7 449.1L179.9 456.3L184.7 443.3L189.9 442L195 440L200.3 436.9L205.4 426.4L210.6 428.5L215.9 428.6L220.9 425L226.2 429.5L231.3 423.7L236.5 427.5L241.8 434L246.5 426.2L251.8 425L256.9 418.4L262.1 417.7L267.2 405.3L272.5 405.8L277.7 413.2L282.8 413L288 419.6L293.1 414L298.4 410.2L303.6 418.5L308.4 407.8L313.6 404.3L318.7 397L324 395.2L329.1 387.1L334.3 386.8L339.6 394.2L344.6 393.3L349.9 401.5L355 396.2L360.2 397.8L365.5 402.5L370.4 394.9L375.7 394.7L380.7 388.8L386 387.2L391.1 379.6L396.3 379.8L401.6 388.5L406.7 388.1L411.9 397.3L417 391.6"
                        stroke="rgb(148, 82, 17)"
                        stroke-opacity="0.7"
                        stroke-width="0.5"
                        fill="none"
                    ></path>
                    <path
                        id="Africa"
                        class="Africa-border"
                        stroke-linecap="round"
                        d="M50.8 386.9L56.1 397.3L60.8 395.7L66.1 385.8L71.1 381.5L76.4 379.1L81.5 370.9L86.7 371.2L92 380.5L97.1 379.9L102.3 389.1L107.4 382.7L112.7 383.5L117.9 405.3L122.8 426.9L128.1 477.2L133.2 471.5L138.4 465.5L143.5 453.4L148.8 447L154 449.3L159.1 446.2L164.3 446.9L169.4 442.6L174.7 447.7L179.9 455.1L184.7 441.9L189.9 440.6L195 438.6L200.3 435.3L205.4 424.6L210.6 426.5L215.9 426.7L220.9 423L226.2 427.3L231.3 421.5L236.5 425.5L241.8 432L246.5 423.8L251.8 422.6L256.9 415.8L262.1 415.1L267.2 402.4L272.5 402.9L277.7 410.4L282.8 410.2L288 416.9L293.1 411L298.4 407.2L303.6 415.9L308.4 404.9L313.6 401.4L318.7 394L324 392.1L329.1 383.7L334.3 383.4L339.6 391.1L344.6 390L349.9 398.3L355 392.9L360.2 394.5L365.5 399.4L370.4 391.7L375.7 391.6L380.7 385.6L386 383.9L391.1 376.1L396.3 376.3L401.6 385.2L406.7 385.4L411.9 394.6L417 388.7"
                        stroke="rgb(126, 0, 59)"
                        stroke-opacity="0.7"
                        stroke-width="0.5"
                        fill="none"
                    ></path>
                </g>
            </g>
        </g>
    </g>
    <g id="footer" class="SourcesFooter" style="fill: #767676">
        <g id="sources" class="markdown-text-wrap">
            <text x="16.0" y="545.3" style="font-size: 13px; line-height: 1.2">
                <tspan x="16" y="545.3">
                    <tspan style="font-weight: 700">Data source:</tspan>
                    OECD (2025)
                </tspan>
            </text>
        </g>
        <g id="note" class="markdown-text-wrap">
            <text x="16.0" y="565.4" style="font-size: 13px; line-height: 1.2">
                <tspan x="16" y="565.4">
                    <tspan style="font-weight: 700">Note:</tspan>
                    Data on aviation emissions is missing for some countries, so
                    actual global and regional emissions are higher. Regional
                    emissions are
                </tspan>
                <tspan x="16" y="581.0">
                    shown to highlight trends over time and should not be
                    compared.
                </tspan>
            </text>
        </g>
        <text id="origin-url" font-size="13.00" x="619.1" y="545.3">
            <tspan x="619.11" y="545.3100000000001">
                <a
                    style="fill: #767676"
                    href="https://ourworldindata.org/tourism"
                >
                    OurWorldinData.org/tourism
                </a>
                |
                <a
                    style="fill: #767676"
                    href="https://creativecommons.org/licenses/by/4.0/"
                >
                    CC BY
                </a>
            </tspan>
        </text>
    </g>
</svg>
