<svg xmlns="http://www.w3.org/2000/svg" version="1.1" style="font-family:Lato, &#x27;Helvetica Neue&#x27;, Helvetica, Arial, &#x27;Liberation Sans&#x27;, sans-serif;font-size:18px;background-color:white;text-rendering:geometricPrecision;-webkit-font-smoothing:antialiased" width="850" height="600" viewBox="0 0 850 600"><defs><style>@import url(https://ourworldindata.org/fonts.css)</style></defs><defs><pattern id="noDataPattern" patternUnits="userSpaceOnUse" width="4" height="4" patternTransform="rotate(-45 2 2)"><path d="M -1,2 l 6,0" stroke="#ccc" stroke-width="0.7"></path></pattern></defs><rect class="background-fill" fill="white" width="850" height="600"></rect><g id="header" class="HeaderView"><g id="logo" transform="translate(769, 16) scale(1)"><svg className="owidLogo" xmlns="http://www.w3.org/2000/svg" width="65" height="36" viewBox="0 0 65 36"  fill="none"><path fill="#002147" d="M0 0h64.8v36H0z"/><path fill="#CE261E" d="M0 33.3h64.8V36H0z"/><path fill="#fff" d="M13.796 10.575c0 .636-.106 1.226-.318 1.77a4.193 4.193 0 0 1-.894 1.404 4.084 4.084 0 0 1-1.386.93c-.54.22-1.138.33-1.794.33-.656 0-1.256-.11-1.8-.33a4.149 4.149 0 0 1-1.392-.93 4.193 4.193 0 0 1-.894-1.404A4.833 4.833 0 0 1 5 10.575c0-.636.106-1.224.318-1.764a4.18 4.18 0 0 1 .894-1.41 4.076 4.076 0 0 1 1.392-.924 4.684 4.684 0 0 1 1.8-.336c.656 0 1.254.112 1.794.336.54.224 1.002.534 1.386.93.384.392.682.86.894 1.404.212.54.318 1.128.318 1.764Zm-1.656 0c0-.476-.064-.902-.192-1.278a2.671 2.671 0 0 0-.54-.966 2.332 2.332 0 0 0-.864-.606 2.94 2.94 0 0 0-1.14-.21c-.424 0-.806.07-1.146.21-.34.14-.63.342-.87.606a2.742 2.742 0 0 0-.546.966 3.955 3.955 0 0 0-.192 1.278c0 .476.064.904.192 1.284.128.376.31.696.546.96.24.26.53.46.87.6.34.14.722.21 1.146.21.424 0 .804-.07 1.14-.21.34-.14.628-.34.864-.6.236-.264.416-.584.54-.96a4.01 4.01 0 0 0 .192-1.284ZM16.104 8.757v3.912c0 .376.086.668.258.876.176.204.438.306.786.306.256 0 .496-.056.72-.168a2.58 2.58 0 0 0 .636-.474V8.757h1.482v6.156h-.906c-.192 0-.318-.09-.378-.27l-.102-.492a4.65 4.65 0 0 1-.396.354 2.577 2.577 0 0 1-.438.27 2.35 2.35 0 0 1-.498.168 2.345 2.345 0 0 1-.57.066c-.336 0-.634-.056-.894-.168a1.821 1.821 0 0 1-.648-.486 2.157 2.157 0 0 1-.402-.738 3.233 3.233 0 0 1-.132-.948V8.757h1.482ZM21.328 14.913V8.757h.87c.152 0 .258.028.318.084.06.056.1.152.12.288l.09.744c.22-.38.478-.68.774-.9.296-.22.628-.33.996-.33.304 0 .556.07.756.21l-.192 1.11c-.012.072-.038.124-.078.156a.278.278 0 0 1-.162.042 1.01 1.01 0 0 1-.246-.042 1.646 1.646 0 0 0-.414-.042c-.308 0-.572.086-.792.258-.22.168-.406.416-.558.744v3.834h-1.482ZM27.347 6.237h1.356a.57.57 0 0 1 .348.102c.096.064.16.152.192.264l1.476 5.19c.036.128.068.268.096.42.032.148.062.306.09.474a5.968 5.968 0 0 1 .228-.894l1.704-5.19a.575.575 0 0 1 .186-.252.543.543 0 0 1 .348-.114h.474a.57.57 0 0 1 .348.102.497.497 0 0 1 .192.264l1.692 5.19c.088.256.164.54.228.852.028-.156.056-.306.084-.45.032-.144.064-.278.096-.402l1.476-5.19c.028-.1.09-.186.186-.258a.563.563 0 0 1 .348-.108h1.266l-2.694 8.676h-1.458l-1.896-5.928-.078-.246a9.504 9.504 0 0 1-.072-.282c-.024.1-.05.194-.078.282-.024.088-.048.17-.072.246l-1.914 5.928H30.04l-2.694-8.676ZM42.771 8.661c.46 0 .876.074 1.248.222.376.148.696.358.96.63s.468.604.612.996c.144.392.216.83.216 1.314 0 .488-.072.928-.216 1.32a2.85 2.85 0 0 1-.612 1.002 2.653 2.653 0 0 1-.96.636 3.35 3.35 0 0 1-1.248.222c-.46 0-.878-.074-1.254-.222a2.712 2.712 0 0 1-.966-.636 2.922 2.922 0 0 1-.618-1.002 3.807 3.807 0 0 1-.216-1.32c0-.484.072-.922.216-1.314.148-.392.354-.724.618-.996.268-.272.59-.482.966-.63a3.397 3.397 0 0 1 1.254-.222Zm0 5.202c.512 0 .89-.172 1.134-.516.248-.344.372-.848.372-1.512s-.124-1.17-.372-1.518c-.244-.348-.622-.522-1.134-.522-.52 0-.904.176-1.152.528-.248.348-.372.852-.372 1.512s.124 1.164.372 1.512c.248.344.632.516 1.152.516ZM46.723 14.913V8.757h.87c.152 0 .258.028.318.084.06.056.1.152.12.288l.09.744c.22-.38.478-.68.774-.9.296-.22.628-.33.996-.33.304 0 .556.07.756.21l-.192 1.11c-.012.072-.038.124-.078.156a.278.278 0 0 1-.162.042 1.01 1.01 0 0 1-.246-.042 1.646 1.646 0 0 0-.414-.042c-.308 0-.572.086-.792.258-.22.168-.406.416-.558.744v3.834h-1.482ZM52.96 5.997v8.916h-1.482V5.997h1.482ZM58.732 14.913c-.192 0-.318-.09-.378-.27l-.12-.594a3.68 3.68 0 0 1-.402.39c-.14.116-.292.216-.456.3-.16.084-.334.148-.522.192a2.372 2.372 0 0 1-.6.072c-.336 0-.644-.07-.924-.21a2.098 2.098 0 0 1-.726-.606 3.033 3.033 0 0 1-.468-.99 5.072 5.072 0 0 1-.162-1.344c0-.456.062-.88.186-1.272s.302-.732.534-1.02c.232-.288.51-.512.834-.672a2.384 2.384 0 0 1 1.092-.246 2.103 2.103 0 0 1 1.536.606V5.997h1.482v8.916h-.906Zm-1.974-1.086c.308 0 .57-.064.786-.192.216-.128.42-.31.612-.546v-2.76a1.452 1.452 0 0 0-.552-.432 1.597 1.597 0 0 0-.636-.126c-.224 0-.428.042-.612.126a1.21 1.21 0 0 0-.462.384c-.124.168-.22.384-.288.648-.068.26-.102.568-.102.924 0 .36.028.666.084.918.06.248.144.452.252.612.108.156.24.27.396.342.156.068.33.102.522.102ZM16.331 20.757v6.156H14.85v-6.156h1.481Zm.223-1.794a.844.844 0 0 1-.078.36.963.963 0 0 1-.21.294.995.995 0 0 1-.3.204.963.963 0 0 1-.372.072.948.948 0 0 1-.367-.072 1.018 1.018 0 0 1-.498-.498.963.963 0 0 1 0-.732.995.995 0 0 1 .205-.3.929.929 0 0 1 .293-.198.899.899 0 0 1 .738 0 .912.912 0 0 1 .3.198.943.943 0 0 1 .288.672ZM17.771 26.913v-6.156h.906c.192 0 .318.09.378.27l.102.486a2.934 2.934 0 0 1 .828-.618c.156-.076.322-.134.498-.174.176-.04.368-.06.576-.06.336 0 .634.058.894.174.26.112.476.272.648.48.176.204.308.45.396.738.092.284.138.598.138.942v3.918h-1.482v-3.918c0-.376-.088-.666-.264-.87-.172-.208-.432-.312-.78-.312-.256 0-.496.058-.72.174a2.58 2.58 0 0 0-.636.474v4.452h-1.482ZM34.22 22.575c0 .636-.106 1.22-.318 1.752-.212.532-.51.99-.894 1.374a4 4 0 0 1-1.386.894 4.87 4.87 0 0 1-1.794.318h-3.312v-8.676h3.312a4.79 4.79 0 0 1 1.794.324 4 4 0 0 1 1.386.894c.384.38.682.836.894 1.368.212.532.318 1.116.318 1.752Zm-1.65 0c0-.476-.064-.902-.192-1.278a2.68 2.68 0 0 0-.546-.96 2.332 2.332 0 0 0-.864-.606 2.94 2.94 0 0 0-1.14-.21h-1.686v6.108h1.686c.424 0 .804-.07 1.14-.21.34-.14.628-.34.864-.6a2.75 2.75 0 0 0 .546-.96 4.01 4.01 0 0 0 .192-1.284ZM39.98 26.913h-.665c-.14 0-.25-.02-.33-.06-.08-.044-.14-.13-.18-.258l-.132-.438c-.156.14-.31.264-.462.372a2.804 2.804 0 0 1-.462.264c-.16.072-.33.126-.51.162-.18.036-.38.054-.6.054-.26 0-.5-.034-.72-.102a1.618 1.618 0 0 1-.57-.318 1.448 1.448 0 0 1-.366-.522 1.852 1.852 0 0 1-.132-.726c0-.232.06-.46.18-.684.124-.228.328-.432.612-.612.284-.184.662-.336 1.134-.456.472-.12 1.058-.188 1.758-.204v-.36c0-.412-.088-.716-.264-.912-.172-.2-.424-.3-.756-.3a1.837 1.837 0 0 0-1.02.276c-.116.068-.224.13-.324.186a.664.664 0 0 1-.33.084.429.429 0 0 1-.258-.078.614.614 0 0 1-.174-.192l-.27-.474c.708-.648 1.562-.972 2.562-.972.36 0 .68.06.96.18.284.116.524.28.72.492.196.208.344.458.444.75.104.292.156.612.156.96v3.888Zm-2.88-.924c.153 0 .293-.014.42-.042.129-.028.249-.07.36-.126.117-.056.227-.124.33-.204.109-.084.217-.182.325-.294v-1.038c-.432.02-.794.058-1.086.114-.288.052-.52.12-.696.204a.923.923 0 0 0-.378.294.664.664 0 0 0-.108.366c0 .26.076.446.228.558.156.112.358.168.606.168ZM43.22 27.01c-.532 0-.942-.15-1.23-.45-.288-.305-.432-.723-.432-1.255v-3.438h-.624a.31.31 0 0 1-.21-.078c-.056-.052-.084-.13-.084-.234v-.588l.99-.162.312-1.68a.302.302 0 0 1 .108-.186.365.365 0 0 1 .222-.066h.768v1.938h1.62v1.056h-1.62v3.336c0 .192.048.342.144.45a.488.488 0 0 0 .384.162c.092 0 .168-.01.228-.03.064-.024.118-.048.162-.072.048-.024.09-.046.126-.066a.194.194 0 0 1 .108-.036.16.16 0 0 1 .108.036c.028.02.058.052.09.096l.444.72c-.216.18-.464.316-.744.408a2.77 2.77 0 0 1-.87.138ZM50.423 26.913h-.666c-.14 0-.25-.02-.33-.06-.08-.044-.14-.13-.18-.258l-.132-.438c-.156.14-.31.264-.462.372a2.804 2.804 0 0 1-.462.264c-.16.072-.33.126-.51.162-.18.036-.38.054-.6.054-.26 0-.5-.034-.72-.102a1.618 1.618 0 0 1-.57-.318 1.448 1.448 0 0 1-.366-.522 1.852 1.852 0 0 1-.132-.726c0-.232.06-.46.18-.684.124-.228.328-.432.612-.612.284-.184.662-.336 1.134-.456.472-.12 1.058-.188 1.758-.204v-.36c0-.412-.088-.716-.264-.912-.172-.2-.424-.3-.756-.3a1.837 1.837 0 0 0-1.02.276c-.116.068-.224.13-.324.186a.664.664 0 0 1-.33.084.429.429 0 0 1-.258-.078.614.614 0 0 1-.174-.192l-.27-.474c.708-.648 1.562-.972 2.562-.972.36 0 .68.06.96.18.284.116.524.28.72.492.196.208.344.458.444.75.104.292.156.612.156.96v3.888Zm-2.88-.924c.152 0 .292-.014.42-.042.128-.028.248-.07.36-.126.116-.056.226-.124.33-.204.108-.084.216-.182.324-.294v-1.038c-.432.02-.794.058-1.086.114-.288.052-.52.12-.696.204a.923.923 0 0 0-.378.294.664.664 0 0 0-.108.366c0 .26.076.446.228.558.156.112.358.168.606.168Z"/></svg></g><a id="title" href="https://ourworldindata.org/grapher/annual-working-hours-per-worker?stackMode=relative&amp;time=earliest..latest&amp;facet=entity&amp;uniformYAxis=0" style="font-family:&#x27;Playfair Display&#x27;, Georgia, &#x27;Times New Roman&#x27;, &#x27;Liberation Serif&#x27;, serif" target="_blank" rel="noopener"><text font-size="24.75" font-weight="600" x="16.0" y="40.0" fill="#5b5b5b"><tspan x="16" y="40.0075">Annual working hours per worker</tspan></text></a><g id="subtitle" class="markdown-text-wrap"><text x="16.0" y="63.9" style="font-size:14.625px;line-height:1.2" fill="#5b5b5b"><tspan x="16" y="63.9">Average working hours per worker over an entire year. Before 1950 the data corresponds only to full-time</tspan><tspan x="16" y="81.4">production workers (non-agricultural activities). Starting in 1950 estimates cover total hours worked in the</tspan><tspan x="16" y="99.0">economy as measured primarily from National Accounts data.</tspan></text></g></g><g id="chart-area" style="pointer-events:none"><text x="46.666875" y="128.5875" fill="#1d3d63" font-size="14.625" style="font-weight:700">United Kingdom<title>United Kingdom</title></text><g id="line-chart" class="LineChart"><defs><clipPath id="boundsClip-1"><rect x="36.666875" y="125.9" width="282" height="122"></rect></clipPath></defs><rect x="16" y="135.9" width="262" height="102" fill="none"></rect><g id="dual-axis" class="DualAxisView"><g id="horizontal-axis" class="HorizontalAxis"><g id="tick__1870"><line x1="46.7" y1="219.43125" x2="46.7" y2="224.93125" stroke="#999" stroke-width="1"></line><text x="46.666875" y="235.9" fill="#5b5b5b" text-anchor="start" font-size="10.96875">1870</text></g><g id="tick__2017"><line x1="277" y1="219.43125" x2="277" y2="224.93125" stroke="#999" stroke-width="1"></line><text x="277" y="235.9" fill="#5b5b5b" text-anchor="end" font-size="10.96875">2017</text></g><g id="tick__1900"><line x1="93.7" y1="219.43125" x2="93.7" y2="224.93125" stroke="#999" stroke-width="1"></line><text x="93.7" y="235.9" fill="#5b5b5b" text-anchor="middle" font-size="10.96875">1900</text></g><g id="tick__1920"><line x1="125" y1="219.43125" x2="125" y2="224.93125" stroke="#999" stroke-width="1"></line><text x="125" y="235.9" fill="#5b5b5b" text-anchor="middle" font-size="10.96875">1920</text></g><g id="tick__1940"><line x1="156.3" y1="219.43125" x2="156.3" y2="224.93125" stroke="#999" stroke-width="1"></line><text x="156.3" y="235.9" fill="#5b5b5b" text-anchor="middle" font-size="10.96875">1940</text></g><g id="tick__1960"><line x1="187.7" y1="219.43125" x2="187.7" y2="224.93125" stroke="#999" stroke-width="1"></line><text x="187.7" y="235.9" fill="#5b5b5b" text-anchor="middle" font-size="10.96875">1960</text></g><g id="tick__1980"><line x1="219" y1="219.43125" x2="219" y2="224.93125" stroke="#999" stroke-width="1"></line><text x="219" y="235.9" fill="#5b5b5b" text-anchor="middle" font-size="10.96875">1980</text></g></g><g id="vertical-axis" class="VerticalAxis"><g id="tick-labels"><text id="tick-label__-40__0025" x="41.67" y="218.9" dy=".32em" text-anchor="end" fill="#5b5b5b" font-size="10.96875">-40%</text><text id="tick-label__-30__0025" x="41.67" y="199.7" dy=".32em" text-anchor="end" fill="#5b5b5b" font-size="10.96875">-30%</text><text id="tick-label__-20__0025" x="41.67" y="180.4" dy=".32em" text-anchor="end" fill="#5b5b5b" font-size="10.96875">-20%</text><text id="tick-label__-10__0025" x="41.67" y="161.2" dy=".32em" text-anchor="end" fill="#5b5b5b" font-size="10.96875">-10%</text><text id="tick-label____002b0__0025" x="41.67" y="141.9" dy=".32em" text-anchor="end" fill="#5b5b5b" font-size="10.96875">+0%</text></g></g><g id="horizontal-grid-lines" class="AxisGridLines horizontalLines"><line id="grid-line__-40" x1="46.67" y1="218.9" x2="277.00" y2="218.9" stroke="#ddd" stroke-width="1" stroke-dasharray="2,1"></line><line id="grid-line__-30" x1="46.67" y1="199.7" x2="277.00" y2="199.7" stroke="#ddd" stroke-width="1" stroke-dasharray="2,1"></line><line id="grid-line__-20" x1="46.67" y1="180.4" x2="277.00" y2="180.4" stroke="#ddd" stroke-width="1" stroke-dasharray="2,1"></line><line id="grid-line__-10" x1="46.67" y1="161.2" x2="277.00" y2="161.2" stroke="#ddd" stroke-width="1" stroke-dasharray="2,1"></line><line id="grid-line__0" x1="46.67" y1="141.9" x2="277.00" y2="141.9" stroke="#999" stroke-width="1"></line></g></g><g clip-path="url(#boundsClip-1)"><g id="lines" class="Lines"><rect x="47" y="142" width="230" height="78" fill="rgba(255,255,255,0)" opacity="0"></rect><g id="line__Average-annual-working-hours-per-worker"><path stroke-linecap="round" stroke-linejoin="round" stroke="#ddd" d="M46.7 141.9L62.3 142.9L78 147.9L93.7 148.8L114 148.8L139.1 176.7L153.2 180.7L172 181.8L173.6 181.2L175.2 183.4L176.7 183.1L178.3 182.9L179.9 183L181.4 183.9L183 185.4L184.6 187.5L186.1 186.8L187.7 187.4L189.3 190L190.8 192.6L192.4 193.2L194 193.2L195.5 194.8L197.1 198.7L198.7 199.6L200.2 200.1L201.8 200.8L203.4 203.7L204.9 206.5L206.5 205L208.1 204.4L209.6 205.5L211.2 207.7L212.8 208.1L214.3 207.5L215.9 207.4L217.5 207.6L219 209.7L220.6 212.2L222.2 212.4L223.7 212.9L225.3 212.4L226.9 212.3L228.4 212.6L230 212.3L231.6 211.8L233.1 211.5L234.7 212.4L236.3 214.2L237.8 214.6L239.4 214.9L241 214.2L242.5 214L244.1 214.1L245.7 214.1L247.2 214.4L248.8 215L250.4 216.1L251.9 215.9L253.5 217.1L255.1 217.8L256.6 217.9L258.2 217.7L259.8 218.1L261.3 218L262.9 218.4L264.5 219.9L266 219.6L267.6 219.7L269.2 218.8L270.7 218L272.3 217.6L273.9 217.8L275.4 217.8L277 217.7" fill="none" stroke-width="1"></path></g><g id="line__Average-annual-working-hours-per-worker"><path id="outline" fill="none" stroke-linecap="butt" stroke-linejoin="round" stroke="#fff" stroke-width="2.5" d="M46.7 141.9L62.3 142.9L78 147.9L93.7 148.8L114 148.8L139.1 176.7L153.2 180.7L172 181.8L173.6 181.2L175.2 183.4L176.7 183.1L178.3 182.9L179.9 183L181.4 183.9L183 185.4L184.6 187.5L186.1 186.8L187.7 187.4L189.3 190L190.8 192.6L192.4 193.2L194 193.2L195.5 194.8L197.1 198.7L198.7 199.6L200.2 200.1L201.8 200.8L203.4 203.7L204.9 206.5L206.5 205L208.1 204.4L209.6 205.5L211.2 207.7L212.8 208.1L214.3 207.5L215.9 207.4L217.5 207.6L219 209.7L220.6 212.2L222.2 212.4L223.7 212.9L225.3 212.4L226.9 212.3L228.4 212.6L230 212.3L231.6 211.8L233.1 211.5L234.7 212.4L236.3 214.2L237.8 214.6L239.4 214.9L241 214.2L242.5 214L244.1 214.1L245.7 214.1L247.2 214.4L248.8 215L250.4 216.1L251.9 215.9L253.5 217.1L255.1 217.8L256.6 217.9L258.2 217.7L259.8 218.1L261.3 218L262.9 218.4L264.5 219.9L266 219.6L267.6 219.7L269.2 218.8L270.7 218L272.3 217.6L273.9 217.8L275.4 217.8L277 217.7"></path><g id="polyline"><polyline id="polyline" points="46.70,141.90 62.30,142.90 78.00,147.90 93.70,148.80 114.00,148.80 139.10,176.70 153.20,180.70 172.00,181.80 173.60,181.20 175.20,183.40 176.70,183.10 178.30,182.90 179.90,183.00 181.40,183.90 183.00,185.40 184.60,187.50 186.10,186.80 187.70,187.40 189.30,190.00 190.80,192.60 192.40,193.20 194.00,193.20 195.50,194.80 197.10,198.70 198.70,199.60 200.20,200.10 201.80,200.80 203.40,203.70 204.90,206.50 206.50,205.00 208.10,204.40 209.60,205.50 211.20,207.70 212.80,208.10 214.30,207.50 215.90,207.40 217.50,207.60 219.00,209.70 220.60,212.20 222.20,212.40 223.70,212.90 225.30,212.40 226.90,212.30 228.40,212.60 230.00,212.30 231.60,211.80 233.10,211.50 234.70,212.40 236.30,214.20 237.80,214.60 239.40,214.90 241.00,214.20 242.50,214.00 244.10,214.10 245.70,214.10 247.20,214.40 248.80,215.00 250.40,216.10 251.90,215.90 253.50,217.10 255.10,217.80 256.60,217.90 258.20,217.70 259.80,218.10 261.30,218.00 262.90,218.40 264.50,219.90 266.00,219.60 267.60,219.70 269.20,218.80 270.70,218.00 272.30,217.60 273.90,217.80 275.40,217.80 277.00,217.70" stroke-linejoin="round" stroke-width="1.5" stroke="#C15065" fill="none" stroke-linecap="butt"></polyline></g></g></g></g></g><text x="323.666875" y="128.5875" fill="#1d3d63" font-size="14.625" style="font-weight:700">Germany<title>Germany</title></text><g id="line-chart" class="LineChart"><defs><clipPath id="boundsClip-2"><rect x="313.666875" y="125.9" width="282" height="122"></rect></clipPath></defs><rect x="293" y="135.9" width="262" height="102" fill="none"></rect><g id="dual-axis" class="DualAxisView"><g id="horizontal-axis" class="HorizontalAxis"><g id="tick__1870"><line x1="323.7" y1="219.43125" x2="323.7" y2="224.93125" stroke="#999" stroke-width="1"></line><text x="323.666875" y="235.9" fill="#5b5b5b" text-anchor="start" font-size="10.96875">1870</text></g><g id="tick__2017"><line x1="554" y1="219.43125" x2="554" y2="224.93125" stroke="#999" stroke-width="1"></line><text x="554" y="235.9" fill="#5b5b5b" text-anchor="end" font-size="10.96875">2017</text></g><g id="tick__1900"><line x1="370.7" y1="219.43125" x2="370.7" y2="224.93125" stroke="#999" stroke-width="1"></line><text x="370.7" y="235.9" fill="#5b5b5b" text-anchor="middle" font-size="10.96875">1900</text></g><g id="tick__1920"><line x1="402" y1="219.43125" x2="402" y2="224.93125" stroke="#999" stroke-width="1"></line><text x="402" y="235.9" fill="#5b5b5b" text-anchor="middle" font-size="10.96875">1920</text></g><g id="tick__1940"><line x1="433.3" y1="219.43125" x2="433.3" y2="224.93125" stroke="#999" stroke-width="1"></line><text x="433.3" y="235.9" fill="#5b5b5b" text-anchor="middle" font-size="10.96875">1940</text></g><g id="tick__1960"><line x1="464.7" y1="219.43125" x2="464.7" y2="224.93125" stroke="#999" stroke-width="1"></line><text x="464.7" y="235.9" fill="#5b5b5b" text-anchor="middle" font-size="10.96875">1960</text></g><g id="tick__1980"><line x1="496" y1="219.43125" x2="496" y2="224.93125" stroke="#999" stroke-width="1"></line><text x="496" y="235.9" fill="#5b5b5b" text-anchor="middle" font-size="10.96875">1980</text></g></g><g id="vertical-axis" class="VerticalAxis"><g id="tick-labels"><text id="tick-label__-40__0025" x="318.67" y="195" dy=".32em" text-anchor="end" fill="#5b5b5b" font-size="10.96875">-40%</text><text id="tick-label__-20__0025" x="318.67" y="168.5" dy=".32em" text-anchor="end" fill="#5b5b5b" font-size="10.96875">-20%</text><text id="tick-label____002b0__0025" x="318.67" y="141.9" dy=".32em" text-anchor="end" fill="#5b5b5b" font-size="10.96875">+0%</text></g></g><g id="horizontal-grid-lines" class="AxisGridLines horizontalLines"><line id="grid-line__-40" x1="323.67" y1="195" x2="554.00" y2="195" stroke="#ddd" stroke-width="1" stroke-dasharray="2,1"></line><line id="grid-line__-20" x1="323.67" y1="168.5" x2="554.00" y2="168.5" stroke="#ddd" stroke-width="1" stroke-dasharray="2,1"></line><line id="grid-line__0" x1="323.67" y1="141.9" x2="554.00" y2="141.9" stroke="#999" stroke-width="1"></line></g></g><g clip-path="url(#boundsClip-2)"><g id="lines" class="Lines"><rect x="324" y="142" width="230" height="78" fill="rgba(255,255,255,0)" opacity="0"></rect><g id="line__Average-annual-working-hours-per-worker"><path stroke-linecap="round" stroke-linejoin="round" stroke="#ddd" d="M323.7 141.9L339.3 144.4L355 149L370.7 151.1L391 164.6L416.1 188.6L430.2 186.2L449 176.5L450.6 177.6L452.2 178.6L453.7 179.6L455.3 180.6L456.9 181.6L458.4 182.6L460 183.6L461.6 184.6L463.1 185.5L464.7 186.5L466.3 187.6L467.8 189.1L469.4 190.3L471 189.8L472.5 190.4L474.1 191.5L475.7 193L477.2 193.5L478.8 194.3L480.4 194.9L481.9 196.2L483.5 197.2L485.1 198.5L486.6 199.8L488.2 201.4L489.8 200.9L491.3 201.6L492.9 202.4L494.5 202.9L496 203.7L497.6 204.6L499.2 205L500.7 205.5L502.3 206L503.9 206.9L505.4 207.7L507 208.6L508.6 208.8L510.1 209.8L511.7 210.7L513.3 211.9L514.8 211.4L516.4 212.3L518 212.5L519.5 212.9L521.1 213.6L522.7 214L524.2 214.3L525.8 214.9L527.4 216L528.9 216.4L530.5 216.8L532.1 217.1L533.6 217.2L535.2 217.6L536.8 217.1L538.3 217.1L539.9 217.3L541.5 219.2L543 218.5L544.6 218.4L546.2 219.1L547.7 219.6L549.3 219.4L550.9 219.4L552.4 219.7L554 219.9" fill="none" stroke-width="1"></path></g><g id="line__Average-annual-working-hours-per-worker"><path id="outline" fill="none" stroke-linecap="butt" stroke-linejoin="round" stroke="#fff" stroke-width="2.5" d="M323.7 141.9L339.3 144.4L355 149L370.7 151.1L391 164.6L416.1 188.6L430.2 186.2L449 176.5L450.6 177.6L452.2 178.6L453.7 179.6L455.3 180.6L456.9 181.6L458.4 182.6L460 183.6L461.6 184.6L463.1 185.5L464.7 186.5L466.3 187.6L467.8 189.1L469.4 190.3L471 189.8L472.5 190.4L474.1 191.5L475.7 193L477.2 193.5L478.8 194.3L480.4 194.9L481.9 196.2L483.5 197.2L485.1 198.5L486.6 199.8L488.2 201.4L489.8 200.9L491.3 201.6L492.9 202.4L494.5 202.9L496 203.7L497.6 204.6L499.2 205L500.7 205.5L502.3 206L503.9 206.9L505.4 207.7L507 208.6L508.6 208.8L510.1 209.8L511.7 210.7L513.3 211.9L514.8 211.4L516.4 212.3L518 212.5L519.5 212.9L521.1 213.6L522.7 214L524.2 214.3L525.8 214.9L527.4 216L528.9 216.4L530.5 216.8L532.1 217.1L533.6 217.2L535.2 217.6L536.8 217.1L538.3 217.1L539.9 217.3L541.5 219.2L543 218.5L544.6 218.4L546.2 219.1L547.7 219.6L549.3 219.4L550.9 219.4L552.4 219.7L554 219.9"></path><g id="polyline"><polyline id="polyline" points="323.70,141.90 339.30,144.40 355.00,149.00 370.70,151.10 391.00,164.60 416.10,188.60 430.20,186.20 449.00,176.50 450.60,177.60 452.20,178.60 453.70,179.60 455.30,180.60 456.90,181.60 458.40,182.60 460.00,183.60 461.60,184.60 463.10,185.50 464.70,186.50 466.30,187.60 467.80,189.10 469.40,190.30 471.00,189.80 472.50,190.40 474.10,191.50 475.70,193.00 477.20,193.50 478.80,194.30 480.40,194.90 481.90,196.20 483.50,197.20 485.10,198.50 486.60,199.80 488.20,201.40 489.80,200.90 491.30,201.60 492.90,202.40 494.50,202.90 496.00,203.70 497.60,204.60 499.20,205.00 500.70,205.50 502.30,206.00 503.90,206.90 505.40,207.70 507.00,208.60 508.60,208.80 510.10,209.80 511.70,210.70 513.30,211.90 514.80,211.40 516.40,212.30 518.00,212.50 519.50,212.90 521.10,213.60 522.70,214.00 524.20,214.30 525.80,214.90 527.40,216.00 528.90,216.40 530.50,216.80 532.10,217.10 533.60,217.20 535.20,217.60 536.80,217.10 538.30,217.10 539.90,217.30 541.50,219.20 543.00,218.50 544.60,218.40 546.20,219.10 547.70,219.60 549.30,219.40 550.90,219.40 552.40,219.70 554.00,219.90" stroke-linejoin="round" stroke-width="1.5" stroke="#C15065" fill="none" stroke-linecap="butt"></polyline></g></g></g></g></g><text x="600.666875" y="128.5875" fill="#1d3d63" font-size="14.625" style="font-weight:700">United States<title>United States</title></text><g id="line-chart" class="LineChart"><defs><clipPath id="boundsClip-3"><rect x="590.666875" y="125.9" width="282" height="122"></rect></clipPath></defs><rect x="570" y="135.9" width="262" height="102" fill="none"></rect><g id="dual-axis" class="DualAxisView"><g id="horizontal-axis" class="HorizontalAxis"><g id="tick__1870"><line x1="600.7" y1="219.43125" x2="600.7" y2="224.93125" stroke="#999" stroke-width="1"></line><text x="600.666875" y="235.9" fill="#5b5b5b" text-anchor="start" font-size="10.96875">1870</text></g><g id="tick__2017"><line x1="831" y1="219.43125" x2="831" y2="224.93125" stroke="#999" stroke-width="1"></line><text x="831" y="235.9" fill="#5b5b5b" text-anchor="end" font-size="10.96875">2017</text></g><g id="tick__1900"><line x1="647.7" y1="219.43125" x2="647.7" y2="224.93125" stroke="#999" stroke-width="1"></line><text x="647.7" y="235.9" fill="#5b5b5b" text-anchor="middle" font-size="10.96875">1900</text></g><g id="tick__1920"><line x1="679" y1="219.43125" x2="679" y2="224.93125" stroke="#999" stroke-width="1"></line><text x="679" y="235.9" fill="#5b5b5b" text-anchor="middle" font-size="10.96875">1920</text></g><g id="tick__1940"><line x1="710.3" y1="219.43125" x2="710.3" y2="224.93125" stroke="#999" stroke-width="1"></line><text x="710.3" y="235.9" fill="#5b5b5b" text-anchor="middle" font-size="10.96875">1940</text></g><g id="tick__1960"><line x1="741.7" y1="219.43125" x2="741.7" y2="224.93125" stroke="#999" stroke-width="1"></line><text x="741.7" y="235.9" fill="#5b5b5b" text-anchor="middle" font-size="10.96875">1960</text></g><g id="tick__1980"><line x1="773" y1="219.43125" x2="773" y2="224.93125" stroke="#999" stroke-width="1"></line><text x="773" y="235.9" fill="#5b5b5b" text-anchor="middle" font-size="10.96875">1980</text></g></g><g id="vertical-axis" class="VerticalAxis"><g id="tick-labels"><text id="tick-label__-40__0025" x="595.67" y="212.6" dy=".32em" text-anchor="end" fill="#5b5b5b" font-size="10.96875">-40%</text><text id="tick-label__-20__0025" x="595.67" y="177.3" dy=".32em" text-anchor="end" fill="#5b5b5b" font-size="10.96875">-20%</text><text id="tick-label____002b0__0025" x="595.67" y="141.9" dy=".32em" text-anchor="end" fill="#5b5b5b" font-size="10.96875">+0%</text></g></g><g id="horizontal-grid-lines" class="AxisGridLines horizontalLines"><line id="grid-line__-40" x1="600.67" y1="212.6" x2="831.00" y2="212.6" stroke="#ddd" stroke-width="1" stroke-dasharray="2,1"></line><line id="grid-line__-20" x1="600.67" y1="177.3" x2="831.00" y2="177.3" stroke="#ddd" stroke-width="1" stroke-dasharray="2,1"></line><line id="grid-line__0" x1="600.67" y1="141.9" x2="831.00" y2="141.9" stroke="#999" stroke-width="1"></line></g></g><g clip-path="url(#boundsClip-3)"><g id="lines" class="Lines"><rect x="601" y="142" width="230" height="78" fill="rgba(255,255,255,0)" opacity="0"></rect><g id="line__Average-annual-working-hours-per-worker"><path stroke-linecap="round" stroke-linejoin="round" stroke="#ddd" d="M600.7 141.9L616.3 144.9L632 148.4L647.7 150.9L668 153.1L693.1 186.5L707.2 218.4L726 205.1L727.6 202.8L729.2 203L730.7 203.3L732.3 204.7L733.9 204.2L735.4 205.1L737 206.7L738.6 208.6L740.1 207.2L741.7 208.3L743.3 209.1L744.8 208L746.4 208.6L748 208.3L749.5 207.2L751.1 206.7L752.7 208L754.2 208.2L755.8 208.2L757.4 210.7L758.9 211.6L760.5 211.7L762.1 211.8L763.6 213.4L765.2 215.2L766.8 215.4L768.3 215.4L769.9 215.1L771.5 215L773 215.9L774.6 216.6L776.2 217.6L777.7 217.1L779.3 216.2L780.9 215.9L782.4 217L784 216.6L785.6 216.1L787.1 215.4L788.7 216.2L790.3 216.7L791.8 217.4L793.4 216.5L795 215.5L796.5 214.9L798.1 214.6L799.7 214.3L801.2 213.7L802.8 213.6L804.4 213.4L805.9 214.6L807.5 215.5L809.1 216.4L810.6 216.5L812.2 216.7L813.8 216.6L815.3 216.7L816.9 217.8L818.5 219.9L820 219.6L821.6 219.1L823.2 219L824.7 218.8L826.3 218.5L827.9 217.9L829.4 218.2L831 218.4" fill="none" stroke-width="1"></path></g><g id="line__Average-annual-working-hours-per-worker"><path id="outline" fill="none" stroke-linecap="butt" stroke-linejoin="round" stroke="#fff" stroke-width="2.5" d="M600.7 141.9L616.3 144.9L632 148.4L647.7 150.9L668 153.1L693.1 186.5L707.2 218.4L726 205.1L727.6 202.8L729.2 203L730.7 203.3L732.3 204.7L733.9 204.2L735.4 205.1L737 206.7L738.6 208.6L740.1 207.2L741.7 208.3L743.3 209.1L744.8 208L746.4 208.6L748 208.3L749.5 207.2L751.1 206.7L752.7 208L754.2 208.2L755.8 208.2L757.4 210.7L758.9 211.6L760.5 211.7L762.1 211.8L763.6 213.4L765.2 215.2L766.8 215.4L768.3 215.4L769.9 215.1L771.5 215L773 215.9L774.6 216.6L776.2 217.6L777.7 217.1L779.3 216.2L780.9 215.9L782.4 217L784 216.6L785.6 216.1L787.1 215.4L788.7 216.2L790.3 216.7L791.8 217.4L793.4 216.5L795 215.5L796.5 214.9L798.1 214.6L799.7 214.3L801.2 213.7L802.8 213.6L804.4 213.4L805.9 214.6L807.5 215.5L809.1 216.4L810.6 216.5L812.2 216.7L813.8 216.6L815.3 216.7L816.9 217.8L818.5 219.9L820 219.6L821.6 219.1L823.2 219L824.7 218.8L826.3 218.5L827.9 217.9L829.4 218.2L831 218.4"></path><g id="polyline"><polyline id="polyline" points="600.70,141.90 616.30,144.90 632.00,148.40 647.70,150.90 668.00,153.10 693.10,186.50 707.20,218.40 726.00,205.10 727.60,202.80 729.20,203.00 730.70,203.30 732.30,204.70 733.90,204.20 735.40,205.10 737.00,206.70 738.60,208.60 740.10,207.20 741.70,208.30 743.30,209.10 744.80,208.00 746.40,208.60 748.00,208.30 749.50,207.20 751.10,206.70 752.70,208.00 754.20,208.20 755.80,208.20 757.40,210.70 758.90,211.60 760.50,211.70 762.10,211.80 763.60,213.40 765.20,215.20 766.80,215.40 768.30,215.40 769.90,215.10 771.50,215.00 773.00,215.90 774.60,216.60 776.20,217.60 777.70,217.10 779.30,216.20 780.90,215.90 782.40,217.00 784.00,216.60 785.60,216.10 787.10,215.40 788.70,216.20 790.30,216.70 791.80,217.40 793.40,216.50 795.00,215.50 796.50,214.90 798.10,214.60 799.70,214.30 801.20,213.70 802.80,213.60 804.40,213.40 805.90,214.60 807.50,215.50 809.10,216.40 810.60,216.50 812.20,216.70 813.80,216.60 815.30,216.70 816.90,217.80 818.50,219.90 820.00,219.60 821.60,219.10 823.20,219.00 824.70,218.80 826.30,218.50 827.90,217.90 829.40,218.20 831.00,218.40" stroke-linejoin="round" stroke-width="1.5" stroke="#C15065" fill="none" stroke-linecap="butt"></polyline></g></g></g></g></g><text x="46.666875" y="267.5875" fill="#1d3d63" font-size="14.625" style="font-weight:700">France<title>France</title></text><g id="line-chart" class="LineChart"><defs><clipPath id="boundsClip-4"><rect x="36.666875" y="264.9" width="282" height="122"></rect></clipPath></defs><rect x="16" y="274.9" width="262" height="102" fill="none"></rect><g id="dual-axis" class="DualAxisView"><g id="horizontal-axis" class="HorizontalAxis"><g id="tick__1870"><line x1="46.7" y1="358.43125" x2="46.7" y2="363.93125" stroke="#999" stroke-width="1"></line><text x="46.666875" y="374.9" fill="#5b5b5b" text-anchor="start" font-size="10.96875">1870</text></g><g id="tick__2017"><line x1="277" y1="358.43125" x2="277" y2="363.93125" stroke="#999" stroke-width="1"></line><text x="277" y="374.9" fill="#5b5b5b" text-anchor="end" font-size="10.96875">2017</text></g><g id="tick__1900"><line x1="93.7" y1="358.43125" x2="93.7" y2="363.93125" stroke="#999" stroke-width="1"></line><text x="93.7" y="374.9" fill="#5b5b5b" text-anchor="middle" font-size="10.96875">1900</text></g><g id="tick__1920"><line x1="125" y1="358.43125" x2="125" y2="363.93125" stroke="#999" stroke-width="1"></line><text x="125" y="374.9" fill="#5b5b5b" text-anchor="middle" font-size="10.96875">1920</text></g><g id="tick__1940"><line x1="156.3" y1="358.43125" x2="156.3" y2="363.93125" stroke="#999" stroke-width="1"></line><text x="156.3" y="374.9" fill="#5b5b5b" text-anchor="middle" font-size="10.96875">1940</text></g><g id="tick__1960"><line x1="187.7" y1="358.43125" x2="187.7" y2="363.93125" stroke="#999" stroke-width="1"></line><text x="187.7" y="374.9" fill="#5b5b5b" text-anchor="middle" font-size="10.96875">1960</text></g><g id="tick__1980"><line x1="219" y1="358.43125" x2="219" y2="363.93125" stroke="#999" stroke-width="1"></line><text x="219" y="374.9" fill="#5b5b5b" text-anchor="middle" font-size="10.96875">1980</text></g></g><g id="vertical-axis" class="VerticalAxis"><g id="tick-labels"><text id="tick-label__-40__0025" x="41.67" y="340.1" dy=".32em" text-anchor="end" fill="#5b5b5b" font-size="10.96875">-40%</text><text id="tick-label__-20__0025" x="41.67" y="310.5" dy=".32em" text-anchor="end" fill="#5b5b5b" font-size="10.96875">-20%</text><text id="tick-label____002b0__0025" x="41.67" y="280.9" dy=".32em" text-anchor="end" fill="#5b5b5b" font-size="10.96875">+0%</text></g></g><g id="horizontal-grid-lines" class="AxisGridLines horizontalLines"><line id="grid-line__-40" x1="46.67" y1="340.1" x2="277.00" y2="340.1" stroke="#ddd" stroke-width="1" stroke-dasharray="2,1"></line><line id="grid-line__-20" x1="46.67" y1="310.5" x2="277.00" y2="310.5" stroke="#ddd" stroke-width="1" stroke-dasharray="2,1"></line><line id="grid-line__0" x1="46.67" y1="280.9" x2="277.00" y2="280.9" stroke="#999" stroke-width="1"></line></g></g><g clip-path="url(#boundsClip-4)"><g id="lines" class="Lines"><rect x="47" y="281" width="230" height="78" fill="rgba(255,255,255,0)" opacity="0"></rect><g id="line__Average-annual-working-hours-per-worker"><path stroke-linecap="round" stroke-linejoin="round" stroke="#ddd" d="M46.7 280.9L62.3 281L78 283.2L93.7 283.4L114 291.9L139.1 326.2L153.2 346.7L172 326.4L173.6 325.4L175.2 326.2L176.7 327.1L178.3 326.4L179.9 327.1L181.4 329.4L183 330.4L184.6 330.9L186.1 330.8L187.7 330.2L189.3 331.2L190.8 330.4L192.4 331.1L194 330.6L195.5 331.1L197.1 331.4L198.7 332.8L200.2 333.9L201.8 337.1L203.4 337.9L204.9 337.9L206.5 340.2L208.1 340.9L209.6 342.2L211.2 343.4L212.8 342.1L214.3 343.9L215.9 345.3L217.5 345.4L219 345.8L220.6 346.7L222.2 350L223.7 350.8L225.3 351.1L226.9 352.7L228.4 352.9L230 352.3L231.6 351.9L233.1 352.6L234.7 352.8L236.3 353.1L237.8 353.1L239.4 353.5L241 353.6L242.5 354.6L244.1 354.7L245.7 354.8L247.2 355.3L248.8 355.6L250.4 356.5L251.9 357.4L253.5 358.9L255.1 358.7L256.6 357.6L258.2 357.5L259.8 358.3L261.3 357.4L262.9 357L264.5 357.8L266 357.5L267.6 357.2L269.2 357.5L270.7 358.2L272.3 358.4L273.9 358.4L275.4 358.7L277 358.1" fill="none" stroke-width="1"></path></g><g id="line__Average-annual-working-hours-per-worker"><path id="outline" fill="none" stroke-linecap="butt" stroke-linejoin="round" stroke="#fff" stroke-width="2.5" d="M46.7 280.9L62.3 281L78 283.2L93.7 283.4L114 291.9L139.1 326.2L153.2 346.7L172 326.4L173.6 325.4L175.2 326.2L176.7 327.1L178.3 326.4L179.9 327.1L181.4 329.4L183 330.4L184.6 330.9L186.1 330.8L187.7 330.2L189.3 331.2L190.8 330.4L192.4 331.1L194 330.6L195.5 331.1L197.1 331.4L198.7 332.8L200.2 333.9L201.8 337.1L203.4 337.9L204.9 337.9L206.5 340.2L208.1 340.9L209.6 342.2L211.2 343.4L212.8 342.1L214.3 343.9L215.9 345.3L217.5 345.4L219 345.8L220.6 346.7L222.2 350L223.7 350.8L225.3 351.1L226.9 352.7L228.4 352.9L230 352.3L231.6 351.9L233.1 352.6L234.7 352.8L236.3 353.1L237.8 353.1L239.4 353.5L241 353.6L242.5 354.6L244.1 354.7L245.7 354.8L247.2 355.3L248.8 355.6L250.4 356.5L251.9 357.4L253.5 358.9L255.1 358.7L256.6 357.6L258.2 357.5L259.8 358.3L261.3 357.4L262.9 357L264.5 357.8L266 357.5L267.6 357.2L269.2 357.5L270.7 358.2L272.3 358.4L273.9 358.4L275.4 358.7L277 358.1"></path><g id="polyline"><polyline id="polyline" points="46.70,280.90 62.30,281.00 78.00,283.20 93.70,283.40 114.00,291.90 139.10,326.20 153.20,346.70 172.00,326.40 173.60,325.40 175.20,326.20 176.70,327.10 178.30,326.40 179.90,327.10 181.40,329.40 183.00,330.40 184.60,330.90 186.10,330.80 187.70,330.20 189.30,331.20 190.80,330.40 192.40,331.10 194.00,330.60 195.50,331.10 197.10,331.40 198.70,332.80 200.20,333.90 201.80,337.10 203.40,337.90 204.90,337.90 206.50,340.20 208.10,340.90 209.60,342.20 211.20,343.40 212.80,342.10 214.30,343.90 215.90,345.30 217.50,345.40 219.00,345.80 220.60,346.70 222.20,350.00 223.70,350.80 225.30,351.10 226.90,352.70 228.40,352.90 230.00,352.30 231.60,351.90 233.10,352.60 234.70,352.80 236.30,353.10 237.80,353.10 239.40,353.50 241.00,353.60 242.50,354.60 244.10,354.70 245.70,354.80 247.20,355.30 248.80,355.60 250.40,356.50 251.90,357.40 253.50,358.90 255.10,358.70 256.60,357.60 258.20,357.50 259.80,358.30 261.30,357.40 262.90,357.00 264.50,357.80 266.00,357.50 267.60,357.20 269.20,357.50 270.70,358.20 272.30,358.40 273.90,358.40 275.40,358.70 277.00,358.10" stroke-linejoin="round" stroke-width="1.5" stroke="#C15065" fill="none" stroke-linecap="butt"></polyline></g></g></g></g></g><text x="323.666875" y="267.5875" fill="#1d3d63" font-size="14.625" style="font-weight:700">Sweden<title>Sweden</title></text><g id="line-chart" class="LineChart"><defs><clipPath id="boundsClip-5"><rect x="313.666875" y="264.9" width="282" height="122"></rect></clipPath></defs><rect x="293" y="274.9" width="262" height="102" fill="none"></rect><g id="dual-axis" class="DualAxisView"><g id="horizontal-axis" class="HorizontalAxis"><g id="tick__1870"><line x1="323.7" y1="358.43125" x2="323.7" y2="363.93125" stroke="#999" stroke-width="1"></line><text x="323.666875" y="374.9" fill="#5b5b5b" text-anchor="start" font-size="10.96875">1870</text></g><g id="tick__2017"><line x1="554" y1="358.43125" x2="554" y2="363.93125" stroke="#999" stroke-width="1"></line><text x="554" y="374.9" fill="#5b5b5b" text-anchor="end" font-size="10.96875">2017</text></g><g id="tick__1900"><line x1="370.7" y1="358.43125" x2="370.7" y2="363.93125" stroke="#999" stroke-width="1"></line><text x="370.7" y="374.9" fill="#5b5b5b" text-anchor="middle" font-size="10.96875">1900</text></g><g id="tick__1920"><line x1="402" y1="358.43125" x2="402" y2="363.93125" stroke="#999" stroke-width="1"></line><text x="402" y="374.9" fill="#5b5b5b" text-anchor="middle" font-size="10.96875">1920</text></g><g id="tick__1940"><line x1="433.3" y1="358.43125" x2="433.3" y2="363.93125" stroke="#999" stroke-width="1"></line><text x="433.3" y="374.9" fill="#5b5b5b" text-anchor="middle" font-size="10.96875">1940</text></g><g id="tick__1960"><line x1="464.7" y1="358.43125" x2="464.7" y2="363.93125" stroke="#999" stroke-width="1"></line><text x="464.7" y="374.9" fill="#5b5b5b" text-anchor="middle" font-size="10.96875">1960</text></g><g id="tick__1980"><line x1="496" y1="358.43125" x2="496" y2="363.93125" stroke="#999" stroke-width="1"></line><text x="496" y="374.9" fill="#5b5b5b" text-anchor="middle" font-size="10.96875">1980</text></g></g><g id="vertical-axis" class="VerticalAxis"><g id="tick-labels"><text id="tick-label__-40__0025" x="318.67" y="336.5" dy=".32em" text-anchor="end" fill="#5b5b5b" font-size="10.96875">-40%</text><text id="tick-label__-20__0025" x="318.67" y="308.7" dy=".32em" text-anchor="end" fill="#5b5b5b" font-size="10.96875">-20%</text><text id="tick-label____002b0__0025" x="318.67" y="280.9" dy=".32em" text-anchor="end" fill="#5b5b5b" font-size="10.96875">+0%</text></g></g><g id="horizontal-grid-lines" class="AxisGridLines horizontalLines"><line id="grid-line__-40" x1="323.67" y1="336.5" x2="554.00" y2="336.5" stroke="#ddd" stroke-width="1" stroke-dasharray="2,1"></line><line id="grid-line__-20" x1="323.67" y1="308.7" x2="554.00" y2="308.7" stroke="#ddd" stroke-width="1" stroke-dasharray="2,1"></line><line id="grid-line__0" x1="323.67" y1="280.9" x2="554.00" y2="280.9" stroke="#999" stroke-width="1"></line></g></g><g clip-path="url(#boundsClip-5)"><g id="lines" class="Lines"><rect x="324" y="281" width="230" height="78" fill="rgba(255,255,255,0)" opacity="0"></rect><g id="line__Average-annual-working-hours-per-worker"><path stroke-linecap="round" stroke-linejoin="round" stroke="#ddd" d="M323.7 280.9L339.3 291L355 301.1L370.7 308.9L391 308.9L416.1 332.9L430.2 333.7L449 339.5L450.6 339.8L452.2 339.8L453.7 340.6L455.3 340.2L456.9 340.6L458.4 341.6L460 341.6L461.6 342.9L463.1 343.9L464.7 344.1L466.3 344.1L467.8 344.5L469.4 344.8L471 346L472.5 346.5L474.1 347L475.7 348.3L477.2 350L478.8 350.9L480.4 350.9L481.9 352.2L483.5 353.8L485.1 354.4L486.6 355.2L488.2 356.1L489.8 355.6L491.3 356.8L492.9 358.3L494.5 358.7L496 358.6L497.6 358.9L499.2 358.4L500.7 358L502.3 357.9L503.9 357.7L505.4 357.8L507 357.4L508.6 356.6L510.1 356.7L511.7 356.8L513.3 357.3L514.8 356.6L516.4 355.3L518 353.8L519.5 353.6L521.1 353.1L522.7 352.9L524.2 352.9L525.8 352.6L527.4 353.5L528.9 354.5L530.5 355.4L532.1 356L533.6 355L535.2 355L536.8 355.3L538.3 354.8L539.9 354.5L541.5 354.9L543 353.8L544.6 353.9L546.2 354.5L547.7 354.9L549.3 354.8L550.9 354.8L552.4 354.2L554 354.8" fill="none" stroke-width="1"></path></g><g id="line__Average-annual-working-hours-per-worker"><path id="outline" fill="none" stroke-linecap="butt" stroke-linejoin="round" stroke="#fff" stroke-width="2.5" d="M323.7 280.9L339.3 291L355 301.1L370.7 308.9L391 308.9L416.1 332.9L430.2 333.7L449 339.5L450.6 339.8L452.2 339.8L453.7 340.6L455.3 340.2L456.9 340.6L458.4 341.6L460 341.6L461.6 342.9L463.1 343.9L464.7 344.1L466.3 344.1L467.8 344.5L469.4 344.8L471 346L472.5 346.5L474.1 347L475.7 348.3L477.2 350L478.8 350.9L480.4 350.9L481.9 352.2L483.5 353.8L485.1 354.4L486.6 355.2L488.2 356.1L489.8 355.6L491.3 356.8L492.9 358.3L494.5 358.7L496 358.6L497.6 358.9L499.2 358.4L500.7 358L502.3 357.9L503.9 357.7L505.4 357.8L507 357.4L508.6 356.6L510.1 356.7L511.7 356.8L513.3 357.3L514.8 356.6L516.4 355.3L518 353.8L519.5 353.6L521.1 353.1L522.7 352.9L524.2 352.9L525.8 352.6L527.4 353.5L528.9 354.5L530.5 355.4L532.1 356L533.6 355L535.2 355L536.8 355.3L538.3 354.8L539.9 354.5L541.5 354.9L543 353.8L544.6 353.9L546.2 354.5L547.7 354.9L549.3 354.8L550.9 354.8L552.4 354.2L554 354.8"></path><g id="polyline"><polyline id="polyline" points="323.70,280.90 339.30,291.00 355.00,301.10 370.70,308.90 391.00,308.90 416.10,332.90 430.20,333.70 449.00,339.50 450.60,339.80 452.20,339.80 453.70,340.60 455.30,340.20 456.90,340.60 458.40,341.60 460.00,341.60 461.60,342.90 463.10,343.90 464.70,344.10 466.30,344.10 467.80,344.50 469.40,344.80 471.00,346.00 472.50,346.50 474.10,347.00 475.70,348.30 477.20,350.00 478.80,350.90 480.40,350.90 481.90,352.20 483.50,353.80 485.10,354.40 486.60,355.20 488.20,356.10 489.80,355.60 491.30,356.80 492.90,358.30 494.50,358.70 496.00,358.60 497.60,358.90 499.20,358.40 500.70,358.00 502.30,357.90 503.90,357.70 505.40,357.80 507.00,357.40 508.60,356.60 510.10,356.70 511.70,356.80 513.30,357.30 514.80,356.60 516.40,355.30 518.00,353.80 519.50,353.60 521.10,353.10 522.70,352.90 524.20,352.90 525.80,352.60 527.40,353.50 528.90,354.50 530.50,355.40 532.10,356.00 533.60,355.00 535.20,355.00 536.80,355.30 538.30,354.80 539.90,354.50 541.50,354.90 543.00,353.80 544.60,353.90 546.20,354.50 547.70,354.90 549.30,354.80 550.90,354.80 552.40,354.20 554.00,354.80" stroke-linejoin="round" stroke-width="1.5" stroke="#C15065" fill="none" stroke-linecap="butt"></polyline></g></g></g></g></g><text x="600.666875" y="267.5875" fill="#1d3d63" font-size="14.625" style="font-weight:700">Australia<title>Australia</title></text><g id="line-chart" class="LineChart"><defs><clipPath id="boundsClip-6"><rect x="590.666875" y="264.9" width="282" height="122"></rect></clipPath></defs><rect x="570" y="274.9" width="262" height="102" fill="none"></rect><g id="dual-axis" class="DualAxisView"><g id="horizontal-axis" class="HorizontalAxis"><g id="tick__1870"><line x1="600.7" y1="358.43125" x2="600.7" y2="363.93125" stroke="#999" stroke-width="1"></line><text x="600.666875" y="374.9" fill="#5b5b5b" text-anchor="start" font-size="10.96875">1870</text></g><g id="tick__2017"><line x1="831" y1="358.43125" x2="831" y2="363.93125" stroke="#999" stroke-width="1"></line><text x="831" y="374.9" fill="#5b5b5b" text-anchor="end" font-size="10.96875">2017</text></g><g id="tick__1900"><line x1="647.7" y1="358.43125" x2="647.7" y2="363.93125" stroke="#999" stroke-width="1"></line><text x="647.7" y="374.9" fill="#5b5b5b" text-anchor="middle" font-size="10.96875">1900</text></g><g id="tick__1920"><line x1="679" y1="358.43125" x2="679" y2="363.93125" stroke="#999" stroke-width="1"></line><text x="679" y="374.9" fill="#5b5b5b" text-anchor="middle" font-size="10.96875">1920</text></g><g id="tick__1940"><line x1="710.3" y1="358.43125" x2="710.3" y2="363.93125" stroke="#999" stroke-width="1"></line><text x="710.3" y="374.9" fill="#5b5b5b" text-anchor="middle" font-size="10.96875">1940</text></g><g id="tick__1960"><line x1="741.7" y1="358.43125" x2="741.7" y2="363.93125" stroke="#999" stroke-width="1"></line><text x="741.7" y="374.9" fill="#5b5b5b" text-anchor="middle" font-size="10.96875">1960</text></g><g id="tick__1980"><line x1="773" y1="358.43125" x2="773" y2="363.93125" stroke="#999" stroke-width="1"></line><text x="773" y="374.9" fill="#5b5b5b" text-anchor="middle" font-size="10.96875">1980</text></g></g><g id="vertical-axis" class="VerticalAxis"><g id="tick-labels"><text id="tick-label__-30__0025" x="595.67" y="342.5" dy=".32em" text-anchor="end" fill="#5b5b5b" font-size="10.96875">-30%</text><text id="tick-label__-20__0025" x="595.67" y="322" dy=".32em" text-anchor="end" fill="#5b5b5b" font-size="10.96875">-20%</text><text id="tick-label__-10__0025" x="595.67" y="301.4" dy=".32em" text-anchor="end" fill="#5b5b5b" font-size="10.96875">-10%</text><text id="tick-label____002b0__0025" x="595.67" y="280.9" dy=".32em" text-anchor="end" fill="#5b5b5b" font-size="10.96875">+0%</text></g></g><g id="horizontal-grid-lines" class="AxisGridLines horizontalLines"><line id="grid-line__-30" x1="600.67" y1="342.5" x2="831.00" y2="342.5" stroke="#ddd" stroke-width="1" stroke-dasharray="2,1"></line><line id="grid-line__-20" x1="600.67" y1="322" x2="831.00" y2="322" stroke="#ddd" stroke-width="1" stroke-dasharray="2,1"></line><line id="grid-line__-10" x1="600.67" y1="301.4" x2="831.00" y2="301.4" stroke="#ddd" stroke-width="1" stroke-dasharray="2,1"></line><line id="grid-line__0" x1="600.67" y1="280.9" x2="831.00" y2="280.9" stroke="#999" stroke-width="1"></line></g></g><g clip-path="url(#boundsClip-6)"><g id="lines" class="Lines"><rect x="601" y="281" width="230" height="78" fill="rgba(255,255,255,0)" opacity="0"></rect><g id="line__Average-annual-working-hours-per-worker"><path stroke-linecap="round" stroke-linejoin="round" stroke="#ddd" d="M600.7 280.9L616.3 291.6L632 302.3L647.7 310.8L668 323.4L693.1 325.5L707.2 331.2L726 326.1L727.6 327.5L729.2 329L730.7 330.5L732.3 331.9L733.9 333.3L735.4 334.7L737 336.2L738.6 337.5L740.1 338.9L741.7 340.3L743.3 340.5L744.8 340.8L746.4 341.1L748 341.4L749.5 341.6L751.1 341.9L752.7 342.2L754.2 342.4L755.8 342.7L757.4 343L758.9 344.3L760.5 345.8L762.1 346.8L763.6 345.5L765.2 346.5L766.8 345.8L768.3 345.6L769.9 345.6L771.5 345.2L773 345.1L774.6 346.5L776.2 347.9L777.7 348.8L779.3 347.7L780.9 348.7L782.4 348L784 348.2L785.6 348.4L787.1 347.5L788.7 348.9L790.3 349.9L791.8 350.1L793.4 348.8L795 348.2L796.5 348.3L798.1 348.8L799.7 349L801.2 350.1L802.8 349.8L804.4 349.9L805.9 352.6L807.5 352.9L809.1 353.4L810.6 353.5L812.2 353.7L813.8 354.5L815.3 354.4L816.9 354.6L818.5 356.7L820 356.1L821.6 356.2L823.2 356.9L824.7 357.1L826.3 357.7L827.9 357.8L829.4 358.7L831 358.9" fill="none" stroke-width="1"></path></g><g id="line__Average-annual-working-hours-per-worker"><path id="outline" fill="none" stroke-linecap="butt" stroke-linejoin="round" stroke="#fff" stroke-width="2.5" d="M600.7 280.9L616.3 291.6L632 302.3L647.7 310.8L668 323.4L693.1 325.5L707.2 331.2L726 326.1L727.6 327.5L729.2 329L730.7 330.5L732.3 331.9L733.9 333.3L735.4 334.7L737 336.2L738.6 337.5L740.1 338.9L741.7 340.3L743.3 340.5L744.8 340.8L746.4 341.1L748 341.4L749.5 341.6L751.1 341.9L752.7 342.2L754.2 342.4L755.8 342.7L757.4 343L758.9 344.3L760.5 345.8L762.1 346.8L763.6 345.5L765.2 346.5L766.8 345.8L768.3 345.6L769.9 345.6L771.5 345.2L773 345.1L774.6 346.5L776.2 347.9L777.7 348.8L779.3 347.7L780.9 348.7L782.4 348L784 348.2L785.6 348.4L787.1 347.5L788.7 348.9L790.3 349.9L791.8 350.1L793.4 348.8L795 348.2L796.5 348.3L798.1 348.8L799.7 349L801.2 350.1L802.8 349.8L804.4 349.9L805.9 352.6L807.5 352.9L809.1 353.4L810.6 353.5L812.2 353.7L813.8 354.5L815.3 354.4L816.9 354.6L818.5 356.7L820 356.1L821.6 356.2L823.2 356.9L824.7 357.1L826.3 357.7L827.9 357.8L829.4 358.7L831 358.9"></path><g id="polyline"><polyline id="polyline" points="600.70,280.90 616.30,291.60 632.00,302.30 647.70,310.80 668.00,323.40 693.10,325.50 707.20,331.20 726.00,326.10 727.60,327.50 729.20,329.00 730.70,330.50 732.30,331.90 733.90,333.30 735.40,334.70 737.00,336.20 738.60,337.50 740.10,338.90 741.70,340.30 743.30,340.50 744.80,340.80 746.40,341.10 748.00,341.40 749.50,341.60 751.10,341.90 752.70,342.20 754.20,342.40 755.80,342.70 757.40,343.00 758.90,344.30 760.50,345.80 762.10,346.80 763.60,345.50 765.20,346.50 766.80,345.80 768.30,345.60 769.90,345.60 771.50,345.20 773.00,345.10 774.60,346.50 776.20,347.90 777.70,348.80 779.30,347.70 780.90,348.70 782.40,348.00 784.00,348.20 785.60,348.40 787.10,347.50 788.70,348.90 790.30,349.90 791.80,350.10 793.40,348.80 795.00,348.20 796.50,348.30 798.10,348.80 799.70,349.00 801.20,350.10 802.80,349.80 804.40,349.90 805.90,352.60 807.50,352.90 809.10,353.40 810.60,353.50 812.20,353.70 813.80,354.50 815.30,354.40 816.90,354.60 818.50,356.70 820.00,356.10 821.60,356.20 823.20,356.90 824.70,357.10 826.30,357.70 827.90,357.80 829.40,358.70 831.00,358.90" stroke-linejoin="round" stroke-width="1.5" stroke="#C15065" fill="none" stroke-linecap="butt"></polyline></g></g></g></g></g><text x="46.666875" y="406.5875" fill="#1d3d63" font-size="14.625" style="font-weight:700">Belgium<title>Belgium</title></text><g id="line-chart" class="LineChart"><defs><clipPath id="boundsClip-7"><rect x="36.666875" y="403.9" width="282" height="122"></rect></clipPath></defs><rect x="16" y="413.9" width="262" height="102" fill="none"></rect><g id="dual-axis" class="DualAxisView"><g id="horizontal-axis" class="HorizontalAxis"><g id="tick__1870"><line x1="46.7" y1="497.43125" x2="46.7" y2="502.93125" stroke="#999" stroke-width="1"></line><text x="46.666875" y="513.9" fill="#5b5b5b" text-anchor="start" font-size="10.96875">1870</text></g><g id="tick__2017"><line x1="277" y1="497.43125" x2="277" y2="502.93125" stroke="#999" stroke-width="1"></line><text x="277" y="513.9" fill="#5b5b5b" text-anchor="end" font-size="10.96875">2017</text></g><g id="tick__1900"><line x1="93.7" y1="497.43125" x2="93.7" y2="502.93125" stroke="#999" stroke-width="1"></line><text x="93.7" y="513.9" fill="#5b5b5b" text-anchor="middle" font-size="10.96875">1900</text></g><g id="tick__1920"><line x1="125" y1="497.43125" x2="125" y2="502.93125" stroke="#999" stroke-width="1"></line><text x="125" y="513.9" fill="#5b5b5b" text-anchor="middle" font-size="10.96875">1920</text></g><g id="tick__1940"><line x1="156.3" y1="497.43125" x2="156.3" y2="502.93125" stroke="#999" stroke-width="1"></line><text x="156.3" y="513.9" fill="#5b5b5b" text-anchor="middle" font-size="10.96875">1940</text></g><g id="tick__1960"><line x1="187.7" y1="497.43125" x2="187.7" y2="502.93125" stroke="#999" stroke-width="1"></line><text x="187.7" y="513.9" fill="#5b5b5b" text-anchor="middle" font-size="10.96875">1960</text></g><g id="tick__1980"><line x1="219" y1="497.43125" x2="219" y2="502.93125" stroke="#999" stroke-width="1"></line><text x="219" y="513.9" fill="#5b5b5b" text-anchor="middle" font-size="10.96875">1980</text></g></g><g id="vertical-axis" class="VerticalAxis"><g id="tick-labels"><text id="tick-label__-40__0025" x="41.67" y="476" dy=".32em" text-anchor="end" fill="#5b5b5b" font-size="10.96875">-40%</text><text id="tick-label__-20__0025" x="41.67" y="447.9" dy=".32em" text-anchor="end" fill="#5b5b5b" font-size="10.96875">-20%</text><text id="tick-label____002b0__0025" x="41.67" y="419.9" dy=".32em" text-anchor="end" fill="#5b5b5b" font-size="10.96875">+0%</text></g></g><g id="horizontal-grid-lines" class="AxisGridLines horizontalLines"><line id="grid-line__-40" x1="46.67" y1="476" x2="277.00" y2="476" stroke="#ddd" stroke-width="1" stroke-dasharray="2,1"></line><line id="grid-line__-20" x1="46.67" y1="447.9" x2="277.00" y2="447.9" stroke="#ddd" stroke-width="1" stroke-dasharray="2,1"></line><line id="grid-line__0" x1="46.67" y1="419.9" x2="277.00" y2="419.9" stroke="#999" stroke-width="1"></line></g></g><g clip-path="url(#boundsClip-7)"><g id="lines" class="Lines"><rect x="47" y="420" width="230" height="78" fill="rgba(255,255,255,0)" opacity="0"></rect><g id="line__Average-annual-working-hours-per-worker"><path stroke-linecap="round" stroke-linejoin="round" stroke="#ddd" d="M46.7 419.9L62.3 425.5L78 432.2L93.7 436.8L114 445.7L139.1 470.4L153.2 471.7L172 475.3L173.6 475.7L175.2 476.1L176.7 476.6L178.3 477L179.9 477.4L181.4 477.8L183 478.2L184.6 478.6L186.1 479L187.7 479.4L189.3 479.8L190.8 480.3L192.4 480.8L194 481.3L195.5 481.7L197.1 482.2L198.7 482.7L200.2 483.1L201.8 483.6L203.4 484.1L204.9 484.4L206.5 485.5L208.1 486.5L209.6 487.8L211.2 488.2L212.8 488.1L214.3 489.1L215.9 489.9L217.5 490.6L219 491.4L220.6 492.3L222.2 492.9L223.7 492.6L225.3 491.7L226.9 491.4L228.4 492.2L230 492.8L231.6 493.3L233.1 493.7L234.7 493.1L236.3 494.6L237.8 495.5L239.4 497.3L241 497.3L242.5 496.3L244.1 497.3L245.7 496.8L247.2 496.4L248.8 496.4L250.4 495.9L251.9 496.2L253.5 496.4L255.1 496.6L256.6 496.8L258.2 497.1L259.8 496.8L261.3 496.6L262.9 496.9L264.5 497.8L266 497.9L267.6 497.3L269.2 497.3L270.7 497.4L272.3 497.5L273.9 497.9L275.4 497.9L277 497.9" fill="none" stroke-width="1"></path></g><g id="line__Average-annual-working-hours-per-worker"><path id="outline" fill="none" stroke-linecap="butt" stroke-linejoin="round" stroke="#fff" stroke-width="2.5" d="M46.7 419.9L62.3 425.5L78 432.2L93.7 436.8L114 445.7L139.1 470.4L153.2 471.7L172 475.3L173.6 475.7L175.2 476.1L176.7 476.6L178.3 477L179.9 477.4L181.4 477.8L183 478.2L184.6 478.6L186.1 479L187.7 479.4L189.3 479.8L190.8 480.3L192.4 480.8L194 481.3L195.5 481.7L197.1 482.2L198.7 482.7L200.2 483.1L201.8 483.6L203.4 484.1L204.9 484.4L206.5 485.5L208.1 486.5L209.6 487.8L211.2 488.2L212.8 488.1L214.3 489.1L215.9 489.9L217.5 490.6L219 491.4L220.6 492.3L222.2 492.9L223.7 492.6L225.3 491.7L226.9 491.4L228.4 492.2L230 492.8L231.6 493.3L233.1 493.7L234.7 493.1L236.3 494.6L237.8 495.5L239.4 497.3L241 497.3L242.5 496.3L244.1 497.3L245.7 496.8L247.2 496.4L248.8 496.4L250.4 495.9L251.9 496.2L253.5 496.4L255.1 496.6L256.6 496.8L258.2 497.1L259.8 496.8L261.3 496.6L262.9 496.9L264.5 497.8L266 497.9L267.6 497.3L269.2 497.3L270.7 497.4L272.3 497.5L273.9 497.9L275.4 497.9L277 497.9"></path><g id="polyline"><polyline id="polyline" points="46.70,419.90 62.30,425.50 78.00,432.20 93.70,436.80 114.00,445.70 139.10,470.40 153.20,471.70 172.00,475.30 173.60,475.70 175.20,476.10 176.70,476.60 178.30,477.00 179.90,477.40 181.40,477.80 183.00,478.20 184.60,478.60 186.10,479.00 187.70,479.40 189.30,479.80 190.80,480.30 192.40,480.80 194.00,481.30 195.50,481.70 197.10,482.20 198.70,482.70 200.20,483.10 201.80,483.60 203.40,484.10 204.90,484.40 206.50,485.50 208.10,486.50 209.60,487.80 211.20,488.20 212.80,488.10 214.30,489.10 215.90,489.90 217.50,490.60 219.00,491.40 220.60,492.30 222.20,492.90 223.70,492.60 225.30,491.70 226.90,491.40 228.40,492.20 230.00,492.80 231.60,493.30 233.10,493.70 234.70,493.10 236.30,494.60 237.80,495.50 239.40,497.30 241.00,497.30 242.50,496.30 244.10,497.30 245.70,496.80 247.20,496.40 248.80,496.40 250.40,495.90 251.90,496.20 253.50,496.40 255.10,496.60 256.60,496.80 258.20,497.10 259.80,496.80 261.30,496.60 262.90,496.90 264.50,497.80 266.00,497.90 267.60,497.30 269.20,497.30 270.70,497.40 272.30,497.50 273.90,497.90 275.40,497.90 277.00,497.90" stroke-linejoin="round" stroke-width="1.5" stroke="#C15065" fill="none" stroke-linecap="butt"></polyline></g></g></g></g></g></g><g id="footer" class="SourcesFooter" style="fill:#5b5b5b"><g id="sources" class="markdown-text-wrap"><text x="16.0" y="546.5" style="font-size:13.5px;line-height:1.2"><tspan x="16" y="546.5"><tspan style="font-weight:700">Data source:</tspan> Huberman &amp; Minns (2007) and PWT 9.1 (2019)</tspan></text></g><g id="note" class="markdown-text-wrap"><text x="16.0" y="564.7" style="font-size:13.5px;line-height:1.2"><tspan x="16" y="564.7"><tspan style="font-weight:700">Note:</tspan> We plot the data from Huberman &amp; Minns (2007) and extend coverage using an updated vintage of PWT, which uses the same</tspan><tspan x="16" y="580.9">underlying source. Comparisons between countries are limited due to differences in measurement.</tspan></text></g><text id="origin-url" font-size="13.50" x="571.8" y="546.5"><tspan x="571.8299999999999" y="546.495"><a target="_blank" style="fill: #5b5b5b;" href="https://ourworldindata.org/working-hours">OurWorldInData.org/working-hours</a> | <a target="_blank" style="fill: #5b5b5b;" href="https://creativecommons.org/licenses/by/4.0/">CC BY</a></tspan></text></g></svg>