<svg
    xmlns="http://www.w3.org/2000/svg"
    version="1.1"
    style='font-family:Lato, &#x27;Helvetica Neue&#x27;, Helvetica, Arial, &#x27;Liberation Sans&#x27;, sans-serif;font-feature-settings:"liga", "kern", "calt", "lnum";text-rendering:geometricPrecision;-webkit-font-smoothing:antialiased;font-size:18px;background-color:#ffffff'
    width="850"
    height="600"
    viewBox="0 0 850 600"
>
    <defs>
        <style>
            @import url(https://ourworldindata.org/fonts.css);
        </style>
    </defs>
    <defs>
        <pattern
            id="noDataPattern"
            patternUnits="userSpaceOnUse"
            width="4"
            height="4"
            patternTransform="rotate(-45 2 2)"
        >
            <path d="M -1,2 l 6,0" stroke="#ccc" stroke-width="0.7"></path>
        </pattern>
    </defs>
    <g id="header" class="HeaderView">
        <g id="logo" transform="translate(769, 16) scale(1)">
            <svg
                className="owidLogo"
                xmlns="http://www.w3.org/2000/svg"
                width="65"
                height="36"
                viewBox="0 0 65 36"
                fill="none"
            >
                <path fill="#002147" d="M0 0h64.8v36H0z" />
                <path fill="#CE261E" d="M0 33.3h64.8V36H0z" />
                <path
                    fill="#fff"
                    d="M13.796 10.575c0 .636-.106 1.226-.318 1.77a4.193 4.193 0 0 1-.894 1.404 4.084 4.084 0 0 1-1.386.93c-.54.22-1.138.33-1.794.33-.656 0-1.256-.11-1.8-.33a4.149 4.149 0 0 1-1.392-.93 4.193 4.193 0 0 1-.894-1.404A4.833 4.833 0 0 1 5 10.575c0-.636.106-1.224.318-1.764a4.18 4.18 0 0 1 .894-1.41 4.076 4.076 0 0 1 1.392-.924 4.684 4.684 0 0 1 1.8-.336c.656 0 1.254.112 1.794.336.54.224 1.002.534 1.386.93.384.392.682.86.894 1.404.212.54.318 1.128.318 1.764Zm-1.656 0c0-.476-.064-.902-.192-1.278a2.671 2.671 0 0 0-.54-.966 2.332 2.332 0 0 0-.864-.606 2.94 2.94 0 0 0-1.14-.21c-.424 0-.806.07-1.146.21-.34.14-.63.342-.87.606a2.742 2.742 0 0 0-.546.966 3.955 3.955 0 0 0-.192 1.278c0 .476.064.904.192 1.284.128.376.31.696.546.96.24.26.53.46.87.6.34.14.722.21 1.146.21.424 0 .804-.07 1.14-.21.34-.14.628-.34.864-.6.236-.264.416-.584.54-.96a4.01 4.01 0 0 0 .192-1.284ZM16.104 8.757v3.912c0 .376.086.668.258.876.176.204.438.306.786.306.256 0 .496-.056.72-.168a2.58 2.58 0 0 0 .636-.474V8.757h1.482v6.156h-.906c-.192 0-.318-.09-.378-.27l-.102-.492a4.65 4.65 0 0 1-.396.354 2.577 2.577 0 0 1-.438.27 2.35 2.35 0 0 1-.498.168 2.345 2.345 0 0 1-.57.066c-.336 0-.634-.056-.894-.168a1.821 1.821 0 0 1-.648-.486 2.157 2.157 0 0 1-.402-.738 3.233 3.233 0 0 1-.132-.948V8.757h1.482ZM21.328 14.913V8.757h.87c.152 0 .258.028.318.084.06.056.1.152.12.288l.09.744c.22-.38.478-.68.774-.9.296-.22.628-.33.996-.33.304 0 .556.07.756.21l-.192 1.11c-.012.072-.038.124-.078.156a.278.278 0 0 1-.162.042 1.01 1.01 0 0 1-.246-.042 1.646 1.646 0 0 0-.414-.042c-.308 0-.572.086-.792.258-.22.168-.406.416-.558.744v3.834h-1.482ZM27.347 6.237h1.356a.57.57 0 0 1 .348.102c.096.064.16.152.192.264l1.476 5.19c.036.128.068.268.096.42.032.148.062.306.09.474a5.968 5.968 0 0 1 .228-.894l1.704-5.19a.575.575 0 0 1 .186-.252.543.543 0 0 1 .348-.114h.474a.57.57 0 0 1 .348.102.497.497 0 0 1 .192.264l1.692 5.19c.088.256.164.54.228.852.028-.156.056-.306.084-.45.032-.144.064-.278.096-.402l1.476-5.19c.028-.1.09-.186.186-.258a.563.563 0 0 1 .348-.108h1.266l-2.694 8.676h-1.458l-1.896-5.928-.078-.246a9.504 9.504 0 0 1-.072-.282c-.024.1-.05.194-.078.282-.024.088-.048.17-.072.246l-1.914 5.928H30.04l-2.694-8.676ZM42.771 8.661c.46 0 .876.074 1.248.222.376.148.696.358.96.63s.468.604.612.996c.144.392.216.83.216 1.314 0 .488-.072.928-.216 1.32a2.85 2.85 0 0 1-.612 1.002 2.653 2.653 0 0 1-.96.636 3.35 3.35 0 0 1-1.248.222c-.46 0-.878-.074-1.254-.222a2.712 2.712 0 0 1-.966-.636 2.922 2.922 0 0 1-.618-1.002 3.807 3.807 0 0 1-.216-1.32c0-.484.072-.922.216-1.314.148-.392.354-.724.618-.996.268-.272.59-.482.966-.63a3.397 3.397 0 0 1 1.254-.222Zm0 5.202c.512 0 .89-.172 1.134-.516.248-.344.372-.848.372-1.512s-.124-1.17-.372-1.518c-.244-.348-.622-.522-1.134-.522-.52 0-.904.176-1.152.528-.248.348-.372.852-.372 1.512s.124 1.164.372 1.512c.248.344.632.516 1.152.516ZM46.723 14.913V8.757h.87c.152 0 .258.028.318.084.06.056.1.152.12.288l.09.744c.22-.38.478-.68.774-.9.296-.22.628-.33.996-.33.304 0 .556.07.756.21l-.192 1.11c-.012.072-.038.124-.078.156a.278.278 0 0 1-.162.042 1.01 1.01 0 0 1-.246-.042 1.646 1.646 0 0 0-.414-.042c-.308 0-.572.086-.792.258-.22.168-.406.416-.558.744v3.834h-1.482ZM52.96 5.997v8.916h-1.482V5.997h1.482ZM58.732 14.913c-.192 0-.318-.09-.378-.27l-.12-.594a3.68 3.68 0 0 1-.402.39c-.14.116-.292.216-.456.3-.16.084-.334.148-.522.192a2.372 2.372 0 0 1-.6.072c-.336 0-.644-.07-.924-.21a2.098 2.098 0 0 1-.726-.606 3.033 3.033 0 0 1-.468-.99 5.072 5.072 0 0 1-.162-1.344c0-.456.062-.88.186-1.272s.302-.732.534-1.02c.232-.288.51-.512.834-.672a2.384 2.384 0 0 1 1.092-.246 2.103 2.103 0 0 1 1.536.606V5.997h1.482v8.916h-.906Zm-1.974-1.086c.308 0 .57-.064.786-.192.216-.128.42-.31.612-.546v-2.76a1.452 1.452 0 0 0-.552-.432 1.597 1.597 0 0 0-.636-.126c-.224 0-.428.042-.612.126a1.21 1.21 0 0 0-.462.384c-.124.168-.22.384-.288.648-.068.26-.102.568-.102.924 0 .36.028.666.084.918.06.248.144.452.252.612.108.156.24.27.396.342.156.068.33.102.522.102ZM16.331 20.757v6.156H14.85v-6.156h1.481Zm.223-1.794a.844.844 0 0 1-.078.36.963.963 0 0 1-.21.294.995.995 0 0 1-.3.204.963.963 0 0 1-.372.072.948.948 0 0 1-.367-.072 1.018 1.018 0 0 1-.498-.498.963.963 0 0 1 0-.732.995.995 0 0 1 .205-.3.929.929 0 0 1 .293-.198.899.899 0 0 1 .738 0 .912.912 0 0 1 .3.198.943.943 0 0 1 .288.672ZM17.771 26.913v-6.156h.906c.192 0 .318.09.378.27l.102.486a2.934 2.934 0 0 1 .828-.618c.156-.076.322-.134.498-.174.176-.04.368-.06.576-.06.336 0 .634.058.894.174.26.112.476.272.648.48.176.204.308.45.396.738.092.284.138.598.138.942v3.918h-1.482v-3.918c0-.376-.088-.666-.264-.87-.172-.208-.432-.312-.78-.312-.256 0-.496.058-.72.174a2.58 2.58 0 0 0-.636.474v4.452h-1.482ZM34.22 22.575c0 .636-.106 1.22-.318 1.752-.212.532-.51.99-.894 1.374a4 4 0 0 1-1.386.894 4.87 4.87 0 0 1-1.794.318h-3.312v-8.676h3.312a4.79 4.79 0 0 1 1.794.324 4 4 0 0 1 1.386.894c.384.38.682.836.894 1.368.212.532.318 1.116.318 1.752Zm-1.65 0c0-.476-.064-.902-.192-1.278a2.68 2.68 0 0 0-.546-.96 2.332 2.332 0 0 0-.864-.606 2.94 2.94 0 0 0-1.14-.21h-1.686v6.108h1.686c.424 0 .804-.07 1.14-.21.34-.14.628-.34.864-.6a2.75 2.75 0 0 0 .546-.96 4.01 4.01 0 0 0 .192-1.284ZM39.98 26.913h-.665c-.14 0-.25-.02-.33-.06-.08-.044-.14-.13-.18-.258l-.132-.438c-.156.14-.31.264-.462.372a2.804 2.804 0 0 1-.462.264c-.16.072-.33.126-.51.162-.18.036-.38.054-.6.054-.26 0-.5-.034-.72-.102a1.618 1.618 0 0 1-.57-.318 1.448 1.448 0 0 1-.366-.522 1.852 1.852 0 0 1-.132-.726c0-.232.06-.46.18-.684.124-.228.328-.432.612-.612.284-.184.662-.336 1.134-.456.472-.12 1.058-.188 1.758-.204v-.36c0-.412-.088-.716-.264-.912-.172-.2-.424-.3-.756-.3a1.837 1.837 0 0 0-1.02.276c-.116.068-.224.13-.324.186a.664.664 0 0 1-.33.084.429.429 0 0 1-.258-.078.614.614 0 0 1-.174-.192l-.27-.474c.708-.648 1.562-.972 2.562-.972.36 0 .68.06.96.18.284.116.524.28.72.492.196.208.344.458.444.75.104.292.156.612.156.96v3.888Zm-2.88-.924c.153 0 .293-.014.42-.042.129-.028.249-.07.36-.126.117-.056.227-.124.33-.204.109-.084.217-.182.325-.294v-1.038c-.432.02-.794.058-1.086.114-.288.052-.52.12-.696.204a.923.923 0 0 0-.378.294.664.664 0 0 0-.108.366c0 .26.076.446.228.558.156.112.358.168.606.168ZM43.22 27.01c-.532 0-.942-.15-1.23-.45-.288-.305-.432-.723-.432-1.255v-3.438h-.624a.31.31 0 0 1-.21-.078c-.056-.052-.084-.13-.084-.234v-.588l.99-.162.312-1.68a.302.302 0 0 1 .108-.186.365.365 0 0 1 .222-.066h.768v1.938h1.62v1.056h-1.62v3.336c0 .192.048.342.144.45a.488.488 0 0 0 .384.162c.092 0 .168-.01.228-.03.064-.024.118-.048.162-.072.048-.024.09-.046.126-.066a.194.194 0 0 1 .108-.036.16.16 0 0 1 .108.036c.028.02.058.052.09.096l.444.72c-.216.18-.464.316-.744.408a2.77 2.77 0 0 1-.87.138ZM50.423 26.913h-.666c-.14 0-.25-.02-.33-.06-.08-.044-.14-.13-.18-.258l-.132-.438c-.156.14-.31.264-.462.372a2.804 2.804 0 0 1-.462.264c-.16.072-.33.126-.51.162-.18.036-.38.054-.6.054-.26 0-.5-.034-.72-.102a1.618 1.618 0 0 1-.57-.318 1.448 1.448 0 0 1-.366-.522 1.852 1.852 0 0 1-.132-.726c0-.232.06-.46.18-.684.124-.228.328-.432.612-.612.284-.184.662-.336 1.134-.456.472-.12 1.058-.188 1.758-.204v-.36c0-.412-.088-.716-.264-.912-.172-.2-.424-.3-.756-.3a1.837 1.837 0 0 0-1.02.276c-.116.068-.224.13-.324.186a.664.664 0 0 1-.33.084.429.429 0 0 1-.258-.078.614.614 0 0 1-.174-.192l-.27-.474c.708-.648 1.562-.972 2.562-.972.36 0 .68.06.96.18.284.116.524.28.72.492.196.208.344.458.444.75.104.292.156.612.156.96v3.888Zm-2.88-.924c.152 0 .292-.014.42-.042.128-.028.248-.07.36-.126.116-.056.226-.124.33-.204.108-.084.216-.182.324-.294v-1.038c-.432.02-.794.058-1.086.114-.288.052-.52.12-.696.204a.923.923 0 0 0-.378.294.664.664 0 0 0-.108.366c0 .26.076.446.228.558.156.112.358.168.606.168Z"
                />
            </svg>
        </g>
        <a
            id="title"
            href="https://ourworldindata.org/grapher/population?yScale=log&amp;facet=entity"
            style="font-family:&#x27;Playfair Display&#x27;, Georgia, &#x27;Times New Roman&#x27;, &#x27;Liberation Serif&#x27;, serif"
        >
            <text
                font-size="25.00"
                font-weight="600"
                x="16.0"
                y="40.3"
                fill="#2d2e2d"
            >
                <tspan x="16" y="40.25">Population, 10,000 BCE to 2023</tspan>
            </text>
        </a>
    </g>
    <g id="chart-area" style="pointer-events: none">
        <text
            x="46.1"
            y="78.96875"
            fill="#5b5b5b"
            font-size="14.625"
            style="font-weight: 700"
        >
            North America
            <title>North America</title>
        </text>
        <g id="North-America">
            <g id="horizontal-axis" class="HorizontalAxis">
                <g id="tick-marks">
                    <line
                        id="10,000-BCE"
                        x1="46.1"
                        y1="192.78125"
                        x2="46.1"
                        y2="198.28125"
                        stroke="#999"
                        stroke-width="1"
                    ></line>
                    <line
                        id="2023"
                        x1="297.1"
                        y1="192.78125"
                        x2="297.1"
                        y2="198.28125"
                        stroke="#999"
                        stroke-width="1"
                    ></line>
                    <line
                        id="4,000-BCE"
                        x1="171.4"
                        y1="192.78125"
                        x2="171.4"
                        y2="198.28125"
                        stroke="#999"
                        stroke-width="1"
                    ></line>
                    <line
                        id="0"
                        x1="254.9"
                        y1="192.78125"
                        x2="254.9"
                        y2="198.28125"
                        stroke="#999"
                        stroke-width="1"
                    ></line>
                </g>
                <g id="tick-labels">
                    <text
                        x="46.1"
                        y="208.28125"
                        fill="#5b5b5b"
                        text-anchor="start"
                        font-size="10"
                    >
                        10,000 BCE
                    </text>
                    <text
                        x="297.1"
                        y="208.28125"
                        fill="#5b5b5b"
                        text-anchor="end"
                        font-size="10"
                    >
                        2023
                    </text>
                    <text
                        x="171.4"
                        y="208.28125"
                        fill="#5b5b5b"
                        text-anchor="middle"
                        font-size="10"
                    >
                        4,000 BCE
                    </text>
                    <text
                        x="254.9"
                        y="208.28125"
                        fill="#5b5b5b"
                        text-anchor="middle"
                        font-size="10"
                    >
                        0
                    </text>
                </g>
            </g>
            <g id="vertical-axis" class="VerticalAxis">
                <g id="tick-labels">
                    <text
                        x="41.10"
                        y="185.5"
                        dy=".32em"
                        text-anchor="end"
                        fill="#5b5b5b"
                        font-size="10"
                    >
                        1M
                    </text>
                    <text
                        x="41.10"
                        y="160.1"
                        dy=".32em"
                        text-anchor="end"
                        fill="#5b5b5b"
                        font-size="10"
                    >
                        10M
                    </text>
                    <text
                        x="41.10"
                        y="134.7"
                        dy=".32em"
                        text-anchor="end"
                        fill="#5b5b5b"
                        font-size="10"
                    >
                        100M
                    </text>
                    <text
                        x="41.10"
                        y="109.3"
                        dy=".32em"
                        text-anchor="end"
                        fill="#5b5b5b"
                        font-size="10"
                    >
                        1B
                    </text>
                </g>
            </g>
            <g id="horizontal-grid-lines" class="AxisGridLines horizontalLines">
                <line
                    id="1M"
                    x1="46.10"
                    y1="185.5"
                    x2="297.10"
                    y2="185.5"
                    stroke="#ddd"
                    stroke-dasharray="4,4"
                ></line>
                <line
                    id="10M"
                    x1="46.10"
                    y1="160.1"
                    x2="297.10"
                    y2="160.1"
                    stroke="#ddd"
                    stroke-dasharray="4,4"
                ></line>
                <line
                    id="100M"
                    x1="46.10"
                    y1="134.7"
                    x2="297.10"
                    y2="134.7"
                    stroke="#ddd"
                    stroke-dasharray="4,4"
                ></line>
                <line
                    id="1B"
                    x1="46.10"
                    y1="109.3"
                    x2="297.10"
                    y2="109.3"
                    stroke="#ddd"
                    stroke-dasharray="4,4"
                ></line>
            </g>
            <g id="lines">
                <path
                    fill="none"
                    stroke-linecap="butt"
                    stroke-linejoin="round"
                    stroke="#ffffff"
                    id="outline__Population-(historical)"
                    stroke-width="2.5"
                    d="M46.1 182.4L67 180.6L87.9 178.6L108.7 176.6L129.6 174.6L150.5 172.5L171.4 170.3L192.2 168.2L213.1 165.9L234 163.7L254.9 161.4L257 160.8L259 160.2L261.1 159.6L263.2 159L265.3 158.3L267.4 157.7L269.5 157.1L271.6 156.5L273.7 154.9L275.7 153.5L277.8 152.3L279.9 151L282 149.9L284.1 148.8L286.2 147.8L287.3 154.1L288.3 170.3L289.1 166.8L290.4 164.2L290.6 162.9L290.8 161.6L291 160.5L291.2 159.5L291.4 158.5L291.6 157.6L291.8 156.7L292 155.8L292.1 155.5L292.2 155.2L292.2 155L292.4 155.8L292.5 155.6L292.5 155.4L292.5 155.2L292.5 155.1L292.5 154.9L292.6 154.7L292.6 154.5L292.6 154.4L292.6 154.2L292.7 154L292.7 153.8L292.7 153.5L292.7 153.3L292.7 153.1L292.8 152.8L292.8 152.6L292.8 152.4L292.8 152.1L292.8 151.9L292.9 151.7L292.9 151.5L292.9 151.3L292.9 151.1L292.9 150.9L293 150.7L293 150.5L293 150.3L293 150.1L293 149.9L293.1 149.7L293.1 149.5L293.1 149.3L293.1 149L293.2 148.8L293.2 148.6L293.2 148.4L293.2 148.1L293.2 147.9L293.3 147.7L293.3 147.4L293.3 147.2L293.3 146.9L293.3 146.7L293.4 146.4L293.4 146.2L293.4 145.9L293.4 145.7L293.4 145.4L293.5 145.1L293.5 144.9L293.5 144.6L293.5 144.3L293.6 144.1L293.6 143.8L293.6 143.5L293.6 143.3L293.6 143L293.7 142.7L293.7 142.5L293.7 142.2L293.7 142L293.7 141.8L293.8 141.6L293.8 141.4L293.8 141.2L293.8 141L293.8 140.9L293.9 140.7L293.9 140.5L293.9 140.3L293.9 140.1L293.9 139.9L294 139.6L294 139.4L294 139.2L294 139L294.1 138.8L294.1 138.6L294.1 138.4L294.1 138.2L294.1 138L294.2 137.8L294.2 137.5L294.2 137.3L294.2 137.1L294.2 136.9L294.3 136.7L294.3 136.5L294.3 136.3L294.3 136.1L294.3 135.9L294.4 135.7L294.4 135.5L294.4 135.4L294.4 135.2L294.4 135L294.5 134.8L294.5 134.6L294.5 134.4L294.5 134.3L294.6 134.1L294.6 133.9L294.6 133.7L294.6 133.5L294.6 133.3L294.7 133.1L294.7 132.9L294.7 132.7L294.7 132.5L294.7 132.3L294.8 132.1L294.8 132L294.8 131.8L294.8 131.7L294.8 131.6L294.9 131.4L294.9 131.3L294.9 131.1L294.9 131L294.9 130.8L295 130.7L295 130.5L295 130.3L295 130.2L295.1 130L295.1 129.8L295.1 129.7L295.1 129.5L295.1 129.3L295.2 129.2L295.2 129.1L295.2 129L295.2 128.9L295.2 128.8L295.3 128.6L295.3 128.5L295.3 128.4L295.3 128.3L295.3 128.2L295.4 128.1L295.4 127.9L295.4 127.7L295.4 127.5L295.5 127.4L295.5 127.2L295.5 127L295.5 126.8L295.5 126.6L295.6 126.4L295.6 125.9L295.6 125.7L295.6 125.5L295.6 125.3L295.7 125.1L295.7 124.9L295.7 124.7L295.7 124.5L295.7 124.3L295.8 124L295.8 123.8L295.8 123.6L295.8 123.4L295.8 123.1L295.9 122.9L295.9 122.7L295.9 122.5L295.9 122.3L296 122.2L296 122L296 121.8L296 121.6L296 121.4L296.1 121.3L296.1 121.1L296.1 120.9L296.1 120.8L296.1 120.6L296.2 120.5L296.2 120.3L296.2 120.2L296.2 120L296.2 119.9L296.3 119.7L296.3 119.6L296.3 119.4L296.3 119.3L296.3 119.1L296.4 119L296.4 118.9L296.4 118.7L296.4 118.5L296.5 118.4L296.5 118.2L296.5 118.1L296.5 117.9L296.5 117.8L296.6 117.7L296.6 117.6L296.6 117.4L296.6 117.3L296.6 117.2L296.7 117L296.7 116.9L296.7 116.8L296.7 116.7L296.7 116.6L296.8 116.4L296.8 116.3L296.8 116.2L296.8 116.1L296.8 115.9L296.9 115.8L296.9 115.7L296.9 115.6L296.9 115.5L297 115.4L297 115.3L297 115.2L297 115.1L297 115L297.1 115L297.1 114.9L297.1 114.8"
                ></path>
                <path
                    fill="none"
                    stroke-linecap="butt"
                    stroke-linejoin="round"
                    stroke="#4c6a9c"
                    id="line__Population-(historical)"
                    stroke-width="1.5"
                    stroke-opacity="1"
                    d="M46.1 182.4L67 180.6L87.9 178.6L108.7 176.6L129.6 174.6L150.5 172.5L171.4 170.3L192.2 168.2L213.1 165.9L234 163.7L254.9 161.4L257 160.8L259 160.2L261.1 159.6L263.2 159L265.3 158.3L267.4 157.7L269.5 157.1L271.6 156.5L273.7 154.9L275.7 153.5L277.8 152.3L279.9 151L282 149.9L284.1 148.8L286.2 147.8L287.3 154.1L288.3 170.3L289.1 166.8L290.4 164.2L290.6 162.9L290.8 161.6L291 160.5L291.2 159.5L291.4 158.5L291.6 157.6L291.8 156.7L292 155.8L292.1 155.5L292.2 155.2L292.2 155L292.4 155.8L292.5 155.6L292.5 155.4L292.5 155.2L292.5 155.1L292.5 154.9L292.6 154.7L292.6 154.5L292.6 154.4L292.6 154.2L292.7 154L292.7 153.8L292.7 153.5L292.7 153.3L292.7 153.1L292.8 152.8L292.8 152.6L292.8 152.4L292.8 152.1L292.8 151.9L292.9 151.7L292.9 151.5L292.9 151.3L292.9 151.1L292.9 150.9L293 150.7L293 150.5L293 150.3L293 150.1L293 149.9L293.1 149.7L293.1 149.5L293.1 149.3L293.1 149L293.2 148.8L293.2 148.6L293.2 148.4L293.2 148.1L293.2 147.9L293.3 147.7L293.3 147.4L293.3 147.2L293.3 146.9L293.3 146.7L293.4 146.4L293.4 146.2L293.4 145.9L293.4 145.7L293.4 145.4L293.5 145.1L293.5 144.9L293.5 144.6L293.5 144.3L293.6 144.1L293.6 143.8L293.6 143.5L293.6 143.3L293.6 143L293.7 142.7L293.7 142.5L293.7 142.2L293.7 142L293.7 141.8L293.8 141.6L293.8 141.4L293.8 141.2L293.8 141L293.8 140.9L293.9 140.7L293.9 140.5L293.9 140.3L293.9 140.1L293.9 139.9L294 139.6L294 139.4L294 139.2L294 139L294.1 138.8L294.1 138.6L294.1 138.4L294.1 138.2L294.1 138L294.2 137.8L294.2 137.5L294.2 137.3L294.2 137.1L294.2 136.9L294.3 136.7L294.3 136.5L294.3 136.3L294.3 136.1L294.3 135.9L294.4 135.7L294.4 135.5L294.4 135.4L294.4 135.2L294.4 135L294.5 134.8L294.5 134.6L294.5 134.4L294.5 134.3L294.6 134.1L294.6 133.9L294.6 133.7L294.6 133.5L294.6 133.3L294.7 133.1L294.7 132.9L294.7 132.7L294.7 132.5L294.7 132.3L294.8 132.1L294.8 132L294.8 131.8L294.8 131.7L294.8 131.6L294.9 131.4L294.9 131.3L294.9 131.1L294.9 131L294.9 130.8L295 130.7L295 130.5L295 130.3L295 130.2L295.1 130L295.1 129.8L295.1 129.7L295.1 129.5L295.1 129.3L295.2 129.2L295.2 129.1L295.2 129L295.2 128.9L295.2 128.8L295.3 128.6L295.3 128.5L295.3 128.4L295.3 128.3L295.3 128.2L295.4 128.1L295.4 127.9L295.4 127.7L295.4 127.5L295.5 127.4L295.5 127.2L295.5 127L295.5 126.8L295.5 126.6L295.6 126.4L295.6 125.9L295.6 125.7L295.6 125.5L295.6 125.3L295.7 125.1L295.7 124.9L295.7 124.7L295.7 124.5L295.7 124.3L295.8 124L295.8 123.8L295.8 123.6L295.8 123.4L295.8 123.1L295.9 122.9L295.9 122.7L295.9 122.5L295.9 122.3L296 122.2L296 122L296 121.8L296 121.6L296 121.4L296.1 121.3L296.1 121.1L296.1 120.9L296.1 120.8L296.1 120.6L296.2 120.5L296.2 120.3L296.2 120.2L296.2 120L296.2 119.9L296.3 119.7L296.3 119.6L296.3 119.4L296.3 119.3L296.3 119.1L296.4 119L296.4 118.9L296.4 118.7L296.4 118.5L296.5 118.4L296.5 118.2L296.5 118.1L296.5 117.9L296.5 117.8L296.6 117.7L296.6 117.6L296.6 117.4L296.6 117.3L296.6 117.2L296.7 117L296.7 116.9L296.7 116.8L296.7 116.7L296.7 116.6L296.8 116.4L296.8 116.3L296.8 116.2L296.8 116.1L296.8 115.9L296.9 115.8L296.9 115.7L296.9 115.6L296.9 115.5L297 115.4L297 115.3L297 115.2L297 115.1L297 115L297.1 115L297.1 114.9L297.1 114.8"
                ></path>
            </g>
        </g>
        <text
            x="313.1"
            y="78.96875"
            fill="#5b5b5b"
            font-size="14.625"
            style="font-weight: 700"
        >
            South America
            <title>South America</title>
        </text>
        <g id="South-America">
            <g id="horizontal-axis" class="HorizontalAxis">
                <g id="tick-marks">
                    <line
                        id="10,000-BCE"
                        x1="313.1"
                        y1="192.78125"
                        x2="313.1"
                        y2="198.28125"
                        stroke="#999"
                        stroke-width="1"
                    ></line>
                    <line
                        id="2023"
                        x1="564.1"
                        y1="192.78125"
                        x2="564.1"
                        y2="198.28125"
                        stroke="#999"
                        stroke-width="1"
                    ></line>
                    <line
                        id="4,000-BCE"
                        x1="438.4"
                        y1="192.78125"
                        x2="438.4"
                        y2="198.28125"
                        stroke="#999"
                        stroke-width="1"
                    ></line>
                    <line
                        id="0"
                        x1="521.9"
                        y1="192.78125"
                        x2="521.9"
                        y2="198.28125"
                        stroke="#999"
                        stroke-width="1"
                    ></line>
                </g>
                <g id="tick-labels">
                    <text
                        x="313.1"
                        y="208.28125"
                        fill="#5b5b5b"
                        text-anchor="start"
                        font-size="10"
                    >
                        10,000 BCE
                    </text>
                    <text
                        x="564.1"
                        y="208.28125"
                        fill="#5b5b5b"
                        text-anchor="end"
                        font-size="10"
                    >
                        2023
                    </text>
                    <text
                        x="438.4"
                        y="208.28125"
                        fill="#5b5b5b"
                        text-anchor="middle"
                        font-size="10"
                    >
                        4,000 BCE
                    </text>
                    <text
                        x="521.9"
                        y="208.28125"
                        fill="#5b5b5b"
                        text-anchor="middle"
                        font-size="10"
                    >
                        0
                    </text>
                </g>
            </g>
            <g id="horizontal-grid-lines" class="AxisGridLines horizontalLines">
                <line
                    id="1M"
                    x1="313.10"
                    y1="185.5"
                    x2="564.10"
                    y2="185.5"
                    stroke="#ddd"
                    stroke-dasharray="4,4"
                ></line>
                <line
                    id="10M"
                    x1="313.10"
                    y1="160.1"
                    x2="564.10"
                    y2="160.1"
                    stroke="#ddd"
                    stroke-dasharray="4,4"
                ></line>
                <line
                    id="100M"
                    x1="313.10"
                    y1="134.7"
                    x2="564.10"
                    y2="134.7"
                    stroke="#ddd"
                    stroke-dasharray="4,4"
                ></line>
                <line
                    id="1B"
                    x1="313.10"
                    y1="109.3"
                    x2="564.10"
                    y2="109.3"
                    stroke="#ddd"
                    stroke-dasharray="4,4"
                ></line>
            </g>
            <g id="lines">
                <path
                    fill="none"
                    stroke-linecap="butt"
                    stroke-linejoin="round"
                    stroke="#ffffff"
                    id="outline__Population-(historical)"
                    stroke-width="2.5"
                    d="M313.1 184.5L334 182.3L354.9 180L375.7 177.7L396.6 175.3L417.5 172.9L438.4 170.5L459.2 168L480.1 165.4L501 162.8L521.9 160.1L524 159.3L526 158.6L528.1 157.9L530.2 157.1L532.3 156.4L534.4 155.7L536.5 154.9L538.6 154.2L540.7 153.7L542.7 153.1L544.8 152.1L546.9 151.1L549 150.1L551.1 149.3L553.2 148L554.3 153.6L555.3 165.1L556.1 165.5L557.4 165.9L557.6 165.6L557.8 165.2L558 164.9L558.2 164.5L558.4 164L558.6 163.5L558.8 163L559 162.4L559.1 162.2L559.2 162L559.2 161.8L559.4 160.9L559.5 160.9L559.5 160.8L559.5 160.8L559.5 160.7L559.5 160.7L559.6 160.6L559.6 160.5L559.6 160.5L559.6 160.4L559.7 160.3L559.7 160.2L559.7 160L559.7 159.9L559.7 159.8L559.8 159.7L559.8 159.5L559.8 159.4L559.8 159.2L559.8 159.1L559.9 158.9L559.9 158.8L559.9 158.6L559.9 158.4L559.9 158.2L560 158.1L560 157.9L560 157.7L560 157.5L560 157.3L560.1 157.1L560.1 156.9L560.1 156.7L560.1 156.5L560.2 156.3L560.2 156.1L560.2 155.9L560.2 155.6L560.2 155.4L560.3 155.2L560.3 155L560.3 154.8L560.3 154.5L560.3 154.3L560.4 154.1L560.4 153.9L560.4 153.7L560.4 153.5L560.4 153.2L560.5 153.1L560.5 152.9L560.5 152.7L560.5 152.6L560.6 152.5L560.6 152.4L560.6 152.3L560.6 152.2L560.6 152.1L560.7 152L560.7 151.9L560.7 151.8L560.7 151.7L560.7 151.5L560.8 151.4L560.8 151.3L560.8 151.2L560.8 151L560.8 150.9L560.9 150.8L560.9 150.6L560.9 150.5L560.9 150.3L560.9 150.2L561 150L561 149.9L561 149.7L561 149.5L561.1 149.3L561.1 149.2L561.1 149L561.1 148.8L561.1 148.6L561.2 148.4L561.2 148.2L561.2 148L561.2 147.7L561.2 147.5L561.3 147.3L561.3 147.1L561.3 146.9L561.3 146.7L561.3 146.4L561.4 146.2L561.4 146L561.4 145.8L561.4 145.6L561.4 145.4L561.5 145.1L561.5 144.9L561.5 144.7L561.5 144.5L561.6 144.2L561.6 144L561.6 143.8L561.6 143.6L561.6 143.4L561.7 143.1L561.7 142.9L561.7 142.7L561.7 142.5L561.7 142.2L561.8 142L561.8 141.8L561.8 141.6L561.8 141.4L561.8 141.2L561.9 141L561.9 140.7L561.9 140.5L561.9 140.3L561.9 140.1L562 139.9L562 139.7L562 139.4L562 139.2L562.1 139L562.1 138.8L562.1 138.5L562.1 138.3L562.1 138.1L562.2 137.9L562.2 137.7L562.2 137.5L562.2 137.3L562.2 137.1L562.3 136.9L562.3 136.7L562.3 136.5L562.3 136.3L562.3 136.1L562.4 135.9L562.4 135.6L562.4 135.4L562.4 135.1L562.5 134.9L562.5 134.6L562.5 134.4L562.5 134.1L562.5 133.9L562.6 133.6L562.6 133.4L562.6 133.1L562.6 132.8L562.6 132.5L562.7 132.2L562.7 131.9L562.7 131.6L562.7 131.3L562.7 131L562.8 130.7L562.8 130.4L562.8 130.1L562.8 129.8L562.8 129.5L562.9 129.2L562.9 128.9L562.9 128.6L562.9 128.3L563 128.1L563 127.8L563 127.5L563 127.3L563 127L563.1 126.8L563.1 126.5L563.1 126.3L563.1 126L563.1 125.8L563.2 125.5L563.2 125.3L563.2 125L563.2 124.8L563.2 124.6L563.3 124.3L563.3 124.1L563.3 123.8L563.3 123.6L563.3 123.4L563.4 123.2L563.4 123L563.4 122.8L563.4 122.6L563.5 122.4L563.5 122.2L563.5 122L563.5 121.8L563.5 121.6L563.6 121.5L563.6 121.3L563.6 121.1L563.6 121L563.6 120.8L563.7 120.7L563.7 120.5L563.7 120.4L563.7 120.3L563.7 120.2L563.8 120L563.8 119.9L563.8 119.8L563.8 119.7L563.8 119.6L563.9 119.5L563.9 119.4L563.9 119.3L563.9 119.2L564 119.1L564 119L564 118.9L564 118.8L564 118.7L564.1 118.7L564.1 118.6L564.1 118.6"
                ></path>
                <path
                    fill="none"
                    stroke-linecap="butt"
                    stroke-linejoin="round"
                    stroke="#4c6a9c"
                    id="line__Population-(historical)"
                    stroke-width="1.5"
                    stroke-opacity="1"
                    d="M313.1 184.5L334 182.3L354.9 180L375.7 177.7L396.6 175.3L417.5 172.9L438.4 170.5L459.2 168L480.1 165.4L501 162.8L521.9 160.1L524 159.3L526 158.6L528.1 157.9L530.2 157.1L532.3 156.4L534.4 155.7L536.5 154.9L538.6 154.2L540.7 153.7L542.7 153.1L544.8 152.1L546.9 151.1L549 150.1L551.1 149.3L553.2 148L554.3 153.6L555.3 165.1L556.1 165.5L557.4 165.9L557.6 165.6L557.8 165.2L558 164.9L558.2 164.5L558.4 164L558.6 163.5L558.8 163L559 162.4L559.1 162.2L559.2 162L559.2 161.8L559.4 160.9L559.5 160.9L559.5 160.8L559.5 160.8L559.5 160.7L559.5 160.7L559.6 160.6L559.6 160.5L559.6 160.5L559.6 160.4L559.7 160.3L559.7 160.2L559.7 160L559.7 159.9L559.7 159.8L559.8 159.7L559.8 159.5L559.8 159.4L559.8 159.2L559.8 159.1L559.9 158.9L559.9 158.8L559.9 158.6L559.9 158.4L559.9 158.2L560 158.1L560 157.9L560 157.7L560 157.5L560 157.3L560.1 157.1L560.1 156.9L560.1 156.7L560.1 156.5L560.2 156.3L560.2 156.1L560.2 155.9L560.2 155.6L560.2 155.4L560.3 155.2L560.3 155L560.3 154.8L560.3 154.5L560.3 154.3L560.4 154.1L560.4 153.9L560.4 153.7L560.4 153.5L560.4 153.2L560.5 153.1L560.5 152.9L560.5 152.7L560.5 152.6L560.6 152.5L560.6 152.4L560.6 152.3L560.6 152.2L560.6 152.1L560.7 152L560.7 151.9L560.7 151.8L560.7 151.7L560.7 151.5L560.8 151.4L560.8 151.3L560.8 151.2L560.8 151L560.8 150.9L560.9 150.8L560.9 150.6L560.9 150.5L560.9 150.3L560.9 150.2L561 150L561 149.9L561 149.7L561 149.5L561.1 149.3L561.1 149.2L561.1 149L561.1 148.8L561.1 148.6L561.2 148.4L561.2 148.2L561.2 148L561.2 147.7L561.2 147.5L561.3 147.3L561.3 147.1L561.3 146.9L561.3 146.7L561.3 146.4L561.4 146.2L561.4 146L561.4 145.8L561.4 145.6L561.4 145.4L561.5 145.1L561.5 144.9L561.5 144.7L561.5 144.5L561.6 144.2L561.6 144L561.6 143.8L561.6 143.6L561.6 143.4L561.7 143.1L561.7 142.9L561.7 142.7L561.7 142.5L561.7 142.2L561.8 142L561.8 141.8L561.8 141.6L561.8 141.4L561.8 141.2L561.9 141L561.9 140.7L561.9 140.5L561.9 140.3L561.9 140.1L562 139.9L562 139.7L562 139.4L562 139.2L562.1 139L562.1 138.8L562.1 138.5L562.1 138.3L562.1 138.1L562.2 137.9L562.2 137.7L562.2 137.5L562.2 137.3L562.2 137.1L562.3 136.9L562.3 136.7L562.3 136.5L562.3 136.3L562.3 136.1L562.4 135.9L562.4 135.6L562.4 135.4L562.4 135.1L562.5 134.9L562.5 134.6L562.5 134.4L562.5 134.1L562.5 133.9L562.6 133.6L562.6 133.4L562.6 133.1L562.6 132.8L562.6 132.5L562.7 132.2L562.7 131.9L562.7 131.6L562.7 131.3L562.7 131L562.8 130.7L562.8 130.4L562.8 130.1L562.8 129.8L562.8 129.5L562.9 129.2L562.9 128.9L562.9 128.6L562.9 128.3L563 128.1L563 127.8L563 127.5L563 127.3L563 127L563.1 126.8L563.1 126.5L563.1 126.3L563.1 126L563.1 125.8L563.2 125.5L563.2 125.3L563.2 125L563.2 124.8L563.2 124.6L563.3 124.3L563.3 124.1L563.3 123.8L563.3 123.6L563.3 123.4L563.4 123.2L563.4 123L563.4 122.8L563.4 122.6L563.5 122.4L563.5 122.2L563.5 122L563.5 121.8L563.5 121.6L563.6 121.5L563.6 121.3L563.6 121.1L563.6 121L563.6 120.8L563.7 120.7L563.7 120.5L563.7 120.4L563.7 120.3L563.7 120.2L563.8 120L563.8 119.9L563.8 119.8L563.8 119.7L563.8 119.6L563.9 119.5L563.9 119.4L563.9 119.3L563.9 119.2L564 119.1L564 119L564 118.9L564 118.8L564 118.7L564.1 118.7L564.1 118.6L564.1 118.6"
                ></path>
            </g>
        </g>
        <text
            x="580.1"
            y="78.96875"
            fill="#5b5b5b"
            font-size="14.625"
            style="font-weight: 700"
        >
            Asia
            <title>Asia</title>
        </text>
        <g id="Asia">
            <g id="horizontal-axis" class="HorizontalAxis">
                <g id="tick-marks">
                    <line
                        id="10,000-BCE"
                        x1="580.1"
                        y1="192.78125"
                        x2="580.1"
                        y2="198.28125"
                        stroke="#999"
                        stroke-width="1"
                    ></line>
                    <line
                        id="2023"
                        x1="831.1"
                        y1="192.78125"
                        x2="831.1"
                        y2="198.28125"
                        stroke="#999"
                        stroke-width="1"
                    ></line>
                    <line
                        id="4,000-BCE"
                        x1="705.4"
                        y1="192.78125"
                        x2="705.4"
                        y2="198.28125"
                        stroke="#999"
                        stroke-width="1"
                    ></line>
                    <line
                        id="0"
                        x1="788.9"
                        y1="192.78125"
                        x2="788.9"
                        y2="198.28125"
                        stroke="#999"
                        stroke-width="1"
                    ></line>
                </g>
                <g id="tick-labels">
                    <text
                        x="580.1"
                        y="208.28125"
                        fill="#5b5b5b"
                        text-anchor="start"
                        font-size="10"
                    >
                        10,000 BCE
                    </text>
                    <text
                        x="831.1"
                        y="208.28125"
                        fill="#5b5b5b"
                        text-anchor="end"
                        font-size="10"
                    >
                        2023
                    </text>
                    <text
                        x="705.4"
                        y="208.28125"
                        fill="#5b5b5b"
                        text-anchor="middle"
                        font-size="10"
                    >
                        4,000 BCE
                    </text>
                    <text
                        x="788.9"
                        y="208.28125"
                        fill="#5b5b5b"
                        text-anchor="middle"
                        font-size="10"
                    >
                        0
                    </text>
                </g>
            </g>
            <g id="horizontal-grid-lines" class="AxisGridLines horizontalLines">
                <line
                    id="1M"
                    x1="580.10"
                    y1="185.5"
                    x2="831.10"
                    y2="185.5"
                    stroke="#ddd"
                    stroke-dasharray="4,4"
                ></line>
                <line
                    id="10M"
                    x1="580.10"
                    y1="160.1"
                    x2="831.10"
                    y2="160.1"
                    stroke="#ddd"
                    stroke-dasharray="4,4"
                ></line>
                <line
                    id="100M"
                    x1="580.10"
                    y1="134.7"
                    x2="831.10"
                    y2="134.7"
                    stroke="#ddd"
                    stroke-dasharray="4,4"
                ></line>
                <line
                    id="1B"
                    x1="580.10"
                    y1="109.3"
                    x2="831.10"
                    y2="109.3"
                    stroke="#ddd"
                    stroke-dasharray="4,4"
                ></line>
            </g>
            <g id="lines">
                <path
                    fill="none"
                    stroke-linecap="butt"
                    stroke-linejoin="round"
                    stroke="#ffffff"
                    id="outline__Population-(historical)"
                    stroke-width="2.5"
                    d="M580.1 181.9L601 178.5L621.9 174.9L642.7 170.8L663.6 166L684.5 160.5L705.4 154.7L726.2 149.2L747.1 143L768 138.2L788.9 129.2L791 129.1L793 129.1L795.1 130.1L797.2 129.2L799.3 128.4L801.4 127.3L803.5 127.4L805.6 127.5L807.7 126.7L809.7 126.6L811.8 123.8L813.9 123L816 123.7L818.1 123.7L820.2 122.5L821.3 121.9L822.3 121.4L823.1 120.6L824.4 119.8L824.6 119.4L824.8 118.9L825 118.5L825.2 118L825.4 117L825.6 116.5L825.8 115.8L826 114.7L826.1 114.5L826.2 114.3L826.2 114.1L826.4 113.5L826.5 113.5L826.5 113.5L826.5 113.4L826.5 113.4L826.5 113.4L826.6 113.3L826.6 113.3L826.6 113.3L826.6 113.2L826.7 113.2L826.7 113.1L826.7 113L826.7 113L826.7 112.9L826.8 112.8L826.8 112.8L826.8 112.7L826.8 112.6L826.8 112.6L826.9 112.5L826.9 112.4L826.9 112.4L826.9 112.3L826.9 112.3L827 112.2L827 112.1L827 112.1L827 112L827 112L827.1 111.9L827.1 111.9L827.1 111.8L827.1 111.8L827.2 111.8L827.2 111.8L827.2 111.7L827.2 111.7L827.2 111.7L827.3 111.7L827.3 111.6L827.3 111.6L827.3 111.6L827.3 111.6L827.4 111.6L827.4 111.5L827.4 111.5L827.4 111.5L827.4 111.5L827.5 111.5L827.5 111.4L827.5 111.5L827.5 111.5L827.6 111.5L827.6 111.5L827.6 111.6L827.6 111.6L827.6 111.6L827.7 111.6L827.7 111.6L827.7 111.7L827.7 111.7L827.7 111.7L827.8 111.7L827.8 111.7L827.8 111.7L827.8 111.7L827.8 111.7L827.9 111.7L827.9 111.7L827.9 111.6L827.9 111.6L827.9 111.6L828 111.6L828 111.5L828 111.5L828 111.5L828.1 111.4L828.1 111.4L828.1 111.3L828.1 111.3L828.1 111.3L828.2 111.2L828.2 111.1L828.2 111.1L828.2 111L828.2 110.9L828.3 110.9L828.3 110.8L828.3 110.7L828.3 110.7L828.3 110.6L828.4 110.6L828.4 110.5L828.4 110.5L828.4 110.4L828.4 110.4L828.5 110.3L828.5 110.2L828.5 110.2L828.5 110.1L828.6 110.1L828.6 110L828.6 109.9L828.6 109.8L828.6 109.7L828.7 109.7L828.7 109.6L828.7 109.5L828.7 109.4L828.7 109.3L828.8 109.3L828.8 109.2L828.8 109.1L828.8 109L828.8 108.9L828.9 108.9L828.9 108.8L828.9 108.7L828.9 108.6L828.9 108.5L829 108.4L829 108.4L829 108.3L829 108.2L829.1 108.1L829.1 108L829.1 108L829.1 107.9L829.1 107.8L829.2 107.7L829.2 107.6L829.2 107.5L829.2 107.3L829.2 107.2L829.3 107.1L829.3 107L829.3 106.9L829.3 106.7L829.3 106.6L829.4 106.5L829.4 106.5L829.4 106.4L829.4 106.3L829.5 106.3L829.5 106.2L829.5 106.2L829.5 106.1L829.5 106L829.6 105.9L829.6 105.9L829.6 105.7L829.6 105.4L829.6 105.2L829.7 104.9L829.7 104.7L829.7 104.4L829.7 104.2L829.7 103.9L829.8 103.7L829.8 103.5L829.8 103.4L829.8 103.1L829.8 102.9L829.9 102.6L829.9 102.3L829.9 102L829.9 101.8L830 101.5L830 101.2L830 101L830 100.7L830 100.5L830.1 100.2L830.1 100L830.1 99.7L830.1 99.5L830.1 99.3L830.2 99.1L830.2 98.9L830.2 98.7L830.2 98.4L830.2 98.2L830.3 98L830.3 97.8L830.3 97.6L830.3 97.4L830.3 97.1L830.4 96.9L830.4 96.7L830.4 96.5L830.4 96.3L830.5 96.1L830.5 95.9L830.5 95.7L830.5 95.6L830.5 95.4L830.6 95.2L830.6 95.1L830.6 94.9L830.6 94.8L830.6 94.6L830.7 94.5L830.7 94.3L830.7 94.2L830.7 94.1L830.7 93.9L830.8 93.8L830.8 93.7L830.8 93.5L830.8 93.4L830.8 93.3L830.9 93.2L830.9 93L830.9 92.9L830.9 92.8L831 92.7L831 92.6L831 92.5L831 92.4L831 92.3L831.1 92.2L831.1 92.2L831.1 92.1"
                ></path>
                <path
                    fill="none"
                    stroke-linecap="butt"
                    stroke-linejoin="round"
                    stroke="#4c6a9c"
                    id="line__Population-(historical)"
                    stroke-width="1.5"
                    stroke-opacity="1"
                    d="M580.1 181.9L601 178.5L621.9 174.9L642.7 170.8L663.6 166L684.5 160.5L705.4 154.7L726.2 149.2L747.1 143L768 138.2L788.9 129.2L791 129.1L793 129.1L795.1 130.1L797.2 129.2L799.3 128.4L801.4 127.3L803.5 127.4L805.6 127.5L807.7 126.7L809.7 126.6L811.8 123.8L813.9 123L816 123.7L818.1 123.7L820.2 122.5L821.3 121.9L822.3 121.4L823.1 120.6L824.4 119.8L824.6 119.4L824.8 118.9L825 118.5L825.2 118L825.4 117L825.6 116.5L825.8 115.8L826 114.7L826.1 114.5L826.2 114.3L826.2 114.1L826.4 113.5L826.5 113.5L826.5 113.5L826.5 113.4L826.5 113.4L826.5 113.4L826.6 113.3L826.6 113.3L826.6 113.3L826.6 113.2L826.7 113.2L826.7 113.1L826.7 113L826.7 113L826.7 112.9L826.8 112.8L826.8 112.8L826.8 112.7L826.8 112.6L826.8 112.6L826.9 112.5L826.9 112.4L826.9 112.4L826.9 112.3L826.9 112.3L827 112.2L827 112.1L827 112.1L827 112L827 112L827.1 111.9L827.1 111.9L827.1 111.8L827.1 111.8L827.2 111.8L827.2 111.8L827.2 111.7L827.2 111.7L827.2 111.7L827.3 111.7L827.3 111.6L827.3 111.6L827.3 111.6L827.3 111.6L827.4 111.6L827.4 111.5L827.4 111.5L827.4 111.5L827.4 111.5L827.5 111.5L827.5 111.4L827.5 111.5L827.5 111.5L827.6 111.5L827.6 111.5L827.6 111.6L827.6 111.6L827.6 111.6L827.7 111.6L827.7 111.6L827.7 111.7L827.7 111.7L827.7 111.7L827.8 111.7L827.8 111.7L827.8 111.7L827.8 111.7L827.8 111.7L827.9 111.7L827.9 111.7L827.9 111.6L827.9 111.6L827.9 111.6L828 111.6L828 111.5L828 111.5L828 111.5L828.1 111.4L828.1 111.4L828.1 111.3L828.1 111.3L828.1 111.3L828.2 111.2L828.2 111.1L828.2 111.1L828.2 111L828.2 110.9L828.3 110.9L828.3 110.8L828.3 110.7L828.3 110.7L828.3 110.6L828.4 110.6L828.4 110.5L828.4 110.5L828.4 110.4L828.4 110.4L828.5 110.3L828.5 110.2L828.5 110.2L828.5 110.1L828.6 110.1L828.6 110L828.6 109.9L828.6 109.8L828.6 109.7L828.7 109.7L828.7 109.6L828.7 109.5L828.7 109.4L828.7 109.3L828.8 109.3L828.8 109.2L828.8 109.1L828.8 109L828.8 108.9L828.9 108.9L828.9 108.8L828.9 108.7L828.9 108.6L828.9 108.5L829 108.4L829 108.4L829 108.3L829 108.2L829.1 108.1L829.1 108L829.1 108L829.1 107.9L829.1 107.8L829.2 107.7L829.2 107.6L829.2 107.5L829.2 107.3L829.2 107.2L829.3 107.1L829.3 107L829.3 106.9L829.3 106.7L829.3 106.6L829.4 106.5L829.4 106.5L829.4 106.4L829.4 106.3L829.5 106.3L829.5 106.2L829.5 106.2L829.5 106.1L829.5 106L829.6 105.9L829.6 105.9L829.6 105.7L829.6 105.4L829.6 105.2L829.7 104.9L829.7 104.7L829.7 104.4L829.7 104.2L829.7 103.9L829.8 103.7L829.8 103.5L829.8 103.4L829.8 103.1L829.8 102.9L829.9 102.6L829.9 102.3L829.9 102L829.9 101.8L830 101.5L830 101.2L830 101L830 100.7L830 100.5L830.1 100.2L830.1 100L830.1 99.7L830.1 99.5L830.1 99.3L830.2 99.1L830.2 98.9L830.2 98.7L830.2 98.4L830.2 98.2L830.3 98L830.3 97.8L830.3 97.6L830.3 97.4L830.3 97.1L830.4 96.9L830.4 96.7L830.4 96.5L830.4 96.3L830.5 96.1L830.5 95.9L830.5 95.7L830.5 95.6L830.5 95.4L830.6 95.2L830.6 95.1L830.6 94.9L830.6 94.8L830.6 94.6L830.7 94.5L830.7 94.3L830.7 94.2L830.7 94.1L830.7 93.9L830.8 93.8L830.8 93.7L830.8 93.5L830.8 93.4L830.8 93.3L830.9 93.2L830.9 93L830.9 92.9L830.9 92.8L831 92.7L831 92.6L831 92.5L831 92.4L831 92.3L831.1 92.2L831.1 92.2L831.1 92.1"
                ></path>
            </g>
        </g>
        <text
            x="46.1"
            y="239.96875"
            fill="#5b5b5b"
            font-size="14.625"
            style="font-weight: 700"
        >
            Europe
            <title>Europe</title>
        </text>
        <g id="Europe">
            <g id="horizontal-axis" class="HorizontalAxis">
                <g id="tick-marks">
                    <line
                        id="10,000-BCE"
                        x1="46.1"
                        y1="353.78125"
                        x2="46.1"
                        y2="359.28125"
                        stroke="#999"
                        stroke-width="1"
                    ></line>
                    <line
                        id="2023"
                        x1="297.1"
                        y1="353.78125"
                        x2="297.1"
                        y2="359.28125"
                        stroke="#999"
                        stroke-width="1"
                    ></line>
                    <line
                        id="4,000-BCE"
                        x1="171.4"
                        y1="353.78125"
                        x2="171.4"
                        y2="359.28125"
                        stroke="#999"
                        stroke-width="1"
                    ></line>
                    <line
                        id="0"
                        x1="254.9"
                        y1="353.78125"
                        x2="254.9"
                        y2="359.28125"
                        stroke="#999"
                        stroke-width="1"
                    ></line>
                </g>
                <g id="tick-labels">
                    <text
                        x="46.1"
                        y="369.28125"
                        fill="#5b5b5b"
                        text-anchor="start"
                        font-size="10"
                    >
                        10,000 BCE
                    </text>
                    <text
                        x="297.1"
                        y="369.28125"
                        fill="#5b5b5b"
                        text-anchor="end"
                        font-size="10"
                    >
                        2023
                    </text>
                    <text
                        x="171.4"
                        y="369.28125"
                        fill="#5b5b5b"
                        text-anchor="middle"
                        font-size="10"
                    >
                        4,000 BCE
                    </text>
                    <text
                        x="254.9"
                        y="369.28125"
                        fill="#5b5b5b"
                        text-anchor="middle"
                        font-size="10"
                    >
                        0
                    </text>
                </g>
            </g>
            <g id="vertical-axis" class="VerticalAxis">
                <g id="tick-labels">
                    <text
                        x="41.10"
                        y="346.5"
                        dy=".32em"
                        text-anchor="end"
                        fill="#5b5b5b"
                        font-size="10"
                    >
                        1M
                    </text>
                    <text
                        x="41.10"
                        y="321.1"
                        dy=".32em"
                        text-anchor="end"
                        fill="#5b5b5b"
                        font-size="10"
                    >
                        10M
                    </text>
                    <text
                        x="41.10"
                        y="295.7"
                        dy=".32em"
                        text-anchor="end"
                        fill="#5b5b5b"
                        font-size="10"
                    >
                        100M
                    </text>
                    <text
                        x="41.10"
                        y="270.3"
                        dy=".32em"
                        text-anchor="end"
                        fill="#5b5b5b"
                        font-size="10"
                    >
                        1B
                    </text>
                </g>
            </g>
            <g id="horizontal-grid-lines" class="AxisGridLines horizontalLines">
                <line
                    id="1M"
                    x1="46.10"
                    y1="346.5"
                    x2="297.10"
                    y2="346.5"
                    stroke="#ddd"
                    stroke-dasharray="4,4"
                ></line>
                <line
                    id="10M"
                    x1="46.10"
                    y1="321.1"
                    x2="297.10"
                    y2="321.1"
                    stroke="#ddd"
                    stroke-dasharray="4,4"
                ></line>
                <line
                    id="100M"
                    x1="46.10"
                    y1="295.7"
                    x2="297.10"
                    y2="295.7"
                    stroke="#ddd"
                    stroke-dasharray="4,4"
                ></line>
                <line
                    id="1B"
                    x1="46.10"
                    y1="270.3"
                    x2="297.10"
                    y2="270.3"
                    stroke="#ddd"
                    stroke-dasharray="4,4"
                ></line>
            </g>
            <g id="lines">
                <path
                    fill="none"
                    stroke-linecap="butt"
                    stroke-linejoin="round"
                    stroke="#ffffff"
                    id="outline__Population-(historical)"
                    stroke-width="2.5"
                    d="M46.1 333.6L67 333.2L87.9 332.8L108.7 332.2L129.6 331.4L150.5 330.4L171.4 328.7L192.2 326.2L213.1 321.4L234 316.3L254.9 307.5L257 307.1L259 306.6L261.1 307L263.2 307.5L265.3 308.8L267.4 310.3L269.5 309.4L271.6 308.4L273.7 307.3L275.7 306.3L277.8 304.2L279.9 301L282 297.5L284.1 300.9L286.2 298.1L287.3 296.7L288.3 295.4L289.1 294.7L290.4 294L290.6 293.2L290.8 292.5L291 291.9L291.2 291.4L291.4 290.8L291.6 290.3L291.8 289.8L292 289.2L292.1 289.1L292.2 288.9L292.2 288.7L292.4 288.3L292.5 288.3L292.5 288.2L292.5 288.2L292.5 288.1L292.5 288.1L292.6 288L292.6 288L292.6 287.9L292.6 287.9L292.7 287.8L292.7 287.7L292.7 287.6L292.7 287.5L292.7 287.4L292.8 287.3L292.8 287.2L292.8 287.1L292.8 287L292.8 286.9L292.9 286.8L292.9 286.7L292.9 286.6L292.9 286.5L292.9 286.4L293 286.3L293 286.2L293 286.1L293 286.1L293 286L293.1 285.9L293.1 285.8L293.1 285.7L293.1 285.6L293.2 285.5L293.2 285.4L293.2 285.3L293.2 285.3L293.2 285.2L293.3 285.1L293.3 285L293.3 284.9L293.3 284.9L293.3 284.8L293.4 284.7L293.4 284.7L293.4 284.6L293.4 284.6L293.4 284.5L293.5 284.4L293.5 284.3L293.5 284.3L293.5 284.2L293.6 284.1L293.6 284.1L293.6 284L293.6 283.9L293.6 283.9L293.7 283.8L293.7 283.7L293.7 283.6L293.7 283.6L293.7 283.5L293.8 283.4L293.8 283.3L293.8 283.3L293.8 283.2L293.8 283.1L293.9 283L293.9 282.9L293.9 282.9L293.9 282.8L293.9 282.7L294 282.6L294 282.5L294 282.4L294 282.4L294.1 282.3L294.1 282.2L294.1 282.1L294.1 282L294.1 281.9L294.2 281.8L294.2 281.8L294.2 281.7L294.2 281.6L294.2 281.5L294.3 281.4L294.3 281.3L294.3 281.2L294.3 281.1L294.3 281.1L294.4 281L294.4 280.9L294.4 280.8L294.4 280.7L294.4 280.6L294.5 280.5L294.5 280.4L294.5 280.3L294.5 280.2L294.6 280.1L294.6 280L294.6 280L294.6 279.9L294.6 279.8L294.7 279.7L294.7 279.6L294.7 279.5L294.7 279.4L294.7 279.3L294.8 279.3L294.8 279.2L294.8 279.2L294.8 279.2L294.8 279.1L294.9 279.1L294.9 279.1L294.9 279.1L294.9 279L294.9 279L295 278.9L295 278.8L295 278.7L295 278.7L295.1 278.6L295.1 278.5L295.1 278.4L295.1 278.3L295.1 278.3L295.2 278.2L295.2 278.1L295.2 278L295.2 277.9L295.2 277.9L295.3 277.8L295.3 277.7L295.3 277.6L295.3 277.5L295.3 277.5L295.4 277.4L295.4 277.3L295.4 277.3L295.4 277.3L295.5 277.2L295.5 277.2L295.5 277.1L295.5 277.1L295.5 277.1L295.6 277L295.6 276.9L295.6 276.8L295.6 276.7L295.6 276.6L295.7 276.5L295.7 276.4L295.7 276.3L295.7 276.2L295.7 276.1L295.8 276L295.8 275.9L295.8 275.7L295.8 275.6L295.8 275.5L295.9 275.4L295.9 275.3L295.9 275.3L295.9 275.2L296 275.1L296 275L296 275L296 274.9L296 274.8L296.1 274.7L296.1 274.7L296.1 274.6L296.1 274.6L296.1 274.5L296.2 274.5L296.2 274.4L296.2 274.3L296.2 274.3L296.2 274.2L296.3 274.2L296.3 274.2L296.3 274.1L296.3 274.1L296.3 274L296.4 274L296.4 273.9L296.4 273.9L296.4 273.8L296.5 273.8L296.5 273.8L296.5 273.8L296.5 273.8L296.5 273.8L296.6 273.8L296.6 273.8L296.6 273.8L296.6 273.8L296.6 273.8L296.7 273.8L296.7 273.8L296.7 273.8L296.7 273.8L296.7 273.7L296.8 273.7L296.8 273.7L296.8 273.7L296.8 273.7L296.8 273.6L296.9 273.6L296.9 273.6L296.9 273.6L296.9 273.6L297 273.5L297 273.5L297 273.5L297 273.5L297 273.5L297.1 273.5L297.1 273.5L297.1 273.6"
                ></path>
                <path
                    fill="none"
                    stroke-linecap="butt"
                    stroke-linejoin="round"
                    stroke="#4c6a9c"
                    id="line__Population-(historical)"
                    stroke-width="1.5"
                    stroke-opacity="1"
                    d="M46.1 333.6L67 333.2L87.9 332.8L108.7 332.2L129.6 331.4L150.5 330.4L171.4 328.7L192.2 326.2L213.1 321.4L234 316.3L254.9 307.5L257 307.1L259 306.6L261.1 307L263.2 307.5L265.3 308.8L267.4 310.3L269.5 309.4L271.6 308.4L273.7 307.3L275.7 306.3L277.8 304.2L279.9 301L282 297.5L284.1 300.9L286.2 298.1L287.3 296.7L288.3 295.4L289.1 294.7L290.4 294L290.6 293.2L290.8 292.5L291 291.9L291.2 291.4L291.4 290.8L291.6 290.3L291.8 289.8L292 289.2L292.1 289.1L292.2 288.9L292.2 288.7L292.4 288.3L292.5 288.3L292.5 288.2L292.5 288.2L292.5 288.1L292.5 288.1L292.6 288L292.6 288L292.6 287.9L292.6 287.9L292.7 287.8L292.7 287.7L292.7 287.6L292.7 287.5L292.7 287.4L292.8 287.3L292.8 287.2L292.8 287.1L292.8 287L292.8 286.9L292.9 286.8L292.9 286.7L292.9 286.6L292.9 286.5L292.9 286.4L293 286.3L293 286.2L293 286.1L293 286.1L293 286L293.1 285.9L293.1 285.8L293.1 285.7L293.1 285.6L293.2 285.5L293.2 285.4L293.2 285.3L293.2 285.3L293.2 285.2L293.3 285.1L293.3 285L293.3 284.9L293.3 284.9L293.3 284.8L293.4 284.7L293.4 284.7L293.4 284.6L293.4 284.6L293.4 284.5L293.5 284.4L293.5 284.3L293.5 284.3L293.5 284.2L293.6 284.1L293.6 284.1L293.6 284L293.6 283.9L293.6 283.9L293.7 283.8L293.7 283.7L293.7 283.6L293.7 283.6L293.7 283.5L293.8 283.4L293.8 283.3L293.8 283.3L293.8 283.2L293.8 283.1L293.9 283L293.9 282.9L293.9 282.9L293.9 282.8L293.9 282.7L294 282.6L294 282.5L294 282.4L294 282.4L294.1 282.3L294.1 282.2L294.1 282.1L294.1 282L294.1 281.9L294.2 281.8L294.2 281.8L294.2 281.7L294.2 281.6L294.2 281.5L294.3 281.4L294.3 281.3L294.3 281.2L294.3 281.1L294.3 281.1L294.4 281L294.4 280.9L294.4 280.8L294.4 280.7L294.4 280.6L294.5 280.5L294.5 280.4L294.5 280.3L294.5 280.2L294.6 280.1L294.6 280L294.6 280L294.6 279.9L294.6 279.8L294.7 279.7L294.7 279.6L294.7 279.5L294.7 279.4L294.7 279.3L294.8 279.3L294.8 279.2L294.8 279.2L294.8 279.2L294.8 279.1L294.9 279.1L294.9 279.1L294.9 279.1L294.9 279L294.9 279L295 278.9L295 278.8L295 278.7L295 278.7L295.1 278.6L295.1 278.5L295.1 278.4L295.1 278.3L295.1 278.3L295.2 278.2L295.2 278.1L295.2 278L295.2 277.9L295.2 277.9L295.3 277.8L295.3 277.7L295.3 277.6L295.3 277.5L295.3 277.5L295.4 277.4L295.4 277.3L295.4 277.3L295.4 277.3L295.5 277.2L295.5 277.2L295.5 277.1L295.5 277.1L295.5 277.1L295.6 277L295.6 276.9L295.6 276.8L295.6 276.7L295.6 276.6L295.7 276.5L295.7 276.4L295.7 276.3L295.7 276.2L295.7 276.1L295.8 276L295.8 275.9L295.8 275.7L295.8 275.6L295.8 275.5L295.9 275.4L295.9 275.3L295.9 275.3L295.9 275.2L296 275.1L296 275L296 275L296 274.9L296 274.8L296.1 274.7L296.1 274.7L296.1 274.6L296.1 274.6L296.1 274.5L296.2 274.5L296.2 274.4L296.2 274.3L296.2 274.3L296.2 274.2L296.3 274.2L296.3 274.2L296.3 274.1L296.3 274.1L296.3 274L296.4 274L296.4 273.9L296.4 273.9L296.4 273.8L296.5 273.8L296.5 273.8L296.5 273.8L296.5 273.8L296.5 273.8L296.6 273.8L296.6 273.8L296.6 273.8L296.6 273.8L296.6 273.8L296.7 273.8L296.7 273.8L296.7 273.8L296.7 273.8L296.7 273.7L296.8 273.7L296.8 273.7L296.8 273.7L296.8 273.7L296.8 273.6L296.9 273.6L296.9 273.6L296.9 273.6L296.9 273.6L297 273.5L297 273.5L297 273.5L297 273.5L297 273.5L297.1 273.5L297.1 273.5L297.1 273.6"
                ></path>
            </g>
        </g>
        <text
            x="313.1"
            y="239.96875"
            fill="#5b5b5b"
            font-size="14.625"
            style="font-weight: 700"
        >
            Africa
            <title>Africa</title>
        </text>
        <g id="Africa">
            <g id="horizontal-axis" class="HorizontalAxis">
                <g id="tick-marks">
                    <line
                        id="10,000-BCE"
                        x1="313.1"
                        y1="353.78125"
                        x2="313.1"
                        y2="359.28125"
                        stroke="#999"
                        stroke-width="1"
                    ></line>
                    <line
                        id="2023"
                        x1="564.1"
                        y1="353.78125"
                        x2="564.1"
                        y2="359.28125"
                        stroke="#999"
                        stroke-width="1"
                    ></line>
                    <line
                        id="4,000-BCE"
                        x1="438.4"
                        y1="353.78125"
                        x2="438.4"
                        y2="359.28125"
                        stroke="#999"
                        stroke-width="1"
                    ></line>
                    <line
                        id="0"
                        x1="521.9"
                        y1="353.78125"
                        x2="521.9"
                        y2="359.28125"
                        stroke="#999"
                        stroke-width="1"
                    ></line>
                </g>
                <g id="tick-labels">
                    <text
                        x="313.1"
                        y="369.28125"
                        fill="#5b5b5b"
                        text-anchor="start"
                        font-size="10"
                    >
                        10,000 BCE
                    </text>
                    <text
                        x="564.1"
                        y="369.28125"
                        fill="#5b5b5b"
                        text-anchor="end"
                        font-size="10"
                    >
                        2023
                    </text>
                    <text
                        x="438.4"
                        y="369.28125"
                        fill="#5b5b5b"
                        text-anchor="middle"
                        font-size="10"
                    >
                        4,000 BCE
                    </text>
                    <text
                        x="521.9"
                        y="369.28125"
                        fill="#5b5b5b"
                        text-anchor="middle"
                        font-size="10"
                    >
                        0
                    </text>
                </g>
            </g>
            <g id="horizontal-grid-lines" class="AxisGridLines horizontalLines">
                <line
                    id="1M"
                    x1="313.10"
                    y1="346.5"
                    x2="564.10"
                    y2="346.5"
                    stroke="#ddd"
                    stroke-dasharray="4,4"
                ></line>
                <line
                    id="10M"
                    x1="313.10"
                    y1="321.1"
                    x2="564.10"
                    y2="321.1"
                    stroke="#ddd"
                    stroke-dasharray="4,4"
                ></line>
                <line
                    id="100M"
                    x1="313.10"
                    y1="295.7"
                    x2="564.10"
                    y2="295.7"
                    stroke="#ddd"
                    stroke-dasharray="4,4"
                ></line>
                <line
                    id="1B"
                    x1="313.10"
                    y1="270.3"
                    x2="564.10"
                    y2="270.3"
                    stroke="#ddd"
                    stroke-dasharray="4,4"
                ></line>
            </g>
            <g id="lines">
                <path
                    fill="none"
                    stroke-linecap="butt"
                    stroke-linejoin="round"
                    stroke="#ffffff"
                    id="outline__Population-(historical)"
                    stroke-width="2.5"
                    d="M313.1 345.3L334 344.4L354.9 343.1L375.7 341.6L396.6 339.6L417.5 337.1L438.4 333.8L459.2 328.9L480.1 325.1L501 321.2L521.9 316.1L524 315.2L526 314.2L528.1 313.6L530.2 313L532.3 312.2L534.4 311.2L536.5 309.7L538.6 308.1L540.7 306.8L542.7 305.6L544.8 304.9L546.9 304.2L549 303L551.1 302.2L553.2 301.4L554.3 300.6L555.3 299.7L556.1 299L557.4 298.3L557.6 298.3L557.8 298.3L558 298.3L558.2 298.2L558.4 298.1L558.6 298.1L558.8 298L559 297.9L559.1 297.9L559.2 297.8L559.2 297.8L559.4 298L559.5 298L559.5 298L559.5 298L559.5 298L559.5 297.9L559.6 297.9L559.6 297.9L559.6 297.9L559.6 297.9L559.7 297.9L559.7 297.8L559.7 297.8L559.7 297.8L559.7 297.8L559.8 297.8L559.8 297.7L559.8 297.7L559.8 297.7L559.8 297.6L559.9 297.6L559.9 297.5L559.9 297.5L559.9 297.4L559.9 297.3L560 297.2L560 297.1L560 297L560 296.9L560 296.8L560.1 296.7L560.1 296.6L560.1 296.5L560.1 296.4L560.2 296.3L560.2 296.2L560.2 296.1L560.2 296L560.2 295.9L560.3 295.8L560.3 295.6L560.3 295.5L560.3 295.4L560.3 295.3L560.4 295.2L560.4 295L560.4 294.9L560.4 294.8L560.4 294.7L560.5 294.5L560.5 294.4L560.5 294.4L560.5 294.3L560.6 294.3L560.6 294.2L560.6 294.2L560.6 294.2L560.6 294.1L560.7 294.1L560.7 294L560.7 294L560.7 293.9L560.7 293.9L560.8 293.9L560.8 293.8L560.8 293.8L560.8 293.7L560.8 293.7L560.9 293.6L560.9 293.6L560.9 293.5L560.9 293.5L560.9 293.4L561 293.4L561 293.3L561 293.3L561 293.2L561.1 293.2L561.1 293.1L561.1 293L561.1 293L561.1 292.9L561.2 292.9L561.2 292.8L561.2 292.8L561.2 292.7L561.2 292.6L561.3 292.6L561.3 292.5L561.3 292.5L561.3 292.4L561.3 292.4L561.4 292.3L561.4 292.3L561.4 292.3L561.4 292.3L561.4 292.2L561.5 292.2L561.5 292.2L561.5 292.1L561.5 292.1L561.6 292.1L561.6 292L561.6 292L561.6 292L561.6 291.9L561.7 291.9L561.7 291.8L561.7 291.8L561.7 291.7L561.7 291.7L561.8 291.7L561.8 291.6L561.8 291.6L561.8 291.5L561.8 291.5L561.9 291.4L561.9 291.4L561.9 291.3L561.9 291.3L561.9 291.2L562 291.1L562 291L562 290.8L562 290.7L562.1 290.6L562.1 290.4L562.1 290.3L562.1 290.2L562.1 290L562.2 289.9L562.2 289.7L562.2 289.6L562.2 289.5L562.2 289.3L562.3 289.2L562.3 289L562.3 288.9L562.3 288.8L562.3 288.6L562.4 288.5L562.4 288.3L562.4 288.1L562.4 287.9L562.5 287.8L562.5 287.6L562.5 287.4L562.5 287.2L562.5 287.1L562.6 286.9L562.6 286.6L562.6 286.4L562.6 286.2L562.6 285.9L562.7 285.7L562.7 285.5L562.7 285.2L562.7 285L562.7 284.7L562.8 284.5L562.8 284.2L562.8 284L562.8 283.7L562.8 283.4L562.9 283.1L562.9 282.9L562.9 282.6L562.9 282.3L563 282L563 281.7L563 281.4L563 281.1L563 280.9L563.1 280.6L563.1 280.3L563.1 279.9L563.1 279.6L563.1 279.3L563.2 279L563.2 278.7L563.2 278.4L563.2 278L563.2 277.7L563.3 277.4L563.3 277.1L563.3 276.7L563.3 276.4L563.3 276.1L563.4 275.8L563.4 275.5L563.4 275.2L563.4 274.9L563.5 274.6L563.5 274.3L563.5 274L563.5 273.8L563.5 273.5L563.6 273.2L563.6 272.9L563.6 272.7L563.6 272.4L563.6 272.1L563.7 271.8L563.7 271.5L563.7 271.3L563.7 271L563.7 270.7L563.8 270.4L563.8 270.1L563.8 269.9L563.8 269.6L563.8 269.3L563.9 269L563.9 268.7L563.9 268.4L563.9 268.1L564 267.9L564 267.6L564 267.3L564 267L564 266.8L564.1 266.5L564.1 266.3L564.1 266"
                ></path>
                <path
                    fill="none"
                    stroke-linecap="butt"
                    stroke-linejoin="round"
                    stroke="#4c6a9c"
                    id="line__Population-(historical)"
                    stroke-width="1.5"
                    stroke-opacity="1"
                    d="M313.1 345.3L334 344.4L354.9 343.1L375.7 341.6L396.6 339.6L417.5 337.1L438.4 333.8L459.2 328.9L480.1 325.1L501 321.2L521.9 316.1L524 315.2L526 314.2L528.1 313.6L530.2 313L532.3 312.2L534.4 311.2L536.5 309.7L538.6 308.1L540.7 306.8L542.7 305.6L544.8 304.9L546.9 304.2L549 303L551.1 302.2L553.2 301.4L554.3 300.6L555.3 299.7L556.1 299L557.4 298.3L557.6 298.3L557.8 298.3L558 298.3L558.2 298.2L558.4 298.1L558.6 298.1L558.8 298L559 297.9L559.1 297.9L559.2 297.8L559.2 297.8L559.4 298L559.5 298L559.5 298L559.5 298L559.5 298L559.5 297.9L559.6 297.9L559.6 297.9L559.6 297.9L559.6 297.9L559.7 297.9L559.7 297.8L559.7 297.8L559.7 297.8L559.7 297.8L559.8 297.8L559.8 297.7L559.8 297.7L559.8 297.7L559.8 297.6L559.9 297.6L559.9 297.5L559.9 297.5L559.9 297.4L559.9 297.3L560 297.2L560 297.1L560 297L560 296.9L560 296.8L560.1 296.7L560.1 296.6L560.1 296.5L560.1 296.4L560.2 296.3L560.2 296.2L560.2 296.1L560.2 296L560.2 295.9L560.3 295.8L560.3 295.6L560.3 295.5L560.3 295.4L560.3 295.3L560.4 295.2L560.4 295L560.4 294.9L560.4 294.8L560.4 294.7L560.5 294.5L560.5 294.4L560.5 294.4L560.5 294.3L560.6 294.3L560.6 294.2L560.6 294.2L560.6 294.2L560.6 294.1L560.7 294.1L560.7 294L560.7 294L560.7 293.9L560.7 293.9L560.8 293.9L560.8 293.8L560.8 293.8L560.8 293.7L560.8 293.7L560.9 293.6L560.9 293.6L560.9 293.5L560.9 293.5L560.9 293.4L561 293.4L561 293.3L561 293.3L561 293.2L561.1 293.2L561.1 293.1L561.1 293L561.1 293L561.1 292.9L561.2 292.9L561.2 292.8L561.2 292.8L561.2 292.7L561.2 292.6L561.3 292.6L561.3 292.5L561.3 292.5L561.3 292.4L561.3 292.4L561.4 292.3L561.4 292.3L561.4 292.3L561.4 292.3L561.4 292.2L561.5 292.2L561.5 292.2L561.5 292.1L561.5 292.1L561.6 292.1L561.6 292L561.6 292L561.6 292L561.6 291.9L561.7 291.9L561.7 291.8L561.7 291.8L561.7 291.7L561.7 291.7L561.8 291.7L561.8 291.6L561.8 291.6L561.8 291.5L561.8 291.5L561.9 291.4L561.9 291.4L561.9 291.3L561.9 291.3L561.9 291.2L562 291.1L562 291L562 290.8L562 290.7L562.1 290.6L562.1 290.4L562.1 290.3L562.1 290.2L562.1 290L562.2 289.9L562.2 289.7L562.2 289.6L562.2 289.5L562.2 289.3L562.3 289.2L562.3 289L562.3 288.9L562.3 288.8L562.3 288.6L562.4 288.5L562.4 288.3L562.4 288.1L562.4 287.9L562.5 287.8L562.5 287.6L562.5 287.4L562.5 287.2L562.5 287.1L562.6 286.9L562.6 286.6L562.6 286.4L562.6 286.2L562.6 285.9L562.7 285.7L562.7 285.5L562.7 285.2L562.7 285L562.7 284.7L562.8 284.5L562.8 284.2L562.8 284L562.8 283.7L562.8 283.4L562.9 283.1L562.9 282.9L562.9 282.6L562.9 282.3L563 282L563 281.7L563 281.4L563 281.1L563 280.9L563.1 280.6L563.1 280.3L563.1 279.9L563.1 279.6L563.1 279.3L563.2 279L563.2 278.7L563.2 278.4L563.2 278L563.2 277.7L563.3 277.4L563.3 277.1L563.3 276.7L563.3 276.4L563.3 276.1L563.4 275.8L563.4 275.5L563.4 275.2L563.4 274.9L563.5 274.6L563.5 274.3L563.5 274L563.5 273.8L563.5 273.5L563.6 273.2L563.6 272.9L563.6 272.7L563.6 272.4L563.6 272.1L563.7 271.8L563.7 271.5L563.7 271.3L563.7 271L563.7 270.7L563.8 270.4L563.8 270.1L563.8 269.9L563.8 269.6L563.8 269.3L563.9 269L563.9 268.7L563.9 268.4L563.9 268.1L564 267.9L564 267.6L564 267.3L564 267L564 266.8L564.1 266.5L564.1 266.3L564.1 266"
                ></path>
            </g>
        </g>
        <text
            x="580.1"
            y="239.96875"
            fill="#5b5b5b"
            font-size="14.625"
            style="font-weight: 700"
        >
            Oceania
            <title>Oceania</title>
        </text>
        <g id="Oceania">
            <g id="horizontal-axis" class="HorizontalAxis">
                <g id="tick-marks">
                    <line
                        id="10,000-BCE"
                        x1="580.1"
                        y1="353.78125"
                        x2="580.1"
                        y2="359.28125"
                        stroke="#999"
                        stroke-width="1"
                    ></line>
                    <line
                        id="2023"
                        x1="831.1"
                        y1="353.78125"
                        x2="831.1"
                        y2="359.28125"
                        stroke="#999"
                        stroke-width="1"
                    ></line>
                    <line
                        id="4,000-BCE"
                        x1="705.4"
                        y1="353.78125"
                        x2="705.4"
                        y2="359.28125"
                        stroke="#999"
                        stroke-width="1"
                    ></line>
                    <line
                        id="0"
                        x1="788.9"
                        y1="353.78125"
                        x2="788.9"
                        y2="359.28125"
                        stroke="#999"
                        stroke-width="1"
                    ></line>
                </g>
                <g id="tick-labels">
                    <text
                        x="580.1"
                        y="369.28125"
                        fill="#5b5b5b"
                        text-anchor="start"
                        font-size="10"
                    >
                        10,000 BCE
                    </text>
                    <text
                        x="831.1"
                        y="369.28125"
                        fill="#5b5b5b"
                        text-anchor="end"
                        font-size="10"
                    >
                        2023
                    </text>
                    <text
                        x="705.4"
                        y="369.28125"
                        fill="#5b5b5b"
                        text-anchor="middle"
                        font-size="10"
                    >
                        4,000 BCE
                    </text>
                    <text
                        x="788.9"
                        y="369.28125"
                        fill="#5b5b5b"
                        text-anchor="middle"
                        font-size="10"
                    >
                        0
                    </text>
                </g>
            </g>
            <g id="horizontal-grid-lines" class="AxisGridLines horizontalLines">
                <line
                    id="1M"
                    x1="580.10"
                    y1="346.5"
                    x2="831.10"
                    y2="346.5"
                    stroke="#ddd"
                    stroke-dasharray="4,4"
                ></line>
                <line
                    id="10M"
                    x1="580.10"
                    y1="321.1"
                    x2="831.10"
                    y2="321.1"
                    stroke="#ddd"
                    stroke-dasharray="4,4"
                ></line>
                <line
                    id="100M"
                    x1="580.10"
                    y1="295.7"
                    x2="831.10"
                    y2="295.7"
                    stroke="#ddd"
                    stroke-dasharray="4,4"
                ></line>
                <line
                    id="1B"
                    x1="580.10"
                    y1="270.3"
                    x2="831.10"
                    y2="270.3"
                    stroke="#ddd"
                    stroke-dasharray="4,4"
                ></line>
            </g>
            <g id="lines">
                <path
                    fill="none"
                    stroke-linecap="butt"
                    stroke-linejoin="round"
                    stroke="#ffffff"
                    id="outline__Population-(historical)"
                    stroke-width="2.5"
                    d="M580.1 354.3L601 354.2L621.9 354L642.7 353.8L663.6 353.4L684.5 352.9L705.4 352.2L726.2 351.2L747.1 349.9L768 348.2L788.9 346L791 345.7L793 345.4L795.1 345.1L797.2 344.8L799.3 344.4L801.4 344.1L803.5 343.8L805.6 343.4L807.7 343.1L809.7 342.7L811.8 342.4L813.9 342L816 341.5L818.1 341.1L820.2 340.3L821.3 339.9L822.3 339.5L823.1 339.1L824.4 338.8L824.6 338.8L824.8 338.7L825 338.7L825.2 338.6L825.4 338.5L825.6 338.5L825.8 338.4L826 338.3L826.1 338.3L826.2 338.2L826.2 338.2L826.4 341.2L826.5 341.2L826.5 341.2L826.5 341.2L826.5 341.2L826.5 341.2L826.6 341.2L826.6 341.2L826.6 341.1L826.6 341.1L826.7 341.1L826.7 341.1L826.7 341.1L826.7 341L826.7 341L826.8 341L826.8 340.9L826.8 340.9L826.8 340.9L826.8 340.8L826.9 340.8L826.9 340.8L826.9 340.8L826.9 340.8L826.9 340.7L827 340.7L827 340.7L827 340.7L827 340.7L827 340.7L827.1 340.6L827.1 340.6L827.1 340.5L827.1 340.5L827.2 340.4L827.2 340.4L827.2 340.3L827.2 340.3L827.2 340.2L827.3 340.1L827.3 340L827.3 339.9L827.3 339.8L827.3 339.7L827.4 339.6L827.4 339.5L827.4 339.3L827.4 339.2L827.4 339.1L827.5 338.9L827.5 338.7L827.5 338.4L827.5 338.2L827.6 337.8L827.6 337.5L827.6 337.1L827.6 336.8L827.6 336.4L827.7 336L827.7 335.6L827.7 335.3L827.7 335L827.7 334.8L827.8 334.5L827.8 334.3L827.8 334.1L827.8 333.9L827.8 333.7L827.9 333.4L827.9 333.2L827.9 333L827.9 332.8L827.9 332.6L828 332.4L828 332.2L828 332L828 331.8L828.1 331.6L828.1 331.4L828.1 331.2L828.1 330.9L828.1 330.7L828.2 330.5L828.2 330.2L828.2 330L828.2 329.7L828.2 329.5L828.3 329.2L828.3 328.9L828.3 328.7L828.3 328.5L828.3 328.3L828.4 328.1L828.4 327.9L828.4 327.8L828.4 327.6L828.4 327.5L828.5 327.3L828.5 327.1L828.5 327L828.5 326.8L828.6 326.7L828.6 326.5L828.6 326.3L828.6 326.2L828.6 326L828.7 325.9L828.7 325.7L828.7 325.5L828.7 325.4L828.7 325.2L828.8 325.1L828.8 325L828.8 324.9L828.8 324.7L828.8 324.6L828.9 324.5L828.9 324.3L828.9 324.2L828.9 324L828.9 323.9L829 323.7L829 323.5L829 323.3L829 323.2L829.1 323L829.1 322.8L829.1 322.6L829.1 322.4L829.1 322.2L829.2 322.1L829.2 321.9L829.2 321.8L829.2 321.7L829.2 321.5L829.3 321.4L829.3 321.3L829.3 321.1L829.3 321L829.3 320.9L829.4 320.7L829.4 320.5L829.4 320.3L829.4 320.1L829.5 319.9L829.5 319.7L829.5 319.5L829.5 319.3L829.5 319L829.6 318.8L829.6 318.6L829.6 318.3L829.6 318L829.6 317.8L829.7 317.5L829.7 317.3L829.7 317L829.7 316.8L829.7 316.5L829.8 316.3L829.8 316L829.8 315.8L829.8 315.6L829.8 315.3L829.9 315.1L829.9 314.9L829.9 314.6L829.9 314.4L830 314.2L830 314L830 313.8L830 313.5L830 313.2L830.1 313L830.1 312.8L830.1 312.6L830.1 312.5L830.1 312.4L830.2 312.2L830.2 312.1L830.2 312L830.2 311.8L830.2 311.6L830.3 311.4L830.3 311.3L830.3 311.1L830.3 310.9L830.3 310.8L830.4 310.6L830.4 310.4L830.4 310.2L830.4 310L830.5 309.9L830.5 309.7L830.5 309.5L830.5 309.4L830.5 309.2L830.6 309L830.6 308.8L830.6 308.7L830.6 308.5L830.6 308.3L830.7 308.2L830.7 308L830.7 307.8L830.7 307.6L830.7 307.4L830.8 307.2L830.8 307L830.8 306.8L830.8 306.6L830.8 306.4L830.9 306.2L830.9 306L830.9 305.8L830.9 305.7L831 305.5L831 305.3L831 305.1L831 304.9L831 304.8L831.1 304.6L831.1 304.5L831.1 304.4"
                ></path>
                <path
                    fill="none"
                    stroke-linecap="butt"
                    stroke-linejoin="round"
                    stroke="#4c6a9c"
                    id="line__Population-(historical)"
                    stroke-width="1.5"
                    stroke-opacity="1"
                    d="M580.1 354.3L601 354.2L621.9 354L642.7 353.8L663.6 353.4L684.5 352.9L705.4 352.2L726.2 351.2L747.1 349.9L768 348.2L788.9 346L791 345.7L793 345.4L795.1 345.1L797.2 344.8L799.3 344.4L801.4 344.1L803.5 343.8L805.6 343.4L807.7 343.1L809.7 342.7L811.8 342.4L813.9 342L816 341.5L818.1 341.1L820.2 340.3L821.3 339.9L822.3 339.5L823.1 339.1L824.4 338.8L824.6 338.8L824.8 338.7L825 338.7L825.2 338.6L825.4 338.5L825.6 338.5L825.8 338.4L826 338.3L826.1 338.3L826.2 338.2L826.2 338.2L826.4 341.2L826.5 341.2L826.5 341.2L826.5 341.2L826.5 341.2L826.5 341.2L826.6 341.2L826.6 341.2L826.6 341.1L826.6 341.1L826.7 341.1L826.7 341.1L826.7 341.1L826.7 341L826.7 341L826.8 341L826.8 340.9L826.8 340.9L826.8 340.9L826.8 340.8L826.9 340.8L826.9 340.8L826.9 340.8L826.9 340.8L826.9 340.7L827 340.7L827 340.7L827 340.7L827 340.7L827 340.7L827.1 340.6L827.1 340.6L827.1 340.5L827.1 340.5L827.2 340.4L827.2 340.4L827.2 340.3L827.2 340.3L827.2 340.2L827.3 340.1L827.3 340L827.3 339.9L827.3 339.8L827.3 339.7L827.4 339.6L827.4 339.5L827.4 339.3L827.4 339.2L827.4 339.1L827.5 338.9L827.5 338.7L827.5 338.4L827.5 338.2L827.6 337.8L827.6 337.5L827.6 337.1L827.6 336.8L827.6 336.4L827.7 336L827.7 335.6L827.7 335.3L827.7 335L827.7 334.8L827.8 334.5L827.8 334.3L827.8 334.1L827.8 333.9L827.8 333.7L827.9 333.4L827.9 333.2L827.9 333L827.9 332.8L827.9 332.6L828 332.4L828 332.2L828 332L828 331.8L828.1 331.6L828.1 331.4L828.1 331.2L828.1 330.9L828.1 330.7L828.2 330.5L828.2 330.2L828.2 330L828.2 329.7L828.2 329.5L828.3 329.2L828.3 328.9L828.3 328.7L828.3 328.5L828.3 328.3L828.4 328.1L828.4 327.9L828.4 327.8L828.4 327.6L828.4 327.5L828.5 327.3L828.5 327.1L828.5 327L828.5 326.8L828.6 326.7L828.6 326.5L828.6 326.3L828.6 326.2L828.6 326L828.7 325.9L828.7 325.7L828.7 325.5L828.7 325.4L828.7 325.2L828.8 325.1L828.8 325L828.8 324.9L828.8 324.7L828.8 324.6L828.9 324.5L828.9 324.3L828.9 324.2L828.9 324L828.9 323.9L829 323.7L829 323.5L829 323.3L829 323.2L829.1 323L829.1 322.8L829.1 322.6L829.1 322.4L829.1 322.2L829.2 322.1L829.2 321.9L829.2 321.8L829.2 321.7L829.2 321.5L829.3 321.4L829.3 321.3L829.3 321.1L829.3 321L829.3 320.9L829.4 320.7L829.4 320.5L829.4 320.3L829.4 320.1L829.5 319.9L829.5 319.7L829.5 319.5L829.5 319.3L829.5 319L829.6 318.8L829.6 318.6L829.6 318.3L829.6 318L829.6 317.8L829.7 317.5L829.7 317.3L829.7 317L829.7 316.8L829.7 316.5L829.8 316.3L829.8 316L829.8 315.8L829.8 315.6L829.8 315.3L829.9 315.1L829.9 314.9L829.9 314.6L829.9 314.4L830 314.2L830 314L830 313.8L830 313.5L830 313.2L830.1 313L830.1 312.8L830.1 312.6L830.1 312.5L830.1 312.4L830.2 312.2L830.2 312.1L830.2 312L830.2 311.8L830.2 311.6L830.3 311.4L830.3 311.3L830.3 311.1L830.3 310.9L830.3 310.8L830.4 310.6L830.4 310.4L830.4 310.2L830.4 310L830.5 309.9L830.5 309.7L830.5 309.5L830.5 309.4L830.5 309.2L830.6 309L830.6 308.8L830.6 308.7L830.6 308.5L830.6 308.3L830.7 308.2L830.7 308L830.7 307.8L830.7 307.6L830.7 307.4L830.8 307.2L830.8 307L830.8 306.8L830.8 306.6L830.8 306.4L830.9 306.2L830.9 306L830.9 305.8L830.9 305.7L831 305.5L831 305.3L831 305.1L831 304.9L831 304.8L831.1 304.6L831.1 304.5L831.1 304.4"
                ></path>
            </g>
        </g>
        <text
            x="46.1"
            y="400.96875"
            fill="#5b5b5b"
            font-size="14.625"
            style="font-weight: 700"
        >
            World
            <title>World</title>
        </text>
        <g id="World">
            <g id="horizontal-axis" class="HorizontalAxis">
                <g id="tick-marks">
                    <line
                        id="10,000-BCE"
                        x1="46.1"
                        y1="514.78125"
                        x2="46.1"
                        y2="520.28125"
                        stroke="#999"
                        stroke-width="1"
                    ></line>
                    <line
                        id="2023"
                        x1="297.1"
                        y1="514.78125"
                        x2="297.1"
                        y2="520.28125"
                        stroke="#999"
                        stroke-width="1"
                    ></line>
                    <line
                        id="4,000-BCE"
                        x1="171.4"
                        y1="514.78125"
                        x2="171.4"
                        y2="520.28125"
                        stroke="#999"
                        stroke-width="1"
                    ></line>
                    <line
                        id="0"
                        x1="254.9"
                        y1="514.78125"
                        x2="254.9"
                        y2="520.28125"
                        stroke="#999"
                        stroke-width="1"
                    ></line>
                </g>
                <g id="tick-labels">
                    <text
                        x="46.1"
                        y="530.28125"
                        fill="#5b5b5b"
                        text-anchor="start"
                        font-size="10"
                    >
                        10,000 BCE
                    </text>
                    <text
                        x="297.1"
                        y="530.28125"
                        fill="#5b5b5b"
                        text-anchor="end"
                        font-size="10"
                    >
                        2023
                    </text>
                    <text
                        x="171.4"
                        y="530.28125"
                        fill="#5b5b5b"
                        text-anchor="middle"
                        font-size="10"
                    >
                        4,000 BCE
                    </text>
                    <text
                        x="254.9"
                        y="530.28125"
                        fill="#5b5b5b"
                        text-anchor="middle"
                        font-size="10"
                    >
                        0
                    </text>
                </g>
            </g>
            <g id="vertical-axis" class="VerticalAxis">
                <g id="tick-labels">
                    <text
                        x="41.10"
                        y="507.5"
                        dy=".32em"
                        text-anchor="end"
                        fill="#5b5b5b"
                        font-size="10"
                    >
                        1M
                    </text>
                    <text
                        x="41.10"
                        y="482.1"
                        dy=".32em"
                        text-anchor="end"
                        fill="#5b5b5b"
                        font-size="10"
                    >
                        10M
                    </text>
                    <text
                        x="41.10"
                        y="456.7"
                        dy=".32em"
                        text-anchor="end"
                        fill="#5b5b5b"
                        font-size="10"
                    >
                        100M
                    </text>
                    <text
                        x="41.10"
                        y="431.3"
                        dy=".32em"
                        text-anchor="end"
                        fill="#5b5b5b"
                        font-size="10"
                    >
                        1B
                    </text>
                </g>
            </g>
            <g id="horizontal-grid-lines" class="AxisGridLines horizontalLines">
                <line
                    id="1M"
                    x1="46.10"
                    y1="507.5"
                    x2="297.10"
                    y2="507.5"
                    stroke="#ddd"
                    stroke-dasharray="4,4"
                ></line>
                <line
                    id="10M"
                    x1="46.10"
                    y1="482.1"
                    x2="297.10"
                    y2="482.1"
                    stroke="#ddd"
                    stroke-dasharray="4,4"
                ></line>
                <line
                    id="100M"
                    x1="46.10"
                    y1="456.7"
                    x2="297.10"
                    y2="456.7"
                    stroke="#ddd"
                    stroke-dasharray="4,4"
                ></line>
                <line
                    id="1B"
                    x1="46.10"
                    y1="431.3"
                    x2="297.10"
                    y2="431.3"
                    stroke="#ddd"
                    stroke-dasharray="4,4"
                ></line>
            </g>
            <g id="lines">
                <path
                    fill="none"
                    stroke-linecap="butt"
                    stroke-linejoin="round"
                    stroke="#ffffff"
                    id="outline__Population-(historical)"
                    stroke-width="2.5"
                    d="M46.1 490.9L67 488.3L87.9 485.6L108.7 482.5L129.6 479L150.5 474.9L171.4 470.4L192.2 465.6L213.1 460.2L234 455.6L254.9 447.4L257 447.2L259 447L261.1 447.7L263.2 447L265.3 446.5L267.4 445.7L269.5 445.4L271.6 445.1L273.7 444.2L275.7 443.8L277.8 441.5L279.9 440.3L282 440L284.1 440.3L286.2 438.9L288.3 438.6L290.4 437.1L290.6 436.6L290.8 436.1L291 435.7L291.2 435.2L291.4 434.5L291.6 434L291.8 433.4L292 432.5L292.2 432L292.4 431.8L292.7 431L292.9 430.6L293.1 429.8L293.3 429.2L293.5 428.6L293.7 428.1L293.9 428.1L294.1 427.4L294.3 426.5L294.5 425.7L294.7 424.9L294.9 424.1L295.2 423.1L295.4 422L295.6 421.3L295.6 421.1L295.6 420.9L295.6 420.7L295.7 420.4L295.7 420.2L295.7 420L295.7 419.8L295.7 419.6L295.8 419.3L295.8 419.2L295.8 419L295.8 418.8L295.8 418.5L295.9 418.3L295.9 418.1L295.9 417.8L295.9 417.6L296 417.4L296 417.2L296 416.9L296 416.7L296 416.5L296.1 416.3L296.1 416.1L296.1 415.9L296.1 415.7L296.1 415.5L296.2 415.3L296.2 415.1L296.2 414.9L296.2 414.7L296.2 414.5L296.3 414.3L296.3 414.1L296.3 413.9L296.3 413.7L296.3 413.5L296.4 413.3L296.4 413.1L296.4 412.9L296.4 412.7L296.5 412.5L296.5 412.4L296.5 412.2L296.5 412L296.5 411.9L296.6 411.7L296.6 411.6L296.6 411.4L296.6 411.3L296.6 411.1L296.7 411L296.7 410.8L296.7 410.7L296.7 410.5L296.7 410.4L296.8 410.3L296.8 410.1L296.8 410L296.8 409.8L296.8 409.7L296.9 409.6L296.9 409.4L296.9 409.3L296.9 409.2L297 409L297 408.9L297 408.8L297 408.7L297 408.6L297.1 408.5L297.1 408.4L297.1 408.3"
                ></path>
                <path
                    fill="none"
                    stroke-linecap="butt"
                    stroke-linejoin="round"
                    stroke="#4c6a9c"
                    id="line__Population-(historical)"
                    stroke-width="1.5"
                    stroke-opacity="1"
                    d="M46.1 490.9L67 488.3L87.9 485.6L108.7 482.5L129.6 479L150.5 474.9L171.4 470.4L192.2 465.6L213.1 460.2L234 455.6L254.9 447.4L257 447.2L259 447L261.1 447.7L263.2 447L265.3 446.5L267.4 445.7L269.5 445.4L271.6 445.1L273.7 444.2L275.7 443.8L277.8 441.5L279.9 440.3L282 440L284.1 440.3L286.2 438.9L288.3 438.6L290.4 437.1L290.6 436.6L290.8 436.1L291 435.7L291.2 435.2L291.4 434.5L291.6 434L291.8 433.4L292 432.5L292.2 432L292.4 431.8L292.7 431L292.9 430.6L293.1 429.8L293.3 429.2L293.5 428.6L293.7 428.1L293.9 428.1L294.1 427.4L294.3 426.5L294.5 425.7L294.7 424.9L294.9 424.1L295.2 423.1L295.4 422L295.6 421.3L295.6 421.1L295.6 420.9L295.6 420.7L295.7 420.4L295.7 420.2L295.7 420L295.7 419.8L295.7 419.6L295.8 419.3L295.8 419.2L295.8 419L295.8 418.8L295.8 418.5L295.9 418.3L295.9 418.1L295.9 417.8L295.9 417.6L296 417.4L296 417.2L296 416.9L296 416.7L296 416.5L296.1 416.3L296.1 416.1L296.1 415.9L296.1 415.7L296.1 415.5L296.2 415.3L296.2 415.1L296.2 414.9L296.2 414.7L296.2 414.5L296.3 414.3L296.3 414.1L296.3 413.9L296.3 413.7L296.3 413.5L296.4 413.3L296.4 413.1L296.4 412.9L296.4 412.7L296.5 412.5L296.5 412.4L296.5 412.2L296.5 412L296.5 411.9L296.6 411.7L296.6 411.6L296.6 411.4L296.6 411.3L296.6 411.1L296.7 411L296.7 410.8L296.7 410.7L296.7 410.5L296.7 410.4L296.8 410.3L296.8 410.1L296.8 410L296.8 409.8L296.8 409.7L296.9 409.6L296.9 409.4L296.9 409.3L296.9 409.2L297 409L297 408.9L297 408.8L297 408.7L297 408.6L297.1 408.5L297.1 408.4L297.1 408.3"
                ></path>
            </g>
        </g>
    </g>
    <g id="footer" class="SourcesFooter" style="fill: #858585">
        <g id="sources" class="markdown-text-wrap">
            <text x="16.0" y="560.9" style="font-size: 13px; line-height: 1.2">
                <tspan x="16" y="560.9">
                    <tspan style="font-weight: 700">Data source:</tspan>
                    HYDE (2023); Gapminder (2022); UN WPP (2024)
                </tspan>
            </text>
        </g>
        <g id="note" class="markdown-text-wrap">
            <text x="16.0" y="581.0" style="font-size: 13px; line-height: 1.2">
                <tspan x="16" y="581.0">
                    <tspan style="font-weight: 700">Note:</tspan>
                    Historical country data is shown based on today&#x27;s
                    geographical borders.
                </tspan>
            </text>
        </g>
        <text id="origin-url" font-size="13.00" x="560.3" y="560.9">
            <tspan x="560.3499999999999" y="560.91">
                <a
                    style="fill: #858585"
                    href="https://ourworldindata.org/population-growth/"
                >
                    OurWorldinData.org/population-growth
                </a>
                |
                <a
                    style="fill: #858585"
                    href="https://creativecommons.org/licenses/by/4.0/"
                >
                    CC BY
                </a>
            </tspan>
        </text>
    </g>
</svg>
