<svg xmlns="http://www.w3.org/2000/svg" version="1.1" style="font-family:Lato, &#x27;Helvetica Neue&#x27;, Helvetica, Arial, &#x27;Liberation Sans&#x27;, sans-serif;font-size:18px;background-color:#ffffff;text-rendering:geometricPrecision;-webkit-font-smoothing:antialiased" width="850" height="600" viewBox="0 0 850 600"><defs><style>@import url(https://ourworldindata.org/fonts.css)</style></defs><defs><pattern id="noDataPattern" patternUnits="userSpaceOnUse" width="4" height="4" patternTransform="rotate(-45 2 2)"><path d="M -1,2 l 6,0" stroke="#ccc" stroke-width="0.7"></path></pattern></defs><g id="header" class="HeaderView"><g id="logo" transform="translate(769, 16) scale(1)"><svg className="owidLogo" xmlns="http://www.w3.org/2000/svg" width="65" height="36" viewBox="0 0 65 36"  fill="none"><path fill="#002147" d="M0 0h64.8v36H0z"/><path fill="#CE261E" d="M0 33.3h64.8V36H0z"/><path fill="#fff" d="M13.796 10.575c0 .636-.106 1.226-.318 1.77a4.193 4.193 0 0 1-.894 1.404 4.084 4.084 0 0 1-1.386.93c-.54.22-1.138.33-1.794.33-.656 0-1.256-.11-1.8-.33a4.149 4.149 0 0 1-1.392-.93 4.193 4.193 0 0 1-.894-1.404A4.833 4.833 0 0 1 5 10.575c0-.636.106-1.224.318-1.764a4.18 4.18 0 0 1 .894-1.41 4.076 4.076 0 0 1 1.392-.924 4.684 4.684 0 0 1 1.8-.336c.656 0 1.254.112 1.794.336.54.224 1.002.534 1.386.93.384.392.682.86.894 1.404.212.54.318 1.128.318 1.764Zm-1.656 0c0-.476-.064-.902-.192-1.278a2.671 2.671 0 0 0-.54-.966 2.332 2.332 0 0 0-.864-.606 2.94 2.94 0 0 0-1.14-.21c-.424 0-.806.07-1.146.21-.34.14-.63.342-.87.606a2.742 2.742 0 0 0-.546.966 3.955 3.955 0 0 0-.192 1.278c0 .476.064.904.192 1.284.128.376.31.696.546.96.24.26.53.46.87.6.34.14.722.21 1.146.21.424 0 .804-.07 1.14-.21.34-.14.628-.34.864-.6.236-.264.416-.584.54-.96a4.01 4.01 0 0 0 .192-1.284ZM16.104 8.757v3.912c0 .376.086.668.258.876.176.204.438.306.786.306.256 0 .496-.056.72-.168a2.58 2.58 0 0 0 .636-.474V8.757h1.482v6.156h-.906c-.192 0-.318-.09-.378-.27l-.102-.492a4.65 4.65 0 0 1-.396.354 2.577 2.577 0 0 1-.438.27 2.35 2.35 0 0 1-.498.168 2.345 2.345 0 0 1-.57.066c-.336 0-.634-.056-.894-.168a1.821 1.821 0 0 1-.648-.486 2.157 2.157 0 0 1-.402-.738 3.233 3.233 0 0 1-.132-.948V8.757h1.482ZM21.328 14.913V8.757h.87c.152 0 .258.028.318.084.06.056.1.152.12.288l.09.744c.22-.38.478-.68.774-.9.296-.22.628-.33.996-.33.304 0 .556.07.756.21l-.192 1.11c-.012.072-.038.124-.078.156a.278.278 0 0 1-.162.042 1.01 1.01 0 0 1-.246-.042 1.646 1.646 0 0 0-.414-.042c-.308 0-.572.086-.792.258-.22.168-.406.416-.558.744v3.834h-1.482ZM27.347 6.237h1.356a.57.57 0 0 1 .348.102c.096.064.16.152.192.264l1.476 5.19c.036.128.068.268.096.42.032.148.062.306.09.474a5.968 5.968 0 0 1 .228-.894l1.704-5.19a.575.575 0 0 1 .186-.252.543.543 0 0 1 .348-.114h.474a.57.57 0 0 1 .348.102.497.497 0 0 1 .192.264l1.692 5.19c.088.256.164.54.228.852.028-.156.056-.306.084-.45.032-.144.064-.278.096-.402l1.476-5.19c.028-.1.09-.186.186-.258a.563.563 0 0 1 .348-.108h1.266l-2.694 8.676h-1.458l-1.896-5.928-.078-.246a9.504 9.504 0 0 1-.072-.282c-.024.1-.05.194-.078.282-.024.088-.048.17-.072.246l-1.914 5.928H30.04l-2.694-8.676ZM42.771 8.661c.46 0 .876.074 1.248.222.376.148.696.358.96.63s.468.604.612.996c.144.392.216.83.216 1.314 0 .488-.072.928-.216 1.32a2.85 2.85 0 0 1-.612 1.002 2.653 2.653 0 0 1-.96.636 3.35 3.35 0 0 1-1.248.222c-.46 0-.878-.074-1.254-.222a2.712 2.712 0 0 1-.966-.636 2.922 2.922 0 0 1-.618-1.002 3.807 3.807 0 0 1-.216-1.32c0-.484.072-.922.216-1.314.148-.392.354-.724.618-.996.268-.272.59-.482.966-.63a3.397 3.397 0 0 1 1.254-.222Zm0 5.202c.512 0 .89-.172 1.134-.516.248-.344.372-.848.372-1.512s-.124-1.17-.372-1.518c-.244-.348-.622-.522-1.134-.522-.52 0-.904.176-1.152.528-.248.348-.372.852-.372 1.512s.124 1.164.372 1.512c.248.344.632.516 1.152.516ZM46.723 14.913V8.757h.87c.152 0 .258.028.318.084.06.056.1.152.12.288l.09.744c.22-.38.478-.68.774-.9.296-.22.628-.33.996-.33.304 0 .556.07.756.21l-.192 1.11c-.012.072-.038.124-.078.156a.278.278 0 0 1-.162.042 1.01 1.01 0 0 1-.246-.042 1.646 1.646 0 0 0-.414-.042c-.308 0-.572.086-.792.258-.22.168-.406.416-.558.744v3.834h-1.482ZM52.96 5.997v8.916h-1.482V5.997h1.482ZM58.732 14.913c-.192 0-.318-.09-.378-.27l-.12-.594a3.68 3.68 0 0 1-.402.39c-.14.116-.292.216-.456.3-.16.084-.334.148-.522.192a2.372 2.372 0 0 1-.6.072c-.336 0-.644-.07-.924-.21a2.098 2.098 0 0 1-.726-.606 3.033 3.033 0 0 1-.468-.99 5.072 5.072 0 0 1-.162-1.344c0-.456.062-.88.186-1.272s.302-.732.534-1.02c.232-.288.51-.512.834-.672a2.384 2.384 0 0 1 1.092-.246 2.103 2.103 0 0 1 1.536.606V5.997h1.482v8.916h-.906Zm-1.974-1.086c.308 0 .57-.064.786-.192.216-.128.42-.31.612-.546v-2.76a1.452 1.452 0 0 0-.552-.432 1.597 1.597 0 0 0-.636-.126c-.224 0-.428.042-.612.126a1.21 1.21 0 0 0-.462.384c-.124.168-.22.384-.288.648-.068.26-.102.568-.102.924 0 .36.028.666.084.918.06.248.144.452.252.612.108.156.24.27.396.342.156.068.33.102.522.102ZM16.331 20.757v6.156H14.85v-6.156h1.481Zm.223-1.794a.844.844 0 0 1-.078.36.963.963 0 0 1-.21.294.995.995 0 0 1-.3.204.963.963 0 0 1-.372.072.948.948 0 0 1-.367-.072 1.018 1.018 0 0 1-.498-.498.963.963 0 0 1 0-.732.995.995 0 0 1 .205-.3.929.929 0 0 1 .293-.198.899.899 0 0 1 .738 0 .912.912 0 0 1 .3.198.943.943 0 0 1 .288.672ZM17.771 26.913v-6.156h.906c.192 0 .318.09.378.27l.102.486a2.934 2.934 0 0 1 .828-.618c.156-.076.322-.134.498-.174.176-.04.368-.06.576-.06.336 0 .634.058.894.174.26.112.476.272.648.48.176.204.308.45.396.738.092.284.138.598.138.942v3.918h-1.482v-3.918c0-.376-.088-.666-.264-.87-.172-.208-.432-.312-.78-.312-.256 0-.496.058-.72.174a2.58 2.58 0 0 0-.636.474v4.452h-1.482ZM34.22 22.575c0 .636-.106 1.22-.318 1.752-.212.532-.51.99-.894 1.374a4 4 0 0 1-1.386.894 4.87 4.87 0 0 1-1.794.318h-3.312v-8.676h3.312a4.79 4.79 0 0 1 1.794.324 4 4 0 0 1 1.386.894c.384.38.682.836.894 1.368.212.532.318 1.116.318 1.752Zm-1.65 0c0-.476-.064-.902-.192-1.278a2.68 2.68 0 0 0-.546-.96 2.332 2.332 0 0 0-.864-.606 2.94 2.94 0 0 0-1.14-.21h-1.686v6.108h1.686c.424 0 .804-.07 1.14-.21.34-.14.628-.34.864-.6a2.75 2.75 0 0 0 .546-.96 4.01 4.01 0 0 0 .192-1.284ZM39.98 26.913h-.665c-.14 0-.25-.02-.33-.06-.08-.044-.14-.13-.18-.258l-.132-.438c-.156.14-.31.264-.462.372a2.804 2.804 0 0 1-.462.264c-.16.072-.33.126-.51.162-.18.036-.38.054-.6.054-.26 0-.5-.034-.72-.102a1.618 1.618 0 0 1-.57-.318 1.448 1.448 0 0 1-.366-.522 1.852 1.852 0 0 1-.132-.726c0-.232.06-.46.18-.684.124-.228.328-.432.612-.612.284-.184.662-.336 1.134-.456.472-.12 1.058-.188 1.758-.204v-.36c0-.412-.088-.716-.264-.912-.172-.2-.424-.3-.756-.3a1.837 1.837 0 0 0-1.02.276c-.116.068-.224.13-.324.186a.664.664 0 0 1-.33.084.429.429 0 0 1-.258-.078.614.614 0 0 1-.174-.192l-.27-.474c.708-.648 1.562-.972 2.562-.972.36 0 .68.06.96.18.284.116.524.28.72.492.196.208.344.458.444.75.104.292.156.612.156.96v3.888Zm-2.88-.924c.153 0 .293-.014.42-.042.129-.028.249-.07.36-.126.117-.056.227-.124.33-.204.109-.084.217-.182.325-.294v-1.038c-.432.02-.794.058-1.086.114-.288.052-.52.12-.696.204a.923.923 0 0 0-.378.294.664.664 0 0 0-.108.366c0 .26.076.446.228.558.156.112.358.168.606.168ZM43.22 27.01c-.532 0-.942-.15-1.23-.45-.288-.305-.432-.723-.432-1.255v-3.438h-.624a.31.31 0 0 1-.21-.078c-.056-.052-.084-.13-.084-.234v-.588l.99-.162.312-1.68a.302.302 0 0 1 .108-.186.365.365 0 0 1 .222-.066h.768v1.938h1.62v1.056h-1.62v3.336c0 .192.048.342.144.45a.488.488 0 0 0 .384.162c.092 0 .168-.01.228-.03.064-.024.118-.048.162-.072.048-.024.09-.046.126-.066a.194.194 0 0 1 .108-.036.16.16 0 0 1 .108.036c.028.02.058.052.09.096l.444.72c-.216.18-.464.316-.744.408a2.77 2.77 0 0 1-.87.138ZM50.423 26.913h-.666c-.14 0-.25-.02-.33-.06-.08-.044-.14-.13-.18-.258l-.132-.438c-.156.14-.31.264-.462.372a2.804 2.804 0 0 1-.462.264c-.16.072-.33.126-.51.162-.18.036-.38.054-.6.054-.26 0-.5-.034-.72-.102a1.618 1.618 0 0 1-.57-.318 1.448 1.448 0 0 1-.366-.522 1.852 1.852 0 0 1-.132-.726c0-.232.06-.46.18-.684.124-.228.328-.432.612-.612.284-.184.662-.336 1.134-.456.472-.12 1.058-.188 1.758-.204v-.36c0-.412-.088-.716-.264-.912-.172-.2-.424-.3-.756-.3a1.837 1.837 0 0 0-1.02.276c-.116.068-.224.13-.324.186a.664.664 0 0 1-.33.084.429.429 0 0 1-.258-.078.614.614 0 0 1-.174-.192l-.27-.474c.708-.648 1.562-.972 2.562-.972.36 0 .68.06.96.18.284.116.524.28.72.492.196.208.344.458.444.75.104.292.156.612.156.96v3.888Zm-2.88-.924c.152 0 .292-.014.42-.042.128-.028.248-.07.36-.126.116-.056.226-.124.33-.204.108-.084.216-.182.324-.294v-1.038c-.432.02-.794.058-1.086.114-.288.052-.52.12-.696.204a.923.923 0 0 0-.378.294.664.664 0 0 0-.108.366c0 .26.076.446.228.558.156.112.358.168.606.168Z"/></svg></g><a id="title" href="https://ourworldindata.org/grapher/annual-share-of-co2-emissions?stackMode=relative&amp;facet=entity&amp;uniformYAxis=0" style="font-family:&#x27;Playfair Display&#x27;, Georgia, &#x27;Times New Roman&#x27;, &#x27;Liberation Serif&#x27;, serif" target="_blank" rel="noopener"><text font-size="25.00" font-weight="600" x="16.0" y="40.3" fill="#2d2e2d"><tspan x="16" y="40.25">Share of global CO₂ emissions</tspan></text></a><g id="subtitle" class="markdown-text-wrap"><text x="16.0" y="66.5" style="font-size:15px;line-height:1.2" fill="#5b5b5b"><tspan x="16" y="66.5">Carbon dioxide (CO₂) emissions from <tspan class="dod-span" data-id="fossilemissions">fossil fuels and industry</tspan>. Land-use change is not included.</tspan></text></g></g><g id="chart-area" style="pointer-events:none"><text x="66.5" y="96.96875" fill="#5b5b5b" font-size="14.625" style="font-weight:700">China<title>China</title></text><g id="China"><g id="horizontal-axis" class="HorizontalAxis"><g id="tick-marks"><line id="1750" x1="66.5" y1="210.78125" x2="66.5" y2="216.28125" stroke="#999" stroke-width="1"></line><line id="2023" x1="277" y1="210.78125" x2="277" y2="216.28125" stroke="#999" stroke-width="1"></line><line id="1850" x1="143.6" y1="210.78125" x2="143.6" y2="216.28125" stroke="#999" stroke-width="1"></line><line id="1900" x1="182.2" y1="210.78125" x2="182.2" y2="216.28125" stroke="#999" stroke-width="1"></line><line id="1950" x1="220.7" y1="210.78125" x2="220.7" y2="216.28125" stroke="#999" stroke-width="1"></line></g><g id="tick-labels"><text x="66.5" y="226.28125" fill="#5b5b5b" text-anchor="start" font-size="10">1750</text><text x="277" y="226.28125" fill="#5b5b5b" text-anchor="end" font-size="10">2023</text><text x="143.6" y="226.28125" fill="#5b5b5b" text-anchor="middle" font-size="10">1850</text><text x="182.2" y="226.28125" fill="#5b5b5b" text-anchor="middle" font-size="10">1900</text><text x="220.7" y="226.28125" fill="#5b5b5b" text-anchor="middle" font-size="10">1950</text></g></g><g id="vertical-axis" class="VerticalAxis"><g id="tick-labels"><text x="61.50" y="210.8" dy=".32em" text-anchor="end" fill="#5b5b5b" font-size="10">+0%</text><text x="61.50" y="188.4" dy=".32em" text-anchor="end" fill="#5b5b5b" font-size="10">+1,000%</text><text x="61.50" y="166" dy=".32em" text-anchor="end" fill="#5b5b5b" font-size="10">+2,000%</text><text x="61.50" y="143.6" dy=".32em" text-anchor="end" fill="#5b5b5b" font-size="10">+3,000%</text><text x="61.50" y="121.3" dy=".32em" text-anchor="end" fill="#5b5b5b" font-size="10">+4,000%</text></g></g><g id="horizontal-grid-lines" class="AxisGridLines horizontalLines"><line id="+0%" x1="66.50" y1="210.8" x2="277.00" y2="210.8" stroke="#999"></line><line id="+1,000%" x1="66.50" y1="188.4" x2="277.00" y2="188.4" stroke="#ddd" stroke-dasharray="4,4"></line><line id="+2,000%" x1="66.50" y1="166" x2="277.00" y2="166" stroke="#ddd" stroke-dasharray="4,4"></line><line id="+3,000%" x1="66.50" y1="143.6" x2="277.00" y2="143.6" stroke="#ddd" stroke-dasharray="4,4"></line><line id="+4,000%" x1="66.50" y1="121.3" x2="277.00" y2="121.3" stroke="#ddd" stroke-dasharray="4,4"></line></g><g id="lines"><path fill="none" stroke-linecap="butt" stroke-linejoin="round" stroke="#ffffff" id="outline__Share-of-global-annual-CO₂-emissions" stroke-width="2.5" d="M187.6 210.8L188.3 210.3L189.1 210.3L189.9 210.3L190.6 210.4L191.4 211.3L192.2 210.7L193 210.3L193.7 210.4L194.5 210.1L195.3 210L196 209.8L196.8 208.9L197.6 209.3L198.4 208.9L199.1 209L199.9 208.9L200.7 208.7L201.4 209L202.2 209.1L203 209.3L203.7 209.1L204.5 209.3L205.3 208.9L206.1 208.2L206.8 207.9L207.6 207.7L208.4 207.4L209.1 206.8L209.9 207.1L210.7 207.8L211.5 208.3L212.2 207.6L213 206.9L213.8 205.6L214.5 204.6L215.3 206L216.1 206.5L216.9 208.7L217.6 210.4L218.4 210.4L219.2 210.7L219.9 209.1L220.7 208.7L221.5 207.8L222.3 206.5L223 206.4L223.8 205.3L224.6 204.6L225.3 204.1L226.1 202.8L226.9 192.7L227.7 186.5L228.4 185.2L229.2 193.2L230 197.6L230.7 198.5L231.5 199.1L232.3 198.6L233 197.9L233.8 200.7L234.6 200.5L235.4 198.6L236.1 195.3L236.9 193.9L237.7 193.5L238.4 193.7L239.2 193.3L240 190.4L240.8 190.8L241.5 189.4L242.3 187.5L243.1 187.6L243.8 188L244.6 187.7L245.4 185.2L246.2 183.9L246.9 182.4L247.7 180.9L248.5 179.7L249.2 178.3L250 177.2L250.8 177.1L251.6 177.3L252.3 176.3L253.1 173.5L253.9 171.1L254.6 169L255.4 166.4L256.2 165.8L257 166L257.7 167.8L258.5 166.3L259.3 166.3L260 165.7L260.8 162.1L261.6 155.9L262.3 153.6L263.1 148.2L263.9 143.8L264.7 140.8L265.4 136.7L266.2 131.4L267 128.7L267.7 122.9L268.5 121.9L269.3 121L270.1 121.1L270.8 122.1L271.6 123.1L272.4 122.3L273.1 121.2L273.9 118.8L274.7 111.7L275.5 112.1L276.2 113.7L277 110.3"></path><path fill="none" stroke-linecap="butt" stroke-linejoin="round" stroke="#4c6a9c" id="line__Share-of-global-annual-CO₂-emissions" stroke-width="1.5" stroke-opacity="1" d="M187.6 210.8L188.3 210.3L189.1 210.3L189.9 210.3L190.6 210.4L191.4 211.3L192.2 210.7L193 210.3L193.7 210.4L194.5 210.1L195.3 210L196 209.8L196.8 208.9L197.6 209.3L198.4 208.9L199.1 209L199.9 208.9L200.7 208.7L201.4 209L202.2 209.1L203 209.3L203.7 209.1L204.5 209.3L205.3 208.9L206.1 208.2L206.8 207.9L207.6 207.7L208.4 207.4L209.1 206.8L209.9 207.1L210.7 207.8L211.5 208.3L212.2 207.6L213 206.9L213.8 205.6L214.5 204.6L215.3 206L216.1 206.5L216.9 208.7L217.6 210.4L218.4 210.4L219.2 210.7L219.9 209.1L220.7 208.7L221.5 207.8L222.3 206.5L223 206.4L223.8 205.3L224.6 204.6L225.3 204.1L226.1 202.8L226.9 192.7L227.7 186.5L228.4 185.2L229.2 193.2L230 197.6L230.7 198.5L231.5 199.1L232.3 198.6L233 197.9L233.8 200.7L234.6 200.5L235.4 198.6L236.1 195.3L236.9 193.9L237.7 193.5L238.4 193.7L239.2 193.3L240 190.4L240.8 190.8L241.5 189.4L242.3 187.5L243.1 187.6L243.8 188L244.6 187.7L245.4 185.2L246.2 183.9L246.9 182.4L247.7 180.9L248.5 179.7L249.2 178.3L250 177.2L250.8 177.1L251.6 177.3L252.3 176.3L253.1 173.5L253.9 171.1L254.6 169L255.4 166.4L256.2 165.8L257 166L257.7 167.8L258.5 166.3L259.3 166.3L260 165.7L260.8 162.1L261.6 155.9L262.3 153.6L263.1 148.2L263.9 143.8L264.7 140.8L265.4 136.7L266.2 131.4L267 128.7L267.7 122.9L268.5 121.9L269.3 121L270.1 121.1L270.8 122.1L271.6 123.1L272.4 122.3L273.1 121.2L273.9 118.8L274.7 111.7L275.5 112.1L276.2 113.7L277 110.3"></path></g></g><text x="343.5" y="96.96875" fill="#5b5b5b" font-size="14.625" style="font-weight:700">India<title>India</title></text><g id="India"><g id="horizontal-axis" class="HorizontalAxis"><g id="tick-marks"><line id="1750" x1="343.5" y1="210.78125" x2="343.5" y2="216.28125" stroke="#999" stroke-width="1"></line><line id="2023" x1="554" y1="210.78125" x2="554" y2="216.28125" stroke="#999" stroke-width="1"></line><line id="1850" x1="420.6" y1="210.78125" x2="420.6" y2="216.28125" stroke="#999" stroke-width="1"></line><line id="1900" x1="459.2" y1="210.78125" x2="459.2" y2="216.28125" stroke="#999" stroke-width="1"></line><line id="1950" x1="497.7" y1="210.78125" x2="497.7" y2="216.28125" stroke="#999" stroke-width="1"></line></g><g id="tick-labels"><text x="343.5" y="226.28125" fill="#5b5b5b" text-anchor="start" font-size="10">1750</text><text x="554" y="226.28125" fill="#5b5b5b" text-anchor="end" font-size="10">2023</text><text x="420.6" y="226.28125" fill="#5b5b5b" text-anchor="middle" font-size="10">1850</text><text x="459.2" y="226.28125" fill="#5b5b5b" text-anchor="middle" font-size="10">1900</text><text x="497.7" y="226.28125" fill="#5b5b5b" text-anchor="middle" font-size="10">1950</text></g></g><g id="vertical-axis" class="VerticalAxis"><g id="tick-labels"><text x="338.50" y="211.2" dy=".32em" text-anchor="end" fill="#5b5b5b" font-size="10">+0%</text><text x="338.50" y="176.2" dy=".32em" text-anchor="end" fill="#5b5b5b" font-size="10">+2,000%</text><text x="338.50" y="141.2" dy=".32em" text-anchor="end" fill="#5b5b5b" font-size="10">+4,000%</text></g></g><g id="horizontal-grid-lines" class="AxisGridLines horizontalLines"><line id="+0%" x1="343.50" y1="211.2" x2="554.00" y2="211.2" stroke="#999"></line><line id="+2,000%" x1="343.50" y1="176.2" x2="554.00" y2="176.2" stroke="#ddd" stroke-dasharray="4,4"></line><line id="+4,000%" x1="343.50" y1="141.2" x2="554.00" y2="141.2" stroke="#ddd" stroke-dasharray="4,4"></line></g><g id="lines"><path fill="none" stroke-linecap="butt" stroke-linejoin="round" stroke="#ffffff" id="outline__Share-of-global-annual-CO₂-emissions" stroke-width="2.5" d="M426.8 211.2L427.5 210.3L428.3 210.5L429.1 211.1L429.9 211L430.6 210.9L431.4 211.1L432.2 211.3L432.9 211.1L442.2 209.8L443 210.1L443.7 210.1L444.5 210.3L445.3 210L446.1 209.8L446.8 209.5L447.6 209.9L448.4 209.5L449.1 209.3L449.9 209.3L450.7 208.7L451.4 208.6L452.2 208.5L453 208.1L453.8 207.8L454.5 207.9L455.3 207L456.1 206.7L456.8 206.5L457.6 206.2L458.4 206.1L459.2 205.2L459.9 204.7L460.7 204.1L461.5 204.6L462.2 203.8L463 204.1L463.8 203.2L464.6 203.4L465.3 201.6L466.1 202.4L466.9 203.2L467.6 202.8L468.4 201.8L469.2 201.6L470 200.3L470.7 199.6L471.5 200.4L472.3 200.4L473 198.7L473.8 195L474.6 200.4L475.4 197.6L476.1 198.6L476.9 199.9L477.7 199L478.4 199.4L479.2 199.2L480 199.7L480.7 200.2L481.5 200.6L482.3 199.4L483.1 199L483.8 198.6L484.6 199.6L485.4 199.2L486.1 199.3L486.9 200.7L487.7 200.2L488.5 197.8L489.2 199L490 199.4L490.8 199.4L491.5 199.3L492.3 201.3L493.1 201.2L493.9 197.3L494.6 198.6L495.4 199.9L496.2 200.6L496.9 199.3L497.7 199.9L498.5 200.2L499.3 199.7L500 199.8L500.8 199.4L501.6 199.5L502.3 199.9L503.1 198.8L503.9 198.5L504.7 198.4L505.4 197.9L506.2 196.7L507 195.7L507.7 195.4L508.5 196.6L509.3 195.7L510 195.9L510.8 196.4L511.6 195.8L512.4 196.6L513.1 197.5L513.9 197.2L514.7 197.1L515.4 197.4L516.2 196.9L517 195.5L517.8 195.7L518.5 195.2L519.3 195.5L520.1 195.1L520.8 194L521.6 192L522.4 191.1L523.2 189.4L523.9 189.6L524.7 188.1L525.5 186.7L526.2 185.8L527 184.7L527.8 182.3L528.6 180.7L529.3 179.3L530.1 176.1L530.9 175.2L531.6 173.6L532.4 172L533.2 169.9L534 168.4L534.7 167.3L535.5 164L536.3 163.9L537 163.6L537.8 163.2L538.6 164L539.3 162.8L540.1 161.8L540.9 159.5L541.7 157L542.4 154.1L543.2 148.2L544 149.2L544.7 148.1L545.5 143.2L546.3 141.3L547.1 136.2L547.8 133L548.6 128.7L549.4 127.5L550.1 123.5L550.9 123.7L551.7 125.6L552.5 121.4L553.2 116.8L554 110.3"></path><path fill="none" stroke-linecap="butt" stroke-linejoin="round" stroke="#4c6a9c" id="line__Share-of-global-annual-CO₂-emissions" stroke-width="1.5" stroke-opacity="1" d="M426.8 211.2L427.5 210.3L428.3 210.5L429.1 211.1L429.9 211L430.6 210.9L431.4 211.1L432.2 211.3L432.9 211.1L442.2 209.8L443 210.1L443.7 210.1L444.5 210.3L445.3 210L446.1 209.8L446.8 209.5L447.6 209.9L448.4 209.5L449.1 209.3L449.9 209.3L450.7 208.7L451.4 208.6L452.2 208.5L453 208.1L453.8 207.8L454.5 207.9L455.3 207L456.1 206.7L456.8 206.5L457.6 206.2L458.4 206.1L459.2 205.2L459.9 204.7L460.7 204.1L461.5 204.6L462.2 203.8L463 204.1L463.8 203.2L464.6 203.4L465.3 201.6L466.1 202.4L466.9 203.2L467.6 202.8L468.4 201.8L469.2 201.6L470 200.3L470.7 199.6L471.5 200.4L472.3 200.4L473 198.7L473.8 195L474.6 200.4L475.4 197.6L476.1 198.6L476.9 199.9L477.7 199L478.4 199.4L479.2 199.2L480 199.7L480.7 200.2L481.5 200.6L482.3 199.4L483.1 199L483.8 198.6L484.6 199.6L485.4 199.2L486.1 199.3L486.9 200.7L487.7 200.2L488.5 197.8L489.2 199L490 199.4L490.8 199.4L491.5 199.3L492.3 201.3L493.1 201.2L493.9 197.3L494.6 198.6L495.4 199.9L496.2 200.6L496.9 199.3L497.7 199.9L498.5 200.2L499.3 199.7L500 199.8L500.8 199.4L501.6 199.5L502.3 199.9L503.1 198.8L503.9 198.5L504.7 198.4L505.4 197.9L506.2 196.7L507 195.7L507.7 195.4L508.5 196.6L509.3 195.7L510 195.9L510.8 196.4L511.6 195.8L512.4 196.6L513.1 197.5L513.9 197.2L514.7 197.1L515.4 197.4L516.2 196.9L517 195.5L517.8 195.7L518.5 195.2L519.3 195.5L520.1 195.1L520.8 194L521.6 192L522.4 191.1L523.2 189.4L523.9 189.6L524.7 188.1L525.5 186.7L526.2 185.8L527 184.7L527.8 182.3L528.6 180.7L529.3 179.3L530.1 176.1L530.9 175.2L531.6 173.6L532.4 172L533.2 169.9L534 168.4L534.7 167.3L535.5 164L536.3 163.9L537 163.6L537.8 163.2L538.6 164L539.3 162.8L540.1 161.8L540.9 159.5L541.7 157L542.4 154.1L543.2 148.2L544 149.2L544.7 148.1L545.5 143.2L546.3 141.3L547.1 136.2L547.8 133L548.6 128.7L549.4 127.5L550.1 123.5L550.9 123.7L551.7 125.6L552.5 121.4L553.2 116.8L554 110.3"></path></g></g><text x="620.5" y="96.96875" fill="#5b5b5b" font-size="14.625" style="font-weight:700">United Kingdom<title>United Kingdom</title></text><g id="United-Kingdom"><g id="horizontal-axis" class="HorizontalAxis"><g id="tick-marks"><line id="1750" x1="620.5" y1="210.78125" x2="620.5" y2="216.28125" stroke="#999" stroke-width="1"></line><line id="2023" x1="831" y1="210.78125" x2="831" y2="216.28125" stroke="#999" stroke-width="1"></line><line id="1850" x1="697.6" y1="210.78125" x2="697.6" y2="216.28125" stroke="#999" stroke-width="1"></line><line id="1900" x1="736.2" y1="210.78125" x2="736.2" y2="216.28125" stroke="#999" stroke-width="1"></line><line id="1950" x1="774.7" y1="210.78125" x2="774.7" y2="216.28125" stroke="#999" stroke-width="1"></line></g><g id="tick-labels"><text x="620.5" y="226.28125" fill="#5b5b5b" text-anchor="start" font-size="10">1750</text><text x="831" y="226.28125" fill="#5b5b5b" text-anchor="end" font-size="10">2023</text><text x="697.6" y="226.28125" fill="#5b5b5b" text-anchor="middle" font-size="10">1850</text><text x="736.2" y="226.28125" fill="#5b5b5b" text-anchor="middle" font-size="10">1900</text><text x="774.7" y="226.28125" fill="#5b5b5b" text-anchor="middle" font-size="10">1950</text></g></g><g id="vertical-axis" class="VerticalAxis"><g id="tick-labels"><text x="615.50" y="191.7" dy=".32em" text-anchor="end" fill="#5b5b5b" font-size="10">-80%</text><text x="615.50" y="171.4" dy=".32em" text-anchor="end" fill="#5b5b5b" font-size="10">-60%</text><text x="615.50" y="151" dy=".32em" text-anchor="end" fill="#5b5b5b" font-size="10">-40%</text><text x="615.50" y="130.6" dy=".32em" text-anchor="end" fill="#5b5b5b" font-size="10">-20%</text><text x="615.50" y="110.3" dy=".32em" text-anchor="end" fill="#5b5b5b" font-size="10">+0%</text></g></g><g id="horizontal-grid-lines" class="AxisGridLines horizontalLines"><line id="-80%" x1="620.50" y1="191.7" x2="831.00" y2="191.7" stroke="#ddd" stroke-dasharray="4,4"></line><line id="-60%" x1="620.50" y1="171.4" x2="831.00" y2="171.4" stroke="#ddd" stroke-dasharray="4,4"></line><line id="-40%" x1="620.50" y1="151" x2="831.00" y2="151" stroke="#ddd" stroke-dasharray="4,4"></line><line id="-20%" x1="620.50" y1="130.6" x2="831.00" y2="130.6" stroke="#ddd" stroke-dasharray="4,4"></line><line id="+0%" x1="620.50" y1="110.3" x2="831.00" y2="110.3" stroke="#999"></line></g><g id="lines"><path fill="none" stroke-linecap="butt" stroke-linejoin="round" stroke="#ffffff" id="outline__Share-of-global-annual-CO₂-emissions" stroke-width="2.5" d="M620.5 110.3L621.3 110.3L622 110.3L622.8 110.3L623.6 110.3L624.4 110.3L625.1 110.3L625.9 110.3L626.7 110.3L627.4 110.3L628.2 110.3L629 110.3L629.8 110.3L630.5 110.3L631.3 110.3L632.1 110.3L632.8 110.3L633.6 110.3L634.4 110.3L635.2 110.3L635.9 110.3L636.7 110.3L637.5 110.3L638.2 110.3L639 110.3L639.8 110.3L640.5 110.3L641.3 110.3L642.1 110.3L642.9 110.3L643.6 110.3L644.4 110.3L645.2 110.3L645.9 110.3L646.7 110.3L647.5 110.3L648.3 110.3L649 110.3L649.8 110.3L650.6 110.3L651.3 110.3L652.1 110.3L652.9 112.5L653.7 112.5L654.4 112.3L655.2 112.3L656 112.8L656.7 112.8L657.5 112.8L658.3 112.6L659.1 114.8L659.8 114.3L660.6 135.4L661.4 114.8L662.1 123L662.9 116.7L663.7 115.9L664.5 120.5L665.2 115.4L666 115.4L666.8 120.8L667.5 120.5L668.3 120.4L669.1 119.8L669.8 120L670.6 121L671.4 124.2L672.2 125.8L672.9 125.4L673.7 125.5L674.5 126.7L675.2 127L676 127.1L676.8 127.8L677.6 127L678.3 129L679.1 129L679.9 131.5L680.6 131.7L681.4 130.3L682.2 134.6L683 133.2L683.7 134.5L684.5 136.4L685.3 136.6L686 136.6L686.8 137.3L687.6 140L688.4 141.3L689.1 141.7L689.9 142.9L690.7 144.3L691.4 145.1L692.2 144L693 144.7L693.8 146.6L694.5 150.4L695.3 151.4L696.1 148.2L696.8 147.5L697.6 148.8L698.4 152.5L699.1 155.2L699.9 158L700.7 156.6L701.5 161.2L702.2 160.8L703 162.3L703.8 164L704.5 161.7L705.3 160.6L706.1 161.1L706.9 163.6L707.6 163.8L708.4 163.9L709.2 164L709.9 164.1L710.7 166.1L711.5 168.2L712.3 168.7L713 168.7L713.8 168.9L714.6 171L715.3 171.9L716.1 170.4L716.9 171.5L717.7 172.1L718.4 172.2L719.2 173.2L720 175.6L720.7 176.8L721.5 176.3L722.3 177.9L723.1 178.7L723.8 179.9L724.6 180.5L725.4 181.3L726.1 182L726.9 183.9L727.7 182.9L728.4 184.6L729.2 185.3L730 186.1L730.8 188.5L731.5 186L732.3 187.2L733.1 187.3L733.8 187.8L734.6 189L735.4 189.4L736.2 190.3L736.9 191.4L737.7 191.2L738.5 192.7L739.2 192.9L740 193.8L740.8 194L741.6 195.5L742.3 195.2L743.1 195.7L743.9 196.4L744.6 196.2L745.4 197.8L746.2 197.7L747 196.7L747.7 196.2L748.5 196.9L749.3 197.7L750 198.5L750.8 196.8L751.6 198.3L752.4 201.2L753.1 198.3L753.9 199.2L754.7 198.7L755.4 199.6L756.2 204.9L757 199.9L757.7 200.5L758.5 200.7L759.3 200.2L760.1 199.7L760.8 198.9L761.6 199.6L762.4 199.7L763.1 200.1L763.9 200.6L764.7 201L765.5 200.7L766.2 201.3L767 201.7L767.8 201.9L768.5 202L769.3 202.3L770.1 202.4L770.9 201.3L771.6 201.8L772.4 202.5L773.2 202.7L773.9 202.2L774.7 203.5L775.5 203.4L776.3 203.8L777 203.8L777.8 203.8L778.6 204.2L779.3 204.7L780.1 205L780.9 205.4L781.7 205.8L782.4 205.8L783.2 205.7L784 205.9L784.7 206.1L785.5 206.4L786.3 206.5L787 206.8L787.8 207.2L788.6 207.3L789.4 207.5L790.1 207.6L790.9 207.8L791.7 208L792.4 208.2L793.2 208.4L794 208.5L794.8 208.7L795.5 208.8L796.3 208.9L797.1 208.8L797.8 209.1L798.6 209.1L799.4 209.1L800.2 209.2L800.9 209.4L801.7 209.3L802.5 209.3L803.2 209.4L804 209.5L804.8 209.5L805.6 209.4L806.3 209.4L807.1 209.4L807.9 209.5L808.6 209.6L809.4 209.7L810.2 209.6L811 209.8L811.7 209.7L812.5 209.8L813.3 209.8L814 209.8L814.8 209.9L815.6 210L816.3 210.1L817.1 210.1L817.9 210.2L818.7 210.3L819.4 210.4L820.2 210.5L821 210.5L821.7 210.7L822.5 210.7L823.3 210.7L824.1 210.8L824.8 210.9L825.6 211L826.4 211L827.1 211.1L827.9 211.1L828.7 211.2L829.5 211.2L830.2 211.2L831 211.3"></path><path fill="none" stroke-linecap="butt" stroke-linejoin="round" stroke="#4c6a9c" id="line__Share-of-global-annual-CO₂-emissions" stroke-width="1.5" stroke-opacity="1" d="M620.5 110.3L621.3 110.3L622 110.3L622.8 110.3L623.6 110.3L624.4 110.3L625.1 110.3L625.9 110.3L626.7 110.3L627.4 110.3L628.2 110.3L629 110.3L629.8 110.3L630.5 110.3L631.3 110.3L632.1 110.3L632.8 110.3L633.6 110.3L634.4 110.3L635.2 110.3L635.9 110.3L636.7 110.3L637.5 110.3L638.2 110.3L639 110.3L639.8 110.3L640.5 110.3L641.3 110.3L642.1 110.3L642.9 110.3L643.6 110.3L644.4 110.3L645.2 110.3L645.9 110.3L646.7 110.3L647.5 110.3L648.3 110.3L649 110.3L649.8 110.3L650.6 110.3L651.3 110.3L652.1 110.3L652.9 112.5L653.7 112.5L654.4 112.3L655.2 112.3L656 112.8L656.7 112.8L657.5 112.8L658.3 112.6L659.1 114.8L659.8 114.3L660.6 135.4L661.4 114.8L662.1 123L662.9 116.7L663.7 115.9L664.5 120.5L665.2 115.4L666 115.4L666.8 120.8L667.5 120.5L668.3 120.4L669.1 119.8L669.8 120L670.6 121L671.4 124.2L672.2 125.8L672.9 125.4L673.7 125.5L674.5 126.7L675.2 127L676 127.1L676.8 127.8L677.6 127L678.3 129L679.1 129L679.9 131.5L680.6 131.7L681.4 130.3L682.2 134.6L683 133.2L683.7 134.5L684.5 136.4L685.3 136.6L686 136.6L686.8 137.3L687.6 140L688.4 141.3L689.1 141.7L689.9 142.9L690.7 144.3L691.4 145.1L692.2 144L693 144.7L693.8 146.6L694.5 150.4L695.3 151.4L696.1 148.2L696.8 147.5L697.6 148.8L698.4 152.5L699.1 155.2L699.9 158L700.7 156.6L701.5 161.2L702.2 160.8L703 162.3L703.8 164L704.5 161.7L705.3 160.6L706.1 161.1L706.9 163.6L707.6 163.8L708.4 163.9L709.2 164L709.9 164.1L710.7 166.1L711.5 168.2L712.3 168.7L713 168.7L713.8 168.9L714.6 171L715.3 171.9L716.1 170.4L716.9 171.5L717.7 172.1L718.4 172.2L719.2 173.2L720 175.6L720.7 176.8L721.5 176.3L722.3 177.9L723.1 178.7L723.8 179.9L724.6 180.5L725.4 181.3L726.1 182L726.9 183.9L727.7 182.9L728.4 184.6L729.2 185.3L730 186.1L730.8 188.5L731.5 186L732.3 187.2L733.1 187.3L733.8 187.8L734.6 189L735.4 189.4L736.2 190.3L736.9 191.4L737.7 191.2L738.5 192.7L739.2 192.9L740 193.8L740.8 194L741.6 195.5L742.3 195.2L743.1 195.7L743.9 196.4L744.6 196.2L745.4 197.8L746.2 197.7L747 196.7L747.7 196.2L748.5 196.9L749.3 197.7L750 198.5L750.8 196.8L751.6 198.3L752.4 201.2L753.1 198.3L753.9 199.2L754.7 198.7L755.4 199.6L756.2 204.9L757 199.9L757.7 200.5L758.5 200.7L759.3 200.2L760.1 199.7L760.8 198.9L761.6 199.6L762.4 199.7L763.1 200.1L763.9 200.6L764.7 201L765.5 200.7L766.2 201.3L767 201.7L767.8 201.9L768.5 202L769.3 202.3L770.1 202.4L770.9 201.3L771.6 201.8L772.4 202.5L773.2 202.7L773.9 202.2L774.7 203.5L775.5 203.4L776.3 203.8L777 203.8L777.8 203.8L778.6 204.2L779.3 204.7L780.1 205L780.9 205.4L781.7 205.8L782.4 205.8L783.2 205.7L784 205.9L784.7 206.1L785.5 206.4L786.3 206.5L787 206.8L787.8 207.2L788.6 207.3L789.4 207.5L790.1 207.6L790.9 207.8L791.7 208L792.4 208.2L793.2 208.4L794 208.5L794.8 208.7L795.5 208.8L796.3 208.9L797.1 208.8L797.8 209.1L798.6 209.1L799.4 209.1L800.2 209.2L800.9 209.4L801.7 209.3L802.5 209.3L803.2 209.4L804 209.5L804.8 209.5L805.6 209.4L806.3 209.4L807.1 209.4L807.9 209.5L808.6 209.6L809.4 209.7L810.2 209.6L811 209.8L811.7 209.7L812.5 209.8L813.3 209.8L814 209.8L814.8 209.9L815.6 210L816.3 210.1L817.1 210.1L817.9 210.2L818.7 210.3L819.4 210.4L820.2 210.5L821 210.5L821.7 210.7L822.5 210.7L823.3 210.7L824.1 210.8L824.8 210.9L825.6 211L826.4 211L827.1 211.1L827.9 211.1L828.7 211.2L829.5 211.2L830.2 211.2L831 211.3"></path></g></g><text x="66.5" y="257.96875" fill="#5b5b5b" font-size="14.625" style="font-weight:700">United States<title>United States</title></text><g id="United-States"><g id="horizontal-axis" class="HorizontalAxis"><g id="tick-marks"><line id="1750" x1="66.5" y1="371.78125" x2="66.5" y2="377.28125" stroke="#999" stroke-width="1"></line><line id="2023" x1="277" y1="371.78125" x2="277" y2="377.28125" stroke="#999" stroke-width="1"></line><line id="1850" x1="143.6" y1="371.78125" x2="143.6" y2="377.28125" stroke="#999" stroke-width="1"></line><line id="1900" x1="182.2" y1="371.78125" x2="182.2" y2="377.28125" stroke="#999" stroke-width="1"></line><line id="1950" x1="220.7" y1="371.78125" x2="220.7" y2="377.28125" stroke="#999" stroke-width="1"></line></g><g id="tick-labels"><text x="66.5" y="387.28125" fill="#5b5b5b" text-anchor="start" font-size="10">1750</text><text x="277" y="387.28125" fill="#5b5b5b" text-anchor="end" font-size="10">2023</text><text x="143.6" y="387.28125" fill="#5b5b5b" text-anchor="middle" font-size="10">1850</text><text x="182.2" y="387.28125" fill="#5b5b5b" text-anchor="middle" font-size="10">1900</text><text x="220.7" y="387.28125" fill="#5b5b5b" text-anchor="middle" font-size="10">1950</text></g></g><g id="vertical-axis" class="VerticalAxis"><g id="tick-labels"><text x="61.50" y="372.2" dy=".32em" text-anchor="end" fill="#5b5b5b" font-size="10">+0%</text><text x="61.50" y="343.5" dy=".32em" text-anchor="end" fill="#5b5b5b" font-size="10">+2,000%</text><text x="61.50" y="314.8" dy=".32em" text-anchor="end" fill="#5b5b5b" font-size="10">+4,000%</text><text x="61.50" y="286.1" dy=".32em" text-anchor="end" fill="#5b5b5b" font-size="10">+6,000%</text></g></g><g id="horizontal-grid-lines" class="AxisGridLines horizontalLines"><line id="+0%" x1="66.50" y1="372.2" x2="277.00" y2="372.2" stroke="#999"></line><line id="+2,000%" x1="66.50" y1="343.5" x2="277.00" y2="343.5" stroke="#ddd" stroke-dasharray="4,4"></line><line id="+4,000%" x1="66.50" y1="314.8" x2="277.00" y2="314.8" stroke="#ddd" stroke-dasharray="4,4"></line><line id="+6,000%" x1="66.50" y1="286.1" x2="277.00" y2="286.1" stroke="#ddd" stroke-dasharray="4,4"></line></g><g id="lines"><path fill="none" stroke-linecap="butt" stroke-linejoin="round" stroke="#ffffff" id="outline__Share-of-global-annual-CO₂-emissions" stroke-width="2.5" d="M105.1 372.2L105.8 372.1L106.6 372.3L107.4 371.7L108.1 371.7L108.9 371.6L109.7 371.7L110.5 371.7L111.2 371.6L112 371.6L112.8 371.6L113.5 371.5L114.3 371.4L115.1 371.3L115.8 371.1L116.6 371.1L117.4 370.9L118.2 370.9L118.9 370.8L119.7 370.8L120.5 370.7L121.2 370.7L122 370.6L122.8 370.6L123.6 370.3L124.3 370.1L125.1 369.6L125.9 369.5L126.6 369.2L127.4 368.6L128.2 369.3L129 368.6L129.7 366.8L130.5 365.7L131.3 366.5L132 365.4L132.8 365.4L133.6 364.3L134.4 364.8L135.1 364.3L135.9 364.4L136.7 364.2L137.4 363.7L138.2 362.7L139 361.4L139.8 360.2L140.5 358.6L141.3 357.2L142.1 355.6L142.8 355.3L143.6 354.9L144.4 350.6L145.1 349.6L145.9 347.8L146.7 349.4L147.5 346.3L148.2 346.8L149 346.5L149.8 346.5L150.5 345.8L151.3 347.1L152.1 349.3L152.9 348.8L153.6 346.8L154.4 347L155.2 348.5L155.9 349.1L156.7 345.4L157.5 342.6L158.3 340.4L159 339.4L159.8 340L160.6 336.4L161.3 334.9L162.1 333.9L162.9 336.5L163.7 337.8L164.4 334.7L165.2 335.9L166 330.7L166.7 330.5L167.5 329.6L168.3 326.9L169.1 326.3L169.8 324.3L170.6 323.8L171.4 321.8L172.1 320.9L172.9 315.7L173.7 321.7L174.4 316.4L175.2 315.5L176 312.9L176.8 311.6L177.5 317.6L178.3 313.9L179.1 315.7L179.8 316.1L180.6 314.2L181.4 311.2L182.2 310.8L182.9 307.3L183.7 305.1L184.5 300.1L185.2 301.9L186 298.3L186.8 297.9L187.6 296.4L188.3 303.3L189.1 298.9L189.9 295.9L190.6 297.8L191.4 296.6L192.2 297.3L193 296.8L193.7 292.6L194.5 290.3L195.3 286L196 280.7L196.8 282.9L197.6 282.2L198.4 288.4L199.1 291.5L199.9 278L200.7 288.3L201.4 286.2L202.2 277.2L203 287.3L203.7 288.4L204.5 288.4L205.3 291.6L206.1 295.6L206.8 300.3L207.6 299L208.4 300.5L209.1 301.2L209.9 297.9L210.7 299.5L211.5 306.9L212.2 304.1L213 302.2L213.8 297.6L214.5 291.5L215.3 290.3L216.1 285.5L216.9 271.3L217.6 282.5L218.4 284.1L219.2 285.4L219.9 296.2L220.7 293.9L221.5 297.3L222.3 300.2L223 300.5L223.8 305.4L224.6 305.4L225.3 306.5L226.1 309.2L226.9 312.9L227.7 314.1L228.4 316.2L229.2 316.6L230 316.5L230.7 317L231.5 317.5L232.3 317.7L233 317.6L233.8 317.3L234.6 318.2L235.4 319.1L236.1 319.4L236.9 321.2L237.7 321.2L238.4 321.5L239.2 323.1L240 324.8L240.8 324.5L241.5 324.4L242.3 325.4L243.1 326.1L243.8 327.7L244.6 327.8L245.4 329.8L246.2 330.2L246.9 329.5L247.7 331L248.5 331.5L249.2 331.4L250 331.1L250.8 331L251.6 331.7L252.3 333L253.1 330.9L253.9 330.5L254.6 330.2L255.4 330.7L256.2 330.6L257 330.3L257.7 329.7L258.5 330.2L259.3 329.8L260 330.9L260.8 331.5L261.6 333.2L262.3 333.9L263.1 335.1L263.9 336.9L264.7 337.5L265.4 339.3L266.2 341.3L267 341.9L267.7 343.7L268.5 345.2L269.3 344.7L270.1 344.6L270.8 345.4L271.6 346L272.4 346.7L273.1 346.4L273.9 347.2L274.7 348.6L275.5 348.3L276.2 348.3L277 349.4"></path><path fill="none" stroke-linecap="butt" stroke-linejoin="round" stroke="#4c6a9c" id="line__Share-of-global-annual-CO₂-emissions" stroke-width="1.5" stroke-opacity="1" d="M105.1 372.2L105.8 372.1L106.6 372.3L107.4 371.7L108.1 371.7L108.9 371.6L109.7 371.7L110.5 371.7L111.2 371.6L112 371.6L112.8 371.6L113.5 371.5L114.3 371.4L115.1 371.3L115.8 371.1L116.6 371.1L117.4 370.9L118.2 370.9L118.9 370.8L119.7 370.8L120.5 370.7L121.2 370.7L122 370.6L122.8 370.6L123.6 370.3L124.3 370.1L125.1 369.6L125.9 369.5L126.6 369.2L127.4 368.6L128.2 369.3L129 368.6L129.7 366.8L130.5 365.7L131.3 366.5L132 365.4L132.8 365.4L133.6 364.3L134.4 364.8L135.1 364.3L135.9 364.4L136.7 364.2L137.4 363.7L138.2 362.7L139 361.4L139.8 360.2L140.5 358.6L141.3 357.2L142.1 355.6L142.8 355.3L143.6 354.9L144.4 350.6L145.1 349.6L145.9 347.8L146.7 349.4L147.5 346.3L148.2 346.8L149 346.5L149.8 346.5L150.5 345.8L151.3 347.1L152.1 349.3L152.9 348.8L153.6 346.8L154.4 347L155.2 348.5L155.9 349.1L156.7 345.4L157.5 342.6L158.3 340.4L159 339.4L159.8 340L160.6 336.4L161.3 334.9L162.1 333.9L162.9 336.5L163.7 337.8L164.4 334.7L165.2 335.9L166 330.7L166.7 330.5L167.5 329.6L168.3 326.9L169.1 326.3L169.8 324.3L170.6 323.8L171.4 321.8L172.1 320.9L172.9 315.7L173.7 321.7L174.4 316.4L175.2 315.5L176 312.9L176.8 311.6L177.5 317.6L178.3 313.9L179.1 315.7L179.8 316.1L180.6 314.2L181.4 311.2L182.2 310.8L182.9 307.3L183.7 305.1L184.5 300.1L185.2 301.9L186 298.3L186.8 297.9L187.6 296.4L188.3 303.3L189.1 298.9L189.9 295.9L190.6 297.8L191.4 296.6L192.2 297.3L193 296.8L193.7 292.6L194.5 290.3L195.3 286L196 280.7L196.8 282.9L197.6 282.2L198.4 288.4L199.1 291.5L199.9 278L200.7 288.3L201.4 286.2L202.2 277.2L203 287.3L203.7 288.4L204.5 288.4L205.3 291.6L206.1 295.6L206.8 300.3L207.6 299L208.4 300.5L209.1 301.2L209.9 297.9L210.7 299.5L211.5 306.9L212.2 304.1L213 302.2L213.8 297.6L214.5 291.5L215.3 290.3L216.1 285.5L216.9 271.3L217.6 282.5L218.4 284.1L219.2 285.4L219.9 296.2L220.7 293.9L221.5 297.3L222.3 300.2L223 300.5L223.8 305.4L224.6 305.4L225.3 306.5L226.1 309.2L226.9 312.9L227.7 314.1L228.4 316.2L229.2 316.6L230 316.5L230.7 317L231.5 317.5L232.3 317.7L233 317.6L233.8 317.3L234.6 318.2L235.4 319.1L236.1 319.4L236.9 321.2L237.7 321.2L238.4 321.5L239.2 323.1L240 324.8L240.8 324.5L241.5 324.4L242.3 325.4L243.1 326.1L243.8 327.7L244.6 327.8L245.4 329.8L246.2 330.2L246.9 329.5L247.7 331L248.5 331.5L249.2 331.4L250 331.1L250.8 331L251.6 331.7L252.3 333L253.1 330.9L253.9 330.5L254.6 330.2L255.4 330.7L256.2 330.6L257 330.3L257.7 329.7L258.5 330.2L259.3 329.8L260 330.9L260.8 331.5L261.6 333.2L262.3 333.9L263.1 335.1L263.9 336.9L264.7 337.5L265.4 339.3L266.2 341.3L267 341.9L267.7 343.7L268.5 345.2L269.3 344.7L270.1 344.6L270.8 345.4L271.6 346L272.4 346.7L273.1 346.4L273.9 347.2L274.7 348.6L275.5 348.3L276.2 348.3L277 349.4"></path></g></g><text x="343.5" y="257.96875" fill="#5b5b5b" font-size="14.625" style="font-weight:700">European Union (27)<title>European Union (27)</title></text><g id="European-Union-(27)"><g id="horizontal-axis" class="HorizontalAxis"><g id="tick-marks"><line id="1750" x1="343.5" y1="371.78125" x2="343.5" y2="377.28125" stroke="#999" stroke-width="1"></line><line id="2023" x1="554" y1="371.78125" x2="554" y2="377.28125" stroke="#999" stroke-width="1"></line><line id="1850" x1="420.6" y1="371.78125" x2="420.6" y2="377.28125" stroke="#999" stroke-width="1"></line><line id="1900" x1="459.2" y1="371.78125" x2="459.2" y2="377.28125" stroke="#999" stroke-width="1"></line><line id="1950" x1="497.7" y1="371.78125" x2="497.7" y2="377.28125" stroke="#999" stroke-width="1"></line></g><g id="tick-labels"><text x="343.5" y="387.28125" fill="#5b5b5b" text-anchor="start" font-size="10">1750</text><text x="554" y="387.28125" fill="#5b5b5b" text-anchor="end" font-size="10">2023</text><text x="420.6" y="387.28125" fill="#5b5b5b" text-anchor="middle" font-size="10">1850</text><text x="459.2" y="387.28125" fill="#5b5b5b" text-anchor="middle" font-size="10">1900</text><text x="497.7" y="387.28125" fill="#5b5b5b" text-anchor="middle" font-size="10">1950</text></g></g><g id="vertical-axis" class="VerticalAxis"><g id="tick-labels"><text x="338.50" y="371.8" dy=".32em" text-anchor="end" fill="#5b5b5b" font-size="10">+0%</text><text x="338.50" y="342.3" dy=".32em" text-anchor="end" fill="#5b5b5b" font-size="10">+500%</text><text x="338.50" y="312.8" dy=".32em" text-anchor="end" fill="#5b5b5b" font-size="10">+1,000%</text><text x="338.50" y="283.3" dy=".32em" text-anchor="end" fill="#5b5b5b" font-size="10">+1,500%</text></g></g><g id="horizontal-grid-lines" class="AxisGridLines horizontalLines"><line id="+0%" x1="343.50" y1="371.8" x2="554.00" y2="371.8" stroke="#999"></line><line id="+500%" x1="343.50" y1="342.3" x2="554.00" y2="342.3" stroke="#ddd" stroke-dasharray="4,4"></line><line id="+1,000%" x1="343.50" y1="312.8" x2="554.00" y2="312.8" stroke="#ddd" stroke-dasharray="4,4"></line><line id="+1,500%" x1="343.50" y1="283.3" x2="554.00" y2="283.3" stroke="#ddd" stroke-dasharray="4,4"></line></g><g id="lines"><path fill="none" stroke-linecap="butt" stroke-linejoin="round" stroke="#ffffff" id="outline__Share-of-global-annual-CO₂-emissions" stroke-width="2.5" d="M375.9 371.8L376.7 371.8L377.4 372.3L378.2 372.2L379 371L379.7 370.8L380.5 370.8L381.3 371.4L382.1 367.6L382.8 369.3L383.6 311.7L384.4 368.4L385.1 346.1L385.9 363.5L386.7 365.4L387.5 353.1L388.2 366.8L389 367.1L389.8 352.1L390.5 353.2L391.3 353.5L392.1 355.5L392.8 355L393.6 352.6L394.4 344L395.2 339.7L395.9 341L396.7 340.6L397.5 337.7L398.2 336.7L399 336.5L399.8 334.8L400.6 337.3L401.3 332.2L402.1 333L402.9 326.4L403.6 326.2L404.4 330.9L405.2 318.4L406 323.1L406.7 322.3L407.5 318.8L408.3 316.9L409 318.6L409.8 316.8L410.6 311.2L411.4 306.9L412.1 306.6L412.9 303.3L413.7 299.8L414.4 298.5L415.2 302.8L416 302.7L416.8 299.6L417.5 291.5L418.3 291L419.1 302.1L419.8 304.4L420.6 301.7L421.4 298.2L422.1 292.3L422.9 287.3L423.7 288.6L424.5 281.4L425.2 282.1L426 279.1L426.8 275.4L427.5 282.9L428.3 284.2L429.1 279.8L429.9 273.8L430.6 276.3L431.4 276L432.2 273.8L432.9 274.3L433.7 274.1L434.5 272L435.3 273.9L436 275.7L436.8 275.2L437.6 274.9L438.3 274.1L439.1 281L439.9 274.4L440.7 271.3L441.4 275.8L442.2 273.3L443 274.5L443.7 271.9L444.5 275.1L445.3 275L446.1 274.6L446.8 274.8L447.6 274.3L448.4 275.4L449.1 275.6L449.9 278.6L450.7 273.3L451.4 276L452.2 276.7L453 279L453.8 276.1L454.5 274.6L455.3 277.4L456.1 274.9L456.8 273.9L457.6 274.9L458.4 278.6L459.2 277.5L459.9 281L460.7 285.1L461.5 287.1L462.2 286.4L463 287.6L463.8 289.6L464.6 289.5L465.3 282.4L466.1 286.9L466.9 289.5L467.6 289.1L468.4 287.2L469.2 287.8L470 292.8L470.7 298.6L471.5 300.7L472.3 304.7L473 308.1L473.8 315.2L474.6 310.5L475.4 298.3L476.1 299.9L476.9 316.1L477.7 303.2L478.4 303.1L479.2 304.3L480 302.1L480.7 300L481.5 298.2L482.3 299.4L483.1 298.8L483.8 300.4L484.6 302.1L485.4 302.7L486.1 302.9L486.9 306.6L487.7 302.8L488.5 297.3L489.2 299.4L490 303.1L490.8 305.9L491.5 304.6L492.3 305.3L493.1 316.7L493.9 346L494.6 327L495.4 324.8L496.2 322.2L496.9 313.5L497.7 318.3L498.5 315.9L499.3 314.3L500 314.9L500.8 312.2L501.6 313.1L502.3 312.7L503.1 312.8L503.9 315.1L504.7 317.2L505.4 316L506.2 313.2L507 311.1L507.7 310.2L508.5 310.3L509.3 312.4L510 313.5L510.8 314.1L511.6 313.7L512.4 313.7L513.1 316L513.9 316.7L514.7 317.2L515.4 317.5L516.2 317.5L517 318.9L517.8 317.7L518.5 319.9L519.3 319.8L520.1 319.8L520.8 320L521.6 321.6L522.4 322.5L523.2 323.5L523.9 324.8L524.7 325.8L525.5 326.7L526.2 327.8L527 330.2L527.8 330.4L528.6 330.7L529.3 332.4L530.1 332.7L530.9 334L531.6 334.6L532.4 335.1L533.2 335.4L534 336.4L534.7 336.3L535.5 337.9L536.3 338.8L537 338.5L537.8 339.3L538.6 340.4L539.3 341.6L540.1 342.9L540.9 343.9L541.7 345.3L542.4 346.5L543.2 348.6L544 349.4L544.7 351.1L545.5 352L546.3 352.9L547.1 354.1L547.8 353.6L548.6 353.6L549.4 353.8L550.1 354.8L550.9 356.1L551.7 357.1L552.5 356.8L553.2 357.4L554 359.4"></path><path fill="none" stroke-linecap="butt" stroke-linejoin="round" stroke="#4c6a9c" id="line__Share-of-global-annual-CO₂-emissions" stroke-width="1.5" stroke-opacity="1" d="M375.9 371.8L376.7 371.8L377.4 372.3L378.2 372.2L379 371L379.7 370.8L380.5 370.8L381.3 371.4L382.1 367.6L382.8 369.3L383.6 311.7L384.4 368.4L385.1 346.1L385.9 363.5L386.7 365.4L387.5 353.1L388.2 366.8L389 367.1L389.8 352.1L390.5 353.2L391.3 353.5L392.1 355.5L392.8 355L393.6 352.6L394.4 344L395.2 339.7L395.9 341L396.7 340.6L397.5 337.7L398.2 336.7L399 336.5L399.8 334.8L400.6 337.3L401.3 332.2L402.1 333L402.9 326.4L403.6 326.2L404.4 330.9L405.2 318.4L406 323.1L406.7 322.3L407.5 318.8L408.3 316.9L409 318.6L409.8 316.8L410.6 311.2L411.4 306.9L412.1 306.6L412.9 303.3L413.7 299.8L414.4 298.5L415.2 302.8L416 302.7L416.8 299.6L417.5 291.5L418.3 291L419.1 302.1L419.8 304.4L420.6 301.7L421.4 298.2L422.1 292.3L422.9 287.3L423.7 288.6L424.5 281.4L425.2 282.1L426 279.1L426.8 275.4L427.5 282.9L428.3 284.2L429.1 279.8L429.9 273.8L430.6 276.3L431.4 276L432.2 273.8L432.9 274.3L433.7 274.1L434.5 272L435.3 273.9L436 275.7L436.8 275.2L437.6 274.9L438.3 274.1L439.1 281L439.9 274.4L440.7 271.3L441.4 275.8L442.2 273.3L443 274.5L443.7 271.9L444.5 275.1L445.3 275L446.1 274.6L446.8 274.8L447.6 274.3L448.4 275.4L449.1 275.6L449.9 278.6L450.7 273.3L451.4 276L452.2 276.7L453 279L453.8 276.1L454.5 274.6L455.3 277.4L456.1 274.9L456.8 273.9L457.6 274.9L458.4 278.6L459.2 277.5L459.9 281L460.7 285.1L461.5 287.1L462.2 286.4L463 287.6L463.8 289.6L464.6 289.5L465.3 282.4L466.1 286.9L466.9 289.5L467.6 289.1L468.4 287.2L469.2 287.8L470 292.8L470.7 298.6L471.5 300.7L472.3 304.7L473 308.1L473.8 315.2L474.6 310.5L475.4 298.3L476.1 299.9L476.9 316.1L477.7 303.2L478.4 303.1L479.2 304.3L480 302.1L480.7 300L481.5 298.2L482.3 299.4L483.1 298.8L483.8 300.4L484.6 302.1L485.4 302.7L486.1 302.9L486.9 306.6L487.7 302.8L488.5 297.3L489.2 299.4L490 303.1L490.8 305.9L491.5 304.6L492.3 305.3L493.1 316.7L493.9 346L494.6 327L495.4 324.8L496.2 322.2L496.9 313.5L497.7 318.3L498.5 315.9L499.3 314.3L500 314.9L500.8 312.2L501.6 313.1L502.3 312.7L503.1 312.8L503.9 315.1L504.7 317.2L505.4 316L506.2 313.2L507 311.1L507.7 310.2L508.5 310.3L509.3 312.4L510 313.5L510.8 314.1L511.6 313.7L512.4 313.7L513.1 316L513.9 316.7L514.7 317.2L515.4 317.5L516.2 317.5L517 318.9L517.8 317.7L518.5 319.9L519.3 319.8L520.1 319.8L520.8 320L521.6 321.6L522.4 322.5L523.2 323.5L523.9 324.8L524.7 325.8L525.5 326.7L526.2 327.8L527 330.2L527.8 330.4L528.6 330.7L529.3 332.4L530.1 332.7L530.9 334L531.6 334.6L532.4 335.1L533.2 335.4L534 336.4L534.7 336.3L535.5 337.9L536.3 338.8L537 338.5L537.8 339.3L538.6 340.4L539.3 341.6L540.1 342.9L540.9 343.9L541.7 345.3L542.4 346.5L543.2 348.6L544 349.4L544.7 351.1L545.5 352L546.3 352.9L547.1 354.1L547.8 353.6L548.6 353.6L549.4 353.8L550.1 354.8L550.9 356.1L551.7 357.1L552.5 356.8L553.2 357.4L554 359.4"></path></g></g><text x="620.5" y="257.96875" fill="#5b5b5b" font-size="14.625" style="font-weight:700">Canada<title>Canada</title></text><g id="Canada"><g id="horizontal-axis" class="HorizontalAxis"><g id="tick-marks"><line id="1750" x1="620.5" y1="371.78125" x2="620.5" y2="377.28125" stroke="#999" stroke-width="1"></line><line id="2023" x1="831" y1="371.78125" x2="831" y2="377.28125" stroke="#999" stroke-width="1"></line><line id="1850" x1="697.6" y1="371.78125" x2="697.6" y2="377.28125" stroke="#999" stroke-width="1"></line><line id="1900" x1="736.2" y1="371.78125" x2="736.2" y2="377.28125" stroke="#999" stroke-width="1"></line><line id="1950" x1="774.7" y1="371.78125" x2="774.7" y2="377.28125" stroke="#999" stroke-width="1"></line></g><g id="tick-labels"><text x="620.5" y="387.28125" fill="#5b5b5b" text-anchor="start" font-size="10">1750</text><text x="831" y="387.28125" fill="#5b5b5b" text-anchor="end" font-size="10">2023</text><text x="697.6" y="387.28125" fill="#5b5b5b" text-anchor="middle" font-size="10">1850</text><text x="736.2" y="387.28125" fill="#5b5b5b" text-anchor="middle" font-size="10">1900</text><text x="774.7" y="387.28125" fill="#5b5b5b" text-anchor="middle" font-size="10">1950</text></g></g><g id="vertical-axis" class="VerticalAxis"><g id="tick-labels"><text x="615.50" y="371.7" dy=".32em" text-anchor="end" fill="#5b5b5b" font-size="10">+0%</text><text x="615.50" y="337.8" dy=".32em" text-anchor="end" fill="#5b5b5b" font-size="10">+5,000%</text><text x="615.50" y="303.9" dy=".32em" text-anchor="end" fill="#5b5b5b" font-size="10">+10,000%</text></g></g><g id="horizontal-grid-lines" class="AxisGridLines horizontalLines"><line id="+0%" x1="620.50" y1="371.7" x2="831.00" y2="371.7" stroke="#999"></line><line id="+5,000%" x1="620.50" y1="337.8" x2="831.00" y2="337.8" stroke="#ddd" stroke-dasharray="4,4"></line><line id="+10,000%" x1="620.50" y1="303.9" x2="831.00" y2="303.9" stroke="#ddd" stroke-dasharray="4,4"></line></g><g id="lines"><path fill="none" stroke-linecap="butt" stroke-linejoin="round" stroke="#ffffff" id="outline__Share-of-global-annual-CO₂-emissions" stroke-width="2.5" d="M647.5 371.7L648.3 371.7L649 371.7L649.8 371.7L650.6 371.7L651.3 371.8L652.1 371.8L652.9 371.8L653.7 371.8L654.4 371.8L655.2 371.8L656 371.8L656.7 371.8L657.5 371.8L658.3 371.9L659.1 372L659.8 372L660.6 372.1L661.4 371.9L662.1 372L662.9 372L663.7 372L664.5 372L665.2 372L666 372L666.8 372.1L667.5 372.1L668.3 372.1L669.1 372.1L669.8 372.1L670.6 372.1L671.4 372.1L672.2 372.1L672.9 372.1L673.7 372.1L674.5 372.1L675.2 372.1L676 372.1L676.8 372.1L677.6 372.1L678.3 372.2L679.1 372.2L679.9 372.2L680.6 372.2L681.4 372.2L682.2 372.2L683 372.2L683.7 372.2L684.5 372.2L685.3 372.2L686 372.2L686.8 372.2L687.6 372.2L688.4 372.2L689.1 372.2L689.9 372.3L690.7 372.3L691.4 372.3L692.2 372.3L693 372.3L693.8 372.3L694.5 371.8L695.3 371.7L696.1 371.6L696.8 371.5L697.6 371.4L698.4 371.2L699.1 371L699.9 370.8L700.7 370.7L701.5 370.4L702.2 370.2L703 369.8L703.8 369.3L704.5 368.9L705.3 368.6L706.1 368L706.9 367.1L707.6 366.2L708.4 365.5L709.2 364.6L709.9 363.2L710.7 361.3L711.5 366L712.3 368L713 364.8L713.8 362L714.6 362.6L715.3 364.4L716.1 363.8L716.9 363.2L717.7 363.4L718.4 362.8L719.2 363.3L720 362.8L720.7 352.1L721.5 351.4L722.3 348.9L723.1 347.6L723.8 344.1L724.6 345.4L725.4 344.1L726.1 341.3L726.9 335.5L727.7 341.1L728.4 340.8L729.2 338.5L730 338.9L730.8 336.1L731.5 339L732.3 342.3L733.1 340.9L733.8 342L734.6 341.8L735.4 338.2L736.2 337.4L736.9 333.2L737.7 331.3L738.5 331.3L739.2 324.3L740 324.1L740.8 323.6L741.6 318.5L742.3 315.8L743.1 320.4L743.9 316L744.6 307.6L745.4 303.5L746.2 297.5L747 301.1L747.7 307.7L748.5 297.5L749.3 292.6L750 287.4L750.8 289L751.6 293.1L752.4 286.3L753.1 301.7L753.9 288.7L754.7 302.9L755.4 305.5L756.2 295.8L757 296.2L757.7 294.4L758.5 295.6L759.3 293.2L760.1 301.2L760.8 299.3L761.6 303.7L762.4 299.8L763.1 304.1L763.9 304.3L764.7 303.3L765.5 305.2L766.2 301.8L767 298.5L767.8 292.5L768.5 285L769.3 282L770.1 282L770.9 271.3L771.6 272.6L772.4 280L773.2 275.7L773.9 279.8L774.7 286L775.5 287.7L776.3 290.5L777 292.1L777.8 292.6L778.6 296.7L779.3 292.8L780.1 298.2L780.9 300.5L781.7 303.2L782.4 304.2L783.2 303.9L784 301.8L784.7 304.1L785.5 299.5L786.3 298.4L787 299.8L787.8 295.9L788.6 294.3L789.4 298.2L790.1 296.3L790.9 296.9L791.7 294.4L792.4 298.2L793.2 296.3L794 295.1L794.8 298.7L795.5 299.1L796.3 300L797.1 297.5L797.8 296.9L798.6 297.3L799.4 299.4L800.2 300.9L800.9 300.5L801.7 303.4L802.5 307.1L803.2 305L804 303.8L804.8 303.7L805.6 305.4L806.3 307.9L807.1 304L807.9 304.6L808.6 303.2L809.4 303L810.2 302.8L811 301.3L811.7 300L812.5 299.7L813.3 298.6L814 300.2L814.8 301.1L815.6 302.6L816.3 305.2L817.1 308.1L817.9 310.7L818.7 310L819.4 312.7L820.2 315.2L821 317.1L821.7 318.1L822.5 318.8L823.3 318.8L824.1 319.3L824.8 319.3L825.6 319.9L826.4 319.8L827.1 320L827.9 320.3L828.7 322.6L829.5 323.8L830.2 323.3L831 324.1"></path><path fill="none" stroke-linecap="butt" stroke-linejoin="round" stroke="#4c6a9c" id="line__Share-of-global-annual-CO₂-emissions" stroke-width="1.5" stroke-opacity="1" d="M647.5 371.7L648.3 371.7L649 371.7L649.8 371.7L650.6 371.7L651.3 371.8L652.1 371.8L652.9 371.8L653.7 371.8L654.4 371.8L655.2 371.8L656 371.8L656.7 371.8L657.5 371.8L658.3 371.9L659.1 372L659.8 372L660.6 372.1L661.4 371.9L662.1 372L662.9 372L663.7 372L664.5 372L665.2 372L666 372L666.8 372.1L667.5 372.1L668.3 372.1L669.1 372.1L669.8 372.1L670.6 372.1L671.4 372.1L672.2 372.1L672.9 372.1L673.7 372.1L674.5 372.1L675.2 372.1L676 372.1L676.8 372.1L677.6 372.1L678.3 372.2L679.1 372.2L679.9 372.2L680.6 372.2L681.4 372.2L682.2 372.2L683 372.2L683.7 372.2L684.5 372.2L685.3 372.2L686 372.2L686.8 372.2L687.6 372.2L688.4 372.2L689.1 372.2L689.9 372.3L690.7 372.3L691.4 372.3L692.2 372.3L693 372.3L693.8 372.3L694.5 371.8L695.3 371.7L696.1 371.6L696.8 371.5L697.6 371.4L698.4 371.2L699.1 371L699.9 370.8L700.7 370.7L701.5 370.4L702.2 370.2L703 369.8L703.8 369.3L704.5 368.9L705.3 368.6L706.1 368L706.9 367.1L707.6 366.2L708.4 365.5L709.2 364.6L709.9 363.2L710.7 361.3L711.5 366L712.3 368L713 364.8L713.8 362L714.6 362.6L715.3 364.4L716.1 363.8L716.9 363.2L717.7 363.4L718.4 362.8L719.2 363.3L720 362.8L720.7 352.1L721.5 351.4L722.3 348.9L723.1 347.6L723.8 344.1L724.6 345.4L725.4 344.1L726.1 341.3L726.9 335.5L727.7 341.1L728.4 340.8L729.2 338.5L730 338.9L730.8 336.1L731.5 339L732.3 342.3L733.1 340.9L733.8 342L734.6 341.8L735.4 338.2L736.2 337.4L736.9 333.2L737.7 331.3L738.5 331.3L739.2 324.3L740 324.1L740.8 323.6L741.6 318.5L742.3 315.8L743.1 320.4L743.9 316L744.6 307.6L745.4 303.5L746.2 297.5L747 301.1L747.7 307.7L748.5 297.5L749.3 292.6L750 287.4L750.8 289L751.6 293.1L752.4 286.3L753.1 301.7L753.9 288.7L754.7 302.9L755.4 305.5L756.2 295.8L757 296.2L757.7 294.4L758.5 295.6L759.3 293.2L760.1 301.2L760.8 299.3L761.6 303.7L762.4 299.8L763.1 304.1L763.9 304.3L764.7 303.3L765.5 305.2L766.2 301.8L767 298.5L767.8 292.5L768.5 285L769.3 282L770.1 282L770.9 271.3L771.6 272.6L772.4 280L773.2 275.7L773.9 279.8L774.7 286L775.5 287.7L776.3 290.5L777 292.1L777.8 292.6L778.6 296.7L779.3 292.8L780.1 298.2L780.9 300.5L781.7 303.2L782.4 304.2L783.2 303.9L784 301.8L784.7 304.1L785.5 299.5L786.3 298.4L787 299.8L787.8 295.9L788.6 294.3L789.4 298.2L790.1 296.3L790.9 296.9L791.7 294.4L792.4 298.2L793.2 296.3L794 295.1L794.8 298.7L795.5 299.1L796.3 300L797.1 297.5L797.8 296.9L798.6 297.3L799.4 299.4L800.2 300.9L800.9 300.5L801.7 303.4L802.5 307.1L803.2 305L804 303.8L804.8 303.7L805.6 305.4L806.3 307.9L807.1 304L807.9 304.6L808.6 303.2L809.4 303L810.2 302.8L811 301.3L811.7 300L812.5 299.7L813.3 298.6L814 300.2L814.8 301.1L815.6 302.6L816.3 305.2L817.1 308.1L817.9 310.7L818.7 310L819.4 312.7L820.2 315.2L821 317.1L821.7 318.1L822.5 318.8L823.3 318.8L824.1 319.3L824.8 319.3L825.6 319.9L826.4 319.8L827.1 320L827.9 320.3L828.7 322.6L829.5 323.8L830.2 323.3L831 324.1"></path></g></g><text x="66.5" y="418.96875" fill="#5b5b5b" font-size="14.625" style="font-weight:700">Brazil<title>Brazil</title></text><g id="Brazil"><g id="horizontal-axis" class="HorizontalAxis"><g id="tick-marks"><line id="1750" x1="66.5" y1="532.78125" x2="66.5" y2="538.28125" stroke="#999" stroke-width="1"></line><line id="2023" x1="277" y1="532.78125" x2="277" y2="538.28125" stroke="#999" stroke-width="1"></line><line id="1850" x1="143.6" y1="532.78125" x2="143.6" y2="538.28125" stroke="#999" stroke-width="1"></line><line id="1900" x1="182.2" y1="532.78125" x2="182.2" y2="538.28125" stroke="#999" stroke-width="1"></line><line id="1950" x1="220.7" y1="532.78125" x2="220.7" y2="538.28125" stroke="#999" stroke-width="1"></line></g><g id="tick-labels"><text x="66.5" y="548.28125" fill="#5b5b5b" text-anchor="start" font-size="10">1750</text><text x="277" y="548.28125" fill="#5b5b5b" text-anchor="end" font-size="10">2023</text><text x="143.6" y="548.28125" fill="#5b5b5b" text-anchor="middle" font-size="10">1850</text><text x="182.2" y="548.28125" fill="#5b5b5b" text-anchor="middle" font-size="10">1900</text><text x="220.7" y="548.28125" fill="#5b5b5b" text-anchor="middle" font-size="10">1950</text></g></g><g id="vertical-axis" class="VerticalAxis"><g id="tick-labels"><text x="61.50" y="532.9" dy=".32em" text-anchor="end" fill="#5b5b5b" font-size="10">+0%</text><text x="61.50" y="505.4" dy=".32em" text-anchor="end" fill="#5b5b5b" font-size="10">+500%</text><text x="61.50" y="477.8" dy=".32em" text-anchor="end" fill="#5b5b5b" font-size="10">+1,000%</text><text x="61.50" y="450.3" dy=".32em" text-anchor="end" fill="#5b5b5b" font-size="10">+1,500%</text></g></g><g id="horizontal-grid-lines" class="AxisGridLines horizontalLines"><line id="+0%" x1="66.50" y1="532.9" x2="277.00" y2="532.9" stroke="#999"></line><line id="+500%" x1="66.50" y1="505.4" x2="277.00" y2="505.4" stroke="#ddd" stroke-dasharray="4,4"></line><line id="+1,000%" x1="66.50" y1="477.8" x2="277.00" y2="477.8" stroke="#ddd" stroke-dasharray="4,4"></line><line id="+1,500%" x1="66.50" y1="450.3" x2="277.00" y2="450.3" stroke="#ddd" stroke-dasharray="4,4"></line></g><g id="lines"><path fill="none" stroke-linecap="butt" stroke-linejoin="round" stroke="#ffffff" id="outline__Share-of-global-annual-CO₂-emissions" stroke-width="2.5" d="M148.2 532.9L149 531.9L149.8 531.7L150.5 530.1L151.3 529.6L152.1 530.5L152.9 531.7L153.6 530.8L154.4 530.5L155.2 529.5L155.9 528.7L156.7 530.6L157.5 528.1L158.3 530.6L159 529.6L159.8 528.4L160.6 529.2L161.3 528.1L162.1 527.7L162.9 529.1L163.7 530.2L164.4 530L165.2 529.4L166 531.2L166.7 531.1L167.5 530.6L168.3 531.6L169.1 530.5L169.8 529.8L170.6 530.3L171.4 530.3L172.1 530.2L172.9 531.2L173.7 528L174.4 529.6L175.2 528.2L176 527.9L176.8 528.7L177.5 527.4L178.3 528.5L179.1 527L179.8 527L180.6 527.8L181.4 528.9L182.2 530.6L182.9 530.7L183.7 530.1L184.5 531.1L185.2 530.6L186 530.5L186.8 529.8L187.6 529.7L188.3 529.4L189.1 529.5L189.9 528.2L190.6 526.7L191.4 527L192.2 526.7L193 528.6L193.7 531.5L194.5 533L195.3 533L196 533.3L196.8 531.8L197.6 530.8L198.4 532.1L199.1 530.1L199.9 529.6L200.7 528.7L201.4 528.8L202.2 528.4L203 528.3L203.7 528.1L204.5 528.4L205.3 528.5L206.1 529.3L206.8 528.3L207.6 528L208.4 528.9L209.1 528.9L209.9 529.4L210.7 528.3L211.5 527L212.2 529.9L213 530.6L213.8 529.9L214.5 530.5L215.3 529.8L216.1 530.7L216.9 527.7L217.6 527.5L218.4 526.7L219.2 528.7L219.9 528.9L220.7 516L221.5 515.5L222.3 512.4L223 512.8L223.8 508.9L224.6 507.6L225.3 507.3L226.1 508.8L226.9 507.1L227.7 508.7L228.4 504.7L229.2 503.2L230 501.3L230.7 501.9L231.5 503.1L232.3 504.8L233 501.9L233.8 502L234.6 498.1L235.4 497.2L236.1 496.1L236.9 493.9L237.7 491L238.4 486.3L239.2 481.7L240 479L240.8 480.4L241.5 479.2L242.3 475.8L243.1 473.8L243.8 474L244.6 477.7L245.4 477.1L246.2 479.5L246.9 480.9L247.7 478.6L248.5 473.9L249.2 473L250 475L250.8 474.5L251.6 473.5L252.3 471.7L253.1 468.5L253.9 466L254.6 463.9L255.4 461.4L256.2 458L257 453.6L257.7 450.3L258.5 449.6L259.3 448.5L260 447.6L260.8 449.2L261.6 454.4L262.3 453.3L263.1 455.4L263.9 457.2L264.7 454.9L265.4 451.7L266.2 455.1L267 449.4L267.7 448L268.5 442.4L269.3 436.7L270.1 432.3L270.8 437.6L271.6 444.6L272.4 445L273.1 450.6L273.9 452.4L274.7 452.9L275.5 447.6L276.2 450.9L277 451.6"></path><path fill="none" stroke-linecap="butt" stroke-linejoin="round" stroke="#4c6a9c" id="line__Share-of-global-annual-CO₂-emissions" stroke-width="1.5" stroke-opacity="1" d="M148.2 532.9L149 531.9L149.8 531.7L150.5 530.1L151.3 529.6L152.1 530.5L152.9 531.7L153.6 530.8L154.4 530.5L155.2 529.5L155.9 528.7L156.7 530.6L157.5 528.1L158.3 530.6L159 529.6L159.8 528.4L160.6 529.2L161.3 528.1L162.1 527.7L162.9 529.1L163.7 530.2L164.4 530L165.2 529.4L166 531.2L166.7 531.1L167.5 530.6L168.3 531.6L169.1 530.5L169.8 529.8L170.6 530.3L171.4 530.3L172.1 530.2L172.9 531.2L173.7 528L174.4 529.6L175.2 528.2L176 527.9L176.8 528.7L177.5 527.4L178.3 528.5L179.1 527L179.8 527L180.6 527.8L181.4 528.9L182.2 530.6L182.9 530.7L183.7 530.1L184.5 531.1L185.2 530.6L186 530.5L186.8 529.8L187.6 529.7L188.3 529.4L189.1 529.5L189.9 528.2L190.6 526.7L191.4 527L192.2 526.7L193 528.6L193.7 531.5L194.5 533L195.3 533L196 533.3L196.8 531.8L197.6 530.8L198.4 532.1L199.1 530.1L199.9 529.6L200.7 528.7L201.4 528.8L202.2 528.4L203 528.3L203.7 528.1L204.5 528.4L205.3 528.5L206.1 529.3L206.8 528.3L207.6 528L208.4 528.9L209.1 528.9L209.9 529.4L210.7 528.3L211.5 527L212.2 529.9L213 530.6L213.8 529.9L214.5 530.5L215.3 529.8L216.1 530.7L216.9 527.7L217.6 527.5L218.4 526.7L219.2 528.7L219.9 528.9L220.7 516L221.5 515.5L222.3 512.4L223 512.8L223.8 508.9L224.6 507.6L225.3 507.3L226.1 508.8L226.9 507.1L227.7 508.7L228.4 504.7L229.2 503.2L230 501.3L230.7 501.9L231.5 503.1L232.3 504.8L233 501.9L233.8 502L234.6 498.1L235.4 497.2L236.1 496.1L236.9 493.9L237.7 491L238.4 486.3L239.2 481.7L240 479L240.8 480.4L241.5 479.2L242.3 475.8L243.1 473.8L243.8 474L244.6 477.7L245.4 477.1L246.2 479.5L246.9 480.9L247.7 478.6L248.5 473.9L249.2 473L250 475L250.8 474.5L251.6 473.5L252.3 471.7L253.1 468.5L253.9 466L254.6 463.9L255.4 461.4L256.2 458L257 453.6L257.7 450.3L258.5 449.6L259.3 448.5L260 447.6L260.8 449.2L261.6 454.4L262.3 453.3L263.1 455.4L263.9 457.2L264.7 454.9L265.4 451.7L266.2 455.1L267 449.4L267.7 448L268.5 442.4L269.3 436.7L270.1 432.3L270.8 437.6L271.6 444.6L272.4 445L273.1 450.6L273.9 452.4L274.7 452.9L275.5 447.6L276.2 450.9L277 451.6"></path></g></g><text x="343.5" y="418.96875" fill="#5b5b5b" font-size="14.625" style="font-weight:700">South Africa<title>South Africa</title></text><g id="South-Africa"><g id="horizontal-axis" class="HorizontalAxis"><g id="tick-marks"><line id="1750" x1="343.5" y1="532.78125" x2="343.5" y2="538.28125" stroke="#999" stroke-width="1"></line><line id="2023" x1="554" y1="532.78125" x2="554" y2="538.28125" stroke="#999" stroke-width="1"></line><line id="1850" x1="420.6" y1="532.78125" x2="420.6" y2="538.28125" stroke="#999" stroke-width="1"></line><line id="1900" x1="459.2" y1="532.78125" x2="459.2" y2="538.28125" stroke="#999" stroke-width="1"></line><line id="1950" x1="497.7" y1="532.78125" x2="497.7" y2="538.28125" stroke="#999" stroke-width="1"></line></g><g id="tick-labels"><text x="343.5" y="548.28125" fill="#5b5b5b" text-anchor="start" font-size="10">1750</text><text x="554" y="548.28125" fill="#5b5b5b" text-anchor="end" font-size="10">2023</text><text x="420.6" y="548.28125" fill="#5b5b5b" text-anchor="middle" font-size="10">1850</text><text x="459.2" y="548.28125" fill="#5b5b5b" text-anchor="middle" font-size="10">1900</text><text x="497.7" y="548.28125" fill="#5b5b5b" text-anchor="middle" font-size="10">1950</text></g></g><g id="vertical-axis" class="VerticalAxis"><g id="tick-labels"><text x="338.50" y="533.3" dy=".32em" text-anchor="end" fill="#5b5b5b" font-size="10">+0%</text><text x="338.50" y="505.9" dy=".32em" text-anchor="end" fill="#5b5b5b" font-size="10">+20,000%</text><text x="338.50" y="478.4" dy=".32em" text-anchor="end" fill="#5b5b5b" font-size="10">+40,000%</text><text x="338.50" y="451" dy=".32em" text-anchor="end" fill="#5b5b5b" font-size="10">+60,000%</text></g></g><g id="horizontal-grid-lines" class="AxisGridLines horizontalLines"><line id="+0%" x1="343.50" y1="533.3" x2="554.00" y2="533.3" stroke="#999"></line><line id="+20,000%" x1="343.50" y1="505.9" x2="554.00" y2="505.9" stroke="#ddd" stroke-dasharray="4,4"></line><line id="+40,000%" x1="343.50" y1="478.4" x2="554.00" y2="478.4" stroke="#ddd" stroke-dasharray="4,4"></line><line id="+60,000%" x1="343.50" y1="451" x2="554.00" y2="451" stroke="#ddd" stroke-dasharray="4,4"></line></g><g id="lines"><path fill="none" stroke-linecap="butt" stroke-linejoin="round" stroke="#ffffff" id="outline__Share-of-global-annual-CO₂-emissions" stroke-width="2.5" d="M446.8 533.3L447.6 533.2L448.4 533.1L449.1 533.1L449.9 533L450.7 532.7L451.4 532L452.2 532.1L453 531.2L453.8 525.1L454.5 522.6L455.3 519.4L456.1 516.1L456.8 514.8L457.6 511.1L458.4 514.8L459.2 525.9L459.9 521.3L460.7 515.7L461.5 511.8L462.2 509.3L463 507.5L463.8 505L464.6 506L465.3 504L466.1 500.9L466.9 498.3L467.6 500.1L468.4 499.8L469.2 499.4L470 497.1L470.7 496.3L471.5 492.9L472.3 492L473 493.4L473.8 485.4L474.6 487.7L475.4 481.9L476.1 491.3L476.9 488.3L477.7 486.2L478.4 484.7L479.2 481.3L480 487L480.7 486.7L481.5 488.2L482.3 487.7L483.1 487.9L483.8 487.2L484.6 486L485.4 483.7L486.1 480.6L486.9 480.7L487.7 481.9L488.5 475.8L489.2 476.9L490 479.9L490.8 477.6L491.5 472.2L492.3 472.9L493.1 466.9L493.9 451.4L494.6 456.8L495.4 465.4L496.2 467.4L496.9 460.1L497.7 468.6L498.5 469.1L499.3 464.4L500 466.2L500.8 464.9L501.6 463.3L502.3 464.1L503.1 464.5L503.9 461.4L504.7 466.2L505.4 467.8L506.2 465.1L507 465.2L507.7 466.1L508.5 463.9L509.3 462.1L510 465.4L510.8 464.6L511.6 466.1L512.4 467.9L513.1 470.2L513.9 465L514.7 466.8L515.4 469.5L516.2 468.1L517 465.1L517.8 465.9L518.5 465.4L519.3 466.8L520.1 463.2L520.8 459.7L521.6 448.3L522.4 439.8L523.2 436.6L523.9 432.3L524.7 433L525.5 432.5L526.2 436L527 435.7L527.8 437.6L528.6 446.7L529.3 444.9L530.1 449.2L530.9 444.8L531.6 440.7L532.4 436.6L533.2 439L534 434L534.7 435.7L535.5 438.4L536.3 440L537 442.4L537.8 448L538.6 441.4L539.3 434.6L540.1 444.9L540.9 441.6L541.7 440.6L542.4 436.3L543.2 438.7L544 446L544.7 448.4L545.5 450.9L546.3 451.6L547.1 449.6L547.8 454L548.6 452.2L549.4 456.4L550.1 458.9L550.9 454.7L551.7 455.6L552.5 460.9L553.2 465L554 466.5"></path><path fill="none" stroke-linecap="butt" stroke-linejoin="round" stroke="#4c6a9c" id="line__Share-of-global-annual-CO₂-emissions" stroke-width="1.5" stroke-opacity="1" d="M446.8 533.3L447.6 533.2L448.4 533.1L449.1 533.1L449.9 533L450.7 532.7L451.4 532L452.2 532.1L453 531.2L453.8 525.1L454.5 522.6L455.3 519.4L456.1 516.1L456.8 514.8L457.6 511.1L458.4 514.8L459.2 525.9L459.9 521.3L460.7 515.7L461.5 511.8L462.2 509.3L463 507.5L463.8 505L464.6 506L465.3 504L466.1 500.9L466.9 498.3L467.6 500.1L468.4 499.8L469.2 499.4L470 497.1L470.7 496.3L471.5 492.9L472.3 492L473 493.4L473.8 485.4L474.6 487.7L475.4 481.9L476.1 491.3L476.9 488.3L477.7 486.2L478.4 484.7L479.2 481.3L480 487L480.7 486.7L481.5 488.2L482.3 487.7L483.1 487.9L483.8 487.2L484.6 486L485.4 483.7L486.1 480.6L486.9 480.7L487.7 481.9L488.5 475.8L489.2 476.9L490 479.9L490.8 477.6L491.5 472.2L492.3 472.9L493.1 466.9L493.9 451.4L494.6 456.8L495.4 465.4L496.2 467.4L496.9 460.1L497.7 468.6L498.5 469.1L499.3 464.4L500 466.2L500.8 464.9L501.6 463.3L502.3 464.1L503.1 464.5L503.9 461.4L504.7 466.2L505.4 467.8L506.2 465.1L507 465.2L507.7 466.1L508.5 463.9L509.3 462.1L510 465.4L510.8 464.6L511.6 466.1L512.4 467.9L513.1 470.2L513.9 465L514.7 466.8L515.4 469.5L516.2 468.1L517 465.1L517.8 465.9L518.5 465.4L519.3 466.8L520.1 463.2L520.8 459.7L521.6 448.3L522.4 439.8L523.2 436.6L523.9 432.3L524.7 433L525.5 432.5L526.2 436L527 435.7L527.8 437.6L528.6 446.7L529.3 444.9L530.1 449.2L530.9 444.8L531.6 440.7L532.4 436.6L533.2 439L534 434L534.7 435.7L535.5 438.4L536.3 440L537 442.4L537.8 448L538.6 441.4L539.3 434.6L540.1 444.9L540.9 441.6L541.7 440.6L542.4 436.3L543.2 438.7L544 446L544.7 448.4L545.5 450.9L546.3 451.6L547.1 449.6L547.8 454L548.6 452.2L549.4 456.4L550.1 458.9L550.9 454.7L551.7 455.6L552.5 460.9L553.2 465L554 466.5"></path></g></g></g><g id="footer" class="SourcesFooter" style="fill:#858585"><g id="sources" class="markdown-text-wrap"><text x="16.0" y="581.0" style="font-size:13px;line-height:1.2"><tspan x="16" y="581.0"><tspan style="font-weight:700">Data source:</tspan> Global Carbon Budget (2024)</tspan></text></g><text id="origin-url" font-size="13.00" x="456.1" y="581.0"><tspan x="456.09" y="581.01"><a target="_blank" style="fill: #858585;" href="https://ourworldindata.org/co2-and-greenhouse-gas-emissions">OurWorldinData.org/co2-and-greenhouse-gas-emissions</a> | <a target="_blank" style="fill: #858585;" href="https://creativecommons.org/licenses/by/4.0/">CC BY</a></tspan></text></g></svg>