<svg xmlns="http://www.w3.org/2000/svg" version="1.1" style="font-family:Lato, &#x27;Helvetica Neue&#x27;, Helvetica, Arial, &#x27;Liberation Sans&#x27;, sans-serif;font-size:16px;background-color:#ffffff;text-rendering:geometricPrecision;-webkit-font-smoothing:antialiased" width="850" height="600" viewBox="0 0 850 600"><defs><style>@import url(https://ourworldindata.org/fonts.css)</style></defs><defs><pattern id="noDataPattern" patternUnits="userSpaceOnUse" width="4" height="4" patternTransform="rotate(-45 2 2)"><path d="M -1,2 l 6,0" stroke="#ccc" stroke-width="0.7"></path></pattern></defs><rect class="background-fill" fill="#ffffff" width="850" height="600"></rect><g id="header" class="HeaderView"><g id="logo" transform="translate(769, 16) scale(1)"><svg className="owidLogo" xmlns="http://www.w3.org/2000/svg" width="65" height="36" viewBox="0 0 65 36"  fill="none"><path fill="#002147" d="M0 0h64.8v36H0z"/><path fill="#CE261E" d="M0 33.3h64.8V36H0z"/><path fill="#fff" d="M13.796 10.575c0 .636-.106 1.226-.318 1.77a4.193 4.193 0 0 1-.894 1.404 4.084 4.084 0 0 1-1.386.93c-.54.22-1.138.33-1.794.33-.656 0-1.256-.11-1.8-.33a4.149 4.149 0 0 1-1.392-.93 4.193 4.193 0 0 1-.894-1.404A4.833 4.833 0 0 1 5 10.575c0-.636.106-1.224.318-1.764a4.18 4.18 0 0 1 .894-1.41 4.076 4.076 0 0 1 1.392-.924 4.684 4.684 0 0 1 1.8-.336c.656 0 1.254.112 1.794.336.54.224 1.002.534 1.386.93.384.392.682.86.894 1.404.212.54.318 1.128.318 1.764Zm-1.656 0c0-.476-.064-.902-.192-1.278a2.671 2.671 0 0 0-.54-.966 2.332 2.332 0 0 0-.864-.606 2.94 2.94 0 0 0-1.14-.21c-.424 0-.806.07-1.146.21-.34.14-.63.342-.87.606a2.742 2.742 0 0 0-.546.966 3.955 3.955 0 0 0-.192 1.278c0 .476.064.904.192 1.284.128.376.31.696.546.96.24.26.53.46.87.6.34.14.722.21 1.146.21.424 0 .804-.07 1.14-.21.34-.14.628-.34.864-.6.236-.264.416-.584.54-.96a4.01 4.01 0 0 0 .192-1.284ZM16.104 8.757v3.912c0 .376.086.668.258.876.176.204.438.306.786.306.256 0 .496-.056.72-.168a2.58 2.58 0 0 0 .636-.474V8.757h1.482v6.156h-.906c-.192 0-.318-.09-.378-.27l-.102-.492a4.65 4.65 0 0 1-.396.354 2.577 2.577 0 0 1-.438.27 2.35 2.35 0 0 1-.498.168 2.345 2.345 0 0 1-.57.066c-.336 0-.634-.056-.894-.168a1.821 1.821 0 0 1-.648-.486 2.157 2.157 0 0 1-.402-.738 3.233 3.233 0 0 1-.132-.948V8.757h1.482ZM21.328 14.913V8.757h.87c.152 0 .258.028.318.084.06.056.1.152.12.288l.09.744c.22-.38.478-.68.774-.9.296-.22.628-.33.996-.33.304 0 .556.07.756.21l-.192 1.11c-.012.072-.038.124-.078.156a.278.278 0 0 1-.162.042 1.01 1.01 0 0 1-.246-.042 1.646 1.646 0 0 0-.414-.042c-.308 0-.572.086-.792.258-.22.168-.406.416-.558.744v3.834h-1.482ZM27.347 6.237h1.356a.57.57 0 0 1 .348.102c.096.064.16.152.192.264l1.476 5.19c.036.128.068.268.096.42.032.148.062.306.09.474a5.968 5.968 0 0 1 .228-.894l1.704-5.19a.575.575 0 0 1 .186-.252.543.543 0 0 1 .348-.114h.474a.57.57 0 0 1 .348.102.497.497 0 0 1 .192.264l1.692 5.19c.088.256.164.54.228.852.028-.156.056-.306.084-.45.032-.144.064-.278.096-.402l1.476-5.19c.028-.1.09-.186.186-.258a.563.563 0 0 1 .348-.108h1.266l-2.694 8.676h-1.458l-1.896-5.928-.078-.246a9.504 9.504 0 0 1-.072-.282c-.024.1-.05.194-.078.282-.024.088-.048.17-.072.246l-1.914 5.928H30.04l-2.694-8.676ZM42.771 8.661c.46 0 .876.074 1.248.222.376.148.696.358.96.63s.468.604.612.996c.144.392.216.83.216 1.314 0 .488-.072.928-.216 1.32a2.85 2.85 0 0 1-.612 1.002 2.653 2.653 0 0 1-.96.636 3.35 3.35 0 0 1-1.248.222c-.46 0-.878-.074-1.254-.222a2.712 2.712 0 0 1-.966-.636 2.922 2.922 0 0 1-.618-1.002 3.807 3.807 0 0 1-.216-1.32c0-.484.072-.922.216-1.314.148-.392.354-.724.618-.996.268-.272.59-.482.966-.63a3.397 3.397 0 0 1 1.254-.222Zm0 5.202c.512 0 .89-.172 1.134-.516.248-.344.372-.848.372-1.512s-.124-1.17-.372-1.518c-.244-.348-.622-.522-1.134-.522-.52 0-.904.176-1.152.528-.248.348-.372.852-.372 1.512s.124 1.164.372 1.512c.248.344.632.516 1.152.516ZM46.723 14.913V8.757h.87c.152 0 .258.028.318.084.06.056.1.152.12.288l.09.744c.22-.38.478-.68.774-.9.296-.22.628-.33.996-.33.304 0 .556.07.756.21l-.192 1.11c-.012.072-.038.124-.078.156a.278.278 0 0 1-.162.042 1.01 1.01 0 0 1-.246-.042 1.646 1.646 0 0 0-.414-.042c-.308 0-.572.086-.792.258-.22.168-.406.416-.558.744v3.834h-1.482ZM52.96 5.997v8.916h-1.482V5.997h1.482ZM58.732 14.913c-.192 0-.318-.09-.378-.27l-.12-.594a3.68 3.68 0 0 1-.402.39c-.14.116-.292.216-.456.3-.16.084-.334.148-.522.192a2.372 2.372 0 0 1-.6.072c-.336 0-.644-.07-.924-.21a2.098 2.098 0 0 1-.726-.606 3.033 3.033 0 0 1-.468-.99 5.072 5.072 0 0 1-.162-1.344c0-.456.062-.88.186-1.272s.302-.732.534-1.02c.232-.288.51-.512.834-.672a2.384 2.384 0 0 1 1.092-.246 2.103 2.103 0 0 1 1.536.606V5.997h1.482v8.916h-.906Zm-1.974-1.086c.308 0 .57-.064.786-.192.216-.128.42-.31.612-.546v-2.76a1.452 1.452 0 0 0-.552-.432 1.597 1.597 0 0 0-.636-.126c-.224 0-.428.042-.612.126a1.21 1.21 0 0 0-.462.384c-.124.168-.22.384-.288.648-.068.26-.102.568-.102.924 0 .36.028.666.084.918.06.248.144.452.252.612.108.156.24.27.396.342.156.068.33.102.522.102ZM16.331 20.757v6.156H14.85v-6.156h1.481Zm.223-1.794a.844.844 0 0 1-.078.36.963.963 0 0 1-.21.294.995.995 0 0 1-.3.204.963.963 0 0 1-.372.072.948.948 0 0 1-.367-.072 1.018 1.018 0 0 1-.498-.498.963.963 0 0 1 0-.732.995.995 0 0 1 .205-.3.929.929 0 0 1 .293-.198.899.899 0 0 1 .738 0 .912.912 0 0 1 .3.198.943.943 0 0 1 .288.672ZM17.771 26.913v-6.156h.906c.192 0 .318.09.378.27l.102.486a2.934 2.934 0 0 1 .828-.618c.156-.076.322-.134.498-.174.176-.04.368-.06.576-.06.336 0 .634.058.894.174.26.112.476.272.648.48.176.204.308.45.396.738.092.284.138.598.138.942v3.918h-1.482v-3.918c0-.376-.088-.666-.264-.87-.172-.208-.432-.312-.78-.312-.256 0-.496.058-.72.174a2.58 2.58 0 0 0-.636.474v4.452h-1.482ZM34.22 22.575c0 .636-.106 1.22-.318 1.752-.212.532-.51.99-.894 1.374a4 4 0 0 1-1.386.894 4.87 4.87 0 0 1-1.794.318h-3.312v-8.676h3.312a4.79 4.79 0 0 1 1.794.324 4 4 0 0 1 1.386.894c.384.38.682.836.894 1.368.212.532.318 1.116.318 1.752Zm-1.65 0c0-.476-.064-.902-.192-1.278a2.68 2.68 0 0 0-.546-.96 2.332 2.332 0 0 0-.864-.606 2.94 2.94 0 0 0-1.14-.21h-1.686v6.108h1.686c.424 0 .804-.07 1.14-.21.34-.14.628-.34.864-.6a2.75 2.75 0 0 0 .546-.96 4.01 4.01 0 0 0 .192-1.284ZM39.98 26.913h-.665c-.14 0-.25-.02-.33-.06-.08-.044-.14-.13-.18-.258l-.132-.438c-.156.14-.31.264-.462.372a2.804 2.804 0 0 1-.462.264c-.16.072-.33.126-.51.162-.18.036-.38.054-.6.054-.26 0-.5-.034-.72-.102a1.618 1.618 0 0 1-.57-.318 1.448 1.448 0 0 1-.366-.522 1.852 1.852 0 0 1-.132-.726c0-.232.06-.46.18-.684.124-.228.328-.432.612-.612.284-.184.662-.336 1.134-.456.472-.12 1.058-.188 1.758-.204v-.36c0-.412-.088-.716-.264-.912-.172-.2-.424-.3-.756-.3a1.837 1.837 0 0 0-1.02.276c-.116.068-.224.13-.324.186a.664.664 0 0 1-.33.084.429.429 0 0 1-.258-.078.614.614 0 0 1-.174-.192l-.27-.474c.708-.648 1.562-.972 2.562-.972.36 0 .68.06.96.18.284.116.524.28.72.492.196.208.344.458.444.75.104.292.156.612.156.96v3.888Zm-2.88-.924c.153 0 .293-.014.42-.042.129-.028.249-.07.36-.126.117-.056.227-.124.33-.204.109-.084.217-.182.325-.294v-1.038c-.432.02-.794.058-1.086.114-.288.052-.52.12-.696.204a.923.923 0 0 0-.378.294.664.664 0 0 0-.108.366c0 .26.076.446.228.558.156.112.358.168.606.168ZM43.22 27.01c-.532 0-.942-.15-1.23-.45-.288-.305-.432-.723-.432-1.255v-3.438h-.624a.31.31 0 0 1-.21-.078c-.056-.052-.084-.13-.084-.234v-.588l.99-.162.312-1.68a.302.302 0 0 1 .108-.186.365.365 0 0 1 .222-.066h.768v1.938h1.62v1.056h-1.62v3.336c0 .192.048.342.144.45a.488.488 0 0 0 .384.162c.092 0 .168-.01.228-.03.064-.024.118-.048.162-.072.048-.024.09-.046.126-.066a.194.194 0 0 1 .108-.036.16.16 0 0 1 .108.036c.028.02.058.052.09.096l.444.72c-.216.18-.464.316-.744.408a2.77 2.77 0 0 1-.87.138ZM50.423 26.913h-.666c-.14 0-.25-.02-.33-.06-.08-.044-.14-.13-.18-.258l-.132-.438c-.156.14-.31.264-.462.372a2.804 2.804 0 0 1-.462.264c-.16.072-.33.126-.51.162-.18.036-.38.054-.6.054-.26 0-.5-.034-.72-.102a1.618 1.618 0 0 1-.57-.318 1.448 1.448 0 0 1-.366-.522 1.852 1.852 0 0 1-.132-.726c0-.232.06-.46.18-.684.124-.228.328-.432.612-.612.284-.184.662-.336 1.134-.456.472-.12 1.058-.188 1.758-.204v-.36c0-.412-.088-.716-.264-.912-.172-.2-.424-.3-.756-.3a1.837 1.837 0 0 0-1.02.276c-.116.068-.224.13-.324.186a.664.664 0 0 1-.33.084.429.429 0 0 1-.258-.078.614.614 0 0 1-.174-.192l-.27-.474c.708-.648 1.562-.972 2.562-.972.36 0 .68.06.96.18.284.116.524.28.72.492.196.208.344.458.444.75.104.292.156.612.156.96v3.888Zm-2.88-.924c.152 0 .292-.014.42-.042.128-.028.248-.07.36-.126.116-.056.226-.124.33-.204.108-.084.216-.182.324-.294v-1.038c-.432.02-.794.058-1.086.114-.288.052-.52.12-.696.204a.923.923 0 0 0-.378.294.664.664 0 0 0-.108.366c0 .26.076.446.228.558.156.112.358.168.606.168Z"/></svg></g><a id="title" href="https://ourworldindata.org/grapher/annual-share-of-co2-emissions?stackMode=relative&amp;facet=entity&amp;uniformYAxis=0" style="font-family:&#x27;Playfair Display&#x27;, Georgia, &#x27;Times New Roman&#x27;, &#x27;Liberation Serif&#x27;, serif" target="_blank" rel="noopener"><text font-size="25.00" font-weight="600" x="16.0" y="40.3" fill="#4e4e4e"><tspan x="16" y="40.25">Share of global CO₂ emissions</tspan></text></a><g id="subtitle" class="markdown-text-wrap"><text x="16.0" y="66.5" style="font-size:15px;line-height:1.2" fill="#858585"><tspan x="16" y="66.5">Carbon dioxide (CO₂) emissions from <tspan class="dod-span" data-id="fossilemissions">fossil fuels and industry</tspan>. Land-use change is not included.</tspan></text></g></g><g id="chart-area" style="pointer-events:none"><text x="65.36250000000001" y="95.75" fill="#5b5b5b" font-size="13" style="font-weight:700">China<title>China</title></text><g class="LineChart"><defs><clipPath id="boundsClip-1"><rect x="55.36250000000001" y="92.25" width="284" height="148"></rect></clipPath></defs><rect x="16" y="102.25" width="264" height="128" fill-opacity="0"></rect><g id="horizontal-axis" class="HorizontalAxis"><g id="tick-marks"><line id="1750" x1="65.4" y1="213" x2="65.4" y2="218.5" stroke="#999" stroke-width="1"></line><line id="2023" x1="279" y1="213" x2="279" y2="218.5" stroke="#999" stroke-width="1"></line><line id="1800" x1="104.5" y1="213" x2="104.5" y2="218.5" stroke="#999" stroke-width="1"></line><line id="1850" x1="143.6" y1="213" x2="143.6" y2="218.5" stroke="#999" stroke-width="1"></line><line id="1900" x1="182.7" y1="213" x2="182.7" y2="218.5" stroke="#999" stroke-width="1"></line><line id="1950" x1="221.9" y1="213" x2="221.9" y2="218.5" stroke="#999" stroke-width="1"></line></g><g id="tick-labels"><text x="65.36250000000001" y="228.25" fill="#5b5b5b" text-anchor="start" font-size="9.75">1750</text><text x="279" y="228.25" fill="#5b5b5b" text-anchor="end" font-size="9.75">2023</text><text x="104.5" y="228.25" fill="#5b5b5b" text-anchor="middle" font-size="9.75">1800</text><text x="143.6" y="228.25" fill="#5b5b5b" text-anchor="middle" font-size="9.75">1850</text><text x="182.7" y="228.25" fill="#5b5b5b" text-anchor="middle" font-size="9.75">1900</text><text x="221.9" y="228.25" fill="#5b5b5b" text-anchor="middle" font-size="9.75">1950</text></g></g><g id="vertical-axis" class="VerticalAxis"><g id="tick-labels"><text x="60.36" y="213" dy=".32em" text-anchor="end" fill="#5b5b5b" font-size="9.75">+0%</text><text x="60.36" y="189.6" dy=".32em" text-anchor="end" fill="#5b5b5b" font-size="9.75">+1,000%</text><text x="60.36" y="166.3" dy=".32em" text-anchor="end" fill="#5b5b5b" font-size="9.75">+2,000%</text><text x="60.36" y="143" dy=".32em" text-anchor="end" fill="#5b5b5b" font-size="9.75">+3,000%</text><text x="60.36" y="119.7" dy=".32em" text-anchor="end" fill="#5b5b5b" font-size="9.75">+4,000%</text></g></g><g id="horizontal-grid-lines" class="AxisGridLines horizontalLines"><line id="+0%" x1="65.36" y1="213" x2="279.00" y2="213" stroke="#999" stroke-width="1"></line><line id="+1,000%" x1="65.36" y1="189.6" x2="279.00" y2="189.6" stroke="#ddd" stroke-width="1" stroke-dasharray="2,1"></line><line id="+2,000%" x1="65.36" y1="166.3" x2="279.00" y2="166.3" stroke="#ddd" stroke-width="1" stroke-dasharray="2,1"></line><line id="+3,000%" x1="65.36" y1="143" x2="279.00" y2="143" stroke="#ddd" stroke-width="1" stroke-dasharray="2,1"></line><line id="+4,000%" x1="65.36" y1="119.7" x2="279.00" y2="119.7" stroke="#ddd" stroke-width="1" stroke-dasharray="2,1"></line></g><g clip-path="url(#boundsClip-1)"><g class="Lines"><rect x="65" y="108" width="214" height="105" fill="rgba(255,255,255,0)" opacity="0"></rect><path fill="none" stroke-linecap="butt" stroke-linejoin="round" stroke="#ffffff" id="outline__Share-of-global-annual-CO₂-emissions" stroke-width="2.5" d="M188.2 213L189 212.5L189.8 212.4L190.6 212.5L191.4 212.6L192.1 213.5L192.9 212.9L193.7 212.4L194.5 212.5L195.3 212.3L196 212.2L196.8 211.9L197.6 211L198.4 211.4L199.2 211L200 211.1L200.7 211L201.5 210.8L202.3 211.1L203.1 211.2L203.9 211.4L204.7 211.2L205.4 211.5L206.2 211L207 210.3L207.8 209.9L208.6 209.8L209.4 209.5L210.1 208.8L210.9 209.2L211.7 209.9L212.5 210.4L213.3 209.6L214 209L214.8 207.5L215.6 206.6L216.4 208L217.2 208.5L218 210.9L218.7 212.6L219.5 212.5L220.3 212.9L221.1 211.2L221.9 210.8L222.7 209.8L223.4 208.6L224.2 208.4L225 207.2L225.8 206.6L226.6 206L227.4 204.7L228.1 194.1L228.9 187.6L229.7 186.4L230.5 194.7L231.3 199.3L232 200.2L232.8 200.8L233.6 200.3L234.4 199.5L235.2 202.5L236 202.2L236.7 200.3L237.5 196.9L238.3 195.4L239.1 195L239.9 195.2L240.7 194.7L241.4 191.7L242.2 192.1L243 190.7L243.8 188.7L244.6 188.8L245.4 189.2L246.1 188.9L246.9 186.4L247.7 185L248.5 183.4L249.3 181.9L250 180.6L250.8 179.2L251.6 178L252.4 177.9L253.2 178.1L254 177.1L254.7 174.1L255.5 171.7L256.3 169.4L257.1 166.7L257.9 166.1L258.7 166.3L259.4 168.2L260.2 166.6L261 166.7L261.8 166L262.6 162.2L263.3 155.8L264.1 153.4L264.9 147.8L265.7 143.2L266.5 140L267.3 135.8L268 130.3L268.8 127.5L269.6 121.4L270.4 120.3L271.2 119.4L272 119.5L272.7 120.6L273.5 121.6L274.3 120.8L275.1 119.7L275.9 117.2L276.7 109.8L277.4 110.1L278.2 111.9L279 108.3"></path><path fill="none" stroke-linecap="butt" stroke-linejoin="round" stroke="#4C6A9C" id="line__Share-of-global-annual-CO₂-emissions" stroke-width="1.5" stroke-opacity="1" d="M188.2 213L189 212.5L189.8 212.4L190.6 212.5L191.4 212.6L192.1 213.5L192.9 212.9L193.7 212.4L194.5 212.5L195.3 212.3L196 212.2L196.8 211.9L197.6 211L198.4 211.4L199.2 211L200 211.1L200.7 211L201.5 210.8L202.3 211.1L203.1 211.2L203.9 211.4L204.7 211.2L205.4 211.5L206.2 211L207 210.3L207.8 209.9L208.6 209.8L209.4 209.5L210.1 208.8L210.9 209.2L211.7 209.9L212.5 210.4L213.3 209.6L214 209L214.8 207.5L215.6 206.6L216.4 208L217.2 208.5L218 210.9L218.7 212.6L219.5 212.5L220.3 212.9L221.1 211.2L221.9 210.8L222.7 209.8L223.4 208.6L224.2 208.4L225 207.2L225.8 206.6L226.6 206L227.4 204.7L228.1 194.1L228.9 187.6L229.7 186.4L230.5 194.7L231.3 199.3L232 200.2L232.8 200.8L233.6 200.3L234.4 199.5L235.2 202.5L236 202.2L236.7 200.3L237.5 196.9L238.3 195.4L239.1 195L239.9 195.2L240.7 194.7L241.4 191.7L242.2 192.1L243 190.7L243.8 188.7L244.6 188.8L245.4 189.2L246.1 188.9L246.9 186.4L247.7 185L248.5 183.4L249.3 181.9L250 180.6L250.8 179.2L251.6 178L252.4 177.9L253.2 178.1L254 177.1L254.7 174.1L255.5 171.7L256.3 169.4L257.1 166.7L257.9 166.1L258.7 166.3L259.4 168.2L260.2 166.6L261 166.7L261.8 166L262.6 162.2L263.3 155.8L264.1 153.4L264.9 147.8L265.7 143.2L266.5 140L267.3 135.8L268 130.3L268.8 127.5L269.6 121.4L270.4 120.3L271.2 119.4L272 119.5L272.7 120.6L273.5 121.6L274.3 120.8L275.1 119.7L275.9 117.2L276.7 109.8L277.4 110.1L278.2 111.9L279 108.3"></path></g></g></g><text x="342.3625" y="95.75" fill="#5b5b5b" font-size="13" style="font-weight:700">India<title>India</title></text><g class="LineChart"><defs><clipPath id="boundsClip-2"><rect x="332.3625" y="92.25" width="284" height="148"></rect></clipPath></defs><rect x="293" y="102.25" width="264" height="128" fill-opacity="0"></rect><g id="horizontal-axis" class="HorizontalAxis"><g id="tick-marks"><line id="1750" x1="342.4" y1="213" x2="342.4" y2="218.5" stroke="#999" stroke-width="1"></line><line id="2023" x1="556" y1="213" x2="556" y2="218.5" stroke="#999" stroke-width="1"></line><line id="1800" x1="381.5" y1="213" x2="381.5" y2="218.5" stroke="#999" stroke-width="1"></line><line id="1850" x1="420.6" y1="213" x2="420.6" y2="218.5" stroke="#999" stroke-width="1"></line><line id="1900" x1="459.7" y1="213" x2="459.7" y2="218.5" stroke="#999" stroke-width="1"></line><line id="1950" x1="498.9" y1="213" x2="498.9" y2="218.5" stroke="#999" stroke-width="1"></line></g><g id="tick-labels"><text x="342.3625" y="228.25" fill="#5b5b5b" text-anchor="start" font-size="9.75">1750</text><text x="556" y="228.25" fill="#5b5b5b" text-anchor="end" font-size="9.75">2023</text><text x="381.5" y="228.25" fill="#5b5b5b" text-anchor="middle" font-size="9.75">1800</text><text x="420.6" y="228.25" fill="#5b5b5b" text-anchor="middle" font-size="9.75">1850</text><text x="459.7" y="228.25" fill="#5b5b5b" text-anchor="middle" font-size="9.75">1900</text><text x="498.9" y="228.25" fill="#5b5b5b" text-anchor="middle" font-size="9.75">1950</text></g></g><g id="vertical-axis" class="VerticalAxis"><g id="tick-labels"><text x="337.36" y="213.4" dy=".32em" text-anchor="end" fill="#5b5b5b" font-size="9.75">+0%</text><text x="337.36" y="176.9" dy=".32em" text-anchor="end" fill="#5b5b5b" font-size="9.75">+2,000%</text><text x="337.36" y="140.4" dy=".32em" text-anchor="end" fill="#5b5b5b" font-size="9.75">+4,000%</text></g></g><g id="horizontal-grid-lines" class="AxisGridLines horizontalLines"><line id="+0%" x1="342.36" y1="213.4" x2="556.00" y2="213.4" stroke="#999" stroke-width="1"></line><line id="+2,000%" x1="342.36" y1="176.9" x2="556.00" y2="176.9" stroke="#ddd" stroke-width="1" stroke-dasharray="2,1"></line><line id="+4,000%" x1="342.36" y1="140.4" x2="556.00" y2="140.4" stroke="#ddd" stroke-width="1" stroke-dasharray="2,1"></line></g><g clip-path="url(#boundsClip-2)"><g class="Lines"><rect x="342" y="108" width="214" height="105" fill="rgba(255,255,255,0)" opacity="0"></rect><path fill="none" stroke-linecap="butt" stroke-linejoin="round" stroke="#ffffff" id="outline__Share-of-global-annual-CO₂-emissions" stroke-width="2.5" d="M426.9 213.4L427.7 212.4L428.4 212.7L429.2 213.3L430 213.2L430.8 213.1L431.6 213.4L432.4 213.5L433.1 213.3L442.5 211.9L443.3 212.3L444.1 212.3L444.9 212.5L445.7 212.1L446.4 212L447.2 211.7L448 212L448.8 211.7L449.6 211.5L450.4 211.5L451.1 210.8L451.9 210.7L452.7 210.6L453.5 210.2L454.3 209.9L455.1 210L455.8 209L456.6 208.7L457.4 208.5L458.2 208.2L459 208.1L459.7 207.2L460.5 206.6L461.3 206L462.1 206.6L462.9 205.7L463.7 206L464.4 205.1L465.2 205.3L466 203.4L466.8 204.2L467.6 205L468.4 204.6L469.1 203.6L469.9 203.4L470.7 202.1L471.5 201.3L472.3 202.2L473 202.2L473.8 200.4L474.6 196.5L475.4 202.2L476.2 199.3L477 200.3L477.7 201.6L478.5 200.7L479.3 201.1L480.1 200.9L480.9 201.4L481.7 202L482.4 202.4L483.2 201.1L484 200.7L484.8 200.3L485.6 201.3L486.4 200.9L487.1 201L487.9 202.5L488.7 202L489.5 199.5L490.3 200.7L491 201.1L491.8 201.1L492.6 201L493.4 203.1L494.2 203L495 198.9L495.7 200.3L496.5 201.6L497.3 202.3L498.1 201L498.9 201.6L499.7 202L500.4 201.5L501.2 201.6L502 201.1L502.8 201.2L503.6 201.6L504.4 200.4L505.1 200.2L505.9 200.1L506.7 199.6L507.5 198.3L508.3 197.3L509 196.9L509.8 198.2L510.6 197.3L511.4 197.5L512.2 198L513 197.4L513.7 198.2L514.5 199.1L515.3 198.9L516.1 198.7L516.9 199.1L517.7 198.5L518.4 197.1L519.2 197.3L520 196.7L520.8 197L521.6 196.6L522.4 195.5L523.1 193.4L523.9 192.5L524.7 190.7L525.5 190.9L526.3 189.4L527 187.9L527.8 186.9L528.6 185.8L529.4 183.3L530.2 181.7L531 180.2L531.7 176.8L532.5 175.9L533.3 174.2L534.1 172.6L534.9 170.4L535.7 168.8L536.4 167.7L537.2 164.2L538 164.2L538.8 163.8L539.6 163.4L540.3 164.3L541.1 162.9L541.9 162L542.7 159.5L543.5 156.9L544.3 153.9L545 147.7L545.8 148.8L546.6 147.7L547.4 142.6L548.2 140.6L549 135.2L549.7 131.9L550.5 127.5L551.3 126.2L552.1 122L552.9 122.3L553.7 124.2L554.4 119.8L555.2 115L556 108.3"></path><path fill="none" stroke-linecap="butt" stroke-linejoin="round" stroke="#4C6A9C" id="line__Share-of-global-annual-CO₂-emissions" stroke-width="1.5" stroke-opacity="1" d="M426.9 213.4L427.7 212.4L428.4 212.7L429.2 213.3L430 213.2L430.8 213.1L431.6 213.4L432.4 213.5L433.1 213.3L442.5 211.9L443.3 212.3L444.1 212.3L444.9 212.5L445.7 212.1L446.4 212L447.2 211.7L448 212L448.8 211.7L449.6 211.5L450.4 211.5L451.1 210.8L451.9 210.7L452.7 210.6L453.5 210.2L454.3 209.9L455.1 210L455.8 209L456.6 208.7L457.4 208.5L458.2 208.2L459 208.1L459.7 207.2L460.5 206.6L461.3 206L462.1 206.6L462.9 205.7L463.7 206L464.4 205.1L465.2 205.3L466 203.4L466.8 204.2L467.6 205L468.4 204.6L469.1 203.6L469.9 203.4L470.7 202.1L471.5 201.3L472.3 202.2L473 202.2L473.8 200.4L474.6 196.5L475.4 202.2L476.2 199.3L477 200.3L477.7 201.6L478.5 200.7L479.3 201.1L480.1 200.9L480.9 201.4L481.7 202L482.4 202.4L483.2 201.1L484 200.7L484.8 200.3L485.6 201.3L486.4 200.9L487.1 201L487.9 202.5L488.7 202L489.5 199.5L490.3 200.7L491 201.1L491.8 201.1L492.6 201L493.4 203.1L494.2 203L495 198.9L495.7 200.3L496.5 201.6L497.3 202.3L498.1 201L498.9 201.6L499.7 202L500.4 201.5L501.2 201.6L502 201.1L502.8 201.2L503.6 201.6L504.4 200.4L505.1 200.2L505.9 200.1L506.7 199.6L507.5 198.3L508.3 197.3L509 196.9L509.8 198.2L510.6 197.3L511.4 197.5L512.2 198L513 197.4L513.7 198.2L514.5 199.1L515.3 198.9L516.1 198.7L516.9 199.1L517.7 198.5L518.4 197.1L519.2 197.3L520 196.7L520.8 197L521.6 196.6L522.4 195.5L523.1 193.4L523.9 192.5L524.7 190.7L525.5 190.9L526.3 189.4L527 187.9L527.8 186.9L528.6 185.8L529.4 183.3L530.2 181.7L531 180.2L531.7 176.8L532.5 175.9L533.3 174.2L534.1 172.6L534.9 170.4L535.7 168.8L536.4 167.7L537.2 164.2L538 164.2L538.8 163.8L539.6 163.4L540.3 164.3L541.1 162.9L541.9 162L542.7 159.5L543.5 156.9L544.3 153.9L545 147.7L545.8 148.8L546.6 147.7L547.4 142.6L548.2 140.6L549 135.2L549.7 131.9L550.5 127.5L551.3 126.2L552.1 122L552.9 122.3L553.7 124.2L554.4 119.8L555.2 115L556 108.3"></path></g></g></g><text x="619.3625" y="95.75" fill="#5b5b5b" font-size="13" style="font-weight:700">United Kingdom<title>United Kingdom</title></text><g class="LineChart"><defs><clipPath id="boundsClip-3"><rect x="609.3625" y="92.25" width="284" height="148"></rect></clipPath></defs><rect x="570" y="102.25" width="264" height="128" fill-opacity="0"></rect><g id="horizontal-axis" class="HorizontalAxis"><g id="tick-marks"><line id="1750" x1="619.4" y1="213" x2="619.4" y2="218.5" stroke="#999" stroke-width="1"></line><line id="2023" x1="833" y1="213" x2="833" y2="218.5" stroke="#999" stroke-width="1"></line><line id="1800" x1="658.5" y1="213" x2="658.5" y2="218.5" stroke="#999" stroke-width="1"></line><line id="1850" x1="697.6" y1="213" x2="697.6" y2="218.5" stroke="#999" stroke-width="1"></line><line id="1900" x1="736.7" y1="213" x2="736.7" y2="218.5" stroke="#999" stroke-width="1"></line><line id="1950" x1="775.9" y1="213" x2="775.9" y2="218.5" stroke="#999" stroke-width="1"></line></g><g id="tick-labels"><text x="619.3625" y="228.25" fill="#5b5b5b" text-anchor="start" font-size="9.75">1750</text><text x="833" y="228.25" fill="#5b5b5b" text-anchor="end" font-size="9.75">2023</text><text x="658.5" y="228.25" fill="#5b5b5b" text-anchor="middle" font-size="9.75">1800</text><text x="697.6" y="228.25" fill="#5b5b5b" text-anchor="middle" font-size="9.75">1850</text><text x="736.7" y="228.25" fill="#5b5b5b" text-anchor="middle" font-size="9.75">1900</text><text x="775.9" y="228.25" fill="#5b5b5b" text-anchor="middle" font-size="9.75">1950</text></g></g><g id="vertical-axis" class="VerticalAxis"><g id="tick-labels"><text x="614.36" y="193.1" dy=".32em" text-anchor="end" fill="#5b5b5b" font-size="9.75">-80%</text><text x="614.36" y="171.9" dy=".32em" text-anchor="end" fill="#5b5b5b" font-size="9.75">-60%</text><text x="614.36" y="150.7" dy=".32em" text-anchor="end" fill="#5b5b5b" font-size="9.75">-40%</text><text x="614.36" y="129.5" dy=".32em" text-anchor="end" fill="#5b5b5b" font-size="9.75">-20%</text><text x="614.36" y="108.3" dy=".32em" text-anchor="end" fill="#5b5b5b" font-size="9.75">+0%</text></g></g><g id="horizontal-grid-lines" class="AxisGridLines horizontalLines"><line id="-80%" x1="619.36" y1="193.1" x2="833.00" y2="193.1" stroke="#ddd" stroke-width="1" stroke-dasharray="2,1"></line><line id="-60%" x1="619.36" y1="171.9" x2="833.00" y2="171.9" stroke="#ddd" stroke-width="1" stroke-dasharray="2,1"></line><line id="-40%" x1="619.36" y1="150.7" x2="833.00" y2="150.7" stroke="#ddd" stroke-width="1" stroke-dasharray="2,1"></line><line id="-20%" x1="619.36" y1="129.5" x2="833.00" y2="129.5" stroke="#ddd" stroke-width="1" stroke-dasharray="2,1"></line><line id="+0%" x1="619.36" y1="108.3" x2="833.00" y2="108.3" stroke="#999" stroke-width="1"></line></g><g clip-path="url(#boundsClip-3)"><g class="Lines"><rect x="619" y="108" width="214" height="105" fill="rgba(255,255,255,0)" opacity="0"></rect><path fill="none" stroke-linecap="butt" stroke-linejoin="round" stroke="#ffffff" id="outline__Share-of-global-annual-CO₂-emissions" stroke-width="2.5" d="M619.4 108.3L620.1 108.3L620.9 108.3L621.7 108.3L622.5 108.3L623.3 108.3L624.1 108.3L624.8 108.3L625.6 108.3L626.4 108.3L627.2 108.3L628 108.3L628.8 108.3L629.5 108.3L630.3 108.3L631.1 108.3L631.9 108.3L632.7 108.3L633.4 108.3L634.2 108.3L635 108.3L635.8 108.3L636.6 108.3L637.4 108.3L638.1 108.3L638.9 108.3L639.7 108.3L640.5 108.3L641.3 108.3L642.1 108.3L642.8 108.3L643.6 108.3L644.4 108.3L645.2 108.3L646 108.3L646.8 108.3L647.5 108.3L648.3 108.3L649.1 108.3L649.9 108.3L650.7 108.3L651.4 108.3L652.2 110.5L653 110.6L653.8 110.4L654.6 110.4L655.4 110.8L656.1 110.9L656.9 110.9L657.7 110.7L658.5 113L659.3 112.4L660.1 134.4L660.8 112.9L661.6 121.5L662.4 114.9L663.2 114.1L664 118.9L664.8 113.6L665.5 113.5L666.3 119.2L667.1 118.9L667.9 118.8L668.7 118.2L669.4 118.4L670.2 119.4L671 122.8L671.8 124.4L672.6 124L673.4 124.1L674.1 125.3L674.9 125.7L675.7 125.8L676.5 126.5L677.3 125.7L678.1 127.8L678.8 127.7L679.6 130.3L680.4 130.6L681.2 129.2L682 133.6L682.7 132.2L683.5 133.5L684.3 135.4L685.1 135.7L685.9 135.7L686.7 136.4L687.4 139.2L688.2 140.6L689 141L689.8 142.2L690.6 143.7L691.4 144.5L692.1 143.4L692.9 144.1L693.7 146.1L694.5 150.1L695.3 151.1L696.1 147.8L696.8 147.1L697.6 148.4L698.4 152.2L699.2 155.1L700 158L700.7 156.5L701.5 161.3L702.3 160.9L703.1 162.4L703.9 164.3L704.7 161.9L705.4 160.7L706.2 161.2L707 163.8L707.8 164L708.6 164.1L709.4 164.2L710.1 164.3L710.9 166.4L711.7 168.6L712.5 169.1L713.3 169.1L714.1 169.3L714.8 171.5L715.6 172.5L716.4 170.9L717.2 172.1L718 172.7L718.7 172.8L719.5 173.8L720.3 176.3L721.1 177.6L721.9 177L722.7 178.7L723.4 179.5L724.2 180.8L725 181.5L725.8 182.3L726.6 183L727.4 184.9L728.1 183.9L728.9 185.7L729.7 186.4L730.5 187.2L731.3 189.7L732.1 187.1L732.8 188.4L733.6 188.5L734.4 189L735.2 190.3L736 190.7L736.7 191.7L737.5 192.8L738.3 192.5L739.1 194.2L739.9 194.3L740.7 195.3L741.4 195.5L742.2 197L743 196.8L743.8 197.3L744.6 198L745.4 197.8L746.1 199.5L746.9 199.3L747.7 198.3L748.5 197.8L749.3 198.5L750 199.4L750.8 200.2L751.6 198.4L752.4 199.9L753.2 203L754 200L754.7 201L755.5 200.4L756.3 201.3L757.1 206.8L757.9 201.6L758.7 202.3L759.4 202.5L760.2 202L761 201.4L761.8 200.6L762.6 201.3L763.4 201.4L764.1 201.9L764.9 202.3L765.7 202.8L766.5 202.5L767.3 203.1L768 203.5L768.8 203.7L769.6 203.9L770.4 204.1L771.2 204.3L772 203.1L772.7 203.7L773.5 204.4L774.3 204.6L775.1 204L775.9 205.4L776.7 205.3L777.4 205.7L778.2 205.7L779 205.7L779.8 206.1L780.6 206.7L781.4 207L782.1 207.3L782.9 207.8L783.7 207.8L784.5 207.7L785.3 207.9L786 208.1L786.8 208.4L787.6 208.5L788.4 208.8L789.2 209.2L790 209.4L790.7 209.5L791.5 209.7L792.3 209.8L793.1 210.1L793.9 210.3L794.7 210.5L795.4 210.6L796.2 210.8L797 210.9L797.8 211L798.6 210.9L799.4 211.2L800.1 211.2L800.9 211.3L801.7 211.3L802.5 211.5L803.3 211.4L804 211.4L804.8 211.5L805.6 211.6L806.4 211.6L807.2 211.5L808 211.6L808.7 211.6L809.5 211.7L810.3 211.7L811.1 211.8L811.9 211.8L812.7 211.9L813.4 211.9L814.2 212L815 212L815.8 212L816.6 212.1L817.3 212.2L818.1 212.2L818.9 212.3L819.7 212.4L820.5 212.5L821.3 212.6L822 212.7L822.8 212.7L823.6 212.9L824.4 212.9L825.2 212.9L826 213L826.7 213.1L827.5 213.2L828.3 213.2L829.1 213.3L829.9 213.3L830.7 213.4L831.4 213.4L832.2 213.5L833 213.5"></path><path fill="none" stroke-linecap="butt" stroke-linejoin="round" stroke="#4C6A9C" id="line__Share-of-global-annual-CO₂-emissions" stroke-width="1.5" stroke-opacity="1" d="M619.4 108.3L620.1 108.3L620.9 108.3L621.7 108.3L622.5 108.3L623.3 108.3L624.1 108.3L624.8 108.3L625.6 108.3L626.4 108.3L627.2 108.3L628 108.3L628.8 108.3L629.5 108.3L630.3 108.3L631.1 108.3L631.9 108.3L632.7 108.3L633.4 108.3L634.2 108.3L635 108.3L635.8 108.3L636.6 108.3L637.4 108.3L638.1 108.3L638.9 108.3L639.7 108.3L640.5 108.3L641.3 108.3L642.1 108.3L642.8 108.3L643.6 108.3L644.4 108.3L645.2 108.3L646 108.3L646.8 108.3L647.5 108.3L648.3 108.3L649.1 108.3L649.9 108.3L650.7 108.3L651.4 108.3L652.2 110.5L653 110.6L653.8 110.4L654.6 110.4L655.4 110.8L656.1 110.9L656.9 110.9L657.7 110.7L658.5 113L659.3 112.4L660.1 134.4L660.8 112.9L661.6 121.5L662.4 114.9L663.2 114.1L664 118.9L664.8 113.6L665.5 113.5L666.3 119.2L667.1 118.9L667.9 118.8L668.7 118.2L669.4 118.4L670.2 119.4L671 122.8L671.8 124.4L672.6 124L673.4 124.1L674.1 125.3L674.9 125.7L675.7 125.8L676.5 126.5L677.3 125.7L678.1 127.8L678.8 127.7L679.6 130.3L680.4 130.6L681.2 129.2L682 133.6L682.7 132.2L683.5 133.5L684.3 135.4L685.1 135.7L685.9 135.7L686.7 136.4L687.4 139.2L688.2 140.6L689 141L689.8 142.2L690.6 143.7L691.4 144.5L692.1 143.4L692.9 144.1L693.7 146.1L694.5 150.1L695.3 151.1L696.1 147.8L696.8 147.1L697.6 148.4L698.4 152.2L699.2 155.1L700 158L700.7 156.5L701.5 161.3L702.3 160.9L703.1 162.4L703.9 164.3L704.7 161.9L705.4 160.7L706.2 161.2L707 163.8L707.8 164L708.6 164.1L709.4 164.2L710.1 164.3L710.9 166.4L711.7 168.6L712.5 169.1L713.3 169.1L714.1 169.3L714.8 171.5L715.6 172.5L716.4 170.9L717.2 172.1L718 172.7L718.7 172.8L719.5 173.8L720.3 176.3L721.1 177.6L721.9 177L722.7 178.7L723.4 179.5L724.2 180.8L725 181.5L725.8 182.3L726.6 183L727.4 184.9L728.1 183.9L728.9 185.7L729.7 186.4L730.5 187.2L731.3 189.7L732.1 187.1L732.8 188.4L733.6 188.5L734.4 189L735.2 190.3L736 190.7L736.7 191.7L737.5 192.8L738.3 192.5L739.1 194.2L739.9 194.3L740.7 195.3L741.4 195.5L742.2 197L743 196.8L743.8 197.3L744.6 198L745.4 197.8L746.1 199.5L746.9 199.3L747.7 198.3L748.5 197.8L749.3 198.5L750 199.4L750.8 200.2L751.6 198.4L752.4 199.9L753.2 203L754 200L754.7 201L755.5 200.4L756.3 201.3L757.1 206.8L757.9 201.6L758.7 202.3L759.4 202.5L760.2 202L761 201.4L761.8 200.6L762.6 201.3L763.4 201.4L764.1 201.9L764.9 202.3L765.7 202.8L766.5 202.5L767.3 203.1L768 203.5L768.8 203.7L769.6 203.9L770.4 204.1L771.2 204.3L772 203.1L772.7 203.7L773.5 204.4L774.3 204.6L775.1 204L775.9 205.4L776.7 205.3L777.4 205.7L778.2 205.7L779 205.7L779.8 206.1L780.6 206.7L781.4 207L782.1 207.3L782.9 207.8L783.7 207.8L784.5 207.7L785.3 207.9L786 208.1L786.8 208.4L787.6 208.5L788.4 208.8L789.2 209.2L790 209.4L790.7 209.5L791.5 209.7L792.3 209.8L793.1 210.1L793.9 210.3L794.7 210.5L795.4 210.6L796.2 210.8L797 210.9L797.8 211L798.6 210.9L799.4 211.2L800.1 211.2L800.9 211.3L801.7 211.3L802.5 211.5L803.3 211.4L804 211.4L804.8 211.5L805.6 211.6L806.4 211.6L807.2 211.5L808 211.6L808.7 211.6L809.5 211.7L810.3 211.7L811.1 211.8L811.9 211.8L812.7 211.9L813.4 211.9L814.2 212L815 212L815.8 212L816.6 212.1L817.3 212.2L818.1 212.2L818.9 212.3L819.7 212.4L820.5 212.5L821.3 212.6L822 212.7L822.8 212.7L823.6 212.9L824.4 212.9L825.2 212.9L826 213L826.7 213.1L827.5 213.2L828.3 213.2L829.1 213.3L829.9 213.3L830.7 213.4L831.4 213.4L832.2 213.5L833 213.5"></path></g></g></g><text x="65.36250000000001" y="256.75" fill="#5b5b5b" font-size="13" style="font-weight:700">United States<title>United States</title></text><g class="LineChart"><defs><clipPath id="boundsClip-4"><rect x="55.36250000000001" y="253.25" width="284" height="148"></rect></clipPath></defs><rect x="16" y="263.25" width="264" height="128" fill-opacity="0"></rect><g id="horizontal-axis" class="HorizontalAxis"><g id="tick-marks"><line id="1750" x1="65.4" y1="374" x2="65.4" y2="379.5" stroke="#999" stroke-width="1"></line><line id="2023" x1="279" y1="374" x2="279" y2="379.5" stroke="#999" stroke-width="1"></line><line id="1800" x1="104.5" y1="374" x2="104.5" y2="379.5" stroke="#999" stroke-width="1"></line><line id="1850" x1="143.6" y1="374" x2="143.6" y2="379.5" stroke="#999" stroke-width="1"></line><line id="1900" x1="182.7" y1="374" x2="182.7" y2="379.5" stroke="#999" stroke-width="1"></line><line id="1950" x1="221.9" y1="374" x2="221.9" y2="379.5" stroke="#999" stroke-width="1"></line></g><g id="tick-labels"><text x="65.36250000000001" y="389.25" fill="#5b5b5b" text-anchor="start" font-size="9.75">1750</text><text x="279" y="389.25" fill="#5b5b5b" text-anchor="end" font-size="9.75">2023</text><text x="104.5" y="389.25" fill="#5b5b5b" text-anchor="middle" font-size="9.75">1800</text><text x="143.6" y="389.25" fill="#5b5b5b" text-anchor="middle" font-size="9.75">1850</text><text x="182.7" y="389.25" fill="#5b5b5b" text-anchor="middle" font-size="9.75">1900</text><text x="221.9" y="389.25" fill="#5b5b5b" text-anchor="middle" font-size="9.75">1950</text></g></g><g id="vertical-axis" class="VerticalAxis"><g id="tick-labels"><text x="60.36" y="374.4" dy=".32em" text-anchor="end" fill="#5b5b5b" font-size="9.75">+0%</text><text x="60.36" y="344.5" dy=".32em" text-anchor="end" fill="#5b5b5b" font-size="9.75">+2,000%</text><text x="60.36" y="314.6" dy=".32em" text-anchor="end" fill="#5b5b5b" font-size="9.75">+4,000%</text><text x="60.36" y="284.7" dy=".32em" text-anchor="end" fill="#5b5b5b" font-size="9.75">+6,000%</text></g></g><g id="horizontal-grid-lines" class="AxisGridLines horizontalLines"><line id="+0%" x1="65.36" y1="374.4" x2="279.00" y2="374.4" stroke="#999" stroke-width="1"></line><line id="+2,000%" x1="65.36" y1="344.5" x2="279.00" y2="344.5" stroke="#ddd" stroke-width="1" stroke-dasharray="2,1"></line><line id="+4,000%" x1="65.36" y1="314.6" x2="279.00" y2="314.6" stroke="#ddd" stroke-width="1" stroke-dasharray="2,1"></line><line id="+6,000%" x1="65.36" y1="284.7" x2="279.00" y2="284.7" stroke="#ddd" stroke-width="1" stroke-dasharray="2,1"></line></g><g clip-path="url(#boundsClip-4)"><g class="Lines"><rect x="65" y="269" width="214" height="105" fill="rgba(255,255,255,0)" opacity="0"></rect><path fill="none" stroke-linecap="butt" stroke-linejoin="round" stroke="#ffffff" id="outline__Share-of-global-annual-CO₂-emissions" stroke-width="2.5" d="M104.5 374.4L105.3 374.3L106.1 374.5L106.8 373.9L107.6 373.9L108.4 373.8L109.2 373.9L110 373.9L110.8 373.8L111.5 373.7L112.3 373.8L113.1 373.7L113.9 373.6L114.7 373.4L115.4 373.3L116.2 373.2L117 373.1L117.8 373.1L118.6 372.9L119.4 373L120.1 372.9L120.9 372.8L121.7 372.8L122.5 372.8L123.3 372.5L124.1 372.3L124.8 371.7L125.6 371.6L126.4 371.3L127.2 370.6L128 371.3L128.7 370.6L129.5 368.8L130.3 367.7L131.1 368.5L131.9 367.3L132.7 367.3L133.4 366.2L134.2 366.7L135 366.1L135.8 366.3L136.6 366L137.4 365.5L138.1 364.5L138.9 363.2L139.7 361.9L140.5 360.3L141.3 358.8L142.1 357.2L142.8 356.8L143.6 356.4L144.4 351.9L145.2 350.9L146 349L146.7 350.7L147.5 347.5L148.3 348L149.1 347.6L149.9 347.6L150.7 346.9L151.4 348.2L152.2 350.5L153 350.1L153.8 347.9L154.6 348.1L155.4 349.7L156.1 350.3L156.9 346.5L157.7 343.6L158.5 341.3L159.3 340.2L160.1 340.8L160.8 337.1L161.6 335.6L162.4 334.5L163.2 337.3L164 338.6L164.7 335.4L165.5 336.6L166.3 331.1L167.1 331L167.9 330L168.7 327.2L169.4 326.6L170.2 324.5L171 324L171.8 321.9L172.6 320.9L173.4 315.5L174.1 321.8L174.9 316.3L175.7 315.4L176.5 312.6L177.3 311.3L178.1 317.5L178.8 313.7L179.6 315.5L180.4 315.9L181.2 313.9L182 310.8L182.7 310.4L183.5 306.8L184.3 304.5L185.1 299.2L185.9 301.1L186.7 297.4L187.4 297L188.2 295.4L189 302.6L189.8 298L190.6 294.9L191.4 296.9L192.1 295.7L192.9 296.4L193.7 295.8L194.5 291.5L195.3 289.1L196 284.6L196.8 279.1L197.6 281.4L198.4 280.6L199.2 287L200 290.4L200.7 276.3L201.5 287L202.3 284.8L203.1 275.4L203.9 285.9L204.7 287.1L205.4 287.1L206.2 290.4L207 294.6L207.8 299.5L208.6 298.1L209.4 299.7L210.1 300.5L210.9 297L211.7 298.6L212.5 306.4L213.3 303.4L214 301.5L214.8 296.6L215.6 290.4L216.4 289.1L217.2 284.1L218 269.3L218.7 280.9L219.5 282.6L220.3 284L221.1 295.2L221.9 292.8L222.7 296.3L223.4 299.4L224.2 299.7L225 304.8L225.8 304.8L226.6 305.9L227.4 308.7L228.1 312.6L228.9 313.9L229.7 316.1L230.5 316.5L231.3 316.3L232 316.9L232.8 317.4L233.6 317.6L234.4 317.5L235.2 317.2L236 318.2L236.7 319L237.5 319.4L238.3 321.3L239.1 321.3L239.9 321.6L240.7 323.2L241.4 325L242.2 324.7L243 324.6L243.8 325.7L244.6 326.4L245.4 328.1L246.1 328.1L246.9 330.2L247.7 330.7L248.5 329.9L249.3 331.5L250 332L250.8 331.9L251.6 331.6L252.4 331.4L253.2 332.2L254 333.6L254.7 331.4L255.5 331L256.3 330.7L257.1 331.2L257.9 331L258.7 330.7L259.4 330.2L260.2 330.6L261 330.2L261.8 331.3L262.6 332L263.3 333.8L264.1 334.5L264.9 335.8L265.7 337.6L266.5 338.2L267.3 340.1L268 342.2L268.8 342.9L269.6 344.7L270.4 346.3L271.2 345.8L272 345.7L272.7 346.5L273.5 347.1L274.3 347.8L275.1 347.5L275.9 348.4L276.7 349.9L277.4 349.5L278.2 349.5L279 350.7"></path><path fill="none" stroke-linecap="butt" stroke-linejoin="round" stroke="#4C6A9C" id="line__Share-of-global-annual-CO₂-emissions" stroke-width="1.5" stroke-opacity="1" d="M104.5 374.4L105.3 374.3L106.1 374.5L106.8 373.9L107.6 373.9L108.4 373.8L109.2 373.9L110 373.9L110.8 373.8L111.5 373.7L112.3 373.8L113.1 373.7L113.9 373.6L114.7 373.4L115.4 373.3L116.2 373.2L117 373.1L117.8 373.1L118.6 372.9L119.4 373L120.1 372.9L120.9 372.8L121.7 372.8L122.5 372.8L123.3 372.5L124.1 372.3L124.8 371.7L125.6 371.6L126.4 371.3L127.2 370.6L128 371.3L128.7 370.6L129.5 368.8L130.3 367.7L131.1 368.5L131.9 367.3L132.7 367.3L133.4 366.2L134.2 366.7L135 366.1L135.8 366.3L136.6 366L137.4 365.5L138.1 364.5L138.9 363.2L139.7 361.9L140.5 360.3L141.3 358.8L142.1 357.2L142.8 356.8L143.6 356.4L144.4 351.9L145.2 350.9L146 349L146.7 350.7L147.5 347.5L148.3 348L149.1 347.6L149.9 347.6L150.7 346.9L151.4 348.2L152.2 350.5L153 350.1L153.8 347.9L154.6 348.1L155.4 349.7L156.1 350.3L156.9 346.5L157.7 343.6L158.5 341.3L159.3 340.2L160.1 340.8L160.8 337.1L161.6 335.6L162.4 334.5L163.2 337.3L164 338.6L164.7 335.4L165.5 336.6L166.3 331.1L167.1 331L167.9 330L168.7 327.2L169.4 326.6L170.2 324.5L171 324L171.8 321.9L172.6 320.9L173.4 315.5L174.1 321.8L174.9 316.3L175.7 315.4L176.5 312.6L177.3 311.3L178.1 317.5L178.8 313.7L179.6 315.5L180.4 315.9L181.2 313.9L182 310.8L182.7 310.4L183.5 306.8L184.3 304.5L185.1 299.2L185.9 301.1L186.7 297.4L187.4 297L188.2 295.4L189 302.6L189.8 298L190.6 294.9L191.4 296.9L192.1 295.7L192.9 296.4L193.7 295.8L194.5 291.5L195.3 289.1L196 284.6L196.8 279.1L197.6 281.4L198.4 280.6L199.2 287L200 290.4L200.7 276.3L201.5 287L202.3 284.8L203.1 275.4L203.9 285.9L204.7 287.1L205.4 287.1L206.2 290.4L207 294.6L207.8 299.5L208.6 298.1L209.4 299.7L210.1 300.5L210.9 297L211.7 298.6L212.5 306.4L213.3 303.4L214 301.5L214.8 296.6L215.6 290.4L216.4 289.1L217.2 284.1L218 269.3L218.7 280.9L219.5 282.6L220.3 284L221.1 295.2L221.9 292.8L222.7 296.3L223.4 299.4L224.2 299.7L225 304.8L225.8 304.8L226.6 305.9L227.4 308.7L228.1 312.6L228.9 313.9L229.7 316.1L230.5 316.5L231.3 316.3L232 316.9L232.8 317.4L233.6 317.6L234.4 317.5L235.2 317.2L236 318.2L236.7 319L237.5 319.4L238.3 321.3L239.1 321.3L239.9 321.6L240.7 323.2L241.4 325L242.2 324.7L243 324.6L243.8 325.7L244.6 326.4L245.4 328.1L246.1 328.1L246.9 330.2L247.7 330.7L248.5 329.9L249.3 331.5L250 332L250.8 331.9L251.6 331.6L252.4 331.4L253.2 332.2L254 333.6L254.7 331.4L255.5 331L256.3 330.7L257.1 331.2L257.9 331L258.7 330.7L259.4 330.2L260.2 330.6L261 330.2L261.8 331.3L262.6 332L263.3 333.8L264.1 334.5L264.9 335.8L265.7 337.6L266.5 338.2L267.3 340.1L268 342.2L268.8 342.9L269.6 344.7L270.4 346.3L271.2 345.8L272 345.7L272.7 346.5L273.5 347.1L274.3 347.8L275.1 347.5L275.9 348.4L276.7 349.9L277.4 349.5L278.2 349.5L279 350.7"></path></g></g></g><text x="342.3625" y="256.75" fill="#5b5b5b" font-size="13" style="font-weight:700">European Union (27)<title>European Union (27)</title></text><g class="LineChart"><defs><clipPath id="boundsClip-5"><rect x="332.3625" y="253.25" width="284" height="148"></rect></clipPath></defs><rect x="293" y="263.25" width="264" height="128" fill-opacity="0"></rect><g id="horizontal-axis" class="HorizontalAxis"><g id="tick-marks"><line id="1750" x1="342.4" y1="374" x2="342.4" y2="379.5" stroke="#999" stroke-width="1"></line><line id="2023" x1="556" y1="374" x2="556" y2="379.5" stroke="#999" stroke-width="1"></line><line id="1800" x1="381.5" y1="374" x2="381.5" y2="379.5" stroke="#999" stroke-width="1"></line><line id="1850" x1="420.6" y1="374" x2="420.6" y2="379.5" stroke="#999" stroke-width="1"></line><line id="1900" x1="459.7" y1="374" x2="459.7" y2="379.5" stroke="#999" stroke-width="1"></line><line id="1950" x1="498.9" y1="374" x2="498.9" y2="379.5" stroke="#999" stroke-width="1"></line></g><g id="tick-labels"><text x="342.3625" y="389.25" fill="#5b5b5b" text-anchor="start" font-size="9.75">1750</text><text x="556" y="389.25" fill="#5b5b5b" text-anchor="end" font-size="9.75">2023</text><text x="381.5" y="389.25" fill="#5b5b5b" text-anchor="middle" font-size="9.75">1800</text><text x="420.6" y="389.25" fill="#5b5b5b" text-anchor="middle" font-size="9.75">1850</text><text x="459.7" y="389.25" fill="#5b5b5b" text-anchor="middle" font-size="9.75">1900</text><text x="498.9" y="389.25" fill="#5b5b5b" text-anchor="middle" font-size="9.75">1950</text></g></g><g id="vertical-axis" class="VerticalAxis"><g id="tick-labels"><text x="337.36" y="374" dy=".32em" text-anchor="end" fill="#5b5b5b" font-size="9.75">+0%</text><text x="337.36" y="343.3" dy=".32em" text-anchor="end" fill="#5b5b5b" font-size="9.75">+500%</text><text x="337.36" y="312.5" dy=".32em" text-anchor="end" fill="#5b5b5b" font-size="9.75">+1,000%</text><text x="337.36" y="281.8" dy=".32em" text-anchor="end" fill="#5b5b5b" font-size="9.75">+1,500%</text></g></g><g id="horizontal-grid-lines" class="AxisGridLines horizontalLines"><line id="+0%" x1="342.36" y1="374" x2="556.00" y2="374" stroke="#999" stroke-width="1"></line><line id="+500%" x1="342.36" y1="343.3" x2="556.00" y2="343.3" stroke="#ddd" stroke-width="1" stroke-dasharray="2,1"></line><line id="+1,000%" x1="342.36" y1="312.5" x2="556.00" y2="312.5" stroke="#ddd" stroke-width="1" stroke-dasharray="2,1"></line><line id="+1,500%" x1="342.36" y1="281.8" x2="556.00" y2="281.8" stroke="#ddd" stroke-width="1" stroke-dasharray="2,1"></line></g><g clip-path="url(#boundsClip-5)"><g class="Lines"><rect x="342" y="269" width="214" height="105" fill="rgba(255,255,255,0)" opacity="0"></rect><path fill="none" stroke-linecap="butt" stroke-linejoin="round" stroke="#ffffff" id="outline__Share-of-global-annual-CO₂-emissions" stroke-width="2.5" d="M375.2 374L376 374L376.8 374.5L377.6 374.4L378.4 373.2L379.1 373L379.9 373L380.7 373.6L381.5 369.6L382.3 371.4L383.1 311.4L383.8 370.5L384.6 347.2L385.4 365.3L386.2 367.3L387 354.5L387.8 368.8L388.5 369.1L389.3 353.5L390.1 354.6L390.9 354.9L391.7 357L392.4 356.5L393.2 354L394 345L394.8 340.6L395.6 341.9L396.4 341.5L397.1 338.4L397.9 337.5L398.7 337.2L399.5 335.4L400.3 338.1L401.1 332.7L401.8 333.5L402.6 326.6L403.4 326.5L404.2 331.4L405 318.3L405.7 323.3L406.5 322.4L407.3 318.8L408.1 316.8L408.9 318.6L409.7 316.7L410.4 310.9L411.2 306.4L412 306L412.8 302.6L413.6 298.9L414.4 297.6L415.1 302.1L415.9 302L416.7 298.7L417.5 290.3L418.3 289.8L419.1 301.4L419.8 303.8L420.6 301L421.4 297.3L422.2 291.1L423 285.9L423.7 287.3L424.5 279.8L425.3 280.5L426.1 277.4L426.9 273.5L427.7 281.3L428.4 282.7L429.2 278.2L430 271.9L430.8 274.5L431.6 274.2L432.4 271.8L433.1 272.4L433.9 272.2L434.7 270L435.5 272L436.3 273.9L437.1 273.4L437.8 273L438.6 272.2L439.4 279.4L440.2 272.5L441 269.3L441.7 274L442.5 271.4L443.3 272.6L444.1 269.9L444.9 273.2L445.7 273.2L446.4 272.7L447.2 272.9L448 272.4L448.8 273.6L449.6 273.8L450.4 276.9L451.1 271.4L451.9 274.2L452.7 274.8L453.5 277.3L454.3 274.2L455.1 272.8L455.8 275.7L456.6 273.1L457.4 272L458.2 273L459 276.8L459.7 275.8L460.5 279.3L461.3 283.6L462.1 285.7L462.9 285L463.7 286.3L464.4 288.4L465.2 288.2L466 280.8L466.8 285.5L467.6 288.2L468.4 287.8L469.1 285.9L469.9 286.4L470.7 291.7L471.5 297.7L472.3 300L473 304.1L473.8 307.6L474.6 315L475.4 310.1L476.2 297.4L477 299L477.7 316L478.5 302.5L479.3 302.4L480.1 303.7L480.9 301.4L481.7 299.2L482.4 297.3L483.2 298.5L484 298L484.8 299.6L485.6 301.3L486.4 302L487.1 302.2L487.9 306.1L488.7 302.1L489.5 296.4L490.3 298.5L491 302.4L491.8 305.3L492.6 303.9L493.4 304.7L494.2 316.6L495 347.1L495.7 327.3L496.5 325L497.3 322.3L498.1 313.2L498.9 318.2L499.7 315.7L500.4 314.1L501.2 314.7L502 311.9L502.8 312.8L503.6 312.4L504.4 312.5L505.1 314.9L505.9 317.1L506.7 315.8L507.5 313L508.3 310.7L509 309.8L509.8 309.9L510.6 312.1L511.4 313.3L512.2 313.9L513 313.5L513.7 313.5L514.5 315.9L515.3 316.6L516.1 317.1L516.9 317.4L517.7 317.4L518.4 318.8L519.2 317.6L520 319.9L520.8 319.8L521.6 319.8L522.4 320L523.1 321.7L523.9 322.7L524.7 323.7L525.5 325.1L526.3 326L527 327L527.8 328.2L528.6 330.6L529.4 330.8L530.2 331.2L531 333L531.7 333.2L532.5 334.6L533.3 335.3L534.1 335.7L534.9 336.1L535.7 337.1L536.4 337L537.2 338.6L538 339.6L538.8 339.3L539.6 340.1L540.3 341.3L541.1 342.6L541.9 343.9L542.7 344.9L543.5 346.4L544.3 347.7L545 349.8L545.8 350.6L546.6 352.4L547.4 353.4L548.2 354.3L549 355.5L549.7 355L550.5 355L551.3 355.3L552.1 356.3L552.9 357.6L553.7 358.7L554.4 358.4L555.2 359L556 361.1"></path><path fill="none" stroke-linecap="butt" stroke-linejoin="round" stroke="#4C6A9C" id="line__Share-of-global-annual-CO₂-emissions" stroke-width="1.5" stroke-opacity="1" d="M375.2 374L376 374L376.8 374.5L377.6 374.4L378.4 373.2L379.1 373L379.9 373L380.7 373.6L381.5 369.6L382.3 371.4L383.1 311.4L383.8 370.5L384.6 347.2L385.4 365.3L386.2 367.3L387 354.5L387.8 368.8L388.5 369.1L389.3 353.5L390.1 354.6L390.9 354.9L391.7 357L392.4 356.5L393.2 354L394 345L394.8 340.6L395.6 341.9L396.4 341.5L397.1 338.4L397.9 337.5L398.7 337.2L399.5 335.4L400.3 338.1L401.1 332.7L401.8 333.5L402.6 326.6L403.4 326.5L404.2 331.4L405 318.3L405.7 323.3L406.5 322.4L407.3 318.8L408.1 316.8L408.9 318.6L409.7 316.7L410.4 310.9L411.2 306.4L412 306L412.8 302.6L413.6 298.9L414.4 297.6L415.1 302.1L415.9 302L416.7 298.7L417.5 290.3L418.3 289.8L419.1 301.4L419.8 303.8L420.6 301L421.4 297.3L422.2 291.1L423 285.9L423.7 287.3L424.5 279.8L425.3 280.5L426.1 277.4L426.9 273.5L427.7 281.3L428.4 282.7L429.2 278.2L430 271.9L430.8 274.5L431.6 274.2L432.4 271.8L433.1 272.4L433.9 272.2L434.7 270L435.5 272L436.3 273.9L437.1 273.4L437.8 273L438.6 272.2L439.4 279.4L440.2 272.5L441 269.3L441.7 274L442.5 271.4L443.3 272.6L444.1 269.9L444.9 273.2L445.7 273.2L446.4 272.7L447.2 272.9L448 272.4L448.8 273.6L449.6 273.8L450.4 276.9L451.1 271.4L451.9 274.2L452.7 274.8L453.5 277.3L454.3 274.2L455.1 272.8L455.8 275.7L456.6 273.1L457.4 272L458.2 273L459 276.8L459.7 275.8L460.5 279.3L461.3 283.6L462.1 285.7L462.9 285L463.7 286.3L464.4 288.4L465.2 288.2L466 280.8L466.8 285.5L467.6 288.2L468.4 287.8L469.1 285.9L469.9 286.4L470.7 291.7L471.5 297.7L472.3 300L473 304.1L473.8 307.6L474.6 315L475.4 310.1L476.2 297.4L477 299L477.7 316L478.5 302.5L479.3 302.4L480.1 303.7L480.9 301.4L481.7 299.2L482.4 297.3L483.2 298.5L484 298L484.8 299.6L485.6 301.3L486.4 302L487.1 302.2L487.9 306.1L488.7 302.1L489.5 296.4L490.3 298.5L491 302.4L491.8 305.3L492.6 303.9L493.4 304.7L494.2 316.6L495 347.1L495.7 327.3L496.5 325L497.3 322.3L498.1 313.2L498.9 318.2L499.7 315.7L500.4 314.1L501.2 314.7L502 311.9L502.8 312.8L503.6 312.4L504.4 312.5L505.1 314.9L505.9 317.1L506.7 315.8L507.5 313L508.3 310.7L509 309.8L509.8 309.9L510.6 312.1L511.4 313.3L512.2 313.9L513 313.5L513.7 313.5L514.5 315.9L515.3 316.6L516.1 317.1L516.9 317.4L517.7 317.4L518.4 318.8L519.2 317.6L520 319.9L520.8 319.8L521.6 319.8L522.4 320L523.1 321.7L523.9 322.7L524.7 323.7L525.5 325.1L526.3 326L527 327L527.8 328.2L528.6 330.6L529.4 330.8L530.2 331.2L531 333L531.7 333.2L532.5 334.6L533.3 335.3L534.1 335.7L534.9 336.1L535.7 337.1L536.4 337L537.2 338.6L538 339.6L538.8 339.3L539.6 340.1L540.3 341.3L541.1 342.6L541.9 343.9L542.7 344.9L543.5 346.4L544.3 347.7L545 349.8L545.8 350.6L546.6 352.4L547.4 353.4L548.2 354.3L549 355.5L549.7 355L550.5 355L551.3 355.3L552.1 356.3L552.9 357.6L553.7 358.7L554.4 358.4L555.2 359L556 361.1"></path></g></g></g><text x="619.3625" y="256.75" fill="#5b5b5b" font-size="13" style="font-weight:700">Canada<title>Canada</title></text><g class="LineChart"><defs><clipPath id="boundsClip-6"><rect x="609.3625" y="253.25" width="284" height="148"></rect></clipPath></defs><rect x="570" y="263.25" width="264" height="128" fill-opacity="0"></rect><g id="horizontal-axis" class="HorizontalAxis"><g id="tick-marks"><line id="1750" x1="619.4" y1="374" x2="619.4" y2="379.5" stroke="#999" stroke-width="1"></line><line id="2023" x1="833" y1="374" x2="833" y2="379.5" stroke="#999" stroke-width="1"></line><line id="1800" x1="658.5" y1="374" x2="658.5" y2="379.5" stroke="#999" stroke-width="1"></line><line id="1850" x1="697.6" y1="374" x2="697.6" y2="379.5" stroke="#999" stroke-width="1"></line><line id="1900" x1="736.7" y1="374" x2="736.7" y2="379.5" stroke="#999" stroke-width="1"></line><line id="1950" x1="775.9" y1="374" x2="775.9" y2="379.5" stroke="#999" stroke-width="1"></line></g><g id="tick-labels"><text x="619.3625" y="389.25" fill="#5b5b5b" text-anchor="start" font-size="9.75">1750</text><text x="833" y="389.25" fill="#5b5b5b" text-anchor="end" font-size="9.75">2023</text><text x="658.5" y="389.25" fill="#5b5b5b" text-anchor="middle" font-size="9.75">1800</text><text x="697.6" y="389.25" fill="#5b5b5b" text-anchor="middle" font-size="9.75">1850</text><text x="736.7" y="389.25" fill="#5b5b5b" text-anchor="middle" font-size="9.75">1900</text><text x="775.9" y="389.25" fill="#5b5b5b" text-anchor="middle" font-size="9.75">1950</text></g></g><g id="vertical-axis" class="VerticalAxis"><g id="tick-labels"><text x="614.36" y="373.9" dy=".32em" text-anchor="end" fill="#5b5b5b" font-size="9.75">+0%</text><text x="614.36" y="338.6" dy=".32em" text-anchor="end" fill="#5b5b5b" font-size="9.75">+5,000%</text><text x="614.36" y="303.3" dy=".32em" text-anchor="end" fill="#5b5b5b" font-size="9.75">+10,000%</text></g></g><g id="horizontal-grid-lines" class="AxisGridLines horizontalLines"><line id="+0%" x1="619.36" y1="373.9" x2="833.00" y2="373.9" stroke="#999" stroke-width="1"></line><line id="+5,000%" x1="619.36" y1="338.6" x2="833.00" y2="338.6" stroke="#ddd" stroke-width="1" stroke-dasharray="2,1"></line><line id="+10,000%" x1="619.36" y1="303.3" x2="833.00" y2="303.3" stroke="#ddd" stroke-width="1" stroke-dasharray="2,1"></line></g><g clip-path="url(#boundsClip-6)"><g class="Lines"><rect x="619" y="269" width="214" height="105" fill="rgba(255,255,255,0)" opacity="0"></rect><path fill="none" stroke-linecap="butt" stroke-linejoin="round" stroke="#ffffff" id="outline__Share-of-global-annual-CO₂-emissions" stroke-width="2.5" d="M646.8 373.9L647.5 373.9L648.3 373.9L649.1 373.9L649.9 373.9L650.7 374L651.4 374L652.2 374L653 374L653.8 374L654.6 374L655.4 374L656.1 374L656.9 374L657.7 374.1L658.5 374.2L659.3 374.2L660.1 374.3L660.8 374.2L661.6 374.2L662.4 374.2L663.2 374.2L664 374.2L664.8 374.2L665.5 374.2L666.3 374.3L667.1 374.3L667.9 374.3L668.7 374.3L669.4 374.3L670.2 374.3L671 374.3L671.8 374.3L672.6 374.3L673.4 374.3L674.1 374.3L674.9 374.3L675.7 374.3L676.5 374.4L677.3 374.4L678.1 374.4L678.8 374.4L679.6 374.4L680.4 374.4L681.2 374.4L682 374.4L682.7 374.4L683.5 374.4L684.3 374.4L685.1 374.4L685.9 374.5L686.7 374.5L687.4 374.5L688.2 374.5L689 374.5L689.8 374.5L690.6 374.5L691.4 374.5L692.1 374.5L692.9 374.5L693.7 374.5L694.5 374L695.3 373.9L696.1 373.8L696.8 373.7L697.6 373.6L698.4 373.4L699.2 373.2L700 372.9L700.7 372.9L701.5 372.6L702.3 372.3L703.1 371.9L703.9 371.4L704.7 371L705.4 370.6L706.2 370L707 369.1L707.8 368.2L708.6 367.5L709.4 366.5L710.1 365L710.9 363.1L711.7 368L712.5 370.1L713.3 366.7L714.1 363.8L714.8 364.5L715.6 366.3L716.4 365.6L717.2 365L718 365.3L718.7 364.6L719.5 365.1L720.3 364.6L721.1 353.5L721.9 352.8L722.7 350.2L723.4 348.8L724.2 345.1L725 346.5L725.8 345.1L726.6 342.2L727.4 336.2L728.1 342L728.9 341.7L729.7 339.3L730.5 339.7L731.3 336.8L732.1 339.8L732.8 343.3L733.6 341.8L734.4 342.9L735.2 342.7L736 339L736.7 338.2L737.5 333.8L738.3 331.8L739.1 331.8L739.9 324.5L740.7 324.3L741.4 323.7L742.2 318.5L743 315.7L743.8 320.4L744.6 315.9L745.4 307.1L746.1 302.9L746.9 296.5L747.7 300.4L748.5 307.2L749.3 296.6L750 291.4L750.8 286L751.6 287.8L752.4 292L753.2 284.9L754 301L754.7 287.4L755.5 302.2L756.3 304.9L757.1 294.8L757.9 295.2L758.7 293.4L759.4 294.6L760.2 292.1L761 300.4L761.8 298.5L762.6 303.1L763.4 298.9L764.1 303.5L764.9 303.7L765.7 302.6L766.5 304.6L767.3 301L768 297.6L768.8 291.4L769.6 283.5L770.4 280.4L771.2 280.4L772 269.3L772.7 270.6L773.5 278.4L774.3 273.9L775.1 278.1L775.9 284.6L776.7 286.3L777.4 289.3L778.2 291L779 291.5L779.8 295.8L780.6 291.7L781.4 297.3L782.1 299.7L782.9 302.5L783.7 303.5L784.5 303.3L785.3 301.1L786 303.5L786.8 298.6L787.6 297.5L788.4 299L789.2 294.9L790 293.2L790.7 297.3L791.5 295.3L792.3 295.9L793.1 293.3L793.9 297.3L794.7 295.3L795.4 294L796.2 297.8L797 298.3L797.8 299.2L798.6 296.6L799.4 295.9L800.1 296.4L800.9 298.6L801.7 300.2L802.5 299.7L803.3 302.7L804 306.6L804.8 304.4L805.6 303.2L806.4 303L807.2 304.8L808 307.4L808.7 303.4L809.5 304L810.3 302.5L811.1 302.3L811.9 302.1L812.7 300.5L813.4 299.1L814.2 298.8L815 297.7L815.8 299.4L816.6 300.3L817.3 301.9L818.1 304.6L818.9 307.6L819.7 310.4L820.5 309.6L821.3 312.4L822 315L822.8 317L823.6 318.1L824.4 318.8L825.2 318.8L826 319.3L826.7 319.3L827.5 320L828.3 319.8L829.1 320L829.9 320.3L830.7 322.7L831.4 324L832.2 323.5L833 324.3"></path><path fill="none" stroke-linecap="butt" stroke-linejoin="round" stroke="#4C6A9C" id="line__Share-of-global-annual-CO₂-emissions" stroke-width="1.5" stroke-opacity="1" d="M646.8 373.9L647.5 373.9L648.3 373.9L649.1 373.9L649.9 373.9L650.7 374L651.4 374L652.2 374L653 374L653.8 374L654.6 374L655.4 374L656.1 374L656.9 374L657.7 374.1L658.5 374.2L659.3 374.2L660.1 374.3L660.8 374.2L661.6 374.2L662.4 374.2L663.2 374.2L664 374.2L664.8 374.2L665.5 374.2L666.3 374.3L667.1 374.3L667.9 374.3L668.7 374.3L669.4 374.3L670.2 374.3L671 374.3L671.8 374.3L672.6 374.3L673.4 374.3L674.1 374.3L674.9 374.3L675.7 374.3L676.5 374.4L677.3 374.4L678.1 374.4L678.8 374.4L679.6 374.4L680.4 374.4L681.2 374.4L682 374.4L682.7 374.4L683.5 374.4L684.3 374.4L685.1 374.4L685.9 374.5L686.7 374.5L687.4 374.5L688.2 374.5L689 374.5L689.8 374.5L690.6 374.5L691.4 374.5L692.1 374.5L692.9 374.5L693.7 374.5L694.5 374L695.3 373.9L696.1 373.8L696.8 373.7L697.6 373.6L698.4 373.4L699.2 373.2L700 372.9L700.7 372.9L701.5 372.6L702.3 372.3L703.1 371.9L703.9 371.4L704.7 371L705.4 370.6L706.2 370L707 369.1L707.8 368.2L708.6 367.5L709.4 366.5L710.1 365L710.9 363.1L711.7 368L712.5 370.1L713.3 366.7L714.1 363.8L714.8 364.5L715.6 366.3L716.4 365.6L717.2 365L718 365.3L718.7 364.6L719.5 365.1L720.3 364.6L721.1 353.5L721.9 352.8L722.7 350.2L723.4 348.8L724.2 345.1L725 346.5L725.8 345.1L726.6 342.2L727.4 336.2L728.1 342L728.9 341.7L729.7 339.3L730.5 339.7L731.3 336.8L732.1 339.8L732.8 343.3L733.6 341.8L734.4 342.9L735.2 342.7L736 339L736.7 338.2L737.5 333.8L738.3 331.8L739.1 331.8L739.9 324.5L740.7 324.3L741.4 323.7L742.2 318.5L743 315.7L743.8 320.4L744.6 315.9L745.4 307.1L746.1 302.9L746.9 296.5L747.7 300.4L748.5 307.2L749.3 296.6L750 291.4L750.8 286L751.6 287.8L752.4 292L753.2 284.9L754 301L754.7 287.4L755.5 302.2L756.3 304.9L757.1 294.8L757.9 295.2L758.7 293.4L759.4 294.6L760.2 292.1L761 300.4L761.8 298.5L762.6 303.1L763.4 298.9L764.1 303.5L764.9 303.7L765.7 302.6L766.5 304.6L767.3 301L768 297.6L768.8 291.4L769.6 283.5L770.4 280.4L771.2 280.4L772 269.3L772.7 270.6L773.5 278.4L774.3 273.9L775.1 278.1L775.9 284.6L776.7 286.3L777.4 289.3L778.2 291L779 291.5L779.8 295.8L780.6 291.7L781.4 297.3L782.1 299.7L782.9 302.5L783.7 303.5L784.5 303.3L785.3 301.1L786 303.5L786.8 298.6L787.6 297.5L788.4 299L789.2 294.9L790 293.2L790.7 297.3L791.5 295.3L792.3 295.9L793.1 293.3L793.9 297.3L794.7 295.3L795.4 294L796.2 297.8L797 298.3L797.8 299.2L798.6 296.6L799.4 295.9L800.1 296.4L800.9 298.6L801.7 300.2L802.5 299.7L803.3 302.7L804 306.6L804.8 304.4L805.6 303.2L806.4 303L807.2 304.8L808 307.4L808.7 303.4L809.5 304L810.3 302.5L811.1 302.3L811.9 302.1L812.7 300.5L813.4 299.1L814.2 298.8L815 297.7L815.8 299.4L816.6 300.3L817.3 301.9L818.1 304.6L818.9 307.6L819.7 310.4L820.5 309.6L821.3 312.4L822 315L822.8 317L823.6 318.1L824.4 318.8L825.2 318.8L826 319.3L826.7 319.3L827.5 320L828.3 319.8L829.1 320L829.9 320.3L830.7 322.7L831.4 324L832.2 323.5L833 324.3"></path></g></g></g><text x="65.36250000000001" y="417.75" fill="#5b5b5b" font-size="13" style="font-weight:700">Brazil<title>Brazil</title></text><g class="LineChart"><defs><clipPath id="boundsClip-7"><rect x="55.36250000000001" y="414.25" width="284" height="148"></rect></clipPath></defs><rect x="16" y="424.25" width="264" height="128" fill-opacity="0"></rect><g id="horizontal-axis" class="HorizontalAxis"><g id="tick-marks"><line id="1750" x1="65.4" y1="535" x2="65.4" y2="540.5" stroke="#999" stroke-width="1"></line><line id="2023" x1="279" y1="535" x2="279" y2="540.5" stroke="#999" stroke-width="1"></line><line id="1800" x1="104.5" y1="535" x2="104.5" y2="540.5" stroke="#999" stroke-width="1"></line><line id="1850" x1="143.6" y1="535" x2="143.6" y2="540.5" stroke="#999" stroke-width="1"></line><line id="1900" x1="182.7" y1="535" x2="182.7" y2="540.5" stroke="#999" stroke-width="1"></line><line id="1950" x1="221.9" y1="535" x2="221.9" y2="540.5" stroke="#999" stroke-width="1"></line></g><g id="tick-labels"><text x="65.36250000000001" y="550.25" fill="#5b5b5b" text-anchor="start" font-size="9.75">1750</text><text x="279" y="550.25" fill="#5b5b5b" text-anchor="end" font-size="9.75">2023</text><text x="104.5" y="550.25" fill="#5b5b5b" text-anchor="middle" font-size="9.75">1800</text><text x="143.6" y="550.25" fill="#5b5b5b" text-anchor="middle" font-size="9.75">1850</text><text x="182.7" y="550.25" fill="#5b5b5b" text-anchor="middle" font-size="9.75">1900</text><text x="221.9" y="550.25" fill="#5b5b5b" text-anchor="middle" font-size="9.75">1950</text></g></g><g id="vertical-axis" class="VerticalAxis"><g id="tick-labels"><text x="60.36" y="535.1" dy=".32em" text-anchor="end" fill="#5b5b5b" font-size="9.75">+0%</text><text x="60.36" y="506.4" dy=".32em" text-anchor="end" fill="#5b5b5b" font-size="9.75">+500%</text><text x="60.36" y="477.7" dy=".32em" text-anchor="end" fill="#5b5b5b" font-size="9.75">+1,000%</text><text x="60.36" y="449" dy=".32em" text-anchor="end" fill="#5b5b5b" font-size="9.75">+1,500%</text></g></g><g id="horizontal-grid-lines" class="AxisGridLines horizontalLines"><line id="+0%" x1="65.36" y1="535.1" x2="279.00" y2="535.1" stroke="#999" stroke-width="1"></line><line id="+500%" x1="65.36" y1="506.4" x2="279.00" y2="506.4" stroke="#ddd" stroke-width="1" stroke-dasharray="2,1"></line><line id="+1,000%" x1="65.36" y1="477.7" x2="279.00" y2="477.7" stroke="#ddd" stroke-width="1" stroke-dasharray="2,1"></line><line id="+1,500%" x1="65.36" y1="449" x2="279.00" y2="449" stroke="#ddd" stroke-width="1" stroke-dasharray="2,1"></line></g><g clip-path="url(#boundsClip-7)"><g class="Lines"><rect x="65" y="430" width="214" height="105" fill="rgba(255,255,255,0)" opacity="0"></rect><path fill="none" stroke-linecap="butt" stroke-linejoin="round" stroke="#ffffff" id="outline__Share-of-global-annual-CO₂-emissions" stroke-width="2.5" d="M148.3 535.1L149.1 534.1L149.9 533.8L150.7 532.2L151.4 531.6L152.2 532.6L153 533.8L153.8 532.9L154.6 532.6L155.4 531.6L156.1 530.7L156.9 532.7L157.7 530.1L158.5 532.7L159.3 531.7L160.1 530.4L160.8 531.3L161.6 530L162.4 529.7L163.2 531.1L164 532.3L164.7 532.1L165.5 531.4L166.3 533.4L167.1 533.3L167.9 532.7L168.7 533.7L169.4 532.6L170.2 531.9L171 532.4L171.8 532.4L172.6 532.3L173.4 533.3L174.1 530L174.9 531.6L175.7 530.2L176.5 529.9L177.3 530.7L178.1 529.3L178.8 530.6L179.6 528.9L180.4 529L181.2 529.8L182 531L182.7 532.7L183.5 532.8L184.3 532.2L185.1 533.2L185.9 532.7L186.7 532.6L187.4 531.9L188.2 531.8L189 531.4L189.8 531.6L190.6 530.2L191.4 528.6L192.1 529L192.9 528.6L193.7 530.6L194.5 533.6L195.3 535.2L196 535.2L196.8 535.5L197.6 534L198.4 533L199.2 534.3L200 532.1L200.7 531.7L201.5 530.7L202.3 530.8L203.1 530.4L203.9 530.3L204.7 530.1L205.4 530.4L206.2 530.6L207 531.4L207.8 530.3L208.6 530L209.4 530.9L210.1 531L210.9 531.5L211.7 530.3L212.5 528.9L213.3 532L214 532.7L214.8 532L215.6 532.6L216.4 531.9L217.2 532.8L218 529.7L218.7 529.5L219.5 528.7L220.3 530.7L221.1 530.9L221.9 517.5L222.7 517L223.4 513.7L224.2 514.2L225 510.1L225.8 508.7L226.6 508.4L227.4 510L228.1 508.2L228.9 509.9L229.7 505.8L230.5 504.2L231.3 502.2L232 502.8L232.8 504.1L233.6 505.9L234.4 502.8L235.2 502.9L236 498.8L236.7 497.9L237.5 496.7L238.3 494.5L239.1 491.5L239.9 486.5L240.7 481.8L241.4 478.9L242.2 480.4L243 479.2L243.8 475.6L244.6 473.5L245.4 473.7L246.1 477.5L246.9 477L247.7 479.5L248.5 480.9L249.3 478.5L250 473.6L250.8 472.7L251.6 474.8L252.4 474.3L253.2 473.2L254 471.3L254.7 468L255.5 465.4L256.3 463.2L257.1 460.6L257.9 457L258.7 452.4L259.4 449.1L260.2 448.3L261 447.1L261.8 446.2L262.6 447.8L263.3 453.3L264.1 452.1L264.9 454.4L265.7 456.2L266.5 453.8L267.3 450.4L268 454L268.8 448.1L269.6 446.6L270.4 440.8L271.2 434.9L272 430.3L272.7 435.8L273.5 443.1L274.3 443.6L275.1 449.3L275.9 451.2L276.7 451.8L277.4 446.2L278.2 449.7L279 450.4"></path><path fill="none" stroke-linecap="butt" stroke-linejoin="round" stroke="#4C6A9C" id="line__Share-of-global-annual-CO₂-emissions" stroke-width="1.5" stroke-opacity="1" d="M148.3 535.1L149.1 534.1L149.9 533.8L150.7 532.2L151.4 531.6L152.2 532.6L153 533.8L153.8 532.9L154.6 532.6L155.4 531.6L156.1 530.7L156.9 532.7L157.7 530.1L158.5 532.7L159.3 531.7L160.1 530.4L160.8 531.3L161.6 530L162.4 529.7L163.2 531.1L164 532.3L164.7 532.1L165.5 531.4L166.3 533.4L167.1 533.3L167.9 532.7L168.7 533.7L169.4 532.6L170.2 531.9L171 532.4L171.8 532.4L172.6 532.3L173.4 533.3L174.1 530L174.9 531.6L175.7 530.2L176.5 529.9L177.3 530.7L178.1 529.3L178.8 530.6L179.6 528.9L180.4 529L181.2 529.8L182 531L182.7 532.7L183.5 532.8L184.3 532.2L185.1 533.2L185.9 532.7L186.7 532.6L187.4 531.9L188.2 531.8L189 531.4L189.8 531.6L190.6 530.2L191.4 528.6L192.1 529L192.9 528.6L193.7 530.6L194.5 533.6L195.3 535.2L196 535.2L196.8 535.5L197.6 534L198.4 533L199.2 534.3L200 532.1L200.7 531.7L201.5 530.7L202.3 530.8L203.1 530.4L203.9 530.3L204.7 530.1L205.4 530.4L206.2 530.6L207 531.4L207.8 530.3L208.6 530L209.4 530.9L210.1 531L210.9 531.5L211.7 530.3L212.5 528.9L213.3 532L214 532.7L214.8 532L215.6 532.6L216.4 531.9L217.2 532.8L218 529.7L218.7 529.5L219.5 528.7L220.3 530.7L221.1 530.9L221.9 517.5L222.7 517L223.4 513.7L224.2 514.2L225 510.1L225.8 508.7L226.6 508.4L227.4 510L228.1 508.2L228.9 509.9L229.7 505.8L230.5 504.2L231.3 502.2L232 502.8L232.8 504.1L233.6 505.9L234.4 502.8L235.2 502.9L236 498.8L236.7 497.9L237.5 496.7L238.3 494.5L239.1 491.5L239.9 486.5L240.7 481.8L241.4 478.9L242.2 480.4L243 479.2L243.8 475.6L244.6 473.5L245.4 473.7L246.1 477.5L246.9 477L247.7 479.5L248.5 480.9L249.3 478.5L250 473.6L250.8 472.7L251.6 474.8L252.4 474.3L253.2 473.2L254 471.3L254.7 468L255.5 465.4L256.3 463.2L257.1 460.6L257.9 457L258.7 452.4L259.4 449.1L260.2 448.3L261 447.1L261.8 446.2L262.6 447.8L263.3 453.3L264.1 452.1L264.9 454.4L265.7 456.2L266.5 453.8L267.3 450.4L268 454L268.8 448.1L269.6 446.6L270.4 440.8L271.2 434.9L272 430.3L272.7 435.8L273.5 443.1L274.3 443.6L275.1 449.3L275.9 451.2L276.7 451.8L277.4 446.2L278.2 449.7L279 450.4"></path></g></g></g><text x="342.3625" y="417.75" fill="#5b5b5b" font-size="13" style="font-weight:700">South Africa<title>South Africa</title></text><g class="LineChart"><defs><clipPath id="boundsClip-8"><rect x="332.3625" y="414.25" width="284" height="148"></rect></clipPath></defs><rect x="293" y="424.25" width="264" height="128" fill-opacity="0"></rect><g id="horizontal-axis" class="HorizontalAxis"><g id="tick-marks"><line id="1750" x1="342.4" y1="535" x2="342.4" y2="540.5" stroke="#999" stroke-width="1"></line><line id="2023" x1="556" y1="535" x2="556" y2="540.5" stroke="#999" stroke-width="1"></line><line id="1800" x1="381.5" y1="535" x2="381.5" y2="540.5" stroke="#999" stroke-width="1"></line><line id="1850" x1="420.6" y1="535" x2="420.6" y2="540.5" stroke="#999" stroke-width="1"></line><line id="1900" x1="459.7" y1="535" x2="459.7" y2="540.5" stroke="#999" stroke-width="1"></line><line id="1950" x1="498.9" y1="535" x2="498.9" y2="540.5" stroke="#999" stroke-width="1"></line></g><g id="tick-labels"><text x="342.3625" y="550.25" fill="#5b5b5b" text-anchor="start" font-size="9.75">1750</text><text x="556" y="550.25" fill="#5b5b5b" text-anchor="end" font-size="9.75">2023</text><text x="381.5" y="550.25" fill="#5b5b5b" text-anchor="middle" font-size="9.75">1800</text><text x="420.6" y="550.25" fill="#5b5b5b" text-anchor="middle" font-size="9.75">1850</text><text x="459.7" y="550.25" fill="#5b5b5b" text-anchor="middle" font-size="9.75">1900</text><text x="498.9" y="550.25" fill="#5b5b5b" text-anchor="middle" font-size="9.75">1950</text></g></g><g id="vertical-axis" class="VerticalAxis"><g id="tick-labels"><text x="337.36" y="535.5" dy=".32em" text-anchor="end" fill="#5b5b5b" font-size="9.75">+0%</text><text x="337.36" y="506.9" dy=".32em" text-anchor="end" fill="#5b5b5b" font-size="9.75">+20,000%</text><text x="337.36" y="478.3" dy=".32em" text-anchor="end" fill="#5b5b5b" font-size="9.75">+40,000%</text><text x="337.36" y="449.8" dy=".32em" text-anchor="end" fill="#5b5b5b" font-size="9.75">+60,000%</text></g></g><g id="horizontal-grid-lines" class="AxisGridLines horizontalLines"><line id="+0%" x1="342.36" y1="535.5" x2="556.00" y2="535.5" stroke="#999" stroke-width="1"></line><line id="+20,000%" x1="342.36" y1="506.9" x2="556.00" y2="506.9" stroke="#ddd" stroke-width="1" stroke-dasharray="2,1"></line><line id="+40,000%" x1="342.36" y1="478.3" x2="556.00" y2="478.3" stroke="#ddd" stroke-width="1" stroke-dasharray="2,1"></line><line id="+60,000%" x1="342.36" y1="449.8" x2="556.00" y2="449.8" stroke="#ddd" stroke-width="1" stroke-dasharray="2,1"></line></g><g clip-path="url(#boundsClip-8)"><g class="Lines"><rect x="342" y="430" width="214" height="105" fill="rgba(255,255,255,0)" opacity="0"></rect><path fill="none" stroke-linecap="butt" stroke-linejoin="round" stroke="#ffffff" id="outline__Share-of-global-annual-CO₂-emissions" stroke-width="2.5" d="M447.2 535.5L448 535.4L448.8 535.3L449.6 535.4L450.4 535.2L451.1 534.9L451.9 534.2L452.7 534.2L453.5 533.4L454.3 527L455.1 524.3L455.8 521L456.6 517.6L457.4 516.3L458.2 512.4L459 516.2L459.7 527.8L460.5 523L461.3 517.2L462.1 513.1L462.9 510.5L463.7 508.6L464.4 506.1L465.2 507L466 505L466.8 501.8L467.6 499L468.4 500.9L469.1 500.6L469.9 500.2L470.7 497.8L471.5 497L472.3 493.5L473 492.5L473.8 494L474.6 485.6L475.4 488L476.2 482L477 491.7L477.7 488.6L478.5 486.4L479.3 484.9L480.1 481.3L480.9 487.3L481.7 487L482.4 488.6L483.2 488L484 488.2L484.8 487.4L485.6 486.2L486.4 483.8L487.1 480.6L487.9 480.7L488.7 481.9L489.5 475.6L490.3 476.7L491 479.9L491.8 477.5L492.6 471.9L493.4 472.6L494.2 466.3L495 450.2L495.7 455.9L496.5 464.7L497.3 466.9L498.1 459.3L498.9 468.1L499.7 468.7L500.4 463.7L501.2 465.6L502 464.2L502.8 462.5L503.6 463.4L504.4 463.8L505.1 460.6L505.9 465.6L506.7 467.3L507.5 464.5L508.3 464.5L509 465.5L509.8 463.2L510.6 461.3L511.4 464.7L512.2 463.9L513 465.5L513.7 467.4L514.5 469.8L515.3 464.4L516.1 466.3L516.9 469.1L517.7 467.5L518.4 464.5L519.2 465.3L520 464.8L520.8 466.2L521.6 462.5L522.4 458.8L523.1 447L523.9 438.1L524.7 434.8L525.5 430.3L526.3 431L527 430.5L527.8 434.2L528.6 433.8L529.4 435.8L530.2 445.3L531 443.4L531.7 447.9L532.5 443.3L533.3 439L534.1 434.8L534.9 437.3L535.7 432.1L536.4 433.8L537.2 436.7L538 438.3L538.8 440.8L539.6 446.6L540.3 439.7L541.1 432.7L541.9 443.4L542.7 439.9L543.5 438.9L544.3 434.4L545 436.9L545.8 444.6L546.6 447L547.4 449.6L548.2 450.4L549 448.3L549.7 452.9L550.5 451L551.3 455.4L552.1 458L552.9 453.6L553.7 454.6L554.4 460.1L555.2 464.3L556 465.9"></path><path fill="none" stroke-linecap="butt" stroke-linejoin="round" stroke="#4C6A9C" id="line__Share-of-global-annual-CO₂-emissions" stroke-width="1.5" stroke-opacity="1" d="M447.2 535.5L448 535.4L448.8 535.3L449.6 535.4L450.4 535.2L451.1 534.9L451.9 534.2L452.7 534.2L453.5 533.4L454.3 527L455.1 524.3L455.8 521L456.6 517.6L457.4 516.3L458.2 512.4L459 516.2L459.7 527.8L460.5 523L461.3 517.2L462.1 513.1L462.9 510.5L463.7 508.6L464.4 506.1L465.2 507L466 505L466.8 501.8L467.6 499L468.4 500.9L469.1 500.6L469.9 500.2L470.7 497.8L471.5 497L472.3 493.5L473 492.5L473.8 494L474.6 485.6L475.4 488L476.2 482L477 491.7L477.7 488.6L478.5 486.4L479.3 484.9L480.1 481.3L480.9 487.3L481.7 487L482.4 488.6L483.2 488L484 488.2L484.8 487.4L485.6 486.2L486.4 483.8L487.1 480.6L487.9 480.7L488.7 481.9L489.5 475.6L490.3 476.7L491 479.9L491.8 477.5L492.6 471.9L493.4 472.6L494.2 466.3L495 450.2L495.7 455.9L496.5 464.7L497.3 466.9L498.1 459.3L498.9 468.1L499.7 468.7L500.4 463.7L501.2 465.6L502 464.2L502.8 462.5L503.6 463.4L504.4 463.8L505.1 460.6L505.9 465.6L506.7 467.3L507.5 464.5L508.3 464.5L509 465.5L509.8 463.2L510.6 461.3L511.4 464.7L512.2 463.9L513 465.5L513.7 467.4L514.5 469.8L515.3 464.4L516.1 466.3L516.9 469.1L517.7 467.5L518.4 464.5L519.2 465.3L520 464.8L520.8 466.2L521.6 462.5L522.4 458.8L523.1 447L523.9 438.1L524.7 434.8L525.5 430.3L526.3 431L527 430.5L527.8 434.2L528.6 433.8L529.4 435.8L530.2 445.3L531 443.4L531.7 447.9L532.5 443.3L533.3 439L534.1 434.8L534.9 437.3L535.7 432.1L536.4 433.8L537.2 436.7L538 438.3L538.8 440.8L539.6 446.6L540.3 439.7L541.1 432.7L541.9 443.4L542.7 439.9L543.5 438.9L544.3 434.4L545 436.9L545.8 444.6L546.6 447L547.4 449.6L548.2 450.4L549 448.3L549.7 452.9L550.5 451L551.3 455.4L552.1 458L552.9 453.6L553.7 454.6L554.4 460.1L555.2 464.3L556 465.9"></path></g></g></g></g><g id="footer" class="SourcesFooter" style="fill:#858585"><g id="sources" class="markdown-text-wrap"><text x="16.0" y="581.0" style="font-size:13px;line-height:1.2"><tspan x="16" y="581.0"><tspan style="font-weight:700">Data source:</tspan> Global Carbon Budget (2024)</tspan></text></g><text id="origin-url" font-size="13.00" x="456.1" y="581.0"><tspan x="456.09" y="581.01"><a target="_blank" style="fill: #858585;" href="https://ourworldindata.org/co2-and-greenhouse-gas-emissions">OurWorldinData.org/co2-and-greenhouse-gas-emissions</a> | <a target="_blank" style="fill: #858585;" href="https://creativecommons.org/licenses/by/4.0/">CC BY</a></tspan></text></g></svg>