<svg xmlns="http://www.w3.org/2000/svg" version="1.1" style="font-family:Lato, &#x27;Helvetica Neue&#x27;, Helvetica, Arial, &#x27;Liberation Sans&#x27;, sans-serif;font-size:18px;background-color:#ffffff;text-rendering:geometricPrecision;-webkit-font-smoothing:antialiased" width="850" height="600" viewBox="0 0 850 600"><defs><style>@import url(https://ourworldindata.org/fonts.css)</style></defs><defs><pattern id="noDataPattern" patternUnits="userSpaceOnUse" width="4" height="4" patternTransform="rotate(-45 2 2)"><path d="M -1,2 l 6,0" stroke="#ccc" stroke-width="0.7"></path></pattern></defs><rect class="background-fill" fill="#ffffff" width="850" height="600"></rect><g id="header" class="HeaderView"><g id="logo" transform="translate(769, 16) scale(1)"><svg className="owidLogo" xmlns="http://www.w3.org/2000/svg" width="65" height="36" viewBox="0 0 65 36"  fill="none"><path fill="#002147" d="M0 0h64.8v36H0z"/><path fill="#CE261E" d="M0 33.3h64.8V36H0z"/><path fill="#fff" d="M13.796 10.575c0 .636-.106 1.226-.318 1.77a4.193 4.193 0 0 1-.894 1.404 4.084 4.084 0 0 1-1.386.93c-.54.22-1.138.33-1.794.33-.656 0-1.256-.11-1.8-.33a4.149 4.149 0 0 1-1.392-.93 4.193 4.193 0 0 1-.894-1.404A4.833 4.833 0 0 1 5 10.575c0-.636.106-1.224.318-1.764a4.18 4.18 0 0 1 .894-1.41 4.076 4.076 0 0 1 1.392-.924 4.684 4.684 0 0 1 1.8-.336c.656 0 1.254.112 1.794.336.54.224 1.002.534 1.386.93.384.392.682.86.894 1.404.212.54.318 1.128.318 1.764Zm-1.656 0c0-.476-.064-.902-.192-1.278a2.671 2.671 0 0 0-.54-.966 2.332 2.332 0 0 0-.864-.606 2.94 2.94 0 0 0-1.14-.21c-.424 0-.806.07-1.146.21-.34.14-.63.342-.87.606a2.742 2.742 0 0 0-.546.966 3.955 3.955 0 0 0-.192 1.278c0 .476.064.904.192 1.284.128.376.31.696.546.96.24.26.53.46.87.6.34.14.722.21 1.146.21.424 0 .804-.07 1.14-.21.34-.14.628-.34.864-.6.236-.264.416-.584.54-.96a4.01 4.01 0 0 0 .192-1.284ZM16.104 8.757v3.912c0 .376.086.668.258.876.176.204.438.306.786.306.256 0 .496-.056.72-.168a2.58 2.58 0 0 0 .636-.474V8.757h1.482v6.156h-.906c-.192 0-.318-.09-.378-.27l-.102-.492a4.65 4.65 0 0 1-.396.354 2.577 2.577 0 0 1-.438.27 2.35 2.35 0 0 1-.498.168 2.345 2.345 0 0 1-.57.066c-.336 0-.634-.056-.894-.168a1.821 1.821 0 0 1-.648-.486 2.157 2.157 0 0 1-.402-.738 3.233 3.233 0 0 1-.132-.948V8.757h1.482ZM21.328 14.913V8.757h.87c.152 0 .258.028.318.084.06.056.1.152.12.288l.09.744c.22-.38.478-.68.774-.9.296-.22.628-.33.996-.33.304 0 .556.07.756.21l-.192 1.11c-.012.072-.038.124-.078.156a.278.278 0 0 1-.162.042 1.01 1.01 0 0 1-.246-.042 1.646 1.646 0 0 0-.414-.042c-.308 0-.572.086-.792.258-.22.168-.406.416-.558.744v3.834h-1.482ZM27.347 6.237h1.356a.57.57 0 0 1 .348.102c.096.064.16.152.192.264l1.476 5.19c.036.128.068.268.096.42.032.148.062.306.09.474a5.968 5.968 0 0 1 .228-.894l1.704-5.19a.575.575 0 0 1 .186-.252.543.543 0 0 1 .348-.114h.474a.57.57 0 0 1 .348.102.497.497 0 0 1 .192.264l1.692 5.19c.088.256.164.54.228.852.028-.156.056-.306.084-.45.032-.144.064-.278.096-.402l1.476-5.19c.028-.1.09-.186.186-.258a.563.563 0 0 1 .348-.108h1.266l-2.694 8.676h-1.458l-1.896-5.928-.078-.246a9.504 9.504 0 0 1-.072-.282c-.024.1-.05.194-.078.282-.024.088-.048.17-.072.246l-1.914 5.928H30.04l-2.694-8.676ZM42.771 8.661c.46 0 .876.074 1.248.222.376.148.696.358.96.63s.468.604.612.996c.144.392.216.83.216 1.314 0 .488-.072.928-.216 1.32a2.85 2.85 0 0 1-.612 1.002 2.653 2.653 0 0 1-.96.636 3.35 3.35 0 0 1-1.248.222c-.46 0-.878-.074-1.254-.222a2.712 2.712 0 0 1-.966-.636 2.922 2.922 0 0 1-.618-1.002 3.807 3.807 0 0 1-.216-1.32c0-.484.072-.922.216-1.314.148-.392.354-.724.618-.996.268-.272.59-.482.966-.63a3.397 3.397 0 0 1 1.254-.222Zm0 5.202c.512 0 .89-.172 1.134-.516.248-.344.372-.848.372-1.512s-.124-1.17-.372-1.518c-.244-.348-.622-.522-1.134-.522-.52 0-.904.176-1.152.528-.248.348-.372.852-.372 1.512s.124 1.164.372 1.512c.248.344.632.516 1.152.516ZM46.723 14.913V8.757h.87c.152 0 .258.028.318.084.06.056.1.152.12.288l.09.744c.22-.38.478-.68.774-.9.296-.22.628-.33.996-.33.304 0 .556.07.756.21l-.192 1.11c-.012.072-.038.124-.078.156a.278.278 0 0 1-.162.042 1.01 1.01 0 0 1-.246-.042 1.646 1.646 0 0 0-.414-.042c-.308 0-.572.086-.792.258-.22.168-.406.416-.558.744v3.834h-1.482ZM52.96 5.997v8.916h-1.482V5.997h1.482ZM58.732 14.913c-.192 0-.318-.09-.378-.27l-.12-.594a3.68 3.68 0 0 1-.402.39c-.14.116-.292.216-.456.3-.16.084-.334.148-.522.192a2.372 2.372 0 0 1-.6.072c-.336 0-.644-.07-.924-.21a2.098 2.098 0 0 1-.726-.606 3.033 3.033 0 0 1-.468-.99 5.072 5.072 0 0 1-.162-1.344c0-.456.062-.88.186-1.272s.302-.732.534-1.02c.232-.288.51-.512.834-.672a2.384 2.384 0 0 1 1.092-.246 2.103 2.103 0 0 1 1.536.606V5.997h1.482v8.916h-.906Zm-1.974-1.086c.308 0 .57-.064.786-.192.216-.128.42-.31.612-.546v-2.76a1.452 1.452 0 0 0-.552-.432 1.597 1.597 0 0 0-.636-.126c-.224 0-.428.042-.612.126a1.21 1.21 0 0 0-.462.384c-.124.168-.22.384-.288.648-.068.26-.102.568-.102.924 0 .36.028.666.084.918.06.248.144.452.252.612.108.156.24.27.396.342.156.068.33.102.522.102ZM16.331 20.757v6.156H14.85v-6.156h1.481Zm.223-1.794a.844.844 0 0 1-.078.36.963.963 0 0 1-.21.294.995.995 0 0 1-.3.204.963.963 0 0 1-.372.072.948.948 0 0 1-.367-.072 1.018 1.018 0 0 1-.498-.498.963.963 0 0 1 0-.732.995.995 0 0 1 .205-.3.929.929 0 0 1 .293-.198.899.899 0 0 1 .738 0 .912.912 0 0 1 .3.198.943.943 0 0 1 .288.672ZM17.771 26.913v-6.156h.906c.192 0 .318.09.378.27l.102.486a2.934 2.934 0 0 1 .828-.618c.156-.076.322-.134.498-.174.176-.04.368-.06.576-.06.336 0 .634.058.894.174.26.112.476.272.648.48.176.204.308.45.396.738.092.284.138.598.138.942v3.918h-1.482v-3.918c0-.376-.088-.666-.264-.87-.172-.208-.432-.312-.78-.312-.256 0-.496.058-.72.174a2.58 2.58 0 0 0-.636.474v4.452h-1.482ZM34.22 22.575c0 .636-.106 1.22-.318 1.752-.212.532-.51.99-.894 1.374a4 4 0 0 1-1.386.894 4.87 4.87 0 0 1-1.794.318h-3.312v-8.676h3.312a4.79 4.79 0 0 1 1.794.324 4 4 0 0 1 1.386.894c.384.38.682.836.894 1.368.212.532.318 1.116.318 1.752Zm-1.65 0c0-.476-.064-.902-.192-1.278a2.68 2.68 0 0 0-.546-.96 2.332 2.332 0 0 0-.864-.606 2.94 2.94 0 0 0-1.14-.21h-1.686v6.108h1.686c.424 0 .804-.07 1.14-.21.34-.14.628-.34.864-.6a2.75 2.75 0 0 0 .546-.96 4.01 4.01 0 0 0 .192-1.284ZM39.98 26.913h-.665c-.14 0-.25-.02-.33-.06-.08-.044-.14-.13-.18-.258l-.132-.438c-.156.14-.31.264-.462.372a2.804 2.804 0 0 1-.462.264c-.16.072-.33.126-.51.162-.18.036-.38.054-.6.054-.26 0-.5-.034-.72-.102a1.618 1.618 0 0 1-.57-.318 1.448 1.448 0 0 1-.366-.522 1.852 1.852 0 0 1-.132-.726c0-.232.06-.46.18-.684.124-.228.328-.432.612-.612.284-.184.662-.336 1.134-.456.472-.12 1.058-.188 1.758-.204v-.36c0-.412-.088-.716-.264-.912-.172-.2-.424-.3-.756-.3a1.837 1.837 0 0 0-1.02.276c-.116.068-.224.13-.324.186a.664.664 0 0 1-.33.084.429.429 0 0 1-.258-.078.614.614 0 0 1-.174-.192l-.27-.474c.708-.648 1.562-.972 2.562-.972.36 0 .68.06.96.18.284.116.524.28.72.492.196.208.344.458.444.75.104.292.156.612.156.96v3.888Zm-2.88-.924c.153 0 .293-.014.42-.042.129-.028.249-.07.36-.126.117-.056.227-.124.33-.204.109-.084.217-.182.325-.294v-1.038c-.432.02-.794.058-1.086.114-.288.052-.52.12-.696.204a.923.923 0 0 0-.378.294.664.664 0 0 0-.108.366c0 .26.076.446.228.558.156.112.358.168.606.168ZM43.22 27.01c-.532 0-.942-.15-1.23-.45-.288-.305-.432-.723-.432-1.255v-3.438h-.624a.31.31 0 0 1-.21-.078c-.056-.052-.084-.13-.084-.234v-.588l.99-.162.312-1.68a.302.302 0 0 1 .108-.186.365.365 0 0 1 .222-.066h.768v1.938h1.62v1.056h-1.62v3.336c0 .192.048.342.144.45a.488.488 0 0 0 .384.162c.092 0 .168-.01.228-.03.064-.024.118-.048.162-.072.048-.024.09-.046.126-.066a.194.194 0 0 1 .108-.036.16.16 0 0 1 .108.036c.028.02.058.052.09.096l.444.72c-.216.18-.464.316-.744.408a2.77 2.77 0 0 1-.87.138ZM50.423 26.913h-.666c-.14 0-.25-.02-.33-.06-.08-.044-.14-.13-.18-.258l-.132-.438c-.156.14-.31.264-.462.372a2.804 2.804 0 0 1-.462.264c-.16.072-.33.126-.51.162-.18.036-.38.054-.6.054-.26 0-.5-.034-.72-.102a1.618 1.618 0 0 1-.57-.318 1.448 1.448 0 0 1-.366-.522 1.852 1.852 0 0 1-.132-.726c0-.232.06-.46.18-.684.124-.228.328-.432.612-.612.284-.184.662-.336 1.134-.456.472-.12 1.058-.188 1.758-.204v-.36c0-.412-.088-.716-.264-.912-.172-.2-.424-.3-.756-.3a1.837 1.837 0 0 0-1.02.276c-.116.068-.224.13-.324.186a.664.664 0 0 1-.33.084.429.429 0 0 1-.258-.078.614.614 0 0 1-.174-.192l-.27-.474c.708-.648 1.562-.972 2.562-.972.36 0 .68.06.96.18.284.116.524.28.72.492.196.208.344.458.444.75.104.292.156.612.156.96v3.888Zm-2.88-.924c.152 0 .292-.014.42-.042.128-.028.248-.07.36-.126.116-.056.226-.124.33-.204.108-.084.216-.182.324-.294v-1.038c-.432.02-.794.058-1.086.114-.288.052-.52.12-.696.204a.923.923 0 0 0-.378.294.664.664 0 0 0-.108.366c0 .26.076.446.228.558.156.112.358.168.606.168Z"/></svg></g><a id="title" href="https://ourworldindata.org/grapher/annual-share-of-co2-emissions?yScale=log&amp;facet=entity&amp;uniformYAxis=0" style="font-family:&#x27;Playfair Display&#x27;, Georgia, &#x27;Times New Roman&#x27;, &#x27;Liberation Serif&#x27;, serif" target="_blank" rel="noopener"><text font-size="24.00" font-weight="600" x="16.0" y="39.3" fill="#5b5b5b"><tspan x="16" y="39.28">Share of global CO₂ emissions</tspan></text></a><g id="subtitle" class="markdown-text-wrap"><text x="16.0" y="62.4" style="font-size:14px;line-height:1.2" fill="#5b5b5b"><tspan x="16" y="62.4">Carbon dioxide (CO₂) emissions from <tspan class="dod-span" data-id="fossilemissions">fossil fuels and industry</tspan>. Land-use change is not included.</tspan></text></g></g><g id="chart-area" style="pointer-events:none"><text x="52.2609375" y="92.56875" fill="#5b5b5b" font-size="14.625" style="font-weight:700">China<title>China</title></text><g class="LineChart"><defs><clipPath id="boundsClip-1"><rect x="42.2609375" y="89.88125" width="282" height="146"></rect></clipPath></defs><rect x="16" y="99.88125" width="262" height="126" fill-opacity="0"></rect><g id="horizontal-axis" class="HorizontalAxis"><g id="tick-marks"><line id="1750" x1="52.3" y1="207.4125" x2="52.3" y2="212.9125" stroke="#999" stroke-width="1"></line><line id="2023" x1="277" y1="207.4125" x2="277" y2="212.9125" stroke="#999" stroke-width="1"></line><line id="1850" x1="134.6" y1="207.4125" x2="134.6" y2="212.9125" stroke="#999" stroke-width="1"></line><line id="1900" x1="175.7" y1="207.4125" x2="175.7" y2="212.9125" stroke="#999" stroke-width="1"></line><line id="1950" x1="216.9" y1="207.4125" x2="216.9" y2="212.9125" stroke="#999" stroke-width="1"></line></g><g id="tick-labels"><text x="52.2609375" y="223.88125" fill="#5b5b5b" text-anchor="start" font-size="10.96875">1750</text><text x="277" y="223.88125" fill="#5b5b5b" text-anchor="end" font-size="10.96875">2023</text><text x="134.6" y="223.88125" fill="#5b5b5b" text-anchor="middle" font-size="10.96875">1850</text><text x="175.7" y="223.88125" fill="#5b5b5b" text-anchor="middle" font-size="10.96875">1900</text><text x="216.9" y="223.88125" fill="#5b5b5b" text-anchor="middle" font-size="10.96875">1950</text></g></g><g id="vertical-axis" class="VerticalAxis"><g id="tick-labels"><text x="47.26" y="191.8" dy=".32em" text-anchor="end" fill="#5b5b5b" font-size="10.96875">1%</text><text x="47.26" y="134.5" dy=".32em" text-anchor="end" fill="#5b5b5b" font-size="10.96875">10%</text><text x="47.26" y="174.6" dy=".32em" text-anchor="end" fill="#5b5b5b" font-size="10.96875">2%</text><text x="47.26" y="151.7" dy=".32em" text-anchor="end" fill="#5b5b5b" font-size="10.96875">5%</text><text x="47.26" y="117.2" dy=".32em" text-anchor="end" fill="#5b5b5b" font-size="10.96875">20%</text></g></g><g id="horizontal-grid-lines" class="AxisGridLines horizontalLines"><line id="1%" x1="52.26" y1="191.8" x2="277.00" y2="191.8" stroke="#ddd" stroke-width="1" stroke-dasharray="2,1"></line><line id="2%" x1="52.26" y1="174.6" x2="277.00" y2="174.6" stroke="#ddd" stroke-width="1" stroke-dasharray="2,1"></line><line id="5%" x1="52.26" y1="151.7" x2="277.00" y2="151.7" stroke="#ddd" stroke-width="1" stroke-dasharray="2,1"></line><line id="10%" x1="52.26" y1="134.5" x2="277.00" y2="134.5" stroke="#ddd" stroke-width="1" stroke-dasharray="2,1"></line><line id="20%" x1="52.26" y1="117.2" x2="277.00" y2="117.2" stroke="#ddd" stroke-width="1" stroke-dasharray="2,1"></line></g><g clip-path="url(#boundsClip-1)"><g class="Lines"><rect x="52" y="106" width="225" height="102" fill="rgba(255,255,255,0)" opacity="0"></rect><path fill="none" stroke-linecap="butt" stroke-linejoin="round" stroke="#ffffff" id="outline__Share-of-global-annual-CO₂-emissions" stroke-width="2.5" d="M181.5 201.2L182.3 196.9L183.2 196.3L184 196.7L184.8 197.5L185.6 207.9L186.4 201.1L187.3 196.3L188.1 197.1L188.9 194.8L189.7 194.4L190.6 192L191.4 186.2L192.2 188.6L193 186.3L193.9 186.7L194.7 186.1L195.5 184.9L196.3 186.7L197.1 187.6L198 188.5L198.8 187.5L199.6 188.9L200.4 186.2L201.3 182.3L202.1 180.5L202.9 180L203.7 178.5L204.6 175.9L205.4 177.3L206.2 180.5L207 182.6L207.8 179.1L208.7 176.4L209.5 171.3L210.3 168.4L211.1 172.8L212 174.6L212.8 185.2L213.6 197.9L214.4 197.1L215.3 200.6L216.1 187.4L216.9 184.7L217.7 180.1L218.6 174.8L219.4 174.4L220.2 170.3L221 168.4L221.8 166.9L222.7 163.4L223.5 146.2L224.3 139.6L225.1 138.5L226 146.9L226.8 153.2L227.6 154.6L228.4 155.8L229.3 154.8L230.1 153.6L230.9 158.8L231.7 158.3L232.5 154.8L233.4 149.7L234.2 147.8L235 147.3L235.8 147.6L236.7 147L237.5 143.6L238.3 144L239.1 142.5L240 140.6L240.8 140.7L241.6 141.1L242.4 140.8L243.2 138.5L244.1 137.3L244.9 136L245.7 134.9L246.5 134L247.4 133L248.2 132.1L249 132.1L249.8 132.2L250.7 131.6L251.5 129.7L252.3 128.2L253.1 127L253.9 125.6L254.8 125.3L255.6 125.4L256.4 126.4L257.2 125.5L258.1 125.5L258.9 125.2L259.7 123.4L260.5 120.5L261.4 119.5L262.2 117.4L263 115.7L263.8 114.7L264.7 113.3L265.5 111.6L266.3 110.8L267.1 109.1L267.9 108.9L268.8 108.6L269.6 108.7L270.4 108.9L271.2 109.2L272.1 109L272.9 108.7L273.7 108L274.5 106.2L275.4 106.3L276.2 106.7L277 105.9"></path><path fill="none" stroke-linecap="butt" stroke-linejoin="round" stroke="#4c6a9c" id="line__Share-of-global-annual-CO₂-emissions" stroke-width="1.5" stroke-opacity="1" d="M181.5 201.2L182.3 196.9L183.2 196.3L184 196.7L184.8 197.5L185.6 207.9L186.4 201.1L187.3 196.3L188.1 197.1L188.9 194.8L189.7 194.4L190.6 192L191.4 186.2L192.2 188.6L193 186.3L193.9 186.7L194.7 186.1L195.5 184.9L196.3 186.7L197.1 187.6L198 188.5L198.8 187.5L199.6 188.9L200.4 186.2L201.3 182.3L202.1 180.5L202.9 180L203.7 178.5L204.6 175.9L205.4 177.3L206.2 180.5L207 182.6L207.8 179.1L208.7 176.4L209.5 171.3L210.3 168.4L211.1 172.8L212 174.6L212.8 185.2L213.6 197.9L214.4 197.1L215.3 200.6L216.1 187.4L216.9 184.7L217.7 180.1L218.6 174.8L219.4 174.4L220.2 170.3L221 168.4L221.8 166.9L222.7 163.4L223.5 146.2L224.3 139.6L225.1 138.5L226 146.9L226.8 153.2L227.6 154.6L228.4 155.8L229.3 154.8L230.1 153.6L230.9 158.8L231.7 158.3L232.5 154.8L233.4 149.7L234.2 147.8L235 147.3L235.8 147.6L236.7 147L237.5 143.6L238.3 144L239.1 142.5L240 140.6L240.8 140.7L241.6 141.1L242.4 140.8L243.2 138.5L244.1 137.3L244.9 136L245.7 134.9L246.5 134L247.4 133L248.2 132.1L249 132.1L249.8 132.2L250.7 131.6L251.5 129.7L252.3 128.2L253.1 127L253.9 125.6L254.8 125.3L255.6 125.4L256.4 126.4L257.2 125.5L258.1 125.5L258.9 125.2L259.7 123.4L260.5 120.5L261.4 119.5L262.2 117.4L263 115.7L263.8 114.7L264.7 113.3L265.5 111.6L266.3 110.8L267.1 109.1L267.9 108.9L268.8 108.6L269.6 108.7L270.4 108.9L271.2 109.2L272.1 109L272.9 108.7L273.7 108L274.5 106.2L275.4 106.3L276.2 106.7L277 105.9"></path></g></g></g><text x="329.2609375" y="92.56875" fill="#5b5b5b" font-size="14.625" style="font-weight:700">India<title>India</title></text><g class="LineChart"><defs><clipPath id="boundsClip-2"><rect x="319.2609375" y="89.88125" width="282" height="146"></rect></clipPath></defs><rect x="293" y="99.88125" width="262" height="126" fill-opacity="0"></rect><g id="horizontal-axis" class="HorizontalAxis"><g id="tick-marks"><line id="1750" x1="329.3" y1="207.4125" x2="329.3" y2="212.9125" stroke="#999" stroke-width="1"></line><line id="2023" x1="554" y1="207.4125" x2="554" y2="212.9125" stroke="#999" stroke-width="1"></line><line id="1850" x1="411.6" y1="207.4125" x2="411.6" y2="212.9125" stroke="#999" stroke-width="1"></line><line id="1900" x1="452.7" y1="207.4125" x2="452.7" y2="212.9125" stroke="#999" stroke-width="1"></line><line id="1950" x1="493.9" y1="207.4125" x2="493.9" y2="212.9125" stroke="#999" stroke-width="1"></line></g><g id="tick-labels"><text x="329.2609375" y="223.88125" fill="#5b5b5b" text-anchor="start" font-size="10.96875">1750</text><text x="554" y="223.88125" fill="#5b5b5b" text-anchor="end" font-size="10.96875">2023</text><text x="411.6" y="223.88125" fill="#5b5b5b" text-anchor="middle" font-size="10.96875">1850</text><text x="452.7" y="223.88125" fill="#5b5b5b" text-anchor="middle" font-size="10.96875">1900</text><text x="493.9" y="223.88125" fill="#5b5b5b" text-anchor="middle" font-size="10.96875">1950</text></g></g><g id="vertical-axis" class="VerticalAxis"><g id="tick-labels"><text x="324.26" y="157.6" dy=".32em" text-anchor="end" fill="#5b5b5b" font-size="10.96875">1%</text><text x="324.26" y="197.3" dy=".32em" text-anchor="end" fill="#5b5b5b" font-size="10.96875">0.2%</text><text x="324.26" y="174.7" dy=".32em" text-anchor="end" fill="#5b5b5b" font-size="10.96875">0.5%</text><text x="324.26" y="140.4" dy=".32em" text-anchor="end" fill="#5b5b5b" font-size="10.96875">2%</text><text x="324.26" y="117.8" dy=".32em" text-anchor="end" fill="#5b5b5b" font-size="10.96875">5%</text></g></g><g id="horizontal-grid-lines" class="AxisGridLines horizontalLines"><line id="0.2%" x1="329.26" y1="197.3" x2="554.00" y2="197.3" stroke="#ddd" stroke-width="1" stroke-dasharray="2,1"></line><line id="0.5%" x1="329.26" y1="174.7" x2="554.00" y2="174.7" stroke="#ddd" stroke-width="1" stroke-dasharray="2,1"></line><line id="1%" x1="329.26" y1="157.6" x2="554.00" y2="157.6" stroke="#ddd" stroke-width="1" stroke-dasharray="2,1"></line><line id="2%" x1="329.26" y1="140.4" x2="554.00" y2="140.4" stroke="#ddd" stroke-width="1" stroke-dasharray="2,1"></line><line id="5%" x1="329.26" y1="117.8" x2="554.00" y2="117.8" stroke="#ddd" stroke-width="1" stroke-dasharray="2,1"></line></g><g clip-path="url(#boundsClip-2)"><g class="Lines"><rect x="329" y="106" width="225" height="102" fill="rgba(255,255,255,0)" opacity="0"></rect><path fill="none" stroke-linecap="butt" stroke-linejoin="round" stroke="#ffffff" id="outline__Share-of-global-annual-CO₂-emissions" stroke-width="2.5" d="M418.2 206.5L419 196.1L419.8 198.1L420.6 205.7L421.5 203.7L422.3 202.7L423.1 206L423.9 207.9L424.8 205.7L434.6 191.9L435.5 194.8L436.3 195L437.1 196.5L437.9 193.4L438.7 192.4L439.6 189.9L440.4 192.6L441.2 190.1L442 188.8L442.9 188.7L443.7 184.6L444.5 184.3L445.3 183.6L446.2 181.5L447 179.8L447.8 180.3L448.6 176.2L449.5 175.1L450.3 174.2L451.1 173L451.9 172.8L452.7 169.9L453.6 168.2L454.4 166.4L455.2 168.1L456 165.6L456.9 166.6L457.7 164.1L458.5 164.7L459.3 160.3L460.2 162.1L461 164L461.8 163L462.6 160.8L463.4 160.3L464.3 157.7L465.1 156.2L465.9 157.9L466.7 157.9L467.6 154.7L468.4 149L469.2 157.9L470 152.9L470.9 154.5L471.7 156.9L472.5 155.3L473.3 155.9L474.1 155.5L475 156.5L475.8 157.5L476.6 158.3L477.4 155.9L478.3 155.3L479.1 154.5L479.9 156.3L480.7 155.6L481.6 155.7L482.4 158.4L483.2 157.5L484 153.3L484.8 155.1L485.7 155.9L486.5 155.9L487.3 155.8L488.1 159.7L489 159.5L489.8 152.4L490.6 154.5L491.4 156.9L492.3 158.2L493.1 155.7L493.9 156.8L494.7 157.5L495.6 156.5L496.4 156.8L497.2 156L498 156.2L498.8 156.8L499.7 154.8L500.5 154.4L501.3 154.2L502.1 153.4L503 151.5L503.8 150L504.6 149.5L505.4 151.3L506.3 150L507.1 150.3L507.9 151L508.7 150.2L509.5 151.3L510.4 152.7L511.2 152.3L512 152L512.8 152.6L513.7 151.7L514.5 149.7L515.3 150L516.1 149.3L517 149.6L517.8 149.1L518.6 147.6L519.4 145.1L520.2 144.1L521.1 142.3L521.9 142.5L522.7 141L523.5 139.6L524.4 138.7L525.2 137.8L526 135.8L526.8 134.5L527.7 133.5L528.5 131.2L529.3 130.6L530.1 129.6L530.9 128.6L531.8 127.4L532.6 126.5L533.4 125.9L534.2 124.2L535.1 124.2L535.9 124L536.7 123.8L537.5 124.2L538.4 123.6L539.2 123.1L540 122L540.8 120.9L541.7 119.6L542.5 117.3L543.3 117.7L544.1 117.3L544.9 115.4L545.8 114.8L546.6 113.1L547.4 112.1L548.2 110.8L549.1 110.4L549.9 109.3L550.7 109.3L551.5 109.9L552.4 108.7L553.2 107.5L554 105.9"></path><path fill="none" stroke-linecap="butt" stroke-linejoin="round" stroke="#4c6a9c" id="line__Share-of-global-annual-CO₂-emissions" stroke-width="1.5" stroke-opacity="1" d="M418.2 206.5L419 196.1L419.8 198.1L420.6 205.7L421.5 203.7L422.3 202.7L423.1 206L423.9 207.9L424.8 205.7L434.6 191.9L435.5 194.8L436.3 195L437.1 196.5L437.9 193.4L438.7 192.4L439.6 189.9L440.4 192.6L441.2 190.1L442 188.8L442.9 188.7L443.7 184.6L444.5 184.3L445.3 183.6L446.2 181.5L447 179.8L447.8 180.3L448.6 176.2L449.5 175.1L450.3 174.2L451.1 173L451.9 172.8L452.7 169.9L453.6 168.2L454.4 166.4L455.2 168.1L456 165.6L456.9 166.6L457.7 164.1L458.5 164.7L459.3 160.3L460.2 162.1L461 164L461.8 163L462.6 160.8L463.4 160.3L464.3 157.7L465.1 156.2L465.9 157.9L466.7 157.9L467.6 154.7L468.4 149L469.2 157.9L470 152.9L470.9 154.5L471.7 156.9L472.5 155.3L473.3 155.9L474.1 155.5L475 156.5L475.8 157.5L476.6 158.3L477.4 155.9L478.3 155.3L479.1 154.5L479.9 156.3L480.7 155.6L481.6 155.7L482.4 158.4L483.2 157.5L484 153.3L484.8 155.1L485.7 155.9L486.5 155.9L487.3 155.8L488.1 159.7L489 159.5L489.8 152.4L490.6 154.5L491.4 156.9L492.3 158.2L493.1 155.7L493.9 156.8L494.7 157.5L495.6 156.5L496.4 156.8L497.2 156L498 156.2L498.8 156.8L499.7 154.8L500.5 154.4L501.3 154.2L502.1 153.4L503 151.5L503.8 150L504.6 149.5L505.4 151.3L506.3 150L507.1 150.3L507.9 151L508.7 150.2L509.5 151.3L510.4 152.7L511.2 152.3L512 152L512.8 152.6L513.7 151.7L514.5 149.7L515.3 150L516.1 149.3L517 149.6L517.8 149.1L518.6 147.6L519.4 145.1L520.2 144.1L521.1 142.3L521.9 142.5L522.7 141L523.5 139.6L524.4 138.7L525.2 137.8L526 135.8L526.8 134.5L527.7 133.5L528.5 131.2L529.3 130.6L530.1 129.6L530.9 128.6L531.8 127.4L532.6 126.5L533.4 125.9L534.2 124.2L535.1 124.2L535.9 124L536.7 123.8L537.5 124.2L538.4 123.6L539.2 123.1L540 122L540.8 120.9L541.7 119.6L542.5 117.3L543.3 117.7L544.1 117.3L544.9 115.4L545.8 114.8L546.6 113.1L547.4 112.1L548.2 110.8L549.1 110.4L549.9 109.3L550.7 109.3L551.5 109.9L552.4 108.7L553.2 107.5L554 105.9"></path></g></g></g><text x="606.2609375" y="92.56875" fill="#5b5b5b" font-size="14.625" style="font-weight:700">United Kingdom<title>United Kingdom</title></text><g class="LineChart"><defs><clipPath id="boundsClip-3"><rect x="596.2609375" y="89.88125" width="282" height="146"></rect></clipPath></defs><rect x="570" y="99.88125" width="262" height="126" fill-opacity="0"></rect><g id="horizontal-axis" class="HorizontalAxis"><g id="tick-marks"><line id="1750" x1="606.3" y1="207.4125" x2="606.3" y2="212.9125" stroke="#999" stroke-width="1"></line><line id="2023" x1="831" y1="207.4125" x2="831" y2="212.9125" stroke="#999" stroke-width="1"></line><line id="1850" x1="688.6" y1="207.4125" x2="688.6" y2="212.9125" stroke="#999" stroke-width="1"></line><line id="1900" x1="729.7" y1="207.4125" x2="729.7" y2="212.9125" stroke="#999" stroke-width="1"></line><line id="1950" x1="770.9" y1="207.4125" x2="770.9" y2="212.9125" stroke="#999" stroke-width="1"></line></g><g id="tick-labels"><text x="606.2609375" y="223.88125" fill="#5b5b5b" text-anchor="start" font-size="10.96875">1750</text><text x="831" y="223.88125" fill="#5b5b5b" text-anchor="end" font-size="10.96875">2023</text><text x="688.6" y="223.88125" fill="#5b5b5b" text-anchor="middle" font-size="10.96875">1850</text><text x="729.7" y="223.88125" fill="#5b5b5b" text-anchor="middle" font-size="10.96875">1900</text><text x="770.9" y="223.88125" fill="#5b5b5b" text-anchor="middle" font-size="10.96875">1950</text></g></g><g id="vertical-axis" class="VerticalAxis"><g id="tick-labels"><text x="601.26" y="203.4" dy=".32em" text-anchor="end" fill="#5b5b5b" font-size="10.96875">1%</text><text x="601.26" y="154.6" dy=".32em" text-anchor="end" fill="#5b5b5b" font-size="10.96875">10%</text><text x="601.26" y="105.9" dy=".32em" text-anchor="end" fill="#5b5b5b" font-size="10.96875">100%</text></g></g><g id="horizontal-grid-lines" class="AxisGridLines horizontalLines"><line id="1%" x1="606.26" y1="203.4" x2="831.00" y2="203.4" stroke="#ddd" stroke-width="1" stroke-dasharray="2,1"></line><line id="10%" x1="606.26" y1="154.6" x2="831.00" y2="154.6" stroke="#ddd" stroke-width="1" stroke-dasharray="2,1"></line><line id="100%" x1="606.26" y1="105.9" x2="831.00" y2="105.9" stroke="#ddd" stroke-width="1" stroke-dasharray="2,1"></line></g><g clip-path="url(#boundsClip-3)"><g class="Lines"><rect x="606" y="106" width="225" height="102" fill="rgba(255,255,255,0)" opacity="0"></rect><path fill="none" stroke-linecap="butt" stroke-linejoin="round" stroke="#ffffff" id="outline__Share-of-global-annual-CO₂-emissions" stroke-width="2.5" d="M606.3 105.9L607.1 105.9L607.9 105.9L608.7 105.9L609.6 105.9L610.4 105.9L611.2 105.9L612 105.9L612.8 105.9L613.7 105.9L614.5 105.9L615.3 105.9L616.1 105.9L617 105.9L617.8 105.9L618.6 105.9L619.4 105.9L620.3 105.9L621.1 105.9L621.9 105.9L622.7 105.9L623.5 105.9L624.4 105.9L625.2 105.9L626 105.9L626.8 105.9L627.7 105.9L628.5 105.9L629.3 105.9L630.1 105.9L631 105.9L631.8 105.9L632.6 105.9L633.4 105.9L634.3 105.9L635.1 105.9L635.9 105.9L636.7 105.9L637.5 105.9L638.4 105.9L639.2 105.9L640 105.9L640.8 106.3L641.7 106.3L642.5 106.3L643.3 106.3L644.1 106.4L645 106.4L645.8 106.4L646.6 106.4L647.4 106.8L648.2 106.7L649.1 111.9L649.9 106.8L650.7 108.7L651.5 107.3L652.4 107.1L653.2 108.1L654 107L654.8 107L655.7 108.2L656.5 108.1L657.3 108.1L658.1 108L658.9 108L659.8 108.2L660.6 109L661.4 109.4L662.2 109.3L663.1 109.3L663.9 109.6L664.7 109.7L665.5 109.7L666.4 109.9L667.2 109.7L668 110.2L668.8 110.2L669.6 110.8L670.5 110.9L671.3 110.5L672.1 111.7L672.9 111.3L673.8 111.6L674.6 112.1L675.4 112.2L676.2 112.2L677.1 112.4L677.9 113.2L678.7 113.6L679.5 113.7L680.4 114L681.2 114.5L682 114.7L682.8 114.4L683.6 114.6L684.5 115.2L685.3 116.5L686.1 116.8L686.9 115.7L687.8 115.5L688.6 115.9L689.4 117.2L690.2 118.2L691.1 119.3L691.9 118.7L692.7 120.6L693.5 120.4L694.3 121L695.2 121.8L696 120.8L696.8 120.3L697.6 120.5L698.5 121.6L699.3 121.6L700.1 121.7L700.9 121.8L701.8 121.8L702.6 122.7L703.4 123.7L704.2 123.9L705 123.9L705.9 124L706.7 125.1L707.5 125.6L708.3 124.8L709.2 125.4L710 125.7L710.8 125.7L711.6 126.3L712.5 127.6L713.3 128.3L714.1 128L714.9 129L715.7 129.4L716.6 130.3L717.4 130.7L718.2 131.2L719 131.7L719.9 133L720.7 132.3L721.5 133.6L722.3 134.1L723.2 134.7L724 136.8L724.8 134.7L725.6 135.7L726.5 135.8L727.3 136.2L728.1 137.3L728.9 137.7L729.7 138.5L730.6 139.7L731.4 139.4L732.2 141L733 141.2L733.9 142.2L734.7 142.4L735.5 144.3L736.3 143.9L737.2 144.6L738 145.4L738.8 145.2L739.6 147.4L740.4 147.3L741.3 145.8L742.1 145.2L742.9 146.1L743.7 147.3L744.6 148.5L745.4 146L746.2 148.2L747 153.2L747.9 148.3L748.7 149.7L749.5 148.8L750.3 150.2L751.1 161.9L752 150.8L752.8 151.9L753.6 152.3L754.4 151.4L755.3 150.5L756.1 149.1L756.9 150.3L757.7 150.5L758.6 151.2L759.4 152L760.2 152.7L761 152.3L761.8 153.4L762.7 154.1L763.5 154.6L764.3 154.9L765.1 155.4L766 155.8L766.8 153.5L767.6 154.5L768.4 156L769.3 156.3L770.1 155.2L770.9 158.2L771.7 158L772.6 158.9L773.4 159L774.2 159L775 160L775.8 161.5L776.7 162.3L777.5 163.4L778.3 164.8L779.1 164.7L780 164.6L780.8 165.2L781.6 165.9L782.4 166.8L783.3 167.3L784.1 168.4L784.9 170L785.7 170.6L786.5 171.2L787.4 172.1L788.2 172.7L789 174.1L789.8 174.8L790.7 176.1L791.5 176.6L792.3 177.9L793.1 178.3L794 178.9L794.8 178.2L795.6 180.3L796.4 180.5L797.2 180.8L798.1 181L798.9 182.4L799.7 181.9L800.5 181.9L801.4 182.4L802.2 183.3L803 183.2L803.8 182.8L804.7 182.9L805.5 182.9L806.3 183.6L807.1 184L807.9 184.8L808.8 184.7L809.6 185.7L810.4 185.4L811.2 186.1L812.1 186.4L812.9 186.2L813.7 187.4L814.5 188L815.4 188.7L816.2 189.5L817 190.3L817.8 191.2L818.7 192.2L819.5 193.9L820.3 194.3L821.1 196.9L821.9 196.4L822.8 197L823.6 198.9L824.4 199.6L825.2 200.8L826.1 201.8L826.9 202.7L827.7 203.7L828.5 204.9L829.4 204.9L830.2 207L831 207.9"></path><path fill="none" stroke-linecap="butt" stroke-linejoin="round" stroke="#4c6a9c" id="line__Share-of-global-annual-CO₂-emissions" stroke-width="1.5" stroke-opacity="1" d="M606.3 105.9L607.1 105.9L607.9 105.9L608.7 105.9L609.6 105.9L610.4 105.9L611.2 105.9L612 105.9L612.8 105.9L613.7 105.9L614.5 105.9L615.3 105.9L616.1 105.9L617 105.9L617.8 105.9L618.6 105.9L619.4 105.9L620.3 105.9L621.1 105.9L621.9 105.9L622.7 105.9L623.5 105.9L624.4 105.9L625.2 105.9L626 105.9L626.8 105.9L627.7 105.9L628.5 105.9L629.3 105.9L630.1 105.9L631 105.9L631.8 105.9L632.6 105.9L633.4 105.9L634.3 105.9L635.1 105.9L635.9 105.9L636.7 105.9L637.5 105.9L638.4 105.9L639.2 105.9L640 105.9L640.8 106.3L641.7 106.3L642.5 106.3L643.3 106.3L644.1 106.4L645 106.4L645.8 106.4L646.6 106.4L647.4 106.8L648.2 106.7L649.1 111.9L649.9 106.8L650.7 108.7L651.5 107.3L652.4 107.1L653.2 108.1L654 107L654.8 107L655.7 108.2L656.5 108.1L657.3 108.1L658.1 108L658.9 108L659.8 108.2L660.6 109L661.4 109.4L662.2 109.3L663.1 109.3L663.9 109.6L664.7 109.7L665.5 109.7L666.4 109.9L667.2 109.7L668 110.2L668.8 110.2L669.6 110.8L670.5 110.9L671.3 110.5L672.1 111.7L672.9 111.3L673.8 111.6L674.6 112.1L675.4 112.2L676.2 112.2L677.1 112.4L677.9 113.2L678.7 113.6L679.5 113.7L680.4 114L681.2 114.5L682 114.7L682.8 114.4L683.6 114.6L684.5 115.2L685.3 116.5L686.1 116.8L686.9 115.7L687.8 115.5L688.6 115.9L689.4 117.2L690.2 118.2L691.1 119.3L691.9 118.7L692.7 120.6L693.5 120.4L694.3 121L695.2 121.8L696 120.8L696.8 120.3L697.6 120.5L698.5 121.6L699.3 121.6L700.1 121.7L700.9 121.8L701.8 121.8L702.6 122.7L703.4 123.7L704.2 123.9L705 123.9L705.9 124L706.7 125.1L707.5 125.6L708.3 124.8L709.2 125.4L710 125.7L710.8 125.7L711.6 126.3L712.5 127.6L713.3 128.3L714.1 128L714.9 129L715.7 129.4L716.6 130.3L717.4 130.7L718.2 131.2L719 131.7L719.9 133L720.7 132.3L721.5 133.6L722.3 134.1L723.2 134.7L724 136.8L724.8 134.7L725.6 135.7L726.5 135.8L727.3 136.2L728.1 137.3L728.9 137.7L729.7 138.5L730.6 139.7L731.4 139.4L732.2 141L733 141.2L733.9 142.2L734.7 142.4L735.5 144.3L736.3 143.9L737.2 144.6L738 145.4L738.8 145.2L739.6 147.4L740.4 147.3L741.3 145.8L742.1 145.2L742.9 146.1L743.7 147.3L744.6 148.5L745.4 146L746.2 148.2L747 153.2L747.9 148.3L748.7 149.7L749.5 148.8L750.3 150.2L751.1 161.9L752 150.8L752.8 151.9L753.6 152.3L754.4 151.4L755.3 150.5L756.1 149.1L756.9 150.3L757.7 150.5L758.6 151.2L759.4 152L760.2 152.7L761 152.3L761.8 153.4L762.7 154.1L763.5 154.6L764.3 154.9L765.1 155.4L766 155.8L766.8 153.5L767.6 154.5L768.4 156L769.3 156.3L770.1 155.2L770.9 158.2L771.7 158L772.6 158.9L773.4 159L774.2 159L775 160L775.8 161.5L776.7 162.3L777.5 163.4L778.3 164.8L779.1 164.7L780 164.6L780.8 165.2L781.6 165.9L782.4 166.8L783.3 167.3L784.1 168.4L784.9 170L785.7 170.6L786.5 171.2L787.4 172.1L788.2 172.7L789 174.1L789.8 174.8L790.7 176.1L791.5 176.6L792.3 177.9L793.1 178.3L794 178.9L794.8 178.2L795.6 180.3L796.4 180.5L797.2 180.8L798.1 181L798.9 182.4L799.7 181.9L800.5 181.9L801.4 182.4L802.2 183.3L803 183.2L803.8 182.8L804.7 182.9L805.5 182.9L806.3 183.6L807.1 184L807.9 184.8L808.8 184.7L809.6 185.7L810.4 185.4L811.2 186.1L812.1 186.4L812.9 186.2L813.7 187.4L814.5 188L815.4 188.7L816.2 189.5L817 190.3L817.8 191.2L818.7 192.2L819.5 193.9L820.3 194.3L821.1 196.9L821.9 196.4L822.8 197L823.6 198.9L824.4 199.6L825.2 200.8L826.1 201.8L826.9 202.7L827.7 203.7L828.5 204.9L829.4 204.9L830.2 207L831 207.9"></path></g></g></g><text x="52.2609375" y="255.56875000000002" fill="#5b5b5b" font-size="14.625" style="font-weight:700">United States<title>United States</title></text><g class="LineChart"><defs><clipPath id="boundsClip-4"><rect x="42.2609375" y="252.88125000000002" width="282" height="146"></rect></clipPath></defs><rect x="16" y="262.88125" width="262" height="126" fill-opacity="0"></rect><g id="horizontal-axis" class="HorizontalAxis"><g id="tick-marks"><line id="1750" x1="52.3" y1="370.4125" x2="52.3" y2="375.9125" stroke="#999" stroke-width="1"></line><line id="2023" x1="277" y1="370.4125" x2="277" y2="375.9125" stroke="#999" stroke-width="1"></line><line id="1850" x1="134.6" y1="370.4125" x2="134.6" y2="375.9125" stroke="#999" stroke-width="1"></line><line id="1900" x1="175.7" y1="370.4125" x2="175.7" y2="375.9125" stroke="#999" stroke-width="1"></line><line id="1950" x1="216.9" y1="370.4125" x2="216.9" y2="375.9125" stroke="#999" stroke-width="1"></line></g><g id="tick-labels"><text x="52.2609375" y="386.88125" fill="#5b5b5b" text-anchor="start" font-size="10.96875">1750</text><text x="277" y="386.88125" fill="#5b5b5b" text-anchor="end" font-size="10.96875">2023</text><text x="134.6" y="386.88125" fill="#5b5b5b" text-anchor="middle" font-size="10.96875">1850</text><text x="175.7" y="386.88125" fill="#5b5b5b" text-anchor="middle" font-size="10.96875">1900</text><text x="216.9" y="386.88125" fill="#5b5b5b" text-anchor="middle" font-size="10.96875">1950</text></g></g><g id="vertical-axis" class="VerticalAxis"><g id="tick-labels"><text x="47.26" y="363.1" dy=".32em" text-anchor="end" fill="#5b5b5b" font-size="10.96875">1%</text><text x="47.26" y="309" dy=".32em" text-anchor="end" fill="#5b5b5b" font-size="10.96875">10%</text></g></g><g id="horizontal-grid-lines" class="AxisGridLines horizontalLines"><line id="1%" x1="52.26" y1="363.1" x2="277.00" y2="363.1" stroke="#ddd" stroke-width="1" stroke-dasharray="2,1"></line><line id="10%" x1="52.26" y1="309" x2="277.00" y2="309" stroke="#ddd" stroke-width="1" stroke-dasharray="2,1"></line></g><g clip-path="url(#boundsClip-4)"><g class="Lines"><rect x="52" y="269" width="225" height="102" fill="rgba(255,255,255,0)" opacity="0"></rect><path fill="none" stroke-linecap="butt" stroke-linejoin="round" stroke="#ffffff" id="outline__Share-of-global-annual-CO₂-emissions" stroke-width="2.5" d="M93.4 369.2L94.2 367.3L95.1 370.9L95.9 363L96.7 362L97.5 361.1L98.4 362.7L99.2 362.1L100 360.8L100.8 360.7L101.7 361.8L102.5 360.6L103.3 359.1L104.1 357.6L104.9 356.5L105.8 355.6L106.6 354.3L107.4 354.3L108.2 353.3L109.1 353.6L109.9 352.7L110.7 352.2L111.5 352.1L112.4 352.1L113.2 349.8L114 348.4L114.8 345.2L115.6 344.6L116.5 342.6L117.3 339.7L118.1 343.1L118.9 339.6L119.8 332.5L120.6 329.2L121.4 331.7L122.2 328.1L123.1 328.1L123.9 325.3L124.7 326.5L125.5 325.1L126.4 325.5L127.2 324.9L128 323.7L128.8 321.5L129.6 318.9L130.5 316.6L131.3 314L132.1 311.9L132.9 309.8L133.8 309.3L134.6 308.8L135.4 303.9L136.2 303L137.1 301.3L137.9 302.8L138.7 300L139.5 300.4L140.3 300.1L141.2 300.1L142 299.5L142.8 300.6L143.6 302.7L144.5 302.2L145.3 300.3L146.1 300.5L146.9 301.9L147.8 302.5L148.6 299.2L149.4 297L150.2 295.3L151 294.6L151.9 295L152.7 292.7L153.5 291.7L154.3 291.1L155.2 292.8L156 293.6L156.8 291.6L157.6 292.4L158.5 289.3L159.3 289.2L160.1 288.7L160.9 287.3L161.7 287L162.6 286L163.4 285.8L164.2 284.9L165 284.5L165.9 282.3L166.7 284.8L167.5 282.6L168.3 282.2L169.2 281.2L170 280.7L170.8 283.1L171.6 281.5L172.5 282.3L173.3 282.4L174.1 281.6L174.9 280.5L175.7 280.3L176.6 279.1L177.4 278.3L178.2 276.6L179 277.2L179.9 276.1L180.7 276L181.5 275.5L182.3 277.7L183.2 276.3L184 275.3L184.8 275.9L185.6 275.6L186.4 275.8L187.3 275.6L188.1 274.4L188.9 273.7L189.7 272.5L190.6 271.2L191.4 271.7L192.2 271.5L193 273.2L193.9 274.1L194.7 270.5L195.5 273.2L196.3 272.6L197.1 270.3L198 272.9L198.8 273.2L199.6 273.2L200.4 274.1L201.3 275.3L202.1 276.7L202.9 276.3L203.7 276.8L204.6 277L205.4 276L206.2 276.5L207 279L207.8 278L208.7 277.3L209.5 275.9L210.3 274.1L211.1 273.7L212 272.4L212.8 268.9L213.6 271.6L214.4 272L215.3 272.4L216.1 275.5L216.9 274.8L217.7 275.8L218.6 276.7L219.4 276.8L220.2 278.4L221 278.4L221.8 278.8L222.7 279.8L223.5 281.2L224.3 281.6L225.1 282.5L226 282.6L226.8 282.6L227.6 282.8L228.4 283L229.3 283.1L230.1 283.1L230.9 282.9L231.7 283.3L232.5 283.7L233.4 283.8L234.2 284.6L235 284.6L235.8 284.8L236.7 285.5L237.5 286.3L238.3 286.2L239.1 286.1L240 286.6L240.8 286.9L241.6 287.7L242.4 287.8L243.2 288.8L244.1 289.1L244.9 288.7L245.7 289.5L246.5 289.8L247.4 289.7L248.2 289.5L249 289.5L249.8 289.9L250.7 290.6L251.5 289.4L252.3 289.2L253.1 289.1L253.9 289.3L254.8 289.2L255.6 289.1L256.4 288.8L257.2 289L258.1 288.8L258.9 289.4L259.7 289.8L260.5 290.7L261.4 291.1L262.2 291.9L263 293L263.8 293.3L264.7 294.6L265.5 296L266.3 296.5L267.1 297.8L267.9 299L268.8 298.6L269.6 298.5L270.4 299.2L271.2 299.7L272.1 300.3L272.9 300L273.7 300.8L274.5 302.1L275.4 301.7L276.2 301.7L277 302.8"></path><path fill="none" stroke-linecap="butt" stroke-linejoin="round" stroke="#4c6a9c" id="line__Share-of-global-annual-CO₂-emissions" stroke-width="1.5" stroke-opacity="1" d="M93.4 369.2L94.2 367.3L95.1 370.9L95.9 363L96.7 362L97.5 361.1L98.4 362.7L99.2 362.1L100 360.8L100.8 360.7L101.7 361.8L102.5 360.6L103.3 359.1L104.1 357.6L104.9 356.5L105.8 355.6L106.6 354.3L107.4 354.3L108.2 353.3L109.1 353.6L109.9 352.7L110.7 352.2L111.5 352.1L112.4 352.1L113.2 349.8L114 348.4L114.8 345.2L115.6 344.6L116.5 342.6L117.3 339.7L118.1 343.1L118.9 339.6L119.8 332.5L120.6 329.2L121.4 331.7L122.2 328.1L123.1 328.1L123.9 325.3L124.7 326.5L125.5 325.1L126.4 325.5L127.2 324.9L128 323.7L128.8 321.5L129.6 318.9L130.5 316.6L131.3 314L132.1 311.9L132.9 309.8L133.8 309.3L134.6 308.8L135.4 303.9L136.2 303L137.1 301.3L137.9 302.8L138.7 300L139.5 300.4L140.3 300.1L141.2 300.1L142 299.5L142.8 300.6L143.6 302.7L144.5 302.2L145.3 300.3L146.1 300.5L146.9 301.9L147.8 302.5L148.6 299.2L149.4 297L150.2 295.3L151 294.6L151.9 295L152.7 292.7L153.5 291.7L154.3 291.1L155.2 292.8L156 293.6L156.8 291.6L157.6 292.4L158.5 289.3L159.3 289.2L160.1 288.7L160.9 287.3L161.7 287L162.6 286L163.4 285.8L164.2 284.9L165 284.5L165.9 282.3L166.7 284.8L167.5 282.6L168.3 282.2L169.2 281.2L170 280.7L170.8 283.1L171.6 281.5L172.5 282.3L173.3 282.4L174.1 281.6L174.9 280.5L175.7 280.3L176.6 279.1L177.4 278.3L178.2 276.6L179 277.2L179.9 276.1L180.7 276L181.5 275.5L182.3 277.7L183.2 276.3L184 275.3L184.8 275.9L185.6 275.6L186.4 275.8L187.3 275.6L188.1 274.4L188.9 273.7L189.7 272.5L190.6 271.2L191.4 271.7L192.2 271.5L193 273.2L193.9 274.1L194.7 270.5L195.5 273.2L196.3 272.6L197.1 270.3L198 272.9L198.8 273.2L199.6 273.2L200.4 274.1L201.3 275.3L202.1 276.7L202.9 276.3L203.7 276.8L204.6 277L205.4 276L206.2 276.5L207 279L207.8 278L208.7 277.3L209.5 275.9L210.3 274.1L211.1 273.7L212 272.4L212.8 268.9L213.6 271.6L214.4 272L215.3 272.4L216.1 275.5L216.9 274.8L217.7 275.8L218.6 276.7L219.4 276.8L220.2 278.4L221 278.4L221.8 278.8L222.7 279.8L223.5 281.2L224.3 281.6L225.1 282.5L226 282.6L226.8 282.6L227.6 282.8L228.4 283L229.3 283.1L230.1 283.1L230.9 282.9L231.7 283.3L232.5 283.7L233.4 283.8L234.2 284.6L235 284.6L235.8 284.8L236.7 285.5L237.5 286.3L238.3 286.2L239.1 286.1L240 286.6L240.8 286.9L241.6 287.7L242.4 287.8L243.2 288.8L244.1 289.1L244.9 288.7L245.7 289.5L246.5 289.8L247.4 289.7L248.2 289.5L249 289.5L249.8 289.9L250.7 290.6L251.5 289.4L252.3 289.2L253.1 289.1L253.9 289.3L254.8 289.2L255.6 289.1L256.4 288.8L257.2 289L258.1 288.8L258.9 289.4L259.7 289.8L260.5 290.7L261.4 291.1L262.2 291.9L263 293L263.8 293.3L264.7 294.6L265.5 296L266.3 296.5L267.1 297.8L267.9 299L268.8 298.6L269.6 298.5L270.4 299.2L271.2 299.7L272.1 300.3L272.9 300L273.7 300.8L274.5 302.1L275.4 301.7L276.2 301.7L277 302.8"></path></g></g></g><text x="329.2609375" y="255.56875000000002" fill="#5b5b5b" font-size="14.625" style="font-weight:700">European Union (27)<title>European Union (27)</title></text><g class="LineChart"><defs><clipPath id="boundsClip-5"><rect x="319.2609375" y="252.88125000000002" width="282" height="146"></rect></clipPath></defs><rect x="293" y="262.88125" width="262" height="126" fill-opacity="0"></rect><g id="horizontal-axis" class="HorizontalAxis"><g id="tick-marks"><line id="1750" x1="329.3" y1="370.4125" x2="329.3" y2="375.9125" stroke="#999" stroke-width="1"></line><line id="2023" x1="554" y1="370.4125" x2="554" y2="375.9125" stroke="#999" stroke-width="1"></line><line id="1850" x1="411.6" y1="370.4125" x2="411.6" y2="375.9125" stroke="#999" stroke-width="1"></line><line id="1900" x1="452.7" y1="370.4125" x2="452.7" y2="375.9125" stroke="#999" stroke-width="1"></line><line id="1950" x1="493.9" y1="370.4125" x2="493.9" y2="375.9125" stroke="#999" stroke-width="1"></line></g><g id="tick-labels"><text x="329.2609375" y="386.88125" fill="#5b5b5b" text-anchor="start" font-size="10.96875">1750</text><text x="554" y="386.88125" fill="#5b5b5b" text-anchor="end" font-size="10.96875">2023</text><text x="411.6" y="386.88125" fill="#5b5b5b" text-anchor="middle" font-size="10.96875">1850</text><text x="452.7" y="386.88125" fill="#5b5b5b" text-anchor="middle" font-size="10.96875">1900</text><text x="493.9" y="386.88125" fill="#5b5b5b" text-anchor="middle" font-size="10.96875">1950</text></g></g><g id="vertical-axis" class="VerticalAxis"><g id="tick-labels"><text x="324.26" y="315.2" dy=".32em" text-anchor="end" fill="#5b5b5b" font-size="10.96875">10%</text><text x="324.26" y="370.4" dy=".32em" text-anchor="end" fill="#5b5b5b" font-size="10.96875">2%</text><text x="324.26" y="338.9" dy=".32em" text-anchor="end" fill="#5b5b5b" font-size="10.96875">5%</text><text x="324.26" y="291.4" dy=".32em" text-anchor="end" fill="#5b5b5b" font-size="10.96875">20%</text></g></g><g id="horizontal-grid-lines" class="AxisGridLines horizontalLines"><line id="2%" x1="329.26" y1="370.4" x2="554.00" y2="370.4" stroke="#ddd" stroke-width="1" stroke-dasharray="2,1"></line><line id="3%" x1="329.26" y1="356.5" x2="554.00" y2="356.5" stroke="#eee" stroke-width="1" stroke-dasharray="2,1"></line><line id="4%" x1="329.26" y1="346.6" x2="554.00" y2="346.6" stroke="#eee" stroke-width="1" stroke-dasharray="2,1"></line><line id="5%" x1="329.26" y1="338.9" x2="554.00" y2="338.9" stroke="#ddd" stroke-width="1" stroke-dasharray="2,1"></line><line id="6%" x1="329.26" y1="332.7" x2="554.00" y2="332.7" stroke="#eee" stroke-width="1" stroke-dasharray="2,1"></line><line id="7%" x1="329.26" y1="327.4" x2="554.00" y2="327.4" stroke="#eee" stroke-width="1" stroke-dasharray="2,1"></line><line id="8%" x1="329.26" y1="322.8" x2="554.00" y2="322.8" stroke="#eee" stroke-width="1" stroke-dasharray="2,1"></line><line id="9%" x1="329.26" y1="318.8" x2="554.00" y2="318.8" stroke="#eee" stroke-width="1" stroke-dasharray="2,1"></line><line id="10%" x1="329.26" y1="315.2" x2="554.00" y2="315.2" stroke="#ddd" stroke-width="1" stroke-dasharray="2,1"></line><line id="20%" x1="329.26" y1="291.4" x2="554.00" y2="291.4" stroke="#ddd" stroke-width="1" stroke-dasharray="2,1"></line><line id="30%" x1="329.26" y1="277.5" x2="554.00" y2="277.5" stroke="#eee" stroke-width="1" stroke-dasharray="2,1"></line></g><g clip-path="url(#boundsClip-5)"><g class="Lines"><rect x="329" y="269" width="225" height="102" fill="rgba(255,255,255,0)" opacity="0"></rect><path fill="none" stroke-linecap="butt" stroke-linejoin="round" stroke="#ffffff" id="outline__Share-of-global-annual-CO₂-emissions" stroke-width="2.5" d="M363.8 368.1L364.7 367.8L365.5 370.9L366.3 370.3L367.1 363.9L368 362.9L368.8 362.9L369.6 365.9L370.4 349.6L371.2 355.8L372.1 285.3L372.9 352.4L373.7 310.5L374.5 337.9L375.4 342.9L376.2 319L377 347.1L377.8 347.8L378.7 317.7L379.5 319.2L380.3 319.6L381.1 322.6L381.9 321.8L382.8 318.5L383.6 308.3L384.4 304.2L385.2 305.4L386.1 305L386.9 302.4L387.7 301.6L388.5 301.4L389.4 300L390.2 302.1L391 298L391.8 298.6L392.6 293.9L393.5 293.8L394.3 297L395.1 288.9L395.9 291.8L396.8 291.3L397.6 289.2L398.4 288.1L399.2 289.1L400.1 288L400.9 285L401.7 282.9L402.5 282.7L403.4 281.1L404.2 279.6L405 279L405.8 280.9L406.6 280.9L407.5 279.5L408.3 276.1L409.1 275.9L409.9 280.6L410.8 281.7L411.6 280.4L412.4 278.9L413.2 276.4L414.1 274.5L414.9 275L415.7 272.3L416.5 272.6L417.3 271.5L418.2 270.2L419 272.8L419.8 273.3L420.6 271.8L421.5 269.7L422.3 270.5L423.1 270.4L423.9 269.7L424.8 269.9L425.6 269.8L426.4 269.1L427.2 269.7L428 270.3L428.9 270.2L429.7 270.1L430.5 269.8L431.3 272.2L432.2 269.9L433 268.9L433.8 270.4L434.6 269.5L435.5 269.9L436.3 269.1L437.1 270.1L437.9 270.1L438.7 270L439.6 270L440.4 269.9L441.2 270.2L442 270.3L442.9 271.3L443.7 269.5L444.5 270.4L445.3 270.7L446.2 271.5L447 270.5L447.8 270L448.6 270.9L449.5 270.1L450.3 269.7L451.1 270.1L451.9 271.3L452.7 271L453.6 272.1L454.4 273.6L455.2 274.4L456 274.1L456.9 274.6L457.7 275.4L458.5 275.3L459.3 272.7L460.2 274.3L461 275.3L461.8 275.1L462.6 274.5L463.4 274.7L464.3 276.6L465.1 279.1L465.9 280L466.7 281.8L467.6 283.4L468.4 287.1L469.2 284.7L470 278.9L470.9 279.6L471.7 287.7L472.5 281.1L473.3 281.1L474.1 281.6L475 280.6L475.8 279.7L476.6 278.9L477.4 279.4L478.3 279.2L479.1 279.9L479.9 280.6L480.7 280.9L481.6 281L482.4 282.7L483.2 280.9L484 278.5L484.8 279.4L485.7 281.1L486.5 282.4L487.3 281.7L488.1 282.1L489 288L489.8 310.4L490.6 294.3L491.4 292.8L492.3 291.2L493.1 286.2L493.9 288.8L494.7 287.5L495.6 286.6L496.4 286.9L497.2 285.5L498 286L498.8 285.8L499.7 285.8L500.5 287.1L501.3 288.3L502.1 287.6L503 286.1L503.8 284.9L504.6 284.5L505.4 284.5L506.3 285.6L507.1 286.2L507.9 286.5L508.7 286.3L509.5 286.3L510.4 287.6L511.2 288L512 288.3L512.8 288.4L513.7 288.4L514.5 289.2L515.3 288.5L516.1 289.8L517 289.7L517.8 289.8L518.6 289.8L519.4 290.9L520.2 291.4L521.1 292L521.9 292.9L522.7 293.5L523.5 294.1L524.4 294.9L525.2 296.5L526 296.7L526.8 296.9L527.7 298.2L528.5 298.4L529.3 299.4L530.1 299.9L530.9 300.3L531.8 300.5L532.6 301.3L533.4 301.3L534.2 302.6L535.1 303.4L535.9 303.1L536.7 303.8L537.5 304.9L538.4 306L539.2 307.2L540 308.2L540.8 309.7L541.7 311L542.5 313.3L543.3 314.3L544.1 316.4L544.9 317.6L545.8 318.8L546.6 320.5L547.4 319.8L548.2 319.8L549.1 320.1L549.9 321.6L550.7 323.6L551.5 325.1L552.4 324.7L553.2 325.7L554 329.2"></path><path fill="none" stroke-linecap="butt" stroke-linejoin="round" stroke="#4c6a9c" id="line__Share-of-global-annual-CO₂-emissions" stroke-width="1.5" stroke-opacity="1" d="M363.8 368.1L364.7 367.8L365.5 370.9L366.3 370.3L367.1 363.9L368 362.9L368.8 362.9L369.6 365.9L370.4 349.6L371.2 355.8L372.1 285.3L372.9 352.4L373.7 310.5L374.5 337.9L375.4 342.9L376.2 319L377 347.1L377.8 347.8L378.7 317.7L379.5 319.2L380.3 319.6L381.1 322.6L381.9 321.8L382.8 318.5L383.6 308.3L384.4 304.2L385.2 305.4L386.1 305L386.9 302.4L387.7 301.6L388.5 301.4L389.4 300L390.2 302.1L391 298L391.8 298.6L392.6 293.9L393.5 293.8L394.3 297L395.1 288.9L395.9 291.8L396.8 291.3L397.6 289.2L398.4 288.1L399.2 289.1L400.1 288L400.9 285L401.7 282.9L402.5 282.7L403.4 281.1L404.2 279.6L405 279L405.8 280.9L406.6 280.9L407.5 279.5L408.3 276.1L409.1 275.9L409.9 280.6L410.8 281.7L411.6 280.4L412.4 278.9L413.2 276.4L414.1 274.5L414.9 275L415.7 272.3L416.5 272.6L417.3 271.5L418.2 270.2L419 272.8L419.8 273.3L420.6 271.8L421.5 269.7L422.3 270.5L423.1 270.4L423.9 269.7L424.8 269.9L425.6 269.8L426.4 269.1L427.2 269.7L428 270.3L428.9 270.2L429.7 270.1L430.5 269.8L431.3 272.2L432.2 269.9L433 268.9L433.8 270.4L434.6 269.5L435.5 269.9L436.3 269.1L437.1 270.1L437.9 270.1L438.7 270L439.6 270L440.4 269.9L441.2 270.2L442 270.3L442.9 271.3L443.7 269.5L444.5 270.4L445.3 270.7L446.2 271.5L447 270.5L447.8 270L448.6 270.9L449.5 270.1L450.3 269.7L451.1 270.1L451.9 271.3L452.7 271L453.6 272.1L454.4 273.6L455.2 274.4L456 274.1L456.9 274.6L457.7 275.4L458.5 275.3L459.3 272.7L460.2 274.3L461 275.3L461.8 275.1L462.6 274.5L463.4 274.7L464.3 276.6L465.1 279.1L465.9 280L466.7 281.8L467.6 283.4L468.4 287.1L469.2 284.7L470 278.9L470.9 279.6L471.7 287.7L472.5 281.1L473.3 281.1L474.1 281.6L475 280.6L475.8 279.7L476.6 278.9L477.4 279.4L478.3 279.2L479.1 279.9L479.9 280.6L480.7 280.9L481.6 281L482.4 282.7L483.2 280.9L484 278.5L484.8 279.4L485.7 281.1L486.5 282.4L487.3 281.7L488.1 282.1L489 288L489.8 310.4L490.6 294.3L491.4 292.8L492.3 291.2L493.1 286.2L493.9 288.8L494.7 287.5L495.6 286.6L496.4 286.9L497.2 285.5L498 286L498.8 285.8L499.7 285.8L500.5 287.1L501.3 288.3L502.1 287.6L503 286.1L503.8 284.9L504.6 284.5L505.4 284.5L506.3 285.6L507.1 286.2L507.9 286.5L508.7 286.3L509.5 286.3L510.4 287.6L511.2 288L512 288.3L512.8 288.4L513.7 288.4L514.5 289.2L515.3 288.5L516.1 289.8L517 289.7L517.8 289.8L518.6 289.8L519.4 290.9L520.2 291.4L521.1 292L521.9 292.9L522.7 293.5L523.5 294.1L524.4 294.9L525.2 296.5L526 296.7L526.8 296.9L527.7 298.2L528.5 298.4L529.3 299.4L530.1 299.9L530.9 300.3L531.8 300.5L532.6 301.3L533.4 301.3L534.2 302.6L535.1 303.4L535.9 303.1L536.7 303.8L537.5 304.9L538.4 306L539.2 307.2L540 308.2L540.8 309.7L541.7 311L542.5 313.3L543.3 314.3L544.1 316.4L544.9 317.6L545.8 318.8L546.6 320.5L547.4 319.8L548.2 319.8L549.1 320.1L549.9 321.6L550.7 323.6L551.5 325.1L552.4 324.7L553.2 325.7L554 329.2"></path></g></g></g><text x="606.2609375" y="255.56875000000002" fill="#5b5b5b" font-size="14.625" style="font-weight:700">Canada<title>Canada</title></text><g class="LineChart"><defs><clipPath id="boundsClip-6"><rect x="596.2609375" y="252.88125000000002" width="282" height="146"></rect></clipPath></defs><rect x="570" y="262.88125" width="262" height="126" fill-opacity="0"></rect><g id="horizontal-axis" class="HorizontalAxis"><g id="tick-marks"><line id="1750" x1="606.3" y1="370.4125" x2="606.3" y2="375.9125" stroke="#999" stroke-width="1"></line><line id="2023" x1="831" y1="370.4125" x2="831" y2="375.9125" stroke="#999" stroke-width="1"></line><line id="1850" x1="688.6" y1="370.4125" x2="688.6" y2="375.9125" stroke="#999" stroke-width="1"></line><line id="1900" x1="729.7" y1="370.4125" x2="729.7" y2="375.9125" stroke="#999" stroke-width="1"></line><line id="1950" x1="770.9" y1="370.4125" x2="770.9" y2="375.9125" stroke="#999" stroke-width="1"></line></g><g id="tick-labels"><text x="606.2609375" y="386.88125" fill="#5b5b5b" text-anchor="start" font-size="10.96875">1750</text><text x="831" y="386.88125" fill="#5b5b5b" text-anchor="end" font-size="10.96875">2023</text><text x="688.6" y="386.88125" fill="#5b5b5b" text-anchor="middle" font-size="10.96875">1850</text><text x="729.7" y="386.88125" fill="#5b5b5b" text-anchor="middle" font-size="10.96875">1900</text><text x="770.9" y="386.88125" fill="#5b5b5b" text-anchor="middle" font-size="10.96875">1950</text></g></g><g id="vertical-axis" class="VerticalAxis"><g id="tick-labels"><text x="601.26" y="350.4" dy=".32em" text-anchor="end" fill="#5b5b5b" font-size="10.96875">0.01%</text><text x="601.26" y="317.5" dy=".32em" text-anchor="end" fill="#5b5b5b" font-size="10.96875">0.1%</text><text x="601.26" y="284.7" dy=".32em" text-anchor="end" fill="#5b5b5b" font-size="10.96875">1%</text></g></g><g id="horizontal-grid-lines" class="AxisGridLines horizontalLines"><line id="0.01%" x1="606.26" y1="350.4" x2="831.00" y2="350.4" stroke="#ddd" stroke-width="1" stroke-dasharray="2,1"></line><line id="0.1%" x1="606.26" y1="317.5" x2="831.00" y2="317.5" stroke="#ddd" stroke-width="1" stroke-dasharray="2,1"></line><line id="1%" x1="606.26" y1="284.7" x2="831.00" y2="284.7" stroke="#ddd" stroke-width="1" stroke-dasharray="2,1"></line></g><g clip-path="url(#boundsClip-6)"><g class="Lines"><rect x="606" y="269" width="225" height="102" fill="rgba(255,255,255,0)" opacity="0"></rect><path fill="none" stroke-linecap="butt" stroke-linejoin="round" stroke="#ffffff" id="outline__Share-of-global-annual-CO₂-emissions" stroke-width="2.5" d="M635.1 340.2L635.9 340.6L636.7 340.9L637.5 341.2L638.4 341.6L639.2 342L640 342.4L640.8 343L641.7 343.3L642.5 343.4L643.3 343.3L644.1 343.2L645 343.1L645.8 343.8L646.6 346.3L647.4 348.8L648.2 348.4L649.1 351.7L649.9 347.3L650.7 348.3L651.5 348.1L652.4 348.7L653.2 350.2L654 349.9L654.8 350.2L655.7 351.4L656.5 351.7L657.3 351.9L658.1 352L658.9 352.4L659.8 352.8L660.6 353.4L661.4 354.6L662.2 355.2L663.1 355L663.9 355L664.7 355.4L665.5 355.9L666.4 356.5L667.2 356.8L668 357.6L668.8 357.7L669.6 358.7L670.5 358.9L671.3 358.8L672.1 363L672.9 362L673.8 361.8L674.6 362L675.4 363L676.2 364.3L677.1 365.6L677.9 365.5L678.7 365.5L679.5 366L680.4 367.1L681.2 367.5L682 368.3L682.8 368.7L683.6 369.7L684.5 370.9L685.3 343.4L686.1 341L686.9 338.4L687.8 336.9L688.6 334.8L689.4 332.5L690.2 330.4L691.1 328.2L691.9 327.8L692.7 325.4L693.5 323.8L694.3 321.3L695.2 318.7L696 317L696.8 315.6L697.6 313.7L698.5 311.1L699.3 308.8L700.1 307.3L700.9 305.4L701.8 303L702.6 300.5L703.4 308.3L704.2 313.7L705 305.8L705.9 301.3L706.7 302.2L707.5 305.1L708.3 304L709.2 303.1L710 303.4L710.8 302.5L711.6 303.3L712.5 302.5L713.3 291.8L714.1 291.3L714.9 289.7L715.7 288.9L716.6 287L717.4 287.7L718.2 287L719 285.7L719.9 283.3L720.7 285.6L721.5 285.5L722.3 284.5L723.2 284.6L724 283.5L724.8 284.7L725.6 286.2L726.5 285.5L727.3 286L728.1 285.9L728.9 284.3L729.7 284L730.6 282.4L731.4 281.7L732.2 281.7L733 279.5L733.9 279.4L734.7 279.3L735.5 277.9L736.3 277.2L737.2 278.4L738 277.2L738.8 275.2L739.6 274.4L740.4 273.2L741.3 273.9L742.1 275.2L742.9 273.2L743.7 272.2L744.6 271.4L745.4 271.6L746.2 272.4L747 271.2L747.9 274L748.7 271.6L749.5 274.2L750.3 274.8L751.1 272.8L752 272.9L752.8 272.6L753.6 272.8L754.4 272.4L755.3 273.9L756.1 273.5L756.9 274.4L757.7 273.6L758.6 274.5L759.4 274.5L760.2 274.3L761 274.7L761.8 274L762.7 273.4L763.5 272.2L764.3 271L765.1 270.5L766 270.5L766.8 268.9L767.6 269.1L768.4 270.2L769.3 269.5L770.1 270.1L770.9 271.1L771.7 271.4L772.6 271.9L773.4 272.2L774.2 272.3L775 273L775.8 272.3L776.7 273.3L777.5 273.7L778.3 274.3L779.1 274.5L780 274.4L780.8 274L781.6 274.5L782.4 273.5L783.3 273.3L784.1 273.6L784.9 272.9L785.7 272.6L786.5 273.3L787.4 272.9L788.2 273L789 272.6L789.8 273.3L790.7 272.9L791.5 272.7L792.3 273.4L793.1 273.5L794 273.6L794.8 273.2L795.6 273L796.4 273.1L797.2 273.5L798.1 273.8L798.9 273.7L799.7 274.3L800.5 275.1L801.4 274.7L802.2 274.4L803 274.4L803.8 274.8L804.7 275.3L805.5 274.5L806.3 274.6L807.1 274.3L807.9 274.2L808.8 274.2L809.6 273.9L810.4 273.6L811.2 273.6L812.1 273.4L812.9 273.7L813.7 273.9L814.5 274.2L815.4 274.7L816.2 275.3L817 275.9L817.8 275.8L818.7 276.4L819.5 277L820.3 277.5L821.1 277.8L821.9 277.9L822.8 277.9L823.6 278.1L824.4 278.1L825.2 278.2L826.1 278.2L826.9 278.3L827.7 278.3L828.5 279L829.4 279.3L830.2 279.2L831 279.4"></path><path fill="none" stroke-linecap="butt" stroke-linejoin="round" stroke="#4c6a9c" id="line__Share-of-global-annual-CO₂-emissions" stroke-width="1.5" stroke-opacity="1" d="M635.1 340.2L635.9 340.6L636.7 340.9L637.5 341.2L638.4 341.6L639.2 342L640 342.4L640.8 343L641.7 343.3L642.5 343.4L643.3 343.3L644.1 343.2L645 343.1L645.8 343.8L646.6 346.3L647.4 348.8L648.2 348.4L649.1 351.7L649.9 347.3L650.7 348.3L651.5 348.1L652.4 348.7L653.2 350.2L654 349.9L654.8 350.2L655.7 351.4L656.5 351.7L657.3 351.9L658.1 352L658.9 352.4L659.8 352.8L660.6 353.4L661.4 354.6L662.2 355.2L663.1 355L663.9 355L664.7 355.4L665.5 355.9L666.4 356.5L667.2 356.8L668 357.6L668.8 357.7L669.6 358.7L670.5 358.9L671.3 358.8L672.1 363L672.9 362L673.8 361.8L674.6 362L675.4 363L676.2 364.3L677.1 365.6L677.9 365.5L678.7 365.5L679.5 366L680.4 367.1L681.2 367.5L682 368.3L682.8 368.7L683.6 369.7L684.5 370.9L685.3 343.4L686.1 341L686.9 338.4L687.8 336.9L688.6 334.8L689.4 332.5L690.2 330.4L691.1 328.2L691.9 327.8L692.7 325.4L693.5 323.8L694.3 321.3L695.2 318.7L696 317L696.8 315.6L697.6 313.7L698.5 311.1L699.3 308.8L700.1 307.3L700.9 305.4L701.8 303L702.6 300.5L703.4 308.3L704.2 313.7L705 305.8L705.9 301.3L706.7 302.2L707.5 305.1L708.3 304L709.2 303.1L710 303.4L710.8 302.5L711.6 303.3L712.5 302.5L713.3 291.8L714.1 291.3L714.9 289.7L715.7 288.9L716.6 287L717.4 287.7L718.2 287L719 285.7L719.9 283.3L720.7 285.6L721.5 285.5L722.3 284.5L723.2 284.6L724 283.5L724.8 284.7L725.6 286.2L726.5 285.5L727.3 286L728.1 285.9L728.9 284.3L729.7 284L730.6 282.4L731.4 281.7L732.2 281.7L733 279.5L733.9 279.4L734.7 279.3L735.5 277.9L736.3 277.2L737.2 278.4L738 277.2L738.8 275.2L739.6 274.4L740.4 273.2L741.3 273.9L742.1 275.2L742.9 273.2L743.7 272.2L744.6 271.4L745.4 271.6L746.2 272.4L747 271.2L747.9 274L748.7 271.6L749.5 274.2L750.3 274.8L751.1 272.8L752 272.9L752.8 272.6L753.6 272.8L754.4 272.4L755.3 273.9L756.1 273.5L756.9 274.4L757.7 273.6L758.6 274.5L759.4 274.5L760.2 274.3L761 274.7L761.8 274L762.7 273.4L763.5 272.2L764.3 271L765.1 270.5L766 270.5L766.8 268.9L767.6 269.1L768.4 270.2L769.3 269.5L770.1 270.1L770.9 271.1L771.7 271.4L772.6 271.9L773.4 272.2L774.2 272.3L775 273L775.8 272.3L776.7 273.3L777.5 273.7L778.3 274.3L779.1 274.5L780 274.4L780.8 274L781.6 274.5L782.4 273.5L783.3 273.3L784.1 273.6L784.9 272.9L785.7 272.6L786.5 273.3L787.4 272.9L788.2 273L789 272.6L789.8 273.3L790.7 272.9L791.5 272.7L792.3 273.4L793.1 273.5L794 273.6L794.8 273.2L795.6 273L796.4 273.1L797.2 273.5L798.1 273.8L798.9 273.7L799.7 274.3L800.5 275.1L801.4 274.7L802.2 274.4L803 274.4L803.8 274.8L804.7 275.3L805.5 274.5L806.3 274.6L807.1 274.3L807.9 274.2L808.8 274.2L809.6 273.9L810.4 273.6L811.2 273.6L812.1 273.4L812.9 273.7L813.7 273.9L814.5 274.2L815.4 274.7L816.2 275.3L817 275.9L817.8 275.8L818.7 276.4L819.5 277L820.3 277.5L821.1 277.8L821.9 277.9L822.8 277.9L823.6 278.1L824.4 278.1L825.2 278.2L826.1 278.2L826.9 278.3L827.7 278.3L828.5 279L829.4 279.3L830.2 279.2L831 279.4"></path></g></g></g><text x="52.2609375" y="418.56875" fill="#5b5b5b" font-size="14.625" style="font-weight:700">Brazil<title>Brazil</title></text><g class="LineChart"><defs><clipPath id="boundsClip-7"><rect x="42.2609375" y="415.88125" width="282" height="146"></rect></clipPath></defs><rect x="16" y="425.88125" width="262" height="126" fill-opacity="0"></rect><g id="horizontal-axis" class="HorizontalAxis"><g id="tick-marks"><line id="1750" x1="52.3" y1="533.4125" x2="52.3" y2="538.9125" stroke="#999" stroke-width="1"></line><line id="2023" x1="277" y1="533.4125" x2="277" y2="538.9125" stroke="#999" stroke-width="1"></line><line id="1850" x1="134.6" y1="533.4125" x2="134.6" y2="538.9125" stroke="#999" stroke-width="1"></line><line id="1900" x1="175.7" y1="533.4125" x2="175.7" y2="538.9125" stroke="#999" stroke-width="1"></line><line id="1950" x1="216.9" y1="533.4125" x2="216.9" y2="538.9125" stroke="#999" stroke-width="1"></line></g><g id="tick-labels"><text x="52.2609375" y="549.88125" fill="#5b5b5b" text-anchor="start" font-size="10.96875">1750</text><text x="277" y="549.88125" fill="#5b5b5b" text-anchor="end" font-size="10.96875">2023</text><text x="134.6" y="549.88125" fill="#5b5b5b" text-anchor="middle" font-size="10.96875">1850</text><text x="175.7" y="549.88125" fill="#5b5b5b" text-anchor="middle" font-size="10.96875">1900</text><text x="216.9" y="549.88125" fill="#5b5b5b" text-anchor="middle" font-size="10.96875">1950</text></g></g><g id="vertical-axis" class="VerticalAxis"><g id="tick-labels"><text x="47.26" y="524.6" dy=".32em" text-anchor="end" fill="#5b5b5b" font-size="10.96875">0.1%</text><text x="47.26" y="447.1" dy=".32em" text-anchor="end" fill="#5b5b5b" font-size="10.96875">1%</text><text x="47.26" y="501.3" dy=".32em" text-anchor="end" fill="#5b5b5b" font-size="10.96875">0.2%</text><text x="47.26" y="470.5" dy=".32em" text-anchor="end" fill="#5b5b5b" font-size="10.96875">0.5%</text></g></g><g id="horizontal-grid-lines" class="AxisGridLines horizontalLines"><line id="&lt;0.1%" x1="52.26" y1="532.1" x2="277.00" y2="532.1" stroke="#eee" stroke-width="1" stroke-dasharray="2,1"></line><line id="&lt;0.1%" x1="52.26" y1="528.2" x2="277.00" y2="528.2" stroke="#eee" stroke-width="1" stroke-dasharray="2,1"></line><line id="0.1%" x1="52.26" y1="524.6" x2="277.00" y2="524.6" stroke="#ddd" stroke-width="1" stroke-dasharray="2,1"></line><line id="0.2%" x1="52.26" y1="501.3" x2="277.00" y2="501.3" stroke="#ddd" stroke-width="1" stroke-dasharray="2,1"></line><line id="0.3%" x1="52.26" y1="487.7" x2="277.00" y2="487.7" stroke="#eee" stroke-width="1" stroke-dasharray="2,1"></line><line id="0.4%" x1="52.26" y1="478" x2="277.00" y2="478" stroke="#eee" stroke-width="1" stroke-dasharray="2,1"></line><line id="0.5%" x1="52.26" y1="470.5" x2="277.00" y2="470.5" stroke="#ddd" stroke-width="1" stroke-dasharray="2,1"></line><line id="0.6%" x1="52.26" y1="464.3" x2="277.00" y2="464.3" stroke="#eee" stroke-width="1" stroke-dasharray="2,1"></line><line id="0.7%" x1="52.26" y1="459.1" x2="277.00" y2="459.1" stroke="#eee" stroke-width="1" stroke-dasharray="2,1"></line><line id="0.8%" x1="52.26" y1="454.7" x2="277.00" y2="454.7" stroke="#eee" stroke-width="1" stroke-dasharray="2,1"></line><line id="0.9%" x1="52.26" y1="450.7" x2="277.00" y2="450.7" stroke="#eee" stroke-width="1" stroke-dasharray="2,1"></line><line id="1%" x1="52.26" y1="447.1" x2="277.00" y2="447.1" stroke="#ddd" stroke-width="1" stroke-dasharray="2,1"></line></g><g clip-path="url(#boundsClip-7)"><g class="Lines"><rect x="52" y="432" width="225" height="102" fill="rgba(255,255,255,0)" opacity="0"></rect><path fill="none" stroke-linecap="butt" stroke-linejoin="round" stroke="#ffffff" id="outline__Share-of-global-annual-CO₂-emissions" stroke-width="2.5" d="M139.5 531.5L140.3 526.1L141.2 524.8L142 517.6L142.8 515.6L143.6 519.2L144.5 524.7L145.3 520.8L146.1 519.3L146.9 515.4L147.8 512.4L148.6 519.8L149.4 510.5L150.2 519.8L151 515.7L151.9 511.4L152.7 514.3L153.5 510.2L154.3 509.1L155.2 513.8L156 517.9L156.8 517.2L157.6 514.8L158.5 522.6L159.3 522.2L160.1 519.6L160.9 524.3L161.7 519.3L162.6 516.6L163.4 518.6L164.2 518.6L165 518.1L165.9 522.4L166.7 509.9L167.5 515.5L168.3 510.7L169.2 509.8L170 512.2L170.8 508.1L171.6 511.8L172.5 506.9L173.3 507L174.1 509.4L174.9 513.3L175.7 519.7L176.6 520.1L177.4 517.6L178.2 522.1L179 519.8L179.9 519.1L180.7 516.4L181.5 516.2L182.3 514.8L183.2 515.3L184 510.8L184.8 506L185.6 507L186.4 506.1L187.3 511.9L188.1 523.9L188.9 531.9L189.7 532.1L190.6 533.9L191.4 525.4L192.2 520.8L193 527.1L193.9 517.5L194.7 515.8L195.5 512.4L196.3 512.6L197.1 511.3L198 510.9L198.8 510.5L199.6 511.5L200.4 511.8L201.3 514.6L202.1 511.1L202.9 510.1L203.7 513.1L204.6 513.3L205.4 514.9L206.2 511.1L207 506.8L207.8 517L208.7 519.7L209.5 517L210.3 519.1L211.1 516.4L212 520.2L212.8 509L213.6 508.4L214.4 506.1L215.3 512.4L216.1 512.9L216.9 484.3L217.7 483.5L218.6 479.2L219.4 479.8L220.2 475L221 473.5L221.8 473.1L222.7 474.8L223.5 473L224.3 474.7L225.1 470.5L226 469L226.8 467.3L227.6 467.8L228.4 468.9L229.3 470.6L230.1 467.8L230.9 467.9L231.7 464.4L232.5 463.7L233.4 462.8L234.2 461.1L235 459L235.8 455.8L236.7 453L237.5 451.4L238.3 452.2L239.1 451.5L240 449.6L240.8 448.6L241.6 448.7L242.4 450.7L243.2 450.4L244.1 451.7L244.9 452.5L245.7 451.2L246.5 448.6L247.4 448.2L248.2 449.2L249 449L249.8 448.4L250.7 447.5L251.5 445.9L252.3 444.8L253.1 443.8L253.9 442.7L254.8 441.2L255.6 439.4L256.4 438.2L257.2 437.9L258.1 437.5L258.9 437.1L259.7 437.7L260.5 439.8L261.4 439.3L262.2 440.2L263 440.9L263.8 439.9L264.7 438.7L265.5 440L266.3 437.8L267.1 437.3L267.9 435.3L268.8 433.3L269.6 431.9L270.4 433.6L271.2 436L272.1 436.2L272.9 438.3L273.7 438.9L274.5 439.2L275.4 437.1L276.2 438.4L277 438.6"></path><path fill="none" stroke-linecap="butt" stroke-linejoin="round" stroke="#4c6a9c" id="line__Share-of-global-annual-CO₂-emissions" stroke-width="1.5" stroke-opacity="1" d="M139.5 531.5L140.3 526.1L141.2 524.8L142 517.6L142.8 515.6L143.6 519.2L144.5 524.7L145.3 520.8L146.1 519.3L146.9 515.4L147.8 512.4L148.6 519.8L149.4 510.5L150.2 519.8L151 515.7L151.9 511.4L152.7 514.3L153.5 510.2L154.3 509.1L155.2 513.8L156 517.9L156.8 517.2L157.6 514.8L158.5 522.6L159.3 522.2L160.1 519.6L160.9 524.3L161.7 519.3L162.6 516.6L163.4 518.6L164.2 518.6L165 518.1L165.9 522.4L166.7 509.9L167.5 515.5L168.3 510.7L169.2 509.8L170 512.2L170.8 508.1L171.6 511.8L172.5 506.9L173.3 507L174.1 509.4L174.9 513.3L175.7 519.7L176.6 520.1L177.4 517.6L178.2 522.1L179 519.8L179.9 519.1L180.7 516.4L181.5 516.2L182.3 514.8L183.2 515.3L184 510.8L184.8 506L185.6 507L186.4 506.1L187.3 511.9L188.1 523.9L188.9 531.9L189.7 532.1L190.6 533.9L191.4 525.4L192.2 520.8L193 527.1L193.9 517.5L194.7 515.8L195.5 512.4L196.3 512.6L197.1 511.3L198 510.9L198.8 510.5L199.6 511.5L200.4 511.8L201.3 514.6L202.1 511.1L202.9 510.1L203.7 513.1L204.6 513.3L205.4 514.9L206.2 511.1L207 506.8L207.8 517L208.7 519.7L209.5 517L210.3 519.1L211.1 516.4L212 520.2L212.8 509L213.6 508.4L214.4 506.1L215.3 512.4L216.1 512.9L216.9 484.3L217.7 483.5L218.6 479.2L219.4 479.8L220.2 475L221 473.5L221.8 473.1L222.7 474.8L223.5 473L224.3 474.7L225.1 470.5L226 469L226.8 467.3L227.6 467.8L228.4 468.9L229.3 470.6L230.1 467.8L230.9 467.9L231.7 464.4L232.5 463.7L233.4 462.8L234.2 461.1L235 459L235.8 455.8L236.7 453L237.5 451.4L238.3 452.2L239.1 451.5L240 449.6L240.8 448.6L241.6 448.7L242.4 450.7L243.2 450.4L244.1 451.7L244.9 452.5L245.7 451.2L246.5 448.6L247.4 448.2L248.2 449.2L249 449L249.8 448.4L250.7 447.5L251.5 445.9L252.3 444.8L253.1 443.8L253.9 442.7L254.8 441.2L255.6 439.4L256.4 438.2L257.2 437.9L258.1 437.5L258.9 437.1L259.7 437.7L260.5 439.8L261.4 439.3L262.2 440.2L263 440.9L263.8 439.9L264.7 438.7L265.5 440L266.3 437.8L267.1 437.3L267.9 435.3L268.8 433.3L269.6 431.9L270.4 433.6L271.2 436L272.1 436.2L272.9 438.3L273.7 438.9L274.5 439.2L275.4 437.1L276.2 438.4L277 438.6"></path></g></g></g><text x="329.2609375" y="418.56875" fill="#5b5b5b" font-size="14.625" style="font-weight:700">South Africa<title>South Africa</title></text><g class="LineChart"><defs><clipPath id="boundsClip-8"><rect x="319.2609375" y="415.88125" width="282" height="146"></rect></clipPath></defs><rect x="293" y="425.88125" width="262" height="126" fill-opacity="0"></rect><g id="horizontal-axis" class="HorizontalAxis"><g id="tick-marks"><line id="1750" x1="329.3" y1="533.4125" x2="329.3" y2="538.9125" stroke="#999" stroke-width="1"></line><line id="2023" x1="554" y1="533.4125" x2="554" y2="538.9125" stroke="#999" stroke-width="1"></line><line id="1850" x1="411.6" y1="533.4125" x2="411.6" y2="538.9125" stroke="#999" stroke-width="1"></line><line id="1900" x1="452.7" y1="533.4125" x2="452.7" y2="538.9125" stroke="#999" stroke-width="1"></line><line id="1950" x1="493.9" y1="533.4125" x2="493.9" y2="538.9125" stroke="#999" stroke-width="1"></line></g><g id="tick-labels"><text x="329.2609375" y="549.88125" fill="#5b5b5b" text-anchor="start" font-size="10.96875">1750</text><text x="554" y="549.88125" fill="#5b5b5b" text-anchor="end" font-size="10.96875">2023</text><text x="411.6" y="549.88125" fill="#5b5b5b" text-anchor="middle" font-size="10.96875">1850</text><text x="452.7" y="549.88125" fill="#5b5b5b" text-anchor="middle" font-size="10.96875">1900</text><text x="493.9" y="549.88125" fill="#5b5b5b" text-anchor="middle" font-size="10.96875">1950</text></g></g><g id="vertical-axis" class="VerticalAxis"><g id="tick-labels"><text x="324.26" y="510.4" dy=".32em" text-anchor="end" fill="#5b5b5b" font-size="10.96875">0.01%</text><text x="324.26" y="474.8" dy=".32em" text-anchor="end" fill="#5b5b5b" font-size="10.96875">0.1%</text><text x="324.26" y="439.2" dy=".32em" text-anchor="end" fill="#5b5b5b" font-size="10.96875">1%</text></g></g><g id="horizontal-grid-lines" class="AxisGridLines horizontalLines"><line id="0.01%" x1="329.26" y1="510.4" x2="554.00" y2="510.4" stroke="#ddd" stroke-width="1" stroke-dasharray="2,1"></line><line id="0.1%" x1="329.26" y1="474.8" x2="554.00" y2="474.8" stroke="#ddd" stroke-width="1" stroke-dasharray="2,1"></line><line id="1%" x1="329.26" y1="439.2" x2="554.00" y2="439.2" stroke="#ddd" stroke-width="1" stroke-dasharray="2,1"></line></g><g clip-path="url(#boundsClip-8)"><g class="Lines"><rect x="329" y="432" width="225" height="102" fill="rgba(255,255,255,0)" opacity="0"></rect><path fill="none" stroke-linecap="butt" stroke-linejoin="round" stroke="#ffffff" id="outline__Share-of-global-annual-CO₂-emissions" stroke-width="2.5" d="M439.6 533.9L440.4 526.1L441.2 522.3L442 523.1L442.9 516.5L443.7 508.9L444.5 497.7L445.3 498.4L446.2 491.1L447 470.5L447.8 466.4L448.6 462.4L449.5 459.1L450.3 458L451.1 455.2L451.9 458L452.7 472.1L453.6 464.6L454.4 458.8L455.2 455.7L456 454L456.9 452.9L457.7 451.5L458.5 452L459.3 451L460.2 449.4L461 448.2L461.8 449L462.6 448.9L463.4 448.7L464.3 447.7L465.1 447.4L465.9 446L466.7 445.7L467.6 446.2L468.4 443.4L469.2 444.2L470 442.3L470.9 445.4L471.7 444.4L472.5 443.6L473.3 443.2L474.1 442.1L475 443.9L475.8 443.8L476.6 444.3L477.4 444.2L478.3 444.2L479.1 444L479.9 443.6L480.7 442.9L481.6 441.9L482.4 441.9L483.2 442.3L484 440.6L484.8 440.9L485.7 441.7L486.5 441.1L487.3 439.6L488.1 439.8L489 438.3L489.8 435.1L490.6 436.2L491.4 438L492.3 438.5L493.1 436.9L493.9 438.8L494.7 438.9L495.6 437.8L496.4 438.2L497.2 437.9L498 437.5L498.8 437.7L499.7 437.8L500.5 437.1L501.3 438.2L502.1 438.6L503 437.9L503.8 438L504.6 438.2L505.4 437.7L506.3 437.3L507.1 438L507.9 437.8L508.7 438.2L509.5 438.6L510.4 439.1L511.2 437.9L512 438.3L512.8 439L513.7 438.6L514.5 437.9L515.3 438.1L516.1 438L517 438.3L517.8 437.5L518.6 436.8L519.4 434.6L520.2 433.1L521.1 432.6L521.9 431.9L522.7 432L523.5 431.9L524.4 432.5L525.2 432.4L526 432.7L526.8 434.3L527.7 433.9L528.5 434.7L529.3 433.9L530.1 433.2L530.9 432.6L531.8 432.9L532.6 432.1L533.4 432.4L534.2 432.9L535.1 433.1L535.9 433.5L536.7 434.5L537.5 433.3L538.4 432.2L539.2 433.9L540 433.4L540.8 433.2L541.7 432.5L542.5 432.9L543.3 434.1L544.1 434.6L544.9 435L545.8 435.2L546.6 434.8L547.4 435.6L548.2 435.3L549.1 436.1L549.9 436.6L550.7 435.7L551.5 435.9L552.4 437L553.2 437.9L554 438.3"></path><path fill="none" stroke-linecap="butt" stroke-linejoin="round" stroke="#4c6a9c" id="line__Share-of-global-annual-CO₂-emissions" stroke-width="1.5" stroke-opacity="1" d="M439.6 533.9L440.4 526.1L441.2 522.3L442 523.1L442.9 516.5L443.7 508.9L444.5 497.7L445.3 498.4L446.2 491.1L447 470.5L447.8 466.4L448.6 462.4L449.5 459.1L450.3 458L451.1 455.2L451.9 458L452.7 472.1L453.6 464.6L454.4 458.8L455.2 455.7L456 454L456.9 452.9L457.7 451.5L458.5 452L459.3 451L460.2 449.4L461 448.2L461.8 449L462.6 448.9L463.4 448.7L464.3 447.7L465.1 447.4L465.9 446L466.7 445.7L467.6 446.2L468.4 443.4L469.2 444.2L470 442.3L470.9 445.4L471.7 444.4L472.5 443.6L473.3 443.2L474.1 442.1L475 443.9L475.8 443.8L476.6 444.3L477.4 444.2L478.3 444.2L479.1 444L479.9 443.6L480.7 442.9L481.6 441.9L482.4 441.9L483.2 442.3L484 440.6L484.8 440.9L485.7 441.7L486.5 441.1L487.3 439.6L488.1 439.8L489 438.3L489.8 435.1L490.6 436.2L491.4 438L492.3 438.5L493.1 436.9L493.9 438.8L494.7 438.9L495.6 437.8L496.4 438.2L497.2 437.9L498 437.5L498.8 437.7L499.7 437.8L500.5 437.1L501.3 438.2L502.1 438.6L503 437.9L503.8 438L504.6 438.2L505.4 437.7L506.3 437.3L507.1 438L507.9 437.8L508.7 438.2L509.5 438.6L510.4 439.1L511.2 437.9L512 438.3L512.8 439L513.7 438.6L514.5 437.9L515.3 438.1L516.1 438L517 438.3L517.8 437.5L518.6 436.8L519.4 434.6L520.2 433.1L521.1 432.6L521.9 431.9L522.7 432L523.5 431.9L524.4 432.5L525.2 432.4L526 432.7L526.8 434.3L527.7 433.9L528.5 434.7L529.3 433.9L530.1 433.2L530.9 432.6L531.8 432.9L532.6 432.1L533.4 432.4L534.2 432.9L535.1 433.1L535.9 433.5L536.7 434.5L537.5 433.3L538.4 432.2L539.2 433.9L540 433.4L540.8 433.2L541.7 432.5L542.5 432.9L543.3 434.1L544.1 434.6L544.9 435L545.8 435.2L546.6 434.8L547.4 435.6L548.2 435.3L549.1 436.1L549.9 436.6L550.7 435.7L551.5 435.9L552.4 437L553.2 437.9L554 438.3"></path></g></g></g></g><g id="footer" class="SourcesFooter" style="fill:#5b5b5b"><g id="sources" class="markdown-text-wrap"><text x="16.0" y="581.0" style="font-size:13px;line-height:1.2"><tspan x="16" y="581.0"><tspan style="font-weight:700">Data source:</tspan> Global Carbon Budget (2024)</tspan></text></g><text id="origin-url" font-size="13.00" x="315.3" y="581.0"><tspan x="315.29999999999995" y="581.01"><a target="_blank" style="fill: #5b5b5b;" href="https://ourworldindata.org/co2-and-greenhouse-gas-emissions">OurWorldinData.org/co2-and-greenhouse-gas-emissions</a> | <a target="_blank" style="fill: #5b5b5b;" href="https://ourworldindata.org">Powered by ourworldindata.org</a></tspan></text></g></svg>