<svg xmlns="http://www.w3.org/2000/svg" version="1.1" style="font-family:Lato, &#x27;Helvetica Neue&#x27;, Helvetica, Arial, &#x27;Liberation Sans&#x27;, sans-serif;font-size:18px;background-color:white;text-rendering:geometricPrecision;-webkit-font-smoothing:antialiased" width="850" height="600" viewBox="0 0 850 600"><defs><style>@import url(http://localhost:3030/fonts.css)</style></defs><defs><pattern id="noDataPattern" patternUnits="userSpaceOnUse" width="4" height="4" patternTransform="rotate(-45 2 2)"><path d="M -1,2 l 6,0" stroke="#ccc" stroke-width="0.7"></path></pattern></defs><rect class="background-fill" fill="white" width="850" height="600"></rect><g class="HeaderView"><g transform="translate(769, 16) scale(1)"><svg className="owidLogo" xmlns="http://www.w3.org/2000/svg" width="65" height="36" viewBox="0 0 65 36"  fill="none"><path fill="#002147" d="M0 0h64.8v36H0z"/><path fill="#CE261E" d="M0 33.3h64.8V36H0z"/><path fill="#fff" d="M13.796 10.575c0 .636-.106 1.226-.318 1.77a4.193 4.193 0 0 1-.894 1.404 4.084 4.084 0 0 1-1.386.93c-.54.22-1.138.33-1.794.33-.656 0-1.256-.11-1.8-.33a4.149 4.149 0 0 1-1.392-.93 4.193 4.193 0 0 1-.894-1.404A4.833 4.833 0 0 1 5 10.575c0-.636.106-1.224.318-1.764a4.18 4.18 0 0 1 .894-1.41 4.076 4.076 0 0 1 1.392-.924 4.684 4.684 0 0 1 1.8-.336c.656 0 1.254.112 1.794.336.54.224 1.002.534 1.386.93.384.392.682.86.894 1.404.212.54.318 1.128.318 1.764Zm-1.656 0c0-.476-.064-.902-.192-1.278a2.671 2.671 0 0 0-.54-.966 2.332 2.332 0 0 0-.864-.606 2.94 2.94 0 0 0-1.14-.21c-.424 0-.806.07-1.146.21-.34.14-.63.342-.87.606a2.742 2.742 0 0 0-.546.966 3.955 3.955 0 0 0-.192 1.278c0 .476.064.904.192 1.284.128.376.31.696.546.96.24.26.53.46.87.6.34.14.722.21 1.146.21.424 0 .804-.07 1.14-.21.34-.14.628-.34.864-.6.236-.264.416-.584.54-.96a4.01 4.01 0 0 0 .192-1.284ZM16.104 8.757v3.912c0 .376.086.668.258.876.176.204.438.306.786.306.256 0 .496-.056.72-.168a2.58 2.58 0 0 0 .636-.474V8.757h1.482v6.156h-.906c-.192 0-.318-.09-.378-.27l-.102-.492a4.65 4.65 0 0 1-.396.354 2.577 2.577 0 0 1-.438.27 2.35 2.35 0 0 1-.498.168 2.345 2.345 0 0 1-.57.066c-.336 0-.634-.056-.894-.168a1.821 1.821 0 0 1-.648-.486 2.157 2.157 0 0 1-.402-.738 3.233 3.233 0 0 1-.132-.948V8.757h1.482ZM21.328 14.913V8.757h.87c.152 0 .258.028.318.084.06.056.1.152.12.288l.09.744c.22-.38.478-.68.774-.9.296-.22.628-.33.996-.33.304 0 .556.07.756.21l-.192 1.11c-.012.072-.038.124-.078.156a.278.278 0 0 1-.162.042 1.01 1.01 0 0 1-.246-.042 1.646 1.646 0 0 0-.414-.042c-.308 0-.572.086-.792.258-.22.168-.406.416-.558.744v3.834h-1.482ZM27.347 6.237h1.356a.57.57 0 0 1 .348.102c.096.064.16.152.192.264l1.476 5.19c.036.128.068.268.096.42.032.148.062.306.09.474a5.968 5.968 0 0 1 .228-.894l1.704-5.19a.575.575 0 0 1 .186-.252.543.543 0 0 1 .348-.114h.474a.57.57 0 0 1 .348.102.497.497 0 0 1 .192.264l1.692 5.19c.088.256.164.54.228.852.028-.156.056-.306.084-.45.032-.144.064-.278.096-.402l1.476-5.19c.028-.1.09-.186.186-.258a.563.563 0 0 1 .348-.108h1.266l-2.694 8.676h-1.458l-1.896-5.928-.078-.246a9.504 9.504 0 0 1-.072-.282c-.024.1-.05.194-.078.282-.024.088-.048.17-.072.246l-1.914 5.928H30.04l-2.694-8.676ZM42.771 8.661c.46 0 .876.074 1.248.222.376.148.696.358.96.63s.468.604.612.996c.144.392.216.83.216 1.314 0 .488-.072.928-.216 1.32a2.85 2.85 0 0 1-.612 1.002 2.653 2.653 0 0 1-.96.636 3.35 3.35 0 0 1-1.248.222c-.46 0-.878-.074-1.254-.222a2.712 2.712 0 0 1-.966-.636 2.922 2.922 0 0 1-.618-1.002 3.807 3.807 0 0 1-.216-1.32c0-.484.072-.922.216-1.314.148-.392.354-.724.618-.996.268-.272.59-.482.966-.63a3.397 3.397 0 0 1 1.254-.222Zm0 5.202c.512 0 .89-.172 1.134-.516.248-.344.372-.848.372-1.512s-.124-1.17-.372-1.518c-.244-.348-.622-.522-1.134-.522-.52 0-.904.176-1.152.528-.248.348-.372.852-.372 1.512s.124 1.164.372 1.512c.248.344.632.516 1.152.516ZM46.723 14.913V8.757h.87c.152 0 .258.028.318.084.06.056.1.152.12.288l.09.744c.22-.38.478-.68.774-.9.296-.22.628-.33.996-.33.304 0 .556.07.756.21l-.192 1.11c-.012.072-.038.124-.078.156a.278.278 0 0 1-.162.042 1.01 1.01 0 0 1-.246-.042 1.646 1.646 0 0 0-.414-.042c-.308 0-.572.086-.792.258-.22.168-.406.416-.558.744v3.834h-1.482ZM52.96 5.997v8.916h-1.482V5.997h1.482ZM58.732 14.913c-.192 0-.318-.09-.378-.27l-.12-.594a3.68 3.68 0 0 1-.402.39c-.14.116-.292.216-.456.3-.16.084-.334.148-.522.192a2.372 2.372 0 0 1-.6.072c-.336 0-.644-.07-.924-.21a2.098 2.098 0 0 1-.726-.606 3.033 3.033 0 0 1-.468-.99 5.072 5.072 0 0 1-.162-1.344c0-.456.062-.88.186-1.272s.302-.732.534-1.02c.232-.288.51-.512.834-.672a2.384 2.384 0 0 1 1.092-.246 2.103 2.103 0 0 1 1.536.606V5.997h1.482v8.916h-.906Zm-1.974-1.086c.308 0 .57-.064.786-.192.216-.128.42-.31.612-.546v-2.76a1.452 1.452 0 0 0-.552-.432 1.597 1.597 0 0 0-.636-.126c-.224 0-.428.042-.612.126a1.21 1.21 0 0 0-.462.384c-.124.168-.22.384-.288.648-.068.26-.102.568-.102.924 0 .36.028.666.084.918.06.248.144.452.252.612.108.156.24.27.396.342.156.068.33.102.522.102ZM16.331 20.757v6.156H14.85v-6.156h1.481Zm.223-1.794a.844.844 0 0 1-.078.36.963.963 0 0 1-.21.294.995.995 0 0 1-.3.204.963.963 0 0 1-.372.072.948.948 0 0 1-.367-.072 1.018 1.018 0 0 1-.498-.498.963.963 0 0 1 0-.732.995.995 0 0 1 .205-.3.929.929 0 0 1 .293-.198.899.899 0 0 1 .738 0 .912.912 0 0 1 .3.198.943.943 0 0 1 .288.672ZM17.771 26.913v-6.156h.906c.192 0 .318.09.378.27l.102.486a2.934 2.934 0 0 1 .828-.618c.156-.076.322-.134.498-.174.176-.04.368-.06.576-.06.336 0 .634.058.894.174.26.112.476.272.648.48.176.204.308.45.396.738.092.284.138.598.138.942v3.918h-1.482v-3.918c0-.376-.088-.666-.264-.87-.172-.208-.432-.312-.78-.312-.256 0-.496.058-.72.174a2.58 2.58 0 0 0-.636.474v4.452h-1.482ZM34.22 22.575c0 .636-.106 1.22-.318 1.752-.212.532-.51.99-.894 1.374a4 4 0 0 1-1.386.894 4.87 4.87 0 0 1-1.794.318h-3.312v-8.676h3.312a4.79 4.79 0 0 1 1.794.324 4 4 0 0 1 1.386.894c.384.38.682.836.894 1.368.212.532.318 1.116.318 1.752Zm-1.65 0c0-.476-.064-.902-.192-1.278a2.68 2.68 0 0 0-.546-.96 2.332 2.332 0 0 0-.864-.606 2.94 2.94 0 0 0-1.14-.21h-1.686v6.108h1.686c.424 0 .804-.07 1.14-.21.34-.14.628-.34.864-.6a2.75 2.75 0 0 0 .546-.96 4.01 4.01 0 0 0 .192-1.284ZM39.98 26.913h-.665c-.14 0-.25-.02-.33-.06-.08-.044-.14-.13-.18-.258l-.132-.438c-.156.14-.31.264-.462.372a2.804 2.804 0 0 1-.462.264c-.16.072-.33.126-.51.162-.18.036-.38.054-.6.054-.26 0-.5-.034-.72-.102a1.618 1.618 0 0 1-.57-.318 1.448 1.448 0 0 1-.366-.522 1.852 1.852 0 0 1-.132-.726c0-.232.06-.46.18-.684.124-.228.328-.432.612-.612.284-.184.662-.336 1.134-.456.472-.12 1.058-.188 1.758-.204v-.36c0-.412-.088-.716-.264-.912-.172-.2-.424-.3-.756-.3a1.837 1.837 0 0 0-1.02.276c-.116.068-.224.13-.324.186a.664.664 0 0 1-.33.084.429.429 0 0 1-.258-.078.614.614 0 0 1-.174-.192l-.27-.474c.708-.648 1.562-.972 2.562-.972.36 0 .68.06.96.18.284.116.524.28.72.492.196.208.344.458.444.75.104.292.156.612.156.96v3.888Zm-2.88-.924c.153 0 .293-.014.42-.042.129-.028.249-.07.36-.126.117-.056.227-.124.33-.204.109-.084.217-.182.325-.294v-1.038c-.432.02-.794.058-1.086.114-.288.052-.52.12-.696.204a.923.923 0 0 0-.378.294.664.664 0 0 0-.108.366c0 .26.076.446.228.558.156.112.358.168.606.168ZM43.22 27.01c-.532 0-.942-.15-1.23-.45-.288-.305-.432-.723-.432-1.255v-3.438h-.624a.31.31 0 0 1-.21-.078c-.056-.052-.084-.13-.084-.234v-.588l.99-.162.312-1.68a.302.302 0 0 1 .108-.186.365.365 0 0 1 .222-.066h.768v1.938h1.62v1.056h-1.62v3.336c0 .192.048.342.144.45a.488.488 0 0 0 .384.162c.092 0 .168-.01.228-.03.064-.024.118-.048.162-.072.048-.024.09-.046.126-.066a.194.194 0 0 1 .108-.036.16.16 0 0 1 .108.036c.028.02.058.052.09.096l.444.72c-.216.18-.464.316-.744.408a2.77 2.77 0 0 1-.87.138ZM50.423 26.913h-.666c-.14 0-.25-.02-.33-.06-.08-.044-.14-.13-.18-.258l-.132-.438c-.156.14-.31.264-.462.372a2.804 2.804 0 0 1-.462.264c-.16.072-.33.126-.51.162-.18.036-.38.054-.6.054-.26 0-.5-.034-.72-.102a1.618 1.618 0 0 1-.57-.318 1.448 1.448 0 0 1-.366-.522 1.852 1.852 0 0 1-.132-.726c0-.232.06-.46.18-.684.124-.228.328-.432.612-.612.284-.184.662-.336 1.134-.456.472-.12 1.058-.188 1.758-.204v-.36c0-.412-.088-.716-.264-.912-.172-.2-.424-.3-.756-.3a1.837 1.837 0 0 0-1.02.276c-.116.068-.224.13-.324.186a.664.664 0 0 1-.33.084.429.429 0 0 1-.258-.078.614.614 0 0 1-.174-.192l-.27-.474c.708-.648 1.562-.972 2.562-.972.36 0 .68.06.96.18.284.116.524.28.72.492.196.208.344.458.444.75.104.292.156.612.156.96v3.888Zm-2.88-.924c.152 0 .292-.014.42-.042.128-.028.248-.07.36-.126.116-.056.226-.124.33-.204.108-.084.216-.182.324-.294v-1.038c-.432.02-.794.058-1.086.114-.288.052-.52.12-.696.204a.923.923 0 0 0-.378.294.664.664 0 0 0-.108.366c0 .26.076.446.228.558.156.112.358.168.606.168Z"/></svg></g><a href="http://localhost:3030/grapher/annual-co2-emissions-per-country?yScale=log&amp;time=earliest..latest&amp;facet=entity&amp;uniformYAxis=0" style="font-family:&#x27;Playfair Display&#x27;, Georgia, &#x27;Times New Roman&#x27;, &#x27;Liberation Serif&#x27;, serif" target="_blank" rel="noopener"><text font-size="24.00" font-weight="600" x="16.0" y="39.3" fill="#5b5b5b"><tspan x="16" y="39.28">Annual CO₂ emissions</tspan></text></a><text x="16.0" y="63.0" style="font-size:14px;line-height:1.28571" fill="#5b5b5b"><tspan x="16" y="63.0">Carbon dioxide (CO₂) emissions from <tspan>fossil fuels and industry</tspan>. Land use change is not included.</tspan></text></g><text x="61.408874999999995" y="95.96244" fill="#1d3d63" font-size="14.625" style="font-weight:700">United States<title>United States</title></text><g class="LineChart"><defs><clipPath id="boundsClip-1"><rect x="51.408874999999995" y="99.12494" width="282" height="133"></rect></clipPath></defs><rect x="16" y="109.12494" width="262" height="113" fill="none"></rect><g class="DualAxisView"><g class="HorizontalAxis"><line x1="61.4" y1="201.96244000000002" x2="61.4" y2="206.96244000000002" stroke="#999"></line><line x1="277" y1="201.96244000000002" x2="277" y2="206.96244000000002" stroke="#999"></line><line x1="141" y1="201.96244000000002" x2="141" y2="206.96244000000002" stroke="#999"></line><line x1="180.7" y1="201.96244000000002" x2="180.7" y2="206.96244000000002" stroke="#999"></line><line x1="220.5" y1="201.96244000000002" x2="220.5" y2="206.96244000000002" stroke="#999"></line><text x="61.408874999999995" y="220.12493999999998" fill="#666" text-anchor="start" font-size="13.1625">1750</text><text x="277" y="220.12493999999998" fill="#666" text-anchor="end" font-size="13.1625">2021</text><text x="141" y="220.12493999999998" fill="#666" text-anchor="middle" font-size="13.1625">1850</text><text x="180.7" y="220.12493999999998" fill="#666" text-anchor="middle" font-size="13.1625">1900</text><text x="220.5" y="220.12493999999998" fill="#666" text-anchor="middle" font-size="13.1625">1950</text></g><g class="VerticalAxis"><text x="56.41" y="190.1" dy=".32em" text-anchor="end" fill="#666" font-size="13.1625">1M t</text><text x="56.41" y="170.3" dy=".32em" text-anchor="end" fill="#666" font-size="13.1625">10M t</text><text x="56.41" y="150.5" dy=".32em" text-anchor="end" fill="#666" font-size="13.1625">100M t</text><text x="56.41" y="130.7" dy=".32em" text-anchor="end" fill="#666" font-size="13.1625">1B t</text></g><g class="AxisGridLines horizontalLines"><line x1="61.41" y1="190.1" x2="277.00" y2="190.1" stroke="#ddd" stroke-dasharray="2,1"></line><line x1="61.41" y1="170.3" x2="277.00" y2="170.3" stroke="#ddd" stroke-dasharray="2,1"></line><line x1="61.41" y1="150.5" x2="277.00" y2="150.5" stroke="#ddd" stroke-dasharray="2,1"></line><line x1="61.41" y1="130.7" x2="277.00" y2="130.7" stroke="#ddd" stroke-dasharray="2,1"></line></g></g><g clip-path="url(#boundsClip-1)"><g class="Lines"><rect x="61" y="115" width="216" height="87" fill="rgba(255,255,255,0)" opacity="0"></rect><g><path stroke-linecap="round" stroke-linejoin="round" stroke="#ddd" d="M101.2 202L102 201.5L102.8 200.8L103.6 200.6L104.4 199.6L105.2 199.4L106 199.6L106.8 198.5L107.6 198.2L108.3 198L109.1 197.6L109.9 197.1L110.7 196.4L111.5 195.8L112.3 195.1L113.1 194.5L113.9 193.7L114.7 193L115.5 192.3L116.3 192.5L117.1 192.1L117.9 191.8L118.7 191.4L119.5 191L120.3 190L121.1 189L121.9 187.8L122.7 187L123.5 186.1L124.3 185.1L125.1 183.8L125.8 183.1L126.6 180.6L127.4 179.3L128.2 179.7L129 177.6L129.8 176.8L130.6 175.8L131.4 176.2L132.2 175.4L133 174.9L133.8 174.4L134.6 173.5L135.4 172.5L136.2 171L137 169.4L137.8 168.3L138.6 166.8L139.4 165.9L140.2 165.2L141 164.5L141.8 162.6L142.6 161.9L143.3 160.8L144.1 160L144.9 158.8L145.7 158.4L146.5 158.2L147.3 158.1L148.1 157.3L148.9 156.9L149.7 157.3L150.5 156.9L151.3 155.7L152.1 155.1L152.9 155.1L153.7 155L154.5 153.3L155.3 152.2L156.1 151.1L156.9 150.7L157.7 150.3L158.5 148.5L159.3 147.7L160.1 148L160.9 147.9L161.6 148.1L162.4 147.2L163.2 147.4L164 145.7L164.8 144.6L165.6 144.1L166.4 143.2L167.2 142.5L168 142.1L168.8 141.9L169.6 141.5L170.4 140.9L171.2 139.2L172 140.1L172.8 138.6L173.6 138L174.4 137.6L175.2 137.5L176 138.1L176.8 137L177.6 137L178.4 136.7L179.1 135.9L179.9 134.8L180.7 134.3L181.5 133.5L182.3 133L183.1 131.7L183.9 131.8L184.7 130.8L185.5 130.4L186.3 129.1L187.1 130.3L187.9 129.4L188.7 128.7L189.5 128.8L190.3 128.2L191.1 127.6L191.9 128.4L192.7 128L193.5 127.1L194.3 126.3L195.1 125.9L195.9 127.4L196.7 126L197.4 127.7L198.2 127.6L199 125.2L199.8 126.2L200.6 125.9L201.4 125.2L202.2 125.4L203 125.5L203.8 124.9L204.6 125.9L205.4 127.3L206.2 128.8L207 128.2L207.8 127.6L208.6 127.3L209.4 126.1L210.2 125.7L211 127.2L211.8 126.3L212.6 125.3L213.4 124.6L214.2 124L214.9 123.7L215.7 123L216.5 123.3L217.3 123.7L218.1 122.9L218.9 122.6L219.7 124.1L220.5 122.7L221.3 122.5L222.1 122.7L222.9 122.5L223.7 122.9L224.5 122.1L225.3 121.7L226.1 121.8L226.9 122L227.7 121.8L228.5 121.6L229.3 121.6L230.1 121.3L230.9 120.9L231.7 120.6L232.4 120.2L233.2 119.8L234 119.5L234.8 119.2L235.6 118.7L236.4 118.1L237.2 118.1L238 117.7L238.8 117.3L239.6 117.6L240.4 117.8L241.2 117.3L242 117.1L242.8 117L243.6 116.9L244.4 117.2L245.2 117.4L246 117.9L246.8 117.9L247.6 117.5L248.4 117.5L249.2 117.5L250 117.2L250.7 116.8L251.5 116.7L252.3 116.7L253.1 116.8L253.9 116.6L254.7 116.4L255.5 116.3L256.3 116.2L257.1 115.9L257.9 115.8L258.7 115.7L259.5 115.6L260.3 115.3L261.1 115.4L261.9 115.4L262.7 115.3L263.5 115.2L264.3 115.1L265.1 115.2L265.9 115.1L266.7 115.4L267.5 116.1L268.2 115.8L269 116L269.8 116.3L270.6 116.1L271.4 116L272.2 116.3L273 116.5L273.8 116.5L274.6 116.3L275.4 116.5L276.2 117.4L277 116.9" fill="none" stroke-width="1"></path></g><g><path fill="none" stroke-linecap="butt" stroke-linejoin="round" stroke="#fff" stroke-width="2.5" d="M101.2 202L102 201.5L102.8 200.8L103.6 200.6L104.4 199.6L105.2 199.4L106 199.6L106.8 198.5L107.6 198.2L108.3 198L109.1 197.6L109.9 197.1L110.7 196.4L111.5 195.8L112.3 195.1L113.1 194.5L113.9 193.7L114.7 193L115.5 192.3L116.3 192.5L117.1 192.1L117.9 191.8L118.7 191.4L119.5 191L120.3 190L121.1 189L121.9 187.8L122.7 187L123.5 186.1L124.3 185.1L125.1 183.8L125.8 183.1L126.6 180.6L127.4 179.3L128.2 179.7L129 177.6L129.8 176.8L130.6 175.8L131.4 176.2L132.2 175.4L133 174.9L133.8 174.4L134.6 173.5L135.4 172.5L136.2 171L137 169.4L137.8 168.3L138.6 166.8L139.4 165.9L140.2 165.2L141 164.5L141.8 162.6L142.6 161.9L143.3 160.8L144.1 160L144.9 158.8L145.7 158.4L146.5 158.2L147.3 158.1L148.1 157.3L148.9 156.9L149.7 157.3L150.5 156.9L151.3 155.7L152.1 155.1L152.9 155.1L153.7 155L154.5 153.3L155.3 152.2L156.1 151.1L156.9 150.7L157.7 150.3L158.5 148.5L159.3 147.7L160.1 148L160.9 147.9L161.6 148.1L162.4 147.2L163.2 147.4L164 145.7L164.8 144.6L165.6 144.1L166.4 143.2L167.2 142.5L168 142.1L168.8 141.9L169.6 141.5L170.4 140.9L171.2 139.2L172 140.1L172.8 138.6L173.6 138L174.4 137.6L175.2 137.5L176 138.1L176.8 137L177.6 137L178.4 136.7L179.1 135.9L179.9 134.8L180.7 134.3L181.5 133.5L182.3 133L183.1 131.7L183.9 131.8L184.7 130.8L185.5 130.4L186.3 129.1L187.1 130.3L187.9 129.4L188.7 128.7L189.5 128.8L190.3 128.2L191.1 127.6L191.9 128.4L192.7 128L193.5 127.1L194.3 126.3L195.1 125.9L195.9 127.4L196.7 126L197.4 127.7L198.2 127.6L199 125.2L199.8 126.2L200.6 125.9L201.4 125.2L202.2 125.4L203 125.5L203.8 124.9L204.6 125.9L205.4 127.3L206.2 128.8L207 128.2L207.8 127.6L208.6 127.3L209.4 126.1L210.2 125.7L211 127.2L211.8 126.3L212.6 125.3L213.4 124.6L214.2 124L214.9 123.7L215.7 123L216.5 123.3L217.3 123.7L218.1 122.9L218.9 122.6L219.7 124.1L220.5 122.7L221.3 122.5L222.1 122.7L222.9 122.5L223.7 122.9L224.5 122.1L225.3 121.7L226.1 121.8L226.9 122L227.7 121.8L228.5 121.6L229.3 121.6L230.1 121.3L230.9 120.9L231.7 120.6L232.4 120.2L233.2 119.8L234 119.5L234.8 119.2L235.6 118.7L236.4 118.1L237.2 118.1L238 117.7L238.8 117.3L239.6 117.6L240.4 117.8L241.2 117.3L242 117.1L242.8 117L243.6 116.9L244.4 117.2L245.2 117.4L246 117.9L246.8 117.9L247.6 117.5L248.4 117.5L249.2 117.5L250 117.2L250.7 116.8L251.5 116.7L252.3 116.7L253.1 116.8L253.9 116.6L254.7 116.4L255.5 116.3L256.3 116.2L257.1 115.9L257.9 115.8L258.7 115.7L259.5 115.6L260.3 115.3L261.1 115.4L261.9 115.4L262.7 115.3L263.5 115.2L264.3 115.1L265.1 115.2L265.9 115.1L266.7 115.4L267.5 116.1L268.2 115.8L269 116L269.8 116.3L270.6 116.1L271.4 116L272.2 116.3L273 116.5L273.8 116.5L274.6 116.3L275.4 116.5L276.2 117.4L277 116.9"></path><polyline points="101.20,202.00 102.00,201.50 102.80,200.80 103.60,200.60 104.40,199.60 105.20,199.40 106.00,199.60 106.80,198.50 107.60,198.20 108.30,198.00 109.10,197.60 109.90,197.10 110.70,196.40 111.50,195.80 112.30,195.10 113.10,194.50 113.90,193.70 114.70,193.00 115.50,192.30 116.30,192.50 117.10,192.10 117.90,191.80 118.70,191.40 119.50,191.00 120.30,190.00 121.10,189.00 121.90,187.80 122.70,187.00 123.50,186.10 124.30,185.10 125.10,183.80 125.80,183.10 126.60,180.60 127.40,179.30 128.20,179.70 129.00,177.60 129.80,176.80 130.60,175.80 131.40,176.20 132.20,175.40 133.00,174.90 133.80,174.40 134.60,173.50 135.40,172.50 136.20,171.00 137.00,169.40 137.80,168.30 138.60,166.80 139.40,165.90 140.20,165.20 141.00,164.50 141.80,162.60 142.60,161.90 143.30,160.80 144.10,160.00 144.90,158.80 145.70,158.40 146.50,158.20 147.30,158.10 148.10,157.30 148.90,156.90 149.70,157.30 150.50,156.90 151.30,155.70 152.10,155.10 152.90,155.10 153.70,155.00 154.50,153.30 155.30,152.20 156.10,151.10 156.90,150.70 157.70,150.30 158.50,148.50 159.30,147.70 160.10,148.00 160.90,147.90 161.60,148.10 162.40,147.20 163.20,147.40 164.00,145.70 164.80,144.60 165.60,144.10 166.40,143.20 167.20,142.50 168.00,142.10 168.80,141.90 169.60,141.50 170.40,140.90 171.20,139.20 172.00,140.10 172.80,138.60 173.60,138.00 174.40,137.60 175.20,137.50 176.00,138.10 176.80,137.00 177.60,137.00 178.40,136.70 179.10,135.90 179.90,134.80 180.70,134.30 181.50,133.50 182.30,133.00 183.10,131.70 183.90,131.80 184.70,130.80 185.50,130.40 186.30,129.10 187.10,130.30 187.90,129.40 188.70,128.70 189.50,128.80 190.30,128.20 191.10,127.60 191.90,128.40 192.70,128.00 193.50,127.10 194.30,126.30 195.10,125.90 195.90,127.40 196.70,126.00 197.40,127.70 198.20,127.60 199.00,125.20 199.80,126.20 200.60,125.90 201.40,125.20 202.20,125.40 203.00,125.50 203.80,124.90 204.60,125.90 205.40,127.30 206.20,128.80 207.00,128.20 207.80,127.60 208.60,127.30 209.40,126.10 210.20,125.70 211.00,127.20 211.80,126.30 212.60,125.30 213.40,124.60 214.20,124.00 214.90,123.70 215.70,123.00 216.50,123.30 217.30,123.70 218.10,122.90 218.90,122.60 219.70,124.10 220.50,122.70 221.30,122.50 222.10,122.70 222.90,122.50 223.70,122.90 224.50,122.10 225.30,121.70 226.10,121.80 226.90,122.00 227.70,121.80 228.50,121.60 229.30,121.60 230.10,121.30 230.90,120.90 231.70,120.60 232.40,120.20 233.20,119.80 234.00,119.50 234.80,119.20 235.60,118.70 236.40,118.10 237.20,118.10 238.00,117.70 238.80,117.30 239.60,117.60 240.40,117.80 241.20,117.30 242.00,117.10 242.80,117.00 243.60,116.90 244.40,117.20 245.20,117.40 246.00,117.90 246.80,117.90 247.60,117.50 248.40,117.50 249.20,117.50 250.00,117.20 250.70,116.80 251.50,116.70 252.30,116.70 253.10,116.80 253.90,116.60 254.70,116.40 255.50,116.30 256.30,116.20 257.10,115.90 257.90,115.80 258.70,115.70 259.50,115.60 260.30,115.30 261.10,115.40 261.90,115.40 262.70,115.30 263.50,115.20 264.30,115.10 265.10,115.20 265.90,115.10 266.70,115.40 267.50,116.10 268.20,115.80 269.00,116.00 269.80,116.30 270.60,116.10 271.40,116.00 272.20,116.30 273.00,116.50 273.80,116.50 274.60,116.30 275.40,116.50 276.20,117.40 277.00,116.90" stroke-linejoin="round" stroke-width="1.5" stroke="#C15065" fill="none" stroke-linecap="butt"></polyline></g></g></g></g><text x="338.40887499999997" y="95.96244" fill="#1d3d63" font-size="14.625" style="font-weight:700">United Kingdom<title>United Kingdom</title></text><g class="LineChart"><defs><clipPath id="boundsClip-2"><rect x="328.40887499999997" y="99.12494" width="282" height="133"></rect></clipPath></defs><rect x="293" y="109.12494" width="262" height="113" fill="none"></rect><g class="DualAxisView"><g class="HorizontalAxis"><line x1="338.4" y1="201.96244000000002" x2="338.4" y2="206.96244000000002" stroke="#999"></line><line x1="554" y1="201.96244000000002" x2="554" y2="206.96244000000002" stroke="#999"></line><line x1="418" y1="201.96244000000002" x2="418" y2="206.96244000000002" stroke="#999"></line><line x1="457.7" y1="201.96244000000002" x2="457.7" y2="206.96244000000002" stroke="#999"></line><line x1="497.5" y1="201.96244000000002" x2="497.5" y2="206.96244000000002" stroke="#999"></line><text x="338.40887499999997" y="220.12493999999998" fill="#666" text-anchor="start" font-size="13.1625">1750</text><text x="554" y="220.12493999999998" fill="#666" text-anchor="end" font-size="13.1625">2021</text><text x="418" y="220.12493999999998" fill="#666" text-anchor="middle" font-size="13.1625">1850</text><text x="457.7" y="220.12493999999998" fill="#666" text-anchor="middle" font-size="13.1625">1900</text><text x="497.5" y="220.12493999999998" fill="#666" text-anchor="middle" font-size="13.1625">1950</text></g><g class="VerticalAxis"><text x="333.41" y="200.6" dy=".32em" text-anchor="end" fill="#666" font-size="13.1625">10M t</text><text x="333.41" y="153.6" dy=".32em" text-anchor="end" fill="#666" font-size="13.1625">100M t</text></g><g class="AxisGridLines horizontalLines"><line x1="338.41" y1="200.6" x2="554.00" y2="200.6" stroke="#ddd" stroke-dasharray="2,1"></line><line x1="338.41" y1="153.6" x2="554.00" y2="153.6" stroke="#ddd" stroke-dasharray="2,1"></line></g></g><g clip-path="url(#boundsClip-2)"><g class="Lines"><rect x="338" y="115" width="216" height="87" fill="rgba(255,255,255,0)" opacity="0"></rect><g><path stroke-linecap="round" stroke-linejoin="round" stroke="#ddd" d="M338.4 202L339.2 202L340 202L340.8 202L341.6 201.9L342.4 201.9L343.2 200.6L344 200.6L344.8 200.6L345.6 200.6L346.4 200.6L347.2 198.7L348 198.7L348.8 198.7L349.5 198.7L350.3 198.7L351.1 196.4L351.9 196.4L352.7 196.4L353.5 196.4L354.3 196.4L355.1 194.3L355.9 194.3L356.7 194.3L357.5 194.3L358.3 194.3L359.1 192.3L359.9 192.3L360.7 192.3L361.5 192.3L362.3 192.2L363.1 190L363.9 190L364.7 189.9L365.5 189.9L366.3 189.9L367 187.3L367.8 187.3L368.6 187.3L369.4 187.3L370.2 187.3L371 185.1L371.8 185.1L372.6 185L373.4 185L374.2 185L375 184.1L375.8 183.1L376.6 182.3L377.4 181.3L378.2 180.6L379 180.6L379.8 180.4L380.6 178.1L381.4 178L382.2 177.2L383 176.1L383.8 176.1L384.6 176.1L385.3 176.1L386.1 176.1L386.9 174.7L387.7 173.9L388.5 173.7L389.3 173.3L390.1 172.9L390.9 171.6L391.7 171.4L392.5 171.3L393.3 171.2L394.1 171.1L394.9 170.9L395.7 170.1L396.5 169.1L397.3 168.1L398.1 167.9L398.9 167.7L399.7 166.9L400.5 166.7L401.3 166.4L402.1 161.5L402.8 162.2L403.6 162.2L404.4 162.3L405.2 162.2L406 162.3L406.8 159.1L407.6 159.8L408.4 159.3L409.2 158.8L410 157.9L410.8 157.7L411.6 156.9L412.4 156L413.2 155L414 153.6L414.8 154.5L415.6 152.9L416.4 151.8L417.2 150.6L418 149.5L418.8 150.5L419.6 150.6L420.3 150.7L421.1 146.9L421.9 148.2L422.7 146.7L423.5 147.1L424.3 147.5L425.1 145.4L425.9 143.1L426.7 142.2L427.5 142.9L428.3 141.6L429.1 140.1L429.9 138.9L430.7 138.3L431.5 137.8L432.3 138.2L433.1 137.2L433.9 136.8L434.7 135.6L435.5 134.5L436.3 133.8L437.1 134.4L437.9 133.3L438.6 133.3L439.4 132.9L440.2 133.3L441 133.2L441.8 131.4L442.6 130.4L443.4 130.2L444.2 129.4L445 130L445.8 130.2L446.6 130.4L447.4 129.9L448.2 129.1L449 128.4L449.8 127.9L450.6 127.5L451.4 127.9L452.2 130.1L453 127.4L453.8 127.2L454.6 126.6L455.4 126.1L456.1 126L456.9 124.6L457.7 124.4L458.5 124.8L459.3 124L460.1 123.9L460.9 123.8L461.7 123.5L462.5 122.8L463.3 121.9L464.1 122.4L464.9 122.2L465.7 122.1L466.5 121.6L467.3 122.7L468.1 120.9L468.9 121.5L469.7 121.2L470.5 120.5L471.3 120.8L472.1 122.2L472.9 122.7L473.7 122L474.4 129.9L475.2 124L476 122.7L476.8 121.8L477.6 123L478.4 135.2L479.2 122.2L480 123.5L480.8 122.5L481.6 123.4L482.4 124.7L483.2 125.6L484 125.8L484.8 124.2L485.6 123.9L486.4 122.8L487.2 122.1L488 123L488.8 122.8L489.6 121.8L490.4 122.1L491.2 122.1L491.9 122.7L492.7 123.3L493.5 124.5L494.3 123.6L495.1 122.4L495.9 121.8L496.7 121.4L497.5 120.8L498.3 119L499.1 119.7L499.9 119.2L500.7 118.7L501.5 117.9L502.3 118L503.1 118.1L503.9 118.6L504.7 119L505.5 117.6L506.3 117.5L507.1 117.3L507.9 117L508.7 116.8L509.4 116.3L510.2 116.5L511 117.4L511.8 116.9L512.6 116.1L513.4 115.4L514.2 115.1L515 115.5L515.8 115.2L516.6 116.5L517.4 117L518.2 117.1L519 116.9L519.8 116.9L520.6 115.6L521.4 117.8L522.2 118.5L523 118.9L523.8 119L524.6 119.6L525.4 118.5L526.2 118.2L527 118.1L527.7 118.1L528.5 117.7L529.3 117L530.1 116.8L530.9 117.3L531.7 117.8L532.5 118L533.3 118.3L534.1 117.5L534.9 118.4L535.7 118.2L536.5 118.4L537.3 118.2L538.1 117.8L538.9 118.5L539.7 118.1L540.5 118L541.3 118.1L542.1 118.2L542.9 118.5L543.7 119L544.5 121L545.2 120.3L546 122.1L546.8 121.3L547.6 121.7L548.4 123.5L549.2 124.2L550 125.4L550.8 126L551.6 126.4L552.4 127.2L553.2 129.5L554 128.3" fill="none" stroke-width="1"></path></g><g><path fill="none" stroke-linecap="butt" stroke-linejoin="round" stroke="#fff" stroke-width="2.5" d="M338.4 202L339.2 202L340 202L340.8 202L341.6 201.9L342.4 201.9L343.2 200.6L344 200.6L344.8 200.6L345.6 200.6L346.4 200.6L347.2 198.7L348 198.7L348.8 198.7L349.5 198.7L350.3 198.7L351.1 196.4L351.9 196.4L352.7 196.4L353.5 196.4L354.3 196.4L355.1 194.3L355.9 194.3L356.7 194.3L357.5 194.3L358.3 194.3L359.1 192.3L359.9 192.3L360.7 192.3L361.5 192.3L362.3 192.2L363.1 190L363.9 190L364.7 189.9L365.5 189.9L366.3 189.9L367 187.3L367.8 187.3L368.6 187.3L369.4 187.3L370.2 187.3L371 185.1L371.8 185.1L372.6 185L373.4 185L374.2 185L375 184.1L375.8 183.1L376.6 182.3L377.4 181.3L378.2 180.6L379 180.6L379.8 180.4L380.6 178.1L381.4 178L382.2 177.2L383 176.1L383.8 176.1L384.6 176.1L385.3 176.1L386.1 176.1L386.9 174.7L387.7 173.9L388.5 173.7L389.3 173.3L390.1 172.9L390.9 171.6L391.7 171.4L392.5 171.3L393.3 171.2L394.1 171.1L394.9 170.9L395.7 170.1L396.5 169.1L397.3 168.1L398.1 167.9L398.9 167.7L399.7 166.9L400.5 166.7L401.3 166.4L402.1 161.5L402.8 162.2L403.6 162.2L404.4 162.3L405.2 162.2L406 162.3L406.8 159.1L407.6 159.8L408.4 159.3L409.2 158.8L410 157.9L410.8 157.7L411.6 156.9L412.4 156L413.2 155L414 153.6L414.8 154.5L415.6 152.9L416.4 151.8L417.2 150.6L418 149.5L418.8 150.5L419.6 150.6L420.3 150.7L421.1 146.9L421.9 148.2L422.7 146.7L423.5 147.1L424.3 147.5L425.1 145.4L425.9 143.1L426.7 142.2L427.5 142.9L428.3 141.6L429.1 140.1L429.9 138.9L430.7 138.3L431.5 137.8L432.3 138.2L433.1 137.2L433.9 136.8L434.7 135.6L435.5 134.5L436.3 133.8L437.1 134.4L437.9 133.3L438.6 133.3L439.4 132.9L440.2 133.3L441 133.2L441.8 131.4L442.6 130.4L443.4 130.2L444.2 129.4L445 130L445.8 130.2L446.6 130.4L447.4 129.9L448.2 129.1L449 128.4L449.8 127.9L450.6 127.5L451.4 127.9L452.2 130.1L453 127.4L453.8 127.2L454.6 126.6L455.4 126.1L456.1 126L456.9 124.6L457.7 124.4L458.5 124.8L459.3 124L460.1 123.9L460.9 123.8L461.7 123.5L462.5 122.8L463.3 121.9L464.1 122.4L464.9 122.2L465.7 122.1L466.5 121.6L467.3 122.7L468.1 120.9L468.9 121.5L469.7 121.2L470.5 120.5L471.3 120.8L472.1 122.2L472.9 122.7L473.7 122L474.4 129.9L475.2 124L476 122.7L476.8 121.8L477.6 123L478.4 135.2L479.2 122.2L480 123.5L480.8 122.5L481.6 123.4L482.4 124.7L483.2 125.6L484 125.8L484.8 124.2L485.6 123.9L486.4 122.8L487.2 122.1L488 123L488.8 122.8L489.6 121.8L490.4 122.1L491.2 122.1L491.9 122.7L492.7 123.3L493.5 124.5L494.3 123.6L495.1 122.4L495.9 121.8L496.7 121.4L497.5 120.8L498.3 119L499.1 119.7L499.9 119.2L500.7 118.7L501.5 117.9L502.3 118L503.1 118.1L503.9 118.6L504.7 119L505.5 117.6L506.3 117.5L507.1 117.3L507.9 117L508.7 116.8L509.4 116.3L510.2 116.5L511 117.4L511.8 116.9L512.6 116.1L513.4 115.4L514.2 115.1L515 115.5L515.8 115.2L516.6 116.5L517.4 117L518.2 117.1L519 116.9L519.8 116.9L520.6 115.6L521.4 117.8L522.2 118.5L523 118.9L523.8 119L524.6 119.6L525.4 118.5L526.2 118.2L527 118.1L527.7 118.1L528.5 117.7L529.3 117L530.1 116.8L530.9 117.3L531.7 117.8L532.5 118L533.3 118.3L534.1 117.5L534.9 118.4L535.7 118.2L536.5 118.4L537.3 118.2L538.1 117.8L538.9 118.5L539.7 118.1L540.5 118L541.3 118.1L542.1 118.2L542.9 118.5L543.7 119L544.5 121L545.2 120.3L546 122.1L546.8 121.3L547.6 121.7L548.4 123.5L549.2 124.2L550 125.4L550.8 126L551.6 126.4L552.4 127.2L553.2 129.5L554 128.3"></path><polyline points="338.40,202.00 339.20,202.00 340.00,202.00 340.80,202.00 341.60,201.90 342.40,201.90 343.20,200.60 344.00,200.60 344.80,200.60 345.60,200.60 346.40,200.60 347.20,198.70 348.00,198.70 348.80,198.70 349.50,198.70 350.30,198.70 351.10,196.40 351.90,196.40 352.70,196.40 353.50,196.40 354.30,196.40 355.10,194.30 355.90,194.30 356.70,194.30 357.50,194.30 358.30,194.30 359.10,192.30 359.90,192.30 360.70,192.30 361.50,192.30 362.30,192.20 363.10,190.00 363.90,190.00 364.70,189.90 365.50,189.90 366.30,189.90 367.00,187.30 367.80,187.30 368.60,187.30 369.40,187.30 370.20,187.30 371.00,185.10 371.80,185.10 372.60,185.00 373.40,185.00 374.20,185.00 375.00,184.10 375.80,183.10 376.60,182.30 377.40,181.30 378.20,180.60 379.00,180.60 379.80,180.40 380.60,178.10 381.40,178.00 382.20,177.20 383.00,176.10 383.80,176.10 384.60,176.10 385.30,176.10 386.10,176.10 386.90,174.70 387.70,173.90 388.50,173.70 389.30,173.30 390.10,172.90 390.90,171.60 391.70,171.40 392.50,171.30 393.30,171.20 394.10,171.10 394.90,170.90 395.70,170.10 396.50,169.10 397.30,168.10 398.10,167.90 398.90,167.70 399.70,166.90 400.50,166.70 401.30,166.40 402.10,161.50 402.80,162.20 403.60,162.20 404.40,162.30 405.20,162.20 406.00,162.30 406.80,159.10 407.60,159.80 408.40,159.30 409.20,158.80 410.00,157.90 410.80,157.70 411.60,156.90 412.40,156.00 413.20,155.00 414.00,153.60 414.80,154.50 415.60,152.90 416.40,151.80 417.20,150.60 418.00,149.50 418.80,150.50 419.60,150.60 420.30,150.70 421.10,146.90 421.90,148.20 422.70,146.70 423.50,147.10 424.30,147.50 425.10,145.40 425.90,143.10 426.70,142.20 427.50,142.90 428.30,141.60 429.10,140.10 429.90,138.90 430.70,138.30 431.50,137.80 432.30,138.20 433.10,137.20 433.90,136.80 434.70,135.60 435.50,134.50 436.30,133.80 437.10,134.40 437.90,133.30 438.60,133.30 439.40,132.90 440.20,133.30 441.00,133.20 441.80,131.40 442.60,130.40 443.40,130.20 444.20,129.40 445.00,130.00 445.80,130.20 446.60,130.40 447.40,129.90 448.20,129.10 449.00,128.40 449.80,127.90 450.60,127.50 451.40,127.90 452.20,130.10 453.00,127.40 453.80,127.20 454.60,126.60 455.40,126.10 456.10,126.00 456.90,124.60 457.70,124.40 458.50,124.80 459.30,124.00 460.10,123.90 460.90,123.80 461.70,123.50 462.50,122.80 463.30,121.90 464.10,122.40 464.90,122.20 465.70,122.10 466.50,121.60 467.30,122.70 468.10,120.90 468.90,121.50 469.70,121.20 470.50,120.50 471.30,120.80 472.10,122.20 472.90,122.70 473.70,122.00 474.40,129.90 475.20,124.00 476.00,122.70 476.80,121.80 477.60,123.00 478.40,135.20 479.20,122.20 480.00,123.50 480.80,122.50 481.60,123.40 482.40,124.70 483.20,125.60 484.00,125.80 484.80,124.20 485.60,123.90 486.40,122.80 487.20,122.10 488.00,123.00 488.80,122.80 489.60,121.80 490.40,122.10 491.20,122.10 491.90,122.70 492.70,123.30 493.50,124.50 494.30,123.60 495.10,122.40 495.90,121.80 496.70,121.40 497.50,120.80 498.30,119.00 499.10,119.70 499.90,119.20 500.70,118.70 501.50,117.90 502.30,118.00 503.10,118.10 503.90,118.60 504.70,119.00 505.50,117.60 506.30,117.50 507.10,117.30 507.90,117.00 508.70,116.80 509.40,116.30 510.20,116.50 511.00,117.40 511.80,116.90 512.60,116.10 513.40,115.40 514.20,115.10 515.00,115.50 515.80,115.20 516.60,116.50 517.40,117.00 518.20,117.10 519.00,116.90 519.80,116.90 520.60,115.60 521.40,117.80 522.20,118.50 523.00,118.90 523.80,119.00 524.60,119.60 525.40,118.50 526.20,118.20 527.00,118.10 527.70,118.10 528.50,117.70 529.30,117.00 530.10,116.80 530.90,117.30 531.70,117.80 532.50,118.00 533.30,118.30 534.10,117.50 534.90,118.40 535.70,118.20 536.50,118.40 537.30,118.20 538.10,117.80 538.90,118.50 539.70,118.10 540.50,118.00 541.30,118.10 542.10,118.20 542.90,118.50 543.70,119.00 544.50,121.00 545.20,120.30 546.00,122.10 546.80,121.30 547.60,121.70 548.40,123.50 549.20,124.20 550.00,125.40 550.80,126.00 551.60,126.40 552.40,127.20 553.20,129.50 554.00,128.30" stroke-linejoin="round" stroke-width="1.5" stroke="#C15065" fill="none" stroke-linecap="butt"></polyline></g></g></g></g><text x="615.408875" y="95.96244" fill="#1d3d63" font-size="14.625" style="font-weight:700">India<title>India</title></text><g class="LineChart"><defs><clipPath id="boundsClip-3"><rect x="605.408875" y="99.12494" width="282" height="133"></rect></clipPath></defs><rect x="570" y="109.12494" width="262" height="113" fill="none"></rect><g class="DualAxisView"><g class="HorizontalAxis"><line x1="615.4" y1="201.96244000000002" x2="615.4" y2="206.96244000000002" stroke="#999"></line><line x1="831" y1="201.96244000000002" x2="831" y2="206.96244000000002" stroke="#999"></line><line x1="695" y1="201.96244000000002" x2="695" y2="206.96244000000002" stroke="#999"></line><line x1="734.7" y1="201.96244000000002" x2="734.7" y2="206.96244000000002" stroke="#999"></line><line x1="774.5" y1="201.96244000000002" x2="774.5" y2="206.96244000000002" stroke="#999"></line><text x="615.408875" y="220.12493999999998" fill="#666" text-anchor="start" font-size="13.1625">1750</text><text x="831" y="220.12493999999998" fill="#666" text-anchor="end" font-size="13.1625">2021</text><text x="695" y="220.12493999999998" fill="#666" text-anchor="middle" font-size="13.1625">1850</text><text x="734.7" y="220.12493999999998" fill="#666" text-anchor="middle" font-size="13.1625">1900</text><text x="774.5" y="220.12493999999998" fill="#666" text-anchor="middle" font-size="13.1625">1950</text></g><g class="VerticalAxis"><text x="610.41" y="192.8" dy=".32em" text-anchor="end" fill="#666" font-size="13.1625">1M t</text><text x="610.41" y="170.2" dy=".32em" text-anchor="end" fill="#666" font-size="13.1625">10M t</text><text x="610.41" y="147.6" dy=".32em" text-anchor="end" fill="#666" font-size="13.1625">100M t</text><text x="610.41" y="124.9" dy=".32em" text-anchor="end" fill="#666" font-size="13.1625">1B t</text></g><g class="AxisGridLines horizontalLines"><line x1="615.41" y1="192.8" x2="831.00" y2="192.8" stroke="#ddd" stroke-dasharray="2,1"></line><line x1="615.41" y1="170.2" x2="831.00" y2="170.2" stroke="#ddd" stroke-dasharray="2,1"></line><line x1="615.41" y1="147.6" x2="831.00" y2="147.6" stroke="#ddd" stroke-dasharray="2,1"></line><line x1="615.41" y1="124.9" x2="831.00" y2="124.9" stroke="#ddd" stroke-dasharray="2,1"></line></g></g><g clip-path="url(#boundsClip-3)"><g class="Lines"><rect x="615" y="115" width="216" height="87" fill="rgba(255,255,255,0)" opacity="0"></rect><g><path stroke-linecap="round" stroke-linejoin="round" stroke="#ddd" d="M701.3 202L702.1 197.3L702.9 197.2L703.7 199.7L704.5 198.7L705.3 197.7L706.1 198.2L706.9 198.4L707.7 197.2L717.2 187.2L718 187.7L718.8 186.6L719.6 186.8L720.4 185.1L721.2 184L722 182.9L722.8 184L723.6 182.8L724.4 181.8L725.2 180.8L726 179.1L726.8 178.2L727.6 177.5L728.4 176.5L729.2 176L730 175.9L730.8 173.6L731.6 172.9L732.4 172.1L733.1 171.1L733.9 170.1L734.7 168.5L735.5 167.5L736.3 166.5L737.1 166.3L737.9 165.2L738.7 165L739.5 163.6L740.3 162.5L741.1 161.2L741.9 161.5L742.7 161.8L743.5 161.3L744.3 159.9L745.1 158.9L745.9 158.8L746.7 158.4L747.5 158.3L748.3 157.9L749.1 156.7L749.9 155.9L750.7 157.9L751.4 157.2L752.2 157.4L753 157.1L753.8 156.4L754.6 156.5L755.4 156.6L756.2 156.1L757 156.5L757.8 156.2L758.6 156L759.4 156.8L760.2 157.6L761 157.7L761.8 156.7L762.6 156.2L763.4 156.4L764.2 155.4L765 154.3L765.8 154.5L766.6 153.9L767.4 153.7L768.2 153.7L768.9 155.1L769.7 154.8L770.5 153.8L771.3 153.9L772.1 153.8L772.9 153.8L773.7 153.2L774.5 152.4L775.3 151.9L776.1 151.4L776.9 151.2L777.7 150.7L778.5 149.9L779.3 149.5L780.1 148.4L780.9 148L781.7 147.4L782.5 146.5L783.3 145.7L784.1 144.8L784.9 144.1L785.7 144.3L786.4 143.3L787.2 143L788 143L788.8 142.1L789.6 141.9L790.4 141.7L791.2 141.1L792 140.6L792.8 140.3L793.6 140L794.4 139.2L795.2 138.8L796 138.2L796.8 138L797.6 137.6L798.4 137L799.2 136.3L800 136L800.8 135.2L801.6 134.9L802.4 134L803.2 133.3L804 132.7L804.7 131.9L805.5 131L806.3 130.3L807.1 129.7L807.9 129.1L808.7 128.8L809.5 128.2L810.3 127.6L811.1 126.8L811.9 126.4L812.7 126.2L813.5 125.4L814.3 125.1L815.1 125L815.9 124.7L816.7 124.4L817.5 123.8L818.3 123.3L819.1 122.7L819.9 121.9L820.7 121.2L821.5 120.2L822.2 119.8L823 119.3L823.8 118.3L824.6 117.9L825.4 117.2L826.2 116.9L827 116.4L827.8 116.2L828.6 115.5L829.4 115.4L830.2 116.1L831 115.1" fill="none" stroke-width="1"></path></g><g><path fill="none" stroke-linecap="butt" stroke-linejoin="round" stroke="#fff" stroke-width="2.5" d="M701.3 202L702.1 197.3L702.9 197.2L703.7 199.7L704.5 198.7L705.3 197.7L706.1 198.2L706.9 198.4L707.7 197.2L717.2 187.2L718 187.7L718.8 186.6L719.6 186.8L720.4 185.1L721.2 184L722 182.9L722.8 184L723.6 182.8L724.4 181.8L725.2 180.8L726 179.1L726.8 178.2L727.6 177.5L728.4 176.5L729.2 176L730 175.9L730.8 173.6L731.6 172.9L732.4 172.1L733.1 171.1L733.9 170.1L734.7 168.5L735.5 167.5L736.3 166.5L737.1 166.3L737.9 165.2L738.7 165L739.5 163.6L740.3 162.5L741.1 161.2L741.9 161.5L742.7 161.8L743.5 161.3L744.3 159.9L745.1 158.9L745.9 158.8L746.7 158.4L747.5 158.3L748.3 157.9L749.1 156.7L749.9 155.9L750.7 157.9L751.4 157.2L752.2 157.4L753 157.1L753.8 156.4L754.6 156.5L755.4 156.6L756.2 156.1L757 156.5L757.8 156.2L758.6 156L759.4 156.8L760.2 157.6L761 157.7L761.8 156.7L762.6 156.2L763.4 156.4L764.2 155.4L765 154.3L765.8 154.5L766.6 153.9L767.4 153.7L768.2 153.7L768.9 155.1L769.7 154.8L770.5 153.8L771.3 153.9L772.1 153.8L772.9 153.8L773.7 153.2L774.5 152.4L775.3 151.9L776.1 151.4L776.9 151.2L777.7 150.7L778.5 149.9L779.3 149.5L780.1 148.4L780.9 148L781.7 147.4L782.5 146.5L783.3 145.7L784.1 144.8L784.9 144.1L785.7 144.3L786.4 143.3L787.2 143L788 143L788.8 142.1L789.6 141.9L790.4 141.7L791.2 141.1L792 140.6L792.8 140.3L793.6 140L794.4 139.2L795.2 138.8L796 138.2L796.8 138L797.6 137.6L798.4 137L799.2 136.3L800 136L800.8 135.2L801.6 134.9L802.4 134L803.2 133.3L804 132.7L804.7 131.9L805.5 131L806.3 130.3L807.1 129.7L807.9 129.1L808.7 128.8L809.5 128.2L810.3 127.6L811.1 126.8L811.9 126.4L812.7 126.2L813.5 125.4L814.3 125.1L815.1 125L815.9 124.7L816.7 124.4L817.5 123.8L818.3 123.3L819.1 122.7L819.9 121.9L820.7 121.2L821.5 120.2L822.2 119.8L823 119.3L823.8 118.3L824.6 117.9L825.4 117.2L826.2 116.9L827 116.4L827.8 116.2L828.6 115.5L829.4 115.4L830.2 116.1L831 115.1"></path><polyline points="701.30,202.00 702.10,197.30 702.90,197.20 703.70,199.70 704.50,198.70 705.30,197.70 706.10,198.20 706.90,198.40 707.70,197.20 717.20,187.20 718.00,187.70 718.80,186.60 719.60,186.80 720.40,185.10 721.20,184.00 722.00,182.90 722.80,184.00 723.60,182.80 724.40,181.80 725.20,180.80 726.00,179.10 726.80,178.20 727.60,177.50 728.40,176.50 729.20,176.00 730.00,175.90 730.80,173.60 731.60,172.90 732.40,172.10 733.10,171.10 733.90,170.10 734.70,168.50 735.50,167.50 736.30,166.50 737.10,166.30 737.90,165.20 738.70,165.00 739.50,163.60 740.30,162.50 741.10,161.20 741.90,161.50 742.70,161.80 743.50,161.30 744.30,159.90 745.10,158.90 745.90,158.80 746.70,158.40 747.50,158.30 748.30,157.90 749.10,156.70 749.90,155.90 750.70,157.90 751.40,157.20 752.20,157.40 753.00,157.10 753.80,156.40 754.60,156.50 755.40,156.60 756.20,156.10 757.00,156.50 757.80,156.20 758.60,156.00 759.40,156.80 760.20,157.60 761.00,157.70 761.80,156.70 762.60,156.20 763.40,156.40 764.20,155.40 765.00,154.30 765.80,154.50 766.60,153.90 767.40,153.70 768.20,153.70 768.90,155.10 769.70,154.80 770.50,153.80 771.30,153.90 772.10,153.80 772.90,153.80 773.70,153.20 774.50,152.40 775.30,151.90 776.10,151.40 776.90,151.20 777.70,150.70 778.50,149.90 779.30,149.50 780.10,148.40 780.90,148.00 781.70,147.40 782.50,146.50 783.30,145.70 784.10,144.80 784.90,144.10 785.70,144.30 786.40,143.30 787.20,143.00 788.00,143.00 788.80,142.10 789.60,141.90 790.40,141.70 791.20,141.10 792.00,140.60 792.80,140.30 793.60,140.00 794.40,139.20 795.20,138.80 796.00,138.20 796.80,138.00 797.60,137.60 798.40,137.00 799.20,136.30 800.00,136.00 800.80,135.20 801.60,134.90 802.40,134.00 803.20,133.30 804.00,132.70 804.70,131.90 805.50,131.00 806.30,130.30 807.10,129.70 807.90,129.10 808.70,128.80 809.50,128.20 810.30,127.60 811.10,126.80 811.90,126.40 812.70,126.20 813.50,125.40 814.30,125.10 815.10,125.00 815.90,124.70 816.70,124.40 817.50,123.80 818.30,123.30 819.10,122.70 819.90,121.90 820.70,121.20 821.50,120.20 822.20,119.80 823.00,119.30 823.80,118.30 824.60,117.90 825.40,117.20 826.20,116.90 827.00,116.40 827.80,116.20 828.60,115.50 829.40,115.40 830.20,116.10 831.00,115.10" stroke-linejoin="round" stroke-width="1.5" stroke="#C15065" fill="none" stroke-linecap="butt"></polyline></g></g></g></g><text x="61.408874999999995" y="259.96243999999996" fill="#1d3d63" font-size="14.625" style="font-weight:700">China<title>China</title></text><g class="LineChart"><defs><clipPath id="boundsClip-4"><rect x="51.408874999999995" y="263.12494" width="282" height="133"></rect></clipPath></defs><rect x="16" y="273.12494" width="262" height="113" fill="none"></rect><g class="DualAxisView"><g class="HorizontalAxis"><line x1="61.4" y1="365.96244" x2="61.4" y2="370.96244" stroke="#999"></line><line x1="277" y1="365.96244" x2="277" y2="370.96244" stroke="#999"></line><line x1="141" y1="365.96244" x2="141" y2="370.96244" stroke="#999"></line><line x1="180.7" y1="365.96244" x2="180.7" y2="370.96244" stroke="#999"></line><line x1="220.5" y1="365.96244" x2="220.5" y2="370.96244" stroke="#999"></line><text x="61.408874999999995" y="384.12494" fill="#666" text-anchor="start" font-size="13.1625">1750</text><text x="277" y="384.12494" fill="#666" text-anchor="end" font-size="13.1625">2021</text><text x="141" y="384.12494" fill="#666" text-anchor="middle" font-size="13.1625">1850</text><text x="180.7" y="384.12494" fill="#666" text-anchor="middle" font-size="13.1625">1900</text><text x="220.5" y="384.12494" fill="#666" text-anchor="middle" font-size="13.1625">1950</text></g><g class="VerticalAxis"><text x="56.41" y="342.4" dy=".32em" text-anchor="end" fill="#666" font-size="13.1625">100M t</text><text x="56.41" y="311.7" dy=".32em" text-anchor="end" fill="#666" font-size="13.1625">1B t</text><text x="56.41" y="281" dy=".32em" text-anchor="end" fill="#666" font-size="13.1625">10B t</text></g><g class="AxisGridLines horizontalLines"><line x1="61.41" y1="342.4" x2="277.00" y2="342.4" stroke="#ddd" stroke-dasharray="2,1"></line><line x1="61.41" y1="311.7" x2="277.00" y2="311.7" stroke="#ddd" stroke-dasharray="2,1"></line><line x1="61.41" y1="281" x2="277.00" y2="281" stroke="#ddd" stroke-dasharray="2,1"></line></g></g><g clip-path="url(#boundsClip-4)"><g class="Lines"><rect x="61" y="279" width="216" height="87" fill="rgba(255,255,255,0)" opacity="0"></rect><g><path stroke-linecap="round" stroke-linejoin="round" stroke="#ddd" d="M186.3 363.9L187.1 362.1L187.9 361.2L188.7 360.8L189.5 361L190.3 366L191.1 361.2L191.9 360L192.7 360.6L193.5 358.4L194.3 357.5L195.1 356.5L195.9 355.3L196.7 354.5L197.4 355L198.2 354.6L199 352.6L199.8 351.9L200.6 352.7L201.4 353.4L202.2 352.8L203 352.3L203.8 352.1L204.6 351.7L205.4 351.1L206.2 351.5L207 350.5L207.8 348.7L208.6 346.6L209.4 346.1L210.2 346.9L211 348.9L211.8 346.3L212.6 343.6L213.4 340.6L214.2 339.1L214.9 341.2L215.7 342L216.5 350.1L217.3 355.9L218.1 354L218.9 355.1L219.7 348.7L220.5 345.5L221.3 342.1L222.1 339.1L222.9 338.5L223.7 336L224.5 333.8L225.3 332.1L226.1 329.8L226.9 320.3L227.7 316L228.5 314.7L229.3 319.1L230.1 322L230.9 322.1L231.7 322L232.4 320.9L233.2 319.6L234 322L234.8 321L235.6 318.3L236.4 314.5L237.2 312.9L238 312.1L238.8 311.5L239.6 311.3L240.4 309.4L241.2 308.9L242 307.7L242.8 306.3L243.6 306L244.4 306.3L245.2 306.5L246 305.3L246.8 304.6L247.6 303.5L248.4 302.4L249.2 301.7L250 300.8L250.7 299.8L251.5 299.6L252.3 299.5L253.1 298.9L253.9 298.3L254.7 297.4L255.5 296.6L256.3 295.5L257.1 294.9L257.9 294.9L258.7 295.5L259.5 294.8L260.3 294.4L261.1 294.1L261.9 292.8L262.7 290.7L263.5 289.6L264.3 288L265.1 286.7L265.9 285.8L266.7 284.8L267.5 284.1L268.2 282.9L269 281.6L269.8 281.3L270.6 281L271.4 281L272.2 281.1L273 281.3L273.8 280.9L274.6 280.5L275.4 280L276.2 279.7L277 279.1" fill="none" stroke-width="1"></path></g><g><path fill="none" stroke-linecap="butt" stroke-linejoin="round" stroke="#fff" stroke-width="2.5" d="M186.3 363.9L187.1 362.1L187.9 361.2L188.7 360.8L189.5 361L190.3 366L191.1 361.2L191.9 360L192.7 360.6L193.5 358.4L194.3 357.5L195.1 356.5L195.9 355.3L196.7 354.5L197.4 355L198.2 354.6L199 352.6L199.8 351.9L200.6 352.7L201.4 353.4L202.2 352.8L203 352.3L203.8 352.1L204.6 351.7L205.4 351.1L206.2 351.5L207 350.5L207.8 348.7L208.6 346.6L209.4 346.1L210.2 346.9L211 348.9L211.8 346.3L212.6 343.6L213.4 340.6L214.2 339.1L214.9 341.2L215.7 342L216.5 350.1L217.3 355.9L218.1 354L218.9 355.1L219.7 348.7L220.5 345.5L221.3 342.1L222.1 339.1L222.9 338.5L223.7 336L224.5 333.8L225.3 332.1L226.1 329.8L226.9 320.3L227.7 316L228.5 314.7L229.3 319.1L230.1 322L230.9 322.1L231.7 322L232.4 320.9L233.2 319.6L234 322L234.8 321L235.6 318.3L236.4 314.5L237.2 312.9L238 312.1L238.8 311.5L239.6 311.3L240.4 309.4L241.2 308.9L242 307.7L242.8 306.3L243.6 306L244.4 306.3L245.2 306.5L246 305.3L246.8 304.6L247.6 303.5L248.4 302.4L249.2 301.7L250 300.8L250.7 299.8L251.5 299.6L252.3 299.5L253.1 298.9L253.9 298.3L254.7 297.4L255.5 296.6L256.3 295.5L257.1 294.9L257.9 294.9L258.7 295.5L259.5 294.8L260.3 294.4L261.1 294.1L261.9 292.8L262.7 290.7L263.5 289.6L264.3 288L265.1 286.7L265.9 285.8L266.7 284.8L267.5 284.1L268.2 282.9L269 281.6L269.8 281.3L270.6 281L271.4 281L272.2 281.1L273 281.3L273.8 280.9L274.6 280.5L275.4 280L276.2 279.7L277 279.1"></path><polyline points="186.30,363.90 187.10,362.10 187.90,361.20 188.70,360.80 189.50,361.00 190.30,366.00 191.10,361.20 191.90,360.00 192.70,360.60 193.50,358.40 194.30,357.50 195.10,356.50 195.90,355.30 196.70,354.50 197.40,355.00 198.20,354.60 199.00,352.60 199.80,351.90 200.60,352.70 201.40,353.40 202.20,352.80 203.00,352.30 203.80,352.10 204.60,351.70 205.40,351.10 206.20,351.50 207.00,350.50 207.80,348.70 208.60,346.60 209.40,346.10 210.20,346.90 211.00,348.90 211.80,346.30 212.60,343.60 213.40,340.60 214.20,339.10 214.90,341.20 215.70,342.00 216.50,350.10 217.30,355.90 218.10,354.00 218.90,355.10 219.70,348.70 220.50,345.50 221.30,342.10 222.10,339.10 222.90,338.50 223.70,336.00 224.50,333.80 225.30,332.10 226.10,329.80 226.90,320.30 227.70,316.00 228.50,314.70 229.30,319.10 230.10,322.00 230.90,322.10 231.70,322.00 232.40,320.90 233.20,319.60 234.00,322.00 234.80,321.00 235.60,318.30 236.40,314.50 237.20,312.90 238.00,312.10 238.80,311.50 239.60,311.30 240.40,309.40 241.20,308.90 242.00,307.70 242.80,306.30 243.60,306.00 244.40,306.30 245.20,306.50 246.00,305.30 246.80,304.60 247.60,303.50 248.40,302.40 249.20,301.70 250.00,300.80 250.70,299.80 251.50,299.60 252.30,299.50 253.10,298.90 253.90,298.30 254.70,297.40 255.50,296.60 256.30,295.50 257.10,294.90 257.90,294.90 258.70,295.50 259.50,294.80 260.30,294.40 261.10,294.10 261.90,292.80 262.70,290.70 263.50,289.60 264.30,288.00 265.10,286.70 265.90,285.80 266.70,284.80 267.50,284.10 268.20,282.90 269.00,281.60 269.80,281.30 270.60,281.00 271.40,281.00 272.20,281.10 273.00,281.30 273.80,280.90 274.60,280.50 275.40,280.00 276.20,279.70 277.00,279.10" stroke-linejoin="round" stroke-width="1.5" stroke="#C15065" fill="none" stroke-linecap="butt"></polyline></g></g></g></g><text x="338.40887499999997" y="259.96243999999996" fill="#1d3d63" font-size="14.625" style="font-weight:700">France<title>France</title></text><g class="LineChart"><defs><clipPath id="boundsClip-5"><rect x="328.40887499999997" y="263.12494" width="282" height="133"></rect></clipPath></defs><rect x="293" y="273.12494" width="262" height="113" fill="none"></rect><g class="DualAxisView"><g class="HorizontalAxis"><line x1="338.4" y1="365.96244" x2="338.4" y2="370.96244" stroke="#999"></line><line x1="554" y1="365.96244" x2="554" y2="370.96244" stroke="#999"></line><line x1="418" y1="365.96244" x2="418" y2="370.96244" stroke="#999"></line><line x1="457.7" y1="365.96244" x2="457.7" y2="370.96244" stroke="#999"></line><line x1="497.5" y1="365.96244" x2="497.5" y2="370.96244" stroke="#999"></line><text x="338.40887499999997" y="384.12494" fill="#666" text-anchor="start" font-size="13.1625">1750</text><text x="554" y="384.12494" fill="#666" text-anchor="end" font-size="13.1625">2021</text><text x="418" y="384.12494" fill="#666" text-anchor="middle" font-size="13.1625">1850</text><text x="457.7" y="384.12494" fill="#666" text-anchor="middle" font-size="13.1625">1900</text><text x="497.5" y="384.12494" fill="#666" text-anchor="middle" font-size="13.1625">1950</text></g><g class="VerticalAxis"><text x="333.41" y="341.3" dy=".32em" text-anchor="end" fill="#666" font-size="13.1625">10M t</text><text x="333.41" y="305.4" dy=".32em" text-anchor="end" fill="#666" font-size="13.1625">100M t</text></g><g class="AxisGridLines horizontalLines"><line x1="338.41" y1="341.3" x2="554.00" y2="341.3" stroke="#ddd" stroke-dasharray="2,1"></line><line x1="338.41" y1="305.4" x2="554.00" y2="305.4" stroke="#ddd" stroke-dasharray="2,1"></line></g></g><g clip-path="url(#boundsClip-5)"><g class="Lines"><rect x="338" y="279" width="216" height="87" fill="rgba(255,255,255,0)" opacity="0"></rect><g><path stroke-linecap="round" stroke-linejoin="round" stroke="#ddd" d="M379.8 364.6L381.4 365L386.1 365.4L386.9 365.9L387.7 364.7L388.5 366L389.3 365.6L390.1 363.9L390.9 362.9L391.7 361.9L392.5 363.6L393.3 362.5L394.1 360.5L394.9 360L395.7 359.2L396.5 359.2L397.3 357.5L398.1 355.7L398.9 355.2L399.7 349.4L400.5 348.6L401.3 349L402.1 347.8L402.8 349.1L403.6 347.5L404.4 346.3L405.2 343L406 342.5L406.8 340.3L407.6 339.3L408.4 338.6L409.2 339L410 338.7L410.8 336.2L411.6 335.4L412.4 335.4L413.2 334.7L414 332.2L414.8 331.6L415.6 329.8L416.4 333.3L417.2 332.6L418 330.8L418.8 330.4L419.6 329.3L420.3 326.8L421.1 324.5L421.9 322.6L422.7 321.9L423.5 321.6L424.3 321.9L425.1 321.7L425.9 320.4L426.7 319.2L427.5 318.3L428.3 318.1L429.1 317.2L429.9 316.4L430.7 315.1L431.5 314.9L432.3 314.5L433.1 314.1L433.9 316L434.7 316.1L435.5 313.1L436.3 311.9L437.1 312.7L437.9 312L438.6 312L439.4 312.3L440.2 312L441 311.5L441.8 309.6L442.6 309.2L443.4 308.4L444.2 307.7L445 308.3L445.8 308.9L446.6 309L447.4 308.2L448.2 307.6L449 307.2L449.8 305.7L450.6 305.7L451.4 305.7L452.2 306L453 305.1L453.8 304.9L454.6 304.4L455.4 303.7L456.1 303.2L456.9 302.5L457.7 301.4L458.5 301.9L459.3 302.8L460.1 301.4L460.9 301.8L461.7 301.6L462.5 300.5L463.3 299.5L464.1 299.4L464.9 299L465.7 299L466.5 298.3L467.3 298.2L468.1 297L468.9 302.7L469.7 304.9L470.5 303.9L471.3 302.3L472.1 304.1L472.9 303L473.7 298.9L474.4 300.4L475.2 297.7L476 295.8L476.8 294.1L477.6 293.5L478.4 293.5L479.2 293.6L480 293.7L480.8 292.1L481.6 291.9L482.4 293.3L483.2 295.2L484 294.6L484.8 294.5L485.6 294.9L486.4 294.7L487.2 293.2L488 294.4L488.8 295L489.6 300.4L490.4 302.5L491.2 302.2L491.9 301.9L492.7 308.8L493.5 304.3L494.3 297.5L495.1 295.9L495.9 294.8L496.7 292.5L497.5 294.4L498.3 292.5L499.1 292.6L499.9 293.5L500.7 292.6L501.5 291.8L502.3 290L503.1 289.4L503.9 290.1L504.7 290.3L505.5 288.4L506.3 287.5L507.1 286.6L507.9 286.4L508.7 285L509.4 285.3L510.2 284.5L511 283.6L511.8 283.1L512.6 282.2L513.4 281.6L514.2 280.5L515 279.9L515.8 279.1L516.6 279.7L517.4 280.9L518.2 279.6L519 280.1L519.8 279.4L520.6 279.3L521.4 279.9L522.2 281.6L523 282.3L523.8 282.9L524.6 283.3L525.4 283.6L526.2 284.1L527 284.2L527.7 284.3L528.5 283.8L529.3 284L530.1 283.1L530.9 283.5L531.7 284.2L532.5 284.5L533.3 284.3L534.1 283.7L534.9 284L535.7 283.2L536.5 283.3L537.3 283.5L538.1 283.3L538.9 283.5L539.7 283.3L540.5 283.2L541.3 283.1L542.1 283.5L542.9 283.9L543.7 284.1L544.5 284.9L545.2 284.7L546 285.6L546.8 285.5L547.6 285.5L548.4 286.9L549.2 286.7L550 286.6L550.8 286.4L551.6 287.1L552.4 287.4L553.2 289.3L554 287.9" fill="none" stroke-width="1"></path></g><g><path fill="none" stroke-linecap="butt" stroke-linejoin="round" stroke="#fff" stroke-width="2.5" d="M379.8 364.6L381.4 365L386.1 365.4L386.9 365.9L387.7 364.7L388.5 366L389.3 365.6L390.1 363.9L390.9 362.9L391.7 361.9L392.5 363.6L393.3 362.5L394.1 360.5L394.9 360L395.7 359.2L396.5 359.2L397.3 357.5L398.1 355.7L398.9 355.2L399.7 349.4L400.5 348.6L401.3 349L402.1 347.8L402.8 349.1L403.6 347.5L404.4 346.3L405.2 343L406 342.5L406.8 340.3L407.6 339.3L408.4 338.6L409.2 339L410 338.7L410.8 336.2L411.6 335.4L412.4 335.4L413.2 334.7L414 332.2L414.8 331.6L415.6 329.8L416.4 333.3L417.2 332.6L418 330.8L418.8 330.4L419.6 329.3L420.3 326.8L421.1 324.5L421.9 322.6L422.7 321.9L423.5 321.6L424.3 321.9L425.1 321.7L425.9 320.4L426.7 319.2L427.5 318.3L428.3 318.1L429.1 317.2L429.9 316.4L430.7 315.1L431.5 314.9L432.3 314.5L433.1 314.1L433.9 316L434.7 316.1L435.5 313.1L436.3 311.9L437.1 312.7L437.9 312L438.6 312L439.4 312.3L440.2 312L441 311.5L441.8 309.6L442.6 309.2L443.4 308.4L444.2 307.7L445 308.3L445.8 308.9L446.6 309L447.4 308.2L448.2 307.6L449 307.2L449.8 305.7L450.6 305.7L451.4 305.7L452.2 306L453 305.1L453.8 304.9L454.6 304.4L455.4 303.7L456.1 303.2L456.9 302.5L457.7 301.4L458.5 301.9L459.3 302.8L460.1 301.4L460.9 301.8L461.7 301.6L462.5 300.5L463.3 299.5L464.1 299.4L464.9 299L465.7 299L466.5 298.3L467.3 298.2L468.1 297L468.9 302.7L469.7 304.9L470.5 303.9L471.3 302.3L472.1 304.1L472.9 303L473.7 298.9L474.4 300.4L475.2 297.7L476 295.8L476.8 294.1L477.6 293.5L478.4 293.5L479.2 293.6L480 293.7L480.8 292.1L481.6 291.9L482.4 293.3L483.2 295.2L484 294.6L484.8 294.5L485.6 294.9L486.4 294.7L487.2 293.2L488 294.4L488.8 295L489.6 300.4L490.4 302.5L491.2 302.2L491.9 301.9L492.7 308.8L493.5 304.3L494.3 297.5L495.1 295.9L495.9 294.8L496.7 292.5L497.5 294.4L498.3 292.5L499.1 292.6L499.9 293.5L500.7 292.6L501.5 291.8L502.3 290L503.1 289.4L503.9 290.1L504.7 290.3L505.5 288.4L506.3 287.5L507.1 286.6L507.9 286.4L508.7 285L509.4 285.3L510.2 284.5L511 283.6L511.8 283.1L512.6 282.2L513.4 281.6L514.2 280.5L515 279.9L515.8 279.1L516.6 279.7L517.4 280.9L518.2 279.6L519 280.1L519.8 279.4L520.6 279.3L521.4 279.9L522.2 281.6L523 282.3L523.8 282.9L524.6 283.3L525.4 283.6L526.2 284.1L527 284.2L527.7 284.3L528.5 283.8L529.3 284L530.1 283.1L530.9 283.5L531.7 284.2L532.5 284.5L533.3 284.3L534.1 283.7L534.9 284L535.7 283.2L536.5 283.3L537.3 283.5L538.1 283.3L538.9 283.5L539.7 283.3L540.5 283.2L541.3 283.1L542.1 283.5L542.9 283.9L543.7 284.1L544.5 284.9L545.2 284.7L546 285.6L546.8 285.5L547.6 285.5L548.4 286.9L549.2 286.7L550 286.6L550.8 286.4L551.6 287.1L552.4 287.4L553.2 289.3L554 287.9"></path><polyline points="379.80,364.60 381.40,365.00 386.10,365.40 386.90,365.90 387.70,364.70 388.50,366.00 389.30,365.60 390.10,363.90 390.90,362.90 391.70,361.90 392.50,363.60 393.30,362.50 394.10,360.50 394.90,360.00 395.70,359.20 396.50,359.20 397.30,357.50 398.10,355.70 398.90,355.20 399.70,349.40 400.50,348.60 401.30,349.00 402.10,347.80 402.80,349.10 403.60,347.50 404.40,346.30 405.20,343.00 406.00,342.50 406.80,340.30 407.60,339.30 408.40,338.60 409.20,339.00 410.00,338.70 410.80,336.20 411.60,335.40 412.40,335.40 413.20,334.70 414.00,332.20 414.80,331.60 415.60,329.80 416.40,333.30 417.20,332.60 418.00,330.80 418.80,330.40 419.60,329.30 420.30,326.80 421.10,324.50 421.90,322.60 422.70,321.90 423.50,321.60 424.30,321.90 425.10,321.70 425.90,320.40 426.70,319.20 427.50,318.30 428.30,318.10 429.10,317.20 429.90,316.40 430.70,315.10 431.50,314.90 432.30,314.50 433.10,314.10 433.90,316.00 434.70,316.10 435.50,313.10 436.30,311.90 437.10,312.70 437.90,312.00 438.60,312.00 439.40,312.30 440.20,312.00 441.00,311.50 441.80,309.60 442.60,309.20 443.40,308.40 444.20,307.70 445.00,308.30 445.80,308.90 446.60,309.00 447.40,308.20 448.20,307.60 449.00,307.20 449.80,305.70 450.60,305.70 451.40,305.70 452.20,306.00 453.00,305.10 453.80,304.90 454.60,304.40 455.40,303.70 456.10,303.20 456.90,302.50 457.70,301.40 458.50,301.90 459.30,302.80 460.10,301.40 460.90,301.80 461.70,301.60 462.50,300.50 463.30,299.50 464.10,299.40 464.90,299.00 465.70,299.00 466.50,298.30 467.30,298.20 468.10,297.00 468.90,302.70 469.70,304.90 470.50,303.90 471.30,302.30 472.10,304.10 472.90,303.00 473.70,298.90 474.40,300.40 475.20,297.70 476.00,295.80 476.80,294.10 477.60,293.50 478.40,293.50 479.20,293.60 480.00,293.70 480.80,292.10 481.60,291.90 482.40,293.30 483.20,295.20 484.00,294.60 484.80,294.50 485.60,294.90 486.40,294.70 487.20,293.20 488.00,294.40 488.80,295.00 489.60,300.40 490.40,302.50 491.20,302.20 491.90,301.90 492.70,308.80 493.50,304.30 494.30,297.50 495.10,295.90 495.90,294.80 496.70,292.50 497.50,294.40 498.30,292.50 499.10,292.60 499.90,293.50 500.70,292.60 501.50,291.80 502.30,290.00 503.10,289.40 503.90,290.10 504.70,290.30 505.50,288.40 506.30,287.50 507.10,286.60 507.90,286.40 508.70,285.00 509.40,285.30 510.20,284.50 511.00,283.60 511.80,283.10 512.60,282.20 513.40,281.60 514.20,280.50 515.00,279.90 515.80,279.10 516.60,279.70 517.40,280.90 518.20,279.60 519.00,280.10 519.80,279.40 520.60,279.30 521.40,279.90 522.20,281.60 523.00,282.30 523.80,282.90 524.60,283.30 525.40,283.60 526.20,284.10 527.00,284.20 527.70,284.30 528.50,283.80 529.30,284.00 530.10,283.10 530.90,283.50 531.70,284.20 532.50,284.50 533.30,284.30 534.10,283.70 534.90,284.00 535.70,283.20 536.50,283.30 537.30,283.50 538.10,283.30 538.90,283.50 539.70,283.30 540.50,283.20 541.30,283.10 542.10,283.50 542.90,283.90 543.70,284.10 544.50,284.90 545.20,284.70 546.00,285.60 546.80,285.50 547.60,285.50 548.40,286.90 549.20,286.70 550.00,286.60 550.80,286.40 551.60,287.10 552.40,287.40 553.20,289.30 554.00,287.90" stroke-linejoin="round" stroke-width="1.5" stroke="#C15065" fill="none" stroke-linecap="butt"></polyline></g></g></g></g><text x="615.408875" y="259.96243999999996" fill="#1d3d63" font-size="14.625" style="font-weight:700">Germany<title>Germany</title></text><g class="LineChart"><defs><clipPath id="boundsClip-6"><rect x="605.408875" y="263.12494" width="282" height="133"></rect></clipPath></defs><rect x="570" y="273.12494" width="262" height="113" fill="none"></rect><g class="DualAxisView"><g class="HorizontalAxis"><line x1="615.4" y1="365.96244" x2="615.4" y2="370.96244" stroke="#999"></line><line x1="831" y1="365.96244" x2="831" y2="370.96244" stroke="#999"></line><line x1="695" y1="365.96244" x2="695" y2="370.96244" stroke="#999"></line><line x1="734.7" y1="365.96244" x2="734.7" y2="370.96244" stroke="#999"></line><line x1="774.5" y1="365.96244" x2="774.5" y2="370.96244" stroke="#999"></line><text x="615.408875" y="384.12494" fill="#666" text-anchor="start" font-size="13.1625">1750</text><text x="831" y="384.12494" fill="#666" text-anchor="end" font-size="13.1625">2021</text><text x="695" y="384.12494" fill="#666" text-anchor="middle" font-size="13.1625">1850</text><text x="734.7" y="384.12494" fill="#666" text-anchor="middle" font-size="13.1625">1900</text><text x="774.5" y="384.12494" fill="#666" text-anchor="middle" font-size="13.1625">1950</text></g><g class="VerticalAxis"><text x="610.41" y="356.9" dy=".32em" text-anchor="end" fill="#666" font-size="13.1625">1M t</text><text x="610.41" y="331.4" dy=".32em" text-anchor="end" fill="#666" font-size="13.1625">10M t</text><text x="610.41" y="305.9" dy=".32em" text-anchor="end" fill="#666" font-size="13.1625">100M t</text><text x="610.41" y="280.4" dy=".32em" text-anchor="end" fill="#666" font-size="13.1625">1B t</text></g><g class="AxisGridLines horizontalLines"><line x1="615.41" y1="356.9" x2="831.00" y2="356.9" stroke="#ddd" stroke-dasharray="2,1"></line><line x1="615.41" y1="331.4" x2="831.00" y2="331.4" stroke="#ddd" stroke-dasharray="2,1"></line><line x1="615.41" y1="305.9" x2="831.00" y2="305.9" stroke="#ddd" stroke-dasharray="2,1"></line><line x1="615.41" y1="280.4" x2="831.00" y2="280.4" stroke="#ddd" stroke-dasharray="2,1"></line></g></g><g clip-path="url(#boundsClip-6)"><g class="Lines"><rect x="615" y="279" width="216" height="87" fill="rgba(255,255,255,0)" opacity="0"></rect><g><path stroke-linecap="round" stroke-linejoin="round" stroke="#ddd" d="M648.8 365.3L649.6 365.1L650.4 366L651.2 365.9L652 363.9L652.8 363.6L653.6 363.1L654.4 362.1L655.2 359.5L656 363.9L656.8 363.5L657.6 363.9L658.4 356.9L659.2 356.5L660 357.7L660.8 346L661.6 358.1L662.3 357.7L663.1 357.2L663.9 357.8L664.7 358L665.5 358.2L666.3 358.3L667.1 356.6L667.9 347.3L668.7 343.4L669.5 343L670.3 343.8L671.1 343.4L671.9 343L672.7 342.6L673.5 341.5L674.3 343.9L675.1 340.7L675.9 341.1L676.7 340.2L677.5 340.2L678.3 342.6L679.1 339.6L679.8 340L680.6 343.2L681.4 340.6L682.2 340.5L683 339.3L683.8 338.7L684.6 337.2L685.4 336L686.2 335.3L687 332.4L687.8 331.9L688.6 330.5L689.4 331.1L690.2 330.5L691 328.8L691.8 328.3L692.6 327.8L693.4 328.7L694.2 328L695 326.8L695.8 325.6L696.6 324.2L697.3 323.3L698.1 321.5L698.9 319.8L699.7 318.9L700.5 318.2L701.3 317.3L702.1 317.9L702.9 317.1L703.7 315.7L704.5 314.6L705.3 313.7L706.1 312.2L706.9 310.9L707.7 311L708.5 310L709.3 309.2L710.1 308.7L710.9 308.8L711.7 307.6L712.5 306.8L713.3 306.1L714.1 309.6L714.9 305.7L715.6 305.5L716.4 305.7L717.2 305.4L718 304.7L718.8 303.5L719.6 302.6L720.4 301.9L721.2 301.2L722 300.9L722.8 300.6L723.6 300.5L724.4 300L725.2 299L726 298.3L726.8 297.8L727.6 297.1L728.4 297.4L729.2 297.1L730 296.7L730.8 296.3L731.6 295.5L732.4 294.7L733.1 294.3L733.9 293.6L734.7 292.8L735.5 292.8L736.3 293L737.1 292.2L737.9 291.8L738.7 291L739.5 291.6L740.3 289.4L741.1 289.3L741.9 289.3L742.7 289.3L743.5 289L744.3 288.1L745.1 287.3L745.9 288.1L746.7 288.9L747.5 288L748.3 287.5L749.1 288L749.9 290.9L750.7 289.7L751.4 288.7L752.2 289.1L753 292.6L753.8 289.2L754.6 289L755.4 290.2L756.2 288.5L757 287.9L757.8 287.2L758.6 288.9L759.4 290.9L760.2 292.1L761 291.5L761.8 290.3L762.6 289.2L763.4 288.1L764.2 286.7L765 286L765.8 285.2L766.6 285.1L767.4 285L768.2 284.8L768.9 284.6L769.7 286L770.5 304.2L771.3 294.8L772.1 293.1L772.9 291.2L773.7 289.7L774.5 287.8L775.3 286.5L776.1 285.8L776.9 285.6L777.7 285L778.5 283.9L779.3 283.3L780.1 283.1L780.9 283.5L781.7 283.5L782.5 282.6L783.3 282.4L784.1 281.7L784.9 281L785.7 280.7L786.4 280.8L787.2 280.9L788 281.1L788.8 280.5L789.6 279.8L790.4 280.1L791.2 280L792 279.9L792.8 279.4L793.6 279.7L794.4 280.3L795.2 279.4L796 279.8L796.8 279.5L797.6 279.1L798.4 279.3L799.2 279.8L800 280.2L800.8 280.2L801.6 280L802.4 279.9L803.2 279.8L804 280L804.7 280L805.5 280.3L806.3 279.8L807.1 280.2L807.9 280.7L808.7 280.9L809.5 281.1L810.3 281.1L811.1 280.8L811.9 281.2L812.7 281.3L813.5 281.6L814.3 281.5L815.1 281.3L815.9 281.5L816.7 281.5L817.5 281.7L818.3 282L819.1 281.8L819.9 282.1L820.7 282.1L821.5 283L822.2 282.4L823 282.7L823.8 282.6L824.6 282.4L825.4 282.9L826.2 282.9L827 282.8L827.8 283L828.6 283.5L829.4 284.2L830.2 285.3L831 284.7" fill="none" stroke-width="1"></path></g><g><path fill="none" stroke-linecap="butt" stroke-linejoin="round" stroke="#fff" stroke-width="2.5" d="M648.8 365.3L649.6 365.1L650.4 366L651.2 365.9L652 363.9L652.8 363.6L653.6 363.1L654.4 362.1L655.2 359.5L656 363.9L656.8 363.5L657.6 363.9L658.4 356.9L659.2 356.5L660 357.7L660.8 346L661.6 358.1L662.3 357.7L663.1 357.2L663.9 357.8L664.7 358L665.5 358.2L666.3 358.3L667.1 356.6L667.9 347.3L668.7 343.4L669.5 343L670.3 343.8L671.1 343.4L671.9 343L672.7 342.6L673.5 341.5L674.3 343.9L675.1 340.7L675.9 341.1L676.7 340.2L677.5 340.2L678.3 342.6L679.1 339.6L679.8 340L680.6 343.2L681.4 340.6L682.2 340.5L683 339.3L683.8 338.7L684.6 337.2L685.4 336L686.2 335.3L687 332.4L687.8 331.9L688.6 330.5L689.4 331.1L690.2 330.5L691 328.8L691.8 328.3L692.6 327.8L693.4 328.7L694.2 328L695 326.8L695.8 325.6L696.6 324.2L697.3 323.3L698.1 321.5L698.9 319.8L699.7 318.9L700.5 318.2L701.3 317.3L702.1 317.9L702.9 317.1L703.7 315.7L704.5 314.6L705.3 313.7L706.1 312.2L706.9 310.9L707.7 311L708.5 310L709.3 309.2L710.1 308.7L710.9 308.8L711.7 307.6L712.5 306.8L713.3 306.1L714.1 309.6L714.9 305.7L715.6 305.5L716.4 305.7L717.2 305.4L718 304.7L718.8 303.5L719.6 302.6L720.4 301.9L721.2 301.2L722 300.9L722.8 300.6L723.6 300.5L724.4 300L725.2 299L726 298.3L726.8 297.8L727.6 297.1L728.4 297.4L729.2 297.1L730 296.7L730.8 296.3L731.6 295.5L732.4 294.7L733.1 294.3L733.9 293.6L734.7 292.8L735.5 292.8L736.3 293L737.1 292.2L737.9 291.8L738.7 291L739.5 291.6L740.3 289.4L741.1 289.3L741.9 289.3L742.7 289.3L743.5 289L744.3 288.1L745.1 287.3L745.9 288.1L746.7 288.9L747.5 288L748.3 287.5L749.1 288L749.9 290.9L750.7 289.7L751.4 288.7L752.2 289.1L753 292.6L753.8 289.2L754.6 289L755.4 290.2L756.2 288.5L757 287.9L757.8 287.2L758.6 288.9L759.4 290.9L760.2 292.1L761 291.5L761.8 290.3L762.6 289.2L763.4 288.1L764.2 286.7L765 286L765.8 285.2L766.6 285.1L767.4 285L768.2 284.8L768.9 284.6L769.7 286L770.5 304.2L771.3 294.8L772.1 293.1L772.9 291.2L773.7 289.7L774.5 287.8L775.3 286.5L776.1 285.8L776.9 285.6L777.7 285L778.5 283.9L779.3 283.3L780.1 283.1L780.9 283.5L781.7 283.5L782.5 282.6L783.3 282.4L784.1 281.7L784.9 281L785.7 280.7L786.4 280.8L787.2 280.9L788 281.1L788.8 280.5L789.6 279.8L790.4 280.1L791.2 280L792 279.9L792.8 279.4L793.6 279.7L794.4 280.3L795.2 279.4L796 279.8L796.8 279.5L797.6 279.1L798.4 279.3L799.2 279.8L800 280.2L800.8 280.2L801.6 280L802.4 279.9L803.2 279.8L804 280L804.7 280L805.5 280.3L806.3 279.8L807.1 280.2L807.9 280.7L808.7 280.9L809.5 281.1L810.3 281.1L811.1 280.8L811.9 281.2L812.7 281.3L813.5 281.6L814.3 281.5L815.1 281.3L815.9 281.5L816.7 281.5L817.5 281.7L818.3 282L819.1 281.8L819.9 282.1L820.7 282.1L821.5 283L822.2 282.4L823 282.7L823.8 282.6L824.6 282.4L825.4 282.9L826.2 282.9L827 282.8L827.8 283L828.6 283.5L829.4 284.2L830.2 285.3L831 284.7"></path><polyline points="648.80,365.30 649.60,365.10 650.40,366.00 651.20,365.90 652.00,363.90 652.80,363.60 653.60,363.10 654.40,362.10 655.20,359.50 656.00,363.90 656.80,363.50 657.60,363.90 658.40,356.90 659.20,356.50 660.00,357.70 660.80,346.00 661.60,358.10 662.30,357.70 663.10,357.20 663.90,357.80 664.70,358.00 665.50,358.20 666.30,358.30 667.10,356.60 667.90,347.30 668.70,343.40 669.50,343.00 670.30,343.80 671.10,343.40 671.90,343.00 672.70,342.60 673.50,341.50 674.30,343.90 675.10,340.70 675.90,341.10 676.70,340.20 677.50,340.20 678.30,342.60 679.10,339.60 679.80,340.00 680.60,343.20 681.40,340.60 682.20,340.50 683.00,339.30 683.80,338.70 684.60,337.20 685.40,336.00 686.20,335.30 687.00,332.40 687.80,331.90 688.60,330.50 689.40,331.10 690.20,330.50 691.00,328.80 691.80,328.30 692.60,327.80 693.40,328.70 694.20,328.00 695.00,326.80 695.80,325.60 696.60,324.20 697.30,323.30 698.10,321.50 698.90,319.80 699.70,318.90 700.50,318.20 701.30,317.30 702.10,317.90 702.90,317.10 703.70,315.70 704.50,314.60 705.30,313.70 706.10,312.20 706.90,310.90 707.70,311.00 708.50,310.00 709.30,309.20 710.10,308.70 710.90,308.80 711.70,307.60 712.50,306.80 713.30,306.10 714.10,309.60 714.90,305.70 715.60,305.50 716.40,305.70 717.20,305.40 718.00,304.70 718.80,303.50 719.60,302.60 720.40,301.90 721.20,301.20 722.00,300.90 722.80,300.60 723.60,300.50 724.40,300.00 725.20,299.00 726.00,298.30 726.80,297.80 727.60,297.10 728.40,297.40 729.20,297.10 730.00,296.70 730.80,296.30 731.60,295.50 732.40,294.70 733.10,294.30 733.90,293.60 734.70,292.80 735.50,292.80 736.30,293.00 737.10,292.20 737.90,291.80 738.70,291.00 739.50,291.60 740.30,289.40 741.10,289.30 741.90,289.30 742.70,289.30 743.50,289.00 744.30,288.10 745.10,287.30 745.90,288.10 746.70,288.90 747.50,288.00 748.30,287.50 749.10,288.00 749.90,290.90 750.70,289.70 751.40,288.70 752.20,289.10 753.00,292.60 753.80,289.20 754.60,289.00 755.40,290.20 756.20,288.50 757.00,287.90 757.80,287.20 758.60,288.90 759.40,290.90 760.20,292.10 761.00,291.50 761.80,290.30 762.60,289.20 763.40,288.10 764.20,286.70 765.00,286.00 765.80,285.20 766.60,285.10 767.40,285.00 768.20,284.80 768.90,284.60 769.70,286.00 770.50,304.20 771.30,294.80 772.10,293.10 772.90,291.20 773.70,289.70 774.50,287.80 775.30,286.50 776.10,285.80 776.90,285.60 777.70,285.00 778.50,283.90 779.30,283.30 780.10,283.10 780.90,283.50 781.70,283.50 782.50,282.60 783.30,282.40 784.10,281.70 784.90,281.00 785.70,280.70 786.40,280.80 787.20,280.90 788.00,281.10 788.80,280.50 789.60,279.80 790.40,280.10 791.20,280.00 792.00,279.90 792.80,279.40 793.60,279.70 794.40,280.30 795.20,279.40 796.00,279.80 796.80,279.50 797.60,279.10 798.40,279.30 799.20,279.80 800.00,280.20 800.80,280.20 801.60,280.00 802.40,279.90 803.20,279.80 804.00,280.00 804.70,280.00 805.50,280.30 806.30,279.80 807.10,280.20 807.90,280.70 808.70,280.90 809.50,281.10 810.30,281.10 811.10,280.80 811.90,281.20 812.70,281.30 813.50,281.60 814.30,281.50 815.10,281.30 815.90,281.50 816.70,281.50 817.50,281.70 818.30,282.00 819.10,281.80 819.90,282.10 820.70,282.10 821.50,283.00 822.20,282.40 823.00,282.70 823.80,282.60 824.60,282.40 825.40,282.90 826.20,282.90 827.00,282.80 827.80,283.00 828.60,283.50 829.40,284.20 830.20,285.30 831.00,284.70" stroke-linejoin="round" stroke-width="1.5" stroke="#C15065" fill="none" stroke-linecap="butt"></polyline></g></g></g></g><text x="61.408874999999995" y="423.96243999999996" fill="#1d3d63" font-size="14.625" style="font-weight:700">Brazil<title>Brazil</title></text><g class="LineChart"><defs><clipPath id="boundsClip-7"><rect x="51.408874999999995" y="427.12494" width="282" height="133"></rect></clipPath></defs><rect x="16" y="437.12494" width="262" height="113" fill="none"></rect><g class="DualAxisView"><g class="HorizontalAxis"><line x1="61.4" y1="529.96244" x2="61.4" y2="534.96244" stroke="#999"></line><line x1="277" y1="529.96244" x2="277" y2="534.96244" stroke="#999"></line><line x1="141" y1="529.96244" x2="141" y2="534.96244" stroke="#999"></line><line x1="180.7" y1="529.96244" x2="180.7" y2="534.96244" stroke="#999"></line><line x1="220.5" y1="529.96244" x2="220.5" y2="534.96244" stroke="#999"></line><text x="61.408874999999995" y="548.1249399999999" fill="#666" text-anchor="start" font-size="13.1625">1750</text><text x="277" y="548.1249399999999" fill="#666" text-anchor="end" font-size="13.1625">2021</text><text x="141" y="548.1249399999999" fill="#666" text-anchor="middle" font-size="13.1625">1850</text><text x="180.7" y="548.1249399999999" fill="#666" text-anchor="middle" font-size="13.1625">1900</text><text x="220.5" y="548.1249399999999" fill="#666" text-anchor="middle" font-size="13.1625">1950</text></g><g class="VerticalAxis"><text x="56.41" y="505.7" dy=".32em" text-anchor="end" fill="#666" font-size="13.1625">10M t</text><text x="56.41" y="469.9" dy=".32em" text-anchor="end" fill="#666" font-size="13.1625">100M t</text></g><g class="AxisGridLines horizontalLines"><line x1="61.41" y1="505.7" x2="277.00" y2="505.7" stroke="#ddd" stroke-dasharray="2,1"></line><line x1="61.41" y1="469.9" x2="277.00" y2="469.9" stroke="#ddd" stroke-dasharray="2,1"></line></g></g><g clip-path="url(#boundsClip-7)"><g class="Lines"><rect x="61" y="443" width="216" height="87" fill="rgba(255,255,255,0)" opacity="0"></rect><g><path stroke-linecap="round" stroke-linejoin="round" stroke="#ddd" d="M181.5 530L182.3 527.2L183.1 527.6L183.9 526.5L184.7 525.5L185.5 523.4L186.3 522.3L187.1 521.6L187.9 521.6L188.7 519.2L189.5 517.8L190.3 514.7L191.1 513.6L191.9 519.5L192.7 523.7L193.5 525.1L194.3 527.3L195.1 528.4L195.9 524.1L196.7 521.4L197.4 525L198.2 520.8L199 517.7L199.8 516.2L200.6 515.4L201.4 515.1L202.2 513.5L203 513.8L203.8 512.8L204.6 515L205.4 519.3L206.2 519.3L207 517.4L207.8 517.7L208.6 515L209.4 516L210.2 513.4L211 513.4L211.8 513.8L212.6 512.4L213.4 512.9L214.2 514L214.9 512.5L215.7 513.9L216.5 511.7L217.3 510.3L218.1 507.4L218.9 509.5L219.7 510.5L220.5 495.2L221.3 493.7L222.1 491.5L222.9 491.3L223.7 488.8L224.5 486.6L225.3 485.5L226.1 485.8L226.9 484.5L227.7 484.5L228.5 481.7L229.3 480.9L230.1 479.6L230.9 479L231.7 478.7L232.4 478.8L233.2 476.8L234 476.4L234.8 473.9L235.6 472.6L236.4 471L237.2 469.6L238 467.9L238.8 465.6L239.6 464.3L240.4 463.6L241.2 463.1L242 462.4L242.8 461L243.6 460.1L244.4 460.3L245.2 461.6L246 461.5L246.8 462L247.6 461.9L248.4 460.8L249.2 459.4L250 458.7L250.7 458.5L251.5 458.2L252.3 457.7L253.1 457L253.9 456.7L254.7 456L255.5 455.4L256.3 454.5L257.1 453.3L257.9 452.4L258.7 451.9L259.5 451.4L260.3 450.8L261.1 450.6L261.9 450.5L262.7 450.6L263.5 449.9L264.3 449.8L265.1 449.6L265.9 448.7L266.7 447.8L267.5 448.7L268.2 446.8L269 446L269.8 444.9L270.6 443.9L271.4 443.1L272.2 443.9L273 445.1L273.8 444.9L274.6 445.6L275.4 445.6L276.2 446.7L277 445.2" fill="none" stroke-width="1"></path></g><g><path fill="none" stroke-linecap="butt" stroke-linejoin="round" stroke="#fff" stroke-width="2.5" d="M181.5 530L182.3 527.2L183.1 527.6L183.9 526.5L184.7 525.5L185.5 523.4L186.3 522.3L187.1 521.6L187.9 521.6L188.7 519.2L189.5 517.8L190.3 514.7L191.1 513.6L191.9 519.5L192.7 523.7L193.5 525.1L194.3 527.3L195.1 528.4L195.9 524.1L196.7 521.4L197.4 525L198.2 520.8L199 517.7L199.8 516.2L200.6 515.4L201.4 515.1L202.2 513.5L203 513.8L203.8 512.8L204.6 515L205.4 519.3L206.2 519.3L207 517.4L207.8 517.7L208.6 515L209.4 516L210.2 513.4L211 513.4L211.8 513.8L212.6 512.4L213.4 512.9L214.2 514L214.9 512.5L215.7 513.9L216.5 511.7L217.3 510.3L218.1 507.4L218.9 509.5L219.7 510.5L220.5 495.2L221.3 493.7L222.1 491.5L222.9 491.3L223.7 488.8L224.5 486.6L225.3 485.5L226.1 485.8L226.9 484.5L227.7 484.5L228.5 481.7L229.3 480.9L230.1 479.6L230.9 479L231.7 478.7L232.4 478.8L233.2 476.8L234 476.4L234.8 473.9L235.6 472.6L236.4 471L237.2 469.6L238 467.9L238.8 465.6L239.6 464.3L240.4 463.6L241.2 463.1L242 462.4L242.8 461L243.6 460.1L244.4 460.3L245.2 461.6L246 461.5L246.8 462L247.6 461.9L248.4 460.8L249.2 459.4L250 458.7L250.7 458.5L251.5 458.2L252.3 457.7L253.1 457L253.9 456.7L254.7 456L255.5 455.4L256.3 454.5L257.1 453.3L257.9 452.4L258.7 451.9L259.5 451.4L260.3 450.8L261.1 450.6L261.9 450.5L262.7 450.6L263.5 449.9L264.3 449.8L265.1 449.6L265.9 448.7L266.7 447.8L267.5 448.7L268.2 446.8L269 446L269.8 444.9L270.6 443.9L271.4 443.1L272.2 443.9L273 445.1L273.8 444.9L274.6 445.6L275.4 445.6L276.2 446.7L277 445.2"></path><polyline points="181.50,530.00 182.30,527.20 183.10,527.60 183.90,526.50 184.70,525.50 185.50,523.40 186.30,522.30 187.10,521.60 187.90,521.60 188.70,519.20 189.50,517.80 190.30,514.70 191.10,513.60 191.90,519.50 192.70,523.70 193.50,525.10 194.30,527.30 195.10,528.40 195.90,524.10 196.70,521.40 197.40,525.00 198.20,520.80 199.00,517.70 199.80,516.20 200.60,515.40 201.40,515.10 202.20,513.50 203.00,513.80 203.80,512.80 204.60,515.00 205.40,519.30 206.20,519.30 207.00,517.40 207.80,517.70 208.60,515.00 209.40,516.00 210.20,513.40 211.00,513.40 211.80,513.80 212.60,512.40 213.40,512.90 214.20,514.00 214.90,512.50 215.70,513.90 216.50,511.70 217.30,510.30 218.10,507.40 218.90,509.50 219.70,510.50 220.50,495.20 221.30,493.70 222.10,491.50 222.90,491.30 223.70,488.80 224.50,486.60 225.30,485.50 226.10,485.80 226.90,484.50 227.70,484.50 228.50,481.70 229.30,480.90 230.10,479.60 230.90,479.00 231.70,478.70 232.40,478.80 233.20,476.80 234.00,476.40 234.80,473.90 235.60,472.60 236.40,471.00 237.20,469.60 238.00,467.90 238.80,465.60 239.60,464.30 240.40,463.60 241.20,463.10 242.00,462.40 242.80,461.00 243.60,460.10 244.40,460.30 245.20,461.60 246.00,461.50 246.80,462.00 247.60,461.90 248.40,460.80 249.20,459.40 250.00,458.70 250.70,458.50 251.50,458.20 252.30,457.70 253.10,457.00 253.90,456.70 254.70,456.00 255.50,455.40 256.30,454.50 257.10,453.30 257.90,452.40 258.70,451.90 259.50,451.40 260.30,450.80 261.10,450.60 261.90,450.50 262.70,450.60 263.50,449.90 264.30,449.80 265.10,449.60 265.90,448.70 266.70,447.80 267.50,448.70 268.20,446.80 269.00,446.00 269.80,444.90 270.60,443.90 271.40,443.10 272.20,443.90 273.00,445.10 273.80,444.90 274.60,445.60 275.40,445.60 276.20,446.70 277.00,445.20" stroke-linejoin="round" stroke-width="1.5" stroke="#C15065" fill="none" stroke-linecap="butt"></polyline></g></g></g></g><g class="SourcesFooter" style="fill:#5b5b5b"><text x="16.0" y="581.0" style="font-size:13px;line-height:1.2"><tspan x="16" y="581.0"><tspan style="font-weight:700">Data source:</tspan> Global Carbon Budget (2022)</tspan></text><text font-size="13.00" x="455.3" y="581.0"><tspan x="455.31" y="581.01"><a target="_blank" style="fill: #5b5b5b; text-decoration: underline;" href="https://ourworldindata.org/co2-and-greenhouse-gas-emissions">OurWorldInData.org/co2-and-greenhouse-gas-emissions</a> | <a target="_blank" style="fill: #5b5b5b; text-decoration: underline;" href="https://creativecommons.org/licenses/by/4.0/">CC BY</a></tspan></text></g></svg>