<svg xmlns="http://www.w3.org/2000/svg" version="1.1" style="font-family:Lato, &#x27;Helvetica Neue&#x27;, Helvetica, Arial, &#x27;Liberation Sans&#x27;, sans-serif;font-size:18px;background-color:#ffffff;text-rendering:geometricPrecision;-webkit-font-smoothing:antialiased" width="850" height="600" viewBox="0 0 850 600"><defs><style>@import url(https://ourworldindata.org/fonts.css)</style></defs><defs><pattern id="noDataPattern" patternUnits="userSpaceOnUse" width="4" height="4" patternTransform="rotate(-45 2 2)"><path d="M -1,2 l 6,0" stroke="#ccc" stroke-width="0.7"></path></pattern></defs><rect class="background-fill" fill="#ffffff" width="850" height="600"></rect><g id="header" class="HeaderView"><g id="logo" transform="translate(769, 16) scale(1)"><svg className="owidLogo" xmlns="http://www.w3.org/2000/svg" width="65" height="36" viewBox="0 0 65 36"  fill="none"><path fill="#002147" d="M0 0h64.8v36H0z"/><path fill="#CE261E" d="M0 33.3h64.8V36H0z"/><path fill="#fff" d="M13.796 10.575c0 .636-.106 1.226-.318 1.77a4.193 4.193 0 0 1-.894 1.404 4.084 4.084 0 0 1-1.386.93c-.54.22-1.138.33-1.794.33-.656 0-1.256-.11-1.8-.33a4.149 4.149 0 0 1-1.392-.93 4.193 4.193 0 0 1-.894-1.404A4.833 4.833 0 0 1 5 10.575c0-.636.106-1.224.318-1.764a4.18 4.18 0 0 1 .894-1.41 4.076 4.076 0 0 1 1.392-.924 4.684 4.684 0 0 1 1.8-.336c.656 0 1.254.112 1.794.336.54.224 1.002.534 1.386.93.384.392.682.86.894 1.404.212.54.318 1.128.318 1.764Zm-1.656 0c0-.476-.064-.902-.192-1.278a2.671 2.671 0 0 0-.54-.966 2.332 2.332 0 0 0-.864-.606 2.94 2.94 0 0 0-1.14-.21c-.424 0-.806.07-1.146.21-.34.14-.63.342-.87.606a2.742 2.742 0 0 0-.546.966 3.955 3.955 0 0 0-.192 1.278c0 .476.064.904.192 1.284.128.376.31.696.546.96.24.26.53.46.87.6.34.14.722.21 1.146.21.424 0 .804-.07 1.14-.21.34-.14.628-.34.864-.6.236-.264.416-.584.54-.96a4.01 4.01 0 0 0 .192-1.284ZM16.104 8.757v3.912c0 .376.086.668.258.876.176.204.438.306.786.306.256 0 .496-.056.72-.168a2.58 2.58 0 0 0 .636-.474V8.757h1.482v6.156h-.906c-.192 0-.318-.09-.378-.27l-.102-.492a4.65 4.65 0 0 1-.396.354 2.577 2.577 0 0 1-.438.27 2.35 2.35 0 0 1-.498.168 2.345 2.345 0 0 1-.57.066c-.336 0-.634-.056-.894-.168a1.821 1.821 0 0 1-.648-.486 2.157 2.157 0 0 1-.402-.738 3.233 3.233 0 0 1-.132-.948V8.757h1.482ZM21.328 14.913V8.757h.87c.152 0 .258.028.318.084.06.056.1.152.12.288l.09.744c.22-.38.478-.68.774-.9.296-.22.628-.33.996-.33.304 0 .556.07.756.21l-.192 1.11c-.012.072-.038.124-.078.156a.278.278 0 0 1-.162.042 1.01 1.01 0 0 1-.246-.042 1.646 1.646 0 0 0-.414-.042c-.308 0-.572.086-.792.258-.22.168-.406.416-.558.744v3.834h-1.482ZM27.347 6.237h1.356a.57.57 0 0 1 .348.102c.096.064.16.152.192.264l1.476 5.19c.036.128.068.268.096.42.032.148.062.306.09.474a5.968 5.968 0 0 1 .228-.894l1.704-5.19a.575.575 0 0 1 .186-.252.543.543 0 0 1 .348-.114h.474a.57.57 0 0 1 .348.102.497.497 0 0 1 .192.264l1.692 5.19c.088.256.164.54.228.852.028-.156.056-.306.084-.45.032-.144.064-.278.096-.402l1.476-5.19c.028-.1.09-.186.186-.258a.563.563 0 0 1 .348-.108h1.266l-2.694 8.676h-1.458l-1.896-5.928-.078-.246a9.504 9.504 0 0 1-.072-.282c-.024.1-.05.194-.078.282-.024.088-.048.17-.072.246l-1.914 5.928H30.04l-2.694-8.676ZM42.771 8.661c.46 0 .876.074 1.248.222.376.148.696.358.96.63s.468.604.612.996c.144.392.216.83.216 1.314 0 .488-.072.928-.216 1.32a2.85 2.85 0 0 1-.612 1.002 2.653 2.653 0 0 1-.96.636 3.35 3.35 0 0 1-1.248.222c-.46 0-.878-.074-1.254-.222a2.712 2.712 0 0 1-.966-.636 2.922 2.922 0 0 1-.618-1.002 3.807 3.807 0 0 1-.216-1.32c0-.484.072-.922.216-1.314.148-.392.354-.724.618-.996.268-.272.59-.482.966-.63a3.397 3.397 0 0 1 1.254-.222Zm0 5.202c.512 0 .89-.172 1.134-.516.248-.344.372-.848.372-1.512s-.124-1.17-.372-1.518c-.244-.348-.622-.522-1.134-.522-.52 0-.904.176-1.152.528-.248.348-.372.852-.372 1.512s.124 1.164.372 1.512c.248.344.632.516 1.152.516ZM46.723 14.913V8.757h.87c.152 0 .258.028.318.084.06.056.1.152.12.288l.09.744c.22-.38.478-.68.774-.9.296-.22.628-.33.996-.33.304 0 .556.07.756.21l-.192 1.11c-.012.072-.038.124-.078.156a.278.278 0 0 1-.162.042 1.01 1.01 0 0 1-.246-.042 1.646 1.646 0 0 0-.414-.042c-.308 0-.572.086-.792.258-.22.168-.406.416-.558.744v3.834h-1.482ZM52.96 5.997v8.916h-1.482V5.997h1.482ZM58.732 14.913c-.192 0-.318-.09-.378-.27l-.12-.594a3.68 3.68 0 0 1-.402.39c-.14.116-.292.216-.456.3-.16.084-.334.148-.522.192a2.372 2.372 0 0 1-.6.072c-.336 0-.644-.07-.924-.21a2.098 2.098 0 0 1-.726-.606 3.033 3.033 0 0 1-.468-.99 5.072 5.072 0 0 1-.162-1.344c0-.456.062-.88.186-1.272s.302-.732.534-1.02c.232-.288.51-.512.834-.672a2.384 2.384 0 0 1 1.092-.246 2.103 2.103 0 0 1 1.536.606V5.997h1.482v8.916h-.906Zm-1.974-1.086c.308 0 .57-.064.786-.192.216-.128.42-.31.612-.546v-2.76a1.452 1.452 0 0 0-.552-.432 1.597 1.597 0 0 0-.636-.126c-.224 0-.428.042-.612.126a1.21 1.21 0 0 0-.462.384c-.124.168-.22.384-.288.648-.068.26-.102.568-.102.924 0 .36.028.666.084.918.06.248.144.452.252.612.108.156.24.27.396.342.156.068.33.102.522.102ZM16.331 20.757v6.156H14.85v-6.156h1.481Zm.223-1.794a.844.844 0 0 1-.078.36.963.963 0 0 1-.21.294.995.995 0 0 1-.3.204.963.963 0 0 1-.372.072.948.948 0 0 1-.367-.072 1.018 1.018 0 0 1-.498-.498.963.963 0 0 1 0-.732.995.995 0 0 1 .205-.3.929.929 0 0 1 .293-.198.899.899 0 0 1 .738 0 .912.912 0 0 1 .3.198.943.943 0 0 1 .288.672ZM17.771 26.913v-6.156h.906c.192 0 .318.09.378.27l.102.486a2.934 2.934 0 0 1 .828-.618c.156-.076.322-.134.498-.174.176-.04.368-.06.576-.06.336 0 .634.058.894.174.26.112.476.272.648.48.176.204.308.45.396.738.092.284.138.598.138.942v3.918h-1.482v-3.918c0-.376-.088-.666-.264-.87-.172-.208-.432-.312-.78-.312-.256 0-.496.058-.72.174a2.58 2.58 0 0 0-.636.474v4.452h-1.482ZM34.22 22.575c0 .636-.106 1.22-.318 1.752-.212.532-.51.99-.894 1.374a4 4 0 0 1-1.386.894 4.87 4.87 0 0 1-1.794.318h-3.312v-8.676h3.312a4.79 4.79 0 0 1 1.794.324 4 4 0 0 1 1.386.894c.384.38.682.836.894 1.368.212.532.318 1.116.318 1.752Zm-1.65 0c0-.476-.064-.902-.192-1.278a2.68 2.68 0 0 0-.546-.96 2.332 2.332 0 0 0-.864-.606 2.94 2.94 0 0 0-1.14-.21h-1.686v6.108h1.686c.424 0 .804-.07 1.14-.21.34-.14.628-.34.864-.6a2.75 2.75 0 0 0 .546-.96 4.01 4.01 0 0 0 .192-1.284ZM39.98 26.913h-.665c-.14 0-.25-.02-.33-.06-.08-.044-.14-.13-.18-.258l-.132-.438c-.156.14-.31.264-.462.372a2.804 2.804 0 0 1-.462.264c-.16.072-.33.126-.51.162-.18.036-.38.054-.6.054-.26 0-.5-.034-.72-.102a1.618 1.618 0 0 1-.57-.318 1.448 1.448 0 0 1-.366-.522 1.852 1.852 0 0 1-.132-.726c0-.232.06-.46.18-.684.124-.228.328-.432.612-.612.284-.184.662-.336 1.134-.456.472-.12 1.058-.188 1.758-.204v-.36c0-.412-.088-.716-.264-.912-.172-.2-.424-.3-.756-.3a1.837 1.837 0 0 0-1.02.276c-.116.068-.224.13-.324.186a.664.664 0 0 1-.33.084.429.429 0 0 1-.258-.078.614.614 0 0 1-.174-.192l-.27-.474c.708-.648 1.562-.972 2.562-.972.36 0 .68.06.96.18.284.116.524.28.72.492.196.208.344.458.444.75.104.292.156.612.156.96v3.888Zm-2.88-.924c.153 0 .293-.014.42-.042.129-.028.249-.07.36-.126.117-.056.227-.124.33-.204.109-.084.217-.182.325-.294v-1.038c-.432.02-.794.058-1.086.114-.288.052-.52.12-.696.204a.923.923 0 0 0-.378.294.664.664 0 0 0-.108.366c0 .26.076.446.228.558.156.112.358.168.606.168ZM43.22 27.01c-.532 0-.942-.15-1.23-.45-.288-.305-.432-.723-.432-1.255v-3.438h-.624a.31.31 0 0 1-.21-.078c-.056-.052-.084-.13-.084-.234v-.588l.99-.162.312-1.68a.302.302 0 0 1 .108-.186.365.365 0 0 1 .222-.066h.768v1.938h1.62v1.056h-1.62v3.336c0 .192.048.342.144.45a.488.488 0 0 0 .384.162c.092 0 .168-.01.228-.03.064-.024.118-.048.162-.072.048-.024.09-.046.126-.066a.194.194 0 0 1 .108-.036.16.16 0 0 1 .108.036c.028.02.058.052.09.096l.444.72c-.216.18-.464.316-.744.408a2.77 2.77 0 0 1-.87.138ZM50.423 26.913h-.666c-.14 0-.25-.02-.33-.06-.08-.044-.14-.13-.18-.258l-.132-.438c-.156.14-.31.264-.462.372a2.804 2.804 0 0 1-.462.264c-.16.072-.33.126-.51.162-.18.036-.38.054-.6.054-.26 0-.5-.034-.72-.102a1.618 1.618 0 0 1-.57-.318 1.448 1.448 0 0 1-.366-.522 1.852 1.852 0 0 1-.132-.726c0-.232.06-.46.18-.684.124-.228.328-.432.612-.612.284-.184.662-.336 1.134-.456.472-.12 1.058-.188 1.758-.204v-.36c0-.412-.088-.716-.264-.912-.172-.2-.424-.3-.756-.3a1.837 1.837 0 0 0-1.02.276c-.116.068-.224.13-.324.186a.664.664 0 0 1-.33.084.429.429 0 0 1-.258-.078.614.614 0 0 1-.174-.192l-.27-.474c.708-.648 1.562-.972 2.562-.972.36 0 .68.06.96.18.284.116.524.28.72.492.196.208.344.458.444.75.104.292.156.612.156.96v3.888Zm-2.88-.924c.152 0 .292-.014.42-.042.128-.028.248-.07.36-.126.116-.056.226-.124.33-.204.108-.084.216-.182.324-.294v-1.038c-.432.02-.794.058-1.086.114-.288.052-.52.12-.696.204a.923.923 0 0 0-.378.294.664.664 0 0 0-.108.366c0 .26.076.446.228.558.156.112.358.168.606.168Z"/></svg></g><a id="title" href="https://ourworldindata.org/grapher/co-emissions-per-capita?tab=chart&amp;stackMode=relative&amp;facet=metric" style="font-family:&#x27;Playfair Display&#x27;, Georgia, &#x27;Times New Roman&#x27;, &#x27;Liberation Serif&#x27;, serif" target="_blank" rel="noopener"><text font-size="24.75" font-weight="600" x="16.0" y="40.0" fill="#5b5b5b"><tspan x="16" y="40.0075">Per capita CO₂ emissions</tspan></text></a><g id="subtitle" class="markdown-text-wrap"><text x="16.0" y="63.9" style="font-size:14.625px;line-height:1.2" fill="#5b5b5b"><tspan x="16" y="63.9">Carbon dioxide (CO₂) emissions from <tspan class="dod-span" data-id="fossilemissions">fossil fuels and industry</tspan>. Land-use change is not included.</tspan></text></g></g><g id="chart-area" style="pointer-events:none"><g id="horizontal-axis" class="HorizontalAxis"><g id="tick-marks"><line id="1750" x1="90" y1="512.6" x2="90" y2="518.1" stroke="#999" stroke-width="1"></line><line id="2023" x1="672.8" y1="512.6" x2="672.8" y2="518.1" stroke="#999" stroke-width="1"></line><line id="1800" x1="196.7" y1="512.6" x2="196.7" y2="518.1" stroke="#999" stroke-width="1"></line><line id="1850" x1="303.5" y1="512.6" x2="303.5" y2="518.1" stroke="#999" stroke-width="1"></line><line id="1900" x1="410.2" y1="512.6" x2="410.2" y2="518.1" stroke="#999" stroke-width="1"></line><line id="1950" x1="517" y1="512.6" x2="517" y2="518.1" stroke="#999" stroke-width="1"></line></g><g id="tick-labels"><text x="89.985" y="531.6" fill="#5b5b5b" text-anchor="start" font-size="13.5">1750</text><text x="672.835" y="531.6" fill="#5b5b5b" text-anchor="end" font-size="13.5">2023</text><text x="196.7" y="531.6" fill="#5b5b5b" text-anchor="middle" font-size="13.5">1800</text><text x="303.5" y="531.6" fill="#5b5b5b" text-anchor="middle" font-size="13.5">1850</text><text x="410.2" y="531.6" fill="#5b5b5b" text-anchor="middle" font-size="13.5">1900</text><text x="517" y="531.6" fill="#5b5b5b" text-anchor="middle" font-size="13.5">1950</text></g></g><g id="vertical-axis" class="VerticalAxis"><g id="tick-labels"><text x="84.98" y="513" dy=".32em" text-anchor="end" fill="#5b5b5b" font-size="13.5">+0%</text><text x="84.98" y="461.2" dy=".32em" text-anchor="end" fill="#5b5b5b" font-size="13.5">+50,000%</text><text x="84.98" y="409.3" dy=".32em" text-anchor="end" fill="#5b5b5b" font-size="13.5">+100,000%</text><text x="84.98" y="357.4" dy=".32em" text-anchor="end" fill="#5b5b5b" font-size="13.5">+150,000%</text><text x="84.98" y="305.5" dy=".32em" text-anchor="end" fill="#5b5b5b" font-size="13.5">+200,000%</text><text x="84.98" y="253.6" dy=".32em" text-anchor="end" fill="#5b5b5b" font-size="13.5">+250,000%</text><text x="84.98" y="201.7" dy=".32em" text-anchor="end" fill="#5b5b5b" font-size="13.5">+300,000%</text><text x="84.98" y="149.9" dy=".32em" text-anchor="end" fill="#5b5b5b" font-size="13.5">+350,000%</text><text x="84.98" y="98" dy=".32em" text-anchor="end" fill="#5b5b5b" font-size="13.5">+400,000%</text></g></g><g id="horizontal-grid-lines" class="AxisGridLines horizontalLines"><line id="+0%" x1="89.98" y1="513" x2="672.84" y2="513" stroke="#999" stroke-width="1"></line><line id="+50,000%" x1="89.98" y1="461.2" x2="672.84" y2="461.2" stroke="#ddd" stroke-width="1" stroke-dasharray="3,2"></line><line id="+100,000%" x1="89.98" y1="409.3" x2="672.84" y2="409.3" stroke="#ddd" stroke-width="1" stroke-dasharray="3,2"></line><line id="+150,000%" x1="89.98" y1="357.4" x2="672.84" y2="357.4" stroke="#ddd" stroke-width="1" stroke-dasharray="3,2"></line><line id="+200,000%" x1="89.98" y1="305.5" x2="672.84" y2="305.5" stroke="#ddd" stroke-width="1" stroke-dasharray="3,2"></line><line id="+250,000%" x1="89.98" y1="253.6" x2="672.84" y2="253.6" stroke="#ddd" stroke-width="1" stroke-dasharray="3,2"></line><line id="+300,000%" x1="89.98" y1="201.7" x2="672.84" y2="201.7" stroke="#ddd" stroke-width="1" stroke-dasharray="3,2"></line><line id="+350,000%" x1="89.98" y1="149.9" x2="672.84" y2="149.9" stroke="#ddd" stroke-width="1" stroke-dasharray="3,2"></line><line id="+400,000%" x1="89.98" y1="98" x2="672.84" y2="98" stroke="#ddd" stroke-width="1" stroke-dasharray="3,2"></line></g><g id="line-labels" class="LineLabels"><g id="connectors"><path id="Canada" d="M676.835,189.9 H685.335 V189.9 H693.835" stroke="#999" stroke-width="0.5" fill="none"></path><path id="India" d="M676.835,377.6 H685.335 V370.925 H693.835" stroke="#999" stroke-width="0.5" fill="none"></path><path id="South-Africa" d="M676.835,383.1 H685.335 V389.77500000000003 H693.835" stroke="#999" stroke-width="0.5" fill="none"></path><path id="European-Union-(27)" d="M676.835,449.7 H679.6683333333334 V431.92500000000007 H693.835" stroke="#999" stroke-width="0.5" fill="none"></path><path id="World" d="M676.835,473.9 H682.5016666666668 V450.7750000000001 H693.835" stroke="#999" stroke-width="0.5" fill="none"></path><path id="United-States" d="M676.835,477.9 H685.335 V469.6250000000001 H693.835" stroke="#999" stroke-width="0.5" fill="none"></path><path id="China" d="M676.835,495.2 H688.1683333333334 V488.47500000000014 H693.835" stroke="#999" stroke-width="0.5" fill="none"></path><path id="United-Kingdom" d="M676.835,512.7 H691.0016666666668 V507.32500000000016 H693.835" stroke="#999" stroke-width="0.5" fill="none"></path><path id="Kenya" d="M676.835,512.9 H691.0016666666668 V526.1750000000001 H693.835" stroke="#999" stroke-width="0.5" fill="none"></path></g><g id="text-annotations"></g><g id="text-labels"><text font-size="13.50" font-weight="400" x="697.8" y="194.9" fill="#996d39" opacity="1" text-anchor="start"><tspan x="697.835" y="194.89499999999998">Canada</tspan></text><text font-size="13.50" font-weight="400" x="697.8" y="375.9" fill="#883039" opacity="1" text-anchor="start"><tspan x="697.835" y="375.92">India</tspan></text><text font-size="13.50" font-weight="400" x="697.8" y="394.8" fill="#00295b" opacity="1" text-anchor="start"><tspan x="697.835" y="394.77000000000004">South Africa</tspan></text><text font-size="13.50" font-weight="400" x="697.8" y="436.9" fill="#2c8465" opacity="1" text-anchor="start"><tspan x="697.835" y="436.9200000000001">European Union (27)</tspan></text><text font-size="13.50" font-weight="400" x="697.8" y="455.8" fill="#b13507" opacity="1" text-anchor="start"><tspan x="697.835" y="455.7700000000001">World</tspan></text><text font-size="13.50" font-weight="400" x="697.8" y="474.6" fill="#6d3e91" opacity="1" text-anchor="start"><tspan x="697.835" y="474.6200000000001">United States</tspan></text><text font-size="13.50" font-weight="400" x="697.8" y="493.5" fill="#a2559c" opacity="1" text-anchor="start"><tspan x="697.835" y="493.47000000000014">China</tspan></text><text font-size="13.50" font-weight="400" x="697.8" y="512.3" fill="#4c6a9c" opacity="1" text-anchor="start"><tspan x="697.835" y="512.3200000000002">United Kingdom</tspan></text><text font-size="13.50" font-weight="400" x="697.8" y="531.2" fill="#9a5129" opacity="1" text-anchor="start"><tspan x="697.835" y="531.1700000000001">Kenya</tspan></text></g></g><g id="lines"><path fill="none" stroke-linecap="butt" stroke-linejoin="round" stroke="#ffffff" id="outline__Kenya" stroke-width="2.5" d="M517 513L519.1 513L521.3 513L523.4 513L525.5 513L527.7 512.9L529.8 512.9L531.9 512.9L534.1 512.9L536.2 512.9L538.3 512.9L540.5 512.9L542.6 512.9L544.7 512.9L546.9 512.9L549 513L551.1 513L553.3 513L555.4 513L557.5 513L559.7 513L561.8 512.9L564 512.9L566.1 512.9L568.2 512.9L570.4 512.9L572.5 512.9L574.6 512.9L576.8 512.9L578.9 512.9L581 512.9L583.2 512.9L585.3 513L587.4 513L589.6 513L591.7 513L593.8 513L596 513L598.1 513L600.2 513L602.4 513L604.5 513L606.7 513L608.8 513L610.9 513L613.1 513L615.2 512.9L617.3 512.9L619.5 512.9L621.6 512.9L623.7 512.9L625.9 512.9L628 513L630.1 513L632.3 513L634.4 513L636.5 513L638.7 513L640.8 513L642.9 512.9L645.1 512.9L647.2 512.9L649.4 513L651.5 512.9L653.6 512.9L655.8 512.9L657.9 512.9L660 512.9L662.2 512.9L664.3 512.9L666.4 512.9L668.6 512.9L670.7 512.9L672.8 512.9"></path><path fill="none" stroke-linecap="butt" stroke-linejoin="round" stroke="#9A5129" id="line__Kenya" stroke-width="1.5" stroke-opacity="1" d="M517 513L519.1 513L521.3 513L523.4 513L525.5 513L527.7 512.9L529.8 512.9L531.9 512.9L534.1 512.9L536.2 512.9L538.3 512.9L540.5 512.9L542.6 512.9L544.7 512.9L546.9 512.9L549 513L551.1 513L553.3 513L555.4 513L557.5 513L559.7 513L561.8 512.9L564 512.9L566.1 512.9L568.2 512.9L570.4 512.9L572.5 512.9L574.6 512.9L576.8 512.9L578.9 512.9L581 512.9L583.2 512.9L585.3 513L587.4 513L589.6 513L591.7 513L593.8 513L596 513L598.1 513L600.2 513L602.4 513L604.5 513L606.7 513L608.8 513L610.9 513L613.1 513L615.2 512.9L617.3 512.9L619.5 512.9L621.6 512.9L623.7 512.9L625.9 512.9L628 513L630.1 513L632.3 513L634.4 513L636.5 513L638.7 513L640.8 513L642.9 512.9L645.1 512.9L647.2 512.9L649.4 513L651.5 512.9L653.6 512.9L655.8 512.9L657.9 512.9L660 512.9L662.2 512.9L664.3 512.9L666.4 512.9L668.6 512.9L670.7 512.9L672.8 512.9"></path><path fill="none" stroke-linecap="butt" stroke-linejoin="round" stroke="#ffffff" id="outline__China" stroke-width="2.5" d="M425.2 513L427.3 513L429.4 513L431.6 513L433.7 513L435.9 513.1L438 513L440.1 513L442.3 513L444.4 513L446.5 513L448.7 513L450.8 513L452.9 513L455.1 513L457.2 513L459.3 512.9L461.5 512.9L463.6 512.9L465.7 512.9L467.9 512.9L470 512.9L472.1 512.9L474.3 512.9L476.4 512.9L478.6 512.9L480.7 512.9L482.8 512.9L485 512.8L487.1 512.8L489.2 512.8L491.4 512.9L493.5 512.8L495.6 512.8L497.8 512.7L499.9 512.6L502 512.7L504.2 512.7L506.3 512.9L508.4 513L510.6 513L512.7 513L514.8 512.9L517 512.8L519.1 512.7L521.3 512.7L523.4 512.6L525.5 512.6L527.7 512.5L529.8 512.4L531.9 512.3L534.1 511.4L536.2 510.8L538.3 510.5L540.5 511.3L542.6 511.7L544.7 511.7L546.9 511.7L549 511.7L551.1 511.6L553.3 511.8L555.4 511.8L557.5 511.5L559.7 511L561.8 510.8L564 510.7L566.1 510.7L568.2 510.7L570.4 510.4L572.5 510.3L574.6 510.1L576.8 509.8L578.9 509.8L581 509.9L583.2 510L585.3 509.7L587.4 509.6L589.6 509.4L591.7 509.1L593.8 509L596 508.7L598.1 508.5L600.2 508.5L602.4 508.5L604.5 508.4L606.7 508.2L608.8 507.9L610.9 507.6L613.1 507.2L615.2 507L617.3 507.1L619.5 507.4L621.6 507.1L623.7 507L625.9 506.9L628 506.3L630.1 505.1L632.3 504.6L634.4 503.5L636.5 502.6L638.7 501.8L640.8 501.1L642.9 500.5L645.1 499.5L647.2 498.1L649.4 497.8L651.5 497.7L653.6 497.7L655.8 498L657.9 498.2L660 498L662.2 497.5L664.3 497L666.4 496.7L668.6 495.9L670.7 496.1L672.8 495.2"></path><path fill="none" stroke-linecap="butt" stroke-linejoin="round" stroke="#A2559C" id="line__China" stroke-width="1.5" stroke-opacity="1" d="M425.2 513L427.3 513L429.4 513L431.6 513L433.7 513L435.9 513.1L438 513L440.1 513L442.3 513L444.4 513L446.5 513L448.7 513L450.8 513L452.9 513L455.1 513L457.2 513L459.3 512.9L461.5 512.9L463.6 512.9L465.7 512.9L467.9 512.9L470 512.9L472.1 512.9L474.3 512.9L476.4 512.9L478.6 512.9L480.7 512.9L482.8 512.9L485 512.8L487.1 512.8L489.2 512.8L491.4 512.9L493.5 512.8L495.6 512.8L497.8 512.7L499.9 512.6L502 512.7L504.2 512.7L506.3 512.9L508.4 513L510.6 513L512.7 513L514.8 512.9L517 512.8L519.1 512.7L521.3 512.7L523.4 512.6L525.5 512.6L527.7 512.5L529.8 512.4L531.9 512.3L534.1 511.4L536.2 510.8L538.3 510.5L540.5 511.3L542.6 511.7L544.7 511.7L546.9 511.7L549 511.7L551.1 511.6L553.3 511.8L555.4 511.8L557.5 511.5L559.7 511L561.8 510.8L564 510.7L566.1 510.7L568.2 510.7L570.4 510.4L572.5 510.3L574.6 510.1L576.8 509.8L578.9 509.8L581 509.9L583.2 510L585.3 509.7L587.4 509.6L589.6 509.4L591.7 509.1L593.8 509L596 508.7L598.1 508.5L600.2 508.5L602.4 508.5L604.5 508.4L606.7 508.2L608.8 507.9L610.9 507.6L613.1 507.2L615.2 507L617.3 507.1L619.5 507.4L621.6 507.1L623.7 507L625.9 506.9L628 506.3L630.1 505.1L632.3 504.6L634.4 503.5L636.5 502.6L638.7 501.8L640.8 501.1L642.9 500.5L645.1 499.5L647.2 498.1L649.4 497.8L651.5 497.7L653.6 497.7L655.8 498L657.9 498.2L660 498L662.2 497.5L664.3 497L666.4 496.7L668.6 495.9L670.7 496.1L672.8 495.2"></path><path fill="none" stroke-linecap="butt" stroke-linejoin="round" stroke="#ffffff" id="outline__South-Africa" stroke-width="2.5" d="M376.1 513L378.2 513L380.3 512.9L382.5 512.9L384.6 512.8L386.7 512.6L388.9 511.8L391 511.8L393.2 511.1L395.3 505.4L397.4 502.8L399.6 499.1L401.7 495.5L403.8 493.5L406 488.6L408.1 491L410.2 503.9L412.4 497.9L414.5 490.8L416.6 483.7L418.8 480.6L420.9 476.5L423 472L425.2 468.5L427.3 468L429.4 462L431.6 456.2L433.7 459.2L435.9 456.8L438 452.5L440.1 455.3L442.3 455.8L444.4 446.7L446.5 443.2L448.7 447.5L450.8 446L452.9 439.9L455.1 442L457.2 453.3L459.3 442L461.5 440L463.6 438.5L465.7 436.3L467.9 440L470 441.4L472.1 440.1L474.3 446.3L476.4 454.9L478.6 460.7L480.7 457.7L482.8 451.2L485 445.5L487.1 440.4L489.2 438.7L491.4 436.5L493.5 435.1L495.6 434.1L497.8 430.3L499.9 424.4L502 425.5L504.2 416.9L506.3 416.4L508.4 417.9L510.6 420.1L512.7 419.8L514.8 416.1L517 417.4L519.1 413L521.3 406.5L523.4 408.6L525.5 406.7L527.7 396.4L529.8 393.2L531.9 392.9L534.1 387.1L536.2 392.5L538.3 391.4L540.5 389.6L542.6 389.1L544.7 388.2L546.9 381.1L549 375.9L551.1 379.9L553.3 378.5L555.4 378.5L557.5 377.7L559.7 375.8L561.8 363L564 364.5L566.1 367.2L568.2 368.7L570.4 365.9L572.5 363.7L574.6 362.5L576.8 365L578.9 357L581 355L583.2 341L585.3 331.7L587.4 330.8L589.6 322.7L591.7 324.1L593.8 326.3L596 333.1L598.1 331L600.2 337.3L602.4 356.1L604.5 353.2L606.7 367.9L608.8 361.8L610.9 355.7L613.1 347.1L615.2 348.3L617.3 340.6L619.5 346.2L621.6 349.1L623.7 349.1L625.9 353.4L628 361.3L630.1 342.6L632.3 325.6L634.4 341.1L636.5 330.4L638.7 324.9L640.8 315.2L642.9 325.5L645.1 332.2L647.2 333.3L649.4 338.6L651.5 341.6L653.6 339.5L655.8 352.2L657.9 349.9L660 357L662.2 361.5L664.3 353.8L666.4 366.6L668.6 371.5L670.7 380.3L672.8 383.1"></path><path fill="none" stroke-linecap="butt" stroke-linejoin="round" stroke="#00295B" id="line__South-Africa" stroke-width="1.5" stroke-opacity="1" d="M376.1 513L378.2 513L380.3 512.9L382.5 512.9L384.6 512.8L386.7 512.6L388.9 511.8L391 511.8L393.2 511.1L395.3 505.4L397.4 502.8L399.6 499.1L401.7 495.5L403.8 493.5L406 488.6L408.1 491L410.2 503.9L412.4 497.9L414.5 490.8L416.6 483.7L418.8 480.6L420.9 476.5L423 472L425.2 468.5L427.3 468L429.4 462L431.6 456.2L433.7 459.2L435.9 456.8L438 452.5L440.1 455.3L442.3 455.8L444.4 446.7L446.5 443.2L448.7 447.5L450.8 446L452.9 439.9L455.1 442L457.2 453.3L459.3 442L461.5 440L463.6 438.5L465.7 436.3L467.9 440L470 441.4L472.1 440.1L474.3 446.3L476.4 454.9L478.6 460.7L480.7 457.7L482.8 451.2L485 445.5L487.1 440.4L489.2 438.7L491.4 436.5L493.5 435.1L495.6 434.1L497.8 430.3L499.9 424.4L502 425.5L504.2 416.9L506.3 416.4L508.4 417.9L510.6 420.1L512.7 419.8L514.8 416.1L517 417.4L519.1 413L521.3 406.5L523.4 408.6L525.5 406.7L527.7 396.4L529.8 393.2L531.9 392.9L534.1 387.1L536.2 392.5L538.3 391.4L540.5 389.6L542.6 389.1L544.7 388.2L546.9 381.1L549 375.9L551.1 379.9L553.3 378.5L555.4 378.5L557.5 377.7L559.7 375.8L561.8 363L564 364.5L566.1 367.2L568.2 368.7L570.4 365.9L572.5 363.7L574.6 362.5L576.8 365L578.9 357L581 355L583.2 341L585.3 331.7L587.4 330.8L589.6 322.7L591.7 324.1L593.8 326.3L596 333.1L598.1 331L600.2 337.3L602.4 356.1L604.5 353.2L606.7 367.9L608.8 361.8L610.9 355.7L613.1 347.1L615.2 348.3L617.3 340.6L619.5 346.2L621.6 349.1L623.7 349.1L625.9 353.4L628 361.3L630.1 342.6L632.3 325.6L634.4 341.1L636.5 330.4L638.7 324.9L640.8 315.2L642.9 325.5L645.1 332.2L647.2 333.3L649.4 338.6L651.5 341.6L653.6 339.5L655.8 352.2L657.9 349.9L660 357L662.2 361.5L664.3 353.8L666.4 366.6L668.6 371.5L670.7 380.3L672.8 383.1"></path><path fill="none" stroke-linecap="butt" stroke-linejoin="round" stroke="#ffffff" id="outline__India" stroke-width="2.5" d="M320.6 513L322.7 513L324.8 513L327 513L329.1 513L331.2 513L333.4 513L335.5 513L337.6 513L363.3 512.7L365.4 512.7L367.5 512.7L369.7 512.7L371.8 512.6L373.9 512.5L376.1 512.5L378.2 512.6L380.3 512.5L382.5 512.4L384.6 512.3L386.7 512.2L388.9 512.1L391 512L393.2 511.9L395.3 511.9L397.4 511.9L399.6 511.5L401.7 511.4L403.8 511.3L406 511.1L408.1 510.9L410.2 510.4L412.4 510.2L414.5 509.9L416.6 509.8L418.8 509.5L420.9 509.4L423 508.8L425.2 508.4L427.3 507.7L429.4 507.9L431.6 508.1L433.7 507.8L435.9 507L438 506.4L440.1 506.4L442.3 506.1L444.4 506L446.5 505.7L448.7 504.7L450.8 504L452.9 505.8L455.1 505.3L457.2 505.4L459.3 505.3L461.5 504.8L463.6 505L465.7 505.1L467.9 504.8L470 505.2L472.1 505L474.3 505L476.4 505.7L478.6 506.4L480.7 506.6L482.8 505.9L485 505.7L487.1 505.9L489.2 505.2L491.4 504.4L493.5 504.7L495.6 504.2L497.8 504L499.9 504L502 505.1L504.2 504.9L506.3 503.9L508.4 504L510.6 503.7L512.7 503.6L514.8 503.1L517 501.9L519.1 501.6L521.3 501.3L523.4 501.3L525.5 501L527.7 500.2L529.8 500.1L531.9 498.8L534.1 498.5L536.2 498L538.3 496.9L540.5 496L542.6 494.7L544.7 493.8L546.9 494.6L549 493.2L551.1 492.9L553.3 493.3L555.4 492L557.5 492L559.7 492L561.8 491.3L564 490.5L566.1 490.3L568.2 490.1L570.4 488.8L572.5 488.3L574.6 487.4L576.8 487.6L578.9 486.9L581 486.1L583.2 484.7L585.3 484.4L587.4 482.7L589.6 482.7L591.7 480.4L593.8 478.8L596 477.3L598.1 475.3L600.2 472.5L602.4 470.6L604.5 468.8L606.7 466.9L608.8 466.4L610.9 464.9L613.1 462.7L615.2 459.6L617.3 458.5L619.5 458.4L621.6 454.3L623.7 453.8L625.9 454.1L628 453.3L630.1 452.3L632.3 449.6L634.4 447.3L636.5 443L638.7 438.7L640.8 434.7L642.9 429.4L645.1 427.3L647.2 424.1L649.4 417.3L651.5 415.2L653.6 409L655.8 406.1L657.9 401.6L660 399.6L662.2 393.1L664.3 393.4L666.4 403.3L668.6 392.8L670.7 386.8L672.8 377.6"></path><path fill="none" stroke-linecap="butt" stroke-linejoin="round" stroke="#883039" id="line__India" stroke-width="1.5" stroke-opacity="1" d="M320.6 513L322.7 513L324.8 513L327 513L329.1 513L331.2 513L333.4 513L335.5 513L337.6 513L363.3 512.7L365.4 512.7L367.5 512.7L369.7 512.7L371.8 512.6L373.9 512.5L376.1 512.5L378.2 512.6L380.3 512.5L382.5 512.4L384.6 512.3L386.7 512.2L388.9 512.1L391 512L393.2 511.9L395.3 511.9L397.4 511.9L399.6 511.5L401.7 511.4L403.8 511.3L406 511.1L408.1 510.9L410.2 510.4L412.4 510.2L414.5 509.9L416.6 509.8L418.8 509.5L420.9 509.4L423 508.8L425.2 508.4L427.3 507.7L429.4 507.9L431.6 508.1L433.7 507.8L435.9 507L438 506.4L440.1 506.4L442.3 506.1L444.4 506L446.5 505.7L448.7 504.7L450.8 504L452.9 505.8L455.1 505.3L457.2 505.4L459.3 505.3L461.5 504.8L463.6 505L465.7 505.1L467.9 504.8L470 505.2L472.1 505L474.3 505L476.4 505.7L478.6 506.4L480.7 506.6L482.8 505.9L485 505.7L487.1 505.9L489.2 505.2L491.4 504.4L493.5 504.7L495.6 504.2L497.8 504L499.9 504L502 505.1L504.2 504.9L506.3 503.9L508.4 504L510.6 503.7L512.7 503.6L514.8 503.1L517 501.9L519.1 501.6L521.3 501.3L523.4 501.3L525.5 501L527.7 500.2L529.8 500.1L531.9 498.8L534.1 498.5L536.2 498L538.3 496.9L540.5 496L542.6 494.7L544.7 493.8L546.9 494.6L549 493.2L551.1 492.9L553.3 493.3L555.4 492L557.5 492L559.7 492L561.8 491.3L564 490.5L566.1 490.3L568.2 490.1L570.4 488.8L572.5 488.3L574.6 487.4L576.8 487.6L578.9 486.9L581 486.1L583.2 484.7L585.3 484.4L587.4 482.7L589.6 482.7L591.7 480.4L593.8 478.8L596 477.3L598.1 475.3L600.2 472.5L602.4 470.6L604.5 468.8L606.7 466.9L608.8 466.4L610.9 464.9L613.1 462.7L615.2 459.6L617.3 458.5L619.5 458.4L621.6 454.3L623.7 453.8L625.9 454.1L628 453.3L630.1 452.3L632.3 449.6L634.4 447.3L636.5 443L638.7 438.7L640.8 434.7L642.9 429.4L645.1 427.3L647.2 424.1L649.4 417.3L651.5 415.2L653.6 409L655.8 406.1L657.9 401.6L660 399.6L662.2 393.1L664.3 393.4L666.4 403.3L668.6 392.8L670.7 386.8L672.8 377.6"></path><path fill="none" stroke-linecap="butt" stroke-linejoin="round" stroke="#ffffff" id="outline__United-States" stroke-width="2.5" d="M196.7 513L198.9 513L201 513L203.1 513L205.3 513L207.4 513L209.5 513L211.7 513L213.8 513L215.9 513L218.1 513L220.2 513L222.4 513L224.5 513L226.6 513L228.8 513L230.9 513L233 512.9L235.2 512.9L237.3 512.9L239.4 512.9L241.6 512.9L243.7 512.9L245.8 512.9L248 512.9L250.1 512.9L252.2 512.9L254.4 512.8L256.5 512.8L258.6 512.8L260.8 512.8L262.9 512.7L265.1 512.6L267.2 512.5L269.3 512.6L271.5 512.4L273.6 512.4L275.7 512.3L277.9 512.4L280 512.3L282.1 512.3L284.3 512.3L286.4 512.2L288.5 512.1L290.7 512L292.8 511.8L294.9 511.6L297.1 511.4L299.2 511.3L301.3 511.2L303.5 511.1L305.6 510.6L307.8 510.5L309.9 510.3L312 510.1L314.2 509.7L316.3 509.6L318.4 509.7L320.6 509.7L322.7 509.5L324.8 509.4L327 509.7L329.1 509.6L331.2 509.2L333.4 509L335.5 509.1L337.6 509.1L339.8 508.3L341.9 507.8L344 507.2L346.2 507.1L348.3 506.9L350.5 505.7L352.6 505.1L354.7 505.6L356.9 505.6L359 506L361.1 505.4L363.3 505.7L365.4 504.3L367.5 503.3L369.7 503L371.8 502L373.9 501.4L376.1 501L378.2 501.1L380.3 500.7L382.5 500.1L384.6 497.7L386.7 499.6L388.9 497.2L391 496.5L393.2 496L395.3 496.1L397.4 497.5L399.6 495.8L401.7 496.1L403.8 495.7L406 494.5L408.1 492.2L410.2 491.3L412.4 489.8L414.5 488.9L416.6 485.3L418.8 486.2L420.9 483.6L423 482.7L425.2 478.4L427.3 483.4L429.4 480.8L431.6 478.4L433.7 479.3L435.9 477.5L438 475.4L440.1 479.2L442.3 478.4L444.4 475L446.5 471.8L448.7 470.5L450.8 477.6L452.9 471.9L455.1 479.9L457.2 480.1L459.3 470.1L461.5 475.2L463.6 474.4L465.7 471.7L467.9 473.3L470 474.5L472.1 472.3L474.3 477.2L476.4 482.9L478.6 487.7L480.7 486.1L482.8 484.5L485 483.6L487.1 479.5L489.2 478.2L491.4 483.8L493.5 481L495.6 477.5L497.8 474.7L499.9 472.3L502 471.5L504.2 468.9L506.3 471.1L508.4 473.4L510.6 470L512.7 469L514.8 476.6L517 472.6L519.1 471.9L521.3 473.6L523.4 473.2L525.5 475.7L527.7 472.7L529.8 471.4L531.9 472.4L534.1 474.3L536.2 473.8L538.3 473.6L540.5 474.4L542.6 473.7L544.7 472.6L546.9 471.5L549 470.4L551.1 468.8L553.3 467.7L555.4 466.5L557.5 464.7L559.7 461.7L561.8 462.1L564 460.2L566.1 458.3L568.2 460.7L570.4 462.8L572.5 460.3L574.6 459.2L576.8 459.1L578.9 458.9L581 461.6L583.2 463.4L585.3 466.5L587.4 467.1L589.6 465.2L591.7 465.7L593.8 466.1L596 464.9L598.1 463.1L600.2 462.7L602.4 463.4L604.5 464.5L606.7 464.1L608.8 463.7L610.9 463.4L613.1 463.3L615.2 462.1L617.3 461.9L619.5 462L621.6 461.9L623.7 460.6L625.9 462L628 462.1L630.1 462.1L632.3 461.7L634.4 462.1L636.5 463.2L638.7 463.1L640.8 465.4L642.9 469.3L645.1 468.2L647.2 469.7L649.4 471.6L651.5 471L653.6 471L655.8 472.5L657.9 473.8L660 474.5L662.2 473.6L664.3 474.8L666.4 478.9L668.6 476.7L670.7 476.5L672.8 477.9"></path><path fill="none" stroke-linecap="butt" stroke-linejoin="round" stroke="#6D3E91" id="line__United-States" stroke-width="1.5" stroke-opacity="1" d="M196.7 513L198.9 513L201 513L203.1 513L205.3 513L207.4 513L209.5 513L211.7 513L213.8 513L215.9 513L218.1 513L220.2 513L222.4 513L224.5 513L226.6 513L228.8 513L230.9 513L233 512.9L235.2 512.9L237.3 512.9L239.4 512.9L241.6 512.9L243.7 512.9L245.8 512.9L248 512.9L250.1 512.9L252.2 512.9L254.4 512.8L256.5 512.8L258.6 512.8L260.8 512.8L262.9 512.7L265.1 512.6L267.2 512.5L269.3 512.6L271.5 512.4L273.6 512.4L275.7 512.3L277.9 512.4L280 512.3L282.1 512.3L284.3 512.3L286.4 512.2L288.5 512.1L290.7 512L292.8 511.8L294.9 511.6L297.1 511.4L299.2 511.3L301.3 511.2L303.5 511.1L305.6 510.6L307.8 510.5L309.9 510.3L312 510.1L314.2 509.7L316.3 509.6L318.4 509.7L320.6 509.7L322.7 509.5L324.8 509.4L327 509.7L329.1 509.6L331.2 509.2L333.4 509L335.5 509.1L337.6 509.1L339.8 508.3L341.9 507.8L344 507.2L346.2 507.1L348.3 506.9L350.5 505.7L352.6 505.1L354.7 505.6L356.9 505.6L359 506L361.1 505.4L363.3 505.7L365.4 504.3L367.5 503.3L369.7 503L371.8 502L373.9 501.4L376.1 501L378.2 501.1L380.3 500.7L382.5 500.1L384.6 497.7L386.7 499.6L388.9 497.2L391 496.5L393.2 496L395.3 496.1L397.4 497.5L399.6 495.8L401.7 496.1L403.8 495.7L406 494.5L408.1 492.2L410.2 491.3L412.4 489.8L414.5 488.9L416.6 485.3L418.8 486.2L420.9 483.6L423 482.7L425.2 478.4L427.3 483.4L429.4 480.8L431.6 478.4L433.7 479.3L435.9 477.5L438 475.4L440.1 479.2L442.3 478.4L444.4 475L446.5 471.8L448.7 470.5L450.8 477.6L452.9 471.9L455.1 479.9L457.2 480.1L459.3 470.1L461.5 475.2L463.6 474.4L465.7 471.7L467.9 473.3L470 474.5L472.1 472.3L474.3 477.2L476.4 482.9L478.6 487.7L480.7 486.1L482.8 484.5L485 483.6L487.1 479.5L489.2 478.2L491.4 483.8L493.5 481L495.6 477.5L497.8 474.7L499.9 472.3L502 471.5L504.2 468.9L506.3 471.1L508.4 473.4L510.6 470L512.7 469L514.8 476.6L517 472.6L519.1 471.9L521.3 473.6L523.4 473.2L525.5 475.7L527.7 472.7L529.8 471.4L531.9 472.4L534.1 474.3L536.2 473.8L538.3 473.6L540.5 474.4L542.6 473.7L544.7 472.6L546.9 471.5L549 470.4L551.1 468.8L553.3 467.7L555.4 466.5L557.5 464.7L559.7 461.7L561.8 462.1L564 460.2L566.1 458.3L568.2 460.7L570.4 462.8L572.5 460.3L574.6 459.2L576.8 459.1L578.9 458.9L581 461.6L583.2 463.4L585.3 466.5L587.4 467.1L589.6 465.2L591.7 465.7L593.8 466.1L596 464.9L598.1 463.1L600.2 462.7L602.4 463.4L604.5 464.5L606.7 464.1L608.8 463.7L610.9 463.4L613.1 463.3L615.2 462.1L617.3 461.9L619.5 462L621.6 461.9L623.7 460.6L625.9 462L628 462.1L630.1 462.1L632.3 461.7L634.4 462.1L636.5 463.2L638.7 463.1L640.8 465.4L642.9 469.3L645.1 468.2L647.2 469.7L649.4 471.6L651.5 471L653.6 471L655.8 472.5L657.9 473.8L660 474.5L662.2 473.6L664.3 474.8L666.4 478.9L668.6 476.7L670.7 476.5L672.8 477.9"></path><path fill="none" stroke-linecap="butt" stroke-linejoin="round" stroke="#ffffff" id="outline__European-Union-(27)" stroke-width="2.5" d="M196.7 513L198.9 513.1L201 512.3L203.1 513.1L205.3 512.8L207.4 513L209.5 513L211.7 512.9L213.8 513L215.9 513L218.1 512.8L220.2 512.9L222.4 512.9L224.5 512.9L226.6 512.9L228.8 512.8L230.9 512.7L233 512.6L235.2 512.6L237.3 512.6L239.4 512.6L241.6 512.6L243.7 512.5L245.8 512.5L248 512.5L250.1 512.4L252.2 512.4L254.4 512.3L256.5 512.3L258.6 512.3L260.8 511.8L262.9 512L265.1 512L267.2 511.9L269.3 511.8L271.5 511.7L273.6 511.6L275.7 511.4L277.9 511.3L280 511.3L282.1 511L284.3 510.9L286.4 510.7L288.5 510.8L290.7 510.7L292.8 510.4L294.9 510L297.1 509.8L299.2 510.2L301.3 510.1L303.5 509.8L305.6 509.6L307.8 509.2L309.9 508.8L312 508.2L314.2 507.7L316.3 507.4L318.4 507.2L320.6 506.9L322.7 507L324.8 506.6L327 506L329.1 505.4L331.2 505.2L333.4 504.6L335.5 503.9L337.6 503.7L339.8 503.1L341.9 502.6L344 502.3L346.2 502.3L348.3 501.6L350.5 500.4L352.6 499.6L354.7 501.4L356.9 499.7L359 499.2L361.1 499.6L363.3 499.2L365.4 498.5L367.5 496.4L369.7 496.4L371.8 495.6L373.9 494.5L376.1 494.5L378.2 494.4L380.3 494.4L382.5 493.7L384.6 492.4L386.7 491.4L388.9 490.3L391 489.5L393.2 490.1L395.3 489.9L397.4 488.9L399.6 488.3L401.7 487.1L403.8 485.8L406 484.8L408.1 483.5L410.2 481.8L412.4 482.2L414.5 483L416.6 481.3L418.8 481L420.9 479.6L423 479.2L425.2 474.7L427.3 473.6L429.4 474.2L431.6 473.7L433.7 473L435.9 470.1L438 466.8L440.1 473.5L442.3 476.7L444.4 474.8L446.5 475.1L448.7 477.3L450.8 485.3L452.9 478.3L455.1 477.2L457.2 476.4L459.3 480.5L461.5 473.8L463.6 473.7L465.7 475.3L467.9 471L470 470.4L472.1 466.5L474.3 471.1L476.4 475.5L478.6 480.1L480.7 479.3L482.8 476.9L485 475.5L487.1 474.1L489.2 469.5L491.4 469.3L493.5 468.3L495.6 466.7L497.8 467.5L499.9 466.9L502 466.6L504.2 473.3L506.3 496L508.4 483.6L510.6 478.5L512.7 475L514.8 471.1L517 468.8L519.1 463.9L521.3 462.3L523.4 461.8L525.5 459L527.7 455L529.8 451.4L531.9 449.9L534.1 451L536.2 450.6L538.3 446L540.5 443.4L542.6 439.1L544.7 434.8L546.9 431.3L549 431L551.1 429.2L553.3 427.9L555.4 423.3L557.5 418L559.7 414.5L561.8 412.4L564 409.3L566.1 405L568.2 406.2L570.4 408.8L572.5 401.5L574.6 403.1L576.8 399.9L578.9 397.4L581 399L583.2 405.5L585.3 408.4L587.4 409.9L589.6 409.2L591.7 407.9L593.8 408.6L596 408L598.1 409.4L600.2 408.7L602.4 408.3L604.5 410.4L606.7 414.2L608.8 416.3L610.9 417.1L613.1 416L615.2 413.8L617.3 415.7L619.5 415.9L621.6 417.5L623.7 417.3L625.9 416L628 416.3L630.1 414.6L632.3 414.8L634.4 415.3L636.5 415.1L638.7 416.7L640.8 419L642.9 426.9L645.1 424.7L647.2 427.4L649.4 429.3L651.5 431.5L653.6 435.1L655.8 433.8L657.9 434L660 433.5L662.2 435.4L664.3 439.3L666.4 446.4L668.6 441.9L670.7 443.7L672.8 449.7"></path><path fill="none" stroke-linecap="butt" stroke-linejoin="round" stroke="#2C8465" id="line__European-Union-(27)" stroke-width="1.5" stroke-opacity="1" d="M196.7 513L198.9 513.1L201 512.3L203.1 513.1L205.3 512.8L207.4 513L209.5 513L211.7 512.9L213.8 513L215.9 513L218.1 512.8L220.2 512.9L222.4 512.9L224.5 512.9L226.6 512.9L228.8 512.8L230.9 512.7L233 512.6L235.2 512.6L237.3 512.6L239.4 512.6L241.6 512.6L243.7 512.5L245.8 512.5L248 512.5L250.1 512.4L252.2 512.4L254.4 512.3L256.5 512.3L258.6 512.3L260.8 511.8L262.9 512L265.1 512L267.2 511.9L269.3 511.8L271.5 511.7L273.6 511.6L275.7 511.4L277.9 511.3L280 511.3L282.1 511L284.3 510.9L286.4 510.7L288.5 510.8L290.7 510.7L292.8 510.4L294.9 510L297.1 509.8L299.2 510.2L301.3 510.1L303.5 509.8L305.6 509.6L307.8 509.2L309.9 508.8L312 508.2L314.2 507.7L316.3 507.4L318.4 507.2L320.6 506.9L322.7 507L324.8 506.6L327 506L329.1 505.4L331.2 505.2L333.4 504.6L335.5 503.9L337.6 503.7L339.8 503.1L341.9 502.6L344 502.3L346.2 502.3L348.3 501.6L350.5 500.4L352.6 499.6L354.7 501.4L356.9 499.7L359 499.2L361.1 499.6L363.3 499.2L365.4 498.5L367.5 496.4L369.7 496.4L371.8 495.6L373.9 494.5L376.1 494.5L378.2 494.4L380.3 494.4L382.5 493.7L384.6 492.4L386.7 491.4L388.9 490.3L391 489.5L393.2 490.1L395.3 489.9L397.4 488.9L399.6 488.3L401.7 487.1L403.8 485.8L406 484.8L408.1 483.5L410.2 481.8L412.4 482.2L414.5 483L416.6 481.3L418.8 481L420.9 479.6L423 479.2L425.2 474.7L427.3 473.6L429.4 474.2L431.6 473.7L433.7 473L435.9 470.1L438 466.8L440.1 473.5L442.3 476.7L444.4 474.8L446.5 475.1L448.7 477.3L450.8 485.3L452.9 478.3L455.1 477.2L457.2 476.4L459.3 480.5L461.5 473.8L463.6 473.7L465.7 475.3L467.9 471L470 470.4L472.1 466.5L474.3 471.1L476.4 475.5L478.6 480.1L480.7 479.3L482.8 476.9L485 475.5L487.1 474.1L489.2 469.5L491.4 469.3L493.5 468.3L495.6 466.7L497.8 467.5L499.9 466.9L502 466.6L504.2 473.3L506.3 496L508.4 483.6L510.6 478.5L512.7 475L514.8 471.1L517 468.8L519.1 463.9L521.3 462.3L523.4 461.8L525.5 459L527.7 455L529.8 451.4L531.9 449.9L534.1 451L536.2 450.6L538.3 446L540.5 443.4L542.6 439.1L544.7 434.8L546.9 431.3L549 431L551.1 429.2L553.3 427.9L555.4 423.3L557.5 418L559.7 414.5L561.8 412.4L564 409.3L566.1 405L568.2 406.2L570.4 408.8L572.5 401.5L574.6 403.1L576.8 399.9L578.9 397.4L581 399L583.2 405.5L585.3 408.4L587.4 409.9L589.6 409.2L591.7 407.9L593.8 408.6L596 408L598.1 409.4L600.2 408.7L602.4 408.3L604.5 410.4L606.7 414.2L608.8 416.3L610.9 417.1L613.1 416L615.2 413.8L617.3 415.7L619.5 415.9L621.6 417.5L623.7 417.3L625.9 416L628 416.3L630.1 414.6L632.3 414.8L634.4 415.3L636.5 415.1L638.7 416.7L640.8 419L642.9 426.9L645.1 424.7L647.2 427.4L649.4 429.3L651.5 431.5L653.6 435.1L655.8 433.8L657.9 434L660 433.5L662.2 435.4L664.3 439.3L666.4 446.4L668.6 441.9L670.7 443.7L672.8 449.7"></path><path fill="none" stroke-linecap="butt" stroke-linejoin="round" stroke="#ffffff" id="outline__Canada" stroke-width="2.5" d="M175.4 513L196.7 513L198.9 513L201 513L203.1 513L205.3 513L207.4 513L209.5 513L211.7 513L213.8 513L215.9 513L218.1 513L220.2 513L222.4 513L224.5 513L226.6 513L228.8 513L230.9 513L233 513L235.2 513L237.3 513L239.4 513L241.6 513L243.7 513L245.8 513L248 513.1L250.1 513.1L252.2 513.1L254.4 513.1L256.5 513.1L258.6 513.1L260.8 513.1L262.9 513.1L265.1 513.1L267.2 513.1L269.3 513.1L271.5 513.1L273.6 513.1L275.7 513.1L277.9 513.1L280 513.1L282.1 513.1L284.3 513.1L286.4 513.1L288.5 513.1L290.7 513.1L292.8 513.1L294.9 512.9L297.1 512.8L299.2 512.7L301.3 512.7L303.5 512.6L305.6 512.5L307.8 512.4L309.9 512.3L312 512.1L314.2 511.9L316.3 511.7L318.4 511.5L320.6 511.2L322.7 510.9L324.8 510.5L327 510L329.1 509.4L331.2 508.5L333.4 507.6L335.5 506.5L337.6 505.1L339.8 503L341.9 507.2L344 508.9L346.2 505.6L348.3 502.3L350.5 502.1L352.6 503.7L354.7 503.7L356.9 502.4L359 502.6L361.1 501.9L363.3 502.5L365.4 501.3L367.5 485.2L369.7 483.6L371.8 478.6L373.9 474.8L376.1 469.3L378.2 471.6L380.3 469.3L382.5 463.1L384.6 448.2L386.7 458.6L388.9 453.9L391 447.3L393.2 448.2L395.3 444.4L397.4 448.1L399.6 451.7L401.7 447.3L403.8 447.3L406 444L408.1 429.9L410.2 425L412.4 413.4L414.5 408.4L416.6 402L418.8 385.1L420.9 379.9L423 376.1L425.2 345.6L427.3 348.6L429.4 359.6L431.6 342.7L433.7 318.6L435.9 300.5L438 267.5L440.1 305.4L442.3 331.2L444.4 289.9L446.5 269.2L448.7 262.1L450.8 303.9L452.9 285.5L455.1 300L457.2 333.1L459.3 275.5L461.5 318.8L463.6 327.5L465.7 307.7L467.9 294L470 293.7L472.1 285.1L474.3 299.1L476.4 343.3L478.6 357.9L480.7 361.1L482.8 340.2L485 344.4L487.1 330.7L489.2 317.3L491.4 335.8L493.5 318.7L495.6 293.8L497.8 274.2L499.9 256.8L502 248L504.2 248.4L506.3 271.4L508.4 261.4L510.6 256.8L512.7 235.1L514.8 263.8L517 253.8L519.1 246L521.3 258.6L523.4 263.8L525.5 267.1L527.7 264L529.8 241.5L531.9 259.1L534.1 266.9L536.2 269.6L538.3 264.2L540.5 267.5L542.6 256L544.7 256L546.9 228.8L549 217.2L551.1 214.4L553.3 194L555.4 174.9L557.5 175.6L559.7 145.2L561.8 141.1L564 117L566.1 121.5L568.2 118.4L570.4 116.8L572.5 119.8L574.6 115.8L576.8 112.4L578.9 91.7L581 95.7L583.2 113.3L585.3 131.9L587.4 141.6L589.6 130.1L591.7 137L593.8 156.1L596 137.6L598.1 121.8L600.2 122L602.4 132L604.5 143.8L606.7 137.1L608.8 140.8L610.9 133.4L613.1 127.4L615.2 118.7L617.3 111.5L619.5 109.3L621.6 102.1L623.7 89.3L625.9 99.5L628 99.8L630.1 91.3L632.3 96.3L634.4 104.8L636.5 112.1L638.7 99.5L640.8 115.1L642.9 142.1L645.1 138L647.2 136.2L649.4 139.5L651.5 140.4L653.6 145.5L655.8 149.4L657.9 157.6L660 155.3L662.2 154.1L664.3 156.9L666.4 194.1L668.6 188.2L670.7 185.2L672.8 189.9"></path><path fill="none" stroke-linecap="butt" stroke-linejoin="round" stroke="#996D39" id="line__Canada" stroke-width="1.5" stroke-opacity="1" d="M175.4 513L196.7 513L198.9 513L201 513L203.1 513L205.3 513L207.4 513L209.5 513L211.7 513L213.8 513L215.9 513L218.1 513L220.2 513L222.4 513L224.5 513L226.6 513L228.8 513L230.9 513L233 513L235.2 513L237.3 513L239.4 513L241.6 513L243.7 513L245.8 513L248 513.1L250.1 513.1L252.2 513.1L254.4 513.1L256.5 513.1L258.6 513.1L260.8 513.1L262.9 513.1L265.1 513.1L267.2 513.1L269.3 513.1L271.5 513.1L273.6 513.1L275.7 513.1L277.9 513.1L280 513.1L282.1 513.1L284.3 513.1L286.4 513.1L288.5 513.1L290.7 513.1L292.8 513.1L294.9 512.9L297.1 512.8L299.2 512.7L301.3 512.7L303.5 512.6L305.6 512.5L307.8 512.4L309.9 512.3L312 512.1L314.2 511.9L316.3 511.7L318.4 511.5L320.6 511.2L322.7 510.9L324.8 510.5L327 510L329.1 509.4L331.2 508.5L333.4 507.6L335.5 506.5L337.6 505.1L339.8 503L341.9 507.2L344 508.9L346.2 505.6L348.3 502.3L350.5 502.1L352.6 503.7L354.7 503.7L356.9 502.4L359 502.6L361.1 501.9L363.3 502.5L365.4 501.3L367.5 485.2L369.7 483.6L371.8 478.6L373.9 474.8L376.1 469.3L378.2 471.6L380.3 469.3L382.5 463.1L384.6 448.2L386.7 458.6L388.9 453.9L391 447.3L393.2 448.2L395.3 444.4L397.4 448.1L399.6 451.7L401.7 447.3L403.8 447.3L406 444L408.1 429.9L410.2 425L412.4 413.4L414.5 408.4L416.6 402L418.8 385.1L420.9 379.9L423 376.1L425.2 345.6L427.3 348.6L429.4 359.6L431.6 342.7L433.7 318.6L435.9 300.5L438 267.5L440.1 305.4L442.3 331.2L444.4 289.9L446.5 269.2L448.7 262.1L450.8 303.9L452.9 285.5L455.1 300L457.2 333.1L459.3 275.5L461.5 318.8L463.6 327.5L465.7 307.7L467.9 294L470 293.7L472.1 285.1L474.3 299.1L476.4 343.3L478.6 357.9L480.7 361.1L482.8 340.2L485 344.4L487.1 330.7L489.2 317.3L491.4 335.8L493.5 318.7L495.6 293.8L497.8 274.2L499.9 256.8L502 248L504.2 248.4L506.3 271.4L508.4 261.4L510.6 256.8L512.7 235.1L514.8 263.8L517 253.8L519.1 246L521.3 258.6L523.4 263.8L525.5 267.1L527.7 264L529.8 241.5L531.9 259.1L534.1 266.9L536.2 269.6L538.3 264.2L540.5 267.5L542.6 256L544.7 256L546.9 228.8L549 217.2L551.1 214.4L553.3 194L555.4 174.9L557.5 175.6L559.7 145.2L561.8 141.1L564 117L566.1 121.5L568.2 118.4L570.4 116.8L572.5 119.8L574.6 115.8L576.8 112.4L578.9 91.7L581 95.7L583.2 113.3L585.3 131.9L587.4 141.6L589.6 130.1L591.7 137L593.8 156.1L596 137.6L598.1 121.8L600.2 122L602.4 132L604.5 143.8L606.7 137.1L608.8 140.8L610.9 133.4L613.1 127.4L615.2 118.7L617.3 111.5L619.5 109.3L621.6 102.1L623.7 89.3L625.9 99.5L628 99.8L630.1 91.3L632.3 96.3L634.4 104.8L636.5 112.1L638.7 99.5L640.8 115.1L642.9 142.1L645.1 138L647.2 136.2L649.4 139.5L651.5 140.4L653.6 145.5L655.8 149.4L657.9 157.6L660 155.3L662.2 154.1L664.3 156.9L666.4 194.1L668.6 188.2L670.7 185.2L672.8 189.9"></path><path fill="none" stroke-linecap="butt" stroke-linejoin="round" stroke="#ffffff" id="outline__World" stroke-width="2.5" d="M90 513L111.3 513L132.7 513L154 513L175.4 513L196.7 512.9L218.1 512.8L239.4 512.7L260.8 512.5L282.1 512.3L303.5 511.9L324.8 511.1L346.2 509.8L367.5 508.1L388.9 506.1L410.2 503.3L431.6 498.9L452.9 497.7L474.3 497.4L495.6 495.5L517 493.2L519.1 492L521.3 492.1L523.4 491.9L525.5 491.9L527.7 490.3L529.8 489.3L531.9 489L534.1 488.9L536.2 488.1L538.3 487L540.5 487.3L542.6 486.9L544.7 486.1L546.9 485.3L549 484.7L551.1 483.9L553.3 483.5L555.4 482.6L557.5 481.2L559.7 479.3L561.8 478.6L564 477.7L566.1 476.5L568.2 477.4L570.4 478L572.5 476.7L574.6 476.3L576.8 475.8L578.9 475.4L581 476.3L583.2 477.9L585.3 478.8L587.4 479.2L589.6 478.6L591.7 478.1L593.8 478.2L596 477.8L598.1 477.1L600.2 477.2L602.4 477.3L604.5 477.2L606.7 478.8L608.8 479L610.9 479.1L613.1 478.8L615.2 478.3L617.3 478.5L619.5 479.2L621.6 478.9L623.7 478.4L625.9 478.6L628 478.3L630.1 476.9L632.3 476.2L634.4 475.4L636.5 474.6L638.7 473.9L640.8 473.8L642.9 474.9L645.1 473.2L647.2 472.4L649.4 472.3L651.5 472.5L653.6 472.8L655.8 473.3L657.9 473.8L660 473.6L662.2 473.2L664.3 473.2L666.4 475.7L668.6 474.1L670.7 474.1L672.8 473.9"></path><path fill="none" stroke-linecap="butt" stroke-linejoin="round" stroke="#B13507" id="line__World" stroke-width="1.5" stroke-opacity="1" d="M90 513L111.3 513L132.7 513L154 513L175.4 513L196.7 512.9L218.1 512.8L239.4 512.7L260.8 512.5L282.1 512.3L303.5 511.9L324.8 511.1L346.2 509.8L367.5 508.1L388.9 506.1L410.2 503.3L431.6 498.9L452.9 497.7L474.3 497.4L495.6 495.5L517 493.2L519.1 492L521.3 492.1L523.4 491.9L525.5 491.9L527.7 490.3L529.8 489.3L531.9 489L534.1 488.9L536.2 488.1L538.3 487L540.5 487.3L542.6 486.9L544.7 486.1L546.9 485.3L549 484.7L551.1 483.9L553.3 483.5L555.4 482.6L557.5 481.2L559.7 479.3L561.8 478.6L564 477.7L566.1 476.5L568.2 477.4L570.4 478L572.5 476.7L574.6 476.3L576.8 475.8L578.9 475.4L581 476.3L583.2 477.9L585.3 478.8L587.4 479.2L589.6 478.6L591.7 478.1L593.8 478.2L596 477.8L598.1 477.1L600.2 477.2L602.4 477.3L604.5 477.2L606.7 478.8L608.8 479L610.9 479.1L613.1 478.8L615.2 478.3L617.3 478.5L619.5 479.2L621.6 478.9L623.7 478.4L625.9 478.6L628 478.3L630.1 476.9L632.3 476.2L634.4 475.4L636.5 474.6L638.7 473.9L640.8 473.8L642.9 474.9L645.1 473.2L647.2 472.4L649.4 472.3L651.5 472.5L653.6 472.8L655.8 473.3L657.9 473.8L660 473.6L662.2 473.2L664.3 473.2L666.4 475.7L668.6 474.1L670.7 474.1L672.8 473.9"></path><path fill="none" stroke-linecap="butt" stroke-linejoin="round" stroke="#ffffff" id="outline__United-Kingdom" stroke-width="2.5" d="M90 513L111.3 513L132.7 513L154 513L175.4 513L196.7 512.8L198.9 512.8L201 512.9L203.1 512.9L205.3 512.9L207.4 512.9L209.5 512.9L211.7 512.9L213.8 512.8L215.9 512.8L218.1 512.8L220.2 512.8L222.4 512.9L224.5 512.9L226.6 512.9L228.8 512.9L230.9 512.9L233 512.9L235.2 512.9L237.3 512.9L239.4 512.9L241.6 512.9L243.7 512.9L245.8 512.9L248 512.9L250.1 512.9L252.2 512.9L254.4 512.9L256.5 512.9L258.6 512.9L260.8 512.9L262.9 512.9L265.1 512.9L267.2 512.9L269.3 512.9L271.5 512.8L273.6 512.8L275.7 512.8L277.9 512.9L280 512.8L282.1 512.8L284.3 512.8L286.4 512.8L288.5 512.8L290.7 512.8L292.8 512.8L294.9 512.8L297.1 512.8L299.2 512.7L301.3 512.7L303.5 512.7L305.6 512.7L307.8 512.7L309.9 512.7L312 512.6L314.2 512.7L316.3 512.6L318.4 512.6L320.6 512.7L322.7 512.6L324.8 512.5L327 512.5L329.1 512.5L331.2 512.5L333.4 512.5L335.5 512.4L337.6 512.4L339.8 512.4L341.9 512.4L344 512.4L346.2 512.4L348.3 512.4L350.5 512.3L352.6 512.3L354.7 512.3L356.9 512.3L359 512.3L361.1 512.3L363.3 512.3L365.4 512.3L367.5 512.3L369.7 512.2L371.8 512.2L373.9 512.2L376.1 512.2L378.2 512.2L380.3 512.2L382.5 512.2L384.6 512.2L386.7 512.2L388.9 512.2L391 512.2L393.2 512.2L395.3 512.3L397.4 512.2L399.6 512.2L401.7 512.2L403.8 512.1L406 512.1L408.1 512.1L410.2 512.1L412.4 512.1L414.5 512.1L416.6 512.1L418.8 512.1L420.9 512.1L423 512.1L425.2 512L427.3 512.1L429.4 512.1L431.6 512.1L433.7 512L435.9 512.1L438 512L440.1 512L442.3 512L444.4 512L446.5 512L448.7 512.1L450.8 512.1L452.9 512.1L455.1 512.4L457.2 512.2L459.3 512.1L461.5 512.1L463.6 512.1L465.7 512.6L467.9 512.1L470 512.1L472.1 512.1L474.3 512.1L476.4 512.2L478.6 512.2L480.7 512.2L482.8 512.2L485 512.1L487.1 512.1L489.2 512.1L491.4 512.1L493.5 512.1L495.6 512.1L497.8 512.1L499.9 512.1L502 512.1L504.2 512.1L506.3 512.2L508.4 512.2L510.6 512.1L512.7 512.1L514.8 512.1L517 512.1L519.1 512L521.3 512.1L523.4 512L525.5 512L527.7 512L529.8 512L531.9 512L534.1 512L536.2 512.1L538.3 512L540.5 512L542.6 512L544.7 512L546.9 512L549 512L551.1 512L553.3 512L555.4 512L557.5 512L559.7 511.9L561.8 511.9L564 511.9L566.1 511.9L568.2 512L570.4 512L572.5 512L574.6 512L576.8 512L578.9 512L581 512.1L583.2 512.1L585.3 512.1L587.4 512.1L589.6 512.2L591.7 512.1L593.8 512.1L596 512.1L598.1 512.1L600.2 512.1L602.4 512.1L604.5 512L606.7 512.1L608.8 512.1L610.9 512.1L613.1 512.1L615.2 512.1L617.3 512.1L619.5 512.1L621.6 512.2L623.7 512.1L625.9 512.1L628 512.2L630.1 512.2L632.3 512.2L634.4 512.2L636.5 512.2L638.7 512.2L640.8 512.2L642.9 512.3L645.1 512.3L647.2 512.4L649.4 512.4L651.5 512.4L653.6 512.4L655.8 512.5L657.9 512.5L660 512.5L662.2 512.6L664.3 512.6L666.4 512.6L668.6 512.6L670.7 512.7L672.8 512.7"></path><path fill="none" stroke-linecap="butt" stroke-linejoin="round" stroke="#4C6A9C" id="line__United-Kingdom" stroke-width="1.5" stroke-opacity="1" d="M90 513L111.3 513L132.7 513L154 513L175.4 513L196.7 512.8L198.9 512.8L201 512.9L203.1 512.9L205.3 512.9L207.4 512.9L209.5 512.9L211.7 512.9L213.8 512.8L215.9 512.8L218.1 512.8L220.2 512.8L222.4 512.9L224.5 512.9L226.6 512.9L228.8 512.9L230.9 512.9L233 512.9L235.2 512.9L237.3 512.9L239.4 512.9L241.6 512.9L243.7 512.9L245.8 512.9L248 512.9L250.1 512.9L252.2 512.9L254.4 512.9L256.5 512.9L258.6 512.9L260.8 512.9L262.9 512.9L265.1 512.9L267.2 512.9L269.3 512.9L271.5 512.8L273.6 512.8L275.7 512.8L277.9 512.9L280 512.8L282.1 512.8L284.3 512.8L286.4 512.8L288.5 512.8L290.7 512.8L292.8 512.8L294.9 512.8L297.1 512.8L299.2 512.7L301.3 512.7L303.5 512.7L305.6 512.7L307.8 512.7L309.9 512.7L312 512.6L314.2 512.7L316.3 512.6L318.4 512.6L320.6 512.7L322.7 512.6L324.8 512.5L327 512.5L329.1 512.5L331.2 512.5L333.4 512.5L335.5 512.4L337.6 512.4L339.8 512.4L341.9 512.4L344 512.4L346.2 512.4L348.3 512.4L350.5 512.3L352.6 512.3L354.7 512.3L356.9 512.3L359 512.3L361.1 512.3L363.3 512.3L365.4 512.3L367.5 512.3L369.7 512.2L371.8 512.2L373.9 512.2L376.1 512.2L378.2 512.2L380.3 512.2L382.5 512.2L384.6 512.2L386.7 512.2L388.9 512.2L391 512.2L393.2 512.2L395.3 512.3L397.4 512.2L399.6 512.2L401.7 512.2L403.8 512.1L406 512.1L408.1 512.1L410.2 512.1L412.4 512.1L414.5 512.1L416.6 512.1L418.8 512.1L420.9 512.1L423 512.1L425.2 512L427.3 512.1L429.4 512.1L431.6 512.1L433.7 512L435.9 512.1L438 512L440.1 512L442.3 512L444.4 512L446.5 512L448.7 512.1L450.8 512.1L452.9 512.1L455.1 512.4L457.2 512.2L459.3 512.1L461.5 512.1L463.6 512.1L465.7 512.6L467.9 512.1L470 512.1L472.1 512.1L474.3 512.1L476.4 512.2L478.6 512.2L480.7 512.2L482.8 512.2L485 512.1L487.1 512.1L489.2 512.1L491.4 512.1L493.5 512.1L495.6 512.1L497.8 512.1L499.9 512.1L502 512.1L504.2 512.1L506.3 512.2L508.4 512.2L510.6 512.1L512.7 512.1L514.8 512.1L517 512.1L519.1 512L521.3 512.1L523.4 512L525.5 512L527.7 512L529.8 512L531.9 512L534.1 512L536.2 512.1L538.3 512L540.5 512L542.6 512L544.7 512L546.9 512L549 512L551.1 512L553.3 512L555.4 512L557.5 512L559.7 511.9L561.8 511.9L564 511.9L566.1 511.9L568.2 512L570.4 512L572.5 512L574.6 512L576.8 512L578.9 512L581 512.1L583.2 512.1L585.3 512.1L587.4 512.1L589.6 512.2L591.7 512.1L593.8 512.1L596 512.1L598.1 512.1L600.2 512.1L602.4 512.1L604.5 512L606.7 512.1L608.8 512.1L610.9 512.1L613.1 512.1L615.2 512.1L617.3 512.1L619.5 512.1L621.6 512.2L623.7 512.1L625.9 512.1L628 512.2L630.1 512.2L632.3 512.2L634.4 512.2L636.5 512.2L638.7 512.2L640.8 512.2L642.9 512.3L645.1 512.3L647.2 512.4L649.4 512.4L651.5 512.4L653.6 512.4L655.8 512.5L657.9 512.5L660 512.5L662.2 512.6L664.3 512.6L666.4 512.6L668.6 512.6L670.7 512.7L672.8 512.7"></path></g></g><g id="footer" class="SourcesFooter" style="fill:#5b5b5b"><g id="sources" class="markdown-text-wrap"><text x="16.0" y="562.7" style="font-size:13.5px;line-height:1.2"><tspan x="16" y="562.7"><tspan style="font-weight:700">Data source:</tspan> Global Carbon Budget (2024); Population based on various sources (2024)</tspan></text></g><text id="origin-url" font-size="13.50" x="16.0" y="580.9"><tspan x="16" y="580.8950000000001"><a target="_blank" style="fill: #5b5b5b;" href="https://ourworldindata.org/co2-and-greenhouse-gas-emissions">OurWorldinData.org/co2-and-greenhouse-gas-emissions</a> | <a target="_blank" style="fill: #5b5b5b;" href="https://creativecommons.org/licenses/by/4.0/">CC BY</a></tspan></text></g></svg>