<svg xmlns="http://www.w3.org/2000/svg" version="1.1" style="font-family:Lato, &#x27;Helvetica Neue&#x27;, Helvetica, Arial, &#x27;Liberation Sans&#x27;, sans-serif;font-size:18px;background-color:#ffffff;text-rendering:geometricPrecision;-webkit-font-smoothing:antialiased" width="850" height="600" viewBox="0 0 850 600"><defs><style>@import url(https://ourworldindata.org/fonts.css)</style></defs><defs><pattern id="noDataPattern" patternUnits="userSpaceOnUse" width="4" height="4" patternTransform="rotate(-45 2 2)"><path d="M -1,2 l 6,0" stroke="#ccc" stroke-width="0.7"></path></pattern></defs><rect class="background-fill" fill="#ffffff" width="850" height="600"></rect><g id="header" class="HeaderView"><g id="logo" transform="translate(769, 16) scale(1)"><svg className="owidLogo" xmlns="http://www.w3.org/2000/svg" width="65" height="36" viewBox="0 0 65 36"  fill="none"><path fill="#002147" d="M0 0h64.8v36H0z"/><path fill="#CE261E" d="M0 33.3h64.8V36H0z"/><path fill="#fff" d="M13.796 10.575c0 .636-.106 1.226-.318 1.77a4.193 4.193 0 0 1-.894 1.404 4.084 4.084 0 0 1-1.386.93c-.54.22-1.138.33-1.794.33-.656 0-1.256-.11-1.8-.33a4.149 4.149 0 0 1-1.392-.93 4.193 4.193 0 0 1-.894-1.404A4.833 4.833 0 0 1 5 10.575c0-.636.106-1.224.318-1.764a4.18 4.18 0 0 1 .894-1.41 4.076 4.076 0 0 1 1.392-.924 4.684 4.684 0 0 1 1.8-.336c.656 0 1.254.112 1.794.336.54.224 1.002.534 1.386.93.384.392.682.86.894 1.404.212.54.318 1.128.318 1.764Zm-1.656 0c0-.476-.064-.902-.192-1.278a2.671 2.671 0 0 0-.54-.966 2.332 2.332 0 0 0-.864-.606 2.94 2.94 0 0 0-1.14-.21c-.424 0-.806.07-1.146.21-.34.14-.63.342-.87.606a2.742 2.742 0 0 0-.546.966 3.955 3.955 0 0 0-.192 1.278c0 .476.064.904.192 1.284.128.376.31.696.546.96.24.26.53.46.87.6.34.14.722.21 1.146.21.424 0 .804-.07 1.14-.21.34-.14.628-.34.864-.6.236-.264.416-.584.54-.96a4.01 4.01 0 0 0 .192-1.284ZM16.104 8.757v3.912c0 .376.086.668.258.876.176.204.438.306.786.306.256 0 .496-.056.72-.168a2.58 2.58 0 0 0 .636-.474V8.757h1.482v6.156h-.906c-.192 0-.318-.09-.378-.27l-.102-.492a4.65 4.65 0 0 1-.396.354 2.577 2.577 0 0 1-.438.27 2.35 2.35 0 0 1-.498.168 2.345 2.345 0 0 1-.57.066c-.336 0-.634-.056-.894-.168a1.821 1.821 0 0 1-.648-.486 2.157 2.157 0 0 1-.402-.738 3.233 3.233 0 0 1-.132-.948V8.757h1.482ZM21.328 14.913V8.757h.87c.152 0 .258.028.318.084.06.056.1.152.12.288l.09.744c.22-.38.478-.68.774-.9.296-.22.628-.33.996-.33.304 0 .556.07.756.21l-.192 1.11c-.012.072-.038.124-.078.156a.278.278 0 0 1-.162.042 1.01 1.01 0 0 1-.246-.042 1.646 1.646 0 0 0-.414-.042c-.308 0-.572.086-.792.258-.22.168-.406.416-.558.744v3.834h-1.482ZM27.347 6.237h1.356a.57.57 0 0 1 .348.102c.096.064.16.152.192.264l1.476 5.19c.036.128.068.268.096.42.032.148.062.306.09.474a5.968 5.968 0 0 1 .228-.894l1.704-5.19a.575.575 0 0 1 .186-.252.543.543 0 0 1 .348-.114h.474a.57.57 0 0 1 .348.102.497.497 0 0 1 .192.264l1.692 5.19c.088.256.164.54.228.852.028-.156.056-.306.084-.45.032-.144.064-.278.096-.402l1.476-5.19c.028-.1.09-.186.186-.258a.563.563 0 0 1 .348-.108h1.266l-2.694 8.676h-1.458l-1.896-5.928-.078-.246a9.504 9.504 0 0 1-.072-.282c-.024.1-.05.194-.078.282-.024.088-.048.17-.072.246l-1.914 5.928H30.04l-2.694-8.676ZM42.771 8.661c.46 0 .876.074 1.248.222.376.148.696.358.96.63s.468.604.612.996c.144.392.216.83.216 1.314 0 .488-.072.928-.216 1.32a2.85 2.85 0 0 1-.612 1.002 2.653 2.653 0 0 1-.96.636 3.35 3.35 0 0 1-1.248.222c-.46 0-.878-.074-1.254-.222a2.712 2.712 0 0 1-.966-.636 2.922 2.922 0 0 1-.618-1.002 3.807 3.807 0 0 1-.216-1.32c0-.484.072-.922.216-1.314.148-.392.354-.724.618-.996.268-.272.59-.482.966-.63a3.397 3.397 0 0 1 1.254-.222Zm0 5.202c.512 0 .89-.172 1.134-.516.248-.344.372-.848.372-1.512s-.124-1.17-.372-1.518c-.244-.348-.622-.522-1.134-.522-.52 0-.904.176-1.152.528-.248.348-.372.852-.372 1.512s.124 1.164.372 1.512c.248.344.632.516 1.152.516ZM46.723 14.913V8.757h.87c.152 0 .258.028.318.084.06.056.1.152.12.288l.09.744c.22-.38.478-.68.774-.9.296-.22.628-.33.996-.33.304 0 .556.07.756.21l-.192 1.11c-.012.072-.038.124-.078.156a.278.278 0 0 1-.162.042 1.01 1.01 0 0 1-.246-.042 1.646 1.646 0 0 0-.414-.042c-.308 0-.572.086-.792.258-.22.168-.406.416-.558.744v3.834h-1.482ZM52.96 5.997v8.916h-1.482V5.997h1.482ZM58.732 14.913c-.192 0-.318-.09-.378-.27l-.12-.594a3.68 3.68 0 0 1-.402.39c-.14.116-.292.216-.456.3-.16.084-.334.148-.522.192a2.372 2.372 0 0 1-.6.072c-.336 0-.644-.07-.924-.21a2.098 2.098 0 0 1-.726-.606 3.033 3.033 0 0 1-.468-.99 5.072 5.072 0 0 1-.162-1.344c0-.456.062-.88.186-1.272s.302-.732.534-1.02c.232-.288.51-.512.834-.672a2.384 2.384 0 0 1 1.092-.246 2.103 2.103 0 0 1 1.536.606V5.997h1.482v8.916h-.906Zm-1.974-1.086c.308 0 .57-.064.786-.192.216-.128.42-.31.612-.546v-2.76a1.452 1.452 0 0 0-.552-.432 1.597 1.597 0 0 0-.636-.126c-.224 0-.428.042-.612.126a1.21 1.21 0 0 0-.462.384c-.124.168-.22.384-.288.648-.068.26-.102.568-.102.924 0 .36.028.666.084.918.06.248.144.452.252.612.108.156.24.27.396.342.156.068.33.102.522.102ZM16.331 20.757v6.156H14.85v-6.156h1.481Zm.223-1.794a.844.844 0 0 1-.078.36.963.963 0 0 1-.21.294.995.995 0 0 1-.3.204.963.963 0 0 1-.372.072.948.948 0 0 1-.367-.072 1.018 1.018 0 0 1-.498-.498.963.963 0 0 1 0-.732.995.995 0 0 1 .205-.3.929.929 0 0 1 .293-.198.899.899 0 0 1 .738 0 .912.912 0 0 1 .3.198.943.943 0 0 1 .288.672ZM17.771 26.913v-6.156h.906c.192 0 .318.09.378.27l.102.486a2.934 2.934 0 0 1 .828-.618c.156-.076.322-.134.498-.174.176-.04.368-.06.576-.06.336 0 .634.058.894.174.26.112.476.272.648.48.176.204.308.45.396.738.092.284.138.598.138.942v3.918h-1.482v-3.918c0-.376-.088-.666-.264-.87-.172-.208-.432-.312-.78-.312-.256 0-.496.058-.72.174a2.58 2.58 0 0 0-.636.474v4.452h-1.482ZM34.22 22.575c0 .636-.106 1.22-.318 1.752-.212.532-.51.99-.894 1.374a4 4 0 0 1-1.386.894 4.87 4.87 0 0 1-1.794.318h-3.312v-8.676h3.312a4.79 4.79 0 0 1 1.794.324 4 4 0 0 1 1.386.894c.384.38.682.836.894 1.368.212.532.318 1.116.318 1.752Zm-1.65 0c0-.476-.064-.902-.192-1.278a2.68 2.68 0 0 0-.546-.96 2.332 2.332 0 0 0-.864-.606 2.94 2.94 0 0 0-1.14-.21h-1.686v6.108h1.686c.424 0 .804-.07 1.14-.21.34-.14.628-.34.864-.6a2.75 2.75 0 0 0 .546-.96 4.01 4.01 0 0 0 .192-1.284ZM39.98 26.913h-.665c-.14 0-.25-.02-.33-.06-.08-.044-.14-.13-.18-.258l-.132-.438c-.156.14-.31.264-.462.372a2.804 2.804 0 0 1-.462.264c-.16.072-.33.126-.51.162-.18.036-.38.054-.6.054-.26 0-.5-.034-.72-.102a1.618 1.618 0 0 1-.57-.318 1.448 1.448 0 0 1-.366-.522 1.852 1.852 0 0 1-.132-.726c0-.232.06-.46.18-.684.124-.228.328-.432.612-.612.284-.184.662-.336 1.134-.456.472-.12 1.058-.188 1.758-.204v-.36c0-.412-.088-.716-.264-.912-.172-.2-.424-.3-.756-.3a1.837 1.837 0 0 0-1.02.276c-.116.068-.224.13-.324.186a.664.664 0 0 1-.33.084.429.429 0 0 1-.258-.078.614.614 0 0 1-.174-.192l-.27-.474c.708-.648 1.562-.972 2.562-.972.36 0 .68.06.96.18.284.116.524.28.72.492.196.208.344.458.444.75.104.292.156.612.156.96v3.888Zm-2.88-.924c.153 0 .293-.014.42-.042.129-.028.249-.07.36-.126.117-.056.227-.124.33-.204.109-.084.217-.182.325-.294v-1.038c-.432.02-.794.058-1.086.114-.288.052-.52.12-.696.204a.923.923 0 0 0-.378.294.664.664 0 0 0-.108.366c0 .26.076.446.228.558.156.112.358.168.606.168ZM43.22 27.01c-.532 0-.942-.15-1.23-.45-.288-.305-.432-.723-.432-1.255v-3.438h-.624a.31.31 0 0 1-.21-.078c-.056-.052-.084-.13-.084-.234v-.588l.99-.162.312-1.68a.302.302 0 0 1 .108-.186.365.365 0 0 1 .222-.066h.768v1.938h1.62v1.056h-1.62v3.336c0 .192.048.342.144.45a.488.488 0 0 0 .384.162c.092 0 .168-.01.228-.03.064-.024.118-.048.162-.072.048-.024.09-.046.126-.066a.194.194 0 0 1 .108-.036.16.16 0 0 1 .108.036c.028.02.058.052.09.096l.444.72c-.216.18-.464.316-.744.408a2.77 2.77 0 0 1-.87.138ZM50.423 26.913h-.666c-.14 0-.25-.02-.33-.06-.08-.044-.14-.13-.18-.258l-.132-.438c-.156.14-.31.264-.462.372a2.804 2.804 0 0 1-.462.264c-.16.072-.33.126-.51.162-.18.036-.38.054-.6.054-.26 0-.5-.034-.72-.102a1.618 1.618 0 0 1-.57-.318 1.448 1.448 0 0 1-.366-.522 1.852 1.852 0 0 1-.132-.726c0-.232.06-.46.18-.684.124-.228.328-.432.612-.612.284-.184.662-.336 1.134-.456.472-.12 1.058-.188 1.758-.204v-.36c0-.412-.088-.716-.264-.912-.172-.2-.424-.3-.756-.3a1.837 1.837 0 0 0-1.02.276c-.116.068-.224.13-.324.186a.664.664 0 0 1-.33.084.429.429 0 0 1-.258-.078.614.614 0 0 1-.174-.192l-.27-.474c.708-.648 1.562-.972 2.562-.972.36 0 .68.06.96.18.284.116.524.28.72.492.196.208.344.458.444.75.104.292.156.612.156.96v3.888Zm-2.88-.924c.152 0 .292-.014.42-.042.128-.028.248-.07.36-.126.116-.056.226-.124.33-.204.108-.084.216-.182.324-.294v-1.038c-.432.02-.794.058-1.086.114-.288.052-.52.12-.696.204a.923.923 0 0 0-.378.294.664.664 0 0 0-.108.366c0 .26.076.446.228.558.156.112.358.168.606.168Z"/></svg></g><a id="title" href="https://ourworldindata.org/grapher/gdp-per-capita-maddison?tab=chart&amp;facet=none&amp;uniformYAxis=0" style="font-family:&#x27;Playfair Display&#x27;, Georgia, &#x27;Times New Roman&#x27;, &#x27;Liberation Serif&#x27;, serif" target="_blank" rel="noopener"><text font-size="24.75" font-weight="600" x="16.0" y="40.0" fill="#5b5b5b"><tspan x="16" y="40.0075">GDP per capita, 1820 to 2022</tspan></text></a><g id="subtitle" class="markdown-text-wrap"><text x="16.0" y="63.9" style="font-size:14.625px;line-height:1.2" fill="#5b5b5b"><tspan x="16" y="63.9">This data is adjusted for inflation and for differences in the cost of living between countries.</tspan></text></g></g><g id="chart-area" style="pointer-events:none"><g id="horizontal-axis" class="HorizontalAxis"><g id="tick-marks"><line id="1820" x1="70.1" y1="512.6" x2="70.1" y2="518.1" stroke="#999" stroke-width="1"></line><line id="2022" x1="577.5" y1="512.6" x2="577.5" y2="518.1" stroke="#999" stroke-width="1"></line><line id="1850" x1="145.5" y1="512.6" x2="145.5" y2="518.1" stroke="#999" stroke-width="1"></line><line id="1900" x1="271.1" y1="512.6" x2="271.1" y2="518.1" stroke="#999" stroke-width="1"></line><line id="1950" x1="396.7" y1="512.6" x2="396.7" y2="518.1" stroke="#999" stroke-width="1"></line><line id="2000" x1="522.3" y1="512.6" x2="522.3" y2="518.1" stroke="#999" stroke-width="1"></line></g><g id="tick-labels"><text x="70.14" y="531.6" fill="#5b5b5b" text-anchor="start" font-size="13.5">1820</text><text x="577.525" y="531.6" fill="#5b5b5b" text-anchor="end" font-size="13.5">2022</text><text x="145.5" y="531.6" fill="#5b5b5b" text-anchor="middle" font-size="13.5">1850</text><text x="271.1" y="531.6" fill="#5b5b5b" text-anchor="middle" font-size="13.5">1900</text><text x="396.7" y="531.6" fill="#5b5b5b" text-anchor="middle" font-size="13.5">1950</text><text x="522.3" y="531.6" fill="#5b5b5b" text-anchor="middle" font-size="13.5">2000</text></g></g><g id="vertical-axis" class="VerticalAxis"><g id="tick-labels"><text x="65.14" y="513.1" dy=".32em" text-anchor="end" fill="#5b5b5b" font-size="13.5">$0</text><text x="65.14" y="442.5" dy=".32em" text-anchor="end" fill="#5b5b5b" font-size="13.5">$10,000</text><text x="65.14" y="371.8" dy=".32em" text-anchor="end" fill="#5b5b5b" font-size="13.5">$20,000</text><text x="65.14" y="301.2" dy=".32em" text-anchor="end" fill="#5b5b5b" font-size="13.5">$30,000</text><text x="65.14" y="230.5" dy=".32em" text-anchor="end" fill="#5b5b5b" font-size="13.5">$40,000</text><text x="65.14" y="159.9" dy=".32em" text-anchor="end" fill="#5b5b5b" font-size="13.5">$50,000</text><text x="65.14" y="89.3" dy=".32em" text-anchor="end" fill="#5b5b5b" font-size="13.5">$60,000</text></g></g><g id="horizontal-grid-lines" class="AxisGridLines horizontalLines"><line id="$0" x1="70.14" y1="513.1" x2="577.52" y2="513.1" stroke="#999" stroke-width="1"></line><line id="$10,000" x1="70.14" y1="442.5" x2="577.52" y2="442.5" stroke="#ddd" stroke-width="1" stroke-dasharray="3,2"></line><line id="$20,000" x1="70.14" y1="371.8" x2="577.52" y2="371.8" stroke="#ddd" stroke-width="1" stroke-dasharray="3,2"></line><line id="$30,000" x1="70.14" y1="301.2" x2="577.52" y2="301.2" stroke="#ddd" stroke-width="1" stroke-dasharray="3,2"></line><line id="$40,000" x1="70.14" y1="230.5" x2="577.52" y2="230.5" stroke="#ddd" stroke-width="1" stroke-dasharray="3,2"></line><line id="$50,000" x1="70.14" y1="159.9" x2="577.52" y2="159.9" stroke="#ddd" stroke-width="1" stroke-dasharray="3,2"></line><line id="$60,000" x1="70.14" y1="89.3" x2="577.52" y2="89.3" stroke="#ddd" stroke-width="1" stroke-dasharray="3,2"></line></g><g id="line-labels" class="LineLabels"><g id="connectors"><path id="Western-offshoots-(MPD)" d="M581.525,113.5 H590.025 V132.225 H598.525" stroke="#999" stroke-width="0.5" fill="none"></path><path id="Western-Europe-(MPD)" d="M581.525,221.2 H590.025 V221.2 H598.525" stroke="#999" stroke-width="0.5" fill="none"></path><path id="East-Asia-(MPD)" d="M581.525,359.6 H590.025 V344.05999999999995 H598.525" stroke="#999" stroke-width="0.5" fill="none"></path><path id="Eastern-Europe-(MPD)" d="M581.525,367.2 H594.275 V362.90999999999997 H598.525" stroke="#999" stroke-width="0.5" fill="none"></path><path id="Middle-East-and-North-Africa-(MPD)" d="M581.525,372.7 H594.275 V381.76 H598.525" stroke="#999" stroke-width="0.5" fill="none"></path><path id="World" d="M581.525,395.3 H590.025 V400.61 H598.525" stroke="#999" stroke-width="0.5" fill="none"></path><path id="Latin-America-(MPD)" d="M581.525,414 H585.775 V419.46000000000004 H598.525" stroke="#999" stroke-width="0.5" fill="none"></path><path id="South-and-South-East-Asia-(MPD)" d="M581.525,453.9 H590.025 V453.9 H598.525" stroke="#999" stroke-width="0.5" fill="none"></path><path id="Sub-Saharan-Africa-(MPD)" d="M581.525,488.8 H590.025 V488.8 H598.525" stroke="#999" stroke-width="0.5" fill="none"></path></g><g id="text-annotations"><text font-size="12.15" x="602.5" y="132.5" fill="#333" opacity="1" text-anchor="start" style="font-weight:300"><tspan x="602.525" y="132.49550000000002">United States, Canada,</tspan><tspan x="602.525" y="144.64550000000003">Australia and New</tspan><tspan x="602.525" y="156.79550000000003">Zealand</tspan></text></g><g id="text-labels"><text font-size="13.50" font-weight="400" x="602.5" y="118.5" fill="#a2559c" opacity="1" text-anchor="start"><tspan x="602.525" y="118.495">Western offshoots (MPD)</tspan></text><text font-size="13.50" font-weight="400" x="602.5" y="226.2" fill="#00295b" opacity="1" text-anchor="start"><tspan x="602.525" y="226.195">Western Europe (MPD)</tspan></text><text font-size="13.50" font-weight="400" x="602.5" y="349.1" fill="#4c6a9c" opacity="1" text-anchor="start"><tspan x="602.525" y="349.05499999999995">East Asia (MPD)</tspan></text><text font-size="13.50" font-weight="400" x="602.5" y="367.9" fill="#b13507" opacity="1" text-anchor="start"><tspan x="602.525" y="367.905">Eastern Europe (MPD)</tspan></text><text font-size="13.50" font-weight="400" x="602.5" y="386.8" fill="#2c8465" opacity="1" text-anchor="start"><tspan x="602.525" y="386.755">Middle East and North Africa (MPD)</tspan></text><text font-size="13.50" font-weight="400" x="602.5" y="405.6" fill="#9a5129" opacity="1" text-anchor="start"><tspan x="602.525" y="405.605">World</tspan></text><text font-size="13.50" font-weight="400" x="602.5" y="424.5" fill="#996d39" opacity="1" text-anchor="start"><tspan x="602.525" y="424.45500000000004">Latin America (MPD)</tspan></text><text font-size="13.50" font-weight="400" x="602.5" y="458.9" fill="#6d3e91" opacity="1" text-anchor="start"><tspan x="602.525" y="458.895">South and South East Asia (MPD)</tspan></text><text font-size="13.50" font-weight="400" x="602.5" y="493.8" fill="#883039" opacity="1" text-anchor="start"><tspan x="602.525" y="493.795">Sub Saharan Africa (MPD)</tspan></text></g></g><g id="lines"><path fill="none" stroke-linecap="butt" stroke-linejoin="round" stroke="#ffffff" id="outline__World" stroke-width="2.5" d="M70.1 505.1L145.5 503.9L195.7 502.2L271.1 497.1L321.3 495.5L371.6 489L396.7 489.4L421.8 482L446.9 470.9L472 462L497.1 455.1L522.3 443.1L547.4 420.4L559.9 409.2L562.5 406.9L565 404.2L567.5 401.4L570 399.4L572.5 403.9L575 398.1L577.5 395.3"></path><path fill="none" stroke-linecap="butt" stroke-linejoin="round" stroke="#9a5129" id="line__World" stroke-width="1.5" stroke-opacity="1" d="M70.1 505.1L145.5 503.9L195.7 502.2L271.1 497.1L321.3 495.5L371.6 489L396.7 489.4L421.8 482L446.9 470.9L472 462L497.1 455.1L522.3 443.1L547.4 420.4L559.9 409.2L562.5 406.9L565 404.2L567.5 401.4L570 399.4L572.5 403.9L575 398.1L577.5 395.3"></path><g id="markers__World"><circle id="1820" cx="70.1" cy="505.1" r="1.8" fill="#9a5129" opacity="1"></circle><circle id="1850" cx="145.5" cy="503.9" r="1.8" fill="#9a5129" opacity="1"></circle><circle id="1870" cx="195.7" cy="502.2" r="1.8" fill="#9a5129" opacity="1"></circle><circle id="1900" cx="271.1" cy="497.1" r="1.8" fill="#9a5129" opacity="1"></circle><circle id="1920" cx="321.3" cy="495.5" r="1.8" fill="#9a5129" opacity="1"></circle><circle id="1940" cx="371.6" cy="489" r="1.8" fill="#9a5129" opacity="1"></circle><circle id="1950" cx="396.7" cy="489.4" r="1.8" fill="#9a5129" opacity="1"></circle><circle id="1960" cx="421.8" cy="482" r="1.8" fill="#9a5129" opacity="1"></circle><circle id="1970" cx="446.9" cy="470.9" r="1.8" fill="#9a5129" opacity="1"></circle><circle id="1980" cx="472" cy="462" r="1.8" fill="#9a5129" opacity="1"></circle><circle id="1990" cx="497.1" cy="455.1" r="1.8" fill="#9a5129" opacity="1"></circle><circle id="2000" cx="522.3" cy="443.1" r="1.8" fill="#9a5129" opacity="1"></circle><circle id="2010" cx="547.4" cy="420.4" r="1.8" fill="#9a5129" opacity="1"></circle><circle id="2015" cx="559.9" cy="409.2" r="1.8" fill="#9a5129" opacity="1"></circle><circle id="2016" cx="562.5" cy="406.9" r="1.8" fill="#9a5129" opacity="1"></circle><circle id="2017" cx="565" cy="404.2" r="1.8" fill="#9a5129" opacity="1"></circle><circle id="2018" cx="567.5" cy="401.4" r="1.8" fill="#9a5129" opacity="1"></circle><circle id="2019" cx="570" cy="399.4" r="1.8" fill="#9a5129" opacity="1"></circle><circle id="2020" cx="572.5" cy="403.9" r="1.8" fill="#9a5129" opacity="1"></circle><circle id="2021" cx="575" cy="398.1" r="1.8" fill="#9a5129" opacity="1"></circle><circle id="2022" cx="577.5" cy="395.3" r="1.8" fill="#9a5129" opacity="1"></circle></g><path fill="none" stroke-linecap="butt" stroke-linejoin="round" stroke="#ffffff" id="outline__Western-offshoots-(MPD)" stroke-width="2.5" d="M70.1 495.3L95.3 492.7L120.4 490.7L145.5 488.6L170.6 483.3L195.7 480.3L220.8 470.6L246 467.3L271.1 458.4L296.2 447L321.3 444.3L346.4 440.4L371.6 431L396.7 408.7L421.8 389.7L446.9 349.1L472 309.7L497.1 261.5L522.3 200L547.4 173.4L559.9 149.6L562.5 146.5L565 140.9L567.5 132.6L570 126.5L572.5 141.4L575 120.5L577.5 113.5"></path><path fill="none" stroke-linecap="butt" stroke-linejoin="round" stroke="#a2559c" id="line__Western-offshoots-(MPD)" stroke-width="1.5" stroke-opacity="1" d="M70.1 495.3L95.3 492.7L120.4 490.7L145.5 488.6L170.6 483.3L195.7 480.3L220.8 470.6L246 467.3L271.1 458.4L296.2 447L321.3 444.3L346.4 440.4L371.6 431L396.7 408.7L421.8 389.7L446.9 349.1L472 309.7L497.1 261.5L522.3 200L547.4 173.4L559.9 149.6L562.5 146.5L565 140.9L567.5 132.6L570 126.5L572.5 141.4L575 120.5L577.5 113.5"></path><g id="markers__Western-offshoots-(MPD)"><circle id="1820" cx="70.1" cy="495.3" r="1.8" fill="#a2559c" opacity="1"></circle><circle id="1830" cx="95.3" cy="492.7" r="1.8" fill="#a2559c" opacity="1"></circle><circle id="1840" cx="120.4" cy="490.7" r="1.8" fill="#a2559c" opacity="1"></circle><circle id="1850" cx="145.5" cy="488.6" r="1.8" fill="#a2559c" opacity="1"></circle><circle id="1860" cx="170.6" cy="483.3" r="1.8" fill="#a2559c" opacity="1"></circle><circle id="1870" cx="195.7" cy="480.3" r="1.8" fill="#a2559c" opacity="1"></circle><circle id="1880" cx="220.8" cy="470.6" r="1.8" fill="#a2559c" opacity="1"></circle><circle id="1890" cx="246" cy="467.3" r="1.8" fill="#a2559c" opacity="1"></circle><circle id="1900" cx="271.1" cy="458.4" r="1.8" fill="#a2559c" opacity="1"></circle><circle id="1910" cx="296.2" cy="447" r="1.8" fill="#a2559c" opacity="1"></circle><circle id="1920" cx="321.3" cy="444.3" r="1.8" fill="#a2559c" opacity="1"></circle><circle id="1930" cx="346.4" cy="440.4" r="1.8" fill="#a2559c" opacity="1"></circle><circle id="1940" cx="371.6" cy="431" r="1.8" fill="#a2559c" opacity="1"></circle><circle id="1950" cx="396.7" cy="408.7" r="1.8" fill="#a2559c" opacity="1"></circle><circle id="1960" cx="421.8" cy="389.7" r="1.8" fill="#a2559c" opacity="1"></circle><circle id="1970" cx="446.9" cy="349.1" r="1.8" fill="#a2559c" opacity="1"></circle><circle id="1980" cx="472" cy="309.7" r="1.8" fill="#a2559c" opacity="1"></circle><circle id="1990" cx="497.1" cy="261.5" r="1.8" fill="#a2559c" opacity="1"></circle><circle id="2000" cx="522.3" cy="200" r="1.8" fill="#a2559c" opacity="1"></circle><circle id="2010" cx="547.4" cy="173.4" r="1.8" fill="#a2559c" opacity="1"></circle><circle id="2015" cx="559.9" cy="149.6" r="1.8" fill="#a2559c" opacity="1"></circle><circle id="2016" cx="562.5" cy="146.5" r="1.8" fill="#a2559c" opacity="1"></circle><circle id="2017" cx="565" cy="140.9" r="1.8" fill="#a2559c" opacity="1"></circle><circle id="2018" cx="567.5" cy="132.6" r="1.8" fill="#a2559c" opacity="1"></circle><circle id="2019" cx="570" cy="126.5" r="1.8" fill="#a2559c" opacity="1"></circle><circle id="2020" cx="572.5" cy="141.4" r="1.8" fill="#a2559c" opacity="1"></circle><circle id="2021" cx="575" cy="120.5" r="1.8" fill="#a2559c" opacity="1"></circle><circle id="2022" cx="577.5" cy="113.5" r="1.8" fill="#a2559c" opacity="1"></circle></g><path fill="none" stroke-linecap="butt" stroke-linejoin="round" stroke="#ffffff" id="outline__Western-Europe-(MPD)" stroke-width="2.5" d="M70.1 497.8L95.3 496.7L120.4 495.2L145.5 494.2L170.6 491.7L195.7 489.9L220.8 487.8L246 484.3L271.1 479.7L296.2 476.9L321.3 478.7L346.4 468L371.6 462.5L396.7 462L421.8 435.9L446.9 399.4L472 365.7L497.1 333.9L522.3 282.9L547.4 248.8L559.9 239.4L562.5 235.5L565 229.7L567.5 226L570 222.8L572.5 243.5L575 229.4L577.5 221.2"></path><path fill="none" stroke-linecap="butt" stroke-linejoin="round" stroke="#00295b" id="line__Western-Europe-(MPD)" stroke-width="1.5" stroke-opacity="1" d="M70.1 497.8L95.3 496.7L120.4 495.2L145.5 494.2L170.6 491.7L195.7 489.9L220.8 487.8L246 484.3L271.1 479.7L296.2 476.9L321.3 478.7L346.4 468L371.6 462.5L396.7 462L421.8 435.9L446.9 399.4L472 365.7L497.1 333.9L522.3 282.9L547.4 248.8L559.9 239.4L562.5 235.5L565 229.7L567.5 226L570 222.8L572.5 243.5L575 229.4L577.5 221.2"></path><g id="markers__Western-Europe-(MPD)"><circle id="1820" cx="70.1" cy="497.8" r="1.8" fill="#00295b" opacity="1"></circle><circle id="1830" cx="95.3" cy="496.7" r="1.8" fill="#00295b" opacity="1"></circle><circle id="1840" cx="120.4" cy="495.2" r="1.8" fill="#00295b" opacity="1"></circle><circle id="1850" cx="145.5" cy="494.2" r="1.8" fill="#00295b" opacity="1"></circle><circle id="1860" cx="170.6" cy="491.7" r="1.8" fill="#00295b" opacity="1"></circle><circle id="1870" cx="195.7" cy="489.9" r="1.8" fill="#00295b" opacity="1"></circle><circle id="1880" cx="220.8" cy="487.8" r="1.8" fill="#00295b" opacity="1"></circle><circle id="1890" cx="246" cy="484.3" r="1.8" fill="#00295b" opacity="1"></circle><circle id="1900" cx="271.1" cy="479.7" r="1.8" fill="#00295b" opacity="1"></circle><circle id="1910" cx="296.2" cy="476.9" r="1.8" fill="#00295b" opacity="1"></circle><circle id="1920" cx="321.3" cy="478.7" r="1.8" fill="#00295b" opacity="1"></circle><circle id="1930" cx="346.4" cy="468" r="1.8" fill="#00295b" opacity="1"></circle><circle id="1940" cx="371.6" cy="462.5" r="1.8" fill="#00295b" opacity="1"></circle><circle id="1950" cx="396.7" cy="462" r="1.8" fill="#00295b" opacity="1"></circle><circle id="1960" cx="421.8" cy="435.9" r="1.8" fill="#00295b" opacity="1"></circle><circle id="1970" cx="446.9" cy="399.4" r="1.8" fill="#00295b" opacity="1"></circle><circle id="1980" cx="472" cy="365.7" r="1.8" fill="#00295b" opacity="1"></circle><circle id="1990" cx="497.1" cy="333.9" r="1.8" fill="#00295b" opacity="1"></circle><circle id="2000" cx="522.3" cy="282.9" r="1.8" fill="#00295b" opacity="1"></circle><circle id="2010" cx="547.4" cy="248.8" r="1.8" fill="#00295b" opacity="1"></circle><circle id="2015" cx="559.9" cy="239.4" r="1.8" fill="#00295b" opacity="1"></circle><circle id="2016" cx="562.5" cy="235.5" r="1.8" fill="#00295b" opacity="1"></circle><circle id="2017" cx="565" cy="229.7" r="1.8" fill="#00295b" opacity="1"></circle><circle id="2018" cx="567.5" cy="226" r="1.8" fill="#00295b" opacity="1"></circle><circle id="2019" cx="570" cy="222.8" r="1.8" fill="#00295b" opacity="1"></circle><circle id="2020" cx="572.5" cy="243.5" r="1.8" fill="#00295b" opacity="1"></circle><circle id="2021" cx="575" cy="229.4" r="1.8" fill="#00295b" opacity="1"></circle><circle id="2022" cx="577.5" cy="221.2" r="1.8" fill="#00295b" opacity="1"></circle></g><path fill="none" stroke-linecap="butt" stroke-linejoin="round" stroke="#ffffff" id="outline__Sub-Saharan-Africa-(MPD)" stroke-width="2.5" d="M70.1 504.7L195.7 504L296.2 501.2L396.7 503.7L421.8 502L446.9 499.2L472 498.7L497.1 500.3L522.3 498.9L547.4 490.5L559.9 488.2L562.5 488.5L565 488.6L567.5 488.5L570 488.5L572.5 489.5L575 489.1L577.5 488.8"></path><path fill="none" stroke-linecap="butt" stroke-linejoin="round" stroke="#883039" id="line__Sub-Saharan-Africa-(MPD)" stroke-width="1.5" stroke-opacity="1" d="M70.1 504.7L195.7 504L296.2 501.2L396.7 503.7L421.8 502L446.9 499.2L472 498.7L497.1 500.3L522.3 498.9L547.4 490.5L559.9 488.2L562.5 488.5L565 488.6L567.5 488.5L570 488.5L572.5 489.5L575 489.1L577.5 488.8"></path><g id="markers__Sub-Saharan-Africa-(MPD)"><circle id="1820" cx="70.1" cy="504.7" r="1.8" fill="#883039" opacity="1"></circle><circle id="1870" cx="195.7" cy="504" r="1.8" fill="#883039" opacity="1"></circle><circle id="1910" cx="296.2" cy="501.2" r="1.8" fill="#883039" opacity="1"></circle><circle id="1950" cx="396.7" cy="503.7" r="1.8" fill="#883039" opacity="1"></circle><circle id="1960" cx="421.8" cy="502" r="1.8" fill="#883039" opacity="1"></circle><circle id="1970" cx="446.9" cy="499.2" r="1.8" fill="#883039" opacity="1"></circle><circle id="1980" cx="472" cy="498.7" r="1.8" fill="#883039" opacity="1"></circle><circle id="1990" cx="497.1" cy="500.3" r="1.8" fill="#883039" opacity="1"></circle><circle id="2000" cx="522.3" cy="498.9" r="1.8" fill="#883039" opacity="1"></circle><circle id="2010" cx="547.4" cy="490.5" r="1.8" fill="#883039" opacity="1"></circle><circle id="2015" cx="559.9" cy="488.2" r="1.8" fill="#883039" opacity="1"></circle><circle id="2016" cx="562.5" cy="488.5" r="1.8" fill="#883039" opacity="1"></circle><circle id="2017" cx="565" cy="488.6" r="1.8" fill="#883039" opacity="1"></circle><circle id="2018" cx="567.5" cy="488.5" r="1.8" fill="#883039" opacity="1"></circle><circle id="2019" cx="570" cy="488.5" r="1.8" fill="#883039" opacity="1"></circle><circle id="2020" cx="572.5" cy="489.5" r="1.8" fill="#883039" opacity="1"></circle><circle id="2021" cx="575" cy="489.1" r="1.8" fill="#883039" opacity="1"></circle><circle id="2022" cx="577.5" cy="488.8" r="1.8" fill="#883039" opacity="1"></circle></g><path fill="none" stroke-linecap="butt" stroke-linejoin="round" stroke="#ffffff" id="outline__South-and-South-East-Asia-(MPD)" stroke-width="2.5" d="M70.1 506.6L95.3 506.5L120.4 506.5L145.5 506.6L170.6 506.8L195.7 507.1L220.8 505.6L246 506.3L271.1 506.1L296.2 505L321.3 505.2L346.4 503.9L371.6 504.2L396.7 505.5L421.8 504L446.9 502.2L472 499.7L497.1 494.9L522.3 488.9L547.4 475.2L559.9 465.7L562.5 463.1L565 460.8L567.5 458.2L570 456.4L572.5 459.5L575 456.7L577.5 453.9"></path><path fill="none" stroke-linecap="butt" stroke-linejoin="round" stroke="#6d3e91" id="line__South-and-South-East-Asia-(MPD)" stroke-width="1.5" stroke-opacity="1" d="M70.1 506.6L95.3 506.5L120.4 506.5L145.5 506.6L170.6 506.8L195.7 507.1L220.8 505.6L246 506.3L271.1 506.1L296.2 505L321.3 505.2L346.4 503.9L371.6 504.2L396.7 505.5L421.8 504L446.9 502.2L472 499.7L497.1 494.9L522.3 488.9L547.4 475.2L559.9 465.7L562.5 463.1L565 460.8L567.5 458.2L570 456.4L572.5 459.5L575 456.7L577.5 453.9"></path><g id="markers__South-and-South-East-Asia-(MPD)"><circle id="1820" cx="70.1" cy="506.6" r="1.8" fill="#6d3e91" opacity="1"></circle><circle id="1830" cx="95.3" cy="506.5" r="1.8" fill="#6d3e91" opacity="1"></circle><circle id="1840" cx="120.4" cy="506.5" r="1.8" fill="#6d3e91" opacity="1"></circle><circle id="1850" cx="145.5" cy="506.6" r="1.8" fill="#6d3e91" opacity="1"></circle><circle id="1860" cx="170.6" cy="506.8" r="1.8" fill="#6d3e91" opacity="1"></circle><circle id="1870" cx="195.7" cy="507.1" r="1.8" fill="#6d3e91" opacity="1"></circle><circle id="1880" cx="220.8" cy="505.6" r="1.8" fill="#6d3e91" opacity="1"></circle><circle id="1890" cx="246" cy="506.3" r="1.8" fill="#6d3e91" opacity="1"></circle><circle id="1900" cx="271.1" cy="506.1" r="1.8" fill="#6d3e91" opacity="1"></circle><circle id="1910" cx="296.2" cy="505" r="1.8" fill="#6d3e91" opacity="1"></circle><circle id="1920" cx="321.3" cy="505.2" r="1.8" fill="#6d3e91" opacity="1"></circle><circle id="1930" cx="346.4" cy="503.9" r="1.8" fill="#6d3e91" opacity="1"></circle><circle id="1940" cx="371.6" cy="504.2" r="1.8" fill="#6d3e91" opacity="1"></circle><circle id="1950" cx="396.7" cy="505.5" r="1.8" fill="#6d3e91" opacity="1"></circle><circle id="1960" cx="421.8" cy="504" r="1.8" fill="#6d3e91" opacity="1"></circle><circle id="1970" cx="446.9" cy="502.2" r="1.8" fill="#6d3e91" opacity="1"></circle><circle id="1980" cx="472" cy="499.7" r="1.8" fill="#6d3e91" opacity="1"></circle><circle id="1990" cx="497.1" cy="494.9" r="1.8" fill="#6d3e91" opacity="1"></circle><circle id="2000" cx="522.3" cy="488.9" r="1.8" fill="#6d3e91" opacity="1"></circle><circle id="2010" cx="547.4" cy="475.2" r="1.8" fill="#6d3e91" opacity="1"></circle><circle id="2015" cx="559.9" cy="465.7" r="1.8" fill="#6d3e91" opacity="1"></circle><circle id="2016" cx="562.5" cy="463.1" r="1.8" fill="#6d3e91" opacity="1"></circle><circle id="2017" cx="565" cy="460.8" r="1.8" fill="#6d3e91" opacity="1"></circle><circle id="2018" cx="567.5" cy="458.2" r="1.8" fill="#6d3e91" opacity="1"></circle><circle id="2019" cx="570" cy="456.4" r="1.8" fill="#6d3e91" opacity="1"></circle><circle id="2020" cx="572.5" cy="459.5" r="1.8" fill="#6d3e91" opacity="1"></circle><circle id="2021" cx="575" cy="456.7" r="1.8" fill="#6d3e91" opacity="1"></circle><circle id="2022" cx="577.5" cy="453.9" r="1.8" fill="#6d3e91" opacity="1"></circle></g><path fill="none" stroke-linecap="butt" stroke-linejoin="round" stroke="#ffffff" id="outline__Middle-East-and-North-Africa-(MPD)" stroke-width="2.5" d="M70.1 506.8L195.7 505.4L346.4 501.8L371.6 497.9L396.7 496.9L421.8 491.2L446.9 479.3L472 465.5L497.1 467.7L522.3 444.9L547.4 396.1L559.9 383.1L562.5 380.1L565 378.4L567.5 377.3L570 378.3L572.5 384.3L575 377.7L577.5 372.7"></path><path fill="none" stroke-linecap="butt" stroke-linejoin="round" stroke="#2c8465" id="line__Middle-East-and-North-Africa-(MPD)" stroke-width="1.5" stroke-opacity="1" d="M70.1 506.8L195.7 505.4L346.4 501.8L371.6 497.9L396.7 496.9L421.8 491.2L446.9 479.3L472 465.5L497.1 467.7L522.3 444.9L547.4 396.1L559.9 383.1L562.5 380.1L565 378.4L567.5 377.3L570 378.3L572.5 384.3L575 377.7L577.5 372.7"></path><g id="markers__Middle-East-and-North-Africa-(MPD)"><circle id="1820" cx="70.1" cy="506.8" r="1.8" fill="#2c8465" opacity="1"></circle><circle id="1870" cx="195.7" cy="505.4" r="1.8" fill="#2c8465" opacity="1"></circle><circle id="1930" cx="346.4" cy="501.8" r="1.8" fill="#2c8465" opacity="1"></circle><circle id="1940" cx="371.6" cy="497.9" r="1.8" fill="#2c8465" opacity="1"></circle><circle id="1950" cx="396.7" cy="496.9" r="1.8" fill="#2c8465" opacity="1"></circle><circle id="1960" cx="421.8" cy="491.2" r="1.8" fill="#2c8465" opacity="1"></circle><circle id="1970" cx="446.9" cy="479.3" r="1.8" fill="#2c8465" opacity="1"></circle><circle id="1980" cx="472" cy="465.5" r="1.8" fill="#2c8465" opacity="1"></circle><circle id="1990" cx="497.1" cy="467.7" r="1.8" fill="#2c8465" opacity="1"></circle><circle id="2000" cx="522.3" cy="444.9" r="1.8" fill="#2c8465" opacity="1"></circle><circle id="2010" cx="547.4" cy="396.1" r="1.8" fill="#2c8465" opacity="1"></circle><circle id="2015" cx="559.9" cy="383.1" r="1.8" fill="#2c8465" opacity="1"></circle><circle id="2016" cx="562.5" cy="380.1" r="1.8" fill="#2c8465" opacity="1"></circle><circle id="2017" cx="565" cy="378.4" r="1.8" fill="#2c8465" opacity="1"></circle><circle id="2018" cx="567.5" cy="377.3" r="1.8" fill="#2c8465" opacity="1"></circle><circle id="2019" cx="570" cy="378.3" r="1.8" fill="#2c8465" opacity="1"></circle><circle id="2020" cx="572.5" cy="384.3" r="1.8" fill="#2c8465" opacity="1"></circle><circle id="2021" cx="575" cy="377.7" r="1.8" fill="#2c8465" opacity="1"></circle><circle id="2022" cx="577.5" cy="372.7" r="1.8" fill="#2c8465" opacity="1"></circle></g><path fill="none" stroke-linecap="butt" stroke-linejoin="round" stroke="#ffffff" id="outline__Latin-America-(MPD)" stroke-width="2.5" d="M70.1 506.3L95.3 506.6L120.4 505.5L145.5 505.6L170.6 501.9L195.7 504L220.8 502.9L246 501.3L271.1 501L296.2 497.6L321.3 496.6L346.4 494.1L371.6 492L396.7 487.1L421.8 479.9L446.9 469.4L472 452.3L497.1 456.2L522.3 441.5L547.4 418.7L559.9 411.9L562.5 413.7L565 413.5L567.5 413.5L570 414.5L572.5 422.2L575 417L577.5 414"></path><path fill="none" stroke-linecap="butt" stroke-linejoin="round" stroke="#996d39" id="line__Latin-America-(MPD)" stroke-width="1.5" stroke-opacity="1" d="M70.1 506.3L95.3 506.6L120.4 505.5L145.5 505.6L170.6 501.9L195.7 504L220.8 502.9L246 501.3L271.1 501L296.2 497.6L321.3 496.6L346.4 494.1L371.6 492L396.7 487.1L421.8 479.9L446.9 469.4L472 452.3L497.1 456.2L522.3 441.5L547.4 418.7L559.9 411.9L562.5 413.7L565 413.5L567.5 413.5L570 414.5L572.5 422.2L575 417L577.5 414"></path><g id="markers__Latin-America-(MPD)"><circle id="1820" cx="70.1" cy="506.3" r="1.8" fill="#996d39" opacity="1"></circle><circle id="1830" cx="95.3" cy="506.6" r="1.8" fill="#996d39" opacity="1"></circle><circle id="1840" cx="120.4" cy="505.5" r="1.8" fill="#996d39" opacity="1"></circle><circle id="1850" cx="145.5" cy="505.6" r="1.8" fill="#996d39" opacity="1"></circle><circle id="1860" cx="170.6" cy="501.9" r="1.8" fill="#996d39" opacity="1"></circle><circle id="1870" cx="195.7" cy="504" r="1.8" fill="#996d39" opacity="1"></circle><circle id="1880" cx="220.8" cy="502.9" r="1.8" fill="#996d39" opacity="1"></circle><circle id="1890" cx="246" cy="501.3" r="1.8" fill="#996d39" opacity="1"></circle><circle id="1900" cx="271.1" cy="501" r="1.8" fill="#996d39" opacity="1"></circle><circle id="1910" cx="296.2" cy="497.6" r="1.8" fill="#996d39" opacity="1"></circle><circle id="1920" cx="321.3" cy="496.6" r="1.8" fill="#996d39" opacity="1"></circle><circle id="1930" cx="346.4" cy="494.1" r="1.8" fill="#996d39" opacity="1"></circle><circle id="1940" cx="371.6" cy="492" r="1.8" fill="#996d39" opacity="1"></circle><circle id="1950" cx="396.7" cy="487.1" r="1.8" fill="#996d39" opacity="1"></circle><circle id="1960" cx="421.8" cy="479.9" r="1.8" fill="#996d39" opacity="1"></circle><circle id="1970" cx="446.9" cy="469.4" r="1.8" fill="#996d39" opacity="1"></circle><circle id="1980" cx="472" cy="452.3" r="1.8" fill="#996d39" opacity="1"></circle><circle id="1990" cx="497.1" cy="456.2" r="1.8" fill="#996d39" opacity="1"></circle><circle id="2000" cx="522.3" cy="441.5" r="1.8" fill="#996d39" opacity="1"></circle><circle id="2010" cx="547.4" cy="418.7" r="1.8" fill="#996d39" opacity="1"></circle><circle id="2015" cx="559.9" cy="411.9" r="1.8" fill="#996d39" opacity="1"></circle><circle id="2016" cx="562.5" cy="413.7" r="1.8" fill="#996d39" opacity="1"></circle><circle id="2017" cx="565" cy="413.5" r="1.8" fill="#996d39" opacity="1"></circle><circle id="2018" cx="567.5" cy="413.5" r="1.8" fill="#996d39" opacity="1"></circle><circle id="2019" cx="570" cy="414.5" r="1.8" fill="#996d39" opacity="1"></circle><circle id="2020" cx="572.5" cy="422.2" r="1.8" fill="#996d39" opacity="1"></circle><circle id="2021" cx="575" cy="417" r="1.8" fill="#996d39" opacity="1"></circle><circle id="2022" cx="577.5" cy="414" r="1.8" fill="#996d39" opacity="1"></circle></g><path fill="none" stroke-linecap="butt" stroke-linejoin="round" stroke="#ffffff" id="outline__Eastern-Europe-(MPD)" stroke-width="2.5" d="M70.1 505.7L145.5 504L195.7 502.4L246 501.9L271.1 498.9L296.2 497.3L321.3 503.4L346.4 495.4L371.6 490.4L396.7 483.9L421.8 471.7L446.9 454.3L472 444L497.1 441.8L522.3 450.7L547.4 397.8L559.9 385.5L562.5 383.8L565 379.5L567.5 374.9L570 371.5L572.5 374.8L575 366.9L577.5 367.2"></path><path fill="none" stroke-linecap="butt" stroke-linejoin="round" stroke="#b13507" id="line__Eastern-Europe-(MPD)" stroke-width="1.5" stroke-opacity="1" d="M70.1 505.7L145.5 504L195.7 502.4L246 501.9L271.1 498.9L296.2 497.3L321.3 503.4L346.4 495.4L371.6 490.4L396.7 483.9L421.8 471.7L446.9 454.3L472 444L497.1 441.8L522.3 450.7L547.4 397.8L559.9 385.5L562.5 383.8L565 379.5L567.5 374.9L570 371.5L572.5 374.8L575 366.9L577.5 367.2"></path><g id="markers__Eastern-Europe-(MPD)"><circle id="1820" cx="70.1" cy="505.7" r="1.8" fill="#b13507" opacity="1"></circle><circle id="1850" cx="145.5" cy="504" r="1.8" fill="#b13507" opacity="1"></circle><circle id="1870" cx="195.7" cy="502.4" r="1.8" fill="#b13507" opacity="1"></circle><circle id="1890" cx="246" cy="501.9" r="1.8" fill="#b13507" opacity="1"></circle><circle id="1900" cx="271.1" cy="498.9" r="1.8" fill="#b13507" opacity="1"></circle><circle id="1910" cx="296.2" cy="497.3" r="1.8" fill="#b13507" opacity="1"></circle><circle id="1920" cx="321.3" cy="503.4" r="1.8" fill="#b13507" opacity="1"></circle><circle id="1930" cx="346.4" cy="495.4" r="1.8" fill="#b13507" opacity="1"></circle><circle id="1940" cx="371.6" cy="490.4" r="1.8" fill="#b13507" opacity="1"></circle><circle id="1950" cx="396.7" cy="483.9" r="1.8" fill="#b13507" opacity="1"></circle><circle id="1960" cx="421.8" cy="471.7" r="1.8" fill="#b13507" opacity="1"></circle><circle id="1970" cx="446.9" cy="454.3" r="1.8" fill="#b13507" opacity="1"></circle><circle id="1980" cx="472" cy="444" r="1.8" fill="#b13507" opacity="1"></circle><circle id="1990" cx="497.1" cy="441.8" r="1.8" fill="#b13507" opacity="1"></circle><circle id="2000" cx="522.3" cy="450.7" r="1.8" fill="#b13507" opacity="1"></circle><circle id="2010" cx="547.4" cy="397.8" r="1.8" fill="#b13507" opacity="1"></circle><circle id="2015" cx="559.9" cy="385.5" r="1.8" fill="#b13507" opacity="1"></circle><circle id="2016" cx="562.5" cy="383.8" r="1.8" fill="#b13507" opacity="1"></circle><circle id="2017" cx="565" cy="379.5" r="1.8" fill="#b13507" opacity="1"></circle><circle id="2018" cx="567.5" cy="374.9" r="1.8" fill="#b13507" opacity="1"></circle><circle id="2019" cx="570" cy="371.5" r="1.8" fill="#b13507" opacity="1"></circle><circle id="2020" cx="572.5" cy="374.8" r="1.8" fill="#b13507" opacity="1"></circle><circle id="2021" cx="575" cy="366.9" r="1.8" fill="#b13507" opacity="1"></circle><circle id="2022" cx="577.5" cy="367.2" r="1.8" fill="#b13507" opacity="1"></circle></g><path fill="none" stroke-linecap="butt" stroke-linejoin="round" stroke="#ffffff" id="outline__East-Asia-(MPD)" stroke-width="2.5" d="M70.1 506.7L95.3 507.1L120.4 507.1L145.5 506.7L195.7 506.1L246 505.7L271.1 505.4L296.2 505.6L321.3 504.5L346.4 503.9L371.6 502.5L396.7 505.3L421.8 500.9L446.9 491.7L472 483.5L497.1 470.1L522.3 455.5L547.4 422.2L559.9 398L562.5 392.7L565 386.6L567.5 380.4L570 374.8L572.5 373.6L575 363.6L577.5 359.6"></path><path fill="none" stroke-linecap="butt" stroke-linejoin="round" stroke="#4c6a9c" id="line__East-Asia-(MPD)" stroke-width="1.5" stroke-opacity="1" d="M70.1 506.7L95.3 507.1L120.4 507.1L145.5 506.7L195.7 506.1L246 505.7L271.1 505.4L296.2 505.6L321.3 504.5L346.4 503.9L371.6 502.5L396.7 505.3L421.8 500.9L446.9 491.7L472 483.5L497.1 470.1L522.3 455.5L547.4 422.2L559.9 398L562.5 392.7L565 386.6L567.5 380.4L570 374.8L572.5 373.6L575 363.6L577.5 359.6"></path><g id="markers__East-Asia-(MPD)"><circle id="1820" cx="70.1" cy="506.7" r="1.8" fill="#4c6a9c" opacity="1"></circle><circle id="1830" cx="95.3" cy="507.1" r="1.8" fill="#4c6a9c" opacity="1"></circle><circle id="1840" cx="120.4" cy="507.1" r="1.8" fill="#4c6a9c" opacity="1"></circle><circle id="1850" cx="145.5" cy="506.7" r="1.8" fill="#4c6a9c" opacity="1"></circle><circle id="1870" cx="195.7" cy="506.1" r="1.8" fill="#4c6a9c" opacity="1"></circle><circle id="1890" cx="246" cy="505.7" r="1.8" fill="#4c6a9c" opacity="1"></circle><circle id="1900" cx="271.1" cy="505.4" r="1.8" fill="#4c6a9c" opacity="1"></circle><circle id="1910" cx="296.2" cy="505.6" r="1.8" fill="#4c6a9c" opacity="1"></circle><circle id="1920" cx="321.3" cy="504.5" r="1.8" fill="#4c6a9c" opacity="1"></circle><circle id="1930" cx="346.4" cy="503.9" r="1.8" fill="#4c6a9c" opacity="1"></circle><circle id="1940" cx="371.6" cy="502.5" r="1.8" fill="#4c6a9c" opacity="1"></circle><circle id="1950" cx="396.7" cy="505.3" r="1.8" fill="#4c6a9c" opacity="1"></circle><circle id="1960" cx="421.8" cy="500.9" r="1.8" fill="#4c6a9c" opacity="1"></circle><circle id="1970" cx="446.9" cy="491.7" r="1.8" fill="#4c6a9c" opacity="1"></circle><circle id="1980" cx="472" cy="483.5" r="1.8" fill="#4c6a9c" opacity="1"></circle><circle id="1990" cx="497.1" cy="470.1" r="1.8" fill="#4c6a9c" opacity="1"></circle><circle id="2000" cx="522.3" cy="455.5" r="1.8" fill="#4c6a9c" opacity="1"></circle><circle id="2010" cx="547.4" cy="422.2" r="1.8" fill="#4c6a9c" opacity="1"></circle><circle id="2015" cx="559.9" cy="398" r="1.8" fill="#4c6a9c" opacity="1"></circle><circle id="2016" cx="562.5" cy="392.7" r="1.8" fill="#4c6a9c" opacity="1"></circle><circle id="2017" cx="565" cy="386.6" r="1.8" fill="#4c6a9c" opacity="1"></circle><circle id="2018" cx="567.5" cy="380.4" r="1.8" fill="#4c6a9c" opacity="1"></circle><circle id="2019" cx="570" cy="374.8" r="1.8" fill="#4c6a9c" opacity="1"></circle><circle id="2020" cx="572.5" cy="373.6" r="1.8" fill="#4c6a9c" opacity="1"></circle><circle id="2021" cx="575" cy="363.6" r="1.8" fill="#4c6a9c" opacity="1"></circle><circle id="2022" cx="577.5" cy="359.6" r="1.8" fill="#4c6a9c" opacity="1"></circle></g></g></g><g id="footer" class="SourcesFooter" style="fill:#5b5b5b"><g id="sources" class="markdown-text-wrap"><text x="16.0" y="562.7" style="font-size:13.5px;line-height:1.2"><tspan x="16" y="562.7"><tspan style="font-weight:700">Data source:</tspan> Bolt and van Zanden - Maddison Project Database 2023</tspan></text></g><g id="note" class="markdown-text-wrap"><text x="16.0" y="580.9" style="font-size:13.5px;line-height:1.2"><tspan x="16" y="580.9"><tspan style="font-weight:700">Note:</tspan> This data is expressed in <tspan class="dod-span" data-id="int_dollar_abbreviation">international-$</tspan> at 2011 prices.</tspan></text></g><text id="origin-url" font-size="13.50" x="554.5" y="562.7"><tspan x="554.55" y="562.695"><a target="_blank" style="fill: #5b5b5b;" href="https://ourworldindata.org/economic-growth">OurWorldinData.org/economic-growth</a> | <a target="_blank" style="fill: #5b5b5b;" href="https://creativecommons.org/licenses/by/4.0/">CC BY</a></tspan></text></g></svg>