<svg xmlns="http://www.w3.org/2000/svg" version="1.1" style="font-family:Lato, &#x27;Helvetica Neue&#x27;, Helvetica, Arial, &#x27;Liberation Sans&#x27;, sans-serif;font-size:18px;background-color:white;text-rendering:geometricPrecision;-webkit-font-smoothing:antialiased" width="850" height="600" viewBox="0 0 850 600"><defs><style>@import url(http://localhost:3030/fonts.css)</style></defs><defs><pattern id="noDataPattern" patternUnits="userSpaceOnUse" width="4" height="4" patternTransform="rotate(-45 2 2)"><path d="M -1,2 l 6,0" stroke="#ccc" stroke-width="0.7"></path></pattern></defs><rect class="background-fill" fill="white" width="850" height="600"></rect><g class="HeaderView"><g transform="translate(769, 16) scale(1)"><svg className="owidLogo" xmlns="http://www.w3.org/2000/svg" width="65" height="36" viewBox="0 0 65 36"  fill="none"><path fill="#002147" d="M0 0h64.8v36H0z"/><path fill="#CE261E" d="M0 33.3h64.8V36H0z"/><path fill="#fff" d="M13.796 10.575c0 .636-.106 1.226-.318 1.77a4.193 4.193 0 0 1-.894 1.404 4.084 4.084 0 0 1-1.386.93c-.54.22-1.138.33-1.794.33-.656 0-1.256-.11-1.8-.33a4.149 4.149 0 0 1-1.392-.93 4.193 4.193 0 0 1-.894-1.404A4.833 4.833 0 0 1 5 10.575c0-.636.106-1.224.318-1.764a4.18 4.18 0 0 1 .894-1.41 4.076 4.076 0 0 1 1.392-.924 4.684 4.684 0 0 1 1.8-.336c.656 0 1.254.112 1.794.336.54.224 1.002.534 1.386.93.384.392.682.86.894 1.404.212.54.318 1.128.318 1.764Zm-1.656 0c0-.476-.064-.902-.192-1.278a2.671 2.671 0 0 0-.54-.966 2.332 2.332 0 0 0-.864-.606 2.94 2.94 0 0 0-1.14-.21c-.424 0-.806.07-1.146.21-.34.14-.63.342-.87.606a2.742 2.742 0 0 0-.546.966 3.955 3.955 0 0 0-.192 1.278c0 .476.064.904.192 1.284.128.376.31.696.546.96.24.26.53.46.87.6.34.14.722.21 1.146.21.424 0 .804-.07 1.14-.21.34-.14.628-.34.864-.6.236-.264.416-.584.54-.96a4.01 4.01 0 0 0 .192-1.284ZM16.104 8.757v3.912c0 .376.086.668.258.876.176.204.438.306.786.306.256 0 .496-.056.72-.168a2.58 2.58 0 0 0 .636-.474V8.757h1.482v6.156h-.906c-.192 0-.318-.09-.378-.27l-.102-.492a4.65 4.65 0 0 1-.396.354 2.577 2.577 0 0 1-.438.27 2.35 2.35 0 0 1-.498.168 2.345 2.345 0 0 1-.57.066c-.336 0-.634-.056-.894-.168a1.821 1.821 0 0 1-.648-.486 2.157 2.157 0 0 1-.402-.738 3.233 3.233 0 0 1-.132-.948V8.757h1.482ZM21.328 14.913V8.757h.87c.152 0 .258.028.318.084.06.056.1.152.12.288l.09.744c.22-.38.478-.68.774-.9.296-.22.628-.33.996-.33.304 0 .556.07.756.21l-.192 1.11c-.012.072-.038.124-.078.156a.278.278 0 0 1-.162.042 1.01 1.01 0 0 1-.246-.042 1.646 1.646 0 0 0-.414-.042c-.308 0-.572.086-.792.258-.22.168-.406.416-.558.744v3.834h-1.482ZM27.347 6.237h1.356a.57.57 0 0 1 .348.102c.096.064.16.152.192.264l1.476 5.19c.036.128.068.268.096.42.032.148.062.306.09.474a5.968 5.968 0 0 1 .228-.894l1.704-5.19a.575.575 0 0 1 .186-.252.543.543 0 0 1 .348-.114h.474a.57.57 0 0 1 .348.102.497.497 0 0 1 .192.264l1.692 5.19c.088.256.164.54.228.852.028-.156.056-.306.084-.45.032-.144.064-.278.096-.402l1.476-5.19c.028-.1.09-.186.186-.258a.563.563 0 0 1 .348-.108h1.266l-2.694 8.676h-1.458l-1.896-5.928-.078-.246a9.504 9.504 0 0 1-.072-.282c-.024.1-.05.194-.078.282-.024.088-.048.17-.072.246l-1.914 5.928H30.04l-2.694-8.676ZM42.771 8.661c.46 0 .876.074 1.248.222.376.148.696.358.96.63s.468.604.612.996c.144.392.216.83.216 1.314 0 .488-.072.928-.216 1.32a2.85 2.85 0 0 1-.612 1.002 2.653 2.653 0 0 1-.96.636 3.35 3.35 0 0 1-1.248.222c-.46 0-.878-.074-1.254-.222a2.712 2.712 0 0 1-.966-.636 2.922 2.922 0 0 1-.618-1.002 3.807 3.807 0 0 1-.216-1.32c0-.484.072-.922.216-1.314.148-.392.354-.724.618-.996.268-.272.59-.482.966-.63a3.397 3.397 0 0 1 1.254-.222Zm0 5.202c.512 0 .89-.172 1.134-.516.248-.344.372-.848.372-1.512s-.124-1.17-.372-1.518c-.244-.348-.622-.522-1.134-.522-.52 0-.904.176-1.152.528-.248.348-.372.852-.372 1.512s.124 1.164.372 1.512c.248.344.632.516 1.152.516ZM46.723 14.913V8.757h.87c.152 0 .258.028.318.084.06.056.1.152.12.288l.09.744c.22-.38.478-.68.774-.9.296-.22.628-.33.996-.33.304 0 .556.07.756.21l-.192 1.11c-.012.072-.038.124-.078.156a.278.278 0 0 1-.162.042 1.01 1.01 0 0 1-.246-.042 1.646 1.646 0 0 0-.414-.042c-.308 0-.572.086-.792.258-.22.168-.406.416-.558.744v3.834h-1.482ZM52.96 5.997v8.916h-1.482V5.997h1.482ZM58.732 14.913c-.192 0-.318-.09-.378-.27l-.12-.594a3.68 3.68 0 0 1-.402.39c-.14.116-.292.216-.456.3-.16.084-.334.148-.522.192a2.372 2.372 0 0 1-.6.072c-.336 0-.644-.07-.924-.21a2.098 2.098 0 0 1-.726-.606 3.033 3.033 0 0 1-.468-.99 5.072 5.072 0 0 1-.162-1.344c0-.456.062-.88.186-1.272s.302-.732.534-1.02c.232-.288.51-.512.834-.672a2.384 2.384 0 0 1 1.092-.246 2.103 2.103 0 0 1 1.536.606V5.997h1.482v8.916h-.906Zm-1.974-1.086c.308 0 .57-.064.786-.192.216-.128.42-.31.612-.546v-2.76a1.452 1.452 0 0 0-.552-.432 1.597 1.597 0 0 0-.636-.126c-.224 0-.428.042-.612.126a1.21 1.21 0 0 0-.462.384c-.124.168-.22.384-.288.648-.068.26-.102.568-.102.924 0 .36.028.666.084.918.06.248.144.452.252.612.108.156.24.27.396.342.156.068.33.102.522.102ZM16.331 20.757v6.156H14.85v-6.156h1.481Zm.223-1.794a.844.844 0 0 1-.078.36.963.963 0 0 1-.21.294.995.995 0 0 1-.3.204.963.963 0 0 1-.372.072.948.948 0 0 1-.367-.072 1.018 1.018 0 0 1-.498-.498.963.963 0 0 1 0-.732.995.995 0 0 1 .205-.3.929.929 0 0 1 .293-.198.899.899 0 0 1 .738 0 .912.912 0 0 1 .3.198.943.943 0 0 1 .288.672ZM17.771 26.913v-6.156h.906c.192 0 .318.09.378.27l.102.486a2.934 2.934 0 0 1 .828-.618c.156-.076.322-.134.498-.174.176-.04.368-.06.576-.06.336 0 .634.058.894.174.26.112.476.272.648.48.176.204.308.45.396.738.092.284.138.598.138.942v3.918h-1.482v-3.918c0-.376-.088-.666-.264-.87-.172-.208-.432-.312-.78-.312-.256 0-.496.058-.72.174a2.58 2.58 0 0 0-.636.474v4.452h-1.482ZM34.22 22.575c0 .636-.106 1.22-.318 1.752-.212.532-.51.99-.894 1.374a4 4 0 0 1-1.386.894 4.87 4.87 0 0 1-1.794.318h-3.312v-8.676h3.312a4.79 4.79 0 0 1 1.794.324 4 4 0 0 1 1.386.894c.384.38.682.836.894 1.368.212.532.318 1.116.318 1.752Zm-1.65 0c0-.476-.064-.902-.192-1.278a2.68 2.68 0 0 0-.546-.96 2.332 2.332 0 0 0-.864-.606 2.94 2.94 0 0 0-1.14-.21h-1.686v6.108h1.686c.424 0 .804-.07 1.14-.21.34-.14.628-.34.864-.6a2.75 2.75 0 0 0 .546-.96 4.01 4.01 0 0 0 .192-1.284ZM39.98 26.913h-.665c-.14 0-.25-.02-.33-.06-.08-.044-.14-.13-.18-.258l-.132-.438c-.156.14-.31.264-.462.372a2.804 2.804 0 0 1-.462.264c-.16.072-.33.126-.51.162-.18.036-.38.054-.6.054-.26 0-.5-.034-.72-.102a1.618 1.618 0 0 1-.57-.318 1.448 1.448 0 0 1-.366-.522 1.852 1.852 0 0 1-.132-.726c0-.232.06-.46.18-.684.124-.228.328-.432.612-.612.284-.184.662-.336 1.134-.456.472-.12 1.058-.188 1.758-.204v-.36c0-.412-.088-.716-.264-.912-.172-.2-.424-.3-.756-.3a1.837 1.837 0 0 0-1.02.276c-.116.068-.224.13-.324.186a.664.664 0 0 1-.33.084.429.429 0 0 1-.258-.078.614.614 0 0 1-.174-.192l-.27-.474c.708-.648 1.562-.972 2.562-.972.36 0 .68.06.96.18.284.116.524.28.72.492.196.208.344.458.444.75.104.292.156.612.156.96v3.888Zm-2.88-.924c.153 0 .293-.014.42-.042.129-.028.249-.07.36-.126.117-.056.227-.124.33-.204.109-.084.217-.182.325-.294v-1.038c-.432.02-.794.058-1.086.114-.288.052-.52.12-.696.204a.923.923 0 0 0-.378.294.664.664 0 0 0-.108.366c0 .26.076.446.228.558.156.112.358.168.606.168ZM43.22 27.01c-.532 0-.942-.15-1.23-.45-.288-.305-.432-.723-.432-1.255v-3.438h-.624a.31.31 0 0 1-.21-.078c-.056-.052-.084-.13-.084-.234v-.588l.99-.162.312-1.68a.302.302 0 0 1 .108-.186.365.365 0 0 1 .222-.066h.768v1.938h1.62v1.056h-1.62v3.336c0 .192.048.342.144.45a.488.488 0 0 0 .384.162c.092 0 .168-.01.228-.03.064-.024.118-.048.162-.072.048-.024.09-.046.126-.066a.194.194 0 0 1 .108-.036.16.16 0 0 1 .108.036c.028.02.058.052.09.096l.444.72c-.216.18-.464.316-.744.408a2.77 2.77 0 0 1-.87.138ZM50.423 26.913h-.666c-.14 0-.25-.02-.33-.06-.08-.044-.14-.13-.18-.258l-.132-.438c-.156.14-.31.264-.462.372a2.804 2.804 0 0 1-.462.264c-.16.072-.33.126-.51.162-.18.036-.38.054-.6.054-.26 0-.5-.034-.72-.102a1.618 1.618 0 0 1-.57-.318 1.448 1.448 0 0 1-.366-.522 1.852 1.852 0 0 1-.132-.726c0-.232.06-.46.18-.684.124-.228.328-.432.612-.612.284-.184.662-.336 1.134-.456.472-.12 1.058-.188 1.758-.204v-.36c0-.412-.088-.716-.264-.912-.172-.2-.424-.3-.756-.3a1.837 1.837 0 0 0-1.02.276c-.116.068-.224.13-.324.186a.664.664 0 0 1-.33.084.429.429 0 0 1-.258-.078.614.614 0 0 1-.174-.192l-.27-.474c.708-.648 1.562-.972 2.562-.972.36 0 .68.06.96.18.284.116.524.28.72.492.196.208.344.458.444.75.104.292.156.612.156.96v3.888Zm-2.88-.924c.152 0 .292-.014.42-.042.128-.028.248-.07.36-.126.116-.056.226-.124.33-.204.108-.084.216-.182.324-.294v-1.038c-.432.02-.794.058-1.086.114-.288.052-.52.12-.696.204a.923.923 0 0 0-.378.294.664.664 0 0 0-.108.366c0 .26.076.446.228.558.156.112.358.168.606.168Z"/></svg></g><a href="http://localhost:3030/grapher/number-homeless-from-natural-disasters?stackMode=relative&amp;time=earliest..latest&amp;facet=entity" style="font-family:&#x27;Playfair Display&#x27;, Georgia, &#x27;Times New Roman&#x27;, &#x27;Liberation Serif&#x27;, serif" target="_blank" rel="noopener"><text font-size="21.50" font-weight="600" x="16.0" y="36.9" fill="#5b5b5b"><tspan x="16" y="36.855000000000004">Change in number left homeless from natural disasters, 1900 to 2022</tspan></text></a><text x="16.0" y="60.0" style="font-size:14px;line-height:1.28571" fill="#5b5b5b"><tspan x="16" y="60.0">Global number of people left homeless from natural disaster events. This is defined as &quot;number of people whose house</tspan><tspan x="16" y="78.0">is destroyed or heavily damaged and therefore need shelter after an event.&quot;</tspan></text></g><g class="LineChart"><defs><clipPath id="boundsClip-1"><rect x="125.53399999999999" y="87.79988" width="838" height="457.00012"></rect></clipPath></defs><rect x="16" y="97.79988" width="818" height="437.00012" fill="none"></rect><g class="DualAxisView"><g class="HorizontalAxis"><line x1="135.5" y1="511.6" x2="135.5" y2="516.6" stroke="#999"></line><line x1="726.1" y1="511.6" x2="726.1" y2="516.6" stroke="#999"></line><line x1="228.3" y1="511.6" x2="228.3" y2="516.6" stroke="#999"></line><line x1="325.9" y1="511.6" x2="325.9" y2="516.6" stroke="#999"></line><line x1="423.5" y1="511.6" x2="423.5" y2="516.6" stroke="#999"></line><line x1="521.1" y1="511.6" x2="521.1" y2="516.6" stroke="#999"></line><line x1="618.7" y1="511.6" x2="618.7" y2="516.6" stroke="#999"></line><text x="135.534" y="532.8" fill="#666" text-anchor="start" font-size="16.2">1901</text><text x="726.1" y="532.8" fill="#666" text-anchor="end" font-size="16.2">2022</text><text x="228.3" y="532.8" fill="#666" text-anchor="middle" font-size="16.2">1920</text><text x="325.9" y="532.8" fill="#666" text-anchor="middle" font-size="16.2">1940</text><text x="423.5" y="532.8" fill="#666" text-anchor="middle" font-size="16.2">1960</text><text x="521.1" y="532.8" fill="#666" text-anchor="middle" font-size="16.2">1980</text><text x="618.7" y="532.8" fill="#666" text-anchor="middle" font-size="16.2">2000</text></g><g class="VerticalAxis"><text x="130.53" y="511.6" dy=".32em" text-anchor="end" fill="#666" font-size="16.2">+0%</text><text x="130.53" y="445.1" dy=".32em" text-anchor="end" fill="#666" font-size="16.2">+20,000,000%</text><text x="130.53" y="378.6" dy=".32em" text-anchor="end" fill="#666" font-size="16.2">+40,000,000%</text><text x="130.53" y="312" dy=".32em" text-anchor="end" fill="#666" font-size="16.2">+60,000,000%</text><text x="130.53" y="245.5" dy=".32em" text-anchor="end" fill="#666" font-size="16.2">+80,000,000%</text><text x="130.53" y="179" dy=".32em" text-anchor="end" fill="#666" font-size="16.2">+100,000,000%</text><text x="130.53" y="112.5" dy=".32em" text-anchor="end" fill="#666" font-size="16.2">+120,000,000%</text></g><g class="AxisGridLines horizontalLines"><line x1="135.53" y1="511.6" x2="726.10" y2="511.6" stroke="#999"></line><line x1="135.53" y1="445.1" x2="726.10" y2="445.1" stroke="#ddd" stroke-dasharray="3,2"></line><line x1="135.53" y1="378.6" x2="726.10" y2="378.6" stroke="#ddd" stroke-dasharray="3,2"></line><line x1="135.53" y1="312" x2="726.10" y2="312" stroke="#ddd" stroke-dasharray="3,2"></line><line x1="135.53" y1="245.5" x2="726.10" y2="245.5" stroke="#ddd" stroke-dasharray="3,2"></line><line x1="135.53" y1="179" x2="726.10" y2="179" stroke="#ddd" stroke-dasharray="3,2"></line><line x1="135.53" y1="112.5" x2="726.10" y2="112.5" stroke="#ddd" stroke-dasharray="3,2"></line></g></g><g clip-path="url(#boundsClip-1)"><g class="LineLabels" style="cursor:default"><g class="legendMark"><rect x="726.1" y="498.1" width="107.9" height="13.5" fill="#fff" opacity="0"></rect><text font-size="13.50" font-weight="400" x="730.1" y="509.8" fill="#c15065"><tspan x="730.1" y="509.845">All disasters</tspan></text></g></g><g class="Lines"><rect x="136" y="104" width="591" height="408" fill="rgba(255,255,255,0)" opacity="0"></rect><g><path stroke-linecap="round" stroke-linejoin="round" stroke="#ddd" d="M135.5 511.6L140.4 511.6L145.3 511.6L150.2 511.6L155.1 511.3L159.9 510.1L164.8 511.6L169.7 511.6L174.6 511.6L179.5 511.6L184.3 511.6L189.2 510L194.1 511.6L199 510.9L203.9 511.6L208.7 511.6L213.6 511.6L218.5 511.6L223.4 511.6L228.3 511.6L233.1 511.6L238 511.4L242.9 511.2L247.8 511.4L252.7 511.4L257.6 511L262.4 509.1L267.3 511.6L272.2 511.6L277.1 511.2L282 511.6L286.8 511.3L291.7 461.7L296.6 511.6L301.5 508.3L306.4 508.5L311.2 511.6L316.1 511.5L321 511.4L325.9 510.7L330.8 511.1L335.6 511.6L340.5 511.3L345.4 510.1L350.3 511.3L355.2 511.6L360 511.1L364.9 507.1L369.8 511.5L374.7 511L379.6 507L384.5 511.5L389.3 509.6L394.2 509.7L399.1 506.4L404 510.5L408.9 511.6L413.7 511.6L418.6 511.6L423.5 511.6L428.4 511.6L433.3 511.2L438.1 511.5L443 508.6L447.9 440.1L452.8 482.6L457.7 507L462.5 497.8L467.4 509L472.3 503.7L477.2 482.6L482.1 496L486.9 509.5L491.8 482.4L496.7 413.4L501.6 487.8L506.5 426.3L511.3 508L516.2 495.1L521.1 474.1L526 507.5L530.9 497.1L535.8 491.7L540.6 484.9L545.5 482.6L550.4 447.7L555.3 489.4L560.2 435.1L565 485.4L569.9 485.5L574.8 416.6L579.7 445.9L584.6 494.8L589.4 382.7L594.3 430.6L599.2 414.6L604.1 465.4L609 103.8L613.8 420.3L618.7 487.1L623.6 468.5L628.5 506.7L633.4 471.4L638.2 475.9L643.1 424.8L648 425.6L652.9 495.6L657.8 466.7L662.7 504.5L667.5 478L672.4 484.4L677.3 497.9L682.2 507L687.1 492.7L691.9 503L696.8 477.6L701.7 503.4L706.6 505.8L711.5 506.2L716.3 501.6L721.2 509.5L726.1 511" fill="none" stroke-width="1"></path></g><g><path fill="none" stroke-linecap="butt" stroke-linejoin="round" stroke="#fff" stroke-width="2.5" d="M135.5 511.6L140.4 511.6L145.3 511.6L150.2 511.6L155.1 511.3L159.9 510.1L164.8 511.6L169.7 511.6L174.6 511.6L179.5 511.6L184.3 511.6L189.2 510L194.1 511.6L199 510.9L203.9 511.6L208.7 511.6L213.6 511.6L218.5 511.6L223.4 511.6L228.3 511.6L233.1 511.6L238 511.4L242.9 511.2L247.8 511.4L252.7 511.4L257.6 511L262.4 509.1L267.3 511.6L272.2 511.6L277.1 511.2L282 511.6L286.8 511.3L291.7 461.7L296.6 511.6L301.5 508.3L306.4 508.5L311.2 511.6L316.1 511.5L321 511.4L325.9 510.7L330.8 511.1L335.6 511.6L340.5 511.3L345.4 510.1L350.3 511.3L355.2 511.6L360 511.1L364.9 507.1L369.8 511.5L374.7 511L379.6 507L384.5 511.5L389.3 509.6L394.2 509.7L399.1 506.4L404 510.5L408.9 511.6L413.7 511.6L418.6 511.6L423.5 511.6L428.4 511.6L433.3 511.2L438.1 511.5L443 508.6L447.9 440.1L452.8 482.6L457.7 507L462.5 497.8L467.4 509L472.3 503.7L477.2 482.6L482.1 496L486.9 509.5L491.8 482.4L496.7 413.4L501.6 487.8L506.5 426.3L511.3 508L516.2 495.1L521.1 474.1L526 507.5L530.9 497.1L535.8 491.7L540.6 484.9L545.5 482.6L550.4 447.7L555.3 489.4L560.2 435.1L565 485.4L569.9 485.5L574.8 416.6L579.7 445.9L584.6 494.8L589.4 382.7L594.3 430.6L599.2 414.6L604.1 465.4L609 103.8L613.8 420.3L618.7 487.1L623.6 468.5L628.5 506.7L633.4 471.4L638.2 475.9L643.1 424.8L648 425.6L652.9 495.6L657.8 466.7L662.7 504.5L667.5 478L672.4 484.4L677.3 497.9L682.2 507L687.1 492.7L691.9 503L696.8 477.6L701.7 503.4L706.6 505.8L711.5 506.2L716.3 501.6L721.2 509.5L726.1 511"></path><polyline points="135.50,511.60 140.40,511.60 145.30,511.60 150.20,511.60 155.10,511.30 159.90,510.10 164.80,511.60 169.70,511.60 174.60,511.60 179.50,511.60 184.30,511.60 189.20,510.00 194.10,511.60 199.00,510.90 203.90,511.60 208.70,511.60 213.60,511.60 218.50,511.60 223.40,511.60 228.30,511.60 233.10,511.60 238.00,511.40 242.90,511.20 247.80,511.40 252.70,511.40 257.60,511.00 262.40,509.10 267.30,511.60 272.20,511.60 277.10,511.20 282.00,511.60 286.80,511.30 291.70,461.70 296.60,511.60 301.50,508.30 306.40,508.50 311.20,511.60 316.10,511.50 321.00,511.40 325.90,510.70 330.80,511.10 335.60,511.60 340.50,511.30 345.40,510.10 350.30,511.30 355.20,511.60 360.00,511.10 364.90,507.10 369.80,511.50 374.70,511.00 379.60,507.00 384.50,511.50 389.30,509.60 394.20,509.70 399.10,506.40 404.00,510.50 408.90,511.60 413.70,511.60 418.60,511.60 423.50,511.60 428.40,511.60 433.30,511.20 438.10,511.50 443.00,508.60 447.90,440.10 452.80,482.60 457.70,507.00 462.50,497.80 467.40,509.00 472.30,503.70 477.20,482.60 482.10,496.00 486.90,509.50 491.80,482.40 496.70,413.40 501.60,487.80 506.50,426.30 511.30,508.00 516.20,495.10 521.10,474.10 526.00,507.50 530.90,497.10 535.80,491.70 540.60,484.90 545.50,482.60 550.40,447.70 555.30,489.40 560.20,435.10 565.00,485.40 569.90,485.50 574.80,416.60 579.70,445.90 584.60,494.80 589.40,382.70 594.30,430.60 599.20,414.60 604.10,465.40 609.00,103.80 613.80,420.30 618.70,487.10 623.60,468.50 628.50,506.70 633.40,471.40 638.20,475.90 643.10,424.80 648.00,425.60 652.90,495.60 657.80,466.70 662.70,504.50 667.50,478.00 672.40,484.40 677.30,497.90 682.20,507.00 687.10,492.70 691.90,503.00 696.80,477.60 701.70,503.40 706.60,505.80 711.50,506.20 716.30,501.60 721.20,509.50 726.10,511.00" stroke-linejoin="round" stroke-width="1.5" stroke="#C15065" fill="none" stroke-linecap="butt"></polyline><g><circle cx="135.5" cy="511.6" r="1.8" fill="#C15065"></circle><circle cx="140.4" cy="511.6" r="1.8" fill="#C15065"></circle><circle cx="145.3" cy="511.6" r="1.8" fill="#C15065"></circle><circle cx="150.2" cy="511.6" r="1.8" fill="#C15065"></circle><circle cx="155.1" cy="511.3" r="1.8" fill="#C15065"></circle><circle cx="159.9" cy="510.1" r="1.8" fill="#C15065"></circle><circle cx="164.8" cy="511.6" r="1.8" fill="#C15065"></circle><circle cx="169.7" cy="511.6" r="1.8" fill="#C15065"></circle><circle cx="174.6" cy="511.6" r="1.8" fill="#C15065"></circle><circle cx="179.5" cy="511.6" r="1.8" fill="#C15065"></circle><circle cx="184.3" cy="511.6" r="1.8" fill="#C15065"></circle><circle cx="189.2" cy="510" r="1.8" fill="#C15065"></circle><circle cx="194.1" cy="511.6" r="1.8" fill="#C15065"></circle><circle cx="199" cy="510.9" r="1.8" fill="#C15065"></circle><circle cx="203.9" cy="511.6" r="1.8" fill="#C15065"></circle><circle cx="208.7" cy="511.6" r="1.8" fill="#C15065"></circle><circle cx="213.6" cy="511.6" r="1.8" fill="#C15065"></circle><circle cx="218.5" cy="511.6" r="1.8" fill="#C15065"></circle><circle cx="223.4" cy="511.6" r="1.8" fill="#C15065"></circle><circle cx="228.3" cy="511.6" r="1.8" fill="#C15065"></circle><circle cx="233.1" cy="511.6" r="1.8" fill="#C15065"></circle><circle cx="238" cy="511.4" r="1.8" fill="#C15065"></circle><circle cx="242.9" cy="511.2" r="1.8" fill="#C15065"></circle><circle cx="247.8" cy="511.4" r="1.8" fill="#C15065"></circle><circle cx="252.7" cy="511.4" r="1.8" fill="#C15065"></circle><circle cx="257.6" cy="511" r="1.8" fill="#C15065"></circle><circle cx="262.4" cy="509.1" r="1.8" fill="#C15065"></circle><circle cx="267.3" cy="511.6" r="1.8" fill="#C15065"></circle><circle cx="272.2" cy="511.6" r="1.8" fill="#C15065"></circle><circle cx="277.1" cy="511.2" r="1.8" fill="#C15065"></circle><circle cx="282" cy="511.6" r="1.8" fill="#C15065"></circle><circle cx="286.8" cy="511.3" r="1.8" fill="#C15065"></circle><circle cx="291.7" cy="461.7" r="1.8" fill="#C15065"></circle><circle cx="296.6" cy="511.6" r="1.8" fill="#C15065"></circle><circle cx="301.5" cy="508.3" r="1.8" fill="#C15065"></circle><circle cx="306.4" cy="508.5" r="1.8" fill="#C15065"></circle><circle cx="311.2" cy="511.6" r="1.8" fill="#C15065"></circle><circle cx="316.1" cy="511.5" r="1.8" fill="#C15065"></circle><circle cx="321" cy="511.4" r="1.8" fill="#C15065"></circle><circle cx="325.9" cy="510.7" r="1.8" fill="#C15065"></circle><circle cx="330.8" cy="511.1" r="1.8" fill="#C15065"></circle><circle cx="335.6" cy="511.6" r="1.8" fill="#C15065"></circle><circle cx="340.5" cy="511.3" r="1.8" fill="#C15065"></circle><circle cx="345.4" cy="510.1" r="1.8" fill="#C15065"></circle><circle cx="350.3" cy="511.3" r="1.8" fill="#C15065"></circle><circle cx="355.2" cy="511.6" r="1.8" fill="#C15065"></circle><circle cx="360" cy="511.1" r="1.8" fill="#C15065"></circle><circle cx="364.9" cy="507.1" r="1.8" fill="#C15065"></circle><circle cx="369.8" cy="511.5" r="1.8" fill="#C15065"></circle><circle cx="374.7" cy="511" r="1.8" fill="#C15065"></circle><circle cx="379.6" cy="507" r="1.8" fill="#C15065"></circle><circle cx="384.5" cy="511.5" r="1.8" fill="#C15065"></circle><circle cx="389.3" cy="509.6" r="1.8" fill="#C15065"></circle><circle cx="394.2" cy="509.7" r="1.8" fill="#C15065"></circle><circle cx="399.1" cy="506.4" r="1.8" fill="#C15065"></circle><circle cx="404" cy="510.5" r="1.8" fill="#C15065"></circle><circle cx="408.9" cy="511.6" r="1.8" fill="#C15065"></circle><circle cx="413.7" cy="511.6" r="1.8" fill="#C15065"></circle><circle cx="418.6" cy="511.6" r="1.8" fill="#C15065"></circle><circle cx="423.5" cy="511.6" r="1.8" fill="#C15065"></circle><circle cx="428.4" cy="511.6" r="1.8" fill="#C15065"></circle><circle cx="433.3" cy="511.2" r="1.8" fill="#C15065"></circle><circle cx="438.1" cy="511.5" r="1.8" fill="#C15065"></circle><circle cx="443" cy="508.6" r="1.8" fill="#C15065"></circle><circle cx="447.9" cy="440.1" r="1.8" fill="#C15065"></circle><circle cx="452.8" cy="482.6" r="1.8" fill="#C15065"></circle><circle cx="457.7" cy="507" r="1.8" fill="#C15065"></circle><circle cx="462.5" cy="497.8" r="1.8" fill="#C15065"></circle><circle cx="467.4" cy="509" r="1.8" fill="#C15065"></circle><circle cx="472.3" cy="503.7" r="1.8" fill="#C15065"></circle><circle cx="477.2" cy="482.6" r="1.8" fill="#C15065"></circle><circle cx="482.1" cy="496" r="1.8" fill="#C15065"></circle><circle cx="486.9" cy="509.5" r="1.8" fill="#C15065"></circle><circle cx="491.8" cy="482.4" r="1.8" fill="#C15065"></circle><circle cx="496.7" cy="413.4" r="1.8" fill="#C15065"></circle><circle cx="501.6" cy="487.8" r="1.8" fill="#C15065"></circle><circle cx="506.5" cy="426.3" r="1.8" fill="#C15065"></circle><circle cx="511.3" cy="508" r="1.8" fill="#C15065"></circle><circle cx="516.2" cy="495.1" r="1.8" fill="#C15065"></circle><circle cx="521.1" cy="474.1" r="1.8" fill="#C15065"></circle><circle cx="526" cy="507.5" r="1.8" fill="#C15065"></circle><circle cx="530.9" cy="497.1" r="1.8" fill="#C15065"></circle><circle cx="535.8" cy="491.7" r="1.8" fill="#C15065"></circle><circle cx="540.6" cy="484.9" r="1.8" fill="#C15065"></circle><circle cx="545.5" cy="482.6" r="1.8" fill="#C15065"></circle><circle cx="550.4" cy="447.7" r="1.8" fill="#C15065"></circle><circle cx="555.3" cy="489.4" r="1.8" fill="#C15065"></circle><circle cx="560.2" cy="435.1" r="1.8" fill="#C15065"></circle><circle cx="565" cy="485.4" r="1.8" fill="#C15065"></circle><circle cx="569.9" cy="485.5" r="1.8" fill="#C15065"></circle><circle cx="574.8" cy="416.6" r="1.8" fill="#C15065"></circle><circle cx="579.7" cy="445.9" r="1.8" fill="#C15065"></circle><circle cx="584.6" cy="494.8" r="1.8" fill="#C15065"></circle><circle cx="589.4" cy="382.7" r="1.8" fill="#C15065"></circle><circle cx="594.3" cy="430.6" r="1.8" fill="#C15065"></circle><circle cx="599.2" cy="414.6" r="1.8" fill="#C15065"></circle><circle cx="604.1" cy="465.4" r="1.8" fill="#C15065"></circle><circle cx="609" cy="103.8" r="1.8" fill="#C15065"></circle><circle cx="613.8" cy="420.3" r="1.8" fill="#C15065"></circle><circle cx="618.7" cy="487.1" r="1.8" fill="#C15065"></circle><circle cx="623.6" cy="468.5" r="1.8" fill="#C15065"></circle><circle cx="628.5" cy="506.7" r="1.8" fill="#C15065"></circle><circle cx="633.4" cy="471.4" r="1.8" fill="#C15065"></circle><circle cx="638.2" cy="475.9" r="1.8" fill="#C15065"></circle><circle cx="643.1" cy="424.8" r="1.8" fill="#C15065"></circle><circle cx="648" cy="425.6" r="1.8" fill="#C15065"></circle><circle cx="652.9" cy="495.6" r="1.8" fill="#C15065"></circle><circle cx="657.8" cy="466.7" r="1.8" fill="#C15065"></circle><circle cx="662.7" cy="504.5" r="1.8" fill="#C15065"></circle><circle cx="667.5" cy="478" r="1.8" fill="#C15065"></circle><circle cx="672.4" cy="484.4" r="1.8" fill="#C15065"></circle><circle cx="677.3" cy="497.9" r="1.8" fill="#C15065"></circle><circle cx="682.2" cy="507" r="1.8" fill="#C15065"></circle><circle cx="687.1" cy="492.7" r="1.8" fill="#C15065"></circle><circle cx="691.9" cy="503" r="1.8" fill="#C15065"></circle><circle cx="696.8" cy="477.6" r="1.8" fill="#C15065"></circle><circle cx="701.7" cy="503.4" r="1.8" fill="#C15065"></circle><circle cx="706.6" cy="505.8" r="1.8" fill="#C15065"></circle><circle cx="711.5" cy="506.2" r="1.8" fill="#C15065"></circle><circle cx="716.3" cy="501.6" r="1.8" fill="#C15065"></circle><circle cx="721.2" cy="509.5" r="1.8" fill="#C15065"></circle><circle cx="726.1" cy="511" r="1.8" fill="#C15065"></circle></g></g></g></g></g><g class="SourcesFooter" style="fill:#5b5b5b"><text x="16.0" y="563.4" style="font-size:13px;line-height:1.2"><tspan x="16" y="563.4"><tspan style="font-weight:700">Data source:</tspan> EM-DAT, CRED / Université catholique de Louvain, Brussels (Belgium)</tspan></text><text font-size="13.00" x="16.0" y="581.0"><tspan x="16" y="581.01"><a target="_blank" style="fill: #5b5b5b; text-decoration: underline;" href="https://ourworldindata.org/natural-disasters">OurWorldInData.org/natural-disasters</a> | <a target="_blank" style="fill: #5b5b5b; text-decoration: underline;" href="https://creativecommons.org/licenses/by/4.0/">CC BY</a></tspan></text></g></svg>