<svg xmlns="http://www.w3.org/2000/svg" version="1.1" style="font-family:Lato, &#x27;Helvetica Neue&#x27;, Helvetica, Arial, &#x27;Liberation Sans&#x27;, sans-serif;font-size:18px;background-color:#ffffff;text-rendering:geometricPrecision;-webkit-font-smoothing:antialiased" width="850" height="600" viewBox="0 0 850 600"><defs><style>@import url(https://ourworldindata.org/fonts.css)</style></defs><defs><pattern id="noDataPattern" patternUnits="userSpaceOnUse" width="4" height="4" patternTransform="rotate(-45 2 2)"><path d="M -1,2 l 6,0" stroke="#ccc" stroke-width="0.7"></path></pattern></defs><rect class="background-fill" fill="#ffffff" width="850" height="600"></rect><g id="header" class="HeaderView"><g id="logo" transform="translate(769, 16) scale(1)"><svg className="owidLogo" xmlns="http://www.w3.org/2000/svg" width="65" height="36" viewBox="0 0 65 36"  fill="none"><path fill="#002147" d="M0 0h64.8v36H0z"/><path fill="#CE261E" d="M0 33.3h64.8V36H0z"/><path fill="#fff" d="M13.796 10.575c0 .636-.106 1.226-.318 1.77a4.193 4.193 0 0 1-.894 1.404 4.084 4.084 0 0 1-1.386.93c-.54.22-1.138.33-1.794.33-.656 0-1.256-.11-1.8-.33a4.149 4.149 0 0 1-1.392-.93 4.193 4.193 0 0 1-.894-1.404A4.833 4.833 0 0 1 5 10.575c0-.636.106-1.224.318-1.764a4.18 4.18 0 0 1 .894-1.41 4.076 4.076 0 0 1 1.392-.924 4.684 4.684 0 0 1 1.8-.336c.656 0 1.254.112 1.794.336.54.224 1.002.534 1.386.93.384.392.682.86.894 1.404.212.54.318 1.128.318 1.764Zm-1.656 0c0-.476-.064-.902-.192-1.278a2.671 2.671 0 0 0-.54-.966 2.332 2.332 0 0 0-.864-.606 2.94 2.94 0 0 0-1.14-.21c-.424 0-.806.07-1.146.21-.34.14-.63.342-.87.606a2.742 2.742 0 0 0-.546.966 3.955 3.955 0 0 0-.192 1.278c0 .476.064.904.192 1.284.128.376.31.696.546.96.24.26.53.46.87.6.34.14.722.21 1.146.21.424 0 .804-.07 1.14-.21.34-.14.628-.34.864-.6.236-.264.416-.584.54-.96a4.01 4.01 0 0 0 .192-1.284ZM16.104 8.757v3.912c0 .376.086.668.258.876.176.204.438.306.786.306.256 0 .496-.056.72-.168a2.58 2.58 0 0 0 .636-.474V8.757h1.482v6.156h-.906c-.192 0-.318-.09-.378-.27l-.102-.492a4.65 4.65 0 0 1-.396.354 2.577 2.577 0 0 1-.438.27 2.35 2.35 0 0 1-.498.168 2.345 2.345 0 0 1-.57.066c-.336 0-.634-.056-.894-.168a1.821 1.821 0 0 1-.648-.486 2.157 2.157 0 0 1-.402-.738 3.233 3.233 0 0 1-.132-.948V8.757h1.482ZM21.328 14.913V8.757h.87c.152 0 .258.028.318.084.06.056.1.152.12.288l.09.744c.22-.38.478-.68.774-.9.296-.22.628-.33.996-.33.304 0 .556.07.756.21l-.192 1.11c-.012.072-.038.124-.078.156a.278.278 0 0 1-.162.042 1.01 1.01 0 0 1-.246-.042 1.646 1.646 0 0 0-.414-.042c-.308 0-.572.086-.792.258-.22.168-.406.416-.558.744v3.834h-1.482ZM27.347 6.237h1.356a.57.57 0 0 1 .348.102c.096.064.16.152.192.264l1.476 5.19c.036.128.068.268.096.42.032.148.062.306.09.474a5.968 5.968 0 0 1 .228-.894l1.704-5.19a.575.575 0 0 1 .186-.252.543.543 0 0 1 .348-.114h.474a.57.57 0 0 1 .348.102.497.497 0 0 1 .192.264l1.692 5.19c.088.256.164.54.228.852.028-.156.056-.306.084-.45.032-.144.064-.278.096-.402l1.476-5.19c.028-.1.09-.186.186-.258a.563.563 0 0 1 .348-.108h1.266l-2.694 8.676h-1.458l-1.896-5.928-.078-.246a9.504 9.504 0 0 1-.072-.282c-.024.1-.05.194-.078.282-.024.088-.048.17-.072.246l-1.914 5.928H30.04l-2.694-8.676ZM42.771 8.661c.46 0 .876.074 1.248.222.376.148.696.358.96.63s.468.604.612.996c.144.392.216.83.216 1.314 0 .488-.072.928-.216 1.32a2.85 2.85 0 0 1-.612 1.002 2.653 2.653 0 0 1-.96.636 3.35 3.35 0 0 1-1.248.222c-.46 0-.878-.074-1.254-.222a2.712 2.712 0 0 1-.966-.636 2.922 2.922 0 0 1-.618-1.002 3.807 3.807 0 0 1-.216-1.32c0-.484.072-.922.216-1.314.148-.392.354-.724.618-.996.268-.272.59-.482.966-.63a3.397 3.397 0 0 1 1.254-.222Zm0 5.202c.512 0 .89-.172 1.134-.516.248-.344.372-.848.372-1.512s-.124-1.17-.372-1.518c-.244-.348-.622-.522-1.134-.522-.52 0-.904.176-1.152.528-.248.348-.372.852-.372 1.512s.124 1.164.372 1.512c.248.344.632.516 1.152.516ZM46.723 14.913V8.757h.87c.152 0 .258.028.318.084.06.056.1.152.12.288l.09.744c.22-.38.478-.68.774-.9.296-.22.628-.33.996-.33.304 0 .556.07.756.21l-.192 1.11c-.012.072-.038.124-.078.156a.278.278 0 0 1-.162.042 1.01 1.01 0 0 1-.246-.042 1.646 1.646 0 0 0-.414-.042c-.308 0-.572.086-.792.258-.22.168-.406.416-.558.744v3.834h-1.482ZM52.96 5.997v8.916h-1.482V5.997h1.482ZM58.732 14.913c-.192 0-.318-.09-.378-.27l-.12-.594a3.68 3.68 0 0 1-.402.39c-.14.116-.292.216-.456.3-.16.084-.334.148-.522.192a2.372 2.372 0 0 1-.6.072c-.336 0-.644-.07-.924-.21a2.098 2.098 0 0 1-.726-.606 3.033 3.033 0 0 1-.468-.99 5.072 5.072 0 0 1-.162-1.344c0-.456.062-.88.186-1.272s.302-.732.534-1.02c.232-.288.51-.512.834-.672a2.384 2.384 0 0 1 1.092-.246 2.103 2.103 0 0 1 1.536.606V5.997h1.482v8.916h-.906Zm-1.974-1.086c.308 0 .57-.064.786-.192.216-.128.42-.31.612-.546v-2.76a1.452 1.452 0 0 0-.552-.432 1.597 1.597 0 0 0-.636-.126c-.224 0-.428.042-.612.126a1.21 1.21 0 0 0-.462.384c-.124.168-.22.384-.288.648-.068.26-.102.568-.102.924 0 .36.028.666.084.918.06.248.144.452.252.612.108.156.24.27.396.342.156.068.33.102.522.102ZM16.331 20.757v6.156H14.85v-6.156h1.481Zm.223-1.794a.844.844 0 0 1-.078.36.963.963 0 0 1-.21.294.995.995 0 0 1-.3.204.963.963 0 0 1-.372.072.948.948 0 0 1-.367-.072 1.018 1.018 0 0 1-.498-.498.963.963 0 0 1 0-.732.995.995 0 0 1 .205-.3.929.929 0 0 1 .293-.198.899.899 0 0 1 .738 0 .912.912 0 0 1 .3.198.943.943 0 0 1 .288.672ZM17.771 26.913v-6.156h.906c.192 0 .318.09.378.27l.102.486a2.934 2.934 0 0 1 .828-.618c.156-.076.322-.134.498-.174.176-.04.368-.06.576-.06.336 0 .634.058.894.174.26.112.476.272.648.48.176.204.308.45.396.738.092.284.138.598.138.942v3.918h-1.482v-3.918c0-.376-.088-.666-.264-.87-.172-.208-.432-.312-.78-.312-.256 0-.496.058-.72.174a2.58 2.58 0 0 0-.636.474v4.452h-1.482ZM34.22 22.575c0 .636-.106 1.22-.318 1.752-.212.532-.51.99-.894 1.374a4 4 0 0 1-1.386.894 4.87 4.87 0 0 1-1.794.318h-3.312v-8.676h3.312a4.79 4.79 0 0 1 1.794.324 4 4 0 0 1 1.386.894c.384.38.682.836.894 1.368.212.532.318 1.116.318 1.752Zm-1.65 0c0-.476-.064-.902-.192-1.278a2.68 2.68 0 0 0-.546-.96 2.332 2.332 0 0 0-.864-.606 2.94 2.94 0 0 0-1.14-.21h-1.686v6.108h1.686c.424 0 .804-.07 1.14-.21.34-.14.628-.34.864-.6a2.75 2.75 0 0 0 .546-.96 4.01 4.01 0 0 0 .192-1.284ZM39.98 26.913h-.665c-.14 0-.25-.02-.33-.06-.08-.044-.14-.13-.18-.258l-.132-.438c-.156.14-.31.264-.462.372a2.804 2.804 0 0 1-.462.264c-.16.072-.33.126-.51.162-.18.036-.38.054-.6.054-.26 0-.5-.034-.72-.102a1.618 1.618 0 0 1-.57-.318 1.448 1.448 0 0 1-.366-.522 1.852 1.852 0 0 1-.132-.726c0-.232.06-.46.18-.684.124-.228.328-.432.612-.612.284-.184.662-.336 1.134-.456.472-.12 1.058-.188 1.758-.204v-.36c0-.412-.088-.716-.264-.912-.172-.2-.424-.3-.756-.3a1.837 1.837 0 0 0-1.02.276c-.116.068-.224.13-.324.186a.664.664 0 0 1-.33.084.429.429 0 0 1-.258-.078.614.614 0 0 1-.174-.192l-.27-.474c.708-.648 1.562-.972 2.562-.972.36 0 .68.06.96.18.284.116.524.28.72.492.196.208.344.458.444.75.104.292.156.612.156.96v3.888Zm-2.88-.924c.153 0 .293-.014.42-.042.129-.028.249-.07.36-.126.117-.056.227-.124.33-.204.109-.084.217-.182.325-.294v-1.038c-.432.02-.794.058-1.086.114-.288.052-.52.12-.696.204a.923.923 0 0 0-.378.294.664.664 0 0 0-.108.366c0 .26.076.446.228.558.156.112.358.168.606.168ZM43.22 27.01c-.532 0-.942-.15-1.23-.45-.288-.305-.432-.723-.432-1.255v-3.438h-.624a.31.31 0 0 1-.21-.078c-.056-.052-.084-.13-.084-.234v-.588l.99-.162.312-1.68a.302.302 0 0 1 .108-.186.365.365 0 0 1 .222-.066h.768v1.938h1.62v1.056h-1.62v3.336c0 .192.048.342.144.45a.488.488 0 0 0 .384.162c.092 0 .168-.01.228-.03.064-.024.118-.048.162-.072.048-.024.09-.046.126-.066a.194.194 0 0 1 .108-.036.16.16 0 0 1 .108.036c.028.02.058.052.09.096l.444.72c-.216.18-.464.316-.744.408a2.77 2.77 0 0 1-.87.138ZM50.423 26.913h-.666c-.14 0-.25-.02-.33-.06-.08-.044-.14-.13-.18-.258l-.132-.438c-.156.14-.31.264-.462.372a2.804 2.804 0 0 1-.462.264c-.16.072-.33.126-.51.162-.18.036-.38.054-.6.054-.26 0-.5-.034-.72-.102a1.618 1.618 0 0 1-.57-.318 1.448 1.448 0 0 1-.366-.522 1.852 1.852 0 0 1-.132-.726c0-.232.06-.46.18-.684.124-.228.328-.432.612-.612.284-.184.662-.336 1.134-.456.472-.12 1.058-.188 1.758-.204v-.36c0-.412-.088-.716-.264-.912-.172-.2-.424-.3-.756-.3a1.837 1.837 0 0 0-1.02.276c-.116.068-.224.13-.324.186a.664.664 0 0 1-.33.084.429.429 0 0 1-.258-.078.614.614 0 0 1-.174-.192l-.27-.474c.708-.648 1.562-.972 2.562-.972.36 0 .68.06.96.18.284.116.524.28.72.492.196.208.344.458.444.75.104.292.156.612.156.96v3.888Zm-2.88-.924c.152 0 .292-.014.42-.042.128-.028.248-.07.36-.126.116-.056.226-.124.33-.204.108-.084.216-.182.324-.294v-1.038c-.432.02-.794.058-1.086.114-.288.052-.52.12-.696.204a.923.923 0 0 0-.378.294.664.664 0 0 0-.108.366c0 .26.076.446.228.558.156.112.358.168.606.168Z"/></svg></g><a id="title" href="https://ourworldindata.org/grapher/share-plastic-waste-recycled" style="font-family:&#x27;Playfair Display&#x27;, Georgia, &#x27;Times New Roman&#x27;, &#x27;Liberation Serif&#x27;, serif" target="_blank" rel="noopener"><text font-size="24.75" font-weight="600" x="16.0" y="40.0" fill="#5b5b5b"><tspan x="16" y="40.0075">Share of plastic waste that is recycled, 2000 to 2019</tspan></text></a></g><g id="chart-area" style="pointer-events:none"><g id="grid-lines"><line id="0%" x1="48.135000000000005" y1="513.4" x2="824" y2="513.4" stroke="#ddd" stroke-dasharray="3,2"></line><line id="2%" x1="48.135000000000005" y1="450.6" x2="824" y2="450.6" stroke="#ddd" stroke-dasharray="3,2"></line><line id="4%" x1="48.135000000000005" y1="387.8" x2="824" y2="387.8" stroke="#ddd" stroke-dasharray="3,2"></line><line id="6%" x1="48.135000000000005" y1="325.1" x2="824" y2="325.1" stroke="#ddd" stroke-dasharray="3,2"></line><line id="8%" x1="48.135000000000005" y1="262.3" x2="824" y2="262.3" stroke="#ddd" stroke-dasharray="3,2"></line><line id="10%" x1="48.135000000000005" y1="199.5" x2="824" y2="199.5" stroke="#ddd" stroke-dasharray="3,2"></line><line id="12%" x1="48.135000000000005" y1="136.8" x2="824" y2="136.8" stroke="#ddd" stroke-dasharray="3,2"></line><line id="14%" x1="48.135000000000005" y1="74" x2="824" y2="74" stroke="#ddd" stroke-dasharray="3,2"></line></g><g id="vertical-axis" class="VerticalAxis"><g id="tick-labels"><text x="43.14" y="513.4" dy=".32em" text-anchor="end" fill="#5b5b5b" font-size="13.5">0%</text><text x="43.14" y="450.6" dy=".32em" text-anchor="end" fill="#5b5b5b" font-size="13.5">2%</text><text x="43.14" y="387.8" dy=".32em" text-anchor="end" fill="#5b5b5b" font-size="13.5">4%</text><text x="43.14" y="325.1" dy=".32em" text-anchor="end" fill="#5b5b5b" font-size="13.5">6%</text><text x="43.14" y="262.3" dy=".32em" text-anchor="end" fill="#5b5b5b" font-size="13.5">8%</text><text x="43.14" y="199.5" dy=".32em" text-anchor="end" fill="#5b5b5b" font-size="13.5">10%</text><text x="43.14" y="136.8" dy=".32em" text-anchor="end" fill="#5b5b5b" font-size="13.5">12%</text><text x="43.14" y="74" dy=".32em" text-anchor="end" fill="#5b5b5b" font-size="13.5">14%</text></g></g><g id="horizontal-axis"><line id="2000" x1="246.78000000000003" y1="74" x2="246.78000000000003" y2="513.35" stroke="#999"></line><text x="246.78000000000003" y="521.35" dy=".71em" text-anchor="middle" fill="#5b5b5b" font-size="13.5">2000</text><line id="2019" x1="622" y1="74" x2="622" y2="513.35" stroke="#999"></line><text x="622" y="521.35" dy=".71em" text-anchor="middle" fill="#5b5b5b" font-size="13.5">2019</text></g><g id="slopes"><g id="Americas-(excl.-USA)" class="slope"><path d="M 246.78000000000003,362.7 A 2.5,2.5 0 1,1 246.77990000000003,362.7 M 622,211 A 2.5,2.5 0 1,1 621.9999,211 M 246.78000000000003,365.2 L 622,213.5" fill="#ffffff" stroke="#ffffff" stroke-width="2.5" opacity="1"></path><path d="M 246.78000000000003,362.7 A 2.5,2.5 0 1,1 246.77990000000003,362.7 M 622,211 A 2.5,2.5 0 1,1 621.9999,211 M 246.78000000000003,365.2 L 622,213.5" fill="#4c6a9c" stroke="#4c6a9c" stroke-width="1.5" opacity="1"></path></g><g id="Asia-(excl.-China-and-India)" class="slope"><path d="M 246.78000000000003,390.8 A 2.5,2.5 0 1,1 246.77990000000003,390.8 M 622,248.8 A 2.5,2.5 0 1,1 621.9999,248.8 M 246.78000000000003,393.3 L 622,251.3" fill="#ffffff" stroke="#ffffff" stroke-width="2.5" opacity="1"></path><path d="M 246.78000000000003,390.8 A 2.5,2.5 0 1,1 246.77990000000003,390.8 M 622,248.8 A 2.5,2.5 0 1,1 621.9999,248.8 M 246.78000000000003,393.3 L 622,251.3" fill="#b13507" stroke="#b13507" stroke-width="1.5" opacity="1"></path></g><g id="China" class="slope"><path d="M 246.78000000000003,360.8 A 2.5,2.5 0 1,1 246.77990000000003,360.8 M 622,109.1 A 2.5,2.5 0 1,1 621.9999,109.1 M 246.78000000000003,363.3 L 622,111.6" fill="#ffffff" stroke="#ffffff" stroke-width="2.5" opacity="1"></path><path d="M 246.78000000000003,360.8 A 2.5,2.5 0 1,1 246.77990000000003,360.8 M 622,109.1 A 2.5,2.5 0 1,1 621.9999,109.1 M 246.78000000000003,363.3 L 622,111.6" fill="#6d3e91" stroke="#6d3e91" stroke-width="1.5" opacity="1"></path></g><g id="Europe" class="slope"><path d="M 246.78000000000003,371.7 A 2.5,2.5 0 1,1 246.77990000000003,371.7 M 622,122.2 A 2.5,2.5 0 1,1 621.9999,122.2 M 246.78000000000003,374.2 L 622,124.7" fill="#ffffff" stroke="#ffffff" stroke-width="2.5" opacity="1"></path><path d="M 246.78000000000003,371.7 A 2.5,2.5 0 1,1 246.77990000000003,371.7 M 622,122.2 A 2.5,2.5 0 1,1 621.9999,122.2 M 246.78000000000003,374.2 L 622,124.7" fill="#18470f" stroke="#18470f" stroke-width="1.5" opacity="1"></path></g><g id="India" class="slope"><path d="M 246.78000000000003,351.7 A 2.5,2.5 0 1,1 246.77990000000003,351.7 M 622,92.4 A 2.5,2.5 0 1,1 621.9999,92.4 M 246.78000000000003,354.2 L 622,94.9" fill="#ffffff" stroke="#ffffff" stroke-width="2.5" opacity="1"></path><path d="M 246.78000000000003,351.7 A 2.5,2.5 0 1,1 246.77990000000003,351.7 M 622,92.4 A 2.5,2.5 0 1,1 621.9999,92.4 M 246.78000000000003,354.2 L 622,94.9" fill="#e56e5a" stroke="#e56e5a" stroke-width="1.5" opacity="1"></path></g><g id="Middle-East-&amp;-North-Africa" class="slope"><path d="M 246.78000000000003,421.8 A 2.5,2.5 0 1,1 246.77990000000003,421.8 M 622,339.9 A 2.5,2.5 0 1,1 621.9999,339.9 M 246.78000000000003,424.3 L 622,342.4" fill="#ffffff" stroke="#ffffff" stroke-width="2.5" opacity="1"></path><path d="M 246.78000000000003,421.8 A 2.5,2.5 0 1,1 246.77990000000003,421.8 M 622,339.9 A 2.5,2.5 0 1,1 621.9999,339.9 M 246.78000000000003,424.3 L 622,342.4" fill="#bc8e5a" stroke="#bc8e5a" stroke-width="1.5" opacity="1"></path></g><g id="Oceania" class="slope"><path d="M 246.78000000000003,391.6 A 2.5,2.5 0 1,1 246.77990000000003,391.6 M 622,295.2 A 2.5,2.5 0 1,1 621.9999,295.2 M 246.78000000000003,394.1 L 622,297.7" fill="#ffffff" stroke="#ffffff" stroke-width="2.5" opacity="1"></path><path d="M 246.78000000000003,391.6 A 2.5,2.5 0 1,1 246.77990000000003,391.6 M 622,295.2 A 2.5,2.5 0 1,1 621.9999,295.2 M 246.78000000000003,394.1 L 622,297.7" fill="#996d39" stroke="#996d39" stroke-width="1.5" opacity="1"></path></g><g id="Sub-Saharan-Africa" class="slope"><path d="M 246.78000000000003,416.3 A 2.5,2.5 0 1,1 246.77990000000003,416.3 M 622,331.4 A 2.5,2.5 0 1,1 621.9999,331.4 M 246.78000000000003,418.8 L 622,333.9" fill="#ffffff" stroke="#ffffff" stroke-width="2.5" opacity="1"></path><path d="M 246.78000000000003,416.3 A 2.5,2.5 0 1,1 246.77990000000003,416.3 M 622,331.4 A 2.5,2.5 0 1,1 621.9999,331.4 M 246.78000000000003,418.8 L 622,333.9" fill="#2c8465" stroke="#2c8465" stroke-width="1.5" opacity="1"></path></g><g id="United-States" class="slope"><path d="M 246.78000000000003,437.3 A 2.5,2.5 0 1,1 246.77990000000003,437.3 M 622,370 A 2.5,2.5 0 1,1 621.9999,370 M 246.78000000000003,439.8 L 622,372.5" fill="#ffffff" stroke="#ffffff" stroke-width="2.5" opacity="1"></path><path d="M 246.78000000000003,437.3 A 2.5,2.5 0 1,1 246.77990000000003,437.3 M 622,370 A 2.5,2.5 0 1,1 621.9999,370 M 246.78000000000003,439.8 L 622,372.5" fill="#8c4569" stroke="#8c4569" stroke-width="1.5" opacity="1"></path></g><g id="World" class="slope"><path d="M 246.78000000000003,394.6 A 2.5,2.5 0 1,1 246.77990000000003,394.6 M 622,219.2 A 2.5,2.5 0 1,1 621.9999,219.2 M 246.78000000000003,397.1 L 622,221.7" fill="#ffffff" stroke="#ffffff" stroke-width="2.5" opacity="1"></path><path d="M 246.78000000000003,394.6 A 2.5,2.5 0 1,1 246.77990000000003,394.6 M 622,219.2 A 2.5,2.5 0 1,1 621.9999,219.2 M 246.78000000000003,397.1 L 622,221.7" fill="#883039" stroke="#883039" stroke-width="1.5" opacity="1"></path></g></g><g id="line-labels" class="LineLabels"><g id="connectors"><path id="India" d="M238.78000000000003,354.2 H235.9466666666667 V298.6949999999999 H221.78000000000003" stroke="#999" stroke-width="0.5" fill="none"></path><path id="China" d="M238.78000000000003,363.3 H233.11333333333334 V317.5449999999999 H221.78000000000003" stroke="#999" stroke-width="0.5" fill="none"></path><path id="Americas-(excl.-USA)" d="M238.78000000000003,365.2 H230.28000000000003 V336.3949999999999 H221.78000000000003" stroke="#999" stroke-width="0.5" fill="none"></path><path id="Europe" d="M238.78000000000003,374.2 H227.4466666666667 V355.24499999999995 H221.78000000000003" stroke="#999" stroke-width="0.5" fill="none"></path><path id="Asia-(excl.-China-and-India)" d="M238.78000000000003,393.3 H224.61333333333334 V381.52 H221.78000000000003" stroke="#999" stroke-width="0.5" fill="none"></path><path id="Oceania" d="M238.78000000000003,394.1 H224.61333333333334 V407.79499999999996 H221.78000000000003" stroke="#999" stroke-width="0.5" fill="none"></path><path id="World" d="M238.78000000000003,397.1 H227.4466666666667 V426.645 H221.78000000000003" stroke="#999" stroke-width="0.5" fill="none"></path><path id="Sub-Saharan-Africa" d="M238.78000000000003,418.8 H230.28000000000003 V445.495 H221.78000000000003" stroke="#999" stroke-width="0.5" fill="none"></path><path id="Middle-East-&amp;-North-Africa" d="M238.78000000000003,424.3 H233.11333333333334 V471.77000000000004 H221.78000000000003" stroke="#999" stroke-width="0.5" fill="none"></path><path id="United-States" d="M238.78000000000003,439.8 H235.9466666666667 V498.045 H221.78000000000003" stroke="#999" stroke-width="0.5" fill="none"></path></g><g id="text-annotations"></g><g id="text-labels"><g class="markdown-text-wrap" style="fill:#ffffff;stroke:#ffffff;stroke-linecap:round;stroke-linejoin:round;stroke-width:.25em;user-select:none"><text x="217.8" y="303.7" style="font-size:13.5px;line-height:1.1" fill="#d96855" opacity="1" text-anchor="end"><tspan x="217.78000000000003" y="303.7"><tspan style="font-weight:700">India</tspan> 5.1%</tspan></text></g><g class="markdown-text-wrap"><text x="217.8" y="303.7" style="font-size:13.5px;line-height:1.1" fill="#d96855" opacity="1" text-anchor="end"><tspan x="217.78000000000003" y="303.7"><tspan style="font-weight:700">India</tspan> 5.1%</tspan></text></g><g class="markdown-text-wrap" style="fill:#ffffff;stroke:#ffffff;stroke-linecap:round;stroke-linejoin:round;stroke-width:.25em;user-select:none"><text x="217.8" y="322.5" style="font-size:13.5px;line-height:1.1" fill="#6d3e91" opacity="1" text-anchor="end"><tspan x="217.78000000000003" y="322.5"><tspan style="font-weight:700">China</tspan> 4.8%</tspan></text></g><g class="markdown-text-wrap"><text x="217.8" y="322.5" style="font-size:13.5px;line-height:1.1" fill="#6d3e91" opacity="1" text-anchor="end"><tspan x="217.78000000000003" y="322.5"><tspan style="font-weight:700">China</tspan> 4.8%</tspan></text></g><g class="markdown-text-wrap" style="fill:#ffffff;stroke:#ffffff;stroke-linecap:round;stroke-linejoin:round;stroke-width:.25em;user-select:none"><text x="217.8" y="341.4" style="font-size:13.5px;line-height:1.1" fill="#4c6a9c" opacity="1" text-anchor="end"><tspan x="217.78000000000003" y="341.4"><tspan style="font-weight:700">Americas (excl. USA)</tspan> 4.7%</tspan></text></g><g class="markdown-text-wrap"><text x="217.8" y="341.4" style="font-size:13.5px;line-height:1.1" fill="#4c6a9c" opacity="1" text-anchor="end"><tspan x="217.78000000000003" y="341.4"><tspan style="font-weight:700">Americas (excl. USA)</tspan> 4.7%</tspan></text></g><g class="markdown-text-wrap" style="fill:#ffffff;stroke:#ffffff;stroke-linecap:round;stroke-linejoin:round;stroke-width:.25em;user-select:none"><text x="217.8" y="360.2" style="font-size:13.5px;line-height:1.1" fill="#18470f" opacity="1" text-anchor="end"><tspan x="217.78000000000003" y="360.2"><tspan style="font-weight:700">Europe</tspan> 4.4%</tspan></text></g><g class="markdown-text-wrap"><text x="217.8" y="360.2" style="font-size:13.5px;line-height:1.1" fill="#18470f" opacity="1" text-anchor="end"><tspan x="217.78000000000003" y="360.2"><tspan style="font-weight:700">Europe</tspan> 4.4%</tspan></text></g><g class="markdown-text-wrap" style="fill:#ffffff;stroke:#ffffff;stroke-linecap:round;stroke-linejoin:round;stroke-width:.25em;user-select:none"><text x="217.8" y="379.1" style="font-size:13.5px;line-height:1.1" fill="#b13507" opacity="1" text-anchor="end"><tspan x="217.78000000000003" y="379.1"><tspan style="font-weight:700">Asia (excl. China and India)</tspan></tspan><tspan x="217.78000000000003" y="393.9">3.8%</tspan></text></g><g class="markdown-text-wrap"><text x="217.8" y="379.1" style="font-size:13.5px;line-height:1.1" fill="#b13507" opacity="1" text-anchor="end"><tspan x="217.78000000000003" y="379.1"><tspan style="font-weight:700">Asia (excl. China and India)</tspan></tspan><tspan x="217.78000000000003" y="393.9">3.8%</tspan></text></g><g class="markdown-text-wrap" style="fill:#ffffff;stroke:#ffffff;stroke-linecap:round;stroke-linejoin:round;stroke-width:.25em;user-select:none"><text x="217.8" y="412.8" style="font-size:13.5px;line-height:1.1" fill="#996d39" opacity="1" text-anchor="end"><tspan x="217.78000000000003" y="412.8"><tspan style="font-weight:700">Oceania</tspan> 3.8%</tspan></text></g><g class="markdown-text-wrap"><text x="217.8" y="412.8" style="font-size:13.5px;line-height:1.1" fill="#996d39" opacity="1" text-anchor="end"><tspan x="217.78000000000003" y="412.8"><tspan style="font-weight:700">Oceania</tspan> 3.8%</tspan></text></g><g class="markdown-text-wrap" style="fill:#ffffff;stroke:#ffffff;stroke-linecap:round;stroke-linejoin:round;stroke-width:.25em;user-select:none"><text x="217.8" y="431.6" style="font-size:13.5px;line-height:1.1" fill="#883039" opacity="1" text-anchor="end"><tspan x="217.78000000000003" y="431.6"><tspan style="font-weight:700">World</tspan> 3.7%</tspan></text></g><g class="markdown-text-wrap"><text x="217.8" y="431.6" style="font-size:13.5px;line-height:1.1" fill="#883039" opacity="1" text-anchor="end"><tspan x="217.78000000000003" y="431.6"><tspan style="font-weight:700">World</tspan> 3.7%</tspan></text></g><g class="markdown-text-wrap" style="fill:#ffffff;stroke:#ffffff;stroke-linecap:round;stroke-linejoin:round;stroke-width:.25em;user-select:none"><text x="217.8" y="450.5" style="font-size:13.5px;line-height:1.1" fill="#2c8465" opacity="1" text-anchor="end"><tspan x="217.78000000000003" y="450.5"><tspan style="font-weight:700">Sub-Saharan Africa</tspan> 3%</tspan></text></g><g class="markdown-text-wrap"><text x="217.8" y="450.5" style="font-size:13.5px;line-height:1.1" fill="#2c8465" opacity="1" text-anchor="end"><tspan x="217.78000000000003" y="450.5"><tspan style="font-weight:700">Sub-Saharan Africa</tspan> 3%</tspan></text></g><g class="markdown-text-wrap" style="fill:#ffffff;stroke:#ffffff;stroke-linecap:round;stroke-linejoin:round;stroke-width:.25em;user-select:none"><text x="217.8" y="469.3" style="font-size:13.5px;line-height:1.1" fill="#af8454" opacity="1" text-anchor="end"><tspan x="217.78000000000003" y="469.3"><tspan style="font-weight:700">Middle East &amp; North Africa</tspan></tspan><tspan x="217.78000000000003" y="484.2">2.8%</tspan></text></g><g class="markdown-text-wrap"><text x="217.8" y="469.3" style="font-size:13.5px;line-height:1.1" fill="#af8454" opacity="1" text-anchor="end"><tspan x="217.78000000000003" y="469.3"><tspan style="font-weight:700">Middle East &amp; North Africa</tspan></tspan><tspan x="217.78000000000003" y="484.2">2.8%</tspan></text></g><g class="markdown-text-wrap" style="fill:#ffffff;stroke:#ffffff;stroke-linecap:round;stroke-linejoin:round;stroke-width:.25em;user-select:none"><text x="217.8" y="503.0" style="font-size:13.5px;line-height:1.1" fill="#8c4569" opacity="1" text-anchor="end"><tspan x="217.78000000000003" y="503.0"><tspan style="font-weight:700">United States</tspan> 2.3%</tspan></text></g><g class="markdown-text-wrap"><text x="217.8" y="503.0" style="font-size:13.5px;line-height:1.1" fill="#8c4569" opacity="1" text-anchor="end"><tspan x="217.78000000000003" y="503.0"><tspan style="font-weight:700">United States</tspan> 2.3%</tspan></text></g></g></g><g id="line-labels" class="LineLabels"><g id="connectors"><path id="India" d="M630,94.9 H635.6666666666666 V91.55 H647" stroke="#999" stroke-width="0.5" fill="none"></path><path id="China" d="M630,111.6 H641.3333333333333 V110.39999999999999 H647" stroke="#999" stroke-width="0.5" fill="none"></path><path id="Europe" d="M630,124.7 H641.3333333333333 V129.25 H647" stroke="#999" stroke-width="0.5" fill="none"></path><path id="Americas-(excl.-USA)" d="M630,213.5 H638.5 V208.175 H647" stroke="#999" stroke-width="0.5" fill="none"></path><path id="World" d="M630,221.7 H638.5 V227.025 H647" stroke="#999" stroke-width="0.5" fill="none"></path><path id="Asia-(excl.-China-and-India)" d="M630,251.3 H638.5 V258.725 H647" stroke="#999" stroke-width="0.5" fill="none"></path><path id="Oceania" d="M630,297.7 H638.5 V297.7 H647" stroke="#999" stroke-width="0.5" fill="none"></path><path id="Sub-Saharan-Africa" d="M630,333.9 H641.3333333333333 V325.79999999999995 H647" stroke="#999" stroke-width="0.5" fill="none"></path><path id="Middle-East-&amp;-North-Africa" d="M630,342.4 H641.3333333333333 V352.075 H647" stroke="#999" stroke-width="0.5" fill="none"></path><path id="United-States" d="M630,372.5 H635.6666666666666 V378.34999999999997 H647" stroke="#999" stroke-width="0.5" fill="none"></path></g><g id="text-annotations"></g><g id="text-labels"><g class="markdown-text-wrap" style="fill:#ffffff;stroke:#ffffff;stroke-linecap:round;stroke-linejoin:round;stroke-width:.25em;user-select:none"><text x="651.0" y="96.5" style="font-size:13.5px;line-height:1.1" fill="#d96855" opacity="1" text-anchor="start"><tspan x="651" y="96.5"><tspan style="font-weight:700">India</tspan> 13.3%</tspan></text></g><g class="markdown-text-wrap"><text x="651.0" y="96.5" style="font-size:13.5px;line-height:1.1" fill="#d96855" opacity="1" text-anchor="start"><tspan x="651" y="96.5"><tspan style="font-weight:700">India</tspan> 13.3%</tspan></text></g><g class="markdown-text-wrap" style="fill:#ffffff;stroke:#ffffff;stroke-linecap:round;stroke-linejoin:round;stroke-width:.25em;user-select:none"><text x="651.0" y="115.4" style="font-size:13.5px;line-height:1.1" fill="#6d3e91" opacity="1" text-anchor="start"><tspan x="651" y="115.4"><tspan style="font-weight:700">China</tspan> 12.8%</tspan></text></g><g class="markdown-text-wrap"><text x="651.0" y="115.4" style="font-size:13.5px;line-height:1.1" fill="#6d3e91" opacity="1" text-anchor="start"><tspan x="651" y="115.4"><tspan style="font-weight:700">China</tspan> 12.8%</tspan></text></g><g class="markdown-text-wrap" style="fill:#ffffff;stroke:#ffffff;stroke-linecap:round;stroke-linejoin:round;stroke-width:.25em;user-select:none"><text x="651.0" y="134.2" style="font-size:13.5px;line-height:1.1" fill="#18470f" opacity="1" text-anchor="start"><tspan x="651" y="134.2"><tspan style="font-weight:700">Europe</tspan> 12.4%</tspan></text></g><g class="markdown-text-wrap"><text x="651.0" y="134.2" style="font-size:13.5px;line-height:1.1" fill="#18470f" opacity="1" text-anchor="start"><tspan x="651" y="134.2"><tspan style="font-weight:700">Europe</tspan> 12.4%</tspan></text></g><g class="markdown-text-wrap" style="fill:#ffffff;stroke:#ffffff;stroke-linecap:round;stroke-linejoin:round;stroke-width:.25em;user-select:none"><text x="651.0" y="213.2" style="font-size:13.5px;line-height:1.1" fill="#4c6a9c" opacity="1" text-anchor="start"><tspan x="651" y="213.2"><tspan style="font-weight:700">Americas (excl. USA)</tspan> 9.6%</tspan></text></g><g class="markdown-text-wrap"><text x="651.0" y="213.2" style="font-size:13.5px;line-height:1.1" fill="#4c6a9c" opacity="1" text-anchor="start"><tspan x="651" y="213.2"><tspan style="font-weight:700">Americas (excl. USA)</tspan> 9.6%</tspan></text></g><g class="markdown-text-wrap" style="fill:#ffffff;stroke:#ffffff;stroke-linecap:round;stroke-linejoin:round;stroke-width:.25em;user-select:none"><text x="651.0" y="232.0" style="font-size:13.5px;line-height:1.1" fill="#883039" opacity="1" text-anchor="start"><tspan x="651" y="232.0"><tspan style="font-weight:700">World</tspan> 9.3%</tspan></text></g><g class="markdown-text-wrap"><text x="651.0" y="232.0" style="font-size:13.5px;line-height:1.1" fill="#883039" opacity="1" text-anchor="start"><tspan x="651" y="232.0"><tspan style="font-weight:700">World</tspan> 9.3%</tspan></text></g><g class="markdown-text-wrap" style="fill:#ffffff;stroke:#ffffff;stroke-linecap:round;stroke-linejoin:round;stroke-width:.25em;user-select:none"><text x="651.0" y="256.3" style="font-size:13.5px;line-height:1.1" fill="#b13507" opacity="1" text-anchor="start"><tspan x="651" y="256.3"><tspan style="font-weight:700">Asia (excl. China and India)</tspan></tspan><tspan x="651" y="271.1">8.4%</tspan></text></g><g class="markdown-text-wrap"><text x="651.0" y="256.3" style="font-size:13.5px;line-height:1.1" fill="#b13507" opacity="1" text-anchor="start"><tspan x="651" y="256.3"><tspan style="font-weight:700">Asia (excl. China and India)</tspan></tspan><tspan x="651" y="271.1">8.4%</tspan></text></g><g class="markdown-text-wrap" style="fill:#ffffff;stroke:#ffffff;stroke-linecap:round;stroke-linejoin:round;stroke-width:.25em;user-select:none"><text x="651.0" y="302.7" style="font-size:13.5px;line-height:1.1" fill="#996d39" opacity="1" text-anchor="start"><tspan x="651" y="302.7"><tspan style="font-weight:700">Oceania</tspan> 6.9%</tspan></text></g><g class="markdown-text-wrap"><text x="651.0" y="302.7" style="font-size:13.5px;line-height:1.1" fill="#996d39" opacity="1" text-anchor="start"><tspan x="651" y="302.7"><tspan style="font-weight:700">Oceania</tspan> 6.9%</tspan></text></g><g class="markdown-text-wrap" style="fill:#ffffff;stroke:#ffffff;stroke-linecap:round;stroke-linejoin:round;stroke-width:.25em;user-select:none"><text x="651.0" y="330.8" style="font-size:13.5px;line-height:1.1" fill="#2c8465" opacity="1" text-anchor="start"><tspan x="651" y="330.8"><tspan style="font-weight:700">Sub-Saharan Africa</tspan> 5.7%</tspan></text></g><g class="markdown-text-wrap"><text x="651.0" y="330.8" style="font-size:13.5px;line-height:1.1" fill="#2c8465" opacity="1" text-anchor="start"><tspan x="651" y="330.8"><tspan style="font-weight:700">Sub-Saharan Africa</tspan> 5.7%</tspan></text></g><g class="markdown-text-wrap" style="fill:#ffffff;stroke:#ffffff;stroke-linecap:round;stroke-linejoin:round;stroke-width:.25em;user-select:none"><text x="651.0" y="349.6" style="font-size:13.5px;line-height:1.1" fill="#af8454" opacity="1" text-anchor="start"><tspan x="651" y="349.6"><tspan style="font-weight:700">Middle East &amp; North Africa</tspan></tspan><tspan x="651" y="364.5">5.4%</tspan></text></g><g class="markdown-text-wrap"><text x="651.0" y="349.6" style="font-size:13.5px;line-height:1.1" fill="#af8454" opacity="1" text-anchor="start"><tspan x="651" y="349.6"><tspan style="font-weight:700">Middle East &amp; North Africa</tspan></tspan><tspan x="651" y="364.5">5.4%</tspan></text></g><g class="markdown-text-wrap" style="fill:#ffffff;stroke:#ffffff;stroke-linecap:round;stroke-linejoin:round;stroke-width:.25em;user-select:none"><text x="651.0" y="383.3" style="font-size:13.5px;line-height:1.1" fill="#8c4569" opacity="1" text-anchor="start"><tspan x="651" y="383.3"><tspan style="font-weight:700">United States</tspan> 4.5%</tspan></text></g><g class="markdown-text-wrap"><text x="651.0" y="383.3" style="font-size:13.5px;line-height:1.1" fill="#8c4569" opacity="1" text-anchor="start"><tspan x="651" y="383.3"><tspan style="font-weight:700">United States</tspan> 4.5%</tspan></text></g></g></g></g><g id="footer" class="SourcesFooter" style="fill:#5b5b5b"><g id="sources" class="markdown-text-wrap"><text x="16.0" y="562.7" style="font-size:13.5px;line-height:1.2"><tspan x="16" y="562.7"><tspan style="font-weight:700">Data source:</tspan> OECD (2023)</tspan></text></g><g id="note" class="markdown-text-wrap"><text x="16.0" y="580.9" style="font-size:13.5px;line-height:1.2"><tspan x="16" y="580.9"><tspan style="font-weight:700">Note:</tspan> Regional aggregates were calculated by Our World in Data and are based on those specified by the <tspan class="dod-span" data-id="oecd-regions">OECD</tspan>.</tspan></text></g><text id="origin-url" font-size="13.50" x="564.3" y="562.7"><tspan x="564.27" y="562.695"><a target="_blank" style="fill: #5b5b5b;" href="https://ourworldindata.org/plastic-pollution">OurWorldinData.org/plastic-pollution</a> | <a target="_blank" style="fill: #5b5b5b;" href="https://creativecommons.org/licenses/by/4.0/">CC BY</a></tspan></text></g></svg>