<svg
    xmlns="http://www.w3.org/2000/svg"
    version="1.1"
    style='font-family:Lato, &#x27;Helvetica Neue&#x27;, Helvetica, Arial, &#x27;Liberation Sans&#x27;, sans-serif;font-feature-settings:"liga", "kern", "calt", "lnum";text-rendering:geometricPrecision;-webkit-font-smoothing:antialiased;font-size:18px;background-color:#ffffff'
    width="850"
    height="600"
    viewBox="0 0 850 600"
>
    <defs>
        <style>
            @import url(https://ourworldindata.org/fonts.css);
        </style>
    </defs>
    <defs>
        <pattern
            id="noDataPattern"
            patternUnits="userSpaceOnUse"
            width="4"
            height="4"
            patternTransform="rotate(-45 2 2)"
        >
            <path d="M -1,2 l 6,0" stroke="#ccc" stroke-width="0.7"></path>
        </pattern>
    </defs>
    <g id="header" class="HeaderView">
        <g id="logo" transform="translate(769, 16) scale(1)">
            <svg
                className="owidLogo"
                xmlns="http://www.w3.org/2000/svg"
                width="65"
                height="36"
                viewBox="0 0 65 36"
                fill="none"
            >
                <path fill="#002147" d="M0 0h64.8v36H0z" />
                <path fill="#CE261E" d="M0 33.3h64.8V36H0z" />
                <path
                    fill="#fff"
                    d="M13.796 10.575c0 .636-.106 1.226-.318 1.77a4.193 4.193 0 0 1-.894 1.404 4.084 4.084 0 0 1-1.386.93c-.54.22-1.138.33-1.794.33-.656 0-1.256-.11-1.8-.33a4.149 4.149 0 0 1-1.392-.93 4.193 4.193 0 0 1-.894-1.404A4.833 4.833 0 0 1 5 10.575c0-.636.106-1.224.318-1.764a4.18 4.18 0 0 1 .894-1.41 4.076 4.076 0 0 1 1.392-.924 4.684 4.684 0 0 1 1.8-.336c.656 0 1.254.112 1.794.336.54.224 1.002.534 1.386.93.384.392.682.86.894 1.404.212.54.318 1.128.318 1.764Zm-1.656 0c0-.476-.064-.902-.192-1.278a2.671 2.671 0 0 0-.54-.966 2.332 2.332 0 0 0-.864-.606 2.94 2.94 0 0 0-1.14-.21c-.424 0-.806.07-1.146.21-.34.14-.63.342-.87.606a2.742 2.742 0 0 0-.546.966 3.955 3.955 0 0 0-.192 1.278c0 .476.064.904.192 1.284.128.376.31.696.546.96.24.26.53.46.87.6.34.14.722.21 1.146.21.424 0 .804-.07 1.14-.21.34-.14.628-.34.864-.6.236-.264.416-.584.54-.96a4.01 4.01 0 0 0 .192-1.284ZM16.104 8.757v3.912c0 .376.086.668.258.876.176.204.438.306.786.306.256 0 .496-.056.72-.168a2.58 2.58 0 0 0 .636-.474V8.757h1.482v6.156h-.906c-.192 0-.318-.09-.378-.27l-.102-.492a4.65 4.65 0 0 1-.396.354 2.577 2.577 0 0 1-.438.27 2.35 2.35 0 0 1-.498.168 2.345 2.345 0 0 1-.57.066c-.336 0-.634-.056-.894-.168a1.821 1.821 0 0 1-.648-.486 2.157 2.157 0 0 1-.402-.738 3.233 3.233 0 0 1-.132-.948V8.757h1.482ZM21.328 14.913V8.757h.87c.152 0 .258.028.318.084.06.056.1.152.12.288l.09.744c.22-.38.478-.68.774-.9.296-.22.628-.33.996-.33.304 0 .556.07.756.21l-.192 1.11c-.012.072-.038.124-.078.156a.278.278 0 0 1-.162.042 1.01 1.01 0 0 1-.246-.042 1.646 1.646 0 0 0-.414-.042c-.308 0-.572.086-.792.258-.22.168-.406.416-.558.744v3.834h-1.482ZM27.347 6.237h1.356a.57.57 0 0 1 .348.102c.096.064.16.152.192.264l1.476 5.19c.036.128.068.268.096.42.032.148.062.306.09.474a5.968 5.968 0 0 1 .228-.894l1.704-5.19a.575.575 0 0 1 .186-.252.543.543 0 0 1 .348-.114h.474a.57.57 0 0 1 .348.102.497.497 0 0 1 .192.264l1.692 5.19c.088.256.164.54.228.852.028-.156.056-.306.084-.45.032-.144.064-.278.096-.402l1.476-5.19c.028-.1.09-.186.186-.258a.563.563 0 0 1 .348-.108h1.266l-2.694 8.676h-1.458l-1.896-5.928-.078-.246a9.504 9.504 0 0 1-.072-.282c-.024.1-.05.194-.078.282-.024.088-.048.17-.072.246l-1.914 5.928H30.04l-2.694-8.676ZM42.771 8.661c.46 0 .876.074 1.248.222.376.148.696.358.96.63s.468.604.612.996c.144.392.216.83.216 1.314 0 .488-.072.928-.216 1.32a2.85 2.85 0 0 1-.612 1.002 2.653 2.653 0 0 1-.96.636 3.35 3.35 0 0 1-1.248.222c-.46 0-.878-.074-1.254-.222a2.712 2.712 0 0 1-.966-.636 2.922 2.922 0 0 1-.618-1.002 3.807 3.807 0 0 1-.216-1.32c0-.484.072-.922.216-1.314.148-.392.354-.724.618-.996.268-.272.59-.482.966-.63a3.397 3.397 0 0 1 1.254-.222Zm0 5.202c.512 0 .89-.172 1.134-.516.248-.344.372-.848.372-1.512s-.124-1.17-.372-1.518c-.244-.348-.622-.522-1.134-.522-.52 0-.904.176-1.152.528-.248.348-.372.852-.372 1.512s.124 1.164.372 1.512c.248.344.632.516 1.152.516ZM46.723 14.913V8.757h.87c.152 0 .258.028.318.084.06.056.1.152.12.288l.09.744c.22-.38.478-.68.774-.9.296-.22.628-.33.996-.33.304 0 .556.07.756.21l-.192 1.11c-.012.072-.038.124-.078.156a.278.278 0 0 1-.162.042 1.01 1.01 0 0 1-.246-.042 1.646 1.646 0 0 0-.414-.042c-.308 0-.572.086-.792.258-.22.168-.406.416-.558.744v3.834h-1.482ZM52.96 5.997v8.916h-1.482V5.997h1.482ZM58.732 14.913c-.192 0-.318-.09-.378-.27l-.12-.594a3.68 3.68 0 0 1-.402.39c-.14.116-.292.216-.456.3-.16.084-.334.148-.522.192a2.372 2.372 0 0 1-.6.072c-.336 0-.644-.07-.924-.21a2.098 2.098 0 0 1-.726-.606 3.033 3.033 0 0 1-.468-.99 5.072 5.072 0 0 1-.162-1.344c0-.456.062-.88.186-1.272s.302-.732.534-1.02c.232-.288.51-.512.834-.672a2.384 2.384 0 0 1 1.092-.246 2.103 2.103 0 0 1 1.536.606V5.997h1.482v8.916h-.906Zm-1.974-1.086c.308 0 .57-.064.786-.192.216-.128.42-.31.612-.546v-2.76a1.452 1.452 0 0 0-.552-.432 1.597 1.597 0 0 0-.636-.126c-.224 0-.428.042-.612.126a1.21 1.21 0 0 0-.462.384c-.124.168-.22.384-.288.648-.068.26-.102.568-.102.924 0 .36.028.666.084.918.06.248.144.452.252.612.108.156.24.27.396.342.156.068.33.102.522.102ZM16.331 20.757v6.156H14.85v-6.156h1.481Zm.223-1.794a.844.844 0 0 1-.078.36.963.963 0 0 1-.21.294.995.995 0 0 1-.3.204.963.963 0 0 1-.372.072.948.948 0 0 1-.367-.072 1.018 1.018 0 0 1-.498-.498.963.963 0 0 1 0-.732.995.995 0 0 1 .205-.3.929.929 0 0 1 .293-.198.899.899 0 0 1 .738 0 .912.912 0 0 1 .3.198.943.943 0 0 1 .288.672ZM17.771 26.913v-6.156h.906c.192 0 .318.09.378.27l.102.486a2.934 2.934 0 0 1 .828-.618c.156-.076.322-.134.498-.174.176-.04.368-.06.576-.06.336 0 .634.058.894.174.26.112.476.272.648.48.176.204.308.45.396.738.092.284.138.598.138.942v3.918h-1.482v-3.918c0-.376-.088-.666-.264-.87-.172-.208-.432-.312-.78-.312-.256 0-.496.058-.72.174a2.58 2.58 0 0 0-.636.474v4.452h-1.482ZM34.22 22.575c0 .636-.106 1.22-.318 1.752-.212.532-.51.99-.894 1.374a4 4 0 0 1-1.386.894 4.87 4.87 0 0 1-1.794.318h-3.312v-8.676h3.312a4.79 4.79 0 0 1 1.794.324 4 4 0 0 1 1.386.894c.384.38.682.836.894 1.368.212.532.318 1.116.318 1.752Zm-1.65 0c0-.476-.064-.902-.192-1.278a2.68 2.68 0 0 0-.546-.96 2.332 2.332 0 0 0-.864-.606 2.94 2.94 0 0 0-1.14-.21h-1.686v6.108h1.686c.424 0 .804-.07 1.14-.21.34-.14.628-.34.864-.6a2.75 2.75 0 0 0 .546-.96 4.01 4.01 0 0 0 .192-1.284ZM39.98 26.913h-.665c-.14 0-.25-.02-.33-.06-.08-.044-.14-.13-.18-.258l-.132-.438c-.156.14-.31.264-.462.372a2.804 2.804 0 0 1-.462.264c-.16.072-.33.126-.51.162-.18.036-.38.054-.6.054-.26 0-.5-.034-.72-.102a1.618 1.618 0 0 1-.57-.318 1.448 1.448 0 0 1-.366-.522 1.852 1.852 0 0 1-.132-.726c0-.232.06-.46.18-.684.124-.228.328-.432.612-.612.284-.184.662-.336 1.134-.456.472-.12 1.058-.188 1.758-.204v-.36c0-.412-.088-.716-.264-.912-.172-.2-.424-.3-.756-.3a1.837 1.837 0 0 0-1.02.276c-.116.068-.224.13-.324.186a.664.664 0 0 1-.33.084.429.429 0 0 1-.258-.078.614.614 0 0 1-.174-.192l-.27-.474c.708-.648 1.562-.972 2.562-.972.36 0 .68.06.96.18.284.116.524.28.72.492.196.208.344.458.444.75.104.292.156.612.156.96v3.888Zm-2.88-.924c.153 0 .293-.014.42-.042.129-.028.249-.07.36-.126.117-.056.227-.124.33-.204.109-.084.217-.182.325-.294v-1.038c-.432.02-.794.058-1.086.114-.288.052-.52.12-.696.204a.923.923 0 0 0-.378.294.664.664 0 0 0-.108.366c0 .26.076.446.228.558.156.112.358.168.606.168ZM43.22 27.01c-.532 0-.942-.15-1.23-.45-.288-.305-.432-.723-.432-1.255v-3.438h-.624a.31.31 0 0 1-.21-.078c-.056-.052-.084-.13-.084-.234v-.588l.99-.162.312-1.68a.302.302 0 0 1 .108-.186.365.365 0 0 1 .222-.066h.768v1.938h1.62v1.056h-1.62v3.336c0 .192.048.342.144.45a.488.488 0 0 0 .384.162c.092 0 .168-.01.228-.03.064-.024.118-.048.162-.072.048-.024.09-.046.126-.066a.194.194 0 0 1 .108-.036.16.16 0 0 1 .108.036c.028.02.058.052.09.096l.444.72c-.216.18-.464.316-.744.408a2.77 2.77 0 0 1-.87.138ZM50.423 26.913h-.666c-.14 0-.25-.02-.33-.06-.08-.044-.14-.13-.18-.258l-.132-.438c-.156.14-.31.264-.462.372a2.804 2.804 0 0 1-.462.264c-.16.072-.33.126-.51.162-.18.036-.38.054-.6.054-.26 0-.5-.034-.72-.102a1.618 1.618 0 0 1-.57-.318 1.448 1.448 0 0 1-.366-.522 1.852 1.852 0 0 1-.132-.726c0-.232.06-.46.18-.684.124-.228.328-.432.612-.612.284-.184.662-.336 1.134-.456.472-.12 1.058-.188 1.758-.204v-.36c0-.412-.088-.716-.264-.912-.172-.2-.424-.3-.756-.3a1.837 1.837 0 0 0-1.02.276c-.116.068-.224.13-.324.186a.664.664 0 0 1-.33.084.429.429 0 0 1-.258-.078.614.614 0 0 1-.174-.192l-.27-.474c.708-.648 1.562-.972 2.562-.972.36 0 .68.06.96.18.284.116.524.28.72.492.196.208.344.458.444.75.104.292.156.612.156.96v3.888Zm-2.88-.924c.152 0 .292-.014.42-.042.128-.028.248-.07.36-.126.116-.056.226-.124.33-.204.108-.084.216-.182.324-.294v-1.038c-.432.02-.794.058-1.086.114-.288.052-.52.12-.696.204a.923.923 0 0 0-.378.294.664.664 0 0 0-.108.366c0 .26.076.446.228.558.156.112.358.168.606.168Z"
                />
            </svg>
        </g>
        <a
            id="title"
            href="https://ourworldindata.org/explorers/influenza?Confirmed+cases+or+Symptoms=Symptoms&amp;Metric=Severe+acute+respiratory+infections&amp;Interval=Weekly&amp;country=OWID_NH~OWID_SH"
            style="font-family:&#x27;Playfair Display&#x27;, Georgia, &#x27;Times New Roman&#x27;, &#x27;Liberation Serif&#x27;, serif"
        >
            <text
                font-size="25.00"
                font-weight="600"
                x="16.0"
                y="40.3"
                fill="#2d2e2d"
            >
                <tspan x="16" y="40.25">
                    Weekly reported cases of severe acute respiratory infections
                </tspan>
            </text>
        </a>
        <g id="subtitle" class="markdown-text-wrap">
            <text
                x="16.0"
                y="66.5"
                style="font-size: 15px; line-height: 1.2"
                fill="#5b5b5b"
            >
                <tspan x="16" y="66.5">
                    Severe acute respiratory illnesses are defined by the WHO as
                    acute respiratory infections with history of fever
                </tspan>
                <tspan x="16" y="84.5">
                    or measured fever of ≥ 38 C°, cough, with onset within the
                    last 10 days, and which require hospitalization. This
                </tspan>
                <tspan x="16" y="102.5">
                    can include diseases other than influenza, such as COVID-19.
                </tspan>
            </text>
        </g>
    </g>
    <g id="chart-area" style="pointer-events: none">
        <g id="horizontal-axis" class="HorizontalAxis">
            <g id="tick-marks">
                <line
                    id="Jul-6,-2009"
                    x1="61.7"
                    y1="531.9"
                    x2="61.7"
                    y2="537.4"
                    stroke="#999"
                    stroke-width="1"
                ></line>
                <line
                    id="Dec-15,-2025"
                    x1="679.7"
                    y1="531.9"
                    x2="679.7"
                    y2="537.4"
                    stroke="#999"
                    stroke-width="1"
                ></line>
                <line
                    id="Jul-31,-2014"
                    x1="252.1"
                    y1="531.9"
                    x2="252.1"
                    y2="537.4"
                    stroke="#999"
                    stroke-width="1"
                ></line>
                <line
                    id="Apr-26,-2017"
                    x1="355"
                    y1="531.9"
                    x2="355"
                    y2="537.4"
                    stroke="#999"
                    stroke-width="1"
                ></line>
                <line
                    id="Jan-21,-2020"
                    x1="457.9"
                    y1="531.9"
                    x2="457.9"
                    y2="537.4"
                    stroke="#999"
                    stroke-width="1"
                ></line>
            </g>
            <g id="tick-labels">
                <text
                    x="61.690000000000005"
                    y="550.4"
                    fill="#5b5b5b"
                    text-anchor="start"
                    font-size="13"
                >
                    Jul 6, 2009
                </text>
                <text
                    x="679.6800000000001"
                    y="550.4"
                    fill="#5b5b5b"
                    text-anchor="end"
                    font-size="13"
                >
                    Dec 15, 2025
                </text>
                <text
                    x="252.1"
                    y="550.4"
                    fill="#5b5b5b"
                    text-anchor="middle"
                    font-size="13"
                >
                    Jul 31, 2014
                </text>
                <text
                    x="355"
                    y="550.4"
                    fill="#5b5b5b"
                    text-anchor="middle"
                    font-size="13"
                >
                    Apr 26, 2017
                </text>
                <text
                    x="457.9"
                    y="550.4"
                    fill="#5b5b5b"
                    text-anchor="middle"
                    font-size="13"
                >
                    Jan 21, 2020
                </text>
            </g>
        </g>
        <g id="vertical-axis" class="VerticalAxis">
            <g id="tick-labels">
                <text
                    x="56.69"
                    y="532.4"
                    dy=".32em"
                    text-anchor="end"
                    fill="#5b5b5b"
                    font-size="13"
                >
                    0
                </text>
                <text
                    x="56.69"
                    y="451.5"
                    dy=".32em"
                    text-anchor="end"
                    fill="#5b5b5b"
                    font-size="13"
                >
                    10,000
                </text>
                <text
                    x="56.69"
                    y="370.6"
                    dy=".32em"
                    text-anchor="end"
                    fill="#5b5b5b"
                    font-size="13"
                >
                    20,000
                </text>
                <text
                    x="56.69"
                    y="289.8"
                    dy=".32em"
                    text-anchor="end"
                    fill="#5b5b5b"
                    font-size="13"
                >
                    30,000
                </text>
                <text
                    x="56.69"
                    y="208.9"
                    dy=".32em"
                    text-anchor="end"
                    fill="#5b5b5b"
                    font-size="13"
                >
                    40,000
                </text>
                <text
                    x="56.69"
                    y="128"
                    dy=".32em"
                    text-anchor="end"
                    fill="#5b5b5b"
                    font-size="13"
                >
                    50,000
                </text>
            </g>
        </g>
        <g id="horizontal-grid-lines" class="AxisGridLines horizontalLines">
            <line
                id="0"
                class="zero-line"
                x1="61.69"
                y1="532.4"
                x2="679.68"
                y2="532.4"
                stroke="#999"
            ></line>
            <line
                id="10,000"
                x1="61.69"
                y1="451.5"
                x2="679.68"
                y2="451.5"
                stroke="#ddd"
                stroke-dasharray="4,4"
            ></line>
            <line
                id="20,000"
                x1="61.69"
                y1="370.6"
                x2="679.68"
                y2="370.6"
                stroke="#ddd"
                stroke-dasharray="4,4"
            ></line>
            <line
                id="30,000"
                x1="61.69"
                y1="289.8"
                x2="679.68"
                y2="289.8"
                stroke="#ddd"
                stroke-dasharray="4,4"
            ></line>
            <line
                id="40,000"
                x1="61.69"
                y1="208.9"
                x2="679.68"
                y2="208.9"
                stroke="#ddd"
                stroke-dasharray="4,4"
            ></line>
            <line
                id="50,000"
                x1="61.69"
                y1="128"
                x2="679.68"
                y2="128"
                stroke="#ddd"
                stroke-dasharray="4,4"
            ></line>
        </g>
        <g id="line-labels" class="LineLabels">
            <g id="text-annotations"></g>
            <g id="text-labels">
                <text
                    id="label__Northern-Hemisphere"
                    font-size="13.00"
                    font-weight="400"
                    x="683.7"
                    y="504.9"
                    fill="#4c6a9c"
                    opacity="1"
                    text-anchor="start"
                >
                    <tspan x="683.6800000000001" y="504.91">
                        Northern Hemisphere
                    </tspan>
                </text>
                <text
                    id="label__Southern-Hemisphere"
                    font-size="13.00"
                    font-weight="400"
                    x="683.7"
                    y="521.5"
                    fill="#b13507"
                    opacity="1"
                    text-anchor="start"
                >
                    <tspan x="683.6800000000001" y="521.5100000000001">
                        Southern Hemisphere
                    </tspan>
                </text>
            </g>
        </g>
        <g id="lines">
            <path
                fill="none"
                stroke-linecap="butt"
                stroke-linejoin="round"
                stroke="#ffffff"
                id="outline__Southern-Hemisphere"
                stroke-width="2.5"
                d="M117.9 532.4L118.6 532.4L119.3 532.4L120 532.4L120.8 532.4L121.5 532.4L122.2 532.4L122.9 532.4L123.6 532.4L124.4 532.2L125.1 531.8L125.8 531.6L126.5 531.8L127.2 531.8L128 531.7L128.7 531.8L129.4 531.8L130.1 532.4L130.8 531.8L131.6 531.7L132.3 531.8L133 532.4L133.7 531.9L134.4 532.1L135.2 532L135.9 531.9L136.6 532L137.3 531.9L138 532L138.8 532.4L139.5 532.1L140.2 532.4L140.9 532.4L141.6 532.2L142.4 532.1L143.1 531.9L143.8 531.9L144.5 531.9L145.2 531.8L146 531.9L146.7 532.4L147.4 531.8L148.1 531.9L148.8 531.9L149.6 532.4L150.3 531.8L151 532.4L151.7 531.9L152.4 531.8L153.2 531.8L153.9 532.4L154.6 532.4L155.3 531.1L156 531.2L156.8 527L157.5 530.5L158.2 527.5L158.9 529.4L159.6 527.7L160.4 530.6L161.1 527.6L161.8 532.4L162.5 525.9L163.2 526.7L164 531.4L164.7 526.7L165.4 526.6L166.1 526.3L166.8 531.6L167.6 526.5L168.3 524.9L169 525.5L169.7 524L170.5 522.1L171.2 519.3L171.9 517.8L172.6 517.1L173.3 531.7L174.1 517.4L174.8 531.5L175.5 531.6L176.2 520.4L176.9 521.1L177.7 532.4L178.4 532.4L179.1 532.4L179.8 531.9L180.5 523.5L181.3 522.4L182 521.9L182.7 524L183.4 522.4L184.1 524.3L184.9 524.9L185.6 526.2L186.3 526.8L187 532.4L187.7 527.3L188.5 531.7L189.2 526.9L189.9 527.3L190.6 531.7L191.3 528.7L192.1 531.9L192.8 532.4L193.5 528.4L194.2 530.1L194.9 529.7L195.7 529.1L196.4 529.5L197.1 530.1L197.8 529.6L198.5 532.4L199.3 528L200 532.4L200.7 532.4L201.4 528.9L202.1 531.2L202.9 532.4L203.6 530.8L204.3 526.4L205 531.3L205.7 526.4L206.5 525.8L207.2 523.2L207.9 532.3L208.6 521.3L209.3 532.3L210.1 530.9L210.8 532.1L211.5 532.3L212.2 531.3L212.9 532.2L213.7 517.9L214.4 530.8L215.1 517.3L215.8 518.3L216.5 531L217.3 518.3L218 520.8L218.7 522.2L219.4 523.7L220.1 531.3L220.9 531.3L221.6 523.2L222.3 523.2L223 531.2L223.8 525.8L224.5 532.3L225.2 527.2L225.9 526.8L226.6 528.1L227.4 531.6L228.1 532.2L228.8 527.5L229.5 531.6L230.2 531.6L231 528.6L231.7 528.7L232.4 527.5L233.1 529.2L233.8 531.4L234.6 531.7L235.3 528.5L236 529.2L236.7 529.3L237.4 528.9L238.2 528.7L238.9 532L239.6 528.2L240.3 526.9L241 525.8L241.8 525.7L242.5 531.1L243.2 531.4L243.9 531.1L244.6 522.6L245.4 521.7L246.1 518.6L246.8 518L247.5 532.1L248.2 517.1L249 518.5L249.7 532.3L250.4 531.6L251.1 517.6L251.8 519.9L252.6 531.8L253.3 522.4L254 520L254.7 522.4L255.4 522.9L256.2 523.8L256.9 524.7L257.6 532.1L258.3 531.8L259 525.5L259.8 526.5L260.5 531.9L261.2 532.3L261.9 526.7L262.6 526.5L263.4 527.6L264.1 528.6L264.8 531.8L265.5 529L266.2 528.5L267 531.8L267.7 532.3L268.4 526.6L269.1 526.8L269.8 529.3L270.6 531.4L271.3 530.9L272 527.8L272.7 526.2L273.4 527.6L274.2 530.8L274.9 524.1L275.6 523.4L276.3 526.8L277.1 525L277.8 521.9L278.5 530L279.2 522.8L279.9 530.8L280.7 524.4L281.4 522.8L282.1 519L282.8 518.1L283.5 517.6L284.3 516.3L285 527.7L285.7 517.2L286.4 511.9L287.1 528.5L287.9 514.8L288.6 529.8L289.3 515.8L290 516.8L290.7 532L291.5 530.3L292.2 519.5L292.9 516.6L293.6 529.4L294.3 527L295.1 520L295.8 523.6L296.5 522.5L297.2 523.8L297.9 529.9L298.7 530.2L299.4 524.5L300.1 531L300.8 526L301.5 525.9L302.3 526L303 532L303.7 531.5L304.4 531.6L305.1 527L305.9 521.8L306.6 523.9L307.3 527.5L308 522.5L308.7 524.1L309.5 523.9L310.2 524.9L310.9 523.1L311.6 523.4L312.3 518.7L313.1 516.5L313.8 510.8L314.5 497.2L315.2 492.7L315.9 498.9L316.7 493.4L317.4 504.3L318.1 505L318.8 507.8L319.5 525.1L320.3 489.3L321 504L321.7 491L322.4 527.6L323.1 489.9L323.9 506.4L324.6 529.2L325.3 497.1L326 524.3L326.7 508.1L327.5 511.2L328.2 508.5L328.9 527.3L329.6 527.6L330.3 526.8L331.1 530.6L331.8 516.2L332.5 526.7L333.2 527.9L334 519L334.7 519.4L335.4 522.4L336.1 528.8L336.8 522.3L337.6 529.5L338.3 530.8L339 530.5L339.7 529.7L340.4 529L341.2 530.8L341.9 531.7L342.6 525.8L343.3 529.7L344 525.7L344.8 530.6L345.5 529.9L346.2 529.5L346.9 524.6L347.6 527.6L348.4 527.8L349.1 528L349.8 526.3L350.5 522.3L351.2 526.3L352 529.2L352.7 524.6L353.4 525.7L354.1 530L354.8 524.1L355.6 515L356.3 524.1L357 520.1L357.7 529L358.4 521.3L359.2 523.6L359.9 508.3L360.6 498.6L361.3 527.6L362 502.8L362.8 512L363.5 510.7L364.2 528.7L364.9 509.5L365.6 509.1L366.4 529.7L367.1 516.9L367.8 530.8L368.5 530.7L369.2 529.7L370 521.2L370.7 521.1L371.4 522.7L372.1 521.1L372.8 523.7L373.6 523.9L374.3 525.3L375 526.5L375.7 530.8L376.4 530.6L377.2 527.3L377.9 531L378.6 528.2L379.3 528.4L380 529.6L380.8 528.2L381.5 528.6L382.2 525.1L382.9 528.4L383.6 531.4L384.4 528.3L385.1 528.5L385.8 523.3L386.5 521.9L387.3 526.9L388 517.7L388.7 520.2L389.4 525.5L390.1 513.4L390.9 526.7L391.6 529.7L392.3 503.5L393 530.6L393.7 528.6L394.5 492.9L395.2 518.6L395.9 514.8L396.6 506.8L397.3 531.5L398.1 505.7L398.8 487.8L399.5 528L400.2 489.3L400.9 490.7L401.7 511.2L402.4 529.5L403.1 513.3L403.8 508.1L404.5 520.9L405.3 505.1L406 516.4L406.7 503.8L407.4 510.8L408.1 523.2L408.9 520.2L409.6 514.6L410.3 524.6L411 524.9L411.7 516.7L412.5 524.2L413.2 518.1L413.9 518.4L414.6 520L415.3 522.1L416.1 530.7L416.8 527.7L417.5 531L418.2 523.5L418.9 529.9L419.7 527.5L420.4 527.7L421.1 519.8L421.8 518.9L422.5 522.5L423.3 516.8L424 521.3L424.7 516.9L425.4 513.2L426.1 509.3L426.9 509.1L427.6 506.6L428.3 508.5L429 516.8L429.7 507.1L430.5 517.4L431.2 504.2L431.9 500.5L432.6 495.9L433.3 510.9L434.1 507.7L434.8 506.5L435.5 525.8L436.2 506.4L436.9 497.9L437.7 499.9L438.4 508.4L439.1 511.8L439.8 512.3L440.6 503.6L441.3 527.9L442 503.2L442.7 512.8L443.4 508.2L444.2 523.7L444.9 511.9L445.6 513.1L446.3 518.4L447 518.6L447.8 528.9L448.5 521.1L449.2 519.6L449.9 520L450.6 524.5L451.4 526.9L452.1 527L452.8 528.8L453.5 528.9L454.2 527.5L455 529.9L455.7 527.3L456.4 525.8L457.1 531.6L457.8 527.1L458.6 527.7L459.3 527.1L460 522.1L460.7 528.5L461.4 527.3L462.2 517.1L462.9 531.6L463.6 522.6L464.3 530.6L465 473.6L465.8 516.6L466.5 470.2L467.2 530.1L467.9 516L468.6 514.8L469.4 510.5L470.1 513.5L470.8 476.6L471.5 527.5L472.2 473.2L473 468.9L473.7 477.9L474.4 506.8L475.1 493.7L475.8 531.5L476.6 528.8L477.3 505.2L478 512.3L478.7 526.9L479.4 484.1L480.2 508.2L480.9 532.3L481.6 508.3L482.3 514.9L483 510.4L483.8 489.8L484.5 526.7L485.2 492.8L485.9 508.3L486.6 498.3L487.4 527.7L488.1 527.6L488.8 495.7L489.5 526.1L490.2 527.5L491 516.9L491.7 497.7L492.4 519.1L493.1 508.6L493.9 490.1L494.6 494.1L495.3 519.8L496 519.4L496.7 529L497.5 521.3L498.2 526.8L498.9 525L499.6 529.3L500.3 528L501.1 515.2L501.8 511.4L502.5 515.7L503.2 528L503.9 355.4L504.7 369.7L505.4 339.7L506.1 508.2L506.8 513.2L507.5 314.9L508.3 505.5L509 335.9L509.7 367.2L510.4 523.1L511.1 508.3L511.9 512.4L512.6 518.8L513.3 521L514 458.5L514.7 521.6L515.5 515.7L516.2 519L516.9 521.8L517.6 519.8L518.3 480.1L519.1 483.1L519.8 487.1L520.5 523.6L521.2 491.3L521.9 496.2L522.7 495.1L523.4 531.6L524.1 504L524.8 526.9L525.5 499.8L526.3 496.6L527 525.8L527.7 496L528.4 523.7L529.1 524.1L529.9 472.2L530.6 456L531.3 517L532 419.6L532.7 511.5L533.5 528.4L534.2 519L534.9 486.2L535.6 501L536.3 525.6L537.1 527.5L537.8 498.9L538.5 504.5L539.2 520.1L539.9 528.1L540.7 499.4L541.4 527.4L542.1 503L542.8 522.6L543.5 516.5L544.3 520L545 512.8L545.7 484.9L546.4 521.4L547.2 511.6L547.9 516.5L548.6 524.1L549.3 519.1L550 524.1L550.8 517.6L551.5 515.8L552.2 521.5L552.9 523.4L553.6 513.9L554.4 519.3L555.1 521L555.8 527.5L556.5 524.6L557.2 516.1L558 524.6L558.7 527.8L559.4 516.7L560.1 523.6L560.8 512.6L561.6 526.4L562.3 527.2L563 503.4L563.7 503.5L564.4 527.7L565.2 501.2L565.9 523.4L566.6 522.5L567.3 526.2L568 530.7L568.8 498.1L569.5 522.1L570.2 528.6L570.9 509.5L571.6 527.4L572.4 528.9L573.1 524.5L573.8 498.1L574.5 524.6L575.2 527.2L576 522.4L576.7 521.3L577.4 527.7L578.1 523.2L578.8 524.9L579.6 486.2L580.3 523.1L581 522.3L581.7 477.9L582.4 524.4L583.2 521L583.9 437.8L584.6 479.9L585.3 526.4L586 514L586.8 488L587.5 523.8L588.2 520.1L588.9 523.3L589.6 522.2L590.4 502L591.1 523.7L591.8 498.4L592.5 496.4L593.2 499.3L594 520.7L594.7 524.5L595.4 528.7L596.1 526.9L596.8 504.8L597.6 526.6L598.3 502.2L599 499.5L599.7 507.3L600.5 506.6L601.2 506.1L601.9 527.7L602.6 509.7L603.3 510L604.1 509.2L604.8 525.9L605.5 516.9L606.2 528.1L606.9 528.2L607.7 515.8L608.4 526.8L609.1 527.9L609.8 526.6L610.5 525.7L611.3 504.8L612 526.7L612.7 500.4L613.4 494.6L614.1 497.1L614.9 526.6L615.6 489.6L616.3 482.9L617 482L617.7 529.1L618.5 522.7L619.2 526.7L619.9 525.9L620.6 488.2L621.3 516.7L622.1 524L622.8 476.4L623.5 516.3L624.2 494.9L624.9 525.8L625.7 490.6L626.4 497.1L627.1 500.5L627.8 521.8L628.5 526.6L629.3 495.7L630 490.4L630.7 526.1L631.4 516.7L632.1 492.9L632.9 497L633.6 502.8L634.3 499.1L635 526.6L635.7 502.3L636.5 526.6L637.2 521.3L637.9 509.8L638.6 503.7L639.3 511.2L640.1 511L640.8 513L641.5 526L642.2 527.5L642.9 529.3L643.7 526.3L644.4 525.8L645.1 511.8L645.8 509.8L646.5 524.7L647.3 508.6L648 522.2L648.7 501.6L649.4 499.9L650.1 522.3L650.9 523.5L651.6 490L652.3 489.2L653 482.7L653.8 519.8L654.5 481L655.2 522L655.9 515.7L656.6 447L657.4 444.9L658.1 436.9L658.8 442.7L659.5 430.7L660.2 526L661 509L661.7 463.5L662.4 513.4L663.1 471.6L663.8 474L664.6 512.9L665.3 484.9L666 491.4L666.7 480.2L667.4 492.2L668.2 517.3L668.9 496.2L669.6 486.1L670.3 488.7L671 519L671.8 493.3L672.5 529.1L673.2 528.3L673.9 525.4L674.6 525L675.4 498.8L676.1 494.7L676.8 498.9L677.5 524.7L678.2 523.9L679 507.8L679.7 516.7"
            ></path>
            <path
                fill="none"
                stroke-linecap="butt"
                stroke-linejoin="round"
                stroke="#b13507"
                id="line__Southern-Hemisphere"
                stroke-width="1.5"
                stroke-opacity="1"
                d="M117.9 532.4L118.6 532.4L119.3 532.4L120 532.4L120.8 532.4L121.5 532.4L122.2 532.4L122.9 532.4L123.6 532.4L124.4 532.2L125.1 531.8L125.8 531.6L126.5 531.8L127.2 531.8L128 531.7L128.7 531.8L129.4 531.8L130.1 532.4L130.8 531.8L131.6 531.7L132.3 531.8L133 532.4L133.7 531.9L134.4 532.1L135.2 532L135.9 531.9L136.6 532L137.3 531.9L138 532L138.8 532.4L139.5 532.1L140.2 532.4L140.9 532.4L141.6 532.2L142.4 532.1L143.1 531.9L143.8 531.9L144.5 531.9L145.2 531.8L146 531.9L146.7 532.4L147.4 531.8L148.1 531.9L148.8 531.9L149.6 532.4L150.3 531.8L151 532.4L151.7 531.9L152.4 531.8L153.2 531.8L153.9 532.4L154.6 532.4L155.3 531.1L156 531.2L156.8 527L157.5 530.5L158.2 527.5L158.9 529.4L159.6 527.7L160.4 530.6L161.1 527.6L161.8 532.4L162.5 525.9L163.2 526.7L164 531.4L164.7 526.7L165.4 526.6L166.1 526.3L166.8 531.6L167.6 526.5L168.3 524.9L169 525.5L169.7 524L170.5 522.1L171.2 519.3L171.9 517.8L172.6 517.1L173.3 531.7L174.1 517.4L174.8 531.5L175.5 531.6L176.2 520.4L176.9 521.1L177.7 532.4L178.4 532.4L179.1 532.4L179.8 531.9L180.5 523.5L181.3 522.4L182 521.9L182.7 524L183.4 522.4L184.1 524.3L184.9 524.9L185.6 526.2L186.3 526.8L187 532.4L187.7 527.3L188.5 531.7L189.2 526.9L189.9 527.3L190.6 531.7L191.3 528.7L192.1 531.9L192.8 532.4L193.5 528.4L194.2 530.1L194.9 529.7L195.7 529.1L196.4 529.5L197.1 530.1L197.8 529.6L198.5 532.4L199.3 528L200 532.4L200.7 532.4L201.4 528.9L202.1 531.2L202.9 532.4L203.6 530.8L204.3 526.4L205 531.3L205.7 526.4L206.5 525.8L207.2 523.2L207.9 532.3L208.6 521.3L209.3 532.3L210.1 530.9L210.8 532.1L211.5 532.3L212.2 531.3L212.9 532.2L213.7 517.9L214.4 530.8L215.1 517.3L215.8 518.3L216.5 531L217.3 518.3L218 520.8L218.7 522.2L219.4 523.7L220.1 531.3L220.9 531.3L221.6 523.2L222.3 523.2L223 531.2L223.8 525.8L224.5 532.3L225.2 527.2L225.9 526.8L226.6 528.1L227.4 531.6L228.1 532.2L228.8 527.5L229.5 531.6L230.2 531.6L231 528.6L231.7 528.7L232.4 527.5L233.1 529.2L233.8 531.4L234.6 531.7L235.3 528.5L236 529.2L236.7 529.3L237.4 528.9L238.2 528.7L238.9 532L239.6 528.2L240.3 526.9L241 525.8L241.8 525.7L242.5 531.1L243.2 531.4L243.9 531.1L244.6 522.6L245.4 521.7L246.1 518.6L246.8 518L247.5 532.1L248.2 517.1L249 518.5L249.7 532.3L250.4 531.6L251.1 517.6L251.8 519.9L252.6 531.8L253.3 522.4L254 520L254.7 522.4L255.4 522.9L256.2 523.8L256.9 524.7L257.6 532.1L258.3 531.8L259 525.5L259.8 526.5L260.5 531.9L261.2 532.3L261.9 526.7L262.6 526.5L263.4 527.6L264.1 528.6L264.8 531.8L265.5 529L266.2 528.5L267 531.8L267.7 532.3L268.4 526.6L269.1 526.8L269.8 529.3L270.6 531.4L271.3 530.9L272 527.8L272.7 526.2L273.4 527.6L274.2 530.8L274.9 524.1L275.6 523.4L276.3 526.8L277.1 525L277.8 521.9L278.5 530L279.2 522.8L279.9 530.8L280.7 524.4L281.4 522.8L282.1 519L282.8 518.1L283.5 517.6L284.3 516.3L285 527.7L285.7 517.2L286.4 511.9L287.1 528.5L287.9 514.8L288.6 529.8L289.3 515.8L290 516.8L290.7 532L291.5 530.3L292.2 519.5L292.9 516.6L293.6 529.4L294.3 527L295.1 520L295.8 523.6L296.5 522.5L297.2 523.8L297.9 529.9L298.7 530.2L299.4 524.5L300.1 531L300.8 526L301.5 525.9L302.3 526L303 532L303.7 531.5L304.4 531.6L305.1 527L305.9 521.8L306.6 523.9L307.3 527.5L308 522.5L308.7 524.1L309.5 523.9L310.2 524.9L310.9 523.1L311.6 523.4L312.3 518.7L313.1 516.5L313.8 510.8L314.5 497.2L315.2 492.7L315.9 498.9L316.7 493.4L317.4 504.3L318.1 505L318.8 507.8L319.5 525.1L320.3 489.3L321 504L321.7 491L322.4 527.6L323.1 489.9L323.9 506.4L324.6 529.2L325.3 497.1L326 524.3L326.7 508.1L327.5 511.2L328.2 508.5L328.9 527.3L329.6 527.6L330.3 526.8L331.1 530.6L331.8 516.2L332.5 526.7L333.2 527.9L334 519L334.7 519.4L335.4 522.4L336.1 528.8L336.8 522.3L337.6 529.5L338.3 530.8L339 530.5L339.7 529.7L340.4 529L341.2 530.8L341.9 531.7L342.6 525.8L343.3 529.7L344 525.7L344.8 530.6L345.5 529.9L346.2 529.5L346.9 524.6L347.6 527.6L348.4 527.8L349.1 528L349.8 526.3L350.5 522.3L351.2 526.3L352 529.2L352.7 524.6L353.4 525.7L354.1 530L354.8 524.1L355.6 515L356.3 524.1L357 520.1L357.7 529L358.4 521.3L359.2 523.6L359.9 508.3L360.6 498.6L361.3 527.6L362 502.8L362.8 512L363.5 510.7L364.2 528.7L364.9 509.5L365.6 509.1L366.4 529.7L367.1 516.9L367.8 530.8L368.5 530.7L369.2 529.7L370 521.2L370.7 521.1L371.4 522.7L372.1 521.1L372.8 523.7L373.6 523.9L374.3 525.3L375 526.5L375.7 530.8L376.4 530.6L377.2 527.3L377.9 531L378.6 528.2L379.3 528.4L380 529.6L380.8 528.2L381.5 528.6L382.2 525.1L382.9 528.4L383.6 531.4L384.4 528.3L385.1 528.5L385.8 523.3L386.5 521.9L387.3 526.9L388 517.7L388.7 520.2L389.4 525.5L390.1 513.4L390.9 526.7L391.6 529.7L392.3 503.5L393 530.6L393.7 528.6L394.5 492.9L395.2 518.6L395.9 514.8L396.6 506.8L397.3 531.5L398.1 505.7L398.8 487.8L399.5 528L400.2 489.3L400.9 490.7L401.7 511.2L402.4 529.5L403.1 513.3L403.8 508.1L404.5 520.9L405.3 505.1L406 516.4L406.7 503.8L407.4 510.8L408.1 523.2L408.9 520.2L409.6 514.6L410.3 524.6L411 524.9L411.7 516.7L412.5 524.2L413.2 518.1L413.9 518.4L414.6 520L415.3 522.1L416.1 530.7L416.8 527.7L417.5 531L418.2 523.5L418.9 529.9L419.7 527.5L420.4 527.7L421.1 519.8L421.8 518.9L422.5 522.5L423.3 516.8L424 521.3L424.7 516.9L425.4 513.2L426.1 509.3L426.9 509.1L427.6 506.6L428.3 508.5L429 516.8L429.7 507.1L430.5 517.4L431.2 504.2L431.9 500.5L432.6 495.9L433.3 510.9L434.1 507.7L434.8 506.5L435.5 525.8L436.2 506.4L436.9 497.9L437.7 499.9L438.4 508.4L439.1 511.8L439.8 512.3L440.6 503.6L441.3 527.9L442 503.2L442.7 512.8L443.4 508.2L444.2 523.7L444.9 511.9L445.6 513.1L446.3 518.4L447 518.6L447.8 528.9L448.5 521.1L449.2 519.6L449.9 520L450.6 524.5L451.4 526.9L452.1 527L452.8 528.8L453.5 528.9L454.2 527.5L455 529.9L455.7 527.3L456.4 525.8L457.1 531.6L457.8 527.1L458.6 527.7L459.3 527.1L460 522.1L460.7 528.5L461.4 527.3L462.2 517.1L462.9 531.6L463.6 522.6L464.3 530.6L465 473.6L465.8 516.6L466.5 470.2L467.2 530.1L467.9 516L468.6 514.8L469.4 510.5L470.1 513.5L470.8 476.6L471.5 527.5L472.2 473.2L473 468.9L473.7 477.9L474.4 506.8L475.1 493.7L475.8 531.5L476.6 528.8L477.3 505.2L478 512.3L478.7 526.9L479.4 484.1L480.2 508.2L480.9 532.3L481.6 508.3L482.3 514.9L483 510.4L483.8 489.8L484.5 526.7L485.2 492.8L485.9 508.3L486.6 498.3L487.4 527.7L488.1 527.6L488.8 495.7L489.5 526.1L490.2 527.5L491 516.9L491.7 497.7L492.4 519.1L493.1 508.6L493.9 490.1L494.6 494.1L495.3 519.8L496 519.4L496.7 529L497.5 521.3L498.2 526.8L498.9 525L499.6 529.3L500.3 528L501.1 515.2L501.8 511.4L502.5 515.7L503.2 528L503.9 355.4L504.7 369.7L505.4 339.7L506.1 508.2L506.8 513.2L507.5 314.9L508.3 505.5L509 335.9L509.7 367.2L510.4 523.1L511.1 508.3L511.9 512.4L512.6 518.8L513.3 521L514 458.5L514.7 521.6L515.5 515.7L516.2 519L516.9 521.8L517.6 519.8L518.3 480.1L519.1 483.1L519.8 487.1L520.5 523.6L521.2 491.3L521.9 496.2L522.7 495.1L523.4 531.6L524.1 504L524.8 526.9L525.5 499.8L526.3 496.6L527 525.8L527.7 496L528.4 523.7L529.1 524.1L529.9 472.2L530.6 456L531.3 517L532 419.6L532.7 511.5L533.5 528.4L534.2 519L534.9 486.2L535.6 501L536.3 525.6L537.1 527.5L537.8 498.9L538.5 504.5L539.2 520.1L539.9 528.1L540.7 499.4L541.4 527.4L542.1 503L542.8 522.6L543.5 516.5L544.3 520L545 512.8L545.7 484.9L546.4 521.4L547.2 511.6L547.9 516.5L548.6 524.1L549.3 519.1L550 524.1L550.8 517.6L551.5 515.8L552.2 521.5L552.9 523.4L553.6 513.9L554.4 519.3L555.1 521L555.8 527.5L556.5 524.6L557.2 516.1L558 524.6L558.7 527.8L559.4 516.7L560.1 523.6L560.8 512.6L561.6 526.4L562.3 527.2L563 503.4L563.7 503.5L564.4 527.7L565.2 501.2L565.9 523.4L566.6 522.5L567.3 526.2L568 530.7L568.8 498.1L569.5 522.1L570.2 528.6L570.9 509.5L571.6 527.4L572.4 528.9L573.1 524.5L573.8 498.1L574.5 524.6L575.2 527.2L576 522.4L576.7 521.3L577.4 527.7L578.1 523.2L578.8 524.9L579.6 486.2L580.3 523.1L581 522.3L581.7 477.9L582.4 524.4L583.2 521L583.9 437.8L584.6 479.9L585.3 526.4L586 514L586.8 488L587.5 523.8L588.2 520.1L588.9 523.3L589.6 522.2L590.4 502L591.1 523.7L591.8 498.4L592.5 496.4L593.2 499.3L594 520.7L594.7 524.5L595.4 528.7L596.1 526.9L596.8 504.8L597.6 526.6L598.3 502.2L599 499.5L599.7 507.3L600.5 506.6L601.2 506.1L601.9 527.7L602.6 509.7L603.3 510L604.1 509.2L604.8 525.9L605.5 516.9L606.2 528.1L606.9 528.2L607.7 515.8L608.4 526.8L609.1 527.9L609.8 526.6L610.5 525.7L611.3 504.8L612 526.7L612.7 500.4L613.4 494.6L614.1 497.1L614.9 526.6L615.6 489.6L616.3 482.9L617 482L617.7 529.1L618.5 522.7L619.2 526.7L619.9 525.9L620.6 488.2L621.3 516.7L622.1 524L622.8 476.4L623.5 516.3L624.2 494.9L624.9 525.8L625.7 490.6L626.4 497.1L627.1 500.5L627.8 521.8L628.5 526.6L629.3 495.7L630 490.4L630.7 526.1L631.4 516.7L632.1 492.9L632.9 497L633.6 502.8L634.3 499.1L635 526.6L635.7 502.3L636.5 526.6L637.2 521.3L637.9 509.8L638.6 503.7L639.3 511.2L640.1 511L640.8 513L641.5 526L642.2 527.5L642.9 529.3L643.7 526.3L644.4 525.8L645.1 511.8L645.8 509.8L646.5 524.7L647.3 508.6L648 522.2L648.7 501.6L649.4 499.9L650.1 522.3L650.9 523.5L651.6 490L652.3 489.2L653 482.7L653.8 519.8L654.5 481L655.2 522L655.9 515.7L656.6 447L657.4 444.9L658.1 436.9L658.8 442.7L659.5 430.7L660.2 526L661 509L661.7 463.5L662.4 513.4L663.1 471.6L663.8 474L664.6 512.9L665.3 484.9L666 491.4L666.7 480.2L667.4 492.2L668.2 517.3L668.9 496.2L669.6 486.1L670.3 488.7L671 519L671.8 493.3L672.5 529.1L673.2 528.3L673.9 525.4L674.6 525L675.4 498.8L676.1 494.7L676.8 498.9L677.5 524.7L678.2 523.9L679 507.8L679.7 516.7"
            ></path>
            <path
                fill="none"
                stroke-linecap="butt"
                stroke-linejoin="round"
                stroke="#ffffff"
                id="outline__Northern-Hemisphere"
                stroke-width="2.5"
                d="M61.7 532.4L62.4 532.4L63.1 532.4L63.9 532.4L64.6 532.2L65.3 532.4L66 532.2L66.7 532.4L67.5 531.8L68.2 532L68.9 532.4L69.6 531.7L70.3 531.6L71.1 531.6L71.8 531.9L72.5 529.8L73.2 527.8L73.9 527.6L74.7 528.4L75.4 525.4L76.1 529.4L76.8 531.6L77.5 522.9L78.3 531.9L79 527.8L79.7 529L80.4 531.8L81.1 523.6L81.9 529.8L82.6 528.3L83.3 526.5L84 530.1L84.7 532.2L85.5 530.2L86.2 529.3L86.9 528.2L87.6 528L88.3 530.8L89.1 530.9L89.8 529.5L90.5 530.2L91.2 531.1L91.9 529.4L92.7 528.8L93.4 530.2L94.1 530.8L94.8 531.7L95.5 531.8L96.3 531.5L97 530.7L97.7 532.4L98.4 530.7L99.1 532.4L99.9 531.7L100.6 532.1L101.3 531.5L102 531.4L102.7 531.8L103.5 530.7L104.2 531L104.9 531.4L105.6 531.2L106.3 529.8L107.1 532.3L107.8 532.2L108.5 532.2L109.2 530.5L109.9 530.8L110.7 531.5L111.4 530.3L112.1 529.6L112.8 530.2L113.5 529.5L114.3 530.2L115 530.2L115.7 528.7L116.4 527.7L117.2 528.8L117.9 530.5L118.6 529.8L119.3 530.9L120 527L120.8 528.2L121.5 524.8L122.2 524L122.9 524.9L123.6 525.3L124.4 529.9L125.1 528.2L125.8 529.3L126.5 529.3L127.2 528.8L128 531.5L128.7 531.2L129.4 532.1L130.1 530.8L130.8 531.6L131.6 529.5L132.3 531.2L133 531.6L133.7 531L134.4 529.6L135.2 531.3L135.9 531L136.6 530.1L137.3 530.9L138 530.7L138.8 531.4L139.5 530.1L140.2 531.7L140.9 531.2L141.6 530.9L142.4 531.6L143.1 530.1L143.8 529.6L144.5 530.9L145.2 530L146 528.6L146.7 529.3L147.4 529L148.1 527.2L148.8 527.5L149.6 528.8L150.3 529.9L151 529.5L151.7 528.2L152.4 528.2L153.2 529.8L153.9 529.5L154.6 531.2L155.3 528.9L156 529.8L156.8 530.2L157.5 526.8L158.2 526.8L158.9 528L159.6 526.8L160.4 530.3L161.1 530L161.8 526.9L162.5 527.4L163.2 528.7L164 526.8L164.7 530.2L165.4 528.5L166.1 528.1L166.8 529L167.6 528.1L168.3 528.6L169 528.4L169.7 528.3L170.5 529.5L171.2 528.5L171.9 529.7L172.6 528.9L173.3 529.8L174.1 530.2L174.8 530L175.5 530.2L176.2 529.3L176.9 530.8L177.7 529.6L178.4 529.4L179.1 530L179.8 530.3L180.5 528.8L181.3 530.4L182 528.7L182.7 529.3L183.4 530.3L184.1 529.6L184.9 528.9L185.6 529.7L186.3 530L187 527.4L187.7 526.8L188.5 528.1L189.2 527.3L189.9 527.9L190.6 530.7L191.3 529.8L192.1 528.2L192.8 528.2L193.5 525.2L194.2 525.2L194.9 523.9L195.7 525.3L196.4 524.5L197.1 528.9L197.8 524.2L198.5 524.1L199.3 524.5L200 522.5L200.7 527L201.4 528.1L202.1 526.5L202.9 528.4L203.6 528.1L204.3 527.8L205 529.7L205.7 529.5L206.5 527.7L207.2 527.6L207.9 527L208.6 529L209.3 528.1L210.1 526.8L210.8 526.9L211.5 527.1L212.2 527.9L212.9 528.7L213.7 529L214.4 528.7L215.1 528.8L215.8 528.6L216.5 527.1L217.3 529.1L218 529L218.7 525.2L219.4 528.7L220.1 525.9L220.9 523.8L221.6 523.3L222.3 527.9L223 526.6L223.8 525.6L224.5 525.3L225.2 524.4L225.9 523.6L226.6 525L227.4 527L228.1 521.7L228.8 525.7L229.5 527.4L230.2 519.9L231 521.4L231.7 523.4L232.4 520.6L233.1 522L233.8 520.2L234.6 529.5L235.3 525.3L236 518.2L236.7 524.7L237.4 517.8L238.2 517L238.9 521.7L239.6 520.9L240.3 520.3L241 520.1L241.8 521L242.5 524.6L243.2 520.9L243.9 520.9L244.6 527.8L245.4 527.9L246.1 526.7L246.8 526.8L247.5 525.4L248.2 527.5L249 526.7L249.7 525.5L250.4 528.1L251.1 531.7L251.8 526L252.6 526.4L253.3 529.6L254 529.8L254.7 525.8L255.4 528.1L256.2 524.9L256.9 529.5L257.6 523.2L258.3 523L259 527.8L259.8 520.3L260.5 528.4L261.2 529.2L261.9 524.1L262.6 521.9L263.4 522.5L264.1 529.4L264.8 521.3L265.5 529.8L266.2 523.7L267 522.9L267.7 528.8L268.4 519L269.1 507.2L269.8 515.1L270.6 519.3L271.3 518.5L272 513.1L272.7 513.6L273.4 512.7L274.2 515.9L274.9 515.2L275.6 513L276.3 512L277.1 518.7L277.8 515.9L278.5 521.1L279.2 516.6L279.9 525.2L280.7 524.6L281.4 518.8L282.1 525.6L282.8 519.6L283.5 520L284.3 525.2L285 526.4L285.7 525.5L286.4 525.4L287.1 524.2L287.9 523.1L288.6 524.7L289.3 526.9L290 524.4L290.7 526.7L291.5 525.7L292.2 528.5L292.9 524.6L293.6 521.4L294.3 525.2L295.1 526.4L295.8 518.4L296.5 521.8L297.2 517.9L297.9 515.2L298.7 519.1L299.4 515.8L300.1 511.9L300.8 518.4L301.5 518.9L302.3 519.3L303 509L303.7 507.4L304.4 504.6L305.1 521.5L305.9 505.1L306.6 508.6L307.3 511.1L308 502.2L308.7 481.4L309.5 488.8L310.2 485.7L310.9 506.7L311.6 505.6L312.3 488.6L313.1 509.4L313.8 498.3L314.5 502.7L315.2 502.4L315.9 503.3L316.7 512.4L317.4 511.4L318.1 513.1L318.8 516.7L319.5 509.8L320.3 505.5L321 513.5L321.7 519.2L322.4 512.3L323.1 519.2L323.9 520.7L324.6 516.7L325.3 517.6L326 521L326.7 520.7L327.5 518.5L328.2 519.6L328.9 519.6L329.6 515.5L330.3 520.8L331.1 521.9L331.8 524.7L332.5 515.2L333.2 505.4L334 512.2L334.7 512.1L335.4 502L336.1 507.2L336.8 505.4L337.6 505.2L338.3 504.3L339 507.4L339.7 508.7L340.4 497.4L341.2 495.9L341.9 500.8L342.6 504.6L343.3 479L344 493.9L344.8 484.1L345.5 503.9L346.2 506.4L346.9 497.1L347.6 491.6L348.4 509.5L349.1 486.8L349.8 494.5L350.5 489.4L351.2 493.3L352 506L352.7 506.4L353.4 505.8L354.1 509.1L354.8 514.1L355.6 498.7L356.3 512L357 516L357.7 519.1L358.4 519.7L359.2 512.8L359.9 516.5L360.6 507L361.3 503.8L362 505.5L362.8 506L363.5 508.4L364.2 511.9L364.9 525.1L365.6 513.7L366.4 502.3L367.1 521.5L367.8 504.2L368.5 512.4L369.2 522.7L370 505.8L370.7 517.9L371.4 519.4L372.1 504.1L372.8 506.4L373.6 505.6L374.3 514.7L375 511.7L375.7 518.2L376.4 515.3L377.2 501.7L377.9 507.6L378.6 501.4L379.3 505.1L380 503.3L380.8 499.3L381.5 501.2L382.2 494.8L382.9 504.9L383.6 506.6L384.4 498L385.1 502.8L385.8 497.6L386.5 497.4L387.3 502.9L388 503.7L388.7 499.5L389.4 506.1L390.1 508.5L390.9 502.4L391.6 507.7L392.3 512.5L393 512.7L393.7 515.4L394.5 513.8L395.2 512L395.9 517.1L396.6 516.5L397.3 516.3L398.1 519.9L398.8 519.3L399.5 522.5L400.2 519.4L400.9 522.7L401.7 520.2L402.4 518.5L403.1 520.1L403.8 521.5L404.5 521.6L405.3 519.3L406 520.1L406.7 519.4L407.4 513.8L408.1 513.3L408.9 513.7L409.6 509.1L410.3 514.1L411 509.3L411.7 507.6L412.5 511.2L413.2 505.4L413.9 511.7L414.6 502L415.3 500.7L416.1 495.3L416.8 497.8L417.5 503.4L418.2 488L418.9 484.6L419.7 472.4L420.4 494.1L421.1 496.5L421.8 494.5L422.5 490.9L423.3 497.2L424 494L424.7 506.3L425.4 499.4L426.1 497.1L426.9 494.3L427.6 497.9L428.3 501.4L429 504.4L429.7 506.1L430.5 502.5L431.2 501.3L431.9 509.9L432.6 501.7L433.3 504.5L434.1 506.5L434.8 498.3L435.5 508.4L436.2 515.7L436.9 505L437.7 514.4L438.4 508.7L439.1 504.2L439.8 508.5L440.6 507.4L441.3 513.4L442 512.2L442.7 507.2L443.4 504.2L444.2 515.8L444.9 495.5L445.6 510L446.3 494.3L447 479.9L447.8 504.1L448.5 483.6L449.2 507L449.9 484.4L450.6 482.3L451.4 498.2L452.1 485.4L452.8 498.6L453.5 484.9L454.2 497.5L455 489.8L455.7 481.7L456.4 481.8L457.1 489.6L457.8 486.8L458.6 473.2L459.3 478.2L460 481.2L460.7 474L461.4 483.2L462.2 503.8L462.9 495.2L463.6 493.3L464.3 499L465 514.4L465.8 504.3L466.5 508.5L467.2 498.7L467.9 511.3L468.6 493.9L469.4 490.2L470.1 515.7L470.8 473.6L471.5 479L472.2 487.2L473 487L473.7 492.6L474.4 508.9L475.1 515.2L475.8 492L476.6 519.3L477.3 492.6L478 518.4L478.7 499.3L479.4 485.2L480.2 494.2L480.9 514.8L481.6 502.4L482.3 506L483 495.7L483.8 493.7L484.5 511L485.2 521.4L485.9 501.3L486.6 498.4L487.4 512.5L488.1 510.4L488.8 505.3L489.5 498.8L490.2 492.1L491 505.1L491.7 510.7L492.4 486.6L493.1 520.4L493.9 385.8L494.6 457.4L495.3 376.2L496 253.4L496.7 485.2L497.5 487.1L498.2 431.8L498.9 491.4L499.6 436.7L500.3 472.6L501.1 445.3L501.8 470.6L502.5 467.3L503.2 466.4L503.9 459.9L504.7 499.2L505.4 463.5L506.1 468.6L506.8 463.7L507.5 481.1L508.3 502.5L509 483L509.7 469.3L510.4 486L511.1 462.3L511.9 461.4L512.6 453.7L513.3 505.2L514 271.2L514.7 407.6L515.5 485.1L516.2 416.9L516.9 478.9L517.6 496.2L518.3 411.3L519.1 170.6L519.8 456.9L520.5 413.6L521.2 462.6L521.9 426.9L522.7 146.4L523.4 445.5L524.1 466.2L524.8 452.6L525.5 435.7L526.3 490.5L527 447.4L527.7 447.8L528.4 466.2L529.1 475.1L529.9 484.6L530.6 464.7L531.3 485.7L532 395.8L532.7 416.4L533.5 480.4L534.2 485.1L534.9 486.7L535.6 453.8L536.3 476L537.1 484.9L537.8 502L538.5 472.3L539.2 487.7L539.9 489.1L540.7 472.8L541.4 502.4L542.1 487.7L542.8 494.6L543.5 496.1L544.3 509L545 494.5L545.7 502.1L546.4 511.2L547.2 513.2L547.9 514.1L548.6 492.1L549.3 495L550 488.1L550.8 507.6L551.5 504.4L552.2 493.4L552.9 486L553.6 489.2L554.4 497.4L555.1 493.8L555.8 494.2L556.5 499.9L557.2 514.8L558 502.8L558.7 506.5L559.4 472.1L560.1 485.6L560.8 506.1L561.6 479L562.3 478.3L563 458.3L563.7 490.4L564.4 471.7L565.2 477.5L565.9 479.8L566.6 456.9L567.3 418.2L568 454.6L568.8 439.1L569.5 485.7L570.2 472.5L570.9 496.7L571.6 490.6L572.4 451L573.1 493.3L573.8 458.5L574.5 501.9L575.2 491L576 483.6L576.7 482.7L577.4 473.9L578.1 502.4L578.8 480.7L579.6 502.2L580.3 501.8L581 495L581.7 467.7L582.4 481.6L583.2 466.6L583.9 504.6L584.6 500L585.3 494.1L586 508.6L586.8 513.7L587.5 489.4L588.2 475.6L588.9 501.3L589.6 489L590.4 482.8L591.1 502L591.8 491.4L592.5 477.8L593.2 493.5L594 504.3L594.7 472.3L595.4 483.9L596.1 504.6L596.8 497.3L597.6 493.7L598.3 489.1L599 498.5L599.7 455.5L600.5 440.4L601.2 471.1L601.9 450.3L602.6 441.7L603.3 467.3L604.1 431.1L604.8 395.3L605.5 486.1L606.2 440L606.9 494.9L607.7 408.2L608.4 491.2L609.1 409.7L609.8 422.4L610.5 428.2L611.3 407.1L612 467.3L612.7 498.1L613.4 420.6L614.1 467.7L614.9 449.8L615.6 464L616.3 497.2L617 491.5L617.7 448.4L618.5 456.7L619.2 479.5L619.9 486.6L620.6 479.3L621.3 456.2L622.1 448.8L622.8 457.5L623.5 463.9L624.2 481.8L624.9 486.3L625.7 480.7L626.4 470.3L627.1 474.3L627.8 459.4L628.5 463.4L629.3 467.7L630 501.9L630.7 481L631.4 476.4L632.1 466.2L632.9 481L633.6 481.9L634.3 462.7L635 492.5L635.7 421.4L636.5 466.3L637.2 477.8L637.9 468L638.6 492.4L639.3 503.2L640.1 459.2L640.8 457.9L641.5 457.5L642.2 418.1L642.9 394.5L643.7 459.4L644.4 408.8L645.1 439.6L645.8 373.4L646.5 432.6L647.3 437.7L648 380.7L648.7 432.3L649.4 464L650.1 457.9L650.9 474L651.6 452.4L652.3 455.1L653 492.7L653.8 461.6L654.5 472.2L655.2 469.9L655.9 487.3L656.6 465.4L657.4 454.4L658.1 480.7L658.8 481.9L659.5 489.8L660.2 484.9L661 480.7L661.7 487.7L662.4 480.3L663.1 482.9L663.8 508L664.6 473.6L665.3 501.9L666 505.6L666.7 503L667.4 495.6L668.2 497.5L668.9 485.5L669.6 483.8L670.3 466.8L671 481.8L671.8 468.7L672.5 435L673.2 493L673.9 466.9L674.6 458.6L675.4 449.5L676.1 467.9L676.8 480L677.5 489.6L678.2 472L679 474.9L679.7 500.1"
            ></path>
            <path
                fill="none"
                stroke-linecap="butt"
                stroke-linejoin="round"
                stroke="#4c6a9c"
                id="line__Northern-Hemisphere"
                stroke-width="1.5"
                stroke-opacity="1"
                d="M61.7 532.4L62.4 532.4L63.1 532.4L63.9 532.4L64.6 532.2L65.3 532.4L66 532.2L66.7 532.4L67.5 531.8L68.2 532L68.9 532.4L69.6 531.7L70.3 531.6L71.1 531.6L71.8 531.9L72.5 529.8L73.2 527.8L73.9 527.6L74.7 528.4L75.4 525.4L76.1 529.4L76.8 531.6L77.5 522.9L78.3 531.9L79 527.8L79.7 529L80.4 531.8L81.1 523.6L81.9 529.8L82.6 528.3L83.3 526.5L84 530.1L84.7 532.2L85.5 530.2L86.2 529.3L86.9 528.2L87.6 528L88.3 530.8L89.1 530.9L89.8 529.5L90.5 530.2L91.2 531.1L91.9 529.4L92.7 528.8L93.4 530.2L94.1 530.8L94.8 531.7L95.5 531.8L96.3 531.5L97 530.7L97.7 532.4L98.4 530.7L99.1 532.4L99.9 531.7L100.6 532.1L101.3 531.5L102 531.4L102.7 531.8L103.5 530.7L104.2 531L104.9 531.4L105.6 531.2L106.3 529.8L107.1 532.3L107.8 532.2L108.5 532.2L109.2 530.5L109.9 530.8L110.7 531.5L111.4 530.3L112.1 529.6L112.8 530.2L113.5 529.5L114.3 530.2L115 530.2L115.7 528.7L116.4 527.7L117.2 528.8L117.9 530.5L118.6 529.8L119.3 530.9L120 527L120.8 528.2L121.5 524.8L122.2 524L122.9 524.9L123.6 525.3L124.4 529.9L125.1 528.2L125.8 529.3L126.5 529.3L127.2 528.8L128 531.5L128.7 531.2L129.4 532.1L130.1 530.8L130.8 531.6L131.6 529.5L132.3 531.2L133 531.6L133.7 531L134.4 529.6L135.2 531.3L135.9 531L136.6 530.1L137.3 530.9L138 530.7L138.8 531.4L139.5 530.1L140.2 531.7L140.9 531.2L141.6 530.9L142.4 531.6L143.1 530.1L143.8 529.6L144.5 530.9L145.2 530L146 528.6L146.7 529.3L147.4 529L148.1 527.2L148.8 527.5L149.6 528.8L150.3 529.9L151 529.5L151.7 528.2L152.4 528.2L153.2 529.8L153.9 529.5L154.6 531.2L155.3 528.9L156 529.8L156.8 530.2L157.5 526.8L158.2 526.8L158.9 528L159.6 526.8L160.4 530.3L161.1 530L161.8 526.9L162.5 527.4L163.2 528.7L164 526.8L164.7 530.2L165.4 528.5L166.1 528.1L166.8 529L167.6 528.1L168.3 528.6L169 528.4L169.7 528.3L170.5 529.5L171.2 528.5L171.9 529.7L172.6 528.9L173.3 529.8L174.1 530.2L174.8 530L175.5 530.2L176.2 529.3L176.9 530.8L177.7 529.6L178.4 529.4L179.1 530L179.8 530.3L180.5 528.8L181.3 530.4L182 528.7L182.7 529.3L183.4 530.3L184.1 529.6L184.9 528.9L185.6 529.7L186.3 530L187 527.4L187.7 526.8L188.5 528.1L189.2 527.3L189.9 527.9L190.6 530.7L191.3 529.8L192.1 528.2L192.8 528.2L193.5 525.2L194.2 525.2L194.9 523.9L195.7 525.3L196.4 524.5L197.1 528.9L197.8 524.2L198.5 524.1L199.3 524.5L200 522.5L200.7 527L201.4 528.1L202.1 526.5L202.9 528.4L203.6 528.1L204.3 527.8L205 529.7L205.7 529.5L206.5 527.7L207.2 527.6L207.9 527L208.6 529L209.3 528.1L210.1 526.8L210.8 526.9L211.5 527.1L212.2 527.9L212.9 528.7L213.7 529L214.4 528.7L215.1 528.8L215.8 528.6L216.5 527.1L217.3 529.1L218 529L218.7 525.2L219.4 528.7L220.1 525.9L220.9 523.8L221.6 523.3L222.3 527.9L223 526.6L223.8 525.6L224.5 525.3L225.2 524.4L225.9 523.6L226.6 525L227.4 527L228.1 521.7L228.8 525.7L229.5 527.4L230.2 519.9L231 521.4L231.7 523.4L232.4 520.6L233.1 522L233.8 520.2L234.6 529.5L235.3 525.3L236 518.2L236.7 524.7L237.4 517.8L238.2 517L238.9 521.7L239.6 520.9L240.3 520.3L241 520.1L241.8 521L242.5 524.6L243.2 520.9L243.9 520.9L244.6 527.8L245.4 527.9L246.1 526.7L246.8 526.8L247.5 525.4L248.2 527.5L249 526.7L249.7 525.5L250.4 528.1L251.1 531.7L251.8 526L252.6 526.4L253.3 529.6L254 529.8L254.7 525.8L255.4 528.1L256.2 524.9L256.9 529.5L257.6 523.2L258.3 523L259 527.8L259.8 520.3L260.5 528.4L261.2 529.2L261.9 524.1L262.6 521.9L263.4 522.5L264.1 529.4L264.8 521.3L265.5 529.8L266.2 523.7L267 522.9L267.7 528.8L268.4 519L269.1 507.2L269.8 515.1L270.6 519.3L271.3 518.5L272 513.1L272.7 513.6L273.4 512.7L274.2 515.9L274.9 515.2L275.6 513L276.3 512L277.1 518.7L277.8 515.9L278.5 521.1L279.2 516.6L279.9 525.2L280.7 524.6L281.4 518.8L282.1 525.6L282.8 519.6L283.5 520L284.3 525.2L285 526.4L285.7 525.5L286.4 525.4L287.1 524.2L287.9 523.1L288.6 524.7L289.3 526.9L290 524.4L290.7 526.7L291.5 525.7L292.2 528.5L292.9 524.6L293.6 521.4L294.3 525.2L295.1 526.4L295.8 518.4L296.5 521.8L297.2 517.9L297.9 515.2L298.7 519.1L299.4 515.8L300.1 511.9L300.8 518.4L301.5 518.9L302.3 519.3L303 509L303.7 507.4L304.4 504.6L305.1 521.5L305.9 505.1L306.6 508.6L307.3 511.1L308 502.2L308.7 481.4L309.5 488.8L310.2 485.7L310.9 506.7L311.6 505.6L312.3 488.6L313.1 509.4L313.8 498.3L314.5 502.7L315.2 502.4L315.9 503.3L316.7 512.4L317.4 511.4L318.1 513.1L318.8 516.7L319.5 509.8L320.3 505.5L321 513.5L321.7 519.2L322.4 512.3L323.1 519.2L323.9 520.7L324.6 516.7L325.3 517.6L326 521L326.7 520.7L327.5 518.5L328.2 519.6L328.9 519.6L329.6 515.5L330.3 520.8L331.1 521.9L331.8 524.7L332.5 515.2L333.2 505.4L334 512.2L334.7 512.1L335.4 502L336.1 507.2L336.8 505.4L337.6 505.2L338.3 504.3L339 507.4L339.7 508.7L340.4 497.4L341.2 495.9L341.9 500.8L342.6 504.6L343.3 479L344 493.9L344.8 484.1L345.5 503.9L346.2 506.4L346.9 497.1L347.6 491.6L348.4 509.5L349.1 486.8L349.8 494.5L350.5 489.4L351.2 493.3L352 506L352.7 506.4L353.4 505.8L354.1 509.1L354.8 514.1L355.6 498.7L356.3 512L357 516L357.7 519.1L358.4 519.7L359.2 512.8L359.9 516.5L360.6 507L361.3 503.8L362 505.5L362.8 506L363.5 508.4L364.2 511.9L364.9 525.1L365.6 513.7L366.4 502.3L367.1 521.5L367.8 504.2L368.5 512.4L369.2 522.7L370 505.8L370.7 517.9L371.4 519.4L372.1 504.1L372.8 506.4L373.6 505.6L374.3 514.7L375 511.7L375.7 518.2L376.4 515.3L377.2 501.7L377.9 507.6L378.6 501.4L379.3 505.1L380 503.3L380.8 499.3L381.5 501.2L382.2 494.8L382.9 504.9L383.6 506.6L384.4 498L385.1 502.8L385.8 497.6L386.5 497.4L387.3 502.9L388 503.7L388.7 499.5L389.4 506.1L390.1 508.5L390.9 502.4L391.6 507.7L392.3 512.5L393 512.7L393.7 515.4L394.5 513.8L395.2 512L395.9 517.1L396.6 516.5L397.3 516.3L398.1 519.9L398.8 519.3L399.5 522.5L400.2 519.4L400.9 522.7L401.7 520.2L402.4 518.5L403.1 520.1L403.8 521.5L404.5 521.6L405.3 519.3L406 520.1L406.7 519.4L407.4 513.8L408.1 513.3L408.9 513.7L409.6 509.1L410.3 514.1L411 509.3L411.7 507.6L412.5 511.2L413.2 505.4L413.9 511.7L414.6 502L415.3 500.7L416.1 495.3L416.8 497.8L417.5 503.4L418.2 488L418.9 484.6L419.7 472.4L420.4 494.1L421.1 496.5L421.8 494.5L422.5 490.9L423.3 497.2L424 494L424.7 506.3L425.4 499.4L426.1 497.1L426.9 494.3L427.6 497.9L428.3 501.4L429 504.4L429.7 506.1L430.5 502.5L431.2 501.3L431.9 509.9L432.6 501.7L433.3 504.5L434.1 506.5L434.8 498.3L435.5 508.4L436.2 515.7L436.9 505L437.7 514.4L438.4 508.7L439.1 504.2L439.8 508.5L440.6 507.4L441.3 513.4L442 512.2L442.7 507.2L443.4 504.2L444.2 515.8L444.9 495.5L445.6 510L446.3 494.3L447 479.9L447.8 504.1L448.5 483.6L449.2 507L449.9 484.4L450.6 482.3L451.4 498.2L452.1 485.4L452.8 498.6L453.5 484.9L454.2 497.5L455 489.8L455.7 481.7L456.4 481.8L457.1 489.6L457.8 486.8L458.6 473.2L459.3 478.2L460 481.2L460.7 474L461.4 483.2L462.2 503.8L462.9 495.2L463.6 493.3L464.3 499L465 514.4L465.8 504.3L466.5 508.5L467.2 498.7L467.9 511.3L468.6 493.9L469.4 490.2L470.1 515.7L470.8 473.6L471.5 479L472.2 487.2L473 487L473.7 492.6L474.4 508.9L475.1 515.2L475.8 492L476.6 519.3L477.3 492.6L478 518.4L478.7 499.3L479.4 485.2L480.2 494.2L480.9 514.8L481.6 502.4L482.3 506L483 495.7L483.8 493.7L484.5 511L485.2 521.4L485.9 501.3L486.6 498.4L487.4 512.5L488.1 510.4L488.8 505.3L489.5 498.8L490.2 492.1L491 505.1L491.7 510.7L492.4 486.6L493.1 520.4L493.9 385.8L494.6 457.4L495.3 376.2L496 253.4L496.7 485.2L497.5 487.1L498.2 431.8L498.9 491.4L499.6 436.7L500.3 472.6L501.1 445.3L501.8 470.6L502.5 467.3L503.2 466.4L503.9 459.9L504.7 499.2L505.4 463.5L506.1 468.6L506.8 463.7L507.5 481.1L508.3 502.5L509 483L509.7 469.3L510.4 486L511.1 462.3L511.9 461.4L512.6 453.7L513.3 505.2L514 271.2L514.7 407.6L515.5 485.1L516.2 416.9L516.9 478.9L517.6 496.2L518.3 411.3L519.1 170.6L519.8 456.9L520.5 413.6L521.2 462.6L521.9 426.9L522.7 146.4L523.4 445.5L524.1 466.2L524.8 452.6L525.5 435.7L526.3 490.5L527 447.4L527.7 447.8L528.4 466.2L529.1 475.1L529.9 484.6L530.6 464.7L531.3 485.7L532 395.8L532.7 416.4L533.5 480.4L534.2 485.1L534.9 486.7L535.6 453.8L536.3 476L537.1 484.9L537.8 502L538.5 472.3L539.2 487.7L539.9 489.1L540.7 472.8L541.4 502.4L542.1 487.7L542.8 494.6L543.5 496.1L544.3 509L545 494.5L545.7 502.1L546.4 511.2L547.2 513.2L547.9 514.1L548.6 492.1L549.3 495L550 488.1L550.8 507.6L551.5 504.4L552.2 493.4L552.9 486L553.6 489.2L554.4 497.4L555.1 493.8L555.8 494.2L556.5 499.9L557.2 514.8L558 502.8L558.7 506.5L559.4 472.1L560.1 485.6L560.8 506.1L561.6 479L562.3 478.3L563 458.3L563.7 490.4L564.4 471.7L565.2 477.5L565.9 479.8L566.6 456.9L567.3 418.2L568 454.6L568.8 439.1L569.5 485.7L570.2 472.5L570.9 496.7L571.6 490.6L572.4 451L573.1 493.3L573.8 458.5L574.5 501.9L575.2 491L576 483.6L576.7 482.7L577.4 473.9L578.1 502.4L578.8 480.7L579.6 502.2L580.3 501.8L581 495L581.7 467.7L582.4 481.6L583.2 466.6L583.9 504.6L584.6 500L585.3 494.1L586 508.6L586.8 513.7L587.5 489.4L588.2 475.6L588.9 501.3L589.6 489L590.4 482.8L591.1 502L591.8 491.4L592.5 477.8L593.2 493.5L594 504.3L594.7 472.3L595.4 483.9L596.1 504.6L596.8 497.3L597.6 493.7L598.3 489.1L599 498.5L599.7 455.5L600.5 440.4L601.2 471.1L601.9 450.3L602.6 441.7L603.3 467.3L604.1 431.1L604.8 395.3L605.5 486.1L606.2 440L606.9 494.9L607.7 408.2L608.4 491.2L609.1 409.7L609.8 422.4L610.5 428.2L611.3 407.1L612 467.3L612.7 498.1L613.4 420.6L614.1 467.7L614.9 449.8L615.6 464L616.3 497.2L617 491.5L617.7 448.4L618.5 456.7L619.2 479.5L619.9 486.6L620.6 479.3L621.3 456.2L622.1 448.8L622.8 457.5L623.5 463.9L624.2 481.8L624.9 486.3L625.7 480.7L626.4 470.3L627.1 474.3L627.8 459.4L628.5 463.4L629.3 467.7L630 501.9L630.7 481L631.4 476.4L632.1 466.2L632.9 481L633.6 481.9L634.3 462.7L635 492.5L635.7 421.4L636.5 466.3L637.2 477.8L637.9 468L638.6 492.4L639.3 503.2L640.1 459.2L640.8 457.9L641.5 457.5L642.2 418.1L642.9 394.5L643.7 459.4L644.4 408.8L645.1 439.6L645.8 373.4L646.5 432.6L647.3 437.7L648 380.7L648.7 432.3L649.4 464L650.1 457.9L650.9 474L651.6 452.4L652.3 455.1L653 492.7L653.8 461.6L654.5 472.2L655.2 469.9L655.9 487.3L656.6 465.4L657.4 454.4L658.1 480.7L658.8 481.9L659.5 489.8L660.2 484.9L661 480.7L661.7 487.7L662.4 480.3L663.1 482.9L663.8 508L664.6 473.6L665.3 501.9L666 505.6L666.7 503L667.4 495.6L668.2 497.5L668.9 485.5L669.6 483.8L670.3 466.8L671 481.8L671.8 468.7L672.5 435L673.2 493L673.9 466.9L674.6 458.6L675.4 449.5L676.1 467.9L676.8 480L677.5 489.6L678.2 472L679 474.9L679.7 500.1"
            ></path>
        </g>
    </g>
    <g id="footer" class="SourcesFooter" style="fill: #767676">
        <g id="sources" class="markdown-text-wrap">
            <text x="16.0" y="581.0" style="font-size: 13px; line-height: 1.2">
                <tspan x="16" y="581.0">
                    <tspan style="font-weight: 700">Data source:</tspan>
                    FluID by the World Health Organization (2023)
                </tspan>
            </text>
        </g>
        <text id="origin-url" font-size="13.00" x="796.7" y="581.0">
            <tspan x="796.69" y="581.01">
                <a
                    style="fill: #767676"
                    href="https://creativecommons.org/licenses/by/4.0/"
                >
                    CC BY
                </a>
            </tspan>
        </text>
    </g>
</svg>
