<svg
    xmlns="http://www.w3.org/2000/svg"
    version="1.1"
    style='font-family:Lato, &#x27;Helvetica Neue&#x27;, Helvetica, Arial, &#x27;Liberation Sans&#x27;, sans-serif;font-feature-settings:"liga", "kern", "calt", "lnum";text-rendering:geometricPrecision;-webkit-font-smoothing:antialiased;font-size:18px;background-color:#fff'
    width="850"
    height="600"
    viewBox="0 0 850 600"
>
    <defs>
        <style>
            @import url(https://ourworldindata.org/fonts.css);
        </style>
    </defs>
    <defs>
        <pattern
            id="noDataPattern"
            patternUnits="userSpaceOnUse"
            width="4"
            height="4"
            patternTransform="rotate(-45 2 2)"
        >
            <path d="M -1,2 l 6,0" stroke="#ccc" stroke-width="0.7"></path>
        </pattern>
    </defs>
    <g id="header" class="HeaderView">
        <g id="logo" transform="translate(769, 16) scale(1)">
            <svg
                className="owidLogo"
                xmlns="http://www.w3.org/2000/svg"
                width="65"
                height="36"
                viewBox="0 0 65 36"
                fill="none"
            >
                <path fill="#002147" d="M0 0h64.8v36H0z" />
                <path fill="#CE261E" d="M0 33.3h64.8V36H0z" />
                <path
                    fill="#fff"
                    d="M13.796 10.575c0 .636-.106 1.226-.318 1.77a4.193 4.193 0 0 1-.894 1.404 4.084 4.084 0 0 1-1.386.93c-.54.22-1.138.33-1.794.33-.656 0-1.256-.11-1.8-.33a4.149 4.149 0 0 1-1.392-.93 4.193 4.193 0 0 1-.894-1.404A4.833 4.833 0 0 1 5 10.575c0-.636.106-1.224.318-1.764a4.18 4.18 0 0 1 .894-1.41 4.076 4.076 0 0 1 1.392-.924 4.684 4.684 0 0 1 1.8-.336c.656 0 1.254.112 1.794.336.54.224 1.002.534 1.386.93.384.392.682.86.894 1.404.212.54.318 1.128.318 1.764Zm-1.656 0c0-.476-.064-.902-.192-1.278a2.671 2.671 0 0 0-.54-.966 2.332 2.332 0 0 0-.864-.606 2.94 2.94 0 0 0-1.14-.21c-.424 0-.806.07-1.146.21-.34.14-.63.342-.87.606a2.742 2.742 0 0 0-.546.966 3.955 3.955 0 0 0-.192 1.278c0 .476.064.904.192 1.284.128.376.31.696.546.96.24.26.53.46.87.6.34.14.722.21 1.146.21.424 0 .804-.07 1.14-.21.34-.14.628-.34.864-.6.236-.264.416-.584.54-.96a4.01 4.01 0 0 0 .192-1.284ZM16.104 8.757v3.912c0 .376.086.668.258.876.176.204.438.306.786.306.256 0 .496-.056.72-.168a2.58 2.58 0 0 0 .636-.474V8.757h1.482v6.156h-.906c-.192 0-.318-.09-.378-.27l-.102-.492a4.65 4.65 0 0 1-.396.354 2.577 2.577 0 0 1-.438.27 2.35 2.35 0 0 1-.498.168 2.345 2.345 0 0 1-.57.066c-.336 0-.634-.056-.894-.168a1.821 1.821 0 0 1-.648-.486 2.157 2.157 0 0 1-.402-.738 3.233 3.233 0 0 1-.132-.948V8.757h1.482ZM21.328 14.913V8.757h.87c.152 0 .258.028.318.084.06.056.1.152.12.288l.09.744c.22-.38.478-.68.774-.9.296-.22.628-.33.996-.33.304 0 .556.07.756.21l-.192 1.11c-.012.072-.038.124-.078.156a.278.278 0 0 1-.162.042 1.01 1.01 0 0 1-.246-.042 1.646 1.646 0 0 0-.414-.042c-.308 0-.572.086-.792.258-.22.168-.406.416-.558.744v3.834h-1.482ZM27.347 6.237h1.356a.57.57 0 0 1 .348.102c.096.064.16.152.192.264l1.476 5.19c.036.128.068.268.096.42.032.148.062.306.09.474a5.968 5.968 0 0 1 .228-.894l1.704-5.19a.575.575 0 0 1 .186-.252.543.543 0 0 1 .348-.114h.474a.57.57 0 0 1 .348.102.497.497 0 0 1 .192.264l1.692 5.19c.088.256.164.54.228.852.028-.156.056-.306.084-.45.032-.144.064-.278.096-.402l1.476-5.19c.028-.1.09-.186.186-.258a.563.563 0 0 1 .348-.108h1.266l-2.694 8.676h-1.458l-1.896-5.928-.078-.246a9.504 9.504 0 0 1-.072-.282c-.024.1-.05.194-.078.282-.024.088-.048.17-.072.246l-1.914 5.928H30.04l-2.694-8.676ZM42.771 8.661c.46 0 .876.074 1.248.222.376.148.696.358.96.63s.468.604.612.996c.144.392.216.83.216 1.314 0 .488-.072.928-.216 1.32a2.85 2.85 0 0 1-.612 1.002 2.653 2.653 0 0 1-.96.636 3.35 3.35 0 0 1-1.248.222c-.46 0-.878-.074-1.254-.222a2.712 2.712 0 0 1-.966-.636 2.922 2.922 0 0 1-.618-1.002 3.807 3.807 0 0 1-.216-1.32c0-.484.072-.922.216-1.314.148-.392.354-.724.618-.996.268-.272.59-.482.966-.63a3.397 3.397 0 0 1 1.254-.222Zm0 5.202c.512 0 .89-.172 1.134-.516.248-.344.372-.848.372-1.512s-.124-1.17-.372-1.518c-.244-.348-.622-.522-1.134-.522-.52 0-.904.176-1.152.528-.248.348-.372.852-.372 1.512s.124 1.164.372 1.512c.248.344.632.516 1.152.516ZM46.723 14.913V8.757h.87c.152 0 .258.028.318.084.06.056.1.152.12.288l.09.744c.22-.38.478-.68.774-.9.296-.22.628-.33.996-.33.304 0 .556.07.756.21l-.192 1.11c-.012.072-.038.124-.078.156a.278.278 0 0 1-.162.042 1.01 1.01 0 0 1-.246-.042 1.646 1.646 0 0 0-.414-.042c-.308 0-.572.086-.792.258-.22.168-.406.416-.558.744v3.834h-1.482ZM52.96 5.997v8.916h-1.482V5.997h1.482ZM58.732 14.913c-.192 0-.318-.09-.378-.27l-.12-.594a3.68 3.68 0 0 1-.402.39c-.14.116-.292.216-.456.3-.16.084-.334.148-.522.192a2.372 2.372 0 0 1-.6.072c-.336 0-.644-.07-.924-.21a2.098 2.098 0 0 1-.726-.606 3.033 3.033 0 0 1-.468-.99 5.072 5.072 0 0 1-.162-1.344c0-.456.062-.88.186-1.272s.302-.732.534-1.02c.232-.288.51-.512.834-.672a2.384 2.384 0 0 1 1.092-.246 2.103 2.103 0 0 1 1.536.606V5.997h1.482v8.916h-.906Zm-1.974-1.086c.308 0 .57-.064.786-.192.216-.128.42-.31.612-.546v-2.76a1.452 1.452 0 0 0-.552-.432 1.597 1.597 0 0 0-.636-.126c-.224 0-.428.042-.612.126a1.21 1.21 0 0 0-.462.384c-.124.168-.22.384-.288.648-.068.26-.102.568-.102.924 0 .36.028.666.084.918.06.248.144.452.252.612.108.156.24.27.396.342.156.068.33.102.522.102ZM16.331 20.757v6.156H14.85v-6.156h1.481Zm.223-1.794a.844.844 0 0 1-.078.36.963.963 0 0 1-.21.294.995.995 0 0 1-.3.204.963.963 0 0 1-.372.072.948.948 0 0 1-.367-.072 1.018 1.018 0 0 1-.498-.498.963.963 0 0 1 0-.732.995.995 0 0 1 .205-.3.929.929 0 0 1 .293-.198.899.899 0 0 1 .738 0 .912.912 0 0 1 .3.198.943.943 0 0 1 .288.672ZM17.771 26.913v-6.156h.906c.192 0 .318.09.378.27l.102.486a2.934 2.934 0 0 1 .828-.618c.156-.076.322-.134.498-.174.176-.04.368-.06.576-.06.336 0 .634.058.894.174.26.112.476.272.648.48.176.204.308.45.396.738.092.284.138.598.138.942v3.918h-1.482v-3.918c0-.376-.088-.666-.264-.87-.172-.208-.432-.312-.78-.312-.256 0-.496.058-.72.174a2.58 2.58 0 0 0-.636.474v4.452h-1.482ZM34.22 22.575c0 .636-.106 1.22-.318 1.752-.212.532-.51.99-.894 1.374a4 4 0 0 1-1.386.894 4.87 4.87 0 0 1-1.794.318h-3.312v-8.676h3.312a4.79 4.79 0 0 1 1.794.324 4 4 0 0 1 1.386.894c.384.38.682.836.894 1.368.212.532.318 1.116.318 1.752Zm-1.65 0c0-.476-.064-.902-.192-1.278a2.68 2.68 0 0 0-.546-.96 2.332 2.332 0 0 0-.864-.606 2.94 2.94 0 0 0-1.14-.21h-1.686v6.108h1.686c.424 0 .804-.07 1.14-.21.34-.14.628-.34.864-.6a2.75 2.75 0 0 0 .546-.96 4.01 4.01 0 0 0 .192-1.284ZM39.98 26.913h-.665c-.14 0-.25-.02-.33-.06-.08-.044-.14-.13-.18-.258l-.132-.438c-.156.14-.31.264-.462.372a2.804 2.804 0 0 1-.462.264c-.16.072-.33.126-.51.162-.18.036-.38.054-.6.054-.26 0-.5-.034-.72-.102a1.618 1.618 0 0 1-.57-.318 1.448 1.448 0 0 1-.366-.522 1.852 1.852 0 0 1-.132-.726c0-.232.06-.46.18-.684.124-.228.328-.432.612-.612.284-.184.662-.336 1.134-.456.472-.12 1.058-.188 1.758-.204v-.36c0-.412-.088-.716-.264-.912-.172-.2-.424-.3-.756-.3a1.837 1.837 0 0 0-1.02.276c-.116.068-.224.13-.324.186a.664.664 0 0 1-.33.084.429.429 0 0 1-.258-.078.614.614 0 0 1-.174-.192l-.27-.474c.708-.648 1.562-.972 2.562-.972.36 0 .68.06.96.18.284.116.524.28.72.492.196.208.344.458.444.75.104.292.156.612.156.96v3.888Zm-2.88-.924c.153 0 .293-.014.42-.042.129-.028.249-.07.36-.126.117-.056.227-.124.33-.204.109-.084.217-.182.325-.294v-1.038c-.432.02-.794.058-1.086.114-.288.052-.52.12-.696.204a.923.923 0 0 0-.378.294.664.664 0 0 0-.108.366c0 .26.076.446.228.558.156.112.358.168.606.168ZM43.22 27.01c-.532 0-.942-.15-1.23-.45-.288-.305-.432-.723-.432-1.255v-3.438h-.624a.31.31 0 0 1-.21-.078c-.056-.052-.084-.13-.084-.234v-.588l.99-.162.312-1.68a.302.302 0 0 1 .108-.186.365.365 0 0 1 .222-.066h.768v1.938h1.62v1.056h-1.62v3.336c0 .192.048.342.144.45a.488.488 0 0 0 .384.162c.092 0 .168-.01.228-.03.064-.024.118-.048.162-.072.048-.024.09-.046.126-.066a.194.194 0 0 1 .108-.036.16.16 0 0 1 .108.036c.028.02.058.052.09.096l.444.72c-.216.18-.464.316-.744.408a2.77 2.77 0 0 1-.87.138ZM50.423 26.913h-.666c-.14 0-.25-.02-.33-.06-.08-.044-.14-.13-.18-.258l-.132-.438c-.156.14-.31.264-.462.372a2.804 2.804 0 0 1-.462.264c-.16.072-.33.126-.51.162-.18.036-.38.054-.6.054-.26 0-.5-.034-.72-.102a1.618 1.618 0 0 1-.57-.318 1.448 1.448 0 0 1-.366-.522 1.852 1.852 0 0 1-.132-.726c0-.232.06-.46.18-.684.124-.228.328-.432.612-.612.284-.184.662-.336 1.134-.456.472-.12 1.058-.188 1.758-.204v-.36c0-.412-.088-.716-.264-.912-.172-.2-.424-.3-.756-.3a1.837 1.837 0 0 0-1.02.276c-.116.068-.224.13-.324.186a.664.664 0 0 1-.33.084.429.429 0 0 1-.258-.078.614.614 0 0 1-.174-.192l-.27-.474c.708-.648 1.562-.972 2.562-.972.36 0 .68.06.96.18.284.116.524.28.72.492.196.208.344.458.444.75.104.292.156.612.156.96v3.888Zm-2.88-.924c.152 0 .292-.014.42-.042.128-.028.248-.07.36-.126.116-.056.226-.124.33-.204.108-.084.216-.182.324-.294v-1.038c-.432.02-.794.058-1.086.114-.288.052-.52.12-.696.204a.923.923 0 0 0-.378.294.664.664 0 0 0-.108.366c0 .26.076.446.228.558.156.112.358.168.606.168Z"
                />
            </svg>
        </g>
        <a
            id="title"
            href="https://ourworldindata.org/explorers/population-and-demography?indicator=Annual+population+change&amp;Sex=Male&amp;Age=15%E2%80%9364+years&amp;Projection+scenario=High&amp;country=CHN~IND~USA~IDN~PAK~NGA~BRA~JPN"
            style="font-family:&#x27;Playfair Display&#x27;, Georgia, &#x27;Times New Roman&#x27;, &#x27;Liberation Serif&#x27;, serif"
        >
            <text
                font-size="25.00"
                font-weight="600"
                x="16.0"
                y="40.3"
                fill="#2d2e2d"
            >
                <tspan x="16" y="40.25">
                    Annual change in the number of men aged 15 to 64
                </tspan>
            </text>
        </a>
        <g id="subtitle" class="markdown-text-wrap">
            <text
                x="16.0"
                y="66.5"
                style="font-size: 15px; line-height: 1.2"
                fill="#5b5b5b"
            >
                <tspan x="16" y="66.5">
                    Future projections are based on the
                    <tspan class="dod-span" data-id="un-projection-scenarios">
                        UN&#x27;s high scenario
                    </tspan>
                    .
                </tspan>
            </text>
        </g>
    </g>
    <g id="chart-area" style="pointer-events: none">
        <g id="horizontal-axis" class="HorizontalAxis">
            <g id="tick-marks">
                <line
                    id="1951"
                    x1="77.3"
                    y1="531.9"
                    x2="77.3"
                    y2="537.4"
                    stroke="#999"
                    stroke-width="1"
                ></line>
                <line
                    id="2100"
                    x1="727.4"
                    y1="531.9"
                    x2="727.4"
                    y2="537.4"
                    stroke="#999"
                    stroke-width="1"
                ></line>
                <line
                    id="1980"
                    x1="203.8"
                    y1="531.9"
                    x2="203.8"
                    y2="537.4"
                    stroke="#999"
                    stroke-width="1"
                ></line>
                <line
                    id="2000"
                    x1="291.1"
                    y1="531.9"
                    x2="291.1"
                    y2="537.4"
                    stroke="#999"
                    stroke-width="1"
                ></line>
                <line
                    id="2020"
                    x1="378.3"
                    y1="531.9"
                    x2="378.3"
                    y2="537.4"
                    stroke="#999"
                    stroke-width="1"
                ></line>
                <line
                    id="2040"
                    x1="465.6"
                    y1="531.9"
                    x2="465.6"
                    y2="537.4"
                    stroke="#999"
                    stroke-width="1"
                ></line>
                <line
                    id="2060"
                    x1="552.9"
                    y1="531.9"
                    x2="552.9"
                    y2="537.4"
                    stroke="#999"
                    stroke-width="1"
                ></line>
                <line
                    id="2080"
                    x1="640.1"
                    y1="531.9"
                    x2="640.1"
                    y2="537.4"
                    stroke="#999"
                    stroke-width="1"
                ></line>
            </g>
            <g id="tick-labels">
                <text
                    x="77.28999999999999"
                    y="550.4"
                    fill="#5b5b5b"
                    text-anchor="start"
                    font-size="13"
                >
                    1951
                </text>
                <text
                    x="727.39"
                    y="550.4"
                    fill="#5b5b5b"
                    text-anchor="end"
                    font-size="13"
                >
                    2100
                </text>
                <text
                    x="203.8"
                    y="550.4"
                    fill="#5b5b5b"
                    text-anchor="middle"
                    font-size="13"
                >
                    1980
                </text>
                <text
                    x="291.1"
                    y="550.4"
                    fill="#5b5b5b"
                    text-anchor="middle"
                    font-size="13"
                >
                    2000
                </text>
                <text
                    x="378.3"
                    y="550.4"
                    fill="#5b5b5b"
                    text-anchor="middle"
                    font-size="13"
                >
                    2020
                </text>
                <text
                    x="465.6"
                    y="550.4"
                    fill="#5b5b5b"
                    text-anchor="middle"
                    font-size="13"
                >
                    2040
                </text>
                <text
                    x="552.9"
                    y="550.4"
                    fill="#5b5b5b"
                    text-anchor="middle"
                    font-size="13"
                >
                    2060
                </text>
                <text
                    x="640.1"
                    y="550.4"
                    fill="#5b5b5b"
                    text-anchor="middle"
                    font-size="13"
                >
                    2080
                </text>
            </g>
        </g>
        <g id="vertical-axis" class="VerticalAxis">
            <g id="tick-labels">
                <text
                    x="72.29"
                    y="532.4"
                    dy=".32em"
                    text-anchor="end"
                    fill="#5b5b5b"
                    font-size="13"
                >
                    -8 million
                </text>
                <text
                    x="72.29"
                    y="483.5"
                    dy=".32em"
                    text-anchor="end"
                    fill="#5b5b5b"
                    font-size="13"
                >
                    -6 million
                </text>
                <text
                    x="72.29"
                    y="434.6"
                    dy=".32em"
                    text-anchor="end"
                    fill="#5b5b5b"
                    font-size="13"
                >
                    -4 million
                </text>
                <text
                    x="72.29"
                    y="385.7"
                    dy=".32em"
                    text-anchor="end"
                    fill="#5b5b5b"
                    font-size="13"
                >
                    -2 million
                </text>
                <text
                    x="72.29"
                    y="336.8"
                    dy=".32em"
                    text-anchor="end"
                    fill="#5b5b5b"
                    font-size="13"
                >
                    0
                </text>
                <text
                    x="72.29"
                    y="287.9"
                    dy=".32em"
                    text-anchor="end"
                    fill="#5b5b5b"
                    font-size="13"
                >
                    2 million
                </text>
                <text
                    x="72.29"
                    y="239"
                    dy=".32em"
                    text-anchor="end"
                    fill="#5b5b5b"
                    font-size="13"
                >
                    4 million
                </text>
                <text
                    x="72.29"
                    y="190.1"
                    dy=".32em"
                    text-anchor="end"
                    fill="#5b5b5b"
                    font-size="13"
                >
                    6 million
                </text>
                <text
                    x="72.29"
                    y="141.2"
                    dy=".32em"
                    text-anchor="end"
                    fill="#5b5b5b"
                    font-size="13"
                >
                    8 million
                </text>
                <text
                    x="72.29"
                    y="92.3"
                    dy=".32em"
                    text-anchor="end"
                    fill="#5b5b5b"
                    font-size="13"
                >
                    10 million
                </text>
            </g>
        </g>
        <g id="horizontal-grid-lines" class="AxisGridLines horizontalLines">
            <line
                id="-8-million"
                x1="77.29"
                y1="532.4"
                x2="727.39"
                y2="532.4"
                stroke="#ddd"
                stroke-dasharray="4,4"
            ></line>
            <line
                id="-6-million"
                x1="77.29"
                y1="483.5"
                x2="727.39"
                y2="483.5"
                stroke="#ddd"
                stroke-dasharray="4,4"
            ></line>
            <line
                id="-4-million"
                x1="77.29"
                y1="434.6"
                x2="727.39"
                y2="434.6"
                stroke="#ddd"
                stroke-dasharray="4,4"
            ></line>
            <line
                id="-2-million"
                x1="77.29"
                y1="385.7"
                x2="727.39"
                y2="385.7"
                stroke="#ddd"
                stroke-dasharray="4,4"
            ></line>
            <line
                id="0"
                class="zero-line"
                x1="77.29"
                y1="336.8"
                x2="727.39"
                y2="336.8"
                stroke="#999"
            ></line>
            <line
                id="2-million"
                x1="77.29"
                y1="287.9"
                x2="727.39"
                y2="287.9"
                stroke="#ddd"
                stroke-dasharray="4,4"
            ></line>
            <line
                id="4-million"
                x1="77.29"
                y1="239"
                x2="727.39"
                y2="239"
                stroke="#ddd"
                stroke-dasharray="4,4"
            ></line>
            <line
                id="6-million"
                x1="77.29"
                y1="190.1"
                x2="727.39"
                y2="190.1"
                stroke="#ddd"
                stroke-dasharray="4,4"
            ></line>
            <line
                id="8-million"
                x1="77.29"
                y1="141.2"
                x2="727.39"
                y2="141.2"
                stroke="#ddd"
                stroke-dasharray="4,4"
            ></line>
            <line
                id="10-million"
                x1="77.29"
                y1="92.3"
                x2="727.39"
                y2="92.3"
                stroke="#ddd"
                stroke-dasharray="4,4"
            ></line>
        </g>
        <g id="vertical-labels" transform="translate(727.39, 0)">
            <g id="connectors" style="pointer-events: none">
                <path
                    id="Pakistan"
                    d="M4,295.5 H7.4 V264.425 H21"
                    stroke="#999"
                    stroke-width="0.5"
                    fill="none"
                ></path>
                <path
                    id="Nigeria"
                    d="M4,306.5 H10.8 V282.725 H21"
                    stroke="#999"
                    stroke-width="0.5"
                    fill="none"
                ></path>
                <path
                    id="United-States"
                    d="M4,316.1 H14.2 V301.02500000000003 H21"
                    stroke="#999"
                    stroke-width="0.5"
                    fill="none"
                ></path>
                <path
                    id="India"
                    d="M4,326.9 H17.6 V319.32500000000005 H21"
                    stroke="#999"
                    stroke-width="0.5"
                    fill="none"
                ></path>
                <path
                    id="Indonesia"
                    d="M4,331.6 H17.6 V337.62500000000006 H21"
                    stroke="#999"
                    stroke-width="0.5"
                    fill="none"
                ></path>
                <path
                    id="Japan"
                    d="M4,336.7 H14.2 V355.92500000000007 H21"
                    stroke="#999"
                    stroke-width="0.5"
                    fill="none"
                ></path>
                <path
                    id="Brazil"
                    d="M4,338.3 H10.8 V374.2250000000001 H21"
                    stroke="#999"
                    stroke-width="0.5"
                    fill="none"
                ></path>
                <path
                    id="China"
                    d="M4,376.2 H7.4 V392.5250000000001 H21"
                    stroke="#999"
                    stroke-width="0.5"
                    fill="none"
                ></path>
            </g>
            <g id="text-labels" style="pointer-events: none">
                <text
                    id="label__Pakistan"
                    x="25.0"
                    y="269.2"
                    text-anchor="start"
                    font-size="13.00"
                    opacity="1"
                >
                    <tspan x="25.0" font-weight="400" fill="#00295b">
                        Pakistan
                    </tspan>
                </text>
                <text
                    id="label__Nigeria"
                    x="25.0"
                    y="287.5"
                    text-anchor="start"
                    font-size="13.00"
                    opacity="1"
                >
                    <tspan x="25.0" font-weight="400" fill="#883039">
                        Nigeria
                    </tspan>
                </text>
                <text
                    id="label__United-States"
                    x="25.0"
                    y="305.8"
                    text-anchor="start"
                    font-size="13.00"
                    opacity="1"
                >
                    <tspan x="25.0" font-weight="400" fill="#a2559c">
                        United States
                    </tspan>
                </text>
                <text
                    id="label__India"
                    x="25.0"
                    y="324.1"
                    text-anchor="start"
                    font-size="13.00"
                    opacity="1"
                >
                    <tspan x="25.0" font-weight="400" fill="#996d39">
                        India
                    </tspan>
                </text>
                <text
                    id="label__Indonesia"
                    x="25.0"
                    y="342.4"
                    text-anchor="start"
                    font-size="13.00"
                    opacity="1"
                >
                    <tspan x="25.0" font-weight="400" fill="#2c8465">
                        Indonesia
                    </tspan>
                </text>
                <text
                    id="label__Japan"
                    x="25.0"
                    y="360.7"
                    text-anchor="start"
                    font-size="13.00"
                    opacity="1"
                >
                    <tspan x="25.0" font-weight="400" fill="#6d3e91">
                        Japan
                    </tspan>
                </text>
                <text
                    id="label__Brazil"
                    x="25.0"
                    y="379.0"
                    text-anchor="start"
                    font-size="13.00"
                    opacity="1"
                >
                    <tspan x="25.0" font-weight="400" fill="#4c6a9c">
                        Brazil
                    </tspan>
                </text>
                <text
                    id="label__China"
                    x="25.0"
                    y="397.3"
                    text-anchor="start"
                    font-size="13.00"
                    opacity="1"
                >
                    <tspan x="25.0" font-weight="400" fill="#b13507">
                        China
                    </tspan>
                </text>
            </g>
        </g>
        <g id="lines">
            <path
                fill="none"
                stroke-linecap="butt"
                stroke-linejoin="round"
                stroke="#fff"
                id="outline__Japan"
                stroke-width="2.5"
                d="M77.3 323.6L81.7 324.3L86 325.7L90.4 325.2L94.7 322.4L99.1 321.7L103.5 322.9L107.8 323.2L112.2 325.4L116.6 328.2L120.9 323.2L125.3 317.3L129.6 316.5L134 318.1L138.4 320.3L142.7 320.6L147.1 321.8L151.5 323.7L155.8 324.7L160.2 325.3L164.6 326.3L168.9 328L173.3 328.5L177.6 328.3L182 328.6L186.4 329.2L190.7 329.7L195.1 329.7L199.5 329.2L203.8 328.5L208.2 331.6L212.5 332.1L216.9 329.1L221.3 329.4L225.6 328.3L230 325.4L234.4 324.1L238.7 324.3L243.1 325.7L247.5 327.6L251.8 329.6L256.2 331.6L260.5 332.8L264.9 333.9L269.3 335.5L273.6 337.5L278 338.8L282.4 339.1L286.7 339.6L291.1 340.7L295.4 341.5L299.8 341.6L304.2 341.2L308.5 342.5L312.9 345.2L317.3 346L321.6 345.2L326 345.2L330.3 343.5L334.7 341.1L339.1 345L343.4 349.8L347.8 350.3L352.2 348.9L356.5 346.9L360.9 344.8L365.3 342.8L369.6 341.6L374 340.7L378.3 341.9L382.7 343.3L387.1 341.7L391.4 340.6"
            ></path>
            <path
                fill="none"
                stroke-linecap="butt"
                stroke-linejoin="round"
                stroke="#6d3e91"
                id="line__Japan"
                stroke-width="1.5"
                stroke-opacity="1"
                d="M77.3 323.6L81.7 324.3L86 325.7L90.4 325.2L94.7 322.4L99.1 321.7L103.5 322.9L107.8 323.2L112.2 325.4L116.6 328.2L120.9 323.2L125.3 317.3L129.6 316.5L134 318.1L138.4 320.3L142.7 320.6L147.1 321.8L151.5 323.7L155.8 324.7L160.2 325.3L164.6 326.3L168.9 328L173.3 328.5L177.6 328.3L182 328.6L186.4 329.2L190.7 329.7L195.1 329.7L199.5 329.2L203.8 328.5L208.2 331.6L212.5 332.1L216.9 329.1L221.3 329.4L225.6 328.3L230 325.4L234.4 324.1L238.7 324.3L243.1 325.7L247.5 327.6L251.8 329.6L256.2 331.6L260.5 332.8L264.9 333.9L269.3 335.5L273.6 337.5L278 338.8L282.4 339.1L286.7 339.6L291.1 340.7L295.4 341.5L299.8 341.6L304.2 341.2L308.5 342.5L312.9 345.2L317.3 346L321.6 345.2L326 345.2L330.3 343.5L334.7 341.1L339.1 345L343.4 349.8L347.8 350.3L352.2 348.9L356.5 346.9L360.9 344.8L365.3 342.8L369.6 341.6L374 340.7L378.3 341.9L382.7 343.3L387.1 341.7L391.4 340.6"
            ></path>
            <path
                fill="none"
                stroke-linecap="butt"
                stroke-linejoin="round"
                stroke="#fff"
                id="outline__Japan"
                stroke-width="2.5"
                d="M395.8 341.6L400.2 342.1L404.5 342.2L408.9 342.4L413.2 342.8L417.6 343.6L422 344.5L426.3 343.2L430.7 344.2L435.1 346.9L439.4 347.4L443.8 348.5L448.2 349.5L452.5 350.3L456.9 351.1L461.2 350.2L465.6 348.1L470 346.8L474.3 345.8L478.7 345L483.1 343.8L487.4 342.5L491.8 341.7L496.1 341.1L500.5 340.8L504.9 340.2L509.2 339.4L513.6 338.7L518 338.3L522.3 337.9L526.7 337.4L531.1 336.9L535.4 336.7L539.8 336.7L544.1 336.5L548.5 336.6L552.9 336.7L557.2 336.6L561.6 336.7L566 336.9L570.3 337.1L574.7 337.4L579 337.8L583.4 338L587.8 338.2L592.1 338.4L596.5 338.4L600.9 338.4L605.2 338.6L609.6 338.6L613.9 338.3L618.3 338L622.7 337.7L627 337.4L631.4 337.1L635.8 336.6L640.1 336.3L644.5 335.9L648.9 335.3L653.2 334.7L657.6 334.1L661.9 333.6L666.3 333.2L670.7 332.8L675 332.4L679.4 333.1L683.8 334L688.1 334L692.5 334L696.8 334.1L701.2 334.6L705.6 335.3L709.9 335.4L714.3 335.5L718.7 335.6L723 336.2L727.4 336.7"
            ></path>
            <path
                fill="none"
                stroke-linecap="butt"
                stroke-linejoin="round"
                stroke="#6d3e91"
                id="line__Japan"
                stroke-width="1.5"
                stroke-opacity="1"
                stroke-dasharray="2,3"
                d="M395.8 341.6L400.2 342.1L404.5 342.2L408.9 342.4L413.2 342.8L417.6 343.6L422 344.5L426.3 343.2L430.7 344.2L435.1 346.9L439.4 347.4L443.8 348.5L448.2 349.5L452.5 350.3L456.9 351.1L461.2 350.2L465.6 348.1L470 346.8L474.3 345.8L478.7 345L483.1 343.8L487.4 342.5L491.8 341.7L496.1 341.1L500.5 340.8L504.9 340.2L509.2 339.4L513.6 338.7L518 338.3L522.3 337.9L526.7 337.4L531.1 336.9L535.4 336.7L539.8 336.7L544.1 336.5L548.5 336.6L552.9 336.7L557.2 336.6L561.6 336.7L566 336.9L570.3 337.1L574.7 337.4L579 337.8L583.4 338L587.8 338.2L592.1 338.4L596.5 338.4L600.9 338.4L605.2 338.6L609.6 338.6L613.9 338.3L618.3 338L622.7 337.7L627 337.4L631.4 337.1L635.8 336.6L640.1 336.3L644.5 335.9L648.9 335.3L653.2 334.7L657.6 334.1L661.9 333.6L666.3 333.2L670.7 332.8L675 332.4L679.4 333.1L683.8 334L688.1 334L692.5 334L696.8 334.1L701.2 334.6L705.6 335.3L709.9 335.4L714.3 335.5L718.7 335.6L723 336.2L727.4 336.7"
            ></path>
            <path
                fill="none"
                stroke-linecap="butt"
                stroke-linejoin="round"
                stroke="#fff"
                id="outline__Brazil"
                stroke-width="2.5"
                d="M77.3 327.3L81.7 327L86 326.6L90.4 326.2L94.7 325.9L99.1 325.5L103.5 325.2L107.8 324.9L112.2 324.6L116.6 324.3L120.9 324.2L125.3 323.8L129.6 322.9L134 321.8L138.4 321L142.7 320.4L147.1 319.7L151.5 319.1L155.8 318.4L160.2 317.7L164.6 317.1L168.9 316.5L173.3 315.8L177.6 315.1L182 314.5L186.4 313.9L190.7 313.3L195.1 312.9L199.5 312.7L203.8 312.7L208.2 312.9L212.5 313.4L216.9 313.7L221.3 313.6L225.6 313.3L230 313.1L234.4 312.8L238.7 312.4L243.1 312L247.5 311.5L251.8 311L256.2 310.2L260.5 309.6L264.9 309.5L269.3 308.9L273.6 308.4L278 308.1L282.4 307.5L286.7 307.4L291.1 308.1L295.4 308.9L299.8 309.7L304.2 310.7L308.5 311.8L312.9 312.9L317.3 313.8L321.6 314.7L326 315.6L330.3 316.5L334.7 317.5L339.1 317.8L343.4 317.9L347.8 318.2L352.2 319.3L356.5 320.8L360.9 322L365.3 323.5L369.6 325.7L374 326.7L378.3 327.1L382.7 330L387.1 332.3L391.4 332.5"
            ></path>
            <path
                fill="none"
                stroke-linecap="butt"
                stroke-linejoin="round"
                stroke="#4c6a9c"
                id="line__Brazil"
                stroke-width="1.5"
                stroke-opacity="1"
                d="M77.3 327.3L81.7 327L86 326.6L90.4 326.2L94.7 325.9L99.1 325.5L103.5 325.2L107.8 324.9L112.2 324.6L116.6 324.3L120.9 324.2L125.3 323.8L129.6 322.9L134 321.8L138.4 321L142.7 320.4L147.1 319.7L151.5 319.1L155.8 318.4L160.2 317.7L164.6 317.1L168.9 316.5L173.3 315.8L177.6 315.1L182 314.5L186.4 313.9L190.7 313.3L195.1 312.9L199.5 312.7L203.8 312.7L208.2 312.9L212.5 313.4L216.9 313.7L221.3 313.6L225.6 313.3L230 313.1L234.4 312.8L238.7 312.4L243.1 312L247.5 311.5L251.8 311L256.2 310.2L260.5 309.6L264.9 309.5L269.3 308.9L273.6 308.4L278 308.1L282.4 307.5L286.7 307.4L291.1 308.1L295.4 308.9L299.8 309.7L304.2 310.7L308.5 311.8L312.9 312.9L317.3 313.8L321.6 314.7L326 315.6L330.3 316.5L334.7 317.5L339.1 317.8L343.4 317.9L347.8 318.2L352.2 319.3L356.5 320.8L360.9 322L365.3 323.5L369.6 325.7L374 326.7L378.3 327.1L382.7 330L387.1 332.3L391.4 332.5"
            ></path>
            <path
                fill="none"
                stroke-linecap="butt"
                stroke-linejoin="round"
                stroke="#fff"
                id="outline__Brazil"
                stroke-width="2.5"
                d="M395.8 333.1L400.2 333.7L404.5 334.3L408.9 334.9L413.2 335.3L417.6 335.4L422 335.3L426.3 335.8L430.7 336.1L435.1 335.9L439.4 336.5L443.8 337.8L448.2 339.1L452.5 339.9L456.9 340.8L461.2 339.1L465.6 337.5L470 338.6L474.3 339.7L478.7 340.8L483.1 340.3L487.4 339.8L491.8 340.7L496.1 341.4L500.5 341.9L504.9 341.3L509.2 340.5L513.6 340.6L518 340.5L522.3 340.3L526.7 340.2L531.1 340L535.4 339.9L539.8 339.8L544.1 339.9L548.5 340.2L552.9 340.6L557.2 340.8L561.6 341.1L566 341.3L570.3 341.2L574.7 340.8L579 340.2L583.4 339.5L587.8 338.7L592.1 338.3L596.5 338.1L600.9 337.7L605.2 337.1L609.6 336.6L613.9 336.2L618.3 336L622.7 335.7L627 335.6L631.4 335.4L635.8 335.4L640.1 335.5L644.5 335.1L648.9 334.7L653.2 334.9L657.6 334.5L661.9 333.6L666.3 332.9L670.7 332.6L675 332.4L679.4 334.3L683.8 336.3L688.1 336L692.5 335.7L696.8 335.5L701.2 336.6L705.6 337.8L709.9 337.6L714.3 337.4L718.7 337.1L723 337.7L727.4 338.3"
            ></path>
            <path
                fill="none"
                stroke-linecap="butt"
                stroke-linejoin="round"
                stroke="#4c6a9c"
                id="line__Brazil"
                stroke-width="1.5"
                stroke-opacity="1"
                stroke-dasharray="2,3"
                d="M395.8 333.1L400.2 333.7L404.5 334.3L408.9 334.9L413.2 335.3L417.6 335.4L422 335.3L426.3 335.8L430.7 336.1L435.1 335.9L439.4 336.5L443.8 337.8L448.2 339.1L452.5 339.9L456.9 340.8L461.2 339.1L465.6 337.5L470 338.6L474.3 339.7L478.7 340.8L483.1 340.3L487.4 339.8L491.8 340.7L496.1 341.4L500.5 341.9L504.9 341.3L509.2 340.5L513.6 340.6L518 340.5L522.3 340.3L526.7 340.2L531.1 340L535.4 339.9L539.8 339.8L544.1 339.9L548.5 340.2L552.9 340.6L557.2 340.8L561.6 341.1L566 341.3L570.3 341.2L574.7 340.8L579 340.2L583.4 339.5L587.8 338.7L592.1 338.3L596.5 338.1L600.9 337.7L605.2 337.1L609.6 336.6L613.9 336.2L618.3 336L622.7 335.7L627 335.6L631.4 335.4L635.8 335.4L640.1 335.5L644.5 335.1L648.9 334.7L653.2 334.9L657.6 334.5L661.9 333.6L666.3 332.9L670.7 332.6L675 332.4L679.4 334.3L683.8 336.3L688.1 336L692.5 335.7L696.8 335.5L701.2 336.6L705.6 337.8L709.9 337.6L714.3 337.4L718.7 337.1L723 337.7L727.4 338.3"
            ></path>
            <path
                fill="none"
                stroke-linecap="butt"
                stroke-linejoin="round"
                stroke="#fff"
                id="outline__Nigeria"
                stroke-width="2.5"
                d="M77.3 331.5L81.7 331.5L86 331.5L90.4 331.5L94.7 331.5L99.1 331.4L103.5 331.3L107.8 331.3L112.2 331L116.6 330.6L120.9 330.3L125.3 330.3L129.6 330.8L134 331.1L138.4 330.8L142.7 330.5L147.1 330.8L151.5 330.8L155.8 330.5L160.2 330L164.6 329.6L168.9 329.4L173.3 328.9L177.6 328.2L182 327.5L186.4 326.9L190.7 326.2L195.1 325.6L199.5 325.2L203.8 324.4L208.2 324.2L212.5 324.3L216.9 326L221.3 325.2L225.6 322.8L230 322.8L234.4 322.2L238.7 321L243.1 319.9L247.5 318.6L251.8 318.2L256.2 317.4L260.5 316.2L264.9 315.7L269.3 315.4L273.6 315.3L278 314.7L282.4 313.7L286.7 313.2L291.1 313.5L295.4 313.5L299.8 313.2L304.2 312.8L308.5 312.1L312.9 311.7L317.3 311.6L321.6 310.8L326 309.9L330.3 309L334.7 307.7L339.1 306.2L343.4 305.1L347.8 304.2L352.2 303.3L356.5 302.6L360.9 300.6L365.3 298.1L369.6 297.6L374 297.2L378.3 295.6L382.7 294.3L387.1 293.2L391.4 291.5"
            ></path>
            <path
                fill="none"
                stroke-linecap="butt"
                stroke-linejoin="round"
                stroke="#883039"
                id="line__Nigeria"
                stroke-width="1.5"
                stroke-opacity="1"
                d="M77.3 331.5L81.7 331.5L86 331.5L90.4 331.5L94.7 331.5L99.1 331.4L103.5 331.3L107.8 331.3L112.2 331L116.6 330.6L120.9 330.3L125.3 330.3L129.6 330.8L134 331.1L138.4 330.8L142.7 330.5L147.1 330.8L151.5 330.8L155.8 330.5L160.2 330L164.6 329.6L168.9 329.4L173.3 328.9L177.6 328.2L182 327.5L186.4 326.9L190.7 326.2L195.1 325.6L199.5 325.2L203.8 324.4L208.2 324.2L212.5 324.3L216.9 326L221.3 325.2L225.6 322.8L230 322.8L234.4 322.2L238.7 321L243.1 319.9L247.5 318.6L251.8 318.2L256.2 317.4L260.5 316.2L264.9 315.7L269.3 315.4L273.6 315.3L278 314.7L282.4 313.7L286.7 313.2L291.1 313.5L295.4 313.5L299.8 313.2L304.2 312.8L308.5 312.1L312.9 311.7L317.3 311.6L321.6 310.8L326 309.9L330.3 309L334.7 307.7L339.1 306.2L343.4 305.1L347.8 304.2L352.2 303.3L356.5 302.6L360.9 300.6L365.3 298.1L369.6 297.6L374 297.2L378.3 295.6L382.7 294.3L387.1 293.2L391.4 291.5"
            ></path>
            <path
                fill="none"
                stroke-linecap="butt"
                stroke-linejoin="round"
                stroke="#fff"
                id="outline__Nigeria"
                stroke-width="2.5"
                d="M395.8 289.8L400.2 288.2L404.5 287L408.9 286.2L413.2 285.7L417.6 285.2L422 285L426.3 285.6L430.7 286.3L435.1 287L439.4 287.9L443.8 288.8L448.2 289L452.5 288.5L456.9 288.2L461.2 285.8L465.6 283.5L470 283.4L474.3 283.3L478.7 283.3L483.1 281.5L487.4 279.6L491.8 279.4L496.1 279.1L500.5 278.9L504.9 277.6L509.2 276L513.6 275.8L518 275.8L522.3 276.1L526.7 276.5L531.1 276.9L535.4 277.4L539.8 278.1L544.1 278.7L548.5 279.3L552.9 279.9L557.2 280.4L561.6 280.8L566 281.3L570.3 281.9L574.7 282.9L579 284L583.4 285L587.8 286L592.1 287L596.5 288L600.9 288.9L605.2 289.5L609.6 290.2L613.9 290.8L618.3 291.3L622.7 291.8L627 292.4L631.4 292.7L635.8 293.1L640.1 293.4L644.5 293.4L648.9 293.2L653.2 293L657.6 292.8L661.9 292.8L666.3 293.2L670.7 294L675 294.8L679.4 296.9L683.8 298.9L688.1 299.5L692.5 300L696.8 300.6L701.2 302L705.6 303.4L709.9 303.7L714.3 304.1L718.7 304.3L723 305.4L727.4 306.5"
            ></path>
            <path
                fill="none"
                stroke-linecap="butt"
                stroke-linejoin="round"
                stroke="#883039"
                id="line__Nigeria"
                stroke-width="1.5"
                stroke-opacity="1"
                stroke-dasharray="2,3"
                d="M395.8 289.8L400.2 288.2L404.5 287L408.9 286.2L413.2 285.7L417.6 285.2L422 285L426.3 285.6L430.7 286.3L435.1 287L439.4 287.9L443.8 288.8L448.2 289L452.5 288.5L456.9 288.2L461.2 285.8L465.6 283.5L470 283.4L474.3 283.3L478.7 283.3L483.1 281.5L487.4 279.6L491.8 279.4L496.1 279.1L500.5 278.9L504.9 277.6L509.2 276L513.6 275.8L518 275.8L522.3 276.1L526.7 276.5L531.1 276.9L535.4 277.4L539.8 278.1L544.1 278.7L548.5 279.3L552.9 279.9L557.2 280.4L561.6 280.8L566 281.3L570.3 281.9L574.7 282.9L579 284L583.4 285L587.8 286L592.1 287L596.5 288L600.9 288.9L605.2 289.5L609.6 290.2L613.9 290.8L618.3 291.3L622.7 291.8L627 292.4L631.4 292.7L635.8 293.1L640.1 293.4L644.5 293.4L648.9 293.2L653.2 293L657.6 292.8L661.9 292.8L666.3 293.2L670.7 294L675 294.8L679.4 296.9L683.8 298.9L688.1 299.5L692.5 300L696.8 300.6L701.2 302L705.6 303.4L709.9 303.7L714.3 304.1L718.7 304.3L723 305.4L727.4 306.5"
            ></path>
            <path
                fill="none"
                stroke-linecap="butt"
                stroke-linejoin="round"
                stroke="#fff"
                id="outline__Pakistan"
                stroke-width="2.5"
                d="M77.3 330.1L81.7 329.9L86 329.8L90.4 329.6L94.7 329.3L99.1 329L103.5 328.7L107.8 328.4L112.2 328.2L116.6 328.2L120.9 328.7L125.3 329.1L129.6 329.5L134 330.2L138.4 330.2L142.7 329.6L147.1 329L151.5 328.4L155.8 327.8L160.2 327.1L164.6 327.4L168.9 326.8L173.3 325.3L177.6 324.6L182 323.7L186.4 322.7L190.7 321.7L195.1 320.8L199.5 318.4L203.8 312.7L208.2 311.5L212.5 315.1L216.9 317.6L221.3 321.1L225.6 320.2L230 316.5L234.4 315.5L238.7 315.4L243.1 315.6L247.5 313.1L251.8 312.4L256.2 318.7L260.5 318.4L264.9 314.2L269.3 312.3L273.6 309.1L278 307.9L282.4 306.8L286.7 306L291.1 302.2L295.4 300.5L299.8 305.8L304.2 305.3L308.5 299.8L312.9 298.8L317.3 298.7L321.6 293.7L326 292.9L330.3 295.6L334.7 296.5L339.1 300.7L343.4 306.6L347.8 311.3L352.2 312L356.5 312.5L360.9 313.7L365.3 310.8L369.6 305.9L374 304.2L378.3 300.9L382.7 298.3L387.1 303L391.4 308.5"
            ></path>
            <path
                fill="none"
                stroke-linecap="butt"
                stroke-linejoin="round"
                stroke="#00295b"
                id="line__Pakistan"
                stroke-width="1.5"
                stroke-opacity="1"
                d="M77.3 330.1L81.7 329.9L86 329.8L90.4 329.6L94.7 329.3L99.1 329L103.5 328.7L107.8 328.4L112.2 328.2L116.6 328.2L120.9 328.7L125.3 329.1L129.6 329.5L134 330.2L138.4 330.2L142.7 329.6L147.1 329L151.5 328.4L155.8 327.8L160.2 327.1L164.6 327.4L168.9 326.8L173.3 325.3L177.6 324.6L182 323.7L186.4 322.7L190.7 321.7L195.1 320.8L199.5 318.4L203.8 312.7L208.2 311.5L212.5 315.1L216.9 317.6L221.3 321.1L225.6 320.2L230 316.5L234.4 315.5L238.7 315.4L243.1 315.6L247.5 313.1L251.8 312.4L256.2 318.7L260.5 318.4L264.9 314.2L269.3 312.3L273.6 309.1L278 307.9L282.4 306.8L286.7 306L291.1 302.2L295.4 300.5L299.8 305.8L304.2 305.3L308.5 299.8L312.9 298.8L317.3 298.7L321.6 293.7L326 292.9L330.3 295.6L334.7 296.5L339.1 300.7L343.4 306.6L347.8 311.3L352.2 312L356.5 312.5L360.9 313.7L365.3 310.8L369.6 305.9L374 304.2L378.3 300.9L382.7 298.3L387.1 303L391.4 308.5"
            ></path>
            <path
                fill="none"
                stroke-linecap="butt"
                stroke-linejoin="round"
                stroke="#fff"
                id="outline__Pakistan"
                stroke-width="2.5"
                d="M395.8 304.5L400.2 297.9L404.5 296.1L408.9 295L413.2 294L417.6 293.9L422 293.9L426.3 294.1L430.7 294L435.1 293.5L439.4 293.3L443.8 293.3L448.2 293L452.5 292.9L456.9 292.9L461.2 290.4L465.6 288.1L470 288.2L474.3 288L478.7 287.9L483.1 285.7L487.4 283.5L491.8 283.5L496.1 283.8L500.5 284L504.9 282.3L509.2 280.5L513.6 280.5L518 280.8L522.3 281.2L526.7 281.7L531.1 282L535.4 282.3L539.8 282.8L544.1 283.3L548.5 283.8L552.9 284L557.2 284.1L561.6 284.4L566 284.8L570.3 285.7L574.7 286.1L579 285.9L583.4 285.3L587.8 284.7L592.1 283.8L596.5 283.4L600.9 283.9L605.2 284.7L609.6 285.6L613.9 286.3L618.3 286.5L622.7 286.5L627 286.2L631.4 285.9L635.8 285.4L640.1 284.5L644.5 283.6L648.9 283.4L653.2 283.5L657.6 284L661.9 284.2L666.3 284.3L670.7 284.7L675 284.7L679.4 286.9L683.8 289.1L688.1 288.8L692.5 288.7L696.8 288.8L701.2 290.4L705.6 292.1L709.9 292.6L714.3 293.1L718.7 293.5L723 294.6L727.4 295.5"
            ></path>
            <path
                fill="none"
                stroke-linecap="butt"
                stroke-linejoin="round"
                stroke="#00295b"
                id="line__Pakistan"
                stroke-width="1.5"
                stroke-opacity="1"
                stroke-dasharray="2,3"
                d="M395.8 304.5L400.2 297.9L404.5 296.1L408.9 295L413.2 294L417.6 293.9L422 293.9L426.3 294.1L430.7 294L435.1 293.5L439.4 293.3L443.8 293.3L448.2 293L452.5 292.9L456.9 292.9L461.2 290.4L465.6 288.1L470 288.2L474.3 288L478.7 287.9L483.1 285.7L487.4 283.5L491.8 283.5L496.1 283.8L500.5 284L504.9 282.3L509.2 280.5L513.6 280.5L518 280.8L522.3 281.2L526.7 281.7L531.1 282L535.4 282.3L539.8 282.8L544.1 283.3L548.5 283.8L552.9 284L557.2 284.1L561.6 284.4L566 284.8L570.3 285.7L574.7 286.1L579 285.9L583.4 285.3L587.8 284.7L592.1 283.8L596.5 283.4L600.9 283.9L605.2 284.7L609.6 285.6L613.9 286.3L618.3 286.5L622.7 286.5L627 286.2L631.4 285.9L635.8 285.4L640.1 284.5L644.5 283.6L648.9 283.4L653.2 283.5L657.6 284L661.9 284.2L666.3 284.3L670.7 284.7L675 284.7L679.4 286.9L683.8 289.1L688.1 288.8L692.5 288.7L696.8 288.8L701.2 290.4L705.6 292.1L709.9 292.6L714.3 293.1L718.7 293.5L723 294.6L727.4 295.5"
            ></path>
            <path
                fill="none"
                stroke-linecap="butt"
                stroke-linejoin="round"
                stroke="#fff"
                id="outline__Indonesia"
                stroke-width="2.5"
                d="M77.3 322.7L81.7 322.5L86 322.5L90.4 322.5L94.7 322.6L99.1 322.8L103.5 323L107.8 323.3L112.2 323.6L116.6 323.6L120.9 323.7L125.3 323.7L129.6 323.7L134 323.6L138.4 326.9L142.7 327.5L147.1 323.8L151.5 321.5L155.8 319.4L160.2 318L164.6 316.8L168.9 315.8L173.3 314.8L177.6 313.7L182 312.7L186.4 311.8L190.7 310.8L195.1 309.8L199.5 308.7L203.8 307.5L208.2 306.3L212.5 305.3L216.9 304.5L221.3 303.7L225.6 303.1L230 302.8L234.4 302.7L238.7 302.4L243.1 302.4L247.5 302.3L251.8 302L256.2 301.8L260.5 301.3L264.9 300.7L269.3 300.5L273.6 300.4L278 300.3L282.4 300.3L286.7 300.9L291.1 302.3L295.4 304L299.8 305L304.2 305L308.5 305.5L312.9 305.9L317.3 305.6L321.6 305.7L326 306L330.3 305.7L334.7 305.4L339.1 305L343.4 304.6L347.8 305L352.2 306L356.5 307.4L360.9 308.7L365.3 309.7L369.6 310.7L374 311.4L378.3 312.4L382.7 314.1L387.1 313.3L391.4 312.3"
            ></path>
            <path
                fill="none"
                stroke-linecap="butt"
                stroke-linejoin="round"
                stroke="#2c8465"
                id="line__Indonesia"
                stroke-width="1.5"
                stroke-opacity="1"
                d="M77.3 322.7L81.7 322.5L86 322.5L90.4 322.5L94.7 322.6L99.1 322.8L103.5 323L107.8 323.3L112.2 323.6L116.6 323.6L120.9 323.7L125.3 323.7L129.6 323.7L134 323.6L138.4 326.9L142.7 327.5L147.1 323.8L151.5 321.5L155.8 319.4L160.2 318L164.6 316.8L168.9 315.8L173.3 314.8L177.6 313.7L182 312.7L186.4 311.8L190.7 310.8L195.1 309.8L199.5 308.7L203.8 307.5L208.2 306.3L212.5 305.3L216.9 304.5L221.3 303.7L225.6 303.1L230 302.8L234.4 302.7L238.7 302.4L243.1 302.4L247.5 302.3L251.8 302L256.2 301.8L260.5 301.3L264.9 300.7L269.3 300.5L273.6 300.4L278 300.3L282.4 300.3L286.7 300.9L291.1 302.3L295.4 304L299.8 305L304.2 305L308.5 305.5L312.9 305.9L317.3 305.6L321.6 305.7L326 306L330.3 305.7L334.7 305.4L339.1 305L343.4 304.6L347.8 305L352.2 306L356.5 307.4L360.9 308.7L365.3 309.7L369.6 310.7L374 311.4L378.3 312.4L382.7 314.1L387.1 313.3L391.4 312.3"
            ></path>
            <path
                fill="none"
                stroke-linecap="butt"
                stroke-linejoin="round"
                stroke="#fff"
                id="outline__Indonesia"
                stroke-width="2.5"
                d="M395.8 313.4L400.2 313.8L404.5 313.7L408.9 313.8L413.2 315.4L417.6 317.6L422 319.5L426.3 321.4L430.7 323.3L435.1 325L439.4 326.2L443.8 327.2L448.2 328.2L452.5 329.1L456.9 330.1L461.2 327.7L465.6 325.1L470 326L474.3 326.8L478.7 327.7L483.1 326.7L487.4 325.4L491.8 325.9L496.1 326.4L500.5 326.8L504.9 325.6L509.2 323.8L513.6 323.1L518 322.9L522.3 323.4L526.7 323.9L531.1 324L535.4 324.4L539.8 324.8L544.1 325.3L548.5 326.1L552.9 326.9L557.2 327.8L561.6 328.5L566 328.6L570.3 328.1L574.7 327.6L579 327.4L583.4 327.3L587.8 327.1L592.1 327.1L596.5 327.6L600.9 328L605.2 328.1L609.6 327.8L613.9 327.3L618.3 327.4L622.7 327.9L627 328.2L631.4 327.3L635.8 325.9L640.1 324.8L644.5 324L648.9 323.1L653.2 322.3L657.6 321.9L661.9 321.8L666.3 321.7L670.7 321.6L675 321.6L679.4 324.3L683.8 327L688.1 327L692.5 327L696.8 326.9L701.2 328.5L705.6 330L709.9 329.9L714.3 329.8L718.7 329.7L723 330.7L727.4 331.6"
            ></path>
            <path
                fill="none"
                stroke-linecap="butt"
                stroke-linejoin="round"
                stroke="#2c8465"
                id="line__Indonesia"
                stroke-width="1.5"
                stroke-opacity="1"
                stroke-dasharray="2,3"
                d="M395.8 313.4L400.2 313.8L404.5 313.7L408.9 313.8L413.2 315.4L417.6 317.6L422 319.5L426.3 321.4L430.7 323.3L435.1 325L439.4 326.2L443.8 327.2L448.2 328.2L452.5 329.1L456.9 330.1L461.2 327.7L465.6 325.1L470 326L474.3 326.8L478.7 327.7L483.1 326.7L487.4 325.4L491.8 325.9L496.1 326.4L500.5 326.8L504.9 325.6L509.2 323.8L513.6 323.1L518 322.9L522.3 323.4L526.7 323.9L531.1 324L535.4 324.4L539.8 324.8L544.1 325.3L548.5 326.1L552.9 326.9L557.2 327.8L561.6 328.5L566 328.6L570.3 328.1L574.7 327.6L579 327.4L583.4 327.3L587.8 327.1L592.1 327.1L596.5 327.6L600.9 328L605.2 328.1L609.6 327.8L613.9 327.3L618.3 327.4L622.7 327.9L627 328.2L631.4 327.3L635.8 325.9L640.1 324.8L644.5 324L648.9 323.1L653.2 322.3L657.6 321.9L661.9 321.8L666.3 321.7L670.7 321.6L675 321.6L679.4 324.3L683.8 327L688.1 327L692.5 327L696.8 326.9L701.2 328.5L705.6 330L709.9 329.9L714.3 329.8L718.7 329.7L723 330.7L727.4 331.6"
            ></path>
            <path
                fill="none"
                stroke-linecap="butt"
                stroke-linejoin="round"
                stroke="#fff"
                id="outline__United-States"
                stroke-width="2.5"
                d="M77.3 330.2L81.7 330.1L86 330.1L90.4 330.4L94.7 330.5L99.1 329.5L103.5 327.3L107.8 325.7L112.2 324.4L116.6 324.1L120.9 320.1L125.3 313.8L129.6 312.9L134 313.9L138.4 314.8L142.7 314.2L147.1 312.5L151.5 311.6L155.8 310.9L160.2 310L164.6 306.3L168.9 302.9L173.3 302.5L177.6 302.9L182 303.6L186.4 304L190.7 305.3L195.1 307.2L199.5 309L203.8 310.8L208.2 312L212.5 313.1L216.9 313.6L221.3 313.5L225.6 312.8L230 314.3L234.4 318.2L238.7 320.9L243.1 322.2L247.5 317.4L251.8 313.7L256.2 313.8L260.5 312.3L264.9 311.6L269.3 310.4L273.6 309.1L278 307.9L282.4 306.6L286.7 306.4L291.1 306.1L295.4 306.4L299.8 307.5L304.2 307.3L308.5 306.3L312.9 305L317.3 306.2L321.6 310L326 313L330.3 314.5L334.7 314.2L339.1 314.7L343.4 317.4L347.8 318L352.2 317.2L356.5 316.5L360.9 316L365.3 317L369.6 318.8L374 320.2L378.3 329.5L382.7 336.8L387.1 333L391.4 330.6"
            ></path>
            <path
                fill="none"
                stroke-linecap="butt"
                stroke-linejoin="round"
                stroke="#a2559c"
                id="line__United-States"
                stroke-width="1.5"
                stroke-opacity="1"
                d="M77.3 330.2L81.7 330.1L86 330.1L90.4 330.4L94.7 330.5L99.1 329.5L103.5 327.3L107.8 325.7L112.2 324.4L116.6 324.1L120.9 320.1L125.3 313.8L129.6 312.9L134 313.9L138.4 314.8L142.7 314.2L147.1 312.5L151.5 311.6L155.8 310.9L160.2 310L164.6 306.3L168.9 302.9L173.3 302.5L177.6 302.9L182 303.6L186.4 304L190.7 305.3L195.1 307.2L199.5 309L203.8 310.8L208.2 312L212.5 313.1L216.9 313.6L221.3 313.5L225.6 312.8L230 314.3L234.4 318.2L238.7 320.9L243.1 322.2L247.5 317.4L251.8 313.7L256.2 313.8L260.5 312.3L264.9 311.6L269.3 310.4L273.6 309.1L278 307.9L282.4 306.6L286.7 306.4L291.1 306.1L295.4 306.4L299.8 307.5L304.2 307.3L308.5 306.3L312.9 305L317.3 306.2L321.6 310L326 313L330.3 314.5L334.7 314.2L339.1 314.7L343.4 317.4L347.8 318L352.2 317.2L356.5 316.5L360.9 316L365.3 317L369.6 318.8L374 320.2L378.3 329.5L382.7 336.8L387.1 333L391.4 330.6"
            ></path>
            <path
                fill="none"
                stroke-linecap="butt"
                stroke-linejoin="round"
                stroke="#fff"
                id="outline__United-States"
                stroke-width="2.5"
                d="M395.8 330.1L400.2 330.9L404.5 332.8L408.9 333.3L413.2 332.8L417.6 332.3L422 331.1L426.3 329.8L430.7 329.6L435.1 330.1L439.4 331.3L443.8 333.7L448.2 334.3L452.5 331.2L456.9 329.2L461.2 326L465.6 322.7L470 322.9L474.3 323.7L478.7 324.6L483.1 323.4L487.4 322.4L491.8 322.9L496.1 322.9L500.5 322.7L504.9 320.9L509.2 319.4L513.6 319.2L518 319L522.3 319.3L526.7 320L531.1 321L535.4 321L539.8 319.7L544.1 318.3L548.5 317.3L552.9 316.6L557.2 316L561.6 315.6L566 315.8L570.3 316.6L574.7 317.6L579 318L583.4 318L587.8 318.7L592.1 319.4L596.5 320L600.9 320.6L605.2 321.1L609.6 320.5L613.9 318.7L618.3 316.3L622.7 314.2L627 313L631.4 311.9L635.8 311.1L640.1 310.5L644.5 308.9L648.9 307.1L653.2 305.8L657.6 304.5L661.9 303.4L666.3 302.7L670.7 303L675 302.7L679.4 305.3L683.8 308.8L688.1 308.7L692.5 308.5L696.8 308.6L701.2 310.6L705.6 312.6L709.9 312.9L714.3 313.1L718.7 313.3L723 314.7L727.4 316.1"
            ></path>
            <path
                fill="none"
                stroke-linecap="butt"
                stroke-linejoin="round"
                stroke="#a2559c"
                id="line__United-States"
                stroke-width="1.5"
                stroke-opacity="1"
                stroke-dasharray="2,3"
                d="M395.8 330.1L400.2 330.9L404.5 332.8L408.9 333.3L413.2 332.8L417.6 332.3L422 331.1L426.3 329.8L430.7 329.6L435.1 330.1L439.4 331.3L443.8 333.7L448.2 334.3L452.5 331.2L456.9 329.2L461.2 326L465.6 322.7L470 322.9L474.3 323.7L478.7 324.6L483.1 323.4L487.4 322.4L491.8 322.9L496.1 322.9L500.5 322.7L504.9 320.9L509.2 319.4L513.6 319.2L518 319L522.3 319.3L526.7 320L531.1 321L535.4 321L539.8 319.7L544.1 318.3L548.5 317.3L552.9 316.6L557.2 316L561.6 315.6L566 315.8L570.3 316.6L574.7 317.6L579 318L583.4 318L587.8 318.7L592.1 319.4L596.5 320L600.9 320.6L605.2 321.1L609.6 320.5L613.9 318.7L618.3 316.3L622.7 314.2L627 313L631.4 311.9L635.8 311.1L640.1 310.5L644.5 308.9L648.9 307.1L653.2 305.8L657.6 304.5L661.9 303.4L666.3 302.7L670.7 303L675 302.7L679.4 305.3L683.8 308.8L688.1 308.7L692.5 308.5L696.8 308.6L701.2 310.6L705.6 312.6L709.9 312.9L714.3 313.1L718.7 313.3L723 314.7L727.4 316.1"
            ></path>
            <path
                fill="none"
                stroke-linecap="butt"
                stroke-linejoin="round"
                stroke="#fff"
                id="outline__India"
                stroke-width="2.5"
                d="M77.3 288.2L81.7 286.7L86 288.3L90.4 288.3L94.7 286.5L99.1 285.6L103.5 288.4L107.8 286.6L112.2 282L116.6 282.3L120.9 280.2L125.3 281.2L129.6 281.5L134 272.7L138.4 265.5L142.7 265.1L147.1 259.4L151.5 257.4L155.8 258.5L160.2 246.4L164.6 244.7L168.9 244.6L173.3 238.2L177.6 232.5L182 223.1L186.4 220.2L190.7 215.9L195.1 216.5L199.5 212.7L203.8 207.7L208.2 211.3L212.5 210.2L216.9 206.3L221.3 203.6L225.6 202.4L230 200.1L234.4 196.9L238.7 192.1L243.1 186.3L247.5 181.5L251.8 178.8L256.2 175.9L260.5 172.6L264.9 170.6L269.3 164.7L273.6 157.2L278 152.9L282.4 148.8L286.7 144.8L291.1 142L295.4 138.4L299.8 139.5L304.2 141.7L308.5 137.5L312.9 138.5L317.3 138.2L321.6 137.7L326 141.4L330.3 137.2L334.7 131.3L339.1 131.1L343.4 132.6L347.8 133.1L352.2 138.6L356.5 145.5L360.9 143.5L365.3 144.2L369.6 153.5L374 163.2L378.3 168.8L382.7 183L387.1 193.1L391.4 189.3"
            ></path>
            <path
                fill="none"
                stroke-linecap="butt"
                stroke-linejoin="round"
                stroke="#996d39"
                id="line__India"
                stroke-width="1.5"
                stroke-opacity="1"
                d="M77.3 288.2L81.7 286.7L86 288.3L90.4 288.3L94.7 286.5L99.1 285.6L103.5 288.4L107.8 286.6L112.2 282L116.6 282.3L120.9 280.2L125.3 281.2L129.6 281.5L134 272.7L138.4 265.5L142.7 265.1L147.1 259.4L151.5 257.4L155.8 258.5L160.2 246.4L164.6 244.7L168.9 244.6L173.3 238.2L177.6 232.5L182 223.1L186.4 220.2L190.7 215.9L195.1 216.5L199.5 212.7L203.8 207.7L208.2 211.3L212.5 210.2L216.9 206.3L221.3 203.6L225.6 202.4L230 200.1L234.4 196.9L238.7 192.1L243.1 186.3L247.5 181.5L251.8 178.8L256.2 175.9L260.5 172.6L264.9 170.6L269.3 164.7L273.6 157.2L278 152.9L282.4 148.8L286.7 144.8L291.1 142L295.4 138.4L299.8 139.5L304.2 141.7L308.5 137.5L312.9 138.5L317.3 138.2L321.6 137.7L326 141.4L330.3 137.2L334.7 131.3L339.1 131.1L343.4 132.6L347.8 133.1L352.2 138.6L356.5 145.5L360.9 143.5L365.3 144.2L369.6 153.5L374 163.2L378.3 168.8L382.7 183L387.1 193.1L391.4 189.3"
            ></path>
            <path
                fill="none"
                stroke-linecap="butt"
                stroke-linejoin="round"
                stroke="#fff"
                id="outline__India"
                stroke-width="2.5"
                d="M395.8 186.6L400.2 187.1L404.5 191.9L408.9 196.9L413.2 203.6L417.6 214.3L422 221.6L426.3 223.2L430.7 230.6L435.1 238L439.4 243.7L443.8 253.9L448.2 263.1L452.5 269L456.9 274.4L461.2 261.7L465.6 248.4L470 253.8L474.3 259.1L478.7 264.3L483.1 259.7L487.4 256.4L491.8 264L496.1 270.9L500.5 278L504.9 278.2L509.2 277.7L513.6 284.9L518 291.4L522.3 296.8L526.7 302.6L531.1 307.5L535.4 312.9L539.8 318.7L544.1 323.6L548.5 328.6L552.9 333.6L557.2 337.6L561.6 340.5L566 342.6L570.3 344.1L574.7 346.1L579 347.8L583.4 346.2L587.8 342.1L592.1 337.5L596.5 331.8L600.9 324.7L605.2 318.4L609.6 314.2L613.9 312.3L618.3 309.8L622.7 306.3L627 303L631.4 298.9L635.8 291.8L640.1 288L644.5 289.8L648.9 287.3L653.2 285.8L657.6 285.9L661.9 281.9L666.3 279.6L670.7 280.2L675 281.6L679.4 298.8L683.8 315.5L688.1 315.5L692.5 314.7L696.8 313.7L701.2 322.3L705.6 330.3L709.9 327.9L714.3 324.7L718.7 321.3L723 324.2L727.4 326.9"
            ></path>
            <path
                fill="none"
                stroke-linecap="butt"
                stroke-linejoin="round"
                stroke="#996d39"
                id="line__India"
                stroke-width="1.5"
                stroke-opacity="1"
                stroke-dasharray="2,3"
                d="M395.8 186.6L400.2 187.1L404.5 191.9L408.9 196.9L413.2 203.6L417.6 214.3L422 221.6L426.3 223.2L430.7 230.6L435.1 238L439.4 243.7L443.8 253.9L448.2 263.1L452.5 269L456.9 274.4L461.2 261.7L465.6 248.4L470 253.8L474.3 259.1L478.7 264.3L483.1 259.7L487.4 256.4L491.8 264L496.1 270.9L500.5 278L504.9 278.2L509.2 277.7L513.6 284.9L518 291.4L522.3 296.8L526.7 302.6L531.1 307.5L535.4 312.9L539.8 318.7L544.1 323.6L548.5 328.6L552.9 333.6L557.2 337.6L561.6 340.5L566 342.6L570.3 344.1L574.7 346.1L579 347.8L583.4 346.2L587.8 342.1L592.1 337.5L596.5 331.8L600.9 324.7L605.2 318.4L609.6 314.2L613.9 312.3L618.3 309.8L622.7 306.3L627 303L631.4 298.9L635.8 291.8L640.1 288L644.5 289.8L648.9 287.3L653.2 285.8L657.6 285.9L661.9 281.9L666.3 279.6L670.7 280.2L675 281.6L679.4 298.8L683.8 315.5L688.1 315.5L692.5 314.7L696.8 313.7L701.2 322.3L705.6 330.3L709.9 327.9L714.3 324.7L718.7 321.3L723 324.2L727.4 326.9"
            ></path>
            <path
                fill="none"
                stroke-linecap="butt"
                stroke-linejoin="round"
                stroke="#fff"
                id="outline__China"
                stroke-width="2.5"
                d="M77.3 289.4L81.7 288.2L86 287.4L90.4 289.2L94.7 287.7L99.1 283L103.5 284.4L107.8 287.5L112.2 293.6L116.6 303.8L120.9 295L125.3 267.7L129.6 248L134 244.1L138.4 229.7L142.7 212.9L147.1 189.7L151.5 179.6L155.8 185.3L160.2 176.5L164.6 181.2L168.9 176.2L173.3 182L177.6 221L182 244.3L186.4 250.9L190.7 200L195.1 110.4L199.5 94.5L203.8 110.9L208.2 113.4L212.5 126L216.9 111.3L221.3 92L225.6 93.9L230 100.8L234.4 115.9L238.7 128L243.1 147.4L247.5 172.6L251.8 191.9L256.2 208L260.5 219.9L264.9 219.2L269.3 212.3L273.6 202.5L278 187L282.4 195.2L286.7 205.1L291.1 190.6L295.4 172.9L299.8 156.5L304.2 156.3L308.5 155.9L312.9 143.3L317.3 173.9L321.6 220.7L326 234.7L330.3 241.7L334.7 249.4L339.1 264.5L343.4 280.3L347.8 293.4L352.2 307.1L356.5 319.5L360.9 329.3L365.3 346.8L369.6 356.8L374 358.7L378.3 362.8L382.7 355.5L387.1 356.1L391.4 347.6"
            ></path>
            <path
                fill="none"
                stroke-linecap="butt"
                stroke-linejoin="round"
                stroke="#b13507"
                id="line__China"
                stroke-width="1.5"
                stroke-opacity="1"
                d="M77.3 289.4L81.7 288.2L86 287.4L90.4 289.2L94.7 287.7L99.1 283L103.5 284.4L107.8 287.5L112.2 293.6L116.6 303.8L120.9 295L125.3 267.7L129.6 248L134 244.1L138.4 229.7L142.7 212.9L147.1 189.7L151.5 179.6L155.8 185.3L160.2 176.5L164.6 181.2L168.9 176.2L173.3 182L177.6 221L182 244.3L186.4 250.9L190.7 200L195.1 110.4L199.5 94.5L203.8 110.9L208.2 113.4L212.5 126L216.9 111.3L221.3 92L225.6 93.9L230 100.8L234.4 115.9L238.7 128L243.1 147.4L247.5 172.6L251.8 191.9L256.2 208L260.5 219.9L264.9 219.2L269.3 212.3L273.6 202.5L278 187L282.4 195.2L286.7 205.1L291.1 190.6L295.4 172.9L299.8 156.5L304.2 156.3L308.5 155.9L312.9 143.3L317.3 173.9L321.6 220.7L326 234.7L330.3 241.7L334.7 249.4L339.1 264.5L343.4 280.3L347.8 293.4L352.2 307.1L356.5 319.5L360.9 329.3L365.3 346.8L369.6 356.8L374 358.7L378.3 362.8L382.7 355.5L387.1 356.1L391.4 347.6"
            ></path>
            <path
                fill="none"
                stroke-linecap="butt"
                stroke-linejoin="round"
                stroke="#fff"
                id="outline__China"
                stroke-width="2.5"
                d="M395.8 313.5L400.2 293L404.5 287.9L408.9 319.4L413.2 389.7L417.6 407.8L422 400.2L426.3 401.3L430.7 387.7L435.1 419.7L439.4 459.7L443.8 484.1L448.2 508.2L452.5 512.3L456.9 514.2L461.2 492.1L465.6 460.3L470 446.7L474.3 436.6L478.7 431L483.1 430.2L487.4 432.2L491.8 441.1L496.1 456.2L500.5 452.8L504.9 441.5L509.2 449.7L513.6 466.2L518 484.5L522.3 486.7L526.7 485.3L531.1 494.9L535.4 471.6L539.8 435.3L544.1 424L548.5 418L552.9 414.3L557.2 410.7L561.6 407L566 404.8L570.3 404.4L574.7 410.7L579 413.2L583.4 410.6L587.8 412.2L592.1 416.1L596.5 421.5L600.9 426.5L605.2 432.5L609.6 439.4L613.9 445.5L618.3 447L622.7 445.5L627 452.6L631.4 454L635.8 449.5L640.1 443.2L644.5 439L648.9 441.4L653.2 421.8L657.6 399.2L661.9 376.5L666.3 349.7L670.7 334.8L675 325.5L679.4 334.8L683.8 346.6L688.1 345.4L692.5 344.6L696.8 344.2L701.2 351.4L705.6 359L709.9 359.9L714.3 361.2L718.7 362.8L723 369.3L727.4 376.2"
            ></path>
            <path
                fill="none"
                stroke-linecap="butt"
                stroke-linejoin="round"
                stroke="#b13507"
                id="line__China"
                stroke-width="1.5"
                stroke-opacity="1"
                stroke-dasharray="2,3"
                d="M395.8 313.5L400.2 293L404.5 287.9L408.9 319.4L413.2 389.7L417.6 407.8L422 400.2L426.3 401.3L430.7 387.7L435.1 419.7L439.4 459.7L443.8 484.1L448.2 508.2L452.5 512.3L456.9 514.2L461.2 492.1L465.6 460.3L470 446.7L474.3 436.6L478.7 431L483.1 430.2L487.4 432.2L491.8 441.1L496.1 456.2L500.5 452.8L504.9 441.5L509.2 449.7L513.6 466.2L518 484.5L522.3 486.7L526.7 485.3L531.1 494.9L535.4 471.6L539.8 435.3L544.1 424L548.5 418L552.9 414.3L557.2 410.7L561.6 407L566 404.8L570.3 404.4L574.7 410.7L579 413.2L583.4 410.6L587.8 412.2L592.1 416.1L596.5 421.5L600.9 426.5L605.2 432.5L609.6 439.4L613.9 445.5L618.3 447L622.7 445.5L627 452.6L631.4 454L635.8 449.5L640.1 443.2L644.5 439L648.9 441.4L653.2 421.8L657.6 399.2L661.9 376.5L666.3 349.7L670.7 334.8L675 325.5L679.4 334.8L683.8 346.6L688.1 345.4L692.5 344.6L696.8 344.2L701.2 351.4L705.6 359L709.9 359.9L714.3 361.2L718.7 362.8L723 369.3L727.4 376.2"
            ></path>
        </g>
    </g>
    <g id="footer" class="SourcesFooter" style="fill: #767676">
        <g id="sources" class="markdown-text-wrap">
            <text x="16.0" y="581.0" style="font-size: 13px; line-height: 1.2">
                <tspan x="16" y="581.0">
                    <tspan style="font-weight: 700">Data source:</tspan>
                    UN, World Population Prospects (2024)
                </tspan>
            </text>
        </g>
        <text id="origin-url" font-size="13.00" x="555.3" y="581.0">
            <tspan x="555.28" y="581.01">
                <a
                    style="fill: #767676"
                    href="https://ourworldindata.org/population-growth"
                >
                    OurWorldinData.org/population-growth
                </a>
                |
                <a
                    style="fill: #767676"
                    href="https://creativecommons.org/licenses/by/4.0/"
                >
                    CC BY
                </a>
            </tspan>
        </text>
    </g>
</svg>
