<svg
    xmlns="http://www.w3.org/2000/svg"
    version="1.1"
    style='font-family:Lato, &#x27;Helvetica Neue&#x27;, Helvetica, Arial, &#x27;Liberation Sans&#x27;, sans-serif;font-feature-settings:"liga", "kern", "calt", "lnum";text-rendering:geometricPrecision;-webkit-font-smoothing:antialiased;font-size:18px;background-color:#ffffff'
    width="850"
    height="600"
    viewBox="0 0 850 600"
>
    <defs>
        <style>
            @import url(https://ourworldindata.org/fonts.css);
        </style>
    </defs>
    <defs>
        <pattern
            id="noDataPattern"
            patternUnits="userSpaceOnUse"
            width="4"
            height="4"
            patternTransform="rotate(-45 2 2)"
        >
            <path d="M -1,2 l 6,0" stroke="#ccc" stroke-width="0.7"></path>
        </pattern>
    </defs>
    <g id="header" class="HeaderView">
        <g id="logo" transform="translate(769, 16) scale(1)">
            <svg
                className="owidLogo"
                xmlns="http://www.w3.org/2000/svg"
                width="65"
                height="36"
                viewBox="0 0 65 36"
                fill="none"
            >
                <path fill="#002147" d="M0 0h64.8v36H0z" />
                <path fill="#CE261E" d="M0 33.3h64.8V36H0z" />
                <path
                    fill="#fff"
                    d="M13.796 10.575c0 .636-.106 1.226-.318 1.77a4.193 4.193 0 0 1-.894 1.404 4.084 4.084 0 0 1-1.386.93c-.54.22-1.138.33-1.794.33-.656 0-1.256-.11-1.8-.33a4.149 4.149 0 0 1-1.392-.93 4.193 4.193 0 0 1-.894-1.404A4.833 4.833 0 0 1 5 10.575c0-.636.106-1.224.318-1.764a4.18 4.18 0 0 1 .894-1.41 4.076 4.076 0 0 1 1.392-.924 4.684 4.684 0 0 1 1.8-.336c.656 0 1.254.112 1.794.336.54.224 1.002.534 1.386.93.384.392.682.86.894 1.404.212.54.318 1.128.318 1.764Zm-1.656 0c0-.476-.064-.902-.192-1.278a2.671 2.671 0 0 0-.54-.966 2.332 2.332 0 0 0-.864-.606 2.94 2.94 0 0 0-1.14-.21c-.424 0-.806.07-1.146.21-.34.14-.63.342-.87.606a2.742 2.742 0 0 0-.546.966 3.955 3.955 0 0 0-.192 1.278c0 .476.064.904.192 1.284.128.376.31.696.546.96.24.26.53.46.87.6.34.14.722.21 1.146.21.424 0 .804-.07 1.14-.21.34-.14.628-.34.864-.6.236-.264.416-.584.54-.96a4.01 4.01 0 0 0 .192-1.284ZM16.104 8.757v3.912c0 .376.086.668.258.876.176.204.438.306.786.306.256 0 .496-.056.72-.168a2.58 2.58 0 0 0 .636-.474V8.757h1.482v6.156h-.906c-.192 0-.318-.09-.378-.27l-.102-.492a4.65 4.65 0 0 1-.396.354 2.577 2.577 0 0 1-.438.27 2.35 2.35 0 0 1-.498.168 2.345 2.345 0 0 1-.57.066c-.336 0-.634-.056-.894-.168a1.821 1.821 0 0 1-.648-.486 2.157 2.157 0 0 1-.402-.738 3.233 3.233 0 0 1-.132-.948V8.757h1.482ZM21.328 14.913V8.757h.87c.152 0 .258.028.318.084.06.056.1.152.12.288l.09.744c.22-.38.478-.68.774-.9.296-.22.628-.33.996-.33.304 0 .556.07.756.21l-.192 1.11c-.012.072-.038.124-.078.156a.278.278 0 0 1-.162.042 1.01 1.01 0 0 1-.246-.042 1.646 1.646 0 0 0-.414-.042c-.308 0-.572.086-.792.258-.22.168-.406.416-.558.744v3.834h-1.482ZM27.347 6.237h1.356a.57.57 0 0 1 .348.102c.096.064.16.152.192.264l1.476 5.19c.036.128.068.268.096.42.032.148.062.306.09.474a5.968 5.968 0 0 1 .228-.894l1.704-5.19a.575.575 0 0 1 .186-.252.543.543 0 0 1 .348-.114h.474a.57.57 0 0 1 .348.102.497.497 0 0 1 .192.264l1.692 5.19c.088.256.164.54.228.852.028-.156.056-.306.084-.45.032-.144.064-.278.096-.402l1.476-5.19c.028-.1.09-.186.186-.258a.563.563 0 0 1 .348-.108h1.266l-2.694 8.676h-1.458l-1.896-5.928-.078-.246a9.504 9.504 0 0 1-.072-.282c-.024.1-.05.194-.078.282-.024.088-.048.17-.072.246l-1.914 5.928H30.04l-2.694-8.676ZM42.771 8.661c.46 0 .876.074 1.248.222.376.148.696.358.96.63s.468.604.612.996c.144.392.216.83.216 1.314 0 .488-.072.928-.216 1.32a2.85 2.85 0 0 1-.612 1.002 2.653 2.653 0 0 1-.96.636 3.35 3.35 0 0 1-1.248.222c-.46 0-.878-.074-1.254-.222a2.712 2.712 0 0 1-.966-.636 2.922 2.922 0 0 1-.618-1.002 3.807 3.807 0 0 1-.216-1.32c0-.484.072-.922.216-1.314.148-.392.354-.724.618-.996.268-.272.59-.482.966-.63a3.397 3.397 0 0 1 1.254-.222Zm0 5.202c.512 0 .89-.172 1.134-.516.248-.344.372-.848.372-1.512s-.124-1.17-.372-1.518c-.244-.348-.622-.522-1.134-.522-.52 0-.904.176-1.152.528-.248.348-.372.852-.372 1.512s.124 1.164.372 1.512c.248.344.632.516 1.152.516ZM46.723 14.913V8.757h.87c.152 0 .258.028.318.084.06.056.1.152.12.288l.09.744c.22-.38.478-.68.774-.9.296-.22.628-.33.996-.33.304 0 .556.07.756.21l-.192 1.11c-.012.072-.038.124-.078.156a.278.278 0 0 1-.162.042 1.01 1.01 0 0 1-.246-.042 1.646 1.646 0 0 0-.414-.042c-.308 0-.572.086-.792.258-.22.168-.406.416-.558.744v3.834h-1.482ZM52.96 5.997v8.916h-1.482V5.997h1.482ZM58.732 14.913c-.192 0-.318-.09-.378-.27l-.12-.594a3.68 3.68 0 0 1-.402.39c-.14.116-.292.216-.456.3-.16.084-.334.148-.522.192a2.372 2.372 0 0 1-.6.072c-.336 0-.644-.07-.924-.21a2.098 2.098 0 0 1-.726-.606 3.033 3.033 0 0 1-.468-.99 5.072 5.072 0 0 1-.162-1.344c0-.456.062-.88.186-1.272s.302-.732.534-1.02c.232-.288.51-.512.834-.672a2.384 2.384 0 0 1 1.092-.246 2.103 2.103 0 0 1 1.536.606V5.997h1.482v8.916h-.906Zm-1.974-1.086c.308 0 .57-.064.786-.192.216-.128.42-.31.612-.546v-2.76a1.452 1.452 0 0 0-.552-.432 1.597 1.597 0 0 0-.636-.126c-.224 0-.428.042-.612.126a1.21 1.21 0 0 0-.462.384c-.124.168-.22.384-.288.648-.068.26-.102.568-.102.924 0 .36.028.666.084.918.06.248.144.452.252.612.108.156.24.27.396.342.156.068.33.102.522.102ZM16.331 20.757v6.156H14.85v-6.156h1.481Zm.223-1.794a.844.844 0 0 1-.078.36.963.963 0 0 1-.21.294.995.995 0 0 1-.3.204.963.963 0 0 1-.372.072.948.948 0 0 1-.367-.072 1.018 1.018 0 0 1-.498-.498.963.963 0 0 1 0-.732.995.995 0 0 1 .205-.3.929.929 0 0 1 .293-.198.899.899 0 0 1 .738 0 .912.912 0 0 1 .3.198.943.943 0 0 1 .288.672ZM17.771 26.913v-6.156h.906c.192 0 .318.09.378.27l.102.486a2.934 2.934 0 0 1 .828-.618c.156-.076.322-.134.498-.174.176-.04.368-.06.576-.06.336 0 .634.058.894.174.26.112.476.272.648.48.176.204.308.45.396.738.092.284.138.598.138.942v3.918h-1.482v-3.918c0-.376-.088-.666-.264-.87-.172-.208-.432-.312-.78-.312-.256 0-.496.058-.72.174a2.58 2.58 0 0 0-.636.474v4.452h-1.482ZM34.22 22.575c0 .636-.106 1.22-.318 1.752-.212.532-.51.99-.894 1.374a4 4 0 0 1-1.386.894 4.87 4.87 0 0 1-1.794.318h-3.312v-8.676h3.312a4.79 4.79 0 0 1 1.794.324 4 4 0 0 1 1.386.894c.384.38.682.836.894 1.368.212.532.318 1.116.318 1.752Zm-1.65 0c0-.476-.064-.902-.192-1.278a2.68 2.68 0 0 0-.546-.96 2.332 2.332 0 0 0-.864-.606 2.94 2.94 0 0 0-1.14-.21h-1.686v6.108h1.686c.424 0 .804-.07 1.14-.21.34-.14.628-.34.864-.6a2.75 2.75 0 0 0 .546-.96 4.01 4.01 0 0 0 .192-1.284ZM39.98 26.913h-.665c-.14 0-.25-.02-.33-.06-.08-.044-.14-.13-.18-.258l-.132-.438c-.156.14-.31.264-.462.372a2.804 2.804 0 0 1-.462.264c-.16.072-.33.126-.51.162-.18.036-.38.054-.6.054-.26 0-.5-.034-.72-.102a1.618 1.618 0 0 1-.57-.318 1.448 1.448 0 0 1-.366-.522 1.852 1.852 0 0 1-.132-.726c0-.232.06-.46.18-.684.124-.228.328-.432.612-.612.284-.184.662-.336 1.134-.456.472-.12 1.058-.188 1.758-.204v-.36c0-.412-.088-.716-.264-.912-.172-.2-.424-.3-.756-.3a1.837 1.837 0 0 0-1.02.276c-.116.068-.224.13-.324.186a.664.664 0 0 1-.33.084.429.429 0 0 1-.258-.078.614.614 0 0 1-.174-.192l-.27-.474c.708-.648 1.562-.972 2.562-.972.36 0 .68.06.96.18.284.116.524.28.72.492.196.208.344.458.444.75.104.292.156.612.156.96v3.888Zm-2.88-.924c.153 0 .293-.014.42-.042.129-.028.249-.07.36-.126.117-.056.227-.124.33-.204.109-.084.217-.182.325-.294v-1.038c-.432.02-.794.058-1.086.114-.288.052-.52.12-.696.204a.923.923 0 0 0-.378.294.664.664 0 0 0-.108.366c0 .26.076.446.228.558.156.112.358.168.606.168ZM43.22 27.01c-.532 0-.942-.15-1.23-.45-.288-.305-.432-.723-.432-1.255v-3.438h-.624a.31.31 0 0 1-.21-.078c-.056-.052-.084-.13-.084-.234v-.588l.99-.162.312-1.68a.302.302 0 0 1 .108-.186.365.365 0 0 1 .222-.066h.768v1.938h1.62v1.056h-1.62v3.336c0 .192.048.342.144.45a.488.488 0 0 0 .384.162c.092 0 .168-.01.228-.03.064-.024.118-.048.162-.072.048-.024.09-.046.126-.066a.194.194 0 0 1 .108-.036.16.16 0 0 1 .108.036c.028.02.058.052.09.096l.444.72c-.216.18-.464.316-.744.408a2.77 2.77 0 0 1-.87.138ZM50.423 26.913h-.666c-.14 0-.25-.02-.33-.06-.08-.044-.14-.13-.18-.258l-.132-.438c-.156.14-.31.264-.462.372a2.804 2.804 0 0 1-.462.264c-.16.072-.33.126-.51.162-.18.036-.38.054-.6.054-.26 0-.5-.034-.72-.102a1.618 1.618 0 0 1-.57-.318 1.448 1.448 0 0 1-.366-.522 1.852 1.852 0 0 1-.132-.726c0-.232.06-.46.18-.684.124-.228.328-.432.612-.612.284-.184.662-.336 1.134-.456.472-.12 1.058-.188 1.758-.204v-.36c0-.412-.088-.716-.264-.912-.172-.2-.424-.3-.756-.3a1.837 1.837 0 0 0-1.02.276c-.116.068-.224.13-.324.186a.664.664 0 0 1-.33.084.429.429 0 0 1-.258-.078.614.614 0 0 1-.174-.192l-.27-.474c.708-.648 1.562-.972 2.562-.972.36 0 .68.06.96.18.284.116.524.28.72.492.196.208.344.458.444.75.104.292.156.612.156.96v3.888Zm-2.88-.924c.152 0 .292-.014.42-.042.128-.028.248-.07.36-.126.116-.056.226-.124.33-.204.108-.084.216-.182.324-.294v-1.038c-.432.02-.794.058-1.086.114-.288.052-.52.12-.696.204a.923.923 0 0 0-.378.294.664.664 0 0 0-.108.366c0 .26.076.446.228.558.156.112.358.168.606.168Z"
                />
            </svg>
        </g>
        <a
            id="title"
            href="https://ourworldindata.org/explorers/population-and-demography?indicator=Fertility+rate&amp;Sex=Both+sexes&amp;Age=Mothers+aged+50-54+years&amp;Projection+scenario=None&amp;country=CHN~IND~USA~IDN~PAK~NGA~BRA~JPN"
            style="font-family:&#x27;Playfair Display&#x27;, Georgia, &#x27;Times New Roman&#x27;, &#x27;Liberation Serif&#x27;, serif"
        >
            <text
                font-size="25.00"
                font-weight="600"
                x="16.0"
                y="40.3"
                fill="#2d2e2d"
            >
                <tspan x="16" y="40.25">
                    Fertility rate from mothers aged 50 to 54, 1950 to 2023
                </tspan>
            </text>
        </a>
    </g>
    <g id="chart-area" style="pointer-events: none">
        <g id="horizontal-axis" class="HorizontalAxis">
            <g id="tick-marks">
                <line
                    id="1950"
                    x1="39.2"
                    y1="531.9"
                    x2="39.2"
                    y2="537.4"
                    stroke="#999"
                    stroke-width="1"
                ></line>
                <line
                    id="2023"
                    x1="726.6"
                    y1="531.9"
                    x2="726.6"
                    y2="537.4"
                    stroke="#999"
                    stroke-width="1"
                ></line>
                <line
                    id="1960"
                    x1="133.4"
                    y1="531.9"
                    x2="133.4"
                    y2="537.4"
                    stroke="#999"
                    stroke-width="1"
                ></line>
                <line
                    id="1970"
                    x1="227.5"
                    y1="531.9"
                    x2="227.5"
                    y2="537.4"
                    stroke="#999"
                    stroke-width="1"
                ></line>
                <line
                    id="1980"
                    x1="321.7"
                    y1="531.9"
                    x2="321.7"
                    y2="537.4"
                    stroke="#999"
                    stroke-width="1"
                ></line>
                <line
                    id="1990"
                    x1="415.9"
                    y1="531.9"
                    x2="415.9"
                    y2="537.4"
                    stroke="#999"
                    stroke-width="1"
                ></line>
                <line
                    id="2000"
                    x1="510"
                    y1="531.9"
                    x2="510"
                    y2="537.4"
                    stroke="#999"
                    stroke-width="1"
                ></line>
                <line
                    id="2010"
                    x1="604.2"
                    y1="531.9"
                    x2="604.2"
                    y2="537.4"
                    stroke="#999"
                    stroke-width="1"
                ></line>
            </g>
            <g id="tick-labels">
                <text
                    x="39.2"
                    y="550.4"
                    fill="#5b5b5b"
                    text-anchor="start"
                    font-size="13"
                >
                    1950
                </text>
                <text
                    x="726.61"
                    y="550.4"
                    fill="#5b5b5b"
                    text-anchor="end"
                    font-size="13"
                >
                    2023
                </text>
                <text
                    x="133.4"
                    y="550.4"
                    fill="#5b5b5b"
                    text-anchor="middle"
                    font-size="13"
                >
                    1960
                </text>
                <text
                    x="227.5"
                    y="550.4"
                    fill="#5b5b5b"
                    text-anchor="middle"
                    font-size="13"
                >
                    1970
                </text>
                <text
                    x="321.7"
                    y="550.4"
                    fill="#5b5b5b"
                    text-anchor="middle"
                    font-size="13"
                >
                    1980
                </text>
                <text
                    x="415.9"
                    y="550.4"
                    fill="#5b5b5b"
                    text-anchor="middle"
                    font-size="13"
                >
                    1990
                </text>
                <text
                    x="510"
                    y="550.4"
                    fill="#5b5b5b"
                    text-anchor="middle"
                    font-size="13"
                >
                    2000
                </text>
                <text
                    x="604.2"
                    y="550.4"
                    fill="#5b5b5b"
                    text-anchor="middle"
                    font-size="13"
                >
                    2010
                </text>
            </g>
        </g>
        <g id="vertical-axis" class="VerticalAxis">
            <g id="tick-labels">
                <text
                    x="34.20"
                    y="532.4"
                    dy=".32em"
                    text-anchor="end"
                    fill="#5b5b5b"
                    font-size="13"
                >
                    0
                </text>
                <text
                    x="34.20"
                    y="440.7"
                    dy=".32em"
                    text-anchor="end"
                    fill="#5b5b5b"
                    font-size="13"
                >
                    0.5
                </text>
                <text
                    x="34.20"
                    y="349"
                    dy=".32em"
                    text-anchor="end"
                    fill="#5b5b5b"
                    font-size="13"
                >
                    1
                </text>
                <text
                    x="34.20"
                    y="257.4"
                    dy=".32em"
                    text-anchor="end"
                    fill="#5b5b5b"
                    font-size="13"
                >
                    1.5
                </text>
                <text
                    x="34.20"
                    y="165.7"
                    dy=".32em"
                    text-anchor="end"
                    fill="#5b5b5b"
                    font-size="13"
                >
                    2
                </text>
                <text
                    x="34.20"
                    y="74"
                    dy=".32em"
                    text-anchor="end"
                    fill="#5b5b5b"
                    font-size="13"
                >
                    2.5
                </text>
            </g>
        </g>
        <g id="horizontal-grid-lines" class="AxisGridLines horizontalLines">
            <line
                id="0"
                x1="39.20"
                y1="532.4"
                x2="726.61"
                y2="532.4"
                stroke="#999"
            ></line>
            <line
                id="0.5"
                x1="39.20"
                y1="440.7"
                x2="726.61"
                y2="440.7"
                stroke="#ddd"
                stroke-dasharray="4,4"
            ></line>
            <line
                id="1"
                x1="39.20"
                y1="349"
                x2="726.61"
                y2="349"
                stroke="#ddd"
                stroke-dasharray="4,4"
            ></line>
            <line
                id="1.5"
                x1="39.20"
                y1="257.4"
                x2="726.61"
                y2="257.4"
                stroke="#ddd"
                stroke-dasharray="4,4"
            ></line>
            <line
                id="2"
                x1="39.20"
                y1="165.7"
                x2="726.61"
                y2="165.7"
                stroke="#ddd"
                stroke-dasharray="4,4"
            ></line>
            <line
                id="2.5"
                x1="39.20"
                y1="74"
                x2="726.61"
                y2="74"
                stroke="#ddd"
                stroke-dasharray="4,4"
            ></line>
        </g>
        <g id="line-labels" class="LineLabels">
            <g id="connectors">
                <path
                    id="Nigeria"
                    d="M730.61,308.2 H739.11 V308.2 H747.61"
                    stroke="#999"
                    stroke-width="0.5"
                    fill="none"
                ></path>
                <path
                    id="Pakistan"
                    d="M730.61,394.3 H739.11 V394.3 H747.61"
                    stroke="#999"
                    stroke-width="0.5"
                    fill="none"
                ></path>
                <path
                    id="India"
                    d="M730.61,486.9 H733.4433333333334 V453.75 H747.61"
                    stroke="#999"
                    stroke-width="0.5"
                    fill="none"
                ></path>
                <path
                    id="Indonesia"
                    d="M730.61,499 H736.2766666666668 V472.05 H747.61"
                    stroke="#999"
                    stroke-width="0.5"
                    fill="none"
                ></path>
                <path
                    id="China"
                    d="M730.61,504.2 H739.11 V490.35 H747.61"
                    stroke="#999"
                    stroke-width="0.5"
                    fill="none"
                ></path>
                <path
                    id="United-States"
                    d="M730.61,529.6 H741.9433333333334 V508.65000000000003 H747.61"
                    stroke="#999"
                    stroke-width="0.5"
                    fill="none"
                ></path>
                <path
                    id="Brazil"
                    d="M730.61,532.4 H744.7766666666668 V526.95 H747.61"
                    stroke="#999"
                    stroke-width="0.5"
                    fill="none"
                ></path>
                <path
                    id="Japan"
                    d="M730.61,532.4 H744.7766666666668 V545.25 H747.61"
                    stroke="#999"
                    stroke-width="0.5"
                    fill="none"
                ></path>
            </g>
            <g id="text-annotations"></g>
            <g id="text-labels">
                <text
                    id="label__Nigeria"
                    font-size="13.00"
                    font-weight="400"
                    x="751.6"
                    y="313.0"
                    fill="#883039"
                    opacity="1"
                    text-anchor="start"
                >
                    <tspan x="751.61" y="313.01">Nigeria</tspan>
                </text>
                <text
                    id="label__Pakistan"
                    font-size="13.00"
                    font-weight="400"
                    x="751.6"
                    y="399.1"
                    fill="#00295b"
                    opacity="1"
                    text-anchor="start"
                >
                    <tspan x="751.61" y="399.11">Pakistan</tspan>
                </text>
                <text
                    id="label__India"
                    font-size="13.00"
                    font-weight="400"
                    x="751.6"
                    y="458.6"
                    fill="#996d39"
                    opacity="1"
                    text-anchor="start"
                >
                    <tspan x="751.61" y="458.56">India</tspan>
                </text>
                <text
                    id="label__Indonesia"
                    font-size="13.00"
                    font-weight="400"
                    x="751.6"
                    y="476.9"
                    fill="#2c8465"
                    opacity="1"
                    text-anchor="start"
                >
                    <tspan x="751.61" y="476.86">Indonesia</tspan>
                </text>
                <text
                    id="label__China"
                    font-size="13.00"
                    font-weight="400"
                    x="751.6"
                    y="495.2"
                    fill="#b13507"
                    opacity="1"
                    text-anchor="start"
                >
                    <tspan x="751.61" y="495.16">China</tspan>
                </text>
                <text
                    id="label__United-States"
                    font-size="13.00"
                    font-weight="400"
                    x="751.6"
                    y="513.5"
                    fill="#a2559c"
                    opacity="1"
                    text-anchor="start"
                >
                    <tspan x="751.61" y="513.46">United States</tspan>
                </text>
                <text
                    id="label__Brazil"
                    font-size="13.00"
                    font-weight="400"
                    x="751.6"
                    y="531.8"
                    fill="#4c6a9c"
                    opacity="1"
                    text-anchor="start"
                >
                    <tspan x="751.61" y="531.7600000000001">Brazil</tspan>
                </text>
                <text
                    id="label__Japan"
                    font-size="13.00"
                    font-weight="400"
                    x="751.6"
                    y="550.1"
                    fill="#6d3e91"
                    opacity="1"
                    text-anchor="start"
                >
                    <tspan x="751.61" y="550.0600000000001">Japan</tspan>
                </text>
            </g>
        </g>
        <g id="lines">
            <path
                fill="none"
                stroke-linecap="butt"
                stroke-linejoin="round"
                stroke="#ffffff"
                id="outline__Japan"
                stroke-width="2.5"
                d="M39.2 532.4L48.6 532.4L58 532.4L67.4 532.4L76.9 520.3L86.3 513.9L95.7 509.7L105.1 504L114.5 499.8L123.9 494.8L133.4 492.6L142.8 495.2L152.2 499.9L161.6 507.5L171 513.1L180.4 518.1L189.9 520.8L199.3 521.9L208.7 525.8L218.1 529.5L227.5 528.2L236.9 523.4L246.4 532.4L255.8 532.4L265.2 532.4L274.6 532.4L284 532.4L293.4 532.4L302.9 532.4L312.3 532.4L321.7 532.4L331.1 532.4L340.5 532.4L349.9 532.4L359.4 532.4L368.8 532.4L378.2 532.4L387.6 532.4L397 532.4L406.4 532.4L415.9 532.4L425.3 532.4L434.7 532.4L444.1 532.4L453.5 532.4L462.9 532.4L472.4 532.4L481.8 532.4L491.2 532.4L500.6 532.4L510 532.4L519.4 532.4L528.9 532.4L538.3 528.9L547.7 530.2L557.1 530.7L566.5 532.4L575.9 532.4L585.4 532.4L594.8 532.4L604.2 532.4L613.6 532.4L623 532.4L632.4 532.4L641.9 532.4L651.3 532.4L660.7 532.4L670.1 532.4L679.5 532.4L688.9 532.4L698.4 532.4L707.8 532.4L717.2 532.4L726.6 532.4"
            ></path>
            <path
                fill="none"
                stroke-linecap="butt"
                stroke-linejoin="round"
                stroke="#6d3e91"
                id="line__Japan"
                stroke-width="1.5"
                stroke-opacity="1"
                d="M39.2 532.4L48.6 532.4L58 532.4L67.4 532.4L76.9 520.3L86.3 513.9L95.7 509.7L105.1 504L114.5 499.8L123.9 494.8L133.4 492.6L142.8 495.2L152.2 499.9L161.6 507.5L171 513.1L180.4 518.1L189.9 520.8L199.3 521.9L208.7 525.8L218.1 529.5L227.5 528.2L236.9 523.4L246.4 532.4L255.8 532.4L265.2 532.4L274.6 532.4L284 532.4L293.4 532.4L302.9 532.4L312.3 532.4L321.7 532.4L331.1 532.4L340.5 532.4L349.9 532.4L359.4 532.4L368.8 532.4L378.2 532.4L387.6 532.4L397 532.4L406.4 532.4L415.9 532.4L425.3 532.4L434.7 532.4L444.1 532.4L453.5 532.4L462.9 532.4L472.4 532.4L481.8 532.4L491.2 532.4L500.6 532.4L510 532.4L519.4 532.4L528.9 532.4L538.3 528.9L547.7 530.2L557.1 530.7L566.5 532.4L575.9 532.4L585.4 532.4L594.8 532.4L604.2 532.4L613.6 532.4L623 532.4L632.4 532.4L641.9 532.4L651.3 532.4L660.7 532.4L670.1 532.4L679.5 532.4L688.9 532.4L698.4 532.4L707.8 532.4L717.2 532.4L726.6 532.4"
            ></path>
            <path
                fill="none"
                stroke-linecap="butt"
                stroke-linejoin="round"
                stroke="#ffffff"
                id="outline__Brazil"
                stroke-width="2.5"
                d="M39.2 402.4L48.6 402.6L58 402.9L67.4 403.3L76.9 403.5L86.3 401.8L95.7 401.5L105.1 400.7L114.5 399.8L123.9 398.9L133.4 398.7L142.8 398L152.2 398.5L161.6 399.6L171 400.9L180.4 399.3L189.9 399.1L199.3 398.2L208.7 400L218.1 404L227.5 407.3L236.9 417.8L246.4 423.9L255.8 435.2L265.2 441.1L274.6 448.2L284 456.5L293.4 461.1L302.9 466.8L312.3 469.7L321.7 475.7L331.1 479L340.5 481.8L349.9 482.7L359.4 484.5L368.8 485.3L378.2 487.8L387.6 488.4L397 491.7L406.4 493.2L415.9 495.5L425.3 498.3L434.7 502.1L444.1 506.5L453.5 510.8L462.9 514.4L472.4 517.7L481.8 520.5L491.2 523L500.6 524.5L510 526.3L519.4 527.4L528.9 528.7L538.3 530L547.7 531.5L557.1 532.4L566.5 532.4L575.9 532.4L585.4 532.4L594.8 532.4L604.2 532.4L613.6 532.4L623 532.4L632.4 532.4L641.9 532.4L651.3 532.4L660.7 532.4L670.1 532.4L679.5 532.4L688.9 532.4L698.4 532.4L707.8 532.4L717.2 532.4L726.6 532.4"
            ></path>
            <path
                fill="none"
                stroke-linecap="butt"
                stroke-linejoin="round"
                stroke="#4c6a9c"
                id="line__Brazil"
                stroke-width="1.5"
                stroke-opacity="1"
                d="M39.2 402.4L48.6 402.6L58 402.9L67.4 403.3L76.9 403.5L86.3 401.8L95.7 401.5L105.1 400.7L114.5 399.8L123.9 398.9L133.4 398.7L142.8 398L152.2 398.5L161.6 399.6L171 400.9L180.4 399.3L189.9 399.1L199.3 398.2L208.7 400L218.1 404L227.5 407.3L236.9 417.8L246.4 423.9L255.8 435.2L265.2 441.1L274.6 448.2L284 456.5L293.4 461.1L302.9 466.8L312.3 469.7L321.7 475.7L331.1 479L340.5 481.8L349.9 482.7L359.4 484.5L368.8 485.3L378.2 487.8L387.6 488.4L397 491.7L406.4 493.2L415.9 495.5L425.3 498.3L434.7 502.1L444.1 506.5L453.5 510.8L462.9 514.4L472.4 517.7L481.8 520.5L491.2 523L500.6 524.5L510 526.3L519.4 527.4L528.9 528.7L538.3 530L547.7 531.5L557.1 532.4L566.5 532.4L575.9 532.4L585.4 532.4L594.8 532.4L604.2 532.4L613.6 532.4L623 532.4L632.4 532.4L641.9 532.4L651.3 532.4L660.7 532.4L670.1 532.4L679.5 532.4L688.9 532.4L698.4 532.4L707.8 532.4L717.2 532.4L726.6 532.4"
            ></path>
            <path
                fill="none"
                stroke-linecap="butt"
                stroke-linejoin="round"
                stroke="#ffffff"
                id="outline__Nigeria"
                stroke-width="2.5"
                d="M39.2 189.9L48.6 193L58 195.8L67.4 195.4L76.9 192.8L86.3 190.1L95.7 188L105.1 191.9L114.5 196.7L123.9 202.2L133.4 208.8L142.8 215.4L152.2 221.4L161.6 223.6L171 222.7L180.4 220.1L189.9 215.4L199.3 210.2L208.7 204.9L218.1 210.6L227.5 212.8L236.9 213.2L246.4 216.3L255.8 219L265.2 222.7L274.6 219.2L284 212.1L293.4 202.2L302.9 189.5L312.3 179.1L321.7 172.6L331.1 171.9L340.5 177.8L349.9 185.5L359.4 176.7L368.8 166.4L378.2 155.6L387.6 152.7L397 148.3L406.4 155.4L415.9 156.1L425.3 153.2L434.7 152.3L444.1 146.8L453.5 138.2L462.9 141.7L472.4 128.6L481.8 123.7L491.2 139.6L500.6 152.8L510 161.8L519.4 165.7L528.9 161.3L538.3 161.6L547.7 149.5L557.1 142.9L566.5 127.2L575.9 105.4L585.4 104.6L594.8 116.4L604.2 112.1L613.6 126.8L623 138.9L632.4 149L641.9 165.3L651.3 178.9L660.7 198.1L670.1 212.4L679.5 227.5L688.9 244.3L698.4 257.9L707.8 273.9L717.2 295.1L726.6 308.2"
            ></path>
            <path
                fill="none"
                stroke-linecap="butt"
                stroke-linejoin="round"
                stroke="#883039"
                id="line__Nigeria"
                stroke-width="1.5"
                stroke-opacity="1"
                d="M39.2 189.9L48.6 193L58 195.8L67.4 195.4L76.9 192.8L86.3 190.1L95.7 188L105.1 191.9L114.5 196.7L123.9 202.2L133.4 208.8L142.8 215.4L152.2 221.4L161.6 223.6L171 222.7L180.4 220.1L189.9 215.4L199.3 210.2L208.7 204.9L218.1 210.6L227.5 212.8L236.9 213.2L246.4 216.3L255.8 219L265.2 222.7L274.6 219.2L284 212.1L293.4 202.2L302.9 189.5L312.3 179.1L321.7 172.6L331.1 171.9L340.5 177.8L349.9 185.5L359.4 176.7L368.8 166.4L378.2 155.6L387.6 152.7L397 148.3L406.4 155.4L415.9 156.1L425.3 153.2L434.7 152.3L444.1 146.8L453.5 138.2L462.9 141.7L472.4 128.6L481.8 123.7L491.2 139.6L500.6 152.8L510 161.8L519.4 165.7L528.9 161.3L538.3 161.6L547.7 149.5L557.1 142.9L566.5 127.2L575.9 105.4L585.4 104.6L594.8 116.4L604.2 112.1L613.6 126.8L623 138.9L632.4 149L641.9 165.3L651.3 178.9L660.7 198.1L670.1 212.4L679.5 227.5L688.9 244.3L698.4 257.9L707.8 273.9L717.2 295.1L726.6 308.2"
            ></path>
            <path
                fill="none"
                stroke-linecap="butt"
                stroke-linejoin="round"
                stroke="#ffffff"
                id="outline__Pakistan"
                stroke-width="2.5"
                d="M39.2 411.9L48.6 411.7L58 411.9L67.4 413.8L76.9 414.5L86.3 415.8L95.7 416.7L105.1 416.5L114.5 415.8L123.9 412.8L133.4 411.2L142.8 410.1L152.2 409.9L161.6 410.5L171 409.4L180.4 408.1L189.9 407.7L199.3 407.3L208.7 411.6L218.1 414.1L227.5 413.4L236.9 412.7L246.4 411.7L255.8 410.1L265.2 409.9L274.6 409.7L284 411L293.4 411.4L302.9 410.1L312.3 413.4L321.7 411.4L331.1 411.2L340.5 405.7L349.9 401.8L359.4 393.4L368.8 383.3L378.2 378.6L387.6 372L397 364.3L406.4 359.3L415.9 352.7L425.3 351.4L434.7 349.4L444.1 354.7L453.5 362.1L462.9 364.8L472.4 367.6L481.8 375.1L491.2 376L500.6 386.8L510 388.5L519.4 378L528.9 373.2L538.3 375.3L547.7 370.1L557.1 382.8L566.5 384.8L575.9 385.3L585.4 385L594.8 386.3L604.2 387.4L613.6 381.5L623 381.1L632.4 380.2L641.9 380.2L651.3 381.9L660.7 381.7L670.1 387.7L679.5 390.7L688.9 393.2L698.4 395.2L707.8 395.6L717.2 394.9L726.6 394.3"
            ></path>
            <path
                fill="none"
                stroke-linecap="butt"
                stroke-linejoin="round"
                stroke="#00295b"
                id="line__Pakistan"
                stroke-width="1.5"
                stroke-opacity="1"
                d="M39.2 411.9L48.6 411.7L58 411.9L67.4 413.8L76.9 414.5L86.3 415.8L95.7 416.7L105.1 416.5L114.5 415.8L123.9 412.8L133.4 411.2L142.8 410.1L152.2 409.9L161.6 410.5L171 409.4L180.4 408.1L189.9 407.7L199.3 407.3L208.7 411.6L218.1 414.1L227.5 413.4L236.9 412.7L246.4 411.7L255.8 410.1L265.2 409.9L274.6 409.7L284 411L293.4 411.4L302.9 410.1L312.3 413.4L321.7 411.4L331.1 411.2L340.5 405.7L349.9 401.8L359.4 393.4L368.8 383.3L378.2 378.6L387.6 372L397 364.3L406.4 359.3L415.9 352.7L425.3 351.4L434.7 349.4L444.1 354.7L453.5 362.1L462.9 364.8L472.4 367.6L481.8 375.1L491.2 376L500.6 386.8L510 388.5L519.4 378L528.9 373.2L538.3 375.3L547.7 370.1L557.1 382.8L566.5 384.8L575.9 385.3L585.4 385L594.8 386.3L604.2 387.4L613.6 381.5L623 381.1L632.4 380.2L641.9 380.2L651.3 381.9L660.7 381.7L670.1 387.7L679.5 390.7L688.9 393.2L698.4 395.2L707.8 395.6L717.2 394.9L726.6 394.3"
            ></path>
            <path
                fill="none"
                stroke-linecap="butt"
                stroke-linejoin="round"
                stroke="#ffffff"
                id="outline__Indonesia"
                stroke-width="2.5"
                d="M39.2 396.7L48.6 394.1L58 391.4L67.4 389L76.9 387.7L86.3 386.8L95.7 387.5L105.1 387L114.5 386.4L123.9 385.9L133.4 387.5L142.8 390.3L152.2 393.4L161.6 394.5L171 394.7L180.4 394.9L189.9 390.7L199.3 385.5L208.7 382.8L218.1 378.2L227.5 373.8L236.9 370.7L246.4 368.3L255.8 372L265.2 378.2L274.6 383L284 390.7L293.4 399.5L302.9 407.2L312.3 414.7L321.7 422.8L331.1 425.5L340.5 430.6L349.9 429.5L359.4 432.7L368.8 429.2L378.2 429.2L387.6 443.8L397 451.7L406.4 460.7L415.9 469.1L425.3 475.6L434.7 478.7L444.1 481.8L453.5 486.2L462.9 488L472.4 485.1L481.8 486.2L491.2 480.9L500.6 480.7L510 480.9L519.4 479L528.9 475.7L538.3 477.4L547.7 478.5L557.1 483.1L566.5 484.4L575.9 486L585.4 487.8L594.8 488.9L604.2 490.2L613.6 493.7L623 494.1L632.4 492.2L641.9 490.4L651.3 489.3L660.7 488.4L670.1 488L679.5 487.8L688.9 490.8L698.4 493.7L707.8 494.4L717.2 498.3L726.6 499"
            ></path>
            <path
                fill="none"
                stroke-linecap="butt"
                stroke-linejoin="round"
                stroke="#2c8465"
                id="line__Indonesia"
                stroke-width="1.5"
                stroke-opacity="1"
                d="M39.2 396.7L48.6 394.1L58 391.4L67.4 389L76.9 387.7L86.3 386.8L95.7 387.5L105.1 387L114.5 386.4L123.9 385.9L133.4 387.5L142.8 390.3L152.2 393.4L161.6 394.5L171 394.7L180.4 394.9L189.9 390.7L199.3 385.5L208.7 382.8L218.1 378.2L227.5 373.8L236.9 370.7L246.4 368.3L255.8 372L265.2 378.2L274.6 383L284 390.7L293.4 399.5L302.9 407.2L312.3 414.7L321.7 422.8L331.1 425.5L340.5 430.6L349.9 429.5L359.4 432.7L368.8 429.2L378.2 429.2L387.6 443.8L397 451.7L406.4 460.7L415.9 469.1L425.3 475.6L434.7 478.7L444.1 481.8L453.5 486.2L462.9 488L472.4 485.1L481.8 486.2L491.2 480.9L500.6 480.7L510 480.9L519.4 479L528.9 475.7L538.3 477.4L547.7 478.5L557.1 483.1L566.5 484.4L575.9 486L585.4 487.8L594.8 488.9L604.2 490.2L613.6 493.7L623 494.1L632.4 492.2L641.9 490.4L651.3 489.3L660.7 488.4L670.1 488L679.5 487.8L688.9 490.8L698.4 493.7L707.8 494.4L717.2 498.3L726.6 499"
            ></path>
            <path
                fill="none"
                stroke-linecap="butt"
                stroke-linejoin="round"
                stroke="#ffffff"
                id="outline__United-States"
                stroke-width="2.5"
                d="M39.2 527.4L48.6 526.3L58 524.9L67.4 525.4L76.9 524.5L86.3 522.5L95.7 522.1L105.1 521.8L114.5 518.5L123.9 517.5L133.4 518.3L142.8 518.5L152.2 516.3L161.6 515.5L171 532.4L180.4 532.4L189.9 532.4L199.3 532.4L208.7 532.4L218.1 532.4L227.5 532.4L236.9 532.4L246.4 532.4L255.8 532.4L265.2 532.4L274.6 532.4L284 532.4L293.4 532.4L302.9 532.4L312.3 532.4L321.7 532.4L331.1 532.4L340.5 532.4L349.9 532.4L359.4 532.4L368.8 532.4L378.2 532.4L387.6 532.4L397 532.4L406.4 532.4L415.9 532.4L425.3 532.4L434.7 532.4L444.1 532.4L453.5 532.4L462.9 532.4L472.4 532.4L481.8 532L491.2 531.7L500.6 531.3L510 530.9L519.4 530.6L528.9 530.6L538.3 530.6L547.7 530.9L557.1 531.1L566.5 530.9L575.9 530.7L585.4 530.6L594.8 530.6L604.2 530.4L613.6 530.2L623 530.2L632.4 529.8L641.9 529.6L651.3 529.3L660.7 529.5L670.1 529.5L679.5 529.5L688.9 529.3L698.4 528.9L707.8 529.5L717.2 530.6L726.6 529.6"
            ></path>
            <path
                fill="none"
                stroke-linecap="butt"
                stroke-linejoin="round"
                stroke="#a2559c"
                id="line__United-States"
                stroke-width="1.5"
                stroke-opacity="1"
                d="M39.2 527.4L48.6 526.3L58 524.9L67.4 525.4L76.9 524.5L86.3 522.5L95.7 522.1L105.1 521.8L114.5 518.5L123.9 517.5L133.4 518.3L142.8 518.5L152.2 516.3L161.6 515.5L171 532.4L180.4 532.4L189.9 532.4L199.3 532.4L208.7 532.4L218.1 532.4L227.5 532.4L236.9 532.4L246.4 532.4L255.8 532.4L265.2 532.4L274.6 532.4L284 532.4L293.4 532.4L302.9 532.4L312.3 532.4L321.7 532.4L331.1 532.4L340.5 532.4L349.9 532.4L359.4 532.4L368.8 532.4L378.2 532.4L387.6 532.4L397 532.4L406.4 532.4L415.9 532.4L425.3 532.4L434.7 532.4L444.1 532.4L453.5 532.4L462.9 532.4L472.4 532.4L481.8 532L491.2 531.7L500.6 531.3L510 530.9L519.4 530.6L528.9 530.6L538.3 530.6L547.7 530.9L557.1 531.1L566.5 530.9L575.9 530.7L585.4 530.6L594.8 530.6L604.2 530.4L613.6 530.2L623 530.2L632.4 529.8L641.9 529.6L651.3 529.3L660.7 529.5L670.1 529.5L679.5 529.5L688.9 529.3L698.4 528.9L707.8 529.5L717.2 530.6L726.6 529.6"
            ></path>
            <path
                fill="none"
                stroke-linecap="butt"
                stroke-linejoin="round"
                stroke="#ffffff"
                id="outline__India"
                stroke-width="2.5"
                d="M39.2 439.8L48.6 440.2L58 439.3L67.4 436.9L76.9 433L86.3 429.4L95.7 426.2L105.1 423.9L114.5 422.4L123.9 421.3L133.4 419.6L142.8 418.2L152.2 417.4L161.6 416.3L171 414.7L180.4 417.6L189.9 415.2L199.3 416.3L208.7 417.8L218.1 417.2L227.5 420L236.9 425.7L246.4 427.3L255.8 431.7L265.2 431.7L274.6 433.8L284 436.1L293.4 433.6L302.9 438.5L312.3 445.1L321.7 449.5L331.1 454.8L340.5 456.7L349.9 459.2L359.4 462L368.8 462.2L378.2 461.1L387.6 449.3L397 455L406.4 459.4L415.9 461.1L425.3 469.7L434.7 472.6L444.1 475.7L453.5 480L462.9 485.1L472.4 485.1L481.8 488.9L491.2 495.2L500.6 493.9L510 495.9L519.4 497.4L528.9 495.5L538.3 494.6L547.7 486.7L557.1 472.6L566.5 469.3L575.9 467.3L585.4 474.3L594.8 467.9L604.2 466.9L613.6 465.5L623 466L632.4 466.9L641.9 470.1L651.3 470.1L660.7 477L670.1 482.2L679.5 482.3L688.9 483.8L698.4 485.5L707.8 486.2L717.2 486.6L726.6 486.9"
            ></path>
            <path
                fill="none"
                stroke-linecap="butt"
                stroke-linejoin="round"
                stroke="#996d39"
                id="line__India"
                stroke-width="1.5"
                stroke-opacity="1"
                d="M39.2 439.8L48.6 440.2L58 439.3L67.4 436.9L76.9 433L86.3 429.4L95.7 426.2L105.1 423.9L114.5 422.4L123.9 421.3L133.4 419.6L142.8 418.2L152.2 417.4L161.6 416.3L171 414.7L180.4 417.6L189.9 415.2L199.3 416.3L208.7 417.8L218.1 417.2L227.5 420L236.9 425.7L246.4 427.3L255.8 431.7L265.2 431.7L274.6 433.8L284 436.1L293.4 433.6L302.9 438.5L312.3 445.1L321.7 449.5L331.1 454.8L340.5 456.7L349.9 459.2L359.4 462L368.8 462.2L378.2 461.1L387.6 449.3L397 455L406.4 459.4L415.9 461.1L425.3 469.7L434.7 472.6L444.1 475.7L453.5 480L462.9 485.1L472.4 485.1L481.8 488.9L491.2 495.2L500.6 493.9L510 495.9L519.4 497.4L528.9 495.5L538.3 494.6L547.7 486.7L557.1 472.6L566.5 469.3L575.9 467.3L585.4 474.3L594.8 467.9L604.2 466.9L613.6 465.5L623 466L632.4 466.9L641.9 470.1L651.3 470.1L660.7 477L670.1 482.2L679.5 482.3L688.9 483.8L698.4 485.5L707.8 486.2L717.2 486.6L726.6 486.9"
            ></path>
            <path
                fill="none"
                stroke-linecap="butt"
                stroke-linejoin="round"
                stroke="#ffffff"
                id="outline__China"
                stroke-width="2.5"
                d="M39.2 447.5L48.6 450.6L58 443.3L67.4 453L76.9 455L86.3 461.1L95.7 470.8L105.1 471.7L114.5 483.6L123.9 496.1L133.4 502.7L142.8 518.1L152.2 532.4L161.6 532.4L171 532.4L180.4 532.4L189.9 532.4L199.3 523.2L208.7 532.4L218.1 499L227.5 476.5L236.9 457L246.4 447.1L255.8 442.9L265.2 436.9L274.6 432.1L284 436L293.4 438.3L302.9 444.2L312.3 453L321.7 458.9L331.1 464.7L340.5 470.6L349.9 472.3L359.4 480L368.8 489.5L378.2 499.4L387.6 503.4L397 499.2L406.4 496.1L415.9 490.2L425.3 479.4L434.7 476.3L444.1 478.9L453.5 482.9L462.9 487.8L472.4 495.9L481.8 499.6L491.2 507.8L500.6 509.7L510 507.5L519.4 503.2L528.9 496.6L538.3 495.9L547.7 495.9L557.1 494.4L566.5 493.7L575.9 491.1L585.4 489.1L594.8 491.5L604.2 494.1L613.6 494.8L623 488.4L632.4 476.7L641.9 474.1L651.3 479.4L660.7 485.6L670.1 491L679.5 491.1L688.9 489.9L698.4 493.2L707.8 496.8L717.2 500.9L726.6 504.2"
            ></path>
            <path
                fill="none"
                stroke-linecap="butt"
                stroke-linejoin="round"
                stroke="#b13507"
                id="line__China"
                stroke-width="1.5"
                stroke-opacity="1"
                d="M39.2 447.5L48.6 450.6L58 443.3L67.4 453L76.9 455L86.3 461.1L95.7 470.8L105.1 471.7L114.5 483.6L123.9 496.1L133.4 502.7L142.8 518.1L152.2 532.4L161.6 532.4L171 532.4L180.4 532.4L189.9 532.4L199.3 523.2L208.7 532.4L218.1 499L227.5 476.5L236.9 457L246.4 447.1L255.8 442.9L265.2 436.9L274.6 432.1L284 436L293.4 438.3L302.9 444.2L312.3 453L321.7 458.9L331.1 464.7L340.5 470.6L349.9 472.3L359.4 480L368.8 489.5L378.2 499.4L387.6 503.4L397 499.2L406.4 496.1L415.9 490.2L425.3 479.4L434.7 476.3L444.1 478.9L453.5 482.9L462.9 487.8L472.4 495.9L481.8 499.6L491.2 507.8L500.6 509.7L510 507.5L519.4 503.2L528.9 496.6L538.3 495.9L547.7 495.9L557.1 494.4L566.5 493.7L575.9 491.1L585.4 489.1L594.8 491.5L604.2 494.1L613.6 494.8L623 488.4L632.4 476.7L641.9 474.1L651.3 479.4L660.7 485.6L670.1 491L679.5 491.1L688.9 489.9L698.4 493.2L707.8 496.8L717.2 500.9L726.6 504.2"
            ></path>
        </g>
    </g>
    <g id="footer" class="SourcesFooter" style="fill: #767676">
        <g id="sources" class="markdown-text-wrap">
            <text x="16.0" y="581.0" style="font-size: 13px; line-height: 1.2">
                <tspan x="16" y="581.0">
                    <tspan style="font-weight: 700">Data source:</tspan>
                    UN, World Population Prospects (2024)
                </tspan>
            </text>
        </g>
        <text id="origin-url" font-size="13.00" x="560.3" y="581.0">
            <tspan x="560.3499999999999" y="581.01">
                <a
                    style="fill: #767676"
                    href="https://ourworldindata.org/population-growth"
                >
                    OurWorldinData.org/population-growth
                </a>
                |
                <a
                    style="fill: #767676"
                    href="https://creativecommons.org/licenses/by/4.0/"
                >
                    CC BY
                </a>
            </tspan>
        </text>
    </g>
</svg>
