<svg
    xmlns="http://www.w3.org/2000/svg"
    version="1.1"
    style='font-family:Lato, &#x27;Helvetica Neue&#x27;, Helvetica, Arial, &#x27;Liberation Sans&#x27;, sans-serif;font-feature-settings:"liga", "kern", "calt", "lnum";text-rendering:geometricPrecision;-webkit-font-smoothing:antialiased;font-size:18px;background-color:#ffffff'
    width="850"
    height="600"
    viewBox="0 0 850 600"
>
    <defs>
        <style>
            @import url(https://ourworldindata.org/fonts.css);
        </style>
    </defs>
    <defs>
        <pattern
            id="noDataPattern"
            patternUnits="userSpaceOnUse"
            width="4"
            height="4"
            patternTransform="rotate(-45 2 2)"
        >
            <path d="M -1,2 l 6,0" stroke="#ccc" stroke-width="0.7"></path>
        </pattern>
    </defs>
    <g id="header" class="HeaderView">
        <g id="logo" transform="translate(769, 16) scale(1)">
            <svg
                className="owidLogo"
                xmlns="http://www.w3.org/2000/svg"
                width="65"
                height="36"
                viewBox="0 0 65 36"
                fill="none"
            >
                <path fill="#002147" d="M0 0h64.8v36H0z" />
                <path fill="#CE261E" d="M0 33.3h64.8V36H0z" />
                <path
                    fill="#fff"
                    d="M13.796 10.575c0 .636-.106 1.226-.318 1.77a4.193 4.193 0 0 1-.894 1.404 4.084 4.084 0 0 1-1.386.93c-.54.22-1.138.33-1.794.33-.656 0-1.256-.11-1.8-.33a4.149 4.149 0 0 1-1.392-.93 4.193 4.193 0 0 1-.894-1.404A4.833 4.833 0 0 1 5 10.575c0-.636.106-1.224.318-1.764a4.18 4.18 0 0 1 .894-1.41 4.076 4.076 0 0 1 1.392-.924 4.684 4.684 0 0 1 1.8-.336c.656 0 1.254.112 1.794.336.54.224 1.002.534 1.386.93.384.392.682.86.894 1.404.212.54.318 1.128.318 1.764Zm-1.656 0c0-.476-.064-.902-.192-1.278a2.671 2.671 0 0 0-.54-.966 2.332 2.332 0 0 0-.864-.606 2.94 2.94 0 0 0-1.14-.21c-.424 0-.806.07-1.146.21-.34.14-.63.342-.87.606a2.742 2.742 0 0 0-.546.966 3.955 3.955 0 0 0-.192 1.278c0 .476.064.904.192 1.284.128.376.31.696.546.96.24.26.53.46.87.6.34.14.722.21 1.146.21.424 0 .804-.07 1.14-.21.34-.14.628-.34.864-.6.236-.264.416-.584.54-.96a4.01 4.01 0 0 0 .192-1.284ZM16.104 8.757v3.912c0 .376.086.668.258.876.176.204.438.306.786.306.256 0 .496-.056.72-.168a2.58 2.58 0 0 0 .636-.474V8.757h1.482v6.156h-.906c-.192 0-.318-.09-.378-.27l-.102-.492a4.65 4.65 0 0 1-.396.354 2.577 2.577 0 0 1-.438.27 2.35 2.35 0 0 1-.498.168 2.345 2.345 0 0 1-.57.066c-.336 0-.634-.056-.894-.168a1.821 1.821 0 0 1-.648-.486 2.157 2.157 0 0 1-.402-.738 3.233 3.233 0 0 1-.132-.948V8.757h1.482ZM21.328 14.913V8.757h.87c.152 0 .258.028.318.084.06.056.1.152.12.288l.09.744c.22-.38.478-.68.774-.9.296-.22.628-.33.996-.33.304 0 .556.07.756.21l-.192 1.11c-.012.072-.038.124-.078.156a.278.278 0 0 1-.162.042 1.01 1.01 0 0 1-.246-.042 1.646 1.646 0 0 0-.414-.042c-.308 0-.572.086-.792.258-.22.168-.406.416-.558.744v3.834h-1.482ZM27.347 6.237h1.356a.57.57 0 0 1 .348.102c.096.064.16.152.192.264l1.476 5.19c.036.128.068.268.096.42.032.148.062.306.09.474a5.968 5.968 0 0 1 .228-.894l1.704-5.19a.575.575 0 0 1 .186-.252.543.543 0 0 1 .348-.114h.474a.57.57 0 0 1 .348.102.497.497 0 0 1 .192.264l1.692 5.19c.088.256.164.54.228.852.028-.156.056-.306.084-.45.032-.144.064-.278.096-.402l1.476-5.19c.028-.1.09-.186.186-.258a.563.563 0 0 1 .348-.108h1.266l-2.694 8.676h-1.458l-1.896-5.928-.078-.246a9.504 9.504 0 0 1-.072-.282c-.024.1-.05.194-.078.282-.024.088-.048.17-.072.246l-1.914 5.928H30.04l-2.694-8.676ZM42.771 8.661c.46 0 .876.074 1.248.222.376.148.696.358.96.63s.468.604.612.996c.144.392.216.83.216 1.314 0 .488-.072.928-.216 1.32a2.85 2.85 0 0 1-.612 1.002 2.653 2.653 0 0 1-.96.636 3.35 3.35 0 0 1-1.248.222c-.46 0-.878-.074-1.254-.222a2.712 2.712 0 0 1-.966-.636 2.922 2.922 0 0 1-.618-1.002 3.807 3.807 0 0 1-.216-1.32c0-.484.072-.922.216-1.314.148-.392.354-.724.618-.996.268-.272.59-.482.966-.63a3.397 3.397 0 0 1 1.254-.222Zm0 5.202c.512 0 .89-.172 1.134-.516.248-.344.372-.848.372-1.512s-.124-1.17-.372-1.518c-.244-.348-.622-.522-1.134-.522-.52 0-.904.176-1.152.528-.248.348-.372.852-.372 1.512s.124 1.164.372 1.512c.248.344.632.516 1.152.516ZM46.723 14.913V8.757h.87c.152 0 .258.028.318.084.06.056.1.152.12.288l.09.744c.22-.38.478-.68.774-.9.296-.22.628-.33.996-.33.304 0 .556.07.756.21l-.192 1.11c-.012.072-.038.124-.078.156a.278.278 0 0 1-.162.042 1.01 1.01 0 0 1-.246-.042 1.646 1.646 0 0 0-.414-.042c-.308 0-.572.086-.792.258-.22.168-.406.416-.558.744v3.834h-1.482ZM52.96 5.997v8.916h-1.482V5.997h1.482ZM58.732 14.913c-.192 0-.318-.09-.378-.27l-.12-.594a3.68 3.68 0 0 1-.402.39c-.14.116-.292.216-.456.3-.16.084-.334.148-.522.192a2.372 2.372 0 0 1-.6.072c-.336 0-.644-.07-.924-.21a2.098 2.098 0 0 1-.726-.606 3.033 3.033 0 0 1-.468-.99 5.072 5.072 0 0 1-.162-1.344c0-.456.062-.88.186-1.272s.302-.732.534-1.02c.232-.288.51-.512.834-.672a2.384 2.384 0 0 1 1.092-.246 2.103 2.103 0 0 1 1.536.606V5.997h1.482v8.916h-.906Zm-1.974-1.086c.308 0 .57-.064.786-.192.216-.128.42-.31.612-.546v-2.76a1.452 1.452 0 0 0-.552-.432 1.597 1.597 0 0 0-.636-.126c-.224 0-.428.042-.612.126a1.21 1.21 0 0 0-.462.384c-.124.168-.22.384-.288.648-.068.26-.102.568-.102.924 0 .36.028.666.084.918.06.248.144.452.252.612.108.156.24.27.396.342.156.068.33.102.522.102ZM16.331 20.757v6.156H14.85v-6.156h1.481Zm.223-1.794a.844.844 0 0 1-.078.36.963.963 0 0 1-.21.294.995.995 0 0 1-.3.204.963.963 0 0 1-.372.072.948.948 0 0 1-.367-.072 1.018 1.018 0 0 1-.498-.498.963.963 0 0 1 0-.732.995.995 0 0 1 .205-.3.929.929 0 0 1 .293-.198.899.899 0 0 1 .738 0 .912.912 0 0 1 .3.198.943.943 0 0 1 .288.672ZM17.771 26.913v-6.156h.906c.192 0 .318.09.378.27l.102.486a2.934 2.934 0 0 1 .828-.618c.156-.076.322-.134.498-.174.176-.04.368-.06.576-.06.336 0 .634.058.894.174.26.112.476.272.648.48.176.204.308.45.396.738.092.284.138.598.138.942v3.918h-1.482v-3.918c0-.376-.088-.666-.264-.87-.172-.208-.432-.312-.78-.312-.256 0-.496.058-.72.174a2.58 2.58 0 0 0-.636.474v4.452h-1.482ZM34.22 22.575c0 .636-.106 1.22-.318 1.752-.212.532-.51.99-.894 1.374a4 4 0 0 1-1.386.894 4.87 4.87 0 0 1-1.794.318h-3.312v-8.676h3.312a4.79 4.79 0 0 1 1.794.324 4 4 0 0 1 1.386.894c.384.38.682.836.894 1.368.212.532.318 1.116.318 1.752Zm-1.65 0c0-.476-.064-.902-.192-1.278a2.68 2.68 0 0 0-.546-.96 2.332 2.332 0 0 0-.864-.606 2.94 2.94 0 0 0-1.14-.21h-1.686v6.108h1.686c.424 0 .804-.07 1.14-.21.34-.14.628-.34.864-.6a2.75 2.75 0 0 0 .546-.96 4.01 4.01 0 0 0 .192-1.284ZM39.98 26.913h-.665c-.14 0-.25-.02-.33-.06-.08-.044-.14-.13-.18-.258l-.132-.438c-.156.14-.31.264-.462.372a2.804 2.804 0 0 1-.462.264c-.16.072-.33.126-.51.162-.18.036-.38.054-.6.054-.26 0-.5-.034-.72-.102a1.618 1.618 0 0 1-.57-.318 1.448 1.448 0 0 1-.366-.522 1.852 1.852 0 0 1-.132-.726c0-.232.06-.46.18-.684.124-.228.328-.432.612-.612.284-.184.662-.336 1.134-.456.472-.12 1.058-.188 1.758-.204v-.36c0-.412-.088-.716-.264-.912-.172-.2-.424-.3-.756-.3a1.837 1.837 0 0 0-1.02.276c-.116.068-.224.13-.324.186a.664.664 0 0 1-.33.084.429.429 0 0 1-.258-.078.614.614 0 0 1-.174-.192l-.27-.474c.708-.648 1.562-.972 2.562-.972.36 0 .68.06.96.18.284.116.524.28.72.492.196.208.344.458.444.75.104.292.156.612.156.96v3.888Zm-2.88-.924c.153 0 .293-.014.42-.042.129-.028.249-.07.36-.126.117-.056.227-.124.33-.204.109-.084.217-.182.325-.294v-1.038c-.432.02-.794.058-1.086.114-.288.052-.52.12-.696.204a.923.923 0 0 0-.378.294.664.664 0 0 0-.108.366c0 .26.076.446.228.558.156.112.358.168.606.168ZM43.22 27.01c-.532 0-.942-.15-1.23-.45-.288-.305-.432-.723-.432-1.255v-3.438h-.624a.31.31 0 0 1-.21-.078c-.056-.052-.084-.13-.084-.234v-.588l.99-.162.312-1.68a.302.302 0 0 1 .108-.186.365.365 0 0 1 .222-.066h.768v1.938h1.62v1.056h-1.62v3.336c0 .192.048.342.144.45a.488.488 0 0 0 .384.162c.092 0 .168-.01.228-.03.064-.024.118-.048.162-.072.048-.024.09-.046.126-.066a.194.194 0 0 1 .108-.036.16.16 0 0 1 .108.036c.028.02.058.052.09.096l.444.72c-.216.18-.464.316-.744.408a2.77 2.77 0 0 1-.87.138ZM50.423 26.913h-.666c-.14 0-.25-.02-.33-.06-.08-.044-.14-.13-.18-.258l-.132-.438c-.156.14-.31.264-.462.372a2.804 2.804 0 0 1-.462.264c-.16.072-.33.126-.51.162-.18.036-.38.054-.6.054-.26 0-.5-.034-.72-.102a1.618 1.618 0 0 1-.57-.318 1.448 1.448 0 0 1-.366-.522 1.852 1.852 0 0 1-.132-.726c0-.232.06-.46.18-.684.124-.228.328-.432.612-.612.284-.184.662-.336 1.134-.456.472-.12 1.058-.188 1.758-.204v-.36c0-.412-.088-.716-.264-.912-.172-.2-.424-.3-.756-.3a1.837 1.837 0 0 0-1.02.276c-.116.068-.224.13-.324.186a.664.664 0 0 1-.33.084.429.429 0 0 1-.258-.078.614.614 0 0 1-.174-.192l-.27-.474c.708-.648 1.562-.972 2.562-.972.36 0 .68.06.96.18.284.116.524.28.72.492.196.208.344.458.444.75.104.292.156.612.156.96v3.888Zm-2.88-.924c.152 0 .292-.014.42-.042.128-.028.248-.07.36-.126.116-.056.226-.124.33-.204.108-.084.216-.182.324-.294v-1.038c-.432.02-.794.058-1.086.114-.288.052-.52.12-.696.204a.923.923 0 0 0-.378.294.664.664 0 0 0-.108.366c0 .26.076.446.228.558.156.112.358.168.606.168Z"
                />
            </svg>
        </g>
        <a
            id="title"
            href="https://ourworldindata.org/explorers/population-and-demography?indicator=Fertility+rate&amp;Sex=Both+sexes&amp;Age=Mothers+aged+50-54+years&amp;Projection+scenario=None&amp;country=CHN~IND~USA~IDN~PAK~NGA~BRA~JPN"
            style="font-family:&#x27;Playfair Display&#x27;, Georgia, &#x27;Times New Roman&#x27;, &#x27;Liberation Serif&#x27;, serif"
        >
            <text
                font-size="25.00"
                font-weight="600"
                x="16.0"
                y="40.3"
                fill="#2d2e2d"
            >
                <tspan x="16" y="40.25">
                    Fertility rate from mothers aged 50 to 54, 1950 to 2023
                </tspan>
            </text>
        </a>
    </g>
    <g id="chart-area" style="pointer-events: none">
        <g id="horizontal-axis" class="HorizontalAxis">
            <g id="tick-marks">
                <line
                    id="1950"
                    x1="39.2"
                    y1="531.9"
                    x2="39.2"
                    y2="537.4"
                    stroke="#999"
                    stroke-width="1"
                ></line>
                <line
                    id="2023"
                    x1="727.4"
                    y1="531.9"
                    x2="727.4"
                    y2="537.4"
                    stroke="#999"
                    stroke-width="1"
                ></line>
                <line
                    id="1960"
                    x1="133.5"
                    y1="531.9"
                    x2="133.5"
                    y2="537.4"
                    stroke="#999"
                    stroke-width="1"
                ></line>
                <line
                    id="1970"
                    x1="227.7"
                    y1="531.9"
                    x2="227.7"
                    y2="537.4"
                    stroke="#999"
                    stroke-width="1"
                ></line>
                <line
                    id="1980"
                    x1="322"
                    y1="531.9"
                    x2="322"
                    y2="537.4"
                    stroke="#999"
                    stroke-width="1"
                ></line>
                <line
                    id="1990"
                    x1="416.3"
                    y1="531.9"
                    x2="416.3"
                    y2="537.4"
                    stroke="#999"
                    stroke-width="1"
                ></line>
                <line
                    id="2000"
                    x1="510.6"
                    y1="531.9"
                    x2="510.6"
                    y2="537.4"
                    stroke="#999"
                    stroke-width="1"
                ></line>
                <line
                    id="2010"
                    x1="604.8"
                    y1="531.9"
                    x2="604.8"
                    y2="537.4"
                    stroke="#999"
                    stroke-width="1"
                ></line>
            </g>
            <g id="tick-labels">
                <text
                    x="39.2"
                    y="550.4"
                    fill="#5b5b5b"
                    text-anchor="start"
                    font-size="13"
                >
                    1950
                </text>
                <text
                    x="727.39"
                    y="550.4"
                    fill="#5b5b5b"
                    text-anchor="end"
                    font-size="13"
                >
                    2023
                </text>
                <text
                    x="133.5"
                    y="550.4"
                    fill="#5b5b5b"
                    text-anchor="middle"
                    font-size="13"
                >
                    1960
                </text>
                <text
                    x="227.7"
                    y="550.4"
                    fill="#5b5b5b"
                    text-anchor="middle"
                    font-size="13"
                >
                    1970
                </text>
                <text
                    x="322"
                    y="550.4"
                    fill="#5b5b5b"
                    text-anchor="middle"
                    font-size="13"
                >
                    1980
                </text>
                <text
                    x="416.3"
                    y="550.4"
                    fill="#5b5b5b"
                    text-anchor="middle"
                    font-size="13"
                >
                    1990
                </text>
                <text
                    x="510.6"
                    y="550.4"
                    fill="#5b5b5b"
                    text-anchor="middle"
                    font-size="13"
                >
                    2000
                </text>
                <text
                    x="604.8"
                    y="550.4"
                    fill="#5b5b5b"
                    text-anchor="middle"
                    font-size="13"
                >
                    2010
                </text>
            </g>
        </g>
        <g id="vertical-axis" class="VerticalAxis">
            <g id="tick-labels">
                <text
                    x="34.20"
                    y="532.4"
                    dy=".32em"
                    text-anchor="end"
                    fill="#5b5b5b"
                    font-size="13"
                >
                    0
                </text>
                <text
                    x="34.20"
                    y="440.7"
                    dy=".32em"
                    text-anchor="end"
                    fill="#5b5b5b"
                    font-size="13"
                >
                    0.5
                </text>
                <text
                    x="34.20"
                    y="349"
                    dy=".32em"
                    text-anchor="end"
                    fill="#5b5b5b"
                    font-size="13"
                >
                    1
                </text>
                <text
                    x="34.20"
                    y="257.4"
                    dy=".32em"
                    text-anchor="end"
                    fill="#5b5b5b"
                    font-size="13"
                >
                    1.5
                </text>
                <text
                    x="34.20"
                    y="165.7"
                    dy=".32em"
                    text-anchor="end"
                    fill="#5b5b5b"
                    font-size="13"
                >
                    2
                </text>
                <text
                    x="34.20"
                    y="74"
                    dy=".32em"
                    text-anchor="end"
                    fill="#5b5b5b"
                    font-size="13"
                >
                    2.5
                </text>
            </g>
        </g>
        <g id="horizontal-grid-lines" class="AxisGridLines horizontalLines">
            <line
                id="0"
                class="zero-line"
                x1="39.20"
                y1="532.4"
                x2="727.39"
                y2="532.4"
                stroke="#999"
            ></line>
            <line
                id="0.5"
                x1="39.20"
                y1="440.7"
                x2="727.39"
                y2="440.7"
                stroke="#ddd"
                stroke-dasharray="4,4"
            ></line>
            <line
                id="1"
                x1="39.20"
                y1="349"
                x2="727.39"
                y2="349"
                stroke="#ddd"
                stroke-dasharray="4,4"
            ></line>
            <line
                id="1.5"
                x1="39.20"
                y1="257.4"
                x2="727.39"
                y2="257.4"
                stroke="#ddd"
                stroke-dasharray="4,4"
            ></line>
            <line
                id="2"
                x1="39.20"
                y1="165.7"
                x2="727.39"
                y2="165.7"
                stroke="#ddd"
                stroke-dasharray="4,4"
            ></line>
            <line
                id="2.5"
                x1="39.20"
                y1="74"
                x2="727.39"
                y2="74"
                stroke="#ddd"
                stroke-dasharray="4,4"
            ></line>
        </g>
        <g id="line-labels" class="LineLabels">
            <g id="connectors">
                <path
                    id="Nigeria"
                    d="M731.39,308.2 H739.89 V308.2 H748.39"
                    stroke="#999"
                    stroke-width="0.5"
                    fill="none"
                ></path>
                <path
                    id="Pakistan"
                    d="M731.39,394.3 H739.89 V394.3 H748.39"
                    stroke="#999"
                    stroke-width="0.5"
                    fill="none"
                ></path>
                <path
                    id="India"
                    d="M731.39,486.9 H734.2233333333334 V453.75 H748.39"
                    stroke="#999"
                    stroke-width="0.5"
                    fill="none"
                ></path>
                <path
                    id="Indonesia"
                    d="M731.39,499 H737.0566666666667 V472.05 H748.39"
                    stroke="#999"
                    stroke-width="0.5"
                    fill="none"
                ></path>
                <path
                    id="China"
                    d="M731.39,504.2 H739.89 V490.35 H748.39"
                    stroke="#999"
                    stroke-width="0.5"
                    fill="none"
                ></path>
                <path
                    id="United-States"
                    d="M731.39,529.6 H742.7233333333334 V508.65000000000003 H748.39"
                    stroke="#999"
                    stroke-width="0.5"
                    fill="none"
                ></path>
                <path
                    id="Brazil"
                    d="M731.39,532.4 H745.5566666666667 V526.95 H748.39"
                    stroke="#999"
                    stroke-width="0.5"
                    fill="none"
                ></path>
                <path
                    id="Japan"
                    d="M731.39,532.4 H745.5566666666667 V545.25 H748.39"
                    stroke="#999"
                    stroke-width="0.5"
                    fill="none"
                ></path>
            </g>
            <g id="text-annotations"></g>
            <g id="text-labels">
                <text
                    id="label__Nigeria"
                    font-size="13.00"
                    font-weight="400"
                    x="752.4"
                    y="313.0"
                    fill="#883039"
                    opacity="1"
                    text-anchor="start"
                >
                    <tspan x="752.39" y="313.01">Nigeria</tspan>
                </text>
                <text
                    id="label__Pakistan"
                    font-size="13.00"
                    font-weight="400"
                    x="752.4"
                    y="399.1"
                    fill="#00295b"
                    opacity="1"
                    text-anchor="start"
                >
                    <tspan x="752.39" y="399.11">Pakistan</tspan>
                </text>
                <text
                    id="label__India"
                    font-size="13.00"
                    font-weight="400"
                    x="752.4"
                    y="458.6"
                    fill="#996d39"
                    opacity="1"
                    text-anchor="start"
                >
                    <tspan x="752.39" y="458.56">India</tspan>
                </text>
                <text
                    id="label__Indonesia"
                    font-size="13.00"
                    font-weight="400"
                    x="752.4"
                    y="476.9"
                    fill="#2c8465"
                    opacity="1"
                    text-anchor="start"
                >
                    <tspan x="752.39" y="476.86">Indonesia</tspan>
                </text>
                <text
                    id="label__China"
                    font-size="13.00"
                    font-weight="400"
                    x="752.4"
                    y="495.2"
                    fill="#b13507"
                    opacity="1"
                    text-anchor="start"
                >
                    <tspan x="752.39" y="495.16">China</tspan>
                </text>
                <text
                    id="label__United-States"
                    font-size="13.00"
                    font-weight="400"
                    x="752.4"
                    y="513.5"
                    fill="#a2559c"
                    opacity="1"
                    text-anchor="start"
                >
                    <tspan x="752.39" y="513.46">United States</tspan>
                </text>
                <text
                    id="label__Brazil"
                    font-size="13.00"
                    font-weight="400"
                    x="752.4"
                    y="531.8"
                    fill="#4c6a9c"
                    opacity="1"
                    text-anchor="start"
                >
                    <tspan x="752.39" y="531.7600000000001">Brazil</tspan>
                </text>
                <text
                    id="label__Japan"
                    font-size="13.00"
                    font-weight="400"
                    x="752.4"
                    y="550.1"
                    fill="#6d3e91"
                    opacity="1"
                    text-anchor="start"
                >
                    <tspan x="752.39" y="550.0600000000001">Japan</tspan>
                </text>
            </g>
        </g>
        <g id="lines">
            <path
                fill="none"
                stroke-linecap="butt"
                stroke-linejoin="round"
                stroke="#ffffff"
                id="outline__Japan"
                stroke-width="2.5"
                d="M39.2 532.4L48.6 532.4L58.1 532.4L67.5 532.4L76.9 520.3L86.3 513.9L95.8 509.7L105.2 504L114.6 499.8L124 494.8L133.5 492.6L142.9 495.2L152.3 499.9L161.8 507.5L171.2 513.1L180.6 518.1L190 520.8L199.5 521.9L208.9 525.8L218.3 529.5L227.7 528.2L237.2 523.4L246.6 532.4L256 532.4L265.5 532.4L274.9 532.4L284.3 532.4L293.7 532.4L303.2 532.4L312.6 532.4L322 532.4L331.4 532.4L340.9 532.4L350.3 532.4L359.7 532.4L369.2 532.4L378.6 532.4L388 532.4L397.4 532.4L406.9 532.4L416.3 532.4L425.7 532.4L435.1 532.4L444.6 532.4L454 532.4L463.4 532.4L472.9 532.4L482.3 532.4L491.7 532.4L501.1 532.4L510.6 532.4L520 532.4L529.4 532.4L538.8 528.9L548.3 530.2L557.7 530.7L567.1 532.4L576.6 532.4L586 532.4L595.4 532.4L604.8 532.4L614.3 532.4L623.7 532.4L633.1 532.4L642.5 532.4L652 532.4L661.4 532.4L670.8 532.4L680.3 532.4L689.7 532.4L699.1 532.4L708.5 532.4L718 532.4L727.4 532.4"
            ></path>
            <path
                fill="none"
                stroke-linecap="butt"
                stroke-linejoin="round"
                stroke="#6d3e91"
                id="line__Japan"
                stroke-width="1.5"
                stroke-opacity="1"
                d="M39.2 532.4L48.6 532.4L58.1 532.4L67.5 532.4L76.9 520.3L86.3 513.9L95.8 509.7L105.2 504L114.6 499.8L124 494.8L133.5 492.6L142.9 495.2L152.3 499.9L161.8 507.5L171.2 513.1L180.6 518.1L190 520.8L199.5 521.9L208.9 525.8L218.3 529.5L227.7 528.2L237.2 523.4L246.6 532.4L256 532.4L265.5 532.4L274.9 532.4L284.3 532.4L293.7 532.4L303.2 532.4L312.6 532.4L322 532.4L331.4 532.4L340.9 532.4L350.3 532.4L359.7 532.4L369.2 532.4L378.6 532.4L388 532.4L397.4 532.4L406.9 532.4L416.3 532.4L425.7 532.4L435.1 532.4L444.6 532.4L454 532.4L463.4 532.4L472.9 532.4L482.3 532.4L491.7 532.4L501.1 532.4L510.6 532.4L520 532.4L529.4 532.4L538.8 528.9L548.3 530.2L557.7 530.7L567.1 532.4L576.6 532.4L586 532.4L595.4 532.4L604.8 532.4L614.3 532.4L623.7 532.4L633.1 532.4L642.5 532.4L652 532.4L661.4 532.4L670.8 532.4L680.3 532.4L689.7 532.4L699.1 532.4L708.5 532.4L718 532.4L727.4 532.4"
            ></path>
            <path
                fill="none"
                stroke-linecap="butt"
                stroke-linejoin="round"
                stroke="#ffffff"
                id="outline__Brazil"
                stroke-width="2.5"
                d="M39.2 402.4L48.6 402.6L58.1 402.9L67.5 403.3L76.9 403.5L86.3 401.8L95.8 401.5L105.2 400.7L114.6 399.8L124 398.9L133.5 398.7L142.9 398L152.3 398.5L161.8 399.6L171.2 400.9L180.6 399.3L190 399.1L199.5 398.2L208.9 400L218.3 404L227.7 407.3L237.2 417.8L246.6 423.9L256 435.2L265.5 441.1L274.9 448.2L284.3 456.5L293.7 461.1L303.2 466.8L312.6 469.7L322 475.7L331.4 479L340.9 481.8L350.3 482.7L359.7 484.5L369.2 485.3L378.6 487.8L388 488.4L397.4 491.7L406.9 493.2L416.3 495.5L425.7 498.3L435.1 502.1L444.6 506.5L454 510.8L463.4 514.4L472.9 517.7L482.3 520.5L491.7 523L501.1 524.5L510.6 526.3L520 527.4L529.4 528.7L538.8 530L548.3 531.5L557.7 532.4L567.1 532.4L576.6 532.4L586 532.4L595.4 532.4L604.8 532.4L614.3 532.4L623.7 532.4L633.1 532.4L642.5 532.4L652 532.4L661.4 532.4L670.8 532.4L680.3 532.4L689.7 532.4L699.1 532.4L708.5 532.4L718 532.4L727.4 532.4"
            ></path>
            <path
                fill="none"
                stroke-linecap="butt"
                stroke-linejoin="round"
                stroke="#4c6a9c"
                id="line__Brazil"
                stroke-width="1.5"
                stroke-opacity="1"
                d="M39.2 402.4L48.6 402.6L58.1 402.9L67.5 403.3L76.9 403.5L86.3 401.8L95.8 401.5L105.2 400.7L114.6 399.8L124 398.9L133.5 398.7L142.9 398L152.3 398.5L161.8 399.6L171.2 400.9L180.6 399.3L190 399.1L199.5 398.2L208.9 400L218.3 404L227.7 407.3L237.2 417.8L246.6 423.9L256 435.2L265.5 441.1L274.9 448.2L284.3 456.5L293.7 461.1L303.2 466.8L312.6 469.7L322 475.7L331.4 479L340.9 481.8L350.3 482.7L359.7 484.5L369.2 485.3L378.6 487.8L388 488.4L397.4 491.7L406.9 493.2L416.3 495.5L425.7 498.3L435.1 502.1L444.6 506.5L454 510.8L463.4 514.4L472.9 517.7L482.3 520.5L491.7 523L501.1 524.5L510.6 526.3L520 527.4L529.4 528.7L538.8 530L548.3 531.5L557.7 532.4L567.1 532.4L576.6 532.4L586 532.4L595.4 532.4L604.8 532.4L614.3 532.4L623.7 532.4L633.1 532.4L642.5 532.4L652 532.4L661.4 532.4L670.8 532.4L680.3 532.4L689.7 532.4L699.1 532.4L708.5 532.4L718 532.4L727.4 532.4"
            ></path>
            <path
                fill="none"
                stroke-linecap="butt"
                stroke-linejoin="round"
                stroke="#ffffff"
                id="outline__Nigeria"
                stroke-width="2.5"
                d="M39.2 189.9L48.6 193L58.1 195.8L67.5 195.4L76.9 192.8L86.3 190.1L95.8 188L105.2 191.9L114.6 196.7L124 202.2L133.5 208.8L142.9 215.4L152.3 221.4L161.8 223.6L171.2 222.7L180.6 220.1L190 215.4L199.5 210.2L208.9 204.9L218.3 210.6L227.7 212.8L237.2 213.2L246.6 216.3L256 219L265.5 222.7L274.9 219.2L284.3 212.1L293.7 202.2L303.2 189.5L312.6 179.1L322 172.6L331.4 171.9L340.9 177.8L350.3 185.5L359.7 176.7L369.2 166.4L378.6 155.6L388 152.7L397.4 148.3L406.9 155.4L416.3 156.1L425.7 153.2L435.1 152.3L444.6 146.8L454 138.2L463.4 141.7L472.9 128.6L482.3 123.7L491.7 139.6L501.1 152.8L510.6 161.8L520 165.7L529.4 161.3L538.8 161.6L548.3 149.5L557.7 142.9L567.1 127.2L576.6 105.4L586 104.6L595.4 116.4L604.8 112.1L614.3 126.8L623.7 138.9L633.1 149L642.5 165.3L652 178.9L661.4 198.1L670.8 212.4L680.3 227.5L689.7 244.3L699.1 257.9L708.5 273.9L718 295.1L727.4 308.2"
            ></path>
            <path
                fill="none"
                stroke-linecap="butt"
                stroke-linejoin="round"
                stroke="#883039"
                id="line__Nigeria"
                stroke-width="1.5"
                stroke-opacity="1"
                d="M39.2 189.9L48.6 193L58.1 195.8L67.5 195.4L76.9 192.8L86.3 190.1L95.8 188L105.2 191.9L114.6 196.7L124 202.2L133.5 208.8L142.9 215.4L152.3 221.4L161.8 223.6L171.2 222.7L180.6 220.1L190 215.4L199.5 210.2L208.9 204.9L218.3 210.6L227.7 212.8L237.2 213.2L246.6 216.3L256 219L265.5 222.7L274.9 219.2L284.3 212.1L293.7 202.2L303.2 189.5L312.6 179.1L322 172.6L331.4 171.9L340.9 177.8L350.3 185.5L359.7 176.7L369.2 166.4L378.6 155.6L388 152.7L397.4 148.3L406.9 155.4L416.3 156.1L425.7 153.2L435.1 152.3L444.6 146.8L454 138.2L463.4 141.7L472.9 128.6L482.3 123.7L491.7 139.6L501.1 152.8L510.6 161.8L520 165.7L529.4 161.3L538.8 161.6L548.3 149.5L557.7 142.9L567.1 127.2L576.6 105.4L586 104.6L595.4 116.4L604.8 112.1L614.3 126.8L623.7 138.9L633.1 149L642.5 165.3L652 178.9L661.4 198.1L670.8 212.4L680.3 227.5L689.7 244.3L699.1 257.9L708.5 273.9L718 295.1L727.4 308.2"
            ></path>
            <path
                fill="none"
                stroke-linecap="butt"
                stroke-linejoin="round"
                stroke="#ffffff"
                id="outline__Pakistan"
                stroke-width="2.5"
                d="M39.2 411.9L48.6 411.7L58.1 411.9L67.5 413.8L76.9 414.5L86.3 415.8L95.8 416.7L105.2 416.5L114.6 415.8L124 412.8L133.5 411.2L142.9 410.1L152.3 409.9L161.8 410.5L171.2 409.4L180.6 408.1L190 407.7L199.5 407.3L208.9 411.6L218.3 414.1L227.7 413.4L237.2 412.7L246.6 411.7L256 410.1L265.5 409.9L274.9 409.7L284.3 411L293.7 411.4L303.2 410.1L312.6 413.4L322 411.4L331.4 411.2L340.9 405.7L350.3 401.8L359.7 393.4L369.2 383.3L378.6 378.6L388 372L397.4 364.3L406.9 359.3L416.3 352.7L425.7 351.4L435.1 349.4L444.6 354.7L454 362.1L463.4 364.8L472.9 367.6L482.3 375.1L491.7 376L501.1 386.8L510.6 388.5L520 378L529.4 373.2L538.8 375.3L548.3 370.1L557.7 382.8L567.1 384.8L576.6 385.3L586 385L595.4 386.3L604.8 387.4L614.3 381.5L623.7 381.1L633.1 380.2L642.5 380.2L652 381.9L661.4 381.7L670.8 387.7L680.3 390.7L689.7 393.2L699.1 395.2L708.5 395.6L718 394.9L727.4 394.3"
            ></path>
            <path
                fill="none"
                stroke-linecap="butt"
                stroke-linejoin="round"
                stroke="#00295b"
                id="line__Pakistan"
                stroke-width="1.5"
                stroke-opacity="1"
                d="M39.2 411.9L48.6 411.7L58.1 411.9L67.5 413.8L76.9 414.5L86.3 415.8L95.8 416.7L105.2 416.5L114.6 415.8L124 412.8L133.5 411.2L142.9 410.1L152.3 409.9L161.8 410.5L171.2 409.4L180.6 408.1L190 407.7L199.5 407.3L208.9 411.6L218.3 414.1L227.7 413.4L237.2 412.7L246.6 411.7L256 410.1L265.5 409.9L274.9 409.7L284.3 411L293.7 411.4L303.2 410.1L312.6 413.4L322 411.4L331.4 411.2L340.9 405.7L350.3 401.8L359.7 393.4L369.2 383.3L378.6 378.6L388 372L397.4 364.3L406.9 359.3L416.3 352.7L425.7 351.4L435.1 349.4L444.6 354.7L454 362.1L463.4 364.8L472.9 367.6L482.3 375.1L491.7 376L501.1 386.8L510.6 388.5L520 378L529.4 373.2L538.8 375.3L548.3 370.1L557.7 382.8L567.1 384.8L576.6 385.3L586 385L595.4 386.3L604.8 387.4L614.3 381.5L623.7 381.1L633.1 380.2L642.5 380.2L652 381.9L661.4 381.7L670.8 387.7L680.3 390.7L689.7 393.2L699.1 395.2L708.5 395.6L718 394.9L727.4 394.3"
            ></path>
            <path
                fill="none"
                stroke-linecap="butt"
                stroke-linejoin="round"
                stroke="#ffffff"
                id="outline__Indonesia"
                stroke-width="2.5"
                d="M39.2 396.7L48.6 394.1L58.1 391.4L67.5 389L76.9 387.7L86.3 386.8L95.8 387.5L105.2 387L114.6 386.4L124 385.9L133.5 387.5L142.9 390.3L152.3 393.4L161.8 394.5L171.2 394.7L180.6 394.9L190 390.7L199.5 385.5L208.9 382.8L218.3 378.2L227.7 373.8L237.2 370.7L246.6 368.3L256 372L265.5 378.2L274.9 383L284.3 390.7L293.7 399.5L303.2 407.2L312.6 414.7L322 422.8L331.4 425.5L340.9 430.6L350.3 429.5L359.7 432.7L369.2 429.2L378.6 429.2L388 443.8L397.4 451.7L406.9 460.7L416.3 469.1L425.7 475.6L435.1 478.7L444.6 481.8L454 486.2L463.4 488L472.9 485.1L482.3 486.2L491.7 480.9L501.1 480.7L510.6 480.9L520 479L529.4 475.7L538.8 477.4L548.3 478.5L557.7 483.1L567.1 484.4L576.6 486L586 487.8L595.4 488.9L604.8 490.2L614.3 493.7L623.7 494.1L633.1 492.2L642.5 490.4L652 489.3L661.4 488.4L670.8 488L680.3 487.8L689.7 490.8L699.1 493.7L708.5 494.4L718 498.3L727.4 499"
            ></path>
            <path
                fill="none"
                stroke-linecap="butt"
                stroke-linejoin="round"
                stroke="#2c8465"
                id="line__Indonesia"
                stroke-width="1.5"
                stroke-opacity="1"
                d="M39.2 396.7L48.6 394.1L58.1 391.4L67.5 389L76.9 387.7L86.3 386.8L95.8 387.5L105.2 387L114.6 386.4L124 385.9L133.5 387.5L142.9 390.3L152.3 393.4L161.8 394.5L171.2 394.7L180.6 394.9L190 390.7L199.5 385.5L208.9 382.8L218.3 378.2L227.7 373.8L237.2 370.7L246.6 368.3L256 372L265.5 378.2L274.9 383L284.3 390.7L293.7 399.5L303.2 407.2L312.6 414.7L322 422.8L331.4 425.5L340.9 430.6L350.3 429.5L359.7 432.7L369.2 429.2L378.6 429.2L388 443.8L397.4 451.7L406.9 460.7L416.3 469.1L425.7 475.6L435.1 478.7L444.6 481.8L454 486.2L463.4 488L472.9 485.1L482.3 486.2L491.7 480.9L501.1 480.7L510.6 480.9L520 479L529.4 475.7L538.8 477.4L548.3 478.5L557.7 483.1L567.1 484.4L576.6 486L586 487.8L595.4 488.9L604.8 490.2L614.3 493.7L623.7 494.1L633.1 492.2L642.5 490.4L652 489.3L661.4 488.4L670.8 488L680.3 487.8L689.7 490.8L699.1 493.7L708.5 494.4L718 498.3L727.4 499"
            ></path>
            <path
                fill="none"
                stroke-linecap="butt"
                stroke-linejoin="round"
                stroke="#ffffff"
                id="outline__United-States"
                stroke-width="2.5"
                d="M39.2 527.4L48.6 526.3L58.1 524.9L67.5 525.4L76.9 524.5L86.3 522.5L95.8 522.1L105.2 521.8L114.6 518.5L124 517.5L133.5 518.3L142.9 518.5L152.3 516.3L161.8 515.5L171.2 532.4L180.6 532.4L190 532.4L199.5 532.4L208.9 532.4L218.3 532.4L227.7 532.4L237.2 532.4L246.6 532.4L256 532.4L265.5 532.4L274.9 532.4L284.3 532.4L293.7 532.4L303.2 532.4L312.6 532.4L322 532.4L331.4 532.4L340.9 532.4L350.3 532.4L359.7 532.4L369.2 532.4L378.6 532.4L388 532.4L397.4 532.4L406.9 532.4L416.3 532.4L425.7 532.4L435.1 532.4L444.6 532.4L454 532.4L463.4 532.4L472.9 532.4L482.3 532L491.7 531.7L501.1 531.3L510.6 530.9L520 530.6L529.4 530.6L538.8 530.6L548.3 530.9L557.7 531.1L567.1 530.9L576.6 530.7L586 530.6L595.4 530.6L604.8 530.4L614.3 530.2L623.7 530.2L633.1 529.8L642.5 529.6L652 529.3L661.4 529.5L670.8 529.5L680.3 529.5L689.7 529.3L699.1 528.9L708.5 529.5L718 530.6L727.4 529.6"
            ></path>
            <path
                fill="none"
                stroke-linecap="butt"
                stroke-linejoin="round"
                stroke="#a2559c"
                id="line__United-States"
                stroke-width="1.5"
                stroke-opacity="1"
                d="M39.2 527.4L48.6 526.3L58.1 524.9L67.5 525.4L76.9 524.5L86.3 522.5L95.8 522.1L105.2 521.8L114.6 518.5L124 517.5L133.5 518.3L142.9 518.5L152.3 516.3L161.8 515.5L171.2 532.4L180.6 532.4L190 532.4L199.5 532.4L208.9 532.4L218.3 532.4L227.7 532.4L237.2 532.4L246.6 532.4L256 532.4L265.5 532.4L274.9 532.4L284.3 532.4L293.7 532.4L303.2 532.4L312.6 532.4L322 532.4L331.4 532.4L340.9 532.4L350.3 532.4L359.7 532.4L369.2 532.4L378.6 532.4L388 532.4L397.4 532.4L406.9 532.4L416.3 532.4L425.7 532.4L435.1 532.4L444.6 532.4L454 532.4L463.4 532.4L472.9 532.4L482.3 532L491.7 531.7L501.1 531.3L510.6 530.9L520 530.6L529.4 530.6L538.8 530.6L548.3 530.9L557.7 531.1L567.1 530.9L576.6 530.7L586 530.6L595.4 530.6L604.8 530.4L614.3 530.2L623.7 530.2L633.1 529.8L642.5 529.6L652 529.3L661.4 529.5L670.8 529.5L680.3 529.5L689.7 529.3L699.1 528.9L708.5 529.5L718 530.6L727.4 529.6"
            ></path>
            <path
                fill="none"
                stroke-linecap="butt"
                stroke-linejoin="round"
                stroke="#ffffff"
                id="outline__India"
                stroke-width="2.5"
                d="M39.2 439.8L48.6 440.2L58.1 439.3L67.5 436.9L76.9 433L86.3 429.4L95.8 426.2L105.2 423.9L114.6 422.4L124 421.3L133.5 419.6L142.9 418.2L152.3 417.4L161.8 416.3L171.2 414.7L180.6 417.6L190 415.2L199.5 416.3L208.9 417.8L218.3 417.2L227.7 420L237.2 425.7L246.6 427.3L256 431.7L265.5 431.7L274.9 433.8L284.3 436.1L293.7 433.6L303.2 438.5L312.6 445.1L322 449.5L331.4 454.8L340.9 456.7L350.3 459.2L359.7 462L369.2 462.2L378.6 461.1L388 449.3L397.4 455L406.9 459.4L416.3 461.1L425.7 469.7L435.1 472.6L444.6 475.7L454 480L463.4 485.1L472.9 485.1L482.3 488.9L491.7 495.2L501.1 493.9L510.6 495.9L520 497.4L529.4 495.5L538.8 494.6L548.3 486.7L557.7 472.6L567.1 469.3L576.6 467.3L586 474.3L595.4 467.9L604.8 466.9L614.3 465.5L623.7 466L633.1 466.9L642.5 470.1L652 470.1L661.4 477L670.8 482.2L680.3 482.3L689.7 483.8L699.1 485.5L708.5 486.2L718 486.6L727.4 486.9"
            ></path>
            <path
                fill="none"
                stroke-linecap="butt"
                stroke-linejoin="round"
                stroke="#996d39"
                id="line__India"
                stroke-width="1.5"
                stroke-opacity="1"
                d="M39.2 439.8L48.6 440.2L58.1 439.3L67.5 436.9L76.9 433L86.3 429.4L95.8 426.2L105.2 423.9L114.6 422.4L124 421.3L133.5 419.6L142.9 418.2L152.3 417.4L161.8 416.3L171.2 414.7L180.6 417.6L190 415.2L199.5 416.3L208.9 417.8L218.3 417.2L227.7 420L237.2 425.7L246.6 427.3L256 431.7L265.5 431.7L274.9 433.8L284.3 436.1L293.7 433.6L303.2 438.5L312.6 445.1L322 449.5L331.4 454.8L340.9 456.7L350.3 459.2L359.7 462L369.2 462.2L378.6 461.1L388 449.3L397.4 455L406.9 459.4L416.3 461.1L425.7 469.7L435.1 472.6L444.6 475.7L454 480L463.4 485.1L472.9 485.1L482.3 488.9L491.7 495.2L501.1 493.9L510.6 495.9L520 497.4L529.4 495.5L538.8 494.6L548.3 486.7L557.7 472.6L567.1 469.3L576.6 467.3L586 474.3L595.4 467.9L604.8 466.9L614.3 465.5L623.7 466L633.1 466.9L642.5 470.1L652 470.1L661.4 477L670.8 482.2L680.3 482.3L689.7 483.8L699.1 485.5L708.5 486.2L718 486.6L727.4 486.9"
            ></path>
            <path
                fill="none"
                stroke-linecap="butt"
                stroke-linejoin="round"
                stroke="#ffffff"
                id="outline__China"
                stroke-width="2.5"
                d="M39.2 447.5L48.6 450.6L58.1 443.3L67.5 453L76.9 455L86.3 461.1L95.8 470.8L105.2 471.7L114.6 483.6L124 496.1L133.5 502.7L142.9 518.1L152.3 532.4L161.8 532.4L171.2 532.4L180.6 532.4L190 532.4L199.5 523.2L208.9 532.4L218.3 499L227.7 476.5L237.2 457L246.6 447.1L256 442.9L265.5 436.9L274.9 432.1L284.3 436L293.7 438.3L303.2 444.2L312.6 453L322 458.9L331.4 464.7L340.9 470.6L350.3 472.3L359.7 480L369.2 489.5L378.6 499.4L388 503.4L397.4 499.2L406.9 496.1L416.3 490.2L425.7 479.4L435.1 476.3L444.6 478.9L454 482.9L463.4 487.8L472.9 495.9L482.3 499.6L491.7 507.8L501.1 509.7L510.6 507.5L520 503.2L529.4 496.6L538.8 495.9L548.3 495.9L557.7 494.4L567.1 493.7L576.6 491.1L586 489.1L595.4 491.5L604.8 494.1L614.3 494.8L623.7 488.4L633.1 476.7L642.5 474.1L652 479.4L661.4 485.6L670.8 491L680.3 491.1L689.7 489.9L699.1 493.2L708.5 496.8L718 500.9L727.4 504.2"
            ></path>
            <path
                fill="none"
                stroke-linecap="butt"
                stroke-linejoin="round"
                stroke="#b13507"
                id="line__China"
                stroke-width="1.5"
                stroke-opacity="1"
                d="M39.2 447.5L48.6 450.6L58.1 443.3L67.5 453L76.9 455L86.3 461.1L95.8 470.8L105.2 471.7L114.6 483.6L124 496.1L133.5 502.7L142.9 518.1L152.3 532.4L161.8 532.4L171.2 532.4L180.6 532.4L190 532.4L199.5 523.2L208.9 532.4L218.3 499L227.7 476.5L237.2 457L246.6 447.1L256 442.9L265.5 436.9L274.9 432.1L284.3 436L293.7 438.3L303.2 444.2L312.6 453L322 458.9L331.4 464.7L340.9 470.6L350.3 472.3L359.7 480L369.2 489.5L378.6 499.4L388 503.4L397.4 499.2L406.9 496.1L416.3 490.2L425.7 479.4L435.1 476.3L444.6 478.9L454 482.9L463.4 487.8L472.9 495.9L482.3 499.6L491.7 507.8L501.1 509.7L510.6 507.5L520 503.2L529.4 496.6L538.8 495.9L548.3 495.9L557.7 494.4L567.1 493.7L576.6 491.1L586 489.1L595.4 491.5L604.8 494.1L614.3 494.8L623.7 488.4L633.1 476.7L642.5 474.1L652 479.4L661.4 485.6L670.8 491L680.3 491.1L689.7 489.9L699.1 493.2L708.5 496.8L718 500.9L727.4 504.2"
            ></path>
        </g>
    </g>
    <g id="footer" class="SourcesFooter" style="fill: #767676">
        <g id="sources" class="markdown-text-wrap">
            <text x="16.0" y="581.0" style="font-size: 13px; line-height: 1.2">
                <tspan x="16" y="581.0">
                    <tspan style="font-weight: 700">Data source:</tspan>
                    UN, World Population Prospects (2024)
                </tspan>
            </text>
        </g>
        <text id="origin-url" font-size="13.00" x="555.3" y="581.0">
            <tspan x="555.28" y="581.01">
                <a
                    style="fill: #767676"
                    href="https://ourworldindata.org/population-growth"
                >
                    OurWorldinData.org/population-growth
                </a>
                |
                <a
                    style="fill: #767676"
                    href="https://creativecommons.org/licenses/by/4.0/"
                >
                    CC BY
                </a>
            </tspan>
        </text>
    </g>
</svg>
