<svg
    xmlns="http://www.w3.org/2000/svg"
    version="1.1"
    style='font-family:Lato, &#x27;Helvetica Neue&#x27;, Helvetica, Arial, &#x27;Liberation Sans&#x27;, sans-serif;font-feature-settings:"liga", "kern", "calt", "lnum";text-rendering:geometricPrecision;-webkit-font-smoothing:antialiased;font-size:18px;background-color:#fff'
    width="850"
    height="600"
    viewBox="0 0 850 600"
>
    <defs>
        <style>
            @import url(https://ourworldindata.org/fonts.css);
        </style>
    </defs>
    <defs>
        <pattern
            id="noDataPattern"
            patternUnits="userSpaceOnUse"
            width="4"
            height="4"
            patternTransform="rotate(-45 2 2)"
        >
            <path d="M -1,2 l 6,0" stroke="#ccc" stroke-width="0.7"></path>
        </pattern>
    </defs>
    <g id="header" class="HeaderView">
        <g id="logo" transform="translate(769, 16) scale(1)">
            <svg
                className="owidLogo"
                xmlns="http://www.w3.org/2000/svg"
                width="65"
                height="36"
                viewBox="0 0 65 36"
                fill="none"
            >
                <path fill="#002147" d="M0 0h64.8v36H0z" />
                <path fill="#CE261E" d="M0 33.3h64.8V36H0z" />
                <path
                    fill="#fff"
                    d="M13.796 10.575c0 .636-.106 1.226-.318 1.77a4.193 4.193 0 0 1-.894 1.404 4.084 4.084 0 0 1-1.386.93c-.54.22-1.138.33-1.794.33-.656 0-1.256-.11-1.8-.33a4.149 4.149 0 0 1-1.392-.93 4.193 4.193 0 0 1-.894-1.404A4.833 4.833 0 0 1 5 10.575c0-.636.106-1.224.318-1.764a4.18 4.18 0 0 1 .894-1.41 4.076 4.076 0 0 1 1.392-.924 4.684 4.684 0 0 1 1.8-.336c.656 0 1.254.112 1.794.336.54.224 1.002.534 1.386.93.384.392.682.86.894 1.404.212.54.318 1.128.318 1.764Zm-1.656 0c0-.476-.064-.902-.192-1.278a2.671 2.671 0 0 0-.54-.966 2.332 2.332 0 0 0-.864-.606 2.94 2.94 0 0 0-1.14-.21c-.424 0-.806.07-1.146.21-.34.14-.63.342-.87.606a2.742 2.742 0 0 0-.546.966 3.955 3.955 0 0 0-.192 1.278c0 .476.064.904.192 1.284.128.376.31.696.546.96.24.26.53.46.87.6.34.14.722.21 1.146.21.424 0 .804-.07 1.14-.21.34-.14.628-.34.864-.6.236-.264.416-.584.54-.96a4.01 4.01 0 0 0 .192-1.284ZM16.104 8.757v3.912c0 .376.086.668.258.876.176.204.438.306.786.306.256 0 .496-.056.72-.168a2.58 2.58 0 0 0 .636-.474V8.757h1.482v6.156h-.906c-.192 0-.318-.09-.378-.27l-.102-.492a4.65 4.65 0 0 1-.396.354 2.577 2.577 0 0 1-.438.27 2.35 2.35 0 0 1-.498.168 2.345 2.345 0 0 1-.57.066c-.336 0-.634-.056-.894-.168a1.821 1.821 0 0 1-.648-.486 2.157 2.157 0 0 1-.402-.738 3.233 3.233 0 0 1-.132-.948V8.757h1.482ZM21.328 14.913V8.757h.87c.152 0 .258.028.318.084.06.056.1.152.12.288l.09.744c.22-.38.478-.68.774-.9.296-.22.628-.33.996-.33.304 0 .556.07.756.21l-.192 1.11c-.012.072-.038.124-.078.156a.278.278 0 0 1-.162.042 1.01 1.01 0 0 1-.246-.042 1.646 1.646 0 0 0-.414-.042c-.308 0-.572.086-.792.258-.22.168-.406.416-.558.744v3.834h-1.482ZM27.347 6.237h1.356a.57.57 0 0 1 .348.102c.096.064.16.152.192.264l1.476 5.19c.036.128.068.268.096.42.032.148.062.306.09.474a5.968 5.968 0 0 1 .228-.894l1.704-5.19a.575.575 0 0 1 .186-.252.543.543 0 0 1 .348-.114h.474a.57.57 0 0 1 .348.102.497.497 0 0 1 .192.264l1.692 5.19c.088.256.164.54.228.852.028-.156.056-.306.084-.45.032-.144.064-.278.096-.402l1.476-5.19c.028-.1.09-.186.186-.258a.563.563 0 0 1 .348-.108h1.266l-2.694 8.676h-1.458l-1.896-5.928-.078-.246a9.504 9.504 0 0 1-.072-.282c-.024.1-.05.194-.078.282-.024.088-.048.17-.072.246l-1.914 5.928H30.04l-2.694-8.676ZM42.771 8.661c.46 0 .876.074 1.248.222.376.148.696.358.96.63s.468.604.612.996c.144.392.216.83.216 1.314 0 .488-.072.928-.216 1.32a2.85 2.85 0 0 1-.612 1.002 2.653 2.653 0 0 1-.96.636 3.35 3.35 0 0 1-1.248.222c-.46 0-.878-.074-1.254-.222a2.712 2.712 0 0 1-.966-.636 2.922 2.922 0 0 1-.618-1.002 3.807 3.807 0 0 1-.216-1.32c0-.484.072-.922.216-1.314.148-.392.354-.724.618-.996.268-.272.59-.482.966-.63a3.397 3.397 0 0 1 1.254-.222Zm0 5.202c.512 0 .89-.172 1.134-.516.248-.344.372-.848.372-1.512s-.124-1.17-.372-1.518c-.244-.348-.622-.522-1.134-.522-.52 0-.904.176-1.152.528-.248.348-.372.852-.372 1.512s.124 1.164.372 1.512c.248.344.632.516 1.152.516ZM46.723 14.913V8.757h.87c.152 0 .258.028.318.084.06.056.1.152.12.288l.09.744c.22-.38.478-.68.774-.9.296-.22.628-.33.996-.33.304 0 .556.07.756.21l-.192 1.11c-.012.072-.038.124-.078.156a.278.278 0 0 1-.162.042 1.01 1.01 0 0 1-.246-.042 1.646 1.646 0 0 0-.414-.042c-.308 0-.572.086-.792.258-.22.168-.406.416-.558.744v3.834h-1.482ZM52.96 5.997v8.916h-1.482V5.997h1.482ZM58.732 14.913c-.192 0-.318-.09-.378-.27l-.12-.594a3.68 3.68 0 0 1-.402.39c-.14.116-.292.216-.456.3-.16.084-.334.148-.522.192a2.372 2.372 0 0 1-.6.072c-.336 0-.644-.07-.924-.21a2.098 2.098 0 0 1-.726-.606 3.033 3.033 0 0 1-.468-.99 5.072 5.072 0 0 1-.162-1.344c0-.456.062-.88.186-1.272s.302-.732.534-1.02c.232-.288.51-.512.834-.672a2.384 2.384 0 0 1 1.092-.246 2.103 2.103 0 0 1 1.536.606V5.997h1.482v8.916h-.906Zm-1.974-1.086c.308 0 .57-.064.786-.192.216-.128.42-.31.612-.546v-2.76a1.452 1.452 0 0 0-.552-.432 1.597 1.597 0 0 0-.636-.126c-.224 0-.428.042-.612.126a1.21 1.21 0 0 0-.462.384c-.124.168-.22.384-.288.648-.068.26-.102.568-.102.924 0 .36.028.666.084.918.06.248.144.452.252.612.108.156.24.27.396.342.156.068.33.102.522.102ZM16.331 20.757v6.156H14.85v-6.156h1.481Zm.223-1.794a.844.844 0 0 1-.078.36.963.963 0 0 1-.21.294.995.995 0 0 1-.3.204.963.963 0 0 1-.372.072.948.948 0 0 1-.367-.072 1.018 1.018 0 0 1-.498-.498.963.963 0 0 1 0-.732.995.995 0 0 1 .205-.3.929.929 0 0 1 .293-.198.899.899 0 0 1 .738 0 .912.912 0 0 1 .3.198.943.943 0 0 1 .288.672ZM17.771 26.913v-6.156h.906c.192 0 .318.09.378.27l.102.486a2.934 2.934 0 0 1 .828-.618c.156-.076.322-.134.498-.174.176-.04.368-.06.576-.06.336 0 .634.058.894.174.26.112.476.272.648.48.176.204.308.45.396.738.092.284.138.598.138.942v3.918h-1.482v-3.918c0-.376-.088-.666-.264-.87-.172-.208-.432-.312-.78-.312-.256 0-.496.058-.72.174a2.58 2.58 0 0 0-.636.474v4.452h-1.482ZM34.22 22.575c0 .636-.106 1.22-.318 1.752-.212.532-.51.99-.894 1.374a4 4 0 0 1-1.386.894 4.87 4.87 0 0 1-1.794.318h-3.312v-8.676h3.312a4.79 4.79 0 0 1 1.794.324 4 4 0 0 1 1.386.894c.384.38.682.836.894 1.368.212.532.318 1.116.318 1.752Zm-1.65 0c0-.476-.064-.902-.192-1.278a2.68 2.68 0 0 0-.546-.96 2.332 2.332 0 0 0-.864-.606 2.94 2.94 0 0 0-1.14-.21h-1.686v6.108h1.686c.424 0 .804-.07 1.14-.21.34-.14.628-.34.864-.6a2.75 2.75 0 0 0 .546-.96 4.01 4.01 0 0 0 .192-1.284ZM39.98 26.913h-.665c-.14 0-.25-.02-.33-.06-.08-.044-.14-.13-.18-.258l-.132-.438c-.156.14-.31.264-.462.372a2.804 2.804 0 0 1-.462.264c-.16.072-.33.126-.51.162-.18.036-.38.054-.6.054-.26 0-.5-.034-.72-.102a1.618 1.618 0 0 1-.57-.318 1.448 1.448 0 0 1-.366-.522 1.852 1.852 0 0 1-.132-.726c0-.232.06-.46.18-.684.124-.228.328-.432.612-.612.284-.184.662-.336 1.134-.456.472-.12 1.058-.188 1.758-.204v-.36c0-.412-.088-.716-.264-.912-.172-.2-.424-.3-.756-.3a1.837 1.837 0 0 0-1.02.276c-.116.068-.224.13-.324.186a.664.664 0 0 1-.33.084.429.429 0 0 1-.258-.078.614.614 0 0 1-.174-.192l-.27-.474c.708-.648 1.562-.972 2.562-.972.36 0 .68.06.96.18.284.116.524.28.72.492.196.208.344.458.444.75.104.292.156.612.156.96v3.888Zm-2.88-.924c.153 0 .293-.014.42-.042.129-.028.249-.07.36-.126.117-.056.227-.124.33-.204.109-.084.217-.182.325-.294v-1.038c-.432.02-.794.058-1.086.114-.288.052-.52.12-.696.204a.923.923 0 0 0-.378.294.664.664 0 0 0-.108.366c0 .26.076.446.228.558.156.112.358.168.606.168ZM43.22 27.01c-.532 0-.942-.15-1.23-.45-.288-.305-.432-.723-.432-1.255v-3.438h-.624a.31.31 0 0 1-.21-.078c-.056-.052-.084-.13-.084-.234v-.588l.99-.162.312-1.68a.302.302 0 0 1 .108-.186.365.365 0 0 1 .222-.066h.768v1.938h1.62v1.056h-1.62v3.336c0 .192.048.342.144.45a.488.488 0 0 0 .384.162c.092 0 .168-.01.228-.03.064-.024.118-.048.162-.072.048-.024.09-.046.126-.066a.194.194 0 0 1 .108-.036.16.16 0 0 1 .108.036c.028.02.058.052.09.096l.444.72c-.216.18-.464.316-.744.408a2.77 2.77 0 0 1-.87.138ZM50.423 26.913h-.666c-.14 0-.25-.02-.33-.06-.08-.044-.14-.13-.18-.258l-.132-.438c-.156.14-.31.264-.462.372a2.804 2.804 0 0 1-.462.264c-.16.072-.33.126-.51.162-.18.036-.38.054-.6.054-.26 0-.5-.034-.72-.102a1.618 1.618 0 0 1-.57-.318 1.448 1.448 0 0 1-.366-.522 1.852 1.852 0 0 1-.132-.726c0-.232.06-.46.18-.684.124-.228.328-.432.612-.612.284-.184.662-.336 1.134-.456.472-.12 1.058-.188 1.758-.204v-.36c0-.412-.088-.716-.264-.912-.172-.2-.424-.3-.756-.3a1.837 1.837 0 0 0-1.02.276c-.116.068-.224.13-.324.186a.664.664 0 0 1-.33.084.429.429 0 0 1-.258-.078.614.614 0 0 1-.174-.192l-.27-.474c.708-.648 1.562-.972 2.562-.972.36 0 .68.06.96.18.284.116.524.28.72.492.196.208.344.458.444.75.104.292.156.612.156.96v3.888Zm-2.88-.924c.152 0 .292-.014.42-.042.128-.028.248-.07.36-.126.116-.056.226-.124.33-.204.108-.084.216-.182.324-.294v-1.038c-.432.02-.794.058-1.086.114-.288.052-.52.12-.696.204a.923.923 0 0 0-.378.294.664.664 0 0 0-.108.366c0 .26.076.446.228.558.156.112.358.168.606.168Z"
                />
            </svg>
        </g>
        <a
            id="title"
            href="https://ourworldindata.org/explorers/population-and-demography?indicator=Annual+population+change&amp;Sex=Male&amp;Age=5%E2%80%939+years&amp;Projection+scenario=High&amp;country=CHN~IND~USA~IDN~PAK~NGA~BRA~JPN"
            style="font-family:&#x27;Playfair Display&#x27;, Georgia, &#x27;Times New Roman&#x27;, &#x27;Liberation Serif&#x27;, serif"
        >
            <text
                font-size="25.00"
                font-weight="600"
                x="16.0"
                y="40.3"
                fill="#2d2e2d"
            >
                <tspan x="16" y="40.25">
                    Annual change in the number of boys aged 5 to 9
                </tspan>
            </text>
        </a>
        <g id="subtitle" class="markdown-text-wrap">
            <text
                x="16.0"
                y="66.5"
                style="font-size: 15px; line-height: 1.2"
                fill="#5b5b5b"
            >
                <tspan x="16" y="66.5">
                    Future projections are based on the
                    <tspan class="dod-span" data-id="un-projection-scenarios">
                        UN&#x27;s high scenario
                    </tspan>
                    .
                </tspan>
            </text>
        </g>
    </g>
    <g id="chart-area" style="pointer-events: none">
        <g id="horizontal-axis" class="HorizontalAxis">
            <g id="tick-marks">
                <line
                    id="1951"
                    x1="74.6"
                    y1="531.9"
                    x2="74.6"
                    y2="537.4"
                    stroke="#999"
                    stroke-width="1"
                ></line>
                <line
                    id="2100"
                    x1="727.4"
                    y1="531.9"
                    x2="727.4"
                    y2="537.4"
                    stroke="#999"
                    stroke-width="1"
                ></line>
                <line
                    id="1980"
                    x1="201.6"
                    y1="531.9"
                    x2="201.6"
                    y2="537.4"
                    stroke="#999"
                    stroke-width="1"
                ></line>
                <line
                    id="2000"
                    x1="289.2"
                    y1="531.9"
                    x2="289.2"
                    y2="537.4"
                    stroke="#999"
                    stroke-width="1"
                ></line>
                <line
                    id="2020"
                    x1="376.9"
                    y1="531.9"
                    x2="376.9"
                    y2="537.4"
                    stroke="#999"
                    stroke-width="1"
                ></line>
                <line
                    id="2040"
                    x1="464.5"
                    y1="531.9"
                    x2="464.5"
                    y2="537.4"
                    stroke="#999"
                    stroke-width="1"
                ></line>
                <line
                    id="2060"
                    x1="552.1"
                    y1="531.9"
                    x2="552.1"
                    y2="537.4"
                    stroke="#999"
                    stroke-width="1"
                ></line>
                <line
                    id="2080"
                    x1="639.8"
                    y1="531.9"
                    x2="639.8"
                    y2="537.4"
                    stroke="#999"
                    stroke-width="1"
                ></line>
            </g>
            <g id="tick-labels">
                <text
                    x="74.56"
                    y="550.4"
                    fill="#5b5b5b"
                    text-anchor="start"
                    font-size="13"
                >
                    1951
                </text>
                <text
                    x="727.3899999999999"
                    y="550.4"
                    fill="#5b5b5b"
                    text-anchor="end"
                    font-size="13"
                >
                    2100
                </text>
                <text
                    x="201.6"
                    y="550.4"
                    fill="#5b5b5b"
                    text-anchor="middle"
                    font-size="13"
                >
                    1980
                </text>
                <text
                    x="289.2"
                    y="550.4"
                    fill="#5b5b5b"
                    text-anchor="middle"
                    font-size="13"
                >
                    2000
                </text>
                <text
                    x="376.9"
                    y="550.4"
                    fill="#5b5b5b"
                    text-anchor="middle"
                    font-size="13"
                >
                    2020
                </text>
                <text
                    x="464.5"
                    y="550.4"
                    fill="#5b5b5b"
                    text-anchor="middle"
                    font-size="13"
                >
                    2040
                </text>
                <text
                    x="552.1"
                    y="550.4"
                    fill="#5b5b5b"
                    text-anchor="middle"
                    font-size="13"
                >
                    2060
                </text>
                <text
                    x="639.8"
                    y="550.4"
                    fill="#5b5b5b"
                    text-anchor="middle"
                    font-size="13"
                >
                    2080
                </text>
            </g>
        </g>
        <g id="vertical-axis" class="VerticalAxis">
            <g id="tick-labels">
                <text
                    x="69.56"
                    y="513.1"
                    dy=".32em"
                    text-anchor="end"
                    fill="#5b5b5b"
                    font-size="13"
                >
                    -4 million
                </text>
                <text
                    x="69.56"
                    y="428.9"
                    dy=".32em"
                    text-anchor="end"
                    fill="#5b5b5b"
                    font-size="13"
                >
                    -2 million
                </text>
                <text
                    x="69.56"
                    y="344.6"
                    dy=".32em"
                    text-anchor="end"
                    fill="#5b5b5b"
                    font-size="13"
                >
                    0
                </text>
                <text
                    x="69.56"
                    y="260.4"
                    dy=".32em"
                    text-anchor="end"
                    fill="#5b5b5b"
                    font-size="13"
                >
                    2 million
                </text>
                <text
                    x="69.56"
                    y="176.2"
                    dy=".32em"
                    text-anchor="end"
                    fill="#5b5b5b"
                    font-size="13"
                >
                    4 million
                </text>
                <text
                    x="69.56"
                    y="92"
                    dy=".32em"
                    text-anchor="end"
                    fill="#5b5b5b"
                    font-size="13"
                >
                    6 million
                </text>
            </g>
        </g>
        <g id="horizontal-grid-lines" class="AxisGridLines horizontalLines">
            <line
                id="-4-million"
                x1="74.56"
                y1="513.1"
                x2="727.39"
                y2="513.1"
                stroke="#ddd"
                stroke-dasharray="4,4"
            ></line>
            <line
                id="-2-million"
                x1="74.56"
                y1="428.9"
                x2="727.39"
                y2="428.9"
                stroke="#ddd"
                stroke-dasharray="4,4"
            ></line>
            <line
                id="0"
                class="zero-line"
                x1="74.56"
                y1="344.6"
                x2="727.39"
                y2="344.6"
                stroke="#999"
            ></line>
            <line
                id="2-million"
                x1="74.56"
                y1="260.4"
                x2="727.39"
                y2="260.4"
                stroke="#ddd"
                stroke-dasharray="4,4"
            ></line>
            <line
                id="4-million"
                x1="74.56"
                y1="176.2"
                x2="727.39"
                y2="176.2"
                stroke="#ddd"
                stroke-dasharray="4,4"
            ></line>
            <line
                id="6-million"
                x1="74.56"
                y1="92"
                x2="727.39"
                y2="92"
                stroke="#ddd"
                stroke-dasharray="4,4"
            ></line>
        </g>
        <g id="vertical-labels" transform="translate(727.39, 0)">
            <g id="connectors" style="pointer-events: none">
                <path
                    id="United-States"
                    d="M4,337.9 H7.4 V277.76249999999993 H21"
                    stroke="#999"
                    stroke-width="0.5"
                    fill="none"
                ></path>
                <path
                    id="India"
                    d="M4,338.5 H10.8 V296.06249999999994 H21"
                    stroke="#999"
                    stroke-width="0.5"
                    fill="none"
                ></path>
                <path
                    id="Pakistan"
                    d="M4,339.6 H14.2 V314.36249999999995 H21"
                    stroke="#999"
                    stroke-width="0.5"
                    fill="none"
                ></path>
                <path
                    id="Nigeria"
                    d="M4,341.2 H17.6 V332.66249999999997 H21"
                    stroke="#999"
                    stroke-width="0.5"
                    fill="none"
                ></path>
                <path
                    id="Indonesia"
                    d="M4,342.3 H17.6 V350.9625 H21"
                    stroke="#999"
                    stroke-width="0.5"
                    fill="none"
                ></path>
                <path
                    id="Brazil"
                    d="M4,344 H14.2 V369.2625 H21"
                    stroke="#999"
                    stroke-width="0.5"
                    fill="none"
                ></path>
                <path
                    id="Japan"
                    d="M4,344.1 H10.8 V387.5625 H21"
                    stroke="#999"
                    stroke-width="0.5"
                    fill="none"
                ></path>
                <path
                    id="China"
                    d="M4,346.9 H7.4 V405.8625 H21"
                    stroke="#999"
                    stroke-width="0.5"
                    fill="none"
                ></path>
            </g>
            <g id="text-labels" style="pointer-events: none">
                <text
                    id="label__United-States"
                    x="25.0"
                    y="282.6"
                    text-anchor="start"
                    font-size="13.00"
                    opacity="1"
                >
                    <tspan x="25.0" font-weight="400" fill="#a2559c">
                        United States
                    </tspan>
                </text>
                <text
                    id="label__India"
                    x="25.0"
                    y="300.9"
                    text-anchor="start"
                    font-size="13.00"
                    opacity="1"
                >
                    <tspan x="25.0" font-weight="400" fill="#996d39">
                        India
                    </tspan>
                </text>
                <text
                    id="label__Pakistan"
                    x="25.0"
                    y="319.2"
                    text-anchor="start"
                    font-size="13.00"
                    opacity="1"
                >
                    <tspan x="25.0" font-weight="400" fill="#00295b">
                        Pakistan
                    </tspan>
                </text>
                <text
                    id="label__Nigeria"
                    x="25.0"
                    y="337.5"
                    text-anchor="start"
                    font-size="13.00"
                    opacity="1"
                >
                    <tspan x="25.0" font-weight="400" fill="#883039">
                        Nigeria
                    </tspan>
                </text>
                <text
                    id="label__Indonesia"
                    x="25.0"
                    y="355.8"
                    text-anchor="start"
                    font-size="13.00"
                    opacity="1"
                >
                    <tspan x="25.0" font-weight="400" fill="#2c8465">
                        Indonesia
                    </tspan>
                </text>
                <text
                    id="label__Brazil"
                    x="25.0"
                    y="374.1"
                    text-anchor="start"
                    font-size="13.00"
                    opacity="1"
                >
                    <tspan x="25.0" font-weight="400" fill="#4c6a9c">
                        Brazil
                    </tspan>
                </text>
                <text
                    id="label__Japan"
                    x="25.0"
                    y="392.4"
                    text-anchor="start"
                    font-size="13.00"
                    opacity="1"
                >
                    <tspan x="25.0" font-weight="400" fill="#6d3e91">
                        Japan
                    </tspan>
                </text>
                <text
                    id="label__China"
                    x="25.0"
                    y="410.7"
                    text-anchor="start"
                    font-size="13.00"
                    opacity="1"
                >
                    <tspan x="25.0" font-weight="400" fill="#b13507">
                        China
                    </tspan>
                </text>
            </g>
        </g>
        <g id="lines">
            <path
                fill="none"
                stroke-linecap="butt"
                stroke-linejoin="round"
                stroke="#fff"
                id="outline__Japan"
                stroke-width="2.5"
                d="M74.6 345.3L78.9 334.9L83.3 333.5L87.7 333.2L92.1 331.7L96.5 341.6L100.8 354.6L105.2 358.8L109.6 358.7L114 356.3L118.4 354.7L122.8 353.3L127.1 350.6L131.5 347.1L135.9 346.4L140.3 345.5L144.7 343.7L149 343.7L153.4 343.7L157.8 342.2L162.2 345.6L166.6 344.8L171 339.9L175.3 339.9L179.7 339.4L184.1 334.3L188.5 333.9L192.9 337.6L197.2 338.4L201.6 342.5L206 347.3L210.4 350.9L214.8 353.7L219.1 354.9L223.5 353.9L227.9 352.4L232.3 351.2L236.7 350L241.1 349L245.4 348.5L249.8 348.2L254.2 347.9L258.6 348.3L263 349L267.3 349.1L271.7 348.4L276.1 347.6L280.5 347.2L284.9 346L289.2 345L293.6 344.9L298 344.7L302.4 344.3L306.8 344.5L311.2 344.5L315.5 344.3L319.9 344.9L324.3 345.4L328.7 345.9L333.1 346.6L337.4 346.8L341.8 346.3L346.2 345.9L350.6 345.6L355 345.2L359.4 344.9L363.7 345.2L368.1 345.5L372.5 345.7L376.9 346L381.3 346.5L385.6 346.9L390 347.3"
            ></path>
            <path
                fill="none"
                stroke-linecap="butt"
                stroke-linejoin="round"
                stroke="#6d3e91"
                id="line__Japan"
                stroke-width="1.5"
                stroke-opacity="1"
                d="M74.6 345.3L78.9 334.9L83.3 333.5L87.7 333.2L92.1 331.7L96.5 341.6L100.8 354.6L105.2 358.8L109.6 358.7L114 356.3L118.4 354.7L122.8 353.3L127.1 350.6L131.5 347.1L135.9 346.4L140.3 345.5L144.7 343.7L149 343.7L153.4 343.7L157.8 342.2L162.2 345.6L166.6 344.8L171 339.9L175.3 339.9L179.7 339.4L184.1 334.3L188.5 333.9L192.9 337.6L197.2 338.4L201.6 342.5L206 347.3L210.4 350.9L214.8 353.7L219.1 354.9L223.5 353.9L227.9 352.4L232.3 351.2L236.7 350L241.1 349L245.4 348.5L249.8 348.2L254.2 347.9L258.6 348.3L263 349L267.3 349.1L271.7 348.4L276.1 347.6L280.5 347.2L284.9 346L289.2 345L293.6 344.9L298 344.7L302.4 344.3L306.8 344.5L311.2 344.5L315.5 344.3L319.9 344.9L324.3 345.4L328.7 345.9L333.1 346.6L337.4 346.8L341.8 346.3L346.2 345.9L350.6 345.6L355 345.2L359.4 344.9L363.7 345.2L368.1 345.5L372.5 345.7L376.9 346L381.3 346.5L385.6 346.9L390 347.3"
            ></path>
            <path
                fill="none"
                stroke-linecap="butt"
                stroke-linejoin="round"
                stroke="#fff"
                id="outline__Japan"
                stroke-width="2.5"
                d="M394.4 347.6L398.8 348L403.2 348.2L407.5 348L411.9 347.9L416.3 345.8L420.7 343.5L425.1 343L429.5 342.5L433.8 341.9L438.2 342.2L442.6 342.8L447 342.7L451.4 342.5L455.7 342.4L460.1 342.6L464.5 342.9L468.9 342.8L473.3 342.8L477.6 342.8L482 343.5L486.4 344.2L490.8 344.4L495.2 344.5L499.6 344.7L503.9 344.9L508.3 345.1L512.7 345.2L517.1 345.4L521.5 345.6L525.8 345.7L530.2 345.8L534.6 345.9L539 345.9L543.4 345.8L547.8 345.7L552.1 345.5L556.5 345.3L560.9 345L565.3 344.7L569.7 344.4L574 344.2L578.4 343.9L582.8 343.6L587.2 343.4L591.6 343.3L595.9 343.2L600.3 343.1L604.7 343.1L609.1 343.1L613.5 343.2L617.9 343.3L622.2 343.4L626.6 343.6L631 343.8L635.4 344L639.8 344.2L644.1 344.3L648.5 344.5L652.9 344.7L657.3 344.9L661.7 345L666.1 345.2L670.4 345.2L674.8 345.3L679.2 345.3L683.6 345.3L688 345.3L692.3 345.2L696.7 345.1L701.1 345L705.5 344.9L709.9 344.7L714.2 344.6L718.6 344.4L723 344.3L727.4 344.1"
            ></path>
            <path
                fill="none"
                stroke-linecap="butt"
                stroke-linejoin="round"
                stroke="#6d3e91"
                id="line__Japan"
                stroke-width="1.5"
                stroke-opacity="1"
                stroke-dasharray="2,3"
                d="M394.4 347.6L398.8 348L403.2 348.2L407.5 348L411.9 347.9L416.3 345.8L420.7 343.5L425.1 343L429.5 342.5L433.8 341.9L438.2 342.2L442.6 342.8L447 342.7L451.4 342.5L455.7 342.4L460.1 342.6L464.5 342.9L468.9 342.8L473.3 342.8L477.6 342.8L482 343.5L486.4 344.2L490.8 344.4L495.2 344.5L499.6 344.7L503.9 344.9L508.3 345.1L512.7 345.2L517.1 345.4L521.5 345.6L525.8 345.7L530.2 345.8L534.6 345.9L539 345.9L543.4 345.8L547.8 345.7L552.1 345.5L556.5 345.3L560.9 345L565.3 344.7L569.7 344.4L574 344.2L578.4 343.9L582.8 343.6L587.2 343.4L591.6 343.3L595.9 343.2L600.3 343.1L604.7 343.1L609.1 343.1L613.5 343.2L617.9 343.3L622.2 343.4L626.6 343.6L631 343.8L635.4 344L639.8 344.2L644.1 344.3L648.5 344.5L652.9 344.7L657.3 344.9L661.7 345L666.1 345.2L670.4 345.2L674.8 345.3L679.2 345.3L683.6 345.3L688 345.3L692.3 345.2L696.7 345.1L701.1 345L705.5 344.9L709.9 344.7L714.2 344.6L718.6 344.4L723 344.3L727.4 344.1"
            ></path>
            <path
                fill="none"
                stroke-linecap="butt"
                stroke-linejoin="round"
                stroke="#fff"
                id="outline__Brazil"
                stroke-width="2.5"
                d="M74.6 340.9L78.9 340.5L83.3 339.3L87.7 337.9L92.1 336.9L96.5 336.3L100.8 336L105.2 336.4L109.6 337.2L114 337.5L118.4 337.2L122.8 337.2L127.1 337.1L131.5 337.1L135.9 337.2L140.3 337.4L144.7 337.7L149 338.1L153.4 338.8L157.8 339.8L162.2 340.9L166.6 342.2L171 343.4L175.3 343.8L179.7 343.4L184.1 342.4L188.5 341.2L192.9 340L197.2 339.3L201.6 339L206 338.5L210.4 338L214.8 337.6L219.1 337.1L223.5 336.7L227.9 337L232.3 337.6L236.7 338.6L241.1 340L245.4 341.6L249.8 343.2L254.2 344.8L258.6 346.4L263 347.3L267.3 348.1L271.7 348.6L276.1 348.7L280.5 348.1L284.9 347.2L289.2 346L293.6 344.9L298 344L302.4 343.5L306.8 344.1L311.2 345.6L315.5 347.3L319.9 348.9L324.3 350.7L328.7 351.3L333.1 350.5L337.4 349.9L341.8 349.5L346.2 348.9L350.6 348.7L355 348.6L359.4 348.1L363.7 347.2L368.1 346.4L372.5 345.4L376.9 344.8L381.3 345.4L385.6 345.9L390 345.6"
            ></path>
            <path
                fill="none"
                stroke-linecap="butt"
                stroke-linejoin="round"
                stroke="#4c6a9c"
                id="line__Brazil"
                stroke-width="1.5"
                stroke-opacity="1"
                d="M74.6 340.9L78.9 340.5L83.3 339.3L87.7 337.9L92.1 336.9L96.5 336.3L100.8 336L105.2 336.4L109.6 337.2L114 337.5L118.4 337.2L122.8 337.2L127.1 337.1L131.5 337.1L135.9 337.2L140.3 337.4L144.7 337.7L149 338.1L153.4 338.8L157.8 339.8L162.2 340.9L166.6 342.2L171 343.4L175.3 343.8L179.7 343.4L184.1 342.4L188.5 341.2L192.9 340L197.2 339.3L201.6 339L206 338.5L210.4 338L214.8 337.6L219.1 337.1L223.5 336.7L227.9 337L232.3 337.6L236.7 338.6L241.1 340L245.4 341.6L249.8 343.2L254.2 344.8L258.6 346.4L263 347.3L267.3 348.1L271.7 348.6L276.1 348.7L280.5 348.1L284.9 347.2L289.2 346L293.6 344.9L298 344L302.4 343.5L306.8 344.1L311.2 345.6L315.5 347.3L319.9 348.9L324.3 350.7L328.7 351.3L333.1 350.5L337.4 349.9L341.8 349.5L346.2 348.9L350.6 348.7L355 348.6L359.4 348.1L363.7 347.2L368.1 346.4L372.5 345.4L376.9 344.8L381.3 345.4L385.6 345.9L390 345.6"
            ></path>
            <path
                fill="none"
                stroke-linecap="butt"
                stroke-linejoin="round"
                stroke="#fff"
                id="outline__Brazil"
                stroke-width="2.5"
                d="M394.4 346.7L398.8 349L403.2 349.6L407.5 349.6L411.9 350.5L416.3 346.1L420.7 340.7L425.1 340L429.5 340L433.8 339.8L438.2 341.5L442.6 343L447 342.7L451.4 342.5L455.7 342.3L460.1 343.1L464.5 343.9L468.9 343.9L473.3 343.8L477.6 343.8L482 345.4L486.4 346.9L490.8 346.9L495.2 346.8L499.6 346.8L503.9 346.7L508.3 346.6L512.7 346.4L517.1 346.1L521.5 345.9L525.8 345.7L530.2 345.5L534.6 345.2L539 345L543.4 344.8L547.8 344.6L552.1 344.4L556.5 344.2L560.9 344.1L565.3 344L569.7 343.8L574 343.7L578.4 343.6L582.8 343.6L587.2 343.5L591.6 343.5L595.9 343.6L600.3 343.8L604.7 343.9L609.1 344.2L613.5 344.4L617.9 344.7L622.2 344.9L626.6 345L631 345.1L635.4 345.3L639.8 345.3L644.1 345.4L648.5 345.4L652.9 345.5L657.3 345.5L661.7 345.5L666.1 345.5L670.4 345.3L674.8 345.1L679.2 344.9L683.6 344.7L688 344.6L692.3 344.5L696.7 344.4L701.1 344.2L705.5 344.1L709.9 344L714.2 343.9L718.6 343.8L723 343.9L727.4 344"
            ></path>
            <path
                fill="none"
                stroke-linecap="butt"
                stroke-linejoin="round"
                stroke="#4c6a9c"
                id="line__Brazil"
                stroke-width="1.5"
                stroke-opacity="1"
                stroke-dasharray="2,3"
                d="M394.4 346.7L398.8 349L403.2 349.6L407.5 349.6L411.9 350.5L416.3 346.1L420.7 340.7L425.1 340L429.5 340L433.8 339.8L438.2 341.5L442.6 343L447 342.7L451.4 342.5L455.7 342.3L460.1 343.1L464.5 343.9L468.9 343.9L473.3 343.8L477.6 343.8L482 345.4L486.4 346.9L490.8 346.9L495.2 346.8L499.6 346.8L503.9 346.7L508.3 346.6L512.7 346.4L517.1 346.1L521.5 345.9L525.8 345.7L530.2 345.5L534.6 345.2L539 345L543.4 344.8L547.8 344.6L552.1 344.4L556.5 344.2L560.9 344.1L565.3 344L569.7 343.8L574 343.7L578.4 343.6L582.8 343.6L587.2 343.5L591.6 343.5L595.9 343.6L600.3 343.8L604.7 343.9L609.1 344.2L613.5 344.4L617.9 344.7L622.2 344.9L626.6 345L631 345.1L635.4 345.3L639.8 345.3L644.1 345.4L648.5 345.4L652.9 345.5L657.3 345.5L661.7 345.5L666.1 345.5L670.4 345.3L674.8 345.1L679.2 344.9L683.6 344.7L688 344.6L692.3 344.5L696.7 344.4L701.1 344.2L705.5 344.1L709.9 344L714.2 343.9L718.6 343.8L723 343.9L727.4 344"
            ></path>
            <path
                fill="none"
                stroke-linecap="butt"
                stroke-linejoin="round"
                stroke="#fff"
                id="outline__Nigeria"
                stroke-width="2.5"
                d="M74.6 342.4L78.9 342.8L83.3 344L87.7 345L92.1 344.8L96.5 344.3L100.8 343.8L105.2 342.7L109.6 341.6L114 341.6L118.4 341.7L122.8 341.5L127.1 341.4L131.5 341.3L135.9 341.2L140.3 341.1L144.7 340.9L149 340.7L153.4 340.4L157.8 340.2L162.2 340L166.6 339.7L171 339.4L175.3 339L179.7 338.7L184.1 338.2L188.5 337.6L192.9 337.1L197.2 336.4L201.6 335.4L206 334.8L210.4 334.5L214.8 334.9L219.1 335.3L223.5 335.4L227.9 336.2L232.3 336.7L236.7 337.2L241.1 337.8L245.4 338.4L249.8 338.9L254.2 339.3L258.6 339.4L263 338.7L267.3 337.8L271.7 337L276.1 336.2L280.5 335.5L284.9 335.2L289.2 334.5L293.6 333.8L298 333.5L302.4 333.4L306.8 332.7L311.2 331.3L315.5 330.1L319.9 329L324.3 327.9L328.7 327.6L333.1 328.2L337.4 328.6L341.8 328.7L346.2 328.7L350.6 328.6L355 329L359.4 329.5L363.7 330.2L368.1 331.8L372.5 333.2L376.9 334.6L381.3 337.2L385.6 339.8L390 341.6"
            ></path>
            <path
                fill="none"
                stroke-linecap="butt"
                stroke-linejoin="round"
                stroke="#883039"
                id="line__Nigeria"
                stroke-width="1.5"
                stroke-opacity="1"
                d="M74.6 342.4L78.9 342.8L83.3 344L87.7 345L92.1 344.8L96.5 344.3L100.8 343.8L105.2 342.7L109.6 341.6L114 341.6L118.4 341.7L122.8 341.5L127.1 341.4L131.5 341.3L135.9 341.2L140.3 341.1L144.7 340.9L149 340.7L153.4 340.4L157.8 340.2L162.2 340L166.6 339.7L171 339.4L175.3 339L179.7 338.7L184.1 338.2L188.5 337.6L192.9 337.1L197.2 336.4L201.6 335.4L206 334.8L210.4 334.5L214.8 334.9L219.1 335.3L223.5 335.4L227.9 336.2L232.3 336.7L236.7 337.2L241.1 337.8L245.4 338.4L249.8 338.9L254.2 339.3L258.6 339.4L263 338.7L267.3 337.8L271.7 337L276.1 336.2L280.5 335.5L284.9 335.2L289.2 334.5L293.6 333.8L298 333.5L302.4 333.4L306.8 332.7L311.2 331.3L315.5 330.1L319.9 329L324.3 327.9L328.7 327.6L333.1 328.2L337.4 328.6L341.8 328.7L346.2 328.7L350.6 328.6L355 329L359.4 329.5L363.7 330.2L368.1 331.8L372.5 333.2L376.9 334.6L381.3 337.2L385.6 339.8L390 341.6"
            ></path>
            <path
                fill="none"
                stroke-linecap="butt"
                stroke-linejoin="round"
                stroke="#fff"
                id="outline__Nigeria"
                stroke-width="2.5"
                d="M394.4 343.8L398.8 345.6L403.2 344.7L407.5 342.2L411.9 340L416.3 333.9L420.7 327.8L425.1 327.1L429.5 327.7L433.8 328.2L438.2 329.3L442.6 330.4L447 330.6L451.4 330.5L455.7 330.6L460.1 331.6L464.5 332.5L468.9 332.9L473.3 333.5L477.6 334.1L482 336.7L486.4 339.5L490.8 340.3L495.2 340.9L499.6 341.2L503.9 341.4L508.3 341.4L512.7 341.1L517.1 340.6L521.5 340.3L525.8 339.9L530.2 339.3L534.6 338.8L539 338.2L543.4 337.7L547.8 337.4L552.1 337.2L556.5 336.9L560.9 336.8L565.3 336.9L569.7 336.7L574 336.8L578.4 337.1L582.8 337.6L587.2 338.2L591.6 338.9L595.9 339.5L600.3 340L604.7 340.2L609.1 340.4L613.5 340.6L617.9 340.9L622.2 341.1L626.6 341.3L631 341.4L635.4 341.4L639.8 341.4L644.1 341.3L648.5 341.3L652.9 341.2L657.3 341L661.7 340.8L666.1 340.7L670.4 340.4L674.8 340.2L679.2 340.2L683.6 340.1L688 340.1L692.3 340.2L696.7 340.2L701.1 340.3L705.5 340.4L709.9 340.5L714.2 340.7L718.6 341L723 341.1L727.4 341.2"
            ></path>
            <path
                fill="none"
                stroke-linecap="butt"
                stroke-linejoin="round"
                stroke="#883039"
                id="line__Nigeria"
                stroke-width="1.5"
                stroke-opacity="1"
                stroke-dasharray="2,3"
                d="M394.4 343.8L398.8 345.6L403.2 344.7L407.5 342.2L411.9 340L416.3 333.9L420.7 327.8L425.1 327.1L429.5 327.7L433.8 328.2L438.2 329.3L442.6 330.4L447 330.6L451.4 330.5L455.7 330.6L460.1 331.6L464.5 332.5L468.9 332.9L473.3 333.5L477.6 334.1L482 336.7L486.4 339.5L490.8 340.3L495.2 340.9L499.6 341.2L503.9 341.4L508.3 341.4L512.7 341.1L517.1 340.6L521.5 340.3L525.8 339.9L530.2 339.3L534.6 338.8L539 338.2L543.4 337.7L547.8 337.4L552.1 337.2L556.5 336.9L560.9 336.8L565.3 336.9L569.7 336.7L574 336.8L578.4 337.1L582.8 337.6L587.2 338.2L591.6 338.9L595.9 339.5L600.3 340L604.7 340.2L609.1 340.4L613.5 340.6L617.9 340.9L622.2 341.1L626.6 341.3L631 341.4L635.4 341.4L639.8 341.4L644.1 341.3L648.5 341.3L652.9 341.2L657.3 341L661.7 340.8L666.1 340.7L670.4 340.4L674.8 340.2L679.2 340.2L683.6 340.1L688 340.1L692.3 340.2L696.7 340.2L701.1 340.3L705.5 340.4L709.9 340.5L714.2 340.7L718.6 341L723 341.1L727.4 341.2"
            ></path>
            <path
                fill="none"
                stroke-linecap="butt"
                stroke-linejoin="round"
                stroke="#fff"
                id="outline__Pakistan"
                stroke-width="2.5"
                d="M74.6 342.3L78.9 342.8L83.3 344L87.7 345.5L92.1 345.9L96.5 345.1L100.8 344L105.2 342.2L109.6 340L114 338.8L118.4 338.7L122.8 338.6L127.1 338.5L131.5 338.5L135.9 338.4L140.3 338.3L144.7 338.3L149 338.4L153.4 338.5L157.8 338.6L162.2 338.9L166.6 339L171 339L175.3 339.1L179.7 339.1L184.1 339L188.5 338.6L192.9 338.1L197.2 337.4L201.6 336.7L206 336.1L210.4 335.8L214.8 335.4L219.1 335L223.5 334.2L227.9 332.6L232.3 331.1L236.7 330.4L241.1 330L245.4 330.1L249.8 330.9L254.2 331.6L258.6 331.6L263 331.3L267.3 331.2L271.7 331.4L276.1 332.2L280.5 333.3L284.9 334.5L289.2 335.5L293.6 336.5L298 337.5L302.4 338L306.8 337.4L311.2 336.7L315.5 336.9L319.9 337.4L324.3 337.9L328.7 339.9L333.1 341.5L337.4 340L341.8 337.2L346.2 334.1L350.6 330.8L355 328.7L359.4 329.7L363.7 332.7L368.1 336.2L372.5 339.6L376.9 342.4L381.3 344.5L385.6 344.7L390 343.8"
            ></path>
            <path
                fill="none"
                stroke-linecap="butt"
                stroke-linejoin="round"
                stroke="#00295b"
                id="line__Pakistan"
                stroke-width="1.5"
                stroke-opacity="1"
                d="M74.6 342.3L78.9 342.8L83.3 344L87.7 345.5L92.1 345.9L96.5 345.1L100.8 344L105.2 342.2L109.6 340L114 338.8L118.4 338.7L122.8 338.6L127.1 338.5L131.5 338.5L135.9 338.4L140.3 338.3L144.7 338.3L149 338.4L153.4 338.5L157.8 338.6L162.2 338.9L166.6 339L171 339L175.3 339.1L179.7 339.1L184.1 339L188.5 338.6L192.9 338.1L197.2 337.4L201.6 336.7L206 336.1L210.4 335.8L214.8 335.4L219.1 335L223.5 334.2L227.9 332.6L232.3 331.1L236.7 330.4L241.1 330L245.4 330.1L249.8 330.9L254.2 331.6L258.6 331.6L263 331.3L267.3 331.2L271.7 331.4L276.1 332.2L280.5 333.3L284.9 334.5L289.2 335.5L293.6 336.5L298 337.5L302.4 338L306.8 337.4L311.2 336.7L315.5 336.9L319.9 337.4L324.3 337.9L328.7 339.9L333.1 341.5L337.4 340L341.8 337.2L346.2 334.1L350.6 330.8L355 328.7L359.4 329.7L363.7 332.7L368.1 336.2L372.5 339.6L376.9 342.4L381.3 344.5L385.6 344.7L390 343.8"
            ></path>
            <path
                fill="none"
                stroke-linecap="butt"
                stroke-linejoin="round"
                stroke="#fff"
                id="outline__Pakistan"
                stroke-width="2.5"
                d="M394.4 343.6L398.8 343.1L403.2 341L407.5 339.9L411.9 340L416.3 335.5L420.7 330.8L425.1 330.8L429.5 330.8L433.8 330.1L438.2 330.4L442.6 330.8L447 330L451.4 329.3L455.7 328.9L460.1 329.6L464.5 330.7L468.9 331L473.3 331.4L477.6 332L482 335.1L486.4 338.3L490.8 339.2L495.2 340L499.6 340.7L503.9 340.8L508.3 340.7L512.7 340.4L517.1 340L521.5 339.5L525.8 339L530.2 338.5L534.6 337.8L539 336.9L543.4 335.9L547.8 335L552.1 334.1L556.5 333.5L560.9 333.3L565.3 333.4L569.7 333.8L574 334.1L578.4 334.5L582.8 334.9L587.2 335.1L591.6 335.6L595.9 336.2L600.3 337L604.7 337.9L609.1 338.7L613.5 339.5L617.9 340L622.2 340.3L626.6 340.5L631 340.7L635.4 340.8L639.8 340.6L644.1 340.2L648.5 339.9L652.9 339.6L657.3 339.1L661.7 338.6L666.1 338.3L670.4 338L674.8 337.8L679.2 337.6L683.6 337.6L688 337.7L692.3 337.9L696.7 338L701.1 338L705.5 338L709.9 338.2L714.2 338.4L718.6 338.5L723 339L727.4 339.6"
            ></path>
            <path
                fill="none"
                stroke-linecap="butt"
                stroke-linejoin="round"
                stroke="#00295b"
                id="line__Pakistan"
                stroke-width="1.5"
                stroke-opacity="1"
                stroke-dasharray="2,3"
                d="M394.4 343.6L398.8 343.1L403.2 341L407.5 339.9L411.9 340L416.3 335.5L420.7 330.8L425.1 330.8L429.5 330.8L433.8 330.1L438.2 330.4L442.6 330.8L447 330L451.4 329.3L455.7 328.9L460.1 329.6L464.5 330.7L468.9 331L473.3 331.4L477.6 332L482 335.1L486.4 338.3L490.8 339.2L495.2 340L499.6 340.7L503.9 340.8L508.3 340.7L512.7 340.4L517.1 340L521.5 339.5L525.8 339L530.2 338.5L534.6 337.8L539 336.9L543.4 335.9L547.8 335L552.1 334.1L556.5 333.5L560.9 333.3L565.3 333.4L569.7 333.8L574 334.1L578.4 334.5L582.8 334.9L587.2 335.1L591.6 335.6L595.9 336.2L600.3 337L604.7 337.9L609.1 338.7L613.5 339.5L617.9 340L622.2 340.3L626.6 340.5L631 340.7L635.4 340.8L639.8 340.6L644.1 340.2L648.5 339.9L652.9 339.6L657.3 339.1L661.7 338.6L666.1 338.3L670.4 338L674.8 337.8L679.2 337.6L683.6 337.6L688 337.7L692.3 337.9L696.7 338L701.1 338L705.5 338L709.9 338.2L714.2 338.4L718.6 338.5L723 339L727.4 339.6"
            ></path>
            <path
                fill="none"
                stroke-linecap="butt"
                stroke-linejoin="round"
                stroke="#fff"
                id="outline__Indonesia"
                stroke-width="2.5"
                d="M74.6 344.4L78.9 344.2L83.3 344L87.7 343.8L92.1 342.6L96.5 340.5L100.8 338.5L105.2 336.4L109.6 334.2L114 332.9L118.4 332.9L122.8 332.8L127.1 332.7L131.5 332.7L135.9 333.2L140.3 333.7L144.7 333.7L149 333.9L153.4 334.3L157.8 334.5L162.2 334.5L166.6 334.7L171 335.1L175.3 335.4L179.7 335.9L184.1 337L188.5 337.8L192.9 337.9L197.2 338.6L201.6 339.2L206 338.9L210.4 338.9L214.8 338.7L219.1 338L223.5 337.8L227.9 338.3L232.3 338.4L236.7 339.1L241.1 340.5L245.4 342.7L249.8 345.7L254.2 347.4L258.6 347.4L263 347.1L267.3 346.5L271.7 344.4L276.1 343.5L280.5 344.2L284.9 344L289.2 342.6L293.6 341.6L298 340.8L302.4 340.9L306.8 343.1L311.2 345.1L315.5 346.3L319.9 347L324.3 346.7L328.7 344.8L333.1 341.8L337.4 339.6L341.8 338.4L346.2 338.2L350.6 339L355 339.8L359.4 339.6L363.7 339.3L368.1 340.8L372.5 343L376.9 345.7L381.3 349.2L385.6 352.5L390 353.1"
            ></path>
            <path
                fill="none"
                stroke-linecap="butt"
                stroke-linejoin="round"
                stroke="#2c8465"
                id="line__Indonesia"
                stroke-width="1.5"
                stroke-opacity="1"
                d="M74.6 344.4L78.9 344.2L83.3 344L87.7 343.8L92.1 342.6L96.5 340.5L100.8 338.5L105.2 336.4L109.6 334.2L114 332.9L118.4 332.9L122.8 332.8L127.1 332.7L131.5 332.7L135.9 333.2L140.3 333.7L144.7 333.7L149 333.9L153.4 334.3L157.8 334.5L162.2 334.5L166.6 334.7L171 335.1L175.3 335.4L179.7 335.9L184.1 337L188.5 337.8L192.9 337.9L197.2 338.6L201.6 339.2L206 338.9L210.4 338.9L214.8 338.7L219.1 338L223.5 337.8L227.9 338.3L232.3 338.4L236.7 339.1L241.1 340.5L245.4 342.7L249.8 345.7L254.2 347.4L258.6 347.4L263 347.1L267.3 346.5L271.7 344.4L276.1 343.5L280.5 344.2L284.9 344L289.2 342.6L293.6 341.6L298 340.8L302.4 340.9L306.8 343.1L311.2 345.1L315.5 346.3L319.9 347L324.3 346.7L328.7 344.8L333.1 341.8L337.4 339.6L341.8 338.4L346.2 338.2L350.6 339L355 339.8L359.4 339.6L363.7 339.3L368.1 340.8L372.5 343L376.9 345.7L381.3 349.2L385.6 352.5L390 353.1"
            ></path>
            <path
                fill="none"
                stroke-linecap="butt"
                stroke-linejoin="round"
                stroke="#fff"
                id="outline__Indonesia"
                stroke-width="2.5"
                d="M394.4 351.8L398.8 350.5L403.2 349.8L407.5 348.7L411.9 347.6L416.3 341.7L420.7 336.1L425.1 335.9L429.5 335.7L433.8 335.5L438.2 337.5L442.6 339.5L447 339.2L451.4 338.8L455.7 338.3L460.1 339L464.5 339.9L468.9 339.9L473.3 340.1L477.6 340.2L482 342.8L486.4 345.4L490.8 345.8L495.2 346.2L499.6 346.6L503.9 346.9L508.3 347.1L512.7 347.2L517.1 347.1L521.5 346.7L525.8 346.2L530.2 345.6L534.6 345L539 344.3L543.4 343.7L547.8 343.1L552.1 342.5L556.5 341.9L560.9 341.4L565.3 341L569.7 340.7L574 340.5L578.4 340.4L582.8 340.5L587.2 340.6L591.6 340.9L595.9 341.3L600.3 341.7L604.7 342.3L609.1 342.9L613.5 343.6L617.9 344.1L622.2 344.7L626.6 345.1L631 345.4L635.4 345.7L639.8 345.8L644.1 345.9L648.5 345.8L652.9 345.7L657.3 345.5L661.7 345.1L666.1 344.7L670.4 344.2L674.8 343.8L679.2 343.4L683.6 343.1L688 342.8L692.3 342.6L696.7 342.3L701.1 342.1L705.5 342L709.9 341.9L714.2 341.9L718.6 342L723 342.1L727.4 342.3"
            ></path>
            <path
                fill="none"
                stroke-linecap="butt"
                stroke-linejoin="round"
                stroke="#2c8465"
                id="line__Indonesia"
                stroke-width="1.5"
                stroke-opacity="1"
                stroke-dasharray="2,3"
                d="M394.4 351.8L398.8 350.5L403.2 349.8L407.5 348.7L411.9 347.6L416.3 341.7L420.7 336.1L425.1 335.9L429.5 335.7L433.8 335.5L438.2 337.5L442.6 339.5L447 339.2L451.4 338.8L455.7 338.3L460.1 339L464.5 339.9L468.9 339.9L473.3 340.1L477.6 340.2L482 342.8L486.4 345.4L490.8 345.8L495.2 346.2L499.6 346.6L503.9 346.9L508.3 347.1L512.7 347.2L517.1 347.1L521.5 346.7L525.8 346.2L530.2 345.6L534.6 345L539 344.3L543.4 343.7L547.8 343.1L552.1 342.5L556.5 341.9L560.9 341.4L565.3 341L569.7 340.7L574 340.5L578.4 340.4L582.8 340.5L587.2 340.6L591.6 340.9L595.9 341.3L600.3 341.7L604.7 342.3L609.1 342.9L613.5 343.6L617.9 344.1L622.2 344.7L626.6 345.1L631 345.4L635.4 345.7L639.8 345.8L644.1 345.9L648.5 345.8L652.9 345.7L657.3 345.5L661.7 345.1L666.1 344.7L670.4 344.2L674.8 343.8L679.2 343.4L683.6 343.1L688 342.8L692.3 342.6L696.7 342.3L701.1 342.1L705.5 342L709.9 341.9L714.2 341.9L718.6 342L723 342.1L727.4 342.3"
            ></path>
            <path
                fill="none"
                stroke-linecap="butt"
                stroke-linejoin="round"
                stroke="#fff"
                id="outline__United-States"
                stroke-width="2.5"
                d="M74.6 332.4L78.9 327.9L83.3 330L87.7 331.4L92.1 330L96.5 334.7L100.8 341.6L105.2 340.5L109.6 336L114 334L118.4 334.5L122.8 334.8L127.1 335.8L131.5 337.7L135.9 338.9L140.3 339.4L144.7 342.4L149 346.2L153.4 348.7L157.8 351.9L162.2 355.8L166.6 357.7L171 357.4L175.3 355.5L179.7 349.9L184.1 346L188.5 347.9L192.9 350.5L197.2 351.9L201.6 354L206 353.8L210.4 347.2L214.8 341L219.1 338.4L223.5 336.1L227.9 335.1L232.3 336.5L236.7 338.3L241.1 340.1L245.4 341.4L249.8 340.9L254.2 340.1L258.6 339L263 337.3L267.3 336.2L271.7 336.5L276.1 338.6L280.5 341.7L284.9 345.4L289.2 349.2L293.6 351L298 350.2L302.4 348.1L306.8 345.5L311.2 342.5L315.5 340.8L319.9 340.9L324.3 340.7L328.7 340.8L333.1 341.4L337.4 340.1L341.8 337.6L346.2 337.9L350.6 340.2L355 342.8L359.4 345.9L363.7 348.4L368.1 349L372.5 347.5L376.9 346.9L381.3 347.2L385.6 347.5L390 348.9"
            ></path>
            <path
                fill="none"
                stroke-linecap="butt"
                stroke-linejoin="round"
                stroke="#a2559c"
                id="line__United-States"
                stroke-width="1.5"
                stroke-opacity="1"
                d="M74.6 332.4L78.9 327.9L83.3 330L87.7 331.4L92.1 330L96.5 334.7L100.8 341.6L105.2 340.5L109.6 336L114 334L118.4 334.5L122.8 334.8L127.1 335.8L131.5 337.7L135.9 338.9L140.3 339.4L144.7 342.4L149 346.2L153.4 348.7L157.8 351.9L162.2 355.8L166.6 357.7L171 357.4L175.3 355.5L179.7 349.9L184.1 346L188.5 347.9L192.9 350.5L197.2 351.9L201.6 354L206 353.8L210.4 347.2L214.8 341L219.1 338.4L223.5 336.1L227.9 335.1L232.3 336.5L236.7 338.3L241.1 340.1L245.4 341.4L249.8 340.9L254.2 340.1L258.6 339L263 337.3L267.3 336.2L271.7 336.5L276.1 338.6L280.5 341.7L284.9 345.4L289.2 349.2L293.6 351L298 350.2L302.4 348.1L306.8 345.5L311.2 342.5L315.5 340.8L319.9 340.9L324.3 340.7L328.7 340.8L333.1 341.4L337.4 340.1L341.8 337.6L346.2 337.9L350.6 340.2L355 342.8L359.4 345.9L363.7 348.4L368.1 349L372.5 347.5L376.9 346.9L381.3 347.2L385.6 347.5L390 348.9"
            ></path>
            <path
                fill="none"
                stroke-linecap="butt"
                stroke-linejoin="round"
                stroke="#fff"
                id="outline__United-States"
                stroke-width="2.5"
                d="M394.4 350.3L398.8 352.1L403.2 352.1L407.5 348.9L411.9 346.8L416.3 340L420.7 331.9L425.1 330.9L429.5 332.3L433.8 332.2L438.2 333.6L442.6 335.8L447 335.6L451.4 335.3L455.7 334.9L460.1 335.9L464.5 336.9L468.9 336.6L473.3 336.5L477.6 336.5L482 339.1L486.4 341.8L490.8 342.4L495.2 342.9L499.6 343.5L503.9 344.1L508.3 344.5L512.7 344.8L517.1 345.2L521.5 345.3L525.8 345.4L530.2 345.3L534.6 345L539 344.3L543.4 343.5L547.8 342.6L552.1 341.8L556.5 340.9L560.9 339.9L565.3 339.1L569.7 338.3L574 337.6L578.4 337L582.8 336.6L587.2 336.3L591.6 336.2L595.9 336.4L600.3 336.7L604.7 337L609.1 337.4L613.5 338L617.9 338.5L622.2 339.1L626.6 339.9L631 340.6L635.4 341.2L639.8 341.8L644.1 342.1L648.5 342.4L652.9 342.6L657.3 342.7L661.7 342.9L666.1 343L670.4 342.9L674.8 342.7L679.2 342.4L683.6 342L688 341.4L692.3 340.8L696.7 340.3L701.1 339.7L705.5 339.2L709.9 338.8L714.2 338.5L718.6 338.1L723 338L727.4 337.9"
            ></path>
            <path
                fill="none"
                stroke-linecap="butt"
                stroke-linejoin="round"
                stroke="#a2559c"
                id="line__United-States"
                stroke-width="1.5"
                stroke-opacity="1"
                stroke-dasharray="2,3"
                d="M394.4 350.3L398.8 352.1L403.2 352.1L407.5 348.9L411.9 346.8L416.3 340L420.7 331.9L425.1 330.9L429.5 332.3L433.8 332.2L438.2 333.6L442.6 335.8L447 335.6L451.4 335.3L455.7 334.9L460.1 335.9L464.5 336.9L468.9 336.6L473.3 336.5L477.6 336.5L482 339.1L486.4 341.8L490.8 342.4L495.2 342.9L499.6 343.5L503.9 344.1L508.3 344.5L512.7 344.8L517.1 345.2L521.5 345.3L525.8 345.4L530.2 345.3L534.6 345L539 344.3L543.4 343.5L547.8 342.6L552.1 341.8L556.5 340.9L560.9 339.9L565.3 339.1L569.7 338.3L574 337.6L578.4 337L582.8 336.6L587.2 336.3L591.6 336.2L595.9 336.4L600.3 336.7L604.7 337L609.1 337.4L613.5 338L617.9 338.5L622.2 339.1L626.6 339.9L631 340.6L635.4 341.2L639.8 341.8L644.1 342.1L648.5 342.4L652.9 342.6L657.3 342.7L661.7 342.9L666.1 343L670.4 342.9L674.8 342.7L679.2 342.4L683.6 342L688 341.4L692.3 340.8L696.7 340.3L701.1 339.7L705.5 339.2L709.9 338.8L714.2 338.5L718.6 338.1L723 338L727.4 337.9"
            ></path>
            <path
                fill="none"
                stroke-linecap="butt"
                stroke-linejoin="round"
                stroke="#fff"
                id="outline__India"
                stroke-width="2.5"
                d="M74.6 328.5L78.9 326.3L83.3 323.7L87.7 309.6L92.1 295.1L96.5 291.2L100.8 287.2L105.2 284L109.6 292.6L114 303.3L118.4 304.9L122.8 306.8L127.1 309.8L131.5 312.9L135.9 314.6L140.3 314.9L144.7 314.7L149 313.7L153.4 312.7L157.8 314L162.2 315.9L166.6 316.1L171 315L175.3 314.3L179.7 312.8L184.1 309.4L188.5 307L192.9 305.5L197.2 302.5L201.6 301.2L206 301.1L210.4 301.5L214.8 303.8L219.1 303.3L223.5 297.5L227.9 293.7L232.3 292.5L236.7 289.6L241.1 288.6L245.4 292.6L249.8 295.9L254.2 298.4L258.6 303.8L263 309.9L267.3 315.7L271.7 320.5L276.1 322.9L280.5 323.6L284.9 323.8L289.2 321.8L293.6 321.9L298 323.5L302.4 323.7L306.8 324.5L311.2 324L315.5 320.8L319.9 322.3L324.3 329.2L328.7 336.1L333.1 347.3L337.4 362L341.8 369.7L346.2 369.1L350.6 364.3L355 359.9L359.4 356.4L363.7 354.2L368.1 357.8L372.5 372.6L376.9 379.4L381.3 372.6L385.6 375.7L390 375.6"
            ></path>
            <path
                fill="none"
                stroke-linecap="butt"
                stroke-linejoin="round"
                stroke="#996d39"
                id="line__India"
                stroke-width="1.5"
                stroke-opacity="1"
                d="M74.6 328.5L78.9 326.3L83.3 323.7L87.7 309.6L92.1 295.1L96.5 291.2L100.8 287.2L105.2 284L109.6 292.6L114 303.3L118.4 304.9L122.8 306.8L127.1 309.8L131.5 312.9L135.9 314.6L140.3 314.9L144.7 314.7L149 313.7L153.4 312.7L157.8 314L162.2 315.9L166.6 316.1L171 315L175.3 314.3L179.7 312.8L184.1 309.4L188.5 307L192.9 305.5L197.2 302.5L201.6 301.2L206 301.1L210.4 301.5L214.8 303.8L219.1 303.3L223.5 297.5L227.9 293.7L232.3 292.5L236.7 289.6L241.1 288.6L245.4 292.6L249.8 295.9L254.2 298.4L258.6 303.8L263 309.9L267.3 315.7L271.7 320.5L276.1 322.9L280.5 323.6L284.9 323.8L289.2 321.8L293.6 321.9L298 323.5L302.4 323.7L306.8 324.5L311.2 324L315.5 320.8L319.9 322.3L324.3 329.2L328.7 336.1L333.1 347.3L337.4 362L341.8 369.7L346.2 369.1L350.6 364.3L355 359.9L359.4 356.4L363.7 354.2L368.1 357.8L372.5 372.6L376.9 379.4L381.3 372.6L385.6 375.7L390 375.6"
            ></path>
            <path
                fill="none"
                stroke-linecap="butt"
                stroke-linejoin="round"
                stroke="#fff"
                id="outline__India"
                stroke-width="2.5"
                d="M394.4 365.7L398.8 369.8L403.2 380.5L407.5 375.9L411.9 370.9L416.3 337.3L420.7 295.9L425.1 289.4L429.5 289.1L433.8 290.5L438.2 303.9L442.6 316.7L447 317.5L451.4 318.9L455.7 320.1L460.1 327.6L464.5 335.5L468.9 337.2L473.3 338.6L477.6 340.3L482 354.5L486.4 368L490.8 368.6L495.2 369.1L499.6 368.9L503.9 368L508.3 366.8L512.7 364.5L517.1 360.8L521.5 356.4L525.8 351.4L530.2 346.1L534.6 340.7L539 335.7L543.4 331L547.8 327.2L552.1 324L556.5 321.1L560.9 318.9L565.3 318L569.7 318.2L574 319.4L578.4 322.4L582.8 325.7L587.2 329.1L591.6 332.7L595.9 336.4L600.3 340L604.7 343.7L609.1 347.6L613.5 351.1L617.9 354.1L622.2 356L626.6 357.4L631 358L635.4 357.4L639.8 356.4L644.1 355L648.5 352.5L652.9 349.6L657.3 347L661.7 343.7L666.1 340.7L670.4 337.9L674.8 334.8L679.2 331.9L683.6 329.7L688 327.7L692.3 326.2L696.7 325.6L701.1 325.6L705.5 326.4L709.9 327.7L714.2 329.8L718.6 332.6L723 335.6L727.4 338.5"
            ></path>
            <path
                fill="none"
                stroke-linecap="butt"
                stroke-linejoin="round"
                stroke="#996d39"
                id="line__India"
                stroke-width="1.5"
                stroke-opacity="1"
                stroke-dasharray="2,3"
                d="M394.4 365.7L398.8 369.8L403.2 380.5L407.5 375.9L411.9 370.9L416.3 337.3L420.7 295.9L425.1 289.4L429.5 289.1L433.8 290.5L438.2 303.9L442.6 316.7L447 317.5L451.4 318.9L455.7 320.1L460.1 327.6L464.5 335.5L468.9 337.2L473.3 338.6L477.6 340.3L482 354.5L486.4 368L490.8 368.6L495.2 369.1L499.6 368.9L503.9 368L508.3 366.8L512.7 364.5L517.1 360.8L521.5 356.4L525.8 351.4L530.2 346.1L534.6 340.7L539 335.7L543.4 331L547.8 327.2L552.1 324L556.5 321.1L560.9 318.9L565.3 318L569.7 318.2L574 319.4L578.4 322.4L582.8 325.7L587.2 329.1L591.6 332.7L595.9 336.4L600.3 340L604.7 343.7L609.1 347.6L613.5 351.1L617.9 354.1L622.2 356L626.6 357.4L631 358L635.4 357.4L639.8 356.4L644.1 355L648.5 352.5L652.9 349.6L657.3 347L661.7 343.7L666.1 340.7L670.4 337.9L674.8 334.8L679.2 331.9L683.6 329.7L688 327.7L692.3 326.2L696.7 325.6L701.1 325.6L705.5 326.4L709.9 327.7L714.2 329.8L718.6 332.6L723 335.6L727.4 338.5"
            ></path>
            <path
                fill="none"
                stroke-linecap="butt"
                stroke-linejoin="round"
                stroke="#fff"
                id="outline__China"
                stroke-width="2.5"
                d="M74.6 323.8L78.9 301.9L83.3 279.5L87.7 266.7L92.1 247.8L96.5 241.8L100.8 231.2L105.2 230.7L109.6 250.3L114 272.2L118.4 304.4L122.8 316.5L127.1 339.9L131.5 409.4L135.9 465.3L140.3 468.4L144.7 385.2L149 213.1L153.4 114.4L157.8 102.7L162.2 95.4L166.6 205.6L171 338.6L175.3 335.1L179.7 305.4L184.1 309.3L188.5 312.5L192.9 354.9L197.2 416.9L201.6 460.9L206 485.8L210.4 487.2L214.8 486.4L219.1 449.9L223.5 392.2L227.9 344.4L232.3 290.4L236.7 282L241.1 305.6L245.4 294.9L249.8 276.1L254.2 267.7L258.6 254.8L263 243.1L267.3 250.3L271.7 330.1L276.1 438.8L280.5 468.3L284.9 481.2L289.2 511L293.6 476.2L298 417.4L302.4 404.3L306.8 397.3L311.2 381L315.5 371.6L319.9 371L324.3 363.5L328.7 354L333.1 353.9L337.4 346.8L341.8 327.8L346.2 314.7L350.6 306.9L355 309.6L359.4 317.1L363.7 309.3L368.1 314.3L372.5 330.1L376.9 341.8L381.3 344.8L385.6 352.5L390 391.1"
            ></path>
            <path
                fill="none"
                stroke-linecap="butt"
                stroke-linejoin="round"
                stroke="#b13507"
                id="line__China"
                stroke-width="1.5"
                stroke-opacity="1"
                d="M74.6 323.8L78.9 301.9L83.3 279.5L87.7 266.7L92.1 247.8L96.5 241.8L100.8 231.2L105.2 230.7L109.6 250.3L114 272.2L118.4 304.4L122.8 316.5L127.1 339.9L131.5 409.4L135.9 465.3L140.3 468.4L144.7 385.2L149 213.1L153.4 114.4L157.8 102.7L162.2 95.4L166.6 205.6L171 338.6L175.3 335.1L179.7 305.4L184.1 309.3L188.5 312.5L192.9 354.9L197.2 416.9L201.6 460.9L206 485.8L210.4 487.2L214.8 486.4L219.1 449.9L223.5 392.2L227.9 344.4L232.3 290.4L236.7 282L241.1 305.6L245.4 294.9L249.8 276.1L254.2 267.7L258.6 254.8L263 243.1L267.3 250.3L271.7 330.1L276.1 438.8L280.5 468.3L284.9 481.2L289.2 511L293.6 476.2L298 417.4L302.4 404.3L306.8 397.3L311.2 381L315.5 371.6L319.9 371L324.3 363.5L328.7 354L333.1 353.9L337.4 346.8L341.8 327.8L346.2 314.7L350.6 306.9L355 309.6L359.4 317.1L363.7 309.3L368.1 314.3L372.5 330.1L376.9 341.8L381.3 344.8L385.6 352.5L390 391.1"
            ></path>
            <path
                fill="none"
                stroke-linecap="butt"
                stroke-linejoin="round"
                stroke="#fff"
                id="outline__China"
                stroke-width="2.5"
                d="M394.4 425.4L398.8 456.6L403.2 498.9L407.5 532.4L411.9 515.9L416.3 459.3L420.7 398.2L425.1 353.9L429.5 330.7L433.8 316.8L438.2 323L442.6 332.8L447 330.8L451.4 328.5L455.7 325.7L460.1 327.6L464.5 329.2L468.9 326.5L473.3 324.3L477.6 322.7L482 330.5L486.4 339.6L490.8 341.3L495.2 343.6L499.6 346.2L503.9 348.8L508.3 351.7L512.7 354.8L517.1 358.3L521.5 362.3L525.8 366.1L530.2 369.2L534.6 371.9L539 373.8L543.4 374.4L547.8 374.4L552.1 373.5L556.5 371.5L560.9 368.7L565.3 365.4L569.7 361.3L574 356.6L578.4 351.9L582.8 347.1L587.2 342.5L591.6 338.8L595.9 336.2L600.3 334.7L604.7 334.1L609.1 334.2L613.5 334.9L617.9 335.8L622.2 336.6L626.6 337.8L631 339.3L635.4 341.1L639.8 343.1L644.1 345.3L648.5 347.7L652.9 349.9L657.3 352.1L661.7 354.1L666.1 355.9L670.4 357.2L674.8 358.2L679.2 358.9L683.6 359.2L688 359.1L692.3 358.8L696.7 358.3L701.1 357.2L705.5 355.6L709.9 353.9L714.2 352.1L718.6 350.3L723 348.4L727.4 346.9"
            ></path>
            <path
                fill="none"
                stroke-linecap="butt"
                stroke-linejoin="round"
                stroke="#b13507"
                id="line__China"
                stroke-width="1.5"
                stroke-opacity="1"
                stroke-dasharray="2,3"
                d="M394.4 425.4L398.8 456.6L403.2 498.9L407.5 532.4L411.9 515.9L416.3 459.3L420.7 398.2L425.1 353.9L429.5 330.7L433.8 316.8L438.2 323L442.6 332.8L447 330.8L451.4 328.5L455.7 325.7L460.1 327.6L464.5 329.2L468.9 326.5L473.3 324.3L477.6 322.7L482 330.5L486.4 339.6L490.8 341.3L495.2 343.6L499.6 346.2L503.9 348.8L508.3 351.7L512.7 354.8L517.1 358.3L521.5 362.3L525.8 366.1L530.2 369.2L534.6 371.9L539 373.8L543.4 374.4L547.8 374.4L552.1 373.5L556.5 371.5L560.9 368.7L565.3 365.4L569.7 361.3L574 356.6L578.4 351.9L582.8 347.1L587.2 342.5L591.6 338.8L595.9 336.2L600.3 334.7L604.7 334.1L609.1 334.2L613.5 334.9L617.9 335.8L622.2 336.6L626.6 337.8L631 339.3L635.4 341.1L639.8 343.1L644.1 345.3L648.5 347.7L652.9 349.9L657.3 352.1L661.7 354.1L666.1 355.9L670.4 357.2L674.8 358.2L679.2 358.9L683.6 359.2L688 359.1L692.3 358.8L696.7 358.3L701.1 357.2L705.5 355.6L709.9 353.9L714.2 352.1L718.6 350.3L723 348.4L727.4 346.9"
            ></path>
        </g>
    </g>
    <g id="footer" class="SourcesFooter" style="fill: #767676">
        <g id="sources" class="markdown-text-wrap">
            <text x="16.0" y="581.0" style="font-size: 13px; line-height: 1.2">
                <tspan x="16" y="581.0">
                    <tspan style="font-weight: 700">Data source:</tspan>
                    UN, World Population Prospects (2024)
                </tspan>
            </text>
        </g>
        <text id="origin-url" font-size="13.00" x="555.3" y="581.0">
            <tspan x="555.28" y="581.01">
                <a
                    style="fill: #767676"
                    href="https://ourworldindata.org/population-growth"
                >
                    OurWorldinData.org/population-growth
                </a>
                |
                <a
                    style="fill: #767676"
                    href="https://creativecommons.org/licenses/by/4.0/"
                >
                    CC BY
                </a>
            </tspan>
        </text>
    </g>
</svg>
