<svg
    xmlns="http://www.w3.org/2000/svg"
    version="1.1"
    style='font-family:Lato, &#x27;Helvetica Neue&#x27;, Helvetica, Arial, &#x27;Liberation Sans&#x27;, sans-serif;font-feature-settings:"liga", "kern", "calt", "lnum";text-rendering:geometricPrecision;-webkit-font-smoothing:antialiased;font-size:18px;background-color:#fff'
    width="850"
    height="600"
    viewBox="0 0 850 600"
>
    <defs>
        <style>
            @import url(https://ourworldindata.org/fonts.css);
        </style>
    </defs>
    <defs>
        <pattern
            id="noDataPattern"
            patternUnits="userSpaceOnUse"
            width="4"
            height="4"
            patternTransform="rotate(-45 2 2)"
        >
            <path d="M -1,2 l 6,0" stroke="#ccc" stroke-width="0.7"></path>
        </pattern>
    </defs>
    <g id="header" class="HeaderView">
        <g id="logo" transform="translate(769, 16) scale(1)">
            <svg
                className="owidLogo"
                xmlns="http://www.w3.org/2000/svg"
                width="65"
                height="36"
                viewBox="0 0 65 36"
                fill="none"
            >
                <path fill="#002147" d="M0 0h64.8v36H0z" />
                <path fill="#CE261E" d="M0 33.3h64.8V36H0z" />
                <path
                    fill="#fff"
                    d="M13.796 10.575c0 .636-.106 1.226-.318 1.77a4.193 4.193 0 0 1-.894 1.404 4.084 4.084 0 0 1-1.386.93c-.54.22-1.138.33-1.794.33-.656 0-1.256-.11-1.8-.33a4.149 4.149 0 0 1-1.392-.93 4.193 4.193 0 0 1-.894-1.404A4.833 4.833 0 0 1 5 10.575c0-.636.106-1.224.318-1.764a4.18 4.18 0 0 1 .894-1.41 4.076 4.076 0 0 1 1.392-.924 4.684 4.684 0 0 1 1.8-.336c.656 0 1.254.112 1.794.336.54.224 1.002.534 1.386.93.384.392.682.86.894 1.404.212.54.318 1.128.318 1.764Zm-1.656 0c0-.476-.064-.902-.192-1.278a2.671 2.671 0 0 0-.54-.966 2.332 2.332 0 0 0-.864-.606 2.94 2.94 0 0 0-1.14-.21c-.424 0-.806.07-1.146.21-.34.14-.63.342-.87.606a2.742 2.742 0 0 0-.546.966 3.955 3.955 0 0 0-.192 1.278c0 .476.064.904.192 1.284.128.376.31.696.546.96.24.26.53.46.87.6.34.14.722.21 1.146.21.424 0 .804-.07 1.14-.21.34-.14.628-.34.864-.6.236-.264.416-.584.54-.96a4.01 4.01 0 0 0 .192-1.284ZM16.104 8.757v3.912c0 .376.086.668.258.876.176.204.438.306.786.306.256 0 .496-.056.72-.168a2.58 2.58 0 0 0 .636-.474V8.757h1.482v6.156h-.906c-.192 0-.318-.09-.378-.27l-.102-.492a4.65 4.65 0 0 1-.396.354 2.577 2.577 0 0 1-.438.27 2.35 2.35 0 0 1-.498.168 2.345 2.345 0 0 1-.57.066c-.336 0-.634-.056-.894-.168a1.821 1.821 0 0 1-.648-.486 2.157 2.157 0 0 1-.402-.738 3.233 3.233 0 0 1-.132-.948V8.757h1.482ZM21.328 14.913V8.757h.87c.152 0 .258.028.318.084.06.056.1.152.12.288l.09.744c.22-.38.478-.68.774-.9.296-.22.628-.33.996-.33.304 0 .556.07.756.21l-.192 1.11c-.012.072-.038.124-.078.156a.278.278 0 0 1-.162.042 1.01 1.01 0 0 1-.246-.042 1.646 1.646 0 0 0-.414-.042c-.308 0-.572.086-.792.258-.22.168-.406.416-.558.744v3.834h-1.482ZM27.347 6.237h1.356a.57.57 0 0 1 .348.102c.096.064.16.152.192.264l1.476 5.19c.036.128.068.268.096.42.032.148.062.306.09.474a5.968 5.968 0 0 1 .228-.894l1.704-5.19a.575.575 0 0 1 .186-.252.543.543 0 0 1 .348-.114h.474a.57.57 0 0 1 .348.102.497.497 0 0 1 .192.264l1.692 5.19c.088.256.164.54.228.852.028-.156.056-.306.084-.45.032-.144.064-.278.096-.402l1.476-5.19c.028-.1.09-.186.186-.258a.563.563 0 0 1 .348-.108h1.266l-2.694 8.676h-1.458l-1.896-5.928-.078-.246a9.504 9.504 0 0 1-.072-.282c-.024.1-.05.194-.078.282-.024.088-.048.17-.072.246l-1.914 5.928H30.04l-2.694-8.676ZM42.771 8.661c.46 0 .876.074 1.248.222.376.148.696.358.96.63s.468.604.612.996c.144.392.216.83.216 1.314 0 .488-.072.928-.216 1.32a2.85 2.85 0 0 1-.612 1.002 2.653 2.653 0 0 1-.96.636 3.35 3.35 0 0 1-1.248.222c-.46 0-.878-.074-1.254-.222a2.712 2.712 0 0 1-.966-.636 2.922 2.922 0 0 1-.618-1.002 3.807 3.807 0 0 1-.216-1.32c0-.484.072-.922.216-1.314.148-.392.354-.724.618-.996.268-.272.59-.482.966-.63a3.397 3.397 0 0 1 1.254-.222Zm0 5.202c.512 0 .89-.172 1.134-.516.248-.344.372-.848.372-1.512s-.124-1.17-.372-1.518c-.244-.348-.622-.522-1.134-.522-.52 0-.904.176-1.152.528-.248.348-.372.852-.372 1.512s.124 1.164.372 1.512c.248.344.632.516 1.152.516ZM46.723 14.913V8.757h.87c.152 0 .258.028.318.084.06.056.1.152.12.288l.09.744c.22-.38.478-.68.774-.9.296-.22.628-.33.996-.33.304 0 .556.07.756.21l-.192 1.11c-.012.072-.038.124-.078.156a.278.278 0 0 1-.162.042 1.01 1.01 0 0 1-.246-.042 1.646 1.646 0 0 0-.414-.042c-.308 0-.572.086-.792.258-.22.168-.406.416-.558.744v3.834h-1.482ZM52.96 5.997v8.916h-1.482V5.997h1.482ZM58.732 14.913c-.192 0-.318-.09-.378-.27l-.12-.594a3.68 3.68 0 0 1-.402.39c-.14.116-.292.216-.456.3-.16.084-.334.148-.522.192a2.372 2.372 0 0 1-.6.072c-.336 0-.644-.07-.924-.21a2.098 2.098 0 0 1-.726-.606 3.033 3.033 0 0 1-.468-.99 5.072 5.072 0 0 1-.162-1.344c0-.456.062-.88.186-1.272s.302-.732.534-1.02c.232-.288.51-.512.834-.672a2.384 2.384 0 0 1 1.092-.246 2.103 2.103 0 0 1 1.536.606V5.997h1.482v8.916h-.906Zm-1.974-1.086c.308 0 .57-.064.786-.192.216-.128.42-.31.612-.546v-2.76a1.452 1.452 0 0 0-.552-.432 1.597 1.597 0 0 0-.636-.126c-.224 0-.428.042-.612.126a1.21 1.21 0 0 0-.462.384c-.124.168-.22.384-.288.648-.068.26-.102.568-.102.924 0 .36.028.666.084.918.06.248.144.452.252.612.108.156.24.27.396.342.156.068.33.102.522.102ZM16.331 20.757v6.156H14.85v-6.156h1.481Zm.223-1.794a.844.844 0 0 1-.078.36.963.963 0 0 1-.21.294.995.995 0 0 1-.3.204.963.963 0 0 1-.372.072.948.948 0 0 1-.367-.072 1.018 1.018 0 0 1-.498-.498.963.963 0 0 1 0-.732.995.995 0 0 1 .205-.3.929.929 0 0 1 .293-.198.899.899 0 0 1 .738 0 .912.912 0 0 1 .3.198.943.943 0 0 1 .288.672ZM17.771 26.913v-6.156h.906c.192 0 .318.09.378.27l.102.486a2.934 2.934 0 0 1 .828-.618c.156-.076.322-.134.498-.174.176-.04.368-.06.576-.06.336 0 .634.058.894.174.26.112.476.272.648.48.176.204.308.45.396.738.092.284.138.598.138.942v3.918h-1.482v-3.918c0-.376-.088-.666-.264-.87-.172-.208-.432-.312-.78-.312-.256 0-.496.058-.72.174a2.58 2.58 0 0 0-.636.474v4.452h-1.482ZM34.22 22.575c0 .636-.106 1.22-.318 1.752-.212.532-.51.99-.894 1.374a4 4 0 0 1-1.386.894 4.87 4.87 0 0 1-1.794.318h-3.312v-8.676h3.312a4.79 4.79 0 0 1 1.794.324 4 4 0 0 1 1.386.894c.384.38.682.836.894 1.368.212.532.318 1.116.318 1.752Zm-1.65 0c0-.476-.064-.902-.192-1.278a2.68 2.68 0 0 0-.546-.96 2.332 2.332 0 0 0-.864-.606 2.94 2.94 0 0 0-1.14-.21h-1.686v6.108h1.686c.424 0 .804-.07 1.14-.21.34-.14.628-.34.864-.6a2.75 2.75 0 0 0 .546-.96 4.01 4.01 0 0 0 .192-1.284ZM39.98 26.913h-.665c-.14 0-.25-.02-.33-.06-.08-.044-.14-.13-.18-.258l-.132-.438c-.156.14-.31.264-.462.372a2.804 2.804 0 0 1-.462.264c-.16.072-.33.126-.51.162-.18.036-.38.054-.6.054-.26 0-.5-.034-.72-.102a1.618 1.618 0 0 1-.57-.318 1.448 1.448 0 0 1-.366-.522 1.852 1.852 0 0 1-.132-.726c0-.232.06-.46.18-.684.124-.228.328-.432.612-.612.284-.184.662-.336 1.134-.456.472-.12 1.058-.188 1.758-.204v-.36c0-.412-.088-.716-.264-.912-.172-.2-.424-.3-.756-.3a1.837 1.837 0 0 0-1.02.276c-.116.068-.224.13-.324.186a.664.664 0 0 1-.33.084.429.429 0 0 1-.258-.078.614.614 0 0 1-.174-.192l-.27-.474c.708-.648 1.562-.972 2.562-.972.36 0 .68.06.96.18.284.116.524.28.72.492.196.208.344.458.444.75.104.292.156.612.156.96v3.888Zm-2.88-.924c.153 0 .293-.014.42-.042.129-.028.249-.07.36-.126.117-.056.227-.124.33-.204.109-.084.217-.182.325-.294v-1.038c-.432.02-.794.058-1.086.114-.288.052-.52.12-.696.204a.923.923 0 0 0-.378.294.664.664 0 0 0-.108.366c0 .26.076.446.228.558.156.112.358.168.606.168ZM43.22 27.01c-.532 0-.942-.15-1.23-.45-.288-.305-.432-.723-.432-1.255v-3.438h-.624a.31.31 0 0 1-.21-.078c-.056-.052-.084-.13-.084-.234v-.588l.99-.162.312-1.68a.302.302 0 0 1 .108-.186.365.365 0 0 1 .222-.066h.768v1.938h1.62v1.056h-1.62v3.336c0 .192.048.342.144.45a.488.488 0 0 0 .384.162c.092 0 .168-.01.228-.03.064-.024.118-.048.162-.072.048-.024.09-.046.126-.066a.194.194 0 0 1 .108-.036.16.16 0 0 1 .108.036c.028.02.058.052.09.096l.444.72c-.216.18-.464.316-.744.408a2.77 2.77 0 0 1-.87.138ZM50.423 26.913h-.666c-.14 0-.25-.02-.33-.06-.08-.044-.14-.13-.18-.258l-.132-.438c-.156.14-.31.264-.462.372a2.804 2.804 0 0 1-.462.264c-.16.072-.33.126-.51.162-.18.036-.38.054-.6.054-.26 0-.5-.034-.72-.102a1.618 1.618 0 0 1-.57-.318 1.448 1.448 0 0 1-.366-.522 1.852 1.852 0 0 1-.132-.726c0-.232.06-.46.18-.684.124-.228.328-.432.612-.612.284-.184.662-.336 1.134-.456.472-.12 1.058-.188 1.758-.204v-.36c0-.412-.088-.716-.264-.912-.172-.2-.424-.3-.756-.3a1.837 1.837 0 0 0-1.02.276c-.116.068-.224.13-.324.186a.664.664 0 0 1-.33.084.429.429 0 0 1-.258-.078.614.614 0 0 1-.174-.192l-.27-.474c.708-.648 1.562-.972 2.562-.972.36 0 .68.06.96.18.284.116.524.28.72.492.196.208.344.458.444.75.104.292.156.612.156.96v3.888Zm-2.88-.924c.152 0 .292-.014.42-.042.128-.028.248-.07.36-.126.116-.056.226-.124.33-.204.108-.084.216-.182.324-.294v-1.038c-.432.02-.794.058-1.086.114-.288.052-.52.12-.696.204a.923.923 0 0 0-.378.294.664.664 0 0 0-.108.366c0 .26.076.446.228.558.156.112.358.168.606.168Z"
                />
            </svg>
        </g>
        <a
            id="title"
            href="https://ourworldindata.org/explorers/population-and-demography?indicator=Population&amp;Sex=Both+sexes&amp;Age=15%E2%80%9364+years&amp;Projection+scenario=High&amp;country=CHN~IND~USA~IDN~PAK~NGA~BRA~JPN"
            style="font-family:&#x27;Playfair Display&#x27;, Georgia, &#x27;Times New Roman&#x27;, &#x27;Liberation Serif&#x27;, serif"
        >
            <text
                font-size="25.00"
                font-weight="600"
                x="16.0"
                y="40.3"
                fill="#2d2e2d"
            >
                <tspan x="16" y="40.25">Number of people aged 15 to 64</tspan>
            </text>
        </a>
        <g id="subtitle" class="markdown-text-wrap">
            <text
                x="16.0"
                y="66.5"
                style="font-size: 15px; line-height: 1.2"
                fill="#5b5b5b"
            >
                <tspan x="16" y="66.5">
                    Future projections are based on the
                    <tspan class="dod-span" data-id="un-projection-scenarios">
                        UN&#x27;s high scenario
                    </tspan>
                    .
                </tspan>
            </text>
        </g>
    </g>
    <g id="chart-area" style="pointer-events: none">
        <g id="horizontal-axis" class="HorizontalAxis">
            <g id="tick-marks">
                <line
                    id="1950"
                    x1="84.8"
                    y1="531.9"
                    x2="84.8"
                    y2="537.4"
                    stroke="#999"
                    stroke-width="1"
                ></line>
                <line
                    id="2100"
                    x1="727.4"
                    y1="531.9"
                    x2="727.4"
                    y2="537.4"
                    stroke="#999"
                    stroke-width="1"
                ></line>
                <line
                    id="1980"
                    x1="213.3"
                    y1="531.9"
                    x2="213.3"
                    y2="537.4"
                    stroke="#999"
                    stroke-width="1"
                ></line>
                <line
                    id="2000"
                    x1="299"
                    y1="531.9"
                    x2="299"
                    y2="537.4"
                    stroke="#999"
                    stroke-width="1"
                ></line>
                <line
                    id="2020"
                    x1="384.7"
                    y1="531.9"
                    x2="384.7"
                    y2="537.4"
                    stroke="#999"
                    stroke-width="1"
                ></line>
                <line
                    id="2040"
                    x1="470.4"
                    y1="531.9"
                    x2="470.4"
                    y2="537.4"
                    stroke="#999"
                    stroke-width="1"
                ></line>
                <line
                    id="2060"
                    x1="556"
                    y1="531.9"
                    x2="556"
                    y2="537.4"
                    stroke="#999"
                    stroke-width="1"
                ></line>
                <line
                    id="2080"
                    x1="641.7"
                    y1="531.9"
                    x2="641.7"
                    y2="537.4"
                    stroke="#999"
                    stroke-width="1"
                ></line>
            </g>
            <g id="tick-labels">
                <text
                    x="84.83000000000001"
                    y="550.4"
                    fill="#5b5b5b"
                    text-anchor="start"
                    font-size="13"
                >
                    1950
                </text>
                <text
                    x="727.39"
                    y="550.4"
                    fill="#5b5b5b"
                    text-anchor="end"
                    font-size="13"
                >
                    2100
                </text>
                <text
                    x="213.3"
                    y="550.4"
                    fill="#5b5b5b"
                    text-anchor="middle"
                    font-size="13"
                >
                    1980
                </text>
                <text
                    x="299"
                    y="550.4"
                    fill="#5b5b5b"
                    text-anchor="middle"
                    font-size="13"
                >
                    2000
                </text>
                <text
                    x="384.7"
                    y="550.4"
                    fill="#5b5b5b"
                    text-anchor="middle"
                    font-size="13"
                >
                    2020
                </text>
                <text
                    x="470.4"
                    y="550.4"
                    fill="#5b5b5b"
                    text-anchor="middle"
                    font-size="13"
                >
                    2040
                </text>
                <text
                    x="556"
                    y="550.4"
                    fill="#5b5b5b"
                    text-anchor="middle"
                    font-size="13"
                >
                    2060
                </text>
                <text
                    x="641.7"
                    y="550.4"
                    fill="#5b5b5b"
                    text-anchor="middle"
                    font-size="13"
                >
                    2080
                </text>
            </g>
        </g>
        <g id="vertical-axis" class="VerticalAxis">
            <g id="tick-labels">
                <text
                    x="79.83"
                    y="532.4"
                    dy=".32em"
                    text-anchor="end"
                    fill="#5b5b5b"
                    font-size="13"
                >
                    0
                </text>
                <text
                    x="79.83"
                    y="469.5"
                    dy=".32em"
                    text-anchor="end"
                    fill="#5b5b5b"
                    font-size="13"
                >
                    200 million
                </text>
                <text
                    x="79.83"
                    y="406.6"
                    dy=".32em"
                    text-anchor="end"
                    fill="#5b5b5b"
                    font-size="13"
                >
                    400 million
                </text>
                <text
                    x="79.83"
                    y="343.7"
                    dy=".32em"
                    text-anchor="end"
                    fill="#5b5b5b"
                    font-size="13"
                >
                    600 million
                </text>
                <text
                    x="79.83"
                    y="280.7"
                    dy=".32em"
                    text-anchor="end"
                    fill="#5b5b5b"
                    font-size="13"
                >
                    800 million
                </text>
                <text
                    x="79.83"
                    y="217.8"
                    dy=".32em"
                    text-anchor="end"
                    fill="#5b5b5b"
                    font-size="13"
                >
                    1 billion
                </text>
                <text
                    x="79.83"
                    y="154.9"
                    dy=".32em"
                    text-anchor="end"
                    fill="#5b5b5b"
                    font-size="13"
                >
                    1.2 billion
                </text>
                <text
                    x="79.83"
                    y="92"
                    dy=".32em"
                    text-anchor="end"
                    fill="#5b5b5b"
                    font-size="13"
                >
                    1.4 billion
                </text>
            </g>
        </g>
        <g id="horizontal-grid-lines" class="AxisGridLines horizontalLines">
            <line
                id="0"
                class="zero-line"
                x1="84.83"
                y1="532.4"
                x2="727.39"
                y2="532.4"
                stroke="#999"
            ></line>
            <line
                id="200-million"
                x1="84.83"
                y1="469.5"
                x2="727.39"
                y2="469.5"
                stroke="#ddd"
                stroke-dasharray="4,4"
            ></line>
            <line
                id="400-million"
                x1="84.83"
                y1="406.6"
                x2="727.39"
                y2="406.6"
                stroke="#ddd"
                stroke-dasharray="4,4"
            ></line>
            <line
                id="600-million"
                x1="84.83"
                y1="343.7"
                x2="727.39"
                y2="343.7"
                stroke="#ddd"
                stroke-dasharray="4,4"
            ></line>
            <line
                id="800-million"
                x1="84.83"
                y1="280.7"
                x2="727.39"
                y2="280.7"
                stroke="#ddd"
                stroke-dasharray="4,4"
            ></line>
            <line
                id="1-billion"
                x1="84.83"
                y1="217.8"
                x2="727.39"
                y2="217.8"
                stroke="#ddd"
                stroke-dasharray="4,4"
            ></line>
            <line
                id="1.2-billion"
                x1="84.83"
                y1="154.9"
                x2="727.39"
                y2="154.9"
                stroke="#ddd"
                stroke-dasharray="4,4"
            ></line>
            <line
                id="1.4-billion"
                x1="84.83"
                y1="92"
                x2="727.39"
                y2="92"
                stroke="#ddd"
                stroke-dasharray="4,4"
            ></line>
        </g>
        <g id="vertical-labels" transform="translate(727.39, 0)">
            <g id="connectors" style="pointer-events: none">
                <path
                    id="India"
                    d="M4,128.7 H12.5 V128.7 H21"
                    stroke="#999"
                    stroke-width="0.5"
                    fill="none"
                ></path>
                <path
                    id="China"
                    d="M4,372.7 H9.666666666666668 V367.79999999999995 H21"
                    stroke="#999"
                    stroke-width="0.5"
                    fill="none"
                ></path>
                <path
                    id="Pakistan"
                    d="M4,389.1 H15.333333333333336 V386.09999999999997 H21"
                    stroke="#999"
                    stroke-width="0.5"
                    fill="none"
                ></path>
                <path
                    id="Nigeria"
                    d="M4,396.5 H15.333333333333336 V404.4 H21"
                    stroke="#999"
                    stroke-width="0.5"
                    fill="none"
                ></path>
                <path
                    id="United-States"
                    d="M4,428.2 H12.5 V428.2 H21"
                    stroke="#999"
                    stroke-width="0.5"
                    fill="none"
                ></path>
                <path
                    id="Indonesia"
                    d="M4,450.7 H12.5 V450.7 H21"
                    stroke="#999"
                    stroke-width="0.5"
                    fill="none"
                ></path>
                <path
                    id="Brazil"
                    d="M4,489.1 H12.5 V489.1 H21"
                    stroke="#999"
                    stroke-width="0.5"
                    fill="none"
                ></path>
                <path
                    id="Japan"
                    d="M4,514 H12.5 V514 H21"
                    stroke="#999"
                    stroke-width="0.5"
                    fill="none"
                ></path>
            </g>
            <g id="text-labels" style="pointer-events: none">
                <text
                    id="label__India"
                    x="25.0"
                    y="133.5"
                    text-anchor="start"
                    font-size="13.00"
                    opacity="1"
                >
                    <tspan x="25.0" font-weight="400" fill="#996d39">
                        India
                    </tspan>
                </text>
                <text
                    id="label__China"
                    x="25.0"
                    y="372.6"
                    text-anchor="start"
                    font-size="13.00"
                    opacity="1"
                >
                    <tspan x="25.0" font-weight="400" fill="#b13507">
                        China
                    </tspan>
                </text>
                <text
                    id="label__Pakistan"
                    x="25.0"
                    y="390.9"
                    text-anchor="start"
                    font-size="13.00"
                    opacity="1"
                >
                    <tspan x="25.0" font-weight="400" fill="#00295b">
                        Pakistan
                    </tspan>
                </text>
                <text
                    id="label__Nigeria"
                    x="25.0"
                    y="409.2"
                    text-anchor="start"
                    font-size="13.00"
                    opacity="1"
                >
                    <tspan x="25.0" font-weight="400" fill="#883039">
                        Nigeria
                    </tspan>
                </text>
                <text
                    id="label__United-States"
                    x="25.0"
                    y="433.0"
                    text-anchor="start"
                    font-size="13.00"
                    opacity="1"
                >
                    <tspan x="25.0" font-weight="400" fill="#a2559c">
                        United States
                    </tspan>
                </text>
                <text
                    id="label__Indonesia"
                    x="25.0"
                    y="455.5"
                    text-anchor="start"
                    font-size="13.00"
                    opacity="1"
                >
                    <tspan x="25.0" font-weight="400" fill="#2c8465">
                        Indonesia
                    </tspan>
                </text>
                <text
                    id="label__Brazil"
                    x="25.0"
                    y="493.9"
                    text-anchor="start"
                    font-size="13.00"
                    opacity="1"
                >
                    <tspan x="25.0" font-weight="400" fill="#4c6a9c">
                        Brazil
                    </tspan>
                </text>
                <text
                    id="label__Japan"
                    x="25.0"
                    y="518.8"
                    text-anchor="start"
                    font-size="13.00"
                    opacity="1"
                >
                    <tspan x="25.0" font-weight="400" fill="#6d3e91">
                        Japan
                    </tspan>
                </text>
            </g>
        </g>
        <g id="lines">
            <path
                fill="none"
                stroke-linecap="butt"
                stroke-linejoin="round"
                stroke="#fff"
                id="outline__Japan"
                stroke-width="2.5"
                d="M84.8 516.1L89.1 515.8L93.4 515.5L97.7 515.2L102 514.9L106.2 514.5L110.5 514.1L114.8 513.7L119.1 513.4L123.4 513.1L127.7 512.9L132 512.5L136.2 512L140.5 511.5L144.8 511L149.1 510.6L153.4 510.2L157.7 509.9L161.9 509.6L166.2 509.3L170.5 509L174.8 508.8L179.1 508.6L183.4 508.4L187.6 508.3L191.9 508.1L196.2 507.9L200.5 507.8L204.8 507.6L209.1 507.4L213.3 507.3L217.6 507.2L221.9 507.1L226.2 506.9L230.5 506.7L234.8 506.6L239 506.3L243.3 506L247.6 505.8L251.9 505.5L256.2 505.3L260.5 505.1L264.7 505L269 504.9L273.3 504.9L277.6 504.8L281.9 504.9L286.2 504.9L290.4 505L294.7 505.1L299 505.2L303.3 505.3L307.6 505.4L311.9 505.5L316.2 505.6L320.4 505.9L324.7 506.1L329 506.3L333.3 506.5L337.6 506.7L341.9 506.8L346.1 507L350.4 507.3L354.7 507.7L359 508L363.3 508.3L367.6 508.5L371.8 508.7L376.1 508.8L380.4 508.9L384.7 509L389 509.2L393.3 509.3L397.5 509.4"
            ></path>
            <path
                fill="none"
                stroke-linecap="butt"
                stroke-linejoin="round"
                stroke="#6d3e91"
                id="line__Japan"
                stroke-width="1.5"
                stroke-opacity="1"
                d="M84.8 516.1L89.1 515.8L93.4 515.5L97.7 515.2L102 514.9L106.2 514.5L110.5 514.1L114.8 513.7L119.1 513.4L123.4 513.1L127.7 512.9L132 512.5L136.2 512L140.5 511.5L144.8 511L149.1 510.6L153.4 510.2L157.7 509.9L161.9 509.6L166.2 509.3L170.5 509L174.8 508.8L179.1 508.6L183.4 508.4L187.6 508.3L191.9 508.1L196.2 507.9L200.5 507.8L204.8 507.6L209.1 507.4L213.3 507.3L217.6 507.2L221.9 507.1L226.2 506.9L230.5 506.7L234.8 506.6L239 506.3L243.3 506L247.6 505.8L251.9 505.5L256.2 505.3L260.5 505.1L264.7 505L269 504.9L273.3 504.9L277.6 504.8L281.9 504.9L286.2 504.9L290.4 505L294.7 505.1L299 505.2L303.3 505.3L307.6 505.4L311.9 505.5L316.2 505.6L320.4 505.9L324.7 506.1L329 506.3L333.3 506.5L337.6 506.7L341.9 506.8L346.1 507L350.4 507.3L354.7 507.7L359 508L363.3 508.3L367.6 508.5L371.8 508.7L376.1 508.8L380.4 508.9L384.7 509L389 509.2L393.3 509.3L397.5 509.4"
            ></path>
            <path
                fill="none"
                stroke-linecap="butt"
                stroke-linejoin="round"
                stroke="#fff"
                id="outline__Japan"
                stroke-width="2.5"
                d="M401.8 509.5L406.1 509.6L410.4 509.8L414.7 509.9L419 510.1L423.2 510.2L427.5 510.4L431.8 510.6L436.1 510.7L440.4 511L444.7 511.3L448.9 511.5L453.2 511.9L457.5 512.2L461.8 512.6L466.1 512.9L470.4 513.2L474.6 513.5L478.9 513.7L483.2 513.9L487.5 514.1L491.8 514.2L496.1 514.3L500.4 514.4L504.6 514.5L508.9 514.6L513.2 514.7L517.5 514.7L521.8 514.8L526.1 514.8L530.3 514.8L534.6 514.8L538.9 514.8L543.2 514.8L547.5 514.8L551.8 514.8L556 514.8L560.3 514.8L564.6 514.7L568.9 514.7L573.2 514.7L577.5 514.8L581.7 514.8L586 514.8L590.3 514.8L594.6 514.9L598.9 514.9L603.2 514.9L607.4 515L611.7 515L616 515.1L620.3 515.1L624.6 515.1L628.9 515.1L633.1 515.2L637.4 515.1L641.7 515.1L646 515.1L650.3 515.1L654.6 515L658.9 515L663.1 514.9L667.4 514.8L671.7 514.7L676 514.6L680.3 514.5L684.6 514.4L688.8 514.4L693.1 514.3L697.4 514.2L701.7 514.2L706 514.1L710.3 514.1L714.5 514.1L718.8 514L723.1 514L727.4 514"
            ></path>
            <path
                fill="none"
                stroke-linecap="butt"
                stroke-linejoin="round"
                stroke="#6d3e91"
                id="line__Japan"
                stroke-width="1.5"
                stroke-opacity="1"
                stroke-dasharray="2,3"
                d="M401.8 509.5L406.1 509.6L410.4 509.8L414.7 509.9L419 510.1L423.2 510.2L427.5 510.4L431.8 510.6L436.1 510.7L440.4 511L444.7 511.3L448.9 511.5L453.2 511.9L457.5 512.2L461.8 512.6L466.1 512.9L470.4 513.2L474.6 513.5L478.9 513.7L483.2 513.9L487.5 514.1L491.8 514.2L496.1 514.3L500.4 514.4L504.6 514.5L508.9 514.6L513.2 514.7L517.5 514.7L521.8 514.8L526.1 514.8L530.3 514.8L534.6 514.8L538.9 514.8L543.2 514.8L547.5 514.8L551.8 514.8L556 514.8L560.3 514.8L564.6 514.7L568.9 514.7L573.2 514.7L577.5 514.8L581.7 514.8L586 514.8L590.3 514.8L594.6 514.9L598.9 514.9L603.2 514.9L607.4 515L611.7 515L616 515.1L620.3 515.1L624.6 515.1L628.9 515.1L633.1 515.2L637.4 515.1L641.7 515.1L646 515.1L650.3 515.1L654.6 515L658.9 515L663.1 514.9L667.4 514.8L671.7 514.7L676 514.6L680.3 514.5L684.6 514.4L688.8 514.4L693.1 514.3L697.4 514.2L701.7 514.2L706 514.1L710.3 514.1L714.5 514.1L718.8 514L723.1 514L727.4 514"
            ></path>
            <path
                fill="none"
                stroke-linecap="butt"
                stroke-linejoin="round"
                stroke="#fff"
                id="outline__Brazil"
                stroke-width="2.5"
                d="M84.8 523.1L89.1 522.9L93.4 522.6L97.7 522.4L102 522.1L106.2 521.8L110.5 521.5L114.8 521.2L119.1 520.9L123.4 520.6L127.7 520.3L132 519.9L136.2 519.6L140.5 519.2L144.8 518.8L149.1 518.4L153.4 518L157.7 517.5L161.9 517.1L166.2 516.6L170.5 516.1L174.8 515.6L179.1 515L183.4 514.5L187.6 513.9L191.9 513.3L196.2 512.7L200.5 512.1L204.8 511.5L209.1 510.9L213.3 510.3L217.6 509.6L221.9 509L226.2 508.4L230.5 507.8L234.8 507.2L239 506.6L243.3 506L247.6 505.4L251.9 504.7L256.2 504.1L260.5 503.4L264.7 502.7L269 502L273.3 501.3L277.6 500.6L281.9 499.8L286.2 499.1L290.4 498.3L294.7 497.6L299 496.8L303.3 496.1L307.6 495.4L311.9 494.7L316.2 494L320.4 493.4L324.7 492.8L329 492.2L333.3 491.6L337.6 491.1L341.9 490.6L346.1 490.1L350.4 489.6L354.7 489.1L359 488.6L363.3 488.2L367.6 487.8L371.8 487.5L376.1 487.2L380.4 486.9L384.7 486.7L389 486.5L393.3 486.4L397.5 486.3"
            ></path>
            <path
                fill="none"
                stroke-linecap="butt"
                stroke-linejoin="round"
                stroke="#4c6a9c"
                id="line__Brazil"
                stroke-width="1.5"
                stroke-opacity="1"
                d="M84.8 523.1L89.1 522.9L93.4 522.6L97.7 522.4L102 522.1L106.2 521.8L110.5 521.5L114.8 521.2L119.1 520.9L123.4 520.6L127.7 520.3L132 519.9L136.2 519.6L140.5 519.2L144.8 518.8L149.1 518.4L153.4 518L157.7 517.5L161.9 517.1L166.2 516.6L170.5 516.1L174.8 515.6L179.1 515L183.4 514.5L187.6 513.9L191.9 513.3L196.2 512.7L200.5 512.1L204.8 511.5L209.1 510.9L213.3 510.3L217.6 509.6L221.9 509L226.2 508.4L230.5 507.8L234.8 507.2L239 506.6L243.3 506L247.6 505.4L251.9 504.7L256.2 504.1L260.5 503.4L264.7 502.7L269 502L273.3 501.3L277.6 500.6L281.9 499.8L286.2 499.1L290.4 498.3L294.7 497.6L299 496.8L303.3 496.1L307.6 495.4L311.9 494.7L316.2 494L320.4 493.4L324.7 492.8L329 492.2L333.3 491.6L337.6 491.1L341.9 490.6L346.1 490.1L350.4 489.6L354.7 489.1L359 488.6L363.3 488.2L367.6 487.8L371.8 487.5L376.1 487.2L380.4 486.9L384.7 486.7L389 486.5L393.3 486.4L397.5 486.3"
            ></path>
            <path
                fill="none"
                stroke-linecap="butt"
                stroke-linejoin="round"
                stroke="#fff"
                id="outline__Brazil"
                stroke-width="2.5"
                d="M401.8 486.2L406.1 486.1L410.4 486.1L414.7 486L419 486L423.2 486L427.5 485.9L431.8 485.9L436.1 485.9L440.4 485.9L444.7 485.9L448.9 485.9L453.2 486L457.5 486.1L461.8 486.2L466.1 486.3L470.4 486.3L474.6 486.4L478.9 486.5L483.2 486.6L487.5 486.7L491.8 486.8L496.1 487L500.4 487.1L504.6 487.3L508.9 487.4L513.2 487.5L517.5 487.6L521.8 487.8L526.1 487.9L530.3 488L534.6 488.1L538.9 488.2L543.2 488.3L547.5 488.4L551.8 488.5L556 488.6L560.3 488.7L564.6 488.9L568.9 489L573.2 489.1L577.5 489.2L581.7 489.4L586 489.4L590.3 489.5L594.6 489.6L598.9 489.6L603.2 489.6L607.4 489.7L611.7 489.7L616 489.7L620.3 489.7L624.6 489.6L628.9 489.6L633.1 489.6L637.4 489.6L641.7 489.6L646 489.5L650.3 489.5L654.6 489.4L658.9 489.4L663.1 489.3L667.4 489.2L671.7 489.1L676 489L680.3 489L684.6 489L688.8 489L693.1 488.9L697.4 488.9L701.7 488.9L706 488.9L710.3 489L714.5 489L718.8 489L723.1 489L727.4 489.1"
            ></path>
            <path
                fill="none"
                stroke-linecap="butt"
                stroke-linejoin="round"
                stroke="#4c6a9c"
                id="line__Brazil"
                stroke-width="1.5"
                stroke-opacity="1"
                stroke-dasharray="2,3"
                d="M401.8 486.2L406.1 486.1L410.4 486.1L414.7 486L419 486L423.2 486L427.5 485.9L431.8 485.9L436.1 485.9L440.4 485.9L444.7 485.9L448.9 485.9L453.2 486L457.5 486.1L461.8 486.2L466.1 486.3L470.4 486.3L474.6 486.4L478.9 486.5L483.2 486.6L487.5 486.7L491.8 486.8L496.1 487L500.4 487.1L504.6 487.3L508.9 487.4L513.2 487.5L517.5 487.6L521.8 487.8L526.1 487.9L530.3 488L534.6 488.1L538.9 488.2L543.2 488.3L547.5 488.4L551.8 488.5L556 488.6L560.3 488.7L564.6 488.9L568.9 489L573.2 489.1L577.5 489.2L581.7 489.4L586 489.4L590.3 489.5L594.6 489.6L598.9 489.6L603.2 489.6L607.4 489.7L611.7 489.7L616 489.7L620.3 489.7L624.6 489.6L628.9 489.6L633.1 489.6L637.4 489.6L641.7 489.6L646 489.5L650.3 489.5L654.6 489.4L658.9 489.4L663.1 489.3L667.4 489.2L671.7 489.1L676 489L680.3 489L684.6 489L688.8 489L693.1 488.9L697.4 488.9L701.7 488.9L706 488.9L710.3 489L714.5 489L718.8 489L723.1 489L727.4 489.1"
            ></path>
            <path
                fill="none"
                stroke-linecap="butt"
                stroke-linejoin="round"
                stroke="#fff"
                id="outline__Nigeria"
                stroke-width="2.5"
                d="M84.8 525.9L89.1 525.8L93.4 525.6L97.7 525.5L102 525.4L106.2 525.2L110.5 525.1L114.8 525L119.1 524.8L123.4 524.7L127.7 524.5L132 524.4L136.2 524.2L140.5 524L144.8 523.9L149.1 523.7L153.4 523.6L157.7 523.4L161.9 523.2L166.2 523L170.5 522.8L174.8 522.6L179.1 522.4L183.4 522.2L187.6 522L191.9 521.8L196.2 521.5L200.5 521.2L204.8 520.9L209.1 520.6L213.3 520.3L217.6 519.9L221.9 519.6L226.2 519.3L230.5 519L234.8 518.7L239 518.3L243.3 517.9L247.6 517.5L251.9 517.1L256.2 516.7L260.5 516.2L264.7 515.7L269 515.2L273.3 514.6L277.6 514.1L281.9 513.5L286.2 513L290.4 512.4L294.7 511.8L299 511.2L303.3 510.7L307.6 510.1L311.9 509.5L316.2 508.9L320.4 508.2L324.7 507.6L329 506.9L333.3 506.3L337.6 505.6L341.9 504.8L346.1 504.1L350.4 503.3L354.7 502.5L359 501.6L363.3 500.8L367.6 499.9L371.8 498.9L376.1 497.9L380.4 496.9L384.7 495.9L389 494.9L393.3 493.8L397.5 492.6"
            ></path>
            <path
                fill="none"
                stroke-linecap="butt"
                stroke-linejoin="round"
                stroke="#883039"
                id="line__Nigeria"
                stroke-width="1.5"
                stroke-opacity="1"
                d="M84.8 525.9L89.1 525.8L93.4 525.6L97.7 525.5L102 525.4L106.2 525.2L110.5 525.1L114.8 525L119.1 524.8L123.4 524.7L127.7 524.5L132 524.4L136.2 524.2L140.5 524L144.8 523.9L149.1 523.7L153.4 523.6L157.7 523.4L161.9 523.2L166.2 523L170.5 522.8L174.8 522.6L179.1 522.4L183.4 522.2L187.6 522L191.9 521.8L196.2 521.5L200.5 521.2L204.8 520.9L209.1 520.6L213.3 520.3L217.6 519.9L221.9 519.6L226.2 519.3L230.5 519L234.8 518.7L239 518.3L243.3 517.9L247.6 517.5L251.9 517.1L256.2 516.7L260.5 516.2L264.7 515.7L269 515.2L273.3 514.6L277.6 514.1L281.9 513.5L286.2 513L290.4 512.4L294.7 511.8L299 511.2L303.3 510.7L307.6 510.1L311.9 509.5L316.2 508.9L320.4 508.2L324.7 507.6L329 506.9L333.3 506.3L337.6 505.6L341.9 504.8L346.1 504.1L350.4 503.3L354.7 502.5L359 501.6L363.3 500.8L367.6 499.9L371.8 498.9L376.1 497.9L380.4 496.9L384.7 495.9L389 494.9L393.3 493.8L397.5 492.6"
            ></path>
            <path
                fill="none"
                stroke-linecap="butt"
                stroke-linejoin="round"
                stroke="#fff"
                id="outline__Nigeria"
                stroke-width="2.5"
                d="M401.8 491.5L406.1 490.3L410.4 489L414.7 487.8L419 486.5L423.2 485.2L427.5 483.9L431.8 482.6L436.1 481.4L440.4 480.1L444.7 478.9L448.9 477.7L453.2 476.5L457.5 475.3L461.8 474.1L466.1 472.8L470.4 471.5L474.6 470.1L478.9 468.8L483.2 467.4L487.5 466L491.8 464.6L496.1 463.2L500.4 461.7L504.6 460.2L508.9 458.7L513.2 457.2L517.5 455.7L521.8 454.1L526.1 452.6L530.3 451L534.6 449.5L538.9 448L543.2 446.5L547.5 445L551.8 443.5L556 442.1L560.3 440.6L564.6 439.2L568.9 437.8L573.2 436.4L577.5 435L581.7 433.6L586 432.3L590.3 431L594.6 429.7L598.9 428.4L603.2 427.2L607.4 426L611.7 424.7L616 423.5L620.3 422.4L624.6 421.2L628.9 420L633.1 418.9L637.4 417.8L641.7 416.6L646 415.5L650.3 414.4L654.6 413.2L658.9 412.1L663.1 410.9L667.4 409.8L671.7 408.6L676 407.5L680.3 406.5L684.6 405.5L688.8 404.5L693.1 403.5L697.4 402.6L701.7 401.7L706 400.8L710.3 399.9L714.5 399L718.8 398.2L723.1 397.3L727.4 396.5"
            ></path>
            <path
                fill="none"
                stroke-linecap="butt"
                stroke-linejoin="round"
                stroke="#883039"
                id="line__Nigeria"
                stroke-width="1.5"
                stroke-opacity="1"
                stroke-dasharray="2,3"
                d="M401.8 491.5L406.1 490.3L410.4 489L414.7 487.8L419 486.5L423.2 485.2L427.5 483.9L431.8 482.6L436.1 481.4L440.4 480.1L444.7 478.9L448.9 477.7L453.2 476.5L457.5 475.3L461.8 474.1L466.1 472.8L470.4 471.5L474.6 470.1L478.9 468.8L483.2 467.4L487.5 466L491.8 464.6L496.1 463.2L500.4 461.7L504.6 460.2L508.9 458.7L513.2 457.2L517.5 455.7L521.8 454.1L526.1 452.6L530.3 451L534.6 449.5L538.9 448L543.2 446.5L547.5 445L551.8 443.5L556 442.1L560.3 440.6L564.6 439.2L568.9 437.8L573.2 436.4L577.5 435L581.7 433.6L586 432.3L590.3 431L594.6 429.7L598.9 428.4L603.2 427.2L607.4 426L611.7 424.7L616 423.5L620.3 422.4L624.6 421.2L628.9 420L633.1 418.9L637.4 417.8L641.7 416.6L646 415.5L650.3 414.4L654.6 413.2L658.9 412.1L663.1 410.9L667.4 409.8L671.7 408.6L676 407.5L680.3 406.5L684.6 405.5L688.8 404.5L693.1 403.5L697.4 402.6L701.7 401.7L706 400.8L710.3 399.9L714.5 399L718.8 398.2L723.1 397.3L727.4 396.5"
            ></path>
            <path
                fill="none"
                stroke-linecap="butt"
                stroke-linejoin="round"
                stroke="#fff"
                id="outline__Pakistan"
                stroke-width="2.5"
                d="M84.8 526.2L89.1 526L93.4 525.8L97.7 525.7L102 525.5L106.2 525.3L110.5 525.1L114.8 524.9L119.1 524.7L123.4 524.5L127.7 524.3L132 524.1L136.2 523.9L140.5 523.7L144.8 523.6L149.1 523.4L153.4 523.2L157.7 523L161.9 522.8L166.2 522.6L170.5 522.3L174.8 522.1L179.1 521.8L183.4 521.5L187.6 521.2L191.9 520.9L196.2 520.5L200.5 520.1L204.8 519.7L209.1 519.2L213.3 518.6L217.6 517.9L221.9 517.4L226.2 516.8L230.5 516.4L234.8 516L239 515.5L243.3 514.9L247.6 514.4L251.9 513.8L256.2 513.2L260.5 512.6L264.7 512.1L269 511.6L273.3 511L277.6 510.4L281.9 509.6L286.2 508.9L290.4 508.1L294.7 507.3L299 506.5L303.3 505.5L307.6 504.7L311.9 503.9L316.2 503L320.4 502L324.7 501L329 499.9L333.3 498.8L337.6 497.7L341.9 496.7L346.1 495.8L350.4 495L354.7 494.4L359 493.8L363.3 493.2L367.6 492.6L371.8 491.9L376.1 491.2L380.4 490.3L384.7 489.4L389 488.4L393.3 487.5L397.5 486.6"
            ></path>
            <path
                fill="none"
                stroke-linecap="butt"
                stroke-linejoin="round"
                stroke="#00295b"
                id="line__Pakistan"
                stroke-width="1.5"
                stroke-opacity="1"
                d="M84.8 526.2L89.1 526L93.4 525.8L97.7 525.7L102 525.5L106.2 525.3L110.5 525.1L114.8 524.9L119.1 524.7L123.4 524.5L127.7 524.3L132 524.1L136.2 523.9L140.5 523.7L144.8 523.6L149.1 523.4L153.4 523.2L157.7 523L161.9 522.8L166.2 522.6L170.5 522.3L174.8 522.1L179.1 521.8L183.4 521.5L187.6 521.2L191.9 520.9L196.2 520.5L200.5 520.1L204.8 519.7L209.1 519.2L213.3 518.6L217.6 517.9L221.9 517.4L226.2 516.8L230.5 516.4L234.8 516L239 515.5L243.3 514.9L247.6 514.4L251.9 513.8L256.2 513.2L260.5 512.6L264.7 512.1L269 511.6L273.3 511L277.6 510.4L281.9 509.6L286.2 508.9L290.4 508.1L294.7 507.3L299 506.5L303.3 505.5L307.6 504.7L311.9 503.9L316.2 503L320.4 502L324.7 501L329 499.9L333.3 498.8L337.6 497.7L341.9 496.7L346.1 495.8L350.4 495L354.7 494.4L359 493.8L363.3 493.2L367.6 492.6L371.8 491.9L376.1 491.2L380.4 490.3L384.7 489.4L389 488.4L393.3 487.5L397.5 486.6"
            ></path>
            <path
                fill="none"
                stroke-linecap="butt"
                stroke-linejoin="round"
                stroke="#fff"
                id="outline__Pakistan"
                stroke-width="2.5"
                d="M401.8 485.7L406.1 484.7L410.4 483.6L414.7 482.6L419 481.4L423.2 480.3L427.5 479.2L431.8 478.1L436.1 477L440.4 475.8L444.7 474.7L448.9 473.6L453.2 472.4L457.5 471.3L461.8 470.1L466.1 468.9L470.4 467.6L474.6 466.4L478.9 465.1L483.2 463.8L487.5 462.5L491.8 461.1L496.1 459.7L500.4 458.3L504.6 457L508.9 455.6L513.2 454.1L517.5 452.6L521.8 451.2L526.1 449.7L530.3 448.3L534.6 446.9L538.9 445.5L543.2 444L547.5 442.7L551.8 441.3L556 439.9L560.3 438.5L564.6 437.2L568.9 435.8L573.2 434.5L577.5 433.2L581.7 431.9L586 430.5L590.3 429.2L594.6 427.8L598.9 426.5L603.2 425.1L607.4 423.8L611.7 422.5L616 421.2L620.3 419.9L624.6 418.6L628.9 417.3L633.1 416L637.4 414.7L641.7 413.4L646 412L650.3 410.7L654.6 409.3L658.9 408L663.1 406.7L667.4 405.3L671.7 404L676 402.7L680.3 401.5L684.6 400.3L688.8 399.1L693.1 397.9L697.4 396.7L701.7 395.5L706 394.4L710.3 393.3L714.5 392.2L718.8 391.1L723.1 390.1L727.4 389.1"
            ></path>
            <path
                fill="none"
                stroke-linecap="butt"
                stroke-linejoin="round"
                stroke="#00295b"
                id="line__Pakistan"
                stroke-width="1.5"
                stroke-opacity="1"
                stroke-dasharray="2,3"
                d="M401.8 485.7L406.1 484.7L410.4 483.6L414.7 482.6L419 481.4L423.2 480.3L427.5 479.2L431.8 478.1L436.1 477L440.4 475.8L444.7 474.7L448.9 473.6L453.2 472.4L457.5 471.3L461.8 470.1L466.1 468.9L470.4 467.6L474.6 466.4L478.9 465.1L483.2 463.8L487.5 462.5L491.8 461.1L496.1 459.7L500.4 458.3L504.6 457L508.9 455.6L513.2 454.1L517.5 452.6L521.8 451.2L526.1 449.7L530.3 448.3L534.6 446.9L538.9 445.5L543.2 444L547.5 442.7L551.8 441.3L556 439.9L560.3 438.5L564.6 437.2L568.9 435.8L573.2 434.5L577.5 433.2L581.7 431.9L586 430.5L590.3 429.2L594.6 427.8L598.9 426.5L603.2 425.1L607.4 423.8L611.7 422.5L616 421.2L620.3 419.9L624.6 418.6L628.9 417.3L633.1 416L637.4 414.7L641.7 413.4L646 412L650.3 410.7L654.6 409.3L658.9 408L663.1 406.7L667.4 405.3L671.7 404L676 402.7L680.3 401.5L684.6 400.3L688.8 399.1L693.1 397.9L697.4 396.7L701.7 395.5L706 394.4L710.3 393.3L714.5 392.2L718.8 391.1L723.1 390.1L727.4 389.1"
            ></path>
            <path
                fill="none"
                stroke-linecap="butt"
                stroke-linejoin="round"
                stroke="#fff"
                id="outline__Indonesia"
                stroke-width="2.5"
                d="M84.8 520.1L89.1 519.7L93.4 519.3L97.7 518.9L102 518.6L106.2 518.2L110.5 517.8L114.8 517.4L119.1 517.1L123.4 516.7L127.7 516.3L132 516L136.2 515.6L140.5 515.3L144.8 514.9L149.1 514.6L153.4 514.4L157.7 514L161.9 513.6L166.2 513.1L170.5 512.7L174.8 512.1L179.1 511.6L183.4 511L187.6 510.4L191.9 509.8L196.2 509.1L200.5 508.4L204.8 507.7L209.1 507L213.3 506.3L217.6 505.5L221.9 504.7L226.2 503.8L230.5 503L234.8 502.1L239 501.2L243.3 500.4L247.6 499.5L251.9 498.6L256.2 497.7L260.5 496.8L264.7 495.9L269 495L273.3 494.1L277.6 493.2L281.9 492.3L286.2 491.4L290.4 490.5L294.7 489.6L299 488.8L303.3 488L307.6 487.2L311.9 486.4L316.2 485.6L320.4 484.9L324.7 484.1L329 483.4L333.3 482.6L337.6 481.9L341.9 481.1L346.1 480.3L350.4 479.5L354.7 478.8L359 478L363.3 477.3L367.6 476.6L371.8 475.9L376.1 475.2L380.4 474.6L384.7 474L389 473.4L393.3 472.8L397.5 472.2"
            ></path>
            <path
                fill="none"
                stroke-linecap="butt"
                stroke-linejoin="round"
                stroke="#2c8465"
                id="line__Indonesia"
                stroke-width="1.5"
                stroke-opacity="1"
                d="M84.8 520.1L89.1 519.7L93.4 519.3L97.7 518.9L102 518.6L106.2 518.2L110.5 517.8L114.8 517.4L119.1 517.1L123.4 516.7L127.7 516.3L132 516L136.2 515.6L140.5 515.3L144.8 514.9L149.1 514.6L153.4 514.4L157.7 514L161.9 513.6L166.2 513.1L170.5 512.7L174.8 512.1L179.1 511.6L183.4 511L187.6 510.4L191.9 509.8L196.2 509.1L200.5 508.4L204.8 507.7L209.1 507L213.3 506.3L217.6 505.5L221.9 504.7L226.2 503.8L230.5 503L234.8 502.1L239 501.2L243.3 500.4L247.6 499.5L251.9 498.6L256.2 497.7L260.5 496.8L264.7 495.9L269 495L273.3 494.1L277.6 493.2L281.9 492.3L286.2 491.4L290.4 490.5L294.7 489.6L299 488.8L303.3 488L307.6 487.2L311.9 486.4L316.2 485.6L320.4 484.9L324.7 484.1L329 483.4L333.3 482.6L337.6 481.9L341.9 481.1L346.1 480.3L350.4 479.5L354.7 478.8L359 478L363.3 477.3L367.6 476.6L371.8 475.9L376.1 475.2L380.4 474.6L384.7 474L389 473.4L393.3 472.8L397.5 472.2"
            ></path>
            <path
                fill="none"
                stroke-linecap="butt"
                stroke-linejoin="round"
                stroke="#fff"
                id="outline__Indonesia"
                stroke-width="2.5"
                d="M401.8 471.7L406.1 471.1L410.4 470.5L414.7 470L419 469.4L423.2 469L427.5 468.5L431.8 468.2L436.1 467.8L440.4 467.6L444.7 467.3L448.9 467.1L453.2 466.9L457.5 466.7L461.8 466.6L466.1 466.3L470.4 466.1L474.6 465.8L478.9 465.6L483.2 465.4L487.5 465.1L491.8 464.8L496.1 464.6L500.4 464.3L504.6 464.1L508.9 463.8L513.2 463.5L517.5 463.1L521.8 462.8L526.1 462.5L530.3 462.1L534.6 461.8L538.9 461.5L543.2 461.2L547.5 460.9L551.8 460.7L556 460.4L560.3 460.2L564.6 460L568.9 459.8L573.2 459.6L577.5 459.4L581.7 459.1L586 458.9L590.3 458.7L594.6 458.4L598.9 458.2L603.2 458L607.4 457.8L611.7 457.6L616 457.3L620.3 457.1L624.6 456.9L628.9 456.7L633.1 456.5L637.4 456.2L641.7 455.9L646 455.6L650.3 455.3L654.6 454.9L658.9 454.5L663.1 454.2L667.4 453.8L671.7 453.4L676 453L680.3 452.7L684.6 452.5L688.8 452.3L693.1 452L697.4 451.8L701.7 451.6L706 451.4L710.3 451.3L714.5 451.1L718.8 450.9L723.1 450.8L727.4 450.7"
            ></path>
            <path
                fill="none"
                stroke-linecap="butt"
                stroke-linejoin="round"
                stroke="#2c8465"
                id="line__Indonesia"
                stroke-width="1.5"
                stroke-opacity="1"
                stroke-dasharray="2,3"
                d="M401.8 471.7L406.1 471.1L410.4 470.5L414.7 470L419 469.4L423.2 469L427.5 468.5L431.8 468.2L436.1 467.8L440.4 467.6L444.7 467.3L448.9 467.1L453.2 466.9L457.5 466.7L461.8 466.6L466.1 466.3L470.4 466.1L474.6 465.8L478.9 465.6L483.2 465.4L487.5 465.1L491.8 464.8L496.1 464.6L500.4 464.3L504.6 464.1L508.9 463.8L513.2 463.5L517.5 463.1L521.8 462.8L526.1 462.5L530.3 462.1L534.6 461.8L538.9 461.5L543.2 461.2L547.5 460.9L551.8 460.7L556 460.4L560.3 460.2L564.6 460L568.9 459.8L573.2 459.6L577.5 459.4L581.7 459.1L586 458.9L590.3 458.7L594.6 458.4L598.9 458.2L603.2 458L607.4 457.8L611.7 457.6L616 457.3L620.3 457.1L624.6 456.9L628.9 456.7L633.1 456.5L637.4 456.2L641.7 455.9L646 455.6L650.3 455.3L654.6 454.9L658.9 454.5L663.1 454.2L667.4 453.8L671.7 453.4L676 453L680.3 452.7L684.6 452.5L688.8 452.3L693.1 452L697.4 451.8L701.7 451.6L706 451.4L710.3 451.3L714.5 451.1L718.8 450.9L723.1 450.8L727.4 450.7"
            ></path>
            <path
                fill="none"
                stroke-linecap="butt"
                stroke-linejoin="round"
                stroke="#fff"
                id="outline__United-States"
                stroke-width="2.5"
                d="M84.8 501L89.1 500.8L93.4 500.6L97.7 500.4L102 500.2L106.2 500L110.5 499.7L114.8 499.5L119.1 499.1L123.4 498.8L127.7 498.4L132 498L136.2 497.3L140.5 496.7L144.8 496.1L149.1 495.4L153.4 494.8L157.7 494.2L161.9 493.5L166.2 492.8L170.5 492L174.8 491.2L179.1 490.4L183.4 489.5L187.6 488.7L191.9 487.9L196.2 487.1L200.5 486.3L204.8 485.6L209.1 484.9L213.3 484.3L217.6 483.7L221.9 483.2L226.2 482.7L230.5 482.2L234.8 481.6L239 481.1L243.3 480.7L247.6 480.4L251.9 480.1L256.2 479.7L260.5 479.2L264.7 478.7L269 478.1L273.3 477.5L277.6 476.9L281.9 476.2L286.2 475.5L290.4 474.8L294.7 474.1L299 473.4L303.3 472.6L307.6 471.9L311.9 471.1L316.2 470.4L320.4 469.6L324.7 468.8L329 468.1L333.3 467.5L337.6 467L341.9 466.4L346.1 465.9L350.4 465.4L354.7 465L359 464.6L363.3 464.2L367.6 463.7L371.8 463.3L376.1 462.9L380.4 462.6L384.7 462.4L389 462.4L393.3 462.4L397.5 462.2"
            ></path>
            <path
                fill="none"
                stroke-linecap="butt"
                stroke-linejoin="round"
                stroke="#a2559c"
                id="line__United-States"
                stroke-width="1.5"
                stroke-opacity="1"
                d="M84.8 501L89.1 500.8L93.4 500.6L97.7 500.4L102 500.2L106.2 500L110.5 499.7L114.8 499.5L119.1 499.1L123.4 498.8L127.7 498.4L132 498L136.2 497.3L140.5 496.7L144.8 496.1L149.1 495.4L153.4 494.8L157.7 494.2L161.9 493.5L166.2 492.8L170.5 492L174.8 491.2L179.1 490.4L183.4 489.5L187.6 488.7L191.9 487.9L196.2 487.1L200.5 486.3L204.8 485.6L209.1 484.9L213.3 484.3L217.6 483.7L221.9 483.2L226.2 482.7L230.5 482.2L234.8 481.6L239 481.1L243.3 480.7L247.6 480.4L251.9 480.1L256.2 479.7L260.5 479.2L264.7 478.7L269 478.1L273.3 477.5L277.6 476.9L281.9 476.2L286.2 475.5L290.4 474.8L294.7 474.1L299 473.4L303.3 472.6L307.6 471.9L311.9 471.1L316.2 470.4L320.4 469.6L324.7 468.8L329 468.1L333.3 467.5L337.6 467L341.9 466.4L346.1 465.9L350.4 465.4L354.7 465L359 464.6L363.3 464.2L367.6 463.7L371.8 463.3L376.1 462.9L380.4 462.6L384.7 462.4L389 462.4L393.3 462.4L397.5 462.2"
            ></path>
            <path
                fill="none"
                stroke-linecap="butt"
                stroke-linejoin="round"
                stroke="#fff"
                id="outline__United-States"
                stroke-width="2.5"
                d="M401.8 462L406.1 461.9L410.4 461.8L414.7 461.8L419 461.7L423.2 461.6L427.5 461.5L431.8 461.4L436.1 461.2L440.4 461L444.7 460.9L448.9 460.8L453.2 460.8L457.5 460.7L461.8 460.5L466.1 460.2L470.4 459.9L474.6 459.6L478.9 459.3L483.2 459L487.5 458.6L491.8 458.3L496.1 458L500.4 457.6L504.6 457.3L508.9 456.9L513.2 456.5L517.5 456.1L521.8 455.6L526.1 455.2L530.3 454.8L534.6 454.4L538.9 454L543.2 453.6L547.5 453.1L551.8 452.6L556 452.1L560.3 451.6L564.6 451.1L568.9 450.6L573.2 450.1L577.5 449.6L581.7 449.1L586 448.6L590.3 448.2L594.6 447.8L598.9 447.4L603.2 447L607.4 446.6L611.7 446.2L616 445.7L620.3 445.2L624.6 444.7L628.9 444.1L633.1 443.5L637.4 442.8L641.7 442.2L646 441.5L650.3 440.8L654.6 440L658.9 439.2L663.1 438.4L667.4 437.5L671.7 436.7L676 435.8L680.3 435L684.6 434.3L688.8 433.6L693.1 432.9L697.4 432.2L701.7 431.6L706 431L710.3 430.4L714.5 429.8L718.8 429.2L723.1 428.7L727.4 428.2"
            ></path>
            <path
                fill="none"
                stroke-linecap="butt"
                stroke-linejoin="round"
                stroke="#a2559c"
                id="line__United-States"
                stroke-width="1.5"
                stroke-opacity="1"
                stroke-dasharray="2,3"
                d="M401.8 462L406.1 461.9L410.4 461.8L414.7 461.8L419 461.7L423.2 461.6L427.5 461.5L431.8 461.4L436.1 461.2L440.4 461L444.7 460.9L448.9 460.8L453.2 460.8L457.5 460.7L461.8 460.5L466.1 460.2L470.4 459.9L474.6 459.6L478.9 459.3L483.2 459L487.5 458.6L491.8 458.3L496.1 458L500.4 457.6L504.6 457.3L508.9 456.9L513.2 456.5L517.5 456.1L521.8 455.6L526.1 455.2L530.3 454.8L534.6 454.4L538.9 454L543.2 453.6L547.5 453.1L551.8 452.6L556 452.1L560.3 451.6L564.6 451.1L568.9 450.6L573.2 450.1L577.5 449.6L581.7 449.1L586 448.6L590.3 448.2L594.6 447.8L598.9 447.4L603.2 447L607.4 446.6L611.7 446.2L616 445.7L620.3 445.2L624.6 444.7L628.9 444.1L633.1 443.5L637.4 442.8L641.7 442.2L646 441.5L650.3 440.8L654.6 440L658.9 439.2L663.1 438.4L667.4 437.5L671.7 436.7L676 435.8L680.3 435L684.6 434.3L688.8 433.6L693.1 432.9L697.4 432.2L701.7 431.6L706 431L710.3 430.4L714.5 429.8L718.8 429.2L723.1 428.7L727.4 428.2"
            ></path>
            <path
                fill="none"
                stroke-linecap="butt"
                stroke-linejoin="round"
                stroke="#fff"
                id="outline__India"
                stroke-width="2.5"
                d="M84.8 468.2L89.1 466.9L93.4 465.7L97.7 464.5L102 463.2L106.2 462L110.5 460.7L114.8 459.4L119.1 458.2L123.4 456.8L127.7 455.4L132 454L136.2 452.6L140.5 451.3L144.8 449.7L149.1 447.9L153.4 446.1L157.7 444.2L161.9 442.2L166.2 440.2L170.5 438L174.8 435.7L179.1 433.4L183.4 431L187.6 428.4L191.9 425.7L196.2 422.9L200.5 419.9L204.8 417L209.1 413.9L213.3 410.8L217.6 407.6L221.9 404.5L226.2 401.2L230.5 397.9L234.8 394.5L239 391.1L243.3 387.5L247.6 383.9L251.9 380.1L256.2 376.2L260.5 372.3L264.7 368.3L269 364.2L273.3 360L277.6 355.8L281.9 351.3L286.2 346.8L290.4 342.2L294.7 337.4L299 332.6L303.3 327.7L307.6 322.8L311.9 318L316.2 313L320.4 308.1L324.7 303.1L329 298.1L333.3 293.2L337.6 288.3L341.9 283.2L346.1 278.1L350.4 273L354.7 267.9L359 263L363.3 258.3L367.6 253.5L371.8 248.7L376.1 244.2L380.4 239.9L384.7 235.7L389 231.9L393.3 228.3L397.5 224.7"
            ></path>
            <path
                fill="none"
                stroke-linecap="butt"
                stroke-linejoin="round"
                stroke="#996d39"
                id="line__India"
                stroke-width="1.5"
                stroke-opacity="1"
                d="M84.8 468.2L89.1 466.9L93.4 465.7L97.7 464.5L102 463.2L106.2 462L110.5 460.7L114.8 459.4L119.1 458.2L123.4 456.8L127.7 455.4L132 454L136.2 452.6L140.5 451.3L144.8 449.7L149.1 447.9L153.4 446.1L157.7 444.2L161.9 442.2L166.2 440.2L170.5 438L174.8 435.7L179.1 433.4L183.4 431L187.6 428.4L191.9 425.7L196.2 422.9L200.5 419.9L204.8 417L209.1 413.9L213.3 410.8L217.6 407.6L221.9 404.5L226.2 401.2L230.5 397.9L234.8 394.5L239 391.1L243.3 387.5L247.6 383.9L251.9 380.1L256.2 376.2L260.5 372.3L264.7 368.3L269 364.2L273.3 360L277.6 355.8L281.9 351.3L286.2 346.8L290.4 342.2L294.7 337.4L299 332.6L303.3 327.7L307.6 322.8L311.9 318L316.2 313L320.4 308.1L324.7 303.1L329 298.1L333.3 293.2L337.6 288.3L341.9 283.2L346.1 278.1L350.4 273L354.7 267.9L359 263L363.3 258.3L367.6 253.5L371.8 248.7L376.1 244.2L380.4 239.9L384.7 235.7L389 231.9L393.3 228.3L397.5 224.7"
            ></path>
            <path
                fill="none"
                stroke-linecap="butt"
                stroke-linejoin="round"
                stroke="#fff"
                id="outline__India"
                stroke-width="2.5"
                d="M401.8 221L406.1 217.3L410.4 213.7L414.7 210.3L419 207L423.2 203.9L427.5 201.1L431.8 198.3L436.1 195.7L440.4 193.2L444.7 190.9L448.9 188.8L453.2 187L457.5 185.2L461.8 183.7L466.1 181.8L470.4 179.5L474.6 177.4L478.9 175.4L483.2 173.5L487.5 171.5L491.8 169.4L496.1 167.5L500.4 165.7L504.6 164.2L508.9 162.6L513.2 161L517.5 159.6L521.8 158.4L526.1 157.3L530.3 156.4L534.6 155.6L538.9 154.9L543.2 154.4L547.5 153.9L551.8 153.6L556 153.4L560.3 153.3L564.6 153.3L568.9 153.3L573.2 153.4L577.5 153.5L581.7 153.6L586 153.7L590.3 153.8L594.6 153.7L598.9 153.4L603.2 153L607.4 152.5L611.7 151.8L616 151.1L620.3 150.3L624.6 149.4L628.9 148.5L633.1 147.4L637.4 146.2L641.7 144.9L646 143.6L650.3 142.3L654.6 141L658.9 139.6L663.1 138.2L667.4 136.7L671.7 135.2L676 133.8L680.3 132.8L684.6 132.3L688.8 131.7L693.1 131.1L697.4 130.6L701.7 130.2L706 130L710.3 129.8L714.5 129.5L718.8 129.2L723.1 128.9L727.4 128.7"
            ></path>
            <path
                fill="none"
                stroke-linecap="butt"
                stroke-linejoin="round"
                stroke="#996d39"
                id="line__India"
                stroke-width="1.5"
                stroke-opacity="1"
                stroke-dasharray="2,3"
                d="M401.8 221L406.1 217.3L410.4 213.7L414.7 210.3L419 207L423.2 203.9L427.5 201.1L431.8 198.3L436.1 195.7L440.4 193.2L444.7 190.9L448.9 188.8L453.2 187L457.5 185.2L461.8 183.7L466.1 181.8L470.4 179.5L474.6 177.4L478.9 175.4L483.2 173.5L487.5 171.5L491.8 169.4L496.1 167.5L500.4 165.7L504.6 164.2L508.9 162.6L513.2 161L517.5 159.6L521.8 158.4L526.1 157.3L530.3 156.4L534.6 155.6L538.9 154.9L543.2 154.4L547.5 153.9L551.8 153.6L556 153.4L560.3 153.3L564.6 153.3L568.9 153.3L573.2 153.4L577.5 153.5L581.7 153.6L586 153.7L590.3 153.8L594.6 153.7L598.9 153.4L603.2 153L607.4 152.5L611.7 151.8L616 151.1L620.3 150.3L624.6 149.4L628.9 148.5L633.1 147.4L637.4 146.2L641.7 144.9L646 143.6L650.3 142.3L654.6 141L658.9 139.6L663.1 138.2L667.4 136.7L671.7 135.2L676 133.8L680.3 132.8L684.6 132.3L688.8 131.7L693.1 131.1L697.4 130.6L701.7 130.2L706 130L710.3 129.8L714.5 129.5L718.8 129.2L723.1 128.9L727.4 128.7"
            ></path>
            <path
                fill="none"
                stroke-linecap="butt"
                stroke-linejoin="round"
                stroke="#fff"
                id="outline__China"
                stroke-width="2.5"
                d="M84.8 429.4L89.1 428.2L93.4 427L97.7 425.9L102 424.7L106.2 423.5L110.5 422.2L114.8 420.9L119.1 419.7L123.4 418.6L127.7 417.7L132 416.5L136.2 414.8L140.5 412.6L144.8 410.2L149.1 407.5L153.4 404.3L157.7 400.5L161.9 396.5L166.2 392.7L170.5 388.7L174.8 384.8L179.1 380.7L183.4 376.8L187.6 373.9L191.9 371.6L196.2 369.4L200.5 365.9L204.8 360.2L209.1 354.1L213.3 348.4L217.6 342.7L221.9 337.4L226.2 331.7L230.5 325.5L234.8 319.3L239 313.3L243.3 307.7L247.6 302.4L251.9 297.6L256.2 293.4L260.5 289.7L264.7 286.4L269 283.4L273.3 280.3L277.6 277.1L281.9 273.6L286.2 269.8L290.4 266.2L294.7 262.8L299 259.1L303.3 254.9L307.6 250.4L311.9 245.8L316.2 241.3L320.4 236.4L324.7 232.4L329 229.5L333.3 227L337.6 224.7L341.9 222.6L346.1 220.9L350.4 219.6L354.7 218.6L359 218L363.3 217.8L367.6 217.9L371.8 218.4L376.1 219.2L380.4 220.1L384.7 221.1L389 221.8L393.3 222.6L397.5 223.2"
            ></path>
            <path
                fill="none"
                stroke-linecap="butt"
                stroke-linejoin="round"
                stroke="#b13507"
                id="line__China"
                stroke-width="1.5"
                stroke-opacity="1"
                d="M84.8 429.4L89.1 428.2L93.4 427L97.7 425.9L102 424.7L106.2 423.5L110.5 422.2L114.8 420.9L119.1 419.7L123.4 418.6L127.7 417.7L132 416.5L136.2 414.8L140.5 412.6L144.8 410.2L149.1 407.5L153.4 404.3L157.7 400.5L161.9 396.5L166.2 392.7L170.5 388.7L174.8 384.8L179.1 380.7L183.4 376.8L187.6 373.9L191.9 371.6L196.2 369.4L200.5 365.9L204.8 360.2L209.1 354.1L213.3 348.4L217.6 342.7L221.9 337.4L226.2 331.7L230.5 325.5L234.8 319.3L239 313.3L243.3 307.7L247.6 302.4L251.9 297.6L256.2 293.4L260.5 289.7L264.7 286.4L269 283.4L273.3 280.3L277.6 277.1L281.9 273.6L286.2 269.8L290.4 266.2L294.7 262.8L299 259.1L303.3 254.9L307.6 250.4L311.9 245.8L316.2 241.3L320.4 236.4L324.7 232.4L329 229.5L333.3 227L337.6 224.7L341.9 222.6L346.1 220.9L350.4 219.6L354.7 218.6L359 218L363.3 217.8L367.6 217.9L371.8 218.4L376.1 219.2L380.4 220.1L384.7 221.1L389 221.8L393.3 222.6L397.5 223.2"
            ></path>
            <path
                fill="none"
                stroke-linecap="butt"
                stroke-linejoin="round"
                stroke="#fff"
                id="outline__China"
                stroke-width="2.5"
                d="M401.8 222.9L406.1 222L410.4 221L414.7 220.8L419 222.5L423.2 224.7L427.5 226.6L431.8 228.6L436.1 230.2L440.4 232.6L444.7 236L448.9 240L453.2 244.5L457.5 249.1L461.8 253.7L466.1 257.8L470.4 261L474.6 263.9L478.9 266.5L483.2 268.9L487.5 271.3L491.8 273.8L496.1 276.5L500.4 279.5L504.6 282.5L508.9 285.1L513.2 287.9L517.5 291.2L521.8 294.9L526.1 298.6L530.3 302.3L534.6 306.2L538.9 309.5L543.2 311.8L547.5 313.9L551.8 315.8L556 317.6L560.3 319.3L564.6 320.9L568.9 322.4L573.2 323.9L577.5 325.5L581.7 327.2L586 328.9L590.3 330.6L594.6 332.3L598.9 334.2L603.2 336.3L607.4 338.4L611.7 340.8L616 343.3L620.3 345.8L624.6 348.3L628.9 351L633.1 353.7L637.4 356.3L641.7 358.8L646 361.2L650.3 363.6L654.6 365.6L658.9 367L663.1 367.9L667.4 368.2L671.7 368.1L676 367.7L680.3 367.6L684.6 367.8L688.8 368L693.1 368.1L697.4 368.3L701.7 368.6L706 369.1L710.3 369.7L714.5 370.3L718.8 370.9L723.1 371.7L727.4 372.7"
            ></path>
            <path
                fill="none"
                stroke-linecap="butt"
                stroke-linejoin="round"
                stroke="#b13507"
                id="line__China"
                stroke-width="1.5"
                stroke-opacity="1"
                stroke-dasharray="2,3"
                d="M401.8 222.9L406.1 222L410.4 221L414.7 220.8L419 222.5L423.2 224.7L427.5 226.6L431.8 228.6L436.1 230.2L440.4 232.6L444.7 236L448.9 240L453.2 244.5L457.5 249.1L461.8 253.7L466.1 257.8L470.4 261L474.6 263.9L478.9 266.5L483.2 268.9L487.5 271.3L491.8 273.8L496.1 276.5L500.4 279.5L504.6 282.5L508.9 285.1L513.2 287.9L517.5 291.2L521.8 294.9L526.1 298.6L530.3 302.3L534.6 306.2L538.9 309.5L543.2 311.8L547.5 313.9L551.8 315.8L556 317.6L560.3 319.3L564.6 320.9L568.9 322.4L573.2 323.9L577.5 325.5L581.7 327.2L586 328.9L590.3 330.6L594.6 332.3L598.9 334.2L603.2 336.3L607.4 338.4L611.7 340.8L616 343.3L620.3 345.8L624.6 348.3L628.9 351L633.1 353.7L637.4 356.3L641.7 358.8L646 361.2L650.3 363.6L654.6 365.6L658.9 367L663.1 367.9L667.4 368.2L671.7 368.1L676 367.7L680.3 367.6L684.6 367.8L688.8 368L693.1 368.1L697.4 368.3L701.7 368.6L706 369.1L710.3 369.7L714.5 370.3L718.8 370.9L723.1 371.7L727.4 372.7"
            ></path>
        </g>
    </g>
    <g id="footer" class="SourcesFooter" style="fill: #767676">
        <g id="sources" class="markdown-text-wrap">
            <text x="16.0" y="581.0" style="font-size: 13px; line-height: 1.2">
                <tspan x="16" y="581.0">
                    <tspan style="font-weight: 700">Data source:</tspan>
                    UN, World Population Prospects (2024)
                </tspan>
            </text>
        </g>
        <text id="origin-url" font-size="13.00" x="555.3" y="581.0">
            <tspan x="555.28" y="581.01">
                <a
                    style="fill: #767676"
                    href="https://ourworldindata.org/population-growth"
                >
                    OurWorldinData.org/population-growth
                </a>
                |
                <a
                    style="fill: #767676"
                    href="https://creativecommons.org/licenses/by/4.0/"
                >
                    CC BY
                </a>
            </tspan>
        </text>
    </g>
</svg>
