<svg
    xmlns="http://www.w3.org/2000/svg"
    version="1.1"
    style='font-family:Lato, &#x27;Helvetica Neue&#x27;, Helvetica, Arial, &#x27;Liberation Sans&#x27;, sans-serif;font-feature-settings:"liga", "kern", "calt", "lnum";text-rendering:geometricPrecision;-webkit-font-smoothing:antialiased;font-size:18px;background-color:#ffffff'
    width="850"
    height="600"
    viewBox="0 0 850 600"
>
    <defs>
        <style>
            @import url(https://ourworldindata.org/fonts.css);
        </style>
    </defs>
    <defs>
        <pattern
            id="noDataPattern"
            patternUnits="userSpaceOnUse"
            width="4"
            height="4"
            patternTransform="rotate(-45 2 2)"
        >
            <path d="M -1,2 l 6,0" stroke="#ccc" stroke-width="0.7"></path>
        </pattern>
    </defs>
    <g id="header" class="HeaderView">
        <g id="logo" transform="translate(769, 16) scale(1)">
            <svg
                className="owidLogo"
                xmlns="http://www.w3.org/2000/svg"
                width="65"
                height="36"
                viewBox="0 0 65 36"
                fill="none"
            >
                <path fill="#002147" d="M0 0h64.8v36H0z" />
                <path fill="#CE261E" d="M0 33.3h64.8V36H0z" />
                <path
                    fill="#fff"
                    d="M13.796 10.575c0 .636-.106 1.226-.318 1.77a4.193 4.193 0 0 1-.894 1.404 4.084 4.084 0 0 1-1.386.93c-.54.22-1.138.33-1.794.33-.656 0-1.256-.11-1.8-.33a4.149 4.149 0 0 1-1.392-.93 4.193 4.193 0 0 1-.894-1.404A4.833 4.833 0 0 1 5 10.575c0-.636.106-1.224.318-1.764a4.18 4.18 0 0 1 .894-1.41 4.076 4.076 0 0 1 1.392-.924 4.684 4.684 0 0 1 1.8-.336c.656 0 1.254.112 1.794.336.54.224 1.002.534 1.386.93.384.392.682.86.894 1.404.212.54.318 1.128.318 1.764Zm-1.656 0c0-.476-.064-.902-.192-1.278a2.671 2.671 0 0 0-.54-.966 2.332 2.332 0 0 0-.864-.606 2.94 2.94 0 0 0-1.14-.21c-.424 0-.806.07-1.146.21-.34.14-.63.342-.87.606a2.742 2.742 0 0 0-.546.966 3.955 3.955 0 0 0-.192 1.278c0 .476.064.904.192 1.284.128.376.31.696.546.96.24.26.53.46.87.6.34.14.722.21 1.146.21.424 0 .804-.07 1.14-.21.34-.14.628-.34.864-.6.236-.264.416-.584.54-.96a4.01 4.01 0 0 0 .192-1.284ZM16.104 8.757v3.912c0 .376.086.668.258.876.176.204.438.306.786.306.256 0 .496-.056.72-.168a2.58 2.58 0 0 0 .636-.474V8.757h1.482v6.156h-.906c-.192 0-.318-.09-.378-.27l-.102-.492a4.65 4.65 0 0 1-.396.354 2.577 2.577 0 0 1-.438.27 2.35 2.35 0 0 1-.498.168 2.345 2.345 0 0 1-.57.066c-.336 0-.634-.056-.894-.168a1.821 1.821 0 0 1-.648-.486 2.157 2.157 0 0 1-.402-.738 3.233 3.233 0 0 1-.132-.948V8.757h1.482ZM21.328 14.913V8.757h.87c.152 0 .258.028.318.084.06.056.1.152.12.288l.09.744c.22-.38.478-.68.774-.9.296-.22.628-.33.996-.33.304 0 .556.07.756.21l-.192 1.11c-.012.072-.038.124-.078.156a.278.278 0 0 1-.162.042 1.01 1.01 0 0 1-.246-.042 1.646 1.646 0 0 0-.414-.042c-.308 0-.572.086-.792.258-.22.168-.406.416-.558.744v3.834h-1.482ZM27.347 6.237h1.356a.57.57 0 0 1 .348.102c.096.064.16.152.192.264l1.476 5.19c.036.128.068.268.096.42.032.148.062.306.09.474a5.968 5.968 0 0 1 .228-.894l1.704-5.19a.575.575 0 0 1 .186-.252.543.543 0 0 1 .348-.114h.474a.57.57 0 0 1 .348.102.497.497 0 0 1 .192.264l1.692 5.19c.088.256.164.54.228.852.028-.156.056-.306.084-.45.032-.144.064-.278.096-.402l1.476-5.19c.028-.1.09-.186.186-.258a.563.563 0 0 1 .348-.108h1.266l-2.694 8.676h-1.458l-1.896-5.928-.078-.246a9.504 9.504 0 0 1-.072-.282c-.024.1-.05.194-.078.282-.024.088-.048.17-.072.246l-1.914 5.928H30.04l-2.694-8.676ZM42.771 8.661c.46 0 .876.074 1.248.222.376.148.696.358.96.63s.468.604.612.996c.144.392.216.83.216 1.314 0 .488-.072.928-.216 1.32a2.85 2.85 0 0 1-.612 1.002 2.653 2.653 0 0 1-.96.636 3.35 3.35 0 0 1-1.248.222c-.46 0-.878-.074-1.254-.222a2.712 2.712 0 0 1-.966-.636 2.922 2.922 0 0 1-.618-1.002 3.807 3.807 0 0 1-.216-1.32c0-.484.072-.922.216-1.314.148-.392.354-.724.618-.996.268-.272.59-.482.966-.63a3.397 3.397 0 0 1 1.254-.222Zm0 5.202c.512 0 .89-.172 1.134-.516.248-.344.372-.848.372-1.512s-.124-1.17-.372-1.518c-.244-.348-.622-.522-1.134-.522-.52 0-.904.176-1.152.528-.248.348-.372.852-.372 1.512s.124 1.164.372 1.512c.248.344.632.516 1.152.516ZM46.723 14.913V8.757h.87c.152 0 .258.028.318.084.06.056.1.152.12.288l.09.744c.22-.38.478-.68.774-.9.296-.22.628-.33.996-.33.304 0 .556.07.756.21l-.192 1.11c-.012.072-.038.124-.078.156a.278.278 0 0 1-.162.042 1.01 1.01 0 0 1-.246-.042 1.646 1.646 0 0 0-.414-.042c-.308 0-.572.086-.792.258-.22.168-.406.416-.558.744v3.834h-1.482ZM52.96 5.997v8.916h-1.482V5.997h1.482ZM58.732 14.913c-.192 0-.318-.09-.378-.27l-.12-.594a3.68 3.68 0 0 1-.402.39c-.14.116-.292.216-.456.3-.16.084-.334.148-.522.192a2.372 2.372 0 0 1-.6.072c-.336 0-.644-.07-.924-.21a2.098 2.098 0 0 1-.726-.606 3.033 3.033 0 0 1-.468-.99 5.072 5.072 0 0 1-.162-1.344c0-.456.062-.88.186-1.272s.302-.732.534-1.02c.232-.288.51-.512.834-.672a2.384 2.384 0 0 1 1.092-.246 2.103 2.103 0 0 1 1.536.606V5.997h1.482v8.916h-.906Zm-1.974-1.086c.308 0 .57-.064.786-.192.216-.128.42-.31.612-.546v-2.76a1.452 1.452 0 0 0-.552-.432 1.597 1.597 0 0 0-.636-.126c-.224 0-.428.042-.612.126a1.21 1.21 0 0 0-.462.384c-.124.168-.22.384-.288.648-.068.26-.102.568-.102.924 0 .36.028.666.084.918.06.248.144.452.252.612.108.156.24.27.396.342.156.068.33.102.522.102ZM16.331 20.757v6.156H14.85v-6.156h1.481Zm.223-1.794a.844.844 0 0 1-.078.36.963.963 0 0 1-.21.294.995.995 0 0 1-.3.204.963.963 0 0 1-.372.072.948.948 0 0 1-.367-.072 1.018 1.018 0 0 1-.498-.498.963.963 0 0 1 0-.732.995.995 0 0 1 .205-.3.929.929 0 0 1 .293-.198.899.899 0 0 1 .738 0 .912.912 0 0 1 .3.198.943.943 0 0 1 .288.672ZM17.771 26.913v-6.156h.906c.192 0 .318.09.378.27l.102.486a2.934 2.934 0 0 1 .828-.618c.156-.076.322-.134.498-.174.176-.04.368-.06.576-.06.336 0 .634.058.894.174.26.112.476.272.648.48.176.204.308.45.396.738.092.284.138.598.138.942v3.918h-1.482v-3.918c0-.376-.088-.666-.264-.87-.172-.208-.432-.312-.78-.312-.256 0-.496.058-.72.174a2.58 2.58 0 0 0-.636.474v4.452h-1.482ZM34.22 22.575c0 .636-.106 1.22-.318 1.752-.212.532-.51.99-.894 1.374a4 4 0 0 1-1.386.894 4.87 4.87 0 0 1-1.794.318h-3.312v-8.676h3.312a4.79 4.79 0 0 1 1.794.324 4 4 0 0 1 1.386.894c.384.38.682.836.894 1.368.212.532.318 1.116.318 1.752Zm-1.65 0c0-.476-.064-.902-.192-1.278a2.68 2.68 0 0 0-.546-.96 2.332 2.332 0 0 0-.864-.606 2.94 2.94 0 0 0-1.14-.21h-1.686v6.108h1.686c.424 0 .804-.07 1.14-.21.34-.14.628-.34.864-.6a2.75 2.75 0 0 0 .546-.96 4.01 4.01 0 0 0 .192-1.284ZM39.98 26.913h-.665c-.14 0-.25-.02-.33-.06-.08-.044-.14-.13-.18-.258l-.132-.438c-.156.14-.31.264-.462.372a2.804 2.804 0 0 1-.462.264c-.16.072-.33.126-.51.162-.18.036-.38.054-.6.054-.26 0-.5-.034-.72-.102a1.618 1.618 0 0 1-.57-.318 1.448 1.448 0 0 1-.366-.522 1.852 1.852 0 0 1-.132-.726c0-.232.06-.46.18-.684.124-.228.328-.432.612-.612.284-.184.662-.336 1.134-.456.472-.12 1.058-.188 1.758-.204v-.36c0-.412-.088-.716-.264-.912-.172-.2-.424-.3-.756-.3a1.837 1.837 0 0 0-1.02.276c-.116.068-.224.13-.324.186a.664.664 0 0 1-.33.084.429.429 0 0 1-.258-.078.614.614 0 0 1-.174-.192l-.27-.474c.708-.648 1.562-.972 2.562-.972.36 0 .68.06.96.18.284.116.524.28.72.492.196.208.344.458.444.75.104.292.156.612.156.96v3.888Zm-2.88-.924c.153 0 .293-.014.42-.042.129-.028.249-.07.36-.126.117-.056.227-.124.33-.204.109-.084.217-.182.325-.294v-1.038c-.432.02-.794.058-1.086.114-.288.052-.52.12-.696.204a.923.923 0 0 0-.378.294.664.664 0 0 0-.108.366c0 .26.076.446.228.558.156.112.358.168.606.168ZM43.22 27.01c-.532 0-.942-.15-1.23-.45-.288-.305-.432-.723-.432-1.255v-3.438h-.624a.31.31 0 0 1-.21-.078c-.056-.052-.084-.13-.084-.234v-.588l.99-.162.312-1.68a.302.302 0 0 1 .108-.186.365.365 0 0 1 .222-.066h.768v1.938h1.62v1.056h-1.62v3.336c0 .192.048.342.144.45a.488.488 0 0 0 .384.162c.092 0 .168-.01.228-.03.064-.024.118-.048.162-.072.048-.024.09-.046.126-.066a.194.194 0 0 1 .108-.036.16.16 0 0 1 .108.036c.028.02.058.052.09.096l.444.72c-.216.18-.464.316-.744.408a2.77 2.77 0 0 1-.87.138ZM50.423 26.913h-.666c-.14 0-.25-.02-.33-.06-.08-.044-.14-.13-.18-.258l-.132-.438c-.156.14-.31.264-.462.372a2.804 2.804 0 0 1-.462.264c-.16.072-.33.126-.51.162-.18.036-.38.054-.6.054-.26 0-.5-.034-.72-.102a1.618 1.618 0 0 1-.57-.318 1.448 1.448 0 0 1-.366-.522 1.852 1.852 0 0 1-.132-.726c0-.232.06-.46.18-.684.124-.228.328-.432.612-.612.284-.184.662-.336 1.134-.456.472-.12 1.058-.188 1.758-.204v-.36c0-.412-.088-.716-.264-.912-.172-.2-.424-.3-.756-.3a1.837 1.837 0 0 0-1.02.276c-.116.068-.224.13-.324.186a.664.664 0 0 1-.33.084.429.429 0 0 1-.258-.078.614.614 0 0 1-.174-.192l-.27-.474c.708-.648 1.562-.972 2.562-.972.36 0 .68.06.96.18.284.116.524.28.72.492.196.208.344.458.444.75.104.292.156.612.156.96v3.888Zm-2.88-.924c.152 0 .292-.014.42-.042.128-.028.248-.07.36-.126.116-.056.226-.124.33-.204.108-.084.216-.182.324-.294v-1.038c-.432.02-.794.058-1.086.114-.288.052-.52.12-.696.204a.923.923 0 0 0-.378.294.664.664 0 0 0-.108.366c0 .26.076.446.228.558.156.112.358.168.606.168Z"
                />
            </svg>
        </g>
        <a
            id="title"
            href="https://ourworldindata.org/explorers/population-and-demography?indicator=Population&amp;Sex=Female&amp;Age=1%E2%80%934+years&amp;Projection+scenario=None&amp;country=CHN~IND~USA~IDN~PAK~NGA~BRA~JPN"
            style="font-family:&#x27;Playfair Display&#x27;, Georgia, &#x27;Times New Roman&#x27;, &#x27;Liberation Serif&#x27;, serif"
        >
            <text
                font-size="25.00"
                font-weight="600"
                x="16.0"
                y="40.3"
                fill="#2d2e2d"
            >
                <tspan x="16" y="40.25">
                    Female population aged 1 to 4 years, 1950 to 2023
                </tspan>
            </text>
        </a>
    </g>
    <g id="chart-area" style="pointer-events: none">
        <g id="horizontal-axis" class="HorizontalAxis">
            <g id="tick-marks">
                <line
                    id="1950"
                    x1="76"
                    y1="511.79999999999995"
                    x2="76"
                    y2="517.3"
                    stroke="#999"
                    stroke-width="1"
                ></line>
                <line
                    id="2023"
                    x1="726.6"
                    y1="511.79999999999995"
                    x2="726.6"
                    y2="517.3"
                    stroke="#999"
                    stroke-width="1"
                ></line>
                <line
                    id="1960"
                    x1="165.1"
                    y1="511.79999999999995"
                    x2="165.1"
                    y2="517.3"
                    stroke="#999"
                    stroke-width="1"
                ></line>
                <line
                    id="1970"
                    x1="254.2"
                    y1="511.79999999999995"
                    x2="254.2"
                    y2="517.3"
                    stroke="#999"
                    stroke-width="1"
                ></line>
                <line
                    id="1980"
                    x1="343.4"
                    y1="511.79999999999995"
                    x2="343.4"
                    y2="517.3"
                    stroke="#999"
                    stroke-width="1"
                ></line>
                <line
                    id="1990"
                    x1="432.5"
                    y1="511.79999999999995"
                    x2="432.5"
                    y2="517.3"
                    stroke="#999"
                    stroke-width="1"
                ></line>
                <line
                    id="2000"
                    x1="521.6"
                    y1="511.79999999999995"
                    x2="521.6"
                    y2="517.3"
                    stroke="#999"
                    stroke-width="1"
                ></line>
                <line
                    id="2010"
                    x1="610.7"
                    y1="511.79999999999995"
                    x2="610.7"
                    y2="517.3"
                    stroke="#999"
                    stroke-width="1"
                ></line>
            </g>
            <g id="tick-labels">
                <text
                    x="75.99000000000001"
                    y="530.3"
                    fill="#5b5b5b"
                    text-anchor="start"
                    font-size="13"
                >
                    1950
                </text>
                <text
                    x="726.61"
                    y="530.3"
                    fill="#5b5b5b"
                    text-anchor="end"
                    font-size="13"
                >
                    2023
                </text>
                <text
                    x="165.1"
                    y="530.3"
                    fill="#5b5b5b"
                    text-anchor="middle"
                    font-size="13"
                >
                    1960
                </text>
                <text
                    x="254.2"
                    y="530.3"
                    fill="#5b5b5b"
                    text-anchor="middle"
                    font-size="13"
                >
                    1970
                </text>
                <text
                    x="343.4"
                    y="530.3"
                    fill="#5b5b5b"
                    text-anchor="middle"
                    font-size="13"
                >
                    1980
                </text>
                <text
                    x="432.5"
                    y="530.3"
                    fill="#5b5b5b"
                    text-anchor="middle"
                    font-size="13"
                >
                    1990
                </text>
                <text
                    x="521.6"
                    y="530.3"
                    fill="#5b5b5b"
                    text-anchor="middle"
                    font-size="13"
                >
                    2000
                </text>
                <text
                    x="610.7"
                    y="530.3"
                    fill="#5b5b5b"
                    text-anchor="middle"
                    font-size="13"
                >
                    2010
                </text>
            </g>
        </g>
        <g id="vertical-axis" class="VerticalAxis">
            <g id="tick-labels">
                <text
                    x="70.99"
                    y="512.3"
                    dy=".32em"
                    text-anchor="end"
                    fill="#5b5b5b"
                    font-size="13"
                >
                    0
                </text>
                <text
                    x="70.99"
                    y="439.2"
                    dy=".32em"
                    text-anchor="end"
                    fill="#5b5b5b"
                    font-size="13"
                >
                    10 million
                </text>
                <text
                    x="70.99"
                    y="366.2"
                    dy=".32em"
                    text-anchor="end"
                    fill="#5b5b5b"
                    font-size="13"
                >
                    20 million
                </text>
                <text
                    x="70.99"
                    y="293.1"
                    dy=".32em"
                    text-anchor="end"
                    fill="#5b5b5b"
                    font-size="13"
                >
                    30 million
                </text>
                <text
                    x="70.99"
                    y="220.1"
                    dy=".32em"
                    text-anchor="end"
                    fill="#5b5b5b"
                    font-size="13"
                >
                    40 million
                </text>
                <text
                    x="70.99"
                    y="147"
                    dy=".32em"
                    text-anchor="end"
                    fill="#5b5b5b"
                    font-size="13"
                >
                    50 million
                </text>
                <text
                    x="70.99"
                    y="74"
                    dy=".32em"
                    text-anchor="end"
                    fill="#5b5b5b"
                    font-size="13"
                >
                    60 million
                </text>
            </g>
        </g>
        <g id="horizontal-grid-lines" class="AxisGridLines horizontalLines">
            <line
                id="0"
                x1="75.99"
                y1="512.3"
                x2="726.61"
                y2="512.3"
                stroke="#999"
            ></line>
            <line
                id="10-million"
                x1="75.99"
                y1="439.2"
                x2="726.61"
                y2="439.2"
                stroke="#ddd"
                stroke-dasharray="4,4"
            ></line>
            <line
                id="20-million"
                x1="75.99"
                y1="366.2"
                x2="726.61"
                y2="366.2"
                stroke="#ddd"
                stroke-dasharray="4,4"
            ></line>
            <line
                id="30-million"
                x1="75.99"
                y1="293.1"
                x2="726.61"
                y2="293.1"
                stroke="#ddd"
                stroke-dasharray="4,4"
            ></line>
            <line
                id="40-million"
                x1="75.99"
                y1="220.1"
                x2="726.61"
                y2="220.1"
                stroke="#ddd"
                stroke-dasharray="4,4"
            ></line>
            <line
                id="50-million"
                x1="75.99"
                y1="147"
                x2="726.61"
                y2="147"
                stroke="#ddd"
                stroke-dasharray="4,4"
            ></line>
            <line
                id="60-million"
                x1="75.99"
                y1="74"
                x2="726.61"
                y2="74"
                stroke="#ddd"
                stroke-dasharray="4,4"
            ></line>
        </g>
        <g id="line-labels" class="LineLabels">
            <g id="connectors">
                <path
                    id="India"
                    d="M730.61,189.6 H739.11 V189.6 H747.61"
                    stroke="#999"
                    stroke-width="0.5"
                    fill="none"
                ></path>
                <path
                    id="China"
                    d="M730.61,343.8 H739.11 V343.8 H747.61"
                    stroke="#999"
                    stroke-width="0.5"
                    fill="none"
                ></path>
                <path
                    id="Nigeria"
                    d="M730.61,416.8 H741.9433333333333 V407.49999999999994 H747.61"
                    stroke="#999"
                    stroke-width="0.5"
                    fill="none"
                ></path>
                <path
                    id="Pakistan"
                    d="M730.61,422.3 H741.9433333333333 V425.79999999999995 H747.61"
                    stroke="#999"
                    stroke-width="0.5"
                    fill="none"
                ></path>
                <path
                    id="Indonesia"
                    d="M730.61,448.6 H741.9433333333333 V444.09999999999997 H747.61"
                    stroke="#999"
                    stroke-width="0.5"
                    fill="none"
                ></path>
                <path
                    id="United-States"
                    d="M730.61,459 H741.9433333333333 V462.4 H747.61"
                    stroke="#999"
                    stroke-width="0.5"
                    fill="none"
                ></path>
                <path
                    id="Brazil"
                    d="M730.61,473.8 H736.2766666666666 V480.7 H747.61"
                    stroke="#999"
                    stroke-width="0.5"
                    fill="none"
                ></path>
                <path
                    id="Japan"
                    d="M730.61,500.3 H739.11 V500.3 H747.61"
                    stroke="#999"
                    stroke-width="0.5"
                    fill="none"
                ></path>
            </g>
            <g id="text-annotations"></g>
            <g id="text-labels">
                <text
                    id="label__India"
                    font-size="13.00"
                    font-weight="400"
                    x="751.6"
                    y="194.4"
                    fill="#996d39"
                    opacity="1"
                    text-anchor="start"
                >
                    <tspan x="751.61" y="194.41">India</tspan>
                </text>
                <text
                    id="label__China"
                    font-size="13.00"
                    font-weight="400"
                    x="751.6"
                    y="348.6"
                    fill="#b13507"
                    opacity="1"
                    text-anchor="start"
                >
                    <tspan x="751.61" y="348.61">China</tspan>
                </text>
                <text
                    id="label__Nigeria"
                    font-size="13.00"
                    font-weight="400"
                    x="751.6"
                    y="412.3"
                    fill="#883039"
                    opacity="1"
                    text-anchor="start"
                >
                    <tspan x="751.61" y="412.30999999999995">Nigeria</tspan>
                </text>
                <text
                    id="label__Pakistan"
                    font-size="13.00"
                    font-weight="400"
                    x="751.6"
                    y="430.6"
                    fill="#00295b"
                    opacity="1"
                    text-anchor="start"
                >
                    <tspan x="751.61" y="430.60999999999996">Pakistan</tspan>
                </text>
                <text
                    id="label__Indonesia"
                    font-size="13.00"
                    font-weight="400"
                    x="751.6"
                    y="448.9"
                    fill="#2c8465"
                    opacity="1"
                    text-anchor="start"
                >
                    <tspan x="751.61" y="448.90999999999997">Indonesia</tspan>
                </text>
                <text
                    id="label__United-States"
                    font-size="13.00"
                    font-weight="400"
                    x="751.6"
                    y="467.2"
                    fill="#a2559c"
                    opacity="1"
                    text-anchor="start"
                >
                    <tspan x="751.61" y="467.21">United States</tspan>
                </text>
                <text
                    id="label__Brazil"
                    font-size="13.00"
                    font-weight="400"
                    x="751.6"
                    y="485.5"
                    fill="#4c6a9c"
                    opacity="1"
                    text-anchor="start"
                >
                    <tspan x="751.61" y="485.51">Brazil</tspan>
                </text>
                <text
                    id="label__Japan"
                    font-size="13.00"
                    font-weight="400"
                    x="751.6"
                    y="505.1"
                    fill="#6d3e91"
                    opacity="1"
                    text-anchor="start"
                >
                    <tspan x="751.61" y="505.11">Japan</tspan>
                </text>
            </g>
        </g>
        <g id="lines">
            <path
                fill="none"
                stroke-linecap="butt"
                stroke-linejoin="round"
                stroke="#ffffff"
                id="outline__Japan"
                stroke-width="2.5"
                d="M76 477.5L84.9 476.7L93.8 478.1L102.7 480.3L111.6 482.4L120.6 484.4L129.5 486L138.4 487.2L147.3 488.3L156.2 489L165.1 489.3L174 489.5L182.9 489.5L191.9 489.6L200.8 489.6L209.7 489.4L218.6 488.9L227.5 489L236.4 488.8L245.3 488.1L254.2 487.8L263.2 486.6L272.1 485.2L281 484.3L289.9 483.3L298.8 482.6L307.7 482.6L316.6 483.3L325.5 484.4L334.5 485.8L343.4 487L352.3 488L361.2 489L370.1 489.9L379 490.7L387.9 491.2L396.8 491.7L405.8 492.1L414.7 492.7L423.6 493.3L432.5 494L441.4 494.6L450.3 495L459.2 495.3L468.1 495.5L477.1 495.5L486 495.5L494.9 495.6L503.8 495.5L512.7 495.5L521.6 495.5L530.5 495.4L539.4 495.4L548.4 495.5L557.3 495.6L566.2 495.8L575.1 496.2L584 496.4L592.9 496.6L601.8 496.8L610.7 496.8L619.7 496.9L628.6 497L637.5 497.2L646.4 497.4L655.3 497.6L664.2 497.8L673.1 498L682 498.2L691 498.5L699.9 498.9L708.8 499.4L717.7 499.9L726.6 500.3"
            ></path>
            <path
                fill="none"
                stroke-linecap="butt"
                stroke-linejoin="round"
                stroke="#6d3e91"
                id="line__Japan"
                stroke-width="1.5"
                stroke-opacity="1"
                d="M76 477.5L84.9 476.7L93.8 478.1L102.7 480.3L111.6 482.4L120.6 484.4L129.5 486L138.4 487.2L147.3 488.3L156.2 489L165.1 489.3L174 489.5L182.9 489.5L191.9 489.6L200.8 489.6L209.7 489.4L218.6 488.9L227.5 489L236.4 488.8L245.3 488.1L254.2 487.8L263.2 486.6L272.1 485.2L281 484.3L289.9 483.3L298.8 482.6L307.7 482.6L316.6 483.3L325.5 484.4L334.5 485.8L343.4 487L352.3 488L361.2 489L370.1 489.9L379 490.7L387.9 491.2L396.8 491.7L405.8 492.1L414.7 492.7L423.6 493.3L432.5 494L441.4 494.6L450.3 495L459.2 495.3L468.1 495.5L477.1 495.5L486 495.5L494.9 495.6L503.8 495.5L512.7 495.5L521.6 495.5L530.5 495.4L539.4 495.4L548.4 495.5L557.3 495.6L566.2 495.8L575.1 496.2L584 496.4L592.9 496.6L601.8 496.8L610.7 496.8L619.7 496.9L628.6 497L637.5 497.2L646.4 497.4L655.3 497.6L664.2 497.8L673.1 498L682 498.2L691 498.5L699.9 498.9L708.8 499.4L717.7 499.9L726.6 500.3"
            ></path>
            <path
                fill="none"
                stroke-linecap="butt"
                stroke-linejoin="round"
                stroke="#ffffff"
                id="outline__Brazil"
                stroke-width="2.5"
                d="M76 487L84.9 485.7L93.8 484.4L102.7 483.2L111.6 482.2L120.6 481.2L129.5 480.2L138.4 479.2L147.3 478.2L156.2 477.2L165.1 476.2L174 475.2L182.9 474.2L191.9 473.3L200.8 472.5L209.7 471.7L218.6 471.1L227.5 470.7L236.4 470.5L245.3 470.5L254.2 470.5L263.2 470.3L272.1 470L281 469.4L289.9 468.7L298.8 468L307.7 467.2L316.6 466.4L325.5 465.6L334.5 464.6L343.4 463.5L352.3 462.5L361.2 461.5L370.1 460.7L379 460L387.9 459.6L396.8 459.4L405.8 459.4L414.7 459.6L423.6 459.9L432.5 460.4L441.4 461L450.3 461.6L459.2 462.2L468.1 462.7L477.1 463L486 463.2L494.9 463.1L503.8 463L512.7 462.8L521.6 462.8L530.5 463.1L539.4 463.6L548.4 464.4L557.3 465.3L566.2 466.3L575.1 467L584 467.6L592.9 468.2L601.8 468.8L610.7 469.4L619.7 470L628.6 470.4L637.5 470.6L646.4 470.8L655.3 470.9L664.2 470.9L673.1 471L682 471.1L691 471.3L699.9 471.7L708.8 472.2L717.7 472.9L726.6 473.8"
            ></path>
            <path
                fill="none"
                stroke-linecap="butt"
                stroke-linejoin="round"
                stroke="#4c6a9c"
                id="line__Brazil"
                stroke-width="1.5"
                stroke-opacity="1"
                d="M76 487L84.9 485.7L93.8 484.4L102.7 483.2L111.6 482.2L120.6 481.2L129.5 480.2L138.4 479.2L147.3 478.2L156.2 477.2L165.1 476.2L174 475.2L182.9 474.2L191.9 473.3L200.8 472.5L209.7 471.7L218.6 471.1L227.5 470.7L236.4 470.5L245.3 470.5L254.2 470.5L263.2 470.3L272.1 470L281 469.4L289.9 468.7L298.8 468L307.7 467.2L316.6 466.4L325.5 465.6L334.5 464.6L343.4 463.5L352.3 462.5L361.2 461.5L370.1 460.7L379 460L387.9 459.6L396.8 459.4L405.8 459.4L414.7 459.6L423.6 459.9L432.5 460.4L441.4 461L450.3 461.6L459.2 462.2L468.1 462.7L477.1 463L486 463.2L494.9 463.1L503.8 463L512.7 462.8L521.6 462.8L530.5 463.1L539.4 463.6L548.4 464.4L557.3 465.3L566.2 466.3L575.1 467L584 467.6L592.9 468.2L601.8 468.8L610.7 469.4L619.7 470L628.6 470.4L637.5 470.6L646.4 470.8L655.3 470.9L664.2 470.9L673.1 471L682 471.1L691 471.3L699.9 471.7L708.8 472.2L717.7 472.9L726.6 473.8"
            ></path>
            <path
                fill="none"
                stroke-linecap="butt"
                stroke-linejoin="round"
                stroke="#ffffff"
                id="outline__Nigeria"
                stroke-width="2.5"
                d="M76 495L84.9 494.8L93.8 494.5L102.7 494.1L111.6 493.7L120.6 493.2L129.5 492.8L138.4 492.3L147.3 491.8L156.2 491.4L165.1 490.9L174 490.4L182.9 489.9L191.9 489.3L200.8 488.7L209.7 488.1L218.6 487.5L227.5 486.9L236.4 486.3L245.3 485.6L254.2 484.9L263.2 484.1L272.1 483.3L281 482.3L289.9 481.3L298.8 480.1L307.7 478.8L316.6 477.5L325.5 476.1L334.5 474.7L343.4 473.3L352.3 472L361.2 470.8L370.1 469.9L379 469L387.9 468L396.8 467.1L405.8 466.3L414.7 465.6L423.6 464.9L432.5 464L441.4 463L450.3 461.8L459.2 460.6L468.1 459.4L477.1 458L486 456.6L494.9 455.1L503.8 453.5L512.7 451.9L521.6 450.3L530.5 448.5L539.4 446.3L548.4 444L557.3 441.6L566.2 439.4L575.1 437.2L584 435L592.9 432.8L601.8 430.6L610.7 428.4L619.7 426.2L628.6 424.1L637.5 422.1L646.4 420.4L655.3 418.9L664.2 417.7L673.1 416.9L682 416.5L691 416.5L699.9 416.8L708.8 417.1L717.7 417.2L726.6 416.8"
            ></path>
            <path
                fill="none"
                stroke-linecap="butt"
                stroke-linejoin="round"
                stroke="#883039"
                id="line__Nigeria"
                stroke-width="1.5"
                stroke-opacity="1"
                d="M76 495L84.9 494.8L93.8 494.5L102.7 494.1L111.6 493.7L120.6 493.2L129.5 492.8L138.4 492.3L147.3 491.8L156.2 491.4L165.1 490.9L174 490.4L182.9 489.9L191.9 489.3L200.8 488.7L209.7 488.1L218.6 487.5L227.5 486.9L236.4 486.3L245.3 485.6L254.2 484.9L263.2 484.1L272.1 483.3L281 482.3L289.9 481.3L298.8 480.1L307.7 478.8L316.6 477.5L325.5 476.1L334.5 474.7L343.4 473.3L352.3 472L361.2 470.8L370.1 469.9L379 469L387.9 468L396.8 467.1L405.8 466.3L414.7 465.6L423.6 464.9L432.5 464L441.4 463L450.3 461.8L459.2 460.6L468.1 459.4L477.1 458L486 456.6L494.9 455.1L503.8 453.5L512.7 451.9L521.6 450.3L530.5 448.5L539.4 446.3L548.4 444L557.3 441.6L566.2 439.4L575.1 437.2L584 435L592.9 432.8L601.8 430.6L610.7 428.4L619.7 426.2L628.6 424.1L637.5 422.1L646.4 420.4L655.3 418.9L664.2 417.7L673.1 416.9L682 416.5L691 416.5L699.9 416.8L708.8 417.1L717.7 417.2L726.6 416.8"
            ></path>
            <path
                fill="none"
                stroke-linecap="butt"
                stroke-linejoin="round"
                stroke="#ffffff"
                id="outline__Pakistan"
                stroke-width="2.5"
                d="M76 495.9L84.9 496.1L93.8 496.2L102.7 495.9L111.6 495.4L120.6 494.7L129.5 493.9L138.4 493.2L147.3 492.5L156.2 491.7L165.1 490.9L174 490.1L182.9 489.4L191.9 488.6L200.8 487.8L209.7 487L218.6 486.3L227.5 485.6L236.4 484.8L245.3 484.1L254.2 483.4L263.2 482.7L272.1 482L281 481.2L289.9 480.3L298.8 479.3L307.7 478.3L316.6 477.3L325.5 476.2L334.5 475L343.4 473.6L352.3 472L361.2 470.2L370.1 468.2L379 466.2L387.9 464.2L396.8 462.3L405.8 460.6L414.7 458.9L423.6 457.2L432.5 455.5L441.4 453.8L450.3 452.3L459.2 450.8L468.1 449.5L477.1 448.3L486 447.2L494.9 446.3L503.8 445.5L512.7 444.7L521.6 443.8L530.5 442.7L539.4 441.6L548.4 440.7L557.3 440L566.2 439.6L575.1 439.3L584 438.4L592.9 437.1L601.8 435.1L610.7 432.6L619.7 430L628.6 427.8L637.5 426.2L646.4 425.2L655.3 424.8L664.2 424.8L673.1 424.9L682 425L691 424.9L699.9 424.6L708.8 423.9L717.7 423.1L726.6 422.3"
            ></path>
            <path
                fill="none"
                stroke-linecap="butt"
                stroke-linejoin="round"
                stroke="#00295b"
                id="line__Pakistan"
                stroke-width="1.5"
                stroke-opacity="1"
                d="M76 495.9L84.9 496.1L93.8 496.2L102.7 495.9L111.6 495.4L120.6 494.7L129.5 493.9L138.4 493.2L147.3 492.5L156.2 491.7L165.1 490.9L174 490.1L182.9 489.4L191.9 488.6L200.8 487.8L209.7 487L218.6 486.3L227.5 485.6L236.4 484.8L245.3 484.1L254.2 483.4L263.2 482.7L272.1 482L281 481.2L289.9 480.3L298.8 479.3L307.7 478.3L316.6 477.3L325.5 476.2L334.5 475L343.4 473.6L352.3 472L361.2 470.2L370.1 468.2L379 466.2L387.9 464.2L396.8 462.3L405.8 460.6L414.7 458.9L423.6 457.2L432.5 455.5L441.4 453.8L450.3 452.3L459.2 450.8L468.1 449.5L477.1 448.3L486 447.2L494.9 446.3L503.8 445.5L512.7 444.7L521.6 443.8L530.5 442.7L539.4 441.6L548.4 440.7L557.3 440L566.2 439.6L575.1 439.3L584 438.4L592.9 437.1L601.8 435.1L610.7 432.6L619.7 430L628.6 427.8L637.5 426.2L646.4 425.2L655.3 424.8L664.2 424.8L673.1 424.9L682 425L691 424.9L699.9 424.6L708.8 423.9L717.7 423.1L726.6 422.3"
            ></path>
            <path
                fill="none"
                stroke-linecap="butt"
                stroke-linejoin="round"
                stroke="#ffffff"
                id="outline__Indonesia"
                stroke-width="2.5"
                d="M76 482.6L84.9 482.7L93.8 482.4L102.7 481.7L111.6 480.5L120.6 478.9L129.5 477.3L138.4 475.7L147.3 474.1L156.2 472.6L165.1 471L174 469.4L182.9 467.9L191.9 466.4L200.8 465L209.7 463.8L218.6 462.6L227.5 461.3L236.4 460L245.3 458.8L254.2 457.7L263.2 456.6L272.1 455.8L281 454.9L289.9 454.2L298.8 453.5L307.7 452.9L316.6 452.2L325.5 451.6L334.5 450.9L343.4 450.2L352.3 449.4L361.2 448.7L370.1 448.1L379 447.7L387.9 447.3L396.8 447.3L405.8 447.8L414.7 448.5L423.6 449.2L432.5 449.5L441.4 449.6L450.3 449.5L459.2 449.5L468.1 449.5L477.1 449.4L486 449.1L494.9 448.6L503.8 447.9L512.7 447.4L521.6 447.3L530.5 447.5L539.4 448L548.4 448.4L557.3 448.6L566.2 448.5L575.1 448L584 447.2L592.9 446.2L601.8 445.3L610.7 444.7L619.7 444.2L628.6 443.6L637.5 442.8L646.4 442.2L655.3 442.1L664.2 442.7L673.1 443.7L682 444.8L691 445.9L699.9 446.8L708.8 447.6L717.7 448.2L726.6 448.6"
            ></path>
            <path
                fill="none"
                stroke-linecap="butt"
                stroke-linejoin="round"
                stroke="#2c8465"
                id="line__Indonesia"
                stroke-width="1.5"
                stroke-opacity="1"
                d="M76 482.6L84.9 482.7L93.8 482.4L102.7 481.7L111.6 480.5L120.6 478.9L129.5 477.3L138.4 475.7L147.3 474.1L156.2 472.6L165.1 471L174 469.4L182.9 467.9L191.9 466.4L200.8 465L209.7 463.8L218.6 462.6L227.5 461.3L236.4 460L245.3 458.8L254.2 457.7L263.2 456.6L272.1 455.8L281 454.9L289.9 454.2L298.8 453.5L307.7 452.9L316.6 452.2L325.5 451.6L334.5 450.9L343.4 450.2L352.3 449.4L361.2 448.7L370.1 448.1L379 447.7L387.9 447.3L396.8 447.3L405.8 447.8L414.7 448.5L423.6 449.2L432.5 449.5L441.4 449.6L450.3 449.5L459.2 449.5L468.1 449.5L477.1 449.4L486 449.1L494.9 448.6L503.8 447.9L512.7 447.4L521.6 447.3L530.5 447.5L539.4 448L548.4 448.4L557.3 448.6L566.2 448.5L575.1 448L584 447.2L592.9 446.2L601.8 445.3L610.7 444.7L619.7 444.2L628.6 443.6L637.5 442.8L646.4 442.2L655.3 442.1L664.2 442.7L673.1 443.7L682 444.8L691 445.9L699.9 446.8L708.8 447.6L717.7 448.2L726.6 448.6"
            ></path>
            <path
                fill="none"
                stroke-linecap="butt"
                stroke-linejoin="round"
                stroke="#ffffff"
                id="outline__United-States"
                stroke-width="2.5"
                d="M76 463.5L84.9 462.1L93.8 461.7L102.7 461.2L111.6 460.2L120.6 458.9L129.5 457.4L138.4 455.9L147.3 454.5L156.2 453.4L165.1 452.7L174 452.4L182.9 452.1L191.9 452.2L200.8 452.7L209.7 453.5L218.6 454.7L227.5 456.4L236.4 458.3L245.3 460L254.2 461.1L263.2 461.3L272.1 461.2L281 461.6L289.9 462.8L298.8 464.5L307.7 466.1L316.6 466.8L325.5 466.5L334.5 465.8L343.4 464.7L352.3 463.4L361.2 462.1L370.1 461.1L379 460.3L387.9 460L396.8 459.8L405.8 459.5L414.7 459.1L423.6 458.5L432.5 457.8L441.4 456.8L450.3 455.6L459.2 454.9L468.1 454.8L477.1 455.4L486 456.3L494.9 457.2L503.8 457.8L512.7 458.2L521.6 458.2L530.5 457.8L539.4 457.1L548.4 456.6L557.3 456.2L566.2 455.8L575.1 455.5L584 454.8L592.9 453.9L601.8 453.2L610.7 452.8L619.7 453L628.6 453.6L637.5 454.4L646.4 455.1L655.3 455.3L664.2 455.2L673.1 455L682 455.1L691 455.5L699.9 456.3L708.8 457.5L717.7 458.5L726.6 459"
            ></path>
            <path
                fill="none"
                stroke-linecap="butt"
                stroke-linejoin="round"
                stroke="#a2559c"
                id="line__United-States"
                stroke-width="1.5"
                stroke-opacity="1"
                d="M76 463.5L84.9 462.1L93.8 461.7L102.7 461.2L111.6 460.2L120.6 458.9L129.5 457.4L138.4 455.9L147.3 454.5L156.2 453.4L165.1 452.7L174 452.4L182.9 452.1L191.9 452.2L200.8 452.7L209.7 453.5L218.6 454.7L227.5 456.4L236.4 458.3L245.3 460L254.2 461.1L263.2 461.3L272.1 461.2L281 461.6L289.9 462.8L298.8 464.5L307.7 466.1L316.6 466.8L325.5 466.5L334.5 465.8L343.4 464.7L352.3 463.4L361.2 462.1L370.1 461.1L379 460.3L387.9 460L396.8 459.8L405.8 459.5L414.7 459.1L423.6 458.5L432.5 457.8L441.4 456.8L450.3 455.6L459.2 454.9L468.1 454.8L477.1 455.4L486 456.3L494.9 457.2L503.8 457.8L512.7 458.2L521.6 458.2L530.5 457.8L539.4 457.1L548.4 456.6L557.3 456.2L566.2 455.8L575.1 455.5L584 454.8L592.9 453.9L601.8 453.2L610.7 452.8L619.7 453L628.6 453.6L637.5 454.4L646.4 455.1L655.3 455.3L664.2 455.2L673.1 455L682 455.1L691 455.5L699.9 456.3L708.8 457.5L717.7 458.5L726.6 459"
            ></path>
            <path
                fill="none"
                stroke-linecap="butt"
                stroke-linejoin="round"
                stroke="#ffffff"
                id="outline__India"
                stroke-width="2.5"
                d="M76 373.1L84.9 366.6L93.8 359.6L102.7 351.8L111.6 344.8L120.6 339.3L129.5 333.8L138.4 328.7L147.3 324L156.2 319.7L165.1 315.7L174 311.7L182.9 307.6L191.9 303.2L200.8 298.5L209.7 294L218.6 290.1L227.5 286.6L236.4 282.9L245.3 278.9L254.2 274.6L263.2 270.2L272.1 265.6L281 260.9L289.9 255.8L298.8 250.3L307.7 245.1L316.6 240L325.5 235.2L334.5 230.9L343.4 226.1L352.3 220.6L361.2 214.4L370.1 207.8L379 201L387.9 194.5L396.8 188.4L405.8 182.2L414.7 176.5L423.6 171.9L432.5 167.9L441.4 164.9L450.3 162.5L459.2 160.3L468.1 158.6L477.1 157.1L486 155.5L494.9 154.1L503.8 152.5L512.7 151L521.6 149.4L530.5 147.2L539.4 144.3L548.4 141.3L557.3 139.4L566.2 139L575.1 140.8L584 144.1L592.9 147.8L601.8 151.3L610.7 153.6L619.7 155L628.6 156.2L637.5 157.3L646.4 159.4L655.3 163.3L664.2 167.8L673.1 171.3L682 174.9L691 177.2L699.9 178.7L708.8 182.2L717.7 186.2L726.6 189.6"
            ></path>
            <path
                fill="none"
                stroke-linecap="butt"
                stroke-linejoin="round"
                stroke="#996d39"
                id="line__India"
                stroke-width="1.5"
                stroke-opacity="1"
                d="M76 373.1L84.9 366.6L93.8 359.6L102.7 351.8L111.6 344.8L120.6 339.3L129.5 333.8L138.4 328.7L147.3 324L156.2 319.7L165.1 315.7L174 311.7L182.9 307.6L191.9 303.2L200.8 298.5L209.7 294L218.6 290.1L227.5 286.6L236.4 282.9L245.3 278.9L254.2 274.6L263.2 270.2L272.1 265.6L281 260.9L289.9 255.8L298.8 250.3L307.7 245.1L316.6 240L325.5 235.2L334.5 230.9L343.4 226.1L352.3 220.6L361.2 214.4L370.1 207.8L379 201L387.9 194.5L396.8 188.4L405.8 182.2L414.7 176.5L423.6 171.9L432.5 167.9L441.4 164.9L450.3 162.5L459.2 160.3L468.1 158.6L477.1 157.1L486 155.5L494.9 154.1L503.8 152.5L512.7 151L521.6 149.4L530.5 147.2L539.4 144.3L548.4 141.3L557.3 139.4L566.2 139L575.1 140.8L584 144.1L592.9 147.8L601.8 151.3L610.7 153.6L619.7 155L628.6 156.2L637.5 157.3L646.4 159.4L655.3 163.3L664.2 167.8L673.1 171.3L682 174.9L691 177.2L699.9 178.7L708.8 182.2L717.7 186.2L726.6 189.6"
            ></path>
            <path
                fill="none"
                stroke-linecap="butt"
                stroke-linejoin="round"
                stroke="#ffffff"
                id="outline__China"
                stroke-width="2.5"
                d="M76 306.7L84.9 291.3L93.8 274.6L102.7 256.1L111.6 238.2L120.6 225.7L129.5 214.5L138.4 209.7L147.3 205.7L156.2 204.8L165.1 223.3L174 248.4L182.9 272.9L191.9 278.1L200.8 244.4L209.7 198.9L218.6 156.8L227.5 130.5L236.4 134.7L245.3 139.9L254.2 134.3L263.2 127.8L272.1 119.2L281 119.1L289.9 127.6L298.8 140.7L307.7 159.5L316.6 179.6L325.5 201.1L334.5 220.7L343.4 231.7L352.3 234.6L361.2 230.8L370.1 219.8L379 211.8L387.9 208.7L396.8 203.9L405.8 198.6L414.7 186.4L423.6 171.5L432.5 161.3L441.4 153.7L450.3 159.4L459.2 177.3L468.1 198.6L477.1 224.9L486 245.4L494.9 256.3L503.8 265.2L512.7 273.2L521.6 280.6L530.5 285.2L539.4 288.2L548.4 291.2L557.3 293.4L566.2 296L575.1 297.5L584 296.4L592.9 293.6L601.8 289.6L610.7 284.6L619.7 280L628.6 276.7L637.5 272.5L646.4 268.9L655.3 266.5L664.2 264.9L673.1 266.2L682 267L691 272L699.9 282.2L708.8 297.5L717.7 321.1L726.6 343.8"
            ></path>
            <path
                fill="none"
                stroke-linecap="butt"
                stroke-linejoin="round"
                stroke="#b13507"
                id="line__China"
                stroke-width="1.5"
                stroke-opacity="1"
                d="M76 306.7L84.9 291.3L93.8 274.6L102.7 256.1L111.6 238.2L120.6 225.7L129.5 214.5L138.4 209.7L147.3 205.7L156.2 204.8L165.1 223.3L174 248.4L182.9 272.9L191.9 278.1L200.8 244.4L209.7 198.9L218.6 156.8L227.5 130.5L236.4 134.7L245.3 139.9L254.2 134.3L263.2 127.8L272.1 119.2L281 119.1L289.9 127.6L298.8 140.7L307.7 159.5L316.6 179.6L325.5 201.1L334.5 220.7L343.4 231.7L352.3 234.6L361.2 230.8L370.1 219.8L379 211.8L387.9 208.7L396.8 203.9L405.8 198.6L414.7 186.4L423.6 171.5L432.5 161.3L441.4 153.7L450.3 159.4L459.2 177.3L468.1 198.6L477.1 224.9L486 245.4L494.9 256.3L503.8 265.2L512.7 273.2L521.6 280.6L530.5 285.2L539.4 288.2L548.4 291.2L557.3 293.4L566.2 296L575.1 297.5L584 296.4L592.9 293.6L601.8 289.6L610.7 284.6L619.7 280L628.6 276.7L637.5 272.5L646.4 268.9L655.3 266.5L664.2 264.9L673.1 266.2L682 267L691 272L699.9 282.2L708.8 297.5L717.7 321.1L726.6 343.8"
            ></path>
        </g>
    </g>
    <g id="footer" class="SourcesFooter" style="fill: #767676">
        <g id="sources" class="markdown-text-wrap">
            <text x="16.0" y="560.9" style="font-size: 13px; line-height: 1.2">
                <tspan x="16" y="560.9">
                    <tspan style="font-weight: 700">Data source:</tspan>
                    UN, World Population Prospects (2024)
                </tspan>
            </text>
        </g>
        <g id="note" class="markdown-text-wrap">
            <text x="16.0" y="581.0" style="font-size: 13px; line-height: 1.2">
                <tspan x="16" y="581.0">
                    <tspan style="font-weight: 700">Note:</tspan>
                    Values as of 1 July of the indicated year.
                </tspan>
            </text>
        </g>
        <text id="origin-url" font-size="13.00" x="560.3" y="560.9">
            <tspan x="560.3499999999999" y="560.91">
                <a
                    style="fill: #767676"
                    href="https://ourworldindata.org/population-growth"
                >
                    OurWorldinData.org/population-growth
                </a>
                |
                <a
                    style="fill: #767676"
                    href="https://creativecommons.org/licenses/by/4.0/"
                >
                    CC BY
                </a>
            </tspan>
        </text>
    </g>
</svg>
