<svg
    xmlns="http://www.w3.org/2000/svg"
    version="1.1"
    style='font-family:Lato, &#x27;Helvetica Neue&#x27;, Helvetica, Arial, &#x27;Liberation Sans&#x27;, sans-serif;font-feature-settings:"liga", "kern", "calt", "lnum";text-rendering:geometricPrecision;-webkit-font-smoothing:antialiased;font-size:18px;background-color:#ffffff'
    width="850"
    height="600"
    viewBox="0 0 850 600"
>
    <defs>
        <style>
            @import url(https://ourworldindata.org/fonts.css);
        </style>
    </defs>
    <defs>
        <pattern
            id="noDataPattern"
            patternUnits="userSpaceOnUse"
            width="4"
            height="4"
            patternTransform="rotate(-45 2 2)"
        >
            <path d="M -1,2 l 6,0" stroke="#ccc" stroke-width="0.7"></path>
        </pattern>
    </defs>
    <g id="header" class="HeaderView">
        <g id="logo" transform="translate(769, 16) scale(1)">
            <svg
                className="owidLogo"
                xmlns="http://www.w3.org/2000/svg"
                width="65"
                height="36"
                viewBox="0 0 65 36"
                fill="none"
            >
                <path fill="#002147" d="M0 0h64.8v36H0z" />
                <path fill="#CE261E" d="M0 33.3h64.8V36H0z" />
                <path
                    fill="#fff"
                    d="M13.796 10.575c0 .636-.106 1.226-.318 1.77a4.193 4.193 0 0 1-.894 1.404 4.084 4.084 0 0 1-1.386.93c-.54.22-1.138.33-1.794.33-.656 0-1.256-.11-1.8-.33a4.149 4.149 0 0 1-1.392-.93 4.193 4.193 0 0 1-.894-1.404A4.833 4.833 0 0 1 5 10.575c0-.636.106-1.224.318-1.764a4.18 4.18 0 0 1 .894-1.41 4.076 4.076 0 0 1 1.392-.924 4.684 4.684 0 0 1 1.8-.336c.656 0 1.254.112 1.794.336.54.224 1.002.534 1.386.93.384.392.682.86.894 1.404.212.54.318 1.128.318 1.764Zm-1.656 0c0-.476-.064-.902-.192-1.278a2.671 2.671 0 0 0-.54-.966 2.332 2.332 0 0 0-.864-.606 2.94 2.94 0 0 0-1.14-.21c-.424 0-.806.07-1.146.21-.34.14-.63.342-.87.606a2.742 2.742 0 0 0-.546.966 3.955 3.955 0 0 0-.192 1.278c0 .476.064.904.192 1.284.128.376.31.696.546.96.24.26.53.46.87.6.34.14.722.21 1.146.21.424 0 .804-.07 1.14-.21.34-.14.628-.34.864-.6.236-.264.416-.584.54-.96a4.01 4.01 0 0 0 .192-1.284ZM16.104 8.757v3.912c0 .376.086.668.258.876.176.204.438.306.786.306.256 0 .496-.056.72-.168a2.58 2.58 0 0 0 .636-.474V8.757h1.482v6.156h-.906c-.192 0-.318-.09-.378-.27l-.102-.492a4.65 4.65 0 0 1-.396.354 2.577 2.577 0 0 1-.438.27 2.35 2.35 0 0 1-.498.168 2.345 2.345 0 0 1-.57.066c-.336 0-.634-.056-.894-.168a1.821 1.821 0 0 1-.648-.486 2.157 2.157 0 0 1-.402-.738 3.233 3.233 0 0 1-.132-.948V8.757h1.482ZM21.328 14.913V8.757h.87c.152 0 .258.028.318.084.06.056.1.152.12.288l.09.744c.22-.38.478-.68.774-.9.296-.22.628-.33.996-.33.304 0 .556.07.756.21l-.192 1.11c-.012.072-.038.124-.078.156a.278.278 0 0 1-.162.042 1.01 1.01 0 0 1-.246-.042 1.646 1.646 0 0 0-.414-.042c-.308 0-.572.086-.792.258-.22.168-.406.416-.558.744v3.834h-1.482ZM27.347 6.237h1.356a.57.57 0 0 1 .348.102c.096.064.16.152.192.264l1.476 5.19c.036.128.068.268.096.42.032.148.062.306.09.474a5.968 5.968 0 0 1 .228-.894l1.704-5.19a.575.575 0 0 1 .186-.252.543.543 0 0 1 .348-.114h.474a.57.57 0 0 1 .348.102.497.497 0 0 1 .192.264l1.692 5.19c.088.256.164.54.228.852.028-.156.056-.306.084-.45.032-.144.064-.278.096-.402l1.476-5.19c.028-.1.09-.186.186-.258a.563.563 0 0 1 .348-.108h1.266l-2.694 8.676h-1.458l-1.896-5.928-.078-.246a9.504 9.504 0 0 1-.072-.282c-.024.1-.05.194-.078.282-.024.088-.048.17-.072.246l-1.914 5.928H30.04l-2.694-8.676ZM42.771 8.661c.46 0 .876.074 1.248.222.376.148.696.358.96.63s.468.604.612.996c.144.392.216.83.216 1.314 0 .488-.072.928-.216 1.32a2.85 2.85 0 0 1-.612 1.002 2.653 2.653 0 0 1-.96.636 3.35 3.35 0 0 1-1.248.222c-.46 0-.878-.074-1.254-.222a2.712 2.712 0 0 1-.966-.636 2.922 2.922 0 0 1-.618-1.002 3.807 3.807 0 0 1-.216-1.32c0-.484.072-.922.216-1.314.148-.392.354-.724.618-.996.268-.272.59-.482.966-.63a3.397 3.397 0 0 1 1.254-.222Zm0 5.202c.512 0 .89-.172 1.134-.516.248-.344.372-.848.372-1.512s-.124-1.17-.372-1.518c-.244-.348-.622-.522-1.134-.522-.52 0-.904.176-1.152.528-.248.348-.372.852-.372 1.512s.124 1.164.372 1.512c.248.344.632.516 1.152.516ZM46.723 14.913V8.757h.87c.152 0 .258.028.318.084.06.056.1.152.12.288l.09.744c.22-.38.478-.68.774-.9.296-.22.628-.33.996-.33.304 0 .556.07.756.21l-.192 1.11c-.012.072-.038.124-.078.156a.278.278 0 0 1-.162.042 1.01 1.01 0 0 1-.246-.042 1.646 1.646 0 0 0-.414-.042c-.308 0-.572.086-.792.258-.22.168-.406.416-.558.744v3.834h-1.482ZM52.96 5.997v8.916h-1.482V5.997h1.482ZM58.732 14.913c-.192 0-.318-.09-.378-.27l-.12-.594a3.68 3.68 0 0 1-.402.39c-.14.116-.292.216-.456.3-.16.084-.334.148-.522.192a2.372 2.372 0 0 1-.6.072c-.336 0-.644-.07-.924-.21a2.098 2.098 0 0 1-.726-.606 3.033 3.033 0 0 1-.468-.99 5.072 5.072 0 0 1-.162-1.344c0-.456.062-.88.186-1.272s.302-.732.534-1.02c.232-.288.51-.512.834-.672a2.384 2.384 0 0 1 1.092-.246 2.103 2.103 0 0 1 1.536.606V5.997h1.482v8.916h-.906Zm-1.974-1.086c.308 0 .57-.064.786-.192.216-.128.42-.31.612-.546v-2.76a1.452 1.452 0 0 0-.552-.432 1.597 1.597 0 0 0-.636-.126c-.224 0-.428.042-.612.126a1.21 1.21 0 0 0-.462.384c-.124.168-.22.384-.288.648-.068.26-.102.568-.102.924 0 .36.028.666.084.918.06.248.144.452.252.612.108.156.24.27.396.342.156.068.33.102.522.102ZM16.331 20.757v6.156H14.85v-6.156h1.481Zm.223-1.794a.844.844 0 0 1-.078.36.963.963 0 0 1-.21.294.995.995 0 0 1-.3.204.963.963 0 0 1-.372.072.948.948 0 0 1-.367-.072 1.018 1.018 0 0 1-.498-.498.963.963 0 0 1 0-.732.995.995 0 0 1 .205-.3.929.929 0 0 1 .293-.198.899.899 0 0 1 .738 0 .912.912 0 0 1 .3.198.943.943 0 0 1 .288.672ZM17.771 26.913v-6.156h.906c.192 0 .318.09.378.27l.102.486a2.934 2.934 0 0 1 .828-.618c.156-.076.322-.134.498-.174.176-.04.368-.06.576-.06.336 0 .634.058.894.174.26.112.476.272.648.48.176.204.308.45.396.738.092.284.138.598.138.942v3.918h-1.482v-3.918c0-.376-.088-.666-.264-.87-.172-.208-.432-.312-.78-.312-.256 0-.496.058-.72.174a2.58 2.58 0 0 0-.636.474v4.452h-1.482ZM34.22 22.575c0 .636-.106 1.22-.318 1.752-.212.532-.51.99-.894 1.374a4 4 0 0 1-1.386.894 4.87 4.87 0 0 1-1.794.318h-3.312v-8.676h3.312a4.79 4.79 0 0 1 1.794.324 4 4 0 0 1 1.386.894c.384.38.682.836.894 1.368.212.532.318 1.116.318 1.752Zm-1.65 0c0-.476-.064-.902-.192-1.278a2.68 2.68 0 0 0-.546-.96 2.332 2.332 0 0 0-.864-.606 2.94 2.94 0 0 0-1.14-.21h-1.686v6.108h1.686c.424 0 .804-.07 1.14-.21.34-.14.628-.34.864-.6a2.75 2.75 0 0 0 .546-.96 4.01 4.01 0 0 0 .192-1.284ZM39.98 26.913h-.665c-.14 0-.25-.02-.33-.06-.08-.044-.14-.13-.18-.258l-.132-.438c-.156.14-.31.264-.462.372a2.804 2.804 0 0 1-.462.264c-.16.072-.33.126-.51.162-.18.036-.38.054-.6.054-.26 0-.5-.034-.72-.102a1.618 1.618 0 0 1-.57-.318 1.448 1.448 0 0 1-.366-.522 1.852 1.852 0 0 1-.132-.726c0-.232.06-.46.18-.684.124-.228.328-.432.612-.612.284-.184.662-.336 1.134-.456.472-.12 1.058-.188 1.758-.204v-.36c0-.412-.088-.716-.264-.912-.172-.2-.424-.3-.756-.3a1.837 1.837 0 0 0-1.02.276c-.116.068-.224.13-.324.186a.664.664 0 0 1-.33.084.429.429 0 0 1-.258-.078.614.614 0 0 1-.174-.192l-.27-.474c.708-.648 1.562-.972 2.562-.972.36 0 .68.06.96.18.284.116.524.28.72.492.196.208.344.458.444.75.104.292.156.612.156.96v3.888Zm-2.88-.924c.153 0 .293-.014.42-.042.129-.028.249-.07.36-.126.117-.056.227-.124.33-.204.109-.084.217-.182.325-.294v-1.038c-.432.02-.794.058-1.086.114-.288.052-.52.12-.696.204a.923.923 0 0 0-.378.294.664.664 0 0 0-.108.366c0 .26.076.446.228.558.156.112.358.168.606.168ZM43.22 27.01c-.532 0-.942-.15-1.23-.45-.288-.305-.432-.723-.432-1.255v-3.438h-.624a.31.31 0 0 1-.21-.078c-.056-.052-.084-.13-.084-.234v-.588l.99-.162.312-1.68a.302.302 0 0 1 .108-.186.365.365 0 0 1 .222-.066h.768v1.938h1.62v1.056h-1.62v3.336c0 .192.048.342.144.45a.488.488 0 0 0 .384.162c.092 0 .168-.01.228-.03.064-.024.118-.048.162-.072.048-.024.09-.046.126-.066a.194.194 0 0 1 .108-.036.16.16 0 0 1 .108.036c.028.02.058.052.09.096l.444.72c-.216.18-.464.316-.744.408a2.77 2.77 0 0 1-.87.138ZM50.423 26.913h-.666c-.14 0-.25-.02-.33-.06-.08-.044-.14-.13-.18-.258l-.132-.438c-.156.14-.31.264-.462.372a2.804 2.804 0 0 1-.462.264c-.16.072-.33.126-.51.162-.18.036-.38.054-.6.054-.26 0-.5-.034-.72-.102a1.618 1.618 0 0 1-.57-.318 1.448 1.448 0 0 1-.366-.522 1.852 1.852 0 0 1-.132-.726c0-.232.06-.46.18-.684.124-.228.328-.432.612-.612.284-.184.662-.336 1.134-.456.472-.12 1.058-.188 1.758-.204v-.36c0-.412-.088-.716-.264-.912-.172-.2-.424-.3-.756-.3a1.837 1.837 0 0 0-1.02.276c-.116.068-.224.13-.324.186a.664.664 0 0 1-.33.084.429.429 0 0 1-.258-.078.614.614 0 0 1-.174-.192l-.27-.474c.708-.648 1.562-.972 2.562-.972.36 0 .68.06.96.18.284.116.524.28.72.492.196.208.344.458.444.75.104.292.156.612.156.96v3.888Zm-2.88-.924c.152 0 .292-.014.42-.042.128-.028.248-.07.36-.126.116-.056.226-.124.33-.204.108-.084.216-.182.324-.294v-1.038c-.432.02-.794.058-1.086.114-.288.052-.52.12-.696.204a.923.923 0 0 0-.378.294.664.664 0 0 0-.108.366c0 .26.076.446.228.558.156.112.358.168.606.168Z"
                />
            </svg>
        </g>
        <a
            id="title"
            href="https://ourworldindata.org/explorers/population-and-demography?indicator=Fertility+rate&amp;Sex=Both+sexes&amp;Age=Mothers+aged+35-39+years&amp;Projection+scenario=Low&amp;country=CHN~IND~USA~IDN~PAK~NGA~BRA~JPN"
            style="font-family:&#x27;Playfair Display&#x27;, Georgia, &#x27;Times New Roman&#x27;, &#x27;Liberation Serif&#x27;, serif"
        >
            <text
                font-size="25.00"
                font-weight="600"
                x="16.0"
                y="40.3"
                fill="#2d2e2d"
            >
                <tspan x="16" y="40.25">
                    Fertility rate from mothers aged 35 to 39, 1950 to 2100
                </tspan>
            </text>
        </a>
        <g id="subtitle" class="markdown-text-wrap">
            <text
                x="16.0"
                y="66.5"
                style="font-size: 15px; line-height: 1.2"
                fill="#5b5b5b"
            >
                <tspan x="16" y="66.5">
                    Projections from 2024 onwards are based on the UN&#x27;s low
                    scenario.
                </tspan>
            </text>
        </g>
    </g>
    <g id="chart-area" style="pointer-events: none">
        <g id="horizontal-axis" class="HorizontalAxis">
            <g id="tick-marks">
                <line
                    id="1950"
                    x1="42.8"
                    y1="531.9"
                    x2="42.8"
                    y2="537.4"
                    stroke="#999"
                    stroke-width="1"
                ></line>
                <line
                    id="2100"
                    x1="726.6"
                    y1="531.9"
                    x2="726.6"
                    y2="537.4"
                    stroke="#999"
                    stroke-width="1"
                ></line>
                <line
                    id="1980"
                    x1="179.6"
                    y1="531.9"
                    x2="179.6"
                    y2="537.4"
                    stroke="#999"
                    stroke-width="1"
                ></line>
                <line
                    id="2000"
                    x1="270.8"
                    y1="531.9"
                    x2="270.8"
                    y2="537.4"
                    stroke="#999"
                    stroke-width="1"
                ></line>
                <line
                    id="2020"
                    x1="361.9"
                    y1="531.9"
                    x2="361.9"
                    y2="537.4"
                    stroke="#999"
                    stroke-width="1"
                ></line>
                <line
                    id="2040"
                    x1="453.1"
                    y1="531.9"
                    x2="453.1"
                    y2="537.4"
                    stroke="#999"
                    stroke-width="1"
                ></line>
                <line
                    id="2060"
                    x1="544.3"
                    y1="531.9"
                    x2="544.3"
                    y2="537.4"
                    stroke="#999"
                    stroke-width="1"
                ></line>
                <line
                    id="2080"
                    x1="635.4"
                    y1="531.9"
                    x2="635.4"
                    y2="537.4"
                    stroke="#999"
                    stroke-width="1"
                ></line>
            </g>
            <g id="tick-labels">
                <text
                    x="42.84"
                    y="550.4"
                    fill="#5b5b5b"
                    text-anchor="start"
                    font-size="13"
                >
                    1950
                </text>
                <text
                    x="726.61"
                    y="550.4"
                    fill="#5b5b5b"
                    text-anchor="end"
                    font-size="13"
                >
                    2100
                </text>
                <text
                    x="179.6"
                    y="550.4"
                    fill="#5b5b5b"
                    text-anchor="middle"
                    font-size="13"
                >
                    1980
                </text>
                <text
                    x="270.8"
                    y="550.4"
                    fill="#5b5b5b"
                    text-anchor="middle"
                    font-size="13"
                >
                    2000
                </text>
                <text
                    x="361.9"
                    y="550.4"
                    fill="#5b5b5b"
                    text-anchor="middle"
                    font-size="13"
                >
                    2020
                </text>
                <text
                    x="453.1"
                    y="550.4"
                    fill="#5b5b5b"
                    text-anchor="middle"
                    font-size="13"
                >
                    2040
                </text>
                <text
                    x="544.3"
                    y="550.4"
                    fill="#5b5b5b"
                    text-anchor="middle"
                    font-size="13"
                >
                    2060
                </text>
                <text
                    x="635.4"
                    y="550.4"
                    fill="#5b5b5b"
                    text-anchor="middle"
                    font-size="13"
                >
                    2080
                </text>
            </g>
        </g>
        <g id="vertical-axis" class="VerticalAxis">
            <g id="tick-labels">
                <text
                    x="37.84"
                    y="532.4"
                    dy=".32em"
                    text-anchor="end"
                    fill="#5b5b5b"
                    font-size="13"
                >
                    0
                </text>
                <text
                    x="37.84"
                    y="459"
                    dy=".32em"
                    text-anchor="end"
                    fill="#5b5b5b"
                    font-size="13"
                >
                    50
                </text>
                <text
                    x="37.84"
                    y="385.6"
                    dy=".32em"
                    text-anchor="end"
                    fill="#5b5b5b"
                    font-size="13"
                >
                    100
                </text>
                <text
                    x="37.84"
                    y="312.2"
                    dy=".32em"
                    text-anchor="end"
                    fill="#5b5b5b"
                    font-size="13"
                >
                    150
                </text>
                <text
                    x="37.84"
                    y="238.8"
                    dy=".32em"
                    text-anchor="end"
                    fill="#5b5b5b"
                    font-size="13"
                >
                    200
                </text>
                <text
                    x="37.84"
                    y="165.4"
                    dy=".32em"
                    text-anchor="end"
                    fill="#5b5b5b"
                    font-size="13"
                >
                    250
                </text>
                <text
                    x="37.84"
                    y="92"
                    dy=".32em"
                    text-anchor="end"
                    fill="#5b5b5b"
                    font-size="13"
                >
                    300
                </text>
            </g>
        </g>
        <g id="horizontal-grid-lines" class="AxisGridLines horizontalLines">
            <line
                id="0"
                x1="42.84"
                y1="532.4"
                x2="726.61"
                y2="532.4"
                stroke="#999"
            ></line>
            <line
                id="50"
                x1="42.84"
                y1="459"
                x2="726.61"
                y2="459"
                stroke="#ddd"
                stroke-dasharray="4,4"
            ></line>
            <line
                id="100"
                x1="42.84"
                y1="385.6"
                x2="726.61"
                y2="385.6"
                stroke="#ddd"
                stroke-dasharray="4,4"
            ></line>
            <line
                id="150"
                x1="42.84"
                y1="312.2"
                x2="726.61"
                y2="312.2"
                stroke="#ddd"
                stroke-dasharray="4,4"
            ></line>
            <line
                id="200"
                x1="42.84"
                y1="238.8"
                x2="726.61"
                y2="238.8"
                stroke="#ddd"
                stroke-dasharray="4,4"
            ></line>
            <line
                id="250"
                x1="42.84"
                y1="165.4"
                x2="726.61"
                y2="165.4"
                stroke="#ddd"
                stroke-dasharray="4,4"
            ></line>
            <line
                id="300"
                x1="42.84"
                y1="92"
                x2="726.61"
                y2="92"
                stroke="#ddd"
                stroke-dasharray="4,4"
            ></line>
        </g>
        <g id="line-labels" class="LineLabels">
            <g id="connectors">
                <path
                    id="Japan"
                    d="M730.61,466.3 H734.01 V409.72499999999997 H747.61"
                    stroke="#999"
                    stroke-width="0.5"
                    fill="none"
                ></path>
                <path
                    id="United-States"
                    d="M730.61,468.6 H737.41 V428.025 H747.61"
                    stroke="#999"
                    stroke-width="0.5"
                    fill="none"
                ></path>
                <path
                    id="Nigeria"
                    d="M730.61,469.3 H740.81 V446.325 H747.61"
                    stroke="#999"
                    stroke-width="0.5"
                    fill="none"
                ></path>
                <path
                    id="Pakistan"
                    d="M730.61,470.6 H744.21 V464.625 H747.61"
                    stroke="#999"
                    stroke-width="0.5"
                    fill="none"
                ></path>
                <path
                    id="Indonesia"
                    d="M730.61,472 H744.21 V482.925 H747.61"
                    stroke="#999"
                    stroke-width="0.5"
                    fill="none"
                ></path>
                <path
                    id="Brazil"
                    d="M730.61,472.1 H740.81 V501.225 H747.61"
                    stroke="#999"
                    stroke-width="0.5"
                    fill="none"
                ></path>
                <path
                    id="India"
                    d="M730.61,485.5 H737.41 V519.525 H747.61"
                    stroke="#999"
                    stroke-width="0.5"
                    fill="none"
                ></path>
                <path
                    id="China"
                    d="M730.61,485.8 H734.01 V537.8249999999999 H747.61"
                    stroke="#999"
                    stroke-width="0.5"
                    fill="none"
                ></path>
            </g>
            <g id="text-annotations"></g>
            <g id="text-labels">
                <text
                    id="label__Japan"
                    font-size="13.00"
                    font-weight="400"
                    x="751.6"
                    y="414.5"
                    fill="#6d3e91"
                    opacity="1"
                    text-anchor="start"
                >
                    <tspan x="751.61" y="414.53499999999997">Japan</tspan>
                </text>
                <text
                    id="label__United-States"
                    font-size="13.00"
                    font-weight="400"
                    x="751.6"
                    y="432.8"
                    fill="#a2559c"
                    opacity="1"
                    text-anchor="start"
                >
                    <tspan x="751.61" y="432.835">United States</tspan>
                </text>
                <text
                    id="label__Nigeria"
                    font-size="13.00"
                    font-weight="400"
                    x="751.6"
                    y="451.1"
                    fill="#883039"
                    opacity="1"
                    text-anchor="start"
                >
                    <tspan x="751.61" y="451.135">Nigeria</tspan>
                </text>
                <text
                    id="label__Pakistan"
                    font-size="13.00"
                    font-weight="400"
                    x="751.6"
                    y="469.4"
                    fill="#00295b"
                    opacity="1"
                    text-anchor="start"
                >
                    <tspan x="751.61" y="469.435">Pakistan</tspan>
                </text>
                <text
                    id="label__Indonesia"
                    font-size="13.00"
                    font-weight="400"
                    x="751.6"
                    y="487.7"
                    fill="#2c8465"
                    opacity="1"
                    text-anchor="start"
                >
                    <tspan x="751.61" y="487.735">Indonesia</tspan>
                </text>
                <text
                    id="label__Brazil"
                    font-size="13.00"
                    font-weight="400"
                    x="751.6"
                    y="506.0"
                    fill="#4c6a9c"
                    opacity="1"
                    text-anchor="start"
                >
                    <tspan x="751.61" y="506.035">Brazil</tspan>
                </text>
                <text
                    id="label__India"
                    font-size="13.00"
                    font-weight="400"
                    x="751.6"
                    y="524.3"
                    fill="#996d39"
                    opacity="1"
                    text-anchor="start"
                >
                    <tspan x="751.61" y="524.335">India</tspan>
                </text>
                <text
                    id="label__China"
                    font-size="13.00"
                    font-weight="400"
                    x="751.6"
                    y="542.6"
                    fill="#b13507"
                    opacity="1"
                    text-anchor="start"
                >
                    <tspan x="751.61" y="542.635">China</tspan>
                </text>
            </g>
        </g>
        <g id="lines">
            <path
                fill="none"
                stroke-linecap="butt"
                stroke-linejoin="round"
                stroke="#ffffff"
                id="outline__Japan"
                stroke-width="2.5"
                d="M42.8 378.8L47.4 401.3L52 419.9L56.5 437.3L61.1 450L65.6 458.7L70.2 468.2L74.7 479.2L79.3 484L83.9 490.6L88.4 497L93 501.4L97.5 504.1L102.1 504.8L106.7 505L111.2 504L115.8 508.3L120.3 502.7L124.9 503L129.5 503.2L134 503.6L138.6 503.9L143.1 504.9L147.7 505.6L152.2 508.2L156.8 510.3L161.4 510.8L165.9 511.2L170.5 511.8L175 513L179.6 514.3L184.2 513.7L188.7 510.2L193.3 506.6L197.8 504.8L202.4 506.2L206.9 507.5L211.5 507.6L216.1 506.5L220.6 505.4L225.2 503.4L229.7 501.8L234.3 500L238.9 498.7L243.4 495.2L248 494.3L252.5 492.1L257.1 491L261.6 489.4L266.2 488.3L270.8 485.3L275.3 485.1L279.9 484.8L284.4 482.1L289 479.4L293.6 478.5L298.1 475L302.7 472.4L307.2 469L311.8 467.3L316.3 465.6L320.9 464.9L325.5 462.3L330 459.4L334.6 457L339.1 453L343.7 451.4L348.3 451.2L352.8 450.6L357.4 452L361.9 452.3L366.5 452.1L371 453.6L375.6 455.6L380.2 469.9L384.7 468.5L389.3 467.3L393.8 466.1L398.4 465.1L403 474.4L407.5 473.7L412.1 473.4L416.6 472.9L421.2 472.6L425.8 478.9L430.3 478.4L434.9 478L439.4 477.7L444 477.3L448.5 477L453.1 476.8L457.7 476.7L462.2 476.5L466.8 476.2L471.3 476L475.9 475.7L480.5 475.6L485 475.4L489.6 475.1L494.1 474.9L498.7 474.7L503.2 474.4L507.8 474.2L512.4 474L516.9 473.9L521.5 473.7L526 473.7L530.6 473.4L535.2 473.1L539.7 473.1L544.3 473.3L548.8 473.1L553.4 472.6L557.9 471.7L562.5 471.4L567.1 471.4L571.6 471.3L576.2 471L580.7 470.2L585.3 469.9L589.9 469.9L594.4 469.8L599 469.6L603.5 469.1L608.1 468.7L612.6 468.5L617.2 468.4L621.8 468.3L626.3 468.1L630.9 468.1L635.4 468L640 467.9L644.6 467.7L649.1 467.6L653.7 467.6L658.2 467.4L662.8 467.3L667.3 467.3L671.9 467.2L676.5 467.2L681 467L685.6 466.9L690.1 466.8L694.7 466.9L699.3 466.8L703.8 466.8L708.4 466.6L712.9 466.5L717.5 466.2L722.1 466.4L726.6 466.3"
            ></path>
            <path
                fill="none"
                stroke-linecap="butt"
                stroke-linejoin="round"
                stroke="#6d3e91"
                id="line__Japan"
                stroke-width="1.5"
                stroke-opacity="1"
                d="M42.8 378.8L47.4 401.3L52 419.9L56.5 437.3L61.1 450L65.6 458.7L70.2 468.2L74.7 479.2L79.3 484L83.9 490.6L88.4 497L93 501.4L97.5 504.1L102.1 504.8L106.7 505L111.2 504L115.8 508.3L120.3 502.7L124.9 503L129.5 503.2L134 503.6L138.6 503.9L143.1 504.9L147.7 505.6L152.2 508.2L156.8 510.3L161.4 510.8L165.9 511.2L170.5 511.8L175 513L179.6 514.3L184.2 513.7L188.7 510.2L193.3 506.6L197.8 504.8L202.4 506.2L206.9 507.5L211.5 507.6L216.1 506.5L220.6 505.4L225.2 503.4L229.7 501.8L234.3 500L238.9 498.7L243.4 495.2L248 494.3L252.5 492.1L257.1 491L261.6 489.4L266.2 488.3L270.8 485.3L275.3 485.1L279.9 484.8L284.4 482.1L289 479.4L293.6 478.5L298.1 475L302.7 472.4L307.2 469L311.8 467.3L316.3 465.6L320.9 464.9L325.5 462.3L330 459.4L334.6 457L339.1 453L343.7 451.4L348.3 451.2L352.8 450.6L357.4 452L361.9 452.3L366.5 452.1L371 453.6L375.6 455.6L380.2 469.9L384.7 468.5L389.3 467.3L393.8 466.1L398.4 465.1L403 474.4L407.5 473.7L412.1 473.4L416.6 472.9L421.2 472.6L425.8 478.9L430.3 478.4L434.9 478L439.4 477.7L444 477.3L448.5 477L453.1 476.8L457.7 476.7L462.2 476.5L466.8 476.2L471.3 476L475.9 475.7L480.5 475.6L485 475.4L489.6 475.1L494.1 474.9L498.7 474.7L503.2 474.4L507.8 474.2L512.4 474L516.9 473.9L521.5 473.7L526 473.7L530.6 473.4L535.2 473.1L539.7 473.1L544.3 473.3L548.8 473.1L553.4 472.6L557.9 471.7L562.5 471.4L567.1 471.4L571.6 471.3L576.2 471L580.7 470.2L585.3 469.9L589.9 469.9L594.4 469.8L599 469.6L603.5 469.1L608.1 468.7L612.6 468.5L617.2 468.4L621.8 468.3L626.3 468.1L630.9 468.1L635.4 468L640 467.9L644.6 467.7L649.1 467.6L653.7 467.6L658.2 467.4L662.8 467.3L667.3 467.3L671.9 467.2L676.5 467.2L681 467L685.6 466.9L690.1 466.8L694.7 466.9L699.3 466.8L703.8 466.8L708.4 466.6L712.9 466.5L717.5 466.2L722.1 466.4L726.6 466.3"
            ></path>
            <path
                fill="none"
                stroke-linecap="butt"
                stroke-linejoin="round"
                stroke="#ffffff"
                id="outline__Brazil"
                stroke-width="2.5"
                d="M42.8 263.6L47.4 264.1L52 264.8L56.5 265.3L61.1 265.5L65.6 265.8L70.2 265.6L74.7 265.3L79.3 265.2L83.9 265.4L88.4 266.6L93 268.6L97.5 270.9L102.1 273.9L106.7 280L111.2 287.6L115.8 296.5L120.3 307.1L124.9 316.8L129.5 323.9L134 331.2L138.6 336.4L143.1 343.6L147.7 348.5L152.2 356.9L156.8 362.2L161.4 366.3L165.9 370.8L170.5 374.4L175 378.2L179.6 381.6L184.2 386.7L188.7 392.2L193.3 399.7L197.8 406.6L202.4 414.7L206.9 422.6L211.5 431L216.1 438.3L220.6 444.5L225.2 450.7L229.7 455.9L234.3 459.6L238.9 461.8L243.4 463.7L248 465.4L252.5 467.6L257.1 469.4L261.6 471.3L266.2 474L270.8 476.8L275.3 479.6L279.9 481.3L284.4 482.8L289 482.9L293.6 483.1L298.1 483.2L302.7 483.4L307.2 483.4L311.8 483.3L316.3 482.3L320.9 481.1L325.5 480.4L330 479.5L334.6 477.2L339.1 475.3L343.7 475.5L348.3 472.5L352.8 469.4L357.4 469.9L361.9 471.7L366.5 472.3L371 471.4L375.6 471.9L380.2 480.3L384.7 479.8L389.3 479.2L393.8 478.4L398.4 477.5L403 482.8L407.5 482L412.1 481.1L416.6 480.4L421.2 479.5L425.8 483.3L430.3 482.7L434.9 482.1L439.4 481.4L444 480.6L448.5 480L453.1 479.1L457.7 478.4L462.2 477.8L466.8 477.3L471.3 476.8L475.9 476.3L480.5 475.7L485 475.2L489.6 474.7L494.1 474.3L498.7 473.9L503.2 473.4L507.8 473L512.4 472.6L516.9 472.3L521.5 471.8L526 471.5L530.6 471.3L535.2 470.9L539.7 470.8L544.3 470.7L548.8 470.7L553.4 470.4L557.9 469.6L562.5 469.1L567.1 469.2L571.6 469.3L576.2 469.1L580.7 468.7L585.3 468.4L589.9 468.6L594.4 468.7L599 468.5L603.5 468.3L608.1 468L612.6 468L617.2 468L621.8 468.2L626.3 468.4L630.9 468.7L635.4 469L640 469.3L644.6 469.4L649.1 469.6L653.7 469.9L658.2 470.2L662.8 470.7L667.3 471.1L671.9 471.4L676.5 471.6L681 472.1L685.6 472.1L690.1 472.1L694.7 472L699.3 472.1L703.8 472.2L708.4 472.2L712.9 472.2L717.5 472.2L722.1 472.1L726.6 472.1"
            ></path>
            <path
                fill="none"
                stroke-linecap="butt"
                stroke-linejoin="round"
                stroke="#4c6a9c"
                id="line__Brazil"
                stroke-width="1.5"
                stroke-opacity="1"
                d="M42.8 263.6L47.4 264.1L52 264.8L56.5 265.3L61.1 265.5L65.6 265.8L70.2 265.6L74.7 265.3L79.3 265.2L83.9 265.4L88.4 266.6L93 268.6L97.5 270.9L102.1 273.9L106.7 280L111.2 287.6L115.8 296.5L120.3 307.1L124.9 316.8L129.5 323.9L134 331.2L138.6 336.4L143.1 343.6L147.7 348.5L152.2 356.9L156.8 362.2L161.4 366.3L165.9 370.8L170.5 374.4L175 378.2L179.6 381.6L184.2 386.7L188.7 392.2L193.3 399.7L197.8 406.6L202.4 414.7L206.9 422.6L211.5 431L216.1 438.3L220.6 444.5L225.2 450.7L229.7 455.9L234.3 459.6L238.9 461.8L243.4 463.7L248 465.4L252.5 467.6L257.1 469.4L261.6 471.3L266.2 474L270.8 476.8L275.3 479.6L279.9 481.3L284.4 482.8L289 482.9L293.6 483.1L298.1 483.2L302.7 483.4L307.2 483.4L311.8 483.3L316.3 482.3L320.9 481.1L325.5 480.4L330 479.5L334.6 477.2L339.1 475.3L343.7 475.5L348.3 472.5L352.8 469.4L357.4 469.9L361.9 471.7L366.5 472.3L371 471.4L375.6 471.9L380.2 480.3L384.7 479.8L389.3 479.2L393.8 478.4L398.4 477.5L403 482.8L407.5 482L412.1 481.1L416.6 480.4L421.2 479.5L425.8 483.3L430.3 482.7L434.9 482.1L439.4 481.4L444 480.6L448.5 480L453.1 479.1L457.7 478.4L462.2 477.8L466.8 477.3L471.3 476.8L475.9 476.3L480.5 475.7L485 475.2L489.6 474.7L494.1 474.3L498.7 473.9L503.2 473.4L507.8 473L512.4 472.6L516.9 472.3L521.5 471.8L526 471.5L530.6 471.3L535.2 470.9L539.7 470.8L544.3 470.7L548.8 470.7L553.4 470.4L557.9 469.6L562.5 469.1L567.1 469.2L571.6 469.3L576.2 469.1L580.7 468.7L585.3 468.4L589.9 468.6L594.4 468.7L599 468.5L603.5 468.3L608.1 468L612.6 468L617.2 468L621.8 468.2L626.3 468.4L630.9 468.7L635.4 469L640 469.3L644.6 469.4L649.1 469.6L653.7 469.9L658.2 470.2L662.8 470.7L667.3 471.1L671.9 471.4L676.5 471.6L681 472.1L685.6 472.1L690.1 472.1L694.7 472L699.3 472.1L703.8 472.2L708.4 472.2L712.9 472.2L717.5 472.2L722.1 472.1L726.6 472.1"
            ></path>
            <path
                fill="none"
                stroke-linecap="butt"
                stroke-linejoin="round"
                stroke="#ffffff"
                id="outline__Nigeria"
                stroke-width="2.5"
                d="M42.8 241.9L47.4 242.1L52 243.2L56.5 243.2L61.1 243.4L65.6 243.7L70.2 243.9L74.7 245.9L79.3 248.6L83.9 251L88.4 254.3L93 257.7L97.5 260.4L102.1 262.4L106.7 263L111.2 264.3L115.8 264.6L120.3 265.1L124.9 265.4L129.5 264.4L134 264L138.6 262.1L143.1 261.6L147.7 260.9L152.2 263.1L156.8 263.6L161.4 263.8L165.9 263.3L170.5 258.7L175 262.5L179.6 263L184.2 256.9L188.7 252.5L193.3 251.3L197.8 254.4L202.4 260.3L206.9 262L211.5 264.6L216.1 263.7L220.6 264.9L225.2 262.2L229.7 260.4L234.3 261.3L238.9 263.2L243.4 264.1L248 269.9L252.5 269.7L257.1 272.6L261.6 272L266.2 267.1L270.8 260.3L275.3 260.2L279.9 260.1L284.4 263.1L289 261.6L293.6 265L298.1 263.5L302.7 266.5L307.2 265.2L311.8 265.9L316.3 272.7L320.9 279.1L325.5 285.1L330 292.8L334.6 295.8L339.1 301.5L343.7 309.2L348.3 316L352.8 322.8L357.4 329.6L361.9 337.3L366.5 340.9L371 344.6L375.6 348.2L380.2 363.5L384.7 367.8L389.3 372.4L393.8 377.3L398.4 382L403 392.2L407.5 396.7L412.1 400.7L416.6 404.6L421.2 408.6L425.8 416L430.3 419.2L434.9 422.1L439.4 425L444 427.7L448.5 430.2L453.1 432.8L457.7 435.3L462.2 437.7L466.8 439.8L471.3 441.9L475.9 443.8L480.5 445.6L485 447.3L489.6 449L494.1 450.4L498.7 451.8L503.2 453.2L507.8 454.3L512.4 455.6L516.9 456.8L521.5 457.9L526 458.7L530.6 459.6L535.2 460.3L539.7 461.1L544.3 462.1L548.8 462.9L553.4 463.7L557.9 464.2L562.5 464.8L567.1 465.6L571.6 466.2L576.2 466.6L580.7 466.9L585.3 467.4L589.9 467.9L594.4 468.3L599 468.6L603.5 468.8L608.1 469L612.6 469.3L617.2 469.6L621.8 469.8L626.3 470L630.9 470.1L635.4 470.3L640 470.5L644.6 470.5L649.1 470.7L653.7 470.7L658.2 470.8L662.8 470.8L667.3 470.8L671.9 470.8L676.5 470.7L681 470.7L685.6 470.6L690.1 470.7L694.7 470.5L699.3 470.3L703.8 470.2L708.4 470L712.9 469.8L717.5 469.6L722.1 469.5L726.6 469.3"
            ></path>
            <path
                fill="none"
                stroke-linecap="butt"
                stroke-linejoin="round"
                stroke="#883039"
                id="line__Nigeria"
                stroke-width="1.5"
                stroke-opacity="1"
                d="M42.8 241.9L47.4 242.1L52 243.2L56.5 243.2L61.1 243.4L65.6 243.7L70.2 243.9L74.7 245.9L79.3 248.6L83.9 251L88.4 254.3L93 257.7L97.5 260.4L102.1 262.4L106.7 263L111.2 264.3L115.8 264.6L120.3 265.1L124.9 265.4L129.5 264.4L134 264L138.6 262.1L143.1 261.6L147.7 260.9L152.2 263.1L156.8 263.6L161.4 263.8L165.9 263.3L170.5 258.7L175 262.5L179.6 263L184.2 256.9L188.7 252.5L193.3 251.3L197.8 254.4L202.4 260.3L206.9 262L211.5 264.6L216.1 263.7L220.6 264.9L225.2 262.2L229.7 260.4L234.3 261.3L238.9 263.2L243.4 264.1L248 269.9L252.5 269.7L257.1 272.6L261.6 272L266.2 267.1L270.8 260.3L275.3 260.2L279.9 260.1L284.4 263.1L289 261.6L293.6 265L298.1 263.5L302.7 266.5L307.2 265.2L311.8 265.9L316.3 272.7L320.9 279.1L325.5 285.1L330 292.8L334.6 295.8L339.1 301.5L343.7 309.2L348.3 316L352.8 322.8L357.4 329.6L361.9 337.3L366.5 340.9L371 344.6L375.6 348.2L380.2 363.5L384.7 367.8L389.3 372.4L393.8 377.3L398.4 382L403 392.2L407.5 396.7L412.1 400.7L416.6 404.6L421.2 408.6L425.8 416L430.3 419.2L434.9 422.1L439.4 425L444 427.7L448.5 430.2L453.1 432.8L457.7 435.3L462.2 437.7L466.8 439.8L471.3 441.9L475.9 443.8L480.5 445.6L485 447.3L489.6 449L494.1 450.4L498.7 451.8L503.2 453.2L507.8 454.3L512.4 455.6L516.9 456.8L521.5 457.9L526 458.7L530.6 459.6L535.2 460.3L539.7 461.1L544.3 462.1L548.8 462.9L553.4 463.7L557.9 464.2L562.5 464.8L567.1 465.6L571.6 466.2L576.2 466.6L580.7 466.9L585.3 467.4L589.9 467.9L594.4 468.3L599 468.6L603.5 468.8L608.1 469L612.6 469.3L617.2 469.6L621.8 469.8L626.3 470L630.9 470.1L635.4 470.3L640 470.5L644.6 470.5L649.1 470.7L653.7 470.7L658.2 470.8L662.8 470.8L667.3 470.8L671.9 470.8L676.5 470.7L681 470.7L685.6 470.6L690.1 470.7L694.7 470.5L699.3 470.3L703.8 470.2L708.4 470L712.9 469.8L717.5 469.6L722.1 469.5L726.6 469.3"
            ></path>
            <path
                fill="none"
                stroke-linecap="butt"
                stroke-linejoin="round"
                stroke="#ffffff"
                id="outline__Pakistan"
                stroke-width="2.5"
                d="M42.8 230L47.4 229.8L52 229.5L56.5 229.2L61.1 229.6L65.6 229.9L70.2 230.3L74.7 230.8L79.3 231.3L83.9 232.4L88.4 232.9L93 233.4L97.5 233.1L102.1 232.7L106.7 233.2L111.2 233.6L115.8 232.8L120.3 232.2L124.9 230.2L129.5 224.5L134 224.3L138.6 224L143.1 223.6L147.7 222.5L152.2 219.9L156.8 217.4L161.4 215.5L165.9 214.8L170.5 214.5L175 214.2L179.6 215L184.2 215L188.7 215.8L193.3 215.7L197.8 216.9L202.4 223.1L206.9 227.6L211.5 232.9L216.1 236.3L220.6 240.5L225.2 244.3L229.7 248.5L234.3 254.3L238.9 261.5L243.4 265.2L248 271.9L252.5 280.5L257.1 286.5L261.6 299.6L266.2 303.6L270.8 308.3L275.3 320.2L279.9 330.4L284.4 337.4L289 351.2L293.6 352.5L298.1 354.7L302.7 359.7L307.2 364.6L311.8 369.5L316.3 374.9L320.9 379.6L325.5 384.9L330 389.5L334.6 392.2L339.1 394.8L343.7 398.8L348.3 397.3L352.8 398.4L357.4 399.7L361.9 401.1L366.5 402.3L371 405.2L375.6 407.9L380.2 419L384.7 421.2L389.3 423.5L393.8 425.6L398.4 427.6L403 434.5L407.5 436.3L412.1 438.1L416.6 439.7L421.2 441.2L425.8 446.1L430.3 447.4L434.9 448.7L439.4 450.1L444 451.5L448.5 453L453.1 454.2L457.7 455.2L462.2 456.1L466.8 456.9L471.3 457.8L475.9 458.6L480.5 459.7L485 460.8L489.6 461.8L494.1 462.8L498.7 463.6L503.2 464.4L507.8 465L512.4 465.4L516.9 465.9L521.5 466.4L526 466.9L530.6 467.5L535.2 468.1L539.7 468.9L544.3 469.7L548.8 470.2L553.4 470.5L557.9 470.5L562.5 470.8L567.1 471.3L571.6 471.7L576.2 471.9L580.7 472L585.3 472.3L589.9 472.6L594.4 472.9L599 473L603.5 473L608.1 473.2L612.6 473.2L617.2 473.2L621.8 473.3L626.3 473.4L630.9 473.4L635.4 473.3L640 473.3L644.6 473.3L649.1 473.4L653.7 473.3L658.2 473.3L662.8 473.3L667.3 473.3L671.9 473.2L676.5 473L681 472.8L685.6 472.7L690.1 472.5L694.7 472.3L699.3 472.2L703.8 472L708.4 471.8L712.9 471.5L717.5 471.2L722.1 470.9L726.6 470.6"
            ></path>
            <path
                fill="none"
                stroke-linecap="butt"
                stroke-linejoin="round"
                stroke="#00295b"
                id="line__Pakistan"
                stroke-width="1.5"
                stroke-opacity="1"
                d="M42.8 230L47.4 229.8L52 229.5L56.5 229.2L61.1 229.6L65.6 229.9L70.2 230.3L74.7 230.8L79.3 231.3L83.9 232.4L88.4 232.9L93 233.4L97.5 233.1L102.1 232.7L106.7 233.2L111.2 233.6L115.8 232.8L120.3 232.2L124.9 230.2L129.5 224.5L134 224.3L138.6 224L143.1 223.6L147.7 222.5L152.2 219.9L156.8 217.4L161.4 215.5L165.9 214.8L170.5 214.5L175 214.2L179.6 215L184.2 215L188.7 215.8L193.3 215.7L197.8 216.9L202.4 223.1L206.9 227.6L211.5 232.9L216.1 236.3L220.6 240.5L225.2 244.3L229.7 248.5L234.3 254.3L238.9 261.5L243.4 265.2L248 271.9L252.5 280.5L257.1 286.5L261.6 299.6L266.2 303.6L270.8 308.3L275.3 320.2L279.9 330.4L284.4 337.4L289 351.2L293.6 352.5L298.1 354.7L302.7 359.7L307.2 364.6L311.8 369.5L316.3 374.9L320.9 379.6L325.5 384.9L330 389.5L334.6 392.2L339.1 394.8L343.7 398.8L348.3 397.3L352.8 398.4L357.4 399.7L361.9 401.1L366.5 402.3L371 405.2L375.6 407.9L380.2 419L384.7 421.2L389.3 423.5L393.8 425.6L398.4 427.6L403 434.5L407.5 436.3L412.1 438.1L416.6 439.7L421.2 441.2L425.8 446.1L430.3 447.4L434.9 448.7L439.4 450.1L444 451.5L448.5 453L453.1 454.2L457.7 455.2L462.2 456.1L466.8 456.9L471.3 457.8L475.9 458.6L480.5 459.7L485 460.8L489.6 461.8L494.1 462.8L498.7 463.6L503.2 464.4L507.8 465L512.4 465.4L516.9 465.9L521.5 466.4L526 466.9L530.6 467.5L535.2 468.1L539.7 468.9L544.3 469.7L548.8 470.2L553.4 470.5L557.9 470.5L562.5 470.8L567.1 471.3L571.6 471.7L576.2 471.9L580.7 472L585.3 472.3L589.9 472.6L594.4 472.9L599 473L603.5 473L608.1 473.2L612.6 473.2L617.2 473.2L621.8 473.3L626.3 473.4L630.9 473.4L635.4 473.3L640 473.3L644.6 473.3L649.1 473.4L653.7 473.3L658.2 473.3L662.8 473.3L667.3 473.3L671.9 473.2L676.5 473L681 472.8L685.6 472.7L690.1 472.5L694.7 472.3L699.3 472.2L703.8 472L708.4 471.8L712.9 471.5L717.5 471.2L722.1 470.9L726.6 470.6"
            ></path>
            <path
                fill="none"
                stroke-linecap="butt"
                stroke-linejoin="round"
                stroke="#ffffff"
                id="outline__Indonesia"
                stroke-width="2.5"
                d="M42.8 339.4L47.4 337.6L52 335.9L56.5 334.3L61.1 332L65.6 330.2L70.2 328.9L74.7 327.9L79.3 326.8L83.9 325.6L88.4 324.3L93 323.4L97.5 322.8L102.1 322L106.7 321.4L111.2 319.9L115.8 318.9L120.3 319.6L124.9 319.4L129.5 319.5L134 322.6L138.6 328.2L143.1 331.7L147.7 335.1L152.2 342.1L156.8 342.7L161.4 348L165.9 353.4L170.5 358.2L175 364.2L179.6 371L184.2 379.2L188.7 383.5L193.3 390.9L197.8 397.5L202.4 406.7L206.9 414.3L211.5 415.8L216.1 415.8L220.6 418.5L225.2 423.8L229.7 425.8L234.3 430.2L238.9 431.7L243.4 431.4L248 431.9L252.5 433.1L257.1 433.7L261.6 438L266.2 441.3L270.8 444.6L275.3 445.9L279.9 447.6L284.4 447.8L289 446.5L293.6 443.3L298.1 442.8L302.7 441.9L307.2 443.3L311.8 443.5L316.3 443L320.9 439L325.5 438.1L330 441.1L334.6 442.4L339.1 443.8L343.7 444.8L348.3 446.8L352.8 447.9L357.4 447.4L361.9 447L366.5 448.8L371 449.5L375.6 450.7L380.2 460.4L384.7 460.8L389.3 461.2L393.8 461.6L398.4 462.2L403 468.4L407.5 468.8L412.1 469L416.6 469.2L421.2 469.5L425.8 473.9L430.3 474.4L434.9 474.7L439.4 474.8L444 475L448.5 475L453.1 475.2L457.7 475.2L462.2 475.3L466.8 475.5L471.3 475.7L475.9 475.9L480.5 476L485 475.9L489.6 475.9L494.1 476.1L498.7 476.5L503.2 476.7L507.8 476.7L512.4 476.7L516.9 476.7L521.5 476.7L526 476.5L530.6 476.6L535.2 476.5L539.7 476.8L544.3 477.1L548.8 477.3L553.4 477.1L557.9 476.6L562.5 476.5L567.1 476.7L571.6 476.7L576.2 476.6L580.7 476.2L585.3 476.1L589.9 476.2L594.4 476.3L599 476.2L603.5 475.9L608.1 475.6L612.6 475.6L617.2 475.5L621.8 475.5L626.3 475.5L630.9 475.3L635.4 475.2L640 475L644.6 474.9L649.1 474.8L653.7 474.7L658.2 474.6L662.8 474.5L667.3 474.4L671.9 474.3L676.5 474.1L681 474L685.6 473.8L690.1 473.6L694.7 473.4L699.3 473.2L703.8 473L708.4 472.9L712.9 472.7L717.5 472.5L722.1 472.2L726.6 472"
            ></path>
            <path
                fill="none"
                stroke-linecap="butt"
                stroke-linejoin="round"
                stroke="#2c8465"
                id="line__Indonesia"
                stroke-width="1.5"
                stroke-opacity="1"
                d="M42.8 339.4L47.4 337.6L52 335.9L56.5 334.3L61.1 332L65.6 330.2L70.2 328.9L74.7 327.9L79.3 326.8L83.9 325.6L88.4 324.3L93 323.4L97.5 322.8L102.1 322L106.7 321.4L111.2 319.9L115.8 318.9L120.3 319.6L124.9 319.4L129.5 319.5L134 322.6L138.6 328.2L143.1 331.7L147.7 335.1L152.2 342.1L156.8 342.7L161.4 348L165.9 353.4L170.5 358.2L175 364.2L179.6 371L184.2 379.2L188.7 383.5L193.3 390.9L197.8 397.5L202.4 406.7L206.9 414.3L211.5 415.8L216.1 415.8L220.6 418.5L225.2 423.8L229.7 425.8L234.3 430.2L238.9 431.7L243.4 431.4L248 431.9L252.5 433.1L257.1 433.7L261.6 438L266.2 441.3L270.8 444.6L275.3 445.9L279.9 447.6L284.4 447.8L289 446.5L293.6 443.3L298.1 442.8L302.7 441.9L307.2 443.3L311.8 443.5L316.3 443L320.9 439L325.5 438.1L330 441.1L334.6 442.4L339.1 443.8L343.7 444.8L348.3 446.8L352.8 447.9L357.4 447.4L361.9 447L366.5 448.8L371 449.5L375.6 450.7L380.2 460.4L384.7 460.8L389.3 461.2L393.8 461.6L398.4 462.2L403 468.4L407.5 468.8L412.1 469L416.6 469.2L421.2 469.5L425.8 473.9L430.3 474.4L434.9 474.7L439.4 474.8L444 475L448.5 475L453.1 475.2L457.7 475.2L462.2 475.3L466.8 475.5L471.3 475.7L475.9 475.9L480.5 476L485 475.9L489.6 475.9L494.1 476.1L498.7 476.5L503.2 476.7L507.8 476.7L512.4 476.7L516.9 476.7L521.5 476.7L526 476.5L530.6 476.6L535.2 476.5L539.7 476.8L544.3 477.1L548.8 477.3L553.4 477.1L557.9 476.6L562.5 476.5L567.1 476.7L571.6 476.7L576.2 476.6L580.7 476.2L585.3 476.1L589.9 476.2L594.4 476.3L599 476.2L603.5 475.9L608.1 475.6L612.6 475.6L617.2 475.5L621.8 475.5L626.3 475.5L630.9 475.3L635.4 475.2L640 475L644.6 474.9L649.1 474.8L653.7 474.7L658.2 474.6L662.8 474.5L667.3 474.4L671.9 474.3L676.5 474.1L681 474L685.6 473.8L690.1 473.6L694.7 473.4L699.3 473.2L703.8 473L708.4 472.9L712.9 472.7L717.5 472.5L722.1 472.2L726.6 472"
            ></path>
            <path
                fill="none"
                stroke-linecap="butt"
                stroke-linejoin="round"
                stroke="#ffffff"
                id="outline__United-States"
                stroke-width="2.5"
                d="M42.8 456L47.4 455L52 452.4L56.5 450.4L61.1 448.1L65.6 447.7L70.2 446.2L74.7 445L79.3 446.2L83.9 447L88.4 447.5L93 449L97.5 453.9L102.1 455.7L106.7 457.3L111.2 463.5L115.8 469.9L120.3 475.3L124.9 480L129.5 483.1L134 484.8L138.6 489.6L143.1 495.5L147.7 499.5L152.2 502L156.8 503.3L161.4 503.7L165.9 503.2L170.5 503.2L175 502.5L179.6 502.5L184.2 502.3L188.7 499.9L193.3 498.6L197.8 497.3L202.4 495.9L206.9 495.2L211.5 492.9L216.1 490.1L220.6 487.6L225.2 485.8L229.7 485.2L234.3 484.5L238.9 484L243.4 483.2L248 482.4L252.5 481.1L257.1 480.2L261.6 478.5L266.2 477.3L270.8 474.8L275.3 474L279.9 472.7L284.4 469.8L289 467.4L293.6 465.4L298.1 463.3L302.7 463.4L307.2 465L311.8 466.4L316.3 466.3L320.9 464.6L325.5 462.5L330 460.8L334.6 458L339.1 456.3L343.7 455.5L348.3 456L352.8 455.8L357.4 455.9L361.9 457.9L366.5 454.6L371 452L375.6 454L380.2 464.7L384.7 463.1L389.3 461.8L393.8 460.9L398.4 460L403 467.2L407.5 466.4L412.1 465.6L416.6 464.9L421.2 464.1L425.8 469.2L430.3 468.6L434.9 468.1L439.4 467.9L444 467.7L448.5 467.6L453.1 467.6L457.7 467.7L462.2 468L466.8 468.4L471.3 468.6L475.9 468.7L480.5 469L485 469.1L489.6 469L494.1 468.9L498.7 468.7L503.2 468.7L507.8 468.8L512.4 468.9L516.9 469.1L521.5 469.1L526 469.1L530.6 469L535.2 468.9L539.7 469.1L544.3 469.6L548.8 469.9L553.4 469.7L557.9 469.2L562.5 469.1L567.1 469.4L571.6 469.4L576.2 469.2L580.7 468.9L585.3 468.8L589.9 468.9L594.4 469.1L599 469L603.5 468.9L608.1 468.7L612.6 468.6L617.2 468.6L621.8 468.5L626.3 468.5L630.9 468.5L635.4 468.6L640 468.6L644.6 468.7L649.1 468.7L653.7 468.7L658.2 468.7L662.8 468.6L667.3 468.6L671.9 468.6L676.5 468.6L681 468.5L685.6 468.6L690.1 468.5L694.7 468.6L699.3 468.6L703.8 468.5L708.4 468.6L712.9 468.4L717.5 468.6L722.1 468.5L726.6 468.6"
            ></path>
            <path
                fill="none"
                stroke-linecap="butt"
                stroke-linejoin="round"
                stroke="#a2559c"
                id="line__United-States"
                stroke-width="1.5"
                stroke-opacity="1"
                d="M42.8 456L47.4 455L52 452.4L56.5 450.4L61.1 448.1L65.6 447.7L70.2 446.2L74.7 445L79.3 446.2L83.9 447L88.4 447.5L93 449L97.5 453.9L102.1 455.7L106.7 457.3L111.2 463.5L115.8 469.9L120.3 475.3L124.9 480L129.5 483.1L134 484.8L138.6 489.6L143.1 495.5L147.7 499.5L152.2 502L156.8 503.3L161.4 503.7L165.9 503.2L170.5 503.2L175 502.5L179.6 502.5L184.2 502.3L188.7 499.9L193.3 498.6L197.8 497.3L202.4 495.9L206.9 495.2L211.5 492.9L216.1 490.1L220.6 487.6L225.2 485.8L229.7 485.2L234.3 484.5L238.9 484L243.4 483.2L248 482.4L252.5 481.1L257.1 480.2L261.6 478.5L266.2 477.3L270.8 474.8L275.3 474L279.9 472.7L284.4 469.8L289 467.4L293.6 465.4L298.1 463.3L302.7 463.4L307.2 465L311.8 466.4L316.3 466.3L320.9 464.6L325.5 462.5L330 460.8L334.6 458L339.1 456.3L343.7 455.5L348.3 456L352.8 455.8L357.4 455.9L361.9 457.9L366.5 454.6L371 452L375.6 454L380.2 464.7L384.7 463.1L389.3 461.8L393.8 460.9L398.4 460L403 467.2L407.5 466.4L412.1 465.6L416.6 464.9L421.2 464.1L425.8 469.2L430.3 468.6L434.9 468.1L439.4 467.9L444 467.7L448.5 467.6L453.1 467.6L457.7 467.7L462.2 468L466.8 468.4L471.3 468.6L475.9 468.7L480.5 469L485 469.1L489.6 469L494.1 468.9L498.7 468.7L503.2 468.7L507.8 468.8L512.4 468.9L516.9 469.1L521.5 469.1L526 469.1L530.6 469L535.2 468.9L539.7 469.1L544.3 469.6L548.8 469.9L553.4 469.7L557.9 469.2L562.5 469.1L567.1 469.4L571.6 469.4L576.2 469.2L580.7 468.9L585.3 468.8L589.9 468.9L594.4 469.1L599 469L603.5 468.9L608.1 468.7L612.6 468.6L617.2 468.6L621.8 468.5L626.3 468.5L630.9 468.5L635.4 468.6L640 468.6L644.6 468.7L649.1 468.7L653.7 468.7L658.2 468.7L662.8 468.6L667.3 468.6L671.9 468.6L676.5 468.6L681 468.5L685.6 468.6L690.1 468.5L694.7 468.6L699.3 468.6L703.8 468.5L708.4 468.6L712.9 468.4L717.5 468.6L722.1 468.5L726.6 468.6"
            ></path>
            <path
                fill="none"
                stroke-linecap="butt"
                stroke-linejoin="round"
                stroke="#ffffff"
                id="outline__India"
                stroke-width="2.5"
                d="M42.8 323L47.4 321.8L52 320.4L56.5 319.3L61.1 318.3L65.6 318.8L70.2 319.3L74.7 320L79.3 321L83.9 322.1L88.4 321.8L93 321.9L97.5 322.1L102.1 322.2L106.7 322.6L111.2 325.7L115.8 331.3L120.3 335.7L124.9 339.8L129.5 345.4L134 349.3L138.6 354.5L143.1 361.4L147.7 367.1L152.2 371.9L156.8 378.3L161.4 383.1L165.9 388.7L170.5 396.2L175 403.3L179.6 405.2L184.2 411.9L188.7 417.6L193.3 421.8L197.8 426.4L202.4 432.4L206.9 434.9L211.5 438.6L216.1 445.4L220.6 450.4L225.2 453L229.7 456.9L234.3 459.9L238.9 459.9L243.4 466L248 469.8L252.5 472.4L257.1 473L261.6 473L266.2 474.8L270.8 475.7L275.3 477L279.9 478.2L284.4 479.3L289 480.4L293.6 479.8L298.1 480.5L302.7 483.6L307.2 485.6L311.8 486.9L316.3 489.1L320.9 493.4L325.5 496.4L330 497.6L334.6 496.5L339.1 493L343.7 487.5L348.3 487.6L352.8 487.8L357.4 489.2L361.9 490.7L366.5 491.4L371 491.8L375.6 492.3L380.2 497.3L384.7 497.4L389.3 497.4L393.8 497.4L398.4 497.4L403 500.6L407.5 500.5L412.1 500.5L416.6 500.5L421.2 500.5L425.8 502.6L430.3 502.5L434.9 502.4L439.4 502.4L444 502.4L448.5 502.5L453.1 502.4L457.7 502.4L462.2 502.4L466.8 502.2L471.3 502L475.9 501.9L480.5 501.7L485 501.6L489.6 501.5L494.1 501.5L498.7 501.4L503.2 501.2L507.8 501L512.4 500.8L516.9 500.7L521.5 500.6L526 500.5L530.6 500.3L535.2 500.1L539.7 500.1L544.3 500.3L548.8 500.2L553.4 499.8L557.9 499.2L562.5 499L567.1 499L571.6 498.9L576.2 498.5L580.7 498L585.3 497.8L589.9 497.7L594.4 497.4L599 497.1L603.5 496.6L608.1 496.1L612.6 495.9L617.2 495.5L621.8 495.1L626.3 494.9L630.9 494.6L635.4 494.2L640 493.9L644.6 493.6L649.1 493.3L653.7 492.9L658.2 492.5L662.8 492.1L667.3 491.7L671.9 491.3L676.5 490.9L681 490.5L685.6 490L690.1 489.6L694.7 489.2L699.3 488.7L703.8 488.3L708.4 487.7L712.9 487.2L717.5 486.7L722.1 486L726.6 485.5"
            ></path>
            <path
                fill="none"
                stroke-linecap="butt"
                stroke-linejoin="round"
                stroke="#996d39"
                id="line__India"
                stroke-width="1.5"
                stroke-opacity="1"
                d="M42.8 323L47.4 321.8L52 320.4L56.5 319.3L61.1 318.3L65.6 318.8L70.2 319.3L74.7 320L79.3 321L83.9 322.1L88.4 321.8L93 321.9L97.5 322.1L102.1 322.2L106.7 322.6L111.2 325.7L115.8 331.3L120.3 335.7L124.9 339.8L129.5 345.4L134 349.3L138.6 354.5L143.1 361.4L147.7 367.1L152.2 371.9L156.8 378.3L161.4 383.1L165.9 388.7L170.5 396.2L175 403.3L179.6 405.2L184.2 411.9L188.7 417.6L193.3 421.8L197.8 426.4L202.4 432.4L206.9 434.9L211.5 438.6L216.1 445.4L220.6 450.4L225.2 453L229.7 456.9L234.3 459.9L238.9 459.9L243.4 466L248 469.8L252.5 472.4L257.1 473L261.6 473L266.2 474.8L270.8 475.7L275.3 477L279.9 478.2L284.4 479.3L289 480.4L293.6 479.8L298.1 480.5L302.7 483.6L307.2 485.6L311.8 486.9L316.3 489.1L320.9 493.4L325.5 496.4L330 497.6L334.6 496.5L339.1 493L343.7 487.5L348.3 487.6L352.8 487.8L357.4 489.2L361.9 490.7L366.5 491.4L371 491.8L375.6 492.3L380.2 497.3L384.7 497.4L389.3 497.4L393.8 497.4L398.4 497.4L403 500.6L407.5 500.5L412.1 500.5L416.6 500.5L421.2 500.5L425.8 502.6L430.3 502.5L434.9 502.4L439.4 502.4L444 502.4L448.5 502.5L453.1 502.4L457.7 502.4L462.2 502.4L466.8 502.2L471.3 502L475.9 501.9L480.5 501.7L485 501.6L489.6 501.5L494.1 501.5L498.7 501.4L503.2 501.2L507.8 501L512.4 500.8L516.9 500.7L521.5 500.6L526 500.5L530.6 500.3L535.2 500.1L539.7 500.1L544.3 500.3L548.8 500.2L553.4 499.8L557.9 499.2L562.5 499L567.1 499L571.6 498.9L576.2 498.5L580.7 498L585.3 497.8L589.9 497.7L594.4 497.4L599 497.1L603.5 496.6L608.1 496.1L612.6 495.9L617.2 495.5L621.8 495.1L626.3 494.9L630.9 494.6L635.4 494.2L640 493.9L644.6 493.6L649.1 493.3L653.7 492.9L658.2 492.5L662.8 492.1L667.3 491.7L671.9 491.3L676.5 490.9L681 490.5L685.6 490L690.1 489.6L694.7 489.2L699.3 488.7L703.8 488.3L708.4 487.7L712.9 487.2L717.5 486.7L722.1 486L726.6 485.5"
            ></path>
            <path
                fill="none"
                stroke-linecap="butt"
                stroke-linejoin="round"
                stroke="#ffffff"
                id="outline__China"
                stroke-width="2.5"
                d="M42.8 247.9L47.4 254.4L52 218.2L56.5 239.8L61.1 228.7L65.6 228.9L70.2 247.9L74.7 218.3L79.3 252.4L83.9 298.9L88.4 309.9L93 336.5L97.5 219.4L102.1 137.2L106.7 174.3L111.2 170.9L115.8 188.8L120.3 226.2L124.9 183.9L129.5 208L134 218.3L138.6 261.4L143.1 294.7L147.7 324.2L152.2 362.3L156.8 400.9L161.4 422.6L165.9 444.9L170.5 456L175 460.8L179.6 468.1L184.2 472.8L188.7 472.3L193.3 489L197.8 490.3L202.4 491.5L206.9 490.2L211.5 490.3L216.1 497.5L220.6 501.4L225.2 506L229.7 517.5L234.3 519.7L238.9 521.7L243.4 520.8L248 522.5L252.5 521.1L257.1 520.9L261.6 517.7L266.2 516.5L270.8 516.8L275.3 516.6L279.9 516.6L284.4 515.1L289 513.1L293.6 510.7L298.1 508.9L302.7 506.7L307.2 504.8L311.8 503.1L316.3 502L320.9 501.2L325.5 498L330 497.5L334.6 494.5L339.1 493.6L343.7 489.4L348.3 487L352.8 491L357.4 491.7L361.9 495.1L366.5 497.5L371 498.7L375.6 499.8L380.2 506.7L384.7 505.6L389.3 504.6L393.8 503.8L398.4 502.8L403 507.5L407.5 506.1L412.1 504.6L416.6 503.4L421.2 502.3L425.8 505.7L430.3 504.5L434.9 503.3L439.4 502.2L444 501.1L448.5 500.2L453.1 499.1L457.7 498.1L462.2 497.1L466.8 496L471.3 495.7L475.9 495.3L480.5 495.1L485 494.9L489.6 494.6L494.1 494.3L498.7 494.1L503.2 494.1L507.8 493.8L512.4 493.6L516.9 493.9L521.5 494.1L526 494.5L530.6 494.4L535.2 494.2L539.7 493.9L544.3 493.8L548.8 493.4L553.4 492.7L557.9 491.5L562.5 491.1L567.1 491.4L571.6 491.3L576.2 490.9L580.7 490L585.3 489.8L589.9 490.1L594.4 490L599 489.6L603.5 488.9L608.1 488.6L612.6 488.4L617.2 488.3L621.8 488.2L626.3 488L630.9 488L635.4 487.9L640 487.9L644.6 487.8L649.1 487.7L653.7 487.8L658.2 487.7L662.8 487.7L667.3 487.7L671.9 487.8L676.5 487.7L681 487.5L685.6 487.5L690.1 487.5L694.7 487.4L699.3 487.3L703.8 487.2L708.4 486.9L712.9 486.6L717.5 486.3L722.1 486L726.6 485.8"
            ></path>
            <path
                fill="none"
                stroke-linecap="butt"
                stroke-linejoin="round"
                stroke="#b13507"
                id="line__China"
                stroke-width="1.5"
                stroke-opacity="1"
                d="M42.8 247.9L47.4 254.4L52 218.2L56.5 239.8L61.1 228.7L65.6 228.9L70.2 247.9L74.7 218.3L79.3 252.4L83.9 298.9L88.4 309.9L93 336.5L97.5 219.4L102.1 137.2L106.7 174.3L111.2 170.9L115.8 188.8L120.3 226.2L124.9 183.9L129.5 208L134 218.3L138.6 261.4L143.1 294.7L147.7 324.2L152.2 362.3L156.8 400.9L161.4 422.6L165.9 444.9L170.5 456L175 460.8L179.6 468.1L184.2 472.8L188.7 472.3L193.3 489L197.8 490.3L202.4 491.5L206.9 490.2L211.5 490.3L216.1 497.5L220.6 501.4L225.2 506L229.7 517.5L234.3 519.7L238.9 521.7L243.4 520.8L248 522.5L252.5 521.1L257.1 520.9L261.6 517.7L266.2 516.5L270.8 516.8L275.3 516.6L279.9 516.6L284.4 515.1L289 513.1L293.6 510.7L298.1 508.9L302.7 506.7L307.2 504.8L311.8 503.1L316.3 502L320.9 501.2L325.5 498L330 497.5L334.6 494.5L339.1 493.6L343.7 489.4L348.3 487L352.8 491L357.4 491.7L361.9 495.1L366.5 497.5L371 498.7L375.6 499.8L380.2 506.7L384.7 505.6L389.3 504.6L393.8 503.8L398.4 502.8L403 507.5L407.5 506.1L412.1 504.6L416.6 503.4L421.2 502.3L425.8 505.7L430.3 504.5L434.9 503.3L439.4 502.2L444 501.1L448.5 500.2L453.1 499.1L457.7 498.1L462.2 497.1L466.8 496L471.3 495.7L475.9 495.3L480.5 495.1L485 494.9L489.6 494.6L494.1 494.3L498.7 494.1L503.2 494.1L507.8 493.8L512.4 493.6L516.9 493.9L521.5 494.1L526 494.5L530.6 494.4L535.2 494.2L539.7 493.9L544.3 493.8L548.8 493.4L553.4 492.7L557.9 491.5L562.5 491.1L567.1 491.4L571.6 491.3L576.2 490.9L580.7 490L585.3 489.8L589.9 490.1L594.4 490L599 489.6L603.5 488.9L608.1 488.6L612.6 488.4L617.2 488.3L621.8 488.2L626.3 488L630.9 488L635.4 487.9L640 487.9L644.6 487.8L649.1 487.7L653.7 487.8L658.2 487.7L662.8 487.7L667.3 487.7L671.9 487.8L676.5 487.7L681 487.5L685.6 487.5L690.1 487.5L694.7 487.4L699.3 487.3L703.8 487.2L708.4 486.9L712.9 486.6L717.5 486.3L722.1 486L726.6 485.8"
            ></path>
        </g>
    </g>
    <g id="footer" class="SourcesFooter" style="fill: #767676">
        <g id="sources" class="markdown-text-wrap">
            <text x="16.0" y="581.0" style="font-size: 13px; line-height: 1.2">
                <tspan x="16" y="581.0">
                    <tspan style="font-weight: 700">Data source:</tspan>
                    UN, World Population Prospects (2024)
                </tspan>
            </text>
        </g>
        <text id="origin-url" font-size="13.00" x="560.3" y="581.0">
            <tspan x="560.3499999999999" y="581.01">
                <a
                    style="fill: #767676"
                    href="https://ourworldindata.org/population-growth"
                >
                    OurWorldinData.org/population-growth
                </a>
                |
                <a
                    style="fill: #767676"
                    href="https://creativecommons.org/licenses/by/4.0/"
                >
                    CC BY
                </a>
            </tspan>
        </text>
    </g>
</svg>
