<svg
    xmlns="http://www.w3.org/2000/svg"
    version="1.1"
    style='font-family:Lato, &#x27;Helvetica Neue&#x27;, Helvetica, Arial, &#x27;Liberation Sans&#x27;, sans-serif;font-feature-settings:"liga", "kern", "calt", "lnum";text-rendering:geometricPrecision;-webkit-font-smoothing:antialiased;font-size:18px;background-color:#ffffff'
    width="850"
    height="600"
    viewBox="0 0 850 600"
>
    <defs>
        <style>
            @import url(https://ourworldindata.org/fonts.css);
        </style>
    </defs>
    <defs>
        <pattern
            id="noDataPattern"
            patternUnits="userSpaceOnUse"
            width="4"
            height="4"
            patternTransform="rotate(-45 2 2)"
        >
            <path d="M -1,2 l 6,0" stroke="#ccc" stroke-width="0.7"></path>
        </pattern>
    </defs>
    <g id="header" class="HeaderView">
        <g id="logo" transform="translate(769, 16) scale(1)">
            <svg
                className="owidLogo"
                xmlns="http://www.w3.org/2000/svg"
                width="65"
                height="36"
                viewBox="0 0 65 36"
                fill="none"
            >
                <path fill="#002147" d="M0 0h64.8v36H0z" />
                <path fill="#CE261E" d="M0 33.3h64.8V36H0z" />
                <path
                    fill="#fff"
                    d="M13.796 10.575c0 .636-.106 1.226-.318 1.77a4.193 4.193 0 0 1-.894 1.404 4.084 4.084 0 0 1-1.386.93c-.54.22-1.138.33-1.794.33-.656 0-1.256-.11-1.8-.33a4.149 4.149 0 0 1-1.392-.93 4.193 4.193 0 0 1-.894-1.404A4.833 4.833 0 0 1 5 10.575c0-.636.106-1.224.318-1.764a4.18 4.18 0 0 1 .894-1.41 4.076 4.076 0 0 1 1.392-.924 4.684 4.684 0 0 1 1.8-.336c.656 0 1.254.112 1.794.336.54.224 1.002.534 1.386.93.384.392.682.86.894 1.404.212.54.318 1.128.318 1.764Zm-1.656 0c0-.476-.064-.902-.192-1.278a2.671 2.671 0 0 0-.54-.966 2.332 2.332 0 0 0-.864-.606 2.94 2.94 0 0 0-1.14-.21c-.424 0-.806.07-1.146.21-.34.14-.63.342-.87.606a2.742 2.742 0 0 0-.546.966 3.955 3.955 0 0 0-.192 1.278c0 .476.064.904.192 1.284.128.376.31.696.546.96.24.26.53.46.87.6.34.14.722.21 1.146.21.424 0 .804-.07 1.14-.21.34-.14.628-.34.864-.6.236-.264.416-.584.54-.96a4.01 4.01 0 0 0 .192-1.284ZM16.104 8.757v3.912c0 .376.086.668.258.876.176.204.438.306.786.306.256 0 .496-.056.72-.168a2.58 2.58 0 0 0 .636-.474V8.757h1.482v6.156h-.906c-.192 0-.318-.09-.378-.27l-.102-.492a4.65 4.65 0 0 1-.396.354 2.577 2.577 0 0 1-.438.27 2.35 2.35 0 0 1-.498.168 2.345 2.345 0 0 1-.57.066c-.336 0-.634-.056-.894-.168a1.821 1.821 0 0 1-.648-.486 2.157 2.157 0 0 1-.402-.738 3.233 3.233 0 0 1-.132-.948V8.757h1.482ZM21.328 14.913V8.757h.87c.152 0 .258.028.318.084.06.056.1.152.12.288l.09.744c.22-.38.478-.68.774-.9.296-.22.628-.33.996-.33.304 0 .556.07.756.21l-.192 1.11c-.012.072-.038.124-.078.156a.278.278 0 0 1-.162.042 1.01 1.01 0 0 1-.246-.042 1.646 1.646 0 0 0-.414-.042c-.308 0-.572.086-.792.258-.22.168-.406.416-.558.744v3.834h-1.482ZM27.347 6.237h1.356a.57.57 0 0 1 .348.102c.096.064.16.152.192.264l1.476 5.19c.036.128.068.268.096.42.032.148.062.306.09.474a5.968 5.968 0 0 1 .228-.894l1.704-5.19a.575.575 0 0 1 .186-.252.543.543 0 0 1 .348-.114h.474a.57.57 0 0 1 .348.102.497.497 0 0 1 .192.264l1.692 5.19c.088.256.164.54.228.852.028-.156.056-.306.084-.45.032-.144.064-.278.096-.402l1.476-5.19c.028-.1.09-.186.186-.258a.563.563 0 0 1 .348-.108h1.266l-2.694 8.676h-1.458l-1.896-5.928-.078-.246a9.504 9.504 0 0 1-.072-.282c-.024.1-.05.194-.078.282-.024.088-.048.17-.072.246l-1.914 5.928H30.04l-2.694-8.676ZM42.771 8.661c.46 0 .876.074 1.248.222.376.148.696.358.96.63s.468.604.612.996c.144.392.216.83.216 1.314 0 .488-.072.928-.216 1.32a2.85 2.85 0 0 1-.612 1.002 2.653 2.653 0 0 1-.96.636 3.35 3.35 0 0 1-1.248.222c-.46 0-.878-.074-1.254-.222a2.712 2.712 0 0 1-.966-.636 2.922 2.922 0 0 1-.618-1.002 3.807 3.807 0 0 1-.216-1.32c0-.484.072-.922.216-1.314.148-.392.354-.724.618-.996.268-.272.59-.482.966-.63a3.397 3.397 0 0 1 1.254-.222Zm0 5.202c.512 0 .89-.172 1.134-.516.248-.344.372-.848.372-1.512s-.124-1.17-.372-1.518c-.244-.348-.622-.522-1.134-.522-.52 0-.904.176-1.152.528-.248.348-.372.852-.372 1.512s.124 1.164.372 1.512c.248.344.632.516 1.152.516ZM46.723 14.913V8.757h.87c.152 0 .258.028.318.084.06.056.1.152.12.288l.09.744c.22-.38.478-.68.774-.9.296-.22.628-.33.996-.33.304 0 .556.07.756.21l-.192 1.11c-.012.072-.038.124-.078.156a.278.278 0 0 1-.162.042 1.01 1.01 0 0 1-.246-.042 1.646 1.646 0 0 0-.414-.042c-.308 0-.572.086-.792.258-.22.168-.406.416-.558.744v3.834h-1.482ZM52.96 5.997v8.916h-1.482V5.997h1.482ZM58.732 14.913c-.192 0-.318-.09-.378-.27l-.12-.594a3.68 3.68 0 0 1-.402.39c-.14.116-.292.216-.456.3-.16.084-.334.148-.522.192a2.372 2.372 0 0 1-.6.072c-.336 0-.644-.07-.924-.21a2.098 2.098 0 0 1-.726-.606 3.033 3.033 0 0 1-.468-.99 5.072 5.072 0 0 1-.162-1.344c0-.456.062-.88.186-1.272s.302-.732.534-1.02c.232-.288.51-.512.834-.672a2.384 2.384 0 0 1 1.092-.246 2.103 2.103 0 0 1 1.536.606V5.997h1.482v8.916h-.906Zm-1.974-1.086c.308 0 .57-.064.786-.192.216-.128.42-.31.612-.546v-2.76a1.452 1.452 0 0 0-.552-.432 1.597 1.597 0 0 0-.636-.126c-.224 0-.428.042-.612.126a1.21 1.21 0 0 0-.462.384c-.124.168-.22.384-.288.648-.068.26-.102.568-.102.924 0 .36.028.666.084.918.06.248.144.452.252.612.108.156.24.27.396.342.156.068.33.102.522.102ZM16.331 20.757v6.156H14.85v-6.156h1.481Zm.223-1.794a.844.844 0 0 1-.078.36.963.963 0 0 1-.21.294.995.995 0 0 1-.3.204.963.963 0 0 1-.372.072.948.948 0 0 1-.367-.072 1.018 1.018 0 0 1-.498-.498.963.963 0 0 1 0-.732.995.995 0 0 1 .205-.3.929.929 0 0 1 .293-.198.899.899 0 0 1 .738 0 .912.912 0 0 1 .3.198.943.943 0 0 1 .288.672ZM17.771 26.913v-6.156h.906c.192 0 .318.09.378.27l.102.486a2.934 2.934 0 0 1 .828-.618c.156-.076.322-.134.498-.174.176-.04.368-.06.576-.06.336 0 .634.058.894.174.26.112.476.272.648.48.176.204.308.45.396.738.092.284.138.598.138.942v3.918h-1.482v-3.918c0-.376-.088-.666-.264-.87-.172-.208-.432-.312-.78-.312-.256 0-.496.058-.72.174a2.58 2.58 0 0 0-.636.474v4.452h-1.482ZM34.22 22.575c0 .636-.106 1.22-.318 1.752-.212.532-.51.99-.894 1.374a4 4 0 0 1-1.386.894 4.87 4.87 0 0 1-1.794.318h-3.312v-8.676h3.312a4.79 4.79 0 0 1 1.794.324 4 4 0 0 1 1.386.894c.384.38.682.836.894 1.368.212.532.318 1.116.318 1.752Zm-1.65 0c0-.476-.064-.902-.192-1.278a2.68 2.68 0 0 0-.546-.96 2.332 2.332 0 0 0-.864-.606 2.94 2.94 0 0 0-1.14-.21h-1.686v6.108h1.686c.424 0 .804-.07 1.14-.21.34-.14.628-.34.864-.6a2.75 2.75 0 0 0 .546-.96 4.01 4.01 0 0 0 .192-1.284ZM39.98 26.913h-.665c-.14 0-.25-.02-.33-.06-.08-.044-.14-.13-.18-.258l-.132-.438c-.156.14-.31.264-.462.372a2.804 2.804 0 0 1-.462.264c-.16.072-.33.126-.51.162-.18.036-.38.054-.6.054-.26 0-.5-.034-.72-.102a1.618 1.618 0 0 1-.57-.318 1.448 1.448 0 0 1-.366-.522 1.852 1.852 0 0 1-.132-.726c0-.232.06-.46.18-.684.124-.228.328-.432.612-.612.284-.184.662-.336 1.134-.456.472-.12 1.058-.188 1.758-.204v-.36c0-.412-.088-.716-.264-.912-.172-.2-.424-.3-.756-.3a1.837 1.837 0 0 0-1.02.276c-.116.068-.224.13-.324.186a.664.664 0 0 1-.33.084.429.429 0 0 1-.258-.078.614.614 0 0 1-.174-.192l-.27-.474c.708-.648 1.562-.972 2.562-.972.36 0 .68.06.96.18.284.116.524.28.72.492.196.208.344.458.444.75.104.292.156.612.156.96v3.888Zm-2.88-.924c.153 0 .293-.014.42-.042.129-.028.249-.07.36-.126.117-.056.227-.124.33-.204.109-.084.217-.182.325-.294v-1.038c-.432.02-.794.058-1.086.114-.288.052-.52.12-.696.204a.923.923 0 0 0-.378.294.664.664 0 0 0-.108.366c0 .26.076.446.228.558.156.112.358.168.606.168ZM43.22 27.01c-.532 0-.942-.15-1.23-.45-.288-.305-.432-.723-.432-1.255v-3.438h-.624a.31.31 0 0 1-.21-.078c-.056-.052-.084-.13-.084-.234v-.588l.99-.162.312-1.68a.302.302 0 0 1 .108-.186.365.365 0 0 1 .222-.066h.768v1.938h1.62v1.056h-1.62v3.336c0 .192.048.342.144.45a.488.488 0 0 0 .384.162c.092 0 .168-.01.228-.03.064-.024.118-.048.162-.072.048-.024.09-.046.126-.066a.194.194 0 0 1 .108-.036.16.16 0 0 1 .108.036c.028.02.058.052.09.096l.444.72c-.216.18-.464.316-.744.408a2.77 2.77 0 0 1-.87.138ZM50.423 26.913h-.666c-.14 0-.25-.02-.33-.06-.08-.044-.14-.13-.18-.258l-.132-.438c-.156.14-.31.264-.462.372a2.804 2.804 0 0 1-.462.264c-.16.072-.33.126-.51.162-.18.036-.38.054-.6.054-.26 0-.5-.034-.72-.102a1.618 1.618 0 0 1-.57-.318 1.448 1.448 0 0 1-.366-.522 1.852 1.852 0 0 1-.132-.726c0-.232.06-.46.18-.684.124-.228.328-.432.612-.612.284-.184.662-.336 1.134-.456.472-.12 1.058-.188 1.758-.204v-.36c0-.412-.088-.716-.264-.912-.172-.2-.424-.3-.756-.3a1.837 1.837 0 0 0-1.02.276c-.116.068-.224.13-.324.186a.664.664 0 0 1-.33.084.429.429 0 0 1-.258-.078.614.614 0 0 1-.174-.192l-.27-.474c.708-.648 1.562-.972 2.562-.972.36 0 .68.06.96.18.284.116.524.28.72.492.196.208.344.458.444.75.104.292.156.612.156.96v3.888Zm-2.88-.924c.152 0 .292-.014.42-.042.128-.028.248-.07.36-.126.116-.056.226-.124.33-.204.108-.084.216-.182.324-.294v-1.038c-.432.02-.794.058-1.086.114-.288.052-.52.12-.696.204a.923.923 0 0 0-.378.294.664.664 0 0 0-.108.366c0 .26.076.446.228.558.156.112.358.168.606.168Z"
                />
            </svg>
        </g>
        <a
            id="title"
            href="https://ourworldindata.org/explorers/population-and-demography?indicator=Population&amp;Sex=Both+sexes&amp;Age=40%E2%80%9349+years&amp;Projection+scenario=High&amp;country=CHN~IND~USA~IDN~PAK~NGA~BRA~JPN"
            style="font-family:&#x27;Playfair Display&#x27;, Georgia, &#x27;Times New Roman&#x27;, &#x27;Liberation Serif&#x27;, serif"
        >
            <text
                font-size="25.00"
                font-weight="600"
                x="16.0"
                y="40.3"
                fill="#2d2e2d"
            >
                <tspan x="16" y="40.25">
                    Population aged 40 to 49 years, 1950 to 2100
                </tspan>
            </text>
        </a>
        <g id="subtitle" class="markdown-text-wrap">
            <text
                x="16.0"
                y="66.5"
                style="font-size: 15px; line-height: 1.2"
                fill="#5b5b5b"
            >
                <tspan x="16" y="66.5">
                    Projections from 2024 onwards are based on the UN&#x27;s
                    high scenario.
                </tspan>
            </text>
        </g>
    </g>
    <g id="chart-area" style="pointer-events: none">
        <g id="horizontal-axis" class="HorizontalAxis">
            <g id="tick-marks">
                <line
                    id="1950"
                    x1="83.3"
                    y1="511.79999999999995"
                    x2="83.3"
                    y2="517.3"
                    stroke="#999"
                    stroke-width="1"
                ></line>
                <line
                    id="2100"
                    x1="726.6"
                    y1="511.79999999999995"
                    x2="726.6"
                    y2="517.3"
                    stroke="#999"
                    stroke-width="1"
                ></line>
                <line
                    id="1980"
                    x1="211.9"
                    y1="511.79999999999995"
                    x2="211.9"
                    y2="517.3"
                    stroke="#999"
                    stroke-width="1"
                ></line>
                <line
                    id="2000"
                    x1="297.7"
                    y1="511.79999999999995"
                    x2="297.7"
                    y2="517.3"
                    stroke="#999"
                    stroke-width="1"
                ></line>
                <line
                    id="2020"
                    x1="383.5"
                    y1="511.79999999999995"
                    x2="383.5"
                    y2="517.3"
                    stroke="#999"
                    stroke-width="1"
                ></line>
                <line
                    id="2040"
                    x1="469.3"
                    y1="511.79999999999995"
                    x2="469.3"
                    y2="517.3"
                    stroke="#999"
                    stroke-width="1"
                ></line>
                <line
                    id="2060"
                    x1="555.1"
                    y1="511.79999999999995"
                    x2="555.1"
                    y2="517.3"
                    stroke="#999"
                    stroke-width="1"
                ></line>
                <line
                    id="2080"
                    x1="640.8"
                    y1="511.79999999999995"
                    x2="640.8"
                    y2="517.3"
                    stroke="#999"
                    stroke-width="1"
                ></line>
            </g>
            <g id="tick-labels">
                <text
                    x="83.27000000000001"
                    y="530.3"
                    fill="#5b5b5b"
                    text-anchor="start"
                    font-size="13"
                >
                    1950
                </text>
                <text
                    x="726.61"
                    y="530.3"
                    fill="#5b5b5b"
                    text-anchor="end"
                    font-size="13"
                >
                    2100
                </text>
                <text
                    x="211.9"
                    y="530.3"
                    fill="#5b5b5b"
                    text-anchor="middle"
                    font-size="13"
                >
                    1980
                </text>
                <text
                    x="297.7"
                    y="530.3"
                    fill="#5b5b5b"
                    text-anchor="middle"
                    font-size="13"
                >
                    2000
                </text>
                <text
                    x="383.5"
                    y="530.3"
                    fill="#5b5b5b"
                    text-anchor="middle"
                    font-size="13"
                >
                    2020
                </text>
                <text
                    x="469.3"
                    y="530.3"
                    fill="#5b5b5b"
                    text-anchor="middle"
                    font-size="13"
                >
                    2040
                </text>
                <text
                    x="555.1"
                    y="530.3"
                    fill="#5b5b5b"
                    text-anchor="middle"
                    font-size="13"
                >
                    2060
                </text>
                <text
                    x="640.8"
                    y="530.3"
                    fill="#5b5b5b"
                    text-anchor="middle"
                    font-size="13"
                >
                    2080
                </text>
            </g>
        </g>
        <g id="vertical-axis" class="VerticalAxis">
            <g id="tick-labels">
                <text
                    x="78.27"
                    y="512.3"
                    dy=".32em"
                    text-anchor="end"
                    fill="#5b5b5b"
                    font-size="13"
                >
                    0
                </text>
                <text
                    x="78.27"
                    y="430.7"
                    dy=".32em"
                    text-anchor="end"
                    fill="#5b5b5b"
                    font-size="13"
                >
                    50 million
                </text>
                <text
                    x="78.27"
                    y="349"
                    dy=".32em"
                    text-anchor="end"
                    fill="#5b5b5b"
                    font-size="13"
                >
                    100 million
                </text>
                <text
                    x="78.27"
                    y="267.4"
                    dy=".32em"
                    text-anchor="end"
                    fill="#5b5b5b"
                    font-size="13"
                >
                    150 million
                </text>
                <text
                    x="78.27"
                    y="185.7"
                    dy=".32em"
                    text-anchor="end"
                    fill="#5b5b5b"
                    font-size="13"
                >
                    200 million
                </text>
                <text
                    x="78.27"
                    y="104.1"
                    dy=".32em"
                    text-anchor="end"
                    fill="#5b5b5b"
                    font-size="13"
                >
                    250 million
                </text>
            </g>
        </g>
        <g id="horizontal-grid-lines" class="AxisGridLines horizontalLines">
            <line
                id="0"
                x1="83.27"
                y1="512.3"
                x2="726.61"
                y2="512.3"
                stroke="#999"
            ></line>
            <line
                id="50-million"
                x1="83.27"
                y1="430.7"
                x2="726.61"
                y2="430.7"
                stroke="#ddd"
                stroke-dasharray="4,4"
            ></line>
            <line
                id="100-million"
                x1="83.27"
                y1="349"
                x2="726.61"
                y2="349"
                stroke="#ddd"
                stroke-dasharray="4,4"
            ></line>
            <line
                id="150-million"
                x1="83.27"
                y1="267.4"
                x2="726.61"
                y2="267.4"
                stroke="#ddd"
                stroke-dasharray="4,4"
            ></line>
            <line
                id="200-million"
                x1="83.27"
                y1="185.7"
                x2="726.61"
                y2="185.7"
                stroke="#ddd"
                stroke-dasharray="4,4"
            ></line>
            <line
                id="250-million"
                x1="83.27"
                y1="104.1"
                x2="726.61"
                y2="104.1"
                stroke="#ddd"
                stroke-dasharray="4,4"
            ></line>
        </g>
        <g id="line-labels" class="LineLabels">
            <g id="connectors">
                <path
                    id="India"
                    d="M730.61,96.5 H739.11 V96.5 H747.61"
                    stroke="#999"
                    stroke-width="0.5"
                    fill="none"
                ></path>
                <path
                    id="China"
                    d="M730.61,356.7 H736.2766666666666 V349.6 H747.61"
                    stroke="#999"
                    stroke-width="0.5"
                    fill="none"
                ></path>
                <path
                    id="Pakistan"
                    d="M730.61,369.3 H741.9433333333333 V367.90000000000003 H747.61"
                    stroke="#999"
                    stroke-width="0.5"
                    fill="none"
                ></path>
                <path
                    id="Nigeria"
                    d="M730.61,377.7 H741.9433333333333 V386.20000000000005 H747.61"
                    stroke="#999"
                    stroke-width="0.5"
                    fill="none"
                ></path>
                <path
                    id="United-States"
                    d="M730.61,409 H739.11 V409 H747.61"
                    stroke="#999"
                    stroke-width="0.5"
                    fill="none"
                ></path>
                <path
                    id="Indonesia"
                    d="M730.61,429.4 H739.11 V429.4 H747.61"
                    stroke="#999"
                    stroke-width="0.5"
                    fill="none"
                ></path>
                <path
                    id="Brazil"
                    d="M730.61,468 H739.11 V468 H747.61"
                    stroke="#999"
                    stroke-width="0.5"
                    fill="none"
                ></path>
                <path
                    id="Japan"
                    d="M730.61,494.6 H739.11 V494.6 H747.61"
                    stroke="#999"
                    stroke-width="0.5"
                    fill="none"
                ></path>
            </g>
            <g id="text-annotations"></g>
            <g id="text-labels">
                <text
                    id="label__India"
                    font-size="13.00"
                    font-weight="400"
                    x="751.6"
                    y="101.3"
                    fill="#996d39"
                    opacity="1"
                    text-anchor="start"
                >
                    <tspan x="751.61" y="101.31">India</tspan>
                </text>
                <text
                    id="label__China"
                    font-size="13.00"
                    font-weight="400"
                    x="751.6"
                    y="354.4"
                    fill="#b13507"
                    opacity="1"
                    text-anchor="start"
                >
                    <tspan x="751.61" y="354.41">China</tspan>
                </text>
                <text
                    id="label__Pakistan"
                    font-size="13.00"
                    font-weight="400"
                    x="751.6"
                    y="372.7"
                    fill="#00295b"
                    opacity="1"
                    text-anchor="start"
                >
                    <tspan x="751.61" y="372.71000000000004">Pakistan</tspan>
                </text>
                <text
                    id="label__Nigeria"
                    font-size="13.00"
                    font-weight="400"
                    x="751.6"
                    y="391.0"
                    fill="#883039"
                    opacity="1"
                    text-anchor="start"
                >
                    <tspan x="751.61" y="391.01000000000005">Nigeria</tspan>
                </text>
                <text
                    id="label__United-States"
                    font-size="13.00"
                    font-weight="400"
                    x="751.6"
                    y="413.8"
                    fill="#a2559c"
                    opacity="1"
                    text-anchor="start"
                >
                    <tspan x="751.61" y="413.81">United States</tspan>
                </text>
                <text
                    id="label__Indonesia"
                    font-size="13.00"
                    font-weight="400"
                    x="751.6"
                    y="434.2"
                    fill="#2c8465"
                    opacity="1"
                    text-anchor="start"
                >
                    <tspan x="751.61" y="434.21">Indonesia</tspan>
                </text>
                <text
                    id="label__Brazil"
                    font-size="13.00"
                    font-weight="400"
                    x="751.6"
                    y="472.8"
                    fill="#4c6a9c"
                    opacity="1"
                    text-anchor="start"
                >
                    <tspan x="751.61" y="472.81">Brazil</tspan>
                </text>
                <text
                    id="label__Japan"
                    font-size="13.00"
                    font-weight="400"
                    x="751.6"
                    y="499.4"
                    fill="#6d3e91"
                    opacity="1"
                    text-anchor="start"
                >
                    <tspan x="751.61" y="499.41">Japan</tspan>
                </text>
            </g>
        </g>
        <g id="lines">
            <path
                fill="none"
                stroke-linecap="butt"
                stroke-linejoin="round"
                stroke="#ffffff"
                id="outline__Japan"
                stroke-width="2.5"
                d="M83.3 498L87.6 497.8L91.8 497.5L96.1 497.2L100.4 496.9L104.7 496.6L109 496.4L113.3 496.3L117.6 496.2L121.9 496.1L126.2 495.8L130.4 495.6L134.7 495.4L139 495L143.3 494.5L147.6 493.9L151.9 493.1L156.2 492.3L160.5 491.4L164.8 490.6L169 489.8L173.3 489L177.6 488.2L181.9 487.6L186.2 487L190.5 486.5L194.8 486L199.1 485.7L203.4 485.6L207.6 485.5L211.9 485.1L216.2 484.6L220.5 484.2L224.8 483.8L229.1 483.7L233.4 484L237.7 483.8L242 482.7L246.2 481.3L250.5 480.3L254.8 479.8L259.1 479.6L263.4 479.6L267.7 479.8L272 479.9L276.3 479.7L280.6 480.2L284.8 481.5L289.1 482.9L293.4 484L297.7 484.9L302 485.7L306.3 486.2L310.6 486.5L314.9 486.6L319.2 486.5L323.5 486.6L327.7 486.4L332 486L336.3 485.6L340.6 485L344.9 484.4L349.2 483.7L353.5 482.9L357.8 482.3L362.1 481.9L366.3 481.4L370.6 481.1L374.9 481.3L379.2 481.6L383.5 482.1L387.8 482.8L392.1 483.7L396.4 484.7L400.7 485.7L404.9 486.6L409.2 487.4L413.5 488.1L417.8 488.8L422.1 489.5L426.4 490.1L430.7 490.6L435 491.1L439.3 491.6L443.5 492L447.8 492.4L452.1 492.8L456.4 493.1L460.7 493.3L465 493.4L469.3 493.5L473.6 493.5L477.9 493.5L482.1 493.4L486.4 493.4L490.7 493.3L495 493.2L499.3 493.1L503.6 492.9L507.9 492.8L512.2 492.8L516.5 492.8L520.7 492.8L525 492.8L529.3 492.9L533.6 493L537.9 493.2L542.2 493.4L546.5 493.7L550.8 494.1L555.1 494.4L559.3 494.8L563.6 495.2L567.9 495.7L572.2 496L576.5 496.1L580.8 496.3L585.1 496.4L589.4 496.4L593.7 496.3L597.9 496.1L602.2 495.8L606.5 495.5L610.8 495.2L615.1 494.8L619.4 494.6L623.7 494.3L628 494L632.3 493.7L636.5 493.5L640.8 493.3L645.1 493.2L649.4 493L653.7 492.9L658 492.8L662.3 492.9L666.6 492.9L670.9 493L675.1 493L679.4 493.2L683.7 493.3L688 493.4L692.3 493.6L696.6 493.8L700.9 494L705.2 494.1L709.5 494.3L713.7 494.4L718 494.5L722.3 494.6L726.6 494.6"
            ></path>
            <path
                fill="none"
                stroke-linecap="butt"
                stroke-linejoin="round"
                stroke="#6d3e91"
                id="line__Japan"
                stroke-width="1.5"
                stroke-opacity="1"
                d="M83.3 498L87.6 497.8L91.8 497.5L96.1 497.2L100.4 496.9L104.7 496.6L109 496.4L113.3 496.3L117.6 496.2L121.9 496.1L126.2 495.8L130.4 495.6L134.7 495.4L139 495L143.3 494.5L147.6 493.9L151.9 493.1L156.2 492.3L160.5 491.4L164.8 490.6L169 489.8L173.3 489L177.6 488.2L181.9 487.6L186.2 487L190.5 486.5L194.8 486L199.1 485.7L203.4 485.6L207.6 485.5L211.9 485.1L216.2 484.6L220.5 484.2L224.8 483.8L229.1 483.7L233.4 484L237.7 483.8L242 482.7L246.2 481.3L250.5 480.3L254.8 479.8L259.1 479.6L263.4 479.6L267.7 479.8L272 479.9L276.3 479.7L280.6 480.2L284.8 481.5L289.1 482.9L293.4 484L297.7 484.9L302 485.7L306.3 486.2L310.6 486.5L314.9 486.6L319.2 486.5L323.5 486.6L327.7 486.4L332 486L336.3 485.6L340.6 485L344.9 484.4L349.2 483.7L353.5 482.9L357.8 482.3L362.1 481.9L366.3 481.4L370.6 481.1L374.9 481.3L379.2 481.6L383.5 482.1L387.8 482.8L392.1 483.7L396.4 484.7L400.7 485.7L404.9 486.6L409.2 487.4L413.5 488.1L417.8 488.8L422.1 489.5L426.4 490.1L430.7 490.6L435 491.1L439.3 491.6L443.5 492L447.8 492.4L452.1 492.8L456.4 493.1L460.7 493.3L465 493.4L469.3 493.5L473.6 493.5L477.9 493.5L482.1 493.4L486.4 493.4L490.7 493.3L495 493.2L499.3 493.1L503.6 492.9L507.9 492.8L512.2 492.8L516.5 492.8L520.7 492.8L525 492.8L529.3 492.9L533.6 493L537.9 493.2L542.2 493.4L546.5 493.7L550.8 494.1L555.1 494.4L559.3 494.8L563.6 495.2L567.9 495.7L572.2 496L576.5 496.1L580.8 496.3L585.1 496.4L589.4 496.4L593.7 496.3L597.9 496.1L602.2 495.8L606.5 495.5L610.8 495.2L615.1 494.8L619.4 494.6L623.7 494.3L628 494L632.3 493.7L636.5 493.5L640.8 493.3L645.1 493.2L649.4 493L653.7 492.9L658 492.8L662.3 492.9L666.6 492.9L670.9 493L675.1 493L679.4 493.2L683.7 493.3L688 493.4L692.3 493.6L696.6 493.8L700.9 494L705.2 494.1L709.5 494.3L713.7 494.4L718 494.5L722.3 494.6L726.6 494.6"
            ></path>
            <path
                fill="none"
                stroke-linecap="butt"
                stroke-linejoin="round"
                stroke="#ffffff"
                id="outline__Brazil"
                stroke-width="2.5"
                d="M83.3 505.1L87.6 504.8L91.8 504.6L96.1 504.3L100.4 504.1L104.7 503.8L109 503.6L113.3 503.3L117.6 503.1L121.9 502.9L126.2 502.6L130.4 502.3L134.7 502.1L139 501.7L143.3 501.4L147.6 501L151.9 500.6L156.2 500.1L160.5 499.7L164.8 499.2L169 498.8L173.3 498.3L177.6 497.9L181.9 497.5L186.2 497.2L190.5 496.9L194.8 496.6L199.1 496.3L203.4 496L207.6 495.6L211.9 495.3L216.2 494.9L220.5 494.5L224.8 494.1L229.1 493.7L233.4 493.2L237.7 492.7L242 492.1L246.2 491.4L250.5 490.7L254.8 489.8L259.1 488.9L263.4 487.9L267.7 486.9L272 485.8L276.3 484.7L280.6 483.6L284.8 482.4L289.1 481.3L293.4 480.2L297.7 479.1L302 478L306.3 477L310.6 475.9L314.9 475L319.2 474L323.5 473.2L327.7 472.5L332 471.9L336.3 471.4L340.6 471L344.9 470.5L349.2 470.1L353.5 469.6L357.8 469.2L362.1 468.6L366.3 468L370.6 467.3L374.9 466.5L379.2 465.5L383.5 464.6L387.8 463.6L392.1 462.8L396.4 461.9L400.7 461.1L404.9 460.3L409.2 459.7L413.5 459.3L417.8 459L422.1 458.9L426.4 459L430.7 459.2L435 459.6L439.3 459.9L443.5 460.3L447.8 460.6L452.1 460.9L456.4 461.1L460.7 461.3L465 461.4L469.3 461.5L473.6 461.6L477.9 461.8L482.1 462.1L486.4 462.4L490.7 462.8L495 463.3L499.3 463.8L503.6 464.5L507.9 465.1L512.2 465.7L516.5 466.2L520.7 466.6L525 466.9L529.3 467.2L533.6 467.4L537.9 467.6L542.2 467.8L546.5 467.9L550.8 468L555.1 468.3L559.3 468.6L563.6 469L567.9 469.5L572.2 469.7L576.5 469.6L580.8 469.6L585.1 469.6L589.4 469.6L593.7 469.4L597.9 468.9L602.2 468.4L606.5 467.9L610.8 467.3L615.1 466.9L619.4 466.7L623.7 466.5L628 466.2L632.3 466L636.5 465.9L640.8 466L645.1 466.1L649.4 466.1L653.7 466.2L658 466.4L662.3 466.7L666.6 467L670.9 467.2L675.1 467.5L679.4 467.7L683.7 467.9L688 468L692.3 468.1L696.6 468.2L700.9 468.3L705.2 468.3L709.5 468.3L713.7 468.2L718 468.2L722.3 468.1L726.6 468"
            ></path>
            <path
                fill="none"
                stroke-linecap="butt"
                stroke-linejoin="round"
                stroke="#4c6a9c"
                id="line__Brazil"
                stroke-width="1.5"
                stroke-opacity="1"
                d="M83.3 505.1L87.6 504.8L91.8 504.6L96.1 504.3L100.4 504.1L104.7 503.8L109 503.6L113.3 503.3L117.6 503.1L121.9 502.9L126.2 502.6L130.4 502.3L134.7 502.1L139 501.7L143.3 501.4L147.6 501L151.9 500.6L156.2 500.1L160.5 499.7L164.8 499.2L169 498.8L173.3 498.3L177.6 497.9L181.9 497.5L186.2 497.2L190.5 496.9L194.8 496.6L199.1 496.3L203.4 496L207.6 495.6L211.9 495.3L216.2 494.9L220.5 494.5L224.8 494.1L229.1 493.7L233.4 493.2L237.7 492.7L242 492.1L246.2 491.4L250.5 490.7L254.8 489.8L259.1 488.9L263.4 487.9L267.7 486.9L272 485.8L276.3 484.7L280.6 483.6L284.8 482.4L289.1 481.3L293.4 480.2L297.7 479.1L302 478L306.3 477L310.6 475.9L314.9 475L319.2 474L323.5 473.2L327.7 472.5L332 471.9L336.3 471.4L340.6 471L344.9 470.5L349.2 470.1L353.5 469.6L357.8 469.2L362.1 468.6L366.3 468L370.6 467.3L374.9 466.5L379.2 465.5L383.5 464.6L387.8 463.6L392.1 462.8L396.4 461.9L400.7 461.1L404.9 460.3L409.2 459.7L413.5 459.3L417.8 459L422.1 458.9L426.4 459L430.7 459.2L435 459.6L439.3 459.9L443.5 460.3L447.8 460.6L452.1 460.9L456.4 461.1L460.7 461.3L465 461.4L469.3 461.5L473.6 461.6L477.9 461.8L482.1 462.1L486.4 462.4L490.7 462.8L495 463.3L499.3 463.8L503.6 464.5L507.9 465.1L512.2 465.7L516.5 466.2L520.7 466.6L525 466.9L529.3 467.2L533.6 467.4L537.9 467.6L542.2 467.8L546.5 467.9L550.8 468L555.1 468.3L559.3 468.6L563.6 469L567.9 469.5L572.2 469.7L576.5 469.6L580.8 469.6L585.1 469.6L589.4 469.6L593.7 469.4L597.9 468.9L602.2 468.4L606.5 467.9L610.8 467.3L615.1 466.9L619.4 466.7L623.7 466.5L628 466.2L632.3 466L636.5 465.9L640.8 466L645.1 466.1L649.4 466.1L653.7 466.2L658 466.4L662.3 466.7L666.6 467L670.9 467.2L675.1 467.5L679.4 467.7L683.7 467.9L688 468L692.3 468.1L696.6 468.2L700.9 468.3L705.2 468.3L709.5 468.3L713.7 468.2L718 468.2L722.3 468.1L726.6 468"
            ></path>
            <path
                fill="none"
                stroke-linecap="butt"
                stroke-linejoin="round"
                stroke="#ffffff"
                id="outline__Nigeria"
                stroke-width="2.5"
                d="M83.3 507.1L87.6 507L91.8 506.9L96.1 506.8L100.4 506.7L104.7 506.6L109 506.5L113.3 506.4L117.6 506.2L121.9 506.1L126.2 506L130.4 505.8L134.7 505.6L139 505.5L143.3 505.3L147.6 505.2L151.9 505L156.2 504.9L160.5 504.7L164.8 504.6L169 504.4L173.3 504.2L177.6 504.1L181.9 503.9L186.2 503.7L190.5 503.5L194.8 503.3L199.1 503.1L203.4 502.8L207.6 502.5L211.9 502.3L216.2 502L220.5 501.7L224.8 501.5L229.1 501.2L233.4 500.9L237.7 500.7L242 500.4L246.2 500.2L250.5 500L254.8 499.7L259.1 499.5L263.4 499.3L267.7 499L272 498.7L276.3 498.4L280.6 498.1L284.8 497.8L289.1 497.4L293.4 497L297.7 496.6L302 496.2L306.3 495.7L310.6 495.3L314.9 494.8L319.2 494.4L323.5 493.9L327.7 493.4L332 492.9L336.3 492.3L340.6 491.7L344.9 491.1L349.2 490.4L353.5 489.7L357.8 488.9L362.1 488.1L366.3 487.2L370.6 486.2L374.9 485.2L379.2 484.1L383.5 483.1L387.8 482.1L392.1 481.1L396.4 480.1L400.7 479.2L404.9 478.4L409.2 477.7L413.5 477L417.8 476.4L422.1 475.8L426.4 475.2L430.7 474.5L435 473.9L439.3 473.2L443.5 472.5L447.8 471.7L452.1 470.8L456.4 469.8L460.7 468.8L465 467.8L469.3 466.5L473.6 465.1L477.9 463.5L482.1 461.7L486.4 459.8L490.7 457.7L495 455.4L499.3 453.1L503.6 450.6L507.9 448L512.2 445.6L516.5 443.1L520.7 440.8L525 438.6L529.3 436.6L533.6 434.7L537.9 433.1L542.2 431.7L546.5 430.5L550.8 429.6L555.1 428.8L559.3 428.2L563.6 427.5L567.9 426.9L572.2 425.9L576.5 424.7L580.8 423.4L585.1 421.9L589.4 420.4L593.7 418.5L597.9 416.3L602.2 414.1L606.5 411.9L610.8 409.8L615.1 407.8L619.4 405.8L623.7 404L628 402.1L632.3 400.3L636.5 398.8L640.8 397.4L645.1 396.2L649.4 395L653.7 393.9L658 392.9L662.3 392.2L666.6 391.4L670.9 390.7L675.1 390L679.4 389.2L683.7 388.5L688 387.6L692.3 386.7L696.6 385.7L700.9 384.7L705.2 383.7L709.5 382.6L713.7 381.4L718 380.2L722.3 379L726.6 377.7"
            ></path>
            <path
                fill="none"
                stroke-linecap="butt"
                stroke-linejoin="round"
                stroke="#883039"
                id="line__Nigeria"
                stroke-width="1.5"
                stroke-opacity="1"
                d="M83.3 507.1L87.6 507L91.8 506.9L96.1 506.8L100.4 506.7L104.7 506.6L109 506.5L113.3 506.4L117.6 506.2L121.9 506.1L126.2 506L130.4 505.8L134.7 505.6L139 505.5L143.3 505.3L147.6 505.2L151.9 505L156.2 504.9L160.5 504.7L164.8 504.6L169 504.4L173.3 504.2L177.6 504.1L181.9 503.9L186.2 503.7L190.5 503.5L194.8 503.3L199.1 503.1L203.4 502.8L207.6 502.5L211.9 502.3L216.2 502L220.5 501.7L224.8 501.5L229.1 501.2L233.4 500.9L237.7 500.7L242 500.4L246.2 500.2L250.5 500L254.8 499.7L259.1 499.5L263.4 499.3L267.7 499L272 498.7L276.3 498.4L280.6 498.1L284.8 497.8L289.1 497.4L293.4 497L297.7 496.6L302 496.2L306.3 495.7L310.6 495.3L314.9 494.8L319.2 494.4L323.5 493.9L327.7 493.4L332 492.9L336.3 492.3L340.6 491.7L344.9 491.1L349.2 490.4L353.5 489.7L357.8 488.9L362.1 488.1L366.3 487.2L370.6 486.2L374.9 485.2L379.2 484.1L383.5 483.1L387.8 482.1L392.1 481.1L396.4 480.1L400.7 479.2L404.9 478.4L409.2 477.7L413.5 477L417.8 476.4L422.1 475.8L426.4 475.2L430.7 474.5L435 473.9L439.3 473.2L443.5 472.5L447.8 471.7L452.1 470.8L456.4 469.8L460.7 468.8L465 467.8L469.3 466.5L473.6 465.1L477.9 463.5L482.1 461.7L486.4 459.8L490.7 457.7L495 455.4L499.3 453.1L503.6 450.6L507.9 448L512.2 445.6L516.5 443.1L520.7 440.8L525 438.6L529.3 436.6L533.6 434.7L537.9 433.1L542.2 431.7L546.5 430.5L550.8 429.6L555.1 428.8L559.3 428.2L563.6 427.5L567.9 426.9L572.2 425.9L576.5 424.7L580.8 423.4L585.1 421.9L589.4 420.4L593.7 418.5L597.9 416.3L602.2 414.1L606.5 411.9L610.8 409.8L615.1 407.8L619.4 405.8L623.7 404L628 402.1L632.3 400.3L636.5 398.8L640.8 397.4L645.1 396.2L649.4 395L653.7 393.9L658 392.9L662.3 392.2L666.6 391.4L670.9 390.7L675.1 390L679.4 389.2L683.7 388.5L688 387.6L692.3 386.7L696.6 385.7L700.9 384.7L705.2 383.7L709.5 382.6L713.7 381.4L718 380.2L722.3 379L726.6 377.7"
            ></path>
            <path
                fill="none"
                stroke-linecap="butt"
                stroke-linejoin="round"
                stroke="#ffffff"
                id="outline__Pakistan"
                stroke-width="2.5"
                d="M83.3 507.2L87.6 507.1L91.8 507L96.1 506.8L100.4 506.7L104.7 506.5L109 506.4L113.3 506.2L117.6 506.1L121.9 505.9L126.2 505.7L130.4 505.5L134.7 505.4L139 505.2L143.3 505L147.6 504.9L151.9 504.7L156.2 504.5L160.5 504.3L164.8 504.1L169 503.9L173.3 503.6L177.6 503.4L181.9 503.2L186.2 503L190.5 502.7L194.8 502.5L199.1 502.2L203.4 501.9L207.6 501.6L211.9 501.2L216.2 500.7L220.5 500.3L224.8 499.9L229.1 499.6L233.4 499.2L237.7 498.7L242 498.3L246.2 497.9L250.5 497.7L254.8 497.4L259.1 497L263.4 496.7L267.7 496.4L272 496L276.3 495.5L280.6 495L284.8 494.4L289.1 493.8L293.4 493L297.7 492.1L302 491.2L306.3 490.4L310.6 489.7L314.9 488.9L319.2 488.2L323.5 487.5L327.7 486.7L332 486L336.3 485.4L340.6 484.7L344.9 484.2L349.2 483.7L353.5 483.2L357.8 482.8L362.1 482.4L366.3 481.9L370.6 481.3L374.9 480.7L379.2 479.9L383.5 479L387.8 477.9L392.1 476.8L396.4 475.7L400.7 474.6L404.9 473.3L409.2 472.1L413.5 470.8L417.8 469.4L422.1 468L426.4 466.6L430.7 465.3L435 464.1L439.3 462.8L443.5 461.6L447.8 460.4L452.1 459.2L456.4 458.1L460.7 456.9L465 455.6L469.3 454.2L473.6 452.8L477.9 451.5L482.1 450.1L486.4 448.8L490.7 447.5L495 446L499.3 444.4L503.6 442.6L507.9 440.8L512.2 438.8L516.5 436.9L520.7 435L525 433.1L529.3 431.3L533.6 429.7L537.9 428.3L542.2 427.1L546.5 426.2L550.8 425.6L555.1 425.1L559.3 424.6L563.6 424.1L567.9 423.6L572.2 422.7L576.5 421.3L580.8 419.9L585.1 418.3L589.4 416.8L593.7 414.9L597.9 412.8L602.2 410.6L606.5 408.3L610.8 406L615.1 403.8L619.4 401.7L623.7 399.5L628 397.3L632.3 395.2L636.5 393.3L640.8 391.8L645.1 390.3L649.4 388.9L653.7 387.6L658 386.6L662.3 385.8L666.6 385L670.9 384.3L675.1 383.6L679.4 382.8L683.7 382.1L688 381.2L692.3 380.3L696.6 379.2L700.9 378L705.2 376.7L709.5 375.4L713.7 373.9L718 372.4L722.3 370.9L726.6 369.3"
            ></path>
            <path
                fill="none"
                stroke-linecap="butt"
                stroke-linejoin="round"
                stroke="#00295b"
                id="line__Pakistan"
                stroke-width="1.5"
                stroke-opacity="1"
                d="M83.3 507.2L87.6 507.1L91.8 507L96.1 506.8L100.4 506.7L104.7 506.5L109 506.4L113.3 506.2L117.6 506.1L121.9 505.9L126.2 505.7L130.4 505.5L134.7 505.4L139 505.2L143.3 505L147.6 504.9L151.9 504.7L156.2 504.5L160.5 504.3L164.8 504.1L169 503.9L173.3 503.6L177.6 503.4L181.9 503.2L186.2 503L190.5 502.7L194.8 502.5L199.1 502.2L203.4 501.9L207.6 501.6L211.9 501.2L216.2 500.7L220.5 500.3L224.8 499.9L229.1 499.6L233.4 499.2L237.7 498.7L242 498.3L246.2 497.9L250.5 497.7L254.8 497.4L259.1 497L263.4 496.7L267.7 496.4L272 496L276.3 495.5L280.6 495L284.8 494.4L289.1 493.8L293.4 493L297.7 492.1L302 491.2L306.3 490.4L310.6 489.7L314.9 488.9L319.2 488.2L323.5 487.5L327.7 486.7L332 486L336.3 485.4L340.6 484.7L344.9 484.2L349.2 483.7L353.5 483.2L357.8 482.8L362.1 482.4L366.3 481.9L370.6 481.3L374.9 480.7L379.2 479.9L383.5 479L387.8 477.9L392.1 476.8L396.4 475.7L400.7 474.6L404.9 473.3L409.2 472.1L413.5 470.8L417.8 469.4L422.1 468L426.4 466.6L430.7 465.3L435 464.1L439.3 462.8L443.5 461.6L447.8 460.4L452.1 459.2L456.4 458.1L460.7 456.9L465 455.6L469.3 454.2L473.6 452.8L477.9 451.5L482.1 450.1L486.4 448.8L490.7 447.5L495 446L499.3 444.4L503.6 442.6L507.9 440.8L512.2 438.8L516.5 436.9L520.7 435L525 433.1L529.3 431.3L533.6 429.7L537.9 428.3L542.2 427.1L546.5 426.2L550.8 425.6L555.1 425.1L559.3 424.6L563.6 424.1L567.9 423.6L572.2 422.7L576.5 421.3L580.8 419.9L585.1 418.3L589.4 416.8L593.7 414.9L597.9 412.8L602.2 410.6L606.5 408.3L610.8 406L615.1 403.8L619.4 401.7L623.7 399.5L628 397.3L632.3 395.2L636.5 393.3L640.8 391.8L645.1 390.3L649.4 388.9L653.7 387.6L658 386.6L662.3 385.8L666.6 385L670.9 384.3L675.1 383.6L679.4 382.8L683.7 382.1L688 381.2L692.3 380.3L696.6 379.2L700.9 378L705.2 376.7L709.5 375.4L713.7 373.9L718 372.4L722.3 370.9L726.6 369.3"
            ></path>
            <path
                fill="none"
                stroke-linecap="butt"
                stroke-linejoin="round"
                stroke="#ffffff"
                id="outline__Indonesia"
                stroke-width="2.5"
                d="M83.3 502L87.6 501.6L91.8 501.3L96.1 501L100.4 500.7L104.7 500.4L109 500.1L113.3 499.9L117.6 499.7L121.9 499.5L126.2 499.3L130.4 499.1L134.7 498.9L139 498.6L143.3 498.3L147.6 497.9L151.9 497.5L156.2 497.1L160.5 496.5L164.8 495.9L169 495.3L173.3 494.6L177.6 494L181.9 493.3L186.2 492.7L190.5 492L194.8 491.4L199.1 490.8L203.4 490.2L207.6 489.7L211.9 489.2L216.2 488.7L220.5 488.3L224.8 487.9L229.1 487.5L233.4 487.2L237.7 487L242 486.7L246.2 486.5L250.5 486.3L254.8 486.1L259.1 485.8L263.4 485.3L267.7 484.6L272 483.8L276.3 482.8L280.6 481.7L284.8 480.4L289.1 479L293.4 477.4L297.7 475.8L302 474.1L306.3 472.5L310.6 470.9L314.9 469.3L319.2 467.8L323.5 466.3L327.7 464.8L332 463.3L336.3 461.9L340.6 460.6L344.9 459.3L349.2 458.1L353.5 456.9L357.8 455.8L362.1 454.8L366.3 453.9L370.6 453L374.9 452.1L379.2 451.2L383.5 450.4L387.8 449.6L392.1 448.8L396.4 448L400.7 447.2L404.9 446.6L409.2 446.2L413.5 445.9L417.8 445.7L422.1 445.5L426.4 445.5L430.7 445.4L435 445.5L439.3 445.5L443.5 445.5L447.8 445.4L452.1 445L456.4 444.5L460.7 444.1L465 443.8L469.3 443.6L473.6 443.4L477.9 443.2L482.1 443L486.4 442.9L490.7 442.7L495 442.4L499.3 442.2L503.6 441.9L507.9 441.5L512.2 441L516.5 440.3L520.7 439.4L525 438.7L529.3 438.2L533.6 437.9L537.9 437.8L542.2 438L546.5 438.3L550.8 438.7L555.1 439.2L559.3 439.8L563.6 440.7L567.9 441.5L572.2 441.8L576.5 441.5L580.8 441.2L585.1 440.9L589.4 440.4L593.7 439.6L597.9 438.6L602.2 437.5L606.5 436.4L610.8 435.3L615.1 434.3L619.4 433.6L623.7 432.8L628 432L632.3 431.2L636.5 430.6L640.8 430.3L645.1 430L649.4 429.8L653.7 429.5L658 429.5L662.3 429.8L666.6 430L670.9 430.2L675.1 430.5L679.4 430.8L683.7 431L688 431.2L692.3 431.3L696.6 431.3L700.9 431.3L705.2 431.2L709.5 431L713.7 430.7L718 430.3L722.3 429.9L726.6 429.4"
            ></path>
            <path
                fill="none"
                stroke-linecap="butt"
                stroke-linejoin="round"
                stroke="#2c8465"
                id="line__Indonesia"
                stroke-width="1.5"
                stroke-opacity="1"
                d="M83.3 502L87.6 501.6L91.8 501.3L96.1 501L100.4 500.7L104.7 500.4L109 500.1L113.3 499.9L117.6 499.7L121.9 499.5L126.2 499.3L130.4 499.1L134.7 498.9L139 498.6L143.3 498.3L147.6 497.9L151.9 497.5L156.2 497.1L160.5 496.5L164.8 495.9L169 495.3L173.3 494.6L177.6 494L181.9 493.3L186.2 492.7L190.5 492L194.8 491.4L199.1 490.8L203.4 490.2L207.6 489.7L211.9 489.2L216.2 488.7L220.5 488.3L224.8 487.9L229.1 487.5L233.4 487.2L237.7 487L242 486.7L246.2 486.5L250.5 486.3L254.8 486.1L259.1 485.8L263.4 485.3L267.7 484.6L272 483.8L276.3 482.8L280.6 481.7L284.8 480.4L289.1 479L293.4 477.4L297.7 475.8L302 474.1L306.3 472.5L310.6 470.9L314.9 469.3L319.2 467.8L323.5 466.3L327.7 464.8L332 463.3L336.3 461.9L340.6 460.6L344.9 459.3L349.2 458.1L353.5 456.9L357.8 455.8L362.1 454.8L366.3 453.9L370.6 453L374.9 452.1L379.2 451.2L383.5 450.4L387.8 449.6L392.1 448.8L396.4 448L400.7 447.2L404.9 446.6L409.2 446.2L413.5 445.9L417.8 445.7L422.1 445.5L426.4 445.5L430.7 445.4L435 445.5L439.3 445.5L443.5 445.5L447.8 445.4L452.1 445L456.4 444.5L460.7 444.1L465 443.8L469.3 443.6L473.6 443.4L477.9 443.2L482.1 443L486.4 442.9L490.7 442.7L495 442.4L499.3 442.2L503.6 441.9L507.9 441.5L512.2 441L516.5 440.3L520.7 439.4L525 438.7L529.3 438.2L533.6 437.9L537.9 437.8L542.2 438L546.5 438.3L550.8 438.7L555.1 439.2L559.3 439.8L563.6 440.7L567.9 441.5L572.2 441.8L576.5 441.5L580.8 441.2L585.1 440.9L589.4 440.4L593.7 439.6L597.9 438.6L602.2 437.5L606.5 436.4L610.8 435.3L615.1 434.3L619.4 433.6L623.7 432.8L628 432L632.3 431.2L636.5 430.6L640.8 430.3L645.1 430L649.4 429.8L653.7 429.5L658 429.5L662.3 429.8L666.6 430L670.9 430.2L675.1 430.5L679.4 430.8L683.7 431L688 431.2L692.3 431.3L696.6 431.3L700.9 431.3L705.2 431.2L709.5 431L713.7 430.7L718 430.3L722.3 429.9L726.6 429.4"
            ></path>
            <path
                fill="none"
                stroke-linecap="butt"
                stroke-linejoin="round"
                stroke="#ffffff"
                id="outline__United-States"
                stroke-width="2.5"
                d="M83.3 480.3L87.6 479.7L91.8 479.2L96.1 478.6L100.4 478.1L104.7 477.6L109 477.2L113.3 476.8L117.6 476.4L121.9 475.9L126.2 475.4L130.4 474.8L134.7 474.3L139 473.8L143.3 473.3L147.6 472.9L151.9 472.6L156.2 472.4L160.5 472.2L164.8 472.3L169 472.4L173.3 472.6L177.6 472.9L181.9 473.3L186.2 473.7L190.5 474L194.8 474.2L199.1 474.3L203.4 474.4L207.6 474.3L211.9 474.2L216.2 473.8L220.5 472.9L224.8 471.7L229.1 470.4L233.4 469.3L237.7 467.8L242 465.6L246.2 463.3L250.5 461.2L254.8 459L259.1 457L263.4 455.1L267.7 453.4L272 451.5L276.3 449.4L280.6 447.6L284.8 446.3L289.1 445L293.4 443.7L297.7 442.3L302 440.9L306.3 439.7L310.6 438.9L314.9 438.3L319.2 438L323.5 438.2L327.7 438.7L332 439.3L336.3 440L340.6 440.5L344.9 440.9L349.2 441.6L353.5 442.5L357.8 443.4L362.1 444L366.3 444.3L370.6 444.2L374.9 443.9L379.2 443.5L383.5 443.3L387.8 443.1L392.1 442.4L396.4 441.3L400.7 440.3L404.9 439.4L409.2 438.4L413.5 437.6L417.8 436.9L422.1 436.2L426.4 435.6L430.7 435L435 434.7L439.3 434.6L443.5 434.6L447.8 434.8L452.1 435.1L456.4 435.6L460.7 436.1L465 436.6L469.3 437.1L473.6 437.6L477.9 437.8L482.1 437.7L486.4 437.3L490.7 436.6L495 435.6L499.3 434.3L503.6 433L507.9 431.9L512.2 431.1L516.5 430.6L520.7 430.2L525 430L529.3 429.9L533.6 430L537.9 430.3L542.2 431L546.5 431.8L550.8 432.5L555.1 433.2L559.3 433.9L563.6 434.3L567.9 434.7L572.2 434.7L576.5 434.3L580.8 433.8L585.1 433.1L589.4 432.3L593.7 431.1L597.9 429.5L602.2 427.8L606.5 426.2L610.8 424.5L615.1 423L619.4 421.7L623.7 420.4L628 419L632.3 417.7L636.5 416.6L640.8 415.7L645.1 414.9L649.4 414.1L653.7 413.4L658 412.8L662.3 412.6L666.6 412.4L670.9 412.2L675.1 412.1L679.4 412.1L683.7 412.1L688 412.1L692.3 412L696.6 412L700.9 411.8L705.2 411.6L709.5 411.3L713.7 410.9L718 410.4L722.3 409.7L726.6 409"
            ></path>
            <path
                fill="none"
                stroke-linecap="butt"
                stroke-linejoin="round"
                stroke="#a2559c"
                id="line__United-States"
                stroke-width="1.5"
                stroke-opacity="1"
                d="M83.3 480.3L87.6 479.7L91.8 479.2L96.1 478.6L100.4 478.1L104.7 477.6L109 477.2L113.3 476.8L117.6 476.4L121.9 475.9L126.2 475.4L130.4 474.8L134.7 474.3L139 473.8L143.3 473.3L147.6 472.9L151.9 472.6L156.2 472.4L160.5 472.2L164.8 472.3L169 472.4L173.3 472.6L177.6 472.9L181.9 473.3L186.2 473.7L190.5 474L194.8 474.2L199.1 474.3L203.4 474.4L207.6 474.3L211.9 474.2L216.2 473.8L220.5 472.9L224.8 471.7L229.1 470.4L233.4 469.3L237.7 467.8L242 465.6L246.2 463.3L250.5 461.2L254.8 459L259.1 457L263.4 455.1L267.7 453.4L272 451.5L276.3 449.4L280.6 447.6L284.8 446.3L289.1 445L293.4 443.7L297.7 442.3L302 440.9L306.3 439.7L310.6 438.9L314.9 438.3L319.2 438L323.5 438.2L327.7 438.7L332 439.3L336.3 440L340.6 440.5L344.9 440.9L349.2 441.6L353.5 442.5L357.8 443.4L362.1 444L366.3 444.3L370.6 444.2L374.9 443.9L379.2 443.5L383.5 443.3L387.8 443.1L392.1 442.4L396.4 441.3L400.7 440.3L404.9 439.4L409.2 438.4L413.5 437.6L417.8 436.9L422.1 436.2L426.4 435.6L430.7 435L435 434.7L439.3 434.6L443.5 434.6L447.8 434.8L452.1 435.1L456.4 435.6L460.7 436.1L465 436.6L469.3 437.1L473.6 437.6L477.9 437.8L482.1 437.7L486.4 437.3L490.7 436.6L495 435.6L499.3 434.3L503.6 433L507.9 431.9L512.2 431.1L516.5 430.6L520.7 430.2L525 430L529.3 429.9L533.6 430L537.9 430.3L542.2 431L546.5 431.8L550.8 432.5L555.1 433.2L559.3 433.9L563.6 434.3L567.9 434.7L572.2 434.7L576.5 434.3L580.8 433.8L585.1 433.1L589.4 432.3L593.7 431.1L597.9 429.5L602.2 427.8L606.5 426.2L610.8 424.5L615.1 423L619.4 421.7L623.7 420.4L628 419L632.3 417.7L636.5 416.6L640.8 415.7L645.1 414.9L649.4 414.1L653.7 413.4L658 412.8L662.3 412.6L666.6 412.4L670.9 412.2L675.1 412.1L679.4 412.1L683.7 412.1L688 412.1L692.3 412L696.6 412L700.9 411.8L705.2 411.6L709.5 411.3L713.7 410.9L718 410.4L722.3 409.7L726.6 409"
            ></path>
            <path
                fill="none"
                stroke-linecap="butt"
                stroke-linejoin="round"
                stroke="#ffffff"
                id="outline__India"
                stroke-width="2.5"
                d="M83.3 456.9L87.6 455.6L91.8 454.2L96.1 452.8L100.4 451.5L104.7 450.2L109 448.9L113.3 447.8L117.6 446.8L121.9 445.6L126.2 444.4L130.4 443.2L134.7 441.9L139 440.6L143.3 439.2L147.6 437.9L151.9 436.6L156.2 435.2L160.5 433.9L164.8 432.5L169 431L173.3 429.5L177.6 428L181.9 426.3L186.2 424.6L190.5 422.9L194.8 421.1L199.1 419.2L203.4 417.4L207.6 415.7L211.9 414L216.2 412.5L220.5 411L224.8 409.5L229.1 407.9L233.4 406.2L237.7 404.4L242 402.5L246.2 400.4L250.5 397.2L254.8 392.9L259.1 388.1L263.4 382.7L267.7 377L272 370.9L276.3 364.6L280.6 358.2L284.8 351.6L289.1 344.9L293.4 338.9L297.7 333.7L302 328.6L306.3 323.7L310.6 319L314.9 314.4L319.2 310.1L323.5 305.9L327.7 301.7L332 297.5L336.3 293.1L340.6 288.7L344.9 284.1L349.2 279.4L353.5 274.4L357.8 269.3L362.1 264L366.3 258.5L370.6 252.8L374.9 247.2L379.2 241.4L383.5 235.1L387.8 228.7L392.1 222.3L396.4 215.5L400.7 208.6L404.9 201.3L409.2 193.9L413.5 186.5L417.8 179.2L422.1 172.2L426.4 165.7L430.7 159.8L435 154.3L439.3 149.2L443.5 144.5L447.8 140.2L452.1 136.3L456.4 132.7L460.7 129.2L465 125.8L469.3 122.3L473.6 118.6L477.9 115.1L482.1 112.2L486.4 109.8L490.7 108.3L495 107.5L499.3 107.5L503.6 107.8L507.9 108.4L512.2 109.4L516.5 111.3L520.7 113.5L525 115.8L529.3 118.8L533.6 122L537.9 124.4L542.2 126.9L546.5 129.6L550.8 132.6L555.1 136.3L559.3 140.4L563.6 144.3L567.9 147.9L572.2 148.3L576.5 145.9L580.8 143.8L585.1 141.4L589.4 138.7L593.7 134.6L597.9 128.4L602.2 121.8L606.5 115.4L610.8 109.1L615.1 104.4L619.4 101.2L623.7 98.2L628 95.4L632.3 92.9L636.5 92L640.8 92.7L645.1 93.6L649.4 94.7L653.7 95.9L658 98.1L662.3 101.2L666.6 104.2L670.9 107L675.1 109.5L679.4 111.5L683.7 113.1L688 114.1L692.3 114.5L696.6 114.2L700.9 113.2L705.2 111.6L709.5 109.4L713.7 106.7L718 103.5L722.3 100.1L726.6 96.5"
            ></path>
            <path
                fill="none"
                stroke-linecap="butt"
                stroke-linejoin="round"
                stroke="#996d39"
                id="line__India"
                stroke-width="1.5"
                stroke-opacity="1"
                d="M83.3 456.9L87.6 455.6L91.8 454.2L96.1 452.8L100.4 451.5L104.7 450.2L109 448.9L113.3 447.8L117.6 446.8L121.9 445.6L126.2 444.4L130.4 443.2L134.7 441.9L139 440.6L143.3 439.2L147.6 437.9L151.9 436.6L156.2 435.2L160.5 433.9L164.8 432.5L169 431L173.3 429.5L177.6 428L181.9 426.3L186.2 424.6L190.5 422.9L194.8 421.1L199.1 419.2L203.4 417.4L207.6 415.7L211.9 414L216.2 412.5L220.5 411L224.8 409.5L229.1 407.9L233.4 406.2L237.7 404.4L242 402.5L246.2 400.4L250.5 397.2L254.8 392.9L259.1 388.1L263.4 382.7L267.7 377L272 370.9L276.3 364.6L280.6 358.2L284.8 351.6L289.1 344.9L293.4 338.9L297.7 333.7L302 328.6L306.3 323.7L310.6 319L314.9 314.4L319.2 310.1L323.5 305.9L327.7 301.7L332 297.5L336.3 293.1L340.6 288.7L344.9 284.1L349.2 279.4L353.5 274.4L357.8 269.3L362.1 264L366.3 258.5L370.6 252.8L374.9 247.2L379.2 241.4L383.5 235.1L387.8 228.7L392.1 222.3L396.4 215.5L400.7 208.6L404.9 201.3L409.2 193.9L413.5 186.5L417.8 179.2L422.1 172.2L426.4 165.7L430.7 159.8L435 154.3L439.3 149.2L443.5 144.5L447.8 140.2L452.1 136.3L456.4 132.7L460.7 129.2L465 125.8L469.3 122.3L473.6 118.6L477.9 115.1L482.1 112.2L486.4 109.8L490.7 108.3L495 107.5L499.3 107.5L503.6 107.8L507.9 108.4L512.2 109.4L516.5 111.3L520.7 113.5L525 115.8L529.3 118.8L533.6 122L537.9 124.4L542.2 126.9L546.5 129.6L550.8 132.6L555.1 136.3L559.3 140.4L563.6 144.3L567.9 147.9L572.2 148.3L576.5 145.9L580.8 143.8L585.1 141.4L589.4 138.7L593.7 134.6L597.9 128.4L602.2 121.8L606.5 115.4L610.8 109.1L615.1 104.4L619.4 101.2L623.7 98.2L628 95.4L632.3 92.9L636.5 92L640.8 92.7L645.1 93.6L649.4 94.7L653.7 95.9L658 98.1L662.3 101.2L666.6 104.2L670.9 107L675.1 109.5L679.4 111.5L683.7 113.1L688 114.1L692.3 114.5L696.6 114.2L700.9 113.2L705.2 111.6L709.5 109.4L713.7 106.7L718 103.5L722.3 100.1L726.6 96.5"
            ></path>
            <path
                fill="none"
                stroke-linecap="butt"
                stroke-linejoin="round"
                stroke="#ffffff"
                id="outline__China"
                stroke-width="2.5"
                d="M83.3 416.6L87.6 415.9L91.8 415.5L96.1 414.9L100.4 413.8L104.7 412.6L109 411.6L113.3 410.5L117.6 409.5L121.9 408.9L126.2 408.2L130.4 407L134.7 405.5L139 403.9L143.3 402.4L147.6 400.6L151.9 398.9L156.2 397L160.5 394.4L164.8 391.7L169 389.2L173.3 386.7L177.6 384.1L181.9 380.9L186.2 377.8L190.5 374.9L194.8 371.8L199.1 368.9L203.4 366.6L207.6 364.9L211.9 363.4L216.2 361.5L220.5 359.8L224.8 359L229.1 358.3L233.4 356.9L237.7 354.6L242 350.9L246.2 345.8L250.5 339.1L254.8 330.5L259.1 320.7L263.4 309L267.7 295.8L272 282.9L276.3 269.7L280.6 258.1L284.8 247.1L289.1 238.1L293.4 235.1L297.7 237L302 241.4L306.3 241.4L310.6 231.3L314.9 219L319.2 209.6L323.5 200L327.7 192.5L332 182.5L336.3 165.2L340.6 144.9L344.9 124.4L349.2 111.9L353.5 111.5L357.8 115.4L362.1 120.5L366.3 127.5L370.6 134.9L374.9 145.4L379.2 157.6L383.5 168.9L387.8 178.6L392.1 184.5L396.4 189.9L400.7 194.4L404.9 194.1L409.2 189.1L413.5 179.6L417.8 168.8L422.1 158.8L426.4 148.7L430.7 143.1L435 144.7L439.3 147.6L443.5 150.5L447.8 156.1L452.1 164.9L456.4 177.1L460.7 190.4L465 204.1L469.3 218.7L473.6 230.1L477.9 237.3L482.1 243L486.4 247.6L490.7 251.1L495 253.5L499.3 254.4L503.6 253.8L507.9 252L512.2 250.4L516.5 248.7L520.7 245L525 240.7L529.3 236.7L533.6 233.7L537.9 231.4L542.2 228.9L546.5 229.5L550.8 233.8L555.1 241.1L559.3 251.5L563.6 264.9L567.9 280L572.2 293.5L576.5 304.9L580.8 316.1L585.1 328.1L589.4 338L593.7 344.1L597.9 346.7L602.2 346L606.5 343.5L610.8 339.7L615.1 336.5L619.4 334.2L623.7 331.5L628 328.5L632.3 325.3L636.5 322.7L640.8 321L645.1 319.3L649.4 317.5L653.7 315.9L658 315L662.3 315L666.6 315.4L670.9 316.2L675.1 317.6L679.4 319.4L683.7 321.7L688 324.4L692.3 327.5L696.6 331L700.9 334.7L705.2 338.6L709.5 342.6L713.7 346.5L718 350.3L722.3 353.7L726.6 356.7"
            ></path>
            <path
                fill="none"
                stroke-linecap="butt"
                stroke-linejoin="round"
                stroke="#b13507"
                id="line__China"
                stroke-width="1.5"
                stroke-opacity="1"
                d="M83.3 416.6L87.6 415.9L91.8 415.5L96.1 414.9L100.4 413.8L104.7 412.6L109 411.6L113.3 410.5L117.6 409.5L121.9 408.9L126.2 408.2L130.4 407L134.7 405.5L139 403.9L143.3 402.4L147.6 400.6L151.9 398.9L156.2 397L160.5 394.4L164.8 391.7L169 389.2L173.3 386.7L177.6 384.1L181.9 380.9L186.2 377.8L190.5 374.9L194.8 371.8L199.1 368.9L203.4 366.6L207.6 364.9L211.9 363.4L216.2 361.5L220.5 359.8L224.8 359L229.1 358.3L233.4 356.9L237.7 354.6L242 350.9L246.2 345.8L250.5 339.1L254.8 330.5L259.1 320.7L263.4 309L267.7 295.8L272 282.9L276.3 269.7L280.6 258.1L284.8 247.1L289.1 238.1L293.4 235.1L297.7 237L302 241.4L306.3 241.4L310.6 231.3L314.9 219L319.2 209.6L323.5 200L327.7 192.5L332 182.5L336.3 165.2L340.6 144.9L344.9 124.4L349.2 111.9L353.5 111.5L357.8 115.4L362.1 120.5L366.3 127.5L370.6 134.9L374.9 145.4L379.2 157.6L383.5 168.9L387.8 178.6L392.1 184.5L396.4 189.9L400.7 194.4L404.9 194.1L409.2 189.1L413.5 179.6L417.8 168.8L422.1 158.8L426.4 148.7L430.7 143.1L435 144.7L439.3 147.6L443.5 150.5L447.8 156.1L452.1 164.9L456.4 177.1L460.7 190.4L465 204.1L469.3 218.7L473.6 230.1L477.9 237.3L482.1 243L486.4 247.6L490.7 251.1L495 253.5L499.3 254.4L503.6 253.8L507.9 252L512.2 250.4L516.5 248.7L520.7 245L525 240.7L529.3 236.7L533.6 233.7L537.9 231.4L542.2 228.9L546.5 229.5L550.8 233.8L555.1 241.1L559.3 251.5L563.6 264.9L567.9 280L572.2 293.5L576.5 304.9L580.8 316.1L585.1 328.1L589.4 338L593.7 344.1L597.9 346.7L602.2 346L606.5 343.5L610.8 339.7L615.1 336.5L619.4 334.2L623.7 331.5L628 328.5L632.3 325.3L636.5 322.7L640.8 321L645.1 319.3L649.4 317.5L653.7 315.9L658 315L662.3 315L666.6 315.4L670.9 316.2L675.1 317.6L679.4 319.4L683.7 321.7L688 324.4L692.3 327.5L696.6 331L700.9 334.7L705.2 338.6L709.5 342.6L713.7 346.5L718 350.3L722.3 353.7L726.6 356.7"
            ></path>
        </g>
    </g>
    <g id="footer" class="SourcesFooter" style="fill: #767676">
        <g id="sources" class="markdown-text-wrap">
            <text x="16.0" y="560.9" style="font-size: 13px; line-height: 1.2">
                <tspan x="16" y="560.9">
                    <tspan style="font-weight: 700">Data source:</tspan>
                    UN, World Population Prospects (2024)
                </tspan>
            </text>
        </g>
        <g id="note" class="markdown-text-wrap">
            <text x="16.0" y="581.0" style="font-size: 13px; line-height: 1.2">
                <tspan x="16" y="581.0">
                    <tspan style="font-weight: 700">Note:</tspan>
                    Values as of 1 July of the indicated year.
                </tspan>
            </text>
        </g>
        <text id="origin-url" font-size="13.00" x="560.3" y="560.9">
            <tspan x="560.3499999999999" y="560.91">
                <a
                    style="fill: #767676"
                    href="https://ourworldindata.org/population-growth"
                >
                    OurWorldinData.org/population-growth
                </a>
                |
                <a
                    style="fill: #767676"
                    href="https://creativecommons.org/licenses/by/4.0/"
                >
                    CC BY
                </a>
            </tspan>
        </text>
    </g>
</svg>
