<svg xmlns="http://www.w3.org/2000/svg" version="1.1" style="font-family:Lato, &#x27;Helvetica Neue&#x27;, Helvetica, Arial, &#x27;Liberation Sans&#x27;, sans-serif;font-size:18px;background-color:white;text-rendering:geometricPrecision;-webkit-font-smoothing:antialiased" width="850" height="600" viewBox="0 0 850 600"><defs><style>@import url(https://ourworldindata.org/fonts.css)</style></defs><defs><pattern id="noDataPattern" patternUnits="userSpaceOnUse" width="4" height="4" patternTransform="rotate(-45 2 2)"><path d="M -1,2 l 6,0" stroke="#ccc" stroke-width="0.7"></path></pattern></defs><rect class="background-fill" fill="white" width="850" height="600"></rect><g id="header" class="HeaderView"><g id="logo" transform="translate(769, 16) scale(1)"><svg className="owidLogo" xmlns="http://www.w3.org/2000/svg" width="65" height="36" viewBox="0 0 65 36"  fill="none"><path fill="#002147" d="M0 0h64.8v36H0z"/><path fill="#CE261E" d="M0 33.3h64.8V36H0z"/><path fill="#fff" d="M13.796 10.575c0 .636-.106 1.226-.318 1.77a4.193 4.193 0 0 1-.894 1.404 4.084 4.084 0 0 1-1.386.93c-.54.22-1.138.33-1.794.33-.656 0-1.256-.11-1.8-.33a4.149 4.149 0 0 1-1.392-.93 4.193 4.193 0 0 1-.894-1.404A4.833 4.833 0 0 1 5 10.575c0-.636.106-1.224.318-1.764a4.18 4.18 0 0 1 .894-1.41 4.076 4.076 0 0 1 1.392-.924 4.684 4.684 0 0 1 1.8-.336c.656 0 1.254.112 1.794.336.54.224 1.002.534 1.386.93.384.392.682.86.894 1.404.212.54.318 1.128.318 1.764Zm-1.656 0c0-.476-.064-.902-.192-1.278a2.671 2.671 0 0 0-.54-.966 2.332 2.332 0 0 0-.864-.606 2.94 2.94 0 0 0-1.14-.21c-.424 0-.806.07-1.146.21-.34.14-.63.342-.87.606a2.742 2.742 0 0 0-.546.966 3.955 3.955 0 0 0-.192 1.278c0 .476.064.904.192 1.284.128.376.31.696.546.96.24.26.53.46.87.6.34.14.722.21 1.146.21.424 0 .804-.07 1.14-.21.34-.14.628-.34.864-.6.236-.264.416-.584.54-.96a4.01 4.01 0 0 0 .192-1.284ZM16.104 8.757v3.912c0 .376.086.668.258.876.176.204.438.306.786.306.256 0 .496-.056.72-.168a2.58 2.58 0 0 0 .636-.474V8.757h1.482v6.156h-.906c-.192 0-.318-.09-.378-.27l-.102-.492a4.65 4.65 0 0 1-.396.354 2.577 2.577 0 0 1-.438.27 2.35 2.35 0 0 1-.498.168 2.345 2.345 0 0 1-.57.066c-.336 0-.634-.056-.894-.168a1.821 1.821 0 0 1-.648-.486 2.157 2.157 0 0 1-.402-.738 3.233 3.233 0 0 1-.132-.948V8.757h1.482ZM21.328 14.913V8.757h.87c.152 0 .258.028.318.084.06.056.1.152.12.288l.09.744c.22-.38.478-.68.774-.9.296-.22.628-.33.996-.33.304 0 .556.07.756.21l-.192 1.11c-.012.072-.038.124-.078.156a.278.278 0 0 1-.162.042 1.01 1.01 0 0 1-.246-.042 1.646 1.646 0 0 0-.414-.042c-.308 0-.572.086-.792.258-.22.168-.406.416-.558.744v3.834h-1.482ZM27.347 6.237h1.356a.57.57 0 0 1 .348.102c.096.064.16.152.192.264l1.476 5.19c.036.128.068.268.096.42.032.148.062.306.09.474a5.968 5.968 0 0 1 .228-.894l1.704-5.19a.575.575 0 0 1 .186-.252.543.543 0 0 1 .348-.114h.474a.57.57 0 0 1 .348.102.497.497 0 0 1 .192.264l1.692 5.19c.088.256.164.54.228.852.028-.156.056-.306.084-.45.032-.144.064-.278.096-.402l1.476-5.19c.028-.1.09-.186.186-.258a.563.563 0 0 1 .348-.108h1.266l-2.694 8.676h-1.458l-1.896-5.928-.078-.246a9.504 9.504 0 0 1-.072-.282c-.024.1-.05.194-.078.282-.024.088-.048.17-.072.246l-1.914 5.928H30.04l-2.694-8.676ZM42.771 8.661c.46 0 .876.074 1.248.222.376.148.696.358.96.63s.468.604.612.996c.144.392.216.83.216 1.314 0 .488-.072.928-.216 1.32a2.85 2.85 0 0 1-.612 1.002 2.653 2.653 0 0 1-.96.636 3.35 3.35 0 0 1-1.248.222c-.46 0-.878-.074-1.254-.222a2.712 2.712 0 0 1-.966-.636 2.922 2.922 0 0 1-.618-1.002 3.807 3.807 0 0 1-.216-1.32c0-.484.072-.922.216-1.314.148-.392.354-.724.618-.996.268-.272.59-.482.966-.63a3.397 3.397 0 0 1 1.254-.222Zm0 5.202c.512 0 .89-.172 1.134-.516.248-.344.372-.848.372-1.512s-.124-1.17-.372-1.518c-.244-.348-.622-.522-1.134-.522-.52 0-.904.176-1.152.528-.248.348-.372.852-.372 1.512s.124 1.164.372 1.512c.248.344.632.516 1.152.516ZM46.723 14.913V8.757h.87c.152 0 .258.028.318.084.06.056.1.152.12.288l.09.744c.22-.38.478-.68.774-.9.296-.22.628-.33.996-.33.304 0 .556.07.756.21l-.192 1.11c-.012.072-.038.124-.078.156a.278.278 0 0 1-.162.042 1.01 1.01 0 0 1-.246-.042 1.646 1.646 0 0 0-.414-.042c-.308 0-.572.086-.792.258-.22.168-.406.416-.558.744v3.834h-1.482ZM52.96 5.997v8.916h-1.482V5.997h1.482ZM58.732 14.913c-.192 0-.318-.09-.378-.27l-.12-.594a3.68 3.68 0 0 1-.402.39c-.14.116-.292.216-.456.3-.16.084-.334.148-.522.192a2.372 2.372 0 0 1-.6.072c-.336 0-.644-.07-.924-.21a2.098 2.098 0 0 1-.726-.606 3.033 3.033 0 0 1-.468-.99 5.072 5.072 0 0 1-.162-1.344c0-.456.062-.88.186-1.272s.302-.732.534-1.02c.232-.288.51-.512.834-.672a2.384 2.384 0 0 1 1.092-.246 2.103 2.103 0 0 1 1.536.606V5.997h1.482v8.916h-.906Zm-1.974-1.086c.308 0 .57-.064.786-.192.216-.128.42-.31.612-.546v-2.76a1.452 1.452 0 0 0-.552-.432 1.597 1.597 0 0 0-.636-.126c-.224 0-.428.042-.612.126a1.21 1.21 0 0 0-.462.384c-.124.168-.22.384-.288.648-.068.26-.102.568-.102.924 0 .36.028.666.084.918.06.248.144.452.252.612.108.156.24.27.396.342.156.068.33.102.522.102ZM16.331 20.757v6.156H14.85v-6.156h1.481Zm.223-1.794a.844.844 0 0 1-.078.36.963.963 0 0 1-.21.294.995.995 0 0 1-.3.204.963.963 0 0 1-.372.072.948.948 0 0 1-.367-.072 1.018 1.018 0 0 1-.498-.498.963.963 0 0 1 0-.732.995.995 0 0 1 .205-.3.929.929 0 0 1 .293-.198.899.899 0 0 1 .738 0 .912.912 0 0 1 .3.198.943.943 0 0 1 .288.672ZM17.771 26.913v-6.156h.906c.192 0 .318.09.378.27l.102.486a2.934 2.934 0 0 1 .828-.618c.156-.076.322-.134.498-.174.176-.04.368-.06.576-.06.336 0 .634.058.894.174.26.112.476.272.648.48.176.204.308.45.396.738.092.284.138.598.138.942v3.918h-1.482v-3.918c0-.376-.088-.666-.264-.87-.172-.208-.432-.312-.78-.312-.256 0-.496.058-.72.174a2.58 2.58 0 0 0-.636.474v4.452h-1.482ZM34.22 22.575c0 .636-.106 1.22-.318 1.752-.212.532-.51.99-.894 1.374a4 4 0 0 1-1.386.894 4.87 4.87 0 0 1-1.794.318h-3.312v-8.676h3.312a4.79 4.79 0 0 1 1.794.324 4 4 0 0 1 1.386.894c.384.38.682.836.894 1.368.212.532.318 1.116.318 1.752Zm-1.65 0c0-.476-.064-.902-.192-1.278a2.68 2.68 0 0 0-.546-.96 2.332 2.332 0 0 0-.864-.606 2.94 2.94 0 0 0-1.14-.21h-1.686v6.108h1.686c.424 0 .804-.07 1.14-.21.34-.14.628-.34.864-.6a2.75 2.75 0 0 0 .546-.96 4.01 4.01 0 0 0 .192-1.284ZM39.98 26.913h-.665c-.14 0-.25-.02-.33-.06-.08-.044-.14-.13-.18-.258l-.132-.438c-.156.14-.31.264-.462.372a2.804 2.804 0 0 1-.462.264c-.16.072-.33.126-.51.162-.18.036-.38.054-.6.054-.26 0-.5-.034-.72-.102a1.618 1.618 0 0 1-.57-.318 1.448 1.448 0 0 1-.366-.522 1.852 1.852 0 0 1-.132-.726c0-.232.06-.46.18-.684.124-.228.328-.432.612-.612.284-.184.662-.336 1.134-.456.472-.12 1.058-.188 1.758-.204v-.36c0-.412-.088-.716-.264-.912-.172-.2-.424-.3-.756-.3a1.837 1.837 0 0 0-1.02.276c-.116.068-.224.13-.324.186a.664.664 0 0 1-.33.084.429.429 0 0 1-.258-.078.614.614 0 0 1-.174-.192l-.27-.474c.708-.648 1.562-.972 2.562-.972.36 0 .68.06.96.18.284.116.524.28.72.492.196.208.344.458.444.75.104.292.156.612.156.96v3.888Zm-2.88-.924c.153 0 .293-.014.42-.042.129-.028.249-.07.36-.126.117-.056.227-.124.33-.204.109-.084.217-.182.325-.294v-1.038c-.432.02-.794.058-1.086.114-.288.052-.52.12-.696.204a.923.923 0 0 0-.378.294.664.664 0 0 0-.108.366c0 .26.076.446.228.558.156.112.358.168.606.168ZM43.22 27.01c-.532 0-.942-.15-1.23-.45-.288-.305-.432-.723-.432-1.255v-3.438h-.624a.31.31 0 0 1-.21-.078c-.056-.052-.084-.13-.084-.234v-.588l.99-.162.312-1.68a.302.302 0 0 1 .108-.186.365.365 0 0 1 .222-.066h.768v1.938h1.62v1.056h-1.62v3.336c0 .192.048.342.144.45a.488.488 0 0 0 .384.162c.092 0 .168-.01.228-.03.064-.024.118-.048.162-.072.048-.024.09-.046.126-.066a.194.194 0 0 1 .108-.036.16.16 0 0 1 .108.036c.028.02.058.052.09.096l.444.72c-.216.18-.464.316-.744.408a2.77 2.77 0 0 1-.87.138ZM50.423 26.913h-.666c-.14 0-.25-.02-.33-.06-.08-.044-.14-.13-.18-.258l-.132-.438c-.156.14-.31.264-.462.372a2.804 2.804 0 0 1-.462.264c-.16.072-.33.126-.51.162-.18.036-.38.054-.6.054-.26 0-.5-.034-.72-.102a1.618 1.618 0 0 1-.57-.318 1.448 1.448 0 0 1-.366-.522 1.852 1.852 0 0 1-.132-.726c0-.232.06-.46.18-.684.124-.228.328-.432.612-.612.284-.184.662-.336 1.134-.456.472-.12 1.058-.188 1.758-.204v-.36c0-.412-.088-.716-.264-.912-.172-.2-.424-.3-.756-.3a1.837 1.837 0 0 0-1.02.276c-.116.068-.224.13-.324.186a.664.664 0 0 1-.33.084.429.429 0 0 1-.258-.078.614.614 0 0 1-.174-.192l-.27-.474c.708-.648 1.562-.972 2.562-.972.36 0 .68.06.96.18.284.116.524.28.72.492.196.208.344.458.444.75.104.292.156.612.156.96v3.888Zm-2.88-.924c.152 0 .292-.014.42-.042.128-.028.248-.07.36-.126.116-.056.226-.124.33-.204.108-.084.216-.182.324-.294v-1.038c-.432.02-.794.058-1.086.114-.288.052-.52.12-.696.204a.923.923 0 0 0-.378.294.664.664 0 0 0-.108.366c0 .26.076.446.228.558.156.112.358.168.606.168Z"/></svg></g><a id="title" href="https://ourworldindata.org/grapher/bean-yields" style="font-family:&#x27;Playfair Display&#x27;, Georgia, &#x27;Times New Roman&#x27;, &#x27;Liberation Serif&#x27;, serif" target="_blank" rel="noopener"><text font-size="24.75" font-weight="600" x="16.0" y="40.0" fill="#5b5b5b"><tspan x="16" y="40.0075">Bean yields, 1961 to 2021</tspan></text></a><g id="subtitle" class="markdown-text-wrap"><text x="16.0" y="63.9" style="font-size:14.625px;line-height:1.2" fill="#5b5b5b"><tspan x="16" y="63.9">Yields are measured in tonnes per hectare.</tspan></text></g></g><g id="chart-area" style="pointer-events:none"><g id="line-chart" class="LineChart"><defs><clipPath id="boundsClip-1"><rect x="37.46" y="73.25" width="838" height="488.55"></rect></clipPath></defs><rect x="16" y="83.25" width="818" height="468.55" fill="none"></rect><g id="dual-axis" class="DualAxisView"><g id="horizontal-axis" class="HorizontalAxis"><g id="tick__1961"><line x1="47.5" y1="530.8" x2="47.5" y2="536.3" stroke="#999" stroke-width="1"></line><text x="47.46" y="549.8" fill="#5b5b5b" text-anchor="start" font-size="13.5">1961</text></g><g id="tick__2021"><line x1="717.6" y1="530.8" x2="717.6" y2="536.3" stroke="#999" stroke-width="1"></line><text x="717.595" y="549.8" fill="#5b5b5b" text-anchor="end" font-size="13.5">2021</text></g><g id="tick__1970"><line x1="148" y1="530.8" x2="148" y2="536.3" stroke="#999" stroke-width="1"></line><text x="148" y="549.8" fill="#5b5b5b" text-anchor="middle" font-size="13.5">1970</text></g><g id="tick__1980"><line x1="259.7" y1="530.8" x2="259.7" y2="536.3" stroke="#999" stroke-width="1"></line><text x="259.7" y="549.8" fill="#5b5b5b" text-anchor="middle" font-size="13.5">1980</text></g><g id="tick__1990"><line x1="371.4" y1="530.8" x2="371.4" y2="536.3" stroke="#999" stroke-width="1"></line><text x="371.4" y="549.8" fill="#5b5b5b" text-anchor="middle" font-size="13.5">1990</text></g><g id="tick__2000"><line x1="483" y1="530.8" x2="483" y2="536.3" stroke="#999" stroke-width="1"></line><text x="483" y="549.8" fill="#5b5b5b" text-anchor="middle" font-size="13.5">2000</text></g><g id="tick__2010"><line x1="594.7" y1="530.8" x2="594.7" y2="536.3" stroke="#999" stroke-width="1"></line><text x="594.7" y="549.8" fill="#5b5b5b" text-anchor="middle" font-size="13.5">2010</text></g></g><g id="vertical-axis" class="VerticalAxis"><g id="tick-labels"><text id="tick-label__0-t" x="42.46" y="531.3" dy=".32em" text-anchor="end" fill="#5b5b5b" font-size="13.5">0 t</text><text id="tick-label__0__002e5-t" x="42.46" y="466.9" dy=".32em" text-anchor="end" fill="#5b5b5b" font-size="13.5">0.5 t</text><text id="tick-label__1-t" x="42.46" y="402.5" dy=".32em" text-anchor="end" fill="#5b5b5b" font-size="13.5">1 t</text><text id="tick-label__1__002e5-t" x="42.46" y="338.2" dy=".32em" text-anchor="end" fill="#5b5b5b" font-size="13.5">1.5 t</text><text id="tick-label__2-t" x="42.46" y="273.8" dy=".32em" text-anchor="end" fill="#5b5b5b" font-size="13.5">2 t</text><text id="tick-label__2__002e5-t" x="42.46" y="209.4" dy=".32em" text-anchor="end" fill="#5b5b5b" font-size="13.5">2.5 t</text><text id="tick-label__3-t" x="42.46" y="145" dy=".32em" text-anchor="end" fill="#5b5b5b" font-size="13.5">3 t</text></g></g><g id="horizontal-grid-lines" class="AxisGridLines horizontalLines"><line id="grid-line__0" x1="47.46" y1="531.3" x2="717.60" y2="531.3" stroke="#999" stroke-width="1"></line><line id="grid-line__0__002e5" x1="47.46" y1="466.9" x2="717.60" y2="466.9" stroke="#ddd" stroke-width="1" stroke-dasharray="3,2"></line><line id="grid-line__1" x1="47.46" y1="402.5" x2="717.60" y2="402.5" stroke="#ddd" stroke-width="1" stroke-dasharray="3,2"></line><line id="grid-line__1__002e5" x1="47.46" y1="338.2" x2="717.60" y2="338.2" stroke="#ddd" stroke-width="1" stroke-dasharray="3,2"></line><line id="grid-line__2" x1="47.46" y1="273.8" x2="717.60" y2="273.8" stroke="#ddd" stroke-width="1" stroke-dasharray="3,2"></line><line id="grid-line__2__002e5" x1="47.46" y1="209.4" x2="717.60" y2="209.4" stroke="#ddd" stroke-width="1" stroke-dasharray="3,2"></line><line id="grid-line__3" x1="47.46" y1="145" x2="717.60" y2="145" stroke="#ddd" stroke-width="1" stroke-dasharray="3,2"></line></g></g><g clip-path="url(#boundsClip-1)"><g id="line-labels" class="LineLabels"><g id="mark__Libya" class="legendMark" style="cursor:default"><rect id="background" x="717.595" y="107.85" width="67.4" height="13.5" fill="#fff" opacity="0"></rect><text id="label" font-size="13.50" font-weight="400" x="721.6" y="119.6" fill="#be5915"><tspan x="721.595" y="119.595">Libya</tspan></text></g><g id="mark__Yemen" class="legendMark" style="cursor:default"><rect id="background" x="717.595" y="185.35" width="77.93" height="13.5" fill="#fff" opacity="0"></rect><text id="label" font-size="13.50" font-weight="400" x="721.6" y="197.1" fill="#6d3e91"><tspan x="721.595" y="197.095">Yemen</tspan></text></g><g id="mark__United-States" class="legendMark" style="cursor:default"><rect id="background" x="717.595" y="279.15" width="116.405" height="13.5" fill="#fff" opacity="0"></rect><text id="label" font-size="13.50" font-weight="400" x="721.6" y="290.9" fill="#2c8465"><tspan x="721.595" y="290.895">United States</tspan></text></g><g id="mark__Brazil" class="legendMark" style="cursor:default"><rect id="background" x="717.595" y="381.65" width="68.75" height="13.5" fill="#fff" opacity="0"></rect><text id="label" font-size="13.50" font-weight="400" x="721.6" y="393.4" fill="#c15065"><tspan x="721.595" y="393.395">Brazil</tspan></text></g></g><g id="lines" class="Lines"><rect x="47" y="89" width="670" height="442" fill="rgba(255,255,255,0)" opacity="0"></rect><g id="line__Yemen"><path stroke-linecap="round" stroke-linejoin="round" stroke="#ddd" d="M349 236.8L360.2 122.2L371.4 231.8L382.5 345.1L393.7 314.4L404.9 310.6L416 327.6L427.2 325.9L438.4 328.6L449.5 334.5L460.7 332.5L471.9 333.5L483 338L494.2 341.6L505.4 336.5L516.6 339.4L527.7 162.6L538.9 212.9L550.1 215.1L561.2 197.9L572.4 195L583.6 194L594.7 197.1L605.9 194.4L617.1 197.1L628.2 197.6L639.4 202.6L650.6 155.2L661.8 161.8L672.9 168.4L684.1 191.9L695.3 266.8L706.4 252.8L717.6 192.1" fill="none" stroke-width="1"></path></g><g id="line__Libya"><path stroke-linecap="round" stroke-linejoin="round" stroke="#ddd" d="M103.3 273.8L114.5 273.8L125.6 273.8L136.8 279.2L148 282.3L159.1 303.8L170.3 311L181.5 311.1L192.7 306L203.8 315.8L215 310.3L226.2 303.4L237.3 306.2L248.5 273.8L259.7 273.8L270.8 273.8L282 261.8L293.2 228.7L304.3 207.8L315.5 209.4L326.7 206L337.9 185.3L349 188L360.2 163.4L371.4 135.1L382.5 141.1L393.7 145L404.9 147.8L416 142.6L427.2 145L438.4 147.1L449.5 143L460.7 147L471.9 146.6L483 141.1L494.2 139.2L505.4 139.1L516.6 139.4L527.7 139L538.9 128.9L550.1 128.9L561.2 128.9L572.4 128.9L583.6 89.3L594.7 100.7L605.9 111.4L617.1 107.2L628.2 104.3L639.4 100.8L650.6 97.4L661.8 100.8L672.9 98.4L684.1 110.4L695.3 112.7L706.4 113.2L717.6 114.6" fill="none" stroke-width="1"></path></g><g id="line__United-States"><path stroke-linecap="round" stroke-linejoin="round" stroke="#ddd" d="M47.5 332.9L58.6 350.4L69.8 323.3L81 352.5L92.1 372.9L103.3 340.3L114.5 354L125.6 354.6L136.8 345.5L148 353.1L159.1 353.8L170.3 342L181.5 354.9L192.7 338L203.8 359.6L215 358.5L226.2 343.2L237.3 343.4L248.5 317.6L259.7 323.8L270.8 323.1L282 323.7L293.2 334.7L304.3 323.1L315.5 314.1L326.7 309.7L337.9 305.7L349 325.9L360.2 323.9L371.4 307.1L382.5 276.7L393.7 317.9L404.9 336.3L416 303.2L427.2 297.8L438.4 300.6L449.5 290.4L460.7 302.4L471.9 276.9L483 294.3L494.2 304.9L505.4 279.7L516.6 290.3L527.7 320.1L538.9 280.1L550.1 303.7L561.2 281.7L572.4 276.1L583.6 281.1L594.7 282.3L605.9 285.5L617.1 258.8L628.2 261.9L639.4 278.2L650.6 277.3L661.8 265.4L672.9 234.2L684.1 225.2L695.3 276.8L706.4 248L717.6 285.9" fill="none" stroke-width="1"></path></g><g id="line__Brazil"><path stroke-linecap="round" stroke-linejoin="round" stroke="#ddd" d="M47.5 444.3L58.6 450.2L69.8 447.4L81 451.1L92.1 441.2L103.3 448.1L114.5 441.4L125.6 446.3L136.8 453.3L148 449.6L159.1 443.4L170.3 444.5L181.5 456L192.7 464.1L203.8 460.4L215 472.9L226.2 466.5L237.3 470.1L248.5 464.5L259.7 476.7L270.8 471.3L282 468.2L293.2 481.2L304.3 467.8L315.5 469.6L326.7 479.1L337.9 481.8L349 468.7L360.2 473.9L371.4 469.8L382.5 466.3L393.7 461.3L404.9 449.2L416 452L427.2 455.5L438.4 457.9L449.5 448.2L460.7 446.2L471.9 443.6L483 440.5L494.2 439.7L505.4 436L516.6 427.4L527.7 435.3L538.9 427.5L550.1 420.9L561.2 423.6L572.4 413.5L583.6 421.8L594.7 412.5L605.9 410.9L617.1 398.5L628.2 398.9L639.4 398.1L650.6 392.5L661.8 400.9L672.9 391.3L684.1 399L695.3 387.7L706.4 385.8L717.6 388.4" fill="none" stroke-width="1"></path></g><g id="line__Yemen"><path id="outline" fill="none" stroke-linecap="butt" stroke-linejoin="round" stroke="#fff" stroke-width="2.5" d="M349 236.8L360.2 122.2L371.4 231.8L382.5 345.1L393.7 314.4L404.9 310.6L416 327.6L427.2 325.9L438.4 328.6L449.5 334.5L460.7 332.5L471.9 333.5L483 338L494.2 341.6L505.4 336.5L516.6 339.4L527.7 162.6L538.9 212.9L550.1 215.1L561.2 197.9L572.4 195L583.6 194L594.7 197.1L605.9 194.4L617.1 197.1L628.2 197.6L639.4 202.6L650.6 155.2L661.8 161.8L672.9 168.4L684.1 191.9L695.3 266.8L706.4 252.8L717.6 192.1"></path><g id="polyline"><polyline id="polyline" points="349.00,236.80 360.20,122.20 371.40,231.80 382.50,345.10 393.70,314.40 404.90,310.60 416.00,327.60 427.20,325.90 438.40,328.60 449.50,334.50 460.70,332.50 471.90,333.50 483.00,338.00 494.20,341.60 505.40,336.50 516.60,339.40 527.70,162.60 538.90,212.90 550.10,215.10 561.20,197.90 572.40,195.00 583.60,194.00 594.70,197.10 605.90,194.40 617.10,197.10 628.20,197.60 639.40,202.60 650.60,155.20 661.80,161.80 672.90,168.40 684.10,191.90 695.30,266.80 706.40,252.80 717.60,192.10" stroke-linejoin="round" stroke-width="1.5" stroke="#6D3E91" fill="none" stroke-linecap="butt"></polyline></g><g id="markers"><circle cx="349" cy="236.8" r="1.8" fill="#6D3E91"></circle><circle cx="360.2" cy="122.2" r="1.8" fill="#6D3E91"></circle><circle cx="371.4" cy="231.8" r="1.8" fill="#6D3E91"></circle><circle cx="382.5" cy="345.1" r="1.8" fill="#6D3E91"></circle><circle cx="393.7" cy="314.4" r="1.8" fill="#6D3E91"></circle><circle cx="404.9" cy="310.6" r="1.8" fill="#6D3E91"></circle><circle cx="416" cy="327.6" r="1.8" fill="#6D3E91"></circle><circle cx="427.2" cy="325.9" r="1.8" fill="#6D3E91"></circle><circle cx="438.4" cy="328.6" r="1.8" fill="#6D3E91"></circle><circle cx="449.5" cy="334.5" r="1.8" fill="#6D3E91"></circle><circle cx="460.7" cy="332.5" r="1.8" fill="#6D3E91"></circle><circle cx="471.9" cy="333.5" r="1.8" fill="#6D3E91"></circle><circle cx="483" cy="338" r="1.8" fill="#6D3E91"></circle><circle cx="494.2" cy="341.6" r="1.8" fill="#6D3E91"></circle><circle cx="505.4" cy="336.5" r="1.8" fill="#6D3E91"></circle><circle cx="516.6" cy="339.4" r="1.8" fill="#6D3E91"></circle><circle cx="527.7" cy="162.6" r="1.8" fill="#6D3E91"></circle><circle cx="538.9" cy="212.9" r="1.8" fill="#6D3E91"></circle><circle cx="550.1" cy="215.1" r="1.8" fill="#6D3E91"></circle><circle cx="561.2" cy="197.9" r="1.8" fill="#6D3E91"></circle><circle cx="572.4" cy="195" r="1.8" fill="#6D3E91"></circle><circle cx="583.6" cy="194" r="1.8" fill="#6D3E91"></circle><circle cx="594.7" cy="197.1" r="1.8" fill="#6D3E91"></circle><circle cx="605.9" cy="194.4" r="1.8" fill="#6D3E91"></circle><circle cx="617.1" cy="197.1" r="1.8" fill="#6D3E91"></circle><circle cx="628.2" cy="197.6" r="1.8" fill="#6D3E91"></circle><circle cx="639.4" cy="202.6" r="1.8" fill="#6D3E91"></circle><circle cx="650.6" cy="155.2" r="1.8" fill="#6D3E91"></circle><circle cx="661.8" cy="161.8" r="1.8" fill="#6D3E91"></circle><circle cx="672.9" cy="168.4" r="1.8" fill="#6D3E91"></circle><circle cx="684.1" cy="191.9" r="1.8" fill="#6D3E91"></circle><circle cx="695.3" cy="266.8" r="1.8" fill="#6D3E91"></circle><circle cx="706.4" cy="252.8" r="1.8" fill="#6D3E91"></circle><circle cx="717.6" cy="192.1" r="1.8" fill="#6D3E91"></circle></g></g><g id="line__Libya"><path id="outline" fill="none" stroke-linecap="butt" stroke-linejoin="round" stroke="#fff" stroke-width="2.5" d="M103.3 273.8L114.5 273.8L125.6 273.8L136.8 279.2L148 282.3L159.1 303.8L170.3 311L181.5 311.1L192.7 306L203.8 315.8L215 310.3L226.2 303.4L237.3 306.2L248.5 273.8L259.7 273.8L270.8 273.8L282 261.8L293.2 228.7L304.3 207.8L315.5 209.4L326.7 206L337.9 185.3L349 188L360.2 163.4L371.4 135.1L382.5 141.1L393.7 145L404.9 147.8L416 142.6L427.2 145L438.4 147.1L449.5 143L460.7 147L471.9 146.6L483 141.1L494.2 139.2L505.4 139.1L516.6 139.4L527.7 139L538.9 128.9L550.1 128.9L561.2 128.9L572.4 128.9L583.6 89.3L594.7 100.7L605.9 111.4L617.1 107.2L628.2 104.3L639.4 100.8L650.6 97.4L661.8 100.8L672.9 98.4L684.1 110.4L695.3 112.7L706.4 113.2L717.6 114.6"></path><g id="polyline"><polyline id="polyline" points="103.30,273.80 114.50,273.80 125.60,273.80 136.80,279.20 148.00,282.30 159.10,303.80 170.30,311.00 181.50,311.10 192.70,306.00 203.80,315.80 215.00,310.30 226.20,303.40 237.30,306.20 248.50,273.80 259.70,273.80 270.80,273.80 282.00,261.80 293.20,228.70 304.30,207.80 315.50,209.40 326.70,206.00 337.90,185.30 349.00,188.00 360.20,163.40 371.40,135.10 382.50,141.10 393.70,145.00 404.90,147.80 416.00,142.60 427.20,145.00 438.40,147.10 449.50,143.00 460.70,147.00 471.90,146.60 483.00,141.10 494.20,139.20 505.40,139.10 516.60,139.40 527.70,139.00 538.90,128.90 550.10,128.90 561.20,128.90 572.40,128.90 583.60,89.30 594.70,100.70 605.90,111.40 617.10,107.20 628.20,104.30 639.40,100.80 650.60,97.40 661.80,100.80 672.90,98.40 684.10,110.40 695.30,112.70 706.40,113.20 717.60,114.60" stroke-linejoin="round" stroke-width="1.5" stroke="#BE5915" fill="none" stroke-linecap="butt"></polyline></g><g id="markers"><circle cx="103.3" cy="273.8" r="1.8" fill="#BE5915"></circle><circle cx="114.5" cy="273.8" r="1.8" fill="#BE5915"></circle><circle cx="125.6" cy="273.8" r="1.8" fill="#BE5915"></circle><circle cx="136.8" cy="279.2" r="1.8" fill="#BE5915"></circle><circle cx="148" cy="282.3" r="1.8" fill="#BE5915"></circle><circle cx="159.1" cy="303.8" r="1.8" fill="#BE5915"></circle><circle cx="170.3" cy="311" r="1.8" fill="#BE5915"></circle><circle cx="181.5" cy="311.1" r="1.8" fill="#BE5915"></circle><circle cx="192.7" cy="306" r="1.8" fill="#BE5915"></circle><circle cx="203.8" cy="315.8" r="1.8" fill="#BE5915"></circle><circle cx="215" cy="310.3" r="1.8" fill="#BE5915"></circle><circle cx="226.2" cy="303.4" r="1.8" fill="#BE5915"></circle><circle cx="237.3" cy="306.2" r="1.8" fill="#BE5915"></circle><circle cx="248.5" cy="273.8" r="1.8" fill="#BE5915"></circle><circle cx="259.7" cy="273.8" r="1.8" fill="#BE5915"></circle><circle cx="270.8" cy="273.8" r="1.8" fill="#BE5915"></circle><circle cx="282" cy="261.8" r="1.8" fill="#BE5915"></circle><circle cx="293.2" cy="228.7" r="1.8" fill="#BE5915"></circle><circle cx="304.3" cy="207.8" r="1.8" fill="#BE5915"></circle><circle cx="315.5" cy="209.4" r="1.8" fill="#BE5915"></circle><circle cx="326.7" cy="206" r="1.8" fill="#BE5915"></circle><circle cx="337.9" cy="185.3" r="1.8" fill="#BE5915"></circle><circle cx="349" cy="188" r="1.8" fill="#BE5915"></circle><circle cx="360.2" cy="163.4" r="1.8" fill="#BE5915"></circle><circle cx="371.4" cy="135.1" r="1.8" fill="#BE5915"></circle><circle cx="382.5" cy="141.1" r="1.8" fill="#BE5915"></circle><circle cx="393.7" cy="145" r="1.8" fill="#BE5915"></circle><circle cx="404.9" cy="147.8" r="1.8" fill="#BE5915"></circle><circle cx="416" cy="142.6" r="1.8" fill="#BE5915"></circle><circle cx="427.2" cy="145" r="1.8" fill="#BE5915"></circle><circle cx="438.4" cy="147.1" r="1.8" fill="#BE5915"></circle><circle cx="449.5" cy="143" r="1.8" fill="#BE5915"></circle><circle cx="460.7" cy="147" r="1.8" fill="#BE5915"></circle><circle cx="471.9" cy="146.6" r="1.8" fill="#BE5915"></circle><circle cx="483" cy="141.1" r="1.8" fill="#BE5915"></circle><circle cx="494.2" cy="139.2" r="1.8" fill="#BE5915"></circle><circle cx="505.4" cy="139.1" r="1.8" fill="#BE5915"></circle><circle cx="516.6" cy="139.4" r="1.8" fill="#BE5915"></circle><circle cx="527.7" cy="139" r="1.8" fill="#BE5915"></circle><circle cx="538.9" cy="128.9" r="1.8" fill="#BE5915"></circle><circle cx="550.1" cy="128.9" r="1.8" fill="#BE5915"></circle><circle cx="561.2" cy="128.9" r="1.8" fill="#BE5915"></circle><circle cx="572.4" cy="128.9" r="1.8" fill="#BE5915"></circle><circle cx="583.6" cy="89.3" r="1.8" fill="#BE5915"></circle><circle cx="594.7" cy="100.7" r="1.8" fill="#BE5915"></circle><circle cx="605.9" cy="111.4" r="1.8" fill="#BE5915"></circle><circle cx="617.1" cy="107.2" r="1.8" fill="#BE5915"></circle><circle cx="628.2" cy="104.3" r="1.8" fill="#BE5915"></circle><circle cx="639.4" cy="100.8" r="1.8" fill="#BE5915"></circle><circle cx="650.6" cy="97.4" r="1.8" fill="#BE5915"></circle><circle cx="661.8" cy="100.8" r="1.8" fill="#BE5915"></circle><circle cx="672.9" cy="98.4" r="1.8" fill="#BE5915"></circle><circle cx="684.1" cy="110.4" r="1.8" fill="#BE5915"></circle><circle cx="695.3" cy="112.7" r="1.8" fill="#BE5915"></circle><circle cx="706.4" cy="113.2" r="1.8" fill="#BE5915"></circle><circle cx="717.6" cy="114.6" r="1.8" fill="#BE5915"></circle></g></g><g id="line__United-States"><path id="outline" fill="none" stroke-linecap="butt" stroke-linejoin="round" stroke="#fff" stroke-width="2.5" d="M47.5 332.9L58.6 350.4L69.8 323.3L81 352.5L92.1 372.9L103.3 340.3L114.5 354L125.6 354.6L136.8 345.5L148 353.1L159.1 353.8L170.3 342L181.5 354.9L192.7 338L203.8 359.6L215 358.5L226.2 343.2L237.3 343.4L248.5 317.6L259.7 323.8L270.8 323.1L282 323.7L293.2 334.7L304.3 323.1L315.5 314.1L326.7 309.7L337.9 305.7L349 325.9L360.2 323.9L371.4 307.1L382.5 276.7L393.7 317.9L404.9 336.3L416 303.2L427.2 297.8L438.4 300.6L449.5 290.4L460.7 302.4L471.9 276.9L483 294.3L494.2 304.9L505.4 279.7L516.6 290.3L527.7 320.1L538.9 280.1L550.1 303.7L561.2 281.7L572.4 276.1L583.6 281.1L594.7 282.3L605.9 285.5L617.1 258.8L628.2 261.9L639.4 278.2L650.6 277.3L661.8 265.4L672.9 234.2L684.1 225.2L695.3 276.8L706.4 248L717.6 285.9"></path><g id="polyline"><polyline id="polyline" points="47.50,332.90 58.60,350.40 69.80,323.30 81.00,352.50 92.10,372.90 103.30,340.30 114.50,354.00 125.60,354.60 136.80,345.50 148.00,353.10 159.10,353.80 170.30,342.00 181.50,354.90 192.70,338.00 203.80,359.60 215.00,358.50 226.20,343.20 237.30,343.40 248.50,317.60 259.70,323.80 270.80,323.10 282.00,323.70 293.20,334.70 304.30,323.10 315.50,314.10 326.70,309.70 337.90,305.70 349.00,325.90 360.20,323.90 371.40,307.10 382.50,276.70 393.70,317.90 404.90,336.30 416.00,303.20 427.20,297.80 438.40,300.60 449.50,290.40 460.70,302.40 471.90,276.90 483.00,294.30 494.20,304.90 505.40,279.70 516.60,290.30 527.70,320.10 538.90,280.10 550.10,303.70 561.20,281.70 572.40,276.10 583.60,281.10 594.70,282.30 605.90,285.50 617.10,258.80 628.20,261.90 639.40,278.20 650.60,277.30 661.80,265.40 672.90,234.20 684.10,225.20 695.30,276.80 706.40,248.00 717.60,285.90" stroke-linejoin="round" stroke-width="1.5" stroke="#2C8465" fill="none" stroke-linecap="butt"></polyline></g><g id="markers"><circle cx="47.5" cy="332.9" r="1.8" fill="#2C8465"></circle><circle cx="58.6" cy="350.4" r="1.8" fill="#2C8465"></circle><circle cx="69.8" cy="323.3" r="1.8" fill="#2C8465"></circle><circle cx="81" cy="352.5" r="1.8" fill="#2C8465"></circle><circle cx="92.1" cy="372.9" r="1.8" fill="#2C8465"></circle><circle cx="103.3" cy="340.3" r="1.8" fill="#2C8465"></circle><circle cx="114.5" cy="354" r="1.8" fill="#2C8465"></circle><circle cx="125.6" cy="354.6" r="1.8" fill="#2C8465"></circle><circle cx="136.8" cy="345.5" r="1.8" fill="#2C8465"></circle><circle cx="148" cy="353.1" r="1.8" fill="#2C8465"></circle><circle cx="159.1" cy="353.8" r="1.8" fill="#2C8465"></circle><circle cx="170.3" cy="342" r="1.8" fill="#2C8465"></circle><circle cx="181.5" cy="354.9" r="1.8" fill="#2C8465"></circle><circle cx="192.7" cy="338" r="1.8" fill="#2C8465"></circle><circle cx="203.8" cy="359.6" r="1.8" fill="#2C8465"></circle><circle cx="215" cy="358.5" r="1.8" fill="#2C8465"></circle><circle cx="226.2" cy="343.2" r="1.8" fill="#2C8465"></circle><circle cx="237.3" cy="343.4" r="1.8" fill="#2C8465"></circle><circle cx="248.5" cy="317.6" r="1.8" fill="#2C8465"></circle><circle cx="259.7" cy="323.8" r="1.8" fill="#2C8465"></circle><circle cx="270.8" cy="323.1" r="1.8" fill="#2C8465"></circle><circle cx="282" cy="323.7" r="1.8" fill="#2C8465"></circle><circle cx="293.2" cy="334.7" r="1.8" fill="#2C8465"></circle><circle cx="304.3" cy="323.1" r="1.8" fill="#2C8465"></circle><circle cx="315.5" cy="314.1" r="1.8" fill="#2C8465"></circle><circle cx="326.7" cy="309.7" r="1.8" fill="#2C8465"></circle><circle cx="337.9" cy="305.7" r="1.8" fill="#2C8465"></circle><circle cx="349" cy="325.9" r="1.8" fill="#2C8465"></circle><circle cx="360.2" cy="323.9" r="1.8" fill="#2C8465"></circle><circle cx="371.4" cy="307.1" r="1.8" fill="#2C8465"></circle><circle cx="382.5" cy="276.7" r="1.8" fill="#2C8465"></circle><circle cx="393.7" cy="317.9" r="1.8" fill="#2C8465"></circle><circle cx="404.9" cy="336.3" r="1.8" fill="#2C8465"></circle><circle cx="416" cy="303.2" r="1.8" fill="#2C8465"></circle><circle cx="427.2" cy="297.8" r="1.8" fill="#2C8465"></circle><circle cx="438.4" cy="300.6" r="1.8" fill="#2C8465"></circle><circle cx="449.5" cy="290.4" r="1.8" fill="#2C8465"></circle><circle cx="460.7" cy="302.4" r="1.8" fill="#2C8465"></circle><circle cx="471.9" cy="276.9" r="1.8" fill="#2C8465"></circle><circle cx="483" cy="294.3" r="1.8" fill="#2C8465"></circle><circle cx="494.2" cy="304.9" r="1.8" fill="#2C8465"></circle><circle cx="505.4" cy="279.7" r="1.8" fill="#2C8465"></circle><circle cx="516.6" cy="290.3" r="1.8" fill="#2C8465"></circle><circle cx="527.7" cy="320.1" r="1.8" fill="#2C8465"></circle><circle cx="538.9" cy="280.1" r="1.8" fill="#2C8465"></circle><circle cx="550.1" cy="303.7" r="1.8" fill="#2C8465"></circle><circle cx="561.2" cy="281.7" r="1.8" fill="#2C8465"></circle><circle cx="572.4" cy="276.1" r="1.8" fill="#2C8465"></circle><circle cx="583.6" cy="281.1" r="1.8" fill="#2C8465"></circle><circle cx="594.7" cy="282.3" r="1.8" fill="#2C8465"></circle><circle cx="605.9" cy="285.5" r="1.8" fill="#2C8465"></circle><circle cx="617.1" cy="258.8" r="1.8" fill="#2C8465"></circle><circle cx="628.2" cy="261.9" r="1.8" fill="#2C8465"></circle><circle cx="639.4" cy="278.2" r="1.8" fill="#2C8465"></circle><circle cx="650.6" cy="277.3" r="1.8" fill="#2C8465"></circle><circle cx="661.8" cy="265.4" r="1.8" fill="#2C8465"></circle><circle cx="672.9" cy="234.2" r="1.8" fill="#2C8465"></circle><circle cx="684.1" cy="225.2" r="1.8" fill="#2C8465"></circle><circle cx="695.3" cy="276.8" r="1.8" fill="#2C8465"></circle><circle cx="706.4" cy="248" r="1.8" fill="#2C8465"></circle><circle cx="717.6" cy="285.9" r="1.8" fill="#2C8465"></circle></g></g><g id="line__Brazil"><path id="outline" fill="none" stroke-linecap="butt" stroke-linejoin="round" stroke="#fff" stroke-width="2.5" d="M47.5 444.3L58.6 450.2L69.8 447.4L81 451.1L92.1 441.2L103.3 448.1L114.5 441.4L125.6 446.3L136.8 453.3L148 449.6L159.1 443.4L170.3 444.5L181.5 456L192.7 464.1L203.8 460.4L215 472.9L226.2 466.5L237.3 470.1L248.5 464.5L259.7 476.7L270.8 471.3L282 468.2L293.2 481.2L304.3 467.8L315.5 469.6L326.7 479.1L337.9 481.8L349 468.7L360.2 473.9L371.4 469.8L382.5 466.3L393.7 461.3L404.9 449.2L416 452L427.2 455.5L438.4 457.9L449.5 448.2L460.7 446.2L471.9 443.6L483 440.5L494.2 439.7L505.4 436L516.6 427.4L527.7 435.3L538.9 427.5L550.1 420.9L561.2 423.6L572.4 413.5L583.6 421.8L594.7 412.5L605.9 410.9L617.1 398.5L628.2 398.9L639.4 398.1L650.6 392.5L661.8 400.9L672.9 391.3L684.1 399L695.3 387.7L706.4 385.8L717.6 388.4"></path><g id="polyline"><polyline id="polyline" points="47.50,444.30 58.60,450.20 69.80,447.40 81.00,451.10 92.10,441.20 103.30,448.10 114.50,441.40 125.60,446.30 136.80,453.30 148.00,449.60 159.10,443.40 170.30,444.50 181.50,456.00 192.70,464.10 203.80,460.40 215.00,472.90 226.20,466.50 237.30,470.10 248.50,464.50 259.70,476.70 270.80,471.30 282.00,468.20 293.20,481.20 304.30,467.80 315.50,469.60 326.70,479.10 337.90,481.80 349.00,468.70 360.20,473.90 371.40,469.80 382.50,466.30 393.70,461.30 404.90,449.20 416.00,452.00 427.20,455.50 438.40,457.90 449.50,448.20 460.70,446.20 471.90,443.60 483.00,440.50 494.20,439.70 505.40,436.00 516.60,427.40 527.70,435.30 538.90,427.50 550.10,420.90 561.20,423.60 572.40,413.50 583.60,421.80 594.70,412.50 605.90,410.90 617.10,398.50 628.20,398.90 639.40,398.10 650.60,392.50 661.80,400.90 672.90,391.30 684.10,399.00 695.30,387.70 706.40,385.80 717.60,388.40" stroke-linejoin="round" stroke-width="1.5" stroke="#C15065" fill="none" stroke-linecap="butt"></polyline></g><g id="markers"><circle cx="47.5" cy="444.3" r="1.8" fill="#C15065"></circle><circle cx="58.6" cy="450.2" r="1.8" fill="#C15065"></circle><circle cx="69.8" cy="447.4" r="1.8" fill="#C15065"></circle><circle cx="81" cy="451.1" r="1.8" fill="#C15065"></circle><circle cx="92.1" cy="441.2" r="1.8" fill="#C15065"></circle><circle cx="103.3" cy="448.1" r="1.8" fill="#C15065"></circle><circle cx="114.5" cy="441.4" r="1.8" fill="#C15065"></circle><circle cx="125.6" cy="446.3" r="1.8" fill="#C15065"></circle><circle cx="136.8" cy="453.3" r="1.8" fill="#C15065"></circle><circle cx="148" cy="449.6" r="1.8" fill="#C15065"></circle><circle cx="159.1" cy="443.4" r="1.8" fill="#C15065"></circle><circle cx="170.3" cy="444.5" r="1.8" fill="#C15065"></circle><circle cx="181.5" cy="456" r="1.8" fill="#C15065"></circle><circle cx="192.7" cy="464.1" r="1.8" fill="#C15065"></circle><circle cx="203.8" cy="460.4" r="1.8" fill="#C15065"></circle><circle cx="215" cy="472.9" r="1.8" fill="#C15065"></circle><circle cx="226.2" cy="466.5" r="1.8" fill="#C15065"></circle><circle cx="237.3" cy="470.1" r="1.8" fill="#C15065"></circle><circle cx="248.5" cy="464.5" r="1.8" fill="#C15065"></circle><circle cx="259.7" cy="476.7" r="1.8" fill="#C15065"></circle><circle cx="270.8" cy="471.3" r="1.8" fill="#C15065"></circle><circle cx="282" cy="468.2" r="1.8" fill="#C15065"></circle><circle cx="293.2" cy="481.2" r="1.8" fill="#C15065"></circle><circle cx="304.3" cy="467.8" r="1.8" fill="#C15065"></circle><circle cx="315.5" cy="469.6" r="1.8" fill="#C15065"></circle><circle cx="326.7" cy="479.1" r="1.8" fill="#C15065"></circle><circle cx="337.9" cy="481.8" r="1.8" fill="#C15065"></circle><circle cx="349" cy="468.7" r="1.8" fill="#C15065"></circle><circle cx="360.2" cy="473.9" r="1.8" fill="#C15065"></circle><circle cx="371.4" cy="469.8" r="1.8" fill="#C15065"></circle><circle cx="382.5" cy="466.3" r="1.8" fill="#C15065"></circle><circle cx="393.7" cy="461.3" r="1.8" fill="#C15065"></circle><circle cx="404.9" cy="449.2" r="1.8" fill="#C15065"></circle><circle cx="416" cy="452" r="1.8" fill="#C15065"></circle><circle cx="427.2" cy="455.5" r="1.8" fill="#C15065"></circle><circle cx="438.4" cy="457.9" r="1.8" fill="#C15065"></circle><circle cx="449.5" cy="448.2" r="1.8" fill="#C15065"></circle><circle cx="460.7" cy="446.2" r="1.8" fill="#C15065"></circle><circle cx="471.9" cy="443.6" r="1.8" fill="#C15065"></circle><circle cx="483" cy="440.5" r="1.8" fill="#C15065"></circle><circle cx="494.2" cy="439.7" r="1.8" fill="#C15065"></circle><circle cx="505.4" cy="436" r="1.8" fill="#C15065"></circle><circle cx="516.6" cy="427.4" r="1.8" fill="#C15065"></circle><circle cx="527.7" cy="435.3" r="1.8" fill="#C15065"></circle><circle cx="538.9" cy="427.5" r="1.8" fill="#C15065"></circle><circle cx="550.1" cy="420.9" r="1.8" fill="#C15065"></circle><circle cx="561.2" cy="423.6" r="1.8" fill="#C15065"></circle><circle cx="572.4" cy="413.5" r="1.8" fill="#C15065"></circle><circle cx="583.6" cy="421.8" r="1.8" fill="#C15065"></circle><circle cx="594.7" cy="412.5" r="1.8" fill="#C15065"></circle><circle cx="605.9" cy="410.9" r="1.8" fill="#C15065"></circle><circle cx="617.1" cy="398.5" r="1.8" fill="#C15065"></circle><circle cx="628.2" cy="398.9" r="1.8" fill="#C15065"></circle><circle cx="639.4" cy="398.1" r="1.8" fill="#C15065"></circle><circle cx="650.6" cy="392.5" r="1.8" fill="#C15065"></circle><circle cx="661.8" cy="400.9" r="1.8" fill="#C15065"></circle><circle cx="672.9" cy="391.3" r="1.8" fill="#C15065"></circle><circle cx="684.1" cy="399" r="1.8" fill="#C15065"></circle><circle cx="695.3" cy="387.7" r="1.8" fill="#C15065"></circle><circle cx="706.4" cy="385.8" r="1.8" fill="#C15065"></circle><circle cx="717.6" cy="388.4" r="1.8" fill="#C15065"></circle></g></g></g></g></g></g><g id="footer" class="SourcesFooter" style="fill:#5b5b5b"><g id="sources" class="markdown-text-wrap"><text x="16.0" y="580.9" style="font-size:13.5px;line-height:1.2"><tspan x="16" y="580.9"><tspan style="font-weight:700">Data source:</tspan> Food and Agriculture Organization of the United Nations</tspan></text></g><text id="origin-url" font-size="13.50" x="591.4" y="580.9"><tspan x="591.405" y="580.895"><a target="_blank" style="fill: #5b5b5b;" href="https://ourworldindata.org/crop-yields">OurWorldInData.org/crop-yields</a> | <a target="_blank" style="fill: #5b5b5b;" href="https://creativecommons.org/licenses/by/4.0/">CC BY</a></tspan></text></g></svg>