<svg xmlns="http://www.w3.org/2000/svg" version="1.1" style="font-family:Lato, &#x27;Helvetica Neue&#x27;, Helvetica, Arial, &#x27;Liberation Sans&#x27;, sans-serif;font-size:18px;background-color:#ffffff;text-rendering:geometricPrecision;-webkit-font-smoothing:antialiased" width="850" height="600" viewBox="0 0 850 600"><defs><style>@import url(https://ourworldindata.org/fonts.css)</style></defs><defs><pattern id="noDataPattern" patternUnits="userSpaceOnUse" width="4" height="4" patternTransform="rotate(-45 2 2)"><path d="M -1,2 l 6,0" stroke="#ccc" stroke-width="0.7"></path></pattern></defs><rect class="background-fill" fill="#ffffff" width="850" height="600"></rect><g id="header" class="HeaderView"><g id="logo" transform="translate(769, 16) scale(1)"><svg className="owidLogo" xmlns="http://www.w3.org/2000/svg" width="65" height="36" viewBox="0 0 65 36"  fill="none"><path fill="#002147" d="M0 0h64.8v36H0z"/><path fill="#CE261E" d="M0 33.3h64.8V36H0z"/><path fill="#fff" d="M13.796 10.575c0 .636-.106 1.226-.318 1.77a4.193 4.193 0 0 1-.894 1.404 4.084 4.084 0 0 1-1.386.93c-.54.22-1.138.33-1.794.33-.656 0-1.256-.11-1.8-.33a4.149 4.149 0 0 1-1.392-.93 4.193 4.193 0 0 1-.894-1.404A4.833 4.833 0 0 1 5 10.575c0-.636.106-1.224.318-1.764a4.18 4.18 0 0 1 .894-1.41 4.076 4.076 0 0 1 1.392-.924 4.684 4.684 0 0 1 1.8-.336c.656 0 1.254.112 1.794.336.54.224 1.002.534 1.386.93.384.392.682.86.894 1.404.212.54.318 1.128.318 1.764Zm-1.656 0c0-.476-.064-.902-.192-1.278a2.671 2.671 0 0 0-.54-.966 2.332 2.332 0 0 0-.864-.606 2.94 2.94 0 0 0-1.14-.21c-.424 0-.806.07-1.146.21-.34.14-.63.342-.87.606a2.742 2.742 0 0 0-.546.966 3.955 3.955 0 0 0-.192 1.278c0 .476.064.904.192 1.284.128.376.31.696.546.96.24.26.53.46.87.6.34.14.722.21 1.146.21.424 0 .804-.07 1.14-.21.34-.14.628-.34.864-.6.236-.264.416-.584.54-.96a4.01 4.01 0 0 0 .192-1.284ZM16.104 8.757v3.912c0 .376.086.668.258.876.176.204.438.306.786.306.256 0 .496-.056.72-.168a2.58 2.58 0 0 0 .636-.474V8.757h1.482v6.156h-.906c-.192 0-.318-.09-.378-.27l-.102-.492a4.65 4.65 0 0 1-.396.354 2.577 2.577 0 0 1-.438.27 2.35 2.35 0 0 1-.498.168 2.345 2.345 0 0 1-.57.066c-.336 0-.634-.056-.894-.168a1.821 1.821 0 0 1-.648-.486 2.157 2.157 0 0 1-.402-.738 3.233 3.233 0 0 1-.132-.948V8.757h1.482ZM21.328 14.913V8.757h.87c.152 0 .258.028.318.084.06.056.1.152.12.288l.09.744c.22-.38.478-.68.774-.9.296-.22.628-.33.996-.33.304 0 .556.07.756.21l-.192 1.11c-.012.072-.038.124-.078.156a.278.278 0 0 1-.162.042 1.01 1.01 0 0 1-.246-.042 1.646 1.646 0 0 0-.414-.042c-.308 0-.572.086-.792.258-.22.168-.406.416-.558.744v3.834h-1.482ZM27.347 6.237h1.356a.57.57 0 0 1 .348.102c.096.064.16.152.192.264l1.476 5.19c.036.128.068.268.096.42.032.148.062.306.09.474a5.968 5.968 0 0 1 .228-.894l1.704-5.19a.575.575 0 0 1 .186-.252.543.543 0 0 1 .348-.114h.474a.57.57 0 0 1 .348.102.497.497 0 0 1 .192.264l1.692 5.19c.088.256.164.54.228.852.028-.156.056-.306.084-.45.032-.144.064-.278.096-.402l1.476-5.19c.028-.1.09-.186.186-.258a.563.563 0 0 1 .348-.108h1.266l-2.694 8.676h-1.458l-1.896-5.928-.078-.246a9.504 9.504 0 0 1-.072-.282c-.024.1-.05.194-.078.282-.024.088-.048.17-.072.246l-1.914 5.928H30.04l-2.694-8.676ZM42.771 8.661c.46 0 .876.074 1.248.222.376.148.696.358.96.63s.468.604.612.996c.144.392.216.83.216 1.314 0 .488-.072.928-.216 1.32a2.85 2.85 0 0 1-.612 1.002 2.653 2.653 0 0 1-.96.636 3.35 3.35 0 0 1-1.248.222c-.46 0-.878-.074-1.254-.222a2.712 2.712 0 0 1-.966-.636 2.922 2.922 0 0 1-.618-1.002 3.807 3.807 0 0 1-.216-1.32c0-.484.072-.922.216-1.314.148-.392.354-.724.618-.996.268-.272.59-.482.966-.63a3.397 3.397 0 0 1 1.254-.222Zm0 5.202c.512 0 .89-.172 1.134-.516.248-.344.372-.848.372-1.512s-.124-1.17-.372-1.518c-.244-.348-.622-.522-1.134-.522-.52 0-.904.176-1.152.528-.248.348-.372.852-.372 1.512s.124 1.164.372 1.512c.248.344.632.516 1.152.516ZM46.723 14.913V8.757h.87c.152 0 .258.028.318.084.06.056.1.152.12.288l.09.744c.22-.38.478-.68.774-.9.296-.22.628-.33.996-.33.304 0 .556.07.756.21l-.192 1.11c-.012.072-.038.124-.078.156a.278.278 0 0 1-.162.042 1.01 1.01 0 0 1-.246-.042 1.646 1.646 0 0 0-.414-.042c-.308 0-.572.086-.792.258-.22.168-.406.416-.558.744v3.834h-1.482ZM52.96 5.997v8.916h-1.482V5.997h1.482ZM58.732 14.913c-.192 0-.318-.09-.378-.27l-.12-.594a3.68 3.68 0 0 1-.402.39c-.14.116-.292.216-.456.3-.16.084-.334.148-.522.192a2.372 2.372 0 0 1-.6.072c-.336 0-.644-.07-.924-.21a2.098 2.098 0 0 1-.726-.606 3.033 3.033 0 0 1-.468-.99 5.072 5.072 0 0 1-.162-1.344c0-.456.062-.88.186-1.272s.302-.732.534-1.02c.232-.288.51-.512.834-.672a2.384 2.384 0 0 1 1.092-.246 2.103 2.103 0 0 1 1.536.606V5.997h1.482v8.916h-.906Zm-1.974-1.086c.308 0 .57-.064.786-.192.216-.128.42-.31.612-.546v-2.76a1.452 1.452 0 0 0-.552-.432 1.597 1.597 0 0 0-.636-.126c-.224 0-.428.042-.612.126a1.21 1.21 0 0 0-.462.384c-.124.168-.22.384-.288.648-.068.26-.102.568-.102.924 0 .36.028.666.084.918.06.248.144.452.252.612.108.156.24.27.396.342.156.068.33.102.522.102ZM16.331 20.757v6.156H14.85v-6.156h1.481Zm.223-1.794a.844.844 0 0 1-.078.36.963.963 0 0 1-.21.294.995.995 0 0 1-.3.204.963.963 0 0 1-.372.072.948.948 0 0 1-.367-.072 1.018 1.018 0 0 1-.498-.498.963.963 0 0 1 0-.732.995.995 0 0 1 .205-.3.929.929 0 0 1 .293-.198.899.899 0 0 1 .738 0 .912.912 0 0 1 .3.198.943.943 0 0 1 .288.672ZM17.771 26.913v-6.156h.906c.192 0 .318.09.378.27l.102.486a2.934 2.934 0 0 1 .828-.618c.156-.076.322-.134.498-.174.176-.04.368-.06.576-.06.336 0 .634.058.894.174.26.112.476.272.648.48.176.204.308.45.396.738.092.284.138.598.138.942v3.918h-1.482v-3.918c0-.376-.088-.666-.264-.87-.172-.208-.432-.312-.78-.312-.256 0-.496.058-.72.174a2.58 2.58 0 0 0-.636.474v4.452h-1.482ZM34.22 22.575c0 .636-.106 1.22-.318 1.752-.212.532-.51.99-.894 1.374a4 4 0 0 1-1.386.894 4.87 4.87 0 0 1-1.794.318h-3.312v-8.676h3.312a4.79 4.79 0 0 1 1.794.324 4 4 0 0 1 1.386.894c.384.38.682.836.894 1.368.212.532.318 1.116.318 1.752Zm-1.65 0c0-.476-.064-.902-.192-1.278a2.68 2.68 0 0 0-.546-.96 2.332 2.332 0 0 0-.864-.606 2.94 2.94 0 0 0-1.14-.21h-1.686v6.108h1.686c.424 0 .804-.07 1.14-.21.34-.14.628-.34.864-.6a2.75 2.75 0 0 0 .546-.96 4.01 4.01 0 0 0 .192-1.284ZM39.98 26.913h-.665c-.14 0-.25-.02-.33-.06-.08-.044-.14-.13-.18-.258l-.132-.438c-.156.14-.31.264-.462.372a2.804 2.804 0 0 1-.462.264c-.16.072-.33.126-.51.162-.18.036-.38.054-.6.054-.26 0-.5-.034-.72-.102a1.618 1.618 0 0 1-.57-.318 1.448 1.448 0 0 1-.366-.522 1.852 1.852 0 0 1-.132-.726c0-.232.06-.46.18-.684.124-.228.328-.432.612-.612.284-.184.662-.336 1.134-.456.472-.12 1.058-.188 1.758-.204v-.36c0-.412-.088-.716-.264-.912-.172-.2-.424-.3-.756-.3a1.837 1.837 0 0 0-1.02.276c-.116.068-.224.13-.324.186a.664.664 0 0 1-.33.084.429.429 0 0 1-.258-.078.614.614 0 0 1-.174-.192l-.27-.474c.708-.648 1.562-.972 2.562-.972.36 0 .68.06.96.18.284.116.524.28.72.492.196.208.344.458.444.75.104.292.156.612.156.96v3.888Zm-2.88-.924c.153 0 .293-.014.42-.042.129-.028.249-.07.36-.126.117-.056.227-.124.33-.204.109-.084.217-.182.325-.294v-1.038c-.432.02-.794.058-1.086.114-.288.052-.52.12-.696.204a.923.923 0 0 0-.378.294.664.664 0 0 0-.108.366c0 .26.076.446.228.558.156.112.358.168.606.168ZM43.22 27.01c-.532 0-.942-.15-1.23-.45-.288-.305-.432-.723-.432-1.255v-3.438h-.624a.31.31 0 0 1-.21-.078c-.056-.052-.084-.13-.084-.234v-.588l.99-.162.312-1.68a.302.302 0 0 1 .108-.186.365.365 0 0 1 .222-.066h.768v1.938h1.62v1.056h-1.62v3.336c0 .192.048.342.144.45a.488.488 0 0 0 .384.162c.092 0 .168-.01.228-.03.064-.024.118-.048.162-.072.048-.024.09-.046.126-.066a.194.194 0 0 1 .108-.036.16.16 0 0 1 .108.036c.028.02.058.052.09.096l.444.72c-.216.18-.464.316-.744.408a2.77 2.77 0 0 1-.87.138ZM50.423 26.913h-.666c-.14 0-.25-.02-.33-.06-.08-.044-.14-.13-.18-.258l-.132-.438c-.156.14-.31.264-.462.372a2.804 2.804 0 0 1-.462.264c-.16.072-.33.126-.51.162-.18.036-.38.054-.6.054-.26 0-.5-.034-.72-.102a1.618 1.618 0 0 1-.57-.318 1.448 1.448 0 0 1-.366-.522 1.852 1.852 0 0 1-.132-.726c0-.232.06-.46.18-.684.124-.228.328-.432.612-.612.284-.184.662-.336 1.134-.456.472-.12 1.058-.188 1.758-.204v-.36c0-.412-.088-.716-.264-.912-.172-.2-.424-.3-.756-.3a1.837 1.837 0 0 0-1.02.276c-.116.068-.224.13-.324.186a.664.664 0 0 1-.33.084.429.429 0 0 1-.258-.078.614.614 0 0 1-.174-.192l-.27-.474c.708-.648 1.562-.972 2.562-.972.36 0 .68.06.96.18.284.116.524.28.72.492.196.208.344.458.444.75.104.292.156.612.156.96v3.888Zm-2.88-.924c.152 0 .292-.014.42-.042.128-.028.248-.07.36-.126.116-.056.226-.124.33-.204.108-.084.216-.182.324-.294v-1.038c-.432.02-.794.058-1.086.114-.288.052-.52.12-.696.204a.923.923 0 0 0-.378.294.664.664 0 0 0-.108.366c0 .26.076.446.228.558.156.112.358.168.606.168Z"/></svg></g><a id="title" href="https://ourworldindata.org/grapher/biomass-fish-stocks-region" style="font-family:&#x27;Playfair Display&#x27;, Georgia, &#x27;Times New Roman&#x27;, &#x27;Liberation Serif&#x27;, serif" target="_blank" rel="noopener"><text font-size="24.75" font-weight="600" x="16.0" y="40.0" fill="#5b5b5b"><tspan x="16" y="40.0075">Health of fish stocks by region</tspan></text></a><g id="subtitle" class="markdown-text-wrap"><text x="16.0" y="63.9" style="font-size:14.625px;line-height:1.2" fill="#5b5b5b"><tspan x="16" y="63.9">Fish stocks are measured by their biomass: the number of individuals multiplied by their mass. Here the biomass</tspan><tspan x="16" y="81.4">of a fish stock is divided by the biomass at its <tspan class="dod-span" data-id="msy">maximum sustainable yield</tspan>. A value of one maximizes fish catch</tspan><tspan x="16" y="99.0">without decreasing fish populations.</tspan></text></g></g><g id="chart-area" style="pointer-events:none"><text x="36.35625" y="129.31875" fill="#1d3d63" font-size="14.625" style="font-weight:700">Australia<title>Australia</title></text><g class="LineChart"><defs><clipPath id="boundsClip-1"><rect x="26.356250000000003" y="126.63125" width="295.35625" height="199"></rect></clipPath></defs><rect x="16.000000000000004" y="136.63125" width="275.35625" height="179" fill="none"></rect><g id="horizontal-axis" class="HorizontalAxis"><g id="tick-marks"><line id="1970" x1="36.4" y1="297.1625" x2="36.4" y2="302.6625" stroke="#999" stroke-width="1"></line><line id="2018" x1="290.4" y1="297.1625" x2="290.4" y2="302.6625" stroke="#999" stroke-width="1"></line><line id="1980" x1="89.3" y1="297.1625" x2="89.3" y2="302.6625" stroke="#999" stroke-width="1"></line><line id="1990" x1="142.2" y1="297.1625" x2="142.2" y2="302.6625" stroke="#999" stroke-width="1"></line><line id="2000" x1="195.1" y1="297.1625" x2="195.1" y2="302.6625" stroke="#999" stroke-width="1"></line></g><g id="tick-labels"><text x="36.35625" y="313.63125" fill="#5b5b5b" text-anchor="start" font-size="10.96875">1970</text><text x="290.35625" y="313.63125" fill="#5b5b5b" text-anchor="end" font-size="10.96875">2018</text><text x="89.3" y="313.63125" fill="#5b5b5b" text-anchor="middle" font-size="10.96875">1980</text><text x="142.2" y="313.63125" fill="#5b5b5b" text-anchor="middle" font-size="10.96875">1990</text><text x="195.1" y="313.63125" fill="#5b5b5b" text-anchor="middle" font-size="10.96875">2000</text></g></g><g id="vertical-axis" class="VerticalAxis"><g id="tick-labels"><text x="31.36" y="297.7" dy=".32em" text-anchor="end" fill="#5b5b5b" font-size="10.96875">0</text><text x="31.36" y="268.7" dy=".32em" text-anchor="end" fill="#5b5b5b" font-size="10.96875">0.5</text><text x="31.36" y="239.8" dy=".32em" text-anchor="end" fill="#5b5b5b" font-size="10.96875">1</text><text x="31.36" y="210.9" dy=".32em" text-anchor="end" fill="#5b5b5b" font-size="10.96875">1.5</text><text x="31.36" y="181.9" dy=".32em" text-anchor="end" fill="#5b5b5b" font-size="10.96875">2</text><text x="31.36" y="153" dy=".32em" text-anchor="end" fill="#5b5b5b" font-size="10.96875">2.5</text></g></g><g id="horizontal-grid-lines" class="AxisGridLines horizontalLines"><line id="0" x1="36.36" y1="297.7" x2="290.36" y2="297.7" stroke="#999" stroke-width="1"></line><line id="0.5" x1="36.36" y1="268.7" x2="290.36" y2="268.7" stroke="#ddd" stroke-width="1" stroke-dasharray="2,1"></line><line id="1" x1="36.36" y1="239.8" x2="290.36" y2="239.8" stroke="#ddd" stroke-width="1" stroke-dasharray="2,1"></line><line id="1.5" x1="36.36" y1="210.9" x2="290.36" y2="210.9" stroke="#ddd" stroke-width="1" stroke-dasharray="2,1"></line><line id="2" x1="36.36" y1="181.9" x2="290.36" y2="181.9" stroke="#ddd" stroke-width="1" stroke-dasharray="2,1"></line><line id="2.5" x1="36.36" y1="153" x2="290.36" y2="153" stroke="#ddd" stroke-width="1" stroke-dasharray="2,1"></line></g><g clip-path="url(#boundsClip-1)"><g class="Lines"><rect x="36" y="143" width="254" height="155" fill="rgba(255,255,255,0)" opacity="0"></rect><g id="lines"><path fill="none" stroke-linecap="butt" stroke-linejoin="round" stroke="#ffffff" stroke-width="2.5" id="outline__" d="M36.4 164.9L41.6 174.6L46.9 177L52.2 151.5L57.5 181L62.8 177L68.1 177L73.4 172.1L78.7 175.3L84 177.9L89.3 142.6L94.6 156.2L99.9 163.1L105.1 172.9L110.4 182L115.7 185.7L121 158.9L126.3 166.7L131.6 151.9L136.9 156.3L142.2 169L147.5 171.6L152.8 171.6L158.1 203.8L163.4 207.5L168.6 206.2L173.9 196.2L179.2 213L184.5 223.9L189.8 227.2L195.1 219L200.4 215.6L205.7 209.7L211 204.3L216.3 208.1L221.6 215.4L226.9 216.2L232.1 224.2L237.4 211.9L242.7 217.4L248 216.9L253.3 229.4L258.6 233.9L263.9 219.7L269.2 219.6L274.5 196.6L279.8 183.7L285.1 163.1"></path><path fill="none" stroke-linecap="butt" stroke-linejoin="round" stroke="#4C6A9C" stroke-width="1.5" id="line__" d="M36.4 164.9L41.6 174.6L46.9 177L52.2 151.5L57.5 181L62.8 177L68.1 177L73.4 172.1L78.7 175.3L84 177.9L89.3 142.6L94.6 156.2L99.9 163.1L105.1 172.9L110.4 182L115.7 185.7L121 158.9L126.3 166.7L131.6 151.9L136.9 156.3L142.2 169L147.5 171.6L152.8 171.6L158.1 203.8L163.4 207.5L168.6 206.2L173.9 196.2L179.2 213L184.5 223.9L189.8 227.2L195.1 219L200.4 215.6L205.7 209.7L211 204.3L216.3 208.1L221.6 215.4L226.9 216.2L232.1 224.2L237.4 211.9L242.7 217.4L248 216.9L253.3 229.4L258.6 233.9L263.9 219.7L269.2 219.6L274.5 196.6L279.8 183.7L285.1 163.1"></path></g><g id="markers"></g></g></g></g><text x="306.35625" y="129.31875" fill="#1d3d63" font-size="14.625" style="font-weight:700">Indian Ocean tunas<title>Indian Ocean tunas</title></text><g class="LineChart"><defs><clipPath id="boundsClip-2"><rect x="296.35625" y="126.63125" width="275" height="199"></rect></clipPath></defs><rect x="306.35625" y="136.63125" width="255" height="179" fill="none"></rect><g id="horizontal-axis" class="HorizontalAxis"><g id="tick-marks"><line id="1970" x1="306.4" y1="297.1625" x2="306.4" y2="302.6625" stroke="#999" stroke-width="1"></line><line id="2018" x1="560.4" y1="297.1625" x2="560.4" y2="302.6625" stroke="#999" stroke-width="1"></line><line id="1980" x1="359.3" y1="297.1625" x2="359.3" y2="302.6625" stroke="#999" stroke-width="1"></line><line id="1990" x1="412.2" y1="297.1625" x2="412.2" y2="302.6625" stroke="#999" stroke-width="1"></line><line id="2000" x1="465.1" y1="297.1625" x2="465.1" y2="302.6625" stroke="#999" stroke-width="1"></line></g><g id="tick-labels"><text x="306.35625" y="313.63125" fill="#5b5b5b" text-anchor="start" font-size="10.96875">1970</text><text x="560.35625" y="313.63125" fill="#5b5b5b" text-anchor="end" font-size="10.96875">2018</text><text x="359.3" y="313.63125" fill="#5b5b5b" text-anchor="middle" font-size="10.96875">1980</text><text x="412.2" y="313.63125" fill="#5b5b5b" text-anchor="middle" font-size="10.96875">1990</text><text x="465.1" y="313.63125" fill="#5b5b5b" text-anchor="middle" font-size="10.96875">2000</text></g></g><g id="horizontal-grid-lines" class="AxisGridLines horizontalLines"><line id="0" x1="306.36" y1="297.7" x2="560.36" y2="297.7" stroke="#999" stroke-width="1"></line><line id="0.5" x1="306.36" y1="268.7" x2="560.36" y2="268.7" stroke="#ddd" stroke-width="1" stroke-dasharray="2,1"></line><line id="1" x1="306.36" y1="239.8" x2="560.36" y2="239.8" stroke="#ddd" stroke-width="1" stroke-dasharray="2,1"></line><line id="1.5" x1="306.36" y1="210.9" x2="560.36" y2="210.9" stroke="#ddd" stroke-width="1" stroke-dasharray="2,1"></line><line id="2" x1="306.36" y1="181.9" x2="560.36" y2="181.9" stroke="#ddd" stroke-width="1" stroke-dasharray="2,1"></line><line id="2.5" x1="306.36" y1="153" x2="560.36" y2="153" stroke="#ddd" stroke-width="1" stroke-dasharray="2,1"></line></g><g clip-path="url(#boundsClip-2)"><g class="Lines"><rect x="306" y="143" width="254" height="155" fill="rgba(255,255,255,0)" opacity="0"></rect><g id="lines"><path fill="none" stroke-linecap="butt" stroke-linejoin="round" stroke="#ffffff" stroke-width="2.5" id="outline__" d="M306.4 173L311.6 173.8L316.9 173.3L322.2 173L327.5 172.4L332.8 158.8L338.1 158.8L343.4 158.8L348.7 158.8L354 158.8L359.3 169.2L364.6 158.8L369.9 158.8L375.1 158.8L380.4 150.1L385.7 153L391 172.1L396.3 168.6L401.6 169.8L406.9 179L412.2 176.1L417.5 171.5L422.8 183.7L428.1 187.7L433.4 196.4L438.6 201L443.9 205.7L449.2 213.2L454.5 206.8L459.8 206.8L465.1 207.4L470.4 211.4L475.7 212.6L481 212.6L486.3 214.3L491.6 217.8L496.9 219.5L502.1 230L507.4 234L512.7 230L518 235.2L523.3 231.7L528.6 224.8L533.9 243L539.2 245.1L544.5 245L549.8 257.7"></path><path fill="none" stroke-linecap="butt" stroke-linejoin="round" stroke="#4C6A9C" stroke-width="1.5" id="line__" d="M306.4 173L311.6 173.8L316.9 173.3L322.2 173L327.5 172.4L332.8 158.8L338.1 158.8L343.4 158.8L348.7 158.8L354 158.8L359.3 169.2L364.6 158.8L369.9 158.8L375.1 158.8L380.4 150.1L385.7 153L391 172.1L396.3 168.6L401.6 169.8L406.9 179L412.2 176.1L417.5 171.5L422.8 183.7L428.1 187.7L433.4 196.4L438.6 201L443.9 205.7L449.2 213.2L454.5 206.8L459.8 206.8L465.1 207.4L470.4 211.4L475.7 212.6L481 212.6L486.3 214.3L491.6 217.8L496.9 219.5L502.1 230L507.4 234L512.7 230L518 235.2L523.3 231.7L528.6 224.8L533.9 243L539.2 245.1L544.5 245L549.8 257.7"></path></g><g id="markers"></g></g></g></g><text x="576.35625" y="129.31875" fill="#1d3d63" font-size="14.625" style="font-weight:700">Pacific Ocean tunas<title>Pacific Ocean tunas</title></text><g class="LineChart"><defs><clipPath id="boundsClip-3"><rect x="566.35625" y="126.63125" width="275" height="199"></rect></clipPath></defs><rect x="576.35625" y="136.63125" width="255" height="179" fill="none"></rect><g id="horizontal-axis" class="HorizontalAxis"><g id="tick-marks"><line id="1970" x1="576.4" y1="297.1625" x2="576.4" y2="302.6625" stroke="#999" stroke-width="1"></line><line id="2018" x1="830.4" y1="297.1625" x2="830.4" y2="302.6625" stroke="#999" stroke-width="1"></line><line id="1980" x1="629.3" y1="297.1625" x2="629.3" y2="302.6625" stroke="#999" stroke-width="1"></line><line id="1990" x1="682.2" y1="297.1625" x2="682.2" y2="302.6625" stroke="#999" stroke-width="1"></line><line id="2000" x1="735.1" y1="297.1625" x2="735.1" y2="302.6625" stroke="#999" stroke-width="1"></line></g><g id="tick-labels"><text x="576.35625" y="313.63125" fill="#5b5b5b" text-anchor="start" font-size="10.96875">1970</text><text x="830.35625" y="313.63125" fill="#5b5b5b" text-anchor="end" font-size="10.96875">2018</text><text x="629.3" y="313.63125" fill="#5b5b5b" text-anchor="middle" font-size="10.96875">1980</text><text x="682.2" y="313.63125" fill="#5b5b5b" text-anchor="middle" font-size="10.96875">1990</text><text x="735.1" y="313.63125" fill="#5b5b5b" text-anchor="middle" font-size="10.96875">2000</text></g></g><g id="horizontal-grid-lines" class="AxisGridLines horizontalLines"><line id="0" x1="576.36" y1="297.7" x2="830.36" y2="297.7" stroke="#999" stroke-width="1"></line><line id="0.5" x1="576.36" y1="268.7" x2="830.36" y2="268.7" stroke="#ddd" stroke-width="1" stroke-dasharray="2,1"></line><line id="1" x1="576.36" y1="239.8" x2="830.36" y2="239.8" stroke="#ddd" stroke-width="1" stroke-dasharray="2,1"></line><line id="1.5" x1="576.36" y1="210.9" x2="830.36" y2="210.9" stroke="#ddd" stroke-width="1" stroke-dasharray="2,1"></line><line id="2" x1="576.36" y1="181.9" x2="830.36" y2="181.9" stroke="#ddd" stroke-width="1" stroke-dasharray="2,1"></line><line id="2.5" x1="576.36" y1="153" x2="830.36" y2="153" stroke="#ddd" stroke-width="1" stroke-dasharray="2,1"></line></g><g clip-path="url(#boundsClip-3)"><g class="Lines"><rect x="576" y="143" width="254" height="155" fill="rgba(255,255,255,0)" opacity="0"></rect><g id="lines"><path fill="none" stroke-linecap="butt" stroke-linejoin="round" stroke="#ffffff" stroke-width="2.5" id="outline__" d="M576.4 177.3L581.6 163.7L586.9 185.4L592.2 188.3L597.5 195.8L602.8 193.2L608.1 200.7L613.4 201.6L618.7 202.5L624 206.8L629.3 206.2L634.6 204.5L639.9 209.1L645.1 196.4L650.4 200.4L655.7 195L661 187.7L666.3 181.4L671.6 181.6L676.9 196.4L682.2 199.6L687.5 205.4L692.8 210.3L698.1 207.4L703.4 212.6L708.6 217.2L713.9 206.2L719.2 218.4L724.5 214.9L729.8 210.3L735.1 217.2L740.4 211.4L745.7 215.5L751 220.1L756.3 227.6L761.6 227.1L766.9 224.8L772.1 225.3L777.4 224.2L782.7 215.5L788 225.3L793.3 218.4L798.6 218.7L803.9 212L809.2 211.7L814.5 214.3L819.8 236.4"></path><path fill="none" stroke-linecap="butt" stroke-linejoin="round" stroke="#4C6A9C" stroke-width="1.5" id="line__" d="M576.4 177.3L581.6 163.7L586.9 185.4L592.2 188.3L597.5 195.8L602.8 193.2L608.1 200.7L613.4 201.6L618.7 202.5L624 206.8L629.3 206.2L634.6 204.5L639.9 209.1L645.1 196.4L650.4 200.4L655.7 195L661 187.7L666.3 181.4L671.6 181.6L676.9 196.4L682.2 199.6L687.5 205.4L692.8 210.3L698.1 207.4L703.4 212.6L708.6 217.2L713.9 206.2L719.2 218.4L724.5 214.9L729.8 210.3L735.1 217.2L740.4 211.4L745.7 215.5L751 220.1L756.3 227.6L761.6 227.1L766.9 224.8L772.1 225.3L777.4 224.2L782.7 215.5L788 225.3L793.3 218.4L798.6 218.7L803.9 212L809.2 211.7L814.5 214.3L819.8 236.4"></path></g><g id="markers"></g></g></g></g><text x="36.35625" y="345.31875" fill="#1d3d63" font-size="14.625" style="font-weight:700">Canada East Coast<title>Canada East Coast</title></text><g class="LineChart"><defs><clipPath id="boundsClip-4"><rect x="26.356250000000003" y="342.63125" width="295.35625" height="199"></rect></clipPath></defs><rect x="16.000000000000004" y="352.63125" width="275.35625" height="179" fill="none"></rect><g id="horizontal-axis" class="HorizontalAxis"><g id="tick-marks"><line id="1970" x1="36.4" y1="513.1625" x2="36.4" y2="518.6625" stroke="#999" stroke-width="1"></line><line id="2018" x1="290.4" y1="513.1625" x2="290.4" y2="518.6625" stroke="#999" stroke-width="1"></line><line id="1980" x1="89.3" y1="513.1625" x2="89.3" y2="518.6625" stroke="#999" stroke-width="1"></line><line id="1990" x1="142.2" y1="513.1625" x2="142.2" y2="518.6625" stroke="#999" stroke-width="1"></line><line id="2000" x1="195.1" y1="513.1625" x2="195.1" y2="518.6625" stroke="#999" stroke-width="1"></line></g><g id="tick-labels"><text x="36.35625" y="529.63125" fill="#5b5b5b" text-anchor="start" font-size="10.96875">1970</text><text x="290.35625" y="529.63125" fill="#5b5b5b" text-anchor="end" font-size="10.96875">2018</text><text x="89.3" y="529.63125" fill="#5b5b5b" text-anchor="middle" font-size="10.96875">1980</text><text x="142.2" y="529.63125" fill="#5b5b5b" text-anchor="middle" font-size="10.96875">1990</text><text x="195.1" y="529.63125" fill="#5b5b5b" text-anchor="middle" font-size="10.96875">2000</text></g></g><g id="vertical-axis" class="VerticalAxis"><g id="tick-labels"><text x="31.36" y="513.7" dy=".32em" text-anchor="end" fill="#5b5b5b" font-size="10.96875">0</text><text x="31.36" y="484.7" dy=".32em" text-anchor="end" fill="#5b5b5b" font-size="10.96875">0.5</text><text x="31.36" y="455.8" dy=".32em" text-anchor="end" fill="#5b5b5b" font-size="10.96875">1</text><text x="31.36" y="426.9" dy=".32em" text-anchor="end" fill="#5b5b5b" font-size="10.96875">1.5</text><text x="31.36" y="397.9" dy=".32em" text-anchor="end" fill="#5b5b5b" font-size="10.96875">2</text><text x="31.36" y="369" dy=".32em" text-anchor="end" fill="#5b5b5b" font-size="10.96875">2.5</text></g></g><g id="horizontal-grid-lines" class="AxisGridLines horizontalLines"><line id="0" x1="36.36" y1="513.7" x2="290.36" y2="513.7" stroke="#999" stroke-width="1"></line><line id="0.5" x1="36.36" y1="484.7" x2="290.36" y2="484.7" stroke="#ddd" stroke-width="1" stroke-dasharray="2,1"></line><line id="1" x1="36.36" y1="455.8" x2="290.36" y2="455.8" stroke="#ddd" stroke-width="1" stroke-dasharray="2,1"></line><line id="1.5" x1="36.36" y1="426.9" x2="290.36" y2="426.9" stroke="#ddd" stroke-width="1" stroke-dasharray="2,1"></line><line id="2" x1="36.36" y1="397.9" x2="290.36" y2="397.9" stroke="#ddd" stroke-width="1" stroke-dasharray="2,1"></line><line id="2.5" x1="36.36" y1="369" x2="290.36" y2="369" stroke="#ddd" stroke-width="1" stroke-dasharray="2,1"></line></g><g clip-path="url(#boundsClip-4)"><g class="Lines"><rect x="36" y="359" width="254" height="155" fill="rgba(255,255,255,0)" opacity="0"></rect><g id="lines"><path fill="none" stroke-linecap="butt" stroke-linejoin="round" stroke="#ffffff" stroke-width="2.5" id="outline__" d="M36.4 447.1L41.6 440.4L46.9 447.4L52.2 452.3L57.5 456L62.8 453.8L68.1 456.8L73.4 455.8L78.7 446.1L84 452.5L89.3 448.4L94.6 447.7L99.9 448.9L105.1 443.3L110.4 447.8L115.7 447.1L121 446.3L126.3 447.9L131.6 456.7L136.9 462.4L142.2 460.1L147.5 472.3L152.8 471.6L158.1 473.6L163.4 483.9L168.6 482L173.9 480.9L179.2 479.6L184.5 482.2L189.8 476.4L195.1 471.5L200.4 475.2L205.7 475.4L211 483.5L216.3 474L221.6 481.8L226.9 476.1L232.1 464.3L237.4 466.8L242.7 471.3L248 462.5L253.3 449L258.6 444.7L263.9 452.3L269.2 455.7L274.5 488.2L279.8 501.3L285.1 500.8L290.4 498.6"></path><path fill="none" stroke-linecap="butt" stroke-linejoin="round" stroke="#4C6A9C" stroke-width="1.5" id="line__" d="M36.4 447.1L41.6 440.4L46.9 447.4L52.2 452.3L57.5 456L62.8 453.8L68.1 456.8L73.4 455.8L78.7 446.1L84 452.5L89.3 448.4L94.6 447.7L99.9 448.9L105.1 443.3L110.4 447.8L115.7 447.1L121 446.3L126.3 447.9L131.6 456.7L136.9 462.4L142.2 460.1L147.5 472.3L152.8 471.6L158.1 473.6L163.4 483.9L168.6 482L173.9 480.9L179.2 479.6L184.5 482.2L189.8 476.4L195.1 471.5L200.4 475.2L205.7 475.4L211 483.5L216.3 474L221.6 481.8L226.9 476.1L232.1 464.3L237.4 466.8L242.7 471.3L248 462.5L253.3 449L258.6 444.7L263.9 452.3L269.2 455.7L274.5 488.2L279.8 501.3L285.1 500.8L290.4 498.6"></path></g><g id="markers"></g></g></g></g><text x="306.35625" y="345.31875" fill="#1d3d63" font-size="14.625" style="font-weight:700">Japan<title>Japan</title></text><g class="LineChart"><defs><clipPath id="boundsClip-5"><rect x="296.35625" y="342.63125" width="275" height="199"></rect></clipPath></defs><rect x="306.35625" y="352.63125" width="255" height="179" fill="none"></rect><g id="horizontal-axis" class="HorizontalAxis"><g id="tick-marks"><line id="1970" x1="306.4" y1="513.1625" x2="306.4" y2="518.6625" stroke="#999" stroke-width="1"></line><line id="2018" x1="560.4" y1="513.1625" x2="560.4" y2="518.6625" stroke="#999" stroke-width="1"></line><line id="1980" x1="359.3" y1="513.1625" x2="359.3" y2="518.6625" stroke="#999" stroke-width="1"></line><line id="1990" x1="412.2" y1="513.1625" x2="412.2" y2="518.6625" stroke="#999" stroke-width="1"></line><line id="2000" x1="465.1" y1="513.1625" x2="465.1" y2="518.6625" stroke="#999" stroke-width="1"></line></g><g id="tick-labels"><text x="306.35625" y="529.63125" fill="#5b5b5b" text-anchor="start" font-size="10.96875">1970</text><text x="560.35625" y="529.63125" fill="#5b5b5b" text-anchor="end" font-size="10.96875">2018</text><text x="359.3" y="529.63125" fill="#5b5b5b" text-anchor="middle" font-size="10.96875">1980</text><text x="412.2" y="529.63125" fill="#5b5b5b" text-anchor="middle" font-size="10.96875">1990</text><text x="465.1" y="529.63125" fill="#5b5b5b" text-anchor="middle" font-size="10.96875">2000</text></g></g><g id="horizontal-grid-lines" class="AxisGridLines horizontalLines"><line id="0" x1="306.36" y1="513.7" x2="560.36" y2="513.7" stroke="#999" stroke-width="1"></line><line id="0.5" x1="306.36" y1="484.7" x2="560.36" y2="484.7" stroke="#ddd" stroke-width="1" stroke-dasharray="2,1"></line><line id="1" x1="306.36" y1="455.8" x2="560.36" y2="455.8" stroke="#ddd" stroke-width="1" stroke-dasharray="2,1"></line><line id="1.5" x1="306.36" y1="426.9" x2="560.36" y2="426.9" stroke="#ddd" stroke-width="1" stroke-dasharray="2,1"></line><line id="2" x1="306.36" y1="397.9" x2="560.36" y2="397.9" stroke="#ddd" stroke-width="1" stroke-dasharray="2,1"></line><line id="2.5" x1="306.36" y1="369" x2="560.36" y2="369" stroke="#ddd" stroke-width="1" stroke-dasharray="2,1"></line></g><g clip-path="url(#boundsClip-5)"><g class="Lines"><rect x="306" y="359" width="254" height="155" fill="rgba(255,255,255,0)" opacity="0"></rect><g id="lines"><path fill="none" stroke-linecap="butt" stroke-linejoin="round" stroke="#ffffff" stroke-width="2.5" id="outline__" d="M306.4 499.5L311.6 495.7L316.9 497.2L322.2 479.8L327.5 473L332.8 474L338.1 468.9L343.4 479.9L348.7 480.2L354 479.8L359.3 473.9L364.6 476.9L369.9 489.3L375.1 481.3L380.4 479.8L385.7 486.8L391 491.6L396.3 487L401.6 480.6L406.9 471.3L412.2 467.9L417.5 469.2L422.8 471.1L428.1 472.5L433.4 478.6L438.6 490.4L443.9 488.6L449.2 488.4L454.5 479.8L459.8 481L465.1 479L470.4 484.4L475.7 485.8L481 479.2L486.3 481.8L491.6 478.3L496.9 480.9L502.1 479.8L507.4 484.2L512.7 478.6L518 479L523.3 480.4L528.6 482.5L533.9 484.7L539.2 481.9L544.5 475.8L549.8 473.9L555.1 477.2L560.4 469.3"></path><path fill="none" stroke-linecap="butt" stroke-linejoin="round" stroke="#4C6A9C" stroke-width="1.5" id="line__" d="M306.4 499.5L311.6 495.7L316.9 497.2L322.2 479.8L327.5 473L332.8 474L338.1 468.9L343.4 479.9L348.7 480.2L354 479.8L359.3 473.9L364.6 476.9L369.9 489.3L375.1 481.3L380.4 479.8L385.7 486.8L391 491.6L396.3 487L401.6 480.6L406.9 471.3L412.2 467.9L417.5 469.2L422.8 471.1L428.1 472.5L433.4 478.6L438.6 490.4L443.9 488.6L449.2 488.4L454.5 479.8L459.8 481L465.1 479L470.4 484.4L475.7 485.8L481 479.2L486.3 481.8L491.6 478.3L496.9 480.9L502.1 479.8L507.4 484.2L512.7 478.6L518 479L523.3 480.4L528.6 482.5L533.9 484.7L539.2 481.9L544.5 475.8L549.8 473.9L555.1 477.2L560.4 469.3"></path></g><g id="markers"></g></g></g></g><text x="576.35625" y="345.31875" fill="#1d3d63" font-size="14.625" style="font-weight:700">South America<title>South America</title></text><g class="LineChart"><defs><clipPath id="boundsClip-6"><rect x="566.35625" y="342.63125" width="275" height="199"></rect></clipPath></defs><rect x="576.35625" y="352.63125" width="255" height="179" fill="none"></rect><g id="horizontal-axis" class="HorizontalAxis"><g id="tick-marks"><line id="1970" x1="576.4" y1="513.1625" x2="576.4" y2="518.6625" stroke="#999" stroke-width="1"></line><line id="2018" x1="830.4" y1="513.1625" x2="830.4" y2="518.6625" stroke="#999" stroke-width="1"></line><line id="1980" x1="629.3" y1="513.1625" x2="629.3" y2="518.6625" stroke="#999" stroke-width="1"></line><line id="1990" x1="682.2" y1="513.1625" x2="682.2" y2="518.6625" stroke="#999" stroke-width="1"></line><line id="2000" x1="735.1" y1="513.1625" x2="735.1" y2="518.6625" stroke="#999" stroke-width="1"></line></g><g id="tick-labels"><text x="576.35625" y="529.63125" fill="#5b5b5b" text-anchor="start" font-size="10.96875">1970</text><text x="830.35625" y="529.63125" fill="#5b5b5b" text-anchor="end" font-size="10.96875">2018</text><text x="629.3" y="529.63125" fill="#5b5b5b" text-anchor="middle" font-size="10.96875">1980</text><text x="682.2" y="529.63125" fill="#5b5b5b" text-anchor="middle" font-size="10.96875">1990</text><text x="735.1" y="529.63125" fill="#5b5b5b" text-anchor="middle" font-size="10.96875">2000</text></g></g><g id="horizontal-grid-lines" class="AxisGridLines horizontalLines"><line id="0" x1="576.36" y1="513.7" x2="830.36" y2="513.7" stroke="#999" stroke-width="1"></line><line id="0.5" x1="576.36" y1="484.7" x2="830.36" y2="484.7" stroke="#ddd" stroke-width="1" stroke-dasharray="2,1"></line><line id="1" x1="576.36" y1="455.8" x2="830.36" y2="455.8" stroke="#ddd" stroke-width="1" stroke-dasharray="2,1"></line><line id="1.5" x1="576.36" y1="426.9" x2="830.36" y2="426.9" stroke="#ddd" stroke-width="1" stroke-dasharray="2,1"></line><line id="2" x1="576.36" y1="397.9" x2="830.36" y2="397.9" stroke="#ddd" stroke-width="1" stroke-dasharray="2,1"></line><line id="2.5" x1="576.36" y1="369" x2="830.36" y2="369" stroke="#ddd" stroke-width="1" stroke-dasharray="2,1"></line></g><g clip-path="url(#boundsClip-6)"><g class="Lines"><rect x="576" y="359" width="254" height="155" fill="rgba(255,255,255,0)" opacity="0"></rect><g id="lines"><path fill="none" stroke-linecap="butt" stroke-linejoin="round" stroke="#ffffff" stroke-width="2.5" id="outline__" d="M576.4 437.7L581.6 416.8L586.9 437.6L592.2 452.1L597.5 456.7L602.8 457.9L608.1 448.5L613.4 450.7L618.7 418.7L624 429.5L629.3 434.1L634.6 434.4L639.9 437.3L645.1 444.8L650.4 446.5L655.7 432.6L661 434.3L666.3 434.3L671.6 438L676.9 441.5L682.2 443.1L687.5 448.3L692.8 448.9L698.1 452.9L703.4 441.8L708.6 447.6L713.9 444.3L719.2 445.8L724.5 445.2L729.8 454.1L735.1 453.8L740.4 462.1L745.7 463.1L751 463.7L756.3 459.3L761.6 461.5L766.9 458.3L772.1 460.2L777.4 462.6L782.7 463.9L788 464.2L793.3 465L798.6 465.3L803.9 463L809.2 464.5L814.5 462.5L819.8 471.6L825.1 468.9L830.4 469.1"></path><path fill="none" stroke-linecap="butt" stroke-linejoin="round" stroke="#4C6A9C" stroke-width="1.5" id="line__" d="M576.4 437.7L581.6 416.8L586.9 437.6L592.2 452.1L597.5 456.7L602.8 457.9L608.1 448.5L613.4 450.7L618.7 418.7L624 429.5L629.3 434.1L634.6 434.4L639.9 437.3L645.1 444.8L650.4 446.5L655.7 432.6L661 434.3L666.3 434.3L671.6 438L676.9 441.5L682.2 443.1L687.5 448.3L692.8 448.9L698.1 452.9L703.4 441.8L708.6 447.6L713.9 444.3L719.2 445.8L724.5 445.2L729.8 454.1L735.1 453.8L740.4 462.1L745.7 463.1L751 463.7L756.3 459.3L761.6 461.5L766.9 458.3L772.1 460.2L777.4 462.6L782.7 463.9L788 464.2L793.3 465L798.6 465.3L803.9 463L809.2 464.5L814.5 462.5L819.8 471.6L825.1 468.9L830.4 469.1"></path></g><g id="markers"></g></g></g></g></g><g id="footer" class="SourcesFooter" style="fill:#5b5b5b"><g id="sources" class="markdown-text-wrap"><text x="16.0" y="562.7" style="font-size:13.5px;line-height:1.2"><tspan x="16" y="562.7"><tspan style="font-weight:700">Data source:</tspan> RAM Legacy Database; Hilborn,et al. (2020). Effective fisheries management instrumental in improving fish stock status.</tspan></text></g><text id="origin-url" font-size="13.50" x="16.0" y="580.9"><tspan x="16" y="580.8950000000001"><a target="_blank" style="fill: #5b5b5b;" href="https://ourworldindata.org/fish-and-overfishing">OurWorldinData.org/fish-and-overfishing</a> | <a target="_blank" style="fill: #5b5b5b;" href="https://creativecommons.org/licenses/by/4.0/">CC BY</a></tspan></text></g></svg>