<svg xmlns="http://www.w3.org/2000/svg" version="1.1" style="font-family:Lato, &#x27;Helvetica Neue&#x27;, Helvetica, Arial, &#x27;Liberation Sans&#x27;, sans-serif;font-size:18px;background-color:white;text-rendering:geometricPrecision;-webkit-font-smoothing:antialiased" width="850" height="600" viewBox="0 0 850 600"><defs><style>@import url(https://ourworldindata.org/fonts.css)</style></defs><defs><pattern id="noDataPattern" patternUnits="userSpaceOnUse" width="4" height="4" patternTransform="rotate(-45 2 2)"><path d="M -1,2 l 6,0" stroke="#ccc" stroke-width="0.7"></path></pattern></defs><rect class="background-fill" fill="white" width="850" height="600"></rect><g id="header" class="HeaderView"><g id="logo" transform="translate(769, 16) scale(1)"><svg className="owidLogo" xmlns="http://www.w3.org/2000/svg" width="65" height="36" viewBox="0 0 65 36"  fill="none"><path fill="#002147" d="M0 0h64.8v36H0z"/><path fill="#CE261E" d="M0 33.3h64.8V36H0z"/><path fill="#fff" d="M13.796 10.575c0 .636-.106 1.226-.318 1.77a4.193 4.193 0 0 1-.894 1.404 4.084 4.084 0 0 1-1.386.93c-.54.22-1.138.33-1.794.33-.656 0-1.256-.11-1.8-.33a4.149 4.149 0 0 1-1.392-.93 4.193 4.193 0 0 1-.894-1.404A4.833 4.833 0 0 1 5 10.575c0-.636.106-1.224.318-1.764a4.18 4.18 0 0 1 .894-1.41 4.076 4.076 0 0 1 1.392-.924 4.684 4.684 0 0 1 1.8-.336c.656 0 1.254.112 1.794.336.54.224 1.002.534 1.386.93.384.392.682.86.894 1.404.212.54.318 1.128.318 1.764Zm-1.656 0c0-.476-.064-.902-.192-1.278a2.671 2.671 0 0 0-.54-.966 2.332 2.332 0 0 0-.864-.606 2.94 2.94 0 0 0-1.14-.21c-.424 0-.806.07-1.146.21-.34.14-.63.342-.87.606a2.742 2.742 0 0 0-.546.966 3.955 3.955 0 0 0-.192 1.278c0 .476.064.904.192 1.284.128.376.31.696.546.96.24.26.53.46.87.6.34.14.722.21 1.146.21.424 0 .804-.07 1.14-.21.34-.14.628-.34.864-.6.236-.264.416-.584.54-.96a4.01 4.01 0 0 0 .192-1.284ZM16.104 8.757v3.912c0 .376.086.668.258.876.176.204.438.306.786.306.256 0 .496-.056.72-.168a2.58 2.58 0 0 0 .636-.474V8.757h1.482v6.156h-.906c-.192 0-.318-.09-.378-.27l-.102-.492a4.65 4.65 0 0 1-.396.354 2.577 2.577 0 0 1-.438.27 2.35 2.35 0 0 1-.498.168 2.345 2.345 0 0 1-.57.066c-.336 0-.634-.056-.894-.168a1.821 1.821 0 0 1-.648-.486 2.157 2.157 0 0 1-.402-.738 3.233 3.233 0 0 1-.132-.948V8.757h1.482ZM21.328 14.913V8.757h.87c.152 0 .258.028.318.084.06.056.1.152.12.288l.09.744c.22-.38.478-.68.774-.9.296-.22.628-.33.996-.33.304 0 .556.07.756.21l-.192 1.11c-.012.072-.038.124-.078.156a.278.278 0 0 1-.162.042 1.01 1.01 0 0 1-.246-.042 1.646 1.646 0 0 0-.414-.042c-.308 0-.572.086-.792.258-.22.168-.406.416-.558.744v3.834h-1.482ZM27.347 6.237h1.356a.57.57 0 0 1 .348.102c.096.064.16.152.192.264l1.476 5.19c.036.128.068.268.096.42.032.148.062.306.09.474a5.968 5.968 0 0 1 .228-.894l1.704-5.19a.575.575 0 0 1 .186-.252.543.543 0 0 1 .348-.114h.474a.57.57 0 0 1 .348.102.497.497 0 0 1 .192.264l1.692 5.19c.088.256.164.54.228.852.028-.156.056-.306.084-.45.032-.144.064-.278.096-.402l1.476-5.19c.028-.1.09-.186.186-.258a.563.563 0 0 1 .348-.108h1.266l-2.694 8.676h-1.458l-1.896-5.928-.078-.246a9.504 9.504 0 0 1-.072-.282c-.024.1-.05.194-.078.282-.024.088-.048.17-.072.246l-1.914 5.928H30.04l-2.694-8.676ZM42.771 8.661c.46 0 .876.074 1.248.222.376.148.696.358.96.63s.468.604.612.996c.144.392.216.83.216 1.314 0 .488-.072.928-.216 1.32a2.85 2.85 0 0 1-.612 1.002 2.653 2.653 0 0 1-.96.636 3.35 3.35 0 0 1-1.248.222c-.46 0-.878-.074-1.254-.222a2.712 2.712 0 0 1-.966-.636 2.922 2.922 0 0 1-.618-1.002 3.807 3.807 0 0 1-.216-1.32c0-.484.072-.922.216-1.314.148-.392.354-.724.618-.996.268-.272.59-.482.966-.63a3.397 3.397 0 0 1 1.254-.222Zm0 5.202c.512 0 .89-.172 1.134-.516.248-.344.372-.848.372-1.512s-.124-1.17-.372-1.518c-.244-.348-.622-.522-1.134-.522-.52 0-.904.176-1.152.528-.248.348-.372.852-.372 1.512s.124 1.164.372 1.512c.248.344.632.516 1.152.516ZM46.723 14.913V8.757h.87c.152 0 .258.028.318.084.06.056.1.152.12.288l.09.744c.22-.38.478-.68.774-.9.296-.22.628-.33.996-.33.304 0 .556.07.756.21l-.192 1.11c-.012.072-.038.124-.078.156a.278.278 0 0 1-.162.042 1.01 1.01 0 0 1-.246-.042 1.646 1.646 0 0 0-.414-.042c-.308 0-.572.086-.792.258-.22.168-.406.416-.558.744v3.834h-1.482ZM52.96 5.997v8.916h-1.482V5.997h1.482ZM58.732 14.913c-.192 0-.318-.09-.378-.27l-.12-.594a3.68 3.68 0 0 1-.402.39c-.14.116-.292.216-.456.3-.16.084-.334.148-.522.192a2.372 2.372 0 0 1-.6.072c-.336 0-.644-.07-.924-.21a2.098 2.098 0 0 1-.726-.606 3.033 3.033 0 0 1-.468-.99 5.072 5.072 0 0 1-.162-1.344c0-.456.062-.88.186-1.272s.302-.732.534-1.02c.232-.288.51-.512.834-.672a2.384 2.384 0 0 1 1.092-.246 2.103 2.103 0 0 1 1.536.606V5.997h1.482v8.916h-.906Zm-1.974-1.086c.308 0 .57-.064.786-.192.216-.128.42-.31.612-.546v-2.76a1.452 1.452 0 0 0-.552-.432 1.597 1.597 0 0 0-.636-.126c-.224 0-.428.042-.612.126a1.21 1.21 0 0 0-.462.384c-.124.168-.22.384-.288.648-.068.26-.102.568-.102.924 0 .36.028.666.084.918.06.248.144.452.252.612.108.156.24.27.396.342.156.068.33.102.522.102ZM16.331 20.757v6.156H14.85v-6.156h1.481Zm.223-1.794a.844.844 0 0 1-.078.36.963.963 0 0 1-.21.294.995.995 0 0 1-.3.204.963.963 0 0 1-.372.072.948.948 0 0 1-.367-.072 1.018 1.018 0 0 1-.498-.498.963.963 0 0 1 0-.732.995.995 0 0 1 .205-.3.929.929 0 0 1 .293-.198.899.899 0 0 1 .738 0 .912.912 0 0 1 .3.198.943.943 0 0 1 .288.672ZM17.771 26.913v-6.156h.906c.192 0 .318.09.378.27l.102.486a2.934 2.934 0 0 1 .828-.618c.156-.076.322-.134.498-.174.176-.04.368-.06.576-.06.336 0 .634.058.894.174.26.112.476.272.648.48.176.204.308.45.396.738.092.284.138.598.138.942v3.918h-1.482v-3.918c0-.376-.088-.666-.264-.87-.172-.208-.432-.312-.78-.312-.256 0-.496.058-.72.174a2.58 2.58 0 0 0-.636.474v4.452h-1.482ZM34.22 22.575c0 .636-.106 1.22-.318 1.752-.212.532-.51.99-.894 1.374a4 4 0 0 1-1.386.894 4.87 4.87 0 0 1-1.794.318h-3.312v-8.676h3.312a4.79 4.79 0 0 1 1.794.324 4 4 0 0 1 1.386.894c.384.38.682.836.894 1.368.212.532.318 1.116.318 1.752Zm-1.65 0c0-.476-.064-.902-.192-1.278a2.68 2.68 0 0 0-.546-.96 2.332 2.332 0 0 0-.864-.606 2.94 2.94 0 0 0-1.14-.21h-1.686v6.108h1.686c.424 0 .804-.07 1.14-.21.34-.14.628-.34.864-.6a2.75 2.75 0 0 0 .546-.96 4.01 4.01 0 0 0 .192-1.284ZM39.98 26.913h-.665c-.14 0-.25-.02-.33-.06-.08-.044-.14-.13-.18-.258l-.132-.438c-.156.14-.31.264-.462.372a2.804 2.804 0 0 1-.462.264c-.16.072-.33.126-.51.162-.18.036-.38.054-.6.054-.26 0-.5-.034-.72-.102a1.618 1.618 0 0 1-.57-.318 1.448 1.448 0 0 1-.366-.522 1.852 1.852 0 0 1-.132-.726c0-.232.06-.46.18-.684.124-.228.328-.432.612-.612.284-.184.662-.336 1.134-.456.472-.12 1.058-.188 1.758-.204v-.36c0-.412-.088-.716-.264-.912-.172-.2-.424-.3-.756-.3a1.837 1.837 0 0 0-1.02.276c-.116.068-.224.13-.324.186a.664.664 0 0 1-.33.084.429.429 0 0 1-.258-.078.614.614 0 0 1-.174-.192l-.27-.474c.708-.648 1.562-.972 2.562-.972.36 0 .68.06.96.18.284.116.524.28.72.492.196.208.344.458.444.75.104.292.156.612.156.96v3.888Zm-2.88-.924c.153 0 .293-.014.42-.042.129-.028.249-.07.36-.126.117-.056.227-.124.33-.204.109-.084.217-.182.325-.294v-1.038c-.432.02-.794.058-1.086.114-.288.052-.52.12-.696.204a.923.923 0 0 0-.378.294.664.664 0 0 0-.108.366c0 .26.076.446.228.558.156.112.358.168.606.168ZM43.22 27.01c-.532 0-.942-.15-1.23-.45-.288-.305-.432-.723-.432-1.255v-3.438h-.624a.31.31 0 0 1-.21-.078c-.056-.052-.084-.13-.084-.234v-.588l.99-.162.312-1.68a.302.302 0 0 1 .108-.186.365.365 0 0 1 .222-.066h.768v1.938h1.62v1.056h-1.62v3.336c0 .192.048.342.144.45a.488.488 0 0 0 .384.162c.092 0 .168-.01.228-.03.064-.024.118-.048.162-.072.048-.024.09-.046.126-.066a.194.194 0 0 1 .108-.036.16.16 0 0 1 .108.036c.028.02.058.052.09.096l.444.72c-.216.18-.464.316-.744.408a2.77 2.77 0 0 1-.87.138ZM50.423 26.913h-.666c-.14 0-.25-.02-.33-.06-.08-.044-.14-.13-.18-.258l-.132-.438c-.156.14-.31.264-.462.372a2.804 2.804 0 0 1-.462.264c-.16.072-.33.126-.51.162-.18.036-.38.054-.6.054-.26 0-.5-.034-.72-.102a1.618 1.618 0 0 1-.57-.318 1.448 1.448 0 0 1-.366-.522 1.852 1.852 0 0 1-.132-.726c0-.232.06-.46.18-.684.124-.228.328-.432.612-.612.284-.184.662-.336 1.134-.456.472-.12 1.058-.188 1.758-.204v-.36c0-.412-.088-.716-.264-.912-.172-.2-.424-.3-.756-.3a1.837 1.837 0 0 0-1.02.276c-.116.068-.224.13-.324.186a.664.664 0 0 1-.33.084.429.429 0 0 1-.258-.078.614.614 0 0 1-.174-.192l-.27-.474c.708-.648 1.562-.972 2.562-.972.36 0 .68.06.96.18.284.116.524.28.72.492.196.208.344.458.444.75.104.292.156.612.156.96v3.888Zm-2.88-.924c.152 0 .292-.014.42-.042.128-.028.248-.07.36-.126.116-.056.226-.124.33-.204.108-.084.216-.182.324-.294v-1.038c-.432.02-.794.058-1.086.114-.288.052-.52.12-.696.204a.923.923 0 0 0-.378.294.664.664 0 0 0-.108.366c0 .26.076.446.228.558.156.112.358.168.606.168Z"/></svg></g><a id="title" href="https://ourworldindata.org/grapher/dalys-from-alcohol-use-disorders-by-age" style="font-family:&#x27;Playfair Display&#x27;, Georgia, &#x27;Times New Roman&#x27;, &#x27;Liberation Serif&#x27;, serif" target="_blank" rel="noopener"><text font-size="22.25" font-weight="600" x="16.0" y="37.6" fill="#5b5b5b"><tspan x="16" y="37.582499999999996">DALY rates from alcohol use disorders by age, World, 1990 to 2019</tspan></text></a><g id="subtitle" class="markdown-text-wrap"><text x="16.0" y="60.9" style="font-size:14.625px;line-height:1.2" fill="#5b5b5b"><tspan x="16" y="60.9">DALY (Disability-Adjusted Life Year) rates from alcohol use disorders by age, measured as the number of DALYs</tspan><tspan x="16" y="78.4">per 100,000 individuals. DALYs are used to measure total burden of disease - both from years of life lost and</tspan><tspan x="16" y="96.0">years lived with a disability. One DALY equals one lost year of healthy life.</tspan></text></g></g><g id="chart-area" style="pointer-events:none"><g id="line-chart" class="LineChart"><defs><clipPath id="boundsClip-1"><rect x="33.68" y="105.35" width="838" height="456.45"></rect></clipPath></defs><rect x="16" y="115.35" width="818" height="436.45" fill="none"></rect><g id="dual-axis" class="DualAxisView"><g id="horizontal-axis" class="HorizontalAxis"><g id="tick__1990"><line x1="43.7" y1="530.8" x2="43.7" y2="536.3" stroke="#999" stroke-width="1"></line><text x="43.68" y="549.8" fill="#5b5b5b" text-anchor="start" font-size="13.5">1990</text></g><g id="tick__2019"><line x1="692.8" y1="530.8" x2="692.8" y2="536.3" stroke="#999" stroke-width="1"></line><text x="692.755" y="549.8" fill="#5b5b5b" text-anchor="end" font-size="13.5">2019</text></g><g id="tick__1995"><line x1="155.6" y1="530.8" x2="155.6" y2="536.3" stroke="#999" stroke-width="1"></line><text x="155.6" y="549.8" fill="#5b5b5b" text-anchor="middle" font-size="13.5">1995</text></g><g id="tick__2000"><line x1="267.5" y1="530.8" x2="267.5" y2="536.3" stroke="#999" stroke-width="1"></line><text x="267.5" y="549.8" fill="#5b5b5b" text-anchor="middle" font-size="13.5">2000</text></g><g id="tick__2005"><line x1="379.4" y1="530.8" x2="379.4" y2="536.3" stroke="#999" stroke-width="1"></line><text x="379.4" y="549.8" fill="#5b5b5b" text-anchor="middle" font-size="13.5">2005</text></g><g id="tick__2010"><line x1="491.3" y1="530.8" x2="491.3" y2="536.3" stroke="#999" stroke-width="1"></line><text x="491.3" y="549.8" fill="#5b5b5b" text-anchor="middle" font-size="13.5">2010</text></g><g id="tick__2015"><line x1="603.2" y1="530.8" x2="603.2" y2="536.3" stroke="#999" stroke-width="1"></line><text x="603.2" y="549.8" fill="#5b5b5b" text-anchor="middle" font-size="13.5">2015</text></g></g><g id="vertical-axis" class="VerticalAxis"><g id="tick-labels"><text id="tick-label__0" x="38.68" y="531.3" dy=".32em" text-anchor="end" fill="#5b5b5b" font-size="13.5">0</text><text id="tick-label__100" x="38.68" y="441.8" dy=".32em" text-anchor="end" fill="#5b5b5b" font-size="13.5">100</text><text id="tick-label__200" x="38.68" y="352.3" dy=".32em" text-anchor="end" fill="#5b5b5b" font-size="13.5">200</text><text id="tick-label__300" x="38.68" y="262.7" dy=".32em" text-anchor="end" fill="#5b5b5b" font-size="13.5">300</text><text id="tick-label__400" x="38.68" y="173.2" dy=".32em" text-anchor="end" fill="#5b5b5b" font-size="13.5">400</text></g></g><g id="horizontal-grid-lines" class="AxisGridLines horizontalLines"><line id="grid-line__0" x1="43.68" y1="531.3" x2="692.75" y2="531.3" stroke="#999" stroke-width="1"></line><line id="grid-line__100" x1="43.68" y1="441.8" x2="692.75" y2="441.8" stroke="#ddd" stroke-width="1" stroke-dasharray="3,2"></line><line id="grid-line__200" x1="43.68" y1="352.3" x2="692.75" y2="352.3" stroke="#ddd" stroke-width="1" stroke-dasharray="3,2"></line><line id="grid-line__300" x1="43.68" y1="262.7" x2="692.75" y2="262.7" stroke="#ddd" stroke-width="1" stroke-dasharray="3,2"></line><line id="grid-line__400" x1="43.68" y1="173.2" x2="692.75" y2="173.2" stroke="#ddd" stroke-width="1" stroke-dasharray="3,2"></line></g></g><g clip-path="url(#boundsClip-1)"><g id="line-labels" class="LineLabels"><g id="mark__50-69-years-old" class="legendMark" style="cursor:default"><rect id="background" x="692.755" y="214.05" width="128.42000000000002" height="13.5" fill="#fff" opacity="0"></rect><text id="label" font-size="13.50" font-weight="400" x="696.8" y="225.8" fill="#18470f"><tspan x="696.755" y="225.79500000000002">50-69 years old</tspan></text></g><g id="mark__15-49-years-old" class="legendMark" style="cursor:default"><rect id="background" x="692.755" y="265.05" width="128.42000000000002" height="13.5" fill="#fff" opacity="0"></rect><text id="label" font-size="13.50" font-weight="400" x="696.8" y="276.8" fill="#6d3e91"><tspan x="696.755" y="276.795">15-49 years old</tspan></text></g><g id="mark__All-ages" class="legendMark" style="cursor:default"><rect id="background" x="692.755" y="325.54999999999995" width="83.195" height="13.5" fill="#fff" opacity="0"></rect><text id="label" font-size="13.50" font-weight="400" x="696.8" y="337.3" fill="#c15065"><tspan x="696.755" y="337.29499999999996">All ages</tspan></text></g><g id="mark__Age-standardized" class="legendMark" style="cursor:default"><rect id="background" x="692.755" y="341.04999999999995" width="141.245" height="13.5" fill="#fff" opacity="0"></rect><text id="label" font-size="13.50" font-weight="400" x="696.8" y="352.8" fill="#cf0a66"><tspan x="696.755" y="352.79499999999996">Age-standardized</tspan></text></g><g id="mark__70__002b-years-old" class="legendMark" style="cursor:default"><rect id="background" x="692.755" y="371.65" width="116.67500000000001" height="13.5" fill="#fff" opacity="0"></rect><text id="label" font-size="13.50" font-weight="400" x="696.8" y="383.4" fill="#2c8465"><tspan x="696.755" y="383.395">70+ years old</tspan></text></g><g id="mark__5-14-years-old" class="legendMark" style="cursor:default"><rect id="background" x="692.755" y="521.95" width="120.86" height="13.5" fill="#fff" opacity="0"></rect><text id="label" font-size="13.50" font-weight="400" x="696.8" y="533.7" fill="#be5915"><tspan x="696.755" y="533.695">5-14 years old</tspan></text></g></g><g id="lines" class="Lines"><rect x="44" y="121" width="649" height="410" fill="rgba(255,255,255,0)" opacity="0"></rect><g id="line__50-69-years-old"><path stroke-linecap="round" stroke-linejoin="round" stroke="#ddd" d="M43.7 157.9L66.1 151.2L88.4 140.5L110.8 127.4L133.2 121.3L155.6 126.9L178 135.5L200.4 141.8L222.7 146.2L245.1 145.5L267.5 141.5L289.9 139.7L312.3 139L334.6 140.3L357 144.5L379.4 146.6L401.8 156.6L424.2 164.9L446.6 170.7L468.9 179.6L491.3 184.8L513.7 191.1L536.1 195.9L558.5 199.9L580.8 202.4L603.2 204.2L625.6 208.4L648 213.9L670.4 217.2L692.8 220.8" fill="none" stroke-width="1"></path></g><g id="line__Age-standardized"><path stroke-linecap="round" stroke-linejoin="round" stroke="#ddd" d="M43.7 301.9L66.1 298.8L88.4 293.6L110.8 286.7L133.2 281.9L155.6 282.7L178 286L200.4 289.6L222.7 291.9L245.1 292L267.5 291.8L289.9 292.7L312.3 294.1L334.6 296.2L357 299.2L379.4 302L401.8 307.6L424.2 313.4L446.6 318.4L468.9 324.5L491.3 328.8L513.7 332.8L536.1 336.3L558.5 338.8L580.8 340.6L603.2 341.8L625.6 343.2L648 344.6L670.4 344.8L692.8 345.7" fill="none" stroke-width="1"></path></g><g id="line__15-49-years-old"><path stroke-linecap="round" stroke-linejoin="round" stroke="#ddd" d="M43.7 222.7L66.1 217.2L88.4 209.4L110.8 199.1L133.2 190.8L155.6 189.4L178 192.1L200.4 196.4L222.7 198.9L245.1 198.8L267.5 198.9L289.9 200.8L312.3 203.6L334.6 207L357 211L379.4 215.5L401.8 222.8L424.2 231.1L446.6 238.8L468.9 247.4L491.3 253.6L513.7 259.2L536.1 264.1L558.5 267.5L580.8 270.1L603.2 271.5L625.6 272.6L648 273.1L670.4 272L692.8 271.8" fill="none" stroke-width="1"></path></g><g id="line__5-14-years-old"><path stroke-linecap="round" stroke-linejoin="round" stroke="#ddd" d="M43.7 528.5L66.1 528.4L88.4 528.4L110.8 528.3L133.2 528.3L155.6 528.2L178 528.2L200.4 528.2L222.7 528.2L245.1 528.1L267.5 528.1L289.9 528.1L312.3 528.1L334.6 528.1L357 528.1L379.4 528.1L401.8 528.1L424.2 528.2L446.6 528.2L468.9 528.3L491.3 528.3L513.7 528.4L536.1 528.4L558.5 528.5L580.8 528.5L603.2 528.6L625.6 528.6L648 528.6L670.4 528.7L692.8 528.7" fill="none" stroke-width="1"></path></g><g id="line__70__002b-years-old"><path stroke-linecap="round" stroke-linejoin="round" stroke="#ddd" d="M43.7 380.9L66.1 381.6L88.4 381.5L110.8 380.7L133.2 379.9L155.6 379.3L178 378L200.4 375.6L222.7 373.1L245.1 371.2L267.5 370.1L289.9 370.1L312.3 371.7L334.6 373.8L357 376.7L379.4 378.2L401.8 378.8L424.2 378.2L446.6 376.2L468.9 374.8L491.3 373.9L513.7 373.5L536.1 373L558.5 372.5L580.8 372.6L603.2 373.4L625.6 374.5L648 375.2L670.4 376.3L692.8 378.4" fill="none" stroke-width="1"></path></g><g id="line__All-ages"><path stroke-linecap="round" stroke-linejoin="round" stroke="#ddd" d="M43.7 320.9L66.1 316.8L88.4 310.9L110.8 303.4L133.2 297.8L155.6 297.1L178 298.8L200.4 300.8L222.7 301.7L245.1 300.4L267.5 298.8L289.9 298.3L312.3 298.4L334.6 299L357 300.5L379.4 302L401.8 306.3L424.2 311L446.6 315L468.9 320.2L491.3 323.6L513.7 326.8L536.1 329.6L558.5 331.4L580.8 332.5L603.2 333L625.6 333.8L648 334.6L670.4 334.1L692.8 334.4" fill="none" stroke-width="1"></path></g><g id="line__50-69-years-old"><path id="outline" fill="none" stroke-linecap="butt" stroke-linejoin="round" stroke="#fff" stroke-width="2.5" d="M43.7 157.9L66.1 151.2L88.4 140.5L110.8 127.4L133.2 121.3L155.6 126.9L178 135.5L200.4 141.8L222.7 146.2L245.1 145.5L267.5 141.5L289.9 139.7L312.3 139L334.6 140.3L357 144.5L379.4 146.6L401.8 156.6L424.2 164.9L446.6 170.7L468.9 179.6L491.3 184.8L513.7 191.1L536.1 195.9L558.5 199.9L580.8 202.4L603.2 204.2L625.6 208.4L648 213.9L670.4 217.2L692.8 220.8"></path><g id="polyline"><polyline id="polyline" points="43.70,157.90 66.10,151.20 88.40,140.50 110.80,127.40 133.20,121.30 155.60,126.90 178.00,135.50 200.40,141.80 222.70,146.20 245.10,145.50 267.50,141.50 289.90,139.70 312.30,139.00 334.60,140.30 357.00,144.50 379.40,146.60 401.80,156.60 424.20,164.90 446.60,170.70 468.90,179.60 491.30,184.80 513.70,191.10 536.10,195.90 558.50,199.90 580.80,202.40 603.20,204.20 625.60,208.40 648.00,213.90 670.40,217.20 692.80,220.80" stroke-linejoin="round" stroke-width="1.5" stroke="#18470F" fill="none" stroke-linecap="butt"></polyline></g><g id="markers"><circle cx="43.7" cy="157.9" r="1.8" fill="#18470F"></circle><circle cx="66.1" cy="151.2" r="1.8" fill="#18470F"></circle><circle cx="88.4" cy="140.5" r="1.8" fill="#18470F"></circle><circle cx="110.8" cy="127.4" r="1.8" fill="#18470F"></circle><circle cx="133.2" cy="121.3" r="1.8" fill="#18470F"></circle><circle cx="155.6" cy="126.9" r="1.8" fill="#18470F"></circle><circle cx="178" cy="135.5" r="1.8" fill="#18470F"></circle><circle cx="200.4" cy="141.8" r="1.8" fill="#18470F"></circle><circle cx="222.7" cy="146.2" r="1.8" fill="#18470F"></circle><circle cx="245.1" cy="145.5" r="1.8" fill="#18470F"></circle><circle cx="267.5" cy="141.5" r="1.8" fill="#18470F"></circle><circle cx="289.9" cy="139.7" r="1.8" fill="#18470F"></circle><circle cx="312.3" cy="139" r="1.8" fill="#18470F"></circle><circle cx="334.6" cy="140.3" r="1.8" fill="#18470F"></circle><circle cx="357" cy="144.5" r="1.8" fill="#18470F"></circle><circle cx="379.4" cy="146.6" r="1.8" fill="#18470F"></circle><circle cx="401.8" cy="156.6" r="1.8" fill="#18470F"></circle><circle cx="424.2" cy="164.9" r="1.8" fill="#18470F"></circle><circle cx="446.6" cy="170.7" r="1.8" fill="#18470F"></circle><circle cx="468.9" cy="179.6" r="1.8" fill="#18470F"></circle><circle cx="491.3" cy="184.8" r="1.8" fill="#18470F"></circle><circle cx="513.7" cy="191.1" r="1.8" fill="#18470F"></circle><circle cx="536.1" cy="195.9" r="1.8" fill="#18470F"></circle><circle cx="558.5" cy="199.9" r="1.8" fill="#18470F"></circle><circle cx="580.8" cy="202.4" r="1.8" fill="#18470F"></circle><circle cx="603.2" cy="204.2" r="1.8" fill="#18470F"></circle><circle cx="625.6" cy="208.4" r="1.8" fill="#18470F"></circle><circle cx="648" cy="213.9" r="1.8" fill="#18470F"></circle><circle cx="670.4" cy="217.2" r="1.8" fill="#18470F"></circle><circle cx="692.8" cy="220.8" r="1.8" fill="#18470F"></circle></g></g><g id="line__Age-standardized"><path id="outline" fill="none" stroke-linecap="butt" stroke-linejoin="round" stroke="#fff" stroke-width="2.5" d="M43.7 301.9L66.1 298.8L88.4 293.6L110.8 286.7L133.2 281.9L155.6 282.7L178 286L200.4 289.6L222.7 291.9L245.1 292L267.5 291.8L289.9 292.7L312.3 294.1L334.6 296.2L357 299.2L379.4 302L401.8 307.6L424.2 313.4L446.6 318.4L468.9 324.5L491.3 328.8L513.7 332.8L536.1 336.3L558.5 338.8L580.8 340.6L603.2 341.8L625.6 343.2L648 344.6L670.4 344.8L692.8 345.7"></path><g id="polyline"><polyline id="polyline" points="43.70,301.90 66.10,298.80 88.40,293.60 110.80,286.70 133.20,281.90 155.60,282.70 178.00,286.00 200.40,289.60 222.70,291.90 245.10,292.00 267.50,291.80 289.90,292.70 312.30,294.10 334.60,296.20 357.00,299.20 379.40,302.00 401.80,307.60 424.20,313.40 446.60,318.40 468.90,324.50 491.30,328.80 513.70,332.80 536.10,336.30 558.50,338.80 580.80,340.60 603.20,341.80 625.60,343.20 648.00,344.60 670.40,344.80 692.80,345.70" stroke-linejoin="round" stroke-width="1.5" stroke="#CF0A66" fill="none" stroke-linecap="butt"></polyline></g><g id="markers"><circle cx="43.7" cy="301.9" r="1.8" fill="#CF0A66"></circle><circle cx="66.1" cy="298.8" r="1.8" fill="#CF0A66"></circle><circle cx="88.4" cy="293.6" r="1.8" fill="#CF0A66"></circle><circle cx="110.8" cy="286.7" r="1.8" fill="#CF0A66"></circle><circle cx="133.2" cy="281.9" r="1.8" fill="#CF0A66"></circle><circle cx="155.6" cy="282.7" r="1.8" fill="#CF0A66"></circle><circle cx="178" cy="286" r="1.8" fill="#CF0A66"></circle><circle cx="200.4" cy="289.6" r="1.8" fill="#CF0A66"></circle><circle cx="222.7" cy="291.9" r="1.8" fill="#CF0A66"></circle><circle cx="245.1" cy="292" r="1.8" fill="#CF0A66"></circle><circle cx="267.5" cy="291.8" r="1.8" fill="#CF0A66"></circle><circle cx="289.9" cy="292.7" r="1.8" fill="#CF0A66"></circle><circle cx="312.3" cy="294.1" r="1.8" fill="#CF0A66"></circle><circle cx="334.6" cy="296.2" r="1.8" fill="#CF0A66"></circle><circle cx="357" cy="299.2" r="1.8" fill="#CF0A66"></circle><circle cx="379.4" cy="302" r="1.8" fill="#CF0A66"></circle><circle cx="401.8" cy="307.6" r="1.8" fill="#CF0A66"></circle><circle cx="424.2" cy="313.4" r="1.8" fill="#CF0A66"></circle><circle cx="446.6" cy="318.4" r="1.8" fill="#CF0A66"></circle><circle cx="468.9" cy="324.5" r="1.8" fill="#CF0A66"></circle><circle cx="491.3" cy="328.8" r="1.8" fill="#CF0A66"></circle><circle cx="513.7" cy="332.8" r="1.8" fill="#CF0A66"></circle><circle cx="536.1" cy="336.3" r="1.8" fill="#CF0A66"></circle><circle cx="558.5" cy="338.8" r="1.8" fill="#CF0A66"></circle><circle cx="580.8" cy="340.6" r="1.8" fill="#CF0A66"></circle><circle cx="603.2" cy="341.8" r="1.8" fill="#CF0A66"></circle><circle cx="625.6" cy="343.2" r="1.8" fill="#CF0A66"></circle><circle cx="648" cy="344.6" r="1.8" fill="#CF0A66"></circle><circle cx="670.4" cy="344.8" r="1.8" fill="#CF0A66"></circle><circle cx="692.8" cy="345.7" r="1.8" fill="#CF0A66"></circle></g></g><g id="line__15-49-years-old"><path id="outline" fill="none" stroke-linecap="butt" stroke-linejoin="round" stroke="#fff" stroke-width="2.5" d="M43.7 222.7L66.1 217.2L88.4 209.4L110.8 199.1L133.2 190.8L155.6 189.4L178 192.1L200.4 196.4L222.7 198.9L245.1 198.8L267.5 198.9L289.9 200.8L312.3 203.6L334.6 207L357 211L379.4 215.5L401.8 222.8L424.2 231.1L446.6 238.8L468.9 247.4L491.3 253.6L513.7 259.2L536.1 264.1L558.5 267.5L580.8 270.1L603.2 271.5L625.6 272.6L648 273.1L670.4 272L692.8 271.8"></path><g id="polyline"><polyline id="polyline" points="43.70,222.70 66.10,217.20 88.40,209.40 110.80,199.10 133.20,190.80 155.60,189.40 178.00,192.10 200.40,196.40 222.70,198.90 245.10,198.80 267.50,198.90 289.90,200.80 312.30,203.60 334.60,207.00 357.00,211.00 379.40,215.50 401.80,222.80 424.20,231.10 446.60,238.80 468.90,247.40 491.30,253.60 513.70,259.20 536.10,264.10 558.50,267.50 580.80,270.10 603.20,271.50 625.60,272.60 648.00,273.10 670.40,272.00 692.80,271.80" stroke-linejoin="round" stroke-width="1.5" stroke="#6D3E91" fill="none" stroke-linecap="butt"></polyline></g><g id="markers"><circle cx="43.7" cy="222.7" r="1.8" fill="#6D3E91"></circle><circle cx="66.1" cy="217.2" r="1.8" fill="#6D3E91"></circle><circle cx="88.4" cy="209.4" r="1.8" fill="#6D3E91"></circle><circle cx="110.8" cy="199.1" r="1.8" fill="#6D3E91"></circle><circle cx="133.2" cy="190.8" r="1.8" fill="#6D3E91"></circle><circle cx="155.6" cy="189.4" r="1.8" fill="#6D3E91"></circle><circle cx="178" cy="192.1" r="1.8" fill="#6D3E91"></circle><circle cx="200.4" cy="196.4" r="1.8" fill="#6D3E91"></circle><circle cx="222.7" cy="198.9" r="1.8" fill="#6D3E91"></circle><circle cx="245.1" cy="198.8" r="1.8" fill="#6D3E91"></circle><circle cx="267.5" cy="198.9" r="1.8" fill="#6D3E91"></circle><circle cx="289.9" cy="200.8" r="1.8" fill="#6D3E91"></circle><circle cx="312.3" cy="203.6" r="1.8" fill="#6D3E91"></circle><circle cx="334.6" cy="207" r="1.8" fill="#6D3E91"></circle><circle cx="357" cy="211" r="1.8" fill="#6D3E91"></circle><circle cx="379.4" cy="215.5" r="1.8" fill="#6D3E91"></circle><circle cx="401.8" cy="222.8" r="1.8" fill="#6D3E91"></circle><circle cx="424.2" cy="231.1" r="1.8" fill="#6D3E91"></circle><circle cx="446.6" cy="238.8" r="1.8" fill="#6D3E91"></circle><circle cx="468.9" cy="247.4" r="1.8" fill="#6D3E91"></circle><circle cx="491.3" cy="253.6" r="1.8" fill="#6D3E91"></circle><circle cx="513.7" cy="259.2" r="1.8" fill="#6D3E91"></circle><circle cx="536.1" cy="264.1" r="1.8" fill="#6D3E91"></circle><circle cx="558.5" cy="267.5" r="1.8" fill="#6D3E91"></circle><circle cx="580.8" cy="270.1" r="1.8" fill="#6D3E91"></circle><circle cx="603.2" cy="271.5" r="1.8" fill="#6D3E91"></circle><circle cx="625.6" cy="272.6" r="1.8" fill="#6D3E91"></circle><circle cx="648" cy="273.1" r="1.8" fill="#6D3E91"></circle><circle cx="670.4" cy="272" r="1.8" fill="#6D3E91"></circle><circle cx="692.8" cy="271.8" r="1.8" fill="#6D3E91"></circle></g></g><g id="line__5-14-years-old"><path id="outline" fill="none" stroke-linecap="butt" stroke-linejoin="round" stroke="#fff" stroke-width="2.5" d="M43.7 528.5L66.1 528.4L88.4 528.4L110.8 528.3L133.2 528.3L155.6 528.2L178 528.2L200.4 528.2L222.7 528.2L245.1 528.1L267.5 528.1L289.9 528.1L312.3 528.1L334.6 528.1L357 528.1L379.4 528.1L401.8 528.1L424.2 528.2L446.6 528.2L468.9 528.3L491.3 528.3L513.7 528.4L536.1 528.4L558.5 528.5L580.8 528.5L603.2 528.6L625.6 528.6L648 528.6L670.4 528.7L692.8 528.7"></path><g id="polyline"><polyline id="polyline" points="43.70,528.50 66.10,528.40 88.40,528.40 110.80,528.30 133.20,528.30 155.60,528.20 178.00,528.20 200.40,528.20 222.70,528.20 245.10,528.10 267.50,528.10 289.90,528.10 312.30,528.10 334.60,528.10 357.00,528.10 379.40,528.10 401.80,528.10 424.20,528.20 446.60,528.20 468.90,528.30 491.30,528.30 513.70,528.40 536.10,528.40 558.50,528.50 580.80,528.50 603.20,528.60 625.60,528.60 648.00,528.60 670.40,528.70 692.80,528.70" stroke-linejoin="round" stroke-width="1.5" stroke="#BE5915" fill="none" stroke-linecap="butt"></polyline></g><g id="markers"><circle cx="43.7" cy="528.5" r="1.8" fill="#BE5915"></circle><circle cx="66.1" cy="528.4" r="1.8" fill="#BE5915"></circle><circle cx="88.4" cy="528.4" r="1.8" fill="#BE5915"></circle><circle cx="110.8" cy="528.3" r="1.8" fill="#BE5915"></circle><circle cx="133.2" cy="528.3" r="1.8" fill="#BE5915"></circle><circle cx="155.6" cy="528.2" r="1.8" fill="#BE5915"></circle><circle cx="178" cy="528.2" r="1.8" fill="#BE5915"></circle><circle cx="200.4" cy="528.2" r="1.8" fill="#BE5915"></circle><circle cx="222.7" cy="528.2" r="1.8" fill="#BE5915"></circle><circle cx="245.1" cy="528.1" r="1.8" fill="#BE5915"></circle><circle cx="267.5" cy="528.1" r="1.8" fill="#BE5915"></circle><circle cx="289.9" cy="528.1" r="1.8" fill="#BE5915"></circle><circle cx="312.3" cy="528.1" r="1.8" fill="#BE5915"></circle><circle cx="334.6" cy="528.1" r="1.8" fill="#BE5915"></circle><circle cx="357" cy="528.1" r="1.8" fill="#BE5915"></circle><circle cx="379.4" cy="528.1" r="1.8" fill="#BE5915"></circle><circle cx="401.8" cy="528.1" r="1.8" fill="#BE5915"></circle><circle cx="424.2" cy="528.2" r="1.8" fill="#BE5915"></circle><circle cx="446.6" cy="528.2" r="1.8" fill="#BE5915"></circle><circle cx="468.9" cy="528.3" r="1.8" fill="#BE5915"></circle><circle cx="491.3" cy="528.3" r="1.8" fill="#BE5915"></circle><circle cx="513.7" cy="528.4" r="1.8" fill="#BE5915"></circle><circle cx="536.1" cy="528.4" r="1.8" fill="#BE5915"></circle><circle cx="558.5" cy="528.5" r="1.8" fill="#BE5915"></circle><circle cx="580.8" cy="528.5" r="1.8" fill="#BE5915"></circle><circle cx="603.2" cy="528.6" r="1.8" fill="#BE5915"></circle><circle cx="625.6" cy="528.6" r="1.8" fill="#BE5915"></circle><circle cx="648" cy="528.6" r="1.8" fill="#BE5915"></circle><circle cx="670.4" cy="528.7" r="1.8" fill="#BE5915"></circle><circle cx="692.8" cy="528.7" r="1.8" fill="#BE5915"></circle></g></g><g id="line__70__002b-years-old"><path id="outline" fill="none" stroke-linecap="butt" stroke-linejoin="round" stroke="#fff" stroke-width="2.5" d="M43.7 380.9L66.1 381.6L88.4 381.5L110.8 380.7L133.2 379.9L155.6 379.3L178 378L200.4 375.6L222.7 373.1L245.1 371.2L267.5 370.1L289.9 370.1L312.3 371.7L334.6 373.8L357 376.7L379.4 378.2L401.8 378.8L424.2 378.2L446.6 376.2L468.9 374.8L491.3 373.9L513.7 373.5L536.1 373L558.5 372.5L580.8 372.6L603.2 373.4L625.6 374.5L648 375.2L670.4 376.3L692.8 378.4"></path><g id="polyline"><polyline id="polyline" points="43.70,380.90 66.10,381.60 88.40,381.50 110.80,380.70 133.20,379.90 155.60,379.30 178.00,378.00 200.40,375.60 222.70,373.10 245.10,371.20 267.50,370.10 289.90,370.10 312.30,371.70 334.60,373.80 357.00,376.70 379.40,378.20 401.80,378.80 424.20,378.20 446.60,376.20 468.90,374.80 491.30,373.90 513.70,373.50 536.10,373.00 558.50,372.50 580.80,372.60 603.20,373.40 625.60,374.50 648.00,375.20 670.40,376.30 692.80,378.40" stroke-linejoin="round" stroke-width="1.5" stroke="#2C8465" fill="none" stroke-linecap="butt"></polyline></g><g id="markers"><circle cx="43.7" cy="380.9" r="1.8" fill="#2C8465"></circle><circle cx="66.1" cy="381.6" r="1.8" fill="#2C8465"></circle><circle cx="88.4" cy="381.5" r="1.8" fill="#2C8465"></circle><circle cx="110.8" cy="380.7" r="1.8" fill="#2C8465"></circle><circle cx="133.2" cy="379.9" r="1.8" fill="#2C8465"></circle><circle cx="155.6" cy="379.3" r="1.8" fill="#2C8465"></circle><circle cx="178" cy="378" r="1.8" fill="#2C8465"></circle><circle cx="200.4" cy="375.6" r="1.8" fill="#2C8465"></circle><circle cx="222.7" cy="373.1" r="1.8" fill="#2C8465"></circle><circle cx="245.1" cy="371.2" r="1.8" fill="#2C8465"></circle><circle cx="267.5" cy="370.1" r="1.8" fill="#2C8465"></circle><circle cx="289.9" cy="370.1" r="1.8" fill="#2C8465"></circle><circle cx="312.3" cy="371.7" r="1.8" fill="#2C8465"></circle><circle cx="334.6" cy="373.8" r="1.8" fill="#2C8465"></circle><circle cx="357" cy="376.7" r="1.8" fill="#2C8465"></circle><circle cx="379.4" cy="378.2" r="1.8" fill="#2C8465"></circle><circle cx="401.8" cy="378.8" r="1.8" fill="#2C8465"></circle><circle cx="424.2" cy="378.2" r="1.8" fill="#2C8465"></circle><circle cx="446.6" cy="376.2" r="1.8" fill="#2C8465"></circle><circle cx="468.9" cy="374.8" r="1.8" fill="#2C8465"></circle><circle cx="491.3" cy="373.9" r="1.8" fill="#2C8465"></circle><circle cx="513.7" cy="373.5" r="1.8" fill="#2C8465"></circle><circle cx="536.1" cy="373" r="1.8" fill="#2C8465"></circle><circle cx="558.5" cy="372.5" r="1.8" fill="#2C8465"></circle><circle cx="580.8" cy="372.6" r="1.8" fill="#2C8465"></circle><circle cx="603.2" cy="373.4" r="1.8" fill="#2C8465"></circle><circle cx="625.6" cy="374.5" r="1.8" fill="#2C8465"></circle><circle cx="648" cy="375.2" r="1.8" fill="#2C8465"></circle><circle cx="670.4" cy="376.3" r="1.8" fill="#2C8465"></circle><circle cx="692.8" cy="378.4" r="1.8" fill="#2C8465"></circle></g></g><g id="line__All-ages"><path id="outline" fill="none" stroke-linecap="butt" stroke-linejoin="round" stroke="#fff" stroke-width="2.5" d="M43.7 320.9L66.1 316.8L88.4 310.9L110.8 303.4L133.2 297.8L155.6 297.1L178 298.8L200.4 300.8L222.7 301.7L245.1 300.4L267.5 298.8L289.9 298.3L312.3 298.4L334.6 299L357 300.5L379.4 302L401.8 306.3L424.2 311L446.6 315L468.9 320.2L491.3 323.6L513.7 326.8L536.1 329.6L558.5 331.4L580.8 332.5L603.2 333L625.6 333.8L648 334.6L670.4 334.1L692.8 334.4"></path><g id="polyline"><polyline id="polyline" points="43.70,320.90 66.10,316.80 88.40,310.90 110.80,303.40 133.20,297.80 155.60,297.10 178.00,298.80 200.40,300.80 222.70,301.70 245.10,300.40 267.50,298.80 289.90,298.30 312.30,298.40 334.60,299.00 357.00,300.50 379.40,302.00 401.80,306.30 424.20,311.00 446.60,315.00 468.90,320.20 491.30,323.60 513.70,326.80 536.10,329.60 558.50,331.40 580.80,332.50 603.20,333.00 625.60,333.80 648.00,334.60 670.40,334.10 692.80,334.40" stroke-linejoin="round" stroke-width="1.5" stroke="#C15065" fill="none" stroke-linecap="butt"></polyline></g><g id="markers"><circle cx="43.7" cy="320.9" r="1.8" fill="#C15065"></circle><circle cx="66.1" cy="316.8" r="1.8" fill="#C15065"></circle><circle cx="88.4" cy="310.9" r="1.8" fill="#C15065"></circle><circle cx="110.8" cy="303.4" r="1.8" fill="#C15065"></circle><circle cx="133.2" cy="297.8" r="1.8" fill="#C15065"></circle><circle cx="155.6" cy="297.1" r="1.8" fill="#C15065"></circle><circle cx="178" cy="298.8" r="1.8" fill="#C15065"></circle><circle cx="200.4" cy="300.8" r="1.8" fill="#C15065"></circle><circle cx="222.7" cy="301.7" r="1.8" fill="#C15065"></circle><circle cx="245.1" cy="300.4" r="1.8" fill="#C15065"></circle><circle cx="267.5" cy="298.8" r="1.8" fill="#C15065"></circle><circle cx="289.9" cy="298.3" r="1.8" fill="#C15065"></circle><circle cx="312.3" cy="298.4" r="1.8" fill="#C15065"></circle><circle cx="334.6" cy="299" r="1.8" fill="#C15065"></circle><circle cx="357" cy="300.5" r="1.8" fill="#C15065"></circle><circle cx="379.4" cy="302" r="1.8" fill="#C15065"></circle><circle cx="401.8" cy="306.3" r="1.8" fill="#C15065"></circle><circle cx="424.2" cy="311" r="1.8" fill="#C15065"></circle><circle cx="446.6" cy="315" r="1.8" fill="#C15065"></circle><circle cx="468.9" cy="320.2" r="1.8" fill="#C15065"></circle><circle cx="491.3" cy="323.6" r="1.8" fill="#C15065"></circle><circle cx="513.7" cy="326.8" r="1.8" fill="#C15065"></circle><circle cx="536.1" cy="329.6" r="1.8" fill="#C15065"></circle><circle cx="558.5" cy="331.4" r="1.8" fill="#C15065"></circle><circle cx="580.8" cy="332.5" r="1.8" fill="#C15065"></circle><circle cx="603.2" cy="333" r="1.8" fill="#C15065"></circle><circle cx="625.6" cy="333.8" r="1.8" fill="#C15065"></circle><circle cx="648" cy="334.6" r="1.8" fill="#C15065"></circle><circle cx="670.4" cy="334.1" r="1.8" fill="#C15065"></circle><circle cx="692.8" cy="334.4" r="1.8" fill="#C15065"></circle></g></g></g></g></g></g><g id="footer" class="SourcesFooter" style="fill:#5b5b5b"><g id="sources" class="markdown-text-wrap"><text x="16.0" y="580.9" style="font-size:13.5px;line-height:1.2"><tspan x="16" y="580.9"><tspan style="font-weight:700">Data source:</tspan> IHME, Global Burden of Disease (2019)</tspan></text></g><text id="origin-url" font-size="13.50" x="532.5" y="580.9"><tspan x="532.545" y="580.895"><a target="_blank" style="fill: #5b5b5b;" href="https://ourworldindata.org/alcohol-consumption">OurWorldInData.org/alcohol-consumption</a> | <a target="_blank" style="fill: #5b5b5b;" href="https://creativecommons.org/licenses/by/4.0/">CC BY</a></tspan></text></g></svg>