<svg xmlns="http://www.w3.org/2000/svg" version="1.1" style="font-family:Lato, &#x27;Helvetica Neue&#x27;, Helvetica, Arial, &#x27;Liberation Sans&#x27;, sans-serif;font-size:18px;background-color:#ffffff;text-rendering:geometricPrecision;-webkit-font-smoothing:antialiased" width="850" height="600" viewBox="0 0 850 600"><defs><style>@import url(https://ourworldindata.org/fonts.css)</style></defs><defs><pattern id="noDataPattern" patternUnits="userSpaceOnUse" width="4" height="4" patternTransform="rotate(-45 2 2)"><path d="M -1,2 l 6,0" stroke="#ccc" stroke-width="0.7"></path></pattern></defs><g id="header" class="HeaderView"><g id="logo" transform="translate(769, 16) scale(1)"><svg className="owidLogo" xmlns="http://www.w3.org/2000/svg" width="65" height="36" viewBox="0 0 65 36"  fill="none"><path fill="#002147" d="M0 0h64.8v36H0z"/><path fill="#CE261E" d="M0 33.3h64.8V36H0z"/><path fill="#fff" d="M13.796 10.575c0 .636-.106 1.226-.318 1.77a4.193 4.193 0 0 1-.894 1.404 4.084 4.084 0 0 1-1.386.93c-.54.22-1.138.33-1.794.33-.656 0-1.256-.11-1.8-.33a4.149 4.149 0 0 1-1.392-.93 4.193 4.193 0 0 1-.894-1.404A4.833 4.833 0 0 1 5 10.575c0-.636.106-1.224.318-1.764a4.18 4.18 0 0 1 .894-1.41 4.076 4.076 0 0 1 1.392-.924 4.684 4.684 0 0 1 1.8-.336c.656 0 1.254.112 1.794.336.54.224 1.002.534 1.386.93.384.392.682.86.894 1.404.212.54.318 1.128.318 1.764Zm-1.656 0c0-.476-.064-.902-.192-1.278a2.671 2.671 0 0 0-.54-.966 2.332 2.332 0 0 0-.864-.606 2.94 2.94 0 0 0-1.14-.21c-.424 0-.806.07-1.146.21-.34.14-.63.342-.87.606a2.742 2.742 0 0 0-.546.966 3.955 3.955 0 0 0-.192 1.278c0 .476.064.904.192 1.284.128.376.31.696.546.96.24.26.53.46.87.6.34.14.722.21 1.146.21.424 0 .804-.07 1.14-.21.34-.14.628-.34.864-.6.236-.264.416-.584.54-.96a4.01 4.01 0 0 0 .192-1.284ZM16.104 8.757v3.912c0 .376.086.668.258.876.176.204.438.306.786.306.256 0 .496-.056.72-.168a2.58 2.58 0 0 0 .636-.474V8.757h1.482v6.156h-.906c-.192 0-.318-.09-.378-.27l-.102-.492a4.65 4.65 0 0 1-.396.354 2.577 2.577 0 0 1-.438.27 2.35 2.35 0 0 1-.498.168 2.345 2.345 0 0 1-.57.066c-.336 0-.634-.056-.894-.168a1.821 1.821 0 0 1-.648-.486 2.157 2.157 0 0 1-.402-.738 3.233 3.233 0 0 1-.132-.948V8.757h1.482ZM21.328 14.913V8.757h.87c.152 0 .258.028.318.084.06.056.1.152.12.288l.09.744c.22-.38.478-.68.774-.9.296-.22.628-.33.996-.33.304 0 .556.07.756.21l-.192 1.11c-.012.072-.038.124-.078.156a.278.278 0 0 1-.162.042 1.01 1.01 0 0 1-.246-.042 1.646 1.646 0 0 0-.414-.042c-.308 0-.572.086-.792.258-.22.168-.406.416-.558.744v3.834h-1.482ZM27.347 6.237h1.356a.57.57 0 0 1 .348.102c.096.064.16.152.192.264l1.476 5.19c.036.128.068.268.096.42.032.148.062.306.09.474a5.968 5.968 0 0 1 .228-.894l1.704-5.19a.575.575 0 0 1 .186-.252.543.543 0 0 1 .348-.114h.474a.57.57 0 0 1 .348.102.497.497 0 0 1 .192.264l1.692 5.19c.088.256.164.54.228.852.028-.156.056-.306.084-.45.032-.144.064-.278.096-.402l1.476-5.19c.028-.1.09-.186.186-.258a.563.563 0 0 1 .348-.108h1.266l-2.694 8.676h-1.458l-1.896-5.928-.078-.246a9.504 9.504 0 0 1-.072-.282c-.024.1-.05.194-.078.282-.024.088-.048.17-.072.246l-1.914 5.928H30.04l-2.694-8.676ZM42.771 8.661c.46 0 .876.074 1.248.222.376.148.696.358.96.63s.468.604.612.996c.144.392.216.83.216 1.314 0 .488-.072.928-.216 1.32a2.85 2.85 0 0 1-.612 1.002 2.653 2.653 0 0 1-.96.636 3.35 3.35 0 0 1-1.248.222c-.46 0-.878-.074-1.254-.222a2.712 2.712 0 0 1-.966-.636 2.922 2.922 0 0 1-.618-1.002 3.807 3.807 0 0 1-.216-1.32c0-.484.072-.922.216-1.314.148-.392.354-.724.618-.996.268-.272.59-.482.966-.63a3.397 3.397 0 0 1 1.254-.222Zm0 5.202c.512 0 .89-.172 1.134-.516.248-.344.372-.848.372-1.512s-.124-1.17-.372-1.518c-.244-.348-.622-.522-1.134-.522-.52 0-.904.176-1.152.528-.248.348-.372.852-.372 1.512s.124 1.164.372 1.512c.248.344.632.516 1.152.516ZM46.723 14.913V8.757h.87c.152 0 .258.028.318.084.06.056.1.152.12.288l.09.744c.22-.38.478-.68.774-.9.296-.22.628-.33.996-.33.304 0 .556.07.756.21l-.192 1.11c-.012.072-.038.124-.078.156a.278.278 0 0 1-.162.042 1.01 1.01 0 0 1-.246-.042 1.646 1.646 0 0 0-.414-.042c-.308 0-.572.086-.792.258-.22.168-.406.416-.558.744v3.834h-1.482ZM52.96 5.997v8.916h-1.482V5.997h1.482ZM58.732 14.913c-.192 0-.318-.09-.378-.27l-.12-.594a3.68 3.68 0 0 1-.402.39c-.14.116-.292.216-.456.3-.16.084-.334.148-.522.192a2.372 2.372 0 0 1-.6.072c-.336 0-.644-.07-.924-.21a2.098 2.098 0 0 1-.726-.606 3.033 3.033 0 0 1-.468-.99 5.072 5.072 0 0 1-.162-1.344c0-.456.062-.88.186-1.272s.302-.732.534-1.02c.232-.288.51-.512.834-.672a2.384 2.384 0 0 1 1.092-.246 2.103 2.103 0 0 1 1.536.606V5.997h1.482v8.916h-.906Zm-1.974-1.086c.308 0 .57-.064.786-.192.216-.128.42-.31.612-.546v-2.76a1.452 1.452 0 0 0-.552-.432 1.597 1.597 0 0 0-.636-.126c-.224 0-.428.042-.612.126a1.21 1.21 0 0 0-.462.384c-.124.168-.22.384-.288.648-.068.26-.102.568-.102.924 0 .36.028.666.084.918.06.248.144.452.252.612.108.156.24.27.396.342.156.068.33.102.522.102ZM16.331 20.757v6.156H14.85v-6.156h1.481Zm.223-1.794a.844.844 0 0 1-.078.36.963.963 0 0 1-.21.294.995.995 0 0 1-.3.204.963.963 0 0 1-.372.072.948.948 0 0 1-.367-.072 1.018 1.018 0 0 1-.498-.498.963.963 0 0 1 0-.732.995.995 0 0 1 .205-.3.929.929 0 0 1 .293-.198.899.899 0 0 1 .738 0 .912.912 0 0 1 .3.198.943.943 0 0 1 .288.672ZM17.771 26.913v-6.156h.906c.192 0 .318.09.378.27l.102.486a2.934 2.934 0 0 1 .828-.618c.156-.076.322-.134.498-.174.176-.04.368-.06.576-.06.336 0 .634.058.894.174.26.112.476.272.648.48.176.204.308.45.396.738.092.284.138.598.138.942v3.918h-1.482v-3.918c0-.376-.088-.666-.264-.87-.172-.208-.432-.312-.78-.312-.256 0-.496.058-.72.174a2.58 2.58 0 0 0-.636.474v4.452h-1.482ZM34.22 22.575c0 .636-.106 1.22-.318 1.752-.212.532-.51.99-.894 1.374a4 4 0 0 1-1.386.894 4.87 4.87 0 0 1-1.794.318h-3.312v-8.676h3.312a4.79 4.79 0 0 1 1.794.324 4 4 0 0 1 1.386.894c.384.38.682.836.894 1.368.212.532.318 1.116.318 1.752Zm-1.65 0c0-.476-.064-.902-.192-1.278a2.68 2.68 0 0 0-.546-.96 2.332 2.332 0 0 0-.864-.606 2.94 2.94 0 0 0-1.14-.21h-1.686v6.108h1.686c.424 0 .804-.07 1.14-.21.34-.14.628-.34.864-.6a2.75 2.75 0 0 0 .546-.96 4.01 4.01 0 0 0 .192-1.284ZM39.98 26.913h-.665c-.14 0-.25-.02-.33-.06-.08-.044-.14-.13-.18-.258l-.132-.438c-.156.14-.31.264-.462.372a2.804 2.804 0 0 1-.462.264c-.16.072-.33.126-.51.162-.18.036-.38.054-.6.054-.26 0-.5-.034-.72-.102a1.618 1.618 0 0 1-.57-.318 1.448 1.448 0 0 1-.366-.522 1.852 1.852 0 0 1-.132-.726c0-.232.06-.46.18-.684.124-.228.328-.432.612-.612.284-.184.662-.336 1.134-.456.472-.12 1.058-.188 1.758-.204v-.36c0-.412-.088-.716-.264-.912-.172-.2-.424-.3-.756-.3a1.837 1.837 0 0 0-1.02.276c-.116.068-.224.13-.324.186a.664.664 0 0 1-.33.084.429.429 0 0 1-.258-.078.614.614 0 0 1-.174-.192l-.27-.474c.708-.648 1.562-.972 2.562-.972.36 0 .68.06.96.18.284.116.524.28.72.492.196.208.344.458.444.75.104.292.156.612.156.96v3.888Zm-2.88-.924c.153 0 .293-.014.42-.042.129-.028.249-.07.36-.126.117-.056.227-.124.33-.204.109-.084.217-.182.325-.294v-1.038c-.432.02-.794.058-1.086.114-.288.052-.52.12-.696.204a.923.923 0 0 0-.378.294.664.664 0 0 0-.108.366c0 .26.076.446.228.558.156.112.358.168.606.168ZM43.22 27.01c-.532 0-.942-.15-1.23-.45-.288-.305-.432-.723-.432-1.255v-3.438h-.624a.31.31 0 0 1-.21-.078c-.056-.052-.084-.13-.084-.234v-.588l.99-.162.312-1.68a.302.302 0 0 1 .108-.186.365.365 0 0 1 .222-.066h.768v1.938h1.62v1.056h-1.62v3.336c0 .192.048.342.144.45a.488.488 0 0 0 .384.162c.092 0 .168-.01.228-.03.064-.024.118-.048.162-.072.048-.024.09-.046.126-.066a.194.194 0 0 1 .108-.036.16.16 0 0 1 .108.036c.028.02.058.052.09.096l.444.72c-.216.18-.464.316-.744.408a2.77 2.77 0 0 1-.87.138ZM50.423 26.913h-.666c-.14 0-.25-.02-.33-.06-.08-.044-.14-.13-.18-.258l-.132-.438c-.156.14-.31.264-.462.372a2.804 2.804 0 0 1-.462.264c-.16.072-.33.126-.51.162-.18.036-.38.054-.6.054-.26 0-.5-.034-.72-.102a1.618 1.618 0 0 1-.57-.318 1.448 1.448 0 0 1-.366-.522 1.852 1.852 0 0 1-.132-.726c0-.232.06-.46.18-.684.124-.228.328-.432.612-.612.284-.184.662-.336 1.134-.456.472-.12 1.058-.188 1.758-.204v-.36c0-.412-.088-.716-.264-.912-.172-.2-.424-.3-.756-.3a1.837 1.837 0 0 0-1.02.276c-.116.068-.224.13-.324.186a.664.664 0 0 1-.33.084.429.429 0 0 1-.258-.078.614.614 0 0 1-.174-.192l-.27-.474c.708-.648 1.562-.972 2.562-.972.36 0 .68.06.96.18.284.116.524.28.72.492.196.208.344.458.444.75.104.292.156.612.156.96v3.888Zm-2.88-.924c.152 0 .292-.014.42-.042.128-.028.248-.07.36-.126.116-.056.226-.124.33-.204.108-.084.216-.182.324-.294v-1.038c-.432.02-.794.058-1.086.114-.288.052-.52.12-.696.204a.923.923 0 0 0-.378.294.664.664 0 0 0-.108.366c0 .26.076.446.228.558.156.112.358.168.606.168Z"/></svg></g><a id="title" href="https://ourworldindata.org/grapher/alcohol-expenditure" style="font-family:&#x27;Playfair Display&#x27;, Georgia, &#x27;Times New Roman&#x27;, &#x27;Liberation Serif&#x27;, serif" target="_blank" rel="noopener"><text font-size="25.00" font-weight="600" x="16.0" y="40.3" fill="#2d2e2d"><tspan x="16" y="40.25">Alcohol expenditure, United States, 1935 to 2014</tspan></text></a><g id="subtitle" class="markdown-text-wrap"><text x="16.0" y="66.5" style="font-size:15px;line-height:1.2" fill="#5b5b5b"><tspan x="16" y="66.5">Total alcohol expenditure is adjusted for inflation and includes taxes and tips.</tspan></text></g></g><g id="chart-area" style="pointer-events:none"><g id="horizontal-axis" class="HorizontalAxis"><g id="tick-marks"><line id="1935" x1="54.4" y1="531.9" x2="54.4" y2="537.4" stroke="#999" stroke-width="1"></line><line id="2014" x1="693.6" y1="531.9" x2="693.6" y2="537.4" stroke="#999" stroke-width="1"></line><line id="1950" x1="175.8" y1="531.9" x2="175.8" y2="537.4" stroke="#999" stroke-width="1"></line><line id="1960" x1="256.7" y1="531.9" x2="256.7" y2="537.4" stroke="#999" stroke-width="1"></line><line id="1970" x1="337.6" y1="531.9" x2="337.6" y2="537.4" stroke="#999" stroke-width="1"></line><line id="1980" x1="418.5" y1="531.9" x2="418.5" y2="537.4" stroke="#999" stroke-width="1"></line><line id="1990" x1="499.4" y1="531.9" x2="499.4" y2="537.4" stroke="#999" stroke-width="1"></line><line id="2000" x1="580.3" y1="531.9" x2="580.3" y2="537.4" stroke="#999" stroke-width="1"></line></g><g id="tick-labels"><text x="54.410000000000004" y="550.4" fill="#5b5b5b" text-anchor="start" font-size="13">1935</text><text x="693.5899999999999" y="550.4" fill="#5b5b5b" text-anchor="end" font-size="13">2014</text><text x="175.8" y="550.4" fill="#5b5b5b" text-anchor="middle" font-size="13">1950</text><text x="256.7" y="550.4" fill="#5b5b5b" text-anchor="middle" font-size="13">1960</text><text x="337.6" y="550.4" fill="#5b5b5b" text-anchor="middle" font-size="13">1970</text><text x="418.5" y="550.4" fill="#5b5b5b" text-anchor="middle" font-size="13">1980</text><text x="499.4" y="550.4" fill="#5b5b5b" text-anchor="middle" font-size="13">1990</text><text x="580.3" y="550.4" fill="#5b5b5b" text-anchor="middle" font-size="13">2000</text></g></g><g id="vertical-axis" class="VerticalAxis"><g id="tick-labels"><text x="49.41" y="532.4" dy=".32em" text-anchor="end" fill="#5b5b5b" font-size="13">0%</text><text x="49.41" y="444.3" dy=".32em" text-anchor="end" fill="#5b5b5b" font-size="13">20%</text><text x="49.41" y="356.2" dy=".32em" text-anchor="end" fill="#5b5b5b" font-size="13">40%</text><text x="49.41" y="268.2" dy=".32em" text-anchor="end" fill="#5b5b5b" font-size="13">60%</text><text x="49.41" y="180.1" dy=".32em" text-anchor="end" fill="#5b5b5b" font-size="13">80%</text><text x="49.41" y="92" dy=".32em" text-anchor="end" fill="#5b5b5b" font-size="13">100%</text></g></g><g id="horizontal-grid-lines" class="AxisGridLines horizontalLines"><line id="0%" x1="54.41" y1="532.4" x2="693.59" y2="532.4" stroke="#999"></line><line id="20%" x1="54.41" y1="444.3" x2="693.59" y2="444.3" stroke="#ddd" stroke-dasharray="4,4"></line><line id="40%" x1="54.41" y1="356.2" x2="693.59" y2="356.2" stroke="#ddd" stroke-dasharray="4,4"></line><line id="60%" x1="54.41" y1="268.2" x2="693.59" y2="268.2" stroke="#ddd" stroke-dasharray="4,4"></line><line id="80%" x1="54.41" y1="180.1" x2="693.59" y2="180.1" stroke="#ddd" stroke-dasharray="4,4"></line><line id="100%" x1="54.41" y1="92" x2="693.59" y2="92" stroke="#ddd" stroke-dasharray="4,4"></line></g><g id="line-labels" class="LineLabels"><g id="text-annotations"></g><g id="text-labels"><text font-size="13.00" font-weight="400" x="697.6" y="124.0" fill="#970046" opacity="1" text-anchor="start"><tspan x="697.5899999999999" y="124.00999999999999">Other (at home)</tspan></text><text font-size="13.00" font-weight="400" x="697.6" y="173.6" fill="#b16214" opacity="1" text-anchor="start"><tspan x="697.5899999999999" y="173.56">Food stores (at</tspan><tspan x="697.5899999999999" y="187.86">home)</tspan></text><text font-size="13.00" font-weight="400" x="697.6" y="262.4" fill="#b13507" opacity="1" text-anchor="start"><tspan x="697.5899999999999" y="262.35999999999996">Liquor stores (at</tspan><tspan x="697.5899999999999" y="276.65999999999997">home)</tspan></text><text font-size="13.00" font-weight="400" x="697.6" y="330.1" fill="#578145" opacity="1" text-anchor="start"><tspan x="697.5899999999999" y="330.10999999999996">All other (away</tspan><tspan x="697.5899999999999" y="344.40999999999997">from home)</tspan></text><text font-size="13.00" font-weight="400" x="697.6" y="362.7" fill="#883039" opacity="1" text-anchor="start"><tspan x="697.5899999999999" y="362.71">Hotels &amp; motels</tspan><tspan x="697.5899999999999" y="377.01">(away from home)</tspan></text><text font-size="13.00" font-weight="400" x="697.6" y="439.3" fill="#4c6a9c" opacity="1" text-anchor="start"><tspan x="697.5899999999999" y="439.31">Restaurants &amp; bars</tspan><tspan x="697.5899999999999" y="453.61">(away from home)</tspan></text></g></g><g class="Areas" id="stacked-areas"><g id="areas"><path id="Restaurants-&amp;-bars-(away-from-home)-" class="Restaurants-__0026-bars-__0028away-from-home__0029--area" stroke-linecap="round" d="M54.4 272.6L62.5 277.7L70.6 282.4L78.7 281.5L86.8 279L94.9 283.3L103 282.9L111 290L119.1 289.7L127.2 294.1L135.3 294.7L143.4 302.4L151.5 299.8L159.6 302.4L167.7 304.5L175.8 306.9L183.9 308.9L192 312.5L200 314.1L208.1 317.7L216.2 319.8L224.3 324.7L232.4 329.1L240.5 333.4L248.6 337.2L256.7 339.9L264.8 341.9L272.9 346.4L281 348.5L289 352.2L297.1 355L305.2 358.4L313.3 359.5L321.4 361.7L329.5 364.6L337.6 363.2L345.7 367.7L353.8 375.5L361.9 373L370 375L378 374.6L386.1 373.3L394.2 373.4L402.3 370.4L410.4 368.9L418.5 370.3L426.6 369.8L434.7 371.3L442.8 375.4L450.9 373.5L459 373.9L467 370.9L475.1 360.4L483.2 357.8L491.3 360.3L499.4 360.6L507.5 360.2L515.6 359L523.7 358.1L531.8 358.3L539.9 357L548 357.9L556 352.4L564.1 354.9L572.2 357.5L580.3 352.4L588.4 346.6L596.5 348.2L604.6 348L612.7 352.8L620.8 354.8L628.9 357L637 362.3L645 370.3L653.1 370.6L661.2 371.9L669.3 371.1L677.4 370L685.5 369.1L693.6 365.2L693.6 532.4L54.4 532.4" fill="#4c6a9c" fill-opacity="0.8"></path><path id="Hotels-&amp;-motels-(away-from-home)" class="Hotels-__0026-motels-__0028away-from-home__0029-area" stroke-linecap="round" d="M54.4 250.7L62.5 257L70.6 261.4L78.7 261.8L86.8 259.8L94.9 264L103 265.2L111 273.9L119.1 272.5L127.2 277.5L135.3 279.2L143.4 286.7L151.5 284.5L159.6 287.5L167.7 289.9L175.8 292.4L183.9 294.9L192 298.6L200 300.3L208.1 304.5L216.2 306.2L224.3 311.2L232.4 315.5L240.5 320L248.6 323.3L256.7 325.4L264.8 326.8L272.9 331L281 332.6L289 336L297.1 338.1L305.2 341.1L313.3 342.1L321.4 344.5L329.5 347.7L337.6 346.4L345.7 350.3L353.8 356.4L361.9 353.5L370 355.4L378 354.5L386.1 350.9L394.2 350.7L402.3 345.9L410.4 344L418.5 346.6L426.6 344.9L434.7 346.3L442.8 350.2L450.9 347.8L459 348.1L467 346.2L475.1 337.3L483.2 334.5L491.3 337.9L499.4 340L507.5 340.8L515.6 339.5L523.7 339L531.8 339.4L539.9 338.4L548 340.1L556 333.6L564.1 329.1L572.2 325.1L580.3 324.7L588.4 325.8L596.5 331.4L604.6 331.7L612.7 336.3L620.8 338.5L628.9 341.3L637 347.2L645 356L653.1 356.6L661.2 358.2L669.3 357.8L677.4 357.1L685.5 356.4L693.6 352.9L693.6 365.2L685.5 369.1L677.4 370L669.3 371.1L661.2 371.9L653.1 370.6L645 370.3L637 362.3L628.9 357L620.8 354.8L612.7 352.8L604.6 348L596.5 348.2L588.4 346.6L580.3 352.4L572.2 357.5L564.1 354.9L556 352.4L548 357.9L539.9 357L531.8 358.3L523.7 358.1L515.6 359L507.5 360.2L499.4 360.6L491.3 360.3L483.2 357.8L475.1 360.4L467 370.9L459 373.9L450.9 373.5L442.8 375.4L434.7 371.3L426.6 369.8L418.5 370.3L410.4 368.9L402.3 370.4L394.2 373.4L386.1 373.3L378 374.6L370 375L361.9 373L353.8 375.5L345.7 367.7L337.6 363.2L329.5 364.6L321.4 361.7L313.3 359.5L305.2 358.4L297.1 355L289 352.2L281 348.5L272.9 346.4L264.8 341.9L256.7 339.9L248.6 337.2L240.5 333.4L232.4 329.1L224.3 324.7L216.2 319.8L208.1 317.7L200 314.1L192 312.5L183.9 308.9L175.8 306.9L167.7 304.5L159.6 302.4L151.5 299.8L143.4 302.4L135.3 294.7L127.2 294.1L119.1 289.7L111 290L103 282.9L94.9 283.3L86.8 279L78.7 281.5L70.6 282.4L62.5 277.7L54.4 272.6" fill="#883039" fill-opacity="0.8"></path><path id="All-other-(away-from-home)" class="All-other-__0028away-from-home__0029-area" stroke-linecap="round" d="M54.4 245.4L62.5 251.9L70.6 256L78.7 256.5L86.8 254.6L94.9 258.8L103 260L111 268.7L119.1 267.2L127.2 272.3L135.3 274L143.4 281.5L151.5 279.2L159.6 281.9L167.7 283.7L175.8 285.4L183.9 287.1L192 289.9L200 290.8L208.1 294L216.2 295.7L224.3 300.8L232.4 305L240.5 309.4L248.6 312.1L256.7 313.3L264.8 313.9L272.9 317.9L281 319.3L289 322.5L297.1 324.3L305.2 327L313.3 326.8L321.4 329.5L329.5 332.5L337.6 331.8L345.7 336.3L353.8 342.4L361.9 339.7L370 342.3L378 340.9L386.1 337.4L394.2 333.9L402.3 330.1L410.4 328.5L418.5 332.2L426.6 331L434.7 333.3L442.8 336.9L450.9 334.2L459 334.2L467 332.1L475.1 318.6L483.2 314.3L491.3 316.5L499.4 317.8L507.5 318L515.6 315.6L523.7 315L531.8 315.5L539.9 314.3L548 316.4L556 309.7L564.1 305.6L572.2 300.1L580.3 301L588.4 303.5L596.5 308.5L604.6 307L612.7 309.8L620.8 312.1L628.9 311.6L637 315L645 325.7L653.1 326.7L661.2 328.6L669.3 328.7L677.4 328.2L685.5 326.7L693.6 324.2L693.6 352.9L685.5 356.4L677.4 357.1L669.3 357.8L661.2 358.2L653.1 356.6L645 356L637 347.2L628.9 341.3L620.8 338.5L612.7 336.3L604.6 331.7L596.5 331.4L588.4 325.8L580.3 324.7L572.2 325.1L564.1 329.1L556 333.6L548 340.1L539.9 338.4L531.8 339.4L523.7 339L515.6 339.5L507.5 340.8L499.4 340L491.3 337.9L483.2 334.5L475.1 337.3L467 346.2L459 348.1L450.9 347.8L442.8 350.2L434.7 346.3L426.6 344.9L418.5 346.6L410.4 344L402.3 345.9L394.2 350.7L386.1 350.9L378 354.5L370 355.4L361.9 353.5L353.8 356.4L345.7 350.3L337.6 346.4L329.5 347.7L321.4 344.5L313.3 342.1L305.2 341.1L297.1 338.1L289 336L281 332.6L272.9 331L264.8 326.8L256.7 325.4L248.6 323.3L240.5 320L232.4 315.5L224.3 311.2L216.2 306.2L208.1 304.5L200 300.3L192 298.6L183.9 294.9L175.8 292.4L167.7 289.9L159.6 287.5L151.5 284.5L143.4 286.7L135.3 279.2L127.2 277.5L119.1 272.5L111 273.9L103 265.2L94.9 264L86.8 259.8L78.7 261.8L70.6 261.4L62.5 257L54.4 250.7" fill="#578145" fill-opacity="0.8"></path><path id="Liquor-stores-(at-home)" class="Liquor-stores-__0028at-home__0029-area" stroke-linecap="round" d="M54.4 163.2L62.5 159.1L70.6 159L78.7 160.1L86.8 158.7L94.9 156L103 152.1L111 148.2L119.1 143.8L127.2 140.9L135.3 137.7L143.4 140.5L151.5 137.8L159.6 144.9L167.7 150.2L175.8 151.1L183.9 150.8L192 152L200 152.9L208.1 152.1L216.2 152.8L224.3 151.9L232.4 152.7L240.5 153.8L248.6 154.2L256.7 155.3L264.8 156.1L272.9 156.2L281 157.6L289 159L297.1 160.4L305.2 161.8L313.3 159.9L321.4 160.4L329.5 160.8L337.6 162.2L345.7 161.8L353.8 167.7L361.9 171.4L370 175.2L378 177.6L386.1 177L394.2 178.9L402.3 182.2L410.4 182.5L418.5 187.1L426.6 189.4L434.7 193.1L442.8 198.2L450.9 206.3L459 203.3L467 206.4L475.1 190.6L483.2 191.7L491.3 196.2L499.4 197.4L507.5 196.9L515.6 200.5L523.7 202.2L531.8 203.2L539.9 204.8L548 205.6L556 197.3L564.1 196.8L572.2 195.8L580.3 195.4L588.4 197.6L596.5 199.4L604.6 199.4L612.7 199.8L620.8 200.9L628.9 198.3L637 197.4L645 213.3L653.1 209.7L661.2 211.5L669.3 215.1L677.4 213.8L685.5 209.9L693.6 205.3L693.6 324.2L685.5 326.7L677.4 328.2L669.3 328.7L661.2 328.6L653.1 326.7L645 325.7L637 315L628.9 311.6L620.8 312.1L612.7 309.8L604.6 307L596.5 308.5L588.4 303.5L580.3 301L572.2 300.1L564.1 305.6L556 309.7L548 316.4L539.9 314.3L531.8 315.5L523.7 315L515.6 315.6L507.5 318L499.4 317.8L491.3 316.5L483.2 314.3L475.1 318.6L467 332.1L459 334.2L450.9 334.2L442.8 336.9L434.7 333.3L426.6 331L418.5 332.2L410.4 328.5L402.3 330.1L394.2 333.9L386.1 337.4L378 340.9L370 342.3L361.9 339.7L353.8 342.4L345.7 336.3L337.6 331.8L329.5 332.5L321.4 329.5L313.3 326.8L305.2 327L297.1 324.3L289 322.5L281 319.3L272.9 317.9L264.8 313.9L256.7 313.3L248.6 312.1L240.5 309.4L232.4 305L224.3 300.8L216.2 295.7L208.1 294L200 290.8L192 289.9L183.9 287.1L175.8 285.4L167.7 283.7L159.6 281.9L151.5 279.2L143.4 281.5L135.3 274L127.2 272.3L119.1 267.2L111 268.7L103 260L94.9 258.8L86.8 254.6L78.7 256.5L70.6 256L62.5 251.9L54.4 245.4" fill="#b13507" fill-opacity="0.8"></path><path id="Food-stores-(at-home)" class="Food-stores-__0028at-home__0029-area" stroke-linecap="round" d="M54.4 145.6L62.5 138.9L70.6 137.2L78.7 137.7L86.8 136L94.9 133.7L103 130.6L111 126.6L119.1 123.9L127.2 121.8L135.3 119.8L143.4 119.2L151.5 118.8L159.6 118.7L167.7 119.1L175.8 119.3L183.9 119.1L192 119L200 118.9L208.1 119.1L216.2 119.3L224.3 118.9L232.4 119L240.5 118.6L248.6 118.4L256.7 118.4L264.8 118.6L272.9 117.7L281 117.1L289 117.1L297.1 117.3L305.2 117.1L313.3 117.1L321.4 116.5L329.5 116.1L337.6 115.5L345.7 114.6L353.8 114.1L361.9 114.9L370 114.8L378 115.2L386.1 116.6L394.2 117.8L402.3 119L410.4 118.8L418.5 119.3L426.6 120.4L434.7 121.6L442.8 124L450.9 125.3L459 123.8L467 128.5L475.1 122.8L483.2 123.7L491.3 126.2L499.4 127.1L507.5 128.7L515.6 133.6L523.7 133.8L531.8 133.3L539.9 133.5L548 133.5L556 128.4L564.1 126.5L572.2 126.2L580.3 126.8L588.4 126.6L596.5 131.7L604.6 133.6L612.7 134.8L620.8 136.4L628.9 136.2L637 134.9L645 153.1L653.1 148.9L661.2 151.1L669.3 154.4L677.4 154.4L685.5 150.3L693.6 146.5L693.6 205.3L685.5 209.9L677.4 213.8L669.3 215.1L661.2 211.5L653.1 209.7L645 213.3L637 197.4L628.9 198.3L620.8 200.9L612.7 199.8L604.6 199.4L596.5 199.4L588.4 197.6L580.3 195.4L572.2 195.8L564.1 196.8L556 197.3L548 205.6L539.9 204.8L531.8 203.2L523.7 202.2L515.6 200.5L507.5 196.9L499.4 197.4L491.3 196.2L483.2 191.7L475.1 190.6L467 206.4L459 203.3L450.9 206.3L442.8 198.2L434.7 193.1L426.6 189.4L418.5 187.1L410.4 182.5L402.3 182.2L394.2 178.9L386.1 177L378 177.6L370 175.2L361.9 171.4L353.8 167.7L345.7 161.8L337.6 162.2L329.5 160.8L321.4 160.4L313.3 159.9L305.2 161.8L297.1 160.4L289 159L281 157.6L272.9 156.2L264.8 156.1L256.7 155.3L248.6 154.2L240.5 153.8L232.4 152.7L224.3 151.9L216.2 152.8L208.1 152.1L200 152.9L192 152L183.9 150.8L175.8 151.1L167.7 150.2L159.6 144.9L151.5 137.8L143.4 140.5L135.3 137.7L127.2 140.9L119.1 143.8L111 148.2L103 152.1L94.9 156L86.8 158.7L78.7 160.1L70.6 159L62.5 159.1L54.4 163.2" fill="#b16214" fill-opacity="0.8"></path><path id="Other-(at-home)" class="Other-__0028at-home__0029-area" stroke-linecap="round" d="M54.4 92L62.5 92L70.6 92L78.7 92L86.8 92L94.9 92L103 92L111 92L119.1 92L127.2 92L135.3 92L143.4 92L151.5 92L159.6 92L167.7 92L175.8 92L183.9 92L192 92L200 92L208.1 92L216.2 92L224.3 92L232.4 92L240.5 92L248.6 92L256.7 92L264.8 92L272.9 92L281 92L289 92L297.1 92L305.2 92L313.3 92L321.4 92L329.5 92L337.6 92L345.7 92L353.8 92L361.9 92L370 92L378 92L386.1 92L394.2 92L402.3 92L410.4 92L418.5 92L426.6 92L434.7 92L442.8 92L450.9 92L459 92L467 92L475.1 92L483.2 92L491.3 92L499.4 92L507.5 92L515.6 92L523.7 92L531.8 92L539.9 92L548 92L556 92L564.1 92L572.2 92L580.3 92L588.4 92L596.5 92L604.6 92L612.7 92L620.8 92L628.9 92L637 92L645 92L653.1 92L661.2 92L669.3 92L677.4 92L685.5 92L693.6 92L693.6 146.5L685.5 150.3L677.4 154.4L669.3 154.4L661.2 151.1L653.1 148.9L645 153.1L637 134.9L628.9 136.2L620.8 136.4L612.7 134.8L604.6 133.6L596.5 131.7L588.4 126.6L580.3 126.8L572.2 126.2L564.1 126.5L556 128.4L548 133.5L539.9 133.5L531.8 133.3L523.7 133.8L515.6 133.6L507.5 128.7L499.4 127.1L491.3 126.2L483.2 123.7L475.1 122.8L467 128.5L459 123.8L450.9 125.3L442.8 124L434.7 121.6L426.6 120.4L418.5 119.3L410.4 118.8L402.3 119L394.2 117.8L386.1 116.6L378 115.2L370 114.8L361.9 114.9L353.8 114.1L345.7 114.6L337.6 115.5L329.5 116.1L321.4 116.5L313.3 117.1L305.2 117.1L297.1 117.3L289 117.1L281 117.1L272.9 117.7L264.8 118.6L256.7 118.4L248.6 118.4L240.5 118.6L232.4 119L224.3 118.9L216.2 119.3L208.1 119.1L200 118.9L192 119L183.9 119.1L175.8 119.3L167.7 119.1L159.6 118.7L151.5 118.8L143.4 119.2L135.3 119.8L127.2 121.8L119.1 123.9L111 126.6L103 130.6L94.9 133.7L86.8 136L78.7 137.7L70.6 137.2L62.5 138.9L54.4 145.6" fill="#970046" fill-opacity="0.8"></path></g><g id="borders"><path id="Restaurants-&amp;-bars-(away-from-home)-" class="Restaurants-__0026-bars-__0028away-from-home__0029--border" stroke-linecap="round" d="M54.4 272.6L62.5 277.7L70.6 282.4L78.7 281.5L86.8 279L94.9 283.3L103 282.9L111 290L119.1 289.7L127.2 294.1L135.3 294.7L143.4 302.4L151.5 299.8L159.6 302.4L167.7 304.5L175.8 306.9L183.9 308.9L192 312.5L200 314.1L208.1 317.7L216.2 319.8L224.3 324.7L232.4 329.1L240.5 333.4L248.6 337.2L256.7 339.9L264.8 341.9L272.9 346.4L281 348.5L289 352.2L297.1 355L305.2 358.4L313.3 359.5L321.4 361.7L329.5 364.6L337.6 363.2L345.7 367.7L353.8 375.5L361.9 373L370 375L378 374.6L386.1 373.3L394.2 373.4L402.3 370.4L410.4 368.9L418.5 370.3L426.6 369.8L434.7 371.3L442.8 375.4L450.9 373.5L459 373.9L467 370.9L475.1 360.4L483.2 357.8L491.3 360.3L499.4 360.6L507.5 360.2L515.6 359L523.7 358.1L531.8 358.3L539.9 357L548 357.9L556 352.4L564.1 354.9L572.2 357.5L580.3 352.4L588.4 346.6L596.5 348.2L604.6 348L612.7 352.8L620.8 354.8L628.9 357L637 362.3L645 370.3L653.1 370.6L661.2 371.9L669.3 371.1L677.4 370L685.5 369.1L693.6 365.2" stroke="rgb(64, 89, 131)" stroke-opacity="0.7" stroke-width="0.5" fill="none"></path><path id="Hotels-&amp;-motels-(away-from-home)" class="Hotels-__0026-motels-__0028away-from-home__0029-border" stroke-linecap="round" d="M54.4 250.7L62.5 257L70.6 261.4L78.7 261.8L86.8 259.8L94.9 264L103 265.2L111 273.9L119.1 272.5L127.2 277.5L135.3 279.2L143.4 286.7L151.5 284.5L159.6 287.5L167.7 289.9L175.8 292.4L183.9 294.9L192 298.6L200 300.3L208.1 304.5L216.2 306.2L224.3 311.2L232.4 315.5L240.5 320L248.6 323.3L256.7 325.4L264.8 326.8L272.9 331L281 332.6L289 336L297.1 338.1L305.2 341.1L313.3 342.1L321.4 344.5L329.5 347.7L337.6 346.4L345.7 350.3L353.8 356.4L361.9 353.5L370 355.4L378 354.5L386.1 350.9L394.2 350.7L402.3 345.9L410.4 344L418.5 346.6L426.6 344.9L434.7 346.3L442.8 350.2L450.9 347.8L459 348.1L467 346.2L475.1 337.3L483.2 334.5L491.3 337.9L499.4 340L507.5 340.8L515.6 339.5L523.7 339L531.8 339.4L539.9 338.4L548 340.1L556 333.6L564.1 329.1L572.2 325.1L580.3 324.7L588.4 325.8L596.5 331.4L604.6 331.7L612.7 336.3L620.8 338.5L628.9 341.3L637 347.2L645 356L653.1 356.6L661.2 358.2L669.3 357.8L677.4 357.1L685.5 356.4L693.6 352.9" stroke="rgb(114, 40, 48)" stroke-opacity="0.7" stroke-width="0.5" fill="none"></path><path id="All-other-(away-from-home)" class="All-other-__0028away-from-home__0029-border" stroke-linecap="round" d="M54.4 245.4L62.5 251.9L70.6 256L78.7 256.5L86.8 254.6L94.9 258.8L103 260L111 268.7L119.1 267.2L127.2 272.3L135.3 274L143.4 281.5L151.5 279.2L159.6 281.9L167.7 283.7L175.8 285.4L183.9 287.1L192 289.9L200 290.8L208.1 294L216.2 295.7L224.3 300.8L232.4 305L240.5 309.4L248.6 312.1L256.7 313.3L264.8 313.9L272.9 317.9L281 319.3L289 322.5L297.1 324.3L305.2 327L313.3 326.8L321.4 329.5L329.5 332.5L337.6 331.8L345.7 336.3L353.8 342.4L361.9 339.7L370 342.3L378 340.9L386.1 337.4L394.2 333.9L402.3 330.1L410.4 328.5L418.5 332.2L426.6 331L434.7 333.3L442.8 336.9L450.9 334.2L459 334.2L467 332.1L475.1 318.6L483.2 314.3L491.3 316.5L499.4 317.8L507.5 318L515.6 315.6L523.7 315L531.8 315.5L539.9 314.3L548 316.4L556 309.7L564.1 305.6L572.2 300.1L580.3 301L588.4 303.5L596.5 308.5L604.6 307L612.7 309.8L620.8 312.1L628.9 311.6L637 315L645 325.7L653.1 326.7L661.2 328.6L669.3 328.7L677.4 328.2L685.5 326.7L693.6 324.2" stroke="rgb(73, 108, 58)" stroke-opacity="0.7" stroke-width="0.5" fill="none"></path><path id="Liquor-stores-(at-home)" class="Liquor-stores-__0028at-home__0029-border" stroke-linecap="round" d="M54.4 163.2L62.5 159.1L70.6 159L78.7 160.1L86.8 158.7L94.9 156L103 152.1L111 148.2L119.1 143.8L127.2 140.9L135.3 137.7L143.4 140.5L151.5 137.8L159.6 144.9L167.7 150.2L175.8 151.1L183.9 150.8L192 152L200 152.9L208.1 152.1L216.2 152.8L224.3 151.9L232.4 152.7L240.5 153.8L248.6 154.2L256.7 155.3L264.8 156.1L272.9 156.2L281 157.6L289 159L297.1 160.4L305.2 161.8L313.3 159.9L321.4 160.4L329.5 160.8L337.6 162.2L345.7 161.8L353.8 167.7L361.9 171.4L370 175.2L378 177.6L386.1 177L394.2 178.9L402.3 182.2L410.4 182.5L418.5 187.1L426.6 189.4L434.7 193.1L442.8 198.2L450.9 206.3L459 203.3L467 206.4L475.1 190.6L483.2 191.7L491.3 196.2L499.4 197.4L507.5 196.9L515.6 200.5L523.7 202.2L531.8 203.2L539.9 204.8L548 205.6L556 197.3L564.1 196.8L572.2 195.8L580.3 195.4L588.4 197.6L596.5 199.4L604.6 199.4L612.7 199.8L620.8 200.9L628.9 198.3L637 197.4L645 213.3L653.1 209.7L661.2 211.5L669.3 215.1L677.4 213.8L685.5 209.9L693.6 205.3" stroke="rgb(148, 44, 6)" stroke-opacity="0.7" stroke-width="0.5" fill="none"></path><path id="Food-stores-(at-home)" class="Food-stores-__0028at-home__0029-border" stroke-linecap="round" d="M54.4 145.6L62.5 138.9L70.6 137.2L78.7 137.7L86.8 136L94.9 133.7L103 130.6L111 126.6L119.1 123.9L127.2 121.8L135.3 119.8L143.4 119.2L151.5 118.8L159.6 118.7L167.7 119.1L175.8 119.3L183.9 119.1L192 119L200 118.9L208.1 119.1L216.2 119.3L224.3 118.9L232.4 119L240.5 118.6L248.6 118.4L256.7 118.4L264.8 118.6L272.9 117.7L281 117.1L289 117.1L297.1 117.3L305.2 117.1L313.3 117.1L321.4 116.5L329.5 116.1L337.6 115.5L345.7 114.6L353.8 114.1L361.9 114.9L370 114.8L378 115.2L386.1 116.6L394.2 117.8L402.3 119L410.4 118.8L418.5 119.3L426.6 120.4L434.7 121.6L442.8 124L450.9 125.3L459 123.8L467 128.5L475.1 122.8L483.2 123.7L491.3 126.2L499.4 127.1L507.5 128.7L515.6 133.6L523.7 133.8L531.8 133.3L539.9 133.5L548 133.5L556 128.4L564.1 126.5L572.2 126.2L580.3 126.8L588.4 126.6L596.5 131.7L604.6 133.6L612.7 134.8L620.8 136.4L628.9 136.2L637 134.9L645 153.1L653.1 148.9L661.2 151.1L669.3 154.4L677.4 154.4L685.5 150.3L693.6 146.5" stroke="rgb(148, 82, 17)" stroke-opacity="0.7" stroke-width="0.5" fill="none"></path><path id="Other-(at-home)" class="Other-__0028at-home__0029-border" stroke-linecap="round" d="M54.4 92L62.5 92L70.6 92L78.7 92L86.8 92L94.9 92L103 92L111 92L119.1 92L127.2 92L135.3 92L143.4 92L151.5 92L159.6 92L167.7 92L175.8 92L183.9 92L192 92L200 92L208.1 92L216.2 92L224.3 92L232.4 92L240.5 92L248.6 92L256.7 92L264.8 92L272.9 92L281 92L289 92L297.1 92L305.2 92L313.3 92L321.4 92L329.5 92L337.6 92L345.7 92L353.8 92L361.9 92L370 92L378 92L386.1 92L394.2 92L402.3 92L410.4 92L418.5 92L426.6 92L434.7 92L442.8 92L450.9 92L459 92L467 92L475.1 92L483.2 92L491.3 92L499.4 92L507.5 92L515.6 92L523.7 92L531.8 92L539.9 92L548 92L556 92L564.1 92L572.2 92L580.3 92L588.4 92L596.5 92L604.6 92L612.7 92L620.8 92L628.9 92L637 92L645 92L653.1 92L661.2 92L669.3 92L677.4 92L685.5 92L693.6 92" stroke="rgb(126, 0, 59)" stroke-opacity="0.7" stroke-width="0.5" fill="none"></path></g></g></g><g id="footer" class="SourcesFooter" style="fill:#858585"><g id="sources" class="markdown-text-wrap"><text x="16.0" y="581.0" style="font-size:13px;line-height:1.2"><tspan x="16" y="581.0"><tspan style="font-weight:700">Data source:</tspan> USDA ERS</tspan></text></g><text id="origin-url" font-size="13.00" x="544.5" y="581.0"><tspan x="544.49" y="581.01"><a target="_blank" style="fill: #858585;" href="https://ourworldindata.org/alcohol-consumption">OurWorldinData.org/alcohol-consumption</a> | <a target="_blank" style="fill: #858585;" href="https://creativecommons.org/licenses/by/4.0/">CC BY</a></tspan></text></g></svg>