<svg xmlns="http://www.w3.org/2000/svg" version="1.1" style="font-family:Lato, &#x27;Helvetica Neue&#x27;, Helvetica, Arial, &#x27;Liberation Sans&#x27;, sans-serif;font-size:18px;background-color:#ffffff;text-rendering:geometricPrecision;-webkit-font-smoothing:antialiased" width="850" height="600" viewBox="0 0 850 600"><defs><style>@import url(https://ourworldindata.org/fonts.css)</style></defs><defs><pattern id="noDataPattern" patternUnits="userSpaceOnUse" width="4" height="4" patternTransform="rotate(-45 2 2)"><path d="M -1,2 l 6,0" stroke="#ccc" stroke-width="0.7"></path></pattern></defs><rect class="background-fill" fill="#ffffff" width="850" height="600"></rect><g id="header" class="HeaderView"><g id="logo" transform="translate(769, 16) scale(1)"><svg className="owidLogo" xmlns="http://www.w3.org/2000/svg" width="65" height="36" viewBox="0 0 65 36"  fill="none"><path fill="#002147" d="M0 0h64.8v36H0z"/><path fill="#CE261E" d="M0 33.3h64.8V36H0z"/><path fill="#fff" d="M13.796 10.575c0 .636-.106 1.226-.318 1.77a4.193 4.193 0 0 1-.894 1.404 4.084 4.084 0 0 1-1.386.93c-.54.22-1.138.33-1.794.33-.656 0-1.256-.11-1.8-.33a4.149 4.149 0 0 1-1.392-.93 4.193 4.193 0 0 1-.894-1.404A4.833 4.833 0 0 1 5 10.575c0-.636.106-1.224.318-1.764a4.18 4.18 0 0 1 .894-1.41 4.076 4.076 0 0 1 1.392-.924 4.684 4.684 0 0 1 1.8-.336c.656 0 1.254.112 1.794.336.54.224 1.002.534 1.386.93.384.392.682.86.894 1.404.212.54.318 1.128.318 1.764Zm-1.656 0c0-.476-.064-.902-.192-1.278a2.671 2.671 0 0 0-.54-.966 2.332 2.332 0 0 0-.864-.606 2.94 2.94 0 0 0-1.14-.21c-.424 0-.806.07-1.146.21-.34.14-.63.342-.87.606a2.742 2.742 0 0 0-.546.966 3.955 3.955 0 0 0-.192 1.278c0 .476.064.904.192 1.284.128.376.31.696.546.96.24.26.53.46.87.6.34.14.722.21 1.146.21.424 0 .804-.07 1.14-.21.34-.14.628-.34.864-.6.236-.264.416-.584.54-.96a4.01 4.01 0 0 0 .192-1.284ZM16.104 8.757v3.912c0 .376.086.668.258.876.176.204.438.306.786.306.256 0 .496-.056.72-.168a2.58 2.58 0 0 0 .636-.474V8.757h1.482v6.156h-.906c-.192 0-.318-.09-.378-.27l-.102-.492a4.65 4.65 0 0 1-.396.354 2.577 2.577 0 0 1-.438.27 2.35 2.35 0 0 1-.498.168 2.345 2.345 0 0 1-.57.066c-.336 0-.634-.056-.894-.168a1.821 1.821 0 0 1-.648-.486 2.157 2.157 0 0 1-.402-.738 3.233 3.233 0 0 1-.132-.948V8.757h1.482ZM21.328 14.913V8.757h.87c.152 0 .258.028.318.084.06.056.1.152.12.288l.09.744c.22-.38.478-.68.774-.9.296-.22.628-.33.996-.33.304 0 .556.07.756.21l-.192 1.11c-.012.072-.038.124-.078.156a.278.278 0 0 1-.162.042 1.01 1.01 0 0 1-.246-.042 1.646 1.646 0 0 0-.414-.042c-.308 0-.572.086-.792.258-.22.168-.406.416-.558.744v3.834h-1.482ZM27.347 6.237h1.356a.57.57 0 0 1 .348.102c.096.064.16.152.192.264l1.476 5.19c.036.128.068.268.096.42.032.148.062.306.09.474a5.968 5.968 0 0 1 .228-.894l1.704-5.19a.575.575 0 0 1 .186-.252.543.543 0 0 1 .348-.114h.474a.57.57 0 0 1 .348.102.497.497 0 0 1 .192.264l1.692 5.19c.088.256.164.54.228.852.028-.156.056-.306.084-.45.032-.144.064-.278.096-.402l1.476-5.19c.028-.1.09-.186.186-.258a.563.563 0 0 1 .348-.108h1.266l-2.694 8.676h-1.458l-1.896-5.928-.078-.246a9.504 9.504 0 0 1-.072-.282c-.024.1-.05.194-.078.282-.024.088-.048.17-.072.246l-1.914 5.928H30.04l-2.694-8.676ZM42.771 8.661c.46 0 .876.074 1.248.222.376.148.696.358.96.63s.468.604.612.996c.144.392.216.83.216 1.314 0 .488-.072.928-.216 1.32a2.85 2.85 0 0 1-.612 1.002 2.653 2.653 0 0 1-.96.636 3.35 3.35 0 0 1-1.248.222c-.46 0-.878-.074-1.254-.222a2.712 2.712 0 0 1-.966-.636 2.922 2.922 0 0 1-.618-1.002 3.807 3.807 0 0 1-.216-1.32c0-.484.072-.922.216-1.314.148-.392.354-.724.618-.996.268-.272.59-.482.966-.63a3.397 3.397 0 0 1 1.254-.222Zm0 5.202c.512 0 .89-.172 1.134-.516.248-.344.372-.848.372-1.512s-.124-1.17-.372-1.518c-.244-.348-.622-.522-1.134-.522-.52 0-.904.176-1.152.528-.248.348-.372.852-.372 1.512s.124 1.164.372 1.512c.248.344.632.516 1.152.516ZM46.723 14.913V8.757h.87c.152 0 .258.028.318.084.06.056.1.152.12.288l.09.744c.22-.38.478-.68.774-.9.296-.22.628-.33.996-.33.304 0 .556.07.756.21l-.192 1.11c-.012.072-.038.124-.078.156a.278.278 0 0 1-.162.042 1.01 1.01 0 0 1-.246-.042 1.646 1.646 0 0 0-.414-.042c-.308 0-.572.086-.792.258-.22.168-.406.416-.558.744v3.834h-1.482ZM52.96 5.997v8.916h-1.482V5.997h1.482ZM58.732 14.913c-.192 0-.318-.09-.378-.27l-.12-.594a3.68 3.68 0 0 1-.402.39c-.14.116-.292.216-.456.3-.16.084-.334.148-.522.192a2.372 2.372 0 0 1-.6.072c-.336 0-.644-.07-.924-.21a2.098 2.098 0 0 1-.726-.606 3.033 3.033 0 0 1-.468-.99 5.072 5.072 0 0 1-.162-1.344c0-.456.062-.88.186-1.272s.302-.732.534-1.02c.232-.288.51-.512.834-.672a2.384 2.384 0 0 1 1.092-.246 2.103 2.103 0 0 1 1.536.606V5.997h1.482v8.916h-.906Zm-1.974-1.086c.308 0 .57-.064.786-.192.216-.128.42-.31.612-.546v-2.76a1.452 1.452 0 0 0-.552-.432 1.597 1.597 0 0 0-.636-.126c-.224 0-.428.042-.612.126a1.21 1.21 0 0 0-.462.384c-.124.168-.22.384-.288.648-.068.26-.102.568-.102.924 0 .36.028.666.084.918.06.248.144.452.252.612.108.156.24.27.396.342.156.068.33.102.522.102ZM16.331 20.757v6.156H14.85v-6.156h1.481Zm.223-1.794a.844.844 0 0 1-.078.36.963.963 0 0 1-.21.294.995.995 0 0 1-.3.204.963.963 0 0 1-.372.072.948.948 0 0 1-.367-.072 1.018 1.018 0 0 1-.498-.498.963.963 0 0 1 0-.732.995.995 0 0 1 .205-.3.929.929 0 0 1 .293-.198.899.899 0 0 1 .738 0 .912.912 0 0 1 .3.198.943.943 0 0 1 .288.672ZM17.771 26.913v-6.156h.906c.192 0 .318.09.378.27l.102.486a2.934 2.934 0 0 1 .828-.618c.156-.076.322-.134.498-.174.176-.04.368-.06.576-.06.336 0 .634.058.894.174.26.112.476.272.648.48.176.204.308.45.396.738.092.284.138.598.138.942v3.918h-1.482v-3.918c0-.376-.088-.666-.264-.87-.172-.208-.432-.312-.78-.312-.256 0-.496.058-.72.174a2.58 2.58 0 0 0-.636.474v4.452h-1.482ZM34.22 22.575c0 .636-.106 1.22-.318 1.752-.212.532-.51.99-.894 1.374a4 4 0 0 1-1.386.894 4.87 4.87 0 0 1-1.794.318h-3.312v-8.676h3.312a4.79 4.79 0 0 1 1.794.324 4 4 0 0 1 1.386.894c.384.38.682.836.894 1.368.212.532.318 1.116.318 1.752Zm-1.65 0c0-.476-.064-.902-.192-1.278a2.68 2.68 0 0 0-.546-.96 2.332 2.332 0 0 0-.864-.606 2.94 2.94 0 0 0-1.14-.21h-1.686v6.108h1.686c.424 0 .804-.07 1.14-.21.34-.14.628-.34.864-.6a2.75 2.75 0 0 0 .546-.96 4.01 4.01 0 0 0 .192-1.284ZM39.98 26.913h-.665c-.14 0-.25-.02-.33-.06-.08-.044-.14-.13-.18-.258l-.132-.438c-.156.14-.31.264-.462.372a2.804 2.804 0 0 1-.462.264c-.16.072-.33.126-.51.162-.18.036-.38.054-.6.054-.26 0-.5-.034-.72-.102a1.618 1.618 0 0 1-.57-.318 1.448 1.448 0 0 1-.366-.522 1.852 1.852 0 0 1-.132-.726c0-.232.06-.46.18-.684.124-.228.328-.432.612-.612.284-.184.662-.336 1.134-.456.472-.12 1.058-.188 1.758-.204v-.36c0-.412-.088-.716-.264-.912-.172-.2-.424-.3-.756-.3a1.837 1.837 0 0 0-1.02.276c-.116.068-.224.13-.324.186a.664.664 0 0 1-.33.084.429.429 0 0 1-.258-.078.614.614 0 0 1-.174-.192l-.27-.474c.708-.648 1.562-.972 2.562-.972.36 0 .68.06.96.18.284.116.524.28.72.492.196.208.344.458.444.75.104.292.156.612.156.96v3.888Zm-2.88-.924c.153 0 .293-.014.42-.042.129-.028.249-.07.36-.126.117-.056.227-.124.33-.204.109-.084.217-.182.325-.294v-1.038c-.432.02-.794.058-1.086.114-.288.052-.52.12-.696.204a.923.923 0 0 0-.378.294.664.664 0 0 0-.108.366c0 .26.076.446.228.558.156.112.358.168.606.168ZM43.22 27.01c-.532 0-.942-.15-1.23-.45-.288-.305-.432-.723-.432-1.255v-3.438h-.624a.31.31 0 0 1-.21-.078c-.056-.052-.084-.13-.084-.234v-.588l.99-.162.312-1.68a.302.302 0 0 1 .108-.186.365.365 0 0 1 .222-.066h.768v1.938h1.62v1.056h-1.62v3.336c0 .192.048.342.144.45a.488.488 0 0 0 .384.162c.092 0 .168-.01.228-.03.064-.024.118-.048.162-.072.048-.024.09-.046.126-.066a.194.194 0 0 1 .108-.036.16.16 0 0 1 .108.036c.028.02.058.052.09.096l.444.72c-.216.18-.464.316-.744.408a2.77 2.77 0 0 1-.87.138ZM50.423 26.913h-.666c-.14 0-.25-.02-.33-.06-.08-.044-.14-.13-.18-.258l-.132-.438c-.156.14-.31.264-.462.372a2.804 2.804 0 0 1-.462.264c-.16.072-.33.126-.51.162-.18.036-.38.054-.6.054-.26 0-.5-.034-.72-.102a1.618 1.618 0 0 1-.57-.318 1.448 1.448 0 0 1-.366-.522 1.852 1.852 0 0 1-.132-.726c0-.232.06-.46.18-.684.124-.228.328-.432.612-.612.284-.184.662-.336 1.134-.456.472-.12 1.058-.188 1.758-.204v-.36c0-.412-.088-.716-.264-.912-.172-.2-.424-.3-.756-.3a1.837 1.837 0 0 0-1.02.276c-.116.068-.224.13-.324.186a.664.664 0 0 1-.33.084.429.429 0 0 1-.258-.078.614.614 0 0 1-.174-.192l-.27-.474c.708-.648 1.562-.972 2.562-.972.36 0 .68.06.96.18.284.116.524.28.72.492.196.208.344.458.444.75.104.292.156.612.156.96v3.888Zm-2.88-.924c.152 0 .292-.014.42-.042.128-.028.248-.07.36-.126.116-.056.226-.124.33-.204.108-.084.216-.182.324-.294v-1.038c-.432.02-.794.058-1.086.114-.288.052-.52.12-.696.204a.923.923 0 0 0-.378.294.664.664 0 0 0-.108.366c0 .26.076.446.228.558.156.112.358.168.606.168Z"/></svg></g><a id="title" href="https://ourworldindata.org/grapher/annual-fish-catch-taxa" style="font-family:&#x27;Playfair Display&#x27;, Georgia, &#x27;Times New Roman&#x27;, &#x27;Liberation Serif&#x27;, serif" target="_blank" rel="noopener"><text font-size="24.00" font-weight="600" x="16.0" y="39.3" fill="#5b5b5b"><tspan x="16" y="39.28">Annual fish catch relative to mean catch</tspan></text></a><g id="subtitle" class="markdown-text-wrap"><text x="16.0" y="62.4" style="font-size:14px;line-height:1.2" fill="#5b5b5b"><tspan x="16" y="62.4">Fish catch is measured as annual catch divided by the mean catch over the stock&#x27;s time series. A value greater than</tspan><tspan x="16" y="79.2">one means annual catch is higher than average over the entire time period.</tspan></text></g></g><g id="chart-area" style="pointer-events:none"><g id="horizontal-axis" class="HorizontalAxis"><g id="tick-marks"><line id="1970" x1="39.9" y1="513.8000000000001" x2="39.9" y2="519.3000000000001" stroke="#999" stroke-width="1"></line><line id="2018" x1="693" y1="513.8000000000001" x2="693" y2="519.3000000000001" stroke="#999" stroke-width="1"></line><line id="1980" x1="176" y1="513.8000000000001" x2="176" y2="519.3000000000001" stroke="#999" stroke-width="1"></line><line id="1990" x1="312" y1="513.8000000000001" x2="312" y2="519.3000000000001" stroke="#999" stroke-width="1"></line><line id="2000" x1="448.1" y1="513.8000000000001" x2="448.1" y2="519.3000000000001" stroke="#999" stroke-width="1"></line><line id="2010" x1="584.1" y1="513.8000000000001" x2="584.1" y2="519.3000000000001" stroke="#999" stroke-width="1"></line></g><g id="tick-labels"><text x="39.900000000000006" y="532.8000000000001" fill="#5b5b5b" text-anchor="start" font-size="13.5">1970</text><text x="692.95" y="532.8000000000001" fill="#5b5b5b" text-anchor="end" font-size="13.5">2018</text><text x="176" y="532.8000000000001" fill="#5b5b5b" text-anchor="middle" font-size="13.5">1980</text><text x="312" y="532.8000000000001" fill="#5b5b5b" text-anchor="middle" font-size="13.5">1990</text><text x="448.1" y="532.8000000000001" fill="#5b5b5b" text-anchor="middle" font-size="13.5">2000</text><text x="584.1" y="532.8000000000001" fill="#5b5b5b" text-anchor="middle" font-size="13.5">2010</text></g></g><g id="vertical-axis" class="VerticalAxis"><g id="tick-labels"><text x="34.90" y="514.3" dy=".32em" text-anchor="end" fill="#5b5b5b" font-size="13.5">0</text><text x="34.90" y="459.8" dy=".32em" text-anchor="end" fill="#5b5b5b" font-size="13.5">0.2</text><text x="34.90" y="405.3" dy=".32em" text-anchor="end" fill="#5b5b5b" font-size="13.5">0.4</text><text x="34.90" y="350.8" dy=".32em" text-anchor="end" fill="#5b5b5b" font-size="13.5">0.6</text><text x="34.90" y="296.2" dy=".32em" text-anchor="end" fill="#5b5b5b" font-size="13.5">0.8</text><text x="34.90" y="241.7" dy=".32em" text-anchor="end" fill="#5b5b5b" font-size="13.5">1</text><text x="34.90" y="187.2" dy=".32em" text-anchor="end" fill="#5b5b5b" font-size="13.5">1.2</text><text x="34.90" y="132.7" dy=".32em" text-anchor="end" fill="#5b5b5b" font-size="13.5">1.4</text></g></g><g id="horizontal-grid-lines" class="AxisGridLines horizontalLines"><line id="0" x1="39.90" y1="514.3" x2="692.95" y2="514.3" stroke="#999" stroke-width="1"></line><line id="0.2" x1="39.90" y1="459.8" x2="692.95" y2="459.8" stroke="#ddd" stroke-width="1" stroke-dasharray="3,2"></line><line id="0.4" x1="39.90" y1="405.3" x2="692.95" y2="405.3" stroke="#ddd" stroke-width="1" stroke-dasharray="3,2"></line><line id="0.6" x1="39.90" y1="350.8" x2="692.95" y2="350.8" stroke="#ddd" stroke-width="1" stroke-dasharray="3,2"></line><line id="0.8" x1="39.90" y1="296.2" x2="692.95" y2="296.2" stroke="#ddd" stroke-width="1" stroke-dasharray="3,2"></line><line id="1" x1="39.90" y1="241.7" x2="692.95" y2="241.7" stroke="#ddd" stroke-width="1" stroke-dasharray="3,2"></line><line id="1.2" x1="39.90" y1="187.2" x2="692.95" y2="187.2" stroke="#ddd" stroke-width="1" stroke-dasharray="3,2"></line><line id="1.4" x1="39.90" y1="132.7" x2="692.95" y2="132.7" stroke="#ddd" stroke-width="1" stroke-dasharray="3,2"></line></g><g id="line-labels" class="LineLabels"><g id="text-annotations"></g><g id="text-labels"><text font-size="13.50" font-weight="400" x="697.0" y="167.2" fill="#4c6a9c" opacity="1" text-anchor="start"><tspan x="696.95" y="167.195">Tuna</tspan></text><text font-size="13.50" font-weight="400" x="697.0" y="341.8" fill="#6d3e91" opacity="1" text-anchor="start"><tspan x="696.95" y="341.795">Shrimps</tspan></text><text font-size="13.50" font-weight="400" x="697.0" y="360.7" fill="#b13507" opacity="1" text-anchor="start"><tspan x="696.95" y="360.695">Mackerels</tspan></text><text font-size="13.50" font-weight="400" x="697.0" y="382.9" fill="#996d39" opacity="1" text-anchor="start"><tspan x="696.95" y="382.895">Forage fish</tspan></text><text font-size="13.50" font-weight="400" x="697.0" y="448.9" fill="#2c8465" opacity="1" text-anchor="start"><tspan x="696.95" y="448.895">Other marine fish</tspan></text></g></g><g id="lines"><path fill="none" stroke-linecap="butt" stroke-linejoin="round" stroke="#ffffff" id="outline__Shrimps" stroke-width="2.5" d="M39.9 302L53.5 365.6L67.1 300.8L80.7 375.8L94.3 440.8L107.9 403.3L121.5 405L135.1 406L148.7 336.2L162.3 413.6L176 408.1L189.6 433.4L203.2 415.5L216.8 345.2L230.4 249.4L244 207.6L257.6 245.8L271.2 337L284.8 303.8L298.4 283.6L312 322L325.6 323.5L339.2 293L352.8 269.9L366.4 309.2L380 230.1L393.6 198.5L407.2 223L420.8 130.9L434.5 189.2L448.1 168.1L461.7 161.6L475.3 174.9L488.9 215.4L502.5 216.1L516.1 252.7L529.7 208.4L543.3 268.4L556.9 300.8L570.5 278.4L584.1 293.1L597.7 251.1L611.3 291.1L624.9 280.1L638.5 280.4L652.1 269.5L665.7 310.8L679.3 336.8"></path><path fill="none" stroke-linecap="butt" stroke-linejoin="round" stroke="#6d3e91" id="line__Shrimps" stroke-width="1.5" stroke-opacity="1" d="M39.9 302L53.5 365.6L67.1 300.8L80.7 375.8L94.3 440.8L107.9 403.3L121.5 405L135.1 406L148.7 336.2L162.3 413.6L176 408.1L189.6 433.4L203.2 415.5L216.8 345.2L230.4 249.4L244 207.6L257.6 245.8L271.2 337L284.8 303.8L298.4 283.6L312 322L325.6 323.5L339.2 293L352.8 269.9L366.4 309.2L380 230.1L393.6 198.5L407.2 223L420.8 130.9L434.5 189.2L448.1 168.1L461.7 161.6L475.3 174.9L488.9 215.4L502.5 216.1L516.1 252.7L529.7 208.4L543.3 268.4L556.9 300.8L570.5 278.4L584.1 293.1L597.7 251.1L611.3 291.1L624.9 280.1L638.5 280.4L652.1 269.5L665.7 310.8L679.3 336.8"></path><g id="markers__Shrimps"><circle id="1970" cx="39.9" cy="302" r="1.8" fill="#6d3e91" opacity="1"></circle><circle id="1971" cx="53.5" cy="365.6" r="1.8" fill="#6d3e91" opacity="1"></circle><circle id="1972" cx="67.1" cy="300.8" r="1.8" fill="#6d3e91" opacity="1"></circle><circle id="1973" cx="80.7" cy="375.8" r="1.8" fill="#6d3e91" opacity="1"></circle><circle id="1974" cx="94.3" cy="440.8" r="1.8" fill="#6d3e91" opacity="1"></circle><circle id="1975" cx="107.9" cy="403.3" r="1.8" fill="#6d3e91" opacity="1"></circle><circle id="1976" cx="121.5" cy="405" r="1.8" fill="#6d3e91" opacity="1"></circle><circle id="1977" cx="135.1" cy="406" r="1.8" fill="#6d3e91" opacity="1"></circle><circle id="1978" cx="148.7" cy="336.2" r="1.8" fill="#6d3e91" opacity="1"></circle><circle id="1979" cx="162.3" cy="413.6" r="1.8" fill="#6d3e91" opacity="1"></circle><circle id="1980" cx="176" cy="408.1" r="1.8" fill="#6d3e91" opacity="1"></circle><circle id="1981" cx="189.6" cy="433.4" r="1.8" fill="#6d3e91" opacity="1"></circle><circle id="1982" cx="203.2" cy="415.5" r="1.8" fill="#6d3e91" opacity="1"></circle><circle id="1983" cx="216.8" cy="345.2" r="1.8" fill="#6d3e91" opacity="1"></circle><circle id="1984" cx="230.4" cy="249.4" r="1.8" fill="#6d3e91" opacity="1"></circle><circle id="1985" cx="244" cy="207.6" r="1.8" fill="#6d3e91" opacity="1"></circle><circle id="1986" cx="257.6" cy="245.8" r="1.8" fill="#6d3e91" opacity="1"></circle><circle id="1987" cx="271.2" cy="337" r="1.8" fill="#6d3e91" opacity="1"></circle><circle id="1988" cx="284.8" cy="303.8" r="1.8" fill="#6d3e91" opacity="1"></circle><circle id="1989" cx="298.4" cy="283.6" r="1.8" fill="#6d3e91" opacity="1"></circle><circle id="1990" cx="312" cy="322" r="1.8" fill="#6d3e91" opacity="1"></circle><circle id="1991" cx="325.6" cy="323.5" r="1.8" fill="#6d3e91" opacity="1"></circle><circle id="1992" cx="339.2" cy="293" r="1.8" fill="#6d3e91" opacity="1"></circle><circle id="1993" cx="352.8" cy="269.9" r="1.8" fill="#6d3e91" opacity="1"></circle><circle id="1994" cx="366.4" cy="309.2" r="1.8" fill="#6d3e91" opacity="1"></circle><circle id="1995" cx="380" cy="230.1" r="1.8" fill="#6d3e91" opacity="1"></circle><circle id="1996" cx="393.6" cy="198.5" r="1.8" fill="#6d3e91" opacity="1"></circle><circle id="1997" cx="407.2" cy="223" r="1.8" fill="#6d3e91" opacity="1"></circle><circle id="1998" cx="420.8" cy="130.9" r="1.8" fill="#6d3e91" opacity="1"></circle><circle id="1999" cx="434.5" cy="189.2" r="1.8" fill="#6d3e91" opacity="1"></circle><circle id="2000" cx="448.1" cy="168.1" r="1.8" fill="#6d3e91" opacity="1"></circle><circle id="2001" cx="461.7" cy="161.6" r="1.8" fill="#6d3e91" opacity="1"></circle><circle id="2002" cx="475.3" cy="174.9" r="1.8" fill="#6d3e91" opacity="1"></circle><circle id="2003" cx="488.9" cy="215.4" r="1.8" fill="#6d3e91" opacity="1"></circle><circle id="2004" cx="502.5" cy="216.1" r="1.8" fill="#6d3e91" opacity="1"></circle><circle id="2005" cx="516.1" cy="252.7" r="1.8" fill="#6d3e91" opacity="1"></circle><circle id="2006" cx="529.7" cy="208.4" r="1.8" fill="#6d3e91" opacity="1"></circle><circle id="2007" cx="543.3" cy="268.4" r="1.8" fill="#6d3e91" opacity="1"></circle><circle id="2008" cx="556.9" cy="300.8" r="1.8" fill="#6d3e91" opacity="1"></circle><circle id="2009" cx="570.5" cy="278.4" r="1.8" fill="#6d3e91" opacity="1"></circle><circle id="2010" cx="584.1" cy="293.1" r="1.8" fill="#6d3e91" opacity="1"></circle><circle id="2011" cx="597.7" cy="251.1" r="1.8" fill="#6d3e91" opacity="1"></circle><circle id="2012" cx="611.3" cy="291.1" r="1.8" fill="#6d3e91" opacity="1"></circle><circle id="2013" cx="624.9" cy="280.1" r="1.8" fill="#6d3e91" opacity="1"></circle><circle id="2014" cx="638.5" cy="280.4" r="1.8" fill="#6d3e91" opacity="1"></circle><circle id="2015" cx="652.1" cy="269.5" r="1.8" fill="#6d3e91" opacity="1"></circle><circle id="2016" cx="665.7" cy="310.8" r="1.8" fill="#6d3e91" opacity="1"></circle><circle id="2017" cx="679.3" cy="336.8" r="1.8" fill="#6d3e91" opacity="1"></circle></g><path fill="none" stroke-linecap="butt" stroke-linejoin="round" stroke="#ffffff" id="outline__Other-marine-fish" stroke-width="2.5" d="M39.9 493.2L53.5 493.5L67.1 485.2L80.7 482.7L94.3 467.5L107.9 432.6L121.5 415.6L135.1 344.6L148.7 376.8L162.3 424.2L176 398.7L189.6 375.6L203.2 360.2L216.8 327.6L230.4 251.2L244 261.3L257.6 271L271.2 249.2L284.8 275L298.4 235.6L312 239.3L325.6 215.4L339.2 206.7L352.8 171.8L366.4 203.1L380 214.6L393.6 207.9L407.2 226.2L420.8 232.1L434.5 236.2L448.1 227.2L461.7 236L475.3 228.5L488.9 219.5L502.5 236.8L516.1 274.5L529.7 298L543.3 317.9L556.9 312.2L570.5 319.9L584.1 325.8L597.7 341.6L611.3 356.4L624.9 383.3L638.5 407.8L652.1 389.3L665.7 362L679.3 383L693 443.9"></path><path fill="none" stroke-linecap="butt" stroke-linejoin="round" stroke="#2c8465" id="line__Other-marine-fish" stroke-width="1.5" stroke-opacity="1" d="M39.9 493.2L53.5 493.5L67.1 485.2L80.7 482.7L94.3 467.5L107.9 432.6L121.5 415.6L135.1 344.6L148.7 376.8L162.3 424.2L176 398.7L189.6 375.6L203.2 360.2L216.8 327.6L230.4 251.2L244 261.3L257.6 271L271.2 249.2L284.8 275L298.4 235.6L312 239.3L325.6 215.4L339.2 206.7L352.8 171.8L366.4 203.1L380 214.6L393.6 207.9L407.2 226.2L420.8 232.1L434.5 236.2L448.1 227.2L461.7 236L475.3 228.5L488.9 219.5L502.5 236.8L516.1 274.5L529.7 298L543.3 317.9L556.9 312.2L570.5 319.9L584.1 325.8L597.7 341.6L611.3 356.4L624.9 383.3L638.5 407.8L652.1 389.3L665.7 362L679.3 383L693 443.9"></path><g id="markers__Other-marine-fish"><circle id="1970" cx="39.9" cy="493.2" r="1.8" fill="#2c8465" opacity="1"></circle><circle id="1971" cx="53.5" cy="493.5" r="1.8" fill="#2c8465" opacity="1"></circle><circle id="1972" cx="67.1" cy="485.2" r="1.8" fill="#2c8465" opacity="1"></circle><circle id="1973" cx="80.7" cy="482.7" r="1.8" fill="#2c8465" opacity="1"></circle><circle id="1974" cx="94.3" cy="467.5" r="1.8" fill="#2c8465" opacity="1"></circle><circle id="1975" cx="107.9" cy="432.6" r="1.8" fill="#2c8465" opacity="1"></circle><circle id="1976" cx="121.5" cy="415.6" r="1.8" fill="#2c8465" opacity="1"></circle><circle id="1977" cx="135.1" cy="344.6" r="1.8" fill="#2c8465" opacity="1"></circle><circle id="1978" cx="148.7" cy="376.8" r="1.8" fill="#2c8465" opacity="1"></circle><circle id="1979" cx="162.3" cy="424.2" r="1.8" fill="#2c8465" opacity="1"></circle><circle id="1980" cx="176" cy="398.7" r="1.8" fill="#2c8465" opacity="1"></circle><circle id="1981" cx="189.6" cy="375.6" r="1.8" fill="#2c8465" opacity="1"></circle><circle id="1982" cx="203.2" cy="360.2" r="1.8" fill="#2c8465" opacity="1"></circle><circle id="1983" cx="216.8" cy="327.6" r="1.8" fill="#2c8465" opacity="1"></circle><circle id="1984" cx="230.4" cy="251.2" r="1.8" fill="#2c8465" opacity="1"></circle><circle id="1985" cx="244" cy="261.3" r="1.8" fill="#2c8465" opacity="1"></circle><circle id="1986" cx="257.6" cy="271" r="1.8" fill="#2c8465" opacity="1"></circle><circle id="1987" cx="271.2" cy="249.2" r="1.8" fill="#2c8465" opacity="1"></circle><circle id="1988" cx="284.8" cy="275" r="1.8" fill="#2c8465" opacity="1"></circle><circle id="1989" cx="298.4" cy="235.6" r="1.8" fill="#2c8465" opacity="1"></circle><circle id="1990" cx="312" cy="239.3" r="1.8" fill="#2c8465" opacity="1"></circle><circle id="1991" cx="325.6" cy="215.4" r="1.8" fill="#2c8465" opacity="1"></circle><circle id="1992" cx="339.2" cy="206.7" r="1.8" fill="#2c8465" opacity="1"></circle><circle id="1993" cx="352.8" cy="171.8" r="1.8" fill="#2c8465" opacity="1"></circle><circle id="1994" cx="366.4" cy="203.1" r="1.8" fill="#2c8465" opacity="1"></circle><circle id="1995" cx="380" cy="214.6" r="1.8" fill="#2c8465" opacity="1"></circle><circle id="1996" cx="393.6" cy="207.9" r="1.8" fill="#2c8465" opacity="1"></circle><circle id="1997" cx="407.2" cy="226.2" r="1.8" fill="#2c8465" opacity="1"></circle><circle id="1998" cx="420.8" cy="232.1" r="1.8" fill="#2c8465" opacity="1"></circle><circle id="1999" cx="434.5" cy="236.2" r="1.8" fill="#2c8465" opacity="1"></circle><circle id="2000" cx="448.1" cy="227.2" r="1.8" fill="#2c8465" opacity="1"></circle><circle id="2001" cx="461.7" cy="236" r="1.8" fill="#2c8465" opacity="1"></circle><circle id="2002" cx="475.3" cy="228.5" r="1.8" fill="#2c8465" opacity="1"></circle><circle id="2003" cx="488.9" cy="219.5" r="1.8" fill="#2c8465" opacity="1"></circle><circle id="2004" cx="502.5" cy="236.8" r="1.8" fill="#2c8465" opacity="1"></circle><circle id="2005" cx="516.1" cy="274.5" r="1.8" fill="#2c8465" opacity="1"></circle><circle id="2006" cx="529.7" cy="298" r="1.8" fill="#2c8465" opacity="1"></circle><circle id="2007" cx="543.3" cy="317.9" r="1.8" fill="#2c8465" opacity="1"></circle><circle id="2008" cx="556.9" cy="312.2" r="1.8" fill="#2c8465" opacity="1"></circle><circle id="2009" cx="570.5" cy="319.9" r="1.8" fill="#2c8465" opacity="1"></circle><circle id="2010" cx="584.1" cy="325.8" r="1.8" fill="#2c8465" opacity="1"></circle><circle id="2011" cx="597.7" cy="341.6" r="1.8" fill="#2c8465" opacity="1"></circle><circle id="2012" cx="611.3" cy="356.4" r="1.8" fill="#2c8465" opacity="1"></circle><circle id="2013" cx="624.9" cy="383.3" r="1.8" fill="#2c8465" opacity="1"></circle><circle id="2014" cx="638.5" cy="407.8" r="1.8" fill="#2c8465" opacity="1"></circle><circle id="2015" cx="652.1" cy="389.3" r="1.8" fill="#2c8465" opacity="1"></circle><circle id="2016" cx="665.7" cy="362" r="1.8" fill="#2c8465" opacity="1"></circle><circle id="2017" cx="679.3" cy="383" r="1.8" fill="#2c8465" opacity="1"></circle><circle id="2018" cx="693" cy="443.9" r="1.8" fill="#2c8465" opacity="1"></circle></g><path fill="none" stroke-linecap="butt" stroke-linejoin="round" stroke="#ffffff" id="outline__Forage-fish" stroke-width="2.5" d="M39.9 287.6L53.5 296L67.1 255.1L80.7 203.7L94.3 214.1L107.9 283.2L121.5 222.4L135.1 218.8L148.7 237.2L162.3 274.1L176 294.6L189.6 261L203.2 271.9L216.8 272.6L230.4 282.5L244 267.7L257.6 278.3L271.2 289L284.8 244.3L298.4 255.1L312 274.4L325.6 268.4L339.2 244.8L352.8 262.9L366.4 256.8L380 232.4L393.6 254.2L407.2 248.4L420.8 263.6L434.5 275.1L448.1 279.3L461.7 282.4L475.3 278.7L488.9 288.5L502.5 289.9L516.1 283.1L529.7 295.5L543.3 304.6L556.9 297.9L570.5 310.9L584.1 305.7L597.7 287.9L611.3 300.5L624.9 320.3L638.5 320.2L652.1 319.4L665.7 338.5L679.3 323.2L693 377.9"></path><path fill="none" stroke-linecap="butt" stroke-linejoin="round" stroke="#996d39" id="line__Forage-fish" stroke-width="1.5" stroke-opacity="1" d="M39.9 287.6L53.5 296L67.1 255.1L80.7 203.7L94.3 214.1L107.9 283.2L121.5 222.4L135.1 218.8L148.7 237.2L162.3 274.1L176 294.6L189.6 261L203.2 271.9L216.8 272.6L230.4 282.5L244 267.7L257.6 278.3L271.2 289L284.8 244.3L298.4 255.1L312 274.4L325.6 268.4L339.2 244.8L352.8 262.9L366.4 256.8L380 232.4L393.6 254.2L407.2 248.4L420.8 263.6L434.5 275.1L448.1 279.3L461.7 282.4L475.3 278.7L488.9 288.5L502.5 289.9L516.1 283.1L529.7 295.5L543.3 304.6L556.9 297.9L570.5 310.9L584.1 305.7L597.7 287.9L611.3 300.5L624.9 320.3L638.5 320.2L652.1 319.4L665.7 338.5L679.3 323.2L693 377.9"></path><g id="markers__Forage-fish"><circle id="1970" cx="39.9" cy="287.6" r="1.8" fill="#996d39" opacity="1"></circle><circle id="1971" cx="53.5" cy="296" r="1.8" fill="#996d39" opacity="1"></circle><circle id="1972" cx="67.1" cy="255.1" r="1.8" fill="#996d39" opacity="1"></circle><circle id="1973" cx="80.7" cy="203.7" r="1.8" fill="#996d39" opacity="1"></circle><circle id="1974" cx="94.3" cy="214.1" r="1.8" fill="#996d39" opacity="1"></circle><circle id="1975" cx="107.9" cy="283.2" r="1.8" fill="#996d39" opacity="1"></circle><circle id="1976" cx="121.5" cy="222.4" r="1.8" fill="#996d39" opacity="1"></circle><circle id="1977" cx="135.1" cy="218.8" r="1.8" fill="#996d39" opacity="1"></circle><circle id="1978" cx="148.7" cy="237.2" r="1.8" fill="#996d39" opacity="1"></circle><circle id="1979" cx="162.3" cy="274.1" r="1.8" fill="#996d39" opacity="1"></circle><circle id="1980" cx="176" cy="294.6" r="1.8" fill="#996d39" opacity="1"></circle><circle id="1981" cx="189.6" cy="261" r="1.8" fill="#996d39" opacity="1"></circle><circle id="1982" cx="203.2" cy="271.9" r="1.8" fill="#996d39" opacity="1"></circle><circle id="1983" cx="216.8" cy="272.6" r="1.8" fill="#996d39" opacity="1"></circle><circle id="1984" cx="230.4" cy="282.5" r="1.8" fill="#996d39" opacity="1"></circle><circle id="1985" cx="244" cy="267.7" r="1.8" fill="#996d39" opacity="1"></circle><circle id="1986" cx="257.6" cy="278.3" r="1.8" fill="#996d39" opacity="1"></circle><circle id="1987" cx="271.2" cy="289" r="1.8" fill="#996d39" opacity="1"></circle><circle id="1988" cx="284.8" cy="244.3" r="1.8" fill="#996d39" opacity="1"></circle><circle id="1989" cx="298.4" cy="255.1" r="1.8" fill="#996d39" opacity="1"></circle><circle id="1990" cx="312" cy="274.4" r="1.8" fill="#996d39" opacity="1"></circle><circle id="1991" cx="325.6" cy="268.4" r="1.8" fill="#996d39" opacity="1"></circle><circle id="1992" cx="339.2" cy="244.8" r="1.8" fill="#996d39" opacity="1"></circle><circle id="1993" cx="352.8" cy="262.9" r="1.8" fill="#996d39" opacity="1"></circle><circle id="1994" cx="366.4" cy="256.8" r="1.8" fill="#996d39" opacity="1"></circle><circle id="1995" cx="380" cy="232.4" r="1.8" fill="#996d39" opacity="1"></circle><circle id="1996" cx="393.6" cy="254.2" r="1.8" fill="#996d39" opacity="1"></circle><circle id="1997" cx="407.2" cy="248.4" r="1.8" fill="#996d39" opacity="1"></circle><circle id="1998" cx="420.8" cy="263.6" r="1.8" fill="#996d39" opacity="1"></circle><circle id="1999" cx="434.5" cy="275.1" r="1.8" fill="#996d39" opacity="1"></circle><circle id="2000" cx="448.1" cy="279.3" r="1.8" fill="#996d39" opacity="1"></circle><circle id="2001" cx="461.7" cy="282.4" r="1.8" fill="#996d39" opacity="1"></circle><circle id="2002" cx="475.3" cy="278.7" r="1.8" fill="#996d39" opacity="1"></circle><circle id="2003" cx="488.9" cy="288.5" r="1.8" fill="#996d39" opacity="1"></circle><circle id="2004" cx="502.5" cy="289.9" r="1.8" fill="#996d39" opacity="1"></circle><circle id="2005" cx="516.1" cy="283.1" r="1.8" fill="#996d39" opacity="1"></circle><circle id="2006" cx="529.7" cy="295.5" r="1.8" fill="#996d39" opacity="1"></circle><circle id="2007" cx="543.3" cy="304.6" r="1.8" fill="#996d39" opacity="1"></circle><circle id="2008" cx="556.9" cy="297.9" r="1.8" fill="#996d39" opacity="1"></circle><circle id="2009" cx="570.5" cy="310.9" r="1.8" fill="#996d39" opacity="1"></circle><circle id="2010" cx="584.1" cy="305.7" r="1.8" fill="#996d39" opacity="1"></circle><circle id="2011" cx="597.7" cy="287.9" r="1.8" fill="#996d39" opacity="1"></circle><circle id="2012" cx="611.3" cy="300.5" r="1.8" fill="#996d39" opacity="1"></circle><circle id="2013" cx="624.9" cy="320.3" r="1.8" fill="#996d39" opacity="1"></circle><circle id="2014" cx="638.5" cy="320.2" r="1.8" fill="#996d39" opacity="1"></circle><circle id="2015" cx="652.1" cy="319.4" r="1.8" fill="#996d39" opacity="1"></circle><circle id="2016" cx="665.7" cy="338.5" r="1.8" fill="#996d39" opacity="1"></circle><circle id="2017" cx="679.3" cy="323.2" r="1.8" fill="#996d39" opacity="1"></circle><circle id="2018" cx="693" cy="377.9" r="1.8" fill="#996d39" opacity="1"></circle></g><path fill="none" stroke-linecap="butt" stroke-linejoin="round" stroke="#ffffff" id="outline__Mackerels" stroke-width="2.5" d="M39.9 251.8L53.5 267.4L67.1 272.3L80.7 233.2L94.3 236.1L107.9 205.2L121.5 194.3L135.1 163.3L148.7 209.1L162.3 187.5L176 231L189.6 232.5L203.2 264.3L216.8 256.5L230.4 254.3L244 225.3L257.6 223.9L271.2 238.3L284.8 214.3L298.4 221.8L312 235.5L325.6 247.1L339.2 262.3L352.8 213.6L366.4 271.9L380 263L393.6 247.3L407.2 243.8L420.8 237.3L434.5 292.5L448.1 264L461.7 263.5L475.3 264.9L488.9 267.4L502.5 260.3L516.1 242.3L529.7 271.1L543.3 259.5L556.9 248.9L570.5 253.9L584.1 258.9L597.7 262.1L611.3 266.1L624.9 287.5L638.5 315.3L652.1 298.5L665.7 301.5L679.3 337.6L693 355.7"></path><path fill="none" stroke-linecap="butt" stroke-linejoin="round" stroke="#b13507" id="line__Mackerels" stroke-width="1.5" stroke-opacity="1" d="M39.9 251.8L53.5 267.4L67.1 272.3L80.7 233.2L94.3 236.1L107.9 205.2L121.5 194.3L135.1 163.3L148.7 209.1L162.3 187.5L176 231L189.6 232.5L203.2 264.3L216.8 256.5L230.4 254.3L244 225.3L257.6 223.9L271.2 238.3L284.8 214.3L298.4 221.8L312 235.5L325.6 247.1L339.2 262.3L352.8 213.6L366.4 271.9L380 263L393.6 247.3L407.2 243.8L420.8 237.3L434.5 292.5L448.1 264L461.7 263.5L475.3 264.9L488.9 267.4L502.5 260.3L516.1 242.3L529.7 271.1L543.3 259.5L556.9 248.9L570.5 253.9L584.1 258.9L597.7 262.1L611.3 266.1L624.9 287.5L638.5 315.3L652.1 298.5L665.7 301.5L679.3 337.6L693 355.7"></path><g id="markers__Mackerels"><circle id="1970" cx="39.9" cy="251.8" r="1.8" fill="#b13507" opacity="1"></circle><circle id="1971" cx="53.5" cy="267.4" r="1.8" fill="#b13507" opacity="1"></circle><circle id="1972" cx="67.1" cy="272.3" r="1.8" fill="#b13507" opacity="1"></circle><circle id="1973" cx="80.7" cy="233.2" r="1.8" fill="#b13507" opacity="1"></circle><circle id="1974" cx="94.3" cy="236.1" r="1.8" fill="#b13507" opacity="1"></circle><circle id="1975" cx="107.9" cy="205.2" r="1.8" fill="#b13507" opacity="1"></circle><circle id="1976" cx="121.5" cy="194.3" r="1.8" fill="#b13507" opacity="1"></circle><circle id="1977" cx="135.1" cy="163.3" r="1.8" fill="#b13507" opacity="1"></circle><circle id="1978" cx="148.7" cy="209.1" r="1.8" fill="#b13507" opacity="1"></circle><circle id="1979" cx="162.3" cy="187.5" r="1.8" fill="#b13507" opacity="1"></circle><circle id="1980" cx="176" cy="231" r="1.8" fill="#b13507" opacity="1"></circle><circle id="1981" cx="189.6" cy="232.5" r="1.8" fill="#b13507" opacity="1"></circle><circle id="1982" cx="203.2" cy="264.3" r="1.8" fill="#b13507" opacity="1"></circle><circle id="1983" cx="216.8" cy="256.5" r="1.8" fill="#b13507" opacity="1"></circle><circle id="1984" cx="230.4" cy="254.3" r="1.8" fill="#b13507" opacity="1"></circle><circle id="1985" cx="244" cy="225.3" r="1.8" fill="#b13507" opacity="1"></circle><circle id="1986" cx="257.6" cy="223.9" r="1.8" fill="#b13507" opacity="1"></circle><circle id="1987" cx="271.2" cy="238.3" r="1.8" fill="#b13507" opacity="1"></circle><circle id="1988" cx="284.8" cy="214.3" r="1.8" fill="#b13507" opacity="1"></circle><circle id="1989" cx="298.4" cy="221.8" r="1.8" fill="#b13507" opacity="1"></circle><circle id="1990" cx="312" cy="235.5" r="1.8" fill="#b13507" opacity="1"></circle><circle id="1991" cx="325.6" cy="247.1" r="1.8" fill="#b13507" opacity="1"></circle><circle id="1992" cx="339.2" cy="262.3" r="1.8" fill="#b13507" opacity="1"></circle><circle id="1993" cx="352.8" cy="213.6" r="1.8" fill="#b13507" opacity="1"></circle><circle id="1994" cx="366.4" cy="271.9" r="1.8" fill="#b13507" opacity="1"></circle><circle id="1995" cx="380" cy="263" r="1.8" fill="#b13507" opacity="1"></circle><circle id="1996" cx="393.6" cy="247.3" r="1.8" fill="#b13507" opacity="1"></circle><circle id="1997" cx="407.2" cy="243.8" r="1.8" fill="#b13507" opacity="1"></circle><circle id="1998" cx="420.8" cy="237.3" r="1.8" fill="#b13507" opacity="1"></circle><circle id="1999" cx="434.5" cy="292.5" r="1.8" fill="#b13507" opacity="1"></circle><circle id="2000" cx="448.1" cy="264" r="1.8" fill="#b13507" opacity="1"></circle><circle id="2001" cx="461.7" cy="263.5" r="1.8" fill="#b13507" opacity="1"></circle><circle id="2002" cx="475.3" cy="264.9" r="1.8" fill="#b13507" opacity="1"></circle><circle id="2003" cx="488.9" cy="267.4" r="1.8" fill="#b13507" opacity="1"></circle><circle id="2004" cx="502.5" cy="260.3" r="1.8" fill="#b13507" opacity="1"></circle><circle id="2005" cx="516.1" cy="242.3" r="1.8" fill="#b13507" opacity="1"></circle><circle id="2006" cx="529.7" cy="271.1" r="1.8" fill="#b13507" opacity="1"></circle><circle id="2007" cx="543.3" cy="259.5" r="1.8" fill="#b13507" opacity="1"></circle><circle id="2008" cx="556.9" cy="248.9" r="1.8" fill="#b13507" opacity="1"></circle><circle id="2009" cx="570.5" cy="253.9" r="1.8" fill="#b13507" opacity="1"></circle><circle id="2010" cx="584.1" cy="258.9" r="1.8" fill="#b13507" opacity="1"></circle><circle id="2011" cx="597.7" cy="262.1" r="1.8" fill="#b13507" opacity="1"></circle><circle id="2012" cx="611.3" cy="266.1" r="1.8" fill="#b13507" opacity="1"></circle><circle id="2013" cx="624.9" cy="287.5" r="1.8" fill="#b13507" opacity="1"></circle><circle id="2014" cx="638.5" cy="315.3" r="1.8" fill="#b13507" opacity="1"></circle><circle id="2015" cx="652.1" cy="298.5" r="1.8" fill="#b13507" opacity="1"></circle><circle id="2016" cx="665.7" cy="301.5" r="1.8" fill="#b13507" opacity="1"></circle><circle id="2017" cx="679.3" cy="337.6" r="1.8" fill="#b13507" opacity="1"></circle><circle id="2018" cx="693" cy="355.7" r="1.8" fill="#b13507" opacity="1"></circle></g><path fill="none" stroke-linecap="butt" stroke-linejoin="round" stroke="#ffffff" id="outline__Tuna" stroke-width="2.5" d="M39.9 321.7L53.5 350.5L67.1 341.1L80.7 330L94.3 306L107.9 306.8L121.5 310L135.1 293.9L148.7 293.9L162.3 292.3L176 293.6L189.6 263.7L203.2 291.7L216.8 279.2L230.4 271.4L244 248.8L257.6 247L271.2 231.9L284.8 213.9L298.4 221L312 193.4L325.6 208L339.2 181.9L352.8 175L366.4 156.5L380 178.9L393.6 150.7L407.2 134.9L420.8 130.9L434.5 120.2L448.1 104.4L461.7 109L475.3 137.8L488.9 136.6L502.5 112.8L516.1 166.7L529.7 206.3L543.3 170L556.9 196L570.5 156.7L584.1 160.7L597.7 129.8L611.3 121.9L624.9 185.7L638.5 147.9L652.1 124.8L665.7 162.2"></path><path fill="none" stroke-linecap="butt" stroke-linejoin="round" stroke="#4c6a9c" id="line__Tuna" stroke-width="1.5" stroke-opacity="1" d="M39.9 321.7L53.5 350.5L67.1 341.1L80.7 330L94.3 306L107.9 306.8L121.5 310L135.1 293.9L148.7 293.9L162.3 292.3L176 293.6L189.6 263.7L203.2 291.7L216.8 279.2L230.4 271.4L244 248.8L257.6 247L271.2 231.9L284.8 213.9L298.4 221L312 193.4L325.6 208L339.2 181.9L352.8 175L366.4 156.5L380 178.9L393.6 150.7L407.2 134.9L420.8 130.9L434.5 120.2L448.1 104.4L461.7 109L475.3 137.8L488.9 136.6L502.5 112.8L516.1 166.7L529.7 206.3L543.3 170L556.9 196L570.5 156.7L584.1 160.7L597.7 129.8L611.3 121.9L624.9 185.7L638.5 147.9L652.1 124.8L665.7 162.2"></path><g id="markers__Tuna"><circle id="1970" cx="39.9" cy="321.7" r="1.8" fill="#4c6a9c" opacity="1"></circle><circle id="1971" cx="53.5" cy="350.5" r="1.8" fill="#4c6a9c" opacity="1"></circle><circle id="1972" cx="67.1" cy="341.1" r="1.8" fill="#4c6a9c" opacity="1"></circle><circle id="1973" cx="80.7" cy="330" r="1.8" fill="#4c6a9c" opacity="1"></circle><circle id="1974" cx="94.3" cy="306" r="1.8" fill="#4c6a9c" opacity="1"></circle><circle id="1975" cx="107.9" cy="306.8" r="1.8" fill="#4c6a9c" opacity="1"></circle><circle id="1976" cx="121.5" cy="310" r="1.8" fill="#4c6a9c" opacity="1"></circle><circle id="1977" cx="135.1" cy="293.9" r="1.8" fill="#4c6a9c" opacity="1"></circle><circle id="1978" cx="148.7" cy="293.9" r="1.8" fill="#4c6a9c" opacity="1"></circle><circle id="1979" cx="162.3" cy="292.3" r="1.8" fill="#4c6a9c" opacity="1"></circle><circle id="1980" cx="176" cy="293.6" r="1.8" fill="#4c6a9c" opacity="1"></circle><circle id="1981" cx="189.6" cy="263.7" r="1.8" fill="#4c6a9c" opacity="1"></circle><circle id="1982" cx="203.2" cy="291.7" r="1.8" fill="#4c6a9c" opacity="1"></circle><circle id="1983" cx="216.8" cy="279.2" r="1.8" fill="#4c6a9c" opacity="1"></circle><circle id="1984" cx="230.4" cy="271.4" r="1.8" fill="#4c6a9c" opacity="1"></circle><circle id="1985" cx="244" cy="248.8" r="1.8" fill="#4c6a9c" opacity="1"></circle><circle id="1986" cx="257.6" cy="247" r="1.8" fill="#4c6a9c" opacity="1"></circle><circle id="1987" cx="271.2" cy="231.9" r="1.8" fill="#4c6a9c" opacity="1"></circle><circle id="1988" cx="284.8" cy="213.9" r="1.8" fill="#4c6a9c" opacity="1"></circle><circle id="1989" cx="298.4" cy="221" r="1.8" fill="#4c6a9c" opacity="1"></circle><circle id="1990" cx="312" cy="193.4" r="1.8" fill="#4c6a9c" opacity="1"></circle><circle id="1991" cx="325.6" cy="208" r="1.8" fill="#4c6a9c" opacity="1"></circle><circle id="1992" cx="339.2" cy="181.9" r="1.8" fill="#4c6a9c" opacity="1"></circle><circle id="1993" cx="352.8" cy="175" r="1.8" fill="#4c6a9c" opacity="1"></circle><circle id="1994" cx="366.4" cy="156.5" r="1.8" fill="#4c6a9c" opacity="1"></circle><circle id="1995" cx="380" cy="178.9" r="1.8" fill="#4c6a9c" opacity="1"></circle><circle id="1996" cx="393.6" cy="150.7" r="1.8" fill="#4c6a9c" opacity="1"></circle><circle id="1997" cx="407.2" cy="134.9" r="1.8" fill="#4c6a9c" opacity="1"></circle><circle id="1998" cx="420.8" cy="130.9" r="1.8" fill="#4c6a9c" opacity="1"></circle><circle id="1999" cx="434.5" cy="120.2" r="1.8" fill="#4c6a9c" opacity="1"></circle><circle id="2000" cx="448.1" cy="104.4" r="1.8" fill="#4c6a9c" opacity="1"></circle><circle id="2001" cx="461.7" cy="109" r="1.8" fill="#4c6a9c" opacity="1"></circle><circle id="2002" cx="475.3" cy="137.8" r="1.8" fill="#4c6a9c" opacity="1"></circle><circle id="2003" cx="488.9" cy="136.6" r="1.8" fill="#4c6a9c" opacity="1"></circle><circle id="2004" cx="502.5" cy="112.8" r="1.8" fill="#4c6a9c" opacity="1"></circle><circle id="2005" cx="516.1" cy="166.7" r="1.8" fill="#4c6a9c" opacity="1"></circle><circle id="2006" cx="529.7" cy="206.3" r="1.8" fill="#4c6a9c" opacity="1"></circle><circle id="2007" cx="543.3" cy="170" r="1.8" fill="#4c6a9c" opacity="1"></circle><circle id="2008" cx="556.9" cy="196" r="1.8" fill="#4c6a9c" opacity="1"></circle><circle id="2009" cx="570.5" cy="156.7" r="1.8" fill="#4c6a9c" opacity="1"></circle><circle id="2010" cx="584.1" cy="160.7" r="1.8" fill="#4c6a9c" opacity="1"></circle><circle id="2011" cx="597.7" cy="129.8" r="1.8" fill="#4c6a9c" opacity="1"></circle><circle id="2012" cx="611.3" cy="121.9" r="1.8" fill="#4c6a9c" opacity="1"></circle><circle id="2013" cx="624.9" cy="185.7" r="1.8" fill="#4c6a9c" opacity="1"></circle><circle id="2014" cx="638.5" cy="147.9" r="1.8" fill="#4c6a9c" opacity="1"></circle><circle id="2015" cx="652.1" cy="124.8" r="1.8" fill="#4c6a9c" opacity="1"></circle><circle id="2016" cx="665.7" cy="162.2" r="1.8" fill="#4c6a9c" opacity="1"></circle></g></g></g><g id="footer" class="SourcesFooter" style="fill:#5b5b5b"><g id="sources" class="markdown-text-wrap"><text x="16.0" y="563.4" style="font-size:13px;line-height:1.2"><tspan x="16" y="563.4"><tspan style="font-weight:700">Data source:</tspan> RAM Legacy Database; Hilborn,et al. (2020). Effective fisheries management instrumental in improving fish stock status.</tspan></text></g><text id="origin-url" font-size="13.00" x="16.0" y="581.0"><tspan x="16" y="581.01"><a target="_blank" style="fill: #5b5b5b;" href="https://ourworldindata.org/fish-and-overfishing">OurWorldinData.org/fish-and-overfishing</a> | <a target="_blank" style="fill: #5b5b5b;" href="https://ourworldindata.org">Powered by ourworldindata.org</a></tspan></text></g></svg>