<svg xmlns="http://www.w3.org/2000/svg" version="1.1" style="font-family:Lato, &#x27;Helvetica Neue&#x27;, Helvetica, Arial, &#x27;Liberation Sans&#x27;, sans-serif;font-size:18px;background-color:#ffffff;text-rendering:geometricPrecision;-webkit-font-smoothing:antialiased" width="850" height="600" viewBox="0 0 850 600"><defs><style>@import url(https://ourworldindata.org/fonts.css)</style></defs><defs><pattern id="noDataPattern" patternUnits="userSpaceOnUse" width="4" height="4" patternTransform="rotate(-45 2 2)"><path d="M -1,2 l 6,0" stroke="#ccc" stroke-width="0.7"></path></pattern></defs><g id="header" class="HeaderView"><g id="logo" transform="translate(769, 16) scale(1)"><svg className="owidLogo" xmlns="http://www.w3.org/2000/svg" width="65" height="36" viewBox="0 0 65 36"  fill="none"><path fill="#002147" d="M0 0h64.8v36H0z"/><path fill="#CE261E" d="M0 33.3h64.8V36H0z"/><path fill="#fff" d="M13.796 10.575c0 .636-.106 1.226-.318 1.77a4.193 4.193 0 0 1-.894 1.404 4.084 4.084 0 0 1-1.386.93c-.54.22-1.138.33-1.794.33-.656 0-1.256-.11-1.8-.33a4.149 4.149 0 0 1-1.392-.93 4.193 4.193 0 0 1-.894-1.404A4.833 4.833 0 0 1 5 10.575c0-.636.106-1.224.318-1.764a4.18 4.18 0 0 1 .894-1.41 4.076 4.076 0 0 1 1.392-.924 4.684 4.684 0 0 1 1.8-.336c.656 0 1.254.112 1.794.336.54.224 1.002.534 1.386.93.384.392.682.86.894 1.404.212.54.318 1.128.318 1.764Zm-1.656 0c0-.476-.064-.902-.192-1.278a2.671 2.671 0 0 0-.54-.966 2.332 2.332 0 0 0-.864-.606 2.94 2.94 0 0 0-1.14-.21c-.424 0-.806.07-1.146.21-.34.14-.63.342-.87.606a2.742 2.742 0 0 0-.546.966 3.955 3.955 0 0 0-.192 1.278c0 .476.064.904.192 1.284.128.376.31.696.546.96.24.26.53.46.87.6.34.14.722.21 1.146.21.424 0 .804-.07 1.14-.21.34-.14.628-.34.864-.6.236-.264.416-.584.54-.96a4.01 4.01 0 0 0 .192-1.284ZM16.104 8.757v3.912c0 .376.086.668.258.876.176.204.438.306.786.306.256 0 .496-.056.72-.168a2.58 2.58 0 0 0 .636-.474V8.757h1.482v6.156h-.906c-.192 0-.318-.09-.378-.27l-.102-.492a4.65 4.65 0 0 1-.396.354 2.577 2.577 0 0 1-.438.27 2.35 2.35 0 0 1-.498.168 2.345 2.345 0 0 1-.57.066c-.336 0-.634-.056-.894-.168a1.821 1.821 0 0 1-.648-.486 2.157 2.157 0 0 1-.402-.738 3.233 3.233 0 0 1-.132-.948V8.757h1.482ZM21.328 14.913V8.757h.87c.152 0 .258.028.318.084.06.056.1.152.12.288l.09.744c.22-.38.478-.68.774-.9.296-.22.628-.33.996-.33.304 0 .556.07.756.21l-.192 1.11c-.012.072-.038.124-.078.156a.278.278 0 0 1-.162.042 1.01 1.01 0 0 1-.246-.042 1.646 1.646 0 0 0-.414-.042c-.308 0-.572.086-.792.258-.22.168-.406.416-.558.744v3.834h-1.482ZM27.347 6.237h1.356a.57.57 0 0 1 .348.102c.096.064.16.152.192.264l1.476 5.19c.036.128.068.268.096.42.032.148.062.306.09.474a5.968 5.968 0 0 1 .228-.894l1.704-5.19a.575.575 0 0 1 .186-.252.543.543 0 0 1 .348-.114h.474a.57.57 0 0 1 .348.102.497.497 0 0 1 .192.264l1.692 5.19c.088.256.164.54.228.852.028-.156.056-.306.084-.45.032-.144.064-.278.096-.402l1.476-5.19c.028-.1.09-.186.186-.258a.563.563 0 0 1 .348-.108h1.266l-2.694 8.676h-1.458l-1.896-5.928-.078-.246a9.504 9.504 0 0 1-.072-.282c-.024.1-.05.194-.078.282-.024.088-.048.17-.072.246l-1.914 5.928H30.04l-2.694-8.676ZM42.771 8.661c.46 0 .876.074 1.248.222.376.148.696.358.96.63s.468.604.612.996c.144.392.216.83.216 1.314 0 .488-.072.928-.216 1.32a2.85 2.85 0 0 1-.612 1.002 2.653 2.653 0 0 1-.96.636 3.35 3.35 0 0 1-1.248.222c-.46 0-.878-.074-1.254-.222a2.712 2.712 0 0 1-.966-.636 2.922 2.922 0 0 1-.618-1.002 3.807 3.807 0 0 1-.216-1.32c0-.484.072-.922.216-1.314.148-.392.354-.724.618-.996.268-.272.59-.482.966-.63a3.397 3.397 0 0 1 1.254-.222Zm0 5.202c.512 0 .89-.172 1.134-.516.248-.344.372-.848.372-1.512s-.124-1.17-.372-1.518c-.244-.348-.622-.522-1.134-.522-.52 0-.904.176-1.152.528-.248.348-.372.852-.372 1.512s.124 1.164.372 1.512c.248.344.632.516 1.152.516ZM46.723 14.913V8.757h.87c.152 0 .258.028.318.084.06.056.1.152.12.288l.09.744c.22-.38.478-.68.774-.9.296-.22.628-.33.996-.33.304 0 .556.07.756.21l-.192 1.11c-.012.072-.038.124-.078.156a.278.278 0 0 1-.162.042 1.01 1.01 0 0 1-.246-.042 1.646 1.646 0 0 0-.414-.042c-.308 0-.572.086-.792.258-.22.168-.406.416-.558.744v3.834h-1.482ZM52.96 5.997v8.916h-1.482V5.997h1.482ZM58.732 14.913c-.192 0-.318-.09-.378-.27l-.12-.594a3.68 3.68 0 0 1-.402.39c-.14.116-.292.216-.456.3-.16.084-.334.148-.522.192a2.372 2.372 0 0 1-.6.072c-.336 0-.644-.07-.924-.21a2.098 2.098 0 0 1-.726-.606 3.033 3.033 0 0 1-.468-.99 5.072 5.072 0 0 1-.162-1.344c0-.456.062-.88.186-1.272s.302-.732.534-1.02c.232-.288.51-.512.834-.672a2.384 2.384 0 0 1 1.092-.246 2.103 2.103 0 0 1 1.536.606V5.997h1.482v8.916h-.906Zm-1.974-1.086c.308 0 .57-.064.786-.192.216-.128.42-.31.612-.546v-2.76a1.452 1.452 0 0 0-.552-.432 1.597 1.597 0 0 0-.636-.126c-.224 0-.428.042-.612.126a1.21 1.21 0 0 0-.462.384c-.124.168-.22.384-.288.648-.068.26-.102.568-.102.924 0 .36.028.666.084.918.06.248.144.452.252.612.108.156.24.27.396.342.156.068.33.102.522.102ZM16.331 20.757v6.156H14.85v-6.156h1.481Zm.223-1.794a.844.844 0 0 1-.078.36.963.963 0 0 1-.21.294.995.995 0 0 1-.3.204.963.963 0 0 1-.372.072.948.948 0 0 1-.367-.072 1.018 1.018 0 0 1-.498-.498.963.963 0 0 1 0-.732.995.995 0 0 1 .205-.3.929.929 0 0 1 .293-.198.899.899 0 0 1 .738 0 .912.912 0 0 1 .3.198.943.943 0 0 1 .288.672ZM17.771 26.913v-6.156h.906c.192 0 .318.09.378.27l.102.486a2.934 2.934 0 0 1 .828-.618c.156-.076.322-.134.498-.174.176-.04.368-.06.576-.06.336 0 .634.058.894.174.26.112.476.272.648.48.176.204.308.45.396.738.092.284.138.598.138.942v3.918h-1.482v-3.918c0-.376-.088-.666-.264-.87-.172-.208-.432-.312-.78-.312-.256 0-.496.058-.72.174a2.58 2.58 0 0 0-.636.474v4.452h-1.482ZM34.22 22.575c0 .636-.106 1.22-.318 1.752-.212.532-.51.99-.894 1.374a4 4 0 0 1-1.386.894 4.87 4.87 0 0 1-1.794.318h-3.312v-8.676h3.312a4.79 4.79 0 0 1 1.794.324 4 4 0 0 1 1.386.894c.384.38.682.836.894 1.368.212.532.318 1.116.318 1.752Zm-1.65 0c0-.476-.064-.902-.192-1.278a2.68 2.68 0 0 0-.546-.96 2.332 2.332 0 0 0-.864-.606 2.94 2.94 0 0 0-1.14-.21h-1.686v6.108h1.686c.424 0 .804-.07 1.14-.21.34-.14.628-.34.864-.6a2.75 2.75 0 0 0 .546-.96 4.01 4.01 0 0 0 .192-1.284ZM39.98 26.913h-.665c-.14 0-.25-.02-.33-.06-.08-.044-.14-.13-.18-.258l-.132-.438c-.156.14-.31.264-.462.372a2.804 2.804 0 0 1-.462.264c-.16.072-.33.126-.51.162-.18.036-.38.054-.6.054-.26 0-.5-.034-.72-.102a1.618 1.618 0 0 1-.57-.318 1.448 1.448 0 0 1-.366-.522 1.852 1.852 0 0 1-.132-.726c0-.232.06-.46.18-.684.124-.228.328-.432.612-.612.284-.184.662-.336 1.134-.456.472-.12 1.058-.188 1.758-.204v-.36c0-.412-.088-.716-.264-.912-.172-.2-.424-.3-.756-.3a1.837 1.837 0 0 0-1.02.276c-.116.068-.224.13-.324.186a.664.664 0 0 1-.33.084.429.429 0 0 1-.258-.078.614.614 0 0 1-.174-.192l-.27-.474c.708-.648 1.562-.972 2.562-.972.36 0 .68.06.96.18.284.116.524.28.72.492.196.208.344.458.444.75.104.292.156.612.156.96v3.888Zm-2.88-.924c.153 0 .293-.014.42-.042.129-.028.249-.07.36-.126.117-.056.227-.124.33-.204.109-.084.217-.182.325-.294v-1.038c-.432.02-.794.058-1.086.114-.288.052-.52.12-.696.204a.923.923 0 0 0-.378.294.664.664 0 0 0-.108.366c0 .26.076.446.228.558.156.112.358.168.606.168ZM43.22 27.01c-.532 0-.942-.15-1.23-.45-.288-.305-.432-.723-.432-1.255v-3.438h-.624a.31.31 0 0 1-.21-.078c-.056-.052-.084-.13-.084-.234v-.588l.99-.162.312-1.68a.302.302 0 0 1 .108-.186.365.365 0 0 1 .222-.066h.768v1.938h1.62v1.056h-1.62v3.336c0 .192.048.342.144.45a.488.488 0 0 0 .384.162c.092 0 .168-.01.228-.03.064-.024.118-.048.162-.072.048-.024.09-.046.126-.066a.194.194 0 0 1 .108-.036.16.16 0 0 1 .108.036c.028.02.058.052.09.096l.444.72c-.216.18-.464.316-.744.408a2.77 2.77 0 0 1-.87.138ZM50.423 26.913h-.666c-.14 0-.25-.02-.33-.06-.08-.044-.14-.13-.18-.258l-.132-.438c-.156.14-.31.264-.462.372a2.804 2.804 0 0 1-.462.264c-.16.072-.33.126-.51.162-.18.036-.38.054-.6.054-.26 0-.5-.034-.72-.102a1.618 1.618 0 0 1-.57-.318 1.448 1.448 0 0 1-.366-.522 1.852 1.852 0 0 1-.132-.726c0-.232.06-.46.18-.684.124-.228.328-.432.612-.612.284-.184.662-.336 1.134-.456.472-.12 1.058-.188 1.758-.204v-.36c0-.412-.088-.716-.264-.912-.172-.2-.424-.3-.756-.3a1.837 1.837 0 0 0-1.02.276c-.116.068-.224.13-.324.186a.664.664 0 0 1-.33.084.429.429 0 0 1-.258-.078.614.614 0 0 1-.174-.192l-.27-.474c.708-.648 1.562-.972 2.562-.972.36 0 .68.06.96.18.284.116.524.28.72.492.196.208.344.458.444.75.104.292.156.612.156.96v3.888Zm-2.88-.924c.152 0 .292-.014.42-.042.128-.028.248-.07.36-.126.116-.056.226-.124.33-.204.108-.084.216-.182.324-.294v-1.038c-.432.02-.794.058-1.086.114-.288.052-.52.12-.696.204a.923.923 0 0 0-.378.294.664.664 0 0 0-.108.366c0 .26.076.446.228.558.156.112.358.168.606.168Z"/></svg></g><a id="title" href="https://ourworldindata.org/grapher/coal-production-per-capita-over-the-long-term" style="font-family:&#x27;Playfair Display&#x27;, Georgia, &#x27;Times New Roman&#x27;, &#x27;Liberation Serif&#x27;, serif" target="_blank" rel="noopener"><text font-size="25.00" font-weight="600" x="16.0" y="40.3" fill="#2d2e2d"><tspan x="16" y="40.25">Coal production per capita over the long-term, 1700 to 2016</tspan></text></a><g id="subtitle" class="markdown-text-wrap"><text x="16.0" y="66.5" style="font-size:15px;line-height:1.2" fill="#5b5b5b"><tspan x="16" y="66.5">Average coal production per capita over the long-term, measured in megawatt-hour (MWh) equivalents per</tspan><tspan x="16" y="84.5">person per year.</tspan></text></g></g><g id="chart-area" style="pointer-events:none"><g id="horizontal-axis" class="HorizontalAxis"><g id="tick-marks"><line id="1700" x1="69.5" y1="511.79999999999995" x2="69.5" y2="517.3" stroke="#999" stroke-width="1"></line><line id="2016" x1="704.6" y1="511.79999999999995" x2="704.6" y2="517.3" stroke="#999" stroke-width="1"></line><line id="1750" x1="170" y1="511.79999999999995" x2="170" y2="517.3" stroke="#999" stroke-width="1"></line><line id="1800" x1="270.5" y1="511.79999999999995" x2="270.5" y2="517.3" stroke="#999" stroke-width="1"></line><line id="1850" x1="371" y1="511.79999999999995" x2="371" y2="517.3" stroke="#999" stroke-width="1"></line><line id="1900" x1="471.5" y1="511.79999999999995" x2="471.5" y2="517.3" stroke="#999" stroke-width="1"></line><line id="1950" x1="572" y1="511.79999999999995" x2="572" y2="517.3" stroke="#999" stroke-width="1"></line></g><g id="tick-labels"><text x="69.49000000000001" y="530.3" fill="#5b5b5b" text-anchor="start" font-size="13">1700</text><text x="704.64" y="530.3" fill="#5b5b5b" text-anchor="end" font-size="13">2016</text><text x="170" y="530.3" fill="#5b5b5b" text-anchor="middle" font-size="13">1750</text><text x="270.5" y="530.3" fill="#5b5b5b" text-anchor="middle" font-size="13">1800</text><text x="371" y="530.3" fill="#5b5b5b" text-anchor="middle" font-size="13">1850</text><text x="471.5" y="530.3" fill="#5b5b5b" text-anchor="middle" font-size="13">1900</text><text x="572" y="530.3" fill="#5b5b5b" text-anchor="middle" font-size="13">1950</text></g></g><g id="vertical-axis" class="VerticalAxis"><g id="tick-labels"><text x="64.49" y="512.3" dy=".32em" text-anchor="end" fill="#5b5b5b" font-size="13">0 MWh</text><text x="64.49" y="445.2" dy=".32em" text-anchor="end" fill="#5b5b5b" font-size="13">10 MWh</text><text x="64.49" y="378.2" dy=".32em" text-anchor="end" fill="#5b5b5b" font-size="13">20 MWh</text><text x="64.49" y="311.1" dy=".32em" text-anchor="end" fill="#5b5b5b" font-size="13">30 MWh</text><text x="64.49" y="244.1" dy=".32em" text-anchor="end" fill="#5b5b5b" font-size="13">40 MWh</text><text x="64.49" y="177" dy=".32em" text-anchor="end" fill="#5b5b5b" font-size="13">50 MWh</text><text x="64.49" y="110" dy=".32em" text-anchor="end" fill="#5b5b5b" font-size="13">60 MWh</text></g></g><g id="horizontal-grid-lines" class="AxisGridLines horizontalLines"><line id="0-MWh" x1="69.49" y1="512.3" x2="704.64" y2="512.3" stroke="#999"></line><line id="10-MWh" x1="69.49" y1="445.2" x2="704.64" y2="445.2" stroke="#ddd" stroke-dasharray="4,4"></line><line id="20-MWh" x1="69.49" y1="378.2" x2="704.64" y2="378.2" stroke="#ddd" stroke-dasharray="4,4"></line><line id="30-MWh" x1="69.49" y1="311.1" x2="704.64" y2="311.1" stroke="#ddd" stroke-dasharray="4,4"></line><line id="40-MWh" x1="69.49" y1="244.1" x2="704.64" y2="244.1" stroke="#ddd" stroke-dasharray="4,4"></line><line id="50-MWh" x1="69.49" y1="177" x2="704.64" y2="177" stroke="#ddd" stroke-dasharray="4,4"></line><line id="60-MWh" x1="69.49" y1="110" x2="704.64" y2="110" stroke="#ddd" stroke-dasharray="4,4"></line></g><g id="line-labels" class="LineLabels"><g id="text-annotations"></g><g id="text-labels"><text id="label__China" font-size="13.00" font-weight="400" x="708.6" y="416.3" fill="#2c8465" opacity="1" text-anchor="start"><tspan x="708.64" y="416.31">China</tspan></text><text id="label__United-States" font-size="13.00" font-weight="400" x="708.6" y="434.6" fill="#996d39" opacity="1" text-anchor="start"><tspan x="708.64" y="434.61">United States</tspan></text><text id="label__World" font-size="13.00" font-weight="400" x="708.6" y="478.8" fill="#b13507" opacity="1" text-anchor="start"><tspan x="708.64" y="478.81">World</tspan></text><text id="label__India" font-size="13.00" font-weight="400" x="708.6" y="497.9" fill="#6d3e91" opacity="1" text-anchor="start"><tspan x="708.64" y="497.91">India</tspan></text><text id="label__United-Kingdom" font-size="13.00" font-weight="400" x="708.6" y="516.2" fill="#4c6a9c" opacity="1" text-anchor="start"><tspan x="708.64" y="516.21">United Kingdom</tspan></text></g></g><g id="lines"><path fill="none" stroke-linecap="butt" stroke-linejoin="round" stroke="#ffffff" id="outline__India" stroke-width="2.5" d="M497.6 509.5L529.8 508.6L553.9 508.3L563.9 508.6L566 508.6L568 508.6L570 508.5L572 508.6L574 508.4L576 508.3L578 508.4L580 508.3L582 508.3L584 508.2L586.1 507.9L588.1 507.8L590.1 507.7L592.1 507.3L594.1 507.1L596.1 506.7L598.1 506.4L600.1 506.8L602.1 506.5L604.1 506.5L606.2 506.6L608.2 506.5L610.2 506.2L612.2 506.5L614.2 506.8L616.2 506.6L618.2 506.6L620.2 506.3L622.2 505.6L624.2 505.4L626.3 505.6L628.3 505.7L630.3 505.7L632.3 506.8L634.3 506.2L636.3 506.1L638.3 506L640.3 505L642.3 504.9L644.3 504.4L646.4 504.5L648.4 504.2L650.4 504.1L652.4 503.8L654.4 503.2L656.4 502.9L658.4 502.8L660.4 502.6L662.4 500.4L664.4 501.9L666.5 501.6L668.5 501.6L670.5 501.4L672.5 501.2L674.5 500.8L676.5 501.7L678.5 501.2L680.5 500.7L682.5 500.2L684.5 499.7L686.6 499.1L688.6 498.3L690.6 497.4L692.6 497.5L694.6 497.4L696.6 497.2L698.6 497.4L700.6 496.6L702.6 495.6L704.6 495.3"></path><path fill="none" stroke-linecap="butt" stroke-linejoin="round" stroke="#6d3e91" id="line__India" stroke-width="1.5" stroke-opacity="1" d="M497.6 509.5L529.8 508.6L553.9 508.3L563.9 508.6L566 508.6L568 508.6L570 508.5L572 508.6L574 508.4L576 508.3L578 508.4L580 508.3L582 508.3L584 508.2L586.1 507.9L588.1 507.8L590.1 507.7L592.1 507.3L594.1 507.1L596.1 506.7L598.1 506.4L600.1 506.8L602.1 506.5L604.1 506.5L606.2 506.6L608.2 506.5L610.2 506.2L612.2 506.5L614.2 506.8L616.2 506.6L618.2 506.6L620.2 506.3L622.2 505.6L624.2 505.4L626.3 505.6L628.3 505.7L630.3 505.7L632.3 506.8L634.3 506.2L636.3 506.1L638.3 506L640.3 505L642.3 504.9L644.3 504.4L646.4 504.5L648.4 504.2L650.4 504.1L652.4 503.8L654.4 503.2L656.4 502.9L658.4 502.8L660.4 502.6L662.4 500.4L664.4 501.9L666.5 501.6L668.5 501.6L670.5 501.4L672.5 501.2L674.5 500.8L676.5 501.7L678.5 501.2L680.5 500.7L682.5 500.2L684.5 499.7L686.6 499.1L688.6 498.3L690.6 497.4L692.6 497.5L694.6 497.4L696.6 497.2L698.6 497.4L700.6 496.6L702.6 495.6L704.6 495.3"></path><g id="datapoints__India"><circle id="1913" cx="497.6" cy="509.5" r="1.8" fill="#6d3e91" opacity="1"></circle><circle id="1929" cx="529.8" cy="508.6" r="1.8" fill="#6d3e91" opacity="1"></circle><circle id="1941" cx="553.9" cy="508.3" r="1.8" fill="#6d3e91" opacity="1"></circle><circle id="1946" cx="563.9" cy="508.6" r="1.8" fill="#6d3e91" opacity="1"></circle><circle id="1947" cx="566" cy="508.6" r="1.8" fill="#6d3e91" opacity="1"></circle><circle id="1948" cx="568" cy="508.6" r="1.8" fill="#6d3e91" opacity="1"></circle><circle id="1949" cx="570" cy="508.5" r="1.8" fill="#6d3e91" opacity="1"></circle><circle id="1950" cx="572" cy="508.6" r="1.8" fill="#6d3e91" opacity="1"></circle><circle id="1951" cx="574" cy="508.4" r="1.8" fill="#6d3e91" opacity="1"></circle><circle id="1952" cx="576" cy="508.3" r="1.8" fill="#6d3e91" opacity="1"></circle><circle id="1953" cx="578" cy="508.4" r="1.8" fill="#6d3e91" opacity="1"></circle><circle id="1954" cx="580" cy="508.3" r="1.8" fill="#6d3e91" opacity="1"></circle><circle id="1955" cx="582" cy="508.3" r="1.8" fill="#6d3e91" opacity="1"></circle><circle id="1956" cx="584" cy="508.2" r="1.8" fill="#6d3e91" opacity="1"></circle><circle id="1957" cx="586.1" cy="507.9" r="1.8" fill="#6d3e91" opacity="1"></circle><circle id="1958" cx="588.1" cy="507.8" r="1.8" fill="#6d3e91" opacity="1"></circle><circle id="1959" cx="590.1" cy="507.7" r="1.8" fill="#6d3e91" opacity="1"></circle><circle id="1960" cx="592.1" cy="507.3" r="1.8" fill="#6d3e91" opacity="1"></circle><circle id="1961" cx="594.1" cy="507.1" r="1.8" fill="#6d3e91" opacity="1"></circle><circle id="1962" cx="596.1" cy="506.7" r="1.8" fill="#6d3e91" opacity="1"></circle><circle id="1963" cx="598.1" cy="506.4" r="1.8" fill="#6d3e91" opacity="1"></circle><circle id="1964" cx="600.1" cy="506.8" r="1.8" fill="#6d3e91" opacity="1"></circle><circle id="1965" cx="602.1" cy="506.5" r="1.8" fill="#6d3e91" opacity="1"></circle><circle id="1966" cx="604.1" cy="506.5" r="1.8" fill="#6d3e91" opacity="1"></circle><circle id="1967" cx="606.2" cy="506.6" r="1.8" fill="#6d3e91" opacity="1"></circle><circle id="1968" cx="608.2" cy="506.5" r="1.8" fill="#6d3e91" opacity="1"></circle><circle id="1969" cx="610.2" cy="506.2" r="1.8" fill="#6d3e91" opacity="1"></circle><circle id="1970" cx="612.2" cy="506.5" r="1.8" fill="#6d3e91" opacity="1"></circle><circle id="1971" cx="614.2" cy="506.8" r="1.8" fill="#6d3e91" opacity="1"></circle><circle id="1972" cx="616.2" cy="506.6" r="1.8" fill="#6d3e91" opacity="1"></circle><circle id="1973" cx="618.2" cy="506.6" r="1.8" fill="#6d3e91" opacity="1"></circle><circle id="1974" cx="620.2" cy="506.3" r="1.8" fill="#6d3e91" opacity="1"></circle><circle id="1975" cx="622.2" cy="505.6" r="1.8" fill="#6d3e91" opacity="1"></circle><circle id="1976" cx="624.2" cy="505.4" r="1.8" fill="#6d3e91" opacity="1"></circle><circle id="1977" cx="626.3" cy="505.6" r="1.8" fill="#6d3e91" opacity="1"></circle><circle id="1978" cx="628.3" cy="505.7" r="1.8" fill="#6d3e91" opacity="1"></circle><circle id="1979" cx="630.3" cy="505.7" r="1.8" fill="#6d3e91" opacity="1"></circle><circle id="1980" cx="632.3" cy="506.8" r="1.8" fill="#6d3e91" opacity="1"></circle><circle id="1981" cx="634.3" cy="506.2" r="1.8" fill="#6d3e91" opacity="1"></circle><circle id="1982" cx="636.3" cy="506.1" r="1.8" fill="#6d3e91" opacity="1"></circle><circle id="1983" cx="638.3" cy="506" r="1.8" fill="#6d3e91" opacity="1"></circle><circle id="1984" cx="640.3" cy="505" r="1.8" fill="#6d3e91" opacity="1"></circle><circle id="1985" cx="642.3" cy="504.9" r="1.8" fill="#6d3e91" opacity="1"></circle><circle id="1986" cx="644.3" cy="504.4" r="1.8" fill="#6d3e91" opacity="1"></circle><circle id="1987" cx="646.4" cy="504.5" r="1.8" fill="#6d3e91" opacity="1"></circle><circle id="1988" cx="648.4" cy="504.2" r="1.8" fill="#6d3e91" opacity="1"></circle><circle id="1989" cx="650.4" cy="504.1" r="1.8" fill="#6d3e91" opacity="1"></circle><circle id="1990" cx="652.4" cy="503.8" r="1.8" fill="#6d3e91" opacity="1"></circle><circle id="1991" cx="654.4" cy="503.2" r="1.8" fill="#6d3e91" opacity="1"></circle><circle id="1992" cx="656.4" cy="502.9" r="1.8" fill="#6d3e91" opacity="1"></circle><circle id="1993" cx="658.4" cy="502.8" r="1.8" fill="#6d3e91" opacity="1"></circle><circle id="1994" cx="660.4" cy="502.6" r="1.8" fill="#6d3e91" opacity="1"></circle><circle id="1995" cx="662.4" cy="500.4" r="1.8" fill="#6d3e91" opacity="1"></circle><circle id="1996" cx="664.4" cy="501.9" r="1.8" fill="#6d3e91" opacity="1"></circle><circle id="1997" cx="666.5" cy="501.6" r="1.8" fill="#6d3e91" opacity="1"></circle><circle id="1998" cx="668.5" cy="501.6" r="1.8" fill="#6d3e91" opacity="1"></circle><circle id="1999" cx="670.5" cy="501.4" r="1.8" fill="#6d3e91" opacity="1"></circle><circle id="2000" cx="672.5" cy="501.2" r="1.8" fill="#6d3e91" opacity="1"></circle><circle id="2001" cx="674.5" cy="500.8" r="1.8" fill="#6d3e91" opacity="1"></circle><circle id="2002" cx="676.5" cy="501.7" r="1.8" fill="#6d3e91" opacity="1"></circle><circle id="2003" cx="678.5" cy="501.2" r="1.8" fill="#6d3e91" opacity="1"></circle><circle id="2004" cx="680.5" cy="500.7" r="1.8" fill="#6d3e91" opacity="1"></circle><circle id="2005" cx="682.5" cy="500.2" r="1.8" fill="#6d3e91" opacity="1"></circle><circle id="2006" cx="684.5" cy="499.7" r="1.8" fill="#6d3e91" opacity="1"></circle><circle id="2007" cx="686.6" cy="499.1" r="1.8" fill="#6d3e91" opacity="1"></circle><circle id="2008" cx="688.6" cy="498.3" r="1.8" fill="#6d3e91" opacity="1"></circle><circle id="2009" cx="690.6" cy="497.4" r="1.8" fill="#6d3e91" opacity="1"></circle><circle id="2010" cx="692.6" cy="497.5" r="1.8" fill="#6d3e91" opacity="1"></circle><circle id="2011" cx="694.6" cy="497.4" r="1.8" fill="#6d3e91" opacity="1"></circle><circle id="2012" cx="696.6" cy="497.2" r="1.8" fill="#6d3e91" opacity="1"></circle><circle id="2013" cx="698.6" cy="497.4" r="1.8" fill="#6d3e91" opacity="1"></circle><circle id="2014" cx="700.6" cy="496.6" r="1.8" fill="#6d3e91" opacity="1"></circle><circle id="2015" cx="702.6" cy="495.6" r="1.8" fill="#6d3e91" opacity="1"></circle><circle id="2016" cx="704.6" cy="495.3" r="1.8" fill="#6d3e91" opacity="1"></circle></g><path fill="none" stroke-linecap="butt" stroke-linejoin="round" stroke="#ffffff" id="outline__China" stroke-width="2.5" d="M475.5 512.3L477.5 512.2L479.5 512.2L481.5 512.2L483.5 511.4L485.6 511.5L487.6 511.2L489.6 511.3L491.6 511.4L493.6 511L495.6 511.8L497.6 511.8L499.6 511.6L501.6 511.6L503.6 511.5L505.7 511.4L507.7 511.4L509.7 511.2L511.7 511.1L513.7 511.2L515.7 511.1L517.7 510.9L519.7 510.8L521.7 510.9L523.7 511L525.8 510.9L527.8 510.9L529.8 510.8L531.8 510.7L533.8 510.6L535.8 510.7L537.8 510.6L539.8 510.3L541.8 510L543.8 509.7L545.9 509.9L547.9 510.1L549.9 509.7L551.9 509L553.9 508.2L555.9 508L557.9 508.6L559.9 508.5L561.9 510.4L563.9 511.1L566 511L568 511.4L570 510.1L572 509.3L574 508.7L576 507.8L578 507.7L580 506.9L582 506L584 505.4L586.1 504.2L588.1 495.8L590.1 491.4L592.1 487.4L594.1 497.7L596.1 498L598.1 498.2L600.1 496.3L602.1 496.2L604.1 495.1L606.2 500.7L608.2 497.3L610.2 496.5L612.2 495.3L614.2 494.3L616.2 494.3L618.2 493.4L620.2 492.9L622.2 492.4L624.2 492.3L626.3 490.7L628.3 488.4L630.3 488L632.3 490.1L634.3 490.3L636.3 489.1L638.3 487.7L640.3 485.6L642.3 484.9L644.3 484.7L646.4 484.1L648.4 483L650.4 481.3L652.4 481.1L654.4 481.1L656.4 480.6L658.4 479.8L660.4 478L662.4 477.3L664.4 476L666.5 471.9L668.5 471.7L670.5 474.2L672.5 472.9L674.5 470.3L676.5 464.9L678.5 458.6L680.5 454.1L682.5 442L684.5 437.8L686.6 433L688.6 429.5L690.6 424.6L692.6 418.3L694.6 410.5L696.6 419L698.6 418.4L700.6 421.3L702.6 408.5L704.6 417"></path><path fill="none" stroke-linecap="butt" stroke-linejoin="round" stroke="#2c8465" id="line__China" stroke-width="1.5" stroke-opacity="1" d="M475.5 512.3L477.5 512.2L479.5 512.2L481.5 512.2L483.5 511.4L485.6 511.5L487.6 511.2L489.6 511.3L491.6 511.4L493.6 511L495.6 511.8L497.6 511.8L499.6 511.6L501.6 511.6L503.6 511.5L505.7 511.4L507.7 511.4L509.7 511.2L511.7 511.1L513.7 511.2L515.7 511.1L517.7 510.9L519.7 510.8L521.7 510.9L523.7 511L525.8 510.9L527.8 510.9L529.8 510.8L531.8 510.7L533.8 510.6L535.8 510.7L537.8 510.6L539.8 510.3L541.8 510L543.8 509.7L545.9 509.9L547.9 510.1L549.9 509.7L551.9 509L553.9 508.2L555.9 508L557.9 508.6L559.9 508.5L561.9 510.4L563.9 511.1L566 511L568 511.4L570 510.1L572 509.3L574 508.7L576 507.8L578 507.7L580 506.9L582 506L584 505.4L586.1 504.2L588.1 495.8L590.1 491.4L592.1 487.4L594.1 497.7L596.1 498L598.1 498.2L600.1 496.3L602.1 496.2L604.1 495.1L606.2 500.7L608.2 497.3L610.2 496.5L612.2 495.3L614.2 494.3L616.2 494.3L618.2 493.4L620.2 492.9L622.2 492.4L624.2 492.3L626.3 490.7L628.3 488.4L630.3 488L632.3 490.1L634.3 490.3L636.3 489.1L638.3 487.7L640.3 485.6L642.3 484.9L644.3 484.7L646.4 484.1L648.4 483L650.4 481.3L652.4 481.1L654.4 481.1L656.4 480.6L658.4 479.8L660.4 478L662.4 477.3L664.4 476L666.5 471.9L668.5 471.7L670.5 474.2L672.5 472.9L674.5 470.3L676.5 464.9L678.5 458.6L680.5 454.1L682.5 442L684.5 437.8L686.6 433L688.6 429.5L690.6 424.6L692.6 418.3L694.6 410.5L696.6 419L698.6 418.4L700.6 421.3L702.6 408.5L704.6 417"></path><g id="datapoints__China"><circle id="1902" cx="475.5" cy="512.3" r="1.8" fill="#2c8465" opacity="1"></circle><circle id="1903" cx="477.5" cy="512.2" r="1.8" fill="#2c8465" opacity="1"></circle><circle id="1904" cx="479.5" cy="512.2" r="1.8" fill="#2c8465" opacity="1"></circle><circle id="1905" cx="481.5" cy="512.2" r="1.8" fill="#2c8465" opacity="1"></circle><circle id="1906" cx="483.5" cy="511.4" r="1.8" fill="#2c8465" opacity="1"></circle><circle id="1907" cx="485.6" cy="511.5" r="1.8" fill="#2c8465" opacity="1"></circle><circle id="1908" cx="487.6" cy="511.2" r="1.8" fill="#2c8465" opacity="1"></circle><circle id="1909" cx="489.6" cy="511.3" r="1.8" fill="#2c8465" opacity="1"></circle><circle id="1910" cx="491.6" cy="511.4" r="1.8" fill="#2c8465" opacity="1"></circle><circle id="1911" cx="493.6" cy="511" r="1.8" fill="#2c8465" opacity="1"></circle><circle id="1912" cx="495.6" cy="511.8" r="1.8" fill="#2c8465" opacity="1"></circle><circle id="1913" cx="497.6" cy="511.8" r="1.8" fill="#2c8465" opacity="1"></circle><circle id="1914" cx="499.6" cy="511.6" r="1.8" fill="#2c8465" opacity="1"></circle><circle id="1915" cx="501.6" cy="511.6" r="1.8" fill="#2c8465" opacity="1"></circle><circle id="1916" cx="503.6" cy="511.5" r="1.8" fill="#2c8465" opacity="1"></circle><circle id="1917" cx="505.7" cy="511.4" r="1.8" fill="#2c8465" opacity="1"></circle><circle id="1918" cx="507.7" cy="511.4" r="1.8" fill="#2c8465" opacity="1"></circle><circle id="1919" cx="509.7" cy="511.2" r="1.8" fill="#2c8465" opacity="1"></circle><circle id="1920" cx="511.7" cy="511.1" r="1.8" fill="#2c8465" opacity="1"></circle><circle id="1921" cx="513.7" cy="511.2" r="1.8" fill="#2c8465" opacity="1"></circle><circle id="1922" cx="515.7" cy="511.1" r="1.8" fill="#2c8465" opacity="1"></circle><circle id="1923" cx="517.7" cy="510.9" r="1.8" fill="#2c8465" opacity="1"></circle><circle id="1924" cx="519.7" cy="510.8" r="1.8" fill="#2c8465" opacity="1"></circle><circle id="1925" cx="521.7" cy="510.9" r="1.8" fill="#2c8465" opacity="1"></circle><circle id="1926" cx="523.7" cy="511" r="1.8" fill="#2c8465" opacity="1"></circle><circle id="1927" cx="525.8" cy="510.9" r="1.8" fill="#2c8465" opacity="1"></circle><circle id="1928" cx="527.8" cy="510.9" r="1.8" fill="#2c8465" opacity="1"></circle><circle id="1929" cx="529.8" cy="510.8" r="1.8" fill="#2c8465" opacity="1"></circle><circle id="1930" cx="531.8" cy="510.7" r="1.8" fill="#2c8465" opacity="1"></circle><circle id="1931" cx="533.8" cy="510.6" r="1.8" fill="#2c8465" opacity="1"></circle><circle id="1932" cx="535.8" cy="510.7" r="1.8" fill="#2c8465" opacity="1"></circle><circle id="1933" cx="537.8" cy="510.6" r="1.8" fill="#2c8465" opacity="1"></circle><circle id="1934" cx="539.8" cy="510.3" r="1.8" fill="#2c8465" opacity="1"></circle><circle id="1935" cx="541.8" cy="510" r="1.8" fill="#2c8465" opacity="1"></circle><circle id="1936" cx="543.8" cy="509.7" r="1.8" fill="#2c8465" opacity="1"></circle><circle id="1937" cx="545.9" cy="509.9" r="1.8" fill="#2c8465" opacity="1"></circle><circle id="1938" cx="547.9" cy="510.1" r="1.8" fill="#2c8465" opacity="1"></circle><circle id="1939" cx="549.9" cy="509.7" r="1.8" fill="#2c8465" opacity="1"></circle><circle id="1940" cx="551.9" cy="509" r="1.8" fill="#2c8465" opacity="1"></circle><circle id="1941" cx="553.9" cy="508.2" r="1.8" fill="#2c8465" opacity="1"></circle><circle id="1942" cx="555.9" cy="508" r="1.8" fill="#2c8465" opacity="1"></circle><circle id="1943" cx="557.9" cy="508.6" r="1.8" fill="#2c8465" opacity="1"></circle><circle id="1944" cx="559.9" cy="508.5" r="1.8" fill="#2c8465" opacity="1"></circle><circle id="1945" cx="561.9" cy="510.4" r="1.8" fill="#2c8465" opacity="1"></circle><circle id="1946" cx="563.9" cy="511.1" r="1.8" fill="#2c8465" opacity="1"></circle><circle id="1947" cx="566" cy="511" r="1.8" fill="#2c8465" opacity="1"></circle><circle id="1948" cx="568" cy="511.4" r="1.8" fill="#2c8465" opacity="1"></circle><circle id="1949" cx="570" cy="510.1" r="1.8" fill="#2c8465" opacity="1"></circle><circle id="1950" cx="572" cy="509.3" r="1.8" fill="#2c8465" opacity="1"></circle><circle id="1951" cx="574" cy="508.7" r="1.8" fill="#2c8465" opacity="1"></circle><circle id="1952" cx="576" cy="507.8" r="1.8" fill="#2c8465" opacity="1"></circle><circle id="1953" cx="578" cy="507.7" r="1.8" fill="#2c8465" opacity="1"></circle><circle id="1954" cx="580" cy="506.9" r="1.8" fill="#2c8465" opacity="1"></circle><circle id="1955" cx="582" cy="506" r="1.8" fill="#2c8465" opacity="1"></circle><circle id="1956" cx="584" cy="505.4" r="1.8" fill="#2c8465" opacity="1"></circle><circle id="1957" cx="586.1" cy="504.2" r="1.8" fill="#2c8465" opacity="1"></circle><circle id="1958" cx="588.1" cy="495.8" r="1.8" fill="#2c8465" opacity="1"></circle><circle id="1959" cx="590.1" cy="491.4" r="1.8" fill="#2c8465" opacity="1"></circle><circle id="1960" cx="592.1" cy="487.4" r="1.8" fill="#2c8465" opacity="1"></circle><circle id="1961" cx="594.1" cy="497.7" r="1.8" fill="#2c8465" opacity="1"></circle><circle id="1962" cx="596.1" cy="498" r="1.8" fill="#2c8465" opacity="1"></circle><circle id="1963" cx="598.1" cy="498.2" r="1.8" fill="#2c8465" opacity="1"></circle><circle id="1964" cx="600.1" cy="496.3" r="1.8" fill="#2c8465" opacity="1"></circle><circle id="1965" cx="602.1" cy="496.2" r="1.8" fill="#2c8465" opacity="1"></circle><circle id="1966" cx="604.1" cy="495.1" r="1.8" fill="#2c8465" opacity="1"></circle><circle id="1967" cx="606.2" cy="500.7" r="1.8" fill="#2c8465" opacity="1"></circle><circle id="1968" cx="608.2" cy="497.3" r="1.8" fill="#2c8465" opacity="1"></circle><circle id="1969" cx="610.2" cy="496.5" r="1.8" fill="#2c8465" opacity="1"></circle><circle id="1970" cx="612.2" cy="495.3" r="1.8" fill="#2c8465" opacity="1"></circle><circle id="1971" cx="614.2" cy="494.3" r="1.8" fill="#2c8465" opacity="1"></circle><circle id="1972" cx="616.2" cy="494.3" r="1.8" fill="#2c8465" opacity="1"></circle><circle id="1973" cx="618.2" cy="493.4" r="1.8" fill="#2c8465" opacity="1"></circle><circle id="1974" cx="620.2" cy="492.9" r="1.8" fill="#2c8465" opacity="1"></circle><circle id="1975" cx="622.2" cy="492.4" r="1.8" fill="#2c8465" opacity="1"></circle><circle id="1976" cx="624.2" cy="492.3" r="1.8" fill="#2c8465" opacity="1"></circle><circle id="1977" cx="626.3" cy="490.7" r="1.8" fill="#2c8465" opacity="1"></circle><circle id="1978" cx="628.3" cy="488.4" r="1.8" fill="#2c8465" opacity="1"></circle><circle id="1979" cx="630.3" cy="488" r="1.8" fill="#2c8465" opacity="1"></circle><circle id="1980" cx="632.3" cy="490.1" r="1.8" fill="#2c8465" opacity="1"></circle><circle id="1981" cx="634.3" cy="490.3" r="1.8" fill="#2c8465" opacity="1"></circle><circle id="1982" cx="636.3" cy="489.1" r="1.8" fill="#2c8465" opacity="1"></circle><circle id="1983" cx="638.3" cy="487.7" r="1.8" fill="#2c8465" opacity="1"></circle><circle id="1984" cx="640.3" cy="485.6" r="1.8" fill="#2c8465" opacity="1"></circle><circle id="1985" cx="642.3" cy="484.9" r="1.8" fill="#2c8465" opacity="1"></circle><circle id="1986" cx="644.3" cy="484.7" r="1.8" fill="#2c8465" opacity="1"></circle><circle id="1987" cx="646.4" cy="484.1" r="1.8" fill="#2c8465" opacity="1"></circle><circle id="1988" cx="648.4" cy="483" r="1.8" fill="#2c8465" opacity="1"></circle><circle id="1989" cx="650.4" cy="481.3" r="1.8" fill="#2c8465" opacity="1"></circle><circle id="1990" cx="652.4" cy="481.1" r="1.8" fill="#2c8465" opacity="1"></circle><circle id="1991" cx="654.4" cy="481.1" r="1.8" fill="#2c8465" opacity="1"></circle><circle id="1992" cx="656.4" cy="480.6" r="1.8" fill="#2c8465" opacity="1"></circle><circle id="1993" cx="658.4" cy="479.8" r="1.8" fill="#2c8465" opacity="1"></circle><circle id="1994" cx="660.4" cy="478" r="1.8" fill="#2c8465" opacity="1"></circle><circle id="1995" cx="662.4" cy="477.3" r="1.8" fill="#2c8465" opacity="1"></circle><circle id="1996" cx="664.4" cy="476" r="1.8" fill="#2c8465" opacity="1"></circle><circle id="1997" cx="666.5" cy="471.9" r="1.8" fill="#2c8465" opacity="1"></circle><circle id="1998" cx="668.5" cy="471.7" r="1.8" fill="#2c8465" opacity="1"></circle><circle id="1999" cx="670.5" cy="474.2" r="1.8" fill="#2c8465" opacity="1"></circle><circle id="2000" cx="672.5" cy="472.9" r="1.8" fill="#2c8465" opacity="1"></circle><circle id="2001" cx="674.5" cy="470.3" r="1.8" fill="#2c8465" opacity="1"></circle><circle id="2002" cx="676.5" cy="464.9" r="1.8" fill="#2c8465" opacity="1"></circle><circle id="2003" cx="678.5" cy="458.6" r="1.8" fill="#2c8465" opacity="1"></circle><circle id="2004" cx="680.5" cy="454.1" r="1.8" fill="#2c8465" opacity="1"></circle><circle id="2005" cx="682.5" cy="442" r="1.8" fill="#2c8465" opacity="1"></circle><circle id="2006" cx="684.5" cy="437.8" r="1.8" fill="#2c8465" opacity="1"></circle><circle id="2007" cx="686.6" cy="433" r="1.8" fill="#2c8465" opacity="1"></circle><circle id="2008" cx="688.6" cy="429.5" r="1.8" fill="#2c8465" opacity="1"></circle><circle id="2009" cx="690.6" cy="424.6" r="1.8" fill="#2c8465" opacity="1"></circle><circle id="2010" cx="692.6" cy="418.3" r="1.8" fill="#2c8465" opacity="1"></circle><circle id="2011" cx="694.6" cy="410.5" r="1.8" fill="#2c8465" opacity="1"></circle><circle id="2012" cx="696.6" cy="419" r="1.8" fill="#2c8465" opacity="1"></circle><circle id="2013" cx="698.6" cy="418.4" r="1.8" fill="#2c8465" opacity="1"></circle><circle id="2014" cx="700.6" cy="421.3" r="1.8" fill="#2c8465" opacity="1"></circle><circle id="2015" cx="702.6" cy="408.5" r="1.8" fill="#2c8465" opacity="1"></circle><circle id="2016" cx="704.6" cy="417" r="1.8" fill="#2c8465" opacity="1"></circle></g><path fill="none" stroke-linecap="butt" stroke-linejoin="round" stroke="#ffffff" id="outline__United-States" stroke-width="2.5" d="M471.5 351.7L473.5 341L475.5 337.2L477.5 311.5L479.5 318.3L481.5 300L483.5 292.7L485.6 262.1L487.6 299.9L489.6 281.6L491.6 266.4L493.6 272.7L495.6 258.3L497.6 246.7L499.6 277.6L501.6 272.8L503.6 250.1L505.7 227L507.7 218.4L509.7 273.4L511.7 232.2L513.7 300.9L515.7 316L517.7 246L519.7 285.4L521.7 284.7L523.7 258.4L525.8 284.8L527.8 295.7L529.8 285.8L531.8 314.8L533.8 351.1L535.8 381.9L537.8 374.2L539.8 363.1L541.8 361.2L543.8 337.7L545.9 337.4L547.9 374.6L549.9 357.8L551.9 336.5L553.9 318.4L555.9 296.1L557.9 296.5L559.9 288.5L561.9 307.4L563.9 320.9L566 295.1L568 308.3L570 365.3L572 350.7L574 348.2L576 369.9L578 377.5L580 398.1L582 381.4L584 373.6L586.1 379.1L588.1 403.1L590.1 404.5L592.1 405.8L594.1 410.7L596.1 407.7L598.1 400.3L600.1 395.4L602.1 391.6L604.1 388.2L606.2 385.2L608.2 388.1L610.2 386L612.2 377.9L614.2 391.5L616.2 383.5L618.2 385.4L620.2 384.1L622.2 375.9L624.2 370.8L626.3 369.5L628.3 378.1L630.3 355.1L632.3 368L634.3 371.1L636.3 370.4L638.3 382.2L640.3 365L642.3 369.2L644.3 369.2L646.4 366L648.4 363.1L650.4 360.2L652.4 353.8L654.4 361.3L656.4 362.5L658.4 373.5L660.4 362.3L662.4 364.5L664.4 361.9L666.5 360.3L668.5 357.4L670.5 364.1L672.5 369.3L674.5 365.7L676.5 372L678.5 377.3L680.5 373.9L682.5 373.2L684.5 370.9L686.6 374L688.6 373.2L690.6 387.3L692.6 386L694.6 385.9L696.6 395.3L698.6 399.7L700.6 398.9L702.6 403.1L704.6 424.3"></path><path fill="none" stroke-linecap="butt" stroke-linejoin="round" stroke="#996d39" id="line__United-States" stroke-width="1.5" stroke-opacity="1" d="M471.5 351.7L473.5 341L475.5 337.2L477.5 311.5L479.5 318.3L481.5 300L483.5 292.7L485.6 262.1L487.6 299.9L489.6 281.6L491.6 266.4L493.6 272.7L495.6 258.3L497.6 246.7L499.6 277.6L501.6 272.8L503.6 250.1L505.7 227L507.7 218.4L509.7 273.4L511.7 232.2L513.7 300.9L515.7 316L517.7 246L519.7 285.4L521.7 284.7L523.7 258.4L525.8 284.8L527.8 295.7L529.8 285.8L531.8 314.8L533.8 351.1L535.8 381.9L537.8 374.2L539.8 363.1L541.8 361.2L543.8 337.7L545.9 337.4L547.9 374.6L549.9 357.8L551.9 336.5L553.9 318.4L555.9 296.1L557.9 296.5L559.9 288.5L561.9 307.4L563.9 320.9L566 295.1L568 308.3L570 365.3L572 350.7L574 348.2L576 369.9L578 377.5L580 398.1L582 381.4L584 373.6L586.1 379.1L588.1 403.1L590.1 404.5L592.1 405.8L594.1 410.7L596.1 407.7L598.1 400.3L600.1 395.4L602.1 391.6L604.1 388.2L606.2 385.2L608.2 388.1L610.2 386L612.2 377.9L614.2 391.5L616.2 383.5L618.2 385.4L620.2 384.1L622.2 375.9L624.2 370.8L626.3 369.5L628.3 378.1L630.3 355.1L632.3 368L634.3 371.1L636.3 370.4L638.3 382.2L640.3 365L642.3 369.2L644.3 369.2L646.4 366L648.4 363.1L650.4 360.2L652.4 353.8L654.4 361.3L656.4 362.5L658.4 373.5L660.4 362.3L662.4 364.5L664.4 361.9L666.5 360.3L668.5 357.4L670.5 364.1L672.5 369.3L674.5 365.7L676.5 372L678.5 377.3L680.5 373.9L682.5 373.2L684.5 370.9L686.6 374L688.6 373.2L690.6 387.3L692.6 386L694.6 385.9L696.6 395.3L698.6 399.7L700.6 398.9L702.6 403.1L704.6 424.3"></path><g id="datapoints__United-States"><circle id="1900" cx="471.5" cy="351.7" r="1.8" fill="#996d39" opacity="1"></circle><circle id="1901" cx="473.5" cy="341" r="1.8" fill="#996d39" opacity="1"></circle><circle id="1902" cx="475.5" cy="337.2" r="1.8" fill="#996d39" opacity="1"></circle><circle id="1903" cx="477.5" cy="311.5" r="1.8" fill="#996d39" opacity="1"></circle><circle id="1904" cx="479.5" cy="318.3" r="1.8" fill="#996d39" opacity="1"></circle><circle id="1905" cx="481.5" cy="300" r="1.8" fill="#996d39" opacity="1"></circle><circle id="1906" cx="483.5" cy="292.7" r="1.8" fill="#996d39" opacity="1"></circle><circle id="1907" cx="485.6" cy="262.1" r="1.8" fill="#996d39" opacity="1"></circle><circle id="1908" cx="487.6" cy="299.9" r="1.8" fill="#996d39" opacity="1"></circle><circle id="1909" cx="489.6" cy="281.6" r="1.8" fill="#996d39" opacity="1"></circle><circle id="1910" cx="491.6" cy="266.4" r="1.8" fill="#996d39" opacity="1"></circle><circle id="1911" cx="493.6" cy="272.7" r="1.8" fill="#996d39" opacity="1"></circle><circle id="1912" cx="495.6" cy="258.3" r="1.8" fill="#996d39" opacity="1"></circle><circle id="1913" cx="497.6" cy="246.7" r="1.8" fill="#996d39" opacity="1"></circle><circle id="1914" cx="499.6" cy="277.6" r="1.8" fill="#996d39" opacity="1"></circle><circle id="1915" cx="501.6" cy="272.8" r="1.8" fill="#996d39" opacity="1"></circle><circle id="1916" cx="503.6" cy="250.1" r="1.8" fill="#996d39" opacity="1"></circle><circle id="1917" cx="505.7" cy="227" r="1.8" fill="#996d39" opacity="1"></circle><circle id="1918" cx="507.7" cy="218.4" r="1.8" fill="#996d39" opacity="1"></circle><circle id="1919" cx="509.7" cy="273.4" r="1.8" fill="#996d39" opacity="1"></circle><circle id="1920" cx="511.7" cy="232.2" r="1.8" fill="#996d39" opacity="1"></circle><circle id="1921" cx="513.7" cy="300.9" r="1.8" fill="#996d39" opacity="1"></circle><circle id="1922" cx="515.7" cy="316" r="1.8" fill="#996d39" opacity="1"></circle><circle id="1923" cx="517.7" cy="246" r="1.8" fill="#996d39" opacity="1"></circle><circle id="1924" cx="519.7" cy="285.4" r="1.8" fill="#996d39" opacity="1"></circle><circle id="1925" cx="521.7" cy="284.7" r="1.8" fill="#996d39" opacity="1"></circle><circle id="1926" cx="523.7" cy="258.4" r="1.8" fill="#996d39" opacity="1"></circle><circle id="1927" cx="525.8" cy="284.8" r="1.8" fill="#996d39" opacity="1"></circle><circle id="1928" cx="527.8" cy="295.7" r="1.8" fill="#996d39" opacity="1"></circle><circle id="1929" cx="529.8" cy="285.8" r="1.8" fill="#996d39" opacity="1"></circle><circle id="1930" cx="531.8" cy="314.8" r="1.8" fill="#996d39" opacity="1"></circle><circle id="1931" cx="533.8" cy="351.1" r="1.8" fill="#996d39" opacity="1"></circle><circle id="1932" cx="535.8" cy="381.9" r="1.8" fill="#996d39" opacity="1"></circle><circle id="1933" cx="537.8" cy="374.2" r="1.8" fill="#996d39" opacity="1"></circle><circle id="1934" cx="539.8" cy="363.1" r="1.8" fill="#996d39" opacity="1"></circle><circle id="1935" cx="541.8" cy="361.2" r="1.8" fill="#996d39" opacity="1"></circle><circle id="1936" cx="543.8" cy="337.7" r="1.8" fill="#996d39" opacity="1"></circle><circle id="1937" cx="545.9" cy="337.4" r="1.8" fill="#996d39" opacity="1"></circle><circle id="1938" cx="547.9" cy="374.6" r="1.8" fill="#996d39" opacity="1"></circle><circle id="1939" cx="549.9" cy="357.8" r="1.8" fill="#996d39" opacity="1"></circle><circle id="1940" cx="551.9" cy="336.5" r="1.8" fill="#996d39" opacity="1"></circle><circle id="1941" cx="553.9" cy="318.4" r="1.8" fill="#996d39" opacity="1"></circle><circle id="1942" cx="555.9" cy="296.1" r="1.8" fill="#996d39" opacity="1"></circle><circle id="1943" cx="557.9" cy="296.5" r="1.8" fill="#996d39" opacity="1"></circle><circle id="1944" cx="559.9" cy="288.5" r="1.8" fill="#996d39" opacity="1"></circle><circle id="1945" cx="561.9" cy="307.4" r="1.8" fill="#996d39" opacity="1"></circle><circle id="1946" cx="563.9" cy="320.9" r="1.8" fill="#996d39" opacity="1"></circle><circle id="1947" cx="566" cy="295.1" r="1.8" fill="#996d39" opacity="1"></circle><circle id="1948" cx="568" cy="308.3" r="1.8" fill="#996d39" opacity="1"></circle><circle id="1949" cx="570" cy="365.3" r="1.8" fill="#996d39" opacity="1"></circle><circle id="1950" cx="572" cy="350.7" r="1.8" fill="#996d39" opacity="1"></circle><circle id="1951" cx="574" cy="348.2" r="1.8" fill="#996d39" opacity="1"></circle><circle id="1952" cx="576" cy="369.9" r="1.8" fill="#996d39" opacity="1"></circle><circle id="1953" cx="578" cy="377.5" r="1.8" fill="#996d39" opacity="1"></circle><circle id="1954" cx="580" cy="398.1" r="1.8" fill="#996d39" opacity="1"></circle><circle id="1955" cx="582" cy="381.4" r="1.8" fill="#996d39" opacity="1"></circle><circle id="1956" cx="584" cy="373.6" r="1.8" fill="#996d39" opacity="1"></circle><circle id="1957" cx="586.1" cy="379.1" r="1.8" fill="#996d39" opacity="1"></circle><circle id="1958" cx="588.1" cy="403.1" r="1.8" fill="#996d39" opacity="1"></circle><circle id="1959" cx="590.1" cy="404.5" r="1.8" fill="#996d39" opacity="1"></circle><circle id="1960" cx="592.1" cy="405.8" r="1.8" fill="#996d39" opacity="1"></circle><circle id="1961" cx="594.1" cy="410.7" r="1.8" fill="#996d39" opacity="1"></circle><circle id="1962" cx="596.1" cy="407.7" r="1.8" fill="#996d39" opacity="1"></circle><circle id="1963" cx="598.1" cy="400.3" r="1.8" fill="#996d39" opacity="1"></circle><circle id="1964" cx="600.1" cy="395.4" r="1.8" fill="#996d39" opacity="1"></circle><circle id="1965" cx="602.1" cy="391.6" r="1.8" fill="#996d39" opacity="1"></circle><circle id="1966" cx="604.1" cy="388.2" r="1.8" fill="#996d39" opacity="1"></circle><circle id="1967" cx="606.2" cy="385.2" r="1.8" fill="#996d39" opacity="1"></circle><circle id="1968" cx="608.2" cy="388.1" r="1.8" fill="#996d39" opacity="1"></circle><circle id="1969" cx="610.2" cy="386" r="1.8" fill="#996d39" opacity="1"></circle><circle id="1970" cx="612.2" cy="377.9" r="1.8" fill="#996d39" opacity="1"></circle><circle id="1971" cx="614.2" cy="391.5" r="1.8" fill="#996d39" opacity="1"></circle><circle id="1972" cx="616.2" cy="383.5" r="1.8" fill="#996d39" opacity="1"></circle><circle id="1973" cx="618.2" cy="385.4" r="1.8" fill="#996d39" opacity="1"></circle><circle id="1974" cx="620.2" cy="384.1" r="1.8" fill="#996d39" opacity="1"></circle><circle id="1975" cx="622.2" cy="375.9" r="1.8" fill="#996d39" opacity="1"></circle><circle id="1976" cx="624.2" cy="370.8" r="1.8" fill="#996d39" opacity="1"></circle><circle id="1977" cx="626.3" cy="369.5" r="1.8" fill="#996d39" opacity="1"></circle><circle id="1978" cx="628.3" cy="378.1" r="1.8" fill="#996d39" opacity="1"></circle><circle id="1979" cx="630.3" cy="355.1" r="1.8" fill="#996d39" opacity="1"></circle><circle id="1980" cx="632.3" cy="368" r="1.8" fill="#996d39" opacity="1"></circle><circle id="1981" cx="634.3" cy="371.1" r="1.8" fill="#996d39" opacity="1"></circle><circle id="1982" cx="636.3" cy="370.4" r="1.8" fill="#996d39" opacity="1"></circle><circle id="1983" cx="638.3" cy="382.2" r="1.8" fill="#996d39" opacity="1"></circle><circle id="1984" cx="640.3" cy="365" r="1.8" fill="#996d39" opacity="1"></circle><circle id="1985" cx="642.3" cy="369.2" r="1.8" fill="#996d39" opacity="1"></circle><circle id="1986" cx="644.3" cy="369.2" r="1.8" fill="#996d39" opacity="1"></circle><circle id="1987" cx="646.4" cy="366" r="1.8" fill="#996d39" opacity="1"></circle><circle id="1988" cx="648.4" cy="363.1" r="1.8" fill="#996d39" opacity="1"></circle><circle id="1989" cx="650.4" cy="360.2" r="1.8" fill="#996d39" opacity="1"></circle><circle id="1990" cx="652.4" cy="353.8" r="1.8" fill="#996d39" opacity="1"></circle><circle id="1991" cx="654.4" cy="361.3" r="1.8" fill="#996d39" opacity="1"></circle><circle id="1992" cx="656.4" cy="362.5" r="1.8" fill="#996d39" opacity="1"></circle><circle id="1993" cx="658.4" cy="373.5" r="1.8" fill="#996d39" opacity="1"></circle><circle id="1994" cx="660.4" cy="362.3" r="1.8" fill="#996d39" opacity="1"></circle><circle id="1995" cx="662.4" cy="364.5" r="1.8" fill="#996d39" opacity="1"></circle><circle id="1996" cx="664.4" cy="361.9" r="1.8" fill="#996d39" opacity="1"></circle><circle id="1997" cx="666.5" cy="360.3" r="1.8" fill="#996d39" opacity="1"></circle><circle id="1998" cx="668.5" cy="357.4" r="1.8" fill="#996d39" opacity="1"></circle><circle id="1999" cx="670.5" cy="364.1" r="1.8" fill="#996d39" opacity="1"></circle><circle id="2000" cx="672.5" cy="369.3" r="1.8" fill="#996d39" opacity="1"></circle><circle id="2001" cx="674.5" cy="365.7" r="1.8" fill="#996d39" opacity="1"></circle><circle id="2002" cx="676.5" cy="372" r="1.8" fill="#996d39" opacity="1"></circle><circle id="2003" cx="678.5" cy="377.3" r="1.8" fill="#996d39" opacity="1"></circle><circle id="2004" cx="680.5" cy="373.9" r="1.8" fill="#996d39" opacity="1"></circle><circle id="2005" cx="682.5" cy="373.2" r="1.8" fill="#996d39" opacity="1"></circle><circle id="2006" cx="684.5" cy="370.9" r="1.8" fill="#996d39" opacity="1"></circle><circle id="2007" cx="686.6" cy="374" r="1.8" fill="#996d39" opacity="1"></circle><circle id="2008" cx="688.6" cy="373.2" r="1.8" fill="#996d39" opacity="1"></circle><circle id="2009" cx="690.6" cy="387.3" r="1.8" fill="#996d39" opacity="1"></circle><circle id="2010" cx="692.6" cy="386" r="1.8" fill="#996d39" opacity="1"></circle><circle id="2011" cx="694.6" cy="385.9" r="1.8" fill="#996d39" opacity="1"></circle><circle id="2012" cx="696.6" cy="395.3" r="1.8" fill="#996d39" opacity="1"></circle><circle id="2013" cx="698.6" cy="399.7" r="1.8" fill="#996d39" opacity="1"></circle><circle id="2014" cx="700.6" cy="398.9" r="1.8" fill="#996d39" opacity="1"></circle><circle id="2015" cx="702.6" cy="403.1" r="1.8" fill="#996d39" opacity="1"></circle><circle id="2016" cx="704.6" cy="424.3" r="1.8" fill="#996d39" opacity="1"></circle></g><path fill="none" stroke-linecap="butt" stroke-linejoin="round" stroke="#ffffff" id="outline__World" stroke-width="2.5" d="M270.5 511.6L290.6 511.5L310.7 511.4L330.8 510.7L350.9 510.3L371 509.3L391.1 506.9L411.2 504.4L431.3 500.7L451.4 495.7L471.5 489L491.6 479.1L511.7 476.9L531.8 479.5L551.9 478.5L572 478.8L592.1 478L602.1 479.4L604.1 479.6L606.2 480.8L608.2 481L610.2 480.7L612.2 480.9L614.2 481.7L616.2 482L618.2 481.7L620.2 482.2L622.2 482.2L624.2 481.7L626.3 481.3L628.3 481.5L630.3 480.7L632.3 480.5L634.3 480.6L636.3 480.8L638.3 480.4L640.3 479.6L642.3 478.9L644.3 479.1L646.4 478.5L648.4 478.1L650.4 478.3L652.4 479.3L654.4 480.2L656.4 480.8L658.4 481.1L660.4 481.4L662.4 481.7L664.4 481.4L666.5 481.7L668.5 482.4L670.5 482.6L672.5 481.9L674.5 481.9L676.5 481.1L678.5 478.8L680.5 476.9L682.5 474.8L684.5 473.4L686.6 471.7L688.6 471.6L690.6 472.7L692.6 471.4L694.6 470L696.6 470.4L698.6 470.1L700.6 470.6L702.6 471.1L704.6 474"></path><path fill="none" stroke-linecap="butt" stroke-linejoin="round" stroke="#b13507" id="line__World" stroke-width="1.5" stroke-opacity="1" d="M270.5 511.6L290.6 511.5L310.7 511.4L330.8 510.7L350.9 510.3L371 509.3L391.1 506.9L411.2 504.4L431.3 500.7L451.4 495.7L471.5 489L491.6 479.1L511.7 476.9L531.8 479.5L551.9 478.5L572 478.8L592.1 478L602.1 479.4L604.1 479.6L606.2 480.8L608.2 481L610.2 480.7L612.2 480.9L614.2 481.7L616.2 482L618.2 481.7L620.2 482.2L622.2 482.2L624.2 481.7L626.3 481.3L628.3 481.5L630.3 480.7L632.3 480.5L634.3 480.6L636.3 480.8L638.3 480.4L640.3 479.6L642.3 478.9L644.3 479.1L646.4 478.5L648.4 478.1L650.4 478.3L652.4 479.3L654.4 480.2L656.4 480.8L658.4 481.1L660.4 481.4L662.4 481.7L664.4 481.4L666.5 481.7L668.5 482.4L670.5 482.6L672.5 481.9L674.5 481.9L676.5 481.1L678.5 478.8L680.5 476.9L682.5 474.8L684.5 473.4L686.6 471.7L688.6 471.6L690.6 472.7L692.6 471.4L694.6 470L696.6 470.4L698.6 470.1L700.6 470.6L702.6 471.1L704.6 474"></path><g id="datapoints__World"><circle id="1800" cx="270.5" cy="511.6" r="1.8" fill="#b13507" opacity="1"></circle><circle id="1810" cx="290.6" cy="511.5" r="1.8" fill="#b13507" opacity="1"></circle><circle id="1820" cx="310.7" cy="511.4" r="1.8" fill="#b13507" opacity="1"></circle><circle id="1830" cx="330.8" cy="510.7" r="1.8" fill="#b13507" opacity="1"></circle><circle id="1840" cx="350.9" cy="510.3" r="1.8" fill="#b13507" opacity="1"></circle><circle id="1850" cx="371" cy="509.3" r="1.8" fill="#b13507" opacity="1"></circle><circle id="1860" cx="391.1" cy="506.9" r="1.8" fill="#b13507" opacity="1"></circle><circle id="1870" cx="411.2" cy="504.4" r="1.8" fill="#b13507" opacity="1"></circle><circle id="1880" cx="431.3" cy="500.7" r="1.8" fill="#b13507" opacity="1"></circle><circle id="1890" cx="451.4" cy="495.7" r="1.8" fill="#b13507" opacity="1"></circle><circle id="1900" cx="471.5" cy="489" r="1.8" fill="#b13507" opacity="1"></circle><circle id="1910" cx="491.6" cy="479.1" r="1.8" fill="#b13507" opacity="1"></circle><circle id="1920" cx="511.7" cy="476.9" r="1.8" fill="#b13507" opacity="1"></circle><circle id="1930" cx="531.8" cy="479.5" r="1.8" fill="#b13507" opacity="1"></circle><circle id="1940" cx="551.9" cy="478.5" r="1.8" fill="#b13507" opacity="1"></circle><circle id="1950" cx="572" cy="478.8" r="1.8" fill="#b13507" opacity="1"></circle><circle id="1960" cx="592.1" cy="478" r="1.8" fill="#b13507" opacity="1"></circle><circle id="1965" cx="602.1" cy="479.4" r="1.8" fill="#b13507" opacity="1"></circle><circle id="1966" cx="604.1" cy="479.6" r="1.8" fill="#b13507" opacity="1"></circle><circle id="1967" cx="606.2" cy="480.8" r="1.8" fill="#b13507" opacity="1"></circle><circle id="1968" cx="608.2" cy="481" r="1.8" fill="#b13507" opacity="1"></circle><circle id="1969" cx="610.2" cy="480.7" r="1.8" fill="#b13507" opacity="1"></circle><circle id="1970" cx="612.2" cy="480.9" r="1.8" fill="#b13507" opacity="1"></circle><circle id="1971" cx="614.2" cy="481.7" r="1.8" fill="#b13507" opacity="1"></circle><circle id="1972" cx="616.2" cy="482" r="1.8" fill="#b13507" opacity="1"></circle><circle id="1973" cx="618.2" cy="481.7" r="1.8" fill="#b13507" opacity="1"></circle><circle id="1974" cx="620.2" cy="482.2" r="1.8" fill="#b13507" opacity="1"></circle><circle id="1975" cx="622.2" cy="482.2" r="1.8" fill="#b13507" opacity="1"></circle><circle id="1976" cx="624.2" cy="481.7" r="1.8" fill="#b13507" opacity="1"></circle><circle id="1977" cx="626.3" cy="481.3" r="1.8" fill="#b13507" opacity="1"></circle><circle id="1978" cx="628.3" cy="481.5" r="1.8" fill="#b13507" opacity="1"></circle><circle id="1979" cx="630.3" cy="480.7" r="1.8" fill="#b13507" opacity="1"></circle><circle id="1980" cx="632.3" cy="480.5" r="1.8" fill="#b13507" opacity="1"></circle><circle id="1981" cx="634.3" cy="480.6" r="1.8" fill="#b13507" opacity="1"></circle><circle id="1982" cx="636.3" cy="480.8" r="1.8" fill="#b13507" opacity="1"></circle><circle id="1983" cx="638.3" cy="480.4" r="1.8" fill="#b13507" opacity="1"></circle><circle id="1984" cx="640.3" cy="479.6" r="1.8" fill="#b13507" opacity="1"></circle><circle id="1985" cx="642.3" cy="478.9" r="1.8" fill="#b13507" opacity="1"></circle><circle id="1986" cx="644.3" cy="479.1" r="1.8" fill="#b13507" opacity="1"></circle><circle id="1987" cx="646.4" cy="478.5" r="1.8" fill="#b13507" opacity="1"></circle><circle id="1988" cx="648.4" cy="478.1" r="1.8" fill="#b13507" opacity="1"></circle><circle id="1989" cx="650.4" cy="478.3" r="1.8" fill="#b13507" opacity="1"></circle><circle id="1990" cx="652.4" cy="479.3" r="1.8" fill="#b13507" opacity="1"></circle><circle id="1991" cx="654.4" cy="480.2" r="1.8" fill="#b13507" opacity="1"></circle><circle id="1992" cx="656.4" cy="480.8" r="1.8" fill="#b13507" opacity="1"></circle><circle id="1993" cx="658.4" cy="481.1" r="1.8" fill="#b13507" opacity="1"></circle><circle id="1994" cx="660.4" cy="481.4" r="1.8" fill="#b13507" opacity="1"></circle><circle id="1995" cx="662.4" cy="481.7" r="1.8" fill="#b13507" opacity="1"></circle><circle id="1996" cx="664.4" cy="481.4" r="1.8" fill="#b13507" opacity="1"></circle><circle id="1997" cx="666.5" cy="481.7" r="1.8" fill="#b13507" opacity="1"></circle><circle id="1998" cx="668.5" cy="482.4" r="1.8" fill="#b13507" opacity="1"></circle><circle id="1999" cx="670.5" cy="482.6" r="1.8" fill="#b13507" opacity="1"></circle><circle id="2000" cx="672.5" cy="481.9" r="1.8" fill="#b13507" opacity="1"></circle><circle id="2001" cx="674.5" cy="481.9" r="1.8" fill="#b13507" opacity="1"></circle><circle id="2002" cx="676.5" cy="481.1" r="1.8" fill="#b13507" opacity="1"></circle><circle id="2003" cx="678.5" cy="478.8" r="1.8" fill="#b13507" opacity="1"></circle><circle id="2004" cx="680.5" cy="476.9" r="1.8" fill="#b13507" opacity="1"></circle><circle id="2005" cx="682.5" cy="474.8" r="1.8" fill="#b13507" opacity="1"></circle><circle id="2006" cx="684.5" cy="473.4" r="1.8" fill="#b13507" opacity="1"></circle><circle id="2007" cx="686.6" cy="471.7" r="1.8" fill="#b13507" opacity="1"></circle><circle id="2008" cx="688.6" cy="471.6" r="1.8" fill="#b13507" opacity="1"></circle><circle id="2009" cx="690.6" cy="472.7" r="1.8" fill="#b13507" opacity="1"></circle><circle id="2010" cx="692.6" cy="471.4" r="1.8" fill="#b13507" opacity="1"></circle><circle id="2011" cx="694.6" cy="470" r="1.8" fill="#b13507" opacity="1"></circle><circle id="2012" cx="696.6" cy="470.4" r="1.8" fill="#b13507" opacity="1"></circle><circle id="2013" cx="698.6" cy="470.1" r="1.8" fill="#b13507" opacity="1"></circle><circle id="2014" cx="700.6" cy="470.6" r="1.8" fill="#b13507" opacity="1"></circle><circle id="2015" cx="702.6" cy="471.1" r="1.8" fill="#b13507" opacity="1"></circle><circle id="2016" cx="704.6" cy="474" r="1.8" fill="#b13507" opacity="1"></circle></g><path fill="none" stroke-linecap="butt" stroke-linejoin="round" stroke="#ffffff" id="outline__United-Kingdom" stroke-width="2.5" d="M69.5 497.1L170 479.1L270.5 468L320.7 436.9L377 341.4L397.1 285.5L417.2 242.5L437.3 216.7L457.4 192.1L477.5 152.1L497.6 137.7L499.6 169.4L501.6 188L503.6 185.2L505.7 196L507.7 222.1L509.7 218.9L511.7 221.1L513.7 306.9L515.7 200.3L517.7 169.1L519.7 182.5L521.7 213L523.7 357.5L525.8 205.3L527.8 223.3L529.8 199.1L531.8 217.4L533.8 248.1L535.8 262.5L537.8 265.4L539.8 250L541.8 249.3L543.8 243.2L545.9 230.4L547.9 247.2L549.9 245L551.9 254.4L553.9 275L555.9 277.5L557.9 286.2L559.9 294.2L561.9 306.2L563.9 298.1L566 291.8L568 282.8L570 275.4L572 275.6L574 268.4L576 266.2L578 268.3L580 268.7L582 271.4L584 271.9L586.1 271.1L588.1 280.8L590.1 292.2L592.1 306.3L594.1 310.6L596.1 304.3L598.1 308L600.1 311.9L602.1 319.7L604.1 332.5L606.2 335.8L608.2 344.3L610.2 359L612.2 367.9L614.2 362L616.2 388.6L618.2 383.8L620.2 404.9L622.2 387.3L624.2 392.2L626.3 393.8L628.3 392.4L630.3 393.6L632.3 386.1L634.3 388.7L636.3 391.4L638.3 396.7L640.3 462.8L642.3 421.3L644.3 408L646.4 411.7L648.4 412.4L650.4 416.7L652.4 423.8L654.4 422.6L656.4 432.1L658.4 447.7L660.4 465.3L662.4 462.4L664.4 465.2L666.5 466.9L668.5 473.9L670.5 477.8L672.5 483.4L674.5 482.8L676.5 484.7L678.5 486.4L680.5 489.4L682.5 493.7L684.5 495.7L686.6 497.2L688.6 496.4L690.6 496.7L692.6 496.5L694.6 496.4L696.6 497.9L698.6 501.5L700.6 502.5L702.6 505.9L704.6 509.2"></path><path fill="none" stroke-linecap="butt" stroke-linejoin="round" stroke="#4c6a9c" id="line__United-Kingdom" stroke-width="1.5" stroke-opacity="1" d="M69.5 497.1L170 479.1L270.5 468L320.7 436.9L377 341.4L397.1 285.5L417.2 242.5L437.3 216.7L457.4 192.1L477.5 152.1L497.6 137.7L499.6 169.4L501.6 188L503.6 185.2L505.7 196L507.7 222.1L509.7 218.9L511.7 221.1L513.7 306.9L515.7 200.3L517.7 169.1L519.7 182.5L521.7 213L523.7 357.5L525.8 205.3L527.8 223.3L529.8 199.1L531.8 217.4L533.8 248.1L535.8 262.5L537.8 265.4L539.8 250L541.8 249.3L543.8 243.2L545.9 230.4L547.9 247.2L549.9 245L551.9 254.4L553.9 275L555.9 277.5L557.9 286.2L559.9 294.2L561.9 306.2L563.9 298.1L566 291.8L568 282.8L570 275.4L572 275.6L574 268.4L576 266.2L578 268.3L580 268.7L582 271.4L584 271.9L586.1 271.1L588.1 280.8L590.1 292.2L592.1 306.3L594.1 310.6L596.1 304.3L598.1 308L600.1 311.9L602.1 319.7L604.1 332.5L606.2 335.8L608.2 344.3L610.2 359L612.2 367.9L614.2 362L616.2 388.6L618.2 383.8L620.2 404.9L622.2 387.3L624.2 392.2L626.3 393.8L628.3 392.4L630.3 393.6L632.3 386.1L634.3 388.7L636.3 391.4L638.3 396.7L640.3 462.8L642.3 421.3L644.3 408L646.4 411.7L648.4 412.4L650.4 416.7L652.4 423.8L654.4 422.6L656.4 432.1L658.4 447.7L660.4 465.3L662.4 462.4L664.4 465.2L666.5 466.9L668.5 473.9L670.5 477.8L672.5 483.4L674.5 482.8L676.5 484.7L678.5 486.4L680.5 489.4L682.5 493.7L684.5 495.7L686.6 497.2L688.6 496.4L690.6 496.7L692.6 496.5L694.6 496.4L696.6 497.9L698.6 501.5L700.6 502.5L702.6 505.9L704.6 509.2"></path><g id="datapoints__United-Kingdom"><circle id="1700" cx="69.5" cy="497.1" r="1.8" fill="#4c6a9c" opacity="1"></circle><circle id="1750" cx="170" cy="479.1" r="1.8" fill="#4c6a9c" opacity="1"></circle><circle id="1800" cx="270.5" cy="468" r="1.8" fill="#4c6a9c" opacity="1"></circle><circle id="1825" cx="320.7" cy="436.9" r="1.8" fill="#4c6a9c" opacity="1"></circle><circle id="1853" cx="377" cy="341.4" r="1.8" fill="#4c6a9c" opacity="1"></circle><circle id="1863" cx="397.1" cy="285.5" r="1.8" fill="#4c6a9c" opacity="1"></circle><circle id="1873" cx="417.2" cy="242.5" r="1.8" fill="#4c6a9c" opacity="1"></circle><circle id="1883" cx="437.3" cy="216.7" r="1.8" fill="#4c6a9c" opacity="1"></circle><circle id="1893" cx="457.4" cy="192.1" r="1.8" fill="#4c6a9c" opacity="1"></circle><circle id="1903" cx="477.5" cy="152.1" r="1.8" fill="#4c6a9c" opacity="1"></circle><circle id="1913" cx="497.6" cy="137.7" r="1.8" fill="#4c6a9c" opacity="1"></circle><circle id="1914" cx="499.6" cy="169.4" r="1.8" fill="#4c6a9c" opacity="1"></circle><circle id="1915" cx="501.6" cy="188" r="1.8" fill="#4c6a9c" opacity="1"></circle><circle id="1916" cx="503.6" cy="185.2" r="1.8" fill="#4c6a9c" opacity="1"></circle><circle id="1917" cx="505.7" cy="196" r="1.8" fill="#4c6a9c" opacity="1"></circle><circle id="1918" cx="507.7" cy="222.1" r="1.8" fill="#4c6a9c" opacity="1"></circle><circle id="1919" cx="509.7" cy="218.9" r="1.8" fill="#4c6a9c" opacity="1"></circle><circle id="1920" cx="511.7" cy="221.1" r="1.8" fill="#4c6a9c" opacity="1"></circle><circle id="1921" cx="513.7" cy="306.9" r="1.8" fill="#4c6a9c" opacity="1"></circle><circle id="1922" cx="515.7" cy="200.3" r="1.8" fill="#4c6a9c" opacity="1"></circle><circle id="1923" cx="517.7" cy="169.1" r="1.8" fill="#4c6a9c" opacity="1"></circle><circle id="1924" cx="519.7" cy="182.5" r="1.8" fill="#4c6a9c" opacity="1"></circle><circle id="1925" cx="521.7" cy="213" r="1.8" fill="#4c6a9c" opacity="1"></circle><circle id="1926" cx="523.7" cy="357.5" r="1.8" fill="#4c6a9c" opacity="1"></circle><circle id="1927" cx="525.8" cy="205.3" r="1.8" fill="#4c6a9c" opacity="1"></circle><circle id="1928" cx="527.8" cy="223.3" r="1.8" fill="#4c6a9c" opacity="1"></circle><circle id="1929" cx="529.8" cy="199.1" r="1.8" fill="#4c6a9c" opacity="1"></circle><circle id="1930" cx="531.8" cy="217.4" r="1.8" fill="#4c6a9c" opacity="1"></circle><circle id="1931" cx="533.8" cy="248.1" r="1.8" fill="#4c6a9c" opacity="1"></circle><circle id="1932" cx="535.8" cy="262.5" r="1.8" fill="#4c6a9c" opacity="1"></circle><circle id="1933" cx="537.8" cy="265.4" r="1.8" fill="#4c6a9c" opacity="1"></circle><circle id="1934" cx="539.8" cy="250" r="1.8" fill="#4c6a9c" opacity="1"></circle><circle id="1935" cx="541.8" cy="249.3" r="1.8" fill="#4c6a9c" opacity="1"></circle><circle id="1936" cx="543.8" cy="243.2" r="1.8" fill="#4c6a9c" opacity="1"></circle><circle id="1937" cx="545.9" cy="230.4" r="1.8" fill="#4c6a9c" opacity="1"></circle><circle id="1938" cx="547.9" cy="247.2" r="1.8" fill="#4c6a9c" opacity="1"></circle><circle id="1939" cx="549.9" cy="245" r="1.8" fill="#4c6a9c" opacity="1"></circle><circle id="1940" cx="551.9" cy="254.4" r="1.8" fill="#4c6a9c" opacity="1"></circle><circle id="1941" cx="553.9" cy="275" r="1.8" fill="#4c6a9c" opacity="1"></circle><circle id="1942" cx="555.9" cy="277.5" r="1.8" fill="#4c6a9c" opacity="1"></circle><circle id="1943" cx="557.9" cy="286.2" r="1.8" fill="#4c6a9c" opacity="1"></circle><circle id="1944" cx="559.9" cy="294.2" r="1.8" fill="#4c6a9c" opacity="1"></circle><circle id="1945" cx="561.9" cy="306.2" r="1.8" fill="#4c6a9c" opacity="1"></circle><circle id="1946" cx="563.9" cy="298.1" r="1.8" fill="#4c6a9c" opacity="1"></circle><circle id="1947" cx="566" cy="291.8" r="1.8" fill="#4c6a9c" opacity="1"></circle><circle id="1948" cx="568" cy="282.8" r="1.8" fill="#4c6a9c" opacity="1"></circle><circle id="1949" cx="570" cy="275.4" r="1.8" fill="#4c6a9c" opacity="1"></circle><circle id="1950" cx="572" cy="275.6" r="1.8" fill="#4c6a9c" opacity="1"></circle><circle id="1951" cx="574" cy="268.4" r="1.8" fill="#4c6a9c" opacity="1"></circle><circle id="1952" cx="576" cy="266.2" r="1.8" fill="#4c6a9c" opacity="1"></circle><circle id="1953" cx="578" cy="268.3" r="1.8" fill="#4c6a9c" opacity="1"></circle><circle id="1954" cx="580" cy="268.7" r="1.8" fill="#4c6a9c" opacity="1"></circle><circle id="1955" cx="582" cy="271.4" r="1.8" fill="#4c6a9c" opacity="1"></circle><circle id="1956" cx="584" cy="271.9" r="1.8" fill="#4c6a9c" opacity="1"></circle><circle id="1957" cx="586.1" cy="271.1" r="1.8" fill="#4c6a9c" opacity="1"></circle><circle id="1958" cx="588.1" cy="280.8" r="1.8" fill="#4c6a9c" opacity="1"></circle><circle id="1959" cx="590.1" cy="292.2" r="1.8" fill="#4c6a9c" opacity="1"></circle><circle id="1960" cx="592.1" cy="306.3" r="1.8" fill="#4c6a9c" opacity="1"></circle><circle id="1961" cx="594.1" cy="310.6" r="1.8" fill="#4c6a9c" opacity="1"></circle><circle id="1962" cx="596.1" cy="304.3" r="1.8" fill="#4c6a9c" opacity="1"></circle><circle id="1963" cx="598.1" cy="308" r="1.8" fill="#4c6a9c" opacity="1"></circle><circle id="1964" cx="600.1" cy="311.9" r="1.8" fill="#4c6a9c" opacity="1"></circle><circle id="1965" cx="602.1" cy="319.7" r="1.8" fill="#4c6a9c" opacity="1"></circle><circle id="1966" cx="604.1" cy="332.5" r="1.8" fill="#4c6a9c" opacity="1"></circle><circle id="1967" cx="606.2" cy="335.8" r="1.8" fill="#4c6a9c" opacity="1"></circle><circle id="1968" cx="608.2" cy="344.3" r="1.8" fill="#4c6a9c" opacity="1"></circle><circle id="1969" cx="610.2" cy="359" r="1.8" fill="#4c6a9c" opacity="1"></circle><circle id="1970" cx="612.2" cy="367.9" r="1.8" fill="#4c6a9c" opacity="1"></circle><circle id="1971" cx="614.2" cy="362" r="1.8" fill="#4c6a9c" opacity="1"></circle><circle id="1972" cx="616.2" cy="388.6" r="1.8" fill="#4c6a9c" opacity="1"></circle><circle id="1973" cx="618.2" cy="383.8" r="1.8" fill="#4c6a9c" opacity="1"></circle><circle id="1974" cx="620.2" cy="404.9" r="1.8" fill="#4c6a9c" opacity="1"></circle><circle id="1975" cx="622.2" cy="387.3" r="1.8" fill="#4c6a9c" opacity="1"></circle><circle id="1976" cx="624.2" cy="392.2" r="1.8" fill="#4c6a9c" opacity="1"></circle><circle id="1977" cx="626.3" cy="393.8" r="1.8" fill="#4c6a9c" opacity="1"></circle><circle id="1978" cx="628.3" cy="392.4" r="1.8" fill="#4c6a9c" opacity="1"></circle><circle id="1979" cx="630.3" cy="393.6" r="1.8" fill="#4c6a9c" opacity="1"></circle><circle id="1980" cx="632.3" cy="386.1" r="1.8" fill="#4c6a9c" opacity="1"></circle><circle id="1981" cx="634.3" cy="388.7" r="1.8" fill="#4c6a9c" opacity="1"></circle><circle id="1982" cx="636.3" cy="391.4" r="1.8" fill="#4c6a9c" opacity="1"></circle><circle id="1983" cx="638.3" cy="396.7" r="1.8" fill="#4c6a9c" opacity="1"></circle><circle id="1984" cx="640.3" cy="462.8" r="1.8" fill="#4c6a9c" opacity="1"></circle><circle id="1985" cx="642.3" cy="421.3" r="1.8" fill="#4c6a9c" opacity="1"></circle><circle id="1986" cx="644.3" cy="408" r="1.8" fill="#4c6a9c" opacity="1"></circle><circle id="1987" cx="646.4" cy="411.7" r="1.8" fill="#4c6a9c" opacity="1"></circle><circle id="1988" cx="648.4" cy="412.4" r="1.8" fill="#4c6a9c" opacity="1"></circle><circle id="1989" cx="650.4" cy="416.7" r="1.8" fill="#4c6a9c" opacity="1"></circle><circle id="1990" cx="652.4" cy="423.8" r="1.8" fill="#4c6a9c" opacity="1"></circle><circle id="1991" cx="654.4" cy="422.6" r="1.8" fill="#4c6a9c" opacity="1"></circle><circle id="1992" cx="656.4" cy="432.1" r="1.8" fill="#4c6a9c" opacity="1"></circle><circle id="1993" cx="658.4" cy="447.7" r="1.8" fill="#4c6a9c" opacity="1"></circle><circle id="1994" cx="660.4" cy="465.3" r="1.8" fill="#4c6a9c" opacity="1"></circle><circle id="1995" cx="662.4" cy="462.4" r="1.8" fill="#4c6a9c" opacity="1"></circle><circle id="1996" cx="664.4" cy="465.2" r="1.8" fill="#4c6a9c" opacity="1"></circle><circle id="1997" cx="666.5" cy="466.9" r="1.8" fill="#4c6a9c" opacity="1"></circle><circle id="1998" cx="668.5" cy="473.9" r="1.8" fill="#4c6a9c" opacity="1"></circle><circle id="1999" cx="670.5" cy="477.8" r="1.8" fill="#4c6a9c" opacity="1"></circle><circle id="2000" cx="672.5" cy="483.4" r="1.8" fill="#4c6a9c" opacity="1"></circle><circle id="2001" cx="674.5" cy="482.8" r="1.8" fill="#4c6a9c" opacity="1"></circle><circle id="2002" cx="676.5" cy="484.7" r="1.8" fill="#4c6a9c" opacity="1"></circle><circle id="2003" cx="678.5" cy="486.4" r="1.8" fill="#4c6a9c" opacity="1"></circle><circle id="2004" cx="680.5" cy="489.4" r="1.8" fill="#4c6a9c" opacity="1"></circle><circle id="2005" cx="682.5" cy="493.7" r="1.8" fill="#4c6a9c" opacity="1"></circle><circle id="2006" cx="684.5" cy="495.7" r="1.8" fill="#4c6a9c" opacity="1"></circle><circle id="2007" cx="686.6" cy="497.2" r="1.8" fill="#4c6a9c" opacity="1"></circle><circle id="2008" cx="688.6" cy="496.4" r="1.8" fill="#4c6a9c" opacity="1"></circle><circle id="2009" cx="690.6" cy="496.7" r="1.8" fill="#4c6a9c" opacity="1"></circle><circle id="2010" cx="692.6" cy="496.5" r="1.8" fill="#4c6a9c" opacity="1"></circle><circle id="2011" cx="694.6" cy="496.4" r="1.8" fill="#4c6a9c" opacity="1"></circle><circle id="2012" cx="696.6" cy="497.9" r="1.8" fill="#4c6a9c" opacity="1"></circle><circle id="2013" cx="698.6" cy="501.5" r="1.8" fill="#4c6a9c" opacity="1"></circle><circle id="2014" cx="700.6" cy="502.5" r="1.8" fill="#4c6a9c" opacity="1"></circle><circle id="2015" cx="702.6" cy="505.9" r="1.8" fill="#4c6a9c" opacity="1"></circle><circle id="2016" cx="704.6" cy="509.2" r="1.8" fill="#4c6a9c" opacity="1"></circle></g></g></g><g id="footer" class="SourcesFooter" style="fill:#858585"><g id="sources" class="markdown-text-wrap"><text x="16.0" y="560.9" style="font-size:13px;line-height:1.2"><tspan x="16" y="560.9"><tspan style="font-weight:700">Data source:</tspan> Long-term per capita fossil fuels - OWID based on UN, Gapminder, BP, Etemad &amp; Luciana</tspan></text></g><text id="origin-url" font-size="13.00" x="16.0" y="581.0"><tspan x="16" y="581.01"><a target="_blank" style="fill: #858585;" href="https://ourworldindata.org/fossil-fuels/">OurWorldinData.org/fossil-fuels</a> | <a target="_blank" style="fill: #858585;" href="https://creativecommons.org/licenses/by/4.0/">CC BY</a></tspan></text></g></svg>