<svg xmlns="http://www.w3.org/2000/svg" version="1.1" style="font-family:Lato, &#x27;Helvetica Neue&#x27;, Helvetica, Arial, &#x27;Liberation Sans&#x27;, sans-serif;font-size:18px;background-color:#ffffff;text-rendering:geometricPrecision;-webkit-font-smoothing:antialiased" width="850" height="600" viewBox="0 0 850 600"><defs><style>@import url(https://ourworldindata.org/fonts.css)</style></defs><defs><pattern id="noDataPattern" patternUnits="userSpaceOnUse" width="4" height="4" patternTransform="rotate(-45 2 2)"><path d="M -1,2 l 6,0" stroke="#ccc" stroke-width="0.7"></path></pattern></defs><rect class="background-fill" fill="#ffffff" width="850" height="600"></rect><g id="header" class="HeaderView"><g id="logo" transform="translate(769, 16) scale(1)"><svg className="owidLogo" xmlns="http://www.w3.org/2000/svg" width="65" height="36" viewBox="0 0 65 36"  fill="none"><path fill="#002147" d="M0 0h64.8v36H0z"/><path fill="#CE261E" d="M0 33.3h64.8V36H0z"/><path fill="#fff" d="M13.796 10.575c0 .636-.106 1.226-.318 1.77a4.193 4.193 0 0 1-.894 1.404 4.084 4.084 0 0 1-1.386.93c-.54.22-1.138.33-1.794.33-.656 0-1.256-.11-1.8-.33a4.149 4.149 0 0 1-1.392-.93 4.193 4.193 0 0 1-.894-1.404A4.833 4.833 0 0 1 5 10.575c0-.636.106-1.224.318-1.764a4.18 4.18 0 0 1 .894-1.41 4.076 4.076 0 0 1 1.392-.924 4.684 4.684 0 0 1 1.8-.336c.656 0 1.254.112 1.794.336.54.224 1.002.534 1.386.93.384.392.682.86.894 1.404.212.54.318 1.128.318 1.764Zm-1.656 0c0-.476-.064-.902-.192-1.278a2.671 2.671 0 0 0-.54-.966 2.332 2.332 0 0 0-.864-.606 2.94 2.94 0 0 0-1.14-.21c-.424 0-.806.07-1.146.21-.34.14-.63.342-.87.606a2.742 2.742 0 0 0-.546.966 3.955 3.955 0 0 0-.192 1.278c0 .476.064.904.192 1.284.128.376.31.696.546.96.24.26.53.46.87.6.34.14.722.21 1.146.21.424 0 .804-.07 1.14-.21.34-.14.628-.34.864-.6.236-.264.416-.584.54-.96a4.01 4.01 0 0 0 .192-1.284ZM16.104 8.757v3.912c0 .376.086.668.258.876.176.204.438.306.786.306.256 0 .496-.056.72-.168a2.58 2.58 0 0 0 .636-.474V8.757h1.482v6.156h-.906c-.192 0-.318-.09-.378-.27l-.102-.492a4.65 4.65 0 0 1-.396.354 2.577 2.577 0 0 1-.438.27 2.35 2.35 0 0 1-.498.168 2.345 2.345 0 0 1-.57.066c-.336 0-.634-.056-.894-.168a1.821 1.821 0 0 1-.648-.486 2.157 2.157 0 0 1-.402-.738 3.233 3.233 0 0 1-.132-.948V8.757h1.482ZM21.328 14.913V8.757h.87c.152 0 .258.028.318.084.06.056.1.152.12.288l.09.744c.22-.38.478-.68.774-.9.296-.22.628-.33.996-.33.304 0 .556.07.756.21l-.192 1.11c-.012.072-.038.124-.078.156a.278.278 0 0 1-.162.042 1.01 1.01 0 0 1-.246-.042 1.646 1.646 0 0 0-.414-.042c-.308 0-.572.086-.792.258-.22.168-.406.416-.558.744v3.834h-1.482ZM27.347 6.237h1.356a.57.57 0 0 1 .348.102c.096.064.16.152.192.264l1.476 5.19c.036.128.068.268.096.42.032.148.062.306.09.474a5.968 5.968 0 0 1 .228-.894l1.704-5.19a.575.575 0 0 1 .186-.252.543.543 0 0 1 .348-.114h.474a.57.57 0 0 1 .348.102.497.497 0 0 1 .192.264l1.692 5.19c.088.256.164.54.228.852.028-.156.056-.306.084-.45.032-.144.064-.278.096-.402l1.476-5.19c.028-.1.09-.186.186-.258a.563.563 0 0 1 .348-.108h1.266l-2.694 8.676h-1.458l-1.896-5.928-.078-.246a9.504 9.504 0 0 1-.072-.282c-.024.1-.05.194-.078.282-.024.088-.048.17-.072.246l-1.914 5.928H30.04l-2.694-8.676ZM42.771 8.661c.46 0 .876.074 1.248.222.376.148.696.358.96.63s.468.604.612.996c.144.392.216.83.216 1.314 0 .488-.072.928-.216 1.32a2.85 2.85 0 0 1-.612 1.002 2.653 2.653 0 0 1-.96.636 3.35 3.35 0 0 1-1.248.222c-.46 0-.878-.074-1.254-.222a2.712 2.712 0 0 1-.966-.636 2.922 2.922 0 0 1-.618-1.002 3.807 3.807 0 0 1-.216-1.32c0-.484.072-.922.216-1.314.148-.392.354-.724.618-.996.268-.272.59-.482.966-.63a3.397 3.397 0 0 1 1.254-.222Zm0 5.202c.512 0 .89-.172 1.134-.516.248-.344.372-.848.372-1.512s-.124-1.17-.372-1.518c-.244-.348-.622-.522-1.134-.522-.52 0-.904.176-1.152.528-.248.348-.372.852-.372 1.512s.124 1.164.372 1.512c.248.344.632.516 1.152.516ZM46.723 14.913V8.757h.87c.152 0 .258.028.318.084.06.056.1.152.12.288l.09.744c.22-.38.478-.68.774-.9.296-.22.628-.33.996-.33.304 0 .556.07.756.21l-.192 1.11c-.012.072-.038.124-.078.156a.278.278 0 0 1-.162.042 1.01 1.01 0 0 1-.246-.042 1.646 1.646 0 0 0-.414-.042c-.308 0-.572.086-.792.258-.22.168-.406.416-.558.744v3.834h-1.482ZM52.96 5.997v8.916h-1.482V5.997h1.482ZM58.732 14.913c-.192 0-.318-.09-.378-.27l-.12-.594a3.68 3.68 0 0 1-.402.39c-.14.116-.292.216-.456.3-.16.084-.334.148-.522.192a2.372 2.372 0 0 1-.6.072c-.336 0-.644-.07-.924-.21a2.098 2.098 0 0 1-.726-.606 3.033 3.033 0 0 1-.468-.99 5.072 5.072 0 0 1-.162-1.344c0-.456.062-.88.186-1.272s.302-.732.534-1.02c.232-.288.51-.512.834-.672a2.384 2.384 0 0 1 1.092-.246 2.103 2.103 0 0 1 1.536.606V5.997h1.482v8.916h-.906Zm-1.974-1.086c.308 0 .57-.064.786-.192.216-.128.42-.31.612-.546v-2.76a1.452 1.452 0 0 0-.552-.432 1.597 1.597 0 0 0-.636-.126c-.224 0-.428.042-.612.126a1.21 1.21 0 0 0-.462.384c-.124.168-.22.384-.288.648-.068.26-.102.568-.102.924 0 .36.028.666.084.918.06.248.144.452.252.612.108.156.24.27.396.342.156.068.33.102.522.102ZM16.331 20.757v6.156H14.85v-6.156h1.481Zm.223-1.794a.844.844 0 0 1-.078.36.963.963 0 0 1-.21.294.995.995 0 0 1-.3.204.963.963 0 0 1-.372.072.948.948 0 0 1-.367-.072 1.018 1.018 0 0 1-.498-.498.963.963 0 0 1 0-.732.995.995 0 0 1 .205-.3.929.929 0 0 1 .293-.198.899.899 0 0 1 .738 0 .912.912 0 0 1 .3.198.943.943 0 0 1 .288.672ZM17.771 26.913v-6.156h.906c.192 0 .318.09.378.27l.102.486a2.934 2.934 0 0 1 .828-.618c.156-.076.322-.134.498-.174.176-.04.368-.06.576-.06.336 0 .634.058.894.174.26.112.476.272.648.48.176.204.308.45.396.738.092.284.138.598.138.942v3.918h-1.482v-3.918c0-.376-.088-.666-.264-.87-.172-.208-.432-.312-.78-.312-.256 0-.496.058-.72.174a2.58 2.58 0 0 0-.636.474v4.452h-1.482ZM34.22 22.575c0 .636-.106 1.22-.318 1.752-.212.532-.51.99-.894 1.374a4 4 0 0 1-1.386.894 4.87 4.87 0 0 1-1.794.318h-3.312v-8.676h3.312a4.79 4.79 0 0 1 1.794.324 4 4 0 0 1 1.386.894c.384.38.682.836.894 1.368.212.532.318 1.116.318 1.752Zm-1.65 0c0-.476-.064-.902-.192-1.278a2.68 2.68 0 0 0-.546-.96 2.332 2.332 0 0 0-.864-.606 2.94 2.94 0 0 0-1.14-.21h-1.686v6.108h1.686c.424 0 .804-.07 1.14-.21.34-.14.628-.34.864-.6a2.75 2.75 0 0 0 .546-.96 4.01 4.01 0 0 0 .192-1.284ZM39.98 26.913h-.665c-.14 0-.25-.02-.33-.06-.08-.044-.14-.13-.18-.258l-.132-.438c-.156.14-.31.264-.462.372a2.804 2.804 0 0 1-.462.264c-.16.072-.33.126-.51.162-.18.036-.38.054-.6.054-.26 0-.5-.034-.72-.102a1.618 1.618 0 0 1-.57-.318 1.448 1.448 0 0 1-.366-.522 1.852 1.852 0 0 1-.132-.726c0-.232.06-.46.18-.684.124-.228.328-.432.612-.612.284-.184.662-.336 1.134-.456.472-.12 1.058-.188 1.758-.204v-.36c0-.412-.088-.716-.264-.912-.172-.2-.424-.3-.756-.3a1.837 1.837 0 0 0-1.02.276c-.116.068-.224.13-.324.186a.664.664 0 0 1-.33.084.429.429 0 0 1-.258-.078.614.614 0 0 1-.174-.192l-.27-.474c.708-.648 1.562-.972 2.562-.972.36 0 .68.06.96.18.284.116.524.28.72.492.196.208.344.458.444.75.104.292.156.612.156.96v3.888Zm-2.88-.924c.153 0 .293-.014.42-.042.129-.028.249-.07.36-.126.117-.056.227-.124.33-.204.109-.084.217-.182.325-.294v-1.038c-.432.02-.794.058-1.086.114-.288.052-.52.12-.696.204a.923.923 0 0 0-.378.294.664.664 0 0 0-.108.366c0 .26.076.446.228.558.156.112.358.168.606.168ZM43.22 27.01c-.532 0-.942-.15-1.23-.45-.288-.305-.432-.723-.432-1.255v-3.438h-.624a.31.31 0 0 1-.21-.078c-.056-.052-.084-.13-.084-.234v-.588l.99-.162.312-1.68a.302.302 0 0 1 .108-.186.365.365 0 0 1 .222-.066h.768v1.938h1.62v1.056h-1.62v3.336c0 .192.048.342.144.45a.488.488 0 0 0 .384.162c.092 0 .168-.01.228-.03.064-.024.118-.048.162-.072.048-.024.09-.046.126-.066a.194.194 0 0 1 .108-.036.16.16 0 0 1 .108.036c.028.02.058.052.09.096l.444.72c-.216.18-.464.316-.744.408a2.77 2.77 0 0 1-.87.138ZM50.423 26.913h-.666c-.14 0-.25-.02-.33-.06-.08-.044-.14-.13-.18-.258l-.132-.438c-.156.14-.31.264-.462.372a2.804 2.804 0 0 1-.462.264c-.16.072-.33.126-.51.162-.18.036-.38.054-.6.054-.26 0-.5-.034-.72-.102a1.618 1.618 0 0 1-.57-.318 1.448 1.448 0 0 1-.366-.522 1.852 1.852 0 0 1-.132-.726c0-.232.06-.46.18-.684.124-.228.328-.432.612-.612.284-.184.662-.336 1.134-.456.472-.12 1.058-.188 1.758-.204v-.36c0-.412-.088-.716-.264-.912-.172-.2-.424-.3-.756-.3a1.837 1.837 0 0 0-1.02.276c-.116.068-.224.13-.324.186a.664.664 0 0 1-.33.084.429.429 0 0 1-.258-.078.614.614 0 0 1-.174-.192l-.27-.474c.708-.648 1.562-.972 2.562-.972.36 0 .68.06.96.18.284.116.524.28.72.492.196.208.344.458.444.75.104.292.156.612.156.96v3.888Zm-2.88-.924c.152 0 .292-.014.42-.042.128-.028.248-.07.36-.126.116-.056.226-.124.33-.204.108-.084.216-.182.324-.294v-1.038c-.432.02-.794.058-1.086.114-.288.052-.52.12-.696.204a.923.923 0 0 0-.378.294.664.664 0 0 0-.108.366c0 .26.076.446.228.558.156.112.358.168.606.168Z"/></svg></g><a id="title" href="https://ourworldindata.org/grapher/gini-coefficient-after-vs-before-tax-wb-scatter" style="font-family:&#x27;Playfair Display&#x27;, Georgia, &#x27;Times New Roman&#x27;, &#x27;Liberation Serif&#x27;, serif" target="_blank" rel="noopener"><text font-size="24.75" font-weight="600" x="16.0" y="40.0" fill="#5b5b5b"><tspan x="16" y="40.0075">Income inequality: Gini coefficient before and after tax, 2023</tspan></text></a><g id="subtitle" class="markdown-text-wrap"><text x="16.0" y="63.9" style="font-size:14.625px;line-height:1.2" fill="#5b5b5b"><tspan x="16" y="63.9">Inequality is measured in terms of the <tspan class="dod-span" data-id="gini">Gini coefficient</tspan> of income before taxes on the horizontal axis and after</tspan><tspan x="16" y="81.4">taxes on the vertical axis.</tspan></text></g></g><g id="chart-area" style="pointer-events:none"><g class="ScatterPlot"><g id="horizontal-axis" class="HorizontalAxis"><g id="tick-labels"><text x="61.900000000000006" y="529.8" fill="#5b5b5b" text-anchor="start" font-size="13.5">0.2</text><text x="181" y="529.8" fill="#5b5b5b" text-anchor="middle" font-size="13.5">0.3</text><text x="300.2" y="529.8" fill="#5b5b5b" text-anchor="middle" font-size="13.5">0.4</text><text x="419.3" y="529.8" fill="#5b5b5b" text-anchor="middle" font-size="13.5">0.5</text><text x="538.4" y="529.8" fill="#5b5b5b" text-anchor="middle" font-size="13.5">0.6</text><text x="657.5" y="529.8" fill="#5b5b5b" text-anchor="middle" font-size="13.5">0.7</text></g></g><g id="vertical-axis" class="VerticalAxis"><g id="tick-labels"><text x="56.90" y="511.3" dy=".32em" text-anchor="end" fill="#5b5b5b" font-size="13.5">0.2</text><text x="56.90" y="421.4" dy=".32em" text-anchor="end" fill="#5b5b5b" font-size="13.5">0.3</text><text x="56.90" y="331.5" dy=".32em" text-anchor="end" fill="#5b5b5b" font-size="13.5">0.4</text><text x="56.90" y="241.6" dy=".32em" text-anchor="end" fill="#5b5b5b" font-size="13.5">0.5</text><text x="56.90" y="151.7" dy=".32em" text-anchor="end" fill="#5b5b5b" font-size="13.5">0.6</text></g></g><g id="horizontal-grid-lines" class="AxisGridLines horizontalLines"><line id="0.2" x1="61.90" y1="511.3" x2="717.09" y2="511.3" stroke="#ddd" stroke-width="1" stroke-dasharray="3,2"></line><line id="0.3" x1="61.90" y1="421.4" x2="717.09" y2="421.4" stroke="#ddd" stroke-width="1" stroke-dasharray="3,2"></line><line id="0.4" x1="61.90" y1="331.5" x2="717.09" y2="331.5" stroke="#ddd" stroke-width="1" stroke-dasharray="3,2"></line><line id="0.5" x1="61.90" y1="241.6" x2="717.09" y2="241.6" stroke="#ddd" stroke-width="1" stroke-dasharray="3,2"></line><line id="0.6" x1="61.90" y1="151.7" x2="717.09" y2="151.7" stroke="#ddd" stroke-width="1" stroke-dasharray="3,2"></line></g><g id="vertical-grid-lines" class="AxisGridLines verticalLines"><line id="0.2" x1="61.9" y1="511.30" x2="61.9" y2="106.80" stroke="#ddd" stroke-width="1" stroke-dasharray="3,2"></line><line id="0.3" x1="181" y1="511.30" x2="181" y2="106.80" stroke="#ddd" stroke-width="1" stroke-dasharray="3,2"></line><line id="0.4" x1="300.2" y1="511.30" x2="300.2" y2="106.80" stroke="#ddd" stroke-width="1" stroke-dasharray="3,2"></line><line id="0.5" x1="419.3" y1="511.30" x2="419.3" y2="106.80" stroke="#ddd" stroke-width="1" stroke-dasharray="3,2"></line><line id="0.6" x1="538.4" y1="511.30" x2="538.4" y2="106.80" stroke="#ddd" stroke-width="1" stroke-dasharray="3,2"></line><line id="0.7" x1="657.5" y1="511.30" x2="657.5" y2="106.80" stroke="#ddd" stroke-width="1" stroke-dasharray="3,2"></line></g><g id="horizontal-axis-label" class="markdown-text-wrap"><text x="389.5" y="550.2" style="font-size:12px;line-height:1" fill="#5b5b5b" text-anchor="middle"><tspan x="389.496" y="550.2">Before tax</tspan></text></g><g id="vertical-axis-label" class="markdown-text-wrap"><text x="-309.1" y="26.4" style="font-size:12px;line-height:1" transform="rotate(-90)" fill="#5b5b5b" text-anchor="middle"><tspan x="-309.05" y="26.4">After tax</tspan></text></g><g id="comparison-line" class="comparisonLine"><defs><clipPath id="axisBounds-1"><rect x="61.900000000000006" y="106.8" width="655.192" height="404.5"></rect></clipPath></defs><path style="opacity:0.9;fill:none;stroke:#ccc;stroke-dasharray:2 2" id="path-1" d="M61.9,511.3L63.2,510.3L64.5,509.3L65.8,508.3L67.1,507.3L68.5,506.4L69.8,505.4L71.1,504.4L72.4,503.4L73.7,502.4L75,501.4L76.3,500.4L77.6,499.4L78.9,498.4L80.2,497.5L81.6,496.5L82.9,495.5L84.2,494.5L85.5,493.5L86.8,492.5L88.1,491.5L89.4,490.5L90.7,489.5L92,488.6L93.3,487.6L94.7,486.6L96,485.6L97.3,484.6L98.6,483.6L99.9,482.6L101.2,481.6L102.5,480.6L103.8,479.7L105.1,478.7L106.5,477.7L107.8,476.7L109.1,475.7L110.4,474.7L111.7,473.7L113,472.7L114.3,471.7L115.6,470.8L116.9,469.8L118.2,468.8L119.6,467.8L120.9,466.8L122.2,465.8L123.5,464.8L124.8,463.8L126.1,462.8L127.4,461.9L128.7,460.9L130,459.9L131.4,458.9L132.7,457.9L134,456.9L135.3,455.9L136.6,454.9L137.9,454L139.2,453L140.5,452L141.8,451L143.1,450L144.5,449L145.8,448L147.1,447L148.4,446L149.7,445.1L151,444.1L152.3,443.1L153.6,442.1L154.9,441.1L156.2,440.1L157.6,439.1L158.9,438.1L160.2,437.1L161.5,436.2L162.8,435.2L164.1,434.2L165.4,433.2L166.7,432.2L168,431.2L169.4,430.2L170.7,429.2L172,428.2L173.3,427.3L174.6,426.3L175.9,425.3L177.2,424.3L178.5,423.3L179.8,422.3L181.1,421.3L182.5,420.3L183.8,419.3L185.1,418.4L186.4,417.4L187.7,416.4L189,415.4L190.3,414.4L191.6,413.4L192.9,412.4L194.2,411.4L195.6,410.4L196.9,409.5L198.2,408.5L199.5,407.5L200.8,406.5L202.1,405.5L203.4,404.5L204.7,403.5L206,402.5L207.4,401.5L208.7,400.6L210,399.6L211.3,398.6L212.6,397.6L213.9,396.6L215.2,395.6L216.5,394.6L217.8,393.6L219.1,392.6L220.5,391.7L221.8,390.7L223.1,389.7L224.4,388.7L225.7,387.7L227,386.7L228.3,385.7L229.6,384.7L230.9,383.7L232.2,382.8L233.6,381.8L234.9,380.8L236.2,379.8L237.5,378.8L238.8,377.8L240.1,376.8L241.4,375.8L242.7,374.8L244,373.9L245.4,372.9L246.7,371.9L248,370.9L249.3,369.9L250.6,368.9L251.9,367.9L253.2,366.9L254.5,365.9L255.8,365L257.1,364L258.5,363L259.8,362L261.1,361L262.4,360L263.7,359L265,358L266.3,357.1L267.6,356.1L268.9,355.1L270.3,354.1L271.6,353.1L272.9,352.1L274.2,351.1L275.5,350.1L276.8,349.1L278.1,348.2L279.4,347.2L280.7,346.2L282,345.2L283.4,344.2L284.7,343.2L286,342.2L287.3,341.2L288.6,340.2L289.9,339.3L291.2,338.3L292.5,337.3L293.8,336.3L295.1,335.3L296.5,334.3L297.8,333.3L299.1,332.3L300.4,331.3L301.7,330.4L303,329.4L304.3,328.4L305.6,327.4L306.9,326.4L308.3,325.4L309.6,324.4L310.9,323.4L312.2,322.4L313.5,321.5L314.8,320.5L316.1,319.5L317.4,318.5L318.7,317.5L320,316.5L321.4,315.5L322.7,314.5L324,313.5L325.3,312.6L326.6,311.6L327.9,310.6L329.2,309.6L330.5,308.6L331.8,307.6L333.1,306.6L334.5,305.6L335.8,304.6L337.1,303.7L338.4,302.7L339.7,301.7L341,300.7L342.3,299.7L343.6,298.7L344.9,297.7L346.3,296.7L347.6,295.7L348.9,294.8L350.2,293.8L351.5,292.8L352.8,291.8L354.1,290.8L355.4,289.8L356.7,288.8L358,287.8L359.4,286.8L360.7,285.9L362,284.9L363.3,283.9L364.6,282.9L365.9,281.9L367.2,280.9L368.5,279.9L369.8,278.9L371.2,277.9L372.5,277L373.8,276L375.1,275L376.4,274L377.7,273L379,272L380.3,271L381.6,270L382.9,269L384.3,268.1L385.6,267.1L386.9,266.1L388.2,265.1L389.5,264.1L390.8,263.1L392.1,262.1L393.4,261.1L394.7,260.2L396,259.2L397.4,258.2L398.7,257.2L400,256.2L401.3,255.2L402.6,254.2L403.9,253.2L405.2,252.2L406.5,251.3L407.8,250.3L409.2,249.3L410.5,248.3L411.8,247.3L413.1,246.3L414.4,245.3L415.7,244.3L417,243.3L418.3,242.4L419.6,241.4L420.9,240.4L422.3,239.4L423.6,238.4L424.9,237.4L426.2,236.4L427.5,235.4L428.8,234.4L430.1,233.5L431.4,232.5L432.7,231.5L434,230.5L435.4,229.5L436.7,228.5L438,227.5L439.3,226.5L440.6,225.5L441.9,224.6L443.2,223.6L444.5,222.6L445.8,221.6L447.2,220.6L448.5,219.6L449.8,218.6L451.1,217.6L452.4,216.6L453.7,215.7L455,214.7L456.3,213.7L457.6,212.7L458.9,211.7L460.3,210.7L461.6,209.7L462.9,208.7L464.2,207.7L465.5,206.8L466.8,205.8L468.1,204.8L469.4,203.8L470.7,202.8L472.1,201.8L473.4,200.8L474.7,199.8L476,198.8L477.3,197.9L478.6,196.9L479.9,195.9L481.2,194.9L482.5,193.9L483.8,192.9L485.2,191.9L486.5,190.9L487.8,189.9L489.1,189L490.4,188L491.7,187L493,186L494.3,185L495.6,184L496.9,183L498.3,182L499.6,181L500.9,180.1L502.2,179.1L503.5,178.1L504.8,177.1L506.1,176.1L507.4,175.1L508.7,174.1L510.1,173.1L511.4,172.1L512.7,171.2L514,170.2L515.3,169.2L516.6,168.2L517.9,167.2L519.2,166.2L520.5,165.2L521.8,164.2L523.2,163.3L524.5,162.3L525.8,161.3L527.1,160.3L528.4,159.3L529.7,158.3L531,157.3L532.3,156.3L533.6,155.3L534.9,154.4L536.3,153.4L537.6,152.4L538.9,151.4L540.2,150.4L541.5,149.4L542.8,148.4L544.1,147.4L545.4,146.4L546.7,145.5L548.1,144.5L549.4,143.5L550.7,142.5L552,141.5L553.3,140.5L554.6,139.5L555.9,138.5L557.2,137.5L558.5,136.6L559.8,135.6L561.2,134.6L562.5,133.6L563.8,132.6L565.1,131.6L566.4,130.6L567.7,129.6L569,128.6L570.3,127.7L571.6,126.7L572.9,125.7L574.3,124.7L575.6,123.7L576.9,122.7L578.2,121.7L579.5,120.7L580.8,119.7L582.1,118.8L583.4,117.8L584.7,116.8L586.1,115.8L587.4,114.8L588.7,113.8L590,112.8L591.3,111.8L592.6,110.8L593.9,109.9L595.2,108.9L596.5,107.9L597.8,106.9" clip-path="url(#axisBounds-1)"></path><text style="font-size:11.8125px;opacity:0.9;text-anchor:end;fill:#999" clip-path="url(#axisBounds-1)"><textPath baseline-shift="-0.2rem" href="#path-1" startOffset="90%" style="fill:#ffffff;stroke:#ffffff;stroke-linecap:round;stroke-linejoin:round;stroke-width:.25em;user-select:none">No reduction</textPath><textPath baseline-shift="-0.2rem" href="#path-1" startOffset="90%">No reduction</textPath></text></g><g id="comparison-line" class="comparisonLine"><defs><clipPath id="axisBounds-2"><rect x="61.900000000000006" y="106.8" width="655.192" height="404.5"></rect></clipPath></defs><path style="opacity:0.9;fill:none;stroke:#ccc;stroke-dasharray:2 2" id="path-2" d="M61.9,571.2L63.2,570.6L64.5,569.9L65.8,569.2L67.1,568.6L68.5,567.9L69.8,567.3L71.1,566.6L72.4,566L73.7,565.3L75,564.6L76.3,564L77.6,563.3L78.9,562.7L80.2,562L81.6,561.3L82.9,560.7L84.2,560L85.5,559.4L86.8,558.7L88.1,558L89.4,557.4L90.7,556.7L92,556.1L93.3,555.4L94.7,554.7L96,554.1L97.3,553.4L98.6,552.8L99.9,552.1L101.2,551.5L102.5,550.8L103.8,550.1L105.1,549.5L106.5,548.8L107.8,548.2L109.1,547.5L110.4,546.8L111.7,546.2L113,545.5L114.3,544.9L115.6,544.2L116.9,543.5L118.2,542.9L119.6,542.2L120.9,541.6L122.2,540.9L123.5,540.2L124.8,539.6L126.1,538.9L127.4,538.3L128.7,537.6L130,536.9L131.4,536.3L132.7,535.6L134,535L135.3,534.3L136.6,533.7L137.9,533L139.2,532.3L140.5,531.7L141.8,531L143.1,530.4L144.5,529.7L145.8,529L147.1,528.4L148.4,527.7L149.7,527.1L151,526.4L152.3,525.7L153.6,525.1L154.9,524.4L156.2,523.8L157.6,523.1L158.9,522.4L160.2,521.8L161.5,521.1L162.8,520.5L164.1,519.8L165.4,519.2L166.7,518.5L168,517.8L169.4,517.2L170.7,516.5L172,515.9L173.3,515.2L174.6,514.5L175.9,513.9L177.2,513.2L178.5,512.6L179.8,511.9L181.1,511.2L182.5,510.6L183.8,509.9L185.1,509.3L186.4,508.6L187.7,507.9L189,507.3L190.3,506.6L191.6,506L192.9,505.3L194.2,504.6L195.6,504L196.9,503.3L198.2,502.7L199.5,502L200.8,501.4L202.1,500.7L203.4,500L204.7,499.4L206,498.7L207.4,498.1L208.7,497.4L210,496.7L211.3,496.1L212.6,495.4L213.9,494.8L215.2,494.1L216.5,493.4L217.8,492.8L219.1,492.1L220.5,491.5L221.8,490.8L223.1,490.1L224.4,489.5L225.7,488.8L227,488.2L228.3,487.5L229.6,486.9L230.9,486.2L232.2,485.5L233.6,484.9L234.9,484.2L236.2,483.6L237.5,482.9L238.8,482.2L240.1,481.6L241.4,480.9L242.7,480.3L244,479.6L245.4,478.9L246.7,478.3L248,477.6L249.3,477L250.6,476.3L251.9,475.6L253.2,475L254.5,474.3L255.8,473.7L257.1,473L258.5,472.3L259.8,471.7L261.1,471L262.4,470.4L263.7,469.7L265,469.1L266.3,468.4L267.6,467.7L268.9,467.1L270.3,466.4L271.6,465.8L272.9,465.1L274.2,464.4L275.5,463.8L276.8,463.1L278.1,462.5L279.4,461.8L280.7,461.1L282,460.5L283.4,459.8L284.7,459.2L286,458.5L287.3,457.8L288.6,457.2L289.9,456.5L291.2,455.9L292.5,455.2L293.8,454.6L295.1,453.9L296.5,453.2L297.8,452.6L299.1,451.9L300.4,451.3L301.7,450.6L303,449.9L304.3,449.3L305.6,448.6L306.9,448L308.3,447.3L309.6,446.6L310.9,446L312.2,445.3L313.5,444.7L314.8,444L316.1,443.3L317.4,442.7L318.7,442L320,441.4L321.4,440.7L322.7,440L324,439.4L325.3,438.7L326.6,438.1L327.9,437.4L329.2,436.8L330.5,436.1L331.8,435.4L333.1,434.8L334.5,434.1L335.8,433.5L337.1,432.8L338.4,432.1L339.7,431.5L341,430.8L342.3,430.2L343.6,429.5L344.9,428.8L346.3,428.2L347.6,427.5L348.9,426.9L350.2,426.2L351.5,425.5L352.8,424.9L354.1,424.2L355.4,423.6L356.7,422.9L358,422.3L359.4,421.6L360.7,420.9L362,420.3L363.3,419.6L364.6,419L365.9,418.3L367.2,417.6L368.5,417L369.8,416.3L371.2,415.7L372.5,415L373.8,414.3L375.1,413.7L376.4,413L377.7,412.4L379,411.7L380.3,411L381.6,410.4L382.9,409.7L384.3,409.1L385.6,408.4L386.9,407.7L388.2,407.1L389.5,406.4L390.8,405.8L392.1,405.1L393.4,404.5L394.7,403.8L396,403.1L397.4,402.5L398.7,401.8L400,401.2L401.3,400.5L402.6,399.8L403.9,399.2L405.2,398.5L406.5,397.9L407.8,397.2L409.2,396.5L410.5,395.9L411.8,395.2L413.1,394.6L414.4,393.9L415.7,393.2L417,392.6L418.3,391.9L419.6,391.3L420.9,390.6L422.3,390L423.6,389.3L424.9,388.6L426.2,388L427.5,387.3L428.8,386.7L430.1,386L431.4,385.3L432.7,384.7L434,384L435.4,383.4L436.7,382.7L438,382L439.3,381.4L440.6,380.7L441.9,380.1L443.2,379.4L444.5,378.7L445.8,378.1L447.2,377.4L448.5,376.8L449.8,376.1L451.1,375.4L452.4,374.8L453.7,374.1L455,373.5L456.3,372.8L457.6,372.2L458.9,371.5L460.3,370.8L461.6,370.2L462.9,369.5L464.2,368.9L465.5,368.2L466.8,367.5L468.1,366.9L469.4,366.2L470.7,365.6L472.1,364.9L473.4,364.2L474.7,363.6L476,362.9L477.3,362.3L478.6,361.6L479.9,360.9L481.2,360.3L482.5,359.6L483.8,359L485.2,358.3L486.5,357.6L487.8,357L489.1,356.3L490.4,355.7L491.7,355L493,354.4L494.3,353.7L495.6,353L496.9,352.4L498.3,351.7L499.6,351.1L500.9,350.4L502.2,349.7L503.5,349.1L504.8,348.4L506.1,347.8L507.4,347.1L508.7,346.4L510.1,345.8L511.4,345.1L512.7,344.5L514,343.8L515.3,343.1L516.6,342.5L517.9,341.8L519.2,341.2L520.5,340.5L521.8,339.9L523.2,339.2L524.5,338.5L525.8,337.9L527.1,337.2L528.4,336.6L529.7,335.9L531,335.2L532.3,334.6L533.6,333.9L534.9,333.3L536.3,332.6L537.6,331.9L538.9,331.3L540.2,330.6L541.5,330L542.8,329.3L544.1,328.6L545.4,328L546.7,327.3L548.1,326.7L549.4,326L550.7,325.3L552,324.7L553.3,324L554.6,323.4L555.9,322.7L557.2,322.1L558.5,321.4L559.8,320.7L561.2,320.1L562.5,319.4L563.8,318.8L565.1,318.1L566.4,317.4L567.7,316.8L569,316.1L570.3,315.5L571.6,314.8L572.9,314.1L574.3,313.5L575.6,312.8L576.9,312.2L578.2,311.5L579.5,310.8L580.8,310.2L582.1,309.5L583.4,308.9L584.7,308.2L586.1,307.6L587.4,306.9L588.7,306.2L590,305.6L591.3,304.9L592.6,304.3L593.9,303.6L595.2,302.9L596.5,302.3L597.8,301.6L599.2,301L600.5,300.3L601.8,299.6L603.1,299L604.4,298.3L605.7,297.7L607,297L608.3,296.3L609.6,295.7L611,295L612.3,294.4L613.6,293.7L614.9,293L616.2,292.4L617.5,291.7L618.8,291.1L620.1,290.4L621.4,289.8L622.7,289.1L624.1,288.4L625.4,287.8L626.7,287.1L628,286.5L629.3,285.8L630.6,285.1L631.9,284.5L633.2,283.8L634.5,283.2L635.8,282.5L637.2,281.8L638.5,281.2L639.8,280.5L641.1,279.9L642.4,279.2L643.7,278.5L645,277.9L646.3,277.2L647.6,276.6L649,275.9L650.3,275.3L651.6,274.6L652.9,273.9L654.2,273.3L655.5,272.6L656.8,272L658.1,271.3L659.4,270.6L660.7,270L662.1,269.3L663.4,268.7L664.7,268L666,267.3L667.3,266.7L668.6,266L669.9,265.4L671.2,264.7L672.5,264L673.8,263.4L675.2,262.7L676.5,262.1L677.8,261.4L679.1,260.7L680.4,260.1L681.7,259.4L683,258.8L684.3,258.1L685.6,257.5L687,256.8L688.3,256.1L689.6,255.5L690.9,254.8L692.2,254.2L693.5,253.5L694.8,252.8L696.1,252.2L697.4,251.5L698.7,250.9L700.1,250.2L701.4,249.5L702.7,248.9L704,248.2L705.3,247.6L706.6,246.9L707.9,246.2L709.2,245.6L710.5,244.9L711.9,244.3L713.2,243.6L714.5,243L715.8,242.3" clip-path="url(#axisBounds-2)"></path><text style="font-size:11.8125px;opacity:0.9;text-anchor:end;fill:#999" clip-path="url(#axisBounds-2)"><textPath baseline-shift="-0.2rem" href="#path-2" startOffset="90%" style="fill:#ffffff;stroke:#ffffff;stroke-linecap:round;stroke-linejoin:round;stroke-width:.25em;user-select:none">Reduced by a third</textPath><textPath baseline-shift="-0.2rem" href="#path-2" startOffset="90%">Reduced by a third</textPath></text></g><g id="comparison-line" class="comparisonLine"><defs><clipPath id="axisBounds-3"><rect x="61.900000000000006" y="106.8" width="655.192" height="404.5"></rect></clipPath></defs><path style="opacity:0.9;fill:none;stroke:#ccc;stroke-dasharray:2 2" id="path-3" d="M61.9,601.2L63.2,600.7L64.5,600.2L65.8,599.7L67.1,599.2L68.5,598.7L69.8,598.2L71.1,597.7L72.4,597.2L73.7,596.7L75,596.2L76.3,595.8L77.6,595.3L78.9,594.8L80.2,594.3L81.6,593.8L82.9,593.3L84.2,592.8L85.5,592.3L86.8,591.8L88.1,591.3L89.4,590.8L90.7,590.3L92,589.8L93.3,589.3L94.7,588.8L96,588.3L97.3,587.8L98.6,587.3L99.9,586.9L101.2,586.4L102.5,585.9L103.8,585.4L105.1,584.9L106.5,584.4L107.8,583.9L109.1,583.4L110.4,582.9L111.7,582.4L113,581.9L114.3,581.4L115.6,580.9L116.9,580.4L118.2,579.9L119.6,579.4L120.9,578.9L122.2,578.4L123.5,578L124.8,577.5L126.1,577L127.4,576.5L128.7,576L130,575.5L131.4,575L132.7,574.5L134,574L135.3,573.5L136.6,573L137.9,572.5L139.2,572L140.5,571.5L141.8,571L143.1,570.5L144.5,570L145.8,569.5L147.1,569.1L148.4,568.6L149.7,568.1L151,567.6L152.3,567.1L153.6,566.6L154.9,566.1L156.2,565.6L157.6,565.1L158.9,564.6L160.2,564.1L161.5,563.6L162.8,563.1L164.1,562.6L165.4,562.1L166.7,561.6L168,561.1L169.4,560.6L170.7,560.2L172,559.7L173.3,559.2L174.6,558.7L175.9,558.2L177.2,557.7L178.5,557.2L179.8,556.7L181.1,556.2L182.5,555.7L183.8,555.2L185.1,554.7L186.4,554.2L187.7,553.7L189,553.2L190.3,552.7L191.6,552.2L192.9,551.8L194.2,551.3L195.6,550.8L196.9,550.3L198.2,549.8L199.5,549.3L200.8,548.8L202.1,548.3L203.4,547.8L204.7,547.3L206,546.8L207.4,546.3L208.7,545.8L210,545.3L211.3,544.8L212.6,544.3L213.9,543.8L215.2,543.3L216.5,542.9L217.8,542.4L219.1,541.9L220.5,541.4L221.8,540.9L223.1,540.4L224.4,539.9L225.7,539.4L227,538.9L228.3,538.4L229.6,537.9L230.9,537.4L232.2,536.9L233.6,536.4L234.9,535.9L236.2,535.4L237.5,534.9L238.8,534.4L240.1,534L241.4,533.5L242.7,533L244,532.5L245.4,532L246.7,531.5L248,531L249.3,530.5L250.6,530L251.9,529.5L253.2,529L254.5,528.5L255.8,528L257.1,527.5L258.5,527L259.8,526.5L261.1,526L262.4,525.5L263.7,525.1L265,524.6L266.3,524.1L267.6,523.6L268.9,523.1L270.3,522.6L271.6,522.1L272.9,521.6L274.2,521.1L275.5,520.6L276.8,520.1L278.1,519.6L279.4,519.1L280.7,518.6L282,518.1L283.4,517.6L284.7,517.1L286,516.6L287.3,516.2L288.6,515.7L289.9,515.2L291.2,514.7L292.5,514.2L293.8,513.7L295.1,513.2L296.5,512.7L297.8,512.2L299.1,511.7L300.4,511.2L301.7,510.7L303,510.2L304.3,509.7L305.6,509.2L306.9,508.7L308.3,508.2L309.6,507.7L310.9,507.3L312.2,506.8L313.5,506.3L314.8,505.8L316.1,505.3L317.4,504.8L318.7,504.3L320,503.8L321.4,503.3L322.7,502.8L324,502.3L325.3,501.8L326.6,501.3L327.9,500.8L329.2,500.3L330.5,499.8L331.8,499.3L333.1,498.9L334.5,498.4L335.8,497.9L337.1,497.4L338.4,496.9L339.7,496.4L341,495.9L342.3,495.4L343.6,494.9L344.9,494.4L346.3,493.9L347.6,493.4L348.9,492.9L350.2,492.4L351.5,491.9L352.8,491.4L354.1,490.9L355.4,490.4L356.7,490L358,489.5L359.4,489L360.7,488.5L362,488L363.3,487.5L364.6,487L365.9,486.5L367.2,486L368.5,485.5L369.8,485L371.2,484.5L372.5,484L373.8,483.5L375.1,483L376.4,482.5L377.7,482L379,481.5L380.3,481.1L381.6,480.6L382.9,480.1L384.3,479.6L385.6,479.1L386.9,478.6L388.2,478.1L389.5,477.6L390.8,477.1L392.1,476.6L393.4,476.1L394.7,475.6L396,475.1L397.4,474.6L398.7,474.1L400,473.6L401.3,473.1L402.6,472.6L403.9,472.2L405.2,471.7L406.5,471.2L407.8,470.7L409.2,470.2L410.5,469.7L411.8,469.2L413.1,468.7L414.4,468.2L415.7,467.7L417,467.2L418.3,466.7L419.6,466.2L420.9,465.7L422.3,465.2L423.6,464.7L424.9,464.2L426.2,463.7L427.5,463.3L428.8,462.8L430.1,462.3L431.4,461.8L432.7,461.3L434,460.8L435.4,460.3L436.7,459.8L438,459.3L439.3,458.8L440.6,458.3L441.9,457.8L443.2,457.3L444.5,456.8L445.8,456.3L447.2,455.8L448.5,455.3L449.8,454.8L451.1,454.4L452.4,453.9L453.7,453.4L455,452.9L456.3,452.4L457.6,451.9L458.9,451.4L460.3,450.9L461.6,450.4L462.9,449.9L464.2,449.4L465.5,448.9L466.8,448.4L468.1,447.9L469.4,447.4L470.7,446.9L472.1,446.4L473.4,446L474.7,445.5L476,445L477.3,444.5L478.6,444L479.9,443.5L481.2,443L482.5,442.5L483.8,442L485.2,441.5L486.5,441L487.8,440.5L489.1,440L490.4,439.5L491.7,439L493,438.5L494.3,438L495.6,437.5L496.9,437.1L498.3,436.6L499.6,436.1L500.9,435.6L502.2,435.1L503.5,434.6L504.8,434.1L506.1,433.6L507.4,433.1L508.7,432.6L510.1,432.1L511.4,431.6L512.7,431.1L514,430.6L515.3,430.1L516.6,429.6L517.9,429.1L519.2,428.6L520.5,428.2L521.8,427.7L523.2,427.2L524.5,426.7L525.8,426.2L527.1,425.7L528.4,425.2L529.7,424.7L531,424.2L532.3,423.7L533.6,423.2L534.9,422.7L536.3,422.2L537.6,421.7L538.9,421.2L540.2,420.7L541.5,420.2L542.8,419.7L544.1,419.3L545.4,418.8L546.7,418.3L548.1,417.8L549.4,417.3L550.7,416.8L552,416.3L553.3,415.8L554.6,415.3L555.9,414.8L557.2,414.3L558.5,413.8L559.8,413.3L561.2,412.8L562.5,412.3L563.8,411.8L565.1,411.3L566.4,410.8L567.7,410.4L569,409.9L570.3,409.4L571.6,408.9L572.9,408.4L574.3,407.9L575.6,407.4L576.9,406.9L578.2,406.4L579.5,405.9L580.8,405.4L582.1,404.9L583.4,404.4L584.7,403.9L586.1,403.4L587.4,402.9L588.7,402.4L590,402L591.3,401.5L592.6,401L593.9,400.5L595.2,400L596.5,399.5L597.8,399L599.2,398.5L600.5,398L601.8,397.5L603.1,397L604.4,396.5L605.7,396L607,395.5L608.3,395L609.6,394.5L611,394L612.3,393.5L613.6,393.1L614.9,392.6L616.2,392.1L617.5,391.6L618.8,391.1L620.1,390.6L621.4,390.1L622.7,389.6L624.1,389.1L625.4,388.6L626.7,388.1L628,387.6L629.3,387.1L630.6,386.6L631.9,386.1L633.2,385.6L634.5,385.1L635.8,384.6L637.2,384.2L638.5,383.7L639.8,383.2L641.1,382.7L642.4,382.2L643.7,381.7L645,381.2L646.3,380.7L647.6,380.2L649,379.7L650.3,379.2L651.6,378.7L652.9,378.2L654.2,377.7L655.5,377.2L656.8,376.7L658.1,376.2L659.4,375.7L660.7,375.3L662.1,374.8L663.4,374.3L664.7,373.8L666,373.3L667.3,372.8L668.6,372.3L669.9,371.8L671.2,371.3L672.5,370.8L673.8,370.3L675.2,369.8L676.5,369.3L677.8,368.8L679.1,368.3L680.4,367.8L681.7,367.3L683,366.8L684.3,366.4L685.6,365.9L687,365.4L688.3,364.9L689.6,364.4L690.9,363.9L692.2,363.4L693.5,362.9L694.8,362.4L696.1,361.9L697.4,361.4L698.7,360.9L700.1,360.4L701.4,359.9L702.7,359.4L704,358.9L705.3,358.4L706.6,357.9L707.9,357.5L709.2,357L710.5,356.5L711.9,356L713.2,355.5L714.5,355L715.8,354.5" clip-path="url(#axisBounds-3)"></path><text style="font-size:11.8125px;opacity:0.9;text-anchor:end;fill:#999" clip-path="url(#axisBounds-3)"><textPath baseline-shift="-0.2rem" href="#path-3" startOffset="90%" style="fill:#ffffff;stroke:#ffffff;stroke-linecap:round;stroke-linejoin:round;stroke-width:.25em;user-select:none">Reduced by a half</textPath><textPath baseline-shift="-0.2rem" href="#path-3" startOffset="90%">Reduced by a half</textPath></text></g><g id="scatter-points" class="PointsWithLabels clickable" clip-path="url(#scatterBounds-4)"><rect x="61.900000000000006" y="106.8" width="655.192" height="404.5" fill="rgba(255,255,255,0)"></rect><defs><clipPath id="scatterBounds-4"><rect x="51.900000000000006" y="96.8" width="675.192" height="424.5"></rect></clipPath></defs><g id="scatter-point__key-United-States" class="key-United-States"><circle cx="385.00" cy="341.00" r="18.00" fill="#E56E5A" opacity="0.8" stroke="#333" stroke-width="0.5" style="transition:fill 250ms"></circle></g><g id="scatter-point__key-Pakistan" class="key-Pakistan"><circle cx="167.00" cy="435.00" r="15.28" fill="#00847E" opacity="0.8" stroke="#333" stroke-width="0.5" style="transition:fill 250ms"></circle></g><g id="scatter-point__key-Brazil" class="key-Brazil"><circle cx="520.00" cy="222.00" r="14.11" fill="#883039" opacity="0.8" stroke="#333" stroke-width="0.5" style="transition:fill 250ms"></circle></g><g id="scatter-point__key-Mexico" class="key-Mexico"><circle cx="333.00" cy="315.00" r="11.06" fill="#E56E5A" opacity="0.8" stroke="#666" stroke-width="0.5" style="transition:fill 250ms"></circle></g><g id="scatter-point__key-Ethiopia" class="key-Ethiopia"><circle cx="265.00" cy="371.00" r="11.02" fill="#A2559C" opacity="0.8" stroke="#333" stroke-width="0.5" style="transition:fill 250ms"></circle></g><g id="scatter-point__key-Japan" class="key-Japan"><circle cx="290.00" cy="399.00" r="10.83" fill="#00847E" opacity="0.8" stroke="#333" stroke-width="0.5" style="transition:fill 250ms"></circle></g><g id="scatter-point__key-Vietnam" class="key-Vietnam"><circle cx="278.00" cy="370.00" r="9.73" fill="#00847E" opacity="0.8" stroke="#666" stroke-width="0.5" style="transition:fill 250ms"></circle></g><g id="scatter-point__key-Turkey" class="key-Turkey"><circle cx="406.00" cy="334.00" r="9.07" fill="#00847E" opacity="0.8" stroke="#666" stroke-width="0.5" style="transition:fill 250ms"></circle></g><g id="scatter-point__key-Germany" class="key-Germany"><circle cx="305.00" cy="422.00" r="8.93" fill="#4C6A9C" opacity="0.8" stroke="#333" stroke-width="0.5" style="transition:fill 250ms"></circle></g><g id="scatter-point__key-Thailand" class="key-Thailand"><circle cx="278.00" cy="376.00" r="8.22" fill="#00847E" opacity="0.8" stroke="#666" stroke-width="0.5" style="transition:fill 250ms"></circle></g><g id="scatter-point__key-United-Kingdom" class="key-United-Kingdom"><circle cx="373.00" cy="371.00" r="8.05" fill="#4C6A9C" opacity="0.8" stroke="#333" stroke-width="0.5" style="transition:fill 250ms"></circle></g><g id="scatter-point__key-France" class="key-France"><circle cx="353.00" cy="424.00" r="7.92" fill="#4C6A9C" opacity="0.8" stroke="#666" stroke-width="0.5" style="transition:fill 250ms"></circle></g><g id="scatter-point__key-Italy" class="key-Italy"><circle cx="349.00" cy="397.00" r="7.49" fill="#4C6A9C" opacity="0.8" stroke="#333" stroke-width="0.5" style="transition:fill 250ms"></circle></g><g id="scatter-point__key-Colombia" class="key-Colombia"><circle cx="470.00" cy="234.00" r="7.03" fill="#883039" opacity="0.8" stroke="#666" stroke-width="0.5" style="transition:fill 250ms"></circle></g><g id="scatter-point__key-South-Korea" class="key-South-Korea"><circle cx="258.00" cy="407.00" r="6.99" fill="#00847E" opacity="0.8" stroke="#666" stroke-width="0.5" style="transition:fill 250ms"></circle></g><g id="scatter-point__key-Spain" class="key-Spain"><circle cx="340.00" cy="405.00" r="6.72" fill="#4C6A9C" opacity="0.8" stroke="#666" stroke-width="0.5" style="transition:fill 250ms"></circle></g><g id="scatter-point__key-Canada" class="key-Canada"><circle cx="304.00" cy="427.00" r="6.09" fill="#E56E5A" opacity="0.8" stroke="#666" stroke-width="0.5" style="transition:fill 250ms"></circle></g><g id="scatter-point__key-Poland" class="key-Poland"><circle cx="263.00" cy="454.00" r="6.05" fill="#4C6A9C" opacity="0.8" stroke="#333" stroke-width="0.5" style="transition:fill 250ms"></circle></g><g id="scatter-point__key-Morocco" class="key-Morocco"><circle cx="297.00" cy="349.00" r="5.96" fill="#A2559C" opacity="0.8" stroke="#666" stroke-width="0.5" style="transition:fill 250ms"></circle></g><g id="scatter-point__key-Malaysia" class="key-Malaysia"><circle cx="339.00" cy="323.00" r="5.76" fill="#00847E" opacity="0.8" stroke="#666" stroke-width="0.5" style="transition:fill 250ms"></circle></g><g id="scatter-point__key-Peru" class="key-Peru"><circle cx="341.00" cy="313.00" r="5.65" fill="#883039" opacity="0.8" stroke="#333" stroke-width="0.5" style="transition:fill 250ms"></circle></g><g id="scatter-point__key-Mozambique" class="key-Mozambique"><circle cx="440.00" cy="237.00" r="5.63" fill="#A2559C" opacity="0.8" stroke="#333" stroke-width="0.5" style="transition:fill 250ms"></circle></g><g id="scatter-point__key-Australia" class="key-Australia"><circle cx="303.00" cy="413.00" r="5.00" fill="#38AABA" opacity="0.8" stroke="#666" stroke-width="0.5" style="transition:fill 250ms"></circle></g><g id="scatter-point__key-Chile" class="key-Chile"><circle cx="395.00" cy="285.00" r="4.31" fill="#883039" opacity="0.8" stroke="#333" stroke-width="0.5" style="transition:fill 250ms"></circle></g><g id="scatter-point__key-Netherlands" class="key-Netherlands"><circle cx="303.00" cy="424.00" r="4.13" fill="#4C6A9C" opacity="0.8" stroke="#666" stroke-width="0.5" style="transition:fill 250ms"></circle></g><g id="scatter-point__key-Cambodia" class="key-Cambodia"><circle cx="209.00" cy="401.00" r="4.05" fill="#00847E" opacity="0.8" stroke="#333" stroke-width="0.5" style="transition:fill 250ms"></circle></g><g id="scatter-point__key-Belgium" class="key-Belgium"><circle cx="302.00" cy="466.00" r="3.32" fill="#4C6A9C" opacity="0.8" stroke="#666" stroke-width="0.5" style="transition:fill 250ms"></circle></g><g id="scatter-point__key-Jordan" class="key-Jordan"><circle cx="242.00" cy="390.00" r="3.28" fill="#00847E" opacity="0.8" stroke="#666" stroke-width="0.5" style="transition:fill 250ms"></circle></g><g id="scatter-point__key-Czechia" class="key-Czechia"><circle cx="224.00" cy="471.00" r="3.19" fill="#4C6A9C" opacity="0.8" stroke="#333" stroke-width="0.5" style="transition:fill 250ms"></circle></g><g id="scatter-point__key-Honduras" class="key-Honduras"><circle cx="413.00" cy="249.00" r="3.17" fill="#E56E5A" opacity="0.8" stroke="#666" stroke-width="0.5" style="transition:fill 250ms"></circle></g><g id="scatter-point__key-Sweden" class="key-Sweden"><circle cx="268.00" cy="440.00" r="3.15" fill="#4C6A9C" opacity="0.8" stroke="#666" stroke-width="0.5" style="transition:fill 250ms"></circle></g><g id="scatter-point__key-Portugal" class="key-Portugal"><circle cx="329.00" cy="415.00" r="3.14" fill="#4C6A9C" opacity="0.8" stroke="#666" stroke-width="0.5" style="transition:fill 250ms"></circle></g><g id="scatter-point__key-Greece" class="key-Greece"><circle cx="340.00" cy="404.00" r="3.11" fill="#4C6A9C" opacity="0.8" stroke="#666" stroke-width="0.5" style="transition:fill 250ms"></circle></g><g id="scatter-point__key-Hungary" class="key-Hungary"><circle cx="260.00" cy="434.00" r="3.02" fill="#4C6A9C" opacity="0.8" stroke="#666" stroke-width="0.5" style="transition:fill 250ms"></circle></g><g id="scatter-point__key-Israel" class="key-Israel"><circle cx="375.00" cy="390.00" r="2.95" fill="#00847E" opacity="0.8" stroke="#666" stroke-width="0.5" style="transition:fill 250ms"></circle></g><g id="scatter-point__key-Austria" class="key-Austria"><circle cx="331.00" cy="441.00" r="2.93" fill="#4C6A9C" opacity="0.8" stroke="#333" stroke-width="0.5" style="transition:fill 250ms"></circle></g><g id="scatter-point__key-Switzerland" class="key-Switzerland"><circle cx="257.00" cy="410.00" r="2.89" fill="#4C6A9C" opacity="0.8" stroke="#666" stroke-width="0.5" style="transition:fill 250ms"></circle></g><g id="scatter-point__key-Laos" class="key-Laos"><circle cx="310.00" cy="327.00" r="2.69" fill="#00847E" opacity="0.8" stroke="#666" stroke-width="0.5" style="transition:fill 250ms"></circle></g><g id="scatter-point__key-Bulgaria" class="key-Bulgaria"><circle cx="361.00" cy="322.00" r="2.53" fill="#4C6A9C" opacity="0.8" stroke="#666" stroke-width="0.5" style="transition:fill 250ms"></circle></g><g id="scatter-point__key-Denmark" class="key-Denmark"><circle cx="296.00" cy="451.00" r="2.37" fill="#4C6A9C" opacity="0.8" stroke="#666" stroke-width="0.5" style="transition:fill 250ms"></circle></g><g id="scatter-point__key-Finland" class="key-Finland"><circle cx="330.00" cy="445.00" r="2.30" fill="#4C6A9C" opacity="0.8" stroke="#666" stroke-width="0.5" style="transition:fill 250ms"></circle></g><g id="scatter-point__key-Norway" class="key-Norway"><circle cx="317.00" cy="424.00" r="2.28" fill="#4C6A9C" opacity="0.8" stroke="#666" stroke-width="0.5" style="transition:fill 250ms"></circle></g><g id="scatter-point__key-Slovakia" class="key-Slovakia"><circle cx="211.00" cy="498.00" r="2.28" fill="#4C6A9C" opacity="0.8" stroke="#333" stroke-width="0.5" style="transition:fill 250ms"></circle></g><g id="scatter-point__key-Ireland" class="key-Ireland"><circle cx="366.00" cy="432.00" r="2.21" fill="#4C6A9C" opacity="0.8" stroke="#666" stroke-width="0.5" style="transition:fill 250ms"></circle></g><g id="scatter-point__key-New-Zealand" class="key-New-Zealand"><circle cx="301.00" cy="412.00" r="2.21" fill="#38AABA" opacity="0.8" stroke="#666" stroke-width="0.5" style="transition:fill 250ms"></circle></g><g id="scatter-point__key-Costa-Rica" class="key-Costa-Rica"><circle cx="423.00" cy="279.00" r="2.19" fill="#E56E5A" opacity="0.8" stroke="#666" stroke-width="0.5" style="transition:fill 250ms"></circle></g><g id="scatter-point__key-Croatia" class="key-Croatia"><circle cx="252.00" cy="424.00" r="2.00" fill="#4C6A9C" opacity="0.8" stroke="#333" stroke-width="0.5" style="transition:fill 250ms"></circle></g><g id="scatter-point__key-Estonia" class="key-Estonia"><circle cx="289.00" cy="417.00" r="2.00" fill="#4C6A9C" opacity="0.8" stroke="#666" stroke-width="0.5" style="transition:fill 250ms"></circle></g><g id="scatter-point__key-Iceland" class="key-Iceland"><circle cx="201.00" cy="467.00" r="2.00" fill="#4C6A9C" opacity="0.8" stroke="#666" stroke-width="0.5" style="transition:fill 250ms"></circle></g><g id="scatter-point__key-Latvia" class="key-Latvia"><circle cx="317.00" cy="386.00" r="2.00" fill="#4C6A9C" opacity="0.8" stroke="#666" stroke-width="0.5" style="transition:fill 250ms"></circle></g><g id="scatter-point__key-Lithuania" class="key-Lithuania"><circle cx="340.00" cy="370.00" r="2.00" fill="#4C6A9C" opacity="0.8" stroke="#666" stroke-width="0.5" style="transition:fill 250ms"></circle></g><g id="scatter-point__key-Luxembourg" class="key-Luxembourg"><circle cx="283.00" cy="440.00" r="2.00" fill="#4C6A9C" opacity="0.8" stroke="#666" stroke-width="0.5" style="transition:fill 250ms"></circle></g><g id="scatter-point__key-Slovenia" class="key-Slovenia"><circle cx="254.00" cy="475.00" r="2.00" fill="#4C6A9C" opacity="0.8" stroke="#666" stroke-width="0.5" style="transition:fill 250ms"></circle></g><g class="backgroundLabels" fill="#333"><text id="scatter-label__United-States" x="385.00" y="322.00" font-size="16.09" font-weight="400" fill="#E56E5A" style="fill:#ffffff;stroke:#ffffff;stroke-linecap:round;stroke-linejoin:round;stroke-width:.25em;user-select:none">United States</text><text id="scatter-label__United-States" x="385.00" y="322.00" font-size="16.09" font-weight="400" fill="#E56E5A" style="pointer-events:none">United States</text><text id="scatter-label__Pakistan" x="167.00" y="418.72" font-size="15.53" font-weight="400" fill="#00847E" style="fill:#ffffff;stroke:#ffffff;stroke-linecap:round;stroke-linejoin:round;stroke-width:.25em;user-select:none">Pakistan</text><text id="scatter-label__Pakistan" x="167.00" y="418.72" font-size="15.53" font-weight="400" fill="#00847E" style="pointer-events:none">Pakistan</text><text id="scatter-label__Brazil" x="520.00" y="206.89" font-size="15.29" font-weight="400" fill="#883039" style="fill:#ffffff;stroke:#ffffff;stroke-linecap:round;stroke-linejoin:round;stroke-width:.25em;user-select:none">Brazil</text><text id="scatter-label__Brazil" x="520.00" y="206.89" font-size="15.29" font-weight="400" fill="#883039" style="pointer-events:none">Brazil</text><text id="scatter-label__Ethiopia" x="265.00" y="358.98" font-size="14.65" font-weight="400" fill="#A2559C" style="fill:#ffffff;stroke:#ffffff;stroke-linecap:round;stroke-linejoin:round;stroke-width:.25em;user-select:none">Ethiopia</text><text id="scatter-label__Ethiopia" x="265.00" y="358.98" font-size="14.65" font-weight="400" fill="#A2559C" style="pointer-events:none">Ethiopia</text><text id="scatter-label__Japan" x="290.00" y="387.17" font-size="14.61" font-weight="400" fill="#00847E" style="fill:#ffffff;stroke:#ffffff;stroke-linecap:round;stroke-linejoin:round;stroke-width:.25em;user-select:none">Japan</text><text id="scatter-label__Japan" x="290.00" y="387.17" font-size="14.61" font-weight="400" fill="#00847E" style="pointer-events:none">Japan</text><text id="scatter-label__Germany" x="305.00" y="412.07" font-size="14.22" font-weight="400" fill="#4C6A9C" style="fill:#ffffff;stroke:#ffffff;stroke-linecap:round;stroke-linejoin:round;stroke-width:.25em;user-select:none">Germany</text><text id="scatter-label__Germany" x="305.00" y="412.07" font-size="14.22" font-weight="400" fill="#4C6A9C" style="pointer-events:none">Germany</text><text id="scatter-label__United-Kingdom" x="373.00" y="361.95" font-size="14.04" font-weight="400" fill="#4C6A9C" style="fill:#ffffff;stroke:#ffffff;stroke-linecap:round;stroke-linejoin:round;stroke-width:.25em;user-select:none">United Kingdom</text><text id="scatter-label__United-Kingdom" x="373.00" y="361.95" font-size="14.04" font-weight="400" fill="#4C6A9C" style="pointer-events:none">United Kingdom</text><text id="scatter-label__Italy" x="349.00" y="388.51" font-size="13.92" font-weight="400" fill="#4C6A9C" style="fill:#ffffff;stroke:#ffffff;stroke-linecap:round;stroke-linejoin:round;stroke-width:.25em;user-select:none">Italy</text><text id="scatter-label__Italy" x="349.00" y="388.51" font-size="13.92" font-weight="400" fill="#4C6A9C" style="pointer-events:none">Italy</text><text id="scatter-label__Poland" x="263.00" y="446.95" font-size="13.62" font-weight="400" fill="#4C6A9C" style="fill:#ffffff;stroke:#ffffff;stroke-linecap:round;stroke-linejoin:round;stroke-width:.25em;user-select:none">Poland</text><text id="scatter-label__Poland" x="263.00" y="446.95" font-size="13.62" font-weight="400" fill="#4C6A9C" style="pointer-events:none">Poland</text><text id="scatter-label__Peru" x="341.00" y="306.35" font-size="13.54" font-weight="400" fill="#883039" style="fill:#ffffff;stroke:#ffffff;stroke-linecap:round;stroke-linejoin:round;stroke-width:.25em;user-select:none">Peru</text><text id="scatter-label__Peru" x="341.00" y="306.35" font-size="13.54" font-weight="400" fill="#883039" style="pointer-events:none">Peru</text><text id="scatter-label__Mozambique" x="440.00" y="230.37" font-size="13.54" font-weight="400" fill="#A2559C" style="fill:#ffffff;stroke:#ffffff;stroke-linecap:round;stroke-linejoin:round;stroke-width:.25em;user-select:none">Mozambique</text><text id="scatter-label__Mozambique" x="440.00" y="230.37" font-size="13.54" font-weight="400" fill="#A2559C" style="pointer-events:none">Mozambique</text><text id="scatter-label__Chile" x="395.00" y="279.69" font-size="13.26" font-weight="400" fill="#883039" style="fill:#ffffff;stroke:#ffffff;stroke-linecap:round;stroke-linejoin:round;stroke-width:.25em;user-select:none">Chile</text><text id="scatter-label__Chile" x="395.00" y="279.69" font-size="13.26" font-weight="400" fill="#883039" style="pointer-events:none">Chile</text><text id="scatter-label__Cambodia" x="209.00" y="395.95" font-size="13.21" font-weight="400" fill="#00847E" style="fill:#ffffff;stroke:#ffffff;stroke-linecap:round;stroke-linejoin:round;stroke-width:.25em;user-select:none">Cambodia</text><text id="scatter-label__Cambodia" x="209.00" y="395.95" font-size="13.21" font-weight="400" fill="#00847E" style="pointer-events:none">Cambodia</text><text id="scatter-label__Czechia" x="224.00" y="466.81" font-size="13.03" font-weight="400" fill="#4C6A9C" style="fill:#ffffff;stroke:#ffffff;stroke-linecap:round;stroke-linejoin:round;stroke-width:.25em;user-select:none">Czechia</text><text id="scatter-label__Czechia" x="224.00" y="466.81" font-size="13.03" font-weight="400" fill="#4C6A9C" style="pointer-events:none">Czechia</text><text id="scatter-label__Austria" x="331.00" y="437.07" font-size="12.98" font-weight="400" fill="#4C6A9C" style="fill:#ffffff;stroke:#ffffff;stroke-linecap:round;stroke-linejoin:round;stroke-width:.25em;user-select:none">Austria</text><text id="scatter-label__Austria" x="331.00" y="437.07" font-size="12.98" font-weight="400" fill="#4C6A9C" style="pointer-events:none">Austria</text><text id="scatter-label__Slovakia" x="211.00" y="494.72" font-size="12.85" font-weight="400" fill="#4C6A9C" style="fill:#ffffff;stroke:#ffffff;stroke-linecap:round;stroke-linejoin:round;stroke-width:.25em;user-select:none">Slovakia</text><text id="scatter-label__Slovakia" x="211.00" y="494.72" font-size="12.85" font-weight="400" fill="#4C6A9C" style="pointer-events:none">Slovakia</text><text id="scatter-label__Croatia" x="252.00" y="421.00" font-size="12.77" font-weight="400" fill="#4C6A9C" style="fill:#ffffff;stroke:#ffffff;stroke-linecap:round;stroke-linejoin:round;stroke-width:.25em;user-select:none">Croatia</text><text id="scatter-label__Croatia" x="252.00" y="421.00" font-size="12.77" font-weight="400" fill="#4C6A9C" style="pointer-events:none">Croatia</text></g></g><g id="vertical-color-legend" class="ScatterColorLegend clickable"><g id="labels"><text font-size="12.60" x="751.1" y="111.8"><tspan x="751.092" y="111.762">Africa</tspan></text><text font-size="12.60" x="751.1" y="129.4"><tspan x="751.092" y="129.362">Asia</tspan></text><text font-size="12.60" x="751.1" y="147.0"><tspan x="751.092" y="146.962">Europe</tspan></text><text font-size="12.60" x="751.1" y="164.6"><tspan x="751.092" y="164.56199999999998">North America</tspan></text><text font-size="12.60" x="751.1" y="182.2"><tspan x="751.092" y="182.16199999999998">Oceania</tspan></text><text font-size="12.60" x="751.1" y="199.8"><tspan x="751.092" y="199.762">South America</tspan></text></g><g><rect id="Africa" x="737.092" y="102.762" width="9" height="9" fill="#A2559C"></rect><rect id="Asia" x="737.092" y="120.362" width="9" height="9" fill="#00847E"></rect><rect id="Europe" x="737.092" y="137.962" width="9" height="9" fill="#4C6A9C"></rect><rect id="North-America" x="737.092" y="155.56199999999998" width="9" height="9" fill="#E56E5A"></rect><rect id="Oceania" x="737.092" y="173.16199999999998" width="9" height="9" fill="#38AABA"></rect><rect id="South-America" x="737.092" y="190.762" width="9" height="9" fill="#883039"></rect></g><g><g class="legendMark" style="cursor:pointer"><rect x="737.092" y="98.3" width="46.256" height="17.6" fill="#fff" fill-opacity="0"></rect></g><g class="legendMark" style="cursor:pointer"><rect x="737.092" y="115.9" width="38.57" height="17.6" fill="#fff" fill-opacity="0"></rect></g><g class="legendMark" style="cursor:pointer"><rect x="737.092" y="133.5" width="54.824" height="17.6" fill="#fff" fill-opacity="0"></rect></g><g class="legendMark" style="cursor:pointer"><rect x="737.092" y="151.1" width="94.64" height="17.6" fill="#fff" fill-opacity="0"></rect></g><g class="legendMark" style="cursor:pointer"><rect x="737.092" y="168.7" width="61.124" height="17.6" fill="#fff" fill-opacity="0"></rect></g><g class="legendMark" style="cursor:pointer"><rect x="737.092" y="186.3" width="96.908" height="17.6" fill="#fff" fill-opacity="0"></rect></g></g></g><line x1="737.092" y1="214.39999999999998" x2="834" y2="214.39999999999998" stroke="#e7e7e7"></line><g id="size-legend"><g><circle cx="785.5459999999999" cy="243.5777496434643" r="16.82225035653567" fill="none" stroke="#bbb" stroke-width="1.25" opacity="1"></circle><text x="785.5459999999999" y="226.75549928692863" dy=".47em" fill="#444" style="fill:#ffffff;stroke:#ffffff;stroke-linecap:round;stroke-linejoin:round;stroke-width:3.5;user-select:none;font-size:10.705562589133915px;font-weight:400;text-anchor:middle">300M</text><text x="785.5459999999999" y="226.75549928692863" dy=".47em" fill="#444" style="font-size:10.705562589133915px;font-weight:400;text-anchor:middle">300M</text></g><g><circle cx="785.5459999999999" cy="250.68766922827882" r="9.712330771721145" fill="none" stroke="#bbb" stroke-width="1.25" opacity="1"></circle><text x="785.5459999999999" y="240.97533845655767" dy=".47em" fill="#444" style="fill:#ffffff;stroke:#ffffff;stroke-linecap:round;stroke-linejoin:round;stroke-width:3.5;user-select:none;font-size:8.928082692930285px;font-weight:400;text-anchor:middle">100M</text><text x="785.5459999999999" y="240.97533845655767" dy=".47em" fill="#444" style="font-size:8.928082692930285px;font-weight:400;text-anchor:middle">100M</text></g><text font-size="11.25" x="785.5" y="273.2" fill="#858585" text-anchor="middle"><tspan x="785.5459999999999" y="273.1875">Circles sized by</tspan></text><text font-size="12.38" font-weight="700" x="785.5" y="287.4" fill="#5b5b5b" text-anchor="middle"><tspan x="785.5459999999999" y="287.41625">Population</tspan></text></g></g></g><g id="footer" class="SourcesFooter" style="fill:#5b5b5b"><g id="sources" class="markdown-text-wrap"><text x="16.0" y="580.9" style="font-size:13.5px;line-height:1.2"><tspan x="16" y="580.9"><tspan style="font-weight:700">Data source:</tspan> World Bank</tspan></text></g><text id="origin-url" font-size="13.50" x="537.9" y="580.9"><tspan x="537.9449999999999" y="580.895"><a target="_blank" style="fill: #5b5b5b;" href="https://ourworldindata.org/economic-inequality">OurWorldinData.org/economic-inequality</a> | <a target="_blank" style="fill: #5b5b5b;" href="https://creativecommons.org/licenses/by/4.0/">CC BY</a></tspan></text></g></svg>