<svg xmlns="http://www.w3.org/2000/svg" version="1.1" style="font-family:Lato, &#x27;Helvetica Neue&#x27;, Helvetica, Arial, &#x27;Liberation Sans&#x27;, sans-serif;font-size:18px;background-color:#ffffff;text-rendering:geometricPrecision;-webkit-font-smoothing:antialiased" width="850" height="600" viewBox="0 0 850 600"><defs><style>@import url(https://ourworldindata.org/fonts.css)</style></defs><defs><pattern id="noDataPattern" patternUnits="userSpaceOnUse" width="4" height="4" patternTransform="rotate(-45 2 2)"><path d="M -1,2 l 6,0" stroke="#ccc" stroke-width="0.7"></path></pattern></defs><rect class="background-fill" fill="#ffffff" width="850" height="600"></rect><g id="header" class="HeaderView"><g id="logo" transform="translate(769, 16) scale(1)"><svg className="owidLogo" xmlns="http://www.w3.org/2000/svg" width="65" height="36" viewBox="0 0 65 36"  fill="none"><path fill="#002147" d="M0 0h64.8v36H0z"/><path fill="#CE261E" d="M0 33.3h64.8V36H0z"/><path fill="#fff" d="M13.796 10.575c0 .636-.106 1.226-.318 1.77a4.193 4.193 0 0 1-.894 1.404 4.084 4.084 0 0 1-1.386.93c-.54.22-1.138.33-1.794.33-.656 0-1.256-.11-1.8-.33a4.149 4.149 0 0 1-1.392-.93 4.193 4.193 0 0 1-.894-1.404A4.833 4.833 0 0 1 5 10.575c0-.636.106-1.224.318-1.764a4.18 4.18 0 0 1 .894-1.41 4.076 4.076 0 0 1 1.392-.924 4.684 4.684 0 0 1 1.8-.336c.656 0 1.254.112 1.794.336.54.224 1.002.534 1.386.93.384.392.682.86.894 1.404.212.54.318 1.128.318 1.764Zm-1.656 0c0-.476-.064-.902-.192-1.278a2.671 2.671 0 0 0-.54-.966 2.332 2.332 0 0 0-.864-.606 2.94 2.94 0 0 0-1.14-.21c-.424 0-.806.07-1.146.21-.34.14-.63.342-.87.606a2.742 2.742 0 0 0-.546.966 3.955 3.955 0 0 0-.192 1.278c0 .476.064.904.192 1.284.128.376.31.696.546.96.24.26.53.46.87.6.34.14.722.21 1.146.21.424 0 .804-.07 1.14-.21.34-.14.628-.34.864-.6.236-.264.416-.584.54-.96a4.01 4.01 0 0 0 .192-1.284ZM16.104 8.757v3.912c0 .376.086.668.258.876.176.204.438.306.786.306.256 0 .496-.056.72-.168a2.58 2.58 0 0 0 .636-.474V8.757h1.482v6.156h-.906c-.192 0-.318-.09-.378-.27l-.102-.492a4.65 4.65 0 0 1-.396.354 2.577 2.577 0 0 1-.438.27 2.35 2.35 0 0 1-.498.168 2.345 2.345 0 0 1-.57.066c-.336 0-.634-.056-.894-.168a1.821 1.821 0 0 1-.648-.486 2.157 2.157 0 0 1-.402-.738 3.233 3.233 0 0 1-.132-.948V8.757h1.482ZM21.328 14.913V8.757h.87c.152 0 .258.028.318.084.06.056.1.152.12.288l.09.744c.22-.38.478-.68.774-.9.296-.22.628-.33.996-.33.304 0 .556.07.756.21l-.192 1.11c-.012.072-.038.124-.078.156a.278.278 0 0 1-.162.042 1.01 1.01 0 0 1-.246-.042 1.646 1.646 0 0 0-.414-.042c-.308 0-.572.086-.792.258-.22.168-.406.416-.558.744v3.834h-1.482ZM27.347 6.237h1.356a.57.57 0 0 1 .348.102c.096.064.16.152.192.264l1.476 5.19c.036.128.068.268.096.42.032.148.062.306.09.474a5.968 5.968 0 0 1 .228-.894l1.704-5.19a.575.575 0 0 1 .186-.252.543.543 0 0 1 .348-.114h.474a.57.57 0 0 1 .348.102.497.497 0 0 1 .192.264l1.692 5.19c.088.256.164.54.228.852.028-.156.056-.306.084-.45.032-.144.064-.278.096-.402l1.476-5.19c.028-.1.09-.186.186-.258a.563.563 0 0 1 .348-.108h1.266l-2.694 8.676h-1.458l-1.896-5.928-.078-.246a9.504 9.504 0 0 1-.072-.282c-.024.1-.05.194-.078.282-.024.088-.048.17-.072.246l-1.914 5.928H30.04l-2.694-8.676ZM42.771 8.661c.46 0 .876.074 1.248.222.376.148.696.358.96.63s.468.604.612.996c.144.392.216.83.216 1.314 0 .488-.072.928-.216 1.32a2.85 2.85 0 0 1-.612 1.002 2.653 2.653 0 0 1-.96.636 3.35 3.35 0 0 1-1.248.222c-.46 0-.878-.074-1.254-.222a2.712 2.712 0 0 1-.966-.636 2.922 2.922 0 0 1-.618-1.002 3.807 3.807 0 0 1-.216-1.32c0-.484.072-.922.216-1.314.148-.392.354-.724.618-.996.268-.272.59-.482.966-.63a3.397 3.397 0 0 1 1.254-.222Zm0 5.202c.512 0 .89-.172 1.134-.516.248-.344.372-.848.372-1.512s-.124-1.17-.372-1.518c-.244-.348-.622-.522-1.134-.522-.52 0-.904.176-1.152.528-.248.348-.372.852-.372 1.512s.124 1.164.372 1.512c.248.344.632.516 1.152.516ZM46.723 14.913V8.757h.87c.152 0 .258.028.318.084.06.056.1.152.12.288l.09.744c.22-.38.478-.68.774-.9.296-.22.628-.33.996-.33.304 0 .556.07.756.21l-.192 1.11c-.012.072-.038.124-.078.156a.278.278 0 0 1-.162.042 1.01 1.01 0 0 1-.246-.042 1.646 1.646 0 0 0-.414-.042c-.308 0-.572.086-.792.258-.22.168-.406.416-.558.744v3.834h-1.482ZM52.96 5.997v8.916h-1.482V5.997h1.482ZM58.732 14.913c-.192 0-.318-.09-.378-.27l-.12-.594a3.68 3.68 0 0 1-.402.39c-.14.116-.292.216-.456.3-.16.084-.334.148-.522.192a2.372 2.372 0 0 1-.6.072c-.336 0-.644-.07-.924-.21a2.098 2.098 0 0 1-.726-.606 3.033 3.033 0 0 1-.468-.99 5.072 5.072 0 0 1-.162-1.344c0-.456.062-.88.186-1.272s.302-.732.534-1.02c.232-.288.51-.512.834-.672a2.384 2.384 0 0 1 1.092-.246 2.103 2.103 0 0 1 1.536.606V5.997h1.482v8.916h-.906Zm-1.974-1.086c.308 0 .57-.064.786-.192.216-.128.42-.31.612-.546v-2.76a1.452 1.452 0 0 0-.552-.432 1.597 1.597 0 0 0-.636-.126c-.224 0-.428.042-.612.126a1.21 1.21 0 0 0-.462.384c-.124.168-.22.384-.288.648-.068.26-.102.568-.102.924 0 .36.028.666.084.918.06.248.144.452.252.612.108.156.24.27.396.342.156.068.33.102.522.102ZM16.331 20.757v6.156H14.85v-6.156h1.481Zm.223-1.794a.844.844 0 0 1-.078.36.963.963 0 0 1-.21.294.995.995 0 0 1-.3.204.963.963 0 0 1-.372.072.948.948 0 0 1-.367-.072 1.018 1.018 0 0 1-.498-.498.963.963 0 0 1 0-.732.995.995 0 0 1 .205-.3.929.929 0 0 1 .293-.198.899.899 0 0 1 .738 0 .912.912 0 0 1 .3.198.943.943 0 0 1 .288.672ZM17.771 26.913v-6.156h.906c.192 0 .318.09.378.27l.102.486a2.934 2.934 0 0 1 .828-.618c.156-.076.322-.134.498-.174.176-.04.368-.06.576-.06.336 0 .634.058.894.174.26.112.476.272.648.48.176.204.308.45.396.738.092.284.138.598.138.942v3.918h-1.482v-3.918c0-.376-.088-.666-.264-.87-.172-.208-.432-.312-.78-.312-.256 0-.496.058-.72.174a2.58 2.58 0 0 0-.636.474v4.452h-1.482ZM34.22 22.575c0 .636-.106 1.22-.318 1.752-.212.532-.51.99-.894 1.374a4 4 0 0 1-1.386.894 4.87 4.87 0 0 1-1.794.318h-3.312v-8.676h3.312a4.79 4.79 0 0 1 1.794.324 4 4 0 0 1 1.386.894c.384.38.682.836.894 1.368.212.532.318 1.116.318 1.752Zm-1.65 0c0-.476-.064-.902-.192-1.278a2.68 2.68 0 0 0-.546-.96 2.332 2.332 0 0 0-.864-.606 2.94 2.94 0 0 0-1.14-.21h-1.686v6.108h1.686c.424 0 .804-.07 1.14-.21.34-.14.628-.34.864-.6a2.75 2.75 0 0 0 .546-.96 4.01 4.01 0 0 0 .192-1.284ZM39.98 26.913h-.665c-.14 0-.25-.02-.33-.06-.08-.044-.14-.13-.18-.258l-.132-.438c-.156.14-.31.264-.462.372a2.804 2.804 0 0 1-.462.264c-.16.072-.33.126-.51.162-.18.036-.38.054-.6.054-.26 0-.5-.034-.72-.102a1.618 1.618 0 0 1-.57-.318 1.448 1.448 0 0 1-.366-.522 1.852 1.852 0 0 1-.132-.726c0-.232.06-.46.18-.684.124-.228.328-.432.612-.612.284-.184.662-.336 1.134-.456.472-.12 1.058-.188 1.758-.204v-.36c0-.412-.088-.716-.264-.912-.172-.2-.424-.3-.756-.3a1.837 1.837 0 0 0-1.02.276c-.116.068-.224.13-.324.186a.664.664 0 0 1-.33.084.429.429 0 0 1-.258-.078.614.614 0 0 1-.174-.192l-.27-.474c.708-.648 1.562-.972 2.562-.972.36 0 .68.06.96.18.284.116.524.28.72.492.196.208.344.458.444.75.104.292.156.612.156.96v3.888Zm-2.88-.924c.153 0 .293-.014.42-.042.129-.028.249-.07.36-.126.117-.056.227-.124.33-.204.109-.084.217-.182.325-.294v-1.038c-.432.02-.794.058-1.086.114-.288.052-.52.12-.696.204a.923.923 0 0 0-.378.294.664.664 0 0 0-.108.366c0 .26.076.446.228.558.156.112.358.168.606.168ZM43.22 27.01c-.532 0-.942-.15-1.23-.45-.288-.305-.432-.723-.432-1.255v-3.438h-.624a.31.31 0 0 1-.21-.078c-.056-.052-.084-.13-.084-.234v-.588l.99-.162.312-1.68a.302.302 0 0 1 .108-.186.365.365 0 0 1 .222-.066h.768v1.938h1.62v1.056h-1.62v3.336c0 .192.048.342.144.45a.488.488 0 0 0 .384.162c.092 0 .168-.01.228-.03.064-.024.118-.048.162-.072.048-.024.09-.046.126-.066a.194.194 0 0 1 .108-.036.16.16 0 0 1 .108.036c.028.02.058.052.09.096l.444.72c-.216.18-.464.316-.744.408a2.77 2.77 0 0 1-.87.138ZM50.423 26.913h-.666c-.14 0-.25-.02-.33-.06-.08-.044-.14-.13-.18-.258l-.132-.438c-.156.14-.31.264-.462.372a2.804 2.804 0 0 1-.462.264c-.16.072-.33.126-.51.162-.18.036-.38.054-.6.054-.26 0-.5-.034-.72-.102a1.618 1.618 0 0 1-.57-.318 1.448 1.448 0 0 1-.366-.522 1.852 1.852 0 0 1-.132-.726c0-.232.06-.46.18-.684.124-.228.328-.432.612-.612.284-.184.662-.336 1.134-.456.472-.12 1.058-.188 1.758-.204v-.36c0-.412-.088-.716-.264-.912-.172-.2-.424-.3-.756-.3a1.837 1.837 0 0 0-1.02.276c-.116.068-.224.13-.324.186a.664.664 0 0 1-.33.084.429.429 0 0 1-.258-.078.614.614 0 0 1-.174-.192l-.27-.474c.708-.648 1.562-.972 2.562-.972.36 0 .68.06.96.18.284.116.524.28.72.492.196.208.344.458.444.75.104.292.156.612.156.96v3.888Zm-2.88-.924c.152 0 .292-.014.42-.042.128-.028.248-.07.36-.126.116-.056.226-.124.33-.204.108-.084.216-.182.324-.294v-1.038c-.432.02-.794.058-1.086.114-.288.052-.52.12-.696.204a.923.923 0 0 0-.378.294.664.664 0 0 0-.108.366c0 .26.076.446.228.558.156.112.358.168.606.168Z"/></svg></g><a id="title" href="https://ourworldindata.org/grapher/military-personnel" style="font-family:&#x27;Playfair Display&#x27;, Georgia, &#x27;Times New Roman&#x27;, &#x27;Liberation Serif&#x27;, serif" target="_blank" rel="noopener"><text font-size="24.00" font-weight="600" x="16.0" y="39.3" fill="#5b5b5b"><tspan x="16" y="39.28">Military personnel</tspan></text></a><g id="subtitle" class="markdown-text-wrap"><text x="16.0" y="62.4" style="font-size:14px;line-height:1.2" fill="#5b5b5b"><tspan x="16" y="62.4">Number of troops under the command of the national government, intended for use against foreign adversaries, and</tspan><tspan x="16" y="79.2">held ready for combat as of 1 January of the given year.</tspan></text></g></g><g id="chart-area" style="pointer-events:none"><text x="42.389062499999994" y="109.36875" fill="#5b5b5b" font-size="14.625" style="font-weight:700">China<title>China</title></text><g class="LineChart"><defs><clipPath id="boundsClip-1"><rect x="32.389062499999994" y="106.68125" width="434.3890625" height="134"></rect></clipPath></defs><rect x="15.999999999999996" y="116.68125" width="414.3890625" height="114" fill-opacity="0"></rect><g id="horizontal-axis" class="HorizontalAxis"><g id="tick-marks"><line id="1816" x1="42.4" y1="212.2125" x2="42.4" y2="217.7125" stroke="#999" stroke-width="1"></line><line id="2016" x1="429.4" y1="212.2125" x2="429.4" y2="217.7125" stroke="#999" stroke-width="1"></line><line id="1850" x1="108.2" y1="212.2125" x2="108.2" y2="217.7125" stroke="#999" stroke-width="1"></line><line id="1900" x1="204.9" y1="212.2125" x2="204.9" y2="217.7125" stroke="#999" stroke-width="1"></line><line id="1950" x1="301.7" y1="212.2125" x2="301.7" y2="217.7125" stroke="#999" stroke-width="1"></line></g><g id="tick-labels"><text x="42.389062499999994" y="228.68125" fill="#5b5b5b" text-anchor="start" font-size="10.96875">1816</text><text x="429.3890625" y="228.68125" fill="#5b5b5b" text-anchor="end" font-size="10.96875">2016</text><text x="108.2" y="228.68125" fill="#5b5b5b" text-anchor="middle" font-size="10.96875">1850</text><text x="204.9" y="228.68125" fill="#5b5b5b" text-anchor="middle" font-size="10.96875">1900</text><text x="301.7" y="228.68125" fill="#5b5b5b" text-anchor="middle" font-size="10.96875">1950</text></g></g><g id="vertical-axis" class="VerticalAxis"><g id="tick-labels"><text x="37.39" y="212.7" dy=".32em" text-anchor="end" fill="#5b5b5b" font-size="10.96875">0</text><text x="37.39" y="176.7" dy=".32em" text-anchor="end" fill="#5b5b5b" font-size="10.96875">5M</text><text x="37.39" y="140.7" dy=".32em" text-anchor="end" fill="#5b5b5b" font-size="10.96875">10M</text></g></g><g id="horizontal-grid-lines" class="AxisGridLines horizontalLines"><line id="0" x1="42.39" y1="212.7" x2="429.39" y2="212.7" stroke="#999" stroke-width="1"></line><line id="5M" x1="42.39" y1="176.7" x2="429.39" y2="176.7" stroke="#ddd" stroke-width="1" stroke-dasharray="2,1"></line><line id="10M" x1="42.39" y1="140.7" x2="429.39" y2="140.7" stroke="#ddd" stroke-width="1" stroke-dasharray="2,1"></line></g><g clip-path="url(#boundsClip-1)"><g class="Lines"><rect x="42" y="123" width="387" height="90" fill="rgba(255,255,255,0)" opacity="0"></rect><path fill="none" stroke-linecap="butt" stroke-linejoin="round" stroke="#ffffff" id="outline__Military-personnel" stroke-width="2.5" d="M127.5 205.5L129.5 205.5L131.4 205.5L133.3 205.5L135.3 205.5L137.2 205.5L139.1 205.5L141.1 205.5L143 205.5L144.9 205.5L146.9 205.5L148.8 205.5L150.7 205.5L152.7 205.5L154.6 205.5L156.6 205.5L158.5 205.5L160.4 205.5L162.4 205.5L164.3 205.5L166.2 205.5L168.2 205.5L170.1 205.5L172 205.5L174 205.5L175.9 205.5L177.8 205.5L179.8 205.5L181.7 205.5L183.6 205.5L185.6 205.5L187.5 205.5L189.4 205.5L191.4 205.5L193.3 205.5L195.3 205.5L197.2 205.5L199.1 205.5L201.1 205.5L203 205.5L204.9 205.5L206.9 205.5L208.8 205.5L210.7 205.5L212.7 205.5L214.6 205.5L216.5 205.5L218.5 205.5L220.4 205.5L222.3 205.5L224.3 205.5L226.2 205.5L228.1 209.5L230.1 209.5L232 209.4L234 209.1L235.9 206.6L237.8 206.2L239.8 203.3L241.7 202.8L243.6 202.3L245.6 201.9L247.5 201.4L249.4 201L251.4 200.5L253.3 200.5L255.2 200.5L257.2 200.5L259.1 200.5L261 200.5L263 200.5L264.9 200.5L266.8 200.5L268.8 200.5L270.7 200.5L272.7 200.5L274.6 200.5L276.5 198.3L278.5 206.2L280.4 202L282.3 198L284.3 194.1L286.2 190.2L288.1 186.2L290.1 182.3L292 178.3L293.9 182.8L295.9 183.8L297.8 186.1L299.7 194.2L301.7 183.9L303.6 191.1L305.5 190.9L307.5 190.7L309.4 190.5L311.4 191.1L313.3 190.2L315.2 190L317.2 189.8L319.1 189.6L321 189.4L323 196.9L324.9 196.1L326.8 194.7L328.8 192.9L330.7 195.4L332.6 194L334.6 193.2L336.5 192.5L338.4 192.3L340.4 192.2L342.3 191.3L344.2 190.8L346.2 189.3L348.1 181.7L350.1 181.7L352 181.7L353.9 181.7L355.9 180.3L357.8 179.6L359.7 179.2L361.7 178.5L363.6 181.4L365.5 183.2L367.5 183.2L369.4 183.2L371.3 183.7L373.3 187.3L375.2 185.5L377.1 184.6L379.1 187.5L381 189.7L382.9 190L384.9 190.9L386.8 191.6L388.8 191.6L390.7 193.6L392.6 194L394.6 194L396.5 195.4L398.4 192.5L400.4 196.1L402.3 196.4L404.2 196.5L406.2 196.5L408.1 196.5L410 196.5L412 196.5L413.9 197.6L415.8 197L417.8 196.3L419.7 196.3L421.6 196.3L423.6 196.3L425.5 195.9L427.5 195.9L429.4 195.9"></path><path fill="none" stroke-linecap="butt" stroke-linejoin="round" stroke="#4c6a9c" id="line__Military-personnel" stroke-width="1.5" stroke-opacity="1" d="M127.5 205.5L129.5 205.5L131.4 205.5L133.3 205.5L135.3 205.5L137.2 205.5L139.1 205.5L141.1 205.5L143 205.5L144.9 205.5L146.9 205.5L148.8 205.5L150.7 205.5L152.7 205.5L154.6 205.5L156.6 205.5L158.5 205.5L160.4 205.5L162.4 205.5L164.3 205.5L166.2 205.5L168.2 205.5L170.1 205.5L172 205.5L174 205.5L175.9 205.5L177.8 205.5L179.8 205.5L181.7 205.5L183.6 205.5L185.6 205.5L187.5 205.5L189.4 205.5L191.4 205.5L193.3 205.5L195.3 205.5L197.2 205.5L199.1 205.5L201.1 205.5L203 205.5L204.9 205.5L206.9 205.5L208.8 205.5L210.7 205.5L212.7 205.5L214.6 205.5L216.5 205.5L218.5 205.5L220.4 205.5L222.3 205.5L224.3 205.5L226.2 205.5L228.1 209.5L230.1 209.5L232 209.4L234 209.1L235.9 206.6L237.8 206.2L239.8 203.3L241.7 202.8L243.6 202.3L245.6 201.9L247.5 201.4L249.4 201L251.4 200.5L253.3 200.5L255.2 200.5L257.2 200.5L259.1 200.5L261 200.5L263 200.5L264.9 200.5L266.8 200.5L268.8 200.5L270.7 200.5L272.7 200.5L274.6 200.5L276.5 198.3L278.5 206.2L280.4 202L282.3 198L284.3 194.1L286.2 190.2L288.1 186.2L290.1 182.3L292 178.3L293.9 182.8L295.9 183.8L297.8 186.1L299.7 194.2L301.7 183.9L303.6 191.1L305.5 190.9L307.5 190.7L309.4 190.5L311.4 191.1L313.3 190.2L315.2 190L317.2 189.8L319.1 189.6L321 189.4L323 196.9L324.9 196.1L326.8 194.7L328.8 192.9L330.7 195.4L332.6 194L334.6 193.2L336.5 192.5L338.4 192.3L340.4 192.2L342.3 191.3L344.2 190.8L346.2 189.3L348.1 181.7L350.1 181.7L352 181.7L353.9 181.7L355.9 180.3L357.8 179.6L359.7 179.2L361.7 178.5L363.6 181.4L365.5 183.2L367.5 183.2L369.4 183.2L371.3 183.7L373.3 187.3L375.2 185.5L377.1 184.6L379.1 187.5L381 189.7L382.9 190L384.9 190.9L386.8 191.6L388.8 191.6L390.7 193.6L392.6 194L394.6 194L396.5 195.4L398.4 192.5L400.4 196.1L402.3 196.4L404.2 196.5L406.2 196.5L408.1 196.5L410 196.5L412 196.5L413.9 197.6L415.8 197L417.8 196.3L419.7 196.3L421.6 196.3L423.6 196.3L425.5 195.9L427.5 195.9L429.4 195.9"></path></g></g></g><text x="445.3890625" y="109.36875" fill="#5b5b5b" font-size="14.625" style="font-weight:700">France<title>France</title></text><g class="LineChart"><defs><clipPath id="boundsClip-2"><rect x="435.3890625" y="106.68125" width="408" height="134"></rect></clipPath></defs><rect x="445.3890625" y="116.68125" width="388" height="114" fill-opacity="0"></rect><g id="horizontal-axis" class="HorizontalAxis"><g id="tick-marks"><line id="1816" x1="445.4" y1="212.2125" x2="445.4" y2="217.7125" stroke="#999" stroke-width="1"></line><line id="2016" x1="832.4" y1="212.2125" x2="832.4" y2="217.7125" stroke="#999" stroke-width="1"></line><line id="1850" x1="511.2" y1="212.2125" x2="511.2" y2="217.7125" stroke="#999" stroke-width="1"></line><line id="1900" x1="607.9" y1="212.2125" x2="607.9" y2="217.7125" stroke="#999" stroke-width="1"></line><line id="1950" x1="704.7" y1="212.2125" x2="704.7" y2="217.7125" stroke="#999" stroke-width="1"></line></g><g id="tick-labels"><text x="445.3890625" y="228.68125" fill="#5b5b5b" text-anchor="start" font-size="10.96875">1816</text><text x="832.3890625" y="228.68125" fill="#5b5b5b" text-anchor="end" font-size="10.96875">2016</text><text x="511.2" y="228.68125" fill="#5b5b5b" text-anchor="middle" font-size="10.96875">1850</text><text x="607.9" y="228.68125" fill="#5b5b5b" text-anchor="middle" font-size="10.96875">1900</text><text x="704.7" y="228.68125" fill="#5b5b5b" text-anchor="middle" font-size="10.96875">1950</text></g></g><g id="horizontal-grid-lines" class="AxisGridLines horizontalLines"><line id="0" x1="445.39" y1="212.7" x2="832.39" y2="212.7" stroke="#999" stroke-width="1"></line><line id="5M" x1="445.39" y1="176.7" x2="832.39" y2="176.7" stroke="#ddd" stroke-width="1" stroke-dasharray="2,1"></line><line id="10M" x1="445.39" y1="140.7" x2="832.39" y2="140.7" stroke="#ddd" stroke-width="1" stroke-dasharray="2,1"></line></g><g clip-path="url(#boundsClip-2)"><g class="Lines"><rect x="445" y="123" width="387" height="90" fill="rgba(255,255,255,0)" opacity="0"></rect><path fill="none" stroke-linecap="butt" stroke-linejoin="round" stroke="#ffffff" id="outline__Military-personnel" stroke-width="2.5" d="M445.4 211.8L447.3 211.8L449.3 211.7L451.2 211.4L453.1 211.2L455.1 211.3L457 211L458.9 210.9L460.9 211L462.8 211L464.7 211L466.7 211L468.6 210.9L470.5 210.8L472.5 210.8L474.4 210L476.3 210.5L478.3 210.6L480.2 210.8L482.2 210.6L484.1 210.6L486 210.5L488 210.5L489.9 210.6L491.8 209.5L493.8 209.2L495.7 209.6L497.6 209.9L499.6 210.1L501.5 210.1L503.4 209.9L505.4 209.9L507.3 209.9L509.2 209.4L511.2 209.6L513.1 209.8L515 209.9L517 209.7L518.9 209.5L520.9 208.1L522.8 208.1L524.7 208.9L526.7 209.6L528.6 209.4L530.5 208.3L532.5 208.9L534.4 209L536.3 209.2L538.3 209.2L540.2 209.3L542.1 209.4L544.1 209.4L546 209.2L547.9 209.3L549.9 209.5L551.8 205.5L553.7 209.2L555.7 208.9L557.6 209.3L559.6 209.2L561.5 209.1L563.4 208.9L565.4 208.8L567.3 208.9L569.2 208.8L571.2 208.5L573.1 208.5L575 209L577 208.9L578.9 209L580.8 208.9L582.8 209L584.7 208.6L586.6 208.5L588.6 208.4L590.5 208.4L592.4 208.3L594.4 208.3L596.3 208.5L598.3 208.5L600.2 208.3L602.1 208.2L604.1 208L606 208L607.9 208.2L609.9 208.4L611.8 208.3L613.7 208.3L615.7 208.4L617.6 208.2L619.5 208.1L621.5 208.3L623.4 208.3L625.3 208.1L627.3 208L629.2 208.1L631.1 208.1L633.1 208.2L635 207L637 176.7L638.9 174.8L640.8 175.7L642.8 174.7L644.7 195.7L646.6 202.2L648.6 208.8L650.5 208.8L652.4 209L654.4 209.3L656.3 209.3L658.2 209.3L660.2 209.2L662.1 209.3L664 209.8L666 209.8L667.9 209.5L669.8 209.7L671.8 209.5L673.7 209.4L675.7 208.8L677.6 208.5L679.5 208.3L681.5 208.5L683.4 208.5L685.3 176.7L687.3 210L693.1 208.5L695 208.5L696.9 208.5L698.9 208.5L700.8 208.6L702.7 208.5L704.7 208.4L706.6 208.2L708.5 208L710.5 207.7L712.4 207.3L714.4 206.9L716.3 206.5L718.2 206.1L720.2 205.8L722.1 205.6L724 205.3L726 207.5L727.9 207.6L729.8 207.4L731.8 207.7L733.7 208.5L735.6 208.5L737.6 208.4L739.5 208.6L741.4 208.6L743.4 208.6L745.3 208.6L747.2 208.7L749.2 208.5L751.1 208.5L753.1 208.5L755 208.5L756.9 208.5L758.9 208.5L760.8 208.5L762.7 208.6L764.7 208.6L766.6 208.5L768.5 208.5L770.5 208.6L772.4 208.7L774.3 208.7L776.3 208.7L778.2 208.7L780.1 208.7L782.1 208.7L784 208.7L785.9 208.8L787.9 209.1L789.8 209.1L791.8 209.1L793.7 209.1L795.6 209.3L797.6 209.5L799.5 209.7L801.4 210.6L803.4 210.7L805.3 210.8L807.2 210.8L809.2 210.9L811.1 210.9L813 210.9L815 210.9L816.9 210.9L818.8 210.2L820.8 210.2L822.7 211L824.6 211L826.6 211.1L828.5 211.1L830.5 211.2L832.4 211.2"></path><path fill="none" stroke-linecap="butt" stroke-linejoin="round" stroke="#4c6a9c" id="line__Military-personnel" stroke-width="1.5" stroke-opacity="1" d="M445.4 211.8L447.3 211.8L449.3 211.7L451.2 211.4L453.1 211.2L455.1 211.3L457 211L458.9 210.9L460.9 211L462.8 211L464.7 211L466.7 211L468.6 210.9L470.5 210.8L472.5 210.8L474.4 210L476.3 210.5L478.3 210.6L480.2 210.8L482.2 210.6L484.1 210.6L486 210.5L488 210.5L489.9 210.6L491.8 209.5L493.8 209.2L495.7 209.6L497.6 209.9L499.6 210.1L501.5 210.1L503.4 209.9L505.4 209.9L507.3 209.9L509.2 209.4L511.2 209.6L513.1 209.8L515 209.9L517 209.7L518.9 209.5L520.9 208.1L522.8 208.1L524.7 208.9L526.7 209.6L528.6 209.4L530.5 208.3L532.5 208.9L534.4 209L536.3 209.2L538.3 209.2L540.2 209.3L542.1 209.4L544.1 209.4L546 209.2L547.9 209.3L549.9 209.5L551.8 205.5L553.7 209.2L555.7 208.9L557.6 209.3L559.6 209.2L561.5 209.1L563.4 208.9L565.4 208.8L567.3 208.9L569.2 208.8L571.2 208.5L573.1 208.5L575 209L577 208.9L578.9 209L580.8 208.9L582.8 209L584.7 208.6L586.6 208.5L588.6 208.4L590.5 208.4L592.4 208.3L594.4 208.3L596.3 208.5L598.3 208.5L600.2 208.3L602.1 208.2L604.1 208L606 208L607.9 208.2L609.9 208.4L611.8 208.3L613.7 208.3L615.7 208.4L617.6 208.2L619.5 208.1L621.5 208.3L623.4 208.3L625.3 208.1L627.3 208L629.2 208.1L631.1 208.1L633.1 208.2L635 207L637 176.7L638.9 174.8L640.8 175.7L642.8 174.7L644.7 195.7L646.6 202.2L648.6 208.8L650.5 208.8L652.4 209L654.4 209.3L656.3 209.3L658.2 209.3L660.2 209.2L662.1 209.3L664 209.8L666 209.8L667.9 209.5L669.8 209.7L671.8 209.5L673.7 209.4L675.7 208.8L677.6 208.5L679.5 208.3L681.5 208.5L683.4 208.5L685.3 176.7L687.3 210L693.1 208.5L695 208.5L696.9 208.5L698.9 208.5L700.8 208.6L702.7 208.5L704.7 208.4L706.6 208.2L708.5 208L710.5 207.7L712.4 207.3L714.4 206.9L716.3 206.5L718.2 206.1L720.2 205.8L722.1 205.6L724 205.3L726 207.5L727.9 207.6L729.8 207.4L731.8 207.7L733.7 208.5L735.6 208.5L737.6 208.4L739.5 208.6L741.4 208.6L743.4 208.6L745.3 208.6L747.2 208.7L749.2 208.5L751.1 208.5L753.1 208.5L755 208.5L756.9 208.5L758.9 208.5L760.8 208.5L762.7 208.6L764.7 208.6L766.6 208.5L768.5 208.5L770.5 208.6L772.4 208.7L774.3 208.7L776.3 208.7L778.2 208.7L780.1 208.7L782.1 208.7L784 208.7L785.9 208.8L787.9 209.1L789.8 209.1L791.8 209.1L793.7 209.1L795.6 209.3L797.6 209.5L799.5 209.7L801.4 210.6L803.4 210.7L805.3 210.8L807.2 210.8L809.2 210.9L811.1 210.9L813 210.9L815 210.9L816.9 210.9L818.8 210.2L820.8 210.2L822.7 211L824.6 211L826.6 211.1L828.5 211.1L830.5 211.2L832.4 211.2"></path></g></g></g><text x="42.389062499999994" y="260.36875" fill="#5b5b5b" font-size="14.625" style="font-weight:700">Japan<title>Japan</title></text><g class="LineChart"><defs><clipPath id="boundsClip-3"><rect x="32.389062499999994" y="257.68125" width="434.3890625" height="134"></rect></clipPath></defs><rect x="15.999999999999996" y="267.68125" width="414.3890625" height="114" fill-opacity="0"></rect><g id="horizontal-axis" class="HorizontalAxis"><g id="tick-marks"><line id="1816" x1="42.4" y1="363.2125" x2="42.4" y2="368.7125" stroke="#999" stroke-width="1"></line><line id="2016" x1="429.4" y1="363.2125" x2="429.4" y2="368.7125" stroke="#999" stroke-width="1"></line><line id="1850" x1="108.2" y1="363.2125" x2="108.2" y2="368.7125" stroke="#999" stroke-width="1"></line><line id="1900" x1="204.9" y1="363.2125" x2="204.9" y2="368.7125" stroke="#999" stroke-width="1"></line><line id="1950" x1="301.7" y1="363.2125" x2="301.7" y2="368.7125" stroke="#999" stroke-width="1"></line></g><g id="tick-labels"><text x="42.389062499999994" y="379.68125" fill="#5b5b5b" text-anchor="start" font-size="10.96875">1816</text><text x="429.3890625" y="379.68125" fill="#5b5b5b" text-anchor="end" font-size="10.96875">2016</text><text x="108.2" y="379.68125" fill="#5b5b5b" text-anchor="middle" font-size="10.96875">1850</text><text x="204.9" y="379.68125" fill="#5b5b5b" text-anchor="middle" font-size="10.96875">1900</text><text x="301.7" y="379.68125" fill="#5b5b5b" text-anchor="middle" font-size="10.96875">1950</text></g></g><g id="vertical-axis" class="VerticalAxis"><g id="tick-labels"><text x="37.39" y="363.7" dy=".32em" text-anchor="end" fill="#5b5b5b" font-size="10.96875">0</text><text x="37.39" y="327.7" dy=".32em" text-anchor="end" fill="#5b5b5b" font-size="10.96875">5M</text><text x="37.39" y="291.7" dy=".32em" text-anchor="end" fill="#5b5b5b" font-size="10.96875">10M</text></g></g><g id="horizontal-grid-lines" class="AxisGridLines horizontalLines"><line id="0" x1="42.39" y1="363.7" x2="429.39" y2="363.7" stroke="#999" stroke-width="1"></line><line id="5M" x1="42.39" y1="327.7" x2="429.39" y2="327.7" stroke="#ddd" stroke-width="1" stroke-dasharray="2,1"></line><line id="10M" x1="42.39" y1="291.7" x2="429.39" y2="291.7" stroke="#ddd" stroke-width="1" stroke-dasharray="2,1"></line></g><g clip-path="url(#boundsClip-3)"><g class="Lines"><rect x="42" y="274" width="387" height="90" fill="rgba(255,255,255,0)" opacity="0"></rect><path fill="none" stroke-linecap="butt" stroke-linejoin="round" stroke="#ffffff" id="outline__Military-personnel" stroke-width="2.5" d="M127.5 363.6L129.5 363.6L131.4 363.6L133.3 363.7L135.3 363.7L137.2 363.7L139.1 363.7L141.1 363.7L143 363.7L144.9 363.7L146.9 363.7L148.8 363.6L150.7 363.6L152.7 363.4L154.6 363.4L156.6 363.4L158.5 363.4L160.4 363.4L162.4 363.4L164.3 363.4L166.2 363.4L168.2 363.4L170.1 363.4L172 363.4L174 363.4L175.9 363.3L177.8 363.3L179.8 363.3L181.7 363.3L183.6 363.2L185.6 363.2L187.5 363.1L189.4 363.1L191.4 363.2L193.3 363.1L195.3 362.2L197.2 363L199.1 362.8L201.1 362.6L203 362.7L204.9 362.4L206.9 362.2L208.8 362.2L210.7 362.2L212.7 362.1L214.6 361.9L216.5 361.8L218.5 361.8L220.4 361.7L222.3 361.7L224.3 361.7L226.2 361.7L228.1 361.7L230.1 361.6L232 361.6L234 359L235.9 359L237.8 359L239.8 359L241.7 361.5L243.6 361.5L245.6 361.5L247.5 361.5L249.4 361.5L251.4 361.5L253.3 361.5L255.2 361.5L257.2 361.7L259.1 361.7L261 361.6L263 361.6L264.9 361.6L266.8 361L268.8 361L270.7 360.8L272.7 360.8L274.6 360.7L276.5 360.9L278.5 361L280.4 356.8L282.3 356.8L284.3 341.6L286.2 341.6L288.1 341.6L290.1 332.6L292 319.8L305.5 362.9L307.5 362.8L309.4 362.5L311.4 362.3L313.3 362.2L315.2 362.1L317.2 362L319.1 361.9L321 361.8L323 362.1L324.9 362L326.8 362L328.8 362L330.7 361.9L332.6 362.1L334.6 362L336.5 362L338.4 362L340.4 362L342.3 362L344.2 362L346.2 362L348.1 362L350.1 362L352 362L353.9 362L355.9 362L357.8 362L359.7 362L361.7 362L363.6 362L365.5 362L367.5 362L369.4 362L371.3 361.9L373.3 362L375.2 361.9L377.1 361.9L379.1 361.9L381 361.9L382.9 362L384.9 362L386.8 362L388.8 362L390.7 361.9L392.6 361.9L394.6 361.9L396.5 362L398.4 362L400.4 362L402.3 362L404.2 362L406.2 362L408.1 362L410 361.8L412 362L413.9 362L415.8 362.1L417.8 362.1L419.7 361.9L421.6 361.9L423.6 361.9L425.5 361.9L427.5 361.9L429.4 361.9"></path><path fill="none" stroke-linecap="butt" stroke-linejoin="round" stroke="#4c6a9c" id="line__Military-personnel" stroke-width="1.5" stroke-opacity="1" d="M127.5 363.6L129.5 363.6L131.4 363.6L133.3 363.7L135.3 363.7L137.2 363.7L139.1 363.7L141.1 363.7L143 363.7L144.9 363.7L146.9 363.7L148.8 363.6L150.7 363.6L152.7 363.4L154.6 363.4L156.6 363.4L158.5 363.4L160.4 363.4L162.4 363.4L164.3 363.4L166.2 363.4L168.2 363.4L170.1 363.4L172 363.4L174 363.4L175.9 363.3L177.8 363.3L179.8 363.3L181.7 363.3L183.6 363.2L185.6 363.2L187.5 363.1L189.4 363.1L191.4 363.2L193.3 363.1L195.3 362.2L197.2 363L199.1 362.8L201.1 362.6L203 362.7L204.9 362.4L206.9 362.2L208.8 362.2L210.7 362.2L212.7 362.1L214.6 361.9L216.5 361.8L218.5 361.8L220.4 361.7L222.3 361.7L224.3 361.7L226.2 361.7L228.1 361.7L230.1 361.6L232 361.6L234 359L235.9 359L237.8 359L239.8 359L241.7 361.5L243.6 361.5L245.6 361.5L247.5 361.5L249.4 361.5L251.4 361.5L253.3 361.5L255.2 361.5L257.2 361.7L259.1 361.7L261 361.6L263 361.6L264.9 361.6L266.8 361L268.8 361L270.7 360.8L272.7 360.8L274.6 360.7L276.5 360.9L278.5 361L280.4 356.8L282.3 356.8L284.3 341.6L286.2 341.6L288.1 341.6L290.1 332.6L292 319.8L305.5 362.9L307.5 362.8L309.4 362.5L311.4 362.3L313.3 362.2L315.2 362.1L317.2 362L319.1 361.9L321 361.8L323 362.1L324.9 362L326.8 362L328.8 362L330.7 361.9L332.6 362.1L334.6 362L336.5 362L338.4 362L340.4 362L342.3 362L344.2 362L346.2 362L348.1 362L350.1 362L352 362L353.9 362L355.9 362L357.8 362L359.7 362L361.7 362L363.6 362L365.5 362L367.5 362L369.4 362L371.3 361.9L373.3 362L375.2 361.9L377.1 361.9L379.1 361.9L381 361.9L382.9 362L384.9 362L386.8 362L388.8 362L390.7 361.9L392.6 361.9L394.6 361.9L396.5 362L398.4 362L400.4 362L402.3 362L404.2 362L406.2 362L408.1 362L410 361.8L412 362L413.9 362L415.8 362.1L417.8 362.1L419.7 361.9L421.6 361.9L423.6 361.9L425.5 361.9L427.5 361.9L429.4 361.9"></path></g></g></g><text x="445.3890625" y="260.36875" fill="#5b5b5b" font-size="14.625" style="font-weight:700">Russia<title>Russia</title></text><g class="LineChart"><defs><clipPath id="boundsClip-4"><rect x="435.3890625" y="257.68125" width="408" height="134"></rect></clipPath></defs><rect x="445.3890625" y="267.68125" width="388" height="114" fill-opacity="0"></rect><g id="horizontal-axis" class="HorizontalAxis"><g id="tick-marks"><line id="1816" x1="445.4" y1="363.2125" x2="445.4" y2="368.7125" stroke="#999" stroke-width="1"></line><line id="2016" x1="832.4" y1="363.2125" x2="832.4" y2="368.7125" stroke="#999" stroke-width="1"></line><line id="1850" x1="511.2" y1="363.2125" x2="511.2" y2="368.7125" stroke="#999" stroke-width="1"></line><line id="1900" x1="607.9" y1="363.2125" x2="607.9" y2="368.7125" stroke="#999" stroke-width="1"></line><line id="1950" x1="704.7" y1="363.2125" x2="704.7" y2="368.7125" stroke="#999" stroke-width="1"></line></g><g id="tick-labels"><text x="445.3890625" y="379.68125" fill="#5b5b5b" text-anchor="start" font-size="10.96875">1816</text><text x="832.3890625" y="379.68125" fill="#5b5b5b" text-anchor="end" font-size="10.96875">2016</text><text x="511.2" y="379.68125" fill="#5b5b5b" text-anchor="middle" font-size="10.96875">1850</text><text x="607.9" y="379.68125" fill="#5b5b5b" text-anchor="middle" font-size="10.96875">1900</text><text x="704.7" y="379.68125" fill="#5b5b5b" text-anchor="middle" font-size="10.96875">1950</text></g></g><g id="horizontal-grid-lines" class="AxisGridLines horizontalLines"><line id="0" x1="445.39" y1="363.7" x2="832.39" y2="363.7" stroke="#999" stroke-width="1"></line><line id="5M" x1="445.39" y1="327.7" x2="832.39" y2="327.7" stroke="#ddd" stroke-width="1" stroke-dasharray="2,1"></line><line id="10M" x1="445.39" y1="291.7" x2="832.39" y2="291.7" stroke="#ddd" stroke-width="1" stroke-dasharray="2,1"></line></g><g clip-path="url(#boundsClip-4)"><g class="Lines"><rect x="445" y="274" width="387" height="90" fill="rgba(255,255,255,0)" opacity="0"></rect><path fill="none" stroke-linecap="butt" stroke-linejoin="round" stroke="#ffffff" id="outline__Military-personnel" stroke-width="2.5" d="M445.4 358L447.3 358.7L449.3 359.4L451.2 359.4L453.1 358.2L455.1 356.9L457 356.5L458.9 358.8L460.9 356.3L462.8 357.5L464.7 359.5L466.7 358.9L468.6 359.2L470.5 357.9L472.5 357.8L474.4 357.6L476.3 357.4L478.3 357.2L480.2 358.1L482.2 358.9L484.1 356.4L486 359.6L488 359.6L489.9 359.6L491.8 359.2L493.8 358.8L495.7 358.4L497.6 358L499.6 358.3L501.5 358.6L503.4 358.8L505.4 357.9L507.3 359.9L509.2 358.7L511.2 357.4L513.1 359.7L515 358.3L517 358.2L518.9 355.8L520.9 352.5L522.8 349.3L524.7 356.4L526.7 357.4L528.6 357.6L530.5 357.5L532.5 357.5L534.4 358.8L536.3 357.9L538.3 355.5L540.2 358.5L542.1 358.7L544.1 359.2L546 358.9L547.9 358.6L549.9 358.4L551.8 358.2L553.7 357.8L555.7 357.8L557.6 357.7L559.6 357.7L561.5 357.5L563.4 357.7L565.4 355L567.3 357.6L569.2 357.2L571.2 357.2L573.1 357.2L575 357.9L577 357.9L578.9 357.9L580.8 357.8L582.8 357.7L584.7 357.2L586.6 357.6L588.6 357.6L590.5 357.4L592.4 357.3L594.4 357.3L596.3 357.1L598.3 357L600.2 357L602.1 357L604.1 357L606 357L607.9 355.5L609.9 355.5L611.8 355.4L613.7 355.4L615.7 355.4L617.6 346.7L619.5 354.8L621.5 354.8L623.4 353.8L625.3 353.4L627.3 353.8L629.2 353.4L631.1 353.4L633.1 354.5L635 354.2L637 324.1L638.9 285.2L640.8 298.5L644.7 352.5L646.6 341.7L648.6 324.1L650.5 337.8L652.4 348.6L654.4 359.7L656.3 359.7L658.2 359.7L660.2 359.7L662.1 359.7L664 359.7L666 359.7L667.9 359.7L669.8 359.7L671.8 357.3L673.7 356.9L675.7 354.3L677.6 354.3L679.5 353.4L681.5 352.4L683.4 350.8L685.3 333.5L687.3 333.4L689.2 328.2L691.1 326.9L693.1 319.8L695 273.7L696.9 345.7L698.9 344.3L700.8 342.8L702.7 337.8L704.7 332.7L706.6 327.7L708.5 321.9L710.5 321.9L712.4 321.9L714.4 321.9L716.3 327L718.2 331.3L720.2 335.6L722.1 337.8L724 337.8L726 342.1L727.9 342.1L729.8 341.3L731.8 341.3L733.7 343.7L735.6 336.3L737.6 335.6L739.5 334.2L741.4 333.5L743.4 332.7L745.3 335.6L747.2 334.9L749.2 334.9L751.1 334.2L753.1 334.2L755 333.5L756.9 335.6L758.9 335.6L760.8 335.6L762.7 335.6L764.7 335.6L766.6 335.6L768.5 335.6L770.5 335.6L772.4 335.6L774.3 335.6L776.3 335.6L778.2 335.6L780.1 337.1L782.1 339.2L784 342.1L785.9 350L787.9 352.9L789.8 353.6L791.8 353.6L793.7 354.3L795.6 354.3L797.6 356.5L799.5 357.2L801.4 356.5L803.4 356.7L805.3 356.6L807.2 356.8L809.2 356.5L811.1 356.2L813 356.3L815 356.3L816.9 356.3L818.8 356.3L820.8 356.3L822.7 356.2L824.6 356.8L826.6 357.6L828.5 357.6L830.5 358.2L832.4 358"></path><path fill="none" stroke-linecap="butt" stroke-linejoin="round" stroke="#4c6a9c" id="line__Military-personnel" stroke-width="1.5" stroke-opacity="1" d="M445.4 358L447.3 358.7L449.3 359.4L451.2 359.4L453.1 358.2L455.1 356.9L457 356.5L458.9 358.8L460.9 356.3L462.8 357.5L464.7 359.5L466.7 358.9L468.6 359.2L470.5 357.9L472.5 357.8L474.4 357.6L476.3 357.4L478.3 357.2L480.2 358.1L482.2 358.9L484.1 356.4L486 359.6L488 359.6L489.9 359.6L491.8 359.2L493.8 358.8L495.7 358.4L497.6 358L499.6 358.3L501.5 358.6L503.4 358.8L505.4 357.9L507.3 359.9L509.2 358.7L511.2 357.4L513.1 359.7L515 358.3L517 358.2L518.9 355.8L520.9 352.5L522.8 349.3L524.7 356.4L526.7 357.4L528.6 357.6L530.5 357.5L532.5 357.5L534.4 358.8L536.3 357.9L538.3 355.5L540.2 358.5L542.1 358.7L544.1 359.2L546 358.9L547.9 358.6L549.9 358.4L551.8 358.2L553.7 357.8L555.7 357.8L557.6 357.7L559.6 357.7L561.5 357.5L563.4 357.7L565.4 355L567.3 357.6L569.2 357.2L571.2 357.2L573.1 357.2L575 357.9L577 357.9L578.9 357.9L580.8 357.8L582.8 357.7L584.7 357.2L586.6 357.6L588.6 357.6L590.5 357.4L592.4 357.3L594.4 357.3L596.3 357.1L598.3 357L600.2 357L602.1 357L604.1 357L606 357L607.9 355.5L609.9 355.5L611.8 355.4L613.7 355.4L615.7 355.4L617.6 346.7L619.5 354.8L621.5 354.8L623.4 353.8L625.3 353.4L627.3 353.8L629.2 353.4L631.1 353.4L633.1 354.5L635 354.2L637 324.1L638.9 285.2L640.8 298.5L644.7 352.5L646.6 341.7L648.6 324.1L650.5 337.8L652.4 348.6L654.4 359.7L656.3 359.7L658.2 359.7L660.2 359.7L662.1 359.7L664 359.7L666 359.7L667.9 359.7L669.8 359.7L671.8 357.3L673.7 356.9L675.7 354.3L677.6 354.3L679.5 353.4L681.5 352.4L683.4 350.8L685.3 333.5L687.3 333.4L689.2 328.2L691.1 326.9L693.1 319.8L695 273.7L696.9 345.7L698.9 344.3L700.8 342.8L702.7 337.8L704.7 332.7L706.6 327.7L708.5 321.9L710.5 321.9L712.4 321.9L714.4 321.9L716.3 327L718.2 331.3L720.2 335.6L722.1 337.8L724 337.8L726 342.1L727.9 342.1L729.8 341.3L731.8 341.3L733.7 343.7L735.6 336.3L737.6 335.6L739.5 334.2L741.4 333.5L743.4 332.7L745.3 335.6L747.2 334.9L749.2 334.9L751.1 334.2L753.1 334.2L755 333.5L756.9 335.6L758.9 335.6L760.8 335.6L762.7 335.6L764.7 335.6L766.6 335.6L768.5 335.6L770.5 335.6L772.4 335.6L774.3 335.6L776.3 335.6L778.2 335.6L780.1 337.1L782.1 339.2L784 342.1L785.9 350L787.9 352.9L789.8 353.6L791.8 353.6L793.7 354.3L795.6 354.3L797.6 356.5L799.5 357.2L801.4 356.5L803.4 356.7L805.3 356.6L807.2 356.8L809.2 356.5L811.1 356.2L813 356.3L815 356.3L816.9 356.3L818.8 356.3L820.8 356.3L822.7 356.2L824.6 356.8L826.6 357.6L828.5 357.6L830.5 358.2L832.4 358"></path></g></g></g><text x="42.389062499999994" y="411.36875" fill="#5b5b5b" font-size="14.625" style="font-weight:700">United Kingdom<title>United Kingdom</title></text><g class="LineChart"><defs><clipPath id="boundsClip-5"><rect x="32.389062499999994" y="408.68125" width="434.3890625" height="134"></rect></clipPath></defs><rect x="15.999999999999996" y="418.68125" width="414.3890625" height="114" fill-opacity="0"></rect><g id="horizontal-axis" class="HorizontalAxis"><g id="tick-marks"><line id="1816" x1="42.4" y1="514.2125" x2="42.4" y2="519.7125" stroke="#999" stroke-width="1"></line><line id="2016" x1="429.4" y1="514.2125" x2="429.4" y2="519.7125" stroke="#999" stroke-width="1"></line><line id="1850" x1="108.2" y1="514.2125" x2="108.2" y2="519.7125" stroke="#999" stroke-width="1"></line><line id="1900" x1="204.9" y1="514.2125" x2="204.9" y2="519.7125" stroke="#999" stroke-width="1"></line><line id="1950" x1="301.7" y1="514.2125" x2="301.7" y2="519.7125" stroke="#999" stroke-width="1"></line></g><g id="tick-labels"><text x="42.389062499999994" y="530.68125" fill="#5b5b5b" text-anchor="start" font-size="10.96875">1816</text><text x="429.3890625" y="530.68125" fill="#5b5b5b" text-anchor="end" font-size="10.96875">2016</text><text x="108.2" y="530.68125" fill="#5b5b5b" text-anchor="middle" font-size="10.96875">1850</text><text x="204.9" y="530.68125" fill="#5b5b5b" text-anchor="middle" font-size="10.96875">1900</text><text x="301.7" y="530.68125" fill="#5b5b5b" text-anchor="middle" font-size="10.96875">1950</text></g></g><g id="vertical-axis" class="VerticalAxis"><g id="tick-labels"><text x="37.39" y="514.7" dy=".32em" text-anchor="end" fill="#5b5b5b" font-size="10.96875">0</text><text x="37.39" y="478.7" dy=".32em" text-anchor="end" fill="#5b5b5b" font-size="10.96875">5M</text><text x="37.39" y="442.7" dy=".32em" text-anchor="end" fill="#5b5b5b" font-size="10.96875">10M</text></g></g><g id="horizontal-grid-lines" class="AxisGridLines horizontalLines"><line id="0" x1="42.39" y1="514.7" x2="429.39" y2="514.7" stroke="#999" stroke-width="1"></line><line id="5M" x1="42.39" y1="478.7" x2="429.39" y2="478.7" stroke="#ddd" stroke-width="1" stroke-dasharray="2,1"></line><line id="10M" x1="42.39" y1="442.7" x2="429.39" y2="442.7" stroke="#ddd" stroke-width="1" stroke-dasharray="2,1"></line></g><g clip-path="url(#boundsClip-5)"><g class="Lines"><rect x="42" y="425" width="387" height="90" fill="rgba(255,255,255,0)" opacity="0"></rect><path fill="none" stroke-linecap="butt" stroke-linejoin="round" stroke="#ffffff" id="outline__Military-personnel" stroke-width="2.5" d="M42.4 512.9L44.3 513.3L46.3 513.5L48.2 513.7L50.1 513.7L52.1 513.7L54 513.8L55.9 513.8L57.9 513.8L59.8 513.8L61.7 513.6L63.7 513.6L65.6 513.6L67.5 513.6L69.5 513.7L71.4 513.6L73.3 513.7L75.3 513.7L77.2 513.7L79.2 513.7L81.1 513.7L83 513.7L85 513.6L86.9 513.6L88.8 513.5L90.8 513.5L92.7 513.4L94.6 513.6L96.6 513.4L98.5 513.4L100.4 513.3L102.4 513.3L104.3 513.2L106.2 513.3L108.2 513.3L110.1 513.3L112 513.3L114 513.2L115.9 513L117.9 512.3L119.8 512L121.7 512.8L123.7 512.6L125.6 512.4L127.5 512.2L129.5 512.4L131.4 512.5L133.3 512.5L135.3 512.6L137.2 512.6L139.1 512.7L141.1 512.7L143 512.7L144.9 512.8L146.9 512.9L148.8 513L150.7 512.9L152.7 512.9L154.6 512.9L156.6 512.9L158.5 513L160.4 512.9L162.4 512.8L164.3 512.8L166.2 512.9L168.2 512.9L170.1 512.9L172 513L174 513L175.9 512.9L177.8 512.8L179.8 512.7L181.7 512.7L183.6 512.7L185.6 512.7L187.5 512.7L189.4 512.6L191.4 512.6L193.3 512.5L195.3 512.5L197.2 512.4L199.1 512.4L201.1 512.3L203 512.3L204.9 511.2L206.9 511L208.8 511.2L210.7 511.7L212.7 511.8L214.6 511.9L216.5 511.9L218.5 512.1L220.4 512.1L222.3 512L224.3 512L226.2 512L228.1 510.9L230.1 510.9L232 510.9L234 483.4L237.8 482.8L239.8 484.3L241.7 505.1L243.6 510.4L245.6 511.5L247.5 512.1L249.4 512.3L251.4 512.3L253.3 512.2L255.2 512.3L257.2 512.3L259.1 512.3L261 512.4L263 512.4L264.9 512.4L266.8 512.4L268.8 512.4L270.7 512.4L272.7 512.4L274.6 512.3L276.5 512.2L278.5 512L280.4 511.9L282.3 507.4L284.3 498.1L286.2 490.3L288.1 484.9L290.1 479.4L292 478.1L293.9 499.9L295.9 505.3L297.8 508.6L299.7 509.2L301.7 509.7L303.6 508.8L305.5 508.4L307.5 508.5L309.4 508.7L311.4 508.9L313.3 509.2L315.2 509.7L317.2 510.3L319.1 510.6L321 511L323 511.3L324.9 511.3L326.8 511.5L328.8 511.6L330.7 511.7L332.6 511.7L334.6 511.7L336.5 511.8L338.4 511.9L340.4 511.9L342.3 512L344.2 512L346.2 512L348.1 512.1L350.1 512.2L352 512.3L353.9 512.4L355.9 512.4L357.8 512.4L359.7 512.3L361.7 512.3L363.6 512.3L365.5 512.3L367.5 512.3L369.4 512.3L371.3 512.3L373.3 512.4L375.2 512.4L377.1 512.4L379.1 512.5L381 512.5L382.9 512.6L384.9 512.8L386.8 512.9L388.8 513L390.7 513.1L392.6 513.1L394.6 513.1L396.5 513.1L398.4 513.2L400.4 513.2L402.3 513.2L404.2 513.2L406.2 513.2L408.1 513.2L410 513.1L412 513.3L413.9 513.4L415.8 513.6L417.8 513.5L419.7 513.4L421.6 513.5L423.6 513.5L425.5 513.5L427.5 513.6L429.4 513.6"></path><path fill="none" stroke-linecap="butt" stroke-linejoin="round" stroke="#4c6a9c" id="line__Military-personnel" stroke-width="1.5" stroke-opacity="1" d="M42.4 512.9L44.3 513.3L46.3 513.5L48.2 513.7L50.1 513.7L52.1 513.7L54 513.8L55.9 513.8L57.9 513.8L59.8 513.8L61.7 513.6L63.7 513.6L65.6 513.6L67.5 513.6L69.5 513.7L71.4 513.6L73.3 513.7L75.3 513.7L77.2 513.7L79.2 513.7L81.1 513.7L83 513.7L85 513.6L86.9 513.6L88.8 513.5L90.8 513.5L92.7 513.4L94.6 513.6L96.6 513.4L98.5 513.4L100.4 513.3L102.4 513.3L104.3 513.2L106.2 513.3L108.2 513.3L110.1 513.3L112 513.3L114 513.2L115.9 513L117.9 512.3L119.8 512L121.7 512.8L123.7 512.6L125.6 512.4L127.5 512.2L129.5 512.4L131.4 512.5L133.3 512.5L135.3 512.6L137.2 512.6L139.1 512.7L141.1 512.7L143 512.7L144.9 512.8L146.9 512.9L148.8 513L150.7 512.9L152.7 512.9L154.6 512.9L156.6 512.9L158.5 513L160.4 512.9L162.4 512.8L164.3 512.8L166.2 512.9L168.2 512.9L170.1 512.9L172 513L174 513L175.9 512.9L177.8 512.8L179.8 512.7L181.7 512.7L183.6 512.7L185.6 512.7L187.5 512.7L189.4 512.6L191.4 512.6L193.3 512.5L195.3 512.5L197.2 512.4L199.1 512.4L201.1 512.3L203 512.3L204.9 511.2L206.9 511L208.8 511.2L210.7 511.7L212.7 511.8L214.6 511.9L216.5 511.9L218.5 512.1L220.4 512.1L222.3 512L224.3 512L226.2 512L228.1 510.9L230.1 510.9L232 510.9L234 483.4L237.8 482.8L239.8 484.3L241.7 505.1L243.6 510.4L245.6 511.5L247.5 512.1L249.4 512.3L251.4 512.3L253.3 512.2L255.2 512.3L257.2 512.3L259.1 512.3L261 512.4L263 512.4L264.9 512.4L266.8 512.4L268.8 512.4L270.7 512.4L272.7 512.4L274.6 512.3L276.5 512.2L278.5 512L280.4 511.9L282.3 507.4L284.3 498.1L286.2 490.3L288.1 484.9L290.1 479.4L292 478.1L293.9 499.9L295.9 505.3L297.8 508.6L299.7 509.2L301.7 509.7L303.6 508.8L305.5 508.4L307.5 508.5L309.4 508.7L311.4 508.9L313.3 509.2L315.2 509.7L317.2 510.3L319.1 510.6L321 511L323 511.3L324.9 511.3L326.8 511.5L328.8 511.6L330.7 511.7L332.6 511.7L334.6 511.7L336.5 511.8L338.4 511.9L340.4 511.9L342.3 512L344.2 512L346.2 512L348.1 512.1L350.1 512.2L352 512.3L353.9 512.4L355.9 512.4L357.8 512.4L359.7 512.3L361.7 512.3L363.6 512.3L365.5 512.3L367.5 512.3L369.4 512.3L371.3 512.3L373.3 512.4L375.2 512.4L377.1 512.4L379.1 512.5L381 512.5L382.9 512.6L384.9 512.8L386.8 512.9L388.8 513L390.7 513.1L392.6 513.1L394.6 513.1L396.5 513.1L398.4 513.2L400.4 513.2L402.3 513.2L404.2 513.2L406.2 513.2L408.1 513.2L410 513.1L412 513.3L413.9 513.4L415.8 513.6L417.8 513.5L419.7 513.4L421.6 513.5L423.6 513.5L425.5 513.5L427.5 513.6L429.4 513.6"></path></g></g></g><text x="445.3890625" y="411.36875" fill="#5b5b5b" font-size="14.625" style="font-weight:700">United States<title>United States</title></text><g class="LineChart"><defs><clipPath id="boundsClip-6"><rect x="435.3890625" y="408.68125" width="408" height="134"></rect></clipPath></defs><rect x="445.3890625" y="418.68125" width="388" height="114" fill-opacity="0"></rect><g id="horizontal-axis" class="HorizontalAxis"><g id="tick-marks"><line id="1816" x1="445.4" y1="514.2125" x2="445.4" y2="519.7125" stroke="#999" stroke-width="1"></line><line id="2016" x1="832.4" y1="514.2125" x2="832.4" y2="519.7125" stroke="#999" stroke-width="1"></line><line id="1850" x1="511.2" y1="514.2125" x2="511.2" y2="519.7125" stroke="#999" stroke-width="1"></line><line id="1900" x1="607.9" y1="514.2125" x2="607.9" y2="519.7125" stroke="#999" stroke-width="1"></line><line id="1950" x1="704.7" y1="514.2125" x2="704.7" y2="519.7125" stroke="#999" stroke-width="1"></line></g><g id="tick-labels"><text x="445.3890625" y="530.68125" fill="#5b5b5b" text-anchor="start" font-size="10.96875">1816</text><text x="832.3890625" y="530.68125" fill="#5b5b5b" text-anchor="end" font-size="10.96875">2016</text><text x="511.2" y="530.68125" fill="#5b5b5b" text-anchor="middle" font-size="10.96875">1850</text><text x="607.9" y="530.68125" fill="#5b5b5b" text-anchor="middle" font-size="10.96875">1900</text><text x="704.7" y="530.68125" fill="#5b5b5b" text-anchor="middle" font-size="10.96875">1950</text></g></g><g id="horizontal-grid-lines" class="AxisGridLines horizontalLines"><line id="0" x1="445.39" y1="514.7" x2="832.39" y2="514.7" stroke="#999" stroke-width="1"></line><line id="5M" x1="445.39" y1="478.7" x2="832.39" y2="478.7" stroke="#ddd" stroke-width="1" stroke-dasharray="2,1"></line><line id="10M" x1="445.39" y1="442.7" x2="832.39" y2="442.7" stroke="#ddd" stroke-width="1" stroke-dasharray="2,1"></line></g><g clip-path="url(#boundsClip-6)"><g class="Lines"><rect x="445" y="425" width="387" height="90" fill="rgba(255,255,255,0)" opacity="0"></rect><path fill="none" stroke-linecap="butt" stroke-linejoin="round" stroke="#ffffff" id="outline__Military-personnel" stroke-width="2.5" d="M445.4 514.6L447.3 514.6L449.3 514.6L451.2 514.6L453.1 514.6L455.1 514.6L457 514.6L458.9 514.6L460.9 514.6L462.8 514.6L464.7 514.6L466.7 514.6L468.6 514.6L470.5 514.6L472.5 514.6L474.4 514.6L476.3 514.6L478.3 514.6L480.2 514.6L482.2 514.6L484.1 514.6L486 514.6L488 514.6L489.9 514.6L491.8 514.6L493.8 514.6L495.7 514.5L497.6 514.6L499.6 514.6L501.5 514.6L503.4 514.4L505.4 514.3L507.3 514.3L509.2 514.5L511.2 514.6L513.1 514.6L515 514.6L517 514.6L518.9 514.6L520.9 514.5L522.8 514.5L524.7 514.5L526.7 514.5L528.6 514.5L530.5 514.5L532.5 513.1L534.4 509.9L536.3 507.8L538.3 507.3L540.2 507.1L542.1 514.2L544.1 514.2L546 514.2L547.9 514.3L549.9 514.4L551.8 514.4L553.7 514.4L555.7 514.4L557.6 514.4L559.6 514.4L561.5 514.4L563.4 514.5L565.4 514.5L567.3 514.4L569.2 514.4L571.2 514.4L573.1 514.4L575 514.4L577 514.4L578.9 514.4L580.8 514.4L582.8 514.4L584.7 514.4L586.6 514.4L588.6 514.4L590.5 514.4L592.4 514.4L594.4 514.4L596.3 514.4L598.3 514.4L600.2 514.4L602.1 514.4L604.1 513L606 514L607.9 513.8L609.9 513.9L611.8 513.9L613.7 513.9L615.7 513.9L617.6 513.9L619.5 513.9L621.5 513.9L623.4 513.8L625.3 513.7L627.3 513.7L629.2 513.7L631.1 513.6L633.1 513.6L635 513.5L637 513.5L638.9 513.4L640.8 510.1L642.8 493.8L644.7 506.3L646.6 512.2L648.6 511.9L650.5 512.8L652.4 512.9L654.4 512.8L656.3 512.9L658.2 512.9L660.2 512.9L662.1 512.9L664 512.9L666 512.9L667.9 512.9L669.8 512.9L671.8 513L673.7 512.9L675.7 512.9L677.6 512.6L679.5 512.5L681.5 512.4L683.4 512.3L685.3 511.4L687.3 501.7L689.2 486.9L691.1 449.6L693.1 432.2L695 427.4L696.9 492.9L698.9 503.3L700.8 504.3L702.7 503.1L704.7 504.2L706.6 491.3L708.5 488.5L710.5 489.1L712.4 490.9L714.4 493.6L716.3 494.5L718.2 494.6L720.2 497.3L722.1 497.9L724 498.1L726 498.1L727.9 494.5L729.8 495.3L731.8 495.4L733.7 495.6L735.6 492.5L737.6 490.4L739.5 489.1L741.4 489.8L743.4 492.6L745.3 495.1L747.2 498L749.2 498.8L751.1 499.3L753.1 499.6L755 499.8L756.9 499.9L758.9 499.9L760.8 500.1L762.7 499.9L764.7 499.6L766.6 499.1L768.5 498.9L770.5 498.7L772.4 498.6L774.3 498.4L776.3 498.3L778.2 498.5L780.1 498.6L782.1 499L784 499.5L785.9 500.9L787.9 501.7L789.8 502.4L791.8 503L793.7 503.4L795.6 503.7L797.6 503.8L799.5 504L801.4 504.9L803.4 504.9L805.3 504.5L807.2 504.4L809.2 504.3L811.1 504.1L813 503.6L815 503.9L816.9 503.9L818.8 503.6L820.8 503.3L822.7 503.4L824.6 503.4L826.6 503.8L828.5 504L830.5 504.4L832.4 504.8"></path><path fill="none" stroke-linecap="butt" stroke-linejoin="round" stroke="#4c6a9c" id="line__Military-personnel" stroke-width="1.5" stroke-opacity="1" d="M445.4 514.6L447.3 514.6L449.3 514.6L451.2 514.6L453.1 514.6L455.1 514.6L457 514.6L458.9 514.6L460.9 514.6L462.8 514.6L464.7 514.6L466.7 514.6L468.6 514.6L470.5 514.6L472.5 514.6L474.4 514.6L476.3 514.6L478.3 514.6L480.2 514.6L482.2 514.6L484.1 514.6L486 514.6L488 514.6L489.9 514.6L491.8 514.6L493.8 514.6L495.7 514.5L497.6 514.6L499.6 514.6L501.5 514.6L503.4 514.4L505.4 514.3L507.3 514.3L509.2 514.5L511.2 514.6L513.1 514.6L515 514.6L517 514.6L518.9 514.6L520.9 514.5L522.8 514.5L524.7 514.5L526.7 514.5L528.6 514.5L530.5 514.5L532.5 513.1L534.4 509.9L536.3 507.8L538.3 507.3L540.2 507.1L542.1 514.2L544.1 514.2L546 514.2L547.9 514.3L549.9 514.4L551.8 514.4L553.7 514.4L555.7 514.4L557.6 514.4L559.6 514.4L561.5 514.4L563.4 514.5L565.4 514.5L567.3 514.4L569.2 514.4L571.2 514.4L573.1 514.4L575 514.4L577 514.4L578.9 514.4L580.8 514.4L582.8 514.4L584.7 514.4L586.6 514.4L588.6 514.4L590.5 514.4L592.4 514.4L594.4 514.4L596.3 514.4L598.3 514.4L600.2 514.4L602.1 514.4L604.1 513L606 514L607.9 513.8L609.9 513.9L611.8 513.9L613.7 513.9L615.7 513.9L617.6 513.9L619.5 513.9L621.5 513.9L623.4 513.8L625.3 513.7L627.3 513.7L629.2 513.7L631.1 513.6L633.1 513.6L635 513.5L637 513.5L638.9 513.4L640.8 510.1L642.8 493.8L644.7 506.3L646.6 512.2L648.6 511.9L650.5 512.8L652.4 512.9L654.4 512.8L656.3 512.9L658.2 512.9L660.2 512.9L662.1 512.9L664 512.9L666 512.9L667.9 512.9L669.8 512.9L671.8 513L673.7 512.9L675.7 512.9L677.6 512.6L679.5 512.5L681.5 512.4L683.4 512.3L685.3 511.4L687.3 501.7L689.2 486.9L691.1 449.6L693.1 432.2L695 427.4L696.9 492.9L698.9 503.3L700.8 504.3L702.7 503.1L704.7 504.2L706.6 491.3L708.5 488.5L710.5 489.1L712.4 490.9L714.4 493.6L716.3 494.5L718.2 494.6L720.2 497.3L722.1 497.9L724 498.1L726 498.1L727.9 494.5L729.8 495.3L731.8 495.4L733.7 495.6L735.6 492.5L737.6 490.4L739.5 489.1L741.4 489.8L743.4 492.6L745.3 495.1L747.2 498L749.2 498.8L751.1 499.3L753.1 499.6L755 499.8L756.9 499.9L758.9 499.9L760.8 500.1L762.7 499.9L764.7 499.6L766.6 499.1L768.5 498.9L770.5 498.7L772.4 498.6L774.3 498.4L776.3 498.3L778.2 498.5L780.1 498.6L782.1 499L784 499.5L785.9 500.9L787.9 501.7L789.8 502.4L791.8 503L793.7 503.4L795.6 503.7L797.6 503.8L799.5 504L801.4 504.9L803.4 504.9L805.3 504.5L807.2 504.4L809.2 504.3L811.1 504.1L813 503.6L815 503.9L816.9 503.9L818.8 503.6L820.8 503.3L822.7 503.4L824.6 503.4L826.6 503.8L828.5 504L830.5 504.4L832.4 504.8"></path></g></g></g></g><g id="footer" class="SourcesFooter" style="fill:#5b5b5b"><g id="sources" class="markdown-text-wrap"><text x="16.0" y="563.4" style="font-size:13px;line-height:1.2"><tspan x="16" y="563.4"><tspan style="font-weight:700">Data source:</tspan> Correlates of War - National Material Capabilities Version 6.0 (2021)</tspan></text></g><text id="origin-url" font-size="13.00" x="16.0" y="581.0"><tspan x="16" y="581.01"><a target="_blank" style="fill: #5b5b5b;" href="https://ourworldindata.org/military-personnel-spending">OurWorldinData.org/military-personnel-spending</a> | <a target="_blank" style="fill: #5b5b5b;" href="https://ourworldindata.org">Powered by ourworldindata.org</a></tspan></text></g></svg>