<svg xmlns="http://www.w3.org/2000/svg" version="1.1" style="font-family:Lato, &#x27;Helvetica Neue&#x27;, Helvetica, Arial, &#x27;Liberation Sans&#x27;, sans-serif;font-size:18px;background-color:#ffffff;text-rendering:geometricPrecision;-webkit-font-smoothing:antialiased" width="850" height="600" viewBox="0 0 850 600"><defs><style>@import url(https://ourworldindata.org/fonts.css)</style></defs><defs><pattern id="noDataPattern" patternUnits="userSpaceOnUse" width="4" height="4" patternTransform="rotate(-45 2 2)"><path d="M -1,2 l 6,0" stroke="#ccc" stroke-width="0.7"></path></pattern></defs><rect class="background-fill" fill="#ffffff" width="850" height="600"></rect><g id="header" class="HeaderView"><g id="logo" transform="translate(769, 16) scale(1)"><svg className="owidLogo" xmlns="http://www.w3.org/2000/svg" width="65" height="36" viewBox="0 0 65 36"  fill="none"><path fill="#002147" d="M0 0h64.8v36H0z"/><path fill="#CE261E" d="M0 33.3h64.8V36H0z"/><path fill="#fff" d="M13.796 10.575c0 .636-.106 1.226-.318 1.77a4.193 4.193 0 0 1-.894 1.404 4.084 4.084 0 0 1-1.386.93c-.54.22-1.138.33-1.794.33-.656 0-1.256-.11-1.8-.33a4.149 4.149 0 0 1-1.392-.93 4.193 4.193 0 0 1-.894-1.404A4.833 4.833 0 0 1 5 10.575c0-.636.106-1.224.318-1.764a4.18 4.18 0 0 1 .894-1.41 4.076 4.076 0 0 1 1.392-.924 4.684 4.684 0 0 1 1.8-.336c.656 0 1.254.112 1.794.336.54.224 1.002.534 1.386.93.384.392.682.86.894 1.404.212.54.318 1.128.318 1.764Zm-1.656 0c0-.476-.064-.902-.192-1.278a2.671 2.671 0 0 0-.54-.966 2.332 2.332 0 0 0-.864-.606 2.94 2.94 0 0 0-1.14-.21c-.424 0-.806.07-1.146.21-.34.14-.63.342-.87.606a2.742 2.742 0 0 0-.546.966 3.955 3.955 0 0 0-.192 1.278c0 .476.064.904.192 1.284.128.376.31.696.546.96.24.26.53.46.87.6.34.14.722.21 1.146.21.424 0 .804-.07 1.14-.21.34-.14.628-.34.864-.6.236-.264.416-.584.54-.96a4.01 4.01 0 0 0 .192-1.284ZM16.104 8.757v3.912c0 .376.086.668.258.876.176.204.438.306.786.306.256 0 .496-.056.72-.168a2.58 2.58 0 0 0 .636-.474V8.757h1.482v6.156h-.906c-.192 0-.318-.09-.378-.27l-.102-.492a4.65 4.65 0 0 1-.396.354 2.577 2.577 0 0 1-.438.27 2.35 2.35 0 0 1-.498.168 2.345 2.345 0 0 1-.57.066c-.336 0-.634-.056-.894-.168a1.821 1.821 0 0 1-.648-.486 2.157 2.157 0 0 1-.402-.738 3.233 3.233 0 0 1-.132-.948V8.757h1.482ZM21.328 14.913V8.757h.87c.152 0 .258.028.318.084.06.056.1.152.12.288l.09.744c.22-.38.478-.68.774-.9.296-.22.628-.33.996-.33.304 0 .556.07.756.21l-.192 1.11c-.012.072-.038.124-.078.156a.278.278 0 0 1-.162.042 1.01 1.01 0 0 1-.246-.042 1.646 1.646 0 0 0-.414-.042c-.308 0-.572.086-.792.258-.22.168-.406.416-.558.744v3.834h-1.482ZM27.347 6.237h1.356a.57.57 0 0 1 .348.102c.096.064.16.152.192.264l1.476 5.19c.036.128.068.268.096.42.032.148.062.306.09.474a5.968 5.968 0 0 1 .228-.894l1.704-5.19a.575.575 0 0 1 .186-.252.543.543 0 0 1 .348-.114h.474a.57.57 0 0 1 .348.102.497.497 0 0 1 .192.264l1.692 5.19c.088.256.164.54.228.852.028-.156.056-.306.084-.45.032-.144.064-.278.096-.402l1.476-5.19c.028-.1.09-.186.186-.258a.563.563 0 0 1 .348-.108h1.266l-2.694 8.676h-1.458l-1.896-5.928-.078-.246a9.504 9.504 0 0 1-.072-.282c-.024.1-.05.194-.078.282-.024.088-.048.17-.072.246l-1.914 5.928H30.04l-2.694-8.676ZM42.771 8.661c.46 0 .876.074 1.248.222.376.148.696.358.96.63s.468.604.612.996c.144.392.216.83.216 1.314 0 .488-.072.928-.216 1.32a2.85 2.85 0 0 1-.612 1.002 2.653 2.653 0 0 1-.96.636 3.35 3.35 0 0 1-1.248.222c-.46 0-.878-.074-1.254-.222a2.712 2.712 0 0 1-.966-.636 2.922 2.922 0 0 1-.618-1.002 3.807 3.807 0 0 1-.216-1.32c0-.484.072-.922.216-1.314.148-.392.354-.724.618-.996.268-.272.59-.482.966-.63a3.397 3.397 0 0 1 1.254-.222Zm0 5.202c.512 0 .89-.172 1.134-.516.248-.344.372-.848.372-1.512s-.124-1.17-.372-1.518c-.244-.348-.622-.522-1.134-.522-.52 0-.904.176-1.152.528-.248.348-.372.852-.372 1.512s.124 1.164.372 1.512c.248.344.632.516 1.152.516ZM46.723 14.913V8.757h.87c.152 0 .258.028.318.084.06.056.1.152.12.288l.09.744c.22-.38.478-.68.774-.9.296-.22.628-.33.996-.33.304 0 .556.07.756.21l-.192 1.11c-.012.072-.038.124-.078.156a.278.278 0 0 1-.162.042 1.01 1.01 0 0 1-.246-.042 1.646 1.646 0 0 0-.414-.042c-.308 0-.572.086-.792.258-.22.168-.406.416-.558.744v3.834h-1.482ZM52.96 5.997v8.916h-1.482V5.997h1.482ZM58.732 14.913c-.192 0-.318-.09-.378-.27l-.12-.594a3.68 3.68 0 0 1-.402.39c-.14.116-.292.216-.456.3-.16.084-.334.148-.522.192a2.372 2.372 0 0 1-.6.072c-.336 0-.644-.07-.924-.21a2.098 2.098 0 0 1-.726-.606 3.033 3.033 0 0 1-.468-.99 5.072 5.072 0 0 1-.162-1.344c0-.456.062-.88.186-1.272s.302-.732.534-1.02c.232-.288.51-.512.834-.672a2.384 2.384 0 0 1 1.092-.246 2.103 2.103 0 0 1 1.536.606V5.997h1.482v8.916h-.906Zm-1.974-1.086c.308 0 .57-.064.786-.192.216-.128.42-.31.612-.546v-2.76a1.452 1.452 0 0 0-.552-.432 1.597 1.597 0 0 0-.636-.126c-.224 0-.428.042-.612.126a1.21 1.21 0 0 0-.462.384c-.124.168-.22.384-.288.648-.068.26-.102.568-.102.924 0 .36.028.666.084.918.06.248.144.452.252.612.108.156.24.27.396.342.156.068.33.102.522.102ZM16.331 20.757v6.156H14.85v-6.156h1.481Zm.223-1.794a.844.844 0 0 1-.078.36.963.963 0 0 1-.21.294.995.995 0 0 1-.3.204.963.963 0 0 1-.372.072.948.948 0 0 1-.367-.072 1.018 1.018 0 0 1-.498-.498.963.963 0 0 1 0-.732.995.995 0 0 1 .205-.3.929.929 0 0 1 .293-.198.899.899 0 0 1 .738 0 .912.912 0 0 1 .3.198.943.943 0 0 1 .288.672ZM17.771 26.913v-6.156h.906c.192 0 .318.09.378.27l.102.486a2.934 2.934 0 0 1 .828-.618c.156-.076.322-.134.498-.174.176-.04.368-.06.576-.06.336 0 .634.058.894.174.26.112.476.272.648.48.176.204.308.45.396.738.092.284.138.598.138.942v3.918h-1.482v-3.918c0-.376-.088-.666-.264-.87-.172-.208-.432-.312-.78-.312-.256 0-.496.058-.72.174a2.58 2.58 0 0 0-.636.474v4.452h-1.482ZM34.22 22.575c0 .636-.106 1.22-.318 1.752-.212.532-.51.99-.894 1.374a4 4 0 0 1-1.386.894 4.87 4.87 0 0 1-1.794.318h-3.312v-8.676h3.312a4.79 4.79 0 0 1 1.794.324 4 4 0 0 1 1.386.894c.384.38.682.836.894 1.368.212.532.318 1.116.318 1.752Zm-1.65 0c0-.476-.064-.902-.192-1.278a2.68 2.68 0 0 0-.546-.96 2.332 2.332 0 0 0-.864-.606 2.94 2.94 0 0 0-1.14-.21h-1.686v6.108h1.686c.424 0 .804-.07 1.14-.21.34-.14.628-.34.864-.6a2.75 2.75 0 0 0 .546-.96 4.01 4.01 0 0 0 .192-1.284ZM39.98 26.913h-.665c-.14 0-.25-.02-.33-.06-.08-.044-.14-.13-.18-.258l-.132-.438c-.156.14-.31.264-.462.372a2.804 2.804 0 0 1-.462.264c-.16.072-.33.126-.51.162-.18.036-.38.054-.6.054-.26 0-.5-.034-.72-.102a1.618 1.618 0 0 1-.57-.318 1.448 1.448 0 0 1-.366-.522 1.852 1.852 0 0 1-.132-.726c0-.232.06-.46.18-.684.124-.228.328-.432.612-.612.284-.184.662-.336 1.134-.456.472-.12 1.058-.188 1.758-.204v-.36c0-.412-.088-.716-.264-.912-.172-.2-.424-.3-.756-.3a1.837 1.837 0 0 0-1.02.276c-.116.068-.224.13-.324.186a.664.664 0 0 1-.33.084.429.429 0 0 1-.258-.078.614.614 0 0 1-.174-.192l-.27-.474c.708-.648 1.562-.972 2.562-.972.36 0 .68.06.96.18.284.116.524.28.72.492.196.208.344.458.444.75.104.292.156.612.156.96v3.888Zm-2.88-.924c.153 0 .293-.014.42-.042.129-.028.249-.07.36-.126.117-.056.227-.124.33-.204.109-.084.217-.182.325-.294v-1.038c-.432.02-.794.058-1.086.114-.288.052-.52.12-.696.204a.923.923 0 0 0-.378.294.664.664 0 0 0-.108.366c0 .26.076.446.228.558.156.112.358.168.606.168ZM43.22 27.01c-.532 0-.942-.15-1.23-.45-.288-.305-.432-.723-.432-1.255v-3.438h-.624a.31.31 0 0 1-.21-.078c-.056-.052-.084-.13-.084-.234v-.588l.99-.162.312-1.68a.302.302 0 0 1 .108-.186.365.365 0 0 1 .222-.066h.768v1.938h1.62v1.056h-1.62v3.336c0 .192.048.342.144.45a.488.488 0 0 0 .384.162c.092 0 .168-.01.228-.03.064-.024.118-.048.162-.072.048-.024.09-.046.126-.066a.194.194 0 0 1 .108-.036.16.16 0 0 1 .108.036c.028.02.058.052.09.096l.444.72c-.216.18-.464.316-.744.408a2.77 2.77 0 0 1-.87.138ZM50.423 26.913h-.666c-.14 0-.25-.02-.33-.06-.08-.044-.14-.13-.18-.258l-.132-.438c-.156.14-.31.264-.462.372a2.804 2.804 0 0 1-.462.264c-.16.072-.33.126-.51.162-.18.036-.38.054-.6.054-.26 0-.5-.034-.72-.102a1.618 1.618 0 0 1-.57-.318 1.448 1.448 0 0 1-.366-.522 1.852 1.852 0 0 1-.132-.726c0-.232.06-.46.18-.684.124-.228.328-.432.612-.612.284-.184.662-.336 1.134-.456.472-.12 1.058-.188 1.758-.204v-.36c0-.412-.088-.716-.264-.912-.172-.2-.424-.3-.756-.3a1.837 1.837 0 0 0-1.02.276c-.116.068-.224.13-.324.186a.664.664 0 0 1-.33.084.429.429 0 0 1-.258-.078.614.614 0 0 1-.174-.192l-.27-.474c.708-.648 1.562-.972 2.562-.972.36 0 .68.06.96.18.284.116.524.28.72.492.196.208.344.458.444.75.104.292.156.612.156.96v3.888Zm-2.88-.924c.152 0 .292-.014.42-.042.128-.028.248-.07.36-.126.116-.056.226-.124.33-.204.108-.084.216-.182.324-.294v-1.038c-.432.02-.794.058-1.086.114-.288.052-.52.12-.696.204a.923.923 0 0 0-.378.294.664.664 0 0 0-.108.366c0 .26.076.446.228.558.156.112.358.168.606.168Z"/></svg></g><a id="title" href="https://ourworldindata.org/grapher/total-population-living-in-extreme-poverty-by-world-region" style="font-family:&#x27;Playfair Display&#x27;, Georgia, &#x27;Times New Roman&#x27;, &#x27;Liberation Serif&#x27;, serif" target="_blank" rel="noopener"><text font-size="24.75" font-weight="600" x="16.0" y="40.0" fill="#5b5b5b"><tspan x="16" y="40.0075">Total population living in extreme poverty by world region</tspan></text></a><g id="subtitle" class="markdown-text-wrap"><text x="16.0" y="63.9" style="font-size:14.625px;line-height:1.2" fill="#5b5b5b"><tspan x="16" y="63.9">Extreme poverty is defined as living below the International Poverty Line of $2.15 per day.</tspan></text></g></g><g id="chart-area" style="pointer-events:none"><g id="horizontal-axis" class="HorizontalAxis"><g id="tick-marks"><line id="1990" x1="85.7" y1="496.4" x2="85.7" y2="501.9" stroke="#999" stroke-width="1"></line><line id="2024" x1="694.3" y1="496.4" x2="694.3" y2="501.9" stroke="#999" stroke-width="1"></line><line id="1995" x1="175.2" y1="496.4" x2="175.2" y2="501.9" stroke="#999" stroke-width="1"></line><line id="2000" x1="264.7" y1="496.4" x2="264.7" y2="501.9" stroke="#999" stroke-width="1"></line><line id="2005" x1="354.2" y1="496.4" x2="354.2" y2="501.9" stroke="#999" stroke-width="1"></line><line id="2010" x1="443.7" y1="496.4" x2="443.7" y2="501.9" stroke="#999" stroke-width="1"></line><line id="2015" x1="533.2" y1="496.4" x2="533.2" y2="501.9" stroke="#999" stroke-width="1"></line><line id="2020" x1="622.7" y1="496.4" x2="622.7" y2="501.9" stroke="#999" stroke-width="1"></line></g><g id="tick-labels"><text x="85.665" y="515.4" fill="#5b5b5b" text-anchor="start" font-size="13.5">1990</text><text x="694.3" y="515.4" fill="#5b5b5b" text-anchor="end" font-size="13.5">2024</text><text x="175.2" y="515.4" fill="#5b5b5b" text-anchor="middle" font-size="13.5">1995</text><text x="264.7" y="515.4" fill="#5b5b5b" text-anchor="middle" font-size="13.5">2000</text><text x="354.2" y="515.4" fill="#5b5b5b" text-anchor="middle" font-size="13.5">2005</text><text x="443.7" y="515.4" fill="#5b5b5b" text-anchor="middle" font-size="13.5">2010</text><text x="533.2" y="515.4" fill="#5b5b5b" text-anchor="middle" font-size="13.5">2015</text><text x="622.7" y="515.4" fill="#5b5b5b" text-anchor="middle" font-size="13.5">2020</text></g></g><g id="vertical-axis" class="VerticalAxis"><g id="tick-labels"><text x="80.67" y="496.9" dy=".32em" text-anchor="end" fill="#5b5b5b" font-size="13.5">0</text><text x="80.67" y="395.8" dy=".32em" text-anchor="end" fill="#5b5b5b" font-size="13.5">500 million</text><text x="80.67" y="294.7" dy=".32em" text-anchor="end" fill="#5b5b5b" font-size="13.5">1 billion</text><text x="80.67" y="193.6" dy=".32em" text-anchor="end" fill="#5b5b5b" font-size="13.5">1.5 billion</text><text x="80.67" y="92.5" dy=".32em" text-anchor="end" fill="#5b5b5b" font-size="13.5">2 billion</text></g></g><g id="horizontal-grid-lines" class="AxisGridLines horizontalLines"><line id="0" x1="85.67" y1="496.9" x2="694.30" y2="496.9" stroke="#999" stroke-width="1"></line><line id="500-million" x1="85.67" y1="395.8" x2="694.30" y2="395.8" stroke="#ddd" stroke-width="1" stroke-dasharray="3,2"></line><line id="1-billion" x1="85.67" y1="294.7" x2="694.30" y2="294.7" stroke="#ddd" stroke-width="1" stroke-dasharray="3,2"></line><line id="1.5-billion" x1="85.67" y1="193.6" x2="694.30" y2="193.6" stroke="#ddd" stroke-width="1" stroke-dasharray="3,2"></line><line id="2-billion" x1="85.67" y1="92.5" x2="694.30" y2="92.5" stroke="#ddd" stroke-width="1" stroke-dasharray="3,2"></line></g><g id="line-labels" class="LineLabels"><g id="connectors"><path id="Other-high-income-countries-(PIP)" d="M698.3,357.5 H709.6333333333333 V282.75714285714287 H715.3" stroke="#999" stroke-width="0.5" fill="none"></path><path id="Latin-America-and-the-Caribbean-(PIP)" d="M698.3,360.6 H712.4666666666667 V323.8821428571428 H715.3" stroke="#999" stroke-width="0.5" fill="none"></path><path id="East-Asia-and-Pacific-(PIP)" d="M698.3,364.7 H712.4666666666667 V365.00714285714287 H715.3" stroke="#999" stroke-width="0.5" fill="none"></path><path id="South-Asia-(PIP)" d="M698.3,381.5 H709.6333333333333 V391.28214285714284 H715.3" stroke="#999" stroke-width="0.5" fill="none"></path><path id="Middle-East-and-North-Africa-(PIP)" d="M698.3,399.6 H706.8 V417.5571428571429 H715.3" stroke="#999" stroke-width="0.5" fill="none"></path><path id="Europe-and-Central-Asia-(PIP)" d="M698.3,402.8 H703.9666666666667 V451.25714285714287 H715.3" stroke="#999" stroke-width="0.5" fill="none"></path><path id="Sub-Saharan-Africa-(PIP)" d="M698.3,450 H701.1333333333333 V484.95714285714286 H715.3" stroke="#999" stroke-width="0.5" fill="none"></path></g><g id="text-annotations"></g><g id="text-labels"><text x="719.3" y="280.32714285714286" font-size="13.50" fill="#6d3e91" opacity="1" text-anchor="start"><tspan font-weight="400">Other high income</tspan></text><text x="719.3" y="295.1771428571429" font-size="13.50" fill="#6d3e91" opacity="1" text-anchor="start"><tspan font-weight="400">countries (PIP)</tspan></text><text x="719.3" y="314.02714285714285" font-size="13.50" fill="#c05917" opacity="1" text-anchor="start"><tspan font-weight="400">Latin America and</tspan></text><text x="719.3" y="328.87714285714287" font-size="13.50" fill="#c05917" opacity="1" text-anchor="start"><tspan font-weight="400">the Caribbean</tspan></text><text x="719.3" y="343.72714285714284" font-size="13.50" fill="#c05917" opacity="1" text-anchor="start"><tspan font-weight="400">(PIP)</tspan></text><text x="719.3" y="362.57714285714286" font-size="13.50" fill="#54a385" opacity="1" text-anchor="start"><tspan font-weight="400">East Asia and</tspan></text><text x="719.3" y="377.4271428571429" font-size="13.50" fill="#54a385" opacity="1" text-anchor="start"><tspan font-weight="400">Pacific (PIP)</tspan></text><text x="719.3" y="396.27714285714285" font-size="13.50" fill="#286bbb" opacity="1" text-anchor="start"><tspan font-weight="400">South Asia (PIP)</tspan></text><text x="719.3" y="415.12714285714287" font-size="13.50" fill="#883039" opacity="1" text-anchor="start"><tspan font-weight="400">Middle East and</tspan></text><text x="719.3" y="429.9771428571429" font-size="13.50" fill="#883039" opacity="1" text-anchor="start"><tspan font-weight="400">North Africa (PIP)</tspan></text><text x="719.3" y="448.82714285714286" font-size="13.50" fill="#af8454" opacity="1" text-anchor="start"><tspan font-weight="400">Europe and</tspan></text><text x="719.3" y="463.6771428571429" font-size="13.50" fill="#af8454" opacity="1" text-anchor="start"><tspan font-weight="400">Central Asia (PIP)</tspan></text><text x="719.3" y="482.52714285714285" font-size="13.50" fill="#00295b" opacity="1" text-anchor="start"><tspan font-weight="400">Sub-Saharan</tspan></text><text x="719.3" y="497.37714285714287" font-size="13.50" fill="#00295b" opacity="1" text-anchor="start"><tspan font-weight="400">Africa (PIP)</tspan></text></g></g><g class="Areas" id="stacked-areas"><g id="areas"><path id="Sub-Saharan-Africa-(PIP)" class="Sub-Saharan-Africa-__0028PIP__0029-area" stroke-linecap="round" d="M85.7 439.8L103.6 436.7L121.5 434L139.4 431.1L157.3 429L175.2 427.7L193.1 426.7L211 425.4L228.9 423.8L246.8 422.4L264.7 420.9L282.6 420.2L300.5 419.1L318.4 418.7L336.3 420.8L354.2 421.4L372.1 421.7L390 421.5L407.9 422L425.8 420.9L443.7 422L461.6 422L479.5 422.2L497.4 421.8L515.3 421.3L533.2 419L551.1 417.3L569 416.3L586.9 415.4L604.8 413.8L622.7 408.6L640.6 407.1L658.5 406.3L676.4 404.2L694.3 403L694.3 496.9L85.7 496.9" fill="#00295B" fill-opacity="0.8"></path><path id="Europe-and-Central-Asia-(PIP)" class="Europe-and-Central-Asia-__0028PIP__0029-area" stroke-linecap="round" d="M85.7 436.4L103.6 432.8L121.5 428.8L139.4 425.1L157.3 421.3L175.2 420L193.1 418.9L211 418.2L228.9 416.4L246.8 412.8L264.7 412.2L282.6 412.3L300.5 412.1L318.4 411.8L336.3 415.5L354.2 416.9L372.1 418.6L390 419.5L407.9 420.7L425.8 419.7L443.7 420.8L461.6 421.1L479.5 421.3L497.4 421.2L515.3 420.3L533.2 418.2L551.1 416.7L569 415.6L586.9 415L604.8 413.3L622.7 408.1L640.6 406.5L658.5 405.8L676.4 403.7L694.3 402.6L694.3 403L676.4 404.2L658.5 406.3L640.6 407.1L622.7 408.6L604.8 413.8L586.9 415.4L569 416.3L551.1 417.3L533.2 419L515.3 421.3L497.4 421.8L479.5 422.2L461.6 422L443.7 422L425.8 420.9L407.9 422L390 421.5L372.1 421.7L354.2 421.4L336.3 420.8L318.4 418.7L300.5 419.1L282.6 420.2L264.7 420.9L246.8 422.4L228.9 423.8L211 425.4L193.1 426.7L175.2 427.7L157.3 429L139.4 431.1L121.5 434L103.6 436.7L85.7 439.8" fill="#BC8E5A" fill-opacity="0.8"></path><path id="Middle-East-and-North-Africa-(PIP)" class="Middle-East-and-North-Africa-__0028PIP__0029-area" stroke-linecap="round" d="M85.7 433.4L103.6 429.8L121.5 426.1L139.4 422.5L157.3 418.9L175.2 417.5L193.1 416.8L211 416.2L228.9 414.6L246.8 411L264.7 410.5L282.6 410.6L300.5 410.4L318.4 410.1L336.3 413.9L354.2 415.2L372.1 416.9L390 417.8L407.9 419L425.8 418.2L443.7 419.5L461.6 419.7L479.5 419.7L497.4 419.3L515.3 418.2L533.2 415.3L551.1 413.2L569 411.9L586.9 411.2L604.8 409.5L622.7 403.6L640.6 401.5L658.5 400.5L676.4 398.1L694.3 396.6L694.3 402.6L676.4 403.7L658.5 405.8L640.6 406.5L622.7 408.1L604.8 413.3L586.9 415L569 415.6L551.1 416.7L533.2 418.2L515.3 420.3L497.4 421.2L479.5 421.3L461.6 421.1L443.7 420.8L425.8 419.7L407.9 420.7L390 419.5L372.1 418.6L354.2 416.9L336.3 415.5L318.4 411.8L300.5 412.1L282.6 412.3L264.7 412.2L246.8 412.8L228.9 416.4L211 418.2L193.1 418.9L175.2 420L157.3 421.3L139.4 425.1L121.5 428.8L103.6 432.8L85.7 436.4" fill="#883039" fill-opacity="0.8"></path><path id="South-Asia-(PIP)" class="South-Asia-__0028PIP__0029-area" stroke-linecap="round" d="M85.7 318L103.6 315.3L121.5 313.3L139.4 308.7L157.3 306.5L175.2 304.9L193.1 305.8L211 304.1L228.9 300.4L246.8 296.2L264.7 294.2L282.6 292.5L300.5 291L318.4 292.8L336.3 299.9L354.2 304.5L372.1 309.9L390 314.6L407.9 318.1L425.8 320.5L443.7 334.2L461.6 346.2L479.5 351.1L497.4 353.1L515.3 355L533.2 355.9L551.1 356L569 365.6L586.9 373.7L604.8 369.6L622.7 354.1L640.6 357.4L658.5 362.9L676.4 364.1L694.3 366.5L694.3 396.6L676.4 398.1L658.5 400.5L640.6 401.5L622.7 403.6L604.8 409.5L586.9 411.2L569 411.9L551.1 413.2L533.2 415.3L515.3 418.2L497.4 419.3L479.5 419.7L461.6 419.7L443.7 419.5L425.8 418.2L407.9 419L390 417.8L372.1 416.9L354.2 415.2L336.3 413.9L318.4 410.1L300.5 410.4L282.6 410.6L264.7 410.5L246.8 411L228.9 414.6L211 416.2L193.1 416.8L175.2 417.5L157.3 418.9L139.4 422.5L121.5 426.1L103.6 429.8L85.7 433.4" fill="#286BBB" fill-opacity="0.8"></path><path id="East-Asia-and-Pacific-(PIP)" class="East-Asia-and-Pacific-__0028PIP__0029-area" stroke-linecap="round" d="M85.7 106.8L103.6 105.3L121.5 107.1L139.4 106.4L157.3 121.6L175.2 135L193.1 148.5L211 146L228.9 136.6L246.8 143L264.7 148.4L282.6 155.3L300.5 169.2L318.4 185.1L336.3 205L354.2 225.1L372.1 232.8L390 246L407.9 254.4L425.8 263.3L443.7 284L461.6 306.4L479.5 317.7L497.4 335.4L515.3 340.9L533.2 346.2L551.1 349L569 360.6L586.9 368.8L604.8 365.5L622.7 349.6L640.6 352.8L658.5 358.8L676.4 360.2L694.3 362.9L694.3 366.5L676.4 364.1L658.5 362.9L640.6 357.4L622.7 354.1L604.8 369.6L586.9 373.7L569 365.6L551.1 356L533.2 355.9L515.3 355L497.4 353.1L479.5 351.1L461.6 346.2L443.7 334.2L425.8 320.5L407.9 318.1L390 314.6L372.1 309.9L354.2 304.5L336.3 299.9L318.4 292.8L300.5 291L282.6 292.5L264.7 294.2L246.8 296.2L228.9 300.4L211 304.1L193.1 305.8L175.2 304.9L157.3 306.5L139.4 308.7L121.5 313.3L103.6 315.3L85.7 318" fill="#58AC8C" fill-opacity="0.8"></path><path id="Latin-America-and-the-Caribbean-(PIP)" class="Latin-America-and-the-Caribbean-__0028PIP__0029-area" stroke-linecap="round" d="M85.7 91.4L103.6 90.1L121.5 91.8L139.4 90.9L157.3 107.1L175.2 120.7L193.1 132.8L211 130.1L228.9 120.8L246.8 126.7L264.7 133.3L282.6 140.6L300.5 155.6L318.4 171.2L336.3 192L354.2 212.5L372.1 222.3L390 236.7L407.9 245.8L425.8 255.1L443.7 276.6L461.6 299.5L479.5 311.1L497.4 329.5L515.3 335.3L533.2 340.8L551.1 343.3L569 354.8L586.9 363.1L604.8 359.7L622.7 344.4L640.6 346.5L658.5 353.9L676.4 355.5L694.3 358.2L694.3 362.9L676.4 360.2L658.5 358.8L640.6 352.8L622.7 349.6L604.8 365.5L586.9 368.8L569 360.6L551.1 349L533.2 346.2L515.3 340.9L497.4 335.4L479.5 317.7L461.6 306.4L443.7 284L425.8 263.3L407.9 254.4L390 246L372.1 232.8L354.2 225.1L336.3 205L318.4 185.1L300.5 169.2L282.6 155.3L264.7 148.4L246.8 143L228.9 136.6L211 146L193.1 148.5L175.2 135L157.3 121.6L139.4 106.4L121.5 107.1L103.6 105.3L85.7 106.8" fill="#C05917" fill-opacity="0.8"></path><path id="Other-high-income-countries-(PIP)" class="Other-high-income-countries-__0028PIP__0029-area" stroke-linecap="round" d="M85.7 90.6L103.6 89.3L121.5 90.9L139.4 89.9L157.3 106.1L175.2 119.7L193.1 131.7L211 129.1L228.9 119.7L246.8 125.7L264.7 132.4L282.6 139.6L300.5 154.6L318.4 170L336.3 190.9L354.2 211.4L372.1 221.2L390 235.7L407.9 244.8L425.8 254L443.7 275.5L461.6 298.3L479.5 309.8L497.4 328.1L515.3 333.8L533.2 339.2L551.1 341.9L569 353.3L586.9 361.7L604.8 358.4L622.7 343.5L640.6 345.8L658.5 352.5L676.4 354L694.3 356.8L694.3 358.2L676.4 355.5L658.5 353.9L640.6 346.5L622.7 344.4L604.8 359.7L586.9 363.1L569 354.8L551.1 343.3L533.2 340.8L515.3 335.3L497.4 329.5L479.5 311.1L461.6 299.5L443.7 276.6L425.8 255.1L407.9 245.8L390 236.7L372.1 222.3L354.2 212.5L336.3 192L318.4 171.2L300.5 155.6L282.6 140.6L264.7 133.3L246.8 126.7L228.9 120.8L211 130.1L193.1 132.8L175.2 120.7L157.3 107.1L139.4 90.9L121.5 91.8L103.6 90.1L85.7 91.4" fill="#6D3E91" fill-opacity="0.8"></path></g><g id="borders"><path id="Sub-Saharan-Africa-(PIP)" class="Sub-Saharan-Africa-__0028PIP__0029-border" stroke-linecap="round" d="M85.7 439.8L103.6 436.7L121.5 434L139.4 431.1L157.3 429L175.2 427.7L193.1 426.7L211 425.4L228.9 423.8L246.8 422.4L264.7 420.9L282.6 420.2L300.5 419.1L318.4 418.7L336.3 420.8L354.2 421.4L372.1 421.7L390 421.5L407.9 422L425.8 420.9L443.7 422L461.6 422L479.5 422.2L497.4 421.8L515.3 421.3L533.2 419L551.1 417.3L569 416.3L586.9 415.4L604.8 413.8L622.7 408.6L640.6 407.1L658.5 406.3L676.4 404.2L694.3 403" stroke="rgb(0, 34, 76)" stroke-opacity="0.7" stroke-width="0.5" fill="none"></path><path id="Europe-and-Central-Asia-(PIP)" class="Europe-and-Central-Asia-__0028PIP__0029-border" stroke-linecap="round" d="M85.7 436.4L103.6 432.8L121.5 428.8L139.4 425.1L157.3 421.3L175.2 420L193.1 418.9L211 418.2L228.9 416.4L246.8 412.8L264.7 412.2L282.6 412.3L300.5 412.1L318.4 411.8L336.3 415.5L354.2 416.9L372.1 418.6L390 419.5L407.9 420.7L425.8 419.7L443.7 420.8L461.6 421.1L479.5 421.3L497.4 421.2L515.3 420.3L533.2 418.2L551.1 416.7L569 415.6L586.9 415L604.8 413.3L622.7 408.1L640.6 406.5L658.5 405.8L676.4 403.7L694.3 402.6" stroke="rgb(157, 119, 75)" stroke-opacity="0.7" stroke-width="0.5" fill="none"></path><path id="Middle-East-and-North-Africa-(PIP)" class="Middle-East-and-North-Africa-__0028PIP__0029-border" stroke-linecap="round" d="M85.7 433.4L103.6 429.8L121.5 426.1L139.4 422.5L157.3 418.9L175.2 417.5L193.1 416.8L211 416.2L228.9 414.6L246.8 411L264.7 410.5L282.6 410.6L300.5 410.4L318.4 410.1L336.3 413.9L354.2 415.2L372.1 416.9L390 417.8L407.9 419L425.8 418.2L443.7 419.5L461.6 419.7L479.5 419.7L497.4 419.3L515.3 418.2L533.2 415.3L551.1 413.2L569 411.9L586.9 411.2L604.8 409.5L622.7 403.6L640.6 401.5L658.5 400.5L676.4 398.1L694.3 396.6" stroke="rgb(114, 40, 48)" stroke-opacity="0.7" stroke-width="0.5" fill="none"></path><path id="South-Asia-(PIP)" class="South-Asia-__0028PIP__0029-border" stroke-linecap="round" d="M85.7 318L103.6 315.3L121.5 313.3L139.4 308.7L157.3 306.5L175.2 304.9L193.1 305.8L211 304.1L228.9 300.4L246.8 296.2L264.7 294.2L282.6 292.5L300.5 291L318.4 292.8L336.3 299.9L354.2 304.5L372.1 309.9L390 314.6L407.9 318.1L425.8 320.5L443.7 334.2L461.6 346.2L479.5 351.1L497.4 353.1L515.3 355L533.2 355.9L551.1 356L569 365.6L586.9 373.7L604.8 369.6L622.7 354.1L640.6 357.4L658.5 362.9L676.4 364.1L694.3 366.5" stroke="rgb(33, 90, 156)" stroke-opacity="0.7" stroke-width="0.5" fill="none"></path><path id="East-Asia-and-Pacific-(PIP)" class="East-Asia-and-Pacific-__0028PIP__0029-border" stroke-linecap="round" d="M85.7 106.8L103.6 105.3L121.5 107.1L139.4 106.4L157.3 121.6L175.2 135L193.1 148.5L211 146L228.9 136.6L246.8 143L264.7 148.4L282.6 155.3L300.5 169.2L318.4 185.1L336.3 205L354.2 225.1L372.1 232.8L390 246L407.9 254.4L425.8 263.3L443.7 284L461.6 306.4L479.5 317.7L497.4 335.4L515.3 340.9L533.2 346.2L551.1 349L569 360.6L586.9 368.8L604.8 365.5L622.7 349.6L640.6 352.8L658.5 358.8L676.4 360.2L694.3 362.9" stroke="rgb(74, 144, 117)" stroke-opacity="0.7" stroke-width="0.5" fill="none"></path><path id="Latin-America-and-the-Caribbean-(PIP)" class="Latin-America-and-the-Caribbean-__0028PIP__0029-border" stroke-linecap="round" d="M85.7 91.4L103.6 90.1L121.5 91.8L139.4 90.9L157.3 107.1L175.2 120.7L193.1 132.8L211 130.1L228.9 120.8L246.8 126.7L264.7 133.3L282.6 140.6L300.5 155.6L318.4 171.2L336.3 192L354.2 212.5L372.1 222.3L390 236.7L407.9 245.8L425.8 255.1L443.7 276.6L461.6 299.5L479.5 311.1L497.4 329.5L515.3 335.3L533.2 340.8L551.1 343.3L569 354.8L586.9 363.1L604.8 359.7L622.7 344.4L640.6 346.5L658.5 353.9L676.4 355.5L694.3 358.2" stroke="rgb(161, 74, 19)" stroke-opacity="0.7" stroke-width="0.5" fill="none"></path><path id="Other-high-income-countries-(PIP)" class="Other-high-income-countries-__0028PIP__0029-border" stroke-linecap="round" d="M85.7 90.6L103.6 89.3L121.5 90.9L139.4 89.9L157.3 106.1L175.2 119.7L193.1 131.7L211 129.1L228.9 119.7L246.8 125.7L264.7 132.4L282.6 139.6L300.5 154.6L318.4 170L336.3 190.9L354.2 211.4L372.1 221.2L390 235.7L407.9 244.8L425.8 254L443.7 275.5L461.6 298.3L479.5 309.8L497.4 328.1L515.3 333.8L533.2 339.2L551.1 341.9L569 353.3L586.9 361.7L604.8 358.4L622.7 343.5L640.6 345.8L658.5 352.5L676.4 354L694.3 356.8" stroke="rgb(91, 52, 121)" stroke-opacity="0.7" stroke-width="0.5" fill="none"></path></g></g></g><g id="footer" class="SourcesFooter" style="fill:#5b5b5b"><g id="sources" class="markdown-text-wrap"><text x="16.0" y="546.5" style="font-size:13.5px;line-height:1.2"><tspan x="16" y="546.5"><tspan style="font-weight:700">Data source:</tspan> World Bank Poverty and Inequality Platform (2024)</tspan></text></g><g id="note" class="markdown-text-wrap"><text x="16.0" y="564.7" style="font-size:13.5px;line-height:1.2"><tspan x="16" y="564.7"><tspan style="font-weight:700">Note:</tspan> This data is measured in <tspan class="dod-span" data-id="int_dollar_abbreviation">international-$</tspan> at 2017 prices to account for inflation and differences in the cost of living between</tspan><tspan x="16" y="580.9">countries. Depending on the country and year, it relates to income measured after taxes and benefits, or to consumption, <tspan class="dod-span" data-id="per-capita">per capita</tspan>.</tspan></text></g><text id="origin-url" font-size="13.50" x="613.1" y="546.5"><tspan x="613.14" y="546.495"><a target="_blank" style="fill: #5b5b5b;" href="https://ourworldindata.org/poverty">OurWorldinData.org/poverty</a> | <a target="_blank" style="fill: #5b5b5b;" href="https://creativecommons.org/licenses/by/4.0/">CC BY</a></tspan></text></g></svg>