<svg
    xmlns="http://www.w3.org/2000/svg"
    version="1.1"
    style='font-family:Lato, &#x27;Helvetica Neue&#x27;, Helvetica, Arial, &#x27;Liberation Sans&#x27;, sans-serif;font-feature-settings:"liga", "kern", "calt", "lnum";text-rendering:geometricPrecision;-webkit-font-smoothing:antialiased;font-size:18px;background-color:#ffffff'
    width="850"
    height="600"
    viewBox="0 0 850 600"
>
    <defs>
        <style>
            @import url(https://ourworldindata.org/fonts.css);
        </style>
    </defs>
    <defs>
        <pattern
            id="noDataPattern"
            patternUnits="userSpaceOnUse"
            width="4"
            height="4"
            patternTransform="rotate(-45 2 2)"
        >
            <path d="M -1,2 l 6,0" stroke="#ccc" stroke-width="0.7"></path>
        </pattern>
    </defs>
    <g id="header" class="HeaderView">
        <g id="logo" transform="translate(769, 16) scale(1)">
            <svg
                className="owidLogo"
                xmlns="http://www.w3.org/2000/svg"
                width="65"
                height="36"
                viewBox="0 0 65 36"
                fill="none"
            >
                <path fill="#002147" d="M0 0h64.8v36H0z" />
                <path fill="#CE261E" d="M0 33.3h64.8V36H0z" />
                <path
                    fill="#fff"
                    d="M13.796 10.575c0 .636-.106 1.226-.318 1.77a4.193 4.193 0 0 1-.894 1.404 4.084 4.084 0 0 1-1.386.93c-.54.22-1.138.33-1.794.33-.656 0-1.256-.11-1.8-.33a4.149 4.149 0 0 1-1.392-.93 4.193 4.193 0 0 1-.894-1.404A4.833 4.833 0 0 1 5 10.575c0-.636.106-1.224.318-1.764a4.18 4.18 0 0 1 .894-1.41 4.076 4.076 0 0 1 1.392-.924 4.684 4.684 0 0 1 1.8-.336c.656 0 1.254.112 1.794.336.54.224 1.002.534 1.386.93.384.392.682.86.894 1.404.212.54.318 1.128.318 1.764Zm-1.656 0c0-.476-.064-.902-.192-1.278a2.671 2.671 0 0 0-.54-.966 2.332 2.332 0 0 0-.864-.606 2.94 2.94 0 0 0-1.14-.21c-.424 0-.806.07-1.146.21-.34.14-.63.342-.87.606a2.742 2.742 0 0 0-.546.966 3.955 3.955 0 0 0-.192 1.278c0 .476.064.904.192 1.284.128.376.31.696.546.96.24.26.53.46.87.6.34.14.722.21 1.146.21.424 0 .804-.07 1.14-.21.34-.14.628-.34.864-.6.236-.264.416-.584.54-.96a4.01 4.01 0 0 0 .192-1.284ZM16.104 8.757v3.912c0 .376.086.668.258.876.176.204.438.306.786.306.256 0 .496-.056.72-.168a2.58 2.58 0 0 0 .636-.474V8.757h1.482v6.156h-.906c-.192 0-.318-.09-.378-.27l-.102-.492a4.65 4.65 0 0 1-.396.354 2.577 2.577 0 0 1-.438.27 2.35 2.35 0 0 1-.498.168 2.345 2.345 0 0 1-.57.066c-.336 0-.634-.056-.894-.168a1.821 1.821 0 0 1-.648-.486 2.157 2.157 0 0 1-.402-.738 3.233 3.233 0 0 1-.132-.948V8.757h1.482ZM21.328 14.913V8.757h.87c.152 0 .258.028.318.084.06.056.1.152.12.288l.09.744c.22-.38.478-.68.774-.9.296-.22.628-.33.996-.33.304 0 .556.07.756.21l-.192 1.11c-.012.072-.038.124-.078.156a.278.278 0 0 1-.162.042 1.01 1.01 0 0 1-.246-.042 1.646 1.646 0 0 0-.414-.042c-.308 0-.572.086-.792.258-.22.168-.406.416-.558.744v3.834h-1.482ZM27.347 6.237h1.356a.57.57 0 0 1 .348.102c.096.064.16.152.192.264l1.476 5.19c.036.128.068.268.096.42.032.148.062.306.09.474a5.968 5.968 0 0 1 .228-.894l1.704-5.19a.575.575 0 0 1 .186-.252.543.543 0 0 1 .348-.114h.474a.57.57 0 0 1 .348.102.497.497 0 0 1 .192.264l1.692 5.19c.088.256.164.54.228.852.028-.156.056-.306.084-.45.032-.144.064-.278.096-.402l1.476-5.19c.028-.1.09-.186.186-.258a.563.563 0 0 1 .348-.108h1.266l-2.694 8.676h-1.458l-1.896-5.928-.078-.246a9.504 9.504 0 0 1-.072-.282c-.024.1-.05.194-.078.282-.024.088-.048.17-.072.246l-1.914 5.928H30.04l-2.694-8.676ZM42.771 8.661c.46 0 .876.074 1.248.222.376.148.696.358.96.63s.468.604.612.996c.144.392.216.83.216 1.314 0 .488-.072.928-.216 1.32a2.85 2.85 0 0 1-.612 1.002 2.653 2.653 0 0 1-.96.636 3.35 3.35 0 0 1-1.248.222c-.46 0-.878-.074-1.254-.222a2.712 2.712 0 0 1-.966-.636 2.922 2.922 0 0 1-.618-1.002 3.807 3.807 0 0 1-.216-1.32c0-.484.072-.922.216-1.314.148-.392.354-.724.618-.996.268-.272.59-.482.966-.63a3.397 3.397 0 0 1 1.254-.222Zm0 5.202c.512 0 .89-.172 1.134-.516.248-.344.372-.848.372-1.512s-.124-1.17-.372-1.518c-.244-.348-.622-.522-1.134-.522-.52 0-.904.176-1.152.528-.248.348-.372.852-.372 1.512s.124 1.164.372 1.512c.248.344.632.516 1.152.516ZM46.723 14.913V8.757h.87c.152 0 .258.028.318.084.06.056.1.152.12.288l.09.744c.22-.38.478-.68.774-.9.296-.22.628-.33.996-.33.304 0 .556.07.756.21l-.192 1.11c-.012.072-.038.124-.078.156a.278.278 0 0 1-.162.042 1.01 1.01 0 0 1-.246-.042 1.646 1.646 0 0 0-.414-.042c-.308 0-.572.086-.792.258-.22.168-.406.416-.558.744v3.834h-1.482ZM52.96 5.997v8.916h-1.482V5.997h1.482ZM58.732 14.913c-.192 0-.318-.09-.378-.27l-.12-.594a3.68 3.68 0 0 1-.402.39c-.14.116-.292.216-.456.3-.16.084-.334.148-.522.192a2.372 2.372 0 0 1-.6.072c-.336 0-.644-.07-.924-.21a2.098 2.098 0 0 1-.726-.606 3.033 3.033 0 0 1-.468-.99 5.072 5.072 0 0 1-.162-1.344c0-.456.062-.88.186-1.272s.302-.732.534-1.02c.232-.288.51-.512.834-.672a2.384 2.384 0 0 1 1.092-.246 2.103 2.103 0 0 1 1.536.606V5.997h1.482v8.916h-.906Zm-1.974-1.086c.308 0 .57-.064.786-.192.216-.128.42-.31.612-.546v-2.76a1.452 1.452 0 0 0-.552-.432 1.597 1.597 0 0 0-.636-.126c-.224 0-.428.042-.612.126a1.21 1.21 0 0 0-.462.384c-.124.168-.22.384-.288.648-.068.26-.102.568-.102.924 0 .36.028.666.084.918.06.248.144.452.252.612.108.156.24.27.396.342.156.068.33.102.522.102ZM16.331 20.757v6.156H14.85v-6.156h1.481Zm.223-1.794a.844.844 0 0 1-.078.36.963.963 0 0 1-.21.294.995.995 0 0 1-.3.204.963.963 0 0 1-.372.072.948.948 0 0 1-.367-.072 1.018 1.018 0 0 1-.498-.498.963.963 0 0 1 0-.732.995.995 0 0 1 .205-.3.929.929 0 0 1 .293-.198.899.899 0 0 1 .738 0 .912.912 0 0 1 .3.198.943.943 0 0 1 .288.672ZM17.771 26.913v-6.156h.906c.192 0 .318.09.378.27l.102.486a2.934 2.934 0 0 1 .828-.618c.156-.076.322-.134.498-.174.176-.04.368-.06.576-.06.336 0 .634.058.894.174.26.112.476.272.648.48.176.204.308.45.396.738.092.284.138.598.138.942v3.918h-1.482v-3.918c0-.376-.088-.666-.264-.87-.172-.208-.432-.312-.78-.312-.256 0-.496.058-.72.174a2.58 2.58 0 0 0-.636.474v4.452h-1.482ZM34.22 22.575c0 .636-.106 1.22-.318 1.752-.212.532-.51.99-.894 1.374a4 4 0 0 1-1.386.894 4.87 4.87 0 0 1-1.794.318h-3.312v-8.676h3.312a4.79 4.79 0 0 1 1.794.324 4 4 0 0 1 1.386.894c.384.38.682.836.894 1.368.212.532.318 1.116.318 1.752Zm-1.65 0c0-.476-.064-.902-.192-1.278a2.68 2.68 0 0 0-.546-.96 2.332 2.332 0 0 0-.864-.606 2.94 2.94 0 0 0-1.14-.21h-1.686v6.108h1.686c.424 0 .804-.07 1.14-.21.34-.14.628-.34.864-.6a2.75 2.75 0 0 0 .546-.96 4.01 4.01 0 0 0 .192-1.284ZM39.98 26.913h-.665c-.14 0-.25-.02-.33-.06-.08-.044-.14-.13-.18-.258l-.132-.438c-.156.14-.31.264-.462.372a2.804 2.804 0 0 1-.462.264c-.16.072-.33.126-.51.162-.18.036-.38.054-.6.054-.26 0-.5-.034-.72-.102a1.618 1.618 0 0 1-.57-.318 1.448 1.448 0 0 1-.366-.522 1.852 1.852 0 0 1-.132-.726c0-.232.06-.46.18-.684.124-.228.328-.432.612-.612.284-.184.662-.336 1.134-.456.472-.12 1.058-.188 1.758-.204v-.36c0-.412-.088-.716-.264-.912-.172-.2-.424-.3-.756-.3a1.837 1.837 0 0 0-1.02.276c-.116.068-.224.13-.324.186a.664.664 0 0 1-.33.084.429.429 0 0 1-.258-.078.614.614 0 0 1-.174-.192l-.27-.474c.708-.648 1.562-.972 2.562-.972.36 0 .68.06.96.18.284.116.524.28.72.492.196.208.344.458.444.75.104.292.156.612.156.96v3.888Zm-2.88-.924c.153 0 .293-.014.42-.042.129-.028.249-.07.36-.126.117-.056.227-.124.33-.204.109-.084.217-.182.325-.294v-1.038c-.432.02-.794.058-1.086.114-.288.052-.52.12-.696.204a.923.923 0 0 0-.378.294.664.664 0 0 0-.108.366c0 .26.076.446.228.558.156.112.358.168.606.168ZM43.22 27.01c-.532 0-.942-.15-1.23-.45-.288-.305-.432-.723-.432-1.255v-3.438h-.624a.31.31 0 0 1-.21-.078c-.056-.052-.084-.13-.084-.234v-.588l.99-.162.312-1.68a.302.302 0 0 1 .108-.186.365.365 0 0 1 .222-.066h.768v1.938h1.62v1.056h-1.62v3.336c0 .192.048.342.144.45a.488.488 0 0 0 .384.162c.092 0 .168-.01.228-.03.064-.024.118-.048.162-.072.048-.024.09-.046.126-.066a.194.194 0 0 1 .108-.036.16.16 0 0 1 .108.036c.028.02.058.052.09.096l.444.72c-.216.18-.464.316-.744.408a2.77 2.77 0 0 1-.87.138ZM50.423 26.913h-.666c-.14 0-.25-.02-.33-.06-.08-.044-.14-.13-.18-.258l-.132-.438c-.156.14-.31.264-.462.372a2.804 2.804 0 0 1-.462.264c-.16.072-.33.126-.51.162-.18.036-.38.054-.6.054-.26 0-.5-.034-.72-.102a1.618 1.618 0 0 1-.57-.318 1.448 1.448 0 0 1-.366-.522 1.852 1.852 0 0 1-.132-.726c0-.232.06-.46.18-.684.124-.228.328-.432.612-.612.284-.184.662-.336 1.134-.456.472-.12 1.058-.188 1.758-.204v-.36c0-.412-.088-.716-.264-.912-.172-.2-.424-.3-.756-.3a1.837 1.837 0 0 0-1.02.276c-.116.068-.224.13-.324.186a.664.664 0 0 1-.33.084.429.429 0 0 1-.258-.078.614.614 0 0 1-.174-.192l-.27-.474c.708-.648 1.562-.972 2.562-.972.36 0 .68.06.96.18.284.116.524.28.72.492.196.208.344.458.444.75.104.292.156.612.156.96v3.888Zm-2.88-.924c.152 0 .292-.014.42-.042.128-.028.248-.07.36-.126.116-.056.226-.124.33-.204.108-.084.216-.182.324-.294v-1.038c-.432.02-.794.058-1.086.114-.288.052-.52.12-.696.204a.923.923 0 0 0-.378.294.664.664 0 0 0-.108.366c0 .26.076.446.228.558.156.112.358.168.606.168Z"
                />
            </svg>
        </g>
        <a
            id="title"
            href="https://ourworldindata.org/explorers/population-and-demography?indicator=Annual+population+change&amp;Sex=Female&amp;Age=5%E2%80%939+years&amp;Projection+scenario=Low&amp;country=CHN~IND~USA~IDN~PAK~NGA~BRA~JPN"
            style="font-family:&#x27;Playfair Display&#x27;, Georgia, &#x27;Times New Roman&#x27;, &#x27;Liberation Serif&#x27;, serif"
        >
            <text
                font-size="22.00"
                font-weight="600"
                x="16.0"
                y="37.3"
                fill="#2d2e2d"
            >
                <tspan x="16" y="37.34">
                    Annual change in female population aged 5 to 9 years, 1951
                    to 2100
                </tspan>
            </text>
        </a>
        <g id="subtitle" class="markdown-text-wrap">
            <text
                x="16.0"
                y="63.0"
                style="font-size: 15px; line-height: 1.2"
                fill="#5b5b5b"
            >
                <tspan x="16" y="63.0">
                    Population yearly increment, estimated as the difference
                    between the population on 1st of July of the year
                </tspan>
                <tspan x="16" y="81.0">
                    indicated and the population a year before. This only
                    includes females aged 5-9. Projections from 2024
                </tspan>
                <tspan x="16" y="99.0">
                    onwards are based on the UN&#x27;s low scenario.
                </tspan>
            </text>
        </g>
    </g>
    <g id="chart-area" style="pointer-events: none">
        <g id="horizontal-axis" class="HorizontalAxis">
            <g id="tick-marks">
                <line
                    id="1951"
                    x1="73"
                    y1="531.9"
                    x2="73"
                    y2="537.4"
                    stroke="#999"
                    stroke-width="1"
                ></line>
                <line
                    id="2100"
                    x1="726.6"
                    y1="531.9"
                    x2="726.6"
                    y2="537.4"
                    stroke="#999"
                    stroke-width="1"
                ></line>
                <line
                    id="1980"
                    x1="200.2"
                    y1="531.9"
                    x2="200.2"
                    y2="537.4"
                    stroke="#999"
                    stroke-width="1"
                ></line>
                <line
                    id="2000"
                    x1="287.9"
                    y1="531.9"
                    x2="287.9"
                    y2="537.4"
                    stroke="#999"
                    stroke-width="1"
                ></line>
                <line
                    id="2020"
                    x1="375.7"
                    y1="531.9"
                    x2="375.7"
                    y2="537.4"
                    stroke="#999"
                    stroke-width="1"
                ></line>
                <line
                    id="2040"
                    x1="463.4"
                    y1="531.9"
                    x2="463.4"
                    y2="537.4"
                    stroke="#999"
                    stroke-width="1"
                ></line>
                <line
                    id="2060"
                    x1="551.1"
                    y1="531.9"
                    x2="551.1"
                    y2="537.4"
                    stroke="#999"
                    stroke-width="1"
                ></line>
                <line
                    id="2080"
                    x1="638.9"
                    y1="531.9"
                    x2="638.9"
                    y2="537.4"
                    stroke="#999"
                    stroke-width="1"
                ></line>
            </g>
            <g id="tick-labels">
                <text
                    x="73"
                    y="550.4"
                    fill="#5b5b5b"
                    text-anchor="start"
                    font-size="13"
                >
                    1951
                </text>
                <text
                    x="726.61"
                    y="550.4"
                    fill="#5b5b5b"
                    text-anchor="end"
                    font-size="13"
                >
                    2100
                </text>
                <text
                    x="200.2"
                    y="550.4"
                    fill="#5b5b5b"
                    text-anchor="middle"
                    font-size="13"
                >
                    1980
                </text>
                <text
                    x="287.9"
                    y="550.4"
                    fill="#5b5b5b"
                    text-anchor="middle"
                    font-size="13"
                >
                    2000
                </text>
                <text
                    x="375.7"
                    y="550.4"
                    fill="#5b5b5b"
                    text-anchor="middle"
                    font-size="13"
                >
                    2020
                </text>
                <text
                    x="463.4"
                    y="550.4"
                    fill="#5b5b5b"
                    text-anchor="middle"
                    font-size="13"
                >
                    2040
                </text>
                <text
                    x="551.1"
                    y="550.4"
                    fill="#5b5b5b"
                    text-anchor="middle"
                    font-size="13"
                >
                    2060
                </text>
                <text
                    x="638.9"
                    y="550.4"
                    fill="#5b5b5b"
                    text-anchor="middle"
                    font-size="13"
                >
                    2080
                </text>
            </g>
        </g>
        <g id="vertical-axis" class="VerticalAxis">
            <g id="tick-labels">
                <text
                    x="68.00"
                    y="532.4"
                    dy=".32em"
                    text-anchor="end"
                    fill="#5b5b5b"
                    font-size="13"
                >
                    -4 million
                </text>
                <text
                    x="68.00"
                    y="450.8"
                    dy=".32em"
                    text-anchor="end"
                    fill="#5b5b5b"
                    font-size="13"
                >
                    -2 million
                </text>
                <text
                    x="68.00"
                    y="369.2"
                    dy=".32em"
                    text-anchor="end"
                    fill="#5b5b5b"
                    font-size="13"
                >
                    0
                </text>
                <text
                    x="68.00"
                    y="287.6"
                    dy=".32em"
                    text-anchor="end"
                    fill="#5b5b5b"
                    font-size="13"
                >
                    2 million
                </text>
                <text
                    x="68.00"
                    y="206"
                    dy=".32em"
                    text-anchor="end"
                    fill="#5b5b5b"
                    font-size="13"
                >
                    4 million
                </text>
                <text
                    x="68.00"
                    y="124.4"
                    dy=".32em"
                    text-anchor="end"
                    fill="#5b5b5b"
                    font-size="13"
                >
                    6 million
                </text>
            </g>
        </g>
        <g id="horizontal-grid-lines" class="AxisGridLines horizontalLines">
            <line
                id="-4-million"
                x1="73.00"
                y1="532.4"
                x2="726.61"
                y2="532.4"
                stroke="#ddd"
                stroke-dasharray="4,4"
            ></line>
            <line
                id="-2-million"
                x1="73.00"
                y1="450.8"
                x2="726.61"
                y2="450.8"
                stroke="#ddd"
                stroke-dasharray="4,4"
            ></line>
            <line
                id="0"
                x1="73.00"
                y1="369.2"
                x2="726.61"
                y2="369.2"
                stroke="#999"
            ></line>
            <line
                id="2-million"
                x1="73.00"
                y1="287.6"
                x2="726.61"
                y2="287.6"
                stroke="#ddd"
                stroke-dasharray="4,4"
            ></line>
            <line
                id="4-million"
                x1="73.00"
                y1="206"
                x2="726.61"
                y2="206"
                stroke="#ddd"
                stroke-dasharray="4,4"
            ></line>
            <line
                id="6-million"
                x1="73.00"
                y1="124.4"
                x2="726.61"
                y2="124.4"
                stroke="#ddd"
                stroke-dasharray="4,4"
            ></line>
        </g>
        <g id="line-labels" class="LineLabels">
            <g id="connectors">
                <path
                    id="Japan"
                    d="M730.61,369.6 H734.01 V309.075 H747.61"
                    stroke="#999"
                    stroke-width="0.5"
                    fill="none"
                ></path>
                <path
                    id="Brazil"
                    d="M730.61,370.5 H737.41 V327.375 H747.61"
                    stroke="#999"
                    stroke-width="0.5"
                    fill="none"
                ></path>
                <path
                    id="United-States"
                    d="M730.61,370.6 H740.81 V345.675 H747.61"
                    stroke="#999"
                    stroke-width="0.5"
                    fill="none"
                ></path>
                <path
                    id="Indonesia"
                    d="M730.61,371.6 H744.21 V363.975 H747.61"
                    stroke="#999"
                    stroke-width="0.5"
                    fill="none"
                ></path>
                <path
                    id="China"
                    d="M730.61,373.1 H744.21 V382.27500000000003 H747.61"
                    stroke="#999"
                    stroke-width="0.5"
                    fill="none"
                ></path>
                <path
                    id="Nigeria"
                    d="M730.61,374.1 H740.81 V400.57500000000005 H747.61"
                    stroke="#999"
                    stroke-width="0.5"
                    fill="none"
                ></path>
                <path
                    id="Pakistan"
                    d="M730.61,374.4 H737.41 V418.87500000000006 H747.61"
                    stroke="#999"
                    stroke-width="0.5"
                    fill="none"
                ></path>
                <path
                    id="India"
                    d="M730.61,381.1 H734.01 V437.17500000000007 H747.61"
                    stroke="#999"
                    stroke-width="0.5"
                    fill="none"
                ></path>
            </g>
            <g id="text-annotations"></g>
            <g id="text-labels">
                <text
                    id="label__Japan"
                    font-size="13.00"
                    font-weight="400"
                    x="751.6"
                    y="313.9"
                    fill="#6d3e91"
                    opacity="1"
                    text-anchor="start"
                >
                    <tspan x="751.61" y="313.885">Japan</tspan>
                </text>
                <text
                    id="label__Brazil"
                    font-size="13.00"
                    font-weight="400"
                    x="751.6"
                    y="332.2"
                    fill="#4c6a9c"
                    opacity="1"
                    text-anchor="start"
                >
                    <tspan x="751.61" y="332.185">Brazil</tspan>
                </text>
                <text
                    id="label__United-States"
                    font-size="13.00"
                    font-weight="400"
                    x="751.6"
                    y="350.5"
                    fill="#a2559c"
                    opacity="1"
                    text-anchor="start"
                >
                    <tspan x="751.61" y="350.485">United States</tspan>
                </text>
                <text
                    id="label__Indonesia"
                    font-size="13.00"
                    font-weight="400"
                    x="751.6"
                    y="368.8"
                    fill="#2c8465"
                    opacity="1"
                    text-anchor="start"
                >
                    <tspan x="751.61" y="368.785">Indonesia</tspan>
                </text>
                <text
                    id="label__China"
                    font-size="13.00"
                    font-weight="400"
                    x="751.6"
                    y="387.1"
                    fill="#b13507"
                    opacity="1"
                    text-anchor="start"
                >
                    <tspan x="751.61" y="387.08500000000004">China</tspan>
                </text>
                <text
                    id="label__Nigeria"
                    font-size="13.00"
                    font-weight="400"
                    x="751.6"
                    y="405.4"
                    fill="#883039"
                    opacity="1"
                    text-anchor="start"
                >
                    <tspan x="751.61" y="405.38500000000005">Nigeria</tspan>
                </text>
                <text
                    id="label__Pakistan"
                    font-size="13.00"
                    font-weight="400"
                    x="751.6"
                    y="423.7"
                    fill="#00295b"
                    opacity="1"
                    text-anchor="start"
                >
                    <tspan x="751.61" y="423.68500000000006">Pakistan</tspan>
                </text>
                <text
                    id="label__India"
                    font-size="13.00"
                    font-weight="400"
                    x="751.6"
                    y="442.0"
                    fill="#996d39"
                    opacity="1"
                    text-anchor="start"
                >
                    <tspan x="751.61" y="441.98500000000007">India</tspan>
                </text>
            </g>
        </g>
        <g id="lines">
            <path
                fill="none"
                stroke-linecap="butt"
                stroke-linejoin="round"
                stroke="#ffffff"
                id="outline__Japan"
                stroke-width="2.5"
                d="M73 370.5L77.4 360.5L81.8 359.1L86.2 358.5L90.5 357.5L94.9 367.3L99.3 379.6L103.7 383.5L108.1 383.4L112.5 380.6L116.9 378.5L121.3 377.4L125.6 375.1L130 372.1L134.4 371.3L138.8 370.7L143.2 369.1L147.6 368.8L152 368.7L156.3 367L160.7 370.2L165.1 369.4L169.5 364.7L173.9 364.9L178.3 364.5L182.7 359.7L187.1 359.6L191.4 363.2L195.8 363.7L200.2 367.4L204.6 371.8L209 375L213.4 377.4L217.8 378.5L222.1 377.7L226.5 376.3L230.9 375.1L235.3 374L239.7 373.1L244.1 372.6L248.5 372.4L252.9 372.3L257.2 372.7L261.6 373.2L266 373.2L270.4 372.5L274.8 371.8L279.2 371.5L283.6 370.4L287.9 369.6L292.3 369.5L296.7 369.3L301.1 368.9L305.5 369.1L309.9 369.2L314.3 369L318.7 369.5L323 370L327.4 370.4L331.8 371L336.2 371.2L340.6 370.7L345 370.3L349.4 370.1L353.7 369.8L358.1 369.6L362.5 369.8L366.9 370L371.3 370.2L375.7 370.5L380.1 370.8L384.5 371.2L388.8 371.5L393.2 371.8L397.6 372.1L402 372.3L406.4 372.1L410.8 372.1L415.2 373.2L419.5 374.1L423.9 373.6L428.3 373.2L432.7 372.6L437.1 371.6L441.5 370.9L445.9 370.8L450.3 370.7L454.6 370.6L459 370.3L463.4 370L467.8 370L472.2 370L476.6 370L481 369.4L485.3 368.9L489.7 369L494.1 369.1L498.5 369.2L502.9 369.3L507.3 369.4L511.7 369.4L516.1 369.5L520.4 369.7L524.8 369.8L529.2 369.9L533.6 370L538 370.1L542.4 370.2L546.8 370.2L551.1 370.3L555.5 370.3L559.9 370.3L564.3 370.3L568.7 370.3L573.1 370.3L577.5 370.2L581.9 370.1L586.2 370L590.6 369.9L595 369.9L599.4 369.8L603.8 369.7L608.2 369.6L612.6 369.5L616.9 369.5L621.3 369.4L625.7 369.4L630.1 369.3L634.5 369.3L638.9 369.3L643.3 369.3L647.7 369.3L652 369.3L656.4 369.4L660.8 369.4L665.2 369.5L669.6 369.5L674 369.5L678.4 369.5L682.7 369.6L687.1 369.6L691.5 369.6L695.9 369.6L700.3 369.6L704.7 369.6L709.1 369.6L713.5 369.6L717.8 369.6L722.2 369.6L726.6 369.6"
            ></path>
            <path
                fill="none"
                stroke-linecap="butt"
                stroke-linejoin="round"
                stroke="#6d3e91"
                id="line__Japan"
                stroke-width="1.5"
                stroke-opacity="1"
                d="M73 370.5L77.4 360.5L81.8 359.1L86.2 358.5L90.5 357.5L94.9 367.3L99.3 379.6L103.7 383.5L108.1 383.4L112.5 380.6L116.9 378.5L121.3 377.4L125.6 375.1L130 372.1L134.4 371.3L138.8 370.7L143.2 369.1L147.6 368.8L152 368.7L156.3 367L160.7 370.2L165.1 369.4L169.5 364.7L173.9 364.9L178.3 364.5L182.7 359.7L187.1 359.6L191.4 363.2L195.8 363.7L200.2 367.4L204.6 371.8L209 375L213.4 377.4L217.8 378.5L222.1 377.7L226.5 376.3L230.9 375.1L235.3 374L239.7 373.1L244.1 372.6L248.5 372.4L252.9 372.3L257.2 372.7L261.6 373.2L266 373.2L270.4 372.5L274.8 371.8L279.2 371.5L283.6 370.4L287.9 369.6L292.3 369.5L296.7 369.3L301.1 368.9L305.5 369.1L309.9 369.2L314.3 369L318.7 369.5L323 370L327.4 370.4L331.8 371L336.2 371.2L340.6 370.7L345 370.3L349.4 370.1L353.7 369.8L358.1 369.6L362.5 369.8L366.9 370L371.3 370.2L375.7 370.5L380.1 370.8L384.5 371.2L388.8 371.5L393.2 371.8L397.6 372.1L402 372.3L406.4 372.1L410.8 372.1L415.2 373.2L419.5 374.1L423.9 373.6L428.3 373.2L432.7 372.6L437.1 371.6L441.5 370.9L445.9 370.8L450.3 370.7L454.6 370.6L459 370.3L463.4 370L467.8 370L472.2 370L476.6 370L481 369.4L485.3 368.9L489.7 369L494.1 369.1L498.5 369.2L502.9 369.3L507.3 369.4L511.7 369.4L516.1 369.5L520.4 369.7L524.8 369.8L529.2 369.9L533.6 370L538 370.1L542.4 370.2L546.8 370.2L551.1 370.3L555.5 370.3L559.9 370.3L564.3 370.3L568.7 370.3L573.1 370.3L577.5 370.2L581.9 370.1L586.2 370L590.6 369.9L595 369.9L599.4 369.8L603.8 369.7L608.2 369.6L612.6 369.5L616.9 369.5L621.3 369.4L625.7 369.4L630.1 369.3L634.5 369.3L638.9 369.3L643.3 369.3L647.7 369.3L652 369.3L656.4 369.4L660.8 369.4L665.2 369.5L669.6 369.5L674 369.5L678.4 369.5L682.7 369.6L687.1 369.6L691.5 369.6L695.9 369.6L700.3 369.6L704.7 369.6L709.1 369.6L713.5 369.6L717.8 369.6L722.2 369.6L726.6 369.6"
            ></path>
            <path
                fill="none"
                stroke-linecap="butt"
                stroke-linejoin="round"
                stroke="#ffffff"
                id="outline__Brazil"
                stroke-width="2.5"
                d="M73 365L77.4 363.9L81.8 362.8L86.2 361.4L90.5 360.5L94.9 360.5L99.3 360.8L103.7 361.2L108.1 362L112.5 362.4L116.9 362.2L121.3 362.2L125.6 362.1L130 362.1L134.4 362.2L138.8 362.4L143.2 362.6L147.6 363L152 363.7L156.3 364.6L160.7 365.7L165.1 367L169.5 368.1L173.9 368.5L178.3 368.1L182.7 367.2L187.1 366.1L191.4 364.9L195.8 364.3L200.2 364L204.6 363.5L209 363.1L213.4 362.7L217.8 362.2L222.1 361.9L226.5 362.2L230.9 362.9L235.3 363.9L239.7 365.3L244.1 366.8L248.5 368.2L252.9 369.7L257.2 371L261.6 371.9L266 372.6L270.4 373.1L274.8 373.2L279.2 372.7L283.6 371.7L287.9 370.6L292.3 369.6L296.7 368.7L301.1 368.3L305.5 368.9L309.9 370.3L314.3 371.8L318.7 373.4L323 375L327.4 375.5L331.8 374.8L336.2 374.2L340.6 373.8L345 373.3L349.4 373L353.7 373L358.1 372.5L362.5 371.7L366.9 370.9L371.3 370L375.7 369.3L380.1 369.9L384.5 370.4L388.8 370.1L393.2 371.2L397.6 373.3L402 373.8L406.4 373.8L410.8 374.6L415.2 378.4L419.5 381.2L423.9 380.5L428.3 380.3L432.7 380L437.1 378.1L441.5 376.1L445.9 375.7L450.3 375.5L454.6 375.3L459 374.3L463.4 373.4L467.8 373.4L472.2 373.3L476.6 373.2L481 371.7L485.3 370.3L489.7 370.3L494.1 370.5L498.5 370.7L502.9 370.8L507.3 371L511.7 371.2L516.1 371.3L520.4 371.4L524.8 371.5L529.2 371.6L533.6 371.7L538 371.7L542.4 371.8L546.8 371.9L551.1 371.9L555.5 372L559.9 372.1L564.3 372.1L568.7 372.2L573.1 372.2L577.5 372.2L581.9 372.1L586.2 372L590.6 371.9L595 371.7L599.4 371.6L603.8 371.4L608.2 371.3L612.6 371.1L616.9 371L621.3 370.8L625.7 370.7L630.1 370.5L634.5 370.4L638.9 370.4L643.3 370.3L647.7 370.3L652 370.3L656.4 370.3L660.8 370.4L665.2 370.4L669.6 370.4L674 370.4L678.4 370.5L682.7 370.5L687.1 370.5L691.5 370.5L695.9 370.6L700.3 370.6L704.7 370.6L709.1 370.5L713.5 370.5L717.8 370.5L722.2 370.5L726.6 370.5"
            ></path>
            <path
                fill="none"
                stroke-linecap="butt"
                stroke-linejoin="round"
                stroke="#4c6a9c"
                id="line__Brazil"
                stroke-width="1.5"
                stroke-opacity="1"
                d="M73 365L77.4 363.9L81.8 362.8L86.2 361.4L90.5 360.5L94.9 360.5L99.3 360.8L103.7 361.2L108.1 362L112.5 362.4L116.9 362.2L121.3 362.2L125.6 362.1L130 362.1L134.4 362.2L138.8 362.4L143.2 362.6L147.6 363L152 363.7L156.3 364.6L160.7 365.7L165.1 367L169.5 368.1L173.9 368.5L178.3 368.1L182.7 367.2L187.1 366.1L191.4 364.9L195.8 364.3L200.2 364L204.6 363.5L209 363.1L213.4 362.7L217.8 362.2L222.1 361.9L226.5 362.2L230.9 362.9L235.3 363.9L239.7 365.3L244.1 366.8L248.5 368.2L252.9 369.7L257.2 371L261.6 371.9L266 372.6L270.4 373.1L274.8 373.2L279.2 372.7L283.6 371.7L287.9 370.6L292.3 369.6L296.7 368.7L301.1 368.3L305.5 368.9L309.9 370.3L314.3 371.8L318.7 373.4L323 375L327.4 375.5L331.8 374.8L336.2 374.2L340.6 373.8L345 373.3L349.4 373L353.7 373L358.1 372.5L362.5 371.7L366.9 370.9L371.3 370L375.7 369.3L380.1 369.9L384.5 370.4L388.8 370.1L393.2 371.2L397.6 373.3L402 373.8L406.4 373.8L410.8 374.6L415.2 378.4L419.5 381.2L423.9 380.5L428.3 380.3L432.7 380L437.1 378.1L441.5 376.1L445.9 375.7L450.3 375.5L454.6 375.3L459 374.3L463.4 373.4L467.8 373.4L472.2 373.3L476.6 373.2L481 371.7L485.3 370.3L489.7 370.3L494.1 370.5L498.5 370.7L502.9 370.8L507.3 371L511.7 371.2L516.1 371.3L520.4 371.4L524.8 371.5L529.2 371.6L533.6 371.7L538 371.7L542.4 371.8L546.8 371.9L551.1 371.9L555.5 372L559.9 372.1L564.3 372.1L568.7 372.2L573.1 372.2L577.5 372.2L581.9 372.1L586.2 372L590.6 371.9L595 371.7L599.4 371.6L603.8 371.4L608.2 371.3L612.6 371.1L616.9 371L621.3 370.8L625.7 370.7L630.1 370.5L634.5 370.4L638.9 370.4L643.3 370.3L647.7 370.3L652 370.3L656.4 370.3L660.8 370.4L665.2 370.4L669.6 370.4L674 370.4L678.4 370.5L682.7 370.5L687.1 370.5L691.5 370.5L695.9 370.6L700.3 370.6L704.7 370.6L709.1 370.5L713.5 370.5L717.8 370.5L722.2 370.5L726.6 370.5"
            ></path>
            <path
                fill="none"
                stroke-linecap="butt"
                stroke-linejoin="round"
                stroke="#ffffff"
                id="outline__Nigeria"
                stroke-width="2.5"
                d="M73 367.1L77.4 367.4L81.8 367.8L86.2 368.1L90.5 367.9L94.9 367.4L99.3 367L103.7 366.6L108.1 366.2L112.5 366.2L116.9 366.3L121.3 366.2L125.6 366.1L130 366L134.4 365.9L138.8 365.8L143.2 365.7L147.6 365.5L152 365.3L156.3 365.2L160.7 365.1L165.1 365L169.5 364.7L173.9 364.4L178.3 364L182.7 363.4L187.1 362.7L191.4 362.2L195.8 361.4L200.2 360.7L204.6 360.2L209 360L213.4 360.4L217.8 360.6L222.1 360.7L226.5 361.3L230.9 361.9L235.3 362.4L239.7 362.9L244.1 363.4L248.5 363.9L252.9 364.3L257.2 364.4L261.6 363.7L266 362.9L270.4 362.3L274.8 361.6L279.2 361L283.6 360.7L287.9 360L292.3 359.1L296.7 358.8L301.1 358.7L305.5 357.9L309.9 356.6L314.3 355.3L318.7 354.3L323 353.3L327.4 353.1L331.8 353.6L336.2 354.1L340.6 354.3L345 354.2L349.4 354.1L353.7 354.5L358.1 354.8L362.5 355.5L366.9 356.8L371.3 358.1L375.7 359.6L380.1 362.3L384.5 364.8L388.8 366.7L393.2 368.8L397.6 370.4L402 369.4L406.4 367L410.8 364.9L415.2 366.9L419.5 369.2L423.9 368.8L428.3 369.7L432.7 370.7L437.1 370.1L441.5 369.4L445.9 370.1L450.3 370.4L454.6 370.9L459 371.1L463.4 371.1L467.8 371.5L472.2 372.2L476.6 372.7L481 371L485.3 369.6L489.7 370.3L494.1 370.9L498.5 371.5L502.9 372.1L507.3 372.7L511.7 373.1L516.1 373.4L520.4 373.8L524.8 374.2L529.2 374.3L533.6 374.5L538 374.6L542.4 374.6L546.8 374.8L551.1 375.1L555.5 375.2L559.9 375.4L564.3 375.5L568.7 375.3L573.1 375.1L577.5 375.1L581.9 375.1L586.2 375.2L590.6 375.3L595 375.3L599.4 375.3L603.8 375.1L608.2 374.9L612.6 374.8L616.9 374.7L621.3 374.6L625.7 374.6L630.1 374.7L634.5 374.6L638.9 374.6L643.3 374.7L647.7 374.7L652 374.7L656.4 374.7L660.8 374.8L665.2 374.8L669.6 374.7L674 374.7L678.4 374.7L682.7 374.6L687.1 374.6L691.5 374.6L695.9 374.6L700.3 374.5L704.7 374.4L709.1 374.3L713.5 374.3L717.8 374.2L722.2 374.1L726.6 374.1"
            ></path>
            <path
                fill="none"
                stroke-linecap="butt"
                stroke-linejoin="round"
                stroke="#883039"
                id="line__Nigeria"
                stroke-width="1.5"
                stroke-opacity="1"
                d="M73 367.1L77.4 367.4L81.8 367.8L86.2 368.1L90.5 367.9L94.9 367.4L99.3 367L103.7 366.6L108.1 366.2L112.5 366.2L116.9 366.3L121.3 366.2L125.6 366.1L130 366L134.4 365.9L138.8 365.8L143.2 365.7L147.6 365.5L152 365.3L156.3 365.2L160.7 365.1L165.1 365L169.5 364.7L173.9 364.4L178.3 364L182.7 363.4L187.1 362.7L191.4 362.2L195.8 361.4L200.2 360.7L204.6 360.2L209 360L213.4 360.4L217.8 360.6L222.1 360.7L226.5 361.3L230.9 361.9L235.3 362.4L239.7 362.9L244.1 363.4L248.5 363.9L252.9 364.3L257.2 364.4L261.6 363.7L266 362.9L270.4 362.3L274.8 361.6L279.2 361L283.6 360.7L287.9 360L292.3 359.1L296.7 358.8L301.1 358.7L305.5 357.9L309.9 356.6L314.3 355.3L318.7 354.3L323 353.3L327.4 353.1L331.8 353.6L336.2 354.1L340.6 354.3L345 354.2L349.4 354.1L353.7 354.5L358.1 354.8L362.5 355.5L366.9 356.8L371.3 358.1L375.7 359.6L380.1 362.3L384.5 364.8L388.8 366.7L393.2 368.8L397.6 370.4L402 369.4L406.4 367L410.8 364.9L415.2 366.9L419.5 369.2L423.9 368.8L428.3 369.7L432.7 370.7L437.1 370.1L441.5 369.4L445.9 370.1L450.3 370.4L454.6 370.9L459 371.1L463.4 371.1L467.8 371.5L472.2 372.2L476.6 372.7L481 371L485.3 369.6L489.7 370.3L494.1 370.9L498.5 371.5L502.9 372.1L507.3 372.7L511.7 373.1L516.1 373.4L520.4 373.8L524.8 374.2L529.2 374.3L533.6 374.5L538 374.6L542.4 374.6L546.8 374.8L551.1 375.1L555.5 375.2L559.9 375.4L564.3 375.5L568.7 375.3L573.1 375.1L577.5 375.1L581.9 375.1L586.2 375.2L590.6 375.3L595 375.3L599.4 375.3L603.8 375.1L608.2 374.9L612.6 374.8L616.9 374.7L621.3 374.6L625.7 374.6L630.1 374.7L634.5 374.6L638.9 374.6L643.3 374.7L647.7 374.7L652 374.7L656.4 374.7L660.8 374.8L665.2 374.8L669.6 374.7L674 374.7L678.4 374.7L682.7 374.6L687.1 374.6L691.5 374.6L695.9 374.6L700.3 374.5L704.7 374.4L709.1 374.3L713.5 374.3L717.8 374.2L722.2 374.1L726.6 374.1"
            ></path>
            <path
                fill="none"
                stroke-linecap="butt"
                stroke-linejoin="round"
                stroke="#ffffff"
                id="outline__Pakistan"
                stroke-width="2.5"
                d="M73 366.6L77.4 367L81.8 367.9L86.2 369.1L90.5 369.4L94.9 368.9L99.3 368L103.7 366.7L108.1 365L112.5 364.2L116.9 364.1L121.3 364L125.6 363.9L130 363.8L134.4 363.6L138.8 363.5L143.2 363.5L147.6 363.5L152 363.6L156.3 363.7L160.7 364L165.1 364.1L169.5 364L173.9 364.1L178.3 364.1L182.7 363.9L187.1 363.6L191.4 363.1L195.8 362.5L200.2 361.8L204.6 361.3L209 361.2L213.4 360.9L217.8 360.3L222.1 359.4L226.5 357.9L230.9 356.4L235.3 355.7L239.7 355.6L244.1 355.8L248.5 356.5L252.9 357.3L257.2 357.7L261.6 357.8L266 357.9L270.4 358.1L274.8 358.5L279.2 359.4L283.6 360.4L287.9 361.1L292.3 362L296.7 363.1L301.1 363.5L305.5 362.6L309.9 362L314.3 362.3L318.7 362.6L323 362.9L327.4 364.6L331.8 366.1L336.2 364.5L340.6 361.7L345 359L349.4 355.7L353.7 353.3L358.1 354.2L362.5 356.8L366.9 359.9L371.3 363.3L375.7 366.1L380.1 368.3L384.5 368.8L388.8 368.1L393.2 367.9L397.6 367.2L402 365.4L406.4 364.4L410.8 364.5L415.2 369.4L419.5 374.3L423.9 374.8L428.3 375.2L432.7 375.1L437.1 372.9L441.5 370.8L445.9 370.4L450.3 370.2L454.6 370.1L459 369.6L463.4 369.3L467.8 369.7L472.2 370.1L476.6 370.7L481 369.1L485.3 367.5L489.7 368.1L494.1 368.9L498.5 369.6L502.9 370.2L507.3 370.8L511.7 371.4L516.1 372L520.4 372.6L524.8 373.2L529.2 373.9L533.6 374.4L538 374.6L542.4 374.7L546.8 374.7L551.1 374.7L555.5 374.7L559.9 374.9L564.3 375.2L568.7 375.5L573.1 375.5L577.5 375.4L581.9 375.2L586.2 374.7L590.6 374.4L595 374.2L599.4 374.1L603.8 374.1L608.2 374.1L612.6 374.2L616.9 374.2L621.3 374.2L625.7 374.2L630.1 374.4L634.5 374.5L638.9 374.5L643.3 374.5L647.7 374.6L652 374.7L656.4 374.8L660.8 374.8L665.2 374.9L669.6 375L674 375.1L678.4 375.2L682.7 375.3L687.1 375.3L691.5 375.4L695.9 375.3L700.3 375.1L704.7 375L709.1 374.8L713.5 374.7L717.8 374.4L722.2 374.4L726.6 374.4"
            ></path>
            <path
                fill="none"
                stroke-linecap="butt"
                stroke-linejoin="round"
                stroke="#00295b"
                id="line__Pakistan"
                stroke-width="1.5"
                stroke-opacity="1"
                d="M73 366.6L77.4 367L81.8 367.9L86.2 369.1L90.5 369.4L94.9 368.9L99.3 368L103.7 366.7L108.1 365L112.5 364.2L116.9 364.1L121.3 364L125.6 363.9L130 363.8L134.4 363.6L138.8 363.5L143.2 363.5L147.6 363.5L152 363.6L156.3 363.7L160.7 364L165.1 364.1L169.5 364L173.9 364.1L178.3 364.1L182.7 363.9L187.1 363.6L191.4 363.1L195.8 362.5L200.2 361.8L204.6 361.3L209 361.2L213.4 360.9L217.8 360.3L222.1 359.4L226.5 357.9L230.9 356.4L235.3 355.7L239.7 355.6L244.1 355.8L248.5 356.5L252.9 357.3L257.2 357.7L261.6 357.8L266 357.9L270.4 358.1L274.8 358.5L279.2 359.4L283.6 360.4L287.9 361.1L292.3 362L296.7 363.1L301.1 363.5L305.5 362.6L309.9 362L314.3 362.3L318.7 362.6L323 362.9L327.4 364.6L331.8 366.1L336.2 364.5L340.6 361.7L345 359L349.4 355.7L353.7 353.3L358.1 354.2L362.5 356.8L366.9 359.9L371.3 363.3L375.7 366.1L380.1 368.3L384.5 368.8L388.8 368.1L393.2 367.9L397.6 367.2L402 365.4L406.4 364.4L410.8 364.5L415.2 369.4L419.5 374.3L423.9 374.8L428.3 375.2L432.7 375.1L437.1 372.9L441.5 370.8L445.9 370.4L450.3 370.2L454.6 370.1L459 369.6L463.4 369.3L467.8 369.7L472.2 370.1L476.6 370.7L481 369.1L485.3 367.5L489.7 368.1L494.1 368.9L498.5 369.6L502.9 370.2L507.3 370.8L511.7 371.4L516.1 372L520.4 372.6L524.8 373.2L529.2 373.9L533.6 374.4L538 374.6L542.4 374.7L546.8 374.7L551.1 374.7L555.5 374.7L559.9 374.9L564.3 375.2L568.7 375.5L573.1 375.5L577.5 375.4L581.9 375.2L586.2 374.7L590.6 374.4L595 374.2L599.4 374.1L603.8 374.1L608.2 374.1L612.6 374.2L616.9 374.2L621.3 374.2L625.7 374.2L630.1 374.4L634.5 374.5L638.9 374.5L643.3 374.5L647.7 374.6L652 374.7L656.4 374.8L660.8 374.8L665.2 374.9L669.6 375L674 375.1L678.4 375.2L682.7 375.3L687.1 375.3L691.5 375.4L695.9 375.3L700.3 375.1L704.7 375L709.1 374.8L713.5 374.7L717.8 374.4L722.2 374.4L726.6 374.4"
            ></path>
            <path
                fill="none"
                stroke-linecap="butt"
                stroke-linejoin="round"
                stroke="#ffffff"
                id="outline__Indonesia"
                stroke-width="2.5"
                d="M73 368.5L77.4 368.7L81.8 369.1L86.2 369.9L90.5 369.4L94.9 367.4L99.3 365.2L103.7 362.8L108.1 359.9L112.5 358.2L116.9 358.2L121.3 358.1L125.6 358.1L130 358.1L134.4 358.6L138.8 359.1L143.2 359L147.6 359.1L152 359.4L156.3 359.6L160.7 359.6L165.1 359.8L169.5 360.2L173.9 360.6L178.3 361.2L182.7 362.2L187.1 363L191.4 363.1L195.8 363.9L200.2 364.5L204.6 364.3L209 364.4L213.4 364.4L217.8 363.8L222.1 363.7L226.5 364.2L230.9 364.3L235.3 365L239.7 366.3L244.1 368.4L248.5 370.9L252.9 372.4L257.2 372.3L261.6 372L266 371.3L270.4 369.3L274.8 368.5L279.2 369L283.6 368.6L287.9 367.2L292.3 366.2L296.7 365.4L301.1 365.5L305.5 367.7L309.9 369.6L314.3 370.8L318.7 371.5L323 371.2L327.4 369.4L331.8 366.6L336.2 364.5L340.6 363.4L345 363.2L349.4 363.8L353.7 364.6L358.1 364.5L362.5 364.3L366.9 365.8L371.3 367.7L375.7 370.2L380.1 373.4L384.5 376.5L388.8 377.1L393.2 375.9L397.6 374.8L402 374.1L406.4 373.1L410.8 372.1L415.2 376.9L419.5 382L423.9 381.9L428.3 381.7L432.7 381.6L437.1 379.5L441.5 377.5L445.9 377.3L450.3 377L454.6 376.7L459 375.4L463.4 374.4L467.8 374.4L472.2 374.4L476.6 374.5L481 372.5L485.3 370.5L489.7 370.7L494.1 371L498.5 371.3L502.9 371.7L507.3 372L511.7 372.4L516.1 372.7L520.4 372.9L524.8 373.2L529.2 373.5L533.6 373.9L538 374.2L542.4 374.5L546.8 374.8L551.1 374.9L555.5 374.9L559.9 374.9L564.3 374.8L568.7 374.6L573.1 374.4L577.5 374.3L581.9 374.1L586.2 373.8L590.6 373.5L595 373.2L599.4 372.8L603.8 372.6L608.2 372.4L612.6 372.2L616.9 372L621.3 371.9L625.7 371.8L630.1 371.7L634.5 371.7L638.9 371.7L643.3 371.7L647.7 371.7L652 371.8L656.4 371.9L660.8 372L665.2 372L669.6 372L674 372.1L678.4 372.1L682.7 372.2L687.1 372.2L691.5 372.3L695.9 372.3L700.3 372.2L704.7 372.1L709.1 372.1L713.5 372L717.8 371.8L722.2 371.7L726.6 371.6"
            ></path>
            <path
                fill="none"
                stroke-linecap="butt"
                stroke-linejoin="round"
                stroke="#2c8465"
                id="line__Indonesia"
                stroke-width="1.5"
                stroke-opacity="1"
                d="M73 368.5L77.4 368.7L81.8 369.1L86.2 369.9L90.5 369.4L94.9 367.4L99.3 365.2L103.7 362.8L108.1 359.9L112.5 358.2L116.9 358.2L121.3 358.1L125.6 358.1L130 358.1L134.4 358.6L138.8 359.1L143.2 359L147.6 359.1L152 359.4L156.3 359.6L160.7 359.6L165.1 359.8L169.5 360.2L173.9 360.6L178.3 361.2L182.7 362.2L187.1 363L191.4 363.1L195.8 363.9L200.2 364.5L204.6 364.3L209 364.4L213.4 364.4L217.8 363.8L222.1 363.7L226.5 364.2L230.9 364.3L235.3 365L239.7 366.3L244.1 368.4L248.5 370.9L252.9 372.4L257.2 372.3L261.6 372L266 371.3L270.4 369.3L274.8 368.5L279.2 369L283.6 368.6L287.9 367.2L292.3 366.2L296.7 365.4L301.1 365.5L305.5 367.7L309.9 369.6L314.3 370.8L318.7 371.5L323 371.2L327.4 369.4L331.8 366.6L336.2 364.5L340.6 363.4L345 363.2L349.4 363.8L353.7 364.6L358.1 364.5L362.5 364.3L366.9 365.8L371.3 367.7L375.7 370.2L380.1 373.4L384.5 376.5L388.8 377.1L393.2 375.9L397.6 374.8L402 374.1L406.4 373.1L410.8 372.1L415.2 376.9L419.5 382L423.9 381.9L428.3 381.7L432.7 381.6L437.1 379.5L441.5 377.5L445.9 377.3L450.3 377L454.6 376.7L459 375.4L463.4 374.4L467.8 374.4L472.2 374.4L476.6 374.5L481 372.5L485.3 370.5L489.7 370.7L494.1 371L498.5 371.3L502.9 371.7L507.3 372L511.7 372.4L516.1 372.7L520.4 372.9L524.8 373.2L529.2 373.5L533.6 373.9L538 374.2L542.4 374.5L546.8 374.8L551.1 374.9L555.5 374.9L559.9 374.9L564.3 374.8L568.7 374.6L573.1 374.4L577.5 374.3L581.9 374.1L586.2 373.8L590.6 373.5L595 373.2L599.4 372.8L603.8 372.6L608.2 372.4L612.6 372.2L616.9 372L621.3 371.9L625.7 371.8L630.1 371.7L634.5 371.7L638.9 371.7L643.3 371.7L647.7 371.7L652 371.8L656.4 371.9L660.8 372L665.2 372L669.6 372L674 372.1L678.4 372.1L682.7 372.2L687.1 372.2L691.5 372.3L695.9 372.3L700.3 372.2L704.7 372.1L709.1 372.1L713.5 372L717.8 371.8L722.2 371.7L726.6 371.6"
            ></path>
            <path
                fill="none"
                stroke-linecap="butt"
                stroke-linejoin="round"
                stroke="#ffffff"
                id="outline__United-States"
                stroke-width="2.5"
                d="M73 357.5L77.4 353.3L81.8 355.3L86.2 356.2L90.5 354.7L94.9 359.1L99.3 365.1L103.7 363.9L108.1 360.6L112.5 358.5L116.9 358L121.3 359.3L125.6 361L130 363.1L134.4 365.5L138.8 366.9L143.2 368.9L147.6 371.8L152 373.4L156.3 375.9L160.7 379.9L165.1 381.9L169.5 381.7L173.9 380L178.3 375L182.7 371.3L187.1 372.9L191.4 375.1L195.8 376.3L200.2 378.2L204.6 377.8L209 371.7L213.4 366L217.8 363.4L222.1 361.2L226.5 360.4L230.9 361.6L235.3 363.2L239.7 364.9L244.1 366.4L248.5 366.1L252.9 365.4L257.2 364.3L261.6 362.7L266 361.6L270.4 361.8L274.8 363.7L279.2 366.7L283.6 370.1L287.9 373.5L292.3 375L296.7 374.1L301.1 372.1L305.5 369.8L309.9 367.2L314.3 365.6L318.7 365.7L323 365.6L327.4 365.7L331.8 366.3L336.2 365.3L340.6 363L345 363.1L349.4 365.3L353.7 367.8L358.1 370.7L362.5 372.9L366.9 373.5L371.3 372L375.7 371.1L380.1 371.1L384.5 371.4L388.8 372.4L393.2 373.7L397.6 375.8L402 376L406.4 373.2L410.8 371.5L415.2 376.6L419.5 380.2L423.9 379.3L428.3 380.6L432.7 380.5L437.1 377.3L441.5 375L445.9 374.9L450.3 374.7L454.6 374.4L459 373.3L463.4 372.2L467.8 372L472.2 372L476.6 372L481 369.8L485.3 367.6L489.7 368L494.1 368.3L498.5 368.7L502.9 369.2L507.3 369.6L511.7 370L516.1 370.5L520.4 370.8L524.8 371.2L529.2 371.6L533.6 371.9L538 372.1L542.4 372.3L546.8 372.4L551.1 372.7L555.5 372.8L559.9 372.8L564.3 372.9L568.7 372.9L573.1 372.7L577.5 372.5L581.9 372.3L586.2 372.1L590.6 371.8L595 371.5L599.4 371.1L603.8 370.8L608.2 370.5L612.6 370.2L616.9 369.9L621.3 369.7L625.7 369.7L630.1 369.7L634.5 369.7L638.9 369.7L643.3 369.7L647.7 369.6L652 369.7L656.4 369.8L660.8 370L665.2 370.2L669.6 370.3L674 370.4L678.4 370.6L682.7 370.7L687.1 370.7L691.5 370.7L695.9 370.7L700.3 370.7L704.7 370.6L709.1 370.7L713.5 370.7L717.8 370.6L722.2 370.6L726.6 370.6"
            ></path>
            <path
                fill="none"
                stroke-linecap="butt"
                stroke-linejoin="round"
                stroke="#a2559c"
                id="line__United-States"
                stroke-width="1.5"
                stroke-opacity="1"
                d="M73 357.5L77.4 353.3L81.8 355.3L86.2 356.2L90.5 354.7L94.9 359.1L99.3 365.1L103.7 363.9L108.1 360.6L112.5 358.5L116.9 358L121.3 359.3L125.6 361L130 363.1L134.4 365.5L138.8 366.9L143.2 368.9L147.6 371.8L152 373.4L156.3 375.9L160.7 379.9L165.1 381.9L169.5 381.7L173.9 380L178.3 375L182.7 371.3L187.1 372.9L191.4 375.1L195.8 376.3L200.2 378.2L204.6 377.8L209 371.7L213.4 366L217.8 363.4L222.1 361.2L226.5 360.4L230.9 361.6L235.3 363.2L239.7 364.9L244.1 366.4L248.5 366.1L252.9 365.4L257.2 364.3L261.6 362.7L266 361.6L270.4 361.8L274.8 363.7L279.2 366.7L283.6 370.1L287.9 373.5L292.3 375L296.7 374.1L301.1 372.1L305.5 369.8L309.9 367.2L314.3 365.6L318.7 365.7L323 365.6L327.4 365.7L331.8 366.3L336.2 365.3L340.6 363L345 363.1L349.4 365.3L353.7 367.8L358.1 370.7L362.5 372.9L366.9 373.5L371.3 372L375.7 371.1L380.1 371.1L384.5 371.4L388.8 372.4L393.2 373.7L397.6 375.8L402 376L406.4 373.2L410.8 371.5L415.2 376.6L419.5 380.2L423.9 379.3L428.3 380.6L432.7 380.5L437.1 377.3L441.5 375L445.9 374.9L450.3 374.7L454.6 374.4L459 373.3L463.4 372.2L467.8 372L472.2 372L476.6 372L481 369.8L485.3 367.6L489.7 368L494.1 368.3L498.5 368.7L502.9 369.2L507.3 369.6L511.7 370L516.1 370.5L520.4 370.8L524.8 371.2L529.2 371.6L533.6 371.9L538 372.1L542.4 372.3L546.8 372.4L551.1 372.7L555.5 372.8L559.9 372.8L564.3 372.9L568.7 372.9L573.1 372.7L577.5 372.5L581.9 372.3L586.2 372.1L590.6 371.8L595 371.5L599.4 371.1L603.8 370.8L608.2 370.5L612.6 370.2L616.9 369.9L621.3 369.7L625.7 369.7L630.1 369.7L634.5 369.7L638.9 369.7L643.3 369.7L647.7 369.6L652 369.7L656.4 369.8L660.8 370L665.2 370.2L669.6 370.3L674 370.4L678.4 370.6L682.7 370.7L687.1 370.7L691.5 370.7L695.9 370.7L700.3 370.7L704.7 370.6L709.1 370.7L713.5 370.7L717.8 370.6L722.2 370.6L726.6 370.6"
            ></path>
            <path
                fill="none"
                stroke-linecap="butt"
                stroke-linejoin="round"
                stroke="#ffffff"
                id="outline__India"
                stroke-width="2.5"
                d="M73 355.5L77.4 352.7L81.8 352.1L86.2 342.4L90.5 330.3L94.9 326.9L99.3 323.5L103.7 318.5L108.1 323.2L112.5 331.8L116.9 333.5L121.3 335.3L125.6 337.9L130 340.7L134.4 342.1L138.8 342.1L143.2 341.7L147.6 340.6L152 339.5L156.3 340.4L160.7 342.1L165.1 342.3L169.5 341.4L173.9 341L178.3 339.9L182.7 337.2L187.1 335.5L191.4 334.6L195.8 332.5L200.2 332L204.6 332.7L209 333.6L213.4 335.8L217.8 335.5L222.1 330.5L226.5 327.2L230.9 325.6L235.3 322.3L239.7 320.9L244.1 323.3L248.5 325.1L252.9 327.3L257.2 332.2L261.6 337L266 342.1L270.4 347.8L274.8 351.1L279.2 352.9L283.6 355.6L287.9 355.9L292.3 356.2L296.7 357L301.1 356.5L305.5 355.7L309.9 353.4L314.3 348.9L318.7 348.6L323 353.9L327.4 360.3L331.8 370.1L336.2 382.9L340.6 390.5L345 390.2L349.4 385.5L353.7 381.9L358.1 379.1L362.5 376.5L366.9 378.8L371.3 391.4L375.7 396.8L380.1 390.3L384.5 393.1L388.8 393L393.2 383.8L397.6 386.9L402 396.2L406.4 392.2L410.8 387.9L415.2 414.2L419.5 433.7L423.9 428.4L428.3 428.6L432.7 430.3L437.1 421L441.5 410.9L445.9 411.4L450.3 412.7L454.6 413.7L459 408.8L463.4 404L467.8 404.9L472.2 405.4L476.6 406.1L481 395.4L485.3 384.2L489.7 384.4L494.1 384.6L498.5 384.5L502.9 384.4L507.3 385.1L511.7 386.1L516.1 387.1L520.4 388.4L524.8 389.8L529.2 391L533.6 392.2L538 393.4L542.4 394.5L546.8 395.8L551.1 397L555.5 397.4L559.9 397.4L564.3 397.2L568.7 396.8L573.1 395.9L577.5 395.3L581.9 394.3L586.2 392.9L590.6 391.2L595 389.7L599.4 388.2L603.8 386.8L608.2 385.7L612.6 384.8L616.9 383.8L621.3 382.8L625.7 382L630.1 381.5L634.5 381L638.9 380.9L643.3 381.1L647.7 381.2L652 381.4L656.4 381.9L660.8 382.3L665.2 382.8L669.6 383.3L674 383.5L678.4 383.7L682.7 383.9L687.1 383.8L691.5 383.6L695.9 383.5L700.3 383.2L704.7 382.9L709.1 382.6L713.5 382.2L717.8 381.9L722.2 381.6L726.6 381.1"
            ></path>
            <path
                fill="none"
                stroke-linecap="butt"
                stroke-linejoin="round"
                stroke="#996d39"
                id="line__India"
                stroke-width="1.5"
                stroke-opacity="1"
                d="M73 355.5L77.4 352.7L81.8 352.1L86.2 342.4L90.5 330.3L94.9 326.9L99.3 323.5L103.7 318.5L108.1 323.2L112.5 331.8L116.9 333.5L121.3 335.3L125.6 337.9L130 340.7L134.4 342.1L138.8 342.1L143.2 341.7L147.6 340.6L152 339.5L156.3 340.4L160.7 342.1L165.1 342.3L169.5 341.4L173.9 341L178.3 339.9L182.7 337.2L187.1 335.5L191.4 334.6L195.8 332.5L200.2 332L204.6 332.7L209 333.6L213.4 335.8L217.8 335.5L222.1 330.5L226.5 327.2L230.9 325.6L235.3 322.3L239.7 320.9L244.1 323.3L248.5 325.1L252.9 327.3L257.2 332.2L261.6 337L266 342.1L270.4 347.8L274.8 351.1L279.2 352.9L283.6 355.6L287.9 355.9L292.3 356.2L296.7 357L301.1 356.5L305.5 355.7L309.9 353.4L314.3 348.9L318.7 348.6L323 353.9L327.4 360.3L331.8 370.1L336.2 382.9L340.6 390.5L345 390.2L349.4 385.5L353.7 381.9L358.1 379.1L362.5 376.5L366.9 378.8L371.3 391.4L375.7 396.8L380.1 390.3L384.5 393.1L388.8 393L393.2 383.8L397.6 386.9L402 396.2L406.4 392.2L410.8 387.9L415.2 414.2L419.5 433.7L423.9 428.4L428.3 428.6L432.7 430.3L437.1 421L441.5 410.9L445.9 411.4L450.3 412.7L454.6 413.7L459 408.8L463.4 404L467.8 404.9L472.2 405.4L476.6 406.1L481 395.4L485.3 384.2L489.7 384.4L494.1 384.6L498.5 384.5L502.9 384.4L507.3 385.1L511.7 386.1L516.1 387.1L520.4 388.4L524.8 389.8L529.2 391L533.6 392.2L538 393.4L542.4 394.5L546.8 395.8L551.1 397L555.5 397.4L559.9 397.4L564.3 397.2L568.7 396.8L573.1 395.9L577.5 395.3L581.9 394.3L586.2 392.9L590.6 391.2L595 389.7L599.4 388.2L603.8 386.8L608.2 385.7L612.6 384.8L616.9 383.8L621.3 382.8L625.7 382L630.1 381.5L634.5 381L638.9 380.9L643.3 381.1L647.7 381.2L652 381.4L656.4 381.9L660.8 382.3L665.2 382.8L669.6 383.3L674 383.5L678.4 383.7L682.7 383.9L687.1 383.8L691.5 383.6L695.9 383.5L700.3 383.2L704.7 382.9L709.1 382.6L713.5 382.2L717.8 381.9L722.2 381.6L726.6 381.1"
            ></path>
            <path
                fill="none"
                stroke-linecap="butt"
                stroke-linejoin="round"
                stroke="#ffffff"
                id="outline__China"
                stroke-width="2.5"
                d="M73 341.9L77.4 326.9L81.8 307L86.2 291L90.5 269.9L94.9 262L99.3 249.6L103.7 250.2L108.1 273.7L112.5 299.9L116.9 333.7L121.3 345.8L125.6 367.6L130 430.9L134.4 481L138.8 482.9L143.2 405.9L147.6 247.5L152 157.4L156.3 147.5L160.7 141.3L165.1 242.5L169.5 364.5L173.9 361.3L178.3 334.2L182.7 338.1L187.1 341.2L191.4 380L195.8 436.9L200.2 477.2L204.6 499.8L209 501L213.4 500.5L217.8 467.4L222.1 414.7L226.5 371.3L230.9 322.6L235.3 315.4L239.7 337.8L244.1 329.5L248.5 314.4L252.9 309.1L257.2 299.4L261.6 290.4L266 298.8L270.4 369.9L274.8 465.2L279.2 490.4L283.6 500.6L287.9 525.4L292.3 493.5L296.7 441L301.1 428.2L305.5 420.9L309.9 406L314.3 397.1L318.7 395.6L323 388.6L327.4 379.9L331.8 379.1L336.2 372.6L340.6 356.2L345 344.6L349.4 337.5L353.7 339L358.1 344.4L362.5 337.1L366.9 340.4L371.3 352.5L375.7 361.5L380.1 363.2L384.5 367.9L388.8 400.8L393.2 432.5L397.6 458L402 492.5L406.4 523.6L410.8 511.2L415.2 503.3L419.5 493.5L423.9 456.6L428.3 434.6L432.7 420.1L437.1 405.3L441.5 395.1L445.9 394.1L450.3 393L454.6 391.9L459 386.6L463.4 381.4L467.8 380.6L472.2 379.8L476.6 379L481 371L485.3 363.6L489.7 364.1L494.1 365L498.5 365.9L502.9 366.9L507.3 368.4L511.7 370.2L516.1 372.6L520.4 375.7L524.8 378.8L529.2 381.8L533.6 384.6L538 387.1L542.4 388.9L546.8 390.3L551.1 391.3L555.5 391.3L559.9 390.8L564.3 389.8L568.7 388.4L573.1 386.6L577.5 384.8L581.9 382.9L586.2 380.8L590.6 378.9L595 377.1L599.4 375.5L603.8 374.1L608.2 373L612.6 372.1L616.9 371.3L621.3 370.8L625.7 370.4L630.1 370.1L634.5 370L638.9 370.1L643.3 370.2L647.7 370.6L652 371L656.4 371.5L660.8 372.1L665.2 372.6L669.6 373.2L674 373.6L678.4 374.1L682.7 374.4L687.1 374.7L691.5 374.9L695.9 375L700.3 375L704.7 374.8L709.1 374.6L713.5 374.3L717.8 373.9L722.2 373.5L726.6 373.1"
            ></path>
            <path
                fill="none"
                stroke-linecap="butt"
                stroke-linejoin="round"
                stroke="#b13507"
                id="line__China"
                stroke-width="1.5"
                stroke-opacity="1"
                d="M73 341.9L77.4 326.9L81.8 307L86.2 291L90.5 269.9L94.9 262L99.3 249.6L103.7 250.2L108.1 273.7L112.5 299.9L116.9 333.7L121.3 345.8L125.6 367.6L130 430.9L134.4 481L138.8 482.9L143.2 405.9L147.6 247.5L152 157.4L156.3 147.5L160.7 141.3L165.1 242.5L169.5 364.5L173.9 361.3L178.3 334.2L182.7 338.1L187.1 341.2L191.4 380L195.8 436.9L200.2 477.2L204.6 499.8L209 501L213.4 500.5L217.8 467.4L222.1 414.7L226.5 371.3L230.9 322.6L235.3 315.4L239.7 337.8L244.1 329.5L248.5 314.4L252.9 309.1L257.2 299.4L261.6 290.4L266 298.8L270.4 369.9L274.8 465.2L279.2 490.4L283.6 500.6L287.9 525.4L292.3 493.5L296.7 441L301.1 428.2L305.5 420.9L309.9 406L314.3 397.1L318.7 395.6L323 388.6L327.4 379.9L331.8 379.1L336.2 372.6L340.6 356.2L345 344.6L349.4 337.5L353.7 339L358.1 344.4L362.5 337.1L366.9 340.4L371.3 352.5L375.7 361.5L380.1 363.2L384.5 367.9L388.8 400.8L393.2 432.5L397.6 458L402 492.5L406.4 523.6L410.8 511.2L415.2 503.3L419.5 493.5L423.9 456.6L428.3 434.6L432.7 420.1L437.1 405.3L441.5 395.1L445.9 394.1L450.3 393L454.6 391.9L459 386.6L463.4 381.4L467.8 380.6L472.2 379.8L476.6 379L481 371L485.3 363.6L489.7 364.1L494.1 365L498.5 365.9L502.9 366.9L507.3 368.4L511.7 370.2L516.1 372.6L520.4 375.7L524.8 378.8L529.2 381.8L533.6 384.6L538 387.1L542.4 388.9L546.8 390.3L551.1 391.3L555.5 391.3L559.9 390.8L564.3 389.8L568.7 388.4L573.1 386.6L577.5 384.8L581.9 382.9L586.2 380.8L590.6 378.9L595 377.1L599.4 375.5L603.8 374.1L608.2 373L612.6 372.1L616.9 371.3L621.3 370.8L625.7 370.4L630.1 370.1L634.5 370L638.9 370.1L643.3 370.2L647.7 370.6L652 371L656.4 371.5L660.8 372.1L665.2 372.6L669.6 373.2L674 373.6L678.4 374.1L682.7 374.4L687.1 374.7L691.5 374.9L695.9 375L700.3 375L704.7 374.8L709.1 374.6L713.5 374.3L717.8 373.9L722.2 373.5L726.6 373.1"
            ></path>
        </g>
    </g>
    <g id="footer" class="SourcesFooter" style="fill: #767676">
        <g id="sources" class="markdown-text-wrap">
            <text x="16.0" y="581.0" style="font-size: 13px; line-height: 1.2">
                <tspan x="16" y="581.0">
                    <tspan style="font-weight: 700">Data source:</tspan>
                    UN, World Population Prospects (2024)
                </tspan>
            </text>
        </g>
        <text id="origin-url" font-size="13.00" x="794.2" y="581.0">
            <tspan x="794.22" y="581.01">
                <a
                    style="fill: #767676"
                    href="https://creativecommons.org/licenses/by/4.0/"
                >
                    CC BY
                </a>
            </tspan>
        </text>
    </g>
</svg>
