<svg xmlns="http://www.w3.org/2000/svg" version="1.1" style="font-family:Lato, &#x27;Helvetica Neue&#x27;, Helvetica, Arial, &#x27;Liberation Sans&#x27;, sans-serif;font-size:18px;background-color:#ffffff;text-rendering:geometricPrecision;-webkit-font-smoothing:antialiased" width="850" height="600" viewBox="0 0 850 600"><defs><style>@import url(https://ourworldindata.org/fonts.css)</style></defs><defs><pattern id="noDataPattern" patternUnits="userSpaceOnUse" width="4" height="4" patternTransform="rotate(-45 2 2)"><path d="M -1,2 l 6,0" stroke="#ccc" stroke-width="0.7"></path></pattern></defs><rect class="background-fill" fill="#ffffff" width="850" height="600"></rect><g id="header" class="HeaderView"><g id="logo" transform="translate(769, 16) scale(1)"><svg className="owidLogo" xmlns="http://www.w3.org/2000/svg" width="65" height="36" viewBox="0 0 65 36"  fill="none"><path fill="#002147" d="M0 0h64.8v36H0z"/><path fill="#CE261E" d="M0 33.3h64.8V36H0z"/><path fill="#fff" d="M13.796 10.575c0 .636-.106 1.226-.318 1.77a4.193 4.193 0 0 1-.894 1.404 4.084 4.084 0 0 1-1.386.93c-.54.22-1.138.33-1.794.33-.656 0-1.256-.11-1.8-.33a4.149 4.149 0 0 1-1.392-.93 4.193 4.193 0 0 1-.894-1.404A4.833 4.833 0 0 1 5 10.575c0-.636.106-1.224.318-1.764a4.18 4.18 0 0 1 .894-1.41 4.076 4.076 0 0 1 1.392-.924 4.684 4.684 0 0 1 1.8-.336c.656 0 1.254.112 1.794.336.54.224 1.002.534 1.386.93.384.392.682.86.894 1.404.212.54.318 1.128.318 1.764Zm-1.656 0c0-.476-.064-.902-.192-1.278a2.671 2.671 0 0 0-.54-.966 2.332 2.332 0 0 0-.864-.606 2.94 2.94 0 0 0-1.14-.21c-.424 0-.806.07-1.146.21-.34.14-.63.342-.87.606a2.742 2.742 0 0 0-.546.966 3.955 3.955 0 0 0-.192 1.278c0 .476.064.904.192 1.284.128.376.31.696.546.96.24.26.53.46.87.6.34.14.722.21 1.146.21.424 0 .804-.07 1.14-.21.34-.14.628-.34.864-.6.236-.264.416-.584.54-.96a4.01 4.01 0 0 0 .192-1.284ZM16.104 8.757v3.912c0 .376.086.668.258.876.176.204.438.306.786.306.256 0 .496-.056.72-.168a2.58 2.58 0 0 0 .636-.474V8.757h1.482v6.156h-.906c-.192 0-.318-.09-.378-.27l-.102-.492a4.65 4.65 0 0 1-.396.354 2.577 2.577 0 0 1-.438.27 2.35 2.35 0 0 1-.498.168 2.345 2.345 0 0 1-.57.066c-.336 0-.634-.056-.894-.168a1.821 1.821 0 0 1-.648-.486 2.157 2.157 0 0 1-.402-.738 3.233 3.233 0 0 1-.132-.948V8.757h1.482ZM21.328 14.913V8.757h.87c.152 0 .258.028.318.084.06.056.1.152.12.288l.09.744c.22-.38.478-.68.774-.9.296-.22.628-.33.996-.33.304 0 .556.07.756.21l-.192 1.11c-.012.072-.038.124-.078.156a.278.278 0 0 1-.162.042 1.01 1.01 0 0 1-.246-.042 1.646 1.646 0 0 0-.414-.042c-.308 0-.572.086-.792.258-.22.168-.406.416-.558.744v3.834h-1.482ZM27.347 6.237h1.356a.57.57 0 0 1 .348.102c.096.064.16.152.192.264l1.476 5.19c.036.128.068.268.096.42.032.148.062.306.09.474a5.968 5.968 0 0 1 .228-.894l1.704-5.19a.575.575 0 0 1 .186-.252.543.543 0 0 1 .348-.114h.474a.57.57 0 0 1 .348.102.497.497 0 0 1 .192.264l1.692 5.19c.088.256.164.54.228.852.028-.156.056-.306.084-.45.032-.144.064-.278.096-.402l1.476-5.19c.028-.1.09-.186.186-.258a.563.563 0 0 1 .348-.108h1.266l-2.694 8.676h-1.458l-1.896-5.928-.078-.246a9.504 9.504 0 0 1-.072-.282c-.024.1-.05.194-.078.282-.024.088-.048.17-.072.246l-1.914 5.928H30.04l-2.694-8.676ZM42.771 8.661c.46 0 .876.074 1.248.222.376.148.696.358.96.63s.468.604.612.996c.144.392.216.83.216 1.314 0 .488-.072.928-.216 1.32a2.85 2.85 0 0 1-.612 1.002 2.653 2.653 0 0 1-.96.636 3.35 3.35 0 0 1-1.248.222c-.46 0-.878-.074-1.254-.222a2.712 2.712 0 0 1-.966-.636 2.922 2.922 0 0 1-.618-1.002 3.807 3.807 0 0 1-.216-1.32c0-.484.072-.922.216-1.314.148-.392.354-.724.618-.996.268-.272.59-.482.966-.63a3.397 3.397 0 0 1 1.254-.222Zm0 5.202c.512 0 .89-.172 1.134-.516.248-.344.372-.848.372-1.512s-.124-1.17-.372-1.518c-.244-.348-.622-.522-1.134-.522-.52 0-.904.176-1.152.528-.248.348-.372.852-.372 1.512s.124 1.164.372 1.512c.248.344.632.516 1.152.516ZM46.723 14.913V8.757h.87c.152 0 .258.028.318.084.06.056.1.152.12.288l.09.744c.22-.38.478-.68.774-.9.296-.22.628-.33.996-.33.304 0 .556.07.756.21l-.192 1.11c-.012.072-.038.124-.078.156a.278.278 0 0 1-.162.042 1.01 1.01 0 0 1-.246-.042 1.646 1.646 0 0 0-.414-.042c-.308 0-.572.086-.792.258-.22.168-.406.416-.558.744v3.834h-1.482ZM52.96 5.997v8.916h-1.482V5.997h1.482ZM58.732 14.913c-.192 0-.318-.09-.378-.27l-.12-.594a3.68 3.68 0 0 1-.402.39c-.14.116-.292.216-.456.3-.16.084-.334.148-.522.192a2.372 2.372 0 0 1-.6.072c-.336 0-.644-.07-.924-.21a2.098 2.098 0 0 1-.726-.606 3.033 3.033 0 0 1-.468-.99 5.072 5.072 0 0 1-.162-1.344c0-.456.062-.88.186-1.272s.302-.732.534-1.02c.232-.288.51-.512.834-.672a2.384 2.384 0 0 1 1.092-.246 2.103 2.103 0 0 1 1.536.606V5.997h1.482v8.916h-.906Zm-1.974-1.086c.308 0 .57-.064.786-.192.216-.128.42-.31.612-.546v-2.76a1.452 1.452 0 0 0-.552-.432 1.597 1.597 0 0 0-.636-.126c-.224 0-.428.042-.612.126a1.21 1.21 0 0 0-.462.384c-.124.168-.22.384-.288.648-.068.26-.102.568-.102.924 0 .36.028.666.084.918.06.248.144.452.252.612.108.156.24.27.396.342.156.068.33.102.522.102ZM16.331 20.757v6.156H14.85v-6.156h1.481Zm.223-1.794a.844.844 0 0 1-.078.36.963.963 0 0 1-.21.294.995.995 0 0 1-.3.204.963.963 0 0 1-.372.072.948.948 0 0 1-.367-.072 1.018 1.018 0 0 1-.498-.498.963.963 0 0 1 0-.732.995.995 0 0 1 .205-.3.929.929 0 0 1 .293-.198.899.899 0 0 1 .738 0 .912.912 0 0 1 .3.198.943.943 0 0 1 .288.672ZM17.771 26.913v-6.156h.906c.192 0 .318.09.378.27l.102.486a2.934 2.934 0 0 1 .828-.618c.156-.076.322-.134.498-.174.176-.04.368-.06.576-.06.336 0 .634.058.894.174.26.112.476.272.648.48.176.204.308.45.396.738.092.284.138.598.138.942v3.918h-1.482v-3.918c0-.376-.088-.666-.264-.87-.172-.208-.432-.312-.78-.312-.256 0-.496.058-.72.174a2.58 2.58 0 0 0-.636.474v4.452h-1.482ZM34.22 22.575c0 .636-.106 1.22-.318 1.752-.212.532-.51.99-.894 1.374a4 4 0 0 1-1.386.894 4.87 4.87 0 0 1-1.794.318h-3.312v-8.676h3.312a4.79 4.79 0 0 1 1.794.324 4 4 0 0 1 1.386.894c.384.38.682.836.894 1.368.212.532.318 1.116.318 1.752Zm-1.65 0c0-.476-.064-.902-.192-1.278a2.68 2.68 0 0 0-.546-.96 2.332 2.332 0 0 0-.864-.606 2.94 2.94 0 0 0-1.14-.21h-1.686v6.108h1.686c.424 0 .804-.07 1.14-.21.34-.14.628-.34.864-.6a2.75 2.75 0 0 0 .546-.96 4.01 4.01 0 0 0 .192-1.284ZM39.98 26.913h-.665c-.14 0-.25-.02-.33-.06-.08-.044-.14-.13-.18-.258l-.132-.438c-.156.14-.31.264-.462.372a2.804 2.804 0 0 1-.462.264c-.16.072-.33.126-.51.162-.18.036-.38.054-.6.054-.26 0-.5-.034-.72-.102a1.618 1.618 0 0 1-.57-.318 1.448 1.448 0 0 1-.366-.522 1.852 1.852 0 0 1-.132-.726c0-.232.06-.46.18-.684.124-.228.328-.432.612-.612.284-.184.662-.336 1.134-.456.472-.12 1.058-.188 1.758-.204v-.36c0-.412-.088-.716-.264-.912-.172-.2-.424-.3-.756-.3a1.837 1.837 0 0 0-1.02.276c-.116.068-.224.13-.324.186a.664.664 0 0 1-.33.084.429.429 0 0 1-.258-.078.614.614 0 0 1-.174-.192l-.27-.474c.708-.648 1.562-.972 2.562-.972.36 0 .68.06.96.18.284.116.524.28.72.492.196.208.344.458.444.75.104.292.156.612.156.96v3.888Zm-2.88-.924c.153 0 .293-.014.42-.042.129-.028.249-.07.36-.126.117-.056.227-.124.33-.204.109-.084.217-.182.325-.294v-1.038c-.432.02-.794.058-1.086.114-.288.052-.52.12-.696.204a.923.923 0 0 0-.378.294.664.664 0 0 0-.108.366c0 .26.076.446.228.558.156.112.358.168.606.168ZM43.22 27.01c-.532 0-.942-.15-1.23-.45-.288-.305-.432-.723-.432-1.255v-3.438h-.624a.31.31 0 0 1-.21-.078c-.056-.052-.084-.13-.084-.234v-.588l.99-.162.312-1.68a.302.302 0 0 1 .108-.186.365.365 0 0 1 .222-.066h.768v1.938h1.62v1.056h-1.62v3.336c0 .192.048.342.144.45a.488.488 0 0 0 .384.162c.092 0 .168-.01.228-.03.064-.024.118-.048.162-.072.048-.024.09-.046.126-.066a.194.194 0 0 1 .108-.036.16.16 0 0 1 .108.036c.028.02.058.052.09.096l.444.72c-.216.18-.464.316-.744.408a2.77 2.77 0 0 1-.87.138ZM50.423 26.913h-.666c-.14 0-.25-.02-.33-.06-.08-.044-.14-.13-.18-.258l-.132-.438c-.156.14-.31.264-.462.372a2.804 2.804 0 0 1-.462.264c-.16.072-.33.126-.51.162-.18.036-.38.054-.6.054-.26 0-.5-.034-.72-.102a1.618 1.618 0 0 1-.57-.318 1.448 1.448 0 0 1-.366-.522 1.852 1.852 0 0 1-.132-.726c0-.232.06-.46.18-.684.124-.228.328-.432.612-.612.284-.184.662-.336 1.134-.456.472-.12 1.058-.188 1.758-.204v-.36c0-.412-.088-.716-.264-.912-.172-.2-.424-.3-.756-.3a1.837 1.837 0 0 0-1.02.276c-.116.068-.224.13-.324.186a.664.664 0 0 1-.33.084.429.429 0 0 1-.258-.078.614.614 0 0 1-.174-.192l-.27-.474c.708-.648 1.562-.972 2.562-.972.36 0 .68.06.96.18.284.116.524.28.72.492.196.208.344.458.444.75.104.292.156.612.156.96v3.888Zm-2.88-.924c.152 0 .292-.014.42-.042.128-.028.248-.07.36-.126.116-.056.226-.124.33-.204.108-.084.216-.182.324-.294v-1.038c-.432.02-.794.058-1.086.114-.288.052-.52.12-.696.204a.923.923 0 0 0-.378.294.664.664 0 0 0-.108.366c0 .26.076.446.228.558.156.112.358.168.606.168Z"/></svg></g><a id="title" href="https://ourworldindata.org/grapher/annual-co2-emissions-per-country?stackMode=relative&amp;facet=none&amp;uniformYAxis=0" style="font-family:&#x27;Playfair Display&#x27;, Georgia, &#x27;Times New Roman&#x27;, &#x27;Liberation Serif&#x27;, serif" target="_blank" rel="noopener"><text font-size="24.00" font-weight="600" x="16.0" y="39.3" fill="#5b5b5b"><tspan x="16" y="39.28">Annual CO₂ emissions</tspan></text></a><g id="subtitle" class="markdown-text-wrap"><text x="16.0" y="62.4" style="font-size:14px;line-height:1.2" fill="#5b5b5b"><tspan x="16" y="62.4">Carbon dioxide (CO₂) emissions from <tspan class="dod-span" data-id="fossilemissions">fossil fuels and industry</tspan>. Land-use change is not included.</tspan></text></g></g><g id="chart-area" style="pointer-events:none"><g id="horizontal-axis" class="HorizontalAxis"><g id="tick-marks"><line id="1750" x1="101.3" y1="531.4" x2="101.3" y2="536.9" stroke="#999" stroke-width="1"></line><line id="2023" x1="700.8" y1="531.4" x2="700.8" y2="536.9" stroke="#999" stroke-width="1"></line><line id="1800" x1="211.1" y1="531.4" x2="211.1" y2="536.9" stroke="#999" stroke-width="1"></line><line id="1850" x1="320.9" y1="531.4" x2="320.9" y2="536.9" stroke="#999" stroke-width="1"></line><line id="1900" x1="430.7" y1="531.4" x2="430.7" y2="536.9" stroke="#999" stroke-width="1"></line><line id="1950" x1="540.5" y1="531.4" x2="540.5" y2="536.9" stroke="#999" stroke-width="1"></line></g><g id="tick-labels"><text x="101.325" y="550.4" fill="#5b5b5b" text-anchor="start" font-size="13.5">1750</text><text x="700.78" y="550.4" fill="#5b5b5b" text-anchor="end" font-size="13.5">2023</text><text x="211.1" y="550.4" fill="#5b5b5b" text-anchor="middle" font-size="13.5">1800</text><text x="320.9" y="550.4" fill="#5b5b5b" text-anchor="middle" font-size="13.5">1850</text><text x="430.7" y="550.4" fill="#5b5b5b" text-anchor="middle" font-size="13.5">1900</text><text x="540.5" y="550.4" fill="#5b5b5b" text-anchor="middle" font-size="13.5">1950</text></g></g><g id="vertical-axis" class="VerticalAxis"><g id="tick-labels"><text x="96.33" y="531.9" dy=".32em" text-anchor="end" fill="#5b5b5b" font-size="13.5">+0%</text><text x="96.33" y="440.3" dy=".32em" text-anchor="end" fill="#5b5b5b" font-size="13.5">+500,000%</text><text x="96.33" y="348.7" dy=".32em" text-anchor="end" fill="#5b5b5b" font-size="13.5">+1,000,000%</text><text x="96.33" y="257.1" dy=".32em" text-anchor="end" fill="#5b5b5b" font-size="13.5">+1,500,000%</text><text x="96.33" y="165.5" dy=".32em" text-anchor="end" fill="#5b5b5b" font-size="13.5">+2,000,000%</text></g></g><g id="horizontal-grid-lines" class="AxisGridLines horizontalLines"><line id="+0%" x1="101.33" y1="531.9" x2="700.78" y2="531.9" stroke="#999" stroke-width="1"></line><line id="+500,000%" x1="101.33" y1="440.3" x2="700.78" y2="440.3" stroke="#ddd" stroke-width="1" stroke-dasharray="3,2"></line><line id="+1,000,000%" x1="101.33" y1="348.7" x2="700.78" y2="348.7" stroke="#ddd" stroke-width="1" stroke-dasharray="3,2"></line><line id="+1,500,000%" x1="101.33" y1="257.1" x2="700.78" y2="257.1" stroke="#ddd" stroke-width="1" stroke-dasharray="3,2"></line><line id="+2,000,000%" x1="101.33" y1="165.5" x2="700.78" y2="165.5" stroke="#ddd" stroke-width="1" stroke-dasharray="3,2"></line></g><g id="line-labels" class="LineLabels"><g id="connectors"><path id="United-States" d="M704.78,176.1 H713.28 V176.1 H721.78" stroke="#999" stroke-width="0.5" fill="none"></path><path id="India" d="M704.78,389.7 H713.28 V389.7 H721.78" stroke="#999" stroke-width="0.5" fill="none"></path><path id="Brazil" d="M704.78,492.7 H708.18 V469.57499999999993 H721.78" stroke="#999" stroke-width="0.5" fill="none"></path><path id="Germany" d="M704.78,508.6 H711.5799999999999 V488.42499999999995 H721.78" stroke="#999" stroke-width="0.5" fill="none"></path><path id="China" d="M704.78,521 H714.9799999999999 V507.275 H721.78" stroke="#999" stroke-width="0.5" fill="none"></path><path id="France" d="M704.78,529.7 H718.38 V526.1249999999999 H721.78" stroke="#999" stroke-width="0.5" fill="none"></path><path id="United-Kingdom" d="M704.78,531.3 H718.38 V544.9749999999999 H721.78" stroke="#999" stroke-width="0.5" fill="none"></path></g><g id="text-annotations"></g><g id="text-labels"><text font-size="13.50" font-weight="400" x="725.8" y="181.1" fill="#996d39" opacity="1" text-anchor="start"><tspan x="725.78" y="181.09499999999997">United States</tspan></text><text font-size="13.50" font-weight="400" x="725.8" y="394.7" fill="#883039" opacity="1" text-anchor="start"><tspan x="725.78" y="394.695">India</tspan></text><text font-size="13.50" font-weight="400" x="725.8" y="474.6" fill="#6d3e91" opacity="1" text-anchor="start"><tspan x="725.78" y="474.56999999999994">Brazil</tspan></text><text font-size="13.50" font-weight="400" x="725.8" y="493.4" fill="#b13507" opacity="1" text-anchor="start"><tspan x="725.78" y="493.41999999999996">Germany</tspan></text><text font-size="13.50" font-weight="400" x="725.8" y="512.3" fill="#00295b" opacity="1" text-anchor="start"><tspan x="725.78" y="512.27">China</tspan></text><text font-size="13.50" font-weight="400" x="725.8" y="531.1" fill="#2c8465" opacity="1" text-anchor="start"><tspan x="725.78" y="531.1199999999999">France</tspan></text><text font-size="13.50" font-weight="400" x="725.8" y="550.0" fill="#4c6a9c" opacity="1" text-anchor="start"><tspan x="725.78" y="549.9699999999999">United Kingdom</tspan></text></g></g><g id="lines"><path fill="none" stroke-linecap="butt" stroke-linejoin="round" stroke="#ffffff" id="outline__China" stroke-width="2.5" d="M446.1 531.9L448.3 531.9L450.5 531.9L452.7 531.9L454.8 531.9L457 531.9L459.2 531.9L461.4 531.9L463.6 531.9L465.8 531.9L468 531.9L470.2 531.9L472.4 531.9L474.6 531.9L476.8 531.9L479 531.9L481.2 531.9L483.4 531.9L485.6 531.9L487.8 531.9L490 531.9L492.2 531.9L494.4 531.9L496.6 531.9L498.8 531.9L501 531.9L503.2 531.9L505.4 531.9L507.5 531.8L509.7 531.8L511.9 531.9L514.1 531.9L516.3 531.8L518.5 531.8L520.7 531.8L522.9 531.8L525.1 531.8L527.3 531.8L529.5 531.9L531.7 531.9L533.9 531.9L536.1 531.9L538.3 531.9L540.5 531.8L542.7 531.8L544.9 531.8L547.1 531.8L549.3 531.8L551.5 531.7L553.7 531.7L555.9 531.7L558.1 531.4L560.2 531.3L562.4 531.2L564.6 531.4L566.8 531.5L569 531.5L571.2 531.5L573.4 531.5L575.6 531.4L577.8 531.5L580 531.5L582.2 531.4L584.4 531.2L586.6 531.1L588.8 531L591 531L593.2 531L595.4 530.8L597.6 530.8L599.8 530.7L602 530.5L604.2 530.5L606.4 530.5L608.6 530.6L610.8 530.4L612.9 530.4L615.1 530.2L617.3 530.1L619.5 530L621.7 529.8L623.9 529.7L626.1 529.6L628.3 529.6L630.5 529.5L632.7 529.4L634.9 529.2L637.1 529.1L639.3 528.8L641.5 528.7L643.7 528.7L645.9 528.8L648.1 528.6L650.3 528.6L652.5 528.5L654.7 528.1L656.9 527.5L659.1 527.1L661.3 526.5L663.5 525.9L665.6 525.5L667.8 525L670 524.6L672.2 524L674.4 523.1L676.6 522.9L678.8 522.7L681 522.7L683.2 522.8L685.4 522.9L687.6 522.7L689.8 522.4L692 522.1L694.2 521.9L696.4 521.4L698.6 521.5L700.8 521"></path><path fill="none" stroke-linecap="butt" stroke-linejoin="round" stroke="#00295b" id="line__China" stroke-width="1.5" stroke-opacity="1" d="M446.1 531.9L448.3 531.9L450.5 531.9L452.7 531.9L454.8 531.9L457 531.9L459.2 531.9L461.4 531.9L463.6 531.9L465.8 531.9L468 531.9L470.2 531.9L472.4 531.9L474.6 531.9L476.8 531.9L479 531.9L481.2 531.9L483.4 531.9L485.6 531.9L487.8 531.9L490 531.9L492.2 531.9L494.4 531.9L496.6 531.9L498.8 531.9L501 531.9L503.2 531.9L505.4 531.9L507.5 531.8L509.7 531.8L511.9 531.9L514.1 531.9L516.3 531.8L518.5 531.8L520.7 531.8L522.9 531.8L525.1 531.8L527.3 531.8L529.5 531.9L531.7 531.9L533.9 531.9L536.1 531.9L538.3 531.9L540.5 531.8L542.7 531.8L544.9 531.8L547.1 531.8L549.3 531.8L551.5 531.7L553.7 531.7L555.9 531.7L558.1 531.4L560.2 531.3L562.4 531.2L564.6 531.4L566.8 531.5L569 531.5L571.2 531.5L573.4 531.5L575.6 531.4L577.8 531.5L580 531.5L582.2 531.4L584.4 531.2L586.6 531.1L588.8 531L591 531L593.2 531L595.4 530.8L597.6 530.8L599.8 530.7L602 530.5L604.2 530.5L606.4 530.5L608.6 530.6L610.8 530.4L612.9 530.4L615.1 530.2L617.3 530.1L619.5 530L621.7 529.8L623.9 529.7L626.1 529.6L628.3 529.6L630.5 529.5L632.7 529.4L634.9 529.2L637.1 529.1L639.3 528.8L641.5 528.7L643.7 528.7L645.9 528.8L648.1 528.6L650.3 528.6L652.5 528.5L654.7 528.1L656.9 527.5L659.1 527.1L661.3 526.5L663.5 525.9L665.6 525.5L667.8 525L670 524.6L672.2 524L674.4 523.1L676.6 522.9L678.8 522.7L681 522.7L683.2 522.8L685.4 522.9L687.6 522.7L689.8 522.4L692 522.1L694.2 521.9L696.4 521.4L698.6 521.5L700.8 521"></path><path fill="none" stroke-linecap="butt" stroke-linejoin="round" stroke="#ffffff" id="outline__India" stroke-width="2.5" d="M338.5 531.9L340.7 531.9L342.9 531.9L345.1 531.9L347.3 531.9L349.5 531.9L351.6 531.9L353.8 531.9L356 531.9L382.4 531.8L384.6 531.8L386.8 531.8L389 531.8L391.2 531.8L393.4 531.8L395.6 531.8L397.8 531.8L400 531.8L402.2 531.8L404.3 531.8L406.5 531.7L408.7 531.7L410.9 531.7L413.1 531.7L415.3 531.7L417.5 531.7L419.7 531.6L421.9 531.6L424.1 531.5L426.3 531.5L428.5 531.4L430.7 531.4L432.9 531.3L435.1 531.2L437.3 531.2L439.5 531.1L441.7 531.1L443.9 531L446.1 530.9L448.3 530.8L450.5 530.8L452.7 530.8L454.8 530.8L457 530.6L459.2 530.5L461.4 530.4L463.6 530.4L465.8 530.4L468 530.3L470.2 530.1L472.4 529.9L474.6 530.3L476.8 530.2L479 530.2L481.2 530.2L483.4 530L485.6 530.1L487.8 530.1L490 530L492.2 530.1L494.4 530L496.6 529.9L498.8 530.1L501 530.2L503.2 530.3L505.4 530.1L507.5 530L509.7 530L511.9 529.8L514.1 529.6L516.3 529.6L518.5 529.5L520.7 529.4L522.9 529.4L525.1 529.7L527.3 529.7L529.5 529.5L531.7 529.5L533.9 529.4L536.1 529.4L538.3 529.3L540.5 529.1L542.7 528.9L544.9 528.8L547.1 528.7L549.3 528.6L551.5 528.3L553.7 528.1L555.9 527.7L558.1 527.5L560.2 527.2L562.4 526.7L564.6 526.3L566.8 525.8L569 525.3L571.2 525.4L573.4 524.8L575.6 524.5L577.8 524.5L580 523.8L582.2 523.7L584.4 523.5L586.6 523L588.8 522.5L591 522.2L593.2 521.9L595.4 521L597.6 520.6L599.8 519.9L602 519.7L604.2 519.1L606.4 518.4L608.6 517.3L610.8 516.8L612.9 515.6L615.1 515.1L617.3 513.5L619.5 512.1L621.7 510.8L623.9 509.1L626.1 506.8L628.3 505.1L630.5 503.3L632.7 501.5L634.9 500.5L637.1 498.8L639.3 496.6L641.5 493.7L643.7 492.1L645.9 491.2L648.1 487.3L650.3 486.1L652.5 485.5L654.7 484L656.9 482.3L659.1 479.3L661.3 476.4L663.5 471.9L665.6 467.3L667.8 462.8L670 457.1L672.2 454L674.4 450L676.6 442.5L678.8 439.3L681 432.2L683.2 428.2L685.4 422.6L687.6 419.2L689.8 411.5L692 410.6L694.2 419.5L696.4 407.7L698.6 400.4L700.8 389.7"></path><path fill="none" stroke-linecap="butt" stroke-linejoin="round" stroke="#883039" id="line__India" stroke-width="1.5" stroke-opacity="1" d="M338.5 531.9L340.7 531.9L342.9 531.9L345.1 531.9L347.3 531.9L349.5 531.9L351.6 531.9L353.8 531.9L356 531.9L382.4 531.8L384.6 531.8L386.8 531.8L389 531.8L391.2 531.8L393.4 531.8L395.6 531.8L397.8 531.8L400 531.8L402.2 531.8L404.3 531.8L406.5 531.7L408.7 531.7L410.9 531.7L413.1 531.7L415.3 531.7L417.5 531.7L419.7 531.6L421.9 531.6L424.1 531.5L426.3 531.5L428.5 531.4L430.7 531.4L432.9 531.3L435.1 531.2L437.3 531.2L439.5 531.1L441.7 531.1L443.9 531L446.1 530.9L448.3 530.8L450.5 530.8L452.7 530.8L454.8 530.8L457 530.6L459.2 530.5L461.4 530.4L463.6 530.4L465.8 530.4L468 530.3L470.2 530.1L472.4 529.9L474.6 530.3L476.8 530.2L479 530.2L481.2 530.2L483.4 530L485.6 530.1L487.8 530.1L490 530L492.2 530.1L494.4 530L496.6 529.9L498.8 530.1L501 530.2L503.2 530.3L505.4 530.1L507.5 530L509.7 530L511.9 529.8L514.1 529.6L516.3 529.6L518.5 529.5L520.7 529.4L522.9 529.4L525.1 529.7L527.3 529.7L529.5 529.5L531.7 529.5L533.9 529.4L536.1 529.4L538.3 529.3L540.5 529.1L542.7 528.9L544.9 528.8L547.1 528.7L549.3 528.6L551.5 528.3L553.7 528.1L555.9 527.7L558.1 527.5L560.2 527.2L562.4 526.7L564.6 526.3L566.8 525.8L569 525.3L571.2 525.4L573.4 524.8L575.6 524.5L577.8 524.5L580 523.8L582.2 523.7L584.4 523.5L586.6 523L588.8 522.5L591 522.2L593.2 521.9L595.4 521L597.6 520.6L599.8 519.9L602 519.7L604.2 519.1L606.4 518.4L608.6 517.3L610.8 516.8L612.9 515.6L615.1 515.1L617.3 513.5L619.5 512.1L621.7 510.8L623.9 509.1L626.1 506.8L628.3 505.1L630.5 503.3L632.7 501.5L634.9 500.5L637.1 498.8L639.3 496.6L641.5 493.7L643.7 492.1L645.9 491.2L648.1 487.3L650.3 486.1L652.5 485.5L654.7 484L656.9 482.3L659.1 479.3L661.3 476.4L663.5 471.9L665.6 467.3L667.8 462.8L670 457.1L672.2 454L674.4 450L676.6 442.5L678.8 439.3L681 432.2L683.2 428.2L685.4 422.6L687.6 419.2L689.8 411.5L692 410.6L694.2 419.5L696.4 407.7L698.6 400.4L700.8 389.7"></path><path fill="none" stroke-linecap="butt" stroke-linejoin="round" stroke="#ffffff" id="outline__Brazil" stroke-width="2.5" d="M334.1 531.9L336.3 531.9L338.5 531.9L340.7 531.9L342.9 531.9L345.1 531.9L347.3 531.9L349.5 531.9L351.6 531.9L353.8 531.9L356 531.9L358.2 531.9L360.4 531.9L362.6 531.9L364.8 531.9L367 531.8L369.2 531.8L371.4 531.8L373.6 531.8L375.8 531.8L378 531.8L380.2 531.8L382.4 531.8L384.6 531.9L386.8 531.8L389 531.8L391.2 531.8L393.4 531.8L395.6 531.8L397.8 531.8L400 531.8L402.2 531.8L404.3 531.8L406.5 531.8L408.7 531.8L410.9 531.7L413.1 531.7L415.3 531.8L417.5 531.7L419.7 531.7L421.9 531.7L424.1 531.7L426.3 531.7L428.5 531.7L430.7 531.7L432.9 531.7L435.1 531.7L437.3 531.7L439.5 531.7L441.7 531.7L443.9 531.7L446.1 531.6L448.3 531.6L450.5 531.6L452.7 531.5L454.8 531.5L457 531.5L459.2 531.4L461.4 531.5L463.6 531.7L465.8 531.7L468 531.7L470.2 531.7L472.4 531.7L474.6 531.6L476.8 531.7L479 531.6L481.2 531.5L483.4 531.5L485.6 531.5L487.8 531.5L490 531.4L492.2 531.4L494.4 531.4L496.6 531.4L498.8 531.5L501 531.5L503.2 531.5L505.4 531.5L507.5 531.5L509.7 531.5L511.9 531.4L514.1 531.3L516.3 531.5L518.5 531.5L520.7 531.4L522.9 531.4L525.1 531.4L527.3 531.4L529.5 531.4L531.7 531.3L533.9 531.2L536.1 531.3L538.3 531.3L540.5 530.3L542.7 530.2L544.9 529.9L547.1 529.9L549.3 529.5L551.5 529.2L553.7 529L555.9 529L558.1 528.8L560.2 528.8L562.4 528.1L564.6 528L566.8 527.6L569 527.4L571.2 527.4L573.4 527.4L575.6 526.7L577.8 526.6L580 525.7L582.2 525.1L584.4 524.4L586.6 523.7L588.8 522.7L591 521.3L593.2 520.4L595.4 519.8L597.6 519.5L599.8 518.8L602 517.6L604.2 516.8L606.4 516.9L608.6 518.1L610.8 518.1L612.9 518.5L615.1 518.4L617.3 517.4L619.5 516L621.7 515.3L623.9 515.2L626.1 514.8L628.3 514.3L630.5 513.4L632.7 513.1L634.9 512.2L637.1 511.4L639.3 510.3L641.5 508.6L643.7 507.2L645.9 506.3L648.1 505.5L650.3 504.5L652.5 504L654.7 503.9L656.9 504.1L659.1 502.8L661.3 502.5L663.5 502.2L665.6 500.4L667.8 498.6L670 500.5L672.2 496.4L674.4 494.6L676.6 491.7L678.8 489L681 486.9L683.2 489.2L685.4 492.2L687.6 491.7L689.8 493.3L692 493.7L694.2 496L696.4 491.8L698.6 492.9L700.8 492.7"></path><path fill="none" stroke-linecap="butt" stroke-linejoin="round" stroke="#6d3e91" id="line__Brazil" stroke-width="1.5" stroke-opacity="1" d="M334.1 531.9L336.3 531.9L338.5 531.9L340.7 531.9L342.9 531.9L345.1 531.9L347.3 531.9L349.5 531.9L351.6 531.9L353.8 531.9L356 531.9L358.2 531.9L360.4 531.9L362.6 531.9L364.8 531.9L367 531.8L369.2 531.8L371.4 531.8L373.6 531.8L375.8 531.8L378 531.8L380.2 531.8L382.4 531.8L384.6 531.9L386.8 531.8L389 531.8L391.2 531.8L393.4 531.8L395.6 531.8L397.8 531.8L400 531.8L402.2 531.8L404.3 531.8L406.5 531.8L408.7 531.8L410.9 531.7L413.1 531.7L415.3 531.8L417.5 531.7L419.7 531.7L421.9 531.7L424.1 531.7L426.3 531.7L428.5 531.7L430.7 531.7L432.9 531.7L435.1 531.7L437.3 531.7L439.5 531.7L441.7 531.7L443.9 531.7L446.1 531.6L448.3 531.6L450.5 531.6L452.7 531.5L454.8 531.5L457 531.5L459.2 531.4L461.4 531.5L463.6 531.7L465.8 531.7L468 531.7L470.2 531.7L472.4 531.7L474.6 531.6L476.8 531.7L479 531.6L481.2 531.5L483.4 531.5L485.6 531.5L487.8 531.5L490 531.4L492.2 531.4L494.4 531.4L496.6 531.4L498.8 531.5L501 531.5L503.2 531.5L505.4 531.5L507.5 531.5L509.7 531.5L511.9 531.4L514.1 531.3L516.3 531.5L518.5 531.5L520.7 531.4L522.9 531.4L525.1 531.4L527.3 531.4L529.5 531.4L531.7 531.3L533.9 531.2L536.1 531.3L538.3 531.3L540.5 530.3L542.7 530.2L544.9 529.9L547.1 529.9L549.3 529.5L551.5 529.2L553.7 529L555.9 529L558.1 528.8L560.2 528.8L562.4 528.1L564.6 528L566.8 527.6L569 527.4L571.2 527.4L573.4 527.4L575.6 526.7L577.8 526.6L580 525.7L582.2 525.1L584.4 524.4L586.6 523.7L588.8 522.7L591 521.3L593.2 520.4L595.4 519.8L597.6 519.5L599.8 518.8L602 517.6L604.2 516.8L606.4 516.9L608.6 518.1L610.8 518.1L612.9 518.5L615.1 518.4L617.3 517.4L619.5 516L621.7 515.3L623.9 515.2L626.1 514.8L628.3 514.3L630.5 513.4L632.7 513.1L634.9 512.2L637.1 511.4L639.3 510.3L641.5 508.6L643.7 507.2L645.9 506.3L648.1 505.5L650.3 504.5L652.5 504L654.7 503.9L656.9 504.1L659.1 502.8L661.3 502.5L663.5 502.2L665.6 500.4L667.8 498.6L670 500.5L672.2 496.4L674.4 494.6L676.6 491.7L678.8 489L681 486.9L683.2 489.2L685.4 492.2L687.6 491.7L689.8 493.3L692 493.7L694.2 496L696.4 491.8L698.6 492.9L700.8 492.7"></path><path fill="none" stroke-linecap="butt" stroke-linejoin="round" stroke="#ffffff" id="outline__France" stroke-width="2.5" d="M215.5 531.9L219.9 531.9L233.1 531.9L235.3 531.9L237.5 531.9L239.7 531.9L241.9 531.9L244.1 531.9L246.2 531.9L248.4 531.9L250.6 531.9L252.8 531.9L255 531.9L257.2 531.9L259.4 531.9L261.6 531.9L263.8 531.9L266 531.9L268.2 531.9L270.4 531.9L272.6 531.9L274.8 531.9L277 531.9L279.2 531.9L281.4 531.9L283.6 531.9L285.8 531.8L288 531.8L290.2 531.8L292.4 531.8L294.6 531.8L296.8 531.8L298.9 531.8L301.1 531.8L303.3 531.8L305.5 531.8L307.7 531.8L309.9 531.8L312.1 531.8L314.3 531.7L316.5 531.8L318.7 531.8L320.9 531.8L323.1 531.8L325.3 531.7L327.5 531.7L329.7 531.7L331.9 531.6L334.1 531.6L336.3 531.6L338.5 531.6L340.7 531.6L342.9 531.6L345.1 531.6L347.3 531.6L349.5 531.6L351.6 531.5L353.8 531.5L356 531.5L358.2 531.5L360.4 531.5L362.6 531.4L364.8 531.5L367 531.5L369.2 531.4L371.4 531.4L373.6 531.4L375.8 531.4L378 531.4L380.2 531.4L382.4 531.4L384.6 531.4L386.8 531.3L389 531.3L391.2 531.2L393.4 531.2L395.6 531.2L397.8 531.3L400 531.3L402.2 531.2L404.3 531.2L406.5 531.2L408.7 531.1L410.9 531.1L413.1 531.1L415.3 531.1L417.5 531.1L419.7 531.1L421.9 531L424.1 531L426.3 531L428.5 530.9L430.7 530.9L432.9 530.9L435.1 531L437.3 530.9L439.5 530.9L441.7 530.9L443.9 530.8L446.1 530.7L448.3 530.7L450.5 530.7L452.7 530.7L454.8 530.6L457 530.6L459.2 530.5L461.4 530.9L463.6 531.1L465.8 531L468 530.9L470.2 531L472.4 531L474.6 530.7L476.8 530.8L479 530.6L481.2 530.4L483.4 530.2L485.6 530.2L487.8 530.2L490 530.2L492.2 530.2L494.4 530L496.6 530L498.8 530.1L501 530.3L503.2 530.3L505.4 530.3L507.5 530.3L509.7 530.3L511.9 530.1L514.1 530.3L516.3 530.3L518.5 530.8L520.7 530.9L522.9 530.9L525.1 530.9L527.3 531.3L529.5 531L531.7 530.6L533.9 530.4L536.1 530.3L538.3 530L540.5 530.3L542.7 530L544.9 530.1L547.1 530.2L549.3 530.1L551.5 530L553.7 529.7L555.9 529.6L558.1 529.7L560.2 529.8L562.4 529.5L564.6 529.3L566.8 529.2L569 529.1L571.2 528.9L573.4 528.9L575.6 528.8L577.8 528.6L580 528.5L582.2 528.3L584.4 528.1L586.6 527.9L588.8 527.7L591 527.5L593.2 527.6L595.4 528L597.6 527.6L599.8 527.8L602 527.6L604.2 527.6L606.4 527.7L608.6 528.1L610.8 528.3L612.9 528.4L615.1 528.5L617.3 528.6L619.5 528.7L621.7 528.7L623.9 528.8L626.1 528.6L628.3 528.7L630.5 528.5L632.7 528.6L634.9 528.7L637.1 528.8L639.3 528.8L641.5 528.6L643.7 528.7L645.9 528.5L648.1 528.5L650.3 528.6L652.5 528.6L654.7 528.6L656.9 528.5L659.1 528.5L661.3 528.5L663.5 528.6L665.6 528.7L667.8 528.7L670 528.9L672.2 528.8L674.4 529L676.6 529L678.8 529L681 529.2L683.2 529.2L685.4 529.2L687.6 529.2L689.8 529.3L692 529.3L694.2 529.6L696.4 529.4L698.6 529.5L700.8 529.7"></path><path fill="none" stroke-linecap="butt" stroke-linejoin="round" stroke="#2c8465" id="line__France" stroke-width="1.5" stroke-opacity="1" d="M215.5 531.9L219.9 531.9L233.1 531.9L235.3 531.9L237.5 531.9L239.7 531.9L241.9 531.9L244.1 531.9L246.2 531.9L248.4 531.9L250.6 531.9L252.8 531.9L255 531.9L257.2 531.9L259.4 531.9L261.6 531.9L263.8 531.9L266 531.9L268.2 531.9L270.4 531.9L272.6 531.9L274.8 531.9L277 531.9L279.2 531.9L281.4 531.9L283.6 531.9L285.8 531.8L288 531.8L290.2 531.8L292.4 531.8L294.6 531.8L296.8 531.8L298.9 531.8L301.1 531.8L303.3 531.8L305.5 531.8L307.7 531.8L309.9 531.8L312.1 531.8L314.3 531.7L316.5 531.8L318.7 531.8L320.9 531.8L323.1 531.8L325.3 531.7L327.5 531.7L329.7 531.7L331.9 531.6L334.1 531.6L336.3 531.6L338.5 531.6L340.7 531.6L342.9 531.6L345.1 531.6L347.3 531.6L349.5 531.6L351.6 531.5L353.8 531.5L356 531.5L358.2 531.5L360.4 531.5L362.6 531.4L364.8 531.5L367 531.5L369.2 531.4L371.4 531.4L373.6 531.4L375.8 531.4L378 531.4L380.2 531.4L382.4 531.4L384.6 531.4L386.8 531.3L389 531.3L391.2 531.2L393.4 531.2L395.6 531.2L397.8 531.3L400 531.3L402.2 531.2L404.3 531.2L406.5 531.2L408.7 531.1L410.9 531.1L413.1 531.1L415.3 531.1L417.5 531.1L419.7 531.1L421.9 531L424.1 531L426.3 531L428.5 530.9L430.7 530.9L432.9 530.9L435.1 531L437.3 530.9L439.5 530.9L441.7 530.9L443.9 530.8L446.1 530.7L448.3 530.7L450.5 530.7L452.7 530.7L454.8 530.6L457 530.6L459.2 530.5L461.4 530.9L463.6 531.1L465.8 531L468 530.9L470.2 531L472.4 531L474.6 530.7L476.8 530.8L479 530.6L481.2 530.4L483.4 530.2L485.6 530.2L487.8 530.2L490 530.2L492.2 530.2L494.4 530L496.6 530L498.8 530.1L501 530.3L503.2 530.3L505.4 530.3L507.5 530.3L509.7 530.3L511.9 530.1L514.1 530.3L516.3 530.3L518.5 530.8L520.7 530.9L522.9 530.9L525.1 530.9L527.3 531.3L529.5 531L531.7 530.6L533.9 530.4L536.1 530.3L538.3 530L540.5 530.3L542.7 530L544.9 530.1L547.1 530.2L549.3 530.1L551.5 530L553.7 529.7L555.9 529.6L558.1 529.7L560.2 529.8L562.4 529.5L564.6 529.3L566.8 529.2L569 529.1L571.2 528.9L573.4 528.9L575.6 528.8L577.8 528.6L580 528.5L582.2 528.3L584.4 528.1L586.6 527.9L588.8 527.7L591 527.5L593.2 527.6L595.4 528L597.6 527.6L599.8 527.8L602 527.6L604.2 527.6L606.4 527.7L608.6 528.1L610.8 528.3L612.9 528.4L615.1 528.5L617.3 528.6L619.5 528.7L621.7 528.7L623.9 528.8L626.1 528.6L628.3 528.7L630.5 528.5L632.7 528.6L634.9 528.7L637.1 528.8L639.3 528.8L641.5 528.6L643.7 528.7L645.9 528.5L648.1 528.5L650.3 528.6L652.5 528.6L654.7 528.6L656.9 528.5L659.1 528.5L661.3 528.5L663.5 528.6L665.6 528.7L667.8 528.7L670 528.9L672.2 528.8L674.4 529L676.6 529L678.8 529L681 529.2L683.2 529.2L685.4 529.2L687.6 529.2L689.8 529.3L692 529.3L694.2 529.6L696.4 529.4L698.6 529.5L700.8 529.7"></path><path fill="none" stroke-linecap="butt" stroke-linejoin="round" stroke="#ffffff" id="outline__United-States" stroke-width="2.5" d="M211.1 531.9L213.3 531.9L215.5 531.9L217.7 531.9L219.9 531.9L222.1 531.9L224.3 531.9L226.5 531.9L228.7 531.9L230.9 531.9L233.1 531.9L235.3 531.9L237.5 531.9L239.7 531.9L241.9 531.9L244.1 531.9L246.2 531.9L248.4 531.9L250.6 531.9L252.8 531.9L255 531.9L257.2 531.9L259.4 531.9L261.6 531.9L263.8 531.8L266 531.8L268.2 531.8L270.4 531.8L272.6 531.8L274.8 531.8L277 531.8L279.2 531.8L281.4 531.7L283.6 531.7L285.8 531.7L288 531.6L290.2 531.6L292.4 531.5L294.6 531.6L296.8 531.5L298.9 531.5L301.1 531.5L303.3 531.4L305.5 531.4L307.7 531.2L309.9 531.1L312.1 531L314.3 530.8L316.5 530.7L318.7 530.6L320.9 530.5L323.1 530.1L325.3 530L327.5 529.7L329.7 529.5L331.9 529.2L334.1 529L336.3 528.9L338.5 528.9L340.7 528.6L342.9 528.5L345.1 528.6L347.3 528.5L349.5 527.9L351.6 527.7L353.8 527.7L356 527.6L358.2 526.6L360.4 525.9L362.6 525.1L364.8 524.8L367 524.5L369.2 522.8L371.4 521.8L373.6 522.2L375.8 522.1L378 522.3L380.2 521.3L382.4 521.5L384.6 519.2L386.8 517.5L389 516.7L391.2 514.9L393.4 513.5L395.6 512.5L397.8 512.2L400 511.1L402.2 509.6L404.3 504.8L406.5 507.6L408.7 502.8L410.9 500.9L413.1 499.3L415.3 499L417.5 501.1L419.7 497.1L421.9 497.1L424.1 495.7L426.3 492.4L428.5 486.6L430.7 483.9L432.9 479.6L435.1 476.5L437.3 467.1L439.5 468L441.7 460.4L443.9 456.9L446.1 444.7L448.3 455.6L450.5 447.5L452.7 439.8L454.8 440.7L457 434.6L459.2 427.4L461.4 436.4L463.6 432.8L465.8 421.9L468 410.8L470.2 405.3L472.4 424.7L474.6 406L476.8 428.8L479 427.9L481.2 394.5L483.4 408.9L485.6 404.5L487.8 393.8L490 396.9L492.2 399.3L494.4 389.6L496.6 405.5L498.8 424.3L501 440.8L503.2 434.2L505.4 427.9L507.5 423.8L509.7 407.8L511.9 402L514.1 422.1L516.3 410.8L518.5 396.1L520.7 383.8L522.9 372.6L525.1 367.3L527.3 354.8L529.5 361L531.7 368.3L533.9 351.8L536.1 344.8L538.3 375.1L540.5 347.8L542.7 342.2L544.9 347.1L547.1 342.6L549.3 351.5L551.5 334.2L553.7 324.7L555.9 326.4L558.1 332.9L560.2 326.7L562.4 322L564.6 322.7L566.8 315L569 305.4L571.2 295.4L573.4 285.6L575.6 273.1L577.8 263.4L580 253.6L582.2 239.5L584.4 217.5L586.6 215.6L588.8 200.6L591 185.2L593.2 197.1L595.4 207.4L597.6 187.9L599.8 177.6L602 173.9L604.2 169L606.4 183.5L608.6 192.3L610.8 209.7L612.9 211L615.1 194.1L617.3 194.8L619.5 194L621.7 182.2L623.9 165.9L626.1 160L628.3 160.9L630.5 165.1L632.7 157L634.9 149.9L637.1 143.2L639.3 138.8L641.5 125.2L643.7 119.8L645.9 116.5L648.1 111.4L650.3 96.4L652.5 103.9L654.7 101.1L656.9 96.4L659.1 89L661.3 87.6L663.5 93.4L665.6 87.7L667.8 103.3L670 134.8L672.2 120.4L674.4 130.1L676.6 144.7L678.8 134.8L681 131.3L683.2 142.4L685.4 151.3L687.6 154.3L689.8 142.3L692 150.6L694.2 190.3L696.4 167.3L698.6 163.9L700.8 176.1"></path><path fill="none" stroke-linecap="butt" stroke-linejoin="round" stroke="#996d39" id="line__United-States" stroke-width="1.5" stroke-opacity="1" d="M211.1 531.9L213.3 531.9L215.5 531.9L217.7 531.9L219.9 531.9L222.1 531.9L224.3 531.9L226.5 531.9L228.7 531.9L230.9 531.9L233.1 531.9L235.3 531.9L237.5 531.9L239.7 531.9L241.9 531.9L244.1 531.9L246.2 531.9L248.4 531.9L250.6 531.9L252.8 531.9L255 531.9L257.2 531.9L259.4 531.9L261.6 531.9L263.8 531.8L266 531.8L268.2 531.8L270.4 531.8L272.6 531.8L274.8 531.8L277 531.8L279.2 531.8L281.4 531.7L283.6 531.7L285.8 531.7L288 531.6L290.2 531.6L292.4 531.5L294.6 531.6L296.8 531.5L298.9 531.5L301.1 531.5L303.3 531.4L305.5 531.4L307.7 531.2L309.9 531.1L312.1 531L314.3 530.8L316.5 530.7L318.7 530.6L320.9 530.5L323.1 530.1L325.3 530L327.5 529.7L329.7 529.5L331.9 529.2L334.1 529L336.3 528.9L338.5 528.9L340.7 528.6L342.9 528.5L345.1 528.6L347.3 528.5L349.5 527.9L351.6 527.7L353.8 527.7L356 527.6L358.2 526.6L360.4 525.9L362.6 525.1L364.8 524.8L367 524.5L369.2 522.8L371.4 521.8L373.6 522.2L375.8 522.1L378 522.3L380.2 521.3L382.4 521.5L384.6 519.2L386.8 517.5L389 516.7L391.2 514.9L393.4 513.5L395.6 512.5L397.8 512.2L400 511.1L402.2 509.6L404.3 504.8L406.5 507.6L408.7 502.8L410.9 500.9L413.1 499.3L415.3 499L417.5 501.1L419.7 497.1L421.9 497.1L424.1 495.7L426.3 492.4L428.5 486.6L430.7 483.9L432.9 479.6L435.1 476.5L437.3 467.1L439.5 468L441.7 460.4L443.9 456.9L446.1 444.7L448.3 455.6L450.5 447.5L452.7 439.8L454.8 440.7L457 434.6L459.2 427.4L461.4 436.4L463.6 432.8L465.8 421.9L468 410.8L470.2 405.3L472.4 424.7L474.6 406L476.8 428.8L479 427.9L481.2 394.5L483.4 408.9L485.6 404.5L487.8 393.8L490 396.9L492.2 399.3L494.4 389.6L496.6 405.5L498.8 424.3L501 440.8L503.2 434.2L505.4 427.9L507.5 423.8L509.7 407.8L511.9 402L514.1 422.1L516.3 410.8L518.5 396.1L520.7 383.8L522.9 372.6L525.1 367.3L527.3 354.8L529.5 361L531.7 368.3L533.9 351.8L536.1 344.8L538.3 375.1L540.5 347.8L542.7 342.2L544.9 347.1L547.1 342.6L549.3 351.5L551.5 334.2L553.7 324.7L555.9 326.4L558.1 332.9L560.2 326.7L562.4 322L564.6 322.7L566.8 315L569 305.4L571.2 295.4L573.4 285.6L575.6 273.1L577.8 263.4L580 253.6L582.2 239.5L584.4 217.5L586.6 215.6L588.8 200.6L591 185.2L593.2 197.1L595.4 207.4L597.6 187.9L599.8 177.6L602 173.9L604.2 169L606.4 183.5L608.6 192.3L610.8 209.7L612.9 211L615.1 194.1L617.3 194.8L619.5 194L621.7 182.2L623.9 165.9L626.1 160L628.3 160.9L630.5 165.1L632.7 157L634.9 149.9L637.1 143.2L639.3 138.8L641.5 125.2L643.7 119.8L645.9 116.5L648.1 111.4L650.3 96.4L652.5 103.9L654.7 101.1L656.9 96.4L659.1 89L661.3 87.6L663.5 93.4L665.6 87.7L667.8 103.3L670 134.8L672.2 120.4L674.4 130.1L676.6 144.7L678.8 134.8L681 131.3L683.2 142.4L685.4 151.3L687.6 154.3L689.8 142.3L692 150.6L694.2 190.3L696.4 167.3L698.6 163.9L700.8 176.1"></path><path fill="none" stroke-linecap="butt" stroke-linejoin="round" stroke="#ffffff" id="outline__Germany" stroke-width="2.5" d="M193.5 531.9L195.7 531.9L197.9 531.9L200.1 531.9L202.3 531.9L204.5 531.9L206.7 531.9L208.9 531.9L211.1 531.9L213.3 531.9L215.5 531.9L217.7 531.9L219.9 531.9L222.1 531.9L224.3 531.9L226.5 531.8L228.7 531.9L230.9 531.9L233.1 531.9L235.3 531.9L237.5 531.9L239.7 531.9L241.9 531.9L244.1 531.9L246.2 531.8L248.4 531.8L250.6 531.8L252.8 531.8L255 531.8L257.2 531.8L259.4 531.8L261.6 531.8L263.8 531.8L266 531.7L268.2 531.8L270.4 531.7L272.6 531.7L274.8 531.8L277 531.7L279.2 531.7L281.4 531.8L283.6 531.7L285.8 531.7L288 531.7L290.2 531.7L292.4 531.7L294.6 531.7L296.8 531.6L298.9 531.6L301.1 531.5L303.3 531.5L305.5 531.5L307.7 531.5L309.9 531.4L312.1 531.4L314.3 531.4L316.5 531.4L318.7 531.4L320.9 531.3L323.1 531.3L325.3 531.2L327.5 531.1L329.7 531L331.9 530.8L334.1 530.7L336.3 530.6L338.5 530.5L340.7 530.6L342.9 530.5L345.1 530.3L347.3 530.1L349.5 530L351.6 529.7L353.8 529.4L356 529.5L358.2 529.2L360.4 529L362.6 528.9L364.8 528.9L367 528.6L369.2 528.3L371.4 528.1L373.6 529.1L375.8 528L378 527.9L380.2 528L382.4 527.8L384.6 527.6L386.8 527.1L389 526.7L391.2 526.3L393.4 525.9L395.6 525.8L397.8 525.6L400 525.5L402.2 525.3L404.3 524.6L406.5 524.1L408.7 523.8L410.9 523.3L413.1 523.5L415.3 523.3L417.5 523L419.7 522.6L421.9 521.9L424.1 521.2L426.3 520.8L428.5 520.1L430.7 519.2L432.9 519.2L435.1 519.4L437.3 518.5L439.5 518L441.7 517L443.9 517.8L446.1 514.6L448.3 514.5L450.5 514.5L452.7 514.5L454.8 514L457 512.4L459.2 511L461.4 512.5L463.6 513.8L465.8 512.4L468 511.4L470.2 512.3L472.4 516.8L474.6 515.2L476.8 513.4L479 514.1L481.2 519L483.4 514.3L485.6 514L487.8 515.8L490 513.1L492.2 512.2L494.4 510.9L496.6 513.9L498.8 516.8L501 518.3L503.2 517.7L505.4 516L507.5 514.2L509.7 512.4L511.9 509.9L514.1 508.4L516.3 506.6L518.5 506.4L520.7 506.1L522.9 505.8L525.1 505.4L527.3 508.5L529.5 527.4L531.7 521.3L533.9 519.5L536.1 517.2L538.3 515L540.5 512L542.7 509.4L544.9 508.1L547.1 507.6L549.3 506.1L551.5 503.7L553.7 502L555.9 501.5L558.1 502.4L560.2 502.4L562.4 500.1L564.6 499.3L566.8 497.4L569 495L571.2 494.1L573.4 494.4L575.6 494.8L577.8 495.3L580 493.5L582.2 490.8L584.4 491.8L586.6 491.4L588.8 491.2L591 489.5L593.2 490.4L595.4 492.8L597.6 489.3L599.8 490.8L602 489.8L604.2 488.3L606.4 488.9L608.6 491L610.8 492.2L612.9 492.4L615.1 491.6L617.3 491.1L619.5 491L621.7 491.6L623.9 491.7L626.1 492.5L628.3 490.7L630.5 492.2L632.7 494L634.9 494.4L637.1 495.1L639.3 495.2L641.5 494.4L643.7 495.5L645.9 495.8L648.1 496.9L650.3 496.8L652.5 496.2L654.7 496.8L656.9 497L659.1 497.7L661.3 498L663.5 497.3L665.6 498.9L667.8 498.5L670 501.1L672.2 499.6L674.4 500.5L676.6 500.1L678.8 499.4L681 501L683.2 500.6L685.4 500.7L687.6 501.3L689.8 502.2L692 504.2L694.2 506.6L696.4 505.4L698.6 505.7L700.8 508.6"></path><path fill="none" stroke-linecap="butt" stroke-linejoin="round" stroke="#b13507" id="line__Germany" stroke-width="1.5" stroke-opacity="1" d="M193.5 531.9L195.7 531.9L197.9 531.9L200.1 531.9L202.3 531.9L204.5 531.9L206.7 531.9L208.9 531.9L211.1 531.9L213.3 531.9L215.5 531.9L217.7 531.9L219.9 531.9L222.1 531.9L224.3 531.9L226.5 531.8L228.7 531.9L230.9 531.9L233.1 531.9L235.3 531.9L237.5 531.9L239.7 531.9L241.9 531.9L244.1 531.9L246.2 531.8L248.4 531.8L250.6 531.8L252.8 531.8L255 531.8L257.2 531.8L259.4 531.8L261.6 531.8L263.8 531.8L266 531.7L268.2 531.8L270.4 531.7L272.6 531.7L274.8 531.8L277 531.7L279.2 531.7L281.4 531.8L283.6 531.7L285.8 531.7L288 531.7L290.2 531.7L292.4 531.7L294.6 531.7L296.8 531.6L298.9 531.6L301.1 531.5L303.3 531.5L305.5 531.5L307.7 531.5L309.9 531.4L312.1 531.4L314.3 531.4L316.5 531.4L318.7 531.4L320.9 531.3L323.1 531.3L325.3 531.2L327.5 531.1L329.7 531L331.9 530.8L334.1 530.7L336.3 530.6L338.5 530.5L340.7 530.6L342.9 530.5L345.1 530.3L347.3 530.1L349.5 530L351.6 529.7L353.8 529.4L356 529.5L358.2 529.2L360.4 529L362.6 528.9L364.8 528.9L367 528.6L369.2 528.3L371.4 528.1L373.6 529.1L375.8 528L378 527.9L380.2 528L382.4 527.8L384.6 527.6L386.8 527.1L389 526.7L391.2 526.3L393.4 525.9L395.6 525.8L397.8 525.6L400 525.5L402.2 525.3L404.3 524.6L406.5 524.1L408.7 523.8L410.9 523.3L413.1 523.5L415.3 523.3L417.5 523L419.7 522.6L421.9 521.9L424.1 521.2L426.3 520.8L428.5 520.1L430.7 519.2L432.9 519.2L435.1 519.4L437.3 518.5L439.5 518L441.7 517L443.9 517.8L446.1 514.6L448.3 514.5L450.5 514.5L452.7 514.5L454.8 514L457 512.4L459.2 511L461.4 512.5L463.6 513.8L465.8 512.4L468 511.4L470.2 512.3L472.4 516.8L474.6 515.2L476.8 513.4L479 514.1L481.2 519L483.4 514.3L485.6 514L487.8 515.8L490 513.1L492.2 512.2L494.4 510.9L496.6 513.9L498.8 516.8L501 518.3L503.2 517.7L505.4 516L507.5 514.2L509.7 512.4L511.9 509.9L514.1 508.4L516.3 506.6L518.5 506.4L520.7 506.1L522.9 505.8L525.1 505.4L527.3 508.5L529.5 527.4L531.7 521.3L533.9 519.5L536.1 517.2L538.3 515L540.5 512L542.7 509.4L544.9 508.1L547.1 507.6L549.3 506.1L551.5 503.7L553.7 502L555.9 501.5L558.1 502.4L560.2 502.4L562.4 500.1L564.6 499.3L566.8 497.4L569 495L571.2 494.1L573.4 494.4L575.6 494.8L577.8 495.3L580 493.5L582.2 490.8L584.4 491.8L586.6 491.4L588.8 491.2L591 489.5L593.2 490.4L595.4 492.8L597.6 489.3L599.8 490.8L602 489.8L604.2 488.3L606.4 488.9L608.6 491L610.8 492.2L612.9 492.4L615.1 491.6L617.3 491.1L619.5 491L621.7 491.6L623.9 491.7L626.1 492.5L628.3 490.7L630.5 492.2L632.7 494L634.9 494.4L637.1 495.1L639.3 495.2L641.5 494.4L643.7 495.5L645.9 495.8L648.1 496.9L650.3 496.8L652.5 496.2L654.7 496.8L656.9 497L659.1 497.7L661.3 498L663.5 497.3L665.6 498.9L667.8 498.5L670 501.1L672.2 499.6L674.4 500.5L676.6 500.1L678.8 499.4L681 501L683.2 500.6L685.4 500.7L687.6 501.3L689.8 502.2L692 504.2L694.2 506.6L696.4 505.4L698.6 505.7L700.8 508.6"></path><path fill="none" stroke-linecap="butt" stroke-linejoin="round" stroke="#ffffff" id="outline__United-Kingdom" stroke-width="2.5" d="M101.3 531.9L103.5 531.9L105.7 531.9L107.9 531.9L110.1 531.9L112.3 531.9L114.5 531.9L116.7 531.9L118.9 531.9L121.1 531.9L123.3 531.9L125.5 531.9L127.7 531.9L129.9 531.9L132.1 531.9L134.3 531.9L136.5 531.9L138.7 531.9L140.8 531.9L143 531.9L145.2 531.9L147.4 531.9L149.6 531.9L151.8 531.9L154 531.9L156.2 531.9L158.4 531.9L160.6 531.9L162.8 531.9L165 531.9L167.2 531.9L169.4 531.9L171.6 531.9L173.8 531.9L176 531.9L178.2 531.9L180.4 531.9L182.6 531.9L184.8 531.9L187 531.9L189.2 531.9L191.4 531.9L193.5 531.9L195.7 531.9L197.9 531.9L200.1 531.9L202.3 531.9L204.5 531.9L206.7 531.9L208.9 531.9L211.1 531.9L213.3 531.9L215.5 531.9L217.7 531.9L219.9 531.9L222.1 531.9L224.3 531.9L226.5 531.9L228.7 531.8L230.9 531.8L233.1 531.8L235.3 531.8L237.5 531.8L239.7 531.8L241.9 531.8L244.1 531.8L246.2 531.8L248.4 531.8L250.6 531.8L252.8 531.8L255 531.8L257.2 531.8L259.4 531.8L261.6 531.8L263.8 531.8L266 531.8L268.2 531.8L270.4 531.8L272.6 531.8L274.8 531.8L277 531.8L279.2 531.8L281.4 531.8L283.6 531.8L285.8 531.8L288 531.8L290.2 531.8L292.4 531.8L294.6 531.8L296.8 531.8L298.9 531.8L301.1 531.8L303.3 531.7L305.5 531.7L307.7 531.7L309.9 531.7L312.1 531.7L314.3 531.7L316.5 531.7L318.7 531.7L320.9 531.7L323.1 531.7L325.3 531.7L327.5 531.7L329.7 531.6L331.9 531.7L334.1 531.6L336.3 531.6L338.5 531.7L340.7 531.6L342.9 531.6L345.1 531.6L347.3 531.6L349.5 531.6L351.6 531.5L353.8 531.5L356 531.5L358.2 531.5L360.4 531.5L362.6 531.5L364.8 531.5L367 531.4L369.2 531.4L371.4 531.4L373.6 531.4L375.8 531.4L378 531.4L380.2 531.4L382.4 531.4L384.6 531.4L386.8 531.3L389 531.3L391.2 531.3L393.4 531.3L395.6 531.3L397.8 531.3L400 531.3L402.2 531.3L404.3 531.3L406.5 531.2L408.7 531.2L410.9 531.2L413.1 531.2L415.3 531.3L417.5 531.2L419.7 531.2L421.9 531.2L424.1 531.2L426.3 531.2L428.5 531.1L430.7 531.1L432.9 531.1L435.1 531.1L437.3 531.1L439.5 531.1L441.7 531.1L443.9 531L446.1 531L448.3 531L450.5 531L452.7 531L454.8 531L457 531L459.2 530.9L461.4 531L463.6 531L465.8 530.9L468 530.9L470.2 531L472.4 531L474.6 531L476.8 531.3L479 531.1L481.2 531L483.4 531L485.6 531L487.8 531.4L490 531L492.2 531L494.4 531L496.6 531L498.8 531.1L501 531.1L503.2 531.1L505.4 531L507.5 531L509.7 531L511.9 530.9L514.1 531L516.3 531L518.5 530.9L520.7 530.9L522.9 530.9L525.1 531L527.3 531L529.5 531L531.7 531L533.9 531L536.1 530.9L538.3 530.9L540.5 530.9L542.7 530.8L544.9 530.9L547.1 530.9L549.3 530.8L551.5 530.8L553.7 530.8L555.9 530.8L558.1 530.8L560.2 530.8L562.4 530.8L564.6 530.8L566.8 530.7L569 530.7L571.2 530.7L573.4 530.7L575.6 530.7L577.8 530.8L580 530.7L582.2 530.7L584.4 530.6L586.6 530.6L588.8 530.6L591 530.6L593.2 530.7L595.4 530.7L597.6 530.7L599.8 530.7L602 530.7L604.2 530.6L606.4 530.8L608.6 530.8L610.8 530.8L612.9 530.8L615.1 530.9L617.3 530.8L619.5 530.8L621.7 530.8L623.9 530.8L626.1 530.8L628.3 530.7L630.5 530.7L632.7 530.7L634.9 530.8L637.1 530.8L639.3 530.8L641.5 530.8L643.7 530.8L645.9 530.8L648.1 530.8L650.3 530.8L652.5 530.8L654.7 530.8L656.9 530.8L659.1 530.8L661.3 530.8L663.5 530.8L665.6 530.8L667.8 530.8L670 530.9L672.2 530.9L674.4 531L676.6 531L678.8 531L681 531.1L683.2 531.1L685.4 531.1L687.6 531.2L689.8 531.2L692 531.2L694.2 531.3L696.4 531.2L698.6 531.3L700.8 531.3"></path><path fill="none" stroke-linecap="butt" stroke-linejoin="round" stroke="#4c6a9c" id="line__United-Kingdom" stroke-width="1.5" stroke-opacity="1" d="M101.3 531.9L103.5 531.9L105.7 531.9L107.9 531.9L110.1 531.9L112.3 531.9L114.5 531.9L116.7 531.9L118.9 531.9L121.1 531.9L123.3 531.9L125.5 531.9L127.7 531.9L129.9 531.9L132.1 531.9L134.3 531.9L136.5 531.9L138.7 531.9L140.8 531.9L143 531.9L145.2 531.9L147.4 531.9L149.6 531.9L151.8 531.9L154 531.9L156.2 531.9L158.4 531.9L160.6 531.9L162.8 531.9L165 531.9L167.2 531.9L169.4 531.9L171.6 531.9L173.8 531.9L176 531.9L178.2 531.9L180.4 531.9L182.6 531.9L184.8 531.9L187 531.9L189.2 531.9L191.4 531.9L193.5 531.9L195.7 531.9L197.9 531.9L200.1 531.9L202.3 531.9L204.5 531.9L206.7 531.9L208.9 531.9L211.1 531.9L213.3 531.9L215.5 531.9L217.7 531.9L219.9 531.9L222.1 531.9L224.3 531.9L226.5 531.9L228.7 531.8L230.9 531.8L233.1 531.8L235.3 531.8L237.5 531.8L239.7 531.8L241.9 531.8L244.1 531.8L246.2 531.8L248.4 531.8L250.6 531.8L252.8 531.8L255 531.8L257.2 531.8L259.4 531.8L261.6 531.8L263.8 531.8L266 531.8L268.2 531.8L270.4 531.8L272.6 531.8L274.8 531.8L277 531.8L279.2 531.8L281.4 531.8L283.6 531.8L285.8 531.8L288 531.8L290.2 531.8L292.4 531.8L294.6 531.8L296.8 531.8L298.9 531.8L301.1 531.8L303.3 531.7L305.5 531.7L307.7 531.7L309.9 531.7L312.1 531.7L314.3 531.7L316.5 531.7L318.7 531.7L320.9 531.7L323.1 531.7L325.3 531.7L327.5 531.7L329.7 531.6L331.9 531.7L334.1 531.6L336.3 531.6L338.5 531.7L340.7 531.6L342.9 531.6L345.1 531.6L347.3 531.6L349.5 531.6L351.6 531.5L353.8 531.5L356 531.5L358.2 531.5L360.4 531.5L362.6 531.5L364.8 531.5L367 531.4L369.2 531.4L371.4 531.4L373.6 531.4L375.8 531.4L378 531.4L380.2 531.4L382.4 531.4L384.6 531.4L386.8 531.3L389 531.3L391.2 531.3L393.4 531.3L395.6 531.3L397.8 531.3L400 531.3L402.2 531.3L404.3 531.3L406.5 531.2L408.7 531.2L410.9 531.2L413.1 531.2L415.3 531.3L417.5 531.2L419.7 531.2L421.9 531.2L424.1 531.2L426.3 531.2L428.5 531.1L430.7 531.1L432.9 531.1L435.1 531.1L437.3 531.1L439.5 531.1L441.7 531.1L443.9 531L446.1 531L448.3 531L450.5 531L452.7 531L454.8 531L457 531L459.2 530.9L461.4 531L463.6 531L465.8 530.9L468 530.9L470.2 531L472.4 531L474.6 531L476.8 531.3L479 531.1L481.2 531L483.4 531L485.6 531L487.8 531.4L490 531L492.2 531L494.4 531L496.6 531L498.8 531.1L501 531.1L503.2 531.1L505.4 531L507.5 531L509.7 531L511.9 530.9L514.1 531L516.3 531L518.5 530.9L520.7 530.9L522.9 530.9L525.1 531L527.3 531L529.5 531L531.7 531L533.9 531L536.1 530.9L538.3 530.9L540.5 530.9L542.7 530.8L544.9 530.9L547.1 530.9L549.3 530.8L551.5 530.8L553.7 530.8L555.9 530.8L558.1 530.8L560.2 530.8L562.4 530.8L564.6 530.8L566.8 530.7L569 530.7L571.2 530.7L573.4 530.7L575.6 530.7L577.8 530.8L580 530.7L582.2 530.7L584.4 530.6L586.6 530.6L588.8 530.6L591 530.6L593.2 530.7L595.4 530.7L597.6 530.7L599.8 530.7L602 530.7L604.2 530.6L606.4 530.8L608.6 530.8L610.8 530.8L612.9 530.8L615.1 530.9L617.3 530.8L619.5 530.8L621.7 530.8L623.9 530.8L626.1 530.8L628.3 530.7L630.5 530.7L632.7 530.7L634.9 530.8L637.1 530.8L639.3 530.8L641.5 530.8L643.7 530.8L645.9 530.8L648.1 530.8L650.3 530.8L652.5 530.8L654.7 530.8L656.9 530.8L659.1 530.8L661.3 530.8L663.5 530.8L665.6 530.8L667.8 530.8L670 530.9L672.2 530.9L674.4 531L676.6 531L678.8 531L681 531.1L683.2 531.1L685.4 531.1L687.6 531.2L689.8 531.2L692 531.2L694.2 531.3L696.4 531.2L698.6 531.3L700.8 531.3"></path></g></g><g id="footer" class="SourcesFooter" style="fill:#5b5b5b"><g id="sources" class="markdown-text-wrap"><text x="16.0" y="581.0" style="font-size:13px;line-height:1.2"><tspan x="16" y="581.0"><tspan style="font-weight:700">Data source:</tspan> Global Carbon Budget (2024)</tspan></text></g><text id="origin-url" font-size="13.00" x="315.3" y="581.0"><tspan x="315.29999999999995" y="581.01"><a target="_blank" style="fill: #5b5b5b;" href="https://ourworldindata.org/co2-and-greenhouse-gas-emissions">OurWorldinData.org/co2-and-greenhouse-gas-emissions</a> | <a target="_blank" style="fill: #5b5b5b;" href="https://ourworldindata.org">Powered by ourworldindata.org</a></tspan></text></g></svg>