<svg xmlns="http://www.w3.org/2000/svg" version="1.1" style="font-family:Lato, &#x27;Helvetica Neue&#x27;, Helvetica, Arial, &#x27;Liberation Sans&#x27;, sans-serif;font-size:16px;background-color:#ffffff;text-rendering:geometricPrecision;-webkit-font-smoothing:antialiased" width="850" height="600" viewBox="0 0 850 600"><defs><style>@import url(https://ourworldindata.org/fonts.css)</style></defs><defs><pattern id="noDataPattern" patternUnits="userSpaceOnUse" width="4" height="4" patternTransform="rotate(-45 2 2)"><path d="M -1,2 l 6,0" stroke="#ccc" stroke-width="0.7"></path></pattern></defs><rect class="background-fill" fill="#ffffff" width="850" height="600"></rect><g id="header" class="HeaderView"><g id="logo" transform="translate(769, 16) scale(1)"><svg className="owidLogo" xmlns="http://www.w3.org/2000/svg" width="65" height="36" viewBox="0 0 65 36"  fill="none"><path fill="#002147" d="M0 0h64.8v36H0z"/><path fill="#CE261E" d="M0 33.3h64.8V36H0z"/><path fill="#fff" d="M13.796 10.575c0 .636-.106 1.226-.318 1.77a4.193 4.193 0 0 1-.894 1.404 4.084 4.084 0 0 1-1.386.93c-.54.22-1.138.33-1.794.33-.656 0-1.256-.11-1.8-.33a4.149 4.149 0 0 1-1.392-.93 4.193 4.193 0 0 1-.894-1.404A4.833 4.833 0 0 1 5 10.575c0-.636.106-1.224.318-1.764a4.18 4.18 0 0 1 .894-1.41 4.076 4.076 0 0 1 1.392-.924 4.684 4.684 0 0 1 1.8-.336c.656 0 1.254.112 1.794.336.54.224 1.002.534 1.386.93.384.392.682.86.894 1.404.212.54.318 1.128.318 1.764Zm-1.656 0c0-.476-.064-.902-.192-1.278a2.671 2.671 0 0 0-.54-.966 2.332 2.332 0 0 0-.864-.606 2.94 2.94 0 0 0-1.14-.21c-.424 0-.806.07-1.146.21-.34.14-.63.342-.87.606a2.742 2.742 0 0 0-.546.966 3.955 3.955 0 0 0-.192 1.278c0 .476.064.904.192 1.284.128.376.31.696.546.96.24.26.53.46.87.6.34.14.722.21 1.146.21.424 0 .804-.07 1.14-.21.34-.14.628-.34.864-.6.236-.264.416-.584.54-.96a4.01 4.01 0 0 0 .192-1.284ZM16.104 8.757v3.912c0 .376.086.668.258.876.176.204.438.306.786.306.256 0 .496-.056.72-.168a2.58 2.58 0 0 0 .636-.474V8.757h1.482v6.156h-.906c-.192 0-.318-.09-.378-.27l-.102-.492a4.65 4.65 0 0 1-.396.354 2.577 2.577 0 0 1-.438.27 2.35 2.35 0 0 1-.498.168 2.345 2.345 0 0 1-.57.066c-.336 0-.634-.056-.894-.168a1.821 1.821 0 0 1-.648-.486 2.157 2.157 0 0 1-.402-.738 3.233 3.233 0 0 1-.132-.948V8.757h1.482ZM21.328 14.913V8.757h.87c.152 0 .258.028.318.084.06.056.1.152.12.288l.09.744c.22-.38.478-.68.774-.9.296-.22.628-.33.996-.33.304 0 .556.07.756.21l-.192 1.11c-.012.072-.038.124-.078.156a.278.278 0 0 1-.162.042 1.01 1.01 0 0 1-.246-.042 1.646 1.646 0 0 0-.414-.042c-.308 0-.572.086-.792.258-.22.168-.406.416-.558.744v3.834h-1.482ZM27.347 6.237h1.356a.57.57 0 0 1 .348.102c.096.064.16.152.192.264l1.476 5.19c.036.128.068.268.096.42.032.148.062.306.09.474a5.968 5.968 0 0 1 .228-.894l1.704-5.19a.575.575 0 0 1 .186-.252.543.543 0 0 1 .348-.114h.474a.57.57 0 0 1 .348.102.497.497 0 0 1 .192.264l1.692 5.19c.088.256.164.54.228.852.028-.156.056-.306.084-.45.032-.144.064-.278.096-.402l1.476-5.19c.028-.1.09-.186.186-.258a.563.563 0 0 1 .348-.108h1.266l-2.694 8.676h-1.458l-1.896-5.928-.078-.246a9.504 9.504 0 0 1-.072-.282c-.024.1-.05.194-.078.282-.024.088-.048.17-.072.246l-1.914 5.928H30.04l-2.694-8.676ZM42.771 8.661c.46 0 .876.074 1.248.222.376.148.696.358.96.63s.468.604.612.996c.144.392.216.83.216 1.314 0 .488-.072.928-.216 1.32a2.85 2.85 0 0 1-.612 1.002 2.653 2.653 0 0 1-.96.636 3.35 3.35 0 0 1-1.248.222c-.46 0-.878-.074-1.254-.222a2.712 2.712 0 0 1-.966-.636 2.922 2.922 0 0 1-.618-1.002 3.807 3.807 0 0 1-.216-1.32c0-.484.072-.922.216-1.314.148-.392.354-.724.618-.996.268-.272.59-.482.966-.63a3.397 3.397 0 0 1 1.254-.222Zm0 5.202c.512 0 .89-.172 1.134-.516.248-.344.372-.848.372-1.512s-.124-1.17-.372-1.518c-.244-.348-.622-.522-1.134-.522-.52 0-.904.176-1.152.528-.248.348-.372.852-.372 1.512s.124 1.164.372 1.512c.248.344.632.516 1.152.516ZM46.723 14.913V8.757h.87c.152 0 .258.028.318.084.06.056.1.152.12.288l.09.744c.22-.38.478-.68.774-.9.296-.22.628-.33.996-.33.304 0 .556.07.756.21l-.192 1.11c-.012.072-.038.124-.078.156a.278.278 0 0 1-.162.042 1.01 1.01 0 0 1-.246-.042 1.646 1.646 0 0 0-.414-.042c-.308 0-.572.086-.792.258-.22.168-.406.416-.558.744v3.834h-1.482ZM52.96 5.997v8.916h-1.482V5.997h1.482ZM58.732 14.913c-.192 0-.318-.09-.378-.27l-.12-.594a3.68 3.68 0 0 1-.402.39c-.14.116-.292.216-.456.3-.16.084-.334.148-.522.192a2.372 2.372 0 0 1-.6.072c-.336 0-.644-.07-.924-.21a2.098 2.098 0 0 1-.726-.606 3.033 3.033 0 0 1-.468-.99 5.072 5.072 0 0 1-.162-1.344c0-.456.062-.88.186-1.272s.302-.732.534-1.02c.232-.288.51-.512.834-.672a2.384 2.384 0 0 1 1.092-.246 2.103 2.103 0 0 1 1.536.606V5.997h1.482v8.916h-.906Zm-1.974-1.086c.308 0 .57-.064.786-.192.216-.128.42-.31.612-.546v-2.76a1.452 1.452 0 0 0-.552-.432 1.597 1.597 0 0 0-.636-.126c-.224 0-.428.042-.612.126a1.21 1.21 0 0 0-.462.384c-.124.168-.22.384-.288.648-.068.26-.102.568-.102.924 0 .36.028.666.084.918.06.248.144.452.252.612.108.156.24.27.396.342.156.068.33.102.522.102ZM16.331 20.757v6.156H14.85v-6.156h1.481Zm.223-1.794a.844.844 0 0 1-.078.36.963.963 0 0 1-.21.294.995.995 0 0 1-.3.204.963.963 0 0 1-.372.072.948.948 0 0 1-.367-.072 1.018 1.018 0 0 1-.498-.498.963.963 0 0 1 0-.732.995.995 0 0 1 .205-.3.929.929 0 0 1 .293-.198.899.899 0 0 1 .738 0 .912.912 0 0 1 .3.198.943.943 0 0 1 .288.672ZM17.771 26.913v-6.156h.906c.192 0 .318.09.378.27l.102.486a2.934 2.934 0 0 1 .828-.618c.156-.076.322-.134.498-.174.176-.04.368-.06.576-.06.336 0 .634.058.894.174.26.112.476.272.648.48.176.204.308.45.396.738.092.284.138.598.138.942v3.918h-1.482v-3.918c0-.376-.088-.666-.264-.87-.172-.208-.432-.312-.78-.312-.256 0-.496.058-.72.174a2.58 2.58 0 0 0-.636.474v4.452h-1.482ZM34.22 22.575c0 .636-.106 1.22-.318 1.752-.212.532-.51.99-.894 1.374a4 4 0 0 1-1.386.894 4.87 4.87 0 0 1-1.794.318h-3.312v-8.676h3.312a4.79 4.79 0 0 1 1.794.324 4 4 0 0 1 1.386.894c.384.38.682.836.894 1.368.212.532.318 1.116.318 1.752Zm-1.65 0c0-.476-.064-.902-.192-1.278a2.68 2.68 0 0 0-.546-.96 2.332 2.332 0 0 0-.864-.606 2.94 2.94 0 0 0-1.14-.21h-1.686v6.108h1.686c.424 0 .804-.07 1.14-.21.34-.14.628-.34.864-.6a2.75 2.75 0 0 0 .546-.96 4.01 4.01 0 0 0 .192-1.284ZM39.98 26.913h-.665c-.14 0-.25-.02-.33-.06-.08-.044-.14-.13-.18-.258l-.132-.438c-.156.14-.31.264-.462.372a2.804 2.804 0 0 1-.462.264c-.16.072-.33.126-.51.162-.18.036-.38.054-.6.054-.26 0-.5-.034-.72-.102a1.618 1.618 0 0 1-.57-.318 1.448 1.448 0 0 1-.366-.522 1.852 1.852 0 0 1-.132-.726c0-.232.06-.46.18-.684.124-.228.328-.432.612-.612.284-.184.662-.336 1.134-.456.472-.12 1.058-.188 1.758-.204v-.36c0-.412-.088-.716-.264-.912-.172-.2-.424-.3-.756-.3a1.837 1.837 0 0 0-1.02.276c-.116.068-.224.13-.324.186a.664.664 0 0 1-.33.084.429.429 0 0 1-.258-.078.614.614 0 0 1-.174-.192l-.27-.474c.708-.648 1.562-.972 2.562-.972.36 0 .68.06.96.18.284.116.524.28.72.492.196.208.344.458.444.75.104.292.156.612.156.96v3.888Zm-2.88-.924c.153 0 .293-.014.42-.042.129-.028.249-.07.36-.126.117-.056.227-.124.33-.204.109-.084.217-.182.325-.294v-1.038c-.432.02-.794.058-1.086.114-.288.052-.52.12-.696.204a.923.923 0 0 0-.378.294.664.664 0 0 0-.108.366c0 .26.076.446.228.558.156.112.358.168.606.168ZM43.22 27.01c-.532 0-.942-.15-1.23-.45-.288-.305-.432-.723-.432-1.255v-3.438h-.624a.31.31 0 0 1-.21-.078c-.056-.052-.084-.13-.084-.234v-.588l.99-.162.312-1.68a.302.302 0 0 1 .108-.186.365.365 0 0 1 .222-.066h.768v1.938h1.62v1.056h-1.62v3.336c0 .192.048.342.144.45a.488.488 0 0 0 .384.162c.092 0 .168-.01.228-.03.064-.024.118-.048.162-.072.048-.024.09-.046.126-.066a.194.194 0 0 1 .108-.036.16.16 0 0 1 .108.036c.028.02.058.052.09.096l.444.72c-.216.18-.464.316-.744.408a2.77 2.77 0 0 1-.87.138ZM50.423 26.913h-.666c-.14 0-.25-.02-.33-.06-.08-.044-.14-.13-.18-.258l-.132-.438c-.156.14-.31.264-.462.372a2.804 2.804 0 0 1-.462.264c-.16.072-.33.126-.51.162-.18.036-.38.054-.6.054-.26 0-.5-.034-.72-.102a1.618 1.618 0 0 1-.57-.318 1.448 1.448 0 0 1-.366-.522 1.852 1.852 0 0 1-.132-.726c0-.232.06-.46.18-.684.124-.228.328-.432.612-.612.284-.184.662-.336 1.134-.456.472-.12 1.058-.188 1.758-.204v-.36c0-.412-.088-.716-.264-.912-.172-.2-.424-.3-.756-.3a1.837 1.837 0 0 0-1.02.276c-.116.068-.224.13-.324.186a.664.664 0 0 1-.33.084.429.429 0 0 1-.258-.078.614.614 0 0 1-.174-.192l-.27-.474c.708-.648 1.562-.972 2.562-.972.36 0 .68.06.96.18.284.116.524.28.72.492.196.208.344.458.444.75.104.292.156.612.156.96v3.888Zm-2.88-.924c.152 0 .292-.014.42-.042.128-.028.248-.07.36-.126.116-.056.226-.124.33-.204.108-.084.216-.182.324-.294v-1.038c-.432.02-.794.058-1.086.114-.288.052-.52.12-.696.204a.923.923 0 0 0-.378.294.664.664 0 0 0-.108.366c0 .26.076.446.228.558.156.112.358.168.606.168Z"/></svg></g><a id="title" href="https://ourworldindata.org/grapher/excess-mortality-p-scores-average-baseline?facet=entity" style="font-family:&#x27;Playfair Display&#x27;, Georgia, &#x27;Times New Roman&#x27;, &#x27;Liberation Serif&#x27;, serif" target="_blank" rel="noopener"><text font-size="21.50" font-weight="600" x="16.0" y="36.9" fill="#4e4e4e"><tspan x="16" y="36.855000000000004">Excess mortality: Deaths from all causes compared to average over</tspan><tspan x="16" y="62.655">previous years</tspan></text></a><g id="subtitle" class="markdown-text-wrap"><text x="16.0" y="88.1" style="font-size:15px;line-height:1.2" fill="#858585"><tspan x="16" y="88.1">Percentage difference between the reported weekly or monthly deaths in 2020–2024 and the average deaths in the same</tspan><tspan x="16" y="106.1">period in 2015–2019.</tspan></text></g></g><g id="chart-area" style="pointer-events:none"><text x="47.985" y="136.1" fill="#5b5b5b" font-size="14" style="font-weight:700">United States<title>United States</title></text><g class="LineChart"><defs><clipPath id="boundsClip-1"><rect x="37.985" y="133.1" width="437.985" height="179"></rect></clipPath></defs><rect x="16" y="143.1" width="417.985" height="159" fill-opacity="0"></rect><g id="horizontal-axis" class="HorizontalAxis"><g id="tick-marks"><line id="Jan-5,-2020" x1="48" y1="284.1" x2="48" y2="289.6" stroke="#999" stroke-width="1"></line><line id="Dec-1,-2024" x1="433" y1="284.1" x2="433" y2="289.6" stroke="#999" stroke-width="1"></line><line id="Sep-12,-2021" x1="180.3" y1="284.1" x2="180.3" y2="289.6" stroke="#999" stroke-width="1"></line><line id="Oct-17,-2022" x1="266.3" y1="284.1" x2="266.3" y2="289.6" stroke="#999" stroke-width="1"></line></g><g id="tick-labels"><text x="47.985" y="300.1" fill="#5b5b5b" text-anchor="start" font-size="10.5">Jan 5, 2020</text><text x="432.985" y="300.1" fill="#5b5b5b" text-anchor="end" font-size="10.5">Dec 1, 2024</text><text x="180.3" y="300.1" fill="#5b5b5b" text-anchor="middle" font-size="10.5">Sep 12, 2021</text><text x="266.3" y="300.1" fill="#5b5b5b" text-anchor="middle" font-size="10.5">Oct 17, 2022</text></g></g><g id="vertical-axis" class="VerticalAxis"><g id="tick-labels"><text x="42.98" y="264.8" dy=".32em" text-anchor="end" fill="#5b5b5b" font-size="10.5">0%</text><text x="42.98" y="243.4" dy=".32em" text-anchor="end" fill="#5b5b5b" font-size="10.5">20%</text><text x="42.98" y="222.1" dy=".32em" text-anchor="end" fill="#5b5b5b" font-size="10.5">40%</text><text x="42.98" y="200.7" dy=".32em" text-anchor="end" fill="#5b5b5b" font-size="10.5">60%</text><text x="42.98" y="179.4" dy=".32em" text-anchor="end" fill="#5b5b5b" font-size="10.5">80%</text><text x="42.98" y="158.1" dy=".32em" text-anchor="end" fill="#5b5b5b" font-size="10.5">100%</text></g></g><g id="horizontal-grid-lines" class="AxisGridLines horizontalLines"><line id="0%" x1="47.98" y1="264.8" x2="432.99" y2="264.8" stroke="#999" stroke-width="1"></line><line id="20%" x1="47.98" y1="243.4" x2="432.99" y2="243.4" stroke="#ddd" stroke-width="1" stroke-dasharray="2,1"></line><line id="40%" x1="47.98" y1="222.1" x2="432.99" y2="222.1" stroke="#ddd" stroke-width="1" stroke-dasharray="2,1"></line><line id="60%" x1="47.98" y1="200.7" x2="432.99" y2="200.7" stroke="#ddd" stroke-width="1" stroke-dasharray="2,1"></line><line id="80%" x1="47.98" y1="179.4" x2="432.99" y2="179.4" stroke="#ddd" stroke-width="1" stroke-dasharray="2,1"></line><line id="100%" x1="47.98" y1="158.1" x2="432.99" y2="158.1" stroke="#ddd" stroke-width="1" stroke-dasharray="2,1"></line></g><g clip-path="url(#boundsClip-1)"><g class="Lines"><rect x="48" y="149" width="385" height="136" fill="rgba(255,255,255,0)" opacity="0"></rect><path fill="none" stroke-linecap="butt" stroke-linejoin="round" stroke="#ffffff" id="outline__Excess-mortality-P-scores,-5-year-average-baseline,-all-ages" stroke-width="2.5" d="M48 264.9L49.5 265.3L51 265.8L52.5 264.1L54 263.5L55.5 262.8L57 263.1L58.5 261.7L60 260.3L61.5 260.2L63 260.3L64.5 258.6L66 249.4L67.5 231.2L69 216.7L70.5 218.7L72 222.2L73.6 231.4L75.1 234.9L76.6 238.4L78.1 243.1L79.6 246.7L81.1 248.8L82.6 250.2L84.1 249.7L85.6 248.3L87.1 246.2L88.6 240.6L90.1 237.7L91.6 234.6L93.1 235L94.6 236.4L96.1 235.7L97.6 237.8L99.1 241.9L100.6 244.3L102.1 246.1L103.6 246L105.1 244.8L106.6 247.8L108.1 244.9L109.6 247.9L111.1 245.6L112.7 243.4L114.2 236.4L115.7 235.1L117.2 230.1L118.7 227.6L120.2 222.3L121.7 216.2L123.2 215L124.7 214.6L126.2 209.7L127.7 217.3L129.2 218.6L130.7 222.4L132.2 227.7L133.7 231L135.2 240.8L136.7 243.3L138.2 247L139.7 252.1L141.2 256.2L142.7 257.1L144.2 255.5L145.7 257.8L147.2 253.1L148.7 255.8L150.3 251.7L151.8 250.7L153.3 252.2L154.8 252L156.3 250.3L157.8 252.1L159.3 251.4L160.8 252.6L162.3 251.9L163.8 252.1L165.3 250.4L166.8 251.8L168.3 250.7L169.8 247.6L171.3 243L172.8 236.1L174.3 229.4L175.8 222.3L177.3 217.4L178.8 215.6L180.3 215.9L181.8 217.5L183.3 219.9L184.8 222.4L186.3 228.6L187.8 233.1L189.4 234.8L190.9 237.1L192.4 237L193.9 236.7L195.4 238.9L196.9 237.5L198.4 233.8L199.9 232.5L201.4 236.5L202.9 235.2L204.4 233.2L205.9 230.1L207.4 222.6L208.9 218.8L210.4 217L211.9 222.1L213.4 230.3L214.9 240.5L216.4 248.1L217.9 250.5L219.4 256.1L220.9 256.5L222.4 259.7L223.9 258.9L225.4 259.2L226.9 258.2L228.5 258.6L230 255.6L231.5 255.1L233 253L234.5 252.4L236 252.5L237.5 251L239 250.5L240.5 250.7L242 249L243.5 249.1L245 249.5L246.5 247.8L248 244.6L249.5 246.1L251 245.5L252.5 247.1L254 246.7L255.5 246.8L257 248.1L258.5 247.4L260 248.9L261.5 248L263 249L264.5 248.1L266.1 248.9L267.6 248.8L269.1 249.8L270.6 248.1L272.1 249.3L273.6 249.2L275.1 243.8L276.6 242.2L278.1 242.1L279.6 245.6L281.1 243.1L282.6 240.8L284.1 249.1L285.6 255.2L287.1 256.9L288.6 257.9L290.1 256.1L291.6 256.4L293.1 257.4L294.6 255.6L296.1 256.3L297.6 258.1L299.1 255.6L300.6 255.4L302.1 254.8L303.6 256.8L305.2 254.6L306.7 255.2L308.2 254.6L309.7 254L311.2 253.1L312.7 254.4L314.2 255.2L315.7 252.5L317.2 254.1L318.7 253.6L320.2 254.1L321.7 253.9L323.2 254L324.7 253.8L326.2 253.1L327.7 252.6L329.2 252L330.7 251.2L332.2 250.5L333.7 250.7L335.2 252L336.7 250.4L338.2 252.2L339.7 251.7L341.2 251.7L342.8 251.2L344.3 251.6L345.8 252L347.3 252.9L348.8 252.2L350.3 250.8L351.8 252.8L353.3 254.2L354.8 249.6L356.3 249.2L357.8 252.4L359.3 249.8L360.8 249.9L362.3 252.6L363.8 252.1L365.3 252.4L366.8 251.3L368.3 256.2L369.8 257.6L371.3 258.8L372.8 256.3L374.3 257.4L375.8 258.9L377.3 257.9L378.8 259.8L380.3 257.5L381.9 257.4L383.4 255.9L384.9 256.6L386.4 255.7L387.9 256.1L389.4 255.2L390.9 254.8L392.4 254L393.9 254.9L395.4 253L396.9 253.5L398.4 253.7L399.9 252.3L401.4 253.9L402.9 253.2L404.4 254.1L405.9 253L407.4 251.5L408.9 252.4L410.4 251.2L411.9 251.2L413.4 252.1L414.9 253.1L416.4 252.4L417.9 253.8L419.4 254.4L421 255.9L422.5 255.9L424 256.2L425.5 257.3L427 259.4"></path><path fill="none" stroke-linecap="butt" stroke-linejoin="round" stroke="#4C6A9C" id="line__Excess-mortality-P-scores,-5-year-average-baseline,-all-ages" stroke-width="1.5" stroke-opacity="1" d="M48 264.9L49.5 265.3L51 265.8L52.5 264.1L54 263.5L55.5 262.8L57 263.1L58.5 261.7L60 260.3L61.5 260.2L63 260.3L64.5 258.6L66 249.4L67.5 231.2L69 216.7L70.5 218.7L72 222.2L73.6 231.4L75.1 234.9L76.6 238.4L78.1 243.1L79.6 246.7L81.1 248.8L82.6 250.2L84.1 249.7L85.6 248.3L87.1 246.2L88.6 240.6L90.1 237.7L91.6 234.6L93.1 235L94.6 236.4L96.1 235.7L97.6 237.8L99.1 241.9L100.6 244.3L102.1 246.1L103.6 246L105.1 244.8L106.6 247.8L108.1 244.9L109.6 247.9L111.1 245.6L112.7 243.4L114.2 236.4L115.7 235.1L117.2 230.1L118.7 227.6L120.2 222.3L121.7 216.2L123.2 215L124.7 214.6L126.2 209.7L127.7 217.3L129.2 218.6L130.7 222.4L132.2 227.7L133.7 231L135.2 240.8L136.7 243.3L138.2 247L139.7 252.1L141.2 256.2L142.7 257.1L144.2 255.5L145.7 257.8L147.2 253.1L148.7 255.8L150.3 251.7L151.8 250.7L153.3 252.2L154.8 252L156.3 250.3L157.8 252.1L159.3 251.4L160.8 252.6L162.3 251.9L163.8 252.1L165.3 250.4L166.8 251.8L168.3 250.7L169.8 247.6L171.3 243L172.8 236.1L174.3 229.4L175.8 222.3L177.3 217.4L178.8 215.6L180.3 215.9L181.8 217.5L183.3 219.9L184.8 222.4L186.3 228.6L187.8 233.1L189.4 234.8L190.9 237.1L192.4 237L193.9 236.7L195.4 238.9L196.9 237.5L198.4 233.8L199.9 232.5L201.4 236.5L202.9 235.2L204.4 233.2L205.9 230.1L207.4 222.6L208.9 218.8L210.4 217L211.9 222.1L213.4 230.3L214.9 240.5L216.4 248.1L217.9 250.5L219.4 256.1L220.9 256.5L222.4 259.7L223.9 258.9L225.4 259.2L226.9 258.2L228.5 258.6L230 255.6L231.5 255.1L233 253L234.5 252.4L236 252.5L237.5 251L239 250.5L240.5 250.7L242 249L243.5 249.1L245 249.5L246.5 247.8L248 244.6L249.5 246.1L251 245.5L252.5 247.1L254 246.7L255.5 246.8L257 248.1L258.5 247.4L260 248.9L261.5 248L263 249L264.5 248.1L266.1 248.9L267.6 248.8L269.1 249.8L270.6 248.1L272.1 249.3L273.6 249.2L275.1 243.8L276.6 242.2L278.1 242.1L279.6 245.6L281.1 243.1L282.6 240.8L284.1 249.1L285.6 255.2L287.1 256.9L288.6 257.9L290.1 256.1L291.6 256.4L293.1 257.4L294.6 255.6L296.1 256.3L297.6 258.1L299.1 255.6L300.6 255.4L302.1 254.8L303.6 256.8L305.2 254.6L306.7 255.2L308.2 254.6L309.7 254L311.2 253.1L312.7 254.4L314.2 255.2L315.7 252.5L317.2 254.1L318.7 253.6L320.2 254.1L321.7 253.9L323.2 254L324.7 253.8L326.2 253.1L327.7 252.6L329.2 252L330.7 251.2L332.2 250.5L333.7 250.7L335.2 252L336.7 250.4L338.2 252.2L339.7 251.7L341.2 251.7L342.8 251.2L344.3 251.6L345.8 252L347.3 252.9L348.8 252.2L350.3 250.8L351.8 252.8L353.3 254.2L354.8 249.6L356.3 249.2L357.8 252.4L359.3 249.8L360.8 249.9L362.3 252.6L363.8 252.1L365.3 252.4L366.8 251.3L368.3 256.2L369.8 257.6L371.3 258.8L372.8 256.3L374.3 257.4L375.8 258.9L377.3 257.9L378.8 259.8L380.3 257.5L381.9 257.4L383.4 255.9L384.9 256.6L386.4 255.7L387.9 256.1L389.4 255.2L390.9 254.8L392.4 254L393.9 254.9L395.4 253L396.9 253.5L398.4 253.7L399.9 252.3L401.4 253.9L402.9 253.2L404.4 254.1L405.9 253L407.4 251.5L408.9 252.4L410.4 251.2L411.9 251.2L413.4 252.1L414.9 253.1L416.4 252.4L417.9 253.8L419.4 254.4L421 255.9L422.5 255.9L424 256.2L425.5 257.3L427 259.4"></path></g></g></g><text x="447.985" y="136.1" fill="#5b5b5b" font-size="14" style="font-weight:700">United Kingdom<title>United Kingdom</title></text><g class="LineChart"><defs><clipPath id="boundsClip-2"><rect x="437.985" y="133.1" width="406" height="179"></rect></clipPath></defs><rect x="447.985" y="143.1" width="386" height="159" fill-opacity="0"></rect><g id="horizontal-axis" class="HorizontalAxis"><g id="tick-marks"><line id="Jan-5,-2020" x1="448" y1="284.1" x2="448" y2="289.6" stroke="#999" stroke-width="1"></line><line id="Dec-1,-2024" x1="833" y1="284.1" x2="833" y2="289.6" stroke="#999" stroke-width="1"></line><line id="Sep-12,-2021" x1="580.3" y1="284.1" x2="580.3" y2="289.6" stroke="#999" stroke-width="1"></line><line id="Oct-17,-2022" x1="666.3" y1="284.1" x2="666.3" y2="289.6" stroke="#999" stroke-width="1"></line></g><g id="tick-labels"><text x="447.985" y="300.1" fill="#5b5b5b" text-anchor="start" font-size="10.5">Jan 5, 2020</text><text x="832.985" y="300.1" fill="#5b5b5b" text-anchor="end" font-size="10.5">Dec 1, 2024</text><text x="580.3" y="300.1" fill="#5b5b5b" text-anchor="middle" font-size="10.5">Sep 12, 2021</text><text x="666.3" y="300.1" fill="#5b5b5b" text-anchor="middle" font-size="10.5">Oct 17, 2022</text></g></g><g id="horizontal-grid-lines" class="AxisGridLines horizontalLines"><line id="0%" x1="447.99" y1="264.8" x2="832.99" y2="264.8" stroke="#999" stroke-width="1"></line><line id="20%" x1="447.99" y1="243.4" x2="832.99" y2="243.4" stroke="#ddd" stroke-width="1" stroke-dasharray="2,1"></line><line id="40%" x1="447.99" y1="222.1" x2="832.99" y2="222.1" stroke="#ddd" stroke-width="1" stroke-dasharray="2,1"></line><line id="60%" x1="447.99" y1="200.7" x2="832.99" y2="200.7" stroke="#ddd" stroke-width="1" stroke-dasharray="2,1"></line><line id="80%" x1="447.99" y1="179.4" x2="832.99" y2="179.4" stroke="#ddd" stroke-width="1" stroke-dasharray="2,1"></line><line id="100%" x1="447.99" y1="158.1" x2="832.99" y2="158.1" stroke="#ddd" stroke-width="1" stroke-dasharray="2,1"></line></g><g clip-path="url(#boundsClip-2)"><g class="Lines"><rect x="448" y="149" width="385" height="136" fill="rgba(255,255,255,0)" opacity="0"></rect><path fill="none" stroke-linecap="butt" stroke-linejoin="round" stroke="#ffffff" id="outline__Excess-mortality-P-scores,-5-year-average-baseline,-all-ages" stroke-width="2.5" d="M448 265.8L449.5 263.2L451 266.6L452.5 272.4L454 270.3L455.5 272.5L457 271.1L458.5 271.7L460 267.7L461.5 270.1L463 266L464.5 263.8L466 255.9L467.5 201.9L469 184.1L470.5 149.1L472 152.5L473.6 182.2L475.1 230L476.6 220L478.1 240.5L479.6 244.2L481.1 257.4L482.6 258.8L484.1 264.8L485.6 268L487.1 265.5L488.6 270.5L490.1 267.5L491.6 266.3L493.1 265.2L494.6 266.1L496.1 262.2L497.6 259.1L499.1 254.7L500.6 279.2L502.1 259.1L503.6 262.2L505.1 262.9L506.6 259.1L508.1 263L509.6 257.9L511.1 253L512.7 252.8L514.2 249.1L515.7 244.9L517.2 242.4L518.7 243.7L520.2 248.7L521.7 250.8L523.2 252.6L524.7 220.8L526.2 237.6L527.7 217.6L529.2 236L530.7 224L532.2 220.2L533.7 223.7L535.2 236L536.7 245.5L538.2 255.5L539.7 261.1L541.2 269.6L542.7 273.2L544.2 269.7L545.7 284.1L547.2 276.5L548.7 277.7L550.3 269.2L551.8 272.2L553.3 284.6L554.8 258.1L556.3 267.8L557.8 267.5L559.3 268.5L560.8 262L562.3 263.5L563.8 271.1L565.3 269.1L566.8 258.1L568.3 259.2L569.8 256.3L571.3 251.6L572.8 251.3L574.3 249.9L575.8 252.6L577.3 251.8L578.8 255.2L580.3 243.2L581.8 244.3L583.3 247.4L584.8 250.4L586.3 248.9L587.8 248.8L589.4 248.4L590.9 249.8L592.4 246.1L593.9 246L595.4 247.1L596.9 252.6L598.4 250.6L599.9 251.9L601.4 249.2L602.9 252.3L604.4 258.1L605.9 264.7L607.4 268.2L608.9 268.6L610.4 268.2L611.9 267.5L613.4 267.4L614.9 268.4L616.4 268.7L617.9 264.1L619.4 267L620.9 266.4L622.4 261.6L623.9 265.7L625.4 259.3L626.9 270.3L628.5 261.6L630 244.7L631.5 264.7L633 238L634.5 250.9L636 255.2L637.5 282.3L639 246.2L640.5 248.5L642 248.8L643.5 252.3L645 252.9L646.5 250.2L648 243.1L649.5 241.6L651 245.6L652.5 250L654 242.8L655.5 245.2L657 256.5L658.5 246.7L660 249.4L661.5 270L663 246.8L664.5 245.9L666.1 244.9L667.6 243L669.1 247.6L670.6 244L672.1 251.9L673.6 251.6L675.1 253.1L676.6 255L678.1 254.2L679.6 249.7L681.1 237.2L682.6 244.9L684.1 241L685.6 236.6L687.1 243.7L688.6 253.6L690.1 254.8L691.6 258.2L693.1 260.6L694.6 261.1L696.1 257.1L697.6 264.9L699.1 256.4L700.6 248.9L702.1 249.9L703.6 265.9L705.2 268.6L706.7 245.1L708.2 248.1L709.7 262L711.2 255.7L712.7 249.6L714.2 252.9L715.7 256.7L717.2 254.8L718.7 249.8L720.2 252.8L721.7 253.1L723.2 258L724.7 256.3L726.2 257.9L727.7 256.4L729.2 253L730.7 254.1L732.2 253.2L733.7 253.6L735.2 261.9L736.7 252.9L738.2 253.9L739.7 251.7L741.2 257.9L742.8 258.3L744.3 257L745.8 258.4L747.3 256.8L748.8 252.8L750.3 252.1L751.8 255.2L753.3 253.9L754.8 254.6L756.3 258.2L757.8 253.5L759.3 249.7L760.8 270.9L762.3 267.1L763.8 265.8L765.3 268.4L766.8 264.8L768.3 260.3L769.8 259.5L771.3 262.9L772.8 262.7L774.3 260.9L775.8 264L777.3 262.4L778.8 257.1L780.3 271.1L781.9 270L783.4 246.1L784.9 249.8L786.4 257L787.9 252.8L789.4 264.1L790.9 253.3L792.4 254.1L793.9 258L795.4 255.3L796.9 252.1L798.4 253.1L799.9 250.6L801.4 251.9L802.9 250.1L804.4 252.4L805.9 251.7L807.4 250.5L808.9 254.2L810.4 255.1L811.9 257.3L813.4 265.5L814.9 255.6L816.4 259.1L817.9 262.1L819.4 257L821 255.7L822.5 255.3L824 254.1L825.5 251.3L827 256.1L828.5 256.6L830 257.9L831.5 259.8L833 257.5"></path><path fill="none" stroke-linecap="butt" stroke-linejoin="round" stroke="#4C6A9C" id="line__Excess-mortality-P-scores,-5-year-average-baseline,-all-ages" stroke-width="1.5" stroke-opacity="1" d="M448 265.8L449.5 263.2L451 266.6L452.5 272.4L454 270.3L455.5 272.5L457 271.1L458.5 271.7L460 267.7L461.5 270.1L463 266L464.5 263.8L466 255.9L467.5 201.9L469 184.1L470.5 149.1L472 152.5L473.6 182.2L475.1 230L476.6 220L478.1 240.5L479.6 244.2L481.1 257.4L482.6 258.8L484.1 264.8L485.6 268L487.1 265.5L488.6 270.5L490.1 267.5L491.6 266.3L493.1 265.2L494.6 266.1L496.1 262.2L497.6 259.1L499.1 254.7L500.6 279.2L502.1 259.1L503.6 262.2L505.1 262.9L506.6 259.1L508.1 263L509.6 257.9L511.1 253L512.7 252.8L514.2 249.1L515.7 244.9L517.2 242.4L518.7 243.7L520.2 248.7L521.7 250.8L523.2 252.6L524.7 220.8L526.2 237.6L527.7 217.6L529.2 236L530.7 224L532.2 220.2L533.7 223.7L535.2 236L536.7 245.5L538.2 255.5L539.7 261.1L541.2 269.6L542.7 273.2L544.2 269.7L545.7 284.1L547.2 276.5L548.7 277.7L550.3 269.2L551.8 272.2L553.3 284.6L554.8 258.1L556.3 267.8L557.8 267.5L559.3 268.5L560.8 262L562.3 263.5L563.8 271.1L565.3 269.1L566.8 258.1L568.3 259.2L569.8 256.3L571.3 251.6L572.8 251.3L574.3 249.9L575.8 252.6L577.3 251.8L578.8 255.2L580.3 243.2L581.8 244.3L583.3 247.4L584.8 250.4L586.3 248.9L587.8 248.8L589.4 248.4L590.9 249.8L592.4 246.1L593.9 246L595.4 247.1L596.9 252.6L598.4 250.6L599.9 251.9L601.4 249.2L602.9 252.3L604.4 258.1L605.9 264.7L607.4 268.2L608.9 268.6L610.4 268.2L611.9 267.5L613.4 267.4L614.9 268.4L616.4 268.7L617.9 264.1L619.4 267L620.9 266.4L622.4 261.6L623.9 265.7L625.4 259.3L626.9 270.3L628.5 261.6L630 244.7L631.5 264.7L633 238L634.5 250.9L636 255.2L637.5 282.3L639 246.2L640.5 248.5L642 248.8L643.5 252.3L645 252.9L646.5 250.2L648 243.1L649.5 241.6L651 245.6L652.5 250L654 242.8L655.5 245.2L657 256.5L658.5 246.7L660 249.4L661.5 270L663 246.8L664.5 245.9L666.1 244.9L667.6 243L669.1 247.6L670.6 244L672.1 251.9L673.6 251.6L675.1 253.1L676.6 255L678.1 254.2L679.6 249.7L681.1 237.2L682.6 244.9L684.1 241L685.6 236.6L687.1 243.7L688.6 253.6L690.1 254.8L691.6 258.2L693.1 260.6L694.6 261.1L696.1 257.1L697.6 264.9L699.1 256.4L700.6 248.9L702.1 249.9L703.6 265.9L705.2 268.6L706.7 245.1L708.2 248.1L709.7 262L711.2 255.7L712.7 249.6L714.2 252.9L715.7 256.7L717.2 254.8L718.7 249.8L720.2 252.8L721.7 253.1L723.2 258L724.7 256.3L726.2 257.9L727.7 256.4L729.2 253L730.7 254.1L732.2 253.2L733.7 253.6L735.2 261.9L736.7 252.9L738.2 253.9L739.7 251.7L741.2 257.9L742.8 258.3L744.3 257L745.8 258.4L747.3 256.8L748.8 252.8L750.3 252.1L751.8 255.2L753.3 253.9L754.8 254.6L756.3 258.2L757.8 253.5L759.3 249.7L760.8 270.9L762.3 267.1L763.8 265.8L765.3 268.4L766.8 264.8L768.3 260.3L769.8 259.5L771.3 262.9L772.8 262.7L774.3 260.9L775.8 264L777.3 262.4L778.8 257.1L780.3 271.1L781.9 270L783.4 246.1L784.9 249.8L786.4 257L787.9 252.8L789.4 264.1L790.9 253.3L792.4 254.1L793.9 258L795.4 255.3L796.9 252.1L798.4 253.1L799.9 250.6L801.4 251.9L802.9 250.1L804.4 252.4L805.9 251.7L807.4 250.5L808.9 254.2L810.4 255.1L811.9 257.3L813.4 265.5L814.9 255.6L816.4 259.1L817.9 262.1L819.4 257L821 255.7L822.5 255.3L824 254.1L825.5 251.3L827 256.1L828.5 256.6L830 257.9L831.5 259.8L833 257.5"></path></g></g></g><text x="47.985" y="330.1" fill="#5b5b5b" font-size="14" style="font-weight:700">South Korea<title>South Korea</title></text><g class="LineChart"><defs><clipPath id="boundsClip-3"><rect x="37.985" y="327.1" width="437.985" height="179"></rect></clipPath></defs><rect x="16" y="337.1" width="417.985" height="159" fill-opacity="0"></rect><g id="horizontal-axis" class="HorizontalAxis"><g id="tick-marks"><line id="Jan-5,-2020" x1="48" y1="478.1" x2="48" y2="483.6" stroke="#999" stroke-width="1"></line><line id="Dec-1,-2024" x1="433" y1="478.1" x2="433" y2="483.6" stroke="#999" stroke-width="1"></line><line id="Sep-12,-2021" x1="180.3" y1="478.1" x2="180.3" y2="483.6" stroke="#999" stroke-width="1"></line><line id="Oct-17,-2022" x1="266.3" y1="478.1" x2="266.3" y2="483.6" stroke="#999" stroke-width="1"></line></g><g id="tick-labels"><text x="47.985" y="494.1" fill="#5b5b5b" text-anchor="start" font-size="10.5">Jan 5, 2020</text><text x="432.985" y="494.1" fill="#5b5b5b" text-anchor="end" font-size="10.5">Dec 1, 2024</text><text x="180.3" y="494.1" fill="#5b5b5b" text-anchor="middle" font-size="10.5">Sep 12, 2021</text><text x="266.3" y="494.1" fill="#5b5b5b" text-anchor="middle" font-size="10.5">Oct 17, 2022</text></g></g><g id="vertical-axis" class="VerticalAxis"><g id="tick-labels"><text x="42.98" y="458.8" dy=".32em" text-anchor="end" fill="#5b5b5b" font-size="10.5">0%</text><text x="42.98" y="437.4" dy=".32em" text-anchor="end" fill="#5b5b5b" font-size="10.5">20%</text><text x="42.98" y="416.1" dy=".32em" text-anchor="end" fill="#5b5b5b" font-size="10.5">40%</text><text x="42.98" y="394.7" dy=".32em" text-anchor="end" fill="#5b5b5b" font-size="10.5">60%</text><text x="42.98" y="373.4" dy=".32em" text-anchor="end" fill="#5b5b5b" font-size="10.5">80%</text><text x="42.98" y="352.1" dy=".32em" text-anchor="end" fill="#5b5b5b" font-size="10.5">100%</text></g></g><g id="horizontal-grid-lines" class="AxisGridLines horizontalLines"><line id="0%" x1="47.98" y1="458.8" x2="432.99" y2="458.8" stroke="#999" stroke-width="1"></line><line id="20%" x1="47.98" y1="437.4" x2="432.99" y2="437.4" stroke="#ddd" stroke-width="1" stroke-dasharray="2,1"></line><line id="40%" x1="47.98" y1="416.1" x2="432.99" y2="416.1" stroke="#ddd" stroke-width="1" stroke-dasharray="2,1"></line><line id="60%" x1="47.98" y1="394.7" x2="432.99" y2="394.7" stroke="#ddd" stroke-width="1" stroke-dasharray="2,1"></line><line id="80%" x1="47.98" y1="373.4" x2="432.99" y2="373.4" stroke="#ddd" stroke-width="1" stroke-dasharray="2,1"></line><line id="100%" x1="47.98" y1="352.1" x2="432.99" y2="352.1" stroke="#ddd" stroke-width="1" stroke-dasharray="2,1"></line></g><g clip-path="url(#boundsClip-3)"><g class="Lines"><rect x="48" y="343" width="385" height="136" fill="rgba(255,255,255,0)" opacity="0"></rect><path fill="none" stroke-linecap="butt" stroke-linejoin="round" stroke="#ffffff" id="outline__Excess-mortality-P-scores,-5-year-average-baseline,-all-ages" stroke-width="2.5" d="M48 452.7L49.5 455.4L51 453.2L52.5 450.3L54 451.3L55.5 448.3L57 453.2L58.5 457.5L60 456.2L61.5 455.8L63 454.7L64.5 454.5L66 456.6L67.5 457.9L69 450.4L70.5 454.4L72 454.6L73.6 448.7L75.1 455.3L76.6 457.5L78.1 454.2L79.6 457.2L81.1 449.5L82.6 450.2L84.1 453.2L85.6 452.1L87.1 451.9L88.6 455.5L90.1 450.5L91.6 451.6L93.1 454L94.6 455.3L96.1 446.5L97.6 442L99.1 444.6L100.6 450.7L102.1 449.9L103.6 448.6L105.1 449.9L106.6 452L108.1 448.4L109.6 452.7L111.1 449.2L112.7 448.9L114.2 449.8L115.7 450.2L117.2 451.8L118.7 456L120.2 449.4L121.7 454.3L123.2 458.2L124.7 455L126.2 454.6L127.7 456.6L129.2 455.2L130.7 457L132.2 461.8L133.7 457.7L135.2 460.1L136.7 454.8L138.2 458.6L139.7 457.3L141.2 453.2L142.7 452.8L144.2 453.4L145.7 452.6L147.2 454.3L148.7 449.2L150.3 452.9L151.8 450.8L153.3 451.1L154.8 447L156.3 455.1L157.8 448.4L159.3 451.8L160.8 448.1L162.3 448.1L163.8 447.4L165.3 446.4L166.8 446.3L168.3 444.9L169.8 441.1L171.3 441.5L172.8 446L174.3 447.1L175.8 443.1L177.3 444.7L178.8 444L180.3 443.2L181.8 443L183.3 442.8L184.8 443.1L186.3 445.7L187.8 445.1L189.4 443.6L190.9 439.2L192.4 441.3L193.9 441.6L195.4 438L196.9 437.7L198.4 434.2L199.9 432.3L201.4 432L202.9 434.4L204.4 437.6L205.9 445.4L207.4 448.1L208.9 447.6L210.4 445.8L211.9 447.6L213.4 437L214.9 436.4L216.4 423.6L217.9 404.1L219.4 387.2L220.9 369L222.4 364.2L223.9 368.4L225.4 381L226.9 390.6L228.5 411.7L230 422.5L231.5 432.4L233 430.4L234.5 439.2L236 437.6L237.5 444L239 447.2L240.5 444.7L242 447.1L243.5 444.2L245 441.6L246.5 441.6L248 444.7L249.5 437.6L251 435.5L252.5 433.6L254 419.4L255.5 420.5L257 420L258.5 426L260 419.4L261.5 429.9L263 434.8L264.5 438.6L266.1 434.9L267.6 436L269.1 431.5L270.6 433.5L272.1 430.3L273.6 428.1L275.1 431.2L276.6 431.2L278.1 426.4L279.6 427.4L281.1 425.5L282.6 426.1L284.1 431.3L285.6 433.4L287.1 443.3L288.6 437.4L290.1 437.5L291.6 439.8L293.1 440.9L294.6 444.1L296.1 445.1L297.6 442.7L299.1 446.4L300.6 442.5L302.1 440.3L303.6 446.7L305.2 438.6L306.7 440.3L308.2 437.3L309.7 437.9L311.2 436.3L312.7 434.8L314.2 436.3L315.7 436.8L317.2 435.2L318.7 433.1L320.2 437.7L321.7 438L323.2 439.2L324.7 432.5L326.2 433.2L327.7 430.3L329.2 424.2L330.7 423.5L332.2 424.8L333.7 424.3L335.2 427.8L336.7 427.8L338.2 431.8L339.7 439.3L341.2 438.8"></path><path fill="none" stroke-linecap="butt" stroke-linejoin="round" stroke="#4C6A9C" id="line__Excess-mortality-P-scores,-5-year-average-baseline,-all-ages" stroke-width="1.5" stroke-opacity="1" d="M48 452.7L49.5 455.4L51 453.2L52.5 450.3L54 451.3L55.5 448.3L57 453.2L58.5 457.5L60 456.2L61.5 455.8L63 454.7L64.5 454.5L66 456.6L67.5 457.9L69 450.4L70.5 454.4L72 454.6L73.6 448.7L75.1 455.3L76.6 457.5L78.1 454.2L79.6 457.2L81.1 449.5L82.6 450.2L84.1 453.2L85.6 452.1L87.1 451.9L88.6 455.5L90.1 450.5L91.6 451.6L93.1 454L94.6 455.3L96.1 446.5L97.6 442L99.1 444.6L100.6 450.7L102.1 449.9L103.6 448.6L105.1 449.9L106.6 452L108.1 448.4L109.6 452.7L111.1 449.2L112.7 448.9L114.2 449.8L115.7 450.2L117.2 451.8L118.7 456L120.2 449.4L121.7 454.3L123.2 458.2L124.7 455L126.2 454.6L127.7 456.6L129.2 455.2L130.7 457L132.2 461.8L133.7 457.7L135.2 460.1L136.7 454.8L138.2 458.6L139.7 457.3L141.2 453.2L142.7 452.8L144.2 453.4L145.7 452.6L147.2 454.3L148.7 449.2L150.3 452.9L151.8 450.8L153.3 451.1L154.8 447L156.3 455.1L157.8 448.4L159.3 451.8L160.8 448.1L162.3 448.1L163.8 447.4L165.3 446.4L166.8 446.3L168.3 444.9L169.8 441.1L171.3 441.5L172.8 446L174.3 447.1L175.8 443.1L177.3 444.7L178.8 444L180.3 443.2L181.8 443L183.3 442.8L184.8 443.1L186.3 445.7L187.8 445.1L189.4 443.6L190.9 439.2L192.4 441.3L193.9 441.6L195.4 438L196.9 437.7L198.4 434.2L199.9 432.3L201.4 432L202.9 434.4L204.4 437.6L205.9 445.4L207.4 448.1L208.9 447.6L210.4 445.8L211.9 447.6L213.4 437L214.9 436.4L216.4 423.6L217.9 404.1L219.4 387.2L220.9 369L222.4 364.2L223.9 368.4L225.4 381L226.9 390.6L228.5 411.7L230 422.5L231.5 432.4L233 430.4L234.5 439.2L236 437.6L237.5 444L239 447.2L240.5 444.7L242 447.1L243.5 444.2L245 441.6L246.5 441.6L248 444.7L249.5 437.6L251 435.5L252.5 433.6L254 419.4L255.5 420.5L257 420L258.5 426L260 419.4L261.5 429.9L263 434.8L264.5 438.6L266.1 434.9L267.6 436L269.1 431.5L270.6 433.5L272.1 430.3L273.6 428.1L275.1 431.2L276.6 431.2L278.1 426.4L279.6 427.4L281.1 425.5L282.6 426.1L284.1 431.3L285.6 433.4L287.1 443.3L288.6 437.4L290.1 437.5L291.6 439.8L293.1 440.9L294.6 444.1L296.1 445.1L297.6 442.7L299.1 446.4L300.6 442.5L302.1 440.3L303.6 446.7L305.2 438.6L306.7 440.3L308.2 437.3L309.7 437.9L311.2 436.3L312.7 434.8L314.2 436.3L315.7 436.8L317.2 435.2L318.7 433.1L320.2 437.7L321.7 438L323.2 439.2L324.7 432.5L326.2 433.2L327.7 430.3L329.2 424.2L330.7 423.5L332.2 424.8L333.7 424.3L335.2 427.8L336.7 427.8L338.2 431.8L339.7 439.3L341.2 438.8"></path></g></g></g></g><g id="footer" class="SourcesFooter" style="fill:#858585"><g id="sources" class="markdown-text-wrap"><text x="16.0" y="526.2" style="font-size:13px;line-height:1.2"><tspan x="16" y="526.2"><tspan style="font-weight:700">Data source:</tspan> Human Mortality Database (2024); World Mortality Dataset (2024); Karlinsky and Kobak (2021); Human Mortality Database</tspan><tspan x="16" y="541.8">(2024); World Mortality Database (2024)</tspan></text></g><g id="note" class="markdown-text-wrap"><text x="16.0" y="561.4" style="font-size:13px;line-height:1.2"><tspan x="16" y="561.4"><tspan style="font-weight:700">Note:</tspan> The reported number of deaths might not count all deaths that occurred due to incomplete coverage and delays in reporting.</tspan></text></g><text id="origin-url" font-size="13.00" x="16.0" y="581.0"><tspan x="16" y="581.0100000000001"><a target="_blank" style="fill: #858585;" href="https://ourworldindata.org/coronavirus">OurWorldinData.org/coronavirus</a> | <a target="_blank" style="fill: #858585;" href="https://creativecommons.org/licenses/by/4.0/">CC BY</a></tspan></text></g></svg>