<svg xmlns="http://www.w3.org/2000/svg" version="1.1" style="font-family:Lato, &#x27;Helvetica Neue&#x27;, Helvetica, Arial, &#x27;Liberation Sans&#x27;, sans-serif;font-size:18px;background-color:#ffffff;text-rendering:geometricPrecision;-webkit-font-smoothing:antialiased" width="850" height="600" viewBox="0 0 850 600"><defs><style>@import url(https://ourworldindata.org/fonts.css)</style></defs><defs><pattern id="noDataPattern" patternUnits="userSpaceOnUse" width="4" height="4" patternTransform="rotate(-45 2 2)"><path d="M -1,2 l 6,0" stroke="#ccc" stroke-width="0.7"></path></pattern></defs><rect class="background-fill" fill="#ffffff" width="850" height="600"></rect><g id="header" class="HeaderView"><g id="logo" transform="translate(769, 16) scale(1)"><svg className="owidLogo" xmlns="http://www.w3.org/2000/svg" width="65" height="36" viewBox="0 0 65 36"  fill="none"><path fill="#002147" d="M0 0h64.8v36H0z"/><path fill="#CE261E" d="M0 33.3h64.8V36H0z"/><path fill="#fff" d="M13.796 10.575c0 .636-.106 1.226-.318 1.77a4.193 4.193 0 0 1-.894 1.404 4.084 4.084 0 0 1-1.386.93c-.54.22-1.138.33-1.794.33-.656 0-1.256-.11-1.8-.33a4.149 4.149 0 0 1-1.392-.93 4.193 4.193 0 0 1-.894-1.404A4.833 4.833 0 0 1 5 10.575c0-.636.106-1.224.318-1.764a4.18 4.18 0 0 1 .894-1.41 4.076 4.076 0 0 1 1.392-.924 4.684 4.684 0 0 1 1.8-.336c.656 0 1.254.112 1.794.336.54.224 1.002.534 1.386.93.384.392.682.86.894 1.404.212.54.318 1.128.318 1.764Zm-1.656 0c0-.476-.064-.902-.192-1.278a2.671 2.671 0 0 0-.54-.966 2.332 2.332 0 0 0-.864-.606 2.94 2.94 0 0 0-1.14-.21c-.424 0-.806.07-1.146.21-.34.14-.63.342-.87.606a2.742 2.742 0 0 0-.546.966 3.955 3.955 0 0 0-.192 1.278c0 .476.064.904.192 1.284.128.376.31.696.546.96.24.26.53.46.87.6.34.14.722.21 1.146.21.424 0 .804-.07 1.14-.21.34-.14.628-.34.864-.6.236-.264.416-.584.54-.96a4.01 4.01 0 0 0 .192-1.284ZM16.104 8.757v3.912c0 .376.086.668.258.876.176.204.438.306.786.306.256 0 .496-.056.72-.168a2.58 2.58 0 0 0 .636-.474V8.757h1.482v6.156h-.906c-.192 0-.318-.09-.378-.27l-.102-.492a4.65 4.65 0 0 1-.396.354 2.577 2.577 0 0 1-.438.27 2.35 2.35 0 0 1-.498.168 2.345 2.345 0 0 1-.57.066c-.336 0-.634-.056-.894-.168a1.821 1.821 0 0 1-.648-.486 2.157 2.157 0 0 1-.402-.738 3.233 3.233 0 0 1-.132-.948V8.757h1.482ZM21.328 14.913V8.757h.87c.152 0 .258.028.318.084.06.056.1.152.12.288l.09.744c.22-.38.478-.68.774-.9.296-.22.628-.33.996-.33.304 0 .556.07.756.21l-.192 1.11c-.012.072-.038.124-.078.156a.278.278 0 0 1-.162.042 1.01 1.01 0 0 1-.246-.042 1.646 1.646 0 0 0-.414-.042c-.308 0-.572.086-.792.258-.22.168-.406.416-.558.744v3.834h-1.482ZM27.347 6.237h1.356a.57.57 0 0 1 .348.102c.096.064.16.152.192.264l1.476 5.19c.036.128.068.268.096.42.032.148.062.306.09.474a5.968 5.968 0 0 1 .228-.894l1.704-5.19a.575.575 0 0 1 .186-.252.543.543 0 0 1 .348-.114h.474a.57.57 0 0 1 .348.102.497.497 0 0 1 .192.264l1.692 5.19c.088.256.164.54.228.852.028-.156.056-.306.084-.45.032-.144.064-.278.096-.402l1.476-5.19c.028-.1.09-.186.186-.258a.563.563 0 0 1 .348-.108h1.266l-2.694 8.676h-1.458l-1.896-5.928-.078-.246a9.504 9.504 0 0 1-.072-.282c-.024.1-.05.194-.078.282-.024.088-.048.17-.072.246l-1.914 5.928H30.04l-2.694-8.676ZM42.771 8.661c.46 0 .876.074 1.248.222.376.148.696.358.96.63s.468.604.612.996c.144.392.216.83.216 1.314 0 .488-.072.928-.216 1.32a2.85 2.85 0 0 1-.612 1.002 2.653 2.653 0 0 1-.96.636 3.35 3.35 0 0 1-1.248.222c-.46 0-.878-.074-1.254-.222a2.712 2.712 0 0 1-.966-.636 2.922 2.922 0 0 1-.618-1.002 3.807 3.807 0 0 1-.216-1.32c0-.484.072-.922.216-1.314.148-.392.354-.724.618-.996.268-.272.59-.482.966-.63a3.397 3.397 0 0 1 1.254-.222Zm0 5.202c.512 0 .89-.172 1.134-.516.248-.344.372-.848.372-1.512s-.124-1.17-.372-1.518c-.244-.348-.622-.522-1.134-.522-.52 0-.904.176-1.152.528-.248.348-.372.852-.372 1.512s.124 1.164.372 1.512c.248.344.632.516 1.152.516ZM46.723 14.913V8.757h.87c.152 0 .258.028.318.084.06.056.1.152.12.288l.09.744c.22-.38.478-.68.774-.9.296-.22.628-.33.996-.33.304 0 .556.07.756.21l-.192 1.11c-.012.072-.038.124-.078.156a.278.278 0 0 1-.162.042 1.01 1.01 0 0 1-.246-.042 1.646 1.646 0 0 0-.414-.042c-.308 0-.572.086-.792.258-.22.168-.406.416-.558.744v3.834h-1.482ZM52.96 5.997v8.916h-1.482V5.997h1.482ZM58.732 14.913c-.192 0-.318-.09-.378-.27l-.12-.594a3.68 3.68 0 0 1-.402.39c-.14.116-.292.216-.456.3-.16.084-.334.148-.522.192a2.372 2.372 0 0 1-.6.072c-.336 0-.644-.07-.924-.21a2.098 2.098 0 0 1-.726-.606 3.033 3.033 0 0 1-.468-.99 5.072 5.072 0 0 1-.162-1.344c0-.456.062-.88.186-1.272s.302-.732.534-1.02c.232-.288.51-.512.834-.672a2.384 2.384 0 0 1 1.092-.246 2.103 2.103 0 0 1 1.536.606V5.997h1.482v8.916h-.906Zm-1.974-1.086c.308 0 .57-.064.786-.192.216-.128.42-.31.612-.546v-2.76a1.452 1.452 0 0 0-.552-.432 1.597 1.597 0 0 0-.636-.126c-.224 0-.428.042-.612.126a1.21 1.21 0 0 0-.462.384c-.124.168-.22.384-.288.648-.068.26-.102.568-.102.924 0 .36.028.666.084.918.06.248.144.452.252.612.108.156.24.27.396.342.156.068.33.102.522.102ZM16.331 20.757v6.156H14.85v-6.156h1.481Zm.223-1.794a.844.844 0 0 1-.078.36.963.963 0 0 1-.21.294.995.995 0 0 1-.3.204.963.963 0 0 1-.372.072.948.948 0 0 1-.367-.072 1.018 1.018 0 0 1-.498-.498.963.963 0 0 1 0-.732.995.995 0 0 1 .205-.3.929.929 0 0 1 .293-.198.899.899 0 0 1 .738 0 .912.912 0 0 1 .3.198.943.943 0 0 1 .288.672ZM17.771 26.913v-6.156h.906c.192 0 .318.09.378.27l.102.486a2.934 2.934 0 0 1 .828-.618c.156-.076.322-.134.498-.174.176-.04.368-.06.576-.06.336 0 .634.058.894.174.26.112.476.272.648.48.176.204.308.45.396.738.092.284.138.598.138.942v3.918h-1.482v-3.918c0-.376-.088-.666-.264-.87-.172-.208-.432-.312-.78-.312-.256 0-.496.058-.72.174a2.58 2.58 0 0 0-.636.474v4.452h-1.482ZM34.22 22.575c0 .636-.106 1.22-.318 1.752-.212.532-.51.99-.894 1.374a4 4 0 0 1-1.386.894 4.87 4.87 0 0 1-1.794.318h-3.312v-8.676h3.312a4.79 4.79 0 0 1 1.794.324 4 4 0 0 1 1.386.894c.384.38.682.836.894 1.368.212.532.318 1.116.318 1.752Zm-1.65 0c0-.476-.064-.902-.192-1.278a2.68 2.68 0 0 0-.546-.96 2.332 2.332 0 0 0-.864-.606 2.94 2.94 0 0 0-1.14-.21h-1.686v6.108h1.686c.424 0 .804-.07 1.14-.21.34-.14.628-.34.864-.6a2.75 2.75 0 0 0 .546-.96 4.01 4.01 0 0 0 .192-1.284ZM39.98 26.913h-.665c-.14 0-.25-.02-.33-.06-.08-.044-.14-.13-.18-.258l-.132-.438c-.156.14-.31.264-.462.372a2.804 2.804 0 0 1-.462.264c-.16.072-.33.126-.51.162-.18.036-.38.054-.6.054-.26 0-.5-.034-.72-.102a1.618 1.618 0 0 1-.57-.318 1.448 1.448 0 0 1-.366-.522 1.852 1.852 0 0 1-.132-.726c0-.232.06-.46.18-.684.124-.228.328-.432.612-.612.284-.184.662-.336 1.134-.456.472-.12 1.058-.188 1.758-.204v-.36c0-.412-.088-.716-.264-.912-.172-.2-.424-.3-.756-.3a1.837 1.837 0 0 0-1.02.276c-.116.068-.224.13-.324.186a.664.664 0 0 1-.33.084.429.429 0 0 1-.258-.078.614.614 0 0 1-.174-.192l-.27-.474c.708-.648 1.562-.972 2.562-.972.36 0 .68.06.96.18.284.116.524.28.72.492.196.208.344.458.444.75.104.292.156.612.156.96v3.888Zm-2.88-.924c.153 0 .293-.014.42-.042.129-.028.249-.07.36-.126.117-.056.227-.124.33-.204.109-.084.217-.182.325-.294v-1.038c-.432.02-.794.058-1.086.114-.288.052-.52.12-.696.204a.923.923 0 0 0-.378.294.664.664 0 0 0-.108.366c0 .26.076.446.228.558.156.112.358.168.606.168ZM43.22 27.01c-.532 0-.942-.15-1.23-.45-.288-.305-.432-.723-.432-1.255v-3.438h-.624a.31.31 0 0 1-.21-.078c-.056-.052-.084-.13-.084-.234v-.588l.99-.162.312-1.68a.302.302 0 0 1 .108-.186.365.365 0 0 1 .222-.066h.768v1.938h1.62v1.056h-1.62v3.336c0 .192.048.342.144.45a.488.488 0 0 0 .384.162c.092 0 .168-.01.228-.03.064-.024.118-.048.162-.072.048-.024.09-.046.126-.066a.194.194 0 0 1 .108-.036.16.16 0 0 1 .108.036c.028.02.058.052.09.096l.444.72c-.216.18-.464.316-.744.408a2.77 2.77 0 0 1-.87.138ZM50.423 26.913h-.666c-.14 0-.25-.02-.33-.06-.08-.044-.14-.13-.18-.258l-.132-.438c-.156.14-.31.264-.462.372a2.804 2.804 0 0 1-.462.264c-.16.072-.33.126-.51.162-.18.036-.38.054-.6.054-.26 0-.5-.034-.72-.102a1.618 1.618 0 0 1-.57-.318 1.448 1.448 0 0 1-.366-.522 1.852 1.852 0 0 1-.132-.726c0-.232.06-.46.18-.684.124-.228.328-.432.612-.612.284-.184.662-.336 1.134-.456.472-.12 1.058-.188 1.758-.204v-.36c0-.412-.088-.716-.264-.912-.172-.2-.424-.3-.756-.3a1.837 1.837 0 0 0-1.02.276c-.116.068-.224.13-.324.186a.664.664 0 0 1-.33.084.429.429 0 0 1-.258-.078.614.614 0 0 1-.174-.192l-.27-.474c.708-.648 1.562-.972 2.562-.972.36 0 .68.06.96.18.284.116.524.28.72.492.196.208.344.458.444.75.104.292.156.612.156.96v3.888Zm-2.88-.924c.152 0 .292-.014.42-.042.128-.028.248-.07.36-.126.116-.056.226-.124.33-.204.108-.084.216-.182.324-.294v-1.038c-.432.02-.794.058-1.086.114-.288.052-.52.12-.696.204a.923.923 0 0 0-.378.294.664.664 0 0 0-.108.366c0 .26.076.446.228.558.156.112.358.168.606.168Z"/></svg></g><a id="title" href="https://ourworldindata.org/grapher/life-expectancy?stackMode=relative&amp;facet=metric" style="font-family:&#x27;Playfair Display&#x27;, Georgia, &#x27;Times New Roman&#x27;, &#x27;Liberation Serif&#x27;, serif" target="_blank" rel="noopener"><text font-size="24.75" font-weight="600" x="16.0" y="40.0" fill="#5b5b5b"><tspan x="16" y="40.0075">Change in life expectancy</tspan></text></a><g id="subtitle" class="markdown-text-wrap"><text x="16.0" y="63.9" style="font-size:14.625px;line-height:1.2" fill="#5b5b5b"><tspan x="16" y="63.9">The <tspan class="dod-span" data-id="period-life-expectancy">period life expectancy</tspan> at birth, in a given year.</tspan></text></g></g><g id="chart-area" style="pointer-events:none"><g id="horizontal-axis" class="HorizontalAxis"><g id="tick-marks"><line id="1770" x1="63.5" y1="530.8" x2="63.5" y2="536.3" stroke="#999" stroke-width="1"></line><line id="2021" x1="748.7" y1="530.8" x2="748.7" y2="536.3" stroke="#999" stroke-width="1"></line><line id="1800" x1="145.4" y1="530.8" x2="145.4" y2="536.3" stroke="#999" stroke-width="1"></line><line id="1850" x1="281.9" y1="530.8" x2="281.9" y2="536.3" stroke="#999" stroke-width="1"></line><line id="1900" x1="418.4" y1="530.8" x2="418.4" y2="536.3" stroke="#999" stroke-width="1"></line><line id="1950" x1="554.9" y1="530.8" x2="554.9" y2="536.3" stroke="#999" stroke-width="1"></line><line id="2000" x1="691.4" y1="530.8" x2="691.4" y2="536.3" stroke="#999" stroke-width="1"></line></g><g id="tick-labels"><text x="63.525000000000006" y="549.8" fill="#5b5b5b" text-anchor="start" font-size="13.5">1770</text><text x="748.705" y="549.8" fill="#5b5b5b" text-anchor="end" font-size="13.5">2021</text><text x="145.4" y="549.8" fill="#5b5b5b" text-anchor="middle" font-size="13.5">1800</text><text x="281.9" y="549.8" fill="#5b5b5b" text-anchor="middle" font-size="13.5">1850</text><text x="418.4" y="549.8" fill="#5b5b5b" text-anchor="middle" font-size="13.5">1900</text><text x="554.9" y="549.8" fill="#5b5b5b" text-anchor="middle" font-size="13.5">1950</text><text x="691.4" y="549.8" fill="#5b5b5b" text-anchor="middle" font-size="13.5">2000</text></g></g><g id="vertical-axis" class="VerticalAxis"><g id="tick-labels"><text x="58.53" y="523.8" dy=".32em" text-anchor="end" fill="#5b5b5b" font-size="13.5">+0%</text><text x="58.53" y="472.6" dy=".32em" text-anchor="end" fill="#5b5b5b" font-size="13.5">+20%</text><text x="58.53" y="421.4" dy=".32em" text-anchor="end" fill="#5b5b5b" font-size="13.5">+40%</text><text x="58.53" y="370.2" dy=".32em" text-anchor="end" fill="#5b5b5b" font-size="13.5">+60%</text><text x="58.53" y="319.1" dy=".32em" text-anchor="end" fill="#5b5b5b" font-size="13.5">+80%</text><text x="58.53" y="267.9" dy=".32em" text-anchor="end" fill="#5b5b5b" font-size="13.5">+100%</text><text x="58.53" y="216.7" dy=".32em" text-anchor="end" fill="#5b5b5b" font-size="13.5">+120%</text><text x="58.53" y="165.5" dy=".32em" text-anchor="end" fill="#5b5b5b" font-size="13.5">+140%</text><text x="58.53" y="114.3" dy=".32em" text-anchor="end" fill="#5b5b5b" font-size="13.5">+160%</text></g></g><g id="horizontal-grid-lines" class="AxisGridLines horizontalLines"><line id="+0%" x1="63.53" y1="523.8" x2="748.71" y2="523.8" stroke="#999" stroke-width="1"></line><line id="+20%" x1="63.53" y1="472.6" x2="748.71" y2="472.6" stroke="#ddd" stroke-width="1" stroke-dasharray="3,2"></line><line id="+40%" x1="63.53" y1="421.4" x2="748.71" y2="421.4" stroke="#ddd" stroke-width="1" stroke-dasharray="3,2"></line><line id="+60%" x1="63.53" y1="370.2" x2="748.71" y2="370.2" stroke="#ddd" stroke-width="1" stroke-dasharray="3,2"></line><line id="+80%" x1="63.53" y1="319.1" x2="748.71" y2="319.1" stroke="#ddd" stroke-width="1" stroke-dasharray="3,2"></line><line id="+100%" x1="63.53" y1="267.9" x2="748.71" y2="267.9" stroke="#ddd" stroke-width="1" stroke-dasharray="3,2"></line><line id="+120%" x1="63.53" y1="216.7" x2="748.71" y2="216.7" stroke="#ddd" stroke-width="1" stroke-dasharray="3,2"></line><line id="+140%" x1="63.53" y1="165.5" x2="748.71" y2="165.5" stroke="#ddd" stroke-width="1" stroke-dasharray="3,2"></line><line id="+160%" x1="63.53" y1="114.3" x2="748.71" y2="114.3" stroke="#ddd" stroke-width="1" stroke-dasharray="3,2"></line></g><g id="line-labels" class="LineLabels"><g id="connectors"></g><g id="text-annotations"></g><g id="text-labels"></g><g id="connectors"><path id="Asia" d="M752.705,104.7 H761.205 V104.7 H769.705" stroke="#999" stroke-width="0.5" fill="none"></path><path id="World" d="M752.705,141.7 H761.205 V141.7 H769.705" stroke="#999" stroke-width="0.5" fill="none"></path><path id="Africa" d="M752.705,181.9 H758.3716666666667 V174.68333333333334 H769.705" stroke="#999" stroke-width="0.5" fill="none"></path><path id="Oceania" d="M752.705,193.8 H764.0383333333333 V193.53333333333333 H769.705" stroke="#999" stroke-width="0.5" fill="none"></path><path id="Europe" d="M752.705,204.9 H764.0383333333333 V212.38333333333333 H769.705" stroke="#999" stroke-width="0.5" fill="none"></path><path id="Americas" d="M752.705,234.1 H761.205 V234.1 H769.705" stroke="#999" stroke-width="0.5" fill="none"></path></g><g id="text-annotations"></g><g id="text-labels"><text x="773.705" y="109.69500000000001" font-size="13.50" fill="#00847e" opacity="1" text-anchor="start"><tspan font-weight="400">Asia</tspan></text><text x="773.705" y="146.695" font-size="13.50" fill="#18470f" opacity="1" text-anchor="start"><tspan font-weight="400">World</tspan></text><text x="773.705" y="179.67833333333334" font-size="13.50" fill="#a2559c" opacity="1" text-anchor="start"><tspan font-weight="400">Africa</tspan></text><text x="773.705" y="198.5283333333333" font-size="13.50" fill="#9a5129" opacity="1" text-anchor="start"><tspan font-weight="400">Oceania</tspan></text><text x="773.705" y="217.37833333333333" font-size="13.50" fill="#4c6a9c" opacity="1" text-anchor="start"><tspan font-weight="400">Europe</tspan></text><text x="773.705" y="239.09499999999997" font-size="13.50" fill="#c4523e" opacity="1" text-anchor="start"><tspan font-weight="400">Americas</tspan></text></g></g><g id="lines"><path fill="none" stroke-linecap="butt" stroke-linejoin="round" stroke="#ffffff" stroke-width="2.5" id="outline__Oceania" d="M336.5 523.8L418.4 428.7L453.9 403.6L554.9 327L557.6 332.6L560.3 322.4L563.1 317.4L565.8 315L568.5 311.8L571.3 310.9L574 307.8L576.7 303.1L579.5 303.7L582.2 299.9L584.9 297.4L587.6 297.4L590.4 295.5L593.1 296.7L595.8 294.4L598.6 294.1L601.3 290.5L604 291.1L606.8 287.5L609.5 288.3L612.2 282.3L614.9 279.7L617.7 277.9L620.4 277.7L623.1 272.5L625.9 271.6L628.6 267.8L631.3 264.8L634.1 261.3L636.8 259.8L639.5 257L642.2 256.6L645 252.4L647.7 251.1L650.4 251.3L653.2 247.8L655.9 247.2L658.6 245.2L661.4 245.1L664.1 239.9L666.8 237.1L669.5 236.6L672.3 233.7L675 234L677.7 231.9L680.5 231.7L683.2 229.7L685.9 228.7L688.6 226L691.4 223.9L694.1 222.4L696.8 222.6L699.6 220.4L702.3 219L705 216.6L707.8 215.7L710.5 215.5L713.2 213.4L715.9 211.5L718.7 209.1L721.4 208.2L724.1 206.7L726.9 204.7L729.6 204.5L732.3 203.2L735.1 201.8L737.8 200.4L740.5 198.3L743.2 198.9L746 193.4L748.7 193.8"></path><path fill="none" stroke-linecap="butt" stroke-linejoin="round" stroke="#9a5129" stroke-width="1.5" id="line__Oceania" d="M336.5 523.8L418.4 428.7L453.9 403.6L554.9 327L557.6 332.6L560.3 322.4L563.1 317.4L565.8 315L568.5 311.8L571.3 310.9L574 307.8L576.7 303.1L579.5 303.7L582.2 299.9L584.9 297.4L587.6 297.4L590.4 295.5L593.1 296.7L595.8 294.4L598.6 294.1L601.3 290.5L604 291.1L606.8 287.5L609.5 288.3L612.2 282.3L614.9 279.7L617.7 277.9L620.4 277.7L623.1 272.5L625.9 271.6L628.6 267.8L631.3 264.8L634.1 261.3L636.8 259.8L639.5 257L642.2 256.6L645 252.4L647.7 251.1L650.4 251.3L653.2 247.8L655.9 247.2L658.6 245.2L661.4 245.1L664.1 239.9L666.8 237.1L669.5 236.6L672.3 233.7L675 234L677.7 231.9L680.5 231.7L683.2 229.7L685.9 228.7L688.6 226L691.4 223.9L694.1 222.4L696.8 222.6L699.6 220.4L702.3 219L705 216.6L707.8 215.7L710.5 215.5L713.2 213.4L715.9 211.5L718.7 209.1L721.4 208.2L724.1 206.7L726.9 204.7L729.6 204.5L732.3 203.2L735.1 201.8L737.8 200.4L740.5 198.3L743.2 198.9L746 193.4L748.7 193.8"></path><path fill="none" stroke-linecap="butt" stroke-linejoin="round" stroke="#ffffff" stroke-width="2.5" id="outline__World" d="M63.5 523.8L145.4 523.8L200 519.3L281.9 516.7L336.5 513.1L418.4 492.4L453.9 473.5L554.9 362.5L557.6 356.4L560.3 346.6L563.1 341.5L565.8 334.4L568.5 329.6L571.3 325L574 322.2L576.7 316.9L579.5 336.6L582.2 351.4L584.9 327.5L587.6 302.7L590.4 298.6L593.1 293.3L595.8 295.8L598.6 290.6L601.3 286.5L604 281.5L606.8 278.4L609.5 275.8L612.2 277.8L614.9 266.8L617.7 262.2L620.4 258.5L623.1 256.4L625.9 252.5L628.6 246.6L631.3 243.2L634.1 239.1L636.8 235.9L639.5 232L642.2 228.2L645 226.9L647.7 223.8L650.4 220.8L653.2 216.1L655.9 212.5L658.6 211.4L661.4 206.9L664.1 205.1L666.8 204.5L669.5 202.3L672.3 201.1L675 200.9L677.7 197.1L680.5 194.7L683.2 191.5L685.9 189.5L688.6 186.4L691.4 183L694.1 179.5L696.8 176.8L699.6 173.9L702.3 170.8L705 167.2L707.8 162.7L710.5 159.6L713.2 157.4L715.9 152.9L718.7 150.1L721.4 146.3L724.1 143.3L726.9 140.2L729.6 137L732.3 134.9L735.1 132.1L737.8 130.2L740.5 128L743.2 126L746 132.8L748.7 141.7"></path><path fill="none" stroke-linecap="butt" stroke-linejoin="round" stroke="#18470f" stroke-width="1.5" id="line__World" d="M63.5 523.8L145.4 523.8L200 519.3L281.9 516.7L336.5 513.1L418.4 492.4L453.9 473.5L554.9 362.5L557.6 356.4L560.3 346.6L563.1 341.5L565.8 334.4L568.5 329.6L571.3 325L574 322.2L576.7 316.9L579.5 336.6L582.2 351.4L584.9 327.5L587.6 302.7L590.4 298.6L593.1 293.3L595.8 295.8L598.6 290.6L601.3 286.5L604 281.5L606.8 278.4L609.5 275.8L612.2 277.8L614.9 266.8L617.7 262.2L620.4 258.5L623.1 256.4L625.9 252.5L628.6 246.6L631.3 243.2L634.1 239.1L636.8 235.9L639.5 232L642.2 228.2L645 226.9L647.7 223.8L650.4 220.8L653.2 216.1L655.9 212.5L658.6 211.4L661.4 206.9L664.1 205.1L666.8 204.5L669.5 202.3L672.3 201.1L675 200.9L677.7 197.1L680.5 194.7L683.2 191.5L685.9 189.5L688.6 186.4L691.4 183L694.1 179.5L696.8 176.8L699.6 173.9L702.3 170.8L705 167.2L707.8 162.7L710.5 159.6L713.2 157.4L715.9 152.9L718.7 150.1L721.4 146.3L724.1 143.3L726.9 140.2L729.6 137L732.3 134.9L735.1 132.1L737.8 130.2L740.5 128L743.2 126L746 132.8L748.7 141.7"></path><path fill="none" stroke-linecap="butt" stroke-linejoin="round" stroke="#ffffff" stroke-width="2.5" id="outline__Europe" d="M63.5 523.8L145.4 531.3L200 514.1L281.9 508.9L336.5 509.7L418.4 461.1L453.9 430.5L554.9 310.9L557.6 311L560.3 301.8L563.1 297.1L565.8 291.3L568.5 286.9L571.3 280.2L574 280.2L576.7 270.9L579.5 271.3L582.2 266.7L584.9 264.2L587.6 265.7L590.4 263.4L593.1 258.4L595.8 258.9L598.6 257.2L601.3 257.3L604 258.1L606.8 260.1L609.5 257.6L612.2 256.6L614.9 254.9L617.7 254.4L620.4 252.6L623.1 253.4L625.9 252.7L628.6 250.9L631.3 250.8L634.1 250.3L636.8 250.3L639.5 248.1L642.2 246L645 246.3L647.7 245.4L650.4 244.4L653.2 238.6L655.9 237.2L658.6 236.4L661.4 235.5L664.1 235.9L666.8 236L669.5 237.4L672.3 241.9L675 241.8L677.7 241.1L680.5 237L683.2 233.2L685.9 230.8L688.6 232.3L691.4 231.1L694.1 229.2L696.8 229.3L699.6 228.8L702.3 224.7L705 223.8L707.8 218.9L710.5 216L713.2 213.8L715.9 210.4L718.7 208.6L721.4 204.6L724.1 203.3L726.9 200.8L729.6 198.3L732.3 197.8L735.1 194.5L737.8 192.8L740.5 191.8L743.2 189.3L746 199.6L748.7 204.9"></path><path fill="none" stroke-linecap="butt" stroke-linejoin="round" stroke="#4c6a9c" stroke-width="1.5" id="line__Europe" d="M63.5 523.8L145.4 531.3L200 514.1L281.9 508.9L336.5 509.7L418.4 461.1L453.9 430.5L554.9 310.9L557.6 311L560.3 301.8L563.1 297.1L565.8 291.3L568.5 286.9L571.3 280.2L574 280.2L576.7 270.9L579.5 271.3L582.2 266.7L584.9 264.2L587.6 265.7L590.4 263.4L593.1 258.4L595.8 258.9L598.6 257.2L601.3 257.3L604 258.1L606.8 260.1L609.5 257.6L612.2 256.6L614.9 254.9L617.7 254.4L620.4 252.6L623.1 253.4L625.9 252.7L628.6 250.9L631.3 250.8L634.1 250.3L636.8 250.3L639.5 248.1L642.2 246L645 246.3L647.7 245.4L650.4 244.4L653.2 238.6L655.9 237.2L658.6 236.4L661.4 235.5L664.1 235.9L666.8 236L669.5 237.4L672.3 241.9L675 241.8L677.7 241.1L680.5 237L683.2 233.2L685.9 230.8L688.6 232.3L691.4 231.1L694.1 229.2L696.8 229.3L699.6 228.8L702.3 224.7L705 223.8L707.8 218.9L710.5 216L713.2 213.8L715.9 210.4L718.7 208.6L721.4 204.6L724.1 203.3L726.9 200.8L729.6 198.3L732.3 197.8L735.1 194.5L737.8 192.8L740.5 191.8L743.2 189.3L746 199.6L748.7 204.9"></path><path fill="none" stroke-linecap="butt" stroke-linejoin="round" stroke="#ffffff" stroke-width="2.5" id="outline__Asia" d="M63.5 523.8L377.5 523.8L418.4 519.2L453.9 518.3L554.9 388.6L557.6 379.6L560.3 367.8L563.1 362.1L565.8 353.8L568.5 348.6L571.3 343.8L574 339.2L576.7 334.5L579.5 367.4L582.2 391.6L584.9 357.8L587.6 317.8L590.4 311.8L593.1 305.6L595.8 309L598.6 300.6L601.3 294.5L604 286.1L606.8 280.6L609.5 277.8L612.2 283.1L614.9 265.2L617.7 259.3L620.4 254.6L623.1 252.2L625.9 247.3L628.6 239.8L631.3 235L634.1 229.5L636.8 225L639.5 220.3L642.2 215.6L645 211.3L647.7 207L650.4 202.9L653.2 198.2L655.9 194L658.6 190.9L661.4 186.9L664.1 183.7L666.8 181.9L669.5 177.1L672.3 173.8L675 170.9L677.7 168.3L680.5 165.5L683.2 161.6L685.9 157.4L688.6 154.2L691.4 150.3L694.1 145.7L696.8 141.9L699.6 138.2L702.3 136L705 131.8L707.8 127.8L710.5 125L713.2 123.5L715.9 119L718.7 115.7L721.4 112.6L724.1 109.2L726.9 106L729.6 102.3L732.3 99.2L735.1 96.2L737.8 94L740.5 91.1L743.2 89.3L746 93.4L748.7 104.7"></path><path fill="none" stroke-linecap="butt" stroke-linejoin="round" stroke="#00847e" stroke-width="1.5" id="line__Asia" d="M63.5 523.8L377.5 523.8L418.4 519.2L453.9 518.3L554.9 388.6L557.6 379.6L560.3 367.8L563.1 362.1L565.8 353.8L568.5 348.6L571.3 343.8L574 339.2L576.7 334.5L579.5 367.4L582.2 391.6L584.9 357.8L587.6 317.8L590.4 311.8L593.1 305.6L595.8 309L598.6 300.6L601.3 294.5L604 286.1L606.8 280.6L609.5 277.8L612.2 283.1L614.9 265.2L617.7 259.3L620.4 254.6L623.1 252.2L625.9 247.3L628.6 239.8L631.3 235L634.1 229.5L636.8 225L639.5 220.3L642.2 215.6L645 211.3L647.7 207L650.4 202.9L653.2 198.2L655.9 194L658.6 190.9L661.4 186.9L664.1 183.7L666.8 181.9L669.5 177.1L672.3 173.8L675 170.9L677.7 168.3L680.5 165.5L683.2 161.6L685.9 157.4L688.6 154.2L691.4 150.3L694.1 145.7L696.8 141.9L699.6 138.2L702.3 136L705 131.8L707.8 127.8L710.5 125L713.2 123.5L715.9 119L718.7 115.7L721.4 112.6L724.1 109.2L726.9 106L729.6 102.3L732.3 99.2L735.1 96.2L737.8 94L740.5 91.1L743.2 89.3L746 93.4L748.7 104.7"></path><path fill="none" stroke-linecap="butt" stroke-linejoin="round" stroke="#ffffff" stroke-width="2.5" id="outline__Americas" d="M63.5 523.8L227.3 523.8L281.9 521.6L336.5 521.6L418.4 478.2L453.9 448.1L554.9 352.3L557.6 350.4L560.3 347.3L563.1 344L565.8 338.7L568.5 336.7L571.3 334L574 333L576.7 329.6L579.5 327L582.2 325.2L584.9 321.8L587.6 320.7L590.4 319.9L593.1 317.2L595.8 315.7L598.6 314.4L601.3 312.2L604 311.9L606.8 309.9L609.5 309.3L612.2 304.6L614.9 303.1L617.7 300.4L620.4 297.2L623.1 293.4L625.9 291.9L628.6 288.4L631.3 286.5L634.1 283.9L636.8 282.6L639.5 279.4L642.2 277.2L645 274.5L647.7 272.4L650.4 271L653.2 268.2L655.9 265.9L658.6 264.1L661.4 261.8L664.1 259.8L666.8 257.7L669.5 255.5L672.3 254.6L675 252.4L677.7 250.7L680.5 248.1L683.2 245.7L685.9 244.2L688.6 242.1L691.4 240.3L694.1 238.7L696.8 236.9L699.6 235.7L702.3 233.1L705 231.2L707.8 229.4L710.5 228.2L713.2 226.8L715.9 224.8L718.7 225.6L721.4 222.3L724.1 220.9L726.9 219.7L729.6 218.5L732.3 218.6L735.1 218.8L737.8 218.1L740.5 217.2L743.2 215.9L746 229.3L748.7 234.1"></path><path fill="none" stroke-linecap="butt" stroke-linejoin="round" stroke="#c4523e" stroke-width="1.5" id="line__Americas" d="M63.5 523.8L227.3 523.8L281.9 521.6L336.5 521.6L418.4 478.2L453.9 448.1L554.9 352.3L557.6 350.4L560.3 347.3L563.1 344L565.8 338.7L568.5 336.7L571.3 334L574 333L576.7 329.6L579.5 327L582.2 325.2L584.9 321.8L587.6 320.7L590.4 319.9L593.1 317.2L595.8 315.7L598.6 314.4L601.3 312.2L604 311.9L606.8 309.9L609.5 309.3L612.2 304.6L614.9 303.1L617.7 300.4L620.4 297.2L623.1 293.4L625.9 291.9L628.6 288.4L631.3 286.5L634.1 283.9L636.8 282.6L639.5 279.4L642.2 277.2L645 274.5L647.7 272.4L650.4 271L653.2 268.2L655.9 265.9L658.6 264.1L661.4 261.8L664.1 259.8L666.8 257.7L669.5 255.5L672.3 254.6L675 252.4L677.7 250.7L680.5 248.1L683.2 245.7L685.9 244.2L688.6 242.1L691.4 240.3L694.1 238.7L696.8 236.9L699.6 235.7L702.3 233.1L705 231.2L707.8 229.4L710.5 228.2L713.2 226.8L715.9 224.8L718.7 225.6L721.4 222.3L724.1 220.9L726.9 219.7L729.6 218.5L732.3 218.6L735.1 218.8L737.8 218.1L740.5 217.2L743.2 215.9L746 229.3L748.7 234.1"></path><path fill="none" stroke-linecap="butt" stroke-linejoin="round" stroke="#ffffff" stroke-width="2.5" id="outline__Africa" d="M63.5 523.8L486.6 523.8L554.9 415L557.6 412L560.3 407.1L563.1 402.5L565.8 398.8L568.5 393.9L571.3 390.3L574 391.8L576.7 389L579.5 379.5L582.2 377.6L584.9 373.8L587.6 369.5L590.4 365L593.1 360.5L595.8 358.6L598.6 358.7L601.3 356.6L604 352.2L606.8 350.1L609.5 345.6L612.2 340.4L614.9 339.5L617.7 332.3L620.4 329.3L623.1 325L625.9 317.9L628.6 312.8L631.3 308.9L634.1 303.8L636.8 299.7L639.5 295.8L642.2 292.3L645 299.4L647.7 297.9L650.4 294.2L653.2 289.7L655.9 286.3L658.6 290.8L661.4 278.7L664.1 279L666.8 280.6L669.5 283L672.3 280L675 290L677.7 274.5L680.5 274.4L683.2 272.6L685.9 276.6L688.6 268.1L691.4 262.5L694.1 259.9L696.8 256.2L699.6 252.1L702.3 247.5L705 242L707.8 235.5L710.5 229.7L713.2 224.1L715.9 217.3L718.7 211.5L721.4 205.3L724.1 199.9L726.9 195.2L729.6 190.8L732.3 187.1L735.1 182.6L737.8 178.8L740.5 175.3L743.2 172L746 176.4L748.7 181.9"></path><path fill="none" stroke-linecap="butt" stroke-linejoin="round" stroke="#a2559c" stroke-width="1.5" id="line__Africa" d="M63.5 523.8L486.6 523.8L554.9 415L557.6 412L560.3 407.1L563.1 402.5L565.8 398.8L568.5 393.9L571.3 390.3L574 391.8L576.7 389L579.5 379.5L582.2 377.6L584.9 373.8L587.6 369.5L590.4 365L593.1 360.5L595.8 358.6L598.6 358.7L601.3 356.6L604 352.2L606.8 350.1L609.5 345.6L612.2 340.4L614.9 339.5L617.7 332.3L620.4 329.3L623.1 325L625.9 317.9L628.6 312.8L631.3 308.9L634.1 303.8L636.8 299.7L639.5 295.8L642.2 292.3L645 299.4L647.7 297.9L650.4 294.2L653.2 289.7L655.9 286.3L658.6 290.8L661.4 278.7L664.1 279L666.8 280.6L669.5 283L672.3 280L675 290L677.7 274.5L680.5 274.4L683.2 272.6L685.9 276.6L688.6 268.1L691.4 262.5L694.1 259.9L696.8 256.2L699.6 252.1L702.3 247.5L705 242L707.8 235.5L710.5 229.7L713.2 224.1L715.9 217.3L718.7 211.5L721.4 205.3L724.1 199.9L726.9 195.2L729.6 190.8L732.3 187.1L735.1 182.6L737.8 178.8L740.5 175.3L743.2 172L746 176.4L748.7 181.9"></path></g><g id="markers"><g id="markers__Oceania"><circle id="1870" cx="336.5" cy="523.8" r="1.8" fill="#9a5129"></circle><circle id="1900" cx="418.4" cy="428.7" r="1.8" fill="#9a5129"></circle><circle id="1913" cx="453.9" cy="403.6" r="1.8" fill="#9a5129"></circle><circle id="1950" cx="554.9" cy="327" r="1.8" fill="#9a5129"></circle><circle id="1951" cx="557.6" cy="332.6" r="1.8" fill="#9a5129"></circle><circle id="1952" cx="560.3" cy="322.4" r="1.8" fill="#9a5129"></circle><circle id="1953" cx="563.1" cy="317.4" r="1.8" fill="#9a5129"></circle><circle id="1954" cx="565.8" cy="315" r="1.8" fill="#9a5129"></circle><circle id="1955" cx="568.5" cy="311.8" r="1.8" fill="#9a5129"></circle><circle id="1956" cx="571.3" cy="310.9" r="1.8" fill="#9a5129"></circle><circle id="1957" cx="574" cy="307.8" r="1.8" fill="#9a5129"></circle><circle id="1958" cx="576.7" cy="303.1" r="1.8" fill="#9a5129"></circle><circle id="1959" cx="579.5" cy="303.7" r="1.8" fill="#9a5129"></circle><circle id="1960" cx="582.2" cy="299.9" r="1.8" fill="#9a5129"></circle><circle id="1961" cx="584.9" cy="297.4" r="1.8" fill="#9a5129"></circle><circle id="1962" cx="587.6" cy="297.4" r="1.8" fill="#9a5129"></circle><circle id="1963" cx="590.4" cy="295.5" r="1.8" fill="#9a5129"></circle><circle id="1964" cx="593.1" cy="296.7" r="1.8" fill="#9a5129"></circle><circle id="1965" cx="595.8" cy="294.4" r="1.8" fill="#9a5129"></circle><circle id="1966" cx="598.6" cy="294.1" r="1.8" fill="#9a5129"></circle><circle id="1967" cx="601.3" cy="290.5" r="1.8" fill="#9a5129"></circle><circle id="1968" cx="604" cy="291.1" r="1.8" fill="#9a5129"></circle><circle id="1969" cx="606.8" cy="287.5" r="1.8" fill="#9a5129"></circle><circle id="1970" cx="609.5" cy="288.3" r="1.8" fill="#9a5129"></circle><circle id="1971" cx="612.2" cy="282.3" r="1.8" fill="#9a5129"></circle><circle id="1972" cx="614.9" cy="279.7" r="1.8" fill="#9a5129"></circle><circle id="1973" cx="617.7" cy="277.9" r="1.8" fill="#9a5129"></circle><circle id="1974" cx="620.4" cy="277.7" r="1.8" fill="#9a5129"></circle><circle id="1975" cx="623.1" cy="272.5" r="1.8" fill="#9a5129"></circle><circle id="1976" cx="625.9" cy="271.6" r="1.8" fill="#9a5129"></circle><circle id="1977" cx="628.6" cy="267.8" r="1.8" fill="#9a5129"></circle><circle id="1978" cx="631.3" cy="264.8" r="1.8" fill="#9a5129"></circle><circle id="1979" cx="634.1" cy="261.3" r="1.8" fill="#9a5129"></circle><circle id="1980" cx="636.8" cy="259.8" r="1.8" fill="#9a5129"></circle><circle id="1981" cx="639.5" cy="257" r="1.8" fill="#9a5129"></circle><circle id="1982" cx="642.2" cy="256.6" r="1.8" fill="#9a5129"></circle><circle id="1983" cx="645" cy="252.4" r="1.8" fill="#9a5129"></circle><circle id="1984" cx="647.7" cy="251.1" r="1.8" fill="#9a5129"></circle><circle id="1985" cx="650.4" cy="251.3" r="1.8" fill="#9a5129"></circle><circle id="1986" cx="653.2" cy="247.8" r="1.8" fill="#9a5129"></circle><circle id="1987" cx="655.9" cy="247.2" r="1.8" fill="#9a5129"></circle><circle id="1988" cx="658.6" cy="245.2" r="1.8" fill="#9a5129"></circle><circle id="1989" cx="661.4" cy="245.1" r="1.8" fill="#9a5129"></circle><circle id="1990" cx="664.1" cy="239.9" r="1.8" fill="#9a5129"></circle><circle id="1991" cx="666.8" cy="237.1" r="1.8" fill="#9a5129"></circle><circle id="1992" cx="669.5" cy="236.6" r="1.8" fill="#9a5129"></circle><circle id="1993" cx="672.3" cy="233.7" r="1.8" fill="#9a5129"></circle><circle id="1994" cx="675" cy="234" r="1.8" fill="#9a5129"></circle><circle id="1995" cx="677.7" cy="231.9" r="1.8" fill="#9a5129"></circle><circle id="1996" cx="680.5" cy="231.7" r="1.8" fill="#9a5129"></circle><circle id="1997" cx="683.2" cy="229.7" r="1.8" fill="#9a5129"></circle><circle id="1998" cx="685.9" cy="228.7" r="1.8" fill="#9a5129"></circle><circle id="1999" cx="688.6" cy="226" r="1.8" fill="#9a5129"></circle><circle id="2000" cx="691.4" cy="223.9" r="1.8" fill="#9a5129"></circle><circle id="2001" cx="694.1" cy="222.4" r="1.8" fill="#9a5129"></circle><circle id="2002" cx="696.8" cy="222.6" r="1.8" fill="#9a5129"></circle><circle id="2003" cx="699.6" cy="220.4" r="1.8" fill="#9a5129"></circle><circle id="2004" cx="702.3" cy="219" r="1.8" fill="#9a5129"></circle><circle id="2005" cx="705" cy="216.6" r="1.8" fill="#9a5129"></circle><circle id="2006" cx="707.8" cy="215.7" r="1.8" fill="#9a5129"></circle><circle id="2007" cx="710.5" cy="215.5" r="1.8" fill="#9a5129"></circle><circle id="2008" cx="713.2" cy="213.4" r="1.8" fill="#9a5129"></circle><circle id="2009" cx="715.9" cy="211.5" r="1.8" fill="#9a5129"></circle><circle id="2010" cx="718.7" cy="209.1" r="1.8" fill="#9a5129"></circle><circle id="2011" cx="721.4" cy="208.2" r="1.8" fill="#9a5129"></circle><circle id="2012" cx="724.1" cy="206.7" r="1.8" fill="#9a5129"></circle><circle id="2013" cx="726.9" cy="204.7" r="1.8" fill="#9a5129"></circle><circle id="2014" cx="729.6" cy="204.5" r="1.8" fill="#9a5129"></circle><circle id="2015" cx="732.3" cy="203.2" r="1.8" fill="#9a5129"></circle><circle id="2016" cx="735.1" cy="201.8" r="1.8" fill="#9a5129"></circle><circle id="2017" cx="737.8" cy="200.4" r="1.8" fill="#9a5129"></circle><circle id="2018" cx="740.5" cy="198.3" r="1.8" fill="#9a5129"></circle><circle id="2019" cx="743.2" cy="198.9" r="1.8" fill="#9a5129"></circle><circle id="2020" cx="746" cy="193.4" r="1.8" fill="#9a5129"></circle><circle id="2021" cx="748.7" cy="193.8" r="1.8" fill="#9a5129"></circle></g><g id="markers__World"><circle id="1770" cx="63.5" cy="523.8" r="1.8" fill="#18470f"></circle><circle id="1800" cx="145.4" cy="523.8" r="1.8" fill="#18470f"></circle><circle id="1820" cx="200" cy="519.3" r="1.8" fill="#18470f"></circle><circle id="1850" cx="281.9" cy="516.7" r="1.8" fill="#18470f"></circle><circle id="1870" cx="336.5" cy="513.1" r="1.8" fill="#18470f"></circle><circle id="1900" cx="418.4" cy="492.4" r="1.8" fill="#18470f"></circle><circle id="1913" cx="453.9" cy="473.5" r="1.8" fill="#18470f"></circle><circle id="1950" cx="554.9" cy="362.5" r="1.8" fill="#18470f"></circle><circle id="1951" cx="557.6" cy="356.4" r="1.8" fill="#18470f"></circle><circle id="1952" cx="560.3" cy="346.6" r="1.8" fill="#18470f"></circle><circle id="1953" cx="563.1" cy="341.5" r="1.8" fill="#18470f"></circle><circle id="1954" cx="565.8" cy="334.4" r="1.8" fill="#18470f"></circle><circle id="1955" cx="568.5" cy="329.6" r="1.8" fill="#18470f"></circle><circle id="1956" cx="571.3" cy="325" r="1.8" fill="#18470f"></circle><circle id="1957" cx="574" cy="322.2" r="1.8" fill="#18470f"></circle><circle id="1958" cx="576.7" cy="316.9" r="1.8" fill="#18470f"></circle><circle id="1959" cx="579.5" cy="336.6" r="1.8" fill="#18470f"></circle><circle id="1960" cx="582.2" cy="351.4" r="1.8" fill="#18470f"></circle><circle id="1961" cx="584.9" cy="327.5" r="1.8" fill="#18470f"></circle><circle id="1962" cx="587.6" cy="302.7" r="1.8" fill="#18470f"></circle><circle id="1963" cx="590.4" cy="298.6" r="1.8" fill="#18470f"></circle><circle id="1964" cx="593.1" cy="293.3" r="1.8" fill="#18470f"></circle><circle id="1965" cx="595.8" cy="295.8" r="1.8" fill="#18470f"></circle><circle id="1966" cx="598.6" cy="290.6" r="1.8" fill="#18470f"></circle><circle id="1967" cx="601.3" cy="286.5" r="1.8" fill="#18470f"></circle><circle id="1968" cx="604" cy="281.5" r="1.8" fill="#18470f"></circle><circle id="1969" cx="606.8" cy="278.4" r="1.8" fill="#18470f"></circle><circle id="1970" cx="609.5" cy="275.8" r="1.8" fill="#18470f"></circle><circle id="1971" cx="612.2" cy="277.8" r="1.8" fill="#18470f"></circle><circle id="1972" cx="614.9" cy="266.8" r="1.8" fill="#18470f"></circle><circle id="1973" cx="617.7" cy="262.2" r="1.8" fill="#18470f"></circle><circle id="1974" cx="620.4" cy="258.5" r="1.8" fill="#18470f"></circle><circle id="1975" cx="623.1" cy="256.4" r="1.8" fill="#18470f"></circle><circle id="1976" cx="625.9" cy="252.5" r="1.8" fill="#18470f"></circle><circle id="1977" cx="628.6" cy="246.6" r="1.8" fill="#18470f"></circle><circle id="1978" cx="631.3" cy="243.2" r="1.8" fill="#18470f"></circle><circle id="1979" cx="634.1" cy="239.1" r="1.8" fill="#18470f"></circle><circle id="1980" cx="636.8" cy="235.9" r="1.8" fill="#18470f"></circle><circle id="1981" cx="639.5" cy="232" r="1.8" fill="#18470f"></circle><circle id="1982" cx="642.2" cy="228.2" r="1.8" fill="#18470f"></circle><circle id="1983" cx="645" cy="226.9" r="1.8" fill="#18470f"></circle><circle id="1984" cx="647.7" cy="223.8" r="1.8" fill="#18470f"></circle><circle id="1985" cx="650.4" cy="220.8" r="1.8" fill="#18470f"></circle><circle id="1986" cx="653.2" cy="216.1" r="1.8" fill="#18470f"></circle><circle id="1987" cx="655.9" cy="212.5" r="1.8" fill="#18470f"></circle><circle id="1988" cx="658.6" cy="211.4" r="1.8" fill="#18470f"></circle><circle id="1989" cx="661.4" cy="206.9" r="1.8" fill="#18470f"></circle><circle id="1990" cx="664.1" cy="205.1" r="1.8" fill="#18470f"></circle><circle id="1991" cx="666.8" cy="204.5" r="1.8" fill="#18470f"></circle><circle id="1992" cx="669.5" cy="202.3" r="1.8" fill="#18470f"></circle><circle id="1993" cx="672.3" cy="201.1" r="1.8" fill="#18470f"></circle><circle id="1994" cx="675" cy="200.9" r="1.8" fill="#18470f"></circle><circle id="1995" cx="677.7" cy="197.1" r="1.8" fill="#18470f"></circle><circle id="1996" cx="680.5" cy="194.7" r="1.8" fill="#18470f"></circle><circle id="1997" cx="683.2" cy="191.5" r="1.8" fill="#18470f"></circle><circle id="1998" cx="685.9" cy="189.5" r="1.8" fill="#18470f"></circle><circle id="1999" cx="688.6" cy="186.4" r="1.8" fill="#18470f"></circle><circle id="2000" cx="691.4" cy="183" r="1.8" fill="#18470f"></circle><circle id="2001" cx="694.1" cy="179.5" r="1.8" fill="#18470f"></circle><circle id="2002" cx="696.8" cy="176.8" r="1.8" fill="#18470f"></circle><circle id="2003" cx="699.6" cy="173.9" r="1.8" fill="#18470f"></circle><circle id="2004" cx="702.3" cy="170.8" r="1.8" fill="#18470f"></circle><circle id="2005" cx="705" cy="167.2" r="1.8" fill="#18470f"></circle><circle id="2006" cx="707.8" cy="162.7" r="1.8" fill="#18470f"></circle><circle id="2007" cx="710.5" cy="159.6" r="1.8" fill="#18470f"></circle><circle id="2008" cx="713.2" cy="157.4" r="1.8" fill="#18470f"></circle><circle id="2009" cx="715.9" cy="152.9" r="1.8" fill="#18470f"></circle><circle id="2010" cx="718.7" cy="150.1" r="1.8" fill="#18470f"></circle><circle id="2011" cx="721.4" cy="146.3" r="1.8" fill="#18470f"></circle><circle id="2012" cx="724.1" cy="143.3" r="1.8" fill="#18470f"></circle><circle id="2013" cx="726.9" cy="140.2" r="1.8" fill="#18470f"></circle><circle id="2014" cx="729.6" cy="137" r="1.8" fill="#18470f"></circle><circle id="2015" cx="732.3" cy="134.9" r="1.8" fill="#18470f"></circle><circle id="2016" cx="735.1" cy="132.1" r="1.8" fill="#18470f"></circle><circle id="2017" cx="737.8" cy="130.2" r="1.8" fill="#18470f"></circle><circle id="2018" cx="740.5" cy="128" r="1.8" fill="#18470f"></circle><circle id="2019" cx="743.2" cy="126" r="1.8" fill="#18470f"></circle><circle id="2020" cx="746" cy="132.8" r="1.8" fill="#18470f"></circle><circle id="2021" cx="748.7" cy="141.7" r="1.8" fill="#18470f"></circle></g><g id="markers__Europe"><circle id="1770" cx="63.5" cy="523.8" r="1.8" fill="#4c6a9c"></circle><circle id="1800" cx="145.4" cy="531.3" r="1.8" fill="#4c6a9c"></circle><circle id="1820" cx="200" cy="514.1" r="1.8" fill="#4c6a9c"></circle><circle id="1850" cx="281.9" cy="508.9" r="1.8" fill="#4c6a9c"></circle><circle id="1870" cx="336.5" cy="509.7" r="1.8" fill="#4c6a9c"></circle><circle id="1900" cx="418.4" cy="461.1" r="1.8" fill="#4c6a9c"></circle><circle id="1913" cx="453.9" cy="430.5" r="1.8" fill="#4c6a9c"></circle><circle id="1950" cx="554.9" cy="310.9" r="1.8" fill="#4c6a9c"></circle><circle id="1951" cx="557.6" cy="311" r="1.8" fill="#4c6a9c"></circle><circle id="1952" cx="560.3" cy="301.8" r="1.8" fill="#4c6a9c"></circle><circle id="1953" cx="563.1" cy="297.1" r="1.8" fill="#4c6a9c"></circle><circle id="1954" cx="565.8" cy="291.3" r="1.8" fill="#4c6a9c"></circle><circle id="1955" cx="568.5" cy="286.9" r="1.8" fill="#4c6a9c"></circle><circle id="1956" cx="571.3" cy="280.2" r="1.8" fill="#4c6a9c"></circle><circle id="1957" cx="574" cy="280.2" r="1.8" fill="#4c6a9c"></circle><circle id="1958" cx="576.7" cy="270.9" r="1.8" fill="#4c6a9c"></circle><circle id="1959" cx="579.5" cy="271.3" r="1.8" fill="#4c6a9c"></circle><circle id="1960" cx="582.2" cy="266.7" r="1.8" fill="#4c6a9c"></circle><circle id="1961" cx="584.9" cy="264.2" r="1.8" fill="#4c6a9c"></circle><circle id="1962" cx="587.6" cy="265.7" r="1.8" fill="#4c6a9c"></circle><circle id="1963" cx="590.4" cy="263.4" r="1.8" fill="#4c6a9c"></circle><circle id="1964" cx="593.1" cy="258.4" r="1.8" fill="#4c6a9c"></circle><circle id="1965" cx="595.8" cy="258.9" r="1.8" fill="#4c6a9c"></circle><circle id="1966" cx="598.6" cy="257.2" r="1.8" fill="#4c6a9c"></circle><circle id="1967" cx="601.3" cy="257.3" r="1.8" fill="#4c6a9c"></circle><circle id="1968" cx="604" cy="258.1" r="1.8" fill="#4c6a9c"></circle><circle id="1969" cx="606.8" cy="260.1" r="1.8" fill="#4c6a9c"></circle><circle id="1970" cx="609.5" cy="257.6" r="1.8" fill="#4c6a9c"></circle><circle id="1971" cx="612.2" cy="256.6" r="1.8" fill="#4c6a9c"></circle><circle id="1972" cx="614.9" cy="254.9" r="1.8" fill="#4c6a9c"></circle><circle id="1973" cx="617.7" cy="254.4" r="1.8" fill="#4c6a9c"></circle><circle id="1974" cx="620.4" cy="252.6" r="1.8" fill="#4c6a9c"></circle><circle id="1975" cx="623.1" cy="253.4" r="1.8" fill="#4c6a9c"></circle><circle id="1976" cx="625.9" cy="252.7" r="1.8" fill="#4c6a9c"></circle><circle id="1977" cx="628.6" cy="250.9" r="1.8" fill="#4c6a9c"></circle><circle id="1978" cx="631.3" cy="250.8" r="1.8" fill="#4c6a9c"></circle><circle id="1979" cx="634.1" cy="250.3" r="1.8" fill="#4c6a9c"></circle><circle id="1980" cx="636.8" cy="250.3" r="1.8" fill="#4c6a9c"></circle><circle id="1981" cx="639.5" cy="248.1" r="1.8" fill="#4c6a9c"></circle><circle id="1982" cx="642.2" cy="246" r="1.8" fill="#4c6a9c"></circle><circle id="1983" cx="645" cy="246.3" r="1.8" fill="#4c6a9c"></circle><circle id="1984" cx="647.7" cy="245.4" r="1.8" fill="#4c6a9c"></circle><circle id="1985" cx="650.4" cy="244.4" r="1.8" fill="#4c6a9c"></circle><circle id="1986" cx="653.2" cy="238.6" r="1.8" fill="#4c6a9c"></circle><circle id="1987" cx="655.9" cy="237.2" r="1.8" fill="#4c6a9c"></circle><circle id="1988" cx="658.6" cy="236.4" r="1.8" fill="#4c6a9c"></circle><circle id="1989" cx="661.4" cy="235.5" r="1.8" fill="#4c6a9c"></circle><circle id="1990" cx="664.1" cy="235.9" r="1.8" fill="#4c6a9c"></circle><circle id="1991" cx="666.8" cy="236" r="1.8" fill="#4c6a9c"></circle><circle id="1992" cx="669.5" cy="237.4" r="1.8" fill="#4c6a9c"></circle><circle id="1993" cx="672.3" cy="241.9" r="1.8" fill="#4c6a9c"></circle><circle id="1994" cx="675" cy="241.8" r="1.8" fill="#4c6a9c"></circle><circle id="1995" cx="677.7" cy="241.1" r="1.8" fill="#4c6a9c"></circle><circle id="1996" cx="680.5" cy="237" r="1.8" fill="#4c6a9c"></circle><circle id="1997" cx="683.2" cy="233.2" r="1.8" fill="#4c6a9c"></circle><circle id="1998" cx="685.9" cy="230.8" r="1.8" fill="#4c6a9c"></circle><circle id="1999" cx="688.6" cy="232.3" r="1.8" fill="#4c6a9c"></circle><circle id="2000" cx="691.4" cy="231.1" r="1.8" fill="#4c6a9c"></circle><circle id="2001" cx="694.1" cy="229.2" r="1.8" fill="#4c6a9c"></circle><circle id="2002" cx="696.8" cy="229.3" r="1.8" fill="#4c6a9c"></circle><circle id="2003" cx="699.6" cy="228.8" r="1.8" fill="#4c6a9c"></circle><circle id="2004" cx="702.3" cy="224.7" r="1.8" fill="#4c6a9c"></circle><circle id="2005" cx="705" cy="223.8" r="1.8" fill="#4c6a9c"></circle><circle id="2006" cx="707.8" cy="218.9" r="1.8" fill="#4c6a9c"></circle><circle id="2007" cx="710.5" cy="216" r="1.8" fill="#4c6a9c"></circle><circle id="2008" cx="713.2" cy="213.8" r="1.8" fill="#4c6a9c"></circle><circle id="2009" cx="715.9" cy="210.4" r="1.8" fill="#4c6a9c"></circle><circle id="2010" cx="718.7" cy="208.6" r="1.8" fill="#4c6a9c"></circle><circle id="2011" cx="721.4" cy="204.6" r="1.8" fill="#4c6a9c"></circle><circle id="2012" cx="724.1" cy="203.3" r="1.8" fill="#4c6a9c"></circle><circle id="2013" cx="726.9" cy="200.8" r="1.8" fill="#4c6a9c"></circle><circle id="2014" cx="729.6" cy="198.3" r="1.8" fill="#4c6a9c"></circle><circle id="2015" cx="732.3" cy="197.8" r="1.8" fill="#4c6a9c"></circle><circle id="2016" cx="735.1" cy="194.5" r="1.8" fill="#4c6a9c"></circle><circle id="2017" cx="737.8" cy="192.8" r="1.8" fill="#4c6a9c"></circle><circle id="2018" cx="740.5" cy="191.8" r="1.8" fill="#4c6a9c"></circle><circle id="2019" cx="743.2" cy="189.3" r="1.8" fill="#4c6a9c"></circle><circle id="2020" cx="746" cy="199.6" r="1.8" fill="#4c6a9c"></circle><circle id="2021" cx="748.7" cy="204.9" r="1.8" fill="#4c6a9c"></circle></g><g id="markers__Asia"><circle id="1770" cx="63.5" cy="523.8" r="1.8" fill="#00847e"></circle><circle id="1885" cx="377.5" cy="523.8" r="1.8" fill="#00847e"></circle><circle id="1900" cx="418.4" cy="519.2" r="1.8" fill="#00847e"></circle><circle id="1913" cx="453.9" cy="518.3" r="1.8" fill="#00847e"></circle><circle id="1950" cx="554.9" cy="388.6" r="1.8" fill="#00847e"></circle><circle id="1951" cx="557.6" cy="379.6" r="1.8" fill="#00847e"></circle><circle id="1952" cx="560.3" cy="367.8" r="1.8" fill="#00847e"></circle><circle id="1953" cx="563.1" cy="362.1" r="1.8" fill="#00847e"></circle><circle id="1954" cx="565.8" cy="353.8" r="1.8" fill="#00847e"></circle><circle id="1955" cx="568.5" cy="348.6" r="1.8" fill="#00847e"></circle><circle id="1956" cx="571.3" cy="343.8" r="1.8" fill="#00847e"></circle><circle id="1957" cx="574" cy="339.2" r="1.8" fill="#00847e"></circle><circle id="1958" cx="576.7" cy="334.5" r="1.8" fill="#00847e"></circle><circle id="1959" cx="579.5" cy="367.4" r="1.8" fill="#00847e"></circle><circle id="1960" cx="582.2" cy="391.6" r="1.8" fill="#00847e"></circle><circle id="1961" cx="584.9" cy="357.8" r="1.8" fill="#00847e"></circle><circle id="1962" cx="587.6" cy="317.8" r="1.8" fill="#00847e"></circle><circle id="1963" cx="590.4" cy="311.8" r="1.8" fill="#00847e"></circle><circle id="1964" cx="593.1" cy="305.6" r="1.8" fill="#00847e"></circle><circle id="1965" cx="595.8" cy="309" r="1.8" fill="#00847e"></circle><circle id="1966" cx="598.6" cy="300.6" r="1.8" fill="#00847e"></circle><circle id="1967" cx="601.3" cy="294.5" r="1.8" fill="#00847e"></circle><circle id="1968" cx="604" cy="286.1" r="1.8" fill="#00847e"></circle><circle id="1969" cx="606.8" cy="280.6" r="1.8" fill="#00847e"></circle><circle id="1970" cx="609.5" cy="277.8" r="1.8" fill="#00847e"></circle><circle id="1971" cx="612.2" cy="283.1" r="1.8" fill="#00847e"></circle><circle id="1972" cx="614.9" cy="265.2" r="1.8" fill="#00847e"></circle><circle id="1973" cx="617.7" cy="259.3" r="1.8" fill="#00847e"></circle><circle id="1974" cx="620.4" cy="254.6" r="1.8" fill="#00847e"></circle><circle id="1975" cx="623.1" cy="252.2" r="1.8" fill="#00847e"></circle><circle id="1976" cx="625.9" cy="247.3" r="1.8" fill="#00847e"></circle><circle id="1977" cx="628.6" cy="239.8" r="1.8" fill="#00847e"></circle><circle id="1978" cx="631.3" cy="235" r="1.8" fill="#00847e"></circle><circle id="1979" cx="634.1" cy="229.5" r="1.8" fill="#00847e"></circle><circle id="1980" cx="636.8" cy="225" r="1.8" fill="#00847e"></circle><circle id="1981" cx="639.5" cy="220.3" r="1.8" fill="#00847e"></circle><circle id="1982" cx="642.2" cy="215.6" r="1.8" fill="#00847e"></circle><circle id="1983" cx="645" cy="211.3" r="1.8" fill="#00847e"></circle><circle id="1984" cx="647.7" cy="207" r="1.8" fill="#00847e"></circle><circle id="1985" cx="650.4" cy="202.9" r="1.8" fill="#00847e"></circle><circle id="1986" cx="653.2" cy="198.2" r="1.8" fill="#00847e"></circle><circle id="1987" cx="655.9" cy="194" r="1.8" fill="#00847e"></circle><circle id="1988" cx="658.6" cy="190.9" r="1.8" fill="#00847e"></circle><circle id="1989" cx="661.4" cy="186.9" r="1.8" fill="#00847e"></circle><circle id="1990" cx="664.1" cy="183.7" r="1.8" fill="#00847e"></circle><circle id="1991" cx="666.8" cy="181.9" r="1.8" fill="#00847e"></circle><circle id="1992" cx="669.5" cy="177.1" r="1.8" fill="#00847e"></circle><circle id="1993" cx="672.3" cy="173.8" r="1.8" fill="#00847e"></circle><circle id="1994" cx="675" cy="170.9" r="1.8" fill="#00847e"></circle><circle id="1995" cx="677.7" cy="168.3" r="1.8" fill="#00847e"></circle><circle id="1996" cx="680.5" cy="165.5" r="1.8" fill="#00847e"></circle><circle id="1997" cx="683.2" cy="161.6" r="1.8" fill="#00847e"></circle><circle id="1998" cx="685.9" cy="157.4" r="1.8" fill="#00847e"></circle><circle id="1999" cx="688.6" cy="154.2" r="1.8" fill="#00847e"></circle><circle id="2000" cx="691.4" cy="150.3" r="1.8" fill="#00847e"></circle><circle id="2001" cx="694.1" cy="145.7" r="1.8" fill="#00847e"></circle><circle id="2002" cx="696.8" cy="141.9" r="1.8" fill="#00847e"></circle><circle id="2003" cx="699.6" cy="138.2" r="1.8" fill="#00847e"></circle><circle id="2004" cx="702.3" cy="136" r="1.8" fill="#00847e"></circle><circle id="2005" cx="705" cy="131.8" r="1.8" fill="#00847e"></circle><circle id="2006" cx="707.8" cy="127.8" r="1.8" fill="#00847e"></circle><circle id="2007" cx="710.5" cy="125" r="1.8" fill="#00847e"></circle><circle id="2008" cx="713.2" cy="123.5" r="1.8" fill="#00847e"></circle><circle id="2009" cx="715.9" cy="119" r="1.8" fill="#00847e"></circle><circle id="2010" cx="718.7" cy="115.7" r="1.8" fill="#00847e"></circle><circle id="2011" cx="721.4" cy="112.6" r="1.8" fill="#00847e"></circle><circle id="2012" cx="724.1" cy="109.2" r="1.8" fill="#00847e"></circle><circle id="2013" cx="726.9" cy="106" r="1.8" fill="#00847e"></circle><circle id="2014" cx="729.6" cy="102.3" r="1.8" fill="#00847e"></circle><circle id="2015" cx="732.3" cy="99.2" r="1.8" fill="#00847e"></circle><circle id="2016" cx="735.1" cy="96.2" r="1.8" fill="#00847e"></circle><circle id="2017" cx="737.8" cy="94" r="1.8" fill="#00847e"></circle><circle id="2018" cx="740.5" cy="91.1" r="1.8" fill="#00847e"></circle><circle id="2019" cx="743.2" cy="89.3" r="1.8" fill="#00847e"></circle><circle id="2020" cx="746" cy="93.4" r="1.8" fill="#00847e"></circle><circle id="2021" cx="748.7" cy="104.7" r="1.8" fill="#00847e"></circle></g><g id="markers__Americas"><circle id="1770" cx="63.5" cy="523.8" r="1.8" fill="#c4523e"></circle><circle id="1830" cx="227.3" cy="523.8" r="1.8" fill="#c4523e"></circle><circle id="1850" cx="281.9" cy="521.6" r="1.8" fill="#c4523e"></circle><circle id="1870" cx="336.5" cy="521.6" r="1.8" fill="#c4523e"></circle><circle id="1900" cx="418.4" cy="478.2" r="1.8" fill="#c4523e"></circle><circle id="1913" cx="453.9" cy="448.1" r="1.8" fill="#c4523e"></circle><circle id="1950" cx="554.9" cy="352.3" r="1.8" fill="#c4523e"></circle><circle id="1951" cx="557.6" cy="350.4" r="1.8" fill="#c4523e"></circle><circle id="1952" cx="560.3" cy="347.3" r="1.8" fill="#c4523e"></circle><circle id="1953" cx="563.1" cy="344" r="1.8" fill="#c4523e"></circle><circle id="1954" cx="565.8" cy="338.7" r="1.8" fill="#c4523e"></circle><circle id="1955" cx="568.5" cy="336.7" r="1.8" fill="#c4523e"></circle><circle id="1956" cx="571.3" cy="334" r="1.8" fill="#c4523e"></circle><circle id="1957" cx="574" cy="333" r="1.8" fill="#c4523e"></circle><circle id="1958" cx="576.7" cy="329.6" r="1.8" fill="#c4523e"></circle><circle id="1959" cx="579.5" cy="327" r="1.8" fill="#c4523e"></circle><circle id="1960" cx="582.2" cy="325.2" r="1.8" fill="#c4523e"></circle><circle id="1961" cx="584.9" cy="321.8" r="1.8" fill="#c4523e"></circle><circle id="1962" cx="587.6" cy="320.7" r="1.8" fill="#c4523e"></circle><circle id="1963" cx="590.4" cy="319.9" r="1.8" fill="#c4523e"></circle><circle id="1964" cx="593.1" cy="317.2" r="1.8" fill="#c4523e"></circle><circle id="1965" cx="595.8" cy="315.7" r="1.8" fill="#c4523e"></circle><circle id="1966" cx="598.6" cy="314.4" r="1.8" fill="#c4523e"></circle><circle id="1967" cx="601.3" cy="312.2" r="1.8" fill="#c4523e"></circle><circle id="1968" cx="604" cy="311.9" r="1.8" fill="#c4523e"></circle><circle id="1969" cx="606.8" cy="309.9" r="1.8" fill="#c4523e"></circle><circle id="1970" cx="609.5" cy="309.3" r="1.8" fill="#c4523e"></circle><circle id="1971" cx="612.2" cy="304.6" r="1.8" fill="#c4523e"></circle><circle id="1972" cx="614.9" cy="303.1" r="1.8" fill="#c4523e"></circle><circle id="1973" cx="617.7" cy="300.4" r="1.8" fill="#c4523e"></circle><circle id="1974" cx="620.4" cy="297.2" r="1.8" fill="#c4523e"></circle><circle id="1975" cx="623.1" cy="293.4" r="1.8" fill="#c4523e"></circle><circle id="1976" cx="625.9" cy="291.9" r="1.8" fill="#c4523e"></circle><circle id="1977" cx="628.6" cy="288.4" r="1.8" fill="#c4523e"></circle><circle id="1978" cx="631.3" cy="286.5" r="1.8" fill="#c4523e"></circle><circle id="1979" cx="634.1" cy="283.9" r="1.8" fill="#c4523e"></circle><circle id="1980" cx="636.8" cy="282.6" r="1.8" fill="#c4523e"></circle><circle id="1981" cx="639.5" cy="279.4" r="1.8" fill="#c4523e"></circle><circle id="1982" cx="642.2" cy="277.2" r="1.8" fill="#c4523e"></circle><circle id="1983" cx="645" cy="274.5" r="1.8" fill="#c4523e"></circle><circle id="1984" cx="647.7" cy="272.4" r="1.8" fill="#c4523e"></circle><circle id="1985" cx="650.4" cy="271" r="1.8" fill="#c4523e"></circle><circle id="1986" cx="653.2" cy="268.2" r="1.8" fill="#c4523e"></circle><circle id="1987" cx="655.9" cy="265.9" r="1.8" fill="#c4523e"></circle><circle id="1988" cx="658.6" cy="264.1" r="1.8" fill="#c4523e"></circle><circle id="1989" cx="661.4" cy="261.8" r="1.8" fill="#c4523e"></circle><circle id="1990" cx="664.1" cy="259.8" r="1.8" fill="#c4523e"></circle><circle id="1991" cx="666.8" cy="257.7" r="1.8" fill="#c4523e"></circle><circle id="1992" cx="669.5" cy="255.5" r="1.8" fill="#c4523e"></circle><circle id="1993" cx="672.3" cy="254.6" r="1.8" fill="#c4523e"></circle><circle id="1994" cx="675" cy="252.4" r="1.8" fill="#c4523e"></circle><circle id="1995" cx="677.7" cy="250.7" r="1.8" fill="#c4523e"></circle><circle id="1996" cx="680.5" cy="248.1" r="1.8" fill="#c4523e"></circle><circle id="1997" cx="683.2" cy="245.7" r="1.8" fill="#c4523e"></circle><circle id="1998" cx="685.9" cy="244.2" r="1.8" fill="#c4523e"></circle><circle id="1999" cx="688.6" cy="242.1" r="1.8" fill="#c4523e"></circle><circle id="2000" cx="691.4" cy="240.3" r="1.8" fill="#c4523e"></circle><circle id="2001" cx="694.1" cy="238.7" r="1.8" fill="#c4523e"></circle><circle id="2002" cx="696.8" cy="236.9" r="1.8" fill="#c4523e"></circle><circle id="2003" cx="699.6" cy="235.7" r="1.8" fill="#c4523e"></circle><circle id="2004" cx="702.3" cy="233.1" r="1.8" fill="#c4523e"></circle><circle id="2005" cx="705" cy="231.2" r="1.8" fill="#c4523e"></circle><circle id="2006" cx="707.8" cy="229.4" r="1.8" fill="#c4523e"></circle><circle id="2007" cx="710.5" cy="228.2" r="1.8" fill="#c4523e"></circle><circle id="2008" cx="713.2" cy="226.8" r="1.8" fill="#c4523e"></circle><circle id="2009" cx="715.9" cy="224.8" r="1.8" fill="#c4523e"></circle><circle id="2010" cx="718.7" cy="225.6" r="1.8" fill="#c4523e"></circle><circle id="2011" cx="721.4" cy="222.3" r="1.8" fill="#c4523e"></circle><circle id="2012" cx="724.1" cy="220.9" r="1.8" fill="#c4523e"></circle><circle id="2013" cx="726.9" cy="219.7" r="1.8" fill="#c4523e"></circle><circle id="2014" cx="729.6" cy="218.5" r="1.8" fill="#c4523e"></circle><circle id="2015" cx="732.3" cy="218.6" r="1.8" fill="#c4523e"></circle><circle id="2016" cx="735.1" cy="218.8" r="1.8" fill="#c4523e"></circle><circle id="2017" cx="737.8" cy="218.1" r="1.8" fill="#c4523e"></circle><circle id="2018" cx="740.5" cy="217.2" r="1.8" fill="#c4523e"></circle><circle id="2019" cx="743.2" cy="215.9" r="1.8" fill="#c4523e"></circle><circle id="2020" cx="746" cy="229.3" r="1.8" fill="#c4523e"></circle><circle id="2021" cx="748.7" cy="234.1" r="1.8" fill="#c4523e"></circle></g><g id="markers__Africa"><circle id="1770" cx="63.5" cy="523.8" r="1.8" fill="#a2559c"></circle><circle id="1925" cx="486.6" cy="523.8" r="1.8" fill="#a2559c"></circle><circle id="1950" cx="554.9" cy="415" r="1.8" fill="#a2559c"></circle><circle id="1951" cx="557.6" cy="412" r="1.8" fill="#a2559c"></circle><circle id="1952" cx="560.3" cy="407.1" r="1.8" fill="#a2559c"></circle><circle id="1953" cx="563.1" cy="402.5" r="1.8" fill="#a2559c"></circle><circle id="1954" cx="565.8" cy="398.8" r="1.8" fill="#a2559c"></circle><circle id="1955" cx="568.5" cy="393.9" r="1.8" fill="#a2559c"></circle><circle id="1956" cx="571.3" cy="390.3" r="1.8" fill="#a2559c"></circle><circle id="1957" cx="574" cy="391.8" r="1.8" fill="#a2559c"></circle><circle id="1958" cx="576.7" cy="389" r="1.8" fill="#a2559c"></circle><circle id="1959" cx="579.5" cy="379.5" r="1.8" fill="#a2559c"></circle><circle id="1960" cx="582.2" cy="377.6" r="1.8" fill="#a2559c"></circle><circle id="1961" cx="584.9" cy="373.8" r="1.8" fill="#a2559c"></circle><circle id="1962" cx="587.6" cy="369.5" r="1.8" fill="#a2559c"></circle><circle id="1963" cx="590.4" cy="365" r="1.8" fill="#a2559c"></circle><circle id="1964" cx="593.1" cy="360.5" r="1.8" fill="#a2559c"></circle><circle id="1965" cx="595.8" cy="358.6" r="1.8" fill="#a2559c"></circle><circle id="1966" cx="598.6" cy="358.7" r="1.8" fill="#a2559c"></circle><circle id="1967" cx="601.3" cy="356.6" r="1.8" fill="#a2559c"></circle><circle id="1968" cx="604" cy="352.2" r="1.8" fill="#a2559c"></circle><circle id="1969" cx="606.8" cy="350.1" r="1.8" fill="#a2559c"></circle><circle id="1970" cx="609.5" cy="345.6" r="1.8" fill="#a2559c"></circle><circle id="1971" cx="612.2" cy="340.4" r="1.8" fill="#a2559c"></circle><circle id="1972" cx="614.9" cy="339.5" r="1.8" fill="#a2559c"></circle><circle id="1973" cx="617.7" cy="332.3" r="1.8" fill="#a2559c"></circle><circle id="1974" cx="620.4" cy="329.3" r="1.8" fill="#a2559c"></circle><circle id="1975" cx="623.1" cy="325" r="1.8" fill="#a2559c"></circle><circle id="1976" cx="625.9" cy="317.9" r="1.8" fill="#a2559c"></circle><circle id="1977" cx="628.6" cy="312.8" r="1.8" fill="#a2559c"></circle><circle id="1978" cx="631.3" cy="308.9" r="1.8" fill="#a2559c"></circle><circle id="1979" cx="634.1" cy="303.8" r="1.8" fill="#a2559c"></circle><circle id="1980" cx="636.8" cy="299.7" r="1.8" fill="#a2559c"></circle><circle id="1981" cx="639.5" cy="295.8" r="1.8" fill="#a2559c"></circle><circle id="1982" cx="642.2" cy="292.3" r="1.8" fill="#a2559c"></circle><circle id="1983" cx="645" cy="299.4" r="1.8" fill="#a2559c"></circle><circle id="1984" cx="647.7" cy="297.9" r="1.8" fill="#a2559c"></circle><circle id="1985" cx="650.4" cy="294.2" r="1.8" fill="#a2559c"></circle><circle id="1986" cx="653.2" cy="289.7" r="1.8" fill="#a2559c"></circle><circle id="1987" cx="655.9" cy="286.3" r="1.8" fill="#a2559c"></circle><circle id="1988" cx="658.6" cy="290.8" r="1.8" fill="#a2559c"></circle><circle id="1989" cx="661.4" cy="278.7" r="1.8" fill="#a2559c"></circle><circle id="1990" cx="664.1" cy="279" r="1.8" fill="#a2559c"></circle><circle id="1991" cx="666.8" cy="280.6" r="1.8" fill="#a2559c"></circle><circle id="1992" cx="669.5" cy="283" r="1.8" fill="#a2559c"></circle><circle id="1993" cx="672.3" cy="280" r="1.8" fill="#a2559c"></circle><circle id="1994" cx="675" cy="290" r="1.8" fill="#a2559c"></circle><circle id="1995" cx="677.7" cy="274.5" r="1.8" fill="#a2559c"></circle><circle id="1996" cx="680.5" cy="274.4" r="1.8" fill="#a2559c"></circle><circle id="1997" cx="683.2" cy="272.6" r="1.8" fill="#a2559c"></circle><circle id="1998" cx="685.9" cy="276.6" r="1.8" fill="#a2559c"></circle><circle id="1999" cx="688.6" cy="268.1" r="1.8" fill="#a2559c"></circle><circle id="2000" cx="691.4" cy="262.5" r="1.8" fill="#a2559c"></circle><circle id="2001" cx="694.1" cy="259.9" r="1.8" fill="#a2559c"></circle><circle id="2002" cx="696.8" cy="256.2" r="1.8" fill="#a2559c"></circle><circle id="2003" cx="699.6" cy="252.1" r="1.8" fill="#a2559c"></circle><circle id="2004" cx="702.3" cy="247.5" r="1.8" fill="#a2559c"></circle><circle id="2005" cx="705" cy="242" r="1.8" fill="#a2559c"></circle><circle id="2006" cx="707.8" cy="235.5" r="1.8" fill="#a2559c"></circle><circle id="2007" cx="710.5" cy="229.7" r="1.8" fill="#a2559c"></circle><circle id="2008" cx="713.2" cy="224.1" r="1.8" fill="#a2559c"></circle><circle id="2009" cx="715.9" cy="217.3" r="1.8" fill="#a2559c"></circle><circle id="2010" cx="718.7" cy="211.5" r="1.8" fill="#a2559c"></circle><circle id="2011" cx="721.4" cy="205.3" r="1.8" fill="#a2559c"></circle><circle id="2012" cx="724.1" cy="199.9" r="1.8" fill="#a2559c"></circle><circle id="2013" cx="726.9" cy="195.2" r="1.8" fill="#a2559c"></circle><circle id="2014" cx="729.6" cy="190.8" r="1.8" fill="#a2559c"></circle><circle id="2015" cx="732.3" cy="187.1" r="1.8" fill="#a2559c"></circle><circle id="2016" cx="735.1" cy="182.6" r="1.8" fill="#a2559c"></circle><circle id="2017" cx="737.8" cy="178.8" r="1.8" fill="#a2559c"></circle><circle id="2018" cx="740.5" cy="175.3" r="1.8" fill="#a2559c"></circle><circle id="2019" cx="743.2" cy="172" r="1.8" fill="#a2559c"></circle><circle id="2020" cx="746" cy="176.4" r="1.8" fill="#a2559c"></circle><circle id="2021" cx="748.7" cy="181.9" r="1.8" fill="#a2559c"></circle></g></g></g><g id="footer" class="SourcesFooter" style="fill:#5b5b5b"><g id="sources" class="markdown-text-wrap"><text x="16.0" y="580.9" style="font-size:13.5px;line-height:1.2"><tspan x="16" y="580.9"><tspan style="font-weight:700">Data source:</tspan> UN WPP (2022); HMD (2023); Zijdeman et al. (2015); Riley (2005)</tspan></text></g><text id="origin-url" font-size="13.50" x="567.2" y="580.9"><tspan x="567.24" y="580.895"><a target="_blank" style="fill: #5b5b5b;" href="https://ourworldindata.org/life-expectancy">OurWorldinData.org/life-expectancy</a> | <a target="_blank" style="fill: #5b5b5b;" href="https://creativecommons.org/licenses/by/4.0/">CC BY</a></tspan></text></g></svg>