<svg xmlns="http://www.w3.org/2000/svg" version="1.1" style="font-family:Lato, &#x27;Helvetica Neue&#x27;, Helvetica, Arial, &#x27;Liberation Sans&#x27;, sans-serif;font-size:18px;background-color:#ffffff;text-rendering:geometricPrecision;-webkit-font-smoothing:antialiased" width="850" height="600" viewBox="0 0 850 600"><defs><style>@import url(https://ourworldindata.org/fonts.css)</style></defs><defs><pattern id="noDataPattern" patternUnits="userSpaceOnUse" width="4" height="4" patternTransform="rotate(-45 2 2)"><path d="M -1,2 l 6,0" stroke="#ccc" stroke-width="0.7"></path></pattern></defs><rect class="background-fill" fill="#ffffff" width="850" height="600"></rect><g id="header" class="HeaderView"><g id="logo" transform="translate(769, 16) scale(1)"><svg className="owidLogo" xmlns="http://www.w3.org/2000/svg" width="65" height="36" viewBox="0 0 65 36"  fill="none"><path fill="#002147" d="M0 0h64.8v36H0z"/><path fill="#CE261E" d="M0 33.3h64.8V36H0z"/><path fill="#fff" d="M13.796 10.575c0 .636-.106 1.226-.318 1.77a4.193 4.193 0 0 1-.894 1.404 4.084 4.084 0 0 1-1.386.93c-.54.22-1.138.33-1.794.33-.656 0-1.256-.11-1.8-.33a4.149 4.149 0 0 1-1.392-.93 4.193 4.193 0 0 1-.894-1.404A4.833 4.833 0 0 1 5 10.575c0-.636.106-1.224.318-1.764a4.18 4.18 0 0 1 .894-1.41 4.076 4.076 0 0 1 1.392-.924 4.684 4.684 0 0 1 1.8-.336c.656 0 1.254.112 1.794.336.54.224 1.002.534 1.386.93.384.392.682.86.894 1.404.212.54.318 1.128.318 1.764Zm-1.656 0c0-.476-.064-.902-.192-1.278a2.671 2.671 0 0 0-.54-.966 2.332 2.332 0 0 0-.864-.606 2.94 2.94 0 0 0-1.14-.21c-.424 0-.806.07-1.146.21-.34.14-.63.342-.87.606a2.742 2.742 0 0 0-.546.966 3.955 3.955 0 0 0-.192 1.278c0 .476.064.904.192 1.284.128.376.31.696.546.96.24.26.53.46.87.6.34.14.722.21 1.146.21.424 0 .804-.07 1.14-.21.34-.14.628-.34.864-.6.236-.264.416-.584.54-.96a4.01 4.01 0 0 0 .192-1.284ZM16.104 8.757v3.912c0 .376.086.668.258.876.176.204.438.306.786.306.256 0 .496-.056.72-.168a2.58 2.58 0 0 0 .636-.474V8.757h1.482v6.156h-.906c-.192 0-.318-.09-.378-.27l-.102-.492a4.65 4.65 0 0 1-.396.354 2.577 2.577 0 0 1-.438.27 2.35 2.35 0 0 1-.498.168 2.345 2.345 0 0 1-.57.066c-.336 0-.634-.056-.894-.168a1.821 1.821 0 0 1-.648-.486 2.157 2.157 0 0 1-.402-.738 3.233 3.233 0 0 1-.132-.948V8.757h1.482ZM21.328 14.913V8.757h.87c.152 0 .258.028.318.084.06.056.1.152.12.288l.09.744c.22-.38.478-.68.774-.9.296-.22.628-.33.996-.33.304 0 .556.07.756.21l-.192 1.11c-.012.072-.038.124-.078.156a.278.278 0 0 1-.162.042 1.01 1.01 0 0 1-.246-.042 1.646 1.646 0 0 0-.414-.042c-.308 0-.572.086-.792.258-.22.168-.406.416-.558.744v3.834h-1.482ZM27.347 6.237h1.356a.57.57 0 0 1 .348.102c.096.064.16.152.192.264l1.476 5.19c.036.128.068.268.096.42.032.148.062.306.09.474a5.968 5.968 0 0 1 .228-.894l1.704-5.19a.575.575 0 0 1 .186-.252.543.543 0 0 1 .348-.114h.474a.57.57 0 0 1 .348.102.497.497 0 0 1 .192.264l1.692 5.19c.088.256.164.54.228.852.028-.156.056-.306.084-.45.032-.144.064-.278.096-.402l1.476-5.19c.028-.1.09-.186.186-.258a.563.563 0 0 1 .348-.108h1.266l-2.694 8.676h-1.458l-1.896-5.928-.078-.246a9.504 9.504 0 0 1-.072-.282c-.024.1-.05.194-.078.282-.024.088-.048.17-.072.246l-1.914 5.928H30.04l-2.694-8.676ZM42.771 8.661c.46 0 .876.074 1.248.222.376.148.696.358.96.63s.468.604.612.996c.144.392.216.83.216 1.314 0 .488-.072.928-.216 1.32a2.85 2.85 0 0 1-.612 1.002 2.653 2.653 0 0 1-.96.636 3.35 3.35 0 0 1-1.248.222c-.46 0-.878-.074-1.254-.222a2.712 2.712 0 0 1-.966-.636 2.922 2.922 0 0 1-.618-1.002 3.807 3.807 0 0 1-.216-1.32c0-.484.072-.922.216-1.314.148-.392.354-.724.618-.996.268-.272.59-.482.966-.63a3.397 3.397 0 0 1 1.254-.222Zm0 5.202c.512 0 .89-.172 1.134-.516.248-.344.372-.848.372-1.512s-.124-1.17-.372-1.518c-.244-.348-.622-.522-1.134-.522-.52 0-.904.176-1.152.528-.248.348-.372.852-.372 1.512s.124 1.164.372 1.512c.248.344.632.516 1.152.516ZM46.723 14.913V8.757h.87c.152 0 .258.028.318.084.06.056.1.152.12.288l.09.744c.22-.38.478-.68.774-.9.296-.22.628-.33.996-.33.304 0 .556.07.756.21l-.192 1.11c-.012.072-.038.124-.078.156a.278.278 0 0 1-.162.042 1.01 1.01 0 0 1-.246-.042 1.646 1.646 0 0 0-.414-.042c-.308 0-.572.086-.792.258-.22.168-.406.416-.558.744v3.834h-1.482ZM52.96 5.997v8.916h-1.482V5.997h1.482ZM58.732 14.913c-.192 0-.318-.09-.378-.27l-.12-.594a3.68 3.68 0 0 1-.402.39c-.14.116-.292.216-.456.3-.16.084-.334.148-.522.192a2.372 2.372 0 0 1-.6.072c-.336 0-.644-.07-.924-.21a2.098 2.098 0 0 1-.726-.606 3.033 3.033 0 0 1-.468-.99 5.072 5.072 0 0 1-.162-1.344c0-.456.062-.88.186-1.272s.302-.732.534-1.02c.232-.288.51-.512.834-.672a2.384 2.384 0 0 1 1.092-.246 2.103 2.103 0 0 1 1.536.606V5.997h1.482v8.916h-.906Zm-1.974-1.086c.308 0 .57-.064.786-.192.216-.128.42-.31.612-.546v-2.76a1.452 1.452 0 0 0-.552-.432 1.597 1.597 0 0 0-.636-.126c-.224 0-.428.042-.612.126a1.21 1.21 0 0 0-.462.384c-.124.168-.22.384-.288.648-.068.26-.102.568-.102.924 0 .36.028.666.084.918.06.248.144.452.252.612.108.156.24.27.396.342.156.068.33.102.522.102ZM16.331 20.757v6.156H14.85v-6.156h1.481Zm.223-1.794a.844.844 0 0 1-.078.36.963.963 0 0 1-.21.294.995.995 0 0 1-.3.204.963.963 0 0 1-.372.072.948.948 0 0 1-.367-.072 1.018 1.018 0 0 1-.498-.498.963.963 0 0 1 0-.732.995.995 0 0 1 .205-.3.929.929 0 0 1 .293-.198.899.899 0 0 1 .738 0 .912.912 0 0 1 .3.198.943.943 0 0 1 .288.672ZM17.771 26.913v-6.156h.906c.192 0 .318.09.378.27l.102.486a2.934 2.934 0 0 1 .828-.618c.156-.076.322-.134.498-.174.176-.04.368-.06.576-.06.336 0 .634.058.894.174.26.112.476.272.648.48.176.204.308.45.396.738.092.284.138.598.138.942v3.918h-1.482v-3.918c0-.376-.088-.666-.264-.87-.172-.208-.432-.312-.78-.312-.256 0-.496.058-.72.174a2.58 2.58 0 0 0-.636.474v4.452h-1.482ZM34.22 22.575c0 .636-.106 1.22-.318 1.752-.212.532-.51.99-.894 1.374a4 4 0 0 1-1.386.894 4.87 4.87 0 0 1-1.794.318h-3.312v-8.676h3.312a4.79 4.79 0 0 1 1.794.324 4 4 0 0 1 1.386.894c.384.38.682.836.894 1.368.212.532.318 1.116.318 1.752Zm-1.65 0c0-.476-.064-.902-.192-1.278a2.68 2.68 0 0 0-.546-.96 2.332 2.332 0 0 0-.864-.606 2.94 2.94 0 0 0-1.14-.21h-1.686v6.108h1.686c.424 0 .804-.07 1.14-.21.34-.14.628-.34.864-.6a2.75 2.75 0 0 0 .546-.96 4.01 4.01 0 0 0 .192-1.284ZM39.98 26.913h-.665c-.14 0-.25-.02-.33-.06-.08-.044-.14-.13-.18-.258l-.132-.438c-.156.14-.31.264-.462.372a2.804 2.804 0 0 1-.462.264c-.16.072-.33.126-.51.162-.18.036-.38.054-.6.054-.26 0-.5-.034-.72-.102a1.618 1.618 0 0 1-.57-.318 1.448 1.448 0 0 1-.366-.522 1.852 1.852 0 0 1-.132-.726c0-.232.06-.46.18-.684.124-.228.328-.432.612-.612.284-.184.662-.336 1.134-.456.472-.12 1.058-.188 1.758-.204v-.36c0-.412-.088-.716-.264-.912-.172-.2-.424-.3-.756-.3a1.837 1.837 0 0 0-1.02.276c-.116.068-.224.13-.324.186a.664.664 0 0 1-.33.084.429.429 0 0 1-.258-.078.614.614 0 0 1-.174-.192l-.27-.474c.708-.648 1.562-.972 2.562-.972.36 0 .68.06.96.18.284.116.524.28.72.492.196.208.344.458.444.75.104.292.156.612.156.96v3.888Zm-2.88-.924c.153 0 .293-.014.42-.042.129-.028.249-.07.36-.126.117-.056.227-.124.33-.204.109-.084.217-.182.325-.294v-1.038c-.432.02-.794.058-1.086.114-.288.052-.52.12-.696.204a.923.923 0 0 0-.378.294.664.664 0 0 0-.108.366c0 .26.076.446.228.558.156.112.358.168.606.168ZM43.22 27.01c-.532 0-.942-.15-1.23-.45-.288-.305-.432-.723-.432-1.255v-3.438h-.624a.31.31 0 0 1-.21-.078c-.056-.052-.084-.13-.084-.234v-.588l.99-.162.312-1.68a.302.302 0 0 1 .108-.186.365.365 0 0 1 .222-.066h.768v1.938h1.62v1.056h-1.62v3.336c0 .192.048.342.144.45a.488.488 0 0 0 .384.162c.092 0 .168-.01.228-.03.064-.024.118-.048.162-.072.048-.024.09-.046.126-.066a.194.194 0 0 1 .108-.036.16.16 0 0 1 .108.036c.028.02.058.052.09.096l.444.72c-.216.18-.464.316-.744.408a2.77 2.77 0 0 1-.87.138ZM50.423 26.913h-.666c-.14 0-.25-.02-.33-.06-.08-.044-.14-.13-.18-.258l-.132-.438c-.156.14-.31.264-.462.372a2.804 2.804 0 0 1-.462.264c-.16.072-.33.126-.51.162-.18.036-.38.054-.6.054-.26 0-.5-.034-.72-.102a1.618 1.618 0 0 1-.57-.318 1.448 1.448 0 0 1-.366-.522 1.852 1.852 0 0 1-.132-.726c0-.232.06-.46.18-.684.124-.228.328-.432.612-.612.284-.184.662-.336 1.134-.456.472-.12 1.058-.188 1.758-.204v-.36c0-.412-.088-.716-.264-.912-.172-.2-.424-.3-.756-.3a1.837 1.837 0 0 0-1.02.276c-.116.068-.224.13-.324.186a.664.664 0 0 1-.33.084.429.429 0 0 1-.258-.078.614.614 0 0 1-.174-.192l-.27-.474c.708-.648 1.562-.972 2.562-.972.36 0 .68.06.96.18.284.116.524.28.72.492.196.208.344.458.444.75.104.292.156.612.156.96v3.888Zm-2.88-.924c.152 0 .292-.014.42-.042.128-.028.248-.07.36-.126.116-.056.226-.124.33-.204.108-.084.216-.182.324-.294v-1.038c-.432.02-.794.058-1.086.114-.288.052-.52.12-.696.204a.923.923 0 0 0-.378.294.664.664 0 0 0-.108.366c0 .26.076.446.228.558.156.112.358.168.606.168Z"/></svg></g><a id="title" href="https://ourworldindata.org/grapher/people-living-in-democracies-autocracies?facet=metric&amp;uniformYAxis=0" style="font-family:&#x27;Playfair Display&#x27;, Georgia, &#x27;Times New Roman&#x27;, &#x27;Liberation Serif&#x27;, serif" target="_blank" rel="noopener"><text font-size="24.00" font-weight="600" x="16.0" y="39.3" fill="#5b5b5b"><tspan x="16" y="39.28">People living in democracies and autocracies, World</tspan></text></a><g id="subtitle" class="markdown-text-wrap"><text x="16.0" y="62.4" style="font-size:14px;line-height:1.2" fill="#5b5b5b"><tspan x="16" y="62.4">Political regimes are based on the <tspan class="dod-span" data-id="regimes-of-the-world">classification</tspan> by Lührmann et al. (2018) and the estimates by <tspan class="dod-span" data-id="v-dem">V-Dem</tspan>’s experts.</tspan></text></g></g><g id="chart-area" style="pointer-events:none"><text x="48.5315625" y="92.56875" fill="#5b5b5b" font-size="14.625" style="font-weight:700">No regime data<title>No regime data</title></text><g class="StackedArea"><defs><clipPath id="boundsClip-1"><rect x="48.5315625" y="99.88125" width="401" height="252"></rect></clipPath></defs><rect x="16" y="99.88125" width="401" height="126" fill-opacity="0"></rect><g id="horizontal-axis" class="HorizontalAxis"><g id="tick-marks"><line id="1789" x1="48.5" y1="207.4125" x2="48.5" y2="212.9125" stroke="#999" stroke-width="1"></line><line id="2023" x1="417" y1="207.4125" x2="417" y2="212.9125" stroke="#999" stroke-width="1"></line><line id="1850" x1="144.6" y1="207.4125" x2="144.6" y2="212.9125" stroke="#999" stroke-width="1"></line><line id="1900" x1="223.3" y1="207.4125" x2="223.3" y2="212.9125" stroke="#999" stroke-width="1"></line><line id="1950" x1="302.1" y1="207.4125" x2="302.1" y2="212.9125" stroke="#999" stroke-width="1"></line></g><g id="tick-labels"><text x="48.5315625" y="223.88125" fill="#5b5b5b" text-anchor="start" font-size="10.96875">1789</text><text x="417" y="223.88125" fill="#5b5b5b" text-anchor="end" font-size="10.96875">2023</text><text x="144.6" y="223.88125" fill="#5b5b5b" text-anchor="middle" font-size="10.96875">1850</text><text x="223.3" y="223.88125" fill="#5b5b5b" text-anchor="middle" font-size="10.96875">1900</text><text x="302.1" y="223.88125" fill="#5b5b5b" text-anchor="middle" font-size="10.96875">1950</text></g></g><g id="vertical-axis" class="VerticalAxis"><g id="tick-labels"><text x="43.53" y="207.9" dy=".32em" text-anchor="end" fill="#5b5b5b" font-size="10.96875">0</text><text x="43.53" y="183.3" dy=".32em" text-anchor="end" fill="#5b5b5b" font-size="10.96875">50M</text><text x="43.53" y="158.7" dy=".32em" text-anchor="end" fill="#5b5b5b" font-size="10.96875">100M</text><text x="43.53" y="134.1" dy=".32em" text-anchor="end" fill="#5b5b5b" font-size="10.96875">150M</text><text x="43.53" y="109.5" dy=".32em" text-anchor="end" fill="#5b5b5b" font-size="10.96875">200M</text></g></g><g id="horizontal-grid-lines" class="AxisGridLines horizontalLines"><line id="0" x1="48.53" y1="207.9" x2="417.00" y2="207.9" stroke="#999" stroke-width="1"></line><line id="50M" x1="48.53" y1="183.3" x2="417.00" y2="183.3" stroke="#ddd" stroke-width="1" stroke-dasharray="2,1"></line><line id="100M" x1="48.53" y1="158.7" x2="417.00" y2="158.7" stroke="#ddd" stroke-width="1" stroke-dasharray="2,1"></line><line id="150M" x1="48.53" y1="134.1" x2="417.00" y2="134.1" stroke="#ddd" stroke-width="1" stroke-dasharray="2,1"></line><line id="200M" x1="48.53" y1="109.5" x2="417.00" y2="109.5" stroke="#ddd" stroke-width="1" stroke-dasharray="2,1"></line></g><g clip-path="url(#boundsClip-1)"><g class="Areas" id="stacked-areas"><g id="areas"><path id="World" class="World-area" stroke-linecap="round" d="M48.5 123.4L50.1 123.4L51.7 123.6L53.3 123.8L54.8 124L56.4 124.2L58 125.8L59.6 121.6L61.1 121.8L62.7 122.9L64.3 123.1L65.9 131.2L67.4 131.6L69 133.6L70.6 133.5L72.2 132.5L73.7 132.4L75.3 132.3L76.9 132.6L78.4 132.5L80 136.7L81.6 137L83.2 137L84.7 136.9L86.3 137.2L87.9 138.1L89.5 146.6L91 146.5L92.6 147.2L94.2 147L95.8 146.8L97.3 146.2L98.9 149.3L100.5 148.6L102.1 148.4L103.6 145.5L105.2 145.6L106.8 147.5L108.4 147L109.9 146.5L111.5 146L113.1 146.2L114.7 149.1L116.2 148.6L117.8 148.1L119.4 148.6L121 148.1L122.5 147.6L124.1 147.1L125.7 146.8L127.3 153.5L128.8 153L130.4 153.3L132 152.8L133.6 152.3L135.1 151.8L136.7 151.2L138.3 150.7L139.9 150.1L141.4 149.5L143 148.6L144.6 148.1L146.2 147.7L147.7 147.7L149.3 147.5L150.9 147.1L152.5 146.8L154 146.1L155.6 146.2L157.2 145.8L158.8 145.5L160.3 145.1L161.9 144.7L163.5 144.3L165.1 144.7L166.6 144.3L168.2 143.4L169.8 143.4L171.4 142.8L172.9 134.4L174.5 134.3L176.1 133.7L177.7 133.1L179.2 132.6L180.8 132L182.4 131.4L184 130.2L185.5 130.6L187.1 130L188.7 129.4L190.3 127.9L191.8 127.4L193.4 126.8L195 126.2L196.5 125.5L198.1 124.9L199.7 120.9L201.3 118.7L202.8 112.9L204.4 111.5L206 111.5L207.6 110.8L209.1 110.2L210.7 110.7L212.3 110.3L213.9 109.7L215.4 107.9L217 107.7L218.6 105.9L220.2 106.6L221.7 106L223.3 150.3L224.9 149.8L226.5 156.8L228 156.9L229.6 157.4L231.2 157.1L232.8 156.7L234.3 156.4L235.9 156L237.5 155.7L239.1 155.6L240.6 153.9L242.2 155.5L243.8 155.3L245.4 166.4L246.9 168.5L248.5 170.2L250.1 170.1L251.7 179.2L253.2 182L254.8 176.5L256.4 183.4L258 185.2L259.5 184.9L261.1 177.2L262.7 184.4L264.3 182L265.8 183.9L267.4 183.7L269 183.4L270.6 183.1L272.1 180.5L273.7 176.6L275.3 176.3L276.9 176.5L278.4 180.6L280 180.3L281.6 180L283.2 179.7L284.7 160.2L286.3 161L287.9 162.5L289.5 162L291 161.9L292.6 175.2L294.2 149.8L295.8 167.3L297.3 167.7L298.9 169.8L300.5 204.2L302.1 204.2L303.6 204.7L305.2 204.6L306.8 204.5L308.3 204.5L309.9 204.4L311.5 204.4L313.1 204.3L314.6 204.2L316.2 204.2L317.8 204.1L319.4 206.6L320.9 206.5L322.5 206.5L324.1 206.5L325.7 206.5L327.2 206.4L328.8 206.4L330.4 205L332 206.4L333.5 206.3L335.1 203.3L336.7 206.3L338.3 204.9L339.8 206.2L341.4 202.4L343 206.1L344.6 184.1L346.1 166.7L347.7 206.2L349.3 206.1L350.9 184L352.4 195L354 194.6L355.6 203.6L357.2 205.9L358.7 205.8L360.3 205.8L361.9 205.7L363.5 205.7L365 204.5L366.6 200.9L368.2 205.5L369.8 183.3L371.3 184.9L372.9 169.9L374.5 182.8L376.1 205.1L377.6 205.4L379.2 206.4L380.8 206.4L382.4 206.3L383.9 206L385.5 206.2L387.1 194.6L388.7 206.2L390.2 206.1L391.8 206.1L393.4 206L395 206L396.5 200.9L398.1 205.9L399.7 205.9L401.3 205.8L402.8 156.4L404.4 205.7L406 205.7L407.6 205.6L409.1 205.5L410.7 205.5L412.3 205.4L413.9 205.4L415.4 205.3L417 205.3L417 207.9125L48.5 207.9125" fill="#4c6a9c" fill-opacity="0.8"></path></g><g id="borders"><path id="World" class="World-border" stroke-linecap="round" d="M48.5 123.4L50.1 123.4L51.7 123.6L53.3 123.8L54.8 124L56.4 124.2L58 125.8L59.6 121.6L61.1 121.8L62.7 122.9L64.3 123.1L65.9 131.2L67.4 131.6L69 133.6L70.6 133.5L72.2 132.5L73.7 132.4L75.3 132.3L76.9 132.6L78.4 132.5L80 136.7L81.6 137L83.2 137L84.7 136.9L86.3 137.2L87.9 138.1L89.5 146.6L91 146.5L92.6 147.2L94.2 147L95.8 146.8L97.3 146.2L98.9 149.3L100.5 148.6L102.1 148.4L103.6 145.5L105.2 145.6L106.8 147.5L108.4 147L109.9 146.5L111.5 146L113.1 146.2L114.7 149.1L116.2 148.6L117.8 148.1L119.4 148.6L121 148.1L122.5 147.6L124.1 147.1L125.7 146.8L127.3 153.5L128.8 153L130.4 153.3L132 152.8L133.6 152.3L135.1 151.8L136.7 151.2L138.3 150.7L139.9 150.1L141.4 149.5L143 148.6L144.6 148.1L146.2 147.7L147.7 147.7L149.3 147.5L150.9 147.1L152.5 146.8L154 146.1L155.6 146.2L157.2 145.8L158.8 145.5L160.3 145.1L161.9 144.7L163.5 144.3L165.1 144.7L166.6 144.3L168.2 143.4L169.8 143.4L171.4 142.8L172.9 134.4L174.5 134.3L176.1 133.7L177.7 133.1L179.2 132.6L180.8 132L182.4 131.4L184 130.2L185.5 130.6L187.1 130L188.7 129.4L190.3 127.9L191.8 127.4L193.4 126.8L195 126.2L196.5 125.5L198.1 124.9L199.7 120.9L201.3 118.7L202.8 112.9L204.4 111.5L206 111.5L207.6 110.8L209.1 110.2L210.7 110.7L212.3 110.3L213.9 109.7L215.4 107.9L217 107.7L218.6 105.9L220.2 106.6L221.7 106L223.3 150.3L224.9 149.8L226.5 156.8L228 156.9L229.6 157.4L231.2 157.1L232.8 156.7L234.3 156.4L235.9 156L237.5 155.7L239.1 155.6L240.6 153.9L242.2 155.5L243.8 155.3L245.4 166.4L246.9 168.5L248.5 170.2L250.1 170.1L251.7 179.2L253.2 182L254.8 176.5L256.4 183.4L258 185.2L259.5 184.9L261.1 177.2L262.7 184.4L264.3 182L265.8 183.9L267.4 183.7L269 183.4L270.6 183.1L272.1 180.5L273.7 176.6L275.3 176.3L276.9 176.5L278.4 180.6L280 180.3L281.6 180L283.2 179.7L284.7 160.2L286.3 161L287.9 162.5L289.5 162L291 161.9L292.6 175.2L294.2 149.8L295.8 167.3L297.3 167.7L298.9 169.8L300.5 204.2L302.1 204.2L303.6 204.7L305.2 204.6L306.8 204.5L308.3 204.5L309.9 204.4L311.5 204.4L313.1 204.3L314.6 204.2L316.2 204.2L317.8 204.1L319.4 206.6L320.9 206.5L322.5 206.5L324.1 206.5L325.7 206.5L327.2 206.4L328.8 206.4L330.4 205L332 206.4L333.5 206.3L335.1 203.3L336.7 206.3L338.3 204.9L339.8 206.2L341.4 202.4L343 206.1L344.6 184.1L346.1 166.7L347.7 206.2L349.3 206.1L350.9 184L352.4 195L354 194.6L355.6 203.6L357.2 205.9L358.7 205.8L360.3 205.8L361.9 205.7L363.5 205.7L365 204.5L366.6 200.9L368.2 205.5L369.8 183.3L371.3 184.9L372.9 169.9L374.5 182.8L376.1 205.1L377.6 205.4L379.2 206.4L380.8 206.4L382.4 206.3L383.9 206L385.5 206.2L387.1 194.6L388.7 206.2L390.2 206.1L391.8 206.1L393.4 206L395 206L396.5 200.9L398.1 205.9L399.7 205.9L401.3 205.8L402.8 156.4L404.4 205.7L406 205.7L407.6 205.6L409.1 205.5L410.7 205.5L412.3 205.4L413.9 205.4L415.4 205.3L417 205.3" stroke="rgb(64, 89, 131)" stroke-opacity="0.7" stroke-width="0.5" fill="none"></path></g></g></g></g><text x="464.5315625" y="92.56875" fill="#5b5b5b" font-size="14.625" style="font-weight:700">People living in closed autocracies<title>People living in closed autocracies</title></text><g class="StackedArea"><defs><clipPath id="boundsClip-2"><rect x="464.5315625" y="99.88125" width="401" height="252"></rect></clipPath></defs><rect x="432" y="99.88125" width="401" height="126" fill-opacity="0"></rect><g id="horizontal-axis" class="HorizontalAxis"><g id="tick-marks"><line id="1789" x1="464.5" y1="207.4125" x2="464.5" y2="212.9125" stroke="#999" stroke-width="1"></line><line id="2023" x1="833" y1="207.4125" x2="833" y2="212.9125" stroke="#999" stroke-width="1"></line><line id="1850" x1="560.6" y1="207.4125" x2="560.6" y2="212.9125" stroke="#999" stroke-width="1"></line><line id="1900" x1="639.3" y1="207.4125" x2="639.3" y2="212.9125" stroke="#999" stroke-width="1"></line><line id="1950" x1="718.1" y1="207.4125" x2="718.1" y2="212.9125" stroke="#999" stroke-width="1"></line></g><g id="tick-labels"><text x="464.5315625" y="223.88125" fill="#5b5b5b" text-anchor="start" font-size="10.96875">1789</text><text x="833" y="223.88125" fill="#5b5b5b" text-anchor="end" font-size="10.96875">2023</text><text x="560.6" y="223.88125" fill="#5b5b5b" text-anchor="middle" font-size="10.96875">1850</text><text x="639.3" y="223.88125" fill="#5b5b5b" text-anchor="middle" font-size="10.96875">1900</text><text x="718.1" y="223.88125" fill="#5b5b5b" text-anchor="middle" font-size="10.96875">1950</text></g></g><g id="vertical-axis" class="VerticalAxis"><g id="tick-labels"><text x="459.53" y="207.9" dy=".32em" text-anchor="end" fill="#5b5b5b" font-size="10.96875">0</text><text x="459.53" y="185.5" dy=".32em" text-anchor="end" fill="#5b5b5b" font-size="10.96875">500M</text><text x="459.53" y="163" dy=".32em" text-anchor="end" fill="#5b5b5b" font-size="10.96875">1B</text><text x="459.53" y="140.6" dy=".32em" text-anchor="end" fill="#5b5b5b" font-size="10.96875">1.5B</text><text x="459.53" y="118.2" dy=".32em" text-anchor="end" fill="#5b5b5b" font-size="10.96875">2B</text></g></g><g id="horizontal-grid-lines" class="AxisGridLines horizontalLines"><line id="0" x1="464.53" y1="207.9" x2="833.00" y2="207.9" stroke="#999" stroke-width="1"></line><line id="500M" x1="464.53" y1="185.5" x2="833.00" y2="185.5" stroke="#ddd" stroke-width="1" stroke-dasharray="2,1"></line><line id="1B" x1="464.53" y1="163" x2="833.00" y2="163" stroke="#ddd" stroke-width="1" stroke-dasharray="2,1"></line><line id="1.5B" x1="464.53" y1="140.6" x2="833.00" y2="140.6" stroke="#ddd" stroke-width="1" stroke-dasharray="2,1"></line><line id="2B" x1="464.53" y1="118.2" x2="833.00" y2="118.2" stroke="#ddd" stroke-width="1" stroke-dasharray="2,1"></line></g><g clip-path="url(#boundsClip-2)"><g class="Areas" id="stacked-areas"><g id="areas"><path id="World" class="World-area" stroke-linecap="round" d="M464.5 173.8L466.1 174.5L467.7 174.3L469.3 175.2L470.8 175L472.4 174.8L474 174.4L475.6 175L477.1 174.8L478.7 174.5L480.3 172.7L481.9 171.7L483.4 171.6L485 171.2L486.6 171.1L488.2 171L489.7 170.9L491.3 170.8L492.9 170.6L494.4 170.4L496 169.9L497.6 169.7L499.2 169.5L500.7 169.2L502.3 169L503.9 168.6L505.5 167.6L507 167.3L508.6 167L510.2 166.7L511.8 166.5L513.3 166.3L514.9 165.8L516.5 165.6L518.1 165.9L519.6 165.3L521.2 165L522.8 164.5L524.4 164.2L525.9 163.9L527.5 163.7L529.1 163.4L530.7 163.2L532.2 163.1L533.8 162.9L535.4 162.7L537 162.6L538.5 162.4L540.1 162.3L541.7 162.1L543.3 161.3L544.8 160.8L546.4 160.4L548 160.7L549.6 160.5L551.1 160.3L552.7 160.2L554.3 159.7L555.9 159.8L557.4 161.9L559 161.4L560.6 161.3L562.2 159.6L563.7 159.6L565.3 159.6L566.9 159.6L568.5 159.6L570 159.7L571.6 159.7L573.2 159.3L574.8 159.3L576.3 159.2L577.9 159L579.5 159L581.1 158.9L582.6 158.8L584.2 160.2L585.8 159.9L587.4 159.8L588.9 160.6L590.5 160.7L592.1 162.4L593.7 162.2L595.2 162.2L596.8 162.6L598.4 161.8L600 161.7L601.5 161.5L603.1 161.1L604.7 161.1L606.3 160.8L607.8 160.8L609.4 160.5L611 160.5L612.5 160L614.1 159.8L615.7 159.5L617.3 159.6L618.8 159.5L620.4 159.2L622 158.9L623.6 158.6L625.1 158.1L626.7 158.1L628.3 157.7L629.9 158.2L631.4 158L633 156.9L634.6 156.7L636.2 157.2L637.7 156.8L639.3 152.4L640.9 152.2L642.5 151.2L644 150.7L645.6 150.2L647.2 149.8L648.8 149.1L650.3 148.6L651.9 148.2L653.5 147.8L655.1 147.7L656.6 147.7L658.2 147.3L659.8 147L661.4 145.3L662.9 144.8L664.5 144L666.1 148.5L667.7 143.5L669.2 146.5L670.8 147.1L672.4 147L674 146.9L675.5 145.9L677.1 143.6L678.7 143L680.3 142.4L681.8 141.5L683.4 141L685 140.3L686.6 138.1L688.1 138.9L689.7 138.8L691.3 138.1L692.9 133.8L694.4 132.4L696 131.8L697.6 131.1L699.2 130.4L700.7 128.6L702.3 125.2L703.9 124.3L705.5 122.9L707 122.4L708.6 119.9L710.2 127.6L711.8 147L713.3 147.1L714.9 130.4L716.5 128.1L718.1 129.3L719.6 144.8L721.2 145.9L722.8 144L724.3 142.9L725.9 145.8L727.5 144.4L729.1 145.7L730.6 144.6L732.2 143.8L733.8 143.1L735.4 137.8L736.9 134.8L738.5 135.5L740.1 133.4L741.7 130.6L743.2 129.2L744.8 125.9L746.4 124.2L748 121.6L749.5 119L751.1 122.2L752.7 119L754.3 121.2L755.8 120.3L757.4 121.2L759 118.3L760.6 118.9L762.1 117.3L763.7 120.3L765.3 121.9L766.9 116L768.4 110.2L770 110L771.6 105.9L773.2 109.8L774.7 116.1L776.3 114L777.9 114.3L779.5 114.4L781 119.4L782.6 127L784.2 126L785.8 125.7L787.3 126.4L788.9 131.1L790.5 133.2L792.1 131.8L793.6 131L795.2 134.6L796.8 126.6L798.4 125.6L799.9 135.2L801.5 134.5L803.1 134.9L804.7 135.5L806.2 138L807.8 128L809.4 137.5L811 136.1L812.5 136.2L814.1 134.2L815.7 137.9L817.3 132.1L818.8 132.2L820.4 131.6L822 125.6L823.6 126.4L825.1 126.2L826.7 125.2L828.3 122.5L829.9 116.1L831.4 108.9L833 110.3L833 207.9125L464.5 207.9125" fill="#4c6a9c" fill-opacity="0.8"></path></g><g id="borders"><path id="World" class="World-border" stroke-linecap="round" d="M464.5 173.8L466.1 174.5L467.7 174.3L469.3 175.2L470.8 175L472.4 174.8L474 174.4L475.6 175L477.1 174.8L478.7 174.5L480.3 172.7L481.9 171.7L483.4 171.6L485 171.2L486.6 171.1L488.2 171L489.7 170.9L491.3 170.8L492.9 170.6L494.4 170.4L496 169.9L497.6 169.7L499.2 169.5L500.7 169.2L502.3 169L503.9 168.6L505.5 167.6L507 167.3L508.6 167L510.2 166.7L511.8 166.5L513.3 166.3L514.9 165.8L516.5 165.6L518.1 165.9L519.6 165.3L521.2 165L522.8 164.5L524.4 164.2L525.9 163.9L527.5 163.7L529.1 163.4L530.7 163.2L532.2 163.1L533.8 162.9L535.4 162.7L537 162.6L538.5 162.4L540.1 162.3L541.7 162.1L543.3 161.3L544.8 160.8L546.4 160.4L548 160.7L549.6 160.5L551.1 160.3L552.7 160.2L554.3 159.7L555.9 159.8L557.4 161.9L559 161.4L560.6 161.3L562.2 159.6L563.7 159.6L565.3 159.6L566.9 159.6L568.5 159.6L570 159.7L571.6 159.7L573.2 159.3L574.8 159.3L576.3 159.2L577.9 159L579.5 159L581.1 158.9L582.6 158.8L584.2 160.2L585.8 159.9L587.4 159.8L588.9 160.6L590.5 160.7L592.1 162.4L593.7 162.2L595.2 162.2L596.8 162.6L598.4 161.8L600 161.7L601.5 161.5L603.1 161.1L604.7 161.1L606.3 160.8L607.8 160.8L609.4 160.5L611 160.5L612.5 160L614.1 159.8L615.7 159.5L617.3 159.6L618.8 159.5L620.4 159.2L622 158.9L623.6 158.6L625.1 158.1L626.7 158.1L628.3 157.7L629.9 158.2L631.4 158L633 156.9L634.6 156.7L636.2 157.2L637.7 156.8L639.3 152.4L640.9 152.2L642.5 151.2L644 150.7L645.6 150.2L647.2 149.8L648.8 149.1L650.3 148.6L651.9 148.2L653.5 147.8L655.1 147.7L656.6 147.7L658.2 147.3L659.8 147L661.4 145.3L662.9 144.8L664.5 144L666.1 148.5L667.7 143.5L669.2 146.5L670.8 147.1L672.4 147L674 146.9L675.5 145.9L677.1 143.6L678.7 143L680.3 142.4L681.8 141.5L683.4 141L685 140.3L686.6 138.1L688.1 138.9L689.7 138.8L691.3 138.1L692.9 133.8L694.4 132.4L696 131.8L697.6 131.1L699.2 130.4L700.7 128.6L702.3 125.2L703.9 124.3L705.5 122.9L707 122.4L708.6 119.9L710.2 127.6L711.8 147L713.3 147.1L714.9 130.4L716.5 128.1L718.1 129.3L719.6 144.8L721.2 145.9L722.8 144L724.3 142.9L725.9 145.8L727.5 144.4L729.1 145.7L730.6 144.6L732.2 143.8L733.8 143.1L735.4 137.8L736.9 134.8L738.5 135.5L740.1 133.4L741.7 130.6L743.2 129.2L744.8 125.9L746.4 124.2L748 121.6L749.5 119L751.1 122.2L752.7 119L754.3 121.2L755.8 120.3L757.4 121.2L759 118.3L760.6 118.9L762.1 117.3L763.7 120.3L765.3 121.9L766.9 116L768.4 110.2L770 110L771.6 105.9L773.2 109.8L774.7 116.1L776.3 114L777.9 114.3L779.5 114.4L781 119.4L782.6 127L784.2 126L785.8 125.7L787.3 126.4L788.9 131.1L790.5 133.2L792.1 131.8L793.6 131L795.2 134.6L796.8 126.6L798.4 125.6L799.9 135.2L801.5 134.5L803.1 134.9L804.7 135.5L806.2 138L807.8 128L809.4 137.5L811 136.1L812.5 136.2L814.1 134.2L815.7 137.9L817.3 132.1L818.8 132.2L820.4 131.6L822 125.6L823.6 126.4L825.1 126.2L826.7 125.2L828.3 122.5L829.9 116.1L831.4 108.9L833 110.3" stroke="rgb(64, 89, 131)" stroke-opacity="0.7" stroke-width="0.5" fill="none"></path></g></g></g></g><text x="48.5315625" y="255.56875000000002" fill="#5b5b5b" font-size="14.625" style="font-weight:700">in electoral autocracies<title>in electoral autocracies</title></text><g class="StackedArea"><defs><clipPath id="boundsClip-3"><rect x="48.5315625" y="262.88125" width="401" height="252"></rect></clipPath></defs><rect x="16" y="262.88125" width="401" height="126" fill-opacity="0"></rect><g id="horizontal-axis" class="HorizontalAxis"><g id="tick-marks"><line id="1789" x1="48.5" y1="370.4125" x2="48.5" y2="375.9125" stroke="#999" stroke-width="1"></line><line id="2023" x1="417" y1="370.4125" x2="417" y2="375.9125" stroke="#999" stroke-width="1"></line><line id="1850" x1="144.6" y1="370.4125" x2="144.6" y2="375.9125" stroke="#999" stroke-width="1"></line><line id="1900" x1="223.3" y1="370.4125" x2="223.3" y2="375.9125" stroke="#999" stroke-width="1"></line><line id="1950" x1="302.1" y1="370.4125" x2="302.1" y2="375.9125" stroke="#999" stroke-width="1"></line></g><g id="tick-labels"><text x="48.5315625" y="386.88125" fill="#5b5b5b" text-anchor="start" font-size="10.96875">1789</text><text x="417" y="386.88125" fill="#5b5b5b" text-anchor="end" font-size="10.96875">2023</text><text x="144.6" y="386.88125" fill="#5b5b5b" text-anchor="middle" font-size="10.96875">1850</text><text x="223.3" y="386.88125" fill="#5b5b5b" text-anchor="middle" font-size="10.96875">1900</text><text x="302.1" y="386.88125" fill="#5b5b5b" text-anchor="middle" font-size="10.96875">1950</text></g></g><g id="vertical-axis" class="VerticalAxis"><g id="tick-labels"><text x="43.53" y="370.9" dy=".32em" text-anchor="end" fill="#5b5b5b" font-size="10.96875">0</text><text x="43.53" y="342" dy=".32em" text-anchor="end" fill="#5b5b5b" font-size="10.96875">1B</text><text x="43.53" y="313" dy=".32em" text-anchor="end" fill="#5b5b5b" font-size="10.96875">2B</text><text x="43.53" y="284.1" dy=".32em" text-anchor="end" fill="#5b5b5b" font-size="10.96875">3B</text></g></g><g id="horizontal-grid-lines" class="AxisGridLines horizontalLines"><line id="0" x1="48.53" y1="370.9" x2="417.00" y2="370.9" stroke="#999" stroke-width="1"></line><line id="1B" x1="48.53" y1="342" x2="417.00" y2="342" stroke="#ddd" stroke-width="1" stroke-dasharray="2,1"></line><line id="2B" x1="48.53" y1="313" x2="417.00" y2="313" stroke="#ddd" stroke-width="1" stroke-dasharray="2,1"></line><line id="3B" x1="48.53" y1="284.1" x2="417.00" y2="284.1" stroke="#ddd" stroke-width="1" stroke-dasharray="2,1"></line></g><g clip-path="url(#boundsClip-3)"><g class="Areas" id="stacked-areas"><g id="areas"><path id="World" class="World-area" stroke-linecap="round" d="M48.5 370.9L50.1 370.4L51.7 370.4L53.3 369.6L54.8 369.6L56.4 369.6L58 369.6L59.6 369.3L61.1 369.3L62.7 369.3L64.3 370.3L65.9 370.3L67.4 370.3L69 370.3L70.6 370.2L72.2 370.2L73.7 370.2L75.3 370.2L76.9 370.2L78.4 370.2L80 370.2L81.6 370.2L83.2 370.1L84.7 370.1L86.3 370.1L87.9 370L89.5 370L91 370L92.6 369.9L94.2 369.9L95.8 369.8L97.3 369.8L98.9 369.7L100.5 369.7L102.1 369.3L103.6 369.6L105.2 369.6L106.8 369.6L108.4 369.6L109.9 369.6L111.5 369.5L113.1 369.5L114.7 369.3L116.2 369.2L117.8 369.2L119.4 369.2L121 369.1L122.5 369.1L124.1 369L125.7 369L127.3 369L128.8 369.1L130.4 369.2L132 368.9L133.6 368.9L135.1 368.9L136.7 368.8L138.3 369L139.9 368.8L141.4 367.3L143 367.6L144.6 367.6L146.2 368.6L147.7 368.6L149.3 368.5L150.9 368.5L152.5 368.5L154 368.4L155.6 368.3L157.2 368.6L158.8 368.5L160.3 368.5L161.9 368.6L163.5 368.5L165.1 368.4L166.6 368.4L168.2 367.5L169.8 367.6L171.4 367.5L172.9 367.4L174.5 367.2L176.1 365.9L177.7 366L179.2 365.8L180.8 365.4L182.4 366.9L184 366.8L185.5 366.7L187.1 366.7L188.7 366.6L190.3 366.6L191.8 366.4L193.4 366.3L195 366.1L196.5 366.1L198.1 366L199.7 366.1L201.3 365.9L202.8 366L204.4 365.9L206 365.8L207.6 365.8L209.1 365.8L210.7 365.5L212.3 365.5L213.9 364.9L215.4 364.9L217 365.3L218.6 365.2L220.2 364.5L221.7 364.5L223.3 364.6L224.9 364.4L226.5 364.4L228 364.3L229.6 364.2L231.2 364.1L232.8 364.2L234.3 364.1L235.9 364L237.5 363.8L239.1 363.5L240.6 363.2L242.2 363L243.8 362.9L245.4 362.8L246.9 362.6L248.5 362.7L250.1 359.5L251.7 362L253.2 362.7L254.8 366.3L256.4 366.5L258 366.2L259.5 366.5L261.1 368.1L262.7 367.7L264.3 367L265.8 366.9L267.4 366.9L269 366.9L270.6 367.8L272.1 366.9L273.7 367.4L275.3 365.1L276.9 367.1L278.4 367.2L280 367L281.6 366.2L283.2 366L284.7 367.4L286.3 367.2L287.9 367.2L289.5 367.6L291 367.4L292.6 367.7L294.2 364.7L295.8 351.4L297.3 353.4L298.9 363.8L300.5 364.2L302.1 362.7L303.6 351.6L305.2 363L306.8 363.2L308.3 362.8L309.9 359.9L311.5 362L313.1 360.1L314.6 357.3L316.2 357.2L317.8 356.8L319.4 359.2L320.9 360L322.5 358.1L324.1 358.6L325.7 359L327.2 358.7L328.8 359.5L330.4 359.2L332 359.3L333.5 359.4L335.1 355L336.7 356.3L338.3 353.2L339.8 352.9L341.4 333.2L343 331.1L344.6 330L346.1 350.5L347.7 344.7L349.3 341.4L350.9 344.9L352.4 346.4L354 344.4L355.6 345.7L357.2 341.3L358.7 335.6L360.3 339.2L361.9 340.1L363.5 338.3L365 339.1L366.6 333.8L368.2 335.8L369.8 336.5L371.3 336.7L372.9 334.9L374.5 334.6L376.1 333.7L377.6 333.8L379.2 336.1L380.8 340.4L382.4 341L383.9 329.2L385.5 329.7L387.1 326.7L388.7 323.8L390.2 320.7L391.8 324.4L393.4 317.3L395 316.3L396.5 317.1L398.1 317.1L399.7 317.1L401.3 318.5L402.8 321L404.4 317.1L406 320.9L407.6 278.7L409.1 273.3L410.7 272.3L412.3 273L413.9 268.9L415.4 272.2L417 269.6L417 370.9125L48.5 370.9125" fill="#4c6a9c" fill-opacity="0.8"></path></g><g id="borders"><path id="World" class="World-border" stroke-linecap="round" d="M48.5 370.9L50.1 370.4L51.7 370.4L53.3 369.6L54.8 369.6L56.4 369.6L58 369.6L59.6 369.3L61.1 369.3L62.7 369.3L64.3 370.3L65.9 370.3L67.4 370.3L69 370.3L70.6 370.2L72.2 370.2L73.7 370.2L75.3 370.2L76.9 370.2L78.4 370.2L80 370.2L81.6 370.2L83.2 370.1L84.7 370.1L86.3 370.1L87.9 370L89.5 370L91 370L92.6 369.9L94.2 369.9L95.8 369.8L97.3 369.8L98.9 369.7L100.5 369.7L102.1 369.3L103.6 369.6L105.2 369.6L106.8 369.6L108.4 369.6L109.9 369.6L111.5 369.5L113.1 369.5L114.7 369.3L116.2 369.2L117.8 369.2L119.4 369.2L121 369.1L122.5 369.1L124.1 369L125.7 369L127.3 369L128.8 369.1L130.4 369.2L132 368.9L133.6 368.9L135.1 368.9L136.7 368.8L138.3 369L139.9 368.8L141.4 367.3L143 367.6L144.6 367.6L146.2 368.6L147.7 368.6L149.3 368.5L150.9 368.5L152.5 368.5L154 368.4L155.6 368.3L157.2 368.6L158.8 368.5L160.3 368.5L161.9 368.6L163.5 368.5L165.1 368.4L166.6 368.4L168.2 367.5L169.8 367.6L171.4 367.5L172.9 367.4L174.5 367.2L176.1 365.9L177.7 366L179.2 365.8L180.8 365.4L182.4 366.9L184 366.8L185.5 366.7L187.1 366.7L188.7 366.6L190.3 366.6L191.8 366.4L193.4 366.3L195 366.1L196.5 366.1L198.1 366L199.7 366.1L201.3 365.9L202.8 366L204.4 365.9L206 365.8L207.6 365.8L209.1 365.8L210.7 365.5L212.3 365.5L213.9 364.9L215.4 364.9L217 365.3L218.6 365.2L220.2 364.5L221.7 364.5L223.3 364.6L224.9 364.4L226.5 364.4L228 364.3L229.6 364.2L231.2 364.1L232.8 364.2L234.3 364.1L235.9 364L237.5 363.8L239.1 363.5L240.6 363.2L242.2 363L243.8 362.9L245.4 362.8L246.9 362.6L248.5 362.7L250.1 359.5L251.7 362L253.2 362.7L254.8 366.3L256.4 366.5L258 366.2L259.5 366.5L261.1 368.1L262.7 367.7L264.3 367L265.8 366.9L267.4 366.9L269 366.9L270.6 367.8L272.1 366.9L273.7 367.4L275.3 365.1L276.9 367.1L278.4 367.2L280 367L281.6 366.2L283.2 366L284.7 367.4L286.3 367.2L287.9 367.2L289.5 367.6L291 367.4L292.6 367.7L294.2 364.7L295.8 351.4L297.3 353.4L298.9 363.8L300.5 364.2L302.1 362.7L303.6 351.6L305.2 363L306.8 363.2L308.3 362.8L309.9 359.9L311.5 362L313.1 360.1L314.6 357.3L316.2 357.2L317.8 356.8L319.4 359.2L320.9 360L322.5 358.1L324.1 358.6L325.7 359L327.2 358.7L328.8 359.5L330.4 359.2L332 359.3L333.5 359.4L335.1 355L336.7 356.3L338.3 353.2L339.8 352.9L341.4 333.2L343 331.1L344.6 330L346.1 350.5L347.7 344.7L349.3 341.4L350.9 344.9L352.4 346.4L354 344.4L355.6 345.7L357.2 341.3L358.7 335.6L360.3 339.2L361.9 340.1L363.5 338.3L365 339.1L366.6 333.8L368.2 335.8L369.8 336.5L371.3 336.7L372.9 334.9L374.5 334.6L376.1 333.7L377.6 333.8L379.2 336.1L380.8 340.4L382.4 341L383.9 329.2L385.5 329.7L387.1 326.7L388.7 323.8L390.2 320.7L391.8 324.4L393.4 317.3L395 316.3L396.5 317.1L398.1 317.1L399.7 317.1L401.3 318.5L402.8 321L404.4 317.1L406 320.9L407.6 278.7L409.1 273.3L410.7 272.3L412.3 273L413.9 268.9L415.4 272.2L417 269.6" stroke="rgb(64, 89, 131)" stroke-opacity="0.7" stroke-width="0.5" fill="none"></path></g></g></g></g><text x="464.5315625" y="255.56875000000002" fill="#5b5b5b" font-size="14.625" style="font-weight:700">in electoral democracies<title>in electoral democracies</title></text><g class="StackedArea"><defs><clipPath id="boundsClip-4"><rect x="464.5315625" y="262.88125" width="401" height="252"></rect></clipPath></defs><rect x="432" y="262.88125" width="401" height="126" fill-opacity="0"></rect><g id="horizontal-axis" class="HorizontalAxis"><g id="tick-marks"><line id="1789" x1="464.5" y1="370.4125" x2="464.5" y2="375.9125" stroke="#999" stroke-width="1"></line><line id="2023" x1="833" y1="370.4125" x2="833" y2="375.9125" stroke="#999" stroke-width="1"></line><line id="1850" x1="560.6" y1="370.4125" x2="560.6" y2="375.9125" stroke="#999" stroke-width="1"></line><line id="1900" x1="639.3" y1="370.4125" x2="639.3" y2="375.9125" stroke="#999" stroke-width="1"></line><line id="1950" x1="718.1" y1="370.4125" x2="718.1" y2="375.9125" stroke="#999" stroke-width="1"></line></g><g id="tick-labels"><text x="464.5315625" y="386.88125" fill="#5b5b5b" text-anchor="start" font-size="10.96875">1789</text><text x="833" y="386.88125" fill="#5b5b5b" text-anchor="end" font-size="10.96875">2023</text><text x="560.6" y="386.88125" fill="#5b5b5b" text-anchor="middle" font-size="10.96875">1850</text><text x="639.3" y="386.88125" fill="#5b5b5b" text-anchor="middle" font-size="10.96875">1900</text><text x="718.1" y="386.88125" fill="#5b5b5b" text-anchor="middle" font-size="10.96875">1950</text></g></g><g id="vertical-axis" class="VerticalAxis"><g id="tick-labels"><text x="459.53" y="370.9" dy=".32em" text-anchor="end" fill="#5b5b5b" font-size="10.96875">0</text><text x="459.53" y="335.3" dy=".32em" text-anchor="end" fill="#5b5b5b" font-size="10.96875">1B</text><text x="459.53" y="299.7" dy=".32em" text-anchor="end" fill="#5b5b5b" font-size="10.96875">2B</text></g></g><g id="horizontal-grid-lines" class="AxisGridLines horizontalLines"><line id="0" x1="464.53" y1="370.9" x2="833.00" y2="370.9" stroke="#999" stroke-width="1"></line><line id="1B" x1="464.53" y1="335.3" x2="833.00" y2="335.3" stroke="#ddd" stroke-width="1" stroke-dasharray="2,1"></line><line id="2B" x1="464.53" y1="299.7" x2="833.00" y2="299.7" stroke="#ddd" stroke-width="1" stroke-dasharray="2,1"></line></g><g clip-path="url(#boundsClip-4)"><g class="Areas" id="stacked-areas"><g id="areas"><path id="World" class="World-area" stroke-linecap="round" d="M464.5 370.9L466.1 370.9L467.7 370.9L469.3 370.9L470.8 370.9L472.4 370.9L474 370.9L475.6 370.9L477.1 370.9L478.7 370.9L480.3 370.9L481.9 370.9L483.4 370.9L485 370.9L486.6 370.9L488.2 370.9L489.7 370.9L491.3 370.9L492.9 370.9L494.4 370.9L496 370.9L497.6 370.9L499.2 370.9L500.7 370.9L502.3 370.9L503.9 370.9L505.5 370.9L507 370.9L508.6 370.9L510.2 370.9L511.8 370.9L513.3 370.9L514.9 370.9L516.5 370.9L518.1 370.9L519.6 370.9L521.2 370.9L522.8 370.9L524.4 370.9L525.9 370.9L527.5 370.9L529.1 370.9L530.7 370.9L532.2 370.9L533.8 370.9L535.4 370.9L537 370.9L538.5 370.9L540.1 370.9L541.7 370.9L543.3 370.9L544.8 370.9L546.4 370.9L548 370.9L549.6 370.9L551.1 370.9L552.7 370.9L554.3 370.9L555.9 370.9L557.4 370.9L559 370.9L560.6 370.9L562.2 370.9L563.7 370.9L565.3 370.9L566.9 370.9L568.5 370.9L570 370.9L571.6 370.9L573.2 370.9L574.8 370.9L576.3 370.9L577.9 370.9L579.5 370.9L581.1 370.9L582.6 370.9L584.2 370.9L585.8 370.9L587.4 370.9L588.9 370.9L590.5 370.9L592.1 370.9L593.7 370.9L595.2 370.9L596.8 370.9L598.4 369.5L600 369.5L601.5 369.5L603.1 369.5L604.7 369.5L606.3 369.5L607.8 369.5L609.4 369.5L611 369.5L612.5 369.5L614.1 369.5L615.7 369.5L617.3 369.5L618.8 369.5L620.4 369.5L622 369.5L623.6 369.5L625.1 369.5L626.7 369.5L628.3 369.5L629.9 369.5L631.4 369.5L633 369.5L634.6 369.5L636.2 369.5L637.7 369.5L639.3 369.5L640.9 369.5L642.5 369.5L644 369.5L645.6 369.4L647.2 369.4L648.8 369.4L650.3 369.4L651.9 369.4L653.5 369.4L655.1 369.4L656.6 369.4L658.2 369.4L659.8 369.4L661.4 369.4L662.9 369.4L664.5 369.3L666.1 369.3L667.7 369.3L669.2 367.1L670.8 362L672.4 361.1L674 361.1L675.5 360.9L677.1 360.8L678.7 360.8L680.3 361.6L681.8 361.6L683.4 361.5L685 361.4L686.6 361.3L688.1 361.2L689.7 360.3L691.3 363L692.9 363.1L694.4 363L696 363L697.6 363.8L699.2 363.8L700.7 364.2L702.3 365.6L703.9 365.5L705.5 365.4L707 365.5L708.6 365.4L710.2 365.1L711.8 365L713.3 363.3L714.9 362.9L716.5 362.9L718.1 362.8L719.6 362.7L721.2 349.3L722.8 348.9L724.3 348.4L725.9 347.9L727.5 344.8L729.1 344.3L730.6 346.7L732.2 345.7L733.8 345.2L735.4 344.6L736.9 344.1L738.5 343.5L740.1 342.2L741.7 341.6L743.2 340.8L744.8 340.2L746.4 339.7L748 346.1L749.5 347.5L751.1 348.2L752.7 346.5L754.3 346.2L755.8 344.8L757.4 366.1L759 367.7L760.6 368.1L762.1 343L763.7 342.4L765.3 342.5L766.9 341.8L768.4 340.9L770 342.2L771.6 340.4L773.2 339.7L774.7 338.8L776.3 333L777.9 328.6L779.5 327.8L781 321.7L782.6 320.4L784.2 315.6L785.8 315.3L787.3 311.7L788.9 308.5L790.5 305.7L792.1 303.7L793.6 301.6L795.2 293.4L796.8 292.6L798.4 290L799.9 294.2L801.5 292.2L803.1 293.9L804.7 293.5L806.2 292.6L807.8 293.6L809.4 292L811 291.6L812.5 287.7L814.1 286.1L815.7 280.3L817.3 278L818.8 275.6L820.4 273.3L822 268.9L823.6 317.4L825.1 321.4L826.7 319.9L828.3 316.9L829.9 326.1L831.4 324.3L833 324.5L833 370.9125L464.5 370.9125" fill="#4c6a9c" fill-opacity="0.8"></path></g><g id="borders"><path id="World" class="World-border" stroke-linecap="round" d="M464.5 370.9L466.1 370.9L467.7 370.9L469.3 370.9L470.8 370.9L472.4 370.9L474 370.9L475.6 370.9L477.1 370.9L478.7 370.9L480.3 370.9L481.9 370.9L483.4 370.9L485 370.9L486.6 370.9L488.2 370.9L489.7 370.9L491.3 370.9L492.9 370.9L494.4 370.9L496 370.9L497.6 370.9L499.2 370.9L500.7 370.9L502.3 370.9L503.9 370.9L505.5 370.9L507 370.9L508.6 370.9L510.2 370.9L511.8 370.9L513.3 370.9L514.9 370.9L516.5 370.9L518.1 370.9L519.6 370.9L521.2 370.9L522.8 370.9L524.4 370.9L525.9 370.9L527.5 370.9L529.1 370.9L530.7 370.9L532.2 370.9L533.8 370.9L535.4 370.9L537 370.9L538.5 370.9L540.1 370.9L541.7 370.9L543.3 370.9L544.8 370.9L546.4 370.9L548 370.9L549.6 370.9L551.1 370.9L552.7 370.9L554.3 370.9L555.9 370.9L557.4 370.9L559 370.9L560.6 370.9L562.2 370.9L563.7 370.9L565.3 370.9L566.9 370.9L568.5 370.9L570 370.9L571.6 370.9L573.2 370.9L574.8 370.9L576.3 370.9L577.9 370.9L579.5 370.9L581.1 370.9L582.6 370.9L584.2 370.9L585.8 370.9L587.4 370.9L588.9 370.9L590.5 370.9L592.1 370.9L593.7 370.9L595.2 370.9L596.8 370.9L598.4 369.5L600 369.5L601.5 369.5L603.1 369.5L604.7 369.5L606.3 369.5L607.8 369.5L609.4 369.5L611 369.5L612.5 369.5L614.1 369.5L615.7 369.5L617.3 369.5L618.8 369.5L620.4 369.5L622 369.5L623.6 369.5L625.1 369.5L626.7 369.5L628.3 369.5L629.9 369.5L631.4 369.5L633 369.5L634.6 369.5L636.2 369.5L637.7 369.5L639.3 369.5L640.9 369.5L642.5 369.5L644 369.5L645.6 369.4L647.2 369.4L648.8 369.4L650.3 369.4L651.9 369.4L653.5 369.4L655.1 369.4L656.6 369.4L658.2 369.4L659.8 369.4L661.4 369.4L662.9 369.4L664.5 369.3L666.1 369.3L667.7 369.3L669.2 367.1L670.8 362L672.4 361.1L674 361.1L675.5 360.9L677.1 360.8L678.7 360.8L680.3 361.6L681.8 361.6L683.4 361.5L685 361.4L686.6 361.3L688.1 361.2L689.7 360.3L691.3 363L692.9 363.1L694.4 363L696 363L697.6 363.8L699.2 363.8L700.7 364.2L702.3 365.6L703.9 365.5L705.5 365.4L707 365.5L708.6 365.4L710.2 365.1L711.8 365L713.3 363.3L714.9 362.9L716.5 362.9L718.1 362.8L719.6 362.7L721.2 349.3L722.8 348.9L724.3 348.4L725.9 347.9L727.5 344.8L729.1 344.3L730.6 346.7L732.2 345.7L733.8 345.2L735.4 344.6L736.9 344.1L738.5 343.5L740.1 342.2L741.7 341.6L743.2 340.8L744.8 340.2L746.4 339.7L748 346.1L749.5 347.5L751.1 348.2L752.7 346.5L754.3 346.2L755.8 344.8L757.4 366.1L759 367.7L760.6 368.1L762.1 343L763.7 342.4L765.3 342.5L766.9 341.8L768.4 340.9L770 342.2L771.6 340.4L773.2 339.7L774.7 338.8L776.3 333L777.9 328.6L779.5 327.8L781 321.7L782.6 320.4L784.2 315.6L785.8 315.3L787.3 311.7L788.9 308.5L790.5 305.7L792.1 303.7L793.6 301.6L795.2 293.4L796.8 292.6L798.4 290L799.9 294.2L801.5 292.2L803.1 293.9L804.7 293.5L806.2 292.6L807.8 293.6L809.4 292L811 291.6L812.5 287.7L814.1 286.1L815.7 280.3L817.3 278L818.8 275.6L820.4 273.3L822 268.9L823.6 317.4L825.1 321.4L826.7 319.9L828.3 316.9L829.9 326.1L831.4 324.3L833 324.5" stroke="rgb(64, 89, 131)" stroke-opacity="0.7" stroke-width="0.5" fill="none"></path></g></g></g></g><text x="48.5315625" y="418.56875" fill="#5b5b5b" font-size="14.625" style="font-weight:700">in liberal democracies<title>in liberal democracies</title></text><g class="StackedArea"><defs><clipPath id="boundsClip-5"><rect x="48.5315625" y="425.88125" width="401" height="252"></rect></clipPath></defs><rect x="16" y="425.88125" width="401" height="126" fill-opacity="0"></rect><g id="horizontal-axis" class="HorizontalAxis"><g id="tick-marks"><line id="1789" x1="48.5" y1="533.4125" x2="48.5" y2="538.9125" stroke="#999" stroke-width="1"></line><line id="2023" x1="417" y1="533.4125" x2="417" y2="538.9125" stroke="#999" stroke-width="1"></line><line id="1850" x1="144.6" y1="533.4125" x2="144.6" y2="538.9125" stroke="#999" stroke-width="1"></line><line id="1900" x1="223.3" y1="533.4125" x2="223.3" y2="538.9125" stroke="#999" stroke-width="1"></line><line id="1950" x1="302.1" y1="533.4125" x2="302.1" y2="538.9125" stroke="#999" stroke-width="1"></line></g><g id="tick-labels"><text x="48.5315625" y="549.88125" fill="#5b5b5b" text-anchor="start" font-size="10.96875">1789</text><text x="417" y="549.88125" fill="#5b5b5b" text-anchor="end" font-size="10.96875">2023</text><text x="144.6" y="549.88125" fill="#5b5b5b" text-anchor="middle" font-size="10.96875">1850</text><text x="223.3" y="549.88125" fill="#5b5b5b" text-anchor="middle" font-size="10.96875">1900</text><text x="302.1" y="549.88125" fill="#5b5b5b" text-anchor="middle" font-size="10.96875">1950</text></g></g><g id="vertical-axis" class="VerticalAxis"><g id="tick-labels"><text x="43.53" y="533.9" dy=".32em" text-anchor="end" fill="#5b5b5b" font-size="10.96875">0</text><text x="43.53" y="516.6" dy=".32em" text-anchor="end" fill="#5b5b5b" font-size="10.96875">200M</text><text x="43.53" y="499.4" dy=".32em" text-anchor="end" fill="#5b5b5b" font-size="10.96875">400M</text><text x="43.53" y="482.1" dy=".32em" text-anchor="end" fill="#5b5b5b" font-size="10.96875">600M</text><text x="43.53" y="464.8" dy=".32em" text-anchor="end" fill="#5b5b5b" font-size="10.96875">800M</text><text x="43.53" y="447.5" dy=".32em" text-anchor="end" fill="#5b5b5b" font-size="10.96875">1B</text></g></g><g id="horizontal-grid-lines" class="AxisGridLines horizontalLines"><line id="0" x1="48.53" y1="533.9" x2="417.00" y2="533.9" stroke="#999" stroke-width="1"></line><line id="200M" x1="48.53" y1="516.6" x2="417.00" y2="516.6" stroke="#ddd" stroke-width="1" stroke-dasharray="2,1"></line><line id="400M" x1="48.53" y1="499.4" x2="417.00" y2="499.4" stroke="#ddd" stroke-width="1" stroke-dasharray="2,1"></line><line id="600M" x1="48.53" y1="482.1" x2="417.00" y2="482.1" stroke="#ddd" stroke-width="1" stroke-dasharray="2,1"></line><line id="800M" x1="48.53" y1="464.8" x2="417.00" y2="464.8" stroke="#ddd" stroke-width="1" stroke-dasharray="2,1"></line><line id="1B" x1="48.53" y1="447.5" x2="417.00" y2="447.5" stroke="#ddd" stroke-width="1" stroke-dasharray="2,1"></line></g><g clip-path="url(#boundsClip-5)"><g class="Areas" id="stacked-areas"><g id="areas"><path id="World" class="World-area" stroke-linecap="round" d="M48.5 533.9L50.1 533.9L51.7 533.9L53.3 533.9L54.8 533.9L56.4 533.9L58 533.9L59.6 533.9L61.1 533.9L62.7 533.9L64.3 533.9L65.9 533.9L67.4 533.9L69 533.9L70.6 533.9L72.2 533.9L73.7 533.9L75.3 533.9L76.9 533.9L78.4 533.9L80 533.9L81.6 533.9L83.2 533.9L84.7 533.9L86.3 533.9L87.9 533.9L89.5 533.9L91 533.9L92.6 533.9L94.2 533.9L95.8 533.9L97.3 533.9L98.9 533.9L100.5 533.9L102.1 533.9L103.6 533.9L105.2 533.9L106.8 533.9L108.4 533.9L109.9 533.9L111.5 533.9L113.1 533.9L114.7 533.9L116.2 533.9L117.8 533.9L119.4 533.9L121 533.9L122.5 533.9L124.1 533.9L125.7 533.9L127.3 533.9L128.8 533.9L130.4 533.9L132 533.9L133.6 533.9L135.1 533.9L136.7 533.9L138.3 533.9L139.9 533.9L141.4 533.9L143 533.7L144.6 533.7L146.2 533.7L147.7 533.7L149.3 533.7L150.9 533.7L152.5 533.7L154 533.7L155.6 533.7L157.2 533.6L158.8 533.6L160.3 533.6L161.9 533.6L163.5 533.6L165.1 533.6L166.6 533.6L168.2 533.6L169.8 533.6L171.4 533.5L172.9 533.5L174.5 533.5L176.1 533.5L177.7 533.5L179.2 533.5L180.8 533.5L182.4 533.5L184 533.5L185.5 533.5L187.1 533.5L188.7 533.5L190.3 533.5L191.8 533.5L193.4 533.5L195 533.5L196.5 533.5L198.1 533.4L199.7 533.4L201.3 533.4L202.8 533.4L204.4 533.4L206 533.4L207.6 533.4L209.1 533.4L210.7 533.4L212.3 533.4L213.9 533.4L215.4 533.4L217 533.3L218.6 533.3L220.2 533.3L221.7 533.3L223.3 532.7L224.9 532.7L226.5 532.5L228 532.5L229.6 532.4L231.2 532.4L232.8 532.4L234.3 532.4L235.9 532.4L237.5 532.3L239.1 532.3L240.6 532.3L242.2 532.3L243.8 532.2L245.4 532.8L246.9 532.8L248.5 533.2L250.1 533.2L251.7 532.2L253.2 528.2L254.8 528.1L256.4 527.4L258 526.9L259.5 526.9L261.1 526.9L262.7 526.5L264.3 526.5L265.8 526.5L267.4 526.5L269 526.5L270.6 526.5L272.1 526.4L273.7 526.4L275.3 526.3L276.9 526.3L278.4 526.3L280 526.2L281.6 526.2L283.2 526.1L284.7 526.1L286.3 527.8L287.9 527.8L289.5 527.8L291 527.7L292.6 527.7L294.2 527.6L295.8 525.4L297.3 521.8L298.9 521.7L300.5 517L302.1 516.9L303.6 516.7L305.2 509.1L306.8 508.8L308.3 508.6L309.9 508.3L311.5 507.5L313.1 507.3L314.6 507L316.2 506.8L317.8 506.5L319.4 506.3L320.9 506L322.5 505.7L324.1 505.5L325.7 505.2L327.2 504.7L328.8 504.4L330.4 504.1L332 486.7L333.5 481.6L335.1 481.1L336.7 480.5L338.3 480L339.8 479.6L341.4 479.2L343 476.1L344.6 474.8L346.1 474.4L347.7 474L349.3 473.5L350.9 473.1L352.4 472.7L354 469L355.6 468.6L357.2 467.9L358.7 467.5L360.3 467.1L361.9 466.7L363.5 466L365 460.9L366.6 457.9L368.2 457.4L369.8 453.1L371.3 452.5L372.9 452L374.5 446.3L376.1 445.7L377.6 445.1L379.2 444L380.8 441.5L382.4 441L383.9 440.4L385.5 438L387.1 437.3L388.7 436.5L390.2 435.8L391.8 434.5L393.4 433.7L395 433.1L396.5 433.1L398.1 432.5L399.7 431.9L401.3 436.8L402.8 436.2L404.4 438.1L406 441.4L407.6 440.8L409.1 440.4L410.7 441.8L412.3 446L413.9 442.1L415.4 445.1L417 443.5L417 533.9125L48.5 533.9125" fill="#4c6a9c" fill-opacity="0.8"></path></g><g id="borders"><path id="World" class="World-border" stroke-linecap="round" d="M48.5 533.9L50.1 533.9L51.7 533.9L53.3 533.9L54.8 533.9L56.4 533.9L58 533.9L59.6 533.9L61.1 533.9L62.7 533.9L64.3 533.9L65.9 533.9L67.4 533.9L69 533.9L70.6 533.9L72.2 533.9L73.7 533.9L75.3 533.9L76.9 533.9L78.4 533.9L80 533.9L81.6 533.9L83.2 533.9L84.7 533.9L86.3 533.9L87.9 533.9L89.5 533.9L91 533.9L92.6 533.9L94.2 533.9L95.8 533.9L97.3 533.9L98.9 533.9L100.5 533.9L102.1 533.9L103.6 533.9L105.2 533.9L106.8 533.9L108.4 533.9L109.9 533.9L111.5 533.9L113.1 533.9L114.7 533.9L116.2 533.9L117.8 533.9L119.4 533.9L121 533.9L122.5 533.9L124.1 533.9L125.7 533.9L127.3 533.9L128.8 533.9L130.4 533.9L132 533.9L133.6 533.9L135.1 533.9L136.7 533.9L138.3 533.9L139.9 533.9L141.4 533.9L143 533.7L144.6 533.7L146.2 533.7L147.7 533.7L149.3 533.7L150.9 533.7L152.5 533.7L154 533.7L155.6 533.7L157.2 533.6L158.8 533.6L160.3 533.6L161.9 533.6L163.5 533.6L165.1 533.6L166.6 533.6L168.2 533.6L169.8 533.6L171.4 533.5L172.9 533.5L174.5 533.5L176.1 533.5L177.7 533.5L179.2 533.5L180.8 533.5L182.4 533.5L184 533.5L185.5 533.5L187.1 533.5L188.7 533.5L190.3 533.5L191.8 533.5L193.4 533.5L195 533.5L196.5 533.5L198.1 533.4L199.7 533.4L201.3 533.4L202.8 533.4L204.4 533.4L206 533.4L207.6 533.4L209.1 533.4L210.7 533.4L212.3 533.4L213.9 533.4L215.4 533.4L217 533.3L218.6 533.3L220.2 533.3L221.7 533.3L223.3 532.7L224.9 532.7L226.5 532.5L228 532.5L229.6 532.4L231.2 532.4L232.8 532.4L234.3 532.4L235.9 532.4L237.5 532.3L239.1 532.3L240.6 532.3L242.2 532.3L243.8 532.2L245.4 532.8L246.9 532.8L248.5 533.2L250.1 533.2L251.7 532.2L253.2 528.2L254.8 528.1L256.4 527.4L258 526.9L259.5 526.9L261.1 526.9L262.7 526.5L264.3 526.5L265.8 526.5L267.4 526.5L269 526.5L270.6 526.5L272.1 526.4L273.7 526.4L275.3 526.3L276.9 526.3L278.4 526.3L280 526.2L281.6 526.2L283.2 526.1L284.7 526.1L286.3 527.8L287.9 527.8L289.5 527.8L291 527.7L292.6 527.7L294.2 527.6L295.8 525.4L297.3 521.8L298.9 521.7L300.5 517L302.1 516.9L303.6 516.7L305.2 509.1L306.8 508.8L308.3 508.6L309.9 508.3L311.5 507.5L313.1 507.3L314.6 507L316.2 506.8L317.8 506.5L319.4 506.3L320.9 506L322.5 505.7L324.1 505.5L325.7 505.2L327.2 504.7L328.8 504.4L330.4 504.1L332 486.7L333.5 481.6L335.1 481.1L336.7 480.5L338.3 480L339.8 479.6L341.4 479.2L343 476.1L344.6 474.8L346.1 474.4L347.7 474L349.3 473.5L350.9 473.1L352.4 472.7L354 469L355.6 468.6L357.2 467.9L358.7 467.5L360.3 467.1L361.9 466.7L363.5 466L365 460.9L366.6 457.9L368.2 457.4L369.8 453.1L371.3 452.5L372.9 452L374.5 446.3L376.1 445.7L377.6 445.1L379.2 444L380.8 441.5L382.4 441L383.9 440.4L385.5 438L387.1 437.3L388.7 436.5L390.2 435.8L391.8 434.5L393.4 433.7L395 433.1L396.5 433.1L398.1 432.5L399.7 431.9L401.3 436.8L402.8 436.2L404.4 438.1L406 441.4L407.6 440.8L409.1 440.4L410.7 441.8L412.3 446L413.9 442.1L415.4 445.1L417 443.5" stroke="rgb(64, 89, 131)" stroke-opacity="0.7" stroke-width="0.5" fill="none"></path></g></g></g></g></g><g id="footer" class="SourcesFooter" style="fill:#5b5b5b"><g id="sources" class="markdown-text-wrap"><text x="16.0" y="581.0" style="font-size:13px;line-height:1.2"><tspan x="16" y="581.0"><tspan style="font-weight:700">Data source:</tspan> V-Dem (2024); Population based on various sources (2023)</tspan></text></g><text id="origin-url" font-size="13.00" x="459.6" y="581.0"><tspan x="459.59999999999997" y="581.01"><a target="_blank" style="fill: #5b5b5b;" href="https://ourworldindata.org/democracy">OurWorldinData.org/democracy</a> | <a target="_blank" style="fill: #5b5b5b;" href="https://ourworldindata.org">Powered by ourworldindata.org</a></tspan></text></g></svg>