<svg
    xmlns="http://www.w3.org/2000/svg"
    version="1.1"
    style="font-family:Lato, &#x27;Helvetica Neue&#x27;, Helvetica, Arial, &#x27;Liberation Sans&#x27;, sans-serif;text-rendering:geometricPrecision;-webkit-font-smoothing:antialiased;font-size:18px;background-color:#ffffff"
    width="850"
    height="600"
    viewBox="0 0 850 600"
>
    <defs>
        <style>
            @import url(https://ourworldindata.org/fonts.css);
        </style>
    </defs>
    <defs>
        <pattern
            id="noDataPattern"
            patternUnits="userSpaceOnUse"
            width="4"
            height="4"
            patternTransform="rotate(-45 2 2)"
        >
            <path d="M -1,2 l 6,0" stroke="#ccc" stroke-width="0.7"></path>
        </pattern>
    </defs>
    <g id="header" class="HeaderView">
        <g id="logo" transform="translate(769, 16) scale(1)">
            <svg
                className="owidLogo"
                xmlns="http://www.w3.org/2000/svg"
                width="65"
                height="36"
                viewBox="0 0 65 36"
                fill="none"
            >
                <path fill="#002147" d="M0 0h64.8v36H0z" />
                <path fill="#CE261E" d="M0 33.3h64.8V36H0z" />
                <path
                    fill="#fff"
                    d="M13.796 10.575c0 .636-.106 1.226-.318 1.77a4.193 4.193 0 0 1-.894 1.404 4.084 4.084 0 0 1-1.386.93c-.54.22-1.138.33-1.794.33-.656 0-1.256-.11-1.8-.33a4.149 4.149 0 0 1-1.392-.93 4.193 4.193 0 0 1-.894-1.404A4.833 4.833 0 0 1 5 10.575c0-.636.106-1.224.318-1.764a4.18 4.18 0 0 1 .894-1.41 4.076 4.076 0 0 1 1.392-.924 4.684 4.684 0 0 1 1.8-.336c.656 0 1.254.112 1.794.336.54.224 1.002.534 1.386.93.384.392.682.86.894 1.404.212.54.318 1.128.318 1.764Zm-1.656 0c0-.476-.064-.902-.192-1.278a2.671 2.671 0 0 0-.54-.966 2.332 2.332 0 0 0-.864-.606 2.94 2.94 0 0 0-1.14-.21c-.424 0-.806.07-1.146.21-.34.14-.63.342-.87.606a2.742 2.742 0 0 0-.546.966 3.955 3.955 0 0 0-.192 1.278c0 .476.064.904.192 1.284.128.376.31.696.546.96.24.26.53.46.87.6.34.14.722.21 1.146.21.424 0 .804-.07 1.14-.21.34-.14.628-.34.864-.6.236-.264.416-.584.54-.96a4.01 4.01 0 0 0 .192-1.284ZM16.104 8.757v3.912c0 .376.086.668.258.876.176.204.438.306.786.306.256 0 .496-.056.72-.168a2.58 2.58 0 0 0 .636-.474V8.757h1.482v6.156h-.906c-.192 0-.318-.09-.378-.27l-.102-.492a4.65 4.65 0 0 1-.396.354 2.577 2.577 0 0 1-.438.27 2.35 2.35 0 0 1-.498.168 2.345 2.345 0 0 1-.57.066c-.336 0-.634-.056-.894-.168a1.821 1.821 0 0 1-.648-.486 2.157 2.157 0 0 1-.402-.738 3.233 3.233 0 0 1-.132-.948V8.757h1.482ZM21.328 14.913V8.757h.87c.152 0 .258.028.318.084.06.056.1.152.12.288l.09.744c.22-.38.478-.68.774-.9.296-.22.628-.33.996-.33.304 0 .556.07.756.21l-.192 1.11c-.012.072-.038.124-.078.156a.278.278 0 0 1-.162.042 1.01 1.01 0 0 1-.246-.042 1.646 1.646 0 0 0-.414-.042c-.308 0-.572.086-.792.258-.22.168-.406.416-.558.744v3.834h-1.482ZM27.347 6.237h1.356a.57.57 0 0 1 .348.102c.096.064.16.152.192.264l1.476 5.19c.036.128.068.268.096.42.032.148.062.306.09.474a5.968 5.968 0 0 1 .228-.894l1.704-5.19a.575.575 0 0 1 .186-.252.543.543 0 0 1 .348-.114h.474a.57.57 0 0 1 .348.102.497.497 0 0 1 .192.264l1.692 5.19c.088.256.164.54.228.852.028-.156.056-.306.084-.45.032-.144.064-.278.096-.402l1.476-5.19c.028-.1.09-.186.186-.258a.563.563 0 0 1 .348-.108h1.266l-2.694 8.676h-1.458l-1.896-5.928-.078-.246a9.504 9.504 0 0 1-.072-.282c-.024.1-.05.194-.078.282-.024.088-.048.17-.072.246l-1.914 5.928H30.04l-2.694-8.676ZM42.771 8.661c.46 0 .876.074 1.248.222.376.148.696.358.96.63s.468.604.612.996c.144.392.216.83.216 1.314 0 .488-.072.928-.216 1.32a2.85 2.85 0 0 1-.612 1.002 2.653 2.653 0 0 1-.96.636 3.35 3.35 0 0 1-1.248.222c-.46 0-.878-.074-1.254-.222a2.712 2.712 0 0 1-.966-.636 2.922 2.922 0 0 1-.618-1.002 3.807 3.807 0 0 1-.216-1.32c0-.484.072-.922.216-1.314.148-.392.354-.724.618-.996.268-.272.59-.482.966-.63a3.397 3.397 0 0 1 1.254-.222Zm0 5.202c.512 0 .89-.172 1.134-.516.248-.344.372-.848.372-1.512s-.124-1.17-.372-1.518c-.244-.348-.622-.522-1.134-.522-.52 0-.904.176-1.152.528-.248.348-.372.852-.372 1.512s.124 1.164.372 1.512c.248.344.632.516 1.152.516ZM46.723 14.913V8.757h.87c.152 0 .258.028.318.084.06.056.1.152.12.288l.09.744c.22-.38.478-.68.774-.9.296-.22.628-.33.996-.33.304 0 .556.07.756.21l-.192 1.11c-.012.072-.038.124-.078.156a.278.278 0 0 1-.162.042 1.01 1.01 0 0 1-.246-.042 1.646 1.646 0 0 0-.414-.042c-.308 0-.572.086-.792.258-.22.168-.406.416-.558.744v3.834h-1.482ZM52.96 5.997v8.916h-1.482V5.997h1.482ZM58.732 14.913c-.192 0-.318-.09-.378-.27l-.12-.594a3.68 3.68 0 0 1-.402.39c-.14.116-.292.216-.456.3-.16.084-.334.148-.522.192a2.372 2.372 0 0 1-.6.072c-.336 0-.644-.07-.924-.21a2.098 2.098 0 0 1-.726-.606 3.033 3.033 0 0 1-.468-.99 5.072 5.072 0 0 1-.162-1.344c0-.456.062-.88.186-1.272s.302-.732.534-1.02c.232-.288.51-.512.834-.672a2.384 2.384 0 0 1 1.092-.246 2.103 2.103 0 0 1 1.536.606V5.997h1.482v8.916h-.906Zm-1.974-1.086c.308 0 .57-.064.786-.192.216-.128.42-.31.612-.546v-2.76a1.452 1.452 0 0 0-.552-.432 1.597 1.597 0 0 0-.636-.126c-.224 0-.428.042-.612.126a1.21 1.21 0 0 0-.462.384c-.124.168-.22.384-.288.648-.068.26-.102.568-.102.924 0 .36.028.666.084.918.06.248.144.452.252.612.108.156.24.27.396.342.156.068.33.102.522.102ZM16.331 20.757v6.156H14.85v-6.156h1.481Zm.223-1.794a.844.844 0 0 1-.078.36.963.963 0 0 1-.21.294.995.995 0 0 1-.3.204.963.963 0 0 1-.372.072.948.948 0 0 1-.367-.072 1.018 1.018 0 0 1-.498-.498.963.963 0 0 1 0-.732.995.995 0 0 1 .205-.3.929.929 0 0 1 .293-.198.899.899 0 0 1 .738 0 .912.912 0 0 1 .3.198.943.943 0 0 1 .288.672ZM17.771 26.913v-6.156h.906c.192 0 .318.09.378.27l.102.486a2.934 2.934 0 0 1 .828-.618c.156-.076.322-.134.498-.174.176-.04.368-.06.576-.06.336 0 .634.058.894.174.26.112.476.272.648.48.176.204.308.45.396.738.092.284.138.598.138.942v3.918h-1.482v-3.918c0-.376-.088-.666-.264-.87-.172-.208-.432-.312-.78-.312-.256 0-.496.058-.72.174a2.58 2.58 0 0 0-.636.474v4.452h-1.482ZM34.22 22.575c0 .636-.106 1.22-.318 1.752-.212.532-.51.99-.894 1.374a4 4 0 0 1-1.386.894 4.87 4.87 0 0 1-1.794.318h-3.312v-8.676h3.312a4.79 4.79 0 0 1 1.794.324 4 4 0 0 1 1.386.894c.384.38.682.836.894 1.368.212.532.318 1.116.318 1.752Zm-1.65 0c0-.476-.064-.902-.192-1.278a2.68 2.68 0 0 0-.546-.96 2.332 2.332 0 0 0-.864-.606 2.94 2.94 0 0 0-1.14-.21h-1.686v6.108h1.686c.424 0 .804-.07 1.14-.21.34-.14.628-.34.864-.6a2.75 2.75 0 0 0 .546-.96 4.01 4.01 0 0 0 .192-1.284ZM39.98 26.913h-.665c-.14 0-.25-.02-.33-.06-.08-.044-.14-.13-.18-.258l-.132-.438c-.156.14-.31.264-.462.372a2.804 2.804 0 0 1-.462.264c-.16.072-.33.126-.51.162-.18.036-.38.054-.6.054-.26 0-.5-.034-.72-.102a1.618 1.618 0 0 1-.57-.318 1.448 1.448 0 0 1-.366-.522 1.852 1.852 0 0 1-.132-.726c0-.232.06-.46.18-.684.124-.228.328-.432.612-.612.284-.184.662-.336 1.134-.456.472-.12 1.058-.188 1.758-.204v-.36c0-.412-.088-.716-.264-.912-.172-.2-.424-.3-.756-.3a1.837 1.837 0 0 0-1.02.276c-.116.068-.224.13-.324.186a.664.664 0 0 1-.33.084.429.429 0 0 1-.258-.078.614.614 0 0 1-.174-.192l-.27-.474c.708-.648 1.562-.972 2.562-.972.36 0 .68.06.96.18.284.116.524.28.72.492.196.208.344.458.444.75.104.292.156.612.156.96v3.888Zm-2.88-.924c.153 0 .293-.014.42-.042.129-.028.249-.07.36-.126.117-.056.227-.124.33-.204.109-.084.217-.182.325-.294v-1.038c-.432.02-.794.058-1.086.114-.288.052-.52.12-.696.204a.923.923 0 0 0-.378.294.664.664 0 0 0-.108.366c0 .26.076.446.228.558.156.112.358.168.606.168ZM43.22 27.01c-.532 0-.942-.15-1.23-.45-.288-.305-.432-.723-.432-1.255v-3.438h-.624a.31.31 0 0 1-.21-.078c-.056-.052-.084-.13-.084-.234v-.588l.99-.162.312-1.68a.302.302 0 0 1 .108-.186.365.365 0 0 1 .222-.066h.768v1.938h1.62v1.056h-1.62v3.336c0 .192.048.342.144.45a.488.488 0 0 0 .384.162c.092 0 .168-.01.228-.03.064-.024.118-.048.162-.072.048-.024.09-.046.126-.066a.194.194 0 0 1 .108-.036.16.16 0 0 1 .108.036c.028.02.058.052.09.096l.444.72c-.216.18-.464.316-.744.408a2.77 2.77 0 0 1-.87.138ZM50.423 26.913h-.666c-.14 0-.25-.02-.33-.06-.08-.044-.14-.13-.18-.258l-.132-.438c-.156.14-.31.264-.462.372a2.804 2.804 0 0 1-.462.264c-.16.072-.33.126-.51.162-.18.036-.38.054-.6.054-.26 0-.5-.034-.72-.102a1.618 1.618 0 0 1-.57-.318 1.448 1.448 0 0 1-.366-.522 1.852 1.852 0 0 1-.132-.726c0-.232.06-.46.18-.684.124-.228.328-.432.612-.612.284-.184.662-.336 1.134-.456.472-.12 1.058-.188 1.758-.204v-.36c0-.412-.088-.716-.264-.912-.172-.2-.424-.3-.756-.3a1.837 1.837 0 0 0-1.02.276c-.116.068-.224.13-.324.186a.664.664 0 0 1-.33.084.429.429 0 0 1-.258-.078.614.614 0 0 1-.174-.192l-.27-.474c.708-.648 1.562-.972 2.562-.972.36 0 .68.06.96.18.284.116.524.28.72.492.196.208.344.458.444.75.104.292.156.612.156.96v3.888Zm-2.88-.924c.152 0 .292-.014.42-.042.128-.028.248-.07.36-.126.116-.056.226-.124.33-.204.108-.084.216-.182.324-.294v-1.038c-.432.02-.794.058-1.086.114-.288.052-.52.12-.696.204a.923.923 0 0 0-.378.294.664.664 0 0 0-.108.366c0 .26.076.446.228.558.156.112.358.168.606.168Z"
                />
            </svg>
        </g>
        <a
            id="title"
            href="https://ourworldindata.org/grapher/production-vs-consumption-co2-emissions?yScale=log&amp;time=earliest..latest&amp;uniformYAxis=1"
            style="font-family:&#x27;Playfair Display&#x27;, Georgia, &#x27;Times New Roman&#x27;, &#x27;Liberation Serif&#x27;, serif"
            target="_blank"
            rel="noopener"
        >
            <text
                font-size="25.00"
                font-weight="600"
                x="16.0"
                y="40.3"
                fill="#2d2e2d"
            >
                <tspan x="16" y="40.25">
                    Territorial and consumption-based CO₂ emissions
                </tspan>
            </text>
        </a>
        <g id="subtitle" class="markdown-text-wrap">
            <text
                x="16.0"
                y="66.5"
                style="font-size: 15px; line-height: 1.2"
                fill="#5b5b5b"
            >
                <tspan x="16" y="66.5">
                    <tspan class="dod-span" data-id="consumptionbasedemissions">
                        Consumption-based emissions
                    </tspan>
                    include those from
                    <tspan class="dod-span" data-id="fossilemissions">
                        fossil fuels and industry
                    </tspan>
                    . Land-use change emissions are not
                </tspan>
                <tspan x="16" y="84.5">included.</tspan>
            </text>
        </g>
    </g>
    <g id="chart-area" style="pointer-events: none">
        <g id="categorical-color-legend" class="categoricalColorLegend">
            <g id="swatches">
                <rect
                    id="Consumption-based-emissions"
                    x="16"
                    y="104"
                    width="13.5"
                    height="13.5"
                    fill="#b13507"
                    stroke-width="0.4"
                ></rect>
                <rect
                    id="Territorial-emissions"
                    x="243.92400000000004"
                    y="104"
                    width="13.5"
                    height="13.5"
                    fill="#4c6a9c"
                    stroke-width="0.4"
                ></rect>
            </g>
            <g id="labels">
                <text
                    x="34.5"
                    y="110.75"
                    dy=".32em"
                    font-size="14.4"
                    opacity="1"
                >
                    Consumption-based emissions
                </text>
                <text
                    x="262.42400000000004"
                    y="110.75"
                    dy=".32em"
                    font-size="14.4"
                    opacity="1"
                >
                    Territorial emissions
                </text>
            </g>
        </g>
        <text
            x="54.77"
            y="145.0625"
            fill="#5b5b5b"
            font-size="15.75"
            style="font-weight: 700"
        >
            United States
            <title>United States</title>
        </text>
        <g id="United-States">
            <g id="horizontal-axis" class="HorizontalAxis">
                <g id="tick-marks">
                    <line
                        id="1750"
                        x1="54.8"
                        y1="314.4375"
                        x2="54.8"
                        y2="319.9375"
                        stroke="#999"
                        stroke-width="1"
                    ></line>
                    <line
                        id="2023"
                        x1="434.8"
                        y1="314.4375"
                        x2="434.8"
                        y2="319.9375"
                        stroke="#999"
                        stroke-width="1"
                    ></line>
                    <line
                        id="1800"
                        x1="124.4"
                        y1="314.4375"
                        x2="124.4"
                        y2="319.9375"
                        stroke="#999"
                        stroke-width="1"
                    ></line>
                    <line
                        id="1850"
                        x1="194"
                        y1="314.4375"
                        x2="194"
                        y2="319.9375"
                        stroke="#999"
                        stroke-width="1"
                    ></line>
                    <line
                        id="1900"
                        x1="263.6"
                        y1="314.4375"
                        x2="263.6"
                        y2="319.9375"
                        stroke="#999"
                        stroke-width="1"
                    ></line>
                    <line
                        id="1950"
                        x1="333.2"
                        y1="314.4375"
                        x2="333.2"
                        y2="319.9375"
                        stroke="#999"
                        stroke-width="1"
                    ></line>
                </g>
                <g id="tick-labels">
                    <text
                        x="54.77"
                        y="332.9375"
                        fill="#5b5b5b"
                        text-anchor="start"
                        font-size="11"
                    >
                        1750
                    </text>
                    <text
                        x="434.77"
                        y="332.9375"
                        fill="#5b5b5b"
                        text-anchor="end"
                        font-size="11"
                    >
                        2023
                    </text>
                    <text
                        x="124.4"
                        y="332.9375"
                        fill="#5b5b5b"
                        text-anchor="middle"
                        font-size="11"
                    >
                        1800
                    </text>
                    <text
                        x="194"
                        y="332.9375"
                        fill="#5b5b5b"
                        text-anchor="middle"
                        font-size="11"
                    >
                        1850
                    </text>
                    <text
                        x="263.6"
                        y="332.9375"
                        fill="#5b5b5b"
                        text-anchor="middle"
                        font-size="11"
                    >
                        1900
                    </text>
                    <text
                        x="333.2"
                        y="332.9375"
                        fill="#5b5b5b"
                        text-anchor="middle"
                        font-size="11"
                    >
                        1950
                    </text>
                </g>
            </g>
            <g id="vertical-axis" class="VerticalAxis">
                <g id="tick-labels">
                    <text
                        x="49.77"
                        y="294.9"
                        dy=".32em"
                        text-anchor="end"
                        fill="#5b5b5b"
                        font-size="11"
                    >
                        1M t
                    </text>
                    <text
                        x="49.77"
                        y="261.4"
                        dy=".32em"
                        text-anchor="end"
                        fill="#5b5b5b"
                        font-size="11"
                    >
                        10M t
                    </text>
                    <text
                        x="49.77"
                        y="228"
                        dy=".32em"
                        text-anchor="end"
                        fill="#5b5b5b"
                        font-size="11"
                    >
                        100M t
                    </text>
                    <text
                        x="49.77"
                        y="194.5"
                        dy=".32em"
                        text-anchor="end"
                        fill="#5b5b5b"
                        font-size="11"
                    >
                        1B t
                    </text>
                    <text
                        x="49.77"
                        y="161"
                        dy=".32em"
                        text-anchor="end"
                        fill="#5b5b5b"
                        font-size="11"
                    >
                        10B t
                    </text>
                </g>
            </g>
            <g id="horizontal-grid-lines" class="AxisGridLines horizontalLines">
                <line
                    id="1M-t"
                    x1="54.77"
                    y1="294.9"
                    x2="434.77"
                    y2="294.9"
                    stroke="#ddd"
                    stroke-dasharray="4,4"
                ></line>
                <line
                    id="10M-t"
                    x1="54.77"
                    y1="261.4"
                    x2="434.77"
                    y2="261.4"
                    stroke="#ddd"
                    stroke-dasharray="4,4"
                ></line>
                <line
                    id="100M-t"
                    x1="54.77"
                    y1="228"
                    x2="434.77"
                    y2="228"
                    stroke="#ddd"
                    stroke-dasharray="4,4"
                ></line>
                <line
                    id="1B-t"
                    x1="54.77"
                    y1="194.5"
                    x2="434.77"
                    y2="194.5"
                    stroke="#ddd"
                    stroke-dasharray="4,4"
                ></line>
                <line
                    id="10B-t"
                    x1="54.77"
                    y1="161"
                    x2="434.77"
                    y2="161"
                    stroke="#ddd"
                    stroke-dasharray="4,4"
                ></line>
            </g>
            <g id="lines">
                <path
                    fill="none"
                    stroke-linecap="butt"
                    stroke-linejoin="round"
                    stroke="#ffffff"
                    id="outline__Consumption-based-emissions"
                    stroke-width="2.5"
                    d="M388.8 170.9L390.2 171.2L391.6 170.6L393 170.5L394.4 170.2L395.8 170L397.2 169.6L398.6 169.3L400 168.9L401.4 168.4L402.8 167.8L404.1 168L405.5 167.7L406.9 167.3L408.3 167L409.7 166.7L411.1 166.8L412.5 166.9L413.9 167.7L415.3 169L416.7 168.5L418.1 168.9L419.5 169.3L420.9 169.1L422.2 168.8L423.6 168.9L425 169.2L426.4 169.3L427.8 168.9L429.2 169.1L430.6 170.5L432 169.5L433.4 169.3"
                ></path>
                <path
                    fill="none"
                    stroke-linecap="butt"
                    stroke-linejoin="round"
                    stroke="#b13507"
                    id="line__Consumption-based-emissions"
                    stroke-width="1.5"
                    stroke-opacity="1"
                    d="M388.8 170.9L390.2 171.2L391.6 170.6L393 170.5L394.4 170.2L395.8 170L397.2 169.6L398.6 169.3L400 168.9L401.4 168.4L402.8 167.8L404.1 168L405.5 167.7L406.9 167.3L408.3 167L409.7 166.7L411.1 166.8L412.5 166.9L413.9 167.7L415.3 169L416.7 168.5L418.1 168.9L419.5 169.3L420.9 169.1L422.2 168.8L423.6 168.9L425 169.2L426.4 169.3L427.8 168.9L429.2 169.1L430.6 170.5L432 169.5L433.4 169.3"
                ></path>
                <path
                    fill="none"
                    stroke-linecap="butt"
                    stroke-linejoin="round"
                    stroke="#ffffff"
                    id="outline__Territorial-emissions"
                    stroke-width="2.5"
                    d="M124.4 314.9L125.8 314.1L127.2 313L128.5 312.6L129.9 310.9L131.3 310.6L132.7 310.9L134.1 309.1L135.5 308.6L136.9 308.2L138.3 307.6L139.7 306.6L141.1 305.5L142.5 304.4L143.9 303.4L145.2 302.3L146.6 300.9L148 299.8L149.4 298.5L150.8 298.9L152.2 298.3L153.6 297.7L155 297.1L156.4 296.4L157.8 294.7L159.2 293.1L160.6 290.9L161.9 289.6L163.3 288.2L164.7 286.4L166.1 284.2L167.5 283L168.9 278.8L170.3 276.6L171.7 277.2L173.1 273.7L174.5 272.3L175.9 270.7L177.3 271.4L178.7 270.1L180 269.2L181.4 268.4L182.8 266.8L184.2 265.1L185.6 262.5L187 259.8L188.4 258L189.8 255.5L191.2 253.9L192.6 252.7L194 251.5L195.4 248.3L196.7 247.1L198.1 245.4L199.5 244L200.9 242L202.3 241.3L203.7 240.9L205.1 240.7L206.5 239.5L207.9 238.8L209.3 239.4L210.7 238.8L212.1 236.7L213.5 235.7L214.8 235.7L216.2 235.6L217.6 232.6L219 230.8L220.4 228.9L221.8 228.2L223.2 227.5L224.6 224.6L226 223.1L227.4 223.7L228.8 223.5L230.2 223.8L231.5 222.3L232.9 222.7L234.3 219.8L235.7 218L237.1 217.1L238.5 215.5L239.9 214.4L241.3 213.6L242.7 213.4L244.1 212.6L245.5 211.6L246.9 208.8L248.2 210.3L249.6 207.7L251 206.8L252.4 206.1L253.8 205.9L255.2 206.9L256.6 205.1L258 205.1L259.4 204.5L260.8 203.3L262.2 201.3L263.6 200.4L265 199.2L266.3 198.4L267.7 196.1L269.1 196.3L270.5 194.7L271.9 194L273.3 191.8L274.7 193.7L276.1 192.2L277.5 191L278.9 191.1L280.3 190.2L281.7 189.1L283 190.4L284.4 189.9L285.8 188.4L287.2 187L288.6 186.3L290 188.8L291.4 186.4L292.8 189.3L294.2 189.2L295.6 185.2L297 186.8L298.4 186.3L299.8 185.1L301.1 185.4L302.5 185.7L303.9 184.6L305.3 186.4L306.7 188.7L308.1 191.1L309.5 190.1L310.9 189.2L312.3 188.6L313.7 186.6L315.1 186L316.5 188.4L317.8 187L319.2 185.3L320.6 184.1L322 183L323.4 182.5L324.8 181.5L326.2 182L327.6 182.6L329 181.2L330.4 180.7L331.8 183.2L333.2 180.9L334.6 180.5L335.9 180.8L337.3 180.5L338.7 181.2L340.1 179.9L341.5 179.2L342.9 179.3L344.3 179.8L345.7 179.3L347.1 179L348.5 179L349.9 178.5L351.3 177.9L352.6 177.3L354 176.7L355.4 175.9L356.8 175.4L358.2 174.9L359.6 174.2L361 173.1L362.4 173L363.8 172.4L365.2 171.7L366.6 172.2L368 172.7L369.3 171.8L370.7 171.4L372.1 171.2L373.5 171L374.9 171.6L376.3 172L377.7 172.8L379.1 172.8L380.5 172.1L381.9 172.1L383.3 172.1L384.7 171.6L386.1 170.9L387.4 170.7L388.8 170.7L390.2 170.9L391.6 170.6L393 170.3L394.4 170L395.8 169.9L397.2 169.4L398.6 169.2L400 169.1L401.4 168.9L402.8 168.4L404.1 168.6L405.5 168.5L406.9 168.4L408.3 168.1L409.7 168.1L411.1 168.3L412.5 168.1L413.9 168.6L415.3 169.7L416.7 169.2L418.1 169.5L419.5 170.1L420.9 169.7L422.2 169.6L423.6 170L425 170.3L426.4 170.4L427.8 170L429.2 170.3L430.6 171.9L432 171L433.4 170.8L434.8 171.3"
                ></path>
                <path
                    fill="none"
                    stroke-linecap="butt"
                    stroke-linejoin="round"
                    stroke="#4c6a9c"
                    id="line__Territorial-emissions"
                    stroke-width="1.5"
                    stroke-opacity="1"
                    d="M124.4 314.9L125.8 314.1L127.2 313L128.5 312.6L129.9 310.9L131.3 310.6L132.7 310.9L134.1 309.1L135.5 308.6L136.9 308.2L138.3 307.6L139.7 306.6L141.1 305.5L142.5 304.4L143.9 303.4L145.2 302.3L146.6 300.9L148 299.8L149.4 298.5L150.8 298.9L152.2 298.3L153.6 297.7L155 297.1L156.4 296.4L157.8 294.7L159.2 293.1L160.6 290.9L161.9 289.6L163.3 288.2L164.7 286.4L166.1 284.2L167.5 283L168.9 278.8L170.3 276.6L171.7 277.2L173.1 273.7L174.5 272.3L175.9 270.7L177.3 271.4L178.7 270.1L180 269.2L181.4 268.4L182.8 266.8L184.2 265.1L185.6 262.5L187 259.8L188.4 258L189.8 255.5L191.2 253.9L192.6 252.7L194 251.5L195.4 248.3L196.7 247.1L198.1 245.4L199.5 244L200.9 242L202.3 241.3L203.7 240.9L205.1 240.7L206.5 239.5L207.9 238.8L209.3 239.4L210.7 238.8L212.1 236.7L213.5 235.7L214.8 235.7L216.2 235.6L217.6 232.6L219 230.8L220.4 228.9L221.8 228.2L223.2 227.5L224.6 224.6L226 223.1L227.4 223.7L228.8 223.5L230.2 223.8L231.5 222.3L232.9 222.7L234.3 219.8L235.7 218L237.1 217.1L238.5 215.5L239.9 214.4L241.3 213.6L242.7 213.4L244.1 212.6L245.5 211.6L246.9 208.8L248.2 210.3L249.6 207.7L251 206.8L252.4 206.1L253.8 205.9L255.2 206.9L256.6 205.1L258 205.1L259.4 204.5L260.8 203.3L262.2 201.3L263.6 200.4L265 199.2L266.3 198.4L267.7 196.1L269.1 196.3L270.5 194.7L271.9 194L273.3 191.8L274.7 193.7L276.1 192.2L277.5 191L278.9 191.1L280.3 190.2L281.7 189.1L283 190.4L284.4 189.9L285.8 188.4L287.2 187L288.6 186.3L290 188.8L291.4 186.4L292.8 189.3L294.2 189.2L295.6 185.2L297 186.8L298.4 186.3L299.8 185.1L301.1 185.4L302.5 185.7L303.9 184.6L305.3 186.4L306.7 188.7L308.1 191.1L309.5 190.1L310.9 189.2L312.3 188.6L313.7 186.6L315.1 186L316.5 188.4L317.8 187L319.2 185.3L320.6 184.1L322 183L323.4 182.5L324.8 181.5L326.2 182L327.6 182.6L329 181.2L330.4 180.7L331.8 183.2L333.2 180.9L334.6 180.5L335.9 180.8L337.3 180.5L338.7 181.2L340.1 179.9L341.5 179.2L342.9 179.3L344.3 179.8L345.7 179.3L347.1 179L348.5 179L349.9 178.5L351.3 177.9L352.6 177.3L354 176.7L355.4 175.9L356.8 175.4L358.2 174.9L359.6 174.2L361 173.1L362.4 173L363.8 172.4L365.2 171.7L366.6 172.2L368 172.7L369.3 171.8L370.7 171.4L372.1 171.2L373.5 171L374.9 171.6L376.3 172L377.7 172.8L379.1 172.8L380.5 172.1L381.9 172.1L383.3 172.1L384.7 171.6L386.1 170.9L387.4 170.7L388.8 170.7L390.2 170.9L391.6 170.6L393 170.3L394.4 170L395.8 169.9L397.2 169.4L398.6 169.2L400 169.1L401.4 168.9L402.8 168.4L404.1 168.6L405.5 168.5L406.9 168.4L408.3 168.1L409.7 168.1L411.1 168.3L412.5 168.1L413.9 168.6L415.3 169.7L416.7 169.2L418.1 169.5L419.5 170.1L420.9 169.7L422.2 169.6L423.6 170L425 170.3L426.4 170.4L427.8 170L429.2 170.3L430.6 171.9L432 171L433.4 170.8L434.8 171.3"
                ></path>
            </g>
        </g>
        <text
            x="451.77"
            y="145.0625"
            fill="#5b5b5b"
            font-size="15.75"
            style="font-weight: 700"
        >
            United Kingdom
            <title>United Kingdom</title>
        </text>
        <g id="United-Kingdom">
            <g id="horizontal-axis" class="HorizontalAxis">
                <g id="tick-marks">
                    <line
                        id="1750"
                        x1="451.8"
                        y1="314.4375"
                        x2="451.8"
                        y2="319.9375"
                        stroke="#999"
                        stroke-width="1"
                    ></line>
                    <line
                        id="2023"
                        x1="831.8"
                        y1="314.4375"
                        x2="831.8"
                        y2="319.9375"
                        stroke="#999"
                        stroke-width="1"
                    ></line>
                    <line
                        id="1800"
                        x1="521.4"
                        y1="314.4375"
                        x2="521.4"
                        y2="319.9375"
                        stroke="#999"
                        stroke-width="1"
                    ></line>
                    <line
                        id="1850"
                        x1="591"
                        y1="314.4375"
                        x2="591"
                        y2="319.9375"
                        stroke="#999"
                        stroke-width="1"
                    ></line>
                    <line
                        id="1900"
                        x1="660.6"
                        y1="314.4375"
                        x2="660.6"
                        y2="319.9375"
                        stroke="#999"
                        stroke-width="1"
                    ></line>
                    <line
                        id="1950"
                        x1="730.2"
                        y1="314.4375"
                        x2="730.2"
                        y2="319.9375"
                        stroke="#999"
                        stroke-width="1"
                    ></line>
                </g>
                <g id="tick-labels">
                    <text
                        x="451.77"
                        y="332.9375"
                        fill="#5b5b5b"
                        text-anchor="start"
                        font-size="11"
                    >
                        1750
                    </text>
                    <text
                        x="831.77"
                        y="332.9375"
                        fill="#5b5b5b"
                        text-anchor="end"
                        font-size="11"
                    >
                        2023
                    </text>
                    <text
                        x="521.4"
                        y="332.9375"
                        fill="#5b5b5b"
                        text-anchor="middle"
                        font-size="11"
                    >
                        1800
                    </text>
                    <text
                        x="591"
                        y="332.9375"
                        fill="#5b5b5b"
                        text-anchor="middle"
                        font-size="11"
                    >
                        1850
                    </text>
                    <text
                        x="660.6"
                        y="332.9375"
                        fill="#5b5b5b"
                        text-anchor="middle"
                        font-size="11"
                    >
                        1900
                    </text>
                    <text
                        x="730.2"
                        y="332.9375"
                        fill="#5b5b5b"
                        text-anchor="middle"
                        font-size="11"
                    >
                        1950
                    </text>
                </g>
            </g>
            <g id="horizontal-grid-lines" class="AxisGridLines horizontalLines">
                <line
                    id="1M-t"
                    x1="451.77"
                    y1="294.9"
                    x2="831.77"
                    y2="294.9"
                    stroke="#ddd"
                    stroke-dasharray="4,4"
                ></line>
                <line
                    id="10M-t"
                    x1="451.77"
                    y1="261.4"
                    x2="831.77"
                    y2="261.4"
                    stroke="#ddd"
                    stroke-dasharray="4,4"
                ></line>
                <line
                    id="100M-t"
                    x1="451.77"
                    y1="228"
                    x2="831.77"
                    y2="228"
                    stroke="#ddd"
                    stroke-dasharray="4,4"
                ></line>
                <line
                    id="1B-t"
                    x1="451.77"
                    y1="194.5"
                    x2="831.77"
                    y2="194.5"
                    stroke="#ddd"
                    stroke-dasharray="4,4"
                ></line>
                <line
                    id="10B-t"
                    x1="451.77"
                    y1="161"
                    x2="831.77"
                    y2="161"
                    stroke="#ddd"
                    stroke-dasharray="4,4"
                ></line>
            </g>
            <g id="lines">
                <path
                    fill="none"
                    stroke-linecap="butt"
                    stroke-linejoin="round"
                    stroke="#ffffff"
                    id="outline__Consumption-based-emissions"
                    stroke-width="2.5"
                    d="M785.8 200.3L787.2 200.1L788.6 199.8L790 200.6L791.4 200.7L792.8 200.9L794.2 200.3L795.6 200.3L797 199.8L798.4 200.1L799.8 198.8L801.1 199.1L802.5 199L803.9 198.7L805.3 198.5L806.7 198.7L808.1 198.6L809.5 198.7L810.9 199.3L812.3 201.3L813.7 200.2L815.1 201.7L816.5 201.1L817.9 201.5L819.2 202L820.6 202.2L822 202.6L823.4 203.3L824.8 203.7L826.2 204.2L827.6 205.8L829 204.4L830.4 204.9"
                ></path>
                <path
                    fill="none"
                    stroke-linecap="butt"
                    stroke-linejoin="round"
                    stroke="#b13507"
                    id="line__Consumption-based-emissions"
                    stroke-width="1.5"
                    stroke-opacity="1"
                    d="M785.8 200.3L787.2 200.1L788.6 199.8L790 200.6L791.4 200.7L792.8 200.9L794.2 200.3L795.6 200.3L797 199.8L798.4 200.1L799.8 198.8L801.1 199.1L802.5 199L803.9 198.7L805.3 198.5L806.7 198.7L808.1 198.6L809.5 198.7L810.9 199.3L812.3 201.3L813.7 200.2L815.1 201.7L816.5 201.1L817.9 201.5L819.2 202L820.6 202.2L822 202.6L823.4 203.3L824.8 203.7L826.2 204.2L827.6 205.8L829 204.4L830.4 204.9"
                ></path>
                <path
                    fill="none"
                    stroke-linecap="butt"
                    stroke-linejoin="round"
                    stroke="#ffffff"
                    id="outline__Territorial-emissions"
                    stroke-width="2.5"
                    d="M451.8 262.5L453.2 262.3L454.6 262.2L455.9 262L457.3 261.8L458.7 261.7L460.1 261.6L461.5 261.3L462.9 261.1L464.3 261L465.7 260.7L467.1 260.4L468.5 260.1L469.9 259.8L471.3 259.5L472.6 259.2L474 258.9L475.4 258.6L476.8 258.2L478.2 257.9L479.6 257.5L481 257.2L482.4 256.9L483.8 256.8L485.2 256.5L486.6 256.2L488 255.9L489.4 255.6L490.7 255.3L492.1 255L493.5 254.7L494.9 254.4L496.3 254.1L497.7 253.7L499.1 253.3L500.5 252.9L501.9 252.5L503.3 252.2L504.7 251.9L506.1 251.5L507.4 251.1L508.8 250.7L510.2 250.3L511.6 250.1L513 249.9L514.4 250.1L515.8 250.3L517.2 250.3L518.6 249.6L520 247.1L521.4 244.8L522.8 245.1L524.2 245.3L525.5 246.3L526.9 246.6L528.3 245.8L529.7 245L531.1 244.3L532.5 243.8L533.9 243.4L535.3 243.1L536.7 242.8L538.1 242.5L539.5 242.3L540.9 242L542.2 241.6L543.6 241.6L545 240.7L546.4 240L547.8 240.1L549.2 240.4L550.6 240.1L552 239.5L553.4 239L554.8 238.6L556.2 238.2L557.6 238L558.9 237.5L560.3 237.3L561.7 237.1L563.1 233.6L564.5 234.3L565.9 234.8L567.3 234.9L568.7 234L570.1 232.7L571.5 231.5L572.9 232.1L574.3 232.4L575.7 232L577 231.1L578.4 231L579.8 230.3L581.2 229.7L582.6 228.9L584 228L585.4 228.6L586.8 227.7L588.2 226.7L589.6 225.6L591 225L592.4 225.7L593.7 225.8L595.1 225.9L596.5 223.2L597.9 224.1L599.3 223.1L600.7 223.3L602.1 223.6L603.5 222.1L604.9 220.4L606.3 219.8L607.7 220.3L609.1 219.4L610.5 218.3L611.8 217.5L613.2 217L614.6 216.7L616 216.9L617.4 216.2L618.8 215.9L620.2 215.1L621.6 214.3L623 213.8L624.4 214.2L625.8 213.4L627.2 213.5L628.5 213.2L629.9 213.5L631.3 213.4L632.7 212.1L634.1 211.4L635.5 211.3L636.9 210.7L638.3 211.1L639.7 211.3L641.1 211.4L642.5 211L643.9 210.4L645.2 209.9L646.6 209.6L648 209.3L649.4 209.6L650.8 211.2L652.2 209.2L653.6 209.1L655 208.7L656.4 208.3L657.8 208.3L659.2 207.3L660.6 207.1L662 207.4L663.3 206.9L664.7 206.7L666.1 206.7L667.5 206.5L668.9 206L670.3 205.3L671.7 205.7L673.1 205.6L674.5 205.5L675.9 205.1L677.3 205.9L678.7 204.6L680 205L681.4 204.9L682.8 204.3L684.2 204.5L685.6 205.5L687 205.9L688.4 205.1L689.8 210.5L691.2 206.4L692.6 205.6L694 204.9L695.4 205.7L696.8 214L698.1 205.1L699.5 205.9L700.9 205.2L702.3 205.7L703.7 206.7L705.1 207.3L706.5 207.4L707.9 206.2L709.3 206L710.7 205.2L712.1 204.8L713.5 205.4L714.8 205.3L716.2 204.5L717.6 204.6L719 204.7L720.4 204.8L721.8 204.8L723.2 206L724.6 205.6L726 205L727.4 204.4L728.8 204.3L730.2 204.5L731.6 203.3L732.9 203.7L734.3 203.4L735.7 203.1L737.1 202.5L738.5 202.5L739.9 202.6L741.3 203L742.7 203.2L744.1 202.3L745.5 202.2L746.9 202.1L748.3 201.8L749.6 201.7L751 201.4L752.4 201.5L753.8 202.1L755.2 201.7L756.6 201.2L758 200.7L759.4 200.5L760.8 200.8L762.2 200.5L763.6 201.5L765 201.8L766.3 201.9L767.7 201.8L769.1 201.8L770.5 200.9L771.9 202.4L773.3 202.9L774.7 203.2L776.1 203.3L777.5 203.7L778.9 202.9L780.3 202.7L781.7 202.6L783.1 202.6L784.4 202.3L785.8 201.8L787.2 201.7L788.6 202L790 202.4L791.4 202.5L792.8 202.7L794.2 202.2L795.6 202.8L797 202.7L798.4 202.9L799.8 202.7L801.1 202.4L802.5 202.9L803.9 202.6L805.3 202.6L806.7 202.6L808.1 202.7L809.5 202.9L810.9 203.3L812.3 204.7L813.7 204.2L815.1 205.5L816.5 204.9L817.9 205.2L819.2 206.4L820.6 207L822 207.8L823.4 208.3L824.8 208.5L826.2 209.1L827.6 210.8L829 210L830.4 211.3L831.8 211.7"
                ></path>
                <path
                    fill="none"
                    stroke-linecap="butt"
                    stroke-linejoin="round"
                    stroke="#4c6a9c"
                    id="line__Territorial-emissions"
                    stroke-width="1.5"
                    stroke-opacity="1"
                    d="M451.8 262.5L453.2 262.3L454.6 262.2L455.9 262L457.3 261.8L458.7 261.7L460.1 261.6L461.5 261.3L462.9 261.1L464.3 261L465.7 260.7L467.1 260.4L468.5 260.1L469.9 259.8L471.3 259.5L472.6 259.2L474 258.9L475.4 258.6L476.8 258.2L478.2 257.9L479.6 257.5L481 257.2L482.4 256.9L483.8 256.8L485.2 256.5L486.6 256.2L488 255.9L489.4 255.6L490.7 255.3L492.1 255L493.5 254.7L494.9 254.4L496.3 254.1L497.7 253.7L499.1 253.3L500.5 252.9L501.9 252.5L503.3 252.2L504.7 251.9L506.1 251.5L507.4 251.1L508.8 250.7L510.2 250.3L511.6 250.1L513 249.9L514.4 250.1L515.8 250.3L517.2 250.3L518.6 249.6L520 247.1L521.4 244.8L522.8 245.1L524.2 245.3L525.5 246.3L526.9 246.6L528.3 245.8L529.7 245L531.1 244.3L532.5 243.8L533.9 243.4L535.3 243.1L536.7 242.8L538.1 242.5L539.5 242.3L540.9 242L542.2 241.6L543.6 241.6L545 240.7L546.4 240L547.8 240.1L549.2 240.4L550.6 240.1L552 239.5L553.4 239L554.8 238.6L556.2 238.2L557.6 238L558.9 237.5L560.3 237.3L561.7 237.1L563.1 233.6L564.5 234.3L565.9 234.8L567.3 234.9L568.7 234L570.1 232.7L571.5 231.5L572.9 232.1L574.3 232.4L575.7 232L577 231.1L578.4 231L579.8 230.3L581.2 229.7L582.6 228.9L584 228L585.4 228.6L586.8 227.7L588.2 226.7L589.6 225.6L591 225L592.4 225.7L593.7 225.8L595.1 225.9L596.5 223.2L597.9 224.1L599.3 223.1L600.7 223.3L602.1 223.6L603.5 222.1L604.9 220.4L606.3 219.8L607.7 220.3L609.1 219.4L610.5 218.3L611.8 217.5L613.2 217L614.6 216.7L616 216.9L617.4 216.2L618.8 215.9L620.2 215.1L621.6 214.3L623 213.8L624.4 214.2L625.8 213.4L627.2 213.5L628.5 213.2L629.9 213.5L631.3 213.4L632.7 212.1L634.1 211.4L635.5 211.3L636.9 210.7L638.3 211.1L639.7 211.3L641.1 211.4L642.5 211L643.9 210.4L645.2 209.9L646.6 209.6L648 209.3L649.4 209.6L650.8 211.2L652.2 209.2L653.6 209.1L655 208.7L656.4 208.3L657.8 208.3L659.2 207.3L660.6 207.1L662 207.4L663.3 206.9L664.7 206.7L666.1 206.7L667.5 206.5L668.9 206L670.3 205.3L671.7 205.7L673.1 205.6L674.5 205.5L675.9 205.1L677.3 205.9L678.7 204.6L680 205L681.4 204.9L682.8 204.3L684.2 204.5L685.6 205.5L687 205.9L688.4 205.1L689.8 210.5L691.2 206.4L692.6 205.6L694 204.9L695.4 205.7L696.8 214L698.1 205.1L699.5 205.9L700.9 205.2L702.3 205.7L703.7 206.7L705.1 207.3L706.5 207.4L707.9 206.2L709.3 206L710.7 205.2L712.1 204.8L713.5 205.4L714.8 205.3L716.2 204.5L717.6 204.6L719 204.7L720.4 204.8L721.8 204.8L723.2 206L724.6 205.6L726 205L727.4 204.4L728.8 204.3L730.2 204.5L731.6 203.3L732.9 203.7L734.3 203.4L735.7 203.1L737.1 202.5L738.5 202.5L739.9 202.6L741.3 203L742.7 203.2L744.1 202.3L745.5 202.2L746.9 202.1L748.3 201.8L749.6 201.7L751 201.4L752.4 201.5L753.8 202.1L755.2 201.7L756.6 201.2L758 200.7L759.4 200.5L760.8 200.8L762.2 200.5L763.6 201.5L765 201.8L766.3 201.9L767.7 201.8L769.1 201.8L770.5 200.9L771.9 202.4L773.3 202.9L774.7 203.2L776.1 203.3L777.5 203.7L778.9 202.9L780.3 202.7L781.7 202.6L783.1 202.6L784.4 202.3L785.8 201.8L787.2 201.7L788.6 202L790 202.4L791.4 202.5L792.8 202.7L794.2 202.2L795.6 202.8L797 202.7L798.4 202.9L799.8 202.7L801.1 202.4L802.5 202.9L803.9 202.6L805.3 202.6L806.7 202.6L808.1 202.7L809.5 202.9L810.9 203.3L812.3 204.7L813.7 204.2L815.1 205.5L816.5 204.9L817.9 205.2L819.2 206.4L820.6 207L822 207.8L823.4 208.3L824.8 208.5L826.2 209.1L827.6 210.8L829 210L830.4 211.3L831.8 211.7"
                ></path>
            </g>
        </g>
        <text
            x="54.77"
            y="364.0625"
            fill="#5b5b5b"
            font-size="15.75"
            style="font-weight: 700"
        >
            China
            <title>China</title>
        </text>
        <g id="China">
            <g id="horizontal-axis" class="HorizontalAxis">
                <g id="tick-marks">
                    <line
                        id="1750"
                        x1="54.8"
                        y1="533.4375"
                        x2="54.8"
                        y2="538.9375"
                        stroke="#999"
                        stroke-width="1"
                    ></line>
                    <line
                        id="2023"
                        x1="434.8"
                        y1="533.4375"
                        x2="434.8"
                        y2="538.9375"
                        stroke="#999"
                        stroke-width="1"
                    ></line>
                    <line
                        id="1800"
                        x1="124.4"
                        y1="533.4375"
                        x2="124.4"
                        y2="538.9375"
                        stroke="#999"
                        stroke-width="1"
                    ></line>
                    <line
                        id="1850"
                        x1="194"
                        y1="533.4375"
                        x2="194"
                        y2="538.9375"
                        stroke="#999"
                        stroke-width="1"
                    ></line>
                    <line
                        id="1900"
                        x1="263.6"
                        y1="533.4375"
                        x2="263.6"
                        y2="538.9375"
                        stroke="#999"
                        stroke-width="1"
                    ></line>
                    <line
                        id="1950"
                        x1="333.2"
                        y1="533.4375"
                        x2="333.2"
                        y2="538.9375"
                        stroke="#999"
                        stroke-width="1"
                    ></line>
                </g>
                <g id="tick-labels">
                    <text
                        x="54.77"
                        y="551.9375"
                        fill="#5b5b5b"
                        text-anchor="start"
                        font-size="11"
                    >
                        1750
                    </text>
                    <text
                        x="434.77"
                        y="551.9375"
                        fill="#5b5b5b"
                        text-anchor="end"
                        font-size="11"
                    >
                        2023
                    </text>
                    <text
                        x="124.4"
                        y="551.9375"
                        fill="#5b5b5b"
                        text-anchor="middle"
                        font-size="11"
                    >
                        1800
                    </text>
                    <text
                        x="194"
                        y="551.9375"
                        fill="#5b5b5b"
                        text-anchor="middle"
                        font-size="11"
                    >
                        1850
                    </text>
                    <text
                        x="263.6"
                        y="551.9375"
                        fill="#5b5b5b"
                        text-anchor="middle"
                        font-size="11"
                    >
                        1900
                    </text>
                    <text
                        x="333.2"
                        y="551.9375"
                        fill="#5b5b5b"
                        text-anchor="middle"
                        font-size="11"
                    >
                        1950
                    </text>
                </g>
            </g>
            <g id="vertical-axis" class="VerticalAxis">
                <g id="tick-labels">
                    <text
                        x="49.77"
                        y="513.9"
                        dy=".32em"
                        text-anchor="end"
                        fill="#5b5b5b"
                        font-size="11"
                    >
                        1M t
                    </text>
                    <text
                        x="49.77"
                        y="480.4"
                        dy=".32em"
                        text-anchor="end"
                        fill="#5b5b5b"
                        font-size="11"
                    >
                        10M t
                    </text>
                    <text
                        x="49.77"
                        y="447"
                        dy=".32em"
                        text-anchor="end"
                        fill="#5b5b5b"
                        font-size="11"
                    >
                        100M t
                    </text>
                    <text
                        x="49.77"
                        y="413.5"
                        dy=".32em"
                        text-anchor="end"
                        fill="#5b5b5b"
                        font-size="11"
                    >
                        1B t
                    </text>
                    <text
                        x="49.77"
                        y="380"
                        dy=".32em"
                        text-anchor="end"
                        fill="#5b5b5b"
                        font-size="11"
                    >
                        10B t
                    </text>
                </g>
            </g>
            <g id="horizontal-grid-lines" class="AxisGridLines horizontalLines">
                <line
                    id="1M-t"
                    x1="54.77"
                    y1="513.9"
                    x2="434.77"
                    y2="513.9"
                    stroke="#ddd"
                    stroke-dasharray="4,4"
                ></line>
                <line
                    id="10M-t"
                    x1="54.77"
                    y1="480.4"
                    x2="434.77"
                    y2="480.4"
                    stroke="#ddd"
                    stroke-dasharray="4,4"
                ></line>
                <line
                    id="100M-t"
                    x1="54.77"
                    y1="447"
                    x2="434.77"
                    y2="447"
                    stroke="#ddd"
                    stroke-dasharray="4,4"
                ></line>
                <line
                    id="1B-t"
                    x1="54.77"
                    y1="413.5"
                    x2="434.77"
                    y2="413.5"
                    stroke="#ddd"
                    stroke-dasharray="4,4"
                ></line>
                <line
                    id="10B-t"
                    x1="54.77"
                    y1="380"
                    x2="434.77"
                    y2="380"
                    stroke="#ddd"
                    stroke-dasharray="4,4"
                ></line>
            </g>
            <g id="lines">
                <path
                    fill="none"
                    stroke-linecap="butt"
                    stroke-linejoin="round"
                    stroke="#ffffff"
                    id="outline__Consumption-based-emissions"
                    stroke-width="2.5"
                    d="M388.8 401.2L390.2 400.7L391.6 399.7L393 398.7L394.4 398.7L395.8 397.5L397.2 396.9L398.6 397.2L400 397.7L401.4 396.7L402.8 396.3L404.1 395.8L405.5 394.6L406.9 393L408.3 392.2L409.7 390.9L411.1 389.7L412.5 388.5L413.9 387.5L415.3 385.8L416.7 384.5L418.1 383L419.5 382.3L420.9 382L422.2 381.8L423.6 381.7L425 381.7L426.4 381.3L427.8 380.6L429.2 380.1L430.6 380L432 379.4L433.4 379.5"
                ></path>
                <path
                    fill="none"
                    stroke-linecap="butt"
                    stroke-linejoin="round"
                    stroke="#b13507"
                    id="line__Consumption-based-emissions"
                    stroke-width="1.5"
                    stroke-opacity="1"
                    d="M388.8 401.2L390.2 400.7L391.6 399.7L393 398.7L394.4 398.7L395.8 397.5L397.2 396.9L398.6 397.2L400 397.7L401.4 396.7L402.8 396.3L404.1 395.8L405.5 394.6L406.9 393L408.3 392.2L409.7 390.9L411.1 389.7L412.5 388.5L413.9 387.5L415.3 385.8L416.7 384.5L418.1 383L419.5 382.3L420.9 382L422.2 381.8L423.6 381.7L425 381.7L426.4 381.3L427.8 380.6L429.2 380.1L430.6 380L432 379.4L433.4 379.5"
                ></path>
                <path
                    fill="none"
                    stroke-linecap="butt"
                    stroke-linejoin="round"
                    stroke="#ffffff"
                    id="outline__Territorial-emissions"
                    stroke-width="2.5"
                    d="M273.3 470.4L274.7 468.5L276.1 467.6L277.5 467.1L278.9 467.3L280.3 472.7L281.7 467.6L283 466.2L284.4 466.9L285.8 464.4L287.2 463.5L288.6 462.3L290 461L291.4 460.2L292.8 460.7L294.2 460.3L295.6 458.1L297 457.4L298.4 458.3L299.8 459L301.1 458.3L302.5 457.8L303.9 457.5L305.3 457.2L306.7 456.5L308.1 457L309.5 455.9L310.9 453.8L312.3 451.6L313.7 451L315.1 451.9L316.5 454.1L317.8 451.2L319.2 448.4L320.6 445.1L322 443.4L323.4 445.7L324.8 446.5L326.2 455.4L327.6 461.8L329 459.6L330.4 460.9L331.8 453.9L333.2 450.4L334.6 446.6L335.9 443.4L337.3 442.7L338.7 440L340.1 437.6L341.5 435.8L342.9 433.3L344.3 422.8L345.7 418.2L347.1 416.7L348.5 421.6L349.9 424.8L351.3 424.9L352.6 424.7L354 423.5L355.4 422.2L356.8 424.7L358.2 423.7L359.6 420.7L361 416.6L362.4 414.8L363.8 413.9L365.2 413.3L366.6 413.1L368 411L369.3 410.5L370.7 409.2L372.1 407.6L373.5 407.3L374.9 407.6L376.3 407.8L377.7 406.6L379.1 405.8L380.5 404.6L381.9 403.4L383.3 402.6L384.7 401.6L386.1 400.6L387.4 400.3L388.8 400.2L390.2 399.5L391.6 398.9L393 397.9L394.4 397L395.8 395.8L397.2 395.2L398.6 395.2L400 395.8L401.4 395L402.8 394.6L404.1 394.3L405.5 392.9L406.9 390.5L408.3 389.4L409.7 387.7L411.1 386.2L412.5 385.2L413.9 384.2L415.3 383.4L416.7 382.1L418.1 380.7L419.5 380.3L420.9 380L422.2 380L423.6 380.2L425 380.3L426.4 380L427.8 379.5L429.2 379L430.6 378.7L432 378L433.4 378.1L434.8 377.4"
                ></path>
                <path
                    fill="none"
                    stroke-linecap="butt"
                    stroke-linejoin="round"
                    stroke="#4c6a9c"
                    id="line__Territorial-emissions"
                    stroke-width="1.5"
                    stroke-opacity="1"
                    d="M273.3 470.4L274.7 468.5L276.1 467.6L277.5 467.1L278.9 467.3L280.3 472.7L281.7 467.6L283 466.2L284.4 466.9L285.8 464.4L287.2 463.5L288.6 462.3L290 461L291.4 460.2L292.8 460.7L294.2 460.3L295.6 458.1L297 457.4L298.4 458.3L299.8 459L301.1 458.3L302.5 457.8L303.9 457.5L305.3 457.2L306.7 456.5L308.1 457L309.5 455.9L310.9 453.8L312.3 451.6L313.7 451L315.1 451.9L316.5 454.1L317.8 451.2L319.2 448.4L320.6 445.1L322 443.4L323.4 445.7L324.8 446.5L326.2 455.4L327.6 461.8L329 459.6L330.4 460.9L331.8 453.9L333.2 450.4L334.6 446.6L335.9 443.4L337.3 442.7L338.7 440L340.1 437.6L341.5 435.8L342.9 433.3L344.3 422.8L345.7 418.2L347.1 416.7L348.5 421.6L349.9 424.8L351.3 424.9L352.6 424.7L354 423.5L355.4 422.2L356.8 424.7L358.2 423.7L359.6 420.7L361 416.6L362.4 414.8L363.8 413.9L365.2 413.3L366.6 413.1L368 411L369.3 410.5L370.7 409.2L372.1 407.6L373.5 407.3L374.9 407.6L376.3 407.8L377.7 406.6L379.1 405.8L380.5 404.6L381.9 403.4L383.3 402.6L384.7 401.6L386.1 400.6L387.4 400.3L388.8 400.2L390.2 399.5L391.6 398.9L393 397.9L394.4 397L395.8 395.8L397.2 395.2L398.6 395.2L400 395.8L401.4 395L402.8 394.6L404.1 394.3L405.5 392.9L406.9 390.5L408.3 389.4L409.7 387.7L411.1 386.2L412.5 385.2L413.9 384.2L415.3 383.4L416.7 382.1L418.1 380.7L419.5 380.3L420.9 380L422.2 380L423.6 380.2L425 380.3L426.4 380L427.8 379.5L429.2 379L430.6 378.7L432 378L433.4 378.1L434.8 377.4"
                ></path>
            </g>
        </g>
        <text
            x="451.77"
            y="364.0625"
            fill="#5b5b5b"
            font-size="15.75"
            style="font-weight: 700"
        >
            India
            <title>India</title>
        </text>
        <g id="India">
            <g id="horizontal-axis" class="HorizontalAxis">
                <g id="tick-marks">
                    <line
                        id="1750"
                        x1="451.8"
                        y1="533.4375"
                        x2="451.8"
                        y2="538.9375"
                        stroke="#999"
                        stroke-width="1"
                    ></line>
                    <line
                        id="2023"
                        x1="831.8"
                        y1="533.4375"
                        x2="831.8"
                        y2="538.9375"
                        stroke="#999"
                        stroke-width="1"
                    ></line>
                    <line
                        id="1800"
                        x1="521.4"
                        y1="533.4375"
                        x2="521.4"
                        y2="538.9375"
                        stroke="#999"
                        stroke-width="1"
                    ></line>
                    <line
                        id="1850"
                        x1="591"
                        y1="533.4375"
                        x2="591"
                        y2="538.9375"
                        stroke="#999"
                        stroke-width="1"
                    ></line>
                    <line
                        id="1900"
                        x1="660.6"
                        y1="533.4375"
                        x2="660.6"
                        y2="538.9375"
                        stroke="#999"
                        stroke-width="1"
                    ></line>
                    <line
                        id="1950"
                        x1="730.2"
                        y1="533.4375"
                        x2="730.2"
                        y2="538.9375"
                        stroke="#999"
                        stroke-width="1"
                    ></line>
                </g>
                <g id="tick-labels">
                    <text
                        x="451.77"
                        y="551.9375"
                        fill="#5b5b5b"
                        text-anchor="start"
                        font-size="11"
                    >
                        1750
                    </text>
                    <text
                        x="831.77"
                        y="551.9375"
                        fill="#5b5b5b"
                        text-anchor="end"
                        font-size="11"
                    >
                        2023
                    </text>
                    <text
                        x="521.4"
                        y="551.9375"
                        fill="#5b5b5b"
                        text-anchor="middle"
                        font-size="11"
                    >
                        1800
                    </text>
                    <text
                        x="591"
                        y="551.9375"
                        fill="#5b5b5b"
                        text-anchor="middle"
                        font-size="11"
                    >
                        1850
                    </text>
                    <text
                        x="660.6"
                        y="551.9375"
                        fill="#5b5b5b"
                        text-anchor="middle"
                        font-size="11"
                    >
                        1900
                    </text>
                    <text
                        x="730.2"
                        y="551.9375"
                        fill="#5b5b5b"
                        text-anchor="middle"
                        font-size="11"
                    >
                        1950
                    </text>
                </g>
            </g>
            <g id="horizontal-grid-lines" class="AxisGridLines horizontalLines">
                <line
                    id="1M-t"
                    x1="451.77"
                    y1="513.9"
                    x2="831.77"
                    y2="513.9"
                    stroke="#ddd"
                    stroke-dasharray="4,4"
                ></line>
                <line
                    id="10M-t"
                    x1="451.77"
                    y1="480.4"
                    x2="831.77"
                    y2="480.4"
                    stroke="#ddd"
                    stroke-dasharray="4,4"
                ></line>
                <line
                    id="100M-t"
                    x1="451.77"
                    y1="447"
                    x2="831.77"
                    y2="447"
                    stroke="#ddd"
                    stroke-dasharray="4,4"
                ></line>
                <line
                    id="1B-t"
                    x1="451.77"
                    y1="413.5"
                    x2="831.77"
                    y2="413.5"
                    stroke="#ddd"
                    stroke-dasharray="4,4"
                ></line>
                <line
                    id="10B-t"
                    x1="451.77"
                    y1="380"
                    x2="831.77"
                    y2="380"
                    stroke="#ddd"
                    stroke-dasharray="4,4"
                ></line>
            </g>
            <g id="lines">
                <path
                    fill="none"
                    stroke-linecap="butt"
                    stroke-linejoin="round"
                    stroke="#ffffff"
                    id="outline__Consumption-based-emissions"
                    stroke-width="2.5"
                    d="M785.8 421.5L787.2 421L788.6 419.8L790 419.7L791.4 419L792.8 418.3L794.2 417.3L795.6 416.6L797 416.4L798.4 414.7L799.8 414.7L801.1 414.6L802.5 414.4L803.9 413.6L805.3 412.8L806.7 412L808.1 411.1L809.5 409.7L810.9 408.8L812.3 407.3L813.7 406.8L815.1 406.4L816.5 405L817.9 405.1L819.2 403.7L820.6 402.7L822 402.1L823.4 401.5L824.8 400.5L826.2 400.4L827.6 401.7L829 400.4L830.4 399.7"
                ></path>
                <path
                    fill="none"
                    stroke-linecap="butt"
                    stroke-linejoin="round"
                    stroke="#b13507"
                    id="line__Consumption-based-emissions"
                    stroke-width="1.5"
                    stroke-opacity="1"
                    d="M785.8 421.5L787.2 421L788.6 419.8L790 419.7L791.4 419L792.8 418.3L794.2 417.3L795.6 416.6L797 416.4L798.4 414.7L799.8 414.7L801.1 414.6L802.5 414.4L803.9 413.6L805.3 412.8L806.7 412L808.1 411.1L809.5 409.7L810.9 408.8L812.3 407.3L813.7 406.8L815.1 406.4L816.5 405L817.9 405.1L819.2 403.7L820.6 402.7L822 402.1L823.4 401.5L824.8 400.5L826.2 400.4L827.6 401.7L829 400.4L830.4 399.7"
                ></path>
                <path
                    fill="none"
                    stroke-linecap="butt"
                    stroke-linejoin="round"
                    stroke="#ffffff"
                    id="outline__Territorial-emissions"
                    stroke-width="2.5"
                    d="M602.1 527.5L603.5 520.5L604.9 520.4L606.3 524.1L607.7 522.6L609.1 521.1L610.5 521.9L611.8 522.2L613.2 520.4L629.9 505.7L631.3 506.4L632.7 504.7L634.1 505.1L635.5 502.5L636.9 501L638.3 499.3L639.7 500.8L641.1 499.1L642.5 497.6L643.9 496.1L645.2 493.7L646.6 492.3L648 491.2L649.4 489.8L650.8 489L652.2 488.8L653.6 485.6L655 484.4L656.4 483.2L657.8 481.8L659.2 480.4L660.6 477.9L662 476.4L663.3 475L664.7 474.7L666.1 473.1L667.5 472.8L668.9 470.7L670.3 469.1L671.7 467.2L673.1 467.6L674.5 468L675.9 467.2L677.3 465.2L678.7 463.8L680 463.7L681.4 463L682.8 462.9L684.2 462.2L685.6 460.5L687 459.2L688.4 462.3L689.8 461.2L691.2 461.5L692.6 461L694 460.1L695.4 460.3L696.8 460.3L698.1 459.6L699.5 460.3L700.9 459.7L702.3 459.4L703.7 460.7L705.1 461.8L706.5 462L707.9 460.4L709.3 459.8L710.7 460L712.1 458.5L713.5 456.9L714.8 457.2L716.2 456.4L717.6 456L719 456L720.4 458L721.8 457.7L723.2 456.2L724.6 456.4L726 456.1L727.4 456.1L728.8 455.3L730.2 454.1L731.6 453.4L732.9 452.7L734.3 452.4L735.7 451.6L737.1 450.4L738.5 449.9L739.9 448.2L741.3 447.6L742.7 446.7L744.1 445.4L745.5 444.3L746.9 442.9L748.3 441.8L749.6 442.1L751 440.7L752.4 440.2L753.8 440.2L755.2 438.9L756.6 438.6L758 438.3L759.4 437.5L760.8 436.7L762.2 436.2L763.6 435.8L765 434.6L766.3 433.9L767.7 433.1L769.1 432.9L770.5 432.2L771.9 431.4L773.3 430.3L774.7 429.8L776.1 428.6L777.5 428.3L778.9 426.9L780.3 425.9L781.7 424.9L783.1 423.8L784.4 422.4L785.8 421.4L787.2 420.5L788.6 419.6L790 419.1L791.4 418.4L792.8 417.4L794.2 416.3L795.6 415.7L797 415.4L798.4 414L799.8 413.7L801.1 413.5L802.5 413L803.9 412.5L805.3 411.6L806.7 410.9L808.1 409.7L809.5 408.6L810.9 407.7L812.3 406.5L813.7 405.9L815.1 405.2L816.5 403.9L817.9 403.4L819.2 402.3L820.6 401.8L822 401L823.4 400.6L824.8 399.6L826.2 399.5L827.6 400.6L829 399.2L830.4 398.3L831.8 397.2"
                ></path>
                <path
                    fill="none"
                    stroke-linecap="butt"
                    stroke-linejoin="round"
                    stroke="#4c6a9c"
                    id="line__Territorial-emissions"
                    stroke-width="1.5"
                    stroke-opacity="1"
                    d="M602.1 527.5L603.5 520.5L604.9 520.4L606.3 524.1L607.7 522.6L609.1 521.1L610.5 521.9L611.8 522.2L613.2 520.4L629.9 505.7L631.3 506.4L632.7 504.7L634.1 505.1L635.5 502.5L636.9 501L638.3 499.3L639.7 500.8L641.1 499.1L642.5 497.6L643.9 496.1L645.2 493.7L646.6 492.3L648 491.2L649.4 489.8L650.8 489L652.2 488.8L653.6 485.6L655 484.4L656.4 483.2L657.8 481.8L659.2 480.4L660.6 477.9L662 476.4L663.3 475L664.7 474.7L666.1 473.1L667.5 472.8L668.9 470.7L670.3 469.1L671.7 467.2L673.1 467.6L674.5 468L675.9 467.2L677.3 465.2L678.7 463.8L680 463.7L681.4 463L682.8 462.9L684.2 462.2L685.6 460.5L687 459.2L688.4 462.3L689.8 461.2L691.2 461.5L692.6 461L694 460.1L695.4 460.3L696.8 460.3L698.1 459.6L699.5 460.3L700.9 459.7L702.3 459.4L703.7 460.7L705.1 461.8L706.5 462L707.9 460.4L709.3 459.8L710.7 460L712.1 458.5L713.5 456.9L714.8 457.2L716.2 456.4L717.6 456L719 456L720.4 458L721.8 457.7L723.2 456.2L724.6 456.4L726 456.1L727.4 456.1L728.8 455.3L730.2 454.1L731.6 453.4L732.9 452.7L734.3 452.4L735.7 451.6L737.1 450.4L738.5 449.9L739.9 448.2L741.3 447.6L742.7 446.7L744.1 445.4L745.5 444.3L746.9 442.9L748.3 441.8L749.6 442.1L751 440.7L752.4 440.2L753.8 440.2L755.2 438.9L756.6 438.6L758 438.3L759.4 437.5L760.8 436.7L762.2 436.2L763.6 435.8L765 434.6L766.3 433.9L767.7 433.1L769.1 432.9L770.5 432.2L771.9 431.4L773.3 430.3L774.7 429.8L776.1 428.6L777.5 428.3L778.9 426.9L780.3 425.9L781.7 424.9L783.1 423.8L784.4 422.4L785.8 421.4L787.2 420.5L788.6 419.6L790 419.1L791.4 418.4L792.8 417.4L794.2 416.3L795.6 415.7L797 415.4L798.4 414L799.8 413.7L801.1 413.5L802.5 413L803.9 412.5L805.3 411.6L806.7 410.9L808.1 409.7L809.5 408.6L810.9 407.7L812.3 406.5L813.7 405.9L815.1 405.2L816.5 403.9L817.9 403.4L819.2 402.3L820.6 401.8L822 401L823.4 400.6L824.8 399.6L826.2 399.5L827.6 400.6L829 399.2L830.4 398.3L831.8 397.2"
                ></path>
            </g>
        </g>
    </g>
    <g id="footer" class="SourcesFooter" style="fill: #858585">
        <g id="sources" class="markdown-text-wrap">
            <text x="16.0" y="581.0" style="font-size: 13px; line-height: 1.2">
                <tspan x="16" y="581.0">
                    <tspan style="font-weight: 700">Data source:</tspan>
                    Global Carbon Budget (2024)
                </tspan>
            </text>
        </g>
        <text id="origin-url" font-size="13.00" x="456.1" y="581.0">
            <tspan x="456.09" y="581.01">
                <a
                    target="_blank"
                    style="fill: #858585"
                    href="https://ourworldindata.org/co2-and-greenhouse-gas-emissions"
                >
                    OurWorldinData.org/co2-and-greenhouse-gas-emissions
                </a>
                |
                <a
                    target="_blank"
                    style="fill: #858585"
                    href="https://creativecommons.org/licenses/by/4.0/"
                >
                    CC BY
                </a>
            </tspan>
        </text>
    </g>
</svg>
