<svg xmlns="http://www.w3.org/2000/svg" version="1.1" style="font-family:Lato, &#x27;Helvetica Neue&#x27;, Helvetica, Arial, &#x27;Liberation Sans&#x27;, sans-serif;font-size:18px;background-color:white;text-rendering:geometricPrecision;-webkit-font-smoothing:antialiased" width="850" height="600" viewBox="0 0 850 600"><defs><style>@import url(https://ourworldindata.org/fonts.css)</style></defs><defs><pattern id="noDataPattern" patternUnits="userSpaceOnUse" width="4" height="4" patternTransform="rotate(-45 2 2)"><path d="M -1,2 l 6,0" stroke="#ccc" stroke-width="0.7"></path></pattern></defs><rect class="background-fill" fill="white" width="850" height="600"></rect><g id="header" class="HeaderView"><g id="logo" transform="translate(769, 16) scale(1)"><svg className="owidLogo" xmlns="http://www.w3.org/2000/svg" width="65" height="36" viewBox="0 0 65 36"  fill="none"><path fill="#002147" d="M0 0h64.8v36H0z"/><path fill="#CE261E" d="M0 33.3h64.8V36H0z"/><path fill="#fff" d="M13.796 10.575c0 .636-.106 1.226-.318 1.77a4.193 4.193 0 0 1-.894 1.404 4.084 4.084 0 0 1-1.386.93c-.54.22-1.138.33-1.794.33-.656 0-1.256-.11-1.8-.33a4.149 4.149 0 0 1-1.392-.93 4.193 4.193 0 0 1-.894-1.404A4.833 4.833 0 0 1 5 10.575c0-.636.106-1.224.318-1.764a4.18 4.18 0 0 1 .894-1.41 4.076 4.076 0 0 1 1.392-.924 4.684 4.684 0 0 1 1.8-.336c.656 0 1.254.112 1.794.336.54.224 1.002.534 1.386.93.384.392.682.86.894 1.404.212.54.318 1.128.318 1.764Zm-1.656 0c0-.476-.064-.902-.192-1.278a2.671 2.671 0 0 0-.54-.966 2.332 2.332 0 0 0-.864-.606 2.94 2.94 0 0 0-1.14-.21c-.424 0-.806.07-1.146.21-.34.14-.63.342-.87.606a2.742 2.742 0 0 0-.546.966 3.955 3.955 0 0 0-.192 1.278c0 .476.064.904.192 1.284.128.376.31.696.546.96.24.26.53.46.87.6.34.14.722.21 1.146.21.424 0 .804-.07 1.14-.21.34-.14.628-.34.864-.6.236-.264.416-.584.54-.96a4.01 4.01 0 0 0 .192-1.284ZM16.104 8.757v3.912c0 .376.086.668.258.876.176.204.438.306.786.306.256 0 .496-.056.72-.168a2.58 2.58 0 0 0 .636-.474V8.757h1.482v6.156h-.906c-.192 0-.318-.09-.378-.27l-.102-.492a4.65 4.65 0 0 1-.396.354 2.577 2.577 0 0 1-.438.27 2.35 2.35 0 0 1-.498.168 2.345 2.345 0 0 1-.57.066c-.336 0-.634-.056-.894-.168a1.821 1.821 0 0 1-.648-.486 2.157 2.157 0 0 1-.402-.738 3.233 3.233 0 0 1-.132-.948V8.757h1.482ZM21.328 14.913V8.757h.87c.152 0 .258.028.318.084.06.056.1.152.12.288l.09.744c.22-.38.478-.68.774-.9.296-.22.628-.33.996-.33.304 0 .556.07.756.21l-.192 1.11c-.012.072-.038.124-.078.156a.278.278 0 0 1-.162.042 1.01 1.01 0 0 1-.246-.042 1.646 1.646 0 0 0-.414-.042c-.308 0-.572.086-.792.258-.22.168-.406.416-.558.744v3.834h-1.482ZM27.347 6.237h1.356a.57.57 0 0 1 .348.102c.096.064.16.152.192.264l1.476 5.19c.036.128.068.268.096.42.032.148.062.306.09.474a5.968 5.968 0 0 1 .228-.894l1.704-5.19a.575.575 0 0 1 .186-.252.543.543 0 0 1 .348-.114h.474a.57.57 0 0 1 .348.102.497.497 0 0 1 .192.264l1.692 5.19c.088.256.164.54.228.852.028-.156.056-.306.084-.45.032-.144.064-.278.096-.402l1.476-5.19c.028-.1.09-.186.186-.258a.563.563 0 0 1 .348-.108h1.266l-2.694 8.676h-1.458l-1.896-5.928-.078-.246a9.504 9.504 0 0 1-.072-.282c-.024.1-.05.194-.078.282-.024.088-.048.17-.072.246l-1.914 5.928H30.04l-2.694-8.676ZM42.771 8.661c.46 0 .876.074 1.248.222.376.148.696.358.96.63s.468.604.612.996c.144.392.216.83.216 1.314 0 .488-.072.928-.216 1.32a2.85 2.85 0 0 1-.612 1.002 2.653 2.653 0 0 1-.96.636 3.35 3.35 0 0 1-1.248.222c-.46 0-.878-.074-1.254-.222a2.712 2.712 0 0 1-.966-.636 2.922 2.922 0 0 1-.618-1.002 3.807 3.807 0 0 1-.216-1.32c0-.484.072-.922.216-1.314.148-.392.354-.724.618-.996.268-.272.59-.482.966-.63a3.397 3.397 0 0 1 1.254-.222Zm0 5.202c.512 0 .89-.172 1.134-.516.248-.344.372-.848.372-1.512s-.124-1.17-.372-1.518c-.244-.348-.622-.522-1.134-.522-.52 0-.904.176-1.152.528-.248.348-.372.852-.372 1.512s.124 1.164.372 1.512c.248.344.632.516 1.152.516ZM46.723 14.913V8.757h.87c.152 0 .258.028.318.084.06.056.1.152.12.288l.09.744c.22-.38.478-.68.774-.9.296-.22.628-.33.996-.33.304 0 .556.07.756.21l-.192 1.11c-.012.072-.038.124-.078.156a.278.278 0 0 1-.162.042 1.01 1.01 0 0 1-.246-.042 1.646 1.646 0 0 0-.414-.042c-.308 0-.572.086-.792.258-.22.168-.406.416-.558.744v3.834h-1.482ZM52.96 5.997v8.916h-1.482V5.997h1.482ZM58.732 14.913c-.192 0-.318-.09-.378-.27l-.12-.594a3.68 3.68 0 0 1-.402.39c-.14.116-.292.216-.456.3-.16.084-.334.148-.522.192a2.372 2.372 0 0 1-.6.072c-.336 0-.644-.07-.924-.21a2.098 2.098 0 0 1-.726-.606 3.033 3.033 0 0 1-.468-.99 5.072 5.072 0 0 1-.162-1.344c0-.456.062-.88.186-1.272s.302-.732.534-1.02c.232-.288.51-.512.834-.672a2.384 2.384 0 0 1 1.092-.246 2.103 2.103 0 0 1 1.536.606V5.997h1.482v8.916h-.906Zm-1.974-1.086c.308 0 .57-.064.786-.192.216-.128.42-.31.612-.546v-2.76a1.452 1.452 0 0 0-.552-.432 1.597 1.597 0 0 0-.636-.126c-.224 0-.428.042-.612.126a1.21 1.21 0 0 0-.462.384c-.124.168-.22.384-.288.648-.068.26-.102.568-.102.924 0 .36.028.666.084.918.06.248.144.452.252.612.108.156.24.27.396.342.156.068.33.102.522.102ZM16.331 20.757v6.156H14.85v-6.156h1.481Zm.223-1.794a.844.844 0 0 1-.078.36.963.963 0 0 1-.21.294.995.995 0 0 1-.3.204.963.963 0 0 1-.372.072.948.948 0 0 1-.367-.072 1.018 1.018 0 0 1-.498-.498.963.963 0 0 1 0-.732.995.995 0 0 1 .205-.3.929.929 0 0 1 .293-.198.899.899 0 0 1 .738 0 .912.912 0 0 1 .3.198.943.943 0 0 1 .288.672ZM17.771 26.913v-6.156h.906c.192 0 .318.09.378.27l.102.486a2.934 2.934 0 0 1 .828-.618c.156-.076.322-.134.498-.174.176-.04.368-.06.576-.06.336 0 .634.058.894.174.26.112.476.272.648.48.176.204.308.45.396.738.092.284.138.598.138.942v3.918h-1.482v-3.918c0-.376-.088-.666-.264-.87-.172-.208-.432-.312-.78-.312-.256 0-.496.058-.72.174a2.58 2.58 0 0 0-.636.474v4.452h-1.482ZM34.22 22.575c0 .636-.106 1.22-.318 1.752-.212.532-.51.99-.894 1.374a4 4 0 0 1-1.386.894 4.87 4.87 0 0 1-1.794.318h-3.312v-8.676h3.312a4.79 4.79 0 0 1 1.794.324 4 4 0 0 1 1.386.894c.384.38.682.836.894 1.368.212.532.318 1.116.318 1.752Zm-1.65 0c0-.476-.064-.902-.192-1.278a2.68 2.68 0 0 0-.546-.96 2.332 2.332 0 0 0-.864-.606 2.94 2.94 0 0 0-1.14-.21h-1.686v6.108h1.686c.424 0 .804-.07 1.14-.21.34-.14.628-.34.864-.6a2.75 2.75 0 0 0 .546-.96 4.01 4.01 0 0 0 .192-1.284ZM39.98 26.913h-.665c-.14 0-.25-.02-.33-.06-.08-.044-.14-.13-.18-.258l-.132-.438c-.156.14-.31.264-.462.372a2.804 2.804 0 0 1-.462.264c-.16.072-.33.126-.51.162-.18.036-.38.054-.6.054-.26 0-.5-.034-.72-.102a1.618 1.618 0 0 1-.57-.318 1.448 1.448 0 0 1-.366-.522 1.852 1.852 0 0 1-.132-.726c0-.232.06-.46.18-.684.124-.228.328-.432.612-.612.284-.184.662-.336 1.134-.456.472-.12 1.058-.188 1.758-.204v-.36c0-.412-.088-.716-.264-.912-.172-.2-.424-.3-.756-.3a1.837 1.837 0 0 0-1.02.276c-.116.068-.224.13-.324.186a.664.664 0 0 1-.33.084.429.429 0 0 1-.258-.078.614.614 0 0 1-.174-.192l-.27-.474c.708-.648 1.562-.972 2.562-.972.36 0 .68.06.96.18.284.116.524.28.72.492.196.208.344.458.444.75.104.292.156.612.156.96v3.888Zm-2.88-.924c.153 0 .293-.014.42-.042.129-.028.249-.07.36-.126.117-.056.227-.124.33-.204.109-.084.217-.182.325-.294v-1.038c-.432.02-.794.058-1.086.114-.288.052-.52.12-.696.204a.923.923 0 0 0-.378.294.664.664 0 0 0-.108.366c0 .26.076.446.228.558.156.112.358.168.606.168ZM43.22 27.01c-.532 0-.942-.15-1.23-.45-.288-.305-.432-.723-.432-1.255v-3.438h-.624a.31.31 0 0 1-.21-.078c-.056-.052-.084-.13-.084-.234v-.588l.99-.162.312-1.68a.302.302 0 0 1 .108-.186.365.365 0 0 1 .222-.066h.768v1.938h1.62v1.056h-1.62v3.336c0 .192.048.342.144.45a.488.488 0 0 0 .384.162c.092 0 .168-.01.228-.03.064-.024.118-.048.162-.072.048-.024.09-.046.126-.066a.194.194 0 0 1 .108-.036.16.16 0 0 1 .108.036c.028.02.058.052.09.096l.444.72c-.216.18-.464.316-.744.408a2.77 2.77 0 0 1-.87.138ZM50.423 26.913h-.666c-.14 0-.25-.02-.33-.06-.08-.044-.14-.13-.18-.258l-.132-.438c-.156.14-.31.264-.462.372a2.804 2.804 0 0 1-.462.264c-.16.072-.33.126-.51.162-.18.036-.38.054-.6.054-.26 0-.5-.034-.72-.102a1.618 1.618 0 0 1-.57-.318 1.448 1.448 0 0 1-.366-.522 1.852 1.852 0 0 1-.132-.726c0-.232.06-.46.18-.684.124-.228.328-.432.612-.612.284-.184.662-.336 1.134-.456.472-.12 1.058-.188 1.758-.204v-.36c0-.412-.088-.716-.264-.912-.172-.2-.424-.3-.756-.3a1.837 1.837 0 0 0-1.02.276c-.116.068-.224.13-.324.186a.664.664 0 0 1-.33.084.429.429 0 0 1-.258-.078.614.614 0 0 1-.174-.192l-.27-.474c.708-.648 1.562-.972 2.562-.972.36 0 .68.06.96.18.284.116.524.28.72.492.196.208.344.458.444.75.104.292.156.612.156.96v3.888Zm-2.88-.924c.152 0 .292-.014.42-.042.128-.028.248-.07.36-.126.116-.056.226-.124.33-.204.108-.084.216-.182.324-.294v-1.038c-.432.02-.794.058-1.086.114-.288.052-.52.12-.696.204a.923.923 0 0 0-.378.294.664.664 0 0 0-.108.366c0 .26.076.446.228.558.156.112.358.168.606.168Z"/></svg></g><a id="title" href="https://ourworldindata.org/grapher/annual-co2-emissions-per-country?facet=entity&amp;uniformYAxis=0" style="font-family:&#x27;Playfair Display&#x27;, Georgia, &#x27;Times New Roman&#x27;, &#x27;Liberation Serif&#x27;, serif" target="_blank" rel="noopener"><text font-size="24.75" font-weight="600" x="16.0" y="40.0" fill="#5b5b5b"><tspan x="16" y="40.0075">Annual CO₂ emissions</tspan></text></a><g id="subtitle" class="markdown-text-wrap"><text x="16.0" y="63.9" style="font-size:14.625px;line-height:1.2" fill="#5b5b5b"><tspan x="16" y="63.9">Carbon dioxide (CO₂) emissions from <tspan class="dod-span" data-id="fossilemissions">fossil fuels and industry</tspan>. Land-use change is not included.</tspan></text></g></g><g id="chart-area" style="pointer-events:none"><text x="54.6740625" y="94.21875" fill="#1d3d63" font-size="14.625" style="font-weight:700">United States<title>United States</title></text><g id="line-chart" class="LineChart"><defs><clipPath id="boundsClip-1"><rect x="44.6740625" y="91.53125" width="282" height="145"></rect></clipPath></defs><rect x="16" y="101.53125" width="262" height="125" fill="none"></rect><g id="dual-axis" class="DualAxisView"><g id="horizontal-axis" class="HorizontalAxis"><g id="tick__1750"><line x1="54.7" y1="208.0625" x2="54.7" y2="213.5625" stroke="#999" stroke-width="1"></line><text x="54.6740625" y="224.53125" fill="#5b5b5b" text-anchor="start" font-size="10.96875">1750</text></g><g id="tick__2022"><line x1="277" y1="208.0625" x2="277" y2="213.5625" stroke="#999" stroke-width="1"></line><text x="277" y="224.53125" fill="#5b5b5b" text-anchor="end" font-size="10.96875">2022</text></g><g id="tick__1850"><line x1="136.4" y1="208.0625" x2="136.4" y2="213.5625" stroke="#999" stroke-width="1"></line><text x="136.4" y="224.53125" fill="#5b5b5b" text-anchor="middle" font-size="10.96875">1850</text></g><g id="tick__1900"><line x1="177.3" y1="208.0625" x2="177.3" y2="213.5625" stroke="#999" stroke-width="1"></line><text x="177.3" y="224.53125" fill="#5b5b5b" text-anchor="middle" font-size="10.96875">1900</text></g><g id="tick__1950"><line x1="218.1" y1="208.0625" x2="218.1" y2="213.5625" stroke="#999" stroke-width="1"></line><text x="218.1" y="224.53125" fill="#5b5b5b" text-anchor="middle" font-size="10.96875">1950</text></g></g><g id="vertical-axis" class="VerticalAxis"><g id="tick-labels"><text id="tick-label__0-t" x="49.67" y="208.6" dy=".32em" text-anchor="end" fill="#5b5b5b" font-size="10.96875">0 t</text><text id="tick-label__2B-t" x="49.67" y="175.6" dy=".32em" text-anchor="end" fill="#5b5b5b" font-size="10.96875">2B t</text><text id="tick-label__4B-t" x="49.67" y="142.7" dy=".32em" text-anchor="end" fill="#5b5b5b" font-size="10.96875">4B t</text><text id="tick-label__6B-t" x="49.67" y="109.7" dy=".32em" text-anchor="end" fill="#5b5b5b" font-size="10.96875">6B t</text></g></g><g id="horizontal-grid-lines" class="AxisGridLines horizontalLines"><line id="grid-line__0" x1="54.67" y1="208.6" x2="277.00" y2="208.6" stroke="#999" stroke-width="1"></line><line id="grid-line__2000000000" x1="54.67" y1="175.6" x2="277.00" y2="175.6" stroke="#ddd" stroke-width="1" stroke-dasharray="2,1"></line><line id="grid-line__4000000000" x1="54.67" y1="142.7" x2="277.00" y2="142.7" stroke="#ddd" stroke-width="1" stroke-dasharray="2,1"></line><line id="grid-line__6000000000" x1="54.67" y1="109.7" x2="277.00" y2="109.7" stroke="#ddd" stroke-width="1" stroke-dasharray="2,1"></line></g></g><g clip-path="url(#boundsClip-1)"><g id="lines" class="Lines"><rect x="55" y="108" width="222" height="101" fill="rgba(255,255,255,0)" opacity="0"></rect><g id="line__Annual-CO__2082-emissions"><path stroke-linecap="round" stroke-linejoin="round" stroke="#ddd" d="M95.5 208.6L96.4 208.6L97.2 208.6L98 208.6L98.8 208.6L99.6 208.6L100.4 208.6L101.3 208.6L102.1 208.6L102.9 208.6L103.7 208.6L104.5 208.6L105.4 208.6L106.2 208.6L107 208.6L107.8 208.6L108.6 208.6L109.4 208.6L110.3 208.5L111.1 208.5L111.9 208.5L112.7 208.5L113.5 208.5L114.3 208.5L115.2 208.5L116 208.5L116.8 208.5L117.6 208.5L118.4 208.5L119.2 208.5L120.1 208.5L120.9 208.5L121.7 208.5L122.5 208.5L123.3 208.5L124.2 208.5L125 208.5L125.8 208.5L126.6 208.5L127.4 208.5L128.2 208.5L129.1 208.5L129.9 208.4L130.7 208.4L131.5 208.4L132.3 208.4L133.1 208.4L134 208.3L134.8 208.3L135.6 208.3L136.4 208.2L137.2 208.2L138 208.1L138.9 208.1L139.7 208L140.5 207.9L141.3 207.9L142.1 207.9L143 207.9L143.8 207.8L144.6 207.8L145.4 207.8L146.2 207.8L147 207.7L147.9 207.6L148.7 207.6L149.5 207.6L150.3 207.4L151.1 207.2L151.9 207L152.8 206.9L153.6 206.9L154.4 206.5L155.2 206.3L156 206.3L156.8 206.3L157.7 206.4L158.5 206.1L159.3 206.2L160.1 205.7L160.9 205.3L161.8 205.1L162.6 204.7L163.4 204.4L164.2 204.2L165 204.1L165.8 203.8L166.7 203.5L167.5 202.4L168.3 203L169.1 201.9L169.9 201.5L170.7 201.1L171.6 201.1L172.4 201.6L173.2 200.7L174 200.6L174.8 200.3L175.6 199.6L176.5 198.3L177.3 197.6L178.1 196.7L178.9 196L179.7 193.8L180.5 194L181.4 192.3L182.2 191.5L183 188.7L183.8 191.2L184.6 189.4L185.5 187.6L186.3 187.8L187.1 186.4L187.9 184.8L188.7 186.8L189.5 186L190.4 183.5L191.2 181L192 179.8L192.8 184.2L193.6 179.9L194.4 185.1L195.3 184.9L196.1 177.3L196.9 180.6L197.7 179.6L198.5 177.2L199.3 177.9L200.2 178.4L201 176.2L201.8 179.8L202.6 184.1L203.4 187.8L204.3 186.3L205.1 184.9L205.9 184L206.7 180.3L207.5 179L208.3 183.6L209.2 181L210 177.7L210.8 174.9L211.6 172.3L212.4 171.1L213.2 168.3L214.1 169.7L214.9 171.4L215.7 167.6L216.5 166L217.3 172.9L218.1 166.7L219 165.4L219.8 166.5L220.6 165.5L221.4 167.5L222.2 163.6L223.1 161.4L223.9 161.8L224.7 163.3L225.5 161.9L226.3 160.8L227.1 161L228 159.2L228.8 157.1L229.6 154.8L230.4 152.6L231.2 149.7L232 147.5L232.9 145.3L233.7 142.1L234.5 137.1L235.3 136.6L236.1 133.2L236.9 129.7L237.8 132.4L238.6 134.8L239.4 130.3L240.2 128L241 127.1L241.9 126L242.7 129.3L243.5 131.4L244.3 135.3L245.1 135.6L245.9 131.8L246.8 131.9L247.6 131.7L248.4 129.1L249.2 125.4L250 124L250.8 124.2L251.7 125.1L252.5 123.3L253.3 121.7L254.1 120.2L254.9 119.2L255.7 116.1L256.6 114.8L257.4 114.1L258.2 112.9L259 109.5L259.8 111.2L260.7 110.6L261.5 109.5L262.3 107.9L263.1 107.5L263.9 108.8L264.7 107.6L265.6 111.1L266.4 118.3L267.2 115L268 117.2L268.8 120.5L269.6 118.3L270.5 117.5L271.3 120L272.1 122L272.9 122.7L273.7 120L274.5 121.9L275.4 130.9L276.2 125.7L277 125.2" fill="none" stroke-width="1"></path></g><g id="line__Annual-CO__2082-emissions"><path id="outline" fill="none" stroke-linecap="butt" stroke-linejoin="round" stroke="#fff" stroke-width="2.5" d="M95.5 208.6L96.4 208.6L97.2 208.6L98 208.6L98.8 208.6L99.6 208.6L100.4 208.6L101.3 208.6L102.1 208.6L102.9 208.6L103.7 208.6L104.5 208.6L105.4 208.6L106.2 208.6L107 208.6L107.8 208.6L108.6 208.6L109.4 208.6L110.3 208.5L111.1 208.5L111.9 208.5L112.7 208.5L113.5 208.5L114.3 208.5L115.2 208.5L116 208.5L116.8 208.5L117.6 208.5L118.4 208.5L119.2 208.5L120.1 208.5L120.9 208.5L121.7 208.5L122.5 208.5L123.3 208.5L124.2 208.5L125 208.5L125.8 208.5L126.6 208.5L127.4 208.5L128.2 208.5L129.1 208.5L129.9 208.4L130.7 208.4L131.5 208.4L132.3 208.4L133.1 208.4L134 208.3L134.8 208.3L135.6 208.3L136.4 208.2L137.2 208.2L138 208.1L138.9 208.1L139.7 208L140.5 207.9L141.3 207.9L142.1 207.9L143 207.9L143.8 207.8L144.6 207.8L145.4 207.8L146.2 207.8L147 207.7L147.9 207.6L148.7 207.6L149.5 207.6L150.3 207.4L151.1 207.2L151.9 207L152.8 206.9L153.6 206.9L154.4 206.5L155.2 206.3L156 206.3L156.8 206.3L157.7 206.4L158.5 206.1L159.3 206.2L160.1 205.7L160.9 205.3L161.8 205.1L162.6 204.7L163.4 204.4L164.2 204.2L165 204.1L165.8 203.8L166.7 203.5L167.5 202.4L168.3 203L169.1 201.9L169.9 201.5L170.7 201.1L171.6 201.1L172.4 201.6L173.2 200.7L174 200.6L174.8 200.3L175.6 199.6L176.5 198.3L177.3 197.6L178.1 196.7L178.9 196L179.7 193.8L180.5 194L181.4 192.3L182.2 191.5L183 188.7L183.8 191.2L184.6 189.4L185.5 187.6L186.3 187.8L187.1 186.4L187.9 184.8L188.7 186.8L189.5 186L190.4 183.5L191.2 181L192 179.8L192.8 184.2L193.6 179.9L194.4 185.1L195.3 184.9L196.1 177.3L196.9 180.6L197.7 179.6L198.5 177.2L199.3 177.9L200.2 178.4L201 176.2L201.8 179.8L202.6 184.1L203.4 187.8L204.3 186.3L205.1 184.9L205.9 184L206.7 180.3L207.5 179L208.3 183.6L209.2 181L210 177.7L210.8 174.9L211.6 172.3L212.4 171.1L213.2 168.3L214.1 169.7L214.9 171.4L215.7 167.6L216.5 166L217.3 172.9L218.1 166.7L219 165.4L219.8 166.5L220.6 165.5L221.4 167.5L222.2 163.6L223.1 161.4L223.9 161.8L224.7 163.3L225.5 161.9L226.3 160.8L227.1 161L228 159.2L228.8 157.1L229.6 154.8L230.4 152.6L231.2 149.7L232 147.5L232.9 145.3L233.7 142.1L234.5 137.1L235.3 136.6L236.1 133.2L236.9 129.7L237.8 132.4L238.6 134.8L239.4 130.3L240.2 128L241 127.1L241.9 126L242.7 129.3L243.5 131.4L244.3 135.3L245.1 135.6L245.9 131.8L246.8 131.9L247.6 131.7L248.4 129.1L249.2 125.4L250 124L250.8 124.2L251.7 125.1L252.5 123.3L253.3 121.7L254.1 120.2L254.9 119.2L255.7 116.1L256.6 114.8L257.4 114.1L258.2 112.9L259 109.5L259.8 111.2L260.7 110.6L261.5 109.5L262.3 107.9L263.1 107.5L263.9 108.8L264.7 107.6L265.6 111.1L266.4 118.3L267.2 115L268 117.2L268.8 120.5L269.6 118.3L270.5 117.5L271.3 120L272.1 122L272.9 122.7L273.7 120L274.5 121.9L275.4 130.9L276.2 125.7L277 125.2"></path><g id="polyline"><polyline id="polyline" points="95.50,208.60 96.40,208.60 97.20,208.60 98.00,208.60 98.80,208.60 99.60,208.60 100.40,208.60 101.30,208.60 102.10,208.60 102.90,208.60 103.70,208.60 104.50,208.60 105.40,208.60 106.20,208.60 107.00,208.60 107.80,208.60 108.60,208.60 109.40,208.60 110.30,208.50 111.10,208.50 111.90,208.50 112.70,208.50 113.50,208.50 114.30,208.50 115.20,208.50 116.00,208.50 116.80,208.50 117.60,208.50 118.40,208.50 119.20,208.50 120.10,208.50 120.90,208.50 121.70,208.50 122.50,208.50 123.30,208.50 124.20,208.50 125.00,208.50 125.80,208.50 126.60,208.50 127.40,208.50 128.20,208.50 129.10,208.50 129.90,208.40 130.70,208.40 131.50,208.40 132.30,208.40 133.10,208.40 134.00,208.30 134.80,208.30 135.60,208.30 136.40,208.20 137.20,208.20 138.00,208.10 138.90,208.10 139.70,208.00 140.50,207.90 141.30,207.90 142.10,207.90 143.00,207.90 143.80,207.80 144.60,207.80 145.40,207.80 146.20,207.80 147.00,207.70 147.90,207.60 148.70,207.60 149.50,207.60 150.30,207.40 151.10,207.20 151.90,207.00 152.80,206.90 153.60,206.90 154.40,206.50 155.20,206.30 156.00,206.30 156.80,206.30 157.70,206.40 158.50,206.10 159.30,206.20 160.10,205.70 160.90,205.30 161.80,205.10 162.60,204.70 163.40,204.40 164.20,204.20 165.00,204.10 165.80,203.80 166.70,203.50 167.50,202.40 168.30,203.00 169.10,201.90 169.90,201.50 170.70,201.10 171.60,201.10 172.40,201.60 173.20,200.70 174.00,200.60 174.80,200.30 175.60,199.60 176.50,198.30 177.30,197.60 178.10,196.70 178.90,196.00 179.70,193.80 180.50,194.00 181.40,192.30 182.20,191.50 183.00,188.70 183.80,191.20 184.60,189.40 185.50,187.60 186.30,187.80 187.10,186.40 187.90,184.80 188.70,186.80 189.50,186.00 190.40,183.50 191.20,181.00 192.00,179.80 192.80,184.20 193.60,179.90 194.40,185.10 195.30,184.90 196.10,177.30 196.90,180.60 197.70,179.60 198.50,177.20 199.30,177.90 200.20,178.40 201.00,176.20 201.80,179.80 202.60,184.10 203.40,187.80 204.30,186.30 205.10,184.90 205.90,184.00 206.70,180.30 207.50,179.00 208.30,183.60 209.20,181.00 210.00,177.70 210.80,174.90 211.60,172.30 212.40,171.10 213.20,168.30 214.10,169.70 214.90,171.40 215.70,167.60 216.50,166.00 217.30,172.90 218.10,166.70 219.00,165.40 219.80,166.50 220.60,165.50 221.40,167.50 222.20,163.60 223.10,161.40 223.90,161.80 224.70,163.30 225.50,161.90 226.30,160.80 227.10,161.00 228.00,159.20 228.80,157.10 229.60,154.80 230.40,152.60 231.20,149.70 232.00,147.50 232.90,145.30 233.70,142.10 234.50,137.10 235.30,136.60 236.10,133.20 236.90,129.70 237.80,132.40 238.60,134.80 239.40,130.30 240.20,128.00 241.00,127.10 241.90,126.00 242.70,129.30 243.50,131.40 244.30,135.30 245.10,135.60 245.90,131.80 246.80,131.90 247.60,131.70 248.40,129.10 249.20,125.40 250.00,124.00 250.80,124.20 251.70,125.10 252.50,123.30 253.30,121.70 254.10,120.20 254.90,119.20 255.70,116.10 256.60,114.80 257.40,114.10 258.20,112.90 259.00,109.50 259.80,111.20 260.70,110.60 261.50,109.50 262.30,107.90 263.10,107.50 263.90,108.80 264.70,107.60 265.60,111.10 266.40,118.30 267.20,115.00 268.00,117.20 268.80,120.50 269.60,118.30 270.50,117.50 271.30,120.00 272.10,122.00 272.90,122.70 273.70,120.00 274.50,121.90 275.40,130.90 276.20,125.70 277.00,125.20" stroke-linejoin="round" stroke-width="1.5" stroke="#C15065" fill="none" stroke-linecap="butt"></polyline></g></g></g></g></g><text x="331.6740625" y="94.21875" fill="#1d3d63" font-size="14.625" style="font-weight:700">United Kingdom<title>United Kingdom</title></text><g id="line-chart" class="LineChart"><defs><clipPath id="boundsClip-2"><rect x="321.6740625" y="91.53125" width="282" height="145"></rect></clipPath></defs><rect x="293" y="101.53125" width="262" height="125" fill="none"></rect><g id="dual-axis" class="DualAxisView"><g id="horizontal-axis" class="HorizontalAxis"><g id="tick__1750"><line x1="331.7" y1="208.0625" x2="331.7" y2="213.5625" stroke="#999" stroke-width="1"></line><text x="331.6740625" y="224.53125" fill="#5b5b5b" text-anchor="start" font-size="10.96875">1750</text></g><g id="tick__2022"><line x1="554" y1="208.0625" x2="554" y2="213.5625" stroke="#999" stroke-width="1"></line><text x="554" y="224.53125" fill="#5b5b5b" text-anchor="end" font-size="10.96875">2022</text></g><g id="tick__1850"><line x1="413.4" y1="208.0625" x2="413.4" y2="213.5625" stroke="#999" stroke-width="1"></line><text x="413.4" y="224.53125" fill="#5b5b5b" text-anchor="middle" font-size="10.96875">1850</text></g><g id="tick__1900"><line x1="454.3" y1="208.0625" x2="454.3" y2="213.5625" stroke="#999" stroke-width="1"></line><text x="454.3" y="224.53125" fill="#5b5b5b" text-anchor="middle" font-size="10.96875">1900</text></g><g id="tick__1950"><line x1="495.1" y1="208.0625" x2="495.1" y2="213.5625" stroke="#999" stroke-width="1"></line><text x="495.1" y="224.53125" fill="#5b5b5b" text-anchor="middle" font-size="10.96875">1950</text></g></g><g id="vertical-axis" class="VerticalAxis"><g id="tick-labels"><text id="tick-label__0-t" x="326.67" y="208.6" dy=".32em" text-anchor="end" fill="#5b5b5b" font-size="10.96875">0 t</text><text id="tick-label__200M-t" x="326.67" y="178" dy=".32em" text-anchor="end" fill="#5b5b5b" font-size="10.96875">200M t</text><text id="tick-label__400M-t" x="326.67" y="147.4" dy=".32em" text-anchor="end" fill="#5b5b5b" font-size="10.96875">400M t</text><text id="tick-label__600M-t" x="326.67" y="116.8" dy=".32em" text-anchor="end" fill="#5b5b5b" font-size="10.96875">600M t</text></g></g><g id="horizontal-grid-lines" class="AxisGridLines horizontalLines"><line id="grid-line__0" x1="331.67" y1="208.6" x2="554.00" y2="208.6" stroke="#999" stroke-width="1"></line><line id="grid-line__200000000" x1="331.67" y1="178" x2="554.00" y2="178" stroke="#ddd" stroke-width="1" stroke-dasharray="2,1"></line><line id="grid-line__400000000" x1="331.67" y1="147.4" x2="554.00" y2="147.4" stroke="#ddd" stroke-width="1" stroke-dasharray="2,1"></line><line id="grid-line__600000000" x1="331.67" y1="116.8" x2="554.00" y2="116.8" stroke="#ddd" stroke-width="1" stroke-dasharray="2,1"></line></g></g><g clip-path="url(#boundsClip-2)"><g id="lines" class="Lines"><rect x="332" y="108" width="222" height="101" fill="rgba(255,255,255,0)" opacity="0"></rect><g id="line__Annual-CO__2082-emissions"><path stroke-linecap="round" stroke-linejoin="round" stroke="#ddd" d="M331.7 207.1L332.5 207.1L333.3 207.1L334.1 207.1L334.9 207.1L335.8 207.1L336.6 207L337.4 207L338.2 207L339 207L339.8 207L340.7 206.9L341.5 206.9L342.3 206.9L343.1 206.8L343.9 206.8L344.8 206.7L345.6 206.7L346.4 206.7L347.2 206.6L348 206.6L348.8 206.5L349.7 206.5L350.5 206.5L351.3 206.4L352.1 206.4L352.9 206.3L353.7 206.3L354.6 206.2L355.4 206.2L356.2 206.1L357 206.1L357.8 206L358.6 206L359.5 205.9L360.3 205.8L361.1 205.7L361.9 205.7L362.7 205.6L363.6 205.5L364.4 205.4L365.2 205.4L366 205.3L366.8 205.2L367.6 205.2L368.5 205.2L369.3 205.3L370.1 205.3L370.9 205.1L371.7 204.5L372.5 203.8L373.4 203.9L374.2 203.9L375 204.2L375.8 204.3L376.6 204.1L377.4 203.8L378.3 203.6L379.1 203.4L379.9 203.3L380.7 203.1L381.5 203L382.4 202.9L383.2 202.8L384 202.7L384.8 202.6L385.6 202.6L386.4 202.2L387.3 201.9L388.1 201.9L388.9 202.1L389.7 201.9L390.5 201.7L391.3 201.4L392.2 201.2L393 201L393.8 200.9L394.6 200.6L395.4 200.5L396.2 200.4L397.1 198.2L397.9 198.7L398.7 199L399.5 199.1L400.3 198.5L401.2 197.5L402 196.5L402.8 197L403.6 197.3L404.4 197L405.2 196.2L406.1 196.1L406.9 195.5L407.7 195L408.5 194.2L409.3 193.3L410.1 194L411 193L411.8 191.9L412.6 190.6L413.4 189.8L414.2 190.8L415 190.8L415.9 190.9L416.7 187.3L417.5 188.6L418.3 187.1L419.1 187.5L420 187.9L420.8 185.7L421.6 182.9L422.4 181.8L423.2 182.6L424 181L424.9 178.9L425.7 177.1L426.5 176.2L427.3 175.3L428.1 175.9L428.9 174.3L429.8 173.6L430.6 171.5L431.4 169.6L432.2 168.1L433 169.2L433.8 167L434.7 167.1L435.5 166.4L436.3 167.1L437.1 166.9L437.9 163.1L438.8 160.8L439.6 160.4L440.4 158.4L441.2 159.7L442 160.3L442.8 160.8L443.7 159.5L444.5 157.6L445.3 155.8L446.1 154.6L446.9 153.4L447.7 154.6L448.6 160.2L449.4 153.2L450.2 152.6L451 151L451.8 149.5L452.6 149.4L453.5 145.1L454.3 144.3L455.1 145.7L455.9 143.3L456.7 142.8L457.5 142.5L458.4 141.6L459.2 139.2L460 136.1L460.8 137.9L461.6 137.3L462.5 136.7L463.3 134.9L464.1 138.8L464.9 132.3L465.7 134.6L466.5 133.7L467.4 131L468.2 131.9L469 137.1L469.8 138.8L470.6 136.5L471.4 159.6L472.3 143L473.1 139L473.9 135.7L474.7 139.8L475.5 170.9L476.3 137.2L477.2 141.6L478 138.1L478.8 141.1L479.6 145.5L480.4 148L481.3 148.6L482.1 143.8L482.9 142.9L483.7 139.1L484.5 136.9L485.3 139.9L486.2 139.3L487 135.9L487.8 136.7L488.6 136.8L489.4 139L490.2 140.9L491.1 144.7L491.9 141.8L492.7 138L493.5 135.8L494.3 134.3L495.1 131.9L496 125.1L496.8 127.7L497.6 125.9L498.4 124L499.2 120.3L500.1 120.7L500.9 121.3L501.7 123.5L502.5 124.9L503.3 119.2L504.1 118.5L505 117.9L505.8 116.3L506.6 115.6L507.4 113.4L508.2 114L509 118L509.9 115.8L510.7 112.4L511.5 108.7L512.3 107.5L513.1 109.4L513.9 107.7L514.8 114.1L515.6 116.3L516.4 117L517.2 116.1L518 116L518.9 110L519.7 120L520.5 122.8L521.3 124.7L522.1 125.1L522.9 127.6L523.8 122.9L524.6 121.6L525.4 121.1L526.2 121.3L527 119.6L527.8 116.5L528.7 115.3L529.5 117.7L530.3 119.9L531.1 120.7L531.9 121.9L532.7 118.8L533.6 122.5L534.4 121.6L535.2 122.6L536 121.5L536.8 120.1L537.7 122.8L538.5 121.1L539.3 120.8L540.1 121.3L540.9 121.7L541.7 123L542.6 125.2L543.4 133L544.2 130.2L545 136.7L545.8 134L546.6 135.5L547.5 141.4L548.3 143.9L549.1 147.5L549.9 149.3L550.7 150.5L551.5 152.8L552.4 158.6L553.2 155.4L554 159.8" fill="none" stroke-width="1"></path></g><g id="line__Annual-CO__2082-emissions"><path id="outline" fill="none" stroke-linecap="butt" stroke-linejoin="round" stroke="#fff" stroke-width="2.5" d="M331.7 207.1L332.5 207.1L333.3 207.1L334.1 207.1L334.9 207.1L335.8 207.1L336.6 207L337.4 207L338.2 207L339 207L339.8 207L340.7 206.9L341.5 206.9L342.3 206.9L343.1 206.8L343.9 206.8L344.8 206.7L345.6 206.7L346.4 206.7L347.2 206.6L348 206.6L348.8 206.5L349.7 206.5L350.5 206.5L351.3 206.4L352.1 206.4L352.9 206.3L353.7 206.3L354.6 206.2L355.4 206.2L356.2 206.1L357 206.1L357.8 206L358.6 206L359.5 205.9L360.3 205.8L361.1 205.7L361.9 205.7L362.7 205.6L363.6 205.5L364.4 205.4L365.2 205.4L366 205.3L366.8 205.2L367.6 205.2L368.5 205.2L369.3 205.3L370.1 205.3L370.9 205.1L371.7 204.5L372.5 203.8L373.4 203.9L374.2 203.9L375 204.2L375.8 204.3L376.6 204.1L377.4 203.8L378.3 203.6L379.1 203.4L379.9 203.3L380.7 203.1L381.5 203L382.4 202.9L383.2 202.8L384 202.7L384.8 202.6L385.6 202.6L386.4 202.2L387.3 201.9L388.1 201.9L388.9 202.1L389.7 201.9L390.5 201.7L391.3 201.4L392.2 201.2L393 201L393.8 200.9L394.6 200.6L395.4 200.5L396.2 200.4L397.1 198.2L397.9 198.7L398.7 199L399.5 199.1L400.3 198.5L401.2 197.5L402 196.5L402.8 197L403.6 197.3L404.4 197L405.2 196.2L406.1 196.1L406.9 195.5L407.7 195L408.5 194.2L409.3 193.3L410.1 194L411 193L411.8 191.9L412.6 190.6L413.4 189.8L414.2 190.8L415 190.8L415.9 190.9L416.7 187.3L417.5 188.6L418.3 187.1L419.1 187.5L420 187.9L420.8 185.7L421.6 182.9L422.4 181.8L423.2 182.6L424 181L424.9 178.9L425.7 177.1L426.5 176.2L427.3 175.3L428.1 175.9L428.9 174.3L429.8 173.6L430.6 171.5L431.4 169.6L432.2 168.1L433 169.2L433.8 167L434.7 167.1L435.5 166.4L436.3 167.1L437.1 166.9L437.9 163.1L438.8 160.8L439.6 160.4L440.4 158.4L441.2 159.7L442 160.3L442.8 160.8L443.7 159.5L444.5 157.6L445.3 155.8L446.1 154.6L446.9 153.4L447.7 154.6L448.6 160.2L449.4 153.2L450.2 152.6L451 151L451.8 149.5L452.6 149.4L453.5 145.1L454.3 144.3L455.1 145.7L455.9 143.3L456.7 142.8L457.5 142.5L458.4 141.6L459.2 139.2L460 136.1L460.8 137.9L461.6 137.3L462.5 136.7L463.3 134.9L464.1 138.8L464.9 132.3L465.7 134.6L466.5 133.7L467.4 131L468.2 131.9L469 137.1L469.8 138.8L470.6 136.5L471.4 159.6L472.3 143L473.1 139L473.9 135.7L474.7 139.8L475.5 170.9L476.3 137.2L477.2 141.6L478 138.1L478.8 141.1L479.6 145.5L480.4 148L481.3 148.6L482.1 143.8L482.9 142.9L483.7 139.1L484.5 136.9L485.3 139.9L486.2 139.3L487 135.9L487.8 136.7L488.6 136.8L489.4 139L490.2 140.9L491.1 144.7L491.9 141.8L492.7 138L493.5 135.8L494.3 134.3L495.1 131.9L496 125.1L496.8 127.7L497.6 125.9L498.4 124L499.2 120.3L500.1 120.7L500.9 121.3L501.7 123.5L502.5 124.9L503.3 119.2L504.1 118.5L505 117.9L505.8 116.3L506.6 115.6L507.4 113.4L508.2 114L509 118L509.9 115.8L510.7 112.4L511.5 108.7L512.3 107.5L513.1 109.4L513.9 107.7L514.8 114.1L515.6 116.3L516.4 117L517.2 116.1L518 116L518.9 110L519.7 120L520.5 122.8L521.3 124.7L522.1 125.1L522.9 127.6L523.8 122.9L524.6 121.6L525.4 121.1L526.2 121.3L527 119.6L527.8 116.5L528.7 115.3L529.5 117.7L530.3 119.9L531.1 120.7L531.9 121.9L532.7 118.8L533.6 122.5L534.4 121.6L535.2 122.6L536 121.5L536.8 120.1L537.7 122.8L538.5 121.1L539.3 120.8L540.1 121.3L540.9 121.7L541.7 123L542.6 125.2L543.4 133L544.2 130.2L545 136.7L545.8 134L546.6 135.5L547.5 141.4L548.3 143.9L549.1 147.5L549.9 149.3L550.7 150.5L551.5 152.8L552.4 158.6L553.2 155.4L554 159.8"></path><g id="polyline"><polyline id="polyline" points="331.70,207.10 332.50,207.10 333.30,207.10 334.10,207.10 334.90,207.10 335.80,207.10 336.60,207.00 337.40,207.00 338.20,207.00 339.00,207.00 339.80,207.00 340.70,206.90 341.50,206.90 342.30,206.90 343.10,206.80 343.90,206.80 344.80,206.70 345.60,206.70 346.40,206.70 347.20,206.60 348.00,206.60 348.80,206.50 349.70,206.50 350.50,206.50 351.30,206.40 352.10,206.40 352.90,206.30 353.70,206.30 354.60,206.20 355.40,206.20 356.20,206.10 357.00,206.10 357.80,206.00 358.60,206.00 359.50,205.90 360.30,205.80 361.10,205.70 361.90,205.70 362.70,205.60 363.60,205.50 364.40,205.40 365.20,205.40 366.00,205.30 366.80,205.20 367.60,205.20 368.50,205.20 369.30,205.30 370.10,205.30 370.90,205.10 371.70,204.50 372.50,203.80 373.40,203.90 374.20,203.90 375.00,204.20 375.80,204.30 376.60,204.10 377.40,203.80 378.30,203.60 379.10,203.40 379.90,203.30 380.70,203.10 381.50,203.00 382.40,202.90 383.20,202.80 384.00,202.70 384.80,202.60 385.60,202.60 386.40,202.20 387.30,201.90 388.10,201.90 388.90,202.10 389.70,201.90 390.50,201.70 391.30,201.40 392.20,201.20 393.00,201.00 393.80,200.90 394.60,200.60 395.40,200.50 396.20,200.40 397.10,198.20 397.90,198.70 398.70,199.00 399.50,199.10 400.30,198.50 401.20,197.50 402.00,196.50 402.80,197.00 403.60,197.30 404.40,197.00 405.20,196.20 406.10,196.10 406.90,195.50 407.70,195.00 408.50,194.20 409.30,193.30 410.10,194.00 411.00,193.00 411.80,191.90 412.60,190.60 413.40,189.80 414.20,190.80 415.00,190.80 415.90,190.90 416.70,187.30 417.50,188.60 418.30,187.10 419.10,187.50 420.00,187.90 420.80,185.70 421.60,182.90 422.40,181.80 423.20,182.60 424.00,181.00 424.90,178.90 425.70,177.10 426.50,176.20 427.30,175.30 428.10,175.90 428.90,174.30 429.80,173.60 430.60,171.50 431.40,169.60 432.20,168.10 433.00,169.20 433.80,167.00 434.70,167.10 435.50,166.40 436.30,167.10 437.10,166.90 437.90,163.10 438.80,160.80 439.60,160.40 440.40,158.40 441.20,159.70 442.00,160.30 442.80,160.80 443.70,159.50 444.50,157.60 445.30,155.80 446.10,154.60 446.90,153.40 447.70,154.60 448.60,160.20 449.40,153.20 450.20,152.60 451.00,151.00 451.80,149.50 452.60,149.40 453.50,145.10 454.30,144.30 455.10,145.70 455.90,143.30 456.70,142.80 457.50,142.50 458.40,141.60 459.20,139.20 460.00,136.10 460.80,137.90 461.60,137.30 462.50,136.70 463.30,134.90 464.10,138.80 464.90,132.30 465.70,134.60 466.50,133.70 467.40,131.00 468.20,131.90 469.00,137.10 469.80,138.80 470.60,136.50 471.40,159.60 472.30,143.00 473.10,139.00 473.90,135.70 474.70,139.80 475.50,170.90 476.30,137.20 477.20,141.60 478.00,138.10 478.80,141.10 479.60,145.50 480.40,148.00 481.30,148.60 482.10,143.80 482.90,142.90 483.70,139.10 484.50,136.90 485.30,139.90 486.20,139.30 487.00,135.90 487.80,136.70 488.60,136.80 489.40,139.00 490.20,140.90 491.10,144.70 491.90,141.80 492.70,138.00 493.50,135.80 494.30,134.30 495.10,131.90 496.00,125.10 496.80,127.70 497.60,125.90 498.40,124.00 499.20,120.30 500.10,120.70 500.90,121.30 501.70,123.50 502.50,124.90 503.30,119.20 504.10,118.50 505.00,117.90 505.80,116.30 506.60,115.60 507.40,113.40 508.20,114.00 509.00,118.00 509.90,115.80 510.70,112.40 511.50,108.70 512.30,107.50 513.10,109.40 513.90,107.70 514.80,114.10 515.60,116.30 516.40,117.00 517.20,116.10 518.00,116.00 518.90,110.00 519.70,120.00 520.50,122.80 521.30,124.70 522.10,125.10 522.90,127.60 523.80,122.90 524.60,121.60 525.40,121.10 526.20,121.30 527.00,119.60 527.80,116.50 528.70,115.30 529.50,117.70 530.30,119.90 531.10,120.70 531.90,121.90 532.70,118.80 533.60,122.50 534.40,121.60 535.20,122.60 536.00,121.50 536.80,120.10 537.70,122.80 538.50,121.10 539.30,120.80 540.10,121.30 540.90,121.70 541.70,123.00 542.60,125.20 543.40,133.00 544.20,130.20 545.00,136.70 545.80,134.00 546.60,135.50 547.50,141.40 548.30,143.90 549.10,147.50 549.90,149.30 550.70,150.50 551.50,152.80 552.40,158.60 553.20,155.40 554.00,159.80" stroke-linejoin="round" stroke-width="1.5" stroke="#C15065" fill="none" stroke-linecap="butt"></polyline></g></g></g></g></g><text x="608.6740625" y="94.21875" fill="#1d3d63" font-size="14.625" style="font-weight:700">India<title>India</title></text><g id="line-chart" class="LineChart"><defs><clipPath id="boundsClip-3"><rect x="598.6740625" y="91.53125" width="282" height="145"></rect></clipPath></defs><rect x="570" y="101.53125" width="262" height="125" fill="none"></rect><g id="dual-axis" class="DualAxisView"><g id="horizontal-axis" class="HorizontalAxis"><g id="tick__1750"><line x1="608.7" y1="208.0625" x2="608.7" y2="213.5625" stroke="#999" stroke-width="1"></line><text x="608.6740625" y="224.53125" fill="#5b5b5b" text-anchor="start" font-size="10.96875">1750</text></g><g id="tick__2022"><line x1="831" y1="208.0625" x2="831" y2="213.5625" stroke="#999" stroke-width="1"></line><text x="831" y="224.53125" fill="#5b5b5b" text-anchor="end" font-size="10.96875">2022</text></g><g id="tick__1850"><line x1="690.4" y1="208.0625" x2="690.4" y2="213.5625" stroke="#999" stroke-width="1"></line><text x="690.4" y="224.53125" fill="#5b5b5b" text-anchor="middle" font-size="10.96875">1850</text></g><g id="tick__1900"><line x1="731.3" y1="208.0625" x2="731.3" y2="213.5625" stroke="#999" stroke-width="1"></line><text x="731.3" y="224.53125" fill="#5b5b5b" text-anchor="middle" font-size="10.96875">1900</text></g><g id="tick__1950"><line x1="772.1" y1="208.0625" x2="772.1" y2="213.5625" stroke="#999" stroke-width="1"></line><text x="772.1" y="224.53125" fill="#5b5b5b" text-anchor="middle" font-size="10.96875">1950</text></g></g><g id="vertical-axis" class="VerticalAxis"><g id="tick-labels"><text id="tick-label__0-t" x="603.67" y="208.6" dy=".32em" text-anchor="end" fill="#5b5b5b" font-size="10.96875">0 t</text><text id="tick-label__1B-t" x="603.67" y="172.9" dy=".32em" text-anchor="end" fill="#5b5b5b" font-size="10.96875">1B t</text><text id="tick-label__2B-t" x="603.67" y="137.2" dy=".32em" text-anchor="end" fill="#5b5b5b" font-size="10.96875">2B t</text></g></g><g id="horizontal-grid-lines" class="AxisGridLines horizontalLines"><line id="grid-line__0" x1="608.67" y1="208.6" x2="831.00" y2="208.6" stroke="#999" stroke-width="1"></line><line id="grid-line__1000000000" x1="608.67" y1="172.9" x2="831.00" y2="172.9" stroke="#ddd" stroke-width="1" stroke-dasharray="2,1"></line><line id="grid-line__2000000000" x1="608.67" y1="137.2" x2="831.00" y2="137.2" stroke="#ddd" stroke-width="1" stroke-dasharray="2,1"></line></g></g><g clip-path="url(#boundsClip-3)"><g id="lines" class="Lines"><rect x="609" y="108" width="222" height="101" fill="rgba(255,255,255,0)" opacity="0"></rect><g id="line__Annual-CO__2082-emissions"><path stroke-linecap="round" stroke-linejoin="round" stroke="#ddd" d="M697 208.5L697.8 208.5L698.6 208.5L699.4 208.5L700.2 208.5L701 208.5L701.9 208.5L702.7 208.5L703.5 208.5L713.3 208.5L714.1 208.5L714.9 208.5L715.8 208.5L716.6 208.5L717.4 208.5L718.2 208.5L719 208.5L719.8 208.5L720.7 208.5L721.5 208.4L722.3 208.4L723.1 208.4L723.9 208.4L724.7 208.4L725.6 208.4L726.4 208.4L727.2 208.3L728 208.3L728.8 208.3L729.6 208.2L730.5 208.2L731.3 208.1L732.1 208.1L732.9 208L733.7 208L734.5 208L735.4 208L736.2 207.9L737 207.8L737.8 207.7L738.6 207.7L739.5 207.7L740.3 207.7L741.1 207.5L741.9 207.4L742.7 207.4L743.5 207.4L744.4 207.4L745.2 207.3L746 207.2L746.8 207L747.6 207.3L748.4 207.2L749.3 207.2L750.1 207.2L750.9 207.1L751.7 207.1L752.5 207.1L753.3 207.1L754.2 207.1L755 207.1L755.8 207L756.6 207.2L757.4 207.3L758.3 207.3L759.1 207.1L759.9 207.1L760.7 207.1L761.5 207L762.3 206.8L763.2 206.8L764 206.7L764.8 206.6L765.6 206.7L766.4 206.9L767.2 206.9L768.1 206.7L768.9 206.7L769.7 206.7L770.5 206.7L771.3 206.6L772.1 206.4L773 206.3L773.8 206.2L774.6 206.1L775.4 206L776.2 205.7L777.1 205.6L777.9 205.3L778.7 205.1L779.5 204.9L780.3 204.6L781.1 204.3L782 203.8L782.8 203.5L783.6 203.6L784.4 203.1L785.2 202.9L786 202.9L786.9 202.3L787.7 202.2L788.5 202.1L789.3 201.7L790.1 201.3L790.9 201.1L791.8 200.9L792.6 200.2L793.4 199.8L794.2 199.3L795 199.2L795.9 198.7L796.7 198.1L797.5 197.3L798.3 196.9L799.1 196L799.9 195.7L800.8 194.4L801.6 193.3L802.4 192.3L803.2 191L804 189.3L804.8 187.9L805.7 186.6L806.5 185.2L807.3 184.4L808.1 183.1L808.9 181.4L809.7 179.2L810.6 177.9L811.4 177.3L812.2 174.6L813 173.7L813.8 173.2L814.7 172.1L815.5 170.7L816.3 168.4L817.1 166.2L817.9 162.4L818.7 158.8L819.6 155.4L820.4 151L821.2 148.7L822 145.6L822.8 139.8L823.6 137.3L824.5 131.9L825.3 128.8L826.1 124.5L826.9 121.9L827.7 116L828.5 115.3L829.4 122.1L830.2 113.1L831 107.5" fill="none" stroke-width="1"></path></g><g id="line__Annual-CO__2082-emissions"><path id="outline" fill="none" stroke-linecap="butt" stroke-linejoin="round" stroke="#fff" stroke-width="2.5" d="M697 208.5L697.8 208.5L698.6 208.5L699.4 208.5L700.2 208.5L701 208.5L701.9 208.5L702.7 208.5L703.5 208.5L713.3 208.5L714.1 208.5L714.9 208.5L715.8 208.5L716.6 208.5L717.4 208.5L718.2 208.5L719 208.5L719.8 208.5L720.7 208.5L721.5 208.4L722.3 208.4L723.1 208.4L723.9 208.4L724.7 208.4L725.6 208.4L726.4 208.4L727.2 208.3L728 208.3L728.8 208.3L729.6 208.2L730.5 208.2L731.3 208.1L732.1 208.1L732.9 208L733.7 208L734.5 208L735.4 208L736.2 207.9L737 207.8L737.8 207.7L738.6 207.7L739.5 207.7L740.3 207.7L741.1 207.5L741.9 207.4L742.7 207.4L743.5 207.4L744.4 207.4L745.2 207.3L746 207.2L746.8 207L747.6 207.3L748.4 207.2L749.3 207.2L750.1 207.2L750.9 207.1L751.7 207.1L752.5 207.1L753.3 207.1L754.2 207.1L755 207.1L755.8 207L756.6 207.2L757.4 207.3L758.3 207.3L759.1 207.1L759.9 207.1L760.7 207.1L761.5 207L762.3 206.8L763.2 206.8L764 206.7L764.8 206.6L765.6 206.7L766.4 206.9L767.2 206.9L768.1 206.7L768.9 206.7L769.7 206.7L770.5 206.7L771.3 206.6L772.1 206.4L773 206.3L773.8 206.2L774.6 206.1L775.4 206L776.2 205.7L777.1 205.6L777.9 205.3L778.7 205.1L779.5 204.9L780.3 204.6L781.1 204.3L782 203.8L782.8 203.5L783.6 203.6L784.4 203.1L785.2 202.9L786 202.9L786.9 202.3L787.7 202.2L788.5 202.1L789.3 201.7L790.1 201.3L790.9 201.1L791.8 200.9L792.6 200.2L793.4 199.8L794.2 199.3L795 199.2L795.9 198.7L796.7 198.1L797.5 197.3L798.3 196.9L799.1 196L799.9 195.7L800.8 194.4L801.6 193.3L802.4 192.3L803.2 191L804 189.3L804.8 187.9L805.7 186.6L806.5 185.2L807.3 184.4L808.1 183.1L808.9 181.4L809.7 179.2L810.6 177.9L811.4 177.3L812.2 174.6L813 173.7L813.8 173.2L814.7 172.1L815.5 170.7L816.3 168.4L817.1 166.2L817.9 162.4L818.7 158.8L819.6 155.4L820.4 151L821.2 148.7L822 145.6L822.8 139.8L823.6 137.3L824.5 131.9L825.3 128.8L826.1 124.5L826.9 121.9L827.7 116L828.5 115.3L829.4 122.1L830.2 113.1L831 107.5"></path><g id="polyline"><polyline id="polyline" points="697.00,208.50 697.80,208.50 698.60,208.50 699.40,208.50 700.20,208.50 701.00,208.50 701.90,208.50 702.70,208.50 703.50,208.50 713.30,208.50 714.10,208.50 714.90,208.50 715.80,208.50 716.60,208.50 717.40,208.50 718.20,208.50 719.00,208.50 719.80,208.50 720.70,208.50 721.50,208.40 722.30,208.40 723.10,208.40 723.90,208.40 724.70,208.40 725.60,208.40 726.40,208.40 727.20,208.30 728.00,208.30 728.80,208.30 729.60,208.20 730.50,208.20 731.30,208.10 732.10,208.10 732.90,208.00 733.70,208.00 734.50,208.00 735.40,208.00 736.20,207.90 737.00,207.80 737.80,207.70 738.60,207.70 739.50,207.70 740.30,207.70 741.10,207.50 741.90,207.40 742.70,207.40 743.50,207.40 744.40,207.40 745.20,207.30 746.00,207.20 746.80,207.00 747.60,207.30 748.40,207.20 749.30,207.20 750.10,207.20 750.90,207.10 751.70,207.10 752.50,207.10 753.30,207.10 754.20,207.10 755.00,207.10 755.80,207.00 756.60,207.20 757.40,207.30 758.30,207.30 759.10,207.10 759.90,207.10 760.70,207.10 761.50,207.00 762.30,206.80 763.20,206.80 764.00,206.70 764.80,206.60 765.60,206.70 766.40,206.90 767.20,206.90 768.10,206.70 768.90,206.70 769.70,206.70 770.50,206.70 771.30,206.60 772.10,206.40 773.00,206.30 773.80,206.20 774.60,206.10 775.40,206.00 776.20,205.70 777.10,205.60 777.90,205.30 778.70,205.10 779.50,204.90 780.30,204.60 781.10,204.30 782.00,203.80 782.80,203.50 783.60,203.60 784.40,203.10 785.20,202.90 786.00,202.90 786.90,202.30 787.70,202.20 788.50,202.10 789.30,201.70 790.10,201.30 790.90,201.10 791.80,200.90 792.60,200.20 793.40,199.80 794.20,199.30 795.00,199.20 795.90,198.70 796.70,198.10 797.50,197.30 798.30,196.90 799.10,196.00 799.90,195.70 800.80,194.40 801.60,193.30 802.40,192.30 803.20,191.00 804.00,189.30 804.80,187.90 805.70,186.60 806.50,185.20 807.30,184.40 808.10,183.10 808.90,181.40 809.70,179.20 810.60,177.90 811.40,177.30 812.20,174.60 813.00,173.70 813.80,173.20 814.70,172.10 815.50,170.70 816.30,168.40 817.10,166.20 817.90,162.40 818.70,158.80 819.60,155.40 820.40,151.00 821.20,148.70 822.00,145.60 822.80,139.80 823.60,137.30 824.50,131.90 825.30,128.80 826.10,124.50 826.90,121.90 827.70,116.00 828.50,115.30 829.40,122.10 830.20,113.10 831.00,107.50" stroke-linejoin="round" stroke-width="1.5" stroke="#C15065" fill="none" stroke-linecap="butt"></polyline></g></g></g></g></g><text x="54.6740625" y="256.21875" fill="#1d3d63" font-size="14.625" style="font-weight:700">China<title>China</title></text><g id="line-chart" class="LineChart"><defs><clipPath id="boundsClip-4"><rect x="44.6740625" y="253.53125" width="282" height="145"></rect></clipPath></defs><rect x="16" y="263.53125" width="262" height="125" fill="none"></rect><g id="dual-axis" class="DualAxisView"><g id="horizontal-axis" class="HorizontalAxis"><g id="tick__1750"><line x1="54.7" y1="370.0625" x2="54.7" y2="375.5625" stroke="#999" stroke-width="1"></line><text x="54.6740625" y="386.53125" fill="#5b5b5b" text-anchor="start" font-size="10.96875">1750</text></g><g id="tick__2022"><line x1="277" y1="370.0625" x2="277" y2="375.5625" stroke="#999" stroke-width="1"></line><text x="277" y="386.53125" fill="#5b5b5b" text-anchor="end" font-size="10.96875">2022</text></g><g id="tick__1850"><line x1="136.4" y1="370.0625" x2="136.4" y2="375.5625" stroke="#999" stroke-width="1"></line><text x="136.4" y="386.53125" fill="#5b5b5b" text-anchor="middle" font-size="10.96875">1850</text></g><g id="tick__1900"><line x1="177.3" y1="370.0625" x2="177.3" y2="375.5625" stroke="#999" stroke-width="1"></line><text x="177.3" y="386.53125" fill="#5b5b5b" text-anchor="middle" font-size="10.96875">1900</text></g><g id="tick__1950"><line x1="218.1" y1="370.0625" x2="218.1" y2="375.5625" stroke="#999" stroke-width="1"></line><text x="218.1" y="386.53125" fill="#5b5b5b" text-anchor="middle" font-size="10.96875">1950</text></g></g><g id="vertical-axis" class="VerticalAxis"><g id="tick-labels"><text id="tick-label__0-t" x="49.67" y="370.6" dy=".32em" text-anchor="end" fill="#5b5b5b" font-size="10.96875">0 t</text><text id="tick-label__2B-t" x="49.67" y="352.8" dy=".32em" text-anchor="end" fill="#5b5b5b" font-size="10.96875">2B t</text><text id="tick-label__4B-t" x="49.67" y="335.1" dy=".32em" text-anchor="end" fill="#5b5b5b" font-size="10.96875">4B t</text><text id="tick-label__6B-t" x="49.67" y="317.4" dy=".32em" text-anchor="end" fill="#5b5b5b" font-size="10.96875">6B t</text><text id="tick-label__8B-t" x="49.67" y="299.6" dy=".32em" text-anchor="end" fill="#5b5b5b" font-size="10.96875">8B t</text><text id="tick-label__10B-t" x="49.67" y="281.9" dy=".32em" text-anchor="end" fill="#5b5b5b" font-size="10.96875">10B t</text></g></g><g id="horizontal-grid-lines" class="AxisGridLines horizontalLines"><line id="grid-line__0" x1="54.67" y1="370.6" x2="277.00" y2="370.6" stroke="#999" stroke-width="1"></line><line id="grid-line__2000000000" x1="54.67" y1="352.8" x2="277.00" y2="352.8" stroke="#ddd" stroke-width="1" stroke-dasharray="2,1"></line><line id="grid-line__4000000000" x1="54.67" y1="335.1" x2="277.00" y2="335.1" stroke="#ddd" stroke-width="1" stroke-dasharray="2,1"></line><line id="grid-line__6000000000" x1="54.67" y1="317.4" x2="277.00" y2="317.4" stroke="#ddd" stroke-width="1" stroke-dasharray="2,1"></line><line id="grid-line__8000000000" x1="54.67" y1="299.6" x2="277.00" y2="299.6" stroke="#ddd" stroke-width="1" stroke-dasharray="2,1"></line><line id="grid-line__10000000000" x1="54.67" y1="281.9" x2="277.00" y2="281.9" stroke="#ddd" stroke-width="1" stroke-dasharray="2,1"></line></g></g><g clip-path="url(#boundsClip-4)"><g id="lines" class="Lines"><rect x="55" y="270" width="222" height="101" fill="rgba(255,255,255,0)" opacity="0"></rect><g id="line__Annual-CO__2082-emissions"><path stroke-linecap="round" stroke-linejoin="round" stroke="#ddd" d="M183 370.4L183.8 370.4L184.6 370.3L185.5 370.3L186.3 370.3L187.1 370.4L187.9 370.3L188.7 370.3L189.5 370.3L190.4 370.3L191.2 370.3L192 370.3L192.8 370.2L193.6 370.2L194.4 370.2L195.3 370.2L196.1 370.2L196.9 370.1L197.7 370.2L198.5 370.2L199.3 370.2L200.2 370.1L201 370.1L201.8 370.1L202.6 370.1L203.4 370.1L204.3 370.1L205.1 370L205.9 369.9L206.7 369.9L207.5 369.9L208.3 370L209.2 369.9L210 369.8L210.8 369.6L211.6 369.4L212.4 369.6L213.2 369.6L214.1 370.1L214.9 370.2L215.7 370.2L216.5 370.2L217.3 370L218.1 369.9L219 369.7L219.8 369.4L220.6 369.4L221.4 369.1L222.2 368.9L223.1 368.6L223.9 368.3L224.7 365.9L225.5 364.2L226.3 363.5L227.1 365.5L228 366.5L228.8 366.5L229.6 366.5L230.4 366.1L231.2 365.7L232 366.5L232.9 366.2L233.7 365.2L234.5 363.4L235.3 362.5L236.1 362L236.9 361.6L237.8 361.4L238.6 360.1L239.4 359.7L240.2 358.7L241 357.3L241.9 357L242.7 357.3L243.5 357.5L244.3 356.3L245.1 355.5L245.9 354.2L246.8 352.8L247.6 351.9L248.4 350.5L249.2 349.1L250 348.7L250.8 348.5L251.7 347.5L252.5 346.4L253.3 344.7L254.1 343L254.9 340.8L255.7 339.5L256.6 339.4L257.4 340.7L258.2 339L259 338.2L259.8 337.5L260.7 334.2L261.5 327.6L262.3 324.3L263.1 318.4L263.9 313L264.7 308.7L265.6 304.1L266.4 300.6L267.2 294.1L268 286.1L268.8 283.9L269.6 282.3L270.5 281.9L271.3 283.1L272.1 284L272.9 281.8L273.7 278.8L274.5 275.5L275.4 273.8L276.2 270.1L277 269.5" fill="none" stroke-width="1"></path></g><g id="line__Annual-CO__2082-emissions"><path id="outline" fill="none" stroke-linecap="butt" stroke-linejoin="round" stroke="#fff" stroke-width="2.5" d="M183 370.4L183.8 370.4L184.6 370.3L185.5 370.3L186.3 370.3L187.1 370.4L187.9 370.3L188.7 370.3L189.5 370.3L190.4 370.3L191.2 370.3L192 370.3L192.8 370.2L193.6 370.2L194.4 370.2L195.3 370.2L196.1 370.2L196.9 370.1L197.7 370.2L198.5 370.2L199.3 370.2L200.2 370.1L201 370.1L201.8 370.1L202.6 370.1L203.4 370.1L204.3 370.1L205.1 370L205.9 369.9L206.7 369.9L207.5 369.9L208.3 370L209.2 369.9L210 369.8L210.8 369.6L211.6 369.4L212.4 369.6L213.2 369.6L214.1 370.1L214.9 370.2L215.7 370.2L216.5 370.2L217.3 370L218.1 369.9L219 369.7L219.8 369.4L220.6 369.4L221.4 369.1L222.2 368.9L223.1 368.6L223.9 368.3L224.7 365.9L225.5 364.2L226.3 363.5L227.1 365.5L228 366.5L228.8 366.5L229.6 366.5L230.4 366.1L231.2 365.7L232 366.5L232.9 366.2L233.7 365.2L234.5 363.4L235.3 362.5L236.1 362L236.9 361.6L237.8 361.4L238.6 360.1L239.4 359.7L240.2 358.7L241 357.3L241.9 357L242.7 357.3L243.5 357.5L244.3 356.3L245.1 355.5L245.9 354.2L246.8 352.8L247.6 351.9L248.4 350.5L249.2 349.1L250 348.7L250.8 348.5L251.7 347.5L252.5 346.4L253.3 344.7L254.1 343L254.9 340.8L255.7 339.5L256.6 339.4L257.4 340.7L258.2 339L259 338.2L259.8 337.5L260.7 334.2L261.5 327.6L262.3 324.3L263.1 318.4L263.9 313L264.7 308.7L265.6 304.1L266.4 300.6L267.2 294.1L268 286.1L268.8 283.9L269.6 282.3L270.5 281.9L271.3 283.1L272.1 284L272.9 281.8L273.7 278.8L274.5 275.5L275.4 273.8L276.2 270.1L277 269.5"></path><g id="polyline"><polyline id="polyline" points="183.00,370.40 183.80,370.40 184.60,370.30 185.50,370.30 186.30,370.30 187.10,370.40 187.90,370.30 188.70,370.30 189.50,370.30 190.40,370.30 191.20,370.30 192.00,370.30 192.80,370.20 193.60,370.20 194.40,370.20 195.30,370.20 196.10,370.20 196.90,370.10 197.70,370.20 198.50,370.20 199.30,370.20 200.20,370.10 201.00,370.10 201.80,370.10 202.60,370.10 203.40,370.10 204.30,370.10 205.10,370.00 205.90,369.90 206.70,369.90 207.50,369.90 208.30,370.00 209.20,369.90 210.00,369.80 210.80,369.60 211.60,369.40 212.40,369.60 213.20,369.60 214.10,370.10 214.90,370.20 215.70,370.20 216.50,370.20 217.30,370.00 218.10,369.90 219.00,369.70 219.80,369.40 220.60,369.40 221.40,369.10 222.20,368.90 223.10,368.60 223.90,368.30 224.70,365.90 225.50,364.20 226.30,363.50 227.10,365.50 228.00,366.50 228.80,366.50 229.60,366.50 230.40,366.10 231.20,365.70 232.00,366.50 232.90,366.20 233.70,365.20 234.50,363.40 235.30,362.50 236.10,362.00 236.90,361.60 237.80,361.40 238.60,360.10 239.40,359.70 240.20,358.70 241.00,357.30 241.90,357.00 242.70,357.30 243.50,357.50 244.30,356.30 245.10,355.50 245.90,354.20 246.80,352.80 247.60,351.90 248.40,350.50 249.20,349.10 250.00,348.70 250.80,348.50 251.70,347.50 252.50,346.40 253.30,344.70 254.10,343.00 254.90,340.80 255.70,339.50 256.60,339.40 257.40,340.70 258.20,339.00 259.00,338.20 259.80,337.50 260.70,334.20 261.50,327.60 262.30,324.30 263.10,318.40 263.90,313.00 264.70,308.70 265.60,304.10 266.40,300.60 267.20,294.10 268.00,286.10 268.80,283.90 269.60,282.30 270.50,281.90 271.30,283.10 272.10,284.00 272.90,281.80 273.70,278.80 274.50,275.50 275.40,273.80 276.20,270.10 277.00,269.50" stroke-linejoin="round" stroke-width="1.5" stroke="#C15065" fill="none" stroke-linecap="butt"></polyline></g></g></g></g></g><text x="331.6740625" y="256.21875" fill="#1d3d63" font-size="14.625" style="font-weight:700">France<title>France</title></text><g id="line-chart" class="LineChart"><defs><clipPath id="boundsClip-5"><rect x="321.6740625" y="253.53125" width="282" height="145"></rect></clipPath></defs><rect x="293" y="263.53125" width="262" height="125" fill="none"></rect><g id="dual-axis" class="DualAxisView"><g id="horizontal-axis" class="HorizontalAxis"><g id="tick__1750"><line x1="331.7" y1="370.0625" x2="331.7" y2="375.5625" stroke="#999" stroke-width="1"></line><text x="331.6740625" y="386.53125" fill="#5b5b5b" text-anchor="start" font-size="10.96875">1750</text></g><g id="tick__2022"><line x1="554" y1="370.0625" x2="554" y2="375.5625" stroke="#999" stroke-width="1"></line><text x="554" y="386.53125" fill="#5b5b5b" text-anchor="end" font-size="10.96875">2022</text></g><g id="tick__1850"><line x1="413.4" y1="370.0625" x2="413.4" y2="375.5625" stroke="#999" stroke-width="1"></line><text x="413.4" y="386.53125" fill="#5b5b5b" text-anchor="middle" font-size="10.96875">1850</text></g><g id="tick__1900"><line x1="454.3" y1="370.0625" x2="454.3" y2="375.5625" stroke="#999" stroke-width="1"></line><text x="454.3" y="386.53125" fill="#5b5b5b" text-anchor="middle" font-size="10.96875">1900</text></g><g id="tick__1950"><line x1="495.1" y1="370.0625" x2="495.1" y2="375.5625" stroke="#999" stroke-width="1"></line><text x="495.1" y="386.53125" fill="#5b5b5b" text-anchor="middle" font-size="10.96875">1950</text></g></g><g id="vertical-axis" class="VerticalAxis"><g id="tick-labels"><text id="tick-label__0-t" x="326.67" y="370.6" dy=".32em" text-anchor="end" fill="#5b5b5b" font-size="10.96875">0 t</text><text id="tick-label__100M-t" x="326.67" y="351.8" dy=".32em" text-anchor="end" fill="#5b5b5b" font-size="10.96875">100M t</text><text id="tick-label__200M-t" x="326.67" y="333.1" dy=".32em" text-anchor="end" fill="#5b5b5b" font-size="10.96875">200M t</text><text id="tick-label__300M-t" x="326.67" y="314.3" dy=".32em" text-anchor="end" fill="#5b5b5b" font-size="10.96875">300M t</text><text id="tick-label__400M-t" x="326.67" y="295.5" dy=".32em" text-anchor="end" fill="#5b5b5b" font-size="10.96875">400M t</text><text id="tick-label__500M-t" x="326.67" y="276.8" dy=".32em" text-anchor="end" fill="#5b5b5b" font-size="10.96875">500M t</text></g></g><g id="horizontal-grid-lines" class="AxisGridLines horizontalLines"><line id="grid-line__0" x1="331.67" y1="370.6" x2="554.00" y2="370.6" stroke="#999" stroke-width="1"></line><line id="grid-line__100000000" x1="331.67" y1="351.8" x2="554.00" y2="351.8" stroke="#ddd" stroke-width="1" stroke-dasharray="2,1"></line><line id="grid-line__200000000" x1="331.67" y1="333.1" x2="554.00" y2="333.1" stroke="#ddd" stroke-width="1" stroke-dasharray="2,1"></line><line id="grid-line__300000000" x1="331.67" y1="314.3" x2="554.00" y2="314.3" stroke="#ddd" stroke-width="1" stroke-dasharray="2,1"></line><line id="grid-line__400000000" x1="331.67" y1="295.5" x2="554.00" y2="295.5" stroke="#ddd" stroke-width="1" stroke-dasharray="2,1"></line><line id="grid-line__500000000" x1="331.67" y1="276.8" x2="554.00" y2="276.8" stroke="#ddd" stroke-width="1" stroke-dasharray="2,1"></line></g></g><g clip-path="url(#boundsClip-5)"><g id="lines" class="Lines"><rect x="332" y="270" width="222" height="101" fill="rgba(255,255,255,0)" opacity="0"></rect><g id="line__Annual-CO__2082-emissions"><path stroke-linecap="round" stroke-linejoin="round" stroke="#ddd" d="M374.2 370.1L375.8 370.2L380.7 370.2L381.5 370.2L382.4 370.1L383.2 370.2L384 370.2L384.8 370.1L385.6 370.1L386.4 370.1L387.3 370.1L388.1 370.1L388.9 370L389.7 370L390.5 370L391.3 370L392.2 369.9L393 369.8L393.8 369.8L394.6 369.5L395.4 369.4L396.2 369.4L397.1 369.3L397.9 369.4L398.7 369.3L399.5 369.2L400.3 368.9L401.2 368.8L402 368.6L402.8 368.4L403.6 368.3L404.4 368.4L405.2 368.3L406.1 368L406.9 367.8L407.7 367.8L408.5 367.7L409.3 367.2L410.1 367.1L411 366.7L411.8 367.4L412.6 367.3L413.4 366.9L414.2 366.8L415 366.5L415.9 365.8L416.7 365.1L417.5 364.4L418.3 364.1L419.1 363.9L420 364.1L420.8 364L421.6 363.4L422.4 362.8L423.2 362.4L424 362.3L424.9 361.8L425.7 361.3L426.5 360.5L427.3 360.4L428.1 360.1L428.9 359.9L429.8 361.1L430.6 361.1L431.4 359.1L432.2 358.2L433 358.8L433.8 358.3L434.7 358.3L435.5 358.6L436.3 358.3L437.1 357.9L437.9 356.3L438.8 355.9L439.6 355.1L440.4 354.4L441.2 355L442 355.6L442.8 355.7L443.7 354.9L444.5 354.3L445.3 353.9L446.1 352.2L446.9 352.2L447.7 352.2L448.6 352.5L449.4 351.5L450.2 351.3L451 350.6L451.8 349.7L452.6 349L453.5 348L454.3 346.3L455.1 347.1L455.9 348.5L456.7 346.3L457.5 346.9L458.4 346.7L459.2 344.9L460 343.3L460.8 343L461.6 342.4L462.5 342.3L463.3 341.1L464.1 340.8L464.9 338.5L465.7 348.4L466.5 351.2L467.4 350L468.2 347.8L469 350.2L469.8 348.8L470.6 342.1L471.4 344.7L472.3 340L473.1 336L473.9 331.8L474.7 330.5L475.5 330.5L476.3 330.6L477.2 330.9L478 326.6L478.8 326L479.6 329.8L480.4 334.6L481.3 333.2L482.1 332.8L482.9 333.9L483.7 333.4L484.5 329.7L485.3 332.7L486.2 334.1L487 344.7L487.8 348.1L488.6 347.6L489.4 347.1L490.2 355.6L491.1 350.5L491.9 339.6L492.7 336.1L493.5 333.7L494.3 327.6L495.1 332.6L496 327.7L496.8 328L497.6 330.3L498.4 328.1L499.2 325.7L500.1 320.2L500.9 318.5L501.7 320.6L502.5 321.4L503.3 315L504.1 311.4L505 308.1L505.8 307.2L506.6 301.4L507.4 302.4L508.2 299.2L509 294.7L509.9 292.1L510.7 287.4L511.5 284.2L512.3 278L513.1 274.2L513.9 269.5L514.8 272.9L515.6 280.1L516.4 272.4L517.2 275.5L518 271.4L518.9 270.8L519.7 274.7L520.5 284.4L521.3 288L522.1 291.2L522.9 293.3L523.8 294.6L524.6 297.4L525.4 297.8L526.2 298.2L527 295.6L527.8 296.8L528.7 292.2L529.5 294.1L530.3 297.7L531.1 299L531.9 298.1L532.7 295L533.6 296.4L534.4 292.9L535.2 293.2L536 294.3L536.8 293.5L537.7 294.3L538.5 293.2L539.3 293L540.1 292.5L540.9 294.4L541.7 296.3L542.6 297.5L543.4 301L544.2 299.9L545 304.1L545.8 303.7L546.6 303.3L547.5 309.2L548.3 308.4L549.1 307.9L549.9 307.4L550.7 310.2L551.5 311.4L552.4 317.8L553.2 313L554 314.8" fill="none" stroke-width="1"></path></g><g id="line__Annual-CO__2082-emissions"><path id="outline" fill="none" stroke-linecap="butt" stroke-linejoin="round" stroke="#fff" stroke-width="2.5" d="M374.2 370.1L375.8 370.2L380.7 370.2L381.5 370.2L382.4 370.1L383.2 370.2L384 370.2L384.8 370.1L385.6 370.1L386.4 370.1L387.3 370.1L388.1 370.1L388.9 370L389.7 370L390.5 370L391.3 370L392.2 369.9L393 369.8L393.8 369.8L394.6 369.5L395.4 369.4L396.2 369.4L397.1 369.3L397.9 369.4L398.7 369.3L399.5 369.2L400.3 368.9L401.2 368.8L402 368.6L402.8 368.4L403.6 368.3L404.4 368.4L405.2 368.3L406.1 368L406.9 367.8L407.7 367.8L408.5 367.7L409.3 367.2L410.1 367.1L411 366.7L411.8 367.4L412.6 367.3L413.4 366.9L414.2 366.8L415 366.5L415.9 365.8L416.7 365.1L417.5 364.4L418.3 364.1L419.1 363.9L420 364.1L420.8 364L421.6 363.4L422.4 362.8L423.2 362.4L424 362.3L424.9 361.8L425.7 361.3L426.5 360.5L427.3 360.4L428.1 360.1L428.9 359.9L429.8 361.1L430.6 361.1L431.4 359.1L432.2 358.2L433 358.8L433.8 358.3L434.7 358.3L435.5 358.6L436.3 358.3L437.1 357.9L437.9 356.3L438.8 355.9L439.6 355.1L440.4 354.4L441.2 355L442 355.6L442.8 355.7L443.7 354.9L444.5 354.3L445.3 353.9L446.1 352.2L446.9 352.2L447.7 352.2L448.6 352.5L449.4 351.5L450.2 351.3L451 350.6L451.8 349.7L452.6 349L453.5 348L454.3 346.3L455.1 347.1L455.9 348.5L456.7 346.3L457.5 346.9L458.4 346.7L459.2 344.9L460 343.3L460.8 343L461.6 342.4L462.5 342.3L463.3 341.1L464.1 340.8L464.9 338.5L465.7 348.4L466.5 351.2L467.4 350L468.2 347.8L469 350.2L469.8 348.8L470.6 342.1L471.4 344.7L472.3 340L473.1 336L473.9 331.8L474.7 330.5L475.5 330.5L476.3 330.6L477.2 330.9L478 326.6L478.8 326L479.6 329.8L480.4 334.6L481.3 333.2L482.1 332.8L482.9 333.9L483.7 333.4L484.5 329.7L485.3 332.7L486.2 334.1L487 344.7L487.8 348.1L488.6 347.6L489.4 347.1L490.2 355.6L491.1 350.5L491.9 339.6L492.7 336.1L493.5 333.7L494.3 327.6L495.1 332.6L496 327.7L496.8 328L497.6 330.3L498.4 328.1L499.2 325.7L500.1 320.2L500.9 318.5L501.7 320.6L502.5 321.4L503.3 315L504.1 311.4L505 308.1L505.8 307.2L506.6 301.4L507.4 302.4L508.2 299.2L509 294.7L509.9 292.1L510.7 287.4L511.5 284.2L512.3 278L513.1 274.2L513.9 269.5L514.8 272.9L515.6 280.1L516.4 272.4L517.2 275.5L518 271.4L518.9 270.8L519.7 274.7L520.5 284.4L521.3 288L522.1 291.2L522.9 293.3L523.8 294.6L524.6 297.4L525.4 297.8L526.2 298.2L527 295.6L527.8 296.8L528.7 292.2L529.5 294.1L530.3 297.7L531.1 299L531.9 298.1L532.7 295L533.6 296.4L534.4 292.9L535.2 293.2L536 294.3L536.8 293.5L537.7 294.3L538.5 293.2L539.3 293L540.1 292.5L540.9 294.4L541.7 296.3L542.6 297.5L543.4 301L544.2 299.9L545 304.1L545.8 303.7L546.6 303.3L547.5 309.2L548.3 308.4L549.1 307.9L549.9 307.4L550.7 310.2L551.5 311.4L552.4 317.8L553.2 313L554 314.8"></path><g id="polyline"><polyline id="polyline" points="374.20,370.10 375.80,370.20 380.70,370.20 381.50,370.20 382.40,370.10 383.20,370.20 384.00,370.20 384.80,370.10 385.60,370.10 386.40,370.10 387.30,370.10 388.10,370.10 388.90,370.00 389.70,370.00 390.50,370.00 391.30,370.00 392.20,369.90 393.00,369.80 393.80,369.80 394.60,369.50 395.40,369.40 396.20,369.40 397.10,369.30 397.90,369.40 398.70,369.30 399.50,369.20 400.30,368.90 401.20,368.80 402.00,368.60 402.80,368.40 403.60,368.30 404.40,368.40 405.20,368.30 406.10,368.00 406.90,367.80 407.70,367.80 408.50,367.70 409.30,367.20 410.10,367.10 411.00,366.70 411.80,367.40 412.60,367.30 413.40,366.90 414.20,366.80 415.00,366.50 415.90,365.80 416.70,365.10 417.50,364.40 418.30,364.10 419.10,363.90 420.00,364.10 420.80,364.00 421.60,363.40 422.40,362.80 423.20,362.40 424.00,362.30 424.90,361.80 425.70,361.30 426.50,360.50 427.30,360.40 428.10,360.10 428.90,359.90 429.80,361.10 430.60,361.10 431.40,359.10 432.20,358.20 433.00,358.80 433.80,358.30 434.70,358.30 435.50,358.60 436.30,358.30 437.10,357.90 437.90,356.30 438.80,355.90 439.60,355.10 440.40,354.40 441.20,355.00 442.00,355.60 442.80,355.70 443.70,354.90 444.50,354.30 445.30,353.90 446.10,352.20 446.90,352.20 447.70,352.20 448.60,352.50 449.40,351.50 450.20,351.30 451.00,350.60 451.80,349.70 452.60,349.00 453.50,348.00 454.30,346.30 455.10,347.10 455.90,348.50 456.70,346.30 457.50,346.90 458.40,346.70 459.20,344.90 460.00,343.30 460.80,343.00 461.60,342.40 462.50,342.30 463.30,341.10 464.10,340.80 464.90,338.50 465.70,348.40 466.50,351.20 467.40,350.00 468.20,347.80 469.00,350.20 469.80,348.80 470.60,342.10 471.40,344.70 472.30,340.00 473.10,336.00 473.90,331.80 474.70,330.50 475.50,330.50 476.30,330.60 477.20,330.90 478.00,326.60 478.80,326.00 479.60,329.80 480.40,334.60 481.30,333.20 482.10,332.80 482.90,333.90 483.70,333.40 484.50,329.70 485.30,332.70 486.20,334.10 487.00,344.70 487.80,348.10 488.60,347.60 489.40,347.10 490.20,355.60 491.10,350.50 491.90,339.60 492.70,336.10 493.50,333.70 494.30,327.60 495.10,332.60 496.00,327.70 496.80,328.00 497.60,330.30 498.40,328.10 499.20,325.70 500.10,320.20 500.90,318.50 501.70,320.60 502.50,321.40 503.30,315.00 504.10,311.40 505.00,308.10 505.80,307.20 506.60,301.40 507.40,302.40 508.20,299.20 509.00,294.70 509.90,292.10 510.70,287.40 511.50,284.20 512.30,278.00 513.10,274.20 513.90,269.50 514.80,272.90 515.60,280.10 516.40,272.40 517.20,275.50 518.00,271.40 518.90,270.80 519.70,274.70 520.50,284.40 521.30,288.00 522.10,291.20 522.90,293.30 523.80,294.60 524.60,297.40 525.40,297.80 526.20,298.20 527.00,295.60 527.80,296.80 528.70,292.20 529.50,294.10 530.30,297.70 531.10,299.00 531.90,298.10 532.70,295.00 533.60,296.40 534.40,292.90 535.20,293.20 536.00,294.30 536.80,293.50 537.70,294.30 538.50,293.20 539.30,293.00 540.10,292.50 540.90,294.40 541.70,296.30 542.60,297.50 543.40,301.00 544.20,299.90 545.00,304.10 545.80,303.70 546.60,303.30 547.50,309.20 548.30,308.40 549.10,307.90 549.90,307.40 550.70,310.20 551.50,311.40 552.40,317.80 553.20,313.00 554.00,314.80" stroke-linejoin="round" stroke-width="1.5" stroke="#C15065" fill="none" stroke-linecap="butt"></polyline></g></g></g></g></g><text x="608.6740625" y="256.21875" fill="#1d3d63" font-size="14.625" style="font-weight:700">Germany<title>Germany</title></text><g id="line-chart" class="LineChart"><defs><clipPath id="boundsClip-6"><rect x="598.6740625" y="253.53125" width="282" height="145"></rect></clipPath></defs><rect x="570" y="263.53125" width="262" height="125" fill="none"></rect><g id="dual-axis" class="DualAxisView"><g id="horizontal-axis" class="HorizontalAxis"><g id="tick__1750"><line x1="608.7" y1="370.0625" x2="608.7" y2="375.5625" stroke="#999" stroke-width="1"></line><text x="608.6740625" y="386.53125" fill="#5b5b5b" text-anchor="start" font-size="10.96875">1750</text></g><g id="tick__2022"><line x1="831" y1="370.0625" x2="831" y2="375.5625" stroke="#999" stroke-width="1"></line><text x="831" y="386.53125" fill="#5b5b5b" text-anchor="end" font-size="10.96875">2022</text></g><g id="tick__1850"><line x1="690.4" y1="370.0625" x2="690.4" y2="375.5625" stroke="#999" stroke-width="1"></line><text x="690.4" y="386.53125" fill="#5b5b5b" text-anchor="middle" font-size="10.96875">1850</text></g><g id="tick__1900"><line x1="731.3" y1="370.0625" x2="731.3" y2="375.5625" stroke="#999" stroke-width="1"></line><text x="731.3" y="386.53125" fill="#5b5b5b" text-anchor="middle" font-size="10.96875">1900</text></g><g id="tick__1950"><line x1="772.1" y1="370.0625" x2="772.1" y2="375.5625" stroke="#999" stroke-width="1"></line><text x="772.1" y="386.53125" fill="#5b5b5b" text-anchor="middle" font-size="10.96875">1950</text></g></g><g id="vertical-axis" class="VerticalAxis"><g id="tick-labels"><text id="tick-label__0-t" x="603.67" y="370.6" dy=".32em" text-anchor="end" fill="#5b5b5b" font-size="10.96875">0 t</text><text id="tick-label__200M-t" x="603.67" y="352.5" dy=".32em" text-anchor="end" fill="#5b5b5b" font-size="10.96875">200M t</text><text id="tick-label__400M-t" x="603.67" y="334.4" dy=".32em" text-anchor="end" fill="#5b5b5b" font-size="10.96875">400M t</text><text id="tick-label__600M-t" x="603.67" y="316.3" dy=".32em" text-anchor="end" fill="#5b5b5b" font-size="10.96875">600M t</text><text id="tick-label__800M-t" x="603.67" y="298.3" dy=".32em" text-anchor="end" fill="#5b5b5b" font-size="10.96875">800M t</text><text id="tick-label__1B-t" x="603.67" y="280.2" dy=".32em" text-anchor="end" fill="#5b5b5b" font-size="10.96875">1B t</text></g></g><g id="horizontal-grid-lines" class="AxisGridLines horizontalLines"><line id="grid-line__0" x1="608.67" y1="370.6" x2="831.00" y2="370.6" stroke="#999" stroke-width="1"></line><line id="grid-line__200000000" x1="608.67" y1="352.5" x2="831.00" y2="352.5" stroke="#ddd" stroke-width="1" stroke-dasharray="2,1"></line><line id="grid-line__400000000" x1="608.67" y1="334.4" x2="831.00" y2="334.4" stroke="#ddd" stroke-width="1" stroke-dasharray="2,1"></line><line id="grid-line__600000000" x1="608.67" y1="316.3" x2="831.00" y2="316.3" stroke="#ddd" stroke-width="1" stroke-dasharray="2,1"></line><line id="grid-line__800000000" x1="608.67" y1="298.3" x2="831.00" y2="298.3" stroke="#ddd" stroke-width="1" stroke-dasharray="2,1"></line><line id="grid-line__1000000000" x1="608.67" y1="280.2" x2="831.00" y2="280.2" stroke="#ddd" stroke-width="1" stroke-dasharray="2,1"></line></g></g><g clip-path="url(#boundsClip-6)"><g id="lines" class="Lines"><rect x="609" y="270" width="222" height="101" fill="rgba(255,255,255,0)" opacity="0"></rect><g id="line__Annual-CO__2082-emissions"><path stroke-linecap="round" stroke-linejoin="round" stroke="#ddd" d="M643 370.5L643.8 370.5L644.6 370.5L645.5 370.5L646.3 370.5L647.1 370.5L647.9 370.5L648.7 370.5L649.5 370.5L650.4 370.5L651.2 370.5L652 370.5L652.8 370.5L653.6 370.5L654.4 370.5L655.3 370.3L656.1 370.5L656.9 370.5L657.7 370.5L658.5 370.5L659.4 370.5L660.2 370.5L661 370.5L661.8 370.5L662.6 370.3L663.4 370.3L664.3 370.2L665.1 370.3L665.9 370.3L666.7 370.2L667.5 370.2L668.3 370.2L669.2 370.3L670 370.2L670.8 370.2L671.6 370.2L672.4 370.2L673.2 370.2L674.1 370.1L674.9 370.1L675.7 370.3L676.5 370.2L677.3 370.2L678.2 370.1L679 370.1L679.8 370L680.6 370L681.4 369.9L682.2 369.7L683.1 369.7L683.9 369.6L684.7 369.6L685.5 369.6L686.3 369.4L687.1 369.4L688 369.3L688.8 369.4L689.6 369.3L690.4 369.2L691.2 369L692 368.8L692.9 368.7L693.7 368.4L694.5 368L695.3 367.8L696.1 367.6L697 367.3L697.8 367.5L698.6 367.3L699.4 366.8L700.2 366.4L701 366.1L701.9 365.4L702.7 364.8L703.5 364.9L704.3 364.3L705.1 363.8L705.9 363.5L706.8 363.6L707.6 362.8L708.4 362.2L709.2 361.7L710 364.1L710.8 361.4L711.7 361.2L712.5 361.4L713.3 361.1L714.1 360.5L714.9 359.3L715.8 358.4L716.6 357.6L717.4 356.7L718.2 356.3L719 356L719.8 355.8L720.7 355.2L721.5 353.7L722.3 352.6L723.1 351.7L723.9 350.6L724.7 351.1L725.6 350.6L726.4 349.8L727.2 349L728 347.4L728.8 345.8L729.6 344.8L730.5 343.2L731.3 341L732.1 341.1L732.9 341.7L733.7 339.5L734.5 338.4L735.4 336L736.2 337.9L737 330.6L737.8 330.2L738.6 330.3L739.5 330.3L740.3 329.1L741.1 325.5L741.9 322.2L742.7 325.6L743.5 328.7L744.4 325.3L745.2 323.2L746 325.1L746.8 335.5L747.6 331.8L748.4 327.8L749.3 329.4L750.1 340.6L750.9 329.7L751.7 329.2L752.5 333.2L753.3 327.1L754.2 324.9L755 321.8L755.8 328.8L756.6 335.7L757.4 339.2L758.3 337.6L759.1 333.6L759.9 329.7L760.7 325.4L761.5 319.6L762.3 316.2L763.2 311.9L764 311.4L764.8 310.8L765.6 310.2L766.4 309.2L767.2 316.3L768.1 360.1L768.9 346L769.7 341.9L770.5 336.4L771.3 331.5L772.1 324.4L773 318.4L773.8 315.3L774.6 314.2L775.4 310.9L776.2 305.2L777.1 301.3L777.9 300.3L778.7 302.2L779.5 302.3L780.3 297L781.1 295.1L782 290.7L782.8 285.1L783.6 283L784.4 283.8L785.2 284.6L786 285.9L786.9 281.6L787.7 275.5L788.5 277.8L789.3 276.8L790.1 276.4L790.9 272.4L791.8 274.5L792.6 280L793.4 272L794.2 275.4L795 273L795.9 269.5L796.7 271.1L797.5 275.8L798.3 278.8L799.1 279.1L799.9 277.2L800.8 276.2L801.6 275.9L802.4 277.3L803.2 277.6L804 279.4L804.8 275.2L805.7 278.7L806.5 282.9L807.3 283.9L808.1 285.3L808.9 285.6L809.7 283.8L810.6 286.4L811.4 287.1L812.2 289.6L813 289.3L813.8 287.8L814.7 289.3L815.5 289.2L816.3 290.5L817.1 292.3L817.9 291.3L818.7 293.7L819.6 293.5L820.4 299.3L821.2 295.4L822 297.6L822.8 297.1L823.6 295.2L824.5 298.7L825.3 298.4L826.1 298.1L826.9 299.5L827.7 302.3L828.5 306.6L829.4 312.1L830.2 309.2L831 310.4" fill="none" stroke-width="1"></path></g><g id="line__Annual-CO__2082-emissions"><path id="outline" fill="none" stroke-linecap="butt" stroke-linejoin="round" stroke="#fff" stroke-width="2.5" d="M643 370.5L643.8 370.5L644.6 370.5L645.5 370.5L646.3 370.5L647.1 370.5L647.9 370.5L648.7 370.5L649.5 370.5L650.4 370.5L651.2 370.5L652 370.5L652.8 370.5L653.6 370.5L654.4 370.5L655.3 370.3L656.1 370.5L656.9 370.5L657.7 370.5L658.5 370.5L659.4 370.5L660.2 370.5L661 370.5L661.8 370.5L662.6 370.3L663.4 370.3L664.3 370.2L665.1 370.3L665.9 370.3L666.7 370.2L667.5 370.2L668.3 370.2L669.2 370.3L670 370.2L670.8 370.2L671.6 370.2L672.4 370.2L673.2 370.2L674.1 370.1L674.9 370.1L675.7 370.3L676.5 370.2L677.3 370.2L678.2 370.1L679 370.1L679.8 370L680.6 370L681.4 369.9L682.2 369.7L683.1 369.7L683.9 369.6L684.7 369.6L685.5 369.6L686.3 369.4L687.1 369.4L688 369.3L688.8 369.4L689.6 369.3L690.4 369.2L691.2 369L692 368.8L692.9 368.7L693.7 368.4L694.5 368L695.3 367.8L696.1 367.6L697 367.3L697.8 367.5L698.6 367.3L699.4 366.8L700.2 366.4L701 366.1L701.9 365.4L702.7 364.8L703.5 364.9L704.3 364.3L705.1 363.8L705.9 363.5L706.8 363.6L707.6 362.8L708.4 362.2L709.2 361.7L710 364.1L710.8 361.4L711.7 361.2L712.5 361.4L713.3 361.1L714.1 360.5L714.9 359.3L715.8 358.4L716.6 357.6L717.4 356.7L718.2 356.3L719 356L719.8 355.8L720.7 355.2L721.5 353.7L722.3 352.6L723.1 351.7L723.9 350.6L724.7 351.1L725.6 350.6L726.4 349.8L727.2 349L728 347.4L728.8 345.8L729.6 344.8L730.5 343.2L731.3 341L732.1 341.1L732.9 341.7L733.7 339.5L734.5 338.4L735.4 336L736.2 337.9L737 330.6L737.8 330.2L738.6 330.3L739.5 330.3L740.3 329.1L741.1 325.5L741.9 322.2L742.7 325.6L743.5 328.7L744.4 325.3L745.2 323.2L746 325.1L746.8 335.5L747.6 331.8L748.4 327.8L749.3 329.4L750.1 340.6L750.9 329.7L751.7 329.2L752.5 333.2L753.3 327.1L754.2 324.9L755 321.8L755.8 328.8L756.6 335.7L757.4 339.2L758.3 337.6L759.1 333.6L759.9 329.7L760.7 325.4L761.5 319.6L762.3 316.2L763.2 311.9L764 311.4L764.8 310.8L765.6 310.2L766.4 309.2L767.2 316.3L768.1 360.1L768.9 346L769.7 341.9L770.5 336.4L771.3 331.5L772.1 324.4L773 318.4L773.8 315.3L774.6 314.2L775.4 310.9L776.2 305.2L777.1 301.3L777.9 300.3L778.7 302.2L779.5 302.3L780.3 297L781.1 295.1L782 290.7L782.8 285.1L783.6 283L784.4 283.8L785.2 284.6L786 285.9L786.9 281.6L787.7 275.5L788.5 277.8L789.3 276.8L790.1 276.4L790.9 272.4L791.8 274.5L792.6 280L793.4 272L794.2 275.4L795 273L795.9 269.5L796.7 271.1L797.5 275.8L798.3 278.8L799.1 279.1L799.9 277.2L800.8 276.2L801.6 275.9L802.4 277.3L803.2 277.6L804 279.4L804.8 275.2L805.7 278.7L806.5 282.9L807.3 283.9L808.1 285.3L808.9 285.6L809.7 283.8L810.6 286.4L811.4 287.1L812.2 289.6L813 289.3L813.8 287.8L814.7 289.3L815.5 289.2L816.3 290.5L817.1 292.3L817.9 291.3L818.7 293.7L819.6 293.5L820.4 299.3L821.2 295.4L822 297.6L822.8 297.1L823.6 295.2L824.5 298.7L825.3 298.4L826.1 298.1L826.9 299.5L827.7 302.3L828.5 306.6L829.4 312.1L830.2 309.2L831 310.4"></path><g id="polyline"><polyline id="polyline" points="643.00,370.50 643.80,370.50 644.60,370.50 645.50,370.50 646.30,370.50 647.10,370.50 647.90,370.50 648.70,370.50 649.50,370.50 650.40,370.50 651.20,370.50 652.00,370.50 652.80,370.50 653.60,370.50 654.40,370.50 655.30,370.30 656.10,370.50 656.90,370.50 657.70,370.50 658.50,370.50 659.40,370.50 660.20,370.50 661.00,370.50 661.80,370.50 662.60,370.30 663.40,370.30 664.30,370.20 665.10,370.30 665.90,370.30 666.70,370.20 667.50,370.20 668.30,370.20 669.20,370.30 670.00,370.20 670.80,370.20 671.60,370.20 672.40,370.20 673.20,370.20 674.10,370.10 674.90,370.10 675.70,370.30 676.50,370.20 677.30,370.20 678.20,370.10 679.00,370.10 679.80,370.00 680.60,370.00 681.40,369.90 682.20,369.70 683.10,369.70 683.90,369.60 684.70,369.60 685.50,369.60 686.30,369.40 687.10,369.40 688.00,369.30 688.80,369.40 689.60,369.30 690.40,369.20 691.20,369.00 692.00,368.80 692.90,368.70 693.70,368.40 694.50,368.00 695.30,367.80 696.10,367.60 697.00,367.30 697.80,367.50 698.60,367.30 699.40,366.80 700.20,366.40 701.00,366.10 701.90,365.40 702.70,364.80 703.50,364.90 704.30,364.30 705.10,363.80 705.90,363.50 706.80,363.60 707.60,362.80 708.40,362.20 709.20,361.70 710.00,364.10 710.80,361.40 711.70,361.20 712.50,361.40 713.30,361.10 714.10,360.50 714.90,359.30 715.80,358.40 716.60,357.60 717.40,356.70 718.20,356.30 719.00,356.00 719.80,355.80 720.70,355.20 721.50,353.70 722.30,352.60 723.10,351.70 723.90,350.60 724.70,351.10 725.60,350.60 726.40,349.80 727.20,349.00 728.00,347.40 728.80,345.80 729.60,344.80 730.50,343.20 731.30,341.00 732.10,341.10 732.90,341.70 733.70,339.50 734.50,338.40 735.40,336.00 736.20,337.90 737.00,330.60 737.80,330.20 738.60,330.30 739.50,330.30 740.30,329.10 741.10,325.50 741.90,322.20 742.70,325.60 743.50,328.70 744.40,325.30 745.20,323.20 746.00,325.10 746.80,335.50 747.60,331.80 748.40,327.80 749.30,329.40 750.10,340.60 750.90,329.70 751.70,329.20 752.50,333.20 753.30,327.10 754.20,324.90 755.00,321.80 755.80,328.80 756.60,335.70 757.40,339.20 758.30,337.60 759.10,333.60 759.90,329.70 760.70,325.40 761.50,319.60 762.30,316.20 763.20,311.90 764.00,311.40 764.80,310.80 765.60,310.20 766.40,309.20 767.20,316.30 768.10,360.10 768.90,346.00 769.70,341.90 770.50,336.40 771.30,331.50 772.10,324.40 773.00,318.40 773.80,315.30 774.60,314.20 775.40,310.90 776.20,305.20 777.10,301.30 777.90,300.30 778.70,302.20 779.50,302.30 780.30,297.00 781.10,295.10 782.00,290.70 782.80,285.10 783.60,283.00 784.40,283.80 785.20,284.60 786.00,285.90 786.90,281.60 787.70,275.50 788.50,277.80 789.30,276.80 790.10,276.40 790.90,272.40 791.80,274.50 792.60,280.00 793.40,272.00 794.20,275.40 795.00,273.00 795.90,269.50 796.70,271.10 797.50,275.80 798.30,278.80 799.10,279.10 799.90,277.20 800.80,276.20 801.60,275.90 802.40,277.30 803.20,277.60 804.00,279.40 804.80,275.20 805.70,278.70 806.50,282.90 807.30,283.90 808.10,285.30 808.90,285.60 809.70,283.80 810.60,286.40 811.40,287.10 812.20,289.60 813.00,289.30 813.80,287.80 814.70,289.30 815.50,289.20 816.30,290.50 817.10,292.30 817.90,291.30 818.70,293.70 819.60,293.50 820.40,299.30 821.20,295.40 822.00,297.60 822.80,297.10 823.60,295.20 824.50,298.70 825.30,298.40 826.10,298.10 826.90,299.50 827.70,302.30 828.50,306.60 829.40,312.10 830.20,309.20 831.00,310.40" stroke-linejoin="round" stroke-width="1.5" stroke="#C15065" fill="none" stroke-linecap="butt"></polyline></g></g></g></g></g><text x="54.6740625" y="418.21875" fill="#1d3d63" font-size="14.625" style="font-weight:700">Brazil<title>Brazil</title></text><g id="line-chart" class="LineChart"><defs><clipPath id="boundsClip-7"><rect x="44.6740625" y="415.53125" width="282" height="145"></rect></clipPath></defs><rect x="16" y="425.53125" width="262" height="125" fill="none"></rect><g id="dual-axis" class="DualAxisView"><g id="horizontal-axis" class="HorizontalAxis"><g id="tick__1750"><line x1="54.7" y1="532.0625" x2="54.7" y2="537.5625" stroke="#999" stroke-width="1"></line><text x="54.6740625" y="548.53125" fill="#5b5b5b" text-anchor="start" font-size="10.96875">1750</text></g><g id="tick__2022"><line x1="277" y1="532.0625" x2="277" y2="537.5625" stroke="#999" stroke-width="1"></line><text x="277" y="548.53125" fill="#5b5b5b" text-anchor="end" font-size="10.96875">2022</text></g><g id="tick__1850"><line x1="136.4" y1="532.0625" x2="136.4" y2="537.5625" stroke="#999" stroke-width="1"></line><text x="136.4" y="548.53125" fill="#5b5b5b" text-anchor="middle" font-size="10.96875">1850</text></g><g id="tick__1900"><line x1="177.3" y1="532.0625" x2="177.3" y2="537.5625" stroke="#999" stroke-width="1"></line><text x="177.3" y="548.53125" fill="#5b5b5b" text-anchor="middle" font-size="10.96875">1900</text></g><g id="tick__1950"><line x1="218.1" y1="532.0625" x2="218.1" y2="537.5625" stroke="#999" stroke-width="1"></line><text x="218.1" y="548.53125" fill="#5b5b5b" text-anchor="middle" font-size="10.96875">1950</text></g></g><g id="vertical-axis" class="VerticalAxis"><g id="tick-labels"><text id="tick-label__0-t" x="49.67" y="532.6" dy=".32em" text-anchor="end" fill="#5b5b5b" font-size="10.96875">0 t</text><text id="tick-label__100M-t" x="49.67" y="514.5" dy=".32em" text-anchor="end" fill="#5b5b5b" font-size="10.96875">100M t</text><text id="tick-label__200M-t" x="49.67" y="496.3" dy=".32em" text-anchor="end" fill="#5b5b5b" font-size="10.96875">200M t</text><text id="tick-label__300M-t" x="49.67" y="478.2" dy=".32em" text-anchor="end" fill="#5b5b5b" font-size="10.96875">300M t</text><text id="tick-label__400M-t" x="49.67" y="460.1" dy=".32em" text-anchor="end" fill="#5b5b5b" font-size="10.96875">400M t</text><text id="tick-label__500M-t" x="49.67" y="442" dy=".32em" text-anchor="end" fill="#5b5b5b" font-size="10.96875">500M t</text></g></g><g id="horizontal-grid-lines" class="AxisGridLines horizontalLines"><line id="grid-line__0" x1="54.67" y1="532.6" x2="277.00" y2="532.6" stroke="#999" stroke-width="1"></line><line id="grid-line__100000000" x1="54.67" y1="514.5" x2="277.00" y2="514.5" stroke="#ddd" stroke-width="1" stroke-dasharray="2,1"></line><line id="grid-line__200000000" x1="54.67" y1="496.3" x2="277.00" y2="496.3" stroke="#ddd" stroke-width="1" stroke-dasharray="2,1"></line><line id="grid-line__300000000" x1="54.67" y1="478.2" x2="277.00" y2="478.2" stroke="#ddd" stroke-width="1" stroke-dasharray="2,1"></line><line id="grid-line__400000000" x1="54.67" y1="460.1" x2="277.00" y2="460.1" stroke="#ddd" stroke-width="1" stroke-dasharray="2,1"></line><line id="grid-line__500000000" x1="54.67" y1="442" x2="277.00" y2="442" stroke="#ddd" stroke-width="1" stroke-dasharray="2,1"></line></g></g><g clip-path="url(#boundsClip-7)"><g id="lines" class="Lines"><rect x="55" y="432" width="222" height="101" fill="rgba(255,255,255,0)" opacity="0"></rect><g id="line__Annual-CO__2082-emissions"><path stroke-linecap="round" stroke-linejoin="round" stroke="#ddd" d="M178.1 532.2L178.9 532.1L179.7 532.1L180.5 532.1L181.4 532.1L182.2 532L183 531.9L183.8 531.9L184.6 531.9L185.5 531.8L186.3 531.7L187.1 531.5L187.9 531.5L188.7 531.8L189.5 532L190.4 532L191.2 532.1L192 532.1L192.8 532L193.6 531.9L194.4 532L195.3 531.9L196.1 531.7L196.9 531.6L197.7 531.6L198.5 531.6L199.3 531.5L200.2 531.5L201 531.4L201.8 531.6L202.6 531.8L203.4 531.8L204.3 531.7L205.1 531.7L205.9 531.6L206.7 531.6L207.5 531.5L208.3 531.5L209.2 531.5L210 531.4L210.8 531.4L211.6 531.5L212.4 531.4L213.2 531.5L214.1 531.3L214.9 531.2L215.7 530.9L216.5 531.1L217.3 531.2L218.1 529L219 528.6L219.8 528L220.6 528L221.4 527.2L222.2 526.4L223.1 525.9L223.9 526L224.7 525.5L225.5 525.5L226.3 524.1L227.1 523.7L228 522.9L228.8 522.5L229.6 522.3L230.4 522.4L231.2 520.9L232 520.6L232.9 518.6L233.7 517.3L234.5 515.6L235.3 514L236.1 511.9L236.9 508.6L237.8 506.7L238.6 505.3L239.4 504.6L240.2 503.2L241 500.5L241.9 498.6L242.7 498.8L243.5 501.5L244.3 501.5L245.1 502.5L245.9 502.2L246.8 499.9L247.6 496.8L248.4 495.3L249.2 495L250 494.2L250.8 493L251.7 491L252.5 490.3L253.3 488.3L254.1 486.6L254.9 483.9L255.7 480.2L256.6 477L257.4 475.1L258.2 473.3L259 471L259.8 469.9L260.7 469.6L261.5 470.2L262.3 467.1L263.1 466.6L263.9 465.8L264.7 461.8L265.6 457.8L266.4 462L267.2 452.8L268 448.8L268.8 442.3L269.6 436.1L270.5 431.5L271.3 436.7L272.1 443.3L272.9 442.5L273.7 446L274.5 446.8L275.4 452.1L276.2 442.5L277 445" fill="none" stroke-width="1"></path></g><g id="line__Annual-CO__2082-emissions"><path id="outline" fill="none" stroke-linecap="butt" stroke-linejoin="round" stroke="#fff" stroke-width="2.5" d="M178.1 532.2L178.9 532.1L179.7 532.1L180.5 532.1L181.4 532.1L182.2 532L183 531.9L183.8 531.9L184.6 531.9L185.5 531.8L186.3 531.7L187.1 531.5L187.9 531.5L188.7 531.8L189.5 532L190.4 532L191.2 532.1L192 532.1L192.8 532L193.6 531.9L194.4 532L195.3 531.9L196.1 531.7L196.9 531.6L197.7 531.6L198.5 531.6L199.3 531.5L200.2 531.5L201 531.4L201.8 531.6L202.6 531.8L203.4 531.8L204.3 531.7L205.1 531.7L205.9 531.6L206.7 531.6L207.5 531.5L208.3 531.5L209.2 531.5L210 531.4L210.8 531.4L211.6 531.5L212.4 531.4L213.2 531.5L214.1 531.3L214.9 531.2L215.7 530.9L216.5 531.1L217.3 531.2L218.1 529L219 528.6L219.8 528L220.6 528L221.4 527.2L222.2 526.4L223.1 525.9L223.9 526L224.7 525.5L225.5 525.5L226.3 524.1L227.1 523.7L228 522.9L228.8 522.5L229.6 522.3L230.4 522.4L231.2 520.9L232 520.6L232.9 518.6L233.7 517.3L234.5 515.6L235.3 514L236.1 511.9L236.9 508.6L237.8 506.7L238.6 505.3L239.4 504.6L240.2 503.2L241 500.5L241.9 498.6L242.7 498.8L243.5 501.5L244.3 501.5L245.1 502.5L245.9 502.2L246.8 499.9L247.6 496.8L248.4 495.3L249.2 495L250 494.2L250.8 493L251.7 491L252.5 490.3L253.3 488.3L254.1 486.6L254.9 483.9L255.7 480.2L256.6 477L257.4 475.1L258.2 473.3L259 471L259.8 469.9L260.7 469.6L261.5 470.2L262.3 467.1L263.1 466.6L263.9 465.8L264.7 461.8L265.6 457.8L266.4 462L267.2 452.8L268 448.8L268.8 442.3L269.6 436.1L270.5 431.5L271.3 436.7L272.1 443.3L272.9 442.5L273.7 446L274.5 446.8L275.4 452.1L276.2 442.5L277 445"></path><g id="polyline"><polyline id="polyline" points="178.10,532.20 178.90,532.10 179.70,532.10 180.50,532.10 181.40,532.10 182.20,532.00 183.00,531.90 183.80,531.90 184.60,531.90 185.50,531.80 186.30,531.70 187.10,531.50 187.90,531.50 188.70,531.80 189.50,532.00 190.40,532.00 191.20,532.10 192.00,532.10 192.80,532.00 193.60,531.90 194.40,532.00 195.30,531.90 196.10,531.70 196.90,531.60 197.70,531.60 198.50,531.60 199.30,531.50 200.20,531.50 201.00,531.40 201.80,531.60 202.60,531.80 203.40,531.80 204.30,531.70 205.10,531.70 205.90,531.60 206.70,531.60 207.50,531.50 208.30,531.50 209.20,531.50 210.00,531.40 210.80,531.40 211.60,531.50 212.40,531.40 213.20,531.50 214.10,531.30 214.90,531.20 215.70,530.90 216.50,531.10 217.30,531.20 218.10,529.00 219.00,528.60 219.80,528.00 220.60,528.00 221.40,527.20 222.20,526.40 223.10,525.90 223.90,526.00 224.70,525.50 225.50,525.50 226.30,524.10 227.10,523.70 228.00,522.90 228.80,522.50 229.60,522.30 230.40,522.40 231.20,520.90 232.00,520.60 232.90,518.60 233.70,517.30 234.50,515.60 235.30,514.00 236.10,511.90 236.90,508.60 237.80,506.70 238.60,505.30 239.40,504.60 240.20,503.20 241.00,500.50 241.90,498.60 242.70,498.80 243.50,501.50 244.30,501.50 245.10,502.50 245.90,502.20 246.80,499.90 247.60,496.80 248.40,495.30 249.20,495.00 250.00,494.20 250.80,493.00 251.70,491.00 252.50,490.30 253.30,488.30 254.10,486.60 254.90,483.90 255.70,480.20 256.60,477.00 257.40,475.10 258.20,473.30 259.00,471.00 259.80,469.90 260.70,469.60 261.50,470.20 262.30,467.10 263.10,466.60 263.90,465.80 264.70,461.80 265.60,457.80 266.40,462.00 267.20,452.80 268.00,448.80 268.80,442.30 269.60,436.10 270.50,431.50 271.30,436.70 272.10,443.30 272.90,442.50 273.70,446.00 274.50,446.80 275.40,452.10 276.20,442.50 277.00,445.00" stroke-linejoin="round" stroke-width="1.5" stroke="#C15065" fill="none" stroke-linecap="butt"></polyline></g></g></g></g></g></g><g id="footer" class="SourcesFooter" style="fill:#5b5b5b"><g id="sources" class="markdown-text-wrap"><text x="16.0" y="580.9" style="font-size:13.5px;line-height:1.2"><tspan x="16" y="580.9"><tspan style="font-weight:700">Data source:</tspan> Global Carbon Budget (2023)</tspan></text></g><text id="origin-url" font-size="13.50" x="440.7" y="580.9"><tspan x="440.74499999999995" y="580.895"><a target="_blank" style="fill: #5b5b5b;" href="https://ourworldindata.org/co2-and-greenhouse-gas-emissions">OurWorldInData.org/co2-and-greenhouse-gas-emissions</a> | <a target="_blank" style="fill: #5b5b5b;" href="https://creativecommons.org/licenses/by/4.0/">CC BY</a></tspan></text></g></svg>