<svg xmlns="http://www.w3.org/2000/svg" version="1.1" style="font-family:Lato, &#x27;Helvetica Neue&#x27;, Helvetica, Arial, &#x27;Liberation Sans&#x27;, sans-serif;font-size:18px;background-color:white;text-rendering:geometricPrecision;-webkit-font-smoothing:antialiased" width="850" height="600" viewBox="0 0 850 600"><defs><style>@import url(https://ourworldindata.org/fonts.css)</style></defs><defs><pattern id="noDataPattern" patternUnits="userSpaceOnUse" width="4" height="4" patternTransform="rotate(-45 2 2)"><path d="M -1,2 l 6,0" stroke="#ccc" stroke-width="0.7"></path></pattern></defs><rect class="background-fill" fill="white" width="850" height="600"></rect><g id="header" class="HeaderView"><g id="logo" transform="translate(769, 16) scale(1)"><svg className="owidLogo" xmlns="http://www.w3.org/2000/svg" width="65" height="36" viewBox="0 0 65 36"  fill="none"><path fill="#002147" d="M0 0h64.8v36H0z"/><path fill="#CE261E" d="M0 33.3h64.8V36H0z"/><path fill="#fff" d="M13.796 10.575c0 .636-.106 1.226-.318 1.77a4.193 4.193 0 0 1-.894 1.404 4.084 4.084 0 0 1-1.386.93c-.54.22-1.138.33-1.794.33-.656 0-1.256-.11-1.8-.33a4.149 4.149 0 0 1-1.392-.93 4.193 4.193 0 0 1-.894-1.404A4.833 4.833 0 0 1 5 10.575c0-.636.106-1.224.318-1.764a4.18 4.18 0 0 1 .894-1.41 4.076 4.076 0 0 1 1.392-.924 4.684 4.684 0 0 1 1.8-.336c.656 0 1.254.112 1.794.336.54.224 1.002.534 1.386.93.384.392.682.86.894 1.404.212.54.318 1.128.318 1.764Zm-1.656 0c0-.476-.064-.902-.192-1.278a2.671 2.671 0 0 0-.54-.966 2.332 2.332 0 0 0-.864-.606 2.94 2.94 0 0 0-1.14-.21c-.424 0-.806.07-1.146.21-.34.14-.63.342-.87.606a2.742 2.742 0 0 0-.546.966 3.955 3.955 0 0 0-.192 1.278c0 .476.064.904.192 1.284.128.376.31.696.546.96.24.26.53.46.87.6.34.14.722.21 1.146.21.424 0 .804-.07 1.14-.21.34-.14.628-.34.864-.6.236-.264.416-.584.54-.96a4.01 4.01 0 0 0 .192-1.284ZM16.104 8.757v3.912c0 .376.086.668.258.876.176.204.438.306.786.306.256 0 .496-.056.72-.168a2.58 2.58 0 0 0 .636-.474V8.757h1.482v6.156h-.906c-.192 0-.318-.09-.378-.27l-.102-.492a4.65 4.65 0 0 1-.396.354 2.577 2.577 0 0 1-.438.27 2.35 2.35 0 0 1-.498.168 2.345 2.345 0 0 1-.57.066c-.336 0-.634-.056-.894-.168a1.821 1.821 0 0 1-.648-.486 2.157 2.157 0 0 1-.402-.738 3.233 3.233 0 0 1-.132-.948V8.757h1.482ZM21.328 14.913V8.757h.87c.152 0 .258.028.318.084.06.056.1.152.12.288l.09.744c.22-.38.478-.68.774-.9.296-.22.628-.33.996-.33.304 0 .556.07.756.21l-.192 1.11c-.012.072-.038.124-.078.156a.278.278 0 0 1-.162.042 1.01 1.01 0 0 1-.246-.042 1.646 1.646 0 0 0-.414-.042c-.308 0-.572.086-.792.258-.22.168-.406.416-.558.744v3.834h-1.482ZM27.347 6.237h1.356a.57.57 0 0 1 .348.102c.096.064.16.152.192.264l1.476 5.19c.036.128.068.268.096.42.032.148.062.306.09.474a5.968 5.968 0 0 1 .228-.894l1.704-5.19a.575.575 0 0 1 .186-.252.543.543 0 0 1 .348-.114h.474a.57.57 0 0 1 .348.102.497.497 0 0 1 .192.264l1.692 5.19c.088.256.164.54.228.852.028-.156.056-.306.084-.45.032-.144.064-.278.096-.402l1.476-5.19c.028-.1.09-.186.186-.258a.563.563 0 0 1 .348-.108h1.266l-2.694 8.676h-1.458l-1.896-5.928-.078-.246a9.504 9.504 0 0 1-.072-.282c-.024.1-.05.194-.078.282-.024.088-.048.17-.072.246l-1.914 5.928H30.04l-2.694-8.676ZM42.771 8.661c.46 0 .876.074 1.248.222.376.148.696.358.96.63s.468.604.612.996c.144.392.216.83.216 1.314 0 .488-.072.928-.216 1.32a2.85 2.85 0 0 1-.612 1.002 2.653 2.653 0 0 1-.96.636 3.35 3.35 0 0 1-1.248.222c-.46 0-.878-.074-1.254-.222a2.712 2.712 0 0 1-.966-.636 2.922 2.922 0 0 1-.618-1.002 3.807 3.807 0 0 1-.216-1.32c0-.484.072-.922.216-1.314.148-.392.354-.724.618-.996.268-.272.59-.482.966-.63a3.397 3.397 0 0 1 1.254-.222Zm0 5.202c.512 0 .89-.172 1.134-.516.248-.344.372-.848.372-1.512s-.124-1.17-.372-1.518c-.244-.348-.622-.522-1.134-.522-.52 0-.904.176-1.152.528-.248.348-.372.852-.372 1.512s.124 1.164.372 1.512c.248.344.632.516 1.152.516ZM46.723 14.913V8.757h.87c.152 0 .258.028.318.084.06.056.1.152.12.288l.09.744c.22-.38.478-.68.774-.9.296-.22.628-.33.996-.33.304 0 .556.07.756.21l-.192 1.11c-.012.072-.038.124-.078.156a.278.278 0 0 1-.162.042 1.01 1.01 0 0 1-.246-.042 1.646 1.646 0 0 0-.414-.042c-.308 0-.572.086-.792.258-.22.168-.406.416-.558.744v3.834h-1.482ZM52.96 5.997v8.916h-1.482V5.997h1.482ZM58.732 14.913c-.192 0-.318-.09-.378-.27l-.12-.594a3.68 3.68 0 0 1-.402.39c-.14.116-.292.216-.456.3-.16.084-.334.148-.522.192a2.372 2.372 0 0 1-.6.072c-.336 0-.644-.07-.924-.21a2.098 2.098 0 0 1-.726-.606 3.033 3.033 0 0 1-.468-.99 5.072 5.072 0 0 1-.162-1.344c0-.456.062-.88.186-1.272s.302-.732.534-1.02c.232-.288.51-.512.834-.672a2.384 2.384 0 0 1 1.092-.246 2.103 2.103 0 0 1 1.536.606V5.997h1.482v8.916h-.906Zm-1.974-1.086c.308 0 .57-.064.786-.192.216-.128.42-.31.612-.546v-2.76a1.452 1.452 0 0 0-.552-.432 1.597 1.597 0 0 0-.636-.126c-.224 0-.428.042-.612.126a1.21 1.21 0 0 0-.462.384c-.124.168-.22.384-.288.648-.068.26-.102.568-.102.924 0 .36.028.666.084.918.06.248.144.452.252.612.108.156.24.27.396.342.156.068.33.102.522.102ZM16.331 20.757v6.156H14.85v-6.156h1.481Zm.223-1.794a.844.844 0 0 1-.078.36.963.963 0 0 1-.21.294.995.995 0 0 1-.3.204.963.963 0 0 1-.372.072.948.948 0 0 1-.367-.072 1.018 1.018 0 0 1-.498-.498.963.963 0 0 1 0-.732.995.995 0 0 1 .205-.3.929.929 0 0 1 .293-.198.899.899 0 0 1 .738 0 .912.912 0 0 1 .3.198.943.943 0 0 1 .288.672ZM17.771 26.913v-6.156h.906c.192 0 .318.09.378.27l.102.486a2.934 2.934 0 0 1 .828-.618c.156-.076.322-.134.498-.174.176-.04.368-.06.576-.06.336 0 .634.058.894.174.26.112.476.272.648.48.176.204.308.45.396.738.092.284.138.598.138.942v3.918h-1.482v-3.918c0-.376-.088-.666-.264-.87-.172-.208-.432-.312-.78-.312-.256 0-.496.058-.72.174a2.58 2.58 0 0 0-.636.474v4.452h-1.482ZM34.22 22.575c0 .636-.106 1.22-.318 1.752-.212.532-.51.99-.894 1.374a4 4 0 0 1-1.386.894 4.87 4.87 0 0 1-1.794.318h-3.312v-8.676h3.312a4.79 4.79 0 0 1 1.794.324 4 4 0 0 1 1.386.894c.384.38.682.836.894 1.368.212.532.318 1.116.318 1.752Zm-1.65 0c0-.476-.064-.902-.192-1.278a2.68 2.68 0 0 0-.546-.96 2.332 2.332 0 0 0-.864-.606 2.94 2.94 0 0 0-1.14-.21h-1.686v6.108h1.686c.424 0 .804-.07 1.14-.21.34-.14.628-.34.864-.6a2.75 2.75 0 0 0 .546-.96 4.01 4.01 0 0 0 .192-1.284ZM39.98 26.913h-.665c-.14 0-.25-.02-.33-.06-.08-.044-.14-.13-.18-.258l-.132-.438c-.156.14-.31.264-.462.372a2.804 2.804 0 0 1-.462.264c-.16.072-.33.126-.51.162-.18.036-.38.054-.6.054-.26 0-.5-.034-.72-.102a1.618 1.618 0 0 1-.57-.318 1.448 1.448 0 0 1-.366-.522 1.852 1.852 0 0 1-.132-.726c0-.232.06-.46.18-.684.124-.228.328-.432.612-.612.284-.184.662-.336 1.134-.456.472-.12 1.058-.188 1.758-.204v-.36c0-.412-.088-.716-.264-.912-.172-.2-.424-.3-.756-.3a1.837 1.837 0 0 0-1.02.276c-.116.068-.224.13-.324.186a.664.664 0 0 1-.33.084.429.429 0 0 1-.258-.078.614.614 0 0 1-.174-.192l-.27-.474c.708-.648 1.562-.972 2.562-.972.36 0 .68.06.96.18.284.116.524.28.72.492.196.208.344.458.444.75.104.292.156.612.156.96v3.888Zm-2.88-.924c.153 0 .293-.014.42-.042.129-.028.249-.07.36-.126.117-.056.227-.124.33-.204.109-.084.217-.182.325-.294v-1.038c-.432.02-.794.058-1.086.114-.288.052-.52.12-.696.204a.923.923 0 0 0-.378.294.664.664 0 0 0-.108.366c0 .26.076.446.228.558.156.112.358.168.606.168ZM43.22 27.01c-.532 0-.942-.15-1.23-.45-.288-.305-.432-.723-.432-1.255v-3.438h-.624a.31.31 0 0 1-.21-.078c-.056-.052-.084-.13-.084-.234v-.588l.99-.162.312-1.68a.302.302 0 0 1 .108-.186.365.365 0 0 1 .222-.066h.768v1.938h1.62v1.056h-1.62v3.336c0 .192.048.342.144.45a.488.488 0 0 0 .384.162c.092 0 .168-.01.228-.03.064-.024.118-.048.162-.072.048-.024.09-.046.126-.066a.194.194 0 0 1 .108-.036.16.16 0 0 1 .108.036c.028.02.058.052.09.096l.444.72c-.216.18-.464.316-.744.408a2.77 2.77 0 0 1-.87.138ZM50.423 26.913h-.666c-.14 0-.25-.02-.33-.06-.08-.044-.14-.13-.18-.258l-.132-.438c-.156.14-.31.264-.462.372a2.804 2.804 0 0 1-.462.264c-.16.072-.33.126-.51.162-.18.036-.38.054-.6.054-.26 0-.5-.034-.72-.102a1.618 1.618 0 0 1-.57-.318 1.448 1.448 0 0 1-.366-.522 1.852 1.852 0 0 1-.132-.726c0-.232.06-.46.18-.684.124-.228.328-.432.612-.612.284-.184.662-.336 1.134-.456.472-.12 1.058-.188 1.758-.204v-.36c0-.412-.088-.716-.264-.912-.172-.2-.424-.3-.756-.3a1.837 1.837 0 0 0-1.02.276c-.116.068-.224.13-.324.186a.664.664 0 0 1-.33.084.429.429 0 0 1-.258-.078.614.614 0 0 1-.174-.192l-.27-.474c.708-.648 1.562-.972 2.562-.972.36 0 .68.06.96.18.284.116.524.28.72.492.196.208.344.458.444.75.104.292.156.612.156.96v3.888Zm-2.88-.924c.152 0 .292-.014.42-.042.128-.028.248-.07.36-.126.116-.056.226-.124.33-.204.108-.084.216-.182.324-.294v-1.038c-.432.02-.794.058-1.086.114-.288.052-.52.12-.696.204a.923.923 0 0 0-.378.294.664.664 0 0 0-.108.366c0 .26.076.446.228.558.156.112.358.168.606.168Z"/></svg></g><a id="title" href="https://ourworldindata.org/grapher/carbon-intensity-electricity?tab=chart&amp;stackMode=relative&amp;facet=metric&amp;uniformYAxis=0" style="font-family:&#x27;Playfair Display&#x27;, Georgia, &#x27;Times New Roman&#x27;, &#x27;Liberation Serif&#x27;, serif" target="_blank" rel="noopener"><text font-size="22.75" font-weight="600" x="16.0" y="38.1" fill="#5b5b5b"><tspan x="16" y="38.0675">Change in carbon intensity of electricity generation, 1990 to 2023</tspan></text></a><g id="subtitle" class="markdown-text-wrap"><text x="16.0" y="61.5" style="font-size:14.625px;line-height:1.2" fill="#5b5b5b"><tspan x="16" y="61.5">Carbon intensity is measured in grams of <tspan class="dod-span" data-id="carbondioxideequivalents">carbon dioxide-equivalents</tspan> emitted per <tspan class="dod-span" data-id="watt-hours">kilowatt-hour</tspan> of electricity</tspan><tspan x="16" y="79.0">generated.</tspan></text></g></g><g id="chart-area" style="pointer-events:none"><g id="line-chart" class="LineChart"><defs><clipPath id="boundsClip-1"><rect x="53.525000000000006" y="88.4" width="838" height="473.40000000000003"></rect></clipPath></defs><rect x="16" y="98.4" width="818" height="453.40000000000003" fill="none"></rect><g id="dual-axis" class="DualAxisView"><g id="horizontal-axis" class="HorizontalAxis"><g id="tick__1990"><line x1="63.5" y1="530.8000000000001" x2="63.5" y2="536.3000000000001" stroke="#999" stroke-width="1"></line><text x="63.525000000000006" y="549.8000000000001" fill="#5b5b5b" text-anchor="start" font-size="13.5">1990</text></g><g id="tick__2023"><line x1="725.2" y1="530.8000000000001" x2="725.2" y2="536.3000000000001" stroke="#999" stroke-width="1"></line><text x="725.155" y="549.8000000000001" fill="#5b5b5b" text-anchor="end" font-size="13.5">2023</text></g><g id="tick__1995"><line x1="163.8" y1="530.8000000000001" x2="163.8" y2="536.3000000000001" stroke="#999" stroke-width="1"></line><text x="163.8" y="549.8000000000001" fill="#5b5b5b" text-anchor="middle" font-size="13.5">1995</text></g><g id="tick__2000"><line x1="264" y1="530.8000000000001" x2="264" y2="536.3000000000001" stroke="#999" stroke-width="1"></line><text x="264" y="549.8000000000001" fill="#5b5b5b" text-anchor="middle" font-size="13.5">2000</text></g><g id="tick__2005"><line x1="364.3" y1="530.8000000000001" x2="364.3" y2="536.3000000000001" stroke="#999" stroke-width="1"></line><text x="364.3" y="549.8000000000001" fill="#5b5b5b" text-anchor="middle" font-size="13.5">2005</text></g><g id="tick__2010"><line x1="464.5" y1="530.8000000000001" x2="464.5" y2="536.3000000000001" stroke="#999" stroke-width="1"></line><text x="464.5" y="549.8000000000001" fill="#5b5b5b" text-anchor="middle" font-size="13.5">2010</text></g><g id="tick__2015"><line x1="564.8" y1="530.8000000000001" x2="564.8" y2="536.3000000000001" stroke="#999" stroke-width="1"></line><text x="564.8" y="549.8000000000001" fill="#5b5b5b" text-anchor="middle" font-size="13.5">2015</text></g><g id="tick__2020"><line x1="665" y1="530.8000000000001" x2="665" y2="536.3000000000001" stroke="#999" stroke-width="1"></line><text x="665" y="549.8000000000001" fill="#5b5b5b" text-anchor="middle" font-size="13.5">2020</text></g></g><g id="vertical-axis" class="VerticalAxis"><g id="tick-labels"><text id="tick-label__-50__0025" x="58.53" y="518.7" dy=".32em" text-anchor="end" fill="#5b5b5b" font-size="13.5">-50%</text><text id="tick-label____002b0__0025" x="58.53" y="407.4" dy=".32em" text-anchor="end" fill="#5b5b5b" font-size="13.5">+0%</text><text id="tick-label____002b50__0025" x="58.53" y="296" dy=".32em" text-anchor="end" fill="#5b5b5b" font-size="13.5">+50%</text><text id="tick-label____002b100__0025" x="58.53" y="184.7" dy=".32em" text-anchor="end" fill="#5b5b5b" font-size="13.5">+100%</text></g></g><g id="horizontal-grid-lines" class="AxisGridLines horizontalLines"><line id="grid-line__-50" x1="63.53" y1="518.7" x2="725.15" y2="518.7" stroke="#ddd" stroke-width="1" stroke-dasharray="3,2"></line><line id="grid-line__0" x1="63.53" y1="407.4" x2="725.15" y2="407.4" stroke="#999" stroke-width="1"></line><line id="grid-line__50" x1="63.53" y1="296" x2="725.15" y2="296" stroke="#ddd" stroke-width="1" stroke-dasharray="3,2"></line><line id="grid-line__100" x1="63.53" y1="184.7" x2="725.15" y2="184.7" stroke="#ddd" stroke-width="1" stroke-dasharray="3,2"></line></g></g><g clip-path="url(#boundsClip-1)"><g id="line-labels" class="LineLabels"><g id="mark__Sweden" class="legendMark" style="cursor:default"><g id="connector" class="indicator"><path d="M729.155,357.9 H742.655 V357.9 H756.155" stroke="#999" stroke-width="0.5" fill="none"></path></g><rect id="background" x="725.155" y="351.15" width="84.005" height="13.5" fill="#fff" opacity="0"></rect><text id="label" font-size="13.50" font-weight="400" x="760.2" y="362.9" fill="#6d3e91"><tspan x="760.155" y="362.895">Sweden</tspan></text></g><g id="mark__World" class="legendMark" style="cursor:default"><g id="connector" class="indicator"><path d="M729.155,423.3 H742.655 V420.35 H756.155" stroke="#999" stroke-width="0.5" fill="none"></path></g><rect id="background" x="725.155" y="413.6" width="70.235" height="13.5" fill="#fff" opacity="0"></rect><text id="label" font-size="13.50" font-weight="400" x="760.2" y="425.3" fill="#996d39"><tspan x="760.155" y="425.345">World</tspan></text></g><g id="mark__South-Africa" class="legendMark" style="cursor:default"><g id="connector" class="indicator"><path d="M729.155,432.9 H742.655 V435.85 H756.155" stroke="#999" stroke-width="0.5" fill="none"></path></g><rect id="background" x="725.155" y="429.1" width="108.845" height="13.5" fill="#fff" opacity="0"></rect><text id="label" font-size="13.50" font-weight="400" x="760.2" y="440.8" fill="#286bbb"><tspan x="760.155" y="440.845">South Africa</tspan></text></g><g id="mark__China" class="legendMark" style="cursor:default"><g id="connector" class="indicator"><path d="M729.155,464.5 H742.655 V463.3 H756.155" stroke="#999" stroke-width="0.5" fill="none"></path></g><rect id="background" x="725.155" y="456.55" width="70.37" height="13.5" fill="#fff" opacity="0"></rect><text id="label" font-size="13.50" font-weight="400" x="760.2" y="468.3" fill="#883039"><tspan x="760.155" y="468.295">China</tspan></text></g><g id="mark__Poland" class="legendMark" style="cursor:default"><g id="connector" class="indicator"><path d="M729.155,477.6 H742.655 V478.8 H756.155" stroke="#999" stroke-width="0.5" fill="none"></path></g><rect id="background" x="725.155" y="472.05" width="77.255" height="13.5" fill="#fff" opacity="0"></rect><text id="label" font-size="13.50" font-weight="400" x="760.2" y="483.8" fill="#cf0a66"><tspan x="760.155" y="483.795">Poland</tspan></text></g><g id="mark__Italy" class="legendMark" style="cursor:default"><g id="connector" class="indicator"><path d="M729.155,499.5 H735.905 V494.34999999999997 H756.155" stroke="#999" stroke-width="0.5" fill="none"></path></g><rect id="background" x="725.155" y="487.59999999999997" width="59.84" height="13.5" fill="#fff" opacity="0"></rect><text id="label" font-size="13.50" font-weight="400" x="760.2" y="499.3" fill="#be5915"><tspan x="760.155" y="499.34499999999997">Italy</tspan></text></g><g id="mark__France" class="legendMark" style="cursor:default"><g id="connector" class="indicator"><path d="M729.155,510.4 H742.655 V509.84999999999997 H756.155" stroke="#999" stroke-width="0.5" fill="none"></path></g><rect id="background" x="725.155" y="503.09999999999997" width="77.12" height="13.5" fill="#fff" opacity="0"></rect><text id="label" font-size="13.50" font-weight="400" x="760.2" y="514.8" fill="#c15065"><tspan x="760.155" y="514.8449999999999">France</tspan></text></g><g id="mark__Netherlands" class="legendMark" style="cursor:default"><g id="connector" class="indicator"><path d="M729.155,529.2 H749.405 V525.3499999999999 H756.155" stroke="#999" stroke-width="0.5" fill="none"></path></g><rect id="background" x="725.155" y="518.5999999999999" width="108.03500000000001" height="13.5" fill="#fff" opacity="0"></rect><text id="label" font-size="13.50" font-weight="400" x="760.2" y="530.3" fill="#2c8465"><tspan x="760.155" y="530.3449999999999">Netherlands</tspan></text></g><g id="mark__Austria" class="legendMark" style="cursor:default"><g id="connector" class="indicator"><path d="M729.155,531.3 H749.405 V540.8499999999999 H756.155" stroke="#999" stroke-width="0.5" fill="none"></path></g><rect id="background" x="725.155" y="534.0999999999999" width="77.12" height="13.5" fill="#fff" opacity="0"></rect><text id="label" font-size="13.50" font-weight="400" x="760.2" y="545.8" fill="#18470f"><tspan x="760.155" y="545.8449999999999">Austria</tspan></text></g></g><g id="lines" class="Lines"><rect x="64" y="104" width="662" height="427" fill="rgba(255,255,255,0)" opacity="0"></rect><g id="line__World"><path stroke-linecap="round" stroke-linejoin="round" stroke="#ddd" d="M264 407.4L284.1 406.4L304.1 405L324.2 399.7L344.2 401.8L364.3 400L384.3 398.6L404.4 395L424.4 397.8L444.5 399.4L464.5 399.2L484.6 396.3L504.6 397L524.7 396.8L544.7 398.3L564.8 403.2L584.8 406.4L604.9 407.9L624.9 409.5L645 414.8L665 420.5L685.1 419.2L705.1 421.1L725.2 423.3" fill="none" stroke-width="1"></path></g><g id="line__China"><path stroke-linecap="round" stroke-linejoin="round" stroke="#ddd" d="M264 407.4L284.1 413.2L304.1 410.3L324.2 405.3L344.2 408.8L364.3 407.8L384.3 406.5L404.4 406.9L424.4 417.7L444.5 416L464.5 419.5L484.6 416.2L504.6 425.3L524.7 426.1L544.7 432.8L564.8 440.2L584.8 444.8L604.9 446.9L624.9 449L645 453.9L665 457.7L685.1 459.8L705.1 463.5L725.2 464.5" fill="none" stroke-width="1"></path></g><g id="line__South-Africa"><path stroke-linecap="round" stroke-linejoin="round" stroke="#ddd" d="M264 407.4L284.1 405.5L304.1 406.6L324.2 405.1L344.2 405.3L364.3 403.7L384.3 403.5L404.4 404.4L424.4 404.6L444.5 405L464.5 405.1L484.6 406.3L504.6 405.3L524.7 407.4L544.7 409.5L564.8 410L584.8 413.1L604.9 416.1L624.9 414.3L645 416.8L665 416.4L685.1 422.7L705.1 426.8L725.2 432.9" fill="none" stroke-width="1"></path></g><g id="line__Austria"><path stroke-linecap="round" stroke-linejoin="round" stroke="#ddd" d="M63.5 407.4L83.6 395.9L103.6 450.3L123.7 466.4L143.7 455.2L163.8 445.3L183.8 422.1L203.9 422.1L223.9 442.6L244 447.7L264 448.8L284.1 425.9L304.1 428.5L324.2 378.4L344.2 398.9L364.3 403.7L384.3 404.6L404.4 422.7L424.4 433.6L444.5 455.5L464.5 427.9L484.6 417.4L504.6 464.4L524.7 475.6L544.7 496L564.8 476.7L584.8 492.3L604.9 484.9L624.9 489.3L645 493.9L665 511.2L685.1 508.8L705.1 503.7L725.2 531.3" fill="none" stroke-width="1"></path></g><g id="line__Poland"><path stroke-linecap="round" stroke-linejoin="round" stroke="#ddd" d="M63.5 407.4L83.6 407.2L103.6 407.5L123.7 407.3L143.7 408.1L163.8 408.6L183.8 408.8L203.9 409.1L223.9 409.6L244 409.7L264 410.2L284.1 411.4L304.1 412.3L324.2 411.3L344.2 413.3L364.3 415.4L384.3 415.5L404.4 416.9L424.4 418.5L444.5 421.7L464.5 424.4L484.6 427L504.6 431.8L524.7 431.3L544.7 435.7L564.8 439.8L584.8 441.6L604.9 444.5L624.9 443.7L645 452.3L665 460L685.1 455.8L705.1 461.2L725.2 477.6" fill="none" stroke-width="1"></path></g><g id="line__Sweden"><path stroke-linecap="round" stroke-linejoin="round" stroke="#ddd" d="M63.5 407.4L83.6 356.5L103.6 320.7L123.7 286.5L143.7 251.3L163.8 269.2L183.8 104.4L203.9 283.5L223.9 299L244 297.9L264 329.8L284.1 317.1L304.1 253.9L324.2 171.6L344.2 308.8L364.3 341.6L384.3 297.7L404.4 322.2L424.4 310.1L444.5 288.3L464.5 203.8L484.6 280.2L504.6 331.1L524.7 331.1L544.7 361.3L564.8 356.7L584.8 342.6L604.9 345.8L624.9 344.3L645 346.9L665 371.1L685.1 350.5L705.1 355.4L725.2 357.9" fill="none" stroke-width="1"></path></g><g id="line__Italy"><path stroke-linecap="round" stroke-linejoin="round" stroke="#ddd" d="M63.5 407.4L83.6 419.4L103.6 422L123.7 425.8L143.7 425.7L163.8 416.3L183.8 422.7L203.9 424.9L223.9 424.9L244 432.4L264 432.1L284.1 433.3L304.1 423.6L324.2 423.6L344.2 428.4L364.3 428.7L384.3 430.1L404.4 430.9L424.4 438.5L444.5 449.1L464.5 453.9L484.6 454.2L504.6 457.2L524.7 472.7L544.7 480.4L564.8 472.8L584.8 476.3L604.9 475.1L624.9 485.3L645 491.4L665 498.1L685.1 496.2L705.1 480.7L725.2 499.5" fill="none" stroke-width="1"></path></g><g id="line__Netherlands"><path stroke-linecap="round" stroke-linejoin="round" stroke="#ddd" d="M63.5 407.4L83.6 415.6L103.6 419.3L123.7 422.6L143.7 417.4L163.8 410.8L183.8 418.5L203.9 419.3L223.9 420.1L244 428.4L264 425.6L284.1 425.4L304.1 426.2L324.2 425.5L344.2 432.3L364.3 436.5L384.3 436.6L404.4 437.2L424.4 443.1L444.5 446L464.5 449.3L484.6 451.5L504.6 443L524.7 440.7L544.7 432.8L564.8 421.6L584.8 432.1L604.9 445.4L624.9 454L645 475.5L665 500.8L685.1 497.3L705.1 507.6L725.2 529.2" fill="none" stroke-width="1"></path></g><g id="line__France"><path stroke-linecap="round" stroke-linejoin="round" stroke="#ddd" d="M63.5 407.4L83.6 370.1L103.6 412.4L123.7 483.2L143.7 486.4L163.8 473.1L183.8 460.8L203.9 478.7L223.9 423.4L244 443.4L264 459.7L284.1 483.5L304.1 469.4L324.2 457.3L344.2 465.2L364.3 447.3L384.3 466.5L404.4 458.9L424.4 467.6L444.5 468.6L464.5 462.2L484.6 471.2L504.6 464.3L524.7 467.1L544.7 518.7L564.8 503.8L584.8 483.6L604.9 463L624.9 502L645 502.2L665 503.9L685.1 502.4L705.1 461.7L725.2 510.4" fill="none" stroke-width="1"></path></g><g id="line__World"><path id="outline" fill="none" stroke-linecap="butt" stroke-linejoin="round" stroke="#fff" stroke-width="2.5" d="M264 407.4L284.1 406.4L304.1 405L324.2 399.7L344.2 401.8L364.3 400L384.3 398.6L404.4 395L424.4 397.8L444.5 399.4L464.5 399.2L484.6 396.3L504.6 397L524.7 396.8L544.7 398.3L564.8 403.2L584.8 406.4L604.9 407.9L624.9 409.5L645 414.8L665 420.5L685.1 419.2L705.1 421.1L725.2 423.3"></path><g id="polyline"><polyline id="polyline" points="264.00,407.40 284.10,406.40 304.10,405.00 324.20,399.70 344.20,401.80 364.30,400.00 384.30,398.60 404.40,395.00 424.40,397.80 444.50,399.40 464.50,399.20 484.60,396.30 504.60,397.00 524.70,396.80 544.70,398.30 564.80,403.20 584.80,406.40 604.90,407.90 624.90,409.50 645.00,414.80 665.00,420.50 685.10,419.20 705.10,421.10 725.20,423.30" stroke-linejoin="round" stroke-width="1.5" stroke="#996D39" fill="none" stroke-linecap="butt"></polyline></g><g id="markers"><circle cx="264" cy="407.4" r="1.8" fill="#996D39"></circle><circle cx="284.1" cy="406.4" r="1.8" fill="#996D39"></circle><circle cx="304.1" cy="405" r="1.8" fill="#996D39"></circle><circle cx="324.2" cy="399.7" r="1.8" fill="#996D39"></circle><circle cx="344.2" cy="401.8" r="1.8" fill="#996D39"></circle><circle cx="364.3" cy="400" r="1.8" fill="#996D39"></circle><circle cx="384.3" cy="398.6" r="1.8" fill="#996D39"></circle><circle cx="404.4" cy="395" r="1.8" fill="#996D39"></circle><circle cx="424.4" cy="397.8" r="1.8" fill="#996D39"></circle><circle cx="444.5" cy="399.4" r="1.8" fill="#996D39"></circle><circle cx="464.5" cy="399.2" r="1.8" fill="#996D39"></circle><circle cx="484.6" cy="396.3" r="1.8" fill="#996D39"></circle><circle cx="504.6" cy="397" r="1.8" fill="#996D39"></circle><circle cx="524.7" cy="396.8" r="1.8" fill="#996D39"></circle><circle cx="544.7" cy="398.3" r="1.8" fill="#996D39"></circle><circle cx="564.8" cy="403.2" r="1.8" fill="#996D39"></circle><circle cx="584.8" cy="406.4" r="1.8" fill="#996D39"></circle><circle cx="604.9" cy="407.9" r="1.8" fill="#996D39"></circle><circle cx="624.9" cy="409.5" r="1.8" fill="#996D39"></circle><circle cx="645" cy="414.8" r="1.8" fill="#996D39"></circle><circle cx="665" cy="420.5" r="1.8" fill="#996D39"></circle><circle cx="685.1" cy="419.2" r="1.8" fill="#996D39"></circle><circle cx="705.1" cy="421.1" r="1.8" fill="#996D39"></circle><circle cx="725.2" cy="423.3" r="1.8" fill="#996D39"></circle></g></g><g id="line__China"><path id="outline" fill="none" stroke-linecap="butt" stroke-linejoin="round" stroke="#fff" stroke-width="2.5" d="M264 407.4L284.1 413.2L304.1 410.3L324.2 405.3L344.2 408.8L364.3 407.8L384.3 406.5L404.4 406.9L424.4 417.7L444.5 416L464.5 419.5L484.6 416.2L504.6 425.3L524.7 426.1L544.7 432.8L564.8 440.2L584.8 444.8L604.9 446.9L624.9 449L645 453.9L665 457.7L685.1 459.8L705.1 463.5L725.2 464.5"></path><g id="polyline"><polyline id="polyline" points="264.00,407.40 284.10,413.20 304.10,410.30 324.20,405.30 344.20,408.80 364.30,407.80 384.30,406.50 404.40,406.90 424.40,417.70 444.50,416.00 464.50,419.50 484.60,416.20 504.60,425.30 524.70,426.10 544.70,432.80 564.80,440.20 584.80,444.80 604.90,446.90 624.90,449.00 645.00,453.90 665.00,457.70 685.10,459.80 705.10,463.50 725.20,464.50" stroke-linejoin="round" stroke-width="1.5" stroke="#883039" fill="none" stroke-linecap="butt"></polyline></g><g id="markers"><circle cx="264" cy="407.4" r="1.8" fill="#883039"></circle><circle cx="284.1" cy="413.2" r="1.8" fill="#883039"></circle><circle cx="304.1" cy="410.3" r="1.8" fill="#883039"></circle><circle cx="324.2" cy="405.3" r="1.8" fill="#883039"></circle><circle cx="344.2" cy="408.8" r="1.8" fill="#883039"></circle><circle cx="364.3" cy="407.8" r="1.8" fill="#883039"></circle><circle cx="384.3" cy="406.5" r="1.8" fill="#883039"></circle><circle cx="404.4" cy="406.9" r="1.8" fill="#883039"></circle><circle cx="424.4" cy="417.7" r="1.8" fill="#883039"></circle><circle cx="444.5" cy="416" r="1.8" fill="#883039"></circle><circle cx="464.5" cy="419.5" r="1.8" fill="#883039"></circle><circle cx="484.6" cy="416.2" r="1.8" fill="#883039"></circle><circle cx="504.6" cy="425.3" r="1.8" fill="#883039"></circle><circle cx="524.7" cy="426.1" r="1.8" fill="#883039"></circle><circle cx="544.7" cy="432.8" r="1.8" fill="#883039"></circle><circle cx="564.8" cy="440.2" r="1.8" fill="#883039"></circle><circle cx="584.8" cy="444.8" r="1.8" fill="#883039"></circle><circle cx="604.9" cy="446.9" r="1.8" fill="#883039"></circle><circle cx="624.9" cy="449" r="1.8" fill="#883039"></circle><circle cx="645" cy="453.9" r="1.8" fill="#883039"></circle><circle cx="665" cy="457.7" r="1.8" fill="#883039"></circle><circle cx="685.1" cy="459.8" r="1.8" fill="#883039"></circle><circle cx="705.1" cy="463.5" r="1.8" fill="#883039"></circle><circle cx="725.2" cy="464.5" r="1.8" fill="#883039"></circle></g></g><g id="line__South-Africa"><path id="outline" fill="none" stroke-linecap="butt" stroke-linejoin="round" stroke="#fff" stroke-width="2.5" d="M264 407.4L284.1 405.5L304.1 406.6L324.2 405.1L344.2 405.3L364.3 403.7L384.3 403.5L404.4 404.4L424.4 404.6L444.5 405L464.5 405.1L484.6 406.3L504.6 405.3L524.7 407.4L544.7 409.5L564.8 410L584.8 413.1L604.9 416.1L624.9 414.3L645 416.8L665 416.4L685.1 422.7L705.1 426.8L725.2 432.9"></path><g id="polyline"><polyline id="polyline" points="264.00,407.40 284.10,405.50 304.10,406.60 324.20,405.10 344.20,405.30 364.30,403.70 384.30,403.50 404.40,404.40 424.40,404.60 444.50,405.00 464.50,405.10 484.60,406.30 504.60,405.30 524.70,407.40 544.70,409.50 564.80,410.00 584.80,413.10 604.90,416.10 624.90,414.30 645.00,416.80 665.00,416.40 685.10,422.70 705.10,426.80 725.20,432.90" stroke-linejoin="round" stroke-width="1.5" stroke="#286BBB" fill="none" stroke-linecap="butt"></polyline></g><g id="markers"><circle cx="264" cy="407.4" r="1.8" fill="#286BBB"></circle><circle cx="284.1" cy="405.5" r="1.8" fill="#286BBB"></circle><circle cx="304.1" cy="406.6" r="1.8" fill="#286BBB"></circle><circle cx="324.2" cy="405.1" r="1.8" fill="#286BBB"></circle><circle cx="344.2" cy="405.3" r="1.8" fill="#286BBB"></circle><circle cx="364.3" cy="403.7" r="1.8" fill="#286BBB"></circle><circle cx="384.3" cy="403.5" r="1.8" fill="#286BBB"></circle><circle cx="404.4" cy="404.4" r="1.8" fill="#286BBB"></circle><circle cx="424.4" cy="404.6" r="1.8" fill="#286BBB"></circle><circle cx="444.5" cy="405" r="1.8" fill="#286BBB"></circle><circle cx="464.5" cy="405.1" r="1.8" fill="#286BBB"></circle><circle cx="484.6" cy="406.3" r="1.8" fill="#286BBB"></circle><circle cx="504.6" cy="405.3" r="1.8" fill="#286BBB"></circle><circle cx="524.7" cy="407.4" r="1.8" fill="#286BBB"></circle><circle cx="544.7" cy="409.5" r="1.8" fill="#286BBB"></circle><circle cx="564.8" cy="410" r="1.8" fill="#286BBB"></circle><circle cx="584.8" cy="413.1" r="1.8" fill="#286BBB"></circle><circle cx="604.9" cy="416.1" r="1.8" fill="#286BBB"></circle><circle cx="624.9" cy="414.3" r="1.8" fill="#286BBB"></circle><circle cx="645" cy="416.8" r="1.8" fill="#286BBB"></circle><circle cx="665" cy="416.4" r="1.8" fill="#286BBB"></circle><circle cx="685.1" cy="422.7" r="1.8" fill="#286BBB"></circle><circle cx="705.1" cy="426.8" r="1.8" fill="#286BBB"></circle><circle cx="725.2" cy="432.9" r="1.8" fill="#286BBB"></circle></g></g><g id="line__Austria"><path id="outline" fill="none" stroke-linecap="butt" stroke-linejoin="round" stroke="#fff" stroke-width="2.5" d="M63.5 407.4L83.6 395.9L103.6 450.3L123.7 466.4L143.7 455.2L163.8 445.3L183.8 422.1L203.9 422.1L223.9 442.6L244 447.7L264 448.8L284.1 425.9L304.1 428.5L324.2 378.4L344.2 398.9L364.3 403.7L384.3 404.6L404.4 422.7L424.4 433.6L444.5 455.5L464.5 427.9L484.6 417.4L504.6 464.4L524.7 475.6L544.7 496L564.8 476.7L584.8 492.3L604.9 484.9L624.9 489.3L645 493.9L665 511.2L685.1 508.8L705.1 503.7L725.2 531.3"></path><g id="polyline"><polyline id="polyline" points="63.50,407.40 83.60,395.90 103.60,450.30 123.70,466.40 143.70,455.20 163.80,445.30 183.80,422.10 203.90,422.10 223.90,442.60 244.00,447.70 264.00,448.80 284.10,425.90 304.10,428.50 324.20,378.40 344.20,398.90 364.30,403.70 384.30,404.60 404.40,422.70 424.40,433.60 444.50,455.50 464.50,427.90 484.60,417.40 504.60,464.40 524.70,475.60 544.70,496.00 564.80,476.70 584.80,492.30 604.90,484.90 624.90,489.30 645.00,493.90 665.00,511.20 685.10,508.80 705.10,503.70 725.20,531.30" stroke-linejoin="round" stroke-width="1.5" stroke="#18470F" fill="none" stroke-linecap="butt"></polyline></g><g id="markers"><circle cx="63.5" cy="407.4" r="1.8" fill="#18470F"></circle><circle cx="83.6" cy="395.9" r="1.8" fill="#18470F"></circle><circle cx="103.6" cy="450.3" r="1.8" fill="#18470F"></circle><circle cx="123.7" cy="466.4" r="1.8" fill="#18470F"></circle><circle cx="143.7" cy="455.2" r="1.8" fill="#18470F"></circle><circle cx="163.8" cy="445.3" r="1.8" fill="#18470F"></circle><circle cx="183.8" cy="422.1" r="1.8" fill="#18470F"></circle><circle cx="203.9" cy="422.1" r="1.8" fill="#18470F"></circle><circle cx="223.9" cy="442.6" r="1.8" fill="#18470F"></circle><circle cx="244" cy="447.7" r="1.8" fill="#18470F"></circle><circle cx="264" cy="448.8" r="1.8" fill="#18470F"></circle><circle cx="284.1" cy="425.9" r="1.8" fill="#18470F"></circle><circle cx="304.1" cy="428.5" r="1.8" fill="#18470F"></circle><circle cx="324.2" cy="378.4" r="1.8" fill="#18470F"></circle><circle cx="344.2" cy="398.9" r="1.8" fill="#18470F"></circle><circle cx="364.3" cy="403.7" r="1.8" fill="#18470F"></circle><circle cx="384.3" cy="404.6" r="1.8" fill="#18470F"></circle><circle cx="404.4" cy="422.7" r="1.8" fill="#18470F"></circle><circle cx="424.4" cy="433.6" r="1.8" fill="#18470F"></circle><circle cx="444.5" cy="455.5" r="1.8" fill="#18470F"></circle><circle cx="464.5" cy="427.9" r="1.8" fill="#18470F"></circle><circle cx="484.6" cy="417.4" r="1.8" fill="#18470F"></circle><circle cx="504.6" cy="464.4" r="1.8" fill="#18470F"></circle><circle cx="524.7" cy="475.6" r="1.8" fill="#18470F"></circle><circle cx="544.7" cy="496" r="1.8" fill="#18470F"></circle><circle cx="564.8" cy="476.7" r="1.8" fill="#18470F"></circle><circle cx="584.8" cy="492.3" r="1.8" fill="#18470F"></circle><circle cx="604.9" cy="484.9" r="1.8" fill="#18470F"></circle><circle cx="624.9" cy="489.3" r="1.8" fill="#18470F"></circle><circle cx="645" cy="493.9" r="1.8" fill="#18470F"></circle><circle cx="665" cy="511.2" r="1.8" fill="#18470F"></circle><circle cx="685.1" cy="508.8" r="1.8" fill="#18470F"></circle><circle cx="705.1" cy="503.7" r="1.8" fill="#18470F"></circle><circle cx="725.2" cy="531.3" r="1.8" fill="#18470F"></circle></g></g><g id="line__Poland"><path id="outline" fill="none" stroke-linecap="butt" stroke-linejoin="round" stroke="#fff" stroke-width="2.5" d="M63.5 407.4L83.6 407.2L103.6 407.5L123.7 407.3L143.7 408.1L163.8 408.6L183.8 408.8L203.9 409.1L223.9 409.6L244 409.7L264 410.2L284.1 411.4L304.1 412.3L324.2 411.3L344.2 413.3L364.3 415.4L384.3 415.5L404.4 416.9L424.4 418.5L444.5 421.7L464.5 424.4L484.6 427L504.6 431.8L524.7 431.3L544.7 435.7L564.8 439.8L584.8 441.6L604.9 444.5L624.9 443.7L645 452.3L665 460L685.1 455.8L705.1 461.2L725.2 477.6"></path><g id="polyline"><polyline id="polyline" points="63.50,407.40 83.60,407.20 103.60,407.50 123.70,407.30 143.70,408.10 163.80,408.60 183.80,408.80 203.90,409.10 223.90,409.60 244.00,409.70 264.00,410.20 284.10,411.40 304.10,412.30 324.20,411.30 344.20,413.30 364.30,415.40 384.30,415.50 404.40,416.90 424.40,418.50 444.50,421.70 464.50,424.40 484.60,427.00 504.60,431.80 524.70,431.30 544.70,435.70 564.80,439.80 584.80,441.60 604.90,444.50 624.90,443.70 645.00,452.30 665.00,460.00 685.10,455.80 705.10,461.20 725.20,477.60" stroke-linejoin="round" stroke-width="1.5" stroke="#CF0A66" fill="none" stroke-linecap="butt"></polyline></g><g id="markers"><circle cx="63.5" cy="407.4" r="1.8" fill="#CF0A66"></circle><circle cx="83.6" cy="407.2" r="1.8" fill="#CF0A66"></circle><circle cx="103.6" cy="407.5" r="1.8" fill="#CF0A66"></circle><circle cx="123.7" cy="407.3" r="1.8" fill="#CF0A66"></circle><circle cx="143.7" cy="408.1" r="1.8" fill="#CF0A66"></circle><circle cx="163.8" cy="408.6" r="1.8" fill="#CF0A66"></circle><circle cx="183.8" cy="408.8" r="1.8" fill="#CF0A66"></circle><circle cx="203.9" cy="409.1" r="1.8" fill="#CF0A66"></circle><circle cx="223.9" cy="409.6" r="1.8" fill="#CF0A66"></circle><circle cx="244" cy="409.7" r="1.8" fill="#CF0A66"></circle><circle cx="264" cy="410.2" r="1.8" fill="#CF0A66"></circle><circle cx="284.1" cy="411.4" r="1.8" fill="#CF0A66"></circle><circle cx="304.1" cy="412.3" r="1.8" fill="#CF0A66"></circle><circle cx="324.2" cy="411.3" r="1.8" fill="#CF0A66"></circle><circle cx="344.2" cy="413.3" r="1.8" fill="#CF0A66"></circle><circle cx="364.3" cy="415.4" r="1.8" fill="#CF0A66"></circle><circle cx="384.3" cy="415.5" r="1.8" fill="#CF0A66"></circle><circle cx="404.4" cy="416.9" r="1.8" fill="#CF0A66"></circle><circle cx="424.4" cy="418.5" r="1.8" fill="#CF0A66"></circle><circle cx="444.5" cy="421.7" r="1.8" fill="#CF0A66"></circle><circle cx="464.5" cy="424.4" r="1.8" fill="#CF0A66"></circle><circle cx="484.6" cy="427" r="1.8" fill="#CF0A66"></circle><circle cx="504.6" cy="431.8" r="1.8" fill="#CF0A66"></circle><circle cx="524.7" cy="431.3" r="1.8" fill="#CF0A66"></circle><circle cx="544.7" cy="435.7" r="1.8" fill="#CF0A66"></circle><circle cx="564.8" cy="439.8" r="1.8" fill="#CF0A66"></circle><circle cx="584.8" cy="441.6" r="1.8" fill="#CF0A66"></circle><circle cx="604.9" cy="444.5" r="1.8" fill="#CF0A66"></circle><circle cx="624.9" cy="443.7" r="1.8" fill="#CF0A66"></circle><circle cx="645" cy="452.3" r="1.8" fill="#CF0A66"></circle><circle cx="665" cy="460" r="1.8" fill="#CF0A66"></circle><circle cx="685.1" cy="455.8" r="1.8" fill="#CF0A66"></circle><circle cx="705.1" cy="461.2" r="1.8" fill="#CF0A66"></circle><circle cx="725.2" cy="477.6" r="1.8" fill="#CF0A66"></circle></g></g><g id="line__Sweden"><path id="outline" fill="none" stroke-linecap="butt" stroke-linejoin="round" stroke="#fff" stroke-width="2.5" d="M63.5 407.4L83.6 356.5L103.6 320.7L123.7 286.5L143.7 251.3L163.8 269.2L183.8 104.4L203.9 283.5L223.9 299L244 297.9L264 329.8L284.1 317.1L304.1 253.9L324.2 171.6L344.2 308.8L364.3 341.6L384.3 297.7L404.4 322.2L424.4 310.1L444.5 288.3L464.5 203.8L484.6 280.2L504.6 331.1L524.7 331.1L544.7 361.3L564.8 356.7L584.8 342.6L604.9 345.8L624.9 344.3L645 346.9L665 371.1L685.1 350.5L705.1 355.4L725.2 357.9"></path><g id="polyline"><polyline id="polyline" points="63.50,407.40 83.60,356.50 103.60,320.70 123.70,286.50 143.70,251.30 163.80,269.20 183.80,104.40 203.90,283.50 223.90,299.00 244.00,297.90 264.00,329.80 284.10,317.10 304.10,253.90 324.20,171.60 344.20,308.80 364.30,341.60 384.30,297.70 404.40,322.20 424.40,310.10 444.50,288.30 464.50,203.80 484.60,280.20 504.60,331.10 524.70,331.10 544.70,361.30 564.80,356.70 584.80,342.60 604.90,345.80 624.90,344.30 645.00,346.90 665.00,371.10 685.10,350.50 705.10,355.40 725.20,357.90" stroke-linejoin="round" stroke-width="1.5" stroke="#6D3E91" fill="none" stroke-linecap="butt"></polyline></g><g id="markers"><circle cx="63.5" cy="407.4" r="1.8" fill="#6D3E91"></circle><circle cx="83.6" cy="356.5" r="1.8" fill="#6D3E91"></circle><circle cx="103.6" cy="320.7" r="1.8" fill="#6D3E91"></circle><circle cx="123.7" cy="286.5" r="1.8" fill="#6D3E91"></circle><circle cx="143.7" cy="251.3" r="1.8" fill="#6D3E91"></circle><circle cx="163.8" cy="269.2" r="1.8" fill="#6D3E91"></circle><circle cx="183.8" cy="104.4" r="1.8" fill="#6D3E91"></circle><circle cx="203.9" cy="283.5" r="1.8" fill="#6D3E91"></circle><circle cx="223.9" cy="299" r="1.8" fill="#6D3E91"></circle><circle cx="244" cy="297.9" r="1.8" fill="#6D3E91"></circle><circle cx="264" cy="329.8" r="1.8" fill="#6D3E91"></circle><circle cx="284.1" cy="317.1" r="1.8" fill="#6D3E91"></circle><circle cx="304.1" cy="253.9" r="1.8" fill="#6D3E91"></circle><circle cx="324.2" cy="171.6" r="1.8" fill="#6D3E91"></circle><circle cx="344.2" cy="308.8" r="1.8" fill="#6D3E91"></circle><circle cx="364.3" cy="341.6" r="1.8" fill="#6D3E91"></circle><circle cx="384.3" cy="297.7" r="1.8" fill="#6D3E91"></circle><circle cx="404.4" cy="322.2" r="1.8" fill="#6D3E91"></circle><circle cx="424.4" cy="310.1" r="1.8" fill="#6D3E91"></circle><circle cx="444.5" cy="288.3" r="1.8" fill="#6D3E91"></circle><circle cx="464.5" cy="203.8" r="1.8" fill="#6D3E91"></circle><circle cx="484.6" cy="280.2" r="1.8" fill="#6D3E91"></circle><circle cx="504.6" cy="331.1" r="1.8" fill="#6D3E91"></circle><circle cx="524.7" cy="331.1" r="1.8" fill="#6D3E91"></circle><circle cx="544.7" cy="361.3" r="1.8" fill="#6D3E91"></circle><circle cx="564.8" cy="356.7" r="1.8" fill="#6D3E91"></circle><circle cx="584.8" cy="342.6" r="1.8" fill="#6D3E91"></circle><circle cx="604.9" cy="345.8" r="1.8" fill="#6D3E91"></circle><circle cx="624.9" cy="344.3" r="1.8" fill="#6D3E91"></circle><circle cx="645" cy="346.9" r="1.8" fill="#6D3E91"></circle><circle cx="665" cy="371.1" r="1.8" fill="#6D3E91"></circle><circle cx="685.1" cy="350.5" r="1.8" fill="#6D3E91"></circle><circle cx="705.1" cy="355.4" r="1.8" fill="#6D3E91"></circle><circle cx="725.2" cy="357.9" r="1.8" fill="#6D3E91"></circle></g></g><g id="line__Italy"><path id="outline" fill="none" stroke-linecap="butt" stroke-linejoin="round" stroke="#fff" stroke-width="2.5" d="M63.5 407.4L83.6 419.4L103.6 422L123.7 425.8L143.7 425.7L163.8 416.3L183.8 422.7L203.9 424.9L223.9 424.9L244 432.4L264 432.1L284.1 433.3L304.1 423.6L324.2 423.6L344.2 428.4L364.3 428.7L384.3 430.1L404.4 430.9L424.4 438.5L444.5 449.1L464.5 453.9L484.6 454.2L504.6 457.2L524.7 472.7L544.7 480.4L564.8 472.8L584.8 476.3L604.9 475.1L624.9 485.3L645 491.4L665 498.1L685.1 496.2L705.1 480.7L725.2 499.5"></path><g id="polyline"><polyline id="polyline" points="63.50,407.40 83.60,419.40 103.60,422.00 123.70,425.80 143.70,425.70 163.80,416.30 183.80,422.70 203.90,424.90 223.90,424.90 244.00,432.40 264.00,432.10 284.10,433.30 304.10,423.60 324.20,423.60 344.20,428.40 364.30,428.70 384.30,430.10 404.40,430.90 424.40,438.50 444.50,449.10 464.50,453.90 484.60,454.20 504.60,457.20 524.70,472.70 544.70,480.40 564.80,472.80 584.80,476.30 604.90,475.10 624.90,485.30 645.00,491.40 665.00,498.10 685.10,496.20 705.10,480.70 725.20,499.50" stroke-linejoin="round" stroke-width="1.5" stroke="#BE5915" fill="none" stroke-linecap="butt"></polyline></g><g id="markers"><circle cx="63.5" cy="407.4" r="1.8" fill="#BE5915"></circle><circle cx="83.6" cy="419.4" r="1.8" fill="#BE5915"></circle><circle cx="103.6" cy="422" r="1.8" fill="#BE5915"></circle><circle cx="123.7" cy="425.8" r="1.8" fill="#BE5915"></circle><circle cx="143.7" cy="425.7" r="1.8" fill="#BE5915"></circle><circle cx="163.8" cy="416.3" r="1.8" fill="#BE5915"></circle><circle cx="183.8" cy="422.7" r="1.8" fill="#BE5915"></circle><circle cx="203.9" cy="424.9" r="1.8" fill="#BE5915"></circle><circle cx="223.9" cy="424.9" r="1.8" fill="#BE5915"></circle><circle cx="244" cy="432.4" r="1.8" fill="#BE5915"></circle><circle cx="264" cy="432.1" r="1.8" fill="#BE5915"></circle><circle cx="284.1" cy="433.3" r="1.8" fill="#BE5915"></circle><circle cx="304.1" cy="423.6" r="1.8" fill="#BE5915"></circle><circle cx="324.2" cy="423.6" r="1.8" fill="#BE5915"></circle><circle cx="344.2" cy="428.4" r="1.8" fill="#BE5915"></circle><circle cx="364.3" cy="428.7" r="1.8" fill="#BE5915"></circle><circle cx="384.3" cy="430.1" r="1.8" fill="#BE5915"></circle><circle cx="404.4" cy="430.9" r="1.8" fill="#BE5915"></circle><circle cx="424.4" cy="438.5" r="1.8" fill="#BE5915"></circle><circle cx="444.5" cy="449.1" r="1.8" fill="#BE5915"></circle><circle cx="464.5" cy="453.9" r="1.8" fill="#BE5915"></circle><circle cx="484.6" cy="454.2" r="1.8" fill="#BE5915"></circle><circle cx="504.6" cy="457.2" r="1.8" fill="#BE5915"></circle><circle cx="524.7" cy="472.7" r="1.8" fill="#BE5915"></circle><circle cx="544.7" cy="480.4" r="1.8" fill="#BE5915"></circle><circle cx="564.8" cy="472.8" r="1.8" fill="#BE5915"></circle><circle cx="584.8" cy="476.3" r="1.8" fill="#BE5915"></circle><circle cx="604.9" cy="475.1" r="1.8" fill="#BE5915"></circle><circle cx="624.9" cy="485.3" r="1.8" fill="#BE5915"></circle><circle cx="645" cy="491.4" r="1.8" fill="#BE5915"></circle><circle cx="665" cy="498.1" r="1.8" fill="#BE5915"></circle><circle cx="685.1" cy="496.2" r="1.8" fill="#BE5915"></circle><circle cx="705.1" cy="480.7" r="1.8" fill="#BE5915"></circle><circle cx="725.2" cy="499.5" r="1.8" fill="#BE5915"></circle></g></g><g id="line__Netherlands"><path id="outline" fill="none" stroke-linecap="butt" stroke-linejoin="round" stroke="#fff" stroke-width="2.5" d="M63.5 407.4L83.6 415.6L103.6 419.3L123.7 422.6L143.7 417.4L163.8 410.8L183.8 418.5L203.9 419.3L223.9 420.1L244 428.4L264 425.6L284.1 425.4L304.1 426.2L324.2 425.5L344.2 432.3L364.3 436.5L384.3 436.6L404.4 437.2L424.4 443.1L444.5 446L464.5 449.3L484.6 451.5L504.6 443L524.7 440.7L544.7 432.8L564.8 421.6L584.8 432.1L604.9 445.4L624.9 454L645 475.5L665 500.8L685.1 497.3L705.1 507.6L725.2 529.2"></path><g id="polyline"><polyline id="polyline" points="63.50,407.40 83.60,415.60 103.60,419.30 123.70,422.60 143.70,417.40 163.80,410.80 183.80,418.50 203.90,419.30 223.90,420.10 244.00,428.40 264.00,425.60 284.10,425.40 304.10,426.20 324.20,425.50 344.20,432.30 364.30,436.50 384.30,436.60 404.40,437.20 424.40,443.10 444.50,446.00 464.50,449.30 484.60,451.50 504.60,443.00 524.70,440.70 544.70,432.80 564.80,421.60 584.80,432.10 604.90,445.40 624.90,454.00 645.00,475.50 665.00,500.80 685.10,497.30 705.10,507.60 725.20,529.20" stroke-linejoin="round" stroke-width="1.5" stroke="#2C8465" fill="none" stroke-linecap="butt"></polyline></g><g id="markers"><circle cx="63.5" cy="407.4" r="1.8" fill="#2C8465"></circle><circle cx="83.6" cy="415.6" r="1.8" fill="#2C8465"></circle><circle cx="103.6" cy="419.3" r="1.8" fill="#2C8465"></circle><circle cx="123.7" cy="422.6" r="1.8" fill="#2C8465"></circle><circle cx="143.7" cy="417.4" r="1.8" fill="#2C8465"></circle><circle cx="163.8" cy="410.8" r="1.8" fill="#2C8465"></circle><circle cx="183.8" cy="418.5" r="1.8" fill="#2C8465"></circle><circle cx="203.9" cy="419.3" r="1.8" fill="#2C8465"></circle><circle cx="223.9" cy="420.1" r="1.8" fill="#2C8465"></circle><circle cx="244" cy="428.4" r="1.8" fill="#2C8465"></circle><circle cx="264" cy="425.6" r="1.8" fill="#2C8465"></circle><circle cx="284.1" cy="425.4" r="1.8" fill="#2C8465"></circle><circle cx="304.1" cy="426.2" r="1.8" fill="#2C8465"></circle><circle cx="324.2" cy="425.5" r="1.8" fill="#2C8465"></circle><circle cx="344.2" cy="432.3" r="1.8" fill="#2C8465"></circle><circle cx="364.3" cy="436.5" r="1.8" fill="#2C8465"></circle><circle cx="384.3" cy="436.6" r="1.8" fill="#2C8465"></circle><circle cx="404.4" cy="437.2" r="1.8" fill="#2C8465"></circle><circle cx="424.4" cy="443.1" r="1.8" fill="#2C8465"></circle><circle cx="444.5" cy="446" r="1.8" fill="#2C8465"></circle><circle cx="464.5" cy="449.3" r="1.8" fill="#2C8465"></circle><circle cx="484.6" cy="451.5" r="1.8" fill="#2C8465"></circle><circle cx="504.6" cy="443" r="1.8" fill="#2C8465"></circle><circle cx="524.7" cy="440.7" r="1.8" fill="#2C8465"></circle><circle cx="544.7" cy="432.8" r="1.8" fill="#2C8465"></circle><circle cx="564.8" cy="421.6" r="1.8" fill="#2C8465"></circle><circle cx="584.8" cy="432.1" r="1.8" fill="#2C8465"></circle><circle cx="604.9" cy="445.4" r="1.8" fill="#2C8465"></circle><circle cx="624.9" cy="454" r="1.8" fill="#2C8465"></circle><circle cx="645" cy="475.5" r="1.8" fill="#2C8465"></circle><circle cx="665" cy="500.8" r="1.8" fill="#2C8465"></circle><circle cx="685.1" cy="497.3" r="1.8" fill="#2C8465"></circle><circle cx="705.1" cy="507.6" r="1.8" fill="#2C8465"></circle><circle cx="725.2" cy="529.2" r="1.8" fill="#2C8465"></circle></g></g><g id="line__France"><path id="outline" fill="none" stroke-linecap="butt" stroke-linejoin="round" stroke="#fff" stroke-width="2.5" d="M63.5 407.4L83.6 370.1L103.6 412.4L123.7 483.2L143.7 486.4L163.8 473.1L183.8 460.8L203.9 478.7L223.9 423.4L244 443.4L264 459.7L284.1 483.5L304.1 469.4L324.2 457.3L344.2 465.2L364.3 447.3L384.3 466.5L404.4 458.9L424.4 467.6L444.5 468.6L464.5 462.2L484.6 471.2L504.6 464.3L524.7 467.1L544.7 518.7L564.8 503.8L584.8 483.6L604.9 463L624.9 502L645 502.2L665 503.9L685.1 502.4L705.1 461.7L725.2 510.4"></path><g id="polyline"><polyline id="polyline" points="63.50,407.40 83.60,370.10 103.60,412.40 123.70,483.20 143.70,486.40 163.80,473.10 183.80,460.80 203.90,478.70 223.90,423.40 244.00,443.40 264.00,459.70 284.10,483.50 304.10,469.40 324.20,457.30 344.20,465.20 364.30,447.30 384.30,466.50 404.40,458.90 424.40,467.60 444.50,468.60 464.50,462.20 484.60,471.20 504.60,464.30 524.70,467.10 544.70,518.70 564.80,503.80 584.80,483.60 604.90,463.00 624.90,502.00 645.00,502.20 665.00,503.90 685.10,502.40 705.10,461.70 725.20,510.40" stroke-linejoin="round" stroke-width="1.5" stroke="#C15065" fill="none" stroke-linecap="butt"></polyline></g><g id="markers"><circle cx="63.5" cy="407.4" r="1.8" fill="#C15065"></circle><circle cx="83.6" cy="370.1" r="1.8" fill="#C15065"></circle><circle cx="103.6" cy="412.4" r="1.8" fill="#C15065"></circle><circle cx="123.7" cy="483.2" r="1.8" fill="#C15065"></circle><circle cx="143.7" cy="486.4" r="1.8" fill="#C15065"></circle><circle cx="163.8" cy="473.1" r="1.8" fill="#C15065"></circle><circle cx="183.8" cy="460.8" r="1.8" fill="#C15065"></circle><circle cx="203.9" cy="478.7" r="1.8" fill="#C15065"></circle><circle cx="223.9" cy="423.4" r="1.8" fill="#C15065"></circle><circle cx="244" cy="443.4" r="1.8" fill="#C15065"></circle><circle cx="264" cy="459.7" r="1.8" fill="#C15065"></circle><circle cx="284.1" cy="483.5" r="1.8" fill="#C15065"></circle><circle cx="304.1" cy="469.4" r="1.8" fill="#C15065"></circle><circle cx="324.2" cy="457.3" r="1.8" fill="#C15065"></circle><circle cx="344.2" cy="465.2" r="1.8" fill="#C15065"></circle><circle cx="364.3" cy="447.3" r="1.8" fill="#C15065"></circle><circle cx="384.3" cy="466.5" r="1.8" fill="#C15065"></circle><circle cx="404.4" cy="458.9" r="1.8" fill="#C15065"></circle><circle cx="424.4" cy="467.6" r="1.8" fill="#C15065"></circle><circle cx="444.5" cy="468.6" r="1.8" fill="#C15065"></circle><circle cx="464.5" cy="462.2" r="1.8" fill="#C15065"></circle><circle cx="484.6" cy="471.2" r="1.8" fill="#C15065"></circle><circle cx="504.6" cy="464.3" r="1.8" fill="#C15065"></circle><circle cx="524.7" cy="467.1" r="1.8" fill="#C15065"></circle><circle cx="544.7" cy="518.7" r="1.8" fill="#C15065"></circle><circle cx="564.8" cy="503.8" r="1.8" fill="#C15065"></circle><circle cx="584.8" cy="483.6" r="1.8" fill="#C15065"></circle><circle cx="604.9" cy="463" r="1.8" fill="#C15065"></circle><circle cx="624.9" cy="502" r="1.8" fill="#C15065"></circle><circle cx="645" cy="502.2" r="1.8" fill="#C15065"></circle><circle cx="665" cy="503.9" r="1.8" fill="#C15065"></circle><circle cx="685.1" cy="502.4" r="1.8" fill="#C15065"></circle><circle cx="705.1" cy="461.7" r="1.8" fill="#C15065"></circle><circle cx="725.2" cy="510.4" r="1.8" fill="#C15065"></circle></g></g></g></g></g></g><g id="footer" class="SourcesFooter" style="fill:#5b5b5b"><g id="sources" class="markdown-text-wrap"><text x="16.0" y="580.9" style="font-size:13.5px;line-height:1.2"><tspan x="16" y="580.9"><tspan style="font-weight:700">Data source:</tspan> Ember (2024); Energy Institute - Statistical Review of World Energy (2024)</tspan></text></g><text id="origin-url" font-size="13.50" x="615.3" y="580.9"><tspan x="615.3" y="580.895"><a target="_blank" style="fill: #5b5b5b;" href="https://ourworldindata.org/energy">OurWorldInData.org/energy</a> | <a target="_blank" style="fill: #5b5b5b;" href="https://creativecommons.org/licenses/by/4.0/">CC BY</a></tspan></text></g></svg>